<svg xmlns="http://www.w3.org/2000/svg" role="img" xmlns:xlink="http://www.w3.org/1999/xlink" viewBox="142.72 327.47 323.06 141.31"><defs><clipPath id="a"><path d="M144 418h1v62.32813h-1zm0 0"/></clipPath><clipPath id="b"><path d="M144 311.67188h1V417h-1zm0 0"/></clipPath><clipPath id="c"><path d="M144 311.67188h324v168.65625H144zm0 0"/></clipPath><clipPath id="d"><path d="M467 311.67188h1v168.65625h-1zm0 0"/></clipPath><clipPath id="e"><path d="M144 479h4v1.32813h-4zm0 0"/></clipPath><clipPath id="f"><path d="M147 480h2v.32813h-2zm0 0"/></clipPath><clipPath id="g"><path d="M154 478h7v2.32813h-7zm0 0"/></clipPath><clipPath id="h"><path d="M167 478h7v2.32813h-7zm0 0"/></clipPath><clipPath id="i"><path d="M180 478h8v2.32813h-8zm0 0"/></clipPath><clipPath id="j"><path d="M194 477h7v3.32813h-7zm0 0"/></clipPath><clipPath id="k"><path d="M208 477h5v3.32813h-5zm0 0"/></clipPath><clipPath id="l"><path d="M222 476h4v4.32813h-4zm0 0"/></clipPath><clipPath id="m"><path d="M235 476h5v4.32813h-5zm0 0"/></clipPath><clipPath id="n"><path d="M246 479h9v1.32813h-9zm0 0"/></clipPath><clipPath id="o"><path d="M247 479h2v1.32813h-2zm0 0"/></clipPath><clipPath id="p"><path d="M260 479h8v1.32813h-8zm0 0"/></clipPath><clipPath id="q"><path d="M260 478h2v2.32813h-2zm0 0"/></clipPath><clipPath id="r"><path d="M273 479h8v1.32813h-8zm0 0"/></clipPath><clipPath id="s"><path d="M286 479h9v1.32813h-9zm0 0"/></clipPath><clipPath id="t"><path d="M285 478h3v2.32813h-3zm0 0"/></clipPath><clipPath id="u"><path d="M300 479h8v1.32813h-8zm0 0"/></clipPath><clipPath id="v"><path d="M299 477h2v3.32813h-2zm0 0"/></clipPath><clipPath id="w"><path d="M313 479h8v1.32813h-8zm0 0"/></clipPath><clipPath id="x"><path d="M311 478h3v2.32813h-3zm0 0"/></clipPath><clipPath id="y"><path d="M326 478h8v2.32813h-8zm0 0"/></clipPath><clipPath id="z"><path d="M325 479h3v1.32813h-3zm0 0"/></clipPath><clipPath id="A"><path d="M340 478h7v2.32813h-7zm0 0"/></clipPath><clipPath id="B"><path d="M340 480h2v.32813h-2zm0 0"/></clipPath><clipPath id="C"><path d="M353 478h8v2.32813h-8zm0 0"/></clipPath><clipPath id="D"><path d="M353 480h3v.32813h-3zm0 0"/></clipPath><clipPath id="E"><path d="M367 477h7v3.32813h-7zm0 0"/></clipPath><clipPath id="F"><path d="M381 477h5v3.32813h-5zm0 0"/></clipPath><clipPath id="G"><path d="M393 478h8v2.32813h-8zm0 0"/></clipPath><clipPath id="H"><path d="M393 480h2v.32813h-2zm0 0"/></clipPath><clipPath id="I"><path d="M406 479h9v1.32813h-9zm0 0"/></clipPath><clipPath id="J"><path d="M406 479h3v1.32813h-3zm0 0"/></clipPath><clipPath id="K"><path d="M421 477h6v3.32813h-6zm0 0"/></clipPath><clipPath id="L"><path d="M434 477h6v3.32813h-6zm0 0"/></clipPath><clipPath id="M"><path d="M448 476h4v4.32813h-4zm0 0"/></clipPath><clipPath id="N"><path d="M461 477h5v3.32813h-5zm0 0"/></clipPath><clipPath id="O"><path d="M144 464h4v6h-4zm0 0"/></clipPath><clipPath id="P"><path d="M144 451h3v6h-3zm0 0"/></clipPath><clipPath id="Q"><path d="M144 438h4v4h-4zm0 0"/></clipPath><clipPath id="R"><path d="M144 424h4v6h-4zm0 0"/></clipPath><clipPath id="S"><path d="M144 410h3v7h-3zm0 0"/></clipPath><clipPath id="T"><path d="M144 397h3v7h-3zm0 0"/></clipPath><clipPath id="U"><path d="M466 400h2v4h-2zm0 0"/></clipPath><clipPath id="V"><path d="M144 385h4v4h-4zm0 0"/></clipPath><clipPath id="W"><path d="M144 372h4v4h-4zm0 0"/></clipPath><clipPath id="X"><path d="M144 356h2v9h-2zm0 0"/></clipPath><clipPath id="Y"><path d="M144 344h3v6h-3zm0 0"/></clipPath><clipPath id="Z"><path d="M144 330h3v7h-3zm0 0"/></clipPath><clipPath id="aa"><path d="M144 317h2v7h-2zm0 0"/></clipPath><clipPath id="ab"><path d="M466 318h2v2h-2zm0 0"/></clipPath><g id="ac" clip-path="url(#clip1)"><path fill="#fff" fill-opacity="0" fill-rule="evenodd" d="M.03906 0h1000v1000h-1000zm0 0"/><path fill="#d3d3d3" fill-opacity="0" fill-rule="evenodd" d="M162.1914 355.86719l-.23437.29297.0586.23437.11718.17188.17578.23437.29297.34766.11328.0586.1172-.17188.05858-.23438.17579-.17578.46484-.17578h.69922l.23437.29297.28907.8164.05859.17579.17578.23046.35156.23438.69922.69922.17188.17578.23437.34765.23438.41016.28906.58203.41016.46485.23047.23437.23437.17578.11719.23047.17578.29297.17187 1.16406v.23438l.0586.28906.0586.11719.11718.11719.34766.41015.11718.17188.17578.17578.17578.23437.1172.17188.17187.35156.0586.23438.23437.40625.23437-.0586-.17578.17578-.0586.92969h-.58202l-.23438-.11328-.34766.11328-.11718.11719-.0586.29297-.0586.17578-.11718.17187-.46484.29297-.0586.23438-.05859.11328v.64453l.0586.17187v.41016l.05859.0586v.40624l.0586.40625.11718.17579.0586.05859.23046.64062-.0586.29297v.69922l-.05859.58203v.23438l-.05859.23047-.05469.35156v1.92187l.05469.1172h.42578l-.36719.11718-.02343.35156.89062 1.16797 1.74219.53906 1.33984.35938v.53906l.08985.8086.53515.71484 1.51953.26953.89063-.08594.08984 1.16406.53516.1797 1.16016-.1797 2.05468-.98437 1.16016-.36328 1.8789-.17578 1.69532-.1797-.17969.71876-1.51563.08594-1.25.08984-.80468.26953-1.07422.8086.26953.71875.53516.89843-.1797.625-.26562.8086.26563 1.07812.625.89844.80469.17969 1.25-.1797-.26563.72267.09766.5039.05469.29297v.17188l.05859.29296v.40625l.17578.1172.35156.11718h.40625l.29297-.17578.11328-.11719.0586-.11719.11718-.23047.0586-.17578.35156-.46484.23047-.17578.17578-.0586.17578.0586.0586.17578.11718.98828.05469.46875.0586.17188.11718.23437.17578.0586.8164.05859h.28907l.11719.23437.0586.40625.05859.35156v1.10547l.11718.29297.1172.34766.28905.69922.17578.35156.58204.7539.35156.17579.17187.0586.46875.23437.64063.46484.34766.23438.29296.17578.29297.05468.23047.0625.8164.34766.29298.17578.11328.17188.35156.35156.11719.17578.52344.64063v.28906l.05859.35156v.34766l.0586.35156.05859.28906.11718.0586.17188.05859h.17578l.58203.23437.17578.1172.17578.28905.17578.23438.11329.23437.29297.23047.11718.11719v.41016l.0586.05468.28906.23438.23437.11719.0586.11718.11719.17188.05859.11719.23047.23437.0586.17578.23437.0586.11718.05859-.11718.11328-.0586.11719v.11719l-.11719.29296-.11718.28907v.58203l.17578.11719.11719.05859.05859.11719.11719.11719.11328.05859.17578.34765.0586.35157.05859.40625v.17578l-.0586.17578-.11718.69922v.17187l.11718.17579.29297.29296h.40625l.17578.1172.1172.17187.11718.29296v.23438h-.52734l-.23047-.23438h-.23438l-.17578.0586-.0586.69922.0586.34765.11719.17579.17578.41015.11719.23047.28906.46875.17578.05469h.52344l.23437.0586.75781.64062.0586.29296v.23438l.0586.0586.23046.34765v.35156l-.11719.17188v.29297l.29297.28906.29297.17578.17188.0586.29297.17577.29296.1172.58203.40624.28907.23438.29297.17578.21875.16015.01562.01172.23047.17579.64063.52343.17578.23438.11718.17578.17578.17578.11329.17188v.64062l.11718.17578.46875.11719.58203.11719.23438.05859.23047.11328.29297.11719.11328.0586.58594.35156.28906.17187.17578.0625.17578.05469.17578.0586.69922.35155.28906.17579.23438.05468.28906.17578.23438.1172.64062.40624.29297.11719.17188.0586.23437.05859.41016.05859.23047.0586.23437.11718.0586.17188-.41016.17578.46875.0586.0586.29296.11327.23438.17578.05468.23438.0586.17578.05859.40625.11719.64063.23437.11718.17188.0586.23437v.17578l-.0586.1172-.0586.40624.23438.23438.1172.05859.34765.11719.64062.23047.17578.11718.28907.1172.17578.17577.23437.46485.58203 1.10546.17578.17579.34766.17578.17578.11719.35156.11718 1.04688.52344.23438.0586.46484.11327.29297.0586.46484.17578.75781.58203.23438.23438.34766.46484.17578.17578.28906.23438.8164.69921.29297.17579.28907.28906.29297.17578.29296.28906.69532.64063.17578.17578.29297.23437.28906.23438.46875.28906.64062.58203.34766.23438.23438.29297.34765.34765.35156.46485.9336.99218.34765.40625.1172.17579.23437.05859.11328.11719.64453.17578.23047.11328.23437.0586.29297.17577.23047.1172.9336.69921.40624.40625.23438.17578.40625.17578.23437.11719.81641.34766.34766.23437.23437.11719.29297.28906.23047.11719.75781.35156.35156.17188.23047.05859.29297.11719.23438.0586.87109.17577h.8164l.46876.23047.17187.0586.875.69921.46484.1172.29297.05858.17578.0586.23047.0586.46875.05859.34766.05859.35156.0586.40625.05859h.29297l.17188.0586v.23046l.17578.17578h.29297l.34765.0586.35156.05859.69922.11719h.64063l.46484-.23438.29297-.17578.17188-.11719.41015-.17187.28906-.17578.9336-.46485.46875-.29297.52344-.29296.46484-.17188.46484-.17578 1.05078-.46485.28907-.11718.41015-.11719.28907-.11719.52734-.17578 1.51563-.69922.58203-.34765.28906-.0586.29297-.0586.34765-.11718.875-.23047.35157-.11719h.11328l.23437-.05859.875-.23437.23438-.0586h.8125l.35156-.0586.8164-.11718.17188-.0586.35156-.05468.29297-.0586.23047-.05859.8164-.17578.17579-.0586h.34765l.23438-.05859.46484-.11718.75782-.17188.23437-.0586h.34766l.41015-.11718.28907-.0586 1.28515-.05859h.28906l.41016-.0586.23047-.05858h.17578l.875-.1172h.40625l.41016-.11718h.34765l.35157-.11328.87109-.0586h1.75l1.04688.28907.41015.11719.28906.11718.35157.11719.28906.11719 1.05078.17187.28906.0586h.29297l.29297.05859.17188.0586.41015.05859.17188.0586.11718.05858h.1172l.11718.0586.35156.0586h.11328l.41016.0664 1.92187.39453 1.92579.39453 1.51953.44922 1.6953.71875 2.14454.80469 1.60547-.71875 1.42969-.80469 1.16015-1.07813 1.25-.44921 3.03516-.71875 1.875-.35938 2.14453-1.34765 2.23438-1.25391 2.5-1.25781 1.6953-.44922 1.78516-.17969 1.16016-.26953.625.53906 1.33984-.26953.71485-.98828.98437-1.34375.44531-.17969.8047-.35937 1.875-.53907 1.78515-.44921 1.25-.26954 1.16015-.08984 1.69922-.08984 1.96094-.26954 1.25-.08984h.53906l.625-.08984h.89063l2.14453-.17969 2.41016-.17969 2.58984-.08984 1.69531.17969 1.60938.08984 1.42969.35938 1.16015.71875 1.875.98828 1.16016 1.52734.26562.71484.6289.08985.35548.89844.53515.53906.53516 1.52734 1.07422.35938h.53515l-.80468.53515.08984 1.70703.71485 2.69532.89062.80468.89453.98829.71485 1.2578 1.78515.53907 1.51953-.17969.35547 1.34375 1.60938-.80469.98046-.53906.26954.26953.3164-.21484.21875-.14453.80078.44922.44922-.35938h.35547l.53516-.26953.53906-.71875.53516-.26953.625-.98828 1.16015.44922.83985.3711 1.39453.61718 1.69531-.17969h1.60547l1.78515.08985.1797-1.70704.53515-1.34375.80469.26954.49218.84765.40235.40625-.08985.53906v.35938l.71485.44922.71094-.26953h1.42968l.35938.98828.44531 1.25781.71484 1.34375 1.25.6289 1.69532.62891.71484-.17969.17969-.53906.98047-.08984.44921.35937.08594 1.25782-.26562.6289-.53516.17969v.53906l.71485.98438.26562.53906.98438.98828.80078 1.07813-.26563.35937-.08984.89844-.625 2.33203-.35547 2.0664-.08985 1.79298-.17968.71875-.08985.53906v1.4375l-.98046 1.88281-.35938 1.70703-.53516.89844-.80468 1.16797-.26563.53906 2.05469 1.2539.08594.35938-.35547.53906-.08985-.17968v.80859l.08985 1.4375-.44531.71484-1.07422.09375-.26563.71485.53516.89844.80469.71875 1.16015.80859 1.33985.26953.4453.35938-.35546.44921-1.78906-.08984-1.25-.44922-.71485-.71875-.625-.08984-.17578 3.58984-.1875 1.3086h89.35938V311.70313h-55.26954v49.08203l.76172.125 3.28907.54296 2.02343 2.83594v2.7539l2.35157.33204 2.34765.33203h4.05078l-1.3789 4.16016-2.02344.70703-2.02344.70312-.54297.34375-2.59375 1.6172-.1875.11718-2.02343-2.07813-.73047-2.74218-2.67188-2.07813-1.375-3.5-.0664-.08203-1.95704-2.67188 2.75-1.41796v-49.08204H294.46094v91.41407l.11719.03125.1328.01172.07423.07421.10546.04688.08985.0586.08594.05859.08984.0586.29688.29687.05859.08984.03125.11719.02734.11719.01563.13671-.03125.1172-.0586.08983-.05859.08594-.04297.10547-.04687.10156-.02735.1211v.14453l.17578.26953.14844.14844.07422.08594.07422.07421.04297.10547.0625.08985.0586.08593.04296.10547.0586.08985.04687.10156.04297.10547.0586.08594.11718.17968.07422.07422.0625.08594.0586.08984.04296.10547.0586.08985.05859.08593.0625.08985.0586.08984.04296.10156.11719.17969.07422.07422.05859.08594.07422.07421.08984.0586.10547.04687h.14844l.13281-.01562.13281.01562.10157-.04687.07421-.07422.04688-.10156-.01563-.13281v-.14844l-.04687-.10547-.02734-.11719-.04688-.10156-.02734-.1211-.04297-.10156-.0625-.08984-.04297-.10156-.04297-.10547-.03125-.11719-.01562-.13281-.01172-.13672.08594-.0586.05859-.08593.1211-.03125.04296.10547.01563.1328v.1172l.05859.10156.0586.08984.08984.0586.14844.14843.05859.08985.04297.10547-.01172.10156.08594.0586.10546.04687.08594.0586.08985.05858.07421.07422-.11718.02735-.10547.04687-.08594.0586-.07422.07421-.0586.08985-.0625.08594-.02733.12109-.04688.10156-.04297.10547-.03125.11719-.01172.13281-.01562.13281v.14844l.02734.11719.04688.10547.04296.10156.0586.08984.07422.07422.08984.0586.07422.07421.08984.0586.0586.08984.04297.10547.04687.10156.11719.03125.13281.01563h.14844l.11719-.03125.10546.04297.04297.10547.04688.10156.02734.1211.03125.11718.02735.11719.03125.1211.02734.11718.10547.04297.10156.04687.13281-.01562.14844.14844.0625.08593.07422.07422.07031.07422.08985.0625.10546.04297.10157.04297.11719.03125.13671.01562.1172-.03125.07421-.07422.02734-.11718-.01171-.13282-.03125-.12109-.02735-.11719.04297-.10547h.11719l.08984.0625.11719.02735h.14844l.1328.01562h.14845l.1328.01563.13282-.01563h.14844l.13281-.01562.13281-.01172.13672.01172.11719-.02735.13281-.01562.1914-.0586-.05858.17579-.01563.1328-.02734.1211-.01563.13281-.0586.08594-.1328.01563-.10547.04687-.10547.04297-.11719.03125-.11719.02735-.26562.03125h-.14844l-.13281.01562-.07422.07422.0586.08594.14843.14843.11719.1797.07422.0703.08984.0625.08984.0586.08594.0586.08985.05858.10156.04297.10547.0625.10546.04297.08594.0586.10547.04687.10156.04297.1797.11719.05858.08984-.04296.10156-.04688.10547.01563.13281.22265.22266.0586.08985.04296.10156.03125.1211.04297.10155.01563.13282.03125.11718.01172.13672.03125.11719.14844.14844.10156.04297.10547.04296.11718.03125.13282.01563.13671.01563h.1172l.11718-.03125.08984-.0586.04297-.10547.04688-.10156.04297-.10547.03125-.11719.01171-.1328v-.14845l-.01171-.1328-.01563-.13282-.03125-.11719-.04297-.10547-.04687-.10547-.04297-.10156-.04297-.10547-.01563-.13281.01563-.13281.02734-.11719.03125-.11719.02735-.1211.04687-.10155.08985-.0586.08593-.0625.07422-.07422.08985-.05859.22265-.22266.0586-.08593.07421-.07422.1172-.17969.05859-.08594v-.14844l-.07422-.07421-.10156-.04688-.10547-.04297-.10157-.04297-.05859-.08984-.04688-.10547-.02734-.11719.08985-.05859.11718-.03125.10156-.04297.1797-.11719.14843-.14843.01172-.13282-.01172-.10546-.08984-.0586-.13282.01563h-.14843l-.13282.01562-.1328-.01562-.1211-.03125-.08594-.0586-.07422-.07422-.0586-.08984-.0625-.08594-.11718-.17969-.0586-.08593.03126-.1211.08593-.05859.1211-.03125.0586-.08594v-.1211l-.03126-.11718-.0586-.08984-.05859-.08594-.04687-.10547-.02735-.11719-.01562-.1328.0586-.08985.07421-.07422.08985-.0586.11718-.17968.07422-.07422.0586-.08594.14843-.14844.1211-.03125.13281-.01562.13281.01562.07422.07422.04297.10547.01563.13281-.03125.1172-.1172.03124-.1328.01172-.14844.14844-.04297.10547-.04688.10156-.02734.1211-.03125.11718v.14844l.03125.11719.04297.10546.0586.08985.07421.07031.07422.07422.11719.03125.1211.02734.11718-.02734.13281-.01563h.11719l.08984.0586.07422.07422.04688.10546.05859.08594.10156.04688.13281.01562.10547.04297.08594.0586-.01172.10546-.07422.07422-.17968.11719-.0586.08984-.08984.0586-.07031.07422-.07422.07421-.0625.08985-.02735.11719-.01562.1328.01562.13282-.01562.13281v.14844l.01562.13281.02735.1172.03125.12108.07422.07422.08984.0586.08594.0586.08984.05858.11719.03125v.08594l-.10156.04688-.08985.0586-.26562.03124-.11719.02735h-.14844l-.10547.04296-.10156.04688-.0586.08984-.0625.23438-.01171.13281-.03125.1211-.01563.1328v.29298l-.01171.1328.01171.13673.01563.1328.13281.01563.13281.01172.1211.03125.08594.0586.07421.07421.04688.10547.04297.10157.01562.1328v.44532l-.01562.13281v.44532l.03125.26562.02734.11719.01563.13281.03125.11719.08593.21094.03125.26562v.14844l-.03125.11719-.02734.11718-.03125.1211-.02734.11719-.03125.11718-.03125.1211-.01172.1328-.01563.13282.08985.0586.11718-.03125.10157.01562.04687.10547-.03125.26562v.44141l-.04297.10547-.04687.10547-.04297.10156-.04297.10547-.0586.08594-.03124.12109-.04297.11719-.03125.11719-.01563.1328.01563.13282.0586.08984.10546.04688.08594.0586.0586.08593-.01173.13672-.03125.11719-.04297.10156v.44531l-.01562.13281v.14844l-.03125.11719-.04297.10547-.02734.11719-.04688.10546-.04297.10157-.03125.12109-.02734.11719-.03125.13281-.03125.11719-.02735.11719-.04296.10546-.03125.1172-.03125.12108-.01172.13282-.01563.13281v.29688l.02735.11718v.14844l.04687.39844.02735.11719.05859.08984.1211.03125h.14843l.13281-.01563.0586.08985v.11719l-.0586.08984-.08984.0586-.10156.04296-.10547.04688-.08985.05859-.08593.0586-.13672.01562-.11719-.03125-.13281-.01563-.10156.04688-.0625.08594-.01172.13671-.01563.13282-.03125.11719-.02734.11718-.01563.13281-.03125.1211v.29687l.01563.13282.03125.11718v.14844l.01172.13281v.14844l-.02735.11719-.04687.10156-.02735.1211-.03125.11718-.05859.08985-.07422.07421-.10156.04297-.10547.04688-.11719.02734-.1211.03125-.10155-.04687.05859-.08594.10547-.04688.02734-.11718.03125-.11719.02735-.1211.03125-.11718v-.14844l.01562-.13281-.03125-.11719-.04297-.10547-.10547.01563-.07421.07422-.10157.04296-.08984.0625-.07422.07422-.04297.10157-.01562.1328-.03125.1172-.02735.12109-.03125.11719-.02734.11719-.03125.12109-.02735.11719-.03125.11718-.04296.10547-.08985.0586h-.08984l-.11719-.03125-.03125-.08594.01563-.13672-.03125-.11719v-.14844l-.01172-.1328v-.14844l-.0625-.23438-.02735-.1211-.04296-.10156-.04688-.10546-.0586-.08594-.05859-.08985-.04297-.10546-.0625-.08594-.14843-.14844-.07032-.07422-.10546-.04687-.10547-.04297-.10157-.04297-.29687-.29688-.08985-.07421-.08593-.0586-.10547-.04297-.08985-.0625-.08593-.0586-.10547-.04296-.08985-.0586-.08593-.0625-.07422-.0703-.10547-.04688-.08594-.0586-.10547-.04296-.08984-.0625-.10156-.04297-.10547-.04297-.08594-.0586-.10547-.04687-.10547-.04297-.10156-.04687-.08984-.0586-.10156-.04297-.10547-.04296-.08985-.0625-.11719-.02735-.1328-.01562-.13282.01562h-.14844l-.13281.01563-.11719-.03125-.08984-.0586-.07422-.07422-.08984-.05859-.10157-.04688h-.14843l-.1211-.02734-.10156-.04297-.07422-.07422-.11719-.17968-.08984-.0586-.10156-.04297-.08985-.0625-.10546-.04296-.08985-.0586-.08594-.0586-.10546-.04687-.0586-.08594-.0586-.08984-.04296-.10547-.04688-.10156-.07421-.07422-.08594-.0586-.07422-.07421-.08985-.0586-.22265-.22265-.04297-.10547-.03125-.26563.10547-.04296h.14453l.10547.04296.07422.07422.08984.0586.08594.0586.10547.04687.08984.05859.14844.14844.07031.07422.14844.14843.0625.08594.07422.07422.08594.0586.07421.07421.08985.0625.08984.0586.08594.05859.26953.17578.10156.04688.10547.04296.10156.04297.04688-.07421.0586-.08594.07421-.07422.07031-.07422.10547.04297.07422.07422.0586.08984.04296.10156.04688.10547.04297.10547.1211.02735.11718-.02735.07422-.08984.04297-.10547.05859-.08985.07422-.07421.10547-.04297.11719-.02735.1328.01172.08985.0586.14844.14843.0586.08985.04296.10547.04688.10156.04296.10547.04297.10156.10547.04688.10547.04296.13281.01563.08594-.0586.0586-.08984.07421-.07422.10547-.04297.11719.02735.10547.04687.10156.04297.10547.04297.10156.04688.17969.11718v.11719l-.01563.13281.01563.13281.01563.13672.05859.08594.10156.04688.1211.02734.11718.03125h.14844l.11719-.03125.0586-.08984.17968-.1172.0586-.08983.07421-.07422.0586-.08594.11718-.17969.17969-.11719.11719.03125.08984.0586.04297.07422-.01563.1328v.1172l.08985.05859h.14844l.1328-.01563.13282-.01171.26563-.03125.10546-.04297.1172-.03125.12109-.02735.07421-.07421.07032-.07422.0625-.08985-.01563-.10547-.04687-.10156-.10156-.04297-.10547-.01562-.1172.02734-.26562.03125h-.14843l-.07422-.07422-.08985-.0586-.11718-.03124-.1172-.02735-.1328-.01562h-.14844l-.13281.01563h-.29688l-.10547-.04688-.14844-.14844-.04296-.10156-.0586-.08984.22266-.22266.08594-.0586.10546-.04296.1172-.03125.1328-.01563.13282.01563.13672.01562.10156.04297.13281-.01172.08985-.0625.10156-.04297.0625-.08984-.04688-.10156-.08984-.0586-.11719-.03125-.10156-.04296-.0586-.08985-.0625-.08984v-.11719l.01563-.13281.10547-.04688.07422-.07031v-.1211l-.08985-.05859-.03125-.11719.08985-.05859.07422-.07422.04296-.10547.0586-.08984.04687-.10156.01563-.13281v-.14844l-.04688-.10547-.04296-.10156-.08985-.0586-.13281-.01562-.10156-.04297-.13672-.01563-.11719-.03125h-.44531l-.13281-.01562-.13282-.01172-.13281-.01563-.11719-.03125h-.14844l-.1328-.01562-.13282-.01172-.26563-.03125-.12109-.04297-.08594-.0586-.07421-.07421v-.14844l.01171-.13281.10547-.04688.10156-.04296.13282-.01563h.15234l.13281-.01562h.29297l.1211.03125.10156.04296.08984.0586.23438.0625.1211-.04688.08983-.05859.10157-.04297.13281-.01562.10547.04296.10156.04688.13281.01172.1211-.02735h.14453l.1211-.03125.11718-.02734.10547-.04687.07422-.07422.08594-.0586.14843-.14843.0586-.08594.04687-.10547.02735-.11719.01562-.10547-.10156-.04296-.08985-.0586-.11718-.03125-.10547-.04297-.08985-.0625-.07421-.08594-.07422-.07421-.10157-.04297-.10546-.04688-.10157-.04297-.0586-.08984-.04687-.10156-.08593-.21094-.0625-.08594-.0586-.08984L304.1836 417l-.08593-.0586h-.26954l-.11718.03126-.08985.05859-.10156.04297-.13281.01562-.10547-.01562-.02734-.11719-.0625-.08984-.1172-.03125-.10155-.04297-.14844-.14844-.03125-.11719-.01563-.10546.07422-.07422.17969-.1172.11719-.02733.11719-.03125.13671.01562.10157.04297.10546.04297.10157.04687.10547.04297.11718.03125.13282.01563.11718.02734.13282.01563.10546-.01563.08985-.0586-.07422-.07421-.10547-.04297-.07422-.07422-.07422-.08984-.14843-.14844-.08594-.0586-.08985-.05859-.07421-.07422-.08985-.0586-.10156-.04687-.1211-.02734-.10156-.04688-.10546-.04296-.1172-.03125-.10156-.04297-.12109-.03125h-.14844l-.11718.03125-.10547.04297-.08594.0625-.17969.11718-.08594.0586-.08984.0586-.10547.04687-.08594.05859-.10546.04297-.10157.04297-.10546.04687-.07422.07422-.0586.08985-.0586.08593-.04687.10547-.05859.08594-.07422.07422-.13281-.01172-.11719-.03125h-.11719l-.07421.07422-.08985.0586-.07422.07421-.08984.0586-.08594.05859-.10547.04687-.10156.04297-.13672.01563-.10156-.04297-.14844-.14844-.10547-.04688h-.08594l-.10546.04688-.10157.04297-.12109.03125-.11719-.03125-.07422-.07422v-.11719l.03125-.1211.07422-.0703.0586-.08985.07421-.07422.1172-.03125.10546-.04296h.29297l.13281-.01563.13672-.01563.10156-.04296.08985-.0586.10156-.04687.08984-.0586.13282-.01171.08984.05859.13281.01172.08985-.0586.08593-.05859.10547-.04297.08985-.0586.08593-.0625.08985-.05859.14844-.14843.05859-.08594.0586-.08985.10546-.04296.13281-.01563.1172.02735.12108.03125.0586-.0586.0586-.08984.03124-.26563.02735-.11719.10546.01172.13282.01563.10156-.04297.08984-.0586.0586-.08984.07422-.07422.05859-.08984.04688-.10156.01171-.13281-.01171-.13282L303 413.9961l-.14844-.14843-.0586-.08985-.05858-.08594-.04297-.10546v-.44532l.01562-.1328v-.14845l.01172-.1328-.0586-.0586-.08984.0586-.10156-.04298-.17969-.11719-.08594-.05859-.0625-.08984-.05859-.08985-.07422-.07421-.08594-.0586-.12109.03125-.10156.01172-.10547.04688-.08594.05859-.10547.04297-.14843.14844-.08985.05859-.08594.0586-.08984.0625-.10547.04296-.13281.01563v-.1211l.10547-.04297.11719-.03125.07421-.0703.04297-.10548v-.14844l-.02734-.11718-.14844-.14844-.13281-.01563h-.14844l-.11719.03125-.10546.04297-.10157.04297-.08984.0625-.11719.02735-.07422-.07422.01172-.13281-.04297-.10157-.04296-.10547-.08985-.05859-.11719.02734-.12109.03125-.11719.03125-.10156.04297-.1211.03125-.10156.04297-.10546.04297-.08985.0586-.10156.01562v-.11719l.01562-.13281-.05859-.08985-.07422.04297-.14844.14844-.05859.08985-.07422.07421-.04687.10547-.04297.10156-.07422.07422-.0586.08985-.07421.07422-.0586.08593-.07422.07422-.08984.0625-.07422.07031-.07422.07422-.10156.01563-.13281.01562-.10547-.04296v-.1211l.14844-.14844.04296-.10156.0586-.08984.04687-.10156.04297-.10547.0586-.08985.03125-.11719.04296-.10156.03125-.1211.02735-.11718.04687-.10547.04297-.10156.04297-.10547.07422-.07031.08984-.0625.08985-.0586.10156-.04296h.29688l.26562-.03125.10547-.04297-.07422-.07422-.11719-.03125-.10547-.04297-.08984-.0586-.10156-.04687-.08985-.0586-.10156-.04296-.10547-.04297-.08984-.0625-.08594-.0586-.10547-.04296-.10156-.04297-.1211-.03125-.11718-.03125-.10156-.04297-.1211-.03125-.10156-.04297-.08984-.0586-.04297-.10546-.01563-.13281.10156-.04297.13282-.01563.13672.01563.1328-.01563.10157-.04297.0586-.08984.01562-.10547-.08984-.0586-.07422-.07421-.10156-.04297-.08985-.0586-.14844-.14843-.04296-.10547-.01563-.13281v-.29297l-.0586-.08985-.08984-.05859-.07422-.07422-.04296-.10547-.03125-.11718-.0586-.08985-.07422-.07422-.11719-.02734-.07421-.07422-.08985-.0586-.08984-.0625-.08594-.05859-.07422-.07421-.0586-.08594-.04687-.10547-.08593-.0586-.14844-.14843-.19531-.0586-.13282.01563-.10156.04297-.07422.07422-.04687.10156-.04297.10547-.0586.08984-.05859.08594-.29687.29687-.08985.0586h-.08594l-.0625-.08594-.04296-.10547.03125-.11719.05859-.08984.02734-.11719-.01171-.13281-.08985-.0625-.10547.04688-.11719.02734-.11718.03125-.26953.17578-.10157.04688-.11718.02734-.10547.04687-.08985.0586-.10156.04297-.0586-.08594-.04687-.10547.01563-.13281.04687-.10547.07031-.07422.07422-.07031.0586-.08985v-.14843l-.04297-.10547h-.23828l-.10156.04687-.03125.11719-.02735.11719-.03125.1211-.07422.04296-.13281.01563-.07422-.04688-.04297-.10156-.04297-.10547-.04687-.10156-.04297-.10547-.1211.03125-.10156.04297-.1328.01562-.1172.03125-.10546.04297-.08985.0586-.10156.04687-.1211.02734-.1328.01563-.10157-.04297-.0586-.08985-.04687-.10546-.04297-.10157-.04297-.10546v-.1172l.0586-.08984.08594-.05859.17968-.11719.10156-.04687.10547-.04297.10547-.0586.10156-.04296.08985-.0625.10156-.04297.10547-.0586.10156-.04687.08985-.0586.10546-.04296.10157-.04297.08984-.0625.10156-.04297.13672-.01563.11719.03125.10156.04297.1211.03125.10156.04297.10547.04688.10156.04296.10547.04297.10156.04688.10547.04297.10156.04297.10547.04687.08594.0586.10547.04296.11719.03125.10546.04297.10157.04688.08984.0586.10547.04296.10156.04297.10547.04687.11719.02735.10156.04687.1211.02735h.14843l.08594-.0586.01562-.10156.0586-.08984-.02735-.1172-.07421-.07421-.1172-.17969-.07421-.07422-.08985-.07421-.17968-.1172-.08594-.05859-.10547-.04296-.10156-.04688-.26953-.17578-.0586-.08985-.07421-.07421-.0586-.08985-.04297-.10156-.03125-.11719-.01562-.13672v-.5625l-.01172-.1328-.01563-.13282-.03125-.11719-.01562-.13281-.01172-.13281-.03125-.1211-.22266-.22265-.05859-.08594-.01563-.10547.03125-.11719.13282-.01562v-91.41406H173.03125v1.45312l-.0586.23438-.35156 1.05078-.17187.52343-.11719.34766-.17578.41016-.11719.17187-.23437.29297-.23047.0586h-.35156l-.1172.05859-.23046.40625v.29297l.11719.17578.23047.23047.11718.23437.64063.75781.29297.46485.17578.23437.23047.35156.23437.34766.64063.8164.17578.46485.17187.41016.1172.69531.17577.46875.11719 1.39844.0586.46484v.875l.11718 1.04688v4.78125l-.0586.46484-.35155 1.28125-.17579.52344-.11328.41015-.35156.9297L172.97266 336l-.23438.58203-.11719.17578-.17187.34766-.17578.40625-.35156.8164-.0586.29297-.11328.29297-.11719.28906-.0586.17579-.11718.875-.0586.40625-.05859.11718-.05859.17579-.0586.17187-.23046.52734-.11719.17188v.23437l-.11719.23438-.0586.17187-.17577.58594v.28906l-.0586.17579v.29296l-.05859.11329-.0586.52734v.17187l-.05468.23438v2.6211l-.17578.8164-.11719.17578-.17578.23438-.11719.17187-.11328.23438-.58594.93359-.23047.28906-.29297.46485-.17578.23437-.28906.35156-.35156.69922-.11328.23047-.17578.41016-.17578.23046-.40625.52735-.81641.69922-.29297.17187-.28906.23438-.17578.11719-.17578.17578-.52344.40625-.52735.17578-.17187.17578-.23438.05469-.64062.17578h-.75781m12.21093 31.02344l-1.07422.44921.35938.89454 1.25-.71485.44531-.53906-.98047-.08985"/><path fill="#d3d3d3" fill-opacity="0" fill-rule="evenodd" d="M201.54688 416.59766h-.89454l.44922.6289.98047.35938.80469-.08985.44531-.98828-.17578.08985-.71484-.35547-.89453.35547m154.62109 59.0703l-.0586-.52343v-.29297l.11329-.29297.05859-.23046.46875-.46875h.11328l.11719-.11329.11719-.05859h.17578l.23437-.0586h.34766l.23437.0586.1172.0586.23046.17187.0586.17578.11718.58203v.29297l-.11719.17578-.17187.28906-.17578.17579-.52735.52343-.23046.23438-.1172.0586h-.17577l-.1172-.0586-.40624-.29297-.17578-.11719-.11719-.0586-.0586-.11327-.05468-.1172m6.64062-10.95702l-.05859-.17188v-1.10937l.0586-.17188.17577-.0586.17188-.05858h.17578l.23438-.0586.11718.0586.0586.69921-.0586.17188-.11718.17578-.1172.0586-.23437.52343-.11328.0586h-.23437l-.0586-.1172m9.61329-14.39062l-.1172-.17578v-.69922l.29298-.875.11718-.17187.17579-.35156.11328-.23047.11718-.29297.35157-.75781.11718-.23047.17188-.23438h.17578l.11719-.0586h.64062l.11719.0586.23438.23438.17187.11328.35156.29297.11719.11718.11328.17579v.11328l.11719.05859.11719.11719v.69922l-.0586.17578v.23047l-.0586.17578-.34765 1.05078-.11719.23047-.11718.23437-.11719.0586-.23047.23437-.64062.28906h-.875l-.41016-.11718-.64063-.46485"/><path fill="none" stroke="#bebebe" stroke-linecap="round" stroke-linejoin="round" stroke-miterlimit="10" stroke-width=".5" d="M0 311.69531h0v168.625h0v-168.625"/><g clip-path="url(#a)"><path fill="#fff" fill-opacity="0" fill-rule="evenodd" d="M144.03906 475.89063v4.4375h.0039-.0039v-61.35938 56.92188"/></g><g clip-path="url(#b)"><path fill="#fff" fill-opacity="0" fill-rule="evenodd" d="M144.03906 413.7539v2.44532-104.52735h.0039-.0039v102.08204"/></g><path fill="#50fcfc" fill-rule="evenodd" d="M144.03906 416.19922v2.76953h.0039v-2.76172l-.0039-.00781"/><g clip-path="url(#c)"><path fill="#fff" fill-opacity="0" fill-rule="evenodd" d="M144.04297 480.32813v-61.35938l.60937-.77734-.60937-1.98438V311.67188h35.5039v53.70703l-3.01171 3.99218.89843 4.4375 2.11328 2.11329 4.4375 1.73828 4.4375-.11329 4.08594-3.73828-4.08594-4.07421-.39453-.36329-4.04297-3.78125-4.4375-.21093v-53.70704h4.4375v42.89063l-1.26171 1.49219 1.26172 1.22656 1.62109-1.22656-1.6211-1.49219v-42.89063h8.875v88.48438l-.30078.28125.30078.6914.67579-.6914-.67578-.28125v-88.48438h66.57812v56.07422l-4.4414 1.52344-.10938.10156-4.32813 2.1875-3.16797 2.25-1.26953 1.79688-1.21875-1.79688-3.21875-2.99218-4.4375 1.23437-4.4414-1.60156-4.4375-.54688-4.4375.04297-3.52344 3.86328-.48438 4.4375-.02734 4.4375-.40234.75391-4.4375 1.53516-3.08203 2.15234-1.35938.35156-.16797-.35156-.38672-4.4414.02735-4.4375.52734-.88282 3.64844-3.55469-3.64844-3.40234-3.375 3.40234-1.0625.64844-3.8789 3.78906-.5586 3.1875-1.10156 1.25-1.83594 4.44141-.70703 4.4375.0586 4.4375 3.58593 4.02734 4.4375-1.83203 4.4375-1.39844.82813-.79687 3.61328-1.35547 4.4375-.91406 4.4375 1.625v33.1875l-4.4375 2.125-.90235.83984.90235 1.52344 1.9414 2.91406 2.4961 1.61719 4.4375 1.7539 4.4375-.23827 1.42578 1.30468 3.01562 1.34375 4.4375-.57812.61328-.76563-.61328-1.47265-3.57812-2.96485-.85938-.33203-4.4414-2.57031-.72266-1.53516-3.71484-2.3711-4.4375-.59374v-33.1875l4.39844.64453.03906.0586 4.4375.48437.85547-.54297 3.58593-.5586.7461.5586.29297 4.4375-1.03907 1.83984-4.34765 2.59766 4.34765 2.03906 2.22657-2.03906 2.21093-1.33203 4.4375.65625 4.4375-.16016 4.4375-.58594 4.44141 1.30079 4.4375-.00782 4.4375-.5664v30.23828l-1.98438 1.52734 1.98438 2.14063 3.05469-2.14063-3.05469-1.52734v-30.23828l4.4375-2.21094 4.4414.50781 2.25391-2.03906L281.01953 396l.60938-.91016 4.4375-1.05859 2.35546-2.46875 2.08204-1.96875v37.42578l-.0586.05078-4.3789 3.16797-1.41797 1.26953-1.02735 4.4375-1.99218.71875-2.8047-.71875-1.6328-1.85937-3.10157 1.85937.3125 4.4375-.70312 4.4375 3.49219 3.24219 4.4375-2.21875 1.3828-1.02344 3.0547-.90234 4.42968-3.53516-2.44921-4.4375 2.45703-2.8711 1.5664-1.5664-1.51172-4.4375-.05468-.05078v-37.42578l2.52343-2.46875 1.91407-2.7539 1.7578-1.6875-1.7578-1.79688-4.4375-1.4336-4.4375-.46484-3.27344 3.69531-1.16406.69532-4.4375-.36329-1.6875-.33203.24218-4.4375-2.99609-3.03906-1.46484-1.39844-2.97266-2.73437-3.83594 2.73437-.60156.3086-.39453-.3086-1.69922-4.4375-2.34375-1.625v-56.07421h79.89063v83.83203l-.33594.49609-4.10547.9336-4.4375 2.28515-1.4336 1.21875 1.41797 4.4375-4.42187 1.15625-4.4375 1.41016-1.875 1.875.33984 4.4375 1.53516 1.53515 4.4375 2.5586.60937.34375 1.47266 4.4375 2.23828 4.4414.11719.07422 4.4375 2.80469 4.4414 1.0586 1.23047.5 3.20704 3.46874 1.1914.96875 3.2461 3.07813 4.4375-.79297 2.23437-2.28516-2.23438-4.01953-.36718-.41797-2.40235-4.4375 2.53907-4.4414.01562-4.4375-1.6836-4.4375 1.89844-1.8086 2.61329-2.6289-2.61329-2.64063-4.4375-.19531-1.22656-1.60547-2.11719-4.4375-1.09375-1.09375L339.5625 396l-.23438-.4961v-83.83202h22.19141v63.15234l-4.4375 1.39453-1.8711 2.02734 1.83594 4.4375.03516.05079.03125-.05079 4.40625-1.69921 3.08203-2.73829-3.08203-3.42187v-63.15235h35.5039v107.1172l-4.4375.33984-4.4375-.08594-4.24609 3.58594-.1914.41796-4.4375.97266-4.39453 3.05078-.04688.11328-.0664-.11328-1.8047-4.4414-2.5664-2.1797-2.97265 2.1797-1.46485 3.3828-.63672 1.0586.63672.6211 4.4375 3.08203 1.14453.73437-.61719 4.4375-.52734.19531-3.73437 4.2422 3.73437 3.78515 4.4375-3.0664.73438-.71876 3.70703-3.14453 4.4375 1.71875 4.4375-2.22656.53515-.78516 3.90235-2.79687 1.63672-1.64063 2.80078-1.96094 3.00781-2.47656 1.4336-.55078 4.4375-.65625 4.4375-2.02734 1.1914-1.20703-1.1914-1.1875-4.4375-2.02344-4.4375-.3789-4.44141-.25v-107.1172h66.57812V399.25l-.97656 1.1875.97656 1.09375.97266-1.09375-.97266-1.1875v-87.57813h4.4336v168.65625h-323.9922"/></g><path fill="#50fcfc" fill-rule="evenodd" d="M144.65234 418.1914l-.60937.77735v-2.76172l.60937 1.98438m32.78125-44.38282l-.89843-4.4375 3.01172-3.99218 4.4375.21093v1.16797l-4.4375 1.51563-.82813 1.09765.82813 2.17188.46484 2.26562 3.97266 2.96875 4.4375-.28125 2.9375-2.6875-2.9375-2.92968-1.64844-1.50782-2.78906-2.61328v-1.16797l4.04296 3.78125.39453.36329 4.08594 4.07421-4.08594 3.73829-4.4375.11328-4.4375-1.73829-2.11328-2.11328"/><path fill="#00e8fc" fill-rule="evenodd" d="M179.54688 371.54297l-.82813-2.17188.82813-1.09765 4.4375-1.51563v1.94922l-1.35157.66406-.65625 4.4375 2.00781 1.5 4.4375-.5664 1.01954-.9336-1.01953-1.01953-3.73047-3.41797-.70703-.66406v-1.94922l2.78906 2.61328 1.64844 1.50782 2.9375 2.92968-2.9375 2.6875-4.4375.28125-3.97266-2.96875-.46484-2.26562"/><path fill="#00d4fc" fill-rule="evenodd" d="M183.98438 375.3086l-2.00782-1.5.65625-4.4375 1.35156-.66407v4.96094l-.04296.14062.04297.03125.19921-.03125-.19922-.14062v-4.96094l.70704.66406 3.73047 3.41797 1.01953 1.01953-1.01953.9336-4.4375.5664"/><path fill="#50fcfc" fill-rule="evenodd" d="M183.98438 357.28125l-1.26172-1.22656 1.26172-1.49219 1.62109 1.49219-1.6211 1.22656"/><path fill="#00c4fc" fill-rule="evenodd" d="M183.98438 373.83984l-.04297-.03125.04297-.14062.19921.14062-.19922.03125"/><path fill="#50fcfc" fill-rule="evenodd" d="M192.85938 401.1289l-.30079-.6914.30078-.28125.67579.28125-.67578.6914M198.15233 396l-.05859-4.4375.70703-4.4375 1.83594-4.4414 1.10156-1.25.5586-3.1875 3.8789-3.78907 1.0625-.64844 3.375-3.40234 3.64844 3.40234-3.64844 3.5547-.52734.8828-.02735 4.4375.38672 4.44141.16797.35156 1.35938-.35156 3.08203-2.15234 4.4375-1.53516.40234-.7539.02734-4.4375.48438-4.4375 3.52344-3.86329 4.4375-.04297v1.09375l-4.4375.53907-2.07422 2.27343-1.1211 4.4375-.1914 4.4375-1.05078 1.96485-3.72656 2.47656-.71094 2.16016-4.4414-.48438-.8086-1.67578-.64063-4.4414-.08594-4.4375 1.53516-2.56641 1.92188-1.8711-1.92188-1.79296-1.77734 1.79296-2.66016 1.625-2.8789 2.8125-.71875 4.4375-.83985 3.51563-.5.92578-1.25781 4.4375L201.44922 396l.28906.32422.6875-.32422 3.75-.28906 4.4375-1.0039 4.4414-2.2461 2.20704-.89844 2.23047-.7539.71484.7539 3.72266 2.59766 4.4375.67968 4.4375-.47656 4.4414-.89844L240.64453 396l.375 4.4375.66406.60547 4.4375 1.75781 4.4375-.66406 3.71875-1.69922.71875-.26563.3672.26563 4.07421 2.84766 4.4375.47265 4.4375-1.07422 3.09766-2.24609 1.33984-.51172 4.4414-.59765L279.375 396l2.2539-3.35547 2.56641-1.08203 1.8711-.3789 4.14453-4.0586.29297-2.90234.74218-1.53907-.74218-.37109-4.4375-.53906-.8047.91015-3.6328 2.16797-4.4375-1.04687L272.75 382.75l-.4375-.0664-1.45703-4.4375-2.54297-2.07813-4.4375.29297-3.39453-2.65235-1.04297-1.5078-4.4414-.25782-2.78516 1.76562-1.65235 3.52735-.59765.91015-1.73828 4.4375-2.10157 1.25782-4.2539 3.18359-.1836.77344-.60937-.77344-3.82813-1.89063-.85547-2.55078.5586-4.4375-1.61719-4.4375-2.52734-1.47656-4.4375-1.33594v-1.09375l4.4375.54688 4.4414 1.60156 4.4375-1.23437v10.35546l-1.71484 1.51172 1.71484 1.16016 1.79297-1.16016-1.79297-1.51171V370.8164l3.21875 2.99218 1.21875 1.79688 1.26953-1.79688 3.16797-2.25 4.32813-2.1875.10937-.10156 4.44141-1.52344 2.34375 1.625 1.69922 4.4375.39453.3086.60156-.3086 3.83594-2.73437 2.97266 2.73437 1.46484 1.39844 2.9961 3.03906-.2422 4.4375 1.6875.33204 4.4375.36328 1.16407-.69532 3.27344-3.6953 4.4375.46483 4.4375 1.4336 1.7578 1.79687-1.7578 1.6875-1.91407 2.75391-2.52343 2.46875-2.08204 1.96875-2.35546 2.46875-4.4375 1.0586-.60938.91015-1.57422 4.4375-2.2539 2.03906-4.44141-.50781-4.4375 2.21094-4.4375.5664-4.4375.00782-4.4414-1.30079-4.4375.58594-4.4375.16016-4.4375-.65625-2.21094 1.33203-2.22657 2.03906-4.34765-2.03906 4.34765-2.59766 1.03907-1.83984-.29297-4.4375-.7461-.5586-3.58593.5586-.85547.54297-4.4375-.48438-.03906-.05859-4.39844-.64453-4.4375-1.625-4.4375.91406L211.4414 396l-.82813.79688-4.4375 1.39843-4.4375 1.83203L198.15234 396"/><path fill="#00e8fc" fill-rule="evenodd" d="M201.44922 396l-1.46875-4.4375 1.25781-4.4375.5-.92578.83984-3.51563.71875-4.4375 2.87891-2.8125v1.625l-1.21484 1.1875-.58594 4.4375-1.44922 4.44141-.63672 4.4375 3.88672 3.14063 4.4375-2.50391 1.1211-.63672-1.1211-.5625-1.875-3.875-1.0664-4.4414-.26954-4.4375-1.22656-1.1875v-1.625l2.66016-1.625 1.77734-1.79298 1.92188 1.79297-1.92188 1.8711-1.53516 2.5664.08594 4.4375.64063 4.44141.8086 1.67578 4.4414.48438.71094-2.16016 3.72656-2.47656 1.05078-1.96485.1914-4.4375 1.1211-4.4375 2.07422-2.27343 4.4375-.53907v1.82422l-3.52344.98828-.91406.41407-1.84375 4.02343-.46094 4.4375-2.13281 3.98047-.6914.46094.6914.67969 3.57812 3.75781.85938.59766 4.4375.73828 4.17578-1.33594-.875-4.4375 1.13672-3.58984.55469-.85157 1.48046-4.4375-2.03515-2.86328-2.1914-1.57422-2.2461-.98828v-1.82422l4.4375 1.33594 2.52734 1.47656 1.61719 4.4375-.5586 4.4375.85547 2.55079 3.82813 1.89062.60937.77344.1836-.77344 4.2539-3.1836 2.10157-1.2578 1.73828-4.4375.59765-.91016 1.65235-3.52735 2.78515-1.76562v6.98828l-1.6914 3.65234-2.7461 2.56641-3.01172 1.875-.92578 4.4375-.5 1.3711L244.53125 396l1.51172 4.4375.07812.03516.14063-.03516L249.73438 396l.82421-.26953.58985.26953 3.84765 1.6211 3.86328 2.8164.57813.40234 4.4375 1.26954 4.04297-1.67188.39453-.1875 4.4375-1.63281L276.78125 396l.41016-.76953 2.51562-3.66797 1.71485-4.4375-4.23047-2.0039-4.44141-2.01954-2.75781-.41797-1.67969-1.96093-4.4375-1.04688-4.4375 2.17188-4.4414-2.81641v-6.98828l4.4414.25781 1.04297 1.50781 3.39453 2.65235 4.4375-.29297 2.54297 2.07812 1.45703 4.4375.4375.06641 4.4414 1.05469 4.4375 1.04687 3.63282-2.16797.80469-.91015v2.8086l-4.15235 2.54296 4.15235 2.10547 2.14843-2.10547-2.14843-2.54297v-2.8086l4.4375.53907.74218.3711-.74218 1.53906-.29297 2.90234-4.14453 4.0586-1.8711.3789-2.5664 1.08203L279.375 396l-2.1836 3.32813-4.4414.59765-1.33984.51172-3.09766 2.2461-4.4375 1.07421-4.4375-.47265-4.07422-2.84766-.36719-.26563-.71875.26563-3.71875 1.69922-4.4375.66406-4.4375-1.75781-.66406-.60547-.375-4.4375-3.39844-2.53516-4.4414.89844-4.4375.47656-4.4375-.67968-3.72266-2.59766-.71484-.7539-2.23047.7539-2.20703.89844-4.4414 2.2461-4.4375 1.0039-3.75.28906-.6875.32422-.28907-.32422"/><path fill="#00d4fc" fill-rule="evenodd" d="M206.17578 394.70313l-3.88672-3.14063.63672-4.4375 1.44922-4.4414.58594-4.4375 1.21484-1.1875v5.58593l-.0039.03906-1.89454 4.44141-.74609 4.4375 2.64453 2.13672 3.28516-2.13672-1.78906-4.4375-1.4922-4.4414-.0039-.03907v-5.58594l1.22656 1.1875.26953 4.4375 1.06641 4.44141 1.875 3.875 1.1211.5625-1.1211.63672-4.4375 2.5039"/><path fill="#00c4fc" fill-rule="evenodd" d="M206.17578 393.69922l-2.64453-2.13672.7461-4.4375 1.89452-4.4414.00391-.03907v3.20313l-.54297 1.27734-.85547 4.4375 1.39844 1.1289 1.73828-1.1289-1.3086-4.4375-.42968-1.27734v-3.20313l.0039.03906 1.4922 4.44141 1.78906 4.4375-3.28516 2.13672"/><path fill="#00b8fc" fill-rule="evenodd" d="M206.17578 392.6914l-1.39844-1.1289.85547-4.4375.54297-1.27734v4.94921l-.15625.76563.15625.125.1914-.125-.1914-.76563v-4.94921l.42969 1.27734 1.3086 4.4375-1.73829 1.1289"/><path fill="#00a8fc" fill-rule="evenodd" d="M206.17578 391.6875l-.15625-.125.15625-.76563.1914.76563-.1914.125"/><path fill="#50fcfc" fill-rule="evenodd" d="M219.49219 433.03125l-.90235-1.52344.90235-.83984 4.4375-2.125v2.48828l-.78906.47656.78906.9375 3.39062 3.5 1.04688.60938 1.03906-.60938-1.03906-2.14062-2.45313-2.29688-1.98437-.47656v-2.48828l4.4375.59375 3.71484 2.3711.72266 1.53515 4.4414 2.57031.85938.33203 3.57812 2.96485.61328 1.47265-.61328.76563-4.4375.57812-3.01562-1.34375-1.42578-1.30469-4.4375.23829-4.4375-1.75391-2.4961-1.61719-1.9414-2.91406"/><path fill="#00d4fc" fill-rule="evenodd" d="M219.49219 387.80469l-.6914-.67969.6914-.46094 2.13281-3.98047.46094-4.4375 1.84375-4.02343.91406-.41407 3.52344-.98828v1.57813l-4.4375 2.77734-.49219 1.07031-.73047 4.4375-1.80469 4.44141 3.02735 3.1211 4.4375.42187 1.82031-3.54297 1.44531-4.4414 1.11719-4.4375-4.38281-3.84766v-1.57813l2.2461.98828 2.1914 1.57422 2.03515 2.86328-1.48047 4.4375-.55468.85157-1.13672 3.58984.875 4.4375-4.17578 1.33594-4.4375-.73828-.85938-.59766-3.57812-3.75781"/><path fill="#00c4fc" fill-rule="evenodd" d="M223.92969 390.2461l-3.02735-3.1211 1.8047-4.4414.73046-4.4375.49219-1.07032 4.4375-2.77734v1.28515l-3.36328 2.5625-1.07422 3.67579-.14453.76171-1.0586 4.44141 1.20313 1.23828 4.4375-.57812.33984-.66016 1.49219-4.4414 1.08594-4.4375-2.91797-2.5625v-1.28516l4.38281 3.84765-1.11719 4.4375-1.44531 4.44141-1.82031 3.54297-4.4375-.42188"/><path fill="#00b8fc" fill-rule="evenodd" d="M223.92969 388.36328l-1.20313-1.23828 1.0586-4.4414.14453-.76173 1.07422-3.67578 3.36328-2.5625v1.28907l-1.67188 1.27343.59375 4.4375 1.07813 1.1797.39844-1.1797 1.05468-4.4375-1.45312-1.27343v-1.28907l2.91797 2.5625-1.08594 4.4375-1.49219 4.44141-.33984.66016-4.4375.57812"/><path fill="#00e8fc" fill-rule="evenodd" d="M223.92969 432.44531l-.78906-.9375.78906-.47656 1.98437.47656 2.45313 2.29688 1.03906 2.14062-1.03906.60938-1.04688-.60938-3.39062-3.5"/><path fill="#00a8fc" fill-rule="evenodd" d="M227.28906 382.6836l-.59375-4.4375 1.67188-1.27344 1.45312 1.27343-1.05469 4.4375-.39843 1.1797-1.07813-1.1797"/><path fill="#fff" fill-opacity="0" fill-rule="evenodd" d="M241.6836 381.17188l-1.71485 1.51171 1.71484 1.16016 1.79297-1.16016-1.79297-1.51171"/><path fill="#00d4fc" fill-rule="evenodd" d="M246.04297 400.4375L244.53125 396l1.58984-3.0664.5-1.3711.92578-4.4375 3.01172-1.875 2.7461-2.5664 1.6914-3.65235 4.44141 2.8164 4.4375-2.17187v2.63281l-.64063.375-3.79687 3.41797-4.4414-.76172-1.9297 1.78516-2.5078 2.23438-1.32813 2.20312 1.32812 1.40625 4.4375 2.17188.85157.85937 3.58984 2.8789 4.375 1.5586.0625.01953.04688-.01953 4.39062-2.08594 4.4375-1.04297L274.76563 396l2.39453-4.4375.03125-.30078 1.45312-4.13672-1.45312-.6914-4.44141-2.98048-4.4375-.54296-2.92969-.22657-1.50781-.375v-2.6328l4.4375 1.04687 1.67969 1.96093 2.75781.41797 4.4414 2.01953 4.23048 2.00391-1.71485 4.4375-2.51562 3.66797-.41016.76953-4.03125 2.61719-4.4375 1.63281-.39453.1875-4.04297 1.67188-4.4375-1.26954-.57813-.40234-3.86328-2.8164L251.14844 396l-.58985-.26953-.82422.26953-3.47265 4.4375-.14063.03516-.07812-.03516"/><path fill="#00c4fc" fill-rule="evenodd" d="M250.5586 392.96875l-1.32813-1.40625 1.32812-2.20313 2.50782-2.23437 1.92968-1.78516 4.44141.76172 3.79688-3.41797.64062-.375 1.50781.375 2.92969.22657v.8164l-4.4375 1.0039-2.54297 2.39454-1.89453 1.57813-4.4414.8164-2.26563 2.04297 2.26562 1.21484L258.1758 396l1.26171 1.01172 4.4375 1.67578 4.4375-2.23047L272.70703 396l.04297-.0039 3.65234-4.4336.57422-4.4375-4.22656-3.32031-4.4375-.07813v-.8164l4.4375.54296 4.4414 2.98047 1.45313.69141-1.45312 4.13672-.03125.30078L274.76562 396l-2.01562 1.3086-4.4375 1.04296-4.39063 2.08594-.04687.01953-.0625-.01953-4.375-1.5586L255.84766 396l-.85157-.85938-4.4375-2.17187"/><path fill="#00b8fc" fill-rule="evenodd" d="M254.9961 392.77734l-2.26563-1.21484 2.26562-2.04297 4.44141-.8164 1.89453-1.57813 2.54297-2.39453 4.4375-1.0039 4.4375.07812v.35156l-4.4375.38672-4.4375 2.57422-.0039.00781-4.4336 3.6875-1.8711.75 1.8711 1.9336L261.51563 396l2.35937.91797L265.67578 396l2.63672-.25781 4.4375-.66406 2.89453-3.51563.88281-4.4375-3.77734-2.96875v-.35156l4.22656 3.32031-.57422 4.4375-3.65234 4.4336-.04297.0039-4.39453.45703-4.4375 2.23047-4.4375-1.67578L258.17578 396l-3.17969-3.22266"/><path fill="#00a8fc" fill-rule="evenodd" d="M259.4375 393.4961l-1.8711-1.9336 1.8711-.75 4.4336-3.6875.0039-.00781 4.4375-2.57422 4.4375-.38672v.35547l-4.4375.84765-3.03516 1.76563-1.40234.89453-3.8164 3.54297 3.8164 3.95703 4.4375-.11328 4.4375-1.25 2.14063-2.59375 1.1914-4.4375-3.33203-2.61328v-.35547l3.77734 2.96875-.8828 4.4375-2.89454 3.51563-4.4375.66406-2.63672.25781-1.80078.91797L261.51562 396l-2.07812-2.5039"/><path fill="#009800" fill-rule="evenodd" d="M263.875 395.51953l-3.8164-3.95703 3.8164-3.54297 1.40234-.89453 3.03516-1.76563 4.4375-.84765v.35156l-4.4375 1.3125-1.6289.94922-2.8086 1.78906-2.84766 2.64844 2.84766 2.95313 4.4375.55078 4.4375-1.82813 1.38281-1.67578 1.5-4.4375-2.88281-2.26172v-.35156l3.33203 2.61328-1.1914 4.4375-2.14063 2.59375-4.4375 1.25-4.4375.11328"/><path fill="#00ac00" fill-rule="evenodd" d="M263.875 394.51563l-2.84766-2.95313 2.84766-2.64844 2.8086-1.78906 1.6289-.94922 4.4375-1.3125v.35156l-4.4375 1.77735-.22266.13281-4.21484 2.6875-1.88281 1.75 1.88281 1.95313 4.4375 1.21484 4.4375-2.41406.625-.75391 1.8086-4.4375-2.4336-1.91016v-.35156l2.88281 2.26172-1.5 4.4375-1.38281 1.67578-4.4375 1.82813-4.4375-.55079"/><path fill="#00c800" fill-rule="evenodd" d="M263.875 393.51563l-1.88281-1.95313 1.88281-1.75 4.21484-2.6875.22266-.13281 4.4375-1.77735v.70313l-2.88672 1.20703-1.55078.88281-4.40625 3.55469 4.40625 2.49219 3.82813-2.49219.60937-1.13281 1.53906-3.30469-1.53906-1.20703v-.70313l2.4336 1.91016-1.8086 4.4375-.625.7539-4.4375 2.41407-4.4375-1.21485"/><path fill="#10cc00" fill-rule="evenodd" d="M268.3125 394.05469l-4.40625-2.49219 4.40625-3.55469 1.55078-.88281 2.88672-1.20703v.70312l-1.20313.50391-3.23437 1.84766-3.21484 2.58984 3.21484 1.8164 2.78906-1.8164L272.75 388.5l.64063-1.375-.64063-.5039v-.70313l1.53906 1.20703-1.53906 3.30469-.60938 1.13281-3.82812 2.49219"/><path fill="#24d000" fill-rule="evenodd" d="M268.3125 393.3789l-3.21484-1.8164 3.21484-2.58984v.96093l-2.01953 1.62891 2.01953 1.14063 1.7539-1.14063-1.7539-1.6289v-.96094l3.23438-1.84766 1.20312-.5039.64063.5039-.64063 1.375-1.64844 3.0625-2.78906 1.8164"/><path fill="#3cd800" fill-rule="evenodd" d="M268.3125 392.70313l-2.01953-1.14063 2.01953-1.6289v.96484l-.82422.66406.82422.46484.71484-.46484-.71484-.66406v-.96485l1.7539 1.62891-1.7539 1.14063"/><path fill="#50fcfc" fill-rule="evenodd" d="M268.3125 438.08594l-1.98438-2.14063 1.98438-1.52734 3.05469 1.52734-3.05469 2.14063"/><path fill="#54dc00" fill-rule="evenodd" d="M268.3125 392.02734l-.82422-.46484.82422-.66406.71484.66406-.71484.46484"/><path fill="#50fcfc" fill-rule="evenodd" d="M277.1914 448.0625l-3.49218-3.24219.70312-4.4375-.3125-4.4375 3.10157-1.85937 1.6328 1.85937 2.8047.71875 1.99218-.71875 1.02735-4.4375 1.41797-1.26953v7.59375l-4.4375.47266-3.3711 2.07812-1.0664 2.89453-.6172 1.54297.6172.57422.92578-.57422 3.51172-1.73437 4.4375-1.33985 1.70703-1.36328-1.70703-2.55078v-7.59375l4.3789-3.16797.0586-.05078.05468.05078 1.51172 4.4375-1.5664 1.5664-2.45704 2.8711 2.44922 4.4375-4.42968 3.53516-3.0547.90234-1.3828 1.02344-4.4375 2.21875"/><path fill="#00e8fc" fill-rule="evenodd" d="M277.1914 445.39453l-.61718-.57422.61719-1.54297 1.0664-2.89453 3.3711-2.07812 4.4375-.47266 1.70703 2.55078-1.70703 1.36328-4.4375 1.33985-3.51172 1.73437-.92578.57422"/><path fill="#00d4fc" fill-rule="evenodd" d="M286.0664 389.23047l-4.15234-2.10547 4.15235-2.54297v2.35547l-.30079.1875.30079.15234.15625-.15234-.15625-.1875v-2.35547l2.14843 2.54297-2.14843 2.10547"/><path fill="#00c4fc" fill-rule="evenodd" d="M286.0664 387.27734l-.30077-.15234.30078-.1875.15625.1875-.15625.15234"/><path fill="#50fcfc" fill-rule="evenodd" d="M320.03906 413.7539l-.33984-4.4375 1.875-1.875 4.4375-1.41015 4.42187-1.15625-1.41796-4.4375 1.43359-1.21875 4.4375-2.28516L338.99219 396l.33594-.4961v2.34766l-4.44141 1.11719-2.0664 1.46875-.54688 4.4375-1.82422 2.47266-4.4375.5078-2.70313 1.46095-.5664 4.4375 3.26953 2.65234 3.16797 1.78516 1.26953 2.53906.17578 1.89844 3.41797 4.4414.84375.54297 4.4414 2.5625 3.28125 1.33203 1.15625 1.25 3.92188 3.1875.51563.48828 1.52734-.48828-1.52735-1.85156-1.41406-2.58594.30469-4.4375 1.10938-3.98047.28125-.46093.91796-4.4375-1.19921-3.1797-.03516-1.2578.03515-3.23438 1.84766-1.20312-1.84765-.15625-3.27344-4.28516-1.16406-1.86719-1.63282-2.57031-2.80469-2.58594v-2.34765l.23438.49609 4.20313 3.34375 1.09375 1.09375 2.11718 4.4375 1.22656 1.60547 4.4375.19531 2.61329 2.64063-2.61329 2.6289-1.89843 1.8086 1.6836 4.4375-.01563 4.4375-2.53907 4.4414 2.40235 4.4375.36719.41797 2.23437 4.01953-2.23438 2.28516-4.4375.79297-3.24609-3.07813-1.1914-.96875-3.20704-3.46875-1.23046-.5-4.44141-1.0586-4.4375-2.80468-.11719-.07422-2.23828-4.4414-1.47266-4.4375-.60937-.34375-4.4375-2.5586-1.53516-1.53515"/><path fill="#00e8fc" fill-rule="evenodd" d="M326.01172 416.40625l-3.26953-2.65234.5664-4.4375 2.70313-1.46094v5.15234l-.3086.7461.3086.25 2.3125-.25-2.3125-.7461v-5.15234l4.4375-.50781 1.82422-2.47266.54687-4.4375 2.0664-1.46875 4.44142-1.11719v5.40625L337.375 404.875l.01953 4.4414-2.50781 2.29298-3.59375 2.14453.14844 4.4375-.03907 4.4375 3.48438 3.72265 1.82031.71875 2.6211 1.71875 4.4375-1.09765.32421-.6211-.32421-.55469-1.08204-3.88671 1.08204-.53125 3.90625-3.90625.14062-4.4375-1.35547-4.4375-2.6914-3.07813-3.79688-1.36328-.64063-1.61719v-5.40625l2.8047 2.58594 1.6328 2.57031 1.16407 1.86719 3.27344 4.28516 1.84765.15625-1.84765 1.20312-.03516 3.23438.03515 1.2578 1.19922 3.1797-.91796 4.4375-.28125.46093-1.10938 3.98047-.30469 4.4375 1.41406 2.58594 1.52735 1.85156-1.52735.48828-.51562-.48828-3.92188-3.1875-1.15625-1.25-3.28125-1.33203-4.4414-2.5625-.84375-.54297-3.41797-4.4414-.17578-1.89844-1.26953-2.53906-3.16797-1.78516"/><path fill="#00d4fc" fill-rule="evenodd" d="M326.01172 414.0039l-.3086-.25.3086-.74609 2.3125.7461-2.3125.25m5.42969 4.1875l-.14844-4.4375 3.59375-2.14454 2.50781-2.29296-.01953-4.44141 1.95313-1.61719.64062 1.61719 3.79688 1.36328v2.07422l-1.87891 1.0039-2.5586.57813-3.91406 3.85938-.52734 1.28906-2.03125 3.14844-.67188 4.4375 2.70313 2.89062 3.9336 1.55078.5078.33203.94141-.33203.99219-4.4414 2.5039-1.23047 3.20313-3.20703.48828-4.4375-2.8125-4.4375-.8789-1.00391v-2.07422l2.6914 3.07813 1.35547 4.4375-.14063 4.4375-3.90625 3.90625-1.08203.53125 1.08204 3.88671.32421.5547-.32421.62109-4.4375 1.09765-2.6211-1.71875-1.82031-.71875-3.48438-3.72265.03907-4.4375"/><path fill="#00c4fc" fill-rule="evenodd" d="M334.88672 425.51953l-2.70313-2.89062.67188-4.4375 2.03125-3.14844.52734-1.28906 3.91406-3.85938 2.5586-.57812 1.8789-1.00391v1.23438l-4.4375 1.22656-3.02343 2.98047-1.41797 3.47656-.61719.96094-1.30469 4.4375 1.92188 2.05859 4.4414-.63281.51172-1.42578 3.92579-1.9297 2.5039-2.5078.83203-4.4375-3.33594-4.20704v-1.23437l.87891 1.0039 2.8125 4.4375-.48828 4.4375-3.20313 3.20704-2.5039 1.23047-.99219 4.4414-.9414.33203-.50782-.33203-3.9336-1.55078"/><path fill="#00b8fc" fill-rule="evenodd" d="M334.88672 424.6875l-1.92188-2.0586 1.3047-4.4375.61718-.96093 1.41797-3.47656 3.02344-2.98047 4.4375-1.22656v.44921l-4.4375 1.65625-2.13282 2.10157-2.07812 4.4375-.23047 1.22656-1.14453 3.21094 1.14453 1.22265 3.09375-1.22265 1.34765-.25782L343.76563 420l1.8047-1.8086 1.17187-4.4375-2.97656-3.7578v-.44923l3.33593 4.20704-.83203 4.4375-2.5039 2.5078-3.92579 1.9297-.51171 1.42578-4.44141.63281"/><path fill="#00a8fc" fill-rule="evenodd" d="M334.88672 423.85156l-1.14453-1.22265 1.14453-3.21094.23047-1.22656 2.07812-4.4375 2.13281-2.10157 4.4375-1.65625v.44922l-4.4375 2.08203-1.24218 1.22657-2.5625 4.4375-.63672 3.41406-.36328 1.02344.36328.39062.98828-.39062 3.45313-.66016 4.4375-2.66797 1.10546-1.10937 1.51563-4.4375-2.6211-3.3086v-.44922l2.97657 3.75782-1.17188 4.4375L343.76562 420l-4.4375 2.3711-1.34765.2578-3.09375 1.22266"/><path fill="#009800" fill-rule="evenodd" d="M334.88672 423.01953l-.36328-.39062.36328-1.02344.63672-3.41406 2.5625-4.4375 1.24219-1.22657 4.4375-2.08203v.45313l-4.4375 2.50781-.35157.34766-3.04687 4.4375 3.39844 3.37109 4.4375-2.96484.40625-.40625 1.85937-4.4375-2.26563-2.85547v-.45313l2.6211 3.3086-1.51563 4.4375-1.10546 1.10937-4.4375 2.66797-3.45313.66016-.98828.39062"/><path fill="#00ac00" fill-rule="evenodd" d="M339.32813 421.5625l-3.39844-3.3711 3.04687-4.4375.35156-.34765 4.4375-2.50781v.44922l-3.98828 2.40625-.44921.33593-2.98829 4.10157 2.98829 2.96875 4.19921-2.96875.23829-.32032 1.90625-4.11718-1.90625-2.40625v-.44922l2.26562 2.85547-1.85938 4.4375-.40625.40625-4.4375 2.96484"/><path fill="#00c800" fill-rule="evenodd" d="M339.32813 421.16016l-2.98829-2.96875 2.98829-4.10157.44921-.33593 3.98829-2.40625v.89843l-2.4961 1.50782-1.9414 1.45312-2.17579 2.98438 2.17579 2.16015 3.05468-2.16015 1.38281-1.85938 1.19532-2.57812-1.19531-1.50782v-.89843l1.90625 2.40625-1.90625 4.11718-.23829.32032-4.19921 2.96875"/><path fill="#10cc00" fill-rule="evenodd" d="M339.32813 420.35156l-2.17579-2.16015 2.17579-2.98438 1.9414-1.45312 2.4961-1.50782v.90235l-1.00391.60547-3.4336 2.57421-1.35937 1.86329 1.35938 1.35156 1.91015-1.35156 2.52735-3.40235.48046-1.03515-.48046-.60547v-.90235l1.1953 1.50782-1.1953 2.57812-1.38282 1.85938-3.05469 2.16015"/><path fill="#24d000" fill-rule="evenodd" d="M339.32813 419.54297l-1.35938-1.35156 1.35938-1.86329v1.1172l-.54688.74609.54688.54296.76562-.54296-.76563-.7461v-1.11719l3.4336-2.57421 1.0039-.60547.48047.60547-.48046 1.03515-2.52735 3.40235-1.91015 1.35156"/><path fill="#3cd800" fill-rule="evenodd" d="M339.32813 418.73438l-.54688-.54297.54688-.7461.76562.7461-.76563.54296"/><path fill="#50fcfc" fill-rule="evenodd" d="M357.04688 382.6836l-1.83594-4.4375 1.8711-2.02735 4.4375-1.39453v3.21875l-.44923.20312.44922.16407.1836-.16407-.1836-.20312v-3.21875l3.08203 3.42187-3.08203 2.73829-4.40625 1.69921-.03125.05079-.03515-.05079"/><path fill="#00e8fc" fill-rule="evenodd" d="M361.51953 378.41016l-.44922-.16407.44922-.20312.1836.20312-.1836.16407"/><path fill="#50fcfc" fill-rule="evenodd" d="M365.95703 427.6914l-.63672-.62109.63672-1.0586 1.46485-3.3828 2.97265-2.1797 2.5664 2.1797 1.8047 4.4414.0664.11328.04688-.11328 4.39453-3.05078 4.4375-.97265.1914-.41797 4.2461-3.58594 4.4375.08594 4.4375-.33985v.99219l-4.4375.8789-4.4375-.32421-2.71875 2.29297-1.71875 3.76171-4.4375-.11328-1.14453.79297.8164 4.4375-4.11328 4.41016-.01172.02734-4.42578 1.64844-2.45312 2.78906 2.45312 2.48828 2.99219-2.48828 1.44531-4.42187.01953-.01563 4.42188-4.25 4.29687 4.25.14063.08203.1289-.08203 1.52344-4.4375 2.78516-1.94531 4.4375.3711 3.8711-2.86329.5664-.24219 4.4414-1.6875 4.4375-1.125 2.20704-1.38671-2.20704-1.375-4.4375-.94141-4.4414-.53125v-.99219l4.4414.25 4.4375.3789 4.4375 2.02345 1.19141 1.1875-1.1914 1.20703-4.4375 2.02734-4.4375.65625-1.4336.55078-3.00781 2.47656-2.80078 1.96094-1.63672 1.64063-3.90235 2.79687-.53515.78516-4.4375 2.22656-4.4375-1.71875-3.70703 3.14453-.73438.71875-4.4375 3.0664-3.73437-3.78515 3.73437-4.24219.52735-.1953.61718-4.4375-1.14453-.73438-4.4375-3.08203"/><path fill="#00e8fc" fill-rule="evenodd" d="M370.39453 442.8711l-2.45312-2.48829 2.45312-2.78906v2.42578l-.32031.36328.32031.32422.39063-.32422-.39063-.36328v-2.42578l4.42578-1.64844.01172-.02734 4.11328-4.41016-.8164-4.4375 1.14453-.79297 4.4375.11329 1.71875-3.76172 2.71875-2.29297v2.14844l-.17188.14453.17188.64453 1.01562-.64453-1.01562-.14454v-2.14843l4.4375.32422 4.4375-.87891v1.65234l-3.36719 1.19532 3.36719 1.76562 4.4414-1.55078.63672-.21484-.63672-.19532-4.4414-1v-1.65234l4.4414.53125 4.4375.9414 2.20704 1.375-2.20704 1.38673-4.4375 1.125-4.4414 1.6875-.5664.24218-3.8711 2.86328-4.4375-.37109-2.78516 1.94531-1.52344 4.4375-.1289.08203-.14063-.08203-4.29687-4.25-4.42188 4.25-.01953.01563-1.44531 4.42187-2.99219 2.48828"/><path fill="#00d4fc" fill-rule="evenodd" d="M370.39453 440.70703l-.32031-.32422.32031-.36328.39063.36328-.39063.32422m17.7539-17.4336l-.17187-.64452.17188-.14454 1.01562.14454-1.01562.64453m8.875 1.1211l-3.36719-1.76563 3.36719-1.19532 4.4414 1 .63672.19532-.63672.21484-4.4414 1.55078"/><path fill="#50fcfc" fill-rule="evenodd" d="M463.60156 401.53125l-.97656-1.09375.97656-1.1875.97266 1.1875-.97266 1.09375"/><g clip-path="url(#d)"><path fill="#fff" fill-opacity="0" fill-rule="evenodd" d="M468.03516 480.32813h.0039V311.67188h-.0039.0039v168.65625h-.0039"/></g><path fill="#fff" fill-opacity="0" fill-rule="evenodd" d="M250.24219 377.67578l5.0039-3.01953-5.14843-8.52734-5 3.01562 5.14453 8.53125"/><path fill-rule="evenodd" d="M249.03906 368.90625l.4375-.26172 3.2539 5.39063-.67577.40625-2.32031-3.84375-1.1875.71875-.28516-.47657.44531-.34765.1875-.17578.14844-.19532.10156-.22656.04297-.26953-.03125-.32422-.11719-.39453"/><path fill="#fff" fill-opacity="0" fill-rule="evenodd" d="M234.6211 412.44531l5.77343-.8789-1.5039-9.84766-5.77344.88281 1.5039 9.84375"/><path fill-rule="evenodd" d="M236.85156 403.88281l.5039-.07422.94923 6.22266-.77735.11719-.67578-4.4375-1.375.21094-.08203-.55079.54297-.14843.24219-.08985.21094-.125.17968-.17187.14063-.23047.09765-.3125.04297-.41016"/><g clip-path="url(#e)"><path fill="none" stroke="#000" stroke-linecap="round" stroke-linejoin="round" stroke-miterlimit="10" stroke-width=".5" d="M0 481.23438v-1.8086"/></g><g clip-path="url(#f)"><path fill="none" stroke="#000" stroke-linecap="round" stroke-linejoin="round" stroke-miterlimit="10" stroke-width=".5" d="M0 481.23438v2.38671"/></g><g clip-path="url(#g)"><path fill="none" stroke="#000" stroke-linecap="round" stroke-linejoin="round" stroke-miterlimit="10" stroke-width=".5" d="M0 482.29688v-3.9336"/></g><g clip-path="url(#h)"><path fill="none" stroke="#000" stroke-linecap="round" stroke-linejoin="round" stroke-miterlimit="10" stroke-width=".5" d="M0 481.98047v-3.30469"/></g><g clip-path="url(#i)"><path fill="none" stroke="#000" stroke-linecap="round" stroke-linejoin="round" stroke-miterlimit="10" stroke-width=".5" d="M0 481.9336v-3.21094"/></g><g clip-path="url(#j)"><path fill="none" stroke="#000" stroke-linecap="round" stroke-linejoin="round" stroke-miterlimit="10" stroke-width=".5" d="M0 482.63281v-4.60547"/></g><g clip-path="url(#k)"><path fill="none" stroke="#000" stroke-linecap="round" stroke-linejoin="round" stroke-miterlimit="10" stroke-width=".5" d="M0 483.29297v-5.92969"/></g><g clip-path="url(#l)"><path fill="none" stroke="#000" stroke-linecap="round" stroke-linejoin="round" stroke-miterlimit="10" stroke-width=".5" d="M0 483.70313v-6.75"/></g><g clip-path="url(#m)"><path fill="none" stroke="#000" stroke-linecap="round" stroke-linejoin="round" stroke-miterlimit="10" stroke-width=".5" d="M0 483.42578v-6.1914"/></g><g clip-path="url(#n)"><path fill="none" stroke="#000" stroke-linecap="round" stroke-linejoin="round" stroke-miterlimit="10" stroke-width=".5" d="M0 480.50781v-.35547"/></g><g clip-path="url(#o)"><path fill="none" stroke="#000" stroke-linecap="round" stroke-linejoin="round" stroke-miterlimit="10" stroke-width=".5" d="M0 480.45313v-1.05079"/></g><g clip-path="url(#p)"><path fill="none" stroke="#000" stroke-linecap="round" stroke-linejoin="round" stroke-miterlimit="10" stroke-width=".5" d="M0 479.60156v1.45313"/></g><g clip-path="url(#q)"><path fill="none" stroke="#000" stroke-linecap="round" stroke-linejoin="round" stroke-miterlimit="10" stroke-width=".5" d="M0 479.8125v-1.17578"/></g><g clip-path="url(#r)"><path fill="none" stroke="#000" stroke-linecap="round" stroke-linejoin="round" stroke-miterlimit="10" stroke-width=".5" d="M0 479.29297v2.07031"/></g><path fill="none" stroke="#000" stroke-linecap="round" stroke-linejoin="round" stroke-miterlimit="10" stroke-width=".5" d="M0 479.29297v-2.41016"/><g clip-path="url(#s)"><path fill="none" stroke="#000" stroke-linecap="round" stroke-linejoin="round" stroke-miterlimit="10" stroke-width=".5" d="M0 480.42578v-.19531"/></g><g clip-path="url(#t)"><path fill="none" stroke="#000" stroke-linecap="round" stroke-linejoin="round" stroke-miterlimit="10" stroke-width=".5" d="M0 480.42578v-2.13281"/></g><g clip-path="url(#u)"><path fill="none" stroke="#000" stroke-linecap="round" stroke-linejoin="round" stroke-miterlimit="10" stroke-width=".5" d="M0 479.78516v1.08593"/></g><g clip-path="url(#v)"><path fill="none" stroke="#000" stroke-linecap="round" stroke-linejoin="round" stroke-miterlimit="10" stroke-width=".5" d="M0 479.78516v-2.32032"/></g><g clip-path="url(#w)"><path fill="none" stroke="#000" stroke-linecap="round" stroke-linejoin="round" stroke-miterlimit="10" stroke-width=".5" d="M0 480.71094v-.76172"/></g><g clip-path="url(#x)"><path fill="none" stroke="#000" stroke-linecap="round" stroke-linejoin="round" stroke-miterlimit="10" stroke-width=".5" d="M0 480.71094v-2.02735"/></g><g clip-path="url(#y)"><path fill="none" stroke="#000" stroke-linecap="round" stroke-linejoin="round" stroke-miterlimit="10" stroke-width=".5" d="M0 481.48047v-2.30469"/></g><g clip-path="url(#z)"><path fill="none" stroke="#000" stroke-linecap="round" stroke-linejoin="round" stroke-miterlimit="10" stroke-width=".5" d="M0 481.48047v-1.67188"/></g><g clip-path="url(#A)"><path fill="none" stroke="#000" stroke-linecap="round" stroke-linejoin="round" stroke-miterlimit="10" stroke-width=".5" d="M0 482.28906v-3.92187"/></g><g clip-path="url(#B)"><path fill="none" stroke="#000" stroke-linecap="round" stroke-linejoin="round" stroke-miterlimit="10" stroke-width=".5" d="M0 481.71875v-.57813"/></g><g clip-path="url(#C)"><path fill="none" stroke="#000" stroke-linecap="round" stroke-linejoin="round" stroke-miterlimit="10" stroke-width=".5" d="M0 482.26563v-3.875"/></g><g clip-path="url(#D)"><path fill="none" stroke="#000" stroke-linecap="round" stroke-linejoin="round" stroke-miterlimit="10" stroke-width=".5" d="M0 481.70313v-.58594"/></g><g clip-path="url(#E)"><path fill="none" stroke="#000" stroke-linecap="round" stroke-linejoin="round" stroke-miterlimit="10" stroke-width=".5" d="M0 482.46875v-4.28125"/></g><g clip-path="url(#F)"><path fill="none" stroke="#000" stroke-linecap="round" stroke-linejoin="round" stroke-miterlimit="10" stroke-width=".5" d="M0 483.27344v-5.89063"/></g><g clip-path="url(#G)"><path fill="none" stroke="#000" stroke-linecap="round" stroke-linejoin="round" stroke-miterlimit="10" stroke-width=".5" d="M0 481.72656v-2.79687"/></g><g clip-path="url(#H)"><path fill="none" stroke="#000" stroke-linecap="round" stroke-linejoin="round" stroke-miterlimit="10" stroke-width=".5" d="M0 481.32031v-.76562"/></g><g clip-path="url(#I)"><path fill="none" stroke="#000" stroke-linecap="round" stroke-linejoin="round" stroke-miterlimit="10" stroke-width=".5" d="M0 480.73438v-.8125"/></g><g clip-path="url(#J)"><path fill="none" stroke="#000" stroke-linecap="round" stroke-linejoin="round" stroke-miterlimit="10" stroke-width=".5" d="M0 480.61719v-1.00781"/></g><g clip-path="url(#K)"><path fill="none" stroke="#000" stroke-linecap="round" stroke-linejoin="round" stroke-miterlimit="10" stroke-width=".5" d="M0 483.05078v-5.44531"/></g><g clip-path="url(#L)"><path fill="none" stroke="#000" stroke-linecap="round" stroke-linejoin="round" stroke-miterlimit="10" stroke-width=".5" d="M0 483.15234v-5.64843"/></g><g clip-path="url(#M)"><path fill="none" stroke="#000" stroke-linecap="round" stroke-linejoin="round" stroke-miterlimit="10" stroke-width=".5" d="M0 483.67578v-6.6914"/></g><g clip-path="url(#N)"><path fill="none" stroke="#000" stroke-linecap="round" stroke-linejoin="round" stroke-miterlimit="10" stroke-width=".5" d="M0 483.29688v-5.9375"/></g><g clip-path="url(#O)"><path fill="none" stroke="#000" stroke-linecap="round" stroke-linejoin="round" stroke-miterlimit="10" stroke-width=".5" d="M0 469.14453v-4.26172"/></g><path fill="none" stroke="#000" stroke-linecap="round" stroke-linejoin="round" stroke-miterlimit="10" stroke-width=".5" d="M0 469.14453v2.42188m0-2.53907V465m0 3.4414v1.21876m0-.48047v-4.33203m0 3.69922v1.21093m0-1.76562v-1.95703m0 1.67187v1.20313m0 1.33203v-6.45703m0 5.51953v.95312m0-1.0039v-4.48047m0 3.82812v-.46484m0 .67969v-3.60157m0 3.07422v-.63281m0-.1836v-.91796m0 .91797v-1.9961m0 1.10547v.86328m0-.86328v-2.29297m0 2.13282v1.18359m0-1.1836v-2.33203m0 1.95704v1.93359m0-1.9336v-2.39843m0 2.44922v1.83203m0-1.83203v-2.39063m0 2.23047v2.15234m0-2.15234v-2.41406m0 2.36719v2.24609m0-2.2461v-2.41796m0 3.52343v.03516m0-.03516v-2.17187m0 2.40234v-.42578m0 .36328v-1.04687m0 1.46875v-1.14453m0 .97656v-.97656m0 3.27734v-5.41016m0 4.625v1.13282m0 .46093V463.5m0 6.0039v.5625m0 .16798v-6.44141m0 5.5039v.09375m0-.53125v-3.6914m0 3.15625v-.6211m0 .82813v-3.03516m0 3.03516v-1.45703M0 469.25v-4.47266M0 469.25v-.9375m0 1.0039v-4.60546m0 4.60547v-.88282m0 1.45704v-5.75391m0 5.7539v-.29687"/><g clip-path="url(#P)"><path fill="none" stroke="#000" stroke-linecap="round" stroke-linejoin="round" stroke-miterlimit="10" stroke-width=".5" d="M0 455.98438v-4.57032"/></g><path fill="none" stroke="#000" stroke-linecap="round" stroke-linejoin="round" stroke-miterlimit="10" stroke-width=".5" d="M0 455.32031v1.19531m0-.64062v-4.35156m0 3.71875v1.20703m0-1.32813v-2.84765m0 2.4336v1.22265m0-5.71875v6.97265m0-4.7539v2.53515m0-2.16406v-1.21875m0 1.3125v1.60938m0-1.375v-1.1875m0 .2539v3.00781m0-3.0078v-2.44923m0 2.82422v2.2539m0-2.2539v-2.42187m0 1.8789v3.34375m0-3.34375v-2.45312m0 3.2461v1.7578m0-1.7578v-2.38673m0 2.1836v2.16015m0-2.16015v-2.41407m0 3.08594v.82031m0-.8203V451m0 2.14844V454.25m0-1.10156v-2.32032m0 1.98829v1.76171m0-1.76171v-2.38672m0 2.91797v.70312m0-.60156v-1.13672m0 1.54687v-.3203m0 .27343v-1.05469m0-.0039v1.89062m0-1.61719v-1.1953m0 3.23827v-2.74219m0 2.34375v-.77343m0 1.98828v-4.375M0 455.25v-.48828m0 .38672V452.25m0 2.89844v-1.4961m0 2.29688v-4.5039m0 4.5039v-.92188m0 .50391v-3.66406m0 3.66406v-1.25m0 1.5v-4.16406m0 4.16406v-1.0625m0 .45703v-.53125m0 1.1875v-4.26562m0 4.26562v-1.02344m0 .40235v-.51172m0 1.08984v-4.17968m0 4.17968v-1.0586"/><g clip-path="url(#Q)"><path fill="none" stroke="#000" stroke-linecap="round" stroke-linejoin="round" stroke-miterlimit="10" stroke-width=".5" d="M0 441.69922v-2.63281"/></g><path fill="none" stroke="#000" stroke-linecap="round" stroke-linejoin="round" stroke-miterlimit="10" stroke-width=".5" d="M0 441.3164v1.22266m0-.58203v-3.14844M0 441.5v1.22656m0-4.69531v4.70703m0-5.86719v7.02735m0-6.82031v6.60937m0-5.94922v5.29297m0-4.52344v-1.14844m0 1.23829v3.5703m0-3.5703v-2.44922m0 3.15625v2.16015m0-2.16015v-2.41797m0 2.29687v2.39844m0-2.39844v-2.42968m0 3.28906v.67969m0-.6797v-2.26562m0 3.92579v-2.63672m0 2.63672V440.125m0 1.1914v-.78515m0 1.20703v-2.70703m0 2.70703v-1.5586m0 1.16407v-.77734m0-.1836h0m0 0v-2.16406m0 2.16406v-1.08203m0 1.0039v.15626m0-.15625v-2.1914m0 2.21484v-1.09766M0 442v-3.23437M0 442v-1.39062m0 1.1914v-2.83594m0 2.83594v-1.51562m0 1.9414v-3.6836m0 3.14454v-.61719m0 2.00782v-5.38672m0 5.38672v-.50782m0-.28515v-3.80078m0 3.24609v-.59766m0 .96094v-3.42187m0 3.42187v-1.33203m0 .83594v-.66797m0 1.1836v-3.45704m0 3.45703v-1.32031m0 1.6289v-4.07812m0 4.07813v-1.09375m0 .73046v-3.35156m0 3.35156v-1.35156m0 .86719v-.67969m0 1.44531v-3.91015m0 3.91015v-1.16015m0 .58984v-.57812m0 1.375v-4.3672m0 4.3672v-.98047m0 .34375v-.48828"/><g clip-path="url(#R)"><path fill="none" stroke="#000" stroke-linecap="round" stroke-linejoin="round" stroke-miterlimit="10" stroke-width=".5" d="M0 429.21094v-4.28516"/></g><path fill="none" stroke="#000" stroke-linecap="round" stroke-linejoin="round" stroke-miterlimit="10" stroke-width=".5" d="M0 428.58984v1.20703m0-1.33203v-2.79297m0-2.0039v6.80078m0-5.8125v-.82813m0 .21485v6.05078m0-5.17188v.0586m0-1.2539v6.68359m0-5.71094v-.88281m0 1.17968v4.14453m0-4.14453v-2.42968m0 3.625v1.7539m0-1.7539v-2.38672m0 2.80468v.91797m0-.91797v-2.29687m0 2.42969v-1.14844m0 .69531v1.5586m0-1.5586v-2.36719m0 1.60157v3.08984m0-3.08984v-2.45313m0 4.53125v-1.0664m0 1.0664v-1.96875m0 2.8711v-2.8711m0 2.8711V427m0 1.08594v-.75m0 .78906v-2.11328m0 2.11328v-1.72266m0 1.41407v-.85938m0 .46875v-.71484m0 .71484v-2.03906m0 1.9336v-1.01954m0 1.75781v-1.98047m0 1.98047v-1.7539m0 1.46484v-.875m0 2.125v-3.90234m0 3.90234v-1.16406m0 .59765v-.58203m0 .59766v-2.80078m0 2.80078v-1.52344m0 1.11719v-.76172m0 2.39844v-5.26172m0 5.26172v-.57422m0-.1914v-.28907m0 .9375v-5.02734m0 5.02734v-.6875m0-.04297v-.34375m0 .7539V424.875m0 4.38672v-.97656m0 1.125v-4.6836m0 4.6836v-.84766m0 .16797v-.42578m0 .84765v-4.16797m0 4.16797v-1.0625m0 .45703v-.53125m0 1.07813v-4.05078m0 4.05078v-1.10938m0 .51954v-1.10547m0 1.63281v-3.92578m0 3.92578v-1.15234m0 .58203v-.57813m0 .9961v-3.6211m0 3.6211v-1.26172"/><g clip-path="url(#S)"><path fill="none" stroke="#000" stroke-linecap="round" stroke-linejoin="round" stroke-miterlimit="10" stroke-width=".5" d="M0 416.57422v-5.64453"/></g><path fill="none" stroke="#000" stroke-linecap="round" stroke-linejoin="round" stroke-miterlimit="10" stroke-width=".5" d="M0 415.7539v1.10938m0-1.44531v-3.32813m0-1.79687v6.92187m0-5.91406v-.75781m0-.0625v6.54687m0-5.59375v-.92968m0 .45703v5.58594m0-4.77344v-1.11719m0 1.01953v4.15625m0-4.15625v-2.42969m0 2.65235v3.71094m0-3.71094v-2.44922m0 2.98828v-1.22266m0 2.00782v1.05859m0-1.0586v-2.3125m0 2.46876v-1.15625m0 3.21875v-3.37891m0 3.3789v-1.34374m0 .24609v-1.17969m0 1.17969v-1.9414m0 3.01953v-3.33594m0 2.85156v-.67969m0 2.60547v-6.22265m0 5.3203v.00391m0-.53906v-3.34375m0 2.85547v-.67578m0-.47656v-.06641m0 .0586v-1.07813m0 1.2461v-.38282m0 .32422v-1.05078m0 2.89062v-3.94922m0 3.94922v-1.14453m0 1.83594v-5.32813m0 5.32813v-.53906m0 .63672v-5.52344m0 5.52344v-.4336m0-.3711v-.21484m0 .00782v-3.5m0 3.5v-1.3086m0 .79688v-.65235m0 .625v-2.42578m0 2.42578v-1.6328m0 3.22265v-5.60156m0 5.60156v-.39063m0-1.26953v-2.28125m0 1.94922v-.83984m0 2.0039v-3.94922m0 3.94922v-1.14453m0 .52735v-2.71094m0 2.71094v-1.5547m0 1.78516v-3.17187m0 3.17187v-1.41015"/><g clip-path="url(#T)"><path fill="none" stroke="#000" stroke-linecap="round" stroke-linejoin="round" stroke-miterlimit="10" stroke-width=".5" d="M0 403.17578v-5.47656"/></g><path fill="none" stroke="#000" stroke-linecap="round" stroke-linejoin="round" stroke-miterlimit="10" stroke-width=".5" d="M0 402.3789v1.12891m0-1.20703v-3.72265m0 .07421v3.57422m0-3.05469v-1.22656m0 .41797v4.15235m0-3.55079v-1.21093m0 .71484v3.9414m0-3.9414v-2.4414m0 1.77734v5.26562m0-5.26562v-2.29688m0 3.66797v2.52735m0-2.52735v-2.4375m0 2.80469v-1.21875m0 1.14062v1.94532m0-1.94532v-2.40234m0 2.6875v-2.40234m0 5.02734V398.5m0 3.875v-1.17188m0-1.89062v2.25m0-2.25v-2.41797m0 4.26953v-1.44922m0 1.44922v-1.88281m0 1.67188v-.94141m0 2.32031v-3.78906m0 3.23828v-.60156m0 2.6836v-6.85157m0 6.67187v-6.48828m0 5.54297v.11719m0 1.07812v-6.98828m0 5.97266v.46094m0-4.67579v3.46875m0-2.96484v.66016m0 3.76953v-6.39844m0 6.39844v1.94531m0-1.65625v-6.97656m0 6.97656v.8789m0-1.89452v.4414m0 .29688v-6.42188m0 6.42188v.17187m0-1.48047v-3.80078m0 3.80078v-1.19921m0 .21093v-1.82812m0 1.82812v-1.78906m0 2.39453v-3.03906m0 2.59765v-.72656m0 .22656v-1.15625m0 .98829v-.97266m0 4.05469v-6.98047m0 3.72265v-.46484"/><g clip-path="url(#U)"><path fill="none" stroke="#000" stroke-linecap="round" stroke-linejoin="round" stroke-miterlimit="10" stroke-width=".5" d="M0 400.67188v2.23828"/></g><g clip-path="url(#V)"><path fill="none" stroke="#000" stroke-linecap="round" stroke-linejoin="round" stroke-miterlimit="10" stroke-width=".5" d="M0 388.15625v-2.0664"/></g><path fill="none" stroke="#000" stroke-linecap="round" stroke-linejoin="round" stroke-miterlimit="10" stroke-width=".5" d="M0 388.15625v2.40625m0-2.07031v-2.73438m0 2.33594v1.22266m0-5.10157v5.81641m0-4.1836v2.55079m0-2.17969V385m0-1.29688v6.83985m0-5.84375v-.8086m0-.25v6.96485m0-5.95313v-.71093m0-.2461v6.85938m0-6.85938v-.65625m0 2.14063v3.88672m0-3.88672v-2.4414m0 5.83593v-2.90235m0 2.48047v-.74609m0 2.41406v-5.39453m0 5.39453v-.5039m0-5.70704v7.02735m0-.9336v-5.16015m0 5.16015v-.625m0-.125v-.3125m0 .70313v-4.4414m0 4.4414v-.94922m0 .9375v-4.41406m0 3.76953v1.20703m0 .74219v-7.02344m0 6v.53906m0 .21094v-6.48047m0 5.53906v.94922m0-.71875v-5.05859m0 4.32422v1.16406m0 .46875v-6.85547m0 5.85938v.80078m0-.7461v-4.96875m0 5.94922v-6.93359m0 3.10938v.71484m0-.61328v1.01953m0 2.69922v-6.92578m0 6.63671v-6.34765m0 5.77734v-5.20703m0 5.20703v2.3086m0-2.28907v-5.24218m0 5.24218v2.30079"/><g clip-path="url(#W)"><path fill="none" stroke="#000" stroke-linecap="round" stroke-linejoin="round" stroke-miterlimit="10" stroke-width=".5" d="M0 372.5586v2.5"/></g><path fill="none" stroke="#000" stroke-linecap="round" stroke-linejoin="round" stroke-miterlimit="10" stroke-width=".5" d="M0 372.92188v.80859m0-1.75781v3.66796m0-3.1328v.625m0-2.8125v6.97656m0-5.96094v-.44922m0 .8164v4.21094m0-3.59765v-1.21485m0 1.53906v2.33594m0-1.9961v-1.21483m0-.1875v4.46093m0-4.46094v-2.40625m0 1.60938v6.05469m0-6.05469v-2.09375m0 2.97266v-1.04297m0 .29687v5.78906m0-5.78906v-2.17578m0 3.01953v-2.17969m0 1.50782v5.44531m0-4.65234v-1.13282m0 .65235v4.82031m0-4.11719v.39063m0 3.33984v-4.04687m0 3.45703v-.55469m0 1.9375v-5.63672m0 5.63672v2.21875m0-1.58984v-6.89063m0 6.89063v1.55078m0-2.64844v-4.69531m0 4.01172v-.41797m0 2.23828v-6.96875m0 6.96875v1.41797m0-1.42578v-6.95313m0 5.9414v.41016m0-2.1289v-1.49219m0 1.27344v-.9375m0 3.13281v-5.44531m0 5.44531v2.26172m0-5.86719v1.76563m0-1.61329v1.46094m0-1.2461v-1.17968m0-1.78906v6.96484m0-6.75781v6.55469m0-5.60156v-.14844m0 4.84375v-4.74219m0 4.05078v1.1875m0-1.07422v-3.58594m0 3.0625v1.22657m0 0v-4.9961m0 4.26954V376.75"/><g clip-path="url(#X)"><path fill="none" stroke="#000" stroke-linecap="round" stroke-linejoin="round" stroke-miterlimit="10" stroke-width=".5" d="M0 357.13281v6.71875"/></g><path fill="none" stroke="#000" stroke-linecap="round" stroke-linejoin="round" stroke-miterlimit="10" stroke-width=".5" d="M0 358.11328v-.23437m0-.79688v6.82422m0-5.83203v-.8164m0 .61718v5.23438m0-4.47266v-1.15235m0-.16015v6.33984m0-5.41797v-.98828m0 2.25781v1.95313m0-1.95313v-2.40234m0 2.6875v-1.20312m0-.15235v4.09766m0-4.09766v-2.4336m0 3.02735v-1.21484m0 .16015V363m0-5.01563v-2.33984m0 3.07031v-1.16796m0 .78906v4.3125m0-4.3125v-2.41797m0 3.04687v-1.20703m0-.70703v6.88672m0-6.88672v-.69531m0 4.47656v-.67969m0-1.84375v4.3711m0-4.3711v.98047m0 2.6914v-2.97655m0 2.54296v1.22657m0 .83594v-6.23047m0 5.32421v.00782m0 1.26562v-6.96484m0 6.96484v.85547m0-1.32812v-6.02344m0 6.02344v-.12891m0-.7461v-.0664m0 1.10547v-6.35156m0 5.42968v.0586m0 .66406v-5.95313m0 5.08985v-.08985m0 1.0547v-6.15235m0 5.25781v-.01953m0 1.04688v-6.42188m0 5.48828v.08594m0-2.64453v.5625m0-.5625v-2.25m0 2.08984v.88281m0-.8828v-2.29298m0 1.3164v2.83595m0-2.83594v-2.44531m0 2.85937v-1.22265m0 1.28515v1.88672m0-1.61328V358.625m0 3.35938V359m0 2.55078v-.73828m0-1.59375v2.54688"/><g clip-path="url(#Y)"><path fill="none" stroke="#000" stroke-linecap="round" stroke-linejoin="round" stroke-miterlimit="10" stroke-width=".5" d="M0 344.66016v5.03515"/></g><path fill="none" stroke="#000" stroke-linecap="round" stroke-linejoin="round" stroke-miterlimit="10" stroke-width=".5" d="M0 344.66016v.6875m0 .04687v.6875m0-1.82422v5.84375m0-5.84375V344.5m0 .60547v.2461m0 .86718v1.92188m0-1.64454v.88672m0-3.69922v6.9922m0-5.97657v-.67969m0 2.3164v1.6836m0-1.4375v-1.1914m0-.04688v3.66797m0-3.13281v-1.22657m0-.67578v6.40235m0-5.47266v-.96875m0-.01563v6.51172m0-5.5625v-.9414m0 1.11719v4.26171m0-.04296v-4.17579m0 4.17579v2.42578m0-3.03516v1.21484m0-2.48046v-.42579m0 .42579v2.23437m0-3.54297v2.1914m0-1.87109v.84766m0 .27344v-.6914m0 .58983v-1.01953m0 2.50782v-3.46485m0 3.46485v-1.3125m0 2.9453v-6.73046m0 6.73047v.47656m0-1.45703v.23828m0 .78906v-6.8203m0 6.8203v.59766m0-1.58984v.29687m0 .79688v-7.02735m0 7.02735v1.09375m0-1.6797v-5.85155m0 5.85156v-.24219m0-.60937v-.1211m0 1.55078v-7.01171m0 7.01171v1.28907M0 347.75v-1.14453m0 .97656v-.97265m0-.31641v1.76953m0-1.76953v-2.38672m0 2.64453v-1.19531m0 1.375v.89453m0-.89453v-2.29688m0 2.42579v-1.14454m0 .1797v2.5703m0-2.5703v-2.44142m0 2.8125v-1.21875m0 3.65235v-3.04297m0 3.04297v-1.45313m0-.02343v-.08985m0 .08985v-2.15235"/><g clip-path="url(#Z)"><path fill="none" stroke="#000" stroke-linecap="round" stroke-linejoin="round" stroke-miterlimit="10" stroke-width=".5" d="M0 331.09375v5.53906"/></g><path fill="none" stroke="#000" stroke-linecap="round" stroke-linejoin="round" stroke-miterlimit="10" stroke-width=".5" d="M0 331.09375v.42188m0 .3828v.42579m0 .3789v.21485m0-1.98828v5.86719m0-5.8672v.23048m0 .62109v.23047m0 .625v.23047m0-1.5625v5.11719m0-5.1172v.64454m0 .10156v.64453m0-1.85156v6.03906m0-6.03906v.11328m0 .76563v.05468m0-1.04296v6.2578m0-5.34765v-.02344m0 .04688v4.39062m0-4.39062v.96875m0-.33203v.97265m0-1.42968v4.03125m0-4.03125v1.11328m0-.52735v1.11329m0-2.26563v5.16016m0-5.16016v.625m0 .1289v.625m0 .125v.3125m0-1.68359v4.89844m0-4.89844v.75m0-.03906v.75m0-.03516v.375m0-1.41015v4.11719m0-4.1172v1.08204m0 3.69922v-5.44922m0 4.65625v1.13281m0-.5664v-4.9922m0 4.26563v1.17188m0-4.5v3.11719m0-3.1172v1.4336m0-3.10547v6.46094m0-.30469v-5.85156m0 5v1.07813m0-.375v-5.5547m0 5.5547v-.41407m0 .76953v-6.26562m0 6.26562v.04297m0-.95703v.02344m0 .89844v-6.28516m0 6.28516v.0625m0-.97657v.0625m0-.97656v.03125m0 2.03516v-6.75781m0 6.7578v.51563m0-1.5v.51563m0-4.71485v3.60938m0-3.60938v1.26954m0-1.1875v3.4453m0-2.9453v-1.22657m0-1.0625v7.02344m0-6.0039v-.55079m0 5.61328v-5.14062m0 4.39062v1.16016m0-.9336v-4.09765m0 3.5039v1.21485m0-3.22656v1.11328m0-.94922v.97656"/><g clip-path="url(#aa)"><path fill="none" stroke="#000" stroke-linecap="round" stroke-linejoin="round" stroke-miterlimit="10" stroke-width=".5" d="M0 317.4375v6.21875"/></g><path fill="none" stroke="#000" stroke-linecap="round" stroke-linejoin="round" stroke-miterlimit="10" stroke-width=".5" d="M0 317.4375v-.01172m0 .91797v-.01172m0-.71094v5.85157m0-5.85157v.2422m0 .60937v.24218m0 .60938v.1211m0-1.34766v4.89843m0-4.89843v.75m0-.03516v.75m0-.03906v.75m0-2.15625v4.86328m0-4.86328v.76562m0-.0586v.76563m0-.05859v.76563m0-1.70313v3.91016m0-3.91016v1.16016m0-.58985v1.15625m0-.58984v.58203m0-2.39844v5.26953m0-5.26953v.57031m0 .19532v.57031m0 .19531v.28516m0-2v5.63672m0-5.63672v.36719m0 .45312v.36719m0 .45312v.3672m0-2.3125v6.24218m0-6.24219v-.02734m0 .9375v-.02735m0 .9336v-.02735m0-1.77734v6.22266m0-6.22266v-.01563m0 .91797v-.01171m0 .91796v-.01171m0-1.84375v6.3164m0-6.3164v-.08594m0 1.0039v-.08593m0 1.0039v-.04297m0-1.3164v5.35937m0-5.35937v.52344m0 .2578v.52344M0 318v5.09766M0 318v.65234m0 .08985v.32422m0-2.02735v7.01563m0-7.01563v-1.26562m0 4.40234v.74219m0-.63281v1.01562m0-1.61719v1.72657m0-1.72657V321.5m0-3.375v4.84375m0-4.84375v.77734m0 5.16016v-7.02734m0 7.02734v1.11719m0-2.30469v-4.65625m0 4.65625v2.38672m0-1.27344v-6.88281m0 6.88281v1.5664m0-2.5664v1.5625m0-4.26172v.51563m0-.51563v2.07813m0-5.05469v6.47266m0-6.47266v-.21875m0-.0586v7.02344m0-6v-.53515m0 6.3711v-6.69532m0 6.69531v1.75781m0-3.5039v-3.20313m0 3.20313v2.45312m0-2.91797v1.22657m0-4.4336v4.14063"/><g clip-path="url(#ab)"><path fill="none" stroke="#000" stroke-linecap="round" stroke-linejoin="round" stroke-miterlimit="10" stroke-width=".5" d="M0 318.47656v1.07422"/></g><path fill="#00f" fill-rule="evenodd" d="M232.9336 467.64844h8.62109V457.5039h-8.6211v10.14453"/><path fill="azure" fill-rule="evenodd" d="M234.76953 459.33594h.83203v2.82422h3.28516v-2.82422h.83594v6.48047h-.83594v-2.91797h-3.28516v2.91797h-.83203v-6.48047"/><path fill="#ff3030" fill-rule="evenodd" d="M286.89063 449.89453h7.6914V439.75h-7.6914v10.14453"/><path fill="azure" fill-rule="evenodd" d="M288.72266 441.58203h.83203v5.73828H292.75v.74219h-4.02734v-6.48047"/><path fill="#ff3030" fill-rule="evenodd" d="M175.92969 445.45703h7.69531V435.3125h-7.69531v10.14453"/><path fill="azure" fill-rule="evenodd" d="M177.76563 437.14453h.83203v5.73828h3.1914v.74219h-4.02344v-6.48047"/><path fill="#00f" fill-rule="evenodd" d="M383.83984 436.57813h8.6172v-10.14454h-8.6172v10.14454"/><path fill="azure" fill-rule="evenodd" d="M385.67188 428.26563h.83203v2.82421h3.28906v-2.82421h.83203v6.48046h-.83203v-2.91406h-3.28906v2.91406h-.83204v-6.48046"/><path fill="#00f" fill-rule="evenodd" d="M197.42969 396.63281h8.61719v-10.14453h-8.6172v10.14453"/><path fill="azure" fill-rule="evenodd" d="M199.26172 388.32031h.83203v2.82422h3.28516v-2.82422h.83593v6.48047h-.83593v-2.91406h-3.28516v2.91406h-.83203v-6.48047"/><path fill="#ff3030" fill-rule="evenodd" d="M304.64453 338.9375h7.6914v-10.14844h-7.6914v10.14844"/><path fill="azure" fill-rule="evenodd" d="M306.47656 330.625h.83203v5.73828h3.19532v.73828h-4.02735V330.625"/><path fill="#ff3030" fill-rule="evenodd" d="M437.79297 338.9375h7.69531v-10.14844h-7.69531v10.14844"/><path fill="azure" fill-rule="evenodd" d="M439.625 330.625h.83594v5.73828h3.1914v.73828H439.625V330.625"/><path fill="#ffffe0" fill-rule="evenodd" d="M301.83984 365.9414h22.1797v-10.1953h-22.1797v10.1953"/><path fill-rule="evenodd" d="M305.33594 357.58203h.51172v6.29297h-.78907v-4.48828h-1.38671v-.55469l.55859-.0664.2539-.0547.22657-.08984.20312-.14062.17578-.21094.14063-.29297.10547-.39453m4.8164 0l.22657.01953.21875.05469.21093.08984.19532.1211.18359.14844.17188.17578.30078.41796.24218.4961.1836.54687.10937.57813.03906.58984-.03906.59375-.10937.58594-.1836.55078-.24218.5039-.30079.42579-.17187.17969-.1836.15625-.1953.12109-.21094.09375-.21875.05469-.22657.01953-.23046-.01953-.21875-.05469-.20704-.09375-.19921-.1211-.1836-.15624-.17187-.1797-.30079-.42577-.24218-.5039-.17969-.55079-.11328-.58594-.03906-.59375h.83593l.02735.5625.08203.50781.125.44141.16406.375.1914.30078.21094.22266.22266.13672.22656.04687.22657-.04687.22265-.13672.21094-.22266.1875-.30078.16406-.375.125-.4414.08203-.50782.03125-.5625-.03125-.5625-.08203-.5-.125-.4336-.16406-.36718-.1875-.29297-.21094-.21094-.22265-.1328-.22657-.04688-.22656.04687-.22265.13281-.21094.21094-.1914.29297-.16407.36719-.125.4336-.08203.5-.02735.5625h-.83593l.03906-.58985.11328-.57813.17969-.54687.24219-.4961.30078-.41796.17187-.17579.1836-.14843.19921-.1211.20704-.08984.21875-.05469.23046-.01953m4.94922 0l.23047.01953.21875.05469.20703.08984.19922.1211.1836.14844.17187.17578.30078.41796.24219.4961.17969.54687.11328.57813.03906.58984-.03906.59375-.11328.58594-.1797.55078-.24218.5039-.30078.42579-.17188.17969-.18359.15625-.19922.12109-.20703.09375-.21875.05469-.23047.01953-.22656-.01953-.21875-.05469-.21094-.09375-.19531-.1211-.1836-.15624-.17187-.1797-.30078-.42577-.24219-.5039-.17969-.55079-.11328-.58594-.03906-.59375h.83594l.02734.5625.08203.50781.125.44141.16407.375.1914.30078.21094.22266.22266.13672.22265.04687.22656-.04687.22266-.13672.21094-.22266.1914-.30078.16407-.375.125-.4414.08203-.50782.02734-.5625-.02734-.5625-.08203-.5-.125-.4336-.16406-.36718-.19141-.29297-.21094-.21094-.22265-.1328-.22657-.04688-.22265.04687-.22266.13281-.21094.21094-.1914.29297-.16407.36719-.125.4336-.08203.5-.02734.5625h-.83594l.03906-.58985.11329-.57813.17968-.54687.24219-.4961.30078-.41796.17188-.17579.18359-.14843.19531-.1211.21094-.08984.21875-.05469.22656-.01953m4.95313 0l.38672.02735.35937.08203.32422.13671.27734.1875.23047.23829.17578.28515.10547.33203.03906.375-.01953.27344-.05859.23828-.08594.19922-.11328.16797-.1289.14453-.14063.125-.28516.19531.23047.1172.20703.14843.1836.17187.15234.19141.125.21484.08985.23047.05859.24219.01562.25781-.03125.3086-.10546.32812-.17188.32422-.23828.30469-.3086.26953-.375.21484-.21093.08203-.22656.0586-.2461.03906-.25781.01172-.26172-.01172-.24219-.03906-.22265-.0586-.20704-.08203-.35937-.21484-.28906-.26953-.22266-.30469-.15625-.32422-.09375-.32812-.03125-.3086h.83594l.02734.2539.07422.23438.125.21094.16016.1836.1914.15234.22266.11719.23828.0703.2539.02735.25782-.02734.23828-.07031.21875-.1172.19531-.15233.16016-.1836.1211-.21094.07812-.23437.02734-.2539-.02734-.25391-.07813-.23438-.12109-.21484-.16016-.1836-.1953-.15234-.21876-.11328-.23828-.07422-.25781-.02344-.2539.02344-.23829.07422-.22266.11328-.1914.15234-.16016.1836-.125.21484-.07422.23438-.02734.2539h-.83594l.01953-.2539.0586-.23829.08984-.22656.1211-.20703.15624-.1914.1797-.17188.20702-.15234.23438-.13282-.28516-.1953-.14062-.125-.12891-.14454-.11328-.16797-.08594-.19922-.0586-.23828-.01952-.27344h.78515l.02344.21485.0664.1914.10157.16797.13672.13672.16797.11328.1875.08203.20703.05079.21875.01562.22265-.01563.20704-.05078.1875-.08203.16406-.11328.13672-.13672.10546-.16797.06641-.1914.02344-.21485-.02344-.21484-.0664-.1914-.10547-.16407-.13672-.14062-.16406-.10938-.1875-.08203-.20704-.05078-.22265-.01953-.21875.01953-.20703.05078-.1875.08203-.16797.10938-.13672.14062-.10156.16406-.06641.19141-.02344.21484h-.78515l.03515-.375.10938-.33203.17187-.28515.23047-.23829.28125-.1875.32031-.13671.35938-.08204.38672-.02734"/><path fill="#ffffe0" fill-rule="evenodd" d="M261.51172 383.55078h22.17969v-10.1914h-22.1797v10.1914"/><path fill-rule="evenodd" d="M265.01172 375.1914h.50781v6.29688h-.78515v-4.49219h-1.39063v-.55468l.5586-.06641.2539-.05078.23047-.08985.20312-.14453.17188-.20703.14453-.29687.10547-.39453m4.8125 0l.23047.01953.21875.05469.20703.08984.19531.1211.1836.14843.17187.17578.30469.42188.24219.49218.17968.54688.10938.57812.03906.59375-.03906.58985-.10938.58594-.17969.55468-.24218.5-.30469.42969-.17188.17969-.18359.15234-.19531.125-.20703.08985-.21875.05859-.23047.01953-.23047-.01953-.21875-.0586-.20703-.08984-.19531-.125-.1836-.15234-.17187-.17969-.30469-.42969-.24219-.5-.17969-.55469-.10937-.58593-.03906-.58985h.83203l.02734.5625.08203.50391.12891.44531.16016.3711.1914.30078.21094.22265.22266.13672.22656.04688.22656-.04688.22266-.13672.21094-.22265.1914-.30078.16016-.3711.1289-.44531.07813-.5039.03125-.5625-.03125-.5625-.07813-.5-.1289-.4375-.16016-.36329-.1914-.29297-.21094-.21484-.22266-.13281-.22656-.04297-.22656.04297-.22266.13281-.21094.21484-.1914.29297-.16016.36328-.1289.4375-.08204.5-.02734.5625h-.83203l.03906-.59375.10938-.57812.17968-.54688.24219-.49218.30469-.42188.17187-.17578.1836-.14844.1953-.1211.20704-.08983.21875-.0547.23047-.01952m5.08984 0h.51172v6.29687h-.78906v-4.49219H273.25v-.55468l.5586-.06641.2539-.05078.22656-.08985.20703-.14453.17188-.20703.14062-.29687.10547-.39453m2.82422 2.17578h.78906l.01954-.3164.05859-.28517.09765-.2539.14063-.21485.1836-.17578.22265-.1289.26563-.07813.30468-.02734.23828.01953.22657.0625.20312.10156.17969.14063.14844.17187.11328.20703.07031.23438.02344.26562-.01953.26954-.06641.22265-.10938.1914-.15625.17188-.19921.16406-.2461.16407-.63672.39062-.53515.3125-.4375.3164-.34766.32423-.26562.33594-.1875.35156-.125.3711-.07032.39062-.01953.42187h4.21094v-.74219h-3.33203l.08203-.28515.11328-.23438.14844-.20312.1875-.17969.23047-.17188.27734-.17578.71875-.41796.41406-.20313.34766-.23047.28125-.2539.21875-.26563.16406-.27734.10938-.28516.0664-.28516.01954-.28125-.04297-.3828-.1211-.34767-.1875-.30859-.25-.26172-.30469-.21484-.34375-.15625-.3828-.09766-.40626-.03515-.4336.03125-.39843.10156-.35547.16406-.30469.23438-.24609.30468-.1875.375-.11719.44532-.03906.51953"/><path fill="#ffffe0" fill-rule="evenodd" d="M368.41406 389.69531h22.17969V379.5h-22.17969v10.19531"/><path fill-rule="evenodd" d="M371.91406 381.33594h.50781v6.29297h-.78906v-4.48829h-1.38672v-.55468l.5586-.0664.2539-.0547.23047-.08984.20313-.14063.17187-.21093.14453-.29297.10547-.39453m4.8125 0l.23047.01562.21875.0586.20703.08984.19531.1211.1836.14843.17187.17578.30079.41797.24609.4961.17969.54296.10937.58204.03906.58984-.03906.59375-.10937.58203-.1797.55469-.24608.5039-.30079.42579-.17187.17968-.1836.15625-.1953.1211-.20704.09375-.21875.05468-.23047.01954-.23047-.01954-.21875-.05468-.20703-.09375-.19531-.1211-.1875-.15625-.16797-.17969-.30469-.42578-.24218-.5039-.1797-.55469-.11327-.58203-.03516-.59375h.83203l.02735.5625.08203.50781.1289.4414.16016.375.1914.30079.21094.22265.22266.13672.22656.04688.22656-.04688.22266-.13671.21094-.22266.1914-.30078.16016-.375.1289-.4414.07813-.50782.03125-.5625-.03125-.5625-.07812-.5-.1289-.4336-.16017-.36718-.1914-.29297-.21094-.21485-.22265-.1289-.22657-.04688-.22656.04688-.22266.1289-.21093.21485-.19141.29297-.16016.36719-.1289.43359-.08203.5-.02735.5625h-.83203l.03516-.58985.11328-.58203.17969-.54296.24218-.4961.3047-.41797.16796-.17578.1875-.14844.19531-.12109.20703-.08984.21875-.0586.23047-.01562m5.08985 0h.51171v6.29297h-.78906v-4.48829h-1.38672v-.55468l.5586-.0664.2539-.0547.22657-.08984.20312-.14063.17578-.21093.14063-.29297.10547-.39453m2.82421 2.17187h.78907l.01953-.3125.0586-.28906.09765-.25.14062-.21875.1797-.17188.22655-.1289.26172-.08203.3086-.02735.23828.02344.22265.0625.20704.10156.17968.13672.14844.17578.11328.20313.07031.23828.02344.26172-.01953.26953-.0664.22656-.10938.1914-.15625.17188-.19922.16016-.25.16797-.63281.38672-.53516.3125-.4375.32031-.34765.32422-.26563.33594-.1875.34765-.125.3711-.07031.39453-.01953.41797h4.21093v-.7422h-3.33203l.08203-.28124.11329-.23828.14843-.19922.1875-.1836.23047-.16796.27735-.17579.71875-.41796.41406-.20704.34765-.23046.28125-.25.21875-.26563.16407-.28125.10937-.28125.0664-.28515.01954-.28125-.04297-.38282-.1211-.34765-.1875-.3086-.25-.26562-.30468-.21094-.34375-.16016-.38281-.09765-.40625-.03125-.4336.03125-.39844.09765-.35546.16797-.3047.23438-.24608.30469-.1875.375-.1172.4453-.03906.51563"/></g></defs><use xlink:href="#ac"/></svg>