<svg xmlns="http://www.w3.org/2000/svg" role="img" xmlns:xlink="http://www.w3.org/1999/xlink" viewBox="142.45 309.95 326.84 171.84"><defs><clipPath id="a"><path d="M144 311.67188h1v168.65625h-1zm0 0"/></clipPath><clipPath id="b"><path d="M144 311.67188h324v168.65625H144zm0 0"/></clipPath><clipPath id="c"><path d="M347 311.67188h2V313h-2zm0 0"/></clipPath><clipPath id="d"><path d="M373 478h4v2.32813h-4zm0 0"/></clipPath><clipPath id="e"><path d="M467 311.67188h1v168.65625h-1zm0 0"/></clipPath><clipPath id="f"><path d="M144 477h3v3.32813h-3zm0 0"/></clipPath><clipPath id="g"><path d="M154 477h6v3.32813h-6zm0 0"/></clipPath><clipPath id="h"><path d="M168 477h5v3.32813h-5zm0 0"/></clipPath><clipPath id="i"><path d="M181 477h6v3.32813h-6zm0 0"/></clipPath><clipPath id="j"><path d="M194 477h6v3.32813h-6zm0 0"/></clipPath><clipPath id="k"><path d="M207 477h7v3.32813h-7zm0 0"/></clipPath><clipPath id="l"><path d="M220 477h7v3.32813h-7zm0 0"/></clipPath><clipPath id="m"><path d="M233 478h8v2.32813h-8zm0 0"/></clipPath><clipPath id="n"><path d="M247 478h7v2.32813h-7zm0 0"/></clipPath><clipPath id="o"><path d="M260 477h7v3.32813h-7zm0 0"/></clipPath><clipPath id="p"><path d="M273 478h8v2.32813h-8zm0 0"/></clipPath><clipPath id="q"><path d="M287 478h7v2.32813h-7zm0 0"/></clipPath><clipPath id="r"><path d="M300 478h8v2.32813h-8zm0 0"/></clipPath><clipPath id="s"><path d="M313 478h8v2.32813h-8zm0 0"/></clipPath><clipPath id="t"><path d="M319 480h1v.32813h-1zm0 0"/></clipPath><clipPath id="u"><path d="M327 477h7v3.32813h-7zm0 0"/></clipPath><clipPath id="v"><path d="M343 476h2v4.32813h-2zm0 0"/></clipPath><clipPath id="w"><path d="M355 476h4v4.32813h-4zm0 0"/></clipPath><clipPath id="x"><path d="M366 478h8v2.32813h-8zm0 0"/></clipPath><clipPath id="y"><path d="M380 478h8v2.32813h-8zm0 0"/></clipPath><clipPath id="z"><path d="M393 479h8v1.32813h-8zm0 0"/></clipPath><clipPath id="A"><path d="M393 479h2v1.32813h-2zm0 0"/></clipPath><clipPath id="B"><path d="M406 479h8v1.32813h-8zm0 0"/></clipPath><clipPath id="C"><path d="M406 479h3v1.32813h-3zm0 0"/></clipPath><clipPath id="D"><path d="M420 478h8v2.32813h-8zm0 0"/></clipPath><clipPath id="E"><path d="M418 479h3v1.32813h-3zm0 0"/></clipPath><clipPath id="F"><path d="M433 478h8v2.32813h-8zm0 0"/></clipPath><clipPath id="G"><path d="M431 480h4v.32813h-4zm0 0"/></clipPath><clipPath id="H"><path d="M446 478h8v2.32813h-8zm0 0"/></clipPath><clipPath id="I"><path d="M446 480h3v.32813h-3zm0 0"/></clipPath><clipPath id="J"><path d="M460 477h7v3.32813h-7zm0 0"/></clipPath><clipPath id="K"><path d="M144 463h3v8h-3zm0 0"/></clipPath><clipPath id="L"><path d="M144 450h2v8h-2zm0 0"/></clipPath><clipPath id="M"><path d="M144 455h2v3h-2zm0 0"/></clipPath><clipPath id="N"><path d="M144 436h1v9h-1zm0 0"/></clipPath><clipPath id="O"><path d="M144 442h1v2h-1zm0 0"/></clipPath><clipPath id="P"><path d="M144 423h2v8h-2zm0 0"/></clipPath><clipPath id="Q"><path d="M144 410h3v7h-3zm0 0"/></clipPath><clipPath id="R"><path d="M144 399h4v3h-4zm0 0"/></clipPath><clipPath id="S"><path d="M144 383h2v8h-2zm0 0"/></clipPath><clipPath id="T"><path d="M144 370h3v7h-3zm0 0"/></clipPath><clipPath id="U"><path d="M144 357h3v7h-3zm0 0"/></clipPath><clipPath id="V"><path d="M144 343h2v8h-2zm0 0"/></clipPath><clipPath id="W"><path d="M144 330h1v8h-1zm0 0"/></clipPath><clipPath id="X"><path d="M144 328h3v3h-3zm0 0"/></clipPath><clipPath id="Y"><path d="M144 317h2v7h-2zm0 0"/></clipPath><clipPath id="Z"><path d="M465 317h3v3h-3zm0 0"/></clipPath><g id="aa" clip-path="url(#clip1)"><path fill="#fff" fill-opacity="0" fill-rule="evenodd" d="M0 0h1000v1000H0zm0 0"/><path fill="#d3d3d3" fill-opacity="0" fill-rule="evenodd" d="M162.15234 355.86719l-.23437.29297.0586.23437.11718.17188.17578.23437.29297.34766.11328.0586.11719-.17188.0586-.23438.17577-.17578.46485-.17578h.69922l.23437.29297.28906.8164.0586.17579.17578.23046.35156.23438.69922.69922.17188.17578.23437.34765.23438.41016.28906.58203.41015.46485.23047.23437.23438.17578.11719.23047.17578.29297.17187 1.16406v.23438l.0586.28906.05859.11719.11719.11719.34765.41015.11719.17188.17578.17578.17578.23437.11719.17188.17188.35156.05859.23438.23437.40625.23438-.0586-.17578.17578-.0586.92969h-.58203l-.23437-.11328-.34766.11328-.11719.11719-.05859.29297-.0586.17578-.11718.17187-.46484.29297-.0586.23438-.0586.11328v.64453l.0586.17187v.41016l.0586.0586v.40624l.05859.40625.11719.17579.05859.05859.23047.64062-.0586.29297v.69922l-.05859.58203v.23438l-.0586.23047-.05468.35156v1.92187l.05469.1172h.42578l-.36719.11718-.02344.35156.89063 1.16797 1.74219.53906 1.33984.35938v.53906l.08984.8086.53516.71484 1.51953.26953.89063-.08594.08984 1.16406.53516.1797 1.16015-.1797 2.05469-.98437 1.16016-.36328 1.8789-.17578 1.69531-.1797-.17968.71876-1.51563.08594-1.25.08984-.80469.26953-1.07421.8086.26953.71875.53515.89843-.17968.625-.26563.8086.26563 1.07812.625.89844.80468.17969 1.25-.1797-.26562.72267.09766.5039.05468.29297v.17188l.0586.29296v.40625l.17578.1172.35156.11718h.40625l.29297-.17578.11328-.11719.0586-.11719.11718-.23047.0586-.17578.35156-.46484.23047-.17578.17578-.0586.17578.0586.0586.17578.11718.98828.05469.46875.0586.17188.11718.23437.17578.0586.8164.05859h.28907l.11719.23437.05859.40625.0586.35156v1.10547l.11718.29297.11719.34766.28906.69922.17578.35156.58203.7539.35157.17579.17187.0586.46875.23437.64063.46484.34765.23438.29297.17578.29297.05468.23047.0625.8164.34766.29297.17578.11328.17188.35157.35156.11719.17578.52343.64063v.28906l.0586.35156v.34766l.05859.35156.0586.28906.11718.0586.17188.05859h.17578l.58203.23437.17578.1172.17578.28905.17578.23438.11328.23437.29297.23047.11719.11719v.41016l.0586.05468.28906.23438.23437.11719.0586.11718.11718.17188.0586.11719.23047.23437.05859.17578.23437.0586.1172.05859-.1172.11328-.05859.11719v.11719l-.11719.29296-.11719.28907v.58203l.17579.11719.11718.05859.0586.11719.11719.11719.11328.05859.17578.34765.0586.35157.05858.40625v.17578l-.05859.17578-.11719.69922v.17187l.1172.17579.29296.29296h.40625l.17578.1172.11719.17187.11719.29296v.23438h-.52735l-.23047-.23438h-.23437l-.17578.0586-.0586.69922.0586.34765.11719.17579.17578.41015.11718.23047.28907.46875.17578.05469h.52344l.23437.0586.75781.64062.0586.29296v.23438l.05859.0586.23047.34765v.35156l-.11719.17188v.29297l.29297.28906.29297.17578.17187.0586.29297.17577.29297.1172.58203.40624.28906.23438.29297.17578.21875.16015.01563.01172.23047.17579.64062.52343.17578.23438.1172.17578.17577.17578.11328.17188v.64062l.1172.17578.46874.11719.58203.11719.23438.05859.23047.11328.29297.11719.11328.0586.58593.35156.28907.17187.17578.0625.17578.05469.17578.0586.69922.35155.28906.17579.23438.05468.28906.17578.23437.1172.64063.40624.29297.11719.17187.0586.23438.05859.41015.05859.23047.0586.23438.11718.0586.17188-.41017.17578.46875.0586.0586.29296.11328.23438.17578.05468.23438.0586.17578.05859.40625.11719.64062.23437.11719.17188.0586.23437v.17578l-.0586.1172-.0586.40624.23438.23438.11719.05859.34766.11719.64062.23047.17578.11718.28906.1172.17578.17577.23438.46485.58203 1.10546.17578.17579.34766.17578.17578.11719.35156.11718 1.04688.52344.23437.0586.46485.11327.29297.0586.46484.17578.75781.58203.23438.23438.34765.46484.17578.17578.28907.23438.8164.69921.29297.17579.28906.28906.29297.17578.29297.28906.69531.64063.17578.17578.29297.23437.28907.23438.46875.28906.64062.58203.34766.23438.23437.29297.34766.34765.35156.46485.9336.99218.34765.40625.11719.17579.23437.05859.11328.11719.64454.17578.23047.11328.23437.0586.29297.17577.23047.1172.9336.69921.40624.40625.23438.17578.40625.17578.23437.11719.8164.34766.34766.23437.23438.11719.29297.28906.23047.11719.7578.35156.35157.17188.23047.05859.29297.11719.23437.0586.8711.17577h.8164l.46875.23047.17188.0586.875.69921.46484.1172.29297.05858.17578.0586.23047.0586.46875.05859.34766.05859.35156.0586.40625.05859h.29297l.17187.0586v.23046l.17578.17578h.29297l.34766.0586.35156.05859.69922.11719h.64063l.46484-.23438.29297-.17578.17187-.11719.41016-.17187.28906-.17578.9336-.46485.46875-.29297.52343-.29296.46485-.17188.46484-.17578 1.05078-.46485.28906-.11718.41016-.11719.28906-.11719.52735-.17578 1.51562-.69922.58203-.34765.28907-.0586.29297-.0586.34765-.11718.875-.23047.35156-.11719h.11329l.23437-.05859.875-.23437.23438-.0586h.8125l.35156-.0586.8164-.11718.17188-.0586.35156-.05468.29297-.0586.23047-.05859.8164-.17578.17579-.0586h.34765l.23438-.05859.46484-.11718.75781-.17188.23438-.0586h.34765l.41016-.11718.28906-.0586 1.28516-.05859h.28906l.41016-.0586.23047-.05858h.17578l.875-.1172h.40625l.41015-.11718h.34766l.35156-.11328.8711-.0586h1.75l1.04687.28907.41016.11719.28906.11718.35156.11719.28907.11719 1.05078.17187.28906.0586h.29297l.29297.05859.17187.0586.41016.05859.17187.0586.1172.05858h.11718l.11719.0586.35156.0586h.11328l.41016.0664 1.92187.39453 1.92578.39453 1.51953.44922 1.69532.71875 2.14453.80469 1.60547-.71875 1.42968-.80469 1.16016-1.07813 1.25-.44921 3.03516-.71875 1.875-.35938 2.14453-1.34765 2.23437-1.25391 2.5-1.25781 1.69531-.44922 1.78516-.17969 1.16016-.26953.625.53906 1.33984-.26953.71485-.98828.98437-1.34375.44531-.17969.80469-.35937 1.875-.53907 1.78516-.44921 1.25-.26954 1.16015-.08984 1.69922-.08984 1.96094-.26954 1.25-.08984h.53906l.625-.08984h.89063l2.14453-.17969 2.41015-.17969 2.58985-.08984 1.69531.17969 1.60938.08984 1.42968.35938 1.16016.71875 1.875.98828 1.16015 1.52734.26563.71484.6289.08985.35548.89844.53515.53906.53516 1.52734 1.07422.35938h.53515l-.80469.53515.08985 1.70703.71484 2.69532.89063.80468.89453.98829.71484 1.2578 1.78516.53907 1.51953-.17969.35547 1.34375 1.60937-.80469.98047-.53906.26953.26953.31641-.21484.21875-.14453.80078.44922.44922-.35938h.35547l.53515-.26953.53907-.71875.53515-.26953.625-.98828 1.16016.44922.83984.3711 1.39454.61718 1.6953-.17969h1.60548l1.78515.08985.17969-1.70704.53516-1.34375.80468.26954.4922.84765.40233.40625-.08984.53906v.35938l.71485.44922.71093-.26953h1.42969l.35938.98828.4453 1.25781.71485 1.34375 1.25.6289 1.69531.62891.71485-.17969.17969-.53906.98046-.08984.44922.35937.08594 1.25782-.26563.6289-.53515.17969v.53906l.71484.98438.26563.53906.98437.98828.80078 1.07813-.26562.35937-.08985.89844-.625 2.33203-.35546 2.0664-.08985 1.79298-.17969.71875-.08984.53906v1.4375l-.98047 1.88281-.35937 1.70703-.53516.89844-.80469 1.16797-.26562.53906 2.05469 1.2539.08593.35938-.35546.53906-.08985-.17968v.80859l.08985 1.4375-.44532.71484-1.07422.09375-.26562.71485.53515.89844.8047.71875 1.16015.80859 1.33984.26953.44531.35938-.35546.44921-1.78907-.08984-1.25-.44922-.71484-.71875-.625-.08984-.17578 3.58984-.1875 1.3086h89.35937V311.70313h-55.26953v49.08203l.76172.125 3.28906.54296 2.02344 2.83594v2.7539l2.35156.33204 2.34766.33203h4.05078l-1.3789 4.16016-2.02344.70703-2.02344.70312-.54297.34375-2.59375 1.6172-.1875.11718-2.02344-2.07813-.73046-2.74218-2.67188-2.07813-1.375-3.5-.0664-.08203-1.95704-2.67188 2.75-1.41796v-49.08204H294.42187v91.41407l.1172.03125.1328.01172.07422.07421.10547.04688.08985.0586.08593.05859.08985.0586.29687.29687.0586.08984.03125.11719.02734.11719.01563.13671-.03125.1172-.0586.08983-.0586.08594-.04296.10547-.04688.10156-.02734.1211v.14453l.17578.26953.14844.14844.07422.08594.07422.07421.04296.10547.0625.08985.0586.08593.04297.10547.0586.08985.04687.10156.04296.10547.0586.08594.11719.17968.07421.07422.0625.08594.0586.08984.04297.10547.0586.08985.05858.08593.0625.08985.0586.08984.04297.10156.11719.17969.07421.07422.0586.08594.07422.07421.08984.0586.10547.04687h.14844l.1328-.01562.13282.01562.10156-.04687.07422-.07422.04688-.10156-.01563-.13281v-.14844l-.04687-.10547-.02735-.11719-.04687-.10156-.02735-.1211-.04296-.10156-.0625-.08984-.04297-.10156-.04297-.10547-.03125-.11719-.01563-.13281-.01171-.13672.08593-.0586.0586-.08593.12109-.03125.04297.10547.01562.1328v.1172l.0586.10156.0586.08984.08983.0586.14844.14843.0586.08985.04296.10547-.01171.10156.08593.0586.10547.04687.08594.0586.08984.05858.07422.07422-.11719.02735-.10546.04687-.08594.0586-.07422.07421-.0586.08985-.0625.08594-.02734.12109-.04687.10156-.04297.10547-.03125.11719-.01172.13281-.01563.13281v.14844l.02735.11719.04687.10547.04297.10156.0586.08984.07421.07422.08985.0586.07422.07421.08984.0586.0586.08984.04296.10547.04688.10156.11719.03125.1328.01563h.14845l.11718-.03125.10547.04297.04297.10547.04688.10156.02734.1211L299.5 410l.02734.11719.03125.1211.02735.11718.10547.04297.10156.04687.13281-.01562.14844.14844.0625.08593.07422.07422.07031.07422.08984.0625.10547.04297.10156.04297.1172.03125.13671.01562.11719-.03125.07422-.07422.02734-.11718-.01172-.13282-.03125-.12109-.02734-.11719.04297-.10547h.11719l.08984.0625.11719.02735h.14843l.13282.01562h.14843l.13282.01563.1328-.01563h.14845l.1328-.01562.13282-.01172.13672.01172.11719-.02735.13281-.01562.1914-.0586-.05859.17579-.01562.1328-.02735.1211-.01562.13281-.0586.08594-.1328.01563-.10548.04687-.10546.04297-.1172.03125-.11718.02735-.26563.03125h-.14843l-.13281.01562-.07422.07422.05859.08594.14844.14843.11719.1797.07421.0703.08985.0625.08984.0586.08594.0586.08984.05858.10156.04297.10547.0625.10547.04297.08594.0586.10547.04687.10156.04297.17969.11719.0586.08984-.04298.10156-.04687.10547.01562.13281.22266.22266.0586.08985.04296.10156.03125.1211.04297.10155.01563.13282.03125.11718.01171.13672.03125.11719.14844.14844.10156.04297.10547.04296.1172.03125.1328.01563.13672.01563h.11719l.11719-.03125.08984-.0586.04297-.10547.04688-.10156.04296-.10547.03125-.11719.01172-.1328v-.14845l-.01172-.1328-.01562-.13282-.03125-.11719-.04297-.10547-.04688-.10547-.04296-.10156-.04297-.10547-.01563-.13281.01563-.13281.02734-.11719.03125-.11719.02735-.1211.04687-.10155.08984-.0586.08594-.0625.07422-.07422.08984-.05859.22266-.22266.0586-.08593.07421-.07422.11719-.17969.0586-.08594v-.14844l-.07423-.07421-.10156-.04688-.10547-.04297-.10156-.04297-.0586-.08984-.04687-.10547-.02734-.11719.08984-.05859.11719-.03125.10156-.04297.17969-.11719.14844-.14843.01172-.13282-.01172-.10546-.08985-.0586-.1328.01563h-.14845l-.1328.01562-.13282-.01562-.1211-.03125-.08593-.0586-.07422-.07422-.0586-.08984-.0625-.08594-.11718-.17969-.0586-.08593.03125-.1211.08594-.05859.1211-.03125.05859-.08594v-.1211l-.03125-.11718-.0586-.08984-.05859-.08594-.04687-.10547-.02735-.11719-.01562-.1328.0586-.08985.07421-.07422.08984-.0586.1172-.17968.07421-.07422.0586-.08594.14843-.14844.1211-.03125.1328-.01562.13282.01562.07422.07422.04297.10547.01562.13281-.03125.1172-.11719.03124-.1328.01172-.14844.14844-.04297.10547-.04688.10156-.02734.1211-.03125.11718v.14844l.03125.11719.04297.10546.05859.08985.07422.07031.07422.07422.11719.03125.12109.02734.11719-.02734.1328-.01563h.1172l.08984.0586.07422.07422.04687.10546.0586.08594.10156.04688.13281.01562.10547.04297.08594.0586-.01172.10546-.07422.07422-.17969.11719-.05859.08984-.08984.0586-.07032.07422-.07421.07421-.0625.08985-.02735.11719-.01562.1328.01562.13282-.01562.13281v.14844l.01562.13281.02735.1172.03125.12108.07421.07422.08985.0586.08594.0586.08984.05858.11719.03125v.08594l-.10157.04688-.08984.0586-.26563.03124-.11718.02735h-.14844l-.10547.04296-.10156.04688-.0586.08984-.0625.23438-.01171.13281-.03125.1211-.01563.1328v.29298l-.01172.1328.01172.13673.01563.1328.1328.01563.13282.01172.1211.03125.08593.0586.07422.07421.04688.10547.04296.10157.01563.1328v.44532l-.01563.13281v.44532l.03125.26562.02735.11719.01562.13281.03125.11719.08594.21094.03125.26562v.14844l-.03125.11719-.02734.11718-.03125.1211-.02735.11719-.03125.11718-.03125.1211-.01171.1328-.01563.13282.08984.0586.1172-.03125.10155.01562.04688.10547-.03125.26562v.44141l-.04297.10547-.04688.10547-.04296.10156-.04297.10547-.0586.08594-.03125.12109-.04296.11719-.03125.11719-.01563.1328.01563.13282.05859.08984.10547.04688.08594.0586.05859.08593-.01172.13672-.03125.11719-.04297.10156v.44531l-.01562.13281v.14844l-.03125.11719-.04297.10547-.02735.11719-.04687.10546-.04297.10157-.03125.12109-.02734.11719-.03125.13281-.03125.11719-.02735.11719-.04297.10546-.03125.1172-.03125.12108-.01171.13282-.01563.13281v.29688l.02734.11718v.14844l.04688.39844.02734.11719.0586.08984.12109.03125h.14844l.13281-.01563.0586.08985v.11719l-.0586.08984-.08984.0586-.10157.04296-.10546.04688-.08985.05859-.08594.0586-.13671.01562-.1172-.03125-.1328-.01563-.10157.04688-.0625.08594-.01172.13671-.01562.13282-.03125.11719-.02735.11718-.01562.13281-.03125.1211v.29687l.01563.13282.03125.11718v.14844l.01171.13281v.14844l-.02734.11719-.04688.10156-.02734.1211-.03125.11718-.0586.08985-.07421.07421-.10156.04297-.10547.04688-.11719.02734-.1211.03125-.10156-.04687.0586-.08594.10547-.04688.02734-.11718.03125-.11719.02734-.1211.03125-.11718v-.14844l.01563-.13281-.03125-.11719-.04297-.10547-.10547.01563-.07422.07422-.10156.04296-.08984.0625-.07422.07422-.04297.10157-.01563.1328-.03125.1172L304.25 426l-.03125.11719-.02734.11719-.03125.12109-.02735.11719-.03125.11718-.04297.10547-.08984.0586h-.08984l-.1172-.03125-.03124-.08594.01562-.13672-.03125-.11719v-.14844l-.01171-.1328v-.14844l-.0625-.23438-.02735-.1211-.04297-.10156-.04687-.10546-.0586-.08594-.05859-.08985-.04297-.10546-.0625-.08594-.14844-.14844-.0703-.07422-.10548-.04687-.10547-.04297-.10156-.04297-.29687-.29688-.08985-.07421-.08594-.0586-.10546-.04297-.08985-.0625-.08594-.0586-.10546-.04296-.08985-.0586-.08594-.0625-.07421-.0703-.10547-.04688-.08594-.0586-.10547-.04296-.08984-.0625-.10156-.04297-.10547-.04297-.08594-.0586-.10547-.04687-.10547-.04297-.10156-.04687-.08985-.0586-.10156-.04297-.10547-.04296-.08984-.0625-.11719-.02735-.13281-.01562-.13281.01562H299.75l-.13281.01563-.11719-.03125-.08984-.0586-.07422-.07422-.08985-.05859-.10156-.04688h-.14844l-.12109-.02734-.10156-.04297-.07422-.07422-.11719-.17968-.08984-.0586-.10156-.04297-.08985-.0625-.10547-.04296-.08984-.0586-.08594-.0586-.10547-.04687-.0586-.08594-.05858-.08984-.04297-.10547-.04688-.10156-.07422-.07422-.08594-.0586-.07421-.07421-.08985-.0586-.22265-.22265-.04297-.10547-.03125-.26563.10547-.04296h.14453l.10547.04296.07421.07422.08985.0586.08594.0586.10546.04687.08985.05859.14844.14844.0703.07422.14845.14843.0625.08594.07421.07422.08594.0586.07422.07421.08985.0625.08984.0586.08594.05859.26953.17578.10156.04688.10547.04296.10156.04297.04688-.07421.05859-.08594.07422-.07422.07031-.07422.10547.04297.07422.07422.0586.08984.04296.10156.04688.10547.04296.10547.1211.02735.11719-.02735.07421-.08984.04297-.10547.0586-.08985.07422-.07421.10546-.04297.1172-.02735.1328.01172.08985.0586.14844.14843.05859.08985.04297.10547.04687.10156.04297.10547.04297.10156.10547.04688.10547.04296.13281.01563.08594-.0586.0586-.08984.07421-.07422.10547-.04297.11719.02735.10547.04687.10156.04297.10547.04297.10156.04688.17969.11718v.11719l-.01563.13281.01563.13281.01562.13672.0586.08594.10156.04688.1211.02734.11718.03125h.14844l.11719-.03125.05859-.08984.17969-.1172.05859-.08983.07422-.07422.0586-.08594.11718-.17969.17969-.11719.11719.03125.08984.0586.04297.07422-.01563.1328v.1172l.08985.05859h.14843l.13282-.01563.1328-.01171.26563-.03125.10547-.04297.11719-.03125.1211-.02735.07421-.07421.07031-.07422.0625-.08985-.01562-.10547-.04688-.10156-.10156-.04297-.10547-.01562-.11718.02734-.26563.03125h-.14844l-.07421-.07422-.08985-.0586-.11719-.03124-.11718-.02735-.13282-.01562h-.14843l-.13282.01563h-.29687l-.10547-.04688-.14844-.14844-.04297-.10156-.05859-.08984.22266-.22266.08593-.0586.10547-.04296.11719-.03125.13281-.01563.13281.01563.13672.01562.10157.04297.1328-.01172.08985-.0625.10156-.04297.0625-.08984-.04687-.10156-.08984-.0586-.1172-.03125-.10155-.04296-.0586-.08985-.0625-.08984v-.11719l.01563-.13281.10547-.04688.07421-.07031v-.1211l-.08984-.05859-.03125-.11719.08985-.05859.07421-.07422.04297-.10547.0586-.08984.04687-.10156.01563-.13281v-.14844l-.04688-.10547-.04297-.10156-.08984-.0586-.13281-.01562-.10157-.04297-.13671-.01563-.1172-.03125h-.4453l-.13282-.01562-.13281-.01172-.13281-.01563-.11719-.03125h-.14844l-.13281-.01562-.13281-.01172-.26563-.03125-.1211-.04297-.08593-.0586-.07422-.07421v-.14844l.01172-.13281.10547-.04688.10156-.04296.13281-.01563h.15235l.13281-.01562h.29297l.1211.03125.10156.04296.08984.0586.23438.0625.12109-.04688.08984-.05859.10156-.04297.13282-.01562.10547.04296.10156.04688.13281.01172.1211-.02735h.14453l.12109-.03125.11719-.02734.10547-.04687.07421-.07422.08594-.0586.14844-.14843.0586-.08594.04687-.10547.02734-.11719.01563-.10547-.10156-.04296-.08985-.0586-.11719-.03125-.10546-.04297-.08985-.0625-.07422-.08594-.07422-.07421-.10156-.04297-.10547-.04688-.10156-.04297-.0586-.08984-.04687-.10156-.08594-.21094-.0625-.08594-.05859-.08984-.07422-.07422-.08594-.0586h-.26953l-.11719.03126-.08984.05859-.10156.04297-.13281.01562-.10547-.01562-.02735-.11719-.0625-.08984-.11718-.03125-.10157-.04297-.14843-.14844-.03125-.11719-.01563-.10546.07422-.07422.17969-.1172.11719-.02733.11718-.03125.13672.01562.10156.04297.10547.04297.10156.04687.10547.04297.1172.03125.1328.01563.1172.02734.1328.01563.10547-.01563.08985-.0586-.07422-.07421-.10547-.04297-.07422-.07422-.07422-.08984-.14844-.14844-.08593-.0586-.08985-.05859-.07422-.07422-.08984-.0586-.10156-.04687-.1211-.02734-.10156-.04688-.10547-.04296-.11719-.03125-.10156-.04297-.1211-.03125h-.14843l-.11719.03125-.10546.04297-.08594.0625-.17969.11718-.08594.0586-.08984.0586-.10547.04687-.08594.05859-.10547.04297-.10156.04297-.10547.04687-.07422.07422-.05859.08985-.0586.08593-.04687.10547-.0586.08594-.07421.07422-.13281-.01172-.1172-.03125h-.11718l-.07422.07422-.08984.0586-.07422.07421-.08984.0586-.08594.05859-.10547.04687-.10156.04297-.13672.01563-.10156-.04297-.14844-.14844-.10547-.04688h-.08594l-.10547.04688-.10156.04297-.1211.03125-.11718-.03125-.07422-.07422v-.11719l.03125-.1211.07422-.0703.0586-.08985.07421-.07422.11719-.03125.10547-.04296h.29297l.13281-.01563.13672-.01563.10156-.04296.08985-.0586.10156-.04687.08984-.0586.13281-.01171.08985.05859.13281.01172.08984-.0586.08594-.05859.10547-.04297.08984-.0586.08594-.0625.08985-.05859.14843-.14843.0586-.08594.05859-.08985.10547-.04296.13281-.01563.11719.02735.1211.03125.05859-.0586.05859-.08984.03125-.26563.02734-.11719.10547.01172.13281.01563.10157-.04297.08984-.0586.0586-.08984.07421-.07422.0586-.08984.04687-.10156.01172-.13281-.01172-.13282-.04687-.10547-.14844-.14843-.0586-.08985-.05859-.08594-.04297-.10546v-.44532l.01563-.1328v-.14845l.01172-.1328-.0586-.0586-.08984.0586-.10156-.04298-.17969-.11719-.08594-.05859-.0625-.08984-.0586-.08985-.07421-.07421-.08594-.0586-.1211.03125-.10155.01172-.10547.04688-.08594.05859-.10547.04297-.14844.14844-.08984.05859-.08594.0586-.08984.0625-.10547.04296-.13281.01563v-.1211l.10547-.04297.11718-.03125.07422-.0703.04297-.10548v-.14844l-.02734-.11718-.14844-.14844-.13281-.01563h-.14844l-.11719.03125-.10547.04297-.10156.04297-.08984.0625-.11719.02735-.07422-.07422.01172-.13281-.04297-.10157-.04297-.10547-.08984-.05859-.11719.02734-.1211.03125-.11718.03125-.10156.04297-.1211.03125-.10156.04297-.10547.04297-.08984.0586-.10156.01562v-.11719l.01562-.13281-.0586-.08985-.07421.04297-.14844.14844-.0586.08985-.07421.07421-.04688.10547-.04296.10156-.07422.07422-.0586.08985-.07422.07422-.05859.08593-.07422.07422-.08984.0625-.07422.07031-.07422.07422-.10156.01563-.13281.01562-.10547-.04296v-.1211l.14843-.14844.04297-.10156.0586-.08984.04687-.10156.04297-.10547.0586-.08985.03124-.11719.04297-.10156.03125-.1211.02735-.11718.04687-.10547.04297-.10156.04297-.10547.07422-.07031.08984-.0625.08985-.0586.10156-.04296h.29687l.26563-.03125.10547-.04297-.07422-.07422-.11719-.03125-.10547-.04297-.08984-.0586-.10156-.04687-.08985-.0586-.10156-.04296-.10547-.04297-.08984-.0625-.08594-.0586-.10547-.04296-.10156-.04297-.1211-.03125-.11718-.03125-.10157-.04297L297.5 410.25l-.10156-.04297-.08985-.0586-.04296-.10546-.01563-.13281.10156-.04297.13281-.01563.13672.01563.13282-.01563.10156-.04297.0586-.08984.01562-.10547-.08985-.0586-.07421-.07421-.10157-.04297-.08984-.0586-.14844-.14843-.04297-.10547-.01562-.13281v-.29297l-.0586-.08985-.08984-.05859-.07422-.07422-.04297-.10547-.03125-.11718-.0586-.08985-.07421-.07422-.11719-.02734-.07422-.07422-.08984-.0586-.08984-.0625-.08594-.05859-.07422-.07421-.0586-.08594-.04687-.10547-.08594-.0586-.14843-.14843-.19532-.0586-.1328.01563-.10157.04297-.07422.07422-.04688.10156-.04296.10547-.0586.08984-.0586.08594-.29687.29687-.08984.0586h-.08594l-.0625-.08594-.04297-.10547.03125-.11719.0586-.08984.02734-.11719-.01172-.13281-.08984-.0625-.10547.04688-.11719.02734-.11719.03125-.26953.17578-.10156.04688-.11719.02734-.10546.04687-.08985.0586-.10156.04297-.0586-.08594-.04687-.10547.01563-.13281.04687-.10547.07031-.07422.07422-.07031.0586-.08985v-.14843l-.04297-.10547h-.23829l-.10156.04687-.03125.11719-.02734.11719-.03125.1211-.07422.04296-.13281.01563-.07422-.04688-.04297-.10156-.04297-.10547-.04687-.10156-.04297-.10547-.1211.03125-.10156.04297-.13281.01562-.11719.03125-.10547.04297-.08984.0586-.10156.04687-.1211.02734-.13281.01563-.10156-.04297-.0586-.08985-.04687-.10546-.04297-.10157-.04297-.10546v-.1172l.0586-.08984.08593-.05859.17969-.11719.10156-.04687.10547-.04297.10547-.0586.10156-.04296.08985-.0625.10156-.04297.10547-.0586.10156-.04687.08984-.0586.10547-.04296.10156-.04297.08985-.0625.10156-.04297.13672-.01563.11719.03125.10156.04297.1211.03125.10156.04297.10546.04688.10157.04296.10547.04297.10156.04688.10547.04297.10156.04297.10547.04687.08594.0586.10546.04296.1172.03125.10546.04297.10156.04688.08985.0586.10547.04296.10156.04297.10547.04687.11719.02735.10156.04687.1211.02735h.14843l.08594-.0586.01562-.10156.0586-.08984-.02735-.1172-.07422-.07421-.11719-.17969-.07421-.07422-.08985-.07421-.17969-.1172-.08593-.05859-.10547-.04296-.10156-.04688-.26954-.17578-.05859-.08985-.07422-.07421-.0586-.08985-.04296-.10156-.03125-.11719-.01563-.13672v-.5625l-.01171-.1328-.01563-.13282-.03125-.11719-.01562-.13281-.01172-.13281-.03125-.1211-.22266-.22265-.0586-.08594-.01562-.10547.03125-.11719.13281-.01562v-91.41406H172.9922v1.45312l-.0586.23438-.35156 1.05078-.17187.52343-.1172.34766-.17577.41016-.11719.17187-.23438.29297-.23046.0586h-.35157l-.11718.05859-.23047.40625v.29297l.11719.17578.23046.23047.1172.23437.64062.75781.29297.46485.17578.23437.23047.35156.23437.34766.64063.8164.17578.46485.17187.41016.11719.69531.17578.46875.11719 1.39844.0586.46484v.875l.11718 1.04688v4.78125l-.0586.46484-.35156 1.28125-.17578.52344-.11328.41015-.35156.9297L172.93359 336l-.23437.58203-.11719.17578-.17187.34766-.17578.40625-.35157.8164-.0586.29297-.11327.29297-.11719.28906-.0586.17579-.11718.875-.0586.40625-.05859.11718-.0586.17579-.05859.17187-.23047.52734-.11718.17188v.23437l-.11719.23438-.0586.17187-.17577.58594v.28906l-.0586.17579v.29296l-.0586.11329-.05859.52734v.17187l-.05468.23438v2.6211l-.17578.8164-.1172.17578-.17577.23438-.1172.17187-.11327.23438-.58594.93359-.23047.28906-.29297.46485-.17578.23437-.28906.35156-.35156.69922-.11328.23047-.17579.41016-.17578.23046-.40625.52735-.8164.69922-.29297.17187-.28906.23438-.17579.11719-.17578.17578-.52344.40625-.52734.17578-.17187.17578-.23438.05469-.64062.17578h-.75782m12.21094 31.02344l-1.07422.44921.35938.89454 1.25-.71485.44531-.53906-.98047-.08985"/><path fill="#d3d3d3" fill-opacity="0" fill-rule="evenodd" d="M201.50781 416.59766h-.89453l.44922.6289.98047.35938.80469-.08985.4453-.98828-.17577.08985-.71485-.35547-.89453.35547m154.6211 59.0703l-.0586-.52343v-.29297l.11328-.29297.0586-.23046.46875-.46875h.11328l.11719-.11329.11718-.05859h.17579l.23437-.0586h.34766l.23437.0586.11719.0586.23047.17187.0586.17578.11718.58203v.29297l-.11719.17578-.17187.28906-.17579.17579-.52734.52343-.23047.23438-.11719.0586h-.17578l-.11718-.0586-.40625-.29297-.17579-.11719-.11718-.0586-.0586-.11327-.05468-.1172m6.64062-10.95702l-.0586-.17188v-1.10937l.0586-.17188.17578-.0586.17188-.05858h.17578l.23437-.0586.1172.0586.05858.69921-.05859.17188-.11719.17578-.11718.0586-.23438.52343-.11328.0586h-.23438l-.05859-.1172m9.61328-14.39062l-.11719-.17578v-.69922l.29297-.875.1172-.17187.17577-.35156.11328-.23047.1172-.29297.35155-.75781.1172-.23047.17187-.23438h.17578l.11719-.0586h.64062l.11719.0586.23437.23438.17188.11328.35156.29297.11719.11718.11328.17579v.11328l.11719.05859.11718.11719v.69922l-.05859.17578v.23047l-.0586.17578-.34765 1.05078-.11719.23047-.11719.23437-.11718.0586-.23047.23437-.64063.28906h-.875l-.41015-.11718-.64063-.46485"/><path fill="none" stroke="#bebebe" stroke-linecap="round" stroke-linejoin="round" stroke-miterlimit="10" stroke-width=".5" d="M467.95703 311.69531H144.02734v168.625h323.9297v-168.625"/><g clip-path="url(#a)"><path fill="#fff" fill-opacity="0" fill-rule="evenodd" d="M144 475.89063v4.4375h.0039H144V311.67188h.0039H144v164.21875"/></g><g clip-path="url(#b)"><path fill="#fff" fill-opacity="0" fill-rule="evenodd" d="M144.0039 480.32813V311.67188h35.50391v55.03125l-2.67187 2.66796-1.76953 2.17579-2.375 2.26171 2.375 2.39063v6.41797l-.06641.0664.0664.07032.0625-.07032-.0625-.0664v-6.41797l4.44141.41015 3.2461-2.80078-.1875-4.4375-3.0586-2.66796v-55.03125h31.0664v58.40234l-4.4375 2.07031-1.8828 1.66406-2.28125 4.4375-.27344.39844-4.4375 2.79688-1.20703 1.24218-2.9414 4.44141-.29298.53125-3.67969 3.90625-.7578 4.35547-.09376.08203-1.32422 4.4375-3.01953 1.5664-3.30078 2.8711-1.13672 1.0586-4.4414 1.8203-1.59375 1.5625-2.84375 3.4922-1.375.9453-1.00391 4.4375-2.0586.97657-4.4375.42578-2.51562 3.03516-.91016 4.4414-1.01171 2.20703-2.12891 2.23047-2.3125 2.78906-1.65625 1.64844 1.65625 2.19922 4.4414 1.30469 4.4375-1.21485 2.47266-2.28906 1.96485-1.3164 3.58203-3.1211.85547-.75781 4.4375.11719 4.4414-.40625 4.08985 1.04687.34765.30078.29297-.30078 4.07422-4.4375.07031-.01562L192.5 422.6289l.32031-.52735 4.125-3.91015.3164-.13672 4.20704-4.30078.23047-1.05079 2.1914-3.38671 2.2461-3.23438 4.4375 1.08203 2.1836 2.15235 2.2578 1.6328 4.4375 2.48829.39454.3164 4.04297 2.65235 4.4375.03125 4.4375-.29297 3.03515 2.04688 1.40625.98828 1.10156-.98828 1.78125-4.4375-2.8828-3.5-.95313-.9375.95312-1.58594 2.32813-2.85547 2.10937-.73828 3.48047-3.69922L243.53125 396l-1.88672-1.76953-4.4375 1.15234-4.26953-3.82031 3.60547-4.4375-3.77734-3.01953-1.5586-1.42188-2.8789-3.34375-1.39454-1.09375-3.04297-3-.76171-1.4375-3.67578-2.875-4.4375-.40625-4.44141-.45312v-58.40235h71.01562v51.44532l-4.4375.70312-2.05078 1.11328-2.39062.60938-3.48828 3.82812.5625 4.4375-1.51172 2.20313-4.4375-1.46485-.5-.73828.5-.79296 3.74219-3.64454-3.7422-3.59765-3.15624-.83985-1.28125-1.17578-1.60938 1.17578-2.83203.61329-4.4375.64453-4.4375 1.65234-.83203 1.52734-3.60547 4.04297-1.98828.39453 1.98828.67579 4.4375 2.55078 4.3086 1.21093-4.1172 4.4375 4.2461 3.64844 1.17969.79297 3.25781 3.58203 4.4414.42578 1.19141.42969 3.2461 2.16406 4.4375-.08203 2.08594-2.08203 2.35156-.80469 4.4414-1.15234 2.3711-2.48047-2.3711-3.97656-.1914-.46485.1914-.55468 4.4375-2.40625 3.5586-1.47657.8789-.15625 4.4375-1.3789 4.4375.07812 1.97657-2.98047 1.40234-4.4375-3.3789-3.2578-4.4375-.03517-4.4375-.07812-2.73438-1.0664-1.70313-1.81641v-51.44531h57.69922v50.5703l-3.29687 2.69141 3.29687 3.32422 4.4375-.46094v6.02344l-4.4375 1.94922-1.375 2.47656 1.375 1.02735 4.4375 2.76953v2.82812l-4.4375.01954-3.89062 2.23437-.55078.58203-2.32813 3.85547 2.32813 3.6289 1.2578.8086-1.2578 3.3086-.46485 1.1289.46485.27734 4.4414 1.66016 4.4375-1.82813 4.4375.21094 4.4375 2.14844 4.4414-2.4414.01954-.02735-.01953-.01563-4.4414-2.92187-4.4375 2.66797L345.21093 396l-1.48438-2.14453-1.11719-2.29297 1.1172-2.07422 1.26952-2.36328-1.26953-2.2539v-2.82813l3.10938-3.79688-3.10938-4.42578v-6.02344l1.8789-2.86328-1.8789-2.40625-4.4375-.28515v-50.57031h8.3125l.5625.5664.6289-.5664h3.8086v26.54296l-.17187.08594.17187.10156v51.32422l-1.80469 1.83594 1.8047 3.1914 1.96484-3.1914-1.96485-1.83594v-51.32422l.20313-.10156-.20313-.08594v-26.54296h8.8789v101.02734l-1.08593 1.05469-3.35156 1.41796-2.78516 3.01954.95313 4.4375-.69922 4.4414 2.53125 4.20703 4.34765-4.20703.08985-.02344 3.78906-4.41796-.96875-4.4375-1.76172-4.4375-1.0586-1.0547V311.67189h8.875v77.79687l-2.09765 2.09375-.5625 4.4375 2.66016 1.63281v38.52735l-3.72266 4.22265-.71484.63672-4.4375 1.08594-4.4375 1.39844-3.44531 1.3164-.9961 3.70313-.52344.73828-3.91406.30469-4.14062 4.1328 2.1914 4.4375 1.94922 3.7422.25781.6953 1.03907 4.44142 3.14062 3.34375 4.4414-.08204 4.4375.15235 4.4375.23047 4.4375.3164 4.4375-.48437 4.44142-.01563 2.89453-3.46094 1.16406-4.4414.1211-4.4375.2578-.26563 4.30079-4.17187-2.25-4.4375-.21094-4.4414-1.83985-1.20704-4.4375-2-4.4414-1.16015-.24219-.07032-4.19531-4.22265V397.6328l4.4375.40235L376.78125 396l-1.98828-3.375-.59375-1.0625-3.84375-2.09375v-77.79688h22.1914v87.94532l-1.68359.82031-2.7539.83984-4.4375 1.9297-4.4375 1.01562-.9336.65234-1.36328 4.4414 2.29688 2.37891 4.4375 1.48828.60937.57032-.60938 1.27343-4.4375-.16796-4.4414.28515-3.98438 3.04688 3.98438 3.43359 4.4414-1.25 4.4375 1.78516.1875.46875-.1875 1.38671-.83203 3.0547.53907 4.4375-2.53125 4.4375 2.82421 2.64843 4.4375-2.26172 4.4375 2.30469 4.4375.6289 4.44141.32813 4.21875-3.64844.21875-.51953 4.4375-3.02344.85938-.89453 3.23046-4.4375.34766-.41015 4.4414-3.625 3.47657 4.03515.96094.89063 3.98828 3.54687.44922.49219 1.89844 3.94531 2.53906 3.89063v.96484l-4.4375.91016-3.1836 3.10937-1.2539 1.64453-1.16406-1.64453-3.27344-3.35547-3.25781 3.35547-.8711 4.4414-.3125 2.10548-1.0664 2.33203-2.52735 4.4375-.84375 2.51172-.86328 1.92578.86328.85547.92188-.85547 3.51562-1.80469 4.4414-.19531 4.4375.40625 2.94141-2.84375 1.4961-1.52344 3.01953-2.91406-.05469-4.4375 1.47266-.9961 3.39453-3.4453-3.39453-4.01954v-.96484l2.4414-3.89063-.01953-4.4375-2.42187-2.46484-1.3125-1.97266 1.3125-3.9961.41797-.4453-.41797-.41407-4.4375-2.57812-4.4375-.17578-4.4375 2.80469-4.4414-2.56641-4.4375-.63281-4.4375.2578-4.4375.4297-3.08985 2.875-1.35156.60937-4.4375.33985-1.31641-.94922-.32813-4.4375 1.59766-4.4375.04688-.54297.71875-3.89453.82421-4.44141-.46093-4.4375-1.08204-.82031v-87.94531h75.44922v168.65625h-91.85937l-1.34375-1.52735-1.34766 1.52735h-229.4414"/></g><path fill="#50fcfc" fill-rule="evenodd" d="M152.875 438.14453l-1.65625-2.19922 1.65625-1.64844 2.3125-2.78906 2.1289-2.23047 1.01173-2.20703.91015-4.4414 2.51563-3.03516 4.4375-.42578 2.05859-.97656 1.0039-4.4375 1.375-.94532 2.84376-3.49218 1.59375-1.5625 4.4414-1.82032 1.13672-1.05859 3.30078-2.8711 3.01953-1.5664L188.28906 396l.09375-.08203.75781-4.35547 3.6797-3.90625.29296-.53125 2.9414-4.4414 1.20704-1.2422 4.4375-2.79687.27344-.39844 2.28125-4.4375 1.8828-1.66406 4.4375-2.07031v1.41015l-3.25 2.32422-1.1875.3047-3.71093 4.1328-.72656 1.0586-3.86719 3.3789-.57031.77344-3.2461 3.66797-1.1953 2.17188-2.13282 2.26562L192.28125 396l-3.14453 4.4375-.7539 4.3086-.33595.1289-4.10156.60547-3.96094 3.83594-.47656.99609-4.32422 3.4414 1.83594 4.4375-1.95312 1.44141-4.4375 2.76563-4.4375.04297-.63672.1875-3.80078 1.24609-1.60938 3.19531-1.40625 4.4375-1.42187 1.8711-2.14844 2.5664 2.14844 1.3164 2.47265-1.3164 1.96485-1.5039 4.36718-2.9336.07032-.08594 4.4375-3.88671 4.4375.39062 4.4414-.8125.11719-.04297 4.32031-1.20703 4.4375-.60547 2.44531-2.6289 1.9922-3.26172 1.24218-1.17578 3.19922-1.37891 2.99219-3.0586 1.17578-4.4375-4.16797-4.41015-.08594-.03125.01172-4.4375.07422-.16406.16797.16406 4.26953 4.28516 4.4375-.71875 4.4375-2.19141.66406-1.375L212.91016 396l-2.33594-3.47266-4.4375-.42968-1.82031-.53516 1.8203-3.44922 4.4375 1.73438 4.44142 1.09765 4.4375.57813.12109.03906 4.3164 2.01172 4.4375.26562 2.82813-2.27734 1.34766-4.4375-4.17578-4.04688-4.4375.60938-4.4375-.27344-2.3125-.73047 2.3125-2.02343 2.80078-2.41407-2.3125-4.4375-.48828-.3828-4.4375-1.11329-4.44141-.82813v-1.41015l4.4414.45312 4.4375.40625 3.67579 2.875.76172 1.4375 3.04296 3 1.39453 1.09375 2.87891 3.34375 1.5586 1.42188v7.65234l-4.4375 3.41797-4.4375.21875-4.4375-1.10937-4.4375-1.1797-.7422 2.89454-.70312 4.4375-.3086 4.4375 1.75392 1.78516 4.4375-.95704 2.97656-.82812 1.46094-.76563v3.2461l-4.4375 1.44922-.90625.51172.90625.57812 4.4375 3.34766 4.4375-2.2461 1.53515-1.67968-1.53516-.96875-4.4375-.9922v-3.24608l4.4375-.5586 4.4375-.95312 1.51172-2.16016L236.5 396l-3.73438-4.24219v-7.65234l3.77735 3.01953-3.60547 4.4375 4.26953 3.82031 4.4375-1.15234v4.45312l-4.4375 1.14063-.3711.61328.3711.76563 4.4375.2578.96094-1.02343-.96094-1.7539v-4.45313L243.53125 396l1.59375 4.4375-3.48047 3.69922-2.10937.73828-2.32813 2.85547-.95312 1.58594.95312.9375 2.88281 3.5-1.78125 4.4375-1.10156.98828-1.40625-.98828-3.03516-2.04688-4.4375.29297-4.4375-.03125-4.04296-2.65234-.39453-.31641-4.4375-2.48828-2.25782-1.63281-2.1836-2.15235-4.4375-1.08203-2.24608 3.23438-2.19141 3.38671-.23047 1.05079-4.20703 4.30078-.3164.13672-4.125 3.91015-.32032.52735-4.11719 4.42578-.07031.01562-4.07422 4.4375-.29297.30078-.34765-.30078-4.08985-1.04687-4.4414.40625-4.4375-.11719-.85547.75781-3.58203 3.1211-1.96485 1.3164-2.47265 2.28906-4.4375 1.21485-4.44141-1.30469"/><path fill="#00e8fc" fill-rule="evenodd" d="M157.3164 437.26172l-2.14843-1.3164 2.14844-2.56641 1.42187-1.8711 1.40625-4.4375 1.60938-3.19531 3.80078-1.2461.63672-.1875 4.4375-.04296 4.4375-2.76563 1.95312-1.4414-1.83594-4.4375 4.32422-3.44141.47656-.9961 3.96094-3.83593 4.10156-.60547.33594-.1289.7539-4.3086L192.28126 396l-1.59375-4.4375 2.13281-2.26563 1.19531-2.17187 3.2461-3.66797.57031-.77344 3.86719-3.3789.72656-1.0586 3.71094-4.1328 1.1875-.3047 3.25-2.32421v2.33984l-4.4375 1.1289-2.95313 3.29297-1.48437 2.15625-2.60938 2.28125-1.82812 2.46485-1.75 1.97656-1.42969 4.4375L196.94141 396l-4.1211 1.74219-2.16406 2.69531 1.10938 4.4375-3.38282 2.2539-4.4375 1.62891-.57422.5586-2.46093 4.4375 2.33203 4.4375.70312 1.96875 4.4375 2.125 2.92188-4.09375 1.51562-1.60547 4.4414-1.83985.96876-.99218 2.05078-4.4375-3.01953-3.19532-3.41797-1.24609 1.53906-4.4375 1.8789-4.15234 4.22267 4.15234.21484.21484 4.4375 1.45313 2.28516-1.66797 2.15234-4.28516.07031-.15234-.07031-.10156-4.4375-2.35156-4.4375.15234-2.3125-2.13672 2.3125-1.86328 1.86719-2.57422 2.5703-1.01172 4.38282-3.42969.05469-.05859 4.4414-1.98828v3.23828l-3.32812 3.25 3.32813 2.36719 4.4375.03906 4.4375-.14063 4.14062 2.17188.29688.05469.0664-.05469 1.8789-4.4375-1.9453-1.88281-4.4375.98828-4.4375-1.13672-4.4375-1.21875v-3.23828l2.625-2.39063-2.625-2.59375-4.44141-1.82812v-2.33985l4.4414.82813 4.4375 1.11328.48829.38281 2.3125 4.4375-2.80078 2.41407-2.3125 2.02343 2.3125.73047 4.4375.27344 4.4375-.60938 4.17578 4.04688-1.34766 4.4375-2.82813 2.27734-4.4375-.26562-4.3164-2.01172-.1211-.03906-4.4375-.57813-4.4414-1.09765-4.4375-1.73438-1.82031 3.44922 1.8203.53516 4.4375.42968L212.91017 396l-1.67188 4.4375-.66406 1.375-4.4375 2.1914-4.4375.71876-4.26953-4.28516-.16797-.16406-.07422.16406-.01172 4.4375.08594.03125 4.16797 4.41016-1.17578 4.4375-2.9922 3.05859-3.19921 1.3789-1.24219 1.17579-1.99219 3.26172-2.4453 2.6289-4.4375.60547-4.32032 1.20703-.11719.04297-4.4414.8125-4.4375-.39062-4.4375 3.88671-.07032.08594-4.36718 2.9336-1.96485 1.5039-2.47265 1.3164"/><path fill="#50fcfc" fill-rule="evenodd" d="M175.0664 376.19922l-2.375-2.39063 2.375-2.26171 1.76954-2.17579 2.67187-2.66796v2.66015l-.00781.00781-.2461 4.4375.25391.05079.0586-.05079-.05078-4.4375-.00782-.0078v-2.66017l3.0586 2.66797.1875 4.4375-3.2461 2.80079-4.4414-.41016m0 6.55469L175 382.68359l.0664-.0664.0625.0664-.0625.07032"/><path fill="#00e8fc" fill-rule="evenodd" d="M179.50781 373.85938l-.2539-.05079.24609-4.4375.00781-.0078.00781.0078.05079 4.4375-.0586.05079"/><path fill="#00d4fc" fill-rule="evenodd" d="M183.24219 418.1914l-2.33203-4.4375 2.46093-4.4375.57422-.55859 4.4375-1.6289 3.38281-2.25391-1.10937-4.4375 2.16406-2.69531v1.89844l-.64062.79687.64062 1.67969.76172-1.67969-.76172-.79688v-1.89843L196.94141 396l-2.85938-4.4375 1.42969-4.4375 1.75-1.97656 1.82812-2.46485 2.60938-2.28125 1.48437-2.15625 2.95313-3.29296 4.4375-1.12891v1.54297l-4.4375.42969-2.19922 2.44921-2.23828 3.25782-1.35156 1.17968-3.08594 4.16016-.25.28125.25 1 1.42578-1 3.01172-1.08984 4.4375-1.0547 2.9375-2.29687 1.5-1.58593 3.82422-2.85157-3.82422-2.8789v-1.54297l4.4414 1.82812 2.625 2.59375-2.625 2.39063-4.4414 1.98828-.05469.0586-4.38281 3.42968-2.57031 1.01172-1.8672 2.57422-2.3125 1.86328 2.3125 2.13672 4.4375-.15235v1.44922L203.54689 396l2.58984 3.78125L207.98438 396l-1.84766-1.0039v-1.44923l4.4375 2.35157.07031.10156-.07031.15234-2.15234 4.28516-2.28516 1.66797-4.4375-1.45313-.21484-.21484-4.22266-4.15234-1.8789 4.15234-1.53907 4.4375 3.41797 1.2461v1.21484l-4.4414.70703-3.81641 1.27344-.6211.20703-4.4375 3.71094-.30078.51953.30078.51562 2.9336 3.92188 1.5039 1.23046.8789-1.23046 3.5586-3.76954 1.64844-.66796 2.79297-1.07422 1.8711-3.36328-1.8711-1.98047v-1.21485l3.01953 3.19532-2.05078 4.4375-.96875.99218-4.4414 1.83985-1.51563 1.60547-2.92188 4.09375-4.4375-2.125-.70312-1.96875"/><path fill="#00c4fc" fill-rule="evenodd" d="M183.94531 414.26953l-.30078-.51562.30078-.51954 4.4375-3.71093.6211-.20703 3.8164-1.27344 4.4414-.70703v1.21484l-2.0703.76563 2.0703 1.29687.72267-1.29687-.72266-.76563v-1.21484l1.8711 1.98047-1.8711 3.36328-2.79297 1.07422-1.64844.66796-3.5586 3.76954-.8789 1.23046-1.5039-1.23046-2.9336-3.92188m8.875-12.15234l-.64062-1.67969.64062-.79688.76172.79688-.76172 1.67969"/><path fill="#00b8fc" fill-rule="evenodd" d="M197.26172 410.61328l-2.07031-1.29687 2.0703-.76563.72267.76563-.72266 1.29687"/><path fill="#00c4fc" fill-rule="evenodd" d="M197.26172 388.125l-.25-1 .25-.28125 3.08594-4.16016 1.35156-1.17968 2.23828-3.25782 2.19922-2.44921v.84375l-1.4414 1.60546-2.9961 4.35547-.09766.08203.09766.23829 4.4375.92968 1.49219-1.16797 2.9453-3.11328 1.77735-1.32422-1.77734-1.33593-4.4375-.26954v-.84375l4.4375-.42968 3.82422 2.8789-3.82422 2.85157-1.5 1.58593-2.9375 2.29688-4.4375 1.05469-3.01172 1.08984-1.42578 1"/><path fill="#00b8fc" fill-rule="evenodd" d="M201.69922 382.92188l-.09766-.23829.09766-.08203 2.9961-4.35547 1.4414-1.60546v.83984l-.6875.76562.53906 4.4375.14844.03907.04687-.03907 3.82422-4.4375-3.8711-.76562v-.83985l4.4375.26954 1.77735 1.33593-1.77734 1.32422-2.94531 3.11328-1.4922 1.16797-4.4375-.92969"/><path fill="#00c4fc" fill-rule="evenodd" d="M206.13672 399.78125L203.54688 396l2.58984-1.0039L207.98438 396l-1.84766 3.78125"/><path fill="#00a8fc" fill-rule="evenodd" d="M205.98828 382.6836l-.53906-4.4375.6875-.76563 3.8711.76562-3.82423 4.4375-.04687.03907-.14844-.03907"/><path fill="#00d4fc" fill-rule="evenodd" d="M215.01563 389.49219l-3.32813-2.36719 3.32813-3.25v1.98828l-1.29297 1.26172 1.29297.91797 4.4375-.5 1.08593-.41797-1.08594-.35547-4.4375-.90625V383.875l4.4375 1.21875 4.4375 1.13672 4.4375-.98828 1.94532 1.88281-1.8789 4.4375-.06642.05469-.29687-.05469-4.14063-2.17188-4.4375.14063-4.4375-.03906"/><path fill="#fff" fill-opacity="0" fill-rule="evenodd" d="M213.57031 400.4375l-.3086 4.4375 1.75392 1.78516 4.4375-.95704 2.97656-.82812 1.46094-.76563 4.4375-.55859 4.4375-.95312 1.51171-2.16016L236.5 396l-3.73438-4.24219-4.4375 3.41797-4.4375.21875-4.4375-1.10937-4.4375-1.1797L214.27345 396l-.70313 4.4375"/><path fill="#00c4fc" fill-rule="evenodd" d="M215.01563 388.04297l-1.29297-.91797 1.29297-1.26172 4.4375.90625 1.08593.35547-1.08594.41797-4.4375.5"/><path fill="#00e8fc" fill-rule="evenodd" d="M219.45313 409.89453l-.90625-.57812.90625-.51172 4.4375-1.44922 4.4375.99219 1.53515.96875-1.53516 1.67968-4.4375 2.2461-4.4375-3.34766m17.75391-8.6914l-.3711-.76563.3711-.61328 4.4375-1.14063.96094 1.75391-.96094 1.02344-4.4375-.25781"/><path fill="#50fcfc" fill-rule="evenodd" d="M241.64453 374.48438l-1.98828-.67579 1.98828-.39453 3.60547-4.04297.83203-1.52734 4.4375-1.65234 4.4375-.64454 2.83203-.61328 1.60938-1.17578 1.28125 1.17578 3.15625.83985 3.74219 3.59765-3.7422 3.64454-.5.79296.5.73829 4.4375 1.46484v5.57812l-.5 1.09375.5.47266.42188-.47266-.42187-1.09375v-5.57812l1.51172-2.20313-.5625-4.4375 3.48828-3.82812 2.39062-.60938 2.05078-1.11328 4.4375-.70312v2.96484l-4.4375.28906-4.4414 2.23047-.69922.76953.16797 4.4375.05078 4.4375-1.52735 4.4375-2.42968 2.71875-2.88281-2.71875 1.70703-4.4375-3.26172-1.84375-1.7461-2.59375 1.7461-2.77734 1.70703-1.66016-1.70703-1.64062-4.4375-.76172-4.4414.58984-4.4375.5586-1.92579 1.2539-2.51172 4.26954-.15234.16796.15234.10157 4.4375 1.96484 3.8086 2.3711-3.8086 1.99609-2.32422 2.4414 2.32422 2 3.64453 2.44141.79297.8711 4.4414 1.10937 2.48048-1.98047 1.95703-2.40234 2.22265 2.40234 2.21485 2.8789 4.4375-.46093 3.97265-2.41797-1.84765-4.4414-1.66016-4.4375 3.97656-.83985 4.4375-.95703 4.4375-.28906 4.12891-2.35157.3086-.46875 4.4375-1.49609 1.32421-2.47266-1.32422-1.27343-4.4375-.16016-4.4375-.27344-4.4375-1.58203v-2.96484l1.70313 1.8164L286.02734 366l4.4375.07813 4.4375.03515 3.37891 3.25781-1.40234 4.4375-1.97657 2.98047-4.4375-.07812-4.4375 1.3789-.8789.15625-3.5586 1.47657-4.4375 2.40625-.1914.55468.1914.46485 2.3711 3.97656-2.3711 2.48047-4.4414 1.15234-2.35156.80469-2.08594 2.08203-4.4375.08203-3.2461-2.16406-1.1914-.42969-4.4414-.42578-3.25782-3.58203-1.17969-.79297-4.2461-3.64844 4.1172-4.4375-4.3086-1.21093-4.4375-2.55079"/><path fill="#00e8fc" fill-rule="evenodd" d="M246.08203 373.91016l-.15234-.10157.15234-.16796 2.51172-4.26954 1.92578-1.2539 4.4375-.5586v12.73438l-3.51953 2.39062 3.51953 2.51563 1.96484-2.51563-1.96484-2.39062v-12.73438l4.4414-.58984v5l-4.29296 1.83984 4.29297.57813v1.96094l-4.03125 1.89843 3.41797 4.4375.61328 1.60157 2.02734-1.60157.71485-4.4375-2.7422-1.89843v-1.96094l.60938-.57813-.60937-1.83984v-5l4.4375.76172 1.70703 1.64062-1.70703 1.66016-1.7461 2.77734 1.7461 2.59375 3.26172 1.84375-1.70704 4.4375 2.88282 2.71875 2.42969-2.71875 1.52734-4.4375-.05078-4.4375-.16797-4.4375.69922-.76953v17.0625l-1.1836 1.46094 1.1836.39453.65234-.39453-.65234-1.46094v-17.0625l4.4414-2.23047v2.89454l-.18359.10546.1836 2.25 4.4375-1.95312.3164-.29688-.3164-.09375-4.4375-.01171v-2.89454l4.4375-.28906 4.4375 1.58203 4.4375.27344 4.4375.16016 1.32421 1.27343-1.32422 2.47266-4.4375 1.4961-.30859.46874-4.1289 2.35157-4.4375.28906-4.4375.95703-3.97657.83984 1.66016 4.4375 1.84765 4.44141-3.97265 2.41797-4.4375.46094-2.21485-2.87891-2.22265-2.40234-1.95703 2.40234-2.48047 1.98047-4.4414-1.10938-.79298-.87109-3.64453-2.4414-2.32422-2 2.32422-2.44141 3.8086-1.9961-3.8086-2.37109-4.4375-1.96484"/><path fill="#00d4fc" fill-rule="evenodd" d="M254.95703 385.19922l-3.51953-2.51563 3.51953-2.39062v2.26562l-.1836.125.1836.13282.10547-.13282-.10547-.125v-2.26562l1.96484 2.39062-1.96484 2.51563"/><path fill="#00c4fc" fill-rule="evenodd" d="M254.95703 382.8164l-.1836-.1328.1836-.125.10547.125-.10547.1328"/><path fill="#00d4fc" fill-rule="evenodd" d="M259.39844 374.38672l-4.29297-.57813 4.29297-1.83984.60937 1.83984-.60937.57813"/><path fill="#50fcfc" fill-rule="evenodd" d="M259.39844 376.34766l-4.03125 1.89843 3.41797 4.4375.61328 1.60157 2.02734-1.60157.71485-4.4375-2.7422-1.89843v1.17968l1.03907.71875-1.03906 2.5547-1.52735-2.5547 1.52735-.71875v-1.17968"/><path fill="#fff" fill-opacity="0" fill-rule="evenodd" d="M259.39844 377.52734l-1.52735.71875 1.52735 2.5547 1.03906-2.5547-1.03906-.71875m8.875 4.0625l-.5 1.09375.5.47266.42187-.47266-.42187-1.09375"/><path fill="#00d4fc" fill-rule="evenodd" d="M272.71094 387.51953l-1.1836-.39453 1.1836-1.46094.65234 1.46094-.65234.39453m4.4414-15.89844l-.18359-2.25.1836-.10546 4.4375.01171.3164.09375-.3164.29688-4.4375 1.95312"/><path fill="#50fcfc" fill-rule="evenodd" d="M334.84766 395.1914l-2.32813-3.6289 2.32813-3.85547.55078-.58203 3.89062-2.23438 4.4375-.01953 1.26953 2.25391-1.26953 2.36328-1.11719 2.07422 1.1172 2.29297L345.21093 396l2.95312 4.16797 4.4375-2.66797 4.4414 2.92188.01954.01562-.01953.02734-4.4414 2.44141-4.4375-2.14844-4.4375-.21094-4.4375 1.82813-4.44141-1.66016-.46485-.27734.46485-1.1289 1.2578-3.3086-1.2578-.8086m4.4414-26.93359l-3.29687-3.32422 3.29687-2.6914v2.63281l-.07031.0586.07031.0664.17188-.0664-.17188-.0586v-2.63281l4.4375.28515 1.8789 2.40625-1.8789 2.86329-4.4375.46093m0 11.01563l-1.375-1.02735 1.375-2.47656 4.4375-1.94922v2.91406L342 378.2461l1.72656 1.29688 1.0625-1.29688-1.0625-1.51171v-2.91407l3.10938 4.42578-3.10938 3.79688-4.4375-2.76953"/><path fill="#00e8fc" fill-rule="evenodd" d="M339.28906 365l-.07031-.0664.07031-.0586.17188.0586-.17188.0664m4.4375 14.54297L342 378.24609l1.72656-1.51171 1.0625 1.51171-1.0625 1.29688"/><path fill="#50fcfc" fill-rule="evenodd" d="M346.21484 458.13672l-2.1914-4.4375 4.14062-4.13281 3.91406-.3047.52344-.73827.9961-3.70313 3.4453-1.3164 4.4375-1.39844 4.4375-1.08594.71485-.63672 3.72266-4.22265v1.40234l-2.48438 2.82031-1.95312 1.74219-4.4375 2.6211-.16797.07421-4.26953 3.6836-.58203.7578-3.85938 3.22267-4.4375-.39454-1.60937 1.60938 1.60937 2.28906 1.67969 2.14844 1.99219 4.4375.76562 1.33984 4.4414 1.8125 3.37892 1.28906 1.05859.34766 4.4375 1.0039 4.4375.5 4.4375-.67577 3.67969-1.17579.76171-.1914 2.86329-4.25.39843-4.4375 1.17579-1.21094 3.32421-3.22656-3.32421-3.4961-1.19141-.9414-1.64063-4.4414-1.60546-.98829-4.44141-2.98047-1.63672-.46875-2.80078-2.82031v-1.40234l4.19531 4.22265.24219.07031 4.4414 1.16016 4.4375 2 1.83985 1.20703.21094 4.4414 2.25 4.4375-4.30079 4.17188-.2578.26563-.1211 4.4375-1.16406 4.4414-2.89454 3.46094-4.4414.01563-4.4375.48437-4.4375-.3164-4.4375-.23047-4.4375-.15235-4.4414.08204-3.14063-3.34375-1.03906-4.44141-.25782-.69531-1.94922-3.7422"/><path fill="#00e8fc" fill-rule="evenodd" d="M348.16406 455.98828l-1.60937-2.28906 1.60937-1.60938 4.4375.39454 3.85938-3.22266.58203-.75781 4.26953-3.6836.16797-.07422 4.4375-2.62109 1.95312-1.74219 2.48438-2.82031v2.33984l-.42188.48047-4.01562 3.58203-1.42578.85547-3.01172 3-1.51563 1.4414.23829 4.4375-3.16016 3.69532-.65235.74219.65235.58203 3.08984 3.85547 1.34766.79687 4.4375.69532 4.4375-.21094 1.47265-1.28125 2.96485-2.22266 2.09375 2.22266 2.34765 1.28515.86329-1.28515.87109-4.4375 2.70313-2.78906 1.69921-1.64844-1.69921-1.78516-3.34375-2.65234-1.09375-1.82422-.57032-2.61719-3.8711-3.30469-3.96093-1.1328-.47656-.48048v-2.33984l2.80078 2.82031 1.63672.46875 4.4414 2.98047 1.60547.98828 1.64063 4.4414 1.1914.94142 3.32422 3.49609-3.32421 3.22656-1.17579 1.21094-.39843 4.4375-2.86329 4.25-.76171.1914-3.6797 1.17579-4.4375.67578-4.4375-.5-4.4375-1.0039-1.05858-.34767-3.37891-1.28906-4.4414-1.8125-.76563-1.33984-1.99219-4.4375-1.67969-2.14844"/><g clip-path="url(#c)"><path fill="#50fcfc" fill-rule="evenodd" d="M348.79297 311.67188h-1.1914l.5625.5664.6289-.5664"/></g><path fill="#50fcfc" fill-rule="evenodd" d="M352.60156 394.7539l-1.80469-3.1914 1.8047-1.83594 1.96484 1.83594-1.96485 3.1914m0-56.35156l-.17187-.10156.17187-.08594.20313.08594-.20313.10156m2.60938 84.22657l-.95313-4.4375 2.78516-3.01954v2.80079l-.20313.21875.20313.53906.85937 3.89844 3.57813 3.10156 2.66015-3.10156-2.66015-4.3711-1.39453-.0664-3.04297-.21875v-2.80079l3.35156-1.41796 1.08594-1.0547 1.0586 1.0547 1.76171 4.4375.96875 4.4375-3.78906 4.41796-.08985.02344-4.34765 4.20703-2.53125-4.20703.69922-4.4414"/><path fill="#00d4fc" fill-rule="evenodd" d="M357.04297 458.71875l-.65235-.58203.65235-.74219 3.16015-3.69531-.23828-4.4375 1.51563-1.4414 3.01172-3 1.42578-.85548 4.01562-3.58203.42188-.48047.47656.48047 3.96094 1.13281v.66407l-4.4375.48437-2.59375 2.15625-1.8086 4.4414 4.40235 4.41798 1.57422-4.41797 2.86328-1.84375v.65234l-1.84766 1.1914 1.84766 3.01563 3.46875-3.01562-3.46875-1.1914v-.65235l3.09375-2.59766-3.09375-2.64062v-.66406l3.8711 3.30468.5703 2.61719v3.32031l-3.86718 2.9414 3.05469 4.4375.8125.8672.20703-.8672 4.23046-4.36718.07032-.07031-.07031-.07813-4.4375-2.86328v-3.32031l1.09375 1.82422 3.34375 2.65234 1.69921 1.78516-1.69921 1.64844-2.70313 2.78906-.8711 4.4375-.86327 1.28515-2.34766-1.28515-2.09375-2.22266-2.96485 2.22266-1.47265 1.28125-4.4375.21094-4.4375-.69532-1.34766-.79687-3.08984-3.85547"/><path fill="#00e8fc" fill-rule="evenodd" d="M357.04297 418.73047l-.20313-.53906.20313-.21875 3.04297.21875 1.39453.0664v3.09766l-1.04297 1.27344 1.04297.90625.77344-.90625-.77344-1.27344v-3.09766l2.66015 4.3711-2.66015 3.10156-3.57813-3.10156-.85937-3.89844"/><path fill="#00d4fc" fill-rule="evenodd" d="M361.48047 423.53516l-1.04297-.90625 1.04297-1.27344.77344 1.27344-.77344.90625"/><path fill="#00c4fc" fill-rule="evenodd" d="M370.35547 453.67969l-4.40235-4.41797 1.8086-4.4414 2.59375-2.15626 4.4375-.48437v.66406l-4.09375 1.97656-.34375 1.38281-1.5586 3.0586 1.5586 1.5625.5586-1.5625 3.8789-2.4961 2.3164-1.9453-2.3164-1.97657v-.66406l3.09375 2.64062-3.09375 2.59766-2.86328 1.84375-1.57422 4.41797"/><path fill="#50fcfc" fill-rule="evenodd" d="M370.35547 397.63281L367.6953 396l.5625-4.4375 2.09766-2.09375 3.84375 2.09375.59375 1.0625 1.98828 3.375-1.98828 2.03516-4.4375-.40235"/><path fill="#00b8fc" fill-rule="evenodd" d="M370.35547 450.82422l-1.5586-1.5625 1.5586-3.0586.34375-1.3828 4.09375-1.97657v.66406l-2.71875 1.3125 2.71875 1.29297 1.53906-1.29297-1.53906-1.3125v-.66406l2.3164 1.97656-2.3164 1.94531-3.8789 2.4961-.5586 1.5625"/><path fill="#50fcfc" fill-rule="evenodd" d="M374.79297 421.625l-3.98438-3.4336 3.98438-3.04687v2.2461l-1.04688.80078 1.04688.90234 2.16797-.90234-2.16797-.80079v-2.24609l4.4414-.28515 4.4375.16796.60938-1.27343-.60938-.57032-4.4375-1.48828-2.29687-2.3789 1.36328-4.44141.9336-.65234 4.4375-1.01563 4.4375-1.92969v3.5625l-.0625.03516-4.375 2.54688-1.79688 1.89453 1.79688 1.3164 3.33203 3.1211 1.10546 2.7539v3.17578l-1.39843 2.94532.6211 4.4414.26171 4.4375.51563.52344 4.4375 3.47656 1.67187.4375 2.76563 1.22656 4.4414.69532 2.21875-1.92188 1.9375-4.4375.28125-.3164 4.4375-2.4922 1.38281-1.6289 3.0547-3.54687 1.03515-.89453-1.03516-.64844-4.4375-1.59766-4.4375.64844-4.4375 1.10547-.53125.49219-3.91015 1.7578-4.4375.69532-3.41016-2.45312-1.02735-2.94532v-3.17578l1.26563-2.7539-1.26563-3.64454-.64843-.79296.64844-3.98829.0664-.45312-.0664-.03516v-3.5625l2.7539-.83984 1.6836-.82031 1.08203.82031.46093 4.4375-.82421 4.4414-.71875 3.89454-.04688.54297-1.59766 4.4375.32813 4.4375 1.3164.94921 4.4375-.33984 1.35157-.60937 3.08984-2.875 4.4375-.4297 4.4375-.2578 4.4375.6328 4.4414 2.56642 4.4375-2.8047v1.92579l-1.80859 1.24219 1.8086 1.93359 2.83594 2.50781 1.60156 1.5 1.0039-1.5.16016-4.4414-1.16406-.7422-4.4375-.5v-1.92577l4.4375.17578 4.4375 2.57812.41797.41407-.41797.4453-1.3125 3.9961 1.3125 1.97266 2.42187 2.46484.01953 4.4375-2.4414 3.89063-2.53906-3.89063L428.05469 432l-.44922-.49219-3.98828-3.54687-.96094-.89063-3.47656-4.03515-4.4414 3.625-.34767.41015-3.23046 4.4375-.85938.89453-4.4375 3.02344-.21875.51953-4.21875 3.64844-4.4414-.32813-4.4375-.6289-4.4375-2.30469-4.4375 2.26172-2.82422-2.64844 2.53125-4.4375-.53907-4.4375.83204-3.05469.1875-1.38671-.1875-.46875-4.4375-1.78516-4.44141 1.25"/><path fill="#00a8fc" fill-rule="evenodd" d="M374.79297 446.11328l-2.71875-1.29297 2.71875-1.3125v.66406l-1.34375.64844 1.34375.64063.76172-.64063-.76172-.64844v-.66406l1.53906 1.3125-1.53906 1.29297"/><path fill="#00e8fc" fill-rule="evenodd" d="M374.79297 448.07031l-1.84766 1.1914 1.84766 3.01563 3.46875-3.01562-3.46875-1.1914v.65234l1.5664.53906-1.5664 1.35937-.83203-1.35937.83203-.53906v-.65235"/><path fill="#009800" fill-rule="evenodd" d="M374.79297 445.46094l-1.34375-.64063 1.34375-.64844.76172.64844-.76172.64063"/><path fill="#00e8fc" fill-rule="evenodd" d="M374.79297 419.09375l-1.04688-.90234 1.04688-.80079 2.16797.80079-2.16797.90234"/><path fill="#50fcfc" fill-rule="evenodd" d="M374.79297 448.72266l-.83203.53906.83203 1.35937 1.5664-1.35937-1.5664-.53906v.39453l.42187.14453-.42187.36328-.22266-.36328.22266-.14453v-.39453"/><path fill="#fff" fill-opacity="0" fill-rule="evenodd" d="M374.79297 449.11719l-.22266.14453.22266.36328.42187-.36328-.42187-.14453"/><g clip-path="url(#d)"><path fill="#50fcfc" fill-rule="evenodd" d="M373.44531 480.32813l1.34766-1.52735 1.34375 1.52735h-2.6914"/></g><path fill="#00c4fc" fill-rule="evenodd" d="M378.42188 458.13672l-3.0547-4.4375 3.8672-2.9414 4.4375 2.86327.0703.07813-.0703.07031-4.23047 4.36719-.20704.86719-.8125-.8672"/><path fill="#00e8fc" fill-rule="evenodd" d="M383.67188 410.63281l-1.79688-1.3164 1.79688-1.89454 4.375-2.54687.0625-.03516.0664.03516-.0664.45313-.64844 3.98828.64844.79296 1.26562 3.64454-1.26563 2.7539-1.10546-2.7539-3.33204-3.1211m3.66016 16.4375l-.6211-4.4414 1.39844-2.94532 1.02735 2.94532 3.41015 2.45312 4.4375-.69531 3.91016-1.75781.53125-.4922 4.4375-1.10546 4.4375-.64844v2.1914l-.24219.0547-4.1953 2.33203-4.4375-.71485-4.44142 2.0586-2.91406.76562-1.52344.79297-2.25 3.64453 2.25 1.94922 4.4375 1.39063 4.44141-.51172 1.53906-2.82813 2.89844-3.26953 1.61328-1.16797 2.82422-4.28515.13281-.15625-.1328-.0547v-2.1914l4.4375 1.59766 1.03515.64844-1.03516.89453-3.05469 3.54687-1.3828 1.6289-4.4375 2.4922-.28126.3164-1.9375 4.4375-2.21875 1.92188-4.4414-.69531-2.76563-1.22657-1.67188-.4375-4.4375-3.47656-.51562-.52344-.26172-4.4375"/><path fill="#00d4fc" fill-rule="evenodd" d="M392.54688 433.45703l-2.25-1.94922 2.25-3.64453 1.52343-.79297 2.91406-.76562 4.44141-2.0586v1.84766l-2.07031.97656-2.3711 1.69531-4.21875 2.7422 4.21875 1.64452 3.1172-1.64453 1.32421-1.95312 2.0664-2.48438-2.0664-.97656v-1.84766l4.4375.71485 4.19531-2.33203.2422-.0547.1328.0547-.1328.15625-2.82423 4.28515-1.61328 1.16797-2.89844 3.26953-1.53906 2.82813-4.4414.51172-4.4375-1.39063"/><path fill="#00c4fc" fill-rule="evenodd" d="M396.98438 433.15234l-4.21875-1.64453 4.21875-2.74219 2.37109-1.6953 2.07031-.97657 2.0664.97656-2.0664 2.48438-1.32422 1.95312-3.11719 1.64453"/><path fill="#50fcfc" fill-rule="evenodd" d="M410.30078 463.42969l-.86328-.85547.86328-1.92578.84375-2.51172 2.52735-4.4375 1.0664-2.33203.3125-2.10547.8711-4.4414 3.2578-3.35548v2.15235l-1.17187 1.20312-1.10156 4.4414.26563 4.4375 2.0078 3.23829 2.52344 1.19922 1.91407.44922.46484-.44922 3.97266-4.05078.40234-.38672-.40234-1.26953-1.13672 1.26953-3.30078 3.1211-1.77344-3.1211 1.57813-4.4375-3.06641-4.4414-1.17578-1.20313v-2.15235l3.27344 3.35547 1.16406 1.64453 1.2539-1.64453 3.1836-3.10937v2.20703l-.92188.90234.92188 2.29297 4.4375-2.10156.1914-.1914-.1914-.22266-4.4375-.6797v-2.20702l4.4375-.91016 3.39453 4.01953-3.39453 3.44531-1.47266.9961.05469 4.4375-3.01953 2.91406-1.4961 1.52344-2.9414 2.84375-4.4375-.40625-4.4414.19531-3.51563 1.80469-.92188.85547"/><path fill="#00e8fc" fill-rule="evenodd" d="M417.17188 453.69922l-.26563-4.4375 1.10156-4.4414 1.17188-1.20313 1.17578 1.20312 3.0664 4.4414-1.57812 4.4375 1.77344 3.1211 3.30078-3.1211 1.13672-1.26952.40234 1.26953-.40234.38672-3.97266 4.05078-.46484.44922-1.91406-.44922-2.52344-1.19922-2.00781-3.23828m6.4453-29.13672l-1.80859-1.9336 1.8086-1.24218 4.4375.5 1.16406.74219-.16016 4.4414-1.0039 1.5-1.60156-1.5-2.83594-2.50781m4.4375 22.55078l-.92188-2.29297.92188-.90234 4.4375.67969.1914.22265-.1914.1914-4.4375 2.10157"/><g clip-path="url(#e)"><path fill="#fff" fill-opacity="0" fill-rule="evenodd" d="M467.9961 480.32813H468V311.67188h-.0039H468v168.65625h-.0039"/></g><path fill="#fff" fill-opacity="0" fill-rule="evenodd" d="M221.00781 379.78906l4.38281 3.85938 6.58204-7.47656-4.38672-3.85938-6.57813 7.47656"/><path fill-rule="evenodd" d="M229.0039 376l.38282.33594-4.16016 4.72656-.58984-.51953 2.96484-3.3711-1.04297-.91796.3672-.41797.46483.32031.22266.1289.23438.08204.24609.02734.26953-.03906.30078-.1289.33985-.22657"/><path fill="#fff" fill-opacity="0" fill-rule="evenodd" d="M161.21875 444.33203l5.10547-2.83594-4.83594-8.70703-5.10547 2.83594 4.83594 8.70703"/><path fill-rule="evenodd" d="M160.33203 435.53125l.44531-.25 3.0547 5.5039-.6875.38282-2.1797-3.92578-1.21484.67578-.26953-.48828.45703-.32813.19531-.16797.15625-.1914.10938-.22266.05078-.26562-.01953-.32813-.09766-.39453"/><path fill="#fff" fill-opacity="0" fill-rule="evenodd" d="M438.8711 440.63672l1.60156-5.61719-9.57813-2.73437-1.60156 5.61718 9.57812 2.73438"/><path fill-rule="evenodd" d="M432.01563 435.03906l.14062-.48828 6.05078 1.72656-.21484.75782-4.3164-1.23438-.38282 1.33594-.53125-.15235.08984-.55468.01563-.25781-.02344-.2461-.07813-.23437-.15625-.22266-.24218-.21875-.35156-.21094"/><path fill="#fff" fill-opacity="0" fill-rule="evenodd" d="M271.78906 379.41016l.17188 5.83593 9.95703-.29687-.17188-5.83985-9.95703.30079"/><path fill-rule="evenodd" d="M280.01563 382.66406l.01562.50781-6.29297.1875-.02344-.78515 4.48829-.13672-.03907-1.38672.55469-.01562.08203.55859.0586.25.09765.22656.14844.19922.21484.16797.29688.13281.39844.09375"/><path fill="#fff" fill-opacity="0" fill-rule="evenodd" d="M209.86328 406.9414l5.1211-6.04296-7.77735-6.58985-5.1211 6.04688 7.77735 6.58594"/><path fill-rule="evenodd" d="M205.08594 399.64844l2.125-2.50781.5664.47656-1.70703 2.01562 1.23047 1.33985.01953-.27735.07422-.29297.14063-.30078.22265-.3164.23047-.22657.28516-.20312.32812-.16016.36328-.09765.39844-.02344.20703.02344.21485.05078.21484.07812.22266.10547.22265.14063.22656.17187.3125.3125.25391.35156.1836.37891.10156.40234.01953.41407-.02734.21484-.05079.21094-.07812.21094-.10156.21484-.13282.20703-.15625.20703-.33203.33594-.33594.23437-.33984.15235-.33984.07031h-.33985l-.33984-.0625-.33594-.11328-.32812-.16406.51172-.60157.22656.08985.22656.0586.21875.01952.21094-.01172.19922-.04687.1914-.08594.1797-.1211.16405-.16796.1875-.2539.125-.26173.06641-.26171.00781-.26563-.0586-.26563-.12108-.26171-.1875-.25782-.25782-.2539-.21094-.15235-.23828-.125-.2578-.08203-.26954-.03515-.27344.02343-.26953.08204-.26172.15625-.2461.23828-.1914.27734-.09765.28516-.03125.33203.0039.41015-.44922.53125-2.3164-2.5664"/><g clip-path="url(#f)"><path fill="none" stroke="#000" stroke-linecap="round" stroke-linejoin="round" stroke-miterlimit="10" stroke-width=".5" d="M146.38672 482.90625l-4.77344-5.15234"/></g><g clip-path="url(#g)"><path fill="none" stroke="#000" stroke-linecap="round" stroke-linejoin="round" stroke-miterlimit="10" stroke-width=".5" d="M159.75 482.86328l-4.86719-5.07031"/></g><g clip-path="url(#h)"><path fill="none" stroke="#000" stroke-linecap="round" stroke-linejoin="round" stroke-miterlimit="10" stroke-width=".5" d="M172.6875 483.17969l-4.11328-5.69922"/></g><g clip-path="url(#i)"><path fill="none" stroke="#000" stroke-linecap="round" stroke-linejoin="round" stroke-miterlimit="10" stroke-width=".5" d="M186.2461 482.98438l-4.60157-5.3086"/></g><g clip-path="url(#j)"><path fill="none" stroke="#000" stroke-linecap="round" stroke-linejoin="round" stroke-miterlimit="10" stroke-width=".5" d="M199.61719 482.9336l-4.71485-5.21094"/></g><g clip-path="url(#k)"><path fill="none" stroke="#000" stroke-linecap="round" stroke-linejoin="round" stroke-miterlimit="10" stroke-width=".5" d="M213.0625 482.8086l-4.97656-4.96094"/></g><g clip-path="url(#l)"><path fill="none" stroke="#000" stroke-linecap="round" stroke-linejoin="round" stroke-miterlimit="10" stroke-width=".5" d="M226.625 482.53906l-5.46875-4.41797"/></g><g clip-path="url(#m)"><path fill="none" stroke="#000" stroke-linecap="round" stroke-linejoin="round" stroke-miterlimit="10" stroke-width=".5" d="M240.41797 481.7539l-6.42188-2.85156"/></g><g clip-path="url(#n)"><path fill="none" stroke="#000" stroke-linecap="round" stroke-linejoin="round" stroke-miterlimit="10" stroke-width=".5" d="M253.625 481.97656l-6.20703-3.29687"/></g><g clip-path="url(#o)"><path fill="none" stroke="#000" stroke-linecap="round" stroke-linejoin="round" stroke-miterlimit="10" stroke-width=".5" d="M266.66016 482.41797l-5.64844-4.17578"/></g><g clip-path="url(#p)"><path fill="none" stroke="#000" stroke-linecap="round" stroke-linejoin="round" stroke-miterlimit="10" stroke-width=".5" d="M280.07813 482.26953l-5.85547-3.88281"/></g><g clip-path="url(#q)"><path fill="none" stroke="#000" stroke-linecap="round" stroke-linejoin="round" stroke-miterlimit="10" stroke-width=".5" d="M293.35938 482.32422l-5.78516-3.98828"/></g><g clip-path="url(#r)"><path fill="none" stroke="#000" stroke-linecap="round" stroke-linejoin="round" stroke-miterlimit="10" stroke-width=".5" d="M307.10547 481.46875l-6.64844-2.27734"/></g><g clip-path="url(#s)"><path fill="none" stroke="#000" stroke-linecap="round" stroke-linejoin="round" stroke-miterlimit="10" stroke-width=".5" d="M320.41406 481.48047l-6.63672-2.30078"/></g><g clip-path="url(#t)"><path fill="none" stroke="#000" stroke-linecap="round" stroke-linejoin="round" stroke-miterlimit="10" stroke-width=".5" d="M319.44922 481.14453l.1914 1.21094"/></g><g clip-path="url(#u)"><path fill="none" stroke="#000" stroke-linecap="round" stroke-linejoin="round" stroke-miterlimit="10" stroke-width=".5" d="M333.21484 482.44531l-5.60937-4.23047"/></g><g clip-path="url(#v)"><path fill="none" stroke="#000" stroke-linecap="round" stroke-linejoin="round" stroke-miterlimit="10" stroke-width=".5" d="M343.66797 483.84375l.11719-7.02734"/></g><g clip-path="url(#w)"><path fill="none" stroke="#000" stroke-linecap="round" stroke-linejoin="round" stroke-miterlimit="10" stroke-width=".5" d="M355.96094 483.67188l2.16406-6.6875"/></g><g clip-path="url(#x)"><path fill="none" stroke="#000" stroke-linecap="round" stroke-linejoin="round" stroke-miterlimit="10" stroke-width=".5" d="M367.10156 481.65625L373.60937 479"/></g><g clip-path="url(#y)"><path fill="none" stroke="#000" stroke-linecap="round" stroke-linejoin="round" stroke-miterlimit="10" stroke-width=".5" d="M380.45703 478.91406l6.42969 2.83203"/></g><g clip-path="url(#z)"><path fill="none" stroke="#000" stroke-linecap="round" stroke-linejoin="round" stroke-miterlimit="10" stroke-width=".5" d="M393.48438 480.6289l7.0039-.59765"/></g><g clip-path="url(#A)"><path fill="none" stroke="#000" stroke-linecap="round" stroke-linejoin="round" stroke-miterlimit="10" stroke-width=".5" d="M394.5039 480.53906l-.66406-1.02734"/></g><g clip-path="url(#B)"><path fill="none" stroke="#000" stroke-linecap="round" stroke-linejoin="round" stroke-miterlimit="10" stroke-width=".5" d="M406.92578 481.3086l6.75-1.96094"/></g><g clip-path="url(#C)"><path fill="none" stroke="#000" stroke-linecap="round" stroke-linejoin="round" stroke-miterlimit="10" stroke-width=".5" d="M407.91016 481.02344l-.85547-.8789"/></g><g clip-path="url(#D)"><path fill="none" stroke="#000" stroke-linecap="round" stroke-linejoin="round" stroke-miterlimit="10" stroke-width=".5" d="M420.36719 481.66797l6.4961-2.67969"/></g><g clip-path="url(#E)"><path fill="none" stroke="#000" stroke-linecap="round" stroke-linejoin="round" stroke-miterlimit="10" stroke-width=".5" d="M420.36719 481.66797l-1.89063-1.5625"/></g><g clip-path="url(#F)"><path fill="none" stroke="#000" stroke-linecap="round" stroke-linejoin="round" stroke-miterlimit="10" stroke-width=".5" d="M433.75781 481.83594l6.34766-3.01563"/></g><g clip-path="url(#G)"><path fill="none" stroke="#000" stroke-linecap="round" stroke-linejoin="round" stroke-miterlimit="10" stroke-width=".5" d="M433.75781 481.83594l-1.96875-1.46094"/></g><g clip-path="url(#H)"><path fill="none" stroke="#000" stroke-linecap="round" stroke-linejoin="round" stroke-miterlimit="10" stroke-width=".5" d="M447.17578 482.03516l6.14453-3.41016"/></g><g clip-path="url(#I)"><path fill="none" stroke="#000" stroke-linecap="round" stroke-linejoin="round" stroke-miterlimit="10" stroke-width=".5" d="M448.07031 481.53906l-1.03125-.66797"/></g><g clip-path="url(#J)"><path fill="none" stroke="#000" stroke-linecap="round" stroke-linejoin="round" stroke-miterlimit="10" stroke-width=".5" d="M461.16016 482.89453l4.80078-5.13281"/></g><g clip-path="url(#K)"><path fill="none" stroke="#000" stroke-linecap="round" stroke-linejoin="round" stroke-miterlimit="10" stroke-width=".5" d="M145.78516 470.03906l-3.57032-6.05078"/></g><path fill="none" stroke="#000" stroke-linecap="round" stroke-linejoin="round" stroke-miterlimit="10" stroke-width=".5" d="M145.26563 469.16016l-.64063 1.04687m15.02344-.5664l-4.66797-5.25391m3.99219 4.48828l-.4297 1.14844m14.02345-.07813l-3.8711-5.86328M172 469.09375l-.58594 1.07813m14.79688-.47266l-4.53125-5.3711m3.8711 4.58985l-.45704 1.14062m14.0586-.08203l-3.78126-5.92578m3.23047 5.0625l-.60547 1.07031m14.51563-.23828l-3.875-5.86328m3.3125 5.00781l-.58594 1.07813m14.95313-.61328l-4.85157-5.08203m17.78516-.31641l-4.08984 5.71484m18.36718-4.67187l-6.01562 3.6289m19.4414-3.4375l-6.23437 3.2461m5.32813-2.77344l1.0078.69531m13.5 1.32813l-6.80859-1.7461m5.81641 1.4922l.28906 1.1914m13.94922-.69922l-6.66797-2.22266m5.69531 1.89844l.20313 1.21094m14.26172-1.9961h-7.02735m6.00782 0l.57422 1.08204m12.16015 1.86328l-3.82422-5.89453m3.26563 5.03906l-.59375 1.07031m9.67969-1.14062l5.75-4.04297m7.01171 2.78906l6.85938-1.53516m-5.85938 1.3125l-.80078-.93359m13.48829 2.1211l6.11328-3.46485m-5.22266 2.96094l-1.03516-.66016m13.00782-.35156l7.01562-.4336m-5.99219.3711l-.64453-1.04688m13.05078-.01172l6.78907 1.8086m-5.80079-1.54688l-.27734-1.1953m12.85547.26562l6.28516 3.14453m-6.28516-3.14453l-.0625-2.45313m13.00781 3.88281l7.02344.28516m-7.02344-.28516l-1.0625-2.21093m14.44922 3.05859l6.88281-1.41016m-6.8828 1.41016l-1.56642-1.89063m14.97657 2.26172l6.6914-2.15234m-6.6914 2.15234l-1.75781-1.70703m14.96875 1.3086l6.89843-1.35157m-6.89844 1.35157l-1.54687-1.90625m15.55469 3.40625l5.51562-4.35547m-5.51562 4.35547l-2.2461-.98829"/><g clip-path="url(#L)"><path fill="none" stroke="#000" stroke-linecap="round" stroke-linejoin="round" stroke-miterlimit="10" stroke-width=".5" d="M145.30078 456.96094l-2.60156-6.52735"/></g><g clip-path="url(#M)"><path fill="none" stroke="#000" stroke-linecap="round" stroke-linejoin="round" stroke-miterlimit="10" stroke-width=".5" d="M144.92188 456.01172l-.79297.9375"/></g><path fill="none" stroke="#000" stroke-linecap="round" stroke-linejoin="round" stroke-miterlimit="10" stroke-width=".5" d="M159.60156 456.36719l-4.57422-5.33594m3.91016 4.5586l-.44922 1.14062m14.625-.54688l-4.96484-4.97265m17.09765 5.75l-2.60156-6.52735m2.22266 5.57813l-.79297.9375m12.10547.09375l2.16015-6.6875m11.46485 6.76953l1.53906-6.85547m-1.3125 5.85938l-1.1836.32422m12.25782-.61329l5.57031-4.28515m10.21484-1.35547l.62891 7m-.53906-5.98047l1.02734-.67188m10.71485.13282l3.59765 6.03515m-3.07422-5.15625l.63282-1.05078m12.36328.0586l3.1875 6.26562m-2.72266-5.35547l.70313-1.0039m13.28515-.25782l.91016 6.96875m-.77734-5.95312l.99609-.71485m12.46094-.32421l.35937 7.01562m-.3086-5.9961l1.0547-.6328m12.39062-.39454v7.02735m0-7.02735l2.16797-1.15234m10.41016 1.23047l1.47265 6.8711m-1.25781-5.8711l.9375-.78906m9.58594 2.05078l6.625 2.34765m-5.66016-2.0039l-.17969-1.21485m12.4336 1.19532l6.8164 1.70312m-5.82422-1.45703l-.29687-1.1914m12.51953 1.62109l7.01953.35156m-5.9961-.30078l-.52343-1.11328m12.82422.92187l7 .63281m-5.98047-.53906l-.47656-1.13281m13.01953.02734l6.5039 2.65625m-6.5039-2.65625l-.2461-2.4414m13.73438 2.07812l6.16016 3.3789m-6.16016-3.3789l.03125-2.45312m12.86719 3.80078l6.99219.6875m-6.9922-.6875l-.93359-2.26953m14.29297 3.26562l6.90625-1.30469m-6.90625 1.3047l-1.53515-1.91407m14.90625 2.16797l6.79297-1.8125m-6.79297 1.8125l-1.66797-1.79688m14.88281 1.2422l6.99219-.70704m-6.99219.70703l-1.36328-2.03906m15.42969 3.88281l5.48828-4.39062m-5.48828 4.39062l-2.25-.97265"/><g clip-path="url(#N)"><path fill="none" stroke="#000" stroke-linecap="round" stroke-linejoin="round" stroke-miterlimit="10" stroke-width=".5" d="M144.05469 443.89844l-.10938-7.02735"/></g><g clip-path="url(#O)"><path fill="none" stroke="#000" stroke-linecap="round" stroke-linejoin="round" stroke-miterlimit="10" stroke-width=".5" d="M144.03906 442.875l-1.07422.59375"/></g><path fill="none" stroke="#000" stroke-linecap="round" stroke-linejoin="round" stroke-miterlimit="10" stroke-width=".5" d="M158.57031 443.66406l-2.51172-6.5625m2.14453 5.60938l-.80468.92578m14.33984-6.58594l-2.21875 6.66797m17.91406-3.75l-6.97656.82813m5.96094-.70704l.69922 1.00782m13.11719 1.16015l-5.94532-3.7461m19.03125-.3203l-5.48828 4.38671m4.6875-3.75l1.1289.48438m11.16798-2.3164l-1.85157 6.77734m1.58203-5.79297l1.19532-.26953m11.40625-.83985l.11328 7.02735m-.09766-6.0039l1.07422-.59376m10.72656-.0664l3.11328 6.29687m-2.66015-5.3789l.71484-1m13.01563-.21485l1.375 6.89062m-1.17578-5.88671l.94922-.77735m13.28906-.26562l-.8711 6.97265m.7461-5.96093l1.14453-.4375m11.5586-.58985l.60546 7m-.60547-7l2.0586-1.33203m11.28906 1.32813l.53515 7.0078m-.53515-7.0078l2.07422-1.3125m11.14453 1.32421l.73047 6.98829m-.73047-6.98829l2.03515-1.37109m10.90235 1.42969l1.48437 6.86719m-1.48437-6.8672l1.875-1.58202m9.38672 2.89062l5.59375 4.25m-4.78125-3.63281l.19922-1.21094m13.15234-.20703l3.89453 5.85156m-3.32812-5l.58593-1.07812m11.26172 1.09765l5.69922 4.10938m-4.8711-3.51172l.16407-1.21484m11.76953 1.79687l6.80469 1.75m-5.8164-1.4961l-.28907-1.1914m12.9961.01563l6.04296 3.59375m-5.16406-3.07032l.0586-1.22656m11.89843 2.82031l7-.64062m-5.98047.54687l-.67187-1.02343m12.95703.94531l7.01953-.29688m-7.01953.29688l-1.24219-2.11719m14.6875 2.92578l6.76172-1.91015m-6.76172 1.91015l-1.69922-1.77343m15.20313 2.28515l6.38281-2.9375m-6.38281 2.9375l-1.95313-1.48437m16.2539 2.75l4.41407-5.46875m-3.77344 4.67187l-1.20312-.23047"/><g clip-path="url(#P)"><path fill="none" stroke="#000" stroke-linecap="round" stroke-linejoin="round" stroke-miterlimit="10" stroke-width=".5" d="M142.58984 430.28906l2.82032-6.4375"/></g><path fill="none" stroke="#000" stroke-linecap="round" stroke-linejoin="round" stroke-miterlimit="10" stroke-width=".5" d="M155.48047 430.0664l3.66797-5.99609m-3.66797 5.9961l-2.44922-.14844m16.16406.35547l2.8711-6.41016m-2.45313 5.48047l-1.22656.08203m16.4375 1.04297l-1.75781-6.80078m1.5039 5.8125l-.90625.82812m11.41797-5.99609l4.35547 5.51563m12.84375-5.83204l-3.41016 6.14453m2.91407-5.25l1.22656.02344m9.35156-1.00781l3.05469 6.32422m-2.60938-5.40625l.72266-.98828m11.86719.21875l3.61719 6.02734m-3.09375-5.14844l.6328-1.05078m12.6172-.0586l2.6953 6.48829m-2.30077-5.54297l.77734-.94922m11.85547.13672l3.26953 6.22266m-2.79297-5.3164l.6914-1.01563m13.125-.23047l1.31641 6.90234m-1.125-5.89844l.95704-.76953m12.76171-.29687l.125 7.02734m-.10546-6.0039l1.07421-.59375m11.94532-.41407l.67578 6.9961m-.57422-5.97657l1.01953-.67968m10.6836.17187l3.69921 5.97266m-3.16015-5.10547l.61718-1.0586m12.39454.0586l3.23046 6.23828m-2.76171-5.33203l.69921-1.00781m12.13672.10547l3.2461 6.23046m-2.77344-5.32421l.69531-1.01172m12.25.05468l3.04297 6.33204m-2.59766-5.41016l.72657-.98828m11.16797.76172l4.99218 4.9414m-4.26562-4.22265l.35156-1.17578m11.66406 4.64062l6.13672-3.42578m-5.24219 2.92578l-1.03125-.66406m13.20313-1.70313l6.63672 2.3086m6.80469.3125l6.3828-2.9336m-5.45312 2.50782l-.97656-.7461m13.05078-.54297l7.00781.4961m-7.0078-.4961l-.9961-2.24218m14.91797 4.47656l5.79297-3.97266m-4.94922 3.39453l-1.08985-.5664m15.04688 2.3789l2.82031-6.4375m-2.82031 6.4375l-2.44531.1836m16.2539-.01172l1.83594-6.78516m-1.57031 5.79688l-1.19532.27343"/><g clip-path="url(#Q)"><path fill="none" stroke="#000" stroke-linecap="round" stroke-linejoin="round" stroke-miterlimit="10" stroke-width=".5" d="M145.90625 416.70313l-3.8125-5.89844"/></g><path fill="none" stroke="#000" stroke-linecap="round" stroke-linejoin="round" stroke-miterlimit="10" stroke-width=".5" d="M145.35156 415.84375l-.59765 1.07422m12.71484.34375l-.3086-7.01953m.26563 6l-1.0586.6211m12.04688-.38282l4.4336-5.45313m-4.4336 5.45313l-2.40625-.47266m16.0664.71875l3.7422-5.94922m-3.7422 5.94922l-2.4453-.17578m14.69922-.85937l5.86328-3.875m-5.00782 3.3125l-1.07812-.58594m13.13281-1.89063l6.67578 2.19922m-5.70312-1.8789L208 411.76562m12.53125.95704l6.71875 2.0625m-5.74219-1.76172l-.23047-1.20703m12.4336 1.57812l6.98828.71875m-6.98828-.71875l-.92578-2.27344m14.90234.5547l5.66406 4.15624m-5.66406-4.15625l.35547-2.42969m13.0664 2.28907l5.45313 4.43359m-4.66016-3.78516l.23828-1.20703m12.6211.20313l4.78125 5.14843m-4.08594-4.39843l.40234-1.16016m13.0547-.16797l3.10156 6.30469m-2.64844-5.38672l.71484-.9961m12.6289-.11718l2.14063 6.6914m-1.83203-5.71484l.85938-.8789m11.09765.44921l4.24219 5.60157m-4.24219-5.60157l1.03125-2.22656m11.42969 3.15625l5.94922 3.74219m-5.08594-3.19922l.08985-1.22266m12.49609.48047l5.67578 4.14063m-5.67578-4.14063l.34766-2.42968m14.52734 1.22656l2.5586 6.54687m-2.1875-5.59375l.80077-.92968m11.52344.29296l3.79688 5.91407m-3.2422-5.05469l.59767-1.07031m11.28125 1.01953l5.55859 4.29687m-4.75-3.67187l.20703-1.21094m11.89063 4.20703l6.3789-2.94531m7.89453 4.1836l4.46485-5.42579m7.5664 2.66016l7.02735.10547m7.2578 2.3711l5.08985-4.84767m8.11719 4.73047l5.30469-4.60937m-4.53125 3.9375l-1.14453-.4375m13.4453.79297l5.78907-3.98047m-4.94922 3.40234l-1.08593-.5664"/><g clip-path="url(#R)"><path fill="none" stroke="#000" stroke-linecap="round" stroke-linejoin="round" stroke-miterlimit="10" stroke-width=".5" d="M147.3789 401.40234l-6.7578-1.92578"/></g><path fill="none" stroke="#000" stroke-linecap="round" stroke-linejoin="round" stroke-miterlimit="10" stroke-width=".5" d="M146.39453 401.1211l.25781 1.19921m13.88672-.48437l-6.44922-2.79297m5.51172 2.38672l.09766 1.22265m11.3086 1.27735l-.75782-6.98438m.64844 5.96875l-1.01563.6914m12.36719-.08983l3.39063-6.15625m-2.89844 5.26171l-1.22656-.01953m12.49609-.82812l6.5-2.66797m-6.5 2.66797l-1.89063-1.5664m14.94532.4414l7.01562-.42188m-7.01562.42188l-1.27735-2.09375m14.58985 1.91406l7.02343-.0625m-7.02343.0625l-1.17188-2.15625m14.79688.6836l6.40625 2.88671m-5.47657-2.46875l-.07812-1.22265m12.1914 1.70703l6.94532 1.07812m-6.94531-1.07812l-.8047-2.3164m14.31641 1.58983l6.5547 2.53125m-6.5547-2.53125l-.29297-2.4375m13.85938 1.92188l6.05469 3.5664m-5.17578-3.04687l.05468-1.22656m12.09766 1.3086l6.6211 2.35937m-5.66016-2.01563l-.17578-1.21094m13.30078-.3828l5.07812 4.85937m-4.33984-4.15235l.33203-1.17968m11.49219 1.67187l6.58203 2.46485m-5.625-2.10547l-.16016-1.21875m13.24219-.3086l5.13281 4.80078m-4.38281-4.10546l.3164-1.1836m14.39063-.60156l.85156 6.97656m-.73046-5.96094l1.0078-.70312m9.4336 1.67578l6.35547 3m-5.42969-2.5625l-.0586-1.22656m12.11329 2.39062l7.02344-.19922m-6 .16797l-.60938-1.0664m18.36719-1.92188l-3.90625 5.83985m16.80078-6.08204l-3.0664 6.32422m15.87109-3.16406l-.01953-.19922-.0586-.1914-.09375-.17579-.46093-.3789-.19141-.05469-.19922-.02344-.19922.02344-.1914.05469-.45703.3789-.09766.17579-.0586.1914-.01953.19922.01954.19922.05859.1914.09766.1797.45703.375.1914.05859.19922.01953.19922-.01953.1914-.0586.46094-.375.09375-.17969.0586-.1914.01953-.19922m13.33203-3.35547l-2.07812 6.71094m15.375-3.35547l-.01954-.19922-.05859-.1914-.09375-.17579-.45703-.3789-.1914-.05469-.20313-.02344-.19922.02344-.1914.05469-.45704.3789-.09375.17579-.0586.1914-.01952.19922.01953.19922.0586.1914.09374.1797.45703.375.1914.05859.19923.01953.20312-.01953.1914-.0586.45704-.375.09375-.17969.0586-.1914.01953-.19922m8.80078-.39453l6.98437.79297m-5.96875-.67969l-.44922-1.14063m13.11719 3.02735l6.25-3.21094"/><g clip-path="url(#S)"><path fill="none" stroke="#000" stroke-linecap="round" stroke-linejoin="round" stroke-miterlimit="10" stroke-width=".5" d="M145.71875 390.1875l-3.4375-6.1289"/></g><path fill="none" stroke="#000" stroke-linecap="round" stroke-linejoin="round" stroke-miterlimit="10" stroke-width=".5" d="M145.21875 389.29688l-.66406 1.03125m14.09375.04687l-2.66406-6.5039m12.89062 6.29687l3.51172-6.08985m-3 5.20313l-1.22656-.04297m13.5664.60938l4.4336-5.44922m-3.78516 4.65625l-1.20703-.23438m13.5625.74219l5.0586-4.8789m-5.0586 4.8789l-2.33203-.76172m15.39453-3.82422l5.5625 4.29297m-4.75-3.66797l.20312-1.21094m11.80078 1.47266l6.5625 2.51953m-5.60546-2.15234l-.15235-1.21875m12.57031.71094l6.44141 2.80078m-5.5039-2.39453l-.09766-1.22266m12.32422 3.19922l6.7461-1.96485m-6.7461 1.96485l-1.71094-1.76172m14.91016 1.21094l6.97656-.86328m-6.97656.86328l-1.41016-2.00781m14.70313 1.40625l7.01953.33984m-7.01953-.33985l-1.04688-2.21875m14.4961 3.35938l6.7539-1.9414m-5.77344 1.66015l-.85156-.88281m13.51953 1.94922l6.08594-3.51172m-5.19922 3l-1.04297-.64844m13.14063.38281l6.75-1.95703m-5.76954 1.67188l-.85546-.87891m13.05078.1875h7.02734m-6.00781 0l-.57422-1.08594m12.8711 1.15625l7.02343-.14453m-6.0039.1211l-.59766-1.07032m13.48828-.9414l5.83203 3.92578m-4.98047-3.35547l.125-1.21875m11.76953 3.05469l6.97266-.88672m-5.95703.75781l-.71094-1.0039m17.73438-2.59766l-2.48047 6.57422m17.42578-5.31641l-5.73828 4.0586m18.85547.2539l-5.33985-4.5664m18.02735 5.14062l-4.08985-5.71485m15.48828 6.3672l-.2539-7.01954m15.41406 6.41797l-3.94531-5.8164m3.3711 4.96874l-.57423 1.08594m15.98828-3.48437l-6.99609.67578m5.98047-.57813l.67578 1.02344"/><g clip-path="url(#T)"><path fill="none" stroke="#000" stroke-linecap="round" stroke-linejoin="round" stroke-miterlimit="10" stroke-width=".5" d="M146.0664 370.96875l-4.1328 5.67969"/></g><path fill="none" stroke="#000" stroke-linecap="round" stroke-linejoin="round" stroke-miterlimit="10" stroke-width=".5" d="M145.46484 371.79297l1.21485.17187m7.46875.32032l6.33203 3.04687m-5.41016-2.60156l-.05078-1.22656m12.09766 2.21484l7.02344.17969m-6-.15235l-.55079-1.09765m12.94922 2.01953l6.8125-1.71875m-6.8125 1.71875l-1.64844-1.82031m15.02344 2.03515l6.6914-2.15234m-6.6914 2.15234l-1.75781-1.70703m2.73438 1.39453l-.88282-.85547m13.0625.3125l7.01172-.4375m-7.01172.4375l-1.28515-2.08984m16.68359-1.34375l2.84375 6.42578m-2.42969-5.48828l.75781-.96484m13.78516-.26563l-.4414 7.01563m.3789-5.9961l1.11719-.5039m9.89062.21093l4.29688 5.5625m7.92578-1.42187l6.48047-2.71875m-5.53516 2.32031l-.94922-.77344m13.75391 1.92579l5.61328-4.22657m-5.61328 4.22656l-2.22266-1.03515m15.48438.96094l5.72265-4.07813m-5.72265 4.07813l-2.19531-1.09766m15.5664 1.17578l5.60547-4.23828m-4.78906 3.625l-1.11328-.51953m12.91015-.7461l7.01172-.47656m6.97266-1.83203l5.67578 4.14063m-4.85156-3.53907l.17187-1.21484m13.88281-.58984L345 377.08203m-2.17578-5.59375l.80078-.92969m10.91797 5.71875l4.9961-4.9414m-4.26954 4.22265l-1.17187-.36328m12.76953-1.80469l6.97656.83594m-5.96094-.71484l-.4414-1.14453m14.18359-1.41406l4.09375 5.71093m-3.5-4.8789l.54297-1.10157m12.8164 6.34375l2.81641-6.4375m-2.40625 5.5l-1.22656.09375m15.53906 1.13672v-7.02734M423.5 377.3203l.23437-7.02344m-.20312 6l-1.10156.53907m15.07422.4375l-1.14454-6.9336m.97657 5.92579l-.97266.74609m16.54688-.91406l-5.32813-4.57813m4.55469 3.91406l-.26953 1.19532m15.08203-1.88282l-6.77344-1.875m6.77344 1.875l.53125 2.39454m-1.51953-2.66797l.26953 1.1953"/><g clip-path="url(#U)"><path fill="none" stroke="#000" stroke-linecap="round" stroke-linejoin="round" stroke-miterlimit="10" stroke-width=".5" d="M145.98438 357.59375l-3.96875 5.80078"/></g><path fill="none" stroke="#000" stroke-linecap="round" stroke-linejoin="round" stroke-miterlimit="10" stroke-width=".5" d="M145.98438 357.59375l2.4375.26953m10.17187-.64062l-2.5586 6.54296m2.1875-5.59375l1.21876-.14062m10.15625-.89453l2.0664 6.71484m-2.0664-6.71484l1.73047-1.73828m9.98046 2.77344l5.27344 4.64453m-5.27344-4.64454l.56641-2.38671m.19922 3.0625l.28516-1.19532m11.40234 2.5l6.9961.6797m-6.9961-.6797l-.9336-2.26953m1.95313 2.36719l-.46875-1.13281m12.75 1.41015l7.02734-.0703m-7.02734.0703l-1.17578-2.15234m2.19922 2.14453l-.58985-1.07812m13.08594 2.23828l6.61719-2.3711m-6.61719 2.3711l-1.8125-1.65235m15.0586-.49609l6.7578 1.92578m-5.77734-1.64453l-.2578-1.20313m19.2578.64454l-6.57422 2.48046m19.96094-.21484l-6.71875-2.05469m6.71875 2.0547l.46875 2.41015m12.44531-1.53906l-5.91796-3.79297m5.05468 3.23828l-.09765 1.22265m11.44922.94532l-.26563-7.02344m.22656 6.0039l-1.05859.61329m13.67188.35546l1.21875-6.92187m-1.04297 5.91406l-1.16407.3789m11.9336-.97265l5.96094-3.71875m6.85937 1.32031l6.94531 1.07813m-5.9336-.91797l-.40233-1.16015m14.24218-1.39063l3.875 5.86328m-3.3125-5.01172l.58594-1.07812m15.125 3.15625l-.01953-.19922-.0586-.1914-.09375-.17579-.45703-.3789-.1914-.0547-.19922-.01952-.20313.01953-.1914.05469-.45703.3789-.09375.17578-.0586.1914-.01953.19923.01953.19922.0586.1914.09375.17969.45703.375.1914.0586.20313.01952.19922-.01953.1914-.05859.45704-.375.09375-.17969.05859-.1914.01953-.19922m8.83984.63672l6.91016-1.27344m-5.90625 1.08984l-.76172-.96094m18.91406 3.08594l-4.77343-5.15625m4.07812 4.40625l-.40234 1.16016m15.05469-1.21094l-6.0586-3.55469m5.17969 3.03907l-.05078 1.22656m13.46875.20703l-4.50781-5.39063m4.5078 5.39063l-.92187 2.27344m12.63281-1.51563l-1.29687-6.90625m1.10547 5.90235l-.95703.76562m14.17187.28125l-.71484-6.99219m.61328 5.97657l-1.01953.68359m15.17187.17578l-2.1875-6.67578m1.8711 5.70313l-.85156.88671m10.6328-5.42968l5.51563 4.35546"/><g clip-path="url(#V)"><path fill="none" stroke="#000" stroke-linecap="round" stroke-linejoin="round" stroke-miterlimit="10" stroke-width=".5" d="M145.17578 343.86719l-2.35156 6.6211"/></g><path fill="none" stroke="#000" stroke-linecap="round" stroke-linejoin="round" stroke-miterlimit="10" stroke-width=".5" d="M145.17578 343.86719l2.42578-.36328m9.96875.17187l-.51172 7.00781m.51172-7.0078l2.2461-.9922m11.71093 1.09766l-1.79297 6.79297m1.79297-6.79297l2.38672-.5625m12.25781 1.24219l-4.45312 5.4336m4.45313-5.4336l2.40625.48047m-3.0547.30859l1.20313.24219m7.51172-.10547l6.04688 3.58203m-5.16797-3.0586l.05469-1.22656m12.11718 3.73438l6.57422-2.48047m-6.57422 2.48047l-1.84375-1.61719m16.01172 2.91406l4.86719-5.0703m-4.86719 5.0703l-2.35937-.66796m15.22656.14062l5.76172-4.01953m-5.76172 4.01953l-2.1836-1.11719m15.66407-3.1211l5.42969 4.45704m-4.64063-3.8086l.24219-1.20312m18.50781 3l-7.01563-.42969m5.9922.3672l.51171 1.11327m13.77735-.66015l-6.91797-1.21485m5.91406 1.03906l.3789 1.16797m13.9961-1.59765h-7.02735M302.5 350.44922l2.5625-6.54297m9.71875 5.91406l4.6289-5.28515m-3.95312 4.51953l-1.19531-.28125m14.1211 1.27344l4.05468-5.73829m-3.46484 4.90625l-1.21485-.15625m13.17188.25l5.58984-4.26171m-4.77344 3.64062l-1.11718-.51172m13.13671-2.26953l6.55079 2.54297m-5.59766-2.17188l-.14453-1.21875m12.46484 3.28125l6.63281-2.32421M368.00392 348l-.90235-.83203m13.98047 2.38281l5.17969-4.7461m-4.42578 4.0586l-1.15625-.41015m12.79687-1.1172l7.01953-.3164m11.77344-2.7539l-3.9336 5.82421m13.92188.32813l2.71875-6.48047m13.73828 6.26563l-3.5703-6.05079m12.09374 1.20704l6.01563 3.63671m-5.14063-3.10546l.07031-1.22657m14.02344-.72656l2.71094 6.48047m-2.71094-6.48047l1.55078-1.89844"/><g clip-path="url(#W)"><path fill="none" stroke="#000" stroke-linecap="round" stroke-linejoin="round" stroke-miterlimit="10" stroke-width=".5" d="M143.77344 330.35547l.45312 7.01562"/></g><g clip-path="url(#X)"><path fill="none" stroke="#000" stroke-linecap="round" stroke-linejoin="round" stroke-miterlimit="10" stroke-width=".5" d="M143.77344 330.35547l2.08594-1.28906"/></g><path fill="none" stroke="#000" stroke-linecap="round" stroke-linejoin="round" stroke-miterlimit="10" stroke-width=".5" d="M156.94922 330.36719l.73437 6.98828m-.6289-5.96875l1.01562-.6875m12.42188-.34766l.27734 7.02344m-.23828-6l1.0586-.6211m14.96484.75782l-5.21875 4.70312m5.21875-4.70312l2.3086.83984m11.35155-.39062l-5.90625 3.80469m5.90625-3.8047l2.14063 1.19532m-3-.64453l1.07031.60156m13.66016.6211l-7.02344.2578m6.0039-.21874l.61329 1.0586m9.13281 2.375l2.15625-6.6875m-1.84375 5.71483l-1.20703.21485m12.0625-3.98047l6.44922 2.78906m7.8125-4.07031l4.5586 5.35156m12.5039.51563l-2.9375-6.38281m2.50781 5.45312l-.74219.97656m16.25781-1.8789l-6.48046-2.71875m6.48047 2.71875l.22656 2.4414m9.82031-.28906l.05469-7.02344m10.82031 1.01172l4.9375 5m-4.21875-4.27344l.36719-1.17187m11.22656 2.41015l6.94531 1.07032m-6.94531-1.07031l-.8125-2.31641m14.15625 3.55078l6.88672-1.39844m-6.88672 1.39844l-1.5625-1.89453m14.8125.98437l7.01563.42188m-5.9961-.35938l-.50781-1.11718m12.82031 1.67968l6.98047-.82812m-5.96484.70703l-.69922-1.00781m13.08594-.16406l6.80468 1.7578m-5.8125-1.5l-.28906-1.1953m14.66797-1.4297l2.69531 6.4922m-2.30469-5.54688l.78125-.94922m11.91797.10547l3.14453 6.28516m-2.6875-5.3672l.71094-1m12.1289.09376l3.1797 6.26562m-3.1797-6.26562l1.41016-2.00781m10.55079 3.22265l5.88671 3.83594m-5.02734-3.27734l.10547-1.22266m13.25781 5.44531L438.96875 331m-3.48047 4.89453l-1.21875-.16015m13.53906-4.40235l4.875 5.0625m12.8125-5.46484l-3.86718 5.86719m3.30468-5.01172l1.22266.11328"/><g clip-path="url(#Y)"><path fill="none" stroke="#000" stroke-linecap="round" stroke-linejoin="round" stroke-miterlimit="10" stroke-width=".5" d="M142.26172 317.4961l3.47656 6.10546"/></g><path fill="none" stroke="#000" stroke-linecap="round" stroke-linejoin="round" stroke-miterlimit="10" stroke-width=".5" d="M155.90625 317.32813l2.82031 6.4375m-2.41015-5.5l.7578-.96094m10.6875 5.26953l5.73829-4.05469m-4.90625 3.46485l-1.09375-.55079m18.25781-3.89843l-3.625 6.02343m18.53125-2.14062l-6.8086-1.74219m5.81642 1.48828l.29296 1.1914m13.94922-.71874l-6.67969-2.17969m6.6797 2.17969l.42187 2.41797m12.94531-2.58594L220.5 319.625m6.78125 1.84375l.54297 2.39453m12.88672-3.52344l-7.01172.41407m5.99219-.35157l.64062 1.04688m13.3164-2.5l-6.2578 3.19922m6.2578-3.19922l2.01173 1.40625m11.67578-.09766l-7 .57813m5.98047-.49219l.66406 1.03125m10.16016 2.6875l.01953-7.02734m-.01953 7.02734l-2.16797 1.14453m15.59375-1.14844l-.20313-7.02343m.17578 6.0039l-1.0664.60547m11.375-1.16015l5.86718-3.8711m-5.01171 3.30469l-1.07813-.58594m13.03125-.07031l6.8789-1.42969m-5.8789 1.22266l-.78516-.94531m13.03125.59765l7.01954-.3164m-6 .26953l-.625-1.0547m14.16796-1.74608l4.51954 5.3789m8.59765-.17969l4.91797-5.02343m-4.20312 4.29296l-1.17579-.34765m15.41407-4.84766l1.64453 6.83203m13.95703-6.60937l-2.92969 6.38672m2.5039-5.45703l1.22266-.07422m14.01172.4414l-5.91797 3.79297m5.0547-3.24219l1.0703.60157m12.45313-1.91016l-4.60938 5.30469m4.60938-5.30469l2.39062.55078m5.98829-.22656l5.26171 4.65625m-4.49609-3.97656l.28906-1.19531m16.49219 5.97265l-3.19922-6.25781m3.19922 6.25781l-1.40234 2.01172m.9375-2.92188l-.70313 1.00782m16.07813-1.76172l-6.39063-2.92578m6.39063 2.92578l.14453 2.44922m-1.07422-2.875l.07031 1.22656m13.47656-4.73828l-4.99218 4.94531"/><g clip-path="url(#Z)"><path fill="none" stroke="#000" stroke-linecap="round" stroke-linejoin="round" stroke-miterlimit="10" stroke-width=".5" d="M466.0586 318.07422l2.33984.72656"/></g><path fill="none" stroke="#000" stroke-linecap="round" stroke-linejoin="round" stroke-miterlimit="10" stroke-width=".5" d="M465.33203 318.79297l1.17188.36328"/><path fill="#00f" fill-rule="evenodd" d="M210.70313 472.08594h8.62109V461.9414h-8.6211v10.14453"/><path fill="azure" fill-rule="evenodd" d="M212.53906 463.77344h.83203v2.82422h3.28516v-2.82422h.83203v6.48047h-.83203v-2.91797h-3.28516v2.91797h-.83203v-6.48047"/><path fill="#00f" fill-rule="evenodd" d="M281.71875 472.08594h8.61719V461.9414h-8.61719v10.14453"/><path fill="azure" fill-rule="evenodd" d="M283.55078 463.77344h.83203v2.82422h3.28906v-2.82422h.83204v6.48047h-.83204v-2.91797h-3.28906v2.91797h-.83203v-6.48047"/><path fill="#00f" fill-rule="evenodd" d="M410.42969 458.77344h8.6211V448.625h-8.6211v10.14844"/><path fill="azure" fill-rule="evenodd" d="M412.26172 450.45703h.83594v2.82422h3.28515v-2.82422h.83203v6.48047h-.83203v-2.91406h-3.28515v2.91406h-.83594v-6.48047"/><path fill="#ff3030" fill-rule="evenodd" d="M335.67188 436.57813h7.6953v-10.14454h-7.6953v10.14454"/><path fill="azure" fill-rule="evenodd" d="M337.5039 428.26563h.83594v5.74218h3.19141v.73828h-4.02734v-6.48046"/><path fill="#00f" fill-rule="evenodd" d="M414.86719 432.14063h8.6211v-10.14454h-8.6211v10.14454"/><path fill="azure" fill-rule="evenodd" d="M416.70313 423.82813h.83203v2.82421h3.28515v-2.82421h.83594v6.48046h-.83594v-2.91796h-3.28515v2.91796h-.83204v-6.48046"/><path fill="#00f" fill-rule="evenodd" d="M224.01953 418.82813h8.61719v-10.14844h-8.61719v10.14844"/><path fill="azure" fill-rule="evenodd" d="M225.85156 410.51172h.83594v2.82422h3.28516v-2.82422h.83203v6.48047h-.83203v-2.91406h-3.28516v2.91406h-.83594v-6.48047"/><path fill="#00f" fill-rule="evenodd" d="M197.39063 392.19531h8.61718v-10.14453h-8.61719v10.14453"/><path fill="azure" fill-rule="evenodd" d="M199.22266 383.88281h.83203v2.82422h3.28515v-2.82422h.83594v6.48047h-.83594v-2.91406h-3.28515v2.91406h-.83203v-6.48047"/><path fill="#ff3030" fill-rule="evenodd" d="M193.64453 330.0586h7.69531v-10.14454h-7.6953v10.14453"/><path fill="azure" fill-rule="evenodd" d="M195.47656 321.7461h.83594v5.73827h3.1914v.7422h-4.02734v-6.48048"/><path fill="#ffffe0" fill-rule="evenodd" d="M248.53906 367.9375h22.17969v-10.1914h-22.17969v10.1914"/><path fill-rule="evenodd" d="M252.03906 359.57813h.50781v6.29296h-.78515v-4.48828h-1.39063v-.55469l.5586-.0664.2539-.05469.23047-.08984.20313-.14063.17187-.21094.14453-.29296.10547-.39454m4.8125 0l.23047.01954.21875.05468.20703.08985.19531.1211.1836.14843.17187.17578.3047.41797.24218.4961.17969.54687.10937.57812.03906.58985-.03906.59375-.10937.58593-.1797.55079-.24218.5039-.30469.42969-.17187.17578-.1836.15625-.1953.1211-.20704.09374-.21875.0547-.23047.01952-.23047-.01953-.21875-.05469-.20703-.09375L256 365.8125l-.1836-.15625-.17187-.17578-.30469-.42969-.24218-.5039-.1797-.55079-.10937-.58593-.03906-.59375h.83203l.02735.5625.08203.5078.1289.44142.16016.375.1914.30078.21094.22265.22266.13672.22656.04688.22656-.04688.22266-.13672.21094-.22265.1914-.30079.16016-.375.1289-.4414.07813-.50781.03125-.5625-.03125-.5586-.07812-.5039-.1289-.4336-.16017-.36719-.1914-.29296-.21094-.21094-.22265-.13281-.22657-.04688-.22656.04688-.22266.1328-.21093.21095-.19141.29296-.16016.3672-.1289.43359-.08203.5039-.02735.5586h-.83203l.03906-.58985.10938-.57812.17969-.54688.24218-.4961.3047-.41796.17187-.17578.18359-.14844.19531-.1211.20703-.08984.21875-.05468.23047-.01954m5.08985 0h.51171v6.29297h-.78906v-4.48828h-1.38672v-.55469l.5586-.0664.2539-.05469.22657-.08984.20703-.14063.17187-.21094.14063-.29296.10547-.39454m2.82421 2.17579h.78907l.01953-.31641.0586-.28906.09765-.25.14062-.21485.1797-.17578.22655-.1289.26563-.07813.30469-.03125.23828.02344.22656.0625.20313.10156.17968.13672.14844.17578.11328.20313.07031.23828.02344.26562-.01953.26563-.0664.22656-.10938.1914-.15625.17188-.19922.16016-.2461.16797-.63671.38671-.53516.31641-.4375.3164-.34765.32423-.26563.33593-.1875.35157-.125.36718-.07031.39454-.01953.41796h4.21093v-.73828h-3.33203l.08203-.28515.11329-.23829.14843-.19921.1875-.1797.23047-.17187.27735-.17578.71875-.41797.41406-.20312.34765-.23438.28125-.25.21875-.26562.16407-.27735.10937-.28515.0664-.28516.01954-.28125-.04297-.38281-.1211-.34766-.1875-.30859-.25-.26172-.30468-.21484-.34375-.15625-.38281-.10156-.40625-.03125-.4336.03125-.39844.09765-.35546.16797-.3047.23438-.24608.30468-.1875.375-.1172.44531-.03906.51954"/><path fill="#ffffe0" fill-rule="evenodd" d="M381.6875 373.00781h22.1836v-10.1914h-22.1836v10.1914"/><path fill-rule="evenodd" d="M385.1875 364.64844h.51172v6.29687h-.78906v-4.49219h-1.38672v-.55468l.5586-.0664.2539-.05079.22656-.08984.20313-.14454.17578-.20703.14062-.29687.10547-.39453m4.8164 0l.22657.01953.21875.05469.21094.08984.1953.1211.1836.14843.17188.17578.30078.42188.24219.49219.17968.54687.11329.57813.03906.58984-.03906.59375-.11329.58594-.17968.55468-.2422.5-.30077.4297-.17188.17968-.1836.15234-.1953.125-.21094.08985-.21875.05859-.22656.01953-.23047-.01953-.21875-.0586-.20703-.08984-.19922-.125-.1836-.15234-.17187-.17969-.30078-.42969-.24219-.5-.17969-.55468-.11328-.58594-.03906-.59375h.83594l.02734.5664.08203.50391.125.4414.16406.375.19141.30079.21094.22265.22265.13672.22657.04688.22656-.04688.22265-.13671.20704-.22266.1914-.30078.16406-.375.125-.4414.08204-.50392.02734-.5664-.02734-.5586-.08204-.5-.125-.4375-.16406-.36328-.1914-.29296-.20704-.21485-.22265-.13281-.22656-.04297-.22657.04297-.22265.13281-.21094.21485-.1914.29296-.16407.36329-.125.4375-.08203.5-.02734.55859h-.83594l.03906-.58985.11328-.57812.17969-.54688.24219-.49218.30078-.42188.17187-.17578.1836-.14844.19922-.12109.20703-.08984.21875-.0547.23047-.01952m5.08984 0h.50781v6.29687h-.78515v-4.49219h-1.39063v-.55468l.5625-.0664.25-.05079.23047-.08984.20313-.14454.17578-.20703.14062-.29687.10547-.39453m2.82422 2.17578h.78515l.01954-.3164.05859-.28516.10156-.25391.14063-.21484.17969-.17579.22265-.1289.26563-.07813.30859-.02734.23828.01953.22266.0625.20312.10156.17969.14063.14844.17187.11328.20704.07422.23437.02344.26563-.02344.26953-.0625.22265-.11328.1914-.15235.17188-.20312.16407-.2461.16406-.6328.39062-.53907.3125-.4375.31641-.34766.32422-.26172.33594-.1914.35156-.125.3711-.0664.39062-.02345.42187h4.21485v-.74219h-3.33594l.08594-.28515.11328-.23438.14844-.20312.1875-.17969.23046-.17187.27735-.17579.71875-.41796.41406-.20313.34375-.23047.28125-.2539.22266-.26563.16015-.27734.11329-.28516.0625-.28515.01953-.28125-.03907-.38282-.12109-.34765-.1914-.3086-.25-.26172-.30079-.21484-.34765-.15625-.37891-.09766-.40625-.03515-.4336.03125-.39843.10156-.35547.16406-.30469.23438-.25.30469-.1836.375-.11718.4453-.03906.51954"/></g></defs><use xlink:href="#aa"/></svg>