<svg xmlns="http://www.w3.org/2000/svg" role="img" xmlns:xlink="http://www.w3.org/1999/xlink" viewBox="142.45 309.95 326.84 171.84"><defs><clipPath id="a"><path d="M144 311.67188h1v168.65625h-1zm0 0"/></clipPath><clipPath id="b"><path d="M144 311.67188h324v168.65625H144zm0 0"/></clipPath><clipPath id="c"><path d="M347 311.67188h2V313h-2zm0 0"/></clipPath><clipPath id="d"><path d="M467 311.67188h1v168.65625h-1zm0 0"/></clipPath><clipPath id="e"><path d="M144 477h3v3.32813h-3zm0 0"/></clipPath><clipPath id="f"><path d="M154 477h6v3.32813h-6zm0 0"/></clipPath><clipPath id="g"><path d="M168 477h5v3.32813h-5zm0 0"/></clipPath><clipPath id="h"><path d="M181 477h6v3.32813h-6zm0 0"/></clipPath><clipPath id="i"><path d="M194 477h6v3.32813h-6zm0 0"/></clipPath><clipPath id="j"><path d="M208 477h6v3.32813h-6zm0 0"/></clipPath><clipPath id="k"><path d="M221 477h6v3.32813h-6zm0 0"/></clipPath><clipPath id="l"><path d="M233 478h8v2.32813h-8zm0 0"/></clipPath><clipPath id="m"><path d="M247 478h7v2.32813h-7zm0 0"/></clipPath><clipPath id="n"><path d="M260 478h7v2.32813h-7zm0 0"/></clipPath><clipPath id="o"><path d="M274 477h7v3.32813h-7zm0 0"/></clipPath><clipPath id="p"><path d="M287 478h7v2.32813h-7zm0 0"/></clipPath><clipPath id="q"><path d="M300 478h7v2.32813h-7zm0 0"/></clipPath><clipPath id="r"><path d="M314 477h6v3.32813h-6zm0 0"/></clipPath><clipPath id="s"><path d="M329 476h3v4.32813h-3zm0 0"/></clipPath><clipPath id="t"><path d="M342 476h3v4.32813h-3zm0 0"/></clipPath><clipPath id="u"><path d="M353 478h8v2.32813h-8zm0 0"/></clipPath><clipPath id="v"><path d="M353 480h3v.32813h-3zm0 0"/></clipPath><clipPath id="w"><path d="M366 478h8v2.32813h-8zm0 0"/></clipPath><clipPath id="x"><path d="M380 478h7v2.32813h-7zm0 0"/></clipPath><clipPath id="y"><path d="M393 479h8v1.32813h-8zm0 0"/></clipPath><clipPath id="z"><path d="M392 478h2v2.32813h-2zm0 0"/></clipPath><clipPath id="A"><path d="M406 479h8v1.32813h-8zm0 0"/></clipPath><clipPath id="B"><path d="M405 478h3v2.32813h-3zm0 0"/></clipPath><clipPath id="C"><path d="M420 478h8v2.32813h-8zm0 0"/></clipPath><clipPath id="D"><path d="M418 479h3v1.32813h-3zm0 0"/></clipPath><clipPath id="E"><path d="M433 478h8v2.32813h-8zm0 0"/></clipPath><clipPath id="F"><path d="M433 480h2v.32813h-2zm0 0"/></clipPath><clipPath id="G"><path d="M446 478h8v2.32813h-8zm0 0"/></clipPath><clipPath id="H"><path d="M446 480h3v.32813h-3zm0 0"/></clipPath><clipPath id="I"><path d="M460 477h7v3.32813h-7zm0 0"/></clipPath><clipPath id="J"><path d="M144 463h2v8h-2zm0 0"/></clipPath><clipPath id="K"><path d="M144 469h2v2h-2zm0 0"/></clipPath><clipPath id="L"><path d="M144 450h2v8h-2zm0 0"/></clipPath><clipPath id="M"><path d="M144 456h2v4h-2zm0 0"/></clipPath><clipPath id="N"><path d="M144 436h1v9h-1zm0 0"/></clipPath><clipPath id="O"><path d="M144 442h1v2h-1zm0 0"/></clipPath><clipPath id="P"><path d="M144 423h2v8h-2zm0 0"/></clipPath><clipPath id="Q"><path d="M144 410h3v7h-3zm0 0"/></clipPath><clipPath id="R"><path d="M144 399h4v3h-4zm0 0"/></clipPath><clipPath id="S"><path d="M144 384h3v6h-3zm0 0"/></clipPath><clipPath id="T"><path d="M144 370h3v7h-3zm0 0"/></clipPath><clipPath id="U"><path d="M466 372h2v4h-2zm0 0"/></clipPath><clipPath id="V"><path d="M144 357h3v7h-3zm0 0"/></clipPath><clipPath id="W"><path d="M144 343h2v8h-2zm0 0"/></clipPath><clipPath id="X"><path d="M144 330h1v8h-1zm0 0"/></clipPath><clipPath id="Y"><path d="M144 328h2v3h-2zm0 0"/></clipPath><clipPath id="Z"><path d="M144 317h2v8h-2zm0 0"/></clipPath><clipPath id="aa"><path d="M144 315h1v3h-1zm0 0"/></clipPath><clipPath id="ab"><path d="M465 317h3v2h-3zm0 0"/></clipPath><g id="ac" clip-path="url(#clip1)"><path fill="#fff" fill-opacity="0" fill-rule="evenodd" d="M0 0h1000v1000H0zm0 0"/><path fill="#d3d3d3" fill-opacity="0" fill-rule="evenodd" d="M162.15234 355.86719l-.23437.29297.0586.23437.11718.17188.17578.23437.29297.34766.11328.0586.11719-.17188.0586-.23438.17577-.17578.46485-.17578h.69922l.23437.29297.28906.8164.0586.17579.17578.23046.35156.23438.69922.69922.17188.17578.23437.34765.23438.41016.28906.58203.41015.46485.23047.23437.23438.17578.11719.23047.17578.29297.17187 1.16406v.23438l.0586.28906.05859.11719.11719.11719.34765.41015.11719.17188.17578.17578.17578.23437.11719.17188.17188.35156.05859.23438.23437.40625.23438-.0586-.17578.17578-.0586.92969h-.58203l-.23437-.11328-.34766.11328-.11719.11719-.05859.29297-.0586.17578-.11718.17187-.46484.29297-.0586.23438-.0586.11328v.64453l.0586.17187v.41016l.0586.0586v.40624l.05859.40625.11719.17579.05859.05859.23047.64062-.0586.29297v.69922l-.05859.58203v.23438l-.0586.23047-.05468.35156v1.92187l.05469.1172h.42578l-.36719.11718-.02344.35156.89063 1.16797 1.74219.53906 1.33984.35938v.53906l.08984.8086.53516.71484 1.51953.26953.89063-.08594.08984 1.16406.53516.1797 1.16015-.1797 2.05469-.98437 1.16016-.36328 1.8789-.17578 1.69531-.1797-.17968.71876-1.51563.08594-1.25.08984-.80469.26953-1.07421.8086.26953.71875.53515.89843-.17968.625-.26563.8086.26563 1.07812.625.89844.80468.17969 1.25-.1797-.26562.72267.09766.5039.05468.29297v.17188l.0586.29296v.40625l.17578.1172.35156.11718h.40625l.29297-.17578.11328-.11719.0586-.11719.11718-.23047.0586-.17578.35156-.46484.23047-.17578.17578-.0586.17578.0586.0586.17578.11718.98828.05469.46875.0586.17188.11718.23437.17578.0586.8164.05859h.28907l.11719.23437.05859.40625.0586.35156v1.10547l.11718.29297.11719.34766.28906.69922.17578.35156.58203.7539.35157.17579.17187.0586.46875.23437.64063.46484.34765.23438.29297.17578.29297.05468.23047.0625.8164.34766.29297.17578.11328.17188.35157.35156.11719.17578.52343.64063v.28906l.0586.35156v.34766l.05859.35156.0586.28906.11718.0586.17188.05859h.17578l.58203.23437.17578.1172.17578.28905.17578.23438.11328.23437.29297.23047.11719.11719v.41016l.0586.05468.28906.23438.23437.11719.0586.11718.11718.17188.0586.11719.23047.23437.05859.17578.23437.0586.1172.05859-.1172.11328-.05859.11719v.11719l-.11719.29296-.11719.28907v.58203l.17579.11719.11718.05859.0586.11719.11719.11719.11328.05859.17578.34765.0586.35157.05858.40625v.17578l-.05859.17578-.11719.69922v.17187l.1172.17579.29296.29296h.40625l.17578.1172.11719.17187.11719.29296v.23438h-.52735l-.23047-.23438h-.23437l-.17578.0586-.0586.69922.0586.34765.11719.17579.17578.41015.11718.23047.28907.46875.17578.05469h.52344l.23437.0586.75781.64062.0586.29296v.23438l.05859.0586.23047.34765v.35156l-.11719.17188v.29297l.29297.28906.29297.17578.17187.0586.29297.17577.29297.1172.58203.40624.28906.23438.29297.17578.21875.16015.01563.01172.23047.17579.64062.52343.17578.23438.1172.17578.17577.17578.11328.17188v.64062l.1172.17578.46874.11719.58203.11719.23438.05859.23047.11328.29297.11719.11328.0586.58593.35156.28907.17187.17578.0625.17578.05469.17578.0586.69922.35155.28906.17579.23438.05468.28906.17578.23437.1172.64063.40624.29297.11719.17187.0586.23438.05859.41015.05859.23047.0586.23438.11718.0586.17188-.41017.17578.46875.0586.0586.29296.11328.23438.17578.05468.23438.0586.17578.05859.40625.11719.64062.23437.11719.17188.0586.23437v.17578l-.0586.1172-.0586.40624.23438.23438.11719.05859.34766.11719.64062.23047.17578.11718.28906.1172.17578.17577.23438.46485.58203 1.10546.17578.17579.34766.17578.17578.11719.35156.11718 1.04688.52344.23437.0586.46485.11327.29297.0586.46484.17578.75781.58203.23438.23438.34765.46484.17578.17578.28907.23438.8164.69921.29297.17579.28906.28906.29297.17578.29297.28906.69531.64063.17578.17578.29297.23437.28907.23438.46875.28906.64062.58203.34766.23438.23437.29297.34766.34765.35156.46485.9336.99218.34765.40625.11719.17579.23437.05859.11328.11719.64454.17578.23047.11328.23437.0586.29297.17577.23047.1172.9336.69921.40624.40625.23438.17578.40625.17578.23437.11719.8164.34766.34766.23437.23438.11719.29297.28906.23047.11719.7578.35156.35157.17188.23047.05859.29297.11719.23437.0586.8711.17577h.8164l.46875.23047.17188.0586.875.69921.46484.1172.29297.05858.17578.0586.23047.0586.46875.05859.34766.05859.35156.0586.40625.05859h.29297l.17187.0586v.23046l.17578.17578h.29297l.34766.0586.35156.05859.69922.11719h.64063l.46484-.23438.29297-.17578.17187-.11719.41016-.17187.28906-.17578.9336-.46485.46875-.29297.52343-.29296.46485-.17188.46484-.17578 1.05078-.46485.28906-.11718.41016-.11719.28906-.11719.52735-.17578 1.51562-.69922.58203-.34765.28907-.0586.29297-.0586.34765-.11718.875-.23047.35156-.11719h.11329l.23437-.05859.875-.23437.23438-.0586h.8125l.35156-.0586.8164-.11718.17188-.0586.35156-.05468.29297-.0586.23047-.05859.8164-.17578.17579-.0586h.34765l.23438-.05859.46484-.11718.75781-.17188.23438-.0586h.34765l.41016-.11718.28906-.0586 1.28516-.05859h.28906l.41016-.0586.23047-.05858h.17578l.875-.1172h.40625l.41015-.11718h.34766l.35156-.11328.8711-.0586h1.75l1.04687.28907.41016.11719.28906.11718.35156.11719.28907.11719 1.05078.17187.28906.0586h.29297l.29297.05859.17187.0586.41016.05859.17187.0586.1172.05858h.11718l.11719.0586.35156.0586h.11328l.41016.0664 1.92187.39453 1.92578.39453 1.51953.44922 1.69532.71875 2.14453.80469 1.60547-.71875 1.42968-.80469 1.16016-1.07813 1.25-.44921 3.03516-.71875 1.875-.35938 2.14453-1.34765 2.23437-1.25391 2.5-1.25781 1.69531-.44922 1.78516-.17969 1.16016-.26953.625.53906 1.33984-.26953.71485-.98828.98437-1.34375.44531-.17969.80469-.35937 1.875-.53907 1.78516-.44921 1.25-.26954 1.16015-.08984 1.69922-.08984 1.96094-.26954 1.25-.08984h.53906l.625-.08984h.89063l2.14453-.17969 2.41015-.17969 2.58985-.08984 1.69531.17969 1.60938.08984 1.42968.35938 1.16016.71875 1.875.98828 1.16015 1.52734.26563.71484.6289.08985.35548.89844.53515.53906.53516 1.52734 1.07422.35938h.53515l-.80469.53515.08985 1.70703.71484 2.69532.89063.80468.89453.98829.71484 1.2578 1.78516.53907 1.51953-.17969.35547 1.34375 1.60937-.80469.98047-.53906.26953.26953.31641-.21484.21875-.14453.80078.44922.44922-.35938h.35547l.53515-.26953.53907-.71875.53515-.26953.625-.98828 1.16016.44922.83984.3711 1.39454.61718 1.6953-.17969h1.60548l1.78515.08985.17969-1.70704.53516-1.34375.80468.26954.4922.84765.40233.40625-.08984.53906v.35938l.71485.44922.71093-.26953h1.42969l.35938.98828.4453 1.25781.71485 1.34375 1.25.6289 1.69531.62891.71485-.17969.17969-.53906.98046-.08984.44922.35937.08594 1.25782-.26563.6289-.53515.17969v.53906l.71484.98438.26563.53906.98437.98828.80078 1.07813-.26562.35937-.08985.89844-.625 2.33203-.35546 2.0664-.08985 1.79298-.17969.71875-.08984.53906v1.4375l-.98047 1.88281-.35937 1.70703-.53516.89844-.80469 1.16797-.26562.53906 2.05469 1.2539.08593.35938-.35546.53906-.08985-.17968v.80859l.08985 1.4375-.44532.71484-1.07422.09375-.26562.71485.53515.89844.8047.71875 1.16015.80859 1.33984.26953.44531.35938-.35546.44921-1.78907-.08984-1.25-.44922-.71484-.71875-.625-.08984-.17578 3.58984-.1875 1.3086h89.35937V311.70313h-55.26953v49.08203l.76172.125 3.28906.54296 2.02344 2.83594v2.7539l2.35156.33204 2.34766.33203h4.05078l-1.3789 4.16016-2.02344.70703-2.02344.70312-.54297.34375-2.59375 1.6172-.1875.11718-2.02344-2.07813-.73046-2.74218-2.67188-2.07813-1.375-3.5-.0664-.08203-1.95704-2.67188 2.75-1.41796v-49.08204H294.42187v91.41407l.1172.03125.1328.01172.07422.07421.10547.04688.08985.0586.08593.05859.08985.0586.29687.29687.0586.08984.03125.11719.02734.11719.01563.13671-.03125.1172-.0586.08983-.0586.08594-.04296.10547-.04688.10156-.02734.1211v.14453l.17578.26953.14844.14844.07422.08594.07422.07421.04296.10547.0625.08985.0586.08593.04297.10547.0586.08985.04687.10156.04296.10547.0586.08594.11719.17968.07421.07422.0625.08594.0586.08984.04297.10547.0586.08985.05858.08593.0625.08985.0586.08984.04297.10156.11719.17969.07421.07422.0586.08594.07422.07421.08984.0586.10547.04687h.14844l.1328-.01562.13282.01562.10156-.04687.07422-.07422.04688-.10156-.01563-.13281v-.14844l-.04687-.10547-.02735-.11719-.04687-.10156-.02735-.1211-.04296-.10156-.0625-.08984-.04297-.10156-.04297-.10547-.03125-.11719-.01563-.13281-.01171-.13672.08593-.0586.0586-.08593.12109-.03125.04297.10547.01562.1328v.1172l.0586.10156.0586.08984.08983.0586.14844.14843.0586.08985.04296.10547-.01171.10156.08593.0586.10547.04687.08594.0586.08984.05858.07422.07422-.11719.02735-.10546.04687-.08594.0586-.07422.07421-.0586.08985-.0625.08594-.02734.12109-.04687.10156-.04297.10547-.03125.11719-.01172.13281-.01563.13281v.14844l.02735.11719.04687.10547.04297.10156.0586.08984.07421.07422.08985.0586.07422.07421.08984.0586.0586.08984.04296.10547.04688.10156.11719.03125.1328.01563h.14845l.11718-.03125.10547.04297.04297.10547.04688.10156.02734.1211L299.5 410l.02734.11719.03125.1211.02735.11718.10547.04297.10156.04687.13281-.01562.14844.14844.0625.08593.07422.07422.07031.07422.08984.0625.10547.04297.10156.04297.1172.03125.13671.01562.11719-.03125.07422-.07422.02734-.11718-.01172-.13282-.03125-.12109-.02734-.11719.04297-.10547h.11719l.08984.0625.11719.02735h.14843l.13282.01562h.14843l.13282.01563.1328-.01563h.14845l.1328-.01562.13282-.01172.13672.01172.11719-.02735.13281-.01562.1914-.0586-.05859.17579-.01562.1328-.02735.1211-.01562.13281-.0586.08594-.1328.01563-.10548.04687-.10546.04297-.1172.03125-.11718.02735-.26563.03125h-.14843l-.13281.01562-.07422.07422.05859.08594.14844.14843.11719.1797.07421.0703.08985.0625.08984.0586.08594.0586.08984.05858.10156.04297.10547.0625.10547.04297.08594.0586.10547.04687.10156.04297.17969.11719.0586.08984-.04298.10156-.04687.10547.01562.13281.22266.22266.0586.08985.04296.10156.03125.1211.04297.10155.01563.13282.03125.11718.01171.13672.03125.11719.14844.14844.10156.04297.10547.04296.1172.03125.1328.01563.13672.01563h.11719l.11719-.03125.08984-.0586.04297-.10547.04688-.10156.04296-.10547.03125-.11719.01172-.1328v-.14845l-.01172-.1328-.01562-.13282-.03125-.11719-.04297-.10547-.04688-.10547-.04296-.10156-.04297-.10547-.01563-.13281.01563-.13281.02734-.11719.03125-.11719.02735-.1211.04687-.10155.08984-.0586.08594-.0625.07422-.07422.08984-.05859.22266-.22266.0586-.08593.07421-.07422.11719-.17969.0586-.08594v-.14844l-.07423-.07421-.10156-.04688-.10547-.04297-.10156-.04297-.0586-.08984-.04687-.10547-.02734-.11719.08984-.05859.11719-.03125.10156-.04297.17969-.11719.14844-.14843.01172-.13282-.01172-.10546-.08985-.0586-.1328.01563h-.14845l-.1328.01562-.13282-.01562-.1211-.03125-.08593-.0586-.07422-.07422-.0586-.08984-.0625-.08594-.11718-.17969-.0586-.08593.03125-.1211.08594-.05859.1211-.03125.05859-.08594v-.1211l-.03125-.11718-.0586-.08984-.05859-.08594-.04687-.10547-.02735-.11719-.01562-.1328.0586-.08985.07421-.07422.08984-.0586.1172-.17968.07421-.07422.0586-.08594.14843-.14844.1211-.03125.1328-.01562.13282.01562.07422.07422.04297.10547.01562.13281-.03125.1172-.11719.03124-.1328.01172-.14844.14844-.04297.10547-.04688.10156-.02734.1211-.03125.11718v.14844l.03125.11719.04297.10546.05859.08985.07422.07031.07422.07422.11719.03125.12109.02734.11719-.02734.1328-.01563h.1172l.08984.0586.07422.07422.04687.10546.0586.08594.10156.04688.13281.01562.10547.04297.08594.0586-.01172.10546-.07422.07422-.17969.11719-.05859.08984-.08984.0586-.07032.07422-.07421.07421-.0625.08985-.02735.11719-.01562.1328.01562.13282-.01562.13281v.14844l.01562.13281.02735.1172.03125.12108.07421.07422.08985.0586.08594.0586.08984.05858.11719.03125v.08594l-.10157.04688-.08984.0586-.26563.03124-.11718.02735h-.14844l-.10547.04296-.10156.04688-.0586.08984-.0625.23438-.01171.13281-.03125.1211-.01563.1328v.29298l-.01172.1328.01172.13673.01563.1328.1328.01563.13282.01172.1211.03125.08593.0586.07422.07421.04688.10547.04296.10157.01563.1328v.44532l-.01563.13281v.44532l.03125.26562.02735.11719.01562.13281.03125.11719.08594.21094.03125.26562v.14844l-.03125.11719-.02734.11718-.03125.1211-.02735.11719-.03125.11718-.03125.1211-.01171.1328-.01563.13282.08984.0586.1172-.03125.10155.01562.04688.10547-.03125.26562v.44141l-.04297.10547-.04688.10547-.04296.10156-.04297.10547-.0586.08594-.03125.12109-.04296.11719-.03125.11719-.01563.1328.01563.13282.05859.08984.10547.04688.08594.0586.05859.08593-.01172.13672-.03125.11719-.04297.10156v.44531l-.01562.13281v.14844l-.03125.11719-.04297.10547-.02735.11719-.04687.10546-.04297.10157-.03125.12109-.02734.11719-.03125.13281-.03125.11719-.02735.11719-.04297.10546-.03125.1172-.03125.12108-.01171.13282-.01563.13281v.29688l.02734.11718v.14844l.04688.39844.02734.11719.0586.08984.12109.03125h.14844l.13281-.01563.0586.08985v.11719l-.0586.08984-.08984.0586-.10157.04296-.10546.04688-.08985.05859-.08594.0586-.13671.01562-.1172-.03125-.1328-.01563-.10157.04688-.0625.08594-.01172.13671-.01562.13282-.03125.11719-.02735.11718-.01562.13281-.03125.1211v.29687l.01563.13282.03125.11718v.14844l.01171.13281v.14844l-.02734.11719-.04688.10156-.02734.1211-.03125.11718-.0586.08985-.07421.07421-.10156.04297-.10547.04688-.11719.02734-.1211.03125-.10156-.04687.0586-.08594.10547-.04688.02734-.11718.03125-.11719.02734-.1211.03125-.11718v-.14844l.01563-.13281-.03125-.11719-.04297-.10547-.10547.01563-.07422.07422-.10156.04296-.08984.0625-.07422.07422-.04297.10157-.01563.1328-.03125.1172L304.25 426l-.03125.11719-.02734.11719-.03125.12109-.02735.11719-.03125.11718-.04297.10547-.08984.0586h-.08984l-.1172-.03125-.03124-.08594.01562-.13672-.03125-.11719v-.14844l-.01171-.1328v-.14844l-.0625-.23438-.02735-.1211-.04297-.10156-.04687-.10546-.0586-.08594-.05859-.08985-.04297-.10546-.0625-.08594-.14844-.14844-.0703-.07422-.10548-.04687-.10547-.04297-.10156-.04297-.29687-.29688-.08985-.07421-.08594-.0586-.10546-.04297-.08985-.0625-.08594-.0586-.10546-.04296-.08985-.0586-.08594-.0625-.07421-.0703-.10547-.04688-.08594-.0586-.10547-.04296-.08984-.0625-.10156-.04297-.10547-.04297-.08594-.0586-.10547-.04687-.10547-.04297-.10156-.04687-.08985-.0586-.10156-.04297-.10547-.04296-.08984-.0625-.11719-.02735-.13281-.01562-.13281.01562H299.75l-.13281.01563-.11719-.03125-.08984-.0586-.07422-.07422-.08985-.05859-.10156-.04688h-.14844l-.12109-.02734-.10156-.04297-.07422-.07422-.11719-.17968-.08984-.0586-.10156-.04297-.08985-.0625-.10547-.04296-.08984-.0586-.08594-.0586-.10547-.04687-.0586-.08594-.05858-.08984-.04297-.10547-.04688-.10156-.07422-.07422-.08594-.0586-.07421-.07421-.08985-.0586-.22265-.22265-.04297-.10547-.03125-.26563.10547-.04296h.14453l.10547.04296.07421.07422.08985.0586.08594.0586.10546.04687.08985.05859.14844.14844.0703.07422.14845.14843.0625.08594.07421.07422.08594.0586.07422.07421.08985.0625.08984.0586.08594.05859.26953.17578.10156.04688.10547.04296.10156.04297.04688-.07421.05859-.08594.07422-.07422.07031-.07422.10547.04297.07422.07422.0586.08984.04296.10156.04688.10547.04296.10547.1211.02735.11719-.02735.07421-.08984.04297-.10547.0586-.08985.07422-.07421.10546-.04297.1172-.02735.1328.01172.08985.0586.14844.14843.05859.08985.04297.10547.04687.10156.04297.10547.04297.10156.10547.04688.10547.04296.13281.01563.08594-.0586.0586-.08984.07421-.07422.10547-.04297.11719.02735.10547.04687.10156.04297.10547.04297.10156.04688.17969.11718v.11719l-.01563.13281.01563.13281.01562.13672.0586.08594.10156.04688.1211.02734.11718.03125h.14844l.11719-.03125.05859-.08984.17969-.1172.05859-.08983.07422-.07422.0586-.08594.11718-.17969.17969-.11719.11719.03125.08984.0586.04297.07422-.01563.1328v.1172l.08985.05859h.14843l.13282-.01563.1328-.01171.26563-.03125.10547-.04297.11719-.03125.1211-.02735.07421-.07421.07031-.07422.0625-.08985-.01562-.10547-.04688-.10156-.10156-.04297-.10547-.01562-.11718.02734-.26563.03125h-.14844l-.07421-.07422-.08985-.0586-.11719-.03124-.11718-.02735-.13282-.01562h-.14843l-.13282.01563h-.29687l-.10547-.04688-.14844-.14844-.04297-.10156-.05859-.08984.22266-.22266.08593-.0586.10547-.04296.11719-.03125.13281-.01563.13281.01563.13672.01562.10157.04297.1328-.01172.08985-.0625.10156-.04297.0625-.08984-.04687-.10156-.08984-.0586-.1172-.03125-.10155-.04296-.0586-.08985-.0625-.08984v-.11719l.01563-.13281.10547-.04688.07421-.07031v-.1211l-.08984-.05859-.03125-.11719.08985-.05859.07421-.07422.04297-.10547.0586-.08984.04687-.10156.01563-.13281v-.14844l-.04688-.10547-.04297-.10156-.08984-.0586-.13281-.01562-.10157-.04297-.13671-.01563-.1172-.03125h-.4453l-.13282-.01562-.13281-.01172-.13281-.01563-.11719-.03125h-.14844l-.13281-.01562-.13281-.01172-.26563-.03125-.1211-.04297-.08593-.0586-.07422-.07421v-.14844l.01172-.13281.10547-.04688.10156-.04296.13281-.01563h.15235l.13281-.01562h.29297l.1211.03125.10156.04296.08984.0586.23438.0625.12109-.04688.08984-.05859.10156-.04297.13282-.01562.10547.04296.10156.04688.13281.01172.1211-.02735h.14453l.12109-.03125.11719-.02734.10547-.04687.07421-.07422.08594-.0586.14844-.14843.0586-.08594.04687-.10547.02734-.11719.01563-.10547-.10156-.04296-.08985-.0586-.11719-.03125-.10546-.04297-.08985-.0625-.07422-.08594-.07422-.07421-.10156-.04297-.10547-.04688-.10156-.04297-.0586-.08984-.04687-.10156-.08594-.21094-.0625-.08594-.05859-.08984-.07422-.07422-.08594-.0586h-.26953l-.11719.03126-.08984.05859-.10156.04297-.13281.01562-.10547-.01562-.02735-.11719-.0625-.08984-.11718-.03125-.10157-.04297-.14843-.14844-.03125-.11719-.01563-.10546.07422-.07422.17969-.1172.11719-.02733.11718-.03125.13672.01562.10156.04297.10547.04297.10156.04687.10547.04297.1172.03125.1328.01563.1172.02734.1328.01563.10547-.01563.08985-.0586-.07422-.07421-.10547-.04297-.07422-.07422-.07422-.08984-.14844-.14844-.08593-.0586-.08985-.05859-.07422-.07422-.08984-.0586-.10156-.04687-.1211-.02734-.10156-.04688-.10547-.04296-.11719-.03125-.10156-.04297-.1211-.03125h-.14843l-.11719.03125-.10546.04297-.08594.0625-.17969.11718-.08594.0586-.08984.0586-.10547.04687-.08594.05859-.10547.04297-.10156.04297-.10547.04687-.07422.07422-.05859.08985-.0586.08593-.04687.10547-.0586.08594-.07421.07422-.13281-.01172-.1172-.03125h-.11718l-.07422.07422-.08984.0586-.07422.07421-.08984.0586-.08594.05859-.10547.04687-.10156.04297-.13672.01563-.10156-.04297-.14844-.14844-.10547-.04688h-.08594l-.10547.04688-.10156.04297-.1211.03125-.11718-.03125-.07422-.07422v-.11719l.03125-.1211.07422-.0703.0586-.08985.07421-.07422.11719-.03125.10547-.04296h.29297l.13281-.01563.13672-.01563.10156-.04296.08985-.0586.10156-.04687.08984-.0586.13281-.01171.08985.05859.13281.01172.08984-.0586.08594-.05859.10547-.04297.08984-.0586.08594-.0625.08985-.05859.14843-.14843.0586-.08594.05859-.08985.10547-.04296.13281-.01563.11719.02735.1211.03125.05859-.0586.05859-.08984.03125-.26563.02734-.11719.10547.01172.13281.01563.10157-.04297.08984-.0586.0586-.08984.07421-.07422.0586-.08984.04687-.10156.01172-.13281-.01172-.13282-.04687-.10547-.14844-.14843-.0586-.08985-.05859-.08594-.04297-.10546v-.44532l.01563-.1328v-.14845l.01172-.1328-.0586-.0586-.08984.0586-.10156-.04298-.17969-.11719-.08594-.05859-.0625-.08984-.0586-.08985-.07421-.07421-.08594-.0586-.1211.03125-.10155.01172-.10547.04688-.08594.05859-.10547.04297-.14844.14844-.08984.05859-.08594.0586-.08984.0625-.10547.04296-.13281.01563v-.1211l.10547-.04297.11718-.03125.07422-.0703.04297-.10548v-.14844l-.02734-.11718-.14844-.14844-.13281-.01563h-.14844l-.11719.03125-.10547.04297-.10156.04297-.08984.0625-.11719.02735-.07422-.07422.01172-.13281-.04297-.10157-.04297-.10547-.08984-.05859-.11719.02734-.1211.03125-.11718.03125-.10156.04297-.1211.03125-.10156.04297-.10547.04297-.08984.0586-.10156.01562v-.11719l.01562-.13281-.0586-.08985-.07421.04297-.14844.14844-.0586.08985-.07421.07421-.04688.10547-.04296.10156-.07422.07422-.0586.08985-.07422.07422-.05859.08593-.07422.07422-.08984.0625-.07422.07031-.07422.07422-.10156.01563-.13281.01562-.10547-.04296v-.1211l.14843-.14844.04297-.10156.0586-.08984.04687-.10156.04297-.10547.0586-.08985.03124-.11719.04297-.10156.03125-.1211.02735-.11718.04687-.10547.04297-.10156.04297-.10547.07422-.07031.08984-.0625.08985-.0586.10156-.04296h.29687l.26563-.03125.10547-.04297-.07422-.07422-.11719-.03125-.10547-.04297-.08984-.0586-.10156-.04687-.08985-.0586-.10156-.04296-.10547-.04297-.08984-.0625-.08594-.0586-.10547-.04296-.10156-.04297-.1211-.03125-.11718-.03125-.10157-.04297L297.5 410.25l-.10156-.04297-.08985-.0586-.04296-.10546-.01563-.13281.10156-.04297.13281-.01563.13672.01563.13282-.01563.10156-.04297.0586-.08984.01562-.10547-.08985-.0586-.07421-.07421-.10157-.04297-.08984-.0586-.14844-.14843-.04297-.10547-.01562-.13281v-.29297l-.0586-.08985-.08984-.05859-.07422-.07422-.04297-.10547-.03125-.11718-.0586-.08985-.07421-.07422-.11719-.02734-.07422-.07422-.08984-.0586-.08984-.0625-.08594-.05859-.07422-.07421-.0586-.08594-.04687-.10547-.08594-.0586-.14843-.14843-.19532-.0586-.1328.01563-.10157.04297-.07422.07422-.04688.10156-.04296.10547-.0586.08984-.0586.08594-.29687.29687-.08984.0586h-.08594l-.0625-.08594-.04297-.10547.03125-.11719.0586-.08984.02734-.11719-.01172-.13281-.08984-.0625-.10547.04688-.11719.02734-.11719.03125-.26953.17578-.10156.04688-.11719.02734-.10546.04687-.08985.0586-.10156.04297-.0586-.08594-.04687-.10547.01563-.13281.04687-.10547.07031-.07422.07422-.07031.0586-.08985v-.14843l-.04297-.10547h-.23829l-.10156.04687-.03125.11719-.02734.11719-.03125.1211-.07422.04296-.13281.01563-.07422-.04688-.04297-.10156-.04297-.10547-.04687-.10156-.04297-.10547-.1211.03125-.10156.04297-.13281.01562-.11719.03125-.10547.04297-.08984.0586-.10156.04687-.1211.02734-.13281.01563-.10156-.04297-.0586-.08985-.04687-.10546-.04297-.10157-.04297-.10546v-.1172l.0586-.08984.08593-.05859.17969-.11719.10156-.04687.10547-.04297.10547-.0586.10156-.04296.08985-.0625.10156-.04297.10547-.0586.10156-.04687.08984-.0586.10547-.04296.10156-.04297.08985-.0625.10156-.04297.13672-.01563.11719.03125.10156.04297.1211.03125.10156.04297.10546.04688.10157.04296.10547.04297.10156.04688.10547.04297.10156.04297.10547.04687.08594.0586.10546.04296.1172.03125.10546.04297.10156.04688.08985.0586.10547.04296.10156.04297.10547.04687.11719.02735.10156.04687.1211.02735h.14843l.08594-.0586.01562-.10156.0586-.08984-.02735-.1172-.07422-.07421-.11719-.17969-.07421-.07422-.08985-.07421-.17969-.1172-.08593-.05859-.10547-.04296-.10156-.04688-.26954-.17578-.05859-.08985-.07422-.07421-.0586-.08985-.04296-.10156-.03125-.11719-.01563-.13672v-.5625l-.01171-.1328-.01563-.13282-.03125-.11719-.01562-.13281-.01172-.13281-.03125-.1211-.22266-.22265-.0586-.08594-.01562-.10547.03125-.11719.13281-.01562v-91.41406H172.9922v1.45312l-.0586.23438-.35156 1.05078-.17187.52343-.1172.34766-.17577.41016-.11719.17187-.23438.29297-.23046.0586h-.35157l-.11718.05859-.23047.40625v.29297l.11719.17578.23046.23047.1172.23437.64062.75781.29297.46485.17578.23437.23047.35156.23437.34766.64063.8164.17578.46485.17187.41016.11719.69531.17578.46875.11719 1.39844.0586.46484v.875l.11718 1.04688v4.78125l-.0586.46484-.35156 1.28125-.17578.52344-.11328.41015-.35156.9297L172.93359 336l-.23437.58203-.11719.17578-.17187.34766-.17578.40625-.35157.8164-.0586.29297-.11327.29297-.11719.28906-.0586.17579-.11718.875-.0586.40625-.05859.11718-.0586.17579-.05859.17187-.23047.52734-.11718.17188v.23437l-.11719.23438-.0586.17187-.17577.58594v.28906l-.0586.17579v.29296l-.0586.11329-.05859.52734v.17187l-.05468.23438v2.6211l-.17578.8164-.1172.17578-.17577.23438-.1172.17187-.11327.23438-.58594.93359-.23047.28906-.29297.46485-.17578.23437-.28906.35156-.35156.69922-.11328.23047-.17579.41016-.17578.23046-.40625.52735-.8164.69922-.29297.17187-.28906.23438-.17579.11719-.17578.17578-.52344.40625-.52734.17578-.17187.17578-.23438.05469-.64062.17578h-.75782m12.21094 31.02344l-1.07422.44921.35938.89454 1.25-.71485.44531-.53906-.98047-.08985"/><path fill="#d3d3d3" fill-opacity="0" fill-rule="evenodd" d="M201.50781 416.59766h-.89453l.44922.6289.98047.35938.80469-.08985.4453-.98828-.17577.08985-.71485-.35547-.89453.35547m154.6211 59.0703l-.0586-.52343v-.29297l.11328-.29297.0586-.23046.46875-.46875h.11328l.11719-.11329.11718-.05859h.17579l.23437-.0586h.34766l.23437.0586.11719.0586.23047.17187.0586.17578.11718.58203v.29297l-.11719.17578-.17187.28906-.17579.17579-.52734.52343-.23047.23438-.11719.0586h-.17578l-.11718-.0586-.40625-.29297-.17579-.11719-.11718-.0586-.0586-.11327-.05468-.1172m6.64062-10.95702l-.0586-.17188v-1.10937l.0586-.17188.17578-.0586.17188-.05858h.17578l.23437-.0586.1172.0586.05858.69921-.05859.17188-.11719.17578-.11718.0586-.23438.52343-.11328.0586h-.23438l-.05859-.1172m9.61328-14.39062l-.11719-.17578v-.69922l.29297-.875.1172-.17187.17577-.35156.11328-.23047.1172-.29297.35155-.75781.1172-.23047.17187-.23438h.17578l.11719-.0586h.64062l.11719.0586.23437.23438.17188.11328.35156.29297.11719.11718.11328.17579v.11328l.11719.05859.11718.11719v.69922l-.05859.17578v.23047l-.0586.17578-.34765 1.05078-.11719.23047-.11719.23437-.11718.0586-.23047.23437-.64063.28906h-.875l-.41015-.11718-.64063-.46485"/><path fill="none" stroke="#bebebe" stroke-linecap="round" stroke-linejoin="round" stroke-miterlimit="10" stroke-width=".5" d="M467.95703 311.69531H144.02734v168.625h323.9297v-168.625"/><g clip-path="url(#a)"><path fill="#fff" fill-opacity="0" fill-rule="evenodd" d="M144 475.89063v4.4375h.0039H144V311.67188h.0039H144v164.21875"/></g><g clip-path="url(#b)"><path fill="#fff" fill-opacity="0" fill-rule="evenodd" d="M144.0039 480.32813V311.67188h35.50391v55.03125l-2.67187 2.66796-1.76953 2.1797-2.35938 2.2578 2.35938 2.25391 4.4414.4336 3.19531-2.6875-.13671-4.4375-3.0586-2.66798v-55.03125h31.0664v58.40235l-4.4375 2.08984-1.70312 1.64453-2.41015 4.4375-.32422.6211-4.4375 2.72265-1.10547 1.09375-2.6875 4.44141-.64844.85938-3.42578 3.57812-.40625 4.4375-.60547 3.1211-.53125 1.3164-3.52734 4.4375-.3789.24219-3.66798 4.19922-.74218 4.4375-.02735.07421-4.4414 4.26954-.14844.09375-4.28906 1.8164-4.4375.22656-4.4375 1.03907-1.15235 1.35547-1.60547 4.4414-1.67968 3-1.40625 1.4375-3.03516 3.20703-1.25 1.23047 1.25 1.60938 4.4414 1.4336 4.4375-2.39063.6836-.65235 3.7539-1.71484 3.33594-2.72266 1.10157-1.39062 4.4375-.21875 4.4414-.61719 4.4375-.32031 1.40625-1.89063 3.03125-1.2539 3.16797-3.1875 1.26953-1.22266 3.77344-3.21484.66797-.3086 4.1289-4.1289.3086-1.14063 2.1914-3.29687 2.2461-3.3086 4.4375 1.05078 2.20312 2.25782 2.23828 1.57812 4.4375 2.20703.89454.65235 3.54297 2.43359 4.4375-.01563 4.4375-.3125 3.16796 2.33204 1.27344.97265 1.07813-.97265 1.46875-4.4375-2.54688-3.33594-1.0586-1.10156 1.0586-1.6797 2.28906-2.76171 2.14844-.73828 3.48047-3.69922L243.4961 396l-1.85157-1.76172-4.4375 1.14453-4.29297-3.82031 3.6289-4.4375-3.77733-3.01953-1.58204-1.42188-2.85547-2.4414-4.4375-1.01172-.20312-.98438-1.41797-4.4375-2.8164-2.63671-4.4375-.64454-4.44141-.45312v-58.40235h71.01562v51.44532l-4.4375.70312-2.05078 1.11328-2.39062.60938-3.4414 3.82812.53515 4.4375-1.53125 2.22266-4.4375-1.30469-.80078-.91797.80078-.98437 3.70312-3.45313-3.70312-3.59375-3.1875-.84375-1.25-1.14843-1.57422 1.14843-2.86719 1.35157-4.4375.48046-4.32422 2.60547-.11328.35547-2.0586 4.08203 2.0586 1.41797 4.4375 2.3086.63672.71093-.63672.35547-4.2461 4.08203 4.2461 3.64844 1.1836.79297 3.2539 3.58203 4.4414.42578 1.19141.42969 3.2461 2.16406 4.4375-.08984 2.08203-2.07422 2.35547-.80469 4.4414-1.15234 2.3711-2.48047-2.3711-3.97656-.1914-.46485.1914-.55468 4.4375-2.40625 3.5586-1.47657.8789-.15625 4.4375-1.3789 4.4375.07812 1.97657-2.98047 1.40234-4.4375-3.3789-3.2578-4.4375-.03517-4.4375-.07812-2.73438-1.0664-1.70313-1.81641v-51.44531h57.69922v50.5703l-3.29687 2.69141 3.29687 3.32422 4.4375-.46094v6.02344l-4.4375 1.94922-1.375 2.47656 1.375 1.02735 4.4375 2.76953v2.82812l-4.4375.01954-3.89062 2.23437-.55078.58203-2.32813 3.85547 2.32813 3.6289 1.2578.8086-1.2578 3.3086-.46485 1.1289.46485.27734 4.4414 1.66016 4.4375-1.82813 4.4375.21094 4.4375 2.14844 4.14063-2.46875-4.14063-2.9375-4.4375 2.66797L345.21094 396l-1.48438-2.14453-1.11719-2.29297 1.1172-2.07422 1.26952-2.36328-1.26953-2.2539v-2.82813l3.10938-3.79688-3.10938-4.42578v-6.02344l1.8789-2.86328-1.8789-2.40625-4.4375-.28515v-50.57031h8.42188l.45312.45703.51172-.45704h3.92578v26.54297l-.17187.08594.17187.10156v51.32422l-1.80469 1.83594 1.8047 3.1914 1.96484-3.1914-1.96485-1.83594v-51.32422l.20313-.10156-.20313-.08594v-26.54296h8.8789V413.1914l-.60155.5625-3.83594 1.55468-2.76563 2.88282.9336 4.4375-.69922 4.4414 2.53125 4.20703 4.34765-4.20703.08985-.02344 3.78906-4.41796-.98047-4.4375-2.17187-4.4375-.63672-.5625V311.67187h8.875v77.79688l-2.09766 2.09375.29688 4.4375 1.80078 1.57813v38.58593l-3.71485 4.21875-.72265 2.1914-2.7461 2.2461-1.6914 2.9961-1.11328 1.4453 1.11328 1.5586 4.4375.3125 1.03906 2.5664-1.03906 1.48829-4.4375 1.13672-2.26563 1.8125-1.03906 4.4375 3.30469 2.9375 2.10547 1.5039 2.33203 2.08204 4.4375.89843 4.4375.11329 4.4414-.54297 2.29688-2.55079 1.59375-4.4414.05078-4.4375.4961-.41016 4.15234-4.02734-4.15235-4.16016-.5664-.27734.5664-2.76953.96485-1.67188-.96485-.77344-4.4375-2.25-4.4414-1.28515-.33203-.1289-4.10547-4.21876v-38.58594l4.4375.39454L376.78125 396l-1.98828-3.375-.59375-1.0625-3.84375-2.09375v-77.79688h22.1914v87.94532l-1.68359.82031-2.7539.84375-4.4375 1.98828-4.4375 1.53906-.0547.06641-1.84765 4.4414 1.90235 2.0625 4.4375 1.78516.60937.58985-.60938 1.27343-4.4375-.15625-4.4414.27735-3.98047 3.04297 3.98047 3.41406 4.4414-1.2539 4.4375 1.80859.1875.46875-.1875 1.46484-.74609 2.97656.7461 3.13281.21093 1.3047-.21094.3789-2.26562 4.0586 2.26563 2.1328 3.625-2.1328.8125-.47266.8164.47265 3.6211 2.36328 4.4375.76172 4.4414.28125 4.05078-3.40625.38672-1.10547 4.4375-2.625.66406-.70703 3.21875-4.4375.5547-.76562 4.21874-3.67578-4.21875-2.66407-4.4375-.8203-4.4375.17968-4.4375.4414-3.07031 2.86329-1.3711.6289-4.4375.32813-1.33593-.95703-.3125-4.4375 1.60156-4.4375.04688-.54297.71875-3.89453.80859-4.44141-.44531-4.4375-1.08204-.82031v-87.94531h26.63282V441.6914l-3.08594 3.1289-.95313 4.4414-.40234 2.6836-.78125 1.7539-2.60937 4.4375-1.04688 3.14845-.59765 1.28906.59765.60937.6836-.60937 3.7539-1.8125 4.4414-.1875 4.4375.40625 2.9375-2.84375 1.5-1.5625 2.98438-2.875-2.98437-3.15235-2.11328-1.28515-2.32422-1.92188-1.35547-2.51953-3.08203-3.1289V311.67187h4.4375v108.02735l-4.26563 2.92969 3.39844 4.4414.86719.8164 4 3.6211.4375.48828 2.1836 3.94922 2.2539 3.38672 2.13672-3.38672-.33985-4.4375-1.79687-1.82031-1.35938-2.61719 1.35938-4.22265.21094-.21875-.21094-.21094-4.4375-2.48047-4.4375-.23828V311.67187h44.3789v168.65625H144.00391"/></g><path fill="#50fcfc" fill-rule="evenodd" d="M152.875 437.55469l-1.25-1.60938 1.25-1.23047 3.03516-3.20703 1.40625-1.4375 1.67968-3 1.60547-4.4414 1.15235-1.35547 4.4375-1.03906v4.64453l-4.4375 1.92578-.13282.26562-1.55859 4.4375 1.6914 1.41406 2.96094-1.41406 1.47657-1.5664 2.11328-2.8711-2.11328-2.1914v-4.64454l4.4375-.22656 4.28906-1.8164.14844-.09375 4.4414-4.26954.02735-.07421.74218-4.4375 3.66797-4.19922.3789-.24219 3.52735-4.4375.53125-1.3164.60547-3.1211.40625-4.4375 3.42578-3.57813.64844-.85937 2.6875-4.4414 1.10547-1.09376 4.4375-2.72265.32422-.6211 2.41015-4.4375 1.70313-1.64453 4.4375-2.08984v1.41015l-3.23828 2.32422-1.19922.36329-3.58594 4.07421-.85156 1.62891-3.46484 2.8086-.97266 1.26171-2.51953 3.17969-1.92188 2.55469-1.80078 1.88281L192.65625 396l-2.32031 4.4375-1.16016 4.4375-.79297.80078-4.26562 3.64063-.17188.22656-2.63672 4.21094-1.33593 4.4375-.46485 3.48437-.41797.95313.41797.19921 4.4375.46094 4.4375-.26562.39063-.39453 4.04687-3.90235.6289-.53515 3.8125-1.75782 2.6797-2.67968 1.47265-4.4375-4.15234-4.39454-.125-.04687-.26953-4.4375.39453-.28516.26953.28516 4.16797 4.28125 4.4375-.73438 4.4375-2.33984.57422-1.20703L212.7539 396l-2.1797-3.23438-4.4375-.40234-3.01562-.80078 3.01563-4.02344 4.4375.44531 4.4414 2.89063 4.4375.53906.47657.14844 3.96094 1.96484 4.4375.3086 2.8203-2.27344L232.5 387.125l-4.17188-4.02734-4.4375.73828-4.4375-.16797-3.37109-.98438 3.3711-3.51171v3.35937l-.14844.15234.14844.04297.77734-.04297-.77734-.15234v-3.35938l.91406-.92578-.91406-3.53515-.34375-.90235-4.09375-1.49609-4.44141-.82813v-1.41015l4.4414.45312 4.4375.64454 2.81641 2.63671 1.41797 4.4375.20313.98438 4.4375 1.01172 2.85546 2.4414 1.58203 1.42188v7.625l-4.4375 3.4414-4.4375.19922-4.4375-1.26562-4.4375-1.39844L214.14453 396l-.66797 4.4375-.35937 4.4375 1.89844 1.84375 4.4375-.99219 2.98437-.85156 1.45313-.76172v3.33985l-4.4375 1.4453-.75391.41798.7539.4375 4.4375 2.80859 4.4375-2.14453 1.10157-1.10156-1.10156-.6836-4.4375-1.17969v-3.33984l4.4375-.35156 4.4375-1.08985 1.51171-2.23437L236.5 396l-3.73438-4.26953v-7.625l3.77735 3.01953-3.6289 4.4375 4.29296 3.82031 4.4375-1.14453v4.46094l-4.4375 1.125-.3711.61328.3711.75 4.4375.26953.95703-1.01953-.95703-1.73828v-4.46094L243.4961 396l1.62891 4.4375-3.48047 3.69922-2.14844.73828-2.28906 2.76172-1.0586 1.67969 1.0586 1.10156 2.54688 3.33594-1.46875 4.4375-1.07813.97265-1.27344-.97265-3.16797-2.33204-4.4375.3125-4.4375.01563-3.54296-2.4336-.89453-.65234-4.4375-2.20703-2.23829-1.57812-2.20312-2.25782-4.4375-1.05078-2.2461 3.3086-2.1914 3.29687-.3086 1.14063-4.1289 4.1289-.66797.3086-3.77344 3.21484-1.26953 1.22266-3.16797 3.1875-3.03125 1.2539-1.40625 1.89063-4.4375.32031-4.4414.61719-4.4375.21875-1.10157 1.39062-3.33593 2.72266-3.75391 1.71484-.6836.65235-4.4375 2.39062-4.4414-1.4336"/><path fill="#00e8fc" fill-rule="evenodd" d="M161.7539 432.92188l-1.6914-1.41407 1.5586-4.4375.1328-.26562 4.4375-1.92578 2.11329 2.1914-2.11328 2.8711-1.47657 1.5664-2.96093 1.41406"/><path fill="#50fcfc" fill-rule="evenodd" d="M175.0664 376.0625l-2.35937-2.2539 2.35938-2.25782 1.76953-2.17969 2.67187-2.66796v2.66015l-.00781.00781-.22656 4.4375.23437.04688.05469-.04688-.04688-4.4375-.0078-.0078v-2.66017l3.05859 2.66797.13672 4.4375-3.19532 2.6875-4.4414-.43359"/><path fill="#00e8fc" fill-rule="evenodd" d="M179.50781 422.82813l-.41797-.19922.41797-.95313.46485-3.48437 1.33593-4.4375 2.63672-4.21094.17188-.22656 4.26562-3.64063.79297-.80078 1.16016-4.4375L192.65625 396l-1.63672-4.4375 1.80078-1.88281v13.35156l-.6211 1.84375-3.8164 3.85156-.6914.58985-3.33594 4.4375 1.7539 4.4375 2.27344 1.55859 1.59766-1.5586 2.83984-1.90624 4.4414-2.26563.26173-.26562 2.67187-4.4375-2.9336-3.10547-3.70312-1.33594-.73828-1.84375v-13.35156l1.92188-2.55469 2.51953-3.17969.97266-1.26172 3.46484-2.80859.85156-1.6289 3.58594-4.07423 1.19922-.36328 3.23828-2.32421v2.34765l-4.4375 1.33985-2.70313 3.07421-1.73437 3.3086-1.39453 1.1289-3.04297 3.94141-.39453.5-.91016 4.4375 1.30469 4.2539.0625.1836 4.16797 4.4375.20703.21484 4.4375 1.44141 2.25-1.65625L210.40625 396l-4.26953-2.21484-4.4375.60937-3.73438-2.83203 2.35157-4.4375 1.3828-.4961 4.4375-1.49218 3.21095-2.45313 1.22656-.79687 4.4414-3.25781v5.55859l-2.80078 2.9375 2.80078 2.28906 4.4375.05469 4.4375-.16406 4.19922 2.25781.23828.04297.0586-.04297 1.88281-4.4375-1.9414-1.875-4.4375 1.02344-8.875-2.08594v-5.5586l.36328-.3828-.36328-.58204-4.44141-3.83203v-2.34765l4.4414.82812 4.09375 1.4961.34375.90234.91407 3.53515-.91406.92579-3.3711 3.51171 3.3711.98438 4.4375.16797 4.4375-.73828L232.5 387.125l-1.35156 4.4375-2.82031 2.27344-4.4375-.3086-3.96094-1.96484-.47656-.14844-4.4375-.53906-4.44141-2.89063-4.4375-.4453-3.01563 4.02343 3.01563.80078 4.4375.40235L212.7539 396l-1.60547 4.4375-.57422 1.20703-4.4375 2.33985-4.4375.73437-4.16797-4.28125-.26953-.28516-.39453.28516.26953 4.4375.125.04688 4.15234 4.39453-1.47265 4.4375-2.6797 2.67968-3.8125 1.75782-.6289.53515-4.04687 3.90235-.39063.39453-4.4375.26562-4.4375-.46094m0-48.97265l-.23437-.04688.22656-4.4375.00781-.0078.00781.0078.04688 4.4375-.05469.04688"/><path fill="#00d4fc" fill-rule="evenodd" d="M186.10938 418.1914l-1.75391-4.4375 3.33594-4.4375.6914-.58984 3.8164-3.85156.6211-1.84375.73828 1.84375 3.70313 1.33594V407.5l-4.4414.75-1.05079 1.0664-3.38672 4.17579-.1914.26172.1914.40234 4.4375-.03516.71094-.36718 3.73047-1.71875 1.71484-2.71875-1.71484-1.81641v-1.28906l2.9336 3.10547-2.67188 4.4375-.26172.26562-4.4414 2.26563-2.83985 1.90625-1.59766 1.55859-2.27344-1.5586"/><path fill="#00c4fc" fill-rule="evenodd" d="M188.38281 414.15625l-.1914-.40234.1914-.26172 3.38672-4.17578 1.05078-1.06641 4.4414-.75v1.28516l-1.57421.53125 1.57422.78906.5-.78906-.5-.53125V407.5l1.71484 1.8164-1.71484 2.71876-3.73047 1.71875-.71094.36718-4.4375.03516"/><path fill="#00b8fc" fill-rule="evenodd" d="M197.26172 410.10547l-1.57422-.78906 1.57422-.53125.5.53125-.5.78906"/><path fill="#00d4fc" fill-rule="evenodd" d="M197.26172 395.8164l-1.30469-4.2539.91016-4.4375.39453-.5 3.04297-3.9414 1.39453-1.12891 1.73437-3.3086 2.70313-3.07421 4.4375-1.33985v2.17969l-4.4375.16406-1.82422 2.07031.35938 4.4375 1.46484.33985.44531-.33985 3.99219-2.59375 2.33594-1.84375-2.33594-2.23437v-2.17969l4.4414 3.83203.36329.58203-.36328.38282-4.44141 3.2578-1.22656.79688-3.21094 2.45313-4.4375 1.49219-1.38281.49609-2.35157 4.4375 3.73438 2.83203 4.4375-.60937v1.42578L203.97266 396l2.16406 3.6289L207.66016 396l-1.52344-.78906v-1.42578L210.40625 396l-2.01953 4.4375-2.25 1.65625-4.4375-1.4414-.20703-.21485L197.32422 396l-.0625-.1836"/><path fill="#00c4fc" fill-rule="evenodd" d="M206.13672 399.6289L203.97266 396l2.16406-.78906 1.52344.78906-1.52344 3.6289m-1.46484-16.9453l-.35938-4.4375 1.82422-2.07032v.9961l-.94531 1.07421.9453 2.4922 4.4375-2.44532.0586-.04688-.0586-.05468-4.4375-1.01954v-.99609l4.4375-.16406 2.33595 2.23437-2.33594 1.84375-3.99219 2.59375-.44531.33985-1.46484-.33985"/><path fill="#00b8fc" fill-rule="evenodd" d="M206.13672 380.73828l-.94531-2.49219.9453-1.07421v1l-.0625.07421.0625.16797.3086-.16797-.3086-.07421v-1l4.4375 1.01953.0586.05468-.0586.04688-4.4375 2.44531"/><path fill="#00a8fc" fill-rule="evenodd" d="M206.13672 378.41406l-.0625-.16797.0625-.07421.3086.07421-.3086.16797"/><path fill="#00d4fc" fill-rule="evenodd" d="M215.01563 389.41406l-2.80079-2.28906 2.80078-2.9375v1.875L214 387.125l1.01563.82422 4.4375-.42188 1.07421-.40234-1.07422-.32813-4.4375-.73437v-1.875l8.875 2.08594 4.4375-1.02344 1.94141 1.875-1.88281 4.4375-.0586.04297-.23828-.04297-4.19922-2.25781-4.4375.16406-4.4375-.05469"/><path fill="#fff" fill-opacity="0" fill-rule="evenodd" d="M213.47656 400.4375l-.35937 4.4375 1.89844 1.84375 4.4375-.99219 2.98437-.85156 1.45313-.76172 4.4375-.35156 4.4375-1.08985 1.51171-2.23437L236.5 396l-3.73438-4.26953-4.4375 3.4414-4.4375.19922-4.4375-1.26562-4.4375-1.39844L214.14453 396l-.66797 4.4375"/><path fill="#00c4fc" fill-rule="evenodd" d="M215.01563 387.94922L214 387.125l1.01563-1.0625 4.4375.73438 1.07421.32812-1.07422.40234-4.4375.42188"/><path fill="#00e8fc" fill-rule="evenodd" d="M219.45313 409.7539l-.75391-.4375.7539-.41796 4.4375-1.44531 4.4375 1.17968 1.10157.6836-1.10156 1.10156-4.4375 2.14453-4.4375-2.8086"/><path fill="#fff" fill-opacity="0" fill-rule="evenodd" d="M219.45313 382.53125l-.14844.15234.14844.04297.77734-.04297-.77734-.15234"/><path fill="#00e8fc" fill-rule="evenodd" d="M237.20703 401.1875l-.3711-.75.3711-.61328 4.4375-1.125.95703 1.73828-.95703 1.01953-4.4375-.26953"/><path fill="#50fcfc" fill-rule="evenodd" d="M246.08203 375.22656l-2.0586-1.41797 2.0586-4.08203.11328-.35547 4.32422-2.60546 4.4375-.48047 2.86719-1.35157 1.57422-1.14843 1.25 1.14843 3.1875.84375 3.70312 3.59375-3.70312 3.45313-.80078.98437.80078.91797 4.4375 1.30469v5.5586l-.5 1.09374.5.47266.42187-.47266-.42187-1.09375v-5.55859l1.53125-2.22266-.53516-4.4375 3.4414-3.82812 2.39063-.60938 2.05078-1.11328 4.4375-.70312v2.96484l-4.4375.28906-4.4414 2.23047-.6914.76953.16796 4.4375.04297 4.4375-1.52735 4.4375-2.42968 2.72266-2.88281-2.72266 1.70703-4.4375-3.26172-1.7539-2.33985-2.6836 2.33985-2.8789 1.67578-1.5586-1.67578-1.625-4.4375.08204-2.66016 1.54296-1.78125 1.4922-4.4375 2.23827-.0664.70703.0664.03907 3.92969 4.39843-3.92969 2.20313-2.32422 2.23437 2.32422 1.9961 3.64453 2.44531.79297.8711 4.4414 1.10937 2.48048-1.98047 1.95703-2.40625 2.23047 2.40625 2.20703 2.86719 4.4375-.44922 3.97265-2.41797-1.84765-4.4414-1.66016-4.4375 3.97656-.84376 4.4375-.95312 4.4375-.28906 4.12891-2.35157.3086-.46875 4.4375-1.49609 1.32421-2.47266-1.32422-1.27343-4.4375-.16016-4.4375-.27344-4.4375-1.58203v-2.96484l1.70313 1.8164L286.02734 366l4.4375.07813 4.4375.03515 3.37891 3.25781-1.40234 4.4375-1.97657 2.98047-4.4375-.07812-4.4375 1.3789-.8789.15625-3.5586 1.47657-4.4375 2.40625-.1914.55468.1914.46485 2.3711 3.97656-2.3711 2.48047-4.4414 1.15234-2.35547.80469-2.08203 2.07422-4.4375.08984-3.2461-2.16406-1.1914-.42969-4.4414-.42578-3.25392-3.58203-1.18359-.79297-4.2461-3.64844 4.2461-4.08203.63672-.35547-.63672-.71093-4.4375-2.3086"/><path fill="#00e8fc" fill-rule="evenodd" d="M250.51953 384.67969l-2.32422-1.9961 2.32422-2.23437 3.92969-2.20313-3.92969-4.39843-.0664-.03907.0664-.70703 4.4375-2.23828v9.4375l-3.51953 2.38281 3.51953 2.51563 1.96484-2.51563-1.96484-2.3828v-9.4375l1.78125-1.4922 2.66016-1.54296v8.01562l-4.05078 2.40234 3.4375 4.4375.61328 1.60157 2.02734-1.60157.71485-4.4375-2.7422-2.40234v-8.01563l4.4375-.08203 1.67579 1.625-1.67578 1.5586-2.33985 2.8789 2.33985 2.6836 3.26172 1.7539-1.70704 4.4375 2.88282 2.72266 2.42969-2.72266 1.52734-4.4375-.04297-4.4375-.16797-4.4375.6914-.76953v17.0625l-1.17968 1.46094 1.17969.39453.65234-.39453-.65234-1.46094v-17.0625l4.4414-2.23047v2.89454l-.18359.10546.1836 2.25 4.4375-1.95312.3164-.29688-.3164-.09375-4.4375-.01171v-2.89454l4.4375-.28906 4.4375 1.58203 4.4375.27344 4.4375.16016 1.32421 1.27343-1.32422 2.47266-4.4375 1.4961-.30859.46874-4.1289 2.35157-4.4375.28906-4.4375.95312-3.97657.84375 1.66016 4.4375 1.84765 4.44141-3.97265 2.41797-4.4375.44922-2.20703-2.86719-2.23047-2.40625-1.95703 2.40625-2.48047 1.98047-4.4414-1.10938-.79298-.87109-3.64453-2.44531"/><path fill="#00d4fc" fill-rule="evenodd" d="M254.95703 385.19922l-3.51953-2.51563 3.51953-2.3828v2.2578l-.1836.125.1836.13282.10547-.13282-.10547-.125v-2.2578l1.96484 2.3828-1.96484 2.51563"/><path fill="#00c4fc" fill-rule="evenodd" d="M254.95703 382.8164l-.1836-.1328.1836-.125.10547.125-.10547.1328"/><path fill="#50fcfc" fill-rule="evenodd" d="M259.39844 375.84375l-4.05078 2.40234 3.4375 4.4375.61328 1.60157 2.02734-1.60157.71485-4.4375-2.7422-2.40234v1.49219l1.03907.91015-1.03906 2.5547-1.53906-2.5547 1.53906-.91015v-1.49219"/><path fill="#fff" fill-opacity="0" fill-rule="evenodd" d="M259.39844 377.33594l-1.53906.91015 1.53906 2.5547 1.03906-2.5547-1.03906-.91015m8.875 4.2539l-.5 1.09375.5.47266.42187-.47266-.42187-1.09375"/><path fill="#00d4fc" fill-rule="evenodd" d="M272.71094 387.51953l-1.17969-.39453 1.17969-1.46094.65234 1.46094-.65234.39453m4.4414-15.89844l-.18359-2.25.1836-.10546 4.4375.01171.3164.09375-.3164.29688-4.4375 1.95312"/><path fill="#50fcfc" fill-rule="evenodd" d="M334.84766 395.1914l-2.32813-3.6289 2.32813-3.85547.55078-.58203 3.89062-2.23438 4.4375-.01953 1.26953 2.25391-1.26953 2.36328-1.11719 2.07422 1.1172 2.29297L345.21093 396l2.95312 4.16797 4.4375-2.66797 4.14063 2.9375-4.14063 2.46875-4.4375-2.14844-4.4375-.21094-4.4375 1.82813-4.4414-1.66016-.46485-.27734.46485-1.1289 1.2578-3.3086-1.2578-.8086m4.4414-26.93359l-3.29687-3.32422 3.29687-2.6914v2.63281l-.07031.0586.07031.0664.17188-.0664-.17188-.0586v-2.63281l4.4375.28515 1.8789 2.40625-1.8789 2.86329-4.4375.46093m0 11.01563l-1.375-1.02735 1.375-2.47656 4.4375-1.94922v2.91406L342 378.2461l1.72656 1.29688 1.0625-1.29688-1.0625-1.51171v-2.91407l3.10938 4.42578-3.10938 3.79688-4.4375-2.76953"/><path fill="#00e8fc" fill-rule="evenodd" d="M339.28906 365l-.07031-.0664.07031-.0586.17188.0586-.17188.0664m4.4375 14.54297L342 378.24609l1.72656-1.51171 1.0625 1.51171-1.0625 1.29688"/><g clip-path="url(#c)"><path fill="#50fcfc" fill-rule="evenodd" d="M348.67578 311.67188h-.96484l.45312.45703.51172-.45704"/></g><path fill="#50fcfc" fill-rule="evenodd" d="M352.60156 394.7539l-1.80469-3.1914 1.8047-1.83594 1.96484 1.83594-1.96485 3.1914m0-56.35156l-.17187-.10156.17187-.08594.20313.08594-.20313.10156m2.60938 84.22657l-.9336-4.4375 2.76563-2.88282v2.6875l-.1914.19532.1914.51171.85937 3.92579 3.57813 3.10156 2.66015-3.10156-2.66015-4.3672-1.4961-.0703-2.9414-.19532v-2.6875l3.83594-1.55468.60156-.5625.63672.5625 2.17187 4.4375.98047 4.4375-3.78906 4.41796-.08985.02344-4.34765 4.20703-2.53125-4.20703.69922-4.4414"/><path fill="#00e8fc" fill-rule="evenodd" d="M357.04297 418.70313l-.1914-.51172.1914-.19532 2.9414.19532 1.4961.0703v3.09376l-1.04297 1.27344 1.04297.90625.77344-.90625-.77344-1.27344v-3.09375l2.66015 4.36719-2.66015 3.10156-3.57813-3.10156-.85937-3.92579"/><path fill="#50fcfc" fill-rule="evenodd" d="M361.48047 465.51172l-3.30469-2.9375 1.03906-4.4375 2.26563-1.8125 4.4375-1.13672 1.03906-1.48828-1.03906-2.5664-4.4375-.3125-1.11328-1.5586 1.11328-1.44531 1.6914-2.9961 2.7461-2.2461.72265-2.1914 3.71485-4.21875v1.42188l-2.46485 2.79687-1.08593 4.4375.02344 4.4414 2.60937 4.4375.91797 1.6797 4.4375 1.04296.83594 1.71485-.83594 3.38672-4.4375-.76953-4.4375-1.14063-2.19531 2.96094 2.1953 1.5586 4.4375.9453 3.41798 1.9375 1.01953.27344.9961-.27344 3.4453-.71093 2.4922-3.73047-.01173-4.4375 1.95704-1.61328 2.91015-2.82422-2.91015-2.91797-3.07813-1.51953-.0664-4.4414-1.29298-.79298-4.4414-2.99218-1.71485-.65235-2.72265-2.79687v-1.42188l4.10547 4.21875.33203.1289 4.4414 1.28517 4.4375 2.25.96485.77343-.96485 1.67188-.5664 2.76953.5664.27734 4.15235 4.16016-4.15235 4.02734-.49609.41016-.05078 4.4375-1.59375 4.4414-2.29688 2.55079-4.4414.54296-4.4375-.11328-4.4375-.89843-2.33203-2.08204-2.10547-1.5039"/><path fill="#00d4fc" fill-rule="evenodd" d="M361.48047 423.53516l-1.04297-.90625 1.04297-1.27344.77344 1.27344-.77344.90625"/><path fill="#00e8fc" fill-rule="evenodd" d="M365.91797 464.13281l-2.19531-1.5586 2.1953-2.96093 4.4375 1.14063 4.4375.76953.83595-3.38672-.83594-1.71485-4.4375-1.04296-.91797-1.6797-2.60938-4.4375-.02343-4.4414 1.08594-4.4375 2.46484-2.79687v2.36719l-.375.42968.375 4.03516.02344.40234-.02344.1289-1.33985 4.3125 1.33985 1.95704 1.07812-1.95703 3.35938-1.625v.84765l-1.60547.77735 1.60547 3.14844 3.27734-3.14844-3.27734-.77735v-.84765l3.59375-2.8164-3.59375-2.91016-4.01953-1.52735-.41797-.42969v-2.36718l2.72265 2.79687 1.71485.65235 4.4414 2.99218v7.69922l-2.05859 1.97266 1.98047 4.4375-.23828 4.4375.3164.2461.16407-.2461-.11328-4.4375 4.38671-3.61719.84375-.82031-.84375-.84766-4.4375-1.125v-7.69922l1.29297.79297.06641 4.4414 3.07813 1.51954 2.91015 2.91797-2.91015 2.82422-1.95704 1.61328.01172 4.4375-2.49219 3.73047-3.4453.71094-.9961.27343-1.01953-.27344-3.41797-1.9375-4.4375-.9453"/><path fill="#50fcfc" fill-rule="evenodd" d="M368.55469 396l-.29688-4.4375 2.09766-2.09375 3.84375 2.09375.59375 1.0625 1.98828 3.375-1.98828 1.97266-4.4375-.39454L368.55469 396"/><path fill="#00d4fc" fill-rule="evenodd" d="M370.35547 451.21875l-1.33985-1.95703 1.33985-4.3125.02344-.1289-.02344-.40235-.375-4.03516.375-.42969.41797.4297 4.01953 1.52734v.875l-3.08594 2.03515 3.08594 1.97266 2.51562-1.97266-2.51562-2.03515v-.875l3.59375 2.91015-3.59375 2.8164-3.35938 1.625-1.07812 1.95704"/><path fill="#50fcfc" fill-rule="evenodd" d="M374.79297 421.60547l-3.98047-3.41406 3.98047-3.04297v2.25l-1.03516.79297 1.03516.88671 2.14453-.88671-2.14453-.79297v-2.25l4.4414-.27735 4.4375.15625.60938-1.27343-.60938-.58985-4.4375-1.78515-1.90234-2.0625 1.84766-4.44141.05469-.0664 4.4375-1.53907 4.4375-1.98828v3.57813l-.03125.01562-4.40625 2.69922-1.59766 1.74219 1.59765 1.21093 3.33204 3.22657 1.10546 2.73828v3.23437l-1.37109 2.90235.60156 4.4414.3047 4.4375.46483.4375 4.4375 3.45703 1.98438.54297 2.45313 1.04297 4.4414.6875 2.05469-1.73047 1.74219-4.4375.64062-.6875 4.4375-2.28906 1.1914-1.46094 3.22657-4.4414-4.41797-2.05079-4.4375.45313-4.4375 1.13672-.5.46094-3.9414 1.80468-4.4375.65235-3.4375-2.45703-1-2.90235v-3.23437l1.26562-2.73828-1.26563-3.64454-.71484-.79296.71485-4.1836.03515-.25781-.03515-.01563v-3.57812l2.7539-.84375 1.6836-.82031 1.08203.82031.4453 4.4375-.80858 4.4414-.71875 3.89454-.04688.54297-1.60156 4.4375.3125 4.4375 1.33594.95703 4.4375-.32813 1.37109-.6289 3.07031-2.86329 4.4375-.4414 4.4375-.17969 4.4375.82031 4.21875 2.66407-4.21875 3.67578-.55469.76562-3.21875 4.4375-.66406.70703-4.4375 2.625-.38672 1.10547-4.05078 3.40625-4.4414-.28125-4.4375-.76172-3.6211-2.36328-.8164-.47265-.8125.47265-3.625 2.13281-2.26563-2.1328 2.26563-4.0586.21093-.3789-.21094-1.3047-.74609-3.1328.7461-2.97657.1875-1.46484-.1875-.46875-4.4375-1.8086-4.44141 1.2539"/><path fill="#00c4fc" fill-rule="evenodd" d="M374.79297 446.79297l-3.08594-1.97266 3.08594-2.03515v.875l-1.76172 1.16015 1.76172 1.1289 1.4375-1.1289-1.4375-1.16015v-.875l2.51562 2.03515-2.51562 1.97266"/><path fill="#00b8fc" fill-rule="evenodd" d="M374.79297 445.94922l-1.76172-1.1289 1.76172-1.16016v.87109l-.4375.28906.4375.28125.35937-.28125-.35937-.28906v-.8711l1.4375 1.16016-1.4375 1.1289"/><path fill="#50fcfc" fill-rule="evenodd" d="M374.79297 448.48438l-1.60547.77734 1.60547 3.14844 3.27734-3.14844-3.27734-.77735v.50782l1.13672.26953-1.13672 1.08984-.55469-1.08984.55469-.26953v-.50781"/><path fill="#00e8fc" fill-rule="evenodd" d="M374.79297 419.07813l-1.03516-.88672 1.03516-.79297 2.14453.79297-2.14453.88671"/><path fill="#fff" fill-opacity="0" fill-rule="evenodd" d="M374.79297 448.99219l-.55469.26953.55469 1.08984 1.13672-1.08984-1.13672-.26953"/><path fill="#00a8fc" fill-rule="evenodd" d="M374.79297 445.10156l-.4375-.28125.4375-.28906.35937.28906-.35937.28125"/><path fill="#00d4fc" fill-rule="evenodd" d="M379.15625 458.13672l-1.98047-4.4375 2.0586-1.97266 4.4375 1.125.84375.84766-.84375.82031-4.38672 3.61719.11328 4.4375-.16406.2461-.31641-.2461.23828-4.4375"/><path fill="#00e8fc" fill-rule="evenodd" d="M383.67188 410.52734l-1.59766-1.21093 1.59765-1.7422 4.40625-2.69921.03125-.01563.03516.01563-.03515.25781-.71485 4.1836.71485.79296 1.26562 3.64454-1.26563 2.73828-1.10546-2.73828-3.33204-3.22657m3.66797 16.54297l-.60156-4.4414 1.3711-2.90235 1 2.90235 3.4375 2.45703 4.4375-.65235 3.9414-1.80468.5-.46094v2.10156l-4.4414 2.125-2.76563.67578-1.67188.96485-1.98046 3.47265 1.98046 1.66406 4.4375 1.4961 4.44141-.66016 1.2539-2.5 3.1836-3.41015 1.50781-1.02735-1.5078-2.0586-4.4375-.74218v-2.10156l4.4375-1.13672 4.4375-.45313 4.41796 2.05079-3.22656 4.4414-1.1914 1.46094-4.4375 2.28906-.64063.6875-1.7422 4.4375-2.05468 1.73047-4.4414-.6875-2.45313-1.04297-1.98438-.54297-4.4375-3.45703-.46484-.4375-.30469-4.4375"/><path fill="#00d4fc" fill-rule="evenodd" d="M392.54688 433.17188l-1.98047-1.66407 1.98046-3.47265 1.67188-.96485 2.76563-.67578 4.4414-2.125v1.85156l-1.94531.94922-2.4961 2.09766-3.29296 2.33984 3.29296 1.33203 2.625-1.33203 1.81641-2.20703 2.0039-2.23047-2.0039-.94922v-1.85156l4.4375.74219 1.50781 2.0586-1.5078 1.02734-3.1836 3.41015-1.2539 2.5-4.44142.66016-4.4375-1.4961"/><path fill="#00c4fc" fill-rule="evenodd" d="M396.98438 432.83984l-3.29297-1.33203 3.29296-2.33984 2.4961-2.09766 1.94531-.94922 2.0039.94922-2.0039 2.23047-1.8164 2.20703-2.625 1.33203"/><path fill="#50fcfc" fill-rule="evenodd" d="M410.30078 463.1836l-.59765-.60938.59765-1.28906 1.04688-3.14844 2.60937-4.4375.78125-1.7539.40235-2.6836.95312-4.4414 3.08594-3.12891v2.10156l-1.01563 1.02734-1.17578 4.4414.27735 4.4375 1.91406 3.21095 2.52344 1.22656 1.91406.44922.46484-.44922 3.97266-4.14453.30469-.29297-.3047-.32422-.90624.32422-3.53125 3.125-1.8125-3.125.5-4.4375-2.11328-4.4414-1.01172-1.02735v-2.10156l3.08203 3.1289 1.35547 2.51953 2.32422 1.92188 2.11328 1.28515 2.98437 3.15235-2.98437 2.875-1.5 1.5625-2.9375 2.84375-4.4375-.40625-4.4414.1875-3.75392 1.8125-.68359.60937"/><path fill="#00e8fc" fill-rule="evenodd" d="M417.26563 453.69922l-.27735-4.4375 1.17578-4.4414 1.01563-1.02735 1.01172 1.02734 2.11328 4.4414-.5 4.4375 1.8125 3.125 3.53125-3.125.90625-.32421.30469.32422-.3047.29297-3.97265 4.14453-.46484.44922-1.91406-.44922-2.52344-1.22656-1.91406-3.21094"/><path fill="#50fcfc" fill-rule="evenodd" d="M422.75 427.07031l-3.39844-4.4414 4.26563-2.9297v2.26954l-.96485.66016.96485 1.1328 2.85547 3.3086 1.58203 1.49219.98437-1.49219-.86328-4.4414-.1211-.07032-4.4375-.58984v-2.26953l4.4375.23828 4.4375 2.48047.21094.21094-.21093.21875-1.35938 4.22265 1.35938 2.61719 1.79687 1.82031.33985 4.4375-2.13672 3.38672-2.2539-3.38672-2.1836-3.94922-.4375-.48828-4-3.6211-.86719-.8164"/><path fill="#00e8fc" fill-rule="evenodd" d="M423.61719 423.76172l-.96485-1.13281.96485-.66016 4.4375.58984.1211.07032.86327 4.4414-.98437 1.49219-1.58203-1.49219-2.85547-3.3086"/><g clip-path="url(#d)"><path fill="#fff" fill-opacity="0" fill-rule="evenodd" d="M467.9961 480.32813H468V311.67188h-.0039H468v168.65625h-.0039"/></g><path fill="#fff" fill-opacity="0" fill-rule="evenodd" d="M249.40625 404.8164l1.17188-5.72265-9.75782-2-1.17187 5.72266 9.75781 2"/><path fill-rule="evenodd" d="M242.14453 399.75781l.10156-.5 6.16797 1.26172-.15625.77344-4.39844-.90235-.28125 1.36329-.54296-.11329.04687-.5625v-.2578l-.04297-.2422-.09765-.22656-.16797-.21484-.26172-.19531-.36719-.1836"/><path fill="#fff" fill-opacity="0" fill-rule="evenodd" d="M407.71094 441.64844l3.3125-4.8125-8.20313-5.64844-3.3125 4.8086 8.20313 5.65234"/><path fill-rule="evenodd" d="M403 434.15625l.28906-.42188 5.1875 3.57032-.44922.64844-3.6953-2.54688-.78907 1.14453-.45703-.3125.26562-.5.09766-.23828.05469-.23828v-.25l-.07422-.26172-.16406-.28516-.26563-.30859"/><path fill="#fff" fill-opacity="0" fill-rule="evenodd" d="M280.67578 385.78125l5.27344-2.51563-4.28906-8.99218-5.26954 2.51562 4.28516 8.99219"/><path fill-rule="evenodd" d="M280.33594 376.9375l.46094-.21875 2.71093 5.67969-.71094.33984-1.93359-4.05078-1.2539.59766-.23829-.50391.47657-.29688.20312-.16015.17188-.17578.12109-.21875.0664-.26172v-.32813l-.07421-.40234"/><g clip-path="url(#e)"><path fill="none" stroke="#000" stroke-linecap="round" stroke-linejoin="round" stroke-miterlimit="10" stroke-width=".5" d="M146.26172 483.01563l-4.52344-5.375"/></g><g clip-path="url(#f)"><path fill="none" stroke="#000" stroke-linecap="round" stroke-linejoin="round" stroke-miterlimit="10" stroke-width=".5" d="M159.65234 482.95313l-4.67578-5.2461"/></g><g clip-path="url(#g)"><path fill="none" stroke="#000" stroke-linecap="round" stroke-linejoin="round" stroke-miterlimit="10" stroke-width=".5" d="M172.71875 483.15234l-4.17969-5.64843"/></g><g clip-path="url(#h)"><path fill="none" stroke="#000" stroke-linecap="round" stroke-linejoin="round" stroke-miterlimit="10" stroke-width=".5" d="M186.10938 483.09766l-4.32813-5.53907"/></g><g clip-path="url(#i)"><path fill="none" stroke="#000" stroke-linecap="round" stroke-linejoin="round" stroke-miterlimit="10" stroke-width=".5" d="M199.46875 483.0625l-4.41406-5.46875"/></g><g clip-path="url(#j)"><path fill="none" stroke="#000" stroke-linecap="round" stroke-linejoin="round" stroke-miterlimit="10" stroke-width=".5" d="M212.84766 483.00781l-4.54688-5.35937"/></g><g clip-path="url(#k)"><path fill="none" stroke="#000" stroke-linecap="round" stroke-linejoin="round" stroke-miterlimit="10" stroke-width=".5" d="M226.47656 482.70313l-5.17578-4.75"/></g><g clip-path="url(#l)"><path fill="none" stroke="#000" stroke-linecap="round" stroke-linejoin="round" stroke-miterlimit="10" stroke-width=".5" d="M240.35156 481.89063l-6.29297-3.1211"/></g><g clip-path="url(#m)"><path fill="none" stroke="#000" stroke-linecap="round" stroke-linejoin="round" stroke-miterlimit="10" stroke-width=".5" d="M253.58984 482.03516l-6.14062-3.41407"/></g><g clip-path="url(#n)"><path fill="none" stroke="#000" stroke-linecap="round" stroke-linejoin="round" stroke-miterlimit="10" stroke-width=".5" d="M266.66797 482.40625L261.0039 478.25"/></g><g clip-path="url(#o)"><path fill="none" stroke="#000" stroke-linecap="round" stroke-linejoin="round" stroke-miterlimit="10" stroke-width=".5" d="M279.98047 482.41016l-5.66016-4.16407"/></g><g clip-path="url(#p)"><path fill="none" stroke="#000" stroke-linecap="round" stroke-linejoin="round" stroke-miterlimit="10" stroke-width=".5" d="M293.3125 482.38672l-5.69531-4.11328"/></g><g clip-path="url(#q)"><path fill="none" stroke="#000" stroke-linecap="round" stroke-linejoin="round" stroke-miterlimit="10" stroke-width=".5" d="M306.65625 482.34766l-5.75-4.03907"/></g><g clip-path="url(#r)"><path fill="none" stroke="#000" stroke-linecap="round" stroke-linejoin="round" stroke-miterlimit="10" stroke-width=".5" d="M319.3125 483.05469l-4.4336-5.44922"/></g><g clip-path="url(#s)"><path fill="none" stroke="#000" stroke-linecap="round" stroke-linejoin="round" stroke-miterlimit="10" stroke-width=".5" d="M331.46875 483.67969l-2.11328-6.70313"/></g><g clip-path="url(#t)"><path fill="none" stroke="#000" stroke-linecap="round" stroke-linejoin="round" stroke-miterlimit="10" stroke-width=".5" d="M342.71875 483.69531l2.01563-6.73437"/></g><g clip-path="url(#u)"><path fill="none" stroke="#000" stroke-linecap="round" stroke-linejoin="round" stroke-miterlimit="10" stroke-width=".5" d="M353.98828 482.07031l6.10547-3.48437"/></g><g clip-path="url(#v)"><path fill="none" stroke="#000" stroke-linecap="round" stroke-linejoin="round" stroke-miterlimit="10" stroke-width=".5" d="M354.8789 481.5625l-1.03906-.65625"/></g><g clip-path="url(#w)"><path fill="none" stroke="#000" stroke-linecap="round" stroke-linejoin="round" stroke-miterlimit="10" stroke-width=".5" d="M367.11328 478.97656l6.48438 2.70703"/></g><path fill="none" stroke="#000" stroke-linecap="round" stroke-linejoin="round" stroke-miterlimit="10" stroke-width=".5" d="M368.0586 479.36719l-.1172-1.21875"/><g clip-path="url(#x)"><path fill="none" stroke="#000" stroke-linecap="round" stroke-linejoin="round" stroke-miterlimit="10" stroke-width=".5" d="M380.73828 478.39453l5.86328 3.8711"/></g><path fill="none" stroke="#000" stroke-linecap="round" stroke-linejoin="round" stroke-miterlimit="10" stroke-width=".5" d="M381.59375 478.95703l.11328-1.22265"/><g clip-path="url(#y)"><path fill="none" stroke="#000" stroke-linecap="round" stroke-linejoin="round" stroke-miterlimit="10" stroke-width=".5" d="M393.47266 480.42188l7.02734-.1875"/></g><g clip-path="url(#z)"><path fill="none" stroke="#000" stroke-linecap="round" stroke-linejoin="round" stroke-miterlimit="10" stroke-width=".5" d="M393.47266 480.42188l-1.20704-2.13282"/></g><g clip-path="url(#A)"><path fill="none" stroke="#000" stroke-linecap="round" stroke-linejoin="round" stroke-miterlimit="10" stroke-width=".5" d="M406.86328 481.05078l6.875-1.4414"/></g><g clip-path="url(#B)"><path fill="none" stroke="#000" stroke-linecap="round" stroke-linejoin="round" stroke-miterlimit="10" stroke-width=".5" d="M406.86328 481.05078l-1.57422-1.88672"/></g><g clip-path="url(#C)"><path fill="none" stroke="#000" stroke-linecap="round" stroke-linejoin="round" stroke-miterlimit="10" stroke-width=".5" d="M420.3086 481.51172l6.61718-2.36719"/></g><g clip-path="url(#D)"><path fill="none" stroke="#000" stroke-linecap="round" stroke-linejoin="round" stroke-miterlimit="10" stroke-width=".5" d="M420.3086 481.51172l-1.81641-1.65235"/></g><g clip-path="url(#E)"><path fill="none" stroke="#000" stroke-linecap="round" stroke-linejoin="round" stroke-miterlimit="10" stroke-width=".5" d="M433.84766 482.01172l6.16796-3.36719"/></g><g clip-path="url(#F)"><path fill="none" stroke="#000" stroke-linecap="round" stroke-linejoin="round" stroke-miterlimit="10" stroke-width=".5" d="M434.7461 481.52344l-1.02735-.67578"/></g><g clip-path="url(#G)"><path fill="none" stroke="#000" stroke-linecap="round" stroke-linejoin="round" stroke-miterlimit="10" stroke-width=".5" d="M447.14063 481.97266l6.21093-3.28907"/></g><g clip-path="url(#H)"><path fill="none" stroke="#000" stroke-linecap="round" stroke-linejoin="round" stroke-miterlimit="10" stroke-width=".5" d="M448.04688 481.4961l-1.01954-.69141"/></g><g clip-path="url(#I)"><path fill="none" stroke="#000" stroke-linecap="round" stroke-linejoin="round" stroke-miterlimit="10" stroke-width=".5" d="M461.17578 482.90625l4.77344-5.15625"/></g><g clip-path="url(#J)"><path fill="none" stroke="#000" stroke-linecap="round" stroke-linejoin="round" stroke-miterlimit="10" stroke-width=".5" d="M145.33984 470.26172l-2.67968-6.4961"/></g><g clip-path="url(#K)"><path fill="none" stroke="#000" stroke-linecap="round" stroke-linejoin="round" stroke-miterlimit="10" stroke-width=".5" d="M144.95313 469.3164l-.78125.94532"/></g><path fill="none" stroke="#000" stroke-linecap="round" stroke-linejoin="round" stroke-miterlimit="10" stroke-width=".5" d="M159.64063 469.64844l-4.64844-5.26953m3.96875 4.5039l-.42969 1.14844m14.01563-.07422l-3.83204-5.88672m3.27344 5.03125l-.59375 1.07422m14.4961-.23828l-3.89454-5.84766m3.32813 4.9961l-.58203 1.08203m14.35937-.16016l-3.67969-5.98828m3.14454 5.11719l-.625 1.0586m14.21875-.04688l-3.16797-6.26953m2.70703 5.35937l-.70703 1m14.79687-.26953l-3.80078-5.91016m3.25 5.05078l-.60156 1.07032m15.89844-2.03907l-6.65625-2.2539m20.125.65234l-6.96485.94922m20.25781-1.07812l-6.92187 1.20703m5.91406-1.03125l.7539.96875m13.20313 1.1211l-6.1914-3.32423m5.28906 2.83985l-.0039 1.23046m13.96874-.34765l-5.6875-4.1211m4.86328 3.52344l-.17187 1.21485m14.65234-1.19532l-6.37109-2.96484m5.44531 2.53125l.0664 1.22656m13.32423.35156l-4.66797-5.2539M318.75 468.875l-.42578 1.15234m11.26953.40235l1.63281-6.83203m8.99219 3.64843l7.01172-.46484m-5.98828.39844l-.64844-1.04297m12.94531 1.17187l7.0039-.58984m-5.98437.5039l-.66406-1.03124m13.0664-.07813l6.78907 1.80078m-5.80078-1.53906l-.27735-1.19531m12.73438.53906l6.53125 2.58984m-6.53125-2.58984l-.27344-2.4375m13.52344 2.61328l6.66016 2.23828m-6.66016-2.23828l-.40234-2.42187m13.53906 3.71484l7.01562-.34766m-7.01562.34766l-1.25781-2.10547m14.63671 2.6211l6.89063-1.37891m-6.89063 1.3789l-1.55468-1.89843m14.89062 2.0039l6.84766-1.58984m-6.84766 1.58984l-1.60937-1.85156m14.875 1.59375l6.94531-1.07422m-5.9336.91797l-.73437-.98437m13.82422 2.86718l5.375-4.52734m-5.375 4.52734l-2.27734-.91797"/><g clip-path="url(#L)"><path fill="none" stroke="#000" stroke-linecap="round" stroke-linejoin="round" stroke-miterlimit="10" stroke-width=".5" d="M144.94922 457.08203l-1.89844-6.76562"/></g><g clip-path="url(#M)"><path fill="none" stroke="#000" stroke-linecap="round" stroke-linejoin="round" stroke-miterlimit="10" stroke-width=".5" d="M144.94922 457.08203l-1.77344 1.69531"/></g><path fill="none" stroke="#000" stroke-linecap="round" stroke-linejoin="round" stroke-miterlimit="10" stroke-width=".5" d="M159.38281 456.53906l-4.13281-5.6836m3.53125 4.85938l-.53906 1.10157m13.5625.1953l-2.34766-6.625m2.0039 5.66016l-.82812.90625m14.15625.15625l-1.6875-6.8203m11.59766 5.8164l5.1211-4.8125m9.1328 5.52344l3.2461-6.23438m-2.77344 5.32813l-1.22656.0078m15.61328-5.73046l.15625 7.02344m13.125-7.02344l.22266 7.02344m-.1875-6.0039l1.0625-.60938m10.2578.26172l4.14063 5.67968m-3.53906-4.85156l.53906-1.10547m11.42188 1.02344l5.64453 4.1875m-4.82031-3.57813L262.01563 451m14.27343-.70703l1.72266 6.8125m-1.47266-5.82031l.91016-.82422m12.80078-.26953l.42969 7.01562m-.36719-5.9961l1.04688-.64062m11.80859-.33203l1.22656 6.92188m-1.04687-5.91407l.96484-.7578m12.04688-.22657l1.47265 6.8711m-1.25781-5.8711l.9375-.78906m9.80078 1.57421l6.19922 3.3047m-5.29688-2.82423v-1.22656m12.83204.125l5.35937 4.54688m-4.58203-3.88672l.26172-1.19532m11.76562 1.33204l6.3789 2.95312m-5.44921-2.52344l-.0664-1.22656m12.29687 1.1914l6.6875 2.16407m-6.6875-2.16406l-.42578-2.41797m14.07422 1.6875l6.02343 3.6211m-6.02343-3.6211l.1289-2.44922m12.84766 3.19922l6.69922 2.1211m-6.69922-2.1211l-.44531-2.41406m1.42187 2.72265l-.22265-1.20703m12.39843 2.10156l7.02344-.28515m-7.02344.28515l-1.23828-2.11718m14.6211 2.66406l6.89062-1.3789m-6.89063 1.3789l-1.55468-1.89844m14.85156 1.79688l6.92578-1.17188m-6.92578 1.17188l-1.5-1.94532m14.78125 1.6875l6.9961-.66015m-6.9961.66015l-1.35156-2.04687m15.35156 3.82812l5.6211-4.21875m-5.6211 4.21875l-2.21875-1.04297"/><g clip-path="url(#N)"><path fill="none" stroke="#000" stroke-linecap="round" stroke-linejoin="round" stroke-miterlimit="10" stroke-width=".5" d="M143.84766 443.89453l.30468-7.01953"/></g><g clip-path="url(#O)"><path fill="none" stroke="#000" stroke-linecap="round" stroke-linejoin="round" stroke-miterlimit="10" stroke-width=".5" d="M143.89063 442.8711l-1.10547.53124"/></g><path fill="none" stroke="#000" stroke-linecap="round" stroke-linejoin="round" stroke-miterlimit="10" stroke-width=".5" d="M158.84375 443.54688l-3.05469-6.32813m2.60938 5.41016l-.72656.98828m16.46484-3.4375l-7.01563.40625m19.97657-1.7539l-6.3047 3.10155m5.38673-2.64843l.9961.71484m13.37108-.86328l-6.5703 2.4961m16.74609-4.75782l-.29688 7.01953m13.96094-6.98828l-.99219 6.95703m.84766-5.94531l1.15234-.41797m11.72266-.6289l.17578 7.02343m-.14844-6l1.0664-.60547m10.38282.15625l3.85547 5.875m-3.29688-5.01953l.58985-1.07422m12.75781-.09375l2.66797 6.5m-2.27735-5.55469l.78125-.9414m12.69141-.17578l1.57422 6.84765m-1.57422-6.84765l1.85156-1.60938m11.4375 1.61328l1.625 6.83594m-1.625-6.83594l1.83985-1.62109m11.82422 1.5586l.92578 6.96484m-.92578-6.96485l1.99609-1.42968M316.14063 437l1.91015 6.76562M316.14063 437l1.77343-1.69531m11.70313 1.65625l1.58984 6.84375m-1.58984-6.84375l1.84765-1.61328m9.66797 2.66796l5.1875 4.73829m-4.4336-4.05079l.3047-1.1875m13.45703-.35546l2.78906 6.44921m-2.38672-5.51171l.76563-.96094m10.76562 1.08984l5.54688 4.3164m-4.73828-3.6914l.21093-1.20703m12.01953.99219l6.09766 3.49219m-6.09766-3.4922l.07813-2.45312m12.96094 3.07032l6.65234 2.2578m-6.65234-2.2578l-.39844-2.42188m1.36719 2.75l-.19922-1.21094m12.35937 1.97657l7.02735.07421m-7.02735-.07421l-1.1289-2.1797m14.44922 2.4336l7.01562-.4375m-7.01562.4375l-1.28516-2.08984m14.82812 3.13672l6.5586-2.53125m-6.5586 2.53125l-1.85546-1.60547m15.55468 2.33203l5.78907-3.98438m-5.78907 3.98438l-2.17578-1.13281m15.73828 1.44922l5.29688-4.6172m-4.52735 3.94532l-1.14453-.4375"/><g clip-path="url(#P)"><path fill="none" stroke="#000" stroke-linecap="round" stroke-linejoin="round" stroke-miterlimit="10" stroke-width=".5" d="M142.70703 430.33594l2.58594-6.53516"/></g><path fill="none" stroke="#000" stroke-linecap="round" stroke-linejoin="round" stroke-miterlimit="10" stroke-width=".5" d="M155.82031 430.25l2.98828-6.36328m-2.98828 6.36328l-2.44922.1211m16.45313.11718l1.61328-6.83984m-1.3789 5.84375l-1.1875.3125m15.875.6836l-1.60157-6.83985m1.36719 5.84375l-.92188.8086m10.82813-5.29688l5.6836 4.1289m12.40234-5l-3.85938 5.8711m3.30078-5.01563l1.21875.11328m11.13281-1.52344l-.8125 6.98047m.69532-5.96484l1.14062-.44531m9.60938.24219l4.55078 5.35546m-3.88672-4.57422l.44922-1.14062m12.46875.15625l4.01953 5.76172m-3.4375-4.92188l.5586-1.09375m12.10156.3047l4.16406 5.66015m-3.5586-4.83594l.53125-1.10547m14.14454-.39844l.23047 7.02344m-.19532-6.0039l1.0625-.60938m11.28125-.2539l2.10156 6.70702m-1.79296-5.73046l.85937-.875m12.1211-.08985l2.15625 6.6875m-2.15625-6.6875l1.70703-1.76172m11.3203 1.8672l2.73048 6.47265m-2.73047-6.47266l1.55078-1.90234m12.3164 1.72265l1.625 6.83594m-1.625-6.83594l1.83985-1.625m10.49219 2.02344l3.59375 6.03516m-3.59375-6.03516l1.27344-2.09766m11.98828 2.12891l3.69921 5.97266m-3.16015-5.10547l.61719-1.0586m11.73437.5l4.54688 5.35547m-3.88672-4.57812l.45312-1.13672m11.00781 3.60156l6.9375-1.1289m-5.92968.96484l-.74219-.97656m13.59766-1.3789l5.83984 3.91015m-4.99219-3.33985l.125-1.22265m11.86328 3.49219l6.80079-1.76954m-5.8125 1.51172l-.83204-.90234m13.125 1.02734l6.86329-1.5039m-6.86329 1.5039l-1.58984-1.86718m15.88281 3.6289l4.91016-5.02734m-4.19531 4.29687l-1.1797-.34375m14.71095 1.72657l3.04687-6.33204m-3.04687 6.33204l-2.45313.09765m15.28125-.38281l4.02344-5.76172m-3.4375 4.92188l-1.21875-.14844"/><g clip-path="url(#Q)"><path fill="none" stroke="#000" stroke-linecap="round" stroke-linejoin="round" stroke-miterlimit="10" stroke-width=".5" d="M146.0039 416.64063l-4.0078-5.77344"/></g><path fill="none" stroke="#000" stroke-linecap="round" stroke-linejoin="round" stroke-miterlimit="10" stroke-width=".5" d="M145.42188 415.80078l-.5625 1.08985m12.85546.35156l-.80078-6.98047m.6875 5.96484l-1.01172.69922m12.65625.0586l2.76563-6.46094m-2.76563 6.46093l-2.4453.20313m15.34765-.41406l3.58984-6.03907m-3.58984 6.03907l-2.44922-.11719m14.83203-.6914l5.45703-4.42188m-4.66406 3.77734l-1.1289-.47656m13.0664-2.26172l6.625 2.34375m-5.66016-2.0039l-.1836-1.21094m12.34376 2.3125l7.00781-.53907m-7.00781.53907l-1.3164-2.07032m14.63671 2.1172l6.9961-.63282m-6.9961.63281l-1.34375-2.05469m14.79688.71094l6.71875 2.05469m-6.71875-2.05469l-.46875-2.41015m14.30078 1.375l5.6875 4.125m-5.6875-4.125l.33594-2.4297m13.91406 1.53907l3.8164 5.90234m-3.2578-5.04296l.59374-1.07032m13.84766-.34375l.44531 7.01563m-.3789-5.9961l1.04296-.64062m10.63672.10547l3.58594 6.04297m-3.58594-6.04297l1.27344-2.09375m11.42187 2.5625l4.82422 5.10937m-4.82422-5.10937l.78125-2.32422m11.84375 3.23047l6.20313 3.29687m-5.30078-2.8203v-1.22657m12.82422.13672l5.3828 4.51953m-5.3828-4.51953l.51171-2.39844m14.14063 1.41797l2.70703 6.48437m-2.3125-5.54297l.77734-.94921m11.85938.14062l3.27734 6.21484m-2.80078-5.30859l.6875-1.01562m10.36328 2.42968l6.84766 1.57813m-5.85156-1.34766l-.3164-1.1875m12.5703 2.13281l6.98047-.77343m-5.96484.66015l-.69531-1.01172m12.97265.59375l7.02344.28516m-6-.24219l-.53125-1.10547m12.90234.46094l6.8672 1.49219m10.5703 2.69922l-1.3789-6.89063m10.53515 3.9961l6.94141-1.10157m-5.9336.94141l-.73828-.98047m13.03125 1.04297l6.96875-.91016m-5.95703.78125l-.71093-1"/><g clip-path="url(#R)"><path fill="none" stroke="#000" stroke-linecap="round" stroke-linejoin="round" stroke-miterlimit="10" stroke-width=".5" d="M147.3789 401.40625l-6.7578-1.9336"/></g><path fill="none" stroke="#000" stroke-linecap="round" stroke-linejoin="round" stroke-miterlimit="10" stroke-width=".5" d="M147.3789 401.40625l.51173 2.39844m12.68359-2.05078l-6.51563-2.63282m5.56641 2.25l.1289 1.22266m12.16016 1.11328l-2.5664-6.53906m2.1914 5.58984l-.79687.92969m12.3789.16797l1.64844-6.83203m-1.40625 5.83594l-1.1914.30859m11.9375-1.17969l6.30468-3.10156m-6.30469 3.10156l-1.99218-1.4336m14.96094.23829l6.99218-.71094m-6.99219.71094l-1.36328-2.03906m14.6875 2.10156l6.97657-.83203m-6.97657.83203L219 398.83984m2.41797 1.89454l-.70313-1.00782m12.97657.63281l7.02734.15625m-7.02734-.15625l-1.10157-2.1914m14.60157 3.39062l6.66015-2.23828m-6.66015 2.23828l-1.78516-1.6875m14.94922 1.0625l6.95703-.98828m-6.95703.98828l-1.44531-1.98437m14.73046 1.32031l7.01954.33594m-5.9961-.28516l-.52343-1.10937m13.84375 3.71484l4.96093-4.97656m-4.23828 4.2539l-1.17187-.35546m12.76953-1.92579l6.95312 1.03516m-5.9414-.88672l-.41016-1.15625m12.91016 2.78516l6.55859-2.52344m-5.60547 2.15625l-.92578-.80469m13.09375-.60546l6.94922 1.03515m-6.94922-1.03515l-.82031-2.31641m14.7461.79687l5.72655 4.07032m-4.89453-3.47657l.15625-1.21875m11.67578 2.6211l7.02735.07812m-6.0039-.0664l-.5625-1.08985m13.98437 3.69922l4.76953-5.16015m-4.07813 4.41015l-1.1836-.3125m17.21485-1.51953l-.01953-.19922-.0586-.1914-.09765-.17579-.45703-.3789-.1914-.05469-.19922-.02344-.19922.02344-.19141.05469-.46094.3789-.09375.17579-.0586.1914-.01952.19922.01953.19922.0586.1914.09374.1797.46094.375.1914.05859.19923.01953.19921-.01953.19141-.0586.45703-.375.09766-.17969.0586-.1914.01952-.19922m8.85938-.7539l6.86328 1.51171m-5.86328-1.29297l-.33203-1.18359m15.66797-1.76953l.82421 6.97656m13.13282-6.99219l-.46094 7.01172m.39453-5.99219l1.11719-.5039m10.9961-.36719l2.07421 6.71094m8.76953-3.53516l7.01563.36328m-5.9961-.3125l-.51953-1.10937m13.01172.0625l6.6211 2.35156m-5.65626-2.00781l-.17968-1.21485"/><g clip-path="url(#S)"><path fill="none" stroke="#000" stroke-linecap="round" stroke-linejoin="round" stroke-miterlimit="10" stroke-width=".5" d="M146.48047 389.60938l-4.96094-4.97266"/></g><path fill="none" stroke="#000" stroke-linecap="round" stroke-linejoin="round" stroke-miterlimit="10" stroke-width=".5" d="M145.75781 388.88672l-.35937 1.17187m14.76172-.875l-5.69141-4.12109m17.60156 5.26563l-2.8789-6.41016m2.46093 5.47656l-.7539.96875m12.60937.2461l.875-6.97266m-.75 5.95703l-1.14453.4375m13.64844.42188l2.2461-6.66016m-2.2461 6.66015l-2.41797.39844m14.16016-5.98047l5.39453 4.50391m-4.60938-3.84766l.25-1.19921m11.49219 3.25l6.96875-.91016m-5.95313.77734l-.71484-1m12.99219.92578l7.01172-.49609m-5.99219.42578l-.64844-1.03906m13.30469 2.42578l6.29297-3.1289m-6.29297 3.1289l-1.9961-1.42969m15.21485 1.22266l6.48438-2.71485m-6.48438 2.71485l-1.89844-1.55469m2.84375 1.16016l-.94922-.77735m13.25.98829l6.6211-2.34766m-6.6211 2.34765l-1.80859-1.65625m15.8086 2.81641l5.2539-4.66797m-5.2539 4.66797l-2.30079-.85547m15.08594.0625l6.3125-3.08203m-5.39453 2.63672l-.99219-.72266m13.32031 1.02344l6.44922-2.79297m6.77344 2.55078l6.63672-2.30859m-5.67188 1.97266l-.89843-.83594m13.07812.4414l6.97656-.84765m-5.96093.72656l-.70313-1.00781m13.1875 1.90625l6.60547-2.40235m-5.64453 2.0547l-.91016-.82423m19.67969-1.66406l-6.22266 3.26953m18.21485-4.66015l-3.57813 6.05078m3.05469-5.16797l1.22656.05469m14.20703 1.15234l-6.76953 1.8711m19.35547 1.36327l-5.3125-4.59765m19.34375 1.3125l-6.74219 1.97265m13.44922.37891l6.47266-2.73047m12.29687 4.08985l-4.4375-5.44922m3.79297 4.65625l-.47656 1.13281m14.02734-6.07813l-3.61718 6.02735m3.08984-5.14844l1.22656.0625"/><g clip-path="url(#T)"><path fill="none" stroke="#000" stroke-linecap="round" stroke-linejoin="round" stroke-miterlimit="10" stroke-width=".5" d="M146.1211 371.00781l-4.2422 5.60156"/></g><path fill="none" stroke="#000" stroke-linecap="round" stroke-linejoin="round" stroke-miterlimit="10" stroke-width=".5" d="M145.5039 371.82422l1.21094.19531m7.52735.08594l6.14844 3.40625m-5.25391-2.91016l.01953-1.22656m11.98047 2.8164l6.98437-.76562m-5.96875.65235l-.6875-1.01172m13.3047 2.24218l6.35155-3m-6.35156 3l-1.96875-1.46875m15.17578 1.21875l6.5664-2.5m-6.5664 2.5l-1.84765-1.61328m2.80468 1.25l-.92578-.8086m13.0586-.23437l7.01953.3125m-6-.26562l-.52735-1.10938m19.00782-1.05859l-5.35157 4.55469m4.57422-3.89453l1.14063.45312m9.55469-2.27734l1.4414 6.8789m9.22656-2.43359l6.73438-2.00781m-5.7539 1.71484l-.85938-.875m15.5039-3.1875l2.1172 6.70313m11.47655.07421l1.5586-6.85156m-1.5586 6.85156l-2.36718.64063m14.3125-1.28516l4.29687-5.5625m-4.29687 5.5625l-2.41797-.41406m15.48437.19922l4.79688-5.13281m-4.10157 4.38672l-1.18359-.32032m12.6914-1.60546l7.02344.21093m-6.0039-.17969l-.54297-1.10156m12.91797.40625l6.85937 1.53906m-5.85937-1.3125l-.32422-1.18359m12.70312.72656l6.73438 2m9.22656 2.4375l1.4414-6.875m-1.23046 5.875l-1.17969.33985m16.02735-2.77735l-.01954-.19921-.05859-.19141-.09375-.17578-.46094-.3789-.1914-.0586-.19922-.01953-.19922.01953-.1914.0586-.45704.3789-.09765.17578-.0586.1914-.01953.19922.01953.19922.0586.1914.09765.17579.45703.3789.19141.0586.19922.01953.19922-.01953.1914-.0586.46094-.3789.09375-.17578.0586-.1914.01953-.19923m9.54687-2.1953l5.48828 4.39062m-4.6875-3.75l.22656-1.20704m14.09375 6.14844l1.87891-6.77344m-1.60547 5.78516l-1.19922.26563m16.20313-2.66407l-.01953-.19921-.0586-.19141-.09375-.17578-.46093-.3789-.19141-.0586-.19922-.01953-.19922.01953-.1914.0586-.45704.3789-.09765.17578-.0586.1914-.01953.19922.01953.19922.0586.1914.09765.17579.45704.3789.1914.0586.19922.01953.19922-.01953.1914-.0586.46094-.3789.09375-.17578.0586-.1914.01953-.19923m14.25 2.91797l-3.91797-5.83594m3.34766 4.98438l-.57813 1.08203m15.19922-.89453l-5.38672-4.50781m5.38672 4.50781l-.5039 2.40234m14.2578-3.0664l-6.26562-3.17969m5.35547 2.71875l.02344 1.22656m14.51562-3.04297l-6.89062 1.375"/><g clip-path="url(#U)"><path fill="none" stroke="#000" stroke-linecap="round" stroke-linejoin="round" stroke-miterlimit="10" stroke-width=".5" d="M467.00781 373.1211l1.55469 1.89843"/></g><g clip-path="url(#V)"><path fill="none" stroke="#000" stroke-linecap="round" stroke-linejoin="round" stroke-miterlimit="10" stroke-width=".5" d="M145.92188 357.55469l-3.84375 5.8789"/></g><path fill="none" stroke="#000" stroke-linecap="round" stroke-linejoin="round" stroke-miterlimit="10" stroke-width=".5" d="M145.92188 357.55469l2.4453.21875M157.6836 357l-.73828 6.98828m.63281-5.97265l1.13672-.45704m9.48047.40235l4.8711 5.0664m-4.8711-5.0664l.76172-2.33203m11.90234 3.18359l6.17188 3.36328m-6.17188-3.36328l.02735-2.45313m.8711 2.94141l.01171-1.22656m11.97656 2.39062l7.02735.0547m-7.02735-.0547l-1.1328-2.17578m2.15624 2.1836l-.5664-1.08594m12.97265 1.9961l6.80078-1.77735m-6.80078 1.77734l-1.66016-1.80469m2.64844 1.54297l-.82812-.90234m13.5625 2.11719l5.98437-3.6875m-5.11328 3.15234l-1.0586-.6211m18.1172-3.80468l-3.2461 6.23438m2.77344-5.32813l1.22656-.00781m14.23047 3.44531l-6.58594-2.44922m5.6289 2.09375l.16017 1.21485m14.10156-3.33594l-6.5625 2.5039m6.5625-2.5039l1.85156 1.61328m11.23047 1.38281l-6.09766-3.48828m5.21094 2.98047l-.03906 1.22656m13.23047.39844l-4.07422-5.72656m3.48047 4.89453l-.55079 1.09765m13.10157.32032l-1.35938-6.89454m1.16016 5.89063l-.95313.77344m10.53907-1.8789l6.49609-2.6797m-5.55078 2.28907l-.94531-.78125m13.09375.39843l6.9375-1.1328m-6.9375 1.1328l-1.48438-1.95312m14.92969.28906l6.67578 2.19531m-5.70313-1.875l-.20703-1.20703m15.9297 5.5L357 356.98047m.07031 6.0039l-1.07422.58985m17.53907-1.58594L367.17578 359m5.4336 2.55469l.0625 1.22265m14.48046-2.7539l-6.96484.9414m5.95312-.80468l.71485.99609m13.54297.1836l-6.82422-1.69141m5.82812 1.44531l.30078 1.1875m14.08594-1.35156l-6.97265-.8711m5.95703.7422l.4375 1.14843m13.13672.75781l-5.46094-4.42578m4.66406 3.78125l-.23437 1.20313M436.72656 364l.41016-7.01563m-.35156 5.9961l-1.11329.51172m17.15625-5.38281l-5.16406 4.76562m13.42578-4.8789l4.94141 4.99609m-4.22266-4.26953l.3672-1.17188"/><g clip-path="url(#W)"><path fill="none" stroke="#000" stroke-linecap="round" stroke-linejoin="round" stroke-miterlimit="10" stroke-width=".5" d="M144.96875 343.80078l-1.9375 6.7539"/></g><path fill="none" stroke="#000" stroke-linecap="round" stroke-linejoin="round" stroke-miterlimit="10" stroke-width=".5" d="M144.96875 343.80078l2.40234-.50781m9.69922.3789l.48828 7.01172m-.48828-7.01171l2.08203-1.29688m11.30078 1.29297l.35547 7.01953m-.35547-7.01953l2.10547-1.25781m12.8047 1.55468l-2.83595 6.4297m2.83594-6.4297l2.44531-.18359m-2.85937 1.11719l1.22266-.08985m7.78906 3.57813l6.59765-2.41797m-5.63672 2.0664l-.91406-.8164m13.61719 1.8711l5.89844-3.82423m-5.89844 3.82422l-2.14453-1.1914m16.5039 2.23047l3.8125-5.90235m-3.8125 5.90235l-2.4453-.20704m3-.65234l-1.22266-.10156m17.14062 1.29297l-2.5039-6.5664m11.67578 5.28124l5.78125-3.9961m13.85937 1.25391l-6.86719 1.48829m6.8672-1.48829l1.58593 1.8711m11.8086-1.14453l-7.02735.03515m6.0039-.03125l.58204 1.08203m12.03906 1.95313l-3.58984-6.04297m3.0664 5.16406l-.63672 1.04688m13.89063.10937l-2.42188-6.59765m2.0664 5.63671l-.8164.91407m13.57813.25l-.60547-7.0039m.51562 5.98437l-1.02734.66796m13.35547.27735l1.54687-6.85547m-1.3203 5.85938l-1.1836.3203m11.54297-2.5l7.0078-.5m9.89454-3.26562l-.16797 7.02735m.14453-6.00391l1.09766-.55078m8.94922 4.47656l6.41406-2.86719m-5.48047 2.44922l-.96875-.7539m13.97656 2.12109l5.16407-4.76953m-4.41407 4.07422l-1.15625-.40235m16.82032-4.76171l-1.03516 6.94921m.88672-5.9375l1.15625-.41015m13.38281-.25781l-3.1875 6.26171m2.72266-5.35156l1.22656-.02344m9.94922-1.12109l2.01953 6.73047m15.64453-4.46094l-6.67578 2.1914m5.70313-1.87109l.88671.84766m9.03907-3.4336l2.04687 6.72266m-1.7461-5.7461l.8672-.86327m11.55859.1289l3.22656 6.2422m-3.22656-6.2422l1.39453-2.01953"/><g clip-path="url(#X)"><path fill="none" stroke="#000" stroke-linecap="round" stroke-linejoin="round" stroke-miterlimit="10" stroke-width=".5" d="M143.53125 330.38281l.9375 6.96094"/></g><g clip-path="url(#Y)"><path fill="none" stroke="#000" stroke-linecap="round" stroke-linejoin="round" stroke-miterlimit="10" stroke-width=".5" d="M143.53125 330.38281l1.99219-1.4336"/></g><path fill="none" stroke="#000" stroke-linecap="round" stroke-linejoin="round" stroke-miterlimit="10" stroke-width=".5" d="M156.98828 330.36328l.65234 6.9961m-.55859-5.97657l1.02734-.67578m13.35547-.25781l-1.67187 6.82812m1.42969-5.83593l1.1875-.30079m13.78906.02735l-4.50781 5.39062m4.5078-5.39062l2.40235.5039m11.45703.06641l-5.59375 4.25m5.59375-4.25l2.22657 1.02735m-3.04297-.41016l1.11719.51562m13.41796 2.4375l-6.40625-2.89062m5.47657 2.46875l.07812 1.22656m13.63281.03516l-5.33593-4.57031m4.55859 3.90625l-.26563 1.1953m14.10547-5.36718l-4.83203 5.10156m4.1289-4.35937l1.1836.32422m13.78125.46875l-6.72656 2.03125m5.75-1.73438l.86328.8711m11.92969 2.82812l-3.72656-5.96094m3.18359 5.09375l-.61328 1.0625m16.03515-2.40625l-6.85546-1.53906m6.85547 1.53906L281.22656 337m11.19531-.21875l-3.91015-5.83594m3.91015 5.83594l-1.16015 2.16406m9.60937-3.10937l5.81641-3.94531m-4.96875 3.37109l-1.08594-.57422m12.97266-.41797l6.98047-.8125m-6.98047.8125l-1.39453-2.01953m14.72265 2.1211l6.95313-1.01563m-5.9414.86719l-.72657-.98829m12.9961.5586l7.02343.14062m-6.0039-.12109l-.5547-1.09375m19.28907-.79688l-5.85547 3.88282m12.80469-1.21485l6.875-1.45703m-5.875 1.2461l-.78516-.94141M380.5 332.35547l6.34375 3.01562m-5.42188-2.57812l-.05468-1.22656m15.92968-1.20313l-.62109 7m.53125-5.98047l1.1289-.48047m11.63673-.53906l.66015 6.9961m-.66015-6.9961l2.04687-1.34765m9.48828 2.03515l4.21485 5.6211m-4.21485-5.6211l1.04297-2.21875m11.42188 6.92578l5.91796-3.78906m-5.05859 3.23828l-1.0664-.60547m13.5625 1.22266l5.83593-3.92188m-4.98437 3.35157l-1.08203-.57813m15.03125-4.01953l2.86718 6.41406m-2.44922-5.48047l.75391-.96875"/><g clip-path="url(#Z)"><path fill="none" stroke="#000" stroke-linecap="round" stroke-linejoin="round" stroke-miterlimit="10" stroke-width=".5" d="M142.58984 317.32813l2.82032 6.4375"/></g><g clip-path="url(#aa)"><path fill="none" stroke="#000" stroke-linecap="round" stroke-linejoin="round" stroke-miterlimit="10" stroke-width=".5" d="M142.58984 317.32813l1.52344-1.92188"/></g><path fill="none" stroke="#000" stroke-linecap="round" stroke-linejoin="round" stroke-miterlimit="10" stroke-width=".5" d="M156.29688 317.1836l2.03515 6.72656m-1.73828-5.7461l.8711-.86719m9.86718 4.46094l6.59766-2.41797m12.71875-1.03515l-5.40625 4.48828m19.24219-3.64063l-6.44922 2.78907m5.51172-2.38282l.95703.76563m13.52734.85937l-6.91016-1.27343m6.91016 1.27343l.73828 2.33985m12.53906-3.78125l-6.83593 1.61328m5.84375-1.3789l.80859.92187m13.03906-2.2461l-5.91797 3.78907m5.0586-3.23829l1.0664.60157m12.83985-1.51563l-5.38281 4.51953m5.3828-4.51953l2.27735.91797m11.41406-.375l-6.1328 3.4336m5.23827-2.9336l1.03516.66406m10.98047 3.95704l-1.7461-6.8086m1.7461 6.8086l-1.8125 1.65234m15.51562-1.77735l-2.51953-6.55859m2.15234 5.60547l-.80468.92578m12.73828.22656l.97656-6.95703m-.83594 5.94531l-1.15234.41797m15 .6211l-.3711-7.01563m10.87891 5.84766l5.2461-4.67578m-5.2461 4.67578l-2.30078-.85156m21.47266-.1172l-6.47266-2.73827m16.10156 4.85156l.90235-6.96875m-.77344 5.95703l-1.14844.42969m16.60156-5.91016l-3.6328 6.01563m16.67968-6.16016l-3.09766 6.3086m3.09766-6.3086l2.45312-.07812m11.89454.84765l-5.16016 4.76953m4.41016-4.07812l1.15625.40625m12.46484-1.5039l-4.27344 5.57812m4.27344-5.57813l2.42187.40625m8.47657-1.11719l.5625 7.00391m-.5625-7.0039l2.0664-1.32422m12.92578 8.05078l-2.79296-6.44922m2.79296 6.44922l-1.53125 1.91797m16.66797-3.73438l-6.4375-2.8164m6.4375 2.8164l.1875 2.44531m-1.125-2.85546l.19141 2.4453m13.28516-5.96874l-4.88672 5.05078"/><g clip-path="url(#ab)"><path fill="none" stroke="#000" stroke-linecap="round" stroke-linejoin="round" stroke-miterlimit="10" stroke-width=".5" d="M466.0039 318.02344l2.35938.67578"/></g><path fill="none" stroke="#000" stroke-linecap="round" stroke-linejoin="round" stroke-miterlimit="10" stroke-width=".5" d="M465.29297 318.75781l2.35937.67969"/><path fill="#00f" fill-rule="evenodd" d="M255.08984 467.64844h8.6172V457.5039h-8.6172v10.14453"/><path fill="azure" fill-rule="evenodd" d="M256.92188 459.33594h.83203v2.82422h3.28515v-2.82422h.83594v6.48047h-.83594v-2.91797h-3.28515v2.91797h-.83204v-6.48047"/><path fill="#ff3030" fill-rule="evenodd" d="M353.42578 445.45703h7.6914V435.3125h-7.6914v10.14453"/><path fill="azure" fill-rule="evenodd" d="M355.25781 437.14453h.83594v5.73828h3.1914v.74219h-4.02734v-6.48047"/><path fill="#00f" fill-rule="evenodd" d="M388.23828 436.57813h8.61719v-10.14454h-8.61719v10.14454"/><path fill="azure" fill-rule="evenodd" d="M390.07031 428.26563h.83594v2.82421h3.28516v-2.82421h.83203v6.48046h-.83203v-2.91406h-3.28516v2.91406h-.83594v-6.48046"/><path fill="#00f" fill-rule="evenodd" d="M224.01953 414.38672h8.61719v-10.14453h-8.61719v10.14453"/><path fill="azure" fill-rule="evenodd" d="M225.85156 406.07422h.83594v2.82422h3.28516v-2.82422h.83203v6.48047h-.83203v-2.91406h-3.28516v2.91406h-.83594v-6.48047"/><path fill="#ff3030" fill-rule="evenodd" d="M193.64453 334.4961h7.69531v-10.14454h-7.6953v10.14453"/><path fill="azure" fill-rule="evenodd" d="M195.47656 326.1836h.83594v5.74218h3.1914v.73828h-4.02734v-6.48047"/><path fill="#ffffe0" fill-rule="evenodd" d="M235.22266 370.3789h22.17968v-10.1953h-22.17968v10.1953"/><path fill-rule="evenodd" d="M238.72266 362.01953h.5078v6.29297h-.78515v-4.48828h-1.39062v-.55469l.5625-.0664.25-.0547.23047-.08984.20312-.14062.17578-.21094.14063-.29297.10547-.39453m4.8125 0l.23047.01953.21875.05469.20703.08984.19922.1211.18359.14844.17187.17578.30078.41796.2422.4961.17968.54687.11328.57813.03906.58984-.03906.59375-.11328.58594-.17969.55078-.24219.5039-.30078.42579-.17187.17969-.1836.15625-.19921.12109-.20703.09375-.21875.05469-.23047.01953-.22657-.01953-.21875-.05469-.21093-.09375-.19532-.1211-.18359-.15624-.17188-.1797-.30078-.42577-.24609-.5039-.17969-.55079-.10937-.58594-.03906-.59375h.83203l.03125.5625.08203.50781.125.44141.16406.375.1875.30078.21094.22266.22265.13672.22657.04687.22656-.04687.22266-.13672.21093-.22266.1914-.30078.16407-.375.125-.4414.08203-.50782.02735-.5625-.02735-.5625-.08203-.5-.125-.4336-.16406-.36718-.1914-.29297-.21095-.21094-.22265-.1328-.22656-.04688-.22657.04687-.22265.13281-.21094.21094-.1875.29297-.16406.36719-.125.4336-.08203.5-.03125.5625h-.83203l.03906-.58985.10937-.57813.17969-.54687.2461-.4961.30077-.41796.17188-.17579.1836-.14843.1953-.1211.21094-.08984.21875-.05469.22657-.01953m5.09375 0h.5078v6.29297h-.78515v-4.48828h-1.39062v-.55469l.5586-.0664.2539-.0547.23047-.08984.20312-.14062.17188-.21094.14453-.29297.10547-.39453m2.82422 2.17578h.78515l.01953-.3164.0586-.28907.10156-.25.13672-.21484.1836-.17578.22265-.1289.26562-.08204.3086-.02734.23828.02344.22265.0625.20313.10156.17969.13672.14843.17578.11328.20312.07032.23828.02734.26172-.02344.26953-.0664.22657-.10938.1914-.15625.17188-.19922.16015-.24609.16797-.63281.38672-.53906.3125-.4375.32031-.34766.32422-.26172.33594-.1914.35156-.125.36719-.07032.39453-.01953.41797h4.21094v-.73828h-3.33203l.08203-.28516.11328-.23828.14844-.19922.1875-.17969.23047-.17187.28125-.17578.71484-.41797.41797-.20703.34375-.23047.28125-.25.21875-.26563.16406-.28125.11328-.28125.0625-.28515.01953-.28125-.04297-.38281-.11718-.34766-.19141-.3086-.25-.26171-.30078-.21485-.34766-.15625-.3789-.10156-.40625-.03125-.4375.03125-.39844.09766-.35156.16797-.3047.23437-.25.30469-.18358.375-.1172.44531-.03905.51953"/><path fill="#ffffe0" fill-rule="evenodd" d="M370.64844 370.23438h22.17969v-10.19141h-22.1797v10.1914"/><path fill-rule="evenodd" d="M374.14844 361.875h.50781v6.29688h-.78516v-4.48829h-1.39062v-.55859l.5625-.0625.25-.05469.23047-.08984.20312-.14063.17578-.21093.14063-.29297.10547-.39844m4.8125 0l.23047.01953.21875.0586.20703.08593.19922.1211.18359.15234.17188.17578.30078.41797.24218.49219.1797.54687.11327.58203.03906.58985-.03906.59375-.11328.58203-.17969.55469-.24218.5039-.30079.42578-.17187.1797-.1836.15233-.19921.125-.20703.09375-.21875.0547-.23047.01952-.22656-.01953-.21875-.05469-.21094-.09375-.19531-.125-.1836-.15234-.17187-.17969-.30079-.42578-.24609-.5039-.17969-.5547-.10937-.58202-.03906-.59375h.83203l.03125.5625.08203.50781.125.4414.16406.375.1875.30079.21094.21875.22265.13672.22657.04687.22656-.04687.22266-.13672.21093-.21875.19141-.30078.16406-.375.125-.44141.08203-.50781.02735-.5625-.02735-.5625-.08203-.5-.125-.4336-.16406-.36718-.1914-.29297-.21094-.21485-.22266-.1289-.22656-.04688-.22656.04688-.22266.1289-.21094.21485-.1875.29297-.16406.36718-.125.4336-.08203.5-.03125.5625h-.83203l.03906-.58985.10937-.58203.1797-.54687.24608-.49219.30079-.41797.17187-.17578.1836-.15234.1953-.1211.21094-.08594.21875-.05859.22657-.01953m5.09375 0h.50781v6.29688h-.78516v-4.48829h-1.39062v-.55859l.5586-.0625.2539-.05469.23047-.08984.20312-.14063.17188-.21093.14453-.29297.10547-.39844m2.82422 2.17578h.78515l.01953-.3164.0586-.28516.10156-.2539.13672-.21485.1836-.17188.22265-.1289.26562-.08203.3086-.02735.23828.02344.22265.0625.20313.10156.17969.13672.14844.17188.11328.20703.0703.23828.02735.26172-.02344.26953-.0664.22656-.10938.1914-.15625.16798-.19921.16406-.2461.16797-.63281.38672-.53906.3125-.4375.3164-.34766.32422-.26172.33594-.1914.35156-.125.3711-.07032.39453-.01953.41796h4.21094v-.74218h-3.33203l.08203-.28125.11719-.23828.14453-.20313.1875-.17969.23047-.17187.28125-.17578.71484-.41406.41797-.20704.34375-.23046.28125-.25.21875-.26954.16406-.27734.11328-.28125.0625-.28516.01953-.28125-.04296-.38671-.1172-.34766-.1914-.30469-.25-.26562-.30078-.21094-.34766-.16016-.3789-.09765-.40625-.03516-.4375.03516-.39844.09765-.35156.16797-.30469.23438-.25.30078-.1836.375-.11718.44922-.03906.51562"/></g></defs><use xlink:href="#ac"/></svg>