<svg xmlns="http://www.w3.org/2000/svg" role="img" xmlns:xlink="http://www.w3.org/1999/xlink" viewBox="142.45 309.95 326.84 171.84"><defs><clipPath id="a"><path d="M144 311.67188h1v168.65625h-1zm0 0"/></clipPath><clipPath id="b"><path d="M144 311.67188h324v168.65625H144zm0 0"/></clipPath><clipPath id="c"><path d="M347 311.67188h2V313h-2zm0 0"/></clipPath><clipPath id="d"><path d="M467 311.67188h1v168.65625h-1zm0 0"/></clipPath><clipPath id="e"><path d="M144 477h3v3.32813h-3zm0 0"/></clipPath><clipPath id="f"><path d="M154 477h6v3.32813h-6zm0 0"/></clipPath><clipPath id="g"><path d="M168 477h5v3.32813h-5zm0 0"/></clipPath><clipPath id="h"><path d="M181 477h6v3.32813h-6zm0 0"/></clipPath><clipPath id="i"><path d="M194 477h6v3.32813h-6zm0 0"/></clipPath><clipPath id="j"><path d="M208 477h6v3.32813h-6zm0 0"/></clipPath><clipPath id="k"><path d="M221 477h6v3.32813h-6zm0 0"/></clipPath><clipPath id="l"><path d="M233 478h8v2.32813h-8zm0 0"/></clipPath><clipPath id="m"><path d="M247 478h7v2.32813h-7zm0 0"/></clipPath><clipPath id="n"><path d="M260 477h7v3.32813h-7zm0 0"/></clipPath><clipPath id="o"><path d="M274 477h7v3.32813h-7zm0 0"/></clipPath><clipPath id="p"><path d="M287 477h7v3.32813h-7zm0 0"/></clipPath><clipPath id="q"><path d="M300 478h7v2.32813h-7zm0 0"/></clipPath><clipPath id="r"><path d="M314 477h7v3.32813h-7zm0 0"/></clipPath><clipPath id="s"><path d="M327 477h6v3.32813h-6zm0 0"/></clipPath><clipPath id="t"><path d="M343 476h2v4.32813h-2zm0 0"/></clipPath><clipPath id="u"><path d="M354 477h6v3.32813h-6zm0 0"/></clipPath><clipPath id="v"><path d="M366 479h9v1.32813h-9zm0 0"/></clipPath><clipPath id="w"><path d="M380 478h7v2.32813h-7zm0 0"/></clipPath><clipPath id="x"><path d="M393 479h8v1.32813h-8zm0 0"/></clipPath><clipPath id="y"><path d="M393 479h2v1.32813h-2zm0 0"/></clipPath><clipPath id="z"><path d="M406 479h8v1.32813h-8zm0 0"/></clipPath><clipPath id="A"><path d="M405 479h3v1.32813h-3zm0 0"/></clipPath><clipPath id="B"><path d="M420 478h8v2.32813h-8zm0 0"/></clipPath><clipPath id="C"><path d="M418 479h3v1.32813h-3zm0 0"/></clipPath><clipPath id="D"><path d="M433 478h8v2.32813h-8zm0 0"/></clipPath><clipPath id="E"><path d="M431 480h4v.32813h-4zm0 0"/></clipPath><clipPath id="F"><path d="M446 478h8v2.32813h-8zm0 0"/></clipPath><clipPath id="G"><path d="M446 480h3v.32813h-3zm0 0"/></clipPath><clipPath id="H"><path d="M460 477h7v3.32813h-7zm0 0"/></clipPath><clipPath id="I"><path d="M144 463h2v8h-2zm0 0"/></clipPath><clipPath id="J"><path d="M144 450h2v8h-2zm0 0"/></clipPath><clipPath id="K"><path d="M144 455h1v3h-1zm0 0"/></clipPath><clipPath id="L"><path d="M144 436h1v9h-1zm0 0"/></clipPath><clipPath id="M"><path d="M144 442h1v2h-1zm0 0"/></clipPath><clipPath id="N"><path d="M144 423h2v8h-2zm0 0"/></clipPath><clipPath id="O"><path d="M144 410h3v7h-3zm0 0"/></clipPath><clipPath id="P"><path d="M144 399h4v3h-4zm0 0"/></clipPath><clipPath id="Q"><path d="M144 383h3v8h-3zm0 0"/></clipPath><clipPath id="R"><path d="M144 370h3v8h-3zm0 0"/></clipPath><clipPath id="S"><path d="M466 373h2v4h-2zm0 0"/></clipPath><clipPath id="T"><path d="M144 357h3v7h-3zm0 0"/></clipPath><clipPath id="U"><path d="M144 343h2v8h-2zm0 0"/></clipPath><clipPath id="V"><path d="M144 330h1v8h-1zm0 0"/></clipPath><clipPath id="W"><path d="M144 328h2v3h-2zm0 0"/></clipPath><clipPath id="X"><path d="M144 317h2v7h-2zm0 0"/></clipPath><clipPath id="Y"><path d="M144 315h1v3h-1zm0 0"/></clipPath><clipPath id="Z"><path d="M465 317h3v3h-3zm0 0"/></clipPath><g id="aa" clip-path="url(#clip1)"><path fill="#fff" fill-opacity="0" fill-rule="evenodd" d="M0 0h1000v1000H0zm0 0"/><path fill="#d3d3d3" fill-opacity="0" fill-rule="evenodd" d="M162.15234 355.86719l-.23437.29297.0586.23437.11718.17188.17578.23437.29297.34766.11328.0586.11719-.17188.0586-.23438.17577-.17578.46485-.17578h.69922l.23437.29297.28906.8164.0586.17579.17578.23046.35156.23438.69922.69922.17188.17578.23437.34765.23438.41016.28906.58203.41015.46485.23047.23437.23438.17578.11719.23047.17578.29297.17187 1.16406v.23438l.0586.28906.05859.11719.11719.11719.34765.41015.11719.17188.17578.17578.17578.23437.11719.17188.17188.35156.05859.23438.23437.40625.23438-.0586-.17578.17578-.0586.92969h-.58203l-.23437-.11328-.34766.11328-.11719.11719-.05859.29297-.0586.17578-.11718.17187-.46484.29297-.0586.23438-.0586.11328v.64453l.0586.17187v.41016l.0586.0586v.40624l.05859.40625.11719.17579.05859.05859.23047.64062-.0586.29297v.69922l-.05859.58203v.23438l-.0586.23047-.05468.35156v1.92187l.05469.1172h.42578l-.36719.11718-.02344.35156.89063 1.16797 1.74219.53906 1.33984.35938v.53906l.08984.8086.53516.71484 1.51953.26953.89063-.08594.08984 1.16406.53516.1797 1.16015-.1797 2.05469-.98437 1.16016-.36328 1.8789-.17578 1.69531-.1797-.17968.71876-1.51563.08594-1.25.08984-.80469.26953-1.07421.8086.26953.71875.53515.89843-.17968.625-.26563.8086.26563 1.07812.625.89844.80468.17969 1.25-.1797-.26562.72267.09766.5039.05468.29297v.17188l.0586.29296v.40625l.17578.1172.35156.11718h.40625l.29297-.17578.11328-.11719.0586-.11719.11718-.23047.0586-.17578.35156-.46484.23047-.17578.17578-.0586.17578.0586.0586.17578.11718.98828.05469.46875.0586.17188.11718.23437.17578.0586.8164.05859h.28907l.11719.23437.05859.40625.0586.35156v1.10547l.11718.29297.11719.34766.28906.69922.17578.35156.58203.7539.35157.17579.17187.0586.46875.23437.64063.46484.34765.23438.29297.17578.29297.05468.23047.0625.8164.34766.29297.17578.11328.17188.35157.35156.11719.17578.52343.64063v.28906l.0586.35156v.34766l.05859.35156.0586.28906.11718.0586.17188.05859h.17578l.58203.23437.17578.1172.17578.28905.17578.23438.11328.23437.29297.23047.11719.11719v.41016l.0586.05468.28906.23438.23437.11719.0586.11718.11718.17188.0586.11719.23047.23437.05859.17578.23437.0586.1172.05859-.1172.11328-.05859.11719v.11719l-.11719.29296-.11719.28907v.58203l.17579.11719.11718.05859.0586.11719.11719.11719.11328.05859.17578.34765.0586.35157.05858.40625v.17578l-.05859.17578-.11719.69922v.17187l.1172.17579.29296.29296h.40625l.17578.1172.11719.17187.11719.29296v.23438h-.52735l-.23047-.23438h-.23437l-.17578.0586-.0586.69922.0586.34765.11719.17579.17578.41015.11718.23047.28907.46875.17578.05469h.52344l.23437.0586.75781.64062.0586.29296v.23438l.05859.0586.23047.34765v.35156l-.11719.17188v.29297l.29297.28906.29297.17578.17187.0586.29297.17577.29297.1172.58203.40624.28906.23438.29297.17578.21875.16015.01563.01172.23047.17579.64062.52343.17578.23438.1172.17578.17577.17578.11328.17188v.64062l.1172.17578.46874.11719.58203.11719.23438.05859.23047.11328.29297.11719.11328.0586.58593.35156.28907.17187.17578.0625.17578.05469.17578.0586.69922.35155.28906.17579.23438.05468.28906.17578.23437.1172.64063.40624.29297.11719.17187.0586.23438.05859.41015.05859.23047.0586.23438.11718.0586.17188-.41017.17578.46875.0586.0586.29296.11328.23438.17578.05468.23438.0586.17578.05859.40625.11719.64062.23437.11719.17188.0586.23437v.17578l-.0586.1172-.0586.40624.23438.23438.11719.05859.34766.11719.64062.23047.17578.11718.28906.1172.17578.17577.23438.46485.58203 1.10546.17578.17579.34766.17578.17578.11719.35156.11718 1.04688.52344.23437.0586.46485.11327.29297.0586.46484.17578.75781.58203.23438.23438.34765.46484.17578.17578.28907.23438.8164.69921.29297.17579.28906.28906.29297.17578.29297.28906.69531.64063.17578.17578.29297.23437.28907.23438.46875.28906.64062.58203.34766.23438.23437.29297.34766.34765.35156.46485.9336.99218.34765.40625.11719.17579.23437.05859.11328.11719.64454.17578.23047.11328.23437.0586.29297.17577.23047.1172.9336.69921.40624.40625.23438.17578.40625.17578.23437.11719.8164.34766.34766.23437.23438.11719.29297.28906.23047.11719.7578.35156.35157.17188.23047.05859.29297.11719.23437.0586.8711.17577h.8164l.46875.23047.17188.0586.875.69921.46484.1172.29297.05858.17578.0586.23047.0586.46875.05859.34766.05859.35156.0586.40625.05859h.29297l.17187.0586v.23046l.17578.17578h.29297l.34766.0586.35156.05859.69922.11719h.64063l.46484-.23438.29297-.17578.17187-.11719.41016-.17187.28906-.17578.9336-.46485.46875-.29297.52343-.29296.46485-.17188.46484-.17578 1.05078-.46485.28906-.11718.41016-.11719.28906-.11719.52735-.17578 1.51562-.69922.58203-.34765.28907-.0586.29297-.0586.34765-.11718.875-.23047.35156-.11719h.11329l.23437-.05859.875-.23437.23438-.0586h.8125l.35156-.0586.8164-.11718.17188-.0586.35156-.05468.29297-.0586.23047-.05859.8164-.17578.17579-.0586h.34765l.23438-.05859.46484-.11718.75781-.17188.23438-.0586h.34765l.41016-.11718.28906-.0586 1.28516-.05859h.28906l.41016-.0586.23047-.05858h.17578l.875-.1172h.40625l.41015-.11718h.34766l.35156-.11328.8711-.0586h1.75l1.04687.28907.41016.11719.28906.11718.35156.11719.28907.11719 1.05078.17187.28906.0586h.29297l.29297.05859.17187.0586.41016.05859.17187.0586.1172.05858h.11718l.11719.0586.35156.0586h.11328l.41016.0664 1.92187.39453 1.92578.39453 1.51953.44922 1.69532.71875 2.14453.80469 1.60547-.71875 1.42968-.80469 1.16016-1.07813 1.25-.44921 3.03516-.71875 1.875-.35938 2.14453-1.34765 2.23437-1.25391 2.5-1.25781 1.69531-.44922 1.78516-.17969 1.16016-.26953.625.53906 1.33984-.26953.71485-.98828.98437-1.34375.44531-.17969.80469-.35937 1.875-.53907 1.78516-.44921 1.25-.26954 1.16015-.08984 1.69922-.08984 1.96094-.26954 1.25-.08984h.53906l.625-.08984h.89063l2.14453-.17969 2.41015-.17969 2.58985-.08984 1.69531.17969 1.60938.08984 1.42968.35938 1.16016.71875 1.875.98828 1.16015 1.52734.26563.71484.6289.08985.35548.89844.53515.53906.53516 1.52734 1.07422.35938h.53515l-.80469.53515.08985 1.70703.71484 2.69532.89063.80468.89453.98829.71484 1.2578 1.78516.53907 1.51953-.17969.35547 1.34375 1.60937-.80469.98047-.53906.26953.26953.31641-.21484.21875-.14453.80078.44922.44922-.35938h.35547l.53515-.26953.53907-.71875.53515-.26953.625-.98828 1.16016.44922.83984.3711 1.39454.61718 1.6953-.17969h1.60548l1.78515.08985.17969-1.70704.53516-1.34375.80468.26954.4922.84765.40233.40625-.08984.53906v.35938l.71485.44922.71093-.26953h1.42969l.35938.98828.4453 1.25781.71485 1.34375 1.25.6289 1.69531.62891.71485-.17969.17969-.53906.98046-.08984.44922.35937.08594 1.25782-.26563.6289-.53515.17969v.53906l.71484.98438.26563.53906.98437.98828.80078 1.07813-.26562.35937-.08985.89844-.625 2.33203-.35546 2.0664-.08985 1.79298-.17969.71875-.08984.53906v1.4375l-.98047 1.88281-.35937 1.70703-.53516.89844-.80469 1.16797-.26562.53906 2.05469 1.2539.08593.35938-.35546.53906-.08985-.17968v.80859l.08985 1.4375-.44532.71484-1.07422.09375-.26562.71485.53515.89844.8047.71875 1.16015.80859 1.33984.26953.44531.35938-.35546.44921-1.78907-.08984-1.25-.44922-.71484-.71875-.625-.08984-.17578 3.58984-.1875 1.3086h89.35937V311.70313h-55.26953v49.08203l.76172.125 3.28906.54296 2.02344 2.83594v2.7539l2.35156.33204 2.34766.33203h4.05078l-1.3789 4.16016-2.02344.70703-2.02344.70312-.54297.34375-2.59375 1.6172-.1875.11718-2.02344-2.07813-.73046-2.74218-2.67188-2.07813-1.375-3.5-.0664-.08203-1.95704-2.67188 2.75-1.41796v-49.08204H294.42187v91.41407l.1172.03125.1328.01172.07422.07421.10547.04688.08985.0586.08593.05859.08985.0586.29687.29687.0586.08984.03125.11719.02734.11719.01563.13671-.03125.1172-.0586.08983-.0586.08594-.04296.10547-.04688.10156-.02734.1211v.14453l.17578.26953.14844.14844.07422.08594.07422.07421.04296.10547.0625.08985.0586.08593.04297.10547.0586.08985.04687.10156.04296.10547.0586.08594.11719.17968.07421.07422.0625.08594.0586.08984.04297.10547.0586.08985.05858.08593.0625.08985.0586.08984.04297.10156.11719.17969.07421.07422.0586.08594.07422.07421.08984.0586.10547.04687h.14844l.1328-.01562.13282.01562.10156-.04687.07422-.07422.04688-.10156-.01563-.13281v-.14844l-.04687-.10547-.02735-.11719-.04687-.10156-.02735-.1211-.04296-.10156-.0625-.08984-.04297-.10156-.04297-.10547-.03125-.11719-.01563-.13281-.01171-.13672.08593-.0586.0586-.08593.12109-.03125.04297.10547.01562.1328v.1172l.0586.10156.0586.08984.08983.0586.14844.14843.0586.08985.04296.10547-.01171.10156.08593.0586.10547.04687.08594.0586.08984.05858.07422.07422-.11719.02735-.10546.04687-.08594.0586-.07422.07421-.0586.08985-.0625.08594-.02734.12109-.04687.10156-.04297.10547-.03125.11719-.01172.13281-.01563.13281v.14844l.02735.11719.04687.10547.04297.10156.0586.08984.07421.07422.08985.0586.07422.07421.08984.0586.0586.08984.04296.10547.04688.10156.11719.03125.1328.01563h.14845l.11718-.03125.10547.04297.04297.10547.04688.10156.02734.1211L299.5 410l.02734.11719.03125.1211.02735.11718.10547.04297.10156.04687.13281-.01562.14844.14844.0625.08593.07422.07422.07031.07422.08984.0625.10547.04297.10156.04297.1172.03125.13671.01562.11719-.03125.07422-.07422.02734-.11718-.01172-.13282-.03125-.12109-.02734-.11719.04297-.10547h.11719l.08984.0625.11719.02735h.14843l.13282.01562h.14843l.13282.01563.1328-.01563h.14845l.1328-.01562.13282-.01172.13672.01172.11719-.02735.13281-.01562.1914-.0586-.05859.17579-.01562.1328-.02735.1211-.01562.13281-.0586.08594-.1328.01563-.10548.04687-.10546.04297-.1172.03125-.11718.02735-.26563.03125h-.14843l-.13281.01562-.07422.07422.05859.08594.14844.14843.11719.1797.07421.0703.08985.0625.08984.0586.08594.0586.08984.05858.10156.04297.10547.0625.10547.04297.08594.0586.10547.04687.10156.04297.17969.11719.0586.08984-.04298.10156-.04687.10547.01562.13281.22266.22266.0586.08985.04296.10156.03125.1211.04297.10155.01563.13282.03125.11718.01171.13672.03125.11719.14844.14844.10156.04297.10547.04296.1172.03125.1328.01563.13672.01563h.11719l.11719-.03125.08984-.0586.04297-.10547.04688-.10156.04296-.10547.03125-.11719.01172-.1328v-.14845l-.01172-.1328-.01562-.13282-.03125-.11719-.04297-.10547-.04688-.10547-.04296-.10156-.04297-.10547-.01563-.13281.01563-.13281.02734-.11719.03125-.11719.02735-.1211.04687-.10155.08984-.0586.08594-.0625.07422-.07422.08984-.05859.22266-.22266.0586-.08593.07421-.07422.11719-.17969.0586-.08594v-.14844l-.07423-.07421-.10156-.04688-.10547-.04297-.10156-.04297-.0586-.08984-.04687-.10547-.02734-.11719.08984-.05859.11719-.03125.10156-.04297.17969-.11719.14844-.14843.01172-.13282-.01172-.10546-.08985-.0586-.1328.01563h-.14845l-.1328.01562-.13282-.01562-.1211-.03125-.08593-.0586-.07422-.07422-.0586-.08984-.0625-.08594-.11718-.17969-.0586-.08593.03125-.1211.08594-.05859.1211-.03125.05859-.08594v-.1211l-.03125-.11718-.0586-.08984-.05859-.08594-.04687-.10547-.02735-.11719-.01562-.1328.0586-.08985.07421-.07422.08984-.0586.1172-.17968.07421-.07422.0586-.08594.14843-.14844.1211-.03125.1328-.01562.13282.01562.07422.07422.04297.10547.01562.13281-.03125.1172-.11719.03124-.1328.01172-.14844.14844-.04297.10547-.04688.10156-.02734.1211-.03125.11718v.14844l.03125.11719.04297.10546.05859.08985.07422.07031.07422.07422.11719.03125.12109.02734.11719-.02734.1328-.01563h.1172l.08984.0586.07422.07422.04687.10546.0586.08594.10156.04688.13281.01562.10547.04297.08594.0586-.01172.10546-.07422.07422-.17969.11719-.05859.08984-.08984.0586-.07032.07422-.07421.07421-.0625.08985-.02735.11719-.01562.1328.01562.13282-.01562.13281v.14844l.01562.13281.02735.1172.03125.12108.07421.07422.08985.0586.08594.0586.08984.05858.11719.03125v.08594l-.10157.04688-.08984.0586-.26563.03124-.11718.02735h-.14844l-.10547.04296-.10156.04688-.0586.08984-.0625.23438-.01171.13281-.03125.1211-.01563.1328v.29298l-.01172.1328.01172.13673.01563.1328.1328.01563.13282.01172.1211.03125.08593.0586.07422.07421.04688.10547.04296.10157.01563.1328v.44532l-.01563.13281v.44532l.03125.26562.02735.11719.01562.13281.03125.11719.08594.21094.03125.26562v.14844l-.03125.11719-.02734.11718-.03125.1211-.02735.11719-.03125.11718-.03125.1211-.01171.1328-.01563.13282.08984.0586.1172-.03125.10155.01562.04688.10547-.03125.26562v.44141l-.04297.10547-.04688.10547-.04296.10156-.04297.10547-.0586.08594-.03125.12109-.04296.11719-.03125.11719-.01563.1328.01563.13282.05859.08984.10547.04688.08594.0586.05859.08593-.01172.13672-.03125.11719-.04297.10156v.44531l-.01562.13281v.14844l-.03125.11719-.04297.10547-.02735.11719-.04687.10546-.04297.10157-.03125.12109-.02734.11719-.03125.13281-.03125.11719-.02735.11719-.04297.10546-.03125.1172-.03125.12108-.01171.13282-.01563.13281v.29688l.02734.11718v.14844l.04688.39844.02734.11719.0586.08984.12109.03125h.14844l.13281-.01563.0586.08985v.11719l-.0586.08984-.08984.0586-.10157.04296-.10546.04688-.08985.05859-.08594.0586-.13671.01562-.1172-.03125-.1328-.01563-.10157.04688-.0625.08594-.01172.13671-.01562.13282-.03125.11719-.02735.11718-.01562.13281-.03125.1211v.29687l.01563.13282.03125.11718v.14844l.01171.13281v.14844l-.02734.11719-.04688.10156-.02734.1211-.03125.11718-.0586.08985-.07421.07421-.10156.04297-.10547.04688-.11719.02734-.1211.03125-.10156-.04687.0586-.08594.10547-.04688.02734-.11718.03125-.11719.02734-.1211.03125-.11718v-.14844l.01563-.13281-.03125-.11719-.04297-.10547-.10547.01563-.07422.07422-.10156.04296-.08984.0625-.07422.07422-.04297.10157-.01563.1328-.03125.1172L304.25 426l-.03125.11719-.02734.11719-.03125.12109-.02735.11719-.03125.11718-.04297.10547-.08984.0586h-.08984l-.1172-.03125-.03124-.08594.01562-.13672-.03125-.11719v-.14844l-.01171-.1328v-.14844l-.0625-.23438-.02735-.1211-.04297-.10156-.04687-.10546-.0586-.08594-.05859-.08985-.04297-.10546-.0625-.08594-.14844-.14844-.0703-.07422-.10548-.04687-.10547-.04297-.10156-.04297-.29687-.29688-.08985-.07421-.08594-.0586-.10546-.04297-.08985-.0625-.08594-.0586-.10546-.04296-.08985-.0586-.08594-.0625-.07421-.0703-.10547-.04688-.08594-.0586-.10547-.04296-.08984-.0625-.10156-.04297-.10547-.04297-.08594-.0586-.10547-.04687-.10547-.04297-.10156-.04687-.08985-.0586-.10156-.04297-.10547-.04296-.08984-.0625-.11719-.02735-.13281-.01562-.13281.01562H299.75l-.13281.01563-.11719-.03125-.08984-.0586-.07422-.07422-.08985-.05859-.10156-.04688h-.14844l-.12109-.02734-.10156-.04297-.07422-.07422-.11719-.17968-.08984-.0586-.10156-.04297-.08985-.0625-.10547-.04296-.08984-.0586-.08594-.0586-.10547-.04687-.0586-.08594-.05858-.08984-.04297-.10547-.04688-.10156-.07422-.07422-.08594-.0586-.07421-.07421-.08985-.0586-.22265-.22265-.04297-.10547-.03125-.26563.10547-.04296h.14453l.10547.04296.07421.07422.08985.0586.08594.0586.10546.04687.08985.05859.14844.14844.0703.07422.14845.14843.0625.08594.07421.07422.08594.0586.07422.07421.08985.0625.08984.0586.08594.05859.26953.17578.10156.04688.10547.04296.10156.04297.04688-.07421.05859-.08594.07422-.07422.07031-.07422.10547.04297.07422.07422.0586.08984.04296.10156.04688.10547.04296.10547.1211.02735.11719-.02735.07421-.08984.04297-.10547.0586-.08985.07422-.07421.10546-.04297.1172-.02735.1328.01172.08985.0586.14844.14843.05859.08985.04297.10547.04687.10156.04297.10547.04297.10156.10547.04688.10547.04296.13281.01563.08594-.0586.0586-.08984.07421-.07422.10547-.04297.11719.02735.10547.04687.10156.04297.10547.04297.10156.04688.17969.11718v.11719l-.01563.13281.01563.13281.01562.13672.0586.08594.10156.04688.1211.02734.11718.03125h.14844l.11719-.03125.05859-.08984.17969-.1172.05859-.08983.07422-.07422.0586-.08594.11718-.17969.17969-.11719.11719.03125.08984.0586.04297.07422-.01563.1328v.1172l.08985.05859h.14843l.13282-.01563.1328-.01171.26563-.03125.10547-.04297.11719-.03125.1211-.02735.07421-.07421.07031-.07422.0625-.08985-.01562-.10547-.04688-.10156-.10156-.04297-.10547-.01562-.11718.02734-.26563.03125h-.14844l-.07421-.07422-.08985-.0586-.11719-.03124-.11718-.02735-.13282-.01562h-.14843l-.13282.01563h-.29687l-.10547-.04688-.14844-.14844-.04297-.10156-.05859-.08984.22266-.22266.08593-.0586.10547-.04296.11719-.03125.13281-.01563.13281.01563.13672.01562.10157.04297.1328-.01172.08985-.0625.10156-.04297.0625-.08984-.04687-.10156-.08984-.0586-.1172-.03125-.10155-.04296-.0586-.08985-.0625-.08984v-.11719l.01563-.13281.10547-.04688.07421-.07031v-.1211l-.08984-.05859-.03125-.11719.08985-.05859.07421-.07422.04297-.10547.0586-.08984.04687-.10156.01563-.13281v-.14844l-.04688-.10547-.04297-.10156-.08984-.0586-.13281-.01562-.10157-.04297-.13671-.01563-.1172-.03125h-.4453l-.13282-.01562-.13281-.01172-.13281-.01563-.11719-.03125h-.14844l-.13281-.01562-.13281-.01172-.26563-.03125-.1211-.04297-.08593-.0586-.07422-.07421v-.14844l.01172-.13281.10547-.04688.10156-.04296.13281-.01563h.15235l.13281-.01562h.29297l.1211.03125.10156.04296.08984.0586.23438.0625.12109-.04688.08984-.05859.10156-.04297.13282-.01562.10547.04296.10156.04688.13281.01172.1211-.02735h.14453l.12109-.03125.11719-.02734.10547-.04687.07421-.07422.08594-.0586.14844-.14843.0586-.08594.04687-.10547.02734-.11719.01563-.10547-.10156-.04296-.08985-.0586-.11719-.03125-.10546-.04297-.08985-.0625-.07422-.08594-.07422-.07421-.10156-.04297-.10547-.04688-.10156-.04297-.0586-.08984-.04687-.10156-.08594-.21094-.0625-.08594-.05859-.08984-.07422-.07422-.08594-.0586h-.26953l-.11719.03126-.08984.05859-.10156.04297-.13281.01562-.10547-.01562-.02735-.11719-.0625-.08984-.11718-.03125-.10157-.04297-.14843-.14844-.03125-.11719-.01563-.10546.07422-.07422.17969-.1172.11719-.02733.11718-.03125.13672.01562.10156.04297.10547.04297.10156.04687.10547.04297.1172.03125.1328.01563.1172.02734.1328.01563.10547-.01563.08985-.0586-.07422-.07421-.10547-.04297-.07422-.07422-.07422-.08984-.14844-.14844-.08593-.0586-.08985-.05859-.07422-.07422-.08984-.0586-.10156-.04687-.1211-.02734-.10156-.04688-.10547-.04296-.11719-.03125-.10156-.04297-.1211-.03125h-.14843l-.11719.03125-.10546.04297-.08594.0625-.17969.11718-.08594.0586-.08984.0586-.10547.04687-.08594.05859-.10547.04297-.10156.04297-.10547.04687-.07422.07422-.05859.08985-.0586.08593-.04687.10547-.0586.08594-.07421.07422-.13281-.01172-.1172-.03125h-.11718l-.07422.07422-.08984.0586-.07422.07421-.08984.0586-.08594.05859-.10547.04687-.10156.04297-.13672.01563-.10156-.04297-.14844-.14844-.10547-.04688h-.08594l-.10547.04688-.10156.04297-.1211.03125-.11718-.03125-.07422-.07422v-.11719l.03125-.1211.07422-.0703.0586-.08985.07421-.07422.11719-.03125.10547-.04296h.29297l.13281-.01563.13672-.01563.10156-.04296.08985-.0586.10156-.04687.08984-.0586.13281-.01171.08985.05859.13281.01172.08984-.0586.08594-.05859.10547-.04297.08984-.0586.08594-.0625.08985-.05859.14843-.14843.0586-.08594.05859-.08985.10547-.04296.13281-.01563.11719.02735.1211.03125.05859-.0586.05859-.08984.03125-.26563.02734-.11719.10547.01172.13281.01563.10157-.04297.08984-.0586.0586-.08984.07421-.07422.0586-.08984.04687-.10156.01172-.13281-.01172-.13282-.04687-.10547-.14844-.14843-.0586-.08985-.05859-.08594-.04297-.10546v-.44532l.01563-.1328v-.14845l.01172-.1328-.0586-.0586-.08984.0586-.10156-.04298-.17969-.11719-.08594-.05859-.0625-.08984-.0586-.08985-.07421-.07421-.08594-.0586-.1211.03125-.10155.01172-.10547.04688-.08594.05859-.10547.04297-.14844.14844-.08984.05859-.08594.0586-.08984.0625-.10547.04296-.13281.01563v-.1211l.10547-.04297.11718-.03125.07422-.0703.04297-.10548v-.14844l-.02734-.11718-.14844-.14844-.13281-.01563h-.14844l-.11719.03125-.10547.04297-.10156.04297-.08984.0625-.11719.02735-.07422-.07422.01172-.13281-.04297-.10157-.04297-.10547-.08984-.05859-.11719.02734-.1211.03125-.11718.03125-.10156.04297-.1211.03125-.10156.04297-.10547.04297-.08984.0586-.10156.01562v-.11719l.01562-.13281-.0586-.08985-.07421.04297-.14844.14844-.0586.08985-.07421.07421-.04688.10547-.04296.10156-.07422.07422-.0586.08985-.07422.07422-.05859.08593-.07422.07422-.08984.0625-.07422.07031-.07422.07422-.10156.01563-.13281.01562-.10547-.04296v-.1211l.14843-.14844.04297-.10156.0586-.08984.04687-.10156.04297-.10547.0586-.08985.03124-.11719.04297-.10156.03125-.1211.02735-.11718.04687-.10547.04297-.10156.04297-.10547.07422-.07031.08984-.0625.08985-.0586.10156-.04296h.29687l.26563-.03125.10547-.04297-.07422-.07422-.11719-.03125-.10547-.04297-.08984-.0586-.10156-.04687-.08985-.0586-.10156-.04296-.10547-.04297-.08984-.0625-.08594-.0586-.10547-.04296-.10156-.04297-.1211-.03125-.11718-.03125-.10157-.04297L297.5 410.25l-.10156-.04297-.08985-.0586-.04296-.10546-.01563-.13281.10156-.04297.13281-.01563.13672.01563.13282-.01563.10156-.04297.0586-.08984.01562-.10547-.08985-.0586-.07421-.07421-.10157-.04297-.08984-.0586-.14844-.14843-.04297-.10547-.01562-.13281v-.29297l-.0586-.08985-.08984-.05859-.07422-.07422-.04297-.10547-.03125-.11718-.0586-.08985-.07421-.07422-.11719-.02734-.07422-.07422-.08984-.0586-.08984-.0625-.08594-.05859-.07422-.07421-.0586-.08594-.04687-.10547-.08594-.0586-.14843-.14843-.19532-.0586-.1328.01563-.10157.04297-.07422.07422-.04688.10156-.04296.10547-.0586.08984-.0586.08594-.29687.29687-.08984.0586h-.08594l-.0625-.08594-.04297-.10547.03125-.11719.0586-.08984.02734-.11719-.01172-.13281-.08984-.0625-.10547.04688-.11719.02734-.11719.03125-.26953.17578-.10156.04688-.11719.02734-.10546.04687-.08985.0586-.10156.04297-.0586-.08594-.04687-.10547.01563-.13281.04687-.10547.07031-.07422.07422-.07031.0586-.08985v-.14843l-.04297-.10547h-.23829l-.10156.04687-.03125.11719-.02734.11719-.03125.1211-.07422.04296-.13281.01563-.07422-.04688-.04297-.10156-.04297-.10547-.04687-.10156-.04297-.10547-.1211.03125-.10156.04297-.13281.01562-.11719.03125-.10547.04297-.08984.0586-.10156.04687-.1211.02734-.13281.01563-.10156-.04297-.0586-.08985-.04687-.10546-.04297-.10157-.04297-.10546v-.1172l.0586-.08984.08593-.05859.17969-.11719.10156-.04687.10547-.04297.10547-.0586.10156-.04296.08985-.0625.10156-.04297.10547-.0586.10156-.04687.08984-.0586.10547-.04296.10156-.04297.08985-.0625.10156-.04297.13672-.01563.11719.03125.10156.04297.1211.03125.10156.04297.10546.04688.10157.04296.10547.04297.10156.04688.10547.04297.10156.04297.10547.04687.08594.0586.10546.04296.1172.03125.10546.04297.10156.04688.08985.0586.10547.04296.10156.04297.10547.04687.11719.02735.10156.04687.1211.02735h.14843l.08594-.0586.01562-.10156.0586-.08984-.02735-.1172-.07422-.07421-.11719-.17969-.07421-.07422-.08985-.07421-.17969-.1172-.08593-.05859-.10547-.04296-.10156-.04688-.26954-.17578-.05859-.08985-.07422-.07421-.0586-.08985-.04296-.10156-.03125-.11719-.01563-.13672v-.5625l-.01171-.1328-.01563-.13282-.03125-.11719-.01562-.13281-.01172-.13281-.03125-.1211-.22266-.22265-.0586-.08594-.01562-.10547.03125-.11719.13281-.01562v-91.41406H172.9922v1.45312l-.0586.23438-.35156 1.05078-.17187.52343-.1172.34766-.17577.41016-.11719.17187-.23438.29297-.23046.0586h-.35157l-.11718.05859-.23047.40625v.29297l.11719.17578.23046.23047.1172.23437.64062.75781.29297.46485.17578.23437.23047.35156.23437.34766.64063.8164.17578.46485.17187.41016.11719.69531.17578.46875.11719 1.39844.0586.46484v.875l.11718 1.04688v4.78125l-.0586.46484-.35156 1.28125-.17578.52344-.11328.41015-.35156.9297L172.93359 336l-.23437.58203-.11719.17578-.17187.34766-.17578.40625-.35157.8164-.0586.29297-.11327.29297-.11719.28906-.0586.17579-.11718.875-.0586.40625-.05859.11718-.0586.17579-.05859.17187-.23047.52734-.11718.17188v.23437l-.11719.23438-.0586.17187-.17577.58594v.28906l-.0586.17579v.29296l-.0586.11329-.05859.52734v.17187l-.05468.23438v2.6211l-.17578.8164-.1172.17578-.17577.23438-.1172.17187-.11327.23438-.58594.93359-.23047.28906-.29297.46485-.17578.23437-.28906.35156-.35156.69922-.11328.23047-.17579.41016-.17578.23046-.40625.52735-.8164.69922-.29297.17187-.28906.23438-.17579.11719-.17578.17578-.52344.40625-.52734.17578-.17187.17578-.23438.05469-.64062.17578h-.75782m12.21094 31.02344l-1.07422.44921.35938.89454 1.25-.71485.44531-.53906-.98047-.08985"/><path fill="#d3d3d3" fill-opacity="0" fill-rule="evenodd" d="M201.50781 416.59766h-.89453l.44922.6289.98047.35938.80469-.08985.4453-.98828-.17577.08985-.71485-.35547-.89453.35547m154.6211 59.0703l-.0586-.52343v-.29297l.11328-.29297.0586-.23046.46875-.46875h.11328l.11719-.11329.11718-.05859h.17579l.23437-.0586h.34766l.23437.0586.11719.0586.23047.17187.0586.17578.11718.58203v.29297l-.11719.17578-.17187.28906-.17579.17579-.52734.52343-.23047.23438-.11719.0586h-.17578l-.11718-.0586-.40625-.29297-.17579-.11719-.11718-.0586-.0586-.11327-.05468-.1172m6.64062-10.95702l-.0586-.17188v-1.10937l.0586-.17188.17578-.0586.17188-.05858h.17578l.23437-.0586.1172.0586.05858.69921-.05859.17188-.11719.17578-.11718.0586-.23438.52343-.11328.0586h-.23438l-.05859-.1172m9.61328-14.39062l-.11719-.17578v-.69922l.29297-.875.1172-.17187.17577-.35156.11328-.23047.1172-.29297.35155-.75781.1172-.23047.17187-.23438h.17578l.11719-.0586h.64062l.11719.0586.23437.23438.17188.11328.35156.29297.11719.11718.11328.17579v.11328l.11719.05859.11718.11719v.69922l-.05859.17578v.23047l-.0586.17578-.34765 1.05078-.11719.23047-.11719.23437-.11718.0586-.23047.23437-.64063.28906h-.875l-.41015-.11718-.64063-.46485"/><path fill="none" stroke="#bebebe" stroke-linecap="round" stroke-linejoin="round" stroke-miterlimit="10" stroke-width=".5" d="M467.95703 311.69531H144.02734v168.625h323.9297v-168.625"/><g clip-path="url(#a)"><path fill="#fff" fill-opacity="0" fill-rule="evenodd" d="M144 475.89063v4.4375h.0039H144V311.67188h.0039H144v164.21875"/></g><g clip-path="url(#b)"><path fill="#fff" fill-opacity="0" fill-rule="evenodd" d="M144.0039 480.32813V311.67188h35.50391v55.03125l-2.67187 2.66796-1.76953 2.17579-2.375 2.26171 2.375 2.29688 4.4414.42969 3.21485-2.72657-.15625-4.4375-3.0586-2.66796v-55.03125h31.0664v58.40234l-4.4375 2.08984-1.70312 1.64453-2.44922 4.4375-.28515.5-4.4375 2.83594-1.10938 1.10156-2.70312 4.44141-.6289.85938-3.44141 3.57812-.5625 4.4375-.4336 2.35156-.78515 2.08594-3.52344 4.4375-.1289.08594-4.4375 4.28125-.08985.07422-1.15625 4.4375-3.19531 2.85937-4.33594 1.57813-.10156.04296-4.4375 1.39844-4.4375 1.1914-1.46094 1.8047-1.47656 4.4414-1.5 2.57422-1.8125 1.86328-2.62891 3.01563-1.4336 1.42187 1.4336 1.86328 4.4414 1.46094 4.4375-1.32031 2.1797-2.0039 2.2578-1.33985 3.52735-3.09766.91016-1.17969 4.4375-.11328 4.4414-.61718 4.4375-.33985 1.63281-2.1875 2.8047-.91015 3.57421-3.53125.86328-1.03907 3.83594-3.39843.60547-.2461 4.1875-4.1914.25-1.10157 2.1914-3.33593 2.2461-3.3086 4.4375 1.09375 2.19922 2.21485 2.24219 1.60546 4.4375 2.23829.7578.59375 3.6797 2.59375 4.4375-.03125 4.4375-.42579 3.16406 2.30079 1.27734.97265 1.07813-.97265 1.58593-4.4375-2.66406-3.46485-.95703-.97265.95703-1.60157 2.3125-2.83984 2.125-.73828 3.48047-3.69922L243.53125 396l-1.88672-1.76953-4.4375 1.15234-4.29297-3.82031 3.6289-4.4375-3.77733-3.01953-1.58204-1.42188-2.85547-2.51171-4.4375-1.7461-.02734-.17969-1.48828-4.4375-2.92188-2.66015-4.4375-.6211-4.4414-.45312v-58.40235h71.01562v51.44532l-4.4375.70312-2.05078 1.11328-2.39062.60938-3.48828 3.82812.57421 4.4375-1.52343 2.21094-4.4375-1.47265-.5-.73829.5-.79687 3.74219-3.64063-3.7422-3.59375-3.17187-.84375-1.26562-1.16406-1.58985 1.16406-2.85156.64063-4.4375.89453-4.4375 2.73828-.08594.16406-3.59375 4.4375 3.6797 2.7461 4.4375 1.63672.08593.05468-.08594.04688-4.2461 4.39062 4.2461 3.64844 1.17969.79297 3.25781 3.58203 4.4414.42578 1.19141.42969 3.2461 2.16406 4.4375-.08203 2.08594-2.08203 2.35156-.80469 4.4414-1.15234 2.3711-2.48047-2.3711-3.97656-.1914-.46485.1914-.55468 4.4375-2.40625 3.5586-1.47657.8789-.15625 4.4375-1.3789 4.4375.07812 1.97657-2.98047 1.40234-4.4375-3.3789-3.2578-4.4375-.03517-4.4375-.07812-2.73438-1.0664-1.70313-1.81641v-51.44531h57.69922v50.5703l-3.29687 2.69141 3.29687 3.32422 4.4375-.46094v6.02344l-4.4375 1.94922-1.375 2.47656 1.375 1.02735 4.4375 2.76953v2.82812l-4.4375.01954-3.89062 2.23437-.55078.58203-2.32813 3.85547 2.32813 3.6289 1.2578.8086-1.2578 3.3086-.46485 1.1289.46485.27734 4.4414 1.66016 4.4375-1.82813 4.4375.21094v51.2539l-2.3164 1.6875 2.3164 1.50782 2.01563-1.50781-2.01563-1.6875v-51.2539l4.4375 2.14843 4.25-2.46875-4.25-2.9375-4.4375 2.66797L345.21094 396l-1.48438-2.14453-1.11719-2.29297 1.1172-2.07422 1.26952-2.36328-1.26953-2.2539v-2.82813l3.10938-3.79688-3.10938-4.42578v-6.02344l1.8789-2.86328-1.8789-2.40625-4.4375-.28515v-50.57031h8.3125l.5625.5664.6289-.5664h3.8086v26.54296l-.17187.08594.17187.10156v51.32422l-1.80469 1.83594 1.8047 3.1914 1.96484-3.1914-1.96485-1.83594v-51.32422l.20313-.10156-.20313-.08594v-26.54296h8.8789V413l-.83593.7539-3.60156 1.4375-2.78516 3 .95313 4.4375-.69922 4.44141 2.53125 4.20703 4.34765-4.20703.08985-.02344 3.78906-4.41796-.97656-4.4375-2.01172-4.4375-.80078-.75391V311.67187h8.875v77.79688l-2.09766 2.09375L368.1172 396l2.23828 1.58203v38.58203l-3.71875 4.21875-.71875.86328-4.05469 3.57422-.38281 1.15625-2.53125 3.28516-1.90625 3.9375-.75781.5-3.37891 4.4375 1.51953 4.4375 2.61719 2.90625 2.35156 1.53515 2.08594 1.40235 4.4375 1.34375 4.4375.8164 4.4375-.21093 4.4414-.57031 2.58985-2.78125 1.34375-4.44141.14062-4.4375.36329-.35938 4.19921-4.07812-4.19921-4.29297-.1836-.14453.1836-1.72266 1.2578-2.71875-1.2578-.99219-4.4375-2.08593-4.44141-1.25-.33203-.10938-4.10547-4.21875v-38.58203l4.4375.39453L376.78125 396l-1.98828-3.375-.59375-1.0625-3.84375-2.09375v-77.79688h22.1914v87.94532l-1.68359.82031-2.7539.84375-4.4375 1.98828-4.4375 1.53906-.0586.06641-1.84765 4.4414 1.90625 2.0625 4.4375 1.78516.60937.58985-.60938 1.27343-4.4375-.15625-4.4414.27735-3.98047 3.04297 3.98047 3.41406 4.4414-1.2539 4.4375 1.80859.1875.46875-.1875 1.46484-.74609 2.97656.7461 3.29297.17578 1.14453-.17579.28516-2.40234 4.15234 2.40235 2.26563 3.98046-2.26563.45704-.28515.51171.28515 3.92579 2.36719 4.4375.75781 4.4414.28125 4.05078-3.40625.38672-1.0586 4.4375-2.65624.67969-.72266 3.21094-4.4375.54687-.61719 4.4414-3.42578v18.58985l-3.10546 3.20312-.9336 4.4414-.40234 2.6797-.78125 1.7578-2.60937 4.4375-1.04688 3.14845-.59765 1.28906.59765.60937.6836-.60937 3.7539-1.8125 4.4414-.1875 4.4375.40625 2.94141-2.84375 1.4961-1.52344 3.01953-2.91406-.83594-4.4375.08594-4.4414-2.26953-2.3086-2.38281 2.3086-2.0547 1.73437-1.27734-1.73438-3.16015-3.20312v-18.58985l3.54687 4.04297.89063.82422 4 3.61328.4375.48828 1.90625 3.94922 2.53125 3.6289 2.4414-3.6289-.02343-4.4375-2.41797-2.46094-1.3125-1.97656 1.3125-4.1914.23437-.25-.23437-.23047-4.4375-2.47266-4.4375-.45703-4.4375 2.79688-4.4414-2.55079-4.4375-.64062-4.4375.25-4.4375.4414-3.07032 2.86329-1.3711.625-4.4375.32812-1.32421-.95312-.32032-4.4375 1.59766-4.4375.04688-.54297.71875-3.89453.80859-4.44141-.44531-4.4375-1.08204-.82031v-87.94531h75.44922v168.65625H144.00391"/></g><path fill="#50fcfc" fill-rule="evenodd" d="M152.875 437.8086l-1.4336-1.86329 1.4336-1.42187 2.6289-3.01563 1.8125-1.86328 1.5-2.57422 1.47657-4.4414 1.46094-1.8047 4.4375-1.1914V423.75l-4.4375 2.36328-.4922.95703-2.15624 4.4375-1.78906 2.88281-1.33594 1.5547 1.33594.76562 1.49218-.76563 2.94532-1.85547 4.34765-2.58203.08985-.16797 2.64453-4.26953-2.64453-3.32031v-4.11719l4.4375-1.39844.10156-.04296 4.33594-1.57813 3.1953-2.85937 1.15626-4.4375.08984-.07422 4.4375-4.28125.1289-.08594 3.52345-4.4375.78515-2.08594.4336-2.35156.5625-4.4375 3.4414-3.57813.6289-.85937 2.70313-4.4414 1.10938-1.10157 4.4375-2.83594.28516-.5 2.44921-4.4375 1.70313-1.64453 4.4375-2.08984v1.41015l-3.23828 2.32422-1.19922.32032-3.6836 4.11718-.7539 1.32813-3.67578 3.10937-.76172 1.21094-2.57813 3.23047-1.86328 2.55469-1.8125 1.88281 1.5586 4.4375-2.91016 4.4375-.6211 4.4375-.65234.53125-4.4336 3.91016-.0039.0039-3.0586 4.4336-1.3789 3.6289-.8711.8086-1.64843 4.4375 2.51953 1.0078 4.4375.73829 4.4375-.40234 1.35938-1.34375 3.07812-3.70313.82813-.73437 3.61328-1.48047 2.95312-2.95703 1.20313-4.4375-4.15625-4.39454-.1211-.04687-.09765-4.4375.21875-.28125.26953.28125 4.16797 4.28125 4.4375-.73047 4.4375-2.32812.57422-1.22266L212.80859 396l-2.23437-3.39453-4.4375-.32031-2.75-.72266 2.75-3.86328 4.4375 1.71875 4.4414 1.48047 4.4375.55078.35938.11328 4.07813 1.96875 4.4375.30469 2.8203-2.27344L232.5 387.125l-4.17188-4.02734-4.4375.73828-4.4375-.19922-3.33984-.95313 3.33984-3.23046v3.21484l-.01953.01562.01953.00782.1172-.00782-.1172-.01562v-3.21485l1.20313-1.20703-1.20313-3.83203-.29687-.60547-4.14063-1.49609-4.4414-.82813v-1.41015l4.4414.45312 4.4375.6211 2.92188 2.66015 1.48828 4.4375.02734.1797 4.4375 1.74608 2.85547 2.51172 1.58203 1.42188v7.625l-4.4375 3.4414-4.4375.19922-4.4375-1.22265-4.4375-1.35938L214.1836 396l-.70703 4.4375-.32031 4.4375 1.85938 1.84375 4.4375-1.01172 2.98046-.83203 1.45703-.76172v3.25l-4.4375 1.46094-.875.49219.875.51953 4.4375 3.17578 4.4375-2.07422 1.51563-1.6211-1.51563-.93359-4.4375-1.01953v-3.25l4.4375-.46875 4.4375-1.01562 1.51172-2.19141L236.5 396l-3.73438-4.26953v-7.625l3.77735 3.01953-3.6289 4.4375 4.29296 3.82031 4.4375-1.15234v4.45312l-4.4375 1.14063-.3711.61328.3711.76172 4.4375.26172.96094-1.02344-.96094-1.7539v-4.45313L243.53125 396l1.59375 4.4375-3.48047 3.69922-2.125.73828-2.3125 2.83984-.95703 1.60157.95703.97265 2.66406 3.46485-1.58593 4.4375-1.07813.97265-1.27734-.97265-3.16406-2.30079-4.4375.42579-4.4375.03125-3.6797-2.59375-.7578-.59375-4.4375-2.23829-2.2422-1.60546-2.19921-2.21485-4.4375-1.09375-2.2461 3.3086-2.1914 3.33593-.25 1.10157-4.1875 4.1914-.60547.2461-3.83594 3.39843-.86328 1.03907-3.57422 3.53125-2.80469.91015-1.6328 2.1875-4.4375.33985-4.44141.61718-4.4375.11329-.91016 1.17968-3.52734 3.09766-2.25782 1.33984-2.17968 2.0039-4.4375 1.32032-4.44141-1.46094"/><path fill="#00e8fc" fill-rule="evenodd" d="M157.3164 436.71094l-1.33593-.76563 1.33594-1.55469 1.78906-2.8828 2.15625-4.4375.49219-.95704 4.4375-2.36328 2.64453 3.32031-2.64453 4.26953-.08985.16797-4.34765 2.58203-2.94532 1.85547-1.49218.76563"/><path fill="#50fcfc" fill-rule="evenodd" d="M175.0664 376.10547l-2.375-2.29688 2.375-2.26171 1.76954-2.17579 2.67187-2.66796v2.66015l-.00781.00781-.2461 4.4375.25391.05079.0586-.05079-.05078-4.4375-.00782-.0078v-2.66017l3.0586 2.66797.15625 4.4375-3.21485 2.72657-4.4414-.4297"/><path fill="#00e8fc" fill-rule="evenodd" d="M179.50781 423.63672l-2.51953-1.00781 1.64844-4.4375.8711-.8086 1.3789-3.6289 3.0586-4.4336.0039-.0039 4.4336-3.91016.65234-.53125.62109-4.4375L192.56641 396l-1.5586-4.4375 1.8125-1.88281 1.86328-2.55469 2.57813-3.23047.76172-1.21094 3.67578-3.10937.7539-1.32813 3.6836-4.11718 1.19922-.32032 3.23828-2.32421v2.34765l-4.4375 1.17578-2.89844 3.23828-1.53906 2.70704-2.04688 1.73046-2.39062 3.79297-.51953.64844-.95703 4.4375 1.4414 4.4375-4.40625 3.28125-.80078 1.15625.0664 4.4375-3.70312 3.01172-1.61719 1.42969-2.8203 4.0078-.29688.4297.29687 1.24218 1.08203 3.19532 3.35547 2.55468 2.2461-2.55468 2.1914-1.73829 4.4414-1.80078.89845-.89843 2.05078-4.4375-2.94922-3.1211-3.60156-1.32031.23047-4.4375 3.37109-4.40625 4.23047 4.40625.20703.21484 4.4375 1.44532 2.2539-1.66016L210.5 396l-4.36328-2.27734-4.4375.53515-3.58203-2.69531 3.58203-4.21094.17187-.22656 4.26563-1.33984 4.23437-3.10157.20313-.1914 4.4414-3.33985v4.9961l-3.1328 2.97656 3.1328 2.33594 4.4375.03125 4.4375-.17969 4.19922 2.25.23828.04297.0586-.04297 1.88281-4.4375-1.9414-1.875-4.4375 1.02344-4.4375-1.0586-4.4375-1.0664v-4.9961l.92578-.90625-.92578-1.29687-4.44141-3.11719v-2.34765l4.4414.82812 4.14063 1.4961.29688.60546 1.20312 3.83203-1.20313 1.20704-3.33984 3.23046 3.33984.95313 4.4375.19922 4.4375-.73828L232.5 387.125l-1.35156 4.4375-2.82031 2.27344-4.4375-.30469-4.07813-1.96875-.35938-.11328-4.4375-.55078-4.4414-1.48047-4.4375-1.71875-2.75 3.86328 2.75.72266 4.4375.3203L212.80859 396l-1.66015 4.4375-.57422 1.22266-4.4375 2.32812-4.4375.73047-4.16797-4.28125-.26953-.28125-.21875.28125.09766 4.4375.12109.04688 4.15625 4.39453-1.20313 4.4375-2.95312 2.95703-3.61328 1.48047-.82813.73437-3.07812 3.70313-1.35938 1.34375-4.4375.40234-4.4375-.73828m0-49.77735l-.2539-.05078.24609-4.4375.00781-.0078.00781.0078.05079 4.4375-.0586.05079"/><path fill="#00d4fc" fill-rule="evenodd" d="M183.94531 414.9961l-.29687-1.2422.29687-.42968 2.82031-4.00781 1.6172-1.4297 3.70312-3.01171-.0664-4.4375.80077-1.15625L197.22656 396l-1.4414-4.4375.95703-4.4375.51953-.64844 2.39062-3.79297 2.04688-1.73046 1.53906-2.70704 2.89844-3.23828 4.4375-1.17578v1.9375l-4.4375.11328-2.11328 2.36328-2.32422 4.08594-.41797.35156.41797.9375 4.4375.71485 2.25781-1.65235 2.17969-2.05468 2.73437-2.38282-2.73437-2.47656v-1.9375l4.4414 3.11719.92579 1.29687-.92578.90625-4.44141 3.33985-.20313.1914-4.23437 3.10157-4.26563 1.33984-.17187.22656-3.58203 4.21094 3.58203 2.69531 4.4375-.53515v1.4375L203.85938 396l2.27734 3.66797L207.74609 396l-1.60937-.83984v-1.4375L210.5 396l-2.10938 4.4375-2.2539 1.66016-4.4375-1.44532-.20703-.21484-4.23047-4.40625-3.3711 4.40625-.23046 4.4375 3.60156 1.32031v1.27735l-4.4414.70312-1.6875 1.14063-2.75 2.10546-1.53126 2.33204 1.53125 3.39453 4.4375-2.78125 1.52735-.61328 2.91406-1.2461 1.74219-3.1914-1.7422-1.84375v-1.27735l2.94923 3.1211-2.05078 4.4375-.89844.89843-4.4414 1.80079-2.19141 1.73828-2.2461 2.55468-3.35547-2.55468-1.08203-3.19532"/><path fill="#00c4fc" fill-rule="evenodd" d="M188.38281 417.14844l-1.53125-3.39453 1.53125-2.33204 2.75-2.10546 1.6875-1.14063 4.4414-.70312v1.27343l-1.67187.57032 1.67188.98437.53516-.98437-.53516-.57032v-1.27343l1.74219 1.84375-1.7422 3.1914-2.91405 1.2461-1.52735.61328-4.4375 2.78125"/><path fill="#00b8fc" fill-rule="evenodd" d="M197.26172 410.30078l-1.67188-.98437 1.67188-.57032.53516.57032-.53516.98437"/><path fill="#00c4fc" fill-rule="evenodd" d="M201.69922 383.6211l-.41797-.9375.41797-.35157 2.32422-4.08594 2.11328-2.36328v.8789l-1.32813 1.48438.6172 4.4375.71093.20704.28125-.20704 4.15625-3.92187.59375-.51563-.59375-.53515-4.4375-.94922v-.8789l4.4375-.11329 2.73437 2.47656-2.73437 2.38282-2.17969 2.05468-2.25781 1.65235-4.4375-.71485m4.4375 16.04688L203.85938 396l2.27734-.83984 1.60937.83984-1.60937 3.66797"/><path fill="#00b8fc" fill-rule="evenodd" d="M205.42578 382.6836l-.61719-4.4375 1.32813-1.48438v.875l-.54297.60937.54297 1.98438 2.17187-1.98438-2.17187-.60937v-.875l4.4375.94922.59375.53515-.59375.51563-4.15625 3.92187-.28125.20704-.71094-.20704"/><path fill="#00a8fc" fill-rule="evenodd" d="M206.13672 380.23047l-.54297-1.98438.54297-.60937 2.17187.60937-2.17187 1.98438"/><path fill="#00d4fc" fill-rule="evenodd" d="M215.01563 389.46094l-3.13282-2.33594 3.13281-2.97656v1.82812l-1.21093 1.14844 1.21094.90234 4.4375-.49609 1.07421-.40625-1.07422-.32813-4.4375-.8203v-1.82813l4.4375 1.0664 4.4375 1.0586 4.4375-1.02344 1.94141 1.875-1.88281 4.4375-.0586.04297-.23828-.04297-4.19922-2.25-4.4375.17969-4.4375-.03125"/><path fill="#fff" fill-opacity="0" fill-rule="evenodd" d="M213.47656 400.4375l-.32031 4.4375 1.85938 1.84375 4.4375-1.01172 2.98046-.83203 1.45703-.76172 4.4375-.46875 4.4375-1.01562 1.51172-2.19141L236.5 396l-3.73438-4.26953-4.4375 3.4414-4.4375.19922-4.4375-1.22265-4.4375-1.35938L214.1836 396l-.70703 4.4375"/><path fill="#00c4fc" fill-rule="evenodd" d="M215.01563 388.02734l-1.21094-.90234 1.21094-1.14844 4.4375.82031 1.07421.32813-1.07422.40625-4.4375.4961"/><path fill="#00e8fc" fill-rule="evenodd" d="M219.45313 409.83594l-.875-.51953.875-.4922 4.4375-1.46093 4.4375 1.01953 1.51562.9336-1.51563 1.62109-4.4375 2.07422-4.4375-3.17578"/><path fill="#fff" fill-opacity="0" fill-rule="evenodd" d="M219.45313 382.66797l-.01954.01562.01953.00782.1172-.00782-.1172-.01562"/><path fill="#00e8fc" fill-rule="evenodd" d="M237.20703 401.19922l-.3711-.76172.3711-.61328 4.4375-1.14063.96094 1.75391-.96094 1.02344-4.4375-.26172"/><path fill="#50fcfc" fill-rule="evenodd" d="M246.08203 376.55469l-3.67969-2.7461 3.59375-4.4375.08594-.16406 4.4375-2.73828 4.4375-.89453 2.85156-.64063 1.58985-1.16406 1.26562 1.16406 3.17188.84375 3.74219 3.59375-3.7422 3.64063-.5.79687.5.73829 4.4375 1.47265v5.57031l-.5 1.09375.5.47266.42188-.47266-.42187-1.09375v-5.5703l1.52344-2.21095-.57422-4.4375 3.48828-3.82812 2.39062-.60938 2.05078-1.11328 4.4375-.70312v2.96484l-4.4375.28906-4.4414 2.23047-.69922.76953.17187 4.4375.04688 4.4375-1.52735 4.4375-2.42968 2.71875-2.88281-2.71875 1.70703-4.4375-3.26172-1.84375-1.7461-2.59375 1.7461-2.78906 1.6914-1.64844-1.6914-1.6289-4.4375-.42578-4.4414.33984-4.4375 1.1211-.91407.59374-2.70703 4.4375 3.6211 1.97657 3.82812 2.46093-3.82813 2.03516-2.32422 2.40234 2.32422 2 3.64453 2.44141.79297.8711 4.4414 1.10937 2.48048-1.98047 1.95703-2.40234 2.22265 2.40234 2.21485 2.8789 4.4375-.46093 3.97265-2.41797-1.84765-4.4414-1.66016-4.4375 3.97656-.84376 4.4375-.95312 4.4375-.28906 4.12891-2.35157.3086-.46875 4.4375-1.49609 1.32421-2.47266-1.32422-1.27343-4.4375-.16016-4.4375-.27344-4.4375-1.58203v-2.96484l1.70313 1.8164L286.02734 366l4.4375.07813 4.4375.03515 3.37891 3.25781-1.40234 4.4375-1.97657 2.98047-4.4375-.07812-4.4375 1.3789-.8789.15625-3.5586 1.47657-4.4375 2.40625-.1914.55468.1914.46485 2.3711 3.97656-2.3711 2.48047-4.4414 1.15234-2.35156.80469-2.08594 2.08203-4.4375.08203-3.2461-2.16406-1.1914-.42969-4.4414-.42578-3.25782-3.58203-1.17969-.79297-4.2461-3.64844 4.2461-4.39062.08594-.04688-.08594-.05468-4.4375-1.63672"/><path fill="#00e8fc" fill-rule="evenodd" d="M250.51953 375.78516l-3.6211-1.97657 2.70704-4.4375.91406-.59375 4.4375-1.12109v12.63672l-3.51953 2.39062 3.51953 2.51563 1.96484-2.51563-1.96484-2.39062v-12.63672l4.4414-.33984v4.98828l-4.27343 1.5039 4.27344.57813v1.96094l-4.03125 1.89843 3.41797 4.4375.61328 1.60157 2.02734-1.60157.71485-4.4375-2.7422-1.89843v-1.96094l.60938-.57813-.60937-1.5039v-4.98828l4.4375.42578 1.6914 1.6289-1.6914 1.64844-1.7461 2.78906 1.7461 2.59375 3.26172 1.84375-1.70704 4.4375 2.88282 2.71875 2.42969-2.71875 1.52734-4.4375-.04688-4.4375-.17187-4.4375.69922-.76953v17.0625l-1.1836 1.46094 1.1836.39453.65234-.39453-.65234-1.46094v-17.0625l4.4414-2.23047v2.89454l-.18359.10546.1836 2.25 4.4375-1.95312.3164-.29688-.3164-.09375-4.4375-.01171v-2.89454l4.4375-.28906 4.4375 1.58203 4.4375.27344 4.4375.16016 1.32421 1.27343-1.32422 2.47266-4.4375 1.4961-.30859.46874-4.1289 2.35157-4.4375.28906-4.4375.95312-3.97657.84375 1.66016 4.4375 1.84765 4.44141-3.97265 2.41797-4.4375.46094-2.21485-2.87891-2.22265-2.40234-1.95703 2.40234-2.48047 1.98047-4.4414-1.10938-.79298-.87109-3.64453-2.4414-2.32422-2 2.32422-2.40235 3.82813-2.03516-3.82813-2.46093"/><path fill="#00d4fc" fill-rule="evenodd" d="M254.95703 385.19922l-3.51953-2.51563 3.51953-2.39062v2.26562l-.1836.125.1836.13282.10547-.13282-.10547-.125v-2.26562l1.96484 2.39062-1.96484 2.51563"/><path fill="#00c4fc" fill-rule="evenodd" d="M254.95703 382.8164l-.1836-.1328.1836-.125.10547.125-.10547.1328"/><path fill="#00d4fc" fill-rule="evenodd" d="M259.39844 374.38672l-4.27344-.57813 4.27344-1.5039.60937 1.5039-.60937.57813"/><path fill="#50fcfc" fill-rule="evenodd" d="M259.39844 376.34766l-4.03125 1.89843 3.41797 4.4375.61328 1.60157 2.02734-1.60157.71485-4.4375-2.7422-1.89843v1.17968l1.03907.71875-1.03906 2.5547-1.52735-2.5547 1.52735-.71875v-1.17968"/><path fill="#fff" fill-opacity="0" fill-rule="evenodd" d="M259.39844 377.52734l-1.52735.71875 1.52735 2.5547 1.03906-2.5547-1.03906-.71875m8.875 4.0625l-.5 1.09375.5.47266.42187-.47266-.42187-1.09375"/><path fill="#00d4fc" fill-rule="evenodd" d="M272.71094 387.51953l-1.1836-.39453 1.1836-1.46094.65234 1.46094-.65234.39453m4.4414-15.89844l-.18359-2.25.1836-.10546 4.4375.01171.3164.09375-.3164.29688-4.4375 1.95312"/><path fill="#50fcfc" fill-rule="evenodd" d="M334.84766 395.1914l-2.32813-3.6289 2.32813-3.85547.55078-.58203 3.89062-2.23438 4.4375-.01953 1.26953 2.25391-1.26953 2.36328-1.11719 2.07422 1.1172 2.29297L345.21093 396l2.95312 4.16797 4.4375-2.66797 4.25 2.9375-4.25 2.46875-4.4375-2.14844-4.4375-.21094-4.4375 1.82813-4.4414-1.66016-.46485-.27734.46485-1.1289 1.2578-3.3086-1.2578-.8086m4.4414-26.93359l-3.29687-3.32422 3.29687-2.6914v2.63281l-.07031.0586.07031.0664.17188-.0664-.17188-.0586v-2.63281l4.4375.28515 1.8789 2.40625-1.8789 2.86329-4.4375.46093m0 11.01563l-1.375-1.02735 1.375-2.47656 4.4375-1.94922v2.91406L342 378.2461l1.72656 1.29688 1.0625-1.29688-1.0625-1.51171v-2.91407l3.10938 4.42578-3.10938 3.79688-4.4375-2.76953"/><path fill="#00e8fc" fill-rule="evenodd" d="M339.28906 365l-.07031-.0664.07031-.0586.17188.0586-.17188.0664m4.4375 14.54297L342 378.24609l1.72656-1.51171 1.0625 1.51171-1.0625 1.29688"/><path fill="#50fcfc" fill-rule="evenodd" d="M348.16406 455.20703l-2.3164-1.50781 2.3164-1.6875 2.01563 1.6875-2.01563 1.50781"/><g clip-path="url(#c)"><path fill="#50fcfc" fill-rule="evenodd" d="M348.79297 311.67188h-1.1914l.5625.5664.6289-.5664"/></g><path fill="#50fcfc" fill-rule="evenodd" d="M352.60156 394.7539l-1.80469-3.1914 1.8047-1.83594 1.96484 1.83594-1.96485 3.1914m0-56.35156l-.17187-.10156.17187-.08594.20313.08594-.20313.10156m1.82422 124.17188l-1.51953-4.4375 3.3789-4.4375.75782-.5 1.90625-3.9375 2.53125-3.28516.38281-1.15625 4.05469-3.57422.71875-.86328 3.71875-4.21875v1.41797l-2.46875 2.80078-1.96875 2.35547-2.36328 2.08203-.69531 4.4414 3.05859 2.82032.98437 1.61719-.98437 1.47265-4.4375 1.5625-3.02344 1.40235.95313 4.4375 2.0703 1.74219 4.4375 1.3828 3.11329 1.31642 1.32422.47656 4.4375.41015 2.91406-.88671 1.52735-.38282 2.625-4.0586.27734-4.4375 1.53515-1.52733 2.9961-2.91016-2.9961-3.0664-1.7539-1.3711-1.14453-4.4414-1.53906-.9297-4.44141-2.95312-1.71094-.55469-2.72656-2.80078v-1.41797l4.10547 4.21875.33203.10938 4.4414 1.25 4.4375 2.08594 1.25782.99218-1.25781 2.71875-.1836 1.72266.1836.14453 4.19921 4.29297-4.19921 4.07812-.36329.35938-.14062 4.4375-1.34375 4.4414-2.58985 2.78125-4.4414.57032-4.4375.21094-4.4375-.81641-4.4375-1.34375-2.08594-1.40235-2.35156-1.53515-2.61719-2.90625m.78516-39.94531l-.95313-4.4375 2.78516-3v2.78515l-.20313.21485.20313.53906.85937 3.89844 3.57813 3.10156 2.66015-3.10156-2.66015-4.3711-1.39453-.0664-3.04297-.21485v-2.78515l3.60156-1.4375.83594-.75391.80078.7539 2.01172 4.4375.97656 4.4375-3.78906 4.41798-.08985.02343-4.34765 4.20703-2.53125-4.20703.69922-4.4414"/><path fill="#00e8fc" fill-rule="evenodd" d="M357.04297 418.73047l-.20313-.53906.20313-.21485 3.04297.21485 1.39453.0664v3.09766l-1.04297 1.27344 1.04297.90625.77344-.90625-.77344-1.27344v-3.09766l2.66015 4.3711-2.66015 3.10156-3.57813-3.10156-.85937-3.89844m2.36719 43.84375l-.95313-4.4375 3.02344-1.40235 4.4375-1.5625.98437-1.47265-.98437-1.61719-3.0586-2.82031.69532-4.4414 2.36328-2.08204 1.96875-2.35547 2.46875-2.80078v2.36328l-.38672.4375-3.3789 4.4375.51562 4.4414 3.25 4.30079 2.16015.13672 2.27735.35547 2.34375 4.08203 1.10937 4.4375.98829.6875.4414-.6875.5039-4.4375 3.4922-3.47266.99218-.96484-.99219-1.01563-4.36328-3.42187-.07421-.16797-.66407-4.27344-3.77734-3.13672-4.01172-1.30078-.42578-.4375v-2.36328l2.72656 2.80078 1.71094.55469 4.4414 2.95313 1.53907.92968 1.14453 4.4414 1.7539 1.3711 2.9961 3.0664-2.9961 2.91017-1.53515 1.52734-.27735 4.4375-2.625 4.0586-1.52734.3828-2.91406.88672-4.4375-.41015-1.32422-.47656-3.11328-1.31641-4.4375-1.38281-2.07031-1.7422"/><path fill="#00d4fc" fill-rule="evenodd" d="M361.48047 423.53516l-1.04297-.90625 1.04297-1.27344.77344 1.27344-.77344.90625m5.625 25.72656l-.51563-4.4414 3.37891-4.4375.38672-.4375.42578.4375 4.01172 1.30077v.7461l-4.3164 2.39062-.1211.76563-.98047 3.67578.98047 1.30078.58594-1.30078 3.85156-2.08594v.73047l-2.5 1.35547 2.5 4.32422 4.3711-4.32422-4.3711-1.35547v-.73047l2.8789-2.35547-2.8789-2.39062v-.7461l3.77734 3.13672.66406 4.27344v3.91797l-.69921.6875.69921 1.14062 1.15625-1.14062-1.15625-.6875v-3.91797l.07422.16797 4.36329 3.42187.99218 1.01563-.99219.96484-3.49218 3.47266-.5039 4.4375-.44142.6875-.98828-.6875-1.10937-4.4375-2.34375-4.08203-2.27735-.35547-2.16015-.13672-3.25-4.30078"/><path fill="#50fcfc" fill-rule="evenodd" d="M370.35547 397.58203L368.11719 396l.14062-4.4375 2.09766-2.09375 3.84375 2.09375.59375 1.0625 1.98828 3.375-1.98828 1.97656-4.4375-.39453"/><path fill="#00c4fc" fill-rule="evenodd" d="M370.35547 450.5625l-.98047-1.30078.98047-3.67578.1211-.76563 4.3164-2.39062v.7461l-2.97266 1.64452 2.97266 1.6211 1.98437-1.6211-1.98437-1.64453v-.7461l2.8789 2.39063-2.8789 2.35547-3.85156 2.08594-.58594 1.30078"/><path fill="#50fcfc" fill-rule="evenodd" d="M374.79297 421.60547l-3.98047-3.41406 3.98047-3.04297v2.25l-1.03516.79297 1.03516.88671 2.14453-.88671-2.14453-.79297v-2.25l4.4414-.27735 4.4375.15625.60938-1.27343-.60938-.58985-4.4375-1.78515-1.90625-2.0625 1.84766-4.44141.0586-.0664 4.4375-1.53907 4.4375-1.98828v3.57813l-.03125.01562-4.40625 2.69922-1.59766 1.74219 1.59765 1.21093 3.33204 3.22657 1.10546 2.7539v3.17578l-1.39843 2.94532.6289 4.4414.30079 4.4375.46875.45703 4.4375 3.44532 1.98437.53515 2.45313 1.04297 4.4414.6875 2.05469-1.73047 1.78906-4.4375.59375-.63672 4.4375-2.33593 1.1914-1.46485 3.2461-3.63281.98438-.8086-.98438-.61327-4.4375-1.6172-4.4375.63282-4.4375 1.1289-.5039.46876-3.9375 1.79687-4.4375.66016-3.41407-2.45703-1.02344-2.94532v-3.17578l1.26563-2.7539-1.26563-3.64454-.71484-.79296.71485-4.1836.03515-.25781-.03515-.01563v-3.57812l2.7539-.84375 1.6836-.82031 1.08203.82031.4453 4.4375-.80858 4.4414-.71875 3.89454-.04688.54297-1.59766 4.4375.32032 4.4375 1.32421.95312 4.4375-.32812 1.3711-.625 3.07031-2.86329 4.4375-.4414 4.4375-.25 4.4375.64062 4.4414 2.55079 4.4375-2.79688v1.92188l-1.80859 1.23828 1.8086 1.91796 2.84765 2.52344 1.58985 1.4961 1.0039-1.4961-.83593-4.4414-.16797-.09766-4.4375-1.14063v-1.92187l4.4375.45703 4.4375 2.47266.23437.23047-.23437.25-1.3125 4.1914 1.3125 1.97656 2.41797 2.46094.02343 4.4375-2.4414 3.6289-2.53125-3.6289-1.90625-3.94922-.4375-.48828-4-3.61328-.89063-.82422-3.54687-4.04297-4.4414 3.42579-.54688.61718-3.21094 4.4375-.67969.72266-4.4375 2.65625-.38672 1.0586-4.05078 3.40624-4.4414-.28125-4.4375-.75781-3.92579-2.36719-.51171-.28515-.45704.28515-3.98046 2.26563-2.40235-2.26563 2.40235-4.15234.17578-.28516-.17579-1.14453-.74609-3.29297.7461-2.97656.1875-1.46484-.1875-.46875-4.4375-1.8086-4.44141 1.2539"/><path fill="#00b8fc" fill-rule="evenodd" d="M374.79297 446.4414l-2.97266-1.62109 2.97266-1.64453v.74219l-1.6289.90234 1.6289.89063 1.08984-.89063-1.08984-.90234v-.74219l1.98437 1.64453-1.98437 1.6211"/><path fill="#00e8fc" fill-rule="evenodd" d="M374.79297 447.90625l-2.5 1.35547 2.5 4.32422 4.3711-4.32422-4.3711-1.35547v.73047l2.00781.625-2.00781 1.98437-1.14453-1.98437 1.14453-.625v-.73047"/><path fill="#00a8fc" fill-rule="evenodd" d="M374.79297 445.71094l-1.6289-.89063 1.6289-.90234v.7461l-.28516.15624.28516.15625.1914-.15625-.1914-.15625v-.7461l1.08984.90235-1.08984.89063"/><path fill="#50fcfc" fill-rule="evenodd" d="M374.79297 448.63672l-1.14453.625 1.14453 1.98437 2.00781-1.98437-2.00781-.625v.4414l.58984.1836-.58984.57812-.33594-.57812.33594-.1836v-.4414"/><path fill="#00e8fc" fill-rule="evenodd" d="M374.79297 419.07813l-1.03516-.88672 1.03516-.79297 2.14453.79297-2.14453.88671"/><path fill="#fff" fill-opacity="0" fill-rule="evenodd" d="M374.79297 449.07813l-.33594.18359.33594.57812.58984-.57812-.58984-.1836"/><path fill="#009800" fill-rule="evenodd" d="M374.79297 444.97656l-.28516-.15625.28516-.15625.1914.15625-.1914.15625"/><path fill="#00c4fc" fill-rule="evenodd" d="M379.23438 454.83984l-.69922-1.14062.69921-.6875 1.15625.6875-1.15625 1.14062"/><path fill="#00e8fc" fill-rule="evenodd" d="M383.67188 410.52734l-1.59766-1.21093 1.59765-1.7422 4.40625-2.69921.03125-.01563.03516.01563-.03515.25781-.71485 4.1836.71485.79296 1.26562 3.64454-1.26563 2.7539-1.10546-2.7539-3.33204-3.22657m3.66797 16.54297l-.6289-4.4414 1.39844-2.94532 1.02343 2.94532 3.41406 2.45703 4.4375-.66016 3.9375-1.79687.50391-.46875 4.4375-1.12891 4.4375-.63281v2.20703l-.10156.02344-4.33594 2.3828-4.4375-.74608-4.4414 2.10937-2.80079.69531-1.63671.9336-2.01954 3.5039 2.01954 1.70313 4.4375 1.45703 4.4414-.65235 1.27735-2.5078 3.16015-3.39454 1.50781-1.04297 2.9297-4.3789.05468-.0625-.05469-.02344v-2.20703l4.4375 1.61719.98438.61328-.98438.80859-3.2461 3.63281-1.1914 1.46485-4.4375 2.33593-.59375.63672-1.78906 4.4375-2.05469 1.73047-4.4414-.6875-2.45313-1.04297-1.98438-.53515-4.4375-3.44532-.46875-.45703-.30078-4.4375"/><path fill="#00d4fc" fill-rule="evenodd" d="M392.54688 433.21094l-2.01954-1.70313 2.01954-3.5039 1.63671-.9336 2.80079-.69531 4.4414-2.10938v1.85547l-1.96484.94922-2.47656 2.07813-3.39063 2.35937 3.39063 1.33203 2.6328-1.33203 1.8086-2.19922 2.0039-2.23828-2.0039-.94922v-1.85546l4.4375.74609 4.33594-2.38281.10156-.02344.05469.02344-.05469.0625-2.92969 4.3789-1.5078 1.04297-3.16017 3.39453-1.27734 2.50781-4.4414.65235-4.4375-1.45703"/><path fill="#00c4fc" fill-rule="evenodd" d="M396.98438 432.83984l-3.39063-1.33203 3.39063-2.35937 2.47656-2.07813 1.96484-.94922 2.0039.94922-2.0039 2.23828-1.8086 2.19922-2.6328 1.33203"/><path fill="#50fcfc" fill-rule="evenodd" d="M410.30078 463.1836l-.59765-.60938.59765-1.28906 1.04688-3.14844 2.60937-4.4375.78125-1.75781.40235-2.6797.93359-4.4414 3.10547-3.20312v2.14844l-1.02344 1.05468-1.16797 4.4414.27735 4.4375 1.91406 3.21095 2.52344 1.22656 1.91406.44922.46484-.44922 3.97266-4.05078.40234-.38672-.40234-1.25781-1.13672 1.2578-3.30078 3.1211-1.8125-3.1211 1.59375-4.4375-3.17969-4.4414-1.03906-1.05469v-2.14843l3.16015 3.20312 1.27735 1.73438 2.05469-1.73438 2.3828-2.3086 2.26954 2.3086-.08594 4.4414.83594 4.4375-3.01953 2.91407-1.4961 1.52344-2.9414 2.84375-4.4375-.40625-4.4414.1875-3.75392 1.8125-.68359.60937"/><path fill="#00e8fc" fill-rule="evenodd" d="M417.26563 453.69922l-.27735-4.4375 1.16797-4.4414 1.02344-1.0547 1.03906 1.0547 3.17969 4.4414-1.59375 4.4375 1.8125 3.1211 3.30078-3.1211 1.13672-1.25781.40234 1.2578-.40234.38673-3.97266 4.05078-.46484.44922-1.91406-.44922-2.52344-1.22656-1.91406-3.21094m6.35156-29.15235l-1.8086-1.91796 1.8086-1.23829 4.4375 1.14063.16797.09766.83593 4.4414-1.0039 1.4961-1.58985-1.4961-2.84765-2.52344"/><g clip-path="url(#d)"><path fill="#fff" fill-opacity="0" fill-rule="evenodd" d="M467.9961 480.32813H468V311.67188h-.0039H468v168.65625h-.0039"/></g><path fill="#fff" fill-opacity="0" fill-rule="evenodd" d="M222.75781 382.71484l4.98438 3.04297 5.1914-8.5-4.98437-3.04687-5.1914 8.5039"/><path fill-rule="evenodd" d="M229.98047 377.60156l.4336.26172-3.28126 5.375-.67187-.41015 2.33984-3.83204-1.1836-.72265.28907-.47656.51172.23828.24219.08593.24218.04297.25-.01562.25782-.08985.27343-.17578.29688-.28125"/><path fill="#fff" fill-opacity="0" fill-rule="evenodd" d="M153.8125 444.29297l5.83984.08594.14453-9.96094-5.83984-.08203-.14453 9.95703"/><path fill-rule="evenodd" d="M157.42969 436.21875l.50781.00781-.08984 6.29297-.78907-.01172.06641-4.48828L155.73437 438l.01172-.55469.5586-.0586.2539-.05077.23047-.08594.20313-.13672.17969-.21094.14453-.28906.11328-.39453"/><path fill="#fff" fill-opacity="0" fill-rule="evenodd" d="M423.25781 423.73438l5.57031 1.7539 2.9961-9.5-5.57031-1.7539-2.9961 9.5"/><path fill-rule="evenodd" d="M429.03906 417.03125l.48438.15625-1.89063 6-.75-.23438 1.34766-4.28125-1.32422-.41796.16797-.53125.55469.10546.2539.02735.2461-.01563.23828-.07421.23047-.14844.22265-.23828.21875-.34766"/><path fill="#fff" fill-opacity="0" fill-rule="evenodd" d="M299.97656 379.08984l2.51953-5.26953-8.98828-4.29687-2.51953 5.27344 8.98828 4.29296"/><path fill-rule="evenodd" d="M294.15234 372.42969l.21875-.46094 5.6797 2.71484-.33985.71094-4.05078-1.9375-.59766 1.2539-.5-.23827.1836-.53516.05859-.25.01953-.2461-.04297-.24609-.11328-.2461-.20313-.2539-.3125-.26562"/><path fill="#fff" fill-opacity="0" fill-rule="evenodd" d="M200.20313 420.09375l4.53125-6.4961-8.35547-5.83202-4.53516 6.49609 8.35938 5.83203"/><path fill-rule="evenodd" d="M194.76563 413.27734l1.8789-2.6953.60938.42187-1.51172 2.16406 1.34765 1.22265v-.27734l.04297-.29687.11328-.31641.19141-.33203.21094-.2539.26172-.22657.3125-.1875.35547-.13281.39062-.0586.21094.00391.21484.02734.22656.0586.22657.08594.23828.11718.23828.15235.34375.28125.28516.32421.21484.35938.14062.39063.0586.41406-.00781.21484-.03125.21485-.0547.21875-.08593.22265-.10938.21875-.14062.22266-.29688.36328-.30859.26562-.32422.1836-.33594.10156-.33984.03125-.34375-.02734-.34375-.08594-.33984-.13281.44922-.64454.23828.06641.22656.03516.22266.0039.20703-.03125.19531-.0664.1836-.10156.16796-.14063.14844-.17969.16016-.27344.10156-.26953.04297-.26953-.01953-.26562-.08203-.25781-.14454-.25-.21093-.23829-.28125-.22656-.22657-.13672-.24609-.09765-.26563-.0586-.26953-.01172-.26953.04688-.26172.10937-.24609.1797-.22266.2578-.16406.29688-.07031.29297-.0039.33203.04296.41015-.39844.57032-2.54297-2.33985"/><g clip-path="url(#e)"><path fill="none" stroke="#000" stroke-linecap="round" stroke-linejoin="round" stroke-miterlimit="10" stroke-width=".5" d="M146.27344 483.00781l-4.54688-5.35547"/></g><g clip-path="url(#f)"><path fill="none" stroke="#000" stroke-linecap="round" stroke-linejoin="round" stroke-miterlimit="10" stroke-width=".5" d="M159.64453 482.96094l-4.66016-5.26172"/></g><g clip-path="url(#g)"><path fill="none" stroke="#000" stroke-linecap="round" stroke-linejoin="round" stroke-miterlimit="10" stroke-width=".5" d="M172.6836 483.17969l-4.10548-5.70313"/></g><g clip-path="url(#h)"><path fill="none" stroke="#000" stroke-linecap="round" stroke-linejoin="round" stroke-miterlimit="10" stroke-width=".5" d="M186.08203 483.11719l-4.27344-5.57813"/></g><g clip-path="url(#i)"><path fill="none" stroke="#000" stroke-linecap="round" stroke-linejoin="round" stroke-miterlimit="10" stroke-width=".5" d="M199.50781 483.03125l-4.49219-5.40625"/></g><g clip-path="url(#j)"><path fill="none" stroke="#000" stroke-linecap="round" stroke-linejoin="round" stroke-miterlimit="10" stroke-width=".5" d="M212.8711 482.98828l-4.58985-5.32031"/></g><g clip-path="url(#k)"><path fill="none" stroke="#000" stroke-linecap="round" stroke-linejoin="round" stroke-miterlimit="10" stroke-width=".5" d="M226.52344 482.65625l-5.26563-4.65234"/></g><g clip-path="url(#l)"><path fill="none" stroke="#000" stroke-linecap="round" stroke-linejoin="round" stroke-miterlimit="10" stroke-width=".5" d="M240.41797 481.75l-6.42578-2.84375"/></g><g clip-path="url(#m)"><path fill="none" stroke="#000" stroke-linecap="round" stroke-linejoin="round" stroke-miterlimit="10" stroke-width=".5" d="M253.60938 482.0039l-6.17579-3.35156"/></g><g clip-path="url(#n)"><path fill="none" stroke="#000" stroke-linecap="round" stroke-linejoin="round" stroke-miterlimit="10" stroke-width=".5" d="M266.65625 482.42188l-5.64063-4.1875"/></g><g clip-path="url(#o)"><path fill="none" stroke="#000" stroke-linecap="round" stroke-linejoin="round" stroke-miterlimit="10" stroke-width=".5" d="M279.97266 482.41797l-5.64453-4.17969"/></g><g clip-path="url(#p)"><path fill="none" stroke="#000" stroke-linecap="round" stroke-linejoin="round" stroke-miterlimit="10" stroke-width=".5" d="M293.25781 482.46484l-5.58203-4.26953"/></g><g clip-path="url(#q)"><path fill="none" stroke="#000" stroke-linecap="round" stroke-linejoin="round" stroke-miterlimit="10" stroke-width=".5" d="M306.7461 482.21484l-5.9297-3.77343"/></g><g clip-path="url(#r)"><path fill="none" stroke="#000" stroke-linecap="round" stroke-linejoin="round" stroke-miterlimit="10" stroke-width=".5" d="M319.78906 482.58594l-5.38672-4.51172"/></g><g clip-path="url(#s)"><path fill="none" stroke="#000" stroke-linecap="round" stroke-linejoin="round" stroke-miterlimit="10" stroke-width=".5" d="M332.64453 483.04297l-4.46484-5.42969"/></g><g clip-path="url(#t)"><path fill="none" stroke="#000" stroke-linecap="round" stroke-linejoin="round" stroke-miterlimit="10" stroke-width=".5" d="M343.83203 483.83984l-.21094-7.02343"/></g><g clip-path="url(#u)"><path fill="none" stroke="#000" stroke-linecap="round" stroke-linejoin="round" stroke-miterlimit="10" stroke-width=".5" d="M354.84375 483.07031l4.39453-5.48437"/></g><g clip-path="url(#v)"><path fill="none" stroke="#000" stroke-linecap="round" stroke-linejoin="round" stroke-miterlimit="10" stroke-width=".5" d="M366.89844 479.70313l6.91406 1.2539"/></g><g clip-path="url(#w)"><path fill="none" stroke="#000" stroke-linecap="round" stroke-linejoin="round" stroke-miterlimit="10" stroke-width=".5" d="M380.76953 478.34766l5.80078 3.96484"/></g><path fill="none" stroke="#000" stroke-linecap="round" stroke-linejoin="round" stroke-miterlimit="10" stroke-width=".5" d="M381.61328 478.92188l.13672-1.21875"/><g clip-path="url(#x)"><path fill="none" stroke="#000" stroke-linecap="round" stroke-linejoin="round" stroke-miterlimit="10" stroke-width=".5" d="M393.47656 480.5l7.01953-.34375"/></g><g clip-path="url(#y)"><path fill="none" stroke="#000" stroke-linecap="round" stroke-linejoin="round" stroke-miterlimit="10" stroke-width=".5" d="M394.5 480.45313l-.6289-1.0547"/></g><g clip-path="url(#z)"><path fill="none" stroke="#000" stroke-linecap="round" stroke-linejoin="round" stroke-miterlimit="10" stroke-width=".5" d="M406.88281 481.13672l6.83985-1.61328"/></g><g clip-path="url(#A)"><path fill="none" stroke="#000" stroke-linecap="round" stroke-linejoin="round" stroke-miterlimit="10" stroke-width=".5" d="M406.88281 481.13672l-1.6211-1.84375"/></g><g clip-path="url(#B)"><path fill="none" stroke="#000" stroke-linecap="round" stroke-linejoin="round" stroke-miterlimit="10" stroke-width=".5" d="M420.33203 481.58203l6.5664-2.5039"/></g><g clip-path="url(#C)"><path fill="none" stroke="#000" stroke-linecap="round" stroke-linejoin="round" stroke-miterlimit="10" stroke-width=".5" d="M420.33203 481.58203l-1.84765-1.61328"/></g><g clip-path="url(#D)"><path fill="none" stroke="#000" stroke-linecap="round" stroke-linejoin="round" stroke-miterlimit="10" stroke-width=".5" d="M433.80078 481.92188l6.26172-3.1875"/></g><g clip-path="url(#E)"><path fill="none" stroke="#000" stroke-linecap="round" stroke-linejoin="round" stroke-miterlimit="10" stroke-width=".5" d="M433.80078 481.92188l-2.01172-1.41016"/></g><g clip-path="url(#F)"><path fill="none" stroke="#000" stroke-linecap="round" stroke-linejoin="round" stroke-miterlimit="10" stroke-width=".5" d="M447.10547 481.89844l6.28515-3.14063"/></g><g clip-path="url(#G)"><path fill="none" stroke="#000" stroke-linecap="round" stroke-linejoin="round" stroke-miterlimit="10" stroke-width=".5" d="M448.01953 481.4414l-1-.71093"/></g><g clip-path="url(#H)"><path fill="none" stroke="#000" stroke-linecap="round" stroke-linejoin="round" stroke-miterlimit="10" stroke-width=".5" d="M461.125 482.85938l4.875-5.0625"/></g><g clip-path="url(#I)"><path fill="none" stroke="#000" stroke-linecap="round" stroke-linejoin="round" stroke-miterlimit="10" stroke-width=".5" d="M145.51563 470.1836l-3.03125-6.33985"/></g><path fill="none" stroke="#000" stroke-linecap="round" stroke-linejoin="round" stroke-miterlimit="10" stroke-width=".5" d="M145.07422 469.26172l-.73047.98828m15.29297-.59766l-4.64453-5.27734m3.96875 4.50781l-.4336 1.14844m13.94532-.02734l-3.6875-5.98047m3.15234 5.10937l-.6211 1.0586m14.67579-.32422l-4.09375-5.70703m3.5 4.8789l-.54688 1.09766m14.27735-.14844l-3.73828-5.94922m3.1953 5.08203l-.60937 1.06641m14.32422-.11328l-3.45312-6.1211m2.95312 5.23047l-.66016 1.03516m14.97657-.48828l-4.45703-5.4336m3.80859 4.64454L225 470.0703m15.54297-4.16015l-6.67188 2.20703m19.67188-2.89453l-6.04688 3.58203m19.60547-3.08203l-6.53125 2.58203m5.58203-2.20703l.9336.79687m13.23828 1.6289l-6.34766-3.01952m5.42578 2.57812l.0547 1.22656m13.93358-.35156l-5.85156-3.88672m5 3.32422l-.11719 1.21875m14.79297-1.84765l-6.86718-1.50391m5.86718 1.28516l.33204 1.17968m12.96875.83594l-4.83594-5.09766m4.1289 4.35547l-.38671 1.16407m10.10546-.00391l3.76563-5.9336m7.91797 2.9922l7.02734-.05079m-6.0039.04297l-.58204-1.07812m12.9961 1.98046l6.78515-1.83593m-5.79687 1.5664l-.83985-.89453m13.07032-.1836l6.97656.85548m-5.96094-.73047l-.4375-1.14453m12.85156.46875l6.75 1.95703m-6.75-1.95703l-.5039-2.40235m13.95703 2.01563l6.47266 2.73047m-6.47266-2.73047l-.22266-2.4414m13.26172 3.8828l7.02344-.14843m-7.02344.14843l-1.19922-2.14453m14.63672 2.99219l6.78125-1.84766m-6.78125 1.84766l-1.67969-1.78516m15 1.8086l6.76954-1.89453m-6.76954 1.89453l-1.6914-1.77735m14.9336 1.46485l6.91406-1.26953m-5.90625 1.08593l-.76172-.96093m13.80078 2.72656l5.45312-4.4336m-5.45312 4.4336l-2.26172-.95703"/><g clip-path="url(#J)"><path fill="none" stroke="#000" stroke-linecap="round" stroke-linejoin="round" stroke-miterlimit="10" stroke-width=".5" d="M145.05469 457.05078l-2.10938-6.70312"/></g><g clip-path="url(#K)"><path fill="none" stroke="#000" stroke-linecap="round" stroke-linejoin="round" stroke-miterlimit="10" stroke-width=".5" d="M144.7461 456.07422l-.85938.875"/></g><path fill="none" stroke="#000" stroke-linecap="round" stroke-linejoin="round" stroke-miterlimit="10" stroke-width=".5" d="M159.44922 456.48828l-4.26953-5.58203m3.64844 4.77344l-.51172 1.11328m13.72656.125l-2.82422-6.4375m15.91797 6.52344l-2.38281-6.60938m12.54297 6.21875l3.92578-5.82812M209.375 457l2.39844-6.60547m-2.04688 5.64453l-1.21484.17188m17.45312-5.34766l-4.14843 5.67188m15.03125-6.33203l.71875 6.99218m-.6172-5.97656l1.01954-.6836m10.4414.35548l4.22266 5.61718m-3.60937-4.80078l.51953-1.10937m11.89453.53515l4.79688 5.13282m-4.10157-4.38672l.39844-1.16016m13.53906-.36328l2.16016 6.6875m-1.84375-5.71485l.85156-.8828m12.96484-.25l.52735 7.0078m-.45313-5.98828l1.03907-.65625m12.10156-.35547l.72265 6.9922m-.61718-5.97657l1.01953-.6836m11.89453-.28906l1.3164 6.90235m-1.125-5.89844l.95704-.76562m9.72265 1.5625l6.20313 3.30468m-5.30078-2.82422l.0039-1.22656m12.4922.60156l6.03905 3.59375m-5.16015-3.0703l.0586-1.22657m11.97265 1.71094l6.84765 1.57422m-5.85156-1.34375l-.32031-1.1836m12.63281.97266l6.85938 1.53515m-5.85938-1.3125l-.32422-1.17968m13.01953-.01953l6.09766 3.49218m-6.09766-3.49218l.07813-2.45313m13.05078 2.83203l6.47266 2.73047m-6.47266-2.73047l-.22266-2.4414m1.16407 2.83984l-.10938-1.22266m12.20703 2.08203l7.02344.21875m-7.02344-.21875l-1.08203-2.20312m14.46484 2.9961l6.89063-1.3672m-6.89063 1.3672l-1.55468-1.90235m14.8789 1.94922l6.8711-1.46094m-6.8711 1.46094l-1.57812-1.88281m14.83203 1.5l6.99219-.69922m-6.99219.69922l-1.35938-2.03907m15.37891 3.82422l5.58594-4.26562m-5.58594 4.26562l-2.23047-1.02344"/><g clip-path="url(#L)"><path fill="none" stroke="#000" stroke-linecap="round" stroke-linejoin="round" stroke-miterlimit="10" stroke-width=".5" d="M143.875 443.89453l.25-7.02344"/></g><g clip-path="url(#M)"><path fill="none" stroke="#000" stroke-linecap="round" stroke-linejoin="round" stroke-miterlimit="10" stroke-width=".5" d="M143.91016 442.875l-1.10157.53516"/></g><path fill="none" stroke="#000" stroke-linecap="round" stroke-linejoin="round" stroke-miterlimit="10" stroke-width=".5" d="M158.76563 443.58203l-2.90235-6.39844m2.48047 5.46875l-.75.97266m14.40234-6.48047l-2.73047 6.47656m18.1797-3.5664l-7 .65625m5.98046-.5586l.67578 1.02344m13.60547-1.46875l-6.89453 1.35156m19.57813-2.77734l-5.63282 4.20313m17.0586-5.48829l-1.85157 6.77735m1.58203-5.79297l1.19532-.26953m10.70703-.75781l1.51562 6.85937m-1.29687-5.86328l.9336-.79297m11.2539.13281l3.32812 6.1875m-2.84375-5.28906l.6836-1.01953m12.7461-.13281l2.1328 6.6953m-1.82421-5.71874l.85937-.8789m12.60938-.21094l1.20703 6.92187m-1.20703-6.92187l1.9375-1.50782m11.36328 1.51172l1.23437 6.91797m-1.23437-6.91797l1.92968-1.51562m11.4961 1.49609l1.01562 6.95313m-1.01562-6.95313l1.97656-1.45313m11.30078 1.46094l1.08985 6.9414m-1.08985-6.9414l1.96094-1.47656m11.21484 1.5l1.36719 6.89062m-1.36719-6.89062l1.90235-1.55078m9.74218 2.39062l4.71094 5.21485m-4.02734-4.45703l.41797-1.15235m12.80859-.03906l3.51953 6.08203m-3.00781-5.19922l.64844-1.03906m11.03906 1.17578l5.75 4.03906m-4.91406-3.44922l.15234-1.21875m12.17188.8711l6.0625 3.55469m-5.1797-3.03907l.05079-1.22265m12.26953.91406l6.28516 3.14062m-6.28516-3.14062l-.0625-2.45313m13.01172 3.8047l7.01562.4375m-7.01562-.4375l-1.01172-2.23438m14.33203 2.70703l7.00781-.5039m-7.0078.5039l-1.3047-2.07813m14.79688 2.95313l6.65234-2.25781m-6.65234 2.2578l-1.78906-1.67968m15.43359 2.38672l5.99219-3.67188m-5.99219 3.67188l-2.11328-1.24219m15.95703 1.90625l4.9375-5m-4.21875 4.27344l-1.17578-.35156"/><g clip-path="url(#N)"><path fill="none" stroke="#000" stroke-linecap="round" stroke-linejoin="round" stroke-miterlimit="10" stroke-width=".5" d="M142.61328 430.29688l2.77344-6.45704"/></g><path fill="none" stroke="#000" stroke-linecap="round" stroke-linejoin="round" stroke-miterlimit="10" stroke-width=".5" d="M155.59375 430.1289l3.44531-6.12109m-3.44531 6.1211l-2.45313-.0547m16.39454.33204l2.1875-6.67578m-1.8672 5.70703l-1.21093.20703m16.2539.80469l-1.90624-6.76172m1.6289 5.77734l-.88672.85157m11.56641-6.16407l3.91797 5.83203m13.3125-5.83593l-3.91016 5.83984M211.96094 425l1.22265.1211m10.41797-1.5547l.57813 7.00391m-.4961-5.98437l1.03516-.66407m10.25.4375l4.47266 5.42188m-3.82032-4.63672l.46875-1.13281m12.45703.14844l3.94922 5.8164m-3.375-4.96875l.57422-1.08594m12.33594.13282l3.60938 6.02734m-3.08594-5.14844l.63281-1.05468m13.60156-.3047l.72656 6.98829m-.62109-5.97266l1.01563-.68359m11.8125-.27344l1.48437 6.8711m-1.26562-5.8711l.93359-.79297m12.05469-.17968l1.70312 6.8164m-1.70312-6.8164l1.82031-1.64454M315.38281 424l3.42578 6.13672m-2.92578-5.24219l.66406-1.03125m12.91797-.17969l1.89063 6.76953m-1.89063-6.76953l1.77735-1.6914m10.57422 2.1289l3.8203 5.89453m-3.8203-5.89453l1.1914-2.14453m12.1875 2.10156l3.6914 5.98047m-3.15233-5.10937l.61718-1.0586m11.77735.46094l4.45312 5.4375m-3.80469-4.64844l.47266-1.1328m11.10938 4.23046l6.625-2.33984m-5.66407 2l-.90234-.83203m13.40625-1.52735l6.32422 3.0586m-5.40625-2.61329l-.04688-1.22656m12.24219 3.33203l6.72656-2.04297m-5.7461 1.7461l-.86718-.8711m13.05469.3125l7.01953-.33203m-7.01953.33203l-1.25-2.11328m15.42969 4.25782l5.29296-4.6211m-5.29296 4.6211l-2.29297-.8711m16.92187 1.8125l2.66406-6.5039m-2.66406 6.5039l-2.4414.24219m15.51562-.35156l3.14844-6.28516m-2.6914 5.3711l-1.22657.02734"/><g clip-path="url(#O)"><path fill="none" stroke="#000" stroke-linecap="round" stroke-linejoin="round" stroke-miterlimit="10" stroke-width=".5" d="M145.85938 416.73438l-3.71875-5.96485"/></g><path fill="none" stroke="#000" stroke-linecap="round" stroke-linejoin="round" stroke-miterlimit="10" stroke-width=".5" d="M145.3164 415.86719l-.61327 1.0625m12.92578.32422l-.625-7m.53125 5.98047l-1.02735.67187m12.50781-.03125l3.22657-6.24219m-3.22656 6.24219l-2.45313.02734m15.58984-.125l3.58594-6.04687m-3.58594 6.04687l-2.44922-.11718m14.50782-1.16407l6.10156-3.48437m-5.21484 2.97656l-1.03907-.65234m13.21485-1.78516l6.60547 2.40234m-5.64453-2.05078l-.17188-1.21484m12.33594 1.66406l6.98047.80469m-5.96485-.6875l-.44531-1.14453m12.72266 1.35156l7.02734.15234m-7.02734-.15234l-1.10547-2.1875m14.6875.92578l6.4961 2.67578m-6.4961-2.67578l-.24219-2.4414m14.07422 1.5664l5.46094 4.42578m-4.66407-3.78125l.23438-1.20312m13.05469-.14453l3.91796 5.83593m-3.34765-4.98828l.57812-1.08203m13.71485-.33594l.82031 6.97657m-.69922-5.96094l1.00781-.69922m11.1875-.04687l2.82032 6.4375m-2.82032-6.4375l1.52344-1.92579m10.75781 2.6211l4.89063 5.04687m-4.89063-5.04687l.75391-2.33594m11.77344 3.48438l6.46484 2.75m-5.52734-2.35157l-.10547-1.22265m12.80078.23437l5.82422 3.92969m-4.97656-3.35938l.1289-1.21875m13.8086-.58984l2.88671 6.40625m-2.46484-5.47656l.75-.96875m12.27734-.01953l2.6172 6.52343m-2.23438-5.57421l.78906-.9375m10.35547 1.58984l6.19531 3.32031m-5.29297-2.83594l.0039-1.22656m12.13282 3.38672l6.7461-1.96875m-5.76563 1.6836l-.85547-.87891m13.32031 1.53125l6.48438-2.70313m6.5664 1.53907l7.01563-.375m9.21875 3.65234l1.17578-6.92969m9.57031 5.0039l6.31641-3.07812m-5.39844 2.62891l-.99219-.71875m13.23438.80469l6.6211-2.35157m-5.65626 2.00782l-.90625-.82813"/><g clip-path="url(#P)"><path fill="none" stroke="#000" stroke-linecap="round" stroke-linejoin="round" stroke-miterlimit="10" stroke-width=".5" d="M147.39844 401.33203l-6.79688-1.78906"/></g><path fill="none" stroke="#000" stroke-linecap="round" stroke-linejoin="round" stroke-miterlimit="10" stroke-width=".5" d="M147.39844 401.33203l.5625 2.39063m12.51953-1.75782l-6.32813-3.05468m5.40625 2.60937l.04688 1.22656m12.14453 1.02344l-2.24219-6.66015m1.91797 5.6914l-.84375.89063m12.40234.1289l1.92188-6.76172m-1.64063 5.77735l-1.19921.25781m11.95703-1.28906l6.47265-2.73047m-6.47265 2.73047l-1.90235-1.54688m14.96094.57422l6.98438-.78515m-6.98438.78515l-1.38672-2.02344m14.69922 1.9961l6.98828-.73438m-6.98828.73438l-1.3711-2.03125m14.66798 1.58203l7.02734.16797m-7.02734-.16797l-1.09766-2.19531m14.42188 2.51171l7.01171-.46875m-7.01172.46875l-1.29296-2.08593m14.60156 1.7539l7.02344.19532m-7.02344-.19532l-1.09375-2.1953m14.51172 1.44921l6.82031 1.6914m-5.82813-1.4453l-.30078-1.19141m12.81641 3.20703l6.42969-2.83203m-5.49219 2.41797l-.96484-.75782m13.40234-1.79296l6.3086 3.09765m-5.39063-2.64844l-.03906-1.22656m12.09765 2.69531l6.98828-.74218m-6.98828.74218l-1.375-2.03125m14.90625.39844l6.5586 2.52344m-5.60547-2.15625l-.14844-1.21875m13.39453-.45703l4.78906 5.14062m-4.09375-4.39062l.40235-1.16016m11.15234 2.36719l6.91797 1.22656m-5.91016-1.04687l-.3789-1.16797m12.94922 3.0586l6.39453-2.91407m-5.46485 2.49219l-.97265-.75m19.67969-1.88672l-6.25391 3.20703m13.1914-2.9336l6.50391 2.65625m8.82422-4.61328l2.48047 6.57422m12.32422-6.79297l-.5039 7.00782m.43358-5.98829l1.1211-.49609m13.19531-.32812l-2.36328 6.61718m10.98828-3.5078l7.01563.40233m-5.9961-.34375l-.51172-1.11718m12.80079 1.32422l7.02734-.12891m-6.0039.10938l-.59376-1.07422"/><g clip-path="url(#Q)"><path fill="none" stroke="#000" stroke-linecap="round" stroke-linejoin="round" stroke-miterlimit="10" stroke-width=".5" d="M145.76563 390.16016l-3.53125-6.07422"/></g><path fill="none" stroke="#000" stroke-linecap="round" stroke-linejoin="round" stroke-miterlimit="10" stroke-width=".5" d="M145.2539 389.27734l-.64843 1.04297m14.8125-.38281l-4.20703-5.6289m15.3125 6.32812l.21484-7.02344m-.1836 6l-1.10155.54297m13.55078.35156l1.8828-6.76953m-1.60937 5.78516l-1.1953.26562m13.61718.48047l3.125-6.29297m-3.125 6.29297l-2.45313.07031M208.23437 384.5l4.6797 5.2461m-3.9961-4.48048l.42187-1.15234m11.03907 2.86719l7.02343.28515m-6-.24218l-.53125-1.10547m12.89063.5l6.88672 1.41015m-5.88281-1.20703l-.34766-1.17578m12.9336 3.19922l6.33593-3.04297m-6.33594 3.04297l-1.97265-1.45312m15.17968 1.20312l6.55078-2.54297m-6.55078 2.54297l-1.85547-1.60547m2.8086 1.23438l-.92578-.80078m13.14843.72265l6.83204-1.64453m-6.83204 1.64453l-1.6289-1.83594m15.51953 3.07813l5.6836-4.1289m-5.6836 4.1289l-2.20703-1.07422m15.05078.17969l6.625-2.33594m-5.66406 1.9961l-.90235-.83204m13.33203 1.3672l6.47266-2.73048m-5.53125 2.33594l-.95312-.77734m13.1289.53906l6.8711-1.46485m-5.8711 1.25391l-.79297-.9414m13.08985 1.0625l6.90625-1.28516m-5.90235 1.09765l-.76562-.96093m13.04687.04297l6.96485.92578m-5.95313-.78906l-.42578-1.15235m18.94531-.72656l-5.46875 4.41015m17.32032-5.48046l-2.53907 6.55078m2.16797-5.59766l1.21875-.14453m13.85938.17188l-5.32422 4.58984m18.47656.17578l-4.9961-4.9414m4.26954 4.22265l-.35547 1.17578m15.3164-2.11328l-6.83593-1.6289m14.86328 3.78906l3.73828-5.94922m13.46484 5.84765l-4.03906-5.74609m3.45313 4.91016l-.55469 1.09375m15.09766-5.42579l-5.32032 4.58985m4.54297-3.92188l1.14453.44141"/><g clip-path="url(#R)"><path fill="none" stroke="#000" stroke-linecap="round" stroke-linejoin="round" stroke-miterlimit="10" stroke-width=".5" d="M145.875 370.83594l-3.75 5.94531"/></g><path fill="none" stroke="#000" stroke-linecap="round" stroke-linejoin="round" stroke-miterlimit="10" stroke-width=".5" d="M145.32813 371.70313l1.22656.08984m7.58203.51562l6.35547 3m-5.42969-2.5625l-.0586-1.22656m12.17188 2.9336l6.90625-1.28907m-5.90234 1.10156l-.76172-.95703m13.25 1.76563l6.55469-2.53125m-6.5547 2.53125l-1.85546-1.60547m15.08984 1.375l6.71485-2.07031m-6.71485 2.07031l-1.73828-1.73047m2.71485 1.42969l-.8672-.86719m13.0547.32031l7.01562-.3789m-7.01562.3789l-1.26563-2.09765m19.71484-1.20313l-3.25 6.22656m2.77735-5.3203l1.22656-.01173m11.89063-1.16406L236.25 377.1875m10.82813-2.66797l6.8828-1.42187m-5.8789 1.21484l-.78516-.94531m13.19141 1.51172l6.69531-2.14063m-5.72265 1.82813l-.875-.85547m14.91015 3.19531l3.3086-6.19531m-3.3086 6.19531l-2.45312-.0039m15.0664-.48829l4.71094-5.21094m-4.02343 4.45313l-1.19141-.29688m13.72656.96875l4.89453-5.03906m-4.17968 4.30469l-1.1797-.33984m12.75391-1.96094l6.94922 1.03125m-5.9375-.8789l-.41406-1.15626m12.91016.26172l6.5625 2.51563m-5.60547-2.14844l-.15235-1.21875m13.12891-.1836l5.32422 4.58594m9.15234.88281l3.0039-6.35156m-2.5664 5.42578l-1.22656.0586m12.33203-3.58203l6.54688 2.54687m7.63672-3.83594l4.80859 5.125m-4.10938-4.3789l.39844-1.16016m12.41406 5.71094l4.41797-5.46875m-3.77343 4.67187l-1.20704-.23437m15.87891 1.80469l.41406-7.01563m14.4961 6.73438l-2.77735-6.45313m2.375 5.51563l-.76953.95703m15.17969-.41406l-4.16016-5.66407m4.16016 5.66406l-1.0625 2.21094m15.20703-3.07812l-5.82031-3.9336m4.97656 3.36329l-.1289 1.21875m14.89062-2.63282l-7.02734.03906"/><g clip-path="url(#S)"><path fill="none" stroke="#000" stroke-linecap="round" stroke-linejoin="round" stroke-miterlimit="10" stroke-width=".5" d="M467.07422 373.78906l1.16406 2.16016"/></g><path fill="none" stroke="#000" stroke-linecap="round" stroke-linejoin="round" stroke-miterlimit="10" stroke-width=".5" d="M466.05469 373.79297l.57812 1.08203"/><g clip-path="url(#T)"><path fill="none" stroke="#000" stroke-linecap="round" stroke-linejoin="round" stroke-miterlimit="10" stroke-width=".5" d="M145.83594 357.4961l-3.67188 5.99218"/></g><path fill="none" stroke="#000" stroke-linecap="round" stroke-linejoin="round" stroke-miterlimit="10" stroke-width=".5" d="M145.83594 357.4961l2.44922.14843m9.72656-.59375l-1.39063 6.88672m1.1875-5.88672l1.17578-.34765m9.85157-.23047l3.58594 6.04296m-3.58594-6.04296l1.27734-2.09766m10.86719 3.23438l5.92969 3.76953m-5.9297-3.76954l.1875-2.4453m.67579 2.99218l.09375-1.22266m11.8125 2.3711l7.01953.375m-7.01953-.375l-1.03125-2.22656m2.05469 2.28125l-.51953-1.11329m12.85156 1.79297l6.9414-1.09375m-6.9414 1.09375l-1.47656-1.96094m2.48437 1.80079l-.73437-.98047m13.61328 2.58203l5.79687-3.97266m-5.79687 3.97266l-2.17578-1.13672m19.24609-4.25781l-1.71484 6.8164m1.46484-5.82421l1.1914-.29688m14.56641 4.45703l-6.10156-3.48828m19.85547 1.3125l-6.97656.86328m6.97656-.86328l1.40625 2.00781m11.05078.75l-5.26172-4.65625m4.4961 3.98047l-.28516 1.1914m13.28125.3125l-3.08985-6.3125m2.64063 5.39454l-.72266.99219m13.22657.27343l-.57032-7.0039m.48828 5.98437l-1.03515.66016m10.73437-2.3125l6.82422-1.66406m-5.83203 1.42187l-.8164-.91406m13.04687.5625l7.01172-.47656m-7.01172.47656l-1.29688-2.08203m15.21485-.13281l5.80469 3.95703m-4.96094-3.38282l.13281-1.21875m14.45703 6.04688l1.5664-6.85156m11.8672 6.8789l1.32812-6.90234m16.125 3.99219l-6.94531-1.08204m5.9336.92579l.40234 1.15625m13.8164-.53125l-6.73047-2.02344m5.75 1.73047l.23828 1.20312m13.86329-.41015l-6.34375-3.02344m5.42187 2.58594l.05078 1.22656m13.35938.3164l-4.6914-5.23046m4.01171 4.46875l-.42188 1.15234m12.51172.48047l-.8789-6.97266m.75 5.95703l-1.0039.70704m15.875-.20313l-3.73438-5.95313m13.10156.14844l4.16406 5.66016m-3.5586-4.83594l.53126-1.10937"/><g clip-path="url(#U)"><path fill="none" stroke="#000" stroke-linecap="round" stroke-linejoin="round" stroke-miterlimit="10" stroke-width=".5" d="M144.9961 343.8086l-1.9922 6.73827"/></g><path fill="none" stroke="#000" stroke-linecap="round" stroke-linejoin="round" stroke-miterlimit="10" stroke-width=".5" d="M144.9961 343.8086l2.40624-.48829m9.76953.34766l.28516 7.01953m-.28516-7.01953l2.1211-1.23828m11.46484 1.23828l-.2539 7.01953m.2539-7.01953l2.20703-1.07422m12.77735 1.5664l-3.59375 6.03516m3.59375-6.03515l2.45312.11718m-2.97656.76172l1.22656.0586m7.30469 2.1914l7.02344-.22265m-6.0039.1914l-.60938-1.0664m13.30078 2.61328l6.22656-3.2539m-6.22656 3.2539l-2.02344-1.38281m16.2539 2.49609l4.39844-5.48047m-4.39843 5.48047l-2.41016-.45703m3.05078-.33985l-1.20703-.23046m13.25781.3789l5.64453-4.1836m-4.82422 3.57423l-1.10546-.52735m12.96875-1.58594l6.91015 1.26563m-5.90625-1.08203l-.3711-1.17188m19.62892 1.2461l-6.98438.75m6.98438-.75l1.3789 2.03125m11.95703-1.58594l-7.02734-.14063m7.02734.14063l1.10938 2.1875m11.61719-.3086l-5.84766-3.89843m4.9961 3.32812l-.1211 1.22266m11.98828.85547l-1.25-6.91797m1.0664 5.91016l-.96484.76171m13.09766.22266l1.48047-6.8711m-1.26563 5.8711l-1.17968.33594m14.08203.61328l1.875-6.76953m-1.60157 5.78515l-1.19921.26563m12.10156-.96875l6.15625-3.39453m-5.26172 2.89844l-1.02734-.66797m15.84765-3.98047l1.35547 6.89453m-1.16016-5.89063l.95313-.77343m9.79297 4.96094l6.10156-3.48829m-5.21484 2.98047l-1.03516-.65625m14.24219 2.09766L385.9453 344.5m-3.88672 4.57813l-1.19921-.26172m15.78906-5.13672l.67578 6.9961m-.57813-5.97657l1.02344-.67969m13.72266-.14844l-2.3789 6.61329m15.52734-3.3047l-.01954-.19921-.05859-.19531-.09766-.17579-.45703-.375-.1914-.05859-.19922-.01953-.19922.01953-.1914.0586-.46094.375-.09375.17578-.0586.1953-.01953.19923.01953.19922.0586.1914.09375.17578.46093.375.1914.0586.19923.01953.19922-.01953.1914-.0586.45703-.375.09766-.17578.0586-.1914.01953-.19922m15.80078.14453l-7.01953-.29297m6 .25l.52734 1.10938m8.63281-4.3086l3.32813 6.1914m10.42187-6.38671l2.46094 6.58203m-2.46094-6.58203l1.625-1.83594"/><g clip-path="url(#V)"><path fill="none" stroke="#000" stroke-linecap="round" stroke-linejoin="round" stroke-miterlimit="10" stroke-width=".5" d="M143.53125 330.38281l.9375 6.96094"/></g><g clip-path="url(#W)"><path fill="none" stroke="#000" stroke-linecap="round" stroke-linejoin="round" stroke-miterlimit="10" stroke-width=".5" d="M143.53125 330.38281l1.99219-1.4336"/></g><path fill="none" stroke="#000" stroke-linecap="round" stroke-linejoin="round" stroke-miterlimit="10" stroke-width=".5" d="M156.88672 330.375l.85547 6.97656m-.73047-5.96094l1.00781-.70312m12.51563-.33594l.1875 7.02344m-.16016-6.0039l1.07031-.60157m14.75781.57031L181.5 336.38672m4.89063-5.04688l2.35546.6797m11.40625-.14845l-5.78515 3.98438m5.78515-3.98438L202.33204 333m-3.01954-.55078l1.08984.5664m12.85547 3.11329l-5.36719-4.53516m4.58594 3.875l-.25781 1.19922m12.48828.61328l-1.63281-6.83594m1.39453 5.83985l-.91797.8125m15.92578-5.91797l-4.53906 5.36719m3.875-4.58594l1.19922.26172m13.70312.17968l-6.39062 2.92188m5.46094-2.4961l.97656.7422m11.51172 3.5l-2.875-6.41407m2.45703 5.48047l-.7539.96875m16.39062-2.15235l-6.6836-2.17968m6.6836 2.17969l.42187 2.41406m10.74219-.19922l-2.3789-6.60938m2.03124 5.64844l-.82422.91016m9.82422-2.70703l6.94141-1.09375m-5.92969.93359l-.73828-.98047m13.0039.46094l7.01954.26172m-7.01953-.26172l-1.07031-2.20703m14.42968 2.91797l6.92969-1.15625m-5.92188.98828l-.74609-.97656m13.0039.60937l7.02735-.08984m-6.0039.07812l-.58985-1.07422m19.8711.51172l-6.94922 1.0625m13.27734-.53125h7.02734m-6.0078 0l-.57423-1.08203m14.07031-1.5664l4.6211 5.29687m-3.94531-4.52735l.4375-1.14453m13.60546-.37109l1.81641 6.78906m-1.55078-5.80078l.89844-.83594m12.25-.17578l1.6211 6.83594m-1.6211-6.83594l1.83984-1.6211m10.20313 2.20704l4.16406 5.66016m-4.16406-5.66016l1.0625-2.21094m12.3125 7.91406l4.04296-5.74609m-3.45703 4.91016l-1.21484-.15235m12.5586-1.02734l6.8125-1.71094m-5.82032 1.46485l-.82422-.91016m17.1211-3.16797l-1.13672 6.9375m.97265-5.92578l1.16407-.39453"/><g clip-path="url(#X)"><path fill="none" stroke="#000" stroke-linecap="round" stroke-linejoin="round" stroke-miterlimit="10" stroke-width=".5" d="M142.39453 317.42188l3.21094 6.25"/></g><g clip-path="url(#Y)"><path fill="none" stroke="#000" stroke-linecap="round" stroke-linejoin="round" stroke-miterlimit="10" stroke-width=".5" d="M142.39453 317.42188l1.39844-2.01563"/></g><path fill="none" stroke="#000" stroke-linecap="round" stroke-linejoin="round" stroke-miterlimit="10" stroke-width=".5" d="M156.21094 317.21484l2.21094 6.66797m-1.89063-5.69922l.84766-.88671m10.02734 4.65234l6.44531-2.80078m12.47266-1.1836l-4.76172 5.16797m19.19922-2.8789l-7.0039.58593m5.98437-.5l.66406 1.03125m13.57031.05079l-6.80469-1.7461m6.8047 1.7461l.57812 2.3828m12.84765-3.14452l-7.02343-.22266m6 .1875l.54297 1.10156m13.59375-2.35937l-6.6172 2.36328m5.65235-2.01953l.90625.82422m13-1.91407l-5.875 3.85547m5.875-3.85547l2.15234 1.1797m11.53516-.4375l-6.61719 2.36718m5.65235-2.02344l.91015.82813m10.57813 3.48828l-1.03516-6.94922m1.03516 6.94922l-1.97266 1.45703m15.73828-1.55469l-1.9375-6.7539m1.65625 5.76953l-.8828.85156m12.01952-.0664l2.98438-6.35938m-2.55078 5.4375l-1.22657.0586m13.40625.42968l4.38672-5.48828m8.01172 4.3789l6.21875-3.27343m-5.3125 2.79687l-1.01562-.6875m18.33203-3.49219l-3.59375 6.03907m13.86719.26562l2.48828-6.57031m-2.125 5.61719l-1.21875.15234m15.83593-5.97266l-.83984 6.97657m15.13281-6.71094l-2.80078 6.44531m2.39453-5.50781l1.22266-.09375m13.83594.17578L394.25 322.75m4.67578-3.76563l1.1289.48438m12.48438-1.6289l-4.47656 5.41406m4.47656-5.41407l2.40625.4922m7.83594-1.19532l1.66797 6.82422m-1.42578-5.83203l.91797-.81641m14.60547 6.35547l-3.23047-6.23828m3.23047 6.23828l-1.39454 2.01953m.92579-2.92578l-.69922 1.00781m16.08984-1.82031l-6.44531-2.80078m6.44531 2.80078l.19531 2.44531m-1.13281-2.85547l.19531 2.44531m13.32032-5.92187l-4.96875 4.96875"/><g clip-path="url(#Z)"><path fill="none" stroke="#000" stroke-linecap="round" stroke-linejoin="round" stroke-miterlimit="10" stroke-width=".5" d="M466.04688 318.0625l2.34375.71875"/></g><path fill="none" stroke="#000" stroke-linecap="round" stroke-linejoin="round" stroke-miterlimit="10" stroke-width=".5" d="M465.32422 318.78516l2.34375.71875"/><path fill="#00f" fill-rule="evenodd" d="M272.83984 467.64844h8.6211V457.5039h-8.6211v10.14453"/><path fill="azure" fill-rule="evenodd" d="M274.67578 459.33594h.83203v2.82422h3.28516v-2.82422h.83594v6.48047h-.83594v-2.91797h-3.28516v2.91797h-.83203v-6.48047"/><path fill="#00f" fill-rule="evenodd" d="M215.14453 458.77344h8.61719V448.625h-8.61719v10.14844"/><path fill="azure" fill-rule="evenodd" d="M216.97656 450.45703h.83203v2.82422h3.28516v-2.82422h.83594v6.48047h-.83594v-2.91406h-3.28516v2.91406h-.83203v-6.48047"/><path fill="#ff3030" fill-rule="evenodd" d="M344.55078 441.01953h7.6914V430.8711h-7.6914v10.14844"/><path fill="azure" fill-rule="evenodd" d="M346.38281 432.70703h.83203v5.73828h3.19532v.73828h-4.02735v-6.47656"/><path fill="#00f" fill-rule="evenodd" d="M410.42969 432.14063h8.6211v-10.14454h-8.6211v10.14454"/><path fill="azure" fill-rule="evenodd" d="M412.26172 423.82813h.83594v2.82421h3.28515v-2.82421h.83203v6.48046h-.83203v-2.91796h-3.28515v2.91796h-.83594v-6.48046"/><path fill="#00f" fill-rule="evenodd" d="M224.01953 414.38672h8.61719v-10.14453h-8.61719v10.14453"/><path fill="azure" fill-rule="evenodd" d="M225.85156 406.07422h.83594v2.82422h3.28516v-2.82422h.83203v6.48047h-.83203v-2.91406h-3.28516v2.91406h-.83594v-6.48047"/><path fill="#ff3030" fill-rule="evenodd" d="M193.64453 334.4961h7.69531v-10.14454h-7.6953v10.14453"/><path fill="azure" fill-rule="evenodd" d="M195.47656 326.1836h.83594v5.74218h3.1914v.73828h-4.02734v-6.48047"/><path fill="#ffffe0" fill-rule="evenodd" d="M243.41406 370.23438h22.1836v-10.19141h-22.1836v10.1914"/><path fill-rule="evenodd" d="M246.91406 361.875h.51172v6.29688h-.78906v-4.48829H245.25v-.55859l.5586-.0625.2539-.05469.22656-.08984.20313-.14063.17578-.21093.14062-.29297.10547-.39844m4.8164 0l.22657.01953.21875.0586.21094.08593.19531.1211.1836.15234.17187.17578.30078.41797.24219.49219.17969.54687.11328.58203.03906.58985-.03906.59375-.11328.58203-.1797.55469-.24218.5039-.30078.42578-.17188.1797-.18359.15233-.19531.125-.21094.09375-.21875.0547-.22656.01952-.23047-.01953-.21875-.05469-.20703-.09375-.19922-.125-.1836-.15234-.17187-.17969-.30078-.42578-.24219-.5039-.17969-.5547-.11328-.58202-.03906-.59375h.83594l.02734.5625.08203.50781.125.4414.16407.375.1914.30079.21094.21875.22266.13672.22656.04687.22656-.04687.22266-.13672.20703-.21875.1914-.30078.16407-.375.125-.44141.08203-.50781.02734-.5625-.02734-.5625-.08203-.5-.125-.4336-.16406-.36718-.19141-.29297-.20703-.21485-.22266-.1289-.22656-.04688-.22656.04688-.22266.1289-.21094.21485-.1914.29297-.16407.36718-.125.4336-.08203.5-.02734.5625h-.83594l.03906-.58985.11328-.58203.1797-.54687.24218-.49219.30078-.41797.17188-.17578.18359-.15234.19922-.1211.20703-.08594.21875-.05859.23047-.01953m5.08984 0h.50781v6.29688h-.78515v-4.48829h-1.39063v-.55859l.5625-.0625.25-.05469.23047-.08984.20313-.14063.17578-.21093.14062-.29297.10547-.39844m2.82422 2.17578h.78516l.01953-.3164.0586-.28516.10156-.2539.14062-.21485.17969-.17188.22265-.1289.26563-.08203.3086-.02735.23827.02344.22266.0625.20313.10156.17968.13672.14844.17188.11328.20703.07422.23828.02344.26172-.02344.26953-.0625.22656-.11328.1914-.15235.16798-.20312.16406-.2461.16797-.6328.38672-.53907.3125-.4375.3164-.34765.32422-.26172.33594-.19141.35156-.125.3711-.0664.39453-.02344.41796h4.21093v-.74218h-3.33203l.08594-.28125.11328-.23828.14844-.20313.1875-.17969.23047-.17187.27734-.17578.71875-.41406.41406-.20704.34375-.23046.28125-.25.21875-.26954.16407-.27734.11328-.28125.0625-.28516.01953-.28125-.03906-.38671-.1211-.34766-.1914-.30469-.25-.26562-.30079-.21094-.34765-.16016-.3789-.09765-.40626-.03516-.4336.03516-.39843.09765-.35547.16797-.30469.23438-.25.30078-.18359.375-.11719.44922-.03906.51562"/><path fill="#ffffe0" fill-rule="evenodd" d="M368.375 358.89453h22.17969v-10.19531H368.375v10.19531"/><path fill-rule="evenodd" d="M371.875 350.53516h.50781v6.29296h-.78906v-4.48828h-1.38672v-.55468l.5586-.06641.2539-.05469.23047-.08984.20313-.14063.17187-.21093.14453-.29297.10547-.39453m4.8125 0l.23047.01562.21875.0586.20703.08984.19531.1211.1836.14843.17187.17578.30078.41797.2461.4961.17968.54296.10938.58203.03906.58985-.03906.59375-.10938.58203-.17968.55469-.2461.5039-.30078.42578-.17187.1797-.1836.15624-.19531.1211-.20703.09375-.21875.05468-.23047.01953-.23047-.01953-.21875-.05469-.20703-.09375-.19531-.12109-.1875-.15625-.16797-.17969-.30469-.42578-.24219-.5039-.17968-.5547-.11329-.58202-.03515-.59375h.83203l.02734.5625.08204.50781.1289.4414.16016.375.1914.30079.21094.22265.22266.13672.22656.04688.22656-.04688.22266-.13672.21094-.22265.1914-.30078.16016-.375.1289-.44141.07813-.50781.03125-.5625-.03125-.5625-.07813-.5-.1289-.4336-.16016-.36718-.1914-.29297-.21094-.21485-.22266-.1289-.22656-.04688-.22656.04688-.22266.1289-.21094.21485-.1914.29297-.16016.36718-.1289.4336-.08204.5-.02734.5625h-.83203l.03515-.58985.11329-.58203.17968-.54297.2422-.49609.30468-.41797.16797-.17578.1875-.14844.19531-.1211.20703-.08983.21875-.0586.23047-.01562m5.08984 0h.51172v6.29296H381.5v-4.48828h-1.38672v-.55468l.5586-.06641.2539-.05469.22656-.08984.20313-.14063.17578-.21093.14063-.29297.10546-.39453m2.82422 2.17187h.78906l.01954-.3125.05859-.28906.09766-.25.14062-.21875.17969-.17188.22656-.1289.26172-.08203.3086-.02735.23827.02344.22266.0625.20703.10156.17969.13672.14844.17578.11328.20313.07031.23828.02344.26172-.01953.26953-.0664.22656-.10938.1914-.15625.17188-.19922.16016-.25.16797-.63281.38672-.53516.3125-.4375.3203-.34766.32423-.26562.33594-.1875.34765-.125.3711-.07031.39453-.01954.41796h4.21094v-.74218h-3.33203l.08203-.28125.11328-.23828.14844-.19922.1875-.1836.23047-.16796.27734-.17579.71875-.41796.41406-.20704.34766-.23046.28125-.25.21875-.26563.16406-.28125.10938-.28125.0664-.28516.01954-.28125-.04297-.3828-.1211-.34767-.1875-.30859-.25-.26562-.30468-.21094-.34375-.16016-.38282-.09765-.40625-.03125-.43359.03125-.39844.09765-.35547.16797-.30468.23438-.2461.30468-.1875.375-.11719.44532-.03906.51562"/></g></defs><use xlink:href="#aa"/></svg>