<svg xmlns="http://www.w3.org/2000/svg" role="img" xmlns:xlink="http://www.w3.org/1999/xlink" viewBox="142.45 309.95 326.84 171.84"><defs><clipPath id="a"><path d="M144 311.67188h1v168.65625h-1zm0 0"/></clipPath><clipPath id="b"><path d="M144 311.67188h324v168.65625H144zm0 0"/></clipPath><clipPath id="c"><path d="M347 311.67188h2V313h-2zm0 0"/></clipPath><clipPath id="d"><path d="M467 311.67188h1v168.65625h-1zm0 0"/></clipPath><clipPath id="e"><path d="M144 477h3v3.32813h-3zm0 0"/></clipPath><clipPath id="f"><path d="M154 477h6v3.32813h-6zm0 0"/></clipPath><clipPath id="g"><path d="M168 477h5v3.32813h-5zm0 0"/></clipPath><clipPath id="h"><path d="M181 477h6v3.32813h-6zm0 0"/></clipPath><clipPath id="i"><path d="M194 477h6v3.32813h-6zm0 0"/></clipPath><clipPath id="j"><path d="M208 477h6v3.32813h-6zm0 0"/></clipPath><clipPath id="k"><path d="M220 477h7v3.32813h-7zm0 0"/></clipPath><clipPath id="l"><path d="M233 478h8v2.32813h-8zm0 0"/></clipPath><clipPath id="m"><path d="M247 478h7v2.32813h-7zm0 0"/></clipPath><clipPath id="n"><path d="M260 477h7v3.32813h-7zm0 0"/></clipPath><clipPath id="o"><path d="M274 477h7v3.32813h-7zm0 0"/></clipPath><clipPath id="p"><path d="M287 477h7v3.32813h-7zm0 0"/></clipPath><clipPath id="q"><path d="M300 478h8v2.32813h-8zm0 0"/></clipPath><clipPath id="r"><path d="M313 478h8v2.32813h-8zm0 0"/></clipPath><clipPath id="s"><path d="M327 477h7v3.32813h-7zm0 0"/></clipPath><clipPath id="t"><path d="M342 476h3v4.32813h-3zm0 0"/></clipPath><clipPath id="u"><path d="M355 476h4v4.32813h-4zm0 0"/></clipPath><clipPath id="v"><path d="M366 479h9v1.32813h-9zm0 0"/></clipPath><clipPath id="w"><path d="M380 478h7v2.32813h-7zm0 0"/></clipPath><clipPath id="x"><path d="M393 479h8v1.32813h-8zm0 0"/></clipPath><clipPath id="y"><path d="M393 479h2v1.32813h-2zm0 0"/></clipPath><clipPath id="z"><path d="M406 479h8v1.32813h-8zm0 0"/></clipPath><clipPath id="A"><path d="M404 479h4v1.32813h-4zm0 0"/></clipPath><clipPath id="B"><path d="M420 478h8v2.32813h-8zm0 0"/></clipPath><clipPath id="C"><path d="M418 479h3v1.32813h-3zm0 0"/></clipPath><clipPath id="D"><path d="M433 478h8v2.32813h-8zm0 0"/></clipPath><clipPath id="E"><path d="M431 480h4v.32813h-4zm0 0"/></clipPath><clipPath id="F"><path d="M446 478h8v2.32813h-8zm0 0"/></clipPath><clipPath id="G"><path d="M446 480h3v.32813h-3zm0 0"/></clipPath><clipPath id="H"><path d="M460 477h7v3.32813h-7zm0 0"/></clipPath><clipPath id="I"><path d="M144 463h2v8h-2zm0 0"/></clipPath><clipPath id="J"><path d="M144 450h2v8h-2zm0 0"/></clipPath><clipPath id="K"><path d="M144 455h2v3h-2zm0 0"/></clipPath><clipPath id="L"><path d="M144 436h1v9h-1zm0 0"/></clipPath><clipPath id="M"><path d="M144 442h1v2h-1zm0 0"/></clipPath><clipPath id="N"><path d="M144 423h2v8h-2zm0 0"/></clipPath><clipPath id="O"><path d="M144 410h3v8h-3zm0 0"/></clipPath><clipPath id="P"><path d="M144 399h4v3h-4zm0 0"/></clipPath><clipPath id="Q"><path d="M144 383h2v8h-2zm0 0"/></clipPath><clipPath id="R"><path d="M144 389h2v2h-2zm0 0"/></clipPath><clipPath id="S"><path d="M144 370h3v8h-3zm0 0"/></clipPath><clipPath id="T"><path d="M466 373h2v4h-2zm0 0"/></clipPath><clipPath id="U"><path d="M144 357h3v7h-3zm0 0"/></clipPath><clipPath id="V"><path d="M144 343h2v8h-2zm0 0"/></clipPath><clipPath id="W"><path d="M144 330h1v8h-1zm0 0"/></clipPath><clipPath id="X"><path d="M144 328h2v3h-2zm0 0"/></clipPath><clipPath id="Y"><path d="M144 317h2v7h-2zm0 0"/></clipPath><clipPath id="Z"><path d="M465 317h3v3h-3zm0 0"/></clipPath><g id="aa" clip-path="url(#clip1)"><path fill="#fff" fill-opacity="0" fill-rule="evenodd" d="M0 0h1000v1000H0zm0 0"/><path fill="#d3d3d3" fill-opacity="0" fill-rule="evenodd" d="M162.15234 355.86719l-.23437.29297.0586.23437.11718.17188.17578.23437.29297.34766.11328.0586.11719-.17188.0586-.23438.17577-.17578.46485-.17578h.69922l.23437.29297.28906.8164.0586.17579.17578.23046.35156.23438.69922.69922.17188.17578.23437.34765.23438.41016.28906.58203.41015.46485.23047.23437.23438.17578.11719.23047.17578.29297.17187 1.16406v.23438l.0586.28906.05859.11719.11719.11719.34765.41015.11719.17188.17578.17578.17578.23437.11719.17188.17188.35156.05859.23438.23437.40625.23438-.0586-.17578.17578-.0586.92969h-.58203l-.23437-.11328-.34766.11328-.11719.11719-.05859.29297-.0586.17578-.11718.17187-.46484.29297-.0586.23438-.0586.11328v.64453l.0586.17187v.41016l.0586.0586v.40624l.05859.40625.11719.17579.05859.05859.23047.64062-.0586.29297v.69922l-.05859.58203v.23438l-.0586.23047-.05468.35156v1.92187l.05469.1172h.42578l-.36719.11718-.02344.35156.89063 1.16797 1.74219.53906 1.33984.35938v.53906l.08984.8086.53516.71484 1.51953.26953.89063-.08594.08984 1.16406.53516.1797 1.16015-.1797 2.05469-.98437 1.16016-.36328 1.8789-.17578 1.69531-.1797-.17968.71876-1.51563.08594-1.25.08984-.80469.26953-1.07421.8086.26953.71875.53515.89843-.17968.625-.26563.8086.26563 1.07812.625.89844.80468.17969 1.25-.1797-.26562.72267.09766.5039.05468.29297v.17188l.0586.29296v.40625l.17578.1172.35156.11718h.40625l.29297-.17578.11328-.11719.0586-.11719.11718-.23047.0586-.17578.35156-.46484.23047-.17578.17578-.0586.17578.0586.0586.17578.11718.98828.05469.46875.0586.17188.11718.23437.17578.0586.8164.05859h.28907l.11719.23437.05859.40625.0586.35156v1.10547l.11718.29297.11719.34766.28906.69922.17578.35156.58203.7539.35157.17579.17187.0586.46875.23437.64063.46484.34765.23438.29297.17578.29297.05468.23047.0625.8164.34766.29297.17578.11328.17188.35157.35156.11719.17578.52343.64063v.28906l.0586.35156v.34766l.05859.35156.0586.28906.11718.0586.17188.05859h.17578l.58203.23437.17578.1172.17578.28905.17578.23438.11328.23437.29297.23047.11719.11719v.41016l.0586.05468.28906.23438.23437.11719.0586.11718.11718.17188.0586.11719.23047.23437.05859.17578.23437.0586.1172.05859-.1172.11328-.05859.11719v.11719l-.11719.29296-.11719.28907v.58203l.17579.11719.11718.05859.0586.11719.11719.11719.11328.05859.17578.34765.0586.35157.05858.40625v.17578l-.05859.17578-.11719.69922v.17187l.1172.17579.29296.29296h.40625l.17578.1172.11719.17187.11719.29296v.23438h-.52735l-.23047-.23438h-.23437l-.17578.0586-.0586.69922.0586.34765.11719.17579.17578.41015.11718.23047.28907.46875.17578.05469h.52344l.23437.0586.75781.64062.0586.29296v.23438l.05859.0586.23047.34765v.35156l-.11719.17188v.29297l.29297.28906.29297.17578.17187.0586.29297.17577.29297.1172.58203.40624.28906.23438.29297.17578.21875.16015.01563.01172.23047.17579.64062.52343.17578.23438.1172.17578.17577.17578.11328.17188v.64062l.1172.17578.46874.11719.58203.11719.23438.05859.23047.11328.29297.11719.11328.0586.58593.35156.28907.17187.17578.0625.17578.05469.17578.0586.69922.35155.28906.17579.23438.05468.28906.17578.23437.1172.64063.40624.29297.11719.17187.0586.23438.05859.41015.05859.23047.0586.23438.11718.0586.17188-.41017.17578.46875.0586.0586.29296.11328.23438.17578.05468.23438.0586.17578.05859.40625.11719.64062.23437.11719.17188.0586.23437v.17578l-.0586.1172-.0586.40624.23438.23438.11719.05859.34766.11719.64062.23047.17578.11718.28906.1172.17578.17577.23438.46485.58203 1.10546.17578.17579.34766.17578.17578.11719.35156.11718 1.04688.52344.23437.0586.46485.11327.29297.0586.46484.17578.75781.58203.23438.23438.34765.46484.17578.17578.28907.23438.8164.69921.29297.17579.28906.28906.29297.17578.29297.28906.69531.64063.17578.17578.29297.23437.28907.23438.46875.28906.64062.58203.34766.23438.23437.29297.34766.34765.35156.46485.9336.99218.34765.40625.11719.17579.23437.05859.11328.11719.64454.17578.23047.11328.23437.0586.29297.17577.23047.1172.9336.69921.40624.40625.23438.17578.40625.17578.23437.11719.8164.34766.34766.23437.23438.11719.29297.28906.23047.11719.7578.35156.35157.17188.23047.05859.29297.11719.23437.0586.8711.17577h.8164l.46875.23047.17188.0586.875.69921.46484.1172.29297.05858.17578.0586.23047.0586.46875.05859.34766.05859.35156.0586.40625.05859h.29297l.17187.0586v.23046l.17578.17578h.29297l.34766.0586.35156.05859.69922.11719h.64063l.46484-.23438.29297-.17578.17187-.11719.41016-.17187.28906-.17578.9336-.46485.46875-.29297.52343-.29296.46485-.17188.46484-.17578 1.05078-.46485.28906-.11718.41016-.11719.28906-.11719.52735-.17578 1.51562-.69922.58203-.34765.28907-.0586.29297-.0586.34765-.11718.875-.23047.35156-.11719h.11329l.23437-.05859.875-.23437.23438-.0586h.8125l.35156-.0586.8164-.11718.17188-.0586.35156-.05468.29297-.0586.23047-.05859.8164-.17578.17579-.0586h.34765l.23438-.05859.46484-.11718.75781-.17188.23438-.0586h.34765l.41016-.11718.28906-.0586 1.28516-.05859h.28906l.41016-.0586.23047-.05858h.17578l.875-.1172h.40625l.41015-.11718h.34766l.35156-.11328.8711-.0586h1.75l1.04687.28907.41016.11719.28906.11718.35156.11719.28907.11719 1.05078.17187.28906.0586h.29297l.29297.05859.17187.0586.41016.05859.17187.0586.1172.05858h.11718l.11719.0586.35156.0586h.11328l.41016.0664 1.92187.39453 1.92578.39453 1.51953.44922 1.69532.71875 2.14453.80469 1.60547-.71875 1.42968-.80469 1.16016-1.07813 1.25-.44921 3.03516-.71875 1.875-.35938 2.14453-1.34765 2.23437-1.25391 2.5-1.25781 1.69531-.44922 1.78516-.17969 1.16016-.26953.625.53906 1.33984-.26953.71485-.98828.98437-1.34375.44531-.17969.80469-.35937 1.875-.53907 1.78516-.44921 1.25-.26954 1.16015-.08984 1.69922-.08984 1.96094-.26954 1.25-.08984h.53906l.625-.08984h.89063l2.14453-.17969 2.41015-.17969 2.58985-.08984 1.69531.17969 1.60938.08984 1.42968.35938 1.16016.71875 1.875.98828 1.16015 1.52734.26563.71484.6289.08985.35548.89844.53515.53906.53516 1.52734 1.07422.35938h.53515l-.80469.53515.08985 1.70703.71484 2.69532.89063.80468.89453.98829.71484 1.2578 1.78516.53907 1.51953-.17969.35547 1.34375 1.60937-.80469.98047-.53906.26953.26953.31641-.21484.21875-.14453.80078.44922.44922-.35938h.35547l.53515-.26953.53907-.71875.53515-.26953.625-.98828 1.16016.44922.83984.3711 1.39454.61718 1.6953-.17969h1.60548l1.78515.08985.17969-1.70704.53516-1.34375.80468.26954.4922.84765.40233.40625-.08984.53906v.35938l.71485.44922.71093-.26953h1.42969l.35938.98828.4453 1.25781.71485 1.34375 1.25.6289 1.69531.62891.71485-.17969.17969-.53906.98046-.08984.44922.35937.08594 1.25782-.26563.6289-.53515.17969v.53906l.71484.98438.26563.53906.98437.98828.80078 1.07813-.26562.35937-.08985.89844-.625 2.33203-.35546 2.0664-.08985 1.79298-.17969.71875-.08984.53906v1.4375l-.98047 1.88281-.35937 1.70703-.53516.89844-.80469 1.16797-.26562.53906 2.05469 1.2539.08593.35938-.35546.53906-.08985-.17968v.80859l.08985 1.4375-.44532.71484-1.07422.09375-.26562.71485.53515.89844.8047.71875 1.16015.80859 1.33984.26953.44531.35938-.35546.44921-1.78907-.08984-1.25-.44922-.71484-.71875-.625-.08984-.17578 3.58984-.1875 1.3086h89.35937V311.70313h-55.26953v49.08203l.76172.125 3.28906.54296 2.02344 2.83594v2.7539l2.35156.33204 2.34766.33203h4.05078l-1.3789 4.16016-2.02344.70703-2.02344.70312-.54297.34375-2.59375 1.6172-.1875.11718-2.02344-2.07813-.73046-2.74218-2.67188-2.07813-1.375-3.5-.0664-.08203-1.95704-2.67188 2.75-1.41796v-49.08204H294.42187v91.41407l.1172.03125.1328.01172.07422.07421.10547.04688.08985.0586.08593.05859.08985.0586.29687.29687.0586.08984.03125.11719.02734.11719.01563.13671-.03125.1172-.0586.08983-.0586.08594-.04296.10547-.04688.10156-.02734.1211v.14453l.17578.26953.14844.14844.07422.08594.07422.07421.04296.10547.0625.08985.0586.08593.04297.10547.0586.08985.04687.10156.04296.10547.0586.08594.11719.17968.07421.07422.0625.08594.0586.08984.04297.10547.0586.08985.05858.08593.0625.08985.0586.08984.04297.10156.11719.17969.07421.07422.0586.08594.07422.07421.08984.0586.10547.04687h.14844l.1328-.01562.13282.01562.10156-.04687.07422-.07422.04688-.10156-.01563-.13281v-.14844l-.04687-.10547-.02735-.11719-.04687-.10156-.02735-.1211-.04296-.10156-.0625-.08984-.04297-.10156-.04297-.10547-.03125-.11719-.01563-.13281-.01171-.13672.08593-.0586.0586-.08593.12109-.03125.04297.10547.01562.1328v.1172l.0586.10156.0586.08984.08983.0586.14844.14843.0586.08985.04296.10547-.01171.10156.08593.0586.10547.04687.08594.0586.08984.05858.07422.07422-.11719.02735-.10546.04687-.08594.0586-.07422.07421-.0586.08985-.0625.08594-.02734.12109-.04687.10156-.04297.10547-.03125.11719-.01172.13281-.01563.13281v.14844l.02735.11719.04687.10547.04297.10156.0586.08984.07421.07422.08985.0586.07422.07421.08984.0586.0586.08984.04296.10547.04688.10156.11719.03125.1328.01563h.14845l.11718-.03125.10547.04297.04297.10547.04688.10156.02734.1211L299.5 410l.02734.11719.03125.1211.02735.11718.10547.04297.10156.04687.13281-.01562.14844.14844.0625.08593.07422.07422.07031.07422.08984.0625.10547.04297.10156.04297.1172.03125.13671.01562.11719-.03125.07422-.07422.02734-.11718-.01172-.13282-.03125-.12109-.02734-.11719.04297-.10547h.11719l.08984.0625.11719.02735h.14843l.13282.01562h.14843l.13282.01563.1328-.01563h.14845l.1328-.01562.13282-.01172.13672.01172.11719-.02735.13281-.01562.1914-.0586-.05859.17579-.01562.1328-.02735.1211-.01562.13281-.0586.08594-.1328.01563-.10548.04687-.10546.04297-.1172.03125-.11718.02735-.26563.03125h-.14843l-.13281.01562-.07422.07422.05859.08594.14844.14843.11719.1797.07421.0703.08985.0625.08984.0586.08594.0586.08984.05858.10156.04297.10547.0625.10547.04297.08594.0586.10547.04687.10156.04297.17969.11719.0586.08984-.04298.10156-.04687.10547.01562.13281.22266.22266.0586.08985.04296.10156.03125.1211.04297.10155.01563.13282.03125.11718.01171.13672.03125.11719.14844.14844.10156.04297.10547.04296.1172.03125.1328.01563.13672.01563h.11719l.11719-.03125.08984-.0586.04297-.10547.04688-.10156.04296-.10547.03125-.11719.01172-.1328v-.14845l-.01172-.1328-.01562-.13282-.03125-.11719-.04297-.10547-.04688-.10547-.04296-.10156-.04297-.10547-.01563-.13281.01563-.13281.02734-.11719.03125-.11719.02735-.1211.04687-.10155.08984-.0586.08594-.0625.07422-.07422.08984-.05859.22266-.22266.0586-.08593.07421-.07422.11719-.17969.0586-.08594v-.14844l-.07423-.07421-.10156-.04688-.10547-.04297-.10156-.04297-.0586-.08984-.04687-.10547-.02734-.11719.08984-.05859.11719-.03125.10156-.04297.17969-.11719.14844-.14843.01172-.13282-.01172-.10546-.08985-.0586-.1328.01563h-.14845l-.1328.01562-.13282-.01562-.1211-.03125-.08593-.0586-.07422-.07422-.0586-.08984-.0625-.08594-.11718-.17969-.0586-.08593.03125-.1211.08594-.05859.1211-.03125.05859-.08594v-.1211l-.03125-.11718-.0586-.08984-.05859-.08594-.04687-.10547-.02735-.11719-.01562-.1328.0586-.08985.07421-.07422.08984-.0586.1172-.17968.07421-.07422.0586-.08594.14843-.14844.1211-.03125.1328-.01562.13282.01562.07422.07422.04297.10547.01562.13281-.03125.1172-.11719.03124-.1328.01172-.14844.14844-.04297.10547-.04688.10156-.02734.1211-.03125.11718v.14844l.03125.11719.04297.10546.05859.08985.07422.07031.07422.07422.11719.03125.12109.02734.11719-.02734.1328-.01563h.1172l.08984.0586.07422.07422.04687.10546.0586.08594.10156.04688.13281.01562.10547.04297.08594.0586-.01172.10546-.07422.07422-.17969.11719-.05859.08984-.08984.0586-.07032.07422-.07421.07421-.0625.08985-.02735.11719-.01562.1328.01562.13282-.01562.13281v.14844l.01562.13281.02735.1172.03125.12108.07421.07422.08985.0586.08594.0586.08984.05858.11719.03125v.08594l-.10157.04688-.08984.0586-.26563.03124-.11718.02735h-.14844l-.10547.04296-.10156.04688-.0586.08984-.0625.23438-.01171.13281-.03125.1211-.01563.1328v.29298l-.01172.1328.01172.13673.01563.1328.1328.01563.13282.01172.1211.03125.08593.0586.07422.07421.04688.10547.04296.10157.01563.1328v.44532l-.01563.13281v.44532l.03125.26562.02735.11719.01562.13281.03125.11719.08594.21094.03125.26562v.14844l-.03125.11719-.02734.11718-.03125.1211-.02735.11719-.03125.11718-.03125.1211-.01171.1328-.01563.13282.08984.0586.1172-.03125.10155.01562.04688.10547-.03125.26562v.44141l-.04297.10547-.04688.10547-.04296.10156-.04297.10547-.0586.08594-.03125.12109-.04296.11719-.03125.11719-.01563.1328.01563.13282.05859.08984.10547.04688.08594.0586.05859.08593-.01172.13672-.03125.11719-.04297.10156v.44531l-.01562.13281v.14844l-.03125.11719-.04297.10547-.02735.11719-.04687.10546-.04297.10157-.03125.12109-.02734.11719-.03125.13281-.03125.11719-.02735.11719-.04297.10546-.03125.1172-.03125.12108-.01171.13282-.01563.13281v.29688l.02734.11718v.14844l.04688.39844.02734.11719.0586.08984.12109.03125h.14844l.13281-.01563.0586.08985v.11719l-.0586.08984-.08984.0586-.10157.04296-.10546.04688-.08985.05859-.08594.0586-.13671.01562-.1172-.03125-.1328-.01563-.10157.04688-.0625.08594-.01172.13671-.01562.13282-.03125.11719-.02735.11718-.01562.13281-.03125.1211v.29687l.01563.13282.03125.11718v.14844l.01171.13281v.14844l-.02734.11719-.04688.10156-.02734.1211-.03125.11718-.0586.08985-.07421.07421-.10156.04297-.10547.04688-.11719.02734-.1211.03125-.10156-.04687.0586-.08594.10547-.04688.02734-.11718.03125-.11719.02734-.1211.03125-.11718v-.14844l.01563-.13281-.03125-.11719-.04297-.10547-.10547.01563-.07422.07422-.10156.04296-.08984.0625-.07422.07422-.04297.10157-.01563.1328-.03125.1172L304.25 426l-.03125.11719-.02734.11719-.03125.12109-.02735.11719-.03125.11718-.04297.10547-.08984.0586h-.08984l-.1172-.03125-.03124-.08594.01562-.13672-.03125-.11719v-.14844l-.01171-.1328v-.14844l-.0625-.23438-.02735-.1211-.04297-.10156-.04687-.10546-.0586-.08594-.05859-.08985-.04297-.10546-.0625-.08594-.14844-.14844-.0703-.07422-.10548-.04687-.10547-.04297-.10156-.04297-.29687-.29688-.08985-.07421-.08594-.0586-.10546-.04297-.08985-.0625-.08594-.0586-.10546-.04296-.08985-.0586-.08594-.0625-.07421-.0703-.10547-.04688-.08594-.0586-.10547-.04296-.08984-.0625-.10156-.04297-.10547-.04297-.08594-.0586-.10547-.04687-.10547-.04297-.10156-.04687-.08985-.0586-.10156-.04297-.10547-.04296-.08984-.0625-.11719-.02735-.13281-.01562-.13281.01562H299.75l-.13281.01563-.11719-.03125-.08984-.0586-.07422-.07422-.08985-.05859-.10156-.04688h-.14844l-.12109-.02734-.10156-.04297-.07422-.07422-.11719-.17968-.08984-.0586-.10156-.04297-.08985-.0625-.10547-.04296-.08984-.0586-.08594-.0586-.10547-.04687-.0586-.08594-.05858-.08984-.04297-.10547-.04688-.10156-.07422-.07422-.08594-.0586-.07421-.07421-.08985-.0586-.22265-.22265-.04297-.10547-.03125-.26563.10547-.04296h.14453l.10547.04296.07421.07422.08985.0586.08594.0586.10546.04687.08985.05859.14844.14844.0703.07422.14845.14843.0625.08594.07421.07422.08594.0586.07422.07421.08985.0625.08984.0586.08594.05859.26953.17578.10156.04688.10547.04296.10156.04297.04688-.07421.05859-.08594.07422-.07422.07031-.07422.10547.04297.07422.07422.0586.08984.04296.10156.04688.10547.04296.10547.1211.02735.11719-.02735.07421-.08984.04297-.10547.0586-.08985.07422-.07421.10546-.04297.1172-.02735.1328.01172.08985.0586.14844.14843.05859.08985.04297.10547.04687.10156.04297.10547.04297.10156.10547.04688.10547.04296.13281.01563.08594-.0586.0586-.08984.07421-.07422.10547-.04297.11719.02735.10547.04687.10156.04297.10547.04297.10156.04688.17969.11718v.11719l-.01563.13281.01563.13281.01562.13672.0586.08594.10156.04688.1211.02734.11718.03125h.14844l.11719-.03125.05859-.08984.17969-.1172.05859-.08983.07422-.07422.0586-.08594.11718-.17969.17969-.11719.11719.03125.08984.0586.04297.07422-.01563.1328v.1172l.08985.05859h.14843l.13282-.01563.1328-.01171.26563-.03125.10547-.04297.11719-.03125.1211-.02735.07421-.07421.07031-.07422.0625-.08985-.01562-.10547-.04688-.10156-.10156-.04297-.10547-.01562-.11718.02734-.26563.03125h-.14844l-.07421-.07422-.08985-.0586-.11719-.03124-.11718-.02735-.13282-.01562h-.14843l-.13282.01563h-.29687l-.10547-.04688-.14844-.14844-.04297-.10156-.05859-.08984.22266-.22266.08593-.0586.10547-.04296.11719-.03125.13281-.01563.13281.01563.13672.01562.10157.04297.1328-.01172.08985-.0625.10156-.04297.0625-.08984-.04687-.10156-.08984-.0586-.1172-.03125-.10155-.04296-.0586-.08985-.0625-.08984v-.11719l.01563-.13281.10547-.04688.07421-.07031v-.1211l-.08984-.05859-.03125-.11719.08985-.05859.07421-.07422.04297-.10547.0586-.08984.04687-.10156.01563-.13281v-.14844l-.04688-.10547-.04297-.10156-.08984-.0586-.13281-.01562-.10157-.04297-.13671-.01563-.1172-.03125h-.4453l-.13282-.01562-.13281-.01172-.13281-.01563-.11719-.03125h-.14844l-.13281-.01562-.13281-.01172-.26563-.03125-.1211-.04297-.08593-.0586-.07422-.07421v-.14844l.01172-.13281.10547-.04688.10156-.04296.13281-.01563h.15235l.13281-.01562h.29297l.1211.03125.10156.04296.08984.0586.23438.0625.12109-.04688.08984-.05859.10156-.04297.13282-.01562.10547.04296.10156.04688.13281.01172.1211-.02735h.14453l.12109-.03125.11719-.02734.10547-.04687.07421-.07422.08594-.0586.14844-.14843.0586-.08594.04687-.10547.02734-.11719.01563-.10547-.10156-.04296-.08985-.0586-.11719-.03125-.10546-.04297-.08985-.0625-.07422-.08594-.07422-.07421-.10156-.04297-.10547-.04688-.10156-.04297-.0586-.08984-.04687-.10156-.08594-.21094-.0625-.08594-.05859-.08984-.07422-.07422-.08594-.0586h-.26953l-.11719.03126-.08984.05859-.10156.04297-.13281.01562-.10547-.01562-.02735-.11719-.0625-.08984-.11718-.03125-.10157-.04297-.14843-.14844-.03125-.11719-.01563-.10546.07422-.07422.17969-.1172.11719-.02733.11718-.03125.13672.01562.10156.04297.10547.04297.10156.04687.10547.04297.1172.03125.1328.01563.1172.02734.1328.01563.10547-.01563.08985-.0586-.07422-.07421-.10547-.04297-.07422-.07422-.07422-.08984-.14844-.14844-.08593-.0586-.08985-.05859-.07422-.07422-.08984-.0586-.10156-.04687-.1211-.02734-.10156-.04688-.10547-.04296-.11719-.03125-.10156-.04297-.1211-.03125h-.14843l-.11719.03125-.10546.04297-.08594.0625-.17969.11718-.08594.0586-.08984.0586-.10547.04687-.08594.05859-.10547.04297-.10156.04297-.10547.04687-.07422.07422-.05859.08985-.0586.08593-.04687.10547-.0586.08594-.07421.07422-.13281-.01172-.1172-.03125h-.11718l-.07422.07422-.08984.0586-.07422.07421-.08984.0586-.08594.05859-.10547.04687-.10156.04297-.13672.01563-.10156-.04297-.14844-.14844-.10547-.04688h-.08594l-.10547.04688-.10156.04297-.1211.03125-.11718-.03125-.07422-.07422v-.11719l.03125-.1211.07422-.0703.0586-.08985.07421-.07422.11719-.03125.10547-.04296h.29297l.13281-.01563.13672-.01563.10156-.04296.08985-.0586.10156-.04687.08984-.0586.13281-.01171.08985.05859.13281.01172.08984-.0586.08594-.05859.10547-.04297.08984-.0586.08594-.0625.08985-.05859.14843-.14843.0586-.08594.05859-.08985.10547-.04296.13281-.01563.11719.02735.1211.03125.05859-.0586.05859-.08984.03125-.26563.02734-.11719.10547.01172.13281.01563.10157-.04297.08984-.0586.0586-.08984.07421-.07422.0586-.08984.04687-.10156.01172-.13281-.01172-.13282-.04687-.10547-.14844-.14843-.0586-.08985-.05859-.08594-.04297-.10546v-.44532l.01563-.1328v-.14845l.01172-.1328-.0586-.0586-.08984.0586-.10156-.04298-.17969-.11719-.08594-.05859-.0625-.08984-.0586-.08985-.07421-.07421-.08594-.0586-.1211.03125-.10155.01172-.10547.04688-.08594.05859-.10547.04297-.14844.14844-.08984.05859-.08594.0586-.08984.0625-.10547.04296-.13281.01563v-.1211l.10547-.04297.11718-.03125.07422-.0703.04297-.10548v-.14844l-.02734-.11718-.14844-.14844-.13281-.01563h-.14844l-.11719.03125-.10547.04297-.10156.04297-.08984.0625-.11719.02735-.07422-.07422.01172-.13281-.04297-.10157-.04297-.10547-.08984-.05859-.11719.02734-.1211.03125-.11718.03125-.10156.04297-.1211.03125-.10156.04297-.10547.04297-.08984.0586-.10156.01562v-.11719l.01562-.13281-.0586-.08985-.07421.04297-.14844.14844-.0586.08985-.07421.07421-.04688.10547-.04296.10156-.07422.07422-.0586.08985-.07422.07422-.05859.08593-.07422.07422-.08984.0625-.07422.07031-.07422.07422-.10156.01563-.13281.01562-.10547-.04296v-.1211l.14843-.14844.04297-.10156.0586-.08984.04687-.10156.04297-.10547.0586-.08985.03124-.11719.04297-.10156.03125-.1211.02735-.11718.04687-.10547.04297-.10156.04297-.10547.07422-.07031.08984-.0625.08985-.0586.10156-.04296h.29687l.26563-.03125.10547-.04297-.07422-.07422-.11719-.03125-.10547-.04297-.08984-.0586-.10156-.04687-.08985-.0586-.10156-.04296-.10547-.04297-.08984-.0625-.08594-.0586-.10547-.04296-.10156-.04297-.1211-.03125-.11718-.03125-.10157-.04297L297.5 410.25l-.10156-.04297-.08985-.0586-.04296-.10546-.01563-.13281.10156-.04297.13281-.01563.13672.01563.13282-.01563.10156-.04297.0586-.08984.01562-.10547-.08985-.0586-.07421-.07421-.10157-.04297-.08984-.0586-.14844-.14843-.04297-.10547-.01562-.13281v-.29297l-.0586-.08985-.08984-.05859-.07422-.07422-.04297-.10547-.03125-.11718-.0586-.08985-.07421-.07422-.11719-.02734-.07422-.07422-.08984-.0586-.08984-.0625-.08594-.05859-.07422-.07421-.0586-.08594-.04687-.10547-.08594-.0586-.14843-.14843-.19532-.0586-.1328.01563-.10157.04297-.07422.07422-.04688.10156-.04296.10547-.0586.08984-.0586.08594-.29687.29687-.08984.0586h-.08594l-.0625-.08594-.04297-.10547.03125-.11719.0586-.08984.02734-.11719-.01172-.13281-.08984-.0625-.10547.04688-.11719.02734-.11719.03125-.26953.17578-.10156.04688-.11719.02734-.10546.04687-.08985.0586-.10156.04297-.0586-.08594-.04687-.10547.01563-.13281.04687-.10547.07031-.07422.07422-.07031.0586-.08985v-.14843l-.04297-.10547h-.23829l-.10156.04687-.03125.11719-.02734.11719-.03125.1211-.07422.04296-.13281.01563-.07422-.04688-.04297-.10156-.04297-.10547-.04687-.10156-.04297-.10547-.1211.03125-.10156.04297-.13281.01562-.11719.03125-.10547.04297-.08984.0586-.10156.04687-.1211.02734-.13281.01563-.10156-.04297-.0586-.08985-.04687-.10546-.04297-.10157-.04297-.10546v-.1172l.0586-.08984.08593-.05859.17969-.11719.10156-.04687.10547-.04297.10547-.0586.10156-.04296.08985-.0625.10156-.04297.10547-.0586.10156-.04687.08984-.0586.10547-.04296.10156-.04297.08985-.0625.10156-.04297.13672-.01563.11719.03125.10156.04297.1211.03125.10156.04297.10546.04688.10157.04296.10547.04297.10156.04688.10547.04297.10156.04297.10547.04687.08594.0586.10546.04296.1172.03125.10546.04297.10156.04688.08985.0586.10547.04296.10156.04297.10547.04687.11719.02735.10156.04687.1211.02735h.14843l.08594-.0586.01562-.10156.0586-.08984-.02735-.1172-.07422-.07421-.11719-.17969-.07421-.07422-.08985-.07421-.17969-.1172-.08593-.05859-.10547-.04296-.10156-.04688-.26954-.17578-.05859-.08985-.07422-.07421-.0586-.08985-.04296-.10156-.03125-.11719-.01563-.13672v-.5625l-.01171-.1328-.01563-.13282-.03125-.11719-.01562-.13281-.01172-.13281-.03125-.1211-.22266-.22265-.0586-.08594-.01562-.10547.03125-.11719.13281-.01562v-91.41406H172.9922v1.45312l-.0586.23438-.35156 1.05078-.17187.52343-.1172.34766-.17577.41016-.11719.17187-.23438.29297-.23046.0586h-.35157l-.11718.05859-.23047.40625v.29297l.11719.17578.23046.23047.1172.23437.64062.75781.29297.46485.17578.23437.23047.35156.23437.34766.64063.8164.17578.46485.17187.41016.11719.69531.17578.46875.11719 1.39844.0586.46484v.875l.11718 1.04688v4.78125l-.0586.46484-.35156 1.28125-.17578.52344-.11328.41015-.35156.9297L172.93359 336l-.23437.58203-.11719.17578-.17187.34766-.17578.40625-.35157.8164-.0586.29297-.11327.29297-.11719.28906-.0586.17579-.11718.875-.0586.40625-.05859.11718-.0586.17579-.05859.17187-.23047.52734-.11718.17188v.23437l-.11719.23438-.0586.17187-.17577.58594v.28906l-.0586.17579v.29296l-.0586.11329-.05859.52734v.17187l-.05468.23438v2.6211l-.17578.8164-.1172.17578-.17577.23438-.1172.17187-.11327.23438-.58594.93359-.23047.28906-.29297.46485-.17578.23437-.28906.35156-.35156.69922-.11328.23047-.17579.41016-.17578.23046-.40625.52735-.8164.69922-.29297.17187-.28906.23438-.17579.11719-.17578.17578-.52344.40625-.52734.17578-.17187.17578-.23438.05469-.64062.17578h-.75782m12.21094 31.02344l-1.07422.44921.35938.89454 1.25-.71485.44531-.53906-.98047-.08985"/><path fill="#d3d3d3" fill-opacity="0" fill-rule="evenodd" d="M201.50781 416.59766h-.89453l.44922.6289.98047.35938.80469-.08985.4453-.98828-.17577.08985-.71485-.35547-.89453.35547m154.6211 59.0703l-.0586-.52343v-.29297l.11328-.29297.0586-.23046.46875-.46875h.11328l.11719-.11329.11718-.05859h.17579l.23437-.0586h.34766l.23437.0586.11719.0586.23047.17187.0586.17578.11718.58203v.29297l-.11719.17578-.17187.28906-.17579.17579-.52734.52343-.23047.23438-.11719.0586h-.17578l-.11718-.0586-.40625-.29297-.17579-.11719-.11718-.0586-.0586-.11327-.05468-.1172m6.64062-10.95702l-.0586-.17188v-1.10937l.0586-.17188.17578-.0586.17188-.05858h.17578l.23437-.0586.1172.0586.05858.69921-.05859.17188-.11719.17578-.11718.0586-.23438.52343-.11328.0586h-.23438l-.05859-.1172m9.61328-14.39062l-.11719-.17578v-.69922l.29297-.875.1172-.17187.17577-.35156.11328-.23047.1172-.29297.35155-.75781.1172-.23047.17187-.23438h.17578l.11719-.0586h.64062l.11719.0586.23437.23438.17188.11328.35156.29297.11719.11718.11328.17579v.11328l.11719.05859.11718.11719v.69922l-.05859.17578v.23047l-.0586.17578-.34765 1.05078-.11719.23047-.11719.23437-.11718.0586-.23047.23437-.64063.28906h-.875l-.41015-.11718-.64063-.46485"/><path fill="none" stroke="#bebebe" stroke-linecap="round" stroke-linejoin="round" stroke-miterlimit="10" stroke-width=".5" d="M467.95703 311.69531H144.02734v168.625h323.9297v-168.625"/><g clip-path="url(#a)"><path fill="#fff" fill-opacity="0" fill-rule="evenodd" d="M144 475.89063v4.4375h.0039H144V311.67188h.0039H144v164.21875"/></g><g clip-path="url(#b)"><path fill="#fff" fill-opacity="0" fill-rule="evenodd" d="M144.0039 480.32813V311.67188h35.50391v55.03125l-2.67187 2.66796-1.76953 2.17579-2.375 2.26171 2.375 2.34375 4.4414.41407 3.22266-2.75782-.16406-4.4375-3.0586-2.66796v-55.03125h31.0664v58.40234l-4.4375 2.08984-1.70312 1.64453-2.46093 4.4375-.27344.41016-4.4375 2.91797-1.1211 1.10937-2.71875 4.44141-.60156.85547-3.48047 3.58203-.66797 4.4375-.28906 1.64844-.99219 2.78906-3.4453 4.28906-.14845.14844-4.28906 4.0586-.67578.3828-3.42187 4.4375-.34375.57032-4.4375 3.48828-.38282.3789-4.05468 1.23048-4.4375 1.05859-1.6836 2.14844-1.39844 4.4414-1.35546 2.51563-1.85938 1.92187-2.58203 2.92969-1.51172 1.50781 1.51172 1.98828 4.4414 1.4336 4.4375-1.21485 2.38282-2.20703 2.05469-1.32812 3.53125-3.10938.90625-1.03125 4.4375-.00781 4.4414-.49219 4.4375.08203 2.32813-2.98828 2.10937-.57812 3.8164-3.86328.6211-.86329 3.875-3.57421.5664-.2422 4.19532-4.1953.24219-1.08204 2.1914-3.35546 2.2461-3.30079 4.4375 1.13282 2.1914 2.16797 2.25 1.61718 4.4375 2.35157.57813.46875 3.85938 2.64843 4.4375-.0625 4.4375-.35156 3.16406 2.20313 1.27734.97265 1.07813-.97265 1.65625-4.4375-2.73438-3.47657-.95312-.96093.95312-1.59766 2.3164-2.84375 2.1211-.73828 3.48047-3.69922L243.53125 396l-1.88672-1.76953-4.4375 1.15234-4.29297-3.82031 3.6289-4.4375-3.77733-3.01953-1.58204-1.42188-2.85547-2.64062-3.48828-1.79688-.94922-1.26171-1.0039-3.17579-3.4336-2.8125-4.4375-.46875-4.4414-.45312v-58.40235h71.01562v51.44532l-4.4375.70312-2.05078 1.11328-2.39062.60938-3.48828 3.82812.5625 4.4375-1.51172 2.20313-4.4375-1.46485-.5-.73828.5-.79296 3.74219-3.64454-3.7422-3.59765-3.15624-.83985-1.28125-1.17578-1.60938 1.17578-2.83203.61329-4.4375.66015-4.4375 2.21485-.54687.94921-3.32813 4.4375 3.875 2.84375 4.33984 1.59375-4.14843 4.4375 4.2461 3.64844 1.17968.79297 3.25781 3.58203 4.4414.42578 1.19141.42969 3.2461 2.16406 4.4375-.08203 2.08594-2.08203 2.35156-.80469 4.4414-1.15234 2.3711-2.48047-2.3711-3.97656-.1914-.46485.1914-.55468 4.4375-2.40625 3.5586-1.47657.8789-.15625 4.4375-1.3789 4.4375.07812 1.97657-2.98047 1.40234-4.4375-3.3789-3.2578-4.4375-.03517-4.4375-.07812-2.73438-1.0664-1.70313-1.81641v-51.44531h57.69922v50.5703l-3.29687 2.69141 3.29687 3.32422 4.4375-.46094v6.02344l-4.4375 1.94922-1.375 2.47656 1.375 1.02735 4.4375 2.76953v2.82812l-4.4375.01954-3.89062 2.23437-.55078.58203-2.32813 3.85547 2.32813 3.6289 1.2578.8086-1.2578 3.3086-.46485 1.1289.46485.27734 4.4414 1.66016 4.4375-1.82813 4.4375.21094 4.4375 2.14844 4.3164-2.46875-4.3164-2.9375-4.4375 2.66797L345.21094 396l-1.48438-2.14453-1.11719-2.29297 1.1172-2.07422 1.26952-2.36328-1.26953-2.2539v-2.82813l3.10938-3.79688-3.10938-4.42578v-6.02344l1.8789-2.86328-1.8789-2.40625-4.4375-.28515v-50.57031h8.3125l.5625.5664.6289-.5664h3.8086v26.54296l-.17187.08594.17187.10156v51.32422l-1.80469 1.83594 1.8047 3.1914 1.96484-3.1914-1.96485-1.83594v-51.32422l.20313-.10156-.20313-.08594v-26.54296h8.8789v101.16015l-.99608.92188-3.44141 1.42187-2.78516 3.01563.95313 4.4375-.69922 4.4414 2.53125 4.20703 4.34765-4.20703.08985-.02344 3.78906-4.41796-.97265-4.4375-1.875-4.4375-.94141-.92188V311.67188h8.875v77.79687l-2.09766 2.09375-.52344 4.4375 2.6211 1.59766v38.5664l-3.71875 4.21875-.71875.78516-4.25 3.65234-.1875.28125-4.15235 4.16016-.28515.70312-4.4414 2.53516-4.4375-1.11328-2.91016 2.3125 2.91015 2.34375 1.50781 2.09375 1.21485 4.4375 1.71484 2.57812 4.4414 1.59375.53517.26954 3.90234 2.46093 4.4375.6914 4.4375.57813 4.4375-.33984 4.4414-.39063 2.66407-3 1.3125-4.4414.15625-4.4375.30469-.30469 4.24609-4.13281-4.2461-4.35938-.10546-.07812.10546-1.24219 1.33204-3.19922-1.33204-.99219-4.4375-2.08593-4.4414-1.2539-.33203-.10548-4.10547-4.21875v-38.5664l4.4375.3828L376.78125 396l-1.98828-3.375-.59375-1.0625-3.84375-2.09375v-77.79688h22.1914v87.94532l-1.68359.82031-2.7539.84375-4.4375 1.98828-4.4375 1.53906-.07032.06641-1.84765 4.4414 1.91796 2.06641 4.4375 1.78125.60938.58985-.60938 1.27343-4.4375-.15625-4.4414.27735-3.98047 3.04297 3.98047 3.41406 4.4414-1.2539 4.4375 1.80859.1875.46875-.1875 1.46093-.74609 2.98047.7461 3.72266.09765.71484-.09765.14844-2.57032 4.28906 2.57031 2.375 4.22266-2.375.21485-.14453.26562.14453 4.17188 2.46485 4.4375.67968 4.4414.30079 4.11328-3.44532.32422-.875 4.4375-2.80469.71094-.7578 3.19922-4.4375.52734-.59376 4.4414-3.44922v18.5625l-3.125 3.23047-.92968 4.4414-.38672 2.60548-.8164 1.83203-2.57813 4.4375-1.04297 3.10937-.61719 1.32813.6172.63281.70702-.63281 3.73047-1.8125 4.4414-.1875 4.4375.40625 2.94141-2.84375 1.4961-1.52344 3.01953-2.91406-.5625-4.4375 1.98047-3.3789.83594-1.0625-.83594-2.10548-4.4375-.95312-3.10547 3.0586-1.33203 1.73437-1.27344-1.73438-3.16406-3.23047v-18.5625l3.54687 4.04297.89063.82422 4 3.61328.4375.48828 1.90625 3.94922 2.53125 3.63672 2.4414-3.63672-.02343-4.4375-2.41797-2.46094-1.3125-1.97656 1.3125-4.14844.27344-.29296-.27344-.26954-4.4375-2.6875-4.4375-.20312-4.4375 2.79688-4.4414-2.5586-4.4375-.63281-4.4375.25-4.4375.42969-3.08204 2.875-1.35938.625-4.4375.32812-1.32421-.95312-.32032-4.4375 1.59766-4.4375.04688-.54297.71875-3.89453.80859-4.44141-.44531-4.4375-1.08204-.82031v-87.94531h75.44922v168.65625H144.00391"/></g><path fill="#50fcfc" fill-rule="evenodd" d="M152.875 437.9336l-1.51172-1.98829 1.51172-1.50781 2.58203-2.92969 1.85938-1.92187 1.35547-2.51563 1.39843-4.4414 1.6836-2.14844 4.4375-1.0586v3.45313l-4.4375 2.64063-.82422 1.55468-1.91406 4.4375-1.69922 2.4414-1.76172 1.9961 1.76172 1.05078 2.05468-1.05078 2.38282-1.64453 4.36328-2.79297.07422-.125 3.35547-4.3125-3.35547-4.19531v-3.45313l4.05468-1.23046.38282-.37891 4.4375-3.48828.34375-.57031 3.42187-4.4375.67578-.38282 4.28906-4.05859.14844-.14844 3.44531-4.28906.9922-2.78906.28905-1.64844.66797-4.4375 3.48047-3.58203.60156-.85547 2.71875-4.4414 1.1211-1.10938 4.4375-2.91797.27344-.41016 2.46093-4.4375 1.70313-1.64453 4.4375-2.08984v1.41015l-3.23828 2.32422-1.19922.3086-3.71094 4.1289-.72656 1.08985-3.83203 3.34765-.60547 1.14844-2.65625 3.29297-1.78516 2.54688-1.83594 1.89062 1.5 4.4375-2.89062 4.4375-.64844 4.4375-.5625.39063-4.4375 2.30468-1.77344 1.7461-2.2578 4.4375-.40626 2.46875-1.14453 1.96875-3.29687 4.07421-.71875.36329.71875.83203 4.4414.58203 4.4375 1.05469 4.4375-.52735 1.91797-1.9414 2.51953-3.4961 1.02344-.9414 3.41797-1.46875 2.96875-2.96875 1.1875-4.4375-4.15625-4.39454-.1211-.04687-.08593-4.4375.20703-.27344.26953.27344 4.16797 4.28125 4.4375-.73047 4.4375-2.30469.57422-1.24609L212.84766 396l-2.27344-3.41797-4.4375-.33984-2.49219-.67969 2.49219-3.75781 4.4375 1.86719 4.4414 1.24218 4.4375.57031.25391.07813 4.1836 1.99219 4.4375.28125 2.8203-2.27344L232.5 387.125l-4.17188-4.02734-4.4375.73437-4.4375-.22656-3.18359-.92188 3.1836-2.84375 1.6914-1.59375-1.42578-4.4375-.26563-.21875-4.4375-1.27734-4.4414-.82813v-1.41015l4.4414.45312 4.4375.46875 3.4336 2.8125 1.0039 3.17579.94922 1.26171 3.48828 1.79688 2.85547 2.64062 1.58203 1.42188v7.625l-4.4375 3.4414-4.4375.20704-4.4375-1.1836-4.4375-1.30078L214.21484 396l-.73828 4.4375-.28125 4.4375 1.82031 1.84375 4.4375-1.01172 2.98047-.83203 1.45703-.76172v3.2461l-4.4375 1.46484-.8789.49219.8789.54296 4.4375 3.35547 4.4375-2.23437 1.52735-1.66406-1.52734-.94922-4.4375-1.00781v-3.2461l4.4375-.51953 4.4375-.98047 1.51171-2.17578L236.5 396l-3.73438-4.26953v-7.625l3.77735 3.01953-3.6289 4.4375 4.29296 3.82031 4.4375-1.15234v4.45312l-4.4375 1.14063-.3711.61328.3711.76172 4.4375.26172.96094-1.02344-.96094-1.7539v-4.45313L243.53125 396l1.59375 4.4375-3.48047 3.69922-2.1211.73828-2.3164 2.84375-.95312 1.59766.95312.96093 2.73438 3.47657-1.65625 4.4375-1.07813.97265-1.27734-.97265-3.16406-2.20313-4.4375.35156-4.4375.0625-3.85938-2.64843-.57813-.46875-4.4375-2.35157-2.25-1.61718-2.1914-2.16797-4.4375-1.13281-2.2461 3.30078-2.1914 3.35546-.24219 1.08204-4.19531 4.1953-.5664.2422-3.875 3.57421-.6211.86329-3.8164 3.86328-2.10938.57812-2.32813 2.98828-4.4375-.08203-4.4414.49219-4.4375.00781-.90625 1.03125-3.53125 3.10938-2.0547 1.32812-2.3828 2.20703-4.4375 1.21485-4.44141-1.4336"/><path fill="#00e8fc" fill-rule="evenodd" d="M157.3164 436.9961l-1.76171-1.05079 1.76172-1.9961 1.69922-2.4414 1.91406-4.4375.82422-1.55469 4.4375-2.64062 3.35547 4.19531-3.35547 4.3125-.07422.125-4.36328 2.79297-2.38282 1.64453-2.05468 1.05078"/><path fill="#50fcfc" fill-rule="evenodd" d="M175.0664 376.15234l-2.375-2.34375 2.375-2.26171 1.76954-2.17579 2.67187-2.66796v2.66015l-.00781.00781-.2461 4.4375.25391.05079.0586-.05079-.05078-4.4375-.00782-.0078v-2.66017l3.0586 2.66797.16406 4.4375-3.22266 2.75782-4.4414-.41407"/><path fill="#00e8fc" fill-rule="evenodd" d="M175.0664 423.46094l-.71874-.83203.71875-.36329 3.29687-4.07421 1.14453-1.96875.40625-2.46875 2.25781-4.4375 1.77344-1.7461 4.4375-2.30469.5625-.39062.64844-4.4375L192.48438 396l-1.5-4.4375 1.83593-1.89063 1.78516-2.54687 2.65625-3.29297.60547-1.14844 3.83203-3.34765.72656-1.08985 3.71094-4.1289 1.19922-.3086 3.23828-2.32421v2.34375l-4.4375 1.1289-2.95313 3.28906-1.48437 2.22266-2.53906 2.21484-1.89844 3.60157-.67969.83984-.9961 4.4375L197.1211 396l-4.30078 3.13281-.91015 1.30469.09765 4.4375-3.625 2.51563-2.64062 1.92578-1.79688 2.46875-1.32812 1.96875 1.32812 3.51171.46485.92579 3.97265 3.27734 2.60156-3.27734 1.83594-1.67579 4.4414-1.83984.92188-.92187 2.04297-4.4375-2.96484-3.13282-3.53516-1.30859.29297-4.4375 3.24219-4.3125 4.22656 4.3125.21094.21484 4.4375 1.44922 2.2539-1.66406L210.56642 396l-4.4297-2.3125-4.4375.41797-3.375-2.54297 3.375-3.0664 1.04688-1.3711 3.39063-1.09766 4.28125-3.34375.15625-.16406 4.4414-2.76172v4.35547l-3.24609 3.01172 3.2461 2.34766 4.4375.03515 4.4375-.14844 4.18359 2.20313.2539.04688.0586-.04688 1.88281-4.4375-1.9414-1.875-4.4375 1.01953-4.4375-1.07031-4.4375-1.08594v-4.35547l1.64453-1.51172-1.64453-1.97656-4.44141-2.4414v-2.34375l4.4414.82812 4.4375 1.27734.26563.21875 1.42578 4.4375-1.6914 1.59375-3.1836 2.84375 3.1836.92188 4.4375.22656 4.4375-.73437L232.5 387.125l-1.35156 4.4375-2.82031 2.27344-4.4375-.28125-4.1836-1.99219-.2539-.07813-4.4375-.5703-4.44141-1.2422-4.4375-1.86718-2.49219 3.75781 2.49219.67969 4.4375.33984L212.84766 396l-1.69922 4.4375-.57422 1.2461-4.4375 2.30468-4.4375.73047-4.16797-4.28125-.26953-.27344-.20703.27344.08594 4.4375.12109.04688 4.15625 4.39453-1.1875 4.4375-2.96875 2.96875-3.41797 1.46875-1.02344.9414-2.51953 3.4961-1.91797 1.9414-4.4375.52735-4.4375-1.0547-4.4414-.58202m4.4414-49.60156l-.2539-.05079.24609-4.4375.00781-.0078.00781.0078.05079 4.4375-.0586.05079"/><path fill="#00d4fc" fill-rule="evenodd" d="M183.94531 417.26563l-1.32812-3.51172 1.32812-1.96875 1.79688-2.46875 2.64062-1.92579 3.625-2.51562-.09765-4.4375.91015-1.30469L197.1211 396l-1.53515-4.4375.9961-4.4375.67968-.83984 1.89844-3.60157 2.53906-2.21484 1.48437-2.22266 2.95313-3.28906 4.4375-1.1289v1.66406l-4.4375.30469-2.19922 2.44921-2.23828 3.35157-1.2461 1.08593 1.2461 2.54297 4.4375-.39844 2.7461-2.14453 1.6914-1.77343 3.25781-2.66407-3.25781-2.7539v-1.66406l4.4414 2.4414 1.64454 1.97656-1.64453 1.51172-4.44141 2.76172-.15625.16406-4.28125 3.34375-3.39063 1.09766-1.04687 1.3711-3.375 3.0664 3.375 2.54297 4.4375-.41797v1.4414l-2.36328.8711 2.36328 3.69922L207.80078 396l-1.66406-.8711v-1.4414L210.5664 396l-2.17578 4.4375-2.25391 1.66406-4.4375-1.44922-.21094-.21484-4.22656-4.3125-3.24219 4.3125-.29297 4.4375 3.53516 1.3086v1.26171l-4.4414.67969-3.29298 1.1914-1.14453.67579-2.24219 3.76172 1.85157 4.4375.39062.32421.25781-.32421 4.1797-3.8086 1.55077-.6289 2.89063-1.20313 1.76562-3.23437-1.76562-1.8711v-1.26172l2.96484 3.13282-2.04297 4.4375-.92187.92187-4.4414 1.83985-1.83595 1.67578-2.60156 3.27734-3.97265-3.27734-.46485-.92579"/><path fill="#00c4fc" fill-rule="evenodd" d="M187.99219 418.1914l-1.85156-4.4375 2.24218-3.76171 1.14453-.67578 3.29297-1.19141 4.4414-.67969v1.26172l-1.76171.60938 1.76172 1.04687.57422-1.04687-.57422-.60938v-1.26172l1.76562 1.8711-1.76562 3.23437-2.89063 1.20313-1.55078.6289-4.17969 3.8086-.2578.32421-.39063-.32421"/><path fill="#00b8fc" fill-rule="evenodd" d="M197.26172 410.36328L195.5 409.31641l1.76172-.60938.57422.60938-.57422 1.04687"/><path fill="#00c4fc" fill-rule="evenodd" d="M201.69922 385.22656l-1.2461-2.54297 1.2461-1.08593 2.23828-3.35157 2.19922-2.44921v.84375l-1.4414 1.60546-2.79298 4.4375 4.23438.94922 1.21094-.94922 3.22656-3.3828 1.28906-1.0547-1.28906-1.08984-4.4375-.51563v-.84375l4.4375-.30468 3.25781 2.7539-3.25781 2.66407-1.6914 1.77343-2.7461 2.14454-4.4375.39843"/><path fill="#00b8fc" fill-rule="evenodd" d="M206.13672 383.63281l-4.23438-.94922 2.79297-4.4375 1.4414-1.60546v.83984l-.6875.76562.6875 3.60547 3.21485-3.60547-3.21484-.76562v-.83985l4.4375.51563 1.28906 1.08984-1.28906 1.0547-3.22656 3.3828-1.21094.94922"/><path fill="#00c4fc" fill-rule="evenodd" d="M206.13672 399.69922L203.77344 396l2.36328-.8711 1.66406.8711-1.66406 3.69922"/><path fill="#00a8fc" fill-rule="evenodd" d="M206.13672 381.85156l-.6875-3.60547.6875-.76562 3.21484.76562-3.21484 3.60547"/><path fill="#00d4fc" fill-rule="evenodd" d="M215.01563 389.47266l-3.2461-2.34766 3.2461-3.01172v1.84766l-1.25391 1.16406 1.2539.90625 4.4375-.4961 1.07422-.41015-1.07422-.33203-4.4375-.83203v-1.84766l4.4375 1.08594 4.4375 1.07031 4.4375-1.01953 1.94141 1.875-1.88281 4.4375-.0586.04688-.2539-.04688-4.1836-2.20313-4.4375.14844-4.4375-.03515"/><path fill="#fff" fill-opacity="0" fill-rule="evenodd" d="M213.47656 400.4375l-.28125 4.4375 1.82031 1.84375 4.4375-1.01172 2.98047-.83203 1.45703-.76172 4.4375-.51953 4.4375-.98047 1.51172-2.17578L236.5 396l-3.73438-4.26953-4.4375 3.4414-4.4375.20704-4.4375-1.1836-4.4375-1.30078L214.21484 396l-.73828 4.4375"/><path fill="#00c4fc" fill-rule="evenodd" d="M215.01563 388.03125l-1.25391-.90625 1.2539-1.16406 4.4375.83203 1.07422.33203-1.07422.41016-4.4375.49609"/><path fill="#00e8fc" fill-rule="evenodd" d="M219.45313 409.85938l-.87891-.54297.8789-.4922 4.4375-1.46483 4.4375 1.0078 1.52735.94923-1.52734 1.66406-4.4375 2.23437-4.4375-3.35546m17.7539-8.66016l-.3711-.76172.3711-.61328 4.4375-1.14063.96094 1.75391-.96094 1.02344-4.4375-.26172"/><path fill="#50fcfc" fill-rule="evenodd" d="M246.08203 376.65234l-3.875-2.84375 3.32813-4.4375.54687-.94921 4.4375-2.21485 4.4375-.66015 2.83203-.61329 1.60938-1.17578 1.28125 1.17578 3.15625.83985 3.74219 3.59765-3.7422 3.64454-.5.79296.5.73829 4.4375 1.46484v5.57812l-.5 1.09375.5.47266.42188-.47266-.42187-1.09375v-5.57812l1.51172-2.20313-.5625-4.4375 3.48828-3.82812 2.39062-.60938 2.05078-1.11328 4.4375-.70312v2.96484l-4.4375.28906-4.4414 2.23047-.69922.76953.16797 4.4375.05078 4.4375-1.52735 4.4375-2.42968 2.71875-2.88281-2.71875 1.70703-4.4375-3.26172-1.84375-1.7461-2.59375 1.7461-2.77734 1.70312-1.66016-1.70312-1.64062-4.4375-.625-4.4414.45312-4.4375.56641-1.85157 1.2461-2.07422 4.4375 3.92578 2.01952 3.8086 2.41797-3.8086 1.9961-2.32422 2.4414 2.32422 2 3.64453 2.44141.79297.8711 4.4414 1.10937 2.48048-1.98047 1.95703-2.40234 2.22265 2.40234 2.21485 2.8789 4.4375-.46093 3.97265-2.41797-1.84765-4.4414-1.66016-4.4375 3.97656-.84376 4.4375-.95312 4.4375-.28906 4.12891-2.35157.3086-.46875 4.4375-1.49609 1.32421-2.47266-1.32422-1.27343-4.4375-.16016-4.4375-.27344-4.4375-1.58203v-2.96484l1.70313 1.8164L286.02734 366l4.4375.07813 4.4375.03515 3.37891 3.25781-1.40234 4.4375-1.97657 2.98047-4.4375-.07812-4.4375 1.3789-.8789.15625-3.5586 1.47657-4.4375 2.40625-.1914.55468.1914.46485 2.3711 3.97656-2.3711 2.48047-4.4414 1.15234-2.35156.80469-2.08594 2.08203-4.4375.08203-3.2461-2.16406-1.1914-.42969-4.4414-.42578-3.25782-3.58203-1.17969-.79297-4.2461-3.64844 4.14845-4.4375-4.33985-1.59375"/><path fill="#00e8fc" fill-rule="evenodd" d="M250.51953 375.82813l-3.92578-2.01954 2.07422-4.4375 1.85156-1.24609 4.4375-.5664v12.73437l-3.51953 2.39062 3.51953 2.51563 1.96484-2.51563-1.96484-2.39062v-12.73438l4.4414-.45312v5.02344l-4.29296 1.67968 4.29297.57813v1.96094l-4.03125 1.89843 3.41797 4.4375.61328 1.60157 2.02734-1.60157.71485-4.4375-2.7422-1.89843v-1.96094l.60938-.57813-.60937-1.67968v-5.02344l4.4375.625 1.70312 1.64062-1.70312 1.66016-1.7461 2.77734 1.7461 2.59375 3.26172 1.84375-1.70704 4.4375 2.88282 2.71875 2.42969-2.71875 1.52734-4.4375-.05078-4.4375-.16797-4.4375.69922-.76953v17.0625l-1.1836 1.46094 1.1836.39453.65234-.39453-.65234-1.46094v-17.0625l4.4414-2.23047v2.89454l-.18359.10546.1836 2.25 4.4375-1.95312.3164-.29688-.3164-.09375-4.4375-.01171v-2.89454l4.4375-.28906 4.4375 1.58203 4.4375.27344 4.4375.16016 1.32421 1.27343-1.32422 2.47266-4.4375 1.4961-.30859.46874-4.1289 2.35157-4.4375.28906-4.4375.95312-3.97657.84375 1.66016 4.4375 1.84765 4.44141-3.97265 2.41797-4.4375.46094-2.21485-2.87891-2.22265-2.40234-1.95703 2.40234-2.48047 1.98047-4.4414-1.10938-.79298-.87109-3.64453-2.4414-2.32422-2 2.32422-2.44141 3.8086-1.9961-3.8086-2.41796"/><path fill="#00d4fc" fill-rule="evenodd" d="M254.95703 385.19922l-3.51953-2.51563 3.51953-2.39062v2.26562l-.1836.125.1836.13282.10547-.13282-.10547-.125v-2.26562l1.96484 2.39062-1.96484 2.51563"/><path fill="#00c4fc" fill-rule="evenodd" d="M254.95703 382.8164l-.1836-.1328.1836-.125.10547.125-.10547.1328"/><path fill="#00d4fc" fill-rule="evenodd" d="M259.39844 374.38672l-4.29297-.57813 4.29297-1.67968.60937 1.67968-.60937.57813"/><path fill="#50fcfc" fill-rule="evenodd" d="M259.39844 376.34766l-4.03125 1.89843 3.41797 4.4375.61328 1.60157 2.02734-1.60157.71485-4.4375-2.7422-1.89843v1.17968l1.03907.71875-1.03906 2.5547-1.52735-2.5547 1.52735-.71875v-1.17968"/><path fill="#fff" fill-opacity="0" fill-rule="evenodd" d="M259.39844 377.52734l-1.52735.71875 1.52735 2.5547 1.03906-2.5547-1.03906-.71875m8.875 4.0625l-.5 1.09375.5.47266.42187-.47266-.42187-1.09375"/><path fill="#00d4fc" fill-rule="evenodd" d="M272.71094 387.51953l-1.1836-.39453 1.1836-1.46094.65234 1.46094-.65234.39453m4.4414-15.89844l-.18359-2.25.1836-.10546 4.4375.01171.3164.09375-.3164.29688-4.4375 1.95312"/><path fill="#50fcfc" fill-rule="evenodd" d="M334.84766 395.1914l-2.32813-3.6289 2.32813-3.85547.55078-.58203 3.89062-2.23438 4.4375-.01953 1.26953 2.25391-1.26953 2.36328-1.11719 2.07422 1.1172 2.29297L345.21093 396l2.95312 4.16797 4.4375-2.66797 4.3164 2.9375-4.3164 2.46875-4.4375-2.14844-4.4375-.21094-4.4375 1.82813-4.4414-1.66016-.46485-.27734.46485-1.1289 1.2578-3.3086-1.2578-.8086m4.4414-26.93359l-3.29687-3.32422 3.29687-2.6914v2.63281l-.07031.0586.07031.0664.17188-.0664-.17188-.0586v-2.63281l4.4375.28515 1.8789 2.40625-1.8789 2.86329-4.4375.46093m0 11.01563l-1.375-1.02735 1.375-2.47656 4.4375-1.94922v2.91406L342 378.2461l1.72656 1.29688 1.0625-1.29688-1.0625-1.51171v-2.91407l3.10938 4.42578-3.10938 3.79688-4.4375-2.76953"/><path fill="#00e8fc" fill-rule="evenodd" d="M339.28906 365l-.07031-.0664.07031-.0586.17188.0586-.17188.0664m4.4375 14.54297L342 378.24609l1.72656-1.51171 1.0625 1.51171-1.0625 1.29688"/><path fill="#50fcfc" fill-rule="evenodd" d="M348.16406 456.04297l-2.91015-2.34375 2.91015-2.3125 4.4375 1.11328 4.4414-2.53516.28517-.70312 4.15234-4.16016.1875-.28125 4.25-3.65234.71875-.78516 3.71875-4.21875v1.41406l-2.47266 2.8047-1.96484 2.14452-2.66797 2.29297-1.76953 2.64844-1.78906 1.79297-.6836 4.4375-1.96484 1.67578-3.03906 2.76172 2.98828 4.4375.05078.03515 4.4375 2.95313 4.4375 1.1836.72656.26952 3.71094 1.07422 4.4375-.11328 3.16797-.96094 1.27344-.30859 2.71093-4.13281.36328-4.4375 1.36329-1.35547 3.16406-3.08203-3.16406-3.25-1.53516-1.1875-1.36328-4.4414-1.53906-.9297-4.44141-2.96484-1.70703-.54297-2.73047-2.80469v-1.41406l4.10547 4.21875.33203.10547 4.4414 1.2539 4.4375 2.08594 1.33204.9922-1.33204 3.19921-.10546 1.24219.10546.07812 4.2461 4.35938-4.2461 4.13281-.30468.30469-.15625 4.4375-1.3125 4.4414-2.66406 3-4.44141.39063-4.4375.33984-4.4375-.57812-4.4375-.6914-3.90235-2.46094-.53515-.26954-4.4414-1.59375-1.71485-2.57812-1.21485-4.4375-1.5078-2.09375"/><g clip-path="url(#c)"><path fill="#50fcfc" fill-rule="evenodd" d="M348.79297 311.67188h-1.1914l.5625.5664.6289-.5664"/></g><path fill="#50fcfc" fill-rule="evenodd" d="M352.60156 394.7539l-1.80469-3.1914 1.8047-1.83594 1.96484 1.83594-1.96485 3.1914m0-56.35156l-.17187-.10156.17187-.08594.20313.08594-.20313.10156"/><path fill="#00e8fc" fill-rule="evenodd" d="M356.99219 462.57422l-2.98828-4.4375 3.03906-2.76172 1.96484-1.67578.6836-4.4375 1.78906-1.79297 1.76953-2.64844 2.66797-2.29297 1.96484-2.14453 2.47266-2.80469v2.35547l-.39453.44922-4.04297 4.41406-.03125.02344-.3789 4.4414.41015.34376 2.82812 4.09375 1.60938 2.85937 4.4375.41407.70312 1.16406 2.14063 4.4375 1.59765.92187.60547-.92187.70313-4.4375 3.1289-3.11328 1.36329-1.32422-1.36329-1.39844-3.91796-3.03906-.51954-1.01563-.64843-3.42578-3.79297-3.16406-4-1.27344-.4375-.44922v-2.35546l2.73047 2.80468 1.70703.54297 4.4414 2.96485 1.53907.92968 1.36328 4.4414 1.53515 1.1875 3.16407 3.25-3.16406 3.08204-1.36329 1.35547-.36328 4.4375-2.71094 4.13281-1.27343.3086-3.16797.96093-4.4375.11328-3.71094-1.07421-.72656-.26954-4.4375-1.18359-4.4375-2.95313-.05078-.03515"/><path fill="#50fcfc" fill-rule="evenodd" d="M355.21094 422.6289l-.95313-4.4375 2.78516-3.01562v2.79688l-.20313.21875.20313.53906.85937 3.89844 3.57813 3.10156 2.66015-3.10156-2.66015-4.3711-1.39453-.0664-3.04297-.21875v-2.79688l3.4414-1.42187.9961-.92188.9414.92188 1.875 4.4375.97266 4.4375-3.78906 4.41796-.08985.02344-4.34765 4.20703-2.53125-4.20703.69922-4.4414"/><path fill="#00e8fc" fill-rule="evenodd" d="M357.04297 418.73047l-.20313-.53906.20313-.21875 3.04297.21875 1.39453.0664v3.09766l-1.04297 1.27344 1.04297.90625.77344-.90625-.77344-1.27344v-3.09766l2.66015 4.3711-2.66015 3.10156-3.57813-3.10156-.85937-3.89844"/><path fill="#00d4fc" fill-rule="evenodd" d="M361.48047 423.53516l-1.04297-.90625 1.04297-1.27344.77344 1.27344-.77344.90625m4.4375 26.0703l-.41016-.34374.3789-4.4414.03126-.02344 4.04297-4.41407.39453-.44922.4375.44922 4 1.27344v.72656l-4.4375.89063L369 444.8203l-.7461 4.4414 2.10157 2.5586 1.02344-2.5586 3.41406-2.04296v.71875l-2.21485 1.32422 2.21485 3.66015 3.96875-3.66015-3.96875-1.32422v-.71875l2.92187-2.39844-2.92187-2.4375v-.72656l3.79297 3.16406.64844 3.42578v3.72657l-1.9961 1.72656 1.9961 2.92187 2.97265-2.92187-2.97265-1.72656v-3.72657l.51953 1.01563 3.91796 3.03906 1.36329 1.39844-1.36329 1.32422-3.1289 3.11328-.70313 4.4375-.60546.92187-1.59766-.92187-2.14063-4.4375-.70312-1.16406-4.4375-.41407-1.60938-2.85937-2.82812-4.09375"/><path fill="#50fcfc" fill-rule="evenodd" d="M370.35547 397.59766L367.73437 396l.52344-4.4375 2.09766-2.09375 3.84375 2.09375.59375 1.0625 1.98828 3.375-1.98828 1.98047-4.4375-.38281"/><path fill="#00c4fc" fill-rule="evenodd" d="M370.35547 451.82031l-2.10156-2.5586.74609-4.4414 1.35547-1.54687 4.4375-.89063v.73047l-3.57422 1.70703 3.57422 1.6836 2.05078-1.6836-2.05078-1.70703v-.73047l2.92187 2.4375-2.92187 2.39844-3.41406 2.04297-1.02344 2.5586"/><path fill="#50fcfc" fill-rule="evenodd" d="M374.79297 421.60547l-3.98047-3.41406 3.98047-3.04297v2.25l-1.03516.79297 1.03516.88671 2.14453-.88671-2.14453-.79297v-2.25l4.4414-.27735 4.4375.15625.60938-1.27343-.60938-.58985-4.4375-1.78125-1.91796-2.0664 1.84765-4.44141.07031-.0664 4.4375-1.53907 4.4375-1.98828v3.57813l-.03125.01562-4.40625 2.69922-1.59765 1.74219 1.59765 1.21093 3.33204 3.22657 1.10546 2.7539v3.17578l-1.39843 2.94532.6289 4.4414.28907 4.4375.48046.47266 4.4375 3.42969 1.98438.53515 2.45313 1.05078 4.4414.72657 2.1211-1.77735 1.78906-4.4375.52734-.57812 4.4375-2.36328 1.22266-1.4961 3.21484-3.61328 1.0039-.82812-1.0039-.625-4.4375-1.60547-4.4375.63281-4.4375 1.10547-.52734.49219-3.91406 1.79296-4.4375.66407-3.41407-2.45703-1.02344-2.94532v-3.17578l1.26563-2.7539-1.26563-3.64454-.71484-.79296.71485-4.1836.03515-.25781-.03515-.01563v-3.57812l2.7539-.84375 1.6836-.82031 1.08203.82031.4453 4.4375-.80858 4.4414-.71875 3.89454-.04688.54297-1.59766 4.4375.32032 4.4375 1.32421.95312 4.4375-.32812 1.35938-.625 3.08203-2.875 4.4375-.4297 4.4375-.25 4.4375.63282 4.4414 2.5586 4.4375-2.79688v1.91797l-1.80859 1.24219 1.8086 1.91796 2.84765 2.52344 1.58985 1.5 1.0039-1.5.11329-4.4414-1.1172-.71875-4.4375-.52344v-1.91797l4.4375.20313 4.4375 2.6875.27344.26953-.27343.29296-1.3125 4.14844 1.3125 1.97656 2.41797 2.46094.02343 4.4375-2.4414 3.63672-2.53125-3.63672-1.90625-3.94922-.4375-.48828-4-3.61328-.89063-.82422-3.54687-4.04297-4.4414 3.44922-.52735.59375-3.19922 4.4375-.71094.75781-4.4375 2.8047-.32422.875-4.11328 3.4453-4.4414-.30078-4.4375-.67968-4.17188-2.46485-.26563-.14453-.21484.14453-4.22265 2.375-2.57032-2.375 2.57031-4.28906.09766-.14844-.09765-.71484-.7461-3.72266.7461-2.98047.1875-1.46093-.1875-.46875-4.4375-1.8086-4.44141 1.2539"/><path fill="#00b8fc" fill-rule="evenodd" d="M374.79297 446.5039l-3.57422-1.68359 3.57422-1.70703v.72656l-2.05078.98047 2.05078.96485 1.17578-.96485-1.17578-.98047v-.72656l2.05078 1.70703-2.05078 1.6836"/><path fill="#00e8fc" fill-rule="evenodd" d="M374.79297 447.9375l-2.21485 1.32422 2.21485 3.66015 3.96875-3.66015-3.96875-1.32422v.71484l1.82422.60938-1.82422 1.67969-1.01563-1.6797 1.01563-.60937v-.71484"/><path fill="#00a8fc" fill-rule="evenodd" d="M374.79297 445.78516l-2.05078-.96485 2.05078-.98047v.73047l-.52735.25.52735.25.30469-.25-.3047-.25v-.73047l1.17579.98047-1.17578.96485"/><path fill="#00e8fc" fill-rule="evenodd" d="M374.79297 419.07813l-1.03516-.88672 1.03516-.79297 2.14453.79297-2.14453.88671"/><path fill="#50fcfc" fill-rule="evenodd" d="M374.79297 448.65234l-1.01563.60938 1.01563 1.67969 1.82422-1.6797-1.82422-.60937v.4297l.53515.17968-.53515.49219-.29688-.4922.29688-.17968v-.42969"/><path fill="#009800" fill-rule="evenodd" d="M374.79297 445.07031l-.52735-.25.52735-.25.30469.25-.3047.25"/><path fill="#fff" fill-opacity="0" fill-rule="evenodd" d="M374.79297 449.08203l-.29688.17969.29688.49219.53515-.4922-.53515-.17968"/><path fill="#00c4fc" fill-rule="evenodd" d="M379.23438 456.6211l-1.9961-2.92188 1.9961-1.72656 2.97265 1.72656-2.97265 2.92187"/><path fill="#00e8fc" fill-rule="evenodd" d="M383.67188 410.52734l-1.59766-1.21093 1.59765-1.7422 4.40625-2.69921.03125-.01563.03516.01563-.03515.25781-.71485 4.1836.71485.79296 1.26562 3.64454-1.26563 2.7539-1.10546-2.7539-3.33204-3.22657m3.66797 16.54297l-.6289-4.4414 1.39844-2.94532 1.02343 2.94532 3.41406 2.45703 4.4375-.66406 3.91407-1.79297.52734-.4922 4.4375-1.10546 4.4375-.63281v2.20703l-.10156.02344-4.33594 2.3828-4.4375-.7539-4.4414 2.10938-2.8125.70312-1.625.9336-2.01954 3.5039 2.01954 1.70313 4.4375 1.45703 4.4414-.51172 1.36328-2.64844 3.07422-3.3789 1.51953-1.0586 2.91797-4.3789.05469-.0625-.05469-.02344v-2.20703l4.4375 1.60547 1.0039.625-1.0039.82812-3.21484 3.61328-1.22266 1.4961-4.4375 2.36328-.52734.57812-1.78906 4.4375-2.1211 1.77735-4.4414-.72657-2.45313-1.05078-1.98438-.53515-4.4375-3.4297-.48046-.47265-.28907-4.4375"/><path fill="#00d4fc" fill-rule="evenodd" d="M392.54688 433.21094l-2.01954-1.70313 2.01954-3.5039 1.625-.9336 2.8125-.70312 4.4414-2.10938v1.85938l-1.97265.95312-2.46875 2.07031-3.39063 2.3672 3.39063 1.33202 2.71484-1.33203 1.72656-2.11328 2.0039-2.32422-2.0039-.95312v-1.85938l4.4375.7539 4.33594-2.3828.10156-.02344.05469.02344-.05469.0625-2.91797 4.3789-1.51953 1.0586-3.07422 3.3789-1.36328 2.64844-4.4414.51172-4.4375-1.45703"/><path fill="#00c4fc" fill-rule="evenodd" d="M396.98438 432.83984l-3.39063-1.33203 3.39063-2.36719 2.46875-2.0703 1.97265-.95313 2.0039.95312-2.0039 2.32422-1.72656 2.11328-2.71485 1.33203"/><path fill="#50fcfc" fill-rule="evenodd" d="M410.30078 463.20703l-.61719-.63281.6172-1.32813 1.04296-3.10937 2.57813-4.4375.8164-1.83203.38672-2.60547.92969-4.4414 3.125-3.23048v2.15625l-1.03906 1.07422-1.16407 4.4414.28516 4.4375 1.91797 3.21095 2.52344 1.22656 1.91406.44922.46484-.44922 3.97266-4.05078.40234-.38672-.40234-1.25781-1.13672 1.2578-3.30078 3.1211-1.8125-3.1211 1.59375-4.4375-3.16797-4.4414-1.05078-1.07422v-2.15625l3.16406 3.23047 1.27344 1.73438 1.33203-1.73438 3.10547-3.0586v2.1836l-.88672.875.88672 2.2539 1.42578-2.2539-1.42578-.875v-2.1836l4.4375.95313.83594 2.10547-.83594 1.0625-1.98047 3.3789.5625 4.4375-3.01953 2.91407-1.4961 1.52344-2.9414 2.84375-4.4375-.40625-4.4414.1875-3.73048 1.8125-.70703.63281"/><path fill="#00e8fc" fill-rule="evenodd" d="M417.26172 453.69922l-.28516-4.4375 1.16406-4.4414 1.03907-1.07423 1.05078 1.07422 3.16797 4.4414-1.59375 4.4375 1.8125 3.1211 3.30078-3.1211 1.13672-1.2578.40234 1.2578-.40234.38673-3.97266 4.05078-.46484.44922-1.91406-.44922-2.52344-1.22656-1.91797-3.21094m6.35547-29.15235l-1.8086-1.91796 1.8086-1.2422 4.4375.52345 1.11719.71875-.11329 4.4414-1.0039 1.5-1.58985-1.5-2.84765-2.52344m4.4375 22.52735l-.88672-2.2539.88672-.875 1.42578.875-1.42578 2.2539"/><g clip-path="url(#d)"><path fill="#fff" fill-opacity="0" fill-rule="evenodd" d="M467.9961 480.32813H468V311.67188h-.0039H468v168.65625h-.0039"/></g><path fill="#fff" fill-opacity="0" fill-rule="evenodd" d="M232.6836 399.51172l5.67577 1.36719 2.33594-9.6797-5.67969-1.37108-2.33203 9.68359"/><path fill-rule="evenodd" d="M237.98828 392.42969l.4961.1211-1.47657 6.11718-.76562-.1836 1.05469-4.36328-1.35157-.32812.13281-.53906.5586.0703.25781.00392.24219-.03125.23047-.08985.21875-.16406.20703-.2539.19531-.35938"/><path fill="#fff" fill-opacity="0" fill-rule="evenodd" d="M402.83203 424.64453l5.82422-.44531-.76172-9.9336-5.82422.44922.76172 9.9297"/><path fill-rule="evenodd" d="M405.69922 416.27344l.50781-.03906.48047 6.27734-.78516.0586-.34375-4.47657-1.3828.10938-.04298-.5547.55469-.10937.2461-.07422.22265-.10546.1914-.15625.15626-.22266.11718-.30469.07813-.40234"/><path fill="#fff" fill-opacity="0" fill-rule="evenodd" d="M287.78516 382.21484l5.78515-.82421-1.40625-9.85938-5.78515.82422 1.40625 9.85937"/><path fill-rule="evenodd" d="M290.10156 373.67578l.5039-.07031.89063 6.23047-.77734.10937-.63672-4.44531-1.375.19922-.07812-.55078.54687-.14453.24219-.08985.21484-.1211.17969-.16796.14453-.23047.09766-.3125.04687-.40625"/><path fill="#fff" fill-opacity="0" fill-rule="evenodd" d="M203 407.98047l7.82422-1.26563-1.6211-10.05859-7.82421 1.26172L203 407.98047"/><path fill-rule="evenodd" d="M204.1211 399.33203l3.24218-.52344.11719.73047-2.60156.42188.05859 1.8164.19531-.1953.2461-.17579.30468-.13672.375-.09375.32422-.02734.34766.03125.35156.09375.34375.16015.3125.2422.14453.15624.1289.17578.11329.19922.10156.22656.07813.25.0586.27735.03515.4414-.03516.4297-.10937.40624-.1836.375-.25781.32813-.15625.14062-.17578.1289-.19922.11329-.21484.09375-.23438.07422-.25781.05469-.46484.03906-.41016-.03906-.35547-.10547-.30469-.16797-.26172-.22266-.21875-.26953-.17578-.30469-.14453-.33594.77734-.125.1172.21485.1328.1914.15235.16016.16797.1289.1836.09376.19921.0586.21875.02343.23047-.01953.3086-.07422.26562-.11328.22265-.15625.17578-.19922.13282-.23828.07812-.27735.02344-.3203-.03125-.35548-.0625-.25781-.10156-.25-.14063-.23047-.17969-.19922-.22265-.16015-.26172-.11329-.30078-.05078-.33984.01954-.32813.08984-.25781.15234-.23828.22656-.26563.31641-.6875.10938-.08594-3.45313"/><g clip-path="url(#e)"><path fill="none" stroke="#000" stroke-linecap="round" stroke-linejoin="round" stroke-miterlimit="10" stroke-width=".5" d="M146.28125 483l-4.5625-5.34375"/></g><g clip-path="url(#f)"><path fill="none" stroke="#000" stroke-linecap="round" stroke-linejoin="round" stroke-miterlimit="10" stroke-width=".5" d="M159.625 482.97656l-4.6211-5.29297"/></g><g clip-path="url(#g)"><path fill="none" stroke="#000" stroke-linecap="round" stroke-linejoin="round" stroke-miterlimit="10" stroke-width=".5" d="M172.64844 483.20703l-4.03516-5.7539"/></g><g clip-path="url(#h)"><path fill="none" stroke="#000" stroke-linecap="round" stroke-linejoin="round" stroke-miterlimit="10" stroke-width=".5" d="M186.07422 483.125l-4.25781-5.58984"/></g><g clip-path="url(#i)"><path fill="none" stroke="#000" stroke-linecap="round" stroke-linejoin="round" stroke-miterlimit="10" stroke-width=".5" d="M199.53906 483.0039l-4.5586-5.34765"/></g><g clip-path="url(#j)"><path fill="none" stroke="#000" stroke-linecap="round" stroke-linejoin="round" stroke-miterlimit="10" stroke-width=".5" d="M212.88281 482.98047l-4.61328-5.30078"/></g><g clip-path="url(#k)"><path fill="none" stroke="#000" stroke-linecap="round" stroke-linejoin="round" stroke-miterlimit="10" stroke-width=".5" d="M226.53516 482.64063l-5.29297-4.6211"/></g><g clip-path="url(#l)"><path fill="none" stroke="#000" stroke-linecap="round" stroke-linejoin="round" stroke-miterlimit="10" stroke-width=".5" d="M240.4336 481.71484l-6.45704-2.77343"/></g><g clip-path="url(#m)"><path fill="none" stroke="#000" stroke-linecap="round" stroke-linejoin="round" stroke-miterlimit="10" stroke-width=".5" d="M253.58203 482.05078l-6.125-3.4414"/></g><g clip-path="url(#n)"><path fill="none" stroke="#000" stroke-linecap="round" stroke-linejoin="round" stroke-miterlimit="10" stroke-width=".5" d="M266.61719 482.47656l-5.5625-4.29297"/></g><g clip-path="url(#o)"><path fill="none" stroke="#000" stroke-linecap="round" stroke-linejoin="round" stroke-miterlimit="10" stroke-width=".5" d="M279.94922 482.45313l-5.59766-4.25"/></g><g clip-path="url(#p)"><path fill="none" stroke="#000" stroke-linecap="round" stroke-linejoin="round" stroke-miterlimit="10" stroke-width=".5" d="M293.23438 482.4961l-5.53516-4.33204"/></g><g clip-path="url(#q)"><path fill="none" stroke="#000" stroke-linecap="round" stroke-linejoin="round" stroke-miterlimit="10" stroke-width=".5" d="M306.8164 482.09766l-6.0703-3.53516"/></g><g clip-path="url(#r)"><path fill="none" stroke="#000" stroke-linecap="round" stroke-linejoin="round" stroke-miterlimit="10" stroke-width=".5" d="M320.00781 482.29688l-5.82422-3.9375"/></g><g clip-path="url(#s)"><path fill="none" stroke="#000" stroke-linecap="round" stroke-linejoin="round" stroke-miterlimit="10" stroke-width=".5" d="M333.24219 482.41016l-5.66016-4.16407"/></g><g clip-path="url(#t)"><path fill="none" stroke="#000" stroke-linecap="round" stroke-linejoin="round" stroke-miterlimit="10" stroke-width=".5" d="M344.55469 483.74219l-1.65625-6.82813"/></g><g clip-path="url(#u)"><path fill="none" stroke="#000" stroke-linecap="round" stroke-linejoin="round" stroke-miterlimit="10" stroke-width=".5" d="M355.76563 483.60156l2.55078-6.54687"/></g><g clip-path="url(#v)"><path fill="none" stroke="#000" stroke-linecap="round" stroke-linejoin="round" stroke-miterlimit="10" stroke-width=".5" d="M366.89453 480.9414l6.92188-1.22265"/></g><g clip-path="url(#w)"><path fill="none" stroke="#000" stroke-linecap="round" stroke-linejoin="round" stroke-miterlimit="10" stroke-width=".5" d="M380.71875 478.42578l5.90625 3.80469"/></g><path fill="none" stroke="#000" stroke-linecap="round" stroke-linejoin="round" stroke-miterlimit="10" stroke-width=".5" d="M381.57813 478.98047l.10156-1.22266"/><g clip-path="url(#x)"><path fill="none" stroke="#000" stroke-linecap="round" stroke-linejoin="round" stroke-miterlimit="10" stroke-width=".5" d="M393.48828 480.64063l6.9961-.625"/></g><g clip-path="url(#y)"><path fill="none" stroke="#000" stroke-linecap="round" stroke-linejoin="round" stroke-miterlimit="10" stroke-width=".5" d="M394.5039 480.55078l-.66796-1.02734"/></g><g clip-path="url(#z)"><path fill="none" stroke="#000" stroke-linecap="round" stroke-linejoin="round" stroke-miterlimit="10" stroke-width=".5" d="M406.89844 481.20313l6.80469-1.7461"/></g><g clip-path="url(#A)"><path fill="none" stroke="#000" stroke-linecap="round" stroke-linejoin="round" stroke-miterlimit="10" stroke-width=".5" d="M406.89844 481.20313l-1.65625-1.8125"/></g><g clip-path="url(#B)"><path fill="none" stroke="#000" stroke-linecap="round" stroke-linejoin="round" stroke-miterlimit="10" stroke-width=".5" d="M420.34766 481.61719l6.53906-2.57422"/></g><g clip-path="url(#C)"><path fill="none" stroke="#000" stroke-linecap="round" stroke-linejoin="round" stroke-miterlimit="10" stroke-width=".5" d="M420.34766 481.61719l-1.8672-1.59766"/></g><g clip-path="url(#D)"><path fill="none" stroke="#000" stroke-linecap="round" stroke-linejoin="round" stroke-miterlimit="10" stroke-width=".5" d="M433.78906 481.89844l6.28516-3.14063"/></g><g clip-path="url(#E)"><path fill="none" stroke="#000" stroke-linecap="round" stroke-linejoin="round" stroke-miterlimit="10" stroke-width=".5" d="M433.78906 481.89844l-2-1.42188"/></g><g clip-path="url(#F)"><path fill="none" stroke="#000" stroke-linecap="round" stroke-linejoin="round" stroke-miterlimit="10" stroke-width=".5" d="M447.10938 481.91016l6.27734-3.16016"/></g><g clip-path="url(#G)"><path fill="none" stroke="#000" stroke-linecap="round" stroke-linejoin="round" stroke-miterlimit="10" stroke-width=".5" d="M448.01953 481.44922l-1-.71094"/></g><g clip-path="url(#H)"><path fill="none" stroke="#000" stroke-linecap="round" stroke-linejoin="round" stroke-miterlimit="10" stroke-width=".5" d="M461.11719 482.85547l4.88672-5.05078"/></g><g clip-path="url(#I)"><path fill="none" stroke="#000" stroke-linecap="round" stroke-linejoin="round" stroke-miterlimit="10" stroke-width=".5" d="M145.60547 470.14063l-3.21094-6.25391"/></g><path fill="none" stroke="#000" stroke-linecap="round" stroke-linejoin="round" stroke-miterlimit="10" stroke-width=".5" d="M145.13672 469.23047l-.69922 1.00781m15.17188-.5664l-4.58985-5.31641m3.92188 4.54297l-.44141 1.14453m13.96484-.03125l-3.66797-5.9961m3.13282 5.125l-.625 1.0547m14.7539-.375l-4.22656-5.61329m3.60938 4.79688l-.51953 1.11328m14.125-.07813l-3.57032-6.05078m3.05078 5.17188l-.64062 1.04687m14.5586-.21875l-3.73829-5.94922m3.19531 5.08594l-.61328 1.0625m14.8789-.5l-4.55858-5.34766m3.89843 4.57032l-.45312 1.14062m15.11719-4.92187l-5.9336 3.76953m19.2539-3.76172l-5.9414 3.7539m19.51172-3.26562l-6.45313 2.77734m5.51563-2.375l.95703.76954m13.28125 1.63671l-6.42578-2.83984m5.49219 2.42578l.08984 1.22656m14.05469-.59375l-6.21484-3.27734m5.30859 2.80078l.0039 1.22656m14.60547-2.05078l-6.99218-.67578m5.97656.57813l.46875 1.1328m12.63672 1.3086l-4.54297-5.36328m3.88281 4.58203l-.45703 1.14063m10-.26953l4.32031-5.54297m7.64844 2.9961l7.01563-.44923m-5.9961.38282l-.64062-1.04297m13.15625 2.125l6.57422-2.48047m-5.6172 2.1211l-.92187-.8125m13.0625-.29688l7.01172.45703m-5.99219-.39063l-.5039-1.1211m12.88672.46876l6.83593 1.6289M381.25 466.4375l-.3125-1.1875m12.84766.3125l6.40234 2.90234m-6.40234-2.90234l-.15235-2.44922M406.78906 467l7.02735.02734M406.78906 467l-1.14453-2.17187m14.5664 3.05468l6.8086-1.73828m-6.8086 1.73828l-1.65234-1.8164m15.02735 2.01562l6.6914-2.13672m-6.6914 2.13672l-1.75781-1.71484m14.98046 1.36328l6.87891-1.4336m-5.8789 1.22657l-.78516-.94531m13.8164 2.65625l5.44532-4.44141m-5.44532 4.4414l-2.26171-.94921"/><g clip-path="url(#J)"><path fill="none" stroke="#000" stroke-linecap="round" stroke-linejoin="round" stroke-miterlimit="10" stroke-width=".5" d="M145.09766 457.03516l-2.19532-6.67578"/></g><g clip-path="url(#K)"><path fill="none" stroke="#000" stroke-linecap="round" stroke-linejoin="round" stroke-miterlimit="10" stroke-width=".5" d="M144.77734 456.0664l-.84765.88282"/></g><path fill="none" stroke="#000" stroke-linecap="round" stroke-linejoin="round" stroke-miterlimit="10" stroke-width=".5" d="M159.39063 456.53516l-4.14844-5.67188m3.54297 4.84766l-.53516 1.10156m14.16016-.08594l-3.5586-6.0586m16.3086 6.32813l-2.4297-6.59375m2.07813 5.63282l-.8203.91406m11.89452-.01953l2.7539-6.46485m11.09376 6.64454l1.6875-6.82032m13.90625.20313l-2.86719 6.41406m14.11719-6.66406l1.26172 6.91406m-1.07813-5.91016l.96485-.7578m10.83203.30077l3.9336 5.82032m-3.36329-4.97657l.57422-1.08203m11.91797.42188l4.4375 5.44922m-3.79297-4.65625l.47656-1.12891m13.53125-.33985l1.76172 6.80079m-1.50781-5.8086l.90625-.83203m13-.27344l.07422 7.02735m-.06641-6.0039l1.07813-.58595m11.85156-.41015l.82812 6.97656m-.82812-6.97656l2.01562-1.40235m11.14844 1.42188l1.1289 6.9375m-.96484-5.92969l.97656-.74219m9.53125 1.76563l6.41407 2.875m-5.48047-2.45703l-.08203-1.22266m12.50781.71094l6.32422 3.0625m-5.40235-2.61719l-.04687-1.22656m12.1289 1.78906l6.94923 1.04297m-5.9375-.89063l-.41016-1.15625m12.72656.9297l6.92578 1.1953m-5.91797-1.02343l-.3828-1.16406m13.01171.01171l6.27734 3.15625m-6.27734-3.15625l-.05469-2.45312m13.33203 2.52734l6.35547 3.00781m-6.35547-3.0078l-.11328-2.44923m1.03906 2.88672l-.05859-1.22656m12.1211 2.03125l7.0078.52344m-7.0078-.52344l-.98829-2.2461m14.375 3.25l6.8672-1.48828m-6.8672 1.48829l-1.58593-1.8711m14.91406 1.9336l6.83984-1.60938m-6.83984 1.60938l-1.61719-1.84766m14.85938 1.42187l6.98437-.7578m-6.98437.7578l-1.37891-2.03125m15.42188 3.82032l5.52734-4.33594m-5.52735 4.33594l-2.24218-.99219"/><g clip-path="url(#L)"><path fill="none" stroke="#000" stroke-linecap="round" stroke-linejoin="round" stroke-miterlimit="10" stroke-width=".5" d="M143.85156 443.89453l.29688-7.01953"/></g><g clip-path="url(#M)"><path fill="none" stroke="#000" stroke-linecap="round" stroke-linejoin="round" stroke-miterlimit="10" stroke-width=".5" d="M143.89453 442.8711l-1.10937.53124"/></g><path fill="none" stroke="#000" stroke-linecap="round" stroke-linejoin="round" stroke-miterlimit="10" stroke-width=".5" d="M158.5586 443.66797l-2.48829-6.57031m2.1289 5.61718l-.80858.92188m13.71875-6.73438l-.96094 6.96094m17.28906-3.85937l-6.98438.7578m5.96875-.64452l.6875 1.01172m13.65625-.52344l-7.01171-.4414m19.70703-1.78516l-5.77344 4.0078m17.11328-5.39452l-1.82031 6.78515m1.55469-5.80078l1.1953-.27344m10.75392-.7578l1.4414 6.8789m-1.23047-5.8789l.9414-.78516m11.21876.1289l3.33203 6.1875m-2.84766-5.28515l.6797-1.02344m12.9375-.1875l1.7578 6.80469m-1.5-5.8125l.90235-.82813m12.76172-.26562l.54297 7.0078m-.46485-5.98827l1.03906-.65625m12.07422-.35157l.79297 6.98438m-.79297-6.98438l2.01953-1.38671m11.1875 1.40234l1.00782 6.95312m-1.00782-6.95312l1.98047-1.44922m11.39063 1.4414l.89453 6.96876m-.89453-6.96875l2.0039-1.41797m11.04297 1.46484l1.4336 6.8789m-1.4336-6.8789l1.88282-1.57031m9.6289 2.5586l5.03516 4.90234m-4.30078-4.1914l.34375-1.17579m12.95703-.10547l3.59765 6.03906m-3.07421-5.16015l.63671-1.04688m10.94922 1.36719l6.00782 3.64453m-5.13282-3.11719l.07032-1.22265m12.29296.83203l6.16407 3.36719m-5.26953-2.87891l.01562-1.22656m12.4336.6836l6.10546 3.48046m-6.10547-3.48047l.07422-2.45312m12.78516 4.03125l7.01953.32422m-7.01953-.32422l-1.05078-2.21875m14.3711 2.66797l7.0039-.57813m-7.0039.57813l-1.32423-2.0625m14.78125 2.79687l6.72266-2.04688m-6.72266 2.04688l-1.73437-1.73828m15.36328 2.46484l6.09375-3.5m-6.09375 3.5l-2.07813-1.30469m16.1836 2.2461l4.51562-5.38281m-3.85937 4.60156l-1.19922-.25781"/><g clip-path="url(#N)"><path fill="none" stroke="#000" stroke-linecap="round" stroke-linejoin="round" stroke-miterlimit="10" stroke-width=".5" d="M142.53125 430.26172l2.9375-6.38672"/></g><path fill="none" stroke="#000" stroke-linecap="round" stroke-linejoin="round" stroke-miterlimit="10" stroke-width=".5" d="M155.47656 430.0625l3.67969-5.98828m-3.67969 5.98828l-2.44922-.15234m16.32422.43359l2.55469-6.54688m-2.17969 5.59375l-1.21875.14063m16.5625.86328l-2.25-6.65234m1.92188 5.6875l-.83985.89062m11.67578-6.33593l3.36329 6.16796m13.48437-6.0703l-3.70312 5.97265m3.16406-5.10156l1.22656.07812m9.6914-1.30469l2.17188 6.6836m-1.85547-5.71094l.85157-.88281m11.2539.34765l3.95703 5.8086m-3.3828-4.96094l.5703-1.08594m12.32813.13672l3.64453 6.01172m-3.11328-5.13672l.625-1.05469m12.25.1289l3.46094 6.11329m-2.95704-5.22656l.66016-1.03125m13.42188-.28125l.92187 6.96484m-.78906-5.95312l.9961-.71094m12.3125-.3164l.66796 6.99609m-.57031-5.97657l1.02344-.67578m11.87109-.29687l1.3125 6.90234m-1.1211-5.89844l.95704-.76953m10.97656.22657l3.6914 5.98046m-3.15624-5.10937l.62109-1.0586m12.77734-.11328l2.45704 6.58204m-2.45704-6.58204l1.625-1.83593m11.19922 2.0625l3.4375 6.1289m-2.9375-5.23828l.66406-1.03125m12.10938.16406l3.51953 6.08204m-3.00781-5.19532l.64844-1.04297m11.63671.52344l4.5586 5.34766m-3.89453-4.57032l.44922-1.14062m11.20703 4.3164l6.54297-2.55859m-5.58985 2.1875l-.92969-.79687m13.58594-1.97657l5.95703 3.73047m-5.08984-3.1875l.08984-1.22656m11.98829 3.60938l6.69921-2.1211m-5.72656 1.8125l-.875-.85937m13.05078.05078l7.02735.11328m-7.02735-.11328l-1.11719-2.1836m15.1836 4.41016l5.52734-4.33984m-5.52734 4.33984l-2.2461-.9961m17.10157 2.1211l2.44531-6.58984m-2.44531 6.58984l-2.4336.32422m15.8125-.30469l2.32032-6.6289m-1.98438 5.66406l-1.21094.1875"/><g clip-path="url(#O)"><path fill="none" stroke="#000" stroke-linecap="round" stroke-linejoin="round" stroke-miterlimit="10" stroke-width=".5" d="M145.77734 416.78516l-3.55468-6.0625"/></g><path fill="none" stroke="#000" stroke-linecap="round" stroke-linejoin="round" stroke-miterlimit="10" stroke-width=".5" d="M145.26172 415.90234l-.64453 1.04297m12.89844.3164l-.40235-7.01562m.34375 5.9961l-1.04687.63672m12.39062-.125l3.65625-6m-3.65625 6l-2.44922-.14454m15.8789.21094l3.4297-6.13281m-3.4297 6.13281l-2.45312-.05078m14.46485-1.21875l6.03906-3.59375m-5.16016 3.07031l-1.05078-.63672m13.16797-1.73828l6.67578 2.19922m-5.70312-1.8789L208 411.76562m12.45313 1.25782l6.875 1.46093m-5.875-1.25l-.33985-1.17578m12.58594 1.48047l7.01172.42969m-7.01172-.42969l-1.01953-2.23437m14.75781.76172l6.16406 3.37109m-6.16406-3.3711l.02734-2.45312m13.64063 1.92969l5.46094 4.42187m-4.66797-3.78125l.23437-1.20312m13.03516-.1289l3.96484 5.80468m-3.38672-4.96094l.57032-1.08594m13.51953-.3125l1.26172 6.91407m-1.07813-5.90625l.96094-.76172m11.57031-.08203l2.46094 6.58203m-2.46094-6.58203l1.625-1.83594m10.54297 2.54297l4.7539 5.17187m-4.7539-5.17187l.8125-2.3164m11.70312 3.39843l6.35157 3.00781m-5.42578-2.57031l-.0586-1.22656m12.71094.32812l5.82812 3.92969m-4.98046-3.35938l.1289-1.21875m13.86719-.61718l2.76953 6.45703m-2.36719-5.51563l.76953-.95703m12.13672.01953l2.78125 6.45313m-2.375-5.51563l.76563-.95703m10.72656 1.13281l5.61328 4.22657m-4.79687-3.61328l.1914-1.21094M393.70312 415l6.56641-2.49219m6.97656 2.98047l6.10938-3.46875M420.11328 414l7.00781-.49219m7.76563 3.10156l4.08984-5.71484m8.41406 4.90234l5.71485-4.08593m-4.88672 3.49218l-1.09766-.54687m13.35938.78906l6.16015-3.38281m-5.26171 2.89062l-1.02735-.67187"/><g clip-path="url(#P)"><path fill="none" stroke="#000" stroke-linecap="round" stroke-linejoin="round" stroke-miterlimit="10" stroke-width=".5" d="M147.41797 401.25781l-6.83594-1.63672"/></g><path fill="none" stroke="#000" stroke-linecap="round" stroke-linejoin="round" stroke-miterlimit="10" stroke-width=".5" d="M146.42188 401.01953l.30859 1.1875m13.78516-.32031l-6.40235-2.89844m5.47266 2.47656l.07812 1.22657m11.95313 1.11718l-1.97266-6.74218m1.6875 5.76171l-.8789.85938m12.34765.07422l2.28906-6.64453m-1.95312 5.67578l-1.21484.19531m12.0625-1.27734l6.55078-2.54688m-6.55078 2.54688l-1.85938-1.60156m14.94922.64062l7-.6211m-7 .6211l-1.33594-2.0586m14.65625 2.08985l6.99219-.6875m-6.99219.6875l-1.35937-2.04297m14.6875 1.23047l6.96484.9375m-6.96484-.9375l-.85157-2.30078m14.13672 2.64062l7.02344.25782m-7.02344-.25782l-1.07031-2.20703m14.41797 1.84766l6.96094.98047m-6.96094-.98047l-.83594-2.3086m14.35156 1.53516l6.5586 2.52344m-5.60547-2.15625l-.14844-1.21485m12.28516 2.37891l7.00781-.53906m-5.98828.46094l-.65625-1.03516m13.57422-1.16016l5.76562 4.01172m-4.92969-3.42969l.14844-1.21875m11.70703 2.4336l7.01172.41797m-5.99219-.35938l-.51171-1.11328m13.30468-.55078l6.01563 3.6289m-5.14063-3.10156l.06641-1.22656m13.85547-.65234l3.05469 6.32812m-2.60938-5.40625l.72266-.98828m10.28515 2.3086l6.77735 1.84765m-5.79297-1.57812l-.26953-1.19922m12.58593 2.72265l6.8086-1.73828m-5.82031 1.48438l-.82422-.90625m18.63281-2.54297l-4.15625 5.66797m13.16797-5.55469l4.44922 5.4375m8.92187-5.48438l4.33594 5.53125m11.35547-6.27343l-.41797 7.01562m.35937-5.99219l1.11329-.51171m14.48828.46484l-4.8711 5.0625m12.25391-2.86719l6.99219.67188m-5.97657-.57422l-.46875-1.13281m12.88282 2.3203l6.76562-1.89843"/><g clip-path="url(#Q)"><path fill="none" stroke="#000" stroke-linecap="round" stroke-linejoin="round" stroke-miterlimit="10" stroke-width=".5" d="M145.41797 390.33594l-2.83594-6.42578"/></g><g clip-path="url(#R)"><path fill="none" stroke="#000" stroke-linecap="round" stroke-linejoin="round" stroke-miterlimit="10" stroke-width=".5" d="M145.00781 389.40234l-.76172.96485"/></g><path fill="none" stroke="#000" stroke-linecap="round" stroke-linejoin="round" stroke-miterlimit="10" stroke-width=".5" d="M159.38281 389.96484l-4.13672-5.68359m14.44141 6.22656l1.88672-6.76953m-1.61328 5.78516l-1.19531.26562m13.6875.51563l2.98437-6.36328m-2.55078 5.4375l-1.22656.0625m13.6289.58984l3.9414-5.8164m-3.9414 5.8164l-2.4414-.26172m15.57812-5.42578l4.30078 5.5586m-3.67578-4.75l.5039-1.1172m10.85157 2.64063l6.96875.89453m-5.95703-.76562l-.42969-1.14844m12.8789.36719l6.67579 2.19922m-5.70313-1.87891l-.20703-1.21094m12.6211 3.28125l6.53515-2.58203m-6.53515 2.58203l-1.8672-1.58984m15.07423 1.27344l6.75-1.94922m-6.75 1.94922l-1.70703-1.76563m2.6875 1.48047l-.85157-.8789m13.07813.64843l6.96484-.91797m-6.96484.91797l-1.42578-1.9961m15.19922 3.32423l6.04687-3.57422m-5.16797 3.05469l-1.04687-.63672m13.23828.66015l6.53516-2.58203m-5.58204 2.20703l-.93359-.79687m13.35938 1.32031l6.41015-2.8789m-5.47656 2.46093l-.96875-.7539m13.05469.04687l7-.6289m-5.98047.53515l-.67188-1.02734m12.98438 1.26562l6.96875-.91797m-5.95313.78516l-.71484-.9961m13.20312-.55078l6.58985 2.44532m-5.6289-2.08985l-.16407-1.21875m12.3125 1.79297l7.0039.58203m11.12891-3.54687l-2.63281 6.51172m2.25-5.56641l1.21875-.125m13.51562-.17188l-4.70703 5.21485m18.11328-.08203l-4.88671-5.05078m4.17578 4.3164l-.37891 1.16797m15.10156-1.38281l-6.28125-3.15235m15.88672 5.04297l1.13672-6.93359m14.7461 6.35547l-4-5.77735m3.41796 4.9375l-.5625 1.08985m15.48047-4.9336l-6.04297 3.58985m5.16407-3.0664l1.05078.63671"/><g clip-path="url(#S)"><path fill="none" stroke="#000" stroke-linecap="round" stroke-linejoin="round" stroke-miterlimit="10" stroke-width=".5" d="M145.8086 370.79688l-3.6172 6.02343"/></g><path fill="none" stroke="#000" stroke-linecap="round" stroke-linejoin="round" stroke-miterlimit="10" stroke-width=".5" d="M145.28125 371.67188l1.22656.0625m7.63672.55859l6.33984 3.03125m-5.41796-2.58985l-.05078-1.22656m12.125 2.71094l6.98046-.82031m-5.96484.70312l-.69922-1.01172m13.16406 1.85547l6.64844-2.27344m-6.64844 2.27344l-1.79297-1.67578m15.0625 1.52735l6.7422-1.98047m-6.7422 1.98046l-1.71875-1.75m2.69922 1.46485l-.85937-.8789m13.05469.34374l7.01953-.33594m-7.01953.33594l-1.25391-2.10937m18.55469-1.53906l-.95313 6.96093m.8125-5.94922l1.15235-.42187m12.84765-.47266l-2.04297 6.72266m1.7461-5.74219l1.20703-.23828m7.8711 2.52734l7.02343.1875m6.52344 1.16797l6.5586-2.52344m-5.60157 2.15625l-.92578-.80468m14.36328 2.64844l4.40234-5.47657m-4.40234 5.47656l-2.41016-.45703m15.39063.14844L293 371.375m-4.33203 4.15625l-1.16406-.38281m13.8828 1.23047l4.78907-5.14063m-4.09375 4.39453l-1.1836-.3164m12.71876-2.00782l6.95703 1m-5.94531-.85546l-.41407-1.15235m12.96094.13672l6.46875 2.74219m-5.52734-2.34375l-.10938-1.22266m13.98438-.85937l3.46875 6.10937m9.71484-.07812l3.73047-5.95704m-3.1875 5.09375l-1.22266-.08984m12.35157-2.22656l7.01562.40625m7.64844-2.97266l4.32031 5.53906m-3.6914-4.73437l.5-1.1211m11.90234 5.61329l4.88672-5.05469m-4.17578 4.3164l-1.1797-.33593m15.35938 1.95312l1.73438-6.8125m13.16406 6.84766l-1.42969-6.88281m1.21875 5.8789l-.9414.78516m15.39453-.11719l-3.28516-6.21094m2.8086 5.3086l-.6875 1.01562m15.67187-1.14453l-5.67187-4.14844m4.84765 3.54297l-.17578 1.21485m14.97656-2.33594l-6.99218-.69531"/><g clip-path="url(#T)"><path fill="none" stroke="#000" stroke-linecap="round" stroke-linejoin="round" stroke-miterlimit="10" stroke-width=".5" d="M467.0586 374.15625l.92968 2.26953"/></g><path fill="none" stroke="#000" stroke-linecap="round" stroke-linejoin="round" stroke-miterlimit="10" stroke-width=".5" d="M466.03906 374.05469l.46875 1.13672"/><g clip-path="url(#U)"><path fill="none" stroke="#000" stroke-linecap="round" stroke-linejoin="round" stroke-miterlimit="10" stroke-width=".5" d="M145.83203 357.4961l-3.66406 5.99218"/></g><path fill="none" stroke="#000" stroke-linecap="round" stroke-linejoin="round" stroke-miterlimit="10" stroke-width=".5" d="M145.83203 357.4961l2.44922.14843m10.07031-.50781l-2.07422 6.71484m1.77344-5.73828l1.20313-.23047m9.92578-.58984l2.89844 6.40234m-2.47657-5.47265l.75-.96875m10.72266 1.21484l5.74219 4.04688m-5.7422-4.04688l.3047-2.4336m.53125 3.02344l.15234-1.21875m11.6914 2.41016l7.01173.48828m-7.01172-.48828l-.9961-2.24219m2.01563 2.3125l-.4961-1.1211m12.80078 1.62892l6.9961-.66797m-6.9961.66796l-1.35156-2.04687m2.36719 1.94922l-.67578-1.02344m13.46094 2.59766l6.01953-3.625m-6.01953 3.625l-2.10157-1.26172m18.14453-4.05078l.56641 7.0039m-.48437-5.98437l1.03515-.66406m15.78906 4.33203l-6.61718-2.3711m20.13672 1.30079l-7.02344-.23438m7.02344.23438l1.07812 2.20703m11.38672-.03125l-5.32422-4.58594m4.55078 3.91797l-.26953 1.19922m12.45703.60546l-1.51953-6.85937m1.29688 5.86328l-.9336.79688M303.9922 364l-.42188-7.01563m.35938 5.9961l-1.04688.64062M313.73047 361.5l6.73047-2.01172m-5.7539 1.71875l-.85938-.875m13.05078.10938l7.02734.10546m-6.0039-.08984l-.5625-1.09375m13.83984-1.3125l5.05469 4.88281m-4.32032-4.17187l.33985-1.17969m13.41406 6.15235l2.70703-6.48438m9.0625 5.23047l5.79688-3.97266m-4.95313 3.39453l-1.08594-.5703M387 361.61718l-6.65625-2.25m5.6875 1.92578l.19922 1.20703m14.01953-.70313l-6.52734-2.60937m5.57812 2.23047l.13281 1.21875m13.66016-.01172l-5.58203-4.26563m4.76953 3.64844l-.19922 1.20703m13.21094.3672l-3.35547-6.17579m2.86719 5.27734l-.67578 1.02344m13.51953.22656l-1.4336-6.8789m1.22266 5.8789l-.9414.78125m14.89843.09766l-2.29687-6.64063m12.3203.53516l4.28517 5.57031m-3.66016-4.7578l.50781-1.1172"/><g clip-path="url(#V)"><path fill="none" stroke="#000" stroke-linecap="round" stroke-linejoin="round" stroke-miterlimit="10" stroke-width=".5" d="M145.08203 343.83594l-2.16406 6.6836"/></g><path fill="none" stroke="#000" stroke-linecap="round" stroke-linejoin="round" stroke-miterlimit="10" stroke-width=".5" d="M145.08203 343.83594l2.41406-.42969m9.87891.25781l-.1211 7.02735m.1211-7.02735l2.1836-1.11328m11.48046 1.13672l-.8164 6.98047m.8164-6.98047l2.28516-.89063m12.6211 1.4922l-4 5.77734m4-5.77735l2.4375.28906m-3.01954.55079l1.21875.14453m7.22656 1.25781l6.90625 1.29297m-5.90234-1.10547l-.36719-1.17188m12.9375 3.10157l6.38281-2.9414m-6.3828 2.9414l-1.95313-1.48828m16.13672 2.65234l4.64843-5.26953m-4.64843 5.26953l-2.38672-.57031m3.0625-.19531l-1.19531-.28516m13.35546.53125l5.60938-4.23047m-4.79297 3.61719l-1.11328-.51953m13.22656-2.46094l6.375 2.95703m-5.44531-2.52734l-.0664-1.22657m19.14843 2.1172l-7.01953.3164m7.01953-.3164l1.25 2.10937m12.05078-1.58204l-6.98828-.73828m5.97266.62891l.45703 1.14063m13.6289-.0625l-6.5-2.67579m16.42579 4.84766l.28125-7.01953m-.2422 6l-1.10546.53125m13.28516.26953l2.47265-6.57813m-2.11328 5.6211l-1.21484.15625m14.32422.85156l2.16406-6.6836m-1.84766 5.71094l-1.20703.21485m12.5039-.4375l5.56641-4.28906m-4.7539 3.66406l-1.1172-.50781m14.37892-3.88672l4.05078 5.7461m-3.46094-4.91017l.55469-1.09375m11.10156 4.79688l6.1875-3.33203m-5.28516 2.84765l-1.02343-.67968m14.41796 2.30469l4.22657-5.61329m-3.61328 4.79688l-1.21094-.1914m14.92187-5.13282l2.20703 6.67188m-1.88671-5.70313l.84765-.88672m14.22656-.125l-1.94921 6.7539m15.4375-.05468l-2.29688-6.64063m17.82813 4.32422l-6.73438-2.0078m5.75781 1.71483l.24219 1.20313m8.16016-4.35938l5.04687 4.88672m-4.3125-4.17578l.33985-1.17969m13.58593-.39843l2.35938 6.6211m-2.35938-6.6211l1.65235-1.8125"/><g clip-path="url(#W)"><path fill="none" stroke="#000" stroke-linecap="round" stroke-linejoin="round" stroke-miterlimit="10" stroke-width=".5" d="M143.58984 330.375l.82032 6.97656"/></g><g clip-path="url(#X)"><path fill="none" stroke="#000" stroke-linecap="round" stroke-linejoin="round" stroke-miterlimit="10" stroke-width=".5" d="M143.58984 330.375l2.01953-1.39844"/></g><path fill="none" stroke="#000" stroke-linecap="round" stroke-linejoin="round" stroke-miterlimit="10" stroke-width=".5" d="M156.91016 330.3711l.80859 6.98046m-.6914-5.96484l1.01171-.69531m12.33594-.33204l.51172 7.00782m-.4375-5.98828l1.03906-.65235m15.00781.71875l-5.10156 4.83594m5.10156-4.83594l2.32422.78125m11.32031-.3789l-5.7578 4.03125m5.7578-4.03125l2.1836 1.11718m-3.02344-.53125l1.09375.5586m13.41406 2.25l-6.46484-2.75781m5.52344 2.35546l.10547 1.22266m10.5078 1.28906l.82032-6.97656m-.70312 5.96094l-1.14063.44531m16.57031-5.92188l-3.64453 6.00782m3.11328-5.13281l1.22657.0664m13.41797-.27734l-5.23829 4.67969m17.21875.92968l-2.5703-6.53906m2.1953 5.58594l-.79687.9336m16.48828-2.01173l-6.57422-2.47656m6.57422 2.47656l.3164 2.4336m10.47657-.2422l-1.53125-6.85937m1.3086 5.85938l-.9336.80078m10.23437-3.75781l6.94532 1.05469m-5.9375-.90235l-.40625-1.15625m12.68359 1.2539l7.0039.5547m-7.0039-.5547l-.97656-2.2539m1.9961 2.33203l-.48829-1.125m12.85547 2.08203l6.85937-1.51562m-5.85937 1.29687l-.79688-.93359m13.02735.39453h7.02734m-6.0039 0l-.57422-1.08203m13.58203 3.20313l5.59765-4.2422m7.02344 1.75782l6.98828.72656m-5.97265-.6211l-.46094-1.13671m14.54297-1.67578l3.41797 6.14062m-2.91797-5.24609l.66406-1.03125m12.28906.0625l3.14453 6.28516m-2.6875-5.3672l.71094-1m12.60938-.10546l2.22265 6.66406m-2.22265-6.66406l1.6914-1.78125m10.36719 2.51563l4.73438 5.1953m-4.04688-4.4375l.41406-1.15624m12.74219 5.98828l3.67578-5.98828m-3.14062 5.11719l-1.22657-.07422m12.33204-2.15625l7.02343.21875m-6-.1875l-.54297-1.10157m17.78125-2.02734l-2.87109 6.41406m2.45313-5.48047l1.22656-.08203"/><g clip-path="url(#Y)"><path fill="none" stroke="#000" stroke-linecap="round" stroke-linejoin="round" stroke-miterlimit="10" stroke-width=".5" d="M142.29297 317.47656l3.41406 6.14063"/></g><path fill="none" stroke="#000" stroke-linecap="round" stroke-linejoin="round" stroke-miterlimit="10" stroke-width=".5" d="M156.15234 317.23438l2.32422 6.6289m-1.98828-5.66406l.83203-.90235m10.26953 5.01563l6.07813-3.52734m-5.1914 3.01171l-1.04298-.64843m18.38672-3.57031l-3.75 5.9414m18.6875-2.63672l-6.9961-.66797m5.97657.57032l.47266 1.1328m13.72265-.33983l-6.71875-2.0586m6.71875 2.0586l.46875 2.40625m12.95703-2.87891l-6.9375-1.11328m5.9297.94922l.39452 1.16015m13.90625-2.24219l-6.89062 1.37891m5.88672-1.17969l.77734.94922m13.125-2.24219l-6.0586 3.5625m6.0586-3.5625l2.08984 1.28516m11.60938-.32812l-6.82813 1.65234m5.83594-1.41406l.8125.91797m10.39453 3.16796l-.6289-7m.6289 7l-2.05468 1.34375m15.85937-1.42187l-1.60547-6.83984m1.3711 5.84375l-.92188.80859m11.6875-.33203l3.96094-5.80469m-3.38672 4.96094l-1.21875-.13672m13 .00781l5.8789-3.85547m-5.02343 3.29297l-1.07422-.58984m13.10156.20703l6.7461-1.96484m-5.76563 1.67968l-.85547-.8828m15.4414-3.14454l2.2422 6.66016m10.3789-.32032l3.6289-6.01953m-3.10155 5.14063l-1.22266-.0625m15.64453-5.57813l.36328 7.01953m14.5039-6.74609l-2.74609 6.46875m2.34766-5.52734l1.22266-.10547m14 .38672l-5.76172 4.02343m4.92187-3.4375l1.09375.5586m12.54297-1.73047l-4.72656 5.19922m4.72656-5.19922l2.3789.60156m7.10938-1.19922l2.92578 6.39063m-2.5-5.46094l.7461-.97266m15.2461 6.34766l-3.28126-6.21484m3.28125 6.21484l-1.375 2.02734m.89844-2.93359l-.6875 1.01563m16.04687-1.78125l-6.41406-2.8711m6.41406 2.8711l.16797 2.4453m-1.10156-2.86327l.16797 2.4453m13.39844-5.91015l-5.04688 4.89063"/><g clip-path="url(#Z)"><path fill="none" stroke="#000" stroke-linecap="round" stroke-linejoin="round" stroke-miterlimit="10" stroke-width=".5" d="M466.08594 318.10156l2.33203.7539"/></g><path fill="none" stroke="#000" stroke-linecap="round" stroke-linejoin="round" stroke-miterlimit="10" stroke-width=".5" d="M465.35156 318.8125l2.33203.7539"/><path fill="#00f" fill-rule="evenodd" d="M210.70313 467.64844h8.62109V457.5039h-8.6211v10.14453"/><path fill="azure" fill-rule="evenodd" d="M212.53906 459.33594h.83203v2.82422h3.28516v-2.82422h.83203v6.48047h-.83203v-2.91797h-3.28516v2.91797h-.83203v-6.48047"/><path fill="#00f" fill-rule="evenodd" d="M286.15625 467.64844h8.61719V457.5039h-8.61719v10.14453"/><path fill="azure" fill-rule="evenodd" d="M287.98828 459.33594h.83594v2.82422h3.28515v-2.82422h.83204v6.48047h-.83204v-2.91797h-3.28515v2.91797h-.83594v-6.48047"/><path fill="#ff3030" fill-rule="evenodd" d="M340.10938 441.01953h7.6953V430.8711h-7.6953v10.14844"/><path fill="azure" fill-rule="evenodd" d="M341.94531 432.70703h.83203v5.73828h3.19532v.73828h-4.02735v-6.47656"/><path fill="#00f" fill-rule="evenodd" d="M414.86719 432.14063h8.6211v-10.14454h-8.6211v10.14454"/><path fill="azure" fill-rule="evenodd" d="M416.70313 423.82813h.83203v2.82421h3.28515v-2.82421h.83594v6.48046h-.83594v-2.91796h-3.28515v2.91796h-.83204v-6.48046"/><path fill="#00f" fill-rule="evenodd" d="M224.01953 418.82813h8.61719v-10.14844h-8.61719v10.14844"/><path fill="azure" fill-rule="evenodd" d="M225.85156 410.51172h.83594v2.82422h3.28516v-2.82422h.83203v6.48047h-.83203v-2.91406h-3.28516v2.91406h-.83594v-6.48047"/><path fill="#ff3030" fill-rule="evenodd" d="M193.64453 334.4961h7.69531v-10.14454h-7.6953v10.14453"/><path fill="azure" fill-rule="evenodd" d="M195.47656 326.1836h.83594v5.74218h3.1914v.73828h-4.02734v-6.48047"/><path fill="#00f" fill-rule="evenodd" d="M370.48438 330.0586h8.62109v-10.14454h-8.6211v10.14453"/><path fill="azure" fill-rule="evenodd" d="M372.3164 321.7461h.83594v2.82421h3.28516v-2.82422h.83203v6.48047h-.83203v-2.91797h-3.28516v2.91797h-.83593v-6.48047"/><path fill="#ffffe0" fill-rule="evenodd" d="M230.78516 370.66797h22.17968v-10.1914h-22.17968v10.1914"/><path fill-rule="evenodd" d="M234.28516 362.3086h.5078v6.29687h-.78515v-4.49219h-1.39062v-.55469l.5625-.0625.25-.05468.23047-.08985.20312-.14062.17188-.21094.14453-.29688.10547-.39453m4.8125 0l.23047.01954.21875.05468.20703.08985.1953.12109.1875.14844.16798.17578.30469.42187.24218.4922.17969.54687.11328.57812.03516.59375-.03516.59375-.11328.58203-.17969.55469-.24219.5-.30468.42969-.16797.17969-.1875.15234-.19531.125-.20703.08984-.21875.0586-.23047.01953-.23047-.01953-.21875-.0586-.20703-.08984-.19532-.125-.18359-.15235-.17188-.17968-.30078-.42969-.24609-.5-.17969-.55469-.10937-.58203-.03906-.59375h.83203l.03125.5625.08203.5039.125.44532.16015.375.19141.30078.21094.21875.22265.13672.22657.04688.22656-.04688.22266-.13672.21093-.21875.1914-.30078.16017-.375.1289-.44531.08203-.5039.02735-.5625-.02735-.5625-.08203-.5-.1289-.4375-.16016-.36329-.1914-.29297-.21095-.21484-.22265-.13281-.22656-.04297-.22657.04296-.22265.13282-.21094.21484-.1914.29297-.16016.36328-.125.4375-.08203.5-.03125.5625h-.83203l.03906-.59375.10937-.57812.17969-.54688.2461-.49219.30077-.42187.17188-.17578.1836-.14844.1953-.1211.20704-.08984.21875-.05469.23047-.01953m5.09375 0h.5078v6.29688h-.78905v-4.49219h-1.38672v-.55469l.5586-.0625.2539-.05468.23047-.08985.20312-.14062.17188-.21094.14062-.29688.10938-.39453m2.8203 2.17579h.78907l.01953-.31641.0586-.28516.09765-.2539.14063-.21485.1836-.17187.22265-.1289.26562-.08204.3086-.02734.23437.01953.22656.0625.20313.10156.17969.14063.14843.17187.11328.20703.07032.23438.02734.26562-.02344.26953-.0664.22266-.10938.1914-.15625.17188-.19922.16406-.24609.16406-.63672.39063-.53516.3125-.4375.3164-.34765.32423-.26563.33593-.1875.35156-.125.3711-.0703.39062-.01954.42188h4.21094v-.74219h-3.33203l.08203-.28515.11328-.23438.14844-.20313.1875-.17968.23047-.17188.28125-.17578.71484-.41406.41406-.20703.34766-.23047.28125-.25.21875-.26953.16406-.27735.10938-.28515.0664-.28516.01953-.28125-.04297-.38281-.12109-.34766-.1875-.3086-.25-.26171-.30469-.21094-.34375-.16015-.3789-.09766-.40625-.03516-.4375.03516-.39844.09766-.35547.16406-.30469.23828-.2461.30078-.1875.375-.11327.44531-.04297.51954"/><path fill="#ffffe0" fill-rule="evenodd" d="M377.25 369.6836h22.17969v-10.19141H377.25v10.1914"/><path fill-rule="evenodd" d="M380.75 361.32422h.50781v6.29687h-.78515v-4.49218h-1.39063v-.5547l.5625-.0664.25-.05078.23047-.08984.20313-.14063.17578-.21094.14062-.29687.10547-.39453m4.8125 0l.23047.01953.21875.05469.20703.08984.19922.1211.1836.14843.17187.17578.30078.42188.24219.49219.17968.54687.11329.57813.03906.59375-.03906.58984-.11329.58594-.17968.55469-.2422.5-.30077.42968-.17188.17969-.1836.15234-.19921.125-.20703.08985-.21875.0586-.23047.01952-.22656-.01953-.21875-.0586-.21094-.08984-.19531-.125-.1836-.15234-.17187-.17969-.30078-.42969-.2461-.5-.17968-.55468-.10938-.58594-.03906-.58984h.83203l.03125.5625.08203.5039.125.44531.16406.375.1875.29688.21094.22266.22266.13671.22656.04688.22656-.04688.22266-.13671.21094-.22266.1914-.29688.16406-.375.125-.4453.08204-.50391.02734-.5625-.02734-.5625-.08204-.5-.125-.4375-.16406-.36329-.1914-.29296-.21094-.21485-.22266-.13281-.22656-.04297-.22656.04297-.22266.13281-.21094.21485-.1875.29296-.16406.36329-.125.4375-.08203.5-.03125.5625h-.83203l.03906-.59375.10938-.57813.17968-.54687.2461-.4922.30078-.42187.17187-.17578.1836-.14844.19531-.12109.21094-.08984.21875-.05469.22656-.01953m5.09375 0h.50781v6.29687h-.78515v-4.49218h-1.39063v-.5547l.5586-.0664.2539-.05078.23047-.08984.20313-.14063.17187-.21094.14453-.29687.10547-.39453m2.82422 2.17578h.78515l.01954-.3164.05859-.28516.10156-.2539.13672-.21485.1836-.17188.22265-.1289.26563-.08204.30859-.02734.23828.01953.22266.0625.20312.10156.17969.14063.14844.17188.11328.20703.07031.23437.02735.26563-.02344.26953-.0664.22265-.10938.19141-.15235.17188-.20312.16406-.2461.16406-.6328.39063-.53907.3125-.4375.3164-.34766.32422-.26172.33594-.1914.35156-.125.3711-.07031.39062-.01954.42187h4.21094v-.74218h-3.33203l.08203-.28516.11719-.23438.14453-.20312.1875-.17969.23047-.17187.28125-.17578.71484-.41407.41797-.20703.34375-.23047.28125-.25.21875-.26953.16406-.27734.11329-.28516.0625-.28515.01953-.28125-.04297-.38282-.11719-.34765-.1914-.3086-.25-.26171-.30079-.21094-.34765-.16016-.37891-.09765-.40625-.03516-.4375.03515-.39844.09766-.35156.16406-.30469.23438-.25.30469-.1836.375-.11718.4453-.03906.51954"/></g></defs><use xlink:href="#aa"/></svg>