<svg xmlns="http://www.w3.org/2000/svg" role="img" xmlns:xlink="http://www.w3.org/1999/xlink" viewBox="142.45 309.95 326.84 171.84"><defs><clipPath id="a"><path d="M144 311.67188h1v168.65625h-1zm0 0"/></clipPath><clipPath id="b"><path d="M144 311.67188h324v168.65625H144zm0 0"/></clipPath><clipPath id="c"><path d="M467 311.67188h1v168.65625h-1zm0 0"/></clipPath><clipPath id="d"><path d="M144 477h3v3.32813h-3zm0 0"/></clipPath><clipPath id="e"><path d="M154 477h6v3.32813h-6zm0 0"/></clipPath><clipPath id="f"><path d="M168 477h6v3.32813h-6zm0 0"/></clipPath><clipPath id="g"><path d="M181 477h6v3.32813h-6zm0 0"/></clipPath><clipPath id="h"><path d="M194 477h6v3.32813h-6zm0 0"/></clipPath><clipPath id="i"><path d="M208 477h6v3.32813h-6zm0 0"/></clipPath><clipPath id="j"><path d="M221 477h6v3.32813h-6zm0 0"/></clipPath><clipPath id="k"><path d="M233 478h8v2.32813h-8zm0 0"/></clipPath><clipPath id="l"><path d="M247 478h7v2.32813h-7zm0 0"/></clipPath><clipPath id="m"><path d="M260 478h7v2.32813h-7zm0 0"/></clipPath><clipPath id="n"><path d="M274 478h7v2.32813h-7zm0 0"/></clipPath><clipPath id="o"><path d="M287 478h7v2.32813h-7zm0 0"/></clipPath><clipPath id="p"><path d="M300 477h7v3.32813h-7zm0 0"/></clipPath><clipPath id="q"><path d="M315 476h4v4.32813h-4zm0 0"/></clipPath><clipPath id="r"><path d="M329 476h3v4.32813h-3zm0 0"/></clipPath><clipPath id="s"><path d="M341 477h6v3.32813h-6zm0 0"/></clipPath><clipPath id="t"><path d="M353 479h8v1.32813h-8zm0 0"/></clipPath><clipPath id="u"><path d="M353 479h2v1.32813h-2zm0 0"/></clipPath><clipPath id="v"><path d="M367 478h7v2.32813h-7zm0 0"/></clipPath><clipPath id="w"><path d="M380 478h7v2.32813h-7zm0 0"/></clipPath><clipPath id="x"><path d="M393 479h8v1.32813h-8zm0 0"/></clipPath><clipPath id="y"><path d="M392 477h2v3.32813h-2zm0 0"/></clipPath><clipPath id="z"><path d="M406 479h9v1.32813h-9zm0 0"/></clipPath><clipPath id="A"><path d="M405 478h3v2.32813h-3zm0 0"/></clipPath><clipPath id="B"><path d="M420 478h8v2.32813h-8zm0 0"/></clipPath><clipPath id="C"><path d="M418 479h3v1.32813h-3zm0 0"/></clipPath><clipPath id="D"><path d="M433 477h7v3.32813h-7zm0 0"/></clipPath><clipPath id="E"><path d="M447 477h7v3.32813h-7zm0 0"/></clipPath><clipPath id="F"><path d="M461 477h5v3.32813h-5zm0 0"/></clipPath><clipPath id="G"><path d="M144 463h2v8h-2zm0 0"/></clipPath><clipPath id="H"><path d="M144 470h2v3h-2zm0 0"/></clipPath><clipPath id="I"><path d="M144 450h1v8h-1zm0 0"/></clipPath><clipPath id="J"><path d="M144 456h1v3h-1zm0 0"/></clipPath><clipPath id="K"><path d="M144 436h1v9h-1zm0 0"/></clipPath><clipPath id="L"><path d="M144 423h2v8h-2zm0 0"/></clipPath><clipPath id="M"><path d="M144 410h3v7h-3zm0 0"/></clipPath><clipPath id="N"><path d="M144 399h4v3h-4zm0 0"/></clipPath><clipPath id="O"><path d="M144 385h4v4h-4zm0 0"/></clipPath><clipPath id="P"><path d="M144 371h3v6h-3zm0 0"/></clipPath><clipPath id="Q"><path d="M466 371h2v3h-2zm0 0"/></clipPath><clipPath id="R"><path d="M144 357h3v7h-3zm0 0"/></clipPath><clipPath id="S"><path d="M144 343h2v8h-2zm0 0"/></clipPath><clipPath id="T"><path d="M144 330h1v8h-1zm0 0"/></clipPath><clipPath id="U"><path d="M144 328h2v3h-2zm0 0"/></clipPath><clipPath id="V"><path d="M144 330h1v2h-1zm0 0"/></clipPath><clipPath id="W"><path d="M144 316h2v9h-2zm0 0"/></clipPath><clipPath id="X"><path d="M144 315h1v3h-1zm0 0"/></clipPath><clipPath id="Y"><path d="M465 317h3v2h-3zm0 0"/></clipPath><g id="Z" clip-path="url(#clip1)"><path fill="#fff" fill-opacity="0" fill-rule="evenodd" d="M0 0h1000v1000H0zm0 0"/><path fill="#d3d3d3" fill-opacity="0" fill-rule="evenodd" d="M162.15234 355.86719l-.23437.29297.0586.23437.11718.17188.17578.23437.29297.34766.11328.0586.11719-.17188.0586-.23438.17577-.17578.46485-.17578h.69922l.23437.29297.28906.8164.0586.17579.17578.23046.35156.23438.69922.69922.17188.17578.23437.34765.23438.41016.28906.58203.41015.46485.23047.23437.23438.17578.11719.23047.17578.29297.17187 1.16406v.23438l.0586.28906.05859.11719.11719.11719.34765.41015.11719.17188.17578.17578.17578.23437.11719.17188.17188.35156.05859.23438.23437.40625.23438-.0586-.17578.17578-.0586.92969h-.58203l-.23437-.11328-.34766.11328-.11719.11719-.05859.29297-.0586.17578-.11718.17187-.46484.29297-.0586.23438-.0586.11328v.64453l.0586.17187v.41016l.0586.0586v.40624l.05859.40625.11719.17579.05859.05859.23047.64062-.0586.29297v.69922l-.05859.58203v.23438l-.0586.23047-.05468.35156v1.92187l.05469.1172h.42578l-.36719.11718-.02344.35156.89063 1.16797 1.74219.53906 1.33984.35938v.53906l.08984.8086.53516.71484 1.51953.26953.89063-.08594.08984 1.16406.53516.1797 1.16015-.1797 2.05469-.98437 1.16016-.36328 1.8789-.17578 1.69531-.1797-.17968.71876-1.51563.08594-1.25.08984-.80469.26953-1.07421.8086.26953.71875.53515.89843-.17968.625-.26563.8086.26563 1.07812.625.89844.80468.17969 1.25-.1797-.26562.72267.09766.5039.05468.29297v.17188l.0586.29296v.40625l.17578.1172.35156.11718h.40625l.29297-.17578.11328-.11719.0586-.11719.11718-.23047.0586-.17578.35156-.46484.23047-.17578.17578-.0586.17578.0586.0586.17578.11718.98828.05469.46875.0586.17188.11718.23437.17578.0586.8164.05859h.28907l.11719.23437.05859.40625.0586.35156v1.10547l.11718.29297.11719.34766.28906.69922.17578.35156.58203.7539.35157.17579.17187.0586.46875.23437.64063.46484.34765.23438.29297.17578.29297.05468.23047.0625.8164.34766.29297.17578.11328.17188.35157.35156.11719.17578.52343.64063v.28906l.0586.35156v.34766l.05859.35156.0586.28906.11718.0586.17188.05859h.17578l.58203.23437.17578.1172.17578.28905.17578.23438.11328.23437.29297.23047.11719.11719v.41016l.0586.05468.28906.23438.23437.11719.0586.11718.11718.17188.0586.11719.23047.23437.05859.17578.23437.0586.1172.05859-.1172.11328-.05859.11719v.11719l-.11719.29296-.11719.28907v.58203l.17579.11719.11718.05859.0586.11719.11719.11719.11328.05859.17578.34765.0586.35157.05858.40625v.17578l-.05859.17578-.11719.69922v.17187l.1172.17579.29296.29296h.40625l.17578.1172.11719.17187.11719.29296v.23438h-.52735l-.23047-.23438h-.23437l-.17578.0586-.0586.69922.0586.34765.11719.17579.17578.41015.11718.23047.28907.46875.17578.05469h.52344l.23437.0586.75781.64062.0586.29296v.23438l.05859.0586.23047.34765v.35156l-.11719.17188v.29297l.29297.28906.29297.17578.17187.0586.29297.17577.29297.1172.58203.40624.28906.23438.29297.17578.21875.16015.01563.01172.23047.17579.64062.52343.17578.23438.1172.17578.17577.17578.11328.17188v.64062l.1172.17578.46874.11719.58203.11719.23438.05859.23047.11328.29297.11719.11328.0586.58593.35156.28907.17187.17578.0625.17578.05469.17578.0586.69922.35155.28906.17579.23438.05468.28906.17578.23437.1172.64063.40624.29297.11719.17187.0586.23438.05859.41015.05859.23047.0586.23438.11718.0586.17188-.41017.17578.46875.0586.0586.29296.11328.23438.17578.05468.23438.0586.17578.05859.40625.11719.64062.23437.11719.17188.0586.23437v.17578l-.0586.1172-.0586.40624.23438.23438.11719.05859.34766.11719.64062.23047.17578.11718.28906.1172.17578.17577.23438.46485.58203 1.10546.17578.17579.34766.17578.17578.11719.35156.11718 1.04688.52344.23437.0586.46485.11327.29297.0586.46484.17578.75781.58203.23438.23438.34765.46484.17578.17578.28907.23438.8164.69921.29297.17579.28906.28906.29297.17578.29297.28906.69531.64063.17578.17578.29297.23437.28907.23438.46875.28906.64062.58203.34766.23438.23437.29297.34766.34765.35156.46485.9336.99218.34765.40625.11719.17579.23437.05859.11328.11719.64454.17578.23047.11328.23437.0586.29297.17577.23047.1172.9336.69921.40624.40625.23438.17578.40625.17578.23437.11719.8164.34766.34766.23437.23438.11719.29297.28906.23047.11719.7578.35156.35157.17188.23047.05859.29297.11719.23437.0586.8711.17577h.8164l.46875.23047.17188.0586.875.69921.46484.1172.29297.05858.17578.0586.23047.0586.46875.05859.34766.05859.35156.0586.40625.05859h.29297l.17187.0586v.23046l.17578.17578h.29297l.34766.0586.35156.05859.69922.11719h.64063l.46484-.23438.29297-.17578.17187-.11719.41016-.17187.28906-.17578.9336-.46485.46875-.29297.52343-.29296.46485-.17188.46484-.17578 1.05078-.46485.28906-.11718.41016-.11719.28906-.11719.52735-.17578 1.51562-.69922.58203-.34765.28907-.0586.29297-.0586.34765-.11718.875-.23047.35156-.11719h.11329l.23437-.05859.875-.23437.23438-.0586h.8125l.35156-.0586.8164-.11718.17188-.0586.35156-.05468.29297-.0586.23047-.05859.8164-.17578.17579-.0586h.34765l.23438-.05859.46484-.11718.75781-.17188.23438-.0586h.34765l.41016-.11718.28906-.0586 1.28516-.05859h.28906l.41016-.0586.23047-.05858h.17578l.875-.1172h.40625l.41015-.11718h.34766l.35156-.11328.8711-.0586h1.75l1.04687.28907.41016.11719.28906.11718.35156.11719.28907.11719 1.05078.17187.28906.0586h.29297l.29297.05859.17187.0586.41016.05859.17187.0586.1172.05858h.11718l.11719.0586.35156.0586h.11328l.41016.0664 1.92187.39453 1.92578.39453 1.51953.44922 1.69532.71875 2.14453.80469 1.60547-.71875 1.42968-.80469 1.16016-1.07813 1.25-.44921 3.03516-.71875 1.875-.35938 2.14453-1.34765 2.23437-1.25391 2.5-1.25781 1.69531-.44922 1.78516-.17969 1.16016-.26953.625.53906 1.33984-.26953.71485-.98828.98437-1.34375.44531-.17969.80469-.35937 1.875-.53907 1.78516-.44921 1.25-.26954 1.16015-.08984 1.69922-.08984 1.96094-.26954 1.25-.08984h.53906l.625-.08984h.89063l2.14453-.17969 2.41015-.17969 2.58985-.08984 1.69531.17969 1.60938.08984 1.42968.35938 1.16016.71875 1.875.98828 1.16015 1.52734.26563.71484.6289.08985.35548.89844.53515.53906.53516 1.52734 1.07422.35938h.53515l-.80469.53515.08985 1.70703.71484 2.69532.89063.80468.89453.98829.71484 1.2578 1.78516.53907 1.51953-.17969.35547 1.34375 1.60937-.80469.98047-.53906.26953.26953.31641-.21484.21875-.14453.80078.44922.44922-.35938h.35547l.53515-.26953.53907-.71875.53515-.26953.625-.98828 1.16016.44922.83984.3711 1.39454.61718 1.6953-.17969h1.60548l1.78515.08985.17969-1.70704.53516-1.34375.80468.26954.4922.84765.40233.40625-.08984.53906v.35938l.71485.44922.71093-.26953h1.42969l.35938.98828.4453 1.25781.71485 1.34375 1.25.6289 1.69531.62891.71485-.17969.17969-.53906.98046-.08984.44922.35937.08594 1.25782-.26563.6289-.53515.17969v.53906l.71484.98438.26563.53906.98437.98828.80078 1.07813-.26562.35937-.08985.89844-.625 2.33203-.35546 2.0664-.08985 1.79298-.17969.71875-.08984.53906v1.4375l-.98047 1.88281-.35937 1.70703-.53516.89844-.80469 1.16797-.26562.53906 2.05469 1.2539.08593.35938-.35546.53906-.08985-.17968v.80859l.08985 1.4375-.44532.71484-1.07422.09375-.26562.71485.53515.89844.8047.71875 1.16015.80859 1.33984.26953.44531.35938-.35546.44921-1.78907-.08984-1.25-.44922-.71484-.71875-.625-.08984-.17578 3.58984-.1875 1.3086h89.35937V311.70313h-55.26953v49.08203l.76172.125 3.28906.54296 2.02344 2.83594v2.7539l2.35156.33204 2.34766.33203h4.05078l-1.3789 4.16016-2.02344.70703-2.02344.70312-.54297.34375-2.59375 1.6172-.1875.11718-2.02344-2.07813-.73046-2.74218-2.67188-2.07813-1.375-3.5-.0664-.08203-1.95704-2.67188 2.75-1.41796v-49.08204H294.42187v91.41407l.1172.03125.1328.01172.07422.07421.10547.04688.08985.0586.08593.05859.08985.0586.29687.29687.0586.08984.03125.11719.02734.11719.01563.13671-.03125.1172-.0586.08983-.0586.08594-.04296.10547-.04688.10156-.02734.1211v.14453l.17578.26953.14844.14844.07422.08594.07422.07421.04296.10547.0625.08985.0586.08593.04297.10547.0586.08985.04687.10156.04296.10547.0586.08594.11719.17968.07421.07422.0625.08594.0586.08984.04297.10547.0586.08985.05858.08593.0625.08985.0586.08984.04297.10156.11719.17969.07421.07422.0586.08594.07422.07421.08984.0586.10547.04687h.14844l.1328-.01562.13282.01562.10156-.04687.07422-.07422.04688-.10156-.01563-.13281v-.14844l-.04687-.10547-.02735-.11719-.04687-.10156-.02735-.1211-.04296-.10156-.0625-.08984-.04297-.10156-.04297-.10547-.03125-.11719-.01563-.13281-.01171-.13672.08593-.0586.0586-.08593.12109-.03125.04297.10547.01562.1328v.1172l.0586.10156.0586.08984.08983.0586.14844.14843.0586.08985.04296.10547-.01171.10156.08593.0586.10547.04687.08594.0586.08984.05858.07422.07422-.11719.02735-.10546.04687-.08594.0586-.07422.07421-.0586.08985-.0625.08594-.02734.12109-.04687.10156-.04297.10547-.03125.11719-.01172.13281-.01563.13281v.14844l.02735.11719.04687.10547.04297.10156.0586.08984.07421.07422.08985.0586.07422.07421.08984.0586.0586.08984.04296.10547.04688.10156.11719.03125.1328.01563h.14845l.11718-.03125.10547.04297.04297.10547.04688.10156.02734.1211L299.5 410l.02734.11719.03125.1211.02735.11718.10547.04297.10156.04687.13281-.01562.14844.14844.0625.08593.07422.07422.07031.07422.08984.0625.10547.04297.10156.04297.1172.03125.13671.01562.11719-.03125.07422-.07422.02734-.11718-.01172-.13282-.03125-.12109-.02734-.11719.04297-.10547h.11719l.08984.0625.11719.02735h.14843l.13282.01562h.14843l.13282.01563.1328-.01563h.14845l.1328-.01562.13282-.01172.13672.01172.11719-.02735.13281-.01562.1914-.0586-.05859.17579-.01562.1328-.02735.1211-.01562.13281-.0586.08594-.1328.01563-.10548.04687-.10546.04297-.1172.03125-.11718.02735-.26563.03125h-.14843l-.13281.01562-.07422.07422.05859.08594.14844.14843.11719.1797.07421.0703.08985.0625.08984.0586.08594.0586.08984.05858.10156.04297.10547.0625.10547.04297.08594.0586.10547.04687.10156.04297.17969.11719.0586.08984-.04298.10156-.04687.10547.01562.13281.22266.22266.0586.08985.04296.10156.03125.1211.04297.10155.01563.13282.03125.11718.01171.13672.03125.11719.14844.14844.10156.04297.10547.04296.1172.03125.1328.01563.13672.01563h.11719l.11719-.03125.08984-.0586.04297-.10547.04688-.10156.04296-.10547.03125-.11719.01172-.1328v-.14845l-.01172-.1328-.01562-.13282-.03125-.11719-.04297-.10547-.04688-.10547-.04296-.10156-.04297-.10547-.01563-.13281.01563-.13281.02734-.11719.03125-.11719.02735-.1211.04687-.10155.08984-.0586.08594-.0625.07422-.07422.08984-.05859.22266-.22266.0586-.08593.07421-.07422.11719-.17969.0586-.08594v-.14844l-.07423-.07421-.10156-.04688-.10547-.04297-.10156-.04297-.0586-.08984-.04687-.10547-.02734-.11719.08984-.05859.11719-.03125.10156-.04297.17969-.11719.14844-.14843.01172-.13282-.01172-.10546-.08985-.0586-.1328.01563h-.14845l-.1328.01562-.13282-.01562-.1211-.03125-.08593-.0586-.07422-.07422-.0586-.08984-.0625-.08594-.11718-.17969-.0586-.08593.03125-.1211.08594-.05859.1211-.03125.05859-.08594v-.1211l-.03125-.11718-.0586-.08984-.05859-.08594-.04687-.10547-.02735-.11719-.01562-.1328.0586-.08985.07421-.07422.08984-.0586.1172-.17968.07421-.07422.0586-.08594.14843-.14844.1211-.03125.1328-.01562.13282.01562.07422.07422.04297.10547.01562.13281-.03125.1172-.11719.03124-.1328.01172-.14844.14844-.04297.10547-.04688.10156-.02734.1211-.03125.11718v.14844l.03125.11719.04297.10546.05859.08985.07422.07031.07422.07422.11719.03125.12109.02734.11719-.02734.1328-.01563h.1172l.08984.0586.07422.07422.04687.10546.0586.08594.10156.04688.13281.01562.10547.04297.08594.0586-.01172.10546-.07422.07422-.17969.11719-.05859.08984-.08984.0586-.07032.07422-.07421.07421-.0625.08985-.02735.11719-.01562.1328.01562.13282-.01562.13281v.14844l.01562.13281.02735.1172.03125.12108.07421.07422.08985.0586.08594.0586.08984.05858.11719.03125v.08594l-.10157.04688-.08984.0586-.26563.03124-.11718.02735h-.14844l-.10547.04296-.10156.04688-.0586.08984-.0625.23438-.01171.13281-.03125.1211-.01563.1328v.29298l-.01172.1328.01172.13673.01563.1328.1328.01563.13282.01172.1211.03125.08593.0586.07422.07421.04688.10547.04296.10157.01563.1328v.44532l-.01563.13281v.44532l.03125.26562.02735.11719.01562.13281.03125.11719.08594.21094.03125.26562v.14844l-.03125.11719-.02734.11718-.03125.1211-.02735.11719-.03125.11718-.03125.1211-.01171.1328-.01563.13282.08984.0586.1172-.03125.10155.01562.04688.10547-.03125.26562v.44141l-.04297.10547-.04688.10547-.04296.10156-.04297.10547-.0586.08594-.03125.12109-.04296.11719-.03125.11719-.01563.1328.01563.13282.05859.08984.10547.04688.08594.0586.05859.08593-.01172.13672-.03125.11719-.04297.10156v.44531l-.01562.13281v.14844l-.03125.11719-.04297.10547-.02735.11719-.04687.10546-.04297.10157-.03125.12109-.02734.11719-.03125.13281-.03125.11719-.02735.11719-.04297.10546-.03125.1172-.03125.12108-.01171.13282-.01563.13281v.29688l.02734.11718v.14844l.04688.39844.02734.11719.0586.08984.12109.03125h.14844l.13281-.01563.0586.08985v.11719l-.0586.08984-.08984.0586-.10157.04296-.10546.04688-.08985.05859-.08594.0586-.13671.01562-.1172-.03125-.1328-.01563-.10157.04688-.0625.08594-.01172.13671-.01562.13282-.03125.11719-.02735.11718-.01562.13281-.03125.1211v.29687l.01563.13282.03125.11718v.14844l.01171.13281v.14844l-.02734.11719-.04688.10156-.02734.1211-.03125.11718-.0586.08985-.07421.07421-.10156.04297-.10547.04688-.11719.02734-.1211.03125-.10156-.04687.0586-.08594.10547-.04688.02734-.11718.03125-.11719.02734-.1211.03125-.11718v-.14844l.01563-.13281-.03125-.11719-.04297-.10547-.10547.01563-.07422.07422-.10156.04296-.08984.0625-.07422.07422-.04297.10157-.01563.1328-.03125.1172L304.25 426l-.03125.11719-.02734.11719-.03125.12109-.02735.11719-.03125.11718-.04297.10547-.08984.0586h-.08984l-.1172-.03125-.03124-.08594.01562-.13672-.03125-.11719v-.14844l-.01171-.1328v-.14844l-.0625-.23438-.02735-.1211-.04297-.10156-.04687-.10546-.0586-.08594-.05859-.08985-.04297-.10546-.0625-.08594-.14844-.14844-.0703-.07422-.10548-.04687-.10547-.04297-.10156-.04297-.29687-.29688-.08985-.07421-.08594-.0586-.10546-.04297-.08985-.0625-.08594-.0586-.10546-.04296-.08985-.0586-.08594-.0625-.07421-.0703-.10547-.04688-.08594-.0586-.10547-.04296-.08984-.0625-.10156-.04297-.10547-.04297-.08594-.0586-.10547-.04687-.10547-.04297-.10156-.04687-.08985-.0586-.10156-.04297-.10547-.04296-.08984-.0625-.11719-.02735-.13281-.01562-.13281.01562H299.75l-.13281.01563-.11719-.03125-.08984-.0586-.07422-.07422-.08985-.05859-.10156-.04688h-.14844l-.12109-.02734-.10156-.04297-.07422-.07422-.11719-.17968-.08984-.0586-.10156-.04297-.08985-.0625-.10547-.04296-.08984-.0586-.08594-.0586-.10547-.04687-.0586-.08594-.05858-.08984-.04297-.10547-.04688-.10156-.07422-.07422-.08594-.0586-.07421-.07421-.08985-.0586-.22265-.22265-.04297-.10547-.03125-.26563.10547-.04296h.14453l.10547.04296.07421.07422.08985.0586.08594.0586.10546.04687.08985.05859.14844.14844.0703.07422.14845.14843.0625.08594.07421.07422.08594.0586.07422.07421.08985.0625.08984.0586.08594.05859.26953.17578.10156.04688.10547.04296.10156.04297.04688-.07421.05859-.08594.07422-.07422.07031-.07422.10547.04297.07422.07422.0586.08984.04296.10156.04688.10547.04296.10547.1211.02735.11719-.02735.07421-.08984.04297-.10547.0586-.08985.07422-.07421.10546-.04297.1172-.02735.1328.01172.08985.0586.14844.14843.05859.08985.04297.10547.04687.10156.04297.10547.04297.10156.10547.04688.10547.04296.13281.01563.08594-.0586.0586-.08984.07421-.07422.10547-.04297.11719.02735.10547.04687.10156.04297.10547.04297.10156.04688.17969.11718v.11719l-.01563.13281.01563.13281.01562.13672.0586.08594.10156.04688.1211.02734.11718.03125h.14844l.11719-.03125.05859-.08984.17969-.1172.05859-.08983.07422-.07422.0586-.08594.11718-.17969.17969-.11719.11719.03125.08984.0586.04297.07422-.01563.1328v.1172l.08985.05859h.14843l.13282-.01563.1328-.01171.26563-.03125.10547-.04297.11719-.03125.1211-.02735.07421-.07421.07031-.07422.0625-.08985-.01562-.10547-.04688-.10156-.10156-.04297-.10547-.01562-.11718.02734-.26563.03125h-.14844l-.07421-.07422-.08985-.0586-.11719-.03124-.11718-.02735-.13282-.01562h-.14843l-.13282.01563h-.29687l-.10547-.04688-.14844-.14844-.04297-.10156-.05859-.08984.22266-.22266.08593-.0586.10547-.04296.11719-.03125.13281-.01563.13281.01563.13672.01562.10157.04297.1328-.01172.08985-.0625.10156-.04297.0625-.08984-.04687-.10156-.08984-.0586-.1172-.03125-.10155-.04296-.0586-.08985-.0625-.08984v-.11719l.01563-.13281.10547-.04688.07421-.07031v-.1211l-.08984-.05859-.03125-.11719.08985-.05859.07421-.07422.04297-.10547.0586-.08984.04687-.10156.01563-.13281v-.14844l-.04688-.10547-.04297-.10156-.08984-.0586-.13281-.01562-.10157-.04297-.13671-.01563-.1172-.03125h-.4453l-.13282-.01562-.13281-.01172-.13281-.01563-.11719-.03125h-.14844l-.13281-.01562-.13281-.01172-.26563-.03125-.1211-.04297-.08593-.0586-.07422-.07421v-.14844l.01172-.13281.10547-.04688.10156-.04296.13281-.01563h.15235l.13281-.01562h.29297l.1211.03125.10156.04296.08984.0586.23438.0625.12109-.04688.08984-.05859.10156-.04297.13282-.01562.10547.04296.10156.04688.13281.01172.1211-.02735h.14453l.12109-.03125.11719-.02734.10547-.04687.07421-.07422.08594-.0586.14844-.14843.0586-.08594.04687-.10547.02734-.11719.01563-.10547-.10156-.04296-.08985-.0586-.11719-.03125-.10546-.04297-.08985-.0625-.07422-.08594-.07422-.07421-.10156-.04297-.10547-.04688-.10156-.04297-.0586-.08984-.04687-.10156-.08594-.21094-.0625-.08594-.05859-.08984-.07422-.07422-.08594-.0586h-.26953l-.11719.03126-.08984.05859-.10156.04297-.13281.01562-.10547-.01562-.02735-.11719-.0625-.08984-.11718-.03125-.10157-.04297-.14843-.14844-.03125-.11719-.01563-.10546.07422-.07422.17969-.1172.11719-.02733.11718-.03125.13672.01562.10156.04297.10547.04297.10156.04687.10547.04297.1172.03125.1328.01563.1172.02734.1328.01563.10547-.01563.08985-.0586-.07422-.07421-.10547-.04297-.07422-.07422-.07422-.08984-.14844-.14844-.08593-.0586-.08985-.05859-.07422-.07422-.08984-.0586-.10156-.04687-.1211-.02734-.10156-.04688-.10547-.04296-.11719-.03125-.10156-.04297-.1211-.03125h-.14843l-.11719.03125-.10546.04297-.08594.0625-.17969.11718-.08594.0586-.08984.0586-.10547.04687-.08594.05859-.10547.04297-.10156.04297-.10547.04687-.07422.07422-.05859.08985-.0586.08593-.04687.10547-.0586.08594-.07421.07422-.13281-.01172-.1172-.03125h-.11718l-.07422.07422-.08984.0586-.07422.07421-.08984.0586-.08594.05859-.10547.04687-.10156.04297-.13672.01563-.10156-.04297-.14844-.14844-.10547-.04688h-.08594l-.10547.04688-.10156.04297-.1211.03125-.11718-.03125-.07422-.07422v-.11719l.03125-.1211.07422-.0703.0586-.08985.07421-.07422.11719-.03125.10547-.04296h.29297l.13281-.01563.13672-.01563.10156-.04296.08985-.0586.10156-.04687.08984-.0586.13281-.01171.08985.05859.13281.01172.08984-.0586.08594-.05859.10547-.04297.08984-.0586.08594-.0625.08985-.05859.14843-.14843.0586-.08594.05859-.08985.10547-.04296.13281-.01563.11719.02735.1211.03125.05859-.0586.05859-.08984.03125-.26563.02734-.11719.10547.01172.13281.01563.10157-.04297.08984-.0586.0586-.08984.07421-.07422.0586-.08984.04687-.10156.01172-.13281-.01172-.13282-.04687-.10547-.14844-.14843-.0586-.08985-.05859-.08594-.04297-.10546v-.44532l.01563-.1328v-.14845l.01172-.1328-.0586-.0586-.08984.0586-.10156-.04298-.17969-.11719-.08594-.05859-.0625-.08984-.0586-.08985-.07421-.07421-.08594-.0586-.1211.03125-.10155.01172-.10547.04688-.08594.05859-.10547.04297-.14844.14844-.08984.05859-.08594.0586-.08984.0625-.10547.04296-.13281.01563v-.1211l.10547-.04297.11718-.03125.07422-.0703.04297-.10548v-.14844l-.02734-.11718-.14844-.14844-.13281-.01563h-.14844l-.11719.03125-.10547.04297-.10156.04297-.08984.0625-.11719.02735-.07422-.07422.01172-.13281-.04297-.10157-.04297-.10547-.08984-.05859-.11719.02734-.1211.03125-.11718.03125-.10156.04297-.1211.03125-.10156.04297-.10547.04297-.08984.0586-.10156.01562v-.11719l.01562-.13281-.0586-.08985-.07421.04297-.14844.14844-.0586.08985-.07421.07421-.04688.10547-.04296.10156-.07422.07422-.0586.08985-.07422.07422-.05859.08593-.07422.07422-.08984.0625-.07422.07031-.07422.07422-.10156.01563-.13281.01562-.10547-.04296v-.1211l.14843-.14844.04297-.10156.0586-.08984.04687-.10156.04297-.10547.0586-.08985.03124-.11719.04297-.10156.03125-.1211.02735-.11718.04687-.10547.04297-.10156.04297-.10547.07422-.07031.08984-.0625.08985-.0586.10156-.04296h.29687l.26563-.03125.10547-.04297-.07422-.07422-.11719-.03125-.10547-.04297-.08984-.0586-.10156-.04687-.08985-.0586-.10156-.04296-.10547-.04297-.08984-.0625-.08594-.0586-.10547-.04296-.10156-.04297-.1211-.03125-.11718-.03125-.10157-.04297L297.5 410.25l-.10156-.04297-.08985-.0586-.04296-.10546-.01563-.13281.10156-.04297.13281-.01563.13672.01563.13282-.01563.10156-.04297.0586-.08984.01562-.10547-.08985-.0586-.07421-.07421-.10157-.04297-.08984-.0586-.14844-.14843-.04297-.10547-.01562-.13281v-.29297l-.0586-.08985-.08984-.05859-.07422-.07422-.04297-.10547-.03125-.11718-.0586-.08985-.07421-.07422-.11719-.02734-.07422-.07422-.08984-.0586-.08984-.0625-.08594-.05859-.07422-.07421-.0586-.08594-.04687-.10547-.08594-.0586-.14843-.14843-.19532-.0586-.1328.01563-.10157.04297-.07422.07422-.04688.10156-.04296.10547-.0586.08984-.0586.08594-.29687.29687-.08984.0586h-.08594l-.0625-.08594-.04297-.10547.03125-.11719.0586-.08984.02734-.11719-.01172-.13281-.08984-.0625-.10547.04688-.11719.02734-.11719.03125-.26953.17578-.10156.04688-.11719.02734-.10546.04687-.08985.0586-.10156.04297-.0586-.08594-.04687-.10547.01563-.13281.04687-.10547.07031-.07422.07422-.07031.0586-.08985v-.14843l-.04297-.10547h-.23829l-.10156.04687-.03125.11719-.02734.11719-.03125.1211-.07422.04296-.13281.01563-.07422-.04688-.04297-.10156-.04297-.10547-.04687-.10156-.04297-.10547-.1211.03125-.10156.04297-.13281.01562-.11719.03125-.10547.04297-.08984.0586-.10156.04687-.1211.02734-.13281.01563-.10156-.04297-.0586-.08985-.04687-.10546-.04297-.10157-.04297-.10546v-.1172l.0586-.08984.08593-.05859.17969-.11719.10156-.04687.10547-.04297.10547-.0586.10156-.04296.08985-.0625.10156-.04297.10547-.0586.10156-.04687.08984-.0586.10547-.04296.10156-.04297.08985-.0625.10156-.04297.13672-.01563.11719.03125.10156.04297.1211.03125.10156.04297.10546.04688.10157.04296.10547.04297.10156.04688.10547.04297.10156.04297.10547.04687.08594.0586.10546.04296.1172.03125.10546.04297.10156.04688.08985.0586.10547.04296.10156.04297.10547.04687.11719.02735.10156.04687.1211.02735h.14843l.08594-.0586.01562-.10156.0586-.08984-.02735-.1172-.07422-.07421-.11719-.17969-.07421-.07422-.08985-.07421-.17969-.1172-.08593-.05859-.10547-.04296-.10156-.04688-.26954-.17578-.05859-.08985-.07422-.07421-.0586-.08985-.04296-.10156-.03125-.11719-.01563-.13672v-.5625l-.01171-.1328-.01563-.13282-.03125-.11719-.01562-.13281-.01172-.13281-.03125-.1211-.22266-.22265-.0586-.08594-.01562-.10547.03125-.11719.13281-.01562v-91.41406H172.9922v1.45312l-.0586.23438-.35156 1.05078-.17187.52343-.1172.34766-.17577.41016-.11719.17187-.23438.29297-.23046.0586h-.35157l-.11718.05859-.23047.40625v.29297l.11719.17578.23046.23047.1172.23437.64062.75781.29297.46485.17578.23437.23047.35156.23437.34766.64063.8164.17578.46485.17187.41016.11719.69531.17578.46875.11719 1.39844.0586.46484v.875l.11718 1.04688v4.78125l-.0586.46484-.35156 1.28125-.17578.52344-.11328.41015-.35156.9297L172.93359 336l-.23437.58203-.11719.17578-.17187.34766-.17578.40625-.35157.8164-.0586.29297-.11327.29297-.11719.28906-.0586.17579-.11718.875-.0586.40625-.05859.11718-.0586.17579-.05859.17187-.23047.52734-.11718.17188v.23437l-.11719.23438-.0586.17187-.17577.58594v.28906l-.0586.17579v.29296l-.0586.11329-.05859.52734v.17187l-.05468.23438v2.6211l-.17578.8164-.1172.17578-.17577.23438-.1172.17187-.11327.23438-.58594.93359-.23047.28906-.29297.46485-.17578.23437-.28906.35156-.35156.69922-.11328.23047-.17579.41016-.17578.23046-.40625.52735-.8164.69922-.29297.17187-.28906.23438-.17579.11719-.17578.17578-.52344.40625-.52734.17578-.17187.17578-.23438.05469-.64062.17578h-.75782m12.21094 31.02344l-1.07422.44921.35938.89454 1.25-.71485.44531-.53906-.98047-.08985"/><path fill="#d3d3d3" fill-opacity="0" fill-rule="evenodd" d="M201.50781 416.59766h-.89453l.44922.6289.98047.35938.80469-.08985.4453-.98828-.17577.08985-.71485-.35547-.89453.35547m154.6211 59.0703l-.0586-.52343v-.29297l.11328-.29297.0586-.23046.46875-.46875h.11328l.11719-.11329.11718-.05859h.17579l.23437-.0586h.34766l.23437.0586.11719.0586.23047.17187.0586.17578.11718.58203v.29297l-.11719.17578-.17187.28906-.17579.17579-.52734.52343-.23047.23438-.11719.0586h-.17578l-.11718-.0586-.40625-.29297-.17579-.11719-.11718-.0586-.0586-.11327-.05468-.1172m6.64062-10.95702l-.0586-.17188v-1.10937l.0586-.17188.17578-.0586.17188-.05858h.17578l.23437-.0586.1172.0586.05858.69921-.05859.17188-.11719.17578-.11718.0586-.23438.52343-.11328.0586h-.23438l-.05859-.1172m9.61328-14.39062l-.11719-.17578v-.69922l.29297-.875.1172-.17187.17577-.35156.11328-.23047.1172-.29297.35155-.75781.1172-.23047.17187-.23438h.17578l.11719-.0586h.64062l.11719.0586.23437.23438.17188.11328.35156.29297.11719.11718.11328.17579v.11328l.11719.05859.11718.11719v.69922l-.05859.17578v.23047l-.0586.17578-.34765 1.05078-.11719.23047-.11719.23437-.11718.0586-.23047.23437-.64063.28906h-.875l-.41015-.11718-.64063-.46485"/><path fill="none" stroke="#bebebe" stroke-linecap="round" stroke-linejoin="round" stroke-miterlimit="10" stroke-width=".5" d="M467.95703 311.69531H144.02734v168.625h323.9297v-168.625"/><g clip-path="url(#a)"><path fill="#fff" fill-opacity="0" fill-rule="evenodd" d="M144 475.89063v4.4375h.0039H144V311.67188h.0039H144v164.21875"/></g><g clip-path="url(#b)"><path fill="#fff" fill-opacity="0" fill-rule="evenodd" d="M144.0039 480.32813V311.67188h17.75v118.30078l-2.29296 1.53515-2.14453 1.875-3.28125 2.5625 3.28125 1.66406 2.30078-1.66406 2.13672-2.41015 3.66406-2.02735-3.66406-1.53515V311.67187h17.7539v55.03516l-2.66406 2.66406-1.77734 2.1875-2.34766 2.25 2.34766 2.25 4.4414.4297 3.17969-2.6797-.1289-4.4375-3.05079-2.66406v-55.03515h31.0664v58.40234l-4.4375 2.13672-1.66015 1.59765-2.39062 4.4375-.38672.75782-4.4375 2.59375-1.10156 1.08593-2.47266 4.44141-.86719 1.42969-2.78125 3.00781-.6211 4.4375-1.03515 4.35547-.03906.08203-3.17578 4.4375-1.22266.73047-3.21484 3.71094-.6289 4.4375-.59376 1.51953-2.64453 2.91797-1.5586 4.4375 4.20313 3.66796 4.4375.0586 4.4375-2.21094 1.54297-1.51562 2.89453-1.83594 3.1289-2.60156 1.3125-.5625 3.87892-3.875.55859-1.42579 2.1914-3.01171 2.2461-3.39063 4.4375.91016 2.20703 2.48047 2.23438 1.5625 4.4375 2.20703.91015.66797 3.52734 2.38671 4.4375-.01562 4.4375-.61719 4.44141.3789 1.07813-2.1328-1.07813-2.00391-1.19922-2.4336 1.19922-1.96093 2.00781-2.48047 2.4297-.77734 3.43358-3.66016L243.1211 396l-1.47656-1.4375-4.4375.84375-4.35156-3.84375 3.61328-4.4375-3.70313-3.00781-1.58203-1.4336-2.85547-2.4414-4.4375 1.02344-3.6289-3.01954 1.99219-4.4375-2.80078-2.63671-4.4375-.64454-4.44141-.45312v-58.40235h71.01562v51.44532l-4.4375.70312-2.05078 1.11328-2.39062.60938-3.21485 3.82812.3086 4.4375-1.53125 2.22266-4.4375-1.13672-3.35547 3.35156-1.08203 2.61329-1.85547-2.61329-2.58594-2.54687-2.84766 2.54687-1.58984.82422-4.2461 3.61328 4.2461 3.64454 1.1836.79687 3.2539 3.58203 4.4414.42578 1.19532.42969 3.24219 2.14844 4.4375-.10156 2.05078-2.04688 2.38672-.80469 4.4414-1.15234 2.3711-2.48047-2.3711-3.97656-.1914-.46485.1914-.55468 4.4375-2.41407 3.55079-1.46875.88671-.15625 4.4375-1.3789 4.4375.07812 1.97657-2.98047 1.40234-4.4375-3.3789-3.2578-4.4375-.03517-4.4375-.07812-2.73438-1.0664-1.70313-1.81641v-51.44531h57.69922v50.5703l-3.29687 2.69141 3.29687 3.32422 4.4375-.46094v6.02344l-4.4375 1.94922-1.375 2.47656 1.375 1.02735 4.4375 2.76953v2.82812l-4.4375.01954-3.89062 2.23437-.55078.58203-2.32813 3.85547 2.32813 3.6289 1.2578.8086-1.2578 3.3086-.46485 1.1289.46485.27734 4.4414 1.66016 4.4375-1.82813 4.4375.21094 4.4375 2.14844 4.14063-2.46875-4.14063-2.9375-4.4375 2.66797L345.21094 396l-1.48438-2.14453-1.11719-2.29297 1.1172-2.07422 1.26952-2.36328-1.26953-2.2539v-2.82813l3.10938-3.79688-3.10938-4.42578v-6.02344l1.8789-2.86328-1.8789-2.40625-4.4375-.28515v-50.57031h13.3125v26.54296l-.17187.08594.17187.10156v51.32422l-1.80469 1.83594 1.8047 3.1914 1.96484-3.1914-1.96485-1.83594v-51.32422l.20313-.10156-.20313-.08594v-26.54296h8.8789v101.5625l-.5625.51953-3.875 1.58984-2.76562 2.84766.95704 4.4375-.48829 4.4414 2.29688 4.14453 2.76172-4.14453 1.67578-.50781 3.78906-3.9336-.98047-4.4375-2.19922-4.4375-.60937-.51952v-101.5625h8.875v77.79687l-2.09766 2.09375.32031 4.4375 1.77735 1.53125v38.63672l-3.71094 4.21484-.48828 4.4375 3.65234 4.4414.54688.51563.40234-.51562 4.03516-.6914 3.75-3.75-3.75-3.79688-.76563-.64063-3.67187-4.21484v-38.63672l4.4375.4414L376.78125 396l-1.98828-3.375-.59375-1.0625-3.84375-2.09375v-77.79688h22.1914v87.94532l-1.68359.82031-2.7539.84375-4.4375 1.98828-4.4375 1.53906-.0547.06641-1.66406 4.4414 1.71875 2.0625 4.4375 1.78126.61329.59375-.61329 1.28906-4.4375.33984-4.4414-.1836-3.96094 2.9922 3.96094 3.3203 4.4414-1.75 4.4375 2.39454.19141.47266-.1914 1.49218-.72657 2.94922.72656 1.89063.73047 2.54687-.73046 3.07031-.4922 1.3672.4922.46484v13.9414l-4.4375.5664-3.31641 2.78126-.0039 4.4375-.35938 4.4375 3.67969 3.45703 3.08593-3.45703.42969-4.4375.92188-.67578 3.83593-3.76172-3.83594-3.34766v-13.9414l.56641-.46485 3.8711-1.66406 4.4375 1.0625 4.4375.59375.03515.00781 4.40625 2.69922 3.67188-2.69922.76562-1.17969 4.4375-3.07421.1836-.1836 2.0664-4.4375-2.25-3.84375-2.71484-.59765-1.72266-.375-4.4375-1.7461-2.36328 2.1211-2.07813.71875-4.4375.36718-1.33593-1.08593-.3125-4.4375 1.60156-4.4375.04688-.54297.71875-3.89453.80859-4.44141-.44531-4.4375-1.08204-.82031v-87.94531h26.63282v130.03906l-3.08594 3.10937-.95313 4.4414-.40234 2.7422-.74219 1.6953-2.60937 4.4375-1.08594 3.2422-.57031 1.1953.57031.58204.65235-.58203 3.78515-1.8125 4.26172-2.625.17969-.08985 3.22265-4.34765.19141-4.4375-.34766-4.4414-3.0664-3.10938V311.67188h13.3125v110.74609l-.36719.21094.36719.21093.21094-.21093-.21094-.21094v-110.7461h35.5039v168.65625H144.00391"/></g><path fill="#50fcfc" fill-rule="evenodd" d="M157.3164 437.60938l-3.28124-1.66407 3.28125-2.5625 2.14453-1.875 2.29297-1.53515 3.66406 1.53515-3.66406 2.02735-2.13672 2.41015-2.30078 1.66406m17.75-61.55078l-2.34766-2.25 2.34766-2.25 1.77734-2.1875 2.66406-2.66406v2.95313l-.19922 4.14843.19922.03907.04688-.03907-.04688-4.14843v-2.95313l3.05078 2.66406.12891 4.4375-3.17969 2.6797-4.4414-.4297m4.4414 50.23829l-4.20312-3.66797 1.5586-4.4375 2.64452-2.91797.59375-1.51953.6289-4.4375 3.21485-3.71094 1.22266-.73047 3.17578-4.4375.03906-.08203L189.41797 396l.6211-4.4375 2.78124-3.00781.86719-1.42969 2.47266-4.4414 1.10156-1.08594 4.4375-2.59375.38672-.75782 2.39062-4.4375 1.66016-1.59765 4.4375-2.13672v1.41015l-3.21484 2.32422-1.22266.42188-3.46875 4.01562-.96875 1.90235-3.28125 2.53515-1.15625 1.78125-1.92969 2.66016-2.51172 4.15234-.26172.28516.26172 2.40234.22656 2.03516-.22656.3789-2.16406 4.0586-.90625 4.4375-1.36719 1.97266-3.35547 2.46875-1.08203 1.11328-1.6289 3.32422.79297 4.4375.83593 1.08593 4.4375 1.17188 3.16406-2.25781 1.27344-.52735 4.4414-1.97265 1.9375-1.9375 2.13282-4.4375-4.07031-4.37891-.1836-.0625-.3203-4.4375.5039-.30078.28516.30078 4.15234 4.28125 4.4375-.82422 4.4375-2.5664.4336-.89063L212.6914 396l-2.1172-3.00781-4.4375-.52735-3.41405-.90234 3.41406-4.22266v3.9297l-.23438.29296.23438.0625.92969-.0625-.9297-.29297v-3.92969l.50392-.21484 3.59375-4.4414.33984-.20704 4.4414-2.0586 2.34375-2.17187 1.75-4.4375-4.09375-1.49609-4.4414-.82813v-1.41015l4.4414.45312 4.4375.64454v8.1328l-4.4375 3.26563-.28515.11328.28516.04688 4.4375.24219 2.67187-.28907-2.67188-3.3789v-8.13281l2.80079 2.63671-1.9922 4.4375 3.62892 3.01954 4.4375-1.02344v2.85547l-4.4375.74609-4.4375.01953-4.4375-.25-4.00782 3.51172 4.00781 3.66797 4.4375.60547.53516.16406 3.90234 1.80078 4.4375.3086 2.65625-2.10938 1.50391-4.4375-4.16016-4.02734v-2.85547l2.85547 2.4414 1.58203 1.4336v7.54687l-4.4375 3.44531h-4.4375l-4.4375-1.04296-4.4375-1.60938L214.08984 396l-.67578 4.4375-.52344 4.4375 2.125 1.85156 4.4375-.9961 3.03125-.85546 1.40625-.71094v4.05078l-4.4375.71094-.70703.39063.70703.40625 4.4375 2.04296 3.90625-2.44921-3.90625-1.10157v-4.05078l4.4375-.22265 4.4375-1.25391 1.5547-2.25L236.52343 396l-3.75781-4.33594v-7.54687l3.70312 3.00781-3.61328 4.4375 4.35156 3.84375 4.4375-.84375v4.52344l-4.4375.88672-.27734.46484.27734.53516 4.4375.3164.79688-.85156-.79688-1.35156v-4.52344L243.1211 396l1.95703 4.4375-3.43359 3.66016-2.42969.77734-2.0078 2.48047-1.19923 1.96094 1.19922 2.43359 1.07813 2.0039-1.07813 2.13282-4.4414-.3789-4.4375.61718-4.4375.01563-3.52735-2.38672-.91016-.66797-4.4375-2.20703-2.23437-1.5625-2.20703-2.48047-4.4375-.91016-2.2461 3.39063-2.1914 3.01171-.5586 1.42579-3.8789 3.875-1.3125.5625-3.1289 2.60156-2.89454 1.83594-1.54297 1.51562-4.4375 2.21094-4.4375-.0586"/><path fill="#00e8fc" fill-rule="evenodd" d="M179.50781 373.84766l-.19922-.03907.19922-4.14843.04688 4.14843-.04688.03907m3.60156 44.34375l-.79296-4.4375 1.6289-3.32422 1.08203-1.11328 3.35547-2.46875L189.75 404.875l.90625-4.4375 2.16406-4.0586v9.9336l-1.79687 3.0039-2.64063 3.00391-1.39844 1.4336 1.39844 1.43359 4.4375-.36328 2.15625-1.07031 2.28516-.89454 2.4961-3.54296-2.4961-2.6875-4.4414-.31641v-9.9336l.22655-.3789-.22656-2.03516-.26172-2.40234.26172-.28516 2.51172-4.15234 1.92969-2.66016 1.15625-1.78125 3.28125-2.53515.96875-1.90235 3.46875-4.01562 1.22266-.42188 3.21484-2.32421v2.35546l-4.4375 1.51954-2.4961 2.88671-1.9414 3.8086-.8164.6289.8164 1.81641 4.4375-.26563 1.39844-1.55078 3.03906-1.84765 3.55078-2.58985-3.55078-4.40625v-2.35546l4.4414.82812 4.09375 1.4961-1.75 4.4375-2.34375 2.17187-4.4414 2.0586-.33984.20702-3.59375 4.44141-.50391.21484-3.41406 4.22266 3.41406.90234v1.39844l-4.4375.64844L197.35547 396l4.14844 4.4375.1953.20313 4.4375 1.22656 1.95704-1.42969L210.32422 396l-4.1875-2.13672v-1.39844l4.4375.52735L212.6914 396l-1.6836 4.4375-.4336.89063-4.4375 2.5664-4.4375.82422-4.15233-4.28125-.28516-.30078-.5039.30078.3203 4.4375.1836.0625 4.07031 4.3789-2.13281 4.4375-1.9375 1.9375-4.4414 1.97266-1.27345.52735-3.16406 2.2578-4.4375-1.17187-.83594-1.08593"/><path fill="#00d4fc" fill-rule="evenodd" d="M188.38281 415.1875l-1.39844-1.4336 1.39844-1.43359 2.64063-3.0039 1.79687-3.00391 4.4414.3164v1.69141l-2.14062.9961 2.14063 1.30859.92187-1.3086-.92187-.99609v-1.6914l2.4961 2.6875-2.4961 3.54296-2.28516.89454-2.15625 1.0703-4.4375.36329"/><path fill="#00c4fc" fill-rule="evenodd" d="M197.26172 410.625l-2.14063-1.3086 2.14063-.99609.92187.9961-.92187 1.30859"/><path fill="#00d4fc" fill-rule="evenodd" d="M201.5039 400.4375L197.35548 396l4.34375-1.48828 4.4375-.64844v1.39844L204.04688 396l2.08984 2.84375L207.58594 396l-1.44922-.73828v-1.39844L210.32422 396l-2.23047 4.4375-1.95703 1.42969-4.4375-1.22656-.19531-.20313m.1953-15.9375l-.8164-1.8164.8164-.62891 1.94142-3.8086 2.49609-2.88671v1.125l-1.52344 1.76171 1.52344 3.39454 4.4375-2.44532 1.30469-.94922-1.3047-1.61718-4.4375-.14454v-1.125l4.4375-1.51953 3.55079 4.40625-3.55078 2.58985-3.03906 1.84765-1.39844 1.55079-4.4375.26562"/><path fill="#00c4fc" fill-rule="evenodd" d="M206.13672 398.84375L204.04688 396l2.08984-.73828 1.44922.73828-1.44922 2.84375m0-17.20313l-1.52344-3.39453 1.52344-1.76171v1.125l-.55078.63671.55078 1.22657 2.54297-1.22657-2.54297-.63671v-1.125l4.4375.14453 1.30469 1.61718-1.3047.94922-4.4375 2.44531"/><path fill="#00b8fc" fill-rule="evenodd" d="M206.13672 379.47266l-.55078-1.22657.55078-.63671 2.54297.63671-2.54297 1.22657"/><path fill="#fff" fill-opacity="0" fill-rule="evenodd" d="M206.13672 391.26953l-.23438.29297.23438.0625.92969-.0625-.9297-.29297"/><path fill="#00e8fc" fill-rule="evenodd" d="M215.01563 390.79297l-4.00782-3.66797 4.00781-3.51172v1.46875l-2.32812 2.04297 2.32813 2.13281 4.4375.19922 4.4375-.25 4.4375 1.82422 1.92968-3.90625-1.92969-1.86719-4.4375 1.03516-4.4375-.94922-4.4375-.26172v-1.46875l4.4375.25 4.4375-.01953 4.4375-.7461 4.16016 4.02735-1.5039 4.4375-2.65625 2.10938-4.4375-.3086-3.90235-1.80078-.53516-.16406-4.4375-.60547"/><path fill="#00d4fc" fill-rule="evenodd" d="M215.01563 389.25781l-2.32813-2.13281 2.32813-2.04297v1.47266l-.65235.57031.65234.59375 4.4375-.20703 1.03125-.38672-1.03125-.30078-4.4375-.26953v-1.47266l4.4375.26172 4.4375.94922 4.4375-1.03516 1.9297 1.86719-1.9297 3.90625-4.4375-1.82422-4.4375.25-4.4375-.19922"/><path fill="#fff" fill-opacity="0" fill-rule="evenodd" d="M213.41406 400.4375l-.52344 4.4375 2.125 1.85156 4.4375-.9961 3.03125-.85546 1.40625-.71094 4.4375-.22265 4.4375-1.25391 1.5547-2.25L236.52343 396l-3.75781-4.33594-4.4375 3.44531h-4.4375l-4.4375-1.04296-4.4375-1.60938L214.08983 396l-.67578 4.4375"/><path fill="#00c4fc" fill-rule="evenodd" d="M215.01563 387.71875l-.65235-.59375.65234-.57031 4.4375.26953 1.03125.30078-1.03125.38672-4.4375.20703"/><path fill="#fff" fill-opacity="0" fill-rule="evenodd" d="M215.01563 382.57031l-.28516.11328.28516.04688 4.4375.24219 2.67187-.28907-2.67188-3.3789-4.4375 3.26562"/><path fill="#00e8fc" fill-rule="evenodd" d="M219.45313 409.72266l-.70704-.40625.70703-.39063 4.4375-.71094 3.90625 1.10157-3.90625 2.44921-4.4375-2.04296m17.75391-8.75l-.27734-.53516.27734-.46484 4.4375-.88672.79688 1.35156-.79688.85156-4.4375-.3164"/><path fill="#50fcfc" fill-rule="evenodd" d="M250.51953 386.32813l-4.2461-3.64454 4.2461-3.61328 1.58984-.82422 2.84766-2.54687 2.58594 2.54687 1.85547 2.61329 1.08203-2.61329 3.35547-3.35156 4.4375 1.13672v5.55469l-.5 1.09765.5.47657.42187-.47657-.42187-1.09765v-5.55469l1.53125-2.22266-.3086-4.4375 3.21485-3.82812 2.39062-.60938 2.05078-1.11328 4.4375-.70312v2.96484l-4.4375.28906-4.4414 2.23047-.64453.76953.12109 4.4375.04297 4.4375-1.52735 4.4375-2.42968 2.73829-2.88281-2.73829 1.70703-4.4375-3.26172-1.67187-1.67188 1.67187-.73828 4.4375-2.02734 1.60157-.61328-1.60157-3.82813-4.30859-4.4375 2.33984-2.3164 1.96875 2.3164 1.98829 3.64453 2.45312.79297.8711 4.4414 1.10546 2.4375-1.97656 2-2.4414 2.28516 2.4414 2.15235 2.8164 4.4375-.39843 3.97265-2.41797-1.84765-4.4414-1.66016-4.4375 3.97656-.84376 4.4375-.96093 4.4375-.28125 4.12891-2.35157.3086-.46875 4.4375-1.49609 1.32421-2.47266-1.32422-1.27343-4.4375-.16016-4.4375-.27344-4.4375-1.58203v-2.96484l1.70313 1.8164L286.02734 366l4.4375.07813 4.4375.03515 3.37891 3.25781-1.40234 4.4375-1.97657 2.98047-4.4375-.07812-4.4375 1.3789-.88671.15625-3.55079 1.46875-4.4375 2.41407-.1914.55468.1914.46485 2.3711 3.97656-2.3711 2.48047-4.4414 1.15234-2.38672.80469-2.05078 2.04688-4.4375.10156-3.24219-2.14844-1.19531-.42969-4.4414-.42578-3.25392-3.58203-1.18359-.79688"/><path fill="#00e8fc" fill-rule="evenodd" d="M250.51953 384.67188l-2.3164-1.98829 2.3164-1.96875 4.4375-2.33984v2.09766l-3.5039 2.21093 3.5039 2.51563 1.96484-2.51563-1.96484-2.21093V378.375l3.82813 4.3086.61328 1.60156 2.02734-1.60157.73828-4.4375 1.67188-1.67187 3.26172 1.67187-1.70704 4.4375 2.88282 2.73829 2.42969-2.73829 1.52734-4.4375-.04297-4.4375-.1211-4.4375.64454-.76953v17.0625l-1.16797 1.46094 1.16797.39453.65234-.39453-.65234-1.46094v-17.0625l4.4414-2.23047v2.89454l-.18359.10546.1836 2.25 4.4375-1.95312.3164-.29688-.3164-.09375-4.4375-.01171v-2.89454l4.4375-.28906 4.4375 1.58203 4.4375.27344 4.4375.16016 1.32421 1.27343-1.32422 2.47266-4.4375 1.4961-.30859.46874-4.1289 2.35157-4.4375.28125-4.4375.96093-3.97657.84375 1.66016 4.4375 1.84765 4.44141-3.97265 2.41797-4.4375.39844-2.15235-2.81641-2.28515-2.4414-2 2.4414-2.4375 1.97656-4.4414-1.10547-.79298-.87109-3.64453-2.45313"/><path fill="#00d4fc" fill-rule="evenodd" d="M254.95703 385.19922l-3.5039-2.51563 3.5039-2.21093v2.09765l-.17969.11328.1797.13282.10546-.13282-.10547-.11328v-2.09765l1.96484 2.21093-1.96484 2.51563"/><path fill="#00c4fc" fill-rule="evenodd" d="M254.95703 382.8164l-.17969-.1328.1797-.11329.10546.11328-.10547.13282"/><path fill="#fff" fill-opacity="0" fill-rule="evenodd" d="M268.27344 381.58594l-.5 1.09765.5.47657.42187-.47657-.42187-1.09765"/><path fill="#00d4fc" fill-rule="evenodd" d="M272.71094 387.51953l-1.16797-.39453 1.16797-1.46094.65234 1.46094-.65234.39453m4.4414-15.89844l-.18359-2.25.1836-.10546 4.4375.01171.3164.09375-.3164.29688-4.4375 1.95312"/><path fill="#50fcfc" fill-rule="evenodd" d="M334.84766 395.1914l-2.32813-3.6289 2.32813-3.85547.55078-.58203 3.89062-2.23438 4.4375-.01953 1.26953 2.25391-1.26953 2.36328-1.11719 2.07422 1.1172 2.29297L345.21093 396l2.95312 4.16797 4.4375-2.66797 4.14063 2.9375-4.14063 2.46875-4.4375-2.14844-4.4375-.21094-4.4375 1.82813-4.4414-1.66016-.46485-.27734.46485-1.1289 1.2578-3.3086-1.2578-.8086m4.4414-26.93359l-3.29687-3.32422 3.29687-2.6914v2.63281l-.07031.0586.07031.0664.17188-.0664-.17188-.0586v-2.63281l4.4375.28515 1.8789 2.40625-1.8789 2.86329-4.4375.46093m0 11.01563l-1.375-1.02735 1.375-2.47656 4.4375-1.94922v2.91406L342 378.2461l1.72656 1.29688 1.0625-1.29688-1.0625-1.51171v-2.91407l3.10938 4.42578-3.10938 3.79688-4.4375-2.76953"/><path fill="#00e8fc" fill-rule="evenodd" d="M339.28906 365l-.07031-.0664.07031-.0586.17188.0586-.17188.0664m4.4375 14.54297L342 378.24609l1.72656-1.51171 1.0625 1.51171-1.0625 1.29688"/><path fill="#50fcfc" fill-rule="evenodd" d="M352.60156 394.7539l-1.80469-3.1914 1.8047-1.83594 1.96484 1.83594-1.96485 3.1914m0-56.35156l-.17187-.10156.17187-.08594.20313.08594-.20313.10156m2.63281 84.22657l-.95703-4.4375 2.76563-2.84766v2.65234l-.1914.19532.1914.5039.8711 3.9336 3.5664 2.7578 2.66015-2.7578-2.66015-4.3672-1.4961-.0703-2.9414-.19532v-2.65234l3.875-1.58984.5625-.51954.60937.51954 2.19922 4.4375.98047 4.4375-3.78906 3.93359-1.67578.50781-2.76172 4.14453-2.29688-4.14453.48829-4.4414"/><path fill="#00e8fc" fill-rule="evenodd" d="M357.04297 418.69531l-.1914-.5039.1914-.19532 2.9414.19532 1.4961.0703v3.09376l-1.03906 1.27344 1.03906.80468.77344-.80468-.77344-1.27344v-3.09375l2.66015 4.36719-2.66015 2.7578-3.5664-2.7578-.8711-3.9336"/><path fill="#00d4fc" fill-rule="evenodd" d="M361.48047 423.4336l-1.03906-.8047 1.03906-1.27343.77344 1.27344-.77344.80468"/><path fill="#50fcfc" fill-rule="evenodd" d="M369.8086 449.26172l-3.65235-4.4414.48828-4.4375 3.71094-4.21485v1.4336l-2.44531 2.78124 2.26953 4.4375.17578.19922 4.4375 2.51953 2.71875-2.71875-2.71875-2.75-2.01563-1.6875-2.42187-2.78125v-1.4336l3.67187 4.21485.76563.64063 3.75 3.79687-3.75 3.75-4.03516.6914-.40234.51563-.54688-.51562"/><path fill="#00e8fc" fill-rule="evenodd" d="M370.17969 444.82031l-2.26953-4.4375 2.4453-2.78125v2.39453l-.33983.38672.33984.63281 2.78515 3.8047 1.65235 1 1-1-1-1.00782-4.10156-3.42969-.33594-.38672v-2.39453l2.42187 2.78125 2.01563 1.6875 2.71875 2.75-2.71875 2.71875-4.4375-2.51953-.17578-.19922"/><path fill="#50fcfc" fill-rule="evenodd" d="M368.57813 396l-.32032-4.4375 2.09766-2.09375 3.84375 2.09375.59375 1.0625 1.98828 3.375-1.98828 1.97266-4.4375-.44141L368.57812 396"/><path fill="#00d4fc" fill-rule="evenodd" d="M370.35547 441.01563l-.33985-.63282.33985-.38672.33594.38672 4.10156 3.42969 1 1.00781-1 1-1.65235-1-2.78515-3.80469"/><path fill="#50fcfc" fill-rule="evenodd" d="M374.79297 421.51172l-3.96094-3.32031 3.96094-2.9922v2.33204l-.8711.66016.8711.73046 1.36328-.73046-1.36328-.66016v-2.33203l4.4414.1836 4.4375-.33985.61329-1.28906-.61329-.59375-4.4375-1.78125-1.71875-2.0625 1.66407-4.44141.05469-.0664 4.4375-1.53907 4.4375-1.98828v3.57813l-.03125.01562-4.40625 2.69922-1.59766 1.74219 1.59765 1.21093 3.33594 3.22657 1.10156 2.73828v3.24219l-1.36328 2.89453 1.36329 3.59375.45703.84765-.21485 4.4375 4.19531 2.52344 4.4375.76563 4.44141 1.10156 3.54297-4.39063.89453-1.45703L409 427.07031l-3.13672-2.16797-4.4375-1.75-4.4414 1.54688-4.4375.72265-3.44141-2.79296-.9961-2.89454v-3.24218l1.26563-2.73828-1.26563-3.64454-.71484-.79296.71485-4.1836.03515-.25781-.03515-.01563v-3.57812l2.7539-.84375 1.6836-.82031 1.08203.82031.4453 4.4375-.80858 4.4414-.71875 3.89454-.04688.54297-1.60156 4.4375.3125 4.4375 1.33594 1.08593 4.4375-.36718 2.07812-.71875 2.36328-2.1211 4.4375 1.7461 1.72266.375 2.71484.59765 2.25 3.84375-2.0664 4.4375-.1836.1836-4.4375 3.07421-.76562 1.1797-3.67188 2.69921-4.40625-2.69922-.03515-.00781-4.4375-.59375-4.4375-1.0625-3.8711 1.66406-.5664.46485-.4922-.46485.4922-1.36719.73046-3.0703-.73046-2.54688-.72657-1.89063.72656-2.94922.19141-1.49218-.1914-.47266-4.4375-2.39453-4.44141 1.75"/><path fill="#00e8fc" fill-rule="evenodd" d="M374.79297 418.92188l-.8711-.73047.8711-.66016 1.36328.66016-1.36328.73046"/><path fill="#50fcfc" fill-rule="evenodd" d="M379.23438 466.03125l-3.6797-3.45703.35938-4.4375.0039-4.4375 3.31642-2.78125 4.4375-.5664v1.67187l-3.81641 1.67578-.6211 1.35156-.90234 3.08594.5586 4.4375.34375.32422.28906-.32422.66406-4.4375 3.48438-2.55469 1.92187-1.88281-1.92188-1.67578v-1.67188l3.83594 3.34766-3.83594 3.76172-.92187.67578-.42969 4.4375-3.08594 3.45703"/><path fill="#00e8fc" fill-rule="evenodd" d="M378.89063 462.57422l-.5586-4.4375.90235-3.08594.62109-1.35156 3.8164-1.67578 1.92188 1.67578-1.92188 1.88281-3.48437 2.55469-.66406 4.4375-.28906.32422-.34375-.32422m4.78125-52.04688l-1.59766-1.21093 1.59765-1.7422 4.40625-2.69921.03125-.01563.03516.01563-.03515.25781-.71485 4.1836.71485.79296 1.26562 3.64454-1.26563 2.73828-1.10156-2.73828-3.33594-3.22657m4.4375 15.69532l-1.36328-3.59375 1.36329-2.89454.99609 2.89454 3.4414 2.79296 4.4375-.72265 4.44141-1.54688v2.20704l-4.4414 1.58984-.5.1211-3.9375 3.23827-.56641 1.19922.5664.33985 4.4375 1.05078 4.44141-1.24219.1211-.14844 2.65234-4.4375-2.77344-1.71094v-2.20703l4.4375 1.75L409 427.07031l-3.13672 2.98047-.89453 1.45703-3.54297 4.39063-4.4414-1.10156-4.4375-.76563-4.19532-2.52344.21485-4.4375-.45704-.84765"/><path fill="#00d4fc" fill-rule="evenodd" d="M392.54688 431.84766l-.56641-.33985.5664-1.19922 3.9375-3.23828.5-.1211 4.44141-1.58983 2.77344 1.71093-2.65235 4.4375-.12109.14844-4.4414 1.24219-4.4375-1.05078"/><path fill="#50fcfc" fill-rule="evenodd" d="M410.30078 463.15625l-.57031-.58203.57031-1.19531 1.08594-3.2422 2.60937-4.4375.7422-1.6953.40233-2.7422.95313-4.4414 3.08594-3.10937v2.08984l-1.01563 1.01953-1.17578 4.4414.3125 4.4375 1.8789 1.6875 1.25-1.6875.60157-4.4375-.84375-4.4414-1.00781-1.01953v-2.08984l3.0664 3.10937.34766 4.4414-.1914 4.4375-3.22266 4.34767-.17969.08984-4.26172 2.625-3.78515 1.8125-.65235.58203"/><path fill="#00e8fc" fill-rule="evenodd" d="M417.30078 453.69922l-.3125-4.4375 1.17578-4.4414 1.01563-1.01954 1.00781 1.01953.84375 4.4414-.60156 4.4375-1.25 1.6875-1.8789-1.6875"/><path fill="#50fcfc" fill-rule="evenodd" d="M432.49219 422.83984l-.36719-.21093.36719-.21094.21094.21094-.21094.21093"/><g clip-path="url(#c)"><path fill="#fff" fill-opacity="0" fill-rule="evenodd" d="M467.9961 480.32813H468V311.67188h-.0039H468v168.65625h-.0039"/></g><path fill="#fff" fill-opacity="0" fill-rule="evenodd" d="M232.55469 399.38672l5.63281 1.54687 2.63672-9.60546-5.63281-1.54688-2.63672 9.60547"/><path fill-rule="evenodd" d="M238.08203 392.47656l.49219.13672-1.66797 6.07031-.76172-.21093 1.1914-4.32813-1.33984-.36719.14844-.53515.55469.08203.25781.01562.2461-.02343.23437-.08204.22266-.15625.21484-.24609.20703-.35547"/><g clip-path="url(#d)"><path fill="none" stroke="#000" stroke-linecap="round" stroke-linejoin="round" stroke-miterlimit="10" stroke-width=".5" d="M146.23047 483.04297l-4.46094-5.42969"/></g><g clip-path="url(#e)"><path fill="none" stroke="#000" stroke-linecap="round" stroke-linejoin="round" stroke-miterlimit="10" stroke-width=".5" d="M159.66406 482.9414l-4.69922-5.22265"/></g><g clip-path="url(#f)"><path fill="none" stroke="#000" stroke-linecap="round" stroke-linejoin="round" stroke-miterlimit="10" stroke-width=".5" d="M172.75781 483.125l-4.2539-5.59375"/></g><g clip-path="url(#g)"><path fill="none" stroke="#000" stroke-linecap="round" stroke-linejoin="round" stroke-miterlimit="10" stroke-width=".5" d="M186.07813 483.1211l-4.26563-5.58204"/></g><g clip-path="url(#h)"><path fill="none" stroke="#000" stroke-linecap="round" stroke-linejoin="round" stroke-miterlimit="10" stroke-width=".5" d="M199.35938 483.14453l-4.19922-5.63281"/></g><g clip-path="url(#i)"><path fill="none" stroke="#000" stroke-linecap="round" stroke-linejoin="round" stroke-miterlimit="10" stroke-width=".5" d="M212.80469 483.04297l-4.46094-5.42969"/></g><g clip-path="url(#j)"><path fill="none" stroke="#000" stroke-linecap="round" stroke-linejoin="round" stroke-miterlimit="10" stroke-width=".5" d="M226.41406 482.77344l-5.04687-4.89063"/></g><g clip-path="url(#k)"><path fill="none" stroke="#000" stroke-linecap="round" stroke-linejoin="round" stroke-miterlimit="10" stroke-width=".5" d="M240.25781 482.0664l-6.10547-3.47656"/></g><g clip-path="url(#l)"><path fill="none" stroke="#000" stroke-linecap="round" stroke-linejoin="round" stroke-miterlimit="10" stroke-width=".5" d="M253.57813 482.0586l-6.11329-3.46094"/></g><g clip-path="url(#m)"><path fill="none" stroke="#000" stroke-linecap="round" stroke-linejoin="round" stroke-miterlimit="10" stroke-width=".5" d="M266.71484 482.34375l-5.7578-4.03125"/></g><g clip-path="url(#n)"><path fill="none" stroke="#000" stroke-linecap="round" stroke-linejoin="round" stroke-miterlimit="10" stroke-width=".5" d="M280 482.38672l-5.69922-4.11328"/></g><g clip-path="url(#o)"><path fill="none" stroke="#000" stroke-linecap="round" stroke-linejoin="round" stroke-miterlimit="10" stroke-width=".5" d="M293.38672 482.28125l-5.84375-3.90625"/></g><g clip-path="url(#p)"><path fill="none" stroke="#000" stroke-linecap="round" stroke-linejoin="round" stroke-miterlimit="10" stroke-width=".5" d="M306.55469 482.48438l-5.55078-4.3125"/></g><g clip-path="url(#q)"><path fill="none" stroke="#000" stroke-linecap="round" stroke-linejoin="round" stroke-miterlimit="10" stroke-width=".5" d="M318.58203 483.51172l-2.97265-6.36719"/></g><g clip-path="url(#r)"><path fill="none" stroke="#000" stroke-linecap="round" stroke-linejoin="round" stroke-miterlimit="10" stroke-width=".5" d="M329.85938 483.79688l1.10156-6.9375"/></g><g clip-path="url(#s)"><path fill="none" stroke="#000" stroke-linecap="round" stroke-linejoin="round" stroke-miterlimit="10" stroke-width=".5" d="M341.2539 482.82422l4.94532-4.99219"/></g><g clip-path="url(#t)"><path fill="none" stroke="#000" stroke-linecap="round" stroke-linejoin="round" stroke-miterlimit="10" stroke-width=".5" d="M353.57031 480.875l6.9414-1.09375"/></g><g clip-path="url(#u)"><path fill="none" stroke="#000" stroke-linecap="round" stroke-linejoin="round" stroke-miterlimit="10" stroke-width=".5" d="M354.58203 480.71484l-.73828-.98047"/></g><g clip-path="url(#v)"><path fill="none" stroke="#000" stroke-linecap="round" stroke-linejoin="round" stroke-miterlimit="10" stroke-width=".5" d="M367.35938 478.49219l5.99218 3.67187"/></g><path fill="none" stroke="#000" stroke-linecap="round" stroke-linejoin="round" stroke-miterlimit="10" stroke-width=".5" d="M368.23047 479.02734l.07812-1.22265"/><g clip-path="url(#w)"><path fill="none" stroke="#000" stroke-linecap="round" stroke-linejoin="round" stroke-miterlimit="10" stroke-width=".5" d="M380.71484 478.42969l5.91407 3.79687"/></g><path fill="none" stroke="#000" stroke-linecap="round" stroke-linejoin="round" stroke-miterlimit="10" stroke-width=".5" d="M381.57422 478.98438l.10156-1.22266"/><g clip-path="url(#x)"><path fill="none" stroke="#000" stroke-linecap="round" stroke-linejoin="round" stroke-miterlimit="10" stroke-width=".5" d="M393.47266 480.23828l7.02734.17969"/></g><g clip-path="url(#y)"><path fill="none" stroke="#000" stroke-linecap="round" stroke-linejoin="round" stroke-miterlimit="10" stroke-width=".5" d="M393.47266 480.23828l-1.09375-2.19531"/></g><g clip-path="url(#z)"><path fill="none" stroke="#000" stroke-linecap="round" stroke-linejoin="round" stroke-miterlimit="10" stroke-width=".5" d="M406.83203 480.89453l6.9375-1.13281"/></g><g clip-path="url(#A)"><path fill="none" stroke="#000" stroke-linecap="round" stroke-linejoin="round" stroke-miterlimit="10" stroke-width=".5" d="M406.83203 480.89453l-1.48437-1.94922"/></g><g clip-path="url(#B)"><path fill="none" stroke="#000" stroke-linecap="round" stroke-linejoin="round" stroke-miterlimit="10" stroke-width=".5" d="M420.3125 481.52734l6.60547-2.39843"/></g><g clip-path="url(#C)"><path fill="none" stroke="#000" stroke-linecap="round" stroke-linejoin="round" stroke-miterlimit="10" stroke-width=".5" d="M420.3125 481.52734l-1.82031-1.64453"/></g><g clip-path="url(#D)"><path fill="none" stroke="#000" stroke-linecap="round" stroke-linejoin="round" stroke-miterlimit="10" stroke-width=".5" d="M434.1875 482.52344l5.48828-4.39063"/></g><g clip-path="url(#E)"><path fill="none" stroke="#000" stroke-linecap="round" stroke-linejoin="round" stroke-miterlimit="10" stroke-width=".5" d="M447.53125 482.5586l5.42969-4.46094"/></g><g clip-path="url(#F)"><path fill="none" stroke="#000" stroke-linecap="round" stroke-linejoin="round" stroke-miterlimit="10" stroke-width=".5" d="M461.41406 483.10938l4.29688-5.5625"/></g><g clip-path="url(#G)"><path fill="none" stroke="#000" stroke-linecap="round" stroke-linejoin="round" stroke-miterlimit="10" stroke-width=".5" d="M144.96484 470.39063l-1.92968-6.75391"/></g><g clip-path="url(#H)"><path fill="none" stroke="#000" stroke-linecap="round" stroke-linejoin="round" stroke-miterlimit="10" stroke-width=".5" d="M144.96484 470.39063l-1.76562 1.70312"/></g><path fill="none" stroke="#000" stroke-linecap="round" stroke-linejoin="round" stroke-miterlimit="10" stroke-width=".5" d="M159.32813 469.89453l-4.02344-5.76172m4.02344 5.76172l-1.1172 2.1836m13.9375-1.89454l-3.03515-6.33984m2.59375 5.41797l-.73047.98437m14.60156-.12109l-3.26562-6.22266m2.78906 5.31641l-.6914 1.01563m14.85547-.33594l-4.00782-5.76953m3.42188 4.92968l-.5586 1.09375m13.89063.06641l-2.8711-6.41016m2.45313 5.48047l-.7539.96485m14.48437-.03125l-2.86719-6.41797m2.44922 5.48437l-.7539.96875m14.54687-.0625l-2.98828-6.36328m2.55469 5.4375l-.73829.98047m14.73047-.1836l-3.47265-6.10546m2.96484 5.21875l-.65625 1.03515m16.04297-1.99609l-6.60156-2.41016m5.64062 2.0586l.16797 1.21484m13.8164-.2539l-6.01562-3.62891m5.14063 3.10156l-.07032 1.22656m14.17579-.5664l-5.84766-3.89453m4.9961 3.32812l-.1211 1.22266m14.09765-.39844l-5.46875-4.41016m4.67188 3.76953l-.23047 1.20313m13.73828.02344l-4.26172-5.58203m3.64063 4.76953l-.50781 1.11718m12.73046.39454l-.83593-6.98047m10.26172 4.03515l6.9414-1.08984m-5.92969.9336l-.73828-.98438m13.01563.27734l6.9961.63672m-5.98048-.54297l-.47265-1.13281m12.95312.20312l6.63672 2.3086m-6.63672-2.3086l-.375-2.42578m13.77344 2.20313l6.46484 2.7539m-6.46484-2.7539l-.21094-2.4414m13.30078 3.1953l6.91797 1.2461m-6.91797-1.2461l-.74609-2.33593m14.02344 3.32031l6.99218-.72266m-6.99218.72266l-1.36719-2.03516m2.38672 1.9297l-.6836-1.01563m12.96875.96875l7.01563-.41797m-7.01563.41797l-1.28125-2.08985m14.70313 2.76563l6.80078-1.76953m-5.8125 1.51171l-.82812-.90234m13.0703.72266l6.96876-.89453m-5.95313.76562l-.71093-1.0039m14.05078 3.20703l4.89062-5.04297m-4.17969 4.3086l-1.17968-.33985"/><g clip-path="url(#I)"><path fill="none" stroke="#000" stroke-linecap="round" stroke-linejoin="round" stroke-miterlimit="10" stroke-width=".5" d="M144.6836 457.14453l-1.3672-6.89453"/></g><g clip-path="url(#J)"><path fill="none" stroke="#000" stroke-linecap="round" stroke-linejoin="round" stroke-miterlimit="10" stroke-width=".5" d="M144.6836 457.14453l-1.90235 1.55078"/></g><path fill="none" stroke="#000" stroke-linecap="round" stroke-linejoin="round" stroke-miterlimit="10" stroke-width=".5" d="M158.77344 456.89453l-2.91797-6.39062m2.4961 5.46093l-.75.97266m14.09765.10938l-2.13672-6.69532m1.82422 5.71875l-.85547.8789m14.19531.17579l-1.5625-6.85156M184.5 456.1289l-.92969.80078m12.875.1875l1.6289-6.83594m-1.39062 5.83984l-1.1875.3086m14.17578.66406l1.8086-6.78906m9.20312 4.82812l6.41407-2.86718m6.625.96484l6.96484.9336m6.36328-1.01563l6.9414 1.09765m-5.93359-.9375l-.39843-1.16015m12.66015 1.53125l7.02735.03906m11.52343 3.04297l-3.4414-6.125m15.51562-.41797l-.96093 6.96094m12.49609-6.7461l2.60156 6.52735m-2.22265-5.57813l.79296-.9336m12.40625-.10937l2.07422 6.71485m8.89453-4.30078l6.76954 1.89062m-5.78516-1.61719l-.26563-1.1953m12.96875.05468l6.01954 3.625m-5.14063-3.09766l.0625-1.22656m12.11719 1.21875l6.53515 2.58594m-5.58203-2.21094l-.14062-1.21875m12.64453.53125l6.25 3.21094m-6.25-3.21094l-.03516-2.45312m13.38282 2.39062l6.1875 3.33594m-6.1875-3.33594l.01562-2.45312m12.91797 3.60546l6.94922 1.03125m-6.94922-1.03125l-.82422-2.3125m1.83594 2.46094l-.41406-1.15234M406.79297 453.5l7.01562.39844m-7.01562-.39844l-1.02734-2.23047m14.37109 2.92578l6.95703-.99218m-6.95703.99218l-1.44531-1.98437m14.76562 2l6.94922-1.02735m-6.94922 1.02735L432 452.23828m14.79688 2.125l6.89843-1.32812m-5.89453 1.1328l-.76953-.95312m13.82813 2.73047l5.40234-4.4961m-5.40234 4.4961l-2.26954-.92578"/><g clip-path="url(#K)"><path fill="none" stroke="#000" stroke-linecap="round" stroke-linejoin="round" stroke-miterlimit="10" stroke-width=".5" d="M143.73828 443.88672l.52344-7.00781"/></g><path fill="none" stroke="#000" stroke-linecap="round" stroke-linejoin="round" stroke-miterlimit="10" stroke-width=".5" d="M158.25781 443.76953L156.375 437m1.60938 5.78516l-.89063.84375m14.0664.22656l-1.0625-6.94531m17.35938 3.5078l-7.02344-.0664m18.10938 3.30469l-2.5664-6.54297m14.1328 6.7539l.9297-6.96484m13.35155.00391l-1.0039 6.95313m13.58984-6.98047l.46094 7.01172m-.39453-5.9922l1.04297-.64843m10.46875.22266l3.9336 5.8203m-3.36329-4.97265l.57422-1.08593m12.57422 0l3.1211 6.29687m-2.66407-5.3789l.71484-.9961m12.5625-.09375l2.28907 6.64453m-2.28907-6.64453l1.67188-1.79687m12.20312 1.65234l1.16407 6.92969m-1.16407-6.9297l1.94532-1.49608m11.04687 1.5664l1.8125 6.78906m-1.8125-6.78906l1.79688-1.67187m-1.53516 2.66015l.89844-.83593m11.87109-.0625l2.3789 6.60937m-2.3789-6.60937l1.64453-1.81641m11.42578 1.91406l2.86719 6.41406m-2.44922-5.48046l.7539-.96875m10.21876 2.21093l6.71875 2.0664m-5.74219-1.76562l-.23047-1.20703m14.10547-1.0664l3.64453 6.0078m-3.11328-5.1328l.625-1.0547m10.82031 1.65235l6.32422 3.0625m-6.32422-3.0625l-.09375-2.44922m13.28125 2.7461l6.57813 2.46875m-6.57813-2.46875l-.32031-2.42969m13.41016 3.63672l7.02734.05469m-7.02734-.0547l-1.13282-2.17577m2.15625 2.1836l-.5664-1.08595m12.92187 1.76954l6.89844-1.32422m-6.89844 1.32422l-1.53906-1.91016m14.83984 1.83984l6.92579-1.1875m-6.92579 1.1875l-1.5-1.9375m15.15235 2.94532l6.2539-3.19922m-5.34375 2.73437l-1.0078-.70312m14.17577 2.16406l4.72657-5.19531m-4.72657 5.1953l-2.3789-.60546m15.3125.20313l5.48828-4.39063m-5.48828 4.39063l-2.25-.97266"/><g clip-path="url(#L)"><path fill="none" stroke="#000" stroke-linecap="round" stroke-linejoin="round" stroke-miterlimit="10" stroke-width=".5" d="M142.95703 430.42188l2.08594-6.70704"/></g><path fill="none" stroke="#000" stroke-linecap="round" stroke-linejoin="round" stroke-miterlimit="10" stroke-width=".5" d="M155.6875 430.1836l3.2539-6.23048m-3.2539 6.23047l-2.45313.01563m16.70704.3164l1.375-6.89453m-1.17188 5.89063l-1.17578.35156m15.84375.60938l-1.73438-6.8086m1.48047 5.82031l-.90625.82422m11.13672-5.73828l4.9414 4.9961m14.35938-2.54297l-7.02734.08984m16.66406-3.55469l.32813 7.01953m-.28125-6l1.0586-.625M236 423.76953l2.41406 6.59766m-2.0625-5.63672l.8164-.91406m11.45313.29687l3.80078 5.91016m-3.25-5.05078l.60157-1.07032m11.42578.84375l5.27344 4.64453m-4.50782-3.96875l.28516-1.1914m15.08594-.67188l-.3711 7.01953m.31641-5.99609l1.11328-.51953m11.00781-.34375l2.125 6.69922m-2.125-6.69922l1.71875-1.7539m11.1172 1.9453l3.08593 6.31641m-3.08594-6.3164l1.4414-1.98438m12.23438 1.83594l2.36719 6.61328m-2.36719-6.61328l1.64844-1.8164m12.17578 1.67577l1.34375 6.89453m-1.34375-6.89453l1.90625-1.54687m10.40235 1.90625l3.35546 6.17578m-2.86718-5.27734l.67578-1.02344m12.09765.15625l3.46485 6.11328m-3.46485-6.11328l1.32032-2.07031m11.02343 2.8828l5.40625 4.48829m-4.61718-3.83594l.25-1.20312m11.46875 2.64453l7.01953.30078m-7.01953-.30078l-1.0586-2.21094m15.22266.0664l5.32422 4.58985m-4.54688-3.92187l.26953-1.19532m11.48438 3.50391l6.89062-1.36328m-5.88671 1.16797l-.77735-.95313m13.17578 1.5l6.71485-2.0664m-5.73828 1.76562l-.8672-.86328m14.34376 2.85547l4.4414-5.44922M435.35547 429l-1.20313-.23828m13.82032.98437l4.55078-5.35547m-3.89063 4.57422l-1.19922-.26172m13.72266.92579l4.8125-5.1211m-4.11328 4.375l-1.1836-.32031"/><g clip-path="url(#M)"><path fill="none" stroke="#000" stroke-linecap="round" stroke-linejoin="round" stroke-miterlimit="10" stroke-width=".5" d="M146.3711 416.34766l-4.7422-5.1875"/></g><path fill="none" stroke="#000" stroke-linecap="round" stroke-linejoin="round" stroke-miterlimit="10" stroke-width=".5" d="M145.67969 415.58984l-.41016 1.15625m13.23047.31641l-2.3711-6.61719m2.02735 5.65235l-.82813.91015m12.63672.19532l1.33203-6.89844m-1.33203 6.89844l-2.34765.71875m14.83203-.98829l2.99219-6.35937m-2.9922 6.35937l-2.45312.1172m15.41407-.3125l3.70312-5.97266m-3.16406 5.10546l-1.22656-.08203m12.33984-2.00781l7.02734-.05469m-6.0039.04688L207.5 412.6953m12.8789.96094l7.02344.19531m-6.0039-.16797l-.54297-1.09765m12.98047 2.16406l6.73828-1.9961m-6.73828 1.9961l-1.71875-1.75m14.90234 1.03906l7.0039-.57031m-7.0039.57031l-1.32422-2.0664m14.95703.28906l6.36328 2.98047m-6.36328-2.98047l-.12109-2.44922m13.7539 1.91016l5.73438 4.0625m-4.90234-3.47266l.15625-1.21484m16.21484 2.65625l-.01953-.19922-.0586-.1914-.09374-.1797-.46094-.375-.1914-.05859-.19923-.01953-.19921.01953-.19141.0586-.45703.375-.09766.17968-.05469.1914-.01953.19923.01953.19922.0547.1914.09765.17578.45703.3789.1914.0586.19922.01953.19922-.01953.1914-.0586.46095-.3789.09375-.17578.05859-.1914.01953-.19922m9.35156-1.92188l5.88282 3.83985m-5.02735-3.28125l.10938-1.21875m12.5625.37109l5.45703 4.42187m-5.45703-4.42187l.46875-2.41016m13.27734 1.96485l4.59766 5.3125m-4.59766-5.3125l.88281-2.28907m13.20704 1.77735l3.04687 6.33203m-3.04687-6.33203l1.45312-1.97657m11.14063 2.4375l4.48828 5.41016m-4.48828-5.41016l.93359-2.26953m12.07031 2.56641l5.10938 4.82031m-4.3672-4.1211l.32423-1.18359m11.34765 2.25782l6.91016 1.27343m-5.90234-1.08984l-.3711-1.16797m12.72657.76953l6.8164 1.70313m-5.82422-1.45703l-.29687-1.1914m13.48828-.62892l5.08203 4.85157M408.5 412.03125l.33203-1.17969m12.25781.46094l5.0547 4.88281m-4.32032-4.17187l.33984-1.17969m15.78907 2.91016l-.01954-.19922-.05859-.1914-.09375-.1797-.45703-.375-.1914-.05859-.20313-.01953-.19922.01953-.1914.0586-.45704.375-.09375.17968-.0586.1914-.01952.19923.01953.19921.0586.19141.09374.17578.45703.3789.1914.0586.19923.01953.20312-.01953.1914-.0586.45704-.3789.09375-.17578.0586-.1914.01953-.19922m8.80078-.38672l6.98437.77343m-5.96875-.66406l-.45312-1.13672m12.79297.75782l6.90234 1.3125m-6.90234-1.3125l-.72657-2.34375"/><g clip-path="url(#N)"><path fill="none" stroke="#000" stroke-linecap="round" stroke-linejoin="round" stroke-miterlimit="10" stroke-width=".5" d="M147.35156 401.4961l-6.70312-2.11329"/></g><path fill="none" stroke="#000" stroke-linecap="round" stroke-linejoin="round" stroke-miterlimit="10" stroke-width=".5" d="M147.35156 401.4961l.44531 2.41015m-1.42187-2.71875l.22266 1.20703m14.17578-1.34375l-6.91797-1.22265m5.91406 1.04296l.3789 1.16797m13.30079.4961l-5.64063-4.19141m4.82032 3.58203l-.1836 1.21094m11.17188.80078l.65625-6.9961m-.5625 5.97657l-1.1289.47265m12.02343-.65234l5.3086-4.60156m-5.3086 4.60156l-2.28906-.88281m14.82812-.65625l6.85938-1.51953m-6.85938 1.51953l-1.59375-1.86719m14.96094 2.07422l6.75781-1.9336m-6.75781 1.9336l-1.70313-1.76563m14.91016 1.21875l6.97656-.84375m-6.97656.84375l-1.40625-2.01171m15.21094 3.42578l5.99219-3.67188m-5.9922 3.67188l-2.11327-1.2461m2.98437.71094l-1.05469-.6211m13.13282.33985l6.72656-2.03906m-6.72656 2.03906l-1.73047-1.73828m14.91797 1.10547l6.98437-.77344m-5.96875.66016l-.6914-1.01172m13.54687 2.66797l5.8711-3.85938m-5.8711 3.85938l-2.15234-1.17578m14.96484-1.48438l6.875 1.46485m-5.875-1.25391l-.33594-1.17969m15.11328 5.07422l1.94922-6.75m-1.66406 5.76953l-1.20313.2539m11.98047-1.2578l6.45313-2.78125m-5.51172 2.3789l-.96094-.76953m13.66406-2.20313l5.79688 3.97266m-4.95313-3.39453l.13672-1.21875m16.88672 5.72656l-3.3086-6.19922m2.82813 5.29688l-.6875 1.01953m10.97266-.23438l3.71094-5.96875m-3.17188 5.10157l-1.22265-.08203m14.21875 1.07421l3.27343-6.21875m8.46485 1.69141l6.42578 2.83594M410 396.9375l.60547 7m-.51953-5.98047l1.03125-.66797m12.53515-.36328l-.0703 7.02735m.05858-6.00391l1.08985-.5664m9.5.80859l5.40234 4.49218m-4.61719-3.83984l.25-1.19922m11.73047 1.45703l6.5 2.67578m-5.55468-2.28906l-.1172-1.21875m13.64845-.65625l4.17578 5.65235m-3.5664-4.83204l.52733-1.10546"/><g clip-path="url(#O)"><path fill="none" stroke="#000" stroke-linecap="round" stroke-linejoin="round" stroke-miterlimit="10" stroke-width=".5" d="M147.39844 388.00781l-6.79688-1.76953"/></g><path fill="none" stroke="#000" stroke-linecap="round" stroke-linejoin="round" stroke-miterlimit="10" stroke-width=".5" d="M146.41016 387.75l.28515 1.19531m13.85156-.4414l-6.46093-2.76172m5.51953 2.35937l.10547 1.22266m12.95312.66406l-4.07031-5.73047m3.48047 4.89453l-.55078 1.09766m11.91406.35156l1.01563-6.95312m-.8672 5.9414L182.4297 390m14.71094.63281l.23828-7.01953m-.20313 6l-1.10156.53906m14.85547-6.52343l-.71094 6.98828m.60938-5.97266l1.13671-.46484m8.73047 4.40625l6.39063-2.92578m-5.46094 2.5l-.97266-.7461m13.13282.50781l6.84375-1.59375m-5.85157 1.35938l-.80468-.92188m13.54297 2.1797l6.01171-3.64063m-6.01172 3.64062l-2.10937-1.25781m15.09375.53906l6.67188-2.20703M260.5 388.22656l-1.77344-1.69531m15.71875 2.83203l5.41016-4.48047m-5.41016 4.48047l-2.26953-.9336m15.59375.94532l5.39453-4.5039m-5.39453 4.5039l-2.27344-.92578m15.16797.30078l6.23047-3.25m-5.32422 2.77734l-1.01172-.6953m19.89063-1.50392l-6.70703 2.08985m13.39453.22656l6.55078-2.54297m-5.59766 2.17188l-.92968-.80078m13.09765-.66407l6.9375 1.12891m-5.92969-.96484l-.39062-1.16407m17.69531 4.73047l-3.0586-6.32812m17.9961 4.71484l-6.30469-3.10547m5.38672 2.65235l.03907 1.22656m13.76562-4.54688l-5.44531 4.44141m4.65234-3.79688l1.13281.47657m12.91016 3.39453l-5.3164-4.58985m15.89843 5.8086l.14844-7.02735m14.46094.21875l-2.4375 6.58985m2.08203-5.63281l1.21484-.16407m7.72656 2.63282l7.01954-.26172m13.26562.74219l-6.92187-1.22266m5.91406 1.04297l.3789 1.16797m11.45704-4.97657L462.58984 390.5m1.66016-5.76953l1.20312-.2539"/><g clip-path="url(#P)"><path fill="none" stroke="#000" stroke-linecap="round" stroke-linejoin="round" stroke-miterlimit="10" stroke-width=".5" d="M146.66797 371.52344l-5.33594 4.57031"/></g><path fill="none" stroke="#000" stroke-linecap="round" stroke-linejoin="round" stroke-miterlimit="10" stroke-width=".5" d="M145.89063 372.1875l1.14453.44922m6.89843.22265l6.76563 1.89844m6.53516-1.85156l6.79296 1.80469m-5.80468-1.54297l-.27735-1.19531m12.61719 2.78515l6.76563-1.89844m-5.78125 1.6211l-.84766-.88672m13.11328.89453l6.89453-1.35937m-5.89062 1.16015l-.77344-.94922m13.55078-1.38671l5.96484 3.71093m-5.09765-3.17187l.08203-1.22266m18.20703.4961l-5.71875 4.08593m4.88672-3.49219l1.09766.54688m10.32812-2.60938l-.27734 7.02344m.23828-6l1.10547-.53515m15.24218 1.42968l-6.26172 3.1875m19.09766-3.89843l-5.30469 4.60937m4.53125-3.9375l1.14844.4375m10.5039 4.70313l-.42968-7.01563m.36719 5.99219l-1.04688.64453m12.07813-.33203l4.25781-5.59375m-4.25781 5.59375l-2.42188-.39844m14.9961-.375l5.74218-4.04687m-5.74218 4.04687l-2.19141-1.10547m17.21094 2.39453l2.33203-6.625m8.92969 4.72266l6.4375-2.82031m-5.5 2.41015l-.96094-.76171m13.42187 1.34375l6.27344-3.16407M341.5 374.9297l-1-.70703m15.17969 2.82421l2.72265-6.47656m15.19922 4.58203l-6.49218-2.6875m5.54687 2.29688l.11719 1.22265m8.36719-4.61328l5.0625 4.875m-4.32813-4.16406l.33594-1.17969m17.73437 4.80079l-5.91797-3.78907m15.78125-1.58594l.98438 6.96094m16.3164-3.11328l-6.98828-.73437m5.97266.6289l.46094 1.13672m13.88672-1.25781l-7.01953-.28125m7.01953.28125l1.0664 2.21094m12.16016-1.55079l-6.84375-1.60156m5.84766 1.36719l.3125 1.1875m13.4375-3.79688l-5.71875 4.08594"/><g clip-path="url(#Q)"><path fill="none" stroke="#000" stroke-linecap="round" stroke-linejoin="round" stroke-miterlimit="10" stroke-width=".5" d="M466.42188 371.76563l2.1953 1.09375"/></g><path fill="none" stroke="#000" stroke-linecap="round" stroke-linejoin="round" stroke-miterlimit="10" stroke-width=".5" d="M465.58984 372.35938l1.09766.54687"/><g clip-path="url(#R)"><path fill="none" stroke="#000" stroke-linecap="round" stroke-linejoin="round" stroke-miterlimit="10" stroke-width=".5" d="M146.17969 357.73828l-4.35938 5.50781"/></g><path fill="none" stroke="#000" stroke-linecap="round" stroke-linejoin="round" stroke-miterlimit="10" stroke-width=".5" d="M146.17969 357.73828l2.41406.4414m9.54297-1.10156l-1.64453 6.83204m1.40625-5.83985l1.1875-.30469m8.14453 1.83594l6.79687 1.78125m-5.80859-1.51953l-.28125-1.19531m12.53125 1.3164l6.95313 1.01954m-6.95313-1.01954l-.82422-2.3125m14.125 3.23438l6.98047-.82813m-6.98047.82813l-1.39844-2.01563m2.41407 1.89454l-.69922-1.00782m13.14062-.34765l6.69531 2.1289m-5.71875-1.8203l-.22265-1.20704m13.88672 4.83203l4.04687-5.74219m-3.46094 4.90625l-1.21484-.15234m18.57813-4.23438l-5.21875 4.70704m4.45703-4.02344l1.15234.41797m12.46875-1.52344l-4.3125 5.54688m3.6875-4.73829l1.20703.21094m13.1875-.59765l-5.21875 4.70703m5.21875-4.70704l2.30469.83594m11.40234 3.34375l-6.0039-3.65234m5.1289 3.1211l-.0703 1.22265m13.01562.52344l-3.51563-6.08594m3.0039 5.19922l-.64843 1.04297m13.26172.27343l-1.08594-6.9414m1.08594 6.9414l-1.96094 1.47266m12.73828-2.05078l3.98828-5.78906m-3.98828 5.78906l-2.4375-.28125m14.59766-1.05078l6.29687-3.1211m-6.29687 3.1211l-1.99219-1.42969m19.42969 3.2461l-1.94531-6.75391m1.66406 5.76953l-.88281.85547m13.64453.26172l-.27735-7.01954m.23828 5.9961l-1.05859.6211m17.22656-5.01563l-5.90625 3.8125m5.04688-3.25781l1.07031.59765m13.25-.90234l-6.19531 3.3125m5.29297-2.82813l1.01953.6836m13.35547 1.80859l-6.51172-2.63672m5.5664 2.2539l.125 1.21876m14.35547-2.65625l-6.95312 1.0039m5.9414-.85937l.72657.99219m13.5664-1.33985l-6.88672 1.40625m13.65235-2.33984l6.21484 3.27344m11.21485-5l-2.01563 6.73046m1.72266-5.7539l1.20312-.23828m9.05469.00781l4.6836 5.23828"/><g clip-path="url(#S)"><path fill="none" stroke="#000" stroke-linecap="round" stroke-linejoin="round" stroke-miterlimit="10" stroke-width=".5" d="M144.92969 343.78906l-1.85938 6.77735"/></g><path fill="none" stroke="#000" stroke-linecap="round" stroke-linejoin="round" stroke-miterlimit="10" stroke-width=".5" d="M144.92969 343.78906l2.39453-.53515m10.53906.45312l-1.09766 6.9414m1.09766-6.9414l2.32031-.80078m10.6211.76172l-.34766 7.01953m.34766-7.01953l2.21875-1.04297m-2.26953 2.0664l1.10937-.52343m13.3086-.28125l-2.45313 6.58203m2.45313-6.58203l2.43359-.32422m-2.78906 1.28125l1.21484-.16016m10.72656 5.97266l1.0039-6.95703m-.85937 5.94531l-1.15234.41406m12.29688-.4375l5.05468-4.8828m-4.3164 4.17187l-1.16797-.37891m13.41015-3.38672l5.72657 4.0664m-4.89453-3.47656l.15625-1.21484m17.60156.10156l-4.82031 5.11329m4.11718-4.3672l1.1836.32423m13.58203 3.01953l-6.32031-3.0664m5.40234 2.62108l.04687 1.22657m14.31641-3.54688l-6.57813 2.46875m5.6211-2.10937l.91797.8086m13.50781.76562l-6.88672-1.40235m5.88281 1.19922l.34766 1.17578m12.02344 1.50781L288.97266 344m2.98828 6.35938l-1.47266 1.96093m15.28516-2.25l-3.98438-5.78515m3.40625 4.9453l-.5664 1.08595m15.07421-.78125l-5.21093-4.71485m5.21093 4.71485l-.60156 2.3789m12.67969-1.5l-2.74219-6.47265m2.34375 5.53125l-.77344.95312m9.85157-4.54687l6.53125 2.59765m-5.58203-2.21875l-.13282-1.21875m14.8125-1.24219l1.90235 6.76563m-1.90235-6.76563l1.77344-1.6953m15.24219 7.26171l-5.5-4.3711m4.69922 3.73829l-.22266 1.20312m12.76172-6.0664l-2.34375 6.625m2.34375-6.625l2.42578-.36719m10.53125.26172l-1.6289 6.83203m1.6289-6.83203l2.375-.61719m11.28906.71875l-2.32812 6.6289m1.99219-5.66406l1.21093-.18359m12.69141-.6836l-2.83203 6.4336m2.42187-5.4961l1.22266-.08984m11.0664-1.14453l.04297 7.02735m-.03906-6.00391l1.08203-.58203m11.38282-.33203l1.73828 6.8086m-1.48828-5.81642l.91015-.82812m10.98828.3789l4.07032 5.72657m-4.07032-5.72656l1.09766-2.19532"/><g clip-path="url(#T)"><path fill="none" stroke="#000" stroke-linecap="round" stroke-linejoin="round" stroke-miterlimit="10" stroke-width=".5" d="M143.51172 330.38281l.97656 6.96094"/></g><g clip-path="url(#U)"><path fill="none" stroke="#000" stroke-linecap="round" stroke-linejoin="round" stroke-miterlimit="10" stroke-width=".5" d="M143.51172 330.38281l1.98437-1.4414"/></g><g clip-path="url(#V)"><path fill="none" stroke="#000" stroke-linecap="round" stroke-linejoin="round" stroke-miterlimit="10" stroke-width=".5" d="M143.65234 331.39453l.9922-.71875"/></g><path fill="none" stroke="#000" stroke-linecap="round" stroke-linejoin="round" stroke-miterlimit="10" stroke-width=".5" d="M157.05078 330.35938l.52734 7.0078m-.52734-7.0078l2.07422-1.3125m14.3711 2.78125l-5.73048 4.0703m4.89454-3.47656l1.09765.54688m12.73828-1.52344l-5.10156 4.83594m5.10156-4.83594l2.32422.78125m10.75-1.00781l-4.6211 5.28906m4.6211-5.28906l2.39063.5586m12.1289 2.08593h-7.02734m7.02734 0l1.15235 2.16797m12.0039-3.20703l-6.71093 2.07812m5.73437-1.77734l.8711.86328m12.20703-2.91015l-4.28516 5.5703m4.28516-5.5703l2.41797.40625m11.77343.58203l-6.03515 3.59375m5.15625-3.07422l1.05078.63672m13.27344 2.1953l-6.30079-3.10937m19.91016 2.25782l-6.88672-1.40625m5.88281 1.19921l.35157 1.17579m13.78906-.375l-6.52734-2.59766m5.57812 2.22266l.13281 1.21875m10.64453 1.36718L304 330.35547m-.375 5.99219l-1.11719.5078m12.96875.125l3.24219-6.23437m-2.77344 5.32813l-1.22656.01172m16.8125 1.10937l-2.23828-6.66406m1.91016 5.6914l-.84375.89454m10.39453-5.1289l5.9414 3.75m-5.07422-3.20704l.08985-1.22266m15.875-.91796l-1.08985 6.9414m.9336-5.92969L358.58594 331m8.39844 3.85156l6.74218-1.98047m-5.76172 1.69532l-.85546-.87891m15.02734-2.98438l3.0664 6.32032m-2.61718-5.40235l.72265-.99218m14.76954-.10547l-2.1836 6.67969m1.86328-5.70704l1.21094-.21093m11.52734-.9297l-.39062 7.01563m.39062-7.01562l2.23047-1.03125m8.3086 2.15234l5.16015 4.77344m-5.16015-4.77344l.625-2.3711m11.76172 4.58985l7.01953.33203m-6-.28125l-.52344-1.10937m13.5039 3.32031l5.64844-4.1875m-4.82422 3.57813l-1.10937-.52735m13.11719-2.14453l6.61328 2.375m-5.64844-2.03125l-.17578-1.21094"/><g clip-path="url(#W)"><path fill="none" stroke="#000" stroke-linecap="round" stroke-linejoin="round" stroke-miterlimit="10" stroke-width=".5" d="M142.9375 317.19922l2.125 6.69922"/></g><g clip-path="url(#X)"><path fill="none" stroke="#000" stroke-linecap="round" stroke-linejoin="round" stroke-miterlimit="10" stroke-width=".5" d="M142.9375 317.19922l1.71875-1.7539"/></g><path fill="none" stroke="#000" stroke-linecap="round" stroke-linejoin="round" stroke-miterlimit="10" stroke-width=".5" d="M156.40234 317.15625l1.82422 6.78516m-1.82422-6.78516l1.79297-1.67578m15.35156 3.10937l-5.83203 3.91797m19.53125-3.16406l-6.60156 2.40625m5.64063-2.05469l.91406.82031m12.02344-2.8828l-3.92188 5.83202m3.35156-4.98437l1.21875.1289m14.21875 1.95313l-7.02734-.02734m6.0039.02343l.57032 1.08594m12.58984-3.72265l-4.67187 5.25m3.99219-4.48438l1.1914.28906m12.64453-1.1836l-4.35547 5.51173m3.72266-4.71094l1.20703.21875m12.28125-1.32813l-3.4336 6.12891m2.9336-5.23828l1.22656.02734m13.1172-.55859l-4.4922 5.40625m3.83594-4.61719l1.20313.2461m12.21093 4.75l-3.3789-6.16016m2.88672 5.26563l-.67188 1.02343m15.38281-.83594l-5.18359-4.74609m19.35156 3.05078l-6.89453-1.35547m19.67578 2.64454l-5.82422-3.9336m4.97657 3.35938l-.12891 1.21875m9.78906.51953L332 317.41406m-3.17969 6.26563l-2.45312.05078m20.26562-1.21094l-5.8164-3.94531m4.97265 3.3711l-.13281 1.21874m11.91016.85938l-1.05078-6.94922m1.05078 6.94922l-1.97266 1.46094m18.19922-5.66407l-6.875 1.45313m18.40625-3.82422l-3.30469 6.19922m3.30469-6.19922h2.45312m11.3125.28515l-4.20703 5.62891m4.20703-5.6289l2.42579.375m10.5078-.625l-3.4453 6.125m3.4453-6.125l2.45313.05859m9.60547-.47656l-.92969 6.96484m.9297-6.96484l2.29687-.85547m-2.4336 1.86719l1.14844-.42579m10.64844 6.20313l2.3789-6.61328m-2.03125 5.64844l-1.21484.17578m18.66797-1.3047l-6.59375-2.42968m6.59375 2.42969l.33203 2.4336m-1.28906-2.78516l.16406 1.21484m13.1914-4.66016l-4.7578 5.16797"/><g clip-path="url(#Y)"><path fill="none" stroke="#000" stroke-linecap="round" stroke-linejoin="round" stroke-miterlimit="10" stroke-width=".5" d="M465.9414 317.96484l2.375.6172"/></g><path fill="none" stroke="#000" stroke-linecap="round" stroke-linejoin="round" stroke-miterlimit="10" stroke-width=".5" d="M465.25 318.71484l2.375.6211"/><path fill="#00f" fill-rule="evenodd" d="M201.82813 476.52344h8.61718V466.3789h-8.61719v10.14453"/><path fill="azure" fill-rule="evenodd" d="M203.66016 468.21094h.83203v2.82422h3.28906v-2.82422h.83203v6.48047h-.83203v-2.91407h-3.28906v2.91407h-.83203v-6.48047"/><path fill="#00f" fill-rule="evenodd" d="M383.80078 436.57813h8.61719v-10.14454h-8.61719v10.14454"/><path fill="azure" fill-rule="evenodd" d="M385.63281 428.26563h.83203v2.82421h3.28907v-2.82421h.83203v6.48046h-.83203v-2.91406h-3.28907v2.91406h-.83203v-6.48046"/><path fill="#00f" fill-rule="evenodd" d="M224.01953 418.82813h8.61719v-10.14844h-8.61719v10.14844"/><path fill="azure" fill-rule="evenodd" d="M225.85156 410.51172h.83594v2.82422h3.28516v-2.82422h.83203v6.48047h-.83203v-2.91406h-3.28516v2.91406h-.83594v-6.48047"/><path fill="#ff3030" fill-rule="evenodd" d="M198.08203 343.375h7.69531v-10.14844h-7.6953V343.375"/><path fill="azure" fill-rule="evenodd" d="M199.91797 335.0625h.83203v5.73828h3.19531v.74219h-4.02734v-6.48047"/><path fill="#ff3030" fill-rule="evenodd" d="M433.3164 338.9375h7.69141v-10.14844h-7.6914v10.14844"/><path fill="azure" fill-rule="evenodd" d="M435.14844 330.625h.83594v5.73828h3.1914v.73828h-4.02734V330.625"/><path fill="#ffffe0" fill-rule="evenodd" d="M226.34766 369.36719h22.17968v-10.1914h-22.17968v10.1914"/><path fill-rule="evenodd" d="M229.84766 361.00781h.5078v6.29297h-.78905v-4.48828h-1.38672v-.55469l.5586-.0664.2539-.0547.23047-.08593.20312-.14453.17188-.20703.14453-.29688.10547-.39453m4.8125 0l.23047.01953.21875.0547.20703.08983.1953.1211.1836.14844.17188.17578.30078.42187.2461.49219.17968.54688.10938.57812.03906.58984-.03906.59375-.10938.58594-.17969.55469-.2461.5-.30077.42969-.17188.17968-.1836.15235-.1953.125-.20703.08984-.21875.0586-.23047.01953-.23047-.01954-.21875-.05859-.20703-.08984-.19532-.125-.1875-.15235-.16797-.17968-.30468-.4297-.24219-.5-.17969-.55468-.11328-.58594-.03516-.59375h.83204l.02734.56641.08203.5039.1289.44141.16016.375.19141.30078.21094.22266.22265.13672.22657.04687.22656-.04687.22266-.13672.21093-.22266.1914-.30078.16017-.375.1289-.4414.07813-.50391.03125-.5664-.03125-.5586-.07813-.5-.1289-.4375-.16016-.36719-.1914-.28906-.21095-.21484-.22265-.13282-.22656-.04296-.22657.04296-.22265.13282-.21094.21484-.1914.28906-.16016.36719-.1289.4375-.08204.5-.02734.5586h-.83203l.03515-.58985.11328-.57813.17969-.54687.24219-.49219.30469-.42187.16796-.17578.1875-.14844.19532-.1211.20703-.08984.21875-.05469.23047-.01953m5.08984 0h.51172v6.29297h-.78906v-4.48828h-1.38672v-.55469l.5586-.0664.2539-.0547.22656-.08593.20313-.14453.17578-.20703.14062-.29688.10547-.39453m2.82422 2.17578h.78906l.01953-.3164.0586-.28516.09765-.2539.14063-.21485.17969-.17578.22265-.1289.26563-.07813.30859-.02735.23828.01954.22266.0625.20703.10156.17969.14062.14843.17188.11328.20703.07032.23438.02344.26562-.01954.26953-.0664.22266-.10938.1914-.15625.17188-.19922.16406-.25.16406-.6328.39063-.53517.3125-.4414.3164-.34375.32422-.26563.33594-.1875.35156-.125.3711-.0703.39062-.01954.41797h4.21094v-.73828h-3.33203l.08203-.28516.11328-.23437.14844-.20313.1875-.17968.23047-.17188.27734-.17578.71875-.41797.41406-.20312.34766-.23047.28125-.2539.21875-.26563.16406-.27735.10938-.28515.0625-.28516.02343-.28125-.04297-.38281-.12109-.34766-.1875-.3086-.25-.26171-.30469-.21485-.34375-.15625-.38281-.09765-.40625-.03516-.4336.03125-.39843.10156-.35547.16407-.30469.23437-.2461.30469-.1875.375-.11718.44531-.03906.51953"/><path fill="#ffffe0" fill-rule="evenodd" d="M363.9375 373.02344h22.17969v-10.1914H363.9375v10.1914"/><path fill-rule="evenodd" d="M367.4336 364.66406h.51171v6.29688h-.78906v-4.48828h-1.38672v-.5586l.5586-.0625.2539-.05469.22656-.08984.20313-.14062.17578-.21094.14063-.29297.10546-.39844m4.81641 0l.22656.01953.21875.0586.21094.08594.19531.12109.1836.15234.17187.17578.30078.41797.2461.49219.17968.54688.10938.58203.03906.58984-.03906.59375-.10938.58203-.17968.55469-.2461.5039-.30078.42579-.17187.17968-.1836.15235-.19531.125-.21094.09375-.21875.05469-.22656.01953-.23047-.01954-.21875-.05468-.20703-.09375-.19922-.125-.1836-.15235-.17187-.17968-.30078-.42579-.24219-.5039-.17968-.55469-.11329-.58203-.03906-.59375H371l.02734.5625.08204.5039.125.44532.16406.375.1914.30078.21094.21875.22266.13672.22656.04687.22656-.04687.22266-.13672.21094-.21875.1875-.30078.16406-.375.125-.44531.08203-.50391.03125-.5625-.03125-.5625-.08203-.5-.125-.4336-.16406-.36718-.1875-.29297-.21094-.21484-.22266-.12891-.22656-.04688-.22656.04688-.22266.1289-.21094.21485-.1914.29297-.16406.36719-.125.43359-.08204.5-.02734.5625h-.83594l.03906-.58984.11329-.58204.17968-.54687.2422-.49219.30077-.41797.17188-.17578.1836-.15234.19921-.1211.20703-.08593.21875-.0586.23047-.01953m5.08984 0h.50782v6.29688h-.78516v-4.48828h-1.38672v-.5586l.5586-.0625.25-.05469.23046-.08984.20313-.14062.17578-.21094.14063-.29297.10546-.39844m2.82422 2.17578h.78516l.01953-.3164.0625-.28516.09766-.2539.14062-.21485.17969-.17187.22265-.12891.26563-.08203.3086-.02735.23827.02344.22266.0625.20703.10156.17578.13672.14844.17188.11328.20703.07422.23828.02344.26172-.01953.26953-.0664.22266-.10938.19531-.15625.16797-.20313.16406-.2461.16406-.6328.39063-.53907.3125-.4375.3164-.34375.32422-.26562.33594-.1914.35156-.125.3711-.06642.39453-.02343.41797h4.21484v-.74219h-3.33203l.08203-.28125.11328-.23828.14844-.20313.1875-.17968.23047-.17188.27734-.17578.71875-.41406.41406-.20703.34766-.23047.27735-.25.22265-.26953.16406-.27735.10938-.28515.0625-.28125.01953-.28125-.03906-.38672-.1211-.34766-.1875-.30469-.2539-.26562-.30078-.21094-.34375-.16015-.38282-.09766-.40625-.03516-.43359.03516-.39844.09765-.35547.16797-.30468.23438-.25.30078-.1836.375-.11719.44922-.03906.51562"/></g></defs><use xlink:href="#Z"/></svg>