<svg xmlns="http://www.w3.org/2000/svg" role="img" xmlns:xlink="http://www.w3.org/1999/xlink" viewBox="142.45 309.95 326.84 171.84"><defs><clipPath id="a"><path d="M144 311.67188h1v168.65625h-1zm0 0"/></clipPath><clipPath id="b"><path d="M144 311.67188h324v168.65625H144zm0 0"/></clipPath><clipPath id="c"><path d="M347 311.67188h2V313h-2zm0 0"/></clipPath><clipPath id="d"><path d="M373 478h4v2.32813h-4zm0 0"/></clipPath><clipPath id="e"><path d="M467 311.67188h1v168.65625h-1zm0 0"/></clipPath><clipPath id="f"><path d="M144 477h3v3.32813h-3zm0 0"/></clipPath><clipPath id="g"><path d="M154 477h7v3.32813h-7zm0 0"/></clipPath><clipPath id="h"><path d="M168 477h6v3.32813h-6zm0 0"/></clipPath><clipPath id="i"><path d="M181 477h6v3.32813h-6zm0 0"/></clipPath><clipPath id="j"><path d="M194 477h7v3.32813h-7zm0 0"/></clipPath><clipPath id="k"><path d="M207 477h7v3.32813h-7zm0 0"/></clipPath><clipPath id="l"><path d="M220 478h7v2.32813h-7zm0 0"/></clipPath><clipPath id="m"><path d="M233 478h8v2.32813h-8zm0 0"/></clipPath><clipPath id="n"><path d="M247 478h7v2.32813h-7zm0 0"/></clipPath><clipPath id="o"><path d="M260 478h8v2.32813h-8zm0 0"/></clipPath><clipPath id="p"><path d="M273 478h8v2.32813h-8zm0 0"/></clipPath><clipPath id="q"><path d="M287 478h7v2.32813h-7zm0 0"/></clipPath><clipPath id="r"><path d="M300 479h8v1.32813h-8zm0 0"/></clipPath><clipPath id="s"><path d="M313 479h8v1.32813h-8zm0 0"/></clipPath><clipPath id="t"><path d="M328 477h5v3.32813h-5zm0 0"/></clipPath><clipPath id="u"><path d="M342 476h4v4.32813h-4zm0 0"/></clipPath><clipPath id="v"><path d="M355 476h4v4.32813h-4zm0 0"/></clipPath><clipPath id="w"><path d="M366 478h8v2.32813h-8zm0 0"/></clipPath><clipPath id="x"><path d="M380 479h8v1.32813h-8zm0 0"/></clipPath><clipPath id="y"><path d="M393 480h8v.32813h-8zm0 0"/></clipPath><clipPath id="z"><path d="M393 479h2v1.32813h-2zm0 0"/></clipPath><clipPath id="A"><path d="M406 478h8v2.32813h-8zm0 0"/></clipPath><clipPath id="B"><path d="M406 480h3v.32813h-3zm0 0"/></clipPath><clipPath id="C"><path d="M420 478h8v2.32813h-8zm0 0"/></clipPath><clipPath id="D"><path d="M418 480h3v.32813h-3zm0 0"/></clipPath><clipPath id="E"><path d="M433 478h8v2.32813h-8zm0 0"/></clipPath><clipPath id="F"><path d="M431 480h4v.32813h-4zm0 0"/></clipPath><clipPath id="G"><path d="M447 477h7v3.32813h-7zm0 0"/></clipPath><clipPath id="H"><path d="M461 477h6v3.32813h-6zm0 0"/></clipPath><clipPath id="I"><path d="M144 463h3v8h-3zm0 0"/></clipPath><clipPath id="J"><path d="M144 450h3v7h-3zm0 0"/></clipPath><clipPath id="K"><path d="M144 436h1v9h-1zm0 0"/></clipPath><clipPath id="L"><path d="M144 442h1v2h-1zm0 0"/></clipPath><clipPath id="M"><path d="M144 423h2v8h-2zm0 0"/></clipPath><clipPath id="N"><path d="M144 410h3v7h-3zm0 0"/></clipPath><clipPath id="O"><path d="M144 398h4v4h-4zm0 0"/></clipPath><clipPath id="P"><path d="M144 384h3v7h-3zm0 0"/></clipPath><clipPath id="Q"><path d="M144 371h3v6h-3zm0 0"/></clipPath><clipPath id="R"><path d="M144 357h3v7h-3zm0 0"/></clipPath><clipPath id="S"><path d="M144 343h2v8h-2zm0 0"/></clipPath><clipPath id="T"><path d="M144 330h1v8h-1zm0 0"/></clipPath><clipPath id="U"><path d="M144 328h3v3h-3zm0 0"/></clipPath><clipPath id="V"><path d="M144 317h3v7h-3zm0 0"/></clipPath><clipPath id="W"><path d="M465 317h3v2h-3zm0 0"/></clipPath><clipPath id="X"><path d="M201 470h10v10.32813h-10zm0 0"/></clipPath><g id="Y" clip-path="url(#clip1)"><path fill="#fff" fill-opacity="0" fill-rule="evenodd" d="M0 0h1000v1000H0zm0 0"/><path fill="#d3d3d3" fill-opacity="0" fill-rule="evenodd" d="M162.15234 355.86719l-.23437.29297.0586.23437.11718.17188.17578.23437.29297.34766.11328.0586.11719-.17188.0586-.23438.17577-.17578.46485-.17578h.69922l.23437.29297.28906.8164.0586.17579.17578.23046.35156.23438.69922.69922.17188.17578.23437.34765.23438.41016.28906.58203.41015.46485.23047.23437.23438.17578.11719.23047.17578.29297.17187 1.16406v.23438l.0586.28906.05859.11719.11719.11719.34765.41015.11719.17188.17578.17578.17578.23437.11719.17188.17188.35156.05859.23438.23437.40625.23438-.0586-.17578.17578-.0586.92969h-.58203l-.23437-.11328-.34766.11328-.11719.11719-.05859.29297-.0586.17578-.11718.17187-.46484.29297-.0586.23438-.0586.11328v.64453l.0586.17187v.41016l.0586.0586v.40624l.05859.40625.11719.17579.05859.05859.23047.64062-.0586.29297v.69922l-.05859.58203v.23438l-.0586.23047-.05468.35156v1.92187l.05469.1172h.42578l-.36719.11718-.02344.35156.89063 1.16797 1.74219.53906 1.33984.35938v.53906l.08984.8086.53516.71484 1.51953.26953.89063-.08594.08984 1.16406.53516.1797 1.16015-.1797 2.05469-.98437 1.16016-.36328 1.8789-.17578 1.69531-.1797-.17968.71876-1.51563.08594-1.25.08984-.80469.26953-1.07421.8086.26953.71875.53515.89843-.17968.625-.26563.8086.26563 1.07812.625.89844.80468.17969 1.25-.1797-.26562.72267.09766.5039.05468.29297v.17188l.0586.29296v.40625l.17578.1172.35156.11718h.40625l.29297-.17578.11328-.11719.0586-.11719.11718-.23047.0586-.17578.35156-.46484.23047-.17578.17578-.0586.17578.0586.0586.17578.11718.98828.05469.46875.0586.17188.11718.23437.17578.0586.8164.05859h.28907l.11719.23437.05859.40625.0586.35156v1.10547l.11718.29297.11719.34766.28906.69922.17578.35156.58203.7539.35157.17579.17187.0586.46875.23437.64063.46484.34765.23438.29297.17578.29297.05468.23047.0625.8164.34766.29297.17578.11328.17188.35157.35156.11719.17578.52343.64063v.28906l.0586.35156v.34766l.05859.35156.0586.28906.11718.0586.17188.05859h.17578l.58203.23437.17578.1172.17578.28905.17578.23438.11328.23437.29297.23047.11719.11719v.41016l.0586.05468.28906.23438.23437.11719.0586.11718.11718.17188.0586.11719.23047.23437.05859.17578.23437.0586.1172.05859-.1172.11328-.05859.11719v.11719l-.11719.29296-.11719.28907v.58203l.17579.11719.11718.05859.0586.11719.11719.11719.11328.05859.17578.34765.0586.35157.05858.40625v.17578l-.05859.17578-.11719.69922v.17187l.1172.17579.29296.29296h.40625l.17578.1172.11719.17187.11719.29296v.23438h-.52735l-.23047-.23438h-.23437l-.17578.0586-.0586.69922.0586.34765.11719.17579.17578.41015.11718.23047.28907.46875.17578.05469h.52344l.23437.0586.75781.64062.0586.29296v.23438l.05859.0586.23047.34765v.35156l-.11719.17188v.29297l.29297.28906.29297.17578.17187.0586.29297.17577.29297.1172.58203.40624.28906.23438.29297.17578.21875.16015.01563.01172.23047.17579.64062.52343.17578.23438.1172.17578.17577.17578.11328.17188v.64062l.1172.17578.46874.11719.58203.11719.23438.05859.23047.11328.29297.11719.11328.0586.58593.35156.28907.17187.17578.0625.17578.05469.17578.0586.69922.35155.28906.17579.23438.05468.28906.17578.23437.1172.64063.40624.29297.11719.17187.0586.23438.05859.41015.05859.23047.0586.23438.11718.0586.17188-.41017.17578.46875.0586.0586.29296.11328.23438.17578.05468.23438.0586.17578.05859.40625.11719.64062.23437.11719.17188.0586.23437v.17578l-.0586.1172-.0586.40624.23438.23438.11719.05859.34766.11719.64062.23047.17578.11718.28906.1172.17578.17577.23438.46485.58203 1.10546.17578.17579.34766.17578.17578.11719.35156.11718 1.04688.52344.23437.0586.46485.11327.29297.0586.46484.17578.75781.58203.23438.23438.34765.46484.17578.17578.28907.23438.8164.69921.29297.17579.28906.28906.29297.17578.29297.28906.69531.64063.17578.17578.29297.23437.28907.23438.46875.28906.64062.58203.34766.23438.23437.29297.34766.34765.35156.46485.9336.99218.34765.40625.11719.17579.23437.05859.11328.11719.64454.17578.23047.11328.23437.0586.29297.17577.23047.1172.9336.69921.40624.40625.23438.17578.40625.17578.23437.11719.8164.34766.34766.23437.23438.11719.29297.28906.23047.11719.7578.35156.35157.17188.23047.05859.29297.11719.23437.0586.8711.17577h.8164l.46875.23047.17188.0586.875.69921.46484.1172.29297.05858.17578.0586.23047.0586.46875.05859.34766.05859.35156.0586.40625.05859h.29297l.17187.0586v.23046l.17578.17578h.29297l.34766.0586.35156.05859.69922.11719h.64063l.46484-.23438.29297-.17578.17187-.11719.41016-.17187.28906-.17578.9336-.46485.46875-.29297.52343-.29296.46485-.17188.46484-.17578 1.05078-.46485.28906-.11718.41016-.11719.28906-.11719.52735-.17578 1.51562-.69922.58203-.34765.28907-.0586.29297-.0586.34765-.11718.875-.23047.35156-.11719h.11329l.23437-.05859.875-.23437.23438-.0586h.8125l.35156-.0586.8164-.11718.17188-.0586.35156-.05468.29297-.0586.23047-.05859.8164-.17578.17579-.0586h.34765l.23438-.05859.46484-.11718.75781-.17188.23438-.0586h.34765l.41016-.11718.28906-.0586 1.28516-.05859h.28906l.41016-.0586.23047-.05858h.17578l.875-.1172h.40625l.41015-.11718h.34766l.35156-.11328.8711-.0586h1.75l1.04687.28907.41016.11719.28906.11718.35156.11719.28907.11719 1.05078.17187.28906.0586h.29297l.29297.05859.17187.0586.41016.05859.17187.0586.1172.05858h.11718l.11719.0586.35156.0586h.11328l.41016.0664 1.92187.39453 1.92578.39453 1.51953.44922 1.69532.71875 2.14453.80469 1.60547-.71875 1.42968-.80469 1.16016-1.07813 1.25-.44921 3.03516-.71875 1.875-.35938 2.14453-1.34765 2.23437-1.25391 2.5-1.25781 1.69531-.44922 1.78516-.17969 1.16016-.26953.625.53906 1.33984-.26953.71485-.98828.98437-1.34375.44531-.17969.80469-.35937 1.875-.53907 1.78516-.44921 1.25-.26954 1.16015-.08984 1.69922-.08984 1.96094-.26954 1.25-.08984h.53906l.625-.08984h.89063l2.14453-.17969 2.41015-.17969 2.58985-.08984 1.69531.17969 1.60938.08984 1.42968.35938 1.16016.71875 1.875.98828 1.16015 1.52734.26563.71484.6289.08985.35548.89844.53515.53906.53516 1.52734 1.07422.35938h.53515l-.80469.53515.08985 1.70703.71484 2.69532.89063.80468.89453.98829.71484 1.2578 1.78516.53907 1.51953-.17969.35547 1.34375 1.60937-.80469.98047-.53906.26953.26953.31641-.21484.21875-.14453.80078.44922.44922-.35938h.35547l.53515-.26953.53907-.71875.53515-.26953.625-.98828 1.16016.44922.83984.3711 1.39454.61718 1.6953-.17969h1.60548l1.78515.08985.17969-1.70704.53516-1.34375.80468.26954.4922.84765.40233.40625-.08984.53906v.35938l.71485.44922.71093-.26953h1.42969l.35938.98828.4453 1.25781.71485 1.34375 1.25.6289 1.69531.62891.71485-.17969.17969-.53906.98046-.08984.44922.35937.08594 1.25782-.26563.6289-.53515.17969v.53906l.71484.98438.26563.53906.98437.98828.80078 1.07813-.26562.35937-.08985.89844-.625 2.33203-.35546 2.0664-.08985 1.79298-.17969.71875-.08984.53906v1.4375l-.98047 1.88281-.35937 1.70703-.53516.89844-.80469 1.16797-.26562.53906 2.05469 1.2539.08593.35938-.35546.53906-.08985-.17968v.80859l.08985 1.4375-.44532.71484-1.07422.09375-.26562.71485.53515.89844.8047.71875 1.16015.80859 1.33984.26953.44531.35938-.35546.44921-1.78907-.08984-1.25-.44922-.71484-.71875-.625-.08984-.17578 3.58984-.1875 1.3086h89.35937V311.70313h-55.26953v49.08203l.76172.125 3.28906.54296 2.02344 2.83594v2.7539l2.35156.33204 2.34766.33203h4.05078l-1.3789 4.16016-2.02344.70703-2.02344.70312-.54297.34375-2.59375 1.6172-.1875.11718-2.02344-2.07813-.73046-2.74218-2.67188-2.07813-1.375-3.5-.0664-.08203-1.95704-2.67188 2.75-1.41796v-49.08204H294.42187v91.41407l.1172.03125.1328.01172.07422.07421.10547.04688.08985.0586.08593.05859.08985.0586.29687.29687.0586.08984.03125.11719.02734.11719.01563.13671-.03125.1172-.0586.08983-.0586.08594-.04296.10547-.04688.10156-.02734.1211v.14453l.17578.26953.14844.14844.07422.08594.07422.07421.04296.10547.0625.08985.0586.08593.04297.10547.0586.08985.04687.10156.04296.10547.0586.08594.11719.17968.07421.07422.0625.08594.0586.08984.04297.10547.0586.08985.05858.08593.0625.08985.0586.08984.04297.10156.11719.17969.07421.07422.0586.08594.07422.07421.08984.0586.10547.04687h.14844l.1328-.01562.13282.01562.10156-.04687.07422-.07422.04688-.10156-.01563-.13281v-.14844l-.04687-.10547-.02735-.11719-.04687-.10156-.02735-.1211-.04296-.10156-.0625-.08984-.04297-.10156-.04297-.10547-.03125-.11719-.01563-.13281-.01171-.13672.08593-.0586.0586-.08593.12109-.03125.04297.10547.01562.1328v.1172l.0586.10156.0586.08984.08983.0586.14844.14843.0586.08985.04296.10547-.01171.10156.08593.0586.10547.04687.08594.0586.08984.05858.07422.07422-.11719.02735-.10546.04687-.08594.0586-.07422.07421-.0586.08985-.0625.08594-.02734.12109-.04687.10156-.04297.10547-.03125.11719-.01172.13281-.01563.13281v.14844l.02735.11719.04687.10547.04297.10156.0586.08984.07421.07422.08985.0586.07422.07421.08984.0586.0586.08984.04296.10547.04688.10156.11719.03125.1328.01563h.14845l.11718-.03125.10547.04297.04297.10547.04688.10156.02734.1211L299.5 410l.02734.11719.03125.1211.02735.11718.10547.04297.10156.04687.13281-.01562.14844.14844.0625.08593.07422.07422.07031.07422.08984.0625.10547.04297.10156.04297.1172.03125.13671.01562.11719-.03125.07422-.07422.02734-.11718-.01172-.13282-.03125-.12109-.02734-.11719.04297-.10547h.11719l.08984.0625.11719.02735h.14843l.13282.01562h.14843l.13282.01563.1328-.01563h.14845l.1328-.01562.13282-.01172.13672.01172.11719-.02735.13281-.01562.1914-.0586-.05859.17579-.01562.1328-.02735.1211-.01562.13281-.0586.08594-.1328.01563-.10548.04687-.10546.04297-.1172.03125-.11718.02735-.26563.03125h-.14843l-.13281.01562-.07422.07422.05859.08594.14844.14843.11719.1797.07421.0703.08985.0625.08984.0586.08594.0586.08984.05858.10156.04297.10547.0625.10547.04297.08594.0586.10547.04687.10156.04297.17969.11719.0586.08984-.04298.10156-.04687.10547.01562.13281.22266.22266.0586.08985.04296.10156.03125.1211.04297.10155.01563.13282.03125.11718.01171.13672.03125.11719.14844.14844.10156.04297.10547.04296.1172.03125.1328.01563.13672.01563h.11719l.11719-.03125.08984-.0586.04297-.10547.04688-.10156.04296-.10547.03125-.11719.01172-.1328v-.14845l-.01172-.1328-.01562-.13282-.03125-.11719-.04297-.10547-.04688-.10547-.04296-.10156-.04297-.10547-.01563-.13281.01563-.13281.02734-.11719.03125-.11719.02735-.1211.04687-.10155.08984-.0586.08594-.0625.07422-.07422.08984-.05859.22266-.22266.0586-.08593.07421-.07422.11719-.17969.0586-.08594v-.14844l-.07423-.07421-.10156-.04688-.10547-.04297-.10156-.04297-.0586-.08984-.04687-.10547-.02734-.11719.08984-.05859.11719-.03125.10156-.04297.17969-.11719.14844-.14843.01172-.13282-.01172-.10546-.08985-.0586-.1328.01563h-.14845l-.1328.01562-.13282-.01562-.1211-.03125-.08593-.0586-.07422-.07422-.0586-.08984-.0625-.08594-.11718-.17969-.0586-.08593.03125-.1211.08594-.05859.1211-.03125.05859-.08594v-.1211l-.03125-.11718-.0586-.08984-.05859-.08594-.04687-.10547-.02735-.11719-.01562-.1328.0586-.08985.07421-.07422.08984-.0586.1172-.17968.07421-.07422.0586-.08594.14843-.14844.1211-.03125.1328-.01562.13282.01562.07422.07422.04297.10547.01562.13281-.03125.1172-.11719.03124-.1328.01172-.14844.14844-.04297.10547-.04688.10156-.02734.1211-.03125.11718v.14844l.03125.11719.04297.10546.05859.08985.07422.07031.07422.07422.11719.03125.12109.02734.11719-.02734.1328-.01563h.1172l.08984.0586.07422.07422.04687.10546.0586.08594.10156.04688.13281.01562.10547.04297.08594.0586-.01172.10546-.07422.07422-.17969.11719-.05859.08984-.08984.0586-.07032.07422-.07421.07421-.0625.08985-.02735.11719-.01562.1328.01562.13282-.01562.13281v.14844l.01562.13281.02735.1172.03125.12108.07421.07422.08985.0586.08594.0586.08984.05858.11719.03125v.08594l-.10157.04688-.08984.0586-.26563.03124-.11718.02735h-.14844l-.10547.04296-.10156.04688-.0586.08984-.0625.23438-.01171.13281-.03125.1211-.01563.1328v.29298l-.01172.1328.01172.13673.01563.1328.1328.01563.13282.01172.1211.03125.08593.0586.07422.07421.04688.10547.04296.10157.01563.1328v.44532l-.01563.13281v.44532l.03125.26562.02735.11719.01562.13281.03125.11719.08594.21094.03125.26562v.14844l-.03125.11719-.02734.11718-.03125.1211-.02735.11719-.03125.11718-.03125.1211-.01171.1328-.01563.13282.08984.0586.1172-.03125.10155.01562.04688.10547-.03125.26562v.44141l-.04297.10547-.04688.10547-.04296.10156-.04297.10547-.0586.08594-.03125.12109-.04296.11719-.03125.11719-.01563.1328.01563.13282.05859.08984.10547.04688.08594.0586.05859.08593-.01172.13672-.03125.11719-.04297.10156v.44531l-.01562.13281v.14844l-.03125.11719-.04297.10547-.02735.11719-.04687.10546-.04297.10157-.03125.12109-.02734.11719-.03125.13281-.03125.11719-.02735.11719-.04297.10546-.03125.1172-.03125.12108-.01171.13282-.01563.13281v.29688l.02734.11718v.14844l.04688.39844.02734.11719.0586.08984.12109.03125h.14844l.13281-.01563.0586.08985v.11719l-.0586.08984-.08984.0586-.10157.04296-.10546.04688-.08985.05859-.08594.0586-.13671.01562-.1172-.03125-.1328-.01563-.10157.04688-.0625.08594-.01172.13671-.01562.13282-.03125.11719-.02735.11718-.01562.13281-.03125.1211v.29687l.01563.13282.03125.11718v.14844l.01171.13281v.14844l-.02734.11719-.04688.10156-.02734.1211-.03125.11718-.0586.08985-.07421.07421-.10156.04297-.10547.04688-.11719.02734-.1211.03125-.10156-.04687.0586-.08594.10547-.04688.02734-.11718.03125-.11719.02734-.1211.03125-.11718v-.14844l.01563-.13281-.03125-.11719-.04297-.10547-.10547.01563-.07422.07422-.10156.04296-.08984.0625-.07422.07422-.04297.10157-.01563.1328-.03125.1172L304.25 426l-.03125.11719-.02734.11719-.03125.12109-.02735.11719-.03125.11718-.04297.10547-.08984.0586h-.08984l-.1172-.03125-.03124-.08594.01562-.13672-.03125-.11719v-.14844l-.01171-.1328v-.14844l-.0625-.23438-.02735-.1211-.04297-.10156-.04687-.10546-.0586-.08594-.05859-.08985-.04297-.10546-.0625-.08594-.14844-.14844-.0703-.07422-.10548-.04687-.10547-.04297-.10156-.04297-.29687-.29688-.08985-.07421-.08594-.0586-.10546-.04297-.08985-.0625-.08594-.0586-.10546-.04296-.08985-.0586-.08594-.0625-.07421-.0703-.10547-.04688-.08594-.0586-.10547-.04296-.08984-.0625-.10156-.04297-.10547-.04297-.08594-.0586-.10547-.04687-.10547-.04297-.10156-.04687-.08985-.0586-.10156-.04297-.10547-.04296-.08984-.0625-.11719-.02735-.13281-.01562-.13281.01562H299.75l-.13281.01563-.11719-.03125-.08984-.0586-.07422-.07422-.08985-.05859-.10156-.04688h-.14844l-.12109-.02734-.10156-.04297-.07422-.07422-.11719-.17968-.08984-.0586-.10156-.04297-.08985-.0625-.10547-.04296-.08984-.0586-.08594-.0586-.10547-.04687-.0586-.08594-.05858-.08984-.04297-.10547-.04688-.10156-.07422-.07422-.08594-.0586-.07421-.07421-.08985-.0586-.22265-.22265-.04297-.10547-.03125-.26563.10547-.04296h.14453l.10547.04296.07421.07422.08985.0586.08594.0586.10546.04687.08985.05859.14844.14844.0703.07422.14845.14843.0625.08594.07421.07422.08594.0586.07422.07421.08985.0625.08984.0586.08594.05859.26953.17578.10156.04688.10547.04296.10156.04297.04688-.07421.05859-.08594.07422-.07422.07031-.07422.10547.04297.07422.07422.0586.08984.04296.10156.04688.10547.04296.10547.1211.02735.11719-.02735.07421-.08984.04297-.10547.0586-.08985.07422-.07421.10546-.04297.1172-.02735.1328.01172.08985.0586.14844.14843.05859.08985.04297.10547.04687.10156.04297.10547.04297.10156.10547.04688.10547.04296.13281.01563.08594-.0586.0586-.08984.07421-.07422.10547-.04297.11719.02735.10547.04687.10156.04297.10547.04297.10156.04688.17969.11718v.11719l-.01563.13281.01563.13281.01562.13672.0586.08594.10156.04688.1211.02734.11718.03125h.14844l.11719-.03125.05859-.08984.17969-.1172.05859-.08983.07422-.07422.0586-.08594.11718-.17969.17969-.11719.11719.03125.08984.0586.04297.07422-.01563.1328v.1172l.08985.05859h.14843l.13282-.01563.1328-.01171.26563-.03125.10547-.04297.11719-.03125.1211-.02735.07421-.07421.07031-.07422.0625-.08985-.01562-.10547-.04688-.10156-.10156-.04297-.10547-.01562-.11718.02734-.26563.03125h-.14844l-.07421-.07422-.08985-.0586-.11719-.03124-.11718-.02735-.13282-.01562h-.14843l-.13282.01563h-.29687l-.10547-.04688-.14844-.14844-.04297-.10156-.05859-.08984.22266-.22266.08593-.0586.10547-.04296.11719-.03125.13281-.01563.13281.01563.13672.01562.10157.04297.1328-.01172.08985-.0625.10156-.04297.0625-.08984-.04687-.10156-.08984-.0586-.1172-.03125-.10155-.04296-.0586-.08985-.0625-.08984v-.11719l.01563-.13281.10547-.04688.07421-.07031v-.1211l-.08984-.05859-.03125-.11719.08985-.05859.07421-.07422.04297-.10547.0586-.08984.04687-.10156.01563-.13281v-.14844l-.04688-.10547-.04297-.10156-.08984-.0586-.13281-.01562-.10157-.04297-.13671-.01563-.1172-.03125h-.4453l-.13282-.01562-.13281-.01172-.13281-.01563-.11719-.03125h-.14844l-.13281-.01562-.13281-.01172-.26563-.03125-.1211-.04297-.08593-.0586-.07422-.07421v-.14844l.01172-.13281.10547-.04688.10156-.04296.13281-.01563h.15235l.13281-.01562h.29297l.1211.03125.10156.04296.08984.0586.23438.0625.12109-.04688.08984-.05859.10156-.04297.13282-.01562.10547.04296.10156.04688.13281.01172.1211-.02735h.14453l.12109-.03125.11719-.02734.10547-.04687.07421-.07422.08594-.0586.14844-.14843.0586-.08594.04687-.10547.02734-.11719.01563-.10547-.10156-.04296-.08985-.0586-.11719-.03125-.10546-.04297-.08985-.0625-.07422-.08594-.07422-.07421-.10156-.04297-.10547-.04688-.10156-.04297-.0586-.08984-.04687-.10156-.08594-.21094-.0625-.08594-.05859-.08984-.07422-.07422-.08594-.0586h-.26953l-.11719.03126-.08984.05859-.10156.04297-.13281.01562-.10547-.01562-.02735-.11719-.0625-.08984-.11718-.03125-.10157-.04297-.14843-.14844-.03125-.11719-.01563-.10546.07422-.07422.17969-.1172.11719-.02733.11718-.03125.13672.01562.10156.04297.10547.04297.10156.04687.10547.04297.1172.03125.1328.01563.1172.02734.1328.01563.10547-.01563.08985-.0586-.07422-.07421-.10547-.04297-.07422-.07422-.07422-.08984-.14844-.14844-.08593-.0586-.08985-.05859-.07422-.07422-.08984-.0586-.10156-.04687-.1211-.02734-.10156-.04688-.10547-.04296-.11719-.03125-.10156-.04297-.1211-.03125h-.14843l-.11719.03125-.10546.04297-.08594.0625-.17969.11718-.08594.0586-.08984.0586-.10547.04687-.08594.05859-.10547.04297-.10156.04297-.10547.04687-.07422.07422-.05859.08985-.0586.08593-.04687.10547-.0586.08594-.07421.07422-.13281-.01172-.1172-.03125h-.11718l-.07422.07422-.08984.0586-.07422.07421-.08984.0586-.08594.05859-.10547.04687-.10156.04297-.13672.01563-.10156-.04297-.14844-.14844-.10547-.04688h-.08594l-.10547.04688-.10156.04297-.1211.03125-.11718-.03125-.07422-.07422v-.11719l.03125-.1211.07422-.0703.0586-.08985.07421-.07422.11719-.03125.10547-.04296h.29297l.13281-.01563.13672-.01563.10156-.04296.08985-.0586.10156-.04687.08984-.0586.13281-.01171.08985.05859.13281.01172.08984-.0586.08594-.05859.10547-.04297.08984-.0586.08594-.0625.08985-.05859.14843-.14843.0586-.08594.05859-.08985.10547-.04296.13281-.01563.11719.02735.1211.03125.05859-.0586.05859-.08984.03125-.26563.02734-.11719.10547.01172.13281.01563.10157-.04297.08984-.0586.0586-.08984.07421-.07422.0586-.08984.04687-.10156.01172-.13281-.01172-.13282-.04687-.10547-.14844-.14843-.0586-.08985-.05859-.08594-.04297-.10546v-.44532l.01563-.1328v-.14845l.01172-.1328-.0586-.0586-.08984.0586-.10156-.04298-.17969-.11719-.08594-.05859-.0625-.08984-.0586-.08985-.07421-.07421-.08594-.0586-.1211.03125-.10155.01172-.10547.04688-.08594.05859-.10547.04297-.14844.14844-.08984.05859-.08594.0586-.08984.0625-.10547.04296-.13281.01563v-.1211l.10547-.04297.11718-.03125.07422-.0703.04297-.10548v-.14844l-.02734-.11718-.14844-.14844-.13281-.01563h-.14844l-.11719.03125-.10547.04297-.10156.04297-.08984.0625-.11719.02735-.07422-.07422.01172-.13281-.04297-.10157-.04297-.10547-.08984-.05859-.11719.02734-.1211.03125-.11718.03125-.10156.04297-.1211.03125-.10156.04297-.10547.04297-.08984.0586-.10156.01562v-.11719l.01562-.13281-.0586-.08985-.07421.04297-.14844.14844-.0586.08985-.07421.07421-.04688.10547-.04296.10156-.07422.07422-.0586.08985-.07422.07422-.05859.08593-.07422.07422-.08984.0625-.07422.07031-.07422.07422-.10156.01563-.13281.01562-.10547-.04296v-.1211l.14843-.14844.04297-.10156.0586-.08984.04687-.10156.04297-.10547.0586-.08985.03124-.11719.04297-.10156.03125-.1211.02735-.11718.04687-.10547.04297-.10156.04297-.10547.07422-.07031.08984-.0625.08985-.0586.10156-.04296h.29687l.26563-.03125.10547-.04297-.07422-.07422-.11719-.03125-.10547-.04297-.08984-.0586-.10156-.04687-.08985-.0586-.10156-.04296-.10547-.04297-.08984-.0625-.08594-.0586-.10547-.04296-.10156-.04297-.1211-.03125-.11718-.03125-.10157-.04297L297.5 410.25l-.10156-.04297-.08985-.0586-.04296-.10546-.01563-.13281.10156-.04297.13281-.01563.13672.01563.13282-.01563.10156-.04297.0586-.08984.01562-.10547-.08985-.0586-.07421-.07421-.10157-.04297-.08984-.0586-.14844-.14843-.04297-.10547-.01562-.13281v-.29297l-.0586-.08985-.08984-.05859-.07422-.07422-.04297-.10547-.03125-.11718-.0586-.08985-.07421-.07422-.11719-.02734-.07422-.07422-.08984-.0586-.08984-.0625-.08594-.05859-.07422-.07421-.0586-.08594-.04687-.10547-.08594-.0586-.14843-.14843-.19532-.0586-.1328.01563-.10157.04297-.07422.07422-.04688.10156-.04296.10547-.0586.08984-.0586.08594-.29687.29687-.08984.0586h-.08594l-.0625-.08594-.04297-.10547.03125-.11719.0586-.08984.02734-.11719-.01172-.13281-.08984-.0625-.10547.04688-.11719.02734-.11719.03125-.26953.17578-.10156.04688-.11719.02734-.10546.04687-.08985.0586-.10156.04297-.0586-.08594-.04687-.10547.01563-.13281.04687-.10547.07031-.07422.07422-.07031.0586-.08985v-.14843l-.04297-.10547h-.23829l-.10156.04687-.03125.11719-.02734.11719-.03125.1211-.07422.04296-.13281.01563-.07422-.04688-.04297-.10156-.04297-.10547-.04687-.10156-.04297-.10547-.1211.03125-.10156.04297-.13281.01562-.11719.03125-.10547.04297-.08984.0586-.10156.04687-.1211.02734-.13281.01563-.10156-.04297-.0586-.08985-.04687-.10546-.04297-.10157-.04297-.10546v-.1172l.0586-.08984.08593-.05859.17969-.11719.10156-.04687.10547-.04297.10547-.0586.10156-.04296.08985-.0625.10156-.04297.10547-.0586.10156-.04687.08984-.0586.10547-.04296.10156-.04297.08985-.0625.10156-.04297.13672-.01563.11719.03125.10156.04297.1211.03125.10156.04297.10546.04688.10157.04296.10547.04297.10156.04688.10547.04297.10156.04297.10547.04687.08594.0586.10546.04296.1172.03125.10546.04297.10156.04688.08985.0586.10547.04296.10156.04297.10547.04687.11719.02735.10156.04687.1211.02735h.14843l.08594-.0586.01562-.10156.0586-.08984-.02735-.1172-.07422-.07421-.11719-.17969-.07421-.07422-.08985-.07421-.17969-.1172-.08593-.05859-.10547-.04296-.10156-.04688-.26954-.17578-.05859-.08985-.07422-.07421-.0586-.08985-.04296-.10156-.03125-.11719-.01563-.13672v-.5625l-.01171-.1328-.01563-.13282-.03125-.11719-.01562-.13281-.01172-.13281-.03125-.1211-.22266-.22265-.0586-.08594-.01562-.10547.03125-.11719.13281-.01562v-91.41406H172.9922v1.45312l-.0586.23438-.35156 1.05078-.17187.52343-.1172.34766-.17577.41016-.11719.17187-.23438.29297-.23046.0586h-.35157l-.11718.05859-.23047.40625v.29297l.11719.17578.23046.23047.1172.23437.64062.75781.29297.46485.17578.23437.23047.35156.23437.34766.64063.8164.17578.46485.17187.41016.11719.69531.17578.46875.11719 1.39844.0586.46484v.875l.11718 1.04688v4.78125l-.0586.46484-.35156 1.28125-.17578.52344-.11328.41015-.35156.9297L172.93359 336l-.23437.58203-.11719.17578-.17187.34766-.17578.40625-.35157.8164-.0586.29297-.11327.29297-.11719.28906-.0586.17579-.11718.875-.0586.40625-.05859.11718-.0586.17579-.05859.17187-.23047.52734-.11718.17188v.23437l-.11719.23438-.0586.17187-.17577.58594v.28906l-.0586.17579v.29296l-.0586.11329-.05859.52734v.17187l-.05468.23438v2.6211l-.17578.8164-.1172.17578-.17577.23438-.1172.17187-.11327.23438-.58594.93359-.23047.28906-.29297.46485-.17578.23437-.28906.35156-.35156.69922-.11328.23047-.17579.41016-.17578.23046-.40625.52735-.8164.69922-.29297.17187-.28906.23438-.17579.11719-.17578.17578-.52344.40625-.52734.17578-.17187.17578-.23438.05469-.64062.17578h-.75782m12.21094 31.02344l-1.07422.44921.35938.89454 1.25-.71485.44531-.53906-.98047-.08985"/><path fill="#d3d3d3" fill-opacity="0" fill-rule="evenodd" d="M201.50781 416.59766h-.89453l.44922.6289.98047.35938.80469-.08985.4453-.98828-.17577.08985-.71485-.35547-.89453.35547m154.6211 59.0703l-.0586-.52343v-.29297l.11328-.29297.0586-.23046.46875-.46875h.11328l.11719-.11329.11718-.05859h.17579l.23437-.0586h.34766l.23437.0586.11719.0586.23047.17187.0586.17578.11718.58203v.29297l-.11719.17578-.17187.28906-.17579.17579-.52734.52343-.23047.23438-.11719.0586h-.17578l-.11718-.0586-.40625-.29297-.17579-.11719-.11718-.0586-.0586-.11327-.05468-.1172m6.64062-10.95702l-.0586-.17188v-1.10937l.0586-.17188.17578-.0586.17188-.05858h.17578l.23437-.0586.1172.0586.05858.69921-.05859.17188-.11719.17578-.11718.0586-.23438.52343-.11328.0586h-.23438l-.05859-.1172m9.61328-14.39062l-.11719-.17578v-.69922l.29297-.875.1172-.17187.17577-.35156.11328-.23047.1172-.29297.35155-.75781.1172-.23047.17187-.23438h.17578l.11719-.0586h.64062l.11719.0586.23437.23438.17188.11328.35156.29297.11719.11718.11328.17579v.11328l.11719.05859.11718.11719v.69922l-.05859.17578v.23047l-.0586.17578-.34765 1.05078-.11719.23047-.11719.23437-.11718.0586-.23047.23437-.64063.28906h-.875l-.41015-.11718-.64063-.46485"/><path fill="none" stroke="#bebebe" stroke-linecap="round" stroke-linejoin="round" stroke-miterlimit="10" stroke-width=".5" d="M467.95703 311.69531H144.02734v168.625h323.9297v-168.625"/><g clip-path="url(#a)"><path fill="#fff" fill-opacity="0" fill-rule="evenodd" d="M144 475.89063v4.4375h.0039H144V311.67188h.0039H144v164.21875"/></g><g clip-path="url(#b)"><path fill="#fff" fill-opacity="0" fill-rule="evenodd" d="M144.0039 480.32813V311.67188h35.50391v55.03125l-2.67187 2.66796-1.76953 2.16407-2.39453 2.27343 2.39453 2.69922 4.4414.28516 3.53516-2.98438-.47656-4.4375-3.0586-2.66796v-55.03125h31.0664v58.37109l-4.4375 2.03125-2 1.73437-2.1875 4.4375-.25.35938-4.4375 1.91015-1.98046 2.16797-2.32813 4.44141-.1328.19531-4.03126 4.24219-.40625.28125-.55078-.28125-3.88672-3.59375-4.38672-.84375-.05078-.04688-3.44922-4.39453-.99218-1.23828-1.13672 1.23828.01953 4.44141 1.11719.20313 4.4414-.14844.78125 4.38281-.78125 3.90234-.47265.53516-1.84766 4.4375-1.57422 4.4375-.54687 1.67969-2.32032 2.76172-2.11718 1.35546-3.78125 3.08204-.65625.79296-3.57813 3.64454-.85937.84375-2.83985 3.59375-.72265 4.4414-.875 2.11328-2.23047 2.32422-2.21094 2.5625-1.85938 1.875 1.85938 2.53906 4.4414 1.16797 4.4375-1.30859 2.60157-2.39844 1.83594-1.27344 3.8164-3.16406.6211-.4336 4.4375.04298 4.4414-.23828 3.02344.6289 1.41406 1.22266 1.29297-1.22266 3.14453-1.7539 2.29688-2.6836 2.14062-3.33984.96875-1.10156 3.47266-4.25782.19531-.17968 4.04297-4.4375.19922-.98438 2.40625-3.45312 2.03125-2.77344 4.4375 1.375 1.21875 1.39844 3.22266 2.41406 4.4375 1.98047.05078.04297 4.38672 2.91015 4.4375.0586 4.4375-.19141 2.67187 1.66016 1.76953 1.1875 1.33594-1.1875 1.82422-4.4375-3.16016-4.01172-.41406-.42578.41406-.78516 2.54688-3.65625 1.89062-.6914 3.53125-3.7461-1.6211-4.4375-1.91015-1.77344-4.4375 1.11328-3.89453-3.77734 3.33594-4.4375-3.88281-3.64063-.73829-.80078-2.30468-4.4375-.60547-4.4375-.78906-.34375-.57032.34375-3.86719 1.09766-.71875-1.09766-3.71875-2.89453-4.4375-.39844-4.4414-.47265v-58.3711h71.01562v51.44532l-4.4375.70312-2.05078 1.11328-2.39062.60938-3.48828 3.82812.5625 4.4375-1.51172 2.20313-4.4375-1.46875-.4961-.73438.4961-.79296 3.74219-3.64454-3.7422-3.59765-3.15624-.83985-1.28125-1.17578-1.60938 1.17578-2.83203.61329-4.4375.64453-4.4375 1.3828-.92187 1.79688-3.51563 2.33204-4.4375.2578-3.10937 1.84766 3.10937 2.88282 4.4375-.09766 4.4375.55078 4.28906 1.10156-4.11328 4.4375 4.26172 3.6836 1.10938.75781 3.32812 3.625 4.4414.38281 1.19141.42969 3.2461 2.16406 4.4375-.08203 2.08594-2.08203 2.35156-.80469 4.4414-1.15234 2.3711-2.48047-2.3711-3.97656-.1914-.46485.1914-.55468 4.4375-2.40625 3.5586-1.47657.8789-.15625 4.4375-1.3789 4.4375.07812 1.97657-2.98047 1.40234-4.4375-3.3789-3.2578-4.4375-.03517-4.4375-.07812-2.73438-1.0664-1.70313-1.81641v-51.44531h57.69922v50.5703l-3.29687 2.69141 3.29687 3.32422 4.4375-.46094v6.02344l-4.4375 1.94922-1.375 2.47656 1.375 1.02735 4.4375 2.76953v2.82812l-4.4375.01954-3.96875 2.23437-.47265.5-2.32813 3.9375 2.32813 3.6289 1.2578.8086-1.2578 3.3086-.46485 1.1289.46485.27734 4.4414 1.66016 4.4375-1.82813 4.4375.21094 4.4375 2.19922 4.4414-1.84765.69142-.67188-.69141-.40234-4.4414-2.66407-4.4375 2.79688L345.21483 396l-1.48828-2.14453-1.11719-2.29297 1.1172-2.07422 1.26952-2.36328-1.26953-2.2539v-2.82813l3.10938-3.79688-3.10938-4.42578v-6.02344l1.8789-2.86328-1.8789-2.40625-4.4375-.28515v-50.57031h8.3125l.5625.5664.6289-.5664h3.8086v26.54296l-.17187.08594.17187.10156v51.28907l-1.83984 1.87109 1.83984 3.30469 2.0586-3.30469-2.0586-1.8711v-51.28906l.20313-.10156-.20313-.08594v-26.54296h8.8789V412.4375l-1.33202 1.3164-3.10547 1.41798-2.78516 3.01953.92188 4.4375-.73047 4.4414 2.39062 4.4375.20313.33203.21094-.33203 4.22656-3.80469.66015-.6328 3.15235-4.44141-.98828-4.4375-1.46094-4.4375-1.36328-1.31641V311.67187h8.875v77.6797l-2.6289 2.21093L367.3789 396l2.97656 1.78516v37.87109l-.29688.28906-3.57421 4.4375-.56641.3711-4.4375.37109-4.4375 1.96484-4.4414.66016-.83204-3.36719-3.60547-3.42578-3.3789 3.42578-.1797 4.4375.31642 4.4414-1.19532 2.0625-1.96875 2.375 1.96875 2.11329.80078 2.32422.47657 4.4375 3.16015 3.67187.26172.76954 4.17578 4.1875h4.4414l4.4375-.26172 4.4375.03125 4.4375.17968 4.4375-.54296 4.44142.46484 3.05078-4.0586 1.21093-4.4414.17579-3.88672.29296-.55078 4.14454-2.78516 4.4375-.85547 4.4375 1.32422.44921-2.1211-.44921-.53124-4.4375-.16016-2.52735-3.7461-1.91015-2.95702-.78125-1.48438-3.65625-2.6289-4.4375-1.13282-4.13282-.67578-.3086-.1875-4.10155-4.25-.33594-.28906v-37.8711l4.4375.64063L377.01562 396l-2.22265-3.55078-.53516-.88672-3.90234-2.21094v-77.67969h22.1914v87.88672l-1.7578.87891-2.6797.78516-4.4375 1.83984-4.4375.54297-2.1953 1.26953-1.59376 4.4414 3.78906 4.0625 4.4375.0586.34766.3164-.34765.70313-4.4375-.48828-4.44141.88281-4.28906 3.33985 4.28906 3.96093 4.4414-1.10937 4.3047 1.58594-1.46485 4.4414-.88281 4.4375-1.26954 4.4375 3.75 3.42969 4.4375.73047 4.4375-.5039 4.4375-.07423 4.44141.17188 4.4375-3.19531.67969-.5586 3.75781-2.3086 2.03125-2.1289 2.40625-4.17187.21875-.26563 4.22266-3.64062 3.11719 3.64062 1.3203 1.20703 3.72266 3.23047.71485.6875 1.79687 3.75 1.67969 4.4375-3.47656.8125-3.52344 3.625-.91406 1.16406-.82813-1.16406-3.60937-3.64453-3.46875 3.64453-.83594 4.4414-.13672.9375-1.78906 3.5-2.08203 4.4375-.5664 1.59767-1.35938 2.83984 1.35937 1.41406 1.4336-1.41406 3.0039-1.5586 4.4414-.08984 4.4375.42578 3.13282-3.21484 1.30469-1.01563 3.53515-3.42187.0547-4.4375.84765-.51172 4.4375-3.4414.46484-.48829 3.97656-3.39062 1.02344-1.04688-1.02344-1.09375-2.28125 1.09375-2.16015 3.17188-2.89063-3.17188 1.07031-4.4375-.07812-4.4375-2.53906-2.60156-1.23438-1.83594 1.23438-3.83984.53906-.60156-.53906-.53907-4.4375-2.49609-4.4375-.20313-4.4375 2.59375-4.4414-2.42578-4.4375-.625-4.4375.19922-4.4375.26172-3.71876 3.23438-.72265.30468-4.4375.36329-.9297-.66797-.17577-4.4375 1.10546-3.83204.42579-.60546 1.41406-4.4375.16406-4.44141-.85937-4.4375-1.14454-.8789v-87.88673h75.44922v168.65625h-91.64062l-1.5625-1.8164-1.625 1.8164H144.0039"/></g><path fill="#50fcfc" fill-rule="evenodd" d="M152.875 438.48438l-1.85938-2.53907 1.85938-1.875 2.21094-2.5625 2.23047-2.32422.875-2.11328.72265-4.4414 2.83985-3.59375.85937-.84375 3.57813-3.64454.65625-.79296 3.78125-3.08204 2.11718-1.35546 2.32032-2.76172.54687-1.67969 1.57422-4.4375L179.03516 396l.47265-.53516.78125-3.90234-.78125-4.38281-4.4414.14844-1.1172-.20313-.01952-4.4414 1.13672-1.23829.99218 1.23828 3.44922 4.39454.05078.04687 4.38672.84375 3.88672 3.59375.55078.28125.40625-.28125 4.03125-4.24219.13281-.19531 2.32813-4.4414 1.98047-2.16798 4.4375-1.91015.25-.35938 2.1875-4.4375 2-1.73437 4.4375-2.03125v1.42187l-3.26172 2.34375-1.17578.30079-3.73047 4.13671-.70703 1.01172-4.00781 3.42578-.4297.57422-3.41405 3.86719-1.02735 1.51563-2.77344 2.92187-1.66406 1.14844-2.26562-1.14844-2.17188-2.00781-2.04297 2.00781.95703 4.4375-2.4375 4.4375-.91406 1.33594-1.98828 3.10156-.80078 4.4414-1.65234 2.28126-4.19141 2.15625-.2461.5039-2.22656 3.9336-2.21093 1.0039-3.51172 3.4336-.92578.6914-1.8711 3.75-1.32031 4.4375-1.2461 1.72266-2.3789 2.71484 2.3789 1.5 2.73048-1.5 1.70703-1.23047 4.4375-3.17968.03515-.02735 4.40235-3.08203 4.4375.54297 4.4414-.40625 4.15235-1.49219.28515-.10156 4.4375-.7539 3.20703-3.58594 1.23047-2.50782 1.78516-1.92968 2.65625-1.16797 3.10156-3.26953 1.14453-4.4375-1.26953-4.44141 1.46094-.08984 4.4375-.66407 4.4375-1.66015.97656-2.02344 1.5664-4.4375-2.54296-3.75781-4.4375-.3125-1.125-.36719 1.125-2.7539 4.4375 1.59374 4.4414.6797 4.3125.48046.125.04688 4.4375 2.07421 4.4375.26954 2.95704-2.39063 1.3125-4.4375-4.26953-4.38672-4.4375.59375-4.4375-.28906-.8711-.35938.8711-1.15234 3.34375-3.28516-2.78907-4.4375-.55469-.43359-4.4375-1.07031-4.4414-.83985v-1.42187l4.4414.47265 4.4375.39844 3.71875 2.89453.71875 1.09766 3.8672-1.09766.5703-.34375.78907.34375.60547 4.4375 2.30468 4.4375.73828.80079v8.70703l-4.4375 3.07812-4.4375.23047-4.4375-1.08203-4.4375-.69922-.5703 2.28125-.63282 4.4375.33594 4.4375.86719.73828 4.4375-.24219 1.97265-.49609 2.46484-1.13281v3.17969l-4.4375 1.60937-1.67187.78516 1.67188.87109 4.20312 3.5664.23438.15626.87109-.15625 3.5664-2.07032 2.1797-2.36718-2.1797-1.32813-4.4375-1.0664v-3.1797l4.4375-.53515 4.4375-.77734 1.4922-1.99219L236.4414 396l-3.67578-3.8086v-8.70702l3.8828 3.64062-3.33593 4.4375 3.89453 3.77734 4.4375-1.11328v4.4375l-4.4375 1.14453-.3789.62891.3789.8164 4.4375.23438.98828-1.05078-.98828-1.77344v-4.4375L243.5547 396l1.6211 4.4375-3.53126 3.7461-1.89062.6914-2.54688 3.65625-.41406.78516.41406.42578 3.16016 4.01172-1.82422 4.4375-1.33594 1.1875-1.76953-1.1875-2.67188-1.66016-4.4375.1914-4.4375-.05859-4.38671-2.91015-.05078-.04297-4.4375-1.98047-3.22266-2.41406-1.21875-1.39844-4.4375-1.375-2.03125 2.77344-2.40625 3.45312-.19922.98438-4.04297 4.4375-.19531.17968-3.47266 4.25782-.96875 1.10156-2.14062 3.33984-2.29688 2.6836-3.14453 1.7539-1.29297 1.22266-1.41406-1.22266-3.02344-.6289-4.4414.23828-4.4375-.04297-.6211.4336-3.8164 3.16406-1.83594 1.27343-2.60156 2.39844-4.4375 1.3086-4.44141-1.16798"/><path fill="#00e8fc" fill-rule="evenodd" d="M157.3164 437.44531l-2.3789-1.5 2.3789-2.71484 1.2461-1.72266 1.32031-4.4375 1.8711-3.75.92578-.6914 3.51172-3.4336 2.21093-1.0039 2.22657-3.9336.24609-.5039 4.1914-2.15625v6.42187l-.35937.17188.35938.13671.1328-.13671-.1328-.17188v-6.42187l1.65234-2.28125.80078-4.44141 1.98828-3.10156.91406-1.33594 2.4375-4.4375-.95703-4.4375 2.04297-2.00781 2.17188 2.00781 2.26562 1.14844 1.66406-1.14844 2.77344-2.92188 1.02735-1.51562 3.41406-3.86719.42969-.57422 4.0078-3.42578.70704-1.01172 3.73047-4.13671 1.17578-.30079 3.26172-2.34375v2.35938l-4.4375 1.125-2.97266 3.29687-1.46484 2.09766-2.73828 2.33984-1.69922 2.25782-1.92969 2.18359-2.51172 3.71875-.67969.71875-3.7578 2.59766L185.6875 396l-1.74219 4.24219-.1289.19531-2.10938 4.4375-.36719 4.4414-1.41406 4.4375 2.26953 4.4375.44922 4.4375 1.30078.48438 4.4375.41406.80078-.89843 2.42188-4.4375 1.21484-1.3125 4.4414-1.85157 1.20704-1.27343 2.21094-4.4375-3.41797-3.60938-1.22266-.83203.49219-4.4375.73047-3.52734 3.76172 3.52734.67578.60938 4.4375 1.23046 2.54687-1.83984 1.89063-3.6914.33203-.7461-.33203-.48828-4.4375-2.15235-4.4375-.75-1.17188-1.04687 1.17188-1.08984 2.07422-3.34766 2.36328-.95313 4.40625-3.48828.03125-.03515 4.4414-.88672v1.30469l-3.66796 4.05859 3.66797 2.61719 4.4375-.11719 4.4375.01953 3.42187 1.91797 1.01563.19531.24218-.19531 1.80078-4.4375-2.04297-2.10156-4.4375 1.03125-4.4375-1.22266-4.4375-1.76562v-1.3047l2.7422-3.51562-2.7422-2.60156-4.4414-1.82031v-2.35938l4.4414.83985 4.4375 1.07031.5547.4336 2.78905 4.4375-3.34375 3.28515-.87109 1.15234.8711.35938 4.4375.28906 4.4375-.59375 4.26953 4.38672-1.3125 4.4375-2.95703 2.39063-4.4375-.26954-4.4375-2.07421-.125-.04688-4.3125-.48047-4.44141-.67969-4.4375-1.59375-1.125 2.75391 1.125.36719 4.4375.3125L213.11719 396l-1.5664 4.4375-.97657 2.02344-4.4375 1.66015-4.4375.66407-1.46094.08984 1.26953 4.4414-1.14453 4.4375-3.10156 3.26954-2.65625 1.16797-1.78516 1.92968-1.23047 2.50782-3.20703 3.58593-4.4375.75391-.28515.10156-4.15235 1.49219-4.4414.40625-4.4375-.54297-4.40235 3.08203-.03515.02735-4.4375 3.17968-1.70703 1.23047-2.73047 1.5"/><path fill="#50fcfc" fill-rule="evenodd" d="M175.0664 376.50781l-2.39452-2.69922 2.39453-2.27343 1.76953-2.16407 2.67187-2.66796v2.66015l-.00781.00781-.4414 4.4375.44921.09766.11719-.09766-.10938-4.4375-.0078-.0078v-2.66017l3.05859 2.66797.47656 4.4375-3.53516 2.98438-4.4414-.28516m0 41.51172l-.35938.17188.35938.13671.1328-.13671-.1328-.17188"/><path fill="#00e8fc" fill-rule="evenodd" d="M179.50781 373.90625l-.44922-.09766.44141-4.4375.00781-.0078.00781.0078.10938 4.4375-.11719.09766"/><path fill="#00d4fc" fill-rule="evenodd" d="M182.19531 418.1914l-2.26953-4.4375 1.41406-4.4375.3672-4.4414 2.10937-4.4375.1289-.19531L185.6875 396l2.69531-1.83984v1.45312L187.8125 396l.57031.92969v3.47265l-.95703.03516.95703.04297.01172-.04297-.01172-.03516v-3.47265l.96875 3.50781-.96875 3.91797-.78906.51953-2.6875 4.4414-.96094 2.07423-1.13281 2.36328 1.13281 1.74218 2.21875 2.69532 2.21875 2.11328 1.21875-2.11328 3.21875-3.47657 2.45313-.96093 1.98828-.46094 2.58984-3.97656-2.58984-2.73438-2.5039-1.70703.96874-4.4375-2.90625-3.01953L188.98828 396l-.60547-.38672v-1.45312l3.75781-2.59766.6797-.71875v2.125L191.24218 396l1.57812.58594L196.15234 396l-3.33203-3.03125v-2.125l2.51172-3.71875 1.92969-2.1836 1.69922-2.2578 2.73828-2.33985 1.46484-2.09766 2.97266-3.29687 4.4375-1.125v1.54297l-4.4375.42578-2.21484 2.45312-2.22266 3.1836-1.46484 1.2539-2.97266 3.9375-.4414.50391.4414 2.09375 2.35547-2.09375 2.08203-.82422 4.4375-1.25781 2.97656-2.35938 1.46094-1.5703 3.82422-2.8672-3.82422-2.8789v-1.54297l4.4414 1.82031 2.7422 2.60156-2.7422 3.51563-4.4414.88672-.03125.03515-4.40625 3.48829-2.36328.95312-2.07422 3.34766-1.17188 1.08984 1.17188 1.04688 4.4375.75v1.42968L202.6289 396l3.5078 4.4375L208.35548 396l-2.21875-1.21094v-1.42969l4.4375 2.15235.33203.48828-.33203.7461-1.89063 3.6914-2.54687 1.83984-4.4375-1.23046-.67578-.60938-3.76172-3.52734-.73047 3.52734-.49219 4.4375 1.22266.83203 3.41797 3.60938-2.21094 4.4375-1.20703 1.27343-4.4414 1.85157-1.21485 1.3125-2.42188 4.4375-.80078.89843-4.4375-.41406-1.30078-.48437-.44922-4.4375"/><path fill="#00c4fc" fill-rule="evenodd" d="M183.94531 415.4961l-1.13281-1.7422 1.13281-2.36327.96094-2.07422 2.6875-4.44141.78906-.51953.96875-3.91797-.96875-3.50781L187.8125 396l.57031-.38672.60547.38672 3.83203 1.41797v.83594l-2.50781 2.18359.8711 4.4375-2.80079 3.44922-.6914.99219.19922 4.4375.49218.71484.53516-.71484 3.90234-2.78516 4.4414 1.05469 1.76173-2.70703-1.76172-1.85938-3.78906-2.58203 1.45312-4.4375-2.10547-2.1836v-.83593l2.90625 3.01953-.96875 4.4375 2.5039 1.70703 2.58985 2.73438-2.58984 3.97656-1.98828.46094-2.45313.96093-3.21875 3.47657-1.21875 2.11328-2.21875-2.11328-2.21875-2.69532"/><path fill="#00e8fc" fill-rule="evenodd" d="M188.38281 400.40234l-.95703.03516.95703.04297.01172-.04297-.01172-.03516"/><path fill="#00b8fc" fill-rule="evenodd" d="M187.89063 413.7539l-.19922-4.4375.6914-.99218 2.80078-3.44922-.87109-4.4375 2.50781-2.1836v.83594l-1.54687 1.34766 1.54687 3.39844 1.30078-3.39844-1.30078-1.34766v-.83593l2.10547 2.18359-1.45312 4.4375 3.78906 2.58203v.8711l-2.78516.98828 2.78516 1.43359.9336-1.4336-.9336-.98827v-.8711l1.76172 1.85938-1.76172 2.70703-4.4414-1.05469-3.90235 2.78516-.53516.71484-.49219-.71484"/><path fill="#00e8fc" fill-rule="evenodd" d="M192.82031 392.96875L191.2422 396l1.57812.58594L196.15234 396l-3.33203-3.03125"/><path fill="#00a8fc" fill-rule="evenodd" d="M192.82031 403.83594l-1.54687-3.39844 1.54687-1.34766v.83594l-.58984.51172.58984 1.29688.4961-1.29688-.4961-.51172v-.83594l1.30078 1.34766-1.30078 3.39844"/><path fill="#009800" fill-rule="evenodd" d="M192.82031 401.73438l-.58984-1.29688.58984-.51172.4961.51172-.4961 1.29688"/><path fill="#00a8fc" fill-rule="evenodd" d="M197.26172 410.75l-2.78516-1.4336 2.78516-.98827v.875l-.3164.11328.3164.16015.10547-.16015-.10547-.11329v-.875l.9336.98829-.9336 1.43359"/><path fill="#00c4fc" fill-rule="evenodd" d="M197.26172 389.21875l-.4414-2.09375.4414-.5039 2.97266-3.9375 1.46484-1.25391 2.22266-3.1836 2.21484-2.45312v.84375l-1.45313 1.60937-2.98437 4.27344-.19531.16406.1953.48047 4.4375.7461 1.55079-1.22657 2.88672-3.10546 1.77734-1.33204-1.77734-1.33593-4.4375-.27344v-.84375l4.4375-.42578 3.82422 2.8789-3.82422 2.8672-1.46094 1.5703-2.97656 2.35938-4.4375 1.25781-2.08203.82422-2.35547 2.09375"/><path fill="#009800" fill-rule="evenodd" d="M197.26172 409.47656l-.3164-.16015.3164-.11329.10547.11329-.10547.16015"/><path fill="#00b8fc" fill-rule="evenodd" d="M201.69922 383.16406l-.19531-.48047.1953-.16406 2.98438-4.27344 1.45313-1.60937v.83984l-.69531.76953.29297 4.4375.40234.09766.1211-.09766 3.75-4.4375-3.8711-.76953v-.83984l4.4375.27344 1.77734 1.33593-1.77734 1.33204-2.88672 3.10546-1.55078 1.22657-4.4375-.7461"/><path fill="#00c4fc" fill-rule="evenodd" d="M206.13672 400.4375L202.6289 396l3.5078-1.21094L208.35548 396l-2.21875 4.4375"/><path fill="#00a8fc" fill-rule="evenodd" d="M205.73438 382.6836l-.29297-4.4375.6953-.76954 3.8711.76953-3.75 4.4375-.1211.09766-.40233-.09766"/><path fill="#00d4fc" fill-rule="evenodd" d="M215.01563 389.74219l-3.66797-2.61719 3.66797-4.0586v2.07813l-1.79297 1.98047 1.79297 1.27734 4.4375-.73046 1.39843-.54688-1.39844-.5039-4.4375-1.47657v-2.07812l4.4375 1.76562 4.4375 1.22266 4.4375-1.03125 2.04297 2.10156-1.80078 4.4375-.24219.19531-1.01562-.19531-3.42188-1.91797-4.4375-.01953-4.4375.11719"/><path fill="#00c4fc" fill-rule="evenodd" d="M215.01563 388.40234l-1.79297-1.27734 1.79297-1.98047 4.4375 1.47656 1.39843.50391-1.39844.54688-4.4375.73046"/><path fill="#fff" fill-opacity="0" fill-rule="evenodd" d="M214.44531 396l-.63281 4.4375.33594 4.4375.86719.73828 4.4375-.24219 1.97265-.49609 2.46484-1.13281 4.4375-.53516 4.4375-.77734 1.4922-1.99219L236.4414 396l-3.67578-3.8086-4.4375 3.07813-4.4375.23047-4.4375-1.08203-4.4375-.69922L214.4453 396"/><path fill="#00e8fc" fill-rule="evenodd" d="M219.45313 410.1875l-1.67188-.8711 1.67188-.78515 4.4375-1.60938 4.4375 1.06641 2.17968 1.32813-2.17969 2.36718-3.5664 2.07032-.8711.15625-.23437-.15625-4.20313-3.56641"/><path fill="#50fcfc" fill-rule="evenodd" d="M237.20703 376.6914l-3.10937-2.8828 3.10937-1.84766 4.4375-.25781 3.51563-2.33204.92187-1.79687 4.4375-1.38281 4.4375-.64454 2.83203-.61328 1.60938-1.17578 1.28125 1.17578 3.15625.83985 3.74219 3.59765-3.7422 3.64454-.49609.79296.4961.73438 4.4375 1.46875v5.57812l-.5 1.09375.5.47266.42187-.47266-.42187-1.09375v-5.57812l1.51172-2.20313-.5625-4.4375 3.48828-3.82812 2.39062-.60938 2.05078-1.11328 4.4375-.70312v2.96484l-4.4375.28906-4.4414 2.23047-.69922.76953.16797 4.4375.05078 4.4375-1.52735 4.4375-2.42968 2.71875-2.88281-2.71875 1.71875-4.4375-3.27344-1.85937-1.73438-2.57813 1.73438-2.77734 1.70703-1.66016-1.70703-1.64062-4.4375-.76172-4.4414.58984-4.4375.5586-1.9336 1.2539-2.5039 3.84375-.98438.59375.98437.38672 4.4375 1.69531 3.8086 2.35547-3.8086 1.98829-2.33594 2.44921 2.33594 2.02344 3.55469 2.41797.88281.96484 4.4414 1.01954 2.48438-1.98438 1.95313-2.40234 2.22265 2.40234 2.21485 2.8789 4.4375-.46093 3.97265-2.41797-1.84765-4.4414-1.66016-4.4375 3.97656-.83985 4.4375-.95703 4.4375-.28906 4.12891-2.35157.3086-.46875 4.4375-1.49609 1.32421-2.47266-1.32422-1.27343-4.4375-.16016-4.4375-.27344-4.4375-1.58203v-2.96484l1.70313 1.8164L286.02734 366l4.4375.07813 4.4375.03515 3.37891 3.25781-1.40234 4.4375-1.97657 2.98047-4.4375-.07812-4.4375 1.3789-.8789.15625-3.5586 1.47657-4.4375 2.40625-.1914.55468.1914.46485 2.3711 3.97656-2.3711 2.48047-4.4414 1.15234-2.35156.80469-2.08594 2.08203-4.4375.08203-3.2461-2.16406-1.1914-.42969-4.4414-.38281-3.32813-3.625-1.10938-.75781-4.26172-3.6836 4.11328-4.4375-4.28906-1.10156-4.4375-.55078-4.4375.09766"/><path fill="#00e8fc" fill-rule="evenodd" d="M237.20703 401.2539l-.3789-.8164.3789-.6289 4.4375-1.14454.98828 1.77344-.98828 1.05078-4.4375-.23437m8.875-27.0586l-.98437-.38672.98437-.59375 2.5039-3.84375 1.9336-1.2539 4.4375-.5586v12.73047l-3.53125 2.39453 3.53125 2.5547 1.97266-2.5547-1.97266-2.39453V367.5586l4.4414-.58984v4.94922l-4.30077 1.89062 4.30078.60157v1.94921l-4.03125 1.88672 3.42187 4.4375.60938 1.58985 2.01953-1.58985.71094-4.4375-2.73047-1.88671v-1.94922l.63672-.60157-.63672-1.89062v-4.94922l4.4375.76172 1.70703 1.64062-1.70703 1.66016-1.73438 2.77734 1.73438 2.57813 3.27344 1.85937-1.71875 4.4375 2.8828 2.71875 2.4297-2.71875 1.52734-4.4375-.05078-4.4375-.16797-4.4375.69922-.76953v17.0625l-1.1836 1.46094 1.1836.39453.65234-.39453-.65234-1.46094v-17.0625l4.4414-2.23047v2.89454l-.18359.10546.1836 2.25 4.4375-1.95312.3164-.29688-.3164-.09375-4.4375-.01171v-2.89454l4.4375-.28906 4.4375 1.58203 4.4375.27344 4.4375.16016 1.32421 1.27343-1.32422 2.47266-4.4375 1.4961-.30859.46874-4.1289 2.35157-4.4375.28906-4.4375.95703-3.97657.83984 1.66016 4.4375 1.84765 4.44141-3.97265 2.41797-4.4375.46094-2.21485-2.87891-2.22265-2.40234-1.95313 2.40234-2.48437 1.98438-4.4414-1.01954-.88282-.96484-3.55469-2.41797-2.33594-2.02344 2.33594-2.44921 3.8086-1.98829-3.8086-2.35546-4.4375-1.69532"/><path fill="#00d4fc" fill-rule="evenodd" d="M254.95703 385.23828l-3.53125-2.55469 3.53125-2.39453v2.26172l-.19531.13281.19531.14454.10938-.14454-.10938-.1328v-2.26173l1.97266 2.39453-1.97266 2.5547"/><path fill="#00c4fc" fill-rule="evenodd" d="M254.95703 382.82813l-.19531-.14454.19531-.1328.10938.1328-.10938.14454"/><path fill="#00d4fc" fill-rule="evenodd" d="M259.39844 374.41016l-4.30078-.60157 4.30078-1.89062.63672 1.89062-.63672.60157"/><path fill="#50fcfc" fill-rule="evenodd" d="M259.39844 376.35938l-4.03125 1.88671 3.42187 4.4375.60938 1.58985 2.01953-1.58985.71094-4.4375-2.73047-1.88671v1.17187l1.03515.71484-1.03515 2.54688-1.52735-2.54688 1.52735-.71484v-1.17188"/><path fill="#fff" fill-opacity="0" fill-rule="evenodd" d="M259.39844 377.53125l-1.52735.71484 1.52735 2.54688 1.03515-2.54688-1.03515-.71484m8.875 4.0586l-.5 1.09374.5.47266.42187-.47266-.42187-1.09375"/><path fill="#00d4fc" fill-rule="evenodd" d="M272.71094 387.51953l-1.1836-.39453 1.1836-1.46094.65234 1.46094-.65234.39453m4.4414-15.89844l-.18359-2.25.1836-.10546 4.4375.01171.3164.09375-.3164.29688-4.4375 1.95312"/><path fill="#50fcfc" fill-rule="evenodd" d="M334.84766 395.1914l-2.32813-3.6289 2.32813-3.9375.47265-.5 3.96875-2.23438 4.4375-.01953 1.26953 2.25391-1.26953 2.36328-1.11719 2.07422 1.1172 2.29297L345.21483 396l2.94922 4.16797 4.4375-2.79688 4.4414 2.66407.69142.40234-.69141.67188-4.4414 1.84765-4.4375-2.19922-4.4375-.21094-4.4375 1.82813-4.44141-1.66016-.46485-.27734.46485-1.1289 1.2578-3.3086-1.2578-.8086m4.4414-26.93359l-3.29687-3.32422 3.29687-2.6914v2.63281l-.07031.0586.07031.0664.17188-.0664-.17188-.0586v-2.63281l4.4375.28515 1.8789 2.40625-1.8789 2.86329-4.4375.46093m0 11.01563l-1.375-1.02735 1.375-2.47656 4.4375-1.94922v2.91406L342 378.2461l1.72656 1.29688 1.0625-1.29688-1.0625-1.51171v-2.91407l3.10938 4.42578-3.10938 3.79688-4.4375-2.76953"/><path fill="#00e8fc" fill-rule="evenodd" d="M339.28906 365l-.07031-.0664.07031-.0586.17188.0586-.17188.0664"/><path fill="#50fcfc" fill-rule="evenodd" d="M343.72656 455.8125l-1.96875-2.11328 1.96875-2.375 1.19531-2.0625-.3164-4.4414.17969-4.4375 3.3789-3.42579v2.27344l-1.13672 1.15234 1.13672 4.39844 1.21094-4.39844-1.21094-1.15234v-2.27344l3.60547 3.42578.83203 3.36719 4.4414-.66016 4.4375-1.96484 4.4375-.3711.56642-.37109 3.57421-4.4375.29688-.28906v1.69922l-2.60938 3.02734-1.82812 1.19922-4.4375.72266-3.45703 2.51562-.98047 1.83203-2.32422 2.60938-2.11719 1.78906-4.4375-1.46875-3.0664 4.11719 1.35156 4.4375 1.71484 3.07031.83985 1.36719 1.5078 4.4414 2.08985 2.09766 4.4414.34766 4.4375-.4375 4.4375.29297 4.4375.10937 4.4375-1.1289 4.44142-1.26172.01562-.01954 3.13281-4.4414.46875-4.4375.82031-.94922 3.6211-3.48828-3.6211-3.70703-.71875-.73047-1.3203-4.4414-2.39844-1.3672-4.44141-2.70703-1.42578-.36328-3.01172-3.02734v-1.69922l.33594.28906 4.10156 4.25.3086.1875 4.1328.67578 4.4375 1.13282 3.65625 2.6289.78125 1.48438 1.91016 2.95703 2.52735 3.7461 4.4375.16015.44921.53125-.44921 2.1211-4.4375-1.32423-4.4375.85547-4.14454 2.78516-.29296.55078-.17579 3.88672-1.21093 4.4414-3.05079 4.0586-4.4414-.46485-4.4375.54297-4.4375-.17968-4.4375-.03125-4.4375.26171h-4.4414l-4.17579-4.1875-.26172-.76953-3.16015-3.67187-.47657-4.4375-.80078-2.32422"/><path fill="#00e8fc" fill-rule="evenodd" d="M343.72656 379.54297L342 378.24609l1.72656-1.51171 1.0625 1.51171-1.0625 1.29688m2.72266 78.59375l-1.35156-4.4375 3.0664-4.11719 4.4375 1.46875 2.11719-1.78906 2.32422-2.60938.98047-1.83203 3.45703-2.51562 4.4375-.72266 1.82812-1.19922 2.60938-3.02734v2.4375l-.50781.58984-3.9297 2.57422-4.4375 1.3164-.7539.54688-2.69531 4.4414-.98828 1.77345-3.13281 2.66406-1.3086 1.41797-2.57812 3.01953 2.4961 4.4375.08202.2539 4.4414 2.97266 4.4375.04688 4.4375.6289 4.4375-.1914 4.3086-3.71094.1289-.10156.15235.10156 4.28906 1.82812 1.29297-1.82812.92188-4.4375 2.22265-2.5664 1.94141-1.8711-1.9414-1.98828-2.39844-2.44922-2.03906-2.88281-.46875-1.5586-3.97266-3.45312-3.85156-.98438-.58594-.58984v-2.4375l3.01172 3.02734 1.42578.36328 4.4414 2.70704 2.39844 1.36718 1.32031 4.4414.71875.73048 3.6211 3.70703-3.6211 3.48828-.8203.94922-.46876 4.4375-3.13281 4.4414-.01563.01954-4.4414 1.26171-4.4375 1.12891-4.4375-.10937-4.4375-.29297-4.4375.4375-4.4414-.34766-2.08985-2.09765-1.50781-4.44141-.83985-1.36719-1.71484-3.07031m1.71484-13.35547l-1.13672-4.39844 1.13672-1.15234 1.21094 1.15234-1.21094 4.39844"/><g clip-path="url(#c)"><path fill="#50fcfc" fill-rule="evenodd" d="M348.79297 311.67188h-1.1914l.5625.5664.6289-.5664"/></g><path fill="#00d4fc" fill-rule="evenodd" d="M352.51953 462.57422l-2.4961-4.4375 2.57813-3.01953 1.3086-1.41797 3.1328-2.66406.98829-1.77344 2.69531-4.4414.7539-.54688 4.4375-1.3164 3.9297-2.57423.5078-.58984v2l-4.4375 2.54297-1.46093.48437-2.97656 2.27735-1.40625 2.16406-.98828 4.4375.27344 4.4375 1.85156 4.4375.26953.1211 4.4375.49218 2.23828-.61328 2.19922-4.25 4.4375-.10938 4.4414 2.84375.81641-2.92187 3.6211-4.1836.26171-.2539-.26171-.26953-4.07422-4.16797-.36329-.51563-1.17968-3.92578-3.26172-2.83594-4.4375-.1914v-2l.58594.58984 3.85156.98438 3.97265 3.45312.46875 1.5586 2.03907 2.8828 2.39844 2.44923 1.9414 1.98828-1.9414 1.8711-2.22266 2.5664-.92188 4.4375-1.29296 1.82812-4.28907-1.82812-.15234-.10156-.1289.10156-4.3086 3.71094-4.4375.1914-4.4375-.6289-4.4375-.04688-4.4414-2.97265-.08204-.25391"/><path fill="#50fcfc" fill-rule="evenodd" d="M352.60156 394.86719l-1.83984-3.30469 1.83984-1.8711 2.0586 1.8711-2.0586 3.30469m0-56.46485l-.17187-.10156.17187-.08594.20313.08594-.20313.10156m2.57813 84.22657l-.92188-4.4375 2.78516-3.01954v2.80079l-.20313.21875.20313.54296.84765 3.89454 3.58985 3.21093 2.67969-3.21093-2.6797-4.3711-1.39452-.0664-3.04297-.21875v-2.80079l3.10547-1.41796 1.33203-1.31641 1.36328 1.3164 1.46094 4.4375.98828 4.4375-3.15235 4.44141-.66015.63281-4.22656 3.8047-.21094.33202-.20313-.33203-2.39062-4.4375.73047-4.4414"/><path fill="#00e8fc" fill-rule="evenodd" d="M357.04297 418.73438l-.20313-.54297.20313-.21875 3.04297.21875 1.39453.0664v3.08594l-1.05469 1.28516 1.05469.9453.78515-.9453-.78515-1.28516v-3.08594l2.67969 4.3711-2.6797 3.21093-3.58983-3.21093-.84766-3.89454"/><path fill="#00c4fc" fill-rule="evenodd" d="M359.35938 458.13672l-.27344-4.4375.98828-4.4375 1.40625-2.16406 2.97656-2.27735 1.46094-.48437 4.4375-2.54297 4.4375.1914v.6211l-4.4375 1.04297-2.19531 1.17187-2.22657 4.4414 4.42188 2.64063 1.0664-2.64062 3.3711-2.27735v.60157l-2.47656 1.67578 2.47656 4.10156 4.11719-4.10156-4.1172-1.67578v-.60156l2.55079-2.16407-2.55078-2.21484v-.6211l3.26172 2.83594 1.17969 3.92578v3.95704l-1.00782.99609 1.00781 1.5625.9375-1.5625-.9375-.9961v-3.95703l.36329.51563 4.07421 4.16797.26172.26953-.26171.2539-3.6211 4.1836-.8164 2.92187-4.44141-2.84375-4.4375.10938-2.19922 4.25-2.23828.61328-4.4375-.49219-.26953-.1211-1.85156-4.4375"/><path fill="#00d4fc" fill-rule="evenodd" d="M361.48047 423.57422l-1.05469-.94531 1.05469-1.28516.78515 1.28516-.78515.9453"/><path fill="#00b8fc" fill-rule="evenodd" d="M370.35547 451.90234l-4.42188-2.64062 2.22657-4.4414 2.1953-1.17188 4.4375-1.04297v.61719l-3.8828 1.59765-.5547 2.89844-.72265 1.54297.72266.42969.17578-.4297 4.26172-2.8828 1.83984-1.5586-1.83984-1.59765v-.6172l2.55078 2.21485-2.55078 2.16406-3.3711 2.27735-1.0664 2.64062"/><path fill="#50fcfc" fill-rule="evenodd" d="M370.35547 397.78516L367.3789 396l.34765-4.4375 2.6289-2.21094 3.90235 2.21094.53516.88672L377.01562 396l-2.22265 2.42578-4.4375-.64062"/><path fill="#00a8fc" fill-rule="evenodd" d="M370.35547 449.6914l-.72266-.42968.72266-1.54297.55469-2.89844 3.8828-1.59765v.62109l-2.3789.97656 2.3789.95703 1.125-.95703-1.125-.97656v-.6211l1.83985 1.59766-1.83984 1.5586-4.26172 2.8828-.17578.4297"/><path fill="#50fcfc" fill-rule="evenodd" d="M374.79297 422.15234l-4.28906-3.96093 4.28906-3.33985v2.27344l-1.3711 1.0664 1.3711 1.26563 3.09375-1.26562-3.09375-1.06641v-2.27344l4.4414-.88281 4.4375.48828.34766-.70312-.34765-.31641-4.4375-.0586-3.78907-4.0625 1.59375-4.4414 2.19531-1.26953 4.4375-.54297 4.4375-1.83984v3.33203l-.57421.32031-3.86329 2.11328-2.48437 2.32813 2.48438 1.71875 3 2.71875 1.4375 3.14843v2.46875l-1.70313 3.25782.59766 4.4414-.37891 4.4375-2.95313 3.47266-.64062.96484.64063.58594.91406-.58594 3.52344-3.01953 4.4375 2.73438 1.10156.28515 3.33594 1.49219 4.4414.61719 2.5625-2.10938 1.82422-4.4375.05078-.0586 4.4375-2.08593 1.88281-2.29297 2.5547-3.17578 1.34765-1.26562-1.34766-.85938-4.4375-1.52734-4.4375.5664-4.4375.94532-1.00781.875-3.4336 1.4414-4.4375.78125-3.10156-2.22265-1.33594-3.25782v-2.46875l1.60157-3.14843-1.60156-4.2422-.15235-.1953.15235-.92579.62109-3.51562-.6211-.32031v-3.33203l2.6797-.78516 1.7578-.8789 1.14454.8789.85937 4.4375-.16406 4.4414-1.41406 4.4375-.42579.60548-1.10546 3.83203.17578 4.4375.92969.66796 4.4375-.36328.72265-.30468 3.71875-3.23438 4.4375-.26172 4.4375-.19922 4.4375.625 4.4414 2.42579 4.4375-2.59375V421.25l-2.01562 1.3789 2.01563 2.14844 2.71094 2.29297 1.72656 1.60156 1.07422-1.60156.1953-4.4414-1.26952-.8086-4.4375-.57031v-1.85938l4.4375.20313 4.4375 2.4961.53906.53906-.53906.60156-1.23438 3.83984 1.23438 1.83594 2.53906 2.60156.07813 4.4375-1.07032 4.4375 2.89063 3.17188 2.16015-3.17188 2.28125-1.09375 1.02344 1.09375-1.02344 1.04688-3.97656 3.39062-.46484.48828-4.4375 3.44141-.84766.51172-.05469 4.4375-3.53515 3.42187-1.30469 1.01563-3.13281 3.21484-4.4375-.42578-4.4414.08985-3.00392 1.55859-1.43359 1.41406-1.35937-1.41406 1.35937-2.83985.5664-1.59765 2.08204-4.4375 1.78906-3.5.13672-.9375.83594-4.4414 3.46875-3.64454v2.11719l-1.45313 1.52734-1.01562 4.4414.2461 4.4375 2.22265 3.45704 1.8164.98047 2.6211.73437.71484-.73437 3.72266-2.89844 1.58984-1.53906-1.58984-3.22656-3.27344-1.21094 3.27344-1.66016 4.4375-1.97656.96094-.80469-.96094-.97656-4.4375-.25781-1.19922 1.23437-3.23828 4.11719-2.92578-4.11719-1.51172-1.52734v-2.11719l3.60937 3.64453.82813 1.16406.91406-1.16406 3.52344-3.625 3.47656-.8125-1.67969-4.4375-1.79687-3.75-.71485-.6875-3.72265-3.23047-1.32031-1.20703-3.1172-3.64062-4.22265 3.64062-.21875.26563-2.40625 4.17187-2.03125 2.1289-3.75781 2.3086-.67969.5586-4.4375 3.1953-4.4414-.17187-4.4375.07422-4.4375.5039-4.4375-.73046-3.75-3.42969 1.26953-4.4375.8828-4.4375 1.46485-4.4414-4.30469-1.58594-4.4414 1.10937"/><path fill="#00d4fc" fill-rule="evenodd" d="M374.79297 447.58594l-2.47656 1.67578 2.47656 4.10156 4.11719-4.10156-4.1172-1.67578v.60156l2.63673 1.07422-2.63672 2.6211-1.58203-2.6211 1.58203-1.07422v-.60156"/><path fill="#009800" fill-rule="evenodd" d="M374.79297 445.77734l-2.3789-.95703 2.3789-.97656v.61719l-.8711.35937.8711.35156.41406-.35156-.41406-.35937v-.61719l1.125.97656-1.125.95703"/><path fill="#00e8fc" fill-rule="evenodd" d="M374.79297 448.1875l-1.58203 1.07422 1.58203 2.6211 2.63672-2.6211-2.63672-1.07422v.60547l1.15234.46875-1.15234 1.14453-.6914-1.14453.6914-.46875v-.60547m0-28.73047l-1.3711-1.26562 1.3711-1.06641 3.09375 1.0664-3.09375 1.26563"/><path fill="#00ac00" fill-rule="evenodd" d="M374.79297 445.17188l-.8711-.35157.8711-.35937.41406.35937-.41406.35156"/><path fill="#50fcfc" fill-rule="evenodd" d="M374.79297 448.79297l-.6914.46875.6914 1.14453 1.15234-1.14453-1.15234-.46875v.36328l.26172.10547-.26172.25781-.15625-.25781.15625-.10547v-.36328"/><path fill="#fff" fill-opacity="0" fill-rule="evenodd" d="M374.79297 449.15625l-.15625.10547.15625.25781.26172-.25781-.26172-.10547"/><g clip-path="url(#d)"><path fill="#50fcfc" fill-rule="evenodd" d="M373.16797 480.32813l1.625-1.81641 1.5625 1.8164h-3.1875"/></g><path fill="#00b8fc" fill-rule="evenodd" d="M379.23438 455.26172l-1.00782-1.5625 1.00781-.9961.9375.9961-.9375 1.5625"/><path fill="#00e8fc" fill-rule="evenodd" d="M383.67188 411.03516l-2.48438-1.71875 2.48438-2.32813 3.86328-2.11328.57421-.32031.6211.32031-.6211 3.51563-.15234.92578.15235.1953 1.60156 4.2422-1.60156 3.14843-1.4375-3.14843-3-2.71875m0 25.49609l-.64063-.58594.64063-.96484 2.95312-3.47266.3789-4.4375-.59765-4.4414 1.70313-3.25782 1.33593 3.25782 3.10156 2.22265 4.4375-.78125 3.4336-1.4414 1.00781-.875 4.4375-.94532 4.4375-.5664v2.17578l-.96875.21094-3.46875 1.84765-4.4375-.41406-4.4414 1.90625-3.55079 1.10156-.88671.52344-2.57813 3.91406 2.57813 2.15235 4.4375 1.32812 4.4414-.10937 1.85547-3.3711 2.58203-3.0039 2.04688-1.4336 2.39062-3.79297.5-.64843-.5-.21094v-2.17578l4.4375 1.52734 1.34766.85938-1.34766 1.26562-2.55469 3.17578-1.8828 2.29297-4.4375 2.08594-.05079.0586-1.82422 4.4375-2.5625 2.10937-4.4414-.61719-3.33594-1.49219-1.10156-.28515-4.4375-2.73438-3.52344 3.01953-.91406.58594"/><path fill="#00d4fc" fill-rule="evenodd" d="M392.54688 433.66016l-2.57813-2.15235 2.57813-3.91406.88671-.52344 3.55079-1.10156 4.4414-1.90625v1.84375l-2.66015 1.16406-1.78125 1.2461-4.4375 2.91015-.1836.28125.1836.15235 4.4375 1.65234 3.55859-1.80469.88281-1.32031 2.44922-3.11719-2.44922-1.16406v-1.84375l4.4375.41406 3.46875-1.84765.96875-.21094.5.21094-.5.64843-2.39062 3.79297-2.04688 1.4336-2.58203 3.0039-1.85547 3.3711-4.4414.10937-4.4375-1.32812"/><path fill="#00c4fc" fill-rule="evenodd" d="M392.54688 431.66016l-.1836-.15235.1836-.28125 4.4375-2.91015v2.96484l-.33594.22656.33594.1289.2539-.1289-.2539-.22656v-2.96484l1.78125-1.2461 2.66015-1.16406 2.44922 1.16406-2.44922 3.11719-.88281 1.32031-3.5586 1.80469-4.4375-1.65234"/><path fill="#00b8fc" fill-rule="evenodd" d="M396.98438 431.63672l-.33594-.1289.33594-.22657.2539.22656-.2539.1289"/><path fill="#00e8fc" fill-rule="evenodd" d="M416.95703 453.69922l-.2461-4.4375 1.01563-4.4414 1.45313-1.52735 1.51172 1.52734 2.92578 4.11719 3.23828-4.11719 1.19922-1.23437 4.4375.25781.96094.97656-.96094.80469-4.4375 1.97656-3.27344 1.66016 3.27344 1.21094 1.58984 3.22656-1.58984 1.53906-3.72266 2.89844-.71484.73437-2.6211-.73437-1.8164-.98047-2.22266-3.45703m6.66016-28.92188l-2.01563-2.14843 2.01563-1.37891 4.4375.57031 1.26953.8086-.19531 4.4414-1.07422 1.60156-1.72656-1.60156-2.71094-2.29297"/><g clip-path="url(#e)"><path fill="#fff" fill-opacity="0" fill-rule="evenodd" d="M467.9961 480.32813H468V311.67188h-.0039H468v168.65625h-.0039"/></g><path fill="#fff" fill-opacity="0" fill-rule="evenodd" d="M385.33203 472.32422l2.57031-5.2461-8.9453-4.3789-2.57032 5.24219 8.94531 4.3828"/><path fill-rule="evenodd" d="M379.57031 465.60547l.22656-.45703 5.65235 2.76953-.34766.70703-4.03125-1.97266-.60937 1.2461-.5-.2461.1875-.53125.0625-.25.01953-.24609-.03516-.24219-.11328-.25-.20312-.25781-.3086-.26953"/><path fill="#fff" fill-opacity="0" fill-rule="evenodd" d="M373.78516 420.89063l5.3125-2.4297-4.14454-9.05859-5.3125 2.4297 4.14454 9.05858"/><path fill-rule="evenodd" d="M373.58594 412.04297l.46484-.21094 2.61719 5.72266-.71485.32812-1.86718-4.08203-1.26172.57813-.23438-.50782.48438-.28906.20703-.15625.17188-.17578.125-.21484.0703-.26172.00782-.32813-.07031-.40234"/><path fill="#fff" fill-opacity="0" fill-rule="evenodd" d="M423.35938 423.52344l5.61718 1.60937 2.74219-9.57422-5.61328-1.60937-2.7461 9.57422"/><path fill-rule="evenodd" d="M428.96484 416.67578l.48829.14063-1.73438 6.05078-.75781-.21875 1.23828-4.3164-1.33594-.37892.15235-.53515.55859.08984.25781.01953.24219-.02343.23437-.07813.22657-.15625.21875-.24219.21093-.35156"/><path fill="#fff" fill-opacity="0" fill-rule="evenodd" d="M206.0586 379.625L209.625 375l-7.88281-6.08594-3.57031 4.6211 7.88671 6.08984"/><path fill-rule="evenodd" d="M201.76172 371.88672l.3125-.40235 4.98047 3.84766-.48047.6211-3.55469-2.7422-.84766 1.09766-.4414-.33984.29297-.48047.10937-.23437.07031-.23829.01172-.24609-.05859-.26562-.14844-.29297-.2461-.32422"/><path fill="#fff" fill-opacity="0" fill-rule="evenodd" d="M180.6289 437.8789l5.83985-.1328-.22266-9.95704-5.83984.1289.22266 9.96095"/><path fill-rule="evenodd" d="M183.94531 429.67188l.50781-.01172.14454 6.29296-.78907.01954-.10156-4.48829-1.38672.03125-.01172-.55468.5586-.07813.25-.0586.22656-.09765.19922-.14453.17187-.21484.13282-.29688.09765-.39844"/><path fill="#fff" fill-opacity="0" fill-rule="evenodd" d="M276.70313 366.80469l5.52343 1.89062 3.22656-9.42187-5.52734-1.89453-3.22265 9.42578"/><path fill-rule="evenodd" d="M282.64453 360.25l.48047.16406-2.03906 5.95313-.74219-.2539 1.45313-4.2461-1.3125-.44922.17968-.52735.55078.1211.25391.03125.2461-.01172.23827-.0664.23438-.14454.22656-.23047.23047-.33984"/><path fill="#fff" fill-opacity="0" fill-rule="evenodd" d="M201.14063 405.25l1.23828-7.82813-10.06641-1.59375-1.23828 7.82813 10.0664 1.59375"/><path fill-rule="evenodd" d="M193.27344 401.49219l.51172-3.2461.73047.1172-.41016 2.60546 1.7461.51172-.125-.25-.08985-.28906-.03516-.33204.02735-.3828.07812-.31641.13672-.32032.19531-.30859.26172-.27344.32813-.22265.1914-.08985.20703-.0664.22657-.04688.24218-.02344.26563.00391.28125.03125.4336.10156.39452.16797.35547.23047.29688.28906.23047.34766.08593.19531.06641.20703.04688.22266.01953.23437v.2461l-.03125.25781-.10547.45703-.16406.3789-.21094.3047-.25781.23828-.28907.17578-.32422.125-.34375.07422-.36718.03125.125-.77735.24218-.04297.21875-.0703.19922-.09376.17578-.11719.14844-.14843.11719-.17188.08984-.19922.05469-.22656.02734-.3125-.02734-.28906-.08203-.26172-.13281-.23047-.1836-.19531-.24219-.16406-.29296-.1211-.35157-.08203-.26172-.01953-.26953.01953-.26172.0625-.24609.10938-.22266.16015-.1875.21094-.14062.26953-.08984.32813-.01563.33984.0625.29687.14063.29688.21875.35156-.10938.6836-3.3086-.9922"/><g clip-path="url(#f)"><path fill="none" stroke="#000" stroke-linecap="round" stroke-linejoin="round" stroke-miterlimit="10" stroke-width=".5" d="M146.57031 482.72656l-5.14062-4.79297"/></g><g clip-path="url(#g)"><path fill="none" stroke="#000" stroke-linecap="round" stroke-linejoin="round" stroke-miterlimit="10" stroke-width=".5" d="M159.92578 482.67969l-5.22266-4.70313"/></g><g clip-path="url(#h)"><path fill="none" stroke="#000" stroke-linecap="round" stroke-linejoin="round" stroke-miterlimit="10" stroke-width=".5" d="M172.79297 483.09766l-4.32422-5.53907"/></g><g clip-path="url(#i)"><path fill="none" stroke="#000" stroke-linecap="round" stroke-linejoin="round" stroke-miterlimit="10" stroke-width=".5" d="M186.57422 482.66016l-5.25781-4.66407"/></g><g clip-path="url(#j)"><path fill="none" stroke="#000" stroke-linecap="round" stroke-linejoin="round" stroke-miterlimit="10" stroke-width=".5" d="M199.75781 482.80078l-4.9961-4.94531"/></g><g clip-path="url(#k)"><path fill="none" stroke="#000" stroke-linecap="round" stroke-linejoin="round" stroke-miterlimit="10" stroke-width=".5" d="M213.35547 482.47656l-5.5625-4.29687"/></g><g clip-path="url(#l)"><path fill="none" stroke="#000" stroke-linecap="round" stroke-linejoin="round" stroke-miterlimit="10" stroke-width=".5" d="M226.7461 482.375l-5.71094-4.09375"/></g><g clip-path="url(#m)"><path fill="none" stroke="#000" stroke-linecap="round" stroke-linejoin="round" stroke-miterlimit="10" stroke-width=".5" d="M240.40234 481.78125l-6.39453-2.90625"/></g><g clip-path="url(#n)"><path fill="none" stroke="#000" stroke-linecap="round" stroke-linejoin="round" stroke-miterlimit="10" stroke-width=".5" d="M253.7461 481.71875l-6.45313-2.77734"/></g><g clip-path="url(#o)"><path fill="none" stroke="#000" stroke-linecap="round" stroke-linejoin="round" stroke-miterlimit="10" stroke-width=".5" d="M266.76953 482.26172l-5.86719-3.86328"/></g><g clip-path="url(#p)"><path fill="none" stroke="#000" stroke-linecap="round" stroke-linejoin="round" stroke-miterlimit="10" stroke-width=".5" d="M280.34375 481.79688l-6.38672-2.9375"/></g><g clip-path="url(#q)"><path fill="none" stroke="#000" stroke-linecap="round" stroke-linejoin="round" stroke-miterlimit="10" stroke-width=".5" d="M293.58203 481.95313l-6.23047-3.25"/></g><g clip-path="url(#r)"><path fill="none" stroke="#000" stroke-linecap="round" stroke-linejoin="round" stroke-miterlimit="10" stroke-width=".5" d="M307.27734 479.96484l-6.99218.72657"/></g><g clip-path="url(#s)"><path fill="none" stroke="#000" stroke-linecap="round" stroke-linejoin="round" stroke-miterlimit="10" stroke-width=".5" d="M320.53516 479.61719l-6.87891 1.42578"/></g><g clip-path="url(#t)"><path fill="none" stroke="#000" stroke-linecap="round" stroke-linejoin="round" stroke-miterlimit="10" stroke-width=".5" d="M332.35156 483.25781l-3.8789-5.85937"/></g><g clip-path="url(#u)"><path fill="none" stroke="#000" stroke-linecap="round" stroke-linejoin="round" stroke-miterlimit="10" stroke-width=".5" d="M342.4414 483.59766l2.57032-6.53907"/></g><g clip-path="url(#v)"><path fill="none" stroke="#000" stroke-linecap="round" stroke-linejoin="round" stroke-miterlimit="10" stroke-width=".5" d="M356.11719 483.71875l1.84765-6.78125"/></g><g clip-path="url(#w)"><path fill="none" stroke="#000" stroke-linecap="round" stroke-linejoin="round" stroke-miterlimit="10" stroke-width=".5" d="M367.19531 481.86328l6.32031-3.07031"/></g><g clip-path="url(#x)"><path fill="none" stroke="#000" stroke-linecap="round" stroke-linejoin="round" stroke-miterlimit="10" stroke-width=".5" d="M380.32813 481.40625l6.6875-2.15625"/></g><g clip-path="url(#y)"><path fill="none" stroke="#000" stroke-linecap="round" stroke-linejoin="round" stroke-miterlimit="10" stroke-width=".5" d="M393.47266 480.34375l7.02734-.02734"/></g><g clip-path="url(#z)"><path fill="none" stroke="#000" stroke-linecap="round" stroke-linejoin="round" stroke-miterlimit="10" stroke-width=".5" d="M394.4961 480.33984l-.58204-1.08203"/></g><g clip-path="url(#A)"><path fill="none" stroke="#000" stroke-linecap="round" stroke-linejoin="round" stroke-miterlimit="10" stroke-width=".5" d="M406.97656 481.46094l6.65235-2.26563"/></g><g clip-path="url(#B)"><path fill="none" stroke="#000" stroke-linecap="round" stroke-linejoin="round" stroke-miterlimit="10" stroke-width=".5" d="M407.9414 481.13281l-.89452-.83984"/></g><g clip-path="url(#C)"><path fill="none" stroke="#000" stroke-linecap="round" stroke-linejoin="round" stroke-miterlimit="10" stroke-width=".5" d="M420.42188 481.78906l6.39062-2.91797"/></g><g clip-path="url(#D)"><path fill="none" stroke="#000" stroke-linecap="round" stroke-linejoin="round" stroke-miterlimit="10" stroke-width=".5" d="M420.42188 481.78906l-1.94922-1.49219"/></g><g clip-path="url(#E)"><path fill="none" stroke="#000" stroke-linecap="round" stroke-linejoin="round" stroke-miterlimit="10" stroke-width=".5" d="M433.78125 481.88672l6.29688-3.11719"/></g><g clip-path="url(#F)"><path fill="none" stroke="#000" stroke-linecap="round" stroke-linejoin="round" stroke-miterlimit="10" stroke-width=".5" d="M433.78125 481.88672l-1.99219-1.42969"/></g><g clip-path="url(#G)"><path fill="none" stroke="#000" stroke-linecap="round" stroke-linejoin="round" stroke-miterlimit="10" stroke-width=".5" d="M447.4375 482.4375l5.6211-4.21875"/></g><g clip-path="url(#H)"><path fill="none" stroke="#000" stroke-linecap="round" stroke-linejoin="round" stroke-miterlimit="10" stroke-width=".5" d="M461.27344 482.99219l4.57812-5.32813"/></g><g clip-path="url(#I)"><path fill="none" stroke="#000" stroke-linecap="round" stroke-linejoin="round" stroke-miterlimit="10" stroke-width=".5" d="M146.1289 469.8086l-4.2578-5.58985"/></g><path fill="none" stroke="#000" stroke-linecap="round" stroke-linejoin="round" stroke-miterlimit="10" stroke-width=".5" d="M145.51172 468.9961L145 470.10936m14.89063-.70703l-5.15235-4.77734m4.40234 4.08203l-.3164 1.1875m13.76172.03906l-3.91016-5.83984m3.33984 4.98828l-.57812 1.08203m14.76172-.45312l-4.50781-5.39453m3.85156 4.60937l-.46094 1.13672m14.07813-.09375l-3.80078-5.91016m3.25 5.05078l-.60157 1.07032m14.26953-.09375l-3.40234-6.14453m2.90625 5.25l-.66797 1.03125m14.46094-.125l-3.36719-6.16797m17.47656.59375l-4.95703 4.98047m18.5586-4.66016l-5.52735 4.33984m4.72266-3.70703l1.1211.4961m13.0625-1.04297l-5.66016 4.16797m4.83984-3.5586l1.10547.52735m13.64062.23437l-6.8789 1.42578m5.8789-1.21875l.78516.94531m13.60156-.3125l-7.02344-.2539m6.00391.21484l.53516 1.10547m13.76562-1.69922l-6.95312 1.01172m5.9414-.86328l.72657.98828m10.84765 2.8086l-1.44922-6.87891m1.23829 5.8789l-.94141.78516m10.5586-1.73828l6.36718-2.97266m6.73047 2.35938l6.80469-1.7461m-5.81641 1.4922l-.82813-.90626m13.9375 2.6289l5.23829-4.68359m-4.47657 4l-1.15234-.42187m12.85938-.65234l6.92968-1.16797m-5.92187.9961l-.7461-.97267m13.1875-.55468l6.66407 2.23437m-5.69532-1.91015l-.19921-1.21094m13.0039-.01953l5.7461 4.04297m-4.91016-3.45313l.15234-1.21875m11.70703 2.26953l6.98438.76172m-5.96875-.65234l-.45313-1.14063m12.75 1.7539l6.9922-.68359m-6.9922.6836l-1.35937-2.04688m14.82422 2.78125l6.6914-2.15234m-6.6914 2.15234l-1.75781-1.71093m14.96875 1.29687l6.90234-1.32422m-6.90235 1.32422l-1.53906-1.91406m15.54688 3.42969l5.51172-4.35547m-4.70704 3.72265l-1.125-.49218"/><g clip-path="url(#J)"><path fill="none" stroke="#000" stroke-linecap="round" stroke-linejoin="round" stroke-miterlimit="10" stroke-width=".5" d="M145.77734 456.73047l-3.55468-6.0625"/></g><path fill="none" stroke="#000" stroke-linecap="round" stroke-linejoin="round" stroke-miterlimit="10" stroke-width=".5" d="M145.25781 455.84766l-.64062 1.04687m15.70312-1.375l-6.00781-3.64453m5.13281 3.11719l-.07031 1.22265m14.76172-2.26953l-7.01172-.49219m17.5 3.69141l-1.35938-6.89453m1.16016 5.89453l-.95312.77344m12.51172.05469l2.55078-6.54688m-2.1797 5.59375l-1.21874.14453m14.09375.78125l2.6914-6.49219M209.6211 456l-1.22265.11719m14.60937.98047l1.76563-6.80079m13.91015.21485l-2.95312 6.375m13.9414-6.59766l1.69922 6.82031m-1.45312-5.82812l.91406-.82031m12.3789-.21875l1.25 6.91406m-1.0703-5.91016l.96484-.7578m12.13281-.23829l1.32422 6.89844m-1.13281-5.89453l.95703-.77344m12.55078-.28516l.5586 7.0039m-.47657-5.98437l1.03125-.66015m12.78125-.35547l-.60156 7m.51562-5.98438l1.125-.48047m11.25391-.47656l1.4414 6.8789m-1.23046-5.875l.9414-.78515m9.875 1.40235l6.01563 3.63671m6.79687-1.68359l7.02344-.26953m-6 .23047l-.61719-1.0586m12.90625 1.06641l7.02735-.20703m-6.0039.17969l-.60938-1.0664m12.90625 1.21093l7.01562-.4375m-5.99219.3711l-.64453-1.04298m13.07813-.11328l6.73437 2.00781m-5.7539-1.71484l-.2422-1.20312m12.9375.09375l6.01173 3.64062m-5.13672-3.11328l.07031-1.22266m11.88672 2.9336l6.97656-.83594m-5.96094.71484l-.69921-1.0078M420.11719 454l7-.60156m-7 .60156l-1.33594-2.0586M433.5 454.45704l6.86328-1.51562M433.5 454.45703l-1.58984-1.86719m14.83203 1.38672l7.00781-.55469m-7.00781.5547l-1.3164-2.07032m15.41015 4.01172l5.44922-4.4375m-5.44922 4.4375l-2.25782-.95313"/><g clip-path="url(#K)"><path fill="none" stroke="#000" stroke-linecap="round" stroke-linejoin="round" stroke-miterlimit="10" stroke-width=".5" d="M144.625 443.83984l-1.25-6.91406"/></g><g clip-path="url(#L)"><path fill="none" stroke="#000" stroke-linecap="round" stroke-linejoin="round" stroke-miterlimit="10" stroke-width=".5" d="M144.4414 442.83594l-.96484.75781"/></g><path fill="none" stroke="#000" stroke-linecap="round" stroke-linejoin="round" stroke-miterlimit="10" stroke-width=".5" d="M157.96094 443.83594l-1.29297-6.90625m1.10547 5.90234l-.95703.76563m16.45312-5.53516l-5.27734 4.64063m19.42187-2.8711l-6.9375 1.10547m5.92969-.94531l.73828.97656m13.14453 1.19531l-6.0586-3.5625m17.375-1.57812l-2.0625 6.71875m1.76563-5.73828l1.20313-.23438m12.41016-.7461l-2.0625 6.71876m1.76171-5.73828l1.20313-.23438m12.47656-.72656l-2.1914 6.67969m1.87109-5.70703l1.21094-.21094m10.58593-.85547l1.48828 6.86719m-1.27343-5.8672l.9375-.79296m11.78125-.10156l2.25 6.65625m-1.92188-5.6875l.83985-.89063m13.65234-.24219l-.75781 6.98438m.64453-5.96875l1.14062-.45313m11.35938-.53906l1.09765 6.9414m-.9375-5.93359l.97657-.73828m12.69531-.3125l.0586 7.02735m-.0586-7.02735l2.16016-1.17187m10.8203 1.1914l.73048 6.98829m-.625-5.97266l1.01562-.6875m12.17578-.32813l.76563 6.98438m-.65235-5.96875l1.01172-.6914m9.20704 2.16796l6.73437 2m-5.75781-1.70703l-.24219-1.20312m12.73047.5l6.4336 2.82421m-5.4961-2.41406l-.09375-1.22265m12.27344 1.39062l6.82812 1.66406m-5.83203-1.42187l-.30469-1.1875m12.52735 1.86719l7.02343-.1797m-6.0039.15235l-.60156-1.0664m12.89843 1.1875l7.01953-.3672m-5.99609.3125l-.63281-1.05077m13.05078 1.8711l6.76562-1.89845m-5.78125 1.625l-.84765-.88672m13.04687.21094h7.02735m-6.00391 0l-.57422-1.08203m12.91797 1.6875l6.92188-1.21094m-6.92188 1.21094l-1.50781-1.9336m14.89844 2.26954l6.77343-1.8789m-6.77344 1.8789l-1.6875-1.78125m15.83985 3.25781l5.10156-4.83203m-4.35937 4.1289l-1.16407-.39062"/><g clip-path="url(#M)"><path fill="none" stroke="#000" stroke-linecap="round" stroke-linejoin="round" stroke-miterlimit="10" stroke-width=".5" d="M142.94922 430.42188l2.10156-6.70704"/></g><path fill="none" stroke="#000" stroke-linecap="round" stroke-linejoin="round" stroke-miterlimit="10" stroke-width=".5" d="M155.71094 430.19531l3.21094-6.2539m-2.7461 5.34375l-1.22656.01562m14.07422.89453l3.21094-6.25m-2.7422 5.33985l-1.22655.01562m15.90234 1.27344l-.44531-7.01172m.3828 5.99219l-1.04687.64453m13.67188-6.60547l1.0625 6.94922m14.375-6.60547l-3.1875 6.26172m2.72266-5.35156l1.22656-.02344m8.73828-.47656l4.44531 5.4414m-3.80078-4.64844l.47656-1.1328m12.1914.34374l4.44923 5.4375m-3.80078-4.64844l.47265-1.1328m13.375-.29298l2.08985 6.70703m-1.78516-5.73046l.86328-.875m11.86328 0l2.65625 6.5039m-2.26953-5.5586l.78516-.9414m11.92969.08985l3.08203 6.3164m-2.63282-5.39843l.72266-.9922m11.46094.51173l4.44531 5.4414m-3.79688-4.64843l.47266-1.13282m14.0586-.4336l.71875 6.98829m-.61329-5.97266l1.01563-.68359m11.1914-.07422l2.72657 6.47656m-2.33203-5.53515l.77343-.95313m11.70313.23438l3.60937 6.02734m-3.08203-5.15234l.63281-1.05078m11.04688 1.22265l5.82422 3.9336m-4.97656-3.35938l.1289-1.22265m12.33594.65625l5.83203 3.91796m-4.98437-3.34765l.1289-1.22266m12.35156.6289l5.8047 3.96485m-4.96094-3.38672l.13671-1.21875m12.08594 4.17578l6.30469-3.10546m-5.38672 2.65234l-.9961-.71484m19.88673.6953l-6.6836-2.16015m14.125 3.51563l5.0625-4.8711m7.27735 2.21875l7.01562.4336m-5.9961-.3711l-.5078-1.11718m13.10937 2.72265l6.40234-2.89844m-5.46875 2.47657l-.97265-.75m14.16015 2.29297l4.78906-5.14454m-4.08984 4.39454l-1.1875-.31641m14.71485 1.67969l2.96875-6.3711m-2.53907 5.44532l-1.22265.0625"/><g clip-path="url(#N)"><path fill="none" stroke="#000" stroke-linecap="round" stroke-linejoin="round" stroke-miterlimit="10" stroke-width=".5" d="M146.14844 416.53516l-4.29688-5.5625"/></g><path fill="none" stroke="#000" stroke-linecap="round" stroke-linejoin="round" stroke-miterlimit="10" stroke-width=".5" d="M145.52344 415.72656l-.50781 1.11719m12.5703.41406l-.54296-7.00781m.46484 5.98828l-1.03515.65625m11.71875-.61328l4.8789-5.0586m-4.8789 5.0586l-2.35938-.67188m15.86719.84766l4.49219-5.40625m-3.83985 4.61719l-1.19922-.2461m13.33203.48829l5.55079-4.3125m-4.7422 3.68359l-1.11718-.5m12.9961-1.89453l6.80859 1.73437m-5.82031-1.48047l-.28907-1.1914m12.66016.77344l6.71875 2.05859m-5.74219-1.75781l-.23047-1.20313m12.63282.71875l6.58984 2.42969m-6.58984-2.42969l-.33203-2.4336m13.54687 2.7461l6.79297 1.80469m-6.79297-1.80469l-.55469-2.39062m14.42578 1.22265l5.67578 4.14063m-4.84765-3.53906l.17187-1.21485m12.12891.89844l6.05469 3.5664m-5.17578-3.04687l.05468-1.22656m12.85938.07031l5.09375 4.83984m-4.35156-4.1328l.32812-1.1836m12.90625-.0664l3.77344 5.92968m-3.22266-5.0664l.60547-1.06641m12.60156-.03516l2.88672 6.40625m-2.46875-5.47266l.75-.97265m10.53516 1.50781l6.11328 3.46875m-5.22656-2.96484l.03515-1.22657m12.31641.86329l6.26172 3.1875m-5.34766-2.72657l-.02343-1.22656m14.0625-.82031l2.98828 6.35937m-2.5547-5.43359l.73829-.98438m11.6211.35938l4.03515 5.7539m-3.44922-4.91406l.5586-1.09375m10.9375 1.79688l6.5 2.67187m-5.5547-2.28515l-.12109-1.21875m12.35938 3.125l6.76172-1.91407m-5.77735 1.63672l-.85156-.88672m14.07031 2.6836l4.98829-4.95313m7.32421 2.1172l6.9922.71874m6.3125-.10547l7.01171-.50781m-5.99219.4336l-.65234-1.03907m13.51953 2.79297l5.86719-3.86719m-5.01172 3.30469l-1.07813-.58594m13.0625.0664l6.81641-1.70312"/><g clip-path="url(#O)"><path fill="none" stroke="#000" stroke-linecap="round" stroke-linejoin="round" stroke-miterlimit="10" stroke-width=".5" d="M147.30078 401.64063l-6.60156-2.40625"/></g><path fill="none" stroke="#000" stroke-linecap="round" stroke-linejoin="round" stroke-miterlimit="10" stroke-width=".5" d="M146.33984 401.28906l.17188 1.21485m13.91797-.4375l-6.22656-3.25782m5.3203 2.78516l.00782 1.22656m10.76953 1.11719l.65625-6.9961m-.5586 5.97657l-1.1328.47265m12.03125-.64453l5.29687-4.61328m-5.29688 4.61328l-2.29296-.8789m14.89062-.42188l6.73047-2.01562m-5.75 1.72265l-.86328-.87109m13.05469-.01172l7.01953.33594m-7.01953-.33594l-1.04688-2.21875m14.35938 2.48047l7.02343-.1836m-7.02343.1836l-1.20703-2.13672m14.66406 1.05078l6.73828 1.98828m-5.75781-1.69921l-.2461-1.20313m12.46094 1.5039l6.98047.8047m-6.98047-.8047l-.89844-2.28124m14.79688.71093l5.8125 3.94922m-5.8125-3.94922l.26172-2.4414m12.95703 2.59375l6.00781 3.64453m-6.00781-3.64453l.13672-2.45313m13.20703 2.40235l5.94531 3.74609m-5.07812-3.20313l.08984-1.22265m13.23828-.26953l4.1875 5.64453m-3.57812-4.82422l.52734-1.10938m11.8086.60547l4.92577 5.01172m-4.20703-4.28515l.36719-1.16797m12.76172.01172l3.86328 5.87109m-3.30078-5.01953l.58594-1.07422m13.05078-.19531l2.09375 6.70703m-1.78906-5.73438l.86328-.87109m10.1328 1.52734l6.1211 3.44532m6.84766-2.57813l6.8164 1.71485m6.39844-1.07813l7.01563.4375m11.66797-3.19922l-3.72266 5.96094m11.73438-3.6914l6.8828 1.42187m12.84766-2.58203l-5.9453 3.74218m12.79687-1.46484l6.98047-.8125m-5.96485.69531l-.69922-1.00781m13.41016 2.41016l6.16016-3.38282m-5.26563 2.89063l-1.02734-.67188m17.55078-.52734l-.02344-.19922-.05469-.1914-.09765-.17579-.45703-.3789-.19141-.05469-.19922-.02344-.19922.02344-.1914.05469-.46094.3789-.09375.17579-.0586.1914-.01953.19922.01953.19922.0586.1914.09375.1797.46094.375.1914.05859.19922.01953.19922-.01953.1914-.0586.45704-.375.09765-.17969.05469-.1914.02344-.19922"/><g clip-path="url(#P)"><path fill="none" stroke="#000" stroke-linecap="round" stroke-linejoin="round" stroke-miterlimit="10" stroke-width=".5" d="M146.3086 389.77344l-4.6172-5.30078"/></g><path fill="none" stroke="#000" stroke-linecap="round" stroke-linejoin="round" stroke-miterlimit="10" stroke-width=".5" d="M145.63672 389.0039l-.4414 1.14454m13.01952.3711l-1.80078-6.79298m11.90625 6.04688l4.61719-5.29688m8.04688 4.53516l5.92187-3.77735m-5.0625 3.23047l-1.0664-.60546m13.41406.97265l6.14062-3.41797m-6.14062 3.41797L192.1289 387.5m15.01562-1.1289l6.86328 1.5039m-5.86719-1.28516l-.33203-1.17968m12.73828.6328l6.6875 2.16407m-6.6875-2.16406l-.42968-2.41797m13.69922 2.57031l6.77734 1.85547m-5.79297-1.58594l-.26953-1.1953m12.48047 2l7.01953-.29298m-6 .25l-.6211-1.0586m12.9336.57423l6.98438.76172m-6.98438-.76172l-.91406-2.27735m14.51953 1.21094l6.40234 2.89453m-6.40234-2.89453l-.15625-2.44922m13.1914 3.42188l6.96094.94922m-5.94922-.8086l-.42187-1.15234m12.76172 2.17578l6.89062-1.3789m-5.88672 1.17968l-.77734-.94922m13.02344.33203l7.01953.25782m-6-.22266l-.53516-1.10156m12.86328.69531l6.95703.9961m-5.9453-.85157l-.41798-1.15234m12.75782.79687l6.8828 1.41797m-5.8828-1.21094l-.34375-1.17968m12.625 1.17187l6.95312 1.01953m-5.94531-.8711l-.41016-1.15233m12.6914 1.8125l7-.59766m-5.98046.51172l-.66797-1.03125m14.0664-1.75l4.79688 5.13672m8.53516.01562l4.76172-5.16797m8.10547 4.66797l5.66015-4.16406m-4.83984 3.5586l-1.10547-.53126m12.92969-.61328l6.9961-.66797m8.80858 3.69922l2.01954-6.73047m13.04296 6.80078l-1.47656-6.87109m1.26172 5.8711l-.9375.78906m17.01563-1.98047l-6.57032-2.48828m6.57032 2.48828l.30859 2.4336"/><g clip-path="url(#Q)"><path fill="none" stroke="#000" stroke-linecap="round" stroke-linejoin="round" stroke-miterlimit="10" stroke-width=".5" d="M146.53516 371.375l-5.07032 4.86719"/></g><path fill="none" stroke="#000" stroke-linecap="round" stroke-linejoin="round" stroke-miterlimit="10" stroke-width=".5" d="M145.79688 372.08203l1.16406.38281m7.82422-1.09375l5.0625 4.875m-4.32813-4.16406l.33594-1.17969m11.30078 2.38672l6.94922 1.03906m-5.9375-.88671l-.41016-1.15625m12.71094 1.01171l6.95313 1.02344m-5.94141-.875l-.41016-1.15625m12.7539 2.2461l6.875-1.45313m-6.875 1.45313l-1.57812-1.87891m14.81641 1.16797l7.02734-.03125m-7.02734.03125l-1.16406-2.16016m15.01953.26953l5.94531 3.75m-5.07812-3.20312l.08984-1.22656m12.03125 1.34765l6.59766 2.41406m-5.63672-2.0625l-.16797-1.21875m15.0586-1.35546l1.52343 6.85937m9.64844-1.45703l5.8125-3.94531m-4.96875 3.3711l-1.08203-.57032m13.28515.67969l6.34766-3.01954m-5.42188 2.58204l-.98828-.73047m13.35938 1.1289l6.38281-2.9375m-6.38281 2.9375l-1.95313-1.48437m15.07032.9336l6.78125-1.83594m-5.79688 1.5703l-.83594-.89452m13.0664.6328l6.98048-.78124m-5.96485.66797l-.6953-1.01172m13.48046-1.08594l6.00781 3.64063m-5.13281-3.11329l.07031-1.22265m12.67188.26953l5.40625 4.49219m-4.6211-3.83985l.25-1.19921m11.54297 3.51171l6.8789-1.4414m-5.8789 1.23437l-.78515-.9414m13.10156-.29297l6.875 1.44531m-5.875-1.23438l-.33984-1.17968m13.36328-.51953l5.46093 4.42187m-4.66796-3.77734l.23437-1.20703m13.98047 6.1289l2.07422-6.71484m-1.76953 5.73828l-1.20703.23047m14.3164.77734l1.875-6.77344m-1.60156 5.78907l-1.19531.26562m13.65234.4961l3.04688-6.33204m-2.60547 5.41407l-1.22657.04687m14.48438 1.03125l2.27734-6.64844m-1.94531 5.6797l-1.21484.1953m15.94922.91016l-1.22657-6.92187m1.04688 5.91406l-.96485.7539m16.41016-.80468L461 371.40625m5.125 4.80469l-.64062 2.36719"/><g clip-path="url(#R)"><path fill="none" stroke="#000" stroke-linecap="round" stroke-linejoin="round" stroke-miterlimit="10" stroke-width=".5" d="M146.24219 357.78906l-4.48438 5.41016"/></g><path fill="none" stroke="#000" stroke-linecap="round" stroke-linejoin="round" stroke-miterlimit="10" stroke-width=".5" d="M146.24219 357.78906l2.40234.4961m10.25-.9297l-3.16016 6.27735m2.70313-5.36328l1.22656-.02734m10.76172-1.25781L170.83594 364m-.41016-7.01563l2.09375-1.27343m9.26172 2.01562l4.32813 5.53125m-4.32813-5.53125l.99219-2.24219m10.99219 4.65235l6.98828.71094m-6.98828-.71094l-.92579-2.26953m1.94141 2.375l-.46094-1.13672m12.7461 1.57031l7.01953-.36719m-7.01953.3672l-1.26172-2.10548m2.28125 2.05078l-.6289-1.05078m12.92577 1.15625l7.01172-.46484m-7.01172.46484l-1.29297-2.08594m14.60547 1.67579l7.01953.35546m-7.01953-.35546l-1.03906-2.22266m17.89453-1.11328l-.0586 7.02734m.05079-6.0039l1.08594-.57032M266.71875 362.5l-5.76563-4.01172m4.92579 3.42578l-.14453 1.21875m13.96875-.22265l-5.10547-4.83204m4.36328 4.12891l-.32813 1.17969m11.6211.61328l.42578-7.01563m-.36328 5.9961l-1.1172.50781m11.9375-.67969l5.28907-4.6289m-4.51953 3.95312l-1.14844-.4336m14.15235 1.54298l4.37109-5.5m7.61719 2.82422l7.02344-.14844m-6 .1289l-.60157-1.07421m13.54297-1.01954l5.72266 4.07813m-4.89063-3.48438l.16016-1.21484m11.79297 1.74219l6.78515 1.83594m6.4336-.50782l6.98047-.8203m-5.96485.70312l-.69922-1.01172m13.07813 1.5664l6.82031-1.6953m-5.82812 1.44921l-.82032-.91406m16.28516 3.8164l.53516-7.0078m-.45703 5.98827l-1.125.49219M410.07813 364l.4453-7.01172m-.3789 5.99219l-1.11719.5039m12.9961.14063l3.1836-6.26563m-2.71876 5.35547l-1.22656.02344m13.97656.83594l3.38672-6.16016m-3.38672 6.16016l-2.45312-.03516m16.77734.39844l1.3711-6.89063m-1.17188 5.89063l-1.17578.35156m13.875.54297l2.19922-6.67578"/><g clip-path="url(#S)"><path fill="none" stroke="#000" stroke-linecap="round" stroke-linejoin="round" stroke-miterlimit="10" stroke-width=".5" d="M145.3125 343.91797l-2.625 6.51953"/></g><path fill="none" stroke="#000" stroke-linecap="round" stroke-linejoin="round" stroke-miterlimit="10" stroke-width=".5" d="M145.3125 343.91797l2.4414-.25781m10.45313.12109l-1.78125 6.79688m1.78125-6.79688l2.38672-.5664m11.92578 1l-3.77734 5.92577m3.77734-5.92578l2.44531.19141m11.53125.35547l-5.10156 4.83203m5.10156-4.83203l2.32813.78515m-3.07031-.08203l1.16406.39063m8.4375-1.6289l3.8125 5.90234m-3.25781-5.04297l.59765-1.07031m11.07422 5l5.98828-3.67579m-5.11719 3.14063l-1.05859-.6211m13.94531 1.73829l5.09766-4.83594m-4.35547 4.13281l-1.16406-.39062m13.0039-.07813l6.56641-2.4961m-5.61328 2.13282l-.92188-.8086m13.63672-2.01562l5.85938 3.8789m-5.00781-3.3125l.11718-1.22265m18.73047 3.23828l-6.90625-1.28515m20.08594 1.80078l-6.63672-2.3125m5.67188 1.97265l.1875 1.21485m11.79687-2.03125l-.01953-.19922-.0586-.19531-.09374-.17579-.46094-.375-.1914-.05859-.19923-.01953-.19921.01953-.19141.0586-.45703.375-.09766.17578-.05469.1953-.01953.19923.01953.19922.0547.1914.09765.17578.45703.375.1914.0586.19922.01953.19922-.01953.1914-.0586.46095-.375.09375-.17578.05859-.1914.01953-.19922m14.61328-2.64063l-4.64062 5.27735m12.125-2.75391l7.02344.23438m6.42968.86718l6.7461-1.97265m-6.7461 1.97265l-1.71484-1.75781m15.11328 2.01172l6.57422-2.48047m-5.61719 2.1211l-.92187-.8125m13.08984.41406l6.95703-.96485m-5.94531.82422l-.71875-.99219m12.98828.67188l7.02734-.04297m-6.0078.03906l-.58204-1.08203m12.96484 1.85547l6.84766-1.57813m-5.85156 1.34766l-.80469-.92578m14.20703 2.98438l4.6836-5.23829m-4 4.47657l-1.19532-.29297m17.15235 1.8086l-1.96875-6.7461m11.64062 5.66797l5.32031-4.58985m7.8086 4.35547l5.6914-4.1211m-4.86328 3.52344l-1.10156-.53906m12.92578-.73437l7.01563-.3789m-7.01563.3789l-1.26562-2.10156m15.55468-.51954l5.07032 4.86329m-5.07032-4.86329l.66797-2.36328"/><g clip-path="url(#T)"><path fill="none" stroke="#000" stroke-linecap="round" stroke-linejoin="round" stroke-miterlimit="10" stroke-width=".5" d="M144.02734 330.35156l-.05468 7.02344"/></g><g clip-path="url(#U)"><path fill="none" stroke="#000" stroke-linecap="round" stroke-linejoin="round" stroke-miterlimit="10" stroke-width=".5" d="M144.02734 330.35156l2.17578-1.13672"/></g><path fill="none" stroke="#000" stroke-linecap="round" stroke-linejoin="round" stroke-miterlimit="10" stroke-width=".5" d="M157.23047 330.35156l.16797 7.02344m-.14063-6.0039l1.0664-.60157m13.39845-.2461l-2.1875 6.6797m1.87109-5.70704l1.20703-.21093m14.1289.44921l-5.59374 4.25391m5.59375-4.2539l2.22656 1.02734m11.67188.14453l-6.76172 1.91406m6.76172-1.91406l1.69921 1.76953m11.72657-.40234l-6.98047-.82031m6.98047.8203l.89062 2.28516m11.22656-.03515l-4.58593-5.32031m3.91797 4.54687l-.44141 1.14453m8.61719-3.1289l7.02734.1914m-6.0039-.16015l-.54688-1.10157m12.98437.16797l6.73828 1.9961m-5.7578-1.70313l-.2461-1.20313m16.85156 5.3047l-1.80469-6.78907m1.54297 5.80078l-.89843.83594m16.19921-.91016l-5.2539-4.66406m4.49219 3.98438l-.28907 1.1953m13.72657-5.74609l-3.97266 5.79688m13.0664-5.60938l4.46876 5.42188m-3.82032-4.63281l.46875-1.13282m10.96094 2.51172l6.9414 1.08594m-6.9414-1.08594L312.82031 331m14.19922 3.78516l6.78125-1.84375m-6.78125 1.84375l-1.67969-1.78907m14.89063.51172l6.99219.71094m-6.9922-.71094l-.92577-2.27344m14.23828 2.3125l6.9961.63282m-6.9961-.63281l-.95313-2.26563m14.45313 1.40625l6.625 2.35156m-5.66016-2.00781l-.17968-1.21484m13.26171-.33594l5.16407 4.76562m-4.41407-4.07421l.3125-1.1875m12.05079.73046l5.5664 4.29297m-4.7539-3.66797l.20312-1.20703m12.39063.47266l5.3828 4.51562m-5.3828-4.51562l.51171-2.40235m11.98829 4.46094l7.01562.39453m-5.9961-.33593l-.51562-1.11329m13.48828 3.33985l5.66016-4.17188m-4.83594 3.5625l-1.10547-.53125m19.0039-3.33203l-5.15624 4.77344m4.40625-4.07813l1.16016.40235m12.04687-1.77735l-3.4375 6.12891m2.9375-5.23437l1.22656.02734"/><g clip-path="url(#V)"><path fill="none" stroke="#000" stroke-linecap="round" stroke-linejoin="round" stroke-miterlimit="10" stroke-width=".5" d="M142.20703 317.52734l3.58594 6.04297"/></g><path fill="none" stroke="#000" stroke-linecap="round" stroke-linejoin="round" stroke-miterlimit="10" stroke-width=".5" d="M155.36719 317.625l3.89844 5.84766m-3.33204-4.9961l.58203-1.08203m12.02344 5.97656l4.1836-5.64453m14.57812 1.78125l-6.71094 2.08203m19.9961.08985l-6.65235-2.26172m6.65235 2.26172l.39453 2.42187m12.90625-2.38281l-6.625-2.33984m6.625 2.33984l.36719 2.42578m12.89062-2.27344l-6.50781-2.64453m6.50781 2.64453l.2539 2.4375m13.3086-3.45703l-7.0039-.60547m5.98437.51563l.48047 1.1289m13.66797-2.51171l-6.6289 2.33593m6.6289-2.33593l1.80469 1.66015m11.35156 1.05078l-6.3125-3.08593m5.39453 2.63671l.04297 1.22657m10.26953 1.10937l1.52734-6.85937m-1.52734 6.85937l-2.36328.65625m14.05468-1.50781l4.77344-5.15625m-4.07812 4.40625l-1.1875-.3125m12.71093-1.97266l6.96875.91407m-5.95312-.78125l-.4336-1.14844m12.70313 1.42969l7.02734.08593m-6.0039-.0703l-.5625-1.08985M327 321.39453l6.82031-1.6914m-5.82812 1.4453l-.82032-.91406m13.10938-.375l6.89062 1.37891m-5.88671-1.17969l-.35547-1.17578m13.14843 3.55078l5.92579-3.77343m-5.06641 3.22656l-1.0664-.60547m13.67187-2.83594l5.625 4.20703m12.83594-4.73046l-4.66407 5.2539m3.98438-4.49219l1.1914.28907m13.5586-.09766l-6.17578 3.34766m5.27734-2.85938l1.02344.67578m11.35156-2.77344l-2.5 6.56641m2.13672-5.61328l1.21484-.15234m8.96875 5.18359l4.48828-5.40625m-3.83593 4.6211l-1.19922-.25m17.8789 1.36718l-3.54296-6.0664m3.54296 6.0664l-1.28906 2.08594m.77344-2.96875l-.64453 1.04297m15.95312-1.85547l-6.5-2.67578m6.5 2.67578l.23828 2.4414m-1.18359-2.83203l.1211 1.22266m13.25-4.77344l-4.71876 5.20703"/><g clip-path="url(#W)"><path fill="none" stroke="#000" stroke-linecap="round" stroke-linejoin="round" stroke-miterlimit="10" stroke-width=".5" d="M465.92188 317.94531l2.3789.59766"/></g><path fill="none" stroke="#000" stroke-linecap="round" stroke-linejoin="round" stroke-miterlimit="10" stroke-width=".5" d="M465.23438 318.70313l1.1875.30078"/><g clip-path="url(#X)"><path fill="#00f" fill-rule="evenodd" d="M201.82813 480.96484h8.61718v-10.14843h-8.61719v10.14843"/></g><path fill="azure" fill-rule="evenodd" d="M203.66016 472.65234h.83203v2.82032h3.28906v-2.82032h.83203v6.47657h-.83203v-2.91407h-3.28906v2.91407h-.83203v-6.47657"/><path fill="#00f" fill-rule="evenodd" d="M281.71875 476.52344h8.61719V466.3789h-8.61719v10.14453"/><path fill="azure" fill-rule="evenodd" d="M283.55078 468.21094h.83203v2.82422h3.28906v-2.82422h.83204v6.48047h-.83204v-2.91407h-3.28906v2.91407h-.83203v-6.48047"/><path fill="#00f" fill-rule="evenodd" d="M383.80078 436.57813h8.61719v-10.14454h-8.61719v10.14454"/><path fill="azure" fill-rule="evenodd" d="M385.63281 428.26563h.83203v2.82421h3.28907v-2.82421h.83203v6.48046h-.83203v-2.91406h-3.28907v2.91406h-.83203v-6.48046"/><path fill="#00f" fill-rule="evenodd" d="M232.89453 423.26563h8.6211v-10.14844h-8.6211v10.14844"/><path fill="azure" fill-rule="evenodd" d="M234.73047 414.95313h.83203v2.8203h3.28516v-2.8203h.83593v6.48046h-.83593v-2.91796h-3.28516v2.91796h-.83203v-6.48046"/><path fill="#00f" fill-rule="evenodd" d="M366.04688 401.07422h8.61718v-10.14844h-8.61719v10.14844"/><path fill="azure" fill-rule="evenodd" d="M367.8789 392.76172h.83594v2.82031H372v-2.82031h.83203v6.47656H372v-2.91406h-3.28516v2.91406h-.83593v-6.47656"/><path fill="#ff3030" fill-rule="evenodd" d="M193.64453 330.0586h7.69531v-10.14454h-7.6953v10.14453"/><path fill="azure" fill-rule="evenodd" d="M195.47656 321.7461h.83594v5.73827h3.1914v.7422h-4.02734v-6.48048"/><path fill="#ffffe0" fill-rule="evenodd" d="M248.53906 363.6211h22.17969v-10.19141h-22.17969v10.1914"/><path fill-rule="evenodd" d="M252.03906 355.26172h.50781v6.29297h-.78515v-4.48828h-1.39063v-.5547l.5586-.0664.2539-.05469.23047-.08593.20313-.14453.17187-.20704.14453-.29687.10547-.39453m4.8125 0l.23047.01953.21875.05469.20703.08984.19531.1211.1836.14843.17187.17578.3047.42188.24218.49219.17969.54687.10937.57813.03906.58984-.03906.59375-.10937.58594-.1797.55469-.24218.5-.30469.42968-.17187.17969-.1836.15234-.1953.125-.20704.08985-.21875.0586-.23047.01952-.23047-.01953-.21875-.0586-.20703-.08984-.19531-.125-.1836-.15234-.17187-.17969-.30469-.42969-.24218-.5-.1797-.55468-.10937-.58594-.03906-.59375h.83203l.02735.5664.08203.50391.1289.4414.16016.375.1914.30079.21094.22266.22266.13671.22656.04688.22656-.04688.22266-.13671.21094-.22266.1914-.30078.16016-.375.1289-.4414.07813-.50391.03125-.56641-.03125-.5586-.07812-.5-.1289-.4375-.16017-.36718-.1914-.28906-.21094-.21485-.22265-.13281-.22657-.04297L256.625 356l-.22266.13281-.21093.21485-.19141.28906-.16016.36719-.1289.4375-.08203.5-.02735.55859h-.83203l.03906-.58984.10938-.57813.17969-.54687.24218-.4922.3047-.42187.17187-.17578.18359-.14844.19531-.12109.20703-.08984.21875-.05469.23047-.01953m5.08985 0h.51171v6.29297h-.78906v-4.48828h-1.38672v-.5547l.5586-.0664.2539-.05469.22657-.08593.20703-.14453.17187-.20704.14063-.29687.10547-.39453m2.82421 2.17578h.78907l.01953-.3164.0586-.28516.09765-.2539.14062-.21485.1797-.17578.22655-.12891.26563-.07813.30469-.02734.23828.01953.22656.0625.20313.10156.17968.14063.14844.17188.11328.20703.07031.23437.02344.26563-.01953.26953-.0664.22265-.10938.19141-.15625.17188-.19922.16406-.2461.16406-.63671.39063-.53516.3125-.4375.3164-.34765.32422-.26563.33594-.1875.35156-.125.36719-.07031.39453-.01953.41797h4.21093v-.73828h-3.33203l.08203-.28516.11329-.23438.14843-.20312.1875-.17969.23047-.17187.27735-.17578.71875-.41797.41406-.20313.34765-.23047.28125-.2539.21875-.26563.16407-.27734.10937-.28516.0664-.28515.01954-.28125-.04297-.38282-.1211-.34765-.1875-.3086-.25-.26171-.30468-.21485-.34375-.15625-.38281-.09765-.40625-.03516-.4336.03125-.39844.10156-.35546.16406-.3047.23438-.24608.30469-.1875.375-.1172.4453-.03906.51954"/><path fill="#ffffe0" fill-rule="evenodd" d="M373.79688 365.79688h22.17968v-10.19141h-22.17969v10.1914"/><path fill-rule="evenodd" d="M377.29688 357.4375h.5078v6.29688h-.78906v-4.4922h-1.38671v-.55468l.55859-.0664.2539-.05079.23048-.08984.20312-.14063.17188-.21093.14062-.29688.10938-.39453m4.8125 0l.23046.01953.21875.05469.20704.08984.1953.1211.1836.14843.17188.17579.30078.42187.2461.49219.17968.54687.10937.57813.03907.59375-.03907.58984-.10937.58594-.17969.55469-.2461.5-.30077.42968-.17188.1797-.1836.15233-.1953.125-.20704.08985-.21875.0586-.23046.01952-.23047-.01953-.21875-.0586-.20704-.08983-.1953-.125-.1875-.15235-.16798-.17969-.30468-.42968-.2422-.5-.17968-.5547-.11328-.58593-.03516-.58984h.83204l.02734.5625.08203.5039.1289.44532.16016.375.1914.29687.21095.22266.22265.13672.22656.04687.22657-.04687.22265-.13672.21094-.22266.1914-.29687.16016-.375.125-.44532.08204-.5039.03125-.5625-.03125-.5625-.08204-.5-.125-.4375-.16015-.36328-.1914-.29297-.21095-.21485-.22265-.1328-.22656-.04298-.22657.04297-.22265.13281-.21094.21485-.1914.29297-.16016.36328-.12891.4375-.08203.5-.02735.5625h-.83203l.03516-.59375.11328-.57813.17969-.54687.24219-.49219.30468-.42188.16797-.17578.1875-.14843.19531-.1211.20704-.08984.21875-.05469.23046-.01953m5.08985 0h.51172v6.29688h-.78906v-4.4922h-1.38672v-.55468l.55859-.0664.2539-.05079.22657-.08984.20312-.14063.17579-.21093.14062-.29688.10547-.39453m2.82422 2.17578h.78906l.01953-.3164.0586-.28516.09765-.2539.14063-.21485.17968-.17188.22266-.1289.26563-.08203.30859-.02735.23828.01953.22266.0625.20703.10157.17969.14062.14843.17188.11328.20703.07032.23437.02343.26563-.01953.26953-.0664.22265-.10938.19141-.15625.17188-.19922.16406-.25.16406-.63281.39063-.53516.3125-.4414.3164-.34375.32422-.26563.33594-.1875.35156-.125.3711-.07031.39062-.01953.42188h4.21094v-.7422h-3.33204l.08204-.28515.11328-.23437.14844-.20313.1875-.17969.23046-.17187.27735-.17578.71875-.41406.41406-.20704.34766-.23046.28125-.25.21875-.26954.16406-.27734.10937-.28516.0625-.28515.02344-.28125-.04297-.38281-.1211-.34766-.1875-.3086-.25-.26171-.30468-.21094-.34375-.16016-.38281-.09765-.40625-.03516-.4336.03516-.39843.09765-.35547.16406-.30469.23438-.2461.30469-.1875.375-.11718.44531-.03906.51953"/></g></defs><use xlink:href="#Y"/></svg>