<svg xmlns="http://www.w3.org/2000/svg" role="img" xmlns:xlink="http://www.w3.org/1999/xlink" viewBox="142.45 309.95 326.84 171.84"><defs><clipPath id="a"><path d="M144 311.67188h1v168.65625h-1zm0 0"/></clipPath><clipPath id="b"><path d="M144 311.67188h324v168.65625H144zm0 0"/></clipPath><clipPath id="c"><path d="M347 311.67188h2V313h-2zm0 0"/></clipPath><clipPath id="d"><path d="M373 478h4v2.32813h-4zm0 0"/></clipPath><clipPath id="e"><path d="M467 311.67188h1v168.65625h-1zm0 0"/></clipPath><clipPath id="f"><path d="M144 477h3v3.32813h-3zm0 0"/></clipPath><clipPath id="g"><path d="M154 477h7v3.32813h-7zm0 0"/></clipPath><clipPath id="h"><path d="M168 477h6v3.32813h-6zm0 0"/></clipPath><clipPath id="i"><path d="M181 477h6v3.32813h-6zm0 0"/></clipPath><clipPath id="j"><path d="M194 477h6v3.32813h-6zm0 0"/></clipPath><clipPath id="k"><path d="M207 477h7v3.32813h-7zm0 0"/></clipPath><clipPath id="l"><path d="M220 478h7v2.32813h-7zm0 0"/></clipPath><clipPath id="m"><path d="M233 478h8v2.32813h-8zm0 0"/></clipPath><clipPath id="n"><path d="M247 478h7v2.32813h-7zm0 0"/></clipPath><clipPath id="o"><path d="M260 478h8v2.32813h-8zm0 0"/></clipPath><clipPath id="p"><path d="M273 478h8v2.32813h-8zm0 0"/></clipPath><clipPath id="q"><path d="M287 478h7v2.32813h-7zm0 0"/></clipPath><clipPath id="r"><path d="M300 479h8v1.32813h-8zm0 0"/></clipPath><clipPath id="s"><path d="M313 479h8v1.32813h-8zm0 0"/></clipPath><clipPath id="t"><path d="M328 477h5v3.32813h-5zm0 0"/></clipPath><clipPath id="u"><path d="M342 476h4v4.32813h-4zm0 0"/></clipPath><clipPath id="v"><path d="M355 476h4v4.32813h-4zm0 0"/></clipPath><clipPath id="w"><path d="M366 478h8v2.32813h-8zm0 0"/></clipPath><clipPath id="x"><path d="M379 479h9v1.32813h-9zm0 0"/></clipPath><clipPath id="y"><path d="M393 480h8v.32813h-8zm0 0"/></clipPath><clipPath id="z"><path d="M393 478h2v2.32813h-2zm0 0"/></clipPath><clipPath id="A"><path d="M406 478h8v2.32813h-8zm0 0"/></clipPath><clipPath id="B"><path d="M406 479h3v1.32813h-3zm0 0"/></clipPath><clipPath id="C"><path d="M420 478h8v2.32813h-8zm0 0"/></clipPath><clipPath id="D"><path d="M418 480h3v.32813h-3zm0 0"/></clipPath><clipPath id="E"><path d="M433 478h8v2.32813h-8zm0 0"/></clipPath><clipPath id="F"><path d="M431 480h4v.32813h-4zm0 0"/></clipPath><clipPath id="G"><path d="M447 478h7v2.32813h-7zm0 0"/></clipPath><clipPath id="H"><path d="M446 480h3v.32813h-3zm0 0"/></clipPath><clipPath id="I"><path d="M461 477h6v3.32813h-6zm0 0"/></clipPath><clipPath id="J"><path d="M144 463h3v8h-3zm0 0"/></clipPath><clipPath id="K"><path d="M144 450h2v7h-2zm0 0"/></clipPath><clipPath id="L"><path d="M144 436h1v9h-1zm0 0"/></clipPath><clipPath id="M"><path d="M144 442h1v2h-1zm0 0"/></clipPath><clipPath id="N"><path d="M144 423h2v8h-2zm0 0"/></clipPath><clipPath id="O"><path d="M144 410h3v7h-3zm0 0"/></clipPath><clipPath id="P"><path d="M144 399h4v3h-4zm0 0"/></clipPath><clipPath id="Q"><path d="M144 384h3v7h-3zm0 0"/></clipPath><clipPath id="R"><path d="M144 371h3v6h-3zm0 0"/></clipPath><clipPath id="S"><path d="M144 357h3v7h-3zm0 0"/></clipPath><clipPath id="T"><path d="M144 343h2v8h-2zm0 0"/></clipPath><clipPath id="U"><path d="M144 330h1v8h-1zm0 0"/></clipPath><clipPath id="V"><path d="M144 328h3v3h-3zm0 0"/></clipPath><clipPath id="W"><path d="M144 317h3v7h-3zm0 0"/></clipPath><clipPath id="X"><path d="M465 317h3v2h-3zm0 0"/></clipPath><clipPath id="Y"><path d="M201 470h10v10.32813h-10zm0 0"/></clipPath><g id="Z" clip-path="url(#clip1)"><path fill="#fff" fill-opacity="0" fill-rule="evenodd" d="M0 0h1000v1000H0zm0 0"/><path fill="#d3d3d3" fill-opacity="0" fill-rule="evenodd" d="M162.15234 355.86719l-.23437.29297.0586.23437.11718.17188.17578.23437.29297.34766.11328.0586.11719-.17188.0586-.23438.17577-.17578.46485-.17578h.69922l.23437.29297.28906.8164.0586.17579.17578.23046.35156.23438.69922.69922.17188.17578.23437.34765.23438.41016.28906.58203.41015.46485.23047.23437.23438.17578.11719.23047.17578.29297.17187 1.16406v.23438l.0586.28906.05859.11719.11719.11719.34765.41015.11719.17188.17578.17578.17578.23437.11719.17188.17188.35156.05859.23438.23437.40625.23438-.0586-.17578.17578-.0586.92969h-.58203l-.23437-.11328-.34766.11328-.11719.11719-.05859.29297-.0586.17578-.11718.17187-.46484.29297-.0586.23438-.0586.11328v.64453l.0586.17187v.41016l.0586.0586v.40624l.05859.40625.11719.17579.05859.05859.23047.64062-.0586.29297v.69922l-.05859.58203v.23438l-.0586.23047-.05468.35156v1.92187l.05469.1172h.42578l-.36719.11718-.02344.35156.89063 1.16797 1.74219.53906 1.33984.35938v.53906l.08984.8086.53516.71484 1.51953.26953.89063-.08594.08984 1.16406.53516.1797 1.16015-.1797 2.05469-.98437 1.16016-.36328 1.8789-.17578 1.69531-.1797-.17968.71876-1.51563.08594-1.25.08984-.80469.26953-1.07421.8086.26953.71875.53515.89843-.17968.625-.26563.8086.26563 1.07812.625.89844.80468.17969 1.25-.1797-.26562.72267.09766.5039.05468.29297v.17188l.0586.29296v.40625l.17578.1172.35156.11718h.40625l.29297-.17578.11328-.11719.0586-.11719.11718-.23047.0586-.17578.35156-.46484.23047-.17578.17578-.0586.17578.0586.0586.17578.11718.98828.05469.46875.0586.17188.11718.23437.17578.0586.8164.05859h.28907l.11719.23437.05859.40625.0586.35156v1.10547l.11718.29297.11719.34766.28906.69922.17578.35156.58203.7539.35157.17579.17187.0586.46875.23437.64063.46484.34765.23438.29297.17578.29297.05468.23047.0625.8164.34766.29297.17578.11328.17188.35157.35156.11719.17578.52343.64063v.28906l.0586.35156v.34766l.05859.35156.0586.28906.11718.0586.17188.05859h.17578l.58203.23437.17578.1172.17578.28905.17578.23438.11328.23437.29297.23047.11719.11719v.41016l.0586.05468.28906.23438.23437.11719.0586.11718.11718.17188.0586.11719.23047.23437.05859.17578.23437.0586.1172.05859-.1172.11328-.05859.11719v.11719l-.11719.29296-.11719.28907v.58203l.17579.11719.11718.05859.0586.11719.11719.11719.11328.05859.17578.34765.0586.35157.05858.40625v.17578l-.05859.17578-.11719.69922v.17187l.1172.17579.29296.29296h.40625l.17578.1172.11719.17187.11719.29296v.23438h-.52735l-.23047-.23438h-.23437l-.17578.0586-.0586.69922.0586.34765.11719.17579.17578.41015.11718.23047.28907.46875.17578.05469h.52344l.23437.0586.75781.64062.0586.29296v.23438l.05859.0586.23047.34765v.35156l-.11719.17188v.29297l.29297.28906.29297.17578.17187.0586.29297.17577.29297.1172.58203.40624.28906.23438.29297.17578.21875.16015.01563.01172.23047.17579.64062.52343.17578.23438.1172.17578.17577.17578.11328.17188v.64062l.1172.17578.46874.11719.58203.11719.23438.05859.23047.11328.29297.11719.11328.0586.58593.35156.28907.17187.17578.0625.17578.05469.17578.0586.69922.35155.28906.17579.23438.05468.28906.17578.23437.1172.64063.40624.29297.11719.17187.0586.23438.05859.41015.05859.23047.0586.23438.11718.0586.17188-.41017.17578.46875.0586.0586.29296.11328.23438.17578.05468.23438.0586.17578.05859.40625.11719.64062.23437.11719.17188.0586.23437v.17578l-.0586.1172-.0586.40624.23438.23438.11719.05859.34766.11719.64062.23047.17578.11718.28906.1172.17578.17577.23438.46485.58203 1.10546.17578.17579.34766.17578.17578.11719.35156.11718 1.04688.52344.23437.0586.46485.11327.29297.0586.46484.17578.75781.58203.23438.23438.34765.46484.17578.17578.28907.23438.8164.69921.29297.17579.28906.28906.29297.17578.29297.28906.69531.64063.17578.17578.29297.23437.28907.23438.46875.28906.64062.58203.34766.23438.23437.29297.34766.34765.35156.46485.9336.99218.34765.40625.11719.17579.23437.05859.11328.11719.64454.17578.23047.11328.23437.0586.29297.17577.23047.1172.9336.69921.40624.40625.23438.17578.40625.17578.23437.11719.8164.34766.34766.23437.23438.11719.29297.28906.23047.11719.7578.35156.35157.17188.23047.05859.29297.11719.23437.0586.8711.17577h.8164l.46875.23047.17188.0586.875.69921.46484.1172.29297.05858.17578.0586.23047.0586.46875.05859.34766.05859.35156.0586.40625.05859h.29297l.17187.0586v.23046l.17578.17578h.29297l.34766.0586.35156.05859.69922.11719h.64063l.46484-.23438.29297-.17578.17187-.11719.41016-.17187.28906-.17578.9336-.46485.46875-.29297.52343-.29296.46485-.17188.46484-.17578 1.05078-.46485.28906-.11718.41016-.11719.28906-.11719.52735-.17578 1.51562-.69922.58203-.34765.28907-.0586.29297-.0586.34765-.11718.875-.23047.35156-.11719h.11329l.23437-.05859.875-.23437.23438-.0586h.8125l.35156-.0586.8164-.11718.17188-.0586.35156-.05468.29297-.0586.23047-.05859.8164-.17578.17579-.0586h.34765l.23438-.05859.46484-.11718.75781-.17188.23438-.0586h.34765l.41016-.11718.28906-.0586 1.28516-.05859h.28906l.41016-.0586.23047-.05858h.17578l.875-.1172h.40625l.41015-.11718h.34766l.35156-.11328.8711-.0586h1.75l1.04687.28907.41016.11719.28906.11718.35156.11719.28907.11719 1.05078.17187.28906.0586h.29297l.29297.05859.17187.0586.41016.05859.17187.0586.1172.05858h.11718l.11719.0586.35156.0586h.11328l.41016.0664 1.92187.39453 1.92578.39453 1.51953.44922 1.69532.71875 2.14453.80469 1.60547-.71875 1.42968-.80469 1.16016-1.07813 1.25-.44921 3.03516-.71875 1.875-.35938 2.14453-1.34765 2.23437-1.25391 2.5-1.25781 1.69531-.44922 1.78516-.17969 1.16016-.26953.625.53906 1.33984-.26953.71485-.98828.98437-1.34375.44531-.17969.80469-.35937 1.875-.53907 1.78516-.44921 1.25-.26954 1.16015-.08984 1.69922-.08984 1.96094-.26954 1.25-.08984h.53906l.625-.08984h.89063l2.14453-.17969 2.41015-.17969 2.58985-.08984 1.69531.17969 1.60938.08984 1.42968.35938 1.16016.71875 1.875.98828 1.16015 1.52734.26563.71484.6289.08985.35548.89844.53515.53906.53516 1.52734 1.07422.35938h.53515l-.80469.53515.08985 1.70703.71484 2.69532.89063.80468.89453.98829.71484 1.2578 1.78516.53907 1.51953-.17969.35547 1.34375 1.60937-.80469.98047-.53906.26953.26953.31641-.21484.21875-.14453.80078.44922.44922-.35938h.35547l.53515-.26953.53907-.71875.53515-.26953.625-.98828 1.16016.44922.83984.3711 1.39454.61718 1.6953-.17969h1.60548l1.78515.08985.17969-1.70704.53516-1.34375.80468.26954.4922.84765.40233.40625-.08984.53906v.35938l.71485.44922.71093-.26953h1.42969l.35938.98828.4453 1.25781.71485 1.34375 1.25.6289 1.69531.62891.71485-.17969.17969-.53906.98046-.08984.44922.35937.08594 1.25782-.26563.6289-.53515.17969v.53906l.71484.98438.26563.53906.98437.98828.80078 1.07813-.26562.35937-.08985.89844-.625 2.33203-.35546 2.0664-.08985 1.79298-.17969.71875-.08984.53906v1.4375l-.98047 1.88281-.35937 1.70703-.53516.89844-.80469 1.16797-.26562.53906 2.05469 1.2539.08593.35938-.35546.53906-.08985-.17968v.80859l.08985 1.4375-.44532.71484-1.07422.09375-.26562.71485.53515.89844.8047.71875 1.16015.80859 1.33984.26953.44531.35938-.35546.44921-1.78907-.08984-1.25-.44922-.71484-.71875-.625-.08984-.17578 3.58984-.1875 1.3086h89.35937V311.70313h-55.26953v49.08203l.76172.125 3.28906.54296 2.02344 2.83594v2.7539l2.35156.33204 2.34766.33203h4.05078l-1.3789 4.16016-2.02344.70703-2.02344.70312-.54297.34375-2.59375 1.6172-.1875.11718-2.02344-2.07813-.73046-2.74218-2.67188-2.07813-1.375-3.5-.0664-.08203-1.95704-2.67188 2.75-1.41796v-49.08204H294.42187v91.41407l.1172.03125.1328.01172.07422.07421.10547.04688.08985.0586.08593.05859.08985.0586.29687.29687.0586.08984.03125.11719.02734.11719.01563.13671-.03125.1172-.0586.08983-.0586.08594-.04296.10547-.04688.10156-.02734.1211v.14453l.17578.26953.14844.14844.07422.08594.07422.07421.04296.10547.0625.08985.0586.08593.04297.10547.0586.08985.04687.10156.04296.10547.0586.08594.11719.17968.07421.07422.0625.08594.0586.08984.04297.10547.0586.08985.05858.08593.0625.08985.0586.08984.04297.10156.11719.17969.07421.07422.0586.08594.07422.07421.08984.0586.10547.04687h.14844l.1328-.01562.13282.01562.10156-.04687.07422-.07422.04688-.10156-.01563-.13281v-.14844l-.04687-.10547-.02735-.11719-.04687-.10156-.02735-.1211-.04296-.10156-.0625-.08984-.04297-.10156-.04297-.10547-.03125-.11719-.01563-.13281-.01171-.13672.08593-.0586.0586-.08593.12109-.03125.04297.10547.01562.1328v.1172l.0586.10156.0586.08984.08983.0586.14844.14843.0586.08985.04296.10547-.01171.10156.08593.0586.10547.04687.08594.0586.08984.05858.07422.07422-.11719.02735-.10546.04687-.08594.0586-.07422.07421-.0586.08985-.0625.08594-.02734.12109-.04687.10156-.04297.10547-.03125.11719-.01172.13281-.01563.13281v.14844l.02735.11719.04687.10547.04297.10156.0586.08984.07421.07422.08985.0586.07422.07421.08984.0586.0586.08984.04296.10547.04688.10156.11719.03125.1328.01563h.14845l.11718-.03125.10547.04297.04297.10547.04688.10156.02734.1211L299.5 410l.02734.11719.03125.1211.02735.11718.10547.04297.10156.04687.13281-.01562.14844.14844.0625.08593.07422.07422.07031.07422.08984.0625.10547.04297.10156.04297.1172.03125.13671.01562.11719-.03125.07422-.07422.02734-.11718-.01172-.13282-.03125-.12109-.02734-.11719.04297-.10547h.11719l.08984.0625.11719.02735h.14843l.13282.01562h.14843l.13282.01563.1328-.01563h.14845l.1328-.01562.13282-.01172.13672.01172.11719-.02735.13281-.01562.1914-.0586-.05859.17579-.01562.1328-.02735.1211-.01562.13281-.0586.08594-.1328.01563-.10548.04687-.10546.04297-.1172.03125-.11718.02735-.26563.03125h-.14843l-.13281.01562-.07422.07422.05859.08594.14844.14843.11719.1797.07421.0703.08985.0625.08984.0586.08594.0586.08984.05858.10156.04297.10547.0625.10547.04297.08594.0586.10547.04687.10156.04297.17969.11719.0586.08984-.04298.10156-.04687.10547.01562.13281.22266.22266.0586.08985.04296.10156.03125.1211.04297.10155.01563.13282.03125.11718.01171.13672.03125.11719.14844.14844.10156.04297.10547.04296.1172.03125.1328.01563.13672.01563h.11719l.11719-.03125.08984-.0586.04297-.10547.04688-.10156.04296-.10547.03125-.11719.01172-.1328v-.14845l-.01172-.1328-.01562-.13282-.03125-.11719-.04297-.10547-.04688-.10547-.04296-.10156-.04297-.10547-.01563-.13281.01563-.13281.02734-.11719.03125-.11719.02735-.1211.04687-.10155.08984-.0586.08594-.0625.07422-.07422.08984-.05859.22266-.22266.0586-.08593.07421-.07422.11719-.17969.0586-.08594v-.14844l-.07423-.07421-.10156-.04688-.10547-.04297-.10156-.04297-.0586-.08984-.04687-.10547-.02734-.11719.08984-.05859.11719-.03125.10156-.04297.17969-.11719.14844-.14843.01172-.13282-.01172-.10546-.08985-.0586-.1328.01563h-.14845l-.1328.01562-.13282-.01562-.1211-.03125-.08593-.0586-.07422-.07422-.0586-.08984-.0625-.08594-.11718-.17969-.0586-.08593.03125-.1211.08594-.05859.1211-.03125.05859-.08594v-.1211l-.03125-.11718-.0586-.08984-.05859-.08594-.04687-.10547-.02735-.11719-.01562-.1328.0586-.08985.07421-.07422.08984-.0586.1172-.17968.07421-.07422.0586-.08594.14843-.14844.1211-.03125.1328-.01562.13282.01562.07422.07422.04297.10547.01562.13281-.03125.1172-.11719.03124-.1328.01172-.14844.14844-.04297.10547-.04688.10156-.02734.1211-.03125.11718v.14844l.03125.11719.04297.10546.05859.08985.07422.07031.07422.07422.11719.03125.12109.02734.11719-.02734.1328-.01563h.1172l.08984.0586.07422.07422.04687.10546.0586.08594.10156.04688.13281.01562.10547.04297.08594.0586-.01172.10546-.07422.07422-.17969.11719-.05859.08984-.08984.0586-.07032.07422-.07421.07421-.0625.08985-.02735.11719-.01562.1328.01562.13282-.01562.13281v.14844l.01562.13281.02735.1172.03125.12108.07421.07422.08985.0586.08594.0586.08984.05858.11719.03125v.08594l-.10157.04688-.08984.0586-.26563.03124-.11718.02735h-.14844l-.10547.04296-.10156.04688-.0586.08984-.0625.23438-.01171.13281-.03125.1211-.01563.1328v.29298l-.01172.1328.01172.13673.01563.1328.1328.01563.13282.01172.1211.03125.08593.0586.07422.07421.04688.10547.04296.10157.01563.1328v.44532l-.01563.13281v.44532l.03125.26562.02735.11719.01562.13281.03125.11719.08594.21094.03125.26562v.14844l-.03125.11719-.02734.11718-.03125.1211-.02735.11719-.03125.11718-.03125.1211-.01171.1328-.01563.13282.08984.0586.1172-.03125.10155.01562.04688.10547-.03125.26562v.44141l-.04297.10547-.04688.10547-.04296.10156-.04297.10547-.0586.08594-.03125.12109-.04296.11719-.03125.11719-.01563.1328.01563.13282.05859.08984.10547.04688.08594.0586.05859.08593-.01172.13672-.03125.11719-.04297.10156v.44531l-.01562.13281v.14844l-.03125.11719-.04297.10547-.02735.11719-.04687.10546-.04297.10157-.03125.12109-.02734.11719-.03125.13281-.03125.11719-.02735.11719-.04297.10546-.03125.1172-.03125.12108-.01171.13282-.01563.13281v.29688l.02734.11718v.14844l.04688.39844.02734.11719.0586.08984.12109.03125h.14844l.13281-.01563.0586.08985v.11719l-.0586.08984-.08984.0586-.10157.04296-.10546.04688-.08985.05859-.08594.0586-.13671.01562-.1172-.03125-.1328-.01563-.10157.04688-.0625.08594-.01172.13671-.01562.13282-.03125.11719-.02735.11718-.01562.13281-.03125.1211v.29687l.01563.13282.03125.11718v.14844l.01171.13281v.14844l-.02734.11719-.04688.10156-.02734.1211-.03125.11718-.0586.08985-.07421.07421-.10156.04297-.10547.04688-.11719.02734-.1211.03125-.10156-.04687.0586-.08594.10547-.04688.02734-.11718.03125-.11719.02734-.1211.03125-.11718v-.14844l.01563-.13281-.03125-.11719-.04297-.10547-.10547.01563-.07422.07422-.10156.04296-.08984.0625-.07422.07422-.04297.10157-.01563.1328-.03125.1172L304.25 426l-.03125.11719-.02734.11719-.03125.12109-.02735.11719-.03125.11718-.04297.10547-.08984.0586h-.08984l-.1172-.03125-.03124-.08594.01562-.13672-.03125-.11719v-.14844l-.01171-.1328v-.14844l-.0625-.23438-.02735-.1211-.04297-.10156-.04687-.10546-.0586-.08594-.05859-.08985-.04297-.10546-.0625-.08594-.14844-.14844-.0703-.07422-.10548-.04687-.10547-.04297-.10156-.04297-.29687-.29688-.08985-.07421-.08594-.0586-.10546-.04297-.08985-.0625-.08594-.0586-.10546-.04296-.08985-.0586-.08594-.0625-.07421-.0703-.10547-.04688-.08594-.0586-.10547-.04296-.08984-.0625-.10156-.04297-.10547-.04297-.08594-.0586-.10547-.04687-.10547-.04297-.10156-.04687-.08985-.0586-.10156-.04297-.10547-.04296-.08984-.0625-.11719-.02735-.13281-.01562-.13281.01562H299.75l-.13281.01563-.11719-.03125-.08984-.0586-.07422-.07422-.08985-.05859-.10156-.04688h-.14844l-.12109-.02734-.10156-.04297-.07422-.07422-.11719-.17968-.08984-.0586-.10156-.04297-.08985-.0625-.10547-.04296-.08984-.0586-.08594-.0586-.10547-.04687-.0586-.08594-.05858-.08984-.04297-.10547-.04688-.10156-.07422-.07422-.08594-.0586-.07421-.07421-.08985-.0586-.22265-.22265-.04297-.10547-.03125-.26563.10547-.04296h.14453l.10547.04296.07421.07422.08985.0586.08594.0586.10546.04687.08985.05859.14844.14844.0703.07422.14845.14843.0625.08594.07421.07422.08594.0586.07422.07421.08985.0625.08984.0586.08594.05859.26953.17578.10156.04688.10547.04296.10156.04297.04688-.07421.05859-.08594.07422-.07422.07031-.07422.10547.04297.07422.07422.0586.08984.04296.10156.04688.10547.04296.10547.1211.02735.11719-.02735.07421-.08984.04297-.10547.0586-.08985.07422-.07421.10546-.04297.1172-.02735.1328.01172.08985.0586.14844.14843.05859.08985.04297.10547.04687.10156.04297.10547.04297.10156.10547.04688.10547.04296.13281.01563.08594-.0586.0586-.08984.07421-.07422.10547-.04297.11719.02735.10547.04687.10156.04297.10547.04297.10156.04688.17969.11718v.11719l-.01563.13281.01563.13281.01562.13672.0586.08594.10156.04688.1211.02734.11718.03125h.14844l.11719-.03125.05859-.08984.17969-.1172.05859-.08983.07422-.07422.0586-.08594.11718-.17969.17969-.11719.11719.03125.08984.0586.04297.07422-.01563.1328v.1172l.08985.05859h.14843l.13282-.01563.1328-.01171.26563-.03125.10547-.04297.11719-.03125.1211-.02735.07421-.07421.07031-.07422.0625-.08985-.01562-.10547-.04688-.10156-.10156-.04297-.10547-.01562-.11718.02734-.26563.03125h-.14844l-.07421-.07422-.08985-.0586-.11719-.03124-.11718-.02735-.13282-.01562h-.14843l-.13282.01563h-.29687l-.10547-.04688-.14844-.14844-.04297-.10156-.05859-.08984.22266-.22266.08593-.0586.10547-.04296.11719-.03125.13281-.01563.13281.01563.13672.01562.10157.04297.1328-.01172.08985-.0625.10156-.04297.0625-.08984-.04687-.10156-.08984-.0586-.1172-.03125-.10155-.04296-.0586-.08985-.0625-.08984v-.11719l.01563-.13281.10547-.04688.07421-.07031v-.1211l-.08984-.05859-.03125-.11719.08985-.05859.07421-.07422.04297-.10547.0586-.08984.04687-.10156.01563-.13281v-.14844l-.04688-.10547-.04297-.10156-.08984-.0586-.13281-.01562-.10157-.04297-.13671-.01563-.1172-.03125h-.4453l-.13282-.01562-.13281-.01172-.13281-.01563-.11719-.03125h-.14844l-.13281-.01562-.13281-.01172-.26563-.03125-.1211-.04297-.08593-.0586-.07422-.07421v-.14844l.01172-.13281.10547-.04688.10156-.04296.13281-.01563h.15235l.13281-.01562h.29297l.1211.03125.10156.04296.08984.0586.23438.0625.12109-.04688.08984-.05859.10156-.04297.13282-.01562.10547.04296.10156.04688.13281.01172.1211-.02735h.14453l.12109-.03125.11719-.02734.10547-.04687.07421-.07422.08594-.0586.14844-.14843.0586-.08594.04687-.10547.02734-.11719.01563-.10547-.10156-.04296-.08985-.0586-.11719-.03125-.10546-.04297-.08985-.0625-.07422-.08594-.07422-.07421-.10156-.04297-.10547-.04688-.10156-.04297-.0586-.08984-.04687-.10156-.08594-.21094-.0625-.08594-.05859-.08984-.07422-.07422-.08594-.0586h-.26953l-.11719.03126-.08984.05859-.10156.04297-.13281.01562-.10547-.01562-.02735-.11719-.0625-.08984-.11718-.03125-.10157-.04297-.14843-.14844-.03125-.11719-.01563-.10546.07422-.07422.17969-.1172.11719-.02733.11718-.03125.13672.01562.10156.04297.10547.04297.10156.04687.10547.04297.1172.03125.1328.01563.1172.02734.1328.01563.10547-.01563.08985-.0586-.07422-.07421-.10547-.04297-.07422-.07422-.07422-.08984-.14844-.14844-.08593-.0586-.08985-.05859-.07422-.07422-.08984-.0586-.10156-.04687-.1211-.02734-.10156-.04688-.10547-.04296-.11719-.03125-.10156-.04297-.1211-.03125h-.14843l-.11719.03125-.10546.04297-.08594.0625-.17969.11718-.08594.0586-.08984.0586-.10547.04687-.08594.05859-.10547.04297-.10156.04297-.10547.04687-.07422.07422-.05859.08985-.0586.08593-.04687.10547-.0586.08594-.07421.07422-.13281-.01172-.1172-.03125h-.11718l-.07422.07422-.08984.0586-.07422.07421-.08984.0586-.08594.05859-.10547.04687-.10156.04297-.13672.01563-.10156-.04297-.14844-.14844-.10547-.04688h-.08594l-.10547.04688-.10156.04297-.1211.03125-.11718-.03125-.07422-.07422v-.11719l.03125-.1211.07422-.0703.0586-.08985.07421-.07422.11719-.03125.10547-.04296h.29297l.13281-.01563.13672-.01563.10156-.04296.08985-.0586.10156-.04687.08984-.0586.13281-.01171.08985.05859.13281.01172.08984-.0586.08594-.05859.10547-.04297.08984-.0586.08594-.0625.08985-.05859.14843-.14843.0586-.08594.05859-.08985.10547-.04296.13281-.01563.11719.02735.1211.03125.05859-.0586.05859-.08984.03125-.26563.02734-.11719.10547.01172.13281.01563.10157-.04297.08984-.0586.0586-.08984.07421-.07422.0586-.08984.04687-.10156.01172-.13281-.01172-.13282-.04687-.10547-.14844-.14843-.0586-.08985-.05859-.08594-.04297-.10546v-.44532l.01563-.1328v-.14845l.01172-.1328-.0586-.0586-.08984.0586-.10156-.04298-.17969-.11719-.08594-.05859-.0625-.08984-.0586-.08985-.07421-.07421-.08594-.0586-.1211.03125-.10155.01172-.10547.04688-.08594.05859-.10547.04297-.14844.14844-.08984.05859-.08594.0586-.08984.0625-.10547.04296-.13281.01563v-.1211l.10547-.04297.11718-.03125.07422-.0703.04297-.10548v-.14844l-.02734-.11718-.14844-.14844-.13281-.01563h-.14844l-.11719.03125-.10547.04297-.10156.04297-.08984.0625-.11719.02735-.07422-.07422.01172-.13281-.04297-.10157-.04297-.10547-.08984-.05859-.11719.02734-.1211.03125-.11718.03125-.10156.04297-.1211.03125-.10156.04297-.10547.04297-.08984.0586-.10156.01562v-.11719l.01562-.13281-.0586-.08985-.07421.04297-.14844.14844-.0586.08985-.07421.07421-.04688.10547-.04296.10156-.07422.07422-.0586.08985-.07422.07422-.05859.08593-.07422.07422-.08984.0625-.07422.07031-.07422.07422-.10156.01563-.13281.01562-.10547-.04296v-.1211l.14843-.14844.04297-.10156.0586-.08984.04687-.10156.04297-.10547.0586-.08985.03124-.11719.04297-.10156.03125-.1211.02735-.11718.04687-.10547.04297-.10156.04297-.10547.07422-.07031.08984-.0625.08985-.0586.10156-.04296h.29687l.26563-.03125.10547-.04297-.07422-.07422-.11719-.03125-.10547-.04297-.08984-.0586-.10156-.04687-.08985-.0586-.10156-.04296-.10547-.04297-.08984-.0625-.08594-.0586-.10547-.04296-.10156-.04297-.1211-.03125-.11718-.03125-.10157-.04297L297.5 410.25l-.10156-.04297-.08985-.0586-.04296-.10546-.01563-.13281.10156-.04297.13281-.01563.13672.01563.13282-.01563.10156-.04297.0586-.08984.01562-.10547-.08985-.0586-.07421-.07421-.10157-.04297-.08984-.0586-.14844-.14843-.04297-.10547-.01562-.13281v-.29297l-.0586-.08985-.08984-.05859-.07422-.07422-.04297-.10547-.03125-.11718-.0586-.08985-.07421-.07422-.11719-.02734-.07422-.07422-.08984-.0586-.08984-.0625-.08594-.05859-.07422-.07421-.0586-.08594-.04687-.10547-.08594-.0586-.14843-.14843-.19532-.0586-.1328.01563-.10157.04297-.07422.07422-.04688.10156-.04296.10547-.0586.08984-.0586.08594-.29687.29687-.08984.0586h-.08594l-.0625-.08594-.04297-.10547.03125-.11719.0586-.08984.02734-.11719-.01172-.13281-.08984-.0625-.10547.04688-.11719.02734-.11719.03125-.26953.17578-.10156.04688-.11719.02734-.10546.04687-.08985.0586-.10156.04297-.0586-.08594-.04687-.10547.01563-.13281.04687-.10547.07031-.07422.07422-.07031.0586-.08985v-.14843l-.04297-.10547h-.23829l-.10156.04687-.03125.11719-.02734.11719-.03125.1211-.07422.04296-.13281.01563-.07422-.04688-.04297-.10156-.04297-.10547-.04687-.10156-.04297-.10547-.1211.03125-.10156.04297-.13281.01562-.11719.03125-.10547.04297-.08984.0586-.10156.04687-.1211.02734-.13281.01563-.10156-.04297-.0586-.08985-.04687-.10546-.04297-.10157-.04297-.10546v-.1172l.0586-.08984.08593-.05859.17969-.11719.10156-.04687.10547-.04297.10547-.0586.10156-.04296.08985-.0625.10156-.04297.10547-.0586.10156-.04687.08984-.0586.10547-.04296.10156-.04297.08985-.0625.10156-.04297.13672-.01563.11719.03125.10156.04297.1211.03125.10156.04297.10546.04688.10157.04296.10547.04297.10156.04688.10547.04297.10156.04297.10547.04687.08594.0586.10546.04296.1172.03125.10546.04297.10156.04688.08985.0586.10547.04296.10156.04297.10547.04687.11719.02735.10156.04687.1211.02735h.14843l.08594-.0586.01562-.10156.0586-.08984-.02735-.1172-.07422-.07421-.11719-.17969-.07421-.07422-.08985-.07421-.17969-.1172-.08593-.05859-.10547-.04296-.10156-.04688-.26954-.17578-.05859-.08985-.07422-.07421-.0586-.08985-.04296-.10156-.03125-.11719-.01563-.13672v-.5625l-.01171-.1328-.01563-.13282-.03125-.11719-.01562-.13281-.01172-.13281-.03125-.1211-.22266-.22265-.0586-.08594-.01562-.10547.03125-.11719.13281-.01562v-91.41406H172.9922v1.45312l-.0586.23438-.35156 1.05078-.17187.52343-.1172.34766-.17577.41016-.11719.17187-.23438.29297-.23046.0586h-.35157l-.11718.05859-.23047.40625v.29297l.11719.17578.23046.23047.1172.23437.64062.75781.29297.46485.17578.23437.23047.35156.23437.34766.64063.8164.17578.46485.17187.41016.11719.69531.17578.46875.11719 1.39844.0586.46484v.875l.11718 1.04688v4.78125l-.0586.46484-.35156 1.28125-.17578.52344-.11328.41015-.35156.9297L172.93359 336l-.23437.58203-.11719.17578-.17187.34766-.17578.40625-.35157.8164-.0586.29297-.11327.29297-.11719.28906-.0586.17579-.11718.875-.0586.40625-.05859.11718-.0586.17579-.05859.17187-.23047.52734-.11718.17188v.23437l-.11719.23438-.0586.17187-.17577.58594v.28906l-.0586.17579v.29296l-.0586.11329-.05859.52734v.17187l-.05468.23438v2.6211l-.17578.8164-.1172.17578-.17577.23438-.1172.17187-.11327.23438-.58594.93359-.23047.28906-.29297.46485-.17578.23437-.28906.35156-.35156.69922-.11328.23047-.17579.41016-.17578.23046-.40625.52735-.8164.69922-.29297.17187-.28906.23438-.17579.11719-.17578.17578-.52344.40625-.52734.17578-.17187.17578-.23438.05469-.64062.17578h-.75782m12.21094 31.02344l-1.07422.44921.35938.89454 1.25-.71485.44531-.53906-.98047-.08985"/><path fill="#d3d3d3" fill-opacity="0" fill-rule="evenodd" d="M201.50781 416.59766h-.89453l.44922.6289.98047.35938.80469-.08985.4453-.98828-.17577.08985-.71485-.35547-.89453.35547m154.6211 59.0703l-.0586-.52343v-.29297l.11328-.29297.0586-.23046.46875-.46875h.11328l.11719-.11329.11718-.05859h.17579l.23437-.0586h.34766l.23437.0586.11719.0586.23047.17187.0586.17578.11718.58203v.29297l-.11719.17578-.17187.28906-.17579.17579-.52734.52343-.23047.23438-.11719.0586h-.17578l-.11718-.0586-.40625-.29297-.17579-.11719-.11718-.0586-.0586-.11327-.05468-.1172m6.64062-10.95702l-.0586-.17188v-1.10937l.0586-.17188.17578-.0586.17188-.05858h.17578l.23437-.0586.1172.0586.05858.69921-.05859.17188-.11719.17578-.11718.0586-.23438.52343-.11328.0586h-.23438l-.05859-.1172m9.61328-14.39062l-.11719-.17578v-.69922l.29297-.875.1172-.17187.17577-.35156.11328-.23047.1172-.29297.35155-.75781.1172-.23047.17187-.23438h.17578l.11719-.0586h.64062l.11719.0586.23437.23438.17188.11328.35156.29297.11719.11718.11328.17579v.11328l.11719.05859.11718.11719v.69922l-.05859.17578v.23047l-.0586.17578-.34765 1.05078-.11719.23047-.11719.23437-.11718.0586-.23047.23437-.64063.28906h-.875l-.41015-.11718-.64063-.46485"/><path fill="none" stroke="#bebebe" stroke-linecap="round" stroke-linejoin="round" stroke-miterlimit="10" stroke-width=".5" d="M467.95703 311.69531H144.02734v168.625h323.9297v-168.625"/><g clip-path="url(#a)"><path fill="#fff" fill-opacity="0" fill-rule="evenodd" d="M144 475.89063v4.4375h.0039H144V311.67188h.0039H144v164.21875"/></g><g clip-path="url(#b)"><path fill="#fff" fill-opacity="0" fill-rule="evenodd" d="M144.0039 480.32813V311.67188h35.50391v55.03125l-2.67187 2.66796-1.76953 2.16797-2.39063 2.26953 2.39063 2.67579v5.0039l-1.10547 1.19531.17969 4.44141.92578.15234 2.98437-.15234-2.03125-4.4414-.95312-1.19532v-5.0039l4.4414.28906 3.53516-2.96485-.47656-4.4375-3.0586-2.66796v-55.03125h31.0664v58.37109l-4.4375 2.03125-1.98046 1.73437-2.19922 4.4375-.25781.3711-4.4375 2.01953-1.90234 2.04687-2.39844 4.44141-.14063.20703-4.01562 4.23047-.42188.33594-.69922-.33594-3.73828-3.41406-3.46875 3.41406-.05078 4.4375-.91797 1.23828-2.28125 3.19922-1.60937 4.4375-.55078 1.7539-2.21485 2.6875-2.22265 1.39454-3.6875 3.04297-.75.89062-3.5625 3.54688-.875.86328-2.8047 3.57422-.75 4.4414-.8828 2.11719-2.21875 2.32031-2.22266 2.59375-1.83984 1.84375 1.83984 2.47266 4.4414 1.22265 4.4375-1.29687 2.59766-2.39844 1.83985-1.27734 3.8164-3.16016.6211-.4375 4.4375.03125 4.4414-.2461 3.05078.65235 1.38672 1.20313 1.26953-1.20313 3.16797-1.89062 2.13281-2.54688 2.3047-3.6836.67577-.7578 3.76563-4.4375 4.23047-4.4375.20703-.9961 2.3711-3.4414 2.0664-2.89844 4.4375 1.33203 1.375 1.5664 3.0664 2.31641 4.4375 2.07813.05079.04297 4.38672 2.91015 4.4375.02344 4.4375-.26563 2.73437 1.76954 1.70703 1.1328 1.25-1.1328 1.90625-4.4375-3.15625-3.9961-.44531-.4414.44531-.84766 2.49219-3.59375 1.94531-.6914 3.48047-3.7461L243.53906 396l-1.89453-1.77344-4.4375 1.15235-4.0039-3.81641 3.41015-4.4375-3.84766-3.50781-.86328-.9336-2.28125-4.4375-.52343-4.4375-.76953-.33593-.5625.33593-3.875 1.10547-.72266-1.10547-3.71484-2.88671-4.4375-.40235-4.44141-.47656v-58.3711h71.01562v51.44532l-4.4375.70312-2.05078 1.11328-2.39062.60938-3.48828 3.82812.5625 4.4375-1.51172 2.20313-4.4375-1.46875-.4961-.73438.4961-.79296 3.74219-3.64454-3.7422-3.59765-3.15624-.83985-1.28125-1.17578-1.60938 1.17578-2.83203.61329-4.4375.64453-4.4375 1.3828-.91797 1.79688-3.51953 2.44922-4.4375.3164-2.9375 1.67188 2.9375 2.65625 4.4375-.01171 4.4375.65625 4.28906 1.13671-4.09765 4.4375 4.2461 3.65625 1.16405.78516 3.27344 3.59375 4.4414.41406 1.19141.42969 3.2461 2.16406 4.4375-.08203 2.08594-2.08203 2.35156-.80469 4.4414-1.15234 2.3711-2.48047-2.3711-3.97656-.1914-.46485.1914-.55468 4.4375-2.40625 3.5586-1.47657.8789-.15625 4.4375-1.3789 4.4375.07812 1.97657-2.98047 1.40234-4.4375-3.3789-3.2578-4.4375-.03517-4.4375-.07812-2.73438-1.0664-1.70313-1.81641v-51.44531h57.69922v50.5703l-3.29687 2.69141 3.29687 3.32422 4.4375-.46094v6.02344l-4.4375 1.94922-1.375 2.47656 1.375 1.02735 4.4375 2.76953v2.82812l-4.4375.01954-3.96875 2.23437-.47265.5-2.32813 3.9375 2.32813 3.6289 1.2578.8086-1.2578 3.3086-.46485 1.1289.46485.27734 4.4414 1.66016 4.4375-1.82813 4.4375.21094 4.4375 2.1836 4.4414-1.84375.64845-.66016-.64844-.39453-4.4414-2.65625-4.4375 2.78125L345.21093 396l-1.48438-2.14453-1.11719-2.29297 1.1172-2.07422 1.26952-2.36328-1.26953-2.2539v-2.82813l3.10938-3.79688-3.10938-4.42578v-6.02344l1.8789-2.86328-1.8789-2.40625-4.4375-.28515v-50.57031h8.3125l.5625.5664.6289-.5664h3.8086v26.54296l-.17187.08594.17187.10156v51.32422l-1.80469 1.83594 1.8047 3.27734 2.02343-3.27734-2.02344-1.83594v-51.32422l.20313-.10156-.20313-.08594v-26.54296h8.8789v100.77734l-1.32812 1.30469-3.10937 1.41796-2.78516 3.01954.9375 4.4375-.71484 4.4414 2.46484 4.4375.09766.16016.09765-.16016 4.33985-4.33984.10937-.09766 3.70313-4.4414-.99219-4.4375-1.46484-4.4375-1.35547-1.3047V311.67189h8.875v77.6953l-2.6289 2.19532-.33594 4.4375 2.96484 1.77734v37.96875l-.19922.19922-3.59375 4.4375-.64453.42578-4.4375.36329-4.4375 2.04687-4.4414 1-1.01954-3.83594-3.41797-3.23828-3.1836 3.23828-.29296 4.4375.27734 4.4414-1.23828 2.09376-1.95312 2.34375 1.95312 2.0586.85938 2.3789.48828 4.4375 3.08984 3.59375.3164.84765 4.1211 4.16797 4.4414-.0078 4.4375-.25782 4.4375.03906 4.4375.1836 4.4375-.54688 4.44142.4375 3.01953-4.01563 1.23828-4.4414.17969-4.1875.1289-.25 4.3086-3.85156 4.4375.12109 4.4375 1.10938.4453-1.81641-.4453-.44531-4.4375-.1875-2.64454-3.8047-1.79296-2.92577-.8047-1.51563-3.6328-2.60937-4.4375-1.08985-4.1875-.73828-.25391-.15625-4.21875-4.28125-.21875-.19922v-37.96875l4.4375.6172L377.01172 396l-2.21875-3.54297-.53906-.89453-3.89844-2.19531v-77.69531h22.1914v87.88671l-1.7578.87891-2.6797.78516-4.4375 1.85156-4.4375.54687-2.12109 1.25391-1.64844 4.4414 3.76954 4.01563 4.4375.10156.35156.32032-.35156.70312-4.4375-.46094-4.44141.86329-4.28906 3.33203 4.28906 3.96093 4.4414-1.1328 4.35547 1.60937-1.48437 4.4414-.80469 4.4375-1.35547 4.4375 3.72656 3.39844 4.4375-.67578 4.4375.91797 4.4375-.15625 4.44141.21484 4.4375-3.625.10156-.07422 4.33594-2.6211 1.66406-1.8164 2.77344-4.22265.17578-.21485 4.26563-3.71484 3.16406 3.71484 1.27344 1.20703 3.76562 3.23047.67188.64844 1.83984 3.78906 2.59766 4.42188 2.55469-4.42188-.04297-4.4375-2.51172-2.57812-1.2461-1.85938 1.2461-3.84765.53515-.59375-.53515-.53125-4.4375-2.48438-4.4375-.21484-4.4375 2.625-4.4414-2.45703-4.4375-.625-4.4375.23046-4.4375.25-3.70704 3.20704-.73438.3125-4.4375.36328-.95703-.67578-.16796-4.4375 1.125-3.84375.42187-.59375 1.39844-4.4375.1836-4.44141-.85938-4.4375-1.14454-.8789v-87.88673h48.82422v127.67579l-2.21093 1.03515-2.23047 3.23438-4.4375-3.22266-4.4375.83985-3.51953 3.58593-.91797 1.2461-.83203-1.2461-3.60547-3.63672-3.46094 3.63672-.84375 4.4414-.13672 1.06642-1.61328 3.37109-2.24219 4.4375-.58203 1.63281-1.33594 2.80469 1.33594 1.35937 1.40625-1.35937 3.03125-1.58594 4.4414-.08984 4.4375.42187 3.11329-3.1836 1.32422-1.03515 3.51172-3.40234.02343-4.4375.90235-.54297 4.4375-3.44922.42969-.44922 4.01171-3.45312.96875-.98438-.96875-1.03515V311.67187h26.625v168.65625h-91.66406l-1.53906-1.79296-1.59375 1.79296H144.0039"/></g><path fill="#50fcfc" fill-rule="evenodd" d="M152.875 438.41797l-1.83984-2.47266 1.83984-1.84375 2.22266-2.59375 2.21875-2.32031.8828-2.11719.75-4.4414 2.8047-3.57422.875-.86328 3.5625-3.54688.75-.89062 3.6875-3.04297 2.22265-1.39453 2.21485-2.6875.55078-1.75391 1.60937-4.4375 2.28125-3.19922.91797-1.23828.05078-4.4375 3.46875-3.41406 3.73828 3.41406.69922.33594.42188-.33594 4.01562-4.23047.14063-.20703 2.39844-4.4414 1.90234-2.04688 4.4375-2.01953.25781-.3711 2.19922-4.4375 1.98047-1.73437 4.4375-2.03125v1.42187l-3.26172 2.34375-1.17578.30079-3.72656 4.13671-.71094 1.02344-3.98438 3.41406-.45312.59766-3.41016 3.84375-1.03125 1.53516-2.7539 2.90234-1.6836 1.33984-2.78125-1.33984-1.65625-1.51563-1.53906 1.51563 1.53906 3.5039.28516.9336-.28516.6836-3.16797 3.7539-1.26953 1.39063-1.97265 3.04687-.73828 4.4414-1.73047 2.34766L171 413.75391l-.3711.7578-2.17187 3.6797-2.26562 1.07812-3.41016 3.35938-1.02734.73828-1.84766 3.70312-1.33594 4.4375-1.2539 1.72656-2.3672 2.71094 2.3672 1.4961 2.73047-1.4961 1.70703-1.23828 4.4375-3.17969.02343-.01953 4.41407-3.10156 4.4375.51172 4.4414-.41797 3.76563-1.42969.67187-.25 4.4375-.70312 3.10938-3.48828 1.32812-2.64063 1.69531-1.79687 2.7461-1.20704 3.08203-3.23046 1.15625-4.4375-1.83984-4.44141 2.03906-.13281 4.4375-.65625 4.4375-1.63672.96484-2.01172 1.5664-4.4375-2.53124-3.73438-4.4375-.33203L205 391.5625l1.13672-2.88672 4.4375 1.5625 4.4414.79688 4.3711.52734.0664.02734 4.4375 2.07422 4.4375.27735 2.92579-2.37891 1.3125-4.4375-4.23828-4.34766-4.4375.57032-4.4375-.26954-1.0586-.39453 1.0586-1.25 3.3164-3.1875-2.78516-4.4375-.53125-.41406-4.4375-1.08984-4.4414-.83985v-1.42187l4.4414.47656 4.4375.40235 3.71485 2.88671.72266 1.10547 3.875-1.10547.5625-.33593.76953.33593.52343 4.4375 2.28125 4.4375.86328.9336v8.45703l-4.4375 3.1875-4.4375.22265-4.4375-1.09765-4.4375-.86328L214.4297 396l-.63281 4.4375.35156 4.4375.86719.73828 4.4375-.24219 2.02343-.49609 2.41406-1.08594v3.1914l-4.4375 1.55079-1.67187.78516 1.67188.87109 4.20312 3.5664.23438.15235.79687-.15234 3.64063-2.1875 2.04687-2.25-2.04688-1.25782-4.4375-1.07812v-3.1914l4.4375-.42188 4.4375-.88672 1.4961-2.04297L236.48438 396l-3.71875-3.92578v-8.45703l3.84765 3.50781-3.41016 4.4375 4.00391 3.8164 4.4375-1.15234v4.45313l-4.4375 1.14453-.3711.61328.3711.78516 4.4375.25.96094-1.03516-.96094-1.75781v-4.45313L243.53906 396l1.58594 4.4375-3.48047 3.7461-1.94531.6914-2.49219 3.59375-.44531.84766.44531.4414 3.15625 3.9961-1.90625 4.4375-1.25 1.1328-1.70703-1.1328-2.73438-1.76954-4.4375.26563-4.4375-.02344-4.38671-2.91015-.05078-.04297-4.4375-2.07813-3.06641-2.3164-1.375-1.56641-4.4375-1.33203-2.0664 2.89844-2.3711 3.4414-.20703.9961-4.23047 4.4375-3.76563 4.4375-.67578.7578-2.30469 3.6836-2.1328 2.54688-3.16798 1.89062-1.26953 1.20313-1.38672-1.20313-3.05078-.65234-4.4414.2461-4.4375-.03126-.6211.4375-3.8164 3.16016-1.83985 1.27734-2.59765 2.39844-4.4375 1.29688-4.44141-1.22266"/><path fill="#00e8fc" fill-rule="evenodd" d="M157.3164 437.4414l-2.36718-1.49609 2.36719-2.71094 1.2539-1.72656 1.33594-4.4375 1.84766-3.70312 1.02734-.73828 3.41016-3.35938 2.26562-1.07812 2.17188-3.6797.37109-.7578 4.0664-2.08985v6.34375l-.39452.1836.39453.14453.16015-.14453-.16015-.1836v-6.34375l1.73047-2.34765.73828-4.44141 1.97265-3.04688 1.26953-1.39062 3.16797-3.7539.28516-.6836-.28516-.9336-1.53906-3.5039 1.53906-1.51563 1.65625 1.51563 2.78125 1.33984 1.6836-1.33984 2.7539-2.90234 1.03125-1.53516 3.41016-3.84375.45312-.59766 3.98438-3.41406.71094-1.02344 3.72656-4.13671 1.17578-.30079 3.26172-2.34375v2.35938l-4.4375 1.125-2.96484 3.29687-1.47266 2.11329-2.71484 2.32421-1.72266 2.27344-1.92578 2.16797-2.51563 3.7461-.65625.6914-3.78125 3.01172L186.47266 396l1.91015 2.98438.39453 1.45312-.39453 1.42969-4.4375.8711-1.8711 2.13671-.70312 4.4414-1.42187 4.4375 2.33594 4.4375.66406 4.4375.9961.38673 4.4375.35546.66015-.74218 2.52344-4.4375 1.2539-1.38282 4.4414-1.83593 1.16407-1.21875 2.21484-4.4375-3.3789-3.57032-1.33594-.87109.54688-4.4375.78906-3.5664 3.77344 3.5664.66406.59766 4.4375 1.20312 2.51953-1.80078 1.91797-3.71094.32422-.72656-.32422-.47656-4.4375-2.15625-4.4375-.67578-1.21484-1.12891 1.21484-1.1211 2.04297-3.3164 2.39453-.96875 4.40234-3.47266.03516-.03906 4.4414-1.27344v1.90625l-3.53515 3.84766 3.53516 2.5664 4.4375-.07421 4.4375-.03125 3.53515 1.97656.90234.17188.21485-.17188 1.79297-4.4375-2.00781-2.0586-4.4375 1.00782-4.4375-1.21875-4.4375-1.57813v-1.90625l2.72656-3.125-2.72656-2.59765-4.44141-1.82422v-2.35938l4.4414.83985 4.4375 1.08984.53125.41406 2.78516 4.4375-3.3164 3.1875-1.0586 1.25 1.0586.39454 4.4375.26953 4.4375-.57032 4.23828 4.34766-1.3125 4.4375-2.92578 2.3789-4.4375-.27734-4.4375-2.07422-.06641-.02734-4.3711-.52734-4.4414-.79688-4.4375-1.5625L205 391.5625l1.13672.3711 4.4375.33202L213.10547 396l-1.5664 4.4375-.96485 2.01172-4.4375 1.63672-4.4375.65625-2.03906.13281 1.83984 4.4414-1.15625 4.4375-3.08203 3.23048-2.7461 1.20703-1.6953 1.79687-1.32813 2.64063-3.10938 3.48828-4.4375.70312-.67187.25L179.5078 428.5l-4.4414.41797-4.4375-.51172-4.41407 3.10156-.02343.01953-4.4375 3.1797-1.70703 1.23827-2.73047 1.4961"/><path fill="#50fcfc" fill-rule="evenodd" d="M175.0664 376.48438l-2.39062-2.67579 2.39063-2.26953 1.76953-2.16797 2.67187-2.66796v2.66015l-.00781.00781-.4375 4.4375.44531.09766.11719-.09766-.10938-4.4375-.0078-.0078v-2.66017l3.05859 2.66797.47656 4.4375-3.53516 2.96485-4.4414-.28906m-.92578 10.64062l-.1797-4.4414 1.10548-1.19532.95312 1.19531 2.03125 4.44141-2.98437.15234-.92578-.15234m.92578 30.88281l-.39453.1836.39453.14453.16015-.14453-.16015-.1836"/><path fill="#00e8fc" fill-rule="evenodd" d="M179.50781 373.90625l-.44531-.09766.4375-4.4375.00781-.0078.00781.0078.10938 4.4375-.11719.09766"/><path fill="#00d4fc" fill-rule="evenodd" d="M182.28516 418.1914l-2.33594-4.4375 1.42187-4.4375.70313-4.4414 1.8711-2.13672 4.4375-.8711.39452-1.42968-.39453-1.45313L186.47266 396l1.91015-1.42578 3.78125-3.01172.65625-.6914v2.04687L190.8047 396l2.01562.63281v.89844l-3.08984 2.90625-.9336 4.4375-.41406.45703-3.3789 3.98438-1.0586 2.10546-1.10937 2.33204 1.10937 1.71093 2.25 2.72657 2.1875 1.99218 1.1875-1.99218 3.25-3.57813 2.21485-.85937 2.22656-.52344 2.51953-3.91406-2.51953-2.66407-2.72656-1.77734 1.07812-4.4375-2.79297-2.90625v-.89844l3.375-.63281-3.375-3.08203v-2.04688l2.51563-3.74609 1.92578-2.16797 1.72266-2.27344 2.71484-2.32421 1.47266-2.11329 2.96484-3.29687 4.4375-1.125v1.54297l-4.4375.42578-2.20703 2.45312-2.23047 3.19922-1.44531 1.23828-2.9922 3.94922-.4375.49219.4375 2.05469 2.33204-2.05469 2.10547-.83984 4.4375-1.25391 2.97266-2.34766 1.46484-1.57421 3.82422-2.86329-3.82422-2.8789v-1.54297l4.4414 1.82422 2.72657 2.59765-2.72656 3.125-4.44141 1.27344-.03516.03906-4.40234 3.47266-2.39453.96875-2.04297 3.3164-1.21484 1.1211 1.21484 1.1289 4.4375.67579v1.4336L202.79297 396l3.34375 4.3164L208.33594 396l-2.19922-1.19922v-1.4336l4.4375 2.15626.32422.47656-.32422.72656-1.91797 3.71094-2.51953 1.80078-4.4375-1.20312-.66406-.59766-3.77344-3.5664-.78906 3.5664-.54688 4.4375 1.33594.8711 3.3789 3.5703-2.21484 4.4375-1.16406 1.21876-4.4414 1.83593-1.25391 1.38282-2.52344 4.4375-.66016.74218-4.4375-.35546-.9961-.38672-.66405-4.4375"/><path fill="#00c4fc" fill-rule="evenodd" d="M183.94531 415.46484l-1.10937-1.71093 1.10937-2.33204 1.0586-2.10546 3.3789-3.98438.41406-.45703.9336-4.4375 3.08984-2.90625v.89453l-2.14062 2.01172 1.38672 4.4375-3.6836 4.04297-.33594.39844.10157 4.4375.23437.34765.23828-.34765 4.19922-3.48047 4.4414 1.625 1.66407-2.58203-1.66406-1.75782-4.11719-2.68359 1.60938-4.4375-1.9336-2.01172v-.89453l2.79297 2.90625-1.07812 4.4375 2.72656 1.77734 2.51953 2.66407-2.51953 3.91406-2.22656.52344-2.21485.85937-3.25 3.57813-1.1875 1.99218-2.1875-1.99218-2.25-2.72657"/><path fill="#00b8fc" fill-rule="evenodd" d="M188.14844 413.7539l-.10156-4.4375.33593-.39843 3.6836-4.04297-1.38672-4.4375 2.14062-2.01172v.89453l-1.1875 1.11719 1.1875 2.75 1.07422-2.75-1.07422-1.11719v-.89453l1.9336 2.01172-1.60938 4.4375 4.11719 2.6836v.90624l-2.35156.85157 2.35156 1.24609.80469-1.2461-.8047-.85156v-.90625l1.66407 1.75782-1.66406 2.58203-4.4414-1.625-4.19923 3.48047-.23828.34765-.23437-.34765"/><path fill="#00e8fc" fill-rule="evenodd" d="M192.82031 392.91797L190.8047 396l2.01562.63281 3.375-.63281-3.375-3.08203"/><path fill="#00a8fc" fill-rule="evenodd" d="M192.82031 403.1875l-1.1875-2.75 1.1875-1.11719v.89453l-.23828.22266.23828.55078.21485-.55078-.21485-.22266v-.89453l1.07422 1.11719-1.07422 2.75"/><path fill="#009800" fill-rule="evenodd" d="M192.82031 400.98828l-.23828-.55078.23828-.22266.21485.22266-.21485.55078"/><path fill="#00a8fc" fill-rule="evenodd" d="M197.26172 410.5625l-2.35156-1.2461 2.35156-.85156.80469.85157-.8047 1.24609"/><path fill="#00c4fc" fill-rule="evenodd" d="M197.26172 389.17969l-.4375-2.05469.4375-.49219 2.99219-3.94922 1.4453-1.23828 2.23048-3.19922 2.20703-2.45312v.84375l-1.44922 1.60937-2.98828 4.28907-.17578.14843.17578.44141 4.4375.77734 1.54687-1.21875 2.89063-3.10937 1.77734-1.32813-1.77734-1.33593-4.4375-.27344v-.84375l4.4375-.42578 3.82422 2.8789-3.82422 2.86329-1.46484 1.57421-2.97266 2.34766-4.4375 1.2539-2.10547.83985-2.33203 2.05469"/><path fill="#00b8fc" fill-rule="evenodd" d="M201.69922 383.125l-.17578-.4414.17578-.14844 2.98828-4.28907 1.44922-1.60937v.83984l-.6914.76953.30077 4.4375.39063.09375.1211-.09375 3.75-4.4375-3.8711-.76953v-.83984l4.4375.27344 1.77734 1.33593-1.77734 1.32813-2.89063 3.10937-1.54687 1.21875-4.4375-.77734"/><path fill="#00c4fc" fill-rule="evenodd" d="M206.13672 400.3164L202.79297 396l3.34375-1.19922L208.33594 396l-2.19922 4.3164"/><path fill="#00a8fc" fill-rule="evenodd" d="M205.7461 382.6836l-.30079-4.4375.6914-.76954 3.8711.76953-3.75 4.4375-.1211.09375-.39062-.09375"/><path fill="#00d4fc" fill-rule="evenodd" d="M215.01563 389.6914l-3.53516-2.5664 3.53516-3.84766v2.01172l-1.6875 1.83594 1.6875 1.22266 4.4375-.6836 1.375-.53906-1.375-.49219-4.4375-1.34375v-2.01172l4.4375 1.57813 4.4375 1.21875 4.4375-1.00781 2.0078 2.05859-1.79296 4.4375-.21484.17188-.90235-.17188-3.53516-1.97656-4.4375.03125-4.4375.07422"/><path fill="#00c4fc" fill-rule="evenodd" d="M215.01563 388.34766l-1.6875-1.22266 1.6875-1.83594 4.4375 1.34375 1.375.49219-1.375.53906-4.4375.6836"/><path fill="#fff" fill-opacity="0" fill-rule="evenodd" d="M214.42969 396l-.63281 4.4375.35156 4.4375.86719.73828 4.4375-.24219 2.02343-.49609 2.41406-1.08594 4.4375-.42187 4.4375-.88672 1.4961-2.04297L236.48438 396l-3.71875-3.92578-4.4375 3.1875-4.4375.22265-4.4375-1.09765-4.4375-.86328L214.42969 396"/><path fill="#00e8fc" fill-rule="evenodd" d="M219.45313 410.1875l-1.67188-.8711 1.67188-.78515 4.4375-1.55078 4.4375 1.07812 2.04687 1.25782-2.04688 2.25-3.64062 2.1875-.79688.15234-.23437-.15234-4.20313-3.56641"/><path fill="#50fcfc" fill-rule="evenodd" d="M237.20703 376.46484l-2.9375-2.65625 2.9375-1.67187 4.4375-.3164 3.51953-2.44923.91797-1.79687 4.4375-1.38281 4.4375-.64454 2.83203-.61328 1.60938-1.17578 1.28125 1.17578 3.15625.83985 3.74219 3.59765-3.7422 3.64454-.49609.79296.4961.73438 4.4375 1.46875v5.57812l-.5 1.09375.5.47266.42187-.47266-.42187-1.09375v-5.57812l1.51172-2.20313-.5625-4.4375 3.48828-3.82812 2.39062-.60938 2.05078-1.11328 4.4375-.70312v2.96484l-4.4375.28906-4.4414 2.23047-.69922.76953.16797 4.4375.05078 4.4375-1.52735 4.4375-2.42968 2.71875-2.88281-2.71875 1.71484-4.4375-3.26953-1.85546-1.73828-2.58204 1.73828-2.77734 1.70703-1.66016-1.70703-1.64062-4.4375-.76172-4.4414.58984-4.4375.5586-1.9336 1.2539-2.5039 3.98047-.70313.45703.70312.29297 4.4375 1.78906 3.8086 2.35547-3.8086 1.9961-2.32422 2.4414 2.32422 2.00391 3.6211 2.4375.8164.89844 4.4414 1.08203 2.48048-1.98047 1.95703-2.40234 2.22265 2.40234 2.21485 2.8789 4.4375-.46093 3.97265-2.41797-1.84765-4.4414-1.66016-4.4375 3.97656-.83985 4.4375-.95703 4.4375-.28906 4.12891-2.35157.3086-.46875 4.4375-1.49609 1.32421-2.47266-1.32422-1.27343-4.4375-.16016-4.4375-.27344-4.4375-1.58203v-2.96484l1.70313 1.8164L286.02734 366l4.4375.07813 4.4375.03515 3.37891 3.25781-1.40234 4.4375-1.97657 2.98047-4.4375-.07812-4.4375 1.3789-.8789.15625-3.5586 1.47657-4.4375 2.40625-.1914.55468.1914.46485 2.3711 3.97656-2.3711 2.48047-4.4414 1.15234-2.35156.80469-2.08594 2.08203-4.4375.08203-3.2461-2.16406-1.1914-.42969-4.4414-.41406-3.27345-3.59375-1.16406-.78516-4.2461-3.65625 4.09766-4.4375-4.28906-1.13671-4.4375-.65625-4.4375.01171"/><path fill="#00e8fc" fill-rule="evenodd" d="M237.20703 401.22266l-.3711-.78516.3711-.61328 4.4375-1.14453.96094 1.75781-.96094 1.03516-4.4375-.25m8.875-27.1211l-.70312-.29297.70312-.45703 2.5039-3.98047 1.9336-1.2539 4.4375-.5586v12.73047l-3.52344 2.39453 3.52344 2.52735 1.96875-2.52735-1.96875-2.39453V367.5586l4.4414-.58984v4.96484l-4.29687 1.875 4.29688.59375v1.95313l-4.03125 1.89062 3.41797 4.4375.61328 1.60157 2.02734-1.60157.70313-4.4375-2.73047-1.89062v-1.95313l.6289-.59375-.6289-1.875v-4.96484l4.4375.76172 1.70703 1.64062-1.70703 1.66016-1.73828 2.77734 1.73828 2.58204 3.26953 1.85546-1.71485 4.4375 2.88282 2.71875 2.42969-2.71875 1.52734-4.4375-.05078-4.4375-.16797-4.4375.69922-.76953v17.0625l-1.1836 1.46094 1.1836.39453.65234-.39453-.65234-1.46094v-17.0625l4.4414-2.23047v2.89454l-.18359.10546.1836 2.25 4.4375-1.95312.3164-.29688-.3164-.09375-4.4375-.01171v-2.89454l4.4375-.28906 4.4375 1.58203 4.4375.27344 4.4375.16016 1.32421 1.27343-1.32422 2.47266-4.4375 1.4961-.30859.46874-4.1289 2.35157-4.4375.28906-4.4375.95703-3.97657.83984 1.66016 4.4375 1.84765 4.44141-3.97265 2.41797-4.4375.46094-2.21485-2.87891-2.22265-2.40234-1.95703 2.40234-2.48047 1.98047-4.4414-1.08203-.81642-.89844-3.62109-2.4375-2.32422-2.0039 2.32422-2.44141 3.8086-1.9961-3.8086-2.35546-4.4375-1.78907"/><path fill="#00d4fc" fill-rule="evenodd" d="M254.95703 385.21094l-3.52344-2.52735 3.52344-2.39453v2.26563l-.1875.1289.1875.13672.10938-.13672-.10938-.1289v-2.26563l1.96875 2.39453-1.96875 2.52735"/><path fill="#00c4fc" fill-rule="evenodd" d="M254.95703 382.82031l-.1875-.13672.1875-.1289.10938.1289-.10938.13672"/><path fill="#00d4fc" fill-rule="evenodd" d="M259.39844 374.40234l-4.29688-.59375 4.29688-1.875.6289 1.875-.6289.59375"/><path fill="#50fcfc" fill-rule="evenodd" d="M259.39844 376.35547l-4.03125 1.89062 3.41797 4.4375.61328 1.60157 2.02734-1.60157.70313-4.4375-2.73047-1.89062v1.17578l1.03515.71484-1.03515 2.5547-1.52735-2.5547 1.52735-.71484v-1.17578"/><path fill="#fff" fill-opacity="0" fill-rule="evenodd" d="M259.39844 377.53125l-1.52735.71484 1.52735 2.5547 1.03515-2.5547-1.03515-.71484m8.875 4.0586l-.5 1.09374.5.47266.42187-.47266-.42187-1.09375"/><path fill="#00d4fc" fill-rule="evenodd" d="M272.71094 387.51953l-1.1836-.39453 1.1836-1.46094.65234 1.46094-.65234.39453m4.4414-15.89844l-.18359-2.25.1836-.10546 4.4375.01171.3164.09375-.3164.29688-4.4375 1.95312"/><path fill="#50fcfc" fill-rule="evenodd" d="M334.84766 395.1914l-2.32813-3.6289 2.32813-3.9375.47265-.5 3.96875-2.23438 4.4375-.01953 1.26953 2.25391-1.26953 2.36328-1.11719 2.07422 1.1172 2.29297L345.21093 396l2.95312 4.16797 4.4375-2.78125 4.4414 2.65625.64845.39453-.64844.66016-4.4414 1.84375-4.4375-2.1836-4.4375-.21094-4.4375 1.82813-4.44141-1.66016-.46485-.27734.46485-1.1289 1.2578-3.3086-1.2578-.8086m4.4414-26.93359l-3.29687-3.32422 3.29687-2.6914v2.63281l-.07031.0586.07031.0664.17188-.0664-.17188-.0586v-2.63281l4.4375.28515 1.8789 2.40625-1.8789 2.86329-4.4375.46093m0 11.01563l-1.375-1.02735 1.375-2.47656 4.4375-1.94922v2.91406L342 378.2461l1.72656 1.29688 1.0625-1.29688-1.0625-1.51171v-2.91407l3.10938 4.42578-3.10938 3.79688-4.4375-2.76953"/><path fill="#00e8fc" fill-rule="evenodd" d="M339.28906 365l-.07031-.0664.07031-.0586.17188.0586-.17188.0664"/><path fill="#50fcfc" fill-rule="evenodd" d="M343.72656 455.75781l-1.95312-2.0586 1.95312-2.34374 1.23828-2.09375-.27734-4.4414.29297-4.4375 3.1836-3.23829v2.6875l-.54298.55078.54297 3.8711.58203-3.8711-.58203-.55078v-2.6875l3.41797 3.23828 1.01953 3.83594 4.4414-1 4.4375-2.04688 4.4375-.36328.64454-.42578 3.59375-4.4375.19922-.19922v1.6211l-2.55469 3.01562-1.88281 1.24219-4.4375.80078-3.3164 2.39453-1.1211 2.19531-2.0039 2.2461-2.4375 1.83984-4.4375-1.4375-3.04298 4.03516 1.44922 4.4375 1.59375 2.9414.92188 1.4961 1.64453 4.4414 1.8711 1.89063 4.4414.40625 4.4375-.375 4.4375.34375 4.4375.14063 4.4375-1.13282 4.33594-1.27344.10546-.02343 3.12891-4.41797.47656-4.4375.83204-.96094 3.5078-3.47656L383.67189 450l-.72266-.73828-1.33594-4.4414-2.3789-1.33594-4.44141-2.73047-1.42578-.3711-3.01172-3.01562v-1.6211l.21875.19922 4.21875 4.28125.2539.15625 4.1875.73828 4.4375 1.08985 3.63282 2.60937.80469 1.51563 1.79296 2.92578 2.64454 3.80469 4.4375.1875.4453.4453-.4453 1.81642-4.4375-1.10938-4.4375-.1211-4.3086 3.85157-.1289.25-.1797 4.1875-1.23827 4.4414-3.01954 4.01563-4.4414-.4375-4.4375.54688-4.4375-.1836-4.4375-.03906-4.4375.25781-4.4414.00781-4.1211-4.16796-.3164-.84766-3.08985-3.59375-.48828-4.4375-.85938-2.3789"/><path fill="#00e8fc" fill-rule="evenodd" d="M343.72656 379.54297L342 378.24609l1.72656-1.51171 1.0625 1.51171-1.0625 1.29688m2.84375 78.59375l-1.44922-4.4375 3.04297-4.03516 4.4375 1.4375 2.4375-1.83984 2.0039-2.2461 1.1211-2.1953 3.3164-2.39454 4.4375-.80078 1.88282-1.24219 2.55469-3.01562v2.4336l-.4961.58202-3.9414 2.60156-4.4375 1.53516-.42188.30078-2.78125 4.4414-1.23437 2.08595-3.01563 2.35156-1.42578 1.65625-2.25781 2.78125 2.25781 3.96484.78125.47266 3.66016 2.38672 8.875 1.39844 4.4375-.07813 4.3086-3.70703.1289-.10547.16015.10547 4.28125 1.76172 1.2461-1.76172.96484-4.4375 2.22656-2.57422 1.87891-1.86328-1.8789-1.98047-2.40235-2.45703-2.03515-2.875-.48438-1.5664-3.95703-3.4336-3.85547-1.0039-.58203-.58204v-2.4336l3.01172 3.01563 1.42578.3711 4.4414 2.73046 2.37891 1.33594 1.33594 4.4414.72265.73829 3.50782 3.69922-3.50781 3.47656-.83204.96094-.47656 4.4375-3.1289 4.41797-.10547.02344-4.33594 1.27343-4.4375 1.13281-4.4375-.14062-4.4375-.34375-4.4375.375-4.4414-.40625-1.8711-1.89063-1.64453-4.4414-.92188-1.4961-1.59375-2.9414"/><g clip-path="url(#c)"><path fill="#50fcfc" fill-rule="evenodd" d="M348.79297 311.67188h-1.1914l.5625.5664.6289-.5664"/></g><path fill="#00e8fc" fill-rule="evenodd" d="M348.16406 444.2539l-.54297-3.87109.54297-.55078.58203.55078-.58203 3.8711"/><path fill="#00d4fc" fill-rule="evenodd" d="M352.60156 462.10156l-2.25781-3.96484 2.25781-2.78125 1.42578-1.65625 3.01563-2.35156 1.23437-2.08594 2.78125-4.4414.42188-.30079 4.4375-1.53515 3.9414-2.60157.4961-.58203v2.05469l-4.4375 2.48828-1.29688.47656-3.14062 2.67969-1.15235 1.76172-1.05078 4.4375 1.15235 4.4375 1.05078 2.48437 1.65625 1.95313 2.78125.3125 1.42969-.3125 2.29687-4.4375.71094-1.76563 3.82422 1.76563.61328.0625 4.4414 2.7539.8125-2.8164 3.625-4.1914.25-.2461-.25-.26563-4.08203-4.17187-.35546-.5039-1.21094-3.9375-3.23047-2.80079-4.4375-.16406v-2.05469l.58203.58203 3.85547 1.0039 3.95703 3.4336.48438 1.5664 2.03515 2.875 2.40235 2.45704 1.8789 1.98047-1.8789 1.86328-2.22657 2.57422-.96484 4.4375-1.2461 1.76172-4.28125-1.76172-.16015-.10547-.1289.10547-4.3086 3.70703-4.4375.07813-8.875-1.39844-3.66016-2.38672-.78125-.47266"/><path fill="#50fcfc" fill-rule="evenodd" d="M352.60156 394.83984l-1.80469-3.27734 1.8047-1.83594 2.02343 1.83594-2.02344 3.27734m0-56.4375l-.17187-.10156.17187-.08594.20313.08594-.20313.10156m2.59375 84.22657l-.9375-4.4375 2.78516-3.01954v2.80079l-.20313.21875.20313.53906.85156 3.89844 3.58594 3.1289 2.67578-3.1289-2.67578-4.3711-1.39453-.0664-3.04297-.21875v-2.80079l3.10937-1.41796 1.32813-1.3047 1.35547 1.3047 1.46484 4.4375.99219 4.4375-3.70313 4.4414-.10937.09766-4.33985 4.33984-.09765.16016-.09766-.16016-2.46484-4.4375.71484-4.4414"/><path fill="#00e8fc" fill-rule="evenodd" d="M357.04297 418.73047l-.20313-.53906.20313-.21875 3.04297.21875 1.39453.0664v3.08985l-1.05078 1.28125 1.05078.91796.78515-.91796-.78515-1.28125v-3.08985l2.67578 4.3711-2.67578 3.1289-3.58594-3.1289-.85156-3.89844"/><path fill="#00c4fc" fill-rule="evenodd" d="M360.42969 458.13672l-1.15235-4.4375 1.05079-4.4375 1.15234-1.76172 3.14062-2.67969 1.29688-.47656 4.4375-2.48828 4.4375.16406v.63281l-4.4375 1.14063-2 1.02734-2.41016 4.4414 4.41016 2.48048 1-2.48047 3.4375-2.32813v.6172l-2.52735 1.71093 2.52735 4.1211 4.125-4.1211-4.125-1.71094v-.61719l2.5039-2.11328-2.5039-2.16797v-.6328l3.23047 2.80077 1.21094 3.9375v3.97656l-.96875.96485.96875 1.53125.91015-1.53125-.91015-.96485v-3.97656l.35546.5039 4.08204 4.17188.25.26563-.25.2461-3.625 4.1914-.8125 2.8164-4.44141-2.7539-.61328-.0625-3.82422-1.76563-.71094 1.76563-2.29687 4.4375-1.4297.3125-2.78124-.3125-1.65625-1.95313-1.05078-2.48437"/><path fill="#00d4fc" fill-rule="evenodd" d="M361.48047 423.54688l-1.05078-.91797 1.05078-1.28125.78515 1.28125-.78515.91796"/><path fill="#00b8fc" fill-rule="evenodd" d="M370.35547 451.74219l-4.41016-2.48047 2.41016-4.4414 2-1.02735 4.4375-1.14063v.63282l-3.71875 1.53515-.71875 3.6875-.38672.7539.38672.21485.08984-.21484 4.34766-2.9414 1.77344-1.5-1.77344-1.53516v-.63282l2.5039 2.16797-2.5039 2.11328-3.4375 2.32813-1 2.48047"/><path fill="#50fcfc" fill-rule="evenodd" d="M370.35547 397.77734L367.39062 396l.33594-4.4375 2.6289-2.19531 3.89845 2.19531.53906.89453L377.01172 396l-2.21875 2.39453-4.4375-.61719"/><path fill="#00a8fc" fill-rule="evenodd" d="M370.35547 449.47656l-.38672-.21484.38672-.7539.71875-3.6875 3.71875-1.53516v.6289l-2.1914.90625 2.1914.88281 1.04687-.8828-1.04687-.90626v-.6289l1.77344 1.53515-1.77344 1.5-4.34766 2.9414-.08984.21485"/><path fill="#50fcfc" fill-rule="evenodd" d="M374.79297 422.15234l-4.28906-3.96093 4.28906-3.33204v2.27344l-1.36328 1.0586 1.36328 1.26171 3.07031-1.26171-3.07031-1.0586v-2.27344l4.4414-.86328 4.4375.46094.35157-.70312-.35156-.32032-4.4375-.10156-3.76954-4.01562 1.64844-4.44141 2.1211-1.2539 4.4375-.54688 4.4375-1.85156v3.33203l-.57032.32031-3.86719 2.14063-2.45703 2.30078 2.45704 1.6953 3.02734 2.7422 1.41015 3.11718v2.5586l-1.6328 3.19922.53124 4.4414.25781 4.4375-3.59375 3.6289-.53906.8086.53906.48828.77344-.48828 3.66406-3.6289 4.4375 3.32421 1.17188.3047 3.26563 1.4414 4.4414.63281 2.49219-2.07422 1.8086-4.4375.13671-.16015 4.4375-2.13282 1.85938-2.14453 2.57812-3.17969 1.33985-1.26171-1.33985-.85547-4.4375-1.52735-4.4375.58985-4.4375.96875-.95312.82422-3.48829 1.47656-4.4375.75-3.16406-2.22656-1.27344-3.19922v-2.5586l1.57422-3.11718-1.57421-4.1836-.19532-.2539.19531-1.1172.6211-3.32421-.6211-.32031v-3.33203l2.6797-.78516 1.7578-.8789 1.14454.8789.85937 4.4375-.1836 4.4414-1.39843 4.4375-.42188.59376-1.125 3.84375.16797 4.4375.95704.67578 4.4375-.36328.73437-.3125 3.70703-3.20704 4.4375-.25 4.4375-.23046 4.4375.625 4.4414 2.45703 4.4375-2.625v1.85937l-1.99609 1.3711 1.9961 2.13671 2.72656 2.3047 1.71094 1.57812 1.0625-1.57813.1914-4.4414-1.2539-.79688-4.4375-.57422v-1.85937l4.4375.21484 4.4375 2.48438.53515.53125-.53515.59375-1.2461 3.84765 1.2461 1.85938 2.51172 2.57812.04296 4.4375-2.55468 4.42188-2.59766-4.42188-1.83984-3.78906-.67188-.64844-3.76562-3.23047-1.27344-1.20703-3.16406-3.71484-4.26563 3.71484-.17578.21485-2.77344 4.22265-1.66406 1.8164-4.33594 2.6211-.10156.07422-4.4375 3.625-4.4414-.21484-4.4375.15625-4.4375-.91797-4.4375.67578-3.72657-3.39844 1.35547-4.4375.80469-4.4375 1.48437-4.4414-4.35546-1.60938-4.44141 1.13281"/><path fill="#00d4fc" fill-rule="evenodd" d="M374.79297 447.55078l-2.52735 1.71094 2.52735 4.1211 4.125-4.1211-4.125-1.71094v.61328l2.64062 1.09766-2.64062 2.63672-1.61719-2.63672 1.61719-1.09766v-.61328"/><path fill="#009800" fill-rule="evenodd" d="M374.79297 445.70313l-2.1914-.88282 2.1914-.90625v.63281l-.66016.27344.66016.26953.3164-.26953-.3164-.27344v-.6328l1.04687.90624-1.04687.88281"/><path fill="#00e8fc" fill-rule="evenodd" d="M374.79297 448.16406l-1.61719 1.09766 1.61719 2.63672 2.64062-2.63672-2.64062-1.09766v.61719l1.16015.48047-1.16015 1.15625-.70703-1.15625.70703-.48047v-.61719m0-28.71094l-1.36328-1.26171 1.36328-1.0586 3.07031 1.0586-3.07031 1.26171"/><path fill="#50fcfc" fill-rule="evenodd" d="M374.79297 448.78125l-.70703.48047.70703 1.15625 1.16015-1.15625-1.16015-.48047v.36719l.26953.11328-.26953.26562-.16406-.26562.16406-.11328v-.36719"/><path fill="#00ac00" fill-rule="evenodd" d="M374.79297 445.08984l-.66016-.26953.66016-.27344.3164.27344-.3164.26953"/><path fill="#fff" fill-opacity="0" fill-rule="evenodd" d="M374.79297 449.14844l-.16406.11328.16406.26562.26953-.26562-.26953-.11328"/><g clip-path="url(#d)"><path fill="#50fcfc" fill-rule="evenodd" d="M373.19922 480.32813l1.59375-1.79297 1.53906 1.79296h-3.13281"/></g><path fill="#00b8fc" fill-rule="evenodd" d="M379.23438 455.23047l-.96875-1.53125.96875-.96485.91015.96485-.91015 1.53125"/><path fill="#00e8fc" fill-rule="evenodd" d="M383.67188 411.01172l-2.45704-1.69531 2.45704-2.30079 3.86718-2.14062.57031-.32031.6211.32031-.6211 3.32422-.1953 1.11719.1953.2539 1.57422 4.1836-1.57421 3.11718-1.41016-3.11718-3.02735-2.7422m0 25.42188l-.53906-.48828.53906-.8086 3.59375-3.6289-.2578-4.4375-.53126-4.4414 1.63281-3.19922 1.27344 3.19922 3.16406 2.22656 4.4375-.75 3.48829-1.47656.95312-.82422 4.4375-.96875 4.4375-.58985v2.17188l-.95703.21094-3.48047 1.86328-4.4375-.41016-4.4414 1.96485-3.48047 1.02343-.95704.52344-2.42187 3.91406 2.42188 2.14063 4.4375 1.32031 4.4414-.11328 1.8086-3.34766 2.6289-3.03515 2.03516-1.40235 2.40234-3.80078.5-.64062-.5-.21094v-2.17188l4.4375 1.52735 1.33985.85547-1.33985 1.26171-2.57812 3.1797-1.85938 2.14452-4.4375 2.13282-.13672.16015-1.8086 4.4375-2.49218 2.07422-4.4414-.63281-3.26563-1.4414-1.17188-.3047-4.4375-3.32421-3.66406 3.6289-.77344.48828"/><path fill="#00d4fc" fill-rule="evenodd" d="M392.54688 433.64844l-2.42188-2.14063 2.42188-3.91406.95703-.52344 3.48046-1.02344 4.44141-1.96484v1.83203l-2.53125 1.15625-1.91015 1.38281-4.4375 2.78516-.16407.26953.16406.14453 4.4375 1.6211L400.5 431.5078l.92578-1.34765 2.44531-3.08985-2.4453-1.15625v-1.83203l4.4375.41016 3.48046-1.86328.95703-.21094.5.21094-.5.64062-2.40234 3.80078-2.03516 1.40235-2.6289 3.03515-1.8086 3.34766-4.4414.11328-4.4375-1.32031"/><path fill="#00c4fc" fill-rule="evenodd" d="M392.54688 431.65234l-.16407-.14453.16406-.26953 4.4375-2.78515v2.92578l-.1953.1289.1953.07031.14844-.0703-.14844-.12891v-2.92579l1.91016-1.3828 2.53125-1.15626 2.44531 1.15625-2.4453 3.08985-.92579 1.34765-3.51563 1.76563-4.4375-1.6211"/><path fill="#00b8fc" fill-rule="evenodd" d="M396.98438 431.57813l-.19532-.07032.19531-.1289.14844.1289-.14844.07031"/><path fill="#50fcfc" fill-rule="evenodd" d="M410.30078 463.9336l-1.33594-1.35938 1.33594-2.80469.58203-1.63281 2.24219-4.4375 1.61328-3.3711.13672-1.0664.84375-4.4414 3.46094-3.63673v2.13282l-1.4336 1.5039-1.03515 4.4414.3086 4.4375 2.16015 3.38282 1.9336 1.05469 2.5039.71875.70312-.71875 3.73438-2.91797 1.57031-1.51953-1.57031-3.1875-4.30078-1.25 4.30078-1.69922 4.4375-1.94531.95703-.79688-.95703-.90234-4.4375-.3086-1.1875 1.21094-3.25 4.40625-2.94531-4.40625-1.4922-1.5039v-2.13282l3.60548 3.63672.83203 1.2461.91797-1.2461 3.51953-3.58594 4.4375-.83984 4.4375 3.22266 2.23047-3.23438 2.21093-1.03515.96875 1.03515-.96875.98438-4.01171 3.45312-.4297.44922-4.4375 3.44922-.90234.54297-.02343 4.4375-3.51172 3.40234-1.32422 1.03516-3.11328 3.1836-4.4375-.42188-4.4414.08984-3.03126 1.58594-1.40625 1.35937"/><path fill="#00e8fc" fill-rule="evenodd" d="M417.01953 453.69922l-.3086-4.4375 1.03516-4.4414 1.4336-1.50391 1.49219 1.5039 2.9453 4.40625 3.25-4.40625 1.1875-1.21094 4.4375.3086.95704.90234-.95703.79688-4.4375 1.94531-4.30078 1.69922 4.30078 1.25 1.57031 3.1875-1.57031 1.51953-3.73438 2.91797-.70312.71875-2.5039-.71875-1.9336-1.05469-2.16016-3.38281m6.59766-28.9336l-1.9961-2.13671 1.9961-1.3711 4.4375.57422 1.2539.79688-.1914 4.4414-1.0625 1.57813-1.71094-1.57813-2.72656-2.30469"/><g clip-path="url(#e)"><path fill="#fff" fill-opacity="0" fill-rule="evenodd" d="M467.9961 480.32813H468V311.67188h-.0039H468v168.65625h-.0039"/></g><path fill="#fff" fill-opacity="0" fill-rule="evenodd" d="M367.13672 476.34766l5.83594-.23438-.40625-9.95312-5.83594.23828.40625 9.94922"/><path fill-rule="evenodd" d="M370.30078 468.08594l.50781-.01953.25782 6.28906-.78516.03125-.1836-4.48438-1.38671.0547-.02344-.5547.55469-.08984.25-.0625.22656-.09766.19922-.14843.16406-.21875.1289-.30079.08985-.39843"/><path fill="#fff" fill-opacity="0" fill-rule="evenodd" d="M241.57031 410.30469l4.8789-3.21094-5.48046-8.32031-4.8789 3.21094 5.48046 8.3203"/><path fill-rule="evenodd" d="M240.02344 401.59375l.42187-.28125 3.46485 5.25781-.66016.4336-2.46875-3.75-1.16016.76171-.30468-.46093.43359-.36328.17969-.1836.14453-.20312.08984-.23047.03125-.26953-.04297-.32422-.1289-.38672"/><path fill="#fff" fill-opacity="0" fill-rule="evenodd" d="M189.0625 435.70313l4.44531-3.79297-6.46094-7.57813-4.4453 3.78906 6.46093 7.58204"/><path fill-rule="evenodd" d="M186.45313 427.2461l.39062-.33204 4.08203 4.79297-.59766.50781-2.91406-3.41406-1.05469.89844-.36328-.42188.38672-.41406.15625-.20312.11719-.21485.0625-.24219-.0039-.27343-.08594-.3125-.17578-.3711"/><path fill="#fff" fill-opacity="0" fill-rule="evenodd" d="M426.39453 429.46094L430.07422 434l7.73437-6.27344-3.67968-4.53906-7.73438 6.27344"/><path fill-rule="evenodd" d="M434.91016 427.0586l.3203.39843-4.89062 3.96485-.49609-.61329 3.48828-2.82812-.875-1.07813.4336-.34765.40234.39062.19922.16406.21484.1211.23828.07031.27344.0039.3164-.07812.375-.16797"/><path fill="#fff" fill-opacity="0" fill-rule="evenodd" d="M283.89844 383.83203l5.67578-1.38672-2.36328-9.67578-5.67578 1.38281 2.36328 9.6797"/><path fill-rule="evenodd" d="M285.3711 375.10547l.49609-.1211 1.48828 6.1172-.76172.18359-1.0664-4.35938-1.34766.32813-.13281-.53907.53125-.1953.23046-.11329.20313-.14063.16406-.1875.11719-.24609.07031-.3164.00781-.41016"/><path fill="#fff" fill-opacity="0" fill-rule="evenodd" d="M195.6211 403.76563l6.96093 3.78906 4.8711-8.95313-6.95704-3.78906-4.875 8.95313"/><path fill-rule="evenodd" d="M201.79688 397.60938l2.88671 1.5703-.35547.65235-2.3164-1.26172-1.0664 1.47266.27734-.03125.30078.01172.32812.07422.35156.15625.27344.17968.2539.23438.22267.28906.17187.33985.10156.3828.01563.21094-.0039.21875-.03126.22657-.0586.23828-.09374.2461-.1211.2539-.24218.375-.29297.3164-.33594.25782-.3711.1836-.40624.10155-.21094.01563-.21875-.00781-.22266-.03125-.23047-.0586-.23047-.08594-.23437-.11328-.39453-.2539-.30078-.28125-.21485-.30078-.14062-.32032-.07031-.33593-.00782-.34375.04688-.35157.09375-.35156.6914.375-.04296.24219-.00782.23047.01953.21875.0547.20312.08984.1914.12109.16798.16016.15234.1914.125.28906.1289.28125.07423.27344.01171.26172-.04687.2461-.10938.23437-.17578.21094-.23437.19531-.30078.10938-.24219.0703-.25781.03126-.26953-.02344-.26954-.07422-.26171-.13672-.25-.20703-.22266-.28125-.1914-.3125-.13282-.30078-.03906-.32813.03515-.40234.08594-.60937-.33203 2.04297-2.78515"/><g clip-path="url(#f)"><path fill="none" stroke="#000" stroke-linecap="round" stroke-linejoin="round" stroke-miterlimit="10" stroke-width=".5" d="M146.55078 482.7461l-5.10156-4.83204"/></g><g clip-path="url(#g)"><path fill="none" stroke="#000" stroke-linecap="round" stroke-linejoin="round" stroke-miterlimit="10" stroke-width=".5" d="M159.91406 482.6914l-5.19922-4.72656"/></g><g clip-path="url(#h)"><path fill="none" stroke="#000" stroke-linecap="round" stroke-linejoin="round" stroke-miterlimit="10" stroke-width=".5" d="M172.78906 483.10156l-4.32031-5.54297"/></g><g clip-path="url(#i)"><path fill="none" stroke="#000" stroke-linecap="round" stroke-linejoin="round" stroke-miterlimit="10" stroke-width=".5" d="M186.55469 482.6836l-5.21875-4.70704"/></g><g clip-path="url(#j)"><path fill="none" stroke="#000" stroke-linecap="round" stroke-linejoin="round" stroke-miterlimit="10" stroke-width=".5" d="M199.75 482.8086l-4.98047-4.95704"/></g><g clip-path="url(#k)"><path fill="none" stroke="#000" stroke-linecap="round" stroke-linejoin="round" stroke-miterlimit="10" stroke-width=".5" d="M213.33594 482.5039l-5.51953-4.34765"/></g><g clip-path="url(#l)"><path fill="none" stroke="#000" stroke-linecap="round" stroke-linejoin="round" stroke-miterlimit="10" stroke-width=".5" d="M226.73828 482.38672l-5.69531-4.11719"/></g><g clip-path="url(#m)"><path fill="none" stroke="#000" stroke-linecap="round" stroke-linejoin="round" stroke-miterlimit="10" stroke-width=".5" d="M240.41016 481.76953L234 478.88672"/></g><g clip-path="url(#n)"><path fill="none" stroke="#000" stroke-linecap="round" stroke-linejoin="round" stroke-miterlimit="10" stroke-width=".5" d="M253.73828 481.74219l-6.4336-2.82813"/></g><g clip-path="url(#o)"><path fill="none" stroke="#000" stroke-linecap="round" stroke-linejoin="round" stroke-miterlimit="10" stroke-width=".5" d="M266.76563 482.26953l-5.85938-3.88281"/></g><g clip-path="url(#p)"><path fill="none" stroke="#000" stroke-linecap="round" stroke-linejoin="round" stroke-miterlimit="10" stroke-width=".5" d="M280.32031 481.84766l-6.33984-3.03516"/></g><g clip-path="url(#q)"><path fill="none" stroke="#000" stroke-linecap="round" stroke-linejoin="round" stroke-miterlimit="10" stroke-width=".5" d="M293.5586 481.99219l-6.1875-3.32813"/></g><g clip-path="url(#r)"><path fill="none" stroke="#000" stroke-linecap="round" stroke-linejoin="round" stroke-miterlimit="10" stroke-width=".5" d="M307.28906 480.10938l-7.01562.4375"/></g><g clip-path="url(#s)"><path fill="none" stroke="#000" stroke-linecap="round" stroke-linejoin="round" stroke-miterlimit="10" stroke-width=".5" d="M320.57031 479.8164l-6.94922 1.02344"/></g><g clip-path="url(#t)"><path fill="none" stroke="#000" stroke-linecap="round" stroke-linejoin="round" stroke-miterlimit="10" stroke-width=".5" d="M332.51563 483.14063l-4.21094-5.625"/></g><g clip-path="url(#u)"><path fill="none" stroke="#000" stroke-linecap="round" stroke-linejoin="round" stroke-miterlimit="10" stroke-width=".5" d="M342.53125 483.63281l2.39063-6.60937"/></g><g clip-path="url(#v)"><path fill="none" stroke="#000" stroke-linecap="round" stroke-linejoin="round" stroke-miterlimit="10" stroke-width=".5" d="M356.10156 483.71484l1.8789-6.77343"/></g><g clip-path="url(#w)"><path fill="none" stroke="#000" stroke-linecap="round" stroke-linejoin="round" stroke-miterlimit="10" stroke-width=".5" d="M367.20703 481.88672l6.29688-3.11719"/></g><g clip-path="url(#x)"><path fill="none" stroke="#000" stroke-linecap="round" stroke-linejoin="round" stroke-miterlimit="10" stroke-width=".5" d="M380.21094 480.9414l6.92187-1.22656"/></g><g clip-path="url(#y)"><path fill="none" stroke="#000" stroke-linecap="round" stroke-linejoin="round" stroke-miterlimit="10" stroke-width=".5" d="M393.47266 480.32813H400.5"/></g><g clip-path="url(#z)"><path fill="none" stroke="#000" stroke-linecap="round" stroke-linejoin="round" stroke-miterlimit="10" stroke-width=".5" d="M394.4961 480.32813l-.57813-1.08204"/></g><g clip-path="url(#A)"><path fill="none" stroke="#000" stroke-linecap="round" stroke-linejoin="round" stroke-miterlimit="10" stroke-width=".5" d="M406.96094 481.41406l6.6836-2.16797"/></g><g clip-path="url(#B)"><path fill="none" stroke="#000" stroke-linecap="round" stroke-linejoin="round" stroke-miterlimit="10" stroke-width=".5" d="M407.9336 481.09766l-.88282-.85157"/></g><g clip-path="url(#C)"><path fill="none" stroke="#000" stroke-linecap="round" stroke-linejoin="round" stroke-miterlimit="10" stroke-width=".5" d="M420.41406 481.77344l6.40625-2.88672"/></g><g clip-path="url(#D)"><path fill="none" stroke="#000" stroke-linecap="round" stroke-linejoin="round" stroke-miterlimit="10" stroke-width=".5" d="M420.41406 481.77344l-1.9414-1.5039"/></g><g clip-path="url(#E)"><path fill="none" stroke="#000" stroke-linecap="round" stroke-linejoin="round" stroke-miterlimit="10" stroke-width=".5" d="M433.77734 481.8789l6.3086-3.09765"/></g><g clip-path="url(#F)"><path fill="none" stroke="#000" stroke-linecap="round" stroke-linejoin="round" stroke-miterlimit="10" stroke-width=".5" d="M433.77734 481.8789l-1.98828-1.4375"/></g><g clip-path="url(#G)"><path fill="none" stroke="#000" stroke-linecap="round" stroke-linejoin="round" stroke-miterlimit="10" stroke-width=".5" d="M447.39844 482.38672l5.69531-4.11719"/></g><g clip-path="url(#H)"><path fill="none" stroke="#000" stroke-linecap="round" stroke-linejoin="round" stroke-miterlimit="10" stroke-width=".5" d="M448.22656 481.78906l-1.10156-.54297"/></g><g clip-path="url(#I)"><path fill="none" stroke="#000" stroke-linecap="round" stroke-linejoin="round" stroke-miterlimit="10" stroke-width=".5" d="M461.27344 482.99219l4.57812-5.32813"/></g><g clip-path="url(#J)"><path fill="none" stroke="#000" stroke-linecap="round" stroke-linejoin="round" stroke-miterlimit="10" stroke-width=".5" d="M146.09375 469.83594l-4.1875-5.64453"/></g><path fill="none" stroke="#000" stroke-linecap="round" stroke-linejoin="round" stroke-miterlimit="10" stroke-width=".5" d="M145.48438 469.01172l-.52344 1.10937m14.95312-.74218l-5.19922-4.73047m4.44532 4.03906l-.3047 1.1914m13.81642-.0039l-4.08204-5.72266m3.48828 4.89063l-.55078 1.09765m14.69141-.4453l-4.54688-5.36329m3.88282 4.58203l-.45313 1.14063m14.08985-.10547l-3.85938-5.8711m3.29688 5.01563l-.58985 1.07813m14.33594-.14063l-3.60156-6.03516m3.07812 5.15625l-.63281 1.05078m14.32422-.08984l-3.30469-6.19922m17.28125.45313l-4.625 5.29297m18.375-4.83203l-5.5 4.37109m4.69922-3.73438l1.125.48828m13.0664-1.02734l-5.64843 4.17578m4.82812-3.57031l1.10547.53125m13.66797.35156l-6.92578 1.19922m5.91797-1.02344l.7539.96875m13.61329-.30859l-7.01172-.47266m5.99219.40235l.5 1.1211m13.8125-1.72267l-6.97266.8711m5.96094-.7461l.70312 1.00391m11.125 2.67969l-1.97265-6.7461m1.6875 5.76563l-.87891.85547m10.30469-1.77344l6.3789-2.94922m6.71094 2.30469l6.82813-1.66016m-5.83594 1.41797l-.8164-.91406m13.8789 2.60547l5.34765-4.5586m-4.5703 3.89454l-1.14063-.44922m12.88671-.59766l6.9336-1.13672m-5.92578.97266l-.7461-.97656m13.19532-.57032l6.64843 2.28516m-5.67968-1.95313l-.19532-1.21093m12.96485.03906l5.80078 3.96484m-4.95703-3.38672l.13672-1.21875m11.74609 2.21094l6.97656.82422m-6.97656-.82422l-.89063-2.28906m14.19922 3.04688l6.9922-.69141m-6.9922.6914l-1.35937-2.04296m14.83203 2.80078l6.67188-2.20703m-6.67188 2.20703l-1.77344-1.69531m14.97656 1.2539l6.90235-1.32422m-6.90235 1.32422l-1.53906-1.91406m15.55078 3.4375l5.50391-4.3711m-4.70313 3.73438l-1.125-.48828"/><g clip-path="url(#K)"><path fill="none" stroke="#000" stroke-linecap="round" stroke-linejoin="round" stroke-miterlimit="10" stroke-width=".5" d="M145.74219 456.75l-3.48438-6.10156"/></g><path fill="none" stroke="#000" stroke-linecap="round" stroke-linejoin="round" stroke-miterlimit="10" stroke-width=".5" d="M145.23438 455.86328l-.65625 1.03516m15.72656-1.35547l-5.98047-3.6875m5.11328 3.14844l-.07813 1.22656m14.75391-2.07422l-6.96875-.91406m17.53516 3.89062l-1.46875-6.8711m1.2539 5.875l-.9375.78907m12.51563.07031l2.4336-6.59375m-2.07813 5.63282l-1.21875.16406m14.13672.78125l2.51953-6.5625m-2.15235 5.60547l-1.21875.14844m14.1211.78906l2.60937-6.52344m13.27735-.01562l-2.53516 6.55468m13.625-6.65625l1.91797 6.75782m-1.64063-5.77735l.88672-.84765m12.39844-.19532l1.41797 6.88281m-1.21094-5.8828l.94531-.78126m12.26563-.23828l1.21875 6.92188m-1.04297-5.91407l.96875-.7578m12.47266-.28907l.61328 7m-.52735-5.98047l1.03125-.67188m12.79297-.35156l-.57812 7.0039m.57812-7.0039l2.25-.96875m10.04297 1.03516l1.46485 6.875m-1.25-5.875l.9375-.78906m9.78125 1.59375l6.22656 3.26171m6.6875-1.64062l7.02734.01953m-6.0039-.01562l-.57422-1.08594m12.86718 1.10547l7.02735-.02344m-6.0039.01953l-.58204-1.08203m12.8789 1.23438l7.01954-.32032m-6 .27344l-.625-1.0586m13.07812-.10546l6.70313 2.10156m-5.73047-1.79687l-.22266-1.20704m12.88282.17579l6.0664 3.55468m-5.1836-3.03906l.05079-1.22266m11.91406 2.80079l7-.63282m-5.98047.53907l-.67187-1.02735m12.96484 1.07422l7.00781-.54297m-7.0078.54297l-1.31641-2.07031m14.71875 2.6289l6.83203-1.65625m-6.83203 1.65625l-1.62891-1.83203m14.85547 1.28125l7.00781-.55468m-7.00781.55468l-1.3164-2.07031m15.41015 4.00781l5.45312-4.4336m-5.45312 4.4336l-2.26172-.95312"/><g clip-path="url(#L)"><path fill="none" stroke="#000" stroke-linecap="round" stroke-linejoin="round" stroke-miterlimit="10" stroke-width=".5" d="M144.58984 443.84766l-1.17968-6.92578"/></g><g clip-path="url(#M)"><path fill="none" stroke="#000" stroke-linecap="round" stroke-linejoin="round" stroke-miterlimit="10" stroke-width=".5" d="M144.41797 442.83984l-.96875.75"/></g><path fill="none" stroke="#000" stroke-linecap="round" stroke-linejoin="round" stroke-miterlimit="10" stroke-width=".5" d="M158.13281 443.80078l-1.63672-6.83594m1.39844 5.83985l-.91797.8125m16.24219-5.60938l-5.17578 4.7539m19.38672-2.8164l-6.96875.875m5.95703-.7461l.70703 1m13.125 1.15626l-5.98047-3.6914m17.40234-1.4922l-2.1914 6.67579m1.8711-5.70703l1.21093-.20704m12.32031-.79687l-1.98437 6.74219m1.69531-5.76172l1.20313-.2461m12.45703-.71484l-2.09766 6.70703m1.79297-5.73047l1.20703-.22656m10.6289-.83203l1.47266 6.8711m-1.26172-5.8711l.94141-.79297m11.90234-.14062l1.9922 6.73828m-1.70313-5.75782l.875-.85937m13.59375-.23828l-.89454 6.96875m.76172-5.95313l1.14844-.4336m11.40234-.58202l.89844 6.96875m-.76562-5.95313l1-.71093m12.57812-.33204l.10938 7.02735m-.10938-7.02735l2.14844-1.1875m10.96094 1.19532l.51953 7.0078m-.4414-5.98827l1.03515-.65235m12.00781-.34765l.90625 6.96875m-.77344-5.95313l1-.71093m9.27735 2.14843l6.71875 2.0625m-5.74219-1.76172l-.23047-1.20312m12.78516.36328l6.28515 3.14063m-5.37109-2.6836l-.03125-1.22656m12.17969 1.4375l6.78906 1.8086m-5.80078-1.54688l-.27735-1.19531m12.48438 1.85546l7.02734-.03906m-6.0039.03516l-.58203-1.08203m12.8828.82422l7.01173.48437m-5.99219-.41406l-.5-1.11719m12.91797 2.23438l6.76562-1.89063m-5.78125 1.61719l-.84765-.89063m13.05078.13672l7.02344.16406m-6.00391-.14062l-.55078-1.09375m12.89062 1.73047l6.9336-1.15625m-6.9336 1.15625l-1.49218-1.94922m14.89843 2.34375l6.75-1.94531m-6.75 1.9453l-1.70703-1.76171m15.89063 3.25l5.01562-4.92187m-4.28515 4.20703l-1.17188-.3711"/><g clip-path="url(#N)"><path fill="none" stroke="#000" stroke-linecap="round" stroke-linejoin="round" stroke-miterlimit="10" stroke-width=".5" d="M142.92578 430.41406l2.14844-6.6914"/></g><path fill="none" stroke="#000" stroke-linecap="round" stroke-linejoin="round" stroke-miterlimit="10" stroke-width=".5" d="M155.6914 430.1836l3.2461-6.23048m-2.77344 5.32422l-1.22656.01172m14.21094.96485l2.96484-6.3711m-2.53516 5.44531l-1.22265.0625m15.86719 1.1797l-.5547-7.00391m.47267 5.98437l-1.03516.66016m13.27734-6.54297l1.7539 6.80078m14.03907-6.52734l-3.20312 6.2539m2.73828-5.34375l1.22656-.01953m8.79688-.53906l4.3125 5.55078m-3.6836-4.74219l.5-1.1211m12.27734.2461l4.12891 5.6875m-3.52734-4.86328l.53906-1.10156m13.21875-.24219l2.04297 6.72266m-1.7461-5.7461l.8672-.86328m11.9453-.04687l2.44922 6.58984m-2.08984-5.6289l.8125-.91797m11.97266.02734l2.79297 6.44922m-2.38672-5.51172l.76562-.95703m12.0664.05469l2.94923 6.3789m-2.52344-5.44922l.74219-.98047m13.46093-.26953l.32032 7.01953m-.27344-6l1.05469-.625m11.14843-.17578l2.45313 6.58203m-2.09766-5.625l.8125-.91796m11.53516.2578l3.67187 5.9922m-3.13671-5.1211l.625-1.0586m11.12109 1.15235l5.73828 4.0586m-4.90234-3.46875l.15625-1.21485m12.4375.47266l5.51172 4.36328m-4.71094-3.72656l.22265-1.20703m12.2422.63672l5.60937 4.23046m-4.79297-3.61718l.19531-1.21094m11.98047 4.3086l6.25781-3.19141m-5.34765 2.72656l-1.00782-.70313m17.5625-.42578l-.01953-.20312-.0586-.1914-.09374-.17579-.45703-.375-.19141-.0586-.20312-.01953-.19922.01954-.19141.05859-.45703.375-.09375.17578-.0586.1914-.01953.20313.01954.19922.05859.1914.09375.17579.45703.375.1914.0586.19923.01952.20312-.01953.1914-.0586.45704-.375.09375-.17577.0586-.1914.01952-.19923m9.91016 2.57813l4.76562-5.16016m7.42188 2.46094l7.02344.23828m-6.00391-.20313l-.53516-1.10156m13.11329 2.57422l6.45703-2.77734m-5.51563 2.375l-.95703-.76563m14.16016 2.34766l4.79687-5.13281m-4.09765 4.3828l-1.1875-.3164m14.8203 1.73047l2.76173-6.46484m-2.35938 5.52343l-1.22265.10547"/><g clip-path="url(#O)"><path fill="none" stroke="#000" stroke-linecap="round" stroke-linejoin="round" stroke-miterlimit="10" stroke-width=".5" d="M146.13672 416.54297l-4.27344-5.57813"/></g><path fill="none" stroke="#000" stroke-linecap="round" stroke-linejoin="round" stroke-miterlimit="10" stroke-width=".5" d="M145.51563 415.73047l-.50782 1.11719m12.70313.39843l-.79297-6.98437m.67969 5.96875l-1.01172.6914m11.63672-.60937l4.8164-5.11719m-4.8164 5.11719l-2.3672-.64844m15.84376.79297l4.49219-5.40625m-3.83985 4.61719l-1.19922-.25m13.32422.48047l5.5664-4.29297m-4.7539 3.66797l-1.11719-.5039m13.0625-2.10157l6.6836 2.17187m-5.71094-1.85546l-.21484-1.20704m12.51953 1.00782l6.75781 1.9375m-5.77344-1.65625l-.2539-1.19922m12.6211.80468l6.6875 2.16016m-6.6875-2.16016l-.4297-2.41406m13.91797 1.97656l6.33594 3.03907m-6.33594-3.03907l-.09765-2.45312m13.76562 1.86719l5.6289 4.20703m-4.80859-3.59375l.1875-1.21094m12.11329.88672l6.01953 3.6289m-5.14453-3.09765l.0664-1.22656m12.875.05078l5.01563 4.92187m-4.28516-4.20703l.34766-1.17578m13.01953-.14062l3.45312 6.12109m-2.94922-5.23047l.66016-1.03125m12.38672.01953l2.98047 6.36719m-2.54688-5.4414l.73828-.98048m10.96875.94922l5.33204 4.57813m-4.5586-3.91406l.26953-1.19532m12.02735.85157l5.8203 3.9375m-4.97265-3.3672l.1289-1.21874m13.92579-.63672l2.64453 6.50781m-2.26172-5.5625l.78907-.9414m11.42187.39062l4.08594 5.71875m-3.49219-4.88672l.54688-1.09765m11.0078 1.69921l6.42188 2.85157m-5.48828-2.4375l-.08594-1.22266m12.3047 3.22266l6.74609-1.98047m-5.76172 1.69531l-.85938-.8789m14.07031 2.65234l4.98438-4.95313m7.32031 2.73047l7.00781-.50781m6.34375.82031l6.9336-1.13281m-5.92578.96484l-.7422-.97656m13.6211 2.57031l5.78907-3.98437m-4.94532 3.40625l-1.08984-.5664m13.1211.2578l6.66796-2.21093m-5.69531 1.89062l-.89063-.84765"/><g clip-path="url(#P)"><path fill="none" stroke="#000" stroke-linecap="round" stroke-linejoin="round" stroke-miterlimit="10" stroke-width=".5" d="M147.3125 401.60938l-6.625-2.34375"/></g><path fill="none" stroke="#000" stroke-linecap="round" stroke-linejoin="round" stroke-miterlimit="10" stroke-width=".5" d="M146.34766 401.26953l.18359 1.21094m13.89063-.39844l-6.21094-3.28515m5.30469 2.80859l.0039 1.22656m10.88672 1.11328l.44922-7.01172m-.38281 5.9922l-1.1172.5039m11.96485-.65625l5.25-4.66797m-5.25 4.66797l-2.30078-.85547m14.89453-.41016l6.6914-2.14062m-5.71874 1.83203l-.8789-.85547m13.05468.05469l7.02734.08203m-7.02734-.08203l-1.125-2.1836m14.44922 1.94532l7.00781.55859m-7.00781-.5586l-.97266-2.2539m14.46485 1.40234l6.65234 2.25782m-5.6836-1.9297l-.19921-1.21093m12.41797 1.36719l6.90625 1.29297m-6.90625-1.29297l-.73438-2.34375m14.58984 1.02734l5.82813 3.92578m-5.82813-3.92578l.25391-2.4414m13.1914 2.2578l5.56641 4.29298m-5.5664-4.29297l.41406-2.41797m12.67578 2.7461l6.01563 3.6328m-5.14063-3.10156l.0664-1.22656m13.30079-.32031l4.16016 5.66406m-3.5547-4.83984l.53516-1.10547m11.75.65234l5.01172 4.92188m-4.28125-4.20703l.34766-1.17579m12.91797-.07812l3.65234 6.0039m-3.1211-5.1328l.625-1.0547m13.10938-.21874l1.7461 6.80859m-1.4922-5.82031l.90626-.82422m9.91797 1.60937l6.22265 3.25782m7.25782-3.54297l5.89062 3.83203m6.89844-2.45703l6.94531 1.08203m12.08594-3.2461l-4.48828 5.40625m13.09765-5.20703l4.92579 5.01172m14.03125-3.9961l-6.36329 2.98048m13.01954-1.0039l6.95703-.97657m-5.94532.83594l-.72265-.9922m13.22656 1.91407l6.55469-2.53515m-5.60156 2.16406l-.92579-.80078m17.58985-.09766l-.02344-.19922-.05469-.1914-.09765-.17579-.45703-.3789-.19141-.05469-.19922-.02344-.19922.02344-.1914.05469-.46094.3789-.09375.17579-.0586.1914-.01953.19922.01953.19922.0586.1914.09375.1797.46094.375.1914.05859.19922.01953.19922-.01953.1914-.0586.45704-.375.09765-.17969.05469-.1914.02344-.19922"/><g clip-path="url(#Q)"><path fill="none" stroke="#000" stroke-linecap="round" stroke-linejoin="round" stroke-miterlimit="10" stroke-width=".5" d="M146.2539 389.82031l-4.5078-5.39062"/></g><path fill="none" stroke="#000" stroke-linecap="round" stroke-linejoin="round" stroke-miterlimit="10" stroke-width=".5" d="M145.59766 389.03516l-.46094 1.13671m13.07422.34766l-1.79297-6.79297m12.07031 6.1836l4.28516-5.57032m8.28125 4.78125l5.78125-3.99609m-4.9414 3.41406l-1.08985-.5625m13.4414.95313l6.02735-3.61328m-6.02735 3.61328l-2.10156-1.26563m15.11719-1.71094l6.625 2.34375m-5.66016-2.0039l-.17969-1.21485m12.57422.75782l6.53907 2.57422m-6.53907-2.57422l-.27734-2.4375m13.625 2.35937l6.47266 2.73438m-5.53125-2.33985l-.10938-1.21875m12.21484 2.45704l7.00782-.53516m-7.00781.53515l-1.3125-2.0703m14.63671 1.4453l6.9922.71485m-6.9922-.71485l-.92578-2.27343m14.48828 1.29687l6.4961 2.67188m-6.4961-2.67188l-.24218-2.4414m13.3203 3.33593l6.97266.87891m-5.96093-.75l-.4336-1.14844m12.83985 2.41797l6.76172-1.91406m-5.77735 1.63281l-.84765-.88281m13.04687.10156l7.02734.20703m-6.0039-.17578l-.54297-1.09765m12.8711.67578l6.95702.98828m-5.9453-.84375l-.41798-1.15235m12.77344.71875l6.85156 1.57032m-5.85547-1.34375l-.3164-1.1836m12.66406.84375l6.79297 1.79688m-5.80469-1.53516l-.28125-1.19531m12.50781 2.17187l6.9922-.68359m-5.97657.58594l-.67578-1.02344m14.01562-1.73047l4.91407 5.02344m8.29687-.10938l5.1211-4.80859m7.98828 4.57031l5.53125-4.33203M420.125 387.5l6.98437-.7539m8.9375 3.77734l1.76954-6.80078m13.3203 6.80078l-1.78124-6.80078m1.52344 5.8125l-.90235.82812m16.90625-2.09375l-6.64062-2.29297m5.67578 1.96094l.1914 1.21094"/><g clip-path="url(#R)"><path fill="none" stroke="#000" stroke-linecap="round" stroke-linejoin="round" stroke-miterlimit="10" stroke-width=".5" d="M146.48047 371.32031l-4.96094 4.97266"/></g><path fill="none" stroke="#000" stroke-linecap="round" stroke-linejoin="round" stroke-miterlimit="10" stroke-width=".5" d="M145.76172 372.04688l1.17187.35546m7.73828-.91015l5.28516 4.63281m-4.51562-3.96094l.28125-1.1914m11.41797 2.41796l6.97656.83594m-5.96094-.71484l-.4414-1.14453m12.73046 1.13672l7 .60937m-5.98047-.51953l-.48047-1.1289m12.85547 2.14452l6.83985-1.60156m-6.83985 1.60156l-1.61718-1.84375m14.83984 1.04297h7.02734m-7.02734 0l-1.15234-2.16796m15.5078-.32813l4.94532 4.99219m-4.22656-4.26563l.36719-1.17187m11.5078 1.48047l6.38673 2.92187m-5.45703-2.4961l-.07422-1.22656m15.09765-1.20703l1.11328 6.9375m9.82813-1.53125l5.85938-3.875m-5.00782 3.3125l-1.07812-.58593m13.34375.80859l6.2539-3.19922m-5.34375 2.73438l-1.0078-.69922m13.36718 1.07422l6.34765-3.01563m-6.34765 3.01563l-1.97266-1.46094m15.09766.97265l6.72656-2.03906m-5.7461 1.74219l-.86718-.8711m13.08203.6211l6.96484-.94922m-5.94921.8125l-.71875-.9961m13.72656-1.49609l5.55078 4.3125m-4.74219-3.68359l.20703-1.21094m12.85157.01953l4.4453 5.4375m-3.80077-4.64843l.47656-1.12891m10.98047 3.79297l6.8711-1.46875m-5.8711 1.2539l-.78906-.9375m13.11328-.36718l6.85156 1.5664m-5.85547-1.33593l-.3164-1.1836m13.75-.90625l4.625 5.28906m-3.95313-4.51953l.4336-1.14843m13.6953 6.4375l1.65235-6.82813m-1.41406 5.83594l-1.1875.30469m13.69922.5l2.78125-6.45313m-2.375 5.51563l-1.22266.09765m13.78906.67188l3.46485-6.11719m-2.96094 5.22656l-1.22266-.03515m14.65625 1.19921l2.22266-6.66406m-1.89844 5.69531l-1.21094.20313m15.84375.90625l-1.0625-6.94531m.90625 5.9336l-.98437.73437m16.65234-.98047l-5.45312-4.42969m5.45312 4.42969l-.47265 2.41015"/><g clip-path="url(#S)"><path fill="none" stroke="#000" stroke-linecap="round" stroke-linejoin="round" stroke-miterlimit="10" stroke-width=".5" d="M146.21484 357.76563l-4.42968 5.45312"/></g><path fill="none" stroke="#000" stroke-linecap="round" stroke-linejoin="round" stroke-miterlimit="10" stroke-width=".5" d="M146.21484 357.76563l2.41016.47265m10.26953-.88281l-3.16016 6.27734m2.70313-5.36328l1.22656-.02734m10.67188-1.25l.58594 7.0039m-.58594-7.0039l2.0625-1.32813m9.3164 2.11719l4.46094 5.42578m-4.46094-5.42578l.94141-2.26953m11.10547 4.67187l7 .6211m-7-.6211l-.95703-2.26171m1.97265 2.35156l-.47656-1.13281m12.76563 1.49609l7.01953-.28906m-7.01953.28906l-1.2422-2.11719m2.26173 2.07422l-.6211-1.0586m12.9297 1.3047l6.99218-.69141m-6.99219.6914l-1.35937-2.04296m14.66015 1.5703l7.02344.25m-6.0039-.21093l-.53516-1.10547m16.92187-2.27344l-1.16015 6.9297m.99218-5.92188l1.16016-.38672m14.67578 4.77734l-5.86719-3.86719m5.01172 3.3047l-.11328 1.22265m13.99219-.27735l-5.28516-4.6289m4.51563 3.95312l-.27735 1.19531m12.16407.65235l-.88672-6.97266m.75781 5.95703l-1.0039.70704m11.6953-.53125l4.6172-5.29688m-3.94532 4.52734l-1.19531-.27734m14.27344 1.3711l3.74609-5.94532m7.92969 2.89844l7.02344.15234m-6-.13281l-.5547-1.09375m14.03907-1.48828l4.64063 5.27734m-3.96485-4.51172l.4336-1.14843m11.51562 1.21093l6.01953 3.6211m6.8086-1.47266l6.99218-.67969m-5.97656.58204l-.67578-1.02344m13.08984 1.73828l6.76172-1.91016m-5.77734 1.63281l-.84766-.88671m17.1211 3.67578l-1.1211-6.9375m.95703 5.92969l-.97656.74218m14.5586.25l-1.32422-6.90234m1.1289 5.89844l-.95312.76953m12.3828-.0039l2.83595-6.4297m-2.42578 5.4961l-1.22266.08984m14.0625.8164l2.96484-6.37109m-2.96484 6.3711l-2.45313.1289m16.80079.16797l.89843-6.96875m-.76953 5.95703l-1.14844.4297m13.3086.28905l2.94922-6.3789"/><g clip-path="url(#T)"><path fill="none" stroke="#000" stroke-linecap="round" stroke-linejoin="round" stroke-miterlimit="10" stroke-width=".5" d="M145.29688 343.91406l-2.59375 6.53125"/></g><path fill="none" stroke="#000" stroke-linecap="round" stroke-linejoin="round" stroke-miterlimit="10" stroke-width=".5" d="M145.29688 343.91406l2.4375-.27344m10.3789.1172l-1.59766 6.84374m1.59766-6.84375l2.3711-.63281m11.96093 1.04688l-3.63281 6.01562m3.63281-6.01563l2.45313.13282m11.57422.4336l-5.0547 4.8789m5.0547-4.8789l2.33203.7578m-3.0664-.04687l1.16405.3789m8.3086-1.5039l4.09765 5.70703m-3.5-4.875l.54297-1.10156m11.21094 4.92969l6.02734-3.61329m-5.15234 3.08985l-1.05078-.63281m14.01953 1.83593l4.96875-4.96875m-4.2461 4.2461l-1.17187-.35938M234 348.6172l6.41016-2.8789m-5.47657 2.46093l-.96875-.75m13.72266-2.34766l5.66797 4.15625m-4.84375-3.55469l.17578-1.21093m18.61719 3.2539l-6.9375-1.13671m5.92578.97265l.39453 1.16016m13.875-.72266l-6.82422-1.6836m5.83203 1.4375l.29688 1.19141M293.22266 345l-5.51563 4.35547m18.28516-4.91016l-4.42188 5.46485m12.03125-2.35157l6.98828-.76171m6.50782 1.54687l6.6289-2.33203m-5.66406 1.99219l-.90625-.83204m13.3164 1.33204l6.50782-2.64844m-5.5625 2.26172l-.9414-.78516m13.05468.0039l7.01953-.3164m-6 .26953l-.6211-1.05469m12.91407 1.03516l7.02344-.1836m-6 .15626l-.60547-1.0664m13.02734 1.95312l6.76563-1.90235m-5.78125 1.625l-.84766-.88672m14.28125 2.88672l4.5586-5.34765m-3.89454 4.5703l-1.19921-.26562m19.27343-.05859l-6.28515-3.14453m14.16015 4.23047l4.59375-5.3164m8.39453 4.99608l5.2461-4.67578m-4.48438 3.9961l-1.14843-.42578m12.8164-1.39454l7.01953.32422m-7.01953-.32421l-1.05469-2.21485m15.5586-.26172l4.63672 5.28125m-4.63672-5.28125l.8711-2.29687"/><g clip-path="url(#U)"><path fill="none" stroke="#000" stroke-linecap="round" stroke-linejoin="round" stroke-miterlimit="10" stroke-width=".5" d="M143.99219 330.34766l.01562 7.02734"/></g><g clip-path="url(#V)"><path fill="none" stroke="#000" stroke-linecap="round" stroke-linejoin="round" stroke-miterlimit="10" stroke-width=".5" d="M143.99219 330.34766l2.16406-1.15235"/></g><path fill="none" stroke="#000" stroke-linecap="round" stroke-linejoin="round" stroke-miterlimit="10" stroke-width=".5" d="M157.17578 330.35156l.27734 7.02344m-.23828-6l1.0586-.6211m13.26562-.28515l-1.82031 6.78906m1.5586-5.80078l1.1953-.27734m14.26563.55078l-5.58594 4.26562m5.58594-4.26562l2.23047 1.02344m11.64063.04687l-6.69922 2.1211m6.69922-2.1211l1.7539 1.71875m11.71094-.3164l-6.9961-.6797m6.9961.6797l.9336 2.26953m10.96093.22265l-4.15625-5.66406m3.55078 4.83984l-.53125 1.10547m8.86328-2.97265l7.01953-.28125m-6 .24218l-.61718-1.0625m13.05859-.05468l6.72656 2.03125m-5.7461-1.73829l-.23827-1.20312m17.01562 5.26953l-2.16015-6.6875m1.84765 5.71485l-.85547.8789m16.13282-1.03515l-5.45703-4.4297m4.66406 3.78516l-.23438 1.20313m13.42578-5.78516l-3.62109 6.02344m13.51953-6.13672l3.21094 6.25m-2.74219-5.33984l.69922-1.00781m10.3125 2.51171l6.8789 1.42188m-6.8789-1.42188l-.6914-2.35156m14.02734 3.8789l6.83594-1.6328m-6.83594 1.6328l-1.6211-1.83984m14.875.53907l6.96094.96484m-6.96094-.96484l-.84375-2.30079m14.14454 2.41016l6.98828.75m-6.98828-.75l-.91407-2.27734m14.42188 1.44922l6.60156 2.40625m-5.64062-2.0547l-.17188-1.21874m13.01563-.03516l5.625 4.21094m-4.8086-3.59766l.1875-1.21093m12.75.10937l4.7461 5.1875m-4.0547-4.4336l.41016-1.15624m12.0625.55078l5.04688 4.89062m-5.04688-4.89062l.6836-2.35938m11.66406 4.39844l6.98047.8125m-5.96484-.69531l-.44532-1.14453m13.4336 3.55078l5.60547-4.23438m-4.78907 3.6172l-1.11328-.51563m18.73047-3.625l-4.63281 5.28125m3.96094-4.51563l1.1914.28125m12.26172-1.4336l-3.5664 6.0547m3.05078-5.17188l1.22265.05078"/><g clip-path="url(#W)"><path fill="none" stroke="#000" stroke-linecap="round" stroke-linejoin="round" stroke-miterlimit="10" stroke-width=".5" d="M142.20313 317.52734l3.59375 6.03907"/></g><path fill="none" stroke="#000" stroke-linecap="round" stroke-linejoin="round" stroke-miterlimit="10" stroke-width=".5" d="M155.42578 317.58594l3.78125 5.92187m-3.23437-5.0586l.60547-1.0703m11.80078 5.86328l4.5039-5.39063m-3.85156 4.60938l-1.19922-.2539m19.40234-2.89454l-6.57812 2.46875m19.92969-.10156l-6.65235-2.26172m6.65235 2.26172l.39453 2.42187m12.90625-2.375l-6.6211-2.35937m6.6211 2.35937l.35547 2.42969m12.90234-2.28125l-6.50781-2.65234m6.50781 2.65234l.25 2.4414m13.3125-3.45702l-7-.6211m5.98047.53125l.47656 1.1289m13.66016-2.55077l-6.60547 2.39843m6.60547-2.39843l1.82031 1.64453m11.42188.9375l-6.46094-2.76563m5.51953 2.36328l.10547 1.22266m10.2539 1.2461l1.33204-6.89844m-1.33203 6.89843l-2.34766.71875m14.17578-1.39062l4.3086-5.55078m-3.6836 4.74219l-1.20703-.20704m12.55078-2.07421l7 .625m-5.98047-.53125l-.48047-1.13282m12.76563 1.20703l7.01953.28907m-6-.2461l-.52735-1.10547m12.89454 1.9375l6.875-1.45703m-5.875 1.24219l-.78516-.9375m13.19531-.65625l6.6875 2.15625m-5.71484-1.84375l-.21485-1.20703m12.97266 3.91797l5.85547-3.88672m-5.0039 3.32031l-1.07813-.58594m13.90234-3.1914l5.13281 4.79687m12.84375-5.21875l-4.1875 5.64453m3.57813-4.82421l1.21094.18359m13.6836.09765l-6.12892 3.4375m5.23829-2.9375l1.03125.66407m11.62109-2.61719l-3.02344 6.34375m2.58203-5.42188l1.22657-.05078m8.45703 4.70704l5.125-4.8086m-4.3789 4.10938l-1.16017-.39454m18.0547 1.72657l-3.52735-6.07813m3.52734 6.07813l-1.29687 2.08594m.78125-2.96875l-.64844 1.04296m15.99219-1.92968l-6.55469-2.53516m6.55469 2.53516l.29297 2.4375m-1.2461-2.8086l.14453 1.21875m13.21875-4.70703l-4.74218 5.1836"/><g clip-path="url(#X)"><path fill="none" stroke="#000" stroke-linecap="round" stroke-linejoin="round" stroke-miterlimit="10" stroke-width=".5" d="M465.9336 317.95703l2.375.60938"/></g><path fill="none" stroke="#000" stroke-linecap="round" stroke-linejoin="round" stroke-miterlimit="10" stroke-width=".5" d="M465.24219 318.71094l1.1875.30469"/><g clip-path="url(#Y)"><path fill="#00f" fill-rule="evenodd" d="M201.82813 480.96484h8.61718v-10.14843h-8.61719v10.14843"/></g><path fill="azure" fill-rule="evenodd" d="M203.66016 472.65234h.83203v2.82032h3.28906v-2.82032h.83203v6.47657h-.83203v-2.91407h-3.28906v2.91407h-.83203v-6.47657"/><path fill="#00f" fill-rule="evenodd" d="M277.28125 476.52344h8.61719V466.3789h-8.61719v10.14453"/><path fill="azure" fill-rule="evenodd" d="M279.11328 468.21094h.83203v2.82422h3.28516v-2.82422h.83594v6.48047h-.83594v-2.91407h-3.28516v2.91407h-.83203v-6.48047"/><path fill="#00f" fill-rule="evenodd" d="M397.11719 467.64844h8.61719V457.5039h-8.6172v10.14453"/><path fill="azure" fill-rule="evenodd" d="M398.94922 459.33594h.83203v2.82422h3.28516v-2.82422h.83593v6.48047h-.83593v-2.91797h-3.28516v2.91797h-.83203v-6.48047"/><path fill="#00f" fill-rule="evenodd" d="M383.80078 436.57813h8.61719v-10.14454h-8.61719v10.14454"/><path fill="azure" fill-rule="evenodd" d="M385.63281 428.26563h.83203v2.82421h3.28907v-2.82421h.83203v6.48046h-.83203v-2.91406h-3.28907v2.91406h-.83203v-6.48046"/><path fill="#ff3030" fill-rule="evenodd" d="M322.35938 432.14063h7.6914v-10.14454h-7.6914v10.14454"/><path fill="azure" fill-rule="evenodd" d="M324.1914 423.82813h.83204v5.73828h3.19531v.74218h-4.02734v-6.48046"/><path fill="#00f" fill-rule="evenodd" d="M228.45703 418.82813h8.6211v-10.14844h-8.6211v10.14844"/><path fill="azure" fill-rule="evenodd" d="M230.28906 410.51172h.83594v2.82422h3.28516v-2.82422h.83203v6.48047h-.83203v-2.91406H231.125v2.91406h-.83594v-6.48047"/><path fill="#00f" fill-rule="evenodd" d="M366.04688 401.07422h8.61718v-10.14844h-8.61719v10.14844"/><path fill="azure" fill-rule="evenodd" d="M367.8789 392.76172h.83594v2.82031H372v-2.82031h.83203v6.47656H372v-2.91406h-3.28516v2.91406h-.83593v-6.47656"/><path fill="#ff3030" fill-rule="evenodd" d="M193.64453 330.0586h7.69531v-10.14454h-7.6953v10.14453"/><path fill="azure" fill-rule="evenodd" d="M195.47656 321.7461h.83594v5.73827h3.1914v.7422h-4.02734v-6.48048"/><path fill="#ffffe0" fill-rule="evenodd" d="M288.48438 369.38672h22.17968v-10.1914h-22.17969v10.1914"/><path fill-rule="evenodd" d="M291.98438 361.02734h.5078v6.29688h-.78515v-4.49219h-1.39062v-.55469l.55859-.0664.2539-.05078.23048-.08985.20312-.14062.17188-.21094.14453-.29688.10546-.39453m4.8125 0l.23047.01954.21875.05468.20704.08985.1953.12109.1836.14844.17188.17578.30468.42187.2422.4922.17968.54687.10937.57812.03907.59375-.03907.58985-.10937.58593-.17969.55469-.24219.5-.30468.42969-.17188.17969-.1836.15234-.1953.125-.20704.08984-.21875.0586-.23046.01953-.23047-.01953-.21875-.0586-.20704-.08984-.1953-.125-.1836-.15235-.17188-.17968-.30468-.42969-.2422-.5-.17968-.55469-.10937-.58594-.03907-.58984h.83204l.02734.5625.08203.5039.1289.44532.16016.3711.1914.30077.21095.22266.22265.13672.22656.04688.22657-.04688.22265-.13672.21094-.22265.1914-.30079.16016-.37109.12891-.44531.07813-.5039.03125-.5625-.03125-.5625-.07813-.5-.1289-.4375-.16016-.36329-.1914-.29297-.21095-.21484-.22265-.13281-.22656-.04297-.22657.04296-.22265.13282-.21094.21484-.1914.29297-.16016.36328-.12891.4375-.08203.5-.02735.5625h-.83203l.03907-.59375.10937-.57812.17969-.54688.24219-.49219.30468-.42187.17188-.17578.1836-.14844.1953-.1211.20704-.08984.21875-.05469.23046-.01953m5.08985 0h.51172v6.29688h-.78906v-4.49219h-1.38672v-.55469l.55859-.0664.2539-.05078.22657-.08985.20312-.14062.17579-.21094.14062-.29688.10547-.39453m2.82422 2.17579H305.5l.01953-.31641.0586-.28516.09765-.2539.14063-.21485.17968-.17187.22657-.1289.26562-.08204.30469-.02734.23828.01953.22656.0625.20313.10156.17969.14063.14843.17187.11328.20703.07032.23438.02343.26562-.01953.26953-.0664.22266-.10938.1914-.15625.17188-.19922.16406-.2461.16406-.63671.39063-.53516.3125-.4375.3164-.34765.32423-.26563.33593-.1875.35156-.125.3711-.07031.39062-.01953.42188h4.21094v-.74219h-3.33204l.08204-.28515.11328-.23438.14844-.20313.1875-.17968.23046-.17188.27735-.17578.71875-.41406.41406-.20703.34766-.23047.28125-.25.21875-.26953.16406-.27735.10937-.28515.06641-.28516.01953-.28125-.04297-.38281-.1211-.34766-.1875-.3086-.25-.26171-.30468-.21094-.34375-.16015-.38281-.09766-.40625-.03516-.4336.03516-.39843.09766-.35547.16406-.30469.23437-.2461.3047-.1875.375-.11718.4453-.03906.51954"/><path fill="#ffffe0" fill-rule="evenodd" d="M366.30469 356.92188h22.1836v-10.19141h-22.1836v10.1914"/><path fill-rule="evenodd" d="M369.80469 348.5625h.51172v6.29297h-.78907v-4.48828h-1.38671v-.55469l.55859-.0664.25-.0547.23047-.08984.20312-.14062.17578-.21094.14063-.29297.10547-.39453m4.8125 0l.23047.01953.21875.05469.20703.08984.19922.1211.18359.14843.17188.17579.30078.41796.24218.4961.1797.54687.11327.57813.03906.58984-.03906.59375-.11328.58594-.17969.55078-.24218.5039-.30079.4297-.17187.17968-.1836.15235-.19921.12109-.20703.09375-.21875.05469-.23047.01953-.22656-.01953-.21875-.0547-.21094-.09374-.19531-.1211-.1836-.15234-.17187-.17969-.30079-.42968-.24218-.50391-.17969-.55078-.11328-.58594-.03906-.59375h.83593l.02735.5625.08203.50781.125.44141.16406.375.1914.30078.21094.22266.22266.13672.22266.04687.22656-.04687.22266-.13672.21093-.22266.19141-.30078.16406-.375.125-.4414.08203-.50782.02735-.5625-.02735-.5586-.08203-.5039-.125-.4336-.16406-.36718-.1914-.29297-.21094-.21094-.22266-.1328-.22656-.04298-.22266.04297-.22265.13281-.21094.21094-.1914.29297-.16407.36719-.125.4336-.08203.5039-.02735.5586h-.83593l.03906-.58985.11328-.57813.17969-.54687.24219-.4961.30078-.41796.17187-.17579.1836-.14843.1953-.1211.21094-.08984.21875-.05469.22657-.01953m5.09375 0h.50781v6.29297h-.78516v-4.48828h-1.39062v-.55469l.5625-.0664.25-.0547.23047-.08984.20312-.14062.17578-.21094.14063-.29297.10547-.39453m2.82422 2.17578h.78515l.01953-.3164.0586-.28907.10156-.25.14063-.21484.17968-.17578.22266-.1289.26562-.07813.3086-.02735.23828.01953.22265.0625.20313.10157.17969.13671.14844.17579.11328.20312.07421.23828.02344.26563-.02344.26562-.0625.22656-.11328.19141-.15234.17188-.20313.16015-.24609.16797-.63281.38672-.53906.3164-.4375.31641-.34766.32422-.26172.33594-.1914.35156-.125.36719-.06641.39453-.02344.41797h4.21094v-.73828h-3.33203l.08594-.28516.11328-.23828.14843-.19922.1875-.17969.23047-.17187.27735-.17578.71875-.41797.41406-.20313.34375-.23437.28125-.25.21875-.26563.16406-.27734.11328-.28516.0625-.28515.01953-.28125-.03906-.38281-.1211-.34766-.1914-.3086-.25-.26171-.30078-.21485-.34766-.15625-.3789-.10156-.40625-.03125-.4336.03125-.39843.09766-.35547.16796-.30469.23438-.25.30469-.1836.375-.11718.44531-.03906.51953"/></g></defs><use xlink:href="#Z"/></svg>