<svg xmlns="http://www.w3.org/2000/svg" role="img" xmlns:xlink="http://www.w3.org/1999/xlink" viewBox="142.70 327.45 326.34 150.34"><defs><clipPath id="a"><path d="M144 357h1v123.32813h-1zm0 0"/></clipPath><clipPath id="b"><path d="M144 311.67188h1V354h-1zm0 0"/></clipPath><clipPath id="c"><path d="M144 311.67188h324v168.65625H144zm0 0"/></clipPath><clipPath id="d"><path d="M467 399h1v81.32813h-1zm0 0"/></clipPath><clipPath id="e"><path d="M467 311.67188h1V392h-1zm0 0"/></clipPath><clipPath><path d="M144 478h4v2.32813h-4zm0 0"/></clipPath><clipPath><path d="M153 478h8v2.32813h-8zm0 0"/></clipPath><clipPath><path d="M166 479h9v1.32813h-9zm0 0"/></clipPath><clipPath><path d="M173 480h2v.32813h-2zm0 0"/></clipPath><clipPath><path d="M180 479h8v1.32813h-8zm0 0"/></clipPath><clipPath><path d="M187 480h2v.32813h-2zm0 0"/></clipPath><clipPath><path d="M193 479h8v1.32813h-8zm0 0"/></clipPath><clipPath><path d="M200 480h2v.32813h-2zm0 0"/></clipPath><clipPath><path d="M206 479h9v1.32813h-9zm0 0"/></clipPath><clipPath><path d="M213 479h3v1.32813h-3zm0 0"/></clipPath><clipPath><path d="M220 479h8v1.32813h-8zm0 0"/></clipPath><clipPath><path d="M227 479h3v1.32813h-3zm0 0"/></clipPath><clipPath><path d="M233 478h8v2.32813h-8zm0 0"/></clipPath><clipPath><path d="M240 478h3v2.32813h-3zm0 0"/></clipPath><clipPath><path d="M246 478h9v2.32813h-9zm0 0"/></clipPath><clipPath><path d="M253 478h3v2.32813h-3zm0 0"/></clipPath><clipPath><path d="M260 479h8v1.32813h-8zm0 0"/></clipPath><clipPath><path d="M266 479h4v1.32813h-4zm0 0"/></clipPath><clipPath><path d="M273 478h8v2.32813h-8zm0 0"/></clipPath><clipPath><path d="M279 479h2v1.32813h-2zm0 0"/></clipPath><clipPath><path d="M286 479h9v1.32813h-9zm0 0"/></clipPath><clipPath><path d="M292 480h2v.32813h-2zm0 0"/></clipPath><clipPath><path d="M300 479h8v1.32813h-8zm0 0"/></clipPath><clipPath><path d="M305 480h2v.32813h-2zm0 0"/></clipPath><clipPath><path d="M313 479h8v1.32813h-8zm0 0"/></clipPath><clipPath><path d="M319 480h2v.32813h-2zm0 0"/></clipPath><clipPath><path d="M326 479h9v1.32813h-9zm0 0"/></clipPath><clipPath><path d="M332 480h2v.32813h-2zm0 0"/></clipPath><clipPath><path d="M340 478h8v2.32813h-8zm0 0"/></clipPath><clipPath><path d="M353 478h8v2.32813h-8zm0 0"/></clipPath><clipPath><path d="M359 480h1v.32813h-1zm0 0"/></clipPath><clipPath><path d="M369 476h3v4.32813h-3zm0 0"/></clipPath><clipPath><path d="M382 476h3v4.32813h-3zm0 0"/></clipPath><clipPath><path d="M393 478h8v2.32813h-8zm0 0"/></clipPath><clipPath><path d="M407 477h7v3.32813h-7zm0 0"/></clipPath><clipPath><path d="M421 477h6v3.32813h-6zm0 0"/></clipPath><clipPath><path d="M434 477h6v3.32813h-6zm0 0"/></clipPath><clipPath><path d="M447 477h6v3.32813h-6zm0 0"/></clipPath><clipPath><path d="M460 477h7v3.32813h-7zm0 0"/></clipPath><clipPath><path d="M144 464h4v6h-4zm0 0"/></clipPath><clipPath><path d="M144 450h3v7h-3zm0 0"/></clipPath><clipPath><path d="M144 436h2v8h-2zm0 0"/></clipPath><clipPath><path d="M144 442h1v2h-1zm0 0"/></clipPath><clipPath><path d="M144 423h2v8h-2zm0 0"/></clipPath><clipPath><path d="M144 411h4v6h-4zm0 0"/></clipPath><clipPath><path d="M144 398h4v5h-4zm0 0"/></clipPath><clipPath><path d="M144 383h1v8h-1zm0 0"/></clipPath><clipPath><path d="M144 389h1v2h-1zm0 0"/></clipPath><clipPath><path d="M144 371h4v5h-4zm0 0"/></clipPath><clipPath><path d="M144 357h3v7h-3zm0 0"/></clipPath><clipPath><path d="M144 345h4v4h-4zm0 0"/></clipPath><clipPath><path d="M144 331h4v5h-4zm0 0"/></clipPath><clipPath><path d="M144 318h4v5h-4zm0 0"/></clipPath><g id="f" clip-path="url(#clip1)"><path fill="#fff" fill-opacity="0" fill-rule="evenodd" d="M-.0039-.0039h1000v1000h-1000zm0 0"/><path fill="#d3d3d3" fill-opacity="0" fill-rule="evenodd" d="M162.14844 355.86328l-.23438.29297.0586.23438.11718.17187.17578.23438.29297.34765.11328.0586.1172-.17188.05859-.23438.17578-.17578.46484-.17578h.69922l.23438.29297.28906.8164.0586.17579.17577.23047.35156.23437.69922.69922.17188.17578.23437.34766.23438.41015.28906.58204.41016.46484.23047.23438.23437.17578.11719.23046.17578.29297.17188 1.16407v.23437l.05859.28906.0586.1172.11718.11718.34766.41015.11718.17188.17578.17578.17579.23438.11718.17187.17188.35156.0586.23438.23437.40625.23437-.0586-.17578.17579-.0586.92968h-.58202l-.23438-.11328-.34766.11328-.11718.1172-.0586.29296-.05859.17578-.11719.17188-.46484.29296-.0586.23438-.05859.11328v.64453l.0586.17188v.41015l.05859.0586v.40625l.0586.40625.11718.17578.0586.0586.23046.64062-.0586.29297v.69921l-.05858.58204v.23437l-.0586.23047-.05469.35156v1.92188l.0547.11719h.42577l-.36719.11718-.02343.35156.89062 1.16797 1.74219.53907 1.33984.35937v.53906l.08985.8086.53515.71484 1.51953.26953.89063-.08594.08984 1.16407.53516.17969 1.16016-.1797 2.05468-.98437 1.16016-.36328 1.8789-.17578 1.69532-.17969-.17969.71875-1.51562.08594-1.25.08984-.8047.26954-1.07421.80859.26953.71875.53516.89844-.17969.625-.26563.80859.26563 1.07813.625.89843.80469.17969 1.25-.17969-.26563.72266.09766.5039.05469.29297v.17188l.05859.29297v.40625l.17578.11719.35156.11718h.40625l.29297-.17578.11328-.11719.0586-.11718.11719-.23047.05859-.17578.35156-.46485.23047-.17578.17578-.0586.17578.0586.0586.17578.11718.98828.0547.46875.05858.17188.1172.23437.17577.0586.81641.0586h.28906l.11719.23437.0586.40625.05859.35156v1.10547l.11719.29297.11718.34765.28906.69922.17579.35156.58203.75391.35156.17578.17188.0586.46875.23437.64062.46484.34766.23438.29297.17578.29296.05469.23047.0625.8164.34765.29298.17579.11328.17187.35156.35156.11719.17578.52344.64063v.28906l.05859.35156v.34766l.0586.35156.05859.28906.11719.0586.17187.0586h.17578l.58203.23437.17578.11719.17578.28906.17579.23437.11328.23438.29297.23047.11718.11718v.41016l.0586.05469.28906.23437.23438.11719.05859.11719.11719.17187.05859.11719.23047.23438.0586.17578.23437.05859.11719.0586-.1172.11327-.05859.1172v.11718l-.11718.29297-.1172.28906v.58203l.17579.11719.11719.0586.0586.11718.11718.11719.11328.0586.17578.34765.0586.35156.05859.40625v.17578l-.0586.17578-.11718.69922v.17188l.11719.17578.29296.29297h.40625l.17578.11719.1172.17187.11718.29297v.23437h-.52734l-.23047-.23437h-.23438l-.17578.0586-.0586.69921.0586.34766.11719.17578.17578.41015.11719.23047.28906.46875.17578.0547h.52344l.23437.05858.75782.64063.05859.29297v.23437l.0586.0586.23046.34765v.35157l-.11719.17187v.29297l.29297.28906.29297.17578.17188.0586.29297.17578.29297.11719.58203.40625.28906.23437.29297.17578.21875.16016.01562.01172.23047.17578.64063.52344.17578.23437.11719.17578.17578.17578.11328.17188v.64062l.11719.17579.46875.11718.58203.11719.23437.0586.23047.11327.29297.1172.11328.05859.58594.35156.28906.17187.17578.0625.17578.0547.17578.05858.69922.35157.28906.17578.23438.05469.28906.17578.23438.11719.64062.40625.29297.11718.17188.0586.23437.05859.41016.0586.23047.05859.23437.11719.0586.17187-.41016.17578.46875.0586.0586.29296.11327.23438.17578.05469.23438.05859.17578.0586.40625.11718.64063.23438.11718.17187.0586.23438v.17578l-.0586.11719-.05859.40625.23438.23437.11718.0586.34766.11718.64062.23047.17578.11719.28907.11719.17578.17578.23437.46484.58203 1.10547.17579.17578.34765.17578.17578.11719.35157.11719 1.04687.52343.23438.0586.46484.11328.29297.0586.46484.17577.75781.58204.23438.23437.34766.46484.17578.17579.28906.23437.8164.69922.29298.17578.28906.28906.29297.17578.29297.28907.6953.64062.17579.17578.29297.23438.28906.23437.46875.28906.64063.58204.34765.23437.23438.29297.34765.34766.35156.46484.9336.99219.34766.40625.11718.17578.23438.0586.11328.11718.64453.17578.23047.11328.23437.0586.29297.17578.23047.11719.9336.69921.40625.40625.23437.17579.40625.17578.23438.11718.8164.34766.34766.23438.23437.11718.29297.28906.23047.1172.75781.35156.35156.17187.23047.0586.29297.11718.23438.0586.8711.17578h.8164l.46875.23046.17187.0586.875.69922.46485.11719.29297.05859.17578.0586.23047.05859.46875.05859.34765.0586.35156.05859.40625.0586h.29297l.17188.05858v.23047l.17578.17579h.29297l.34765.05859.35157.0586.69922.11718h.64062l.46484-.23438.29297-.17578.17188-.11718.41015-.17188.28907-.17578.93359-.46484.46875-.29297.52344-.29297.46484-.17188.46484-.17578 1.05079-.46484.28906-.11719.41016-.11719.28906-.11718.52734-.17579 1.51563-.69921.58203-.34766.28906-.0586.29297-.05859.34766-.11719.875-.23046.35156-.1172h.11328l.23437-.05858.875-.23438.23438-.0586h.8125l.35156-.05859.8164-.11719.17188-.05859.35156-.05469.29297-.05859.23047-.0586.8164-.17577.17579-.0586h.34766l.23437-.0586.46485-.11718.7578-.17188.23438-.05859h.34766l.41015-.11719.28907-.05859 1.28515-.0586h.28907l.41015-.05859.23047-.0586h.17578l.875-.11718h.40625l.41016-.11719h.34765l.35157-.11328.8711-.0586h1.75l1.04687.28907.41015.11719.28906.11719.35157.11718.28906.1172 1.05078.17187.28906.05859h.29297l.29297.0586.17188.05859.41015.0586.17188.05858.11719.0586h.11718l.11719.0586.35156.05859h.11328l.41016.0664 1.92188.39453 1.92578.39454 1.51953.44921 1.69531.71875 2.14453.8047 1.60547-.71876 1.42969-.80469 1.16015-1.07812 1.25-.44922 3.03516-.71875 1.875-.35938 2.14453-1.34765 2.23438-1.2539 2.5-1.25782 1.6953-.44922 1.78517-.17969 1.16015-.26953.625.53906 1.33985-.26953.71484-.98828.98437-1.34375.44532-.17969.80468-.35937 1.875-.53906 1.78516-.44922 1.25-.26953 1.16016-.08985 1.69921-.08984 1.96094-.26953 1.25-.08985h.53906l.625-.08984h.89063l2.14453-.17969 2.41016-.17968 2.58984-.08985 1.69531.17969 1.60938.08984 1.42969.35938 1.16015.71875 1.875.98828 1.16016 1.52734.26562.71485.62891.08984.35547.89844.53515.53906.53516 1.52735 1.07422.35937h.53516l-.8047.53516.08985 1.70703.71485 2.69531.89062.80469.89453.98828.71485 1.25781 1.78515.53906 1.51953-.17968.35547 1.34375 1.60938-.8047.98047-.53905.26953.26953.3164-.21485.21875-.14453.80079.44922.44921-.35937h.35547l.53516-.26954.53906-.71875.53516-.26953.625-.98828 1.16015.44922.83985.3711 1.39453.61718 1.69531-.17969h1.60547l1.78516.08985.17968-1.70703.53516-1.34375.80469.26953.49219.84765.40234.40625-.08985.53907v.35937l.71485.44922.71094-.26953h1.42968l.35938.98828.44531 1.25781.71485 1.34375 1.25.62891 1.6953.6289.71485-.17968.17969-.53906.98047-.08985.44922.35938.08593 1.25781-.26562.6289-.53516.1797v.53906l.71485.98437.26562.53906.98438.98829.80078 1.07812-.26563.35938-.08984.89843-.625 2.33203-.35547 2.06641-.08984 1.79297-.1797.71875-.08983.53906v1.4375l-.98047 1.88281-.35938 1.70704-.53515.89843-.8047 1.16797-.26562.53906 2.05469 1.25391.08594.35938-.35547.53906-.08985-.17969v.8086l.08985 1.4375-.44531.71484-1.07422.09375-.26563.71484.53516.89844.80469.71875 1.16015.8086 1.33985.26952.4453.35938-.35546.44922-1.78906-.08985-1.25-.44921-.71485-.71875-.625-.08985-.17578 3.58985-.1875 1.30859h89.35938V311.69922h-55.26953v49.08203l.76171.125 3.28907.54297 2.02344 2.83594v2.7539l2.35156.33203 2.34765.33204h4.05079l-1.37891 4.16015-2.02344.70703-2.02344.70313-.54296.34375-2.59375 1.61719-.1875.11718-2.02344-2.07812-.73047-2.74219-2.67188-2.07813-1.375-3.5-.0664-.08203-1.95703-2.67187 2.75-1.41797v-49.08203h-118.2422v91.41406l.1172.03125.1328.01172.07423.07422.10547.04687.08984.0586.08594.0586.08984.05858.29688.29688.05859.08984.03125.1172.02734.11718.01563.13672-.03125.11719-.0586.08984-.05859.08594-.04297.10546-.04687.10157-.02735.1211v.14452l.17579.26953.14843.14844.07422.08594.07422.07422.04297.10547.0625.08984.0586.08594.04296.10547.0586.08984.04687.10156.04297.10547.0586.08594.11718.17969.07422.07421.0625.08594.0586.08985.04296.10546.0586.08985.05859.08594.0625.08984.0586.08984.04296.10157.11719.17968.07422.07422.0586.08594.07421.07422.08984.0586.10547.04687h.14844l.13281-.01563.13281.01563.10157-.04688.07422-.07422.04687-.10156-.01562-.13281v-.14844l-.04688-.10547-.02734-.11719-.04688-.10156-.02734-.1211-.04297-.10155-.0625-.08985-.04297-.10156-.04297-.10547-.03125-.11719-.01562-.1328-.01172-.13673.08594-.0586.05859-.08593.1211-.03125.04296.10547.01563.13281v.11719l.0586.10156.05858.08985.08985.05859.14844.14844.05859.08984.04297.10547-.01172.10156.08594.0586.10547.04687.08593.0586.08985.05859.07422.07422-.1172.02734-.10546.04688-.08594.05859-.07422.07422-.05859.08984-.0625.08594-.02734.1211-.04688.10156-.04297.10546-.03125.1172-.01172.1328-.01562.13282v.14844l.02734.11718.04688.10547.04297.10156.05859.08985.07422.07422.08984.05859.07422.07422.08985.0586.05859.08984.04297.10546.04687.10157.11719.03125.13281.01562h.14844l.11719-.03125.10547.04297.04296.10547.04688.10156.02734.1211.03125.11718.02735.1172.03125.12108.02734.1172.10547.04296.10156.04688.13281-.01563.14844.14844.0625.08594.07422.07421.07031.07422.08985.0625.10547.04297.10156.04297.11719.03125.13671.01563.1172-.03125.07421-.07422.02735-.11719-.01172-.13281-.03125-.1211-.02735-.11718.04297-.10547h.11719l.08984.0625.11719.02734h.14844l.13281.01563h.14844l.13281.01562.13281-.01562h.14844l.13281-.01563.13281-.01172.13672.01172.1172-.02734.1328-.01563.19141-.0586-.0586.17579-.01562.13281-.02734.1211-.01563.1328-.0586.08595-.1328.01562-.10547.04688-.10547.04296-.11719.03125-.11719.02735-.26562.03125h-.14844l-.13281.01562-.07422.07422.0586.08594.14843.14844.11719.17969.07422.0703.08984.0625.08985.0586.08593.0586.08985.05859.10156.04297.10547.0625.10547.04297.08593.05859.10547.04688.10156.04296.1797.1172.05859.08983-.04297.10157-.04688.10547.01563.1328.22265.22267.0586.08984.04297.10156.03125.1211.04296.10156.01563.13281.03125.11719.01172.13672.03125.11718.14844.14844.10156.04297.10547.04297.11719.03125.1328.01562.13673.01563h.11718l.1172-.03125.08983-.0586.04297-.10546.04688-.10157.04297-.10546.03125-.1172.01172-.1328v-.14844l-.01172-.13281-.01563-.13282-.03125-.11719-.04297-.10546-.04687-.10547-.04297-.10156-.04297-.10547-.01562-.13282.01562-.1328.02735-.1172.03125-.11718.02734-.1211.04687-.10156.08985-.0586.08594-.0625.07421-.07421.08985-.0586.22265-.22265.0586-.08594.07422-.07422.11718-.17969.0586-.08593v-.14844l-.07422-.07422-.10156-.04688-.10547-.04296-.10156-.04297-.0586-.08985-.04687-.10546-.02735-.1172.08985-.05859.11718-.03125.10157-.04296.17968-.1172.14844-.14843.01172-.13281-.01172-.10547-.08984-.0586-.13281.01563h-.14844l-.13281.01563-.13282-.01563-.1211-.03125-.08593-.0586-.07422-.07421-.0586-.08985-.0625-.08593-.11718-.1797-.0586-.08593.03126-.1211.08594-.05859.12109-.03125.0586-.08593v-.1211l-.03126-.11719-.0586-.08984-.05858-.08594-.04688-.10546-.02734-.1172-.01563-.1328.0586-.08985.07421-.07422.08985-.0586.11719-.17968.07421-.07422.0586-.08594.14844-.14843.12109-.03125.13281-.01563.13281.01563.07422.07422.04297.10546.01563.13282-.03125.11719-.1172.03125-.1328.01171-.14844.14844-.04297.10547-.04688.10156-.02734.1211-.03125.11718v.14844l.03125.11719.04297.10547.0586.08984.07421.07031.07422.07422.11719.03125.1211.02735.11718-.02735.13281-.01562h.11719l.08984.0586.07422.07421.04688.10547.0586.08594.10155.04687.13282.01563.10546.04296.08594.0586-.01172.10547-.07421.07422-.1797.11718-.05859.08985-.08984.0586-.07031.07421-.07422.07422-.0625.08984-.02735.11719-.01562.13281.01563.13281-.01563.13282v.14844l.01563.1328.02734.1172.03125.12109.07422.07422.08984.0586.08594.05858.08984.0586.11719.03125v.08594l-.10156.04687-.08985.0586-.26562.03125-.11719.02734h-.14844l-.10546.04297-.10157.04687-.0586.08985-.0625.23437-.01171.13281-.03125.1211-.01563.13281v.29297l-.01171.13281.01171.13672.01563.13281.13281.01563.13281.01172.1211.03125.08594.05859.07421.07422.04688.10547.04297.10156.01562.13281v.44531l-.01562.13282v.44531l.03125.26563.02734.11718.01563.13281.03125.1172.08594.21093.03125.26563v.14843l-.03125.11719-.02735.11719-.03125.1211-.02734.11718-.03125.11719-.03125.12109-.01172.13281-.01563.13281.08985.0586.11719-.03125.10156.01562.04687.10547-.03125.26563v.4414l-.04297.10547-.04687.10547-.04297.10156-.04297.10547-.0586.08594-.03124.1211-.04297.11718-.03125.11719-.01563.13281.01563.13281.0586.08985.10546.04687.08594.0586.0586.08593-.01173.13672-.03125.11719-.04296.10156v.44531l-.01563.13282v.14844l-.03125.11718-.04297.10547-.02734.11719-.04688.10547-.04297.10156-.03125.1211-.02734.11718-.03125.13281-.03125.1172-.02734.11718-.04297.10547-.03125.11719-.03125.12109-.01172.13281-.01563.13281v.29688l.02735.11719v.14843l.04687.39844.02735.11719.05859.08984.1211.03125h.14843l.13281-.01562.0586.08984v.11719l-.0586.08984-.08984.0586-.10156.04296-.10547.04688-.08985.0586-.08593.05859-.13672.01562-.11719-.03125-.13281-.01562-.10156.04687-.0625.08594-.01172.13672-.01563.13281-.03125.11719-.02734.11719-.01563.1328-.03125.1211v.29688l.01563.13281.03125.11719v.14844l.01172.1328v.14844l-.02735.1172-.04687.10156-.02735.12109-.03125.11719-.05859.08984-.07422.07422-.10156.04297-.10547.04687-.11719.02735-.12109.03125-.10156-.04688.0586-.08594.10546-.04687.02734-.11719.03125-.11719.02735-.12109.03125-.11719v-.14844l.01562-.1328-.03125-.1172-.04297-.10546-.10546.01562-.07422.07422-.10157.04297-.08984.0625-.07422.07422-.04297.10156-.01562.13281-.03125.11719-.02735.1211-.03125.11718-.02734.11719-.03125.1211-.02734.11718-.03125.11719-.04297.10547-.08985.05859h-.08984l-.11719-.03125-.03125-.08594.01563-.13672-.03125-.11718v-.14844l-.01172-.13281v-.14844l-.0625-.23438-.02735-.12109-.04296-.10156-.04688-.10547-.0586-.08594-.05859-.08984-.04296-.10547-.0625-.08594-.14844-.14844-.07031-.07421-.10547-.04688-.10547-.04297-.10156-.04297-.29688-.29687-.08984-.07422-.08594-.0586-.10547-.04296-.08984-.0625-.08594-.0586-.10547-.04297-.08984-.05859-.08594-.0625-.07422-.07031-.10547-.04688-.08594-.0586-.10546-.04296-.08985-.0625-.10156-.04297-.10547-.04297-.08594-.0586-.10547-.04687-.10546-.04296-.10157-.04688-.08984-.0586-.10156-.04296-.10547-.04297-.08985-.0625-.11718-.02735-.13282-.01562-.1328.01563h-.14845l-.1328.01562-.1172-.03125-.08984-.0586-.07422-.07421-.08984-.0586-.10156-.04687h-.14844l-.1211-.02735-.10156-.04296-.07422-.07422-.11719-.17969-.08984-.0586-.10156-.04296-.08985-.0625-.10546-.04297-.08985-.0586-.08594-.05859-.10546-.04687-.0586-.08594-.0586-.08985-.04296-.10546-.04688-.10157-.07421-.07421-.08594-.0586-.07422-.07422-.08984-.0586-.22266-.22265-.04297-.10547-.03125-.26562.10547-.04297h.14453l.10547.04297.07422.07422.08984.0586.08594.05858.10547.04688.08984.0586.14844.14843.07031.07422.14844.14844.0625.08594.07422.07421.08594.0586.07421.07422.08985.0625.08984.05859.08594.0586.26953.17577.10156.04688.10547.04297.10156.04297.04688-.07422.0586-.08594.07421-.07422.07031-.07422.10547.04297.07422.07422.0586.08985.04296.10156.04688.10547.04297.10546.1211.02735.11718-.02735.07422-.08984.04297-.10547.0586-.08984.07421-.07422.10547-.04297.11719-.02734.1328.01172.08985.05859.14844.14844.0586.08984.04296.10547.04688.10156.04297.10547.04296.10156.10547.04688.10547.04297.13281.01562.08594-.0586.0586-.08983.07421-.07422.10547-.04297.1172.02734.10546.04688.10156.04296.10547.04297.10156.04688.1797.11719v.11718l-.01563.13282.01562.1328.01563.13673.05859.08594.10156.04687.1211.02734.11718.03125h.14844l.11719-.03125.0586-.08984.17968-.11719.0586-.08984.07421-.07422.0586-.08594.11718-.17969.1797-.11718.11718.03125.08984.0586.04297.07421-.01562.13281v.11719l.08984.0586h.14844l.13281-.01563.13281-.01172.26563-.03125.10547-.04297.11718-.03125.1211-.02734.07422-.07422.0703-.07422.0625-.08984-.01562-.10547-.04687-.10156-.10156-.04297-.10547-.01563-.11719.02735-.26563.03125h-.14843l-.07422-.07422-.08985-.0586-.11718-.03125-.11719-.02734-.13281-.01563h-.14844l-.13281.01563h-.29688l-.10547-.04688-.14843-.14843-.04297-.10157-.0586-.08984.22266-.22266.08594-.05859.10547-.04297.11718-.03125.13282-.01562.1328.01562.13673.01563.10156.04296.13281-.01171.08985-.0625.10156-.04297.0625-.08985-.04688-.10156-.08984-.0586-.11719-.03124-.10156-.04297-.0586-.08985-.0625-.08984v-.11719l.01563-.1328.10547-.04688.07422-.07032v-.12109l-.08985-.0586-.03125-.11718.08985-.0586.07422-.07421.04297-.10547.05859-.08985.04688-.10156.01562-.13281v-.14844l-.04688-.10547-.04296-.10156-.08985-.0586-.13281-.01562-.10156-.04297-.13672-.01562-.11719-.03125h-.44531l-.13281-.01563-.13282-.01172-.1328-.01562-.1172-.03125h-.14843l-.13282-.01563-.1328-.01171-.26563-.03125-.1211-.04297-.08594-.0586-.07421-.07422v-.14843l.01171-.13282.10547-.04687.10157-.04297.1328-.01563h.15235l.13281-.01562h.29297l.1211.03125.10156.04297.08984.0586.23438.0625.1211-.04688.08984-.0586.10156-.04296.13281-.01563.10547.04297.10156.04687.13281.01172.1211-.02734h.14453l.1211-.03125.11718-.02735.10547-.04687.07422-.07422.08594-.0586.14843-.14843.0586-.08594.04687-.10547.02735-.11718.01562-.10547-.10156-.04297-.08985-.0586-.11718-.03125-.10547-.04296-.08985-.0625-.07421-.08594-.07422-.07422-.10156-.04297-.10547-.04687-.10157-.04297-.05859-.08985-.04688-.10156-.08593-.21094-.0625-.08593-.0586-.08985-.07421-.07422-.08594-.05859h-.26953l-.1172.03125-.08983.0586-.10157.04296-.13281.01563-.10547-.01563-.02734-.11719-.0625-.08984-.11719-.03125-.10156-.04297-.14844-.14844-.03125-.11718-.01563-.10547.07422-.07422.1797-.11719.11718-.02734.11719-.03125.13671.01562.10157.04297.10547.04297.10156.04688.10547.04296.11719.03125.1328.01563.1172.02734.1328.01563.10548-.01563.08984-.05859-.07422-.07422-.10547-.04297-.07422-.07422-.07421-.08984-.14844-.14844-.08594-.0586-.08984-.05858-.07422-.07422-.08985-.0586-.10156-.04687-.1211-.02735-.10156-.04687-.10546-.04297-.1172-.03125-.10155-.04297-.1211-.03125h-.14844l-.11718.03125-.10547.04297-.08594.0625-.17969.11719-.08593.0586-.08985.05858-.10547.04688-.08593.0586-.10547.04296-.10156.04297-.10547.04688-.07422.07421-.0586.08985-.05859.08594-.04688.10546-.05859.08594-.07422.07422-.13281-.01172-.11719-.03125h-.11719l-.07421.07422-.08985.0586-.07422.07421-.08984.0586-.08594.0586-.10547.04687-.10156.04296-.13672.01563-.10156-.04297-.14844-.14844-.10547-.04687h-.08593l-.10547.04687-.10156.04297-.1211.03125-.11719-.03125-.07421-.07422v-.11718l.03125-.1211.07421-.07031.0586-.08984.07422-.07422.11718-.03125.10547-.04297h.29297l.13281-.01563.13672-.01562.10156-.04297.08985-.0586.10156-.04687.08985-.0586.1328-.01171.08985.0586.13281.01171.08985-.0586.08594-.05859.10546-.04296.08985-.0586.08594-.0625.08984-.0586.14844-.14843.05859-.08594.0586-.08984.10546-.04297.13281-.01563.1172.02735.12109.03125.05859-.0586.0586-.08984.03124-.26562.02735-.1172.10547.01173.1328.01562.10157-.04297.08985-.05859.05859-.08984.07422-.07422.0586-.08985.04687-.10156.01171-.13281-.01171-.13281-.04688-.10547-.14844-.14844-.05859-.08984-.0586-.08594-.04296-.10547v-.44531l.01562-.13281v-.14844l.01172-.13281-.0586-.0586-.08984.0586-.10156-.04297-.17969-.1172-.08593-.05858-.0625-.08985-.0586-.08984-.07422-.07422-.08593-.0586-.1211.03125-.10156.01172-.10547.04688-.08594.0586-.10546.04296-.14844.14844-.08985.0586-.08593.05859-.08985.0625-.10547.04296-.1328.01563v-.1211l.10546-.04296.11719-.03125.07422-.07031.04296-.10547v-.14844l-.02734-.11719-.14844-.14844-.1328-.01562h-.14845l-.11718.03125-.10547.04297-.10156.04297-.08985.0625-.11719.02734-.07421-.07422.01171-.13281-.04296-.10156-.04297-.10547-.08985-.0586-.11719.02735-.12109.03125-.11719.03125-.10156.04297-.1211.03125-.10156.04296-.10546.04297-.08985.0586-.10156.01562v-.11719l.01563-.1328-.0586-.08985-.07422.04297-.14844.14844-.05859.08984-.07422.07422-.04687.10547-.04297.10156-.07422.07422-.0586.08984-.07421.07422-.0586.08594-.07421.07422-.08985.0625-.07422.0703-.07422.07423-.10156.01562-.13281.01563-.10547-.04297v-.1211l.14844-.14843.04297-.10156.05859-.08985.04688-.10156.04296-.10547.0586-.08984.03125-.1172.04297-.10155.03125-.1211.02734-.11719.04688-.10546.04296-.10157.04297-.10546.07422-.07032.08985-.0625.08984-.0586.10156-.04296h.29688l.26562-.03125.10547-.04297-.07422-.07422-.11719-.03125-.10546-.04297-.08985-.05859-.10156-.04688-.08985-.05859-.10156-.04297-.10547-.04297-.08984-.0625-.08594-.05859-.10547-.04297-.10156-.04297-.1211-.03125-.11718-.03125-.10156-.04297-.1211-.03125-.10156-.04296-.08984-.0586-.04297-.10547-.01563-.13281.10157-.04297.1328-.01562.13673.01562.13281-.01562.10156-.04297.0586-.08985.01562-.10546-.08984-.0586-.07422-.07422-.10156-.04297-.08985-.05859-.14844-.14844-.04296-.10547-.01563-.1328v-.29298l-.0586-.08984-.08984-.0586-.07421-.07421-.04297-.10547-.03125-.11719-.0586-.08984-.07422-.07422-.11718-.02735-.07422-.07421-.08985-.0586-.08984-.0625-.08594-.0586-.07422-.07421-.05859-.08594-.04688-.10547-.08593-.0586-.14844-.14843-.19531-.0586-.13281.01563-.10157.04297-.07422.07422-.04687.10156-.04297.10547-.0586.08985-.05859.08593-.29687.29688-.08985.0586h-.08593l-.0625-.08595-.04297-.10546.03125-.1172.0586-.08984.02733-.11718-.01171-.13282-.08985-.0625-.10547.04688-.11718.02734-.1172.03125-.26952.17578-.10156.04688-.1172.02734-.10546.04688-.08985.0586-.10156.04296-.0586-.08594-.04687-.10547.01563-.1328.04687-.10548.07032-.07422.07421-.0703.0586-.08985v-.14844l-.04297-.10547h-.23828l-.10156.04688-.03125.11718-.02735.1172-.03125.12108-.07422.04297-.1328.01563-.07423-.04688-.04297-.10156-.04296-.10547-.04688-.10156-.04297-.10547-.1211.03125-.10156.04297-.1328.01563-.1172.03125-.10546.04296-.08985.0586-.10156.04687-.1211.02735-.1328.01562-.10157-.04297-.0586-.08984-.04687-.10547-.04297-.10156-.04296-.10547v-.11719l.05859-.08984.08594-.0586.17968-.11718.10157-.04688.10546-.04297.10547-.0586.10157-.04296.08984-.0625.10156-.04297.10547-.0586.10156-.04687.08985-.0586.10547-.04296.10156-.04297.08984-.0625.10156-.04297.13672-.01562.1172.03125.10155.04297.1211.03125.10156.04296.10547.04688.10156.04297.10547.04297.10156.04687.10547.04297.10156.04297.10547.04688.08594.05859.10547.04297.11719.03125.10546.04297.10157.04687.08984.0586.10547.04296.10156.04297.10547.04688.11719.02734.10156.04688.1211.02734h.14843l.08594-.0586.01563-.10156.05859-.08984-.02735-.11719-.07421-.07422-.1172-.17968-.07421-.07422-.08984-.07422-.1797-.11719-.08593-.0586-.10547-.04296-.10156-.04688-.26953-.17578-.0586-.08984-.07421-.07422-.0586-.08984-.04297-.10157-.03125-.11718-.01562-.13672v-.5625l-.01172-.13281-.01563-.13282-.03125-.11719-.01562-.1328-.01172-.13282-.03125-.1211-.22265-.22265-.0586-.08594-.01562-.10547.03125-.11718.1328-.01563v-91.41406H172.98829v1.45312l-.0586.23438-.35155 1.05078-.17188.52344-.11719.34765-.17578.41016-.11719.17188-.23437.29296-.23047.0586h-.35156l-.11719.0586-.23047.40624V317l.11719.17578.23047.23047.11719.23438.64062.7578.29297.46485.17578.23438.23047.35156.23437.34765.64063.81641.17578.46485.17188.41015.11718.69531.17578.46875.1172 1.39844.05858.46485v.875l.1172 1.04687v4.78125l-.0586.46484-.35156 1.28125-.17578.52344-.11329.41016-.35156.92969-.46484 1.16796-.23438.58204-.11719.17578-.17187.34765-.17578.40625-.35156.8164-.0586.29298-.11328.29297-.11719.28906-.05859.17578-.11719.875-.0586.40625-.05858.11719-.0586.17578-.0586.17187-.23046.52735-.11719.17187v.23438l-.11719.23437-.05859.17188-.17578.58594v.28906l-.0586.17578v.29297l-.05859.11328-.0586.52734v.17188l-.05468.23437v2.6211l-.17578.8164-.11719.17578-.17578.23438-.11719.17187-.11328.23438-.58594.9336-.23047.28906-.29296.46484-.17578.23437-.28907.35157-.35156.69921-.11328.23047-.17578.41016-.17578.23047-.40625.52734-.81641.69922-.29297.17188-.28906.23437-.17578.11719-.17578.17578-.52344.40625-.52734.17578-.17188.17578-.23438.05469-.64062.17578h-.75781m12.21094 31.02344l-1.07422.44922.35937.89453 1.25-.71485.44531-.53906-.98047-.08984"/><path fill="#d3d3d3" fill-opacity="0" fill-rule="evenodd" d="M201.5039 416.59375h-.89452l.44921.6289.98047.35938.80469-.08984.44531-.98828-.17578.08984-.71484-.35547-.89453.35547M356.125 475.66406l-.0586-.52344v-.29296l.11329-.29297.0586-.23047.46874-.46875h.11328l.11719-.11328.11719-.0586h.17578l.23437-.05859h.34766l.23438.0586.11718.05859.23047.17187.0586.17578.11718.58204v.29296l-.11719.17579-.17187.28906-.17578.17578-.52735.52344-.23046.23437-.1172.0586h-.17577l-.11719-.0586-.40625-.29297-.17578-.11719-.11719-.05859-.0586-.11328-.05468-.11719m6.64063-10.95703l-.0586-.17187v-1.10938l.0586-.17187.17578-.0586.17187-.0586h.17578l.23438-.05858.11719.05859.05859.69922-.0586.17187-.11718.17578-.11719.0586-.23438.52344-.11328.05859h-.23437l-.0586-.11719m9.61329-14.39062l-.1172-.17579v-.69921l.29298-.875.11719-.17188.17578-.35156.11328-.23047.11719-.29297.35156-.75781.11719-.23047.17187-.23438h.17578l.11719-.05859h.64062l.1172.0586.23437.23437.17187.11328.35156.29297.1172.11719.11327.17578v.11328l.11719.0586.11719.11718v.69922l-.0586.17578v.23047l-.05859.17578-.34766 1.05078-.11718.23047-.1172.23438-.11718.05859-.23047.23438-.64062.28906h-.875l-.41016-.11719-.64062-.46484"/><g clip-path="url(#a)"><path fill="#fff" fill-opacity="0" fill-rule="evenodd" d="M143.9961 475.88672v4.4375H144h-.0039V357.25v118.63672"/></g><g clip-path="url(#b)"><path fill="#fff" fill-opacity="0" fill-rule="evenodd" d="M143.9961 351.61328v1.96875-41.91406H144h-.0039v39.94531"/></g><path fill="#50fcfc" fill-rule="evenodd" d="M143.9961 353.58203V357.25l.0039-.0039v-3.65626l-.0039-.0078"/><g clip-path="url(#c)"><path fill="#fff" fill-opacity="0" fill-rule="evenodd" d="M144 480.32422V357.24609l1.20313-1.1953L144 353.58983v-41.92187h13.3125v72.74219l-3.10938 2.71093-1.33203.28907-4.4375.21875-3.875 3.92968-.45312 4.4375.53125 4.4375 3.79687 3.85157 4.4375.28906.4922.29687-.4922 1.15625-2.6953 3.28516.8789 4.4375 1.8164 1.59375 4.44141 1.32422 4.4375-.72656 1.30469 2.24609.76172 4.4375 2.37109 2.29297 4.4375-2.15235.17188-.14062 4.26562-1.73047 4.4414-.14062 4.4375-.40625 4.4375-1.04688 1.95704-1.11328 2.48047-.27734 4.4414.27343.0039.00391 4.4336 3.67969 1.29297.75781 3.14453 3.13281 4.4375.78906 4.4414-.2578 4.4375.67968.39063.09766 4.04688 2.97656 4.4375-.92578 1.69531-2.05078-1.69531-.91797-4.39063-3.52344-.04687-.08594-.58984-4.35156.20312-4.4375-.86719-4.4375-3.1836-3.25-2.53905-1.1914-1.89844-1.48438-2.10547-2.95313-2.33594-2.36328-4.4375.05469-2.3086 2.3086.59376 4.4375-2.72266.65234-4.4375-.19531-.77734-.45704-.83594-4.4375-2.82812-3.83593-.77344-.60157-3.66406-2.52343-.85157-1.91407-3.58593-3.57421-3.94532 3.57421-.49218.83204-4.44141 1.6328-3.60547 1.97266-.83203.19532-.21484-.19532-4.22266-3.70312-1.16016-.73438-1.60156-4.4375-1.67578-1.59375-4.4375-1.11718v-72.7422h17.75v32.64454l-2.88281 2.86328-.03125 4.4375 2.91406 2.5039 2.51953-2.5039.98047-4.4375-3.5-2.86328v-32.64453h22.19531v59.71094l-4.4414.67187-1.27735 1.7539-3.16015 3.21094-1.22657 1.22657 1.22657 1.22656 4.4375-.48828 2.09765 3.69922-1.375 4.4414 3.71875 3.57813 2.13281.85937 2.3047 2.55079 4.1875-2.55079.25-.10156 3.23437-4.33594-3.23438-3.28515-1.63672-1.15625.0547-4.4375-2.85548-2.89063-2.01953-1.54687-2.41797-2.42578v-59.71094h35.5039v92.89844l-.3203.30468.3203.28907.31642-.28907-.31641-.30468v-92.89844h53.26172V419.9375l-4.4375 2.66406-.02344.02344.02344.02344 4.4375 2.6914 3.96094-2.71484-3.96094-2.6875V311.66797h22.1914v80.95312l-3.69921 3.375-.44532 4.4375-.29297.55079-2.64062 3.88671 2.64062 4.41016 4.4375-1.78516.71094 1.81641-.71094.16406-4.4375.05469-.62109 4.21875.6211.44531 4.4375 3.57031 4.4375-1.0078 3.01562-3.00782.21875-4.4375 1.20703-.98828 3.0039-3.45313-3.0039-3.07421-3.96875 3.07421-.47266.59766-1.60546-.59766.14062-4.4375.66016-4.4375-3.63282-3.375v-80.95312h17.75391v80.86328l-3.34766 3.46484 3.34766 3.56641 4.4375-1.40234 1.58594 2.27343 1.02734 4.4375 1.82422 3.00391 1.41797 1.4375-1.41797.53906-4.4375 3.46094-.42578.4375-3.58203 4.4375 4.00781 3.44531 4.4375-.33203 4.36328-3.11328.07813-1.3086v9.19532l-.19922.99219.19922.1914 2.55078-.1914-2.55078-.9922v-9.1953l.21875-3.12891 4.21875-1.27734 4.4375.36328 4.4375.22656v18.6211l-3.41407 4.2578-1.02343 1.53516-2.88282 2.90235-1.55468 3.5625-.8711.875.8711.96093 4.4375 1.34375 3.96484-2.30468-1.10547-4.4375 1.57813-1.0586 4.4414.16016 4.4375-.375 4.4375-.59766.52344 1.8711.92969 4.4375 2.98437 3.68359 4.4375-1.57031v6.23047l-.67969.53515.6797.5625.59374-.5625-.59375-.53515v-6.23047l2.10547-2.11328-2.10547-2.23047-.5-2.20703.5-2.58985 2.36719-1.84765-2.36719-1.73829-4.4375-.96484-4.4375-.01953-4.4375-.28906-4.4375-.4375-4.4414-.8086V413.0625l4.4414-1.76563 1.94922-1.98437 1.64844-4.4414-3.59766-3.47266-2.01172-.96485-2.42968-4.3789-.04297-.0586-4.39453-2.48828-4.4375-.63281-3.4375 3.1211-1 .61718-.82032-.61719-3.62109-3.16015-4.4375 1.0586-4.4375-1.36329v-80.86328h13.3164v75.24219l-.67577.21093.67578.41016.20703-.41016-.20703-.21093v-75.2422h22.1914V383.75l-3.51172 3.3711-.92578 4.35937-.0664.07812.0664.08204.13672-.08204 4.30078-.55078 4.4375-2.53125 1.32813-1.35547-1.32813-1.28515-4.4375-2.08594v-72.08203h71.01172V445.9453l-4.4375 2.46094-.88281.85156-.64063 4.4375 1.52344 1.36719 4.4375 2.48828 4.4375-2.63672 1.16797-1.21875 1.1875-4.4375-2.35547-2.35547-4.4375-.95703V311.66797h17.7539v71.67969l-1.95312 3.77343-.66015 4.4375-1.82422 2.04688-1.1914 2.39062 1.16405 4.4375.02735.03516 4.4375 4.29688v45.79296l-1.94531 3.13672 1.9453 1.67969 1.6797-1.67969-1.6797-3.13672v-45.79296l4.01173.10546.09765 4.44141.32813.28516.71875-.28516-.6875-4.4414-.03125-.02735-1.24219-4.41016-.02344-4.4375-1.89844-4.4375-.04687-4.4375-1.22656-3.77343v-71.6797h8.8789v63.88282l-3.04296 2.6914-.13282 4.4375 3.17578 2.91407 2.89063-2.91406-.19922-4.4375-2.6914-2.6914v-63.88282h8.87109v80.15625l-4.4336 1.1211-2.97656 3.05077 2.97656 2.98047 4.4336.19922v81.14844H144"/></g><path fill="#50fcfc" fill-rule="evenodd" d="M145.20313 356.05078L144 357.2461v-3.65625l1.20313 2.46094m-.56641 44.38281l-.53125-4.4375.45312-4.4375 3.875-3.92968 4.4375-.21875v.76953l-4.4375.30469-3.03125 3.07421-1.1289 4.4375 1.32031 4.4375 2.83984 2.88282 4.4375.21875 2.20703 1.33593-1.7578 4.44141 3.99218 4.39453 4.4375-1.09765 4.4375-.44141 4.08594-2.85547.35156-.82422 1.1289-3.61719 1.77735-4.4375-2.90625-1.82812-2.89063-2.60938-1.54687-1.35937-4.4375-2.89453-4.4375 1.36719-.34375-1.55079-4.09766-3.3789v-.76953l1.33203-.28907 3.10938-2.71093 4.4375 1.11718 1.67578 1.59375 1.60156 4.4375 1.16016.73438 4.22266 3.70312.21484.19532.83203-.19532 3.60547-1.97265 4.4414-1.63281.4922-.83204 3.9453-3.57421v1.29296l-2.51562 2.28125-1.92187 3.2422-1.92188 1.1953 1.92188 2.13282v4.28515l-4.44141.39063-1.13672 2.0664-.58984 4.44141-2.71094 4.03906-1.16016.39844 1.16016.20313v2.3203l-4.4375 1.8672-.02734.04687.02734.125 4.4375 1.90234 3.67578-2.02734-3.67578-1.91406v-2.32031l4.4375 1.09765 2.44922-1.30078 1.99219-1.5039 2.76172-2.9336.8164-4.4414-3.57812-2.45704v-4.28515l1.96093 2.30468 2.47657 1.95313 4.15625 2.48437-2.42188 4.44141-1.73437 1.85938-2.5 2.57812 2.5 3.17578 4.4375.03516 4.4375-.02735 4.4414.44141 1.47266.8125 2.96484 2.46484 3.375 1.97266 1.0625 1.0586 4.4375 2.07812 4.4414-1.38281 4.4375-.72657L220.5 422.625l.72266-4.4375.67968-4.4375-2.1289-4.4375-.32422-.33203-4.4375-3.20313-4.4414-.44921-3.65235 3.98437-.78516.5039-2.50781-.5039-1.92969-.6836-4.4375-2.62109-1.9375-1.13672-2.11719-4.4375-.38671-.52343-1.35938.52343-3.07812 3.82032-1.53516-3.82032 1.32813-4.4375-1.94532-4.4375-2.28515-2.28125v-1.29296l3.58593 3.57421.85157 1.91407 3.66406 2.52343.77344.60157 2.82812 3.83593.83594 4.4375.77734.45704 4.4375.1953 2.72266-.65234-.59375-4.4375 2.3086-2.30859 4.4375-.05469 2.33593 2.36328 2.10547 2.95313 1.89844 1.48437 2.53906 1.19141 3.1836 3.25.86718 4.4375-.20313 4.4375.58985 4.35156.04687.08594 4.39063 3.52344 1.69531.91797-1.69531 2.05078-4.4375.92578-4.04688-2.97656-.39062-.09766-4.4375-.67969-4.4414.25781-4.4375-.78906-3.14454-3.13281-1.29297-.75781-4.4336-3.67969-.0039-.0039-4.4414-.27344-2.48047.27734-1.95703 1.11328-4.4375 1.04688-4.4375.40625-4.44141.14062-4.26563 1.73047-.17187.14063-4.4375 2.15234-2.3711-2.29297-.76171-4.4375-1.30469-2.2461-4.4375.72657-4.4414-1.32422-1.81641-1.59375-.8789-4.4375 2.6953-3.28516.4922-1.15625-.4922-.29687-4.4375-.28906-3.79687-3.85157"/><path fill="#00e8fc" fill-rule="evenodd" d="M145.59375 400.4336l-1.32031-4.4375 1.1289-4.4375 3.03125-3.07423 4.4375-.30468v1.28515l-4.4375.44532-1.625 1.64843-2.2578 4.4375 2.64062 4.4375 1.24218 1.26172 4.4375.10547 2.91016-1.36719 1.32422-4.4375-1.6914-4.4375-2.54298-2.09375v-1.28515l4.09766 3.3789.34375 1.55079 4.4375-1.3672v2.72266l-2.16406 1.53125-1.5625 4.4375-.23438 4.4375-.47656 4.32032-.02344.12109.02344.02344 4.4375.05469.52734-.07813 3.91016-.78125 2.45313-3.66016.48437-4.4375-2.9375-2.7539-2.38281-1.6836-2.05469-1.53125v-2.72265l4.4375 2.89453 1.54688 1.35937 2.89062 2.60938 2.90625 1.82812-1.77734 4.4375-1.12891 3.6172-.35156.82421-4.08594 2.85547-4.4375.4414-4.4375 1.09766-3.99219-4.39453 1.75781-4.4414-2.20703-1.33594-4.4375-.21875-2.83984-2.88282"/><path fill="#00d4fc" fill-rule="evenodd" d="M147.1914 400.4336l-2.64062-4.4375 2.25781-4.4375 1.625-1.64844 4.4375-.44532v1.28125l-4.4375.58985-.21875.22265-3.38672 4.4375 3.60547 4.36329 4.4375-.00782 3.89063-4.35547-2.90234-4.4375-.98829-.8125v-1.28125l2.54297 2.09375 1.6914 4.4375-1.32421 4.4375-2.91016 1.3672-4.4375-.10548-1.24218-1.26172"/><path fill="#00c4fc" fill-rule="evenodd" d="M148.4336 400.35938l-3.60548-4.36329 3.38672-4.4375.21875-.22265 4.4375-.58985v.96485l-4.4375.13672-3.33203 4.14843 3.33203 4.03125 4.4375-.0625 3.54688-3.96875-3.54688-4.28515v-.96485l.98828.8125 2.90235 4.4375-3.89063 4.35547-4.4375.00781"/><path fill="#00b8fc" fill-rule="evenodd" d="M148.4336 400.02734l-3.33204-4.03125 3.33203-4.14843 4.4375-.13672v.41406l-4.4375.07031-3.05468 3.80078 3.05468 3.69532 4.4375-.10938 3.20313-3.58594-3.20313-3.87109v-.41406l3.54688 4.28515-3.54688 3.96875-4.4375.0625"/><path fill="#00a8fc" fill-rule="evenodd" d="M148.4336 399.6914l-3.0547-3.6953 3.0547-3.80079v.34375l-2.77735 3.45703 2.77734 3.35938 4.4375-.16016 2.85938-3.19922-2.85938-3.45312-4.4375-.0039v-.34376l4.4375-.07031 3.20313 3.8711-3.20313 3.58593-4.4375.10938"/><path fill="#009800" fill-rule="evenodd" d="M148.4336 399.35547l-2.77735-3.35938 2.77734-3.45703v.34375l-2.5 3.11328 2.5 3.02344 4.4375-.21094 2.51563-2.8125-2.51563-3.03906-4.4375-.07422v-.34375l4.4375.0039 2.85938 3.45313-2.85938 3.19922-4.4375.16016"/><path fill="#00ac00" fill-rule="evenodd" d="M148.4336 399.01953l-2.5-3.02344 2.5-3.11328v.34375l-2.22266 2.76953 2.22265 2.69141 4.4375-.26172 2.17188-2.42969-2.17188-2.62109-4.4375-.14844v-.34375l4.4375.07422 2.51563 3.03906-2.51563 2.8125-4.4375.21094"/><path fill="#00c800" fill-rule="evenodd" d="M148.4336 398.6875l-2.22266-2.6914 2.22265-2.76954v.6914l-1.66797 2.07813 1.66797 2.01954 4.4375-.36329 1.48047-1.65625-1.48047-1.78906-4.4375-.28906v-.6914l4.4375.14843 2.17188 2.6211-2.17188 2.42968-4.4375.26172"/><path fill="#10cc00" fill-rule="evenodd" d="M148.4336 398.01563l-1.66798-2.01954 1.66797-2.07812v.6875l-1.11718 1.39062 1.11718 1.35157 4.4375-.46485.79297-.88672-.79297-.95703-4.4375-.4336v-.6875l4.4375.28907 1.48047 1.78906-1.48047 1.65625-4.4375.36329"/><path fill="#24d000" fill-rule="evenodd" d="M148.4336 397.34766l-1.1172-1.35157 1.1172-1.39062v.6875l-.5625.70312.5625.6797 4.4375-.56642.10546-.11328-.10547-.125-4.4375-.57812v-.6875l4.4375.4336.79297.95702-.79297.88672-4.4375.46485"/><path fill="#3cd800" fill-rule="evenodd" d="M148.4336 396.67578l-.5625-.67969.5625-.70312v.6914l-.00782.01172.00781.01172.08985-.01172-.08985-.01171v-.69141l4.4375.57812.10547.125-.10547.11329-4.4375.5664"/><path fill="#54dc00" fill-rule="evenodd" d="M148.4336 396.00781l-.00782-.01172.00781-.01171.08985.01171-.08985.01172"/><path fill="#00d4fc" fill-rule="evenodd" d="M157.3125 409.33594l-.02344-.02344.02344-.1211.47656-4.3203.23438-4.4375 1.5625-4.4375 2.16406-1.53126v2.73829l-2.00781 3.23046.21094 4.4375 1.79687 2.03907 3.75781-2.03907.67969-3.08593.17969-1.35157-.17969-.16796-4.4375-3.0625v-2.73829l2.05469 1.53125 2.38281 1.6836 2.9375 2.7539-.48438 4.4375-2.45312 3.66016-3.91016.78125-.52734.07813-4.4375-.0547"/><path fill="#00c4fc" fill-rule="evenodd" d="M159.95313 404.8711l-.21094-4.4375 2.00781-3.23048v2.76172l-.29297.46875.29297 2.20704.6836-2.20704-.6836-.46875v-2.76171l4.4375 3.0625.17969.16796-.17969 1.35157-.67969 3.08593-3.75781 2.03907-1.79688-2.03907"/><path fill="#00b8fc" fill-rule="evenodd" d="M161.75 402.64063l-.29297-2.20704.29297-.46875.6836.46875-.6836 2.20704"/><path fill="#00e8fc" fill-rule="evenodd" d="M166.1875 418.3125l-.02734-.125.02734-.04688 4.4375-1.86718 3.67578 1.91406-3.67578 2.02734-4.4375-1.90234"/><path fill="#fff" fill-opacity="0" fill-rule="evenodd" d="M170.625 413.35156l-1.16016.39844 1.16016.20313 4.4375 1.09765 2.44922-1.30078 1.99219-1.5039 2.76172-2.9336.8164-4.4414-3.57812-2.45704-4.44141.39063-1.13672 2.0664-.58984 4.44141-2.71094 4.03906"/><path fill="#50fcfc" fill-rule="evenodd" d="M175.0625 354.11719l-2.91406-2.5039.03125-4.4375 2.88281-2.86329v2.36328l-.5.5.5 2.28516.60938-2.28516-.60938-.5v-2.36328l3.5 2.86328-.98047 4.4375-2.51953 2.5039"/><path fill="#00e8fc" fill-rule="evenodd" d="M175.0625 349.46094l-.5-2.28516.5-.5.60938.5-.60938 2.28516m4.4414 48.66797l-1.92187-2.13282 1.92188-1.1953 1.92187-3.2422 2.51563-2.28125v2.16016l-.13282.1211-2.07812 4.4375 2.21094 2.39843 1.73828-2.39844-1.61719-4.4375-.1211-.12109v-2.16016l2.28516 2.28125 1.94531 4.4375-1.32812 4.4375 1.53516 3.82032 3.07812-3.82032 1.35938-.52343v3.8789l-1.03125 1.08203-2.60157 4.44141-.80468 2.78125-1.48438 1.65625 1.48438.58594 4.4375.96875 4.4414.71484 3.91406 2.16797.52344.4336 4.4375 2.15624 1.47656 1.84766 2.96094 1.82422 3.35547-1.82422 1.08594-.57813 3.8164-3.85937.57813-4.4375-2.61328-4.4375-1.78125-1.35938-3.34766 1.35938-1.09375.22656-4.4375 3.23828-4.4375-.20703-1.39062-3.25781-3.04688-2.16797-3.875-2.27344-.5664-1.08203v-3.8789l.38672.52343 2.11718 4.4375 1.9375 1.13672 4.4375 2.6211 1.92969.68359 2.50781.5039.78516-.5039 3.65234-3.98438 4.4414.44922 4.4375 3.20313.32423.33203 2.1289 4.4375-.67968 4.4375-.72266 4.4375-1.05078 1.02734-4.4375.72657-4.4414 1.3828-4.4375-2.07812-1.0625-1.05859-3.375-1.97266-2.96485-2.46484-1.47266-.8125-4.4414-.4414-4.4375.02734-4.4375-.03516-2.5-3.17578 2.5-2.57813 1.73437-1.85937 2.42188-4.4414-4.15625-2.48438-2.47657-1.95313-1.96093-2.30468"/><path fill="#00d4fc" fill-rule="evenodd" d="M183.9414 398.39453l-2.21093-2.39844 2.07812-4.4375.13282-.12109.12109.1211 1.61719 4.4375-1.73828 2.39843m4.4375 15.9414l-1.48438-.58593 1.48438-1.65625.80468-2.78125 2.60157-4.4414 1.03125-1.08204v3.32031l-1.4922 2.20313 1.4922 4.16016.28515.27734 4.15625.91797 2.20703-.91797-.7578-4.4375-1.44923-1.03125-4.4414-1.17188v-3.3203l.5664 1.08202 3.875 2.27344 3.04688 2.16797 1.39062 3.25781 4.4375.20703 4.4375-3.23828 1.09375-.22656 3.34766-1.35938v1.56641l-4.4414 1.125-3.57813 3.10547-.79688 4.4375 3.54688 4.4375.82812.51172.9414-.51172 3.5-1.8711 2.53907-2.5664 1.34375-4.4375-3.88281-4.23047v-1.5664l1.78125 1.35937 2.61328 4.4375-.57813 4.4375-3.8164 3.85938-1.08594.57812-3.35547 1.82422-2.96094-1.82422-1.47656-1.84766-4.4375-2.15625-.52344-.43359-3.91406-2.16797-4.4414-.71484-4.4375-.96875"/><path fill="#50fcfc" fill-rule="evenodd" d="M188.3789 379.46875l-1.22656-1.22656 1.22657-1.22656 3.16015-3.21094 1.27735-1.7539 4.4414-.67188v3.125l-2.54687 3.73828 2.54687 3.2539 3.7539 1.1836-3.7539.89062-2.3711 3.55078 2.3711 2.28125 4.4375 1.8086 4.4375-2.17188 1.4336-1.91797-1.4336-1.45312-4.23047-2.98828.27735-4.4375-.48438-.48828-4.4375-3.25v-3.125l2.41797 2.42578 2.01953 1.54687 2.85547 2.89063-.05469 4.4375 1.63672 1.15625 3.23438 3.28515-3.23438 4.33594-.25.10156-4.1875 2.55079-2.30469-2.55079-2.1328-.85937-3.71876-3.57813 1.375-4.4414-2.09765-3.69922-4.4375.48828"/><path fill="#00c4fc" fill-rule="evenodd" d="M192.8164 413.47266l-1.49218-4.16016 1.49219-2.20313 4.4414 1.17188 1.44922 1.03125.75781 4.4375-2.20703.91797-4.15625-.91797-.28515-.27734"/><path fill="#00e8fc" fill-rule="evenodd" d="M197.25781 381.4961l-2.54687-3.25391 2.54687-3.73828 4.4375 3.25v7.0703l-4.4375 2.10938-.125.1875.125.1172 4.4375 1.9453 2.92969-2.0625-2.92969-2.29687v-7.07031l.48438.48828-.27735 4.4375 4.23047 2.98828 1.4336 1.45312-1.4336 1.91797-4.4375 2.17188-4.4375-1.8086-2.3711-2.28125 2.3711-3.55078 3.7539-.89062-3.7539-1.1836"/><path fill="#00d4fc" fill-rule="evenodd" d="M197.25781 387.23828l-.125-.11719.125-.1875 4.4375-2.10937v2.2539l-.08594.04297.08594.03516.05078-.03516-.05078-.04296v-2.25391l2.92969 2.29687-2.92969 2.0625-4.4375-1.9453"/><path fill="#00c4fc" fill-rule="evenodd" d="M201.69531 387.15625l-.08594-.03516.08594-.04296.05078.04296-.05078.03516m8.04688 35.46875l-3.54688-4.4375.79688-4.4375 3.57812-3.10547 4.4414-1.125v.55469l-4.4414 1.67969-2.30078 1.99609-.01562 4.4375 2.3164 2.8789 4.4414-1.60156 1.26173-1.27734 2.11328-4.4375-3.375-3.67578v-.55469l3.88281 4.23047-1.34375 4.4375-2.53906 2.5664-3.5 1.8711-.9414.51172-.82813-.51172"/><path fill="#00b8fc" fill-rule="evenodd" d="M210.57031 421.0664l-2.3164-2.8789.01562-4.4375 2.30078-1.9961 4.4414-1.67968v.5586l-4.4414 2.23046-1.02344.88672.76563 4.4375.25781.32422 4.0625-.32422.3789-.00781L217.875 413.75l-2.86328-3.11719v-.5586l3.375 3.67579-2.11328 4.4375-1.26172 1.27734-4.4414 1.60157"/><path fill="#00a8fc" fill-rule="evenodd" d="M210.3125 418.1875l-.76563-4.4375 1.02344-.88672 4.4414-2.23047v.55469l-4.2578 2.5625 4.2578 3.63672 2.35157-3.63672-2.35156-2.5625v-.55469L217.875 413.75l-2.86328 4.42969-.3789.00781-4.0625.32422-.25782-.32422"/><path fill="#009800" fill-rule="evenodd" d="M215.01172 417.38672L210.7539 413.75l4.2578-2.5625v.5586l-3.33202 2.0039 3.33203 2.84766 1.83984-2.84766-1.83984-2.0039v-.5586l2.35156 2.5625-2.35156 3.63672"/><path fill="#00ac00" fill-rule="evenodd" d="M215.01172 416.59766l-3.33203-2.84766 3.33203-2.0039v.55468l-2.40625 1.44922 2.40625 2.05469 1.32812-2.05469-1.32812-1.44922v-.55469l1.83984 2.00391-1.83984 2.84766"/><path fill="#00c800" fill-rule="evenodd" d="M215.01172 415.80469l-2.40625-2.05469 2.40625-1.44922v1.11328l-.5586.33594.5586.47656.30469-.47656-.3047-.33594v-1.11328l1.32813 1.44922-1.32812 2.05469"/><path fill="#10cc00" fill-rule="evenodd" d="M215.01172 414.22656l-.5586-.47656.5586-.33594.30469.33594-.3047.47656"/><path fill="#50fcfc" fill-rule="evenodd" d="M232.76172 405.16016l-.32031-.28907.3203-.30468.31642.30468-.31641.28907m48.82422 17.48828l-.02344-.02344.02344-.02344 4.4375-2.66406 3.96094 2.6875-3.96094 2.71484-4.4375-2.6914m22.1914-13.36719l-2.64062-4.41016 2.64062-3.88671.29297-.55079.44531-4.4375 3.69922-3.375v1.9336l-1.57812 1.4414 1.11719 4.4375.46093.66797.32813-.66797 1.22265-4.4375-1.55078-1.4414v-1.9336l3.63282 3.375-.66016 4.4375-.14063 4.4375 1.60547.59766.47266-.59766 3.96875-3.07421v2.21093l-1.11719.86328-3.32422 4.20313-.23046.23828-4.20704.98047-3.64062 3.45703 3.64062 3.2461 4.4375-2.38673.86329-.85937-.66016-4.4375 4.23828-3.46875.84375-.97266-.84375-.86328v-2.21094l3.0039 3.07422-3.0039 3.45313-1.20703.98828-.21875 4.4375-3.01563 3.00781-4.4375 1.00781-4.4375-3.5703-.62109-.44532.6211-4.21875 4.4375-.05469.71093-.16406-.71094-1.8164-4.4375 1.78515"/><path fill="#00e8fc" fill-rule="evenodd" d="M308.21484 416.9961l-3.64062-3.2461 3.64062-3.45703v1.36328l-2.20703 2.09375 2.20703 1.96875 2.97266-1.96875-2.97266-2.09375v-1.36328l4.20704-.98047.23046-.23828 3.32422-4.20313 1.11719-.86328.84375.86328-.84375.97266-4.23828 3.46875.66015 4.4375-.86328.85938-4.4375 2.38671"/><path fill="#00d4fc" fill-rule="evenodd" d="M308.21484 415.71875l-2.20703-1.96875 2.20703-2.09375v1.35938l-.77343.73437.77343.6875 1.04297-.6875-1.04297-.73438v-1.35937l2.97266 2.09375-2.97266 1.96875"/><path fill="#00e8fc" fill-rule="evenodd" d="M307.7539 400.4336l-1.11718-4.4375 1.57812-1.44141 1.55079 1.4414-1.22266 4.4375-.32813.66797-.46093-.66797"/><path fill="#00c4fc" fill-rule="evenodd" d="M308.21484 414.4375l-.77343-.6875.77343-.73438 1.04297.73438-1.04297.6875"/><path fill="#50fcfc" fill-rule="evenodd" d="M325.96875 399.5625l-3.34766-3.5664 3.34766-3.46485v2.02344l-1.39063 1.4414 1.39063 1.48438 2.82031-1.48438-2.82031-1.4414v-2.02344l4.4375 1.36328 4.4375-1.0586v2.375l-1.98047.78516 1.6836 4.4375.29687.78907 1.8789 3.64843 2.5625 2.58204 2.26954 1.85937 2.16797 1.0586 4.4375 1.08593 4.4375.55469 3.70703-2.69922.73437-1.67188 1.64453-2.76953-1.64453-1.58593-4.4414-2.28125-.9336-.57032-3.5039-3.9414-3.78516-.4961-.65234-.09375-.10547.09375-4.33203 2.67579-3.54297-2.67579-.89844-.78515v-2.375l3.6211 3.16015.8203.6172 1-.6172 3.4375-3.12109 4.4375.63281 4.39454 2.48828.04297.0586 2.42968 4.3789 2.01172.96485 3.59766 3.47265-1.64844 4.44141-1.94922 1.98438-4.4414 1.76562-4.4375-.22656-4.4375-.36328-4.21875 1.27734-.21875 3.1289-.07813 1.3086-4.36328 3.11328-4.4375.33203-4.00781-3.44531 3.58203-4.4375.42578-.4375 4.4375-3.46094v2.44531l-1.72656 1.45313-2.71094 4.1211-.26563.3164.26563.23047.98438-.23047 3.45312-1.32031 1.6875-3.11719-1.6875-1.45313v-2.4453l1.41797-.53907-1.41797-1.4375-1.82422-3.0039-1.02734-4.4375-1.58594-2.27344-4.4375 1.40234"/><path fill="#00e8fc" fill-rule="evenodd" d="M325.96875 397.48047l-1.39063-1.48438 1.39063-1.4414 2.82031 1.4414-2.82031 1.48438m4.4375 20.9375l-.26563-.23047.26563-.3164 2.71094-4.1211 1.72656-1.45313 1.6875 1.45313-1.6875 3.11719-3.45313 1.32031-.98437.23047m4.14063-17.98438l-1.6836-4.4375 1.98047-.78515.89844.78515 3.54297 2.67579 4.33203-2.67579.10547-.09375.65234.09375 3.78516.4961v4.5664l-4.4375 3.6797-.08985.1328.08985.07422 4.4375 4.04688.47656.32031 3.96094.95313 1.3125-.95313 1.05859-4.4414-2.3711-1.39844-4.4375-2.41407v-4.5664l3.50391 3.9414.9336.57032 4.4414 2.28125 1.64453 1.58593-1.64453 2.76954-.73437 1.67187-3.70703 2.69922-4.4375-.55469-4.4375-1.08594-2.16797-1.05859-2.26953-1.85938-2.5625-2.58203-1.87891-3.64843-.29688-.78907"/><path fill="#50fcfc" fill-rule="evenodd" d="M339.28516 387.53125l-.67579-.41016.67579-.21093.20703.21093-.20703.41016m0 39.72656l-.19922-.1914.19922-.9922 2.55078.9922-2.55078.1914m4.4375 18.51953l-.8711-.96093.8711-.875 1.55468-3.5625 2.88282-2.90235 1.02343-1.53515 3.41407-4.25782v2.125l-1.71094 2.13282-2.72656 4.08984-.34766.34766.34766.89843.34375-.89843 4.09375-2.7422 4.4414.3125 4.4375-1.09374 3.26953-.91406-3.26953-.8711-4.4375-1.08594-4.4414-.17578v-2.125l4.4414.8086 4.4375.4375 4.4375.28906 4.4375.01953v2.67188l-.32031.03125-2.75 4.4375 2.78906 4.4375.28125.34765.91406-.34765 2.17579-4.4375-3.00391-4.4375-.08594-.03125v-2.67188l4.4375.96485 2.36719 1.73828-2.36719 1.84765-.5 2.58985.5 2.20703 2.10547 2.23047-2.10547 2.11328-4.4375 1.57031-2.98437-3.6836-.92969-4.4375-.52344-1.87109-4.4375.59766-4.4375.375-4.4414-.16016-1.57813 1.0586 1.10547 4.4375-3.96484 2.30468-4.4375-1.34375"/><path fill="#00d4fc" fill-rule="evenodd" d="M343.72266 404.94531l-.08985-.07422.08985-.1328 4.4375-3.6797 4.4375 2.41407 2.37109 1.39843-1.0586 4.44141-1.3125.95313-3.96093-.95313-.47656-.32031-4.4375-4.04688"/><path fill="#00e8fc" fill-rule="evenodd" d="M348.16016 441.27734l-.34766-.89843.34766-.34766 2.72656-4.08984 1.71094-2.13282 4.4414.17579 4.4375 1.08593 3.26953.8711-3.26953.91406-4.4375 1.09375-4.4414-.3125-4.09375 2.74219-.34375.89843"/><path fill="#50fcfc" fill-rule="evenodd" d="M357.03906 391.64063l-.0664-.08204.0664-.07812.92578-4.35938 3.51172-3.37109v1.60547l-1.83984 1.76562 1.83984 2.03516 2.66797-2.03516-2.66797-1.76562V383.75l4.4375 2.08594 1.32813 1.28515-1.32813 1.35547-4.4375 2.53125-4.30078.55078-.13672.08204"/><path fill="#00e8fc" fill-rule="evenodd" d="M361.47656 389.15625l-1.83984-2.03516 1.83984-1.76562 2.66797 1.76562-2.66797 2.03516m8.59375 55.66016l-2.78906-4.4375 2.75-4.4375.32031-.03125v2.05468l-1.66797 2.41407 1.66797 2.48046 1.67578-2.48046-1.67578-2.41407v-2.05468l.08594.03125 3.0039 4.4375-2.17577 4.4375-.91407.34765-.28125-.34765"/><path fill="#00d4fc" fill-rule="evenodd" d="M370.35156 442.85938l-1.66797-2.48047 1.66797-2.41407V440l-.26172.3789.26172.39063.26563-.39062-.26563-.37891v-2.03516l1.67578 2.41407-1.67578 2.48046"/><path fill="#00c4fc" fill-rule="evenodd" d="M370.35156 440.76953l-.26172-.39062.26172-.37891.26563.3789-.26563.39063"/><path fill="#50fcfc" fill-rule="evenodd" d="M374.78906 454.25781l-.67969-.5625.6797-.53515.59374.53515-.59375.5625m53.26172.80469l-1.52344-1.36719.64063-4.4375.88281-.85156 4.4375-2.46094v1.69531l-2.35937 1.6172-.60157 4.4375 2.96094 2.2539 2.8789-2.2539.64844-4.4375-3.52734-1.6172v-1.6953l4.4375.95702 2.35547 2.35547-1.1875 4.4375-1.16797 1.21875-4.4375 2.63672-4.4375-2.48828"/><path fill="#00e8fc" fill-rule="evenodd" d="M432.48828 455.94922l-2.96094-2.2539.60157-4.4375 2.35937-1.6172 3.52735 1.6172-.64844 4.4375-2.8789 2.2539"/><path fill="#50fcfc" fill-rule="evenodd" d="M445.77734 400.4336l-1.16406-4.4375 1.1914-2.39063 1.82423-2.04688.66015-4.4375 1.95313-3.77343V393.875l-2.04688 2.1211.19531 4.4375 1.85157 1.80468 1.33203-1.80469-.0586-4.4375-1.27343-2.12109v-10.52734l1.22656 3.77343.04688 4.4375 1.89843 4.4375.02344 4.4375 1.24219 4.41016.03125.02734.6875 4.44141-.71875.28516-.32813-.28516-.09765-4.4414-4.01172-.10548-4.4375-4.29687-.02735-.03516"/><path fill="#00e8fc" fill-rule="evenodd" d="M448.39063 400.4336l-.19532-4.4375 2.04688-2.1211 1.27344 2.1211.05859 4.4375-1.33203 1.80468-1.85156-1.80469"/><path fill="#50fcfc" fill-rule="evenodd" d="M450.24219 455.375l-1.94531-1.67969 1.9453-3.13672 1.6797 3.13672-1.6797 1.67969m8.87891-69.78125l-3.17578-2.91406.13281-4.4375 3.04297-2.6914v2.61718l-.08593.07422-.55079 4.4375.63672.58203.57422-.58203-.5-4.4375-.07422-.07422v-2.61719l2.69141 2.6914.19922 4.4375-2.89063 2.91407"/><path fill="#00e8fc" fill-rule="evenodd" d="M459.1211 383.26172l-.63673-.58203.55079-4.4375.08593-.07422.07422.07422.5 4.4375-.57422.58203"/><path fill="#50fcfc" fill-rule="evenodd" d="M463.5586 398.97656l-2.97657-2.98047 2.97656-3.05078 4.4336-1.1211v2.48048l-4.4336.89062-.78515.80078.78515.78516 4.4336.5039v1.89063l-4.4336-.19922"/><path fill="#00e8fc" fill-rule="evenodd" d="M463.5586 396.78125l-.78516-.78516.78515-.80078 4.4336-.89062v2.98047l-4.4336-.50391"/><g clip-path="url(#d)"><path fill="#fff" fill-opacity="0" fill-rule="evenodd" d="M467.99219 480.32422h.0039v-81.14844 81.14844h-.0039"/></g><path fill="#50fcfc" fill-rule="evenodd" d="M467.99219 397.28516v1.89062h.0039v-1.89062h-.0039"/><path fill="#00e8fc" fill-rule="evenodd" d="M467.99219 394.30469v2.98047h.0039v-2.98047h-.0039"/><path fill="#50fcfc" fill-rule="evenodd" d="M467.99219 391.82422v2.48047h.0039v-2.48047h-.0039"/><g clip-path="url(#e)"><path fill="#fff" fill-opacity="0" fill-rule="evenodd" d="M467.99219 311.66797h.0039v80.15625-80.15625h-.0039"/></g><path fill="#fff" fill-opacity="0" fill-rule="evenodd" d="M180.39063 392.97266l5.83984.14062.23828-9.96094-5.83984-.13671-.23828 9.95703"/><path fill-rule="evenodd" d="M184.08203 384.92969l.51172.01172-.15234 6.29296-.78516-.01562.10547-4.48828-1.38672-.03516.01172-.55469.5625-.05078.2539-.04687.23047-.08594.20703-.13672.1797-.20703.14843-.28906.11328-.39453"/><path fill="#fff" fill-opacity="0" fill-rule="evenodd" d="M344.125 420.6289l.3789-5.82812-9.9414-.64844-.3789 5.83204 9.9414.64453"/><path fill-rule="evenodd" d="M336.23828 416.60938l.03516-.50782 6.28125.41016-.05078.78515-4.48047-.29296-.08985 1.38671-.55468-.03515-.02735-.5625-.03906-.25781-.07422-.23438-.1289-.21094-.19532-.1875-.28515-.16015-.39063-.13281"/><path fill="#00f" fill-rule="evenodd" d="M188.50781 472.08203h8.6211V461.9375h-8.6211v10.14453"/><path fill="azure" fill-rule="evenodd" d="M190.33984 463.76953h.83594v2.82422h3.28516v-2.82422h.83203V470.25h-.83203v-2.91797h-3.28516V470.25h-.83594v-6.48047"/><path fill="#00f" fill-rule="evenodd" d="M383.79688 436.57422h8.61718v-10.14453h-8.61719v10.14453"/><path fill="azure" fill-rule="evenodd" d="M385.6289 428.26172h.83204v2.82422H389.75v-2.82422h.83203v6.48047H389.75v-2.91406h-3.28906v2.91406h-.83203v-6.48047"/><path fill="#00f" fill-rule="evenodd" d="M215.14063 414.38281h8.61718v-10.14453h-8.61719v10.14453"/><path fill="azure" fill-rule="evenodd" d="M216.97266 406.07031h.83203v2.82422h3.28515v-2.82422h.83594v6.48047h-.83594v-2.91406h-3.28515v2.91406h-.83203v-6.48047"/><path fill="#ff3030" fill-rule="evenodd" d="M451.0664 338.9336h7.69141v-10.14844h-7.6914v10.14843"/><path fill="azure" fill-rule="evenodd" d="M452.89844 330.6211h.83203v5.73827h3.19531v.73829h-4.02734v-6.47657"/><path fill="#ffffe0" fill-rule="evenodd" d="M359.49219 382.21094h22.17969v-10.1914h-22.1797v10.1914"/><path fill-rule="evenodd" d="M362.99219 373.85156h.51172v6.29688h-.78907v-4.49219h-1.38671v-.55469l.55859-.0664.25-.05079.23047-.08984.20312-.14062.17578-.21094.14063-.29688.10547-.39453m4.8125 0l.23047.01953.21875.0547.20703.08983.19922.1211.18359.14844.17188.17578.30078.42187.24218.49219.1797.54688.11327.57812.03906.59375-.03906.58984-.11328.58594-.17969.55469-.24218.5-.30079.42969-.17187.17968-.1836.15235-.19921.125-.20703.08984-.21875.0586-.23047.01953-.22656-.01954-.21875-.05859-.21094-.08984-.19531-.125-.1836-.15235-.17187-.17968-.30079-.4297-.24218-.5-.17969-.55468-.11328-.58594-.03906-.58984h.83593l.02735.5625.08203.5039.125.44532.16406.3711.1914.30077.21094.22266.22266.13672.22266.04687.22656-.04687.22266-.13672.21093-.22266.19141-.30078.16406-.3711.125-.4453.08203-.50391.02735-.5625-.02735-.5625-.08203-.5-.125-.4375-.16406-.36328-.1914-.29297-.21094-.21484-.22266-.13282-.22656-.04296-.22266.04296-.22265.13282-.21094.21484-.1914.29297-.16407.36328-.125.4375-.08203.5-.02735.5625h-.83593l.03906-.59375.11328-.57813.17969-.54687.24219-.49219.30078-.42187.17187-.17578.1836-.14844.1953-.1211.21094-.08984.21875-.05469.22657-.01953m5.09375 0h.50781v6.29688h-.78516v-4.49219h-1.39062v-.55469l.5625-.0664.25-.05079.23047-.08984.20312-.14062.17578-.21094.14063-.29688.10547-.39453m2.82422 2.17578h.78515l.01953-.3164.0586-.28516.10156-.2539.14063-.21485.17968-.17187.22266-.13282.26562-.07812.3086-.02735.23828.01954.22265.0625.20313.10156.17969.14062.14844.17188.11328.20703.07421.23438.02344.26562-.02344.26953-.0625.22266-.11328.1914-.15234.17188-.20313.16406-.24609.16406-.63281.39063-.53906.3125-.4375.3164-.34766.32422-.26172.33594-.1914.35156-.125.3711-.06641.39062-.02344.42188h4.21094v-.74219h-3.33203l.08594-.28516.11328-.23437.14843-.20313.1875-.17968.23047-.17188.27735-.17578.71875-.41797.41406-.20312.34375-.23047.28125-.2539.21875-.26563.16406-.27735.11328-.28515.0625-.28516.01953-.28125-.03906-.38281-.1211-.34766-.1914-.3086-.25-.26171-.30078-.21094-.34766-.16015-.3789-.09766-.40625-.03516-.4336.03516-.39843.09765-.35547.16407-.30469.23437-.25.30469-.1836.375-.11718.44531-.03906.51953"/><path fill="#ffffe0" fill-rule="evenodd" d="M239.65625 404.29297h22.1836v-10.1914h-22.1836v10.1914"/><path fill-rule="evenodd" d="M243.15625 395.9336h.51172v6.29687h-.78906v-4.48828h-1.38672v-.5586l.5586-.0625.2539-.05468.22656-.08985.20313-.14062.17578-.21094.14062-.29297.10547-.39844m4.8164 0l.22657.01954.21875.05859.21094.08594.1953.12109.1836.15234.17188.17579.30078.41796.24219.4922.17968.54687.11328.58203.03907.58984-.03906.59375-.11329.58203-.17968.55469-.2422.5039-.30077.42579-.17188.17969-.1836.15234-.1953.125-.21094.09375-.21875.05469-.22656.01953-.23047-.01953-.21875-.0547-.20703-.09374-.19922-.125-.1836-.15235-.17187-.17968-.30078-.42578-.24219-.50391-.17969-.55469-.11328-.58203-.03906-.59375h.83594l.02734.5625.08203.50781.125.44141.16406.375.19141.30078.21094.21875.22265.13672.22657.04688.22656-.04688.22266-.13672.20703-.21875.1914-.30078.16406-.375.125-.4414.08204-.50782.02734-.5625-.02734-.5625-.08203-.5-.125-.4336-.16407-.36718-.1914-.29297-.20703-.21484-.22266-.1289-.22656-.04688-.22657.04687-.22265.1289-.21094.21485-.1914.29297-.16407.36719-.125.4336-.08203.5-.02734.5625h-.83594l.03906-.58985.11328-.58203.17969-.54688.24219-.49219.30078-.41796.17187-.17579.1836-.15234.19922-.1211.20703-.08593.21875-.0586.23047-.01953m5.08984 0h.50781v6.29688h-.78515v-4.48828h-1.39063v-.5586l.5625-.0625.25-.05468.23047-.08985.20313-.14062.17578-.21094.14062-.29297.10547-.39844m6.80469 1.6211h-.78906l-.05079-.21094-.08203-.1875-.10547-.16016-.1289-.1289-.14844-.10156-.16016-.07422-.16796-.04688-.17188-.01562-.32813.04296-.28906.1172-.2461.1953-.20312.26954-.16015.33984-.11719.40234-.07031.46875-.02344.52344.1914-.19922.1836-.16015.1875-.1211.1836-.08984.1914-.0625.1914-.03516.39844-.02344.3086.03125.32031.08985.3164.15625.29298.21875.2578.28515.19923.35157.0703.19922.0547.21875.02734.23437.0039.25-.78515.04688-.02734-.25782-.07813-.2539-.1211-.23438-.16015-.20703-.19531-.17969-.21875-.13671-.24219-.08985-.2539-.03125-.25391.03125-.24219.08985-.21875.13671-.1914.1797-.16407.20702-.1211.23438-.07812.2539-.02734.25782.02734.2578.07813.25.1211.23829.16406.20703.1914.17969.21875.13672.24219.08594.2539.03125.25391-.03125.24219-.08594.21875-.13672.19531-.17969.16016-.20703.1211-.23828.07812-.25.02734-.25781.78516-.04688-.03125.3711-.08985.37109-.16015.35937-.22266.32813-.28906.28125-.16797.1211-.1914.10156-.20313.08203-.22656.0625-.23829.03906-.26171.01172-.28125-.01563-.26172-.04687-.23829-.07813-.21484-.10156-.19531-.13281-.17188-.15625-.15625-.17969-.1328-.20313-.1172-.22265-.10156-.24219-.14453-.53515-.08594-.59375-.02734-.64063.03906-.74219.11328-.66406.1875-.57813.1211-.2539.13671-.23047.15235-.20703.17187-.17969.1836-.15625.20312-.1289.21875-.10157.23047-.07422.25-.04687.26172-.01563.36328.03516.33594.09766.29297.14843.25781.19922.21094.24219.16406.27344.11719.30469.0625.3203"/><path fill="#ffffe0" fill-rule="evenodd" d="M345.52734 476.7539h22.1797v-10.1953h-22.1797v10.1953"/><path fill-rule="evenodd" d="M349.02344 468.39453h.51172v6.29297h-.78907v-4.48828h-1.38671v-.55469l.55859-.0664.2539-.0547.23047-.08984.20313-.14062.17187-.21094.14063-.29297.10547-.39453m4.8164 0l.23047.01953.21875.05469.20703.08984.19532.1211.18359.14844.17188.17578.30078.41796.24609.4961.17969.54687.10937.57813.03906.58984-.03906.59375-.10937.58594-.17969.55078-.2461.5039-.30077.42579-.17188.17969-.1836.15625-.1953.12109-.20704.09375-.21875.05469-.23047.01953-.23046-.01953-.21875-.05469-.20704-.09375-.1953-.1211-.1875-.15624-.17188-.1797-.30079-.42577-.24218-.5039-.17969-.55079-.11328-.58594-.03516-.59375h.83203l.02735.5625.08203.50781.125.44141.16406.375.1914.30078.21094.22266.22266.13672.22656.04687.22657-.04687.22265-.13672.21094-.22266.1914-.30078.16016-.375.125-.4414.08203-.50782.03125-.5625-.03125-.5625-.08203-.5-.125-.4336-.16015-.36718-.19141-.29297-.21094-.21094-.22265-.1328-.22657-.04688-.22656.04687-.22265.13281-.21094.21094-.1914.29297-.16407.36719-.125.4336-.08203.5-.02735.5625h-.83203l.03516-.58985.11328-.57813.17969-.54687.24219-.4961.30078-.41796.17187-.17579.1875-.14843.19531-.1211.20704-.08984.21875-.05469.23046-.01953m5.08985 0h.51172v6.29297h-.78907v-4.48828h-1.38671v-.55469l.55859-.0664.2539-.0547.22657-.08984.20312-.14062.17578-.21094.14063-.29297.10547-.39453m6.80469 1.61719h-.78516l-.05469-.21094-.07812-.1875-.10938-.15625-.1289-.13281-.14844-.10156-.16016-.07422-.16797-.04688-.17187-.01562-.32813.04297-.28515.12109-.2461.19531-.20703.26563-.16015.33984-.11329.40235-.0703.46875-.02345.52734.1875-.20313.1875-.16015.1836-.1211.1875-.08984.1875-.0586.1914-.03906.40235-.02343.30469.03125.3203.08984.31641.15625.29688.21875.2539.28516.19922.35156.07422.19922.05078.21875.02735.23437.00781.25-.78906.04688-.02735-.25781-.07812-.25-.1211-.23438-.16015-.21094-.19531-.17969-.21875-.13671-.23829-.08594-.2578-.03125-.25391.03125-.23829.08594-.22265.13671-.1914.1797-.16016.21093-.125.23438-.07422.25-.02735.2578.02735.26173.07422.25.125.23437.16015.21094.1914.17578.22267.13672.23828.08984.2539.03125.25781-.03125.23829-.08984.21875-.13672.1953-.17578.16017-.21094.12109-.23437.07812-.25.02735-.26172.78906-.04688-.03125.3711-.09375.37109-.15625.35938-.22266.32812-.28906.28516-.17187.11718-.1875.10157-.20704.08203-.22265.0625-.24219.03906-.26172.01172-.28125-.01563-.26172-.04687-.23828-.07422-.21484-.10547-.19531-.13281-.17188-.15625-.15625-.17969-.13281-.20312-.11719-.22266-.09765-.24219-.14844-.53125-.08594-.59375-.02734-.64062.03906-.7461.11328-.66015.1875-.57813.1211-.25781.13671-.23047.15235-.20703.17187-.17969.1836-.15625.20312-.1289.21875-.10157.23438-.07421.24609-.04297.26172-.01563.36719.03125.33203.09766.29296.15234.25782.19922.21094.23828.16406.27735.11719.30078.0625.3203"/></g></defs><use xlink:href="#f"/></svg>