<svg xmlns="http://www.w3.org/2000/svg" role="img" xmlns:xlink="http://www.w3.org/1999/xlink" viewBox="142.45 309.95 326.84 171.84"><defs><clipPath id="a"><path d="M144 357h1v123.32813h-1zm0 0"/></clipPath><clipPath id="b"><path d="M144 311.67188h1V354h-1zm0 0"/></clipPath><clipPath id="c"><path d="M144 311.67188h324v168.65625H144zm0 0"/></clipPath><clipPath id="d"><path d="M467 399h1v81.32813h-1zm0 0"/></clipPath><clipPath id="e"><path d="M467 311.67188h1V392h-1zm0 0"/></clipPath><clipPath id="f"><path d="M144 478h4v2.32813h-4zm0 0"/></clipPath><clipPath id="g"><path d="M153 478h8v2.32813h-8zm0 0"/></clipPath><clipPath id="h"><path d="M166 479h9v1.32813h-9zm0 0"/></clipPath><clipPath id="i"><path d="M173 480h2v.32813h-2zm0 0"/></clipPath><clipPath id="j"><path d="M180 479h8v1.32813h-8zm0 0"/></clipPath><clipPath id="k"><path d="M187 480h2v.32813h-2zm0 0"/></clipPath><clipPath id="l"><path d="M193 479h8v1.32813h-8zm0 0"/></clipPath><clipPath id="m"><path d="M200 480h2v.32813h-2zm0 0"/></clipPath><clipPath id="n"><path d="M206 479h9v1.32813h-9zm0 0"/></clipPath><clipPath id="o"><path d="M213 479h3v1.32813h-3zm0 0"/></clipPath><clipPath id="p"><path d="M220 479h8v1.32813h-8zm0 0"/></clipPath><clipPath id="q"><path d="M227 479h3v1.32813h-3zm0 0"/></clipPath><clipPath id="r"><path d="M233 478h8v2.32813h-8zm0 0"/></clipPath><clipPath id="s"><path d="M240 478h3v2.32813h-3zm0 0"/></clipPath><clipPath id="t"><path d="M246 478h9v2.32813h-9zm0 0"/></clipPath><clipPath id="u"><path d="M253 478h3v2.32813h-3zm0 0"/></clipPath><clipPath id="v"><path d="M260 479h8v1.32813h-8zm0 0"/></clipPath><clipPath id="w"><path d="M266 479h4v1.32813h-4zm0 0"/></clipPath><clipPath id="x"><path d="M273 478h8v2.32813h-8zm0 0"/></clipPath><clipPath id="y"><path d="M279 479h2v1.32813h-2zm0 0"/></clipPath><clipPath id="z"><path d="M286 479h9v1.32813h-9zm0 0"/></clipPath><clipPath id="A"><path d="M292 480h2v.32813h-2zm0 0"/></clipPath><clipPath id="B"><path d="M300 479h8v1.32813h-8zm0 0"/></clipPath><clipPath id="C"><path d="M305 480h2v.32813h-2zm0 0"/></clipPath><clipPath id="D"><path d="M313 479h8v1.32813h-8zm0 0"/></clipPath><clipPath id="E"><path d="M319 480h1v.32813h-1zm0 0"/></clipPath><clipPath id="F"><path d="M326 479h9v1.32813h-9zm0 0"/></clipPath><clipPath id="G"><path d="M332 480h2v.32813h-2zm0 0"/></clipPath><clipPath id="H"><path d="M340 478h8v2.32813h-8zm0 0"/></clipPath><clipPath id="I"><path d="M353 478h8v2.32813h-8zm0 0"/></clipPath><clipPath id="J"><path d="M369 476h3v4.32813h-3zm0 0"/></clipPath><clipPath id="K"><path d="M382 476h3v4.32813h-3zm0 0"/></clipPath><clipPath id="L"><path d="M393 478h8v2.32813h-8zm0 0"/></clipPath><clipPath id="M"><path d="M391 480h4v.32813h-4zm0 0"/></clipPath><clipPath id="N"><path d="M407 477h7v3.32813h-7zm0 0"/></clipPath><clipPath id="O"><path d="M421 477h6v3.32813h-6zm0 0"/></clipPath><clipPath id="P"><path d="M434 477h6v3.32813h-6zm0 0"/></clipPath><clipPath id="Q"><path d="M447 477h6v3.32813h-6zm0 0"/></clipPath><clipPath id="R"><path d="M460 477h7v3.32813h-7zm0 0"/></clipPath><clipPath id="S"><path d="M144 464h4v6h-4zm0 0"/></clipPath><clipPath id="T"><path d="M144 450h3v7h-3zm0 0"/></clipPath><clipPath id="U"><path d="M144 436h2v8h-2zm0 0"/></clipPath><clipPath id="V"><path d="M144 442h2v2h-2zm0 0"/></clipPath><clipPath id="W"><path d="M144 423h2v8h-2zm0 0"/></clipPath><clipPath id="X"><path d="M144 411h4v6h-4zm0 0"/></clipPath><clipPath id="Y"><path d="M144 398h4v5h-4zm0 0"/></clipPath><clipPath id="Z"><path d="M144 383h1v8h-1zm0 0"/></clipPath><clipPath id="aa"><path d="M144 389h1v2h-1zm0 0"/></clipPath><clipPath id="ab"><path d="M144 371h4v5h-4zm0 0"/></clipPath><clipPath id="ac"><path d="M144 357h3v7h-3zm0 0"/></clipPath><clipPath id="ad"><path d="M144 345h4v4h-4zm0 0"/></clipPath><clipPath id="ae"><path d="M144 331h4v5h-4zm0 0"/></clipPath><clipPath id="af"><path d="M144 318h4v5h-4zm0 0"/></clipPath><g id="ag" clip-path="url(#clip1)"><path fill="#fff" fill-opacity="0" fill-rule="evenodd" d="M0 0h1000v1000H0zm0 0"/><path fill="#d3d3d3" fill-opacity="0" fill-rule="evenodd" d="M162.15234 355.86719l-.23437.29297.0586.23437.11718.17188.17578.23437.29297.34766.11328.0586.11719-.17188.0586-.23438.17577-.17578.46485-.17578h.69922l.23437.29297.28906.8164.0586.17579.17578.23046.35156.23438.69922.69922.17188.17578.23437.34765.23438.41016.28906.58203.41015.46485.23047.23437.23438.17578.11719.23047.17578.29297.17187 1.16406v.23438l.0586.28906.05859.11719.11719.11719.34765.41015.11719.17188.17578.17578.17578.23437.11719.17188.17188.35156.05859.23438.23437.40625.23438-.0586-.17578.17578-.0586.92969h-.58203l-.23437-.11328-.34766.11328-.11719.11719-.05859.29297-.0586.17578-.11718.17187-.46484.29297-.0586.23438-.0586.11328v.64453l.0586.17187v.41016l.0586.0586v.40624l.05859.40625.11719.17579.05859.05859.23047.64062-.0586.29297v.69922l-.05859.58203v.23438l-.0586.23047-.05468.35156v1.92187l.05469.1172h.42578l-.36719.11718-.02344.35156.89063 1.16797 1.74219.53906 1.33984.35938v.53906l.08984.8086.53516.71484 1.51953.26953.89063-.08594.08984 1.16406.53516.1797 1.16015-.1797 2.05469-.98437 1.16016-.36328 1.8789-.17578 1.69531-.1797-.17968.71876-1.51563.08594-1.25.08984-.80469.26953-1.07421.8086.26953.71875.53515.89843-.17968.625-.26563.8086.26563 1.07812.625.89844.80468.17969 1.25-.1797-.26562.72267.09766.5039.05468.29297v.17188l.0586.29296v.40625l.17578.1172.35156.11718h.40625l.29297-.17578.11328-.11719.0586-.11719.11718-.23047.0586-.17578.35156-.46484.23047-.17578.17578-.0586.17578.0586.0586.17578.11718.98828.05469.46875.0586.17188.11718.23437.17578.0586.8164.05859h.28907l.11719.23437.05859.40625.0586.35156v1.10547l.11718.29297.11719.34766.28906.69922.17578.35156.58203.7539.35157.17579.17187.0586.46875.23437.64063.46484.34765.23438.29297.17578.29297.05468.23047.0625.8164.34766.29297.17578.11328.17188.35157.35156.11719.17578.52343.64063v.28906l.0586.35156v.34766l.05859.35156.0586.28906.11718.0586.17188.05859h.17578l.58203.23437.17578.1172.17578.28905.17578.23438.11328.23437.29297.23047.11719.11719v.41016l.0586.05468.28906.23438.23437.11719.0586.11718.11718.17188.0586.11719.23047.23437.05859.17578.23437.0586.1172.05859-.1172.11328-.05859.11719v.11719l-.11719.29296-.11719.28907v.58203l.17579.11719.11718.05859.0586.11719.11719.11719.11328.05859.17578.34765.0586.35157.05858.40625v.17578l-.05859.17578-.11719.69922v.17187l.1172.17579.29296.29296h.40625l.17578.1172.11719.17187.11719.29296v.23438h-.52735l-.23047-.23438h-.23437l-.17578.0586-.0586.69922.0586.34765.11719.17579.17578.41015.11718.23047.28907.46875.17578.05469h.52344l.23437.0586.75781.64062.0586.29296v.23438l.05859.0586.23047.34765v.35156l-.11719.17188v.29297l.29297.28906.29297.17578.17187.0586.29297.17577.29297.1172.58203.40624.28906.23438.29297.17578.21875.16015.01563.01172.23047.17579.64062.52343.17578.23438.1172.17578.17577.17578.11328.17188v.64062l.1172.17578.46874.11719.58203.11719.23438.05859.23047.11328.29297.11719.11328.0586.58593.35156.28907.17187.17578.0625.17578.05469.17578.0586.69922.35155.28906.17579.23438.05468.28906.17578.23437.1172.64063.40624.29297.11719.17187.0586.23438.05859.41015.05859.23047.0586.23438.11718.0586.17188-.41017.17578.46875.0586.0586.29296.11328.23438.17578.05468.23438.0586.17578.05859.40625.11719.64062.23437.11719.17188.0586.23437v.17578l-.0586.1172-.0586.40624.23438.23438.11719.05859.34766.11719.64062.23047.17578.11718.28906.1172.17578.17577.23438.46485.58203 1.10546.17578.17579.34766.17578.17578.11719.35156.11718 1.04688.52344.23437.0586.46485.11327.29297.0586.46484.17578.75781.58203.23438.23438.34765.46484.17578.17578.28907.23438.8164.69921.29297.17579.28906.28906.29297.17578.29297.28906.69531.64063.17578.17578.29297.23437.28907.23438.46875.28906.64062.58203.34766.23438.23437.29297.34766.34765.35156.46485.9336.99218.34765.40625.11719.17579.23437.05859.11328.11719.64454.17578.23047.11328.23437.0586.29297.17577.23047.1172.9336.69921.40624.40625.23438.17578.40625.17578.23437.11719.8164.34766.34766.23437.23438.11719.29297.28906.23047.11719.7578.35156.35157.17188.23047.05859.29297.11719.23437.0586.8711.17577h.8164l.46875.23047.17188.0586.875.69921.46484.1172.29297.05858.17578.0586.23047.0586.46875.05859.34766.05859.35156.0586.40625.05859h.29297l.17187.0586v.23046l.17578.17578h.29297l.34766.0586.35156.05859.69922.11719h.64063l.46484-.23438.29297-.17578.17187-.11719.41016-.17187.28906-.17578.9336-.46485.46875-.29297.52343-.29296.46485-.17188.46484-.17578 1.05078-.46485.28906-.11718.41016-.11719.28906-.11719.52735-.17578 1.51562-.69922.58203-.34765.28907-.0586.29297-.0586.34765-.11718.875-.23047.35156-.11719h.11329l.23437-.05859.875-.23437.23438-.0586h.8125l.35156-.0586.8164-.11718.17188-.0586.35156-.05468.29297-.0586.23047-.05859.8164-.17578.17579-.0586h.34765l.23438-.05859.46484-.11718.75781-.17188.23438-.0586h.34765l.41016-.11718.28906-.0586 1.28516-.05859h.28906l.41016-.0586.23047-.05858h.17578l.875-.1172h.40625l.41015-.11718h.34766l.35156-.11328.8711-.0586h1.75l1.04687.28907.41016.11719.28906.11718.35156.11719.28907.11719 1.05078.17187.28906.0586h.29297l.29297.05859.17187.0586.41016.05859.17187.0586.1172.05858h.11718l.11719.0586.35156.0586h.11328l.41016.0664 1.92187.39453 1.92578.39453 1.51953.44922 1.69532.71875 2.14453.80469 1.60547-.71875 1.42968-.80469 1.16016-1.07813 1.25-.44921 3.03516-.71875 1.875-.35938 2.14453-1.34765 2.23437-1.25391 2.5-1.25781 1.69531-.44922 1.78516-.17969 1.16016-.26953.625.53906 1.33984-.26953.71485-.98828.98437-1.34375.44531-.17969.80469-.35937 1.875-.53907 1.78516-.44921 1.25-.26954 1.16015-.08984 1.69922-.08984 1.96094-.26954 1.25-.08984h.53906l.625-.08984h.89063l2.14453-.17969 2.41015-.17969 2.58985-.08984 1.69531.17969 1.60938.08984 1.42968.35938 1.16016.71875 1.875.98828 1.16015 1.52734.26563.71484.6289.08985.35548.89844.53515.53906.53516 1.52734 1.07422.35938h.53515l-.80469.53515.08985 1.70703.71484 2.69532.89063.80468.89453.98829.71484 1.2578 1.78516.53907 1.51953-.17969.35547 1.34375 1.60937-.80469.98047-.53906.26953.26953.31641-.21484.21875-.14453.80078.44922.44922-.35938h.35547l.53515-.26953.53907-.71875.53515-.26953.625-.98828 1.16016.44922.83984.3711 1.39454.61718 1.6953-.17969h1.60548l1.78515.08985.17969-1.70704.53516-1.34375.80468.26954.4922.84765.40233.40625-.08984.53906v.35938l.71485.44922.71093-.26953h1.42969l.35938.98828.4453 1.25781.71485 1.34375 1.25.6289 1.69531.62891.71485-.17969.17969-.53906.98046-.08984.44922.35937.08594 1.25782-.26563.6289-.53515.17969v.53906l.71484.98438.26563.53906.98437.98828.80078 1.07813-.26562.35937-.08985.89844-.625 2.33203-.35546 2.0664-.08985 1.79298-.17969.71875-.08984.53906v1.4375l-.98047 1.88281-.35937 1.70703-.53516.89844-.80469 1.16797-.26562.53906 2.05469 1.2539.08593.35938-.35546.53906-.08985-.17968v.80859l.08985 1.4375-.44532.71484-1.07422.09375-.26562.71485.53515.89844.8047.71875 1.16015.80859 1.33984.26953.44531.35938-.35546.44921-1.78907-.08984-1.25-.44922-.71484-.71875-.625-.08984-.17578 3.58984-.1875 1.3086h89.35937V311.70313h-55.26953v49.08203l.76172.125 3.28906.54296 2.02344 2.83594v2.7539l2.35156.33204 2.34766.33203h4.05078l-1.3789 4.16016-2.02344.70703-2.02344.70312-.54297.34375-2.59375 1.6172-.1875.11718-2.02344-2.07813-.73046-2.74218-2.67188-2.07813-1.375-3.5-.0664-.08203-1.95704-2.67188 2.75-1.41796v-49.08204H294.42187v91.41407l.1172.03125.1328.01172.07422.07421.10547.04688.08985.0586.08593.05859.08985.0586.29687.29687.0586.08984.03125.11719.02734.11719.01563.13671-.03125.1172-.0586.08983-.0586.08594-.04296.10547-.04688.10156-.02734.1211v.14453l.17578.26953.14844.14844.07422.08594.07422.07421.04296.10547.0625.08985.0586.08593.04297.10547.0586.08985.04687.10156.04296.10547.0586.08594.11719.17968.07421.07422.0625.08594.0586.08984.04297.10547.0586.08985.05858.08593.0625.08985.0586.08984.04297.10156.11719.17969.07421.07422.0586.08594.07422.07421.08984.0586.10547.04687h.14844l.1328-.01562.13282.01562.10156-.04687.07422-.07422.04688-.10156-.01563-.13281v-.14844l-.04687-.10547-.02735-.11719-.04687-.10156-.02735-.1211-.04296-.10156-.0625-.08984-.04297-.10156-.04297-.10547-.03125-.11719-.01563-.13281-.01171-.13672.08593-.0586.0586-.08593.12109-.03125.04297.10547.01562.1328v.1172l.0586.10156.0586.08984.08983.0586.14844.14843.0586.08985.04296.10547-.01171.10156.08593.0586.10547.04687.08594.0586.08984.05858.07422.07422-.11719.02735-.10546.04687-.08594.0586-.07422.07421-.0586.08985-.0625.08594-.02734.12109-.04687.10156-.04297.10547-.03125.11719-.01172.13281-.01563.13281v.14844l.02735.11719.04687.10547.04297.10156.0586.08984.07421.07422.08985.0586.07422.07421.08984.0586.0586.08984.04296.10547.04688.10156.11719.03125.1328.01563h.14845l.11718-.03125.10547.04297.04297.10547.04688.10156.02734.1211L299.5 410l.02734.11719.03125.1211.02735.11718.10547.04297.10156.04687.13281-.01562.14844.14844.0625.08593.07422.07422.07031.07422.08984.0625.10547.04297.10156.04297.1172.03125.13671.01562.11719-.03125.07422-.07422.02734-.11718-.01172-.13282-.03125-.12109-.02734-.11719.04297-.10547h.11719l.08984.0625.11719.02735h.14843l.13282.01562h.14843l.13282.01563.1328-.01563h.14845l.1328-.01562.13282-.01172.13672.01172.11719-.02735.13281-.01562.1914-.0586-.05859.17579-.01562.1328-.02735.1211-.01562.13281-.0586.08594-.1328.01563-.10548.04687-.10546.04297-.1172.03125-.11718.02735-.26563.03125h-.14843l-.13281.01562-.07422.07422.05859.08594.14844.14843.11719.1797.07421.0703.08985.0625.08984.0586.08594.0586.08984.05858.10156.04297.10547.0625.10547.04297.08594.0586.10547.04687.10156.04297.17969.11719.0586.08984-.04298.10156-.04687.10547.01562.13281.22266.22266.0586.08985.04296.10156.03125.1211.04297.10155.01563.13282.03125.11718.01171.13672.03125.11719.14844.14844.10156.04297.10547.04296.1172.03125.1328.01563.13672.01563h.11719l.11719-.03125.08984-.0586.04297-.10547.04688-.10156.04296-.10547.03125-.11719.01172-.1328v-.14845l-.01172-.1328-.01562-.13282-.03125-.11719-.04297-.10547-.04688-.10547-.04296-.10156-.04297-.10547-.01563-.13281.01563-.13281.02734-.11719.03125-.11719.02735-.1211.04687-.10155.08984-.0586.08594-.0625.07422-.07422.08984-.05859.22266-.22266.0586-.08593.07421-.07422.11719-.17969.0586-.08594v-.14844l-.07423-.07421-.10156-.04688-.10547-.04297-.10156-.04297-.0586-.08984-.04687-.10547-.02734-.11719.08984-.05859.11719-.03125.10156-.04297.17969-.11719.14844-.14843.01172-.13282-.01172-.10546-.08985-.0586-.1328.01563h-.14845l-.1328.01562-.13282-.01562-.1211-.03125-.08593-.0586-.07422-.07422-.0586-.08984-.0625-.08594-.11718-.17969-.0586-.08593.03125-.1211.08594-.05859.1211-.03125.05859-.08594v-.1211l-.03125-.11718-.0586-.08984-.05859-.08594-.04687-.10547-.02735-.11719-.01562-.1328.0586-.08985.07421-.07422.08984-.0586.1172-.17968.07421-.07422.0586-.08594.14843-.14844.1211-.03125.1328-.01562.13282.01562.07422.07422.04297.10547.01562.13281-.03125.1172-.11719.03124-.1328.01172-.14844.14844-.04297.10547-.04688.10156-.02734.1211-.03125.11718v.14844l.03125.11719.04297.10546.05859.08985.07422.07031.07422.07422.11719.03125.12109.02734.11719-.02734.1328-.01563h.1172l.08984.0586.07422.07422.04687.10546.0586.08594.10156.04688.13281.01562.10547.04297.08594.0586-.01172.10546-.07422.07422-.17969.11719-.05859.08984-.08984.0586-.07032.07422-.07421.07421-.0625.08985-.02735.11719-.01562.1328.01562.13282-.01562.13281v.14844l.01562.13281.02735.1172.03125.12108.07421.07422.08985.0586.08594.0586.08984.05858.11719.03125v.08594l-.10157.04688-.08984.0586-.26563.03124-.11718.02735h-.14844l-.10547.04296-.10156.04688-.0586.08984-.0625.23438-.01171.13281-.03125.1211-.01563.1328v.29298l-.01172.1328.01172.13673.01563.1328.1328.01563.13282.01172.1211.03125.08593.0586.07422.07421.04688.10547.04296.10157.01563.1328v.44532l-.01563.13281v.44532l.03125.26562.02735.11719.01562.13281.03125.11719.08594.21094.03125.26562v.14844l-.03125.11719-.02734.11718-.03125.1211-.02735.11719-.03125.11718-.03125.1211-.01171.1328-.01563.13282.08984.0586.1172-.03125.10155.01562.04688.10547-.03125.26562v.44141l-.04297.10547-.04688.10547-.04296.10156-.04297.10547-.0586.08594-.03125.12109-.04296.11719-.03125.11719-.01563.1328.01563.13282.05859.08984.10547.04688.08594.0586.05859.08593-.01172.13672-.03125.11719-.04297.10156v.44531l-.01562.13281v.14844l-.03125.11719-.04297.10547-.02735.11719-.04687.10546-.04297.10157-.03125.12109-.02734.11719-.03125.13281-.03125.11719-.02735.11719-.04297.10546-.03125.1172-.03125.12108-.01171.13282-.01563.13281v.29688l.02734.11718v.14844l.04688.39844.02734.11719.0586.08984.12109.03125h.14844l.13281-.01563.0586.08985v.11719l-.0586.08984-.08984.0586-.10157.04296-.10546.04688-.08985.05859-.08594.0586-.13671.01562-.1172-.03125-.1328-.01563-.10157.04688-.0625.08594-.01172.13671-.01562.13282-.03125.11719-.02735.11718-.01562.13281-.03125.1211v.29687l.01563.13282.03125.11718v.14844l.01171.13281v.14844l-.02734.11719-.04688.10156-.02734.1211-.03125.11718-.0586.08985-.07421.07421-.10156.04297-.10547.04688-.11719.02734-.1211.03125-.10156-.04687.0586-.08594.10547-.04688.02734-.11718.03125-.11719.02734-.1211.03125-.11718v-.14844l.01563-.13281-.03125-.11719-.04297-.10547-.10547.01563-.07422.07422-.10156.04296-.08984.0625-.07422.07422-.04297.10157-.01563.1328-.03125.1172L304.25 426l-.03125.11719-.02734.11719-.03125.12109-.02735.11719-.03125.11718-.04297.10547-.08984.0586h-.08984l-.1172-.03125-.03124-.08594.01562-.13672-.03125-.11719v-.14844l-.01171-.1328v-.14844l-.0625-.23438-.02735-.1211-.04297-.10156-.04687-.10546-.0586-.08594-.05859-.08985-.04297-.10546-.0625-.08594-.14844-.14844-.0703-.07422-.10548-.04687-.10547-.04297-.10156-.04297-.29687-.29688-.08985-.07421-.08594-.0586-.10546-.04297-.08985-.0625-.08594-.0586-.10546-.04296-.08985-.0586-.08594-.0625-.07421-.0703-.10547-.04688-.08594-.0586-.10547-.04296-.08984-.0625-.10156-.04297-.10547-.04297-.08594-.0586-.10547-.04687-.10547-.04297-.10156-.04687-.08985-.0586-.10156-.04297-.10547-.04296-.08984-.0625-.11719-.02735-.13281-.01562-.13281.01562H299.75l-.13281.01563-.11719-.03125-.08984-.0586-.07422-.07422-.08985-.05859-.10156-.04688h-.14844l-.12109-.02734-.10156-.04297-.07422-.07422-.11719-.17968-.08984-.0586-.10156-.04297-.08985-.0625-.10547-.04296-.08984-.0586-.08594-.0586-.10547-.04687-.0586-.08594-.05858-.08984-.04297-.10547-.04688-.10156-.07422-.07422-.08594-.0586-.07421-.07421-.08985-.0586-.22265-.22265-.04297-.10547-.03125-.26563.10547-.04296h.14453l.10547.04296.07421.07422.08985.0586.08594.0586.10546.04687.08985.05859.14844.14844.0703.07422.14845.14843.0625.08594.07421.07422.08594.0586.07422.07421.08985.0625.08984.0586.08594.05859.26953.17578.10156.04688.10547.04296.10156.04297.04688-.07421.05859-.08594.07422-.07422.07031-.07422.10547.04297.07422.07422.0586.08984.04296.10156.04688.10547.04296.10547.1211.02735.11719-.02735.07421-.08984.04297-.10547.0586-.08985.07422-.07421.10546-.04297.1172-.02735.1328.01172.08985.0586.14844.14843.05859.08985.04297.10547.04687.10156.04297.10547.04297.10156.10547.04688.10547.04296.13281.01563.08594-.0586.0586-.08984.07421-.07422.10547-.04297.11719.02735.10547.04687.10156.04297.10547.04297.10156.04688.17969.11718v.11719l-.01563.13281.01563.13281.01562.13672.0586.08594.10156.04688.1211.02734.11718.03125h.14844l.11719-.03125.05859-.08984.17969-.1172.05859-.08983.07422-.07422.0586-.08594.11718-.17969.17969-.11719.11719.03125.08984.0586.04297.07422-.01563.1328v.1172l.08985.05859h.14843l.13282-.01563.1328-.01171.26563-.03125.10547-.04297.11719-.03125.1211-.02735.07421-.07421.07031-.07422.0625-.08985-.01562-.10547-.04688-.10156-.10156-.04297-.10547-.01562-.11718.02734-.26563.03125h-.14844l-.07421-.07422-.08985-.0586-.11719-.03124-.11718-.02735-.13282-.01562h-.14843l-.13282.01563h-.29687l-.10547-.04688-.14844-.14844-.04297-.10156-.05859-.08984.22266-.22266.08593-.0586.10547-.04296.11719-.03125.13281-.01563.13281.01563.13672.01562.10157.04297.1328-.01172.08985-.0625.10156-.04297.0625-.08984-.04687-.10156-.08984-.0586-.1172-.03125-.10155-.04296-.0586-.08985-.0625-.08984v-.11719l.01563-.13281.10547-.04688.07421-.07031v-.1211l-.08984-.05859-.03125-.11719.08985-.05859.07421-.07422.04297-.10547.0586-.08984.04687-.10156.01563-.13281v-.14844l-.04688-.10547-.04297-.10156-.08984-.0586-.13281-.01562-.10157-.04297-.13671-.01563-.1172-.03125h-.4453l-.13282-.01562-.13281-.01172-.13281-.01563-.11719-.03125h-.14844l-.13281-.01562-.13281-.01172-.26563-.03125-.1211-.04297-.08593-.0586-.07422-.07421v-.14844l.01172-.13281.10547-.04688.10156-.04296.13281-.01563h.15235l.13281-.01562h.29297l.1211.03125.10156.04296.08984.0586.23438.0625.12109-.04688.08984-.05859.10156-.04297.13282-.01562.10547.04296.10156.04688.13281.01172.1211-.02735h.14453l.12109-.03125.11719-.02734.10547-.04687.07421-.07422.08594-.0586.14844-.14843.0586-.08594.04687-.10547.02734-.11719.01563-.10547-.10156-.04296-.08985-.0586-.11719-.03125-.10546-.04297-.08985-.0625-.07422-.08594-.07422-.07421-.10156-.04297-.10547-.04688-.10156-.04297-.0586-.08984-.04687-.10156-.08594-.21094-.0625-.08594-.05859-.08984-.07422-.07422-.08594-.0586h-.26953l-.11719.03126-.08984.05859-.10156.04297-.13281.01562-.10547-.01562-.02735-.11719-.0625-.08984-.11718-.03125-.10157-.04297-.14843-.14844-.03125-.11719-.01563-.10546.07422-.07422.17969-.1172.11719-.02733.11718-.03125.13672.01562.10156.04297.10547.04297.10156.04687.10547.04297.1172.03125.1328.01563.1172.02734.1328.01563.10547-.01563.08985-.0586-.07422-.07421-.10547-.04297-.07422-.07422-.07422-.08984-.14844-.14844-.08593-.0586-.08985-.05859-.07422-.07422-.08984-.0586-.10156-.04687-.1211-.02734-.10156-.04688-.10547-.04296-.11719-.03125-.10156-.04297-.1211-.03125h-.14843l-.11719.03125-.10546.04297-.08594.0625-.17969.11718-.08594.0586-.08984.0586-.10547.04687-.08594.05859-.10547.04297-.10156.04297-.10547.04687-.07422.07422-.05859.08985-.0586.08593-.04687.10547-.0586.08594-.07421.07422-.13281-.01172-.1172-.03125h-.11718l-.07422.07422-.08984.0586-.07422.07421-.08984.0586-.08594.05859-.10547.04687-.10156.04297-.13672.01563-.10156-.04297-.14844-.14844-.10547-.04688h-.08594l-.10547.04688-.10156.04297-.1211.03125-.11718-.03125-.07422-.07422v-.11719l.03125-.1211.07422-.0703.0586-.08985.07421-.07422.11719-.03125.10547-.04296h.29297l.13281-.01563.13672-.01563.10156-.04296.08985-.0586.10156-.04687.08984-.0586.13281-.01171.08985.05859.13281.01172.08984-.0586.08594-.05859.10547-.04297.08984-.0586.08594-.0625.08985-.05859.14843-.14843.0586-.08594.05859-.08985.10547-.04296.13281-.01563.11719.02735.1211.03125.05859-.0586.05859-.08984.03125-.26563.02734-.11719.10547.01172.13281.01563.10157-.04297.08984-.0586.0586-.08984.07421-.07422.0586-.08984.04687-.10156.01172-.13281-.01172-.13282-.04687-.10547-.14844-.14843-.0586-.08985-.05859-.08594-.04297-.10546v-.44532l.01563-.1328v-.14845l.01172-.1328-.0586-.0586-.08984.0586-.10156-.04298-.17969-.11719-.08594-.05859-.0625-.08984-.0586-.08985-.07421-.07421-.08594-.0586-.1211.03125-.10155.01172-.10547.04688-.08594.05859-.10547.04297-.14844.14844-.08984.05859-.08594.0586-.08984.0625-.10547.04296-.13281.01563v-.1211l.10547-.04297.11718-.03125.07422-.0703.04297-.10548v-.14844l-.02734-.11718-.14844-.14844-.13281-.01563h-.14844l-.11719.03125-.10547.04297-.10156.04297-.08984.0625-.11719.02735-.07422-.07422.01172-.13281-.04297-.10157-.04297-.10547-.08984-.05859-.11719.02734-.1211.03125-.11718.03125-.10156.04297-.1211.03125-.10156.04297-.10547.04297-.08984.0586-.10156.01562v-.11719l.01562-.13281-.0586-.08985-.07421.04297-.14844.14844-.0586.08985-.07421.07421-.04688.10547-.04296.10156-.07422.07422-.0586.08985-.07422.07422-.05859.08593-.07422.07422-.08984.0625-.07422.07031-.07422.07422-.10156.01563-.13281.01562-.10547-.04296v-.1211l.14843-.14844.04297-.10156.0586-.08984.04687-.10156.04297-.10547.0586-.08985.03124-.11719.04297-.10156.03125-.1211.02735-.11718.04687-.10547.04297-.10156.04297-.10547.07422-.07031.08984-.0625.08985-.0586.10156-.04296h.29687l.26563-.03125.10547-.04297-.07422-.07422-.11719-.03125-.10547-.04297-.08984-.0586-.10156-.04687-.08985-.0586-.10156-.04296-.10547-.04297-.08984-.0625-.08594-.0586-.10547-.04296-.10156-.04297-.1211-.03125-.11718-.03125-.10157-.04297L297.5 410.25l-.10156-.04297-.08985-.0586-.04296-.10546-.01563-.13281.10156-.04297.13281-.01563.13672.01563.13282-.01563.10156-.04297.0586-.08984.01562-.10547-.08985-.0586-.07421-.07421-.10157-.04297-.08984-.0586-.14844-.14843-.04297-.10547-.01562-.13281v-.29297l-.0586-.08985-.08984-.05859-.07422-.07422-.04297-.10547-.03125-.11718-.0586-.08985-.07421-.07422-.11719-.02734-.07422-.07422-.08984-.0586-.08984-.0625-.08594-.05859-.07422-.07421-.0586-.08594-.04687-.10547-.08594-.0586-.14843-.14843-.19532-.0586-.1328.01563-.10157.04297-.07422.07422-.04688.10156-.04296.10547-.0586.08984-.0586.08594-.29687.29687-.08984.0586h-.08594l-.0625-.08594-.04297-.10547.03125-.11719.0586-.08984.02734-.11719-.01172-.13281-.08984-.0625-.10547.04688-.11719.02734-.11719.03125-.26953.17578-.10156.04688-.11719.02734-.10546.04687-.08985.0586-.10156.04297-.0586-.08594-.04687-.10547.01563-.13281.04687-.10547.07031-.07422.07422-.07031.0586-.08985v-.14843l-.04297-.10547h-.23829l-.10156.04687-.03125.11719-.02734.11719-.03125.1211-.07422.04296-.13281.01563-.07422-.04688-.04297-.10156-.04297-.10547-.04687-.10156-.04297-.10547-.1211.03125-.10156.04297-.13281.01562-.11719.03125-.10547.04297-.08984.0586-.10156.04687-.1211.02734-.13281.01563-.10156-.04297-.0586-.08985-.04687-.10546-.04297-.10157-.04297-.10546v-.1172l.0586-.08984.08593-.05859.17969-.11719.10156-.04687.10547-.04297.10547-.0586.10156-.04296.08985-.0625.10156-.04297.10547-.0586.10156-.04687.08984-.0586.10547-.04296.10156-.04297.08985-.0625.10156-.04297.13672-.01563.11719.03125.10156.04297.1211.03125.10156.04297.10546.04688.10157.04296.10547.04297.10156.04688.10547.04297.10156.04297.10547.04687.08594.0586.10546.04296.1172.03125.10546.04297.10156.04688.08985.0586.10547.04296.10156.04297.10547.04687.11719.02735.10156.04687.1211.02735h.14843l.08594-.0586.01562-.10156.0586-.08984-.02735-.1172-.07422-.07421-.11719-.17969-.07421-.07422-.08985-.07421-.17969-.1172-.08593-.05859-.10547-.04296-.10156-.04688-.26954-.17578-.05859-.08985-.07422-.07421-.0586-.08985-.04296-.10156-.03125-.11719-.01563-.13672v-.5625l-.01171-.1328-.01563-.13282-.03125-.11719-.01562-.13281-.01172-.13281-.03125-.1211-.22266-.22265-.0586-.08594-.01562-.10547.03125-.11719.13281-.01562v-91.41406H172.9922v1.45312l-.0586.23438-.35156 1.05078-.17187.52343-.1172.34766-.17577.41016-.11719.17187-.23438.29297-.23046.0586h-.35157l-.11718.05859-.23047.40625v.29297l.11719.17578.23046.23047.1172.23437.64062.75781.29297.46485.17578.23437.23047.35156.23437.34766.64063.8164.17578.46485.17187.41016.11719.69531.17578.46875.11719 1.39844.0586.46484v.875l.11718 1.04688v4.78125l-.0586.46484-.35156 1.28125-.17578.52344-.11328.41015-.35156.9297L172.93359 336l-.23437.58203-.11719.17578-.17187.34766-.17578.40625-.35157.8164-.0586.29297-.11327.29297-.11719.28906-.0586.17579-.11718.875-.0586.40625-.05859.11718-.0586.17579-.05859.17187-.23047.52734-.11718.17188v.23437l-.11719.23438-.0586.17187-.17577.58594v.28906l-.0586.17579v.29296l-.0586.11329-.05859.52734v.17187l-.05468.23438v2.6211l-.17578.8164-.1172.17578-.17577.23438-.1172.17187-.11327.23438-.58594.93359-.23047.28906-.29297.46485-.17578.23437-.28906.35156-.35156.69922-.11328.23047-.17579.41016-.17578.23046-.40625.52735-.8164.69922-.29297.17187-.28906.23438-.17579.11719-.17578.17578-.52344.40625-.52734.17578-.17187.17578-.23438.05469-.64062.17578h-.75782m12.21094 31.02344l-1.07422.44921.35938.89454 1.25-.71485.44531-.53906-.98047-.08985"/><path fill="#d3d3d3" fill-opacity="0" fill-rule="evenodd" d="M201.50781 416.59766h-.89453l.44922.6289.98047.35938.80469-.08985.4453-.98828-.17577.08985-.71485-.35547-.89453.35547m154.6211 59.0703l-.0586-.52343v-.29297l.11328-.29297.0586-.23046.46875-.46875h.11328l.11719-.11329.11718-.05859h.17579l.23437-.0586h.34766l.23437.0586.11719.0586.23047.17187.0586.17578.11718.58203v.29297l-.11719.17578-.17187.28906-.17579.17579-.52734.52343-.23047.23438-.11719.0586h-.17578l-.11718-.0586-.40625-.29297-.17579-.11719-.11718-.0586-.0586-.11327-.05468-.1172m6.64062-10.95702l-.0586-.17188v-1.10937l.0586-.17188.17578-.0586.17188-.05858h.17578l.23437-.0586.1172.0586.05858.69921-.05859.17188-.11719.17578-.11718.0586-.23438.52343-.11328.0586h-.23438l-.05859-.1172m9.61328-14.39062l-.11719-.17578v-.69922l.29297-.875.1172-.17187.17577-.35156.11328-.23047.1172-.29297.35155-.75781.1172-.23047.17187-.23438h.17578l.11719-.0586h.64062l.11719.0586.23437.23438.17188.11328.35156.29297.11719.11718.11328.17579v.11328l.11719.05859.11718.11719v.69922l-.05859.17578v.23047l-.0586.17578-.34765 1.05078-.11719.23047-.11719.23437-.11718.0586-.23047.23437-.64063.28906h-.875l-.41015-.11718-.64063-.46485"/><path fill="none" stroke="#bebebe" stroke-linecap="round" stroke-linejoin="round" stroke-miterlimit="10" stroke-width=".5" d="M467.95703 311.69531H144.02734v168.625h323.9297v-168.625"/><g clip-path="url(#a)"><path fill="#fff" fill-opacity="0" fill-rule="evenodd" d="M144 475.89063v4.4375h.0039H144V357.2539v118.63671"/></g><g clip-path="url(#b)"><path fill="#fff" fill-opacity="0" fill-rule="evenodd" d="M144 351.61719v1.96875-41.91406h.0039H144v39.9453"/></g><path fill="#50fcfc" fill-rule="evenodd" d="M144 353.58594v3.66797l.0039-.00391v-3.65625l-.0039-.00781"/><g clip-path="url(#c)"><path fill="#fff" fill-opacity="0" fill-rule="evenodd" d="M144.0039 480.32813V357.25l1.20704-1.19531-1.20703-2.46094v-41.92188h13.3125v72.5625l-3.2461 2.89063-1.19531.17969-4.4375.14453-4.0625 4.11328-.29688 4.4375.3086 4.4375 4.05078 4.24219 4.4375.17187.0625.02344-.0625.13672-3.14063 4.30469 1.09766 4.4375 2.04297 1.6914 4.4414 1.22656 4.4375-.69921 1.19141 2.21875.82422 4.4375 2.42188 2.32812 4.4375-2.1875.17187-.14062 4.26563-1.73047 4.4414-.14063 4.4375-.40625 4.4375-1.04687 1.96094-1.11328 2.47656-.22657 4.07813.22657.36328.16015 4.4375 3.98828.42187.28907 4.01563 3.90625 4.4375.14843 4.4414-.05468 3.57422.4414.86328.49219 4.17579 3.94531.26172.21875.92578-.21875 3.51172-2.13281 1.77734-2.30469-1.77734-.97265-4.38672-3.46875-.05078-.08985-.54297-4.34765.23047-4.4375-.66797-4.4375-3.45703-3.40235-2.0625-1.03906-2.375-1.91797-2.04688-2.51953-2.39453-2.42969-4.4375.0664-2.3086 2.36329.48047 4.4375-2.60937.34766-4.4375-.125-.39063-.22266-.53906-4.4375-3.51172-4.14453L192.25 396l-3.86719-2.86719-.76562-1.57031-3.67188-3.65625-4.04297 3.65625-.39453.65234-4.4414.41407-4.4375-.1211-1.52735-.94531-2.91015-2.40234-1.78907-2.03516-2.64843-2.34766-4.4375-.54296v-72.5625h17.75v32.64453l-2.88282 2.86328-.03125 4.4375 2.91407 2.5039 2.51953-2.5039.98047-4.4375-3.5-2.86328v-32.64454h22.1953v59.71094l-4.4414.67188-1.27734 1.7539-3.16016 3.21094-1.22656 1.22656 1.22656 1.22657 4.4375-.48829 2.09766 3.69922-1.375 4.44141 3.71875 3.57813 2.08594.85937 2.35156 2.60156 4.4375-2.41406.17578-.1875 3.09375-4.4375-3.26953-3.32031-1.63281-1.1211.05078-4.4375-2.85547-2.89062-2.01953-1.54688-2.41797-2.42578v-59.71094h35.5039v92.89844l-.3203.30469.3203.28906.31641-.28906-.3164-.30469v-92.89844h53.26171v108.26954l-4.4375 2.66406-.02343.02344.02343.02343 4.4375 2.69922 3.96094-2.72265-3.96094-2.6875V311.67187h22.19141V392.625L304.51953 396l-.44922 4.4375-.28906.46875-4.4375 3.65234-.35547.31641.35547 1.35938 4.22266 3.08203-.40625 4.4375.62109.4453 4.4375 3.57032V430l-1.5039 1.50781-2.9336 3.96485-.73047.47265.73047.97656.6289-.97656 3.8086-2.60156 1.7539-1.83594L308.21876 430v-12.23047l4.4375-1.00781 3.01563-3.00781.21875-4.4375 1.20703-.98829 3.0078-3.45312-3.0078-3.07813-3.96875 3.07813-.47266.59766-1.60547-.59766.15625-4.4375.71485-4.4375-3.70313-3.375v-80.95313h17.7539v80.86329L322.6211 396l3.35157 3.85156 4.4375-1.67578 1.57812 2.26172 1.03516 4.4375 1.82422 3.0039 1.41796 1.4375-1.41796.53907-4.4375 3.46094-.42579.4375-3.58203 4.4375 4.00782 3.6914 4.4375-.57812 4.42578 1.32422-3.03516 4.4414 3.05078 2.90625 1.95703 1.53125 2.48047 3.01563 2.40625-3.01563.05469-4.4375-2.46094-2.91797-4.41015-1.52343-.02735-.33204-.07812-4.10546.07812-1.3086.21875-3.1289 4.21875-1.27735 4.4375.36328 4.4375.23438v18.57812l-4.34375 4.29297-.09375.10938-3.4961 4.32812-.9414 3.29297-1.16015 1.14453 1.16015 1.21875 4.4375 2.10938 4.4375.15625 4.4414-1.0664 4.4375-1.22657 4.4375 1.21875 1.02735 2.03125 3.41016 3.4961 1.4961.9414L374.79296 456l3.59765-2.30078-3.59765-2.23828-1.51953-2.19922 1.51953-1.09766 3.34765-3.34375-3.34765-4.27344-.04688-.16406.04688-.3164 3.92187-4.1211-3.92187-2.6836-4.4375-.01952-4.4375-.14844-4.4375-.17969-4.4375-.4375-4.4414-.82422v-18.57812l4.4414-1.77344 1.94922-1.98437 1.64844-4.44141-3.59766-3.47266-2.01172-.96484-2.42969-4.3789-.04297-.0586-4.39453-2.48828-4.4375-.63281L340.28906 396l-1 .61719-.82031-.61719-3.6211-3.16016-4.4375 1.0586-4.4375-1.36328v-80.86329h13.31641v75.2422l-.67578.21093.67578.41016.20703-.41016-.20703-.21094v-75.24219h22.1914v72.08204l-3.51171 3.37109-.92578 4.35938-.0664.07812.0664.08203.13672-.08203 4.30078-.55078v35.66797l-.3164.39062.3164.3164 4.4375.08985.42578-.40625-.42578-.33984-4.4375-.05078v-35.66797l4.4375-2.53125 1.32812-1.35547-1.32812-1.28516-4.4375-2.08593v-72.08204h22.1914v140.20704l-3.11718 1.8203 3.11719 1.58985 1.94921-1.58984-1.94921-1.82031V311.67187h48.8203v133.7461l-4.4375.86719-3 2.97656.28516 4.4375 2.71485 2.53125 4.4375 1.46094 4.4375-1.14844 2.78125-2.84375.65625-4.4375-3.4375-3.4414-4.4375-.40235v-133.7461h17.7539v71.14454l-3.96484 4.30859-.47266 1.8164-4.4375 1.33985-1.0039 1.28125L439.5625 396l1.8086 2.79297 4.35546 1.64453.08203.05469 1.39063 4.38281 3.04687 3.61328v40.58985l-.71093.18359-1.45313 4.4375 2.16406 1.88672 1.88672-1.88672-1.70703-4.4375-.17969-.1836v-40.58984l.64063.82813 3.79687 2.92968 4.44141-2.30468.5-.625-.5-.5-1.89844-3.94141-2.54297-3.90234-.15625-.53516-.79296-4.4375-2.21485-4.4375 1.74219-4.4375-3.01563-4.3086v-71.14452h8.87891v63.8828l-3.04297 2.69141-.13281 4.4375 3.17578 2.91407 2.89063-2.91407-.19922-4.4375-2.69141-2.6914v-63.88281h8.8711v80.15234l-4.4336.85156L460.30078 396l3.26172 3.30469 4.4336-.10938v81.13281H144.0039"/></g><path fill="#50fcfc" fill-rule="evenodd" d="M145.21094 356.05469L144.0039 357.25v-3.65625l1.20703 2.46094m-.82422 44.38281l-.3086-4.4375.29688-4.4375 4.0625-4.11328 4.4375-.14453v.52734l-4.4375.1914-3.4961 3.53907-.74609 4.4375.76953 4.4375 3.47266 3.63672 4.4375.09765 1.78516.70313-1.78516 3.85156-.42578.58985.42578.86328 4.4414 3.55078 4.4375-.79297 4.4375-.54297 4.17188-3.07812.26563-.7422v7.54688l-4.4375 1.34766-.41407.72266.41407 1.55078 4.4375.52734 3.70312-2.07812-3.70312-2.07032v-7.54687l1.17968-3.69922 2.22266-4.4375 1.03516-3.66797 4.4414 1.9375v3.86719l-4.4414.38281-1.08203 1.91797-.51954 4.4414-2.6328 4.4375 4.23437 1.26173 2.35547-1.26172 2.08593-1.66797 1.60547-2.76953L182.5 404.875l-2.99219-2.30078v-3.86719l1.2539 1.73047 3.1836 2.78516L186 404.875l-1.77344 4.4414-.28125.54298-2.64844 3.89453 2.64844 3.28515 4.4375.1875 4.4375-.0664 4.4414.41015.9336.6211 3.5039 3.2539 1.71876 1.1836 2.71875 2.64453 4.4375.82031 4.4414-.9961 4.4375-1.01952 1.38282-1.44922.5664-4.4375.63672-4.4375-1.89453-4.4375-.6914-.6797-4.4375-3.1289-4.07813-.63281-.36328-.58984-.23828.58984-4.19922 3.0586-4.4375-.89454-4.4375-1.40234-1.33203-.76172-1.01563-4.4375-2.09375-2.46875L188.98047 396l-.59766-.44531-1.94922-3.99219-2.48828-2.47656-2.74219 2.47656-1.6953 2.80469-4.44141 1.40234-1.75.23047-2.6875.39453-.27344-.39453-4.16406-3.36328-2.88672-1.07422-1.55078-1.8086-2.33203 1.8086-2.10547.96875-.16016-.96875-4.28125-3.73047v-.52734l1.19531-.17969 3.2461-2.89063 4.4375.54297 2.64843 2.34766 1.78907 2.03516 2.91015 2.40234 1.52735.94531 4.4375.1211 4.4414-.41407.39453-.65234 4.04297-3.65625 3.67188 3.65625.76562 1.57031L192.25 396l.57031.29297 3.51172 4.14453.53906 4.4375.39063.22266 4.4375.125 2.60937-.34766-.48047-4.4375 2.3086-2.36328 4.4375-.0664 2.39453 2.42968 2.04688 2.51953 2.375 1.91797 2.0625 1.03906 3.45703 3.40235.66797 4.4375-.23047 4.4375.54297 4.34765.05078.08985 4.38672 3.46875 1.77734.97265-1.77734 2.30469-3.51172 2.13281-.92578.21875-.26172-.21875-4.17578-3.94531-.86329-.49219-3.57422-.4414-4.4414.05468-4.4375-.14843-4.01563-3.90625-.42187-.28907-4.4375-3.98828-.36328-.16015-4.07813-.22657-2.47656.22657-1.96094 1.11328-4.4375 1.04687-4.4375.40625-4.4414.14063-4.26563 1.73047-.17187.14062-4.4375 2.1875-2.42188-2.32812-.82422-4.4375-1.1914-2.21875-4.4375.69921-4.44141-1.22656-2.04297-1.6914-1.09766-4.4375 3.14063-4.3047.0625-.13671-.0625-.02344-4.4375-.17187-4.05078-4.24219"/><path fill="#00e8fc" fill-rule="evenodd" d="M144.96484 400.4375L144.19531 396l.7461-4.4375 3.49609-3.53906 4.4375-.1914v.8828l-4.4375.25782-2.5586 2.58984L144.39064 396l1.54296 4.4375 2.50391 2.625 4.4375-.02344 3.85156-2.60156.48438-4.4375-1.0664-4.4375-3.26954-2.84766v-.8828l4.28125 3.73046.16016.96875 2.10547-.96875 2.33203-1.8086v3.6836L158.55078 396l-.73047 4.4375-.375 4.4375-.1289.44922-1.85157 3.99219 1.85157 1.73046 4.4375-.4453 4.4375-1.23829.0703-.04687 2.6836-4.44141.92578-4.4375L166.25781 396l-.0664-.05469-4.4375-2.50781v-3.6836l1.55078 1.8086 2.88672 1.07422L170.35547 396l.27344.39453L173.3164 396l1.75-.23047 4.4414-1.40234 1.69531-2.80469 2.7422-2.47656v1.96094l-.57032.51562L180.88672 396l3.0586 3.65234L186.5 396l-2.03516-4.4375-.51953-.51563v-1.96093l2.48828 2.47656 1.94922 3.99219.59766.44531 3.83984 1.96875v2.9375l-2.94922 3.96875-1.48828 2.78125-.9414 1.66016-1.9336 4.4375 2.875 1.40625 4.4375.66406 4.4414.67969 2.53517 1.6875 1.90234 1.76562 3.88281 2.67188.55469.54296 4.4375 1.94141 4.38281-2.48437.0586-.03907 4.01171-4.39843.42578-4.3125.02735-.125-.02734-.0586-2.01172-4.3789-2.42578-1.9297-4.44141 1.04688-1.0586.88282-3.3789 1.46093-4.4375-.76171-.33203-.69922-4.10547-2.78125-2.90625-1.66016-1.53516-3.96875v-2.9375l2.09375 2.46875 1.01563 4.4375 1.33203.76172 4.4375 1.40234 4.4375.89453 4.19922-3.05859.23828-.58984.36328.58984 4.07813.63281 4.4375 3.1289.6914.6797 1.89453 4.4375-.63672 4.4375-.5664 4.4375-1.38281 1.44921-4.4375 1.01954-4.44141.99609-4.4375-.82031-2.71875-2.64453-1.71875-1.1836-3.5039-3.2539-.9336-.6211-4.4414-.41015-4.4375.0664-4.4375-.1875-2.64845-3.28515 2.64844-3.89454.28125-.54296L186 404.875l-2.05469-1.65234-3.1836-2.78516-1.2539-1.73047-4.4414-1.9375-1.03516 3.66797-2.22266 4.4375-1.17968 3.69922-.26563.74219-4.17187 3.07812-4.4375.54297-4.4375.79297-4.44141-3.55078-.42578-.86328.42578-.58985 1.78516-3.85156-1.78516-.70313-4.4375-.09765-3.47266-3.63672"/><path fill="#00d4fc" fill-rule="evenodd" d="M145.9336 400.4375L144.39061 396l1.48829-4.4375 2.55859-2.58984 4.4375-.25782v.87891l-4.4375.33203-1.61719 1.63672L144.58594 396l2.3125 4.4375 1.53906 1.61328 4.4375-.14453 2.17188-1.46875L156.96483 396l-1.83203-4.4375-2.25781-1.96875v-.8789l3.26953 2.84765 1.0664 4.4375-.48437 4.4375-3.85156 2.60156-4.4375.02344-2.5039-2.625"/><path fill="#00c4fc" fill-rule="evenodd" d="M146.89844 400.4375L144.58594 396l2.23437-4.4375 1.61719-1.63672 4.4375-.33203v.88281l-4.4375.40235-.67578.68359L144.78125 396l3.08594 4.4375.57031.60156 4.4375-.26953.49219-.33203L156.72266 396l-2.60157-4.4375-1.24609-1.08594v-.88281l2.25781 1.96875L156.96484 396l-1.91797 4.4375-2.17187 1.46875-4.4375.14453-1.53906-1.61328"/><path fill="#00b8fc" fill-rule="evenodd" d="M147.86719 400.4375L144.78125 396l2.98047-4.4375.67578-.6836 4.4375-.40234v.8789l-2.00781.20704-2.42969.07031L144.97656 396l3.46094 4.33984 4.4375-.10546L156.47656 396l-3.36328-4.4375-.23828-.20703v-.8789l1.2461 1.08593L156.72265 396l-3.35547 4.4375-.49219.33203-4.4375.26953-.57031-.60156"/><path fill="#00a8fc" fill-rule="evenodd" d="M148.4375 400.33984L144.97656 396l3.46094-4.36719 2.42969-.07031 2.00781-.20703v.4414l-4.4375.08204L145.17187 396l3.26563 4.09375 4.4375-.14453L156.23438 396l-3.35938-4.20313v-.4414l.23828.20703L156.47656 396l-3.60156 4.23438-4.4375.10546"/><path fill="#009800" fill-rule="evenodd" d="M148.4375 400.09375L145.17187 396l3.26563-4.1211 4.4375-.08202v.30468l-4.4375.02344-3.07031 3.875 3.07031 3.84766 4.4375-.1836L155.99219 396l-3.11719-3.89844v-.30469L156.23438 396l-3.35938 3.94922-4.4375.14453"/><path fill="#00ac00" fill-rule="evenodd" d="M148.4375 399.84766L145.36719 396l3.07031-3.875v.2461L145.5625 396l2.875 3.60156 4.4375-.22656 2.8711-3.375-2.8711-3.59375-4.4375-.03516v-.24609l4.4375-.02344L155.99219 396l-3.11719 3.66406-4.4375.1836"/><path fill="#00c800" fill-rule="evenodd" d="M148.4375 399.60156L145.5625 396l2.875-3.6289v.49609L145.95703 396l2.48047 3.11328 4.4375-.3125L155.25781 396l-2.38281-2.98438-4.4375-.14843v-.4961l4.4375.03516L155.7461 396l-2.8711 3.375-4.4375.22656"/><path fill="#10cc00" fill-rule="evenodd" d="M148.4375 399.11328L145.95703 396l2.48047-3.13281v.49219L146.34766 396l2.08984 2.6211 4.4375-.39063L154.77344 396l-1.89844-2.375-4.4375-.26563v-.49218l4.4375.14844L155.25781 396l-2.38281 2.80078-4.4375.3125"/><path fill="#24d000" fill-rule="evenodd" d="M148.4375 398.6211L146.34766 396l2.08984-2.64063v.4922L146.73828 396l1.69922 2.13281 4.4375-.47656L154.28516 396l-1.41016-1.76172-4.4375-.38672v-.49219l4.4375.26563 1.89844 2.375-1.89844 2.23047-4.4375.39062"/><path fill="#3cd800" fill-rule="evenodd" d="M148.4375 398.13281L146.73828 396l1.69922-2.14844v.4961L147.1289 396l1.3086 1.64063 4.4375-.5586.92188-1.08203-.92188-1.15234-4.4375-.5v-.4961l4.4375.38672L154.28516 396l-1.41016 1.65625-4.4375.47656"/><path fill="#54dc00" fill-rule="evenodd" d="M148.4375 397.64063L147.1289 396l1.3086-1.65234v.49218L147.51953 396l.91797 1.15234 4.4375-.64453.4336-.50781-.4336-.54297-4.4375-.61719v-.49218l4.4375.5.92188 1.15234-.92188 1.08203-4.4375.5586"/><path fill="#e8e05c" fill-rule="evenodd" d="M148.4375 397.15234L147.51953 396l.91797-1.16016v.4961l-.52734.66406.52734.66016L152.53906 396l-4.10156-.66406v-.4961l4.4375.6172.4336.54296-.4336.50781-4.4375.64453"/><path fill="#e8d450" fill-rule="evenodd" d="M148.4375 396.66016L147.91016 396l.52734-.66406 4.10156.66406-4.10156.66016"/><path fill="#00d4fc" fill-rule="evenodd" d="M157.3164 411.04688l-1.85156-1.73047 1.85157-3.9922.1289-.44921.375-4.4375.73047-4.4375 3.20313-2.5625v2.27344l-.35938.28906-2.1289 4.4375-.00391 4.4375 2.49219 3.34375 4.4375-2.91406.26172-.42969 1.01171-4.4375-1.27343-1.55078L162.2578 396l-.5039-.28906v-2.27344l4.4375 2.50781.0664.05469 3.61328 4.4375-.92578 4.4375-2.6836 4.4414-.0703.04688-4.4375 1.23828-4.4375.44531"/><path fill="#00c4fc" fill-rule="evenodd" d="M161.7539 408.21875l-2.49218-3.34375.0039-4.4375L161.39453 396l.35938-.28906v2.71875l-1.04297 2.00781.36719 4.4375.67578.90625 1.30078-.90625 1.38672-4.4375-2.6875-2.00781v-2.71875l.5039.28906 3.9336 2.88672 1.27343 1.55078-1.01172 4.4375-.26171.42969-4.4375 2.91406"/><path fill="#00b8fc" fill-rule="evenodd" d="M161.07813 404.875l-.3672-4.4375 1.04298-2.00781 2.6875 2.00781-1.38672 4.4375-1.30078.90625-.67578-.90625"/><path fill="#00e8fc" fill-rule="evenodd" d="M166.1914 419.74219l-.41406-1.55078.41407-.72266 4.4375-1.34766 3.70312 2.07032-3.70312 2.07812-4.4375-.52734"/><path fill="#fff" fill-opacity="0" fill-rule="evenodd" d="M173.46484 409.3164l-2.6328 4.4375 4.23437 1.26173 2.35547-1.26172 2.08593-1.66797 1.60547-2.76953L182.5 404.875l-2.99219-2.30078-4.4414.38281-1.08203 1.91797-.51954 4.4414"/><path fill="#50fcfc" fill-rule="evenodd" d="M175.0664 354.1211l-2.91406-2.50391.03125-4.4375 2.88282-2.86328v2.36328l-.5.5.5 2.28515.60937-2.28515-.60937-.5v-2.36328l3.5 2.86328-.98047 4.4375-2.51953 2.5039"/><path fill="#00e8fc" fill-rule="evenodd" d="M175.0664 349.46484l-.5-2.28515.5-.5.60938.5-.60937 2.28515"/><path fill="#00d4fc" fill-rule="evenodd" d="M183.94531 399.65234L180.88671 396l2.48829-4.4375.57031-.51563v3.97266l-.53125.98047.53125.63281.4414-.63281-.4414-.98047v-3.97265l.51953.51562L186.5 396l-2.55469 3.65234"/><path fill="#00c4fc" fill-rule="evenodd" d="M183.94531 396.63281L183.41406 396l.53125-.98047.4414.98047-.4414.63281"/><path fill="#00d4fc" fill-rule="evenodd" d="M188.38281 415.16016l-2.875-1.40625 1.9336-4.4375.9414-1.66016 1.48828-2.78125 2.94922-3.96875v4.04297l-2.92578 4.36719.1211 4.4375 2.80468.73046 4.4414.95704 4.13673 2.75.30078.28125 4.4375 2.47656 1.45312 1.67969 2.98438 1.5 2.64844-1.5 1.79297-1.21485 2.9375-3.22265 1.02343-4.4375-3.90234-4.4375-.0586-.05079-.14453.05079-4.29687.67578-4.4375 2.69531-4.4375.15234-1.65625-3.52343-2.78125-1.88672-4.4414-2.48047v-4.04297l1.53515 3.96875 2.90625 1.66016 4.10547 2.78125.33203.69921 4.4375.76172 3.3789-1.46093 1.0586-.88282 4.4414-1.04687 2.42579 1.92969 2.01172 4.3789.02734.0586-.02734.125-.42579 4.3125-4.01172 4.39843-.05859.03907-4.38281 2.48437-4.4375-1.9414-.55469-.54297-3.88281-2.67188-1.90234-1.76562-2.53516-1.6875-4.4414-.6797-4.4375-.66405"/><path fill="#50fcfc" fill-rule="evenodd" d="M188.38281 379.47266l-1.22656-1.22657 1.22656-1.22656 3.16016-3.21094 1.27734-1.7539 4.4414-.67188v3.125l-2.54687 3.73828 2.54688 3.25391 3.75 1.1836-3.75.89062-2.3711 3.55078 2.3711 2.28125 4.4375 1.84766 4.4375-2.03907 1.51953-2.08984-1.51953-1.54297-4.22656-2.89844.27343-4.4375-.48437-.48828-4.4375-3.25v-3.125l2.41797 2.42578 2.01953 1.54688 2.85547 2.89062-.05078 4.4375 1.6328 1.1211 3.26954 3.32031-3.09375 4.4375-.17578.1875-4.4375 2.41406-2.35156-2.60156-2.08594-.85938-3.71875-3.57812 1.375-4.4414-2.09766-3.69923-4.4375.48829"/><path fill="#00c4fc" fill-rule="evenodd" d="M190.01563 413.7539l-.1211-4.4375 2.92578-4.36718v3.1875l-.78906 1.17969.78906 1.99609 1.9336 2.4414 2.5078.625 2.0625-.625-.60546-4.4375-1.45703-.98827-4.4414-.19141v-3.1875l4.4414 2.48047 2.78125 1.88672 1.65625 3.52343 4.4375-.15234 4.4375-2.69531 4.29687-.67578.14453-.05079v.57813l-4.4414 1.03516-3.90234 2.875-.53516 2.97265-.9375 1.46485.9375.49218 3.40625 3.94532 1.03125.51953.91797-.51953 3.52344-2.39454 1.86328-2.04296 1.61328-4.4375-3.47656-3.91016v-.57813l.05859.05079 3.90234 4.4375-1.02344 4.4375-2.9375 3.22265-1.79296 1.21485-2.64844 1.5-2.98438-1.5-1.45312-1.6797-4.4375-2.47655-.30078-.28125-4.13672-2.75-4.4414-.95704-2.8047-.73046"/><path fill="#00b8fc" fill-rule="evenodd" d="M192.82031 411.3125l-.78906-1.9961.78906-1.17968 4.4414.1914v.89454l-.61718.09375.61719.875.13281-.875-.13281-.09375v-.89454l1.45703.98829.60547 4.4375-2.0625.625-2.50781-.625-1.9336-2.44141"/><path fill="#00e8fc" fill-rule="evenodd" d="M197.26172 381.5l-2.54688-3.2539 2.54688-3.73829 4.4375 3.25v7.03906l-4.4375 2.14063-.125.1875.125.11719 4.4375 1.9961 3.04297-2.11329-3.04297-2.32813v-7.03906l.48437.48828-.27343 4.4375 4.22656 2.89844 1.51953 1.54297-1.51953 2.08984-4.4375 2.03907-4.4375-1.84766-2.3711-2.28125 2.3711-3.55078 3.75-.89063-3.75-1.18359"/><path fill="#00a8fc" fill-rule="evenodd" d="M197.26172 410.1914l-.61719-.875.61719-.09374.13281.09375-.13281.875"/><path fill="#00d4fc" fill-rule="evenodd" d="M197.26172 387.24219l-.125-.11719.125-.1875 4.4375-2.14063v2.21875l-.21484.10938.21484.09375.14062-.09375-.14062-.10938v-2.21875l3.04297 2.32813-3.04297 2.11328-4.4375-1.9961"/><path fill="#00c4fc" fill-rule="evenodd" d="M201.69922 387.21875l-.21484-.09375.21484-.10938.14062.10938-.14062.09375"/><path fill="#00b8fc" fill-rule="evenodd" d="M206.13672 418.6836l-.9375-.4922.9375-1.46484.53516-2.97265 3.90234-2.875 4.4414-1.03516v.53906l-4.4414 1.38672-2.69531 1.98438-.12891 4.4375 2.82422 3.30078 4.4414-2.4336.78907-.86718 2.20703-4.4375-2.9961-3.3711v-.53906l3.47657 3.91016-1.61328 4.4375-1.86328 2.04296-3.52344 2.39454-.91797.51953-1.03125-.51953-3.40625-3.94532"/><path fill="#00a8fc" fill-rule="evenodd" d="M210.57422 421.49219L207.75 418.1914l.1289-4.4375 2.69532-1.98438 4.4414-1.38672v.54297l-4.4414 1.73047-1.48828 1.09766.72656 4.4375.76172.89062 2.58984-.89062 1.85156-.21485 2.51563-4.22265-2.51563-2.82813v-.54297l2.9961 3.3711-2.20703 4.4375-.78906.86718-4.44141 2.4336"/><path fill="#009800" fill-rule="evenodd" d="M209.8125 418.1914l-.72656-4.4375 1.48828-1.09765 4.4414-1.73047v.54297l-4.4414 2.07813-.28125.20703.28125 1.20312 4.4414 2.21094 2.03125-3.41406-2.03125-2.28516v-.54297l2.51563 2.82813-2.51563 4.22265-1.85156.21485-2.58984.89062-.76172-.89062"/><path fill="#00ac00" fill-rule="evenodd" d="M210.57422 414.95703l-.28125-1.20312.28125-.20704 4.4414-2.07812v.53906l-3.58593 1.7461 3.58594 2.60546 1.55078-2.60546-1.55078-1.7461v-.53906l2.03125 2.28516-2.03125 3.41406-4.44141-2.21094"/><path fill="#00c800" fill-rule="evenodd" d="M215.01563 416.35938l-3.58594-2.60547 3.58594-1.7461v1.08594l-1.35938.66016 1.35938.98437.58593-.98437-.58594-.66016v-1.08594l1.55079 1.7461-1.55078 2.60546"/><path fill="#10cc00" fill-rule="evenodd" d="M215.01563 414.73828l-1.35938-.98437 1.35938-.66016.58593.66016-.58594.98437"/><path fill="#50fcfc" fill-rule="evenodd" d="M232.76563 405.16406l-.32032-.28906.32031-.30469.31641.30469-.3164.28906m48.82421 17.48828l-.02343-.02343.02343-.02344 4.4375-2.66406 3.96094 2.6875-3.96094 2.72265-4.4375-2.69922m17.75391-16.41796l-.35547-1.35938.35547-.3164 4.4375-3.65235.28906-.46875.44922-4.4375 3.69922-3.375v1.9336L306.64062 396l1.09766 4.4375.48047.69531V407.5l-4.3125 1.8164 4.3125.16407.71094-.16406-.71094-1.81641v-6.36719l.34766-.69531L309.80078 396l-1.58203-1.4414v-1.9336l3.70313 3.375-.71485 4.4375-.15625 4.4375 1.60547.59766.47266-.59766 3.96875-3.07813v2.21485l-1.1172.86328-3.32421 4.20313-.23047.23828-4.20703.98046-3.64063 3.45704 3.64063 3.25 4.4375-2.39063.86328-.85937-.66015-4.4375 4.23828-3.46875.84375-.97266-.84375-.86328v-2.21485l3.0078 3.07813-3.0078 3.45313-1.20704.98828-.21875 4.4375-3.01562 3.0078-4.4375 1.00782-4.4375-3.57031-.6211-.44531.40626-4.4375-4.22266-3.08204m4.4375 30.6875l-.73047-.97656.73047-.47265 2.9336-3.96485L308.21874 430l1.7539 1.50781-1.7539 1.83594-3.8086 2.60156-.6289.97656"/><path fill="#fff" fill-opacity="0" fill-rule="evenodd" d="M308.21875 407.5l-4.3125 1.8164 4.3125.16407.71094-.16406-.71094-1.81641"/><path fill="#00e8fc" fill-rule="evenodd" d="M308.21875 417.0039l-3.64063-3.25 3.64063-3.45702v1.36328l-2.20703 2.09375 2.20703 1.96875 2.97266-1.96875-2.97266-2.09375v-1.36329l4.20703-.98046.23047-.23829 3.32422-4.20312 1.11719-.86328.84375.86328-.84375.97266-4.23829 3.46875.66016 4.4375-.86328.85937-4.4375 2.39063"/><path fill="#00d4fc" fill-rule="evenodd" d="M308.21875 415.72266l-2.20703-1.96875 2.20703-2.09375v1.35937l-.77344.73438.77344.6875 1.04297-.6875-1.04297-.73438v-1.35937l2.97266 2.09375-2.97266 1.96875"/><path fill="#00e8fc" fill-rule="evenodd" d="M307.73828 400.4375L306.64063 396l1.57812-1.4414L309.80078 396l-1.23437 4.4375-.34766.69531-.48047-.69531"/><path fill="#00c4fc" fill-rule="evenodd" d="M308.21875 414.4414l-.77344-.6875.77344-.73437 1.04297.73438-1.04297.6875"/><path fill="#50fcfc" fill-rule="evenodd" d="M325.97266 399.85156L322.62109 396l3.35157-3.46484v2.02343L324.57812 396l1.39454 1.60156L328.79296 396l-2.8203-1.4414v-2.02344l4.4375 1.36328 4.4375-1.0586v2.375L332.86719 396l1.6836 4.4375.29687.78906 1.8789 3.64844 2.5625 2.58203 2.26953 1.85938 2.16797 1.05859 4.4375 1.08594 4.4375.5625 3.70703-2.70703.73438-1.67188 1.64453-2.76953-1.64453-1.58594-4.4414-2.28125-.9336-.57031-3.5039-3.9414L344.3789 396l-.65235-.09375-.10547.09375-4.33203 2.67578L335.7461 396l-.89843-.78516v-2.375L338.46875 396l.82031.61719 1-.61719 3.4375-3.1211 4.4375.63282L352.5586 396l.04297.0586 2.42969 4.3789 2.01172.96484 3.59765 3.47266-1.64843 4.4414-1.94922 1.98438-4.4414 1.77344-4.4375-.23438-4.4375-.36328-4.21876 1.27735-.21875 3.1289-.07812 1.3086.07812 4.10546v4.08594l-.47265.6875.47265.44922.9336-.44922-.9336-.6875v-4.08594l.02735.33204 4.41015 1.52343 2.46094 2.91797-.05469 4.4375-2.40625 3.01563-2.48047-3.01563-1.95703-1.53125-3.05078-2.90625 3.03516-4.4414-4.42578-1.32422-4.4375.57812-4.00782-3.6914 3.58204-4.4375.42578-.4375 4.4375-3.46094v2.44531l-1.72657 1.45313-2.71093 4.12109-.26563.3164.26563.2461.98437-.2461 3.45313-1.3203 1.6875-3.1172-1.6875-1.45312v-2.44531l1.41796-.53906-1.41796-1.4375-1.82422-3.00391-1.03516-4.4375-1.57812-2.26172-4.4375 1.67578"/><path fill="#00e8fc" fill-rule="evenodd" d="M325.97266 397.60156L324.57812 396l1.39454-1.4414 2.8203 1.4414-2.8203 1.60156m4.4375 20.83594l-.26563-.2461.26563-.3164 2.71093-4.1211 1.72657-1.45312 1.6875 1.45313-1.6875 3.11718-3.45313 1.32032-.98437.24609m4.14062-18L332.86718 396l1.98048-.78516.89843.78516 3.54297 2.67578L343.6211 396l.10547-.09375.65235.09375 3.78515.4961v4.5664l-4.4375 3.67969-.08984.13281.08984.07422 4.4375 4.04687.47656.32032 3.96094.95703 1.3125-.95703 1.0586-4.44141-2.3711-1.39844-4.4375-2.41406v-4.5664l3.5039 3.9414.9336.57031 4.4414 2.28125 1.64454 1.58594-1.64453 2.76953-.73438 1.67188-3.70703 2.70703-4.4375-.5625-4.4375-1.08594-2.16797-1.0586-2.26953-1.85937-2.5625-2.58203-1.8789-3.64844-.29688-.78906"/><path fill="#50fcfc" fill-rule="evenodd" d="M339.28906 387.53516l-.67578-.41016.67578-.21094.20703.21094-.20703.41016"/><path fill="#00e8fc" fill-rule="evenodd" d="M339.28906 427.51953l-.47265-.44922.47265-.6875.9336.6875-.9336.44922"/><path fill="#50fcfc" fill-rule="evenodd" d="M343.72656 446.03906l-1.16015-1.21875 1.16015-1.14453.9414-3.29297 3.4961-4.32812.09375-.10938 4.34375-4.29297v1.67579l-2.64844 2.61718-1.78906 2.07813-1.90625 2.35937.90235 4.4375 1.0039.6289 4.4375.6836 2.6211-1.3125-2.6211-1.94922-1.73047-2.48828 1.73047-1.46094 4.4414-.91796 4.4375-1.13672 3.66017-.92188-3.66016-.88281-4.4375-1.125-4.4414-.60938v-1.67578l4.4414.82422 4.4375.4375 4.4375.17969v5.5l-4.4375.51953-4.4375.39063-3.1836.8789 3.1836 2.23047 4.4375.95703 4.4375-.625.36719-2.5625-.3672-1.78906v-5.5l4.4375.14844v2.67187l-.51171.03125-2.96484 4.4375-.10547 4.4375 2.86719 4.4414.71484.73048.61328-.73047 3.82422-2.75781 1.6836-1.6836-1.6836-2.14844-.6875-2.28906-.27344-4.4375-3.47656-.03125v-2.67187l4.4375.01953 3.92187 2.6836-3.92187 4.12109-.04688.3164.04688.16406 3.34765 4.27344-3.34765 3.34375-1.51953 1.09766 1.51953 2.19922 3.59765 2.23828L374.79298 456l-2.9414-2.30078-1.4961-.9414-3.41016-3.4961-1.02734-2.03125-4.4375-1.21875-4.4375 1.22656-4.4414 1.0664-4.4375-.15624-4.4375-2.10938"/><path fill="#00d4fc" fill-rule="evenodd" d="M343.72656 404.94922l-.08984-.07422.08984-.13281 4.4375-3.67969 4.4375 2.41406 2.3711 1.39844-1.0586 4.4414-1.3125.95704-3.96094-.95703-.47656-.32032-4.4375-4.04687"/><path fill="#00e8fc" fill-rule="evenodd" d="M347.16016 444.82031l-.90235-4.4375 1.90625-2.35937 1.78906-2.07813 2.64844-2.61719 4.4414.60938 4.4375 1.125 3.66017.88281-3.66016.92188-4.4375 1.13672-4.4414.91796-1.73048 1.46094 1.73047 2.48828 2.6211 1.94922-2.6211 1.3125-4.4375-.6836-1.0039-.6289"/><path fill="#fff" fill-opacity="0" fill-rule="evenodd" d="M357.04297 439.5039l-3.1836.87891 3.1836 2.23047 4.4375.95703 4.4375-.625.36719-2.5625-.3672-1.78906-4.4375.51953-4.4375.39063"/><path fill="#50fcfc" fill-rule="evenodd" d="M357.04297 391.64453l-.0664-.08203.0664-.07813.92578-4.35937 3.51172-3.3711v1.60548l-1.83985 1.76562 1.83985 2.03516 2.66797-2.03516-2.66797-1.76563v-1.60546l4.4375 2.08593 1.32812 1.28516-1.32812 1.35547-4.4375 2.53125-4.30078.55078-.13672.08203"/><path fill="#00e8fc" fill-rule="evenodd" d="M361.48047 389.16016l-1.83985-2.03516 1.83985-1.76563 2.66797 1.76563-2.66797 2.03516"/><path fill="#50fcfc" fill-rule="evenodd" d="M361.48047 427.38672l-.3164-.3164.3164-.39063 4.4375.05078.42578.33984-.42578.40625-4.4375-.08984"/><path fill="#00e8fc" fill-rule="evenodd" d="M369.64063 449.26172l-2.8672-4.4414.10548-4.4375 2.96484-4.4375.51172-.03126v1.28906l-2.48438 3.1797 1.51563 4.4375.96875 1.35937 2.15625-1.35938.52734-4.4375-2.6836-3.17969v-1.28906l3.47657.03125.27344 4.4375.6875 2.28906 1.6836 2.14844-1.6836 1.6836-3.82422 2.7578-.61328.73048-.71485-.73047"/><path fill="#00d4fc" fill-rule="evenodd" d="M369.38672 444.82031l-1.51563-4.4375 2.48438-3.17969v1.26563l-1.4961 1.91406 1.4961 3.13281 1.61328-3.1328-1.61328-1.91407v-1.26563l2.6836 3.1797-.52735 4.4375-2.15625 1.35937-.96875-1.35938"/><path fill="#00c4fc" fill-rule="evenodd" d="M370.35547 443.51563l-1.4961-3.13282 1.4961-1.91406v1.26563l-.5039.64843.5039 1.0586.54687-1.0586-.54687-.64844v-1.26562l1.61328 1.91406-1.61328 3.13281"/><path fill="#00b8fc" fill-rule="evenodd" d="M370.35547 441.4414l-.5039-1.05859.5039-.64844.54687.64844-.54687 1.0586"/><path fill="#50fcfc" fill-rule="evenodd" d="M383.67188 455.28906l-3.1172-1.58984 3.1172-1.82031 1.94921 1.8203-1.94921 1.58985m41.66796-1.58984l-.28515-4.4375 3-2.97656 4.4375-.8672v1.11329l-4.4375 2.07031-.66406.66016.66406 3.15234.21875 1.28516 4.21875 2.76172 4.4375-2.49219.26562-.26953 1.66797-4.4375-1.9336-1.9375-4.4375-.79297v-1.11328l4.4375.40234 3.4375 3.4414-.65624 4.4375-2.78125 2.84376-4.4375 1.14844-4.4375-1.46094-2.71485-2.53125"/><path fill="#00e8fc" fill-rule="evenodd" d="M428.05469 452.41406l-.66406-3.15234.66406-.66016 4.4375-2.07031v1.85547l-1.60547.875.51562 4.4375 1.08985.71094 1.20312-.71094 1.78516-4.4375-2.98828-.875v-1.85547l4.4375.79297 1.9336 1.9375-1.66798 4.4375-.26562.26953-4.4375 2.49219-4.21875-2.76172-.21875-1.28516"/><path fill="#00d4fc" fill-rule="evenodd" d="M431.40234 453.69922l-.51562-4.4375 1.60547-.875 2.98828.875-1.78516 4.4375-1.20312.71094-1.08985-.71094"/><path fill="#50fcfc" fill-rule="evenodd" d="M441.3711 398.79297L439.5625 396l.80469-4.4375 1.0039-1.28125 4.4375-1.33984.47266-1.81641 3.96484-4.3086v3.05079l-1.15234 1.25781 1.15234 1.59375v4.33594l-4.4375 2.75-.22265.19531.22265.14844 1.33985 4.28906 3.09765 3.90234 2.98438-3.90234-.92578-4.4375-2.0586-2.94531v-4.33594l.87891-1.59375-.8789-1.25781v-3.05078l3.01562 4.30859-1.74219 4.4375L453.73438 396l.79296 4.4375.15625.53516 2.54297 3.90234 1.89844 3.9414.5.5-.5.625-4.4414 2.3047-3.79688-2.9297-.64063-.82812-3.04687-3.61328-1.39063-4.38281-.08203-.05469-4.35547-1.64453"/><path fill="#00e8fc" fill-rule="evenodd" d="M445.8086 396.14844L445.58593 396l.22265-.19531 4.4375-2.75v4.10937l-.85156 3.27344.85156 1.07422.82032-1.07422-.82032-3.27344v-4.10937L452.3047 396l.92578 4.4375-2.98438 3.90234-3.09765-3.90234-1.33985-4.28906"/><path fill="#50fcfc" fill-rule="evenodd" d="M450.2461 455.58594l-2.16407-1.88672 1.45313-4.4375.71093-.1836.1797.1836 1.70702 4.4375-1.88672 1.88672"/><path fill="#00e8fc" fill-rule="evenodd" d="M450.2461 388.71875l-1.15235-1.59375 1.15234-1.25781.87891 1.25781-.8789 1.59375"/><path fill="#00d4fc" fill-rule="evenodd" d="M450.2461 401.51172l-.85157-1.07422.85156-3.27344.82032 3.27344-.82032 1.07422"/><path fill="#50fcfc" fill-rule="evenodd" d="M459.125 385.59766l-3.17578-2.91407.13281-4.4375 3.04297-2.6914v2.61719l-.08594.07421-.55078 4.4375.63672.58204.57422-.58204-.5-4.4375-.07422-.07421v-2.6172l2.6914 2.69141.19923 4.4375-2.89063 2.91407"/><path fill="#00e8fc" fill-rule="evenodd" d="M459.125 383.26563l-.63672-.58204.55078-4.4375.08594-.07421.07422.07421.5 4.4375-.57422.58204"/><path fill="#50fcfc" fill-rule="evenodd" d="M463.5625 399.30469L460.30078 396l3.26172-3.32422 4.4336-.85156v2.4414l-4.4336.21094L462.07031 396l1.49219 1.51172 4.4336-.1836v1.8672l-4.4336.10937"/><path fill="#00e8fc" fill-rule="evenodd" d="M463.5625 397.51172L462.07031 396l1.49219-1.52344 4.4336-.21094v3.0625l-4.4336.1836"/><g clip-path="url(#d)"><path fill="#fff" fill-opacity="0" fill-rule="evenodd" d="M467.9961 480.32813H468V399.1953v81.13281h-.0039"/></g><path fill="#50fcfc" fill-rule="evenodd" d="M467.9961 397.32813v1.86718H468v-1.86719h-.0039"/><path fill="#00e8fc" fill-rule="evenodd" d="M467.9961 394.26563v3.0625H468v-3.0625h-.0039"/><path fill="#50fcfc" fill-rule="evenodd" d="M467.9961 391.82422v2.4414H468v-2.4414h-.0039"/><g clip-path="url(#e)"><path fill="#fff" fill-opacity="0" fill-rule="evenodd" d="M467.9961 311.67188H468v80.15234-80.15235h-.0039"/></g><path fill="#fff" fill-opacity="0" fill-rule="evenodd" d="M158.38672 388.27344l4.1211 4.13672 7.05859-7.02735-4.1211-4.13672-7.0586 7.02735"/><path fill-rule="evenodd" d="M166.61719 385.01563l.35937.36328-4.46094 4.4414-.55859-.5586 3.1836-3.16796-.98047-.98438.39453-.39062.4414.35156.21485.14063.22656.09765.24219.04297.27344-.02344.30859-.10546.35547-.20704"/><path fill="#fff" fill-opacity="0" fill-rule="evenodd" d="M354.9336 402.66016l1.29687 5.6953 9.71094-2.21093-1.29688-5.69531-9.71094 2.21094"/><path fill-rule="evenodd" d="M363.63281 404.26563l.11328.49609-6.13671 1.39844-.17579-.76563 4.37891-1-.3086-1.35156.54298-.125.1875.53125.10546.23437.14063.20313.1836.16797.24218.125.32031.07031.40625.01563"/><g clip-path="url(#f)"><path fill="none" stroke="#000" stroke-linecap="round" stroke-linejoin="round" stroke-miterlimit="10" stroke-width=".5" d="M147.03906 482.09375l-6.07812-3.53125"/></g><g clip-path="url(#g)"><path fill="none" stroke="#000" stroke-linecap="round" stroke-linejoin="round" stroke-miterlimit="10" stroke-width=".5" d="M160.64063 481.45703l-6.65235-2.25781"/></g><g clip-path="url(#h)"><path fill="none" stroke="#000" stroke-linecap="round" stroke-linejoin="round" stroke-miterlimit="10" stroke-width=".5" d="M174.0625 481.07422l-6.86719-1.48828"/></g><g clip-path="url(#i)"><path fill="none" stroke="#000" stroke-linecap="round" stroke-linejoin="round" stroke-miterlimit="10" stroke-width=".5" d="M174.0625 481.07422l.66797 2.35937"/></g><g clip-path="url(#j)"><path fill="none" stroke="#000" stroke-linecap="round" stroke-linejoin="round" stroke-miterlimit="10" stroke-width=".5" d="M187.40234 480.96484l-6.91406-1.27343"/></g><g clip-path="url(#k)"><path fill="none" stroke="#000" stroke-linecap="round" stroke-linejoin="round" stroke-miterlimit="10" stroke-width=".5" d="M187.40234 480.96484l.73828 2.33985"/></g><g clip-path="url(#l)"><path fill="none" stroke="#000" stroke-linecap="round" stroke-linejoin="round" stroke-miterlimit="10" stroke-width=".5" d="M200.73828 480.83594l-6.95312-1.01172"/></g><g clip-path="url(#m)"><path fill="none" stroke="#000" stroke-linecap="round" stroke-linejoin="round" stroke-miterlimit="10" stroke-width=".5" d="M200.73828 480.83594l.82813 2.3086"/></g><g clip-path="url(#n)"><path fill="none" stroke="#000" stroke-linecap="round" stroke-linejoin="round" stroke-miterlimit="10" stroke-width=".5" d="M214.07422 480.01953l-7 .61719"/></g><g clip-path="url(#o)"><path fill="none" stroke="#000" stroke-linecap="round" stroke-linejoin="round" stroke-miterlimit="10" stroke-width=".5" d="M214.07422 480.01953l1.33984 2.05469"/></g><g clip-path="url(#p)"><path fill="none" stroke="#000" stroke-linecap="round" stroke-linejoin="round" stroke-miterlimit="10" stroke-width=".5" d="M227.29297 479.45313l-6.80469 1.75"/></g><g clip-path="url(#q)"><path fill="none" stroke="#000" stroke-linecap="round" stroke-linejoin="round" stroke-miterlimit="10" stroke-width=".5" d="M227.29297 479.45313l1.65625 1.8125"/></g><g clip-path="url(#r)"><path fill="none" stroke="#000" stroke-linecap="round" stroke-linejoin="round" stroke-miterlimit="10" stroke-width=".5" d="M240.47656 479.04688l-6.54297 2.5625"/></g><g clip-path="url(#s)"><path fill="none" stroke="#000" stroke-linecap="round" stroke-linejoin="round" stroke-miterlimit="10" stroke-width=".5" d="M240.47656 479.04688l1.86328 1.59765"/></g><g clip-path="url(#t)"><path fill="none" stroke="#000" stroke-linecap="round" stroke-linejoin="round" stroke-miterlimit="10" stroke-width=".5" d="M253.82422 479.13672l-6.60938 2.38672"/></g><g clip-path="url(#u)"><path fill="none" stroke="#000" stroke-linecap="round" stroke-linejoin="round" stroke-miterlimit="10" stroke-width=".5" d="M253.82422 479.13672l1.82031 1.64453"/></g><g clip-path="url(#v)"><path fill="none" stroke="#000" stroke-linecap="round" stroke-linejoin="round" stroke-miterlimit="10" stroke-width=".5" d="M267.21875 479.38672l-6.76953 1.88672"/></g><g clip-path="url(#w)"><path fill="none" stroke="#000" stroke-linecap="round" stroke-linejoin="round" stroke-miterlimit="10" stroke-width=".5" d="M267.21875 479.38672l1.6914 1.77734"/></g><g clip-path="url(#x)"><path fill="none" stroke="#000" stroke-linecap="round" stroke-linejoin="round" stroke-miterlimit="10" stroke-width=".5" d="M280.48828 479.23047l-6.67578 2.19922"/></g><g clip-path="url(#y)"><path fill="none" stroke="#000" stroke-linecap="round" stroke-linejoin="round" stroke-miterlimit="10" stroke-width=".5" d="M279.51563 479.55078l.88671.84766"/></g><g clip-path="url(#z)"><path fill="none" stroke="#000" stroke-linecap="round" stroke-linejoin="round" stroke-miterlimit="10" stroke-width=".5" d="M293.94922 480.78906l-6.96485-.92187"/></g><g clip-path="url(#A)"><path fill="none" stroke="#000" stroke-linecap="round" stroke-linejoin="round" stroke-miterlimit="10" stroke-width=".5" d="M292.9336 480.65625l.42968 1.14844"/></g><g clip-path="url(#B)"><path fill="none" stroke="#000" stroke-linecap="round" stroke-linejoin="round" stroke-miterlimit="10" stroke-width=".5" d="M307.17578 481.22656l-6.79297-1.79687"/></g><g clip-path="url(#C)"><path fill="none" stroke="#000" stroke-linecap="round" stroke-linejoin="round" stroke-miterlimit="10" stroke-width=".5" d="M306.1875 480.96484l.28125 1.19532"/></g><g clip-path="url(#D)"><path fill="none" stroke="#000" stroke-linecap="round" stroke-linejoin="round" stroke-miterlimit="10" stroke-width=".5" d="M320.46094 481.33203l-6.73047-2.00781"/></g><g clip-path="url(#E)"><path fill="none" stroke="#000" stroke-linecap="round" stroke-linejoin="round" stroke-miterlimit="10" stroke-width=".5" d="M319.48438 481.04297l.24218 1.19922"/></g><g clip-path="url(#F)"><path fill="none" stroke="#000" stroke-linecap="round" stroke-linejoin="round" stroke-miterlimit="10" stroke-width=".5" d="M333.75781 481.40234l-6.6914-2.14843"/></g><g clip-path="url(#G)"><path fill="none" stroke="#000" stroke-linecap="round" stroke-linejoin="round" stroke-miterlimit="10" stroke-width=".5" d="M332.78125 481.08984L333 482.29687"/></g><g clip-path="url(#H)"><path fill="none" stroke="#000" stroke-linecap="round" stroke-linejoin="round" stroke-miterlimit="10" stroke-width=".5" d="M346.83984 481.95313l-6.22656-3.25"/></g><g clip-path="url(#I)"><path fill="none" stroke="#000" stroke-linecap="round" stroke-linejoin="round" stroke-miterlimit="10" stroke-width=".5" d="M360.28906 481.67188l-6.4961-2.6836"/></g><g clip-path="url(#J)"><path fill="none" stroke="#000" stroke-linecap="round" stroke-linejoin="round" stroke-miterlimit="10" stroke-width=".5" d="M371.45703 483.66406l-2.20312-6.67187"/></g><g clip-path="url(#K)"><path fill="none" stroke="#000" stroke-linecap="round" stroke-linejoin="round" stroke-miterlimit="10" stroke-width=".5" d="M384.125 483.8125l-.91016-6.96875"/></g><g clip-path="url(#L)"><path fill="none" stroke="#000" stroke-linecap="round" stroke-linejoin="round" stroke-miterlimit="10" stroke-width=".5" d="M394.10547 482.33984l5.76172-4.02343"/></g><g clip-path="url(#M)"><path fill="none" stroke="#000" stroke-linecap="round" stroke-linejoin="round" stroke-miterlimit="10" stroke-width=".5" d="M394.10547 482.33984l-2.1836-1.11718"/></g><g clip-path="url(#N)"><path fill="none" stroke="#000" stroke-linecap="round" stroke-linejoin="round" stroke-miterlimit="10" stroke-width=".5" d="M407.60547 482.58203l5.39062-4.50781"/></g><g clip-path="url(#O)"><path fill="none" stroke="#000" stroke-linecap="round" stroke-linejoin="round" stroke-miterlimit="10" stroke-width=".5" d="M421.28125 482.95313l4.66797-5.25"/></g><g clip-path="url(#P)"><path fill="none" stroke="#000" stroke-linecap="round" stroke-linejoin="round" stroke-miterlimit="10" stroke-width=".5" d="M434.59375 482.95313l4.67578-5.2461"/></g><g clip-path="url(#Q)"><path fill="none" stroke="#000" stroke-linecap="round" stroke-linejoin="round" stroke-miterlimit="10" stroke-width=".5" d="M447.92969 482.97266l4.63281-5.28516"/></g><g clip-path="url(#R)"><path fill="none" stroke="#000" stroke-linecap="round" stroke-linejoin="round" stroke-miterlimit="10" stroke-width=".5" d="M460.85938 482.57813l5.40234-4.4961"/></g><g clip-path="url(#S)"><path fill="none" stroke="#000" stroke-linecap="round" stroke-linejoin="round" stroke-miterlimit="10" stroke-width=".5" d="M146.98828 468.86328l-5.97656-3.69922"/></g><path fill="none" stroke="#000" stroke-linecap="round" stroke-linejoin="round" stroke-miterlimit="10" stroke-width=".5" d="M146.98828 468.86328l-.16406 2.44922m13.6914-2.85156l-6.40234-2.89453m6.40234 2.89453l.15625 2.44922m13.33985-2.94532l-6.76563-1.90234m6.76563 1.90234l.52344 2.39453m12.8828-2.8203l-6.9453-1.05079m6.9453 1.05078l.81642 2.3164m12.51953-3.21483l-6.98828.74609m6.98828-.7461l1.375 2.03126m11.82422-2.6172l-6.75782 1.91798m6.75781-1.91797l1.70313 1.76953m11.04688-2.91406l-5.625 4.20703m5.625-4.20703l2.22265 1.04297m11.14844-.96875l-5.73828 4.05859m5.73828-4.0586l2.1914 1.10547m10.8047-1.49218l-5.10157 4.83203m5.10156-4.83203l2.32813.78125m10.82422-.94532l-4.77344 5.16016m4.07812-4.41016l1.1875.3125m13.14844-.71484l-5.42578 4.46484m4.63672-3.8164l1.13281.47265m13.19922-.80859l-5.88281 3.83984m5.02734-3.28125l1.07422.58985m13.26172-.8711l-6.21094 3.28516m5.3086-2.8086l1.01562.6875m13.17969-1.20702l-6.16797 3.37109m5.26953-2.8789l1.02734.67187m13.02735-1.42578l-5.84766 3.89453m18.33985-4.76172l-4.20313 5.6289m3.58984-4.8125l1.21485.1875m7.9961-.53515l5.23046 4.6914m7.1875-2.47656l7.02344.26172m6.96875 1.94531l5.66797-4.15234m-4.84375 3.54688l-1.10157-.53125m13.37891.80859l6.09375-3.4961m-5.20703 2.98829l-1.03906-.65235m13.30468.83985l6.42188-2.85547m-5.48438 2.4414l-.96875-.7539m15.16797 2.96875l2.78125-6.45703m-2.3789 5.51562l-1.22266.10156m14.92969 1.07422l1.1914-6.92578m-1.1914 6.92578l-2.33203.76563m14.41406-1.22656l3.65625-6.00391m-3.65625 6.0039l-2.44922-.14453m14.71875-.83984l5.75-4.03516m-4.91406 3.44922l-1.09375-.55468"/><g clip-path="url(#T)"><path fill="none" stroke="#000" stroke-linecap="round" stroke-linejoin="round" stroke-miterlimit="10" stroke-width=".5" d="M146.13672 456.48828l-4.27344-5.58203"/></g><path fill="none" stroke="#000" stroke-linecap="round" stroke-linejoin="round" stroke-miterlimit="10" stroke-width=".5" d="M146.13672 456.48828l-1.02344 2.23047m14.6914-2.54297l-4.98046-4.95312m4.25781 4.23437l-.35547 1.17188m14.78906-.92578l-5.76953-4.01172m4.9297 3.42968l-.14454 1.21875m14.88672-2.10546l-6.94531-1.07032m5.93359.91406l.40625 1.16016m13.375-3.48047l-5.85547 3.88282m5.0039-3.31641l1.07813.58203m11.94922-2.23047l-3.57812 6.04688m3.05859-5.16797l1.22656.05469m12.0664-1.19532l-2.49218 6.57032m2.1289-5.61329l1.21876-.15625m11.83984-.97265l-1.2539 6.91406m1.0703-5.91016l1.17188-.37109m11.64453-.6875l.11328 7.02344m-.09765-6.0039l1.07422-.59376m13.01953-.35156l-1.47656 6.8711m1.26171-5.8711l1.1797-.33203m10.22265-.46094l2.77734 6.45703m-2.3711-5.51562l.76563-.95703m10.71094 1.15234l5.64063 4.1875m6.98046-2.08594l7.02735-.01562m-6.0039.01172l-.57813-1.08204m12.88672.76172l6.99609.63282m-5.98047-.54297l-.47266-1.12891m12.76563 1.61328l7.00781-.51562m-7.00781.51562l-1.30469-2.07812m14.61328 1.67578l7.02344.28906m-6-.2461l-.53125-1.10546m12.83594.88281l6.9961.64453m-5.98048-.55078l-.47265-1.1289m12.78515 1.8203l6.96875-.92187m-5.95312.78516l-.71485-.9961m13.03516.08985l6.92969 1.16406m-6.92969-1.16406l-.77734-2.32813m14.0625 3.26953l6.98828-.72265m-6.98828.72265l-1.3711-2.03515m15.14453 3.44531l6.07032-3.54297m-6.07032 3.54297l-2.08593-1.28906m2.96875.77344l-1.04297-.64454m13.50781 1.21485l6.00781-3.64844m-6.0078 3.64844l-2.10938-1.2539m2.98437.72265l-1.05469-.6289m14.11328 1.91405l4.76954-5.15625m-4.76954 5.15625l-2.375-.625m15.38282.3047l5.38281-4.51954m-5.38281 4.51953l-2.27344-.91797m15.0664.08203l6.42579-2.84375m-6.42578 2.84375l-1.9297-1.51562"/><g clip-path="url(#U)"><path fill="none" stroke="#000" stroke-linecap="round" stroke-linejoin="round" stroke-miterlimit="10" stroke-width=".5" d="M145.11328 443.71484l-2.22656-6.66406"/></g><g clip-path="url(#V)"><path fill="none" stroke="#000" stroke-linecap="round" stroke-linejoin="round" stroke-miterlimit="10" stroke-width=".5" d="M144.78906 442.7461l-.84375.89062"/></g><path fill="none" stroke="#000" stroke-linecap="round" stroke-linejoin="round" stroke-miterlimit="10" stroke-width=".5" d="M159.34375 443.2539l-4.05469-5.74218m3.46485 4.90625l-.5547 1.09766m15.9336-3.42579l-7.0039.58594m20.2539-1.01953l-6.875 1.45703m5.875-1.2461l.78906.94141m11.9922-3.3789l-3.8086 5.90625m3.2539-5.04688l1.22266.10547m11.55078-1.42969l-1.61328 6.83985m1.3789-5.84766l1.1836-.3086m11.14453-.7539l.82813 6.97656m-.70703-5.96093l1.0078-.69922m11.1172-.01172l2.96484 6.3711m-2.96484-6.3711l1.47656-1.96094m11.05469 2.46094l4.53125 5.3711m-4.53125-5.3711l.91406-2.27734m12.23437 2.42578l4.8672 5.0703m-4.8672-5.0703l.76563-2.32813m12.8789 2.05078l4.21094 5.625m-3.60156-4.80468l.52344-1.11329M287 439.80078l6.92969 1.16406M287 439.80078l-.77734-2.32422m14.08593 3.4375l6.94532-1.0625m-6.94532 1.0625l-1.46484-1.96875m14.7461 1.6836l7.01171-.4922m-7.01172.4922l-1.30078-2.08203m14.64063 2.32421l6.96094-.97656m-6.96094.97656l-1.4414-1.98437m14.77734 2.10937l6.92187-1.22656m-6.92187 1.22656l-1.51172-1.92968m2.51953 1.7539l-.75781-.96875m13.0625 1.125l6.92578-1.1836m-6.92578 1.1836l-1.5-1.94531m2.5078 1.76953l-.75-.96875m13.10548 1.3789l6.82812-1.65624m-6.82812 1.65625l-1.62891-1.83594m14.88672 1.53906l6.94531-1.0586m-6.94531 1.0586l-1.46484-1.96875m14.82812 2.22657l6.84766-1.57813m-6.84766 1.57813l-1.60937-1.85157m15.08984 2.375l6.51953-2.625m-6.51953 2.625l-1.8789-1.57812m15.13671 1.42578l6.63281-2.32031m-6.6328 2.3203l-1.8047-1.66405m15.78125 2.80859l5.3086-4.60937m-5.3086 4.60937l-2.28906-.8789m15.5586.82421l5.39843-4.5m-5.39843 4.5l-2.26954-.92578m15.64454.99219l5.28125-4.63281m-5.28125 4.6328l-2.29688-.86718"/><g clip-path="url(#W)"><path fill="none" stroke="#000" stroke-linecap="round" stroke-linejoin="round" stroke-miterlimit="10" stroke-width=".5" d="M143.03906 430.44922l1.92188-6.76172"/></g><path fill="none" stroke="#000" stroke-linecap="round" stroke-linejoin="round" stroke-miterlimit="10" stroke-width=".5" d="M155.39063 430.00781l3.85156-5.8789m8.26172 1.33593l6.2539 3.20704m-5.34375-2.7422l-.01953-1.22656m12.53125.56641l6.03906 3.59766m-5.16015-3.07422l.0586-1.22656m13.98827-.71485l2.82031 6.4336m-2.41015-5.5l.75781-.96094m13.50781-.26953l.09375 7.02734m-.07812-6.0039l1.07422-.58985m10.11719.30469l4.3125 5.55078m-3.6836-4.74219l.5-1.1211m11.59375.89845l5.4961 4.3789m-5.4961-4.3789l.45313-2.41407m12.73828 2.57813l5.74219 4.05078m-5.7422-4.05078l.3086-2.4336m13.42578 1.94141l4.90235 5.03516m-4.1875-4.30078l.375-1.16797m11.33984 1.85156l6.67578 2.20312m-5.70312-1.8828l-.20703-1.21095m12.5078 1.02735l6.75782 1.92578m-5.77344-1.64453l-.25781-1.19922m12.95703.07422l6.02344 3.61328m-5.14844-3.08984l.0625-1.22266m11.875 2.51953l7.02735-.02734m-6.00391.02344l-.58203-1.08204m12.91015 1.57032l6.95704-.9961m-5.94532.85157l-.72265-.9922m13.02734 1.14454l6.95313-1.01172m-6.95313 1.01172l-1.45313-1.98047m14.9336 2.65234l6.6211-2.35546m-6.6211 2.35546l-1.8125-1.65234m15.63672 2.59375l5.60156-4.23828m-5.60156 4.23828l-2.22656-1.03125m15.87109 1.40625l4.94531-4.98828m-4.94531 4.98828l-2.35156-.70703m3.0703-.01953l-1.17577-.35156m13.46094.73046l5.5664-4.28906m-5.5664 4.28906l-2.23438-1.01562m15.25.5586l6.16406-3.375m-6.16406 3.375l-2.05078-1.34766m15.29687 1.21484l6.30079-3.11328m-6.30079 3.11328l-1.99218-1.4336m2.91015.98048l-.9961-.71485m14.1172 2.15235l4.85546-5.07813m-4.85546 5.07813l-2.36329-.66797m15.48438.46484l5.2461-4.67578m-5.2461 4.67578l-2.30469-.85156m15.42578.61328l5.63282-4.19922m-5.63282 4.19922l-2.21875-1.04688"/><g clip-path="url(#X)"><path fill="none" stroke="#000" stroke-linecap="round" stroke-linejoin="round" stroke-miterlimit="10" stroke-width=".5" d="M141.19922 415.875l5.60156-4.2461"/></g><path fill="none" stroke="#000" stroke-linecap="round" stroke-linejoin="round" stroke-miterlimit="10" stroke-width=".5" d="M154.39844 415.71484l5.83203-3.92187m-5.83203 3.92187l-2.16406-1.15625m15.26953.79688l6.2539-3.20313m-6.2539 3.20313l-2.01563-1.40625m14.98438-.72656l6.9453 1.05859m-6.9453-1.0586l-.8125-2.3125m14.1289 3.37891l6.94531-1.07422m-5.9375.91797l-.73437-.98047m13.17188-.48437l6.68359 2.17187m-5.71094-1.85546l-.21484-1.20704m12.59765.77344l6.60157 2.40625m-5.64063-2.0586l-.17187-1.21484m14.14453-1.01562l3.36328 6.17187m-2.875-5.27343l.67578-1.02344m13.63672-.29688l.39062 7.01563m13.5586-6.9961l-.875 6.97266m.75-5.95703l1.14453-.4375m14.54297.64453l-5.3711 4.53125m4.58985-3.8711l1.14062.45313m12.98047-1.08593l-5.41797 4.47265m4.6289-3.82031l1.13282.46875m12.73438-1.3789l-4.94532 4.99218m4.22657-4.26562l1.17578.35546m13.875 1.01172l-6.98047.80469m5.96484-.6875l.69531 1.01172m13.48438-1.82031l-6.67969 2.18359m13.34766.08984l6.61719-2.35937m6.92578 2.8711l6.16015-3.38673m6.91407 2.83985l6.64453-2.28906M368 414.5664l-.89844-.83594m13.19922 1.01172l6.74219-1.98047m-6.74219 1.98047l-1.71484-1.7539m15.05078 1.8203l6.69922-2.11328m-6.69922 2.11328l-1.75-1.71875m15.09375 1.8047l6.64453-2.28516m-5.67969 1.95312l-.89844-.83594m13.08204.45703l6.97656-.85937m-5.96094.73437l-.70312-1.0078m13.05468 1.4453l6.8711-1.48437m-5.8711 1.26953l-.79297-.9375m13.28907 1.73438l6.50781-2.64844m-5.5625 2.26172l-.9414-.78516m15.20702 3.08594l2.71875-6.48047"/><g clip-path="url(#Y)"><path fill="none" stroke="#000" stroke-linecap="round" stroke-linejoin="round" stroke-miterlimit="10" stroke-width=".5" d="M140.98047 402.23438l6.03906-3.58985"/></g><path fill="none" stroke="#000" stroke-linecap="round" stroke-linejoin="round" stroke-miterlimit="10" stroke-width=".5" d="M154.6836 402.76563l5.26171-4.65625m-5.26172 4.65625l-2.29687-.85938m3.0625.1836l-1.14844-.4297m13.38672.69923l5.88281-3.84375m-5.88281 3.84375l-2.14844-1.1797m15.01953.19141l6.77344-1.86328m-6.77344 1.86328l-1.6875-1.78515m14.88672 1.15625l7.0039-.60547m-7.0039.60547l-1.33203-2.0625m14.84766 2.95312l6.60547-2.39062m-5.64453 2.04297l-.91016-.82032m14.13281 2.50782l4.86719-5.06641m-4.16016 4.32813l-1.17969-.33594m16.76172-4.9336l-1.08203 6.94532m17.34766-3.86329l-6.98438.78125m5.96875-.66796l.69141 1.01562m13.65234-.97656l-7.0078.47656m5.98827-.40625l.64844 1.03906m13.16406-2.72656l-5.96484 3.71094m5.09765-3.17188l1.0625.6172m12.75391-1.64454l-5.23437 4.6875m4.47265-4.0039l1.15235.42187m11.69922-1.98828l-2.78125 6.45312m2.375-5.51172l1.22265-.10156m8.19922.41406l5.8164 3.94532m8.03516-4.5625l4.7461 5.18359m-4.0547-4.42969l.40626-1.15625m13.45703-.33203l2.26563 6.65235m-1.9375-5.6836l.83984-.89453m14.21875-.13672l-1.8789 6.77344m11.1914-1.66406l6.125-3.44532m-6.125 3.44532l-2.0664-1.32422m15.17577.89453l6.53516-2.58203m-6.53516 2.58203l-1.86718-1.59375m2.8203 1.21875l-.93358-.79688m13.10156.47657l6.92578-1.19532m-6.92578 1.19532l-1.5039-1.9375m14.8828 2.23828l6.79688-1.79297m-6.79688 1.79297l-1.66406-1.80078m15.33985 2.66406l6.07812-3.52344m-5.19531 3.01172l-1.04297-.64844m13.60937 1.3789l5.8086-3.96093m-4.96094 3.38672l-1.08594-.57031m13.51563-2.75781l5.88281 3.84375m-5.02734-3.28516l.10937-1.21875m11.9375 3.63281l6.70703-2.09765m-6.70703 2.09765l-1.7461-1.72656"/><g clip-path="url(#Z)"><path fill="none" stroke="#000" stroke-linecap="round" stroke-linejoin="round" stroke-miterlimit="10" stroke-width=".5" d="M144.35547 390.61719l-.71094-6.98828"/></g><g clip-path="url(#aa)"><path fill="none" stroke="#000" stroke-linecap="round" stroke-linejoin="round" stroke-miterlimit="10" stroke-width=".5" d="M144.25 389.60156l-1.01953.6836"/></g><path fill="none" stroke="#000" stroke-linecap="round" stroke-linejoin="round" stroke-miterlimit="10" stroke-width=".5" d="M155.69531 390.24219l3.23828-6.23828m-3.23828 6.23828l-2.45312.02344m15.50781-.17579l3.76172-5.93359m-3.21484 5.07031l-1.22266-.08984m13.42578.50781l4.89063-5.04297M181.5 389.64453l-2.35938-.67969m15.21485.13672l5.8086-3.95703m-4.96095 3.38281l-1.08593-.5703m13.42187.93358l6.07031-3.53515m13.42188 3.33984l-6.28516-3.14453m5.3711 2.6875l.03125 1.22656m14.41406-3.3828l-6.71484 2.08202m5.73828-1.77734l.8711.86328m13.5039-.83203l-6.88281 1.41406m6.8828-1.41406l1.56641 1.88672m11.72657-1.9961l-6.83594 1.62891m5.83984-1.39063l.8125.92188m11.51172 2.86328l-2.86328-6.41797m17.20313.69531l-4.91016 5.02735m12.8789-4.51172l5.78125 3.9961m-4.9414-3.41407l.14453-1.21875m12.15625.91797l6.1289 3.4336m-5.23827-2.9336l.02734-1.22656m11.94922 2.44531h7.02734m-6.00781 0l-.57422-1.08594m13.36328-.71094l6.03906 3.58985m-5.16015-3.0664l.05469-1.22657m12.0078 1.58594l6.78516 1.82422m-6.78515-1.82422l-.55078-2.39063m14.45312 1.1875l5.61328 4.23047m-5.61328-4.23047l.38281-2.42187m13.02344 2.30469l5.42578 4.46484m7.11328-1.84375l6.98047-.77735m-5.96484.66407l-.69531-1.01172m13.04687 1.46484l6.875-1.45703m-6.875 1.45703l-1.57422-1.8789m15.75781-1.2461l5.14063 4.79297m-5.14063-4.79297l.63282-2.3711m11.7461 4.53517l7.01171.46484m-7.01172-.46485l-1.0039-2.23828m15.90625-.47265l3.83984 5.88672m-3.83985-5.88672l1.1836-2.14844m12.0586 2.19531l3.98046 5.79297m-3.98047-5.79297l1.13281-2.17578"/><g clip-path="url(#ab)"><path fill="none" stroke="#000" stroke-linecap="round" stroke-linejoin="round" stroke-miterlimit="10" stroke-width=".5" d="M147.10547 375.45313l-6.21094-3.28907"/></g><path fill="none" stroke="#000" stroke-linecap="round" stroke-linejoin="round" stroke-miterlimit="10" stroke-width=".5" d="M146.19922 374.97656l.0039 1.22656m13.04688.53907l-3.86719-5.86719m3.86719 5.86719l-1.17578 2.15234m13.67187-1.7539l-2.23047-6.66407m1.90625 5.69531l-.84375.89063m16.00782-.9375l-5.28125-4.63281m4.51562 3.95703l-.28125 1.19531M200.5 375.16406l-6.48047-2.71094m6.48047 2.71094l.23047 2.4414m12.91797-2.08983l-6.14453-3.41407m6.14453 3.41406l-.04688 2.45313m13.69531-5.01953l-6.8125 1.71875m5.82032-1.46875l.82422.91015m13.3789-1.5l-6.60547 2.39844m5.64453-2.05078l.91016.82422m12.95703-1.96484l-5.78906 3.98437m4.94922-3.40625l1.08594.5664m12.67578-1.62109l-5.0039 4.9336m4.27734-4.21485l1.17187.3672m7.34766 3.17577l6.04297-3.58594m7.66406-.53515l5.26172 4.65625m-4.4961-3.98047l.28516-1.1914m12.27344.5l5.23828 4.6875m-5.23828-4.6875l.58593-2.38282m11.94532 3.85156l6.80859 1.75m-6.8086-1.75l-.57421-2.38671m14.0586 4.6328l6.46874-2.74218m-6.46875 2.74219l-1.90625-1.54297m15.01563.8789l6.8828-1.41406m-6.8828 1.41406l-1.56641-1.88671m14.8125 1.02343l7.01953.3125m-7.01953-.3125l-1.05469-2.21875m14.39063 1.94532l6.97656.85937m-6.97656-.85937l-.875-2.29297m14.23437 3.42187l6.88672-1.39844m-6.88672 1.39844l-1.5586-1.89453m14.9961 2.33203l6.64453-2.27734m-6.64453 2.27734l-1.79297-1.67578m14.9297.24219l7 .59375m-7-.59375l-.96485-2.2539m14.33203 3.23046l6.89453-1.36328m-6.89453 1.36328l-1.54688-1.89844m14.96485.14454l6.6914 2.14843m-5.71875-1.83594l-.21484-1.20703m12.41406 1.56641l6.98047.80469m-6.98047-.80469l-.89844-2.28516m15.07813.35157l5.25 4.67187m-5.25-4.67187l.58203-2.38672"/><g clip-path="url(#ac)"><path fill="none" stroke="#000" stroke-linecap="round" stroke-linejoin="round" stroke-miterlimit="10" stroke-width=".5" d="M146.32031 363.13281l-4.64062-5.27734"/></g><path fill="none" stroke="#000" stroke-linecap="round" stroke-linejoin="round" stroke-miterlimit="10" stroke-width=".5" d="M146.32031 363.13281l-.86719 2.29297m14.62891-2.76953l-5.53516-4.32813m5.53516 4.32813l-.42578 2.41797m-.3789-3.04688l-.21094 1.20704m14.92578-1.71875l-6.72266-2.04297m6.72266 2.04296l.47265 2.40625m-1.45312-2.70312l.23828 1.20313m13.85156-.38672l-6.3125-3.08204m6.3125 3.08204l.08594 2.44921m13.38281-2.8164l-6.6211-2.34766m6.6211 2.34766l.36328 2.42578m12.16016-1.15234l-5.03516-4.89844m5.03516 4.89844l-.6836 2.35937m14.46485-2.95312l-5.96875-3.71094m5.10156 3.17187l-.08594 1.22266m14.79688-2.58594l-7.02734.09766m6.0039-.08594l.59375 1.07813m13.25-2.83985L247.5 362.28906m17.55469-5.08984l-2.4375 6.58984m13.17969-6.53906l2.70703 6.48438m8.70703-4.5586l6.51172 2.63672m-5.56641-2.2539l-.125-1.21876m12.42578 1.01563l6.64844 2.27344m-6.64844-2.27344l-.39062-2.42188m13.83984 2.08985l6.3789 2.9414m-6.3789-2.9414l-.14062-2.44922m13.1953 4.57422l6.90235-1.3086m-6.90234 1.3086l-1.53906-1.91406m2.54296 1.72265l-1.53515-1.91406m14.0664 2.83594l6.45704-2.77344m-6.45704 2.77344l-1.91015-1.53516m2.85156 1.13281l-.95703-.76953m13.28906 1.0664l6.54297-2.55859m-6.54297 2.5586l-1.86328-1.59766m2.8164 1.22656l-.93359-.80078m13.26563 1.09375l6.60156-2.40625m-6.60156 2.40625l-1.82422-1.64062m2.78516 1.28906l-.91016-.82031m13.08594-.5039l6.96093.9453m-5.94921-.80859l-.42579-1.14844m12.70704 1.19531l7.0039.57813m-7.0039-.57813l-.96875-2.2539m14.38671 1.65625l6.79688 1.77734m-6.79688-1.77734l-.5664-2.38672m14.2539 1.48828l6.0547 3.57031m-6.0547-3.5703l.10938-2.44923m14.67969 1.08203l3.10547 6.3047m-3.10547-6.3047l1.43359-1.98828m10.21875 3.73047l6.4336 2.82422m-5.5-2.41406l-.08985-1.22266m12.27344 1.38672l6.82422 1.67188m-6.82422-1.67188l-.60156-2.3789"/><g clip-path="url(#ad)"><path fill="none" stroke="#000" stroke-linecap="round" stroke-linejoin="round" stroke-miterlimit="10" stroke-width=".5" d="M147.16406 348.70313l-6.32812-3.05079"/></g><path fill="none" stroke="#000" stroke-linecap="round" stroke-linejoin="round" stroke-miterlimit="10" stroke-width=".5" d="M147.16406 348.70313l.09766 2.45312m-1.01953-2.89453l.05078 1.22656m13.89453-.28906l-5.7461-4.04297m5.7461 4.04297l-.30469 2.4336m-.53125-3.01954l-.30469 2.4336m14.79297-2.44141l-6.42187-2.85156m6.42187 2.85156l.17578 2.44531m-1.10937-2.86328l.08594 1.22656m13.99219-.47265l-6.07813-3.52735m6.07813 3.52735l-.08985 2.45312m13.52344-2.67969l-6.3164-3.07421m6.3164 3.07421l.08984 2.45313M199.5 348.26953l.04297 1.22656m14.52344-1.91015l-6.98047-.8164m6.98047.8164l.89062 2.28906m12.01563-4.38281l-6.16407 3.3711m5.26563-2.87892l1.02734.67188m11.80078-2.55469l-3.39453 6.15235m2.90235-5.25782l1.22656.01954m10.67969-1.34375l.40625 7.01562m-.34766-5.9961l1.05078-.63671m10.53516.15234l3.75 5.9414m-3.75-5.9414l1.21875-2.1289m11.94531 2.22656l4.05078 5.7461m-4.05078-5.7461l1.10938-2.1875m11.2578 3.1875l5.94532 3.7461m-5.94531-3.7461l.17969-2.44531m12.94921 2.78515l6.32032 3.0664m-6.32032-3.0664l-.08984-2.45312m13.05078 3.92187l7.02735.13281m-7.02735-.1328l-1.10937-2.1875m14.67968 3.5664l6.51563-2.6289m-6.51563 2.6289l-1.8789-1.57813m15.05469 1.15235l6.79687-1.77344m-6.79688 1.77344l-1.66406-1.8086m2.65235 1.55078L339.65234 346m13.91797 1.73438l6.9414-1.11329m-6.9414 1.11329l-1.48047-1.95313m2.4922 1.79297l-1.48048-1.95703m2.48828 1.79297l-.73828-.97657m12.35156 2.29688l6.3047-3.10547m-6.3047 3.10547l-1.98828-1.4336m2.90625.98047l-1.99218-1.43359m2.91015.98438l-.9961-.71875m12.63673 1.91015l5.98437-3.67969m-5.98437 3.6797l-2.11719-1.2461m2.98438.70703l-1.0547-.6211m13.01173-1.14062l6.96484.92188m-6.96484-.92188l-.85938-2.30078m14.14453 2.83594l7.02344-.15235m-7.02344.15235l-1.19922-2.14063m14.60157 1.28516l6.85156 1.5586m-6.85156-1.5586l-.64454-2.36719m14.5 1.14453l5.76954 4.00781m-5.76954-4.0078l.28907-2.4375m.55078 3.01952l.14453-1.21875m13.17188-.21875l4.08984 5.71485m-4.08985-5.71485l1.08985-2.19531m11.23047 3.28906l6.07812 3.52735m-6.07812-3.52735l.08984-2.45312"/><g clip-path="url(#ae)"><path fill="none" stroke="#000" stroke-linecap="round" stroke-linejoin="round" stroke-miterlimit="10" stroke-width=".5" d="M146.97266 335.73438l-5.94532-3.7422"/></g><path fill="none" stroke="#000" stroke-linecap="round" stroke-linejoin="round" stroke-miterlimit="10" stroke-width=".5" d="M146.97266 335.73438l-.1797 2.44921m-.68358-2.99218l-.08985 1.22265m14.08984-.42187l-5.58984-4.25781m5.58984 4.2578l-.39453 2.42188m-.41797-3.04297l-.39843 2.42188m14.59765-1.89453l-5.73047-4.07031m5.73047 4.0703l-.3164 2.4336m-.51953-3.02734l-.15625 1.21875M186.73438 336l-5.57813-4.27344M186.73438 336l-.40235 2.41797m12.96484-1.6914L195.22267 331m4.07422 5.72656l-1.09375 2.19531m12.85937-1.57812l-.97266-6.96094m.83203 5.94922l-.99218.71875m16.8711-5.16015l-5.82032 3.9453m4.97266-3.37109l1.08203.57422m10.98437-2.59375l-1.6289 6.83594m1.6289-6.83594l2.375-.61719m8.73828.8086l2.77735 6.45312m-2.77735-6.45312l1.53516-1.91406m11.44531 2.07812l3.4414 6.125m-3.4414-6.125l1.32813-2.0664m11.61718 2.30468l4.1836 5.64453m-4.1836-5.64453l1.0547-2.21484m11.46484 3.03515l5.77343 4.00782m-5.77343-4.00781l.28906-2.4375m.55078 3.01953l.14453-1.21875m12.15234.92578l6.13282 3.42969m-6.13282-3.4297l.05079-2.45312m.83984 2.95313l.02734-1.22656m12.09766 1.42968l6.73047 2.02344m-6.73047-2.02344l-.48047-2.40625m1.46094 2.69922l-.24219-1.20312m12.60156 3.01171l6.67969-2.17968m-6.67969 2.17969l-1.76562-1.69922m19.99219-2.53516l-3.14063 6.28516m3.14063-6.28516l2.45312-.0586m11.85938.8047l-5.13672 4.79687m5.13672-4.79688l2.3203.79688m10.98048-.8086l-5.10938 4.82032m5.10938-4.82031l2.32422.78515m-3.06641-.08594l2.32422.78516m12.55078-.0664l-6.74219 1.98046m13.1875-.64453l6.9961-.6875m-6.9961.6875l-1.35547-2.04297m15.0039 3.22266l6.33204-3.04688m-6.33203 3.04688l-1.98047-1.45313m2.89844 1.01172l-.98828-.72656m13.11718-1.09766l6.8672 1.48438m-6.8672-1.48438l-.67187-2.35937m13.96875 2.4375l6.90234 1.32812m-6.90234-1.32812l-.72266-2.34375m13.98047 3.16797l7.01953-.32031m-7.01953.3203l-1.25-2.11327m14.67578 1.0625l6.79688 1.78125m-5.8086-1.51954l-.28515-1.1953"/><g clip-path="url(#af)"><path fill="none" stroke="#000" stroke-linecap="round" stroke-linejoin="round" stroke-miterlimit="10" stroke-width=".5" d="M146.78906 322.6875l-5.57812-4.27734"/></g><path fill="none" stroke="#000" stroke-linecap="round" stroke-linejoin="round" stroke-miterlimit="10" stroke-width=".5" d="M146.78906 322.6875l-.40625 2.41797m-.40625-3.03906l-.20312 1.20703m14.19922-.42969l-5.31641-4.59375m5.3164 4.59375l-.54296 2.39453m-.23047-3.0625l-.26953 1.19531m14.52734-.73437l-5.65234-4.17969m5.65234 4.17969l-.36328 2.42578m-.46094-3.03516l-.17969 1.21485m13.48829.19922l-3.9922-5.78516m3.9922 5.78516l-1.12891 2.17578m14.16797-2.0039l-3.4375-6.12892m2.9375 5.23829l-.66406 1.03125m13.71093.17578l-1.90234-6.76563m15.86328.2539l-3.19531 6.25782m2.73047-5.34765l1.22656-.01954m13.22656-.4414l-4.54297 5.36328m4.54297-5.36328l2.39844.52344m8.28906-1.33985l.71094 6.99219m-.71094-6.99219l2.03906-1.36328m10.85157 1.4336l1.5625 6.85156m-1.5625-6.85157l1.85547-1.60546m9.01953 3.6289l6.4414 2.8086m-6.4414-2.8086l-.1875-2.44922m1.125 2.85547l-.09375-1.22265m12.85547.14843l5.67578 4.14453m-5.67578-4.14453l.34765-2.42969m.47657 3.03125l.34765-2.42968m12.22656 1.71875l5.50782 4.35937m-5.50782-4.35937l.44141-2.41406M301.82813 319l.21875-1.20313m14.64453-.73828l.8125 6.98047m-.8125-6.98047l2.01562-1.39453m14.42578 7.10156l-5.44531-4.4375m5.44531 4.4375l-.47265 2.41016m14.34765-5.88281l-6.5625 2.51172m5.60547-2.14844l.92578.8086M359.25 317.8164l-4.41797 5.46484m4.41797-5.46484l2.41016.46484m10.33203-.83984l-3.27344 6.21484m3.27344-6.21484l2.45703-.01172m-2.9336.91406l1.23047-.0039m10.92579-1.3047v7.02735m0-7.02734l2.16406-1.15235m-2.16406 2.17578l1.08203-.57812m10.10937.26562l4.2461 5.60157m-4.2461-5.60157l1.03125-2.22656m-.41406 3.04297l.51562-1.11328m11.33204 4.97265l5.9453-3.74609m-5.9453 3.7461l-2.12891-1.21875m2.9961.67187l-1.06641-.60938m13.5 1.12891l5.97656-3.69531m-5.97656 3.69531l-2.1211-1.23437m14.92969-.97657l6.98828.73047m-6.98828-.73047l-.92187-2.27734m15.8789 5.6289l3.70313-5.97265m-3.70313 5.97266l-2.44922-.16407m14.71485-.83984l5.80078-3.96875"/><path fill="#00f" fill-rule="evenodd" d="M206.26563 467.64844h8.61718V457.5039h-8.61719v10.14453"/><path fill="azure" fill-rule="evenodd" d="M208.09766 459.33594h.83593v2.82422h3.28516v-2.82422h.83203v6.48047h-.83203v-2.91797h-3.28516v2.91797h-.83593v-6.48047"/><path fill="#00f" fill-rule="evenodd" d="M388.23828 463.21094h8.61719V453.0625h-8.61719v10.14844"/><path fill="azure" fill-rule="evenodd" d="M390.07031 454.89844h.83594v2.82031h3.28516v-2.82031h.83203v6.48047h-.83203v-2.91797h-3.28516v2.91797h-.83594v-6.48047"/><path fill="#00f" fill-rule="evenodd" d="M383.80078 436.57813h8.61719v-10.14454h-8.61719v10.14454"/><path fill="azure" fill-rule="evenodd" d="M385.63281 428.26563h.83203v2.82421h3.28907v-2.82421h.83203v6.48046h-.83203v-2.91406h-3.28907v2.91406h-.83203v-6.48046"/><path fill="#00f" fill-rule="evenodd" d="M219.58203 414.38672h8.61719v-10.14453h-8.61719v10.14453"/><path fill="azure" fill-rule="evenodd" d="M221.41406 406.07422h.83203v2.82422h3.28907v-2.82422h.83203v6.48047h-.83203v-2.91406h-3.28907v2.91406h-.83203v-6.48047"/><path fill="#ff3030" fill-rule="evenodd" d="M451.07031 338.9375h7.6914v-10.14844h-7.6914v10.14844"/><path fill="azure" fill-rule="evenodd" d="M452.90234 330.625h.83204v5.73828h3.1953v.73828h-4.02734V330.625"/><path fill="#ffffe0" fill-rule="evenodd" d="M379.08203 387.98828h22.17969v-10.1914h-22.17969v10.1914"/><path fill-rule="evenodd" d="M382.58203 379.6289h.50781v6.29688h-.78515v-4.49219h-1.39063v-.55468l.5625-.0625.25-.0547.23047-.08983.20313-.14063.17578-.21094.14062-.29297.10547-.39843m4.8125 0l.23047.01953.21875.05469.20703.08984.19922.1211.1836.15234.17187.17578.30078.41797.24219.49218.17969.54688.11328.57812.03515.59375-.03515.59375-.11329.58204-.17968.55468-.24219.5-.30078.42969-.17188.17969-.18359.15234-.19922.125-.20703.08985-.21875.05859-.23047.01953-.22656-.01953-.22266-.0586-.20703-.08984-.19531-.125-.1836-.15234-.17187-.17969-.30078-.42969-.2461-.5-.17968-.55469-.10938-.58203-.03906-.59375h.83203l.03125.5625.08203.50391.125.44531.16016.375.1914.30078.21094.21875.22266.13672.22656.04688.22656-.04688.22266-.13672.21094-.21875.1914-.30078.16407-.375.125-.44531.08203-.5039.02734-.5625-.02734-.5625-.08203-.5-.125-.4375-.16407-.36329-.1914-.29297-.21094-.21484-.22266-.1289-.22656-.04688-.22656.04687-.22266.12891-.21094.21484-.1914.29297-.16016.36328-.125.4375-.08203.5-.03125.5625h-.83203l.03906-.59375.10938-.57812.17969-.54688.24609-.49218.30078-.41797.17188-.17578.18359-.15235.19531-.1211.20703-.08983.22266-.0547.22656-.01952m5.09375 0h.50781v6.29687h-.78515v-4.49219h-1.39063v-.55468l.5586-.0625.2539-.0547.23047-.08983.20313-.14063.17187-.21094.14453-.29297.10547-.39843m2.82031 2.17578h.78907l.01953-.3164.0586-.28517.09765-.2539.14062-.21485.1836-.17187.22265-.1289.26563-.08204.3086-.02734.23827.02344.22266.0625.20312.10156.1797.13672.14843.17187.11328.20703.07031.23438.02735.26562-.02344.26954-.0664.22265-.10938.1914-.15625.17188-.19922.16406-.2461.16407-.63671.39062-.53516.3125-.4375.3164-.34766.32423-.26171.33594-.19141.35156-.125.3711-.07031.39062-.01954.42187h4.21094v-.74219h-3.33203l.08203-.28515.11328-.23438.14844-.20312.1875-.17969.23047-.17188.28125-.17578.71484-.41406.41797-.20703.34375-.23047.28125-.25.21875-.26953.16406-.27734.11329-.28516.0625-.28516.01953-.28125-.04297-.3828-.11719-.34767-.1914-.30859-.25-.26172-.30079-.21094-.34765-.16015-.3789-.09766-.40626-.03515-.4375.03515-.39844.09766-.35156.16797-.30469.23437-.25.30078-.1875.375-.11328.44532-.04297.51953"/><path fill="#ffffe0" fill-rule="evenodd" d="M247.58203 401.30469h22.17969v-10.1914h-22.17969v10.1914"/><path fill-rule="evenodd" d="M251.08203 392.94531h.50781v6.29297h-.78906V394.75h-1.38672v-.55469l.5586-.0664.2539-.0547.23047-.08593.20313-.14453.17187-.20703.14063-.29688.10937-.39453m4.8125 0l.23047.01953.21875.0547.20703.08983.19531.1211.1836.14844.17187.17578.30078.42187.2461.49219.17969.54688.10937.57812.03906.58984-.03906.59375-.10938.58594-.17968.55469-.2461.5-.30078.42969-.17187.17968-.1836.15235-.1953.125-.20704.08984-.21875.0586-.23047.01953-.23047-.01954-.21875-.05859-.20703-.08984-.19531-.125-.1875-.15235-.16797-.17968-.30469-.4297-.24219-.5-.17968-.55468-.11328-.58594-.03516-.59375h.83203l.02734.56641.08204.5039.1289.44141.16016.375.1914.30078.21094.22266.22266.13672.22656.04687.22656-.04687.22266-.13672.21094-.22266.1914-.30078.16016-.375.125-.4414.08203-.50391.03125-.5664-.03125-.5586-.08203-.5-.125-.4375-.16016-.36719-.1914-.28906-.21094-.21484-.22266-.13282-.22656-.04296-.22656.04296-.22266.13282-.21094.21484-.1914.28906-.16016.36719-.1289.4375-.08203.5-.02735.5586h-.83203l.03516-.58985.11328-.57813.17969-.54687.24218-.49219.30469-.42187.16797-.17578.1875-.14844.19531-.1211.20703-.08984.21875-.05469.23047-.01953m5.08984 0h.51172v6.29297h-.78906V394.75h-1.38672v-.55469l.5586-.0664.2539-.0547.22656-.08593.20313-.14453.17578-.20703.14063-.29688.10546-.39453m6.8047 1.6211h-.78516l-.05079-.21485-.08203-.1836-.10937-.16015-.1289-.13281-.14844-.10156-.16016-.07422-.16797-.04297-.17188-.01563-.32812.03907-.28516.1211-.24609.1953-.20703.26954-.16016.33593-.11328.40625-.07031.46485-.02344.52734.1875-.20313.1875-.16015.1836-.1211.1875-.08984.1875-.0586.1914-.03906.40235-.02343.30468.03125.32031.09375.31641.15234.29688.22266.2539.28125.19922.35156.07422.20313.05078.21484.02735.23437.0078.25391-.78906.04297-.02734-.25781-.07812-.25-.1211-.23438-.16015-.21094-.19141-.17578-.22266-.13672-.23828-.08984-.25781-.03125-.2539.03125-.23829.08984-.22265.13672-.19141.17578-.16016.21094-.12109.23438-.07813.25-.02734.2578.02735.26173.07812.25.1211.23437.16015.21094.1914.17578.22266.13672.23828.08984.25391.03125.25781-.03125.23828-.08984.22266-.13672.1914-.17578.16016-.21094.1211-.23437.07812-.25.02735-.26172.78906-.04297-.03125.36719-.09375.375-.15625.35547-.22266.32812-.28906.28516-.17188.11719-.1875.10546-.20703.08204-.22265.05859-.2422.03906-.26171.01563-.28125-.01563-.26172-.04687-.23437-.07813-.21875-.10547-.19141-.13281-.17578-.15625-.15625-.17969-.13281-.19922-.1172-.22265-.09765-.24219-.14844-.53516-.08593-.59375-.02735-.64062.03907-.74219.11328-.66406.1875-.57813.1211-.2539.13671-.23438.15234-.20312.17188-.1836.1875-.15625.19922-.1289.21875-.10156.23437-.07422.2461-.04297.26171-.01563.3672.03516.33202.09375.29688.15234.2539.19922.21094.24219.16797.27344.11328.30078.0625.32422"/><path fill="#ffffe0" fill-rule="evenodd" d="M337.30469 471.3711h22.17969v-10.19532h-22.1797v10.19531"/><path fill-rule="evenodd" d="M340.80469 463.01172h.50781v6.29297h-.78516v-4.48828h-1.39062v-.5586l.5625-.0625.25-.05469.23047-.08984.20312-.14062.17578-.21094.14063-.29297.10547-.39453m4.8125 0l.23047.01562.21875.0586.20703.08984.19922.1211.18359.14843.17188.17578.30078.41797.24218.4961.1797.54296.11327.58204.03906.58984-.03906.59375-.11328.58203-.17969.55469-.24218.5039-.30079.42579-.17187.17968-.1836.15235-.19921.125-.20703.09375-.21875.05469-.23047.01953-.22656-.01954-.21875-.05468-.21094-.09375-.19531-.125-.1836-.15235-.17187-.17968-.30079-.42579-.24218-.5039-.1836-.55469-.10937-.58203-.03906-.59375h.83203l.03125.5625.08203.50781.125.4414.16406.375.1875.30079.21094.22266.22265.13671.22657.04688.22656-.04688.22266-.13671.21093-.22266.19141-.30078.16406-.375.125-.4414.08203-.50782.02735-.5625-.02735-.5625-.08203-.5-.125-.4336-.16406-.36718-.1914-.29297-.21094-.21484-.22266-.12891-.22656-.04688-.22656.04688-.22266.1289-.21094.21485-.1875.29297-.16406.36719-.125.43359-.08203.5-.03125.5625h-.83203l.03906-.58984.10937-.58204.1836-.54296.24219-.4961.30078-.41797.17187-.17578.1836-.14844.1953-.12109.21094-.08984.21875-.0586.22657-.01562m5.09375 0h.50781v6.29297h-.78516v-4.48828h-1.39062v-.5586l.5625-.0625.25-.05469.23047-.08984.20312-.14062.17188-.21094.14453-.29297.10547-.39453m6.80469 1.61719h-.78907l-.05078-.21094-.08203-.1875-.10547-.15625-.13281-.13281-.14453-.10157-.16016-.07421-.16797-.04688-.17187-.01563-.32813.04297-.28906.1172-.2461.19921-.20312.26563-.16015.33984-.1172.40234-.0703.46875-.02344.52735.1914-.20313.1836-.16015.1875-.1211.1836-.08984.1875-.0625.1914-.03516.40234-.02344.3086.03125.3203.08985.31641.15625.29297.21875.25781.28515.19532.35157.07422.19921.05078.21875.03125.23438.0039.25-.78515.04688-.02735-.25782-.07812-.25-.1211-.23828-.16015-.20703-.19531-.17969-.21875-.13672-.2422-.08593-.2539-.03125-.2539.03125-.2422.08593-.21874.13672-.19531.17969-.16016.20703-.1211.23828-.07812.25-.02734.25781.02734.25782.07813.2539.12109.23438.16016.20703.1953.17969.21876.13672.24219.08984.2539.03125.2539-.03125.2422-.08984.21875-.13672.1953-.17969.16017-.20703.12109-.23438.07812-.2539.02735-.25781.78515-.04688-.03125.3711-.08984.37109-.16016.35937-.22265.32813-.28906.28125-.17188.1211-.1875.10155-.20313.08204-.22656.0625-.24219.03906-.2578.01172-.28516-.01563-.25782-.04687-.23828-.07422-.21484-.10547-.19531-.13281-.17579-.15625-.15234-.1797-.13672-.20312-.11719-.22265-.09765-.24219-.14844-.53516-.08203-.59375-.02734-.63671.03906-.7461.11328-.66406.1875-.57422.11719-.25781.13672-.23047.15625-.20703.16796-.17969.1875-.15625.20313-.1289.21875-.10157.23047-.07422.2461-.04687.26562-.01172.36328.03125.33203.09765.29688.14844.2539.19922.21485.24219.16406.27734.11719.30078.0625.32032"/></g></defs><use xlink:href="#ag"/></svg>