<svg xmlns="http://www.w3.org/2000/svg" role="img" xmlns:xlink="http://www.w3.org/1999/xlink" viewBox="142.45 309.95 326.84 171.84"><defs><clipPath id="a"><path d="M144 357h1v123.32813h-1zm0 0"/></clipPath><clipPath id="b"><path d="M144 311.67188h1V354h-1zm0 0"/></clipPath><clipPath id="c"><path d="M144 311.67188h324v168.65625H144zm0 0"/></clipPath><clipPath id="d"><path d="M467 399h1v81.32813h-1zm0 0"/></clipPath><clipPath id="e"><path d="M467 311.67188h1V392h-1zm0 0"/></clipPath><clipPath id="f"><path d="M144 478h4v2.32813h-4zm0 0"/></clipPath><clipPath id="g"><path d="M153 478h8v2.32813h-8zm0 0"/></clipPath><clipPath id="h"><path d="M166 479h9v1.32813h-9zm0 0"/></clipPath><clipPath id="i"><path d="M173 480h3v.32813h-3zm0 0"/></clipPath><clipPath id="j"><path d="M180 479h8v1.32813h-8zm0 0"/></clipPath><clipPath id="k"><path d="M187 480h2v.32813h-2zm0 0"/></clipPath><clipPath id="l"><path d="M193 479h8v1.32813h-8zm0 0"/></clipPath><clipPath id="m"><path d="M200 480h2v.32813h-2zm0 0"/></clipPath><clipPath id="n"><path d="M206 479h9v1.32813h-9zm0 0"/></clipPath><clipPath id="o"><path d="M213 479h3v1.32813h-3zm0 0"/></clipPath><clipPath id="p"><path d="M220 479h8v1.32813h-8zm0 0"/></clipPath><clipPath id="q"><path d="M227 479h3v1.32813h-3zm0 0"/></clipPath><clipPath id="r"><path d="M233 478h8v2.32813h-8zm0 0"/></clipPath><clipPath id="s"><path d="M240 478h3v2.32813h-3zm0 0"/></clipPath><clipPath id="t"><path d="M246 478h9v2.32813h-9zm0 0"/></clipPath><clipPath id="u"><path d="M253 478h3v2.32813h-3zm0 0"/></clipPath><clipPath id="v"><path d="M260 479h8v1.32813h-8zm0 0"/></clipPath><clipPath id="w"><path d="M266 479h4v1.32813h-4zm0 0"/></clipPath><clipPath id="x"><path d="M273 479h8v1.32813h-8zm0 0"/></clipPath><clipPath id="y"><path d="M279 479h2v1.32813h-2zm0 0"/></clipPath><clipPath id="z"><path d="M286 479h9v1.32813h-9zm0 0"/></clipPath><clipPath id="A"><path d="M292 480h2v.32813h-2zm0 0"/></clipPath><clipPath id="B"><path d="M300 479h8v1.32813h-8zm0 0"/></clipPath><clipPath id="C"><path d="M305 480h2v.32813h-2zm0 0"/></clipPath><clipPath id="D"><path d="M313 479h8v1.32813h-8zm0 0"/></clipPath><clipPath id="E"><path d="M319 480h1v.32813h-1zm0 0"/></clipPath><clipPath id="F"><path d="M326 478h8v2.32813h-8zm0 0"/></clipPath><clipPath id="G"><path d="M332 480h2v.32813h-2zm0 0"/></clipPath><clipPath id="H"><path d="M340 478h8v2.32813h-8zm0 0"/></clipPath><clipPath id="I"><path d="M353 478h8v2.32813h-8zm0 0"/></clipPath><clipPath id="J"><path d="M368 476h4v4.32813h-4zm0 0"/></clipPath><clipPath id="K"><path d="M383 476h2v4.32813h-2zm0 0"/></clipPath><clipPath id="L"><path d="M393 478h8v2.32813h-8zm0 0"/></clipPath><clipPath id="M"><path d="M391 480h4v.32813h-4zm0 0"/></clipPath><clipPath id="N"><path d="M407 477h7v3.32813h-7zm0 0"/></clipPath><clipPath id="O"><path d="M420 477h7v3.32813h-7zm0 0"/></clipPath><clipPath id="P"><path d="M434 477h6v3.32813h-6zm0 0"/></clipPath><clipPath id="Q"><path d="M447 477h6v3.32813h-6zm0 0"/></clipPath><clipPath id="R"><path d="M460 477h7v3.32813h-7zm0 0"/></clipPath><clipPath id="S"><path d="M144 464h4v6h-4zm0 0"/></clipPath><clipPath id="T"><path d="M144 450h3v7h-3zm0 0"/></clipPath><clipPath id="U"><path d="M144 436h2v8h-2zm0 0"/></clipPath><clipPath id="V"><path d="M144 442h2v2h-2zm0 0"/></clipPath><clipPath id="W"><path d="M144 423h2v8h-2zm0 0"/></clipPath><clipPath id="X"><path d="M144 411h4v6h-4zm0 0"/></clipPath><clipPath id="Y"><path d="M144 398h4v5h-4zm0 0"/></clipPath><clipPath id="Z"><path d="M144 383h1v8h-1zm0 0"/></clipPath><clipPath id="aa"><path d="M144 389h1v2h-1zm0 0"/></clipPath><clipPath id="ab"><path d="M144 371h4v5h-4zm0 0"/></clipPath><clipPath id="ac"><path d="M144 357h3v7h-3zm0 0"/></clipPath><clipPath id="ad"><path d="M144 345h4v5h-4zm0 0"/></clipPath><clipPath id="ae"><path d="M144 331h4v6h-4zm0 0"/></clipPath><clipPath id="af"><path d="M144 318h4v5h-4zm0 0"/></clipPath><g id="ag" clip-path="url(#clip1)"><path fill="#fff" fill-opacity="0" fill-rule="evenodd" d="M0 0h1000v1000H0zm0 0"/><path fill="#d3d3d3" fill-opacity="0" fill-rule="evenodd" d="M162.15234 355.86719l-.23437.29297.0586.23437.11718.17188.17578.23437.29297.34766.11328.0586.11719-.17188.0586-.23438.17577-.17578.46485-.17578h.69922l.23437.29297.28906.8164.0586.17579.17578.23046.35156.23438.69922.69922.17188.17578.23437.34765.23438.41016.28906.58203.41015.46485.23047.23437.23438.17578.11719.23047.17578.29297.17187 1.16406v.23438l.0586.28906.05859.11719.11719.11719.34765.41015.11719.17188.17578.17578.17578.23437.11719.17188.17188.35156.05859.23438.23437.40625.23438-.0586-.17578.17578-.0586.92969h-.58203l-.23437-.11328-.34766.11328-.11719.11719-.05859.29297-.0586.17578-.11718.17187-.46484.29297-.0586.23438-.0586.11328v.64453l.0586.17187v.41016l.0586.0586v.40624l.05859.40625.11719.17579.05859.05859.23047.64062-.0586.29297v.69922l-.05859.58203v.23438l-.0586.23047-.05468.35156v1.92187l.05469.1172h.42578l-.36719.11718-.02344.35156.89063 1.16797 1.74219.53906 1.33984.35938v.53906l.08984.8086.53516.71484 1.51953.26953.89063-.08594.08984 1.16406.53516.1797 1.16015-.1797 2.05469-.98437 1.16016-.36328 1.8789-.17578 1.69531-.1797-.17968.71876-1.51563.08594-1.25.08984-.80469.26953-1.07421.8086.26953.71875.53515.89843-.17968.625-.26563.8086.26563 1.07812.625.89844.80468.17969 1.25-.1797-.26562.72267.09766.5039.05468.29297v.17188l.0586.29296v.40625l.17578.1172.35156.11718h.40625l.29297-.17578.11328-.11719.0586-.11719.11718-.23047.0586-.17578.35156-.46484.23047-.17578.17578-.0586.17578.0586.0586.17578.11718.98828.05469.46875.0586.17188.11718.23437.17578.0586.8164.05859h.28907l.11719.23437.05859.40625.0586.35156v1.10547l.11718.29297.11719.34766.28906.69922.17578.35156.58203.7539.35157.17579.17187.0586.46875.23437.64063.46484.34765.23438.29297.17578.29297.05468.23047.0625.8164.34766.29297.17578.11328.17188.35157.35156.11719.17578.52343.64063v.28906l.0586.35156v.34766l.05859.35156.0586.28906.11718.0586.17188.05859h.17578l.58203.23437.17578.1172.17578.28905.17578.23438.11328.23437.29297.23047.11719.11719v.41016l.0586.05468.28906.23438.23437.11719.0586.11718.11718.17188.0586.11719.23047.23437.05859.17578.23437.0586.1172.05859-.1172.11328-.05859.11719v.11719l-.11719.29296-.11719.28907v.58203l.17579.11719.11718.05859.0586.11719.11719.11719.11328.05859.17578.34765.0586.35157.05858.40625v.17578l-.05859.17578-.11719.69922v.17187l.1172.17579.29296.29296h.40625l.17578.1172.11719.17187.11719.29296v.23438h-.52735l-.23047-.23438h-.23437l-.17578.0586-.0586.69922.0586.34765.11719.17579.17578.41015.11718.23047.28907.46875.17578.05469h.52344l.23437.0586.75781.64062.0586.29296v.23438l.05859.0586.23047.34765v.35156l-.11719.17188v.29297l.29297.28906.29297.17578.17187.0586.29297.17577.29297.1172.58203.40624.28906.23438.29297.17578.21875.16015.01563.01172.23047.17579.64062.52343.17578.23438.1172.17578.17577.17578.11328.17188v.64062l.1172.17578.46874.11719.58203.11719.23438.05859.23047.11328.29297.11719.11328.0586.58593.35156.28907.17187.17578.0625.17578.05469.17578.0586.69922.35155.28906.17579.23438.05468.28906.17578.23437.1172.64063.40624.29297.11719.17187.0586.23438.05859.41015.05859.23047.0586.23438.11718.0586.17188-.41017.17578.46875.0586.0586.29296.11328.23438.17578.05468.23438.0586.17578.05859.40625.11719.64062.23437.11719.17188.0586.23437v.17578l-.0586.1172-.0586.40624.23438.23438.11719.05859.34766.11719.64062.23047.17578.11718.28906.1172.17578.17577.23438.46485.58203 1.10546.17578.17579.34766.17578.17578.11719.35156.11718 1.04688.52344.23437.0586.46485.11327.29297.0586.46484.17578.75781.58203.23438.23438.34765.46484.17578.17578.28907.23438.8164.69921.29297.17579.28906.28906.29297.17578.29297.28906.69531.64063.17578.17578.29297.23437.28907.23438.46875.28906.64062.58203.34766.23438.23437.29297.34766.34765.35156.46485.9336.99218.34765.40625.11719.17579.23437.05859.11328.11719.64454.17578.23047.11328.23437.0586.29297.17577.23047.1172.9336.69921.40624.40625.23438.17578.40625.17578.23437.11719.8164.34766.34766.23437.23438.11719.29297.28906.23047.11719.7578.35156.35157.17188.23047.05859.29297.11719.23437.0586.8711.17577h.8164l.46875.23047.17188.0586.875.69921.46484.1172.29297.05858.17578.0586.23047.0586.46875.05859.34766.05859.35156.0586.40625.05859h.29297l.17187.0586v.23046l.17578.17578h.29297l.34766.0586.35156.05859.69922.11719h.64063l.46484-.23438.29297-.17578.17187-.11719.41016-.17187.28906-.17578.9336-.46485.46875-.29297.52343-.29296.46485-.17188.46484-.17578 1.05078-.46485.28906-.11718.41016-.11719.28906-.11719.52735-.17578 1.51562-.69922.58203-.34765.28907-.0586.29297-.0586.34765-.11718.875-.23047.35156-.11719h.11329l.23437-.05859.875-.23437.23438-.0586h.8125l.35156-.0586.8164-.11718.17188-.0586.35156-.05468.29297-.0586.23047-.05859.8164-.17578.17579-.0586h.34765l.23438-.05859.46484-.11718.75781-.17188.23438-.0586h.34765l.41016-.11718.28906-.0586 1.28516-.05859h.28906l.41016-.0586.23047-.05858h.17578l.875-.1172h.40625l.41015-.11718h.34766l.35156-.11328.8711-.0586h1.75l1.04687.28907.41016.11719.28906.11718.35156.11719.28907.11719 1.05078.17187.28906.0586h.29297l.29297.05859.17187.0586.41016.05859.17187.0586.1172.05858h.11718l.11719.0586.35156.0586h.11328l.41016.0664 1.92187.39453 1.92578.39453 1.51953.44922 1.69532.71875 2.14453.80469 1.60547-.71875 1.42968-.80469 1.16016-1.07813 1.25-.44921 3.03516-.71875 1.875-.35938 2.14453-1.34765 2.23437-1.25391 2.5-1.25781 1.69531-.44922 1.78516-.17969 1.16016-.26953.625.53906 1.33984-.26953.71485-.98828.98437-1.34375.44531-.17969.80469-.35937 1.875-.53907 1.78516-.44921 1.25-.26954 1.16015-.08984 1.69922-.08984 1.96094-.26954 1.25-.08984h.53906l.625-.08984h.89063l2.14453-.17969 2.41015-.17969 2.58985-.08984 1.69531.17969 1.60938.08984 1.42968.35938 1.16016.71875 1.875.98828 1.16015 1.52734.26563.71484.6289.08985.35548.89844.53515.53906.53516 1.52734 1.07422.35938h.53515l-.80469.53515.08985 1.70703.71484 2.69532.89063.80468.89453.98829.71484 1.2578 1.78516.53907 1.51953-.17969.35547 1.34375 1.60937-.80469.98047-.53906.26953.26953.31641-.21484.21875-.14453.80078.44922.44922-.35938h.35547l.53515-.26953.53907-.71875.53515-.26953.625-.98828 1.16016.44922.83984.3711 1.39454.61718 1.6953-.17969h1.60548l1.78515.08985.17969-1.70704.53516-1.34375.80468.26954.4922.84765.40233.40625-.08984.53906v.35938l.71485.44922.71093-.26953h1.42969l.35938.98828.4453 1.25781.71485 1.34375 1.25.6289 1.69531.62891.71485-.17969.17969-.53906.98046-.08984.44922.35937.08594 1.25782-.26563.6289-.53515.17969v.53906l.71484.98438.26563.53906.98437.98828.80078 1.07813-.26562.35937-.08985.89844-.625 2.33203-.35546 2.0664-.08985 1.79298-.17969.71875-.08984.53906v1.4375l-.98047 1.88281-.35937 1.70703-.53516.89844-.80469 1.16797-.26562.53906 2.05469 1.2539.08593.35938-.35546.53906-.08985-.17968v.80859l.08985 1.4375-.44532.71484-1.07422.09375-.26562.71485.53515.89844.8047.71875 1.16015.80859 1.33984.26953.44531.35938-.35546.44921-1.78907-.08984-1.25-.44922-.71484-.71875-.625-.08984-.17578 3.58984-.1875 1.3086h89.35937V311.70313h-55.26953v49.08203l.76172.125 3.28906.54296 2.02344 2.83594v2.7539l2.35156.33204 2.34766.33203h4.05078l-1.3789 4.16016-2.02344.70703-2.02344.70312-.54297.34375-2.59375 1.6172-.1875.11718-2.02344-2.07813-.73046-2.74218-2.67188-2.07813-1.375-3.5-.0664-.08203-1.95704-2.67188 2.75-1.41796v-49.08204H294.42187v91.41407l.1172.03125.1328.01172.07422.07421.10547.04688.08985.0586.08593.05859.08985.0586.29687.29687.0586.08984.03125.11719.02734.11719.01563.13671-.03125.1172-.0586.08983-.0586.08594-.04296.10547-.04688.10156-.02734.1211v.14453l.17578.26953.14844.14844.07422.08594.07422.07421.04296.10547.0625.08985.0586.08593.04297.10547.0586.08985.04687.10156.04296.10547.0586.08594.11719.17968.07421.07422.0625.08594.0586.08984.04297.10547.0586.08985.05858.08593.0625.08985.0586.08984.04297.10156.11719.17969.07421.07422.0586.08594.07422.07421.08984.0586.10547.04687h.14844l.1328-.01562.13282.01562.10156-.04687.07422-.07422.04688-.10156-.01563-.13281v-.14844l-.04687-.10547-.02735-.11719-.04687-.10156-.02735-.1211-.04296-.10156-.0625-.08984-.04297-.10156-.04297-.10547-.03125-.11719-.01563-.13281-.01171-.13672.08593-.0586.0586-.08593.12109-.03125.04297.10547.01562.1328v.1172l.0586.10156.0586.08984.08983.0586.14844.14843.0586.08985.04296.10547-.01171.10156.08593.0586.10547.04687.08594.0586.08984.05858.07422.07422-.11719.02735-.10546.04687-.08594.0586-.07422.07421-.0586.08985-.0625.08594-.02734.12109-.04687.10156-.04297.10547-.03125.11719-.01172.13281-.01563.13281v.14844l.02735.11719.04687.10547.04297.10156.0586.08984.07421.07422.08985.0586.07422.07421.08984.0586.0586.08984.04296.10547.04688.10156.11719.03125.1328.01563h.14845l.11718-.03125.10547.04297.04297.10547.04688.10156.02734.1211L299.5 410l.02734.11719.03125.1211.02735.11718.10547.04297.10156.04687.13281-.01562.14844.14844.0625.08593.07422.07422.07031.07422.08984.0625.10547.04297.10156.04297.1172.03125.13671.01562.11719-.03125.07422-.07422.02734-.11718-.01172-.13282-.03125-.12109-.02734-.11719.04297-.10547h.11719l.08984.0625.11719.02735h.14843l.13282.01562h.14843l.13282.01563.1328-.01563h.14845l.1328-.01562.13282-.01172.13672.01172.11719-.02735.13281-.01562.1914-.0586-.05859.17579-.01562.1328-.02735.1211-.01562.13281-.0586.08594-.1328.01563-.10548.04687-.10546.04297-.1172.03125-.11718.02735-.26563.03125h-.14843l-.13281.01562-.07422.07422.05859.08594.14844.14843.11719.1797.07421.0703.08985.0625.08984.0586.08594.0586.08984.05858.10156.04297.10547.0625.10547.04297.08594.0586.10547.04687.10156.04297.17969.11719.0586.08984-.04298.10156-.04687.10547.01562.13281.22266.22266.0586.08985.04296.10156.03125.1211.04297.10155.01563.13282.03125.11718.01171.13672.03125.11719.14844.14844.10156.04297.10547.04296.1172.03125.1328.01563.13672.01563h.11719l.11719-.03125.08984-.0586.04297-.10547.04688-.10156.04296-.10547.03125-.11719.01172-.1328v-.14845l-.01172-.1328-.01562-.13282-.03125-.11719-.04297-.10547-.04688-.10547-.04296-.10156-.04297-.10547-.01563-.13281.01563-.13281.02734-.11719.03125-.11719.02735-.1211.04687-.10155.08984-.0586.08594-.0625.07422-.07422.08984-.05859.22266-.22266.0586-.08593.07421-.07422.11719-.17969.0586-.08594v-.14844l-.07423-.07421-.10156-.04688-.10547-.04297-.10156-.04297-.0586-.08984-.04687-.10547-.02734-.11719.08984-.05859.11719-.03125.10156-.04297.17969-.11719.14844-.14843.01172-.13282-.01172-.10546-.08985-.0586-.1328.01563h-.14845l-.1328.01562-.13282-.01562-.1211-.03125-.08593-.0586-.07422-.07422-.0586-.08984-.0625-.08594-.11718-.17969-.0586-.08593.03125-.1211.08594-.05859.1211-.03125.05859-.08594v-.1211l-.03125-.11718-.0586-.08984-.05859-.08594-.04687-.10547-.02735-.11719-.01562-.1328.0586-.08985.07421-.07422.08984-.0586.1172-.17968.07421-.07422.0586-.08594.14843-.14844.1211-.03125.1328-.01562.13282.01562.07422.07422.04297.10547.01562.13281-.03125.1172-.11719.03124-.1328.01172-.14844.14844-.04297.10547-.04688.10156-.02734.1211-.03125.11718v.14844l.03125.11719.04297.10546.05859.08985.07422.07031.07422.07422.11719.03125.12109.02734.11719-.02734.1328-.01563h.1172l.08984.0586.07422.07422.04687.10546.0586.08594.10156.04688.13281.01562.10547.04297.08594.0586-.01172.10546-.07422.07422-.17969.11719-.05859.08984-.08984.0586-.07032.07422-.07421.07421-.0625.08985-.02735.11719-.01562.1328.01562.13282-.01562.13281v.14844l.01562.13281.02735.1172.03125.12108.07421.07422.08985.0586.08594.0586.08984.05858.11719.03125v.08594l-.10157.04688-.08984.0586-.26563.03124-.11718.02735h-.14844l-.10547.04296-.10156.04688-.0586.08984-.0625.23438-.01171.13281-.03125.1211-.01563.1328v.29298l-.01172.1328.01172.13673.01563.1328.1328.01563.13282.01172.1211.03125.08593.0586.07422.07421.04688.10547.04296.10157.01563.1328v.44532l-.01563.13281v.44532l.03125.26562.02735.11719.01562.13281.03125.11719.08594.21094.03125.26562v.14844l-.03125.11719-.02734.11718-.03125.1211-.02735.11719-.03125.11718-.03125.1211-.01171.1328-.01563.13282.08984.0586.1172-.03125.10155.01562.04688.10547-.03125.26562v.44141l-.04297.10547-.04688.10547-.04296.10156-.04297.10547-.0586.08594-.03125.12109-.04296.11719-.03125.11719-.01563.1328.01563.13282.05859.08984.10547.04688.08594.0586.05859.08593-.01172.13672-.03125.11719-.04297.10156v.44531l-.01562.13281v.14844l-.03125.11719-.04297.10547-.02735.11719-.04687.10546-.04297.10157-.03125.12109-.02734.11719-.03125.13281-.03125.11719-.02735.11719-.04297.10546-.03125.1172-.03125.12108-.01171.13282-.01563.13281v.29688l.02734.11718v.14844l.04688.39844.02734.11719.0586.08984.12109.03125h.14844l.13281-.01563.0586.08985v.11719l-.0586.08984-.08984.0586-.10157.04296-.10546.04688-.08985.05859-.08594.0586-.13671.01562-.1172-.03125-.1328-.01563-.10157.04688-.0625.08594-.01172.13671-.01562.13282-.03125.11719-.02735.11718-.01562.13281-.03125.1211v.29687l.01563.13282.03125.11718v.14844l.01171.13281v.14844l-.02734.11719-.04688.10156-.02734.1211-.03125.11718-.0586.08985-.07421.07421-.10156.04297-.10547.04688-.11719.02734-.1211.03125-.10156-.04687.0586-.08594.10547-.04688.02734-.11718.03125-.11719.02734-.1211.03125-.11718v-.14844l.01563-.13281-.03125-.11719-.04297-.10547-.10547.01563-.07422.07422-.10156.04296-.08984.0625-.07422.07422-.04297.10157-.01563.1328-.03125.1172L304.25 426l-.03125.11719-.02734.11719-.03125.12109-.02735.11719-.03125.11718-.04297.10547-.08984.0586h-.08984l-.1172-.03125-.03124-.08594.01562-.13672-.03125-.11719v-.14844l-.01171-.1328v-.14844l-.0625-.23438-.02735-.1211-.04297-.10156-.04687-.10546-.0586-.08594-.05859-.08985-.04297-.10546-.0625-.08594-.14844-.14844-.0703-.07422-.10548-.04687-.10547-.04297-.10156-.04297-.29687-.29688-.08985-.07421-.08594-.0586-.10546-.04297-.08985-.0625-.08594-.0586-.10546-.04296-.08985-.0586-.08594-.0625-.07421-.0703-.10547-.04688-.08594-.0586-.10547-.04296-.08984-.0625-.10156-.04297-.10547-.04297-.08594-.0586-.10547-.04687-.10547-.04297-.10156-.04687-.08985-.0586-.10156-.04297-.10547-.04296-.08984-.0625-.11719-.02735-.13281-.01562-.13281.01562H299.75l-.13281.01563-.11719-.03125-.08984-.0586-.07422-.07422-.08985-.05859-.10156-.04688h-.14844l-.12109-.02734-.10156-.04297-.07422-.07422-.11719-.17968-.08984-.0586-.10156-.04297-.08985-.0625-.10547-.04296-.08984-.0586-.08594-.0586-.10547-.04687-.0586-.08594-.05858-.08984-.04297-.10547-.04688-.10156-.07422-.07422-.08594-.0586-.07421-.07421-.08985-.0586-.22265-.22265-.04297-.10547-.03125-.26563.10547-.04296h.14453l.10547.04296.07421.07422.08985.0586.08594.0586.10546.04687.08985.05859.14844.14844.0703.07422.14845.14843.0625.08594.07421.07422.08594.0586.07422.07421.08985.0625.08984.0586.08594.05859.26953.17578.10156.04688.10547.04296.10156.04297.04688-.07421.05859-.08594.07422-.07422.07031-.07422.10547.04297.07422.07422.0586.08984.04296.10156.04688.10547.04296.10547.1211.02735.11719-.02735.07421-.08984.04297-.10547.0586-.08985.07422-.07421.10546-.04297.1172-.02735.1328.01172.08985.0586.14844.14843.05859.08985.04297.10547.04687.10156.04297.10547.04297.10156.10547.04688.10547.04296.13281.01563.08594-.0586.0586-.08984.07421-.07422.10547-.04297.11719.02735.10547.04687.10156.04297.10547.04297.10156.04688.17969.11718v.11719l-.01563.13281.01563.13281.01562.13672.0586.08594.10156.04688.1211.02734.11718.03125h.14844l.11719-.03125.05859-.08984.17969-.1172.05859-.08983.07422-.07422.0586-.08594.11718-.17969.17969-.11719.11719.03125.08984.0586.04297.07422-.01563.1328v.1172l.08985.05859h.14843l.13282-.01563.1328-.01171.26563-.03125.10547-.04297.11719-.03125.1211-.02735.07421-.07421.07031-.07422.0625-.08985-.01562-.10547-.04688-.10156-.10156-.04297-.10547-.01562-.11718.02734-.26563.03125h-.14844l-.07421-.07422-.08985-.0586-.11719-.03124-.11718-.02735-.13282-.01562h-.14843l-.13282.01563h-.29687l-.10547-.04688-.14844-.14844-.04297-.10156-.05859-.08984.22266-.22266.08593-.0586.10547-.04296.11719-.03125.13281-.01563.13281.01563.13672.01562.10157.04297.1328-.01172.08985-.0625.10156-.04297.0625-.08984-.04687-.10156-.08984-.0586-.1172-.03125-.10155-.04296-.0586-.08985-.0625-.08984v-.11719l.01563-.13281.10547-.04688.07421-.07031v-.1211l-.08984-.05859-.03125-.11719.08985-.05859.07421-.07422.04297-.10547.0586-.08984.04687-.10156.01563-.13281v-.14844l-.04688-.10547-.04297-.10156-.08984-.0586-.13281-.01562-.10157-.04297-.13671-.01563-.1172-.03125h-.4453l-.13282-.01562-.13281-.01172-.13281-.01563-.11719-.03125h-.14844l-.13281-.01562-.13281-.01172-.26563-.03125-.1211-.04297-.08593-.0586-.07422-.07421v-.14844l.01172-.13281.10547-.04688.10156-.04296.13281-.01563h.15235l.13281-.01562h.29297l.1211.03125.10156.04296.08984.0586.23438.0625.12109-.04688.08984-.05859.10156-.04297.13282-.01562.10547.04296.10156.04688.13281.01172.1211-.02735h.14453l.12109-.03125.11719-.02734.10547-.04687.07421-.07422.08594-.0586.14844-.14843.0586-.08594.04687-.10547.02734-.11719.01563-.10547-.10156-.04296-.08985-.0586-.11719-.03125-.10546-.04297-.08985-.0625-.07422-.08594-.07422-.07421-.10156-.04297-.10547-.04688-.10156-.04297-.0586-.08984-.04687-.10156-.08594-.21094-.0625-.08594-.05859-.08984-.07422-.07422-.08594-.0586h-.26953l-.11719.03126-.08984.05859-.10156.04297-.13281.01562-.10547-.01562-.02735-.11719-.0625-.08984-.11718-.03125-.10157-.04297-.14843-.14844-.03125-.11719-.01563-.10546.07422-.07422.17969-.1172.11719-.02733.11718-.03125.13672.01562.10156.04297.10547.04297.10156.04687.10547.04297.1172.03125.1328.01563.1172.02734.1328.01563.10547-.01563.08985-.0586-.07422-.07421-.10547-.04297-.07422-.07422-.07422-.08984-.14844-.14844-.08593-.0586-.08985-.05859-.07422-.07422-.08984-.0586-.10156-.04687-.1211-.02734-.10156-.04688-.10547-.04296-.11719-.03125-.10156-.04297-.1211-.03125h-.14843l-.11719.03125-.10546.04297-.08594.0625-.17969.11718-.08594.0586-.08984.0586-.10547.04687-.08594.05859-.10547.04297-.10156.04297-.10547.04687-.07422.07422-.05859.08985-.0586.08593-.04687.10547-.0586.08594-.07421.07422-.13281-.01172-.1172-.03125h-.11718l-.07422.07422-.08984.0586-.07422.07421-.08984.0586-.08594.05859-.10547.04687-.10156.04297-.13672.01563-.10156-.04297-.14844-.14844-.10547-.04688h-.08594l-.10547.04688-.10156.04297-.1211.03125-.11718-.03125-.07422-.07422v-.11719l.03125-.1211.07422-.0703.0586-.08985.07421-.07422.11719-.03125.10547-.04296h.29297l.13281-.01563.13672-.01563.10156-.04296.08985-.0586.10156-.04687.08984-.0586.13281-.01171.08985.05859.13281.01172.08984-.0586.08594-.05859.10547-.04297.08984-.0586.08594-.0625.08985-.05859.14843-.14843.0586-.08594.05859-.08985.10547-.04296.13281-.01563.11719.02735.1211.03125.05859-.0586.05859-.08984.03125-.26563.02734-.11719.10547.01172.13281.01563.10157-.04297.08984-.0586.0586-.08984.07421-.07422.0586-.08984.04687-.10156.01172-.13281-.01172-.13282-.04687-.10547-.14844-.14843-.0586-.08985-.05859-.08594-.04297-.10546v-.44532l.01563-.1328v-.14845l.01172-.1328-.0586-.0586-.08984.0586-.10156-.04298-.17969-.11719-.08594-.05859-.0625-.08984-.0586-.08985-.07421-.07421-.08594-.0586-.1211.03125-.10155.01172-.10547.04688-.08594.05859-.10547.04297-.14844.14844-.08984.05859-.08594.0586-.08984.0625-.10547.04296-.13281.01563v-.1211l.10547-.04297.11718-.03125.07422-.0703.04297-.10548v-.14844l-.02734-.11718-.14844-.14844-.13281-.01563h-.14844l-.11719.03125-.10547.04297-.10156.04297-.08984.0625-.11719.02735-.07422-.07422.01172-.13281-.04297-.10157-.04297-.10547-.08984-.05859-.11719.02734-.1211.03125-.11718.03125-.10156.04297-.1211.03125-.10156.04297-.10547.04297-.08984.0586-.10156.01562v-.11719l.01562-.13281-.0586-.08985-.07421.04297-.14844.14844-.0586.08985-.07421.07421-.04688.10547-.04296.10156-.07422.07422-.0586.08985-.07422.07422-.05859.08593-.07422.07422-.08984.0625-.07422.07031-.07422.07422-.10156.01563-.13281.01562-.10547-.04296v-.1211l.14843-.14844.04297-.10156.0586-.08984.04687-.10156.04297-.10547.0586-.08985.03124-.11719.04297-.10156.03125-.1211.02735-.11718.04687-.10547.04297-.10156.04297-.10547.07422-.07031.08984-.0625.08985-.0586.10156-.04296h.29687l.26563-.03125.10547-.04297-.07422-.07422-.11719-.03125-.10547-.04297-.08984-.0586-.10156-.04687-.08985-.0586-.10156-.04296-.10547-.04297-.08984-.0625-.08594-.0586-.10547-.04296-.10156-.04297-.1211-.03125-.11718-.03125-.10157-.04297L297.5 410.25l-.10156-.04297-.08985-.0586-.04296-.10546-.01563-.13281.10156-.04297.13281-.01563.13672.01563.13282-.01563.10156-.04297.0586-.08984.01562-.10547-.08985-.0586-.07421-.07421-.10157-.04297-.08984-.0586-.14844-.14843-.04297-.10547-.01562-.13281v-.29297l-.0586-.08985-.08984-.05859-.07422-.07422-.04297-.10547-.03125-.11718-.0586-.08985-.07421-.07422-.11719-.02734-.07422-.07422-.08984-.0586-.08984-.0625-.08594-.05859-.07422-.07421-.0586-.08594-.04687-.10547-.08594-.0586-.14843-.14843-.19532-.0586-.1328.01563-.10157.04297-.07422.07422-.04688.10156-.04296.10547-.0586.08984-.0586.08594-.29687.29687-.08984.0586h-.08594l-.0625-.08594-.04297-.10547.03125-.11719.0586-.08984.02734-.11719-.01172-.13281-.08984-.0625-.10547.04688-.11719.02734-.11719.03125-.26953.17578-.10156.04688-.11719.02734-.10546.04687-.08985.0586-.10156.04297-.0586-.08594-.04687-.10547.01563-.13281.04687-.10547.07031-.07422.07422-.07031.0586-.08985v-.14843l-.04297-.10547h-.23829l-.10156.04687-.03125.11719-.02734.11719-.03125.1211-.07422.04296-.13281.01563-.07422-.04688-.04297-.10156-.04297-.10547-.04687-.10156-.04297-.10547-.1211.03125-.10156.04297-.13281.01562-.11719.03125-.10547.04297-.08984.0586-.10156.04687-.1211.02734-.13281.01563-.10156-.04297-.0586-.08985-.04687-.10546-.04297-.10157-.04297-.10546v-.1172l.0586-.08984.08593-.05859.17969-.11719.10156-.04687.10547-.04297.10547-.0586.10156-.04296.08985-.0625.10156-.04297.10547-.0586.10156-.04687.08984-.0586.10547-.04296.10156-.04297.08985-.0625.10156-.04297.13672-.01563.11719.03125.10156.04297.1211.03125.10156.04297.10546.04688.10157.04296.10547.04297.10156.04688.10547.04297.10156.04297.10547.04687.08594.0586.10546.04296.1172.03125.10546.04297.10156.04688.08985.0586.10547.04296.10156.04297.10547.04687.11719.02735.10156.04687.1211.02735h.14843l.08594-.0586.01562-.10156.0586-.08984-.02735-.1172-.07422-.07421-.11719-.17969-.07421-.07422-.08985-.07421-.17969-.1172-.08593-.05859-.10547-.04296-.10156-.04688-.26954-.17578-.05859-.08985-.07422-.07421-.0586-.08985-.04296-.10156-.03125-.11719-.01563-.13672v-.5625l-.01171-.1328-.01563-.13282-.03125-.11719-.01562-.13281-.01172-.13281-.03125-.1211-.22266-.22265-.0586-.08594-.01562-.10547.03125-.11719.13281-.01562v-91.41406H172.9922v1.45312l-.0586.23438-.35156 1.05078-.17187.52343-.1172.34766-.17577.41016-.11719.17187-.23438.29297-.23046.0586h-.35157l-.11718.05859-.23047.40625v.29297l.11719.17578.23046.23047.1172.23437.64062.75781.29297.46485.17578.23437.23047.35156.23437.34766.64063.8164.17578.46485.17187.41016.11719.69531.17578.46875.11719 1.39844.0586.46484v.875l.11718 1.04688v4.78125l-.0586.46484-.35156 1.28125-.17578.52344-.11328.41015-.35156.9297L172.93359 336l-.23437.58203-.11719.17578-.17187.34766-.17578.40625-.35157.8164-.0586.29297-.11327.29297-.11719.28906-.0586.17579-.11718.875-.0586.40625-.05859.11718-.0586.17579-.05859.17187-.23047.52734-.11718.17188v.23437l-.11719.23438-.0586.17187-.17577.58594v.28906l-.0586.17579v.29296l-.0586.11329-.05859.52734v.17187l-.05468.23438v2.6211l-.17578.8164-.1172.17578-.17577.23438-.1172.17187-.11327.23438-.58594.93359-.23047.28906-.29297.46485-.17578.23437-.28906.35156-.35156.69922-.11328.23047-.17579.41016-.17578.23046-.40625.52735-.8164.69922-.29297.17187-.28906.23438-.17579.11719-.17578.17578-.52344.40625-.52734.17578-.17187.17578-.23438.05469-.64062.17578h-.75782m12.21094 31.02344l-1.07422.44921.35938.89454 1.25-.71485.44531-.53906-.98047-.08985"/><path fill="#d3d3d3" fill-opacity="0" fill-rule="evenodd" d="M201.50781 416.59766h-.89453l.44922.6289.98047.35938.80469-.08985.4453-.98828-.17577.08985-.71485-.35547-.89453.35547m154.6211 59.0703l-.0586-.52343v-.29297l.11328-.29297.0586-.23046.46875-.46875h.11328l.11719-.11329.11718-.05859h.17579l.23437-.0586h.34766l.23437.0586.11719.0586.23047.17187.0586.17578.11718.58203v.29297l-.11719.17578-.17187.28906-.17579.17579-.52734.52343-.23047.23438-.11719.0586h-.17578l-.11718-.0586-.40625-.29297-.17579-.11719-.11718-.0586-.0586-.11327-.05468-.1172m6.64062-10.95702l-.0586-.17188v-1.10937l.0586-.17188.17578-.0586.17188-.05858h.17578l.23437-.0586.1172.0586.05858.69921-.05859.17188-.11719.17578-.11718.0586-.23438.52343-.11328.0586h-.23438l-.05859-.1172m9.61328-14.39062l-.11719-.17578v-.69922l.29297-.875.1172-.17187.17577-.35156.11328-.23047.1172-.29297.35155-.75781.1172-.23047.17187-.23438h.17578l.11719-.0586h.64062l.11719.0586.23437.23438.17188.11328.35156.29297.11719.11718.11328.17579v.11328l.11719.05859.11718.11719v.69922l-.05859.17578v.23047l-.0586.17578-.34765 1.05078-.11719.23047-.11719.23437-.11718.0586-.23047.23437-.64063.28906h-.875l-.41015-.11718-.64063-.46485"/><path fill="none" stroke="#bebebe" stroke-linecap="round" stroke-linejoin="round" stroke-miterlimit="10" stroke-width=".5" d="M467.95703 311.69531H144.02734v168.625h323.9297v-168.625"/><g clip-path="url(#a)"><path fill="#fff" fill-opacity="0" fill-rule="evenodd" d="M144 475.89063v4.4375h.0039H144V357.2539v118.63671"/></g><g clip-path="url(#b)"><path fill="#fff" fill-opacity="0" fill-rule="evenodd" d="M144 351.61719v1.96875-41.91406h.0039H144v39.9453"/></g><path fill="#50fcfc" fill-rule="evenodd" d="M144 353.58594v3.66797l.0039-.00391v-3.65625l-.0039-.00781"/><g clip-path="url(#c)"><path fill="#fff" fill-opacity="0" fill-rule="evenodd" d="M144.0039 480.32813V357.25l1.20704-1.19531-1.20703-2.46094v-41.92188h17.75v72.4375l-4.4375.02735-3.35938 2.98828-1.08203.14063-4.4375.1289-4.11719 4.16797-.25 4.4375.2461 4.4375 4.12109 4.28125 3.4375.15625-2.22656 4.4414 1.07422 4.4375 2.15234 1.73438 4.4414 1.1875 4.4375-.69531 1.1797 2.21094.83202 4.4375 2.42579 2.32812 4.4375-2.1875.17187-.14062 4.26563-1.72657 4.4414-.14453 4.4375-.40625 4.4375-1.04297 1.96485-1.11718 2.47265-.20313 4.07031.20313.3711.16406 4.4375 4.23828.05469.03516 4.3828 4.09375 4.4375-.00391 4.44142.04297 3.04296.3086 1.39453.7578 3.53907 3.6797.89844.71093 2.22265-.71094 2.21484-2.02734 1.83594-2.41016-1.83594-1.01172-4.38671-3.42968-.05078-.08985-.53125-4.34765.24218-4.4375-.60937-4.4375-3.53906-3.44532-2.03907-.99609-2.39844-1.9336-2.04687-2.5039-2.39453-2.48828-4.4375.08203-2.3086 2.40625.48047 4.4375-2.60937.28906-4.4375-.2539-.0586-.03516-.69921-4.4375-3.6836-4.21094-.42578-.22656-4.01172-3.16406-.75781-1.27344-3.67969-3.66016-4.07031 3.66016-.36719.60156-4.4414.41016-4.4375-.19531-.8047-.81641-3.02343-4.4375-.60937-.60938-4.4375-2.40625v-72.4375h13.3125v32.64454l-2.88282 2.86328-.03125 4.4375 2.91407 2.5039 2.51953-2.5039.98047-4.4375-3.5-2.86328v-32.64454h22.1953v59.71094l-4.4414.67188-1.27734 1.7539-3.16016 3.21094-1.22656 1.22656 1.22656 1.22657 4.4375-.48829 2.09766 3.69922-1.375 4.44141 3.71875 3.58203 2.05078.85547 2.38672 2.64453 4.4375-2.19531.41016-.44922 2.875-4.4375-3.28516-3.33203-1.63281-1.10938.05078-4.4375-2.85547-2.89062-2.01953-1.54688-2.41797-2.42578v-59.71094h35.5039v92.89844l-.3203.30469.3203.28906.31641-.28906-.3164-.30469v-92.89844h53.26171V419.9375l-4.4375 2.66797-.02343.02344.02343.02343 4.4375 2.71094 3.96485-2.73437-3.96485-2.69141V311.67187h22.19141V392.625L304.51953 396l-.44922 4.4375-.28906.46484-4.4375 3.64844-.36328.32422.36328 1.63281 4.02734 2.8086-.21093 4.4375.62109.4453 4.4375 3.57032v12.15625l-1.57813 1.58203-2.85937 2.33203-3.35156 2.10547 3.35156 3.15235 3.8711-3.15235.5664-.85937 2.03516-3.57813-2.03516-1.58203v-12.15625l4.4375-1.00781 3.01563-3.00781.21875-4.4375 1.20703-.98829 3.0078-3.45312-3.0078-3.07813-3.96875 3.07813-.47266.59766-1.60547-.59766.15625-4.4375.73828-4.4375-3.72656-3.375v-80.95313h17.7539v80.86329L322.6211 396l3.35157 3.85156 4.4375-1.67578 1.57812 2.26172 1.03516 4.4375 1.82422 3.0039 1.41796 1.4375-1.41796.53907-4.4375 3.46094-.42579.4375-3.58203 4.4375 4.00782 3.6914 4.4375-.57812 4.42578 1.32422-3.09766 4.4414 3.11328 2.95703 1.33985 1.48047 1.20312 4.4375 1.89453 2.01563.6875 2.42187-.6875 2.94531-1.41797 1.4922 1.41797 1.4453 4.4375 2.1211 4.4375.30078 4.4414-1.16406 4.4375-.91406 2.9375 2.65234 1.5 2.24219 3.65626 2.1953-3.65625 2.44142-1.59375 1.99609 1.59375 1.50781 2-1.50781 2.4375-3.65625 4.4375 1.79687 4.4414.38672 4.4375-.07812 3.21485-2.88672-3.13672-4.4375-.07813-.07813-.16796.07813-4.26954 1.46484-4.4414.46094-.98828-1.92578.98828-.76953 3.67969-3.67188-.23438-4.4375.6211-4.4375-4.06641-3.04297-4.4375.33985-4.4375-.21875-4.4375-.13281-4.4375-.42579-4.4414-.8125-4.4375 4.1797-1.41407-4.32423-.5586-4.4375-2.46484-2.92187-4.41015-1.51953-.02735-.3672-.07031-4.0703.07031-1.21094.22266-3.22656 4.21484-1.27344 4.4375.35937 4.4375.23438 4.4414-1.77344 1.94923-1.98437 1.64844-4.44141-3.59766-3.47266-2.01172-.96484-2.42969-4.3789-.04297-.0586-4.39453-2.48828-4.4375-.63281L340.28906 396l-1 .61719-.82031-.61719-3.6211-3.16016-4.4375 1.0586-4.4375-1.36328v-80.86329h13.31641v75.2422l-.67578.21093.67578.41016.20703-.41016-.20703-.21094v-75.24219h22.1914v72.08204l-3.51171 3.37109-.92578 4.35938-.0664.07812.0664.08203.13672-.08203 4.30078-.55078v35.4961l-.46485.5625.46485.46874 4.4375-.04297.42969-.42578-.4297-.34375-4.4375-.21875v-35.4961l4.4375-2.53124 1.32813-1.35547-1.32812-1.28516-4.4375-2.08593v-72.08204h66.57422v93.01954l-4.4375.04687-.14453.13672.14453.13672 4.4375.05078.20703-.1875-.20703-.1836v-93.01952h4.4375v133.46484l-4.4375.57422-3.57813 3.55078.82813 4.4375 2.75 2.5625 4.4375 1.48828 4.4375-.89063 3.08594-3.16015.53125-4.4375-3.6172-3.6289-4.4375-.4961V311.67187h17.75391v71.10547l-4.4375 1.14454-2.44921 3.20312-1.98829 2.6211-1.82421 1.8164L437.73046 396l.3789 4.4375 3.26172 2.33984 4.4375-2.26171.67188 4.35937 1.5625 4.4414 2.20312 1.52735v38.23438l-.71093.18359-1.46094 4.4375 2.17187 1.89453 1.89844-1.89453-1.71875-4.4375-.17969-.1836v-38.23437l4.4375 2.38672 4.44141-1.86719 1.4961-2.04687-1.4961-1.5-1.40234-2.94141-1.45313-4.4375-1.58594-1.61719L454.0547 396l-2.47266-4.4375 1.78906-4.4375-3.125-4.34766v-71.10546h8.87891v63.8828l-3.04297 2.69141-.13281 4.4375 3.17578 2.91407 2.89063-2.91407-.19922-4.4375-2.69141-2.6914v-63.88281h8.8711v80.15234l-4.4336.85156L460.30078 396l3.26172 3.30469 4.4336-.10938v81.13281H144.0039"/></g><path fill="#50fcfc" fill-rule="evenodd" d="M145.21094 356.05469L144.0039 357.25v-3.65625l1.20703 2.46094m-.89453 44.38281L144.0703 396l.25-4.4375 4.11719-4.16797 4.4375-.1289 1.08203-.14063 3.35938-2.98828 4.4375-.02735v2.85547l-3.5547.16016-.14843 4.4375-.73437.6289-.09375-.6289-4.34766-3.85156-4.4375.16797-3.63672 3.68359-.6289 4.4375.61718 4.4375 3.64844 3.79297 4.4375.125 1.59375.51953-1.59375 3.59375-.5664.84766.5664 1.11328 4.4414 3.30469 4.4375-.67579 4.4375-.51171 4.21485-3.23047.22266-.71875v7.4414l-4.4375 1.35547-.45313.79688.45313 1.65625 4.4375.42187 3.70312-2.07812-3.70312-2.15235v-7.4414l1.20312-3.72266 2.2539-4.4375.98048-3.3789 4.4414 1.71093v3.85938l-4.4414.40625-1.04297 1.83984-.44531 4.4414-1.9961 4.4375 3.48438 1.22657 2.3125-1.22656 2.1289-1.85938 1.01563-2.57812.9961-4.44141-2.01173-2.2461v-3.85937l.95703 1.66797 3.48047 3.6914.8164.7461-.8164 2.17969-.90234 2.26172-1.97656 4.4375 2.8789 3.46484 4.4375.10156 4.4375-.0586 4.4414.3672.78907.5625 3.64844 3.60156 1.29687.83594 3.14063 2.93359 4.4375.625 4.4414-.79297 4.4375-1.24219 1.41797-1.52343.57813-4.4375.66016-4.4375-1.8125-4.4375-.84375-.82422-4.4375-3.00781-3.9336-.60938-.50781-.79688-.33594.79688-4.10156 2.55078-4.4375-.75781-4.4375-1.26172-.9336-.53125-.98437-4.4375-2.52344-2.88672L189.88671 396l-1.5039-1.1875-1.9375-3.25-2.5-2.48828-2.76953 2.48828-1.66797 2.7539-4.4414 1.36329-4.07422.32031-.36328.03516-.01953-.03516-4.37891-4.4375-.03906-.05469-4.1875-4.38281-.25-.16016v-2.85546l4.4375 2.40625.60937.60937 3.02344 4.4375.80469.8164 4.4375.19532 4.4414-.41016.36719-.60156 4.07031-3.66016 3.67969 3.66016.75781 1.27344L192.39453 396l.42578.22656 3.6836 4.21094.69922 4.4375.05859.03516 4.4375.2539 2.60937-.28906-.48047-4.4375 2.3086-2.40625 4.4375-.08203 2.39453 2.48828 2.04688 2.5039 2.39843 1.9336 2.03906.9961 3.53907 3.4453.60937 4.4375-.24219 4.4375.53125 4.34766.05079.08985 4.38672 3.42968 1.83593 1.01172-1.83594 2.41016-2.21484 2.02734-2.22266.71094-.89843-.71094-3.53906-3.67969-1.39454-.7578-3.04297-.3086-4.4414-.04297-4.4375.0039-4.38281-4.09374-.0547-.03516-4.4375-4.23828-.37108-.16406-4.07032-.20313-2.47265.20313-1.96485 1.11718-4.4375 1.04297-4.4375.40625-4.4414.14453-4.26563 1.72657-.17187.14062-4.4375 2.1875-2.42578-2.32812-.83204-4.4375-1.17968-2.21094-4.4375.69531-4.44141-1.1875-2.15234-1.73437-1.07422-4.4375 2.22656-4.44141-3.4375-.15625-4.1211-4.28125"/><path fill="#00e8fc" fill-rule="evenodd" d="M144.78906 400.4375L144.17187 396l.62891-4.4375 3.63672-3.6836 4.4375-.16796v.74219l-4.4375.23437-2.83984 2.875L144.34375 396l1.23047 4.4375 2.86328 2.97266 4.4375-.00782 4.03125-2.96484.33984-4.4375-.86328-4.4375-3.50781-3.10938v-.74218l4.34766 3.85156.09375.6289.73437-.6289.14844-4.4375 3.55469-.16016v5.65235L158.15234 396l-.40625 4.4375-.39062 4.4375-.03906.1289-2.17188 4.3125 2.17188 2.00782 4.4375-.26953 4.4375-1.22656.66797-.51172 2.30859-4.44141.7461-4.4375L167.1328 396l-.9414-.94922-4.4375-2.4336v-5.65234l.25.16016 4.1875 4.38281.03906.05469 4.3789 4.4375.01954.03516.36328-.03516 4.07422-.32031 4.4414-1.36328 1.66797-2.75391 2.76953-2.48828v1.94922l-.59765.53906L180.73828 396l3.1211 4.4375.08593.09375.17578-.09375L186.97656 396l-2.49219-4.4375-.53906-.53906v-1.94922l2.5 2.48828 1.9375 3.25 1.5039 1.1875 2.9336 1.55078v2.20703l-1.46094.67969-2.74609 4.4375-.23047.41406-2.17578 4.02735-1.41016 4.4375 3.58594 1.6914 4.4375.60938 4.4414.60547 2.14454 1.53125 2.29297 2.26562 3.36719 2.17188 1.0703 1 4.4375 1.67187 4.44142-2.1836 1.01562-.48827 3.04688-4.4375.375-3.75782.16406-.67968-.16406-.33985-1.89063-4.09765-2.54688-2.00391-4.4414.70313-1.74219 1.30078-2.69531 1.03906-4.08203-1.03906-.35547-.13672-4.4375-2.94531-2.39063-1.35938-1.45703-4.4375-.59375-.67969v-2.20703l2.52344 2.88672.98438 4.4375.93359.53125 4.4375 1.26172 4.4375.75781 4.10156-2.55078.33594-.79688.50781.79688 3.9336.60938 4.4375 3.0078.84375.82423 1.8125 4.4375-.66016 4.4375-.57813 4.4375-1.41797 1.52343-4.4375 1.2422-4.4414.79296-4.4375-.625-3.14063-2.9336-1.29687-.83593-3.64844-3.60156-.78906-.5625-4.4414-.3672-4.4375.0586-4.4375-.10156-2.87891-3.46484 1.97656-4.4375.90234-2.26172.8164-2.17969-.8164-.7461-3.48047-3.6914-.95703-1.66797-4.4414-1.71094-.98047 3.37891-2.2539 4.4375-1.20313 3.72266-.22266.71875-4.21484 3.23046-4.4375.51172-4.4375.67579-4.44141-3.3047-.5664-1.11327.5664-.84766 1.59375-3.59375-1.59375-.51953-4.4375-.125-3.64844-3.79297"/><path fill="#00d4fc" fill-rule="evenodd" d="M145.57422 400.4375L144.34375 396l1.2539-4.4375 2.83985-2.875 4.4375-.23438v.7422l-4.4375.30077-2.03906 2.06641L144.51172 396l1.85156 4.4375 2.07422 2.15625 4.4375-.14844 2.73438-2.00781L157.03125 396l-1.48438-4.4375-2.67187-2.36719v-.74219l3.50781 3.10938.86328 4.4375-.33984 4.4375-4.03125 2.96484-4.4375.00782-2.86328-2.97266"/><path fill="#00c4fc" fill-rule="evenodd" d="M146.36328 400.4375L144.51172 396l1.88672-4.4375 2.03906-2.0664 4.4375-.30079v.74219l-4.4375.36719-1.23828 1.25781L144.68359 396l2.46875 4.4375 1.28516 1.33594 4.4375-.28125 1.4336-1.05469L156.8203 396l-2.10937-4.4375-1.83594-1.625v-.74219l2.67188 2.36719L157.03125 396l-1.42188 4.4375-2.73437 2.00781-4.4375.14844-2.07422-2.15625"/><path fill="#00b8fc" fill-rule="evenodd" d="M147.15234 400.4375L144.6836 396l2.51563-4.4375 1.23828-1.25781 4.4375-.36719v.74219l-4.4375.4336-.4414.44921L144.85546 396l3.08203 4.4375.5.51953 4.4375-.42187.13281-.09766L156.60547 396l-2.73438-4.4375-.99609-.88281v-.74219l1.83594 1.625L156.8203 396l-2.51172 4.4375-1.43359 1.05469-4.4375.28125-1.28516-1.33594"/><path fill="#00a8fc" fill-rule="evenodd" d="M147.9375 400.4375L144.85547 396l3.14062-4.4375.44141-.44922 4.4375-.4336v.7422l-1.3086.14062-3.1289.09766L145.02734 396l3.41016 4.35938 4.4375-.14844L156.39453 396l-3.35937-4.4375-.16016-.14063v-.74218l.9961.88281L156.60546 396l-3.59766 4.4375-.13281.09766-4.4375.42187-.5-.51953"/><path fill="#009800" fill-rule="evenodd" d="M148.4375 400.35938L145.02734 396l3.41016-4.33984 3.1289-.09766 1.3086-.14063v.35938l-4.4375.09375-3.23828 4.125 3.23828 4.14063 4.4375-.1875L156.17969 396l-3.30469-4.21875v-.35938l.16016.14063L156.39453 396l-3.51953 4.21094-4.4375.14844"/><path fill="#00ac00" fill-rule="evenodd" d="M148.4375 400.14063L145.19922 396l3.23828-4.125 4.4375-.09375v.27344l-4.4375.03906L145.3711 396l3.0664 3.92188 4.4375-.22266L155.96875 396l-3.09375-3.94531v-.27344L156.17969 396l-3.30469 3.95313-4.4375.1875"/><path fill="#00c800" fill-rule="evenodd" d="M148.4375 399.92188L145.3711 396l3.0664-3.90625v.4375L145.71094 396l2.72656 3.48438 4.4375-.29297L155.54297 396l-2.66797-3.40234-4.4375-.06641v-.4375l4.4375-.03906L155.96875 396l-3.09375 3.69922-4.4375.22265"/><path fill="#10cc00" fill-rule="evenodd" d="M148.4375 399.48438L145.71094 396l2.72656-3.46875v.4336L146.05469 396l2.38281 3.04688 4.4375-.36329L155.11719 396l-2.24219-2.85938-4.4375-.17578v-.43359l4.4375.0664L155.54297 396l-2.66797 3.1914-4.4375.29298"/><path fill="#24d000" fill-rule="evenodd" d="M148.4375 399.04688L146.05469 396l2.38281-3.03516v.4375L146.39453 396l2.04297 2.60938 4.4375-.4375L154.6914 396l-1.8164-2.3164-4.4375-.28126v-.4375l4.4375.17579L155.11719 396l-2.24219 2.6836-4.4375.36327"/><path fill="#3cd800" fill-rule="evenodd" d="M148.4375 398.60938L146.39453 396l2.04297-2.59766v.4336L146.73828 396l1.69922 2.17188 4.4375-.50782L154.26563 396l-1.39063-1.77344-4.4375-.39062v-.4336l4.4375.28125L154.6914 396l-1.8164 2.17188-4.4375.4375"/><path fill="#54dc00" fill-rule="evenodd" d="M148.4375 398.17188L146.73828 396l1.69922-2.16406v.4375L147.08203 396l1.35547 1.73438 4.4375-.57813.96484-1.15625-.96484-1.23047-4.4375-.4961v-.4375l4.4375.39063L154.26563 396l-1.39063 1.66406-4.4375.50781"/><path fill="#e8e05c" fill-rule="evenodd" d="M148.4375 397.73438L147.08203 396l1.35547-1.72656v.4336L147.42187 396l1.01563 1.29688 4.4375-.65235.53906-.64453-.53906-.6875-4.4375-.60547v-.4336l4.4375.4961.96484 1.23047-.96484 1.15625-4.4375.57813"/><path fill="#e8d450" fill-rule="evenodd" d="M148.4375 397.29688L147.42187 396l1.01563-1.29297v.8711l-.32813.42187.32813.42188L150.96484 396l-2.52734-.42188v-.87109l4.4375.60547.53906.6875-.53906.64453-4.4375.65235"/><path fill="#e8b830" fill-rule="evenodd" d="M148.4375 396.42188L148.10937 396l.32813-.42188 2.52734.42188-2.52734.42188"/><path fill="#00d4fc" fill-rule="evenodd" d="M157.3164 411.32422l-2.17187-2.00781 2.17188-4.3125.03906-.12891.39062-4.4375.40625-4.4375 3.60157-3.38281v2.39062L160.6992 396l-1.57421 4.4375-.09766 4.4375 2.72657 4.10547 4.4375-2.73438.79297-1.37109.60937-4.4375-1.40234-2.00781L163.36328 396l-1.60937-.99219v-2.39062l4.4375 2.4336.9414.94921 2.78125 4.4375-.7461 4.4375-2.30858 4.4414-.66797.51173-4.4375 1.22656-4.4375.26953"/><path fill="#00c4fc" fill-rule="evenodd" d="M161.7539 408.98047l-2.72656-4.10547.09766-4.4375L160.69922 396l1.05469-.99219v2.73438l-1.25 2.69531.1953 4.4375 1.0547 1.58984 2.21093-1.58984.875-4.4375-3.08593-2.69531v-2.73438l1.60937.99219 2.82813 2.42969 1.40234 2.00781-.60938 4.4375-.79296 1.3711-4.4375 2.73437"/><path fill="#00b8fc" fill-rule="evenodd" d="M160.69922 404.875l-.19531-4.4375 1.25-2.69531 3.08593 2.69531-.875 4.4375-2.21093 1.58984-1.0547-1.58984"/><path fill="#00e8fc" fill-rule="evenodd" d="M166.1914 419.84766l-.45312-1.65625.45313-.79688 4.4375-1.35547 3.70312 2.15235-3.70312 2.07812-4.4375-.42187"/><path fill="#fff" fill-opacity="0" fill-rule="evenodd" d="M173.57813 409.3164l-1.9961 4.4375 3.48438 1.22657 2.3125-1.22656 2.1289-1.85938 1.01563-2.57812.9961-4.44141-2.01173-2.2461-4.4414.40626-1.04297 1.83984-.44531 4.4414"/><path fill="#50fcfc" fill-rule="evenodd" d="M175.0664 354.1211l-2.91406-2.50391.03125-4.4375 2.88282-2.86328v2.36328l-.5.5.5 2.28515.60937-2.28515-.60937-.5v-2.36328l3.5 2.86328-.98047 4.4375-2.51953 2.5039"/><path fill="#00e8fc" fill-rule="evenodd" d="M175.0664 349.46484l-.5-2.28515.5-.5.60938.5-.60937 2.28515"/><path fill="#00d4fc" fill-rule="evenodd" d="M183.85938 400.4375L180.73827 396l2.60938-4.4375.59765-.53906v3.44922L183.0625 396l.88281 1.2461.83594-1.2461-.83594-1.52734v-3.44922l.53906.53906 2.4922 4.4375-2.85548 4.4375-.17578.09375-.08594-.09375"/><path fill="#00c4fc" fill-rule="evenodd" d="M183.94531 397.2461L183.0625 396l.88281-1.52734.83594 1.52734-.83594 1.2461"/><path fill="#00d4fc" fill-rule="evenodd" d="M188.38281 415.44531l-3.58594-1.6914 1.41016-4.4375 2.17578-4.02735.23047-.41406 2.7461-4.4375 1.46093-.67969v3.47656l-1.21484 1.64063-2.69531 4.4414-.09375 4.4375 4.0039 1.08985 4.4414.85156 3.4961 2.4961.9414.92968 4.4375 2.53125.85938.97657 3.57813 1.78515 3.1914-1.78515 1.25-.90625 3.0586-3.53125.9336-4.4375-3.77345-4.4375-.21875-.17188-.60156.17188-3.83984.5078-4.4375 2.22657-4.4375-.39453-1.14453-2.33984-3.29297-2.25782-3.84766-2.18359-.59375-1.64063v-3.47656l.59375.67969 1.45703 4.4375 2.39063 1.35938 4.4375 2.9453.35547.13673 4.08203 1.03906 2.69531-1.03906 1.74219-1.30079 4.4414-.70312 2.54688 2.0039 1.89063 4.09766.16406.33985-.16406.67968-.375 3.75782-3.04688 4.4375-1.01563.48828-4.4414 2.1836-4.4375-1.67188-1.07031-1-3.3672-2.17188-2.29296-2.26562-2.14453-1.53125-4.4414-.60547-4.4375-.60938"/><path fill="#50fcfc" fill-rule="evenodd" d="M188.38281 379.47266l-1.22656-1.22657 1.22656-1.22656 3.16016-3.21094 1.27734-1.7539 4.4414-.67188v3.125l-2.54687 3.73828 2.54688 3.25391 3.7461 1.1836-3.7461.89062-2.3711 3.55078 2.3711 2.28125 4.4375 1.8711 4.4375-1.98438 1.54687-2.16797-1.54687-1.57031-4.22656-2.8711.27343-4.4375-.48437-.48828-4.4375-3.25v-3.125l2.41797 2.42578 2.01953 1.54688 2.85547 2.89062-.05078 4.4375 1.6328 1.10938 3.28517 3.33203-2.875 4.4375-.41016.44922-4.4375 2.19531-2.38672-2.64453-2.05078-.85547-3.71875-3.58203 1.375-4.4414-2.09766-3.69923-4.4375.48829"/><path fill="#00c4fc" fill-rule="evenodd" d="M192.82031 414.84375l-4.0039-1.08984.09375-4.4375 2.6953-4.44141 1.21485-1.64063v3.4922l-1.77344 2.58984 1.77344 3.96875.39453.46875 4.04688.97656 3.85547-.97656-1.76953-4.4375-2.08594-1.4297-4.4414-1.16015v-3.49219l.59374 1.64063 3.84766 2.1836 3.29297 2.2578 1.14453 2.33985 4.4375.39453 4.4375-2.22656 3.83984-.50781.60156-.17188v.65625l-4.4414.86328-4.4375 3.08594-.08594.0039-3.02344 4.4375 3.10938 1.44141 2.64062 2.9961 1.79688.89843 1.60547-.89843 2.83594-2.06641 2.05468-2.3711 1.46094-4.4375-3.51563-3.95312v-.65625l.21875.17188 3.77344 4.4375-.9336 4.4375-3.05858 3.53125-1.25.90625-3.19141 1.78515-3.57813-1.78515-.85937-.97657-4.4375-2.53125-.9414-.92968-3.4961-2.4961-4.4414-.85156"/><path fill="#00b8fc" fill-rule="evenodd" d="M192.82031 413.28516l-1.77344-3.96875 1.77344-2.58985 4.4414 1.16016v.82812l-3.59374.60157 3.55469 4.4375.03906.0078.03516-.0078.83984-4.4375-.875-.60157v-.82812l2.08594 1.42969 1.76953 4.4375-3.85547.97656-4.04688-.97656-.39453-.46875"/><path fill="#00a8fc" fill-rule="evenodd" d="M197.22266 413.7539l-3.5547-4.4375 3.59376-.60156.875.60157-.83984 4.4375-.03516.0078-.03906-.0078"/><path fill="#00e8fc" fill-rule="evenodd" d="M197.26172 381.5l-2.54688-3.2539 2.54688-3.73829 4.4375 3.25v7.02344l-4.4375 2.15625-.125.1875.125.11719 4.4375 2.02344 3.08594-2.14063-3.08594-2.34375v-7.02344l.48437.48828-.27343 4.4375 4.22656 2.8711 1.54687 1.57031-1.54687 2.16797-4.4375 1.98437-4.4375-1.87109-2.3711-2.28125 2.3711-3.55078 3.7461-.89063-3.7461-1.18359"/><path fill="#00d4fc" fill-rule="evenodd" d="M197.26172 387.24219l-.125-.11719.125-.1875 4.4375-2.15625v2.20313l-.27734.14062.27734.125.1836-.125-.1836-.14063v-2.20312l3.08594 2.34375-3.08594 2.14063-4.4375-2.02344"/><path fill="#00c4fc" fill-rule="evenodd" d="M201.69922 387.25l-.27734-.125.27734-.14063.1836.14063-.1836.125"/><path fill="#00b8fc" fill-rule="evenodd" d="M206.13672 419.63281l-3.10938-1.4414 3.02344-4.4375.08594-.00391 4.4375-3.08594 4.4414-.86328v.53516l-4.4414 1.16797-3.23047 2.25-.625 4.4375 3.83984 4.4375.01563.01171.01562-.01171 4.42578-3.22266 1.05079-1.21484 1.98828-4.4375-3.03906-3.41797v-.53516l3.51562 3.95313-1.46094 4.4375-2.05469 2.37109-2.83593 2.0664-1.60547.89844-1.79688-.89843-2.64062-2.9961"/><path fill="#00a8fc" fill-rule="evenodd" d="M210.5586 422.6289l-3.83985-4.4375.625-4.4375 3.23047-2.25 4.4414-1.16796v.53515l-4.4414 1.47657-2.02344 1.40625.19922 4.4375 1.82422 2.11328 4.4414-2.05469.04688-.0586 2.51563-4.4375-2.5625-2.8828v-.53516l3.03906 3.41797-1.98828 4.4375-1.05078 1.21484-4.42579 3.22266-.01562.01171-.01563-.01171"/><path fill="#009800" fill-rule="evenodd" d="M208.75 418.1914l-.19922-4.4375 2.02344-1.40624 4.4414-1.47657v.53516l-4.4414 1.78125-.8125.5664.8125 3.86329 4.4414-.21485 2.08594-3.64843-2.08594-2.34766v-.53516l2.5625 2.88282-2.51562 4.4375-.04688.05859-4.4414 2.05469-1.82422-2.11328"/><path fill="#00ac00" fill-rule="evenodd" d="M210.57422 417.61719l-.8125-3.86328.8125-.56641 4.4414-1.78125v.53516l-4.05078 1.8125 4.05078 2.8164 1.60938-2.8164-1.60938-1.8125v-.53516l2.08594 2.34766-2.08594 3.64843-4.4414.21485"/><path fill="#00c800" fill-rule="evenodd" d="M215.01563 416.57031l-4.05079-2.8164 4.05078-1.8125v1.0703l-1.65625.7422 1.65625 1.15234.65625-1.15234-.65625-.7422v-1.0703l1.60938 1.8125-1.60938 2.8164"/><path fill="#10cc00" fill-rule="evenodd" d="M215.01563 414.90625l-1.65625-1.15234 1.65625-.7422.65625.7422-.65625 1.15234"/><path fill="#50fcfc" fill-rule="evenodd" d="M232.76563 405.16406l-.32032-.28906.32031-.30469.31641.30469-.3164.28906m48.82421 17.48828l-.02343-.02343.02343-.02344 4.4375-2.66797 3.96485 2.6914-3.96485 2.73438-4.4375-2.71094m17.75391-16.14453l-.36328-1.63281.36328-.32422 4.4375-3.64844.28906-.46484.44922-4.4375 3.69922-3.375v1.9336L306.64062 396l1.09766 4.4375.48047.69531V407.5l-4.2461 1.8164 4.2461.16407.71094-.16406-.71094-1.81641v-6.36719l.34766-.69531L309.80859 396l-1.58984-1.4414v-1.9336l3.72656 3.375-.73828 4.4375-.15625 4.4375 1.60547.59766.47266-.59766 3.96875-3.07813v2.21485l-1.1172.86328-3.32421 4.20313-.23047.23828-4.20703.98046-3.64063 3.45704 3.64063 3.25 4.4375-2.39063.86328-.85937-.66015-4.4375 4.23828-3.46875.84375-.97266-.84375-.86328v-2.21485l3.0078 3.07813-3.0078 3.45313-1.20704.98828-.21875 4.4375-3.01562 3.0078-4.4375 1.00782-4.4375-3.57031-.6211-.44531.21094-4.4375-4.02734-2.8086m4.4375 32.58985l-3.35156-3.15235 3.35156-2.10547 2.85938-2.33203 1.57812-1.58203 2.03516 1.58203-2.03516 3.57813-.5664.85937-3.8711 3.15235"/><path fill="#fff" fill-opacity="0" fill-rule="evenodd" d="M308.21875 407.5l-4.2461 1.8164 4.2461.16407.71094-.16406-.71094-1.81641"/><path fill="#00e8fc" fill-rule="evenodd" d="M308.21875 417.0039l-3.64063-3.25 3.64063-3.45702v1.36328l-2.20703 2.09375 2.20703 1.96875 2.97266-1.96875-2.97266-2.09375v-1.36329l4.20703-.98046.23047-.23829 3.32422-4.20312 1.11719-.86328.84375.86328-.84375.97266-4.23829 3.46875.66016 4.4375-.86328.85937-4.4375 2.39063"/><path fill="#00d4fc" fill-rule="evenodd" d="M308.21875 415.72266l-2.20703-1.96875 2.20703-2.09375v1.35937l-.77344.73438.77344.6875 1.04297-.6875-1.04297-.73438v-1.35937l2.97266 2.09375-2.97266 1.96875"/><path fill="#00e8fc" fill-rule="evenodd" d="M307.73828 400.4375L306.64063 396l1.57812-1.4414L309.80859 396l-1.24218 4.4375-.34766.69531-.48047-.69531"/><path fill="#00c4fc" fill-rule="evenodd" d="M308.21875 414.4414l-.77344-.6875.77344-.73437 1.04297.73438-1.04297.6875"/><path fill="#50fcfc" fill-rule="evenodd" d="M325.97266 399.85156L322.62109 396l3.35157-3.46484v2.02343L324.57812 396l1.39454 1.60156L328.79296 396l-2.8203-1.4414v-2.02344l4.4375 1.36328 4.4375-1.0586v2.375L332.86719 396l1.6836 4.4375.29687.78906 1.8789 3.64844 2.5625 2.58203 2.26953 1.85938 2.16797 1.0625 4.4375 1.08203 4.4375.5625 3.70703-2.70703.73438-1.67188 1.64453-2.76953-1.64453-1.58594-4.4414-2.28125-.9336-.57031-3.5039-3.9414L344.3789 396l-.65235-.09375-.10547.09375-4.33203 2.67578L335.7461 396l-.89843-.78516v-2.375L338.46875 396l.82031.61719 1-.61719 3.4375-3.1211 4.4375.63282L352.5586 396l.04297.0586 2.42969 4.3789 2.01172.96484 3.59765 3.47266-1.64843 4.4414-1.94922 1.98438-4.4414 1.77344-4.4375-.23438-4.4375-.35937-4.21485 1.27344-.22266 3.22656-.07031 1.21094.07031 4.0703v3.97267l-.58594.83593.58594.55469 3.51953 3.88281.91797 1.89063.89844-1.89063-.89844-1.6914-3.32031-2.7461-1.11719-.83594v-3.97265l.02735.36719 4.41015 1.51953 2.46485 2.92187.55859 4.4375 1.41406 4.32422 4.4375-4.17969v1.67579l-2.72265 2.61718-1.71485 1.55078-2.42578 2.88672.29688 4.4375 2.1289 1.44531 4.4375.46875 3.39453-1.91406-3.39453-2.48437-1.3125-1.95313 1.3125-1.46094 4.4414-.91015 4.4375-1.14453 3.96095-.92188-3.96094-.89062-4.4375-1.1289-4.4414-.59767v-1.67578l4.4414.8125 4.4375.42579 4.4375.1328v5.63282l-4.4375.45703-4.4375.39453-3.1836.875 3.1836 2.02735 4.4375.83203 4.4375-1.59766.3125-1.26172-.3125-1.72656v-5.63281l4.4375.21875 4.4375-.33985v2.17188l-4.4375.83984-.82813.03125-2.78125 4.4375-.82812 3.34766-1.92188 1.08984 1.92188 1.8125 1.64453 2.6289 2.79297 2.5586 1.94531-2.5586 2.49219-1.92968 2.51562-2.51172-2.51562-4.20703-.07031-.23047.0703-1.01172 1.16407-3.42578-1.16406-.8711v-2.17187l4.0664 3.04297-.62109 4.4375.23438 4.4375-3.6797 3.67188-.98827.76953.98828 1.92578 4.4414-.46094 4.26954-1.46484.16796-.07813v3.66797l-1.48046.84766 1.48046.54297.60547-.54297-.60546-.84766v-3.66797l.07812.07813 3.13672 4.4375-3.21485 2.88672-4.4375.07812-4.4414-.38672-4.4375-1.79687-2.4375 3.65625-2 1.50781-1.59375-1.50781 1.59375-1.9961 3.65625-2.4414-3.65625-2.19531-1.5-2.2422-2.9375-2.65233-4.4375.91406-4.4414 1.16406-4.4375-.30078-4.4375-2.1211-1.41798-1.4453 1.41797-1.4922.6875-2.9453-.6875-2.42188-1.89453-2.01563-1.20312-4.4375-1.33985-1.48047-3.11328-2.95703 3.09766-4.4414-4.42578-1.32422-4.4375.57812-4.00782-3.6914 3.58204-4.4375.42578-.4375 4.4375-3.46094v2.44531l-1.72657 1.45313-2.71093 4.12109-.26563.3164.26563.2461.98437-.2461 3.45313-1.3203 1.6875-3.1172-1.6875-1.45312v-2.44531l1.41796-.53906-1.41796-1.4375-1.82422-3.00391-1.03516-4.4375-1.57812-2.26172-4.4375 1.67578"/><path fill="#00e8fc" fill-rule="evenodd" d="M325.97266 397.60156L324.57812 396l1.39454-1.4414 2.8203 1.4414-2.8203 1.60156m4.4375 20.83594l-.26563-.2461.26563-.3164 2.71093-4.1211 1.72657-1.45312 1.6875 1.45313-1.6875 3.11718-3.45313 1.32032-.98437.24609m4.14062-18L332.86718 396l1.98048-.78516.89843.78516 3.54297 2.67578L343.6211 396l.10547-.09375.65235.09375 3.78515.4961v4.5664l-4.4375 3.67969-.08984.13281.08984.07422 4.4375 4.04687.47656.32032 3.96094.95703 1.3125-.95703 1.0586-4.44141-2.3711-1.39844-4.4375-2.41406v-4.5664l3.5039 3.9414.9336.57031 4.4414 2.28125 1.64454 1.58594-1.64453 2.76953-.73438 1.67188-3.70703 2.70703-4.4375-.5625-4.4375-1.08203-2.16797-1.0625-2.26953-1.85938-2.5625-2.58203-1.8789-3.64844-.29688-.78906"/><path fill="#50fcfc" fill-rule="evenodd" d="M339.28906 387.53516l-.67578-.41016.67578-.21094.20703.21094-.20703.41016"/><path fill="#00e8fc" fill-rule="evenodd" d="M339.28906 427.625l-.58594-.55469.58594-.83594 1.11719.83594 3.32031 2.7461.89844 1.6914-.89844 1.89063-.91797-1.89063-3.51953-3.88281"/><path fill="#00d4fc" fill-rule="evenodd" d="M343.72656 404.94922l-.08984-.07422.08984-.13281 4.4375-3.67969 4.4375 2.41406 2.3711 1.39844-1.0586 4.4414-1.3125.95704-3.96094-.95703-.47656-.32032-4.4375-4.04687"/><path fill="#00e8fc" fill-rule="evenodd" d="M346.03516 444.82031l-.29688-4.4375 2.42578-2.88672v2.62891l-.21875.25781.21875.63281.28125-.6328-.28125-.25782v-2.6289l1.71485-1.55079 2.72265-2.61719 4.4414.59766 4.4375 1.1289 3.96095.89063-3.96094.92188-4.4375 1.14453-4.4414.91015-1.3125 1.46094 1.3125 1.95313 3.39452 2.48437-3.39453 1.91406-4.4375-.46875-2.1289-1.4453"/><path fill="#00d4fc" fill-rule="evenodd" d="M348.16406 441.01563l-.21875-.63282.21875-.25781.28125.25781-.28125.63281"/><path fill="#fff" fill-opacity="0" fill-rule="evenodd" d="M357.04297 439.50781l-3.1836.875 3.1836 2.02735 4.4375.83203 4.4375-1.59766.3125-1.26172-.3125-1.72656-4.4375.45703-4.4375.39453"/><path fill="#50fcfc" fill-rule="evenodd" d="M357.04297 391.64453l-.0664-.08203.0664-.07813.92578-4.35937 3.51172-3.3711v1.60548l-1.83985 1.76562 1.83985 2.03516 2.66797-2.03516-2.66797-1.76563v-1.60546l4.4375 2.08593 1.32812 1.28516-1.32812 1.35547-4.4375 2.53125-4.30078.55078-.13672.08203"/><path fill="#00e8fc" fill-rule="evenodd" d="M361.48047 389.16016l-1.83985-2.03516 1.83985-1.76563 2.66797 1.76563-2.66797 2.03516"/><path fill="#50fcfc" fill-rule="evenodd" d="M361.48047 427.53906l-.46485-.46875.46485-.5625 4.4375.21875.42969.34375-.4297.42578-4.4375.04297"/><path fill="#00e8fc" fill-rule="evenodd" d="M365.91797 446.63281l-1.92188-1.8125 1.92188-1.08984.82812-3.34766 2.78125-4.4375.82813-.03125v1.08203l-2.7539 3.38672-.00782 4.4375 2.76172 3.70703 4.4375-3.13671.57031-.57032-.57031-.95312-1.10938-3.48438-3.32812-3.38672v-1.08203l4.4375-.83984 1.16406.8711-1.16406 3.42577-.07031 1.01172.0703.23047 2.51563 4.20703-2.51562 2.51172-2.49219 1.92969-1.94531 2.5586-2.79297-2.5586-1.64453-2.6289"/><path fill="#00d4fc" fill-rule="evenodd" d="M370.35547 448.52734l-2.76172-3.70703.00781-4.4375 2.7539-3.38672v1.0547l-1.89452 2.33202 1.58203 4.4375.3125.42188.67969-.42188 1.60937-4.4375-2.28906-2.33203v-1.05469l3.32812 3.38672 1.10938 3.48438.57031.95312-.57031.57031-4.4375 3.13672"/><path fill="#00c4fc" fill-rule="evenodd" d="M370.04297 444.82031l-1.58203-4.4375 1.89453-2.33203v1.0586l-1.03516 1.27343 1.03516 2.57813 1.2539-2.57813-1.2539-1.27344v-1.05859l2.28906 2.33203-1.60937 4.4375-.6797.42188-.3125-.42188"/><path fill="#00b8fc" fill-rule="evenodd" d="M370.35547 442.96094l-1.03516-2.57813 1.03516-1.27344v1.0547l-.17578.21874.17578.44531.21484-.4453-.21484-.21876v-1.05469l1.2539 1.27344-1.2539 2.57813"/><path fill="#00a8fc" fill-rule="evenodd" d="M370.35547 440.82813l-.17578-.44532.17578-.21875.21484.21875-.21484.44531"/><path fill="#00e8fc" fill-rule="evenodd" d="M383.67188 454.24219l-1.48047-.54297 1.48046-.84766.60547.84766-.60546.54297"/><path fill="#50fcfc" fill-rule="evenodd" d="M423.61719 405.01172l-.14453-.13672.14453-.13672 4.4375-.04687.20703.18359-.20703.1875-4.4375-.05078m1.6875 48.6875l-.82813-4.4375 3.57813-3.55078 4.4375-.57422v1.02344l-4.4375 1.29687-1.82031 1.80469 1.8203 4.08594.13673.35156 4.30078 2.97656 4.4375-1.92187 1.03125-1.0547 1.35547-4.4375-2.38672-2.39062-4.4375-.71093v-1.02344l4.4375.4961 3.61719 3.6289-.53125 4.4375-3.08594 3.16015-4.4375.89063-4.4375-1.48828-2.75-2.5625"/><path fill="#00e8fc" fill-rule="evenodd" d="M428.05469 453.34766l-1.82031-4.08594 1.8203-1.80469 4.4375-1.29687v1.70703l-3.02734 1.39453 1.31641 4.4375 1.71094 1.1836 2.16015-1.1836 2.27735-3.61328.32812-.82422-.32812-.33203-4.4375-1.0625v-1.70703l4.4375.71093 2.38672 2.39063-1.35547 4.4375-1.03125 1.05469-4.4375 1.92187-4.30078-2.97656-.13672-.35156"/><path fill="#00d4fc" fill-rule="evenodd" d="M430.78125 453.69922l-1.3164-4.4375 3.02734-1.39453 4.4375 1.0625.32812.33203-.32812.82422-2.27735 3.61328-2.16015 1.1836-1.71094-1.1836"/><path fill="#50fcfc" fill-rule="evenodd" d="M438.10938 400.4375L437.73046 396l1.8164-4.4375 1.82422-1.8164 1.98829-2.6211 2.44921-3.20313 4.4375-1.14453v2.73829l-2.42968 1.60937 2.42968 2.0039v3.31641l-4.4375 3.35938-3.86328.19531 3.86328.14844 1.01563 4.28906 2.86719 4.4375.55468.89453 2.60547 3.54688 1.83203 1.27734 1.87891-1.27734-.9414-4.44141-.9375-1.83203-.70313-2.60547L453.0703 396l-2.82422-3.55469v-3.3164l1.15625-2.00391-1.15625-1.60938v-2.73828l3.125 4.34766-1.78906 4.4375L454.0547 396l.6289 2.82031 1.58594 1.61719 1.45313 4.4375 1.40234 2.9414 1.4961 1.5-1.4961 2.04688-4.4414 1.86719-4.4375-2.38672-2.20313-1.52734-1.5625-4.44141-.67188-4.35938-4.4375 2.26172-3.26171-2.33984"/><path fill="#00e8fc" fill-rule="evenodd" d="M445.8086 396.14844L441.9453 396l3.86328-.19531 4.4375-3.35938v2.0664L448.3672 396l.16015 4.4375 1.71875 2.35156 1.875-2.35156-.6914-4.4375-1.1836-1.48828v-2.0664L453.07031 396l.91016 4.4375.70312 2.60547.9375 1.83203.94141 4.4414-1.8789 1.27735-1.83204-1.27734-2.60547-3.54688-.55468-.89453-2.8672-4.4375-1.01562-4.28906m4.4375-7.01953l-2.42968-2.00391 2.42968-1.60938 1.15625 1.60938-1.15625 2.0039"/><path fill="#50fcfc" fill-rule="evenodd" d="M450.2461 455.59375l-2.17188-1.89453 1.46094-4.4375.71093-.1836.1797.1836 1.71874 4.4375-1.89844 1.89453"/><path fill="#00d4fc" fill-rule="evenodd" d="M448.52734 400.4375L448.3672 396l1.8789-1.48828v5.77734l-.01562.14844.01562.02344.01954-.02344-.01954-.14844v-5.77734L451.4297 396l.6914 4.4375-1.875 2.35156-1.71875-2.35156"/><path fill="#00c4fc" fill-rule="evenodd" d="M450.2461 400.46094l-.01563-.02344.01562-.14844.01954.14844-.01954.02344"/><path fill="#50fcfc" fill-rule="evenodd" d="M459.125 385.59766l-3.17578-2.91407.13281-4.4375 3.04297-2.6914v2.61719l-.08594.07421-.55078 4.4375.63672.58204.57422-.58204-.5-4.4375-.07422-.07421v-2.6172l2.6914 2.69141.19923 4.4375-2.89063 2.91407"/><path fill="#00e8fc" fill-rule="evenodd" d="M459.125 383.26563l-.63672-.58204.55078-4.4375.08594-.07421.07422.07421.5 4.4375-.57422.58204"/><path fill="#50fcfc" fill-rule="evenodd" d="M463.5625 399.30469L460.30078 396l3.26172-3.32422 4.4336-.85156v2.4375l-4.4336.21484L462.0664 396l1.4961 1.51563 4.4336-.1836v1.86328l-4.4336.10938"/><path fill="#00e8fc" fill-rule="evenodd" d="M463.5625 397.51563L462.0664 396l1.4961-1.52344 4.4336-.21484v3.07031l-4.4336.1836"/><g clip-path="url(#d)"><path fill="#fff" fill-opacity="0" fill-rule="evenodd" d="M467.9961 480.32813H468V399.1953v81.13281h-.0039"/></g><path fill="#50fcfc" fill-rule="evenodd" d="M467.9961 397.33203v1.86328H468v-1.86328h-.0039"/><path fill="#00e8fc" fill-rule="evenodd" d="M467.9961 394.26172v3.07031H468v-3.07031h-.0039"/><path fill="#50fcfc" fill-rule="evenodd" d="M467.9961 391.82422v2.4375H468v-2.4375h-.0039"/><g clip-path="url(#e)"><path fill="#fff" fill-opacity="0" fill-rule="evenodd" d="M467.9961 311.67188H468v80.15234-80.15235h-.0039"/></g><path fill="#fff" fill-opacity="0" fill-rule="evenodd" d="M332.60938 397.77344l4.53125 3.6836 6.28125-7.73048-4.53125-3.6836-6.28125 7.73048"/><path fill-rule="evenodd" d="M340.44922 393.67188l.39453.3203-3.96875 4.88673-.60938-.4961 2.83204-3.48437-1.07813-.875.34766-.42969.47656.30078.23047.11719.23437.07422.2461.01953.26953-.05469.29297-.13672.33203-.24219"/><path fill="#fff" fill-opacity="0" fill-rule="evenodd" d="M382.33594 462.5625l5.4375-2.14063-3.64844-9.26953-5.4336 2.14063 3.64454 9.26953"/><path fill-rule="evenodd" d="M382.61719 453.71484l.47265-.18359 2.3047 5.85547-.73048.28906-1.64453-4.17969-1.29297.51172-.20312-.51953.4961-.26562.21483-.14063.1836-.16797.13672-.20703.08594-.25781.02343-.32813-.04687-.40625"/><path fill="#fff" fill-opacity="0" fill-rule="evenodd" d="M149.86328 392.59375l5.82031-.46484-.79297-9.9297-5.82421.46485.79687 9.92969"/><path fill-rule="evenodd" d="M152.70313 384.21484l.5078-.04296.5 6.27734-.78515.0625-.35547-4.47656-1.38672.10937-.04297-.55078.5547-.10938.24609-.07421.22265-.10938.1914-.15625.15626-.22265.11719-.3047.07422-.40234"/><g clip-path="url(#f)"><path fill="none" stroke="#000" stroke-linecap="round" stroke-linejoin="round" stroke-miterlimit="10" stroke-width=".5" d="M147.0625 482.05078l-6.125-3.4414"/></g><g clip-path="url(#g)"><path fill="none" stroke="#000" stroke-linecap="round" stroke-linejoin="round" stroke-miterlimit="10" stroke-width=".5" d="M160.64844 481.4375l-6.66797-2.21875"/></g><g clip-path="url(#h)"><path fill="none" stroke="#000" stroke-linecap="round" stroke-linejoin="round" stroke-miterlimit="10" stroke-width=".5" d="M174.07031 481.03516l-6.88281-1.41407"/></g><g clip-path="url(#i)"><path fill="none" stroke="#000" stroke-linecap="round" stroke-linejoin="round" stroke-miterlimit="10" stroke-width=".5" d="M174.07031 481.03516l.69531 2.35547"/></g><g clip-path="url(#j)"><path fill="none" stroke="#000" stroke-linecap="round" stroke-linejoin="round" stroke-miterlimit="10" stroke-width=".5" d="M187.41016 480.91016l-6.9297-1.16016"/></g><g clip-path="url(#k)"><path fill="none" stroke="#000" stroke-linecap="round" stroke-linejoin="round" stroke-miterlimit="10" stroke-width=".5" d="M187.41016 480.91016l.77734 2.32422"/></g><g clip-path="url(#l)"><path fill="none" stroke="#000" stroke-linecap="round" stroke-linejoin="round" stroke-miterlimit="10" stroke-width=".5" d="M200.74219 480.80469l-6.96485-.95313"/></g><g clip-path="url(#m)"><path fill="none" stroke="#000" stroke-linecap="round" stroke-linejoin="round" stroke-miterlimit="10" stroke-width=".5" d="M200.74219 480.80469l.84765 2.30469"/></g><g clip-path="url(#n)"><path fill="none" stroke="#000" stroke-linecap="round" stroke-linejoin="round" stroke-miterlimit="10" stroke-width=".5" d="M214.07422 480l-6.9961.66016"/></g><g clip-path="url(#o)"><path fill="none" stroke="#000" stroke-linecap="round" stroke-linejoin="round" stroke-miterlimit="10" stroke-width=".5" d="M214.07422 480l1.34766 2.04688"/></g><g clip-path="url(#p)"><path fill="none" stroke="#000" stroke-linecap="round" stroke-linejoin="round" stroke-miterlimit="10" stroke-width=".5" d="M227.28516 479.42578l-6.78907 1.80469"/></g><g clip-path="url(#q)"><path fill="none" stroke="#000" stroke-linecap="round" stroke-linejoin="round" stroke-miterlimit="10" stroke-width=".5" d="M227.28516 479.42578l1.67187 1.79688"/></g><g clip-path="url(#r)"><path fill="none" stroke="#000" stroke-linecap="round" stroke-linejoin="round" stroke-miterlimit="10" stroke-width=".5" d="M240.47266 479.03906l-6.53516 2.57813"/></g><g clip-path="url(#s)"><path fill="none" stroke="#000" stroke-linecap="round" stroke-linejoin="round" stroke-miterlimit="10" stroke-width=".5" d="M240.47266 479.03906l1.86718 1.59375"/></g><g clip-path="url(#t)"><path fill="none" stroke="#000" stroke-linecap="round" stroke-linejoin="round" stroke-miterlimit="10" stroke-width=".5" d="M253.82422 479.13281l-6.60938 2.39063"/></g><g clip-path="url(#u)"><path fill="none" stroke="#000" stroke-linecap="round" stroke-linejoin="round" stroke-miterlimit="10" stroke-width=".5" d="M253.82422 479.13281l1.82031 1.64453"/></g><g clip-path="url(#v)"><path fill="none" stroke="#000" stroke-linecap="round" stroke-linejoin="round" stroke-miterlimit="10" stroke-width=".5" d="M267.23828 479.44922l-6.80469 1.76172"/></g><g clip-path="url(#w)"><path fill="none" stroke="#000" stroke-linecap="round" stroke-linejoin="round" stroke-miterlimit="10" stroke-width=".5" d="M267.23828 479.44922l1.65625 1.8086"/></g><g clip-path="url(#x)"><path fill="none" stroke="#000" stroke-linecap="round" stroke-linejoin="round" stroke-miterlimit="10" stroke-width=".5" d="M280.51953 479.33203l-6.73828 1.99219"/></g><g clip-path="url(#y)"><path fill="none" stroke="#000" stroke-linecap="round" stroke-linejoin="round" stroke-miterlimit="10" stroke-width=".5" d="M279.53906 479.6211l.85938.875"/></g><g clip-path="url(#z)"><path fill="none" stroke="#000" stroke-linecap="round" stroke-linejoin="round" stroke-miterlimit="10" stroke-width=".5" d="M293.9414 480.85156l-6.94921-1.04687"/></g><g clip-path="url(#A)"><path fill="none" stroke="#000" stroke-linecap="round" stroke-linejoin="round" stroke-miterlimit="10" stroke-width=".5" d="M292.92969 480.69922l.40625 1.15625"/></g><g clip-path="url(#B)"><path fill="none" stroke="#000" stroke-linecap="round" stroke-linejoin="round" stroke-miterlimit="10" stroke-width=".5" d="M307.16406 481.28125l-6.76562-1.90234"/></g><g clip-path="url(#C)"><path fill="none" stroke="#000" stroke-linecap="round" stroke-linejoin="round" stroke-miterlimit="10" stroke-width=".5" d="M306.17969 481.0039l.26172 1.19923"/></g><g clip-path="url(#D)"><path fill="none" stroke="#000" stroke-linecap="round" stroke-linejoin="round" stroke-miterlimit="10" stroke-width=".5" d="M320.4414 481.40234l-6.6914-2.14453"/></g><g clip-path="url(#E)"><path fill="none" stroke="#000" stroke-linecap="round" stroke-linejoin="round" stroke-miterlimit="10" stroke-width=".5" d="M319.46875 481.08984l.21875 1.20703"/></g><g clip-path="url(#F)"><path fill="none" stroke="#000" stroke-linecap="round" stroke-linejoin="round" stroke-miterlimit="10" stroke-width=".5" d="M333.71875 481.51563l-6.61328-2.3711"/></g><g clip-path="url(#G)"><path fill="none" stroke="#000" stroke-linecap="round" stroke-linejoin="round" stroke-miterlimit="10" stroke-width=".5" d="M332.75781 481.16797l.17578 1.21484"/></g><g clip-path="url(#H)"><path fill="none" stroke="#000" stroke-linecap="round" stroke-linejoin="round" stroke-miterlimit="10" stroke-width=".5" d="M346.76953 482.08203l-6.08984-3.5039"/></g><g clip-path="url(#I)"><path fill="none" stroke="#000" stroke-linecap="round" stroke-linejoin="round" stroke-miterlimit="10" stroke-width=".5" d="M360.24219 481.77734l-6.40235-2.89843"/></g><g clip-path="url(#J)"><path fill="none" stroke="#000" stroke-linecap="round" stroke-linejoin="round" stroke-miterlimit="10" stroke-width=".5" d="M371.75 483.55469l-2.78516-6.45313"/></g><g clip-path="url(#K)"><path fill="none" stroke="#000" stroke-linecap="round" stroke-linejoin="round" stroke-miterlimit="10" stroke-width=".5" d="M384.01563 483.82422l-.6875-6.99219"/></g><g clip-path="url(#L)"><path fill="none" stroke="#000" stroke-linecap="round" stroke-linejoin="round" stroke-miterlimit="10" stroke-width=".5" d="M394.02344 482.21484l5.92578-3.77343"/></g><g clip-path="url(#M)"><path fill="none" stroke="#000" stroke-linecap="round" stroke-linejoin="round" stroke-miterlimit="10" stroke-width=".5" d="M394.02344 482.21484l-2.13672-1.20703"/></g><g clip-path="url(#N)"><path fill="none" stroke="#000" stroke-linecap="round" stroke-linejoin="round" stroke-miterlimit="10" stroke-width=".5" d="M407.52344 482.47656l5.5586-4.29687"/></g><g clip-path="url(#O)"><path fill="none" stroke="#000" stroke-linecap="round" stroke-linejoin="round" stroke-miterlimit="10" stroke-width=".5" d="M421.1836 482.86328l4.86718-5.07031"/></g><g clip-path="url(#P)"><path fill="none" stroke="#000" stroke-linecap="round" stroke-linejoin="round" stroke-miterlimit="10" stroke-width=".5" d="M434.4336 482.80078l4.99609-4.9414"/></g><g clip-path="url(#Q)"><path fill="none" stroke="#000" stroke-linecap="round" stroke-linejoin="round" stroke-miterlimit="10" stroke-width=".5" d="M447.80078 482.85156l4.89453-5.04297"/></g><g clip-path="url(#R)"><path fill="none" stroke="#000" stroke-linecap="round" stroke-linejoin="round" stroke-miterlimit="10" stroke-width=".5" d="M460.7461 482.42969l5.6328-4.19922"/></g><g clip-path="url(#S)"><path fill="none" stroke="#000" stroke-linecap="round" stroke-linejoin="round" stroke-miterlimit="10" stroke-width=".5" d="M147.02734 468.80078l-6.05468-3.57422"/></g><path fill="none" stroke="#000" stroke-linecap="round" stroke-linejoin="round" stroke-miterlimit="10" stroke-width=".5" d="M147.02734 468.80078l-.10937 2.44922m13.63281-2.8711l-6.47266-2.73046m6.47266 2.73047l.22266 2.4414m13.25781-2.92187l-6.80078-1.76953m6.80078 1.76953l.5664 2.38672m12.83204-2.8047l-6.96875-.93358m6.96875.93359l.85156 2.29687m12.46484-3.1953l-6.97265.86327m6.97265-.86328l1.41016 2.00781m11.76953-2.6328l-6.70312 2.11327m5.73047-1.80469l.875.85938m12.82421-2.28125l-5.52734 4.33984m5.52734-4.33984l2.2461.99219m11.08203-.98047l-5.55078 4.3164m5.55078-4.3164l2.23828 1.0039m10.80078-1.3164l-4.9961 4.9414m4.9961-4.9414l2.33984.73047m10.70704-.97266l-4.46094 5.42578m3.8125-4.63672l1.20312.2422m13.0547-.76173l-5.04688 4.88672m4.3125-4.17578l1.16406.375m13.33984-.5039l-5.96093 3.72265m5.09375-3.17969l1.0625.61328m13.1953-1.03125l-6.10937 3.47266m5.21875-2.96875l1.03516.65625m13.05469-1.34766l-5.87891 3.84766m5.02344-3.28516l1.07812.58985m12.73047-1.61719l-5.15234 4.77734m17.85937-5.29687l-3.9375 5.8164m3.36328-4.97265l1.22266.13281m7.65234.17969l6.08985 3.5039m6.91015-2.77734l6.72266 2.05078m7.00781.89453l5.88672-3.83984m-5.02734 3.28125l-1.07422-.59375m13.28906.71094l6.3711-2.95703m-5.44532 2.52734l-.97656-.74219m13.25.89453l6.60547-2.40234M407 468.21484l-1.82422-1.64453m16.59766 3.4375l3.6836-5.98828m-3.14454 5.11719l-1.22656-.07813m15.03906 1.375l1.60938-6.83984m-1.60938 6.83984l-2.3711.625m14.35157-1.26172l4.28516-5.5664m-4.28516 5.5664l-2.42188-.40625m14.86329-.57421l6.03125-3.60547m-5.15625 3.08203l-1.04688-.63672"/><g clip-path="url(#T)"><path fill="none" stroke="#000" stroke-linecap="round" stroke-linejoin="round" stroke-miterlimit="10" stroke-width=".5" d="M146.17578 456.45703l-4.35156-5.51953"/></g><path fill="none" stroke="#000" stroke-linecap="round" stroke-linejoin="round" stroke-miterlimit="10" stroke-width=".5" d="M146.17578 456.45703l-.99219 2.2461M160 455.96483l-5.3711-4.53125m4.58985 3.8711l-.25781 1.19922m14.65234-.94922l-5.96484-3.71485m5.09765 3.17578l-.08593 1.22266m14.77734-2.14062l-6.98438-.80078m5.96875.6875l.44532 1.14062m13.24219-3.48047l-5.69922 4.10938m4.87109-3.51172l1.10156.54297m11.86328-2.17578l-3.33984 6.17968m2.85547-5.28125l1.22656.00781m12.08203-1.1289l-2.35937 6.6211m2.01562-5.65626l1.21485-.17969m11.97265-.91406l-1.41797 6.88281m1.21094-5.8828l1.17969-.34376m11.48437-.72656l.29688 7.02344m-.2539-6l1.05859-.6211m13.02343-.33984l-1.32422 6.89844m1.13282-5.89453l1.17187-.36328m10.04688-.3047l3.2539 6.22657m-2.78125-5.32031l.69532-1.01172m11.125.91015l5.29687 4.6172m-4.52344-3.94532l.27735-1.19531m11.40625 2.61328l7.01562.4375m-5.9961-.375l-.5039-1.11719m12.80078 1.03125l7.01172.48438m-5.99219-.41407l-.5-1.12109m12.78907 1.4336l7.02343-.28126m-7.02343.28125l-1.23828-2.11718m14.5703 1.63671l6.9922.67579m-5.97657-.57422l-.46875-1.13672m12.79688.80078l6.9336 1.14844m-5.92579-.98438l-.39062-1.16015m12.6914 2.10156l6.94531-1.0664m-5.93359.91406l-.73437-.98438m13.03125.11328l6.95703.98438m-6.95703-.98438l-.83594-2.3086m14.1289 3.07813l7.00391-.55468m-7.0039.55468l-1.32032-2.07031m15.05469 3.48047l6.16406-3.375m-6.16406 3.375l-2.05078-1.34766m2.94922.85547l-1.02735-.67187m13.48047 1.22656l6.09375-3.5m-6.09375 3.5l-2.07812-1.30469m2.96484.79688l-1.03906-.65235m13.94922 1.8086l5.1289-4.80078m-5.1289 4.80078l-2.32422-.79297m15.45703.58594l5.49219-4.38672M447.5 455.89063l-2.25-.97266m15.01562-.00781l6.59375-2.42578m-6.59375 2.42578l-1.83203-1.63282"/><g clip-path="url(#U)"><path fill="none" stroke="#000" stroke-linecap="round" stroke-linejoin="round" stroke-miterlimit="10" stroke-width=".5" d="M145.16406 443.69922l-2.32812-6.63281"/></g><g clip-path="url(#V)"><path fill="none" stroke="#000" stroke-linecap="round" stroke-linejoin="round" stroke-miterlimit="10" stroke-width=".5" d="M144.82422 442.73438l-.83203.90234"/></g><path fill="none" stroke="#000" stroke-linecap="round" stroke-linejoin="round" stroke-miterlimit="10" stroke-width=".5" d="M159.46094 443.16406l-4.29297-5.5625m3.66797 4.7539l-.5039 1.1172m15.78515-2.65625l-6.97266-.86329m20.1836-.51562l-6.76563 1.89063m5.78125-1.61329l.84766.88672m11.95312-3.1836l-3.76953 5.9297m3.22266-5.06641l1.22265.09375m11.48047-1.42969l-1.44922 6.875m1.23828-5.875l1.1797-.33984m11.11718-.69922l1.00781 6.95313m-.85937-5.94141l.98828-.72656m10.98047.11718l3.40234 6.14844M236 438.20313l.66797-1.02735m11.70703.42578l4.28906 5.5664m-4.28906-5.5664l1.01563-2.23437m12.0625 2.4336l4.76562 5.16405m-4.76563-5.16406l.8086-2.3164m12.79297 2.07812l4.1914 5.64063m-3.58203-4.82032l.52735-1.10547m10.83593 2.38282l6.875 1.4453m-6.875-1.4453l-.68359-2.35547m13.9375 3.3789l7-.59765m-7 .59765l-1.33203-2.0625m14.64453 2.03125l7.0039-.53906m-7.0039.53906l-1.3164-2.0703m14.6328 2.11327l7-.6211m-7 .6211l-1.33593-2.0586m14.6875 2.32423l6.92969-1.15625m-6.9297 1.15625l-1.49218-1.94922m2.5 1.78125l-.7461-.97266m13.05079 1.1289l6.9336-1.1328m-6.9336 1.1328l-1.48828-1.95312m2.4961 1.78907l-.7422-.97657m13.08985 1.34766l6.85547-1.54688m-6.85547 1.54688l-1.60156-1.85938m14.85937 1.54688l6.96875-.92188m-6.96875.92188l-1.42578-1.9961m14.79687 2.3086l6.85547-1.54688m-6.85547 1.54688l-1.60156-1.85938m15.07031 2.36329l6.54688-2.5547m-6.54688 2.5547l-1.85937-1.60157m15.10156 1.39844l6.6914-2.14844m-6.6914 2.14844l-1.75781-1.71094m15.58594 2.71485l5.66796-4.15625m-5.66796 4.15625l-2.21094-1.0625m15.46484.97656l5.78906-3.98437m-5.78906 3.98437l-2.17578-1.13281m15.66406 1.36719l5.44141-4.44922m-5.4414 4.44922l-2.26173-.94922"/><g clip-path="url(#W)"><path fill="none" stroke="#000" stroke-linecap="round" stroke-linejoin="round" stroke-miterlimit="10" stroke-width=".5" d="M143.01563 430.4414l1.96875-6.74609"/></g><path fill="none" stroke="#000" stroke-linecap="round" stroke-linejoin="round" stroke-miterlimit="10" stroke-width=".5" d="M155.94531 430.30469l2.73828-6.47266m8.71094 1.8711l6.47266 2.73046m-5.53125-2.33203l-.10938-1.22265m12.7539.30468l5.9297 3.76953m-5.06641-3.21875l.09375-1.22656m14.26172-.78906l2.1211 6.69922m-1.8125-5.72266l.85937-.8789m13.1289-.26172l.15625 7.02734m-.1328-6.0039l1.0703-.60157m10.19922.27735l4.20313 5.6289m-3.59375-4.8086l.52344-1.10937m11.54687.90235l5.47266 4.40625m-5.47266-4.40625l.46094-2.41016m12.78515 2.4961l5.60938 4.23046m-4.79297-3.61328l.1914-1.21484m12.79688.07031l4.63281 5.28516m-3.95703-4.51563l.4336-1.14844m11.22656 1.8047l6.58984 2.43359m-5.63281-2.07813l-.16406-1.21875m12.45312 1.0625l6.72657 2.03516m-5.7461-1.73828l-.23828-1.20313m12.8125.32031l6.25 3.20703m-5.33984-2.74218l-.01954-1.22657m12.03516 2.30079l7.02735.1289m-6.00391-.10937l-.55469-1.09375m12.94531 1.96875l6.82813-1.66016m-5.83203 1.42188l-.8164-.91797m13.08593.91797l6.92578-1.1836m-6.92578 1.1836l-1.5-1.94141m14.9336 2.41797L360.38671 426m-6.6914 2.13672l-1.75782-1.71485m15.64844 2.8086l5.53906-4.32422m-5.53906 4.32422l-2.24219-1m15.86328 1.34375l4.92969-5.01172m-4.92969 5.01172l-2.35156-.69922m3.07031-.03125l-1.17969-.34766m13.21875.3672l6.04297-3.58985m-6.04297 3.58984l-2.09765-1.27344m15.32031 1.10547l6.22656-3.2539m-6.22656 3.2539l-2.02344-1.38672m2.92969.91407l-1.01172-.69141m13.3711 1.0664l6.32812-3.05859m-6.32813 3.0586l-1.98046-1.45313m2.89843 1.00781l-.98828-.72656m13.99219 2.05469l5.11328-4.82422m-5.11328 4.82422l-2.32422-.78906m15.46094.58593l5.46875-4.41797m-5.46875 4.41797l-2.25781-.96093m15.42578.76171l5.76172-4.01953m-5.76172 4.01953l-2.1836-1.11718"/><g clip-path="url(#X)"><path fill="none" stroke="#000" stroke-linecap="round" stroke-linejoin="round" stroke-miterlimit="10" stroke-width=".5" d="M141.21484 415.89453l5.57032-4.28515"/></g><path fill="none" stroke="#000" stroke-linecap="round" stroke-linejoin="round" stroke-miterlimit="10" stroke-width=".5" d="M154.3086 415.57422l6.01171-3.64063m-6.01172 3.64063l-2.10547-1.25781m15.28516 1.0078l6.28516-3.14062m-6.28516 3.14063l-2-1.42188m15-.78125l6.91406 1.26563m-6.91406-1.26563l-.74219-2.33984m14.0625 3.63281l6.90235-1.32031m-5.89844 1.1289l-.76953-.95702m13.28516-.85157l6.49609 2.67969m-5.55078-2.28906l-.1211-1.22266m12.56641.65625l6.33984 3.03125m-5.41406-2.58984l-.05469-1.22656m14.0625-.85157l3.10938 6.30469m-2.66016-5.38672l.71875-.9961m13.04688-.22265l1.30469 6.90625m13.21093-6.92578l-1.09375 6.9414m.9336-5.92968l1.16015-.39844m14.42578.5586l-5.3125 4.60156m4.53907-3.9336l1.14453.44141m12.89062-1.16797l-5.20703 4.71875m4.44922-4.03125l1.15234.41406m12.76563-1.26171l-4.89844 5.03515m4.1875-4.30078l1.17578.34375m13.86328.84766l-6.92578 1.1875m5.91797-1.01563l.75.96875m13.58203 0l-6.9414-1.09375m13.83984 2.46485l5.89063-3.83594m7.6289 4.11719l5.48047-4.40235m7.22656 3.26953l6.69531-2.13672m-5.71875 1.82813l-.8789-.85547m13.20703 1.125l6.71875-2.05469m-6.71875 2.05469l-1.73438-1.73828m15.04297 1.71875l6.73047-2.01563m-6.73047 2.01563l-1.72656-1.7461m15.01172 1.64063l6.78906-1.80469m-6.78906 1.80469l-1.67188-1.79687m14.89844 1.35937l6.96485-.92969m-5.94922.79297l-.71485-.9961m13.08594 1.50391l6.82422-1.67187m-5.83203 1.42969l-.8164-.91407m13.3125 1.6797l6.47656-2.72266m-5.53516 2.32812L447 413.94141m14 2.21875l5.1211-4.8125"/><g clip-path="url(#Y)"><path fill="none" stroke="#000" stroke-linecap="round" stroke-linejoin="round" stroke-miterlimit="10" stroke-width=".5" d="M140.98047 402.23438l6.03906-3.58985"/></g><path fill="none" stroke="#000" stroke-linecap="round" stroke-linejoin="round" stroke-miterlimit="10" stroke-width=".5" d="M154.66406 402.7461l5.30078-4.61329m-5.30078 4.61328l-2.28906-.8789m3.0625.20703l-1.14844-.4375m13.35938.66406l5.96094-3.72265m-5.96094 3.72265l-2.125-1.23047m15.02734.26953l6.78906-1.80468m-6.78906 1.80468l-1.67187-1.79687m14.89062 1.28906l6.98047-.78906m-5.96484.67578l-.69532-1.01172m13.19141 1.94922l6.58984-2.4375m-5.6328 2.08203l-.91407-.8164m14.09375 2.44921l4.94531-4.98828m-4.22656 4.26172l-1.17578-.35547m16.85937-4.8711l-1.23047 6.91798m1.05078-5.91406l1.16797-.375m15.13282 2.02734l-6.84375 1.60156m5.84765-1.36719l.8086.92188m13.54687-.92969l-6.92969 1.15235m5.92188-.98438l.7461.97266m12.97265-2.60547l-5.71875 4.08203m4.88672-3.48828l1.09765.54687m12.6211-1.63672l-4.86719 5.07032m4.16016-4.33204l1.17968.33594m11.10938-1.98047l-1.39844 6.88672m1.19531-5.88672l1.17579-.34765m9 .47265l5.28515 4.63282m-4.51562-3.95704l.28125-1.1953m12.57812.20312l4.65625 5.26562m-3.97656-4.4961l.42969-1.15233m13.52343-.34766l2.02344 6.73047m-1.73047-5.7539l.875-.86329m14.55469.02734l-2.79297 6.44922m11.57031-1.64844l6.28125-3.15234m-6.28125 3.15235l-2-1.41797m15.16016 1.05078l6.59375-2.42188m-6.59375 2.42188l-1.83203-1.63672m2.78906 1.28515l-.91406-.8164m13.17187.86328l6.79297-1.8125m-6.79297 1.8125l-1.66796-1.79688m14.99218 1.82422l6.77344-1.86328m-6.77344 1.86328l-1.6875-1.78515m15.17969 2.28515l6.41797-2.86328m-6.41797 2.86328l-1.9336-1.51171m16 2.58593l4.91798-5.01562m-4.20313 4.28906l-1.17578-.34766m13.41016-3.51953l5.65234 4.17578m-4.83203-3.5703l.17969-1.21095m11.75 3.625l6.77734-1.86328m-6.77734 1.86328l-1.6836-1.78515"/><g clip-path="url(#Z)"><path fill="none" stroke="#000" stroke-linecap="round" stroke-linejoin="round" stroke-miterlimit="10" stroke-width=".5" d="M144.28125 390.625l-.5625-7.0039"/></g><g clip-path="url(#aa)"><path fill="none" stroke="#000" stroke-linecap="round" stroke-linejoin="round" stroke-miterlimit="10" stroke-width=".5" d="M144.19922 389.60547l-1.03516.66015"/></g><path fill="none" stroke="#000" stroke-linecap="round" stroke-linejoin="round" stroke-miterlimit="10" stroke-width=".5" d="M155.66797 390.22656l3.29297-6.20703m-3.29297 6.20703l-2.45313.0039m15.65235-.0664l3.52734-6.07812m-3.01562 5.1914l-1.22657-.04687m13.33985.41015l4.90625-5.03125m-4.90625 5.03125l-2.35547-.6875m15.27344.22657l5.69922-4.11328m-4.8711 3.51562l-1.09766-.54297m13.3086.6914l6.25-3.21093m13.52344 2.71875l-6.66407-2.23047m5.69532 1.90625l.20312 1.21094m14.07422-3.13672l-6.65234 2.26953m5.68359-1.9414l.89453.83984m13.46094-.92578l-6.79688 1.78515m6.79688-1.78515l1.66406 1.80078m11.5625-2.09375l-6.61719 2.3711m5.65235-2.02735l.91015.82813m11.25782 3.3164l-2.39063-6.60547m15.10938-.16015l-1.19922 6.92578m11.33984-5.85156l5.14844 4.77734m-4.40234-4.08203l.3164-1.1875m11.63281 1.41797l6.38672 2.92578m-5.45703-2.5l-.07422-1.22266m12.14063 2.14453l7.02344.23047m-6-.19531l-.54297-1.10156m13.18359-.34766l6.32422 3.0625m-5.40234-2.61719l-.04688-1.22656m12.125 1.80469l6.95703 1.01172m-6.95703-1.01172l-.82812-2.3086m14.70312.85938l5.83984 3.91015m-5.83984-3.91015l.2461-2.4414m13.42578 1.99609l5.125 4.80468m-4.38282-4.10546l.32422-1.1875M393.5 387.5664l6.97266-.88672m-5.95703.75781l-.70704-1m13.08594 1.54297l6.8125-1.71485m-6.8125 1.71485l-1.64453-1.82031m15.76563-1.39844l5.19921 4.72656m-5.19921-4.72656l.60546-2.3789m11.80079 4.58202l7.01953.31641m-7.01953-.3164l-1.0547-2.21485m15.94923-.5625l3.85937 5.8711m-3.85937-5.8711l1.17968-2.15234m12.04688 2.21093L465.58203 390m-3.45312-4.91406l.55859-1.09375"/><g clip-path="url(#ab)"><path fill="none" stroke="#000" stroke-linecap="round" stroke-linejoin="round" stroke-miterlimit="10" stroke-width=".5" d="M147.10938 375.4414l-6.21875-3.26562"/></g><path fill="none" stroke="#000" stroke-linecap="round" stroke-linejoin="round" stroke-miterlimit="10" stroke-width=".5" d="M146.20703 374.96484l.0039 1.22657m13.05079.54296l-3.89453-5.85156m3.89453 5.85156l-1.16406 2.15625m13.74609-1.78515l-2.42578-6.59375m2.07031 5.63281l-.8164.91797m16.04296-1.08984l-5.53906-4.32813m4.73047 3.69922l-.21094 1.20703m14.84375-1.47656l-6.5586-2.53125m6.5586 2.53125l.29297 2.4336m12.84375-2.04688l-6.19922-3.30469m6.19922 3.30469l-.0039 2.45312m13.59765-5.0664l-6.75781 1.92187m5.77344-1.64453l.85156.88672M240.46484 372.5l-6.51953 2.61719m5.57031-2.23828l.94141.79296m12.89453-1.9453l-5.66406 4.16406m4.83984-3.5586l1.10547.53125m12.63281-1.59375l-4.85937 5.07422m4.15234-4.33594l1.1797.33594m7.09765 2.63281l6.6289-2.33594m7.125-.84765l5.75391 4.03125m-4.91797-3.44531l.14844-1.21875m12.53906.35937l5.33203 4.57813m-5.33203-4.57813l.53906-2.39453m11.98829 4.05469l6.91406 1.25781m-6.91406-1.25781l-.7461-2.33594m14.26953 4.30469l6.4961-2.67969m-6.4961 2.67969l-1.89062-1.5664m15.00781.92577l6.88672-1.39844m-6.88672 1.39844l-1.5586-1.89453m14.83594.73828l6.96485.91406m-6.96485-.91406l-.86328-2.29687m14.16016 2.46875l7.0039.57031m-7.0039-.57031l-.97266-2.2539m14.42969 3.5664l6.71875-2.05469m-6.71875 2.05469l-1.73828-1.73438m15.07422 1.80469l6.67578-2.19531m-6.67578 2.19531l-1.76953-1.69922m14.91015.48828l7.02344.22656m-7.02344-.22656l-1.08203-2.20312m14.51953 3.2461l6.77735-1.85938m-6.77735 1.85937l-1.6836-1.78515m14.90626.3828l6.96484.94532m-5.94922-.8086l-.42578-1.15234m12.69922 1.29688l7.01563.3789m-7.01563-.3789l-1.03515-2.22266m15.07421.26953l5.57032 4.28906m-5.57032-4.28906l.41016-2.41797"/><g clip-path="url(#ac)"><path fill="none" stroke="#000" stroke-linecap="round" stroke-linejoin="round" stroke-miterlimit="10" stroke-width=".5" d="M146.35938 363.09375l-4.71875-5.20313"/></g><path fill="none" stroke="#000" stroke-linecap="round" stroke-linejoin="round" stroke-miterlimit="10" stroke-width=".5" d="M146.35938 363.09375l-.82813 2.3086m14.5586-2.75391l-5.55079-4.3086m5.55078 4.3086l-.41406 2.41406m-.39062-3.04297l-.21094 1.21094m14.875-1.58594l-6.63672-2.30469m6.63672 2.3047l.3789 2.42577m-1.34375-2.75781l.1875 1.21094m13.9922-.61719l-6.4375-2.82422m6.4375 2.82422l.18359 2.44531m13.24609-2.7461l-6.66797-2.22265m6.66797 2.22266L201 364.02344m12.27344-1.28125l-5.39453-4.5m5.39453 4.5l-.5039 2.40234m14.2578-3.0664l-6.27343-3.16797m5.35937 2.70703l.02734 1.22656m14.57813-2.28906l-7.02734-.1211m6.0039.10157l.5586 1.09375m13.27734-2.94532l-6.02344 3.6172m17.15625-5.22267l-1.65625 6.82813m12.38281-6.45313l3.51954 6.08204m8.27343-4.29297l6.56641 2.5039m-6.5664-2.5039l-.3047-2.4375m13.48829 2.85547l6.82812 1.66406m-6.82812-1.66406l-.60547-2.37891m14.24219 1.54297l6.18359 3.33594m-6.1836-3.33594l.01172-2.45313m12.9336 4.72266l6.92187-1.19922m-6.92187 1.19922l-1.5039-1.9375m2.51171 1.76172l-1.5039-1.9375m13.99609 2.78515L347 359.22267m-6.55078 2.54296l-1.85547-1.60546m2.8086 1.23437l-.92579-.80078m13.25781 1.08594l6.61329-2.375m-6.61329 2.375l-1.8164-1.64844m2.77734 1.30469l-.90625-.82422m13.2539 1.14844l6.62891-2.33594m-6.6289 2.33594L365.23437 360m2.77344 1.32031l-.90625-.82812m13.0586.13281l7.02343-.26172m-6 .22266l-.61718-1.0625m12.90625.9414l7.02734.0547m-7.02734-.0547l-1.13672-2.17187m14.51953 1.51953l6.89453 1.35938m-6.89453-1.35938l-.71094-2.34766m14.46484 1.21485l6.01563 3.6289m-6.01563-3.6289l.13282-2.45313m14.28515 1.3125l3.8086 5.90625m-3.8086-5.90625l1.19922-2.14062m10.6289 4.17578l6.78126 1.83594m-5.79297-1.56641l-.27344-1.19531m12.5586 1.09765l6.86718 1.4922m-6.86718-1.4922l-.66797-2.35937"/><g clip-path="url(#ad)"><path fill="none" stroke="#000" stroke-linecap="round" stroke-linejoin="round" stroke-miterlimit="10" stroke-width=".5" d="M147.13281 348.76953l-6.26562-3.1836"/></g><path fill="none" stroke="#000" stroke-linecap="round" stroke-linejoin="round" stroke-miterlimit="10" stroke-width=".5" d="M147.13281 348.76953l.04688 2.45313m-.95703-2.91797l.01953 1.22656m13.95312-.33984l-5.75781-4.02735m5.75781 4.02735l-.30078 2.4375m-.53906-3.02344l-.29688 2.4375m14.83203-2.55078l-6.51953-2.6289m6.51953 2.6289l.25782 2.4375m-1.20703-2.82031l.1289 1.21875m14.02344-.58985l-6.29688-3.11719m6.29688 3.1172l.07031 2.44921m13.33985-2.66016l-6.48828-2.6953m6.48828 2.6953l.23437 2.44141m-1.17578-2.83594l.11328 1.22266m14.39844-1.85938l-7-.6328m7 .6328l.95312 2.26172m12.00782-4.14453l-6.28907 3.13281m5.375-2.67968l.9961.71484m11.85937-2.63672l-3.54297 6.0664m3.54297-6.0664l2.45313.09766m8.48437-.52344l1.21094 6.92188m-1.03516-5.91797l.96875-.75391m10.625.4336l4.3047 5.55077m-4.3047-5.55078l1.00391-2.23828m12.17188 2.35156l4.58203 5.32813m-4.58203-5.32813l.89062-2.28906m11.64844 3.23828l6.13281 3.42579m-6.13281-3.42579l.05078-2.45312m.84375 2.94922l.02344-1.22656m12.21093 1.12109l6.50782 2.64453m-6.50782-2.64453l-.2539-2.4414m13.3125 3.91796l7.01953-.30469m-7.01953.3047l-1.2461-2.1172m2.26563 2.07032l-.6211-1.0547m13.0547 1.94142l6.74218-1.98829m-6.74219 1.98829l-1.71484-1.75391m2.69922 1.46484l-.85938-.875m13.17578 1.10938l6.77344-1.8789m-6.77344 1.8789l-1.6875-1.77735m2.67188 1.50391l-1.6875-1.77734m13.9336 1.65234l6.9414-1.08203m-6.9414 1.08203l-1.47266-1.96094m2.48046 1.80469l-1.47265-1.96094m2.48437 1.80469l-.73437-.98438m12.28515 2.17188l6.4297-2.83203m-6.4297 2.83203l-1.92578-1.51953m2.85938 1.10547l-1.92578-1.51563m2.86328 1.10547l-.96485-.75781M380.66797 349l6.00781-3.64453M380.66797 349l-2.10938-1.2539m2.98438.72265l-1.05469-.625m12.98438-.75781l7.02734.1836m-7.02734-.1836l-1.09375-2.19531m14.41406 2.4453l7.01953-.3164m-7.01953.3164l-1.25-2.11327m14.60547 1.3828l6.9336 1.14454m-6.9336-1.14453l-.78125-2.32422m14.6914.875l5.7461 4.04297m-5.7461-4.04297l.3047-2.4336m.53124 3.02344l.15234-1.21875m13.07813-.14843l4.2461 5.59765m-4.2461-5.59765l1.02734-2.22657m11.31641 3.35547l6.1836 3.33985m-6.1836-3.33985l.01562-2.45312"/><g clip-path="url(#ae)"><path fill="none" stroke="#000" stroke-linecap="round" stroke-linejoin="round" stroke-miterlimit="10" stroke-width=".5" d="M146.9414 335.78516l-5.8828-3.84375"/></g><path fill="none" stroke="#000" stroke-linecap="round" stroke-linejoin="round" stroke-miterlimit="10" stroke-width=".5" d="M146.9414 335.78516l-.21874 2.4414m-.63672-3l-.10938 1.21875m14.125-.4414l-5.57422-4.28125m5.57422 4.28125l-.40234 2.41796m-.40625-3.04296l-.40625 2.42187m14.7461-2.11328l-6.00391-3.64844m6.0039 3.64844l-.14062 2.44922m-.73438-2.98047l-.07031 1.22656m14.22656-.63672l-5.9375-3.76562m5.9375 3.76562l-.1875 2.44532m12.54688-1.44922l-4.02344-5.76172m4.02344 5.76172l-1.11719 2.1875m12.22266-1.5586l.39453-7.01562m-.33594 5.9961l-1.11328.51171m17.5039-4.92578l-5.875 3.85156m5.01954-3.29297l1.07812.59375m10.98438-2.64062l-1.66016 6.82812m1.66016-6.82812l2.375-.60938m8.57422.86329l3.0703 6.3203m-3.0703-6.3203l1.4453-1.98438m11.46095 2.21875l3.89062 5.85156m-3.89063-5.85156l1.16797-2.16016m-.60156 3.01172l.58203-1.07812m11.85938.45312l4.5039 5.39844m-4.5039-5.39844l.92578-2.26953m-.26953 3.05469l.46093-1.13672m11.67188.89844l5.5586 4.30078m-5.5586-4.30078l.41406-2.41797m.39453 3.04687l.20703-1.21093m11.91407 1.20312l6.32422 3.0625m-6.32422-3.0625l-.08985-2.45312m1.01172 2.89843l-.04687-1.22656m12.2461 1.27344l6.71483 2.07812m-6.71484-2.07812l-.45703-2.41406m1.4336 2.71484l-.22657-1.20313m12.48438 2.66797l6.875-1.45312m-6.875 1.45312l-1.57422-1.8828m20.01172-1.9297l-3.3672 6.17188m3.3672-6.17188l2.45312.02735m11.88672.82031l-5.41797 4.47656M359.75 331.625l2.26953.9375m-3.0586-.28516l1.13673.46875m13.0078-1.0703l-5.5 4.375m5.5-4.375l2.25.97655m-3.05077-.33984l2.25.97656m10.03125 3.96485l-1.83203-6.78125m10.75 3.86718l6.96484-.95312m-6.96484.95312l-1.4336-1.98828m15.13672 3.17969l6.1875-3.33594m-6.1875 3.33594l-2.03906-1.36328m2.9414.875l-1.02343-.67969m13.04687-.95312l6.96875.90625m-6.96875-.90625l-.86328-2.29688m14.17578 2.32813l6.97266.84375m-6.97266-.84375l-.88281-2.28907m14.17188 2.69532l7.02734.02734m-7.02735-.02734l-1.14453-2.16797m14.57032 1.29687l6.80078 1.77344m-5.8086-1.51563l-.28515-1.1953"/><g clip-path="url(#af)"><path fill="none" stroke="#000" stroke-linecap="round" stroke-linejoin="round" stroke-miterlimit="10" stroke-width=".5" d="M146.76172 322.71875l-5.52344-4.34375"/></g><path fill="none" stroke="#000" stroke-linecap="round" stroke-linejoin="round" stroke-miterlimit="10" stroke-width=".5" d="M146.76172 322.71875l-.4336 2.41406m-.37109-3.04687l-.21484 1.21094m14.2461-.46875l-5.34767-4.5586m5.34766 4.5586l-.53125 2.39453m-.2461-3.0586l-.26562 1.19922m14.46485-.66797l-5.5625-4.29297m5.5625 4.29297L173 325.11328m-.39844-3.04297l-.20703 1.21094m13.625.10156l-4.14844-5.67187m4.14844 5.67187l-1.07031 2.21094m14.4336-2.2461l-4.2422-5.60156m3.625 4.78907l-.51562 1.11328m14.8086-.61719l-4.96876-4.96875m17.34766-.67188l-3.09375 6.3125m2.64063-5.39062l1.22656-.04297m13.1875-.46484l-4.38672 5.48828m4.38672-5.48828l2.41406.45312m8.75-1.22265l-.08594 7.02734m.08594-7.02734l2.17969-1.125m10.26562 1.22265l1.65235 6.83203m-1.65235-6.83203l1.83594-1.6289m9.13281 3.53515l6.34766 3.01563m-6.34766-3.01563l-.10937-2.44922m1.03515 2.88672l-.05468-1.22265m12.77734.22656l5.67969 4.13672m-5.67969-4.13672l.34375-2.42969m.48438 3.03125l.34375-2.42969m12.3203 1.60547l5.32813 4.58203m-5.32812-4.58203l.53906-2.39453m.23438 3.0625l.26953-1.19922m14.30859-.63672l1.2539 6.91407m-1.2539-6.91407l1.92578-1.51953m14.59766 7.36328l-5.16016-4.76953m5.16016 4.76953l-.625 2.3711m14.64844-5.9961l-6.57813 2.47657m5.6211-2.11329l.91796.8086m12.28516-2.65625l-4.4414 5.44531m4.4414-5.44531l2.40625.47656m10.45703-.78906l-3.53906 6.07031m3.53906-6.07031l2.45313.09765m-2.96485.78516l1.22266.05078m10.83594-1.41015v7.02734m0-7.02734l2.16406-1.15235m-2.16406 2.17578l1.08203-.57812m10.20312.19922l4.0586 5.73828m-4.0586-5.73828l1.10547-2.1914m-.51562 3.02733l.55468-1.09765m11.32032 5.14453l5.7578-4.02734m-5.7578 4.02734l-2.1836-1.11719m3.02344.53125l-1.09375-.5586m13.46094.98048l5.97265-3.70313m-5.97265 3.70313l-2.1211-1.23438m14.92578-.96094l6.9961.6875m-6.9961-.6875L432.5 317.9375m15.78906 5.52734l3.91797-5.83203m-3.91797 5.83203l-2.4414-.25m18.73828-2.66796l-.02344-.19922-.05469-.19141-.09765-.17578-.45703-.3789-.19141-.0547-.19922-.01953-.19922.01954-.1914.05468-.46094.3789-.09375.17579-.0586.1914-.01953.19923.01953.19921.0586.19141.09375.17969.46094.375.1914.0586.19922.01952.19922-.01953.1914-.0586.45704-.375.09765-.17968.05469-.1914.02344-.19923"/><path fill="#00f" fill-rule="evenodd" d="M188.51172 476.52344h8.6211V466.3789h-8.6211v10.14453"/><path fill="azure" fill-rule="evenodd" d="M190.34375 468.21094h.83594v2.82422h3.28515v-2.82422h.83203v6.48047h-.83203v-2.91407h-3.28515v2.91407h-.83594v-6.48047"/><path fill="#00f" fill-rule="evenodd" d="M388.23828 463.21094h8.61719V453.0625h-8.61719v10.14844"/><path fill="azure" fill-rule="evenodd" d="M390.07031 454.89844h.83594v2.82031h3.28516v-2.82031h.83203v6.48047h-.83203v-2.91797h-3.28516v2.91797h-.83594v-6.48047"/><path fill="#00f" fill-rule="evenodd" d="M383.80078 436.57813h8.61719v-10.14454h-8.61719v10.14454"/><path fill="azure" fill-rule="evenodd" d="M385.63281 428.26563h.83203v2.82421h3.28907v-2.82421h.83203v6.48046h-.83203v-2.91406h-3.28907v2.91406h-.83203v-6.48046"/><path fill="#00f" fill-rule="evenodd" d="M219.58203 414.38672h8.61719v-10.14453h-8.61719v10.14453"/><path fill="azure" fill-rule="evenodd" d="M221.41406 406.07422h.83203v2.82422h3.28907v-2.82422h.83203v6.48047h-.83203v-2.91406h-3.28907v2.91406h-.83203v-6.48047"/><path fill="#ff3030" fill-rule="evenodd" d="M451.07031 338.9375h7.6914v-10.14844h-7.6914v10.14844"/><path fill="azure" fill-rule="evenodd" d="M452.90234 330.625h.83204v5.73828h3.1953v.73828h-4.02734V330.625"/><path fill="#ffffe0" fill-rule="evenodd" d="M372.8125 384.83984h22.17969v-10.1953H372.8125v10.1953"/><path fill-rule="evenodd" d="M376.3125 376.48047h.50781v6.29297h-.78515v-4.48828h-1.39063v-.5547l.5625-.0664.25-.05469.23047-.08984.20313-.14062.17187-.21094.14453-.29297.10547-.39453m4.8125 0l.23047.01953.21875.05469.20703.08984.19531.1211.1875.14843.16797.17578.30469.41797.24219.4961.17968.54687.11329.57813.03515.58984-.03515.59375-.11329.58594-.17968.55078-.2422.5039-.30468.42579-.16797.17968-.1875.15625-.19531.1211-.20703.09375-.21875.05469-.23047.01953-.23047-.01954-.21875-.05468-.20703-.09375-.19531-.1211-.1836-.15625-.17187-.17968-.30078-.42579-.2461-.5039-.17968-.55078-.10938-.58594-.03906-.59375h.83203l.03125.5625.08203.50781.125.4414.16016.375.1914.30079.21094.22266.22266.13671.22656.04688.22656-.04688.22266-.13671.21094-.22266.1914-.30078.16016-.375.1289-.4414.08204-.50782.02734-.5625-.02734-.5625-.08204-.5-.1289-.4336-.16016-.36718-.1914-.29297-.21094-.21094-.22266-.13281-.22656-.04688-.22656.04688-.22266.13281-.21094.21094-.1914.29297-.16016.36719-.125.43359-.08203.5-.03125.5625h-.83203l.03906-.58984.10938-.57813.17968-.54687.2461-.4961.30078-.41797.17187-.17578.1836-.14844.19531-.12109.20703-.08984.21875-.05469.23047-.01953m5.09375 0h.50781v6.29297h-.78906v-4.48828h-1.38672v-.5547l.5586-.0664.2539-.05469.23047-.08984.20313-.14062.17187-.21094.14063-.29297.10937-.39453m2.82031 2.17578h.78906l.01954-.3164.05859-.28907.09766-.25.14062-.21484.1836-.17578.22265-.12891.26563-.08203.30859-.02735.23438.02344.22656.0625.20312.10156.17969.13672.14844.17579.11328.20312.07031.23828.02735.26563-.02344.26562-.0664.22656-.10938.19141-.15625.17188-.19922.16015-.2461.16797-.63671.38672-.53516.3164-.4375.31641-.34766.32422-.26562.33594-.1875.35156-.125.36719-.07031.39453-.01954.41797h4.21094v-.73828h-3.33203l.08203-.28516.11328-.23828.14844-.19922.1875-.17969.23047-.17187.28125-.17578.71484-.41797.41406-.20703.34766-.23047.28125-.25.21875-.26563.16406-.28125.10938-.28125.0664-.28515.01954-.28125-.04297-.38282-.1211-.34765-.1875-.3086-.25-.26171-.30468-.21485-.34375-.15625-.37891-.10156-.40625-.03125-.4375.03125-.39844.09765-.35547.16797-.30468.23438-.2461.30469-.1875.375-.11328.4453-.04297.51954"/><path fill="#ffffe0" fill-rule="evenodd" d="M248.53906 404.48438h22.17969v-10.19532h-22.17969v10.19531"/><path fill-rule="evenodd" d="M252.03906 396.125h.50781v6.29297h-.78515v-4.48828h-1.39063v-.5586l.5586-.0625.2539-.05468.23047-.08985.20313-.14062.17187-.21094.14453-.29297.10547-.39453m4.8125 0l.23047.01563.21875.05859.20703.08984.19531.1211.1836.14843.17187.17579.3047.41796.24218.4961.17969.54297.10937.58203.03906.58984-.03906.59375-.10937.58203-.1797.55469-.24218.5039-.30469.42579-.17187.17969-.1836.15234-.1953.125-.20704.09375-.21875.05469-.23047.01953-.23047-.01953-.21875-.0547-.20703-.09374-.19531-.125-.1836-.15235-.17187-.17968-.30469-.42578-.24218-.50391-.1797-.55469-.10937-.58203-.03906-.59375h.83203l.02735.5625.08203.50781.1289.44141.16016.375.1914.30078.21094.22266.22266.13672.22656.04687.22656-.04687.22266-.13672.21094-.22266.1914-.30078.16016-.375.1289-.4414.07813-.50782.03125-.5625-.03125-.5625-.07812-.5-.1289-.4336-.16017-.36718-.1914-.29297-.21094-.21484-.22265-.1289-.22657-.04688-.22656.04687-.22266.1289-.21093.21485L256 397.5l-.16016.36719-.1289.4336-.08203.5-.02735.5625h-.83203l.03906-.58985.10938-.58203.17969-.54297.24218-.4961.3047-.41796.17187-.17579.18359-.14843.19531-.1211.20703-.08984.21875-.0586.23047-.01562m5.08985 0h.51171v6.29297h-.78906v-4.48828h-1.38672v-.5586l.5586-.0625.2539-.05468.22657-.08985.20703-.14062.17187-.21094.14063-.29297.10547-.39453m6.80468 1.61719h-.78515l-.05078-.21094-.08204-.1875-.10937-.15625-.1289-.13281-.14844-.10156-.16016-.07422-.16797-.04688-.17187-.01562-.32813.04296-.28515.1172-.2461.19921-.20312.26563-.16016.33984-.11719.40234-.07031.46875-.02344.52735.1875-.20313.1875-.16015.1836-.1211.1875-.08984.1875-.0625.1914-.03516.40235-.02344.30468.03125.32422.08985.3125.15625.29688.21875.2539.28515.19922.35157.07422.19922.05078.21875.03125.23437.0039.25-.78905.04688-.02735-.25782-.07812-.25-.1211-.23828-.16015-.20703-.1914-.17969-.22267-.13671-.23828-.08594-.2539-.03125-.25781.03125-.23829.08594-.22265.13671-.1914.1797-.16017.20702-.12109.23828-.07812.25-.02735.25782.02735.2578.07812.25392.1211.23437.16015.20703.1914.17969.22266.13672.23829.08984.2578.03125.25391-.03125.23829-.08984.22265-.13672.1914-.17969.16016-.20703.1211-.23438.07812-.2539.02735-.25781.78906-.04688-.03125.3711-.09375.37109-.15625.35937-.22266.32813-.28906.28125-.17188.1211-.1875.10156-.20703.08203-.22265.0625-.24219.03906-.25781.01172-.28516-.01563-.26172-.04687-.23437-.07422-.21875-.10547-.1914-.13281-.17579-.15625-.15234-.17969-.13672-.20313-.11719-.22265-.09766-.24219-.14843-.53515-.08594-.59375-.02344-.63672.03516-.7461.11719-.66406.18359-.57422.1211-.25781.13671-.23047.15235-.20703.17187-.17969.1875-.15625.19922-.1289.21875-.10157.23437-.07422.2461-.04687.26172-.01172.36718.03125.33204.09766.29687.14843.2539.19922.21094.24219.16797.27734.11328.30079.0625.3203"/></g></defs><use xlink:href="#ag"/></svg>