<svg xmlns="http://www.w3.org/2000/svg" role="img" xmlns:xlink="http://www.w3.org/1999/xlink" viewBox="142.45 309.95 326.84 171.84"><defs><clipPath id="a"><path d="M144 311.67188h1v168.65625h-1zm0 0"/></clipPath><clipPath id="b"><path d="M144 311.67188h324v168.65625H144zm0 0"/></clipPath><clipPath id="c"><path d="M467 311.67188h1v168.65625h-1zm0 0"/></clipPath><clipPath id="d"><path d="M144 477h3v3.32813h-3zm0 0"/></clipPath><clipPath id="e"><path d="M154 477h6v3.32813h-6zm0 0"/></clipPath><clipPath id="f"><path d="M167 478h7v2.32813h-7zm0 0"/></clipPath><clipPath id="g"><path d="M180 479h8v1.32813h-8zm0 0"/></clipPath><clipPath id="h"><path d="M193 478h8v2.32813h-8zm0 0"/></clipPath><clipPath id="i"><path d="M207 478h7v2.32813h-7zm0 0"/></clipPath><clipPath id="j"><path d="M220 478h8v2.32813h-8zm0 0"/></clipPath><clipPath id="k"><path d="M234 478h7v2.32813h-7zm0 0"/></clipPath><clipPath id="l"><path d="M247 477h7v3.32813h-7zm0 0"/></clipPath><clipPath id="m"><path d="M261 477h6v3.32813h-6zm0 0"/></clipPath><clipPath id="n"><path d="M274 477h6v3.32813h-6zm0 0"/></clipPath><clipPath id="o"><path d="M287 477h7v3.32813h-7zm0 0"/></clipPath><clipPath id="p"><path d="M300 478h8v2.32813h-8zm0 0"/></clipPath><clipPath id="q"><path d="M313 478h8v2.32813h-8zm0 0"/></clipPath><clipPath id="r"><path d="M327 478h7v2.32813h-7zm0 0"/></clipPath><clipPath id="s"><path d="M340 477h7v3.32813h-7zm0 0"/></clipPath><clipPath id="t"><path d="M353 477h8v3.32813h-8zm0 0"/></clipPath><clipPath id="u"><path d="M366 479h8v1.32813h-8zm0 0"/></clipPath><clipPath id="v"><path d="M372 480h2v.32813h-2zm0 0"/></clipPath><clipPath id="w"><path d="M379 479h9v1.32813h-9zm0 0"/></clipPath><clipPath id="x"><path d="M385 480h2v.32813h-2zm0 0"/></clipPath><clipPath id="y"><path d="M395 476h4v4.32813h-4zm0 0"/></clipPath><clipPath id="z"><path d="M408 477h5v3.32813h-5zm0 0"/></clipPath><clipPath id="A"><path d="M422 476h3v4.32813h-3zm0 0"/></clipPath><clipPath id="B"><path d="M435 476h4v4.32813h-4zm0 0"/></clipPath><clipPath id="C"><path d="M449 476h2v4.32813h-2zm0 0"/></clipPath><clipPath id="D"><path d="M461 476h5v4.32813h-5zm0 0"/></clipPath><clipPath id="E"><path d="M144 464h3v6h-3zm0 0"/></clipPath><clipPath id="F"><path d="M144 450h3v7h-3zm0 0"/></clipPath><clipPath id="G"><path d="M144 437h3v7h-3zm0 0"/></clipPath><clipPath id="H"><path d="M144 424h3v6h-3zm0 0"/></clipPath><clipPath id="I"><path d="M144 409h1v9h-1zm0 0"/></clipPath><clipPath id="J"><path d="M144 415h1v3h-1zm0 0"/></clipPath><clipPath id="K"><path d="M144 398h4v5h-4zm0 0"/></clipPath><clipPath id="L"><path d="M144 386h4v3h-4zm0 0"/></clipPath><clipPath id="M"><path d="M144 372h4v3h-4zm0 0"/></clipPath><clipPath id="N"><path d="M144 358h4v5h-4zm0 0"/></clipPath><clipPath id="O"><path d="M144 344h4v6h-4zm0 0"/></clipPath><clipPath id="P"><path d="M144 331h4v6h-4zm0 0"/></clipPath><clipPath id="Q"><path d="M466 332h2v4h-2zm0 0"/></clipPath><clipPath id="R"><path d="M144 317h3v7h-3zm0 0"/></clipPath><clipPath id="S"><path d="M466 318h2v3h-2zm0 0"/></clipPath><clipPath id="T"><path d="M465 319h3v3h-3zm0 0"/></clipPath><clipPath id="U"><path d="M224 470h9v10.32813h-9zm0 0"/></clipPath><g id="V" clip-path="url(#clip1)"><path fill="#fff" fill-opacity="0" fill-rule="evenodd" d="M0 0h1000v1000H0zm0 0"/><path fill="#d3d3d3" fill-opacity="0" fill-rule="evenodd" d="M162.15234 355.86719l-.23437.29297.0586.23437.11718.17188.17578.23437.29297.34766.11328.0586.11719-.17188.0586-.23438.17577-.17578.46485-.17578h.69922l.23437.29297.28906.8164.0586.17579.17578.23046.35156.23438.69922.69922.17188.17578.23437.34765.23438.41016.28906.58203.41015.46485.23047.23437.23438.17578.11719.23047.17578.29297.17187 1.16406v.23438l.0586.28906.05859.11719.11719.11719.34765.41015.11719.17188.17578.17578.17578.23437.11719.17188.17188.35156.05859.23438.23437.40625.23438-.0586-.17578.17578-.0586.92969h-.58203l-.23437-.11328-.34766.11328-.11719.11719-.05859.29297-.0586.17578-.11718.17187-.46484.29297-.0586.23438-.0586.11328v.64453l.0586.17187v.41016l.0586.0586v.40624l.05859.40625.11719.17579.05859.05859.23047.64062-.0586.29297v.69922l-.05859.58203v.23438l-.0586.23047-.05468.35156v1.92187l.05469.1172h.42578l-.36719.11718-.02344.35156.89063 1.16797 1.74219.53906 1.33984.35938v.53906l.08984.8086.53516.71484 1.51953.26953.89063-.08594.08984 1.16406.53516.1797 1.16015-.1797 2.05469-.98437 1.16016-.36328 1.8789-.17578 1.69531-.1797-.17968.71876-1.51563.08594-1.25.08984-.80469.26953-1.07421.8086.26953.71875.53515.89843-.17968.625-.26563.8086.26563 1.07812.625.89844.80468.17969 1.25-.1797-.26562.72267.09766.5039.05468.29297v.17188l.0586.29296v.40625l.17578.1172.35156.11718h.40625l.29297-.17578.11328-.11719.0586-.11719.11718-.23047.0586-.17578.35156-.46484.23047-.17578.17578-.0586.17578.0586.0586.17578.11718.98828.05469.46875.0586.17188.11718.23437.17578.0586.8164.05859h.28907l.11719.23437.05859.40625.0586.35156v1.10547l.11718.29297.11719.34766.28906.69922.17578.35156.58203.7539.35157.17579.17187.0586.46875.23437.64063.46484.34765.23438.29297.17578.29297.05468.23047.0625.8164.34766.29297.17578.11328.17188.35157.35156.11719.17578.52343.64063v.28906l.0586.35156v.34766l.05859.35156.0586.28906.11718.0586.17188.05859h.17578l.58203.23437.17578.1172.17578.28905.17578.23438.11328.23437.29297.23047.11719.11719v.41016l.0586.05468.28906.23438.23437.11719.0586.11718.11718.17188.0586.11719.23047.23437.05859.17578.23437.0586.1172.05859-.1172.11328-.05859.11719v.11719l-.11719.29296-.11719.28907v.58203l.17579.11719.11718.05859.0586.11719.11719.11719.11328.05859.17578.34765.0586.35157.05858.40625v.17578l-.05859.17578-.11719.69922v.17187l.1172.17579.29296.29296h.40625l.17578.1172.11719.17187.11719.29296v.23438h-.52735l-.23047-.23438h-.23437l-.17578.0586-.0586.69922.0586.34765.11719.17579.17578.41015.11718.23047.28907.46875.17578.05469h.52344l.23437.0586.75781.64062.0586.29296v.23438l.05859.0586.23047.34765v.35156l-.11719.17188v.29297l.29297.28906.29297.17578.17187.0586.29297.17577.29297.1172.58203.40624.28906.23438.29297.17578.21875.16015.01563.01172.23047.17579.64062.52343.17578.23438.1172.17578.17577.17578.11328.17188v.64062l.1172.17578.46874.11719.58203.11719.23438.05859.23047.11328.29297.11719.11328.0586.58593.35156.28907.17187.17578.0625.17578.05469.17578.0586.69922.35155.28906.17579.23438.05468.28906.17578.23437.1172.64063.40624.29297.11719.17187.0586.23438.05859.41015.05859.23047.0586.23438.11718.0586.17188-.41017.17578.46875.0586.0586.29296.11328.23438.17578.05468.23438.0586.17578.05859.40625.11719.64062.23437.11719.17188.0586.23437v.17578l-.0586.1172-.0586.40624.23438.23438.11719.05859.34766.11719.64062.23047.17578.11718.28906.1172.17578.17577.23438.46485.58203 1.10546.17578.17579.34766.17578.17578.11719.35156.11718 1.04688.52344.23437.0586.46485.11327.29297.0586.46484.17578.75781.58203.23438.23438.34765.46484.17578.17578.28907.23438.8164.69921.29297.17579.28906.28906.29297.17578.29297.28906.69531.64063.17578.17578.29297.23437.28907.23438.46875.28906.64062.58203.34766.23438.23437.29297.34766.34765.35156.46485.9336.99218.34765.40625.11719.17579.23437.05859.11328.11719.64454.17578.23047.11328.23437.0586.29297.17577.23047.1172.9336.69921.40624.40625.23438.17578.40625.17578.23437.11719.8164.34766.34766.23437.23438.11719.29297.28906.23047.11719.7578.35156.35157.17188.23047.05859.29297.11719.23437.0586.8711.17577h.8164l.46875.23047.17188.0586.875.69921.46484.1172.29297.05858.17578.0586.23047.0586.46875.05859.34766.05859.35156.0586.40625.05859h.29297l.17187.0586v.23046l.17578.17578h.29297l.34766.0586.35156.05859.69922.11719h.64063l.46484-.23438.29297-.17578.17187-.11719.41016-.17187.28906-.17578.9336-.46485.46875-.29297.52343-.29296.46485-.17188.46484-.17578 1.05078-.46485.28906-.11718.41016-.11719.28906-.11719.52735-.17578 1.51562-.69922.58203-.34765.28907-.0586.29297-.0586.34765-.11718.875-.23047.35156-.11719h.11329l.23437-.05859.875-.23437.23438-.0586h.8125l.35156-.0586.8164-.11718.17188-.0586.35156-.05468.29297-.0586.23047-.05859.8164-.17578.17579-.0586h.34765l.23438-.05859.46484-.11718.75781-.17188.23438-.0586h.34765l.41016-.11718.28906-.0586 1.28516-.05859h.28906l.41016-.0586.23047-.05858h.17578l.875-.1172h.40625l.41015-.11718h.34766l.35156-.11328.8711-.0586h1.75l1.04687.28907.41016.11719.28906.11718.35156.11719.28907.11719 1.05078.17187.28906.0586h.29297l.29297.05859.17187.0586.41016.05859.17187.0586.1172.05858h.11718l.11719.0586.35156.0586h.11328l.41016.0664 1.92187.39453 1.92578.39453 1.51953.44922 1.69532.71875 2.14453.80469 1.60547-.71875 1.42968-.80469 1.16016-1.07813 1.25-.44921 3.03516-.71875 1.875-.35938 2.14453-1.34765 2.23437-1.25391 2.5-1.25781 1.69531-.44922 1.78516-.17969 1.16016-.26953.625.53906 1.33984-.26953.71485-.98828.98437-1.34375.44531-.17969.80469-.35937 1.875-.53907 1.78516-.44921 1.25-.26954 1.16015-.08984 1.69922-.08984 1.96094-.26954 1.25-.08984h.53906l.625-.08984h.89063l2.14453-.17969 2.41015-.17969 2.58985-.08984 1.69531.17969 1.60938.08984 1.42968.35938 1.16016.71875 1.875.98828 1.16015 1.52734.26563.71484.6289.08985.35548.89844.53515.53906.53516 1.52734 1.07422.35938h.53515l-.80469.53515.08985 1.70703.71484 2.69532.89063.80468.89453.98829.71484 1.2578 1.78516.53907 1.51953-.17969.35547 1.34375 1.60937-.80469.98047-.53906.26953.26953.31641-.21484.21875-.14453.80078.44922.44922-.35938h.35547l.53515-.26953.53907-.71875.53515-.26953.625-.98828 1.16016.44922.83984.3711 1.39454.61718 1.6953-.17969h1.60548l1.78515.08985.17969-1.70704.53516-1.34375.80468.26954.4922.84765.40233.40625-.08984.53906v.35938l.71485.44922.71093-.26953h1.42969l.35938.98828.4453 1.25781.71485 1.34375 1.25.6289 1.69531.62891.71485-.17969.17969-.53906.98046-.08984.44922.35937.08594 1.25782-.26563.6289-.53515.17969v.53906l.71484.98438.26563.53906.98437.98828.80078 1.07813-.26562.35937-.08985.89844-.625 2.33203-.35546 2.0664-.08985 1.79298-.17969.71875-.08984.53906v1.4375l-.98047 1.88281-.35937 1.70703-.53516.89844-.80469 1.16797-.26562.53906 2.05469 1.2539.08593.35938-.35546.53906-.08985-.17968v.80859l.08985 1.4375-.44532.71484-1.07422.09375-.26562.71485.53515.89844.8047.71875 1.16015.80859 1.33984.26953.44531.35938-.35546.44921-1.78907-.08984-1.25-.44922-.71484-.71875-.625-.08984-.17578 3.58984-.1875 1.3086h89.35937V311.70313h-55.26953v49.08203l.76172.125 3.28906.54296 2.02344 2.83594v2.7539l2.35156.33204 2.34766.33203h4.05078l-1.3789 4.16016-2.02344.70703-2.02344.70312-.54297.34375-2.59375 1.6172-.1875.11718-2.02344-2.07813-.73046-2.74218-2.67188-2.07813-1.375-3.5-.0664-.08203-1.95704-2.67188 2.75-1.41796v-49.08204H294.42187v91.41407l.1172.03125.1328.01172.07422.07421.10547.04688.08985.0586.08593.05859.08985.0586.29687.29687.0586.08984.03125.11719.02734.11719.01563.13671-.03125.1172-.0586.08983-.0586.08594-.04296.10547-.04688.10156-.02734.1211v.14453l.17578.26953.14844.14844.07422.08594.07422.07421.04296.10547.0625.08985.0586.08593.04297.10547.0586.08985.04687.10156.04296.10547.0586.08594.11719.17968.07421.07422.0625.08594.0586.08984.04297.10547.0586.08985.05858.08593.0625.08985.0586.08984.04297.10156.11719.17969.07421.07422.0586.08594.07422.07421.08984.0586.10547.04687h.14844l.1328-.01562.13282.01562.10156-.04687.07422-.07422.04688-.10156-.01563-.13281v-.14844l-.04687-.10547-.02735-.11719-.04687-.10156-.02735-.1211-.04296-.10156-.0625-.08984-.04297-.10156-.04297-.10547-.03125-.11719-.01563-.13281-.01171-.13672.08593-.0586.0586-.08593.12109-.03125.04297.10547.01562.1328v.1172l.0586.10156.0586.08984.08983.0586.14844.14843.0586.08985.04296.10547-.01171.10156.08593.0586.10547.04687.08594.0586.08984.05858.07422.07422-.11719.02735-.10546.04687-.08594.0586-.07422.07421-.0586.08985-.0625.08594-.02734.12109-.04687.10156-.04297.10547-.03125.11719-.01172.13281-.01563.13281v.14844l.02735.11719.04687.10547.04297.10156.0586.08984.07421.07422.08985.0586.07422.07421.08984.0586.0586.08984.04296.10547.04688.10156.11719.03125.1328.01563h.14845l.11718-.03125.10547.04297.04297.10547.04688.10156.02734.1211L299.5 410l.02734.11719.03125.1211.02735.11718.10547.04297.10156.04687.13281-.01562.14844.14844.0625.08593.07422.07422.07031.07422.08984.0625.10547.04297.10156.04297.1172.03125.13671.01562.11719-.03125.07422-.07422.02734-.11718-.01172-.13282-.03125-.12109-.02734-.11719.04297-.10547h.11719l.08984.0625.11719.02735h.14843l.13282.01562h.14843l.13282.01563.1328-.01563h.14845l.1328-.01562.13282-.01172.13672.01172.11719-.02735.13281-.01562.1914-.0586-.05859.17579-.01562.1328-.02735.1211-.01562.13281-.0586.08594-.1328.01563-.10548.04687-.10546.04297-.1172.03125-.11718.02735-.26563.03125h-.14843l-.13281.01562-.07422.07422.05859.08594.14844.14843.11719.1797.07421.0703.08985.0625.08984.0586.08594.0586.08984.05858.10156.04297.10547.0625.10547.04297.08594.0586.10547.04687.10156.04297.17969.11719.0586.08984-.04298.10156-.04687.10547.01562.13281.22266.22266.0586.08985.04296.10156.03125.1211.04297.10155.01563.13282.03125.11718.01171.13672.03125.11719.14844.14844.10156.04297.10547.04296.1172.03125.1328.01563.13672.01563h.11719l.11719-.03125.08984-.0586.04297-.10547.04688-.10156.04296-.10547.03125-.11719.01172-.1328v-.14845l-.01172-.1328-.01562-.13282-.03125-.11719-.04297-.10547-.04688-.10547-.04296-.10156-.04297-.10547-.01563-.13281.01563-.13281.02734-.11719.03125-.11719.02735-.1211.04687-.10155.08984-.0586.08594-.0625.07422-.07422.08984-.05859.22266-.22266.0586-.08593.07421-.07422.11719-.17969.0586-.08594v-.14844l-.07423-.07421-.10156-.04688-.10547-.04297-.10156-.04297-.0586-.08984-.04687-.10547-.02734-.11719.08984-.05859.11719-.03125.10156-.04297.17969-.11719.14844-.14843.01172-.13282-.01172-.10546-.08985-.0586-.1328.01563h-.14845l-.1328.01562-.13282-.01562-.1211-.03125-.08593-.0586-.07422-.07422-.0586-.08984-.0625-.08594-.11718-.17969-.0586-.08593.03125-.1211.08594-.05859.1211-.03125.05859-.08594v-.1211l-.03125-.11718-.0586-.08984-.05859-.08594-.04687-.10547-.02735-.11719-.01562-.1328.0586-.08985.07421-.07422.08984-.0586.1172-.17968.07421-.07422.0586-.08594.14843-.14844.1211-.03125.1328-.01562.13282.01562.07422.07422.04297.10547.01562.13281-.03125.1172-.11719.03124-.1328.01172-.14844.14844-.04297.10547-.04688.10156-.02734.1211-.03125.11718v.14844l.03125.11719.04297.10546.05859.08985.07422.07031.07422.07422.11719.03125.12109.02734.11719-.02734.1328-.01563h.1172l.08984.0586.07422.07422.04687.10546.0586.08594.10156.04688.13281.01562.10547.04297.08594.0586-.01172.10546-.07422.07422-.17969.11719-.05859.08984-.08984.0586-.07032.07422-.07421.07421-.0625.08985-.02735.11719-.01562.1328.01562.13282-.01562.13281v.14844l.01562.13281.02735.1172.03125.12108.07421.07422.08985.0586.08594.0586.08984.05858.11719.03125v.08594l-.10157.04688-.08984.0586-.26563.03124-.11718.02735h-.14844l-.10547.04296-.10156.04688-.0586.08984-.0625.23438-.01171.13281-.03125.1211-.01563.1328v.29298l-.01172.1328.01172.13673.01563.1328.1328.01563.13282.01172.1211.03125.08593.0586.07422.07421.04688.10547.04296.10157.01563.1328v.44532l-.01563.13281v.44532l.03125.26562.02735.11719.01562.13281.03125.11719.08594.21094.03125.26562v.14844l-.03125.11719-.02734.11718-.03125.1211-.02735.11719-.03125.11718-.03125.1211-.01171.1328-.01563.13282.08984.0586.1172-.03125.10155.01562.04688.10547-.03125.26562v.44141l-.04297.10547-.04688.10547-.04296.10156-.04297.10547-.0586.08594-.03125.12109-.04296.11719-.03125.11719-.01563.1328.01563.13282.05859.08984.10547.04688.08594.0586.05859.08593-.01172.13672-.03125.11719-.04297.10156v.44531l-.01562.13281v.14844l-.03125.11719-.04297.10547-.02735.11719-.04687.10546-.04297.10157-.03125.12109-.02734.11719-.03125.13281-.03125.11719-.02735.11719-.04297.10546-.03125.1172-.03125.12108-.01171.13282-.01563.13281v.29688l.02734.11718v.14844l.04688.39844.02734.11719.0586.08984.12109.03125h.14844l.13281-.01563.0586.08985v.11719l-.0586.08984-.08984.0586-.10157.04296-.10546.04688-.08985.05859-.08594.0586-.13671.01562-.1172-.03125-.1328-.01563-.10157.04688-.0625.08594-.01172.13671-.01562.13282-.03125.11719-.02735.11718-.01562.13281-.03125.1211v.29687l.01563.13282.03125.11718v.14844l.01171.13281v.14844l-.02734.11719-.04688.10156-.02734.1211-.03125.11718-.0586.08985-.07421.07421-.10156.04297-.10547.04688-.11719.02734-.1211.03125-.10156-.04687.0586-.08594.10547-.04688.02734-.11718.03125-.11719.02734-.1211.03125-.11718v-.14844l.01563-.13281-.03125-.11719-.04297-.10547-.10547.01563-.07422.07422-.10156.04296-.08984.0625-.07422.07422-.04297.10157-.01563.1328-.03125.1172L304.25 426l-.03125.11719-.02734.11719-.03125.12109-.02735.11719-.03125.11718-.04297.10547-.08984.0586h-.08984l-.1172-.03125-.03124-.08594.01562-.13672-.03125-.11719v-.14844l-.01171-.1328v-.14844l-.0625-.23438-.02735-.1211-.04297-.10156-.04687-.10546-.0586-.08594-.05859-.08985-.04297-.10546-.0625-.08594-.14844-.14844-.0703-.07422-.10548-.04687-.10547-.04297-.10156-.04297-.29687-.29688-.08985-.07421-.08594-.0586-.10546-.04297-.08985-.0625-.08594-.0586-.10546-.04296-.08985-.0586-.08594-.0625-.07421-.0703-.10547-.04688-.08594-.0586-.10547-.04296-.08984-.0625-.10156-.04297-.10547-.04297-.08594-.0586-.10547-.04687-.10547-.04297-.10156-.04687-.08985-.0586-.10156-.04297-.10547-.04296-.08984-.0625-.11719-.02735-.13281-.01562-.13281.01562H299.75l-.13281.01563-.11719-.03125-.08984-.0586-.07422-.07422-.08985-.05859-.10156-.04688h-.14844l-.12109-.02734-.10156-.04297-.07422-.07422-.11719-.17968-.08984-.0586-.10156-.04297-.08985-.0625-.10547-.04296-.08984-.0586-.08594-.0586-.10547-.04687-.0586-.08594-.05858-.08984-.04297-.10547-.04688-.10156-.07422-.07422-.08594-.0586-.07421-.07421-.08985-.0586-.22265-.22265-.04297-.10547-.03125-.26563.10547-.04296h.14453l.10547.04296.07421.07422.08985.0586.08594.0586.10546.04687.08985.05859.14844.14844.0703.07422.14845.14843.0625.08594.07421.07422.08594.0586.07422.07421.08985.0625.08984.0586.08594.05859.26953.17578.10156.04688.10547.04296.10156.04297.04688-.07421.05859-.08594.07422-.07422.07031-.07422.10547.04297.07422.07422.0586.08984.04296.10156.04688.10547.04296.10547.1211.02735.11719-.02735.07421-.08984.04297-.10547.0586-.08985.07422-.07421.10546-.04297.1172-.02735.1328.01172.08985.0586.14844.14843.05859.08985.04297.10547.04687.10156.04297.10547.04297.10156.10547.04688.10547.04296.13281.01563.08594-.0586.0586-.08984.07421-.07422.10547-.04297.11719.02735.10547.04687.10156.04297.10547.04297.10156.04688.17969.11718v.11719l-.01563.13281.01563.13281.01562.13672.0586.08594.10156.04688.1211.02734.11718.03125h.14844l.11719-.03125.05859-.08984.17969-.1172.05859-.08983.07422-.07422.0586-.08594.11718-.17969.17969-.11719.11719.03125.08984.0586.04297.07422-.01563.1328v.1172l.08985.05859h.14843l.13282-.01563.1328-.01171.26563-.03125.10547-.04297.11719-.03125.1211-.02735.07421-.07421.07031-.07422.0625-.08985-.01562-.10547-.04688-.10156-.10156-.04297-.10547-.01562-.11718.02734-.26563.03125h-.14844l-.07421-.07422-.08985-.0586-.11719-.03124-.11718-.02735-.13282-.01562h-.14843l-.13282.01563h-.29687l-.10547-.04688-.14844-.14844-.04297-.10156-.05859-.08984.22266-.22266.08593-.0586.10547-.04296.11719-.03125.13281-.01563.13281.01563.13672.01562.10157.04297.1328-.01172.08985-.0625.10156-.04297.0625-.08984-.04687-.10156-.08984-.0586-.1172-.03125-.10155-.04296-.0586-.08985-.0625-.08984v-.11719l.01563-.13281.10547-.04688.07421-.07031v-.1211l-.08984-.05859-.03125-.11719.08985-.05859.07421-.07422.04297-.10547.0586-.08984.04687-.10156.01563-.13281v-.14844l-.04688-.10547-.04297-.10156-.08984-.0586-.13281-.01562-.10157-.04297-.13671-.01563-.1172-.03125h-.4453l-.13282-.01562-.13281-.01172-.13281-.01563-.11719-.03125h-.14844l-.13281-.01562-.13281-.01172-.26563-.03125-.1211-.04297-.08593-.0586-.07422-.07421v-.14844l.01172-.13281.10547-.04688.10156-.04296.13281-.01563h.15235l.13281-.01562h.29297l.1211.03125.10156.04296.08984.0586.23438.0625.12109-.04688.08984-.05859.10156-.04297.13282-.01562.10547.04296.10156.04688.13281.01172.1211-.02735h.14453l.12109-.03125.11719-.02734.10547-.04687.07421-.07422.08594-.0586.14844-.14843.0586-.08594.04687-.10547.02734-.11719.01563-.10547-.10156-.04296-.08985-.0586-.11719-.03125-.10546-.04297-.08985-.0625-.07422-.08594-.07422-.07421-.10156-.04297-.10547-.04688-.10156-.04297-.0586-.08984-.04687-.10156-.08594-.21094-.0625-.08594-.05859-.08984-.07422-.07422-.08594-.0586h-.26953l-.11719.03126-.08984.05859-.10156.04297-.13281.01562-.10547-.01562-.02735-.11719-.0625-.08984-.11718-.03125-.10157-.04297-.14843-.14844-.03125-.11719-.01563-.10546.07422-.07422.17969-.1172.11719-.02733.11718-.03125.13672.01562.10156.04297.10547.04297.10156.04687.10547.04297.1172.03125.1328.01563.1172.02734.1328.01563.10547-.01563.08985-.0586-.07422-.07421-.10547-.04297-.07422-.07422-.07422-.08984-.14844-.14844-.08593-.0586-.08985-.05859-.07422-.07422-.08984-.0586-.10156-.04687-.1211-.02734-.10156-.04688-.10547-.04296-.11719-.03125-.10156-.04297-.1211-.03125h-.14843l-.11719.03125-.10546.04297-.08594.0625-.17969.11718-.08594.0586-.08984.0586-.10547.04687-.08594.05859-.10547.04297-.10156.04297-.10547.04687-.07422.07422-.05859.08985-.0586.08593-.04687.10547-.0586.08594-.07421.07422-.13281-.01172-.1172-.03125h-.11718l-.07422.07422-.08984.0586-.07422.07421-.08984.0586-.08594.05859-.10547.04687-.10156.04297-.13672.01563-.10156-.04297-.14844-.14844-.10547-.04688h-.08594l-.10547.04688-.10156.04297-.1211.03125-.11718-.03125-.07422-.07422v-.11719l.03125-.1211.07422-.0703.0586-.08985.07421-.07422.11719-.03125.10547-.04296h.29297l.13281-.01563.13672-.01563.10156-.04296.08985-.0586.10156-.04687.08984-.0586.13281-.01171.08985.05859.13281.01172.08984-.0586.08594-.05859.10547-.04297.08984-.0586.08594-.0625.08985-.05859.14843-.14843.0586-.08594.05859-.08985.10547-.04296.13281-.01563.11719.02735.1211.03125.05859-.0586.05859-.08984.03125-.26563.02734-.11719.10547.01172.13281.01563.10157-.04297.08984-.0586.0586-.08984.07421-.07422.0586-.08984.04687-.10156.01172-.13281-.01172-.13282-.04687-.10547-.14844-.14843-.0586-.08985-.05859-.08594-.04297-.10546v-.44532l.01563-.1328v-.14845l.01172-.1328-.0586-.0586-.08984.0586-.10156-.04298-.17969-.11719-.08594-.05859-.0625-.08984-.0586-.08985-.07421-.07421-.08594-.0586-.1211.03125-.10155.01172-.10547.04688-.08594.05859-.10547.04297-.14844.14844-.08984.05859-.08594.0586-.08984.0625-.10547.04296-.13281.01563v-.1211l.10547-.04297.11718-.03125.07422-.0703.04297-.10548v-.14844l-.02734-.11718-.14844-.14844-.13281-.01563h-.14844l-.11719.03125-.10547.04297-.10156.04297-.08984.0625-.11719.02735-.07422-.07422.01172-.13281-.04297-.10157-.04297-.10547-.08984-.05859-.11719.02734-.1211.03125-.11718.03125-.10156.04297-.1211.03125-.10156.04297-.10547.04297-.08984.0586-.10156.01562v-.11719l.01562-.13281-.0586-.08985-.07421.04297-.14844.14844-.0586.08985-.07421.07421-.04688.10547-.04296.10156-.07422.07422-.0586.08985-.07422.07422-.05859.08593-.07422.07422-.08984.0625-.07422.07031-.07422.07422-.10156.01563-.13281.01562-.10547-.04296v-.1211l.14843-.14844.04297-.10156.0586-.08984.04687-.10156.04297-.10547.0586-.08985.03124-.11719.04297-.10156.03125-.1211.02735-.11718.04687-.10547.04297-.10156.04297-.10547.07422-.07031.08984-.0625.08985-.0586.10156-.04296h.29687l.26563-.03125.10547-.04297-.07422-.07422-.11719-.03125-.10547-.04297-.08984-.0586-.10156-.04687-.08985-.0586-.10156-.04296-.10547-.04297-.08984-.0625-.08594-.0586-.10547-.04296-.10156-.04297-.1211-.03125-.11718-.03125-.10157-.04297L297.5 410.25l-.10156-.04297-.08985-.0586-.04296-.10546-.01563-.13281.10156-.04297.13281-.01563.13672.01563.13282-.01563.10156-.04297.0586-.08984.01562-.10547-.08985-.0586-.07421-.07421-.10157-.04297-.08984-.0586-.14844-.14843-.04297-.10547-.01562-.13281v-.29297l-.0586-.08985-.08984-.05859-.07422-.07422-.04297-.10547-.03125-.11718-.0586-.08985-.07421-.07422-.11719-.02734-.07422-.07422-.08984-.0586-.08984-.0625-.08594-.05859-.07422-.07421-.0586-.08594-.04687-.10547-.08594-.0586-.14843-.14843-.19532-.0586-.1328.01563-.10157.04297-.07422.07422-.04688.10156-.04296.10547-.0586.08984-.0586.08594-.29687.29687-.08984.0586h-.08594l-.0625-.08594-.04297-.10547.03125-.11719.0586-.08984.02734-.11719-.01172-.13281-.08984-.0625-.10547.04688-.11719.02734-.11719.03125-.26953.17578-.10156.04688-.11719.02734-.10546.04687-.08985.0586-.10156.04297-.0586-.08594-.04687-.10547.01563-.13281.04687-.10547.07031-.07422.07422-.07031.0586-.08985v-.14843l-.04297-.10547h-.23829l-.10156.04687-.03125.11719-.02734.11719-.03125.1211-.07422.04296-.13281.01563-.07422-.04688-.04297-.10156-.04297-.10547-.04687-.10156-.04297-.10547-.1211.03125-.10156.04297-.13281.01562-.11719.03125-.10547.04297-.08984.0586-.10156.04687-.1211.02734-.13281.01563-.10156-.04297-.0586-.08985-.04687-.10546-.04297-.10157-.04297-.10546v-.1172l.0586-.08984.08593-.05859.17969-.11719.10156-.04687.10547-.04297.10547-.0586.10156-.04296.08985-.0625.10156-.04297.10547-.0586.10156-.04687.08984-.0586.10547-.04296.10156-.04297.08985-.0625.10156-.04297.13672-.01563.11719.03125.10156.04297.1211.03125.10156.04297.10546.04688.10157.04296.10547.04297.10156.04688.10547.04297.10156.04297.10547.04687.08594.0586.10546.04296.1172.03125.10546.04297.10156.04688.08985.0586.10547.04296.10156.04297.10547.04687.11719.02735.10156.04687.1211.02735h.14843l.08594-.0586.01562-.10156.0586-.08984-.02735-.1172-.07422-.07421-.11719-.17969-.07421-.07422-.08985-.07421-.17969-.1172-.08593-.05859-.10547-.04296-.10156-.04688-.26954-.17578-.05859-.08985-.07422-.07421-.0586-.08985-.04296-.10156-.03125-.11719-.01563-.13672v-.5625l-.01171-.1328-.01563-.13282-.03125-.11719-.01562-.13281-.01172-.13281-.03125-.1211-.22266-.22265-.0586-.08594-.01562-.10547.03125-.11719.13281-.01562v-91.41406H172.9922v1.45312l-.0586.23438-.35156 1.05078-.17187.52343-.1172.34766-.17577.41016-.11719.17187-.23438.29297-.23046.0586h-.35157l-.11718.05859-.23047.40625v.29297l.11719.17578.23046.23047.1172.23437.64062.75781.29297.46485.17578.23437.23047.35156.23437.34766.64063.8164.17578.46485.17187.41016.11719.69531.17578.46875.11719 1.39844.0586.46484v.875l.11718 1.04688v4.78125l-.0586.46484-.35156 1.28125-.17578.52344-.11328.41015-.35156.9297L172.93359 336l-.23437.58203-.11719.17578-.17187.34766-.17578.40625-.35157.8164-.0586.29297-.11327.29297-.11719.28906-.0586.17579-.11718.875-.0586.40625-.05859.11718-.0586.17579-.05859.17187-.23047.52734-.11718.17188v.23437l-.11719.23438-.0586.17187-.17577.58594v.28906l-.0586.17579v.29296l-.0586.11329-.05859.52734v.17187l-.05468.23438v2.6211l-.17578.8164-.1172.17578-.17577.23438-.1172.17187-.11327.23438-.58594.93359-.23047.28906-.29297.46485-.17578.23437-.28906.35156-.35156.69922-.11328.23047-.17579.41016-.17578.23046-.40625.52735-.8164.69922-.29297.17187-.28906.23438-.17579.11719-.17578.17578-.52344.40625-.52734.17578-.17187.17578-.23438.05469-.64062.17578h-.75782m12.21094 31.02344l-1.07422.44921.35938.89454 1.25-.71485.44531-.53906-.98047-.08985"/><path fill="#d3d3d3" fill-opacity="0" fill-rule="evenodd" d="M201.50781 416.59766h-.89453l.44922.6289.98047.35938.80469-.08985.4453-.98828-.17577.08985-.71485-.35547-.89453.35547m154.6211 59.0703l-.0586-.52343v-.29297l.11328-.29297.0586-.23046.46875-.46875h.11328l.11719-.11329.11718-.05859h.17579l.23437-.0586h.34766l.23437.0586.11719.0586.23047.17187.0586.17578.11718.58203v.29297l-.11719.17578-.17187.28906-.17579.17579-.52734.52343-.23047.23438-.11719.0586h-.17578l-.11718-.0586-.40625-.29297-.17579-.11719-.11718-.0586-.0586-.11327-.05468-.1172m6.64062-10.95702l-.0586-.17188v-1.10937l.0586-.17188.17578-.0586.17188-.05858h.17578l.23437-.0586.1172.0586.05858.69921-.05859.17188-.11719.17578-.11718.0586-.23438.52343-.11328.0586h-.23438l-.05859-.1172m9.61328-14.39062l-.11719-.17578v-.69922l.29297-.875.1172-.17187.17577-.35156.11328-.23047.1172-.29297.35155-.75781.1172-.23047.17187-.23438h.17578l.11719-.0586h.64062l.11719.0586.23437.23438.17188.11328.35156.29297.11719.11718.11328.17579v.11328l.11719.05859.11718.11719v.69922l-.05859.17578v.23047l-.0586.17578-.34765 1.05078-.11719.23047-.11719.23437-.11718.0586-.23047.23437-.64063.28906h-.875l-.41015-.11718-.64063-.46485"/><path fill="none" stroke="#bebebe" stroke-linecap="round" stroke-linejoin="round" stroke-miterlimit="10" stroke-width=".5" d="M467.95703 311.69531H144.02734v168.625h323.9297v-168.625"/><g clip-path="url(#a)"><path fill="#fff" fill-opacity="0" fill-rule="evenodd" d="M144 475.89063v4.4375h.0039H144V311.67188h.0039H144v164.21875"/></g><g clip-path="url(#b)"><path fill="#fff" fill-opacity="0" fill-rule="evenodd" d="M144.0039 480.32813V311.67188h17.75v76.73828l-3.15624 3.15234-.16797 4.4375-.65235 4.4375-.17578 4.4375-.28515.24219-4.44141.875-3.11719 3.32422-1.32031 3.42187-.98828 1.01563.98828 1.26953 4.4375 2.78515 1.2461.38282 3.1953 3.02343 4.4375.71875 4.4375-1.58203 2.27344-2.16015 2.16407-2.57032 4.4375.03907 4.33203-1.90625.10937-.10938 4.4375.03516.20313.07422 4.23437 1.42968 1.7539-1.42968 1.20313-4.4375-2.95703-2.1172-4.4375-.43358-4.4375.51562-4.4414-.63672-1.71094-1.76953-2.41016-4.4375-.3164-.92578L170.16797 396l-1.9336-4.4375-2.04296-2.3789-4.4375-.77344v-76.73829h17.7539v72.88282l-2.70703 2.57031 2.70703 2.65234 4.11719-2.65234-4.11719-2.57031v-72.88281h39.94531v44.76562l-3.375 4.05469-1.0625 1.22656L211 364.93359l-.42578.16407-.95703-.16407-3.48047-2.28125-2.97656 2.28125-1.46094.16797-4.4375 1.17578-3.95703 3.09375-.48438.08985-.22265-.08985-4.21485-3.8125-4.4375.04297-4.01953 3.76953-.26562 4.4375 4.28515 4.20704.3125.23046 3.46094 4.4375-3.23047 4.44141 3.89453 3.51953.42969.91797L191.01563 396l-.79297 4.4375 2.59765 3.78906 3.42188-3.78906 1.01953-.2461v5.83204l-3.92969 3.29297 3.92969 3.89843 3.42578-3.89843-3.42578-3.29297v-5.83203l4.4375-.09766 2.40625.34375 2.03125 1.8789 4.4375 1.46876 2.44922 1.08984-2.44922 2.77734-2.11719 1.66407.66797 4.4375 1.05078 4.4375-4.03906 2.21093-2.00781-2.21093-2.4297-2.38672-2.42968 2.38672 2.42969 3.01953 1.59766 1.41797 2.83984 3.04296 4.4375 1.01563 4.4414-2.1875 1.25391-1.8711-1.2539-3.48437-2.19141-.95312 1.3086-4.4375.53515-4.4375.34766-.26172 4.4375-.9414L220.5 409.3164l-.00781 4.4375 3.39844 3.17187 3.01562 1.26563 1.42188 1.42578 4.4375 1.3789 4.4414-2.64453.13281-.16015 2.05078-4.4375-2.18359-2.21875-4.4414-1.5547-.89844-.66405.4961-4.44141.40233-.1914 4.44141-3.73438.49219-.51172L240.23438 396l-3.02735-3.03125-4.4414-.86719-1.22266-.53906-3.21484-3.4961-1.89063-.9414-.125-4.4414 2.01563-1.76954L231 378.2461l-2.67188-2.64062-4.4375 1.34375-1.41015 1.29687-3.02734 1.67579-2.07813-1.67579-2.35938-3.73046-.1289-.70704.1289-.83203 1.8711-3.60547 2.5664-1.03906 4.4375-2.71094 4.4375-.60156.0625-.08594-.0625-.05468-4.4375-.63672-1.15234-3.75-3.28516-4.05469v-44.76563h88.76563v58.95704l-4.4375.30468-4.4375 2.10938-.96484.76562-3.47657 1.01172h-4.4375l-4.12109 3.42578 1.98828 4.4375 2.13281 2.08594 2.95704 2.35547 1.48046 1.47656 4.44141 1.75781.89453 1.20313 3.54297 3.46484 4.4375.02735 3.24219.94531 1.19531.96094L313.875 396l2.77344-4.4375.09375-4.4375-1.24219-4.4414-2.84375-4.19923-4.4375.0586-4.4375 2.47265-1.6875-2.76953 1.6875-1.73046 4.4375.875 3.96875-3.58204-3.96875-3.17968v-58.95704h26.6289v3.54688l-.6328.89063.6328 2.1328.72657-2.1328-.72656-.89063v-3.54688h13.3164v124.98829l-4.4375 1.37109-2.48047 2.35156-1.95703.70313-4.4414 1.50781-3.33985 2.22656-1.09765.23047-4.4375.4375-4.4375.96485L317.09766 448l-1.44532 1.26172 1.44532 2.25.6875 2.1875 3.75 2.90234 4.4375.61719 4.4375.33984 2.08593.57813 2.35157 2.07031 4.4414 1.6836 4.4375.10156 4.4375.2539 3.94922.32813.48828.48437 4.4414 1.84375 4.4375.46485 3.60548-2.79297.83203-.30469 4.4375-1.3164 3.53515-2.81641.90235-.51953 1.23047.51953 3.21094 2.63281 2.37109-2.63281 1.89062-4.4375-1.18359-4.4375-3.07813-2.85156-2.46484-1.58985-1.97656-2.08984-1.17188-2.34766-3.26562-3.13281-3.3086 3.13281-1.1289.88672-4.4375-.20703-4.4375-.07422-4.4414.01953-.6172-.625-3.8203-3.72265V311.67187h44.3828V415.4336l-2.5078 2.75782 2.5078 2.5078 2.50782-2.5078-2.50781-2.75782V311.67188h13.3164V436.8828l-3.71484 3.5.01562 4.4375-.48828 4.4414-.25.54688-2.92187 3.89063 2.92187 3.16015 4.4375-.11718 3.0625-3.04297.63281-4.4375.55079-4.4414-.96485-4.4375-3.28125-3.5V311.67187h31.0664v81.19921l-4.4375.39454L429.76173 396l.19531 4.4375 2.53516 2.38281v19.14844l-.66406.66016.66406 1.32421.80469-1.32421-.8047-.66016v-19.14844l4.4375-.5 4.44141-1.20703.89844-.67578L444.41797 396l-3.04688-3.08203-4.4414-.04688v-81.19921h13.3164v97.09375l-.59375.55078-3.5078 4.4375 4.10155 3.60546 4.4375-2.64062v14.67578l-1.97265 2.11328 1.97265 2.8711 3.3086-2.8711-3.3086-2.11328v-14.67578l.83594-.96484-.83594-1.01172-3.85156-3.42578-.58594-.55079v-97.09375h17.75v168.65625H144.00391"/></g><path fill="#50fcfc" fill-rule="evenodd" d="M148.4375 415.02344l-.98828-1.26953.98828-1.01563 1.32031-3.42187 3.11719-3.32422 4.4414-.875.28516-.24219.17578-4.4375.65235-4.4375.16797-4.4375 3.15625-3.15234v2.65625l-.4961.49609L160.6172 396l-1.23047 4.4375-.27344 4.4375-1.79687 1.5039-4.44141 1.78126-1.08203 1.15625-2.60938 4.4375L152.875 417l3.88281 1.1914.5586.52735 4.4375 1.91406 3.70703-2.4414.73047-.25 4.0664-4.1875.3711-4.07032 1.4453-.36718-1.4453-2.09766-.09375-2.34375-1.25-4.4375L167.59375 396l-1.40234-2.3789-3.1836-2.0586-1.2539-.4961v-2.65624l4.4375.77343 2.04297 2.37891L170.16797 396l.46094 3.51172.3164.92578 2.41016 4.4375 1.71094 1.76953 4.4414.63672 4.4375-.51563 4.4375.4336 2.95703 2.11719-1.20312 4.4375-1.7539 1.42968-4.23438-1.42968-.20313-.07422-4.4375-.03516-.10937.10938-4.33203 1.90625-4.4375-.03907-2.16407 2.57032-2.27343 2.16015-4.4375 1.58203-4.4375-.71875-3.19532-3.02343-1.24609-.38282-4.4375-2.78515"/><path fill="#00e8fc" fill-rule="evenodd" d="M152.875 417l-3.6914-3.2461 2.60937-4.4375 1.08203-1.15624 4.4414-1.78125 1.79688-1.50391.27344-4.4375L160.61719 396l.64062-4.4375.4961-.4961 1.2539.4961 3.1836 2.0586v5.40234l-3.21875 1.41406-1.21875 3.13281-.125 1.30469-4.3125 3.60547-1.63282.83594-2.80859 1.4453-2.15625 2.9922 2.15625 1.89843 4.4414 1.97657 3.88282.5625.55469.26953.41015-.26953 4.02735-1.37891 2.97265-3.0586-.75-4.4375-.69922-4.4414-.78125-4.4375-.74218-1.41406v-5.40235L167.59375 396l1.6914 4.4375 1.25 4.4375.09376 2.34375 1.4453 2.09766-1.4453.36718-.3711 4.07032-4.0664 4.1875-.73047.25-3.70703 2.4414-4.4375-1.91406-.5586-.52734L152.875 417"/><path fill="#00d4fc" fill-rule="evenodd" d="M152.875 415.65234l-2.15625-1.89843 2.15625-2.9922 2.8086-1.4453 1.6328-.83594 4.3125-3.60547.125-1.30469 1.21876-3.13281 3.21875-1.41406v10.36328l-4.4375.29687-4.4375.10938-4.44141 3.09765-.6211.86329.6211.54687 4.4414 2.67969 4.4375.16015 4.4375-1.45703 1.875-1.92968-1.875-4.3672v-10.36327l.7422 1.41406.78124 4.4375.69922 4.4414.75 4.4375-2.97265 3.0586-4.02735 1.3789-.41015.26954-.5547-.26953-3.8828-.5625-4.44141-1.97657"/><path fill="#00c4fc" fill-rule="evenodd" d="M152.875 414.30078l-.6211-.54687.6211-.86329 4.4414-3.09765v.79297l-3.86718 3.16797 3.86719 2.58203 4.4375-.39844 4.4375-1.3789.78125-.8047-.78125-1.8164-4.4375-.8086-4.4375-.54296v-.79297l4.4375-.10938 4.4375-.29687 1.875 4.36719-1.875 1.92968-4.4375 1.45704-4.4375-.16016-4.44141-2.67969"/><path fill="#00b8fc" fill-rule="evenodd" d="M157.3164 416.33594l-3.86718-2.58203 3.86719-3.16797v.79297l-2.89844 2.375 2.89844 1.93359 4.4375-.94922 3.28125-.98437-3.28125-1.1836-4.4375-1.1914v-.79297l4.4375.54297 4.4375.80859.78125 1.8164-.78125.8047-4.4375 1.3789-4.4375.39844"/><path fill="#00a8fc" fill-rule="evenodd" d="M157.3164 415.6875l-2.89843-1.9336 2.89844-2.375v.79298l-1.9297 1.58203 1.9297 1.28906 4.0664-1.28906-4.0664-1.58204v-.79296l4.4375 1.1914 3.28125 1.1836-3.28125.98437-4.4375.94922"/><path fill="#009800" fill-rule="evenodd" d="M157.3164 415.04297l-1.92968-1.28906 1.92969-1.58204v.79297l-.96485.78907.96485.64062 2.02734-.64062-2.02734-.78907v-.79296l4.0664 1.58203-4.0664 1.28906"/><path fill="#00ac00" fill-rule="evenodd" d="M157.3164 414.39453l-.96484-.64062.96485-.78907 2.02734.78907-2.02734.64062"/><path fill="#50fcfc" fill-rule="evenodd" d="M179.50781 389.77734l-2.70703-2.65234 2.70703-2.57031 4.11719 2.57031-4.11719 2.65234m4.4375-11.76171l-4.28515-4.20704.26562-4.4375 4.01953-3.76953 4.4375-.04297 4.21485 3.8125.22265.08985.48438-.08985 3.95703-3.09375 4.4375-1.17578 1.46094-.16797 2.97656-2.28125 3.48047 2.28125.95703.16407.42578-.16407 4.01563-3.21484 1.0625-1.22656 3.375-4.05469v2.82813l-1.02344 1.22656-3.41406 3.9375-.63282.5039-3.8086 1.47657-4.4375-1.13282-4.4375.58594-4.4375 2.48438-1.30858 1.02343-3.13282.60157-1.4414-.60157-2.9961-2.70703-4.4375.3711-2.48828 2.33593-.97656 4.4375 3.46484 3.40235 1.41016 1.03515 3.02734 3.33985 3.75781 1.09765.6797 1.73829.74609 2.70312-.7461 2.28516-.77734 2.15234.77734 1.28125L193.4922 396l3.76953 3.22656 4.4375.26563 4.4375.61719 2.58594.32812 1.85156.90625 2.9961-.90625 1.4453-.08203.66797.08203 3.76953 3.71094 1.35547.72656 3.08203 4.11328.94922.32813-.94922.23828-1.3164 4.19922 1.3164 1.22656 4.4375 1.30469 4.4375.28515 2.84766-2.8164-2.84766-1.46485-4.02734-2.97265-.41016-2.72657-.6875-1.71484.6875-.14453 4.4375-2.13672 2.33985-2.15625 2.10156-3.07031.88281-1.36719-.8828-.88672-4.44142-2.03906-3.42578-1.51172-1.01172-1.10156-4.4375-2.78516-1.75-.55078-2.6875-3.08203-1.01171-1.35938-3.42578-2.97656-.73047-1.46094-.80078-4.4375.58203-4.4375.94922-3.40625 4.4375.41016 1.98828-1.4414-.9922-4.44141-.99608-1.22656v-2.82813l3.28515 4.05469 1.15234 3.75 4.4375.63672.0625.05468-.0625.08594-4.4375.60156-4.4375 2.71094-2.5664 1.03906-1.8711 3.60547-.1289.83203.1289.70704 2.35938 3.73046 2.07813 1.67579 3.02734-1.67579 1.41016-1.29687 4.4375-1.34375L231 378.24609l-2.67188 2.66797-2.01562 1.76953.125 4.44141 1.89063.9414 3.21484 3.4961 1.22266.53906 4.4414.86719L240.23437 396l-2.53515 4.4375-.49219.51172-4.4414 3.73437-.40235.19141-.4961 4.4414.89845.66407 4.4414 1.55469 2.1836 2.21875-2.05079 4.4375-.1328.16015-4.44142 2.64453-4.4375-1.3789-1.42187-1.42578-3.01563-1.26563-3.39843-3.17187.00781-4.4375-1.04688-1.20313-4.4375.9414-.34765.26173-.53516 4.4375-1.3086 4.4375 2.19142.95312 1.2539 3.48438-1.2539 1.87109-4.44141 2.1875-4.4375-1.01563-2.83984-3.04296-1.59766-1.41797-2.42969-3.01953 2.42969-2.38672 2.42969 2.38672 2.0078 2.21093 4.03907-2.21093-1.05078-4.4375-.66797-4.4375 2.11719-1.66407v12.65625l-3.26563 2.32032 3.26563 2.05859 2.52344-2.0586-2.52344-2.3203v-12.65626l2.44922-2.77734-2.44922-1.08984-4.4375-1.46875-2.03125-1.87891-2.40625-.34375-4.4375.09766-1.01953.24609-3.42188 3.78906-2.59765-3.78906.79297-4.4375-2.20313-4.4375-.42969-.91797-3.89453-3.51953 3.23047-4.4414-3.46094-4.4375-.3125-.23048"/><path fill="#00e8fc" fill-rule="evenodd" d="M183.94531 377.21094l-3.46484-3.40235.97656-4.4375 2.48828-2.33593 4.4375-.3711 2.9961 2.70703 1.4414.60157 3.13281-.60157 1.3086-1.02343 4.4375-2.48438 4.4375-.58594v1.06641l-4.4375.78516-3.17578 2.24218-1.26172.82032-4.4414.6328-3.47657-1.45312-.96094-.87109-4.22265.8711-.21485.0664-2.10156 4.3711 2.10156 2.0625 3.23828 2.375 1.19922 1.3203 4.4375 2.33985 2.10156.77734 2.33985 3.58594.2539.85547-.2539.61328-2.8164 3.82422.92187 4.4375 1.89453 1.6211 4.4375.87109 4.4375.55469 4.4375.53906 4.4414-.01563 4.4375.03516 4.4375-.9375.97657 1.76953 3.46094 1.30078 2.36718-1.30078 2.07031-1.41797L235.06642 396l-2.30078-1.3086-4.4375-.46874-1.89063-2.66016-2.54688-1.91797-4.4375-1.59375-.91796-.92578-3.51953-3.82422-2.27735-.61719-.75-4.4375-.84766-4.4375.34375-4.4375-.91015-.77343-4.4375-2.25391v-1.0664l4.4375 1.1328 3.8086-1.47656.6328-.5039 3.41407-3.9375 1.02344-1.22656.99609 1.22656.99219 4.4414-1.98828 1.44141-4.4375-.41016-.94922 3.40625-.58203 4.4375.80078 4.4375.73047 1.46094 3.42578 2.97656 1.01172 1.35938 2.6875 3.08203 1.75.55078 4.4375 2.78516 1.01171 1.10156 3.42578 1.51172 4.44141 2.03906.88281.88672-.8828 1.36719-2.10157 3.07031-2.33984 2.15625-4.4375 2.13672-.6875.14453.6875 1.71484.41015 2.72657 4.02734 2.97265 2.84766 1.46485-2.84766 2.8164-4.4375-.28515-4.4375-1.3047-1.3164-1.22655 1.3164-4.19922.94922-.23828-.94922-.32813-3.08203-4.11328-1.35547-.72656-3.76953-3.71094-.66797-.08203-1.4453.08203-2.9961.90625-1.85156-.90625-2.58594-.32813-4.4375-.61718-4.4375-.26563L193.49219 396l-.67188-3.15625-.77734-1.28125.77734-2.15234.7461-2.28516-.7461-2.70313-.67969-1.73828-3.7578-1.09765-3.02735-3.33985-1.41016-1.03515"/><path fill="#00d4fc" fill-rule="evenodd" d="M183.94531 375.8711l-2.10156-2.0625 2.10156-4.3711.21485-.0664 4.22265-.8711.96094.8711 3.47656 1.45312 4.4414-.63281 1.26173-.82032 3.17578-2.24218 4.4375-.78516v1.0625l-4.4375.98828-1.38281.97656-3.0547 1.98438-4.4414.32031-4.4375-1.60937-4.4375 2.21484-.73437 1.52734.73437.71875 4.4375 3.23829.42578.48046 4.01172 2.80079 4.42969 1.63671.01172.01563 1.32422 4.42578-1.32422 3.1914-.92188 1.2461.90235 4.4375.01953.01563 4.4375 1.47265 4.4375.49219 4.4375.51172 4.4414.29687 4.4375-1.28515L221.52734 396l2.27344-4.4375-4.34766-1.8789-2.53906-2.5586-1.89844-2.0625-4.4414-1.64453-.55078-.73438.10156-4.4375-.90234-4.4375.19922-4.4375-3.28516-1.96484v-1.0625l4.4375 2.2539.91016.77344-.34375 4.4375.84765 4.4375.75 4.4375 2.27734.6172 3.51954 3.82421.91797.92578 4.4375 1.59375 2.54687 1.91797 1.89063 2.66016 4.4375.46875L235.0664 396l-2.30078 3.01953-2.07032 1.41797-2.36719 1.30078-3.46093-1.30078-.97656-1.76953-4.4375.9375-4.4375-.03516-4.44141.01563-4.4375-.53906-4.4375-.5547-4.4375-.87109L195.36719 396l-.92188-4.4375 2.8164-3.82422.25392-.61328-.25391-.85547-2.33984-3.58594-2.10157-.77734-4.4375-2.33984-1.19922-1.32032-3.23828-2.375"/><path fill="#00c4fc" fill-rule="evenodd" d="M183.94531 374.52734l-.73437-.71875.73437-1.52734 4.4375-2.21484 4.4375 1.60937 4.4414-.32031 3.0547-1.98438 1.3828-.97656 4.4375-.98828v1.0664l-3.48827.89844-.94922.7461-4.4375 2.40234-4.4414.00781-4.4375-1.14062-3.53907 2.42187 3.53906 2.5586 1.66016 1.8789 2.77734 1.9375 4.4414 1.5586.69532.9414 1.69531 4.44141-1.64453 4.4375L200.23828 396l1.46094.48828 4.4375.42969 4.4375.48047 4.4414.60937L219.01173 396l.4414-2.91797.5586-1.51953-.5586-.24219-4.16015-4.19531-.27734-.30469-4.44141-2.30078-1.375-1.83594-.23828-4.4375-1.52344-4.4375.20313-4.4375-1.50391-.89843v-1.06641l3.28516 1.96484-.19922 4.4375.90234 4.4375-.10156 4.4375.55078.73438 4.4414 1.64453 1.89844 2.0625 2.53906 2.5586 4.34766 1.8789L221.52734 396l-2.07422 1.5039-4.4375 1.28516-4.4414-.29687-4.4375-.51172-4.4375-.49219-4.4375-1.47265-.01953-.01563-.90235-4.4375.92188-1.2461 1.32422-3.1914-1.32422-4.42578-.01172-.01563-4.42969-1.63671-4.01172-2.80079-.42578-.48046-4.4375-3.23829"/><path fill="#00b8fc" fill-rule="evenodd" d="M188.38281 376.36719l-3.53906-2.5586 3.53906-2.42187v1.32422l-1.60547 1.09765 1.60547 1.16016 2.89844 3.27734 1.53906 1.07813 4.4414 1.47656 1.39454 1.88281 2.0625 4.44141-1.26172 4.4375 2.24219 3.33203 4.4375.89063 1.45312.21484 2.98438.30469 4.4414.91797L217.45313 396l-2.4375-2.53906-2.16796-1.89844.48828-4.4375-2.76172-1.5039-2.19922-2.9375-.58203-4.4375-1.65625-3.72657-3.01172-.71094-1.42578-.42187-4.4375.29687-4.4414-.30859-4.4375-.66406v-1.32422l4.4375 1.14062 4.4414-.0078 4.4375-2.40235.94922-.7461 3.48828-.89843 1.5039.89843-.20312 4.4375 1.52344 4.4375.23828 4.4375 1.375 1.83594 4.4414 2.30078v2.52735l-.3164 2.21484.3164.27734 2.38282-.27734-2.38281-2.21484v-2.52735l.27734.30469 4.16016 4.19531.55859.24219-.5586 1.51953-.4414 2.91797-3.9961 2.00781-4.4414-.60937-4.4375-.48047-4.4375-.42969L200.23828 396l-2.23047-4.4375 1.64453-4.4375-1.6953-4.4414-.69532-.94141-4.4414-1.5586-2.77735-1.9375-1.66016-1.8789"/><path fill="#00a8fc" fill-rule="evenodd" d="M188.38281 374.96875l-1.60547-1.16016 1.60547-1.09765 4.4375.66406 4.4414.3086 4.4375-.29688v1.53125l-4.4375.42187-4.4414 1.41797-.30469 1.48828.3047.21485 4.4414 1.39453 2.09375 2.82812 2.34375 4.33204.11328.10937-.11328.58594-.79688 3.85156.79688 1.17969 4.4375 1.47265 4.4375-1.57812L213.0664 396l1.94922.4414.875-.4414-.875-.91406L211 391.5625l.3125-4.4375-.73828-.40234-3.02734-4.03907-.91797-4.4375-.4922-1.10546-4.4375-2.22266v-1.53125l1.42579.42187 3.01172.71094 1.65625 3.72656.58203 4.4375 2.19922 2.9375 2.76172 1.50391-.48828 4.4375 2.16797 1.89844L217.45313 396l-2.4375 1.22266-4.44141-.91797L207.58984 396l-1.45312-.21484-4.4375-.89063-2.24219-3.33203 1.26172-4.4375-2.0625-4.4414-1.39453-1.88282-4.4414-1.47656-1.53907-1.07813-2.89844-3.27734"/><path fill="#009800" fill-rule="evenodd" d="M192.82031 378.46094l-.30469-.21485.3047-1.48828 4.4414-1.41797 4.4375-.42187v1.27344l-4.4375.85546-2.14453 1.19922 2.14453.66407 2.79297 3.77343 1.64453 3.03907 1.49219 1.40234.26172 4.4375 2.68359 1.08203 2.09766-1.08203 1.32421-4.4375-2.83593-4.4414-.58594-2.44532-1.17188-1.99219-3.26562-2.05468v-1.27344l4.4375 2.22265.49219 1.10547.91797 4.4375 3.02734 4.03907.73828.40234-.3125 4.4375 4.01563 3.52344.875.91406-.875.4414L213.0664 396l-2.4922-3.36328-4.4375 1.57812-4.4375-1.47265-.79687-1.17969.79688-3.85156.11328-.58594-.11328-.10938-2.34375-4.33203-2.09375-2.82812-4.4414-1.39453"/><path fill="#50fcfc" fill-rule="evenodd" d="M197.26172 413.21484l-3.92969-3.89843 3.92969-3.29297v1.72265l-1.875 1.57032 1.875 1.85937 1.63281-1.85937-1.63281-1.57032v-1.72265l3.42578 3.29297-3.42578 3.89843"/><path fill="#00ac00" fill-rule="evenodd" d="M197.26172 378.91016l-2.14453-.66407 2.14453-1.19921 4.4375-.85547v1.27343l-2.98438.78125 2.03907 4.4375.9453 1.7461 2.875 2.69531 1.5625 3.48047 1.81642-3.48047-1.81641-3.53906-.78516-.90235-2.41015-4.4375-1.2422-.78125v-1.27343l3.26563 2.05468 1.17188 1.9922.58594 2.4453 2.83593 4.44141-1.32422 4.4375-2.09765 1.08203-2.6836-1.08203-.26171-4.4375-1.4922-1.40234-1.64452-3.03907-2.79297-3.77343"/><path fill="#00e8fc" fill-rule="evenodd" d="M197.26172 411.17578l-1.875-1.85937 1.875-1.57032 1.63281 1.57032-1.63281 1.85937"/><path fill="#00c800" fill-rule="evenodd" d="M200.7539 382.6836l-2.03906-4.4375 2.98438-.78126 1.24219.78125 2.41015 4.4375.78516.90235 1.8164 3.53906-1.8164 3.48047-1.5625-3.48047-2.875-2.69531-.94531-1.7461"/><path fill="#00e8fc" fill-rule="evenodd" d="M210.57422 424.6875l-3.26563-2.0586 3.26563-2.3203 2.52344 2.3203-2.52344 2.0586"/><path fill="#00c4fc" fill-rule="evenodd" d="M215.01563 389.34766l-.31641 2.21484.3164.27734 2.38282-.27734-2.38281-2.21484"/><path fill="#50fcfc" fill-rule="evenodd" d="M288.33203 382.6836l-1.98828-4.4375 4.1211-3.42579h4.4375v2.89844l-2.85157.52734-.15234 4.4375 3.0039 2.5 2.3125 1.94141 2.12891 1.23047 2.38672 3.20703 2.05078 2.0039 4.4375-.42968 3.79688-1.57422.64062-.21875 2.97656-4.21875-2.70312-4.4414-.27344-.40235-4.4375-2.80078-3.72266 3.20312-.71484.6836-4.16797-.6836-.26953-1.6289-1.28516-2.8086-3.15625-.52734v-2.89844l3.47657-1.01172.96484-.76562 4.4375-2.10938 4.4375-.30468v2.40625l-3.30078.77343 3.30078.8711.96484-.8711-.96484-.77343v-2.40625l3.96875 3.17968-3.96875 3.58204-4.4375-.875-1.6875 1.73046 1.6875 2.76954 4.4375-2.47266 4.4375-.0586L315.5 382.6836l1.24219 4.44141-.09375 4.4375L313.875 396l-1.21875.96094L311.46094 396l-3.24219-.94531-4.4375-.02735-3.54297-3.46484-.89453-1.20313-4.4414-1.7578-1.48048-1.47657-2.95703-2.35547-2.1328-2.08594"/><path fill="#00e8fc" fill-rule="evenodd" d="M294.90234 385.1836l-3.0039-2.5.15234-4.4375 2.85156-.52735 3.15625.52734 1.28516 2.8086.26953 1.6289 4.16797.6836.71484-.6836 3.72266-3.20312v1.5586l-1.91016 1.64452-2.52734 2.41016-2.88672 2.03125 2.88672 3.85547 4.4375.21875 4.4375-2.47656 1.1289-1.59766-1.1289-1.7539-2.08594-2.6875-2.35156-1.64454v-1.5586l4.4375 2.80079.27344.40234 2.70312 4.44141-2.97656 4.21875-.64063.21875-3.79687 1.57422-4.4375.42969-2.05078-2.00391-2.38672-3.20703-2.1289-1.23047-2.3125-1.9414"/><path fill="#00d4fc" fill-rule="evenodd" d="M303.78125 390.98047l-2.88672-3.85547 2.88672-2.03125 2.52734-2.41016 1.91016-1.64453v1.5586l-.09766.08593-4.33984 4.14063-.42578.30078.42578.57031 4.4375 2.79688 4.10156-3.36719-3.98047-4.4414-.12109-.08594v-1.5586l2.35156 1.64453 2.08594 2.6875 1.1289 1.75391-1.1289 1.59766-4.4375 2.47656-4.4375-.21875"/><path fill="#00c4fc" fill-rule="evenodd" d="M303.78125 387.69531l-.42578-.57031.42578-.30078 4.33984-4.14063.09766-.08593v.98437l-3.63281 3.54297 3.63281 2.65625 3.23438-2.65625-3.23438-3.54297v-.98437l.1211.08593 3.98046 4.44141-4.10156 3.36719-4.4375-2.79688"/><path fill="#00b8fc" fill-rule="evenodd" d="M308.21875 389.78125l-3.63281-2.65625 3.63281-3.54297v.94531l-2.66016 2.59766 2.66016 1.94531 2.3711-1.94531-2.3711-2.59766v-.9453l3.23438 3.54296-3.23438 2.65625"/><path fill="#00e8fc" fill-rule="evenodd" d="M308.21875 374.67969l-3.30078-.8711 3.30078-.77343.96484.77343-.96484.8711"/><path fill="#00a8fc" fill-rule="evenodd" d="M308.21875 389.07031l-2.66016-1.94531 2.66016-2.59766v.94922l-1.6914 1.64844 1.6914 1.23438 1.5039-1.23438-1.5039-1.64844v-.94922l2.3711 2.59766-2.3711 1.94531"/><path fill="#009800" fill-rule="evenodd" d="M308.21875 388.35938l-1.6914-1.23438 1.6914-1.64844v.94531l-.71875.70313.71875.52344.64063-.52344-.64063-.70313v-.9453l1.5039 1.64843-1.5039 1.23438"/><path fill="#00ac00" fill-rule="evenodd" d="M308.21875 387.64844L307.5 387.125l.71875-.70313.64063.70313-.64063.52344"/><path fill="#50fcfc" fill-rule="evenodd" d="M317.09766 451.51172l-1.44532-2.25L317.09766 448l4.4375-1.54688 4.4375-.96484 4.4375-.4375 1.09765-.23047 3.33985-2.22656 4.4414-1.50781 1.95703-.70313 2.48047-2.35156 4.4375-1.3711V437.75l-3.97265 2.63281-.46485.625-4.4375 1.32422-3.72265 2.48828-.71875.19531-4.4375 1.16407-4.4375.64453-4.26954 2.4375-.16796 1.84765-.34766 2.58985.34766.26953 4.4375 1.71484 4.4375.75782 4.4375 1.48437.60937.21094 3.83203 2.72265 4.4375.25391 4.4375.625 4.4375.30469 4.4414.29297 3.96876.23828.46875.09375.11719-.09375 4.3203-1.59375 4.4375-2.4961.4375-.34765 4-2.30078 4.44142 1.29297 1.89062-3.4297-1.61328-4.4375-.27735-.26171-.27343.26172-4.16797 2.48437-3.1289-2.48437-1.3086-4.34375-.05469-.09766.05469-.11328 1.14453-4.32422-1.14453-1.09765-1.16016 1.09765-3.27734 2.57813-4.4375-.8789-4.4375.1328-4.4414-.07812-1.73438-1.7539-2.70313-2.63282v-1.08984l3.82031 3.72265.6172.625 4.4414-.01953 4.4375.07422 4.4375.20703 1.1289-.88672 3.3086-3.13281 3.26562 3.13281 1.17188 2.34766v4.22656l-1.08203 2.30469 1.08203.85937 1.4414-.85937-1.4414-2.30469v-4.22656l1.97656 2.08984 2.46485 1.58985 3.07812 2.85156 1.1836 4.4375-1.89063 4.4375-2.3711 2.63281-3.21093-2.63281-1.23047-.51953-.90235.51953-3.53515 2.8164-4.4375 1.31641-.83203.30469-3.60547 2.79297-4.4375-.46485-4.4414-1.84375-.48829-.48437-3.94922-.32813-4.4375-.2539-4.4375-.10156-4.4414-1.6836-2.35157-2.07031-2.08593-.57813-4.4375-.33984-4.4375-.61719-3.75-2.90234-.6875-2.1875"/><path fill="#00e8fc" fill-rule="evenodd" d="M321.53516 453.96875l-.34766-.26953.34766-2.58985.16796-1.84765 4.26954-2.4375 4.4375-.64453 4.4375-1.16406.71875-.19532 3.72265-2.48828 4.4375-1.32422.46485-.625 3.97265-2.63281v1.82031l-1.22656.8125-3.21094 4.28906-4.4375-.26171-.6211.41015-3.8203 1.02735-4.4375 2.21875-4.4375.98828-.36329.20703.36329 1.30469 1.43359 3.1328 3.0039.8711 4.4375 2.51172 3.02735 1.05469 1.41406 1.0039 4.4375.50782 4.4375 1.23828 4.4375.19531 4.4414-.1289 4.4375-.53516 4.4375-1.58203 1.16407-.69922 3.27344-4.33594.32031-.10156-.32031-.15235L365.91797 452l-4.42578-2.73828 2.85156-4.4414-2.86328-1.04298-4.4375.48047-4.4414-.24219L349 440.38283l-.83594-.8125V437.75l2.70313 2.63281 1.73437 1.7539 4.4414.07813 4.4375-.1328 4.4375.8789 3.27735-2.57813 1.16016-1.09765L371.5 440.3828l-1.14453 4.32422-.05469.11328.05469.09766 1.3086 4.34375 3.1289 2.48437 4.16797-2.48437.27344-.26172.27734.26172 1.61328 4.4375-1.89063 3.42969-4.4414-1.29297-4 2.30078-.4375.34765-4.4375 2.4961-4.32031 1.59375-.1172.09375-.46874-.09375-3.96875-.23828-4.4414-.29297-4.4375-.30469-4.4375-.625-4.4375-.2539-3.83204-2.72266-.60937-.21094-4.4375-1.48437-4.4375-.75782-4.4375-1.71484"/><path fill="#00d4fc" fill-rule="evenodd" d="M325.97266 450.5664l-.36329-1.30468.36329-.20703 4.4375-.98828 4.4375-2.21875 3.8203-1.02735.6211-.41015 4.4375.26171v.46094l-4.4375.0586-4.4414 1.49218-3.96485 2.57813.1914 4.4375 3.77345 2.54297 4.4414 1.80469 4.13672.08984.30078.04297 4.4375 1.85937 4.4375.08203 4.4414-.55468 4.4375-1.34766.23048-.08203-.23047-.64453-1.39063-3.79297-3.04687-1.38281-4.4414-2.97266-.07423-.08203-4.36328-2.98438-4.4375-1.14453v-.46094l3.21094-4.28906 1.22656-.8125v4.11719l-3.51172 1.13281 3.51172.19531 1.17188-.1953-1.17188-1.13282v-4.11719l.83594.8125 3.60156 3.63281 4.4414.2422v4.28906l-.23437.71484.23438.15234 4.27734-.15234-4.27734-.71485v-4.28906l4.4375-.48047 2.86328 1.04297-2.85156 4.4414L365.91797 452l4.4375 1.54688.32031.15234-.32031.10156-3.27344 4.33594-1.16406.69922-4.4375 1.58203-4.4375.53515-4.4414.12891-4.4375-.19531-4.4375-1.23828-4.4375-.50781-1.41407-1.00391-3.02734-1.05469-4.4375-2.51172-3.00391-.8711-1.4336-3.1328"/><path fill="#00c4fc" fill-rule="evenodd" d="M331.07422 453.69922l-.1914-4.4375 3.96484-2.57813 4.4414-1.49218 4.4375-.0586v.32422l-4.4375.1914-4.4414 1.8672-2.6836 1.74609.16016 4.4375 2.52344 1.70312 4.4414 2.42188 4.4375.20703 1.94922.10547 2.48828 1.05078 4.4375-.02734 4.4414-.97657.15235-.04687-.15234-.27344-1.40625-4.16406-3.03516-2.3125-1.91797-2.125-2.51953-1.72656-4.4375-2.07813v-.32422l4.4375 1.14453 4.36328 2.98438.07422.08203 4.4414 2.97266 3.04688 1.3828 1.39063 3.79298.23047.64453-.23047.08203-4.4375 1.34766-4.4414.55468-4.4375-.08203-4.4375-1.85937-.30079-.04297-4.13672-.08985-4.4414-1.80468-3.77344-2.54297"/><path fill="#00b8fc" fill-rule="evenodd" d="M332.32422 453.69922l-.16016-4.4375 2.6836-1.7461 4.4414-1.86718 4.4375-.1914v.32421l-4.4375.32813-4.4414 2.24218-1.39844.91016.125 4.4375 1.27344.85937 4.4414 3.04688 4.4375.3164 3.96094.21485.47656.20312 4.4375-.14453.26953-.0586.08594-4.4375-.35547-.26952-3.75781-4.16797-.67969-.46485-4.4375-3.01562v-.32422l4.4375 2.07813 2.51953 1.72656 1.91797 2.125 3.03516 2.3125 1.40625 4.16406.15234.27344-.15234.04687-4.4414.97657-4.4375.02734-2.48829-1.05078-1.94922-.10547-4.4375-.20703-4.4414-2.42188-2.52344-1.70312"/><path fill="#00a8fc" fill-rule="evenodd" d="M333.57422 453.69922l-.125-4.4375 1.39844-.91016 4.4414-2.24219 4.4375-.32812v.32422l-4.4375.46094-4.4414 2.61718-.1172.07813.08985 4.4375.02735.01953 4.4414 3.66406 4.4375.42969 4.4375-.46875 3.55469-3.64453-3.55469-3.75781-.26953-.6797-4.16797-3.15624v-.32422l4.4375 3.01563.67969.46484 3.75781 4.16797.35547.26953-.08594 4.4375-.26953.0586-4.4375.14452-.47656-.20312-3.96094-.21485-4.4375-.3164-4.4414-3.04688-1.27344-.85937"/><path fill="#50fcfc" fill-rule="evenodd" d="M334.84766 318.24219l-.63282-2.13281.63282-.89063.72656.89063-.72656 2.1328"/><path fill="#009800" fill-rule="evenodd" d="M334.82031 453.69922l-.08984-4.4375.11719-.07813 4.4414-2.61718 4.4375-.46094v.32422l-4.4375.59765-3.74219 2.23438-.4375 4.4375 4.1797 3.46484 4.4375.53906 4.4375-1.40625 2.53906-2.59765-2.53907-2.6836-.69922-1.7539-3.73828-2.83203v-.32422l4.16797 3.15625.26953.67969 3.55469 3.7578-3.55469 3.64454-4.4375.46875-4.4375-.42969-4.4414-3.66406-.02735-.01953"/><path fill="#00ac00" fill-rule="evenodd" d="M339.28906 457.16406l-4.17969-3.46484.4375-4.4375 3.7422-2.23438 4.4375-.59765v.32422l-4.4375.73046-2.97266 1.77735-.94141 4.4375 3.91406 3.24219 4.4375.65234 4.4375-2.33984 1.51953-1.5547-1.51953-1.60546-1.1289-2.83203-3.3086-2.50781v-.32422l3.73828 2.83203.69922 1.7539 2.53906 2.6836-2.53906 2.59765-4.4375 1.40625-4.4375-.53906"/><path fill="#00c800" fill-rule="evenodd" d="M339.28906 456.9414l-3.91406-3.24218.9414-4.4375 2.97266-1.77735 4.4375-.73046v.64843l-4.4375 1.00391-1.4336.85547-1.94921 4.4375 3.38281 2.80469 4.4375.87109 4.3711-3.67578-1.91797-4.4375-2.45313-1.85938v-.64843l3.3086 2.5078 1.1289 2.83204 1.51953 1.60547-1.51953 1.55469-4.4375 2.33984-4.4375-.65234"/><path fill="#10cc00" fill-rule="evenodd" d="M339.28906 456.5039l-3.38281-2.80468 1.94922-4.4375 1.4336-.85547 4.4375-1.0039v.64843l-4.28126 1.21094-.15625.05469-2.85156 4.3828 2.85156 2.36329 4.4375 1.09766 4.11328-3.46094-2.51562-4.4375-1.59766-1.21094v-.64844l2.45313 1.85938 1.91797 4.4375-4.3711 3.67578-4.4375-.8711"/><path fill="#24d000" fill-rule="evenodd" d="M339.28906 456.0625l-2.85156-2.36328 2.85156-4.38281.15625-.0547 4.28125-1.21093v.64844l-1.98437.5625-2.45313.8711-2.32031 3.5664 2.32031 1.92187 4.4375 1.32032 3.85156-3.2422-3.10937-4.4375-.74219-.5625v-.64843l1.59766 1.21094 2.51562 4.4375-4.11328 3.46094-4.4375-1.09766"/><path fill="#3cd800" fill-rule="evenodd" d="M339.28906 455.6211l-2.32031-1.92188 2.32031-3.5664 2.45313-.8711 1.98437-.5625v.60547l-4.4375 1.64844-1.78515 2.74609 1.78515 1.48047 4.4375 1.54297 3.59375-3.02344-3.59375-4.39453v-.60547l.74219.5625 3.10938 4.4375-3.85157 3.24219-4.4375-1.32032"/><path fill="#54dc00" fill-rule="evenodd" d="M339.28906 455.17969l-1.78515-1.48047 1.78515-2.7461 4.4375-1.64843v.3164l-4.4375 2.14844-1.2539 1.92969 1.2539 1.03906 4.4375 1.76563 3.33594-2.8047-3.33594-4.07812v-.3164l3.59375 4.39453-3.59375 3.02344-4.4375-1.54297"/><path fill="#e8e05c" fill-rule="evenodd" d="M339.28906 454.73828l-1.2539-1.03906 1.2539-1.92969 4.4375-2.14844v.31641l-4.4375 2.65234-.72265 1.10938.72265.59765 4.4375 1.98829 3.07422-2.58594-3.07422-3.76172v-.3164l3.33594 4.07812-3.33594 2.80469-4.4375-1.76563"/><path fill="#e8d450" fill-rule="evenodd" d="M339.28906 454.29688l-.72265-.59766.72265-1.10938 4.4375-2.65234v.63281l-4.16797 3.1289 4.16797 2.14845 2.55469-2.14844-2.55469-3.1289v-.63282l3.07422 3.76172-3.07422 2.58594-4.4375-1.98829"/><path fill="#e8b830" fill-rule="evenodd" d="M343.72656 455.84766l-4.16797-2.14844 4.16797-3.1289v.63671l-3.32031 2.49219 3.32031 1.71484 2.03906-1.71484-2.03906-2.49219v-.63672l2.55469 3.1289-2.55469 2.14845"/><path fill="#e8a824" fill-rule="evenodd" d="M343.72656 455.41406l-3.32031-1.71484 3.32031-2.49219v.63281l-2.47656 1.85938 2.47656 1.27734 1.51953-1.27734-1.51953-1.85938v-.6328l2.03906 2.49218-2.03906 1.71484"/><path fill="#d87c08" fill-rule="evenodd" d="M343.72656 454.97656l-2.47656-1.27734 2.47656-1.85938v.63672l-1.6289 1.22266 1.6289.83984 1-.83984-1-1.22266v-.63672l1.51953 1.85938-1.51953 1.27734"/><path fill="#fc4444" fill-rule="evenodd" d="M343.72656 454.53906l-1.6289-.83984 1.6289-1.22266v.63281l-.78515.58985.78515.40625.48047-.40625-.48047-.58985v-.6328l1 1.22265-1 .83984"/><path fill="#fc3434" fill-rule="evenodd" d="M343.72656 454.10547l-.78515-.40625.78515-.58985.48047.58985-.48047.40625"/><path fill="#00e8fc" fill-rule="evenodd" d="M348.16406 443.6875l-3.51172 1.13281 3.51172.19531 1.17188-.1953-1.17188-1.13282m8.8789 4.85938l-.23437.71484.23438.15234 4.27734-.15234-4.27734-.71485"/><path fill="#fff" fill-opacity="0" fill-rule="evenodd" d="M374.79297 446.95703l-1.08203 2.30469 1.08203.85937 1.4414-.85937-1.4414-2.30469"/><path fill="#50fcfc" fill-rule="evenodd" d="M392.54688 420.69922l-2.50782-2.50781 2.50781-2.75782 2.50782 2.75782-2.50781 2.5078m8.8789 36.16017l-2.92187-3.16016 2.92187-3.89063.25-.54687.48828-4.4414-.01562-4.4375 3.71484-3.5v1.96484l-1.6289 1.53515-.85547 4.4375-.3125 4.4414-1.64063 3.58985-.63672.84766.63672.6875 4.4375.26172.95703-.94922 1.50781-4.4375.38672-4.4414-1.41015-4.4375-1.4414-1.53516v-1.96485l3.28124 3.5.96485 4.4375-.55079 4.4414-.6328 4.4375-3.0625 3.04298-4.4375.11719"/><path fill="#00e8fc" fill-rule="evenodd" d="M401.42578 454.38672l-.63672-.6875.63672-.84766 1.64063-3.58984.3125-4.4414.85546-4.4375 1.62891-1.53516v4.65625l-.45703 1.3164-.01563 4.4414.47266.96876.41797-.96875.10547-4.4414-.52344-1.31641v-4.65625l1.4414 1.53515 1.41016 4.4375-.38671 4.4414-1.50782 4.4375-.95703.94923-4.4375-.26172"/><path fill="#00d4fc" fill-rule="evenodd" d="M405.86328 450.23047l-.47265-.96875.01562-4.4414.45703-1.31641.52344 1.3164-.10547 4.4414-.41797.96876"/><path fill="#50fcfc" fill-rule="evenodd" d="M429.95703 400.4375L429.76172 396l2.73047-2.73438 4.4375-.39453v1.96485l-4.4375.98828-.17188.17578.17188 1.02344 4.4375 1.36719 4.4414-.8711.95704-1.51953-.95704-.96875-4.4414-.19531v-1.96485l4.4414.04688L444.41797 396l-2.14844 4.4375-.89844.67578-4.4414 1.20703-4.4375.5-2.53516-2.38281m2.53516 23.51563l-.66406-1.32422.66406-.66016.80469.66016-.8047 1.32421"/><path fill="#00e8fc" fill-rule="evenodd" d="M432.49219 397.02344L432.3203 396l.17188-.17578 4.4375-.98828 4.4414.19531.95704.96875-.95704 1.51953-4.4414.8711-4.4375-1.3672"/><path fill="#50fcfc" fill-rule="evenodd" d="M450.2461 417.35938l-4.10157-3.60547 3.50781-4.4375.59375-.55079v3.01954l-1.73828 1.96875 1.73828 1.52734 2.0625-1.52734-2.0625-1.96875v-3.01954l.58594.55079 3.85156 3.42578.83594 1.01172-.83594.96484-4.4375 2.64063"/><path fill="#00e8fc" fill-rule="evenodd" d="M450.2461 415.28125l-1.73829-1.52734 1.73828-1.96875 2.0625 1.96875-2.0625 1.52734"/><path fill="#50fcfc" fill-rule="evenodd" d="M454.6836 434.3789l-1.97266-2.87109 1.97265-2.11328 3.3086 2.11328-3.3086 2.8711"/><g clip-path="url(#c)"><path fill="#fff" fill-opacity="0" fill-rule="evenodd" d="M467.9961 480.32813H468V311.67188h-.0039H468v168.65625h-.0039"/></g><path fill="#fff" fill-opacity="0" fill-rule="evenodd" d="M376.19531 448.9414l3.01563 5.00391 8.53125-5.14453-3.01563-5-8.53125 5.14063"/><path fill-rule="evenodd" d="M384.96484 447.74219l.26172.4375-5.39062 3.25-.40625-.67578 3.84375-2.31641-.71485-1.1914.47657-.28516.34375.44531.17578.1875.19531.15234.22656.10157.26953.03906.32422-.03125.39453-.11328"/><path fill="#fff" fill-opacity="0" fill-rule="evenodd" d="M204.5664 368.39453L210 370.53516l3.65234-9.26563-5.4375-2.14453-3.64843 9.26953"/><path fill-rule="evenodd" d="M210.80078 362.11328l.47266.1875-2.3086 5.85547-.73047-.28516 1.64454-4.17968-1.28907-.50782.20313-.51562.54297.14453.2539.04297h.2461l.24219-.0586.23828-.1328.24218-.21876.2422-.33203"/><path fill="#fff" fill-opacity="0" fill-rule="evenodd" d="M229.95703 426.4375l5.80078-.6836-1.17187-9.89452-5.80078.6875 1.17187 9.89062"/><path fill-rule="evenodd" d="M232.47656 417.95703l.50781-.0625.73829 6.2539-.78125.08985-.52735-4.45703-1.3789.16406-.06641-.55078.54688-.13281.24609-.08203.21875-.11719.1836-.16406.14843-.22656.10547-.3125.0586-.40235"/><path fill="#fff" fill-opacity="0" fill-rule="evenodd" d="M229.0625 393.10938l1.58594 7.76562 9.98437-2.03906-1.58203-7.76172-9.98828 2.03515"/><path fill-rule="evenodd" d="M237.75 393.8711l.65625 3.21874-.72656.14844-.52735-2.58594-1.8125.13672.20313.1875.1836.23828.15234.30079.10937.36718.03906.32422-.01562.34766-.07813.35547-.14843.34765-.23047.32813-.14844.14844-.16797.13671-.19531.1211-.22266.10937-.2461.08594-.27343.07031-.4414.05469-.4336-.01563-.41016-.09375-.3789-.16796-.33984-.2422-.14844-.15233-.13672-.17188-.11719-.1914-.10547-.21094-.08203-.23438-.0664-.25-.0586-.46875.02344-.41015.08984-.35938.15625-.3125.21094-.26953.25781-.22656.30078-.19141.32813-.15625.15625.76953-.21094.125-.1836.14453-.15234.15625-.12109.17188-.08984.1914-.05078.20313-.01172.21484.02734.23047.08594.30469.1289.26172.16407.21484.20312.17188.2461.11718.28125.06641.3203.01172.35548-.04688.2539-.0703.24219-.11329.22266-.14844.1953-.1914.15235-.22657.10156-.26562.03907-.30078-.03516-.33985-.10156-.32421-.16406-.25391-.23828-.23047-.32422-.25-.14063-.67969 3.44922-.23047"/><g clip-path="url(#d)"><path fill="none" stroke="#000" stroke-linecap="round" stroke-linejoin="round" stroke-miterlimit="10" stroke-width=".5" d="M146.4961 482.80078l-4.9922-4.94531"/></g><g clip-path="url(#e)"><path fill="none" stroke="#000" stroke-linecap="round" stroke-linejoin="round" stroke-miterlimit="10" stroke-width=".5" d="M159.64063 482.96094l-4.65235-5.26563"/></g><g clip-path="url(#f)"><path fill="none" stroke="#000" stroke-linecap="round" stroke-linejoin="round" stroke-miterlimit="10" stroke-width=".5" d="M173.5664 482.2539l-5.875-3.85156"/></g><g clip-path="url(#g)"><path fill="none" stroke="#000" stroke-linecap="round" stroke-linejoin="round" stroke-miterlimit="10" stroke-width=".5" d="M187.3086 481.34375l-6.72657-2.02734"/></g><g clip-path="url(#h)"><path fill="none" stroke="#000" stroke-linecap="round" stroke-linejoin="round" stroke-miterlimit="10" stroke-width=".5" d="M200.45703 481.78906l-6.39453-2.91797"/></g><g clip-path="url(#i)"><path fill="none" stroke="#000" stroke-linecap="round" stroke-linejoin="round" stroke-miterlimit="10" stroke-width=".5" d="M213.63672 482.05078l-6.125-3.4414"/></g><g clip-path="url(#j)"><path fill="none" stroke="#000" stroke-linecap="round" stroke-linejoin="round" stroke-miterlimit="10" stroke-width=".5" d="M226.75781 482.35938l-5.73437-4.0586"/></g><g clip-path="url(#k)"><path fill="none" stroke="#000" stroke-linecap="round" stroke-linejoin="round" stroke-miterlimit="10" stroke-width=".5" d="M240.1211 482.28906l-5.83204-3.91797"/></g><g clip-path="url(#l)"><path fill="none" stroke="#000" stroke-linecap="round" stroke-linejoin="round" stroke-miterlimit="10" stroke-width=".5" d="M253.32422 482.44531l-5.60547-4.23437"/></g><g clip-path="url(#m)"><path fill="none" stroke="#000" stroke-linecap="round" stroke-linejoin="round" stroke-miterlimit="10" stroke-width=".5" d="M266.11719 483.0039l-4.5625-5.34765"/></g><g clip-path="url(#n)"><path fill="none" stroke="#000" stroke-linecap="round" stroke-linejoin="round" stroke-miterlimit="10" stroke-width=".5" d="M279.24219 483.15234l-4.1836-5.64843"/></g><g clip-path="url(#o)"><path fill="none" stroke="#000" stroke-linecap="round" stroke-linejoin="round" stroke-miterlimit="10" stroke-width=".5" d="M293.23047 482.4961l-5.53125-4.33204"/></g><g clip-path="url(#p)"><path fill="none" stroke="#000" stroke-linecap="round" stroke-linejoin="round" stroke-miterlimit="10" stroke-width=".5" d="M307.01172 481.71094l-6.46094-2.76563"/></g><g clip-path="url(#q)"><path fill="none" stroke="#000" stroke-linecap="round" stroke-linejoin="round" stroke-miterlimit="10" stroke-width=".5" d="M320.34375 481.67188l-6.4961-2.6875"/></g><g clip-path="url(#r)"><path fill="none" stroke="#000" stroke-linecap="round" stroke-linejoin="round" stroke-miterlimit="10" stroke-width=".5" d="M333.40234 482.17188l-5.98437-3.6875"/></g><g clip-path="url(#s)"><path fill="none" stroke="#000" stroke-linecap="round" stroke-linejoin="round" stroke-miterlimit="10" stroke-width=".5" d="M346.35156 482.66016l-5.2539-4.66407"/></g><g clip-path="url(#t)"><path fill="none" stroke="#000" stroke-linecap="round" stroke-linejoin="round" stroke-miterlimit="10" stroke-width=".5" d="M359.86719 482.41797l-5.65235-4.17969"/></g><g clip-path="url(#u)"><path fill="none" stroke="#000" stroke-linecap="round" stroke-linejoin="round" stroke-miterlimit="10" stroke-width=".5" d="M373.73047 481.3086l-6.75-1.96094"/></g><g clip-path="url(#v)"><path fill="none" stroke="#000" stroke-linecap="round" stroke-linejoin="round" stroke-miterlimit="10" stroke-width=".5" d="M372.75 481.02344l.25 1.20312"/></g><g clip-path="url(#w)"><path fill="none" stroke="#000" stroke-linecap="round" stroke-linejoin="round" stroke-miterlimit="10" stroke-width=".5" d="M387.17578 480.5625l-7.01172-.46875"/></g><g clip-path="url(#x)"><path fill="none" stroke="#000" stroke-linecap="round" stroke-linejoin="round" stroke-miterlimit="10" stroke-width=".5" d="M386.15625 480.4961l.5039 1.11718"/></g><g clip-path="url(#y)"><path fill="none" stroke="#000" stroke-linecap="round" stroke-linejoin="round" stroke-miterlimit="10" stroke-width=".5" d="M395.96094 483.6914l2.05078-6.72265"/></g><g clip-path="url(#z)"><path fill="none" stroke="#000" stroke-linecap="round" stroke-linejoin="round" stroke-miterlimit="10" stroke-width=".5" d="M408.58203 483.39063l3.4414-6.125"/></g><g clip-path="url(#A)"><path fill="none" stroke="#000" stroke-linecap="round" stroke-linejoin="round" stroke-miterlimit="10" stroke-width=".5" d="M422.71484 483.72656l1.80079-6.79297"/></g><g clip-path="url(#B)"><path fill="none" stroke="#000" stroke-linecap="round" stroke-linejoin="round" stroke-miterlimit="10" stroke-width=".5" d="M438.44922 483.5l-3.03516-6.33984"/></g><g clip-path="url(#C)"><path fill="none" stroke="#000" stroke-linecap="round" stroke-linejoin="round" stroke-miterlimit="10" stroke-width=".5" d="M450.63672 483.82031l-.78125-6.98437"/></g><g clip-path="url(#D)"><path fill="none" stroke="#000" stroke-linecap="round" stroke-linejoin="round" stroke-miterlimit="10" stroke-width=".5" d="M465.07422 483.5l-3.02344-6.34375"/></g><g clip-path="url(#E)"><path fill="none" stroke="#000" stroke-linecap="round" stroke-linejoin="round" stroke-miterlimit="10" stroke-width=".5" d="M146.32031 469.65234l-4.64062-5.27734"/></g><path fill="none" stroke="#000" stroke-linecap="round" stroke-linejoin="round" stroke-miterlimit="10" stroke-width=".5" d="M146.32031 469.65234l-.86719 2.29688m14.29297-2.39844l-4.86328-5.07422m4.86328 5.07422l-.76953 2.33203m15.13672-5.32422l-6.96875.91016m5.95703-.77734l.71094.99609m13.6211-1.08984l-6.97657.83203m5.96094-.71094l.69922 1.00781m13.61328-.17187l-6.9414-1.08203m6.9414 1.08203l.80469 2.3164m12.5078-2.28906l-6.93358-1.13672m6.93359 1.13672l.78516 2.32422m12.2578-1.42969l-6.39062-2.92578m6.39063 2.92578l.14453 2.44922m13.03516-2.1875l-6.1211-3.44922m6.1211 3.44922l-.0586 2.45313m13.48047-2.65625l-6.33203-3.04297m6.33203 3.04297l.09766 2.45312m13.49218-3.27344l-6.8828-1.40234m5.8828 1.19922l.34766 1.17578m13.95703-2.4336l-6.86328 1.51954m5.86328-1.29688l.79688.9336m12.6914-2.75782l-5.20703 4.72266m4.44922-4.03516l1.15234.41797m8.97657-1.99219l2.67968 6.4961m8.75391-4.65625l6.4414 2.8164m8.27735-4.41406l3.63672 6.01172m-3.10938-5.13672l.62891-1.05468m11.03906 1.26171l5.875 3.84766m-5.02344-3.28906l.11329-1.22266m12.20312 4.27344l6.16797-3.3711m8.54688-1.39843l3.36718 6.16797m12.65625-3.08203l-.01953-.20313-.0586-.1914-.09765-.17579-.45703-.375-.1914-.0586-.19923-.01952-.19921.01953-.19141.0586-.46094.375-.09375.17577-.0586.19141-.01952.20313.01953.19921.0586.19141.09374.17578.46094.375.1914.0586.19923.01953.19921-.01953.19141-.0586.45703-.375.09766-.17578.0586-.1914.01952-.19922m9.14063 1.55468l6.30078-3.11328m7.36328 3.67969l5.60156-4.2461m-4.78515 3.62891l-1.11329-.51562m13.58594 1.09765l5.65235-4.17578m-5.65235 4.17578l-2.21094-1.0586m16.53907 1.98048l3.6289-6.01953m-3.10156 5.14453l-1.22265-.0664m13.48046.54687l4.6875-5.23047m-4.0039 4.47265l-1.1914-.29687m14.08593 1.26953l4.16015-5.66016m-3.55468 4.83985l-1.21094-.17969"/><g clip-path="url(#F)"><path fill="none" stroke="#000" stroke-linecap="round" stroke-linejoin="round" stroke-miterlimit="10" stroke-width=".5" d="M146.35547 456.30469l-4.71094-5.21485"/></g><path fill="none" stroke="#000" stroke-linecap="round" stroke-linejoin="round" stroke-miterlimit="10" stroke-width=".5" d="M146.35547 456.30469l-.83594 2.3086m15.1914-4.01954l-6.79296-1.78906m5.80469 1.52734l.28125 1.19531m13.98047-2.875l-6.70704 2.09375m5.73047-1.78906l.8711.86328m13.14062-1.82422l-6.14844 3.40625m6.14844-3.40625l2.05469 1.33594m11.45312-.92187l-6.53515 2.57812m5.58594-2.20312l.93359.79687m13.4336-.8711l-6.7422 1.97657M212.96484 453l.85938.875m13.46094-1.08984l-6.78907 1.82422m5.80078-1.5586l.83594.89844m13.58594-.1875l-7.02734-.1289m6.0039.11327l.5586 1.09375m13.76953-.8789l-7.00781-.52344m5.98828.44531l.49609 1.125m13.74219-2.16406l-6.8125 1.71094m5.82031-1.46485l.82422.91016m12.3789-2.95703l-4.60546 5.3086m13.42578-5.39844l4.38281 5.49218m-3.7461-4.69531l.48829-1.125m13.23047-.2461l2.30468 6.64063m-1.96875-5.67578l.83204-.89844m10.66015.9336l5.27735 4.63672m-4.51172-3.96094l.28515-1.19531m11.40235 2.54296l7 .59375m-5.98047-.5078l-.48438-1.12892m13.03907 2.69141l6.48437-2.70312m-5.54297 2.30859l-.94922-.77734m13.78125 1.96484l5.5664-4.28906m-4.7578 3.66406l-1.1172-.5039m12.89454-.91016l7.02344-.21094m-6 .17969l-.60938-1.0664m13.02735.05858l6.77343 1.8672m-5.78906-1.59376L381 451.83984m12.57422 2.69922l6.82422-1.67969m-5.83203 1.4336l-.81641-.91406m13.23047 1.46484l6.64062-2.28906m-5.67578 1.95703l-.89843-.83594m13.58203 1.875l5.97265-3.70312m-5.97265 3.70312l-2.1211-1.23437m15.6914 1.58984l5.46485-4.41406m-5.46484 4.41406l-2.25781-.96094m15.54297.92188l5.52734-4.33985m-5.52734 4.33985l-2.2461-.99219m15.16406.35937l6.32032-3.07421m-5.40235 2.6289l-.99218-.72265"/><g clip-path="url(#G)"><path fill="none" stroke="#000" stroke-linecap="round" stroke-linejoin="round" stroke-miterlimit="10" stroke-width=".5" d="M146.46094 442.89063l-4.92188-5.01563"/></g><path fill="none" stroke="#000" stroke-linecap="round" stroke-linejoin="round" stroke-miterlimit="10" stroke-width=".5" d="M145.7461 442.16406l-.3711 1.16797m15.40625-2.36719l-6.92969-1.16406m5.92188.9961l.38672 1.16406m13.53906.1289l-6.14063-3.41406m5.25 2.91797l-.02343 1.22656m14.60547-3.13281L180.5 441.07813m5.88672-1.1875l.77734.94921m13.25-2.0078l-6.30469 3.10155m5.38672-2.64843l.9961.71484m12.84765-1.78516l-5.53125 4.33594m4.72657-3.70312l1.12109.49609m13.67188 1.75781l-6.875-1.4375m5.875 1.23047l.34375 1.17578m11.36718 1.72657l-1.66797-6.82813m17.19532 1.66797l-6.09375 3.4961m19.71484-2.8047l-6.70313 2.10938m5.72657-1.80078l.875.85937m13.53906-.6289l-6.94922 1.03125m13.42969.5039l6.72266-2.03906m6.78125-.48828l6.34375 3.01953m-5.42188-2.58203l-.05469-1.22656m13.30469-.34375l4.6289 5.28515m-3.95702-4.51562l.4375-1.14844m11.41406 1.3789l6.21094 3.28126m-5.3086-2.80469v-1.22656m12.03125 1.98047l6.97656.82422m-5.96093-.70313l-.44532-1.14453m12.71875 1.34375l7.02735.1836m-7.02735-.1836l-1.09375-2.19531m14.50782 3.10937l6.83203-1.64453m-5.83985 1.40234l-.8125-.91797m13.29297 1.65625l6.51563-2.63671m-5.5664 2.25l-.94142-.78516m13.0625.14844l7.00391-.59375m-5.98437.50781l-.66407-1.03125m12.96485 1.15625l6.99219-.67188m-5.97657.57422l-.67578-1.02343m13.6289 2.85156l5.6875-4.1289m-4.85937 3.52734l-1.10156-.53907M434.58594 443l4.6914-5.23438M434.58594 443l-2.38281-.58594m15.42578.3125l5.23828-4.6836m-5.23828 4.6836l-2.3047-.84765m15.10938.10546l6.25391-3.20312m-5.34375 2.73828l-1.0039-.70312"/><g clip-path="url(#H)"><path fill="none" stroke="#000" stroke-linecap="round" stroke-linejoin="round" stroke-miterlimit="10" stroke-width=".5" d="M146.52734 429.50781l-5.05468-4.8789"/></g><path fill="none" stroke="#000" stroke-linecap="round" stroke-linejoin="round" stroke-miterlimit="10" stroke-width=".5" d="M145.79297 428.79688l-.33984 1.17968m14.21093-.29687l-4.69922-5.22266m4.01563 4.46485l-.41797 1.15234m14.65625-.6289l-5.17578-4.75391m4.42187 4.0625l-.30859 1.1875m9.73828-.01954l4.10156-5.70703m-3.5039 4.87891l-1.21485-.16406m12.97266-.04688l6.01953-3.6289m-5.14453 3.10156l-1.05078-.63281m13.07031-1.41797l6.85938 1.52734m-5.85938-1.30469l-.32812-1.18359m12.76172 2.89844l6.625-2.34766m-5.66016 2.0039l-.90625-.82812m13.39844 1.50781l6.34375-3.01953m-5.42188 2.58203l-.98828-.73046m13.04297-.16407l7.01953-.35546m-6 .30468l-.6289-1.05078m12.99609.19922l6.875 1.44922m-5.875-1.23828l-.33985-1.17969m12.66407.92969l6.85546 1.52734m6.63282.55469l6.51172-2.63672m8.80468-1.96484l2.50391 6.5664m-2.13672-5.60937l.80469-.92578m11.25781.46484l4.27735 5.57422m-3.65625-4.76172l.5078-1.11719m13.01173-.16797l2.6289 6.51953m-2.2461-5.5703l.78907-.9375m10.29688 1.71484l6.3203 3.0664m-5.40233-2.6211l-.04297-1.22655m14.66406 5.69921l1.8711-6.76953m-1.59766 5.78516l-1.19922.26563m12.72656-.14454l4.89844-5.03906m-4.1836 4.30469l-1.17968-.34375m14.73046 1.73437l2.9961-6.35547m-2.5586 5.4297l-1.22656.0625m17.36328.72656l-3.51953-6.08204m13.80469 6.31641l2.53906-6.55078m-2.16797 5.59765l-1.21875.14454m14.73829.97656l1.39062-6.88672m-1.1914 5.88672l-1.17579.34765m15.08985.72266l-.20704-7.02734m.17579 6.0039l-1.06641.60938m12.30469-.21484l4.01172-5.76954m-3.4297 4.9297l-1.21874-.14454m13.01562.02734l5.87891-3.85156m-5.02344 3.28906l-1.07422-.58984"/><g clip-path="url(#I)"><path fill="none" stroke="#000" stroke-linecap="round" stroke-linejoin="round" stroke-miterlimit="10" stroke-width=".5" d="M144.09766 417.26563l-.19532-7.02344"/></g><g clip-path="url(#J)"><path fill="none" stroke="#000" stroke-linecap="round" stroke-linejoin="round" stroke-miterlimit="10" stroke-width=".5" d="M144.07031 416.24219l-1.0664.60547"/></g><path fill="none" stroke="#000" stroke-linecap="round" stroke-linejoin="round" stroke-miterlimit="10" stroke-width=".5" d="M157.66016 417.25l-.69141-6.99219M170 410.29687l1.25781 6.91407m9.22656-4.0664l6.92188 1.21874m-5.91406-1.04297l-.3789-1.16797m12.99608 3.15625l6.30079-3.10937m-5.38282 2.65625l-.99609-.71484m13.53516 1.42578l6.01953-3.625m-5.14453 3.09765l-1.05078-.63281m13.20312.5664l6.59375-2.4375m-6.59375 2.4375l-1.83203-1.6328m15.78906 2.71484l5.3086-4.60156m-5.3086 4.60156l-2.28906-.88281m16.04687 1.3125l4.42578-5.46094m-4.42578 5.46094l-2.41015-.46875m14.70312-.89063l6.46875-2.74219m-5.52734 2.34375l-.95313-.77343m14.92578-3.3086l3.26954 6.21875m-2.79297-5.3164l.6914-1.01172m15.45313.1289l-3.34375 6.17969m2.85937-5.28125l1.22657.00781m7.39453 1.96875l7.01562.42969m12.7539-2.1289l-5.89452 3.82812m5.03515-3.26953l1.07422.59375m13.04688-1.23047l-5.78516 3.98437m4.9414-3.40625l1.08985.56641m13.49219-.3086l-6.63281 2.3125m5.66797-1.97656l.90234.83204m13.25 1.46484l-6.3789-2.95313m5.44921 2.52344l.07031 1.22266m14-.46485l-6.03125-3.60937m5.15235 3.08203l-.0586 1.22656m9.4336.51172l3.60547-6.03125m-3.07813 5.15235l-1.22656-.0625m16.83984-2.07422l-.01953-.19922-.0586-.1914-.09374-.1797-.45703-.375-.19141-.05859-.20312-.01953-.19922.01953-.19141.0586-.45703.375-.09375.17968-.0586.1914-.01953.19923.01954.19922.05859.1914.09375.17578.45703.3789.1914.0586.19923.01953.20312-.01953.1914-.0586.45704-.3789.09375-.17578.0586-.1914.01952-.19922m14.625-2.62891l-4.66406 5.2539m3.98828-4.48827l1.1914.28906m13.88282 2.39844l-6.82812-1.65235m5.83593 1.41406l.30469 1.1875m11.07813 1.70313l-.98047-6.95703m.83984 5.94531l-.99219.72266m12.49219.0039l2.92969-6.38672m-2.5039 5.46094l-1.22266.07031m12.33203-.98828l6.49218-2.69531m-5.54687 2.30078l-.94922-.77734"/><g clip-path="url(#K)"><path fill="none" stroke="#000" stroke-linecap="round" stroke-linejoin="round" stroke-miterlimit="10" stroke-width=".5" d="M146.98047 398.57813l-5.96094 3.71875"/></g><path fill="none" stroke="#000" stroke-linecap="round" stroke-linejoin="round" stroke-miterlimit="10" stroke-width=".5" d="M146.11328 399.1211l1.0625.61327m12.76953-1.625l-5.26172 4.65625m4.4961-3.97656l1.15234.42969m13.53125-.15234l-6.46875 2.74609m5.52734-2.34766l.95313.77344m13.57813.41797l-7.01563-.4375m5.99219.375l.50781 1.11719m6.82813-.89844l6.98828-.75m6.66797 1.92188l6.30859-3.09375m-5.39063 2.64453l-.99609-.71875m14.39453 2.39843l4.30469-5.55468m-4.30469 5.55468l-2.41797-.41406m17.49219 1.1289l.78516-6.98437m-.78516 6.98438l-2.28125.90234m17.35547-1.15625l-2.73047-6.47656m2.33203 5.53515l-.77344.94922m16.57032-2.58593l-6.90235-1.31641m6.90235 1.3164l.72656 2.34376m12.64062-3.3047l-7.0039.60157m7.0039-.60156l1.33204 2.0586m11.53515-3.4961l-6.10547 3.47656m5.21485-2.96875l1.03906.65625m9.20312-2.8164l1.82032 6.78515m-1.5547-5.80078l.89454-.83594m9.83203 4.61719l6.46485-2.75m-5.52344 2.35156l-.95703-.77344m15.71093 3.20704l1.70313-6.81641m14.58203.60156l-4.23437 5.60938m3.61718-4.79297l1.21094.19531m9.73047 5.19531l1.7461-6.80468m10.5703 6.375l3.7461-5.94532m-3.7461 5.94532l-2.44921-.1797m17.91406.71095l-.5586-7.00391m.5586 7.0039l-2.0664 1.32032m18.05077-2.91016l-5.89453-3.82812m5.03516 3.27344l-.10547 1.21875m11.69531.91796l-.72656-6.98828m.6211 5.97266l-1.01954.6836m17.38282-4.35548l-6.60938 2.38282m5.64844-2.03516l.91015.82422m12.59766 2.44922l-5.07422-4.85938m4.33594 4.15235l-.33203 1.18359m15.35156-2.63281l-7.00781-.54688m5.98828.46875l.48828 1.125m11.36719-1.32031l-.02344-.19922-.05469-.1914-.09765-.17579-.45703-.3789-.19141-.05469-.19922-.02344-.19922.02344-.1914.05469-.46094.3789-.09375.17579-.0586.1914-.01953.19922.01953.19922.0586.1914.09375.1797.46094.375.1914.05859.19922.01953.19922-.01953.1914-.0586.45704-.375.09765-.17969.05469-.1914.02344-.19922"/><g clip-path="url(#L)"><path fill="none" stroke="#000" stroke-linecap="round" stroke-linejoin="round" stroke-miterlimit="10" stroke-width=".5" d="M147.4375 386.40234l-6.875 1.44141"/></g><path fill="none" stroke="#000" stroke-linecap="round" stroke-linejoin="round" stroke-miterlimit="10" stroke-width=".5" d="M146.4375 386.61328l.78516.9414m13.55078-1.0625l-6.91406 1.26173m6.91406-1.26172l1.51953 1.92578m11.84766-1.1914l-7.02344-.20704m6.0039.17969l.54297 1.09765m13.73047-.49609l-6.89844-1.35547m5.89453 1.15625l.35547 1.17578m13.86328-2.71875l-6.6953 2.13282m5.71874-1.82422l.8789.85937m10.39845-3.60156l-.66797 6.9961m.66797-6.9961l2.26562-.9414m-2.36328 1.96093l1.13281-.47265m9.19531 5.14062l5.4961-4.3789m-4.69531 3.74218l-1.125-.48828m17.73437 2.17969l-2.6914-6.48828m2.30078 5.54687l-.78125.94531m15.51172-.65234l-4.73829-5.1914m4.04688 4.4375l-.41016 1.15234m15.16797-1.38281l-6.24219-3.22266m5.33204 2.7539l.01562 1.22657m14.34766-1.0586l-6.51953-2.62109m5.5703 2.23828l.13282 1.22266m14.00781-3.73438l-6.27344 3.16797m19.3086-3.6289l-5.71094 4.09375m5.71094-4.09375l2.19922 1.08984m7.73437 4.42969l1.05078-6.94922m-.89843 5.9375l-1.15625.40625m13.01953.13281l3.64844-6.0039m-3.1172 5.1328l-1.22265-.0703m12.45313-3.02735l6.7578 1.9336m-6.7578-1.9336l-.51172-2.39844m14.53125 1.08594l5.34765 4.5586m-4.5703-3.89454l.26562-1.19922m11.48828 3.44532l6.91406-1.26172m-5.90625 1.07812l-.76172-.96094m16.46875 4.02735l.11719-7.02735m-.10156 6.00391l-1.09375.5586m17.08593-.72657l-5.26953-4.64453m17.22656 5.59766l-2.55468-6.54688m2.1836 5.59375l-.80079.92969m16.60938-4.13281l-6.80079 1.76172m5.8125-1.50391l.82813.90234m12.4961-2.82812l-4.83985 5.09765m4.13672-4.35546l1.17969.32812m13.89453.96875l-6.95313 1.01953m5.9414-.8711l.72657.98829m12.52734 1.9375l-4.80859-5.125m4.10938 4.3789l-.39454 1.16016"/><g clip-path="url(#M)"><path fill="none" stroke="#000" stroke-linecap="round" stroke-linejoin="round" stroke-miterlimit="10" stroke-width=".5" d="M147.44922 373.13672l-6.89844 1.33984"/></g><path fill="none" stroke="#000" stroke-linecap="round" stroke-linejoin="round" stroke-miterlimit="10" stroke-width=".5" d="M147.44922 373.13672l1.54297 1.91015m11.83203-1.03515l-7.01563-.40625m7.01563.40625l1.02344 2.22656m12.20312-3.23047l-6.83984 1.60156m5.84375-1.37109l.8086.92578m13.58593-.61719l-7.00781.52344m5.98828-.44922l.65625 1.03907m13.59765-1.63672l-6.84765 1.57031m6.84765-1.57031l1.60938 1.85547m-2.60547-1.625l.80469.92578m13.21875 1.21875l-6.26953-3.17969m6.26953 3.17969l.04687 2.45312m13.39453-2.73828l-6.52343-2.60937m6.52343 2.60937l.26563 2.4375m12.875-2.0625l-6.17188-3.35937m6.17188 3.35937l-.02734 2.45313m13.48046-2.7422l-6.45312-2.78515m6.45312 2.78516l.19922 2.44922m-1.13672-2.85156l.09766 1.22265m14.05078-.60156l-6.2461-3.21875m6.2461 3.21875l.03125 2.45312m12.65235-1.58593l-4.98047-4.95313m4.98047 4.95313l-.71094 2.34765m15.03515-4.5039l-6.99609-.64063m17.71484-3.07422l-1.80468 6.78906m1.53906-5.80468l1.19531-.27735m14.9375 2.05079l-6.91015 1.27343m6.91015-1.27344l1.52735 1.91797m5.65625.9961l5.35156-4.55469m-4.57031 3.89063l-1.14063-.44922m12.84766-1.45313l7.0039.57813m-7.0039-.57813l-.96875-2.2539m15.19921.16406l5.17579 4.7539m-4.42188-4.05859l.3086-1.1875m13.49218-.375l2.69531 6.49219m-2.30078-5.54688l.77735-.94922m14.04297 6.71875l-1.10547-6.9375m.94531 5.9297l-.98047.73827m17.38672-2.73828l-6.96484-.92187m6.96484.92187l.85938 2.29688m11.35546-.17579l-4.76562-5.16406m4.76562 5.16406l-.80859 2.31641m13.35156-1.77734l-3.22265-6.24219m2.7539 5.33594l-.69531 1.00781m16.21875-4.28516l-6.69922 2.1211m5.72266-1.8125l.8789.85937m11.5547-3.28906l-2.98048 6.36328m12.79688-.29687l4.01172-5.76954m-3.42579 4.9297l-1.21875-.14454"/><g clip-path="url(#N)"><path fill="none" stroke="#000" stroke-linecap="round" stroke-linejoin="round" stroke-miterlimit="10" stroke-width=".5" d="M147.25781 359.17969l-6.51562 2.6289"/></g><path fill="none" stroke="#000" stroke-linecap="round" stroke-linejoin="round" stroke-miterlimit="10" stroke-width=".5" d="M147.25781 359.17969l1.8789 1.57812m11.6875-.42578l-7.01952.32422m6-.27734l.625 1.05468m13.71484-.98437l-7.02734.08594m6.0039-.07422l.58985 1.07812m12.46875 1.66797l-4.46875-5.42578m3.8164 4.63281l-.46875 1.13672m12.3125.45313l-.21875-7.02344m.21875 7.02344l-2.1328 1.21875m17.29296-7.64844l-3.91406 5.83594m3.34765-4.98438l1.21875.125m13.64844.01953l-5.88281 3.84766m5.02734-3.28906l1.07422.58984m9.85156 4.27344l.60547-7m-.51562 5.98437l-1.1289.48047m18.0664-2.11328l-6.8164-1.69922m5.82421 1.45313l.29688 1.1875m12.09765-4.97266l-2.99219 6.35938m2.5547-5.4336l1.22655-.0586m13.67579 4.625l-5.29297-4.625m4.52343 3.95313l-.28125 1.19531M290.07422 357l.78125 6.98438m9.80469-5.10938l6.23828 3.23438m-5.32813-2.76172l-.01172-1.22657m13.83985-.70312l3.39453 6.15234m-2.89844-5.25781l.66797-1.02734m10.48438 4.22265l6.72656-2.02734m-6.72656 2.02734l-1.72657-1.74219m16.59766-2.28515l3.61719 6.02734m-3.6172-6.02734l1.26563-2.10156m10.34766 4.98437l7.01953.26172m-7.01953-.26172l-1.07031-2.20703m20.94531.59766l-6.10156 3.48046m5.21484-2.97656l1.03906.65625m13.40235 1.8125l-6.57813-2.46875m6.57813 2.46875l.3164 2.4336m-1.27343-2.79297l.3164 2.4336m14.11719-2.64845l-6.90234-1.3164m6.90234 1.3164l.72656 2.34375m12.38672-4.33593l-6.5 2.66796m6.5-2.66796l1.89063 1.5664m9.03515 3.17188l-1.71875-6.8125m13.38672 6.83203l1.57422-6.84766m-1.34766 5.85156l-1.18359.31641m11.64844-3.59375l6.82031 1.69531m-5.82812-1.4453l-.29688-1.19142m17.22266-1.51562l-2.38672 6.60938"/><g clip-path="url(#O)"><path fill="none" stroke="#000" stroke-linecap="round" stroke-linejoin="round" stroke-miterlimit="10" stroke-width=".5" d="M146.875 345.15625l-5.75 4.04297"/></g><path fill="none" stroke="#000" stroke-linecap="round" stroke-linejoin="round" stroke-miterlimit="10" stroke-width=".5" d="M146.875 345.15625l2.1875 1.10938m-3.02344-.51954l1.09375.5547m12.2539-1.96095l-4.14062 5.67579m4.14063-5.67579l2.42578.34375m11.57813.32032l-5.51954 4.34765m12.9922-.48828l6.16405-3.3711m-5.26953 2.88282l-1.02344-.67578m14.2461 2.15234l4.5625-5.34765m-4.5625 5.34765l-2.39844-.53125m3.0625-.2461l-2.39844-.53124m13.88282-2.05469l6.89062 1.3789m-5.88672-1.17577l-.35156-1.17579m18.95703-.39453l-5.69531 4.11329m5.69531-4.11329l2.20313 1.08204m11.17968 2.9375l-5.82812-3.92579m4.98047 3.35547l-.1289 1.21875m10.78515.85156l1.1836-6.92578m-1.01173 5.91797l-1.16406.38672m17.44531-5.25781l-5.09765 4.83594m4.35937-4.13282l1.16016.38672m13.77734.57422l-6.86328 1.50781m5.86328-1.28906l.79688.9336m11.6875-3.52735l-3.19922 6.2539m2.73437-5.34374l1.22657-.01953m14.08984 3.8164l-6.27734-3.16015m5.36718 2.69921l.02735 1.22657m10.80859 1.16015l.50781-7.01171m-.4375 5.99218l-1.1211.4961m17.17188-5.39454l-5.10937 4.82422m4.36719-4.12109l1.16406.39063m9.92578-2.17188l.82813 6.98047m-.70704-5.96485l1.00782-.69921m13.88672-.09375l-2.57422 6.53906m2.57422-6.53906l2.4375-.28125m11.67968 6.375l-4.17578-5.65235m4.17578 5.65235l-1.0586 2.21484m15.4297-3.47656l-6.29297-3.125m6.29297 3.125l.0703 2.45312m12.81642-1.79297l-5.4336-4.44921m5.4336 4.44921l-.48047 2.40625m14.05078-2.7539l-5.9414-3.7539m5.9414 3.7539l-.1836 2.44531m13.375-2.26563l-5.69921-4.10937m4.87109 3.51172l-.16406 1.21484m12.8125.5664l-2.70703-6.48046m2.3125 5.53906l-.77735.94922m13.83985-6.6914l-1.41407 6.88671m16.3164-6.10156l-4.58983 5.32031m3.92187-4.54687l1.19922.26953"/><g clip-path="url(#P)"><path fill="none" stroke="#000" stroke-linecap="round" stroke-linejoin="round" stroke-miterlimit="10" stroke-width=".5" d="M146.94531 331.94922l-5.89062 3.82812"/></g><path fill="none" stroke="#000" stroke-linecap="round" stroke-linejoin="round" stroke-miterlimit="10" stroke-width=".5" d="M146.94531 331.94922l2.14844 1.1875m-3.0039-.6289l2.14452 1.1875m11.57032-2.3125l-4.98047 4.96093m4.98047-4.96094l2.34375.72266m-3.0664 0l2.34374.72265m-3.07031 0l1.17187.35938m13.61328-1.78125l-5.02343 4.91406m5.02344-4.91406l2.33984.74219m-3.07031-.02735l1.16797.3711m12.73437-1.22656l-4.73438 5.1953m4.73438-5.1953l2.375.60546m-3.0664.14844l1.1914.30469m13.72266 2.8164l-6.54688-2.55468m6.54688 2.55469l.28515 2.4375m8.85938-.31641l1.79297-6.79688m-1.53125 5.8086l-1.19532.27734m18.64844-2.41406l-7.00781-.54688m5.98828.46485l.48828 1.125m13.85156-1.51172l-7.01562.39062m7.01562-.39062l1.26953 2.09765m12.04688-1.99218l-7.02344.17969m6.0039-.15235l.60157 1.0664m13.35938-2.58593l-6.27344 3.16406m5.35937-2.70312l1.00391.70703m11.13281-2.9414l-2.08984 6.71093m1.78515-5.73438l1.20704-.22656m12.04687-.84375l-1.35937 6.89453m1.35937-6.89453l2.34766-.71094m8.67578 1.03907l3.22656 6.24219m-2.75781-5.33594l.69922-1.00781M313.64063 334.5l6.91015-1.27344m12.86719 2.45313l-6.01172-3.63672m5.13672 3.10937l-.07031 1.22657m14.1953-4.4336l-5.88671 3.83594m5.03125-3.27734l1.07422.59375m13.58984.03125l-6.8711 1.46875m6.8711-1.46875l1.57813 1.8789m-2.57813-1.66406l.78907.9375m13.52734.3086l-6.875-1.45313m6.875 1.45312l.67969 2.35547m12.53906-4.16797l-6.6836 2.17188m17.58594 2.30078l-1.85547-6.77344m1.58594 5.78906l-.89062.84375m15.43359-.28125l-3.77344-5.92968m3.22657 5.0664l-.60547 1.06641m11.44922.15625l2.26562-6.64844m-1.9375 5.6836l-1.21094.1953m12.36719-4.4414l5.92578 3.77344m-5.0625-3.22656l.09375-1.22266m11.91406 3.42188l6.8125-1.71875M467 333.14844l-6.8789 1.42969"/><g clip-path="url(#Q)"><path fill="none" stroke="#000" stroke-linecap="round" stroke-linejoin="round" stroke-miterlimit="10" stroke-width=".5" d="M467 333.14844l1.57031 1.88672"/></g><g clip-path="url(#R)"><path fill="none" stroke="#000" stroke-linecap="round" stroke-linejoin="round" stroke-miterlimit="10" stroke-width=".5" d="M146.45703 318.03906l-4.91406 5.01953"/></g><path fill="none" stroke="#000" stroke-linecap="round" stroke-linejoin="round" stroke-miterlimit="10" stroke-width=".5" d="M146.45703 318.03906l2.35547.6914m-3.07031.03907l1.17578.34375m12.85156-1.07812l-4.91016 5.02734m4.91016-5.02734l2.35547.6875m-3.07031.04296l2.35547.6875m11.65625-1.4375l-4.8711 5.06641m4.8711-5.0664l2.35937.67187m-3.07031.0664l2.36328.66798m-3.07031.0664l1.17969.33594m13.63671-1.72656L181.42578 323m5.03906-4.90234l2.33594.75m-3.07031-.03516l2.33594.7461m-3.07032-.03516l1.17188.375m14.49219-.23047l-6.80078 1.76172m6.80078-1.76172l1.66015 1.80469m-2.64844-1.55079l1.66016 1.8086m12.14063-3.17188l-5.79297 3.98047m5.79297-3.98047l2.17578 1.13282m-3.01953-.5547l2.17578 1.13282m12.02734-1.64062l-5.88281 3.83984m5.88281-3.83984l2.14844 1.18359m-3.0039-.625l1.07421.58984m12.78125 3.10547l-5.25-4.67187m5.25 4.67187l-.58203 2.38672m14.7539-5.1914l-6.96484.9375m6.96485-.9375l1.42968 1.99218m11.6797-2.78515l-6.5586 2.52343m6.5586-2.52343l1.85546 1.60937m-2.8086-1.24219l.92579.8047m12.85937-2.03907l-5.58984 4.25781m5.58984-4.25781l2.23047 1.02734m10.02344-1.95312l-3.46484 6.11328m3.46484-6.11328l2.45312.0664m-2.95703.82032l1.22657.03515m13.0039-.64844l-4.28906 5.56641m4.28906-5.5664l2.41797.41015m-3.04297.39844l1.21094.20703m12.5586-1.14063l-3.94923 5.8125m3.94922-5.8125l2.4414.26563m-3.01562.58203l1.21875.13281m11.21094 5.40235l-1.03125-6.94922m.88281 5.9375l-.98828.73047m17.3789-2.4961l-6.88671-1.39453m5.88672 1.1914l.34766 1.17579m13.86328-2.77344l-6.67578 2.20313m5.70312-1.88281l.88672.84765m13.50781-.75l-6.89062 1.36719m5.89062-1.16797l.77344.95313m13.4375-1.5625l-6.67969 2.1875m6.67969-2.1875l1.76953 1.69921m11.58203-1.57421l-6.7539 1.9414m6.7539-1.9414l1.70703 1.76562m-2.6914-1.48438l1.70703 1.76563m12.69531-1.5664l-6.96094.98046m6.96094-.98047l1.4414 1.98438m5.82423.90234l5.13671-4.79297m14.23438 2.81641l-6.97266-.84375m5.96094.72266l.4414 1.14453m13.89063-1.84375l-6.98437.79687m6.98437-.79687l1.39063 2.02344m-2.40625-1.90625l1.39062 2.02343m-2.40625-1.90625l.69531 1.01172m14.3672-2.27734l-6.41798 2.86328"/><g clip-path="url(#S)"><path fill="none" stroke="#000" stroke-linecap="round" stroke-linejoin="round" stroke-miterlimit="10" stroke-width=".5" d="M466.76953 319.11719l1.9336 1.50781"/></g><g clip-path="url(#T)"><path fill="none" stroke="#000" stroke-linecap="round" stroke-linejoin="round" stroke-miterlimit="10" stroke-width=".5" d="M465.83594 319.53516l1.9336 1.5078"/></g><path fill="none" stroke="#000" stroke-linecap="round" stroke-linejoin="round" stroke-miterlimit="10" stroke-width=".5" d="M464.90234 319.94922l.96875.7539"/><g clip-path="url(#U)"><path fill="#00f" fill-rule="evenodd" d="M224.01953 480.96484h8.61719v-10.14843h-8.61719v10.14843"/></g><path fill="azure" fill-rule="evenodd" d="M225.85156 472.65234h.83594v2.82032h3.28516v-2.82032h.83203v6.47657h-.83203v-2.91407h-3.28516v2.91407h-.83594v-6.47657"/><path fill="#00f" fill-rule="evenodd" d="M383.80078 436.57813h8.61719v-10.14454h-8.61719v10.14454"/><path fill="azure" fill-rule="evenodd" d="M385.63281 428.26563h.83203v2.82421h3.28907v-2.82421h.83203v6.48046h-.83203v-2.91406h-3.28907v2.91406h-.83203v-6.48046"/><path fill="#00f" fill-rule="evenodd" d="M201.82813 392.19531h8.61718v-10.14453h-8.61719v10.14453"/><path fill="azure" fill-rule="evenodd" d="M203.66016 383.88281h.83203v2.82422h3.28906v-2.82422h.83203v6.48047h-.83203v-2.91406h-3.28906v2.91406h-.83203v-6.48047"/><path fill="#ff3030" fill-rule="evenodd" d="M437.7539 343.375h7.69532v-10.14844h-7.69531V343.375"/><path fill="azure" fill-rule="evenodd" d="M439.58594 335.0625h.83594v5.73828h3.1914v.74219h-4.02734v-6.48047"/><path fill="#ff3030" fill-rule="evenodd" d="M193.64453 330.0586h7.69531v-10.14454h-7.6953v10.14453"/><path fill="azure" fill-rule="evenodd" d="M195.47656 321.7461h.83594v5.73827h3.1914v.7422h-4.02734v-6.48048"/><path fill="#ffffe0" fill-rule="evenodd" d="M252.97656 378.32031h22.17969v-10.1914h-22.17969v10.1914"/><path fill-rule="evenodd" d="M256.47656 369.96094h.50781v6.29297h-.78515v-4.48829h-1.39063v-.55468l.5625-.0664.25-.05079.23047-.08984.20313-.14454.17578-.20703.14062-.29687.10547-.39453m4.8125 0l.23047.01953.21875.05469.20703.08984.19531.1211.1875.14843.17188.17578.30078.42188.24219.49219.17969.54687.11328.57813.03515.58984-.03515.59375-.11328.58594-.1797.55468-.24218.5-.30078.4297-.17188.17968-.1875.15234-.1953.125-.20704.08985-.21875.05859-.23047.01953-.22656-.01953-.22266-.0586-.20703-.08984-.19531-.125-.1836-.15234-.17187-.17969-.30078-.42969-.2461-.5-.17968-.55468-.10938-.58594-.03906-.59375h.83203l.03125.5664.08203.50391.125.4414.16016.375.1914.30079.21094.22265.22266.13672.22656.04688.22656-.04688.22266-.13671.21094-.22266.1914-.30078.16407-.375.125-.4414.08203-.50392.02734-.5664-.02734-.5586-.08203-.5-.125-.4375-.16406-.36328-.19141-.29296-.21094-.21485-.22265-.13281-.22657-.04297-.22656.04297-.22266.13281-.21093.21485-.19141.29296-.16016.36329-.125.4375-.08203.5-.03125.55859h-.83203l.03906-.58985.10938-.57812.17969-.54688.24609-.49218.30078-.42188.17188-.17578.18359-.14844.19531-.12109.20703-.08984.22266-.0547.22656-.01952m5.09375 0h.50781v6.29297h-.78515v-4.48829h-1.39063v-.55468l.5586-.0664.2539-.05079.23047-.08984.20313-.14454.17187-.20703.14453-.29687.10547-.39453m2.82031 2.17578h.78907l.01953-.3164.0586-.28516.09765-.25391.14062-.21484.1836-.17579.22265-.1289.26563-.07813.3086-.02734.23437.01953.22656.0625.20313.10156.17968.14063.14844.17187.11328.20704.07031.23437.02735.26563-.02344.26953-.0664.22265-.10938.1914-.15625.17188-.19922.16407-.2461.16406-.63671.39062-.53516.3125-.4375.31641-.34765.32422-.26172.33594-.19141.35156-.125.3711-.07031.39062-.01953.41797h4.21093v-.73829h-3.33203l.08203-.28515.11329-.23438.14843-.20312.1875-.17969.23047-.17187.28125-.17579.71485-.41796.41796-.20313.34375-.23047.28125-.2539.21875-.26563.16407-.27734.11328-.28516.0625-.28515.01953-.28125-.04297-.38282-.11719-.34765-.1914-.3086-.25-.26172-.30079-.21484-.34765-.15625-.3789-.09766-.40626-.03515-.4375.03125-.39844.10156-.35156.16406-.3086.23438-.24608.30469-.1875.375-.11329.4453-.04296.51954"/><path fill="#ffffe0" fill-rule="evenodd" d="M355.0586 395.39844h22.17968v-10.19531H355.0586v10.1953"/><path fill-rule="evenodd" d="M358.5586 387.03906h.5078v6.29297h-.78515v-4.48828h-1.39063v-.55469l.5625-.0664.25-.0547.23047-.08983.20313-.14063.17578-.21094.14063-.29297.10546-.39453m4.8125 0l.23047.01953.21875.0547.20703.08983.19922.1211.1836.14844.17187.17578.30078.41797.24219.49609.17969.54297.11328.58203.03515.58984-.03515.59375-.11328.58204-.17969.55468-.24219.5039-.30078.42579-.17187.17969-.1836.15625-.19922.1211-.20703.09374-.21875.05469-.23047.01953-.22656-.01953-.21875-.05469-.21094-.09375-.1953-.1211-.1836-.15624-.17188-.17969-.30078-.42578-.2461-.5039-.17968-.5547-.10938-.58203-.03906-.59375h.83203l.03125.5625.08204.50782.125.4414.16406.375.1875.30078.21094.22266.22265.13672.22656.04687.22657-.04687.22265-.13672.21094-.22266.1914-.30078.16407-.375.125-.4414.08203-.50782.02734-.5625-.02734-.5625-.08203-.5-.125-.43359-.16406-.36719-.19141-.29297-.21094-.21093-.22265-.13282-.22657-.04687-.22656.04687-.22265.13282-.21094.21093-.1875.29297-.16406.36719-.125.4336-.08204.5-.03125.5625h-.83203l.03906-.58985.10938-.58203.17969-.54297.2461-.4961.30077-.41796.17188-.17578.1836-.14844.1953-.1211.21094-.08984.21875-.05469.22656-.01953m5.09375 0h.50782v6.29297h-.78516v-4.48828h-1.39063v-.55469l.5586-.0664.2539-.0547.23047-.08983.20313-.14063.17187-.21094.14454-.29297.10546-.39453m2.82032 2.17578h.78906l.01953-.3164.0586-.28906.10156-.25.13671-.21485.1836-.17578.22265-.1289.26563-.08204.3086-.02734.23827.02344.22266.0625.20313.10156.17968.13672.14844.17578.11328.20312.07031.23829.02735.26171-.02344.26954-.0664.22656-.10938.1914-.15625.17188-.19922.16015-.2461.16797-.63671.38672-.53516.3125-.4375.32031-.34765.32422-.26172.33594-.1914.34766-.125.3711-.07032.39452-.01953.41797h4.21094v-.73828h-3.33204l.08204-.28516.11328-.23828.14843-.19922.1875-.18359.23047-.16797.28125-.17578.71485-.41797.41796-.20703.34375-.23047.28125-.25.21875-.26562.16407-.28125.11328-.28125.0625-.28516.01953-.28125-.04297-.38281-.11719-.34766-.1914-.3086-.25-.26562-.30078-.21094-.34766-.16015-.3789-.09766-.40626-.03125-.4375.03125-.39843.09766-.35157.16797-.30468.23437-.25.30469-.1875.375-.11329.44531-.04296.51953"/><path fill="#ffffe0" fill-rule="evenodd" d="M442.26563 445.6875h22.17968v-10.1914h-22.17969v10.1914"/><path fill-rule="evenodd" d="M445.76563 437.32813h.5078v6.29687h-.78515v-4.49219h-1.39062v-.55469l.5625-.0664.25-.05078.23046-.08985.20313-.14062.17578-.21094.14063-.29687.10546-.39454m4.8125 0l.23047.01954.21875.05468.20704.08985.1953.1211.1875.14843.16798.17578.30468.42188.2422.49218.17968.54688.11328.57812.03516.59375-.03516.58985-.11328.58593-.17969.5547-.24219.5-.30468.42968-.16797.17969-.1875.15234-.19531.125-.20704.08984-.21875.0586-.23046.01953-.23047-.01953-.21875-.0586-.20704-.08984-.1953-.125-.1836-.15234-.17188-.1797-.30078-.42968-.2461-.5-.17968-.55469-.10937-.58593-.03907-.58985h.83204l.03125.5625.08203.5039.125.44532.16015.3711.1914.30078.21095.22265.22265.13672.22656.04688.22657-.04688.22265-.13672.21094-.22265.1914-.30079.16016-.37109.12891-.44531.08203-.5039.02735-.5625-.02735-.5625-.08203-.5-.1289-.4375-.16016-.36329-.1914-.29297-.21095-.21484-.22265-.13281-.22656-.04297-.22657.04297-.22265.1328-.21094.21485-.1914.29297-.16016.36328-.125.4375-.08204.5-.03125.5625h-.83203l.03907-.59375.10937-.57812.17969-.54688.2461-.49219.30077-.42187.17188-.17578.1836-.14844.1953-.1211.20704-.08984.21875-.05468.23046-.01954m5.09375 0h.50782v6.29688h-.78906v-4.49219h-1.38672v-.55469l.55859-.0664.2539-.05078.23048-.08985.20312-.14062.17188-.21094.14062-.29687.10938-.39454m2.8203 2.17579h.78907l.01953-.31641.0586-.28516.09765-.2539.14063-.21485.18359-.17578.22266-.1289.26562-.07813.3086-.02734.23437.01953.22656.0625.20313.10156.17969.14063.14843.17187.11328.20703.07032.23438.02734.26562-.02344.26953-.0664.22266-.10938.1914-.15625.17188-.19922.16406-.2461.16407-.63671.39062-.53516.3125-.4375.3164-.34765.32423-.26172.33593-.1914.35157-.125.37109-.07032.39063-.01953.42187h4.21094v-.74219h-3.33204l.08204-.28515.11328-.23438.14844-.20312.1875-.1797.23046-.17187.28125-.17578.71485-.41797.41797-.20312.34375-.23047.28125-.2539.21875-.26563.16406-.27735.10937-.28515.06641-.28516.01953-.28125-.04297-.38281-.1211-.34766-.1875-.30859-.25-.26172-.30077-.21094-.34766-.16015-.3789-.09766-.40625-.03515-.4375.03515-.39844.09766-.35547.16406-.30469.23438-.2461.30468-.1875.375-.11327.44531-.04297.51954"/></g></defs><use xlink:href="#V"/></svg>