<svg xmlns="http://www.w3.org/2000/svg" role="img" xmlns:xlink="http://www.w3.org/1999/xlink" viewBox="142.45 309.95 326.84 171.84"><defs><clipPath id="a"><path d="M144 433h1v47.32813h-1zm0 0"/></clipPath><clipPath id="b"><path d="M144 311.67188h1V429h-1zm0 0"/></clipPath><clipPath id="c"><path d="M144 311.67188h324v168.65625H144zm0 0"/></clipPath><clipPath id="d"><path d="M467 311.67188h1v168.65625h-1zm0 0"/></clipPath><clipPath id="e"><path d="M144 478h4v2.32813h-4zm0 0"/></clipPath><clipPath id="f"><path d="M153 478h8v2.32813h-8zm0 0"/></clipPath><clipPath id="g"><path d="M167 478h7v2.32813h-7zm0 0"/></clipPath><clipPath id="h"><path d="M180 478h8v2.32813h-8zm0 0"/></clipPath><clipPath id="i"><path d="M193 478h8v2.32813h-8zm0 0"/></clipPath><clipPath id="j"><path d="M207 478h7v2.32813h-7zm0 0"/></clipPath><clipPath id="k"><path d="M220 478h8v2.32813h-8zm0 0"/></clipPath><clipPath id="l"><path d="M234 478h7v2.32813h-7zm0 0"/></clipPath><clipPath id="m"><path d="M247 478h7v2.32813h-7zm0 0"/></clipPath><clipPath id="n"><path d="M260 478h8v2.32813h-8zm0 0"/></clipPath><clipPath id="o"><path d="M273 478h8v2.32813h-8zm0 0"/></clipPath><clipPath id="p"><path d="M287 477h7v3.32813h-7zm0 0"/></clipPath><clipPath id="q"><path d="M300 477h7v3.32813h-7zm0 0"/></clipPath><clipPath id="r"><path d="M313 478h8v2.32813h-8zm0 0"/></clipPath><clipPath id="s"><path d="M327 478h7v2.32813h-7zm0 0"/></clipPath><clipPath id="t"><path d="M340 478h8v2.32813h-8zm0 0"/></clipPath><clipPath id="u"><path d="M353 479h8v1.32813h-8zm0 0"/></clipPath><clipPath id="v"><path d="M366 479h9v1.32813h-9zm0 0"/></clipPath><clipPath id="w"><path d="M373 480h3v.32813h-3zm0 0"/></clipPath><clipPath id="x"><path d="M379 479h9v1.32813h-9zm0 0"/></clipPath><clipPath id="y"><path d="M385 480h2v.32813h-2zm0 0"/></clipPath><clipPath id="z"><path d="M394 477h6v3.32813h-6zm0 0"/></clipPath><clipPath id="A"><path d="M409 476h2v4.32813h-2zm0 0"/></clipPath><clipPath id="B"><path d="M419 479h9v1.32813h-9zm0 0"/></clipPath><clipPath id="C"><path d="M425 480h2v.32813h-2zm0 0"/></clipPath><clipPath id="D"><path d="M433 478h8v2.32813h-8zm0 0"/></clipPath><clipPath id="E"><path d="M446 479h8v1.32813h-8zm0 0"/></clipPath><clipPath id="F"><path d="M452 480h2v.32813h-2zm0 0"/></clipPath><clipPath id="G"><path d="M460 478h7v2.32813h-7zm0 0"/></clipPath><clipPath id="H"><path d="M144 465h4v4h-4zm0 0"/></clipPath><clipPath id="I"><path d="M144 451h4v5h-4zm0 0"/></clipPath><clipPath id="J"><path d="M144 438h4v4h-4zm0 0"/></clipPath><clipPath id="K"><path d="M144 425h4v4h-4zm0 0"/></clipPath><clipPath id="L"><path d="M144 411h3v6h-3zm0 0"/></clipPath><clipPath id="M"><path d="M144 397h2v7h-2zm0 0"/></clipPath><clipPath id="N"><path d="M144 384h4v6h-4zm0 0"/></clipPath><clipPath id="O"><path d="M144 373h4v2h-4zm0 0"/></clipPath><clipPath id="P"><path d="M144 358h4v5h-4zm0 0"/></clipPath><clipPath id="Q"><path d="M144 343h2v8h-2zm0 0"/></clipPath><clipPath id="R"><path d="M144 341h2v4h-2zm0 0"/></clipPath><clipPath id="S"><path d="M144 330h2v8h-2zm0 0"/></clipPath><clipPath id="T"><path d="M466 331h2v3h-2zm0 0"/></clipPath><clipPath id="U"><path d="M144 318h4v5h-4zm0 0"/></clipPath><clipPath id="V"><path d="M465 317h3v2h-3zm0 0"/></clipPath><g id="W" clip-path="url(#clip1)"><path fill="#fff" fill-opacity="0" fill-rule="evenodd" d="M0 0h1000v1000H0zm0 0"/><path fill="#d3d3d3" fill-opacity="0" fill-rule="evenodd" d="M162.15234 355.86719l-.23437.29297.0586.23437.11718.17188.17578.23437.29297.34766.11328.0586.11719-.17188.0586-.23438.17577-.17578.46485-.17578h.69922l.23437.29297.28906.8164.0586.17579.17578.23046.35156.23438.69922.69922.17188.17578.23437.34765.23438.41016.28906.58203.41015.46485.23047.23437.23438.17578.11719.23047.17578.29297.17187 1.16406v.23438l.0586.28906.05859.11719.11719.11719.34765.41015.11719.17188.17578.17578.17578.23437.11719.17188.17188.35156.05859.23438.23437.40625.23438-.0586-.17578.17578-.0586.92969h-.58203l-.23437-.11328-.34766.11328-.11719.11719-.05859.29297-.0586.17578-.11718.17187-.46484.29297-.0586.23438-.0586.11328v.64453l.0586.17187v.41016l.0586.0586v.40624l.05859.40625.11719.17579.05859.05859.23047.64062-.0586.29297v.69922l-.05859.58203v.23438l-.0586.23047-.05468.35156v1.92187l.05469.1172h.42578l-.36719.11718-.02344.35156.89063 1.16797 1.74219.53906 1.33984.35938v.53906l.08984.8086.53516.71484 1.51953.26953.89063-.08594.08984 1.16406.53516.1797 1.16015-.1797 2.05469-.98437 1.16016-.36328 1.8789-.17578 1.69531-.1797-.17968.71876-1.51563.08594-1.25.08984-.80469.26953-1.07421.8086.26953.71875.53515.89843-.17968.625-.26563.8086.26563 1.07812.625.89844.80468.17969 1.25-.1797-.26562.72267.09766.5039.05468.29297v.17188l.0586.29296v.40625l.17578.1172.35156.11718h.40625l.29297-.17578.11328-.11719.0586-.11719.11718-.23047.0586-.17578.35156-.46484.23047-.17578.17578-.0586.17578.0586.0586.17578.11718.98828.05469.46875.0586.17188.11718.23437.17578.0586.8164.05859h.28907l.11719.23437.05859.40625.0586.35156v1.10547l.11718.29297.11719.34766.28906.69922.17578.35156.58203.7539.35157.17579.17187.0586.46875.23437.64063.46484.34765.23438.29297.17578.29297.05468.23047.0625.8164.34766.29297.17578.11328.17188.35157.35156.11719.17578.52343.64063v.28906l.0586.35156v.34766l.05859.35156.0586.28906.11718.0586.17188.05859h.17578l.58203.23437.17578.1172.17578.28905.17578.23438.11328.23437.29297.23047.11719.11719v.41016l.0586.05468.28906.23438.23437.11719.0586.11718.11718.17188.0586.11719.23047.23437.05859.17578.23437.0586.1172.05859-.1172.11328-.05859.11719v.11719l-.11719.29296-.11719.28907v.58203l.17579.11719.11718.05859.0586.11719.11719.11719.11328.05859.17578.34765.0586.35157.05858.40625v.17578l-.05859.17578-.11719.69922v.17187l.1172.17579.29296.29296h.40625l.17578.1172.11719.17187.11719.29296v.23438h-.52735l-.23047-.23438h-.23437l-.17578.0586-.0586.69922.0586.34765.11719.17579.17578.41015.11718.23047.28907.46875.17578.05469h.52344l.23437.0586.75781.64062.0586.29296v.23438l.05859.0586.23047.34765v.35156l-.11719.17188v.29297l.29297.28906.29297.17578.17187.0586.29297.17577.29297.1172.58203.40624.28906.23438.29297.17578.21875.16015.01563.01172.23047.17579.64062.52343.17578.23438.1172.17578.17577.17578.11328.17188v.64062l.1172.17578.46874.11719.58203.11719.23438.05859.23047.11328.29297.11719.11328.0586.58593.35156.28907.17187.17578.0625.17578.05469.17578.0586.69922.35155.28906.17579.23438.05468.28906.17578.23437.1172.64063.40624.29297.11719.17187.0586.23438.05859.41015.05859.23047.0586.23438.11718.0586.17188-.41017.17578.46875.0586.0586.29296.11328.23438.17578.05468.23438.0586.17578.05859.40625.11719.64062.23437.11719.17188.0586.23437v.17578l-.0586.1172-.0586.40624.23438.23438.11719.05859.34766.11719.64062.23047.17578.11718.28906.1172.17578.17577.23438.46485.58203 1.10546.17578.17579.34766.17578.17578.11719.35156.11718 1.04688.52344.23437.0586.46485.11327.29297.0586.46484.17578.75781.58203.23438.23438.34765.46484.17578.17578.28907.23438.8164.69921.29297.17579.28906.28906.29297.17578.29297.28906.69531.64063.17578.17578.29297.23437.28907.23438.46875.28906.64062.58203.34766.23438.23437.29297.34766.34765.35156.46485.9336.99218.34765.40625.11719.17579.23437.05859.11328.11719.64454.17578.23047.11328.23437.0586.29297.17577.23047.1172.9336.69921.40624.40625.23438.17578.40625.17578.23437.11719.8164.34766.34766.23437.23438.11719.29297.28906.23047.11719.7578.35156.35157.17188.23047.05859.29297.11719.23437.0586.8711.17577h.8164l.46875.23047.17188.0586.875.69921.46484.1172.29297.05858.17578.0586.23047.0586.46875.05859.34766.05859.35156.0586.40625.05859h.29297l.17187.0586v.23046l.17578.17578h.29297l.34766.0586.35156.05859.69922.11719h.64063l.46484-.23438.29297-.17578.17187-.11719.41016-.17187.28906-.17578.9336-.46485.46875-.29297.52343-.29296.46485-.17188.46484-.17578 1.05078-.46485.28906-.11718.41016-.11719.28906-.11719.52735-.17578 1.51562-.69922.58203-.34765.28907-.0586.29297-.0586.34765-.11718.875-.23047.35156-.11719h.11329l.23437-.05859.875-.23437.23438-.0586h.8125l.35156-.0586.8164-.11718.17188-.0586.35156-.05468.29297-.0586.23047-.05859.8164-.17578.17579-.0586h.34765l.23438-.05859.46484-.11718.75781-.17188.23438-.0586h.34765l.41016-.11718.28906-.0586 1.28516-.05859h.28906l.41016-.0586.23047-.05858h.17578l.875-.1172h.40625l.41015-.11718h.34766l.35156-.11328.8711-.0586h1.75l1.04687.28907.41016.11719.28906.11718.35156.11719.28907.11719 1.05078.17187.28906.0586h.29297l.29297.05859.17187.0586.41016.05859.17187.0586.1172.05858h.11718l.11719.0586.35156.0586h.11328l.41016.0664 1.92187.39453 1.92578.39453 1.51953.44922 1.69532.71875 2.14453.80469 1.60547-.71875 1.42968-.80469 1.16016-1.07813 1.25-.44921 3.03516-.71875 1.875-.35938 2.14453-1.34765 2.23437-1.25391 2.5-1.25781 1.69531-.44922 1.78516-.17969 1.16016-.26953.625.53906 1.33984-.26953.71485-.98828.98437-1.34375.44531-.17969.80469-.35937 1.875-.53907 1.78516-.44921 1.25-.26954 1.16015-.08984 1.69922-.08984 1.96094-.26954 1.25-.08984h.53906l.625-.08984h.89063l2.14453-.17969 2.41015-.17969 2.58985-.08984 1.69531.17969 1.60938.08984 1.42968.35938 1.16016.71875 1.875.98828 1.16015 1.52734.26563.71484.6289.08985.35548.89844.53515.53906.53516 1.52734 1.07422.35938h.53515l-.80469.53515.08985 1.70703.71484 2.69532.89063.80468.89453.98829.71484 1.2578 1.78516.53907 1.51953-.17969.35547 1.34375 1.60937-.80469.98047-.53906.26953.26953.31641-.21484.21875-.14453.80078.44922.44922-.35938h.35547l.53515-.26953.53907-.71875.53515-.26953.625-.98828 1.16016.44922.83984.3711 1.39454.61718 1.6953-.17969h1.60548l1.78515.08985.17969-1.70704.53516-1.34375.80468.26954.4922.84765.40233.40625-.08984.53906v.35938l.71485.44922.71093-.26953h1.42969l.35938.98828.4453 1.25781.71485 1.34375 1.25.6289 1.69531.62891.71485-.17969.17969-.53906.98046-.08984.44922.35937.08594 1.25782-.26563.6289-.53515.17969v.53906l.71484.98438.26563.53906.98437.98828.80078 1.07813-.26562.35937-.08985.89844-.625 2.33203-.35546 2.0664-.08985 1.79298-.17969.71875-.08984.53906v1.4375l-.98047 1.88281-.35937 1.70703-.53516.89844-.80469 1.16797-.26562.53906 2.05469 1.2539.08593.35938-.35546.53906-.08985-.17968v.80859l.08985 1.4375-.44532.71484-1.07422.09375-.26562.71485.53515.89844.8047.71875 1.16015.80859 1.33984.26953.44531.35938-.35546.44921-1.78907-.08984-1.25-.44922-.71484-.71875-.625-.08984-.17578 3.58984-.1875 1.3086h89.35937V311.70313h-55.26953v49.08203l.76172.125 3.28906.54296 2.02344 2.83594v2.7539l2.35156.33204 2.34766.33203h4.05078l-1.3789 4.16016-2.02344.70703-2.02344.70312-.54297.34375-2.59375 1.6172-.1875.11718-2.02344-2.07813-.73046-2.74218-2.67188-2.07813-1.375-3.5-.0664-.08203-1.95704-2.67188 2.75-1.41796v-49.08204H294.42187v91.41407l.1172.03125.1328.01172.07422.07421.10547.04688.08985.0586.08593.05859.08985.0586.29687.29687.0586.08984.03125.11719.02734.11719.01563.13671-.03125.1172-.0586.08983-.0586.08594-.04296.10547-.04688.10156-.02734.1211v.14453l.17578.26953.14844.14844.07422.08594.07422.07421.04296.10547.0625.08985.0586.08593.04297.10547.0586.08985.04687.10156.04296.10547.0586.08594.11719.17968.07421.07422.0625.08594.0586.08984.04297.10547.0586.08985.05858.08593.0625.08985.0586.08984.04297.10156.11719.17969.07421.07422.0586.08594.07422.07421.08984.0586.10547.04687h.14844l.1328-.01562.13282.01562.10156-.04687.07422-.07422.04688-.10156-.01563-.13281v-.14844l-.04687-.10547-.02735-.11719-.04687-.10156-.02735-.1211-.04296-.10156-.0625-.08984-.04297-.10156-.04297-.10547-.03125-.11719-.01563-.13281-.01171-.13672.08593-.0586.0586-.08593.12109-.03125.04297.10547.01562.1328v.1172l.0586.10156.0586.08984.08983.0586.14844.14843.0586.08985.04296.10547-.01171.10156.08593.0586.10547.04687.08594.0586.08984.05858.07422.07422-.11719.02735-.10546.04687-.08594.0586-.07422.07421-.0586.08985-.0625.08594-.02734.12109-.04687.10156-.04297.10547-.03125.11719-.01172.13281-.01563.13281v.14844l.02735.11719.04687.10547.04297.10156.0586.08984.07421.07422.08985.0586.07422.07421.08984.0586.0586.08984.04296.10547.04688.10156.11719.03125.1328.01563h.14845l.11718-.03125.10547.04297.04297.10547.04688.10156.02734.1211L299.5 410l.02734.11719.03125.1211.02735.11718.10547.04297.10156.04687.13281-.01562.14844.14844.0625.08593.07422.07422.07031.07422.08984.0625.10547.04297.10156.04297.1172.03125.13671.01562.11719-.03125.07422-.07422.02734-.11718-.01172-.13282-.03125-.12109-.02734-.11719.04297-.10547h.11719l.08984.0625.11719.02735h.14843l.13282.01562h.14843l.13282.01563.1328-.01563h.14845l.1328-.01562.13282-.01172.13672.01172.11719-.02735.13281-.01562.1914-.0586-.05859.17579-.01562.1328-.02735.1211-.01562.13281-.0586.08594-.1328.01563-.10548.04687-.10546.04297-.1172.03125-.11718.02735-.26563.03125h-.14843l-.13281.01562-.07422.07422.05859.08594.14844.14843.11719.1797.07421.0703.08985.0625.08984.0586.08594.0586.08984.05858.10156.04297.10547.0625.10547.04297.08594.0586.10547.04687.10156.04297.17969.11719.0586.08984-.04298.10156-.04687.10547.01562.13281.22266.22266.0586.08985.04296.10156.03125.1211.04297.10155.01563.13282.03125.11718.01171.13672.03125.11719.14844.14844.10156.04297.10547.04296.1172.03125.1328.01563.13672.01563h.11719l.11719-.03125.08984-.0586.04297-.10547.04688-.10156.04296-.10547.03125-.11719.01172-.1328v-.14845l-.01172-.1328-.01562-.13282-.03125-.11719-.04297-.10547-.04688-.10547-.04296-.10156-.04297-.10547-.01563-.13281.01563-.13281.02734-.11719.03125-.11719.02735-.1211.04687-.10155.08984-.0586.08594-.0625.07422-.07422.08984-.05859.22266-.22266.0586-.08593.07421-.07422.11719-.17969.0586-.08594v-.14844l-.07423-.07421-.10156-.04688-.10547-.04297-.10156-.04297-.0586-.08984-.04687-.10547-.02734-.11719.08984-.05859.11719-.03125.10156-.04297.17969-.11719.14844-.14843.01172-.13282-.01172-.10546-.08985-.0586-.1328.01563h-.14845l-.1328.01562-.13282-.01562-.1211-.03125-.08593-.0586-.07422-.07422-.0586-.08984-.0625-.08594-.11718-.17969-.0586-.08593.03125-.1211.08594-.05859.1211-.03125.05859-.08594v-.1211l-.03125-.11718-.0586-.08984-.05859-.08594-.04687-.10547-.02735-.11719-.01562-.1328.0586-.08985.07421-.07422.08984-.0586.1172-.17968.07421-.07422.0586-.08594.14843-.14844.1211-.03125.1328-.01562.13282.01562.07422.07422.04297.10547.01562.13281-.03125.1172-.11719.03124-.1328.01172-.14844.14844-.04297.10547-.04688.10156-.02734.1211-.03125.11718v.14844l.03125.11719.04297.10546.05859.08985.07422.07031.07422.07422.11719.03125.12109.02734.11719-.02734.1328-.01563h.1172l.08984.0586.07422.07422.04687.10546.0586.08594.10156.04688.13281.01562.10547.04297.08594.0586-.01172.10546-.07422.07422-.17969.11719-.05859.08984-.08984.0586-.07032.07422-.07421.07421-.0625.08985-.02735.11719-.01562.1328.01562.13282-.01562.13281v.14844l.01562.13281.02735.1172.03125.12108.07421.07422.08985.0586.08594.0586.08984.05858.11719.03125v.08594l-.10157.04688-.08984.0586-.26563.03124-.11718.02735h-.14844l-.10547.04296-.10156.04688-.0586.08984-.0625.23438-.01171.13281-.03125.1211-.01563.1328v.29298l-.01172.1328.01172.13673.01563.1328.1328.01563.13282.01172.1211.03125.08593.0586.07422.07421.04688.10547.04296.10157.01563.1328v.44532l-.01563.13281v.44532l.03125.26562.02735.11719.01562.13281.03125.11719.08594.21094.03125.26562v.14844l-.03125.11719-.02734.11718-.03125.1211-.02735.11719-.03125.11718-.03125.1211-.01171.1328-.01563.13282.08984.0586.1172-.03125.10155.01562.04688.10547-.03125.26562v.44141l-.04297.10547-.04688.10547-.04296.10156-.04297.10547-.0586.08594-.03125.12109-.04296.11719-.03125.11719-.01563.1328.01563.13282.05859.08984.10547.04688.08594.0586.05859.08593-.01172.13672-.03125.11719-.04297.10156v.44531l-.01562.13281v.14844l-.03125.11719-.04297.10547-.02735.11719-.04687.10546-.04297.10157-.03125.12109-.02734.11719-.03125.13281-.03125.11719-.02735.11719-.04297.10546-.03125.1172-.03125.12108-.01171.13282-.01563.13281v.29688l.02734.11718v.14844l.04688.39844.02734.11719.0586.08984.12109.03125h.14844l.13281-.01563.0586.08985v.11719l-.0586.08984-.08984.0586-.10157.04296-.10546.04688-.08985.05859-.08594.0586-.13671.01562-.1172-.03125-.1328-.01563-.10157.04688-.0625.08594-.01172.13671-.01562.13282-.03125.11719-.02735.11718-.01562.13281-.03125.1211v.29687l.01563.13282.03125.11718v.14844l.01171.13281v.14844l-.02734.11719-.04688.10156-.02734.1211-.03125.11718-.0586.08985-.07421.07421-.10156.04297-.10547.04688-.11719.02734-.1211.03125-.10156-.04687.0586-.08594.10547-.04688.02734-.11718.03125-.11719.02734-.1211.03125-.11718v-.14844l.01563-.13281-.03125-.11719-.04297-.10547-.10547.01563-.07422.07422-.10156.04296-.08984.0625-.07422.07422-.04297.10157-.01563.1328-.03125.1172L304.25 426l-.03125.11719-.02734.11719-.03125.12109-.02735.11719-.03125.11718-.04297.10547-.08984.0586h-.08984l-.1172-.03125-.03124-.08594.01562-.13672-.03125-.11719v-.14844l-.01171-.1328v-.14844l-.0625-.23438-.02735-.1211-.04297-.10156-.04687-.10546-.0586-.08594-.05859-.08985-.04297-.10546-.0625-.08594-.14844-.14844-.0703-.07422-.10548-.04687-.10547-.04297-.10156-.04297-.29687-.29688-.08985-.07421-.08594-.0586-.10546-.04297-.08985-.0625-.08594-.0586-.10546-.04296-.08985-.0586-.08594-.0625-.07421-.0703-.10547-.04688-.08594-.0586-.10547-.04296-.08984-.0625-.10156-.04297-.10547-.04297-.08594-.0586-.10547-.04687-.10547-.04297-.10156-.04687-.08985-.0586-.10156-.04297-.10547-.04296-.08984-.0625-.11719-.02735-.13281-.01562-.13281.01562H299.75l-.13281.01563-.11719-.03125-.08984-.0586-.07422-.07422-.08985-.05859-.10156-.04688h-.14844l-.12109-.02734-.10156-.04297-.07422-.07422-.11719-.17968-.08984-.0586-.10156-.04297-.08985-.0625-.10547-.04296-.08984-.0586-.08594-.0586-.10547-.04687-.0586-.08594-.05858-.08984-.04297-.10547-.04688-.10156-.07422-.07422-.08594-.0586-.07421-.07421-.08985-.0586-.22265-.22265-.04297-.10547-.03125-.26563.10547-.04296h.14453l.10547.04296.07421.07422.08985.0586.08594.0586.10546.04687.08985.05859.14844.14844.0703.07422.14845.14843.0625.08594.07421.07422.08594.0586.07422.07421.08985.0625.08984.0586.08594.05859.26953.17578.10156.04688.10547.04296.10156.04297.04688-.07421.05859-.08594.07422-.07422.07031-.07422.10547.04297.07422.07422.0586.08984.04296.10156.04688.10547.04296.10547.1211.02735.11719-.02735.07421-.08984.04297-.10547.0586-.08985.07422-.07421.10546-.04297.1172-.02735.1328.01172.08985.0586.14844.14843.05859.08985.04297.10547.04687.10156.04297.10547.04297.10156.10547.04688.10547.04296.13281.01563.08594-.0586.0586-.08984.07421-.07422.10547-.04297.11719.02735.10547.04687.10156.04297.10547.04297.10156.04688.17969.11718v.11719l-.01563.13281.01563.13281.01562.13672.0586.08594.10156.04688.1211.02734.11718.03125h.14844l.11719-.03125.05859-.08984.17969-.1172.05859-.08983.07422-.07422.0586-.08594.11718-.17969.17969-.11719.11719.03125.08984.0586.04297.07422-.01563.1328v.1172l.08985.05859h.14843l.13282-.01563.1328-.01171.26563-.03125.10547-.04297.11719-.03125.1211-.02735.07421-.07421.07031-.07422.0625-.08985-.01562-.10547-.04688-.10156-.10156-.04297-.10547-.01562-.11718.02734-.26563.03125h-.14844l-.07421-.07422-.08985-.0586-.11719-.03124-.11718-.02735-.13282-.01562h-.14843l-.13282.01563h-.29687l-.10547-.04688-.14844-.14844-.04297-.10156-.05859-.08984.22266-.22266.08593-.0586.10547-.04296.11719-.03125.13281-.01563.13281.01563.13672.01562.10157.04297.1328-.01172.08985-.0625.10156-.04297.0625-.08984-.04687-.10156-.08984-.0586-.1172-.03125-.10155-.04296-.0586-.08985-.0625-.08984v-.11719l.01563-.13281.10547-.04688.07421-.07031v-.1211l-.08984-.05859-.03125-.11719.08985-.05859.07421-.07422.04297-.10547.0586-.08984.04687-.10156.01563-.13281v-.14844l-.04688-.10547-.04297-.10156-.08984-.0586-.13281-.01562-.10157-.04297-.13671-.01563-.1172-.03125h-.4453l-.13282-.01562-.13281-.01172-.13281-.01563-.11719-.03125h-.14844l-.13281-.01562-.13281-.01172-.26563-.03125-.1211-.04297-.08593-.0586-.07422-.07421v-.14844l.01172-.13281.10547-.04688.10156-.04296.13281-.01563h.15235l.13281-.01562h.29297l.1211.03125.10156.04296.08984.0586.23438.0625.12109-.04688.08984-.05859.10156-.04297.13282-.01562.10547.04296.10156.04688.13281.01172.1211-.02735h.14453l.12109-.03125.11719-.02734.10547-.04687.07421-.07422.08594-.0586.14844-.14843.0586-.08594.04687-.10547.02734-.11719.01563-.10547-.10156-.04296-.08985-.0586-.11719-.03125-.10546-.04297-.08985-.0625-.07422-.08594-.07422-.07421-.10156-.04297-.10547-.04688-.10156-.04297-.0586-.08984-.04687-.10156-.08594-.21094-.0625-.08594-.05859-.08984-.07422-.07422-.08594-.0586h-.26953l-.11719.03126-.08984.05859-.10156.04297-.13281.01562-.10547-.01562-.02735-.11719-.0625-.08984-.11718-.03125-.10157-.04297-.14843-.14844-.03125-.11719-.01563-.10546.07422-.07422.17969-.1172.11719-.02733.11718-.03125.13672.01562.10156.04297.10547.04297.10156.04687.10547.04297.1172.03125.1328.01563.1172.02734.1328.01563.10547-.01563.08985-.0586-.07422-.07421-.10547-.04297-.07422-.07422-.07422-.08984-.14844-.14844-.08593-.0586-.08985-.05859-.07422-.07422-.08984-.0586-.10156-.04687-.1211-.02734-.10156-.04688-.10547-.04296-.11719-.03125-.10156-.04297-.1211-.03125h-.14843l-.11719.03125-.10546.04297-.08594.0625-.17969.11718-.08594.0586-.08984.0586-.10547.04687-.08594.05859-.10547.04297-.10156.04297-.10547.04687-.07422.07422-.05859.08985-.0586.08593-.04687.10547-.0586.08594-.07421.07422-.13281-.01172-.1172-.03125h-.11718l-.07422.07422-.08984.0586-.07422.07421-.08984.0586-.08594.05859-.10547.04687-.10156.04297-.13672.01563-.10156-.04297-.14844-.14844-.10547-.04688h-.08594l-.10547.04688-.10156.04297-.1211.03125-.11718-.03125-.07422-.07422v-.11719l.03125-.1211.07422-.0703.0586-.08985.07421-.07422.11719-.03125.10547-.04296h.29297l.13281-.01563.13672-.01563.10156-.04296.08985-.0586.10156-.04687.08984-.0586.13281-.01171.08985.05859.13281.01172.08984-.0586.08594-.05859.10547-.04297.08984-.0586.08594-.0625.08985-.05859.14843-.14843.0586-.08594.05859-.08985.10547-.04296.13281-.01563.11719.02735.1211.03125.05859-.0586.05859-.08984.03125-.26563.02734-.11719.10547.01172.13281.01563.10157-.04297.08984-.0586.0586-.08984.07421-.07422.0586-.08984.04687-.10156.01172-.13281-.01172-.13282-.04687-.10547-.14844-.14843-.0586-.08985-.05859-.08594-.04297-.10546v-.44532l.01563-.1328v-.14845l.01172-.1328-.0586-.0586-.08984.0586-.10156-.04298-.17969-.11719-.08594-.05859-.0625-.08984-.0586-.08985-.07421-.07421-.08594-.0586-.1211.03125-.10155.01172-.10547.04688-.08594.05859-.10547.04297-.14844.14844-.08984.05859-.08594.0586-.08984.0625-.10547.04296-.13281.01563v-.1211l.10547-.04297.11718-.03125.07422-.0703.04297-.10548v-.14844l-.02734-.11718-.14844-.14844-.13281-.01563h-.14844l-.11719.03125-.10547.04297-.10156.04297-.08984.0625-.11719.02735-.07422-.07422.01172-.13281-.04297-.10157-.04297-.10547-.08984-.05859-.11719.02734-.1211.03125-.11718.03125-.10156.04297-.1211.03125-.10156.04297-.10547.04297-.08984.0586-.10156.01562v-.11719l.01562-.13281-.0586-.08985-.07421.04297-.14844.14844-.0586.08985-.07421.07421-.04688.10547-.04296.10156-.07422.07422-.0586.08985-.07422.07422-.05859.08593-.07422.07422-.08984.0625-.07422.07031-.07422.07422-.10156.01563-.13281.01562-.10547-.04296v-.1211l.14843-.14844.04297-.10156.0586-.08984.04687-.10156.04297-.10547.0586-.08985.03124-.11719.04297-.10156.03125-.1211.02735-.11718.04687-.10547.04297-.10156.04297-.10547.07422-.07031.08984-.0625.08985-.0586.10156-.04296h.29687l.26563-.03125.10547-.04297-.07422-.07422-.11719-.03125-.10547-.04297-.08984-.0586-.10156-.04687-.08985-.0586-.10156-.04296-.10547-.04297-.08984-.0625-.08594-.0586-.10547-.04296-.10156-.04297-.1211-.03125-.11718-.03125-.10157-.04297L297.5 410.25l-.10156-.04297-.08985-.0586-.04296-.10546-.01563-.13281.10156-.04297.13281-.01563.13672.01563.13282-.01563.10156-.04297.0586-.08984.01562-.10547-.08985-.0586-.07421-.07421-.10157-.04297-.08984-.0586-.14844-.14843-.04297-.10547-.01562-.13281v-.29297l-.0586-.08985-.08984-.05859-.07422-.07422-.04297-.10547-.03125-.11718-.0586-.08985-.07421-.07422-.11719-.02734-.07422-.07422-.08984-.0586-.08984-.0625-.08594-.05859-.07422-.07421-.0586-.08594-.04687-.10547-.08594-.0586-.14843-.14843-.19532-.0586-.1328.01563-.10157.04297-.07422.07422-.04688.10156-.04296.10547-.0586.08984-.0586.08594-.29687.29687-.08984.0586h-.08594l-.0625-.08594-.04297-.10547.03125-.11719.0586-.08984.02734-.11719-.01172-.13281-.08984-.0625-.10547.04688-.11719.02734-.11719.03125-.26953.17578-.10156.04688-.11719.02734-.10546.04687-.08985.0586-.10156.04297-.0586-.08594-.04687-.10547.01563-.13281.04687-.10547.07031-.07422.07422-.07031.0586-.08985v-.14843l-.04297-.10547h-.23829l-.10156.04687-.03125.11719-.02734.11719-.03125.1211-.07422.04296-.13281.01563-.07422-.04688-.04297-.10156-.04297-.10547-.04687-.10156-.04297-.10547-.1211.03125-.10156.04297-.13281.01562-.11719.03125-.10547.04297-.08984.0586-.10156.04687-.1211.02734-.13281.01563-.10156-.04297-.0586-.08985-.04687-.10546-.04297-.10157-.04297-.10546v-.1172l.0586-.08984.08593-.05859.17969-.11719.10156-.04687.10547-.04297.10547-.0586.10156-.04296.08985-.0625.10156-.04297.10547-.0586.10156-.04687.08984-.0586.10547-.04296.10156-.04297.08985-.0625.10156-.04297.13672-.01563.11719.03125.10156.04297.1211.03125.10156.04297.10546.04688.10157.04296.10547.04297.10156.04688.10547.04297.10156.04297.10547.04687.08594.0586.10546.04296.1172.03125.10546.04297.10156.04688.08985.0586.10547.04296.10156.04297.10547.04687.11719.02735.10156.04687.1211.02735h.14843l.08594-.0586.01562-.10156.0586-.08984-.02735-.1172-.07422-.07421-.11719-.17969-.07421-.07422-.08985-.07421-.17969-.1172-.08593-.05859-.10547-.04296-.10156-.04688-.26954-.17578-.05859-.08985-.07422-.07421-.0586-.08985-.04296-.10156-.03125-.11719-.01563-.13672v-.5625l-.01171-.1328-.01563-.13282-.03125-.11719-.01562-.13281-.01172-.13281-.03125-.1211-.22266-.22265-.0586-.08594-.01562-.10547.03125-.11719.13281-.01562v-91.41406H172.9922v1.45312l-.0586.23438-.35156 1.05078-.17187.52343-.1172.34766-.17577.41016-.11719.17187-.23438.29297-.23046.0586h-.35157l-.11718.05859-.23047.40625v.29297l.11719.17578.23046.23047.1172.23437.64062.75781.29297.46485.17578.23437.23047.35156.23437.34766.64063.8164.17578.46485.17187.41016.11719.69531.17578.46875.11719 1.39844.0586.46484v.875l.11718 1.04688v4.78125l-.0586.46484-.35156 1.28125-.17578.52344-.11328.41015-.35156.9297L172.93359 336l-.23437.58203-.11719.17578-.17187.34766-.17578.40625-.35157.8164-.0586.29297-.11327.29297-.11719.28906-.0586.17579-.11718.875-.0586.40625-.05859.11718-.0586.17579-.05859.17187-.23047.52734-.11718.17188v.23437l-.11719.23438-.0586.17187-.17577.58594v.28906l-.0586.17579v.29296l-.0586.11329-.05859.52734v.17187l-.05468.23438v2.6211l-.17578.8164-.1172.17578-.17577.23438-.1172.17187-.11327.23438-.58594.93359-.23047.28906-.29297.46485-.17578.23437-.28906.35156-.35156.69922-.11328.23047-.17579.41016-.17578.23046-.40625.52735-.8164.69922-.29297.17187-.28906.23438-.17579.11719-.17578.17578-.52344.40625-.52734.17578-.17187.17578-.23438.05469-.64062.17578h-.75782m12.21094 31.02344l-1.07422.44921.35938.89454 1.25-.71485.44531-.53906-.98047-.08985"/><path fill="#d3d3d3" fill-opacity="0" fill-rule="evenodd" d="M201.50781 416.59766h-.89453l.44922.6289.98047.35938.80469-.08985.4453-.98828-.17577.08985-.71485-.35547-.89453.35547m154.6211 59.0703l-.0586-.52343v-.29297l.11328-.29297.0586-.23046.46875-.46875h.11328l.11719-.11329.11718-.05859h.17579l.23437-.0586h.34766l.23437.0586.11719.0586.23047.17187.0586.17578.11718.58203v.29297l-.11719.17578-.17187.28906-.17579.17579-.52734.52343-.23047.23438-.11719.0586h-.17578l-.11718-.0586-.40625-.29297-.17579-.11719-.11718-.0586-.0586-.11327-.05468-.1172m6.64062-10.95702l-.0586-.17188v-1.10937l.0586-.17188.17578-.0586.17188-.05858h.17578l.23437-.0586.1172.0586.05858.69921-.05859.17188-.11719.17578-.11718.0586-.23438.52343-.11328.0586h-.23438l-.05859-.1172m9.61328-14.39062l-.11719-.17578v-.69922l.29297-.875.1172-.17187.17577-.35156.11328-.23047.1172-.29297.35155-.75781.1172-.23047.17187-.23438h.17578l.11719-.0586h.64062l.11719.0586.23437.23438.17188.11328.35156.29297.11719.11718.11328.17579v.11328l.11719.05859.11718.11719v.69922l-.05859.17578v.23047l-.0586.17578-.34765 1.05078-.11719.23047-.11719.23437-.11718.0586-.23047.23437-.64063.28906h-.875l-.41015-.11718-.64063-.46485"/><path fill="none" stroke="#bebebe" stroke-linecap="round" stroke-linejoin="round" stroke-miterlimit="10" stroke-width=".5" d="M467.95703 311.69531H144.02734v168.625h323.9297v-168.625"/><g clip-path="url(#a)"><path fill="#fff" fill-opacity="0" fill-rule="evenodd" d="M144 475.89063v4.4375h.0039H144v-46.41797 41.98046"/></g><g clip-path="url(#b)"><path fill="#fff" fill-opacity="0" fill-rule="evenodd" d="M144 427.07031v1.2539-116.65233h.0039H144V427.0703"/></g><path fill="#50fcfc" fill-rule="evenodd" d="M144 428.32422v5.58594l.0039-.00391v-5.57813l-.0039-.0039"/><g clip-path="url(#c)"><path fill="#fff" fill-opacity="0" fill-rule="evenodd" d="M144.0039 480.32813v-46.42188l2.28126-2.39844-2.28125-3.17969V311.67188h26.625v49.51563l-3.89063 3.7461 3.89063 3.9375 4.4375-.1172 4.4414-1.70312 2.50781-2.11719-2.5078-2.33593-4.44141-1.3086-4.4375-.10156v-49.51563h26.6328v56.88672l-.83983.8125-3.60157 2.14063-3.08594 2.29687 3.08594 2.4922 4.4414-.80079 1.6875-1.6914-.76562-4.4375-.92187-.8125v-56.88673h17.7539v62.98829l-3.59765 3.58593-.84375.52735-4.4375.70312-3.73047 3.20703-.70703 2.10938-1.8164 2.33203-2.6211 1.29688-2.9414 3.14062-.83204 4.4375-.66797.67578-4.4375.35938-4.4375-.4297-4.4375.14845L175.8086 396l-.74218-1.08203L173.9453 396l-3.3164.4375-4.4375-.0625-4.21485 4.0625-.22265 1.91016-1.09375 2.52734L161.7539 408l.55859 1.3164 3.8789 2.03907 4.4375.3711 4.4375 1.52343.6797.5039-.6797 1.15235-1.99609 3.28516-2.4414 1.71093-4.4375 1.75782-1.78907.96875-2.64843 1.48437-2.42578 2.95703-.21875 4.4375 2.64453 2.40235 2.58203 2.03515 1.85547 1.9375 4.4375-1.14844 4.4375 1.72266 4.21875-2.51172.22265-.07422 4.4375-1.72656 4.4375-.76562 4.4375-1.40625.48047-.46485 3.96094-.9961 4.4375-1.02733 4.4375.70312 4.4375 1.01953 2.17187.30078 2.26953 2.91016 1.21094 1.52734 3.22656 2.17578 2.26563 2.26172 2.17188 1.70313 3.86718 2.73437.57031.5039 2.26172-.5039 2.17578-.05078 4.44141-.25781 4.4375-3.6289.51172-.5 1.94922-4.4375 1.97656-1.26563 3.14844-3.17188 1.28906-1.07812 3.39844-3.35938 1.03906-1.8711 4.00781-2.5703.4336-.3125 2.9336-4.125-.53126-4.4375-2.40234-2.4297-.83594-2.0078-3.60547-3.83985-.84375-.60156-3.59375-3.17969-4.08984 3.17969-.34766 1.78516-4.4375.27734-2.65625 2.3789-1.78125.26954-.41406-.26953-.1875-4.44141-3.83984-3.85547-4.4375-.32031-2.96485-.26172 2.96484-2.27734L230.375 396l.47656-4.4375-2.52344-3.6914-.22656-.7461-4.21094-3.6914-1.39062-.75-2.86719-4.4375-.17969-.1797-4.4375-3.40624v-62.98829h102.08204v119.8125l-.04297.02344.04297.03516.15625-.03516-.15625-.02344v-119.8125h22.1914v112.39454l-4.4414 1.15625-4.4375.17578-4.4375 1.61328-.13672.0586.13672.15624 4.4375 2.07422 4.32812 2.20703.10938.10547.16796-.10547 4.27344-.71094 1.96485.71094 2.47265 1.95313 1.47266-1.95313-1.47266-1.47656-1.44531-2.96094-2.99219-3.0039V311.67187h17.7539v57.79688l-4.4414.85547-4.4375.1914-4.4375.66016-2.91797 2.63281-.98046 4.4375-.4375 4.4375 4.33593 2.58204 4.4375 1.08203 4.4375.07421 4.4414-2.18359 2.13673-1.55469 2.30078-.90234 4.4375-1.16406 2.46094-2.3711-2.46094-2.29296-4.4375-.98047-1.59766-1.16407-2.83984-4.33984v-57.79688h13.3125v79.10157l-.625.78906.625.63672v27.10937l-4.4375.7422-4.23047 2.57812-.20703.08203-4.4375 1.76953-2.51953 2.58984.38281 4.4375 2.13672 1.77344 2.91015-1.77344 1.52735-.34765 4.4375-.00391.74219.35156 3.6953 4.15235v.40234l-3.30858 4.32031 3.30859 3.34375 3.08203 1.09375 1.35547 1.33594 2.16406-1.33594.34766-4.4375-2.51172-3.13672-4.4375-1.18359v-.40234l4.4375-.48047 4.4414.58984 3.48438-4.26172-.13281-4.4375-3.35156-3.32031-2.09766-1.1211-2.34375-2.45312-4.4375-.86719v-27.10937l.92187-.63672-.92187-.78906v-79.10156h13.3164v135.1875l-2.09765 2.40234 1.76562 4.4375.33204.28125.33984-.28125 4.09765-3.7461.60938-.6914-.60938-1.51563-4.4375-.88671v-135.1875h35.50782v83.44921l-.98047.87891.98047.8789 3.24219-.8789-3.2422-.8789v-83.44923h13.3125v63.10938l-3.01952 3.46484-.32032 4.4375-1.09765 1.28516-4.39844 3.15625 1.52344 4.4375-1.1211 4.4375 3.9961 2.0039 4.4375.34766 4.4375-.10937L439.71094 396l1.66015-2.84766 1.51954-1.58984-1.51954-3.09766-.15625-1.33984-1.3789-4.4414-2.6914-4.4375-.21485-.21094-4.4375-3.25391v-63.10938h31.07031v143.29688l-3.32031 3.16797 1.24219 4.4375 2.07812 2.04297 2.22656-2.04297.9336-4.4375-3.16016-3.16797V311.67187h4.4336v168.65625H144.0039"/></g><path fill="#50fcfc" fill-rule="evenodd" d="M146.28516 431.50781l-2.28125 2.39844v-5.57813l2.28125 3.1797m15.46875 2.40234l-2.64453-2.40235.21875-4.4375 2.42578-2.95703 2.64843-1.48437 1.78907-.96875 4.4375-1.75782 2.4414-1.71093 1.9961-3.28516.67968-1.15234-.67968-.50391-4.4375-1.52344-4.4375-.3711-3.87891-2.03905L161.7539 408l-1.09374-3.125 1.09375-2.52734.22265-1.91016 4.21485-4.0625 4.4375.0625 3.3164-.4375 1.1211-1.08203.74218 1.08203 3.69922.7539 4.4375-.14843 4.4375.42969 4.4375-.35938.66797-.67578.83203-4.4375 2.9414-3.14063 2.6211-1.29687 1.8164-2.33203.70704-2.10938 3.73047-3.20703 4.4375-.70312.84375-.52735 3.59766-3.58593v1.27734l-2.32032 2.3086-2.1211 1.33202-4.4375 1.7422-1.58593 1.36327-2.02344 4.44141-.82812.86328-4.4375 2.89063-.64063.68359L194.5508 396l-1.73048 1.75-4.4375 1.0625-4.4375-.21484-4.4375-.27344-4.4414-.9375-4.4375.59765-4.4375.33985L164 400.4375l2.1914 4.21484.19923.22266 4.23828 3.41016 4.4375.96484.125.0664 4.3164 3.32423.91406 1.11328-.91406 2.52734-1.1836 1.91016-3.2578 2.55468-2.69532 1.88282-1.74218 1.17968-4.4375 1.95704-1.8047 1.30468-.8125 4.4375 2.6172 2.32422 4.4375.17578 4.4375 1.38281 4.4414-1.3203 3.76563-2.5625.67187-.41798 4.4375-.3789 4.4375-.46094 4.4414-1.51953 3.45313-1.66016.98438-.21875 2.79297.21875 1.64453.42188 4.4375 2.23828 4.4414 1.2539.64844.52344 3.78906 3.84766 1.06641.58984 3.3711 3.3711 2.53515 1.0664 1.90234 1.60547 4.4375 2.0039 4.44141-.375 3.53125-3.23437.76172-4.4375.14453-.2539 4.4375-2.9961 1.17969-1.1875 3.25781-2.71875 1.74219-1.71875 2.35937-4.4414.33594-.22657 4.4414-3.4375.54688-.77343-.54687-1.96875-.22266-2.46875-2.03515-4.4375-2.1836-2.32813-2.97266-2.11328-1.46484-1.29688-1.66797 1.29688-1.89844 4.4414-.87109 3.56641-4.4375-3.40625-4.4375.64844-1.23047-.8086-.28906-4.4414-2.92188-2.9336-4.4375-.8125-4.14453 3.7461-.29297.33984-3.55078-.33984 1.2461-4.4375 2.30469-1.3164L227.41797 396l.8125-4.4375-1.41016-4.4375-2.92969-2.57031-3.48046-1.8711-.95703-1.42187-1.55079-3.01563-2.88672-2.30859v-1.27734l4.4375 3.40625.1797.17968 2.86718 4.4375 1.39063.75 4.21093 3.69141.22656.7461 2.52344 3.6914L230.375 396l-2.04688 2.16016-2.96484 2.27734 2.96484.26172 4.4375.32031 3.83985 3.85547.1875 4.4414.41406.26954 1.78125-.26953 2.65625-2.37891 4.4375-.27734.34766-1.78516 4.08984-3.17969 3.59375 3.17969.84375.60156 3.60547 3.83985.83594 2.0078 2.40234 2.4297.53125 4.4375-2.9336 4.125-.43359.3125-4.0078 2.5703-1.03907 1.8711-3.39844 3.35938-1.28906 1.07812-3.14844 3.17188-1.97656 1.26562-1.94922 4.4375-.51172.5-4.4375 3.6289-4.4414.25782-2.17579.05078-2.26172.5039-.5703-.5039-3.8672-2.73437-2.17187-1.70313-2.26563-2.26172-3.22656-2.17578-1.21094-1.52734-2.26953-2.91016-2.17187-.30078-4.4375-1.01953-4.4375-.70313-4.4375 1.02735-3.96094.9961-.48047.46484-4.4375 1.40625-4.4375.76562-4.4375 1.72656-.22265.07422-4.21875 2.51172-4.4375-1.72265-4.4375 1.14843-1.85547-1.9375-2.58203-2.03515"/><path fill="#00e8fc" fill-rule="evenodd" d="M166.1914 433.83203l-2.61718-2.32422.8125-4.4375 1.80469-1.30469 4.4375-1.95703 1.74218-1.17968 2.69532-1.88282 3.2578-2.55468 1.1836-1.91016.91406-2.52734-.91406-1.11329-4.3164-3.32421-.125-.06641-4.4375-.96484-4.23828-3.41016-.19922-.22266L164 400.4375l2.1914-2.11328 4.4375-.33985 4.4375-.59765 4.44141.9375 4.4375.27344 4.4375.21484 4.4375-1.0625 1.73047-1.75 2.07031-4.4375.64063-.6836 4.4375-2.89062.82812-.86328 2.02344-4.4414 1.58594-1.36329 4.4375-1.74219 2.1211-1.33203 2.3203-2.30859v2.125l-.18359.1836-4.25781 2.67577-3.1211 1.76172-1.3164 2.02735-1.4375 2.41406-3 3.1289-1.8164 1.3086-2.6211 2.70703L196.3164 396l-3.4961 3.53516-2.33984.90234-2.09766 1.23438-4.4375.71875-4.4375-1.09375-2.20703-.85938-2.23437-.4961-3.57422.4961 2.92187 4.4375.65235.1914 4.4414 2.65626 1.77735 1.59375 2.66015 3.10546 1.1914 1.33204-1.1914 2.72265-.76953 1.71485-1.40625 4.4375-2.26172 3.0664-3.25 1.375 3.25 3.16406 4.4375-1.875 4.4375.23047 4.4375-.58203 2.16797-.9375 2.27344-1 4.4375-.58594 4.4375.60938 4.0625.97656.375.20313 4.4414 2.60937 2.03125 1.625 2.40625 2.44531 3.60547 1.9922.83203.83202 4.4375 2.84766 1.22657.75781 3.21094 2.32031 4.4414-.57421 1.90625-1.7461 1.21875-4.4375 1.3125-2.32031 2.73047-2.11719 1.70703-1.82812 3.15625-2.60938 1.28125-4.28906.05469-.15234 4.38281-2.95704 1.71484-1.48046 1.2422-4.4375-2.95704-4.29688-.33984-.14062-4.09766-2.72266-1.71875 2.72266-.07812 4.4375 1.79687 1.84765 2.70703 2.58985-2.70703 4.37109-.14453.0664-4.29297 1.33204-.52344-1.33203-.35156-4.4375-.15625-4.4375-3.40625-3.1875-4.4375.45312-2.59375-1.70312-.45312-4.44141-1.39453-1.39844-4.4375-1.63281-3.35157 3.03125-1.08594 1.2461-4.4375-.3711-1.17968-.875.28125-4.4375.89844-3.02734L223.80858 396l.08203-.01172 2.98438-4.42578-2.1875-4.4375-.79688-.69922-4.4375-1.63672-1.05859-2.10547-3.15234-4.4375-.22656-.18359v-2.125l2.88671 2.3086 1.55078 3.01562.95704 1.42187 3.48047 1.8711 2.92968 2.57031 1.41016 4.4375-.8125 4.4375-3.52734 3.1211-2.3047 1.3164-1.24609 4.4375 3.55078.33984.29297-.33984 4.14453-3.7461 4.4375.8125 2.92188 2.9336.28906 4.4414 1.23047.8086 4.4375-.64844 4.4375 3.40625.8711-3.5664 1.89843-4.44141 1.66797-1.29688 1.46484 1.29688 2.97266 2.11328 2.1836 2.32813 2.03515 4.4375.22266 2.46875.54687 1.96875-.54687.77343-4.4414 3.4375-.33595.22657-2.35937 4.4414-1.74219 1.71875-3.25781 2.71875-1.17969 1.1875-4.4375 2.9961-.14453.2539-.76172 4.4375-3.53125 3.23438-4.4414.375-4.4375-2.0039-1.90235-1.60548-2.53516-1.0664-3.37109-3.3711-1.0664-.58984-3.78907-3.84766-.64844-.52344-4.4414-1.2539-4.4375-2.23828-1.64453-.42188-2.79297-.21875-.98438.21875-3.45312 1.66016-4.4414 1.51953-4.4375.46094-4.4375.3789-.67188.41797-3.76563 2.5625-4.4414 1.32031-4.4375-1.3828-4.4375-.17579"/><path fill="#50fcfc" fill-rule="evenodd" d="M170.6289 368.8711l-3.89062-3.9375 3.89063-3.7461v1.03906l-2.8125 2.70703 2.8125 2.84375 4.4375-.41406 3.59375-2.42969-3.59375-2.3203-4.4375-.38673v-1.03906l4.4375.10156 4.4414 1.3086 2.50781 2.33593-2.5078 2.1172-4.44141 1.70312-4.4375.11718"/><path fill="#00e8fc" fill-rule="evenodd" d="M170.6289 367.77734l-2.8125-2.84375 2.8125-2.70703v1.73438l-1.0078.97265 1.0078 1.01954 4.4375-.90625.17188-.11329-.17187-.10937-4.4375-.86328v-1.73438l4.4375.38672 3.59375 2.32031-3.59375 2.4297-4.4375.41405"/><path fill="#00d4fc" fill-rule="evenodd" d="M170.6289 365.95313l-1.0078-1.01954 1.0078-.97265 4.4375.86328.17188.10937-.17187.11329-4.4375.90625m3.78515 38.92187l-2.92187-4.4375 3.57422-.4961 2.23437.4961 2.20703.85938 4.4375 1.09375 4.4375-.71875 2.09766-1.23438 2.33984-.90234L196.31641 396l.9453-1.73047v6.32031l-.69921 4.28516.69922.42188 1.52734-.42188-1.52734-4.28516v-6.3203l2.6211-2.70704 1.8164-1.3086 3-3.1289 1.4375-2.41406 1.3164-2.02735 3.1211-1.76171 4.25781-2.67579.1836-.18359v2.0039l-4.44141 2.19532-.75.42187.75.94141 4.4414 1.21484v1.63672l-4.4414.11328-.94922.53516.94922.44531v2.46875l-3.01953 1.52344-1.41797 2.17188-4.4375-1.13672L198.375 396l2.51563 4.4375.80859 2.78125.38281 1.65625-.23437 4.4414 1.55468 4.4375-1.70312.51954-.82813-.51953.75391-4.4375-4.36328-3.10547-2.23047-1.33594-2.21094-3.30078-4.4375 2.82812-1.27344.47266-.97656 4.4414 2.25 2.69532 1.16406 1.74219 3.27344 2.8164 2.27735 1.6211-1.65625 4.4375 3.8203 1.16015 4.4375.33203 4.4375.89844 4.4375 1.10547 1.65235.94531 2.78906 1.70703 3.41407 2.73047 1.02344 1.03906 4.4375 2.89063.99609.50781 3.4414 2.57031 3.01954 1.8672 1.41797 1.02734 4.4414-.76954.28125-.2578 1.67188-4.4375 2.48437-4.38673.0664-.05078 4.1875-4.4375-1.67577-4.4414-.1836-4.4375-.15234-4.4375-2.24219-2.09766-4.4375.25781-3.95312-2.59765-.48828-3.5586-.1172-.88281-4.3203-2.3164-2.5625 2.3164-1.875 2.15625-4.4375-.3164-2.47657-1.83985.11328-4.4375L218.4375 396l-3.42188-2.6211-3.24609-1.8164-1.19531-1.52344v-2.46875l3.13281 3.99219 1.3086.73047 3.30078-.73047-1.83985-4.4375-1.46094-.64844v-1.63672l1.92188-2.15625-1.92188-2.61718v-2.00391l.22657.1836 3.15234 4.4375 1.0586 2.10546 4.4375 1.63672v2.21875l-2.71094 2.91797 2.71094 2.41797 1.6328-2.41797-1.6328-2.91797v-2.21875l.79687.69922 2.1875 4.4375-2.98438 4.42578-.08203.01172-4.35547 1.41016-.89843 3.02734-.28125 4.4375 1.17969.875 4.4375.3711 1.08593-1.2461 3.35156-3.03125 4.4375 1.63281 1.39454 1.39844.45312 4.4414 2.59375 1.70313 4.4375-.45312 3.40625 3.1875.15625 4.4375.35156 4.4375.52344 1.33203 4.29297-1.33203.14453-.06641 2.70703-4.3711-2.70703-2.58984-1.79687-1.84765.07812-4.4375 1.71875-2.72266 4.09766 2.72266.33984.14062v1.83985l-3.41797 2.45703 3.41797 3.30468 1.6914-3.30468-1.6914-2.45704v-1.83984l2.95703 4.29688-1.24219 4.4375-1.71484 1.48046-4.38281 2.95704-.05469.15234-1.28125 4.28906-3.15625 2.60938-1.70703 1.82812-2.73047 2.11719-1.3125 2.32031-1.21875 4.4375-1.90625 1.7461-4.4414.57421-3.21094-2.3203-1.22656-.75782-4.4375-2.84766-.83204-.83203-3.60547-1.99219-2.40625-2.4453-2.03125-1.625-4.4414-2.60938-.375-.20313-4.0625-.97656-4.4375-.60938-4.4375.58594-2.27344 1-2.16797.9375-4.4375.58203-4.4375-.23046-4.4375 1.875-3.25-3.16407 3.25-1.375 2.26172-3.0664 1.40625-4.4375.76953-1.71485 1.1914-2.72265-1.1914-1.33204-2.66015-3.10546-1.77735-1.59375-4.4414-2.65625-.65235-.19141"/><path fill="#00c4fc" fill-rule="evenodd" d="M188.38281 412.01172l-2.25-2.69531.97656-4.44141 1.27344-.47266 4.4375-2.82812 2.21094 3.30078 2.23047 1.33594 4.36328 3.10547-.7539 4.4375.82812.51953 1.70312-.51953-1.55468-4.4375.23437-4.44141-.38281-1.65625-.8086-2.78125L198.375 396l3.32422-3.40234 4.4375 1.13671 1.41797-2.17187 3.01953-1.52344v5.3086L209.42188 396l-.56641 4.4375 1.71875.875 1.6914-.875-1.5039-4.4375-.1875-.65234v-5.3086l1.19531 1.52344 3.2461 1.8164v1.08985L212.52733 396l1.6797 4.4375-3.63282 1.8789-3.6914-1.8789-.7461-1.55469L203.29688 396l-1.59766-.96094-.9375.96094.9375 1.48438 2.99219 2.95312.33593 4.4375-.5078 4.4414 1.61718 2.54688 2.59375 1.89063-2.59375 3.40625-4.4375-1.36329-3.2461-2.04296 1.88282-4.4375-3.07422-2.1875L193.5 404.875l-.67969-1.01563-1.55078 1.01563-1.07031 4.4414 2.6211 3.17188 1.92968 1.26563 2.51172 1.89453 1.3125 2.54297 2.41797 4.4375.70703.1289 4.4375 1.1875 4.4375 1.14844 3.45312 1.97656.98828.60156 4.4375.10547.25782 3.73047 4.17969 3.17578 2.48046 1.26172 1.95703 1.46485 4.4375.55468 4.44141-.02734.78516-1.99219 2.47265-4.4375 1.1797-2.17187 2.14452-2.26563-.90234-4.4414-.01953-4.4375-.14453-4.4375-1.07813-1.00782-4.4375.0625-4.4414-1.20312-.54688-2.28906-.90625-4.44141-2.98438-1.59766-1.76953 1.59766-2.66797 3.0625-4.4375-.25781-3.77343-2.80469-.0586-4.4375L217.01562 396l-2-1.53125v-1.08984L218.4375 396l-1.34766 4.4375-.11328 4.4375 2.47656 1.83984 4.4375.31641 1.875-2.15625 2.5625-2.3164 4.32032 2.3164.11719.88281.48828 3.5586 3.95312 2.59765 4.4375-.25781 2.24219 2.09766.15234 4.4375.1836 4.4375 1.67578 4.4414-4.1875 4.4375-.0664.05078-2.48438 4.38672-1.67188 4.4375-.28125.25781-4.4414.76954-1.41797-1.02735-3.01953-1.86719-3.44141-2.5703-.9961-.50782-4.4375-2.89063-1.02343-1.03906-3.41406-2.73047-2.78907-1.70703-1.65234-.94531-4.4375-1.10547-4.4375-.89844-4.4375-.33203-3.82031-1.16015 1.65625-4.4375-2.27735-1.6211-3.27344-2.8164-1.16406-1.7422"/><path fill="#50fcfc" fill-rule="evenodd" d="M192.82031 376.30078l-3.08594-2.49219 3.08594-2.29687 3.60156-2.14063.83985-.8125.92187.8125.76563 4.4375-1.6875 1.69141-4.4414.80078"/><path fill="#00b8fc" fill-rule="evenodd" d="M192.82031 412.48828l-2.6211-3.17187 1.07032-4.44141 1.55078-1.01563.67969 1.01563 3.76172 2.2539v.91407l-4.28516 1.27344 4.28516 3.25 1.78906-3.25-1.78906-1.27344v-.91406l3.07422 2.1875-1.88281 4.4375 3.24609 2.04296 4.4375 1.36329 2.59375-3.40625-2.59375-1.89063-1.61719-2.54687.50781-4.44141-.33593-4.4375-2.9922-2.95313-.9375-1.48437.9375-.96094 1.59767.96094 2.83984 2.88281.7461 1.55469 3.6914 1.8789v1.00391l-3.16406 1.55469 1.0664 4.4414 2.09766 1.51563v6.16016l-1.0039 1.19922-3.4336 3.53125-2.67188-3.53125-1.76562-.8711-1.13672.8711 1.13672 1.71484 3.5664 2.72266.8711.23828 4.4375 1.19531 2.41016-1.4336-1.37891-4.4375-1.03125-1.19921v-6.16016l.53516-1.51562 2.84375-4.44141-3.37891-1.55469v-1.0039l3.63281-1.87891L212.52734 396l2.48828-1.53125v1.08594l-.72656.44531.72656 1.82813v8.13671l-2.39453 3.35157 1.40235 4.4375.99219 1.57812.30859-1.57812 1.83203-4.4375-2.14063-3.35157v-8.13671L215.59767 396l-.58203-.44531v-1.08594l2 1.53125-1.39454 4.4375.0586 4.4375 3.77344 2.80469 4.4375.25781 2.66796-3.0625 1.76953-1.59766v.71485l-.97656.88281-3.46094 3.97266-4.4375-.20313-.9414.67188.20312 4.4375.73828.98046v4.65625l-4.4375 1-.29687 2.23829.29688 1.05078 4.4375 3.0664 4.4375-2.73046 4.4375 2.1289 2.20703-3.51562-2.20703-.64844-4.4375-.63672-4.4375-1.95313v-4.65625l1.99218 3.45704 2.44531 1.52734 4.4375 1.4414 4.4375 1.33985v3.8164l-1.9453.75391 1.9453.28516.32032-.28516-.32031-.7539V422.5l1.0078.1289 1.27345 4.44141-2.28125 2.03516-4.4375-.34375-2.28125-1.6914-2.15625-1.3086-1.95704 1.3086-1.23047 4.4375 3.1875 2.41796 3.96094 2.01953.47656.35547 1.2422-.35547 3.1953-1.67187 4.44141.95312 2.04688-3.71875 2.39062-4.39844.03906-.03906-.03906-.92969-.41016-3.51171.41016-2.6172.05469-1.8203-.05469-1.72657-2.55469-2.71093-1.8828-.05079-.54688.05079-3.89453.25-.17188-.25-1.23047-4.4375-1.38672-4.44141-1.64844-.88281v-.71485l2.98438 1.59766.90625 4.4414.54688 2.28907 4.4414 1.20312 4.4375-.0625 1.07813 1.00782.14453 4.4375.01953 4.4375.90234 4.4414-2.14453 2.26563-1.17969 2.17187-2.47265 4.4375-.78516 1.99219-4.4414.02734-4.4375-.55468-1.95704-1.46485-2.48047-1.26172-4.17968-3.17578-.25781-3.73047-4.4375-.10546-.98829-.60157-3.45312-1.97656-4.4375-1.14844-4.4375-1.1875-.70703-.1289-2.41797-4.4375-1.3125-2.54297-2.51172-1.89453-1.92969-1.26563"/><path fill="#00a8fc" fill-rule="evenodd" d="M197.26172 412.5664l-4.28516-3.25 4.28516-1.27343v.91797l-1.19922.35547 1.19922.90625.5-.90625-.5-.35547v-.91797l1.78906 1.27344-1.78906 3.25"/><path fill="#009800" fill-rule="evenodd" d="M197.26172 410.22266l-1.19922-.90625 1.19922-.35547.5.35547-.5.90625"/><path fill="#00e8fc" fill-rule="evenodd" d="M197.26172 400.58984l-.69922 4.28516.69922.42188 1.52734-.42188-1.52734-4.28516"/><path fill="#00a8fc" fill-rule="evenodd" d="M201.69922 419.90625l-1.13672-1.71484 1.13672-.8711 1.76562.8711 2.67188 3.53125 3.4336-3.53125 1.0039-1.19922v4.1211l-1.47656 1.51562 1.47656.40234.67578-.40234-.67578-1.51563v-4.1211l1.03125 1.19923 1.3789 4.4375-2.41015 1.43359-4.4375-1.19531-.8711-.23828-3.5664-2.72266m6.77734-10.58984l-1.0664-4.44141 3.16406-1.55469v1.0039l-1.1211.55079 1.1211 2.04297 1.19922-2.04297-1.19922-.55078v-1.0039l3.3789 1.55468-2.84375 4.4414-.53515 1.51563-2.09766-1.51562"/><path fill="#00d4fc" fill-rule="evenodd" d="M209.42188 396l-.56641 4.4375 1.71875.875 1.6914-.875-1.5039-4.4375-.1875-.65234-1.15234.65234"/><path fill="#009800" fill-rule="evenodd" d="M210.57422 423.03125l-1.47656-.40234 1.47656-1.51563.67578 1.51563-.67578.40234m0-16.11328l-1.1211-2.04297 1.1211-.55078 1.19922.55078-1.19922 2.04297"/><path fill="#00e8fc" fill-rule="evenodd" d="M210.57422 386.58984l-.94922.53516.94922.44531 3.13281 3.99219 1.3086.73047 3.30078-.73047-1.83985-4.4375-1.46094-.64844-4.4414.11328"/><path fill="#00c4fc" fill-rule="evenodd" d="M210.57422 383.625l-.75-.9414.75-.42188 4.4414-2.19531v1.98828l-1.41015.6289 1.41016.51954.46093-.51954-.46094-.6289v-1.98828l1.92188 2.61718-1.92188 2.15625-4.4414-1.21484m4.4414 22.33984l-2.39453 3.35157 1.40235 4.4375.99219 1.57812.30859-1.57812 1.83203-4.4375-2.14063-3.35157v2.1211l.78516 1.23047-.78516 1.73046-.8789-1.73046.8789-1.23047v-2.1211"/><path fill="#00b8fc" fill-rule="evenodd" d="M215.01563 383.20313l-1.41016-.51954 1.41016-.6289.46093.6289-.46094.51954"/><path fill="#00d4fc" fill-rule="evenodd" d="M215.01563 408.08594l-.87891 1.23047.8789 1.73046.78516-1.73046-.78516-1.23047"/><path fill="#00a8fc" fill-rule="evenodd" d="M215.01563 397.82813L214.28905 396l.72656-.44531.58204.44531-.58203 1.82813"/><path fill="#00c4fc" fill-rule="evenodd" d="M215.01563 420.39063l-.29688 2.23828.29688 1.05078 4.4375 3.0664 4.4375-2.73046 4.4375 2.1289 2.20703-3.51562-2.20703-.64844-4.4375-.63672-4.4375-1.95313-4.4375 1"/><path fill="#00a8fc" fill-rule="evenodd" d="M218.71484 413.7539l-.20312-4.4375.9414-.67187 4.4375.20313 3.46094-3.97266.97656-.88281v.71875l-.18359.16406-3.54687 4.4414-.70703.38282-3.84766 4.05469 3.84766 4.38671.09375.05079 4.34375 2.15234 4.4375 1.50781 4.4414.6914v3.44923l-.20312 1.07812-4.23828 3.78906-4.4375.04297-4.4375-3.3789-2.19141 3.98437 2.1914 1.66406 4.4375-.36328 4.4375-.55468 4.44141.77343.83594-1.51953-.41406-4.4375-.42188-1.07812v-3.44922l4.19531-4.35156-4.1953-4.19532-4.44142.63672-.61328-.8789-1.64453-4.4375-1.86719-4.44141-.3125-.16406v-.71875l1.64844.88281 1.38672 4.4414 1.23047 4.4375.17188.25 3.89453-.25.54687-.05077 1.88281.05078 2.5547 2.71093.05468 1.72657-.05469 1.8203-.41016 2.6172.41016 3.51171.03906.9297-.03906.03906-2.39062 4.39843-2.04688 3.71875-4.4414-.95312-3.19532 1.67187-1.24219.35547-.47656-.35547-3.96094-2.01953-3.1875-2.41797 1.23047-4.4375 1.95703-1.3086 2.15625 1.3086 2.28125 1.6914 4.4375.34376 2.28125-2.03516-1.27343-4.4414-1.00781-.12891-4.4375-1.33984-4.4375-1.44141-2.44532-1.52734-1.99219-3.45704-.73828-.98046"/><path fill="#009800" fill-rule="evenodd" d="M223.89063 418.14063l-3.84766-4.38672 3.84766-4.0547.70703-.3828 3.54687-4.44141.1836-.16406v1.63672l-2.26563 2.96875-2.17188 1.17968-3.09375 3.25782 3.09375 3.52734 1.75.91016 2.6875 1.33203 4.4375 1.67969 4.44141 1.07812 3.9375-4.08984-3.9375-3.94141-4.4414 1.01172-1.0547-1.50781-2.05859-4.4375-1.32422-2.96875v-1.63672l.3125.16406 1.8672 4.4414 1.64452 4.4375.61328.87891 4.44141-.63672 4.19531 4.19532-4.1953 4.35156-4.44142-.6914-4.4375-1.50782-4.34375-2.15234-.09375-.05079"/><path fill="#00ac00" fill-rule="evenodd" d="M223.89063 417.28125l-3.09375-3.52734 3.09375-3.25782 2.17187-1.17968 2.26563-2.96875v1.91796l-.80079 1.05079-3.63672 1.97265-2.33984 2.46485 2.33984 2.66406 3.40625 1.77344 1.03125.51171 4.4375 1.85157 4.44141 1.46094 3.6836-3.82422-3.6836-3.6875-4.4414 1.39062-1.4961-2.14062-2.47266-4.4375-.46875-1.05079v-1.91796l1.32422 2.96875 2.0586 4.4375 1.05469 1.5078 4.4414-1.01171 3.9375 3.9414-3.9375 4.08985-4.4414-1.07813-4.4375-1.67968-2.6875-1.33203-1.75-.91016"/><path fill="#00c4fc" fill-rule="evenodd" d="M223.89063 393.98047l-2.71094-2.41797 2.71094-2.91797v2.42188l-.46094.49609.46094.41016.27734-.41016-.27734-.4961v-2.42187l1.6328 2.91797-1.6328 2.41797"/><path fill="#00c800" fill-rule="evenodd" d="M223.89063 416.41797l-2.33985-2.66406 2.33984-2.46485 3.63672-1.97265.80078-1.05079v2.10157l-4.4375 2.51562-.82812.8711.82813.9453 4.4375 2.48048 2.01953 1.01172 2.41797 1.0703 4.4414 2.22267 3.17188-3.29297-3.17188-3.17579-4.4414 2.13672-2.37891-3.39843-2.0586-3.38672v-2.10156l.46875 1.05078 2.47266 4.4375 1.4961 2.14062 4.4414-1.39062 3.6836 3.6875-3.6836 3.82421-4.4414-1.46093-4.4375-1.85156-1.03125-.51172-3.40625-1.77344"/><path fill="#009800" fill-rule="evenodd" d="M223.89063 433.17188l-2.19141-1.66407 2.1914-3.98437v1.8086l-1.1953 2.17577 1.1953.90625 2.77735-.90625-2.77734-2.17578v-1.8086l4.4375 3.37891 4.4375-.04296 4.23828-3.78907.20312-1.07812.42188 1.07812.41406 4.4375-.83594 1.51953-4.4414-.77343-4.4375.55468-4.4375.36329"/><path fill="#00ac00" fill-rule="evenodd" d="M223.89063 432.41406l-1.19532-.90625 1.19531-2.17578v1.8086l-.20312.36718.20313.15235.46875-.15235-.46875-.36719v-1.80859l2.77734 2.17578-2.77734.90625"/><path fill="#10cc00" fill-rule="evenodd" d="M223.89063 414.69922l-.82813-.94531.82813-.8711 4.4375-2.51562v1.44922l-3.31641 1.9375 3.3164 1.96093 1.17579-1.96093-1.17578-1.9375v-1.44922l2.05859 3.38672 2.3789 3.39843 4.44141-2.13671v.51171l-4.29687 2.66407 4.29687 2.76562 2.66406-2.76562-2.66406-2.66407v-.51171l3.17188 3.17578-3.17188 3.29296-4.4414-2.22265-2.41797-1.07031-2.01953-1.01172-4.4375-2.48047"/><path fill="#00b8fc" fill-rule="evenodd" d="M223.89063 391.97266l-.46094-.41016.46094-.4961.27734.4961-.27734.41016"/><path fill="#00c800" fill-rule="evenodd" d="M223.89063 431.66016l-.20313-.15235.20313-.36719.46875.3672-.46875.15234"/><path fill="#24d000" fill-rule="evenodd" d="M228.32813 415.71484l-3.31641-1.96093 3.3164-1.9375v1.45312l-.83203.48438.83203.49218.29688-.49218-.29688-.48438v-1.45312l1.17579 1.9375-1.17578 1.96093"/><path fill="#3cd800" fill-rule="evenodd" d="M228.32813 414.2461l-.83204-.4922.83203-.48437.29688.48438-.29688.49218"/><path fill="#00c4fc" fill-rule="evenodd" d="M232.76563 426.3164l-1.94532.75391 1.94531.28516.32032-.28516-.32031-.7539"/><path fill="#24d000" fill-rule="evenodd" d="M237.20703 420.95703l-4.29687-2.76562 4.29687-2.66407v.51172l-3.47266 2.15235 3.47266 2.23437 2.15234-2.23437-2.15234-2.15235v-.51172l2.66406 2.66407-2.66406 2.76562"/><path fill="#3cd800" fill-rule="evenodd" d="M237.20703 420.42578l-3.47266-2.23437 3.47266-2.15235v.50781l-2.64844 1.64454 2.64844 1.70703 1.64063-1.70703-1.64063-1.64454v-.5078l2.15234 2.15234-2.15234 2.23437"/><path fill="#54dc00" fill-rule="evenodd" d="M237.20703 419.89844l-2.64844-1.70703 2.64844-1.64454v.51172l-1.82812 1.13282 1.82812 1.17578 1.13281-1.17578-1.1328-1.13282v-.51171l1.64062 1.64453-1.64063 1.70703"/><path fill="#e8e05c" fill-rule="evenodd" d="M237.20703 419.36719l-1.82812-1.17578 1.82812-1.13282v.51172l-1.0039.6211 1.0039.64453.6211-.64453-.6211-.6211v-.51172l1.13281 1.13282-1.1328 1.17578"/><path fill="#e8d450" fill-rule="evenodd" d="M237.20703 418.83594l-1.0039-.64453 1.0039-.6211.6211.6211-.6211.64453"/><path fill="#00c4fc" fill-rule="evenodd" d="M254.95703 417.0586l-3.41797-3.3047 3.41797-2.45702v1.83984l-.85547.61719.85547.82812.42578-.82812-.42578-.6172v-1.83983l1.6914 2.45703-1.6914 3.30468"/><path fill="#00b8fc" fill-rule="evenodd" d="M254.95703 414.58203l-.85547-.82812.85547-.6172.42578.6172-.42578.82812"/><path fill="#50fcfc" fill-rule="evenodd" d="M317.09766 431.54297l-.04297-.03516.04297-.02344.15625.02344-.15625.03516m8.875-4.3164l-.13672-.15626.13672-.0586 4.4375-1.61327 4.4375-.17578 4.4414-1.15625v2.17187l-1.84375.83203 1.84375 1.02735.82813-1.02735-.82813-.83203v-2.17187l2.99219 3.0039 1.44531 2.96094 1.47266 1.47656-1.47266 1.95313-2.47265-1.95313-1.96485-.71094-4.27344.71094-.16796.10547-.10938-.10547-4.32812-2.20703-4.4375-2.07422"/><path fill="#00e8fc" fill-rule="evenodd" d="M339.28906 428.09766l-1.84375-1.02735 1.84375-.83203.82813.83203-.82813 1.02735"/><path fill="#50fcfc" fill-rule="evenodd" d="M343.72656 385.26563l-4.33594-2.58204.4375-4.4375.98047-4.4375 2.91797-2.6328 4.4375-.66017 4.4375-.1914v2.16797l-4.4375.0625-3.72265 1.2539-.71485.15625-2.98437 4.28125 2.98437 4.1836.3789.2539 4.0586 2.4961 4.4375.1914 3.55078-2.6875.89063-.60546 4.4375-2.63282 2.83984-1.19922-2.83984-1.10937-4.4375-3.28125-.28906-.04688-4.15235-1.3164v-2.16797l4.4414-.85547 2.83985 4.33984 1.59766 1.16407 4.4375.98046 2.46094 2.29297-2.46094 2.3711-4.4375 1.16406-2.30078.90234-2.13672 1.5547-4.4414 2.18358-4.4375-.07421-4.4375-1.08204"/><path fill="#00e8fc" fill-rule="evenodd" d="M343.72656 382.42969l-2.98437-4.1836 2.98437-4.28125.71485-.15625 3.72265-1.2539 4.4375-.0625v2.91406l-4.4375.55469-4.4375.1836-1.46484 2.10155 1.46484 2.05079 3.54688 2.38671.89062.55079 4.4375.38671 1.23828-.9375 3.20313-2.1875 2.98437-2.25-2.98437-2.58203-4.4414-.25781v-2.91406l4.15234 1.3164.28906.04688 4.4375 3.28125 2.83984 1.10937-2.83984 1.19922-4.4375 2.63281-.89063.60547-3.55078 2.6875-4.4375-.1914-4.0586-2.4961-.3789-.2539"/><path fill="#00d4fc" fill-rule="evenodd" d="M343.72656 380.29688l-1.46484-2.05079 1.46484-2.10156 4.4375-.1836 4.4375-.55468 4.4414.25781v1.8125l-4.4414.4375-1.26172.33203 1.26172.98047 4.4414-.3086.88673-.67187-.88672-.76953v-1.8125l2.98437 2.58203-2.98437 2.25-3.20313 2.1875-1.23828.9375-4.4375-.38671-.89062-.55079-3.54688-2.38671"/><path fill="#00c4fc" fill-rule="evenodd" d="M352.60156 379.22656l-1.26172-.98047 1.26172-.33203 4.4414-.4375.88673.76953-.88672.67188-4.4414.3086"/><path fill="#50fcfc" fill-rule="evenodd" d="M354.90625 431.50781l-.38281-4.4375 2.51953-2.58984 4.4375-1.76953.20703-.08203 4.23047-2.57813 4.4375-.74219v1.78125l-3.89844 1.53907-.53906.58593-4.4375 1.38672-3.85938 2.46875 3.85938 2.3164 4.4375-.51952 4.4375-.48047 1.7461 3.1211 2.6914.98827 4.4414 1.41016 1.96094-2.39844-.3789-4.4375-1.58204-1.57031-3.92578 1.57031-.51562 1.07031-2.38672-1.0703 1.28906-4.44141-3.33984-1.53907v-1.78125l4.4375.8672 2.34375 2.45312 2.09765 1.12109 3.35157 3.32031.13281 4.4375-3.48438 4.26172-4.4414-.58984-4.4375.48047-3.69531-4.15235-.7422-.35156-4.4375.0039-1.52733.34766-2.91016 1.77344-2.13672-1.77344"/><path fill="#00e8fc" fill-rule="evenodd" d="M361.48047 429.38672l-3.85938-2.3164 3.85938-2.46876 4.4375-1.38672.53906-.58593 3.89844-1.53907 3.33984 1.53907-1.28906 4.4414 2.38672 1.07031.51562-1.0703 3.92579-1.57032 1.58203 1.57031.3789 4.4375-1.96094 2.39844-4.4414-1.41016-2.6914-.98828-1.7461-3.1211-4.4375.48048-4.4375.51953"/><path fill="#50fcfc" fill-rule="evenodd" d="M370.35547 443.72656l-3.3086-3.34375 3.3086-4.32031v2.25781l-1.58203 2.0625 1.58203 1.59766 3.3125-1.59766-3.3125-2.0625v-2.25781l4.4375 1.1836 2.51172 3.13671-.34766 4.4375-2.16406 1.33594-1.35547-1.33594-3.08203-1.09375"/><path fill="#00e8fc" fill-rule="evenodd" d="M370.35547 441.98047l-1.58203-1.59766 1.58203-2.0625 3.3125 2.0625-3.3125 1.59766"/><path fill="#50fcfc" fill-rule="evenodd" d="M370.35547 392.19922l-.625-.63672.625-.78906.92187.78906-.92187.63672m12.98437 61.5l-1.76562-4.4375 2.09765-2.40235 4.4375.88672.60938 1.51563-.60938.6914-4.09765 3.7461-.33985.28125-.33203-.28125m35.83985-56.82031L418.19922 396l.98047-.8789 3.24219.8789-3.2422.8789m6-5.3164l-1.52343-4.4375 4.39844-3.15625 1.09765-1.28516.32032-4.4375 3.01953-3.46484v2.6914l-.67578.77344-.39063 4.4375-3.3711 3.94141-.6914.5.6914 3.76563.0586.67187 4.3789 3.85156 4.4375-1.32422 1.57423-2.52734 1.14843-4.4375-2.12109-4.4414-.60156-.94141-3.41797-3.4961-1.01953-.77343v-2.69141l4.4375 3.2539.21484.21094 2.6914 4.4375 1.37891 4.44141.15625 1.33984 1.51954 3.09766-1.51954 1.58984L439.71094 396l-2.78125 2.24219-4.4375.10937-4.4375-.34765L424.05859 396l1.1211-4.4375"/><path fill="#00e8fc" fill-rule="evenodd" d="M428.05469 390.89063l-.6914-3.76563.6914-.5 3.3711-3.9414.39062-4.4375.67578-.77344v8.58593l-.90235 1.06641-.55859 4.4375 1.46094 1.28516 1.78125-1.28516 2.65625-4.1836.1211-.2539-.1211-.22656-4.4375-.83985v-8.58593l1.01953.77343 3.41797 3.4961.60156.9414 2.1211 4.44141-1.14844 4.4375-1.57422 2.52734-4.4375 1.32422-4.3789-3.85156-.0586-.67188"/><path fill="#00d4fc" fill-rule="evenodd" d="M432.49219 392.84766l-1.46094-1.28516.5586-4.4375.90234-1.0664 4.4375.83984.1211.22656-.1211.2539-2.65625 4.1836-1.78125 1.28516"/><path fill="#50fcfc" fill-rule="evenodd" d="M461.48438 462.57422l-1.2422-4.4375 3.32032-3.16797v1.92578l-1.30469 1.24219 1.30469 2.66406 1.23828-2.66406-1.23828-1.24219v-1.92578l3.16016 3.16797-.9336 4.4375-2.22656 2.04297-2.07813-2.04297"/><path fill="#00e8fc" fill-rule="evenodd" d="M463.5625 460.80078l-1.30469-2.66406 1.30469-1.24219 1.23828 1.24219-1.23828 2.66406"/><g clip-path="url(#d)"><path fill="#fff" fill-opacity="0" fill-rule="evenodd" d="M467.9961 480.32813H468V311.67188h-.0039H468v168.65625h-.0039"/></g><path fill="#fff" fill-opacity="0" fill-rule="evenodd" d="M191.85547 402.72266l5.29687-2.46875-4.21093-9.02735-5.29297 2.46875 4.20703 9.02735"/><path fill-rule="evenodd" d="M191.59375 393.8789l.46094-.21484 2.66015 5.70313-.71093.33203-1.89844-4.07031-1.25781.58984-.23438-.5039.47656-.29688.20703-.15625.17188-.17578.125-.21485.0664-.26562.00391-.32422-.07031-.40234"/><path fill="#fff" fill-opacity="0" fill-rule="evenodd" d="M255.74219 412.86719l2.53906 5.26172 8.97266-4.32813-2.53907-5.26172-8.97265 4.32813"/><path fill-rule="evenodd" d="M264.58203 412.48828l.22266.45703-5.66797 2.73828-.34375-.71093 4.04297-1.94922-.60156-1.25.5-.24219.30078.47656.16015.20313.17969.16797.21484.12109.26563.0664h.32422l.40234-.07812"/><path fill="#fff" fill-opacity="0" fill-rule="evenodd" d="M214.98047 384.90625l6.19922-4.9336L214.83203 372l-6.19922 4.9336 6.34766 7.97265"/><path fill-rule="evenodd" d="M211.71484 376.82422l2.57032-2.04688.46093.57813L212.6836 377l.94141 1.55469.07813-.26953.1289-.26954.19531-.27343.28125-.26172.26953-.1836.31641-.14453.35547-.08984.375-.02734.39453.05859.19922.0625.19922.08984.19922.1172.19531.14843.1914.17969.1875.21484.25.36719.1797.39062.10546.41016.02344.41406-.0664.41016-.06641.20312-.08985.19922-.11718.19531-.14063.1875-.17187.1797-.19532.17187-.38672.26171-.375.16797-.36328.08204-.35156.0039-.33203-.0664-.32031-.125-.30469-.1797-.29297-.22265.61719-.49219.20703.13282.21094.09765.20703.0664.21094.03126.20703-.00781.20312-.04688.20313-.08984.1914-.1289.23047-.21485.17578-.23047.1172-.2461.05858-.2578-.0039-.27344-.07031-.28125-.13282-.28907-.20312-.29687-.17969-.1914-.21094-.16798-.23437-.1289-.25781-.08594-.26953-.03516-.28516.03125-.28516.10156-.28515.1836-.2422.23828-.15233.26172-.09766.3164-.07813.40625-.54297.4297-1.76953-2.96485"/><path fill="#fff" fill-opacity="0" fill-rule="evenodd" d="M243.01563 440.14453l5.1875-5.99219-7.70704-6.66796-5.1875 5.99218 7.70703 6.66797"/><path fill-rule="evenodd" d="M238.32031 432.79688l2.14844-2.48438.5625.48438-1.72656 1.99609 1.21094 1.35547.02734-.27735.07812-.29296.14063-.30079.22656-.3125.23438-.22656.28515-.19922.32813-.15625.36719-.09375.39843-.01953.20703.02735.21094.05078.21875.08203.21875.10937.22266.14063.22265.17578.3125.3164.25.35157.17578.3789.10157.40625.01172.41407-.02735.21093-.05469.21485-.07812.21094-.10547.21093-.13281.20703-.16016.20704-.33594.32812-.33593.23438-.34375.14843-.33985.0664-.34375-.0039-.33593-.0664-.33594-.1172-.32422-.16796.51563-.59375.22656.08984.22656.0586.21875.02734.21094-.00781.19922-.04688.1953-.08593.1797-.1211.16406-.16406.1875-.25.13281-.26172.07031-.26172.00782-.26562-.0547-.26563-.11718-.26562-.1875-.25781-.2539-.25391-.21094-.15625-.23828-.1289-.25391-.08204-.26953-.03906-.27344.01953-.26953.08203-.26563.15235-.24609.23437-.19531.27734-.10156.28516-.03516.32813v.41015l-.45703.52735-2.28516-2.59375"/><path fill="#fff" fill-opacity="0" fill-rule="evenodd" d="M204.6875 407.64063l12.23047-.04297-.03516-10.19141-12.23047.04297.03516 10.1914"/><path fill-rule="evenodd" d="M208.15625 399.26953h.51172l.01953 6.29297-.78516.0039-.01562-4.49218-1.39063.00781v-.5586l.5586-.0664.2539-.05469.22657-.08984.20312-.14063.17578-.21093.14063-.29688.10156-.39453m4.8164-.01562l.22657.01953.22266.05469.20703.08593.1953.1211.1875.14843.17188.17579.30078.41796.2461.4922.17969.54687.11718.57812.03907.59375-.03516.58985-.10938.58593-.17968.55469-.24219.5039-.30078.4297-.16797.17968-.1875.15235-.19531.125-.20703.09375-.21875.05468-.23047.02344-.22656-.01953-.21875-.0586-.21094-.08984-.19531-.1211-.1836-.15234-.17187-.17968-.3047-.4297-.24608-.5-.1797-.55468-.11327-.58203-.04297-.59375.83594-.0039.03125.5664.08203.5039.1289.44141.16406.375.19141.30078.21094.21875.22266.13672.22656.04688.22656-.04688.22266-.14062.20703-.21875.1914-.30469L214 404l.125-.4414.08203-.50782.02734-.5625-.03125-.5586-.08593-.5-.125-.4375-.16406-.36327-.19141-.29297-.21094-.21485-.22656-.1289-.22656-.04297-.22657.04297-.21875.13281-.21093.21484-.19141.29297-.16016.36719-.125.4375-.07812.5-.02734.5586-.83594.0039.03906-.58984.10938-.58204.17578-.54687.24218-.49219.30078-.42187.17188-.17578.1836-.14844.1953-.1211.20704-.09375.21875-.05468.23047-.01953"/><g clip-path="url(#e)"><path fill="none" stroke="#000" stroke-linecap="round" stroke-linejoin="round" stroke-miterlimit="10" stroke-width=".5" d="M147.16016 481.85938l-6.32032-3.0625"/></g><g clip-path="url(#f)"><path fill="none" stroke="#000" stroke-linecap="round" stroke-linejoin="round" stroke-miterlimit="10" stroke-width=".5" d="M160.45313 481.91016l-6.27735-3.16016"/></g><g clip-path="url(#g)"><path fill="none" stroke="#000" stroke-linecap="round" stroke-linejoin="round" stroke-miterlimit="10" stroke-width=".5" d="M173.58984 482.22266l-5.92187-3.78516"/></g><g clip-path="url(#h)"><path fill="none" stroke="#000" stroke-linecap="round" stroke-linejoin="round" stroke-miterlimit="10" stroke-width=".5" d="M187.0586 481.96094l-6.22657-3.26563"/></g><g clip-path="url(#i)"><path fill="none" stroke="#000" stroke-linecap="round" stroke-linejoin="round" stroke-miterlimit="10" stroke-width=".5" d="M200.51172 481.66406l-6.5-2.67187"/></g><g clip-path="url(#j)"><path fill="none" stroke="#000" stroke-linecap="round" stroke-linejoin="round" stroke-miterlimit="10" stroke-width=".5" d="M213.69531 481.9414l-6.24219-3.22656"/></g><g clip-path="url(#k)"><path fill="none" stroke="#000" stroke-linecap="round" stroke-linejoin="round" stroke-miterlimit="10" stroke-width=".5" d="M226.83594 482.2461l-5.89063-3.83594"/></g><g clip-path="url(#l)"><path fill="none" stroke="#000" stroke-linecap="round" stroke-linejoin="round" stroke-miterlimit="10" stroke-width=".5" d="M240.07813 482.35156l-5.7461-4.04687"/></g><g clip-path="url(#m)"><path fill="none" stroke="#000" stroke-linecap="round" stroke-linejoin="round" stroke-miterlimit="10" stroke-width=".5" d="M253.35156 482.40625L247.6875 478.25"/></g><g clip-path="url(#n)"><path fill="none" stroke="#000" stroke-linecap="round" stroke-linejoin="round" stroke-miterlimit="10" stroke-width=".5" d="M266.80469 482.20313l-5.9414-3.75"/></g><g clip-path="url(#o)"><path fill="none" stroke="#000" stroke-linecap="round" stroke-linejoin="round" stroke-miterlimit="10" stroke-width=".5" d="M280.11328 482.21875l-5.92187-3.78125"/></g><g clip-path="url(#p)"><path fill="none" stroke="#000" stroke-linecap="round" stroke-linejoin="round" stroke-miterlimit="10" stroke-width=".5" d="M293.26953 482.44922l-5.60547-4.23828"/></g><g clip-path="url(#q)"><path fill="none" stroke="#000" stroke-linecap="round" stroke-linejoin="round" stroke-miterlimit="10" stroke-width=".5" d="M306.57813 482.45313l-5.59375-4.25"/></g><g clip-path="url(#r)"><path fill="none" stroke="#000" stroke-linecap="round" stroke-linejoin="round" stroke-miterlimit="10" stroke-width=".5" d="M320.14844 482.0664l-6.10547-3.47656"/></g><g clip-path="url(#s)"><path fill="none" stroke="#000" stroke-linecap="round" stroke-linejoin="round" stroke-miterlimit="10" stroke-width=".5" d="M333.35156 482.2539l-5.8789-3.84765"/></g><g clip-path="url(#t)"><path fill="none" stroke="#000" stroke-linecap="round" stroke-linejoin="round" stroke-miterlimit="10" stroke-width=".5" d="M346.91797 481.79297l-6.38672-2.92969"/></g><g clip-path="url(#u)"><path fill="none" stroke="#000" stroke-linecap="round" stroke-linejoin="round" stroke-miterlimit="10" stroke-width=".5" d="M360.4336 481.25l-6.78516-1.84375"/></g><g clip-path="url(#v)"><path fill="none" stroke="#000" stroke-linecap="round" stroke-linejoin="round" stroke-miterlimit="10" stroke-width=".5" d="M373.86719 480.49219l-7.01953-.32422"/></g><g clip-path="url(#w)"><path fill="none" stroke="#000" stroke-linecap="round" stroke-linejoin="round" stroke-miterlimit="10" stroke-width=".5" d="M373.86719 480.49219l1.05078 2.21484"/></g><g clip-path="url(#x)"><path fill="none" stroke="#000" stroke-linecap="round" stroke-linejoin="round" stroke-miterlimit="10" stroke-width=".5" d="M387.16016 480.73828l-6.98047-.8164"/></g><g clip-path="url(#y)"><path fill="none" stroke="#000" stroke-linecap="round" stroke-linejoin="round" stroke-miterlimit="10" stroke-width=".5" d="M386.14453 480.61719l.44922 1.14453"/></g><g clip-path="url(#z)"><path fill="none" stroke="#000" stroke-linecap="round" stroke-linejoin="round" stroke-miterlimit="10" stroke-width=".5" d="M395.07422 483.27734l3.82422-5.89453"/></g><g clip-path="url(#A)"><path fill="none" stroke="#000" stroke-linecap="round" stroke-linejoin="round" stroke-miterlimit="10" stroke-width=".5" d="M410.20313 483.83984l.1953-7.02343"/></g><g clip-path="url(#B)"><path fill="none" stroke="#000" stroke-linecap="round" stroke-linejoin="round" stroke-miterlimit="10" stroke-width=".5" d="M427.08203 480.90625l-6.92969-1.15625"/></g><g clip-path="url(#C)"><path fill="none" stroke="#000" stroke-linecap="round" stroke-linejoin="round" stroke-miterlimit="10" stroke-width=".5" d="M426.07422 480.73828l.39062 1.16406"/></g><g clip-path="url(#D)"><path fill="none" stroke="#000" stroke-linecap="round" stroke-linejoin="round" stroke-miterlimit="10" stroke-width=".5" d="M440.16406 481.70703l-6.46484-2.75781"/></g><g clip-path="url(#E)"><path fill="none" stroke="#000" stroke-linecap="round" stroke-linejoin="round" stroke-miterlimit="10" stroke-width=".5" d="M453.67578 481.08984l-6.85937-1.52343"/></g><g clip-path="url(#F)"><path fill="none" stroke="#000" stroke-linecap="round" stroke-linejoin="round" stroke-miterlimit="10" stroke-width=".5" d="M452.67969 480.86719l.32812 1.1836"/></g><g clip-path="url(#G)"><path fill="none" stroke="#000" stroke-linecap="round" stroke-linejoin="round" stroke-miterlimit="10" stroke-width=".5" d="M466.74219 481.8164l-6.36328-2.97656"/></g><g clip-path="url(#H)"><path fill="none" stroke="#000" stroke-linecap="round" stroke-linejoin="round" stroke-miterlimit="10" stroke-width=".5" d="M147.14453 468.58203l-6.28906-3.13672"/></g><path fill="none" stroke="#000" stroke-linecap="round" stroke-linejoin="round" stroke-miterlimit="10" stroke-width=".5" d="M147.14453 468.58203l.0625 2.45313m13.24219-2.4336l-6.26953-3.17578m6.26953 3.17578l.04687 2.45313m13.26172-2.4414L167.5 465.41405m6.25781 3.19922l.04297 2.45313m12.8789-1.84766l-5.47265-4.41016m5.47266 4.41016l-.46094 2.41016m13.74219-2.3672l-5.40235-4.49608m5.40235 4.49609l-.5 2.40234m13.89453-2.5039l-5.5625-4.29297m5.5625 4.29297l-.41016 2.41796m13.73047-2.42187l-5.57031-4.28516m5.57031 4.28516l-.41016 2.42187m-.40234-3.04296l-.20312 1.20703m14.51172-.84766l-5.9336-3.76172m5.9336 3.76172l-.1875 2.44531m-.67579-2.99218l-.09375 1.22265m14.41016-.91015l-6.20703-3.29297m6.20703 3.29297l.0039 2.45312m-.90624-2.9336v1.22657m14.17187-.66016l-6.11719-3.46484m6.1172 3.46484l-.06641 2.45313m-.82422-2.95703l-.03125 1.22656m14.30078-.84375l-6.2461-3.22266m6.2461 3.22266l.02734 2.45313m-.9375-2.92188l.01563 1.22656m14.1875-.71484l-6.19922-3.3086m6.19922 3.3086l-.00391 2.45312m13.63281-3.27734l-6.82812-1.66016m6.82812 1.66016l.60547 2.3789m12.70703-2.37109l-6.82422-1.67578m6.82422 1.67578l.60157 2.3789m12.60156-2.01171l-6.60156-2.41016m6.60156 2.41016l.33984 2.42969m13.11719-2.92188l-6.88281-1.42578m6.8828 1.42578l.6875 2.35547m12.69142-2.83984l-7.01172-.45313m7.01172.45313l1.01171 2.23437m12.3125-2.41406l-7.02734-.09766m7.02734.09766l1.1211 2.17969m12.10547-3.00781l-6.85157 1.55859m5.85547-1.33203l.80078.92969m13.58594-.6836l-7.0039.61328m5.98437-.52343l.66797 1.02734m13.65234-.39844l-6.97656-.82422m5.96094.70703l.44531 1.14063m13.89063-1.82813l-6.98438.78516m5.96875-.67187l.6914 1.01562m13.64454-.42187l-6.9961-.62891m6.9961.6289l.95703 2.26172m12.14453-3.8203l-6.57031 2.48827m6.57031-2.48828l1.84375 1.6211m11.09766 1.58984l-5.82032-3.9336m4.97266 3.36329l-.1289 1.21875"/><g clip-path="url(#I)"><path fill="none" stroke="#000" stroke-linecap="round" stroke-linejoin="round" stroke-miterlimit="10" stroke-width=".5" d="M146.90234 455.67969l-5.80468-3.96485"/></g><path fill="none" stroke="#000" stroke-linecap="round" stroke-linejoin="round" stroke-miterlimit="10" stroke-width=".5" d="M146.90234 455.67969l-.27343 2.4414m13.52343-2.34765l-5.67578-4.14844m5.67578 4.14844l-.34765 2.42578m13.34765-2.05469l-5.04297-4.89062m5.04297 4.89062l-.68359 2.35938m13.82031-2.1875l-4.6875-5.23438m4.6875 5.23438l-.84375 2.30468m13.96094-2.14062l-4.28906-5.5664m4.28906 5.5664l-1.01563 2.23437m15.3711-3.53125l-6.3711-2.96875m6.3711 2.96875l.1289 2.44922m12.76954-1.76953l-5.53907-4.32812m5.53907 4.32812l-.42578 2.41406m13.94921-2.71093l-5.95312-3.73438m5.95312 3.73438l-.17578 2.4453m13.57031-2.58202l-6.11328-3.46094m6.11328 3.46094l-.0664 2.45312m13.33594-2.3711l-6.02344-3.625m6.02344 3.625l-.13282 2.44923m-.74609-2.97657l-.0625 1.22266m14.07031-.42187l-5.65234-4.17188m5.65234 4.17188l-.35937 2.42578m14.0039-2.96875l-6.3125-3.08985m6.3125 3.08985l.08203 2.45312m13.4336-2.95703l-6.71094-2.07812m6.71094 2.07812l.46094 2.41016m12.9414-2.74219l-6.88672-1.41406m6.88672 1.41406l.6914 2.35547m12.50782-1.92969l-6.65234-2.26562m6.65234 2.26562l.39063 2.42188m13.08203-4.00782l-6.96875.90235m6.96875-.90235l1.42187 2m11.82813-2.35156l-6.83985 1.60938m5.84375-1.375l.8086.92187m13.53125-1.03516l-6.89453 1.3672m6.89453-1.3672l1.55078 1.90235m11.78125-1.78906l-6.9336 1.13671m5.92579-.96875l.74609.97266m13.3086-2.02344l-6.39454 2.90625m5.46485-2.48437l.97265.7461m13.54688.82421l-6.94532-1.07812m5.9336.92187l.40234 1.16016m13.82813-.57422l-6.7539-1.9375m5.77343 1.65625l.2539 1.19922m14.17579-1.7461l-7.01954-.28515m7.01954.28515l1.0625 2.21485m12.23828-2.70313l-6.99219.6914m5.97656-.58983l.67969 1.02343m10.95703 2.64453l-1.60547-6.84375m1.3711 5.84766l-.92188.8086"/><g clip-path="url(#J)"><path fill="none" stroke="#000" stroke-linecap="round" stroke-linejoin="round" stroke-miterlimit="10" stroke-width=".5" d="M147.3164 441.53906l-6.6328-2.3125"/></g><path fill="none" stroke="#000" stroke-linecap="round" stroke-linejoin="round" stroke-miterlimit="10" stroke-width=".5" d="M146.35156 441.20313l.1875 1.21093m11.42969 1.42188l-1.3086-6.90235m1.1211 5.89844l-.95703.76563m15.1289.03906l-2.64843-6.50781m2.26562 5.5625l-.78515.9414m15.32812-.48437l-4.33594-5.53125m3.70703 4.72656l-.5 1.1211m14.21485-.15235l-3.8789-5.85938m3.3164 5.00782l-.58594 1.07812m13.90234.07422l-2.7578-6.46094m15.27343 6.69532l-1.15625-6.9297m1.15625 6.9297l-1.94922 1.49218m17.10156-2.40625l-4.83203-5.10156m4.83203 5.10156l-.77734 2.32813m14.33203-2.57813l-5.3086-4.60156m5.3086 4.60156l-.55078 2.39454m13.51563-2.04297l-4.60938-5.30078m4.60938 5.30078l-.87891 2.28906m13.64062-1.89453l-3.5039-6.08985m3.5039 6.08985l-1.30078 2.07812M292 443.54297l-3.07031-6.32031m2.625 5.40234l-.72266.99219m15.3164-.63672l-4.73437-5.1914m4.73438 5.1914l-.82422 2.3086m13.66406-1.94532l-3.78516-5.92187m3.78516 5.92187l-1.20312 2.13672m14.9375-2.45313l-4.625-5.28906m3.95312 4.51953l-.4375 1.14844m14.9961-1.01562l-5.76563-4.01563m4.92578 3.4336l-.14453 1.21874m13.9375-5.08984l-5.04297 4.89063m4.3086-4.1797l1.16796.37891m12.58203-1.36328l-4.4453 5.4414m3.80077-4.65233l1.20313.23828m13.49219-.20313l-5.91407 3.79297M400.5 440.46094l-7.02734-.15235m6.0039.12891l.55078 1.09766m13.6875-.3125l-6.82422-1.67578m5.83204 1.42968l.30078 1.1914m14.10547-1.76562l-7.02735-.03906m6.00781.03516l.56641 1.08594m13.76953-1.125l-7.02734.05078m6.0039-.04297l.58594 1.07812m12.52344 1.60938l-4.57031-5.33985m4.57031 5.33985l-.89844 2.28125m8.89844-3.17578l6.0625-3.55078"/><g clip-path="url(#K)"><path fill="none" stroke="#000" stroke-linecap="round" stroke-linejoin="round" stroke-miterlimit="10" stroke-width=".5" d="M147.25 425.73438l-6.5 2.66796"/></g><path fill="none" stroke="#000" stroke-linecap="round" stroke-linejoin="round" stroke-miterlimit="10" stroke-width=".5" d="M146.30469 426.1211l.94531.78515m12.3789-2.48438l-4.625 5.29297m12.13282-2.28515l6.98828-.72266m-5.97266.61719l-.68359-1.01563m13.54297 2.69532l5.86719-3.8711m-5.01172 3.3086l-1.07813-.58985m13.59375 1.23047l5.75781-4.02734m-5.7578 4.02734l-2.1875-1.11328m15.15234.48828l6.45312-2.77734m-5.51172 2.375l-.96094-.76953m14.57032 2.67578l3.98437-5.78516m-3.98437 5.78516l-2.4414-.28125m16.3164.59765l2.86328-6.41797m-2.86328 6.41797l-2.44922.16797m2.86719-1.10156l-1.22657.08594m15.85157 1.14062l-.58985-7.0039m.58985 7.0039l-2.0625 1.32813m16.0078-1.4414l-1.85155-6.77735m1.85156 6.77734l-1.78906 1.6836m15.01953-1.66016l-1.6836-6.82422m1.6836 6.82422l-1.82422 1.63672m14.92187-1.58985l-1.24609-6.91797m1.2461 6.91797l-1.9297 1.51563m14.85547-1.46875l-.46875-7.01172m.39844 5.99219l-1.04297.64453m13.33204.27734l1.72265-6.8164m-1.47265 5.82421l-1.19141.29297m13.94531.60157l2.34375-6.6211m10.10547.44922l4.07422 5.72266m8.3164-4.75l5.92579 3.77734m-5.0625-3.23047l.09765-1.22265m13.09766-.15625l4.4414 5.4453m-3.79687-4.65624l.47656-1.1289m15.02735-.39845l-1.22657 6.91797m1.04688-5.91015l1.16797-.3789m14.21094.35937l-4.9961 4.9414m4.26953-4.22265l1.17188.36328M413.64844 426l-6.69531 2.13672m5.72265-1.82422l.875.85547m13.57031-.375l-7.0078.55078m5.98827-.46875l.65625 1.03516m13.22656-2.58204l-6.10546 3.48047m6.10546-3.48047l2.07422 1.3125m11.60157-.41015l-6.82422 1.67578m5.82812-1.4336l.82031.91407M463 430.53516l1.125-6.9336"/><g clip-path="url(#L)"><path fill="none" stroke="#000" stroke-linecap="round" stroke-linejoin="round" stroke-miterlimit="10" stroke-width=".5" d="M141.30469 411.5l5.39062 4.50781"/></g><path fill="none" stroke="#000" stroke-linecap="round" stroke-linejoin="round" stroke-miterlimit="10" stroke-width=".5" d="M155.21484 410.9375l4.19922 5.63281m-3.58984-4.8125l.52734-1.10937m12.28516.21094l3.98828 5.78906m-3.40625-4.94531l.5625-1.08985m10.86328 1.9336l6.60156 2.41406m-5.64062-2.0625l-.16797-1.21485m12.32031 2.35938l7.0039-.57813m-5.98437.4922l-.66406-1.03126m13.21094 2.16016l6.5039-2.66407m-5.55859 2.27735l-.9414-.78516m13.23828-1.29297l6.64843 2.26563m-5.68359-1.9375l-.19531-1.21094m12.375 2.39453l6.98828-.75781m-5.96875.64844l-.6914-1.01563m14.54296 3.67578l3.8789-5.85937m-3.3164 5.00781l-1.21875-.1211m15.22266 1.48829l1.375-6.89063m-1.375 6.89063l-2.35156.70312m15.30468-.79687l2.09766-6.70703m-2.09766 6.70703l-2.41015.45312m15.4453-.55078l2.65626-6.50781m-2.26953 5.5586l-1.21875.125m14.11718.80859l2.71485-6.48047m-2.32031 5.53906l-1.21875.11328m12-2.72265l6.99609.625m6.39062-1.09375l6.85157 1.5625m-5.85547-1.33594l-.32031-1.1836m16.53515-1.74609l-.9375 6.96484m15.16797-6.71093l-2.76953 6.46093m2.36719-5.51953l1.22265-.10547m14.375 1.10157l-6.53125 2.58593m5.58203-2.21093l.9336.79687m13.41015-.95312l-6.6914 2.14453m6.6914-2.14453l1.75782 1.71093m11.6914-1.1328l-6.95703.99218m5.94531-.84766l.72266.98828m13.5625-1.35937l-6.875 1.4414m6.875-1.4414l1.57422 1.88672m11.17187-3.1914l-5.73828 4.05468m5.73828-4.05469l2.19141 1.10547m10.16797-2.02734l-3.82422 5.89453m3.26953-5.03516l1.22266.10547m9.125-1.14062l3.21875 6.25m-2.75-5.33985l.69922-1.00781m10.8164 1.30078l5.88282 3.84375m-5.02735-3.28516l.10938-1.22265"/><g clip-path="url(#M)"><path fill="none" stroke="#000" stroke-linecap="round" stroke-linejoin="round" stroke-miterlimit="10" stroke-width=".5" d="M142.28125 397.375l3.4375 6.1289"/></g><path fill="none" stroke="#000" stroke-linecap="round" stroke-linejoin="round" stroke-miterlimit="10" stroke-width=".5" d="M155.33984 397.53125l3.95313 5.8125m-3.3789-4.96484l.5703-1.08594m13.09375-.20703l2.10157 6.70703m-1.79297-5.73047l.85937-.875m15.41797.52734l-4.4375 5.44922m3.79297-4.65625l1.20313.23438m9.85156-1.75l1.3711 6.89062m-1.17188-5.88672l.95312-.77734m10.59766 5.91797l4.5039-5.39453m13.8125 4.88281l-5.5-4.375m4.69922 3.73828l-.22265 1.20703m14.9414-1.71094l-6.70703-2.09375m6.70703 2.09375l.45313 2.41407m12.10937-1.09766l-5.19922-4.72656m5.19922 4.72656l-.60547 2.3789m14.19922-2.72656l-5.7578-4.03125m5.7578 4.03125l-.30078 2.4375m12.20703-1.26171l-2.9414-6.38282m2.51562 5.45313l-.74219.97656m13.8086.1836l-1.59375-6.84375m1.36328 5.84765l-.92578.8086m14.73437.11718l-2.12109-6.69922m1.8125 5.72266l-.85938.875m9.9375-3.6914l6.97266.8828m13.32813-.14452l-7-.59375m5.98437.5078l.48047 1.12891m13.83984-.93359l-6.98047-.8125m5.96485.69531l.44922 1.14063m12.74218-4.04297l-4.69921 5.22656m4.01562-4.46484l1.1914.29687m12.91016-.96094l-4.90625 5.03125m4.19532-4.29687l1.17578.34375m13.09375 3.6914l-5.39063-4.5078m4.60547 3.85156l-.2539 1.20312m15.1289-3.34375l-6.9414 1.08985m5.93359-.9336l.73437.98438m13.60938-.97657l-6.98438.76172m5.96875-.65234l.69141 1.01562m10.95703-4.16406l-1.61719 6.83985m1.37891-5.84375l1.1875-.3125m12.61328-.6172l-2.11328 6.70313m1.80469-5.72656l1.20703-.22266m11.2461-.91406l.23046 7.02344m-.19922-6l1.0664-.61328m8.98438 2.03125l6.69532 2.14062"/><g clip-path="url(#N)"><path fill="none" stroke="#000" stroke-linecap="round" stroke-linejoin="round" stroke-miterlimit="10" stroke-width=".5" d="M146.80469 385.0039l-5.60938 4.23829"/></g><path fill="none" stroke="#000" stroke-linecap="round" stroke-linejoin="round" stroke-miterlimit="10" stroke-width=".5" d="M145.98828 385.6211l1.11328.51952m13.63672.1875l-6.84766 1.58985m5.85157-1.35547l.80469.92188m13.4453-1.375l-6.72655 2.03125m5.75-1.73829l.86328.8711m13.57422-.3711l-7.01563.44141m5.99219-.375l.64453 1.04297m13.49219-2.07813l-6.61328 2.37891m6.61328-2.3789l1.8164 1.64843m10.92188 1.7539l-5.45703-4.42577m5.45703 4.42578l-.47266 2.41015m12.40625-1.3789l-2.69531-6.48828m2.69531 6.48828l-1.5586 1.89453m16.33985-3.03516l-5.6289-4.20703m5.6289 4.20703l-.375 2.42578m14.1836-3.33984l-6.61329-2.375m6.61328 2.375l.35157 2.42578m12.04687-1.04297l-4.78125-5.14453m4.78125 5.14453l-.80078 2.32031m.10547-3.0664l-.40234 1.16015m14.3203-.32812l-4.59765-5.3164m4.59766 5.3164l-.88672 2.28906m.21875-3.0625l-.44531 1.14453m15.03515-1.05468l-5.8125-3.94922m5.8125 3.94922l-.26171 2.4375m13.9414-3.1211l-6.53906-2.57812m6.53906 2.57812l.27344 2.4375m13.1836-2.89062l-6.82423-1.67578m5.83204 1.42968l.30078 1.19141m14.07422-1.3086l-6.96094-.94921m6.96094.94922l.85156 2.30078m12.35156-1.77344l-6.73437-2.0039m6.73437 2.0039l.48828 2.40625m12.89844-2.6914l-6.8789-1.4336m5.8789 1.22656l.34375 1.17578m13.99219-2.30468l-6.91797 1.23828m5.91015-1.0586l.75782.96485m12.42578-3.16406l-4.64063 5.27734m3.96485-4.50781l1.1914.28125m10.50782-1.92579l-.0586 7.02735m.05078-6.0039l1.08594-.56641m14.75781.64062l-5.10156 4.83203m5.10156-4.83203l2.32813.78516m10.39844-1.28125l-3.92579 5.82422m3.92579-5.82422l2.4414.2539m-3.01172.59375l1.22266.125m13.71875.14063l-6.03516 3.59765m6.03516-3.59765l2.09766 1.26953m11.6914.15234l-6.98437.75391m5.96875-.64453l.6875 1.01562m12.64843 1.72266l-4.99609-4.9414m4.26953 4.22265l-.35156 1.17578"/><g clip-path="url(#O)"><path fill="none" stroke="#000" stroke-linecap="round" stroke-linejoin="round" stroke-miterlimit="10" stroke-width=".5" d="M147.50781 373.63281l-7.01562.35156"/></g><path fill="none" stroke="#000" stroke-linecap="round" stroke-linejoin="round" stroke-miterlimit="10" stroke-width=".5" d="M147.50781 373.63281l1.26172 2.10547m11.6211-3.6289l-6.15235 3.39453m6.15234-3.39454l2.0547 1.34375m8.5664-3.13671l-.76563 6.98437m.65625-5.96875l1.13672-.45312m9.77735.1328l4.2578 5.58985m13.0586.17969l-3.7461-5.94531m3.19923 5.08203l-.60938 1.0625m14.625-.30078l-4.05078-5.74219m3.46094 4.90625l-.55078 1.09375m15.75781-2l-6.65625-2.26172m6.65625 2.26172l.39063 2.42188m12.8789-2.29688l-6.5625-2.50781m6.5625 2.50781l.30078 2.4375m-1.25781-2.80078l.15234 1.21484m14.25782-1.30078l-6.83985-1.60937m6.83985 1.60937l.625 2.3711m-1.6211-2.60547l.3125 1.1875m13.99219-.9375l-6.83203-1.64454m6.83203 1.64454l.61328 2.3789m-1.60547-2.61719l.30469 1.1875m13.6875-.11328l-6.19922-3.3125m6.19922 3.3125l-.00781 2.45313m-.89453-2.9336l-.00391 1.22657m13.0039.5625l-3.76562-5.92969m3.76563 5.92969l-1.21094 2.13672m15.48828-3.03907l-5.6875-4.125m4.85938 3.52344l-.16797 1.21485m14.87109-1.8125l-6.8086-1.72657m5.82032 1.47656l.28906 1.19141m13.6836-.10156l-6.14844-3.40625m5.2539 2.91015l-.01953 1.22657m14.60547-1.76172l-6.89844-1.34375m5.89454 1.14844l.35937 1.17187m13.91016-2.53125l-6.80078 1.76172m5.8125-1.5039l.82812.90234m11.84375 2.75781l-3.53906-6.07031m18.2539 1.51562l-6.33593 3.03516m13.7578-3.73438l5.44923 4.4375m-4.65625-3.79296l.23828-1.20313m13.27344-.27734l3.46875 6.10937m10.85937-6.49219l1.44531 6.875m-1.23437-5.875l.9414-.78906m15.96094 1.52735l-6.15234 3.39843m6.15234-3.39844l2.05469 1.33594m11.69922.36328h-7.02734m7.02734 0l1.14844 2.16797m11.93359-.91015l-6.5625-2.51563m5.60547 2.14844l.15234 1.21875"/><g clip-path="url(#P)"><path fill="none" stroke="#000" stroke-linecap="round" stroke-linejoin="round" stroke-miterlimit="10" stroke-width=".5" d="M146.86328 358.45703l-5.72656 4.07422"/></g><path fill="none" stroke="#000" stroke-linecap="round" stroke-linejoin="round" stroke-miterlimit="10" stroke-width=".5" d="M146.03125 359.05078l1.09766.54688m12.02343-2.10157l-3.67578 5.9922m3.14063-5.1172l1.22656.07422m14.08594.83985l-6.59766 2.41796m5.63672-2.0664l.91406.8164m13.21094-1.51953l-6.29688 3.1211m15.42579 1.79687l2.07812-6.71484m-1.77734 5.73437l-1.20313.23047m11.82813-1.82812L214 359.71484m-5.85547 1.33204l-.80078-.9297m16.92578 3.8672L223.51172 357m.64844 5.96875l-1.01563.6914m17.25-1.6914l-6.3789-2.94922m6.3789 2.94922l.13672 2.44922m13.23047-2.5664l-6.48047-2.71876m6.48047 2.71875l.22266 2.44531m-1.16797-2.83984l.11328 1.22266m14.34765-2.89844l-6.8828 1.42578m6.8828-1.42578l1.56641 1.88672m11.42188.44922l-6.23047-3.25m6.23047 3.25l.01953 2.45312m10.9375-.64453l-1.51172-6.86328m1.51172 6.86328l-1.8672 1.58985m14.6836-1.51954l-.51953-7.0078m.44531 5.98827l-1.03906.65625m17.5039-2.02734l-6.66796-2.22266m5.69922 1.89844l.20312 1.21094m11.44532 1.44531l-1.39454-6.88672m1.19141 5.88281l-.94922.78125m14.73047.16016l-1.92187-6.76172m1.64062 5.77735l-.88281.84765m10.63281-5.25l5.76953 4.00781m13.83985-1.15234l-6.81641-1.70313m14.3125 3.41016l4.82031-5.11328m-4.11719 4.36719l-1.18359-.32031m19.16406.40234l-5.91797-3.78906m19.27344 3.72656l-5.9961-3.66406m5.1211 3.1328l-.07422 1.22267m12.82813.625l-3.125-6.29297m2.66797 5.375l-.71094 1m16.42578-3.44532l-7.01172.4297m5.99219-.3672l.64062 1.04688m13.59766-.04688l-6.82031-1.6953m5.82812 1.44921l.29688 1.1914m14.11328-1.65624l-7.02344-.26954m6 .23047l.53516 1.10547"/><g clip-path="url(#Q)"><path fill="none" stroke="#000" stroke-linecap="round" stroke-linejoin="round" stroke-miterlimit="10" stroke-width=".5" d="M143.19922 343.75781l1.60156 6.83985"/></g><g clip-path="url(#R)"><path fill="none" stroke="#000" stroke-linecap="round" stroke-linejoin="round" stroke-miterlimit="10" stroke-width=".5" d="M143.19922 343.75781l1.84375-1.61719"/></g><path fill="none" stroke="#000" stroke-linecap="round" stroke-linejoin="round" stroke-miterlimit="10" stroke-width=".5" d="M157.08984 343.67188l.45313 7.01171m-.45313-7.01171l2.08594-1.28907m14.77734 5.9414l-6.64453-2.29296m5.67578 1.96094l.19141 1.21094m10.17969 1.4375l1.17969-6.92579m-1.00782 5.91797l-1.16406.38672m11.4336-2.2461l6.92578-1.1914m-5.91797 1.01953l-.75-.96875m13.60156 2.5l5.83984-3.90625m-5.83984 3.90625l-2.16406-1.16406m3.01172.59375l-1.08203-.57813m18.66406 1.9375l-4.39063-5.48828m3.75 4.69141l-.48437 1.125m14.42969-.32031l-4.3711-5.5039m4.3711 5.5039l-.98047 2.25m14.97265-2.96485l-5.72656-4.07421m5.72656 4.07421l-.3164 2.4336m-.51563-3.02735l-.16016 1.21875m14.83985-1.7578l-6.78906-1.8086m6.78906 1.8086l.55469 2.39062m11.16406-.27735l-3.59375-6.03515m3.59375 6.03515l-1.27344 2.10156m12.625-1.60937l.32813-7.01953m-.32813 7.01953l-2.21484 1.05078m15.69531-1.04687v-7.02735m0 7.02735l-2.16797 1.15234m14.04688-1.45703l2.87109-6.41797m-2.8711 6.41797l-2.4453.16406m17.02734.13672l.33593-7.01953m-.28515 6l-1.10938.52344m11.70703-.9375l5.67188-4.15235m-4.84766 3.54688l-1.10547-.53125m12.92579-1.17578l7.01171.47265m-5.99218-.40234l-.5-1.1211m12.78906 1.28907h7.02734m-6.0078 0l-.57423-1.08594m17.26172 4.48438l-1.75781-6.80079m1.75781 6.80079l-1.8125 1.66015m15.66797-1.84765l-2.83984-6.42579m2.42578 5.4922l-.75782.96483M412.9375 349.5l-5.27344-4.64453m12.97656.45312l5.94922 3.73829m13.14453.24609l-5.60937-4.23047m4.79687 3.61719l-.1953 1.21094M453.5 345.85156l-6.50781 2.65235m5.5625-2.26563l.9414.78516m10.5625-3.32422l-.99218 6.95703m.84765-5.94531l1.15235-.41406"/><g clip-path="url(#S)"><path fill="none" stroke="#000" stroke-linecap="round" stroke-linejoin="round" stroke-miterlimit="10" stroke-width=".5" d="M145.26953 330.58594l-2.53906 6.55469"/></g><path fill="none" stroke="#000" stroke-linecap="round" stroke-linejoin="round" stroke-miterlimit="10" stroke-width=".5" d="M145.26953 330.58594l2.4375-.28906m13.01563 2.71484l-6.81641 1.70312m6.8164-1.70312l1.64454 1.82422m11.6836-.16797l-6.83985-1.60938m6.83984 1.60938l.625 2.3711m-1.6211-2.60548l.3125 1.1875m14.08985-1.63671l-7.02344-.2461m7.02344.2461l1.07422 2.20703m-2.09766-2.2422l.53907 1.10548m13.79687-1.35156l-7.01953.3203m7.01953-.3203l1.25 2.10937M199.75 333.75l.625 1.05469m13.05078 1.11328l-5.70312-4.10938m5.70312 4.10938l-.33203 2.42969m-.4961-3.02735l-.33202 2.42969m14.625-2.0586l-6-3.65624m6 3.65625l-.14454 2.44921m-.73047-2.98046l-.0703 1.22265m13.05859.5l-3.59375-6.03906m3.59375 6.03906l-1.27344 2.09766m.75-2.97656l-.63672 1.04687m14.14844.0039l-2.94531-6.3828m2.9453 6.3828l-1.48437 1.95313m15.59375-2.46094l-4.53125-5.37109m4.53125 5.3711l-.91406 2.27734m13.26563-1.69922l-2.60547-6.52344m2.60547 6.52344L276.86719 339m11.67187-2.19922l3.85547-5.875m-3.85547 5.875l-2.44531-.22656m15.86328.29297l3.64844-6.00781m-3.64844 6.0078l-2.44922-.14062m2.98047-.73437l-1.22656-.07031m14.32422 1.11328l3.01953-6.34375m-3.01953 6.34375l-2.45313.10937m2.89063-1.03125l-1.22266.05469m13.03125.08203l5.15625-4.77344m-5.15625 4.77344l-2.3164-.8086m14.91406-.36327l6.59375-2.4297m-6.59375 2.4297l-1.83203-1.63672m16.61718 3.42187l3.65235-6m-3.65235 6l-2.45312-.14453m2.98437-.72656l-1.22656-.07422m14.21094 1.0586l3.2539-6.22657m-3.2539 6.22656l-2.45703.01563m18.03515.32422l-1.27734-6.91016m1.27734 6.91016l-1.92187 1.52734m17.71484-3.35547l-6.23047-3.25m5.32422 2.77735l.00781 1.22656m9.39063.6914l3.41406-6.14062m8.16016 2.39844l6.89844 1.33984m-5.89454-1.14453l-.35937-1.17188M438 337.21094l-2.13672-6.69531m1.82422 5.71875l-.85547.8789m16.61328-4.70703l-6.39453 2.91406m5.46485-2.48828l.97265.7461m13.01953-1.63282l-5.89062 3.83594"/><g clip-path="url(#T)"><path fill="none" stroke="#000" stroke-linecap="round" stroke-linejoin="round" stroke-miterlimit="10" stroke-width=".5" d="M466.50781 331.94531l2.14453 1.1875"/></g><g clip-path="url(#U)"><path fill="none" stroke="#000" stroke-linecap="round" stroke-linejoin="round" stroke-miterlimit="10" stroke-width=".5" d="M146.82031 318.45313l-5.64062 4.1875"/></g><path fill="none" stroke="#000" stroke-linecap="round" stroke-linejoin="round" stroke-miterlimit="10" stroke-width=".5" d="M146.82031 318.45313l2.21875 1.05468M146 319.0625l1.10938.52734m13.60156.05079l-6.78906 1.8164m5.80078-1.55078l.83593.89453m13.50782.48047l-6.8711-1.46875m6.8711 1.46875l.67187 2.36328m12.60156-2.19531l-6.78906-1.80469m6.78906 1.80469l.5586 2.39062m-1.54688-2.65234l.28125 1.19531m14.08594-1.22265l-6.91797-1.22657m6.91797 1.22657l.75781 2.33593m-1.76172-2.51171l.375 1.16406m13.64063-.05469L207.42187 319m6.3086 3.09375l.07812 2.45313m12.61328-1.5625l-5.0664-4.8711m4.33203 4.16016l-.33594 1.17969m11.8711.60937l-.03516-7.02734m.03125 6.0039l-1.08203.58203m13.19922.23438l2.3711-6.61328m-2.3711 6.61328l-2.42969.35156m15.03516-.69922l3.78906-5.91797m-3.78906 5.91797l-2.44532-.19922m16.57032.58204l2.16797-6.6836m-2.16797 6.6836l-2.41797.42578m13.9414-1.7461l5.75-4.04297m-5.75 4.04297l-2.1875-1.10937m16.75391 2.20312l3.25-6.23047m-3.25 6.23047l-2.45312.01953m18.03515.32032l-1.28515-6.91016m1.09765 5.90234l-.96094.76563m16.09766-5.89063l-4.55078 5.35157m3.88672-4.57422l1.19922.26562m7.26953.26563l6.46875 2.73828m-5.52735-2.33985l-.10937-1.22265m12.77344 4.10937l5.88672-3.83203m-5.88672 3.83203l-2.14844-1.1875m3.0039.62891l-1.07421-.59375m13.51953 1.1289l5.91797-3.78515m-5.0586 3.23438l-1.07031-.60157m15.35938 2.58594l2.25-6.65625m-2.25 6.65625l-2.42188.39844m17.66797-.30469l-1.61328-6.83984m1.3789 5.84375l-.92578.80859m13.6211.28125l.09375-7.02734m-.07813 6.0039l-1.09375.5625m16.97656-.6211l-5.0703-4.86718m17.08202 5.72656l-2.46484-6.58203m2.46484 6.58203l-1.6289 1.83594m17.17578-4.53515l-6.92578-1.1875m6.92578 1.1875l.76953 2.33203m11.53906-5.4375l-4.91406 5.02343"/><g clip-path="url(#V)"><path fill="none" stroke="#000" stroke-linecap="round" stroke-linejoin="round" stroke-miterlimit="10" stroke-width=".5" d="M466.01953 318.03516l2.35547.6953"/></g><path fill="none" stroke="#000" stroke-linecap="round" stroke-linejoin="round" stroke-miterlimit="10" stroke-width=".5" d="M465.30469 318.76953l1.17578.34375"/><path fill="#00f" fill-rule="evenodd" d="M206.26563 472.08594h8.61718V461.9414h-8.61719v10.14453"/><path fill="azure" fill-rule="evenodd" d="M208.09766 463.77344h.83593v2.82422h3.28516v-2.82422h.83203v6.48047h-.83203v-2.91797h-3.28516v2.91797h-.83593v-6.48047"/><path fill="#00f" fill-rule="evenodd" d="M450.375 454.33203h8.61719V444.1875H450.375v10.14453"/><path fill="azure" fill-rule="evenodd" d="M452.20703 446.01953h.83594v2.82422h3.28515v-2.82422h.83204V452.5h-.83204v-2.91406h-3.28515V452.5h-.83594v-6.48047"/><path fill="#00f" fill-rule="evenodd" d="M388.23828 436.57813h8.61719v-10.14454h-8.61719v10.14454"/><path fill="azure" fill-rule="evenodd" d="M390.07031 428.26563h.83594v2.82421h3.28516v-2.82421h.83203v6.48046h-.83203v-2.91406h-3.28516v2.91406h-.83594v-6.48046"/><path fill="#00f" fill-rule="evenodd" d="M334.97656 418.82813h8.6211v-10.14844h-8.6211v10.14844"/><path fill="azure" fill-rule="evenodd" d="M336.8125 410.51172h.83203v2.82422h3.28516v-2.82422h.83594v6.48047h-.83594v-2.91406h-3.28516v2.91406h-.83203v-6.48047"/><path fill="#ff3030" fill-rule="evenodd" d="M446.63281 347.8125h7.6914v-10.14453h-7.6914v10.14453"/><path fill="azure" fill-rule="evenodd" d="M448.46484 339.5h.83204v5.73828h3.1953v.74219h-4.02734V339.5"/><path fill="#ff3030" fill-rule="evenodd" d="M215.83594 338.9375h7.69531v-10.14844h-7.69531v10.14844"/><path fill="azure" fill-rule="evenodd" d="M217.67188 330.625h.83203v5.73828h3.1914v.73828h-4.02344V330.625"/><path fill="#00f" fill-rule="evenodd" d="M370.48438 330.0586h8.62109v-10.14454h-8.6211v10.14453"/><path fill="azure" fill-rule="evenodd" d="M372.3164 321.7461h.83594v2.82421h3.28516v-2.82422h.83203v6.48047h-.83203v-2.91797h-3.28516v2.91797h-.83593v-6.48047"/><path fill="#ffffe0" fill-rule="evenodd" d="M248.53906 383.54297h22.17969v-10.1914h-22.17969v10.1914"/><path fill-rule="evenodd" d="M252.03906 375.1836h.50781v6.29687h-.78515v-4.48828h-1.39063v-.5586l.5586-.0625.2539-.05468.23047-.08985.20313-.14062.17187-.21094.14453-.29297.10547-.39844m4.8125 0l.23047.01954.21875.05859.20703.08594.19531.12109.1836.15234.17187.17579.3047.41796.24218.4922.17969.54687.10937.58203.03906.58984-.03906.59375-.10937.58203-.1797.55469-.24218.5039-.30469.42579-.17187.17969-.1836.15234-.1953.125-.20704.09375-.21875.05469-.23047.01953-.23047-.01953-.21875-.0547-.20703-.09374-.19531-.125-.1836-.15235-.17187-.17968-.30469-.42578-.24218-.50391-.1797-.55469-.10937-.58203-.03906-.59375h.83203l.02735.5625.08203.50781.1289.44141.16016.375.1914.30078.21094.21875.22266.13672.22656.04688.22656-.04688.22266-.13672.21094-.21875.1914-.30078.16016-.375.1289-.4414.07813-.50782.03125-.5625-.03125-.5625-.07812-.5-.1289-.4336-.16017-.36718-.1914-.29297-.21094-.21484-.22265-.1289-.22657-.04688-.22656.04687-.22266.1289-.21093.21485-.19141.29297-.16016.36719-.1289.4336-.08203.5-.02735.5625h-.83203l.03906-.58985.10938-.58203.17969-.54688.24218-.49219.3047-.41796.17187-.17579.18359-.15234.19531-.1211.20703-.08593.21875-.0586.23047-.01953m5.08985 0h.51171v6.29688h-.78906v-4.48828h-1.38672v-.5586l.5586-.0625.2539-.05468.22657-.08985.20703-.14062.17187-.21094.14063-.29297.10547-.39844m2.82421 2.17579h.78907l.01953-.31641.0586-.28516.09765-.2539.14062-.21485.1797-.17187.22655-.1289.26563-.08204.30469-.02734.23828.02343.22656.0625.20313.10157.17968.13671.14844.17188.11328.20703.07031.23828.02344.26172-.01953.26953-.0664.22656-.10938.19141-.15625.16797-.19922.16406-.2461.16797-.63671.38672-.53516.3125-.4375.3164-.34765.32423-.26563.33593-.1875.35156-.125.3711-.07031.39453-.01953.41797h4.21093v-.74219h-3.33203l.08203-.28125.11329-.23828.14843-.20313.1875-.17968.23047-.17188.27735-.17578.71875-.41406.41406-.20703.34765-.23047.28125-.25.21875-.26953.16407-.27735.10937-.28125.0664-.28515.01954-.28125-.04297-.38672-.1211-.34766-.1875-.30469-.25-.26562-.30468-.21094-.34375-.16015-.38281-.09766-.40625-.03516-.4336.03516-.39844.09766-.35546.16796-.3047.23438-.24608.30469-.1875.3711-.1172.44921-.03906.51563"/><path fill="#ffffe0" fill-rule="evenodd" d="M377.25 383.41797h22.17969v-10.1914H377.25v10.1914"/><path fill-rule="evenodd" d="M380.75 375.0625h.50781v6.29297h-.78515v-4.48828h-1.39063v-.5586l.5625-.0625.25-.05468.23047-.08985.20313-.14062.17578-.21094.14062-.29297.10547-.39453m4.8125 0l.23047.01563.21875.05859.20703.08984.19922.11719.1836.15234.17187.17579.30078.41796.24219.4922.17968.54687.11329.58203.03906.58984-.03906.59375-.11329.58203-.17968.55469-.2422.5039-.30077.42579-.17188.17969-.1836.15234-.19921.125-.20703.09375-.21875.05469-.23047.01953-.22656-.01953-.21875-.0547-.21094-.09374-.19531-.125-.1836-.15235-.17187-.17968-.30078-.42578-.2461-.50391-.17968-.55469-.10938-.58203-.03906-.59375h.83203l.03125.5625.08203.50781.125.44141.16406.375.1875.30078.21094.21875.22266.14063.22656.04687.22656-.04687.22266-.14063.21094-.21875.1914-.30078.16406-.375.125-.4414.08204-.50782.02734-.5625-.02734-.5625-.08204-.5-.125-.4336-.16406-.36718-.1914-.29297-.21094-.21484-.22266-.1289-.22656-.04688-.22656.04687-.22266.1289-.21094.21485-.1875.29297-.16406.36719-.125.4336-.08203.5-.03125.5625h-.83203l.03906-.58985.10938-.58203.17968-.54688.2461-.49219.30078-.41796.17187-.17579.1836-.15234.19531-.11719.21094-.08984.21875-.0586.22656-.01562m5.09375 0h.50781v6.29297h-.78515v-4.48828h-1.39063v-.5586l.5586-.0625.2539-.05468.23047-.08985.20313-.14062.17187-.21094.14453-.29297.10547-.39453m2.82422 2.17188h.78515l.01954-.3125.05859-.28907.10156-.25.13672-.21875.1836-.17187.22265-.1289.26563-.08204.30859-.02734.23828.02343.22266.0625.20312.10157.17969.13671.14844.17579.11328.20312.07031.23828.02735.26172-.02344.26953-.0664.22656-.10938.19141-.15235.17188-.20312.16015-.2461.16797-.6328.38672-.53907.3125-.4375.3164-.34766.32813-.26172.33594-.1914.34765-.125.3711-.07031.39453-.01954.41797h4.21094v-.74219h-3.33203l.08203-.28125.11719-.23828.14453-.20313.1875-.17968.23047-.17188.28125-.17578.71484-.41406.41797-.20703.34375-.23047.28125-.25.21875-.26953.16406-.27735.11329-.28125.0625-.28515.01953-.28125-.04297-.38281-.11719-.35157-.1914-.30469-.25-.26562-.30079-.21094-.34765-.16015-.37891-.09766-.40625-.03125-.4375.03125-.39844.09766-.35156.16796-.30469.23438-.25.30469-.1836.3711-.11718.44921-.03906.51563"/></g></defs><use xlink:href="#W"/></svg>