<svg xmlns="http://www.w3.org/2000/svg" role="img" xmlns:xlink="http://www.w3.org/1999/xlink" viewBox="142.45 309.95 326.84 171.84"><defs><clipPath id="a"><path d="M144 433h1v47.32813h-1zm0 0"/></clipPath><clipPath id="b"><path d="M144 311.67188h1V429h-1zm0 0"/></clipPath><clipPath id="c"><path d="M144 311.67188h324v168.65625H144zm0 0"/></clipPath><clipPath id="d"><path d="M467 311.67188h1v168.65625h-1zm0 0"/></clipPath><clipPath id="e"><path d="M144 478h4v2.32813h-4zm0 0"/></clipPath><clipPath id="f"><path d="M153 478h8v2.32813h-8zm0 0"/></clipPath><clipPath id="g"><path d="M167 478h7v2.32813h-7zm0 0"/></clipPath><clipPath id="h"><path d="M180 478h8v2.32813h-8zm0 0"/></clipPath><clipPath id="i"><path d="M193 478h8v2.32813h-8zm0 0"/></clipPath><clipPath id="j"><path d="M207 478h7v2.32813h-7zm0 0"/></clipPath><clipPath id="k"><path d="M220 478h8v2.32813h-8zm0 0"/></clipPath><clipPath id="l"><path d="M234 478h7v2.32813h-7zm0 0"/></clipPath><clipPath id="m"><path d="M247 477h7v3.32813h-7zm0 0"/></clipPath><clipPath id="n"><path d="M260 478h8v2.32813h-8zm0 0"/></clipPath><clipPath id="o"><path d="M273 478h8v2.32813h-8zm0 0"/></clipPath><clipPath id="p"><path d="M287 477h7v3.32813h-7zm0 0"/></clipPath><clipPath id="q"><path d="M300 477h7v3.32813h-7zm0 0"/></clipPath><clipPath id="r"><path d="M313 478h8v2.32813h-8zm0 0"/></clipPath><clipPath id="s"><path d="M327 478h7v2.32813h-7zm0 0"/></clipPath><clipPath id="t"><path d="M340 478h8v2.32813h-8zm0 0"/></clipPath><clipPath id="u"><path d="M353 479h8v1.32813h-8zm0 0"/></clipPath><clipPath id="v"><path d="M360 480h2v.32813h-2zm0 0"/></clipPath><clipPath id="w"><path d="M366 479h9v1.32813h-9zm0 0"/></clipPath><clipPath id="x"><path d="M373 480h3v.32813h-3zm0 0"/></clipPath><clipPath id="y"><path d="M379 479h9v1.32813h-9zm0 0"/></clipPath><clipPath id="z"><path d="M385 480h2v.32813h-2zm0 0"/></clipPath><clipPath id="A"><path d="M395 476h4v4.32813h-4zm0 0"/></clipPath><clipPath id="B"><path d="M409 476h2v4.32813h-2zm0 0"/></clipPath><clipPath id="C"><path d="M419 479h9v1.32813h-9zm0 0"/></clipPath><clipPath id="D"><path d="M425 480h2v.32813h-2zm0 0"/></clipPath><clipPath id="E"><path d="M433 478h8v2.32813h-8zm0 0"/></clipPath><clipPath id="F"><path d="M439 480h1v.32813h-1zm0 0"/></clipPath><clipPath id="G"><path d="M446 479h8v1.32813h-8zm0 0"/></clipPath><clipPath id="H"><path d="M452 480h2v.32813h-2zm0 0"/></clipPath><clipPath id="I"><path d="M460 478h8v2.32813h-8zm0 0"/></clipPath><clipPath id="J"><path d="M144 465h4v4h-4zm0 0"/></clipPath><clipPath id="K"><path d="M144 451h4v5h-4zm0 0"/></clipPath><clipPath id="L"><path d="M144 438h4v4h-4zm0 0"/></clipPath><clipPath id="M"><path d="M144 425h4v4h-4zm0 0"/></clipPath><clipPath id="N"><path d="M144 411h3v6h-3zm0 0"/></clipPath><clipPath id="O"><path d="M144 397h2v7h-2zm0 0"/></clipPath><clipPath id="P"><path d="M144 384h4v6h-4zm0 0"/></clipPath><clipPath id="Q"><path d="M144 373h4v2h-4zm0 0"/></clipPath><clipPath id="R"><path d="M144 358h4v5h-4zm0 0"/></clipPath><clipPath id="S"><path d="M144 343h2v8h-2zm0 0"/></clipPath><clipPath id="T"><path d="M144 341h2v4h-2zm0 0"/></clipPath><clipPath id="U"><path d="M144 330h2v8h-2zm0 0"/></clipPath><clipPath id="V"><path d="M466 331h2v3h-2zm0 0"/></clipPath><clipPath id="W"><path d="M144 318h4v5h-4zm0 0"/></clipPath><clipPath id="X"><path d="M465 317h3v3h-3zm0 0"/></clipPath><g id="Y" clip-path="url(#clip1)"><path fill="#fff" fill-opacity="0" fill-rule="evenodd" d="M0 0h1000v1000H0zm0 0"/><path fill="#d3d3d3" fill-opacity="0" fill-rule="evenodd" d="M162.15234 355.86719l-.23437.29297.0586.23437.11718.17188.17578.23437.29297.34766.11328.0586.11719-.17188.0586-.23438.17577-.17578.46485-.17578h.69922l.23437.29297.28906.8164.0586.17579.17578.23046.35156.23438.69922.69922.17188.17578.23437.34765.23438.41016.28906.58203.41015.46485.23047.23437.23438.17578.11719.23047.17578.29297.17187 1.16406v.23438l.0586.28906.05859.11719.11719.11719.34765.41015.11719.17188.17578.17578.17578.23437.11719.17188.17188.35156.05859.23438.23437.40625.23438-.0586-.17578.17578-.0586.92969h-.58203l-.23437-.11328-.34766.11328-.11719.11719-.05859.29297-.0586.17578-.11718.17187-.46484.29297-.0586.23438-.0586.11328v.64453l.0586.17187v.41016l.0586.0586v.40624l.05859.40625.11719.17579.05859.05859.23047.64062-.0586.29297v.69922l-.05859.58203v.23438l-.0586.23047-.05468.35156v1.92187l.05469.1172h.42578l-.36719.11718-.02344.35156.89063 1.16797 1.74219.53906 1.33984.35938v.53906l.08984.8086.53516.71484 1.51953.26953.89063-.08594.08984 1.16406.53516.1797 1.16015-.1797 2.05469-.98437 1.16016-.36328 1.8789-.17578 1.69531-.1797-.17968.71876-1.51563.08594-1.25.08984-.80469.26953-1.07421.8086.26953.71875.53515.89843-.17968.625-.26563.8086.26563 1.07812.625.89844.80468.17969 1.25-.1797-.26562.72267.09766.5039.05468.29297v.17188l.0586.29296v.40625l.17578.1172.35156.11718h.40625l.29297-.17578.11328-.11719.0586-.11719.11718-.23047.0586-.17578.35156-.46484.23047-.17578.17578-.0586.17578.0586.0586.17578.11718.98828.05469.46875.0586.17188.11718.23437.17578.0586.8164.05859h.28907l.11719.23437.05859.40625.0586.35156v1.10547l.11718.29297.11719.34766.28906.69922.17578.35156.58203.7539.35157.17579.17187.0586.46875.23437.64063.46484.34765.23438.29297.17578.29297.05468.23047.0625.8164.34766.29297.17578.11328.17188.35157.35156.11719.17578.52343.64063v.28906l.0586.35156v.34766l.05859.35156.0586.28906.11718.0586.17188.05859h.17578l.58203.23437.17578.1172.17578.28905.17578.23438.11328.23437.29297.23047.11719.11719v.41016l.0586.05468.28906.23438.23437.11719.0586.11718.11718.17188.0586.11719.23047.23437.05859.17578.23437.0586.1172.05859-.1172.11328-.05859.11719v.11719l-.11719.29296-.11719.28907v.58203l.17579.11719.11718.05859.0586.11719.11719.11719.11328.05859.17578.34765.0586.35157.05858.40625v.17578l-.05859.17578-.11719.69922v.17187l.1172.17579.29296.29296h.40625l.17578.1172.11719.17187.11719.29296v.23438h-.52735l-.23047-.23438h-.23437l-.17578.0586-.0586.69922.0586.34765.11719.17579.17578.41015.11718.23047.28907.46875.17578.05469h.52344l.23437.0586.75781.64062.0586.29296v.23438l.05859.0586.23047.34765v.35156l-.11719.17188v.29297l.29297.28906.29297.17578.17187.0586.29297.17577.29297.1172.58203.40624.28906.23438.29297.17578.21875.16015.01563.01172.23047.17579.64062.52343.17578.23438.1172.17578.17577.17578.11328.17188v.64062l.1172.17578.46874.11719.58203.11719.23438.05859.23047.11328.29297.11719.11328.0586.58593.35156.28907.17187.17578.0625.17578.05469.17578.0586.69922.35155.28906.17579.23438.05468.28906.17578.23437.1172.64063.40624.29297.11719.17187.0586.23438.05859.41015.05859.23047.0586.23438.11718.0586.17188-.41017.17578.46875.0586.0586.29296.11328.23438.17578.05468.23438.0586.17578.05859.40625.11719.64062.23437.11719.17188.0586.23437v.17578l-.0586.1172-.0586.40624.23438.23438.11719.05859.34766.11719.64062.23047.17578.11718.28906.1172.17578.17577.23438.46485.58203 1.10546.17578.17579.34766.17578.17578.11719.35156.11718 1.04688.52344.23437.0586.46485.11327.29297.0586.46484.17578.75781.58203.23438.23438.34765.46484.17578.17578.28907.23438.8164.69921.29297.17579.28906.28906.29297.17578.29297.28906.69531.64063.17578.17578.29297.23437.28907.23438.46875.28906.64062.58203.34766.23438.23437.29297.34766.34765.35156.46485.9336.99218.34765.40625.11719.17579.23437.05859.11328.11719.64454.17578.23047.11328.23437.0586.29297.17577.23047.1172.9336.69921.40624.40625.23438.17578.40625.17578.23437.11719.8164.34766.34766.23437.23438.11719.29297.28906.23047.11719.7578.35156.35157.17188.23047.05859.29297.11719.23437.0586.8711.17577h.8164l.46875.23047.17188.0586.875.69921.46484.1172.29297.05858.17578.0586.23047.0586.46875.05859.34766.05859.35156.0586.40625.05859h.29297l.17187.0586v.23046l.17578.17578h.29297l.34766.0586.35156.05859.69922.11719h.64063l.46484-.23438.29297-.17578.17187-.11719.41016-.17187.28906-.17578.9336-.46485.46875-.29297.52343-.29296.46485-.17188.46484-.17578 1.05078-.46485.28906-.11718.41016-.11719.28906-.11719.52735-.17578 1.51562-.69922.58203-.34765.28907-.0586.29297-.0586.34765-.11718.875-.23047.35156-.11719h.11329l.23437-.05859.875-.23437.23438-.0586h.8125l.35156-.0586.8164-.11718.17188-.0586.35156-.05468.29297-.0586.23047-.05859.8164-.17578.17579-.0586h.34765l.23438-.05859.46484-.11718.75781-.17188.23438-.0586h.34765l.41016-.11718.28906-.0586 1.28516-.05859h.28906l.41016-.0586.23047-.05858h.17578l.875-.1172h.40625l.41015-.11718h.34766l.35156-.11328.8711-.0586h1.75l1.04687.28907.41016.11719.28906.11718.35156.11719.28907.11719 1.05078.17187.28906.0586h.29297l.29297.05859.17187.0586.41016.05859.17187.0586.1172.05858h.11718l.11719.0586.35156.0586h.11328l.41016.0664 1.92187.39453 1.92578.39453 1.51953.44922 1.69532.71875 2.14453.80469 1.60547-.71875 1.42968-.80469 1.16016-1.07813 1.25-.44921 3.03516-.71875 1.875-.35938 2.14453-1.34765 2.23437-1.25391 2.5-1.25781 1.69531-.44922 1.78516-.17969 1.16016-.26953.625.53906 1.33984-.26953.71485-.98828.98437-1.34375.44531-.17969.80469-.35937 1.875-.53907 1.78516-.44921 1.25-.26954 1.16015-.08984 1.69922-.08984 1.96094-.26954 1.25-.08984h.53906l.625-.08984h.89063l2.14453-.17969 2.41015-.17969 2.58985-.08984 1.69531.17969 1.60938.08984 1.42968.35938 1.16016.71875 1.875.98828 1.16015 1.52734.26563.71484.6289.08985.35548.89844.53515.53906.53516 1.52734 1.07422.35938h.53515l-.80469.53515.08985 1.70703.71484 2.69532.89063.80468.89453.98829.71484 1.2578 1.78516.53907 1.51953-.17969.35547 1.34375 1.60937-.80469.98047-.53906.26953.26953.31641-.21484.21875-.14453.80078.44922.44922-.35938h.35547l.53515-.26953.53907-.71875.53515-.26953.625-.98828 1.16016.44922.83984.3711 1.39454.61718 1.6953-.17969h1.60548l1.78515.08985.17969-1.70704.53516-1.34375.80468.26954.4922.84765.40233.40625-.08984.53906v.35938l.71485.44922.71093-.26953h1.42969l.35938.98828.4453 1.25781.71485 1.34375 1.25.6289 1.69531.62891.71485-.17969.17969-.53906.98046-.08984.44922.35937.08594 1.25782-.26563.6289-.53515.17969v.53906l.71484.98438.26563.53906.98437.98828.80078 1.07813-.26562.35937-.08985.89844-.625 2.33203-.35546 2.0664-.08985 1.79298-.17969.71875-.08984.53906v1.4375l-.98047 1.88281-.35937 1.70703-.53516.89844-.80469 1.16797-.26562.53906 2.05469 1.2539.08593.35938-.35546.53906-.08985-.17968v.80859l.08985 1.4375-.44532.71484-1.07422.09375-.26562.71485.53515.89844.8047.71875 1.16015.80859 1.33984.26953.44531.35938-.35546.44921-1.78907-.08984-1.25-.44922-.71484-.71875-.625-.08984-.17578 3.58984-.1875 1.3086h89.35937V311.70313h-55.26953v49.08203l.76172.125 3.28906.54296 2.02344 2.83594v2.7539l2.35156.33204 2.34766.33203h4.05078l-1.3789 4.16016-2.02344.70703-2.02344.70312-.54297.34375-2.59375 1.6172-.1875.11718-2.02344-2.07813-.73046-2.74218-2.67188-2.07813-1.375-3.5-.0664-.08203-1.95704-2.67188 2.75-1.41796v-49.08204H294.42187v91.41407l.1172.03125.1328.01172.07422.07421.10547.04688.08985.0586.08593.05859.08985.0586.29687.29687.0586.08984.03125.11719.02734.11719.01563.13671-.03125.1172-.0586.08983-.0586.08594-.04296.10547-.04688.10156-.02734.1211v.14453l.17578.26953.14844.14844.07422.08594.07422.07421.04296.10547.0625.08985.0586.08593.04297.10547.0586.08985.04687.10156.04296.10547.0586.08594.11719.17968.07421.07422.0625.08594.0586.08984.04297.10547.0586.08985.05858.08593.0625.08985.0586.08984.04297.10156.11719.17969.07421.07422.0586.08594.07422.07421.08984.0586.10547.04687h.14844l.1328-.01562.13282.01562.10156-.04687.07422-.07422.04688-.10156-.01563-.13281v-.14844l-.04687-.10547-.02735-.11719-.04687-.10156-.02735-.1211-.04296-.10156-.0625-.08984-.04297-.10156-.04297-.10547-.03125-.11719-.01563-.13281-.01171-.13672.08593-.0586.0586-.08593.12109-.03125.04297.10547.01562.1328v.1172l.0586.10156.0586.08984.08983.0586.14844.14843.0586.08985.04296.10547-.01171.10156.08593.0586.10547.04687.08594.0586.08984.05858.07422.07422-.11719.02735-.10546.04687-.08594.0586-.07422.07421-.0586.08985-.0625.08594-.02734.12109-.04687.10156-.04297.10547-.03125.11719-.01172.13281-.01563.13281v.14844l.02735.11719.04687.10547.04297.10156.0586.08984.07421.07422.08985.0586.07422.07421.08984.0586.0586.08984.04296.10547.04688.10156.11719.03125.1328.01563h.14845l.11718-.03125.10547.04297.04297.10547.04688.10156.02734.1211L299.5 410l.02734.11719.03125.1211.02735.11718.10547.04297.10156.04687.13281-.01562.14844.14844.0625.08593.07422.07422.07031.07422.08984.0625.10547.04297.10156.04297.1172.03125.13671.01562.11719-.03125.07422-.07422.02734-.11718-.01172-.13282-.03125-.12109-.02734-.11719.04297-.10547h.11719l.08984.0625.11719.02735h.14843l.13282.01562h.14843l.13282.01563.1328-.01563h.14845l.1328-.01562.13282-.01172.13672.01172.11719-.02735.13281-.01562.1914-.0586-.05859.17579-.01562.1328-.02735.1211-.01562.13281-.0586.08594-.1328.01563-.10548.04687-.10546.04297-.1172.03125-.11718.02735-.26563.03125h-.14843l-.13281.01562-.07422.07422.05859.08594.14844.14843.11719.1797.07421.0703.08985.0625.08984.0586.08594.0586.08984.05858.10156.04297.10547.0625.10547.04297.08594.0586.10547.04687.10156.04297.17969.11719.0586.08984-.04298.10156-.04687.10547.01562.13281.22266.22266.0586.08985.04296.10156.03125.1211.04297.10155.01563.13282.03125.11718.01171.13672.03125.11719.14844.14844.10156.04297.10547.04296.1172.03125.1328.01563.13672.01563h.11719l.11719-.03125.08984-.0586.04297-.10547.04688-.10156.04296-.10547.03125-.11719.01172-.1328v-.14845l-.01172-.1328-.01562-.13282-.03125-.11719-.04297-.10547-.04688-.10547-.04296-.10156-.04297-.10547-.01563-.13281.01563-.13281.02734-.11719.03125-.11719.02735-.1211.04687-.10155.08984-.0586.08594-.0625.07422-.07422.08984-.05859.22266-.22266.0586-.08593.07421-.07422.11719-.17969.0586-.08594v-.14844l-.07423-.07421-.10156-.04688-.10547-.04297-.10156-.04297-.0586-.08984-.04687-.10547-.02734-.11719.08984-.05859.11719-.03125.10156-.04297.17969-.11719.14844-.14843.01172-.13282-.01172-.10546-.08985-.0586-.1328.01563h-.14845l-.1328.01562-.13282-.01562-.1211-.03125-.08593-.0586-.07422-.07422-.0586-.08984-.0625-.08594-.11718-.17969-.0586-.08593.03125-.1211.08594-.05859.1211-.03125.05859-.08594v-.1211l-.03125-.11718-.0586-.08984-.05859-.08594-.04687-.10547-.02735-.11719-.01562-.1328.0586-.08985.07421-.07422.08984-.0586.1172-.17968.07421-.07422.0586-.08594.14843-.14844.1211-.03125.1328-.01562.13282.01562.07422.07422.04297.10547.01562.13281-.03125.1172-.11719.03124-.1328.01172-.14844.14844-.04297.10547-.04688.10156-.02734.1211-.03125.11718v.14844l.03125.11719.04297.10546.05859.08985.07422.07031.07422.07422.11719.03125.12109.02734.11719-.02734.1328-.01563h.1172l.08984.0586.07422.07422.04687.10546.0586.08594.10156.04688.13281.01562.10547.04297.08594.0586-.01172.10546-.07422.07422-.17969.11719-.05859.08984-.08984.0586-.07032.07422-.07421.07421-.0625.08985-.02735.11719-.01562.1328.01562.13282-.01562.13281v.14844l.01562.13281.02735.1172.03125.12108.07421.07422.08985.0586.08594.0586.08984.05858.11719.03125v.08594l-.10157.04688-.08984.0586-.26563.03124-.11718.02735h-.14844l-.10547.04296-.10156.04688-.0586.08984-.0625.23438-.01171.13281-.03125.1211-.01563.1328v.29298l-.01172.1328.01172.13673.01563.1328.1328.01563.13282.01172.1211.03125.08593.0586.07422.07421.04688.10547.04296.10157.01563.1328v.44532l-.01563.13281v.44532l.03125.26562.02735.11719.01562.13281.03125.11719.08594.21094.03125.26562v.14844l-.03125.11719-.02734.11718-.03125.1211-.02735.11719-.03125.11718-.03125.1211-.01171.1328-.01563.13282.08984.0586.1172-.03125.10155.01562.04688.10547-.03125.26562v.44141l-.04297.10547-.04688.10547-.04296.10156-.04297.10547-.0586.08594-.03125.12109-.04296.11719-.03125.11719-.01563.1328.01563.13282.05859.08984.10547.04688.08594.0586.05859.08593-.01172.13672-.03125.11719-.04297.10156v.44531l-.01562.13281v.14844l-.03125.11719-.04297.10547-.02735.11719-.04687.10546-.04297.10157-.03125.12109-.02734.11719-.03125.13281-.03125.11719-.02735.11719-.04297.10546-.03125.1172-.03125.12108-.01171.13282-.01563.13281v.29688l.02734.11718v.14844l.04688.39844.02734.11719.0586.08984.12109.03125h.14844l.13281-.01563.0586.08985v.11719l-.0586.08984-.08984.0586-.10157.04296-.10546.04688-.08985.05859-.08594.0586-.13671.01562-.1172-.03125-.1328-.01563-.10157.04688-.0625.08594-.01172.13671-.01562.13282-.03125.11719-.02735.11718-.01562.13281-.03125.1211v.29687l.01563.13282.03125.11718v.14844l.01171.13281v.14844l-.02734.11719-.04688.10156-.02734.1211-.03125.11718-.0586.08985-.07421.07421-.10156.04297-.10547.04688-.11719.02734-.1211.03125-.10156-.04687.0586-.08594.10547-.04688.02734-.11718.03125-.11719.02734-.1211.03125-.11718v-.14844l.01563-.13281-.03125-.11719-.04297-.10547-.10547.01563-.07422.07422-.10156.04296-.08984.0625-.07422.07422-.04297.10157-.01563.1328-.03125.1172L304.25 426l-.03125.11719-.02734.11719-.03125.12109-.02735.11719-.03125.11718-.04297.10547-.08984.0586h-.08984l-.1172-.03125-.03124-.08594.01562-.13672-.03125-.11719v-.14844l-.01171-.1328v-.14844l-.0625-.23438-.02735-.1211-.04297-.10156-.04687-.10546-.0586-.08594-.05859-.08985-.04297-.10546-.0625-.08594-.14844-.14844-.0703-.07422-.10548-.04687-.10547-.04297-.10156-.04297-.29687-.29688-.08985-.07421-.08594-.0586-.10546-.04297-.08985-.0625-.08594-.0586-.10546-.04296-.08985-.0586-.08594-.0625-.07421-.0703-.10547-.04688-.08594-.0586-.10547-.04296-.08984-.0625-.10156-.04297-.10547-.04297-.08594-.0586-.10547-.04687-.10547-.04297-.10156-.04687-.08985-.0586-.10156-.04297-.10547-.04296-.08984-.0625-.11719-.02735-.13281-.01562-.13281.01562H299.75l-.13281.01563-.11719-.03125-.08984-.0586-.07422-.07422-.08985-.05859-.10156-.04688h-.14844l-.12109-.02734-.10156-.04297-.07422-.07422-.11719-.17968-.08984-.0586-.10156-.04297-.08985-.0625-.10547-.04296-.08984-.0586-.08594-.0586-.10547-.04687-.0586-.08594-.05858-.08984-.04297-.10547-.04688-.10156-.07422-.07422-.08594-.0586-.07421-.07421-.08985-.0586-.22265-.22265-.04297-.10547-.03125-.26563.10547-.04296h.14453l.10547.04296.07421.07422.08985.0586.08594.0586.10546.04687.08985.05859.14844.14844.0703.07422.14845.14843.0625.08594.07421.07422.08594.0586.07422.07421.08985.0625.08984.0586.08594.05859.26953.17578.10156.04688.10547.04296.10156.04297.04688-.07421.05859-.08594.07422-.07422.07031-.07422.10547.04297.07422.07422.0586.08984.04296.10156.04688.10547.04296.10547.1211.02735.11719-.02735.07421-.08984.04297-.10547.0586-.08985.07422-.07421.10546-.04297.1172-.02735.1328.01172.08985.0586.14844.14843.05859.08985.04297.10547.04687.10156.04297.10547.04297.10156.10547.04688.10547.04296.13281.01563.08594-.0586.0586-.08984.07421-.07422.10547-.04297.11719.02735.10547.04687.10156.04297.10547.04297.10156.04688.17969.11718v.11719l-.01563.13281.01563.13281.01562.13672.0586.08594.10156.04688.1211.02734.11718.03125h.14844l.11719-.03125.05859-.08984.17969-.1172.05859-.08983.07422-.07422.0586-.08594.11718-.17969.17969-.11719.11719.03125.08984.0586.04297.07422-.01563.1328v.1172l.08985.05859h.14843l.13282-.01563.1328-.01171.26563-.03125.10547-.04297.11719-.03125.1211-.02735.07421-.07421.07031-.07422.0625-.08985-.01562-.10547-.04688-.10156-.10156-.04297-.10547-.01562-.11718.02734-.26563.03125h-.14844l-.07421-.07422-.08985-.0586-.11719-.03124-.11718-.02735-.13282-.01562h-.14843l-.13282.01563h-.29687l-.10547-.04688-.14844-.14844-.04297-.10156-.05859-.08984.22266-.22266.08593-.0586.10547-.04296.11719-.03125.13281-.01563.13281.01563.13672.01562.10157.04297.1328-.01172.08985-.0625.10156-.04297.0625-.08984-.04687-.10156-.08984-.0586-.1172-.03125-.10155-.04296-.0586-.08985-.0625-.08984v-.11719l.01563-.13281.10547-.04688.07421-.07031v-.1211l-.08984-.05859-.03125-.11719.08985-.05859.07421-.07422.04297-.10547.0586-.08984.04687-.10156.01563-.13281v-.14844l-.04688-.10547-.04297-.10156-.08984-.0586-.13281-.01562-.10157-.04297-.13671-.01563-.1172-.03125h-.4453l-.13282-.01562-.13281-.01172-.13281-.01563-.11719-.03125h-.14844l-.13281-.01562-.13281-.01172-.26563-.03125-.1211-.04297-.08593-.0586-.07422-.07421v-.14844l.01172-.13281.10547-.04688.10156-.04296.13281-.01563h.15235l.13281-.01562h.29297l.1211.03125.10156.04296.08984.0586.23438.0625.12109-.04688.08984-.05859.10156-.04297.13282-.01562.10547.04296.10156.04688.13281.01172.1211-.02735h.14453l.12109-.03125.11719-.02734.10547-.04687.07421-.07422.08594-.0586.14844-.14843.0586-.08594.04687-.10547.02734-.11719.01563-.10547-.10156-.04296-.08985-.0586-.11719-.03125-.10546-.04297-.08985-.0625-.07422-.08594-.07422-.07421-.10156-.04297-.10547-.04688-.10156-.04297-.0586-.08984-.04687-.10156-.08594-.21094-.0625-.08594-.05859-.08984-.07422-.07422-.08594-.0586h-.26953l-.11719.03126-.08984.05859-.10156.04297-.13281.01562-.10547-.01562-.02735-.11719-.0625-.08984-.11718-.03125-.10157-.04297-.14843-.14844-.03125-.11719-.01563-.10546.07422-.07422.17969-.1172.11719-.02733.11718-.03125.13672.01562.10156.04297.10547.04297.10156.04687.10547.04297.1172.03125.1328.01563.1172.02734.1328.01563.10547-.01563.08985-.0586-.07422-.07421-.10547-.04297-.07422-.07422-.07422-.08984-.14844-.14844-.08593-.0586-.08985-.05859-.07422-.07422-.08984-.0586-.10156-.04687-.1211-.02734-.10156-.04688-.10547-.04296-.11719-.03125-.10156-.04297-.1211-.03125h-.14843l-.11719.03125-.10546.04297-.08594.0625-.17969.11718-.08594.0586-.08984.0586-.10547.04687-.08594.05859-.10547.04297-.10156.04297-.10547.04687-.07422.07422-.05859.08985-.0586.08593-.04687.10547-.0586.08594-.07421.07422-.13281-.01172-.1172-.03125h-.11718l-.07422.07422-.08984.0586-.07422.07421-.08984.0586-.08594.05859-.10547.04687-.10156.04297-.13672.01563-.10156-.04297-.14844-.14844-.10547-.04688h-.08594l-.10547.04688-.10156.04297-.1211.03125-.11718-.03125-.07422-.07422v-.11719l.03125-.1211.07422-.0703.0586-.08985.07421-.07422.11719-.03125.10547-.04296h.29297l.13281-.01563.13672-.01563.10156-.04296.08985-.0586.10156-.04687.08984-.0586.13281-.01171.08985.05859.13281.01172.08984-.0586.08594-.05859.10547-.04297.08984-.0586.08594-.0625.08985-.05859.14843-.14843.0586-.08594.05859-.08985.10547-.04296.13281-.01563.11719.02735.1211.03125.05859-.0586.05859-.08984.03125-.26563.02734-.11719.10547.01172.13281.01563.10157-.04297.08984-.0586.0586-.08984.07421-.07422.0586-.08984.04687-.10156.01172-.13281-.01172-.13282-.04687-.10547-.14844-.14843-.0586-.08985-.05859-.08594-.04297-.10546v-.44532l.01563-.1328v-.14845l.01172-.1328-.0586-.0586-.08984.0586-.10156-.04298-.17969-.11719-.08594-.05859-.0625-.08984-.0586-.08985-.07421-.07421-.08594-.0586-.1211.03125-.10155.01172-.10547.04688-.08594.05859-.10547.04297-.14844.14844-.08984.05859-.08594.0586-.08984.0625-.10547.04296-.13281.01563v-.1211l.10547-.04297.11718-.03125.07422-.0703.04297-.10548v-.14844l-.02734-.11718-.14844-.14844-.13281-.01563h-.14844l-.11719.03125-.10547.04297-.10156.04297-.08984.0625-.11719.02735-.07422-.07422.01172-.13281-.04297-.10157-.04297-.10547-.08984-.05859-.11719.02734-.1211.03125-.11718.03125-.10156.04297-.1211.03125-.10156.04297-.10547.04297-.08984.0586-.10156.01562v-.11719l.01562-.13281-.0586-.08985-.07421.04297-.14844.14844-.0586.08985-.07421.07421-.04688.10547-.04296.10156-.07422.07422-.0586.08985-.07422.07422-.05859.08593-.07422.07422-.08984.0625-.07422.07031-.07422.07422-.10156.01563-.13281.01562-.10547-.04296v-.1211l.14843-.14844.04297-.10156.0586-.08984.04687-.10156.04297-.10547.0586-.08985.03124-.11719.04297-.10156.03125-.1211.02735-.11718.04687-.10547.04297-.10156.04297-.10547.07422-.07031.08984-.0625.08985-.0586.10156-.04296h.29687l.26563-.03125.10547-.04297-.07422-.07422-.11719-.03125-.10547-.04297-.08984-.0586-.10156-.04687-.08985-.0586-.10156-.04296-.10547-.04297-.08984-.0625-.08594-.0586-.10547-.04296-.10156-.04297-.1211-.03125-.11718-.03125-.10157-.04297L297.5 410.25l-.10156-.04297-.08985-.0586-.04296-.10546-.01563-.13281.10156-.04297.13281-.01563.13672.01563.13282-.01563.10156-.04297.0586-.08984.01562-.10547-.08985-.0586-.07421-.07421-.10157-.04297-.08984-.0586-.14844-.14843-.04297-.10547-.01562-.13281v-.29297l-.0586-.08985-.08984-.05859-.07422-.07422-.04297-.10547-.03125-.11718-.0586-.08985-.07421-.07422-.11719-.02734-.07422-.07422-.08984-.0586-.08984-.0625-.08594-.05859-.07422-.07421-.0586-.08594-.04687-.10547-.08594-.0586-.14843-.14843-.19532-.0586-.1328.01563-.10157.04297-.07422.07422-.04688.10156-.04296.10547-.0586.08984-.0586.08594-.29687.29687-.08984.0586h-.08594l-.0625-.08594-.04297-.10547.03125-.11719.0586-.08984.02734-.11719-.01172-.13281-.08984-.0625-.10547.04688-.11719.02734-.11719.03125-.26953.17578-.10156.04688-.11719.02734-.10546.04687-.08985.0586-.10156.04297-.0586-.08594-.04687-.10547.01563-.13281.04687-.10547.07031-.07422.07422-.07031.0586-.08985v-.14843l-.04297-.10547h-.23829l-.10156.04687-.03125.11719-.02734.11719-.03125.1211-.07422.04296-.13281.01563-.07422-.04688-.04297-.10156-.04297-.10547-.04687-.10156-.04297-.10547-.1211.03125-.10156.04297-.13281.01562-.11719.03125-.10547.04297-.08984.0586-.10156.04687-.1211.02734-.13281.01563-.10156-.04297-.0586-.08985-.04687-.10546-.04297-.10157-.04297-.10546v-.1172l.0586-.08984.08593-.05859.17969-.11719.10156-.04687.10547-.04297.10547-.0586.10156-.04296.08985-.0625.10156-.04297.10547-.0586.10156-.04687.08984-.0586.10547-.04296.10156-.04297.08985-.0625.10156-.04297.13672-.01563.11719.03125.10156.04297.1211.03125.10156.04297.10546.04688.10157.04296.10547.04297.10156.04688.10547.04297.10156.04297.10547.04687.08594.0586.10546.04296.1172.03125.10546.04297.10156.04688.08985.0586.10547.04296.10156.04297.10547.04687.11719.02735.10156.04687.1211.02735h.14843l.08594-.0586.01562-.10156.0586-.08984-.02735-.1172-.07422-.07421-.11719-.17969-.07421-.07422-.08985-.07421-.17969-.1172-.08593-.05859-.10547-.04296-.10156-.04688-.26954-.17578-.05859-.08985-.07422-.07421-.0586-.08985-.04296-.10156-.03125-.11719-.01563-.13672v-.5625l-.01171-.1328-.01563-.13282-.03125-.11719-.01562-.13281-.01172-.13281-.03125-.1211-.22266-.22265-.0586-.08594-.01562-.10547.03125-.11719.13281-.01562v-91.41406H172.9922v1.45312l-.0586.23438-.35156 1.05078-.17187.52343-.1172.34766-.17577.41016-.11719.17187-.23438.29297-.23046.0586h-.35157l-.11718.05859-.23047.40625v.29297l.11719.17578.23046.23047.1172.23437.64062.75781.29297.46485.17578.23437.23047.35156.23437.34766.64063.8164.17578.46485.17187.41016.11719.69531.17578.46875.11719 1.39844.0586.46484v.875l.11718 1.04688v4.78125l-.0586.46484-.35156 1.28125-.17578.52344-.11328.41015-.35156.9297L172.93359 336l-.23437.58203-.11719.17578-.17187.34766-.17578.40625-.35157.8164-.0586.29297-.11327.29297-.11719.28906-.0586.17579-.11718.875-.0586.40625-.05859.11718-.0586.17579-.05859.17187-.23047.52734-.11718.17188v.23437l-.11719.23438-.0586.17187-.17577.58594v.28906l-.0586.17579v.29296l-.0586.11329-.05859.52734v.17187l-.05468.23438v2.6211l-.17578.8164-.1172.17578-.17577.23438-.1172.17187-.11327.23438-.58594.93359-.23047.28906-.29297.46485-.17578.23437-.28906.35156-.35156.69922-.11328.23047-.17579.41016-.17578.23046-.40625.52735-.8164.69922-.29297.17187-.28906.23438-.17579.11719-.17578.17578-.52344.40625-.52734.17578-.17187.17578-.23438.05469-.64062.17578h-.75782m12.21094 31.02344l-1.07422.44921.35938.89454 1.25-.71485.44531-.53906-.98047-.08985"/><path fill="#d3d3d3" fill-opacity="0" fill-rule="evenodd" d="M201.50781 416.59766h-.89453l.44922.6289.98047.35938.80469-.08985.4453-.98828-.17577.08985-.71485-.35547-.89453.35547m154.6211 59.0703l-.0586-.52343v-.29297l.11328-.29297.0586-.23046.46875-.46875h.11328l.11719-.11329.11718-.05859h.17579l.23437-.0586h.34766l.23437.0586.11719.0586.23047.17187.0586.17578.11718.58203v.29297l-.11719.17578-.17187.28906-.17579.17579-.52734.52343-.23047.23438-.11719.0586h-.17578l-.11718-.0586-.40625-.29297-.17579-.11719-.11718-.0586-.0586-.11327-.05468-.1172m6.64062-10.95702l-.0586-.17188v-1.10937l.0586-.17188.17578-.0586.17188-.05858h.17578l.23437-.0586.1172.0586.05858.69921-.05859.17188-.11719.17578-.11718.0586-.23438.52343-.11328.0586h-.23438l-.05859-.1172m9.61328-14.39062l-.11719-.17578v-.69922l.29297-.875.1172-.17187.17577-.35156.11328-.23047.1172-.29297.35155-.75781.1172-.23047.17187-.23438h.17578l.11719-.0586h.64062l.11719.0586.23437.23438.17188.11328.35156.29297.11719.11718.11328.17579v.11328l.11719.05859.11718.11719v.69922l-.05859.17578v.23047l-.0586.17578-.34765 1.05078-.11719.23047-.11719.23437-.11718.0586-.23047.23437-.64063.28906h-.875l-.41015-.11718-.64063-.46485"/><path fill="none" stroke="#bebebe" stroke-linecap="round" stroke-linejoin="round" stroke-miterlimit="10" stroke-width=".5" d="M467.95703 311.69531H144.02734v168.625h323.9297v-168.625"/><g clip-path="url(#a)"><path fill="#fff" fill-opacity="0" fill-rule="evenodd" d="M144 475.89063v4.4375h.0039H144v-46.375 41.9375"/></g><g clip-path="url(#b)"><path fill="#fff" fill-opacity="0" fill-rule="evenodd" d="M144 427.07031v1.2461-116.64454h.0039H144v115.39844"/></g><path fill="#50fcfc" fill-rule="evenodd" d="M144 428.3164v5.63673l.0039-.00391v-5.6289L144 428.3164"/><g clip-path="url(#c)"><path fill="#fff" fill-opacity="0" fill-rule="evenodd" d="M144.0039 480.32813v-46.37891l2.34766-2.4414-2.34765-3.1875V311.67187h26.625v49.51562l-3.89063 3.7461 3.89063 3.9375 4.4375-.1172 4.4414-1.70312 2.50781-2.11719-2.5078-2.33593-4.44141-1.3086-4.4375-.10156v-49.51563h26.6328v56.88672l-.83983.8125-3.60157 2.14063-3.09765 2.29687 3.09765 2.4922 4.4414-.80079 1.6875-1.6914-.76562-4.4375-.92187-.8125v-56.88673h17.7539v62.98829l-3.59765 3.58593-.84375.52735-4.4375.70312-3.73047 3.20703-.70703 2.10938-1.8164 2.33203-2.6211 1.28906-2.95703 3.14844-.89063 4.4375-.59375.66797-4.4375.33203-4.4375-.40234-4.4375.14453L175.85547 396l-.78906-1.17188L173.8828 396l-3.2539.41797-4.4375-.09375-4.25 4.11328-.1875 1.17969-1.75782 3.25781 1.75782 3.8789.24218.5625L166.19141 412l4.4375.26172 3.93359 1.49219-2.36719 4.4375-1.5664 1.35156-4.4375 1.34375-2.92188 1.74219-1.51562 1.03906-2.83203 3.40234-.08204 4.4375 2.91407 2.6289 2.47265 1.8086 1.96485 2.01953 4.4375-1.22265 4.4375 1.7539 4.24609-2.55078.19531-.0625 4.4375-1.64844 4.4375-.8164 4.4375-1.44531.48047-.46485 3.96094-.98437 4.4375-1.01953 4.4375.68359 4.4375 1.01953 2.16406.30078 2.27734 2.96485 1.16407 1.47265 3.27344 2.1836 2.26171 2.2539 2.17578 1.70313 3.8672 2.73437.5703.5039 2.26172-.5039 2.17578-.05078 4.44141-.25781 4.4375-3.6289.51172-.5 1.94922-4.4375 1.97656-1.1875 3.23438-3.25 1.20312-1.02344 3.4414-3.41407.9961-1.73828 4.07031-2.70312.3711-.28907 2.95312-4.14843L262 413.7539l-2.60156-2.6875-.75-1.75-3.6914-3.97266-.6875-.46875-3.75-3.20703-4.10157 3.20703-.33594 1.78516-4.4375.27734-2.65625 2.3789-1.78125.26173-.41406-.26172-.1875-4.44141-3.83984-3.85547-4.4375-.32031-2.96485-.26172 2.96484-2.27734L230.375 396l.47656-4.4375-2.52344-3.6914-.22656-.7461-4.21094-3.6914-1.39062-.75-2.86719-4.4375-.17969-.1797-4.4375-3.40624v-62.98829h124.27344v112.14844l-4.4414 1.13281-4.4375-.1289-4.4375 1.625-2.11329.6211-2.32421 3.62109-4.4375-.05079-1.61329.8672 1.61329 1.71874 4.4375.30469 1.33984-2.02344 3.09766-1.61719 4.4375.31641 2.30859 1.30078 2.1289 2.09766 4.03907-2.09766.40234-.0625.17578.0625 4.26172 3.14453 2.14844-3.14453-2.14844-2.15234-1.19531-2.28516-3.24219-3.25V311.67187h17.7539v57.79688l-4.4414.85547-4.4375.1914-4.4375.66016-2.91797 2.63281-.98046 4.4375-.4375 4.4375 4.33593 2.60938 4.4375 1.0664 4.4375.0625 4.4414-2.18359 2.13673-1.55469 2.30078-.90234 4.4375-1.16406 2.46094-2.3711-2.46094-2.29296-4.4375-.98047-1.59766-1.16407-2.83984-4.33984v-57.79688h13.3125v79.10157l-.625.78906.625.63672v26.96484l-4.4375.67188-4.4375 2.25-.60938.54297-3.82812 1.85156-2.51953 2.58984.38281 4.4375 2.13672 1.77735 2.92578-1.77735 1.51172-.32031 2.24219.32031 1.47656 4.4375.71875.66406 1.00781 3.77344 3.42969 3.47656 2.27344.96094 2.16406 2.125 2.97265-2.125-.17578-4.4375 1.64454-3.46094 1.05468-.97656 2.44531-4.4375-.12109-4.4375-3.3789-3.67969-1.12891-.76171-3.3125-3.00782-4.4375-.45703v-26.96484l.92187-.63672-.92187-.78906v-79.10156h17.7539v134.18359l-4.4375.73828-2.10937 2.66797-.30078 4.4375 2.41015 2.08984 2.35938-2.08984 2.07813-3.10547 1.1914-1.33203-1.1914-3.40625v-134.1836h31.0703v82.92188L417.47267 396l1.70703 1.39063L422.8789 396l-3.69922-1.40625v-82.92188h13.3125v63.10938l-3.01953 3.46484-.32032 4.4375-1.09765 1.28516-4.39844 3.15625 1.52344 4.4375-1.1211 4.4375 3.9961 2.0039 4.4375.34766 4.4375-.10937L439.71094 396l1.66015-2.84766 1.51954-1.58984-1.51954-3.09766-.15625-1.33984-1.3789-4.4414-2.6914-4.4375-.21485-.21094-4.4375-3.25391v-63.10938h31.07031v143.29688l-3.32031 3.16797 1.24219 4.4375 2.07812 2.04297 2.22656-2.04297.9336-4.4375-3.16016-3.16797V311.67187h4.4336v168.65625H144.0039"/></g><path fill="#50fcfc" fill-rule="evenodd" d="M146.35156 431.50781l-2.34765 2.4414v-5.6289l2.34765 3.1875m15.40235 2.6289l-2.91407-2.6289.08203-4.4375 2.83204-3.40234 1.51562-1.03906 2.92188-1.7422 4.4375-1.34374 1.5664-1.35156 2.36719-4.4375-3.9336-1.4922L166.1914 412l-4.1953-2.6836-.2422-.5625-1.7578-3.8789 1.7578-3.25781.1875-1.17969 4.25-4.11328 4.4375.09375L173.88282 396l1.1836-1.17188.78906 1.17188 3.65234.74219 4.4375-.14453 4.4375.40234 4.4375-.33203.59375-.66797.89063-4.4375 2.95703-3.14844 2.6211-1.28906 1.8164-2.33203.70703-2.10938 3.73047-3.20703 4.4375-.70312.84375-.52735 3.59766-3.58593v1.27734l-2.32032 2.3086-2.1211 1.33202-4.4375 1.7422-1.58593 1.36327-2.02344 4.44141-.82812.85938-4.4375 2.8789-.66016.69922L194.35937 396l-1.53906 1.73047-4.4375 1.0586-4.4375-.19532-4.4375-.27734-4.4414-.9375-4.4375.53906-4.4375.15234-2.44922 2.36719 2.08984 4.4375.35938.82031 4.4375 3.42969 1.4453.1914 2.9922.5547 4.4414 3.76171.08985.1211-.08985.21875-2.88672 4.21875-1.55468 1.26562-3.73828 3.17188-.69922.55859-4.4375 1.86719-2.61328 2.01562-.28125 4.4375 2.89453 2.46485 4.4375.09375 4.4375 1.4375 4.4414-1.26563 3.98047-2.73047.45703-.29297 4.4375-.4375 4.4375-.5 4.4414-1.51562 3.51563-1.6914.92188-.19141 2.73828.1914 1.69922.42188 4.4375 2.23828L215.01562 431l.625.50781 3.8125 3.8711 1.00391.5664 3.4336 3.42969 2.53125 1.00781 1.90625 1.60938 4.4375 2 4.4414-.3711 3.53125-3.23828.76172-4.4375.14453-.2461 4.4375-2.80858 1.3789-1.38282 3.0586-2.60156 1.85547-1.83594 2.53125-4.4414.05078-.03516 4.4414-3.5586.59766-.84374-.59765-2.80079-.10938-1.63671-1.9961-4.4375-2.33593-2.51563-2.83984-1.92578-1.59766-1.36328-1.7461 1.36328-1.86327 4.4414-.82813 3.56641-4.4375-3.40625-4.4375.6211-1.23047-.78125-.28906-4.44141-2.92188-2.9336-4.4375-.8125-4.14453 3.7461-.29297.33984-3.5-.33984 1.19532-4.4375 2.30469-1.3164L227.41797 396l.8125-4.4375-1.41016-4.4375-2.92969-2.57031-3.48046-1.8711-.95703-1.42187-1.55079-3.01563-2.88672-2.30859v-1.27734l4.4375 3.40625.1797.17968 2.86718 4.4375 1.39063.75 4.21093 3.69141.22656.7461 2.52344 3.6914L230.375 396l-2.04688 2.16016-2.96484 2.27734 2.96484.26172 4.4375.32031 3.83985 3.85547.1875 4.4414.41406.26173 1.78125-.26172 2.65625-2.37891 4.4375-.27734.33594-1.78516 4.10156-3.20703 3.75 3.20703.6875.46875 3.6914 3.97266.75 1.75L262 413.7539l.35156 4.4375-2.95312 4.14843-.3711.28907-4.0703 2.70312-.9961 1.73828-3.4414 3.41406-1.20313 1.02344-3.23438 3.25-1.97656 1.1875-1.94922 4.4375-.51172.5-4.4375 3.6289-4.4414.25782-2.17579.05078-2.26172.5039-.5703-.5039-3.8672-2.73437-2.17578-1.70313-2.26172-2.2539-3.27343-2.1836-1.16406-1.47265-2.27735-2.96485-2.16406-.30078-4.4375-1.01953-4.4375-.6836-4.4375 1.01954-3.96094.98437-.48047.46485-4.4375 1.4453-4.4375.81642-4.4375 1.64843-.19531.0625-4.2461 2.55078-4.4375-1.7539-4.4375 1.22265-1.96484-2.01953-2.47265-1.8086"/><path fill="#00e8fc" fill-rule="evenodd" d="M166.1914 433.97266l-2.89452-2.46485.28125-4.4375 2.61328-2.01562 4.4375-1.86719.69922-.5586 3.73828-3.17187 1.55468-1.26562 2.88672-4.21875.08985-.21875-.08985-.1211-4.4414-3.76172-2.9922-.55468-1.4453-.19141-4.4375-3.42969-.35938-.82031-2.08984-4.4375 2.44922-2.36719 4.4375-.15234 4.4375-.53906 4.4414.9375 4.4375.27734 4.4375.19531 4.4375-1.0586L194.35937 396l2.2422-4.4375.66015-.69922 4.4375-2.8789.82812-.85938 2.02344-4.4414 1.58594-1.36329 4.4375-1.74219 2.1211-1.33203 2.3203-2.30859v2.125l-.18359.1836-4.25781 2.67577-3.1211 1.76172-1.3164 2.02735-1.4375 2.41406-3 3.11719-1.83594 1.32031-2.60156 2.19922L195.93359 396l-3.11328 3.5-2.40625.9375-2.03125 1.21875-4.4375.61328-4.4375-1.0625-2.1914-.76953-2.25-.5-4.4375.48047-.1797.01953.1797.26563 2.5664 4.17187 1.8711.39844 4.4414 2.82422 1.3086 1.21875 3.1289 3.88671.48828.55079-.48828 1.08984-1.57422 3.34766-1.07812 4.4375-1.78516 2.39062-4.4414 1.92969-.16016.1211.11719 4.4375.04297.01171 1.91797-.01172 2.52343-.03125 4.4375-2.8125 4.4375.1289 4.4375-.71483 2.3164-1.00782 2.125-.86328 4.4375-.58984 4.4375.53906 4.0625.91406.375.20313 4.44142 2.64453 1.95312 1.58984 2.48438 2.51953 3.39453 1.91797 1.04297 1.04297 4.4375 2.67188 1.22265.72265 3.21484 2.32031 4.44141-.57421 1.90625-1.7461 1.23438-4.4375 1.29687-2.22656 2.96484-2.21094 1.47266-1.55078 3.4414-2.88672.9961-3.20312.45703-1.23828 3.98047-2.66016 1.97266-1.77734 1.1289-4.4375-3.01953-4.4375-.08203-.08594-4.4375-2.83203-1.85937 2.91797-.02735 4.4375 1.88672 1.98828 2.41406 2.44922-2.41406 3.8828-1.0664.5547-3.3711 1.16015-.47656-1.16015-.3711-4.4375-.17578-4.4375-3.41406-3.19141-4.4375.39844-2.59375-1.64453-.45312-4.44141-1.39453-1.39844-4.4375-1.63281-3.35157 3.03125-1.08594 1.2461-4.4375-.375-1.17187-.8711.27344-4.4375.89844-3.02734L223.80858 396l.08203-.01172 2.98438-4.42578-2.1875-4.4375-.79688-.69922-4.4375-1.63672-1.05859-2.10547-3.15234-4.4375-.22656-.18359v-2.125l2.88671 2.3086 1.55078 3.01562.95704 1.42187 3.48047 1.8711 2.92968 2.57031 1.41016 4.4375-.8125 4.4375-3.52734 3.1211-2.3047 1.3164-1.1953 4.4375 3.5.33984.29296-.33984 4.14453-3.7461 4.4375.8125 2.92188 2.9336.28906 4.4414 1.23047.78126 4.4375-.6211 4.4375 3.40625.82813-3.5664 1.86328-4.44141 1.7461-1.36328 1.59765 1.36328 2.83984 1.92578 2.33594 2.51563 1.9961 4.4375.10937 1.63671.59765 2.80079-.59765.84375-4.4414 3.55859-.05079.03516-2.53125 4.4414-1.85547 1.83594-3.0586 2.60156-1.3789 1.38281-4.4375 2.8086-.14453.2461-.76172 4.4375-3.53125 3.23827-4.4414.3711-4.4375-2-1.90625-1.60938-2.53125-1.00781-3.4336-3.42969-1.0039-.5664-3.8125-3.8711-.625-.50781-4.44141-1.26953-4.4375-2.23828-1.69922-.42188-2.73828-.1914-.92188.1914-3.51562 1.6914-4.4414 1.51563-4.4375.5-4.4375.4375-.45704.29297-3.98047 2.73047-4.4414 1.26563-4.4375-1.4375-4.4375-.09375"/><path fill="#50fcfc" fill-rule="evenodd" d="M170.6289 368.8711l-3.89062-3.9375 3.89063-3.7461v1.03906l-2.8125 2.70703 2.8125 2.84375 4.4375-.41406 3.59375-2.42969-3.59375-2.3203-4.4375-.38673v-1.03906l4.4375.10156 4.4414 1.3086 2.50781 2.33593-2.5078 2.1172-4.44141 1.70312-4.4375.11718"/><path fill="#00e8fc" fill-rule="evenodd" d="M170.6289 367.77734l-2.8125-2.84375 2.8125-2.70703v1.73438l-1.0078.97265 1.0078 1.01954 4.4375-.90625.17188-.11329-.17187-.10937-4.4375-.86328v-1.73438l4.4375.38672 3.59375 2.32031-3.59375 2.4297-4.4375.41405"/><path fill="#00d4fc" fill-rule="evenodd" d="M170.6289 365.95313l-1.0078-1.01954 1.0078-.97265 4.4375.86328.17188.10937-.17187.11329-4.4375.90625m0 34.75l-.1797-.26563.1797-.01953 4.4375-.48047 2.25.5 2.1914.76953 4.4375 1.0625 4.4375-.61328 2.03125-1.21875 2.40625-.9375 3.11328-3.5 1.32813-2.23828v8.41406l-.375 2.69922.375.21484.78906-.21484-.78906-2.69922v-8.41406l2.60156-2.19922 1.83594-1.32031 3-3.11719 1.4375-2.41406 1.3164-2.02735 3.1211-1.76171 4.25781-2.67579.1836-.18359v2.0039l-4.44141 2.19532-.75.42187.75.94141 4.4414 1.21484v1.63672l-4.4414.11328-.94922.53516.94922.44531v2.46875l-3.01953 1.52344-1.41797 2.16797-4.4375-1.20703L197.67969 396l2.53906 4.4375 1.08203 4.4375-4.03906 1.08594-1.90625-1.08594-2.53516-3.45313-4.4375 2.96485-1.46094.48828-1.8789 4.4414 3.33984 4.01954.27344.41797 4.16406 3.67578 1.0625.76172-1.0625 2.45312-4.4375 1.10156-4.19531.88282 4.19531 2.01562 4.4375-1.08984 4.4414.61328 4.4375.1875 4.4375.79687 4.4375 1.03907 1.59376.8789 2.84766 1.76563 3.28125 2.67187 1.15625 1.17188 4.4375 2.85156.8125.41406 3.625 2.65625 3.01562 1.78125 1.42188 1.02735 4.4414-.76954.28125-.2578 1.70703-4.4375 2.44922-4.20704.3125-.23047 4.125-4.33984.1211-.09766-.1211-.11719-1.78516-4.32421-.1953-4.4375-.20313-4.4375-2.2539-2.10938-4.4375.1836-3.95313-2.51172-.48828-3.5586-.1172-.88281-4.3203-2.3164-2.5625 2.3164-1.875 2.15625-4.4375-.32031-2.47266-1.83594.10937-4.4375L218.4375 396l-3.42188-2.6211-3.24609-1.8164-1.19531-1.52344v-2.46875l3.13281 3.99219 1.3086.73047 3.30078-.73047-1.83985-4.4375-1.46094-.64844v-1.63672l1.92188-2.15625-1.92188-2.61718v-2.00391l.22657.1836 3.15234 4.4375 1.0586 2.10546 4.4375 1.63672v2.21875l-2.71094 2.91797 2.71094 2.41797 1.6328-2.41797-1.6328-2.91797v-2.21875l.79687.69922 2.1875 4.4375-2.98438 4.42578-.08203.01172-4.35547 1.41016-.89843 3.02734-.27344 4.4375 1.17188.8711 4.4375.375 1.08593-1.2461 3.35156-3.03125 4.4375 1.63281 1.39454 1.39844.45312 4.4414 2.59375 1.64454 4.4375-.39844 3.41406 3.1914.17578 4.4375.3711 4.4375.47656 1.16016 3.3711-1.16015 1.0664-.5547 2.41406-3.8828-2.41406-2.44922-1.88672-1.98828.02735-4.4375 1.85937-2.91797v2.7461l-.10937.17187.10937.67968.82031 3.75782 3.6172 3.66406 1.875-3.66406-1.875-2.71875-4.16407-1.71875-.27344-.17188v-2.7461l4.4375 2.83204.08203.08594 3.01953 4.4375-1.1289 4.4375-1.97266 1.77734-3.98047 2.66016-.45703 1.23828-.9961 3.20312-3.4414 2.88672-1.47266 1.55078-2.96484 2.21094-1.29687 2.22656-1.23438 4.4375-1.90625 1.7461-4.4414.57421-3.21485-2.3203-1.22266-.72266-4.4375-2.67188-1.04296-1.04297-3.39453-1.91797-2.48438-2.51953-1.95313-1.58984-4.4414-2.64453-.375-.20313-4.0625-.91406-4.4375-.53906-4.4375.58984-2.125.86328-2.3164 1.00781-4.4375.71485-4.4375-.1289-4.4375 2.8125-2.52345.03124-1.91796.01172-.04297-.01172-.11719-4.4375.16016-.1211 4.4414-1.92968 1.78516-2.39062 1.07812-4.4375 1.57422-3.34766.48828-1.08984-.48828-.55079-3.1289-3.88671-1.3086-1.21875-4.4414-2.82422-1.8711-.39844-2.5664-4.17188"/><path fill="#00c4fc" fill-rule="evenodd" d="M188.38281 424.64453l-4.19531-2.01562 4.19531-.88282 4.4375-1.10156 1.0625-2.45312-1.0625-.76172-4.16406-3.67578-.27344-.41797-3.33984-4.01953 1.8789-4.44141 1.46094-.48828 4.4375-2.96485 2.53516 3.45313 1.90625 1.08594 4.03906-1.08594-1.08203-4.4375L197.67969 396l4.01953-3.47656 4.4375 1.20703 1.41797-2.16797 3.01953-1.52344v5.32031L209.4375 396l-.5664 4.4375 1.70312.86719 1.6914-.86719-1.5078-4.4375-.1836-.64063v-5.3203l1.19531 1.52343 3.2461 1.8164v1.08985L212.52343 396l1.6836 4.4375-3.63281 1.86328-3.66016-1.86328-.77734-1.60938L203.55859 396l-1.85937-1.16406L200.35156 396l1.34766 2.0664v14.07423l-.17578 1.61328.17578.10546.39062-.10546-.39062-1.61329v-14.07421l2.6289 2.37109-.0039 4.4375-.42969 4.4414 2.24219 3.48829 1.30078.94922-1.30078 1.54296-4.4375.02344-2.57422-1.5664 1.53125-4.4375-3.39453-2.48047-3.4414-1.96094-1-1.35938-1.96095 1.35938-1.2539 4.4414 3.21484 3.9336.74219.5039 3.69922 2.82813.8125 1.60938.96094 4.4375 2.66406.46875 4.4375 1.05078 4.4375 1.08203 3.33203 1.83984 1.10938.6875 4.4375.54297.125 3.20703 4.3125 3.28906 2.2578 1.14844 2.1797 1.59766 4.4375 1.15625 4.4414-.6836.83203-2.0703 2.57031-4.4375 1.03516-2.00391 2.33984-2.4336-1-4.4414-.01562-4.4375-.23047-4.4375-1.09375-1.02344-4.4375-.03516-4.4414-1.19922-.54688-2.17968-.90625-4.44141-2.98438-1.59766-1.76953 1.59766-2.66797 3.0625-4.4375-.25781-3.76953-2.80469-.0625-4.4375L217.01562 396l-2-1.53125v-1.08984L218.4375 396l-1.34766 4.4375-.10937 4.4375 2.47266 1.83594 4.4375.32031 1.875-2.15625 2.5625-2.3164 4.3203 2.3164.1172.88281.48828 3.5586 3.95312 2.51171 4.4375-.18359 2.2539 2.10938.20313 4.4375.19531 4.4375 1.78516 4.32421.1211.1172-.1211.09765-4.125 4.33984-.3125.23047-2.44922 4.20703-1.70703 4.4375-.28125.25781-4.4414.76954-1.42188-1.02735-3.01563-1.78125-3.625-2.65625-.8125-.41406-4.4375-2.85156-1.15625-1.17188-3.28125-2.67187-2.84765-1.76563-1.59375-.8789-4.4375-1.03907-4.4375-.79687-4.4375-.1875-4.4414-.61328-4.4375 1.08984"/><path fill="#00b8fc" fill-rule="evenodd" d="M192.82031 413.25l-3.21484-3.9336 1.2539-4.4414 1.96094-1.35938v4.0586l-.58984 1.74219.58984.71875 4.4414 3.24218 2.19923-3.96093-2.19922-1.60938-4.4414-.13281v-4.0586l1 1.35938 3.4414 1.96094 3.39453 2.48047-1.53125 4.4375 2.57422 1.5664 4.4375-.02344 1.30078-1.54296-1.30078-.94922-2.24219-3.48828.42969-4.44141.0039-4.4375-2.6289-2.3711L200.35156 396l1.34766-1.16406L203.55859 396l2.57813 2.82813.77734 1.60937 3.66016 1.86328v.9961l-3.55469 1.57812-.1836 4.4414 3.73829 2.60548v3.66796l-2.30469 2.60157-2.13281 2.29687-1.60547-2.29687-2.83203-1.41016-1.78125 1.41016 1.78125 2.6875 2.44922 1.75 1.98828.51562 4.4375 1.1289 2.76953-1.64452-.55469-4.4375-2.21484-2.60157v-3.66796l.83203-2.60547 2.5664-4.44141-3.39843-1.57813v-.99609l3.63281-1.86328-1.6836-4.4375 2.4922-1.53125v1.08594l-.72657.44531.72656 1.82813v8.13671l-2.21093 3.35157 2.21094 4.22656 2.14062-4.22656-2.14063-3.35157v-8.13671L215.59767 396l-.58203-.44531v-1.08594l2 1.53125-1.39454 4.4375.0625 4.4375 3.76953 2.80469 4.4375.25781 2.66797-3.0625 1.76953-1.59766v.71485l-.97656.88281-3.46094 3.97266-4.4375-.20313-.9414.67188-.07031 4.4375 1.01172 1.42578v5.11328l-4.4375 2-.0547.33594.0547.22265 4.4375 3.78906 4.4375-2.94921 4.4375 1.78906 1.95312-2.85156-1.95313-.57422-4.4375-.45703-4.4375-1.3047v-5.11327l1.52735 3.01172 2.91016 1.77734 4.4375 1.28516 4.4375 1.3203v4.04688l-.90235.44922.90234.16016.19532-.16016-.19531-.44922v-4.04687l.49609.05469 1.61719 4.4414-2.11328 1.73047-4.4375-.5039-1.63672-1.22657-2.80078-1.71484-2.3047 1.71484-1.04687 4.4375 3.35156 2.5586 3.69922 1.8789.73828.54297 1.9336-.54297 2.5039-1.23437 4.44141.67187 2.23438-3.875 2.20312-4.26953.16016-.16797-.125-4.4414.15625-4.4375-.1914-3.3125-.91017-1.125-3.52734-.19141-1.77734.1914-2.66406.20704-.14844-.20703-1.2539-4.4375-1.38673-4.44141-1.64844-.88281v-.71485l2.98438 1.59766.90625 4.4414.54688 2.1797 4.4414 1.19921 4.4375.03516 1.09375 1.02344.23047 4.4375.01563 4.4375 1 4.4414-2.33985 2.4336-1.03516 2.0039-2.5703 4.4375-.83204 2.07031-4.4414.6836-4.4375-1.15625-2.1797-1.59766-2.2578-1.14844-4.3125-3.28906-.125-3.20703-4.4375-.54297-1.10938-.6875-3.33203-1.83984-4.4375-1.08203-4.4375-1.05078-2.66406-.46875-.96094-4.4375-.8125-1.60938-3.69922-2.82812-.74219-.50391"/><path fill="#50fcfc" fill-rule="evenodd" d="M192.82031 376.30078l-3.09765-2.49219 3.09765-2.29687 3.60156-2.14063.83985-.8125.92187.8125.76563 4.4375-1.6875 1.69141-4.4414.80078"/><path fill="#00a8fc" fill-rule="evenodd" d="M192.82031 410.03516l-.58984-.71875.58984-1.7422 4.4414.13282v.875l-2.30858.73438 2.30859 1.80859 1.0039-1.8086-1.0039-.73437v-.875l2.19922 1.60938-2.19922 3.96093-4.4414-3.24218"/><path fill="#009800" fill-rule="evenodd" d="M197.26172 411.125l-2.3086-1.8086 2.3086-.73437 1.0039.73438-1.0039 1.80859"/><path fill="#00e8fc" fill-rule="evenodd" d="M197.26172 402.17578l-.375 2.69922.375.21484.78906-.21484-.78906-2.69922"/><path fill="#00a8fc" fill-rule="evenodd" d="M201.69922 420.8789l-1.78125-2.6875 1.78125-1.41015 2.83203 1.41016 1.60547 2.29687 2.13281-2.29687 2.30469-2.60157v4.21875l-2.6289 2.82032 2.6289.68359 1.15234-.6836-1.15234-2.8203v-4.21876l2.21484 2.60157.55469 4.4375-2.76953 1.64453-4.4375-1.1289-1.98828-.51563-2.44922-1.75"/><path fill="#00d4fc" fill-rule="evenodd" d="M201.69922 412.14063l-.17578 1.61328.17578.10546.39062-.10546-.39062-1.61329"/><path fill="#00a8fc" fill-rule="evenodd" d="M210.57422 411.92188l-3.73828-2.60547.1836-4.44141 3.55468-1.57813v.9961l-1.3125.58203 1.3125 2.625 1.25781-2.625-1.25781-.58203v-.9961l3.39844 1.57813-2.56641 4.4414-.83203 2.60548"/><path fill="#009800" fill-rule="evenodd" d="M210.57422 423.3125l-2.6289-.6836 2.6289-2.8203 1.15234 2.8203-1.15234.6836"/><path fill="#00d4fc" fill-rule="evenodd" d="M209.4375 396l-.5664 4.4375 1.70312.86719 1.6914-.86719-1.5078-4.4375-.1836-.64063L209.4375 396"/><path fill="#009800" fill-rule="evenodd" d="M210.57422 407.5l-1.3125-2.625 1.3125-.58203 1.25781.58203-1.25781 2.625"/><path fill="#00e8fc" fill-rule="evenodd" d="M210.57422 386.58984l-.94922.53516.94922.44531 3.13281 3.99219 1.3086.73047 3.30078-.73047-1.83985-4.4375-1.46094-.64844-4.4414.11328"/><path fill="#00c4fc" fill-rule="evenodd" d="M210.57422 383.625l-.75-.9414.75-.42188 4.4414-2.19531v1.98828l-1.41015.6289 1.41016.51954.46093-.51954-.46094-.6289v-1.98828l1.92188 2.61718-1.92188 2.15625-4.4414-1.21484m4.4414 22.33984l-2.21093 3.35157 2.21094 4.22656 2.14062-4.22656-2.14063-3.35157v2.1211l.78516 1.23047-.78516 1.55078-.8125-1.55078.8125-1.23047v-2.1211"/><path fill="#00b8fc" fill-rule="evenodd" d="M215.01563 383.20313l-1.41016-.51954 1.41016-.6289.46093.6289-.46094.51954"/><path fill="#00d4fc" fill-rule="evenodd" d="M215.01563 408.08594l-.8125 1.23047.8125 1.55078.78515-1.55078-.78516-1.23047"/><path fill="#00a8fc" fill-rule="evenodd" d="M215.01563 397.82813L214.28905 396l.72656-.44531.58204.44531-.58203 1.82813"/><path fill="#00c4fc" fill-rule="evenodd" d="M215.01563 422.29297l-.0547.33594.0547.22265 4.4375 3.78906 4.4375-2.94921 4.4375 1.78906 1.95312-2.85156-1.95313-.57422-4.4375-.45703-4.4375-1.3047-4.4375 2"/><path fill="#00a8fc" fill-rule="evenodd" d="M219.45313 415.17969l-1.01172-1.42578.0703-4.4375.94142-.67188 4.4375.20313 3.46093-3.97266.97656-.88281v.71875l-.18359.16406-3.54687 4.4414-.70703.38282-3.88282 4.05469 3.64063 4.4375.24219.14843 4.4375 2.10938 4.4375 1.48047 4.4414.63281v2.64453l-.41406 1.86328-4.02734 3.30469-4.4375-.03906-4.3672-3.26563-.0703-.04687-.0586.04687-2.33203 4.4375 2.39063 1.82422 4.4375.57031 4.4375-1.05468 4.4414.5039 1.0625-1.84375-.22266-4.4375-.83984-1.86328v-2.64453l4.2539-4.3711-4.2539-4.26562-4.4414.65625-.58985-.82812-1.66797-4.4375-1.86719-4.44141-.3125-.16406v-.71875l1.64844.88281 1.38672 4.4414 1.2539 4.4375.14845.20704 2.66406-.20703 1.77734-.19141 3.52734.1914.91016 1.125.1914 3.3125-.15624 4.4375.125 4.44141-.16016.16797-2.20312 4.26953-2.23438 3.875-4.4414-.67187-2.50391 1.23437-1.9336.54297-.73828-.54297-3.69922-1.8789-3.35156-2.5586 1.04688-4.4375 2.30469-1.71484 2.80078 1.71484 1.63672 1.22656 4.4375.50391 2.11328-1.73047-1.6172-4.4414-.49608-.0547-4.4375-1.3203-4.4375-1.28516-2.91016-1.77734-1.52734-3.01172"/><path fill="#009800" fill-rule="evenodd" d="M223.64844 418.1914l-3.64063-4.4375 3.88281-4.05468.70704-.38281 3.54687-4.44141.1836-.16406v1.63672l-2.26563 2.96875-2.17188 1.17968-3.12109 3.25782 3.1211 3.6328 1.48046.8047 2.95703 1.45703 4.4375 1.64062 4.44141 1.04688 4.03125-4.14453-4.03125-4.04297-4.4414 1.05469-1.03516-1.44922-2.07813-4.4375-1.32422-2.96875v-1.63672l.3125.16406 1.8672 4.4414 1.66796 4.4375.58984.82813 4.44141-.65625 4.2539 4.26563-4.2539 4.37109-4.4414-.63281-4.4375-1.48047-4.4375-2.10938-.2422-.14843"/><path fill="#00ac00" fill-rule="evenodd" d="M223.89063 417.38672l-3.1211-3.63281 3.1211-3.25782 2.17187-1.17968 2.26563-2.96875v1.91796l-.80079 1.05079-3.63672 1.97265-2.35937 2.46485 2.35938 2.74609L227 418.1914l1.32813.65235 4.4375 1.80078 4.4414 1.46094 3.8086-3.91406-3.8086-3.82032-4.4414 1.45313-1.47657-2.07031-2.49219-4.4375-.46875-1.05079v-1.91796l1.32422 2.96875 2.07813 4.4375 1.03516 1.44921 4.4414-1.05468 4.03125 4.04297-4.03125 4.14453-4.4414-1.04688-4.4375-1.64062-2.95704-1.45703-1.48047-.8047"/><path fill="#00c4fc" fill-rule="evenodd" d="M223.89063 393.98047l-2.71094-2.41797 2.71094-2.91797v2.42188l-.46094.49609.46094.41016.27734-.41016-.27734-.4961v-2.42187l1.6328 2.91797-1.6328 2.41797"/><path fill="#009800" fill-rule="evenodd" d="M223.89063 433.33203L221.5 431.50781l2.33203-4.4375.0586-.04687v1.80078l-1.4297 2.6836 1.4297 1.08984 3.44921-1.08985-3.44922-2.6836v-1.80077l.07032.04687 4.36719 3.26563 4.4375.03906 4.02734-3.30469.41406-1.86328.83984 1.86328.22266 4.4375-1.0625 1.84375-4.4414-.5039-4.4375 1.05468-4.4375-.5703"/><path fill="#00c800" fill-rule="evenodd" d="M223.89063 416.5l-2.35938-2.7461 2.35938-2.46484 3.63671-1.97265.80078-1.05079v2.10157l-4.4375 2.51172-.83593.875.83594.97265 4.4375 2.5664 1.7539.89845 2.6836 1.16796 4.4414 2.29297 3.36719-3.46093-3.36719-3.375-4.4414 2.25-2.36329-3.3125-2.07422-3.38672v-2.10156l.46875 1.05078 2.4922 4.4375 1.47655 2.0703 4.44141-1.45312 3.8086 3.82032-3.8086 3.91406-4.4414-1.46094-4.4375-1.80078L227 418.19141 223.89062 416.5"/><path fill="#00ac00" fill-rule="evenodd" d="M223.89063 432.59766l-1.4297-1.08985 1.4297-2.6836v1.80079l-.46875.88281.46875.35547 1.1328-.35547-1.1328-.88281v-1.80078l3.44921 2.6836-3.44922 1.08984"/><path fill="#10cc00" fill-rule="evenodd" d="M223.89063 414.72656l-.83594-.97265.83594-.875 4.4375-2.51172v1.44922l-3.31641 1.9375 3.3164 2.02343 1.1836-2.02343-1.1836-1.9375v-1.44922l2.07422 3.38672 2.36328 3.3125 4.44141-2.25v.4414l-4.3789 2.9336 4.3789 3.0039 2.92188-3.0039-2.92188-2.9336v-.4414l3.36719 3.375-3.36719 3.46093-4.4414-2.29296-2.6836-1.16797-1.7539-.89844-4.4375-2.5664"/><path fill="#00c800" fill-rule="evenodd" d="M223.89063 431.86328l-.46875-.35547.46875-.88281 1.1328.88281-1.1328.35547"/><path fill="#00b8fc" fill-rule="evenodd" d="M223.89063 391.97266l-.46094-.41016.46094-.4961.27734.4961-.27734.41016"/><path fill="#24d000" fill-rule="evenodd" d="M228.32813 415.77734l-3.31641-2.02343 3.3164-1.9375v1.45312l-.83203.48438.83203.5078.29688-.5078-.29688-.48438v-1.45312l1.1836 1.9375-1.1836 2.02343"/><path fill="#3cd800" fill-rule="evenodd" d="M228.32813 414.26172l-.83204-.50781.83203-.48438.29688.48438-.29688.5078"/><path fill="#00c4fc" fill-rule="evenodd" d="M232.76563 426.6211l-.90235.44921.90234.16016.19532-.16016-.19531-.44922"/><path fill="#24d000" fill-rule="evenodd" d="M237.20703 421.19531l-4.3789-3.0039 4.3789-2.9336v.44531l-3.71484 2.48829 3.71484 2.54687 2.48047-2.54687-2.48047-2.48829v-.4453l2.92188 2.93359-2.92188 3.0039"/><path fill="#3cd800" fill-rule="evenodd" d="M237.20703 420.73828l-3.71484-2.54687 3.71484-2.48829v.44532l-3.05078 2.04297 3.05078 2.09375 2.03516-2.09375-2.03516-2.04297v-.44531l2.48047 2.48828-2.48047 2.54687"/><path fill="#54dc00" fill-rule="evenodd" d="M237.20703 420.28516l-3.05078-2.09375 3.05078-2.04297v.44531l-2.38672 1.59766 2.38672 1.63671 1.59375-1.63671-1.59375-1.59766v-.44531l2.03516 2.04297-2.03516 2.09375"/><path fill="#e8e05c" fill-rule="evenodd" d="M237.20703 419.82813l-2.38672-1.63672 2.38672-1.59766v.44531l-1.72266 1.15235 1.72266 1.18359 1.14844-1.1836-1.14844-1.15234v-.44531l1.59375 1.59766-1.59375 1.63671"/><path fill="#e8d450" fill-rule="evenodd" d="M237.20703 419.375l-1.72266-1.1836 1.72266-1.15234v.88672l-.39844.26563.39844.27343.26172-.27343-.26172-.26563v-.88672l1.14844 1.15235-1.14844 1.18359"/><path fill="#e8b830" fill-rule="evenodd" d="M237.20703 418.46484l-.39844-.27343.39844-.26563.26172.26563-.26172.27343"/><path fill="#00c4fc" fill-rule="evenodd" d="M250.51953 409.9961l-.10937-.6797.10937-.17187.27344.17188 4.16406 1.71875v1.78125l-1.2461.9375 1.2461 1.26171.64844-1.26171-.64844-.9375v-1.78125l1.875 2.71875-1.875 3.66406-3.61719-3.66406-.8203-3.75782"/><path fill="#00b8fc" fill-rule="evenodd" d="M254.95703 415.01563l-1.2461-1.26172 1.2461-.9375.64844.9375-.64844 1.26171"/><path fill="#50fcfc" fill-rule="evenodd" d="M317.09766 433.22656l-1.61329-1.71875 1.61329-.86719 4.4375.05079 2.32421-3.6211 2.11329-.6211 4.4375-1.625 4.4375.12892 4.4414-1.13282v1.79688l-2.92187 1.45312 2.92187 1.95313 1.44531-1.95313-1.4453-1.45312v-1.79688l3.24218 3.25 1.19531 2.28516 2.14844 2.15234-2.14844 3.14453-4.26172-3.14453-.17578-.0625-.40234.0625-4.03906 2.09766-2.12891-2.09766-2.3086-1.30078-4.4375-.3164-3.09765 1.61718-1.33984 2.02344-4.4375-.30469"/><path fill="#00e8fc" fill-rule="evenodd" d="M339.28906 429.02344l-2.92187-1.95313 2.92187-1.45312 1.44531 1.45312-1.4453 1.95313"/><path fill="#50fcfc" fill-rule="evenodd" d="M343.72656 385.29297l-4.33594-2.60938.4375-4.4375.98047-4.4375 2.91797-2.6328 4.4375-.66017 4.4375-.1914v2.16797l-4.4375.0625-3.72265 1.2539-.71485.15625-2.98437 4.28125 2.98437 4.1836.3789.2539 4.0586 2.50391 4.4375.1836 3.55078-2.6875.89063-.60548 4.4375-2.6328 2.83984-1.19923-2.83984-1.10937-4.4375-3.28125-.28906-.04688-4.15235-1.3164v-2.16797l4.4414-.85547 2.83985 4.33984 1.59766 1.16407 4.4375.98046 2.46094 2.29297-2.46094 2.3711-4.4375 1.16406-2.30078.90234-2.13672 1.5547-4.4414 2.18358-4.4375-.0625-4.4375-1.0664"/><path fill="#00e8fc" fill-rule="evenodd" d="M343.72656 382.42969l-2.98437-4.1836 2.98437-4.28125.71485-.15625 3.72265-1.2539 4.4375-.0625v2.91406l-4.4375.55469-4.4375.1836-1.46484 2.10155 1.46484 2.05079 3.54688 2.38671.89062.55079 4.4375.38671 1.23828-.9375 3.20313-2.1875 2.98437-2.25-2.98437-2.58203-4.4414-.25781v-2.91406l4.15234 1.3164.28906.04688 4.4375 3.28125 2.83984 1.10937-2.83984 1.19922-4.4375 2.63281-.89063.60547-3.55078 2.6875-4.4375-.18359-4.0586-2.5039-.3789-.25391"/><path fill="#00d4fc" fill-rule="evenodd" d="M343.72656 380.29688l-1.46484-2.05079 1.46484-2.10156 4.4375-.1836 4.4375-.55468 4.4414.25781v1.8125l-4.4414.4375-1.26172.33203 1.26172.98047 4.4414-.3086.88673-.67187-.88672-.76953v-1.8125l2.98437 2.58203-2.98437 2.25-3.20313 2.1875-1.23828.9375-4.4375-.38671-.89062-.55079-3.54688-2.38671"/><path fill="#00c4fc" fill-rule="evenodd" d="M352.60156 379.22656l-1.26172-.98047 1.26172-.33203 4.4414-.4375.88673.76953-.88672.67188-4.4414.3086"/><path fill="#50fcfc" fill-rule="evenodd" d="M354.90625 431.50781l-.38281-4.4375 2.51953-2.58984 3.82812-1.85156.60938-.54297 4.4375-2.25 4.4375-.67188v1.57031l-4.4375 1.69141-.35156.20313-4.08594 1.6914-3.91797 2.75 3.91797 2.45313 4.4375.20312 3.52344 1.78125.91406.95703v5.1875l-1.89063 2.73047 1.89063 1.91797 4.10156-1.91797-4.10156-2.73047v-5.1875l4.4375.8086v2.63672l-.2461.03515.2461.0664.375-.0664-.375-.03515v-2.63672l4.4414.92187 1.98438-2.6875-.33594-4.4375-1.64844-1.80078-3.92187-2.64062-.51953-.47266-4.4375-1.42188v-1.5703l4.4375.45702 3.3125 3.00782 1.1289.76171 3.37891 3.6797.1211 4.4375-2.44532 4.4375-1.05469.97656-1.64453 3.46093.17579 4.4375-2.97266 2.125-2.16406-2.125-2.27344-.96094-3.42969-3.47656-1.00781-3.77344-.71875-.66406-1.47656-4.4375-2.2422-.32031-1.51171.32031-2.92578 1.77735-2.13672-1.77735"/><path fill="#00e8fc" fill-rule="evenodd" d="M361.48047 429.52344l-3.91797-2.45313 3.91797-2.75 4.08594-1.6914.35156-.20313 4.4375-1.6914 4.4375 1.42187.51953.47266 3.92188 2.64062 1.64843 1.80078.33594 4.4375-1.98438 2.6875-4.4414-.92187-4.4375-.8086-.91406-.95703-3.52344-1.78125-4.4375-.20312m8.875 12.77734l-1.89063-1.91797 1.89063-2.73047 4.10156 2.73047-4.10156 1.91797"/><path fill="#50fcfc" fill-rule="evenodd" d="M370.35547 392.19922l-.625-.63672.625-.78906.92187.78906-.92187.63672"/><path fill="#fff" fill-opacity="0" fill-rule="evenodd" d="M374.79297 435.91016l-.2461.03515.2461.0664.375-.0664-.375-.03515"/><path fill="#50fcfc" fill-rule="evenodd" d="M383.67188 455.78906l-2.41016-2.08984.30078-4.4375 2.10938-2.66797 4.4375-.73828 1.1914 3.40625-1.1914 1.33203-2.07813 3.10547-2.35938 2.08984m35.50782-58.39844L417.47266 396l1.70703-1.40625L422.8789 396l-3.69922 1.39063m6-5.82813l-1.52344-4.4375 4.39844-3.15625 1.09765-1.28516.32032-4.4375 3.01953-3.46484v2.6914l-.67578.77344-.39063 4.4375-3.3711 3.94141-.6914.5.6914 3.76563.0586.67187 4.3789 3.85156 4.4375-1.32422 1.57423-2.52734 1.14843-4.4375-2.12109-4.4414-.60156-.94141-3.41797-3.4961-1.01953-.77343v-2.69141l4.4375 3.2539.21484.21094 2.6914 4.4375 1.37891 4.44141.15625 1.33984 1.51954 3.09766-1.51954 1.58984L439.71094 396l-2.78125 2.24219-4.4375.10937-4.4375-.34765L424.05859 396l1.1211-4.4375"/><path fill="#00e8fc" fill-rule="evenodd" d="M428.05469 390.89063l-.6914-3.76563.6914-.5 3.3711-3.9414.39062-4.4375.67578-.77344v8.58593l-.90235 1.06641-.55859 4.4375 1.46094 1.28516 1.78125-1.28516 2.65625-4.1836.1211-.2539-.1211-.22656-4.4375-.83985v-8.58593l1.01953.77343 3.41797 3.4961.60156.9414 2.1211 4.44141-1.14844 4.4375-1.57422 2.52734-4.4375 1.32422-4.3789-3.85156-.0586-.67188"/><path fill="#00d4fc" fill-rule="evenodd" d="M432.49219 392.84766l-1.46094-1.28516.5586-4.4375.90234-1.0664 4.4375.83984.1211.22656-.1211.2539-2.65625 4.1836-1.78125 1.28516"/><path fill="#50fcfc" fill-rule="evenodd" d="M461.48438 462.57422l-1.2422-4.4375 3.32032-3.16797v1.92578l-1.30469 1.24219 1.30469 2.66406 1.23828-2.66406-1.23828-1.24219v-1.92578l3.16016 3.16797-.9336 4.4375-2.22656 2.04297-2.07813-2.04297"/><path fill="#00e8fc" fill-rule="evenodd" d="M463.5625 460.80078l-1.30469-2.66406 1.30469-1.24219 1.23828 1.24219-1.23828 2.66406"/><g clip-path="url(#d)"><path fill="#fff" fill-opacity="0" fill-rule="evenodd" d="M467.9961 480.32813H468V311.67188h-.0039H468v168.65625h-.0039"/></g><path fill="#fff" fill-opacity="0" fill-rule="evenodd" d="M155.90625 409.98438l3.78125 4.45312 7.59375-6.44922-3.78125-4.45312-7.59375 6.44921"/><path fill-rule="evenodd" d="M164.36719 407.39063l.33203.38671-4.80078 4.07422-.50781-.59765 3.42187-2.90625-.89844-1.0586.42188-.35937.41406.38281.20313.16016.21484.11718.24219.0625.27343-.0039.3125-.08203.3711-.17579"/><path fill="#fff" fill-opacity="0" fill-rule="evenodd" d="M246.8711 412.73047l4.3789-3.86719-6.59766-7.46484-4.375 3.8711 6.59375 7.46093"/><path fill-rule="evenodd" d="M244.11328 404.32422l.3789-.33594 4.16798 4.71485-.58985.52343-2.97265-3.36719-1.03907.92188-.36718-.41797.375-.41797.15234-.20703.11328-.21875.0586-.24219-.00782-.27343-.08984-.3125-.17969-.3672"/><path fill="#fff" fill-opacity="0" fill-rule="evenodd" d="M179.66016 407.36719l7.91406.39062.4961-10.1836-7.91407-.38671-.4961 10.17969"/><path fill-rule="evenodd" d="M182.54688 399.14063l3.28125.16015-.03516.73828-2.63672-.1289-.32031 1.79296.23437-.15234.27735-.11719.32812-.07421.38281-.01172.32422.04296.33203.09766.32813.16406.30078.23047.25781.30469.10547.17969.08984.19922.07422.21875.04688.23828.02734.26172v.28515l-.0586.4414-.125.41407-.1875.375-.2578.32422-.32032.26953-.18359.10547-.19922.08984-.21484.07032-.23047.04687-.2461.02344h-.26171l-.46485-.0586-.39453-.12109-.32422-.17969-.26562-.22656-.20703-.27344-.15625-.30468-.11328-.33594-.07032-.35938.78906.03907.06641.23437.09375.21094.11328.1875.13672.16406.16016.1289.1875.10157.20703.0664.23047.03126.3125-.01172.28515-.05469.25-.10938.21485-.15625.17578-.20703.13672-.2539.08984-.3086.04297-.35546-.00781-.26563-.04688-.26172-.08984-.2539-.13672-.23438-.1836-.20313-.23046-.16406-.28516-.11328-.33594-.05078-.33984.01953-.28516.09375-.28125.17578-.32422.2539-.6914-.03515.6289-3.39844"/><path fill="#fff" fill-opacity="0" fill-rule="evenodd" d="M251.70703 433.36328l4.39063-6.59765-8.48829-5.64454-4.38671 6.59766 8.48437 5.64453"/><path fill-rule="evenodd" d="M246.1211 426.66797l1.8203-2.73828.6172.41015-1.46094 2.19922 1.375 1.1914-.01172-.27733.04297-.30079.10156-.3164.1875-.33985.19922-.2539.25781-.23438.3086-.19531.35156-.14063.39453-.0664h.20703l.21875.02344.22266.05078.23437.08203.23438.11328.24609.14453.34766.27344.29296.32031.22266.35547.15234.38672.0625.41406v.21094l-.02734.21875-.05078.21875-.07813.22265-.10547.22266-.1328.22266-.28907.3711-.3086.27343-.3164.1914-.33203.10938-.33984.03906-.34375-.02344-.34766-.07421-.34375-.125.4375-.65625.23828.0625.23047.03125.21875-.00391.20703-.03516.19531-.0703.17969-.10548.16406-.14453.14453-.1836.15625-.27343.09375-.27734.03907-.26954-.02735-.26562-.08594-.2539-.15234-.2461-.21484-.23438-.28516-.22265-.23047-.1289-.25-.09376-.26562-.05078-.26953-.0039-.26953.05078-.25782.11718-.24219.1836-.21875.26172-.15625.30078-.0664.29687.00781.33203.05078.40625-.38281.57813-2.59766-2.28125"/><path fill="#fff" fill-opacity="0" fill-rule="evenodd" d="M198.4336 396.90625l6.85156 10.13281 8.4414-5.71094-6.84765-10.1289-8.44532 5.70703"/><path fill-rule="evenodd" d="M207.32031 395.125l.28516.42188-5.21484 3.52343-.44141-.64844 3.71875-2.51562-.77734-1.15234.46093-.3086.36719.42578.1836.1797.20312.14062.23047.08593.27344.02735.32421-.04688.38672-.13281m2.69531 3.98438l.11329.20312.07812.21094.03906.22265.01172.23047-.01953.23828-.05078.23829-.17969.48437-.27344.48047-.35156.45312-.41406.41797-.46875.36328-.51563.30079-.54296.23437-.5625.16016-.55078.08203-.52344-.01172-.2461-.04297-.23047-.0664-.21093-.09376-.1914-.11718-.17188-.15235-.14453-.17969-.11329-.19921-.07422-.21485-.03906-.22265-.00781-.23047.02344-.23828.05078-.2422.1875-.49218.27734-.48047.35938-.46094.42187-.41796.46875-.3672.46875.69142-.45312.33984-.3711.35156-.29687.35156-.21875.34375-.14063.32813-.0664.29687.01172.26172.08593.21485.16797.16015.23828.10938.30078.05078.35547-.01172.40235-.07422.4375-.14453.46484-.21484.48047-.29297.44922-.33594.36719-.35156.29297-.34766.21093-.33984.13672-.32031.0586-.29297-.01563-.25782-.08984-.21484-.16407-.16406-.23437-.10938-.29688-.05469-.34765.00782-.39453.07031-.4297.13672-.46093.21484-.48047.28906-.46875-.6914.51172-.29688.54297-.23437.55469-.15625.54297-.07422.51562.01563.24219.04296.22656.07032.21094.09375.1914.12109.16797.15234.14453.17579"/><g clip-path="url(#e)"><path fill="none" stroke="#000" stroke-linecap="round" stroke-linejoin="round" stroke-miterlimit="10" stroke-width=".5" d="M147.16406 481.85547l-6.32812-3.05469"/></g><g clip-path="url(#f)"><path fill="none" stroke="#000" stroke-linecap="round" stroke-linejoin="round" stroke-miterlimit="10" stroke-width=".5" d="M160.45313 481.91016l-6.27344-3.16407"/></g><g clip-path="url(#g)"><path fill="none" stroke="#000" stroke-linecap="round" stroke-linejoin="round" stroke-miterlimit="10" stroke-width=".5" d="M173.58984 482.22266l-5.91797-3.78907"/></g><g clip-path="url(#h)"><path fill="none" stroke="#000" stroke-linecap="round" stroke-linejoin="round" stroke-miterlimit="10" stroke-width=".5" d="M187.07031 481.9336l-6.25-3.21094"/></g><g clip-path="url(#i)"><path fill="none" stroke="#000" stroke-linecap="round" stroke-linejoin="round" stroke-miterlimit="10" stroke-width=".5" d="M200.52344 481.63672L194 479.02344"/></g><g clip-path="url(#j)"><path fill="none" stroke="#000" stroke-linecap="round" stroke-linejoin="round" stroke-miterlimit="10" stroke-width=".5" d="M213.69531 481.9414l-6.24219-3.22656"/></g><g clip-path="url(#k)"><path fill="none" stroke="#000" stroke-linecap="round" stroke-linejoin="round" stroke-miterlimit="10" stroke-width=".5" d="M226.84375 482.23438l-5.90625-3.8125"/></g><g clip-path="url(#l)"><path fill="none" stroke="#000" stroke-linecap="round" stroke-linejoin="round" stroke-miterlimit="10" stroke-width=".5" d="M240.07422 482.35938l-5.73828-4.0586"/></g><g clip-path="url(#m)"><path fill="none" stroke="#000" stroke-linecap="round" stroke-linejoin="round" stroke-miterlimit="10" stroke-width=".5" d="M253.34375 482.41797l-5.64844-4.17969"/></g><g clip-path="url(#n)"><path fill="none" stroke="#000" stroke-linecap="round" stroke-linejoin="round" stroke-miterlimit="10" stroke-width=".5" d="M266.79688 482.22266l-5.92188-3.78907"/></g><g clip-path="url(#o)"><path fill="none" stroke="#000" stroke-linecap="round" stroke-linejoin="round" stroke-miterlimit="10" stroke-width=".5" d="M280.10156 482.23828l-5.90234-3.8164"/></g><g clip-path="url(#p)"><path fill="none" stroke="#000" stroke-linecap="round" stroke-linejoin="round" stroke-miterlimit="10" stroke-width=".5" d="M293.26953 482.44922l-5.60547-4.23828"/></g><g clip-path="url(#q)"><path fill="none" stroke="#000" stroke-linecap="round" stroke-linejoin="round" stroke-miterlimit="10" stroke-width=".5" d="M306.5664 482.47266l-5.5703-4.28516"/></g><g clip-path="url(#r)"><path fill="none" stroke="#000" stroke-linecap="round" stroke-linejoin="round" stroke-miterlimit="10" stroke-width=".5" d="M320.14844 482.0664l-6.10547-3.47656"/></g><g clip-path="url(#s)"><path fill="none" stroke="#000" stroke-linecap="round" stroke-linejoin="round" stroke-miterlimit="10" stroke-width=".5" d="M333.38281 482.20313l-5.9414-3.75"/></g><g clip-path="url(#t)"><path fill="none" stroke="#000" stroke-linecap="round" stroke-linejoin="round" stroke-miterlimit="10" stroke-width=".5" d="M346.94531 481.73438l-6.4375-2.8125"/></g><g clip-path="url(#u)"><path fill="none" stroke="#000" stroke-linecap="round" stroke-linejoin="round" stroke-miterlimit="10" stroke-width=".5" d="M360.4375 481.22266l-6.79297-1.78907"/></g><g clip-path="url(#v)"><path fill="none" stroke="#000" stroke-linecap="round" stroke-linejoin="round" stroke-miterlimit="10" stroke-width=".5" d="M360.4375 481.22266l.5625 2.39062"/></g><g clip-path="url(#w)"><path fill="none" stroke="#000" stroke-linecap="round" stroke-linejoin="round" stroke-miterlimit="10" stroke-width=".5" d="M373.86328 480.51563l-7.01562-.375"/></g><g clip-path="url(#x)"><path fill="none" stroke="#000" stroke-linecap="round" stroke-linejoin="round" stroke-miterlimit="10" stroke-width=".5" d="M373.86328 480.51563l1.03516 2.22656"/></g><g clip-path="url(#y)"><path fill="none" stroke="#000" stroke-linecap="round" stroke-linejoin="round" stroke-miterlimit="10" stroke-width=".5" d="M387.13281 480.9414l-6.92187-1.22265"/></g><g clip-path="url(#z)"><path fill="none" stroke="#000" stroke-linecap="round" stroke-linejoin="round" stroke-miterlimit="10" stroke-width=".5" d="M386.125 480.76172l.3789 1.16797"/></g><g clip-path="url(#A)"><path fill="none" stroke="#000" stroke-linecap="round" stroke-linejoin="round" stroke-miterlimit="10" stroke-width=".5" d="M395.34766 483.4375l3.27734-6.21875"/></g><g clip-path="url(#B)"><path fill="none" stroke="#000" stroke-linecap="round" stroke-linejoin="round" stroke-miterlimit="10" stroke-width=".5" d="M410.08984 483.83594l.42188-7.01563"/></g><g clip-path="url(#C)"><path fill="none" stroke="#000" stroke-linecap="round" stroke-linejoin="round" stroke-miterlimit="10" stroke-width=".5" d="M427.09766 480.80078l-6.96094-.94531"/></g><g clip-path="url(#D)"><path fill="none" stroke="#000" stroke-linecap="round" stroke-linejoin="round" stroke-miterlimit="10" stroke-width=".5" d="M426.08594 480.66406l.42187 1.15235"/></g><g clip-path="url(#E)"><path fill="none" stroke="#000" stroke-linecap="round" stroke-linejoin="round" stroke-miterlimit="10" stroke-width=".5" d="M440.2461 481.49219l-6.62891-2.32813"/></g><g clip-path="url(#F)"><path fill="none" stroke="#000" stroke-linecap="round" stroke-linejoin="round" stroke-miterlimit="10" stroke-width=".5" d="M439.28125 481.15234l.1875 1.21485"/></g><g clip-path="url(#G)"><path fill="none" stroke="#000" stroke-linecap="round" stroke-linejoin="round" stroke-miterlimit="10" stroke-width=".5" d="M453.69531 481.00781l-6.89453-1.35937"/></g><g clip-path="url(#H)"><path fill="none" stroke="#000" stroke-linecap="round" stroke-linejoin="round" stroke-miterlimit="10" stroke-width=".5" d="M452.6914 480.8125l.35548 1.17188"/></g><g clip-path="url(#I)"><path fill="none" stroke="#000" stroke-linecap="round" stroke-linejoin="round" stroke-miterlimit="10" stroke-width=".5" d="M466.77734 481.74219l-6.43359-2.82813"/></g><g clip-path="url(#J)"><path fill="none" stroke="#000" stroke-linecap="round" stroke-linejoin="round" stroke-miterlimit="10" stroke-width=".5" d="M147.15234 468.5664l-6.30468-3.10546"/></g><path fill="none" stroke="#000" stroke-linecap="round" stroke-linejoin="round" stroke-miterlimit="10" stroke-width=".5" d="M147.15234 468.5664l.07813 2.45313m13.22656-2.4336l-6.28516-3.14452m6.28516 3.14453l.0586 2.45312m13.23828-2.41406l-6.2461-3.22266m6.2461 3.22266l.02734 2.45313m12.91406-1.87891l-5.5-4.3711m5.5 4.3711l-.44531 2.41406m13.72266-2.36719l-5.42578-4.46484m5.42578 4.46484l-.48438 2.40235m13.88672-2.51172l-5.59766-4.2461m5.59766 4.2461l-.39453 2.42187m13.6875-2.39453l-5.55469-4.30078m5.55469 4.30078l-.41406 2.41797m-.39453-3.04297l-.20704 1.21094m14.51172-.83984l-5.91797-3.79297m5.91797 3.79297l-.19922 2.4453m-.66015-3l-.10156 1.22657m14.40625-.89453l-6.1797-3.34766m6.1797 3.34766l-.01954 2.45313m-.8789-2.94141l-.00781 1.22656m14.1914-.6836l-6.11719-3.45702m6.1172 3.45703l-.0625 2.45312m-.82813-2.95703l-.03125 1.22656m14.29687-.83593l-6.23828-3.23047m6.23828 3.23047l.02735 2.45312m-.9336-2.92187l.01563 1.22656m14.1914-.72656l-6.20703-3.29297m6.20703 3.29297v2.45312m13.64063-3.33984l-6.85938-1.51953m6.85938 1.51953l.65625 2.36328m12.63281-2.25l-6.8086-1.7461m6.8086 1.7461l.57813 2.38281m12.64062-2.07031l-6.61328-2.3711m6.61328 2.3711l.35156 2.42969m13.10547-2.94922l-6.89844-1.33203m6.89844 1.33203l.72266 2.34375m12.65234-2.85157l-7.01953-.3164m7.01953.3164l1.05078 2.21875m12.26563-2.46093l-7.02344.16797m7.02344-.16797l1.20703 2.13672m11.98828-2.97657l-6.78125 1.85157m5.79297-1.58594l.83984.89453m13.54297-.77344l-6.9414 1.07422m5.93359-.91797l.73437.98047m13.60938-.19922l-6.98047-.80078m5.96484.6836l.44922 1.14062m13.88282-1.79297l-6.98829.73828m5.97266-.6289l.6875 1.01562m13.65625-.52344l-7.01172-.46484m7.01172.46484l1.0039 2.23828m12.06641-3.78125l-6.51953 2.6211m6.51953-2.6211l1.875 1.57813m11.1289 1.64063l-5.89843-3.81641m5.03906 3.26172l-.10546 1.22265"/><g clip-path="url(#K)"><path fill="none" stroke="#000" stroke-linecap="round" stroke-linejoin="round" stroke-miterlimit="10" stroke-width=".5" d="M146.8789 455.71094l-5.7578-4.02735"/></g><path fill="none" stroke="#000" stroke-linecap="round" stroke-linejoin="round" stroke-miterlimit="10" stroke-width=".5" d="M146.8789 455.71094l-.29687 2.4375m13.55469-2.35938l-5.64453-4.1836m5.64453 4.1836l-.36328 2.42578m13.38672-2.07812l-5.0586-4.875m5.0586 4.875l-.67578 2.35937m13.82812-2.19922l-4.73438-5.1953m4.73438 5.1953l-.82422 2.3086m13.89063-2.10156l-4.23438-5.60938m4.23438 5.60938l-1.03516 2.22265m15.42188-3.55469l-6.37891-2.9453m6.3789 2.9453l.13672 2.44922m12.75-1.75l-5.52343-4.34765m5.52343 4.34765l-.4375 2.41407m13.97266-2.73047l-5.96484-3.71485m5.96484 3.71485l-.16797 2.44922m13.5586-2.57422l-6.11329-3.46485m6.11328 3.46485l-.0664 2.45312m13.34766-2.39453l-6.04688-3.57812m6.04688 3.57812l-.11329 2.44922m-.76562-2.96875l-.0586 1.22266m14.0625-.41407l-5.66796-4.15625m5.66797 4.15625l-.35157 2.42578m14.03125-3.04687l-6.39453-2.91406m6.39453 2.91406l.14844 2.44922m13.33203-2.89063l-6.72656-2.03515m6.72656 2.03515l.47266 2.41016m12.92187-2.72656L313.65234 453m6.88672 1.39844l.69532 2.35156m12.53125-2.0039l-6.70704-2.09376m6.70704 2.09375l.45312 2.41016m12.98828-3.94531l-6.96094.97656m6.96094-.97656l1.4414 1.98437m11.8086-2.3164l-6.83203 1.64062m5.83984-1.40234l.8125.91797m13.51172-1.09375l-6.86328 1.51171m6.86328-1.51171l1.58985 1.87109m11.74609-1.75l-6.91016 1.27344m5.90625-1.08985l.76172.96094m13.19532-2.17969l-6.1836 3.33985m5.28516-2.85157l1.01953.6797m13.58203 1l-6.95703-.9922m5.9414.84766l.41797 1.15234m13.83204-.61718l-6.79688-1.77735m5.8086 1.51953l.28124 1.19532m14.13672-1.72266l-7.02734-.20312m7.02734.20312L441.53125 456m12.23047-2.27344l-7.02734-.05469m6.0039.04688l.5664 1.08594m10.98829 2.33203l-1.46484-6.875m1.2539 5.875l-.9414.78906"/><g clip-path="url(#L)"><path fill="none" stroke="#000" stroke-linecap="round" stroke-linejoin="round" stroke-miterlimit="10" stroke-width=".5" d="M147.28125 441.63672l-6.5625-2.50781"/></g><path fill="none" stroke="#000" stroke-linecap="round" stroke-linejoin="round" stroke-miterlimit="10" stroke-width=".5" d="M146.32813 441.27344l.15234 1.21484m11.48437 1.34766l-1.30078-6.90625m1.11328 5.90234l-.95703.76563m15.20313.01172l-2.78516-6.45313m2.3789 5.51563l-.76562.95703m15.34375-.54688l-4.5-5.39844m3.84375 4.61329l-.46094 1.13671m14.19141-.16797L195.25 437.5m3.4336 4.92578l-.5586 1.09375m13.53125.20703l-2.16406-6.6875m15 6.80469l-1.20313-6.92187m1.20313 6.92187l-1.9336 1.50781m17.10157-2.45703L234.75 437.8711m4.91016 5.02344l-.7422 2.33985m14.26173-2.5547l-5.32031-4.59374m5.3203 4.59375l-.54296 2.39062m13.51172-2.03906l-4.625-5.29297m4.625 5.29297l-.875 2.29297m13.6914-1.92969l-3.6289-6.01953m3.6289 6.01953l-1.26172 2.10156M292.08594 443.5l-3.23828-6.23438m2.76562 5.32813l-.69531 1.01172m15.24219-.63672l-4.75782-5.17188m4.75782 5.17188l-.8125 2.3164m13.60156-1.91796l-3.70703-5.96875m3.70703 5.96875l-1.23047 2.1211m14.98047-2.4375l-4.57422-5.33595m3.90625 4.5586l-.44531 1.14453m15.10156-1.14063l-5.92187-3.78515m5.05859 3.23437l-.09766 1.22266m13.72657-5.11719l-4.82422 5.10547m4.125-4.36328l1.17968.32422m12.71485-1.17969l-4.58203 5.32813m3.91406-4.55079l1.19922.26954m13.23828-.57032l-5.4961 4.3789M400.5 440.4297l-7.02734-.09375m6.0039.08203l.5625 1.08984m13.69532-.375l-6.8672-1.5m5.8672 1.28125l.33203 1.1836m14.0625-1.69532l-7.02735-.03515m6.00782.02734l.5703 1.08594m13.76563-1.04297l-7.02734-.10938m6.0039.09375l.5586 1.09375m12.52344 1.5625l-4.51172-5.38671m4.51172 5.38672l-.92188 2.27343m9.07031-2.9961l5.82032-3.9414"/><g clip-path="url(#M)"><path fill="none" stroke="#000" stroke-linecap="round" stroke-linejoin="round" stroke-miterlimit="10" stroke-width=".5" d="M147.23828 425.70313l-6.47656 2.73046"/></g><path fill="none" stroke="#000" stroke-linecap="round" stroke-linejoin="round" stroke-miterlimit="10" stroke-width=".5" d="M146.29688 426.10156l.94921.77344m12.46094-2.38281l-4.78125 5.15234m12.23438-2.01953l6.9375-1.11328m-5.92578.95312l-.7422-.98047m13.60157 2.54688l5.82813-3.92578m-4.98047 3.35547l-1.08203-.57813m13.58593 1.20313l5.7539-4.03125m-5.7539 4.03125l-2.1875-1.11719m15.13672.45312l6.48828-2.70703m-5.54297 2.3125l-.94922-.77734m14.625 2.75l3.875-5.86328M221.95313 430l-2.4453-.23438m16.3203.53516l2.75391-6.46484m-2.7539 6.46484l-2.44141.21094m2.84375-1.15234l-1.22266.10546m15.89844 1.09766l-.76953-6.98828m.76953 6.98828l-2.02734 1.3789m15.89062-1.48437l-1.86719-6.77734m1.8672 6.77734l-1.78516 1.6836m15.0078-1.66016l-1.67968-6.82422m1.67969 6.82422l-1.82813 1.63672m14.96485-1.59766l-1.32813-6.90234m1.32813 6.90234l-1.91016 1.53906m14.85156-1.48828l-.57812-7.0039m.49219 5.98437l-1.03125.66406m13.1953.23828l1.89844-6.76562m-1.625 5.78125l-1.19921.26172m14.10156.67969l2.17187-6.6836m10.31641.39453l3.82813 5.89453M354.19921 425l5.6836 4.13672m-4.85548-3.53516l.17188-1.21484m12.8789.00781l4.5547 5.34766m-3.89063-4.57032l.44922-1.14062m15.16015-.41016l-1.36328 6.89453m1.16797-5.89062l1.17188-.35547m14.19921.375l-5.08203 4.84766m4.34375-4.14453l1.16406.38671m13.70313.28907l-6.71094 2.08984m5.73438-1.78516l.8711.86329m13.5664-.40625l-7.0039.5664m5.98437-.48437l.66406 1.03125m13.26953-2.48438l-6.19922 3.3086m6.19922-3.3086l2.03516 1.36719m11.64843-.26172l-6.9375 1.09766m5.9297-.9375l.73827.97656m9.35156 2.83984l1.53125-6.85547"/><g clip-path="url(#N)"><path fill="none" stroke="#000" stroke-linecap="round" stroke-linejoin="round" stroke-miterlimit="10" stroke-width=".5" d="M141.33984 411.45703l5.32032 4.58985"/></g><path fill="none" stroke="#000" stroke-linecap="round" stroke-linejoin="round" stroke-miterlimit="10" stroke-width=".5" d="M155.13281 411l4.36328 5.50781m-3.73047-4.70703l.4922-1.125m12.3828.17969l3.97657 5.79297m-3.39844-4.94922l.5664-1.08594m10.83594 2l6.64844 2.27735m-5.67969-1.94532l-.1953-1.21093m12.35937 2.2539l7.01172-.47265m-5.9922.40625l-.64452-1.04297m13.16406 2.1289l6.5625-2.50781m-5.60547 2.14453l-.92578-.8086m13.10547-.6875l6.92187 1.20704m-5.91406-1.03125l-.38281-1.16406m12.64453 1.83593l7.01172-.48437m-5.99219.41406l-.64844-1.04297m14.48047 3.77735l3.9414-5.81641m-3.37109 4.97266l-1.21875-.13282m15.21485 1.50782l1.4375-6.87891m-1.4375 6.8789l-2.35547.6875m15.32031-.77734l2.13672-6.69531m-2.13672 6.69531l-2.41406.4375m15.55469-.5l2.48828-6.57031m-2.1289 5.61328l-1.21485.15625m14.19922.8125l2.42968-6.59375m-2.07421 5.63281l-1.21875.16797m11.89453-2.84765l6.99609.6875m6.46484-1.39453l6.70313 2.10156m-5.72656-1.79688l-.22657-1.20703m16.50391-1.51172l-1.17578 6.92969m15.33203-6.67578l-2.85547 6.42187m2.4414-5.48828l1.22266-.08593m14.28516.92968l-6.41406 2.86719m5.48047-2.44922l.96875.7539m13.4453-.72265l-6.74608 1.96485m5.76562-1.67579l.85547.87891m13.51562-.85937l-6.89453 1.34765m5.89063-1.14844l.77344.95313m13.54687-1.14063l-6.89844 1.32813m6.89844-1.32813L415.29297 415m11.17578-3.29687l-5.70312 4.10156m5.70312-4.10156l2.19922 1.08593m10.1875-1.97656l-3.84766 5.8789m3.28907-5.02343l1.22265.11328m9.13281-1.16016l3.1875 6.26563m-2.72265-5.35547l.70312-1.0039m10.73047 1.41406l6.01953 3.625m-5.14453-3.09766l.0664-1.22656"/><g clip-path="url(#O)"><path fill="none" stroke="#000" stroke-linecap="round" stroke-linejoin="round" stroke-miterlimit="10" stroke-width=".5" d="M142.30469 397.36328l3.39062 6.15235"/></g><path fill="none" stroke="#000" stroke-linecap="round" stroke-linejoin="round" stroke-miterlimit="10" stroke-width=".5" d="M155.39453 397.4961l3.84375 5.8828m-3.28516-5.02734l.58985-1.07422m13.15234-.22656l1.8711 6.77344m-1.59766-5.78906l.89063-.83985m15.48437.67578l-4.79688 5.13282m4.10157-4.38672l1.1836.32031m9.95702-1.98047l.9414 6.96485m-.80468-5.95313l.9961-.71484m10.61328 6.04296l4.08203-5.71875m14.14453 4.88672l-5.74219-4.05078m4.90625 3.46094l-.15234 1.21484m14.78515-1.60156l-6.70703-2.09765m6.70703 2.09765l.45313 2.41016m12.02344-1.0039l-5.02735-4.91017m5.02735 4.91016l-.69141 2.35547m14.3125-2.71484l-5.64063-4.19532m5.64063 4.19532l-.3711 2.42578m12.19532-1.26953l-2.66016-6.50391m2.27344 5.55469l-.78516.94531m13.90625.1836l-1.49609-6.8672m1.27734 5.8672l-.9375.79296m14.91797.07813l-2.39453-6.60547m2.04688 5.64453l-.82032.91016m9.78125-3.45704l7.01172.40625m13.29688.21875l-6.97656-.83984m5.96093.71485l.44532 1.14453m13.89453-1.08204l-6.9922-.71875m5.97267.61329l.46484 1.13671m12.59375-4.11328l-4.4414 5.44532m3.79687-4.65235l1.20312.23828m12.94922-.86328l-4.82422 5.10938m4.1211-4.36328l1.18359.32421m13.04688 3.82032l-5.25-4.67188m4.48437 3.99219l-.28906 1.1914m15.23047-3.28124L393.5 400.875m5.95703-.7461l.70703 1.00391m13.6211-1.15234l-6.96875.91797m5.95312-.78516l.71485 1m10.88671-4.10547l-1.5078 6.86328m1.28905-5.86718l1.1797-.32813m12.78515-.54687l-2.3711 6.61718m2.02735-5.65234l1.21094-.17578m11.28125-.99219l-.03907 7.02735m.03125-6.00782l1.08985-.57031m8.8125 2.1914l6.80468 1.7461"/><g clip-path="url(#P)"><path fill="none" stroke="#000" stroke-linecap="round" stroke-linejoin="round" stroke-miterlimit="10" stroke-width=".5" d="M146.78906 384.98438l-5.57812 4.27734"/></g><path fill="none" stroke="#000" stroke-linecap="round" stroke-linejoin="round" stroke-miterlimit="10" stroke-width=".5" d="M145.97656 385.60938l1.11719.5078m13.60938.07423l-6.77344 1.86328m5.78515-1.59375l.84375.89062m13.38282-1.40625l-6.6211 2.35547m5.65625-2.01172l.90625.82813m13.57422.14453l-7.02344-.27735m6 .23829l.53125 1.10546m13.63282-2.30859l-6.67188 2.20703m6.67188-2.20703l1.77343 1.69922m10.85547 1.70703l-5.30469-4.60547m5.3047 4.60547l-.55079 2.39453m12.61328-1.47265l-2.79687-6.44922m2.79687 6.44922l-1.53125 1.91796m16.21094-2.96875l-5.52344-4.34375m5.52344 4.34375l-.4336 2.41407m14.23438-3.2539l-6.5-2.66798m6.5 2.66797l.2461 2.4414m12.1914-1.18359l-4.74219-5.18359m4.7422 5.1836l-.82032 2.3125m.1289-3.06641l-.41015 1.15625m14.29687-.29688l-4.5039-5.39453m4.5039 5.39453l-.92187 2.27344m.26562-3.0586l-.46093 1.13673m15.02343-.98438l-5.6875-4.125m5.6875 4.125l-.33593 2.42969m14.05468-3.14844l-6.49218-2.6914m6.49218 2.6914l.23438 2.44531m13.25781-2.99219l-6.84375-1.59765m5.84766 1.36328l.3125 1.1875m14.0586-1.30469l-6.96876-.89453m6.96875.89453l.86719 2.29688m12.29687-1.625l-6.66406-2.23828m6.66406 2.23828l.40235 2.41797m13.02343-2.83594l-6.88671-1.40235m5.8828 1.19922l.35157 1.17579m13.9961-2.21875l-6.94141 1.08984m5.92969-.9336l.73828.98047m12.40625-3.2539l-4.58203 5.32812m3.91796-4.55469l1.19532.26954m10.64843-1.89063l-.30859 7.01953m.26172-6l1.10937-.52734m14.81641.79297l-5.4375 4.44922m4.64844-3.80079l1.1289.47266m12.54297-1.5625l-4.57422 5.33203m4.57422-5.33203l2.39453.53516m-3.05859.23828l1.19531.26953m13.54688-.125l-6.09766 3.4961m6.09766-3.4961l2.07422 1.3086m11.69531.1875l-7.00781.5039m5.98828-.42969l.65234 1.03906m12.6914 1.59375l-5.02343-4.91015m4.29297 4.19531l-.34766 1.17969"/><g clip-path="url(#Q)"><path fill="none" stroke="#000" stroke-linecap="round" stroke-linejoin="round" stroke-miterlimit="10" stroke-width=".5" d="M147.50781 373.6289l-7.01562.35938"/></g><path fill="none" stroke="#000" stroke-linecap="round" stroke-linejoin="round" stroke-miterlimit="10" stroke-width=".5" d="M147.50781 373.6289l1.26172 2.10548m11.59375-3.67188l-6.09766 3.49219m6.09766-3.49219l2.07813 1.30469m8.57422-3.05078l-.77344 6.98437m.66015-5.96875l1.14063-.45312m10.38672-.2422l3.03125 6.33985m13.60937-.15625l-3.6211-6.02344m3.09376 5.14844l-.63281 1.05078m14.47656-.17968l-3.625-6.01954m3.09766 5.14454l-.62891 1.05468m15.89453-1.8125l-6.46875-2.75m6.46875 2.75l.21094 2.44141m13.1211-2.48047l-6.5-2.67187m6.5 2.67187l.23827 2.4414m-1.1875-2.83202l.1211 1.22265m14.29297-1.28906l-6.8047-1.75781m6.8047 1.75781l.57421 2.38281m-1.5625-2.64062l.28516 1.19531m14.01563-.9336l-6.80079-1.76952m6.80078 1.76953l.57032 2.38671m-1.5586-2.64062l.28516 1.1914m13.6875-.10937l-6.13672-3.42187m6.13672 3.42187l-.05078 2.45313m-.83985-2.94922l-.02734 1.22656m13.23828.39453l-4.14843-5.67187m4.14843 5.67187l-1.0664 2.20703m15.23437-3.09765l-5.85156-3.89063m5 3.32422l-.1211 1.21875m14.71094-1.53906L313.7461 372.75m5.72657 1.8086l.22265 1.20702m13.74219-.17578l-6.05469-3.5664m5.17578 3.05078l-.05468 1.22265m14.67578-1.83593l-6.90625-1.3086m5.89844 1.1211l.36718 1.17187m13.90625-2.50781l-6.8086 1.73828m5.81642-1.48437l.82812.90625m11.96875 2.67187l-3.78516-5.92187m18.17188 1.07812l-5.9336 3.76563m13.64844-4.20704l5.26953 4.64844m-4.5039-3.97265l.28515-1.19532m13.0547-.14843l3.6875 5.98437m10.92577-6.46484l1.09375 6.9414m-.9336-5.92968l.97657-.73829m15.85156 1.59766l-6.2539 3.20313m6.2539-3.20313l2.01172 1.40235m11.6875.27343l-7.02343-.14844m7.02343.14844l1.10547 2.1914m11.96485-.97655l-6.53516-2.57813m5.58594 2.20313l.13672 1.21875"/><g clip-path="url(#R)"><path fill="none" stroke="#000" stroke-linecap="round" stroke-linejoin="round" stroke-miterlimit="10" stroke-width=".5" d="M146.78516 358.35156l-5.57032 4.28516"/></g><path fill="none" stroke="#000" stroke-linecap="round" stroke-linejoin="round" stroke-miterlimit="10" stroke-width=".5" d="M145.97266 358.97266l1.11718.5078m11.91407-2.0703l-3.375 6.16406m2.8828-5.26563l1.22657.01563m14.23828 1.09375l-6.6914 2.15234M173 359.73047l.88281.85547m13.38281-1.2461l-6.64062 2.3047m15.17188 2.04296l2.92578-6.39063m-2.5 5.46094L195 362.83203m12.11719-1.71484l6.91406-1.25m-5.90625 1.07031l-.76172-.96484m16.91016 4.01171L223.5078 357m.65235 5.96875l-1.01172.6914m17.16406-1.52734l-6.21484-3.28125m6.21484 3.28125l.00781 2.45703m13.42969-2.71093l-6.45703-2.77344m6.45703 2.77344l.20313 2.4453m-1.14454-2.84765l.10157 1.22266m14.35547-2.96094l-6.85938 1.51172m6.85938-1.51172l1.59375 1.86719m11.3789.5625l-6.17578-3.34766m6.17578 3.34766l-.01562 2.45312m11.01172-.69921l-1.53516-6.85547m1.53515 6.85546l-1.86328 1.59766m14.69532-1.52344l-.57032-7.0039m.48828 5.98437l-1.03515.66016m17.40625-1.83594l-6.51953-2.61719m5.57031 2.23829l.13281 1.21875m11.67578 1.27343l-1.60547-6.83984m1.3711 5.84375l-.92188.8086m14.62891.14843l-1.92188-6.76172m1.64063 5.77735l-.88281.84765m11.46093-6.09375l4.11329 5.69922m12.28125-2.85156l-.01954-.19922-.05859-.1914-.09375-.17579-.46094-.3789-.1914-.0547-.19922-.01952-.19922.01953-.1914.05469-.45704.3789-.09765.17578-.0586.1914-.01953.19923.01953.19922.0586.1914.09765.17969.45703.375.19141.0586.19922.01952.19922-.01953.1914-.05859.46094-.375.09375-.17969.0586-.1914.01953-.19922m9.78906 2.46484l5.00781-4.92969m-4.28125 4.21094l-1.16797-.36719m18.23047 1.53125l-3.9414-5.8164m18.21874 4.83984l-5.86718-3.86719m5.01562 3.3047l-.11719 1.22265m12.78125.61719l-2.85937-6.41797m2.4414 5.48437l-.7539.96485m16.5664-3.3711l-7.01953.25781m6-.21875l.61329 1.0625m13.60546-.0625l-6.78906-1.8164m5.80078 1.55078l.27735 1.19531m14.14062-1.625l-7.01562-.42578m5.99218.36328l.51172 1.11328"/><g clip-path="url(#S)"><path fill="none" stroke="#000" stroke-linecap="round" stroke-linejoin="round" stroke-miterlimit="10" stroke-width=".5" d="M143.14063 343.77344l1.71875 6.8125"/></g><g clip-path="url(#T)"><path fill="none" stroke="#000" stroke-linecap="round" stroke-linejoin="round" stroke-miterlimit="10" stroke-width=".5" d="M143.14063 343.77344l1.8164-1.64844"/></g><path fill="none" stroke="#000" stroke-linecap="round" stroke-linejoin="round" stroke-miterlimit="10" stroke-width=".5" d="M157.09375 343.67188l.44531 7.01171m-.44531-7.01171l2.08594-1.28907m14.47656 6.58203l-6.05078-3.57421m5.16797 3.05468l-.05469 1.22656m9.92188.76954l2.60937-6.52735m-2.23047 5.57813l-1.21875.13281m11.96484-2.07813l6.98829-.73828m-5.97266.62891l-.6836-1.01563m13.5 2.625l5.95313-3.73437m-5.95312 3.73438l-2.125-1.22657m2.99218.67969l-1.0625-.60938m18.48047 2.1797l-3.98437-5.78516m3.40625 4.9453l-.5664 1.08985m14.48437-.26562l-4.03516-5.7539m4.03516 5.7539l-1.11328 2.1875m15.28125-3.03906l-5.73829-4.05079m5.73828 4.05079l-.30859 2.4375m-.52734-3.02735l-.15235 1.21875m14.78907-1.61328l-6.71094-2.08203m6.71094 2.08203l.45703 2.41016m11.35937-.46875l-3.71484-5.96485m3.71484 5.96485l-1.22656 2.125m12.52344-1.59766l.32031-7.01953m-.32031 7.01953l-2.21485 1.05469m15.54297-1.05469l.29688-7.01953m-.29688 7.01953l-2.21484 1.0625m14.21484-1.375l2.92578-6.39063m-2.92578 6.39063l-2.44922.14453m16.96485.16406l.52734-7.0078m-.45312 5.98827l-1.1211.49219m12.02344-.61719l5.20313-4.72265m-4.44532 4.03515l-1.15625-.41406m12.8086-1.04688l7.01172-.42578m-5.9922.36329l-.64062-1.04688m12.92969.80469l7.02344.1836m-6-.15626l-.55078-1.09765m16.89453 4.6328l-1.07813-6.9414m.92188 5.9336l-.98438.73437m15.16016.08984l-2.48828-6.57421m2.125 5.61718l-.8086.92188m15.98438-1.05469l-5.48438-4.39453m13.13282.25l5.84765 3.89844m13.1289.25l-5.47655-4.40235m4.68359 3.76172l-.23047 1.20703m14.82813-4.16406l-6.44922 2.79297m5.50781-2.38672l.96094.76563m10.39062-3.27344l-.64062 6.9961m.54687-5.97657l1.1289-.47656"/><g clip-path="url(#U)"><path fill="none" stroke="#000" stroke-linecap="round" stroke-linejoin="round" stroke-miterlimit="10" stroke-width=".5" d="M145.3125 330.60547l-2.625 6.51562"/></g><path fill="none" stroke="#000" stroke-linecap="round" stroke-linejoin="round" stroke-miterlimit="10" stroke-width=".5" d="M145.3125 330.60547l2.4414-.26172m13.00391 2.82422l-6.88672 1.39062m6.88672-1.39062l1.5586 1.89453m11.74609-.4414l-6.86328-1.51563m6.86328 1.51562l.65625 2.36329m-1.65625-2.58594l.32813 1.1836m14.0664-1.56642l-7.02344-.30468m7.02344.30469l1.05469 2.21093m12.26172-2.44922l-7.02735.17188m7.02735-.17188l1.20312 2.14063m11.41797.04297l-5.63672-4.19531m5.63672 4.1953l-.3711 2.42579m-.44921-3.03516l-.3711 2.42578m14.625-1.98828l-5.875-3.85156m5.875 3.85156l-.22265 2.4414m-.63281-3.0039l-.10938 1.22266m13.01172.5039l-3.33984-6.17968m3.33984 6.17969l-1.35938 2.04296m.875-2.9414l-.67968 1.02344m14.27344-.01954l-2.92579-6.39062m2.92578 6.39062l-1.49218 1.94922m1.0664-2.8789l-.74609.97265m15.2461-.51953l-4.44923-5.4375m4.44922 5.4375l-.9453 2.26563m.30077-3.0547l-.47656 1.12892m13.53125.19921l-2.63281-6.51562m2.63281 6.51562L276.89062 339m11.58204-2.2461l3.98828-5.78515m-3.98828 5.78516l-2.4375-.28125m15.92187.39453l3.64844-6.00781m-3.64844 6.0078l-2.44922-.14062m2.98047-.73437l-1.22656-.07031M315.51562 337l3.16016-6.27734M315.51562 337l-2.45312.0586m2.91406-.96876l-1.22656.02735m13.0625.11328l5.19531-4.73438m-5.19531 4.73438l-2.3086-.82813m14.92188-.33984l6.60156-2.39844m-6.60156 2.39844l-1.82422-1.64063m16.63672 3.45704l3.60547-6.03125m-3.60547 6.03125l-2.44922-.1211M355.76172 336l-1.22266-.0586m14.21875 1.05079l3.19922-6.25781m-3.19922 6.2578l-2.45312.03907m17.91406.30078l-1.09375-6.9414m1.09375 6.9414l-1.96094 1.47656m17.72266-3.10937l-5.98828-3.67188m5.11718 3.13672l-.07421 1.22656m9.63671.58594l3.25782-6.22656m8.28125 2.2461l6.8086 1.73437m-5.81642-1.48438l-.28906-1.1914m17.03906 5.16797L435.91016 330.5m1.74609 5.7461l-.86719.86718m16.64453-4.73047l-6.375 2.96094m5.44922-2.52734l.97656.73828M466.53907 332l-5.95704 3.72656"/><g clip-path="url(#V)"><path fill="none" stroke="#000" stroke-linecap="round" stroke-linejoin="round" stroke-miterlimit="10" stroke-width=".5" d="M466.53906 332l2.125 1.22656"/></g><g clip-path="url(#W)"><path fill="none" stroke="#000" stroke-linecap="round" stroke-linejoin="round" stroke-miterlimit="10" stroke-width=".5" d="M146.8789 318.53125l-5.7578 4.03516"/></g><path fill="none" stroke="#000" stroke-linecap="round" stroke-linejoin="round" stroke-miterlimit="10" stroke-width=".5" d="M146.8789 318.53125l2.1836 1.11328m-3.02344-.52734l1.09375.5586m13.6211.14843l-6.87891 1.44531m5.8789-1.23437l.78516.9414m13.52344.3164l-6.86719-1.48827m6.86719 1.48828l.66797 2.35937m12.61328-2.21484l-6.79688-1.77734m6.79688 1.77734l.5664 2.38672m-1.55468-2.64844l.28516 1.19531m14.08203-1.22656l-6.92578-1.1914m6.92578 1.1914l.76953 2.32813m-1.77735-2.50391l.38672 1.16797m13.61719-.02344l-6.28906-3.13281m6.28906 3.13281l.0664 2.45313m12.53516-1.48047l-4.86328-5.07422m4.15625 4.33594l-.38281 1.16406m11.89062.54687l.16797-7.02343m-.14453 6.0039l-1.09766.54688m13.11329.20312l2.72265-6.48047m-2.72265 6.48047l-2.44532.22266m15.17188-.53906l3.89844-5.84766m-3.89844 5.84766l-2.4414-.2461m16.46484.60938l2.48046-6.57422m-2.48046 6.57422l-2.4336.3125m14.10547-1.58985l5.76563-4.01953m-5.76563 4.01953l-2.1836-1.12109m16.76954 2.23047l3.22656-6.24219m-3.22656 6.24219l-2.45703.02734m17.8164.33985l-.86328-6.97266m.73828 5.95703l-1.0039.70703m16.28906-5.85547l-4.55078 5.35547m3.88672-4.57812l1.19922.26562m7.15234.58203l6.70312 2.10157m-5.73046-1.79297l-.22266-1.20703m13.02344 3.9453l5.78515-3.98827m-5.78515 3.98828l-2.17969-1.13281m3.01953.55078l-1.08594-.5625m13.50391 1.0586l5.89844-3.82032m-5.03907 3.26562l-1.07421-.59765m15.24218 2.53125l2.47657-6.57422m-2.47657 6.57422l-2.43359.3125m17.75781-.17188l-1.54297-6.85547m1.31641 5.85547l-.92969.80078m13.54297.28125l.3125-7.01953m-.26562 5.9961l-1.10938.52734m17.64063-1.375l-6.21094-3.28125m17.67969 4.92188l-2.51954-6.5586m2.51954 6.5586l-1.60547 1.85156m17.1289-4.57422l-6.9375-1.11328m6.9375 1.11328l.79688 2.32031m11.54687-5.34765l-4.99609 4.9414"/><g clip-path="url(#X)"><path fill="none" stroke="#000" stroke-linecap="round" stroke-linejoin="round" stroke-miterlimit="10" stroke-width=".5" d="M466.0586 318.07813l2.34374.72656"/></g><path fill="none" stroke="#000" stroke-linecap="round" stroke-linejoin="round" stroke-miterlimit="10" stroke-width=".5" d="M465.33203 318.79688l1.17188.36328"/><path fill="#00f" fill-rule="evenodd" d="M188.51172 463.21094h8.6211V453.0625h-8.6211v10.14844"/><path fill="azure" fill-rule="evenodd" d="M190.34375 454.89844h.83594v2.82031h3.28515v-2.82031h.83203v6.48047h-.83203v-2.91797h-3.28515v2.91797h-.83594v-6.48047"/><path fill="#00f" fill-rule="evenodd" d="M450.375 454.33203h8.61719V444.1875H450.375v10.14453"/><path fill="azure" fill-rule="evenodd" d="M452.20703 446.01953h.83594v2.82422h3.28515v-2.82422h.83204V452.5h-.83204v-2.91406h-3.28515V452.5h-.83594v-6.48047"/><path fill="#ff3030" fill-rule="evenodd" d="M357.86328 449.89453h7.69531V439.75h-7.6953v10.14453"/><path fill="azure" fill-rule="evenodd" d="M359.69922 441.58203h.83203v5.73828h3.1914v.74219h-4.02343v-6.48047"/><path fill="#00f" fill-rule="evenodd" d="M383.80078 436.57813h8.61719v-10.14454h-8.61719v10.14454"/><path fill="azure" fill-rule="evenodd" d="M385.63281 428.26563h.83203v2.82421h3.28907v-2.82421h.83203v6.48046h-.83203v-2.91406h-3.28907v2.91406h-.83203v-6.48046"/><path fill="#00f" fill-rule="evenodd" d="M277.28125 427.70313h8.61719v-10.14454h-8.61719v10.14454"/><path fill="azure" fill-rule="evenodd" d="M279.11328 419.39063h.83203v2.82421h3.28516v-2.82421h.83594v6.48046h-.83594v-2.91796h-3.28516v2.91796h-.83203v-6.48046"/><path fill="#00f" fill-rule="evenodd" d="M334.97656 418.82813h8.6211v-10.14844h-8.6211v10.14844"/><path fill="azure" fill-rule="evenodd" d="M336.8125 410.51172h.83203v2.82422h3.28516v-2.82422h.83594v6.48047h-.83594v-2.91406h-3.28516v2.91406h-.83203v-6.48047"/><path fill="#ff3030" fill-rule="evenodd" d="M446.63281 347.8125h7.6914v-10.14453h-7.6914v10.14453"/><path fill="azure" fill-rule="evenodd" d="M448.46484 339.5h.83204v5.73828h3.1953v.74219h-4.02734V339.5"/><path fill="#ff3030" fill-rule="evenodd" d="M215.83594 338.9375h7.69531v-10.14844h-7.69531v10.14844"/><path fill="azure" fill-rule="evenodd" d="M217.67188 330.625h.83203v5.73828h3.1914v.73828h-4.02344V330.625"/><path fill="#00f" fill-rule="evenodd" d="M370.48438 330.0586h8.62109v-10.14454h-8.6211v10.14453"/><path fill="azure" fill-rule="evenodd" d="M372.3164 321.7461h.83594v2.82421h3.28516v-2.82422h.83203v6.48047h-.83203v-2.91797h-3.28516v2.91797h-.83593v-6.48047"/><path fill="#ffffe0" fill-rule="evenodd" d="M219.73828 387.98828h22.17969v-10.1914h-22.17969v10.1914"/><path fill-rule="evenodd" d="M223.23438 379.6289h.51171v6.29688h-.78906v-4.49219h-1.38672v-.55468l.5586-.0625.2539-.0547.22656-.08983.20313-.14063.17578-.21094.14063-.29297.10547-.39843m4.8164 0l.22656.01953.21875.05469.21094.08984.19531.1211.1836.15234.17187.17578.30078.41797.2461.49218.17969.54688.10937.57812.03906.59375-.03906.59375-.10938.58204-.17968.55468-.2461.5-.30078.42969-.17187.17969-.1836.15234-.1953.125-.21095.08985-.21875.05859-.22656.01953-.23047-.01953-.21875-.0586-.20703-.08984-.19922-.125-.1836-.15234-.17187-.17969-.30078-.42969-.24219-.5-.17968-.55469-.11328-.58203-.03907-.59375h.83594l.02734.5625.08204.50391.125.44531.16406.375.1914.30078.21094.21875.22266.13672.22656.04688.22656-.04688.22266-.13672.21094-.21875.1875-.30078.16406-.375.125-.44531.08203-.5039.03125-.5625-.03125-.5625-.08203-.5-.125-.4375-.16406-.36329-.1875-.29297L228.5 380.5l-.22266-.1289-.22656-.04688-.22656.04687-.22266.12891-.21094.21484-.1914.29297-.16406.36328-.125.4375-.08203.5-.02735.5625h-.83594l.03907-.59375.11328-.57812.17969-.54688.24218-.49218.30078-.41797.17188-.17578.1836-.15235.19921-.1211.20703-.08983.21875-.0547.23047-.01952m5.08984 0h.50782v6.29687h-.78516v-4.49219h-1.38672v-.55468l.5586-.0625.25-.0547.23047-.08983.20312-.14063.17578-.21094.14063-.29297.10547-.39843m2.82421 2.17578h.78516l.01953-.3164.0625-.28517.09766-.2539.14062-.21485.17969-.17187.22266-.1289.26562-.08204.3086-.02734.23828.02344.22265.0625.20313.10156.17969.13672.14843.17187.11328.20703.07422.23438.02344.26562-.01953.26954-.0664.22265-.10938.1914-.15625.17188-.20313.16406-.2461.16407-.6328.39062-.53907.3125-.4375.3164-.34375.32423-.26562.33594-.1914.35156-.125.3711-.06641.39062-.02344.42187h4.21484v-.74219h-3.33594l.08594-.28515.11328-.23438.14844-.20312.1875-.17969.23047-.17188.27734-.17578.71875-.41406.41407-.20703.34765-.23047.27735-.25.22265-.26953.16016-.27734L240 382l.0625-.28516.01953-.28125-.03906-.3828-.1211-.34767-.1914-.30859-.25-.26172-.30078-.21094-.34375-.16015-.38281-.09766-.40625-.03515-.4336.03515-.39844.09766-.35547.16797-.30468.23437-.25.30078-.1836.375-.11718.44532-.03907.51953"/><path fill="#ffffe0" fill-rule="evenodd" d="M341.74219 362.22266h22.1836v-10.19532h-22.1836v10.19532"/><path fill-rule="evenodd" d="M345.24219 353.86328h.51172v6.29297h-.78907v-4.48828h-1.38671v-.55469l.55859-.0664.2539-.0547.22657-.08984.20312-.14062.17578-.21094.14063-.29297.10547-.39453m4.8164 0l.22657.01563.21875.05859.21093.08984.19532.1211.18359.14844.17188.17578.30078.41796.24218.4961.1797.54297.11327.58203.03906.58984-.03906.59375-.11328.58203-.17969.5547-.24218.5039-.30079.42578-.17187.17969-.1836.15625-.1953.12109-.21094.09375-.21875.05469-.22657.01953-.23046-.01953-.21875-.05469-.20704-.09375-.19921-.1211-.1836-.15624-.17187-.1797-.30079-.42577-.24218-.5039-.17969-.5547-.11328-.58203-.03906-.59375h.83593l.02735.5625.08203.50781.125.44141.16406.375.1914.30078.21094.22266.22266.13672.22656.04687.22657-.04687.22265-.13672.21094-.22266.1875-.30078.16406-.375.125-.4414.08203-.50782.03125-.5625-.03125-.5625-.08203-.5-.125-.4336-.16406-.36718-.1875-.29297-.21094-.21484-.22265-.1289-.22657-.04688-.22656.04687-.22265.1289-.21094.21485-.1914.29297-.16407.36719-.125.4336-.08203.5-.02735.5625h-.83593l.03906-.58985.11328-.58203.17969-.54297.24219-.4961.30078-.41796.17187-.17579.1836-.14843.19921-.1211.20704-.08984.21875-.0586.23046-.01562m5.08985 0h.50781v6.29297h-.78516v-4.48828h-1.39062v-.55469l.5625-.0664.25-.0547.23047-.08984.20312-.14062.17578-.21094.14063-.29297.10547-.39453m2.82422 2.17188h.78515l.01953-.3125.0586-.28907.10156-.25.14063-.21875.17968-.17187.22266-.1289.26562-.08204.3086-.02734.23828.02344.22265.0625.20313.10156.17969.13672.14844.17578.11328.20312.07421.23828.02344.26172-.01953.26953-.0664.22657-.10938.1914-.15625.17188-.20313.16015-.24609.16797-.63281.38672-.53906.3125-.4375.32031-.34375.32422-.26563.33594-.1914.34766-.125.37109-.06641.39453-.02344.41797h4.21485v-.74219h-3.33594l.08594-.28125.11328-.23828.14843-.19922.1875-.1836.23047-.16796.27735-.17578.71875-.41797.41406-.20703.34375-.23047.28125-.25.22265-.26563.16016-.28125.11328-.28125.0625-.28515.01953-.28125-.03906-.38281-.1211-.34766-.1914-.3086-.25-.26562-.30078-.21094-.34766-.16015-.3789-.09766-.40625-.03125-.4336.03125-.39843.09766-.35547.16797-.30469.23437-.25.30469-.1836.375-.11718.44531-.03906.51563"/></g></defs><use xlink:href="#Y"/></svg>