<svg xmlns="http://www.w3.org/2000/svg" role="img" xmlns:xlink="http://www.w3.org/1999/xlink" viewBox="142.45 309.95 326.84 171.84"><defs><clipPath id="a"><path d="M144 420h1v60.32813h-1zm0 0"/></clipPath><clipPath id="b"><path d="M144 311.67188h1V407h-1zm0 0"/></clipPath><clipPath id="c"><path d="M144 311.67188h324v168.65625H144zm0 0"/></clipPath><clipPath id="d"><path d="M467 311.67188h1v168.65625h-1zm0 0"/></clipPath><clipPath id="e"><path d="M144 477h3v3.32813h-3zm0 0"/></clipPath><clipPath id="f"><path d="M154 478h7v2.32813h-7zm0 0"/></clipPath><clipPath id="g"><path d="M167 477h7v3.32813h-7zm0 0"/></clipPath><clipPath id="h"><path d="M181 477h6v3.32813h-6zm0 0"/></clipPath><clipPath id="i"><path d="M195 477h5v3.32813h-5zm0 0"/></clipPath><clipPath id="j"><path d="M208 476h5v4.32813h-5zm0 0"/></clipPath><clipPath id="k"><path d="M221 477h6v3.32813h-6zm0 0"/></clipPath><clipPath id="l"><path d="M234 477h6v3.32813h-6zm0 0"/></clipPath><clipPath id="m"><path d="M247 477h7v3.32813h-7zm0 0"/></clipPath><clipPath id="n"><path d="M260 478h8v2.32813h-8zm0 0"/></clipPath><clipPath id="o"><path d="M274 478h7v2.32813h-7zm0 0"/></clipPath><clipPath id="p"><path d="M287 477h7v3.32813h-7zm0 0"/></clipPath><clipPath id="q"><path d="M301 477h6v3.32813h-6zm0 0"/></clipPath><clipPath id="r"><path d="M315 476h4v4.32813h-4zm0 0"/></clipPath><clipPath id="s"><path d="M327 478h7v2.32813h-7zm0 0"/></clipPath><clipPath id="t"><path d="M332 478h2v2.32813h-2zm0 0"/></clipPath><clipPath id="u"><path d="M341 477h6v3.32813h-6zm0 0"/></clipPath><clipPath id="v"><path d="M354 477h6v3.32813h-6zm0 0"/></clipPath><clipPath id="w"><path d="M369 476h3v4.32813h-3zm0 0"/></clipPath><clipPath id="x"><path d="M380 478h7v2.32813h-7zm0 0"/></clipPath><clipPath id="y"><path d="M393 477h8v3.32813h-8zm0 0"/></clipPath><clipPath id="z"><path d="M406 478h8v2.32813h-8zm0 0"/></clipPath><clipPath id="A"><path d="M406 480h3v.32813h-3zm0 0"/></clipPath><clipPath id="B"><path d="M420 478h8v2.32813h-8zm0 0"/></clipPath><clipPath id="C"><path d="M418 480h3v.32813h-3zm0 0"/></clipPath><clipPath id="D"><path d="M433 478h8v2.32813h-8zm0 0"/></clipPath><clipPath id="E"><path d="M431 480h4v.32813h-4zm0 0"/></clipPath><clipPath id="F"><path d="M447 477h7v3.32813h-7zm0 0"/></clipPath><clipPath id="G"><path d="M460 478h7v2.32813h-7zm0 0"/></clipPath><clipPath id="H"><path d="M460 480h2v.32813h-2zm0 0"/></clipPath><clipPath id="I"><path d="M144 464h3v6h-3zm0 0"/></clipPath><clipPath id="J"><path d="M144 450h3v7h-3zm0 0"/></clipPath><clipPath id="K"><path d="M144 436h2v8h-2zm0 0"/></clipPath><clipPath id="L"><path d="M144 424h3v6h-3zm0 0"/></clipPath><clipPath id="M"><path d="M144 412h4v3h-4zm0 0"/></clipPath><clipPath id="N"><path d="M144 396h1v9h-1zm0 0"/></clipPath><clipPath id="O"><path d="M144 383h2v8h-2zm0 0"/></clipPath><clipPath id="P"><path d="M144 370h3v7h-3zm0 0"/></clipPath><clipPath id="Q"><path d="M144 357h2v7h-2zm0 0"/></clipPath><clipPath id="R"><path d="M144 345h4v5h-4zm0 0"/></clipPath><clipPath id="S"><path d="M144 332h4v3h-4zm0 0"/></clipPath><clipPath id="T"><path d="M466 331h2v3h-2zm0 0"/></clipPath><clipPath id="U"><path d="M144 318h4v5h-4zm0 0"/></clipPath><clipPath id="V"><path d="M465 317h3v3h-3zm0 0"/></clipPath><g id="W" clip-path="url(#clip1)"><path fill="#fff" fill-opacity="0" fill-rule="evenodd" d="M0 0h1000v1000H0zm0 0"/><path fill="#d3d3d3" fill-opacity="0" fill-rule="evenodd" d="M162.15234 355.86719l-.23437.29297.0586.23437.11718.17188.17578.23437.29297.34766.11328.0586.11719-.17188.0586-.23438.17577-.17578.46485-.17578h.69922l.23437.29297.28906.8164.0586.17579.17578.23046.35156.23438.69922.69922.17188.17578.23437.34765.23438.41016.28906.58203.41015.46485.23047.23437.23438.17578.11719.23047.17578.29297.17187 1.16406v.23438l.0586.28906.05859.11719.11719.11719.34765.41015.11719.17188.17578.17578.17578.23437.11719.17188.17188.35156.05859.23438.23437.40625.23438-.0586-.17578.17578-.0586.92969h-.58203l-.23437-.11328-.34766.11328-.11719.11719-.05859.29297-.0586.17578-.11718.17187-.46484.29297-.0586.23438-.0586.11328v.64453l.0586.17187v.41016l.0586.0586v.40624l.05859.40625.11719.17579.05859.05859.23047.64062-.0586.29297v.69922l-.05859.58203v.23438l-.0586.23047-.05468.35156v1.92187l.05469.1172h.42578l-.36719.11718-.02344.35156.89063 1.16797 1.74219.53906 1.33984.35938v.53906l.08984.8086.53516.71484 1.51953.26953.89063-.08594.08984 1.16406.53516.1797 1.16015-.1797 2.05469-.98437 1.16016-.36328 1.8789-.17578 1.69531-.1797-.17968.71876-1.51563.08594-1.25.08984-.80469.26953-1.07421.8086.26953.71875.53515.89843-.17968.625-.26563.8086.26563 1.07812.625.89844.80468.17969 1.25-.1797-.26562.72267.09766.5039.05468.29297v.17188l.0586.29296v.40625l.17578.1172.35156.11718h.40625l.29297-.17578.11328-.11719.0586-.11719.11718-.23047.0586-.17578.35156-.46484.23047-.17578.17578-.0586.17578.0586.0586.17578.11718.98828.05469.46875.0586.17188.11718.23437.17578.0586.8164.05859h.28907l.11719.23437.05859.40625.0586.35156v1.10547l.11718.29297.11719.34766.28906.69922.17578.35156.58203.7539.35157.17579.17187.0586.46875.23437.64063.46484.34765.23438.29297.17578.29297.05468.23047.0625.8164.34766.29297.17578.11328.17188.35157.35156.11719.17578.52343.64063v.28906l.0586.35156v.34766l.05859.35156.0586.28906.11718.0586.17188.05859h.17578l.58203.23437.17578.1172.17578.28905.17578.23438.11328.23437.29297.23047.11719.11719v.41016l.0586.05468.28906.23438.23437.11719.0586.11718.11718.17188.0586.11719.23047.23437.05859.17578.23437.0586.1172.05859-.1172.11328-.05859.11719v.11719l-.11719.29296-.11719.28907v.58203l.17579.11719.11718.05859.0586.11719.11719.11719.11328.05859.17578.34765.0586.35157.05858.40625v.17578l-.05859.17578-.11719.69922v.17187l.1172.17579.29296.29296h.40625l.17578.1172.11719.17187.11719.29296v.23438h-.52735l-.23047-.23438h-.23437l-.17578.0586-.0586.69922.0586.34765.11719.17579.17578.41015.11718.23047.28907.46875.17578.05469h.52344l.23437.0586.75781.64062.0586.29296v.23438l.05859.0586.23047.34765v.35156l-.11719.17188v.29297l.29297.28906.29297.17578.17187.0586.29297.17577.29297.1172.58203.40624.28906.23438.29297.17578.21875.16015.01563.01172.23047.17579.64062.52343.17578.23438.1172.17578.17577.17578.11328.17188v.64062l.1172.17578.46874.11719.58203.11719.23438.05859.23047.11328.29297.11719.11328.0586.58593.35156.28907.17187.17578.0625.17578.05469.17578.0586.69922.35155.28906.17579.23438.05468.28906.17578.23437.1172.64063.40624.29297.11719.17187.0586.23438.05859.41015.05859.23047.0586.23438.11718.0586.17188-.41017.17578.46875.0586.0586.29296.11328.23438.17578.05468.23438.0586.17578.05859.40625.11719.64062.23437.11719.17188.0586.23437v.17578l-.0586.1172-.0586.40624.23438.23438.11719.05859.34766.11719.64062.23047.17578.11718.28906.1172.17578.17577.23438.46485.58203 1.10546.17578.17579.34766.17578.17578.11719.35156.11718 1.04688.52344.23437.0586.46485.11327.29297.0586.46484.17578.75781.58203.23438.23438.34765.46484.17578.17578.28907.23438.8164.69921.29297.17579.28906.28906.29297.17578.29297.28906.69531.64063.17578.17578.29297.23437.28907.23438.46875.28906.64062.58203.34766.23438.23437.29297.34766.34765.35156.46485.9336.99218.34765.40625.11719.17579.23437.05859.11328.11719.64454.17578.23047.11328.23437.0586.29297.17577.23047.1172.9336.69921.40624.40625.23438.17578.40625.17578.23437.11719.8164.34766.34766.23437.23438.11719.29297.28906.23047.11719.7578.35156.35157.17188.23047.05859.29297.11719.23437.0586.8711.17577h.8164l.46875.23047.17188.0586.875.69921.46484.1172.29297.05858.17578.0586.23047.0586.46875.05859.34766.05859.35156.0586.40625.05859h.29297l.17187.0586v.23046l.17578.17578h.29297l.34766.0586.35156.05859.69922.11719h.64063l.46484-.23438.29297-.17578.17187-.11719.41016-.17187.28906-.17578.9336-.46485.46875-.29297.52343-.29296.46485-.17188.46484-.17578 1.05078-.46485.28906-.11718.41016-.11719.28906-.11719.52735-.17578 1.51562-.69922.58203-.34765.28907-.0586.29297-.0586.34765-.11718.875-.23047.35156-.11719h.11329l.23437-.05859.875-.23437.23438-.0586h.8125l.35156-.0586.8164-.11718.17188-.0586.35156-.05468.29297-.0586.23047-.05859.8164-.17578.17579-.0586h.34765l.23438-.05859.46484-.11718.75781-.17188.23438-.0586h.34765l.41016-.11718.28906-.0586 1.28516-.05859h.28906l.41016-.0586.23047-.05858h.17578l.875-.1172h.40625l.41015-.11718h.34766l.35156-.11328.8711-.0586h1.75l1.04687.28907.41016.11719.28906.11718.35156.11719.28907.11719 1.05078.17187.28906.0586h.29297l.29297.05859.17187.0586.41016.05859.17187.0586.1172.05858h.11718l.11719.0586.35156.0586h.11328l.41016.0664 1.92187.39453 1.92578.39453 1.51953.44922 1.69532.71875 2.14453.80469 1.60547-.71875 1.42968-.80469 1.16016-1.07813 1.25-.44921 3.03516-.71875 1.875-.35938 2.14453-1.34765 2.23437-1.25391 2.5-1.25781 1.69531-.44922 1.78516-.17969 1.16016-.26953.625.53906 1.33984-.26953.71485-.98828.98437-1.34375.44531-.17969.80469-.35937 1.875-.53907 1.78516-.44921 1.25-.26954 1.16015-.08984 1.69922-.08984 1.96094-.26954 1.25-.08984h.53906l.625-.08984h.89063l2.14453-.17969 2.41015-.17969 2.58985-.08984 1.69531.17969 1.60938.08984 1.42968.35938 1.16016.71875 1.875.98828 1.16015 1.52734.26563.71484.6289.08985.35548.89844.53515.53906.53516 1.52734 1.07422.35938h.53515l-.80469.53515.08985 1.70703.71484 2.69532.89063.80468.89453.98829.71484 1.2578 1.78516.53907 1.51953-.17969.35547 1.34375 1.60937-.80469.98047-.53906.26953.26953.31641-.21484.21875-.14453.80078.44922.44922-.35938h.35547l.53515-.26953.53907-.71875.53515-.26953.625-.98828 1.16016.44922.83984.3711 1.39454.61718 1.6953-.17969h1.60548l1.78515.08985.17969-1.70704.53516-1.34375.80468.26954.4922.84765.40233.40625-.08984.53906v.35938l.71485.44922.71093-.26953h1.42969l.35938.98828.4453 1.25781.71485 1.34375 1.25.6289 1.69531.62891.71485-.17969.17969-.53906.98046-.08984.44922.35937.08594 1.25782-.26563.6289-.53515.17969v.53906l.71484.98438.26563.53906.98437.98828.80078 1.07813-.26562.35937-.08985.89844-.625 2.33203-.35546 2.0664-.08985 1.79298-.17969.71875-.08984.53906v1.4375l-.98047 1.88281-.35937 1.70703-.53516.89844-.80469 1.16797-.26562.53906 2.05469 1.2539.08593.35938-.35546.53906-.08985-.17968v.80859l.08985 1.4375-.44532.71484-1.07422.09375-.26562.71485.53515.89844.8047.71875 1.16015.80859 1.33984.26953.44531.35938-.35546.44921-1.78907-.08984-1.25-.44922-.71484-.71875-.625-.08984-.17578 3.58984-.1875 1.3086h89.35937V311.70313h-55.26953v49.08203l.76172.125 3.28906.54296 2.02344 2.83594v2.7539l2.35156.33204 2.34766.33203h4.05078l-1.3789 4.16016-2.02344.70703-2.02344.70312-.54297.34375-2.59375 1.6172-.1875.11718-2.02344-2.07813-.73046-2.74218-2.67188-2.07813-1.375-3.5-.0664-.08203-1.95704-2.67188 2.75-1.41796v-49.08204H294.42187v91.41407l.1172.03125.1328.01172.07422.07421.10547.04688.08985.0586.08593.05859.08985.0586.29687.29687.0586.08984.03125.11719.02734.11719.01563.13671-.03125.1172-.0586.08983-.0586.08594-.04296.10547-.04688.10156-.02734.1211v.14453l.17578.26953.14844.14844.07422.08594.07422.07421.04296.10547.0625.08985.0586.08593.04297.10547.0586.08985.04687.10156.04296.10547.0586.08594.11719.17968.07421.07422.0625.08594.0586.08984.04297.10547.0586.08985.05858.08593.0625.08985.0586.08984.04297.10156.11719.17969.07421.07422.0586.08594.07422.07421.08984.0586.10547.04687h.14844l.1328-.01562.13282.01562.10156-.04687.07422-.07422.04688-.10156-.01563-.13281v-.14844l-.04687-.10547-.02735-.11719-.04687-.10156-.02735-.1211-.04296-.10156-.0625-.08984-.04297-.10156-.04297-.10547-.03125-.11719-.01563-.13281-.01171-.13672.08593-.0586.0586-.08593.12109-.03125.04297.10547.01562.1328v.1172l.0586.10156.0586.08984.08983.0586.14844.14843.0586.08985.04296.10547-.01171.10156.08593.0586.10547.04687.08594.0586.08984.05858.07422.07422-.11719.02735-.10546.04687-.08594.0586-.07422.07421-.0586.08985-.0625.08594-.02734.12109-.04687.10156-.04297.10547-.03125.11719-.01172.13281-.01563.13281v.14844l.02735.11719.04687.10547.04297.10156.0586.08984.07421.07422.08985.0586.07422.07421.08984.0586.0586.08984.04296.10547.04688.10156.11719.03125.1328.01563h.14845l.11718-.03125.10547.04297.04297.10547.04688.10156.02734.1211L299.5 410l.02734.11719.03125.1211.02735.11718.10547.04297.10156.04687.13281-.01562.14844.14844.0625.08593.07422.07422.07031.07422.08984.0625.10547.04297.10156.04297.1172.03125.13671.01562.11719-.03125.07422-.07422.02734-.11718-.01172-.13282-.03125-.12109-.02734-.11719.04297-.10547h.11719l.08984.0625.11719.02735h.14843l.13282.01562h.14843l.13282.01563.1328-.01563h.14845l.1328-.01562.13282-.01172.13672.01172.11719-.02735.13281-.01562.1914-.0586-.05859.17579-.01562.1328-.02735.1211-.01562.13281-.0586.08594-.1328.01563-.10548.04687-.10546.04297-.1172.03125-.11718.02735-.26563.03125h-.14843l-.13281.01562-.07422.07422.05859.08594.14844.14843.11719.1797.07421.0703.08985.0625.08984.0586.08594.0586.08984.05858.10156.04297.10547.0625.10547.04297.08594.0586.10547.04687.10156.04297.17969.11719.0586.08984-.04298.10156-.04687.10547.01562.13281.22266.22266.0586.08985.04296.10156.03125.1211.04297.10155.01563.13282.03125.11718.01171.13672.03125.11719.14844.14844.10156.04297.10547.04296.1172.03125.1328.01563.13672.01563h.11719l.11719-.03125.08984-.0586.04297-.10547.04688-.10156.04296-.10547.03125-.11719.01172-.1328v-.14845l-.01172-.1328-.01562-.13282-.03125-.11719-.04297-.10547-.04688-.10547-.04296-.10156-.04297-.10547-.01563-.13281.01563-.13281.02734-.11719.03125-.11719.02735-.1211.04687-.10155.08984-.0586.08594-.0625.07422-.07422.08984-.05859.22266-.22266.0586-.08593.07421-.07422.11719-.17969.0586-.08594v-.14844l-.07423-.07421-.10156-.04688-.10547-.04297-.10156-.04297-.0586-.08984-.04687-.10547-.02734-.11719.08984-.05859.11719-.03125.10156-.04297.17969-.11719.14844-.14843.01172-.13282-.01172-.10546-.08985-.0586-.1328.01563h-.14845l-.1328.01562-.13282-.01562-.1211-.03125-.08593-.0586-.07422-.07422-.0586-.08984-.0625-.08594-.11718-.17969-.0586-.08593.03125-.1211.08594-.05859.1211-.03125.05859-.08594v-.1211l-.03125-.11718-.0586-.08984-.05859-.08594-.04687-.10547-.02735-.11719-.01562-.1328.0586-.08985.07421-.07422.08984-.0586.1172-.17968.07421-.07422.0586-.08594.14843-.14844.1211-.03125.1328-.01562.13282.01562.07422.07422.04297.10547.01562.13281-.03125.1172-.11719.03124-.1328.01172-.14844.14844-.04297.10547-.04688.10156-.02734.1211-.03125.11718v.14844l.03125.11719.04297.10546.05859.08985.07422.07031.07422.07422.11719.03125.12109.02734.11719-.02734.1328-.01563h.1172l.08984.0586.07422.07422.04687.10546.0586.08594.10156.04688.13281.01562.10547.04297.08594.0586-.01172.10546-.07422.07422-.17969.11719-.05859.08984-.08984.0586-.07032.07422-.07421.07421-.0625.08985-.02735.11719-.01562.1328.01562.13282-.01562.13281v.14844l.01562.13281.02735.1172.03125.12108.07421.07422.08985.0586.08594.0586.08984.05858.11719.03125v.08594l-.10157.04688-.08984.0586-.26563.03124-.11718.02735h-.14844l-.10547.04296-.10156.04688-.0586.08984-.0625.23438-.01171.13281-.03125.1211-.01563.1328v.29298l-.01172.1328.01172.13673.01563.1328.1328.01563.13282.01172.1211.03125.08593.0586.07422.07421.04688.10547.04296.10157.01563.1328v.44532l-.01563.13281v.44532l.03125.26562.02735.11719.01562.13281.03125.11719.08594.21094.03125.26562v.14844l-.03125.11719-.02734.11718-.03125.1211-.02735.11719-.03125.11718-.03125.1211-.01171.1328-.01563.13282.08984.0586.1172-.03125.10155.01562.04688.10547-.03125.26562v.44141l-.04297.10547-.04688.10547-.04296.10156-.04297.10547-.0586.08594-.03125.12109-.04296.11719-.03125.11719-.01563.1328.01563.13282.05859.08984.10547.04688.08594.0586.05859.08593-.01172.13672-.03125.11719-.04297.10156v.44531l-.01562.13281v.14844l-.03125.11719-.04297.10547-.02735.11719-.04687.10546-.04297.10157-.03125.12109-.02734.11719-.03125.13281-.03125.11719-.02735.11719-.04297.10546-.03125.1172-.03125.12108-.01171.13282-.01563.13281v.29688l.02734.11718v.14844l.04688.39844.02734.11719.0586.08984.12109.03125h.14844l.13281-.01563.0586.08985v.11719l-.0586.08984-.08984.0586-.10157.04296-.10546.04688-.08985.05859-.08594.0586-.13671.01562-.1172-.03125-.1328-.01563-.10157.04688-.0625.08594-.01172.13671-.01562.13282-.03125.11719-.02735.11718-.01562.13281-.03125.1211v.29687l.01563.13282.03125.11718v.14844l.01171.13281v.14844l-.02734.11719-.04688.10156-.02734.1211-.03125.11718-.0586.08985-.07421.07421-.10156.04297-.10547.04688-.11719.02734-.1211.03125-.10156-.04687.0586-.08594.10547-.04688.02734-.11718.03125-.11719.02734-.1211.03125-.11718v-.14844l.01563-.13281-.03125-.11719-.04297-.10547-.10547.01563-.07422.07422-.10156.04296-.08984.0625-.07422.07422-.04297.10157-.01563.1328-.03125.1172L304.25 426l-.03125.11719-.02734.11719-.03125.12109-.02735.11719-.03125.11718-.04297.10547-.08984.0586h-.08984l-.1172-.03125-.03124-.08594.01562-.13672-.03125-.11719v-.14844l-.01171-.1328v-.14844l-.0625-.23438-.02735-.1211-.04297-.10156-.04687-.10546-.0586-.08594-.05859-.08985-.04297-.10546-.0625-.08594-.14844-.14844-.0703-.07422-.10548-.04687-.10547-.04297-.10156-.04297-.29687-.29688-.08985-.07421-.08594-.0586-.10546-.04297-.08985-.0625-.08594-.0586-.10546-.04296-.08985-.0586-.08594-.0625-.07421-.0703-.10547-.04688-.08594-.0586-.10547-.04296-.08984-.0625-.10156-.04297-.10547-.04297-.08594-.0586-.10547-.04687-.10547-.04297-.10156-.04687-.08985-.0586-.10156-.04297-.10547-.04296-.08984-.0625-.11719-.02735-.13281-.01562-.13281.01562H299.75l-.13281.01563-.11719-.03125-.08984-.0586-.07422-.07422-.08985-.05859-.10156-.04688h-.14844l-.12109-.02734-.10156-.04297-.07422-.07422-.11719-.17968-.08984-.0586-.10156-.04297-.08985-.0625-.10547-.04296-.08984-.0586-.08594-.0586-.10547-.04687-.0586-.08594-.05858-.08984-.04297-.10547-.04688-.10156-.07422-.07422-.08594-.0586-.07421-.07421-.08985-.0586-.22265-.22265-.04297-.10547-.03125-.26563.10547-.04296h.14453l.10547.04296.07421.07422.08985.0586.08594.0586.10546.04687.08985.05859.14844.14844.0703.07422.14845.14843.0625.08594.07421.07422.08594.0586.07422.07421.08985.0625.08984.0586.08594.05859.26953.17578.10156.04688.10547.04296.10156.04297.04688-.07421.05859-.08594.07422-.07422.07031-.07422.10547.04297.07422.07422.0586.08984.04296.10156.04688.10547.04296.10547.1211.02735.11719-.02735.07421-.08984.04297-.10547.0586-.08985.07422-.07421.10546-.04297.1172-.02735.1328.01172.08985.0586.14844.14843.05859.08985.04297.10547.04687.10156.04297.10547.04297.10156.10547.04688.10547.04296.13281.01563.08594-.0586.0586-.08984.07421-.07422.10547-.04297.11719.02735.10547.04687.10156.04297.10547.04297.10156.04688.17969.11718v.11719l-.01563.13281.01563.13281.01562.13672.0586.08594.10156.04688.1211.02734.11718.03125h.14844l.11719-.03125.05859-.08984.17969-.1172.05859-.08983.07422-.07422.0586-.08594.11718-.17969.17969-.11719.11719.03125.08984.0586.04297.07422-.01563.1328v.1172l.08985.05859h.14843l.13282-.01563.1328-.01171.26563-.03125.10547-.04297.11719-.03125.1211-.02735.07421-.07421.07031-.07422.0625-.08985-.01562-.10547-.04688-.10156-.10156-.04297-.10547-.01562-.11718.02734-.26563.03125h-.14844l-.07421-.07422-.08985-.0586-.11719-.03124-.11718-.02735-.13282-.01562h-.14843l-.13282.01563h-.29687l-.10547-.04688-.14844-.14844-.04297-.10156-.05859-.08984.22266-.22266.08593-.0586.10547-.04296.11719-.03125.13281-.01563.13281.01563.13672.01562.10157.04297.1328-.01172.08985-.0625.10156-.04297.0625-.08984-.04687-.10156-.08984-.0586-.1172-.03125-.10155-.04296-.0586-.08985-.0625-.08984v-.11719l.01563-.13281.10547-.04688.07421-.07031v-.1211l-.08984-.05859-.03125-.11719.08985-.05859.07421-.07422.04297-.10547.0586-.08984.04687-.10156.01563-.13281v-.14844l-.04688-.10547-.04297-.10156-.08984-.0586-.13281-.01562-.10157-.04297-.13671-.01563-.1172-.03125h-.4453l-.13282-.01562-.13281-.01172-.13281-.01563-.11719-.03125h-.14844l-.13281-.01562-.13281-.01172-.26563-.03125-.1211-.04297-.08593-.0586-.07422-.07421v-.14844l.01172-.13281.10547-.04688.10156-.04296.13281-.01563h.15235l.13281-.01562h.29297l.1211.03125.10156.04296.08984.0586.23438.0625.12109-.04688.08984-.05859.10156-.04297.13282-.01562.10547.04296.10156.04688.13281.01172.1211-.02735h.14453l.12109-.03125.11719-.02734.10547-.04687.07421-.07422.08594-.0586.14844-.14843.0586-.08594.04687-.10547.02734-.11719.01563-.10547-.10156-.04296-.08985-.0586-.11719-.03125-.10546-.04297-.08985-.0625-.07422-.08594-.07422-.07421-.10156-.04297-.10547-.04688-.10156-.04297-.0586-.08984-.04687-.10156-.08594-.21094-.0625-.08594-.05859-.08984-.07422-.07422-.08594-.0586h-.26953l-.11719.03126-.08984.05859-.10156.04297-.13281.01562-.10547-.01562-.02735-.11719-.0625-.08984-.11718-.03125-.10157-.04297-.14843-.14844-.03125-.11719-.01563-.10546.07422-.07422.17969-.1172.11719-.02733.11718-.03125.13672.01562.10156.04297.10547.04297.10156.04687.10547.04297.1172.03125.1328.01563.1172.02734.1328.01563.10547-.01563.08985-.0586-.07422-.07421-.10547-.04297-.07422-.07422-.07422-.08984-.14844-.14844-.08593-.0586-.08985-.05859-.07422-.07422-.08984-.0586-.10156-.04687-.1211-.02734-.10156-.04688-.10547-.04296-.11719-.03125-.10156-.04297-.1211-.03125h-.14843l-.11719.03125-.10546.04297-.08594.0625-.17969.11718-.08594.0586-.08984.0586-.10547.04687-.08594.05859-.10547.04297-.10156.04297-.10547.04687-.07422.07422-.05859.08985-.0586.08593-.04687.10547-.0586.08594-.07421.07422-.13281-.01172-.1172-.03125h-.11718l-.07422.07422-.08984.0586-.07422.07421-.08984.0586-.08594.05859-.10547.04687-.10156.04297-.13672.01563-.10156-.04297-.14844-.14844-.10547-.04688h-.08594l-.10547.04688-.10156.04297-.1211.03125-.11718-.03125-.07422-.07422v-.11719l.03125-.1211.07422-.0703.0586-.08985.07421-.07422.11719-.03125.10547-.04296h.29297l.13281-.01563.13672-.01563.10156-.04296.08985-.0586.10156-.04687.08984-.0586.13281-.01171.08985.05859.13281.01172.08984-.0586.08594-.05859.10547-.04297.08984-.0586.08594-.0625.08985-.05859.14843-.14843.0586-.08594.05859-.08985.10547-.04296.13281-.01563.11719.02735.1211.03125.05859-.0586.05859-.08984.03125-.26563.02734-.11719.10547.01172.13281.01563.10157-.04297.08984-.0586.0586-.08984.07421-.07422.0586-.08984.04687-.10156.01172-.13281-.01172-.13282-.04687-.10547-.14844-.14843-.0586-.08985-.05859-.08594-.04297-.10546v-.44532l.01563-.1328v-.14845l.01172-.1328-.0586-.0586-.08984.0586-.10156-.04298-.17969-.11719-.08594-.05859-.0625-.08984-.0586-.08985-.07421-.07421-.08594-.0586-.1211.03125-.10155.01172-.10547.04688-.08594.05859-.10547.04297-.14844.14844-.08984.05859-.08594.0586-.08984.0625-.10547.04296-.13281.01563v-.1211l.10547-.04297.11718-.03125.07422-.0703.04297-.10548v-.14844l-.02734-.11718-.14844-.14844-.13281-.01563h-.14844l-.11719.03125-.10547.04297-.10156.04297-.08984.0625-.11719.02735-.07422-.07422.01172-.13281-.04297-.10157-.04297-.10547-.08984-.05859-.11719.02734-.1211.03125-.11718.03125-.10156.04297-.1211.03125-.10156.04297-.10547.04297-.08984.0586-.10156.01562v-.11719l.01562-.13281-.0586-.08985-.07421.04297-.14844.14844-.0586.08985-.07421.07421-.04688.10547-.04296.10156-.07422.07422-.0586.08985-.07422.07422-.05859.08593-.07422.07422-.08984.0625-.07422.07031-.07422.07422-.10156.01563-.13281.01562-.10547-.04296v-.1211l.14843-.14844.04297-.10156.0586-.08984.04687-.10156.04297-.10547.0586-.08985.03124-.11719.04297-.10156.03125-.1211.02735-.11718.04687-.10547.04297-.10156.04297-.10547.07422-.07031.08984-.0625.08985-.0586.10156-.04296h.29687l.26563-.03125.10547-.04297-.07422-.07422-.11719-.03125-.10547-.04297-.08984-.0586-.10156-.04687-.08985-.0586-.10156-.04296-.10547-.04297-.08984-.0625-.08594-.0586-.10547-.04296-.10156-.04297-.1211-.03125-.11718-.03125-.10157-.04297L297.5 410.25l-.10156-.04297-.08985-.0586-.04296-.10546-.01563-.13281.10156-.04297.13281-.01563.13672.01563.13282-.01563.10156-.04297.0586-.08984.01562-.10547-.08985-.0586-.07421-.07421-.10157-.04297-.08984-.0586-.14844-.14843-.04297-.10547-.01562-.13281v-.29297l-.0586-.08985-.08984-.05859-.07422-.07422-.04297-.10547-.03125-.11718-.0586-.08985-.07421-.07422-.11719-.02734-.07422-.07422-.08984-.0586-.08984-.0625-.08594-.05859-.07422-.07421-.0586-.08594-.04687-.10547-.08594-.0586-.14843-.14843-.19532-.0586-.1328.01563-.10157.04297-.07422.07422-.04688.10156-.04296.10547-.0586.08984-.0586.08594-.29687.29687-.08984.0586h-.08594l-.0625-.08594-.04297-.10547.03125-.11719.0586-.08984.02734-.11719-.01172-.13281-.08984-.0625-.10547.04688-.11719.02734-.11719.03125-.26953.17578-.10156.04688-.11719.02734-.10546.04687-.08985.0586-.10156.04297-.0586-.08594-.04687-.10547.01563-.13281.04687-.10547.07031-.07422.07422-.07031.0586-.08985v-.14843l-.04297-.10547h-.23829l-.10156.04687-.03125.11719-.02734.11719-.03125.1211-.07422.04296-.13281.01563-.07422-.04688-.04297-.10156-.04297-.10547-.04687-.10156-.04297-.10547-.1211.03125-.10156.04297-.13281.01562-.11719.03125-.10547.04297-.08984.0586-.10156.04687-.1211.02734-.13281.01563-.10156-.04297-.0586-.08985-.04687-.10546-.04297-.10157-.04297-.10546v-.1172l.0586-.08984.08593-.05859.17969-.11719.10156-.04687.10547-.04297.10547-.0586.10156-.04296.08985-.0625.10156-.04297.10547-.0586.10156-.04687.08984-.0586.10547-.04296.10156-.04297.08985-.0625.10156-.04297.13672-.01563.11719.03125.10156.04297.1211.03125.10156.04297.10546.04688.10157.04296.10547.04297.10156.04688.10547.04297.10156.04297.10547.04687.08594.0586.10546.04296.1172.03125.10546.04297.10156.04688.08985.0586.10547.04296.10156.04297.10547.04687.11719.02735.10156.04687.1211.02735h.14843l.08594-.0586.01562-.10156.0586-.08984-.02735-.1172-.07422-.07421-.11719-.17969-.07421-.07422-.08985-.07421-.17969-.1172-.08593-.05859-.10547-.04296-.10156-.04688-.26954-.17578-.05859-.08985-.07422-.07421-.0586-.08985-.04296-.10156-.03125-.11719-.01563-.13672v-.5625l-.01171-.1328-.01563-.13282-.03125-.11719-.01562-.13281-.01172-.13281-.03125-.1211-.22266-.22265-.0586-.08594-.01562-.10547.03125-.11719.13281-.01562v-91.41406H172.9922v1.45312l-.0586.23438-.35156 1.05078-.17187.52343-.1172.34766-.17577.41016-.11719.17187-.23438.29297-.23046.0586h-.35157l-.11718.05859-.23047.40625v.29297l.11719.17578.23046.23047.1172.23437.64062.75781.29297.46485.17578.23437.23047.35156.23437.34766.64063.8164.17578.46485.17187.41016.11719.69531.17578.46875.11719 1.39844.0586.46484v.875l.11718 1.04688v4.78125l-.0586.46484-.35156 1.28125-.17578.52344-.11328.41015-.35156.9297L172.93359 336l-.23437.58203-.11719.17578-.17187.34766-.17578.40625-.35157.8164-.0586.29297-.11327.29297-.11719.28906-.0586.17579-.11718.875-.0586.40625-.05859.11718-.0586.17579-.05859.17187-.23047.52734-.11718.17188v.23437l-.11719.23438-.0586.17187-.17577.58594v.28906l-.0586.17579v.29296l-.0586.11329-.05859.52734v.17187l-.05468.23438v2.6211l-.17578.8164-.1172.17578-.17577.23438-.1172.17187-.11327.23438-.58594.93359-.23047.28906-.29297.46485-.17578.23437-.28906.35156-.35156.69922-.11328.23047-.17579.41016-.17578.23046-.40625.52735-.8164.69922-.29297.17187-.28906.23438-.17579.11719-.17578.17578-.52344.40625-.52734.17578-.17187.17578-.23438.05469-.64062.17578h-.75782m12.21094 31.02344l-1.07422.44921.35938.89454 1.25-.71485.44531-.53906-.98047-.08985"/><path fill="#d3d3d3" fill-opacity="0" fill-rule="evenodd" d="M201.50781 416.59766h-.89453l.44922.6289.98047.35938.80469-.08985.4453-.98828-.17577.08985-.71485-.35547-.89453.35547m154.6211 59.0703l-.0586-.52343v-.29297l.11328-.29297.0586-.23046.46875-.46875h.11328l.11719-.11329.11718-.05859h.17579l.23437-.0586h.34766l.23437.0586.11719.0586.23047.17187.0586.17578.11718.58203v.29297l-.11719.17578-.17187.28906-.17579.17579-.52734.52343-.23047.23438-.11719.0586h-.17578l-.11718-.0586-.40625-.29297-.17579-.11719-.11718-.0586-.0586-.11327-.05468-.1172m6.64062-10.95702l-.0586-.17188v-1.10937l.0586-.17188.17578-.0586.17188-.05858h.17578l.23437-.0586.1172.0586.05858.69921-.05859.17188-.11719.17578-.11718.0586-.23438.52343-.11328.0586h-.23438l-.05859-.1172m9.61328-14.39062l-.11719-.17578v-.69922l.29297-.875.1172-.17187.17577-.35156.11328-.23047.1172-.29297.35155-.75781.1172-.23047.17187-.23438h.17578l.11719-.0586h.64062l.11719.0586.23437.23438.17188.11328.35156.29297.11719.11718.11328.17579v.11328l.11719.05859.11718.11719v.69922l-.05859.17578v.23047l-.0586.17578-.34765 1.05078-.11719.23047-.11719.23437-.11718.0586-.23047.23437-.64063.28906h-.875l-.41015-.11718-.64063-.46485"/><path fill="none" stroke="#bebebe" stroke-linecap="round" stroke-linejoin="round" stroke-miterlimit="10" stroke-width=".5" d="M467.95703 311.69531H144.02734v168.625h323.9297v-168.625"/><g clip-path="url(#a)"><path fill="#fff" fill-opacity="0" fill-rule="evenodd" d="M144 475.89063v4.4375h.0039H144v-60.10547 55.66796"/></g><g clip-path="url(#b)"><path fill="#fff" fill-opacity="0" fill-rule="evenodd" d="M144 404.875v1.76172-94.96485h.0039H144V404.875"/></g><path fill="#50fcfc" fill-rule="evenodd" d="M144 416.04688v4.17578l.0039-.00391v-4.17969l-.0039.00781"/><path fill="#00e8fc" fill-rule="evenodd" d="M144 409.29688v6.75l.0039-.00782v-6.74219H144"/><path fill="#50fcfc" fill-rule="evenodd" d="M144 406.63672v2.66015h.0039v-2.66015H144"/><g clip-path="url(#c)"><path fill="#fff" fill-opacity="0" fill-rule="evenodd" d="M144.0039 480.32813v-60.10938l2.40626-2.02734.96093-4.4375-.46875-4.4375-2.89843-2.6797v-94.96483h75.44922v50.64843l-2.77735 2.61328-1.66016.47657-3.58593-.47657-.85547-.55468-.55469.55468-2.03906 4.4375-.46875 4.4375-.11328 4.4375-1.26172.42188-4.4375 1.29687-2.72266 2.71875 2.22266 4.44141-2.36719 4.4375 2.86719 2.9336 2.33203-2.9336 2.10547-1.51953 2.54687-2.91797 1.6211-4.4414.26953-.87891 3.08203.8789-1.45703 4.44141-.59766 4.4375 3.41406 3.91406 1.11329.52344 3.32422 3.28125.3828 1.15625-.3828 2.375-4.4375.77344-4.44141-1.11719-3.16797 2.40625-1.25 4.4414-.01953.06641-.15625-.0664-4.28125-1.21875-3.86719-3.22266-.57031-.42969-4.4414-2.05078-4.4375 1.08594-1.73048 1.39453-2.70703 1.5625-3.09765 2.8789-1.33985 1.14844-4.4414 2.36329-4.4375-2.25782-4.4375.51563-3.78516 2.66797-.65234.2539-3.91407 4.1836-.48828 4.4375-.03515.5664-4.44141 1.7461-1.83984 2.1289.22265 4.4375 1.61719 2.76953.23438 1.66797 1.2539 4.4375 2.95313 3.63672.625.80078 3.8125 3.23438 4.4375.66406 4.4375-1.54688 2.05859-2.35156 2.3789-1.53125 3.79688-2.90625.64453-.1914 4.4375-.21485 4.4375-.58594 4.23047-3.4453.20703-.03907 4.4414-.4375 4.34376-3.96094.09375-.07422 4.4375-1.40625 4.4375-2.42187 1.26172-.53516 3.17969-.3164 4.4375-.67579 4.4375.62891 4.4375-.83984 4.4375-.01563 4.08593 1.21875.35547.26953 1.57813-.26953 2.85937-.22265 3.70703-4.21875.66406-4.4375.06641-.65625 1.8125-3.78125 1.82031-4.4375-3.6328-3.41797-.59376-1.02344.59375-.875 2.97656-3.5625L250.42187 396l-2.96093-4.4375-1.3789-1.22656-4.4375-1.77344-1.91798-1.4375 1.91797-4.14063.70703-.30078 3.73047-1.3828 4.4375-.3125 1.25 1.6953 3.1875 2.5 4.4414.6875 4.4375-2.38671v20.26953l-1.33984 1.12109 1.33985 1.8789 1.64062-1.8789-1.64062-1.1211v-20.26952l.77344-.80079.12109-4.4375-.89453-.8789-.91406.8789-3.52344 1.20313-4.4414.70703-2.41407-1.91016-2.02344-4.125-4.4375 2.12891-3.11328 1.9961-1.32422 3.6914-.89844.7461-3.53906.79687-3.60547 3.64453-.83594.36719-1.46484-.36719-.48047-4.4414.08203-4.4375 1.59766-4.4375-3.92578-4.4375-.2461-.16798-4.4375-3.64062-1.41406-.6289-3.02344-2.61329v-50.64844h137.58985v125.58204l-4.4414 2.08593-1.81641 1.04297-2.6211.99219-3.45703 3.44531-.98047.89453-3.67187 3.54688 3.67187 3.91797.74219.51953 3.69531 2.69922 4.4375-.46875 3.59766-2.23047.84375-.38281 4.4375-1.0625 4.4375.55859.44531.88672 3.99219 3.32031 4.4375-1.30078 4.42187-2.01953.01954-.0039 4.18359-4.4336-2.74219-4.4414-1.4414-1.08985-4.44141-2.80078-1.88672-.54688-2.55078-2.0625-1.96485 2.0625-2.47265.97266-4.4375-.5-1.66406-.47266-2.77344-3.1289V311.67187H459.125v71.0547l-4.4414.09374-4.28516 4.30469 2.14453 4.4375.64453 4.4375-2.9414 1.42188-4.4375-.28907L444.3164 396l-2.9453-2.90234-.60157-1.53516-1.22656-4.4375-2.61328-2.07422-2.16016 2.07422-2.08594 4.4375-.1914.99219L430.48438 396l-2.4297 4.28125-.1875.15625.1875.14063 4.4375 2.78906 4.4375-2.3164 4.44141 2.46093 3.98047 1.36328.45703.5 1.96485 3.9414 2.47265 3.42579 4.4375-2.79297.63282-.63281-.63282-.79688-1.35156-3.64453-.21094-4.4375 1.5625-3.07813L456.03125 396l3.09375-1.09375 3.33984-3.34375.96485-4.4375-4.30469-4.39844v-71.05469h8.8711v168.65625H144.0039"/></g><path fill="#50fcfc" fill-rule="evenodd" d="M146.41016 418.1914l-2.40625 2.02735v-4.17969l1.07422-2.28515-1.0547-4.4375-.01952-.01954v-2.66015l2.89843 2.67969.46875 4.4375-.96093 4.4375"/><path fill="#00e8fc" fill-rule="evenodd" d="M145.07813 413.7539l-1.07422 2.28516v-6.74219l.01953.01954 1.05469 4.4375"/><path fill="#50fcfc" fill-rule="evenodd" d="M151.25781 431.50781l-.22265-4.4375 1.83984-2.1289 4.4414-1.7461.03516-.5664.48828-4.4375 3.91407-4.1836.65234-.2539 3.78516-2.66797 4.4375-.51563 4.4375 2.25781 4.4414-2.36328 1.33985-1.14843 3.09765-2.87891 2.70703-1.5625 1.73047-1.39453 4.4375-1.08594 4.4414 2.05078.57032.42969 3.86719 3.22266 4.28125 1.21875.15625.0664.01953-.0664 1.25-4.44141 3.16797-2.40625 4.4414 1.11719 4.4375-.77344.38282-2.375-.38281-1.15625L216.1289 396l-1.11328-.52344-3.41407-3.91406.59766-4.4375 1.45703-4.4414-3.08203-.87891-.26953.8789-1.6211 4.44141-2.54687 2.91797-2.10547 1.51953-2.33203 2.9336-2.86719-2.9336 2.36719-4.4375-2.22266-4.4414 2.72266-2.71876 4.4375-1.29687 1.26172-.42188.11328-4.4375.46875-4.4375 2.03906-4.4375.55469-.55468.85547.55468 3.58594.47657 1.66015-.47657 2.77734-2.61328v3.00781l-4.4375 1.28125-4.3164 2.76172-.125.53516-1 3.90234.51953 4.4375-3.95703 1.32032-4.4375 2.97265-.14844.14453.14844.25782 4.4375 4.03125 3.23437-4.28907 1.20313-3.89843 4.4414 2.16796 4.4375.48829v4.82812l-4.4375.26563-.33203.58984.33203 2.65234.28125 1.78516 4.15625 2.98438 4.4375.93359.14844.51953-.14844.77734-1.04296 3.66016 1.04297 1.21875 4.4375 1.96484v1l-3.34375.25391 3.34375 2.85156.40625-2.85156-.40625-.2539v-1l2.01171 1.2539 2.42578 2.4375v1.60938l-2.80859.39453 2.8086 1.125 2.78125-1.125-2.78125-.39454v-1.60937l4.4414.47266 3.22266 1.53125-3.22266 2.03906-3.46484 2.39844-.97656.53125-1.4922-.53125-2.9453-1.7422-4.4375-2.17577-.6797-.51953-3.7578-2.52735-4.4375-.04687-4.44141-.36328-1.5625 2.9375-1.71875 4.4375-1.15625.42578-2.11719-.42578-2.32031-1.95313-1.39453-2.48437-3.04297-2.9336-4.4414.47266-4.4375 1.19531-1.84766 1.26563-2.58985 1.1953-3.51562 3.2422-.92188.64453-4.4414-.24219-2.78125-.40234-1.65625-1.0625-3.35547 1.0625-1.08203.15234-4.4375 1.86328-2.26563 2.42188-1.14453 4.4375-.32422 4.4414-.70312 2.2539-2.2422 2.1836-.61718 4.4375 2.85938 4.02344.26953.41406 4.01172 4.4375.15625.13672 4.4375 1.7539 2.875-1.89062 1.5625-.71484 4.4375-3.53516.25-.1875 4.1914-1.2461 4.4375-.58593 4.4375-2.09765.625-.50782 3.8125-.6875 4.4414-.70312 3.34376-3.04688 1.09375-.8789 4.4375-2.82422 1.1875-.73438 3.25-.57031 4.4414-1.09375 4.4375-1.61719 4.4375.42578 4.4375-.29687 4.4375-.52735 4.44141 1.48047 4.4375-.86718 1.20703-1.375 2.05078-4.4375.1172-4.4375 1.0625-3.89454.30468-.54296-.30469-.28907-2.41406-4.15234 2.41406-3.55469.73438-.88281L249.8867 396l-3.80468-4.01172-3.05078-.42578-1.38672-.76172-4.4375-3.26562-4.4414 1.83593-3.76172 2.19141-.67578.39844-1.21094-.39844-3.22656-2.36719-3.41016-2.07031-1.02734-.85547v-4.82812l4.4375-.26563 3.34375-2.92969 1.09375-.71875 2.6953-3.71875-2.6953-2.89453-2.33594-1.54297-2.10156-1.78125-4.4375-2.26171v-3.00782l3.02343 2.61328 1.41406.62891 4.4375 3.64063.2461.16796 3.92578 4.4375-1.59766 4.4375-.08203 4.4375.48047 4.44141 1.46484.36719.83594-.36719 3.60547-3.64453 3.53906-.79688.89844-.74609 1.32422-3.6914 3.11328-1.9961 4.4375-2.1289 2.02344 4.125 2.41406 1.91015 4.4414-.70703v1.95703l-2.61718 1.27734 2.61719 1.26172 1.91797-1.26172-1.91797-1.27734v-1.95703l3.52344-1.20313.91406-.8789.89453.8789-.1211 4.4375-.77343.80079-4.4375 2.38671-4.4414-.6875-3.1875-2.5-1.25-1.6953-4.4375.3125-3.73048 1.3828-.70703.30079-1.91797 4.14062 1.91797 1.4375 4.4375 1.77344 1.3789 1.22656L250.42189 396l-1.36329 4.4375L246.08203 404l-.59375.875.59375 1.02344 3.63281 3.41797-1.8203 4.4375-1.8125 3.78125-.06642.65625-.66406 4.4375-3.70703 4.21875-2.85937.22265-1.57813.26953-.35547-.26953-4.08594-1.21875-4.4375.01563-4.4375.83984-4.4375-.6289-4.4375.67578-3.17968.3164-1.26172.53516-4.4375 2.42187-4.4375 1.40625-.09375.07422-4.34375 3.96094-4.4414.4375-.20704.03906-4.23047 3.44531-4.4375.58594-4.4375.21485-.64453.1914-3.79687 2.90625-2.37891 1.53125-2.0586 2.35156-4.4375 1.54688-4.4375-.66406-3.8125-3.23438-.625-.80078-2.95312-3.63672-1.2539-4.4375-.23438-1.66797-1.61719-2.76953"/><path fill="#00e8fc" fill-rule="evenodd" d="M157.3164 439.96875l-2.85937-4.02344.61719-4.4375 2.24219-2.1836.70312-2.2539.32422-4.4414 1.14453-4.4375 2.26563-2.42188 4.4375-1.86328 1.08203-.15234 3.35547-1.0625 1.65625 1.0625 2.78125.40234 4.4414.24219.92188-.64453 3.51562-3.2422 2.58985-1.1953 1.84765-1.26563 4.4375-1.19531 4.4414-.47266v2.6914l-.60155.2422-3.83985 3.78906-1.17969.64844-3.2578 1.09765-4.4375-.0039-4.4375 2.92187-4.44141-2.8164-4.4375-.7422-4.4375 1.27735-4.02735 2.70313-.41015.6289-1.75 3.8086-.42578 4.4414-1.41797 4.4375-.84375 2.99219-.61328 1.44531.61328.85938 2.33984 3.57812 2.09766 2.26172 4.4375 1.64063 4.4375-2.51954 1.6953-1.3828 2.7422-1.02344 4.4414-1.98047 4.4375-1.20313.42969-.23047 4.00781-.63672 4.4375-1.13671 4.4414-1.14063 1.67188-1.52344 2.76563-2.22265 2.98828-2.21485 1.44922-.63672 4.4375-.97265 4.4414-2.30078 1.125-.53125 3.3125-2.35938 4.4375.07031 4.4375-1.10937 4.4375-.03125 4.44141 1.0625 4.4375.21875 1.40234-2.28906-.74609-4.4375-.65625-1.02344-1.67969 1.02344-2.7578 2.3203-4.44142 1.36329-4.4375-.20703-4.4375-3.1875-1.625-.28906-2.8125-.85157-4.4375-1.73046-4.4414 2.5-.03906.08203-4.39844 1.6289-4.4375-.96875-2.21875-.66015-1.97266-4.4375-.2461-.2422v-2.6914l3.04298 2.9336 1.39453 2.48437 2.32031 1.95313 2.11719.42578 1.15625-.42578 1.71875-4.4375 1.5625-2.9375 4.4414.36328 4.4375.04687 3.75782 2.52735.67969.51953 4.4375 2.17578 2.9453 1.74219 1.4922.53125.97656-.53125 3.46484-2.39844 3.22266-2.03906-3.22266-1.53125-4.4414-.47266-2.42579-2.4375-2.01172-1.2539-4.4375-1.96485-1.04296-1.21875 1.04297-3.66016.14843-.77734-.14844-.51953-4.4375-.9336-4.15625-2.98437-.28125-1.78516-.33203-2.65234.33203-.58984 4.4375-.26563 1.02735.85547 3.41016 2.07031 3.22656 2.36719 1.21094.39844.67578-.39844 3.76172-2.1914 4.4414-1.83594v4.15234l-4.4414.5664-4.4375 2.89063-.90625.85547-1.45704 4.4375 2.36328 1.51172 4.4375 2.80078 4.44141.09766 4.4375-.34766 3.6211-4.0625.8164-.88281L248.98437 396l-2.90234-3.0625-4.4375-.51563-4.4375-.73437v-4.15234l4.4375 3.26562 1.38672.76172 3.05078.42578L249.88672 396l-3.07031 4.4375-.73438.88281-2.41406 3.55469 2.41406 4.15234.30469.28907-.30469.54296-1.0625 3.89454-.11719 4.4375-2.05078 4.4375-1.20703 1.375-4.4375.86718-4.4414-1.48046-4.4375.52734-4.4375.29687-4.4375-.42578-4.4375 1.61719-4.44141 1.09375-3.25.57031-1.1875.73438-4.4375 2.82422-1.09375.8789-3.34375 3.04688-4.4414.70312-3.8125.6875-.625.50781-4.4375 2.09766-4.4375.58594-4.19141 1.2461-.25.1875-4.4375 3.53515-1.5625.71484-2.875 1.89063-4.4375-1.7539-.15625-.13673-4.01172-4.4375-.26953-.41406"/><path fill="#00d4fc" fill-rule="evenodd" d="M157.3164 436.80469l-.61327-.85938.61328-1.44531.84375-2.99219 1.41797-4.4375.42578-4.4414 1.75-3.8086.41015-.6289 4.02735-2.70313 4.4375-1.27734v.65234l-4.4375 2.20313-1.67578 1.125-2.76172 4.23828-.09375.19922-.52735 4.4414-1.46484 4.4375-1.58203 4.4375 3.64062 4.4375.02735.02735 4.4375 2.64453 3.73437-2.67188.70313-.22265 4.4375-1.8711 4.09765-2.34375.34375-.21484 4.4375-.20703 4.4375-.92578 4.4375-1.50782 4.4414-1.57812.00392-.0039 4.43359-3.5625 1.17969-.875 3.2578-1.42579 4.4375-1.22656 3.07423-1.78906 1.36719-2.9375 2.22265-1.5-2.22266-1.9336-4.4414-1.05469-4.4375 1.37891-4.4375-1.08203-4.4375 1.36719-1.66406 1.32422-2.77735.41406-4.4375-.1836-4.4375.16797-4.4375 2-.98828-2.39843-3.45312-2.44141-4.4375-.88672v-.65234l4.4375.74219 4.4414 2.8164 4.4375-2.92187 4.4375.0039 3.25781-1.09765 1.1797-.64844 3.83984-3.78906.60156-.2422.2461.2422 1.97265 4.4375 2.21875.66015 4.4375.96875 4.39844-1.6289.03906-.08204 4.4414-2.5 4.4375 1.73047 2.8125.85157 1.625.28906 4.4375 3.1875 4.4375.20703 4.44141-1.36328 2.75781-2.32031 1.6797-1.02344.65624 1.02344.7461 4.4375-1.40235 2.28906-4.4375-.21875-4.4414-1.0625-4.4375.03125-4.4375 1.10937-4.4375-.0703-3.3125 2.35937-1.125.53125-4.44141 2.30078-4.4375.97265-1.44922.63672-2.98828 2.21485-2.76563 2.22265-1.67187 1.52344-4.4414 1.14063-4.4375 1.13671-4.00782.63672-.42969.23047-4.4375 1.20313-4.4414 1.98046-2.7422 1.02344-1.6953 1.38281-4.4375 2.51954-4.4375-1.64063-2.09766-2.26172-2.33984-3.57812"/><path fill="#00c4fc" fill-rule="evenodd" d="M161.72656 440.38281l-3.64062-4.4375 1.58203-4.4375 1.46484-4.4375.52735-4.4414.09375-.19922 2.76172-4.23828 1.67578-1.125 4.4375-2.20313v.65625l-4.14453 2.67188-.29297 1.58984-1.56641 2.84766-1.73047 4.4414-1.14062 2.69922-.58203 1.73828-2.02735 4.4375 2.60938 3.16797 2.03125 1.26953 2.40625 1.4414 2.01562-1.4414 2.42188-.77344 4.4375-2.39062 2.23047-1.27344 2.21093-1.3789 4.4375.49609 4.4375-1.17578 4.4375-1.88281 1.40235-.4961 3.03906-.78515 4.1289-3.65235.3086-.71484 4.4375-1.5039 4.4375-1.47266 1.28516-.75 1.5078-4.4375-2.79296-1.51954-4.4375 1.10938-4.4375-1.19531-2.83984 1.60547-1.59766 1.68359-4.4414.23047-4.4375-.39453-4.4375 1.03515-3.4297 1.88282-1.0078.64843-.12891-.64843-1.98438-4.4375-2.32812-1.64454-4.4375-1.02734v-.65625l4.4375.88672 3.45312 2.4414.98828 2.39844 4.4375-2 4.4375-.16796 4.4375.18359 2.77735-.41406 1.66406-1.32422 4.4375-1.36719 4.4375 1.08203 4.4375-1.3789 4.4414 1.05468 2.22266 1.9336-2.22266 1.5-1.36718 2.9375-3.07422 1.78906-4.4375 1.22656-3.25781 1.42578-1.1797.875-4.43358 3.5625-.00391.0039-4.4414 1.57813-4.4375 1.50782-4.4375.92578-4.4375.20703-.34376.21484-4.09765 2.34375-4.4375 1.8711-.70313.22265-3.73437 2.67188-4.4375-2.64453-.02735-.02735"/><path fill="#00b8fc" fill-rule="evenodd" d="M161.7539 439.11328l-2.60937-3.16797 2.02734-4.4375.58204-1.73828 1.14062-2.69922 1.73047-4.4414 1.5664-2.84766.29298-1.58984 4.14453-2.67188v.65235l-3.13282 2.01953-1.01953 4.4375-.28515 1.76562-1.39844 2.67578-2.53906 4.4375-.5 1.3086-1.55078 3.1289 1.55078 1.88281 4.08593 2.5547.35157.21093.29297-.21094 4.14453-1.32422 4.4375-2.90625.35937-.20703 4.08203-2.54297 4.4375 1.19532 4.4375-1.42188 3.60938-1.66797.82812-.32812 4.4414-1.2461 3.23829-2.86328 1.19922-2.76562 4.4375-.2461 3.83984-1.42968.59766-3.9336.09766-.5039-.09766-.05079-.23047.05079-4.20703 1.1875-2.5664-1.1875-1.8711-.51954-.92188.51954-3.51562 3.70312-4.4414-.29297-4.4375-.60156-4.03516 1.6289-.40235.04298-4.4375 3.125-.63281-3.16797-2.60938-4.4375-1.19921-.84766-4.4375-1.17188v-.65234l4.4375 1.02735 2.32812 1.64453 1.98438 4.4375.1289.64843 1.00781-.64843 3.4297-1.88282 4.4375-1.03515 4.4375.39453 4.4414-.23047 1.59766-1.6836 2.83984-1.60546 4.4375 1.19531 4.4375-1.10938 2.79297 1.51954-1.50781 4.4375-1.28516.75-4.4375 1.47265-4.4375 1.5039-.3086.71485-4.1289 3.65235-3.03906.78515-1.40235.4961-4.4375 1.8828-4.4375 1.17579-4.4375-.4961-2.21094 1.37891-2.23046 1.27344-4.4375 2.39063-2.42188.77343-2.01562 1.4414-2.40625-1.4414-2.03125-1.26953"/><path fill="#00a8fc" fill-rule="evenodd" d="M161.7539 437.82813l-1.55077-1.88282 1.55078-3.1289.5-1.3086 2.53906-4.4375 1.39844-2.67578.28515-1.76562 1.01953-4.4375 3.13282-2.01954v.65625l-2.1172 1.36329-1.44921 4.4375 3.5664 4.42968v.05079l-4.4375.24609-3.125 4.15234-1.3125 3.44531-.49218.9922.49219.59765 4.4375 3.08984 4.4375-1.1211 3.78515-2.5664-.78125-4.4375-3.0039-4.39844v-.05078l4.4375-.80468v.55078l-1.44922.26562 1.44922 3.16797 2.16406-3.16797-2.16406-.26562v-.55078l3.30859-3.625-3.23828-4.4375-.07031-.05079-4.4375-1.3125v-.65625l4.4375 1.17188 1.19922.84766 2.60937 4.4375.63281 3.16796 4.4375-3.125.40235-.04296L188.3828 421v1.28516l-.84765.34375-3.58985.35937-4.27344 4.08203-.16406 1.94922-1.94531 2.48828 1.94531.73438 4.4375 1.89062 4.4375-1.66797 2.07422-.95703 2.36328-.9375 4.4414-1.42187 2.34767-2.07813-2.34766-3.57812-4.4414-.63281-2.39454-.23047-2.04297-.34375V421l4.4375.60156 4.4414.29297 3.51563-3.70312.92188-.51954 1.8711.51954 2.5664 1.1875v1.79687l-3.61328 1.45313 3.61328.64062 1.71484-.64062-1.71484-1.45313v-1.79687l4.20703-1.1875.23047-.05079.09766.05079-.09766.5039-.59766 3.9336-3.83984 1.42968-4.4375.2461L200.5 427.0703l-3.23828 2.86328-4.4414 1.2461-.82813.32812-3.60938 1.66797-4.4375 1.42188-4.4375-1.19532-4.08203 2.54297-.35937.20703-4.4375 2.90625-4.14453 1.32422-.29297.21094-.35157-.21094-4.08593-2.55469"/><path fill="#009800" fill-rule="evenodd" d="M161.7539 436.54297l-.49218-.59766.49219-.99219 1.3125-3.4453 3.125-4.15235v1.08203l-2.3086 3.07031-1.47265 4.4375 3.78125 2.78516 4.4375-.76953 2.97656-2.01563-1.7461-4.4375-1.23046-1.79687-4.4375-1.27344v-1.08203l4.4375-.2461 3.0039 4.39844.78125 4.4375-3.78515 2.5664-4.4375 1.1211-4.4375-3.08984"/><path fill="#00ac00" fill-rule="evenodd" d="M166.1914 438.73047l-3.78124-2.78516 1.47265-4.4375 2.3086-3.07031v1.08203l-1.4961 1.98828-1.0586 4.4375 2.5547 1.88281 4.4375-.41796 2.16406-1.46485-2.16406-3.98047-.63672-.45703-3.80078-1.98828v-1.08203l4.4375 1.27344 1.23047 1.79687 1.74609 4.4375-2.97656 2.01563-4.4375.76953"/><path fill="#00c800" fill-rule="evenodd" d="M166.1914 437.82813l-2.55468-1.88282 1.0586-4.4375 1.49609-1.98828v4.89844l-.10547 1.52734.10547.07813 4.4375.28906.54297-.36719-.54297-1-4.4375-.52734v-4.89844l3.80078 1.98828.63672.45703 2.16406 3.98047-2.16406 1.46485-4.4375.41796"/><path fill="#10cc00" fill-rule="evenodd" d="M166.1914 436.02344l-.10546-.07813.10547-1.52734 4.4375.52734.54297 1-.54297.36719-4.4375-.28906"/><path fill="#009800" fill-rule="evenodd" d="M170.6289 427.0586l-3.5664-4.4297 1.44922-4.4375 2.11719-1.36327v.65234l-1.10157.71094-1.8789 4.4375 2.98047 3.69921 4.4375-.625 2.80468-3.07421-2.80468-3.80079-2.05078-.63671-2.38672-.71094v-.65235l4.4375 1.3125.0703.05079 3.23829 4.4375-3.3086 3.625-4.4375.80468"/><path fill="#00ac00" fill-rule="evenodd" d="M170.6289 426.32813l-2.98046-3.69922 1.8789-4.4375 1.10157-.71094v.65234l-.08985.0586-2.30469 4.4375 2.39454 2.97265 4.4375-.44922 2.30468-2.52343-2.30468-3.1172-4.2422-1.3203-.1953-.0586v-.65234l2.38672.71094 2.05078.63671 2.80468 3.80079-2.80468 3.07421-4.4375.625"/><path fill="#00c800" fill-rule="evenodd" d="M170.6289 425.60156l-2.39452-2.97265 2.30468-4.4375.08985-.0586v2.1836l-1.21875 2.3125 1.21875 1.51562 4.4375-.08984 1.30078-1.42578-1.30078-1.75782-4.4375-.55468v-2.1836l.1953.0586 4.2422 1.3203 2.30468 3.1172-2.30468 2.52343-4.4375.44922"/><path fill="#10cc00" fill-rule="evenodd" d="M170.6289 424.14453l-1.21874-1.51562 1.21875-2.3125 4.4375.55468v1.35938l-4.4375.3086-.04688.08984.04688.05859 4.4375.26563.29687-.32422-.29687-.39844v-1.35938l1.30078 1.75782-1.30078 1.42578-4.4375.08984"/><path fill="#24d000" fill-rule="evenodd" d="M170.6289 422.6875l-.04687-.0586.04688-.08984 4.4375-.3086.29687.39845-.29687.32421-4.4375-.26562"/><path fill="#00b8fc" fill-rule="evenodd" d="M175.0664 426.80469l-1.44921.26562 1.44922 3.16797 2.16406-3.16797-2.16406-.26562"/><path fill="#009800" fill-rule="evenodd" d="M179.50781 432.24219l-1.94531-.73438 1.94531-2.48828.16406-1.94922 4.27344-4.08203 3.58985-.35937.84765-.34375v.45312l-4.4375.57031-3.9375 3.76172-.17578 4.4375 4.11328 2.16016 4.4375-1.91016.53906-.25 3.89844-1.54687 4.4414-1.60156 1.45704-1.28907-1.45703-2.22265-4.4414-1.25782-4.4375-.85156v-.45312l2.04296.34375 2.39453.23046 4.4414.63282 2.34767 3.57812-2.34766 2.07813-4.4414 1.42187-2.36329.9375-2.07422.95703-4.4375 1.66797-4.4375-1.89062"/><path fill="#00ac00" fill-rule="evenodd" d="M183.94531 433.66797l-4.11328-2.16016.17578-4.4375 3.9375-3.76172 4.4375-.5703v.15233l-4.4375.73829-3.60547 3.4414.375 4.4375 3.23047 1.69531 3.76953-1.6953.66797-.10157 4.4375-2.05078 4.4414-1.78125.56642-.5039-.56641-.8711-4.4414-1.8789-4.4375-1.4297v-.15234l4.4375.85156 4.4414 1.25782 1.45703 2.22265-1.45703 1.28906-4.4414 1.60157-3.89845 1.54687-.53906.25-4.4375 1.91016"/><path fill="#00c800" fill-rule="evenodd" d="M180.71484 431.50781l-.375-4.4375 3.60547-3.4414 4.4375-.73829v.29688l-4.4375 1.07813-2.9375 2.80468 1.47656 4.4375 1.46094.76563 1.70703-.76563 2.73047-.41406 4.4375-2.95703 2.5039-1.0664-2.5039-1.28907-4.4375-2.59375v-.29688l4.4375 1.4297 4.4414 1.8789.56642.8711-.56641.5039-4.4414 1.78125-4.4375 2.05078-.66798.10156-3.76953 1.69531-3.23047-1.6953"/><path fill="#10cc00" fill-rule="evenodd" d="M182.48438 431.50781l-1.47657-4.4375 2.9375-2.80469 4.4375-1.07812v.30078l-4.4375 1.41406-2.26953 2.16797 2.26953 4.22266 4.4375-.50781 4.39453-3.71485-4.39453-3.58203v-.30078l4.4375 2.59375 2.5039 1.28906-2.5039 1.0664-4.4375 2.95704-2.73047.41406-1.70703.76563-1.46094-.76563"/><path fill="#24d000" fill-rule="evenodd" d="M183.94531 431.29297l-2.26953-4.22266 2.26953-2.16797 4.4375-1.41406v.29688l-4.4375 1.7578-1.59765 1.52735 1.59765 2.97656 4.4375.4297 4.02735-3.40626-4.02735-3.28515v-.29688l4.39453 3.58203-4.39453 3.71485-4.4375.5078"/><path fill="#3cd800" fill-rule="evenodd" d="M183.94531 430.04688l-1.59765-2.97657 1.59765-1.52734 4.4375-1.75781v.30078l-4.4375 2.09375-.92969.89062.9297 1.73047 4.4375 1.36328 3.66015-3.09375-3.66016-2.98437v-.30078l4.02735 3.28515-4.02735 3.40625-4.4375-.42969"/><path fill="#54dc00" fill-rule="evenodd" d="M183.94531 428.80078l-.92969-1.73047.9297-.89062 4.4375-2.09375v.29687l-4.4375 2.4336-.26173.2539.26172.48828 4.4375 2.29688 3.29297-2.78516-3.29297-2.6875v-.29687l3.66016 2.98437-3.66016 3.09375-4.4375-1.36328"/><path fill="#e8e05c" fill-rule="evenodd" d="M183.94531 427.5586l-.26172-.48829.26172-.2539 4.4375-2.4336v.30078l-4.125 2.38672 4.125 2.47266 2.92578-2.47266-2.92578-2.38672v-.30078l3.29297 2.6875-3.29297 2.78516-4.4375-2.29688"/><path fill="#e8d450" fill-rule="evenodd" d="M188.38281 429.54297l-4.125-2.47266 4.125-2.38672v.59766l-3.08984 1.78906 3.08984 1.85156 2.1914-1.85156-2.1914-1.78906v-.59766l2.92578 2.38672-2.92578 2.47266"/><path fill="#e8b830" fill-rule="evenodd" d="M188.38281 428.92188l-3.08984-1.85157 3.08984-1.78906v.59766l-2.05469 1.1914 2.0547 1.23047 1.46093-1.23047-1.46094-1.1914v-.59766l2.1914 1.78906-2.1914 1.85156"/><path fill="#e8a824" fill-rule="evenodd" d="M188.38281 428.30078l-2.05469-1.23047 2.0547-1.1914v.59765l-1.01954.59375 1.01953.61328.72656-.61328-.72656-.59375v-.59765l1.46094 1.1914-1.46094 1.23047"/><path fill="#d87c08" fill-rule="evenodd" d="M188.38281 427.6836l-1.01953-.61329 1.01953-.59375.72656.59375-.72656.61328"/><path fill="#00e8fc" fill-rule="evenodd" d="M201.69922 382.9414l-.14844-.2578.14844-.14454 4.4375-2.97265v1.5l-2.33984 1.61718 2.33984 2.22657 1.67969-2.22657-1.6797-1.61718v-1.5l3.95704-1.32032-.51953-4.4375 1-3.90234.125-.53516 4.3164-2.76171 4.4375-1.28125v1.96093l-4.4375 1.32031-1.1875.76172-1.25 4.4375 2.4375 3.66797 4.4375.625 4.4375-1.20703 4.4375-2.76562.23047-.32032-.23047-.25-4.4375-2.54296-1.37109-1.64454-3.0664-2.08203v-1.96094l4.4375 2.26172 2.10156 1.78125 2.33594 1.54297 2.6953 2.89453-2.6953 3.71875-1.09375.71875-3.34375 2.9297-4.4375.26562-4.4375-.48829-4.44141-2.16796-1.20313 3.89843-3.23437 4.28907-4.4375-4.03125"/><path fill="#009800" fill-rule="evenodd" d="M206.13672 423.26953l-3.61328-.64062 3.61328-1.45313 1.71484 1.45313-1.71484.64062"/><path fill="#00d4fc" fill-rule="evenodd" d="M206.13672 384.91016l-2.33984-2.22657 2.33984-1.61718v1.5l-.17188.11718.17188.16407.125-.16407-.125-.11718v-1.5l1.67969 1.61718-1.6797 2.22657"/><path fill="#00c4fc" fill-rule="evenodd" d="M206.13672 382.84766l-.17188-.16407.17188-.11718.125.11718-.125.16407"/><path fill="#00d4fc" fill-rule="evenodd" d="M215.01563 377.47656l-2.4375-3.66797 1.25-4.4375 1.1875-.76171 4.4375-1.32032V369.25l-.39454.1211-3.02734 4.4375 3.42188 1.34374 3.10546-1.34375-2.93359-4.4375-.17188-.12109v-1.96094l3.06641 2.08203 1.3711 1.64454 4.4375 2.54296.23046.25-.23047.32032-4.4375 2.76562-4.4375 1.20703-4.4375-.625"/><path fill="#00c4fc" fill-rule="evenodd" d="M219.45313 375.15234l-3.42188-1.34375 3.02734-4.4375.39453-.12109.17188.1211 2.9336 4.4375-3.10548 1.34374"/><path fill="#fff" fill-opacity="0" fill-rule="evenodd" d="M228.32813 404.6211l-3.34375.2539 3.34375 2.85156.40625-2.85156-.40625-.2539"/><path fill="#00d4fc" fill-rule="evenodd" d="M228.32813 401.94922l-2.36329-1.51172L227.42187 396l.90625-.85547 4.4375-2.89062 4.44141-.56641v1.33594l-4.4414 1.53515L230.72266 396l-2.20703 4.4375 4.25 2.96484 4.4414.38282 4.4375-.42579 2.60547-2.92187 1.83203-1.98438L248.08593 396l-2.0039-2.11328-4.4375-.3789-4.4375-.48438v-1.33594l4.4375.73438 4.4375.51562L248.98437 396l-2.90234 3.55469-.8164.88281-3.6211 4.0625-4.4375.34766-4.4414-.09766-4.4375-2.80078"/><path fill="#00c4fc" fill-rule="evenodd" d="M232.76563 403.40234l-4.25-2.96484L230.72266 396l2.04297-1.4414 4.4414-1.53516v1.33594L233.8047 396l-1.03906 1.0625-2.3125 3.375 2.3125 1.61328 4.4414.67578 4.4375-.5039 1.58984-1.78516 2.84766-3.08203L247.1875 396l-1.10547-1.16797-4.4375-.24219-4.4375-.23046v-1.33594l4.4375.48437 4.4375.3789L248.08593 396l-2.0039 2.45313-1.83203 1.98437-2.60547 2.92188-4.4375.42578-4.4414-.38282"/><path fill="#fff" fill-opacity="0" fill-rule="evenodd" d="M232.76563 408.92188l-2.8086.39453 2.8086 1.125 2.78125-1.125-2.78125-.39454"/><path fill="#00b8fc" fill-rule="evenodd" d="M232.76563 402.05078l-2.3125-1.61328 2.3125-3.375L233.80469 396l3.40234-1.64063 4.4375.23047v1.08204l-4.4375.02343-.63672.30469-3.80469 3.88672-.375.55078.375.26172 4.44141.96484 4.4375-.57812.57422-.64844 3.86328-4.1836.20703-.2539-.20703-.21875-4.4375-.10938v-1.08203l4.4375.2422L247.1875 396l-1.10547 1.35547-2.84766 3.08203-1.58984 1.78516-4.4375.5039-4.4414-.67578"/><path fill="#00a8fc" fill-rule="evenodd" d="M232.76563 400.69922l-.375-.26172.375-.55078L236.5703 396l.63672-.30469v4.0039l-.71484.73829.71484.16406 1.16406-.16406-1.16406-.73828v-4.0039l4.4375-.02344 4.4375.10937.20703.21875-.20703.2539-3.86328 4.1836-.57422.64844-4.4375.57812-4.4414-.96484"/><path fill="#009800" fill-rule="evenodd" d="M237.20703 400.60156l-.71484-.16406.71484-.73828 1.16406.73828-1.16406.16406"/><path fill="#00e8fc" fill-rule="evenodd" d="M259.39844 383.94531l-2.61719-1.26172 2.61719-1.27734 1.91797 1.27734-1.91797 1.26172"/><path fill="#50fcfc" fill-rule="evenodd" d="M263.83594 406.7539l-1.33985-1.8789 1.33985-1.1211 1.64062 1.1211-1.64062 1.8789m79.89062 46.42579l-3.67187-3.91797 3.67187-3.54688.98047-.89453 3.45703-3.44531 2.6211-.99219 1.8164-1.04297 4.4414-2.08593v3.58203l-4.4414 1.15234-4.01562 2.83203-.42188 1.26563-3.91406 3.17578 3.91406 2.24219 4.4375-.48438 4.4414-1.09765 1.50392-.66016 2.93359-.63672 4.4375-.97656 1.72656 1.61328 2.71094 3.16797 2.26172-3.16797 2.17578-1.76172v1.51172l-.3086.25.3086 1.14062.25781-1.14062-.25781-.25V447.5l1.82422 1.76172 2.61719 2.77344 2.61718-2.77344-2.61719-2.98438-1.39843-1.45703-3.04297-2.48437-4.4375-.57422-4.4375 1.07031-4.4375-.76562-4.4375-1.23047v-3.58203l2.77344 3.1289 1.66406.47266 4.4375.5 2.47265-.97266 1.96485-2.0625 2.55078 2.0625 1.88672.54688 4.4414 2.80078 1.44141 1.08984 2.74219 4.4414-4.1836 4.4336-.01953.0039-4.42187 2.01954-4.4375 1.30078-3.99219-3.32031-.44531-.88672-4.4375-.5586-4.4375 1.0625-.84375.38282-3.59766 2.23047-4.4375.46875-3.69531-2.69922-.74219-.51953"/><path fill="#00e8fc" fill-rule="evenodd" d="M348.16406 451.5039l-3.91406-2.24218 3.91406-3.17578.42188-1.26563 4.01562-2.83203 4.4414-1.15234v2.15234l-3.89062 1.83203 3.89063 2.1836 4.4375-1.16407 2.91797-1.01953-2.91797-.73437-4.4375-1.09766v-2.15234l4.4375 1.23047 4.4375.76562 4.4375-1.07031 4.4375.57422v2.34375l-.63672.14062.63672.15625 4.4336 4.28516.0078.00781.00391-.00781-.0039-.00781-4.26172-4.4336-.1797-.14062v-2.34375l3.04298 2.48437 1.39844 1.45703 2.61718 2.98438-2.61719 2.77344-2.61718-2.77344-1.82422-1.76172-2.17578 1.76172-2.26172 3.16797-2.71094-3.16797-1.72656-1.61328-4.4375.97656-2.9336.63672-1.5039.66015-4.4414 1.09766-4.4375.48438"/><path fill="#00d4fc" fill-rule="evenodd" d="M357.04297 447.0039l-3.89063-2.18359 3.89063-1.83203 4.4375 1.09766 2.91797.73437-2.91797 1.01953-4.4375 1.16407m17.75-2.02735l-.63672-.15625.63672-.14062.17969.14062 4.26171 4.4336.00391.0078-.0039.00782-.00782-.00781-4.4336-4.28516"/><path fill="#fff" fill-opacity="0" fill-rule="evenodd" d="M374.79297 449.01172l-.3086.25.3086 1.14062.25781-1.14062-.25781-.25"/><path fill="#50fcfc" fill-rule="evenodd" d="M428.05469 400.57813l-.1875-.14063.1875-.15625L430.48438 396l2.0078-3.44531.19141-.99219 2.08594-4.4375 2.16016-2.07422v2.80078l-2.88281 3.71094.0703 4.4375-1.625 2.8164-1.02734 1.6211 1.02735.66797 1.10156-.66797 3.33594-2.22266 2.90625 2.22266 1.53515.98438 4.4375.27343 3.78516 3.17969.65234 1.71094.42579-1.71094.0703-4.4375-.49609-.51953-4.4375-.36328-4.4375-2.9375-.35156-.61719-1.48047-4.4375-2.60937-3.71094v-2.80078l2.61328 2.07422 1.22656 4.4375.60156 1.53516L444.31641 396l1.49218 1.13281 4.4375.28906L453.1875 396l-.64453-4.4375-2.14453-4.4375 4.28515-4.30469 4.44141-.09375v.23438l-4.4414.11328-4.03516 4.05078 4.03515 4.33594 1.19141.10156 3.25 1.69922 1.69922-1.69922 2.3789-4.4375-4.07812-4.16406v-.23438l4.30469 4.39844-.96485 4.4375-3.33984 3.34375L456.03125 396l-1.34766 1.35938-1.5625 3.07812.21094 4.4375 1.35156 3.64453.63282.79688-.63282.6328-4.4375 2.79298-2.47265-3.42578-1.96485-3.94141-.45703-.5-3.98047-1.36328-4.4414-2.46094-4.4375 2.3164-4.4375-2.78906"/><path fill="#00e8fc" fill-rule="evenodd" d="M432.49219 401.10547l-1.02735-.66797 1.02735-1.6211 1.625-2.8164-.07031-4.4375 2.8828-3.71094v2.91797l-.61327.79297.61328 1.6289.5586-1.6289-.5586-.79297v-2.91797l2.60937 3.71094L441.01953 396l.35156.61719 4.4375 2.9375 4.4375.36328.4961.51953-.07031 4.4375-.42579 1.71094-.65234-1.71094-3.78516-3.17969-4.4375-.27344-1.53515-.98437-2.90625-2.22266-3.33594 2.22266-1.10156.66797"/><path fill="#00d4fc" fill-rule="evenodd" d="M436.92969 393.1914l-.61328-1.6289.61328-.79297.5586.79297-.5586 1.6289"/><path fill="#00e8fc" fill-rule="evenodd" d="M454.6836 391.46094l-4.03516-4.33594 4.03515-4.05078 4.44141-.11328v.38672l-4.4414.14453-3.6172 3.63281 3.6172 3.88672 4.4414.38281 3.69922-4.26953-3.69922-3.77734v-.38672l4.07813 4.16406-2.37891 4.4375-1.69922 1.69922-3.25-1.69922-1.1914-.10156"/><path fill="#00d4fc" fill-rule="evenodd" d="M454.6836 391.01172l-3.6172-3.88672 3.6172-3.63281 4.4414-.14453v.3828l-4.4414.1797-3.19923 3.21484 3.19922 3.4375 4.44141.39453 3.32031-3.83203-3.32031-3.39453v-.38281l3.69922 3.77734-3.69922 4.26953-4.4414-.38281"/><path fill="#00c4fc" fill-rule="evenodd" d="M454.6836 390.5625l-3.19923-3.4375 3.19922-3.21484 4.44141-.1797v.38673l-4.4414.21094-2.78126 2.79687 2.78125 2.98828 4.44141.41016 2.9414-3.39844-2.9414-3.00781v-.38672l3.32031 3.39453-3.32031 3.83203-4.4414-.39453"/><path fill="#00b8fc" fill-rule="evenodd" d="M454.6836 390.11328l-2.78126-2.98828 2.78125-2.79688 4.44141-.21093v.38672l-4.4414.24218-2.36329 2.37891 2.36328 2.53906 4.44141.42188 2.5625-2.96094-2.5625-2.6211v-.38671l2.9414 3.00781-2.9414 3.39844-4.4414-.41016"/><path fill="#00a8fc" fill-rule="evenodd" d="M454.6836 389.66406l-2.36329-2.53906 2.36328-2.3789 4.44141-.2422v.38673l-4.4414.27734-1.94532 1.95703 1.94531 2.09375 4.44141.42969 2.1836-2.52344-2.1836-2.23438v-.38671l2.5625 2.62109-2.5625 2.96094-4.4414-.42188"/><path fill="#009800" fill-rule="evenodd" d="M454.6836 389.21875l-1.94532-2.09375 1.94531-1.95703 4.44141-.27735v.38672l-4.4414.3086-1.53126 1.53906 1.53125 1.64453 4.44141.4414 1.8086-2.08593-1.8086-1.84766v-.38671l2.1836 2.23437-2.1836 2.52344-4.4414-.42969"/><path fill="#00ac00" fill-rule="evenodd" d="M454.6836 388.76953l-1.53126-1.64453 1.53125-1.53906 4.44141-.3086v.38672l-4.4414.33985-1.11329 1.12109 1.11328 1.19531 4.44141.45313 1.42969-1.64844-1.42969-1.46094v-.38672l1.8086 1.84766-1.8086 2.08594-4.4414-.4414"/><path fill="#00c800" fill-rule="evenodd" d="M454.6836 388.32031l-1.11329-1.19531 1.11328-1.1211 4.44141-.33984v.77344l-4.4414.40625-.27735.28125.27734.29688 4.44141.47656.67188-.77344-.67188-.6875v-.77344l1.42969 1.46094-1.42969 1.64844-4.4414-.45313"/><path fill="#10cc00" fill-rule="evenodd" d="M454.6836 387.42188l-.27735-.29688.27734-.28125 4.44141-.40625.67188.6875-.67188.77344-4.4414-.47656"/><g clip-path="url(#d)"><path fill="#fff" fill-opacity="0" fill-rule="evenodd" d="M467.9961 480.32813H468V311.67188h-.0039H468v168.65625h-.0039"/></g><path fill="#fff" fill-opacity="0" fill-rule="evenodd" d="M205.05078 397.59766l4.22656-4.03125-6.875-7.20704-4.22656 4.03516 6.875 7.20313"/><path fill-rule="evenodd" d="M201.97266 389.30469l.36718-.35156 4.34766 4.55468-.57031.54297-3.10156-3.25-1.00391.96094-.38281-.40235.35937-.43359.14453-.21484.10547-.22266.05078-.24219-.01953-.27343-.10156-.3086-.19531-.35937"/><path fill="#fff" fill-opacity="0" fill-rule="evenodd" d="M246.4375 378.76172l3.66797 4.54687 7.7539-6.2539-3.66796-4.54688-7.75391 6.2539"/><path fill-rule="evenodd" d="M254.96094 376.38281l.32031.39453-4.89844 3.95313-.49219-.61328 3.4922-2.8164-.8711-1.08204.42969-.34766.40234.39454.20313.16015.21093.125.23828.07031.27344.00391.32031-.07813.3711-.16406"/><path fill="#fff" fill-opacity="0" fill-rule="evenodd" d="M204.96875 436.03906l5.375-2.28906-3.90625-9.16406-5.3711 2.28906 3.90235 9.16406"/><path fill-rule="evenodd" d="M205.0039 427.1914l.46876-.19921 2.46484 5.78906-.72266.3086-1.7578-4.12891-1.27735.54297-.21875-.51172.48828-.27735.21094-.14843.17578-.17188.13281-.21094.07813-.26171.01562-.32422-.0586-.40625"/><path fill="#fff" fill-opacity="0" fill-rule="evenodd" d="M236.52344 416.9961l7.72265 1.77734 2.28907-9.9336-7.72266-1.77734-2.28906 9.9336"/><path fill-rule="evenodd" d="M240.82031 409.40625l3.19922.73828-.16406.71875-2.57031-.58984-.63282 1.70703.25782-.10938.29297-.0664.33593-.01563.3789.05469.3125.10156.3086.15625.29297.21875.2539.28125.20313.33985.07422.19921.05078.21094.03125.22656.00781.2461-.02343.26172-.04688.28125-.13672.42187-.1914.38672-.2539.33594-.3125.27734-.35938.20313-.20313.07422-.21094.05468-.22265.02735-.23828.0039-.2461-.01953-.25781-.04687-.44531-.13672-.36719-.1914-.28906-.23048-.21875-.27343-.15625-.30079-.10156-.33203-.05079-.35156-.0039-.36328.76562.17578.02735.2461.05078.22265.08203.20703.10547.1836.13672.15625.16406.1289.1914.10156.22266.07422.3125.04688.28906-.00781.26563-.0625.23828-.1172.21094-.17187.17578-.22656.14453-.28515.10547-.34375.03906-.26172v-.26563l-.04687-.26953-.08985-.2539-.14453-.23048-.19922-.20312-.25781-.16016-.32422-.10937-.33594-.04297-.29687.04297-.3086.1211-.36718.1953-.67578-.15625 1.22265-3.23437"/><g clip-path="url(#e)"><path fill="none" stroke="#000" stroke-linecap="round" stroke-linejoin="round" stroke-miterlimit="10" stroke-width=".5" d="M146.70703 482.57031l-5.41406-4.48047"/></g><g clip-path="url(#f)"><path fill="none" stroke="#000" stroke-linecap="round" stroke-linejoin="round" stroke-miterlimit="10" stroke-width=".5" d="M160.20313 482.32813l-5.77735-4"/></g><g clip-path="url(#g)"><path fill="none" stroke="#000" stroke-linecap="round" stroke-linejoin="round" stroke-miterlimit="10" stroke-width=".5" d="M173.33203 482.57422l-5.40625-4.49219"/></g><g clip-path="url(#h)"><path fill="none" stroke="#000" stroke-linecap="round" stroke-linejoin="round" stroke-miterlimit="10" stroke-width=".5" d="M186.11719 483.08984l-4.34375-5.52343"/></g><g clip-path="url(#i)"><path fill="none" stroke="#000" stroke-linecap="round" stroke-linejoin="round" stroke-miterlimit="10" stroke-width=".5" d="M198.95703 483.40625l-3.39453-6.15234"/></g><g clip-path="url(#j)"><path fill="none" stroke="#000" stroke-linecap="round" stroke-linejoin="round" stroke-miterlimit="10" stroke-width=".5" d="M211.98828 483.54688l-2.82422-6.4336"/></g><g clip-path="url(#k)"><path fill="none" stroke="#000" stroke-linecap="round" stroke-linejoin="round" stroke-miterlimit="10" stroke-width=".5" d="M226.17188 483.0039l-4.5625-5.34765"/></g><g clip-path="url(#l)"><path fill="none" stroke="#000" stroke-linecap="round" stroke-linejoin="round" stroke-miterlimit="10" stroke-width=".5" d="M239.42188 483.05469l-4.4297-5.45313"/></g><g clip-path="url(#m)"><path fill="none" stroke="#000" stroke-linecap="round" stroke-linejoin="round" stroke-miterlimit="10" stroke-width=".5" d="M252.90234 482.91406l-4.76172-5.16797"/></g><g clip-path="url(#n)"><path fill="none" stroke="#000" stroke-linecap="round" stroke-linejoin="round" stroke-miterlimit="10" stroke-width=".5" d="M266.79297 482.22266l-5.91797-3.78907"/></g><g clip-path="url(#o)"><path fill="none" stroke="#000" stroke-linecap="round" stroke-linejoin="round" stroke-miterlimit="10" stroke-width=".5" d="M280.03125 482.33984l-5.76172-4.02343"/></g><g clip-path="url(#p)"><path fill="none" stroke="#000" stroke-linecap="round" stroke-linejoin="round" stroke-miterlimit="10" stroke-width=".5" d="M292.88672 482.875l-4.84375-5.09375"/></g><g clip-path="url(#q)"><path fill="none" stroke="#000" stroke-linecap="round" stroke-linejoin="round" stroke-miterlimit="10" stroke-width=".5" d="M306.03516 483.02344l-4.51172-5.38672"/></g><g clip-path="url(#r)"><path fill="none" stroke="#000" stroke-linecap="round" stroke-linejoin="round" stroke-miterlimit="10" stroke-width=".5" d="M317.99219 483.72656l-1.79297-6.79297"/></g><g clip-path="url(#s)"><path fill="none" stroke="#000" stroke-linecap="round" stroke-linejoin="round" stroke-miterlimit="10" stroke-width=".5" d="M333.5586 478.76953l-6.29688 3.1211"/></g><g clip-path="url(#t)"><path fill="none" stroke="#000" stroke-linecap="round" stroke-linejoin="round" stroke-miterlimit="10" stroke-width=".5" d="M332.64453 479.22266l.9961.71484"/></g><g clip-path="url(#u)"><path fill="none" stroke="#000" stroke-linecap="round" stroke-linejoin="round" stroke-miterlimit="10" stroke-width=".5" d="M345.98438 477.63672l-4.51563 5.38672"/></g><path fill="none" stroke="#000" stroke-linecap="round" stroke-linejoin="round" stroke-miterlimit="10" stroke-width=".5" d="M345.32422 478.41797l1.20312.2539"/><g clip-path="url(#v)"><path fill="none" stroke="#000" stroke-linecap="round" stroke-linejoin="round" stroke-miterlimit="10" stroke-width=".5" d="M359.58203 477.90234L354.5 482.75391"/></g><path fill="none" stroke="#000" stroke-linecap="round" stroke-linejoin="round" stroke-miterlimit="10" stroke-width=".5" d="M358.84375 478.60938l1.16406.38671"/><g clip-path="url(#w)"><path fill="none" stroke="#000" stroke-linecap="round" stroke-linejoin="round" stroke-miterlimit="10" stroke-width=".5" d="M371.2539 483.72656l-1.79296-6.79687"/></g><g clip-path="url(#x)"><path fill="none" stroke="#000" stroke-linecap="round" stroke-linejoin="round" stroke-miterlimit="10" stroke-width=".5" d="M386.50781 482.40234l-5.67578-4.14453"/></g><g clip-path="url(#y)"><path fill="none" stroke="#000" stroke-linecap="round" stroke-linejoin="round" stroke-miterlimit="10" stroke-width=".5" d="M394.16016 482.41406l5.65234-4.17187"/></g><g clip-path="url(#z)"><path fill="none" stroke="#000" stroke-linecap="round" stroke-linejoin="round" stroke-miterlimit="10" stroke-width=".5" d="M407.20703 481.98828l6.1914-3.32031"/></g><g clip-path="url(#A)"><path fill="none" stroke="#000" stroke-linecap="round" stroke-linejoin="round" stroke-miterlimit="10" stroke-width=".5" d="M408.10547 481.50781l-1.01953-.6836"/></g><g clip-path="url(#B)"><path fill="none" stroke="#000" stroke-linecap="round" stroke-linejoin="round" stroke-miterlimit="10" stroke-width=".5" d="M420.4375 481.82031l6.35938-2.98437"/></g><g clip-path="url(#C)"><path fill="none" stroke="#000" stroke-linecap="round" stroke-linejoin="round" stroke-miterlimit="10" stroke-width=".5" d="M420.4375 481.82031l-1.96484-1.46875"/></g><g clip-path="url(#D)"><path fill="none" stroke="#000" stroke-linecap="round" stroke-linejoin="round" stroke-miterlimit="10" stroke-width=".5" d="M434.03125 482.3086l5.80078-3.96094"/></g><g clip-path="url(#E)"><path fill="none" stroke="#000" stroke-linecap="round" stroke-linejoin="round" stroke-miterlimit="10" stroke-width=".5" d="M434.03125 482.3086l-2.17578-1.14063"/></g><g clip-path="url(#F)"><path fill="none" stroke="#000" stroke-linecap="round" stroke-linejoin="round" stroke-miterlimit="10" stroke-width=".5" d="M447.55469 482.58984l5.38281-4.51953"/></g><g clip-path="url(#G)"><path fill="none" stroke="#000" stroke-linecap="round" stroke-linejoin="round" stroke-miterlimit="10" stroke-width=".5" d="M460.69531 482.35938l5.73438-4.0625"/></g><g clip-path="url(#H)"><path fill="none" stroke="#000" stroke-linecap="round" stroke-linejoin="round" stroke-miterlimit="10" stroke-width=".5" d="M461.52734 481.76953l-1.09375-.55078"/></g><g clip-path="url(#I)"><path fill="none" stroke="#000" stroke-linecap="round" stroke-linejoin="round" stroke-miterlimit="10" stroke-width=".5" d="M146.72656 469.22656l-5.45312-4.42578"/></g><path fill="none" stroke="#000" stroke-linecap="round" stroke-linejoin="round" stroke-miterlimit="10" stroke-width=".5" d="M146.72656 469.22656l-.46875 2.41016m13.75-2.36719l-5.38672-4.51172m5.38672 4.51172l-.50781 2.39844m14.01563-2.64844l-5.76954-4.01172m5.76953 4.01172l-.28906 2.4336m13.625-2.46094l-5.8125-3.95703m5.8125 3.95703l-.26953 2.4375M200 469.21094l-5.48047-4.39453M200 469.21094l-.45703 2.41015m13.03516-1.72265l-4.00782-5.76953m4.00781 5.76953l-1.12109 2.1836m14.52344-2.2461l-4.17969-5.64453m3.57031 4.82421l-.52734 1.10938m13.59766.17578l-2.47266-6.57422m2.11328 5.61719l-.8086.92187m14.57032.00391l-2.64844-6.51172m2.26172 5.5625l-.78516.9414m15.51954-.64062l-4.71094-5.21484m4.71094 5.21484l-.83203 2.3047m14.73046-2.98829l-5.8789-3.84766m5.8789 3.84766l-.22265 2.4414m13.2461-2.05468l-5.29688-4.6211m5.29687 4.6211l-.55469 2.38672M305 470.30859l-2.4375-6.58984m2.08203 5.63281l-.8164.91406m15.04296-.21875l-3.55078-6.0664m16.79688-.03906l-3.41407 6.14453m2.91797-5.25l1.22657.02343m13.38671-.30468l-5.01562 4.91797m4.28516-4.20313l1.17187.3711m12.75-1.20704l-4.76953 5.16016m4.07422-4.41016l1.1875.3125m12.88672-1l-4.89844 5.03516m13.3711.05469l4.78515-5.14453m-4.08594 4.39453l-1.1875-.3125m13.2461.39843l5.90234-3.8164m-5.04297 3.26172l-1.07031-.59766m13.15234.38281l6.64844-2.27734m-6.64844 2.27734l-1.79297-1.67578m15.15625 1.80078l6.5547-2.52734m-6.5547 2.52734l-1.85547-1.60547m15.23829 1.77735l6.41796-2.8711m-6.41796 2.8711l-1.9336-1.50781m15.5 1.96484l5.91797-3.78516m-5.91797 3.78516l-2.14062-1.20313m15.30468.94532l6.21875-3.26953m-6.21875 3.26953l-2.02734-1.3789"/><g clip-path="url(#J)"><path fill="none" stroke="#000" stroke-linecap="round" stroke-linejoin="round" stroke-miterlimit="10" stroke-width=".5" d="M146.14844 456.47656l-4.29688-5.5586"/></g><path fill="none" stroke="#000" stroke-linecap="round" stroke-linejoin="round" stroke-miterlimit="10" stroke-width=".5" d="M146.14844 456.47656l-1.00781 2.23828m14.1328-2.09765l-3.91405-5.83594m3.91406 5.83594l-1.16016 2.16406m14.67188-2.30469l-4.3086-5.55469m3.67969 4.7461l-.5039 1.11719m15.03515-.89063l-5.48438-4.39062m4.6875 3.75l-.22656 1.20703m14.71875-1.15235l-6.2461-3.21875m5.33595 2.75l.01562 1.22657m13.73047-.0547l-5.28906-4.625m4.51953 3.95313l-.27734 1.19141m13.53515.17578l-3.63281-6.01562m3.10547 5.14062l-.6289 1.05078m13.13671.29688l-.96484-6.96094m.82422 5.94922l-.9922.71875m12.30079-.09375l3.33203-6.1875m-2.84766 5.28516l-1.22656-.00391m16.00781 1.3125l-.5703-7.0039m.48437 5.98437l-1.03125.66406m16.52734-.5625l-4.76172-5.16797m4.07031 4.41797l-.40625 1.15625m14.58985-.58203l-5.11719-4.8164m4.375 4.11718l-.32422 1.1836m15.17578-1.84376l-6.70703-2.09375m13.67188-.78515l5.99609 3.66015m8.99219-5.08203l2.64844 6.50781m8.95703-1.48437l6.0703-3.54297m-5.1875 3.02734l-1.04296-.64453m13.04297-.03906l6.9336-1.14453m-5.92579.98047l-.74219-.97656m13.10547-.27735l6.82032 1.69531m6.41406-.46484l6.98437-.76562m-5.96875.65234l-.6914-1.01172m12.97656.97656l7.01172-.46875m-7.01172.46875l-1.29297-2.08593m14.61328 1.53906l7 .625m-7-.625l-.95312-2.25781m14.26953 2.88671l7-.6328m-7 .6328l-1.34375-2.05468m14.89062 3.03125l6.53516-2.58594m-5.58594 2.20703l-.9336-.79297m13.45704 1.51563l6.21875-3.27344m-5.3125 2.79687l-1.01563-.6914m13.44922 1.21484l6.16797-3.36719m-6.16797 3.3672l-2.04687-1.35157"/><g clip-path="url(#K)"><path fill="none" stroke="#000" stroke-linecap="round" stroke-linejoin="round" stroke-miterlimit="10" stroke-width=".5" d="M142.9414 443.73438l2.1172-6.69922"/></g><path fill="none" stroke="#000" stroke-linecap="round" stroke-linejoin="round" stroke-miterlimit="10" stroke-width=".5" d="M156.40234 443.77734l1.82422-6.78515m-1.82422 6.78515l-2.39062.55078m16.09766-.46875l1.03906-6.94921m-1.03906 6.94922l-2.3125.8164m17.64453-1.11328l-2.9922-6.35938m2.9922 6.35938l-1.46875 1.96484m16.49609-3.71484l-6.41797-2.85938m5.48438 2.44532l.08593 1.22265m14.13282-.74218l-6.35938-2.98829m5.4336 2.55079l.0625 1.22656m14.16015-.7461l-6.32031-3.07421m5.39844 2.625l.04687 1.22656m13.05469.55469l-4.05078-5.7422m17.08203 5.92579l-3.48047-6.10547m14.11328 6.4375L264.77734 437m-1.60937 5.78516l-1.19922.26172m11.89063-1.4375l6.58203-2.45313m8.53515-1.95703l2.97657 6.36719m10.67187-6.5l2.3125 6.63671m-2.3125-6.63671l1.66797-1.80078m10.78906 2.23828l4.02735 5.7578m-3.44141-4.91796l.55469-1.09375m12.90234-.13672l2.57422 6.53906M329.5 438.06641l.79688-.9336m9.92187 3.02735l7.01563.4453m6.29296-.3164l7.02735.1875m-6.0039-.16015l-.54688-1.09766m13.15234-.28516l6.40234 2.89844m-5.47265-2.47656l-.07813-1.22266M380.25 441.1797l6.84375-1.58985m-5.84766 1.35547l-.80859-.92187m13.0625.78906l6.97266-.85938m-6.97266.85938l-1.41016-2.00781m14.97657.21093l6.47265 2.73438m-6.47265-2.73438l-.21875-2.4453m13.54687 2.41015l6.4414 2.8086m-5.5039-2.40235l-.09375-1.22266m12.20703 2.64453l6.97266-.84765m-6.97266.84765l-1.40625-2.01172m15.14844 3.31641l6.11719-3.46094m-6.11719 3.46094l-2.0664-1.3164m15.23046 1.01953l6.41797-2.86328m-6.41797 2.86328l-1.9336-1.51172"/><g clip-path="url(#L)"><path fill="none" stroke="#000" stroke-linecap="round" stroke-linejoin="round" stroke-miterlimit="10" stroke-width=".5" d="M146.5625 424.66797l-5.125 4.80078"/></g><path fill="none" stroke="#000" stroke-linecap="round" stroke-linejoin="round" stroke-miterlimit="10" stroke-width=".5" d="M154.5039 429.17578l5.625-4.21484m-5.625 4.21484l-2.22265-1.04297m15.9414 1.4961l4.81641-5.1211m-4.8164 5.1211l-2.3672-.64453m15.36329.29687l5.45313-4.42578m-5.45313 4.42578l-2.26172-.95313m16.40234 1.69532l3.80079-5.91016m-3.2461 5.05078l-1.22265-.10156m17.52734 1.11328l-3.28516-6.21094m13.8047 6.42188l2.30468-6.63672m-1.96875 5.67188l-1.21484.1875m11.83593-2.3711l7.01953-.33594m-5.99609.28516l-.6289-1.05469m12.93359 1.2539l6.9961-.63671m-5.98048.54688l-.67187-1.02735m13.01953 1.48047l6.89453-1.35938m-5.89063 1.16016l-.77343-.95312m19.54297-1.33985l-6.01953 3.6211m14.64453-4.89453l3.36328 6.16796m-2.875-5.26953l.67578-1.02734m12.91406-.17969l1.83203 6.78516m-1.83203-6.78516L304.65625 422m11.96484 1.58594l.94922 6.96484m-.94922-6.96484l1.9922-1.4336m10.5 1.65235l2.59374 6.52734m-2.21484-5.57812l.79297-.9375m12.96484-.23047l.95313 6.96484m-.81641-5.94922l.9961-.71875m12.36327-.3164l.58985 7.0039m-.5039-5.98437l1.03124-.66407m9.03906 2.51172l6.91016 1.26953m-5.90625-1.08593l-.3711-1.16797m13.5586 4.00781l5.15625-4.77734m-4.40625 4.08203l-1.16016-.40235m13.54688.88672l5.51172-4.35547m7.20703 1.125l6.70312 2.10547m-5.72656-1.79687l-.22656-1.20703m15.35156-1.51563l1.1289 6.9336m-.96484-5.92579l.97657-.74218m13.14843-.28907l-.8164 6.98047m13-6.92968l1.44922 6.8789m-1.23828-5.875l.9375-.78906m9.64453 4.5664l6.49218-2.68359m-5.55078 2.29297l-.94531-.78125"/><g clip-path="url(#M)"><path fill="none" stroke="#000" stroke-linecap="round" stroke-linejoin="round" stroke-miterlimit="10" stroke-width=".5" d="M147.42578 414.53906l-6.85156-1.57031"/></g><path fill="none" stroke="#000" stroke-linecap="round" stroke-linejoin="round" stroke-miterlimit="10" stroke-width=".5" d="M146.42969 414.3086l.3164 1.1875m14.07813-1.54688l-7.01563-.39453m5.9922.33984l.51562 1.11328m13.33203-3.05469l-6.03516 3.60157m12.9961-.6914l6.66796-2.21876m-5.6953 1.89453l-.89063-.84375m13.0703.38281l6.9961-.64843m-5.97656.55468l-.67578-1.02734m13.53516 2.72656l5.87109-3.85937m-5.01953 3.29687l-1.07422-.58593m13.1875.46484l6.57031-2.49219M220.60547 415l-1.84375-1.61719m15.16797 1.63672l6.55469-2.53516m-6.5547 2.53516l-1.85546-1.60547m14.95312.73438l6.98438-.78907m-6.98438.78907l-1.38672-2.02344m14.85547 2.71875l6.6797-2.17969m-6.6797 2.17969l-1.76953-1.69922m14.9414 1.08203l6.96485-.94531m-5.94922.80469l-.71875-.9961m15.04297-2.53515l2.91406 6.39453m-2.48828-5.46485l.7461-.97265m11.57422.3711l4.05468 5.73827m-4.05468-5.73828l1.10156-2.1914m13.55469 1.61718l1.37109 6.89063m-1.3711-6.89063l1.90235-1.55468m12.49219 1.5078l-.78907 6.98438m.78907-6.98437l2.28125-.90235m11.49218.98438l-1.70312 6.8164m1.45703-5.82421l1.1875-.29688m13.46484-.21093l-3.88671 5.85156m3.32421-5l1.21875.1211m12.98829-.72657l-4.54688 5.35937m3.88672-4.57812l1.19922.26172m13.72265.23047l-6.4375 2.8125m5.5-2.40235l.96094.76172m13.03906-1.64453l-5.93359 3.75781m5.07031-3.21094l1.06641.60547m12.9961-1.32812l-5.69923 4.10937m4.8672-3.51172l1.10155.53907m13.51563-.23047l-6.64063 2.29687m6.64063-2.29687l1.79687 1.67187m10.10157-3.47656l-3.8086 5.90625m3.25391-5.04687l1.22266.10546m11.66796-1.40234l-1.85156 6.77735m1.58203-5.78907l1.19922-.26953m14.3086.61328l-5.69532 4.11719"/><g clip-path="url(#N)"><path fill="none" stroke="#000" stroke-linecap="round" stroke-linejoin="round" stroke-miterlimit="10" stroke-width=".5" d="M143.2539 403.8711l1.4922-6.8672"/></g><path fill="none" stroke="#000" stroke-linecap="round" stroke-linejoin="round" stroke-miterlimit="10" stroke-width=".5" d="M154.02344 401.66797l6.58203-2.45703m13.38281 2.2539l-6.71875-2.05468m16.05469 4.48828l1.24219-6.91797m9.18359 3.33203l7.02344.25m-6.0039-.21094l-.53517-1.10547m12.91016 1.94922l6.86328-1.51562m-6.86328 1.51562l-1.59375-1.86719m15.00781 2.22266l6.66407-2.22265m-6.66407 2.22265l-1.78125-1.6914m14.94922 1.0703l6.95703-.98437m-6.95703.98438l-1.44531-1.98438m15.70703 3.92969l5.0625-4.875m-4.32422 4.16797l-1.16797-.38281m13.2461.42968l6.0625-3.55468m-5.17969 3.03906l-1.04688-.64453m13.1211.3164l6.77734-1.86718m-5.78906 1.59765l-.84375-.89453m13.17969 1.1875l6.76172-1.91015m-5.78125 1.6328l-.84766-.88671m13.2461-.95703l6.6289 2.32812m-5.66406-1.98828l-.1836-1.21484m14.03907-.97266l3.62109 6.02344m-3.09375-5.14453l.63281-1.05469m13.0039-.1914l1.92579 6.7578m-1.64844-5.77343l.88672-.85156m15.61328.78125l-5.0039 4.93359m5.0039-4.9336l2.34375.73438m10.8789-.82422l-4.8164 5.11328M358.75 398.625l1.1836.32422m10.67187-2.01563l-.4961 7.00782m.42188-5.98829l1.1211-.49609m13.48046-.21484l-2.92187 6.39062m2.4961-5.46094l1.22265-.07421m10.46875-1.125l1.17578 6.92968m-1.17578-6.92968l1.9414-1.4961m15.42578 4.3711l-6.92578 1.18359m17.77344-3.96094l-1.9961 6.73828m17.66407-4.43359l-6.69922 2.125m5.72266-1.8164l.8789.85937M449.52344 397l1.44531 6.875M449.73437 398l.94141-.78516m10.21484 5.50391l5.34375-4.5625m-4.5664 3.89844l-1.14063-.44922"/><g clip-path="url(#O)"><path fill="none" stroke="#000" stroke-linecap="round" stroke-linejoin="round" stroke-miterlimit="10" stroke-width=".5" d="M145.58984 390.25781l-3.17968-6.26562"/></g><path fill="none" stroke="#000" stroke-linecap="round" stroke-linejoin="round" stroke-miterlimit="10" stroke-width=".5" d="M145.1289 389.34375l-.70702 1.0039m14.21484.03126l-2.64453-6.51172m2.25781 5.5625l-.78516.9414m13.57422.2422l-.82031-6.98048m.70313 5.96485l-1.01172.69921m16.34375-.52734l-4.6211-5.29297M185.58203 389l-.4375 1.14453m15.1211-1.19922l-6.00782-3.64453m5.13281 3.11328l-.0703 1.22656m10.9414-6.01562l.6289 6.9961m-.53906-5.98048l1.02735-.66796m9.01953 3.51953l6.98437-.73828m-6.98437.73828l-1.375-2.03125m17.71875 5.14453l.92578-6.96485m-.79297 5.95313l-1.14844.42578m13.42188.33594l2.7461-6.46485m-2.34767 5.52735l-1.22265.10547m16.51172.96875l-2-6.73828m1.70703 5.7578l-.8711.85938m15.98829-.78906l-5.01953-4.91797m14.64062 5.76563l2.36719-6.61328m-2.02344 5.65234l-1.21484.17578m18.875-2.28906l-7.01172-.46485m5.99219.39844l.5039 1.11719m10.53906-4.78906l-.42578 7.01172m14.55078-3.50391l-.01953-.20313-.0586-.1914-.09374-.17578-.46094-.375-.1914-.0586-.19922-.01953-.19922.01953-.1914.0586-.45704.375-.09766.17578-.05859.1914-.01953.20313.01953.19922.0586.1914.09765.17579.45703.375.1914.05859.19923.01953.19922-.01953.1914-.0586.46094-.375.09375-.17577.0586-.19141.01952-.19922m14.66016-2.59766l-4.73437 5.19532m4.04296-4.44141l1.19141.30469m12.26563-1.46875l-3.63672 6.01172m3.10547-5.13672l1.22656.0664m12.72656-.875l-3.85156 5.87891m3.29297-5.02344l1.21875.11328m9.8203-1.42187l1.82032 6.78515m-1.5586-5.79687l.89845-.83984m11.99609-.10157l2.13672 6.69532m-1.82422-5.72266l.85547-.8789m15.83594 5.59374l-5.23829-4.68359m4.47657 4.0039l-.29297 1.19141m11.8711.65625l-.2461-7.01953m16.3789 1.58203l-5.8789 3.85547m5.02344-3.29297l1.07421.58985m12.80079-1.53907l-5.28907 4.62891m4.51953-3.95703l1.14844.4375m8.38672 4.16015l3.8086-5.90625"/><g clip-path="url(#P)"><path fill="none" stroke="#000" stroke-linecap="round" stroke-linejoin="round" stroke-miterlimit="10" stroke-width=".5" d="M146.13672 376.59766l-4.27344-5.57813"/></g><path fill="none" stroke="#000" stroke-linecap="round" stroke-linejoin="round" stroke-miterlimit="10" stroke-width=".5" d="M146.13672 376.59766l-1.01563 2.23046m14.13282-2.08984l-3.87891-5.85937m3.8789 5.85937l-1.17187 2.15625m15.46094-3.125l-5.82813-3.92578m4.98047 3.35547l-.125 1.22265m14.375-.78125l-6-3.66406m5.125 3.1289l-.07422 1.22657m13.77735-4.97656l-5.02735 4.90625M211.75391 370.5l-2.35938 6.61719m15.9375-6.51563l-2.88281 6.41016m15.6875.1836l-1.86328-6.77344m1.58984 5.78906l-.89062.83984M247.01172 374l7.01562-.38672m-5.99609.33203l-.63281-1.05078m17.89453 4.10938l-2.91406-6.39454m2.48828 5.46485l-.7461.97265m16.07813-1.49218l-6.09766-3.49219m19.7539 2.67188l-6.78124-1.85157m5.79297 1.58203l.27343 1.19532m14.11329-2.39063l-6.94532 1.07813m5.9336-.92188l.73437.98438m12.71485-2.96875L314.5 376.17578m4.4375-4.04687l1.15625.41406m7.9375-1.32031l4.75781 5.17187m-4.0664-4.41797l.41015-1.16015m11.38672 1.55859l6.41406 2.86719m-5.48047-2.44922l-.08593-1.22656m12.39843.97656l6.5547 2.53125m-5.60157-2.16406l-.14844-1.21875m12.75 3.8828l6.07422-3.53124m9.45313-1.64844l1.64843 6.82813m-1.41015-5.83594l.91797-.8125m9.51171 2.67578l6.94141 1.11328m8.28906 2.59766l3.10938-6.30469m-2.65625 5.38672l-1.22656.03515m16.1289-5.75l-.96875 6.96094m11.19922-5.84375l5.19922 4.72656m7.48437-3.74609l6.46094 2.76563m-6.46094-2.76563l-.20703-2.44531m15.69922.47656l2.10938 6.70313m-2.10938-6.70313l1.72266-1.75"/><g clip-path="url(#Q)"><path fill="none" stroke="#000" stroke-linecap="round" stroke-linejoin="round" stroke-miterlimit="10" stroke-width=".5" d="M145.66016 363.58984l-3.32032-6.1914"/></g><path fill="none" stroke="#000" stroke-linecap="round" stroke-linejoin="round" stroke-miterlimit="10" stroke-width=".5" d="M145.17578 362.6875l-.67969 1.01953m14.98047-.44531l-4.32422-5.53906m3.69532 4.73437l-.4961 1.1211m14.94922-.80079l-5.33984-4.5664m4.5625 3.90234l-.26563 1.19531m8.98047-.57421l5.41406-4.48438m-4.625 3.83203l-1.13672-.46484m12.86329-.90235l7.01172-.4453m-7.01172.4453l-1.28907-2.08593m14.71875 2.78125l6.78516-1.83594m-6.78516 1.83594l-1.67578-1.78907m21.77735-.03125l-6.78907 1.8086m6.78907-1.8086l1.67187 1.79688m11.41016-2.42578l-6.32422 3.0625m6.32422-3.0625l1.98047 1.44922m10.67578 2.55078l-5.0039-4.9336m4.27343 4.21485l-.34766 1.17578m14.33594-.40235l-4.89063-5.04687m4.1797 4.3125l-.37891 1.16797m15.3789-2.15235l-6.83984-1.60937m5.84375 1.375l.3125 1.1875m12.98437.80469l-4.80859-5.125m4.8086 5.125l-.79297 2.32422m13.42578-1.82422l-3.44922-6.1211m2.94922 5.23047l-.66016 1.03125m9.67188-1.51562l6.16015-3.375m7.21485 3.48437l6.03906-3.59375m8.48437-1.21094l3.625 6.01954m-3.09765-5.14454l.6289-1.05078m11.36719 5.54297l5.20703-4.71875m-5.20703 4.71875l-2.3086-.83203m15-.13672l6.45313-2.78125m-5.51172 2.3789l-.96093-.76562m13.20312.81641l6.71484-2.07422m-5.73437 1.76953l-.8711-.86328m13.07032.48047l6.98828-.70313m-5.97266.60157l-.67968-1.01953m13.41796 2.5039l6.10938-3.46875m-5.22266 2.96485l-1.03515-.65625m13.23437-1.82032l6.57031 2.4922m-5.61328-2.12892l-.15625-1.21875m13.3711-.4375l4.85547 5.07813m-4.85547-5.07813l.76953-2.32812m11.51953 4.23047l6.91016 1.27734m-6.91016-1.27734l-.74219-2.33985m14.36719 1.40625l6.28516 3.14454m-6.28516-3.14454l-.0586-2.45312"/><g clip-path="url(#R)"><path fill="none" stroke="#000" stroke-linecap="round" stroke-linejoin="round" stroke-miterlimit="10" stroke-width=".5" d="M147.11719 348.79688l-6.23438-3.23829"/></g><path fill="none" stroke="#000" stroke-linecap="round" stroke-linejoin="round" stroke-miterlimit="10" stroke-width=".5" d="M146.21094 348.32813l.01172 1.22656m14.18359-.70703l-6.1836-3.33985m12.9375 2.22266l6.94141-1.10156m-5.9336.9414l-.73827-.98047M180.5 346.4961l6.89063 1.36329M181.5 346.6953l-.35156-1.17578m12.9414 3.16797l6.34375-3.01953m-6.34375 3.01953l-1.97265-1.46094m2.89453 1.02344l-.98828-.73047m13.14062.5039l6.82031-1.6914m-6.8203 1.6914l-1.64063-1.82421m2.63281 1.57812l-1.64063-1.82421m15.51563 4.20703l3.71875-5.96485m-3.17578 5.09766l-1.22656-.08594m19.24218-2.98047l-6.76562 1.90235m6.76562-1.90235L242.28125 348m11.5625.3164l-6.64844-2.27734m6.64844 2.27735l.39063 2.42187m12.51171-1.59375l-5.8203-3.9336m5.8203 3.9336l-.2578 2.4414m11.65624-1.03906l-1.98828-6.73828m1.98828 6.73829l-1.75 1.71875m16.78125-2.85157l-5.42187-4.47265m4.6328 3.8203l-.24608 1.20313m10.78906.6211l1.70312-6.8164m-1.45703 5.82421l-1.1914.29688m11.61718-3.0625l6.99219.69921m-5.97656-.59765l-.46485-1.13281m19.48047-.01954l-6.44531 2.80079m13.80078-3.60157l5.47656 4.40235m-4.67968-3.76172l.23047-1.20313m12.18359.69922l5.6836 4.1289m-5.6836-4.1289l.33984-2.42969m12.38282 5.2422l6.86718-1.4961m-6.86718 1.4961l-1.58594-1.8711m2.58594 1.65234l-.79297-.9336m13.1328 1.25782l6.81642-1.70703m-6.81641 1.70703l-1.64063-1.82422m14.875.5586l6.98047.82421m-6.98047-.82421l-.88671-2.28907m14.28125 3.53906l6.82421-1.67578m-6.82421 1.67579l-1.63672-1.83204m14.92968 1.73438l6.8672-1.48047m-6.8672 1.48047l-1.58593-1.875m14.8203 1.15234l7.02735-.03515m-6.0039.03125l-.58203-1.08204m19.66796-.1875l-6.5625 2.51563m5.60938-2.15234l.92578.80468m10.32031-3.41406l-.51953 7.00781m.51953-7.0078l2.2461-.9922"/><g clip-path="url(#S)"><path fill="none" stroke="#000" stroke-linecap="round" stroke-linejoin="round" stroke-miterlimit="10" stroke-width=".5" d="M147.44922 333.1914l-6.89844 1.33985"/></g><path fill="none" stroke="#000" stroke-linecap="round" stroke-linejoin="round" stroke-miterlimit="10" stroke-width=".5" d="M159.2461 330.92969l-3.86329 5.86719m3.30078-5.01563l1.22266.11328m12.41797-1.10937l-3.38672 6.15625m3.38672-6.15625l2.45312.03125m10.07032-.34766l-1.8047 6.78906m1.8047-6.78906l2.38672-.5586m-2.64844 1.54688l1.1914-.28125m7.9961 3.1289l6.97265-.8828m-5.95703.7539l-.70703-1.0039m15.16797 3.9453l2.65234-6.5078m11.91797 6.76562l.14063-7.02344m-.14063 7.02344l-2.1875 1.10938m2.20703-2.12891l-1.09375.55469m16.4922-5.91407l-4.0625 5.73438m3.46874-4.89844l1.21875.15235m14.08594 1.12109l-6.85938 1.51562m5.86328-1.29687l.79688.9336m13.47266.53515l-6.77344-1.85938m6.77344 1.85938l.53906 2.39453m11.48047-.5l-4.1836-5.64844m4.1836 5.64844l-1.05469 2.21484m13.6836-1.8203l-2.8086-6.44142m2.39844 5.50782l-.76172.96094m12.21094.15625l1.73828-6.8086m11.29297 6.72266l2.30859-6.63672m9.69531 5.82422l4.92969-5.00781m-4.21094 4.28125l-1.17578-.35157m14.6836-4.57812l3.10937 6.30469m12.96484-6.45313l-2.41015 6.60156m2.41015-6.60156l2.4297-.33984m-2.78126 1.30078l1.21485-.16797m14.41796 1l-6.34375 3.01562m6.34375-3.01562L375.5 333.8164m-2.89453-1.02344l.98437.73047m11.92579-2.64844l-3.69141 5.97656m3.6914-5.97656l2.44922.15625m8.1875-.58203l1.66797 6.82812m-1.66797-6.82812l1.83204-1.63281m-1.58985 2.625l.91797-.81641m9.57422 2.41016l6.82812 1.65625m-6.82812-1.65625l-.60938-2.37891m13.90625 3.94922l6.8672-1.48438m-5.8672 1.26954l-.79296-.9375m16.76953 3.91406l-.45703-7.01172m.45703 7.01172l-2.08594 1.29297m18.32422-3.2461l-6.30469-3.10156m5.38672 2.65234l.03906 1.22657m13.94922-4.30079l-5.8164 3.94532"/><g clip-path="url(#T)"><path fill="none" stroke="#000" stroke-linecap="round" stroke-linejoin="round" stroke-miterlimit="10" stroke-width=".5" d="M466.46875 331.89063l2.17188 1.14843"/></g><g clip-path="url(#U)"><path fill="none" stroke="#000" stroke-linecap="round" stroke-linejoin="round" stroke-miterlimit="10" stroke-width=".5" d="M141.01172 322.39844l5.97656-3.69922"/></g><path fill="none" stroke="#000" stroke-linecap="round" stroke-linejoin="round" stroke-miterlimit="10" stroke-width=".5" d="M159.3086 317.65234l-3.98438 5.78907m3.40234-4.94532l1.21875.14063m13.30469-.4336l-5.23828 4.6875m5.23828-4.6875l2.30078.84766M186 317.69922l-4.10938 5.69922M186 317.69922l2.4336.33203m-3.03126.4961l2.4297.33202m12.55468.08594l-6.2539 3.20313m6.2539-3.20313l2.01562 1.40625m-2.92578-.9375l1.00781.69922m13.27344-1.0586l-6.36328 2.98438m6.36328-2.98437l1.96094 1.47265m-2.88672-1.03906l.98047.73828m12.98047 2.30469l-5.80469-3.96484m5.80469 3.96484l-.27344 2.4375m13.08203-1.85156l-4.79297-5.13672m4.79297 5.13672l-.79687 2.32031m15.13281-4.07031l-6.83203-1.64063m6.83203 1.64063l.61328 2.375m11.11719-.19531l-3.66406-5.9961m3.1328 5.1211l-.625 1.05859m14.51954-.21485l-3.76172-5.93359m3.76172 5.9336l-1.21094 2.1328m11.7461-1.70312l1.80078-6.79297m-1.53906 5.8047l-1.19532.27733m11.80078-1.62109l6.69532-2.1289m7.75-1.66016l4.43359 5.44922m-4.4336-5.44922l.95313-2.26172m13.52735 1.63281l2.10156 6.70703m-2.10156-6.70703l1.72656-1.7461m9.48828 6.64845l6.30469-3.10157m13.46875.36329l-6.61328 2.375m5.65234-2.02735l.90625.82422m12.9414-1.9961l-5.7578 4.02735m5.7578-4.02734l2.1875 1.11328m-3.02343-.52735l1.09375.5586m11.64453-2.32422l-2.92969 6.38672m2.92969-6.38672l2.44922-.14453m-2.875 1.07422l1.22265-.07422m12.77344-.72656l-3.4414 6.125m3.4414-6.125l2.45313.05859m-2.95313.83203l2.45313.0586m12.125-.3711l-4.96875 4.96875m4.24609-4.2461l1.17188.35938m11.14453 4.83203l-1.52344-6.85937m1.52344 6.85937l-1.8672 1.59375m16.23438-2.01562l-3.6289-6.01563m3.6289 6.01563l-1.26171 2.10547m.73437-2.98047l-.6289 1.05469m16.16796-3.08594l-7.02343-.19922m7.02343.19922l1.08985 2.19531m-2.10938-2.22656l.54297 1.10156m12.83594-3.58203l-5.11328 4.82031"/><g clip-path="url(#V)"><path fill="none" stroke="#000" stroke-linecap="round" stroke-linejoin="round" stroke-miterlimit="10" stroke-width=".5" d="M466.11719 318.13672l2.32422.78515"/></g><path fill="none" stroke="#000" stroke-linecap="round" stroke-linejoin="round" stroke-miterlimit="10" stroke-width=".5" d="M465.375 318.83984l2.32422.78516"/><path fill="#00f" fill-rule="evenodd" d="M210.70313 467.64844h8.62109V457.5039h-8.6211v10.14453"/><path fill="azure" fill-rule="evenodd" d="M212.53906 459.33594h.83203v2.82422h3.28516v-2.82422h.83203v6.48047h-.83203v-2.91797h-3.28516v2.91797h-.83203v-6.48047"/><path fill="#00f" fill-rule="evenodd" d="M383.80078 436.57813h8.61719v-10.14454h-8.61719v10.14454"/><path fill="azure" fill-rule="evenodd" d="M385.63281 428.26563h.83203v2.82421h3.28907v-2.82421h.83203v6.48046h-.83203v-2.91406h-3.28907v2.91406h-.83203v-6.48046"/><path fill="#00f" fill-rule="evenodd" d="M228.45703 418.82813h8.6211v-10.14844h-8.6211v10.14844"/><path fill="azure" fill-rule="evenodd" d="M230.28906 410.51172h.83594v2.82422h3.28516v-2.82422h.83203v6.48047h-.83203v-2.91406H231.125v2.91406h-.83594v-6.48047"/><path fill="#ff3030" fill-rule="evenodd" d="M193.64453 325.6211h7.69531v-10.14454h-7.6953v10.14453"/><path fill="azure" fill-rule="evenodd" d="M195.47656 317.3086h.83594v5.73827h3.1914v.7422h-4.02734v-6.48048"/><path fill="#ffffe0" fill-rule="evenodd" d="M248.53906 371.02344h22.17969v-10.1914h-22.17969v10.1914"/><path fill-rule="evenodd" d="M252.03906 362.66406h.50781v6.29688h-.78515v-4.49219h-1.39063v-.55469l.5586-.0664.2539-.05079.23047-.08984.20313-.14453.17187-.20703.14453-.29688.10547-.39453m4.8125 0l.23047.01953.21875.0547.20703.08983.19531.1211.1836.14844.17187.17578.3047.42187.24218.49219.17969.54688.10937.57812.03906.59375-.03906.58984-.10937.58594-.1797.55469-.24218.5-.30469.42969-.17187.17968-.1836.15235-.1953.125-.20704.08984-.21875.0586-.23047.01953-.23047-.01954-.21875-.05859-.20703-.08984-.19531-.125-.1836-.15235-.17187-.17968-.30469-.4297-.24218-.5-.1797-.55468-.10937-.58594-.03906-.58984h.83203l.02735.5625.08203.5039.1289.44532.16016.3711.1914.30077.21094.22266.22266.13672.22656.04687.22656-.04687.22266-.13672.21094-.22266.1914-.30078.16016-.3711.1289-.4453.07813-.50391.03125-.5625-.03125-.5625-.07812-.5-.1289-.4375-.16017-.36328-.1914-.29297-.21094-.21484-.22265-.13282-.22657-.04296-.22656.04296-.22266.13282-.21093.21484-.19141.29297-.16016.36328-.1289.4375-.08203.5-.02735.5625h-.83203l.03906-.59375.10938-.57813.17969-.54687.24218-.49219.3047-.42187.17187-.17578.18359-.14844.19531-.1211.20703-.08984.21875-.05469.23047-.01953m5.08985 0h.51171v6.29688h-.78906v-4.49219h-1.38672v-.55469l.5586-.0664.2539-.05079.22657-.08984.20703-.14453.17187-.20703.14063-.29688.10547-.39453m2.82421 2.17578h.78907l.01953-.3164.0586-.28516.09765-.2539.14062-.21485.1797-.17578.22655-.1289.26563-.07813.30469-.02735.23828.01954.22656.0625.20313.10156.17968.14062.14844.17188.11328.20703.07031.23438.02344.26562-.01953.26953-.0664.22266-.10938.1914-.15625.17188-.19922.16406-.2461.16406-.63671.39063-.53516.3125-.4375.3164-.34765.32422-.26563.33594-.1875.35156-.125.3711-.07031.39062-.01953.42188h4.21093v-.74219h-3.33203l.08203-.28516.11329-.23437.14843-.20313.1875-.17968.23047-.17188.27735-.17578.71875-.41797.41406-.20312.34765-.23047.28125-.2539.21875-.26563.16407-.27735.10937-.28515.0664-.28516.01954-.28125-.04297-.38281-.1211-.34766-.1875-.3086-.25-.26171-.30468-.21485-.34375-.15625-.38281-.09765-.40625-.03516-.4336.03125-.39844.10156-.35546.16407-.3047.23437-.24608.30469-.1875.375-.1172.44531-.03906.51953"/><path fill="#ffffe0" fill-rule="evenodd" d="M372.8125 395.76953h22.17969v-10.1914H372.8125v10.1914"/><path fill-rule="evenodd" d="M376.3125 387.41016h.50781v6.29687h-.78515v-4.48828h-1.39063v-.5586l.5625-.0625.25-.05468.23047-.08985.20313-.14062.17187-.21094.14453-.29297.10547-.39843m4.8125 0l.23047.01953.21875.0586.20703.08983.19531.1172.1875.15234.16797.17578.30469.41797.24219.49218.17968.54688.11329.58203.03515.58984-.03515.59375-.11329.58204-.17968.55468-.2422.5039-.30468.42579-.16797.17969-.1875.15234-.19531.125-.20703.09375-.21875.05469-.23047.01953-.23047-.01953-.21875-.05469-.20703-.09375-.19531-.125-.1836-.15234-.17187-.17969-.30078-.42578-.2461-.5039-.17968-.5547-.10938-.58203-.03906-.59375h.83203l.03125.5625.08203.50782.125.4414.16016.375.1914.30078.21094.21875.22266.13672.22656.04688.22656-.04688.22266-.13672.21094-.21875.1914-.30078.16016-.375.1289-.4414.08204-.50782.02734-.5625-.02734-.5625-.08204-.5-.1289-.43359-.16016-.36719-.1914-.29297-.21094-.21484-.22266-.1289-.22656-.04688-.22656.04687-.22266.12891-.21094.21484-.1914.29297-.16016.36719-.125.4336-.08203.5-.03125.5625h-.83203l.03906-.58985.10938-.58203.17968-.54688.2461-.49218.30078-.41797.17187-.17578.1836-.15235.19531-.11719.20703-.08984.21875-.0586.23047-.01952m5.09375 0h.50781v6.29687h-.78906v-4.48828h-1.38672v-.5586l.5586-.0625.2539-.05468.23047-.08985.20313-.14062.17187-.21094.14063-.29297.10937-.39843m2.82031 2.17578h.78906l.01954-.3164.05859-.28517.09766-.2539.14062-.21485.1836-.17187.22265-.1289.26563-.08204.30859-.02734.23438.02344.22656.0625.20312.10156.17969.13672.14844.17578.11328.20312.07031.23829.02735.26171-.02344.26954-.0664.22656-.10938.1914-.15625.17188-.19922.16015-.2461.16797-.63671.38672-.53516.3125-.4375.3164-.34766.32813-.26562.33204-.1875.35156-.125.3711-.07031.39452-.01954.41797h4.21094v-.74219h-3.33203l.08203-.28125.11328-.23828.14844-.20312.1875-.17969.23047-.17188.28125-.17578.71484-.41406.41406-.20703.34766-.23047.28125-.25.21875-.26953.16406-.27734.10938-.28125.0664-.28516.01954-.28125-.04297-.38281-.1211-.35156-.1875-.3047-.25-.26562-.30468-.21094-.34375-.16015-.37891-.09766-.40625-.03515-.4375.03515-.39844.09766-.35547.16797-.30468.23437-.2461.30469-.1875.3711-.11328.44921-.04297.51563"/></g></defs><use xlink:href="#W"/></svg>