<svg xmlns="http://www.w3.org/2000/svg" role="img" xmlns:xlink="http://www.w3.org/1999/xlink" viewBox="142.45 309.95 326.84 171.84"><defs><clipPath id="a"><path d="M144 420h1v60.32813h-1zm0 0"/></clipPath><clipPath id="b"><path d="M144 311.67188h1V407h-1zm0 0"/></clipPath><clipPath id="c"><path d="M144 311.67188h324v168.65625H144zm0 0"/></clipPath><clipPath id="d"><path d="M467 311.67188h1v168.65625h-1zm0 0"/></clipPath><clipPath id="e"><path d="M144 477h3v3.32813h-3zm0 0"/></clipPath><clipPath id="f"><path d="M154 478h7v2.32813h-7zm0 0"/></clipPath><clipPath id="g"><path d="M167 477h7v3.32813h-7zm0 0"/></clipPath><clipPath id="h"><path d="M181 477h6v3.32813h-6zm0 0"/></clipPath><clipPath id="i"><path d="M195 477h5v3.32813h-5zm0 0"/></clipPath><clipPath id="j"><path d="M208 476h5v4.32813h-5zm0 0"/></clipPath><clipPath id="k"><path d="M221 477h6v3.32813h-6zm0 0"/></clipPath><clipPath id="l"><path d="M234 477h6v3.32813h-6zm0 0"/></clipPath><clipPath id="m"><path d="M247 477h7v3.32813h-7zm0 0"/></clipPath><clipPath id="n"><path d="M260 478h8v2.32813h-8zm0 0"/></clipPath><clipPath id="o"><path d="M273 478h8v2.32813h-8zm0 0"/></clipPath><clipPath id="p"><path d="M287 477h7v3.32813h-7zm0 0"/></clipPath><clipPath id="q"><path d="M301 477h6v3.32813h-6zm0 0"/></clipPath><clipPath id="r"><path d="M315 476h4v4.32813h-4zm0 0"/></clipPath><clipPath id="s"><path d="M327 478h7v2.32813h-7zm0 0"/></clipPath><clipPath id="t"><path d="M341 477h6v3.32813h-6zm0 0"/></clipPath><clipPath id="u"><path d="M354 477h6v3.32813h-6zm0 0"/></clipPath><clipPath id="v"><path d="M369 476h3v4.32813h-3zm0 0"/></clipPath><clipPath id="w"><path d="M380 478h7v2.32813h-7zm0 0"/></clipPath><clipPath id="x"><path d="M393 478h8v2.32813h-8zm0 0"/></clipPath><clipPath id="y"><path d="M393 480h3v.32813h-3zm0 0"/></clipPath><clipPath id="z"><path d="M406 478h8v2.32813h-8zm0 0"/></clipPath><clipPath id="A"><path d="M406 480h3v.32813h-3zm0 0"/></clipPath><clipPath id="B"><path d="M420 478h8v2.32813h-8zm0 0"/></clipPath><clipPath id="C"><path d="M418 480h3v.32813h-3zm0 0"/></clipPath><clipPath id="D"><path d="M433 478h8v2.32813h-8zm0 0"/></clipPath><clipPath id="E"><path d="M447 477h7v3.32813h-7zm0 0"/></clipPath><clipPath id="F"><path d="M460 478h7v2.32813h-7zm0 0"/></clipPath><clipPath id="G"><path d="M460 480h2v.32813h-2zm0 0"/></clipPath><clipPath id="H"><path d="M144 464h3v6h-3zm0 0"/></clipPath><clipPath id="I"><path d="M144 450h3v7h-3zm0 0"/></clipPath><clipPath id="J"><path d="M144 436h2v8h-2zm0 0"/></clipPath><clipPath id="K"><path d="M144 424h3v6h-3zm0 0"/></clipPath><clipPath id="L"><path d="M144 412h4v3h-4zm0 0"/></clipPath><clipPath id="M"><path d="M144 396h1v9h-1zm0 0"/></clipPath><clipPath id="N"><path d="M144 383h2v8h-2zm0 0"/></clipPath><clipPath id="O"><path d="M144 370h3v7h-3zm0 0"/></clipPath><clipPath id="P"><path d="M144 357h2v7h-2zm0 0"/></clipPath><clipPath id="Q"><path d="M144 345h4v5h-4zm0 0"/></clipPath><clipPath id="R"><path d="M144 333h4v2h-4zm0 0"/></clipPath><clipPath id="S"><path d="M466 331h2v3h-2zm0 0"/></clipPath><clipPath id="T"><path d="M144 318h4v5h-4zm0 0"/></clipPath><clipPath id="U"><path d="M465 317h3v3h-3zm0 0"/></clipPath><g id="V" clip-path="url(#clip1)"><path fill="#fff" fill-opacity="0" fill-rule="evenodd" d="M0 0h1000v1000H0zm0 0"/><path fill="#d3d3d3" fill-opacity="0" fill-rule="evenodd" d="M162.15234 355.86719l-.23437.29297.0586.23437.11718.17188.17578.23437.29297.34766.11328.0586.11719-.17188.0586-.23438.17577-.17578.46485-.17578h.69922l.23437.29297.28906.8164.0586.17579.17578.23046.35156.23438.69922.69922.17188.17578.23437.34765.23438.41016.28906.58203.41015.46485.23047.23437.23438.17578.11719.23047.17578.29297.17187 1.16406v.23438l.0586.28906.05859.11719.11719.11719.34765.41015.11719.17188.17578.17578.17578.23437.11719.17188.17188.35156.05859.23438.23437.40625.23438-.0586-.17578.17578-.0586.92969h-.58203l-.23437-.11328-.34766.11328-.11719.11719-.05859.29297-.0586.17578-.11718.17187-.46484.29297-.0586.23438-.0586.11328v.64453l.0586.17187v.41016l.0586.0586v.40624l.05859.40625.11719.17579.05859.05859.23047.64062-.0586.29297v.69922l-.05859.58203v.23438l-.0586.23047-.05468.35156v1.92187l.05469.1172h.42578l-.36719.11718-.02344.35156.89063 1.16797 1.74219.53906 1.33984.35938v.53906l.08984.8086.53516.71484 1.51953.26953.89063-.08594.08984 1.16406.53516.1797 1.16015-.1797 2.05469-.98437 1.16016-.36328 1.8789-.17578 1.69531-.1797-.17968.71876-1.51563.08594-1.25.08984-.80469.26953-1.07421.8086.26953.71875.53515.89843-.17968.625-.26563.8086.26563 1.07812.625.89844.80468.17969 1.25-.1797-.26562.72267.09766.5039.05468.29297v.17188l.0586.29296v.40625l.17578.1172.35156.11718h.40625l.29297-.17578.11328-.11719.0586-.11719.11718-.23047.0586-.17578.35156-.46484.23047-.17578.17578-.0586.17578.0586.0586.17578.11718.98828.05469.46875.0586.17188.11718.23437.17578.0586.8164.05859h.28907l.11719.23437.05859.40625.0586.35156v1.10547l.11718.29297.11719.34766.28906.69922.17578.35156.58203.7539.35157.17579.17187.0586.46875.23437.64063.46484.34765.23438.29297.17578.29297.05468.23047.0625.8164.34766.29297.17578.11328.17188.35157.35156.11719.17578.52343.64063v.28906l.0586.35156v.34766l.05859.35156.0586.28906.11718.0586.17188.05859h.17578l.58203.23437.17578.1172.17578.28905.17578.23438.11328.23437.29297.23047.11719.11719v.41016l.0586.05468.28906.23438.23437.11719.0586.11718.11718.17188.0586.11719.23047.23437.05859.17578.23437.0586.1172.05859-.1172.11328-.05859.11719v.11719l-.11719.29296-.11719.28907v.58203l.17579.11719.11718.05859.0586.11719.11719.11719.11328.05859.17578.34765.0586.35157.05858.40625v.17578l-.05859.17578-.11719.69922v.17187l.1172.17579.29296.29296h.40625l.17578.1172.11719.17187.11719.29296v.23438h-.52735l-.23047-.23438h-.23437l-.17578.0586-.0586.69922.0586.34765.11719.17579.17578.41015.11718.23047.28907.46875.17578.05469h.52344l.23437.0586.75781.64062.0586.29296v.23438l.05859.0586.23047.34765v.35156l-.11719.17188v.29297l.29297.28906.29297.17578.17187.0586.29297.17577.29297.1172.58203.40624.28906.23438.29297.17578.21875.16015.01563.01172.23047.17579.64062.52343.17578.23438.1172.17578.17577.17578.11328.17188v.64062l.1172.17578.46874.11719.58203.11719.23438.05859.23047.11328.29297.11719.11328.0586.58593.35156.28907.17187.17578.0625.17578.05469.17578.0586.69922.35155.28906.17579.23438.05468.28906.17578.23437.1172.64063.40624.29297.11719.17187.0586.23438.05859.41015.05859.23047.0586.23438.11718.0586.17188-.41017.17578.46875.0586.0586.29296.11328.23438.17578.05468.23438.0586.17578.05859.40625.11719.64062.23437.11719.17188.0586.23437v.17578l-.0586.1172-.0586.40624.23438.23438.11719.05859.34766.11719.64062.23047.17578.11718.28906.1172.17578.17577.23438.46485.58203 1.10546.17578.17579.34766.17578.17578.11719.35156.11718 1.04688.52344.23437.0586.46485.11327.29297.0586.46484.17578.75781.58203.23438.23438.34765.46484.17578.17578.28907.23438.8164.69921.29297.17579.28906.28906.29297.17578.29297.28906.69531.64063.17578.17578.29297.23437.28907.23438.46875.28906.64062.58203.34766.23438.23437.29297.34766.34765.35156.46485.9336.99218.34765.40625.11719.17579.23437.05859.11328.11719.64454.17578.23047.11328.23437.0586.29297.17577.23047.1172.9336.69921.40624.40625.23438.17578.40625.17578.23437.11719.8164.34766.34766.23437.23438.11719.29297.28906.23047.11719.7578.35156.35157.17188.23047.05859.29297.11719.23437.0586.8711.17577h.8164l.46875.23047.17188.0586.875.69921.46484.1172.29297.05858.17578.0586.23047.0586.46875.05859.34766.05859.35156.0586.40625.05859h.29297l.17187.0586v.23046l.17578.17578h.29297l.34766.0586.35156.05859.69922.11719h.64063l.46484-.23438.29297-.17578.17187-.11719.41016-.17187.28906-.17578.9336-.46485.46875-.29297.52343-.29296.46485-.17188.46484-.17578 1.05078-.46485.28906-.11718.41016-.11719.28906-.11719.52735-.17578 1.51562-.69922.58203-.34765.28907-.0586.29297-.0586.34765-.11718.875-.23047.35156-.11719h.11329l.23437-.05859.875-.23437.23438-.0586h.8125l.35156-.0586.8164-.11718.17188-.0586.35156-.05468.29297-.0586.23047-.05859.8164-.17578.17579-.0586h.34765l.23438-.05859.46484-.11718.75781-.17188.23438-.0586h.34765l.41016-.11718.28906-.0586 1.28516-.05859h.28906l.41016-.0586.23047-.05858h.17578l.875-.1172h.40625l.41015-.11718h.34766l.35156-.11328.8711-.0586h1.75l1.04687.28907.41016.11719.28906.11718.35156.11719.28907.11719 1.05078.17187.28906.0586h.29297l.29297.05859.17187.0586.41016.05859.17187.0586.1172.05858h.11718l.11719.0586.35156.0586h.11328l.41016.0664 1.92187.39453 1.92578.39453 1.51953.44922 1.69532.71875 2.14453.80469 1.60547-.71875 1.42968-.80469 1.16016-1.07813 1.25-.44921 3.03516-.71875 1.875-.35938 2.14453-1.34765 2.23437-1.25391 2.5-1.25781 1.69531-.44922 1.78516-.17969 1.16016-.26953.625.53906 1.33984-.26953.71485-.98828.98437-1.34375.44531-.17969.80469-.35937 1.875-.53907 1.78516-.44921 1.25-.26954 1.16015-.08984 1.69922-.08984 1.96094-.26954 1.25-.08984h.53906l.625-.08984h.89063l2.14453-.17969 2.41015-.17969 2.58985-.08984 1.69531.17969 1.60938.08984 1.42968.35938 1.16016.71875 1.875.98828 1.16015 1.52734.26563.71484.6289.08985.35548.89844.53515.53906.53516 1.52734 1.07422.35938h.53515l-.80469.53515.08985 1.70703.71484 2.69532.89063.80468.89453.98829.71484 1.2578 1.78516.53907 1.51953-.17969.35547 1.34375 1.60937-.80469.98047-.53906.26953.26953.31641-.21484.21875-.14453.80078.44922.44922-.35938h.35547l.53515-.26953.53907-.71875.53515-.26953.625-.98828 1.16016.44922.83984.3711 1.39454.61718 1.6953-.17969h1.60548l1.78515.08985.17969-1.70704.53516-1.34375.80468.26954.4922.84765.40233.40625-.08984.53906v.35938l.71485.44922.71093-.26953h1.42969l.35938.98828.4453 1.25781.71485 1.34375 1.25.6289 1.69531.62891.71485-.17969.17969-.53906.98046-.08984.44922.35937.08594 1.25782-.26563.6289-.53515.17969v.53906l.71484.98438.26563.53906.98437.98828.80078 1.07813-.26562.35937-.08985.89844-.625 2.33203-.35546 2.0664-.08985 1.79298-.17969.71875-.08984.53906v1.4375l-.98047 1.88281-.35937 1.70703-.53516.89844-.80469 1.16797-.26562.53906 2.05469 1.2539.08593.35938-.35546.53906-.08985-.17968v.80859l.08985 1.4375-.44532.71484-1.07422.09375-.26562.71485.53515.89844.8047.71875 1.16015.80859 1.33984.26953.44531.35938-.35546.44921-1.78907-.08984-1.25-.44922-.71484-.71875-.625-.08984-.17578 3.58984-.1875 1.3086h89.35937V311.70313h-55.26953v49.08203l.76172.125 3.28906.54296 2.02344 2.83594v2.7539l2.35156.33204 2.34766.33203h4.05078l-1.3789 4.16016-2.02344.70703-2.02344.70312-.54297.34375-2.59375 1.6172-.1875.11718-2.02344-2.07813-.73046-2.74218-2.67188-2.07813-1.375-3.5-.0664-.08203-1.95704-2.67188 2.75-1.41796v-49.08204H294.42187v91.41407l.1172.03125.1328.01172.07422.07421.10547.04688.08985.0586.08593.05859.08985.0586.29687.29687.0586.08984.03125.11719.02734.11719.01563.13671-.03125.1172-.0586.08983-.0586.08594-.04296.10547-.04688.10156-.02734.1211v.14453l.17578.26953.14844.14844.07422.08594.07422.07421.04296.10547.0625.08985.0586.08593.04297.10547.0586.08985.04687.10156.04296.10547.0586.08594.11719.17968.07421.07422.0625.08594.0586.08984.04297.10547.0586.08985.05858.08593.0625.08985.0586.08984.04297.10156.11719.17969.07421.07422.0586.08594.07422.07421.08984.0586.10547.04687h.14844l.1328-.01562.13282.01562.10156-.04687.07422-.07422.04688-.10156-.01563-.13281v-.14844l-.04687-.10547-.02735-.11719-.04687-.10156-.02735-.1211-.04296-.10156-.0625-.08984-.04297-.10156-.04297-.10547-.03125-.11719-.01563-.13281-.01171-.13672.08593-.0586.0586-.08593.12109-.03125.04297.10547.01562.1328v.1172l.0586.10156.0586.08984.08983.0586.14844.14843.0586.08985.04296.10547-.01171.10156.08593.0586.10547.04687.08594.0586.08984.05858.07422.07422-.11719.02735-.10546.04687-.08594.0586-.07422.07421-.0586.08985-.0625.08594-.02734.12109-.04687.10156-.04297.10547-.03125.11719-.01172.13281-.01563.13281v.14844l.02735.11719.04687.10547.04297.10156.0586.08984.07421.07422.08985.0586.07422.07421.08984.0586.0586.08984.04296.10547.04688.10156.11719.03125.1328.01563h.14845l.11718-.03125.10547.04297.04297.10547.04688.10156.02734.1211L299.5 410l.02734.11719.03125.1211.02735.11718.10547.04297.10156.04687.13281-.01562.14844.14844.0625.08593.07422.07422.07031.07422.08984.0625.10547.04297.10156.04297.1172.03125.13671.01562.11719-.03125.07422-.07422.02734-.11718-.01172-.13282-.03125-.12109-.02734-.11719.04297-.10547h.11719l.08984.0625.11719.02735h.14843l.13282.01562h.14843l.13282.01563.1328-.01563h.14845l.1328-.01562.13282-.01172.13672.01172.11719-.02735.13281-.01562.1914-.0586-.05859.17579-.01562.1328-.02735.1211-.01562.13281-.0586.08594-.1328.01563-.10548.04687-.10546.04297-.1172.03125-.11718.02735-.26563.03125h-.14843l-.13281.01562-.07422.07422.05859.08594.14844.14843.11719.1797.07421.0703.08985.0625.08984.0586.08594.0586.08984.05858.10156.04297.10547.0625.10547.04297.08594.0586.10547.04687.10156.04297.17969.11719.0586.08984-.04298.10156-.04687.10547.01562.13281.22266.22266.0586.08985.04296.10156.03125.1211.04297.10155.01563.13282.03125.11718.01171.13672.03125.11719.14844.14844.10156.04297.10547.04296.1172.03125.1328.01563.13672.01563h.11719l.11719-.03125.08984-.0586.04297-.10547.04688-.10156.04296-.10547.03125-.11719.01172-.1328v-.14845l-.01172-.1328-.01562-.13282-.03125-.11719-.04297-.10547-.04688-.10547-.04296-.10156-.04297-.10547-.01563-.13281.01563-.13281.02734-.11719.03125-.11719.02735-.1211.04687-.10155.08984-.0586.08594-.0625.07422-.07422.08984-.05859.22266-.22266.0586-.08593.07421-.07422.11719-.17969.0586-.08594v-.14844l-.07423-.07421-.10156-.04688-.10547-.04297-.10156-.04297-.0586-.08984-.04687-.10547-.02734-.11719.08984-.05859.11719-.03125.10156-.04297.17969-.11719.14844-.14843.01172-.13282-.01172-.10546-.08985-.0586-.1328.01563h-.14845l-.1328.01562-.13282-.01562-.1211-.03125-.08593-.0586-.07422-.07422-.0586-.08984-.0625-.08594-.11718-.17969-.0586-.08593.03125-.1211.08594-.05859.1211-.03125.05859-.08594v-.1211l-.03125-.11718-.0586-.08984-.05859-.08594-.04687-.10547-.02735-.11719-.01562-.1328.0586-.08985.07421-.07422.08984-.0586.1172-.17968.07421-.07422.0586-.08594.14843-.14844.1211-.03125.1328-.01562.13282.01562.07422.07422.04297.10547.01562.13281-.03125.1172-.11719.03124-.1328.01172-.14844.14844-.04297.10547-.04688.10156-.02734.1211-.03125.11718v.14844l.03125.11719.04297.10546.05859.08985.07422.07031.07422.07422.11719.03125.12109.02734.11719-.02734.1328-.01563h.1172l.08984.0586.07422.07422.04687.10546.0586.08594.10156.04688.13281.01562.10547.04297.08594.0586-.01172.10546-.07422.07422-.17969.11719-.05859.08984-.08984.0586-.07032.07422-.07421.07421-.0625.08985-.02735.11719-.01562.1328.01562.13282-.01562.13281v.14844l.01562.13281.02735.1172.03125.12108.07421.07422.08985.0586.08594.0586.08984.05858.11719.03125v.08594l-.10157.04688-.08984.0586-.26563.03124-.11718.02735h-.14844l-.10547.04296-.10156.04688-.0586.08984-.0625.23438-.01171.13281-.03125.1211-.01563.1328v.29298l-.01172.1328.01172.13673.01563.1328.1328.01563.13282.01172.1211.03125.08593.0586.07422.07421.04688.10547.04296.10157.01563.1328v.44532l-.01563.13281v.44532l.03125.26562.02735.11719.01562.13281.03125.11719.08594.21094.03125.26562v.14844l-.03125.11719-.02734.11718-.03125.1211-.02735.11719-.03125.11718-.03125.1211-.01171.1328-.01563.13282.08984.0586.1172-.03125.10155.01562.04688.10547-.03125.26562v.44141l-.04297.10547-.04688.10547-.04296.10156-.04297.10547-.0586.08594-.03125.12109-.04296.11719-.03125.11719-.01563.1328.01563.13282.05859.08984.10547.04688.08594.0586.05859.08593-.01172.13672-.03125.11719-.04297.10156v.44531l-.01562.13281v.14844l-.03125.11719-.04297.10547-.02735.11719-.04687.10546-.04297.10157-.03125.12109-.02734.11719-.03125.13281-.03125.11719-.02735.11719-.04297.10546-.03125.1172-.03125.12108-.01171.13282-.01563.13281v.29688l.02734.11718v.14844l.04688.39844.02734.11719.0586.08984.12109.03125h.14844l.13281-.01563.0586.08985v.11719l-.0586.08984-.08984.0586-.10157.04296-.10546.04688-.08985.05859-.08594.0586-.13671.01562-.1172-.03125-.1328-.01563-.10157.04688-.0625.08594-.01172.13671-.01562.13282-.03125.11719-.02735.11718-.01562.13281-.03125.1211v.29687l.01563.13282.03125.11718v.14844l.01171.13281v.14844l-.02734.11719-.04688.10156-.02734.1211-.03125.11718-.0586.08985-.07421.07421-.10156.04297-.10547.04688-.11719.02734-.1211.03125-.10156-.04687.0586-.08594.10547-.04688.02734-.11718.03125-.11719.02734-.1211.03125-.11718v-.14844l.01563-.13281-.03125-.11719-.04297-.10547-.10547.01563-.07422.07422-.10156.04296-.08984.0625-.07422.07422-.04297.10157-.01563.1328-.03125.1172L304.25 426l-.03125.11719-.02734.11719-.03125.12109-.02735.11719-.03125.11718-.04297.10547-.08984.0586h-.08984l-.1172-.03125-.03124-.08594.01562-.13672-.03125-.11719v-.14844l-.01171-.1328v-.14844l-.0625-.23438-.02735-.1211-.04297-.10156-.04687-.10546-.0586-.08594-.05859-.08985-.04297-.10546-.0625-.08594-.14844-.14844-.0703-.07422-.10548-.04687-.10547-.04297-.10156-.04297-.29687-.29688-.08985-.07421-.08594-.0586-.10546-.04297-.08985-.0625-.08594-.0586-.10546-.04296-.08985-.0586-.08594-.0625-.07421-.0703-.10547-.04688-.08594-.0586-.10547-.04296-.08984-.0625-.10156-.04297-.10547-.04297-.08594-.0586-.10547-.04687-.10547-.04297-.10156-.04687-.08985-.0586-.10156-.04297-.10547-.04296-.08984-.0625-.11719-.02735-.13281-.01562-.13281.01562H299.75l-.13281.01563-.11719-.03125-.08984-.0586-.07422-.07422-.08985-.05859-.10156-.04688h-.14844l-.12109-.02734-.10156-.04297-.07422-.07422-.11719-.17968-.08984-.0586-.10156-.04297-.08985-.0625-.10547-.04296-.08984-.0586-.08594-.0586-.10547-.04687-.0586-.08594-.05858-.08984-.04297-.10547-.04688-.10156-.07422-.07422-.08594-.0586-.07421-.07421-.08985-.0586-.22265-.22265-.04297-.10547-.03125-.26563.10547-.04296h.14453l.10547.04296.07421.07422.08985.0586.08594.0586.10546.04687.08985.05859.14844.14844.0703.07422.14845.14843.0625.08594.07421.07422.08594.0586.07422.07421.08985.0625.08984.0586.08594.05859.26953.17578.10156.04688.10547.04296.10156.04297.04688-.07421.05859-.08594.07422-.07422.07031-.07422.10547.04297.07422.07422.0586.08984.04296.10156.04688.10547.04296.10547.1211.02735.11719-.02735.07421-.08984.04297-.10547.0586-.08985.07422-.07421.10546-.04297.1172-.02735.1328.01172.08985.0586.14844.14843.05859.08985.04297.10547.04687.10156.04297.10547.04297.10156.10547.04688.10547.04296.13281.01563.08594-.0586.0586-.08984.07421-.07422.10547-.04297.11719.02735.10547.04687.10156.04297.10547.04297.10156.04688.17969.11718v.11719l-.01563.13281.01563.13281.01562.13672.0586.08594.10156.04688.1211.02734.11718.03125h.14844l.11719-.03125.05859-.08984.17969-.1172.05859-.08983.07422-.07422.0586-.08594.11718-.17969.17969-.11719.11719.03125.08984.0586.04297.07422-.01563.1328v.1172l.08985.05859h.14843l.13282-.01563.1328-.01171.26563-.03125.10547-.04297.11719-.03125.1211-.02735.07421-.07421.07031-.07422.0625-.08985-.01562-.10547-.04688-.10156-.10156-.04297-.10547-.01562-.11718.02734-.26563.03125h-.14844l-.07421-.07422-.08985-.0586-.11719-.03124-.11718-.02735-.13282-.01562h-.14843l-.13282.01563h-.29687l-.10547-.04688-.14844-.14844-.04297-.10156-.05859-.08984.22266-.22266.08593-.0586.10547-.04296.11719-.03125.13281-.01563.13281.01563.13672.01562.10157.04297.1328-.01172.08985-.0625.10156-.04297.0625-.08984-.04687-.10156-.08984-.0586-.1172-.03125-.10155-.04296-.0586-.08985-.0625-.08984v-.11719l.01563-.13281.10547-.04688.07421-.07031v-.1211l-.08984-.05859-.03125-.11719.08985-.05859.07421-.07422.04297-.10547.0586-.08984.04687-.10156.01563-.13281v-.14844l-.04688-.10547-.04297-.10156-.08984-.0586-.13281-.01562-.10157-.04297-.13671-.01563-.1172-.03125h-.4453l-.13282-.01562-.13281-.01172-.13281-.01563-.11719-.03125h-.14844l-.13281-.01562-.13281-.01172-.26563-.03125-.1211-.04297-.08593-.0586-.07422-.07421v-.14844l.01172-.13281.10547-.04688.10156-.04296.13281-.01563h.15235l.13281-.01562h.29297l.1211.03125.10156.04296.08984.0586.23438.0625.12109-.04688.08984-.05859.10156-.04297.13282-.01562.10547.04296.10156.04688.13281.01172.1211-.02735h.14453l.12109-.03125.11719-.02734.10547-.04687.07421-.07422.08594-.0586.14844-.14843.0586-.08594.04687-.10547.02734-.11719.01563-.10547-.10156-.04296-.08985-.0586-.11719-.03125-.10546-.04297-.08985-.0625-.07422-.08594-.07422-.07421-.10156-.04297-.10547-.04688-.10156-.04297-.0586-.08984-.04687-.10156-.08594-.21094-.0625-.08594-.05859-.08984-.07422-.07422-.08594-.0586h-.26953l-.11719.03126-.08984.05859-.10156.04297-.13281.01562-.10547-.01562-.02735-.11719-.0625-.08984-.11718-.03125-.10157-.04297-.14843-.14844-.03125-.11719-.01563-.10546.07422-.07422.17969-.1172.11719-.02733.11718-.03125.13672.01562.10156.04297.10547.04297.10156.04687.10547.04297.1172.03125.1328.01563.1172.02734.1328.01563.10547-.01563.08985-.0586-.07422-.07421-.10547-.04297-.07422-.07422-.07422-.08984-.14844-.14844-.08593-.0586-.08985-.05859-.07422-.07422-.08984-.0586-.10156-.04687-.1211-.02734-.10156-.04688-.10547-.04296-.11719-.03125-.10156-.04297-.1211-.03125h-.14843l-.11719.03125-.10546.04297-.08594.0625-.17969.11718-.08594.0586-.08984.0586-.10547.04687-.08594.05859-.10547.04297-.10156.04297-.10547.04687-.07422.07422-.05859.08985-.0586.08593-.04687.10547-.0586.08594-.07421.07422-.13281-.01172-.1172-.03125h-.11718l-.07422.07422-.08984.0586-.07422.07421-.08984.0586-.08594.05859-.10547.04687-.10156.04297-.13672.01563-.10156-.04297-.14844-.14844-.10547-.04688h-.08594l-.10547.04688-.10156.04297-.1211.03125-.11718-.03125-.07422-.07422v-.11719l.03125-.1211.07422-.0703.0586-.08985.07421-.07422.11719-.03125.10547-.04296h.29297l.13281-.01563.13672-.01563.10156-.04296.08985-.0586.10156-.04687.08984-.0586.13281-.01171.08985.05859.13281.01172.08984-.0586.08594-.05859.10547-.04297.08984-.0586.08594-.0625.08985-.05859.14843-.14843.0586-.08594.05859-.08985.10547-.04296.13281-.01563.11719.02735.1211.03125.05859-.0586.05859-.08984.03125-.26563.02734-.11719.10547.01172.13281.01563.10157-.04297.08984-.0586.0586-.08984.07421-.07422.0586-.08984.04687-.10156.01172-.13281-.01172-.13282-.04687-.10547-.14844-.14843-.0586-.08985-.05859-.08594-.04297-.10546v-.44532l.01563-.1328v-.14845l.01172-.1328-.0586-.0586-.08984.0586-.10156-.04298-.17969-.11719-.08594-.05859-.0625-.08984-.0586-.08985-.07421-.07421-.08594-.0586-.1211.03125-.10155.01172-.10547.04688-.08594.05859-.10547.04297-.14844.14844-.08984.05859-.08594.0586-.08984.0625-.10547.04296-.13281.01563v-.1211l.10547-.04297.11718-.03125.07422-.0703.04297-.10548v-.14844l-.02734-.11718-.14844-.14844-.13281-.01563h-.14844l-.11719.03125-.10547.04297-.10156.04297-.08984.0625-.11719.02735-.07422-.07422.01172-.13281-.04297-.10157-.04297-.10547-.08984-.05859-.11719.02734-.1211.03125-.11718.03125-.10156.04297-.1211.03125-.10156.04297-.10547.04297-.08984.0586-.10156.01562v-.11719l.01562-.13281-.0586-.08985-.07421.04297-.14844.14844-.0586.08985-.07421.07421-.04688.10547-.04296.10156-.07422.07422-.0586.08985-.07422.07422-.05859.08593-.07422.07422-.08984.0625-.07422.07031-.07422.07422-.10156.01563-.13281.01562-.10547-.04296v-.1211l.14843-.14844.04297-.10156.0586-.08984.04687-.10156.04297-.10547.0586-.08985.03124-.11719.04297-.10156.03125-.1211.02735-.11718.04687-.10547.04297-.10156.04297-.10547.07422-.07031.08984-.0625.08985-.0586.10156-.04296h.29687l.26563-.03125.10547-.04297-.07422-.07422-.11719-.03125-.10547-.04297-.08984-.0586-.10156-.04687-.08985-.0586-.10156-.04296-.10547-.04297-.08984-.0625-.08594-.0586-.10547-.04296-.10156-.04297-.1211-.03125-.11718-.03125-.10157-.04297L297.5 410.25l-.10156-.04297-.08985-.0586-.04296-.10546-.01563-.13281.10156-.04297.13281-.01563.13672.01563.13282-.01563.10156-.04297.0586-.08984.01562-.10547-.08985-.0586-.07421-.07421-.10157-.04297-.08984-.0586-.14844-.14843-.04297-.10547-.01562-.13281v-.29297l-.0586-.08985-.08984-.05859-.07422-.07422-.04297-.10547-.03125-.11718-.0586-.08985-.07421-.07422-.11719-.02734-.07422-.07422-.08984-.0586-.08984-.0625-.08594-.05859-.07422-.07421-.0586-.08594-.04687-.10547-.08594-.0586-.14843-.14843-.19532-.0586-.1328.01563-.10157.04297-.07422.07422-.04688.10156-.04296.10547-.0586.08984-.0586.08594-.29687.29687-.08984.0586h-.08594l-.0625-.08594-.04297-.10547.03125-.11719.0586-.08984.02734-.11719-.01172-.13281-.08984-.0625-.10547.04688-.11719.02734-.11719.03125-.26953.17578-.10156.04688-.11719.02734-.10546.04687-.08985.0586-.10156.04297-.0586-.08594-.04687-.10547.01563-.13281.04687-.10547.07031-.07422.07422-.07031.0586-.08985v-.14843l-.04297-.10547h-.23829l-.10156.04687-.03125.11719-.02734.11719-.03125.1211-.07422.04296-.13281.01563-.07422-.04688-.04297-.10156-.04297-.10547-.04687-.10156-.04297-.10547-.1211.03125-.10156.04297-.13281.01562-.11719.03125-.10547.04297-.08984.0586-.10156.04687-.1211.02734-.13281.01563-.10156-.04297-.0586-.08985-.04687-.10546-.04297-.10157-.04297-.10546v-.1172l.0586-.08984.08593-.05859.17969-.11719.10156-.04687.10547-.04297.10547-.0586.10156-.04296.08985-.0625.10156-.04297.10547-.0586.10156-.04687.08984-.0586.10547-.04296.10156-.04297.08985-.0625.10156-.04297.13672-.01563.11719.03125.10156.04297.1211.03125.10156.04297.10546.04688.10157.04296.10547.04297.10156.04688.10547.04297.10156.04297.10547.04687.08594.0586.10546.04296.1172.03125.10546.04297.10156.04688.08985.0586.10547.04296.10156.04297.10547.04687.11719.02735.10156.04687.1211.02735h.14843l.08594-.0586.01562-.10156.0586-.08984-.02735-.1172-.07422-.07421-.11719-.17969-.07421-.07422-.08985-.07421-.17969-.1172-.08593-.05859-.10547-.04296-.10156-.04688-.26954-.17578-.05859-.08985-.07422-.07421-.0586-.08985-.04296-.10156-.03125-.11719-.01563-.13672v-.5625l-.01171-.1328-.01563-.13282-.03125-.11719-.01562-.13281-.01172-.13281-.03125-.1211-.22266-.22265-.0586-.08594-.01562-.10547.03125-.11719.13281-.01562v-91.41406H172.9922v1.45312l-.0586.23438-.35156 1.05078-.17187.52343-.1172.34766-.17577.41016-.11719.17187-.23438.29297-.23046.0586h-.35157l-.11718.05859-.23047.40625v.29297l.11719.17578.23046.23047.1172.23437.64062.75781.29297.46485.17578.23437.23047.35156.23437.34766.64063.8164.17578.46485.17187.41016.11719.69531.17578.46875.11719 1.39844.0586.46484v.875l.11718 1.04688v4.78125l-.0586.46484-.35156 1.28125-.17578.52344-.11328.41015-.35156.9297L172.93359 336l-.23437.58203-.11719.17578-.17187.34766-.17578.40625-.35157.8164-.0586.29297-.11327.29297-.11719.28906-.0586.17579-.11718.875-.0586.40625-.05859.11718-.0586.17579-.05859.17187-.23047.52734-.11718.17188v.23437l-.11719.23438-.0586.17187-.17577.58594v.28906l-.0586.17579v.29296l-.0586.11329-.05859.52734v.17187l-.05468.23438v2.6211l-.17578.8164-.1172.17578-.17577.23438-.1172.17187-.11327.23438-.58594.93359-.23047.28906-.29297.46485-.17578.23437-.28906.35156-.35156.69922-.11328.23047-.17579.41016-.17578.23046-.40625.52735-.8164.69922-.29297.17187-.28906.23438-.17579.11719-.17578.17578-.52344.40625-.52734.17578-.17187.17578-.23438.05469-.64062.17578h-.75782m12.21094 31.02344l-1.07422.44921.35938.89454 1.25-.71485.44531-.53906-.98047-.08985"/><path fill="#d3d3d3" fill-opacity="0" fill-rule="evenodd" d="M201.50781 416.59766h-.89453l.44922.6289.98047.35938.80469-.08985.4453-.98828-.17577.08985-.71485-.35547-.89453.35547m154.6211 59.0703l-.0586-.52343v-.29297l.11328-.29297.0586-.23046.46875-.46875h.11328l.11719-.11329.11718-.05859h.17579l.23437-.0586h.34766l.23437.0586.11719.0586.23047.17187.0586.17578.11718.58203v.29297l-.11719.17578-.17187.28906-.17579.17579-.52734.52343-.23047.23438-.11719.0586h-.17578l-.11718-.0586-.40625-.29297-.17579-.11719-.11718-.0586-.0586-.11327-.05468-.1172m6.64062-10.95702l-.0586-.17188v-1.10937l.0586-.17188.17578-.0586.17188-.05858h.17578l.23437-.0586.1172.0586.05858.69921-.05859.17188-.11719.17578-.11718.0586-.23438.52343-.11328.0586h-.23438l-.05859-.1172m9.61328-14.39062l-.11719-.17578v-.69922l.29297-.875.1172-.17187.17577-.35156.11328-.23047.1172-.29297.35155-.75781.1172-.23047.17187-.23438h.17578l.11719-.0586h.64062l.11719.0586.23437.23438.17188.11328.35156.29297.11719.11718.11328.17579v.11328l.11719.05859.11718.11719v.69922l-.05859.17578v.23047l-.0586.17578-.34765 1.05078-.11719.23047-.11719.23437-.11718.0586-.23047.23437-.64063.28906h-.875l-.41015-.11718-.64063-.46485"/><path fill="none" stroke="#bebebe" stroke-linecap="round" stroke-linejoin="round" stroke-miterlimit="10" stroke-width=".5" d="M467.95703 311.69531H144.02734v168.625h323.9297v-168.625"/><g clip-path="url(#a)"><path fill="#fff" fill-opacity="0" fill-rule="evenodd" d="M144 475.89063v4.4375h.0039H144v-60.10547 55.66796"/></g><g clip-path="url(#b)"><path fill="#fff" fill-opacity="0" fill-rule="evenodd" d="M144 404.875v2.03125-95.23438h.0039H144V404.875"/></g><path fill="#50fcfc" fill-rule="evenodd" d="M144 415.23828v4.98438l.0039-.00391v-4.98828l-.0039.00781"/><path fill="#00e8fc" fill-rule="evenodd" d="M144 411.5039v3.73438l.0039-.00781v-3.71485l-.0039-.01171"/><path fill="#50fcfc" fill-rule="evenodd" d="M144 406.90625v4.59766l.0039.01171v-4.60546l-.0039-.00391"/><g clip-path="url(#c)"><path fill="#fff" fill-opacity="0" fill-rule="evenodd" d="M144.0039 480.32813v-60.10938l2.3711-2.02734.8164-4.4375-.55468-4.4375-2.63281-2.40625v-95.23829h75.44922v50.64844l-2.77735 2.61328-1.66016.47657-3.58593-.47657-.85547-.55468-.55469.55468-1.9375 4.4375-.375 4.4375.00781 4.4375-1.57812.42188-4.4375 1.29687-2.71875 2.71875 2.41406 4.44141-2.4961 4.4375 2.80079 2.89453 2.19531-2.89453 2.24219-1.625 2.54297-2.8125 1.625-4.4414.26953-1.13673 3.51953 1.13672-1.89063 4.44141-.34375 4.4375 3.15625 3.90625L216.1836 396l3.26953 3.22266.39454 1.21484-.39453 3.1289-4.4375.16016-4.44141-1.17969-3.14453 2.32813-1.27344 4.4414-.01953.07032-.1914-.07031-4.2461-1.07422-4.4375-3.3164-.26563-.05079-4.17578-2.34766-4.4375 1.03516-1.61328 1.3125-2.82422 1.98828-2.67578 2.45313-1.76172 1.52343-4.4414 2.09375-4.4375-2.33984-4.4375.51563-3.73047 2.64453-.70703.27734-3.90235 4.16016-.48047 4.4375-.05468.80078-4.44141 1.58594-1.79297 2.05468.26563 4.4375 1.52734 2.125.42969 2.3125 1.59765 4.4375 2.41407 2.89844.95703 1.53906 3.48047 3.17578 4.4375.70704 4.4375-1.5547 2.03125-2.32812 2.40625-1.53906 3.57422-2.89844.86718-.28906 4.4375-.21875 4.4375-.7539 4.1836-3.17579.2539-.03906 4.4414-.48047 4.33595-3.91797.10156-.07812 4.4375-1.42578 4.4375-2.40625 1.24219-.52735 3.19922-.3164 4.4375-.6797 4.4375.4922 4.4375-.73829 4.4375.02344 4.08593 1.21875.35547.26953 1.46094-.26953 2.97656-.25 3.70703-4.1914.66016-4.4375.07031-.66016 1.8125-3.77734 1.6914-4.4375-3.5039-2.8711-1.00781-1.57031 1.00781-1.78516 2.33984-2.65234L250.40625 396l-2.97656-4.4375-1.34766-1.19531-4.4375-1.80078-2.53906-1.44141-1.89844-3.20703-3.16016 3.20703-1.28125.4375-1.46484-.4375-.48047-4.4414.08203-4.4375 1.59766-4.4375-3.92578-4.4375-.2461-.16798-4.4375-3.64062-1.41406-.6289-3.02344-2.61329v-50.64844h26.62891v65.96875L245 378.2461l1.08203.8125 1.46484-.8125-1.46484-.60546v-65.96875h17.7539v65.73437l-.85937.83984-3.57812 1.58594-4.21875 2.85156 4.21875 2.83594 4.4375-2.0586v20.29298l-1.33985 1.12109 1.33985 1.8789 1.64062-1.8789-1.64062-1.1211v-20.29296l.75-.77735.11719-4.4375-.8672-.83984v-65.73438h93.20704v125.72657l-4.4414 2.125-1.26954.85937-3.16797 1.5-3.0664 2.9375-1.3711 1.1914-3.49219 3.25 3.4922 3.51954 1.14843.91797 3.28906 2.52734 4.4375-.52344 3.21485-2.0039 1.22656-.60156 4.4375-1.5625 4.4375-1.96094 2.47656 4.125 1.96094 1.76172 4.4375-1.1836 1.28906-.57812 3.15235-.39844 4.05859-4.03906-4.0586-4.28125-.15625-.16016-4.28515-3.71094-2.5664-.72656-1.8711-1.46094-1.42969 1.46094-3.00781 1.23828-4.4375-.67968-1.82813-.5586-2.60937-2.98437V311.67188H459.125v71.05468l-4.4414.09375-4.28516 4.30469 2.14453 4.4375.64453 4.4375-2.9414 1.42188-4.4375-.28907L444.3164 396l-2.9453-2.90234-.60157-1.53516-1.22656-4.4375-2.61328-2.07422-2.16016 2.07422-2.08594 4.4375-.1914.99219L430.48438 396l-2.4297 4.28125-.1875.15625.1875.14063 4.4375 2.10156 4.4375-1.6289 4.44141 2.46093 3.98047 1.36328.45703.5 1.96875 3.9414 2.46875 3.42188 4.4375-2.875.55079-.54687-.55079-.57422-1.5703-3.86719.0078-4.4375 1.5625-3.07813L456.03125 396l3.09375-1.09375 3.33984-3.34375.96485-4.4375-4.30469-4.39844v-71.05469h8.8711v168.65625H144.0039"/></g><path fill="#50fcfc" fill-rule="evenodd" d="M146.375 418.1914l-2.3711 2.02735v-4.98828l.57423-1.47656-.57422-2.23829v-4.60546l2.6328 2.40625.5547 4.4375-.81641 4.4375"/><path fill="#00e8fc" fill-rule="evenodd" d="M144.57813 413.7539l-.57422 1.47657v-3.71485l.57422 2.23829"/><path fill="#50fcfc" fill-rule="evenodd" d="M151.34766 431.50781l-.26563-4.4375 1.79297-2.05469 4.4414-1.58593.0547-.80078.48046-4.4375 3.90235-4.16016.70703-.27734 3.73047-2.64454 4.4375-.51562 4.4375 2.33984 4.4414-2.09375 1.76172-1.52343 2.67578-2.45313 2.82422-1.98828 1.61328-1.3125 4.4375-1.03516 4.17578 2.34766.26563.05078 4.4375 3.3164 4.2461 1.07423.1914.0703.01953-.0703 1.27344-4.44141 3.14453-2.32813 4.4414 1.1797 4.4375-.16016.39454-3.12891-.39453-1.21484L216.18358 396l-1.16797-.53125-3.15625-3.90625.34375-4.4375 1.89063-4.4414-3.51953-1.13673-.26953 1.13672-1.625 4.44141-2.54297 2.8125-2.24219 1.625-2.19531 2.89453-2.80078-2.89453 2.4961-4.4375-2.41407-4.4414 2.71875-2.71876 4.4375-1.29687v.89844l-4.4375 2.98046-.14063.13672.14063.23829 4.4375 4.05078 3.23437-4.28907-3.23437-3.11718v-.89844l1.57812-.42188-.0078-4.4375.375-4.4375 1.9375-4.4375.55468-.55468.85547.55468 3.58594.47657 1.66015-.47657 2.77734-2.61328v3.00781l-4.4375 1.28125-4.17578 2.76172-.26562 1.77735-.51172 2.66015.51172 2.60938.51562 1.82812 3.92578 2.47657 4.4375.71875v4.83593l-4.4375.29297-.32812.55469.32813 2.53516.34765 1.90234 4.08984 2.82422 4.4375 1.05078.16407.5625-.16406.90625-.96875 3.53125.96875 1.08984 4.4375 1.94532v1.08984l-4.02735.3125 4.02734 3.26172.47657-3.26172-.47656-.3125v-1.08984l2.13671 1.40234 2.30078 2.32031v1.66797l-3.20703.45313 3.20703 1.3164 3.06641-1.3164-3.0664-.45313v-1.66797l4.4414.17969 3.72266 1.9414-3.72266 2.21094-3.16406 2.22657-1.27734.66796-1.89844-.66796-2.53906-1.54297-4.4375-2.28516-.76172-.60937-3.67578-2.4336-4.4375-.07031-4.44141-.2461-1.41797 2.75-1.72656 4.4375-1.29297.48829-3.15625-.48828-1.28125-.9961-1.76172-3.4414-2.67578-2.48438-4.4414.60938-4.4375 1.53906-.4375.33594-4 1.61328-3 2.82422-1.4375 1.10546-4.44141-.6875-2.83594-.41796-1.60156-1.03516-3.30078 1.03516-1.13672.16015-4.4375 1.875-2.25391 2.40235-1.04297 4.4375-.33984 4.4414-.80078 2.28906-2.19532 2.14844-.33984 4.4375 2.53516 3.44531.65234.9922 3.78516 4.40624.09765.03125 4.33985 1.8164 2.78515-1.8164 1.65235-.75 4.4375-3.5.23437-.1875 4.20703-1.40625 4.4375-.66015 4.29297-2.3711.14453-.02344 4.4375-.6875 4.4414-.76953 3.26954-2.95703 1.16797-.91015 4.4375-2.85938 1.09375-.66797 3.34375-.59765 4.4414-1.07422 4.4375-1.61328 4.4375.36718 4.4375-.26171 4.4375-.50391 4.44141 1.48437 4.4375-.875 1.20703-1.36718 2.03125-4.4375-.14844-4.4375-.21093-4.4375-1.48047-4.44141 2.875-4.4375.16406-.17578L249.81641 396l-3.73438-3.96094-3.0664-.47656-1.3711-.76172-4.4375-2.33594-4.4414 1.33594-3.48829 1.76172-.94922.41016-1.23046-.41016-3.20703-2.36719-3.42188-2.07031-1.01563-.84766v-4.83593l4.4375-.26563 3.34375-2.92969 1.09375-.71875 2.69532-3.71875-2.69531-2.89453-2.33594-1.54297-2.10156-1.78125-4.4375-2.26171v-3.00782l3.02343 2.61328 1.41406.62891 4.4375 3.64063.2461.16796 3.92578 4.4375-1.59766 4.4375-.08203 4.4375.48047 4.44141 1.46484.4375 1.28125-.4375 3.16016-3.20703 1.89844 3.20703 2.53906 1.4414 4.4375 1.80079 1.34766 1.19531L250.40625 396l-1.98438 4.4375-2.33984 2.65234-1.00781 1.78516 1.00781 1.57031 3.5039 2.8711-1.6914 4.4375-1.8125 3.77734-.07031.66016-.66016 4.4375-3.70703 4.1914-2.97656.25-1.46094.26953-.35547-.26953-4.08594-1.21875-4.4375-.02344-4.4375.73829-4.4375-.4922-4.4375.6797-3.19921.3164-1.2422.52735-4.4375 2.40625-4.4375 1.42578-.10155.07812-4.33594 3.91797-4.4414.48047-.25391.03906-4.1836 3.17578-4.4375.75391-4.4375.21875-.86719.28906-3.57421 2.89844-2.40625 1.53906-2.03125 2.32813-4.4375 1.55469-4.4375-.70704-3.48047-3.17578-.95703-1.53906-2.41407-2.89844-1.59765-4.4375-.42969-2.3125-1.52734-2.125"/><path fill="#00e8fc" fill-rule="evenodd" d="M157.3164 439.39063l-2.53515-3.44532.33984-4.4375 2.19532-2.14844.80078-2.28906.33984-4.4414 1.04297-4.4375 2.2539-2.40235 4.4375-1.875 1.13673-.16015 3.30078-1.03516 1.60156 1.03516 2.83594.41796 4.4414.6875 1.4375-1.10546 3-2.82422 4-1.61328.4375-.33594 4.4375-1.53906 4.4414-.60938v4.35547l-3.47265 2.5664-.96875.63282-4.4375.98437-4.4375.22657-3.86719 2.59375-.5703.22265-.08204-.22265-4.35937-3.21485-4.4375-.76172-4.4375 1.28125-4.01563 2.69532-.42187.80078-1.48438 3.63672-.39844 4.4414-1.60156 4.4375-.95312 4.22266-.07422.21484.07422.09766 2.85547 4.33984 1.58203 1.83985 4.4375 1.97265 4.4375-2.51953 1.59765-1.29297 2.83985-1.10156 4.4414-2.16797 3.89844-1.16797.53906-.04687 4.4375-.73047 4.4375-1.05469 4.4414-1.2539 1.4961-1.35157 2.9414-2.29297 2.90235-2.14453 1.53516-.69531 4.4375-1 4.4414-2.23438 1.08594-.51171 3.35156-2.53125 4.4375.18359 4.4375-1.16406 4.4375-.03125 4.44141.7539 4.4375.58204L243 418.1914l-1.35547-3.89063-4.4375 2.3711-4.4414.875-4.4375-.17188-4.4375-2.91797-4.28516-.70312-.15234-.05079-4.4375-2.30859-3.54297 2.35938-.89844.17187-4.4375 1.64453-4.4375-.83203-3.28516-.98437-1.15234-2.56641v-4.35547l2.67578 2.48438 1.76172 3.4414 1.28125.9961 3.15625.48828 1.29297-.48828 1.72656-4.4375 1.41797-2.75 4.4414.24609 4.4375.07031 3.67579 2.4336.76172.60937 4.4375 2.28516 2.53906 1.54297 1.89844.66796 1.27734-.66796 3.16406-2.22657 3.72266-2.21093-3.72266-1.94141-4.4414-.17969-2.30079-2.32031-2.13672-1.40234-4.4375-1.94532-.96875-1.08984.96875-3.53125.16407-.90625-.16406-.5625-4.4375-1.05078-4.08985-2.82422-.34766-1.90234-.32812-2.53516.32813-.55469 4.4375-.29297 1.01562.84766 3.42188 2.07031 3.20703 2.36719 1.23047.41016.94921-.41016 3.48828-1.76172 4.44141-1.33594v3.48438l-4.4414.83984-4.4375 2.39844-.86329.8125-1.14843 4.4375 2.01172 1.21875 4.4375 2.97656 4.4414-.11719 4.4375-.34765 3.22656-3.73047 1.21094-1.30078 2.75-3.13672-2.75-2.91406-4.4375-.6289-4.4375-.50782v-3.48438l4.4375 2.33594 1.3711.76172 3.0664.47656L249.81641 396l-3.73438 4.26172-.16406.17578-2.875 4.4375 1.48047 4.4414.21094 4.4375.14843 4.4375-2.03125 4.4375-1.20703 1.3672-4.4375.875-4.4414-1.48438-4.4375.5039-4.4375.26172-4.4375-.36718-4.4375 1.61328-4.44141 1.07422-3.34375.59765-1.09375.66797-4.4375 2.85938-1.16797.91015-3.26953 2.95703-4.4414.76954-4.4375.6875-.14454.02343-4.29297 2.3711-4.4375.66015-4.20703 1.40625-.23437.1875-4.4375 3.5-1.65235.75-2.78515 1.8164-4.33985-1.8164-.09765-.03125-3.78516-4.40625-.65234-.99219"/><path fill="#00d4fc" fill-rule="evenodd" d="M157.3164 436.04297l-.07421-.09766.07422-.21484.95312-4.22266 1.60156-4.4375.39844-4.4414 1.48438-3.63672.42187-.80078 4.01563-2.69532 4.4375-1.28125v.65625l-4.4375 2.20704-1.66016 1.11328-2.28516 4.4375-.49218 3.15234-.12891 1.28906-1.6875 4.4375-1.55078 4.4375 3.36719 4.0586.58593.3789 3.85157 2.48047 3.55859-2.48047.8789-.26562 4.4375-1.98438 3.71485-2.1875.72656-.48437 4.4375-.07813 4.4375-.96875 4.4375-1.42187 3.97266-1.48438.46875-.125 4.4375-3.55078 1.03125-.76172 3.40625-1.53906 4.4375-1.25 2.9336-1.65234 1.5078-3.44141 1.41407-.9961-1.41406-1.24609-4.44141-1.4414-4.4375 1.39843-4.4375-1.0078-4.25 2.29687-.1875.1875-4.4414.60937-4.4375-.20703-4.4375.55469-4.4375 2.05078-1.17579-3.19531-3.26562-2.41016-4.4375-.91016v-.65625l4.4375.76172 4.35937 3.21485.08203.22265.57031-.22265 3.8672-2.59375 4.4375-.22657 4.4375-.98437.96874-.63281 3.47266-2.56641 1.15234 2.5664 3.28516.98438 4.4375.83203 4.4375-1.64453.89844-.17187 3.54297-2.35938 4.4375 2.3086.15234.05078 4.28516.70312 4.4375 2.91797 4.4375.17188 4.4414-.875 4.4375-2.3711L243 418.19141l-1.35547 2.23046-4.4375-.58203-4.4414-.7539-4.4375.03125-4.4375 1.16406-4.4375-.1836-3.35157 2.53126-1.08594.51171-4.4414 2.23438-4.4375 1-1.53516.69531-2.90234 2.14453-2.9414 2.29297-1.4961 1.35156-4.4414 1.25391-4.4375 1.05469-4.4375.73047-.53907.04687-3.89844 1.16797-4.4414 2.16797-2.83985 1.10156-1.59765 1.29297-4.4375 2.51953-4.4375-1.97265-1.58203-1.83985-2.85547-4.33984"/><path fill="#00c4fc" fill-rule="evenodd" d="M161.7539 440.0039l-3.36718-4.05859 1.55078-4.4375 1.6875-4.4375.1289-1.28906.4922-3.15234 2.28515-4.4375 1.66016-1.11329 4.4375-2.20703v.65235l-4.13672 2.66797-.30078 1.80468-1.1875 2.63282-1.46485 4.4414-1.78515 4.05078-.14844.38672-2.10938 4.4375 2.25782 2.72656 2.65234 1.71094 1.78516 1.14844 1.64843-1.14844 2.78907-.84765 4.4375-2.55079 1.76953-1.03906 2.67187-1.78906 4.4375.71094 4.4375-1.20703 4.4375-1.78907.97266-.36328 3.46875-.92578 4.02344-3.51172.41406-1.03906 4.4375-1.33984 4.4375-1.50391.98828-.5586 1.1211-4.4375-2.10938-1.10937-4.2539 1.10938-.1836.05468-.13281-.05468-4.3047-1.14454-2.11327 1.14454-2.32422 2.29687-4.4414.08985-4.4375-.35157-4.4375 1.42188-1.875.98047-2.5625 1.65234-.28907-1.65234-1.97656-4.4375-2.17578-1.60157-4.4375-1.0664v-.65235l4.4375.91016 3.26562 2.41016 1.17578 3.1953 4.4375-2.05077 4.4375-.55469 4.4375.20703 4.4414-.60937.1875-.1875 4.25-2.29688 4.4375 1.00781 4.4375-1.39843 4.44142 1.4414 1.41406 1.2461-1.41406.99609-1.50782 3.4414-2.9336 1.65235-4.4375 1.25-3.40624 1.53906-1.03125.76172-4.4375 3.55078-.46875.125-3.97266 1.48438-4.4375 1.42187-4.4375.96875-4.4375.07813-.72656.48437-3.71484 2.1875-4.4375 1.98438-.87891.26562-3.5586 2.48047-3.85156-2.48047-.58593-.3789"/><path fill="#00b8fc" fill-rule="evenodd" d="M161.7539 438.67188l-2.2578-2.72657 2.10937-4.4375.14844-.38672 1.78515-4.05078 1.46485-4.4414 1.1875-2.63282.30078-1.80468 4.13672-2.66797v.65234l-3.125 2.01563-.98047 4.4375-.33203 2.67578-.72266 1.76562-2.9414 4.4375-.77344 2.07031-1.15625 2.3672 1.15625 1.39062 4.4375 2.91406 4.4375-1.29688 4.35937-3.0078-.5039-4.4375-1.65235-4.4375 2.23438-.41407 3.66015-4.02734-2.57812-4.4375-1.08203-.79688-4.4375-1.21875v-.65234l4.4375 1.0664 2.17578 1.60157 1.97656 4.4375.28906 1.65234 2.5625-1.65234 1.875-.98047 4.4375-1.42188 4.4375.35156 4.4414-.08984 2.32423-2.29687 2.11328-1.14454v1.2422l-4.4375 4.3125-4.4414-.4297-4.4375-.5039-2.38673.96094-2.05078.1914-4.4336 4.25-.0039.07813-3.38281 4.35937 3.38281 1.34375 4.4375 1.5 4.4375-1.44922 3.25-1.39453 1.1875-.4375 4.4414-1.28906 3.10548-2.71094 1.33203-3.34375 4.4375.1211 3.3086-1.21875-3.3086-2.58985-4.4375-1.75v-1.24219l4.30469 1.14454.1328.05468.1836-.05468 4.2539-1.10938 2.10938 1.10938-1.12109 4.4375-.98828.55859-4.4375 1.5039-4.4375 1.33985-.41406 1.03906-4.02344 3.51172-3.46875.92578-.97266.36328-4.4375 1.78907-4.4375 1.20703-4.4375-.71094-2.67187 1.78906-1.76953 1.03906-4.4375 2.55079-2.78907.84765-1.64843 1.14844-1.78516-1.14844-2.65234-1.71094"/><path fill="#00a8fc" fill-rule="evenodd" d="M161.7539 437.33594l-1.15624-1.39063 1.15625-2.36719.77343-2.0703 2.94141-4.4375.72266-1.76563v2.46484l-2.82032 3.73828-1.61718 4.33985-.04688.09765.04688.0586 4.4375 3.25 4.4375-.87891 3.51953-2.42969-1.48047-4.4375-2.03906-3.6211-4.4375-.11718v-2.46484l.33203-2.67578.98047-4.4375 3.125-2.01563v.65235l-2.10938 1.36328-1.41797 4.4375 3.52735 4.26171 4.4375-.77734 3.16797-3.48437-3.16797-4.4297-.01953-.0078-4.41797-1.36329v-.65234l4.4375 1.21875 1.08203.79688 2.57812 4.4375-3.66015 4.02734-2.23438.41406 1.65234 4.4375.50391 4.4375-4.35937 3.00781-4.4375 1.29688-4.4375-2.91406"/><path fill="#009800" fill-rule="evenodd" d="M161.7539 436.0039l-.04687-.05859.04688-.09765 1.61718-4.33985 2.82032-3.73828v1.1211l-1.97266 2.61718-1.17188 4.4375 3.14454 2.3125 4.4375-.46484 2.67578-1.84766-2.45313-4.4375-.22265-.39453-4.4375-2.22265v-1.1211l4.4375.11719 2.03906 3.6211 1.48047 4.4375-3.51953 2.42968-4.4375.8789-4.4375-3.25"/><path fill="#00ac00" fill-rule="evenodd" d="M166.1914 438.25781l-3.14452-2.3125 1.17187-4.4375 1.97266-2.61719v1.125l-1.125 1.4922-.66797 4.4375 1.79297 1.3203 4.4375-.05468 1.83593-1.26563-1.83593-3.16406-1.76172-1.27344-2.67578-1.49219v-1.125l4.4375 2.22266.22265.39453 2.45313 4.4375-2.67578 1.84766-4.4375.46484"/><path fill="#00c800" fill-rule="evenodd" d="M166.1914 437.26563l-1.79296-1.32032.66797-4.4375 1.125-1.49219 2.67578 1.4922 1.76172 1.27343v2.90234l-.9375.26172.9375.10547.15234-.10547-.15234-.26172v-2.90234l1.83593 3.16406-1.83593 1.26563-4.4375.05469"/><path fill="#009800" fill-rule="evenodd" d="M170.6289 426.89063l-3.52734-4.26172 1.41797-4.4375 2.10938-1.36329v.65625l-1.09766.70704-1.84766 4.4375 2.94532 3.5625 4.4375-.6211 2.67187-2.9414-2.67187-3.73829-2.13672-.69921-2.30078-.70704v-.65625l4.41797 1.36329.01953.0078 3.16797 4.4297-3.16797 3.48437-4.4375.77735"/><path fill="#00ac00" fill-rule="evenodd" d="M170.6289 426.1914l-2.9453-3.5625 1.84765-4.4375 1.09766-.70702v.65234l-.08594.05469-2.27734 4.4375 2.36328 2.85937 4.4375-.46094 2.17968-2.39843-2.17968-3.04688-4.25782-1.39062-.17968-.0547v-.65233l2.30078.70703 2.13672.69921 2.67187 3.73829-2.67187 2.9414-4.4375.6211"/><path fill="#00c800" fill-rule="evenodd" d="M170.6289 425.48828l-2.36327-2.85937 2.27734-4.4375.08594-.0547v2.1836l-1.20313 2.3086 1.20313 1.45703 4.4375-.14453 1.1914-1.3125-1.1914-1.66407-4.4375-.64453v-2.1836l.17968.0547 4.25782 1.39062 2.17968 3.04688-2.17968 2.39843-4.4375.46094"/><path fill="#10cc00" fill-rule="evenodd" d="M170.6289 424.08594l-1.20312-1.45703 1.20313-2.3086 4.4375.64453v1.38282l-4.4375.19921-.04297.08204.04297.05468 4.4375.17188.20312-.22656-.20312-.28125v-1.38282l1.1914 1.66407-1.1914 1.3125-4.4375.14453m0 11.96484l-.9375-.10547.9375-.26172.15234.26172-.15234.10547"/><path fill="#24d000" fill-rule="evenodd" d="M170.6289 422.6836l-.04296-.0547.04297-.08202 4.4375-.19922.20312.28125-.20312.22656-4.4375-.17188"/><path fill="#00a8fc" fill-rule="evenodd" d="M179.50781 432.85156l-3.38281-1.34375 3.38281-4.35937.0039-.07813 4.4336-4.25 2.05078-.1914 2.38672-.96094v1.01953l-4.4375.46875-4.08203 3.91406-.35547 4.30469-.10547.13281.10547.03906 4.4375 2.28907 4.4375-1.6875 1.4961-.64063 2.9414-1.07812 4.4414-1.44922 2.19142-1.91016-2.19141-3.14453-4.4414-.76562-4.4375-.47266v-1.01953l4.4375.5039 4.4414.4297 4.4375-4.3125 4.4375 1.75v1.79687l-2.03125.79297 2.03125.375 1.01562-.375-1.01562-.79297v-1.79688l3.3086 2.58985-3.3086 1.21875-4.4375-.1211-1.33203 3.34375-3.10547 2.71094-4.4414 1.28906-1.1875.4375-3.25 1.39453-4.4375 1.44922-4.4375-1.5"/><path fill="#009800" fill-rule="evenodd" d="M179.50781 431.54688l-.10547-.03907.10547-.13281.35547-4.30469 4.08203-3.91406 4.4375-.46875v.17188l-4.4375.6289-3.73437 3.58203.25781 4.4375 3.47656 1.8086 4.25781-1.8086.1797-.02734 4.4375-1.69531 4.4414-1.60547 1.27344-1.10938-1.27344-1.82812-4.4414-1.33203-4.4375-1.05079v-.17187l4.4375.47266 4.4414.76562 2.1914 3.14453-2.1914 1.91016-4.4414 1.44922-2.94141 1.07812-1.4961.64063-4.4375 1.6875-4.4375-2.28906"/><path fill="#00ac00" fill-rule="evenodd" d="M180.46875 431.50781l-.25781-4.4375 3.73437-3.58203 4.4375-.6289v.17187l-4.4375.79297-3.38672 3.2461.90235 4.4375 2.48437 1.29296 3.04297-1.29297 1.39453-.21094 4.4375-2.15234 4.4414-1.76562.35548-.3086-.35547-.51172-4.4414-1.90234-4.4375-1.625v-.17188l4.4375 1.05079 4.4414 1.33203 1.27344 1.82812-1.27344 1.10938-4.4414 1.60547-4.4375 1.6953-.1797.02735-4.2578 1.8086-3.47657-1.8086"/><path fill="#00c800" fill-rule="evenodd" d="M181.46094 431.50781l-.90235-4.4375 3.38672-3.2461 4.4375-.79296v.34766l-4.4375 1.11328-2.6914 2.57812 2.1875 4.4375.5039.26172.61328-.26172 3.82422-.57031 4.4375-3.08203 1.91797-.78516-1.91797-.91797-4.4375-2.77343v-.34766l4.4375 1.625 4.4414 1.90234.35548.51172-.35547.3086-4.4414 1.76562-4.4375 2.15235-1.39454.21093-3.04297 1.29297-2.48437-1.29297"/><path fill="#10cc00" fill-rule="evenodd" d="M183.4414 431.50781l-2.1875-4.4375 2.69141-2.57812 4.4375-1.11328v.34375l-4.4375 1.43359-1.99219 1.91406 1.9922 3.51953 4.4375-.01562 4.26952-3.5039-4.26953-3.34766v-.34375l4.4375 2.77343 1.91797.91797-1.91797.78516-4.4375 3.08203-3.82422.57031-.61328.26172-.5039-.26172"/><path fill="#24d000" fill-rule="evenodd" d="M183.94531 430.58984l-1.99219-3.51953 1.9922-1.91406 4.4375-1.4336v.34766l-4.4375 1.7539-1.29688 1.2461 1.29687 2.28906 4.4375.85157 3.82813-3.14063-3.82813-3v-.34765l4.26953 3.34765-4.26953 3.5039-4.4375.01563"/><path fill="#3cd800" fill-rule="evenodd" d="M183.94531 429.35938l-1.29687-2.28907 1.29687-1.2461 4.4375-1.7539v.34375l-4.4375 2.07813-.60156.57812.60156 1.0586 4.4375 1.72265 3.38672-2.78125-3.38672-2.65625v-.34375l3.82813 3-3.82813 3.14063-4.4375-.85156"/><path fill="#54dc00" fill-rule="evenodd" d="M183.94531 428.1289l-.60156-1.05859.60156-.57812 4.4375-2.07813v.34766l-4.34765 2.3086 4.34765 2.41796 2.94531-2.41797-2.9453-2.3086v-.34765l3.38671 2.65625-3.38672 2.78125-4.4375-1.72265"/><path fill="#e8e05c" fill-rule="evenodd" d="M188.38281 429.48828l-4.34765-2.41797 4.34765-2.3086v.34376l-3.69922 1.96484 3.69922 2.05469 2.50781-2.05469-2.5078-1.96484v-.34375l2.9453 2.3086-2.9453 2.41796"/><path fill="#e8d450" fill-rule="evenodd" d="M188.38281 429.125l-3.69922-2.05469 3.69922-1.96484v.6914l-2.39844 1.27344 2.39844 1.33203 1.625-1.33203-1.625-1.27344v-.6914l2.50781 1.96484-2.5078 2.05469"/><path fill="#e8b830" fill-rule="evenodd" d="M188.38281 428.40234l-2.39844-1.33203 2.39844-1.27344v.69141l-1.09375.58203 1.09375.60938.74219-.60938-.74219-.58203v-.6914l1.625 1.27343-1.625 1.33203"/><path fill="#e8a824" fill-rule="evenodd" d="M188.38281 427.67969l-1.09375-.60938 1.09375-.58203.74219.58203-.74219.60938"/><path fill="#00e8fc" fill-rule="evenodd" d="M201.69922 382.92188l-.14063-.23829.14063-.13671 4.4375-2.98047v1.5l-2.33984 1.61718 2.33984 2.22657 1.67969-2.22657-1.6797-1.61718v-1.5l3.23438 3.11718-3.23437 4.28907-4.4375-4.05079"/><path fill="#00d4fc" fill-rule="evenodd" d="M206.13672 384.91016l-2.33984-2.22657 2.33984-1.61718v1.5l-.17188.11718.17188.16407.125-.16407-.125-.11718v-1.5l1.67969 1.61718-1.6797 2.22657"/><path fill="#009800" fill-rule="evenodd" d="M206.13672 423.0039l-2.03125-.375 2.03125-.79296 1.01562.79297-1.01562.375"/><path fill="#00c4fc" fill-rule="evenodd" d="M206.13672 382.84766l-.17188-.16407.17188-.11718.125.11718-.125.16407"/><path fill="#00e8fc" fill-rule="evenodd" d="M210.57422 376.41797l-.51172-2.60938.51172-2.66015.26562-1.77735 4.17578-2.76171 4.4375-1.28125v1.96093l-4.4375 1.32031-1.14843.76172-1.05469 4.4375 2.20313 3.28125 4.4375 1.01172 4.4375-1.20703 4.4375-2.76562.23046-.32032-.23047-.25-4.4375-2.54296-1.37109-1.64454-3.0664-2.08203v-1.96094l4.4375 2.26172 2.10156 1.78125 2.33594 1.54297 2.6953 2.89453-2.6953 3.71875-1.09375.71875-3.34375 2.9297-4.4375.26562-4.4375-.71875-3.92579-2.47657-.51562-1.82812"/><path fill="#00d4fc" fill-rule="evenodd" d="M215.01563 377.08984l-2.20313-3.28125 1.05469-4.4375 1.14844-.76171 4.4375-1.32032V369.25l-.39454.1211-2.97265 4.4375 3.36719 1.34374 3.10546-1.34375-2.93359-4.4375-.17188-.12109v-1.96094l3.06641 2.08203 1.3711 1.64454 4.4375 2.54296.23046.25-.23047.32032-4.4375 2.76562-4.4375 1.20703-4.4375-1.01172"/><path fill="#00c4fc" fill-rule="evenodd" d="M219.45313 375.15234l-3.3672-1.34375 2.97266-4.4375.39453-.12109.17188.1211 2.9336 4.4375-3.10548 1.34374"/><path fill="#fff" fill-opacity="0" fill-rule="evenodd" d="M228.32813 404.5625l-4.02735.3125 4.02734 3.26172.47657-3.26172-.47656-.3125"/><path fill="#00d4fc" fill-rule="evenodd" d="M228.32813 401.65625l-2.01172-1.21875L227.46484 396l.86328-.8125 4.4375-2.39844 4.44141-.83984v1.35937l-4.4414 1.8086-1.4961.88281L229 400.4375l3.76563 2.71484 4.4414.2422 4.4375-.4336 2.1836-2.52344 2.2539-2.42578L247.84375 396l-1.76172-1.8711-4.4375-.54687-4.4375-.27344v-1.35937l4.4375.50781 4.4375.6289 2.75 2.91407-2.75 3.13672-1.21094 1.30078-3.22656 3.73047-4.4375.34765-4.4414.1172-4.4375-2.97657"/><path fill="#00c4fc" fill-rule="evenodd" d="M232.76563 403.15234L229 400.4375 231.26953 396l1.4961-.88281 4.4414-1.8086v1.35938L234.48828 396l-1.72266 1.88672-1.71484 2.55078 1.71484 1.23828 4.44141.59766 4.4375-.51953 1.13672-1.31641 3.30078-3.55078.77734-.88672-.77734-.82422-4.4375-.47265-4.4375-.03516v-1.35938l4.4375.27344 4.4375.54688L247.84375 396l-1.76172 2.01172-2.2539 2.42578-2.1836 2.52344-4.4375.4336-4.4414-.2422"/><path fill="#fff" fill-opacity="0" fill-rule="evenodd" d="M232.76563 408.86328l-3.20704.45313 3.20703 1.3164 3.06641-1.3164-3.0664-.45313"/><path fill="#00b8fc" fill-rule="evenodd" d="M232.76563 401.67578l-1.71485-1.23828 1.71484-2.55078L234.48828 396l2.71875-1.33203 4.4375.03515v1.125L237.72266 396l-.51563.13672-3.53906 4.30078 3.53906.71484 4.4375-.60546.09375-.10938L243.50781 396l-1.86328-.17188v-1.125l4.4375.47266.77734.82422-.77734.88672-3.30078 3.55078-1.13672 1.3164-4.4375.51954-4.4414-.59766"/><path fill="#00a8fc" fill-rule="evenodd" d="M237.20703 401.15234l-3.53906-.71484 3.53906-4.30078.51563-.13672 3.92187-.17188 1.86328.17188-1.76953 4.4375-.09375.10938-4.4375.60546"/><path fill="#50fcfc" fill-rule="evenodd" d="M246.08203 379.0586L245 378.2461l1.08203-.60548 1.46484.60547-1.46484.8125m13.3164 6.46094l-4.21874-2.83594 4.21875-2.85156v2.47266l-.5625.3789.5625.37891.66797-.3789-.66797-.37891v-2.47266l3.57812-1.58594.85938-.83984.86719.83984-.1172 4.4375-.75.77735-4.4375 2.0586"/><path fill="#00e8fc" fill-rule="evenodd" d="M259.39844 383.0625l-.5625-.3789.5625-.37891.66797.3789-.66797.37891"/><path fill="#50fcfc" fill-rule="evenodd" d="M263.83594 406.7539l-1.33985-1.8789 1.33985-1.1211 1.64062 1.1211-1.64062 1.8789m79.89062 46.02735l-3.49219-3.51953 3.4922-3.25 1.37109-1.1914 3.0664-2.9375 3.16797-1.5 1.26953-.85938 4.4414-2.125v3.60547l-4.4414 1.26562-3.41015 2.55078-1.02735 2.99219-1.97656 1.44922 1.97656 1.29297 4.4375-.4336 3.5-.85937.9414-.0625 4.4375-1.14453 4.4375-1.36719 2.70313 2.57422 1.73438 1.89453 1.47656-1.89453 2.96094-2.26563v1.78516l-.625.48047.625 3.33594.48437-3.33594-.48437-.48047v-1.78516l2.27734 2.26563 2.16406 2.20703 2.21875-2.20703-2.21875-2.33985-2.08984-2.10156-2.35156-2.03515-4.4375.08984-4.4375.61328-4.4375-1.10937-4.4375-1.375v-3.60547l2.60937 2.98437 1.82813.5586 4.4375.67968 3.00781-1.23828 1.42969-1.46094 1.8711 1.46094 2.5664.72656 4.28515 3.71094.15625.16016 4.0586 4.28125-4.0586 4.03906-3.15234.39844-1.28906.57812-4.4375 1.1836-1.96094-1.76172-2.47656-4.125-4.4375 1.96094-4.4375 1.5625-1.22656.60156-3.21485 2.0039-4.4375.52344-3.28906-2.52734-1.14844-.91797"/><path fill="#00e8fc" fill-rule="evenodd" d="M348.16406 450.55469l-1.97656-1.29297 1.97656-1.44922 1.02735-2.99219 3.41015-2.55078 4.4414-1.26562v2.3164l-3.04687 1.5 3.04688 1.72266 4.4375-1.65625.15625-.0664-.15625-.04688-4.4375-1.45313v-2.3164l4.4375 1.375 4.4375 1.10937 4.4375-.61328 4.4375-.08984 2.35156 2.03515 2.08985 2.10156 2.21875 2.33985-2.21875 2.20703-2.16407-2.20703-2.27734-2.26563-2.96094 2.26563-1.47656 1.89453-1.73438-1.89453-2.70312-2.57422-4.4375 1.36719-4.4375 1.14453-.9414.0625-3.5.85937-4.4375.4336"/><path fill="#00d4fc" fill-rule="evenodd" d="M357.04297 446.54297l-3.04688-1.72266 3.04688-1.5 4.4375 1.45313.15625.04687-.15625.0664-4.4375 1.65626"/><path fill="#fff" fill-opacity="0" fill-rule="evenodd" d="M374.79297 448.78125l-.625.48047.625 3.33594.48437-3.33594-.48437-.48047"/><path fill="#50fcfc" fill-rule="evenodd" d="M428.05469 400.57813l-.1875-.14063.1875-.15625L430.48438 396l2.0078-3.44531.19141-.99219 2.08594-4.4375 2.16016-2.07422v2.80078l-2.88281 3.71094.0703 4.4375 2.8125 2.21484 2.90626 2.22266 1.53515.98438 4.4375.27343 3.78516 3.17969.65234 1.70313.39454-1.70313.10156-4.4375-.4961-.51953-4.4375-.36328-4.4375-2.9375-.35156-.61719-1.48047-4.4375-2.60937-3.71094v-2.80078l2.61328 2.07422 1.22656 4.4375.60156 1.53516L444.31641 396l1.49218 1.13281 4.4375.28906L453.1875 396l-.64453-4.4375-2.14453-4.4375 4.28515-4.30469 4.44141-.09375v.23438l-4.4414.11328-4.03516 4.05078 4.03515 4.33594 1.19141.10156 3.25 1.69922 1.69922-1.69922 2.3789-4.4375-4.07812-4.16406v-.23438l4.30469 4.39844-.96485 4.4375-3.33984 3.34375L456.03125 396l-1.34766 1.35938-1.5625 3.07812-.0078 4.4375 1.5703 3.86719.55079.57422-.55079.54687-4.4375 2.875-2.46875-3.42187-1.96875-3.94141-.45703-.5-3.98047-1.36328-4.4414-2.46094-4.4375 1.6289-4.4375-2.10156"/><path fill="#00e8fc" fill-rule="evenodd" d="M434.11719 396l-.07031-4.4375 2.8828-3.71094v2.91797l-.61327.79297.61328 1.6289.5586-1.6289-.5586-.79297v-2.91797l2.60937 3.71094L441.01953 396l.35156.61719 4.4375 2.9375 4.4375.36328.4961.51953-.10156 4.4375-.39454 1.70313-.65234-1.70313-3.78516-3.17969-4.4375-.27344-1.53515-.98437-2.90625-2.22266L434.11719 396"/><path fill="#00d4fc" fill-rule="evenodd" d="M436.92969 393.1914l-.61328-1.6289.61328-.79297.5586.79297-.5586 1.6289"/><path fill="#00e8fc" fill-rule="evenodd" d="M454.6836 391.46094l-4.03516-4.33594 4.03515-4.05078 4.44141-.11328v.38672l-4.4414.14453-3.6172 3.63281 3.6172 3.88672 4.4414.38281 3.69922-4.26953-3.69922-3.77734v-.38672l4.07813 4.16406-2.37891 4.4375-1.69922 1.69922-3.25-1.69922-1.1914-.10156"/><path fill="#00d4fc" fill-rule="evenodd" d="M454.6836 391.01172l-3.6172-3.88672 3.6172-3.63281 4.4414-.14453v.3828l-4.4414.1797-3.19923 3.21484 3.19922 3.4375 4.44141.39453 3.32031-3.83203-3.32031-3.39453v-.38281l3.69922 3.77734-3.69922 4.26953-4.4414-.38281"/><path fill="#00c4fc" fill-rule="evenodd" d="M454.6836 390.5625l-3.19923-3.4375 3.19922-3.21484 4.44141-.1797v.38673l-4.4414.21094-2.78126 2.79687 2.78125 2.98828 4.44141.41016 2.9414-3.39844-2.9414-3.00781v-.38672l3.32031 3.39453-3.32031 3.83203-4.4414-.39453"/><path fill="#00b8fc" fill-rule="evenodd" d="M454.6836 390.11328l-2.78126-2.98828 2.78125-2.79688 4.44141-.21093v.38672l-4.4414.24218-2.36329 2.37891 2.36328 2.53906 4.44141.42188 2.5625-2.96094-2.5625-2.6211v-.38671l2.9414 3.00781-2.9414 3.39844-4.4414-.41016"/><path fill="#00a8fc" fill-rule="evenodd" d="M454.6836 389.66406l-2.36329-2.53906 2.36328-2.3789 4.44141-.2422v.38673l-4.4414.27734-1.94532 1.95703 1.94531 2.09375 4.44141.42969 2.1836-2.52344-2.1836-2.23438v-.38671l2.5625 2.62109-2.5625 2.96094-4.4414-.42188"/><path fill="#009800" fill-rule="evenodd" d="M454.6836 389.21875l-1.94532-2.09375 1.94531-1.95703 4.44141-.27735v.38672l-4.4414.3086-1.53126 1.53906 1.53125 1.64453 4.44141.4414 1.8086-2.08593-1.8086-1.84766v-.38671l2.1836 2.23437-2.1836 2.52344-4.4414-.42969"/><path fill="#00ac00" fill-rule="evenodd" d="M454.6836 388.76953l-1.53126-1.64453 1.53125-1.53906 4.44141-.3086v.38672l-4.4414.33985-1.11329 1.12109 1.11328 1.19531 4.44141.45313 1.42969-1.64844-1.42969-1.46094v-.38672l1.8086 1.84766-1.8086 2.08594-4.4414-.4414"/><path fill="#00c800" fill-rule="evenodd" d="M454.6836 388.32031l-1.11329-1.19531 1.11328-1.1211 4.44141-.33984v.77344l-4.4414.40625-.27735.28125.27734.29688 4.44141.47656.67188-.77344-.67188-.6875v-.77344l1.42969 1.46094-1.42969 1.64844-4.4414-.45313"/><path fill="#10cc00" fill-rule="evenodd" d="M454.6836 387.42188l-.27735-.29688.27734-.28125 4.44141-.40625.67188.6875-.67188.77344-4.4414-.47656"/><g clip-path="url(#d)"><path fill="#fff" fill-opacity="0" fill-rule="evenodd" d="M467.9961 480.32813H468V311.67188h-.0039H468v168.65625h-.0039"/></g><path fill="#fff" fill-opacity="0" fill-rule="evenodd" d="M210.07031 387.65234l5.09375-2.86328-4.8789-8.6836-5.09375 2.86329 4.8789 8.6836"/><path fill-rule="evenodd" d="M209.14063 378.85156l.4414-.25 3.08594 5.48828-.6875.38672-2.19922-3.91406-1.21094.67969-.26953-.48438.45313-.33203.1953-.17187.15626-.1875.10937-.22266.04688-.26953-.01953-.32813-.10156-.39453"/><path fill="#fff" fill-opacity="0" fill-rule="evenodd" d="M250.82813 406.0664l3.16406-4.91015-8.375-5.39063-3.16406 4.91016 8.375 5.39063"/><path fill-rule="evenodd" d="M245.89063 398.72656l.27343-.42969 5.29297 3.41016-.42578.66016-3.77344-2.42969-.7539 1.16797-.46485-.30078.2461-.50781.09375-.23829.04687-.24218-.00781-.25-.08203-.25782-.17188-.27734-.27344-.30469"/><path fill="#fff" fill-opacity="0" fill-rule="evenodd" d="M445.9414 417.09375l5.73829 1.07813 1.83984-9.78907-5.74219-1.07812-1.83593 9.78906"/><path fill-rule="evenodd" d="M450.8789 409.75l.5.09375-1.16015 6.1875-.77344-.14453.82813-4.41406-1.36719-.25391.10547-.54688.5625.03907.25781-.00781.23828-.04297.22656-.10157.21094-.17578.19531-.26172.17579-.37109"/><path fill="#fff" fill-opacity="0" fill-rule="evenodd" d="M208.57031 431.73047l7.45703-2.67578-3.4375-9.59375-7.45703 2.67187 3.4375 9.59766"/><path fill-rule="evenodd" d="M208.08594 423.02344l3.09375-1.10938.25.69922-2.48438.88672.39063 1.77734.16015-.22656.20703-.21875.27735-.1914.34766-.16016.3164-.08203.34375-.03516.36328.02735.36719.09765.35547.17969.16797.125.16015.14844.14844.17578.13672.20312.125.23047.10938.26172.11328.42969.04687.42969-.03125.42187-.11328.39844-.19531.36719-.1289.17187-.14845.16016-.17187.14453-.19531.13281-.21875.11328-.2422.10156-.45312.125-.40625.03516-.37109-.03906-.33203-.10938-.29688-.17187-.26172-.22266-.23046-.26562-.20313-.3047.74219-.26562.15234.19141.16797.16016.17578.1289.1914.09766.19923.0586.20703.02343.21484-.01953.22656-.0586.28907-.1289.23828-.16406.1914-.19532.13672-.22656.08594-.25781.02344-.28906-.03125-.31641-.09766-.34375-.10937-.24219-.14453-.22656-.1797-.19922-.21483-.16406-.2461-.1211-.27734-.05859-.30469.0039-.33203.07813-.30469.14844-.22656.19922-.19531.26562-.20313.35938-.65234.23437-.71875-3.3789"/><g clip-path="url(#e)"><path fill="none" stroke="#000" stroke-linecap="round" stroke-linejoin="round" stroke-miterlimit="10" stroke-width=".5" d="M146.73438 482.53516l-5.46875-4.41016"/></g><g clip-path="url(#f)"><path fill="none" stroke="#000" stroke-linecap="round" stroke-linejoin="round" stroke-miterlimit="10" stroke-width=".5" d="M160.21094 482.32031l-5.79297-3.98047"/></g><g clip-path="url(#g)"><path fill="none" stroke="#000" stroke-linecap="round" stroke-linejoin="round" stroke-miterlimit="10" stroke-width=".5" d="M173.3789 482.51563l-5.5-4.375"/></g><g clip-path="url(#h)"><path fill="none" stroke="#000" stroke-linecap="round" stroke-linejoin="round" stroke-miterlimit="10" stroke-width=".5" d="M186.14453 483.0664l-4.40234-5.47656"/></g><g clip-path="url(#i)"><path fill="none" stroke="#000" stroke-linecap="round" stroke-linejoin="round" stroke-miterlimit="10" stroke-width=".5" d="M199.0039 483.3789l-3.48827-6.10156"/></g><g clip-path="url(#j)"><path fill="none" stroke="#000" stroke-linecap="round" stroke-linejoin="round" stroke-miterlimit="10" stroke-width=".5" d="M211.97656 483.55078l-2.80469-6.44531"/></g><g clip-path="url(#k)"><path fill="none" stroke="#000" stroke-linecap="round" stroke-linejoin="round" stroke-miterlimit="10" stroke-width=".5" d="M226.1836 482.99219l-4.58594-5.32813"/></g><g clip-path="url(#l)"><path fill="none" stroke="#000" stroke-linecap="round" stroke-linejoin="round" stroke-miterlimit="10" stroke-width=".5" d="M239.42188 483.05469l-4.4336-5.45313"/></g><g clip-path="url(#m)"><path fill="none" stroke="#000" stroke-linecap="round" stroke-linejoin="round" stroke-miterlimit="10" stroke-width=".5" d="M252.8711 482.9414l-4.69923-5.22656"/></g><g clip-path="url(#n)"><path fill="none" stroke="#000" stroke-linecap="round" stroke-linejoin="round" stroke-miterlimit="10" stroke-width=".5" d="M266.80469 482.20703l-5.9375-3.75781"/></g><g clip-path="url(#o)"><path fill="none" stroke="#000" stroke-linecap="round" stroke-linejoin="round" stroke-miterlimit="10" stroke-width=".5" d="M280.07422 482.27734l-5.84766-3.89843"/></g><g clip-path="url(#p)"><path fill="none" stroke="#000" stroke-linecap="round" stroke-linejoin="round" stroke-miterlimit="10" stroke-width=".5" d="M292.90625 482.85938l-4.8789-5.0586"/></g><g clip-path="url(#q)"><path fill="none" stroke="#000" stroke-linecap="round" stroke-linejoin="round" stroke-miterlimit="10" stroke-width=".5" d="M306.16406 482.91016l-4.76562-5.16407"/></g><g clip-path="url(#r)"><path fill="none" stroke="#000" stroke-linecap="round" stroke-linejoin="round" stroke-miterlimit="10" stroke-width=".5" d="M318 483.72266l-1.8086-6.78907"/></g><g clip-path="url(#s)"><path fill="none" stroke="#000" stroke-linecap="round" stroke-linejoin="round" stroke-miterlimit="10" stroke-width=".5" d="M333.46094 478.58594l-6.10156 3.48828"/></g><path fill="none" stroke="#000" stroke-linecap="round" stroke-linejoin="round" stroke-miterlimit="10" stroke-width=".5" d="M332.57422 479.08984l1.03515.65625"/><g clip-path="url(#t)"><path fill="none" stroke="#000" stroke-linecap="round" stroke-linejoin="round" stroke-miterlimit="10" stroke-width=".5" d="M345.9375 477.59766l-4.42188 5.46093"/></g><path fill="none" stroke="#000" stroke-linecap="round" stroke-linejoin="round" stroke-miterlimit="10" stroke-width=".5" d="M345.29297 478.39453l1.20703.23047"/><g clip-path="url(#u)"><path fill="none" stroke="#000" stroke-linecap="round" stroke-linejoin="round" stroke-miterlimit="10" stroke-width=".5" d="M359.5664 477.88672l-5.05077 4.88281"/></g><path fill="none" stroke="#000" stroke-linecap="round" stroke-linejoin="round" stroke-miterlimit="10" stroke-width=".5" d="M358.83203 478.59766l1.16797.3789"/><g clip-path="url(#v)"><path fill="none" stroke="#000" stroke-linecap="round" stroke-linejoin="round" stroke-miterlimit="10" stroke-width=".5" d="M371.4375 483.67188l-2.16406-6.6875"/></g><g clip-path="url(#w)"><path fill="none" stroke="#000" stroke-linecap="round" stroke-linejoin="round" stroke-miterlimit="10" stroke-width=".5" d="M386.58203 482.29688l-5.82031-3.9336"/></g><g clip-path="url(#x)"><path fill="none" stroke="#000" stroke-linecap="round" stroke-linejoin="round" stroke-miterlimit="10" stroke-width=".5" d="M394.1289 482.375l5.71485-4.08984"/></g><g clip-path="url(#y)"><path fill="none" stroke="#000" stroke-linecap="round" stroke-linejoin="round" stroke-miterlimit="10" stroke-width=".5" d="M394.96094 481.77734l-1.09766-.54297"/></g><g clip-path="url(#z)"><path fill="none" stroke="#000" stroke-linecap="round" stroke-linejoin="round" stroke-miterlimit="10" stroke-width=".5" d="M407.23047 482.03906l6.14062-3.41797"/></g><g clip-path="url(#A)"><path fill="none" stroke="#000" stroke-linecap="round" stroke-linejoin="round" stroke-miterlimit="10" stroke-width=".5" d="M408.125 481.53906l-1.03125-.66406"/></g><g clip-path="url(#B)"><path fill="none" stroke="#000" stroke-linecap="round" stroke-linejoin="round" stroke-miterlimit="10" stroke-width=".5" d="M420.45703 481.8711l6.3164-3.08204"/></g><g clip-path="url(#C)"><path fill="none" stroke="#000" stroke-linecap="round" stroke-linejoin="round" stroke-miterlimit="10" stroke-width=".5" d="M420.45703 481.8711l-1.98437-1.44532"/></g><g clip-path="url(#D)"><path fill="none" stroke="#000" stroke-linecap="round" stroke-linejoin="round" stroke-miterlimit="10" stroke-width=".5" d="M434.07813 482.375l5.70703-4.09375"/></g><g clip-path="url(#E)"><path fill="none" stroke="#000" stroke-linecap="round" stroke-linejoin="round" stroke-miterlimit="10" stroke-width=".5" d="M447.61719 482.66016l5.25781-4.66407"/></g><g clip-path="url(#F)"><path fill="none" stroke="#000" stroke-linecap="round" stroke-linejoin="round" stroke-miterlimit="10" stroke-width=".5" d="M460.65625 482.3086l5.8086-3.95704"/></g><g clip-path="url(#G)"><path fill="none" stroke="#000" stroke-linecap="round" stroke-linejoin="round" stroke-miterlimit="10" stroke-width=".5" d="M461.5039 481.73047l-1.08593-.57031"/></g><g clip-path="url(#H)"><path fill="none" stroke="#000" stroke-linecap="round" stroke-linejoin="round" stroke-miterlimit="10" stroke-width=".5" d="M146.73047 469.22266l-5.46094-4.41797"/></g><path fill="none" stroke="#000" stroke-linecap="round" stroke-linejoin="round" stroke-miterlimit="10" stroke-width=".5" d="M146.73047 469.22266l-.46875 2.41015m13.6875-2.29297l-5.26563-4.65234m5.26563 4.65234l-.57422 2.38672m14.09375-2.64453l-5.67969-4.13672m5.67969 4.13672l-.34375 2.42969m13.70703-2.4961l-5.77344-4.0039m5.77344 4.0039l-.28516 2.4375m13.47266-2.26562L194.5 464.83984m5.51953 4.34766l-.4336 2.41406m13.04298-1.73828l-4.10938-5.69922m4.10938 5.69922l-1.08203 2.20313M226 469.8242l-4.21875-5.62108m3.60547 4.80078l-.51953 1.11328m13.53906.19922l-2.40234-6.60547m2.05468 5.64453l-.82422.91016m14.60157.0078l-2.6289-6.51952m2.24608 5.5703l-.78906.9375m15.48047-.60155l-4.61719-5.29297m4.6172 5.29297l-.875 2.29297m14.82421-3.01954l-5.88672-3.83984m5.88672 3.83984l-.21875 2.44532m13.26563-2.08594l-5.34766-4.5586m5.34765 4.5586l-.53125 2.39453m12.53907-1.4375l-2.73438-6.47266m2.33594 5.53125l-.77344.95313m15.16406-.39063l-4.08984-5.71484m16.98438-.25781l-3.25 6.23047M346.18359 464.5l-4.91406 5.02734m4.19922-4.29296l1.17578.34375m12.60156-1.30079l-4.41015 5.47266m3.76953-4.67578l1.20312.23047m12.71094-1.0586l-4.32812 5.53516m13.1289-.15625l4.70313-5.22266m-4.01953 4.46094l-1.19141-.29687m13.29297.45703l5.76172-4.01953m-4.92188 3.4375l-1.09375-.5586m13.1211.25782l6.65625-2.25391m-6.65625 2.2539l-1.78516-1.68359m15.16016 1.84766l6.53515-2.58203m-6.53515 2.58203l-1.8672-1.58985m15.2461 1.73829l6.41016-2.87891m-6.41016 2.8789l-1.9375-1.5039m15.55078 2.03906l5.8125-3.94922m-5.8125 3.94922l-2.17187-1.14844m15.29687.83594l6.19141-3.32422m-6.1914 3.32422l-2.03907-1.36328"/><g clip-path="url(#I)"><path fill="none" stroke="#000" stroke-linecap="round" stroke-linejoin="round" stroke-miterlimit="10" stroke-width=".5" d="M146.14453 456.48438l-4.28906-5.57032"/></g><path fill="none" stroke="#000" stroke-linecap="round" stroke-linejoin="round" stroke-miterlimit="10" stroke-width=".5" d="M146.14453 456.48438l-1.01562 2.23437m14.19922-2.14063l-4.02344-5.76171m4.02344 5.76172l-1.1172 2.1875m14.57032-2.28907l-4.30469-5.55469m3.67969 4.7461l-.5039 1.11719m14.95312-.79297l-5.32031-4.58985m4.54687 3.92188l-.27344 1.19922m14.81641-1.20313l-6.23047-3.2461m5.32422 2.77345l.01172 1.22656m13.82812-.16797l-5.46484-4.41797m4.66797 3.77735l-.23047 1.20312m13.60547.1211l-3.99219-5.78126m3.41016 4.94141l-.5625 1.08984m13.15234.3047l-1.3789-6.89063m1.17968 5.88671l-.94922.77735m12.48047.04687l2.58594-6.53125m-2.20703 5.58203l-1.22266.13672m15.60547 1.0547l-.30469-7.01954m.26172 6l-1.0586.6211m16.4336-.34766l-4.33984-5.52344m3.71094 4.71875l-.4961 1.125m14.51172-.3789l-4.48437-5.40626m3.83203 4.6211l-.46485 1.13281m15-.9375l-5.61718-4.22656m12.64453 2.61718l6.95703-1.0078m8.34375-2.67579l2.98437 6.35938m8.82813-1.34375l5.98828-3.67579M341.60156 455l-1.05468-.6211m13.02734-.11718l6.9336-1.125m6.55077-.65235l6.59375 2.42579m-5.6328-2.07032l-.16798-1.21484m12.33594 2.52344l6.96875-.89844m-5.95703.76562l-.70703-1m12.98828.94141l7.01172-.51562m-7.01172.51562l-1.30469-2.07422m14.63281 1.4414l6.98829.75m-6.98829-.75l-.91406-2.27734m14.22266 2.98047l6.9961-.66015m-6.9961.66015l-1.34766-2.04687m14.95313 3.15234l6.41797-2.86719m-5.48438 2.44922l-.96875-.7539m13.5 1.46484l6.11719-3.45703m-5.22656 2.95703l-1.03516-.66016m13.44531 1.13672l6.14453-3.40625m-6.14453 3.40625l-2.0586-1.33593"/><g clip-path="url(#J)"><path fill="none" stroke="#000" stroke-linecap="round" stroke-linejoin="round" stroke-miterlimit="10" stroke-width=".5" d="M142.89453 443.71875l2.21094-6.67188"/></g><path fill="none" stroke="#000" stroke-linecap="round" stroke-linejoin="round" stroke-miterlimit="10" stroke-width=".5" d="M156.4414 443.78906l1.7461-6.8086m-1.7461 6.8086l-2.3828.57813m16.07812-.5039l.98437-6.95704m-.98437 6.95703l-2.30469.83594m17.64844-1.15625l-3.07031-6.32031m3.0703 6.3203l-1.4453 1.98438m16.27734-3.40234l-6.10547-3.48438m5.21484 2.97657l-.03515 1.22656m14.38281-1l-6.39062-2.92188m5.46093 2.4961l.07422 1.22656m13.91016-.32812l-5.86719-3.8672m5.01172 3.3047l-.11328 1.22265m13.3711.28125l-4.04298-5.75m3.45313 4.91406l-.55469 1.09375m13.98828.01954l-3.09765-6.3047m2.64843 5.39063l-.71875.9922m11.88282.125l2.09765-6.70704m-1.78906 5.73047l-1.20703.22656m12.32031-.6875l5.88672-3.83594m9.92578-1.5664l.89453 6.96875m11.5586-6.7461l2.61718 6.52344m-2.23437-5.57422l.78906-.9375m11.33594.44531l4.23047 5.60938m-3.61719-4.79297l.51953-1.11328m12.97656-.15234l2.64063 6.51171m-2.2539-5.5664l.78515-.9414m9.97266 3.66015l6.98046-.8164m6.31641.60155l7.01953-.38671m-5.9961.32812l-.63671-1.04687m13.34375-.75l6.1914 3.32421m-5.29296-2.83984l.0078-1.23047m12.17188 3.52735L387 439.26562m-5.6914 1.91016l-.89063-.84375m13.07422.41016l6.98828-.71875m-6.98828.71875l-1.36719-2.03907m14.95703.27735l6.4414 2.80469m-6.4414-2.8047l-.1914-2.4453m13.45703 2.55859l6.53515 2.58203m-5.58203-2.20703l-.13672-1.21875m12.28907 2.63672l6.95703-1.00781m-6.95703 1.0078l-1.44922-1.97655m15.25 3.3125l5.98437-3.6797m-5.98437 3.6797l-2.1172-1.2422m15.23438.875l6.37891-2.9453m-6.3789 2.9453l-1.95313-1.48437"/><g clip-path="url(#K)"><path fill="none" stroke="#000" stroke-linecap="round" stroke-linejoin="round" stroke-miterlimit="10" stroke-width=".5" d="M146.35938 424.46484l-4.71875 5.20703"/></g><path fill="none" stroke="#000" stroke-linecap="round" stroke-linejoin="round" stroke-miterlimit="10" stroke-width=".5" d="M145.67188 425.22266l1.1914.30078m7.60156 3.59765l5.70313-4.10546m-5.70313 4.10546l-2.20312-1.08593m15.88672 1.51953l4.96094-4.97266m-4.96094 4.97266l-2.34766-.71094m15.40234.42188l5.48438-4.39454m-5.48438 4.39454l-2.2539-.96875m16.41797 1.73046l3.78515-5.91796m-3.23437 5.05859l-1.22266-.09766m17.2461 1.23438l-2.73047-6.47266m13.84375 6.64844l1.67187-6.82422m-1.42969 5.83203l-1.1875.30078m11.59375-2.42187l7.00391-.59766m-5.98437.51172l-.66407-1.03125m13.05078 1.66406l6.82032-1.6914m-5.82813 1.4453l-.82031-.91405m13.33203 1.71875l6.4414-2.8086m-5.5039 2.39844l-.96094-.76172m19.82032-1.54297l-6.51953 2.6211m15.02343-4.46485l3.10156 6.3086m-2.64843-5.39063l.71484-.99219m12.6836-.1328l2.03125 6.72655m-2.03125-6.72656l1.73828-1.73047m12.01562 1.625l1.15235 6.9336m-1.15235-6.9336l1.94531-1.49218m10.5 1.7578l2.89063 6.40235m-2.46875-5.47265l.75-.96875m13.20312-.25391l.76954 6.98828m-.65625-5.96875l1.01171-.6914m12.39844-.34376l.35547 7.01953m-.30469-5.99609l1.05469-.63281m8.9375 2.44531l6.89844 1.34766m-5.89453-1.15235l-.35547-1.17187m13.375 3.84766l5.48047-4.39454m-4.6836 3.75782l-1.125-.48828m14.40625 1.83203l3.95703-5.8086m7.94532 1.98047l6.78125 1.84766m-5.79297-1.57813l-.27344-1.19531m15.24219-1.58203l1.5 6.86328m-1.28125-5.86328l.9336-.79688m13.5664-.22265l-1.3086 6.90234m13.01172-6.83203l1.91406 6.76172m-1.63671-5.77734l.88671-.85157m9.88282 4.64063l6.45312-2.78516m-5.51562 2.3789l-.95703-.76562"/><g clip-path="url(#L)"><path fill="none" stroke="#000" stroke-linecap="round" stroke-linejoin="round" stroke-miterlimit="10" stroke-width=".5" d="M147.42578 414.53125l-6.85156-1.55469"/></g><path fill="none" stroke="#000" stroke-linecap="round" stroke-linejoin="round" stroke-miterlimit="10" stroke-width=".5" d="M146.42969 414.30469l.32031 1.1836m14.07031-1.50391l-7.01172-.46094m5.9922.39453l.5039 1.11719m13.69922-2.26172l-6.7461 1.96093m13.34766.10938l6.67969-2.17969m-5.70703 1.86328l-.88672-.85156m13.14843.875l6.84375-1.59766m-5.84765 1.3672l-.8086-.92579m13.6836 2.39453l5.73047-4.07031m-4.89844 3.47656l-1.09766-.55078m13.23047.53125l6.42969-2.84375m-6.42969 2.84375l-1.92969-1.51562m15.25 1.52734l6.41797-2.86719m-6.41797 2.86719l-1.93359-1.50781m15.02344.8086l6.8711-1.46876m-6.8711 1.46875l-1.58203-1.8789m15.09765 2.51562l6.46875-2.7461m-6.46875 2.7461l-1.90625-1.54297m15.03906 1l6.83204-1.65625m8.3164-2.3086l3.16407 6.27345m-2.70313-5.36329l.70703-1m11.42969.57032l4.60156 5.30859m-4.60156-5.3086l.88281-2.28906M316.5 410.28906l1.1914 6.92578m-1.1914-6.92578l1.9414-1.5m12.6172 1.51172l-1.29688 6.90625m1.29687-6.90625l2.33985-.73437m11.21484.78906l-1.77344 6.79687m1.77344-6.79687L347 409.78516m12.03125 1.07422l-3.98047 5.78906m3.40235-4.94922l1.21875.14062m12.96875-.7539l-4.57032 5.33594m3.90625-4.5625l1.19532.26953m13.85937.59765l-6.71875 2.05469m5.74219-1.7539l.86719.86718m13.14062-1.83984l-6.15234 3.39844m5.2578-2.90625l1.02735.67187m13.11328-1.28516l-6.01171 3.64063m5.13671-3.10938l1.05079.62891m13.44921-.4961l-6.6328 2.3125m6.6328-2.3125l1.80079 1.66407m10.42968-3.21875l-4.46484 5.42187m3.8164-4.6328l1.20313.24218m11.64063-1.65234l-2.22657 6.66406m1.90235-5.69531l1.21093-.20313m14.17579.52734l-5.72266 4.07813"/><g clip-path="url(#M)"><path fill="none" stroke="#000" stroke-linecap="round" stroke-linejoin="round" stroke-miterlimit="10" stroke-width=".5" d="M143.35547 403.89063l1.28906-6.90625"/></g><path fill="none" stroke="#000" stroke-linecap="round" stroke-linejoin="round" stroke-miterlimit="10" stroke-width=".5" d="M154.17578 402.01172l6.28125-3.14844m11.19531 1.57422l-.01953-.19922-.0586-.1914-.09374-.17579-.46094-.3789-.1914-.05469-.19922-.02344-.19922.02344-.1914.05469-.45704.3789-.09375.17579-.0586.1914-.01952.19922.01953.19922.05859.1914.09375.1797.45703.375.1914.05859.19923.01953.19922-.01953.1914-.0586.46094-.375.09375-.17969.0586-.1914.01952-.19922m9.73438 2.40625l5.11719-4.8125m7.24218 2.32813l7.02735.15625m-6.0039-.13282l-.55079-1.09375m12.95313 2.02344l6.80468-1.75m-6.80469 1.75l-1.65625-1.8086m15.0547 2.08594l6.64062-2.30078m-6.64063 2.30078l-1.79687-1.66796m14.98828 1.21484l6.88672-1.39844m-6.88672 1.39844l-1.5586-1.89453m15.83985 3.6875l4.95312-4.98438m-4.23047 4.26172l-1.17578-.35547m13.42578.6836l5.63672-4.19532m-5.63672 4.19532l-2.21484-1.05079m15.14844.39844l6.40234-2.89062m-5.47265 2.47265l-.96875-.75m13.30859 1.06641l6.49219-2.6875m-5.54688 2.29688l-.94531-.78125m13.20703-1.21875l6.70703 2.09765m-5.73047-1.79297l-.22656-1.20703m13.97656-.97656l3.88672 5.85547m-3.32031-5.0039l.58203-1.07813m13.23438-.25l1.75 6.80468m-1.4961-5.8125l.90625-.82812m15.57031.8125l-5.08203 4.85156m5.08204-4.85156l2.33203.77344m10.88671-.8711l-4.88671 5.05078m4.17578-4.3164l1.17969.33594m10.60156-2.0547l-.39453 7.01563m.33593-5.9961l1.11329-.51171m13.91406.01563l-3.70703 5.96875m3.16796-5.09766l1.22657.08203m10.0664-1.41016l1.41797 6.88282M396.48437 398l.94532-.78516m13.89453 3.22266l-.01953-.19922-.0586-.1914-.09375-.17579-.46093-.3789-.19141-.05469-.19922-.02344-.19922.02344-.1914.05469-.45704.3789-.09765.17579-.0586.1914-.01953.19922.01954.19922.05859.1914.09765.1797.45704.375.1914.05859.19922.01953.19922-.01953.1914-.0586.46094-.375.09375-.17969.0586-.1914.01953-.19922m13.11328-3.41406l-1.64063 6.83203m17.4922-4.45313l-6.71485 2.07032m5.73828-1.76954l.8711.8672m9.07421-3.50391l1.97656 6.74218m-1.6875-5.76171l.87891-.85547m10.41797 5.47265l5.4336-4.45312m-4.64063 3.80469l-1.13281-.47266"/><g clip-path="url(#N)"><path fill="none" stroke="#000" stroke-linecap="round" stroke-linejoin="round" stroke-miterlimit="10" stroke-width=".5" d="M145.63281 390.23438l-3.26562-6.22266"/></g><path fill="none" stroke="#000" stroke-linecap="round" stroke-linejoin="round" stroke-miterlimit="10" stroke-width=".5" d="M145.15625 389.32813l-.6914 1.01562m14.15234.04297l-2.60156-6.52735m2.22265 5.57813l-.79297.9375m13.98438.16797l-1.60156-6.83985m1.37109 5.84766l-.92578.80469m16.47265-1.11328l-5.60156-4.23828m4.78906 3.62109l-.1953 1.21094m14.9453-1.91406l-6.84375-1.59375m5.84766 1.35937L200 388.875m10.09766-5.23438l.95703 6.96485m-.8164-5.94922l.99218-.71875m9.14844 3.3164l7.02343-.26171m-7.02343.26172l-1.23047-2.1211m18.20312 5.5l-.29297-7.01953m.25 6l-1.05859.6211m12.70703.03515l3.125-6.29297m-2.66797 5.3789l-1.22656.03517m16.73438 1.07421l-2.17188-6.68359m1.85547 5.71094l-.85156.88281m16.125-1.03906l-5.45704-4.42578m4.66407 3.78125l-.23438 1.20703m10.8125.64453l1.60156-6.83985m-1.36718 5.84766l-1.1875.3125m18.58203-2.72265l-7.02735-.03516m6.00782.02734l.57031 1.08594m10.35938-4.60547l-.21485 7.02344m.1836-6.0039l1.10156-.54298m13.16015 3.03516l-.01953-.20313-.0586-.1914-.09374-.17578-.46094-.375-.1914-.0586-.19922-.01953-.19922.01953-.1914.0586-.45704.375-.09766.17578-.05859.1914-.01953.20313.01953.19922.0586.1914.09765.17579.45703.375.1914.05859.19923.01953.19921-.01953.19141-.0586.46094-.375.09375-.17577.0586-.19141.01952-.19922m14.88282-2.375l-5.1797 4.75m4.42579-4.0625l1.15625.41016m12.1289-1.73829l-3.60937 6.02735m3.08203-5.15235l1.22656.0625m12.85938-.77734l-4.10156 5.70703m3.50781-4.875l1.21484.16406m9.92188-1.58203l1.44531 6.87891m-1.23828-5.875l.9414-.78906m11.76563-.10547l2.2461 6.66015m-1.91797-5.6914l.83984-.89063m15.76172 5.72657l-4.98438-4.94922m4.26172 4.23047l-.35547 1.17578m11.66407.57422l.47656-7.01172m15.66406 1.1289L434.34375 389.5m4.42188-4.0625l1.15625.41016m12.89062-1.125l-5.1289 4.80468m5.1289-4.80468l2.32031.79296m7.02344 4.82813l2.8125-6.4414"/><g clip-path="url(#O)"><path fill="none" stroke="#000" stroke-linecap="round" stroke-linejoin="round" stroke-miterlimit="10" stroke-width=".5" d="M146.07813 376.64063l-4.15625-5.66797"/></g><path fill="none" stroke="#000" stroke-linecap="round" stroke-linejoin="round" stroke-miterlimit="10" stroke-width=".5" d="M146.07813 376.64063l-1.07032 2.21093m14.2461-2.11328l-3.875-5.85937m3.875 5.85937l-1.17188 2.15625m15.41406-3.05469l-5.73047-4.0664m4.89454 3.47656l-.15625 1.21484m14.46093-.85937l-6.03906-3.59766m5.16016 3.07422l-.0625 1.22656m13.44922-5.23046l-4.42188 5.46093m3.77734-4.66797l1.20313.23438m11.51953-1.67188l-1.94922 6.75m15.66406-6.60937l-2.7539 6.46484m2.35547-5.52344l1.22265-.10546m12.40625 5.66406l-2.58203-6.53516m2.20703 5.58594l-.79687.9336m9.6836-3.375l7.02343.25m-6-.21485l-.53516-1.10156m17.96875 4.30469l-3.2578-6.22657m2.78515 5.32031l-.69532 1.01172m15.89063-1.45312l-6.07422-3.53125m19.625 3.04297l-6.54687-2.55469m5.59375 2.1836l.14453 1.21874m14.35547-2.37109l-7.00782.48828m5.98828-.41406l.64844 1.03906m13.05469-2.89062l-5.7461 4.04296m4.91016-3.45312l1.09375.55469m7.91797-1.80469l4.53516 5.36719m-3.875-4.58594l.45312-1.14063m11.28516 1.55079l6.36328 2.98437m-5.4375-2.55078l-.0586-1.22656m12.58204.53906l6.09765 3.49219m-5.21093-2.98438l.03906-1.22656m11.92969 2.2461l7.01562.4375m9.1289-3.66798l1.35938 6.89454m-1.16406-5.89063l.95312-.77344m9.6836 4.7461l6.32422-3.05469m8.6289 4.69531l3.04688-6.33594m-2.60156 5.41407l-1.22657.04687m16.46094-5.70703l-1.67969 6.82422m1.4336-5.82813l1.1914-.30078m9.1875.10157l4.6836 5.23437m7.6211-3.67187l6.70312 2.10546m-6.70313-2.10546l-.44922-2.41016m16.20703.07031l1.81641 6.78906m-1.8164-6.78906l1.79687-1.67187m-1.53125 2.66015l.89844-.83593"/><g clip-path="url(#P)"><path fill="none" stroke="#000" stroke-linecap="round" stroke-linejoin="round" stroke-miterlimit="10" stroke-width=".5" d="M145.57813 363.63281l-3.15625-6.28125"/></g><path fill="none" stroke="#000" stroke-linecap="round" stroke-linejoin="round" stroke-miterlimit="10" stroke-width=".5" d="M145.11719 362.71875l-.71094 1m15.00781-.40625l-4.19922-5.63672m3.58985 4.8164l-.52735 1.10938m14.9922-.78906l-5.27735-4.64063m4.50781 3.96485l-.28125 1.19531m9.2539-.34375l4.94532-4.99219m-4.22656 4.26563l-1.17578-.35156m12.73437-1.58594l7.01953.33984m-7.01953-.33984l-1.04297-2.22266m14.5039 3.39844l6.73048-2.01563M207.21094 361.5l-1.72656-1.74219m21.78906-.21875l-6.76563 1.91016m6.76563-1.91016l1.69531 1.76953m11.14844-2.78125l-5.82422 3.9297m5.82422-3.9297l2.16797 1.15235m10.78906 3.22656l-5.10938-4.82422m4.3672 4.1211l-.32423 1.18359m14.26563-.36328l-4.875-5.0625m4.16406 4.32812l-.3789 1.16406m15.30077-1.85156l-6.66796-2.21875m5.69922 1.89844l.20312 1.20703m13.21875.5039l-4.94531-4.99609m4.94531 4.9961l-.73047 2.33984m13.7539-2.08203l-4.35937-5.51172m3.72656 4.70703l-.49218 1.125m9.88281-.48828l4.7539-5.17578m8.34376 4.95313l5.1914-4.73438m10.17188-1.10156l1.09375 6.9414m10.35156-.92187l4.83203-5.10156m-4.83203 5.10156l-2.36328-.65235m15.13672 0l5.91406-3.79687m-5.05078 3.2461l-1.07031-.60157m13.14843.3711l6.66407-2.23438m-5.69532 1.91016l-.89062-.84375m13.0586.22265l7.01952-.33984m-6 .28906l-.625-1.05469m13.27735 2.48829l6.30469-3.10547m-5.38672 2.65234l-.9961-.71875m13.4375-2.01953l6.21485 3.27734m-5.3086-2.80078l-.0039-1.22656m13.29687-.33203l4.44531 5.4414m-4.4453-5.4414l.94921-2.26563m11.13281 4.35938l6.91406 1.2539m-6.91406-1.2539l-.7461-2.33985m14.37892 1.38672l6.27734 3.16016m-6.27735-3.16016l-.05468-2.45312"/><g clip-path="url(#Q)"><path fill="none" stroke="#000" stroke-linecap="round" stroke-linejoin="round" stroke-miterlimit="10" stroke-width=".5" d="M147.03906 348.9414l-6.07812-3.52734"/></g><path fill="none" stroke="#000" stroke-linecap="round" stroke-linejoin="round" stroke-miterlimit="10" stroke-width=".5" d="M146.15625 348.42969l-.04688 1.22265m14.3125-.83593l-6.21484-3.27735m13.02344 2.52735l6.80078-1.77735m-5.8125 1.51953l-.82813-.90234m13.0625-.10547l6.98438.75781m-5.96875-.64843l-.45703-1.14063m13.15625 3.07813l6.1836-3.33985m-6.1836 3.33985l-2.04297-1.35938m15.13672.85547l6.6289-2.33203m-6.6289 2.33203l-1.80469-1.66406m2.76953 1.32422l-.90234-.83204m14.76953 3.02735l3.59375-6.03906m-3.07031 5.16015l-1.22656-.0586m19.21484-2.97265l-6.80078 1.77735m6.80078-1.77735l1.66016 1.80469m11.64843-.0039l-6.78515-1.82423m6.78515 1.82422l.54688 2.39454m12.46875-1.64063l-6.1875-3.33203m6.1875 3.33203l-.01172 2.45313m11.27734-.76563l-2.08984-6.70703m2.08984 6.70703l-1.72265 1.7461m17.04687-3.36329l-6.10937-3.47265m5.22265 2.96875l-.03515 1.22656m10.71093 1.02344l.94532-6.96485m-.8086 5.95313l-1.14844.42187m11.31641-3.34375l6.96875.90235m12.6289-2.57422l-5.59765 4.2461m13.9336-4.87892l4.35937 5.51172m-3.72656-4.71093l.49218-1.1211m11.52344 1.01563l5.6914 4.1211m-5.6914-4.1211l.33594-2.42969m12.42578 5.375l6.80078-1.76953m-6.80078 1.76953l-1.66016-1.8086m15.01954 1.96876l6.71093-2.08594m-6.71093 2.08594l-1.7422-1.73047m14.9375.15625l6.94923 1.0586m-6.94922-1.0586l-.8086-2.3164m14.16797 3.61327l6.85938-1.53515m-6.85938 1.53515l-1.59765-1.85937m14.90234 1.79687l6.88281-1.41015m-6.8828 1.41015l-1.56642-1.89062m14.8125 1.36719l7.01954-.36329m-5.9961.3086l-.63281-1.05078m19.66406-.46094l-6.46094 2.76953m5.51954-2.36719l.95703.76953m10.07031-3.30078v7.02735m0-7.02735l2.16406-1.15234"/><g clip-path="url(#R)"><path fill="none" stroke="#000" stroke-linecap="round" stroke-linejoin="round" stroke-miterlimit="10" stroke-width=".5" d="M147.4961 333.52344l-6.9922.67969"/></g><path fill="none" stroke="#000" stroke-linecap="round" stroke-linejoin="round" stroke-miterlimit="10" stroke-width=".5" d="M159.23828 330.92188l-3.84766 5.8828m3.28907-5.02734l1.22265.11329m12.56641-1.02344l-3.67578 5.99219m3.67578-5.9922l2.44922.15235m9.77344-.58984l-1.4922 6.86719m1.4922-6.8672l2.36328-.66406m-2.58203 1.66407l1.18359-.33203m8.16016 3.46484l6.88672-1.39844m-5.88282 1.19531l-.78125-.94921m16.4414 3.96484l.19142-7.02344m13.87109 6.96485l-1.30469-6.90625m1.30469 6.90625l-1.91406 1.53515m1.72265-2.53906l-.95703.76563m15.86328-6.06641l-4.10547 5.70312m3.50782-4.875l1.21484.16407m14.10156 1.22265L247.06641 334.5m5.90234-1.08984l.76563.96093m13.51562.32813l-6.82813-1.67188m5.83204 1.4297l.30468 1.1875m12.79297.95702l-4.39843-5.48047m4.39843 5.48047l-.96875 2.25781m14.21485-2.20312l-4.26563-5.58594m3.64453 4.77344l-.51172 1.11328m11.23047.2461l2.17188-6.6797m13.16015 6.72657l-1.86328-6.77344m12.50782 6.4414l3.47656-6.10937m-2.96875 5.21875l-1.22656-.03515m15.39062-5.6211l.76563 6.98438m14.03515-6.82813l-2.20703 6.67188m2.20703-6.67188l2.42188-.41015M357.8242 331.5l1.21095-.20703m14.45312.98047l-6.26562 3.17969m6.26562-3.1797l2.00781 1.41016m-2.91796-.9453l1.0039.70312m11.96485-2.55079l-3.75 5.94532m3.75-5.94531l2.4453.17968m8.25-.64062l1.48829 6.86719m-1.48828-6.8672l1.875-1.58593m-1.65625 2.58594l.9336-.79297m9.58984 2.0664l6.6328 2.32032m-6.6328-2.32031l-.3711-2.42579m13.50781 3.95704l6.98829-.7422m-5.96875.63282l-.6875-1.01563m16.89453 4.2422l-.83203-6.97657m.83203 6.97656l-2.01563 1.39844m18.07813-3.35938l-6.32813-3.05468m5.40625 2.60937l.05078 1.22656m13.86719-4.36718l-5.6914 4.11719"/><g clip-path="url(#S)"><path fill="none" stroke="#000" stroke-linecap="round" stroke-linejoin="round" stroke-miterlimit="10" stroke-width=".5" d="M466.40625 331.80469l2.20313 1.07812"/></g><g clip-path="url(#T)"><path fill="none" stroke="#000" stroke-linecap="round" stroke-linejoin="round" stroke-miterlimit="10" stroke-width=".5" d="M141.23047 322.70703l5.53906-4.32031"/></g><path fill="none" stroke="#000" stroke-linecap="round" stroke-linejoin="round" stroke-miterlimit="10" stroke-width=".5" d="M159.38672 317.71094l-4.14063 5.67578m3.53516-4.85156l1.21484.17187m13.3125-.4336l-5.35547 4.54688m5.35547-4.54687l2.28125.90625m10.26953-1.57813l-3.82812 5.89063m3.82813-5.89063l2.4453.21485m-3 .64453l2.44141.21484m12.64453.27735l-6.26171 3.1914m6.26172-3.1914l2.01171 1.40625m-2.92187-.94141l1.0039.70312m13.22657-1.16015l-6.26953 3.17187m6.26953-3.17187l2.0039 1.41406m-2.91797-.95313l1.00391.70704m13.17969 2.08593l-6.1836-3.33593m6.1836 3.33593l-.01172 2.45704m12.70313-1.6211l-4.9297-5.00781m4.9297 5.00781l-.73829 2.34375m14.97266-3.90234l-6.76953-1.89063m6.76953 1.89063l.52734 2.39844m10.76953-.10547l-2.73437-6.47266m2.33594 5.53125l-.77344.94922m15.21484-.42578l-4.1914-5.63672m4.1914 5.63672l-1.05078 2.21875m11.58985-1.58985l1.35937-6.89453m-1.16016 5.89063l-1.17578.35547m12.1797-.66797l5.58593-4.26172m8.26953-.5664l4.50781 5.39062m-4.50781-5.39063l.92187-2.27344m13.63672 1.60547l2.01953 6.73047m-2.01953-6.73047l1.7422-1.72656m9.18358 5.97656l6.79688-1.77343m13.08594-.625l-6.33985 3.02734m5.41797-2.58984l.98828.73046m12.89453-1.7539l-5.6328 4.19922m5.6328-4.19922l2.21875 1.04687m-3.03906-.4375l1.10938.52344m11.4336-2.32812l-2.44532 6.58984m2.44531-6.58984l2.42969-.32813m-2.78516 1.28516l1.21485-.16016m12.8164-.64062l-3.16797 6.27343m3.16797-6.27343l2.45313-.05079m-2.91407.96485l2.45313-.05078m11.77344-.58985l-4.0664 5.73047m3.47265-4.89844l1.21875.15625m11.48047 5.29297l-1.65235-6.83203m1.65235 6.83203l-1.83204 1.62891m16.1172-2.02734l-3.58985-6.03907m3.58984 6.03907l-1.27344 2.09765m.75-2.97656l-.63671 1.05078m16.18359-2.91015l-7.0039-.5625m7.0039.5625l.97266 2.2539m-1.9922-2.33594l.48829 1.125m12.8711-3.76171l-5.0547 4.8789"/><g clip-path="url(#U)"><path fill="none" stroke="#000" stroke-linecap="round" stroke-linejoin="round" stroke-miterlimit="10" stroke-width=".5" d="M466.08984 318.10938l2.33204.7578"/></g><path fill="none" stroke="#000" stroke-linecap="round" stroke-linejoin="round" stroke-miterlimit="10" stroke-width=".5" d="M465.35547 318.8164l2.33203.76173"/><path fill="#00f" fill-rule="evenodd" d="M210.70313 476.52344h8.62109V466.3789h-8.6211v10.14453"/><path fill="azure" fill-rule="evenodd" d="M212.53906 468.21094h.83203v2.82422h3.28516v-2.82422h.83203v6.48047h-.83203v-2.91407h-3.28516v2.91407h-.83203v-6.48047"/><path fill="#ff3030" fill-rule="evenodd" d="M362.30469 463.21094h7.6914V453.0625h-7.6914v10.14844"/><path fill="azure" fill-rule="evenodd" d="M364.13672 454.89844h.83203v5.73828h3.19531v.74219h-4.02734v-6.48047"/><path fill="#00f" fill-rule="evenodd" d="M388.23828 463.21094h8.61719V453.0625h-8.61719v10.14844"/><path fill="azure" fill-rule="evenodd" d="M390.07031 454.89844h.83594v2.82031h3.28516v-2.82031h.83203v6.48047h-.83203v-2.91797h-3.28516v2.91797h-.83594v-6.48047"/><path fill="#00f" fill-rule="evenodd" d="M383.80078 436.57813h8.61719v-10.14454h-8.61719v10.14454"/><path fill="azure" fill-rule="evenodd" d="M385.63281 428.26563h.83203v2.82421h3.28907v-2.82421h.83203v6.48046h-.83203v-2.91406h-3.28907v2.91406h-.83203v-6.48046"/><path fill="#00f" fill-rule="evenodd" d="M219.58203 414.38672h8.61719v-10.14453h-8.61719v10.14453"/><path fill="azure" fill-rule="evenodd" d="M221.41406 406.07422h.83203v2.82422h3.28907v-2.82422h.83203v6.48047h-.83203v-2.91406h-3.28907v2.91406h-.83203v-6.48047"/><path fill="#ff3030" fill-rule="evenodd" d="M193.64453 325.6211h7.69531v-10.14454h-7.6953v10.14453"/><path fill="azure" fill-rule="evenodd" d="M195.47656 317.3086h.83594v5.73827h3.1914v.7422h-4.02734v-6.48048"/><path fill="#ff3030" fill-rule="evenodd" d="M415.5625 325.6211h7.69531v-10.14454h-7.69531v10.14453"/><path fill="azure" fill-rule="evenodd" d="M417.39453 317.3086h.83594v5.73827h3.1914v.7422h-4.02734v-6.48048"/><path fill="#ffffe0" fill-rule="evenodd" d="M275.16797 362.39453h22.17969v-10.1914h-22.1797v10.1914"/><path fill-rule="evenodd" d="M278.66797 354.03516h.50781v6.29687h-.78515v-4.49219H277v-.55468l.5625-.06641.25-.05078.23047-.08985.20312-.14062.17579-.21094.14062-.29687.10547-.39453m4.8125 0l.23047.01953.21875.05469.20703.08984.19922.1211.1836.14843.17187.17578.30078.42188.24219.49218.17968.54688.11328.57812.03907.59375-.03907.58985-.11328.58594-.17969.55468-.24218.5-.30078.42969-.17188.17969-.1836.15234-.19921.125-.20703.08985-.21875.05859-.23047.01953-.22656-.01953-.21875-.0586-.21094-.08984-.19531-.125-.1836-.15234-.17187-.17969-.30078-.42969-.2461-.5-.17969-.55469-.10937-.58593-.03906-.58985h.83203l.03125.5625.08203.50391.125.44531.16406.3711.1875.30078.21094.22265.22266.13672.22656.04688.22656-.04688.22266-.13672.21094-.22265.1914-.30078.16406-.3711.125-.44531.08204-.5039.02734-.5625-.02735-.5625-.08203-.5-.125-.4375-.16406-.36329-.1914-.29297-.21094-.21484-.22266-.13281-.22656-.04297-.22656.04297-.22266.13281-.21094.21484-.1875.29297-.16406.36328-.125.4375-.08203.5-.03125.5625h-.83203l.03906-.59375.10938-.57812.17968-.54688.2461-.49218.30078-.42188.17187-.17578.1836-.14844.1953-.1211.21095-.08983.21875-.0547.22656-.01952m5.09375 0h.50781v6.29687h-.78515v-4.49219h-1.39063v-.55468l.5586-.06641.2539-.05078.23047-.08985.20312-.14062.17188-.21094.14453-.29687.10547-.39453m2.82422 2.17578h.78515l.01954-.3164.05859-.28517.10156-.2539.13672-.21485.1836-.17187.22265-.1289.26563-.08204.30859-.02734.23828.01953.22266.0625.20312.10156.17969.14063.14844.17187.11328.20703.07031.23438.02734.26562-.02343.26954-.06641.22265-.10938.1914-.15625.17188-.19921.16406-.2461.16407-.63672.39062-.53515.3125-.4375.3164-.34766.32423-.26172.33594-.1914.35156-.125.3711-.07032.39062-.01953.42187h4.21094v-.74219h-3.33203l.08203-.28515.11328-.23438.14844-.20312.1875-.17969.23047-.17188.28125-.17578.71484-.41406.41797-.20703.34375-.23047.28125-.25.21875-.26953.16406-.27734.11328-.28516.0625-.28516.01954-.28125-.04297-.3828-.1172-.34767-.1914-.30859-.25-.26172-.30078-.21094-.34765-.16015-.37891-.09766-.40625-.03515-.4375.03515-.39844.09766-.35156.16406-.30469.23438-.25.30468-.1836.375-.11718.44532-.03906.51953"/><path fill="#ffffe0" fill-rule="evenodd" d="M384.58203 410.17969h22.1836v-10.1914h-22.1836v10.1914"/><path fill-rule="evenodd" d="M388.08203 401.82031h.51172v6.29688h-.78906v-4.48828h-1.38672v-.5586l.5586-.0625.25-.05469.23046-.08984.20313-.14062.17578-.21094.14062-.29297.10547-.39844m4.8125 0l.23047.01953.21875.0586.20703.08594.19922.12109.1836.15234.17187.17578.30078.41797.24219.49219.17969.54688.11328.58203.03906.58984-.03906.59375-.11329.58203-.17968.55469-.24219.5039-.30078.42579-.17188.17968-.18359.15235-.19922.125-.20703.09375-.21875.05469-.23047.01953-.22656-.01954-.21875-.05468-.21094-.09375-.19531-.125-.1836-.15235-.17187-.17968-.30078-.42579-.24219-.5039-.17969-.55469-.11328-.58203-.03906-.59375h.83594l.02734.5625.08203.5039.125.44532.16406.375.19141.30078.21094.21875.22265.13672.22266.04687.22656-.04687.22266-.13672.21094-.21875.1914-.30078.16407-.375.125-.44531.08203-.50391.02734-.5625-.02734-.5625-.08203-.5-.125-.4336-.16407-.36718-.1914-.29297-.21094-.21484-.22266-.12891-.22656-.04688-.22265.04688-.22266.1289-.21094.21485-.1914.29297-.16407.36719-.125.43359-.08203.5-.02734.5625h-.83594l.03906-.58984.11328-.58204.1797-.54687.24218-.49219.30078-.41797.17188-.17578.18359-.15234.19531-.1211.21094-.08593.21875-.0586.22656-.01953m5.09375 0h.50781v6.29688h-.78515v-4.48828h-1.39063v-.5586l.5625-.0625.25-.05469.23047-.08984.20313-.14062.17578-.21094.14062-.29297.10547-.39844m2.82422 2.17578h.78516l.01953-.3164.0586-.28516.10155-.2539.14063-.21485.17969-.17187.22265-.12891.26563-.08203.3086-.02735.23827.02344.22266.0625.20312.10156.1797.13672.14843.17188.11328.20703.07422.23828.02344.26172-.02344.26953-.0625.22266-.11328.19531-.15235.16797-.20312.16406-.2461.16406-.6328.39063-.53907.3125-.4375.3164-.34766.32422-.26171.33594-.19141.35156-.125.3711-.0664.39453-.02344.41797h4.21093v-.74219h-3.33203l.08594-.28125.11328-.23828.14844-.20313.1875-.17968.23047-.17188.27734-.17578.71875-.41406.41406-.20703.34375-.23047.28125-.25.21875-.26953.16406-.27735.11329-.28515.0625-.28125.01953-.28125-.03906-.38672-.1211-.34766-.1914-.30469-.25-.26562-.30079-.21094-.34765-.16015-.3789-.09766-.40626-.03516-.4336.03516-.39843.09765-.35547.16797-.30469.23438-.25.30078-.18359.375-.11719.44922-.03906.51562"/></g></defs><use xlink:href="#V"/></svg>