<svg xmlns="http://www.w3.org/2000/svg" role="img" xmlns:xlink="http://www.w3.org/1999/xlink" viewBox="142.45 309.95 326.84 171.84"><defs><clipPath id="a"><path d="M144 420h1v60.32813h-1zm0 0"/></clipPath><clipPath id="b"><path d="M144 311.67188h1V408h-1zm0 0"/></clipPath><clipPath id="c"><path d="M144 311.67188h324v168.65625H144zm0 0"/></clipPath><clipPath id="d"><path d="M467 311.67188h1v168.65625h-1zm0 0"/></clipPath><clipPath id="e"><path d="M144 477h4v3.32813h-4zm0 0"/></clipPath><clipPath id="f"><path d="M154 478h7v2.32813h-7zm0 0"/></clipPath><clipPath id="g"><path d="M167 477h7v3.32813h-7zm0 0"/></clipPath><clipPath id="h"><path d="M181 477h6v3.32813h-6zm0 0"/></clipPath><clipPath id="i"><path d="M195 477h5v3.32813h-5zm0 0"/></clipPath><clipPath id="j"><path d="M208 476h5v4.32813h-5zm0 0"/></clipPath><clipPath id="k"><path d="M221 477h6v3.32813h-6zm0 0"/></clipPath><clipPath id="l"><path d="M234 477h6v3.32813h-6zm0 0"/></clipPath><clipPath id="m"><path d="M248 477h6v3.32813h-6zm0 0"/></clipPath><clipPath id="n"><path d="M260 478h8v2.32813h-8zm0 0"/></clipPath><clipPath id="o"><path d="M273 478h8v2.32813h-8zm0 0"/></clipPath><clipPath id="p"><path d="M287 477h7v3.32813h-7zm0 0"/></clipPath><clipPath id="q"><path d="M301 477h6v3.32813h-6zm0 0"/></clipPath><clipPath id="r"><path d="M315 476h4v4.32813h-4zm0 0"/></clipPath><clipPath id="s"><path d="M327 478h7v2.32813h-7zm0 0"/></clipPath><clipPath id="t"><path d="M341 477h6v3.32813h-6zm0 0"/></clipPath><clipPath id="u"><path d="M354 477h6v3.32813h-6zm0 0"/></clipPath><clipPath id="v"><path d="M368 476h4v4.32813h-4zm0 0"/></clipPath><clipPath id="w"><path d="M380 478h7v2.32813h-7zm0 0"/></clipPath><clipPath id="x"><path d="M393 478h8v2.32813h-8zm0 0"/></clipPath><clipPath id="y"><path d="M393 480h3v.32813h-3zm0 0"/></clipPath><clipPath id="z"><path d="M406 478h8v2.32813h-8zm0 0"/></clipPath><clipPath id="A"><path d="M406 480h3v.32813h-3zm0 0"/></clipPath><clipPath id="B"><path d="M420 478h8v2.32813h-8zm0 0"/></clipPath><clipPath id="C"><path d="M418 480h3v.32813h-3zm0 0"/></clipPath><clipPath id="D"><path d="M433 477h7v3.32813h-7zm0 0"/></clipPath><clipPath id="E"><path d="M447 477h7v3.32813h-7zm0 0"/></clipPath><clipPath id="F"><path d="M460 478h7v2.32813h-7zm0 0"/></clipPath><clipPath id="G"><path d="M460 480h2v.32813h-2zm0 0"/></clipPath><clipPath id="H"><path d="M144 464h3v6h-3zm0 0"/></clipPath><clipPath id="I"><path d="M144 450h3v7h-3zm0 0"/></clipPath><clipPath id="J"><path d="M144 436h2v8h-2zm0 0"/></clipPath><clipPath id="K"><path d="M144 424h3v7h-3zm0 0"/></clipPath><clipPath id="L"><path d="M144 412h4v3h-4zm0 0"/></clipPath><clipPath id="M"><path d="M144 396h1v9h-1zm0 0"/></clipPath><clipPath id="N"><path d="M144 383h2v8h-2zm0 0"/></clipPath><clipPath id="O"><path d="M144 370h3v7h-3zm0 0"/></clipPath><clipPath id="P"><path d="M144 357h2v7h-2zm0 0"/></clipPath><clipPath id="Q"><path d="M144 344h4v6h-4zm0 0"/></clipPath><clipPath id="R"><path d="M144 333h4v2h-4zm0 0"/></clipPath><clipPath id="S"><path d="M466 331h2v2h-2zm0 0"/></clipPath><clipPath id="T"><path d="M144 317h3v7h-3zm0 0"/></clipPath><clipPath id="U"><path d="M465 317h3v3h-3zm0 0"/></clipPath><g id="V" clip-path="url(#clip1)"><path fill="#fff" fill-opacity="0" fill-rule="evenodd" d="M0 0h1000v1000H0zm0 0"/><path fill="#d3d3d3" fill-opacity="0" fill-rule="evenodd" d="M162.15234 355.86719l-.23437.29297.0586.23437.11718.17188.17578.23437.29297.34766.11328.0586.11719-.17188.0586-.23438.17577-.17578.46485-.17578h.69922l.23437.29297.28906.8164.0586.17579.17578.23046.35156.23438.69922.69922.17188.17578.23437.34765.23438.41016.28906.58203.41015.46485.23047.23437.23438.17578.11719.23047.17578.29297.17187 1.16406v.23438l.0586.28906.05859.11719.11719.11719.34765.41015.11719.17188.17578.17578.17578.23437.11719.17188.17188.35156.05859.23438.23437.40625.23438-.0586-.17578.17578-.0586.92969h-.58203l-.23437-.11328-.34766.11328-.11719.11719-.05859.29297-.0586.17578-.11718.17187-.46484.29297-.0586.23438-.0586.11328v.64453l.0586.17187v.41016l.0586.0586v.40624l.05859.40625.11719.17579.05859.05859.23047.64062-.0586.29297v.69922l-.05859.58203v.23438l-.0586.23047-.05468.35156v1.92187l.05469.1172h.42578l-.36719.11718-.02344.35156.89063 1.16797 1.74219.53906 1.33984.35938v.53906l.08984.8086.53516.71484 1.51953.26953.89063-.08594.08984 1.16406.53516.1797 1.16015-.1797 2.05469-.98437 1.16016-.36328 1.8789-.17578 1.69531-.1797-.17968.71876-1.51563.08594-1.25.08984-.80469.26953-1.07421.8086.26953.71875.53515.89843-.17968.625-.26563.8086.26563 1.07812.625.89844.80468.17969 1.25-.1797-.26562.72267.09766.5039.05468.29297v.17188l.0586.29296v.40625l.17578.1172.35156.11718h.40625l.29297-.17578.11328-.11719.0586-.11719.11718-.23047.0586-.17578.35156-.46484.23047-.17578.17578-.0586.17578.0586.0586.17578.11718.98828.05469.46875.0586.17188.11718.23437.17578.0586.8164.05859h.28907l.11719.23437.05859.40625.0586.35156v1.10547l.11718.29297.11719.34766.28906.69922.17578.35156.58203.7539.35157.17579.17187.0586.46875.23437.64063.46484.34765.23438.29297.17578.29297.05468.23047.0625.8164.34766.29297.17578.11328.17188.35157.35156.11719.17578.52343.64063v.28906l.0586.35156v.34766l.05859.35156.0586.28906.11718.0586.17188.05859h.17578l.58203.23437.17578.1172.17578.28905.17578.23438.11328.23437.29297.23047.11719.11719v.41016l.0586.05468.28906.23438.23437.11719.0586.11718.11718.17188.0586.11719.23047.23437.05859.17578.23437.0586.1172.05859-.1172.11328-.05859.11719v.11719l-.11719.29296-.11719.28907v.58203l.17579.11719.11718.05859.0586.11719.11719.11719.11328.05859.17578.34765.0586.35157.05858.40625v.17578l-.05859.17578-.11719.69922v.17187l.1172.17579.29296.29296h.40625l.17578.1172.11719.17187.11719.29296v.23438h-.52735l-.23047-.23438h-.23437l-.17578.0586-.0586.69922.0586.34765.11719.17579.17578.41015.11718.23047.28907.46875.17578.05469h.52344l.23437.0586.75781.64062.0586.29296v.23438l.05859.0586.23047.34765v.35156l-.11719.17188v.29297l.29297.28906.29297.17578.17187.0586.29297.17577.29297.1172.58203.40624.28906.23438.29297.17578.21875.16015.01563.01172.23047.17579.64062.52343.17578.23438.1172.17578.17577.17578.11328.17188v.64062l.1172.17578.46874.11719.58203.11719.23438.05859.23047.11328.29297.11719.11328.0586.58593.35156.28907.17187.17578.0625.17578.05469.17578.0586.69922.35155.28906.17579.23438.05468.28906.17578.23437.1172.64063.40624.29297.11719.17187.0586.23438.05859.41015.05859.23047.0586.23438.11718.0586.17188-.41017.17578.46875.0586.0586.29296.11328.23438.17578.05468.23438.0586.17578.05859.40625.11719.64062.23437.11719.17188.0586.23437v.17578l-.0586.1172-.0586.40624.23438.23438.11719.05859.34766.11719.64062.23047.17578.11718.28906.1172.17578.17577.23438.46485.58203 1.10546.17578.17579.34766.17578.17578.11719.35156.11718 1.04688.52344.23437.0586.46485.11327.29297.0586.46484.17578.75781.58203.23438.23438.34765.46484.17578.17578.28907.23438.8164.69921.29297.17579.28906.28906.29297.17578.29297.28906.69531.64063.17578.17578.29297.23437.28907.23438.46875.28906.64062.58203.34766.23438.23437.29297.34766.34765.35156.46485.9336.99218.34765.40625.11719.17579.23437.05859.11328.11719.64454.17578.23047.11328.23437.0586.29297.17577.23047.1172.9336.69921.40624.40625.23438.17578.40625.17578.23437.11719.8164.34766.34766.23437.23438.11719.29297.28906.23047.11719.7578.35156.35157.17188.23047.05859.29297.11719.23437.0586.8711.17577h.8164l.46875.23047.17188.0586.875.69921.46484.1172.29297.05858.17578.0586.23047.0586.46875.05859.34766.05859.35156.0586.40625.05859h.29297l.17187.0586v.23046l.17578.17578h.29297l.34766.0586.35156.05859.69922.11719h.64063l.46484-.23438.29297-.17578.17187-.11719.41016-.17187.28906-.17578.9336-.46485.46875-.29297.52343-.29296.46485-.17188.46484-.17578 1.05078-.46485.28906-.11718.41016-.11719.28906-.11719.52735-.17578 1.51562-.69922.58203-.34765.28907-.0586.29297-.0586.34765-.11718.875-.23047.35156-.11719h.11329l.23437-.05859.875-.23437.23438-.0586h.8125l.35156-.0586.8164-.11718.17188-.0586.35156-.05468.29297-.0586.23047-.05859.8164-.17578.17579-.0586h.34765l.23438-.05859.46484-.11718.75781-.17188.23438-.0586h.34765l.41016-.11718.28906-.0586 1.28516-.05859h.28906l.41016-.0586.23047-.05858h.17578l.875-.1172h.40625l.41015-.11718h.34766l.35156-.11328.8711-.0586h1.75l1.04687.28907.41016.11719.28906.11718.35156.11719.28907.11719 1.05078.17187.28906.0586h.29297l.29297.05859.17187.0586.41016.05859.17187.0586.1172.05858h.11718l.11719.0586.35156.0586h.11328l.41016.0664 1.92187.39453 1.92578.39453 1.51953.44922 1.69532.71875 2.14453.80469 1.60547-.71875 1.42968-.80469 1.16016-1.07813 1.25-.44921 3.03516-.71875 1.875-.35938 2.14453-1.34765 2.23437-1.25391 2.5-1.25781 1.69531-.44922 1.78516-.17969 1.16016-.26953.625.53906 1.33984-.26953.71485-.98828.98437-1.34375.44531-.17969.80469-.35937 1.875-.53907 1.78516-.44921 1.25-.26954 1.16015-.08984 1.69922-.08984 1.96094-.26954 1.25-.08984h.53906l.625-.08984h.89063l2.14453-.17969 2.41015-.17969 2.58985-.08984 1.69531.17969 1.60938.08984 1.42968.35938 1.16016.71875 1.875.98828 1.16015 1.52734.26563.71484.6289.08985.35548.89844.53515.53906.53516 1.52734 1.07422.35938h.53515l-.80469.53515.08985 1.70703.71484 2.69532.89063.80468.89453.98829.71484 1.2578 1.78516.53907 1.51953-.17969.35547 1.34375 1.60937-.80469.98047-.53906.26953.26953.31641-.21484.21875-.14453.80078.44922.44922-.35938h.35547l.53515-.26953.53907-.71875.53515-.26953.625-.98828 1.16016.44922.83984.3711 1.39454.61718 1.6953-.17969h1.60548l1.78515.08985.17969-1.70704.53516-1.34375.80468.26954.4922.84765.40233.40625-.08984.53906v.35938l.71485.44922.71093-.26953h1.42969l.35938.98828.4453 1.25781.71485 1.34375 1.25.6289 1.69531.62891.71485-.17969.17969-.53906.98046-.08984.44922.35937.08594 1.25782-.26563.6289-.53515.17969v.53906l.71484.98438.26563.53906.98437.98828.80078 1.07813-.26562.35937-.08985.89844-.625 2.33203-.35546 2.0664-.08985 1.79298-.17969.71875-.08984.53906v1.4375l-.98047 1.88281-.35937 1.70703-.53516.89844-.80469 1.16797-.26562.53906 2.05469 1.2539.08593.35938-.35546.53906-.08985-.17968v.80859l.08985 1.4375-.44532.71484-1.07422.09375-.26562.71485.53515.89844.8047.71875 1.16015.80859 1.33984.26953.44531.35938-.35546.44921-1.78907-.08984-1.25-.44922-.71484-.71875-.625-.08984-.17578 3.58984-.1875 1.3086h89.35937V311.70313h-55.26953v49.08203l.76172.125 3.28906.54296 2.02344 2.83594v2.7539l2.35156.33204 2.34766.33203h4.05078l-1.3789 4.16016-2.02344.70703-2.02344.70312-.54297.34375-2.59375 1.6172-.1875.11718-2.02344-2.07813-.73046-2.74218-2.67188-2.07813-1.375-3.5-.0664-.08203-1.95704-2.67188 2.75-1.41796v-49.08204H294.42187v91.41407l.1172.03125.1328.01172.07422.07421.10547.04688.08985.0586.08593.05859.08985.0586.29687.29687.0586.08984.03125.11719.02734.11719.01563.13671-.03125.1172-.0586.08983-.0586.08594-.04296.10547-.04688.10156-.02734.1211v.14453l.17578.26953.14844.14844.07422.08594.07422.07421.04296.10547.0625.08985.0586.08593.04297.10547.0586.08985.04687.10156.04296.10547.0586.08594.11719.17968.07421.07422.0625.08594.0586.08984.04297.10547.0586.08985.05858.08593.0625.08985.0586.08984.04297.10156.11719.17969.07421.07422.0586.08594.07422.07421.08984.0586.10547.04687h.14844l.1328-.01562.13282.01562.10156-.04687.07422-.07422.04688-.10156-.01563-.13281v-.14844l-.04687-.10547-.02735-.11719-.04687-.10156-.02735-.1211-.04296-.10156-.0625-.08984-.04297-.10156-.04297-.10547-.03125-.11719-.01563-.13281-.01171-.13672.08593-.0586.0586-.08593.12109-.03125.04297.10547.01562.1328v.1172l.0586.10156.0586.08984.08983.0586.14844.14843.0586.08985.04296.10547-.01171.10156.08593.0586.10547.04687.08594.0586.08984.05858.07422.07422-.11719.02735-.10546.04687-.08594.0586-.07422.07421-.0586.08985-.0625.08594-.02734.12109-.04687.10156-.04297.10547-.03125.11719-.01172.13281-.01563.13281v.14844l.02735.11719.04687.10547.04297.10156.0586.08984.07421.07422.08985.0586.07422.07421.08984.0586.0586.08984.04296.10547.04688.10156.11719.03125.1328.01563h.14845l.11718-.03125.10547.04297.04297.10547.04688.10156.02734.1211L299.5 410l.02734.11719.03125.1211.02735.11718.10547.04297.10156.04687.13281-.01562.14844.14844.0625.08593.07422.07422.07031.07422.08984.0625.10547.04297.10156.04297.1172.03125.13671.01562.11719-.03125.07422-.07422.02734-.11718-.01172-.13282-.03125-.12109-.02734-.11719.04297-.10547h.11719l.08984.0625.11719.02735h.14843l.13282.01562h.14843l.13282.01563.1328-.01563h.14845l.1328-.01562.13282-.01172.13672.01172.11719-.02735.13281-.01562.1914-.0586-.05859.17579-.01562.1328-.02735.1211-.01562.13281-.0586.08594-.1328.01563-.10548.04687-.10546.04297-.1172.03125-.11718.02735-.26563.03125h-.14843l-.13281.01562-.07422.07422.05859.08594.14844.14843.11719.1797.07421.0703.08985.0625.08984.0586.08594.0586.08984.05858.10156.04297.10547.0625.10547.04297.08594.0586.10547.04687.10156.04297.17969.11719.0586.08984-.04298.10156-.04687.10547.01562.13281.22266.22266.0586.08985.04296.10156.03125.1211.04297.10155.01563.13282.03125.11718.01171.13672.03125.11719.14844.14844.10156.04297.10547.04296.1172.03125.1328.01563.13672.01563h.11719l.11719-.03125.08984-.0586.04297-.10547.04688-.10156.04296-.10547.03125-.11719.01172-.1328v-.14845l-.01172-.1328-.01562-.13282-.03125-.11719-.04297-.10547-.04688-.10547-.04296-.10156-.04297-.10547-.01563-.13281.01563-.13281.02734-.11719.03125-.11719.02735-.1211.04687-.10155.08984-.0586.08594-.0625.07422-.07422.08984-.05859.22266-.22266.0586-.08593.07421-.07422.11719-.17969.0586-.08594v-.14844l-.07423-.07421-.10156-.04688-.10547-.04297-.10156-.04297-.0586-.08984-.04687-.10547-.02734-.11719.08984-.05859.11719-.03125.10156-.04297.17969-.11719.14844-.14843.01172-.13282-.01172-.10546-.08985-.0586-.1328.01563h-.14845l-.1328.01562-.13282-.01562-.1211-.03125-.08593-.0586-.07422-.07422-.0586-.08984-.0625-.08594-.11718-.17969-.0586-.08593.03125-.1211.08594-.05859.1211-.03125.05859-.08594v-.1211l-.03125-.11718-.0586-.08984-.05859-.08594-.04687-.10547-.02735-.11719-.01562-.1328.0586-.08985.07421-.07422.08984-.0586.1172-.17968.07421-.07422.0586-.08594.14843-.14844.1211-.03125.1328-.01562.13282.01562.07422.07422.04297.10547.01562.13281-.03125.1172-.11719.03124-.1328.01172-.14844.14844-.04297.10547-.04688.10156-.02734.1211-.03125.11718v.14844l.03125.11719.04297.10546.05859.08985.07422.07031.07422.07422.11719.03125.12109.02734.11719-.02734.1328-.01563h.1172l.08984.0586.07422.07422.04687.10546.0586.08594.10156.04688.13281.01562.10547.04297.08594.0586-.01172.10546-.07422.07422-.17969.11719-.05859.08984-.08984.0586-.07032.07422-.07421.07421-.0625.08985-.02735.11719-.01562.1328.01562.13282-.01562.13281v.14844l.01562.13281.02735.1172.03125.12108.07421.07422.08985.0586.08594.0586.08984.05858.11719.03125v.08594l-.10157.04688-.08984.0586-.26563.03124-.11718.02735h-.14844l-.10547.04296-.10156.04688-.0586.08984-.0625.23438-.01171.13281-.03125.1211-.01563.1328v.29298l-.01172.1328.01172.13673.01563.1328.1328.01563.13282.01172.1211.03125.08593.0586.07422.07421.04688.10547.04296.10157.01563.1328v.44532l-.01563.13281v.44532l.03125.26562.02735.11719.01562.13281.03125.11719.08594.21094.03125.26562v.14844l-.03125.11719-.02734.11718-.03125.1211-.02735.11719-.03125.11718-.03125.1211-.01171.1328-.01563.13282.08984.0586.1172-.03125.10155.01562.04688.10547-.03125.26562v.44141l-.04297.10547-.04688.10547-.04296.10156-.04297.10547-.0586.08594-.03125.12109-.04296.11719-.03125.11719-.01563.1328.01563.13282.05859.08984.10547.04688.08594.0586.05859.08593-.01172.13672-.03125.11719-.04297.10156v.44531l-.01562.13281v.14844l-.03125.11719-.04297.10547-.02735.11719-.04687.10546-.04297.10157-.03125.12109-.02734.11719-.03125.13281-.03125.11719-.02735.11719-.04297.10546-.03125.1172-.03125.12108-.01171.13282-.01563.13281v.29688l.02734.11718v.14844l.04688.39844.02734.11719.0586.08984.12109.03125h.14844l.13281-.01563.0586.08985v.11719l-.0586.08984-.08984.0586-.10157.04296-.10546.04688-.08985.05859-.08594.0586-.13671.01562-.1172-.03125-.1328-.01563-.10157.04688-.0625.08594-.01172.13671-.01562.13282-.03125.11719-.02735.11718-.01562.13281-.03125.1211v.29687l.01563.13282.03125.11718v.14844l.01171.13281v.14844l-.02734.11719-.04688.10156-.02734.1211-.03125.11718-.0586.08985-.07421.07421-.10156.04297-.10547.04688-.11719.02734-.1211.03125-.10156-.04687.0586-.08594.10547-.04688.02734-.11718.03125-.11719.02734-.1211.03125-.11718v-.14844l.01563-.13281-.03125-.11719-.04297-.10547-.10547.01563-.07422.07422-.10156.04296-.08984.0625-.07422.07422-.04297.10157-.01563.1328-.03125.1172L304.25 426l-.03125.11719-.02734.11719-.03125.12109-.02735.11719-.03125.11718-.04297.10547-.08984.0586h-.08984l-.1172-.03125-.03124-.08594.01562-.13672-.03125-.11719v-.14844l-.01171-.1328v-.14844l-.0625-.23438-.02735-.1211-.04297-.10156-.04687-.10546-.0586-.08594-.05859-.08985-.04297-.10546-.0625-.08594-.14844-.14844-.0703-.07422-.10548-.04687-.10547-.04297-.10156-.04297-.29687-.29688-.08985-.07421-.08594-.0586-.10546-.04297-.08985-.0625-.08594-.0586-.10546-.04296-.08985-.0586-.08594-.0625-.07421-.0703-.10547-.04688-.08594-.0586-.10547-.04296-.08984-.0625-.10156-.04297-.10547-.04297-.08594-.0586-.10547-.04687-.10547-.04297-.10156-.04687-.08985-.0586-.10156-.04297-.10547-.04296-.08984-.0625-.11719-.02735-.13281-.01562-.13281.01562H299.75l-.13281.01563-.11719-.03125-.08984-.0586-.07422-.07422-.08985-.05859-.10156-.04688h-.14844l-.12109-.02734-.10156-.04297-.07422-.07422-.11719-.17968-.08984-.0586-.10156-.04297-.08985-.0625-.10547-.04296-.08984-.0586-.08594-.0586-.10547-.04687-.0586-.08594-.05858-.08984-.04297-.10547-.04688-.10156-.07422-.07422-.08594-.0586-.07421-.07421-.08985-.0586-.22265-.22265-.04297-.10547-.03125-.26563.10547-.04296h.14453l.10547.04296.07421.07422.08985.0586.08594.0586.10546.04687.08985.05859.14844.14844.0703.07422.14845.14843.0625.08594.07421.07422.08594.0586.07422.07421.08985.0625.08984.0586.08594.05859.26953.17578.10156.04688.10547.04296.10156.04297.04688-.07421.05859-.08594.07422-.07422.07031-.07422.10547.04297.07422.07422.0586.08984.04296.10156.04688.10547.04296.10547.1211.02735.11719-.02735.07421-.08984.04297-.10547.0586-.08985.07422-.07421.10546-.04297.1172-.02735.1328.01172.08985.0586.14844.14843.05859.08985.04297.10547.04687.10156.04297.10547.04297.10156.10547.04688.10547.04296.13281.01563.08594-.0586.0586-.08984.07421-.07422.10547-.04297.11719.02735.10547.04687.10156.04297.10547.04297.10156.04688.17969.11718v.11719l-.01563.13281.01563.13281.01562.13672.0586.08594.10156.04688.1211.02734.11718.03125h.14844l.11719-.03125.05859-.08984.17969-.1172.05859-.08983.07422-.07422.0586-.08594.11718-.17969.17969-.11719.11719.03125.08984.0586.04297.07422-.01563.1328v.1172l.08985.05859h.14843l.13282-.01563.1328-.01171.26563-.03125.10547-.04297.11719-.03125.1211-.02735.07421-.07421.07031-.07422.0625-.08985-.01562-.10547-.04688-.10156-.10156-.04297-.10547-.01562-.11718.02734-.26563.03125h-.14844l-.07421-.07422-.08985-.0586-.11719-.03124-.11718-.02735-.13282-.01562h-.14843l-.13282.01563h-.29687l-.10547-.04688-.14844-.14844-.04297-.10156-.05859-.08984.22266-.22266.08593-.0586.10547-.04296.11719-.03125.13281-.01563.13281.01563.13672.01562.10157.04297.1328-.01172.08985-.0625.10156-.04297.0625-.08984-.04687-.10156-.08984-.0586-.1172-.03125-.10155-.04296-.0586-.08985-.0625-.08984v-.11719l.01563-.13281.10547-.04688.07421-.07031v-.1211l-.08984-.05859-.03125-.11719.08985-.05859.07421-.07422.04297-.10547.0586-.08984.04687-.10156.01563-.13281v-.14844l-.04688-.10547-.04297-.10156-.08984-.0586-.13281-.01562-.10157-.04297-.13671-.01563-.1172-.03125h-.4453l-.13282-.01562-.13281-.01172-.13281-.01563-.11719-.03125h-.14844l-.13281-.01562-.13281-.01172-.26563-.03125-.1211-.04297-.08593-.0586-.07422-.07421v-.14844l.01172-.13281.10547-.04688.10156-.04296.13281-.01563h.15235l.13281-.01562h.29297l.1211.03125.10156.04296.08984.0586.23438.0625.12109-.04688.08984-.05859.10156-.04297.13282-.01562.10547.04296.10156.04688.13281.01172.1211-.02735h.14453l.12109-.03125.11719-.02734.10547-.04687.07421-.07422.08594-.0586.14844-.14843.0586-.08594.04687-.10547.02734-.11719.01563-.10547-.10156-.04296-.08985-.0586-.11719-.03125-.10546-.04297-.08985-.0625-.07422-.08594-.07422-.07421-.10156-.04297-.10547-.04688-.10156-.04297-.0586-.08984-.04687-.10156-.08594-.21094-.0625-.08594-.05859-.08984-.07422-.07422-.08594-.0586h-.26953l-.11719.03126-.08984.05859-.10156.04297-.13281.01562-.10547-.01562-.02735-.11719-.0625-.08984-.11718-.03125-.10157-.04297-.14843-.14844-.03125-.11719-.01563-.10546.07422-.07422.17969-.1172.11719-.02733.11718-.03125.13672.01562.10156.04297.10547.04297.10156.04687.10547.04297.1172.03125.1328.01563.1172.02734.1328.01563.10547-.01563.08985-.0586-.07422-.07421-.10547-.04297-.07422-.07422-.07422-.08984-.14844-.14844-.08593-.0586-.08985-.05859-.07422-.07422-.08984-.0586-.10156-.04687-.1211-.02734-.10156-.04688-.10547-.04296-.11719-.03125-.10156-.04297-.1211-.03125h-.14843l-.11719.03125-.10546.04297-.08594.0625-.17969.11718-.08594.0586-.08984.0586-.10547.04687-.08594.05859-.10547.04297-.10156.04297-.10547.04687-.07422.07422-.05859.08985-.0586.08593-.04687.10547-.0586.08594-.07421.07422-.13281-.01172-.1172-.03125h-.11718l-.07422.07422-.08984.0586-.07422.07421-.08984.0586-.08594.05859-.10547.04687-.10156.04297-.13672.01563-.10156-.04297-.14844-.14844-.10547-.04688h-.08594l-.10547.04688-.10156.04297-.1211.03125-.11718-.03125-.07422-.07422v-.11719l.03125-.1211.07422-.0703.0586-.08985.07421-.07422.11719-.03125.10547-.04296h.29297l.13281-.01563.13672-.01563.10156-.04296.08985-.0586.10156-.04687.08984-.0586.13281-.01171.08985.05859.13281.01172.08984-.0586.08594-.05859.10547-.04297.08984-.0586.08594-.0625.08985-.05859.14843-.14843.0586-.08594.05859-.08985.10547-.04296.13281-.01563.11719.02735.1211.03125.05859-.0586.05859-.08984.03125-.26563.02734-.11719.10547.01172.13281.01563.10157-.04297.08984-.0586.0586-.08984.07421-.07422.0586-.08984.04687-.10156.01172-.13281-.01172-.13282-.04687-.10547-.14844-.14843-.0586-.08985-.05859-.08594-.04297-.10546v-.44532l.01563-.1328v-.14845l.01172-.1328-.0586-.0586-.08984.0586-.10156-.04298-.17969-.11719-.08594-.05859-.0625-.08984-.0586-.08985-.07421-.07421-.08594-.0586-.1211.03125-.10155.01172-.10547.04688-.08594.05859-.10547.04297-.14844.14844-.08984.05859-.08594.0586-.08984.0625-.10547.04296-.13281.01563v-.1211l.10547-.04297.11718-.03125.07422-.0703.04297-.10548v-.14844l-.02734-.11718-.14844-.14844-.13281-.01563h-.14844l-.11719.03125-.10547.04297-.10156.04297-.08984.0625-.11719.02735-.07422-.07422.01172-.13281-.04297-.10157-.04297-.10547-.08984-.05859-.11719.02734-.1211.03125-.11718.03125-.10156.04297-.1211.03125-.10156.04297-.10547.04297-.08984.0586-.10156.01562v-.11719l.01562-.13281-.0586-.08985-.07421.04297-.14844.14844-.0586.08985-.07421.07421-.04688.10547-.04296.10156-.07422.07422-.0586.08985-.07422.07422-.05859.08593-.07422.07422-.08984.0625-.07422.07031-.07422.07422-.10156.01563-.13281.01562-.10547-.04296v-.1211l.14843-.14844.04297-.10156.0586-.08984.04687-.10156.04297-.10547.0586-.08985.03124-.11719.04297-.10156.03125-.1211.02735-.11718.04687-.10547.04297-.10156.04297-.10547.07422-.07031.08984-.0625.08985-.0586.10156-.04296h.29687l.26563-.03125.10547-.04297-.07422-.07422-.11719-.03125-.10547-.04297-.08984-.0586-.10156-.04687-.08985-.0586-.10156-.04296-.10547-.04297-.08984-.0625-.08594-.0586-.10547-.04296-.10156-.04297-.1211-.03125-.11718-.03125-.10157-.04297L297.5 410.25l-.10156-.04297-.08985-.0586-.04296-.10546-.01563-.13281.10156-.04297.13281-.01563.13672.01563.13282-.01563.10156-.04297.0586-.08984.01562-.10547-.08985-.0586-.07421-.07421-.10157-.04297-.08984-.0586-.14844-.14843-.04297-.10547-.01562-.13281v-.29297l-.0586-.08985-.08984-.05859-.07422-.07422-.04297-.10547-.03125-.11718-.0586-.08985-.07421-.07422-.11719-.02734-.07422-.07422-.08984-.0586-.08984-.0625-.08594-.05859-.07422-.07421-.0586-.08594-.04687-.10547-.08594-.0586-.14843-.14843-.19532-.0586-.1328.01563-.10157.04297-.07422.07422-.04688.10156-.04296.10547-.0586.08984-.0586.08594-.29687.29687-.08984.0586h-.08594l-.0625-.08594-.04297-.10547.03125-.11719.0586-.08984.02734-.11719-.01172-.13281-.08984-.0625-.10547.04688-.11719.02734-.11719.03125-.26953.17578-.10156.04688-.11719.02734-.10546.04687-.08985.0586-.10156.04297-.0586-.08594-.04687-.10547.01563-.13281.04687-.10547.07031-.07422.07422-.07031.0586-.08985v-.14843l-.04297-.10547h-.23829l-.10156.04687-.03125.11719-.02734.11719-.03125.1211-.07422.04296-.13281.01563-.07422-.04688-.04297-.10156-.04297-.10547-.04687-.10156-.04297-.10547-.1211.03125-.10156.04297-.13281.01562-.11719.03125-.10547.04297-.08984.0586-.10156.04687-.1211.02734-.13281.01563-.10156-.04297-.0586-.08985-.04687-.10546-.04297-.10157-.04297-.10546v-.1172l.0586-.08984.08593-.05859.17969-.11719.10156-.04687.10547-.04297.10547-.0586.10156-.04296.08985-.0625.10156-.04297.10547-.0586.10156-.04687.08984-.0586.10547-.04296.10156-.04297.08985-.0625.10156-.04297.13672-.01563.11719.03125.10156.04297.1211.03125.10156.04297.10546.04688.10157.04296.10547.04297.10156.04688.10547.04297.10156.04297.10547.04687.08594.0586.10546.04296.1172.03125.10546.04297.10156.04688.08985.0586.10547.04296.10156.04297.10547.04687.11719.02735.10156.04687.1211.02735h.14843l.08594-.0586.01562-.10156.0586-.08984-.02735-.1172-.07422-.07421-.11719-.17969-.07421-.07422-.08985-.07421-.17969-.1172-.08593-.05859-.10547-.04296-.10156-.04688-.26954-.17578-.05859-.08985-.07422-.07421-.0586-.08985-.04296-.10156-.03125-.11719-.01563-.13672v-.5625l-.01171-.1328-.01563-.13282-.03125-.11719-.01562-.13281-.01172-.13281-.03125-.1211-.22266-.22265-.0586-.08594-.01562-.10547.03125-.11719.13281-.01562v-91.41406H172.9922v1.45312l-.0586.23438-.35156 1.05078-.17187.52343-.1172.34766-.17577.41016-.11719.17187-.23438.29297-.23046.0586h-.35157l-.11718.05859-.23047.40625v.29297l.11719.17578.23046.23047.1172.23437.64062.75781.29297.46485.17578.23437.23047.35156.23437.34766.64063.8164.17578.46485.17187.41016.11719.69531.17578.46875.11719 1.39844.0586.46484v.875l.11718 1.04688v4.78125l-.0586.46484-.35156 1.28125-.17578.52344-.11328.41015-.35156.9297L172.93359 336l-.23437.58203-.11719.17578-.17187.34766-.17578.40625-.35157.8164-.0586.29297-.11327.29297-.11719.28906-.0586.17579-.11718.875-.0586.40625-.05859.11718-.0586.17579-.05859.17187-.23047.52734-.11718.17188v.23437l-.11719.23438-.0586.17187-.17577.58594v.28906l-.0586.17579v.29296l-.0586.11329-.05859.52734v.17187l-.05468.23438v2.6211l-.17578.8164-.1172.17578-.17577.23438-.1172.17187-.11327.23438-.58594.93359-.23047.28906-.29297.46485-.17578.23437-.28906.35156-.35156.69922-.11328.23047-.17579.41016-.17578.23046-.40625.52735-.8164.69922-.29297.17187-.28906.23438-.17579.11719-.17578.17578-.52344.40625-.52734.17578-.17187.17578-.23438.05469-.64062.17578h-.75782m12.21094 31.02344l-1.07422.44921.35938.89454 1.25-.71485.44531-.53906-.98047-.08985"/><path fill="#d3d3d3" fill-opacity="0" fill-rule="evenodd" d="M201.50781 416.59766h-.89453l.44922.6289.98047.35938.80469-.08985.4453-.98828-.17577.08985-.71485-.35547-.89453.35547m154.6211 59.0703l-.0586-.52343v-.29297l.11328-.29297.0586-.23046.46875-.46875h.11328l.11719-.11329.11718-.05859h.17579l.23437-.0586h.34766l.23437.0586.11719.0586.23047.17187.0586.17578.11718.58203v.29297l-.11719.17578-.17187.28906-.17579.17579-.52734.52343-.23047.23438-.11719.0586h-.17578l-.11718-.0586-.40625-.29297-.17579-.11719-.11718-.0586-.0586-.11327-.05468-.1172m6.64062-10.95702l-.0586-.17188v-1.10937l.0586-.17188.17578-.0586.17188-.05858h.17578l.23437-.0586.1172.0586.05858.69921-.05859.17188-.11719.17578-.11718.0586-.23438.52343-.11328.0586h-.23438l-.05859-.1172m9.61328-14.39062l-.11719-.17578v-.69922l.29297-.875.1172-.17187.17577-.35156.11328-.23047.1172-.29297.35155-.75781.1172-.23047.17187-.23438h.17578l.11719-.0586h.64062l.11719.0586.23437.23438.17188.11328.35156.29297.11719.11718.11328.17579v.11328l.11719.05859.11718.11719v.69922l-.05859.17578v.23047l-.0586.17578-.34765 1.05078-.11719.23047-.11719.23437-.11718.0586-.23047.23437-.64063.28906h-.875l-.41015-.11718-.64063-.46485"/><path fill="none" stroke="#bebebe" stroke-linecap="round" stroke-linejoin="round" stroke-miterlimit="10" stroke-width=".5" d="M467.95703 311.69531H144.02734v168.625h323.9297v-168.625"/><g clip-path="url(#a)"><path fill="#fff" fill-opacity="0" fill-rule="evenodd" d="M144 475.89063v4.4375h.0039H144v-60.10547 55.66796"/></g><g clip-path="url(#b)"><path fill="#fff" fill-opacity="0" fill-rule="evenodd" d="M144 404.875v2.82422-96.02735h.0039H144V404.875"/></g><path fill="#50fcfc" fill-rule="evenodd" d="M144 407.69922v12.52344l.0039-.00391v-12.51563l-.0039-.0039"/><g clip-path="url(#c)"><path fill="#fff" fill-opacity="0" fill-rule="evenodd" d="M144.0039 480.32813v-60.10938l2.3047-2.02734.47656-4.4375-.96485-4.4375-1.8164-1.61329v-96.03125h75.44922v50.64844l-2.77735 2.61328-1.66016.47657-3.58593-.47657-.85547-.55468-.55469.55468-1.48047 4.4375-.41406 4.4375-.27344 4.4375-1.71484.42188-4.4375 1.30078-2.71875 2.71484 2.6836 4.44141-2.6875 4.4375 2.72265 2.83984 2.01953-2.83984 2.41797-1.77734 2.53906-2.66016 1.59766-4.4414.30078-1.34766 3.7461 1.34765-1.97657 4.44141.89063 4.4375 1.78125 2.28125L217.71483 396l1.73828 2.1289.98829 2.3086-.98828 4.16016-4.4375-.61329-4.44141-1.3828-3.05078 2.27343-1.36719 4.4414-.01953.07813-.25781-.07812-4.1797-.79297-4.4375-2.84766-3.70702-.80078-.73438-.61719-3.42187.61719-1.01563.11719-4.4375 2.64453-2.10547 1.67969-2.33203 3.04687-4.4414.82422-4.4375-2.5664-4.4375.53906-3.54297 2.59375-.89453.36718-3.8672 4.07032-.47265 4.4375-.09765 1.17578-4.44141 1.27344-1.75781 1.99218.57422 4.4375 1.18359 1.27344.8086 3.16406 2.8125 4.4375.8203.89453 1.52344 3.54297 2.91407 2.98438 4.4375.88281 4.4375-1.53906 2.02734-2.32813 2.41016-1.6289 3.48828-2.8086.95312-.34375 4.4375-.3086 4.4375-1.14062 4.01953-2.64453.41797-.05078 4.4414-.5586 4.3125-3.82812.125-.08984 4.4375-1.5 4.4375-2.33203 1.21485-.51563 3.22656-.32031 4.4375-.6875 4.4375.3711 4.4375-.60938 4.4375-.0039 4.10547 1.25.33594.25 1.2539-.25 3.1836-.28907 3.70313-4.15234.66015-4.4375.07422-.66797 1.8125-3.76953L249 409.3164l-2.91797-2.01172-1.6914-2.42969 1.6914-4.1289.26563-.3086L250.29688 396l-2.875-4.4375-1.33985-1.19531-4.4375-1.78906-4.4375-1.39063-4.4414.53906-1.46485-.60156-.48047-4.4414.08203-4.4375 1.59766-4.4375-3.92578-4.4375-.2461-.16798-4.4375-3.64062-1.41406-.6289-3.02344-2.61329v-50.64844h44.38282v65.7422l-.83594.83202-3.60156 1.90625-2.53516 2.53125 2.53516 2.53907 4.4375-1.76563v20.29688l-1.33985 1.12109 1.33985 1.8789 1.64062-1.8789-1.64062-1.1211v-20.29687l.75-.77344.11719-4.4375-.8672-.83203v-65.74219h93.20704v126.0625l-4.4414 1.84766-.95313.80078-3.48438 2.32031-2.35937 2.1172-2.07813 1.6914-3.10156 2.75 3.10156 2.9375 1.7461 1.5 2.6914 2.10156 4.4375-.52344 2.51172-1.57812 1.92969-1.02344 4.4375-2.74219 1.17969-.67187 3.2578-.78906.91798.78906 3.51953 3.67187 2.92969-3.67187 1.5078-1.01172.92188 1.01172 3.51954 3.41406 3.55078-3.41406-3.55079-3.53906-.98828-.90235-3.45312-3.3164-4.25-1.1211-.1875-.13672-.13672.13672-4.30078 1.80469-4.4375-1.11719-2.1875-.6875-2.25-2.64844v-126.0625H459.125v71.0547l-4.4414.09374-4.28516 4.30469 2.14453 4.4375.64453 4.4375-2.9414 1.42188-4.4375-.28907L444.3164 396l-2.9453-2.90234-.60157-1.53516-1.22656-4.4375-2.61328-2.07422-2.16016 2.07422-2.08594 4.4375-.1914 1.0039L430.5 396l-2.44531 4.28125-.1875.15625.1875.14063 1.14453-.14063 3.29297-.51563 1.65234.51563 2.78516.61328 4.4414 2.46094 3.98047 1.36328.45703.5 1.96875 3.9414 2.46875 2.53126 3.16797-2.53125-.34765-4.44141.05468-4.4375 1.5625-3.07813L456.03125 396l3.09375-1.09375 3.33984-3.34375.96485-4.4375-4.30469-4.39844v-71.05469h8.8711v168.65625H144.0039"/></g><path fill="#50fcfc" fill-rule="evenodd" d="M146.3086 418.1914l-2.3047 2.02735v-12.51563l1.81641 1.61329.96485 4.4375-.47657 4.4375m5.38282 13.3164l-.57422-4.4375 1.75781-1.99219 4.4414-1.27343.09766-1.17578.47266-4.4375 3.86719-4.07032.89453-.36718 3.54297-2.59375 4.4375-.53907 4.4375 2.56641 4.4414-.82422 2.33203-3.04687 2.10547-1.6797 4.4375-2.64452 1.01563-.11719 3.42187-.61719.73438.61719 3.70703.80078 4.4375 2.84766 4.17969.79297.2578.07812.01954-.07812 1.36719-4.44141 3.05078-2.27344v4.17188l-1.30469 2.54297-1.51953 4.4375-1.61328.59765-4.4375-.36328-.75781-.23437-1.95703-4.4375-1.72266-1.32032-4.4414.88672-1.3086.4336-3.1289 1.01953-4.4375 1.3711-1.88282 2.04687-2.55469 2.01953-4.4414-1.57813-2.94141-.4414-1.4961-.98829-3.18359.98829-1.2539.17187-4.4375 1.99219-2.16407 2.27344-.93359 4.4375-.32813 4.4414-1.01171 2.34766-2.04297 2.08984.14453 4.4375 1.89844 2.4414 1.35547 1.9961 3.08203 4.04297.85937.39453 3.57813 1.75 2.71875-1.75 1.71875-.79687 4.39453-3.64063.04297-.01953 4.4414-1.6211 4.4375-.87109 3.32422-1.92578 1.11328-.17578 4.4375-.6211 4.4414-.94921 3.03517-2.6914 1.40234-.97657 4.4375-3.0039.77344-.45704 3.66406-.63672 4.4414-1.05468 4.4375-1.59766 4.4375.3086 4.4375-.20313 4.4375-.58594 4.44141 1.5625 4.4375-.90234 1.1875-1.33203 1.96484-4.4375-.65625-4.4375-2.49609-3.20313-4.4375 1.76563L235 413.7539l-2.23438.82421-2.52734-.82421-1.91016-1.08594-4.4375-2.48047-1.08984-.8711-3.34766-2.2578-4.4375-.07423-4.4414-.21093v-4.17188l4.4414 1.38281 4.4375.61329.98829-4.16016-.98828-2.3086L217.71483 396l-2.69922-2.15625-1.78125-2.28125-.89062-4.4375 1.97656-4.4414-3.7461-1.34766-.30077 1.34765-1.59766 4.44141-2.53906 2.66016-2.41797 1.77734-2.01953 2.83984-2.72266-2.83984 2.6875-4.4375-2.6836-4.4414 2.71876-2.71485 4.4375-1.30078v.89844l-4.4375 2.98046-.14063.13672.14063.22657 4.4375 4.05859 3.21094-4.28516-3.21094-3.11718v-.89844l1.71484-.42188.27344-4.4375.41406-4.4375 1.48047-4.4375.55469-.55468.85547.55468 3.58594.47657 1.66015-.47657 2.77734-2.61328v3.00781l-4.4375 1.28125-3.73437 2.76172-.4336 4.4375 1.26954 4.4375 2.89844 1.50391 4.4375 1.6211v4.95312l-4.125.80078 1.98828 4.4375 2.13672 1.91406 4.4375 1.61328.27343.91016.08985 4.4375 4.07422 2.63281v1.35156l-4.4375.36329-2.29297.08984 2.29297.11328 4.17968 4.32813.25781.1328 4.4375 1.57813 3.60938-1.71093-3.60938-.77344-3.68359-3.66797-.7539-.45313v-1.35156l2.98046 1.80469 1.45703 1.45313 4.44141-.08204 3.6836-1.37109.7539-.0625 3.79297-4.375.64453-.6836L249.6211 396l-3.53906-3.875-3.10937-.5625-1.32813-.73438-4.4375-.46875-4.4414.4375-2.20313.76563-2.23438.52344-1.53125-.52344-2.90625-2.20313-3.42578-2.23437-1.01172-.80078v-4.95313l4.4375-.1953 3.34375-2.9297 1.09375-.71875 2.69532-3.71875-2.69531-2.89453-2.33594-1.54297-2.10156-1.78125-4.4375-2.26171v-3.00782l3.02343 2.61328 1.41406.62891 4.4375 3.64063.2461.16796 3.92578 4.4375-1.59766 4.4375-.08203 4.4375.48047 4.44141 1.46484.60156 4.44141-.53906 4.4375 1.39063 4.4375 1.78906 1.33984 1.19531 2.875 4.4375-3.94921 4.4375-.26563.3086-1.6914 4.1289 1.6914 2.42969L249 409.3164l-1.10547 4.4375-1.8125 3.76953-.07422.66797-.66015 4.4375-3.70313 4.15234-3.1836.28906-1.2539.25-.33594-.25-4.10547-1.25-4.4375.0039-4.4375.60938-4.4375-.37109-4.4375.6875-3.22656.32031-1.21484.51563-4.4375 2.33203-4.4375 1.5-.125.08984-4.3125 3.82813-4.4414.5586-.41798.05077-4.01953 2.64453-4.4375 1.14063-4.4375.3086-.95312.34374-3.48828 2.8086-2.41016 1.6289-2.02734 2.32813-4.4375 1.53906-4.4375-.88281-2.91407-2.98438-1.52343-3.54297-.82032-.89453-2.8125-4.4375-.80859-3.16406-1.1836-1.27344"/><path fill="#00e8fc" fill-rule="evenodd" d="M155.41797 435.94531l-.14453-4.4375 2.04297-2.08984 1.01172-2.34766.32812-4.4414.9336-4.4375 2.16406-2.27344 4.4375-1.99219 1.2539-.17187 3.1836-.98829 1.49609.98829 2.9414.4414 4.44141 1.57813 2.55469-2.01953 1.88281-2.04688 4.4375-1.3711 3.1289-1.01952 1.3086-.4336 4.4414-.88672 1.72267 1.32032 1.95703 4.4375.7578.23437 4.4375.36328 1.61329-.59765 1.51953-4.4375 1.30469-2.54297 4.4414.21094v5.16015l-1.93359 1.60938-2.50781.55468-4.4375 1.59375-4.4375-.6875-4.4375-.98437-4.4414 2.60937-4.4375-.07812-4.4375.69922-1.09376.73047-3.34375 1.22656-.3789-1.22656L175.0664 415l-4.4375-.77344-4.4375 1.28516-3.88672 2.67969-.55078 1.4414-1.03125 2.9961-.22657 4.4414-2 4.4375-.76953 4.4375 3.47266 4.4375.55469.73047 4.4375 2.90625 4.4375-2.53906 1.32422-1.09766 3.11328-1.32812 4.4414-2.47656 1.9375-.63282 2.5-.23437 4.4375-.78906 4.4375-1.01563 4.4414-1.59766.90235-.80078 3.53516-2.45312 2.67578-1.98438 1.76172-.82031 4.4375-.97266 4.4414-2.17968 1.00782-.46875 3.42969-2.8711 4.4375.28516 4.4375-1.25781 4.4375.15625 4.4414.6289 4.4375.57422 1.13672-1.95312-1.13672-2.35938-4.4375 1.45703-4.4414.375-4.4375.0586-4.4375-2.64844-4.4375-1.0664-.37891-.25391-4.0586-1.60938v-5.16015l4.4375.07421 3.34766 2.25782 1.08984.87109 4.4375 2.48047 1.91016 1.08594 2.52734.82421L235 413.75392l2.20703-1.4375 4.4375-1.76563 2.4961 3.20313.65625 4.4375-1.96485 4.4375-1.1875 1.33203-4.4375.90234-4.4414-1.5625-4.4375.58594-4.4375.20312-4.4375-.30859-4.4375 1.59766-4.44141 1.05468-3.66406.63672-.77344.45703-4.4375 3.00391-1.40234.97656-3.03516 2.6914-4.4414.94923-4.4375.6211-1.11329.17577-3.32422 1.92578-4.4375.8711-4.4414 1.6211-.04297.01952-4.39453 3.64063-1.71875.79687-2.71875 1.75-3.57813-1.75-.85937-.39453-3.08203-4.04297-1.35547-1.9961-1.89844-2.4414"/><path fill="#00d4fc" fill-rule="evenodd" d="M161.19922 440.38281l-3.47266-4.4375.76953-4.4375 2-4.4375.22657-4.4414 1.03125-2.9961.55078-1.4414 3.88672-2.6797 4.4375-1.28515v.64844l-4.4375 2.22266-1.58594 1.09375-1.51563 4.4375-.5078 4.4414-.82813 1.79688-1.2422 2.64062-1.59765 4.4375 2.83985 3.34375 1.67578 1.09375 2.76172 2.04688 3.07812-2.04688 1.35938-.36719 4.4375-2.27343 2.92968-1.79688 1.51172-1.09765 4.4375.24218 4.4375-1.01562 4.4375-1.40625 2.75-1.16016 1.6914-.47265 4.4375-3.46094.6797-.5039 3.7578-1.7422 4.4375-1.20703 2.7461-1.49218 1.51953-4.4375-4.26562-2.17188-4.4375 1.42969-4.4375-1.00781-3.36328 1.75-1.07422 1.03515-4.4414.51953-4.4375-.26562-4.4375 1.05469-4.27735 2.09375-.16016.10156-.01562-.10156-1.39063-4.4375-3.03515-2.38672-4.4375-.92969v-.64844l4.4375.77344 4.0625 3.1914.3789 1.22657 3.34375-1.22656 1.09375-.73047 4.4375-.69922 4.4375.07812 4.4414-2.60937 4.4375.98437 4.4375.6875 4.4375-1.59375 2.50782-.55468 1.9336-1.60938 4.05859 1.60938.3789.2539 4.4375 1.0664 4.4375 2.64845 4.4375-.0586 4.44141-.375 4.4375-1.45703 1.13672 2.35938-1.13672 1.95312-4.4375-.57422-4.4414-.6289-4.4375-.15625-4.4375 1.2578-4.4375-.28515-3.4297 2.8711-1.0078.46875-4.44141 2.17968-4.4375.97266-1.76172.82031-2.67578 1.98438-3.53516 2.45312-.90234.80078-4.4414 1.59766-4.4375 1.01563-4.4375.78906-2.5.23437-1.9375.63281-4.44141 2.47657-3.11328 1.32812-1.32422 1.09766-4.4375 2.53906-4.4375-2.90625-.5547-.73047"/><path fill="#00c4fc" fill-rule="evenodd" d="M161.7539 439.28906l-2.83984-3.34375 1.59766-4.4375 1.24219-2.64062.82812-1.79688.50781-4.4414 1.51563-4.4375 1.58594-1.09375 4.4375-2.22266v.65234l-4.125 2.66407-.3125 2.89062-.44141 1.54688-1.19531 4.4414-2.45703 4.4375-.34375.96485-1.64844 3.47265 1.64844 1.9414 3.82422 2.4961.61328.45313.68359-.45313 3.7539-1.00781 4.4375-2.94531.79298-.48438 3.64843-2.65234 4.4375 1.17187 4.4375-1.23828 4.30078-1.71875.13672-.04687 4.4414-1.24219 3.78907-3.14844.64844-1.80469 4.4375-.86328 4.4375-1.4414.61328-.33203.29297-4.4375-.90625-.46094-1.51172.46094-2.92578.94921-2.44531-.94921-1.9922-.51954-1.0039.51954-3.4336 3.3125-4.4414.05859-4.4375-.3711-3.54297 1.4375-.89453.07813-4.4375 3.36719-.48437-3.44531-1.94531-4.4375-2.01172-1.58204-4.4375-1.08203v-.65234l4.4375.92969 3.03515 2.38672 1.39063 4.4375.01562.10156.16016-.10156 4.27734-2.09375 4.4375-1.0547 4.4375.26563 4.4414-.51953 1.07423-1.03515 3.36328-1.75 4.4375 1.0078 4.4375-1.42968 4.26562 2.17188-1.51953 4.4375-2.7461 1.49218-4.4375 1.20704-3.7578 1.74218-.6797.5039-4.4375 3.46095-1.6914.47265-2.75 1.16016-4.4375 1.40625-4.4375 1.01562-4.4375-.24218-1.51172 1.09765-2.92968 1.79688-4.4375 2.27344-1.35938.36718-3.07812 2.04688-2.76172-2.04688-1.67578-1.09375"/><path fill="#00b8fc" fill-rule="evenodd" d="M161.7539 437.88672l-1.64843-1.9414 1.64844-3.47266.34375-.96485 2.45703-4.4375 1.19531-4.4414.4414-1.54688.3125-2.89062 4.125-2.66407v.65235l-3.11327 2.01172-.85547 4.4375.89453 4.4414-1.36328.19922-3.19922 4.23828-1.23828 3.47266-.45703.96484.45703.53906 4.4375 3.08204 4.4375-.83594 3.875-2.78516-1.48438-4.4375-1.25-4.4375 3.29688-.57812v.52344l-.3086.05468.125 4.4375.1836.9336.35156-.9336.80078-4.4375-1.15234-.05469v-.52343l3.48437-3.86328-2.4961-4.4375-.98827-.77344-4.4375-1.23828v-.65235l4.4375 1.08204 2.01172 1.58203 1.9453 4.4375.48438 3.4453 4.4375-3.36718.89453-.07812 3.54297-1.4375v1.47265l-4.4375.41406-4.16797 3.9922-.26953 3.65234-.53906.78515.53906.23438 4.4375 2.10156 4.4375-1.46094 2.1836-.875 2.2539-.73437 4.4414-1.3711 2.8086-2.33203-2.8086-3.77344-4.4414-.35156-4.4375-.28125v-1.47265l4.4375.37109 4.4414-.0586 3.4336-3.3125 1.0039-.51952 1.9922.51953 2.4453.94921v1.82032l-4.2578 1.66797 4.2578.84765 2.4961-.84765-2.4961-1.66797v-1.82031l2.92579-.94922 1.51172-.46094.90625.46094-.29297 4.4375-.61328.33203-4.4375 1.4414-4.4375.86329-.64844 1.80468-3.78906 3.14844-4.4414 1.24219-.13673.04687-4.30078 1.71875-4.4375 1.23828-4.4375-1.17187-3.64844 2.65234-.79296.48438-4.4375 2.94531-3.75391 1.00781-.6836.45313-.61327-.45313-3.82422-2.4961"/><path fill="#00a8fc" fill-rule="evenodd" d="M161.7539 436.48438l-.45702-.53907.45703-.96484 1.23828-3.47266 3.19922-4.23828v1.1836l-2.3047 3.05468-1.14843 4.4375 3.45313 2.47266 4.4375-.33203 2.98047-2.14063-2.45704-4.4375-.52343-1.38281-4.4375-1.67188v-1.18359l1.36328-.19922-.89453-4.4414.85547-4.4375 3.11328-2.01172v.65234l-2.10157 1.35938-1.30468 4.4375 3.40625 4.02734 4.4375-.6836 3.01562-3.34374-3.01562-4.41016-.07813-.02734-4.35937-1.35938v-.65234l4.4375 1.23828.98828.77344 2.4961 4.4375-3.48438 3.86328-3.29688.57812 1.25 4.4375 1.48438 4.4375-3.875 2.78516-4.4375.83594-4.4375-3.08204"/><path fill="#009800" fill-rule="evenodd" d="M166.1914 438.41797l-3.45312-2.47266 1.14844-4.4375 2.30469-3.05469v1.1836l-1.41016 1.8711-.4414 4.4375 1.85156 1.32812 4.4375.16797 2.08203-1.4961-2.08203-3.39062-1.39063-1.04688-3.04687-1.8711v-1.18358l4.4375 1.67187.52343 1.38281 2.45703 4.4375-2.98046 2.14063-4.4375.33203"/><path fill="#00ac00" fill-rule="evenodd" d="M166.1914 437.27344l-1.85156-1.32813.44141-4.4375 1.41016-1.8711v1.1875l-.51563.6836.26172 4.4375.2539.1836 4.4375.66796 1.1875-.85156-1.1875-1.92969-3.3203-2.5078-1.1172-.6836v-1.1875l3.04688 1.8711 1.39063 1.04687 2.08203 3.39062-2.08203 1.4961-4.4375-.16797"/><path fill="#00c800" fill-rule="evenodd" d="M165.9375 435.94531l-.26172-4.4375.51563-.6836 1.11718.6836 3.32032 2.50781 1.1875 1.9297-1.1875.85156-4.4375-.66797-.25391-.1836"/><path fill="#009800" fill-rule="evenodd" d="M170.6289 426.65625l-3.40624-4.02734 1.30468-4.4375 2.10157-1.35938v.65235l-1.09375.70703-1.75 4.4375 2.84375 3.36328 4.4375-.54297 2.54297-2.82031-2.54297-3.72266-2.17188-.71484-2.26562-.70704v-.65234l4.35937 1.35938.07813.02734 3.01562 4.41016-3.01562 3.34375-4.4375.68359"/><path fill="#00ac00" fill-rule="evenodd" d="M170.6289 425.99219l-2.84374-3.36328 1.75-4.4375 1.09375-.70704v.65235l-.08203.05469-2.19922 4.4375 2.28125 2.69921 4.4375-.39843 2.07422-2.30078-2.07422-3.03125-4.26172-1.40625-.17578-.0547v-.65233l2.26562.70703 2.17188.71484 2.54297 3.72266-2.54297 2.8203-4.4375.54298"/><path fill="#00c800" fill-rule="evenodd" d="M170.6289 425.32813l-2.28124-2.69922 2.19922-4.4375.08203-.0547v2.19532l-1.15625 2.29688L170.6289 424l4.4375-.11719 1.1328-1.2539-1.1328-1.65625-4.4375-.64063v-2.19531l.17578.05469 4.26172 1.40625 2.07422 3.03125-2.07422 2.30078-4.4375.39844"/><path fill="#10cc00" fill-rule="evenodd" d="M170.6289 424l-1.15624-1.3711 1.15625-2.29687 4.4375.64063v1.3789l-4.4375.21094-.03125.0664.03125.03907 4.4375.17187.1914-.21093-.1914-.27735v-1.3789l1.1328 1.65625-1.1328 1.2539-4.4375.11719"/><path fill="#24d000" fill-rule="evenodd" d="M170.6289 422.66797l-.03124-.03906.03125-.06641 4.4375-.21094.1914.27735-.1914.21093-4.4375-.17187"/><path fill="#00c4fc" fill-rule="evenodd" d="M175.0664 427.01563l-.30859.05468.125 4.4375.1836.9336.35156-.9336.80078-4.4375-1.15234-.05469"/><path fill="#00a8fc" fill-rule="evenodd" d="M179.50781 431.74219l-.53906-.23438.53906-.78515.26953-3.65235 4.16797-3.99219 4.4375-.41406v.22266l-4.4375.5586-3.78125 3.625.38672 4.4375 3.39453 1.71484 4.4375-1.6875.07031-.02735 4.3672-1.42187 4.4414-1.5 1.82422-1.51563-1.82422-2.45312-4.4414-.90625-4.4375-.82422v-.22266l4.4375.28125 4.4414.35156 2.8086 3.77344-2.8086 2.33203-4.4414 1.3711-2.25391.73437-2.1836.875-4.4375 1.46094-4.4375-2.10156"/><path fill="#009800" fill-rule="evenodd" d="M180.55078 431.50781l-.38672-4.4375 3.78125-3.625 4.4375-.5586v.22267l-4.4375.70703-3.39844 3.2539 1.23438 4.4375 2.16406 1.09375 2.86328-1.09375 1.57422-.23047 4.4375-1.8789 4.4414-1.6289.84376-.69923-.84375-1.13281-4.4414-1.46094-4.4375-1.36719v-.22265l4.4375.82422 4.4414.90625 1.82422 2.45312-1.82422 1.51563-4.4414 1.5-4.3672 1.42187-.0703.02735-4.4375 1.6875-3.39454-1.71485"/><path fill="#00ac00" fill-rule="evenodd" d="M181.78125 431.50781l-1.23438-4.4375 3.39844-3.2539 4.4375-.70704v.22266l-4.4375.85156-3.01172 2.88672 2.07422 4.4375.9375.47266 1.23828-.47266 3.19922-.46484 4.4375-2.33203 4.1914-1.64063-4.1914-1.82812-4.4375-1.91016v-.22265l4.4375 1.36718 4.4414 1.46094.84376 1.13281-.84375.69922-4.4414 1.6289-4.4375 1.87891-1.57423.23047-2.86328 1.09375-2.16406-1.09375"/><path fill="#00c800" fill-rule="evenodd" d="M183.00781 431.50781l-2.07422-4.4375 3.01172-2.88672 4.4375-.85156v.44531l-4.4375 1.14454-2.23828 2.14843 2.23828 3.65625 4.4375-.16015 4.4375-3.23047.67969-.26563-.67969-.29687-4.4375-2.9961v-.4453l4.4375 1.91015 4.1914 1.82812-4.1914 1.64063-4.4375 2.33203-3.19922.46484-1.23828.47266-.9375-.47266"/><path fill="#10cc00" fill-rule="evenodd" d="M183.94531 430.72656l-2.23828-3.65625 2.23828-2.14844 4.4375-1.14453v.44532l-4.4375 1.4375-1.46875 1.41015 1.46875 2.39844 4.4375.625 3.9414-3.02344-3.9414-2.84765v-.44532l4.4375 2.9961.67969.29687-.67969.26563-4.4375 3.23047-4.4375.16015"/><path fill="#24d000" fill-rule="evenodd" d="M183.94531 429.46875l-1.46875-2.39844 1.46875-1.41015 4.4375-1.4375v.4453l-4.4375 1.73048-.69922.67187.69922 1.13672 4.4375 1.41406 3.32422-2.55078-3.32422-2.40234v-.44531l3.9414 2.84765-3.9414 3.02344-4.4375-.625"/><path fill="#3cd800" fill-rule="evenodd" d="M183.94531 428.20703l-.69922-1.13672.69922-.67187 4.4375-1.73047v.44531l-4.34375 1.95703 4.34375 2.07813 2.70703-2.07813-2.70703-1.95703v-.44531l3.32422 2.40234-3.32422 2.55078-4.4375-1.41406"/><path fill="#54dc00" fill-rule="evenodd" d="M188.38281 429.14844l-4.34375-2.07813 4.34375-1.95703v.44531l-3.35547 1.51172 3.35547 1.60547 2.09375-1.60547-2.09375-1.51172v-.4453l2.70703 1.95702-2.70703 2.07813"/><path fill="#e8e05c" fill-rule="evenodd" d="M188.38281 428.67578l-3.35547-1.60547 3.35547-1.51172v.44532l-2.36719 1.0664 2.3672 1.13281 1.47655-1.1328-1.47656-1.06641v-.44532l2.09375 1.51172-2.09375 1.60547"/><path fill="#e8d450" fill-rule="evenodd" d="M188.38281 428.20313l-2.36719-1.13282 2.3672-1.0664v.89062l-.38673.17578.38672.1836.24219-.1836-.24219-.17578v-.89062l1.47656 1.0664-1.47656 1.13281"/><path fill="#e8b830" fill-rule="evenodd" d="M188.38281 427.2539l-.38672-.18359.38672-.17578.24219.17578-.24219.1836"/><path fill="#00e8fc" fill-rule="evenodd" d="M201.69922 382.91016l-.14063-.22657.14063-.13671 4.4375-2.98047v1.5l-2.33984 1.61718 2.33984 2.22657 1.66797-2.22657-1.66797-1.61718v-1.5l3.21094 3.11718-3.21094 4.28516-4.4375-4.0586"/><path fill="#00a8fc" fill-rule="evenodd" d="M206.13672 423.47656l-4.25781-.84765 4.2578-1.66797 2.4961 1.66797-2.4961.84765"/><path fill="#00d4fc" fill-rule="evenodd" d="M206.13672 384.91016l-2.33984-2.22657 2.33984-1.61718v1.5l-.17188.11718.17188.16407.1211-.16407-.1211-.11718v-1.5l1.66797 1.61718-1.66797 2.22657"/><path fill="#00c4fc" fill-rule="evenodd" d="M206.13672 382.84766l-.17188-.16407.17188-.11718.1211.11718-.1211.16407"/><path fill="#00e8fc" fill-rule="evenodd" d="M212.11719 378.2461l-1.26953-4.4375.43359-4.4375 3.73438-2.76173 4.4375-1.28125v1.96094l-4.4375 1.32031-1.02735.76172-.57812 4.4375 1.60547 2.07813 4.4375 2.16406 4.4375-1.15625 4.4375-2.76562.23046-.32032-.23047-.25-4.4375-2.54296-1.37109-1.64454-3.0664-2.08203v-1.96094l4.4375 2.26172 2.10156 1.78125 2.33594 1.54297 2.6953 2.89453-2.6953 3.71875-1.09375.71875-3.34375 2.9297-4.4375.1953-4.4375-1.62109-2.89844-1.5039"/><path fill="#00d4fc" fill-rule="evenodd" d="M215.01563 375.88672l-1.60547-2.07813.57812-4.4375 1.02734-.76171 4.4375-1.32032V369.25l-.39453.1211-2.04297 4.4375 2.4375 1.32812 3.10547-1.32813-2.93359-4.4375-.17188-.12109v-1.96094l3.06641 2.08203 1.3711 1.64454 4.4375 2.54296.23046.25-.23047.32032-4.4375 2.76562-4.4375 1.15625-4.4375-2.16406"/><path fill="#00e8fc" fill-rule="evenodd" d="M217.3164 391.5625l-1.98827-4.4375 4.125-.80078 1.01171.80078 3.42578 2.23438 2.90625 2.20312 1.53125.52344 2.23438-.52344 2.20313-.76563 4.4414-.4375 4.4375.46875v1.63672l-4.4375.1172-4.4414 1.1328-4.4375 1.82032-.4922.46484-.10155 4.4375.59375.38281 4.4375 3.0664 4.4414.08595 4.4375-.45704 2.66797-3.07812 1.76953-1.8789L248.4961 396l-2.41406-2.64453-4.4375-.89063v-1.63671l1.32813.73437 3.10937.5625L249.6211 396l-3.53906 3.7539-.64453.6836-3.79297 4.375-.7539.0625-3.6836 1.3711-4.4414.08202-1.45704-1.45312-2.98047-1.80469-4.07421-2.63281-.08985-4.4375-.27344-.91016-4.4375-1.61328-2.13671-1.91406"/><path fill="#00c4fc" fill-rule="evenodd" d="M219.45313 375.13672l-2.4375-1.32813 2.04296-4.4375.39453-.12109.17188.1211 2.9336 4.4375-3.10548 1.32812"/><path fill="#fff" fill-opacity="0" fill-rule="evenodd" d="M223.89063 404.78516l-2.29297.08984 2.29297.11328 4.17968 4.32813.25781.1328 4.4375 1.57813 3.60938-1.71093-3.60938-.77344-3.68359-3.66797-.7539-.45313-4.4375.36329"/><path fill="#00d4fc" fill-rule="evenodd" d="M228.32813 400.82031l-.59375-.38281.10156-4.4375.49219-.46484 4.4375-1.82032 4.4414-1.1328 4.4375-.1172v1.125l-4.4375.3125L233.02734 396l-.26172.35938-2.54687 4.07812 2.54688 1.82031 4.4414.51563 4.4375-.55078 1.54688-1.78516 2.89062-3.07422L247.3711 396l-1.28906-1.41016-4.4375-1v-1.125l4.4375.89063L248.4961 396l-2.41406 2.5586-1.76953 1.8789-2.66797 3.07813-4.4375.45703-4.4414-.08594-4.4375-3.0664"/><path fill="#00c4fc" fill-rule="evenodd" d="M232.76563 402.25781l-2.54688-1.82031 2.54688-4.07813.26171-.35937 4.1797-2.09766 4.4375-.3125v1.1211l-4.4375.51172-1.55079.77734-2.89063 4.00781-.26953.42969.26953.19531 4.44141.9414 4.4375-.64843.42188-.48828 4.01562-4.26563.16016-.17187-.16016-.17578-4.4375-1.11328v-1.1211l4.4375 1L247.3711 396l-1.28906 1.36328-2.89062 3.07422-1.54688 1.78516-4.4375.55078-4.4414-.51563"/><path fill="#00b8fc" fill-rule="evenodd" d="M232.76563 400.63281l-.26954-.19531.26953-.42969L235.65625 396l1.55078-.77734 4.4375-.51172v1.125L240.47266 396l1.17187.84766.65234-.84766-.65234-.16406v-1.125l4.4375 1.11328.16016.17578-.16016.17188-4.01562 4.26562-.42188.48828-4.4375.64844-4.4414-.9414"/><path fill="#00a8fc" fill-rule="evenodd" d="M241.64453 396.84766L240.47266 396l1.17187-.16406.65234.16406-.65234.84766"/><path fill="#50fcfc" fill-rule="evenodd" d="M259.39844 385.22266l-2.53516-2.53907 2.53516-2.53125L263 378.2461l.83594-.83203.86719.83203-.1172 4.4375-.75.77344-4.4375 1.76563m4.4375 21.53125l-1.33984-1.87891 1.33985-1.1211 1.64062 1.1211-1.64062 1.8789m79.89062 45.44532l-3.10156-2.9375 3.10156-2.75 2.07813-1.6914 2.35937-2.1172 3.48438-2.3203.95312-.80079 4.4414-1.84765v3.5664l-4.4414 1.48047-2.46484 2.03906 2.46484 3.96485 4.4414-.05079 4.4375-1.48046 4.3125-2.4336-4.3125-1.98047-4.4375-1.53906v-3.5664l2.25 2.64843 2.1875.6875 4.4375 1.11719 4.30079-1.80469.13672-.13672.1875.13672 4.25 1.1211v2.36328l-2.60547.95312 2.60547.98828 3.15234 3.45313 1.28906 1.25 1.30079-1.25-1.30079-1.29688-3.44921-3.14453-.9922-.95312v-2.36328l3.45313 3.3164.98829.90235 3.55078 3.53906-3.55079 3.41406-3.51953-3.41406-.92187-1.01172-1.50781 1.01172-2.9297 3.67187-3.51952-3.67187-.91797-.78906-3.25781.78906-1.1797.67187-4.4375 2.7422-1.92968 1.02343-2.51172 1.57812-4.4375.52344-2.6914-2.10156-1.7461-1.5"/><path fill="#00e8fc" fill-rule="evenodd" d="M352.60156 448.78516l-2.46484-3.96485 2.46484-2.03906 4.4414-1.48047v2.55469l-1.80858.96484 1.80859 1.07813 2.375-1.07813-2.375-.96484v-2.55469l4.4375 1.53906 4.3125 1.98047-4.3125 2.4336-4.4375 1.48046-4.4414.05079"/><path fill="#00d4fc" fill-rule="evenodd" d="M357.04297 445.89844l-1.8086-1.07813 1.8086-.96484 2.375.96484-2.375 1.07813"/><path fill="#00e8fc" fill-rule="evenodd" d="M374.79297 445.8086l-2.60547-.98829 2.60547-.95312.99219.95312 3.44921 3.14453 1.30079 1.29688-1.30079 1.25-1.28906-1.25-3.15234-3.45313"/><path fill="#50fcfc" fill-rule="evenodd" d="M428.05469 400.57813l-.1875-.14063.1875-.15625L430.5 396l1.99219-3.4336.1914-1.0039 2.08594-4.4375 2.16016-2.07422v2.80078l-2.88281 3.71094.08203 4.4375 2.80078 2.21484 2.90625 2.22266 1.53515.98438 4.4375.27343 3.78516 3.17969.65234 1.70313.38672-1.70313.10938-4.4375-.4961-.51953-4.4375-.36328-4.4375-2.9375-.35156-.61719-1.48047-4.4375-2.60937-3.71094v-2.80078l2.61328 2.07422 1.22656 4.4375.60156 1.53516L444.31641 396l1.49218 1.13281 4.4375.28906L453.1875 396l-.64453-4.4375-2.14453-4.4375 4.28515-4.30469 4.44141-.09375v.23438l-4.4414.11328-4.03516 4.05078 4.03515 4.33594 1.19141.10156 3.25 1.69922 1.69922-1.69922 2.3789-4.4375-4.07812-4.16406v-.23438l4.30469 4.39844-.96485 4.4375-3.33984 3.34375L456.03125 396l-1.34766 1.35938-1.5625 3.07812-.05468 4.4375.34765 4.4414-3.16797 2.53126-2.46875-2.53125-1.96875-3.94141-.45703-.5-3.98047-1.36328-4.4414-2.46094-2.78516-.61328-1.65234-.51563-3.29297.51563-1.14453.14063"/><path fill="#00e8fc" fill-rule="evenodd" d="M434.1289 396l-.08202-4.4375 2.8828-3.71094v2.91797l-.61327.79297.61328 1.6289.5586-1.6289-.5586-.79297v-2.91797l2.60937 3.71094L441.01953 396l.35156.61719 4.4375 2.9375 4.4375.36328.4961.51953-.10938 4.4375-.38672 1.70313-.65234-1.70313-3.78516-3.17969-4.4375-.27344-1.53515-.98437-2.90625-2.22266L434.1289 396"/><path fill="#00d4fc" fill-rule="evenodd" d="M436.92969 393.1914l-.61328-1.6289.61328-.79297.5586.79297-.5586 1.6289"/><path fill="#00e8fc" fill-rule="evenodd" d="M454.6836 391.46094l-4.03516-4.33594 4.03515-4.05078 4.44141-.11328v.38672l-4.4414.14453-3.6172 3.63281 3.6172 3.88672 4.4414.38281 3.69922-4.26953-3.69922-3.77734v-.38672l4.07813 4.16406-2.37891 4.4375-1.69922 1.69922-3.25-1.69922-1.1914-.10156"/><path fill="#00d4fc" fill-rule="evenodd" d="M454.6836 391.01172l-3.6172-3.88672 3.6172-3.63281 4.4414-.14453v.3828l-4.4414.1797-3.19923 3.21484 3.19922 3.4375 4.44141.39453 3.32031-3.83203-3.32031-3.39453v-.38281l3.69922 3.77734-3.69922 4.26953-4.4414-.38281"/><path fill="#00c4fc" fill-rule="evenodd" d="M454.6836 390.5625l-3.19923-3.4375 3.19922-3.21484 4.44141-.1797v.38673l-4.4414.21094-2.78126 2.79687 2.78125 2.98828 4.44141.41016 2.9414-3.39844-2.9414-3.00781v-.38672l3.32031 3.39453-3.32031 3.83203-4.4414-.39453"/><path fill="#00b8fc" fill-rule="evenodd" d="M454.6836 390.11328l-2.78126-2.98828 2.78125-2.79688 4.44141-.21093v.38672l-4.4414.24218-2.36329 2.37891 2.36328 2.53906 4.44141.42188 2.5625-2.96094-2.5625-2.6211v-.38671l2.9414 3.00781-2.9414 3.39844-4.4414-.41016"/><path fill="#00a8fc" fill-rule="evenodd" d="M454.6836 389.66406l-2.36329-2.53906 2.36328-2.3789 4.44141-.2422v.38673l-4.4414.27734-1.94532 1.95703 1.94531 2.09375 4.44141.42969 2.1836-2.52344-2.1836-2.23438v-.38671l2.5625 2.62109-2.5625 2.96094-4.4414-.42188"/><path fill="#009800" fill-rule="evenodd" d="M454.6836 389.21875l-1.94532-2.09375 1.94531-1.95703 4.44141-.27735v.38672l-4.4414.3086-1.53126 1.53906 1.53125 1.64453 4.44141.4414 1.8086-2.08593-1.8086-1.84766v-.38671l2.1836 2.23437-2.1836 2.52344-4.4414-.42969"/><path fill="#00ac00" fill-rule="evenodd" d="M454.6836 388.76953l-1.53126-1.64453 1.53125-1.53906 4.44141-.3086v.38672l-4.4414.33985-1.11329 1.12109 1.11328 1.19531 4.44141.45313 1.42969-1.64844-1.42969-1.46094v-.38672l1.8086 1.84766-1.8086 2.08594-4.4414-.4414"/><path fill="#00c800" fill-rule="evenodd" d="M454.6836 388.32031l-1.11329-1.19531 1.11328-1.1211 4.44141-.33984v.77344l-4.4414.40625-.27735.28125.27734.29688 4.44141.47656.67188-.77344-.67188-.6875v-.77344l1.42969 1.46094-1.42969 1.64844-4.4414-.45313"/><path fill="#10cc00" fill-rule="evenodd" d="M454.6836 387.42188l-.27735-.29688.27734-.28125 4.44141-.40625.67188.6875-.67188.77344-4.4414-.47656"/><g clip-path="url(#d)"><path fill="#fff" fill-opacity="0" fill-rule="evenodd" d="M467.9961 480.32813H468V311.67188h-.0039H468v168.65625h-.0039"/></g><path fill="#fff" fill-opacity="0" fill-rule="evenodd" d="M211.1875 392.70703l3.07031-4.96484-8.46875-5.24219-3.07422 4.96875 8.47266 5.23828"/><path fill-rule="evenodd" d="M206.11328 385.45703l.26953-.4336 5.35547 3.3125-.41406.66798-3.82031-2.35938-.73047 1.17969-.47266-.29297.23828-.50781.08985-.2461.04297-.24218-.01172-.2461-.08985-.25781-.17578-.27734-.28125-.29688"/><path fill="#fff" fill-opacity="0" fill-rule="evenodd" d="M250.01172 422.22266l1.61328-5.6172-9.57422-2.74608-1.61328 5.61328 9.57422 2.75"/><path fill-rule="evenodd" d="M243.16406 416.61719l.14063-.49219 6.05078 1.73828-.21484.75781-4.31641-1.24218-.38281 1.33593-.53516-.15234.09375-.5586.01563-.2539-.02344-.2461-.07813-.23437-.15234-.22656-.2461-.21875-.35156-.20703"/><path fill="#fff" fill-opacity="0" fill-rule="evenodd" d="M224.96484 424.53516l7.8672-.94922-1.22657-10.1211-7.86719.95313 1.22656 10.11719"/><path fill-rule="evenodd" d="M226.42188 415.9414l3.26171-.39843.08985.73828-2.61719.3164-.01563 1.82032.20704-.1914.2539-.16407.3086-.125.375-.07813.32812-.01171.34375.04296.34766.10547.33594.17579.30468.2539.13672.16016.125.17969.10547.20703.08984.22656.07032.2539.04687.28125.01563.44141-.05078.42969-.125.40234-.19532.36719-.27344.3164-.16015.13673-.1836.12109-.19921.10156-.22266.08594-.23828.0664-.2539.04297-.46876.01954-.41015-.05079-.35157-.12109-.29687-.17969-.25-.23437-.20703-.27344-.16797-.3125-.1289-.34375.78124-.09375.10938.21875.125.19531.14453.16406.16406.13672.17969.10157.19922.0703.21484.02735.23047-.00781.3125-.0625.26953-.10547.22656-.14453.1875-.1914.13672-.23438.08985-.27344.03906-.32031-.01953-.35547-.05078-.26172-.08985-.25-.13281-.23437-.17578-.21094-.21094-.16797-.25781-.1211-.29688-.0664-.33984.00781-.33203.07422-.26563.14453-.25.21875-.27734.30469-.6875.08203.04688-3.45312"/><path fill="#fff" fill-opacity="0" fill-rule="evenodd" d="M174.67969 439.59375l12.01953-2.25-1.8789-10.01563-12.01954 2.25 1.8789 10.01563"/><path fill-rule="evenodd" d="M176.57813 430.73438l.5-.09375 1.16015 6.1875-.77344.14453-.82812-4.41407-1.36328.25782-.10156-.54688.53906-.16797.23828-.09765.20703-.12891.17578-.17969.1289-.23828.08595-.3125.03125-.41015m4.73046-.88672l.23047-.02344.22656.01562.21875.05079.21485.08203.21094.11328.19922.14062.375.35547.32812.4414.27734.50391.21875.55079.14453.57421.07422.58985-.0039.59375-.07422.57812-.14844.53516-.21484.47656-.13672.21094-.15234.1836-.17188.15624-.1875.1289-.20313.09767-.22265.0625-.23047.01953-.22266-.01563-.22265-.05078-.21485-.08594-.21093-.11719-.20313-.14453-.375-.36328-.33203-.44922-.27734-.51171-.21485-.5547-.14844-.57421.82032-.15235.1289.54688.17578.48047.20313.41406.23047.33594.24219.26172.25.17969.24218.09375.23047.0039.21485-.08984.1953-.17578.16407-.25391.13281-.33203.08985-.39844.04297-.45703-.01172-.51172-.07422-.5586-.13281-.54687-.17188-.47656-.20703-.40625-.22656-.32813-.23828-.2539-.25-.17188-.2422-.08593-.23046-.00391-.21484.08594-.19532.17187-.16406.2461-.13672.32421-.08984.39063-.04688.44922.01563.50781.07422.5586-.82031.15234-.07032-.58985.0039-.58984.07423-.57031.14844-.52735.21875-.46875.13671-.20312.15235-.1836.17187-.15234.1875-.1289.20703-.09375.21875-.0625"/><g clip-path="url(#e)"><path fill="none" stroke="#000" stroke-linecap="round" stroke-linejoin="round" stroke-miterlimit="10" stroke-width=".5" d="M146.77734 482.48438l-5.55468-4.3086"/></g><g clip-path="url(#f)"><path fill="none" stroke="#000" stroke-linecap="round" stroke-linejoin="round" stroke-miterlimit="10" stroke-width=".5" d="M160.22266 482.30078l-5.81641-3.94531"/></g><g clip-path="url(#g)"><path fill="none" stroke="#000" stroke-linecap="round" stroke-linejoin="round" stroke-miterlimit="10" stroke-width=".5" d="M173.4336 482.44531l-5.60938-4.23437"/></g><g clip-path="url(#h)"><path fill="none" stroke="#000" stroke-linecap="round" stroke-linejoin="round" stroke-miterlimit="10" stroke-width=".5" d="M186.1914 483.03125l-4.49218-5.40625"/></g><g clip-path="url(#i)"><path fill="none" stroke="#000" stroke-linecap="round" stroke-linejoin="round" stroke-miterlimit="10" stroke-width=".5" d="M199.0586 483.34766l-3.59766-6.03907"/></g><g clip-path="url(#j)"><path fill="none" stroke="#000" stroke-linecap="round" stroke-linejoin="round" stroke-miterlimit="10" stroke-width=".5" d="M211.96484 483.55469l-2.78125-6.45313"/></g><g clip-path="url(#k)"><path fill="none" stroke="#000" stroke-linecap="round" stroke-linejoin="round" stroke-miterlimit="10" stroke-width=".5" d="M226.1836 482.98828l-4.58594-5.32031"/></g><g clip-path="url(#l)"><path fill="none" stroke="#000" stroke-linecap="round" stroke-linejoin="round" stroke-miterlimit="10" stroke-width=".5" d="M239.39844 483.07422l-4.38672-5.48828"/></g><g clip-path="url(#m)"><path fill="none" stroke="#000" stroke-linecap="round" stroke-linejoin="round" stroke-miterlimit="10" stroke-width=".5" d="M252.78125 483.01563l-4.52344-5.375"/></g><g clip-path="url(#n)"><path fill="none" stroke="#000" stroke-linecap="round" stroke-linejoin="round" stroke-miterlimit="10" stroke-width=".5" d="M266.78125 482.2461l-5.89063-3.83204"/></g><g clip-path="url(#o)"><path fill="none" stroke="#000" stroke-linecap="round" stroke-linejoin="round" stroke-miterlimit="10" stroke-width=".5" d="M280.13281 482.1875l-5.96094-3.71875"/></g><g clip-path="url(#p)"><path fill="none" stroke="#000" stroke-linecap="round" stroke-linejoin="round" stroke-miterlimit="10" stroke-width=".5" d="M292.92188 482.83984l-4.91016-5.02343"/></g><g clip-path="url(#q)"><path fill="none" stroke="#000" stroke-linecap="round" stroke-linejoin="round" stroke-miterlimit="10" stroke-width=".5" d="M306.29297 482.78516l-5.02344-4.91407"/></g><g clip-path="url(#r)"><path fill="none" stroke="#000" stroke-linecap="round" stroke-linejoin="round" stroke-miterlimit="10" stroke-width=".5" d="M318.05078 483.71094l-1.91015-6.76563"/></g><g clip-path="url(#s)"><path fill="none" stroke="#000" stroke-linecap="round" stroke-linejoin="round" stroke-miterlimit="10" stroke-width=".5" d="M333.30469 478.33594l-5.78906 3.98437"/></g><path fill="none" stroke="#000" stroke-linecap="round" stroke-linejoin="round" stroke-miterlimit="10" stroke-width=".5" d="M332.46484 478.91797l1.08594.5625"/><g clip-path="url(#t)"><path fill="none" stroke="#000" stroke-linecap="round" stroke-linejoin="round" stroke-miterlimit="10" stroke-width=".5" d="M345.8711 477.54688l-4.29298 5.5625"/></g><path fill="none" stroke="#000" stroke-linecap="round" stroke-linejoin="round" stroke-miterlimit="10" stroke-width=".5" d="M345.2461 478.35547l1.21093.20703"/><g clip-path="url(#u)"><path fill="none" stroke="#000" stroke-linecap="round" stroke-linejoin="round" stroke-miterlimit="10" stroke-width=".5" d="M359.50781 477.82813l-4.9336 5"/></g><path fill="none" stroke="#000" stroke-linecap="round" stroke-linejoin="round" stroke-miterlimit="10" stroke-width=".5" d="M358.79297 478.55469l1.17578.35156"/><g clip-path="url(#v)"><path fill="none" stroke="#000" stroke-linecap="round" stroke-linejoin="round" stroke-miterlimit="10" stroke-width=".5" d="M371.70703 483.57031l-2.70312-6.48437"/></g><g clip-path="url(#w)"><path fill="none" stroke="#000" stroke-linecap="round" stroke-linejoin="round" stroke-miterlimit="10" stroke-width=".5" d="M386.74219 482.03906l-6.14063-3.41797"/></g><g clip-path="url(#x)"><path fill="none" stroke="#000" stroke-linecap="round" stroke-linejoin="round" stroke-miterlimit="10" stroke-width=".5" d="M394.04297 482.2461l5.88672-3.83594"/></g><g clip-path="url(#y)"><path fill="none" stroke="#000" stroke-linecap="round" stroke-linejoin="round" stroke-miterlimit="10" stroke-width=".5" d="M394.89844 481.6875l-1.07422-.58984"/></g><g clip-path="url(#z)"><path fill="none" stroke="#000" stroke-linecap="round" stroke-linejoin="round" stroke-miterlimit="10" stroke-width=".5" d="M407.23438 482.04297l6.1328-3.42969"/></g><g clip-path="url(#A)"><path fill="none" stroke="#000" stroke-linecap="round" stroke-linejoin="round" stroke-miterlimit="10" stroke-width=".5" d="M408.1289 481.54297l-1.03515-.66406"/></g><g clip-path="url(#B)"><path fill="none" stroke="#000" stroke-linecap="round" stroke-linejoin="round" stroke-miterlimit="10" stroke-width=".5" d="M420.46094 481.8789l6.3086-3.09765"/></g><g clip-path="url(#C)"><path fill="none" stroke="#000" stroke-linecap="round" stroke-linejoin="round" stroke-miterlimit="10" stroke-width=".5" d="M420.46094 481.8789l-1.98828-1.4375"/></g><g clip-path="url(#D)"><path fill="none" stroke="#000" stroke-linecap="round" stroke-linejoin="round" stroke-miterlimit="10" stroke-width=".5" d="M434.1211 482.4375l5.62109-4.21875"/></g><g clip-path="url(#E)"><path fill="none" stroke="#000" stroke-linecap="round" stroke-linejoin="round" stroke-miterlimit="10" stroke-width=".5" d="M447.67188 482.71875l5.14843-4.78125"/></g><g clip-path="url(#F)"><path fill="none" stroke="#000" stroke-linecap="round" stroke-linejoin="round" stroke-miterlimit="10" stroke-width=".5" d="M460.5586 482.15234l6.0078-3.64843"/></g><g clip-path="url(#G)"><path fill="none" stroke="#000" stroke-linecap="round" stroke-linejoin="round" stroke-miterlimit="10" stroke-width=".5" d="M461.4336 481.6211l-1.0547-.625"/></g><g clip-path="url(#H)"><path fill="none" stroke="#000" stroke-linecap="round" stroke-linejoin="round" stroke-miterlimit="10" stroke-width=".5" d="M146.74219 469.21094l-5.48438-4.39453"/></g><path fill="none" stroke="#000" stroke-linecap="round" stroke-linejoin="round" stroke-miterlimit="10" stroke-width=".5" d="M146.74219 469.21094l-.45313 2.41015m13.57031-2.18359l-5.08593-4.84766m5.08594 4.84766l-.66407 2.36328m14.20313-2.625l-5.53906-4.32422m5.53906 4.32422l-.42578 2.41797m13.83593-2.54688l-5.72656-4.0664m5.72656 4.0664l-.3125 2.4336m13.55078-2.32422l-5.5703-4.28516m5.5703 4.28516l-.40625 2.41797m13.04688-1.75l-4.22266-5.6211m4.22266 5.6211l-1.04297 2.22265m14.42969-2.28125l-4.36719-5.5039m3.73047 4.70312l-.49219 1.125m13.42188.2422l-2.32031-6.63673m2.3203 6.63672l-1.66796 1.80078m15.01562-1.8164l-2.38672-6.60547m2.38672 6.60547l-1.64843 1.8203m16.04687-2.44921l-4.5586-5.34766m4.5586 5.34766l-.89844 2.28125m14.89454-3.0625l-5.91797-3.78516m5.91797 3.78516l-.19532 2.44531m13.2461-2.08203l-5.39063-4.51172m5.39063 4.51172l-.50782 2.39844m12.75-1.53906l-3.24609-6.23047m2.77344 5.32422l-.6914 1.01171m15.7539-1.23046l-5.79297-3.98047m17.49219-1.28125l-2.5625 6.54297m2.1914-5.58985l1.21875-.14062m13.48047-.20313l-4.58594 5.32422m3.91797-4.55078l1.19532.26953m12.57421-1.21094l-4.16015 5.66016m3.55469-4.83594l1.21484.17578m12.04297-1.38672l-2.83203 6.4336m12.5039-.5l4.45313-5.4336m-3.80469 4.64454l-1.20312-.2422m13.2578.38673l5.67579-4.14453m-4.84766 3.54296l-1.10547-.53515m13.08594.14453l6.6875-2.16016m-6.6875 2.16016l-1.76172-1.70703m15.16407 1.94531l6.51171-2.63672m-6.51171 2.63672l-1.87891-1.57422M433.75 468.5l6.36328-2.97266M433.75 468.5l-1.96094-1.47266m15.57422 1.9961l5.76563-4.01953m-5.76563 4.01953l-2.1836-1.11719m15.26563.73047l6.23438-3.2461m-6.23438 3.2461l-2.02343-1.39063"/><g clip-path="url(#I)"><path fill="none" stroke="#000" stroke-linecap="round" stroke-linejoin="round" stroke-miterlimit="10" stroke-width=".5" d="M146.13281 456.49219l-4.26562-5.58594"/></g><path fill="none" stroke="#000" stroke-linecap="round" stroke-linejoin="round" stroke-miterlimit="10" stroke-width=".5" d="M146.13281 456.49219l-1.02344 2.23047m14.125-2.08203l-3.83984-5.88672m3.83984 5.88672l-1.1875 2.14843m14.71094-2.29297L168.5 450.90234m4.25781 5.59375l-1.02734 2.22657m14.84375-2.69532l-5.25781-4.66015m4.49218 3.98437l-.28515 1.1914m14.88672-1.28905l-6.30078-3.10938m5.38671 2.65625l.03516 1.22656m13.92969-.32422l-5.76953-4.0078m4.92968 3.42577l-.14453 1.21875m13.49219.19141l-4.15625-5.66797m3.55078 4.84375l-.53516 1.10547m13.09766.32422l-1.4414-6.8789m1.23046 5.8789l-.9414.78515m13.20703.25l1.08203-6.9453m-.92578 5.93359l-1.15625.40234m14.9336.64844l-.15626-7.02344m.13281 6l-1.0703.60156m16.51562-.33984l-4.3711-5.5039m3.73438 4.70312l-.49219 1.125m14.45703-.33594l-4.39844-5.47656m3.76172 4.67968l-.48437 1.12891m15.36328-1.46875l-6.25-3.20703m13.70313 3.8125l5.47265-4.41406m9.20313-1.02735l2.75 6.46875m8.80859-1.64062l6.26563-3.1875m-5.35547 2.72265L340.5 454.125m13.07813-1.03125l6.92578 1.20703m6.90234-2.51172l5.89844 3.82031m-5.03906-3.26562l.10546-1.22266m11.82032 3.0547l6.96093-.95704m-5.94921.82031l-.71875-.9961m13 .94141l7.0039-.5703m-7.0039.5703l-1.32422-2.0664m14.6875 1.13281l6.90625 1.29688m-6.90625-1.29688l-.73047-2.34375m13.98828 3.15234l7.01953-.3203m-7.01953.3203l-1.2461-2.11328m14.87891 3.41407l6.38672-2.92188m-5.45703 2.4961l-.97656-.7461m13.47265 1.39453l6.16406-3.3711m-5.26562 2.88282l-1.02734-.67578m13.42187 1.125l6.21094-3.28906m-6.21094 3.28906l-2.03125-1.375"/><g clip-path="url(#J)"><path fill="none" stroke="#000" stroke-linecap="round" stroke-linejoin="round" stroke-miterlimit="10" stroke-width=".5" d="M142.8086 443.6875l2.3828-6.60938"/></g><path fill="none" stroke="#000" stroke-linecap="round" stroke-linejoin="round" stroke-miterlimit="10" stroke-width=".5" d="M156.48438 443.79688l1.66015-6.82813m-1.66016 6.82813l-2.3789.60546m16.14062-.52734l.76953-6.98438m-.76953 6.98438l-2.27734.91016m17.57813-1.27344l-3.20313-6.2539m3.20313 6.2539l-1.40235 2.01172m15.98828-3.11328l-5.74219-4.05078m4.90625 3.46093l-.15234 1.21485m14.64063-1.22657l-6.42188-2.85156m5.48828 2.4375l.08594 1.22266m13.76172-.1211l-5.61719-4.22265m4.80078 3.60547l-.1914 1.21484m13.73437.01172l-4.4414-5.44531m3.79687 4.65234l-.47656 1.13281m14.125-.11328l-3.8164-5.89844m3.26171 5.04297l-.59766 1.07032m11.64063.22656l1.83594-6.78125m-1.57032 5.79687l-1.1953.27344m12.85937-.02734l4.60937-5.3047m-3.9414 4.53517l-1.19532-.27735m17.16797-1.60547l-.01953-.19922-.0586-.1914-.09374-.17578-.46094-.37891-.1914-.0586-.19923-.01952-.19921.01953-.19141.05859-.45703.3789-.09766.17579-.05469.1914-.01953.19922.01953.19922.0547.1914.09765.1797.45703.375.1914.05859.19922.01953.19922-.01953.1914-.0586.46095-.375.09375-.17968.05859-.1914.01953-.19923m11.0586-3.28906l2.46484 6.57813m-2.10547-5.6211l.8125-.91797m11.09375.58203l4.57031 5.33594m-3.90625-4.5586l.44532-1.14452m13.2539-.25391l2.46875 6.57813m-2.10937-5.6211l.8125-.91797m14.40234 3.25l-.01953-.19922-.0586-.1914-.09765-.17578-.45703-.37891-.1914-.0586-.19923-.01952-.19922.01953-.1914.05859-.46094.3789-.09375.17579-.0586.1914-.01952.19922.01953.19922.05859.1914.09375.1797.46094.375.1914.05859.19922.01953.19922-.01953.1914-.0586.45704-.375.09766-.17968.05859-.1914.01953-.19923m8.82422.57813l6.9336-1.15625m-5.92579.98828l-.7461-.97266m13.75782-1.60937l5.52344 4.34765m-4.71875-3.71484l.21875-1.20703m11.7539 3.95703l6.59766-2.42187m-5.63672 2.0703l-.91406-.8203m13.0586.07812l7.01952-.23437m-6 .20312l-.61328-1.0664m13.21485-.46094l6.41015 2.8828m-6.41015-2.8828l-.16407-2.44532m13.37891 2.69141l6.60938 2.39063m-5.64844-2.04297l-.17188-1.21485m12.35938 2.6211l6.9375-1.1172m-6.9375 1.1172l-1.48047-1.95313m15.3711 3.39063l5.78906-3.98828m-4.94532 3.40625l-1.08984-.56641m13.23828.5664l6.4336-2.82421m-6.4336 2.82422l-1.92578-1.52344"/><g clip-path="url(#K)"><path fill="none" stroke="#000" stroke-linecap="round" stroke-linejoin="round" stroke-miterlimit="10" stroke-width=".5" d="M146.16406 424.30078l-4.32812 5.53516"/></g><path fill="none" stroke="#000" stroke-linecap="round" stroke-linejoin="round" stroke-miterlimit="10" stroke-width=".5" d="M145.53516 425.10547l1.20703.21484m7.64844 3.69531l5.84765-3.89453m-5.84766 3.89453l-2.16015-1.16406m15.79297 1.57422l5.21094-4.71484m-5.21094 4.71484l-2.3086-.83594m15.48828.67188l5.48438-4.38672m-5.48438 4.38672l-2.2539-.96875m16.46484 1.76562l3.6914-5.98047m-3.15233 5.10938l-1.22657-.07813m16.67969 1.3711l-1.66406-6.82422m1.42187 5.83203l-.91406.8164m13.07031.23048l1.14063-6.9336m-.97656 5.92578l-1.16016.39063m11.60937-1.57031l6.54297-2.5586m6.76563 2.54297l6.5586-2.52734m-5.60548 2.16015l-.92578-.80468m13.71484 1.96093l5.70313-4.10546m-4.875 3.5078l-1.09766-.54296m19.75782-2.05469l-6.64454 2.28516m15.71485-4.53125l1.84765 6.77734m-1.58203-5.79297l.89453-.83984m11.9922-.09766l2.17187 6.6836m-2.17188-6.6836l1.70313-1.76562m12.03515 1.65625l1.32422 6.90234m-1.13281-5.89844l.95703-.76953m11.34375.03516l2.97266 6.36719m-2.54297-5.44141l.73828-.98047m13.32422-.26172l.61719 7m-.52735-5.98437l1.02735-.66797m12.48046-.36328l.05079 7.02734m-.04297-6.0039l1.07812-.58594m8.8164 2.35547l6.87892 1.4414m-5.87891-1.23047l-.34375-1.17968m13.16797 3.6328l5.85937-3.8828m-5.00781 3.3164l-1.07813-.58593m18.91016 1.73828l-4.8789-5.0586m12.29687 1.90235l6.91406 1.2539m-5.90625-1.07422l-.375-1.16796m15.61328-1.85938l1.05079 6.94922m14.28125-6.65625L435.4414 430.25m13.24609-6.32812l3.11719 6.29296m-2.66406-5.3789l.71484-.9961m10.45703 4.57032l6.4961-2.6836m-5.55079 2.29297l-.94531-.78125"/><g clip-path="url(#L)"><path fill="none" stroke="#000" stroke-linecap="round" stroke-linejoin="round" stroke-miterlimit="10" stroke-width=".5" d="M147.42969 414.51172l-6.85938-1.51563"/></g><path fill="none" stroke="#000" stroke-linecap="round" stroke-linejoin="round" stroke-miterlimit="10" stroke-width=".5" d="M146.4336 414.29297l.32812 1.17969m14.05078-1.37891l-6.9961-.67969m5.97657.57813l.46875 1.13672m13.70703-.27735l-6.67578-2.19531m13.35156 2.30078l6.60156-2.41015m-5.64062 2.0625l-.91406-.82032m13.3164 1.29297l6.5039-2.65625m-5.55858 2.26953l-.94141-.78515m13.75781 1.95703l5.61328-4.22656m-5.61328 4.22656l-2.22656-1.03906m15.22266.53515l6.25-3.21875m-6.25 3.21875l-2.01563-1.39844m15.39844 1.52344l6.11328-3.46875m-6.11328 3.46875l-2.07031-1.3164m15.19921.9375l6.48438-2.71094m-6.48438 2.71094l-1.89843-1.5547m15.46875 2.05079l5.97265-3.70313m-5.97265 3.70313l-2.1172-1.23438m15.2422.87891l6.35547-2.99219m-5.4297 2.5586l-.98437-.73438m14.89063-3.42578l3.32422 6.1914m-2.83985-5.28906l.67969-1.01953m11.17188.89453l5.28125 4.64063m-5.28125-4.64063l.5664-2.38671m14.86719 1.23046l1.04297 6.94922m-1.04297-6.94922l1.97265-1.45703m12.64063 1.50782l-1.55078 6.85156m1.55078-6.85156l2.36719-.64844m11.0625.67578l-1.78125 6.79687m1.78125-6.79687l2.38672-.5664m12.0664 1.09765l-4.0586 5.73437m3.46876-4.90234l1.21484.15625m12.8789-.84375l-4.4375 5.44531m3.79298-4.65625l1.20312.23828m13.97266.95313l-6.86719 1.48437m5.86719-1.26953l.79297.9375m13.29297-1.85156l-6.41016 2.88281m5.47656-2.46484l.96875.75m13.36328-.96094l-6.57812 2.46875m5.6211-2.10937l.92187.8125m13.41015-1.00391l-6.6953 2.13281m6.6953-2.13281l1.75391 1.71484m11.03516-2.74218l-5.64454 4.18359m4.82422-3.57422l1.10547.52735m11.35156-2.3672l-2.28906 6.64454m1.95703-5.67578l1.21094-.1914m13.88672.17577l-5.1875 4.73828"/><g clip-path="url(#M)"><path fill="none" stroke="#000" stroke-linecap="round" stroke-linejoin="round" stroke-miterlimit="10" stroke-width=".5" d="M143.45313 403.91016l1.09375-6.94141"/></g><path fill="none" stroke="#000" stroke-linecap="round" stroke-linejoin="round" stroke-miterlimit="10" stroke-width=".5" d="M154.63672 402.71094l5.35937-4.54297m8.59375 5.1289l4.08203-5.71875m8.33594 4.78907l5.875-3.85938m6.86328 1.91016l7.02735.03906m-6.0039-.03125l-.57032-1.08594m13.08594 2.32813l6.58203-2.46094m-6.58203 2.46094l-1.83985-1.625m15.1914 1.71875l6.50782-2.64453m-6.50781 2.64453l-1.88281-1.57422m15.17578 1.52344l6.55078-2.54688m-5.59766 2.17969l-.92969-.80078m14.35547 2.625l4.42188-5.46094m-3.77734 4.66797l-1.20313-.23438m13.77344.94141l4.625-5.28906m-4.625 5.28906l-2.39063-.5586M274.3047 402.5l5.6914-4.125m-4.86328 3.52344l-1.10156-.53906m13.5586 1.09765l5.75-4.03906m-4.91407 3.45312l-1.09375-.55468m12.97266-1.39844l6.94922 1.04297m-5.9375-.89063l-.40625-1.16015m14.10156-1.30079l4.17187 5.65625m-3.5664-4.83203l.53125-1.10546m13.59375-.33985l1.33984 6.89844m-1.14453-5.89453l.95312-.76953m15.4336.84765l-5.19531 4.73438m5.1953-4.73438l2.3086.82813m11-.83203l-5.1836 4.74218m5.1836-4.74218l2.3125.82421m8.41016-1.96484v7.02735m0-6.00782l1.08203-.57422m14.41016.3086l-4.35157 5.51953m3.71875-4.71875l1.20703.21875m9.8086-1.6914l1.51172 6.86327m-1.29297-5.86718l.9336-.79297m9.41015 3.44531l7.01562-.4375m11.54297-2.83594l-3.47265 6.10938m2.96875-5.21875l1.22656.03515m14.20703 1.06641l-6.69922 2.1289m5.72266-1.8203l.8789.85937m9-3.45313l2.125 6.69922m-1.8164-5.72656l.85937-.875m10.14453 4.96875l6.12891-3.4375m-5.23438 2.9375l-1.03515-.66016"/><g clip-path="url(#N)"><path fill="none" stroke="#000" stroke-linecap="round" stroke-linejoin="round" stroke-miterlimit="10" stroke-width=".5" d="M145.64453 390.23047l-3.28906-6.21094"/></g><path fill="none" stroke="#000" stroke-linecap="round" stroke-linejoin="round" stroke-miterlimit="10" stroke-width=".5" d="M145.16406 389.32422l-.6875 1.01562m14.09375.06641l-2.51172-6.5664m2.51172 6.5664l-1.61328 1.84766m14.77734-1.79297l-2.20703-6.67188m1.88672 5.69922l-.84765.88672m16.53125-1.69922l-6.3047-3.10547m5.38673 2.65235l.03906 1.22656m14.55469-2.29297l-7.02735-.0664m6.00391.05468l.5664 1.08985m9.08204-4.42188l2.35547 6.6211m-2.01172-5.65626l.82422-.90625m9.8125 3.13282l7.02343.23828m-6-.20313l-.54297-1.10156m17.3672 4.54688l-2.04298-6.72266m1.7461 5.7461l-.86719.86327m11.8086-.14453l3.30077-6.20312m-2.8203 5.30078l-1.22657-.0039m17.20703.98046l-2.99219-6.35547m2.5547 5.4336l-.73438.98046m15.6289-.91406l-5.27734-4.64062m4.50781 3.96484l-.28125 1.1914m11.33594.65235l.78125-6.98047m-.66797 5.96485l-1.14062.45312m18.19921-2.33594l-6.92968-1.18359m5.92187 1.01172l.38281 1.16406m10.91407-5.07031l-.87891 6.97265m15.38281-.375l-3.25781-6.22265m17.70703.9414l-5.52344 4.33985m4.71875-3.70703l1.125.4961m12.21875-1.85548l-3.97265 5.79688m3.39453-4.95313l1.21875.13672m13.23828-.5l-5.10156 4.83203m4.35937-4.1289l1.16407.39062m9.90625-2.16406l.87109 6.97265m-.74219-5.95703l1.0039-.70703m11.60548-.1875L398 390.48828m-1.73047-5.75l.8711-.86328m15.46093 5.90234L408 384.46875m3.9336 4.53516l-.44141 1.14843m13.7461.08594l-3.2461-6.23047m17.54687.76172l-5.21484 4.70703m4.45703-4.02344l1.15234.42188m12.76563-1.26953l-4.90625 5.03515m4.90625-5.03515l2.35547.6875m7.4336 5.17578l2.14452-6.6914"/><g clip-path="url(#O)"><path fill="none" stroke="#000" stroke-linecap="round" stroke-linejoin="round" stroke-miterlimit="10" stroke-width=".5" d="M145.96484 376.72266l-3.92968-5.82813"/></g><path fill="none" stroke="#000" stroke-linecap="round" stroke-linejoin="round" stroke-miterlimit="10" stroke-width=".5" d="M145.96484 376.72266l-1.15625 2.16406m14.53907-2.21485l-4.06641-5.72656m4.0664 5.72656L158.25 378.8672m15.29688-3.09766l-5.83204-3.92187m4.98047 3.35156l-.125 1.21875m14.6289-1.28125l-6.5078-2.65625M186.25 374.75l.125 1.21875m13.375-4.64063l-4.98047 4.95704m4.25781-4.23438l1.17188.36328m9.60156-2.03125l1.55078 6.85156m14.46485-6.36328l-3.85157 5.875m3.29297-5.01953l1.21875.10938m12.54297 4.98047l-3.6289-6.01563m3.10156 5.14063l-.6289 1.05078m9.14452-3.21485l7.02735.0625m-6.00391-.05468l-.5664-1.08985m18.26952 4.07031l-3.79687-5.91406m3.24219 5.05469l-.59766 1.07031m15.48828-1.21484l-5.83984-3.90625m4.99219 3.33984l-.125 1.21875m14.43359-.89062l-6.13281-3.42969m5.24219 2.92969l-.02735 1.22656m14.64844-1.96875l-6.96094-.94531m5.94922.8086l.42578 1.14843m13.84375-2.27735l-6.84765 1.58594m5.85156-1.35547l.80469.92579m7.92968-3.14063l4.3086 5.55078m-3.6836-4.74219l.5039-1.11718m10.98438 2.03906l6.70704 2.09375m-5.73047-1.78906l-.22657-1.20704m13.40235-.5l5.03515 4.89844m-4.30468-4.1875l.34375-1.17578m11.54687 1.49219l6.42578 2.84375m9.48438-4.88281l1.23437 6.91796m-1.05468-5.91015l.96484-.75781m12.8711 6.72265l-.16798-7.02344m11.8711 6.67579l3.05469-6.32813m-2.60938 5.40625l-1.22656.05078m16.49219-5.69922l-1.73438 6.8125m1.48047-5.8203l1.1914-.29298m11.29297-.80078l.4336 7.01563m9.64453-4.16016l6.90625 1.30469m-6.90625-1.30469l-.72656-2.34375m16.74218-.4375l1.50782 6.86328m-1.50782-6.86328l1.8672-1.58984m-1.64845 2.58984l.9336-.79297"/><g clip-path="url(#P)"><path fill="none" stroke="#000" stroke-linecap="round" stroke-linejoin="round" stroke-miterlimit="10" stroke-width=".5" d="M145.42188 363.70703l-2.84375-6.42578"/></g><path fill="none" stroke="#000" stroke-linecap="round" stroke-linejoin="round" stroke-miterlimit="10" stroke-width=".5" d="M145.00781 362.76953l-.75781.96485m14.97266-.29297l-3.81641-5.89844m3.26172 5.04297l-.59766 1.07031m15.13672-.77344l-5.15234-4.77734m4.40234 4.08203l-.3125 1.1836m9.77344-.00782l4.05469-5.73828m-3.46485 4.90234l-1.21875-.15625m12.53125-2.58593l6.88281 1.41406m-6.8828-1.41406l-.69532-2.35157m14.08203 4.0586l6.73828-1.9961m-6.73828 1.9961l-1.71875-1.75m21.75-.3125l-6.69531 2.125m6.69531-2.125l1.7539 1.71875m10.78126-3.05469l-5.13672 4.79688m5.13672-4.79688l2.32031.79688m11.23047 3.72265l-5.60547-4.23828m4.78906 3.6211l-.19531 1.21093m13.6875.05078l-4.33203-5.53125m3.70312 4.72656l-.49609 1.1211m15.42969-1.53125l-6.3086-3.09766m6.3086 3.09766l.07812 2.45312m12.64453-1.60156l-5.125-4.80469m5.125 4.8047l-.64062 2.37108m13.98828-2.40234l-5.1875-4.73828m4.4336 4.04688l-.3047 1.1875m11.42579.6289l.70703-6.99219m12.14062 6.91407l1.64063-6.83204m13.36719.01172l-1.7422 6.8086m1.48829-5.82031l1.1914-.28907m9.3047 5.4414l4.40234-5.47655m-4.40235 5.47656l-2.41015-.46094m15.47656.24219l4.90234-5.03516m-4.1914 4.30078l-1.17578-.34375m12.98437-.08984l6.48828-2.69922m-5.54297 2.30469l-.94922-.77735m13.08594-.6875L400.46484 361m-5.9453-.86719l-.41017-1.15234m12.98438 2.94922l6.41406-2.8711m-5.48047 2.45313l-.96875-.7539m13.75782-2.38673l5.60156 4.2422m-4.78906-3.625l.1953-1.21095m13.19141-.23046l3.83204 5.89062m-3.83204-5.89063l1.1875-2.14453m10.61329 4.33204l6.85937 1.51953m-6.85937-1.51954l-.65625-2.36718m14.29296 1.49219l6.21875 3.26953m-6.21875-3.26954l-.01171-2.45703"/><g clip-path="url(#Q)"><path fill="none" stroke="#000" stroke-linecap="round" stroke-linejoin="round" stroke-miterlimit="10" stroke-width=".5" d="M146.91016 349.14844l-5.82032-3.9414"/></g><path fill="none" stroke="#000" stroke-linecap="round" stroke-linejoin="round" stroke-miterlimit="10" stroke-width=".5" d="M146.0625 348.57422l-.13281 1.22265m14.55469-1.10546l-6.33985-3.02735m5.41797 2.58594l.05469 1.22656m7.66406-1.24219l6.69922-2.11328m6.45312 1.03516l7.02344.04297m-6.0039-.03516l-.57032-1.08594m13.1289 2.4375l6.4961-2.67578m-6.4961 2.67579l-1.89062-1.5625m15.33594 1.84375l6.23438-3.23829m-6.23438 3.23829l-2.01953-1.39063m2.92578.92188l-1.00781-.69532m14.6914 2.53516l3.6875-5.98047m-3.14843 5.11328l-1.22656-.07812m19.28906-2.75391l-6.88281 1.41797m6.8828-1.41797l1.5625 1.89063m11.77345-.58204l-6.92579-1.19921m6.92578 1.19921l.76563 2.32813m12.39453-1.7461l-6.61719-2.36328m6.6172 2.36329l.35546 2.42578m11.13672-.42188l-2.97266-6.3711m2.97266 6.3711l-1.47656 1.95703m16.61718-3.97265l-6.625-2.33985m5.66407 2l.17968 1.21094m10.91407 1.46875l-.25782-7.01953m.21875 6l-1.0625.61328m11.21094-4.79688l6.15625 3.38672m13.07031-3.76953l-5.66797 4.15235m14.91016-5.36329l2.47656 6.57422m-2.11718-5.61718l.8125-.92188m10.57812 1.13281l5.60547 4.23829m-5.60547-4.23829l.38672-2.42187m12.41016 5.6836l6.64453-2.28516m-6.64453 2.28515l-1.79688-1.67187m15.20313 1.91015l6.46093-2.76171m-5.52343 2.35937l-.95313-.76953m13.09766-.8125l6.92578 1.20703m-5.91797-1.03125l-.3789-1.16797m12.68359 2.17969l6.92968-1.16797m-6.92968 1.16797l-1.4961-1.9414m14.83203 2.04296l6.89063-1.3711m-6.89063 1.3711l-1.55468-1.89844m14.82812 1.64844l6.97266-.8711m-5.95703.7461l-.70703-1.0039m19.57812-.9922l-6.16797 3.3711m5.26953-2.8789l1.02344.67578m9.85547-2.98829l.4961 7.01172m-.4961-7.01171l2.08203-1.30079"/><g clip-path="url(#R)"><path fill="none" stroke="#000" stroke-linecap="round" stroke-linejoin="round" stroke-miterlimit="10" stroke-width=".5" d="M147.51172 333.94922l-7.02344-.17578"/></g><path fill="none" stroke="#000" stroke-linecap="round" stroke-linejoin="round" stroke-miterlimit="10" stroke-width=".5" d="M159.05078 330.8086l-3.47266 6.10937m2.96875-5.21875l1.22657.03515m12.98828-.66406L168.5 336.65625m4.26172-5.58594l2.42187.39844m9.27344-1.08203l-1.02344 6.95312m1.02344-6.95312l2.3086-.82422m-2.45704 1.83594l1.15235-.41406m8.41406 3.82421l6.76953-1.89062m-5.78516 1.61719l-.84375-.89063m18.52735 3.1289l-3.9336-5.82421m16.97266 5.99219l-3.38281-6.15625m3.38281 6.15625l-1.34375 2.05468m15.16797-7.87109l-4.39844 5.47656m3.75781-4.67969l1.20313.22657m14.02734 1.1914l-6.94922 1.04688m5.9375-.89453l.73047.98437m13.59766-.11328l-6.95313-1m5.94141.85547l.41797 1.15234m12.94922.94141l-5.03516-4.89844m5.03516 4.89844l-.6836 2.35547m14.12891-2.4961l-5.29297-4.61718m4.52344 3.94531l-.28125 1.19531m10.33984.39844l2.75782-6.46094m14.53906 5.58985l-5.20703-4.71875m4.44922 4.03125l-.30079 1.1914m11.42188.63281l.69922-6.99218m-.59766 5.97656l-1.13672.46484m16.32422-6.05859l-3.2539 6.22656m15.80859-6.51953l-1.73047 6.8125m1.73047-6.8125l2.38281-.58203m-2.63281 1.57422l1.1914-.29297m14.57423.98828l-6.12891 3.4375m6.1289-3.4375l2.0625 1.32422m-2.95703-.82422l1.03516.66016m12.01172-2.39453l-3.80469 5.90625m3.80469-5.90625l2.44531.20312m-3 .65625l1.22266.10156m10.14062-1.46875l1.20703 6.92188m-1.20703-6.92188l1.9375-1.5078m-1.76172 2.51562l.96875-.75391m9.73047 1.45313l6.08985 3.5078m-6.08985-3.5078l.08203-2.45313m12.79297 3.76172l6.96875.89062m-5.95703-.76171l-.4336-1.14844m16.83594 4.92578l-1.23046-6.92188m1.23046 6.92188l-1.93359 1.51172m17.8086-3.46875l-6.35157-3.00781m5.42578 2.5703l.0586 1.22657m13.77734-4.45313l-5.53906 4.32032"/><g clip-path="url(#S)"><path fill="none" stroke="#000" stroke-linecap="round" stroke-linejoin="round" stroke-miterlimit="10" stroke-width=".5" d="M466.33203 331.70313l2.24219 1"/></g><g clip-path="url(#T)"><path fill="none" stroke="#000" stroke-linecap="round" stroke-linejoin="round" stroke-miterlimit="10" stroke-width=".5" d="M141.60938 323.1211l4.78125-5.14844"/></g><path fill="none" stroke="#000" stroke-linecap="round" stroke-linejoin="round" stroke-miterlimit="10" stroke-width=".5" d="M159.44922 317.75781l-4.26563 5.58203m3.64453-4.77343l1.21094.20312m13.36328-.3789l-5.54297 4.3164m5.54297-4.3164l2.23828 1m10.0547-1.89063l-3.5 6.09375m3.5-6.09375l2.45312.07813m-2.96485.80859l1.22657.03906m14.03906.64453l-6.375 2.95703m6.375-2.95703l1.95312 1.48047m-2.8828-1.05078l.98046.74219m13.11328-1.46094l-6.07422 3.53125m6.07422-3.53125l2.08594 1.29297m-2.96875-.77735l1.03906.64454m13.48438 1.6289l-6.72657-2.04297m6.72657 2.04297l.46875 2.40625m12.03906-1.01953l-5.11328-4.82031m5.11328 4.82031l-.64844 2.36719m14.76563-3.74219l-6.71485-2.07031m6.71485 2.07031l.46093 2.41016m10.75-.16016l-2.5078-6.5664m2.14452 5.60937l-.8086.92578m15.71095-.76172l-4.95704-4.98047m4.95704 4.98047l-.72266 2.34375m11.21484-1.33984l.69141-6.99219m-.59375 5.97656l-1.13281.46485m13.19531.23437l3-6.35547m9.58984.45704l4.45313 5.4375m-3.8086-4.64454l.47266-1.1328m13.57422-.35157l1.69531 6.82031m-1.69531-6.82031l1.82813-1.64063m8.90625 4.27735l6.85546 1.54687m12.72266-2.85156l-5.66797 4.15625m4.84375-3.55078l1.10547.53125m12.90625-1.29688l-5.41406 4.47657m5.41406-4.47657l2.26953.9375m-3.05469-.28515l1.13282.46875m11.22656-2.26172l-1.92969 6.75781m1.92969-6.75781l2.39844-.51172m-2.6797 1.4961l1.19923-.25782m12.80078-.58203l-2.73828 6.47266m2.73828-6.47266l2.4414-.21875m-2.83984 1.16016l2.4414-.21875m11.25391-.73047l-2.70312 6.48828m2.3086-5.54297l1.22265-.11719m12.09375 5.79688l-1.91406-6.76172m1.91406 6.76172l-1.77344 1.69531m15.91797-2.05469l-3.57422-6.04687m3.57422 6.04687l-1.27734 2.09766m.7578-2.97656l-.64062 1.04687m16.13672-2.51953l-6.89844-1.34375m6.89844 1.34375l.71485 2.34766m11.65234-5.48829l-5 4.9375"/><g clip-path="url(#U)"><path fill="none" stroke="#000" stroke-linecap="round" stroke-linejoin="round" stroke-miterlimit="10" stroke-width=".5" d="M466.0625 318.07813l2.33984.73437"/></g><path fill="none" stroke="#000" stroke-linecap="round" stroke-linejoin="round" stroke-miterlimit="10" stroke-width=".5" d="M465.33594 318.79688l2.33984.73437"/><path fill="#00f" fill-rule="evenodd" d="M210.70313 472.08594h8.62109V461.9414h-8.6211v10.14453"/><path fill="azure" fill-rule="evenodd" d="M212.53906 463.77344h.83203v2.82422h3.28516v-2.82422h.83203v6.48047h-.83203v-2.91797h-3.28516v2.91797h-.83203v-6.48047"/><path fill="#00f" fill-rule="evenodd" d="M383.80078 436.57813h8.61719v-10.14454h-8.61719v10.14454"/><path fill="azure" fill-rule="evenodd" d="M385.63281 428.26563h.83203v2.82421h3.28907v-2.82421h.83203v6.48046h-.83203v-2.91406h-3.28907v2.91406h-.83203v-6.48046"/><path fill="#00f" fill-rule="evenodd" d="M219.58203 414.38672h8.61719v-10.14453h-8.61719v10.14453"/><path fill="azure" fill-rule="evenodd" d="M221.41406 406.07422h.83203v2.82422h3.28907v-2.82422h.83203v6.48047h-.83203v-2.91406h-3.28907v2.91406h-.83203v-6.48047"/><path fill="#ff3030" fill-rule="evenodd" d="M193.64453 325.6211h7.69531v-10.14454h-7.6953v10.14453"/><path fill="azure" fill-rule="evenodd" d="M195.47656 317.3086h.83594v5.73827h3.1914v.7422h-4.02734v-6.48048"/><path fill="#ff3030" fill-rule="evenodd" d="M415.5625 325.6211h7.69531v-10.14454h-7.69531v10.14453"/><path fill="azure" fill-rule="evenodd" d="M417.39453 317.3086h.83594v5.73827h3.1914v.7422h-4.02734v-6.48048"/><path fill="#ffffe0" fill-rule="evenodd" d="M279.60547 369.3789h22.1836v-10.1914h-22.1836v10.1914"/><path fill-rule="evenodd" d="M283.10547 361.01953h.51172v6.29297h-.78906v-4.48828h-1.38672v-.55469l.55859-.0664.2539-.0547.22657-.08984.20312-.14062.17579-.21094.14062-.29297.10547-.39453m4.8164 0l.22657.01953.21875.05469.21094.08984.1953.1211.1836.14844.17188.17578.30078.41796.24219.4961.17968.54687.11328.57813.03907.58984-.03907.59375-.11328.58594-.17969.55078-.24218.5039-.30078.4297-.17188.17968-.1836.15235-.1953.12109-.21094.09375-.21875.0586-.22656.01952-.23047-.01953-.21875-.05859-.20704-.09375-.19921-.1211-.1836-.15234-.17187-.17969-.30078-.42968-.2422-.5039-.17968-.55079-.11328-.58594-.03906-.59375h.83594l.02734.5625.08203.50781.125.44141.16406.375.1914.30078.21095.22266.22265.13672.22656.04687.22266-.04687.22656-.13672.20704-.22266.1914-.30078.16406-.375.125-.4414.08204-.50782.02734-.5625-.02735-.5586-.08203-.5039-.125-.4336-.16406-.36718-.1914-.28906-.20704-.21485-.22656-.1328-.22265-.04298-.22657.04297-.22265.13281-.21094.21485-.1914.28906-.16407.36719-.125.4336-.08203.5039-.02735.5586h-.83593l.03906-.58985.11328-.57813.17969-.54687.24219-.4961.30078-.41796.17187-.17579.1836-.14843.19921-.1211.20704-.08984.21875-.05469.23046-.01953m5.08985 0h.50781v6.29297h-.78515v-4.48828h-1.39063v-.55469l.5625-.0664.25-.0547.23047-.08984.20312-.14062.17579-.21094.14062-.29297.10547-.39453m2.82422 2.17578h.78515l.01954-.3164.05859-.28907.10156-.25.14063-.21484.17968-.17578.22266-.1289.26563-.07813.30859-.02735.23828.01954.22266.0625.20312.10156.17969.13672.14844.17578.11328.20703.07422.23437.02343.26563-.02343.26562-.0625.22657-.11329.1914-.15234.17188-.20312.16015-.2461.16797-.63281.38672-.53906.3164-.4375.31641-.34766.32422-.26172.33594-.1914.35156-.125.36719-.06641.39453-.02344.41797h4.21094v-.73828h-3.33203l.08594-.28516.11328-.23828.14844-.19922.1875-.17969.23046-.17187.27735-.17578.71875-.41797.41406-.20313.34375-.23437.28125-.25.21875-.26563.16406-.27734.11328-.28515.0625-.28516.01954-.28125-.03907-.38281-.1211-.34766-.1914-.3086-.25-.26171-.30078-.21485-.34765-.15625-.37891-.10156-.40625-.03125-.4336.03125-.39843.09766-.35547.16797-.30469.23437-.25.30469-.1836.375-.11718.44531-.03906.51953"/><path fill="#ffffe0" fill-rule="evenodd" d="M370.95703 414.6211h22.17969v-10.19532h-22.17969v10.19531"/><path fill-rule="evenodd" d="M374.45703 406.26172h.50781v6.29297h-.78515v-4.48828h-1.38672v-.5547l.5586-.0664.25-.05469.23046-.08984.20313-.14062.17578-.21094.14062-.29297.10547-.39453m4.8125 0l.23047.01953.21875.05469.20703.08984.19922.1211.1836.14843.17187.17578.30078.41797.24219.4961.17969.54296.11328.58204.03906.58984-.03906.59375-.11329.58203-.17968.55469-.24219.5039-.30078.42579-.17188.17968-.18359.15625-.19922.1211-.20703.09375-.21875.05469-.23047.01953-.22656-.01954-.21875-.05468-.21094-.09375-.19531-.1211-.1836-.15625-.17187-.17968-.30078-.42579-.24219-.5039-.17969-.55469-.11328-.58203-.03906-.59375h.83594l.02734.5625.08203.50781.125.4414.16406.375.19141.30079.20703.22266.22266.13671.22656.04688.22656-.04688.22266-.13671.21094-.22266.1914-.30078.16407-.375.125-.4414.08203-.50782.02734-.5625-.02734-.5625-.08203-.5-.125-.4336-.16407-.36718-.1914-.29297-.21094-.21094-.22266-.13281-.22656-.04688-.22656.04688-.22266.13281-.20703.21094-.1914.29297-.16407.36719-.125.43359-.08203.5-.02734.5625h-.83594l.03906-.58984.11328-.58204.1797-.54296.24218-.4961.30078-.41797.17188-.17578.18359-.14844.19531-.12109.21094-.08984.21875-.05469.22656-.01953m5.09375 0h.50781v6.29297h-.78515v-4.48828h-1.39063v-.5547l.5625-.0664.25-.05469.23047-.08984.20313-.14062.17578-.21094.14062-.29297.10547-.39453m2.82422 2.17578h.78516l.01953-.3164.0586-.28907.10155-.25.14063-.21484.17969-.17578.22265-.12891.26563-.08203.3086-.02735.23827.02344.22266.0625.20312.10156.1797.13672.14843.17579.11328.20312.07422.23828.02344.26172-.02344.26953-.0625.22656-.11328.19141-.15235.17188-.20312.16015-.2461.16797-.6328.38672-.53907.3125-.4375.32031-.34766.32422-.26171.33594-.19141.34765-.125.3711-.07031.39453-.01954.41797h4.21094v-.73828h-3.33203l.08594-.28516.11328-.23828.14844-.19922.1875-.1836.23047-.16796.27734-.17578.71875-.41797.41406-.20703.34375-.23047.28125-.25.21875-.26563.16406-.28125.11329-.28125.0625-.28515.01953-.28125-.04297-.38282-.11719-.34765-.1914-.3086-.25-.26562-.30079-.21094-.34765-.16015-.3789-.09766-.40626-.03125-.4336.03125-.39843.09765-.35547.16797-.30469.23438-.25.30469-.18359.375-.11719.4453-.03906.51954"/></g></defs><use xlink:href="#V"/></svg>