<svg xmlns="http://www.w3.org/2000/svg" role="img" xmlns:xlink="http://www.w3.org/1999/xlink" viewBox="142.45 309.95 326.84 171.84"><defs><clipPath id="a"><path d="M144 311.67188h1v168.65625h-1zm0 0"/></clipPath><clipPath id="b"><path d="M144 311.67188h324v168.65625H144zm0 0"/></clipPath><clipPath id="c"><path d="M467 311.67188h1v168.65625h-1zm0 0"/></clipPath><clipPath id="d"><path d="M144 477h3v3.32813h-3zm0 0"/></clipPath><clipPath id="e"><path d="M154 477h7v3.32813h-7zm0 0"/></clipPath><clipPath id="f"><path d="M168 477h6v3.32813h-6zm0 0"/></clipPath><clipPath id="g"><path d="M180 478h8v2.32813h-8zm0 0"/></clipPath><clipPath id="h"><path d="M193 478h8v2.32813h-8zm0 0"/></clipPath><clipPath id="i"><path d="M207 478h7v2.32813h-7zm0 0"/></clipPath><clipPath id="j"><path d="M220 478h8v2.32813h-8zm0 0"/></clipPath><clipPath id="k"><path d="M233 478h8v2.32813h-8zm0 0"/></clipPath><clipPath id="l"><path d="M246 479h9v1.32813h-9zm0 0"/></clipPath><clipPath id="m"><path d="M253 480h2v.32813h-2zm0 0"/></clipPath><clipPath id="n"><path d="M260 479h8v1.32813h-8zm0 0"/></clipPath><clipPath id="o"><path d="M267 479h3v1.32813h-3zm0 0"/></clipPath><clipPath id="p"><path d="M273 479h8v1.32813h-8zm0 0"/></clipPath><clipPath id="q"><path d="M280 479h3v1.32813h-3zm0 0"/></clipPath><clipPath id="r"><path d="M286 479h9v1.32813h-9zm0 0"/></clipPath><clipPath id="s"><path d="M293 479h3v1.32813h-3zm0 0"/></clipPath><clipPath id="t"><path d="M300 479h8v1.32813h-8zm0 0"/></clipPath><clipPath id="u"><path d="M307 479h2v1.32813h-2zm0 0"/></clipPath><clipPath id="v"><path d="M313 479h8v1.32813h-8zm0 0"/></clipPath><clipPath id="w"><path d="M320 479h3v1.32813h-3zm0 0"/></clipPath><clipPath id="x"><path d="M326 478h8v2.32813h-8zm0 0"/></clipPath><clipPath id="y"><path d="M332 479h2v1.32813h-2zm0 0"/></clipPath><clipPath id="z"><path d="M340 478h8v2.32813h-8zm0 0"/></clipPath><clipPath id="A"><path d="M345 479h3v1.32813h-3zm0 0"/></clipPath><clipPath id="B"><path d="M354 477h7v3.32813h-7zm0 0"/></clipPath><clipPath id="C"><path d="M367 478h7v2.32813h-7zm0 0"/></clipPath><clipPath id="D"><path d="M380 478h7v2.32813h-7zm0 0"/></clipPath><clipPath id="E"><path d="M393 478h8v2.32813h-8zm0 0"/></clipPath><clipPath id="F"><path d="M406 478h8v2.32813h-8zm0 0"/></clipPath><clipPath id="G"><path d="M420 477h7v3.32813h-7zm0 0"/></clipPath><clipPath id="H"><path d="M433 478h8v2.32813h-8zm0 0"/></clipPath><clipPath id="I"><path d="M447 478h7v2.32813h-7zm0 0"/></clipPath><clipPath id="J"><path d="M460 478h7v2.32813h-7zm0 0"/></clipPath><clipPath id="K"><path d="M144 464h3v6h-3zm0 0"/></clipPath><clipPath id="L"><path d="M144 450h3v7h-3zm0 0"/></clipPath><clipPath id="M"><path d="M144 438h4v4h-4zm0 0"/></clipPath><clipPath id="N"><path d="M144 425h4v4h-4zm0 0"/></clipPath><clipPath id="O"><path d="M144 410h3v7h-3zm0 0"/></clipPath><clipPath id="P"><path d="M144 400h4v1h-4zm0 0"/></clipPath><clipPath id="Q"><path d="M144 385h4v4h-4zm0 0"/></clipPath><clipPath id="R"><path d="M144 373h4v2h-4zm0 0"/></clipPath><clipPath id="S"><path d="M144 360h4v1h-4zm0 0"/></clipPath><clipPath id="T"><path d="M144 345h4v5h-4zm0 0"/></clipPath><clipPath id="U"><path d="M144 331h4v5h-4zm0 0"/></clipPath><clipPath id="V"><path d="M144 319h4v4h-4zm0 0"/></clipPath><clipPath id="W"><path d="M466 318h2v2h-2zm0 0"/></clipPath><g id="X" clip-path="url(#clip1)"><path fill="#fff" fill-opacity="0" fill-rule="evenodd" d="M0 0h1000v1000H0zm0 0"/><path fill="#d3d3d3" fill-opacity="0" fill-rule="evenodd" d="M162.15234 355.86719l-.23437.29297.0586.23437.11718.17188.17578.23437.29297.34766.11328.0586.11719-.17188.0586-.23438.17577-.17578.46485-.17578h.69922l.23437.29297.28906.8164.0586.17579.17578.23046.35156.23438.69922.69922.17188.17578.23437.34765.23438.41016.28906.58203.41015.46485.23047.23437.23438.17578.11719.23047.17578.29297.17187 1.16406v.23438l.0586.28906.05859.11719.11719.11719.34765.41015.11719.17188.17578.17578.17578.23437.11719.17188.17188.35156.05859.23438.23437.40625.23438-.0586-.17578.17578-.0586.92969h-.58203l-.23437-.11328-.34766.11328-.11719.11719-.05859.29297-.0586.17578-.11718.17187-.46484.29297-.0586.23438-.0586.11328v.64453l.0586.17187v.41016l.0586.0586v.40624l.05859.40625.11719.17579.05859.05859.23047.64062-.0586.29297v.69922l-.05859.58203v.23438l-.0586.23047-.05468.35156v1.92187l.05469.1172h.42578l-.36719.11718-.02344.35156.89063 1.16797 1.74219.53906 1.33984.35938v.53906l.08984.8086.53516.71484 1.51953.26953.89063-.08594.08984 1.16406.53516.1797 1.16015-.1797 2.05469-.98437 1.16016-.36328 1.8789-.17578 1.69531-.1797-.17968.71876-1.51563.08594-1.25.08984-.80469.26953-1.07421.8086.26953.71875.53515.89843-.17968.625-.26563.8086.26563 1.07812.625.89844.80468.17969 1.25-.1797-.26562.72267.09766.5039.05468.29297v.17188l.0586.29296v.40625l.17578.1172.35156.11718h.40625l.29297-.17578.11328-.11719.0586-.11719.11718-.23047.0586-.17578.35156-.46484.23047-.17578.17578-.0586.17578.0586.0586.17578.11718.98828.05469.46875.0586.17188.11718.23437.17578.0586.8164.05859h.28907l.11719.23437.05859.40625.0586.35156v1.10547l.11718.29297.11719.34766.28906.69922.17578.35156.58203.7539.35157.17579.17187.0586.46875.23437.64063.46484.34765.23438.29297.17578.29297.05468.23047.0625.8164.34766.29297.17578.11328.17188.35157.35156.11719.17578.52343.64063v.28906l.0586.35156v.34766l.05859.35156.0586.28906.11718.0586.17188.05859h.17578l.58203.23437.17578.1172.17578.28905.17578.23438.11328.23437.29297.23047.11719.11719v.41016l.0586.05468.28906.23438.23437.11719.0586.11718.11718.17188.0586.11719.23047.23437.05859.17578.23437.0586.1172.05859-.1172.11328-.05859.11719v.11719l-.11719.29296-.11719.28907v.58203l.17579.11719.11718.05859.0586.11719.11719.11719.11328.05859.17578.34765.0586.35157.05858.40625v.17578l-.05859.17578-.11719.69922v.17187l.1172.17579.29296.29296h.40625l.17578.1172.11719.17187.11719.29296v.23438h-.52735l-.23047-.23438h-.23437l-.17578.0586-.0586.69922.0586.34765.11719.17579.17578.41015.11718.23047.28907.46875.17578.05469h.52344l.23437.0586.75781.64062.0586.29296v.23438l.05859.0586.23047.34765v.35156l-.11719.17188v.29297l.29297.28906.29297.17578.17187.0586.29297.17577.29297.1172.58203.40624.28906.23438.29297.17578.21875.16015.01563.01172.23047.17579.64062.52343.17578.23438.1172.17578.17577.17578.11328.17188v.64062l.1172.17578.46874.11719.58203.11719.23438.05859.23047.11328.29297.11719.11328.0586.58593.35156.28907.17187.17578.0625.17578.05469.17578.0586.69922.35155.28906.17579.23438.05468.28906.17578.23437.1172.64063.40624.29297.11719.17187.0586.23438.05859.41015.05859.23047.0586.23438.11718.0586.17188-.41017.17578.46875.0586.0586.29296.11328.23438.17578.05468.23438.0586.17578.05859.40625.11719.64062.23437.11719.17188.0586.23437v.17578l-.0586.1172-.0586.40624.23438.23438.11719.05859.34766.11719.64062.23047.17578.11718.28906.1172.17578.17577.23438.46485.58203 1.10546.17578.17579.34766.17578.17578.11719.35156.11718 1.04688.52344.23437.0586.46485.11327.29297.0586.46484.17578.75781.58203.23438.23438.34765.46484.17578.17578.28907.23438.8164.69921.29297.17579.28906.28906.29297.17578.29297.28906.69531.64063.17578.17578.29297.23437.28907.23438.46875.28906.64062.58203.34766.23438.23437.29297.34766.34765.35156.46485.9336.99218.34765.40625.11719.17579.23437.05859.11328.11719.64454.17578.23047.11328.23437.0586.29297.17577.23047.1172.9336.69921.40624.40625.23438.17578.40625.17578.23437.11719.8164.34766.34766.23437.23438.11719.29297.28906.23047.11719.7578.35156.35157.17188.23047.05859.29297.11719.23437.0586.8711.17577h.8164l.46875.23047.17188.0586.875.69921.46484.1172.29297.05858.17578.0586.23047.0586.46875.05859.34766.05859.35156.0586.40625.05859h.29297l.17187.0586v.23046l.17578.17578h.29297l.34766.0586.35156.05859.69922.11719h.64063l.46484-.23438.29297-.17578.17187-.11719.41016-.17187.28906-.17578.9336-.46485.46875-.29297.52343-.29296.46485-.17188.46484-.17578 1.05078-.46485.28906-.11718.41016-.11719.28906-.11719.52735-.17578 1.51562-.69922.58203-.34765.28907-.0586.29297-.0586.34765-.11718.875-.23047.35156-.11719h.11329l.23437-.05859.875-.23437.23438-.0586h.8125l.35156-.0586.8164-.11718.17188-.0586.35156-.05468.29297-.0586.23047-.05859.8164-.17578.17579-.0586h.34765l.23438-.05859.46484-.11718.75781-.17188.23438-.0586h.34765l.41016-.11718.28906-.0586 1.28516-.05859h.28906l.41016-.0586.23047-.05858h.17578l.875-.1172h.40625l.41015-.11718h.34766l.35156-.11328.8711-.0586h1.75l1.04687.28907.41016.11719.28906.11718.35156.11719.28907.11719 1.05078.17187.28906.0586h.29297l.29297.05859.17187.0586.41016.05859.17187.0586.1172.05858h.11718l.11719.0586.35156.0586h.11328l.41016.0664 1.92187.39453 1.92578.39453 1.51953.44922 1.69532.71875 2.14453.80469 1.60547-.71875 1.42968-.80469 1.16016-1.07813 1.25-.44921 3.03516-.71875 1.875-.35938 2.14453-1.34765 2.23437-1.25391 2.5-1.25781 1.69531-.44922 1.78516-.17969 1.16016-.26953.625.53906 1.33984-.26953.71485-.98828.98437-1.34375.44531-.17969.80469-.35937 1.875-.53907 1.78516-.44921 1.25-.26954 1.16015-.08984 1.69922-.08984 1.96094-.26954 1.25-.08984h.53906l.625-.08984h.89063l2.14453-.17969 2.41015-.17969 2.58985-.08984 1.69531.17969 1.60938.08984 1.42968.35938 1.16016.71875 1.875.98828 1.16015 1.52734.26563.71484.6289.08985.35548.89844.53515.53906.53516 1.52734 1.07422.35938h.53515l-.80469.53515.08985 1.70703.71484 2.69532.89063.80468.89453.98829.71484 1.2578 1.78516.53907 1.51953-.17969.35547 1.34375 1.60937-.80469.98047-.53906.26953.26953.31641-.21484.21875-.14453.80078.44922.44922-.35938h.35547l.53515-.26953.53907-.71875.53515-.26953.625-.98828 1.16016.44922.83984.3711 1.39454.61718 1.6953-.17969h1.60548l1.78515.08985.17969-1.70704.53516-1.34375.80468.26954.4922.84765.40233.40625-.08984.53906v.35938l.71485.44922.71093-.26953h1.42969l.35938.98828.4453 1.25781.71485 1.34375 1.25.6289 1.69531.62891.71485-.17969.17969-.53906.98046-.08984.44922.35937.08594 1.25782-.26563.6289-.53515.17969v.53906l.71484.98438.26563.53906.98437.98828.80078 1.07813-.26562.35937-.08985.89844-.625 2.33203-.35546 2.0664-.08985 1.79298-.17969.71875-.08984.53906v1.4375l-.98047 1.88281-.35937 1.70703-.53516.89844-.80469 1.16797-.26562.53906 2.05469 1.2539.08593.35938-.35546.53906-.08985-.17968v.80859l.08985 1.4375-.44532.71484-1.07422.09375-.26562.71485.53515.89844.8047.71875 1.16015.80859 1.33984.26953.44531.35938-.35546.44921-1.78907-.08984-1.25-.44922-.71484-.71875-.625-.08984-.17578 3.58984-.1875 1.3086h89.35937V311.70313h-55.26953v49.08203l.76172.125 3.28906.54296 2.02344 2.83594v2.7539l2.35156.33204 2.34766.33203h4.05078l-1.3789 4.16016-2.02344.70703-2.02344.70312-.54297.34375-2.59375 1.6172-.1875.11718-2.02344-2.07813-.73046-2.74218-2.67188-2.07813-1.375-3.5-.0664-.08203-1.95704-2.67188 2.75-1.41796v-49.08204H294.42187v91.41407l.1172.03125.1328.01172.07422.07421.10547.04688.08985.0586.08593.05859.08985.0586.29687.29687.0586.08984.03125.11719.02734.11719.01563.13671-.03125.1172-.0586.08983-.0586.08594-.04296.10547-.04688.10156-.02734.1211v.14453l.17578.26953.14844.14844.07422.08594.07422.07421.04296.10547.0625.08985.0586.08593.04297.10547.0586.08985.04687.10156.04296.10547.0586.08594.11719.17968.07421.07422.0625.08594.0586.08984.04297.10547.0586.08985.05858.08593.0625.08985.0586.08984.04297.10156.11719.17969.07421.07422.0586.08594.07422.07421.08984.0586.10547.04687h.14844l.1328-.01562.13282.01562.10156-.04687.07422-.07422.04688-.10156-.01563-.13281v-.14844l-.04687-.10547-.02735-.11719-.04687-.10156-.02735-.1211-.04296-.10156-.0625-.08984-.04297-.10156-.04297-.10547-.03125-.11719-.01563-.13281-.01171-.13672.08593-.0586.0586-.08593.12109-.03125.04297.10547.01562.1328v.1172l.0586.10156.0586.08984.08983.0586.14844.14843.0586.08985.04296.10547-.01171.10156.08593.0586.10547.04687.08594.0586.08984.05858.07422.07422-.11719.02735-.10546.04687-.08594.0586-.07422.07421-.0586.08985-.0625.08594-.02734.12109-.04687.10156-.04297.10547-.03125.11719-.01172.13281-.01563.13281v.14844l.02735.11719.04687.10547.04297.10156.0586.08984.07421.07422.08985.0586.07422.07421.08984.0586.0586.08984.04296.10547.04688.10156.11719.03125.1328.01563h.14845l.11718-.03125.10547.04297.04297.10547.04688.10156.02734.1211L299.5 410l.02734.11719.03125.1211.02735.11718.10547.04297.10156.04687.13281-.01562.14844.14844.0625.08593.07422.07422.07031.07422.08984.0625.10547.04297.10156.04297.1172.03125.13671.01562.11719-.03125.07422-.07422.02734-.11718-.01172-.13282-.03125-.12109-.02734-.11719.04297-.10547h.11719l.08984.0625.11719.02735h.14843l.13282.01562h.14843l.13282.01563.1328-.01563h.14845l.1328-.01562.13282-.01172.13672.01172.11719-.02735.13281-.01562.1914-.0586-.05859.17579-.01562.1328-.02735.1211-.01562.13281-.0586.08594-.1328.01563-.10548.04687-.10546.04297-.1172.03125-.11718.02735-.26563.03125h-.14843l-.13281.01562-.07422.07422.05859.08594.14844.14843.11719.1797.07421.0703.08985.0625.08984.0586.08594.0586.08984.05858.10156.04297.10547.0625.10547.04297.08594.0586.10547.04687.10156.04297.17969.11719.0586.08984-.04298.10156-.04687.10547.01562.13281.22266.22266.0586.08985.04296.10156.03125.1211.04297.10155.01563.13282.03125.11718.01171.13672.03125.11719.14844.14844.10156.04297.10547.04296.1172.03125.1328.01563.13672.01563h.11719l.11719-.03125.08984-.0586.04297-.10547.04688-.10156.04296-.10547.03125-.11719.01172-.1328v-.14845l-.01172-.1328-.01562-.13282-.03125-.11719-.04297-.10547-.04688-.10547-.04296-.10156-.04297-.10547-.01563-.13281.01563-.13281.02734-.11719.03125-.11719.02735-.1211.04687-.10155.08984-.0586.08594-.0625.07422-.07422.08984-.05859.22266-.22266.0586-.08593.07421-.07422.11719-.17969.0586-.08594v-.14844l-.07423-.07421-.10156-.04688-.10547-.04297-.10156-.04297-.0586-.08984-.04687-.10547-.02734-.11719.08984-.05859.11719-.03125.10156-.04297.17969-.11719.14844-.14843.01172-.13282-.01172-.10546-.08985-.0586-.1328.01563h-.14845l-.1328.01562-.13282-.01562-.1211-.03125-.08593-.0586-.07422-.07422-.0586-.08984-.0625-.08594-.11718-.17969-.0586-.08593.03125-.1211.08594-.05859.1211-.03125.05859-.08594v-.1211l-.03125-.11718-.0586-.08984-.05859-.08594-.04687-.10547-.02735-.11719-.01562-.1328.0586-.08985.07421-.07422.08984-.0586.1172-.17968.07421-.07422.0586-.08594.14843-.14844.1211-.03125.1328-.01562.13282.01562.07422.07422.04297.10547.01562.13281-.03125.1172-.11719.03124-.1328.01172-.14844.14844-.04297.10547-.04688.10156-.02734.1211-.03125.11718v.14844l.03125.11719.04297.10546.05859.08985.07422.07031.07422.07422.11719.03125.12109.02734.11719-.02734.1328-.01563h.1172l.08984.0586.07422.07422.04687.10546.0586.08594.10156.04688.13281.01562.10547.04297.08594.0586-.01172.10546-.07422.07422-.17969.11719-.05859.08984-.08984.0586-.07032.07422-.07421.07421-.0625.08985-.02735.11719-.01562.1328.01562.13282-.01562.13281v.14844l.01562.13281.02735.1172.03125.12108.07421.07422.08985.0586.08594.0586.08984.05858.11719.03125v.08594l-.10157.04688-.08984.0586-.26563.03124-.11718.02735h-.14844l-.10547.04296-.10156.04688-.0586.08984-.0625.23438-.01171.13281-.03125.1211-.01563.1328v.29298l-.01172.1328.01172.13673.01563.1328.1328.01563.13282.01172.1211.03125.08593.0586.07422.07421.04688.10547.04296.10157.01563.1328v.44532l-.01563.13281v.44532l.03125.26562.02735.11719.01562.13281.03125.11719.08594.21094.03125.26562v.14844l-.03125.11719-.02734.11718-.03125.1211-.02735.11719-.03125.11718-.03125.1211-.01171.1328-.01563.13282.08984.0586.1172-.03125.10155.01562.04688.10547-.03125.26562v.44141l-.04297.10547-.04688.10547-.04296.10156-.04297.10547-.0586.08594-.03125.12109-.04296.11719-.03125.11719-.01563.1328.01563.13282.05859.08984.10547.04688.08594.0586.05859.08593-.01172.13672-.03125.11719-.04297.10156v.44531l-.01562.13281v.14844l-.03125.11719-.04297.10547-.02735.11719-.04687.10546-.04297.10157-.03125.12109-.02734.11719-.03125.13281-.03125.11719-.02735.11719-.04297.10546-.03125.1172-.03125.12108-.01171.13282-.01563.13281v.29688l.02734.11718v.14844l.04688.39844.02734.11719.0586.08984.12109.03125h.14844l.13281-.01563.0586.08985v.11719l-.0586.08984-.08984.0586-.10157.04296-.10546.04688-.08985.05859-.08594.0586-.13671.01562-.1172-.03125-.1328-.01563-.10157.04688-.0625.08594-.01172.13671-.01562.13282-.03125.11719-.02735.11718-.01562.13281-.03125.1211v.29687l.01563.13282.03125.11718v.14844l.01171.13281v.14844l-.02734.11719-.04688.10156-.02734.1211-.03125.11718-.0586.08985-.07421.07421-.10156.04297-.10547.04688-.11719.02734-.1211.03125-.10156-.04687.0586-.08594.10547-.04688.02734-.11718.03125-.11719.02734-.1211.03125-.11718v-.14844l.01563-.13281-.03125-.11719-.04297-.10547-.10547.01563-.07422.07422-.10156.04296-.08984.0625-.07422.07422-.04297.10157-.01563.1328-.03125.1172L304.25 426l-.03125.11719-.02734.11719-.03125.12109-.02735.11719-.03125.11718-.04297.10547-.08984.0586h-.08984l-.1172-.03125-.03124-.08594.01562-.13672-.03125-.11719v-.14844l-.01171-.1328v-.14844l-.0625-.23438-.02735-.1211-.04297-.10156-.04687-.10546-.0586-.08594-.05859-.08985-.04297-.10546-.0625-.08594-.14844-.14844-.0703-.07422-.10548-.04687-.10547-.04297-.10156-.04297-.29687-.29688-.08985-.07421-.08594-.0586-.10546-.04297-.08985-.0625-.08594-.0586-.10546-.04296-.08985-.0586-.08594-.0625-.07421-.0703-.10547-.04688-.08594-.0586-.10547-.04296-.08984-.0625-.10156-.04297-.10547-.04297-.08594-.0586-.10547-.04687-.10547-.04297-.10156-.04687-.08985-.0586-.10156-.04297-.10547-.04296-.08984-.0625-.11719-.02735-.13281-.01562-.13281.01562H299.75l-.13281.01563-.11719-.03125-.08984-.0586-.07422-.07422-.08985-.05859-.10156-.04688h-.14844l-.12109-.02734-.10156-.04297-.07422-.07422-.11719-.17968-.08984-.0586-.10156-.04297-.08985-.0625-.10547-.04296-.08984-.0586-.08594-.0586-.10547-.04687-.0586-.08594-.05858-.08984-.04297-.10547-.04688-.10156-.07422-.07422-.08594-.0586-.07421-.07421-.08985-.0586-.22265-.22265-.04297-.10547-.03125-.26563.10547-.04296h.14453l.10547.04296.07421.07422.08985.0586.08594.0586.10546.04687.08985.05859.14844.14844.0703.07422.14845.14843.0625.08594.07421.07422.08594.0586.07422.07421.08985.0625.08984.0586.08594.05859.26953.17578.10156.04688.10547.04296.10156.04297.04688-.07421.05859-.08594.07422-.07422.07031-.07422.10547.04297.07422.07422.0586.08984.04296.10156.04688.10547.04296.10547.1211.02735.11719-.02735.07421-.08984.04297-.10547.0586-.08985.07422-.07421.10546-.04297.1172-.02735.1328.01172.08985.0586.14844.14843.05859.08985.04297.10547.04687.10156.04297.10547.04297.10156.10547.04688.10547.04296.13281.01563.08594-.0586.0586-.08984.07421-.07422.10547-.04297.11719.02735.10547.04687.10156.04297.10547.04297.10156.04688.17969.11718v.11719l-.01563.13281.01563.13281.01562.13672.0586.08594.10156.04688.1211.02734.11718.03125h.14844l.11719-.03125.05859-.08984.17969-.1172.05859-.08983.07422-.07422.0586-.08594.11718-.17969.17969-.11719.11719.03125.08984.0586.04297.07422-.01563.1328v.1172l.08985.05859h.14843l.13282-.01563.1328-.01171.26563-.03125.10547-.04297.11719-.03125.1211-.02735.07421-.07421.07031-.07422.0625-.08985-.01562-.10547-.04688-.10156-.10156-.04297-.10547-.01562-.11718.02734-.26563.03125h-.14844l-.07421-.07422-.08985-.0586-.11719-.03124-.11718-.02735-.13282-.01562h-.14843l-.13282.01563h-.29687l-.10547-.04688-.14844-.14844-.04297-.10156-.05859-.08984.22266-.22266.08593-.0586.10547-.04296.11719-.03125.13281-.01563.13281.01563.13672.01562.10157.04297.1328-.01172.08985-.0625.10156-.04297.0625-.08984-.04687-.10156-.08984-.0586-.1172-.03125-.10155-.04296-.0586-.08985-.0625-.08984v-.11719l.01563-.13281.10547-.04688.07421-.07031v-.1211l-.08984-.05859-.03125-.11719.08985-.05859.07421-.07422.04297-.10547.0586-.08984.04687-.10156.01563-.13281v-.14844l-.04688-.10547-.04297-.10156-.08984-.0586-.13281-.01562-.10157-.04297-.13671-.01563-.1172-.03125h-.4453l-.13282-.01562-.13281-.01172-.13281-.01563-.11719-.03125h-.14844l-.13281-.01562-.13281-.01172-.26563-.03125-.1211-.04297-.08593-.0586-.07422-.07421v-.14844l.01172-.13281.10547-.04688.10156-.04296.13281-.01563h.15235l.13281-.01562h.29297l.1211.03125.10156.04296.08984.0586.23438.0625.12109-.04688.08984-.05859.10156-.04297.13282-.01562.10547.04296.10156.04688.13281.01172.1211-.02735h.14453l.12109-.03125.11719-.02734.10547-.04687.07421-.07422.08594-.0586.14844-.14843.0586-.08594.04687-.10547.02734-.11719.01563-.10547-.10156-.04296-.08985-.0586-.11719-.03125-.10546-.04297-.08985-.0625-.07422-.08594-.07422-.07421-.10156-.04297-.10547-.04688-.10156-.04297-.0586-.08984-.04687-.10156-.08594-.21094-.0625-.08594-.05859-.08984-.07422-.07422-.08594-.0586h-.26953l-.11719.03126-.08984.05859-.10156.04297-.13281.01562-.10547-.01562-.02735-.11719-.0625-.08984-.11718-.03125-.10157-.04297-.14843-.14844-.03125-.11719-.01563-.10546.07422-.07422.17969-.1172.11719-.02733.11718-.03125.13672.01562.10156.04297.10547.04297.10156.04687.10547.04297.1172.03125.1328.01563.1172.02734.1328.01563.10547-.01563.08985-.0586-.07422-.07421-.10547-.04297-.07422-.07422-.07422-.08984-.14844-.14844-.08593-.0586-.08985-.05859-.07422-.07422-.08984-.0586-.10156-.04687-.1211-.02734-.10156-.04688-.10547-.04296-.11719-.03125-.10156-.04297-.1211-.03125h-.14843l-.11719.03125-.10546.04297-.08594.0625-.17969.11718-.08594.0586-.08984.0586-.10547.04687-.08594.05859-.10547.04297-.10156.04297-.10547.04687-.07422.07422-.05859.08985-.0586.08593-.04687.10547-.0586.08594-.07421.07422-.13281-.01172-.1172-.03125h-.11718l-.07422.07422-.08984.0586-.07422.07421-.08984.0586-.08594.05859-.10547.04687-.10156.04297-.13672.01563-.10156-.04297-.14844-.14844-.10547-.04688h-.08594l-.10547.04688-.10156.04297-.1211.03125-.11718-.03125-.07422-.07422v-.11719l.03125-.1211.07422-.0703.0586-.08985.07421-.07422.11719-.03125.10547-.04296h.29297l.13281-.01563.13672-.01563.10156-.04296.08985-.0586.10156-.04687.08984-.0586.13281-.01171.08985.05859.13281.01172.08984-.0586.08594-.05859.10547-.04297.08984-.0586.08594-.0625.08985-.05859.14843-.14843.0586-.08594.05859-.08985.10547-.04296.13281-.01563.11719.02735.1211.03125.05859-.0586.05859-.08984.03125-.26563.02734-.11719.10547.01172.13281.01563.10157-.04297.08984-.0586.0586-.08984.07421-.07422.0586-.08984.04687-.10156.01172-.13281-.01172-.13282-.04687-.10547-.14844-.14843-.0586-.08985-.05859-.08594-.04297-.10546v-.44532l.01563-.1328v-.14845l.01172-.1328-.0586-.0586-.08984.0586-.10156-.04298-.17969-.11719-.08594-.05859-.0625-.08984-.0586-.08985-.07421-.07421-.08594-.0586-.1211.03125-.10155.01172-.10547.04688-.08594.05859-.10547.04297-.14844.14844-.08984.05859-.08594.0586-.08984.0625-.10547.04296-.13281.01563v-.1211l.10547-.04297.11718-.03125.07422-.0703.04297-.10548v-.14844l-.02734-.11718-.14844-.14844-.13281-.01563h-.14844l-.11719.03125-.10547.04297-.10156.04297-.08984.0625-.11719.02735-.07422-.07422.01172-.13281-.04297-.10157-.04297-.10547-.08984-.05859-.11719.02734-.1211.03125-.11718.03125-.10156.04297-.1211.03125-.10156.04297-.10547.04297-.08984.0586-.10156.01562v-.11719l.01562-.13281-.0586-.08985-.07421.04297-.14844.14844-.0586.08985-.07421.07421-.04688.10547-.04296.10156-.07422.07422-.0586.08985-.07422.07422-.05859.08593-.07422.07422-.08984.0625-.07422.07031-.07422.07422-.10156.01563-.13281.01562-.10547-.04296v-.1211l.14843-.14844.04297-.10156.0586-.08984.04687-.10156.04297-.10547.0586-.08985.03124-.11719.04297-.10156.03125-.1211.02735-.11718.04687-.10547.04297-.10156.04297-.10547.07422-.07031.08984-.0625.08985-.0586.10156-.04296h.29687l.26563-.03125.10547-.04297-.07422-.07422-.11719-.03125-.10547-.04297-.08984-.0586-.10156-.04687-.08985-.0586-.10156-.04296-.10547-.04297-.08984-.0625-.08594-.0586-.10547-.04296-.10156-.04297-.1211-.03125-.11718-.03125-.10157-.04297L297.5 410.25l-.10156-.04297-.08985-.0586-.04296-.10546-.01563-.13281.10156-.04297.13281-.01563.13672.01563.13282-.01563.10156-.04297.0586-.08984.01562-.10547-.08985-.0586-.07421-.07421-.10157-.04297-.08984-.0586-.14844-.14843-.04297-.10547-.01562-.13281v-.29297l-.0586-.08985-.08984-.05859-.07422-.07422-.04297-.10547-.03125-.11718-.0586-.08985-.07421-.07422-.11719-.02734-.07422-.07422-.08984-.0586-.08984-.0625-.08594-.05859-.07422-.07421-.0586-.08594-.04687-.10547-.08594-.0586-.14843-.14843-.19532-.0586-.1328.01563-.10157.04297-.07422.07422-.04688.10156-.04296.10547-.0586.08984-.0586.08594-.29687.29687-.08984.0586h-.08594l-.0625-.08594-.04297-.10547.03125-.11719.0586-.08984.02734-.11719-.01172-.13281-.08984-.0625-.10547.04688-.11719.02734-.11719.03125-.26953.17578-.10156.04688-.11719.02734-.10546.04687-.08985.0586-.10156.04297-.0586-.08594-.04687-.10547.01563-.13281.04687-.10547.07031-.07422.07422-.07031.0586-.08985v-.14843l-.04297-.10547h-.23829l-.10156.04687-.03125.11719-.02734.11719-.03125.1211-.07422.04296-.13281.01563-.07422-.04688-.04297-.10156-.04297-.10547-.04687-.10156-.04297-.10547-.1211.03125-.10156.04297-.13281.01562-.11719.03125-.10547.04297-.08984.0586-.10156.04687-.1211.02734-.13281.01563-.10156-.04297-.0586-.08985-.04687-.10546-.04297-.10157-.04297-.10546v-.1172l.0586-.08984.08593-.05859.17969-.11719.10156-.04687.10547-.04297.10547-.0586.10156-.04296.08985-.0625.10156-.04297.10547-.0586.10156-.04687.08984-.0586.10547-.04296.10156-.04297.08985-.0625.10156-.04297.13672-.01563.11719.03125.10156.04297.1211.03125.10156.04297.10546.04688.10157.04296.10547.04297.10156.04688.10547.04297.10156.04297.10547.04687.08594.0586.10546.04296.1172.03125.10546.04297.10156.04688.08985.0586.10547.04296.10156.04297.10547.04687.11719.02735.10156.04687.1211.02735h.14843l.08594-.0586.01562-.10156.0586-.08984-.02735-.1172-.07422-.07421-.11719-.17969-.07421-.07422-.08985-.07421-.17969-.1172-.08593-.05859-.10547-.04296-.10156-.04688-.26954-.17578-.05859-.08985-.07422-.07421-.0586-.08985-.04296-.10156-.03125-.11719-.01563-.13672v-.5625l-.01171-.1328-.01563-.13282-.03125-.11719-.01562-.13281-.01172-.13281-.03125-.1211-.22266-.22265-.0586-.08594-.01562-.10547.03125-.11719.13281-.01562v-91.41406H172.9922v1.45312l-.0586.23438-.35156 1.05078-.17187.52343-.1172.34766-.17577.41016-.11719.17187-.23438.29297-.23046.0586h-.35157l-.11718.05859-.23047.40625v.29297l.11719.17578.23046.23047.1172.23437.64062.75781.29297.46485.17578.23437.23047.35156.23437.34766.64063.8164.17578.46485.17187.41016.11719.69531.17578.46875.11719 1.39844.0586.46484v.875l.11718 1.04688v4.78125l-.0586.46484-.35156 1.28125-.17578.52344-.11328.41015-.35156.9297L172.93359 336l-.23437.58203-.11719.17578-.17187.34766-.17578.40625-.35157.8164-.0586.29297-.11327.29297-.11719.28906-.0586.17579-.11718.875-.0586.40625-.05859.11718-.0586.17579-.05859.17187-.23047.52734-.11718.17188v.23437l-.11719.23438-.0586.17187-.17577.58594v.28906l-.0586.17579v.29296l-.0586.11329-.05859.52734v.17187l-.05468.23438v2.6211l-.17578.8164-.1172.17578-.17577.23438-.1172.17187-.11327.23438-.58594.93359-.23047.28906-.29297.46485-.17578.23437-.28906.35156-.35156.69922-.11328.23047-.17579.41016-.17578.23046-.40625.52735-.8164.69922-.29297.17187-.28906.23438-.17579.11719-.17578.17578-.52344.40625-.52734.17578-.17187.17578-.23438.05469-.64062.17578h-.75782m12.21094 31.02344l-1.07422.44921.35938.89454 1.25-.71485.44531-.53906-.98047-.08985"/><path fill="#d3d3d3" fill-opacity="0" fill-rule="evenodd" d="M201.50781 416.59766h-.89453l.44922.6289.98047.35938.80469-.08985.4453-.98828-.17577.08985-.71485-.35547-.89453.35547m154.6211 59.0703l-.0586-.52343v-.29297l.11328-.29297.0586-.23046.46875-.46875h.11328l.11719-.11329.11718-.05859h.17579l.23437-.0586h.34766l.23437.0586.11719.0586.23047.17187.0586.17578.11718.58203v.29297l-.11719.17578-.17187.28906-.17579.17579-.52734.52343-.23047.23438-.11719.0586h-.17578l-.11718-.0586-.40625-.29297-.17579-.11719-.11718-.0586-.0586-.11327-.05468-.1172m6.64062-10.95702l-.0586-.17188v-1.10937l.0586-.17188.17578-.0586.17188-.05858h.17578l.23437-.0586.1172.0586.05858.69921-.05859.17188-.11719.17578-.11718.0586-.23438.52343-.11328.0586h-.23438l-.05859-.1172m9.61328-14.39062l-.11719-.17578v-.69922l.29297-.875.1172-.17187.17577-.35156.11328-.23047.1172-.29297.35155-.75781.1172-.23047.17187-.23438h.17578l.11719-.0586h.64062l.11719.0586.23437.23438.17188.11328.35156.29297.11719.11718.11328.17579v.11328l.11719.05859.11718.11719v.69922l-.05859.17578v.23047l-.0586.17578-.34765 1.05078-.11719.23047-.11719.23437-.11718.0586-.23047.23437-.64063.28906h-.875l-.41015-.11718-.64063-.46485"/><path fill="none" stroke="#bebebe" stroke-linecap="round" stroke-linejoin="round" stroke-miterlimit="10" stroke-width=".5" d="M467.95703 311.69531H144.02734v168.625h323.9297v-168.625"/><g clip-path="url(#a)"><path fill="#fff" fill-opacity="0" fill-rule="evenodd" d="M144 475.89063v4.4375h.0039H144V311.67188h.0039H144v164.21875"/></g><g clip-path="url(#b)"><path fill="#fff" fill-opacity="0" fill-rule="evenodd" d="M144.0039 480.32813V311.67188h17.75v70.7539l-.4414.25781-3.9961 1.50391-3.2578 2.9375.72656 4.4375 2.53125 2.7539 4.4375 1.48829 4.4375-3.90235.17187-.33984 1.7539-4.4375-1.92577-2.0586-4.16016-2.3828-.27734-.25782v-70.7539h26.6289v45.54296l-4.4375 1.00391-3.3086 2.27344-1.1289 1.84765-3.49219 2.59375.1172 4.4375 3.375 3.6211.7539.8164 3.6836 3.47266 4.12109-3.47266.05468-4.4375.26172-3.40625 2.82031 3.40625-1.84375 4.4375-.69921 4.4375.86718 4.4375 3.29297 2.82813 2.80078 1.61328 1.64063 2.20703.42969 2.23047-.4297.6211L193.77345 396l-.95313.3164-.5625-.3164-3.875-4.0039-1.10937-.4336-3.32813-3.44922-3.14453 3.44922L179.6836 396l-.17578.27344-4.4414 1.8125-4.4375 1.3711-4.4375-2.10157-2.64063 3.08203 2.64063 2.11719 4.4375-1.14453 2.33203 3.46484 2.10547 2.47266.5703 1.96875 1.44923 4.4375 2.42187 1.82812 4.4375.97266 3.67188 1.63672-1.51953 4.4375 2.28515 3.30078.51953 1.14062 3.91797 3.19922 4.4414.46485 4.4375.42578 2.89845.34765 1.53906 1.32031 4.4375 1.45313 4.4414.64063 4.4375-1.79688 2.26563-1.61719 2.17188-2.91015 2.78125-1.52735 1.65625-.25 4.4375-.34765 4.4414-1.12891 1.875-2.71484-1.875-2.96485-.17969-1.47265-3.37109-4.4375-.89063-.89844-4.4375-3.23438-.86328-.30468-3.57422-3.625-1.23828-.81641-3.19922-2.375-4.4375-1.875-1.98046-.1875-2.46094-3.33984L209.87109 396l-2.05859-4.4375-1.67578-1.78516-4.36719-2.65234 1.83594-4.4414 2.07031-4.4375-3.97656-3.55079-4.4375-.6914-1.55469-.19532-1.51172-4.4375-1.375-1.53125-3.47265-2.90625.74218-4.4414-1.70703-3.27735v-45.54296h35.50781v82.54296l-4.4375 1.51563-1.10546.26953 1.10547.26172 4.4375 1.77344L226.5703 396l-2.67969-1.78516v-82.54296h8.875v76.54296l-3.72656 3.34766 3.72656 3.4414 4.13282-3.4414-4.13281-3.34766v-76.54296h17.7539v69.39843l-1.47266 1.61328 1.47266 1.48829v31.51171l-1.48437 2.50782 1.48437 1.11328 4.4375.27344 2.35156-1.38672-2.35156-1.625-4.4375-.88282v-31.51171l2.76172-1.48829-2.76172-1.61328v-69.39844h22.1914V355.625l-.39062.42969.39063.57422 1.39062-.57422-1.39062-.42969v-43.95313h13.3164v33.39454l-3.7539 2.11328-.6836.26562-4.15625 4.17188 4.15625 3.07422 3.88282 1.36328.55468.46094.51172-.46094 3.1211-4.4375-1.91016-4.4375-1.72266-2.11328v-33.39454h8.875v60.21094l-1.96093 1.92578 1.96093.6797 1.10938-.6797-1.10938-1.92578v-60.21094h13.31641v32.01563l-3.91406 3.49219-.52344 2.28515-1.08984 2.15235 1.08984 1.70703 4.4375-.1211 2.27344-1.58593 2.16406-2.71094 4.4414-1.03906 2.625-.6875-2.625-1.58203-4.4414.11718-4.4375-2.02734v-32.01563h17.7539v19.56641l-1.6328 2.625 1.6328 1.5039 3.67579-1.5039-3.67578-2.625v-19.5664h17.7539v13.98046l-4.4375 2.60547-1.6914 1.16797 1.6914 1.26563v93.72656l-2.86719 2.65234 2.8672 2.63281 2.78906-2.6328-2.78907-2.65235V330.6914l4.29297 3.17187.14453.27735.46485-.27735 3.02343-4.4375-3.48828-3.77344v-13.98046h26.6289V436.4453l-3.84374 3.9375-.59375.57031-4.4375.48829-4.4375-.03516-4.4414 1.54688-2.5-2.57032-1.9375-1.82422-1.83204 1.82422.84766 4.4375-3.45313.48438-4.1289-.48438-.3086-.09765-.14453.09765-4.29687.80469-4.4375 1.1289-2.80079 2.50782-1.63671 1.67578-3.32813 2.76172 3.32813 3.69922.22656.73828 4.21094 3.42187 4.4375.39844 1.45703.61719 2.98437 2.48828 4.4375 1.08594 4.4375.13281 4.4375.39453 4.4414.10547 4.4375-.1875 1.19532.42188 3.24219 2.6914 4.4375-.6289 4.4375-1.77735 4.4414.67188 2.85547-.95704 1.26172-4.4414-.14453-4.4375.46485-1.17578 3.4375-3.26172-3.4375-3.96875-.44532-.46875-3.99219-3.76953-.16015-.67188-4.28125-4.3125-.23047-.125-4.20703-3.9375V311.67187h22.1914v131.58985l-2.0625 1.5586 2.0625 3.10546 1.53907-3.10547-1.53906-1.5586V311.67189h4.4375v82.59765L395.2578 396l1.72656 1.73047L399.54298 396l-2.5586-1.73047v-82.59765h4.44141v112.99218l-4.4414 1.32422-1.12891 1.08203 1.1289 3.53125.10938.90625 1.54688 4.4375.65625 4.4375-.85157 4.4375.39453 4.4414 2.58594 2.69923 1.91406-2.69922 2.37891-4.4414.14453-.0625 4.4375-1.66016 4.4375.375 3.09375 1.34765 1.34766 1.19531 1.85547-1.1953-1.85547-1.64844-1.08203-2.78907-3.35938-3.29687-.4414-1.14063-3.9961-3.95703-.46094-.48047-3.97656-3.84765-2.20312-.58985-2.23438-2.40625V311.67187h22.1914v80.03516L419.21876 396l2.50781 4.4375-.20312 4.4375-2.34375 1.52734-3.46094-1.52734 1.01172-4.4375L418.83984 396l-4.10156-2.73047L411.91797 396l.73828 4.4375.86328 4.4375-.3711 4.4414 1.58985 1.64844 2.82031 2.78907-.92187 4.4375 2.54297 2.60546 1.89062 1.83204 2.54688 2.33203 3.3164-2.33203 1.1211-.27344 4.4375-.5039 4.4375-1.11329 2.67187-2.54687 1.76953-1.02735 3.57422-3.41015.86328-1.91016 2.17579-2.52734-2.17579-2.23438-1.01562-2.20703-.16016-4.4375-3.26172-3.57422-4.4414 2.85547-.71875.71875-3.71875 2.39844-4.4375-.53906-2.58985-1.85938L427.92578 396l-4.3086-4.29297v-80.03515h26.62891v113.23046l-2.23046 2.16797 2.23046 3.4375 2.22266-3.4375-2.22266-2.16797V311.67188h17.75v168.65625H144.00391"/></g><path fill="#50fcfc" fill-rule="evenodd" d="M154.78516 391.5625l-.72657-4.4375 3.25782-2.9375 3.99609-1.5039.4414-.25782.27735.25781 4.16016 2.38282 1.92578 2.05859-1.7539 4.4375-.17188.33984-4.4375 3.90235-4.4375-1.48828-2.53125-2.75391m11.40625 10.99219l-2.64063-2.11719 2.64063-3.08203 4.4375 2.10156 4.4375-1.3711 4.4414-1.8125.17578-.27343 1.1172-4.4375 3.14452-3.44922 3.32813 3.44922 1.10937.4336 3.875 4.0039.5625.3164.95313-.3164 3.48828-3.8164.42969-.6211-.4297-2.23047-1.64062-2.20703-2.80078-1.61328-3.29297-2.82813-.86718-4.4375.69922-4.4375 1.84375-4.4375-2.82032-3.40625-.26172 3.40625-.05468 4.4375-4.1211 3.47266-3.6836-3.47266-.7539-.8164-3.375-3.6211-.11719-4.4375 3.4922-2.59375 1.1289-1.84765 3.3086-2.27344v5.40625l-.91798 1.3086-3.51953 1.78906-1.76562 2.64843 1.76562 1.89454 2.35547 2.54296 2.08203 1.96485 2.33203-1.96485 1.22266-4.4375-2.7461-4.4375-.80859-1.30859v-5.40625l4.4375-1.0039 1.70703 3.27734-.74218 4.4414 3.47265 2.90625v6.26563l-3.49219 4.14062 3.16797 4.4375.32422.28125 4.4414 2.82813 3.1875-3.10938 1.25-1.16015v6.875l-2.84765 3.16406-1.58984 2.28125L195.28906 396l-2.46875.82031L191.36328 396l-2.98047-3.07813-3.47656-1.35937-.96094-.9961-.91015.9961L181.40625 396l-1.89844 2.9336-2.47265 1.5039-.97657 4.4375 1.42578 4.4414 2.02344 2.98048 4.34766 1.45703.08984.03125 4.4375.23046 2.125 4.17579.13672 4.4375.70703 4.4414 1.46875 1.19922 4.4414 1.10547 4.4375.79688 4.4375.8203 4.4375.2461 1.98048.26953 2.46094 1.28125 1.99609-1.28125 2.375-4.4375.0664-.40625 4.4375-2.04687 4.4375-.89844 4.4375-.07422 1.44922-1.01562 1.41407-4.4375-2.86328-3.09766-1.19532-1.33984-3.24219-2.91407-4.28515-1.52343-.15234-.15625-4.4375-4.03125-.32032-.25391-4.11719-3.54688-4.4414-.64062-1.21094-.25-3.22656-3.57813-4.4375-.4375-1.1211-.42187 1.1211-.67188 3.52734-3.76562-3.52734-3.16406v-6.875l2.45703-3.27735-2.45703-2.1953-4.4375-1.46485-4.4414-.48047v-6.26563l1.375 1.53125 1.51171 4.4375 1.55469.19532 4.4375.6914 3.97656 3.55078-2.07031 4.4375-1.83594 4.44141 4.36719 2.65234 1.67578 1.78516L209.8711 396l.70312 1.09766 2.46094 3.33984 1.98047.1875 4.4375 1.875 3.19921 2.375 1.23828.8164 3.57422 3.625.86328.3047 4.4375 3.23437.89063.89844 3.3711 4.4375.17968 1.47265 1.875 2.96485-1.875 2.71484-4.4414 1.1289-4.4375.34766-1.65625.25-2.78125 1.52735-2.17188 2.91015-2.26563 1.61719-4.4375 1.79688-4.4414-.64063-4.4375-1.45313-1.53906-1.3203-2.89844-.34766-4.4375-.42579-4.4414-.46484-3.91798-3.19922-.51953-1.14062-2.28515-3.30078 1.51953-4.4375-3.67188-1.63672-4.4375-.97266-2.42187-1.82812-1.44922-4.4375-.57031-1.96875-2.10547-2.47266-2.33203-3.46484-4.4375 1.14453"/><path fill="#00e8fc" fill-rule="evenodd" d="M177.48438 409.3164l-1.42579-4.4414.97657-4.4375 2.47265-1.5039L181.40625 396l1.6289-4.4375.91016-.9961.96094.9961 3.47656 1.35938v1.54296L184.40625 396l-.46094.79688-1.96875 3.64062-2.46875 3.09375-.77344 1.34375.77344 2.02344 3.04297 2.41797 1.39453.60937 4.4375.58985 4.0625 3.23828.375.76953.4961 3.66797.8789 4.4375 2.94531 4.4414.1211.03906 4.4375 1.41407 4.4375 1.41015 4.4375.37891 4.4414.58203 3.4961-3.82422.67187-4.4414.26953-.32422 4.4375-.26953 4.4375-.84375 4.4375-2.00391.53125-.9961-.53125-.57421-3.44921-3.86328-.98828-.88672-4.4375-2.97266-1.1172-.57812-3.3203-3.11329-1.6836-1.32812-2.7539-2.375-4.44141-1.20313-4.21875-.85937-.21875-.24219-4.4375-2.17187-4.4375-1.02735-4.4414.66016L189.87108 396l-1.48828-1.53516v-1.54296L191.36328 396l1.45703.82031L195.28906 396l1.97266-2.15625 1.58984-2.28125 2.84766-3.16406v2.14062l-.92188 1.02344.92188 1.21484 1.14062-1.21484-1.14062-1.02344v-2.14062l3.52734 3.16406-3.52734 3.76563-1.1211.67187 1.1211.42188 4.4375.4375 3.22656 3.57812 1.21094.25 4.4414.64063 4.1172 3.54687.3203.2539 4.4375 4.03126.15235.15625 4.28516 1.52343 3.24218 2.91407 1.19531 1.33984 2.86329 3.09766-1.41407 4.4375-1.44922 1.01562-4.4375.07422-4.4375.89844-4.4375 2.04687-.0664.40625-2.375 4.4375-1.9961 1.28125-2.46093-1.28125-1.98047-.26953-4.4375-.2461-4.4375-.8203-4.4375-.79688-4.4414-1.10547-1.46876-1.19922-.70703-4.4414-.13672-4.4375-2.125-4.17579-4.4375-.23046-.08984-.03125-4.34766-1.45704-2.02344-2.98046m2.02344-38.05079l-1.76562-1.89453 1.76562-2.64843 3.51953-1.78907.91797-1.30859v2.48828l-3.89453 3.25781 3.89453 4.07032 2.51953-4.07032-2.51953-3.2578V363.625l.8086 1.3086 2.74609 4.4375-1.22266 4.4375-2.33203 1.96484-2.08203-1.96485-2.35547-2.54296"/><path fill="#00d4fc" fill-rule="evenodd" d="M179.50781 406.89844l-.77344-2.02344.77344-1.34375 2.46875-3.09375 1.96875-3.64063.46094-.79687 3.97656-1.53516v1.625l-1.41015 4.34766-1.26172 4.4375 2.67187 1.59375 1.82813 2.84766 2.60937 2.22656.44922 2.21094 1.21094 4.4375 1.48047 4.4375 1.30078 1.90234 4.4375 2.38672.28125.15234 4.15625 1.80469 4.4375.51172 4.4414.55078 2.6172-2.86719.46093-4.4414 1.35938-1.65625 4.4375.03515 4.4375-1.63672 2.02343-1.17968-2.02344-2.375-.41406-2.0625-4.02344-3.25782-2.26562-1.17968-2.17188-2.03516-3.04296-2.40625-1.39453-1.19922-4.44141-1.76562-4.4375-.53516-2.86719-.9375-1.57031-.8125-3.02344.8125 3.02344 1.04297 1.4375 3.39453-1.4375 2.86719-4.4375-1.92188-1.8086-.94531 1.39454-4.4375-4.02735-1.9414-4.4375-2.40626v-1.625L189.8711 396l2.94922 1.65625 4.4414-.66016v5.83985l-.71093 2.03906.71094.375 4.4375.76172.57031-1.13672-.57031-1.34375-4.4375-.69531v-5.83985l4.4375 1.02735 4.4375 2.17187.21875.24219 4.21875.85938 4.4414 1.20312 2.75391 2.375 1.6836 1.32813 3.3203 3.11328 1.1172.57812 4.4375 2.97266.98828.88672 3.44922 3.86328.53125.57422-.53125.99609-4.4375 2.0039-4.4375.84376-4.4375.26953-.26954.32422-.67187 4.4414-3.4961 3.82422-4.4414-.58203-4.4375-.3789-4.4375-1.41016-4.4375-1.41406-.1211-.03907-2.9453-4.4414-.87891-4.4375-.4961-3.66797-.375-.76953-4.0625-3.23829-4.4375-.58984-1.39453-.60937-3.04297-2.41797m4.4375-33.45703l-3.89453-4.07032 3.89453-3.2578v1.33593l-2.29687 1.92187 2.29687 2.40235 1.48828-2.40235-1.48828-1.92187v-1.33594l2.51953 3.25781-2.51953 4.07032"/><path fill="#00c4fc" fill-rule="evenodd" d="M183.94531 371.77344l-2.29687-2.40235 2.29687-1.92187v1.33594l-.69922.58593.69922.73047.45313-.73047-.45313-.58593v-1.33594l1.48828 1.92187-1.48828 2.40235"/><path fill="#00b8fc" fill-rule="evenodd" d="M183.94531 370.10156l-.69922-.73047.69922-.58593.45313.58593-.45313.73047"/><path fill="#00c4fc" fill-rule="evenodd" d="M188.38281 406.46875l-2.67187-1.59375 1.26172-4.4375 1.41015-4.34766 4.4375 2.40625v.83594l-2.78906 1.10547-.2539 4.4375 3.04296 4.19531.07422.2461.86719 4.4375 1.8789 4.4375 1.6211 3.73046.44922.70704 3.98828 3.0078 2.71484 1.4336 1.72266.75 4.4375.64453 4.4414.51172 1.7422-1.90625.24609-4.4414 2.44922-2.98829 4.4375.33594 3.6875-1.78515-.40235-4.4375-3.28516-2.66407-3.41406-1.77343-1.02344-.96094-4.40625-3.48047-.03125-.02734-4.4414-2.32422-4.4375-.13672-2.13281 2.48828-1.8711 4.4414-.4336.09376-.07812-.09375-4.35937-2.92188-2.90234-1.51953.75-4.4375-2.28907-1.10547v-.83594l4.02735 1.94141-1.39453 4.4375 1.80859.94531 4.4375 1.92188 1.4375-2.86719-1.4375-3.39453-3.02344-1.04297 3.02344-.8125 1.57031.8125 2.86719.9375 4.4375.53516 4.4414 1.76562 1.39454 1.19922 3.04297 2.40625 2.17187 2.03516 2.26563 1.17968 4.02343 3.25782.41406 2.0625 2.02344 2.375-2.02344 1.17968-4.4375 1.63672-4.4375-.03515-1.35937 1.65625-.46094 4.4414-2.61719 2.86719-4.4414-.55078-4.4375-.51172-4.15625-1.80469-.28125-.15234-4.4375-2.38672-1.30078-1.90234-1.48047-4.4375-1.21094-4.4375-.44922-2.21094-2.60937-2.22656-1.82813-2.84766"/><path fill="#00e8fc" fill-rule="evenodd" d="M192.4961 382.6836l-3.16798-4.4375 3.4922-4.14063v1.32031l-2.375 2.82031 2.375 3.08594 4.4414 1.17188 4.39062-4.25782-4.39062-2.6875-4.4414-.1328v-1.32032l4.4414.48047 4.4375 1.46484 2.45703 2.19531-2.45703 3.27735-1.25 1.16015-3.1875 3.10938-4.4414-2.82813-.32423-.28125"/><path fill="#00b8fc" fill-rule="evenodd" d="M192.82031 409.07031l-3.04297-4.19531.25391-4.4375 2.78906-1.10547v.83985l-.67578.26562-.19531 4.4375.8711 1.20313.92968 3.23828.5039 4.4375 2.55079 4.4375.45703 1.05468 2.14844 3.38282 2.28906 1.72656 4.4375 2.44531 1.61719.26953 2.8203.46875 4.44142.48047.86718-.94922.02735-4.4414 3.54297-4.31641 4.4375.63672 1.5664-.75781.98047-4.4375-2.54688-2.06641-4.4375-2.34766-.16796-.02343-4.26953-3.28907-1.13282-1.15234-3.3086-1.74219-4.4375.26563-1.26562 1.47656 1.26563 4.01172.1875.42969-.1875.07812-4.4375 1.0625-.9336-1.14062-3.5039-2.34766-4-2.09375.11328-4.4375-.55469-.26563v-.83984l2.28906 1.10547-.75 4.4375 2.90235 1.51953 4.35937 2.92188.07813.09375.4336-.09375 1.87109-4.44141 2.1328-2.48828 4.4375.13672 4.44142 2.32422.03125.02734 4.40625 3.48047 1.02343.96094 3.41406 1.77343 3.28516 2.66407.40234 4.4375-3.6875 1.78515-4.4375-.33594-2.44921 2.98829-.2461 4.4414-1.74219 1.90625-4.4414-.51172-4.4375-.64453-1.72266-.75-2.71484-1.4336-3.98828-3.0078-.44922-.70704-1.6211-3.73046-1.8789-4.4375-.86719-4.4375-.07422-.2461"/><path fill="#00d4fc" fill-rule="evenodd" d="M192.82031 381.33203l-2.375-3.08594 2.375-2.8203 4.4414.1328v.96875l-4.4414.22266-1.26172 1.4961 1.26172 1.64062 4.4414 1.08203 2.8086-2.72266-2.8086-1.71875v-.96875l4.39063 2.6875-4.39062 4.25782-4.4414-1.17188"/><path fill="#00c4fc" fill-rule="evenodd" d="M192.82031 379.88672l-1.26172-1.64063 1.26172-1.49609 4.4414-.22266v.96875l-4.4414.57422-.14844.17578.14844.19532 4.4414.99218 1.22267-1.1875-1.22266-.75v-.96875l2.8086 1.71875-2.8086 2.72266-4.4414-1.08203"/><path fill="#00a8fc" fill-rule="evenodd" d="M192.82031 406.07813l-.8711-1.20313.19532-4.4375.67578-.26563.55469.26563-.11328 4.4375 4 2.09375 3.5039 2.34766.9336 1.14062 4.4375-1.0625.1875-.07812-.1875-.4297-1.26563-4.01171 1.26563-1.47656 4.4375-.26563v.61328l-4.4375.66407-.39844.46484.39844 1.26563 1.38672 3.17578-1.38672.58593-4.4375 1.60157-1.79297-2.1875-2.64453-1.77344-2.65234 1.77344.13671 4.4375 2.51563 3.96875.25781.46875 3.58984 4.4375.58985.4453 4.4375 2.80079 4.4375.83203 4.30078-4.07812.14063-.46485 2.76171-3.97265L219.45312 418l4.4375-.23828 1.8125-4.00781-1.8125-1.46875-4.4375-2.73829-1.69921-.23046-2.73828-2.11329-2.29688-2.32812-2.14453-1.1289v-.61329l3.3086 1.74219 1.1328 1.15234 4.26954 3.28907.16797.02343 4.4375 2.34766 2.54687 2.0664-.98047 4.4375-1.5664.75782-4.4375-.63672-3.54297 4.3164-.02735 4.44141-.86719.94922-4.4414-.48047-2.82031-.46875-1.6172-.26953-4.4375-2.44531-2.28905-1.72656-2.14844-3.38282-.45703-1.05468-2.55078-4.4375-.50391-4.4375-.92969-3.23829"/><path fill="#00b8fc" fill-rule="evenodd" d="M192.82031 378.4414l-.14844-.1953.14844-.17579 4.4414-.57422 1.22267.75-1.22266 1.1875-4.4414-.99218"/><path fill="#009800" fill-rule="evenodd" d="M194.7461 413.7539l-.13673-4.4375 2.65235-1.77343 2.64453 1.77344 1.79297 2.1875 4.4375-1.60157 1.38672-.58593-1.38672-3.17579-.39844-1.26562.39844-.46484 4.4375-.66407v.61329l-2.71094.51562.86328 4.4414-2.58984 1.09376-4.4375 2.14453-2.64844-3.23828-1.78906-1.19922-1.79297 1.19922-.23047 4.4375 2.02344 3.1914.6836 1.2461 3.7539 4.1289.91797.3086 3.51953 2.3203 4.4375 1.02345 3.52734-3.34375.91406-3.10547.92579-1.33203 3.51172-.40235 4.4375-1.66015 1.07421-2.375-1.07422-.8711-4.4375-3.1289-3.23046-.4375-1.20703-.9336-3.45704-3.50781-.98437-.51563v-.61328l2.14453 1.12891 2.29688 2.32813 2.73828 2.11328 1.69922.23046 4.4375 2.73829 1.8125 1.46875-1.8125 4.0078-4.4375.23829-1.67579.1914-2.76172 3.97266-.14062.46485-4.30078 4.07812-4.4375-.83203-4.4375-2.80078-.58984-.44531-3.58985-4.4375-.25781-.46875-2.51563-3.96875"/><path fill="#00ac00" fill-rule="evenodd" d="M197.26172 416.94531l-2.02344-3.1914.23047-4.4375 1.79297-1.19922 1.78906 1.19922 2.64844 3.23828 4.4375-2.14453 2.58984-1.09375-.86328-4.44141 2.71094-.51563v1.48829l-.64844 3.46875-3.78906 1.60156-4.4375 2.6836-3.5039-4.28516-.9336-.625-.9375.625-.59375 4.4375 1.53125 2.41406 1.11328 2.02344 3.32422 3.66015 2.32031.77735 2.11719 1.39843 4.4375 1.20704 2.75-2.60547 1.1289-4.4375.5625-.07032 4.4375-.54296 4.4375-3.08204.33594-.74218-.33594-.27344-4.4375-3.51953-4.4375-.61719-1.23828-.02734-3.20312-3.46875v-1.48829l.98437.51563 3.45703 3.50781 1.20704.9336 3.23047.4375 4.4375 3.1289 1.07421.8711-1.07422 2.375-4.4375 1.66015-3.51171.40235-.92578 1.33203-.91407 3.10547-3.52734 3.34375-4.4375-1.02344-3.51953-2.32031-.91797-.3086-3.7539-4.1289-.6836-1.2461"/><path fill="#00c800" fill-rule="evenodd" d="M197.26172 416.16797l-1.53125-2.41406.59375-4.4375.9375-.625.9336.625 3.5039 4.28515 4.4375-2.6836 3.78906-1.60155.64844-3.46875 3.20312 3.46875 1.23828.02734v.28906l-4.4414.05078-4.4375 2.2461-2.92578 1.82422-1.51172 1.07812-2.78125-1.07812-1.65625-2.4375-.54688 2.4375.54688.85937 1.96875 3.57813 2.46875 2.71875 4.4375 1.45703 1.07031.26172 3.36719 1.13671 1.19922-1.13671.41406-4.4375 2.82813-.35547 4.4375-.67578 4.05078-3.40625-4.05078-3.375-4.4375-.7461v-.28906l4.4375.61719 4.4375 3.51953.33593.27344-.33594.74218-4.4375 3.08204-4.4375.54296-.5625.07032-1.1289 4.4375-2.75 2.60546-4.4375-1.20703-2.11719-1.39843-2.32031-.77735-3.32422-3.66015-1.11328-2.02344"/><path fill="#00e8fc" fill-rule="evenodd" d="M197.26172 402.83594l-.71094 2.03906.71094.375 4.4375.76172.57031-1.13672-.57031-1.34375-4.4375-.69531"/><path fill="#10cc00" fill-rule="evenodd" d="M197.26172 414.61328l-.54688-.85937.54688-2.4375 1.65625 2.4375 2.78125 1.07812 1.51172-1.07812 2.92578-1.82422 4.4375-2.2461 4.4414-.05078v.28906l-4.4414.26563-4.4375 2.75781-1.29688.8086-3.14062 2.24218-1.61328 2.19532 1.61328 1.77734 4.4375 1.32422 4.03906-3.10156.39844-.17188 4.4414-.47265 4.4375-.8086 3.55079-2.98437-3.55078-2.95704-4.4375-.875v-.28906l4.4375.7461 4.05078 3.375-4.05078 3.40625-4.4375.67578-2.82813.35547-.41406 4.4375-1.19922 1.13671-3.36719-1.13671-1.07031-.26172-4.4375-1.45703-2.46875-2.71875-1.96875-3.57813"/><path fill="#24d000" fill-rule="evenodd" d="M201.69922 419.96875l-1.61328-1.77734 1.61328-2.19532 3.14062-2.24218 1.29688-.8086 4.4375-2.75781 4.4414-.26563v.28907l-4.4414.48047-4.29297 3.0625-.14453.43359-4.4375 2.97266-.75781 1.03125.7578.83593 4.4375 1.19532 2.64063-2.03125 1.79688-.77735 4.4414-.15234 4.4375-.94531 3.05079-2.5625-3.05078-2.54297-4.4375-1v-.28906l4.4375.875 3.55078 2.95703-3.55078 2.98437-4.4375.8086-4.44141.47265-.39844.17188-4.03906 3.10156-4.4375-1.32422"/><path fill="#00d4fc" fill-rule="evenodd" d="M201.69922 392.77734l-.92188-1.21484.92188-1.02344 1.14062 1.02344-1.14062 1.21484"/><path fill="#3cd800" fill-rule="evenodd" d="M201.69922 419.02734l-.75781-.83593.7578-1.03125 4.4375-2.97266.14454-.4336 4.29297-3.0625 4.4414-.48046V410.5l-4.4414.69531-3.58594 2.5586-.85156 2.55078-3.9336 1.88672 3.9336.95703 1.2461-.95703 3.1914-1.37891 4.4414.16406 4.4375-1.07812 2.55079-2.14453-2.55078-2.125-4.4375-1.12891v-.28906l4.4375 1 3.05078 2.54297-3.05078 2.5625-4.4375.9453-4.44141.15235-1.79688.77735-2.64062 2.03125-4.4375-1.19532"/><path fill="#54dc00" fill-rule="evenodd" d="M206.13672 419.14844l-3.9336-.95703 3.9336-1.88672.85156-2.55078 3.58594-2.5586 4.4414-.69531v.28906l-4.4414.91016-2.8789 2.05469 2.8789 2.45703 4.4414.48047 4.4375-1.21485 2.04688-1.72265-2.04688-1.70704-4.4375-1.2578V410.5l4.4375 1.1289 2.55079 2.125-2.55078 2.14454-4.4375 1.07812-4.44141-.16406-3.1914 1.3789-1.2461.95704"/><path fill="#e8e05c" fill-rule="evenodd" d="M210.57422 416.21094l-2.8789-2.45703 2.8789-2.0547 4.4414-.91015v.28906l-4.4414 1.125-2.17188 1.55079 2.17188 1.85156 4.4414.79687 4.4375-1.34765L221 413.7539l-1.54688-1.28907-4.4375-1.38671v-.28907l4.4375 1.25781 2.04688 1.70704-2.04688 1.72265-4.4375 1.21485-4.4414-.48047"/><path fill="#e8d450" fill-rule="evenodd" d="M210.57422 415.60547l-2.17188-1.85156 2.17188-1.55079 4.4414-1.125v.57813l-4.4414 1.55469-.75781.54297.7578.64843 4.44142 1.4297 4.4375-1.6172.54687-.46093-.54688-.45704-4.4375-1.64062v-.57813l4.4375 1.38672L221 413.75391l-1.54688 1.30078-4.4375 1.34765-4.4414-.79687"/><path fill="#e8b830" fill-rule="evenodd" d="M210.57422 414.40234l-.75781-.64843.7578-.54297 4.44142-1.55469v.57813l-3.77344 1.51953 3.77344 1.5039 3.78515-1.5039-3.78516-1.51954v-.57812l4.4375 1.64063.54688.45703-.54688.46093-4.4375 1.6172-4.4414-1.4297"/><path fill="#e8a824" fill-rule="evenodd" d="M215.01563 415.25781l-3.77344-1.5039 3.77344-1.51954v.57813l-2.33985.9414 2.33984.9336 2.34375-.9336-2.34375-.9414v-.57813l3.78516 1.51954-3.78516 1.5039"/><path fill="#d87c08" fill-rule="evenodd" d="M215.01563 414.6875l-2.33985-.9336 2.33984-.9414v.57813l-.90234.36328.90234.35937.90235-.35937-.90234-.36329v-.57812l2.34375.9414-2.34375.9336"/><path fill="#fc4444" fill-rule="evenodd" d="M215.01563 414.11328l-.90235-.35937.90234-.36329.90235.36329-.90234.35937"/><path fill="#50fcfc" fill-rule="evenodd" d="M219.45313 396.26172L218.34766 396l1.10547-.26953 4.4375-1.51563L226.5703 396l-2.67969 2.03516-4.4375-1.77344m13.3125-1.25781l-3.72656-3.44141 3.72656-3.34766v1.72657l-1.80078 1.62109 1.80078 1.66406 2-1.66406-2-1.6211v-1.72656l4.13282 3.34766-4.13281 3.4414"/><path fill="#00e8fc" fill-rule="evenodd" d="M232.76563 393.22656l-1.80079-1.66406 1.80078-1.6211 2 1.6211-2 1.66406"/><path fill="#50fcfc" fill-rule="evenodd" d="M250.51953 419.30469l-1.48437-1.11328 1.48437-2.50782 4.4375.88282 2.35156 1.625-2.35156 1.38671-4.4375-.27343m0-35.13281l-1.47266-1.48829 1.47266-1.61328 2.76172 1.61328-2.76172 1.48829m22.1914-27.54297l-.39062-.57422.39063-.42969 1.39062.42969-1.39062.57422m8.8789-1.9375l-4.15625-3.07422 4.15625-4.17188.6836-.26562 3.7539-2.11328v3.13671l-4.4375 2.69532-.71484.71875.71484.52734 4.4375 2.46875 2.39063-2.9961-2.39063-3.41406v-3.13671l1.72266 2.11328 1.91016 4.4375-3.1211 4.4375-.51172.46094-.55468-.46094-3.88282-1.36328"/><path fill="#00e8fc" fill-rule="evenodd" d="M281.58984 352.14453l-.71484-.52734.71484-.71875 4.4375-2.69531v2.95703l-.66406.45703.66406.39844.31641-.39844-.3164-.45703v-2.95704l2.39062 3.41407-2.39063 2.9961-4.4375-2.46876"/><path fill="#00d4fc" fill-rule="evenodd" d="M286.02734 352.01563l-.66406-.39844.66406-.45703.31641.45703-.3164.39844"/><path fill="#50fcfc" fill-rule="evenodd" d="M294.90234 374.48828l-1.96093-.67969 1.96093-1.92578 1.10938 1.92578-1.10938.6797m8.87891-21.16407l-1.08984-1.70703 1.08984-2.15235.52344-2.28515 3.91406-3.49219v2.13281l-1.51953 1.35938 1.51953 2.0664 1.91797-2.0664-1.91797-1.35938v-2.13281l4.4375 2.02734 4.4414-.11718 2.625 1.58203-2.625.6875-4.4414 1.03906-2.16406 2.71094-2.27344 1.58594-4.4375.12109"/><path fill="#00e8fc" fill-rule="evenodd" d="M308.21875 349.2461l-1.51953-2.06641 1.51953-1.35938 1.91797 1.35938-1.91797 2.0664"/><path fill="#50fcfc" fill-rule="evenodd" d="M325.97266 457.39844l-3.32813-3.69922 3.32813-2.76172 1.63671-1.67578 2.80079-2.50781 4.4375-1.12891 4.29687-.80469.14453-.09765.3086.09765 4.1289.48438 3.45313-.48438-.84766-4.4375 1.83203-1.82422 1.9375 1.82422 2.5 2.57031 4.4414-1.54687 4.4375.03516 4.4375-.48829.59376-.5703 3.84375-3.9375v1.13671l-2.73438 2.80078-1.70312 1.64063-4.4375 1.13281-4.4375.19922-2.375 1.46484-2.0664 3.89844-4.4375-.44922-4.4375-.23437-4.4375.13671-4.44141-.52734-2.96485 1.61719-1.47265.63672-3.76563 3.80078 1.51953 4.4375 2.2461 1.82812 4.4375.35547 4.4414 1.91016.66406.34375 3.77344 2.01953 4.4375.11719 4.4375-.4961 4.4414 1.13672 4.4375.01563 4.4375 1.52344 4.4375-.38282 4.4375-.47265 4.44142.15625 3.26171-3.6172-.27343-4.4375 1.44921-3.67187.8086-.76562-.8086-.9336-3.30468-3.5039-1.13281-1.07031-.79688-3.3711-3.64453-3.67187-1.44531-.76563-2.9922-2.80078v-1.13672l4.20704 3.9375.23047.125 4.28125 4.3125.16015.67188 3.9922 3.76953.4453.46875 3.4375 3.96875-3.4375 3.26172-.46484 1.17578.14453 4.4375-1.26172 4.4414-2.85546.95704-4.44141-.67188-4.4375 1.77735-4.4375.6289-3.24219-2.6914-1.19531-.42188-4.4375.1875-4.4414-.10547-4.4375-.39453-4.4375-.13281-4.4375-1.08594-2.98438-2.48828-1.45703-.61719-4.4375-.39844-4.21094-3.42187-.22656-.73828m0-122.03125l-1.63282-1.5039 1.63282-2.625 3.67578 2.625-3.67578 1.5039"/><path fill="#00e8fc" fill-rule="evenodd" d="M328.16406 458.13672l-1.51953-4.4375 3.76563-3.80078 1.47265-.63672 2.96485-1.61719v3.4414l-4.4375 1.4922-1.10938 1.12109 1.10938 2.53515 4.4375.96094 1.07812.9414 3.36328 1.57813 4.4375-.5 1.16797-1.07812-1.16797-.48047-3.22265-3.95703-1.21485-.96094-4.4414-1.65234v-3.4414l4.4414.52733 4.4375-.13671 4.4375.23437 4.4375.44922v4.13672l-.36719.84375.3672.23437.5078-.23437-.5078-.84375v-4.13672l2.0664-3.89844 2.375-1.46484 4.4375-.19922 4.4375-1.13281 1.70312-1.64063 2.73438-2.80078v1.89063l-.88672.91015-3.55078 3.41797-2.57031 1.01953 2.5703 1.38672v2.41406l-1.27343.64063-3.16406 3.8086-2.3125.6289 2.3125 1.60937 4.4375.44922 4.4375-1.4336.64844-.625-.64844-.64062-3.42969-3.79687-1.00781-.64063v-2.41406l4.4375 2.6875 4.4375-1.58984v1.01953l-2.24219.9375 2.24219 2.25781 3.52734-2.25781-3.52734-.9375v-1.01953l2.58203-2.48438-2.58203-2.60156-3.46485-1.83594-.97265-.91015v-1.89063l2.99219 2.80078 1.4453.76563 3.64454 3.67187.79688 3.3711v3.97656l-3.45313 1.53125-.98828 1.09375-3.61719 3.34375-.82031.3125-4.4375 1.50781-4.4375 1.2461-4.4375.51953-.94531.85156.9453.39062 4.4375.35157 4.4375.9375 4.4375.33593 4.4375-.26171 4.44142.28125 1.83593-2.03516-.48828-4.4375.11328-4.4375-1.46094-1.53125v-3.97656l1.13282 1.0703 3.30469 3.50392.80859.93359-.8086.76562-1.44921 3.67188.27343 4.4375-3.26171 3.61719-4.44141-.15625-4.4375.47265-4.4375.38281-4.4375-1.52343-4.4375-.01563-4.4414-1.13672-4.4375.4961-4.4375-.11719-3.77344-2.01953-.66407-.34375-4.4414-1.91016-4.4375-.35547-2.2461-1.82812"/><path fill="#00d4fc" fill-rule="evenodd" d="M330.41016 456.23438l-1.10938-2.53516 1.10938-1.1211 4.4375-1.49218 4.4414 1.65234 1.21485.96094 3.22265 3.95703 1.16797.48047-1.16797 1.07812-4.4375.5-3.36328-1.57812-1.07812-.9414-4.4375-.96094"/><path fill="#50fcfc" fill-rule="evenodd" d="M339.28906 429.70313l-2.86719-2.63282 2.8672-2.65234 2.78906 2.65234-2.78907 2.63281m0-99.01171l-1.6914-1.26563 1.6914-1.16797 4.4375-2.60547 3.48828 3.77344-3.02343 4.4375-.46485.27735-.14453-.27735-4.29297-3.17187m13.3125 122.16406l-.36719.84375.3672.23437.5078-.23437-.5078-.84375"/><path fill="#00d4fc" fill-rule="evenodd" d="M357.04297 462.96484l-.94531-.39062.9453-.85156 4.4375-.51954 4.4375-1.24609 4.4375-1.50781.82032-.3125 3.61719-3.34375.98828-1.09375 3.45313-1.53125v7.67187l-4.44141 2.5625-4.4375-.01953-.53125.1914.53125.09767 4.4375-.05079 4.4414.41016.41016-.45703-.41015-2.73438v-7.67187l1.46093 1.53125-.11328 4.4375.48828 4.4375-1.83594 2.03515-4.4414-.28125-4.4375.26172-4.4375-.33593-4.4375-.9375-4.4375-.35157"/><path fill="#50fcfc" fill-rule="evenodd" d="M361.48047 453.07031l-2.3125.6289 2.3125 1.60938 4.4375.44922 4.4375-1.4336.64844-.625-.64844-.64062-3.42969-3.79687-1.00781-.64063-1.27344.64063-3.16406 3.8086"/><path fill="#00d4fc" fill-rule="evenodd" d="M365.91797 446.20703l-2.57031-1.38672 2.5703-1.01953 3.55079-3.41797.88672-.91015.97265.91015 3.46485 1.83594v1.07031l-4.4375.66406-1.01563.8672 1.01563.45702 4.4375 1.00782 1.52344-1.46485-1.52344-1.53125v-1.07031l2.58203 2.60156-2.58203 2.48438-4.4375 1.58984-4.4375-2.6875"/><path fill="#00c4fc" fill-rule="evenodd" d="M370.35547 445.27734l-1.01563-.45703 1.01563-.86719 4.4375-.66406v1.07031l-1.47266.46094 1.47266.44531.46094-.4453-.46094-.46094v-1.07032l1.52344 1.53125-1.52344 1.46485-4.4375-1.00782m0 17.39454l-.53125-.09766.53125-.1914 4.4375.01952 4.4414-2.5625.41016 2.73438-.41015.45703-4.44141-.41016-4.4375.05079"/><path fill="#50fcfc" fill-rule="evenodd" d="M374.79297 448.32422l-2.24219.9375 2.24219 2.25781 3.52734-2.25781-3.52734-.9375v.60937l1.22656.32813-1.22656.78515-.77735-.78515.77735-.32813v-.60937"/><path fill="#00b8fc" fill-rule="evenodd" d="M374.79297 445.26563l-1.47266-.44532 1.47266-.46094.46094.46094-.46094.44531"/><path fill="#fff" fill-opacity="0" fill-rule="evenodd" d="M374.79297 448.9336l-.77735.32812.77735.78515 1.22656-.78515-1.22656-.32813"/><path fill="#50fcfc" fill-rule="evenodd" d="M392.54688 447.92578l-2.0625-3.10547 2.0625-1.5586 1.53906 1.5586-1.53906 3.10547m4.4375-50.19531L395.2578 396l1.72656-1.73047L399.54298 396l-2.5586 1.73047m0 32.8711l-1.1289-3.53126 1.1289-1.08203 4.44141-1.32422 2.23438 2.40625 2.20312.58985v1.17187l-4.4375.38672-1.48047 2.28906 1.48047 3.32031.21875 1.1172 2.14844 4.4375 2.07031 1.57421 3.74219-1.57422.69531-.20703 4.22656.20703.21094.01563.01953-.01563-.01953-.01562-1.71875-4.42188-2.71875-2.69531-1.67187-1.74219-2.76563-2.67578v-1.17187l3.97656 3.84765.46094.48047 3.9961 3.95703.4414 1.14063 3.35938 3.29687 1.08203 2.78906 1.85547 1.64844-1.85547 1.19531-1.34766-1.1953-3.09375-1.34766-4.4375-.375-4.4375 1.66015-.14453.0625-2.3789 4.4414-1.91407 2.69923-2.58594-2.69922-.39453-4.4414.85156-4.4375-.65625-4.4375-1.54687-4.4375-.10938-.90626"/><path fill="#00e8fc" fill-rule="evenodd" d="M401.42578 434.82813l-1.48047-3.32032 1.48047-2.28906 4.4375-.38672v1.95313l-1.54687.72265-.58204 4.4375 2.12891 2.6914 4.4375-1.76952.59375-.92188-.59375-.58984-3.6914-3.84766-.7461-.72265v-1.95313l2.76563 2.67578 1.67187 1.74219 2.71875 2.69531 1.71875 4.42188.01953.01562-.01953.01563-.21094-.01563-4.22656-.20703-.69531.20703-3.74219 1.57422-2.07031-1.57422-2.14844-4.4375-.21875-1.11719"/><path fill="#00d4fc" fill-rule="evenodd" d="M405.86328 438.63672l-2.1289-2.6914.58203-4.4375 1.54687-.72266v5.02343l-.04297.13672.04297.05078.1211-.05078-.1211-.13672v-5.02343l.7461.72265 3.6914 3.84766.59375.58984-.59375.92188-4.4375 1.76953"/><path fill="#00c4fc" fill-rule="evenodd" d="M405.86328 435.9961l-.04297-.05079.04297-.13672.1211.13672-.1211.05078"/><path fill="#50fcfc" fill-rule="evenodd" d="M412.65625 400.4375L411.91797 396l2.82031-2.73047v2.65235l-.07812.07812.07812.25.11719-.25-.11719-.07813v-2.65234L418.83984 396l-2.10937 4.4375-1.01172 4.4375 3.46094 1.52734 2.34375-1.52734.20312-4.4375L419.21875 396l4.39844-4.29297v.45703L419.68359 396l3.9336 4.17578L427.47266 396l-3.85547-3.83594v-.45703L427.92579 396l-2.46095 4.4375 2.58985 1.85938 4.4375.53906 3.71875-2.39844.71875-.71875 4.4414-2.85547v1.92969l-2.19921 1.64453-1.94922 4.4375-.29297.14844-4.4375 1.65625-4.4375-1.41797-4.4375.6836-4.4375 3.1875-.42578.18359.42578.41406 2.6836 4.02344-1 4.4375 2.7539 2.57421 4.4375.47266 4.4375-.58203 4.20703-2.46484.23047-.1797 4.4414-2.59765 1.7422-1.66015 1.63671-4.4375-1.60938-4.44141-.26562-4.4375-1.5039-1.64453v-1.92969l3.26171 3.57422.16016 4.4375 1.01562 2.20703 2.17579 2.23438-2.17579 2.52734-.86328 1.91016-3.57422 3.41015-1.76953 1.02735-2.67187 2.54687-4.4375 1.11328-4.4375.5039-1.1211.27345-3.3164 2.33203-2.54688-2.33203-1.89062-1.83204-2.54297-2.60546.92187-4.4375-2.8203-2.78907-1.58985-1.64843.3711-4.44141-.86329-4.4375"/><path fill="#00e8fc" fill-rule="evenodd" d="M414.73828 396.25l-.07812-.25.07812-.07813.11719.07813-.11719.25m4.4414 13.48047l-.42577-.41406.42578-.1836 4.4375-3.1875 4.4375-.6836 4.4375 1.41798 4.4375-1.65625v3.24219l-1.52344 1.05078-2.91406 1.96875-4.4375.14843-1.71875 2.32032-.27344 4.4375 1.99219 1.18359 4.4375-.70703.8125-.47656 3.625-2.81641 2.61719-1.6211-.21485-4.4375-2.40234-1.05077v-3.2422l.29297-.14843 1.94921-4.4375 2.19922-1.64453 1.50391 1.64453.26563 4.4375 1.60937 4.4414-1.63672 4.4375-1.74219 1.66016-4.4414 2.59766-.23047.17969-4.20703 2.46484-4.4375.58203-4.4375-.47265-2.7539-2.57422 1-4.4375-2.6836-4.02344m4.4375-9.55469L419.68359 396l3.9336-3.83594v.75781L420.46094 396l3.15625 3.35156L426.70703 396l-3.08984-3.07813v-.7578L427.47266 396l-3.85547 4.17578"/><path fill="#00d4fc" fill-rule="evenodd" d="M423.61719 399.35156L420.46094 396l3.15625-3.07813v.75782L421.23829 396l2.3789 2.52344L425.9453 396l-2.32812-2.32031v-.75781L426.70703 396l-3.08984 3.35156"/><path fill="#00c4fc" fill-rule="evenodd" d="M423.61719 398.52344L421.23829 396l2.3789-2.32031v.75781L422.01563 396l1.60156 1.69922L425.18359 396l-1.5664-1.5625v-.75781L425.9453 396l-2.32812 2.52344"/><path fill="#00b8fc" fill-rule="evenodd" d="M423.61719 397.69922L422.01563 396l1.60156-1.5625v.75781l-.82422.80469.82422.875.80469-.875-.8047-.80469v-.75781L425.1836 396l-1.5664 1.69922"/><path fill="#00a8fc" fill-rule="evenodd" d="M423.61719 396.875l-.82422-.875.82422-.80469v.75781L423.5703 396l.04688.05078.04297-.05078-.04297-.04688v-.7578l.80469.80468-.8047.875"/><path fill="#009800" fill-rule="evenodd" d="M423.61719 396.05078L423.5703 396l.04688-.04688.04297.04688-.04297.05078"/><path fill="#00d4fc" fill-rule="evenodd" d="M428.05469 419.375l-1.99219-1.1836.27344-4.4375 1.71875-2.3203 4.4375-.14844 2.91406-1.96875 1.52344-1.05079 2.40234 1.05079.21485 4.4375-2.6172 1.62109-3.625 2.8164-.8125.47657-4.4375.70703"/><path fill="#50fcfc" fill-rule="evenodd" d="M450.2461 430.50781l-2.23048-3.4375 2.23047-2.16797 2.22266 2.16797-2.22266 3.4375"/><g clip-path="url(#c)"><path fill="#fff" fill-opacity="0" fill-rule="evenodd" d="M467.9961 480.32813H468V311.67188h-.0039H468v168.65625h-.0039"/></g><path fill="#fff" fill-opacity="0" fill-rule="evenodd" d="M377.21484 450.42188l4.12891 4.1289 7.04297-7.04297-4.1289-4.1289-7.04298 7.04296"/><path fill-rule="evenodd" d="M385.4375 447.14844l.35938.35937-4.45313 4.45313-.55469-.5586 3.17578-3.17187-.98437-.98438.39453-.39062.4414.34765.21485.14063.22656.10156.24219.04297.27344-.02734.3086-.10547.35546-.20703"/><path fill="#fff" fill-opacity="0" fill-rule="evenodd" d="M187.08984 387.67188l4.76953 3.375 5.75391-8.13282-4.76562-3.375-5.75782 8.13281"/><path fill-rule="evenodd" d="M194.64453 383.0586l.41406.29296-3.63672 5.14063-.64062-.45703 2.59375-3.66407-1.13281-.80078.32031-.45312.49219.26953.23828.10156.23828.0586.25.0039.26172-.07031.28516-.16016.3164-.26172"/><path fill="#fff" fill-opacity="0" fill-rule="evenodd" d="M231.03516 416.91797l2.1953 5.41406 9.23048-3.74219-2.19531-5.41406-9.23047 3.74219"/><path fill-rule="evenodd" d="M239.88281 417.10938l.1914.47265-5.83202 2.36328-.29688-.73047 4.16016-1.6875-.51953-1.28515.51172-.20703.27343.49218.14453.21485.16797.17969.20703.1328.26172.08204.32422.02344.40625-.05079"/><path fill="#fff" fill-opacity="0" fill-rule="evenodd" d="M430.02344 427.45703l5.7461-1.04297-1.77735-9.80078-5.7461 1.04297 1.77735 9.80078"/><path fill-rule="evenodd" d="M432.01563 418.83203l.5-.08984 1.125 6.19531-.77344.14063-.80078-4.41797-1.3672.24609-.09765-.54688.53906-.16406.23829-.09765.20703-.12891.17578-.17578.13281-.23828.08985-.3125.03125-.41016"/><path fill="#fff" fill-opacity="0" fill-rule="evenodd" d="M191.78125 430.89844l7.53125 2.46094 3.16797-9.6875-7.53125-2.46094-3.16797 9.6875"/><path fill-rule="evenodd" d="M196.73438 423.72266l3.125 1.02343-.23047.70313-2.50782-.82031-.78125 1.64453.26563-.08594.30078-.04297.33203.01953.375.08594.30078.125.29688.1875.26953.24219.23047.30469.16797.35937.05468.19922.03516.21875.01172.23047-.01563.24219-.04687.26171-.07422.27344-.17188.41016-.22656.36328-.28515.3125-.33203.25-.37891.17187-.20703.0547-.21485.03124-.22656.01172-.23437-.01563-.2422-.04296-.2539-.07032-.4336-.17968-.34374-.21875-.26953-.25782-.19531-.28906-.12891-.3164-.07031-.33985-.01953-.35156.02734-.36328.75.24219.0039.24609.03125.23047.0625.21094.08985.1914.1211.16797.15234.14453.17968.1211.21485.08984.3086.07422.28905.01953.26953-.03906.2461-.09375.22656-.15235.19531-.21094.16797-.27343.13672-.33203.0625-.25391.02344-.26953-.01953-.26953-.07031-.26172-.1211-.24219-.17969-.21875-.24218-.1836-.3125-.14062-.33203-.07031-.30079.01563-.3164.09375-.38281.16015-.66016-.21484 1.5039-3.11328"/><g clip-path="url(#d)"><path fill="none" stroke="#000" stroke-linecap="round" stroke-linejoin="round" stroke-miterlimit="10" stroke-width=".5" d="M146.54688 482.75l-5.09375-4.84375"/></g><g clip-path="url(#e)"><path fill="none" stroke="#000" stroke-linecap="round" stroke-linejoin="round" stroke-miterlimit="10" stroke-width=".5" d="M159.84766 482.76172l-5.06641-4.86719"/></g><g clip-path="url(#f)"><path fill="none" stroke="#000" stroke-linecap="round" stroke-linejoin="round" stroke-miterlimit="10" stroke-width=".5" d="M172.92969 482.98438l-4.60156-5.3125"/></g><g clip-path="url(#g)"><path fill="none" stroke="#000" stroke-linecap="round" stroke-linejoin="round" stroke-miterlimit="10" stroke-width=".5" d="M186.96094 482.13281l-6.03125-3.60547"/></g><g clip-path="url(#h)"><path fill="none" stroke="#000" stroke-linecap="round" stroke-linejoin="round" stroke-miterlimit="10" stroke-width=".5" d="M200.54297 481.57813l-6.5664-2.5"/></g><g clip-path="url(#i)"><path fill="none" stroke="#000" stroke-linecap="round" stroke-linejoin="round" stroke-miterlimit="10" stroke-width=".5" d="M213.73047 481.875l-6.3125-3.08984"/></g><g clip-path="url(#j)"><path fill="none" stroke="#000" stroke-linecap="round" stroke-linejoin="round" stroke-miterlimit="10" stroke-width=".5" d="M227.17969 481.5664l-6.57813-2.47656"/></g><g clip-path="url(#k)"><path fill="none" stroke="#000" stroke-linecap="round" stroke-linejoin="round" stroke-miterlimit="10" stroke-width=".5" d="M240.40234 481.78516l-6.39453-2.91016"/></g><g clip-path="url(#l)"><path fill="none" stroke="#000" stroke-linecap="round" stroke-linejoin="round" stroke-miterlimit="10" stroke-width=".5" d="M253.96094 481.04688l-6.8789-1.4336"/></g><g clip-path="url(#m)"><path fill="none" stroke="#000" stroke-linecap="round" stroke-linejoin="round" stroke-miterlimit="10" stroke-width=".5" d="M253.96094 481.04688l.6836 2.35546"/></g><g clip-path="url(#n)"><path fill="none" stroke="#000" stroke-linecap="round" stroke-linejoin="round" stroke-miterlimit="10" stroke-width=".5" d="M267.3164 479.84375l-6.96093.96875"/></g><g clip-path="url(#o)"><path fill="none" stroke="#000" stroke-linecap="round" stroke-linejoin="round" stroke-miterlimit="10" stroke-width=".5" d="M267.3164 479.84375l1.4375 1.98828"/></g><g clip-path="url(#p)"><path fill="none" stroke="#000" stroke-linecap="round" stroke-linejoin="round" stroke-miterlimit="10" stroke-width=".5" d="M280.625 479.8086l-6.94922 1.04296"/></g><g clip-path="url(#q)"><path fill="none" stroke="#000" stroke-linecap="round" stroke-linejoin="round" stroke-miterlimit="10" stroke-width=".5" d="M280.625 479.8086l1.46094 1.96874"/></g><g clip-path="url(#r)"><path fill="none" stroke="#000" stroke-linecap="round" stroke-linejoin="round" stroke-miterlimit="10" stroke-width=".5" d="M293.92969 479.75L287 480.90625"/></g><g clip-path="url(#s)"><path fill="none" stroke="#000" stroke-linecap="round" stroke-linejoin="round" stroke-miterlimit="10" stroke-width=".5" d="M293.92969 479.75l1.4961 1.94922"/></g><g clip-path="url(#t)"><path fill="none" stroke="#000" stroke-linecap="round" stroke-linejoin="round" stroke-miterlimit="10" stroke-width=".5" d="M307.25 479.77734l-6.9375 1.10157"/></g><g clip-path="url(#u)"><path fill="none" stroke="#000" stroke-linecap="round" stroke-linejoin="round" stroke-miterlimit="10" stroke-width=".5" d="M307.25 479.77734l1.47656 1.96094"/></g><g clip-path="url(#v)"><path fill="none" stroke="#000" stroke-linecap="round" stroke-linejoin="round" stroke-miterlimit="10" stroke-width=".5" d="M320.4414 479.25781l-6.6914 2.14063"/></g><g clip-path="url(#w)"><path fill="none" stroke="#000" stroke-linecap="round" stroke-linejoin="round" stroke-miterlimit="10" stroke-width=".5" d="M320.4414 479.25781l1.75782 1.71094"/></g><g clip-path="url(#x)"><path fill="none" stroke="#000" stroke-linecap="round" stroke-linejoin="round" stroke-miterlimit="10" stroke-width=".5" d="M333.73438 479.1875l-6.64454 2.28516"/></g><g clip-path="url(#y)"><path fill="none" stroke="#000" stroke-linecap="round" stroke-linejoin="round" stroke-miterlimit="10" stroke-width=".5" d="M332.76563 479.51953l.89843.83594"/></g><g clip-path="url(#z)"><path fill="none" stroke="#000" stroke-linecap="round" stroke-linejoin="round" stroke-miterlimit="10" stroke-width=".5" d="M346.94922 478.92969l-6.44531 2.79687"/></g><g clip-path="url(#A)"><path fill="none" stroke="#000" stroke-linecap="round" stroke-linejoin="round" stroke-miterlimit="10" stroke-width=".5" d="M346.01172 479.33594l.96094.76562"/></g><g clip-path="url(#B)"><path fill="none" stroke="#000" stroke-linecap="round" stroke-linejoin="round" stroke-miterlimit="10" stroke-width=".5" d="M359.82031 478.17969l-5.5586 4.30078"/></g><path fill="none" stroke="#000" stroke-linecap="round" stroke-linejoin="round" stroke-miterlimit="10" stroke-width=".5" d="M359.01172 478.80469l1.11719.5039"/><g clip-path="url(#C)"><path fill="none" stroke="#000" stroke-linecap="round" stroke-linejoin="round" stroke-miterlimit="10" stroke-width=".5" d="M373.33984 478.47266l-5.96875 3.71093"/></g><path fill="none" stroke="#000" stroke-linecap="round" stroke-linejoin="round" stroke-miterlimit="10" stroke-width=".5" d="M373.33984 478.47266l2.1211 1.23047"/><g clip-path="url(#D)"><path fill="none" stroke="#000" stroke-linecap="round" stroke-linejoin="round" stroke-miterlimit="10" stroke-width=".5" d="M386.52734 478.28125l-5.71093 4.09766"/></g><path fill="none" stroke="#000" stroke-linecap="round" stroke-linejoin="round" stroke-miterlimit="10" stroke-width=".5" d="M385.69531 478.875l1.09766.54688"/><g clip-path="url(#E)"><path fill="none" stroke="#000" stroke-linecap="round" stroke-linejoin="round" stroke-miterlimit="10" stroke-width=".5" d="M400.03125 478.57813l-6.08984 3.5039"/></g><g clip-path="url(#F)"><path fill="none" stroke="#000" stroke-linecap="round" stroke-linejoin="round" stroke-miterlimit="10" stroke-width=".5" d="M413.63281 481.44531l-6.66406-2.23047"/></g><g clip-path="url(#G)"><path fill="none" stroke="#000" stroke-linecap="round" stroke-linejoin="round" stroke-miterlimit="10" stroke-width=".5" d="M426.38672 482.49219l-5.53906-4.32813"/></g><g clip-path="url(#H)"><path fill="none" stroke="#000" stroke-linecap="round" stroke-linejoin="round" stroke-miterlimit="10" stroke-width=".5" d="M439.99219 482.05469l-6.1211-3.45313"/></g><g clip-path="url(#I)"><path fill="none" stroke="#000" stroke-linecap="round" stroke-linejoin="round" stroke-miterlimit="10" stroke-width=".5" d="M453.08203 482.40625l-5.66797-4.15625"/></g><g clip-path="url(#J)"><path fill="none" stroke="#000" stroke-linecap="round" stroke-linejoin="round" stroke-miterlimit="10" stroke-width=".5" d="M466.52734 482.21094l-5.93359-3.76563"/></g><g clip-path="url(#K)"><path fill="none" stroke="#000" stroke-linecap="round" stroke-linejoin="round" stroke-miterlimit="10" stroke-width=".5" d="M146.3164 469.65234l-4.6328-5.27734"/></g><path fill="none" stroke="#000" stroke-linecap="round" stroke-linejoin="round" stroke-miterlimit="10" stroke-width=".5" d="M146.3164 469.65234l-.86718 2.29688m.19531-3.0625l-.4336 1.14844m14.9961-1.02344l-5.78125-3.9961m5.78125 3.9961l-.28516 2.4375m13.5586-2.38281l-5.70313-4.10547m5.70313 4.10547l-.33203 2.43359m14.3086-4.5l-7.02345.02734m6.00391-.02343l.57813 1.08203m13.60156-2.10938l-6.71485 2.07422m5.73828-1.77344l.8711.86328m13.4414-1.10156l-6.7539 1.94922m6.7539-1.94922l1.70704 1.76172m11.35937-2.38672l-6.25781 3.19922m6.25781-3.19922l2.01172 1.40235m11.3125-1.37891l-6.27734 3.15234m6.27734-3.15234l2.0039 1.41797m11.3672-1.3086l-6.38673 2.9336m6.38672-2.9336l1.94922 1.48829m11.46485-1.2422l-6.58985 2.44141m6.58985-2.4414l1.83593 1.63281m11.34766-1.9414l-6.32422 3.05859m6.32422-3.0586l1.98047 1.44922m11.3164-1.49218l-6.28515 3.14453m6.28515-3.14453l2 1.42187m10.98047-1.95703l-5.62109 4.21484m5.6211-4.21484l2.22265 1.04297m10.23047-1.85938l-3.89453 5.84766m3.89453-5.84766l2.44531.2422m9.6914-.7461l-1.53515 6.85547m1.3125-5.85938l1.17969-.32422m12.16406-.71094l-1.14844 6.9336m1.14844-6.9336l2.32422-.78125m10.96875.77735l-1.10547 6.9414m.94531-5.92968l1.16016-.39844m12.03125-.64453l-.53906 7.0039m.46094-5.98437l1.125-.49219m11.9453-.53906l.10938 7.02734m-.09375-6.0039l1.07422-.59375m11.67188-.375l1.21484 6.91797m-1.03906-5.91407l.96875-.7539m10.98828 6.23437l3.57812-6.05078m9.73047 6.04688l3.58985-6.04297m8.34765 4.52734l6.34766-3.01172m11.16406 1.50781l-.01953-.20312-.0586-.1914-.09374-.17579-.46094-.375-.1914-.0586-.19923-.01952-.19921.01953-.19141.0586-.45703.375-.09766.17577-.0586.19141-.01952.20312.01953.19922.0586.19141.09765.17578.45703.375.1914.0586.19922.01953.19922-.01954.1914-.05859.46095-.375.09375-.17578.05859-.1914.01953-.19923m13.85156 3.14844l-3.11718-6.30078"/><g clip-path="url(#L)"><path fill="none" stroke="#000" stroke-linecap="round" stroke-linejoin="round" stroke-miterlimit="10" stroke-width=".5" d="M146.4414 456.22656l-4.8828-5.05469"/></g><path fill="none" stroke="#000" stroke-linecap="round" stroke-linejoin="round" stroke-miterlimit="10" stroke-width=".5" d="M146.4414 456.22656l-.7578 2.33203m14.88671-3.53515l-6.50781-2.64844m5.5586 2.26172l.125 1.22265m14.38671-2.42968l-7.0039.53906m5.98437-.46094l.65625 1.03516m13.67578-1.13672l-7 .58594m5.98047-.5l.66797 1.03125m13.30469-2.40235l-6.27735 3.15625m5.36328-2.69922l1.00391.71094m13.07031-1.44922l-5.96484 3.71875m5.96484-3.71875l2.1211 1.23047m11.32812-.99219l-6.23437 3.2422m6.23437-3.2422l2.01953 1.39063m10.9336-1.94922l-5.51172 4.35938m5.51172-4.35938l2.25.98438m11-1.06641l-5.3789 4.52344m5.3789-4.52344l2.27344.91406m11.24609-.64453l-5.78906 3.98438m5.78906-3.98438l2.17578 1.13281m11.17969-1.07422l-5.8711 3.8672m5.01563-3.3047l1.07812.58985m12.4961-1.83985l-4.67969 5.2422m4-4.48048l1.1914.29297m12.10157-1.54297l-3.27735 6.21485m2.80079-5.3086l1.22656-.0039m12.21875-1.0625l-2.58203 6.53906m2.20703-5.58594l1.21875-.14062m9.51562-.63672l3.32813 6.1875m-2.84375-5.28906l.67969-1.01954m11.8789.28516l3.875 5.85938m-3.3125-5.00782l.58594-1.07812m12.40625.07812l3.39453 6.15235m-2.89844-5.25782l.66797-1.02734m11.29688.79688l5.10547 4.82812m-4.36329-4.125l.32422-1.1836m12.82422-.01171l3.94922 5.8125m-3.375-4.96875l.57422-1.08203m10.65234 2.7539l6.98047.78125m-5.96484-.66797l-.45313-1.14062m12.90625 2.51953l6.67188-2.20703m-5.69922 1.88672l-.88672-.84766m13.54297 1.85547l6.04687-3.58203m-5.16796 3.0625l-1.04688-.63672m13.4961 1.17969l6.01953-3.625m-5.14454 3.09765l-1.05078-.6328m13.19141.52734l6.61719-2.35938m-5.65625 2.01563l-.90625-.82813m14.01172 2.40234l5.11328-4.8203m-4.36719 4.11718l-1.16406-.39063"/><g clip-path="url(#M)"><path fill="none" stroke="#000" stroke-linecap="round" stroke-linejoin="round" stroke-miterlimit="10" stroke-width=".5" d="M147.29688 441.59766l-6.59375-2.4297"/></g><path fill="none" stroke="#000" stroke-linecap="round" stroke-linejoin="round" stroke-miterlimit="10" stroke-width=".5" d="M146.33594 441.2461l.16797 1.21484m14.28906-1.57032l-6.95313-1.01171m5.94141.86328l.41406 1.15625m13.92578-1.90235l-6.98437.77735m5.96875-.66407l.6914 1.01172m13.64063-1.14062l-6.98438.80469m6.98438-.8047L188.82813 442m11.6914-2.92969L194 441.69921m6.51953-2.6289l1.8789 1.57813m11.02735-2.3164l-5.70312 4.10546m4.875-3.50781l1.10156.53906m12.57422-1.66797l-4.76563 5.16797m4.76563-5.16797l2.3711.6211m11.09374-.47266l-5.0664 4.86719M239 438.65625l1.16797.38281m12.9414-1.03125l-5.17578 4.75m5.17578-4.75l2.3125.8164m11.48047-.15234l-6.13672 3.42188m5.2461-2.92188l1.03125.66407m12.8164-1.6914l-5.41406 4.48046m4.625-3.82813l1.13281.46485m11.8125-2.03125l-3.09765 6.30469m14.28515-6.6172l1.15235 6.9297m9.44531-4.6875l6.58985 2.4453m7.9453-4.05859l4.14844 5.67188m-3.54296-4.84766l.53515-1.10156m12.28516.20313l3.92969 5.82421m-3.35938-4.97656l.57813-1.08594m12.16796.23438l3.92579 5.82812m-3.35547-4.98046l.57812-1.08204m10.92969 1.70313l6.40234 2.89453m7.16407-3.35547l5.89843 3.8164m-5.04296-3.26171l.10546-1.22266m11.78907 2.46485l7.02734.22265m-6.0039-.1914l-.54298-1.10157m12.85157 1.53907l6.99219-.71875m-5.97266.61328l-.6836-1.01563m12.96875.98438l7.01563-.4414m-5.9961.375l-.64062-1.04298m13.53125 2.85547l5.82422-3.9336m-5.82422 3.9336l-2.16797-1.15234m16.125 1.86719l4.53906-5.36329m-3.8789 4.58204l-1.19922-.26172m13.59375.79687l5.0625-4.875m-4.32813 4.16797l-1.16406-.38281"/><g clip-path="url(#N)"><path fill="none" stroke="#000" stroke-linecap="round" stroke-linejoin="round" stroke-miterlimit="10" stroke-width=".5" d="M147.125 428.67578l-6.25-3.21484"/></g><path fill="none" stroke="#000" stroke-linecap="round" stroke-linejoin="round" stroke-miterlimit="10" stroke-width=".5" d="M146.21484 428.21094l.01563 1.22656m14.53516-3.03125l-6.90235 1.32422m5.89844-1.13281l.76953.95703m13.27734-1.98047l-6.35937 2.99219m5.4336-2.5586l.98437.73438m13.5586-.15625l-6.96095.96484m5.94922-.82422l.71875.9961m11.35156 2.64062l-2.44921-6.58984m2.09375 5.6289l-.81641.91797m15.76563-.78515l-5.00782-4.9336m17.13281-.79297l-2.625 6.51953m2.2422-5.5703l1.22265-.12891m11.05078-1.07032l.22656 7.02344m-.19531-6.0039l1.0625-.60938m14.59766.41406l-4.52735 5.3711m3.86719-4.58985l1.19922.25782m13.64062.05078l-6.2578 3.1914m19.9375-1.97656l-6.98829.76172m20.1914-1.32813l-6.76562 1.89454m5.78125-1.6211l.84766.89063m12.60547-2.64844L301.24609 429.5m4.33204-4.15625l1.16796.38281m10.66797-2.15625l-.63672 6.9961m10.5586-5.19922l6.14844 3.40234m-5.25391-2.90625l.01953-1.22656m11.96484 2.26562l7.01954.33204m-5.9961-.28516l-.52344-1.10938m19.8086.75l-6.96485.95704m20.1797-1.42579l-6.76563 1.89454m13.35547.13671l6.6875-2.16406m11.6914-1.98437l-3.4414 6.1289m11.80078-1.6914l6.46875-2.7461m13.59375 1.48828l-7.02344-.23046m18.49219 3.20703l-3.33203-6.1836m2.84765 5.28516l-.67969 1.01953m10.85157-.29687l3.92187-5.83204m-3.35156 4.98438l-1.21875-.1289m13.90625.9375l4.03516-5.75391m-3.44922 4.91797l-1.21485-.15235"/><g clip-path="url(#O)"><path fill="none" stroke="#000" stroke-linecap="round" stroke-linejoin="round" stroke-miterlimit="10" stroke-width=".5" d="M146.39453 416.32813l-4.78906-5.14844"/></g><path fill="none" stroke="#000" stroke-linecap="round" stroke-linejoin="round" stroke-miterlimit="10" stroke-width=".5" d="M157.66797 410.25781l-.70703 6.99219m.60547-5.97656l1.13672-.46094m12.28515-.55469l-.71484 6.99219m.60937-5.97656l1.13672-.46094m12.30469-.55078l-.75781 6.98437m.64843-5.96875l1.13672-.45703m9.88672.0625l4.04688 5.74219m-3.46094-4.90625l.55469-1.09766m11.76953 5.67578L213 411.21094m7.40234 2.96875l6.97657-.85547m-5.96094.73437l-.70313-1.0078m13.08985-.1836l6.80078 1.77343m-5.8086-1.51562l-.28515-1.19531m12.83594.3125l6.34375 3.02343m6.99218-3.0625l6.3047 3.10157m8.96874-4.85547l2.38672 6.60937m15.10547-5.16015l-5.96875 3.71093m5.10156-3.17187l1.0586.61719m13.64453.46875l-7.01172.46093m5.99218-.39453l.64844 1.04297m13.6914-.6836l-7.01952-.39062m5.9961.33203l.51562 1.11329m11.67187 1.98828l-2.71875-6.48047m16.71094 6.10547l-4.07031-5.73047m18.84765 3.17969l-6.9961-.625m5.98048.53515l.47656 1.1289m13.53516.14063l-6.35938-2.98437m16.0039 4.97266l.98048-6.96094m-.83594 5.94531l-1.15235.42188m12.03907-.73438l5.55078-4.3086m-4.74219 3.6836l-1.1211-.5039m13.28907.60156l6.23047-3.25m9.8086 5.11718l.78124-6.98437m15.78906 5.52344l-5.73046-4.0625m4.89843 3.47265l-.15625 1.21485m13.83203-.08594l-4.78906-5.14453m4.09375 4.39844l-.40234 1.16015m14.5-.4961l-4.96094-4.97655m4.23828 4.25l-.35937 1.17578"/><g clip-path="url(#P)"><path fill="none" stroke="#000" stroke-linecap="round" stroke-linejoin="round" stroke-miterlimit="10" stroke-width=".5" d="M147.51172 400.29688l-7.02344.28125"/></g><path fill="none" stroke="#000" stroke-linecap="round" stroke-linejoin="round" stroke-miterlimit="10" stroke-width=".5" d="M146.48828 400.33984l.6211 1.0586m12.58984-3.53906l-4.76953 5.16015m4.07812-4.41015l1.1836.3125m12.29687-1.46485l-3.71875 5.96485m3.17969-5.09766l1.22266.08594m12.28906-1.14063l-3.03125 6.33985m2.58984-5.41797l1.22656-.0547m14.4297 1.48048l-6.83204 1.64062m5.83984-1.40234l.8125.92187m13.57813-.0078l-6.9961-.66407m6.9961.66406l.9414 2.26563m12.3047-1.83594l-6.85938-1.52344m5.86328 1.30078l.32422 1.1836m14.0664-1.89063l-7.01953.33594m6-.28516l.625 1.05078m13.6836-1.39062l-6.96875.91406m5.95703-.78125l.71094 1m13.64453-.67578h-7.02735m6.00782 0l.57421 1.08594m13.75391-1.33203l-7.01172.49609m5.99219-.42578l.64844 1.03906m13.6289-1.53906l-6.89453 1.35547m6.89453-1.35547l1.54688 1.90234m11.76172-1.92578l-6.88672 1.39844m5.88672-1.19531l.78125.94921m13.58984-.76171l-6.9961.62109m5.98048-.53125l.66796 1.02734m13.6797-.82812l-7.02735.04297m6.0039-.03906l.58204 1.08203m13.48828.27734l-6.4922-2.6836m5.54688 2.29298l.1211 1.21875m12.4375.98437l-3.08985-6.3125m11.40235 2.52344l6.91406 1.26562m6.9336 1.3164l5.84765-3.89843m11.27734 5.35156l-1.76953-6.80078m13.7539 6.88281l.89454-6.96875m-.76562 5.95704l-1.14844.43359m15.92969.41406l-2.29688-6.64062m1.96094 5.67578l-.83203.89844m13.6328.24609l-.59765-7m.51172 5.98438l-1.03125.66406m16.49219-.54297l-4.71484-5.21094m4.02734 4.45313L451.5 403.4414m14.83984-.85157l-5.55859-4.30078m4.75 3.67188l-.20703 1.21094"/><g clip-path="url(#Q)"><path fill="none" stroke="#000" stroke-linecap="round" stroke-linejoin="round" stroke-miterlimit="10" stroke-width=".5" d="M147.39844 386.23438l-6.79688 1.77734"/></g><path fill="none" stroke="#000" stroke-linecap="round" stroke-linejoin="round" stroke-miterlimit="10" stroke-width=".5" d="M146.41016 386.4961l.83203.90234m13.58594-.1914l-7.02735-.16407m7.02734.16406l1.10157 2.1914m12.20312-2.54296l-7.00781.53515m7.00781-.53515l1.3125 2.07422m11.75-3.13672l-6.5039 2.66015m6.5039-2.66015l1.88672 1.57031m11.50781-1.35937l-6.66015 2.23828m6.66015-2.23828l1.78125 1.6875m11.71485-.72657l-7.01953.31641m5.99609-.26953l.625 1.05469m13.64453-.23438l-6.88281-1.41797m5.88281 1.21094l.34375 1.17969m14.04297-1.64844l-7.02734-.0664m7.02734.0664l1.13281 2.17969m12.17969-2.3711l-7.01953.32032m7.01953-.32032l1.25 2.10938m12.0625-1.73828l-7.01563-.42578m7.01563.42578l1.01563 2.23437m12.2578-1.88281l-6.93359-1.125m6.9336 1.125l.79297 2.32031m12.5039-2.20312l-6.89453-1.36328m5.89063 1.16406l.35546 1.17578m13.77735-2.96094l-6.52735 2.60547m5.57813-2.22656l.9375.79297m11.89844-2.86719l-3.66797 5.9961m3.13281-5.125l1.22656.07421m12.19141-1.16797l-2.80469 6.44141m2.39844-5.5039l1.22266-.09766m10.57421-1.09375l1.04297 6.94922m-.89062-5.9375l.98828-.73047m11.03125.09765l3.33203 6.19141m-2.84766-5.28906l.6836-1.01953m10.55078 1.91015l6.52344 2.60938m-5.57422-2.23047l-.13281-1.22266m12.26171 1.82422l7 .64453m-5.98046-.55078l-.47657-1.13281m13.26563 3.17969l6.01172-3.63672m-5.13672 3.10547l-1.05469-.62891m14.86328 2.44922l3.27735-6.21485m-2.80079 5.3125l-1.22656.00391m13.78906.73828l3.82422-5.89453m-3.26562 5.03906l-1.22266-.10937m15.86719 1.53125l.05078-7.02735m-.04297 6.00391l-1.08984.57031m13.95703.42188l.92969-6.96485m-.79297 5.95313l-1.15235.42578m14.90235.61719l-.21485-7.02344m.1836 6l-1.0625.60938"/><g clip-path="url(#R)"><path fill="none" stroke="#000" stroke-linecap="round" stroke-linejoin="round" stroke-miterlimit="10" stroke-width=".5" d="M147.5 374.10547l-7-.59766"/></g><path fill="none" stroke="#000" stroke-linecap="round" stroke-linejoin="round" stroke-miterlimit="10" stroke-width=".5" d="M147.5 374.10547l.96484 2.25781M160.82422 374l-7.01563-.38672m7.01563.38672l1.03125 2.22656m-2.05469-2.28125l.51563 1.11328m13.80468-1.66015l-6.98047.82031m6.98047-.82031l1.39453 2.01562m-2.41015-1.89844l.69922 1.01172m13.63281-1.12109l-6.98438.80078m6.98438-.80078l1.39063 2.02344m-2.40625-1.90625l.6953 1.01172m13.62891-1.15625l-6.97265.85937m6.97265-.85937l1.41016 2.0078m11.9336-1.54296l-7.02735-.07031m7.02734.07031l1.12891 2.17969m12.1836-2.14063l-7.02344-.14844m6.0039.12891l.55078 1.09375m13.1797.82031l-5.81642-3.9375m4.97266 3.3672l-.13281 1.21874m14.75781-1.63672l-6.7461-1.96484m6.7461 1.96484l.5 2.40235m12.5586-1.76172l-6.23438-3.24219m6.23438 3.24219l.01953 2.45312m13.59765-3.26172l-6.83593-1.625m6.83593 1.625l.61719 2.375m12.78125-2.91406l-7.00781-.54687m7.00781.54687l.98047 2.25m12.125-1.29687l-6.58594-2.45313m5.625 2.09766l.16406 1.21484m14.19532-1.11719l-6.75391-1.9375m5.77344 1.65625l.2539 1.19922m14.14454-2.375l-6.96094.97266m5.94922-.82813l.71875.9922M346.1328 371.25l-4.8164 5.11719m4.11718-4.3711l1.1836.32032m8.63672-1.53125l3.57422 6.04687m-3.57422-6.04687l1.27734-2.09375m11.01953 3.0039l5.61328 4.22656m-5.61328-4.22656l.38281-2.42578m.4336 3.03906l.1914-1.21093m11.62891 2.2578l6.96875.90235m-6.96875-.90234l-.86328-2.29297m14.3711 1.51563l6.58202 2.46093m-6.58203-2.46094l-.32031-2.43359m13.41797 3.46094l7.01562.40625m-7.01562-.40625l-1.02344-2.22656m14.49219 3.47656l6.70703-2.09766m-5.73047 1.79297l-.8711-.85937m13.16016.99218l6.8086-1.75m-6.8086 1.75L431.875 372.875m15.1211 2.26563l6.5039-2.66407m-6.5039 2.66406l-1.88672-1.5703m15.79296 2.53515l5.31641-4.59375m-4.54297 3.92578l-1.14453-.44531"/><g clip-path="url(#S)"><path fill="none" stroke="#000" stroke-linecap="round" stroke-linejoin="round" stroke-miterlimit="10" stroke-width=".5" d="M147.51172 360.60938l-7.02344-.23438"/></g><path fill="none" stroke="#000" stroke-linecap="round" stroke-linejoin="round" stroke-miterlimit="10" stroke-width=".5" d="M147.51172 360.60938l1.07812 2.20703m-2.10156-2.23829l.53906 1.10157m13.79688-1.3789l-7.01563.3828m7.01563-.3828l1.26562 2.10155m-2.28906-2.04296l.63672 1.04687m13.70313-.73828l-7.01954-.34766m7.01953.34766l1.04297 2.22265m12.19922-1.66796l-6.875-1.46094m6.875 1.46094l.67578 2.35937m12.71485-3.14453l-7.02735.10938m6.00391-.09375l.59375 1.07421m13.72656-.66796l-6.98828-.73438m5.97266.6289l.45703 1.13673m11.30078 1.99218l-1.84375-6.78125m16.44531 6.125l-4.41797-5.46484m3.77735 4.66797l-.48047 1.1289m14.8789-.7578l-5.30078-4.61329m4.52735 3.9414l-.27735 1.19532m14.7461-1.05469l-6.0625-3.55078m5.17969 3.03516l-.05079 1.22265m14.08985-.46094l-5.7461-4.04296m5.7461 4.04296l-.30078 2.4336m13.59765-2.40625l-5.70703-4.09766m5.70703 4.09766l-.32812 2.42969m14.03125-3.125l-6.48438-2.71094m6.48438 2.71094l.22656 2.4453m12.76172-1.83983l-5.83203-3.91797m4.98437 3.34765l-.125 1.21875m11.34375.90625l.0586-7.02734m11.52343.47265l3.51953 6.08204m-3.0078-5.19922l.65234-1.03906m11.0078 1.21875l5.8086 3.95703m-4.96484-3.38282l.13672-1.21875m12.36328.60547l5.7539 4.03516m-5.7539-4.03516l.30078-2.4336m12.39844 4.07423l6.98437.75m-6.98437-.75l-.91407-2.27735m14.33204 1.72657l6.77734 1.85546m-6.77734-1.85546l-.53907-2.39454m13.85157 2.40235l6.78125 1.83594m-6.78125-1.83594l-.54688-2.39063m14.36328 5.3086l5.78125-4m-4.9414 3.41797l-1.08985-.5625m13.76953-3.1172l5.3711 4.52735m7.1211-2.46094l7.01562.39063m-5.9961-.33203l-.51172-1.11328m17.90625 4.38281l-3.17968-6.26563m2.71484 5.35547l-.70313 1.00391"/><g clip-path="url(#T)"><path fill="none" stroke="#000" stroke-linecap="round" stroke-linejoin="round" stroke-miterlimit="10" stroke-width=".5" d="M147.125 345.57422l-6.25 3.20703"/></g><path fill="none" stroke="#000" stroke-linecap="round" stroke-linejoin="round" stroke-miterlimit="10" stroke-width=".5" d="M147.125 345.57422l2.01563 1.39844m11.07421-1.77735l-5.80078 3.96485m4.95703-3.38672l1.08594.5664m13.47656-.35156l-6.60937 2.38281m5.64844-2.03906l.91015.82422m13.53516-.51563l-6.94531 1.07422m5.93359-.91796l.73438.98046m11.14062-.59765l-.01953-.19922-.0586-.19531-.09375-.17579-.45703-.375-.1914-.05859-.19922-.01953-.19922.01953-.19531.0586-.45703.375-.09375.17578-.0586.1953-.01953.19923.01953.19922.0586.1914.09375.17578.45703.375.19531.0586.19922.01953.19922-.01953.1914-.0586.45703-.375.09375-.17578.0586-.1914.01953-.19922m9.42188 2.02344l5.74218-4.05079m-4.90625 3.46094l-1.09375-.55078m13.15625.35156l6.57813-2.47265m-5.6211 2.11328l-.92187-.8125m13.10937.54297l6.91797-1.21485m-6.91797 1.21485l-1.51172-1.9336m14.83594 1.98828l6.90235-1.32421m-6.90235 1.32421l-1.53906-1.91015m15.45313 3.30078l5.70312-4.10547m7.03516 2.83203l6.85547-1.5586m-5.85547 1.33204l-.8047-.92969m13.25782 1.60938l6.57813-2.46485m-5.6211 2.10938l-.91797-.8125m13.08594.42187l6.96094-.97265m-5.94922.83203l-.71875-.9961m13.02344.16797l6.95703.96485m-5.94531-.82422l-.42188-1.15235m12.70313 1.17579l7 .63671m-5.98047-.54296l-.47656-1.13282m12.76562 1.13281l7.01172.44922m-7.01172-.44921l-1.01172-2.23438m14.3711 1.875l6.92578 1.17188m-6.92578-1.17188l-.77735-2.32813m14.73438.81641l5.64062 4.1914m-5.64062-4.1914l.37109-2.42578m12.66406 2.8711l6.20313 3.30077m-5.30078-2.8203v-1.22657m13.10156-.16016l4.82422 5.11329m-4.82422-5.11329l.78906-2.32421m14.04297 8.27734l1.79297-6.79297m-1.53516 5.80469l-1.1914.28125m18.42187-1.42578l-6.55469-2.52735m5.60157 2.16016l.14843 1.21875m14.35157-2.2461l-7.01953.26563m6-.22656l.61718 1.0586m13.61328-1.83204l-6.8125 1.73047m5.82032-1.47656l.82422.90625m13.45312.67968l-6.75-1.94921m5.76563 1.66796l.2539 1.19922"/><g clip-path="url(#U)"><path fill="none" stroke="#000" stroke-linecap="round" stroke-linejoin="round" stroke-miterlimit="10" stroke-width=".5" d="M146.98438 332.00781l-5.96875 3.71094"/></g><path fill="none" stroke="#000" stroke-linecap="round" stroke-linejoin="round" stroke-miterlimit="10" stroke-width=".5" d="M146.98438 332.00781l2.12109 1.23047m-2.98828-.6914l1.0586.61718m11.67577-2.46094l-3.07422 6.32032m3.07422-6.32031l2.45313-.08985m10.45312-.07812l-2.2539 6.65625m1.92578-5.6875l1.21094-.19922m11.3164-.95703l-.02344 7.02734m.01953-6.0039l1.08594-.57032m9.76172.55469l4.91797 5.01562m-4.91797-5.01562l.74219-2.33985m12.08203 2.94141l5.90234 3.8125m-5.90234-3.8125l.20703-2.44531m12.69531 3.33984l6.72657 2.02344m-6.72657-2.02344l-.48047-2.40625m13.65625 3.71094l7.00391-.58984m-7.0039.58984l-1.32813-2.0625m2.34766 1.97656l-.66407-1.03125m12.95703 1.04688l7.01172-.44531m-7.01172.4453L245.72656 332m2.3086 2.02344l-.64453-1.04688m12.9414.63281l7.00781.50391m-7.0078-.5039l-.9961-2.2422m14.32422 2.89844l6.98047-.80468m-6.98047.80469l-1.39453-2.01954m14.9453 2.94141l6.51173-2.64844m-6.51172 2.64844l-1.88281-1.57422m14.96484-.16015l6.97656.8203m-6.97656-.8203l-.89063-2.28516m14.1836 2.54687l7.01953.29688m-7.01953-.29688l-1.0586-2.21484m2.07813 2.25781l-.52735-1.10937m12.85157.74219l6.96094.9453m-6.96094-.9453l-.84766-2.3047m14.14063 2.52344l7.0078.50782m-7.0078-.50781l-.9922-2.2461m2.01173 2.32031l-.4961-1.125m12.96875.17579l6.65235 2.2578m-6.65235-2.2578l-.39453-2.42188m1.36328 2.75l-.19921-1.21094m12.64062.6289l6.46094 2.76563m-6.46094-2.76562l-.20703-2.44531m1.14844 2.84765l-.10547-1.22265m13.21875-.27344l4.98437 4.95312m8.28516-4.90625l5.07422 4.85938m-5.07422-4.85938l.66406-2.35937m12.1211 3.07422l6.1328 3.42578m11.78907 1.44922l-3.07813-6.32031m2.62891 5.39843l-.72265.99219m15.64453-.98047l-5.39454-4.5039m5.39454 4.5039l-.50391 2.40235m13.29297-7.41407l-4.33985 5.52344m3.70704-4.72266l1.20703.21875m14.04687 1.25391l-6.95703.97656m5.94531-.83594l.72266.9922"/><g clip-path="url(#V)"><path fill="none" stroke="#000" stroke-linecap="round" stroke-linejoin="round" stroke-miterlimit="10" stroke-width=".5" d="M147.28906 319.3086l-6.57812 2.47656"/></g><path fill="none" stroke="#000" stroke-linecap="round" stroke-linejoin="round" stroke-miterlimit="10" stroke-width=".5" d="M147.28906 319.3086l1.83985 1.625m-2.79688-1.26173l1.83984 1.6211m12.50782-1.7539l-6.73047 2.01562m6.73047-2.01563l1.72656 1.7461m-2.70313-1.45313l1.72266 1.7461m-2.70312-1.45313l.86328.875m14.53515-.84375l-6.98437.78125m6.98437-.78125l1.38672 2.02344m-2.40234-1.91016l1.38672 2.02735m12.95312-2.03516l-7.0039.57031m7.0039-.57031l1.32422 2.0664m-2.33984-1.98437l1.32422 2.0664m12.97265-2.4414l-6.9336 1.16016m6.9336-1.16016l1.49219 1.94531m-2.5-1.77734l1.49219 1.94531m-2.5039-1.77734l.75.97265m14.3789-2.03515l-6.52344 2.60937m6.52344-2.60937l1.875 1.58594m-2.82422-1.20704l1.875 1.58594m-2.82422-1.20312l.9375.78906m14.15234-1.82813l-6.27343 3.16407m6.27343-3.16407l2.00391 1.41797m-2.91797-.95703l2.0039 1.41797m-2.91405-.95703l1 .70703m14.23046-1.42969l-6.45703 2.76953m6.45703-2.76953l1.91407 1.53906m-2.85157-1.13671l.95703.76953m13.40625-.8789l-6.67968 2.18358m5.70703-1.86718l.88672.85156m10.79687-3.51172l-1.46875 6.8711m1.2539-5.8711l1.1797-.33984m12.53125-.61719l-1.83204 6.78516m10.73438-3.7461l6.99219.70313m-5.97266-.60156l-.46484-1.13282m12.77344 1.84766l6.96875-.92578m-6.96875.92578l-1.42579-1.9961m14.79297.77735l6.86328 1.50781m-6.86328-1.50781l-.66015-2.36328m14.22656 1.625l6.35937 2.98828m-6.35937-2.98828l-.1211-2.45313m15.70704.55469l1.8203 6.78516m13.4375-6.75l-2.0664 6.71484m1.76563-5.73828l1.20312-.23438m9.73438-.49218L372 323.65234m-2.8086-5.30468l.6875-1.01563m10.33594 2.59375l6.91407 1.2461m-5.91016-1.06641l-.375-1.16797m14.33594-1.40234l3.61328 6.02734m-3.08984-5.15234l.6328-1.05079m13.54688-.30078l.83594 6.97657m-.71484-5.96094l1.0078-.69922m12.46485 6.6836l.27735-7.01954m-.23438 6l-1.10547.53125m16.01563.15625l-2.9961-6.35547m2.5625 5.4297l-.73437.98437m16.26953-1.98829l-6.57031-2.5m5.61328 2.13672l.15234 1.21875m13.66016-4.1953l-5.64844 4.18358"/><g clip-path="url(#W)"><path fill="none" stroke="#000" stroke-linecap="round" stroke-linejoin="round" stroke-miterlimit="10" stroke-width=".5" d="M466.38672 318.45703l2.21484 1.05469"/></g><path fill="#00f" fill-rule="evenodd" d="M170.75781 472.08594h8.6211V461.9414h-8.6211v10.14453"/><path fill="azure" fill-rule="evenodd" d="M172.59375 463.77344h.83203v2.82422h3.28516v-2.82422h.83203v6.48047h-.83203v-2.91797h-3.28516v2.91797h-.83203v-6.48047"/><path fill="#00f" fill-rule="evenodd" d="M388.23828 436.57813h8.61719v-10.14454h-8.61719v10.14454"/><path fill="azure" fill-rule="evenodd" d="M390.07031 428.26563h.83594v2.82421h3.28516v-2.82421h.83203v6.48046h-.83203v-2.91406h-3.28516v2.91406h-.83594v-6.48046"/><path fill="#00f" fill-rule="evenodd" d="M201.82813 396.63281h8.61718v-10.14453h-8.61719v10.14453"/><path fill="azure" fill-rule="evenodd" d="M203.66016 388.32031h.83203v2.82422h3.28906v-2.82422h.83203v6.48047h-.83203v-2.91406h-3.28906v2.91406h-.83203v-6.48047"/><path fill="#ff3030" fill-rule="evenodd" d="M317.91797 365.5664h7.69531v-10.14452h-7.69531v10.14453"/><path fill="azure" fill-rule="evenodd" d="M319.7539 357.2539h.83204v5.73829h3.1914v.74219h-4.02343v-6.48047"/><path fill="#00f" fill-rule="evenodd" d="M343.85547 356.6875h8.61719v-10.14453h-8.6172v10.14453"/><path fill="azure" fill-rule="evenodd" d="M345.6875 348.375h.83203v2.82422h3.28906V348.375h.83204v6.48047h-.83204v-2.91406h-3.28906v2.91406h-.83203V348.375"/><path fill="#ff3030" fill-rule="evenodd" d="M455.50781 338.9375h7.6914v-10.14844h-7.6914v10.14844"/><path fill="azure" fill-rule="evenodd" d="M457.33984 330.625h.83594v5.73828h3.1914v.73828h-4.02734V330.625"/><path fill="#ffffe0" fill-rule="evenodd" d="M252.97656 372.17578h22.17969v-10.1914h-22.17969v10.1914"/><path fill-rule="evenodd" d="M256.47656 363.8164h.50781v6.29688h-.78515v-4.49219h-1.39063v-.55468l.5625-.06641.25-.05078.23047-.08985.20313-.14453.17578-.20703.14062-.29687.10547-.39453m4.8125 0l.23047.01953.21875.05469.20703.08984.19531.1211.1875.14843.17188.17578.30078.42188.24219.49218.17969.54688.11328.57812.03515.58985-.03515.59375-.11328.58594-.1797.55468-.24218.5-.30078.42969-.17188.17969-.1875.15234-.1953.125-.20704.08985-.21875.05859-.23047.01953-.22656-.01953-.22266-.0586-.20703-.08984-.19531-.125-.1836-.15234-.17187-.17969-.30078-.42969-.2461-.5-.17968-.55469-.10938-.58593-.03906-.59375h.83203l.03125.5664.08203.50391.125.4414.16016.375.1914.30079.21094.22265.22266.13672.22656.04688.22656-.04688.22266-.13672.21094-.22265.1914-.30078.16407-.375.125-.44141.08203-.5039.02734-.56641-.02734-.5586-.08203-.5-.125-.4375-.16406-.36328-.19141-.29297-.21094-.21484-.22265-.13281-.22657-.04297-.22656.04297-.22266.13281-.21093.21484-.19141.29297-.16016.36328-.125.4375-.08203.5-.03125.5586h-.83203l.03906-.58985.10938-.57812.17969-.54688.24609-.49218.30078-.42188.17188-.17578.18359-.14844.19531-.1211.20703-.08983.22266-.0547.22656-.01952m5.09375 0h.50781v6.29687h-.78515v-4.49219h-1.39063v-.55468l.5586-.06641.2539-.05078.23047-.08985.20313-.14453.17187-.20703.14453-.29687.10547-.39453m2.82031 2.17578h.78907l.01953-.3164.0586-.28517.09765-.2539.14062-.21485.1836-.17578.22265-.1289.26563-.07813.3086-.02734.23437.01953.22656.0625.20313.10156.17968.14063.14844.17187.11328.20703.07031.23438.02735.26562-.02344.26954-.0664.22265-.10938.1914-.15625.17188-.19922.16406-.2461.16407-.63671.39062-.53516.3125-.4375.3164-.34765.32423-.26172.33594-.19141.35156-.125.3711-.07031.39062-.01953.42187h4.21093v-.74219h-3.33203l.08203-.28515.11329-.23438.14843-.20312.1875-.17969.23047-.17188.28125-.17578.71485-.41796.41796-.20313.34375-.23047.28125-.2539.21875-.26563.16407-.27734.11328-.28516.0625-.28516.01953-.28125-.04297-.3828-.11719-.34767-.1914-.30859-.25-.26172-.30079-.21484-.34765-.15625-.3789-.09766-.40626-.03515-.4375.03125-.39844.10156-.35156.16406-.3086.23438-.24608.30468-.1875.375-.11329.44532-.04296.51953"/><path fill="#ffffe0" fill-rule="evenodd" d="M395.0039 411.51563h22.1797V401.3203h-22.1797v10.19531"/><path fill-rule="evenodd" d="M398.5039 403.15625h.50782v6.29297h-.78516v-4.48828h-1.39062v-.55469l.5625-.0664.25-.0547.23047-.08984.20312-.14062.17578-.21094.14063-.29297.10547-.39453m4.8125 0l.23046.01953.21875.05469.20704.08984.19921.1211.1836.14843.17187.17579.30079.41796.24218.4961.17969.54687.11328.57813.03516.58984-.03516.59375-.11328.58594-.17969.55078-.24219.5039-.30078.42579-.17187.17969-.1836.15625-.19921.12109-.20704.09375-.21875.05469-.23046.01953-.22657-.01953-.22265-.0547-.20703-.09374-.19532-.1211-.18359-.15625-.17188-.17968-.30078-.42578-.24609-.50391-.17969-.55078-.10937-.58594-.03906-.59375h.83203l.03125.5625.08203.50781.125.44141.16015.375.19141.30078.21094.22266.22265.13672.22657.04687.22656-.04687.22265-.13672.21094-.22266.1914-.30078.16407-.375.125-.4414.08203-.50782.02735-.5625-.02735-.5625-.08203-.5-.125-.4336-.16406-.36718-.1914-.29297-.21094-.21094-.22266-.1328-.22656-.04688-.22657.04687-.22265.13281-.21094.21094-.1914.29297-.16016.36719-.125.4336-.08203.5-.03125.5625h-.83204l.03907-.58985.10937-.57813.17969-.54687.2461-.4961.30077-.41796.17188-.17579.1836-.14843.1953-.1211.20704-.08984.22265-.05469.22657-.01953m5.09375 0h.5078v6.29297h-.78515v-4.48828h-1.39062v-.55469l.5586-.0664.2539-.0547.23047-.08984.20312-.14062.17188-.21094.14453-.29297.10547-.39453m2.8203 2.17578h.78907l.01953-.3164.0586-.28907.09765-.25.14063-.21484.1836-.17578.22265-.1289.26562-.08204.3086-.02734.23828.02343.22265.0625.20313.10157.17969.13671.14843.17579.11329.20312.0703.23828.02735.26172-.02344.26953-.0664.22656-.10938.19141-.15625.17188-.19922.16015-.24609.16797-.63672.38672-.53515.3125-.4375.32031-.34766.32422-.26172.33594-.1914.35156-.125.36719-.07032.39453-.01953.41797h4.21094v-.73828h-3.33203l.08203-.28516.11328-.23828.14844-.19922.1875-.1836.23046-.16796.28125-.17578.71485-.41797.41797-.20703.34375-.23047.28125-.25.21875-.26563.16406-.28125.11328-.28125.0625-.28515.01953-.28125-.04297-.38281-.11718-.34766-.19141-.3086-.25-.26171-.30078-.21485-.34766-.15625-.3789-.10156-.40625-.03125-.4375.03125-.39844.09766-.35156.16796-.3047.23438-.25.30469-.1875.375-.11327.44531-.04297.51953"/></g></defs><use xlink:href="#X"/></svg>