<svg xmlns="http://www.w3.org/2000/svg" role="img" xmlns:xlink="http://www.w3.org/1999/xlink" viewBox="154.04 314.29 305.93 152.43"><defs><clipPath id="a"><path d="M144 311.67188h1v168.65625h-1zm0 0"/></clipPath><clipPath id="b"><path d="M144 311.67188h324v168.65625H144zm0 0"/></clipPath><clipPath id="c"><path d="M467 311.67188h1v168.65625h-1zm0 0"/></clipPath><clipPath><path d="M144 478h4v2.32813h-4zm0 0"/></clipPath><clipPath><path d="M154 477h7v3.32813h-7zm0 0"/></clipPath><clipPath><path d="M167 477h7v3.32813h-7zm0 0"/></clipPath><clipPath><path d="M180 478h8v2.32813h-8zm0 0"/></clipPath><clipPath><path d="M193 478h8v2.32813h-8zm0 0"/></clipPath><clipPath><path d="M207 478h7v2.32813h-7zm0 0"/></clipPath><clipPath><path d="M220 478h8v2.32813h-8zm0 0"/></clipPath><clipPath><path d="M233 478h8v2.32813h-8zm0 0"/></clipPath><clipPath><path d="M246 479h9v1.32813h-9zm0 0"/></clipPath><clipPath><path d="M260 479h8v1.32813h-8zm0 0"/></clipPath><clipPath><path d="M266 480h3v.32813h-3zm0 0"/></clipPath><clipPath><path d="M273 480h8v.32813h-8zm0 0"/></clipPath><clipPath><path d="M280 480h3v.32813h-3zm0 0"/></clipPath><clipPath><path d="M286 479h9v1.32813h-9zm0 0"/></clipPath><clipPath><path d="M293 480h3v.32813h-3zm0 0"/></clipPath><clipPath><path d="M300 479h8v1.32813h-8zm0 0"/></clipPath><clipPath><path d="M307 480h2v.32813h-2zm0 0"/></clipPath><clipPath><path d="M313 479h8v1.32813h-8zm0 0"/></clipPath><clipPath><path d="M320 480h2v.32813h-2zm0 0"/></clipPath><clipPath><path d="M326 479h9v1.32813h-9zm0 0"/></clipPath><clipPath><path d="M332 480h2v.32813h-2zm0 0"/></clipPath><clipPath><path d="M339 479h9v1.32813h-9zm0 0"/></clipPath><clipPath><path d="M345 479h3v1.32813h-3zm0 0"/></clipPath><clipPath><path d="M353 478h8v2.32813h-8zm0 0"/></clipPath><clipPath><path d="M359 479h2v1.32813h-2zm0 0"/></clipPath><clipPath><path d="M367 477h7v3.32813h-7zm0 0"/></clipPath><clipPath><path d="M381 477h6v3.32813h-6zm0 0"/></clipPath><clipPath><path d="M395 476h3v4.32813h-3zm0 0"/></clipPath><clipPath><path d="M406 479h9v1.32813h-9zm0 0"/></clipPath><clipPath><path d="M420 478h8v2.32813h-8zm0 0"/></clipPath><clipPath><path d="M433 478h8v2.32813h-8zm0 0"/></clipPath><clipPath><path d="M446 478h8v2.32813h-8zm0 0"/></clipPath><clipPath><path d="M452 480h2v.32813h-2zm0 0"/></clipPath><clipPath><path d="M460 478h7v2.32813h-7zm0 0"/></clipPath><clipPath><path d="M144 464h3v6h-3zm0 0"/></clipPath><clipPath><path d="M144 450h3v7h-3zm0 0"/></clipPath><clipPath><path d="M144 437h3v7h-3zm0 0"/></clipPath><clipPath><path d="M144 424h3v6h-3zm0 0"/></clipPath><clipPath><path d="M144 410h3v7h-3zm0 0"/></clipPath><clipPath><path d="M144 398h4v5h-4zm0 0"/></clipPath><clipPath><path d="M144 384h3v6h-3zm0 0"/></clipPath><clipPath><path d="M144 373h4v2h-4zm0 0"/></clipPath><clipPath><path d="M144 360h4v1h-4zm0 0"/></clipPath><clipPath><path d="M144 346h4v2h-4zm0 0"/></clipPath><clipPath><path d="M144 333h4v2h-4zm0 0"/></clipPath><clipPath><path d="M144 319h4v3h-4zm0 0"/></clipPath><g id="d" clip-path="url(#clip1)"><path fill="#fff" fill-opacity="0" fill-rule="evenodd" d="M-.0039-.0039h1000v1000h-1000zm0 0"/><path fill="#d3d3d3" fill-opacity="0" fill-rule="evenodd" d="M162.14844 355.86328l-.23438.29297.0586.23438.11718.17187.17578.23438.29297.34765.11328.0586.1172-.17188.05859-.23438.17578-.17578.46484-.17578h.69922l.23438.29297.28906.8164.0586.17579.17577.23047.35156.23437.69922.69922.17188.17578.23437.34766.23438.41015.28906.58204.41016.46484.23047.23438.23437.17578.11719.23046.17578.29297.17188 1.16407v.23437l.05859.28906.0586.1172.11718.11718.34766.41015.11718.17188.17578.17578.17579.23438.11718.17187.17188.35156.0586.23438.23437.40625.23437-.0586-.17578.17579-.0586.92968h-.58202l-.23438-.11328-.34766.11328-.11718.1172-.0586.29296-.05859.17578-.11719.17188-.46484.29296-.0586.23438-.05859.11328v.64453l.0586.17188v.41015l.05859.0586v.40625l.0586.40625.11718.17578.0586.0586.23046.64062-.0586.29297v.69921l-.05858.58204v.23437l-.0586.23047-.05469.35156v1.92188l.0547.11719h.42577l-.36719.11718-.02343.35156.89062 1.16797 1.74219.53907 1.33984.35937v.53906l.08985.8086.53515.71484 1.51953.26953.89063-.08594.08984 1.16407.53516.17969 1.16016-.1797 2.05468-.98437 1.16016-.36328 1.8789-.17578 1.69532-.17969-.17969.71875-1.51562.08594-1.25.08984-.8047.26954-1.07421.80859.26953.71875.53516.89844-.17969.625-.26563.80859.26563 1.07813.625.89843.80469.17969 1.25-.17969-.26563.72266.09766.5039.05469.29297v.17188l.05859.29297v.40625l.17578.11719.35156.11718h.40625l.29297-.17578.11328-.11719.0586-.11718.11719-.23047.05859-.17578.35156-.46485.23047-.17578.17578-.0586.17578.0586.0586.17578.11718.98828.0547.46875.05858.17188.1172.23437.17577.0586.81641.0586h.28906l.11719.23437.0586.40625.05859.35156v1.10547l.11719.29297.11718.34765.28906.69922.17579.35156.58203.75391.35156.17578.17188.0586.46875.23437.64062.46484.34766.23438.29297.17578.29296.05469.23047.0625.8164.34765.29298.17579.11328.17187.35156.35156.11719.17578.52344.64063v.28906l.05859.35156v.34766l.0586.35156.05859.28906.11719.0586.17187.0586h.17578l.58203.23437.17578.11719.17578.28906.17579.23437.11328.23438.29297.23047.11718.11718v.41016l.0586.05469.28906.23437.23438.11719.05859.11719.11719.17187.05859.11719.23047.23438.0586.17578.23437.05859.11719.0586-.1172.11327-.05859.1172v.11718l-.11718.29297-.1172.28906v.58203l.17579.11719.11719.0586.0586.11718.11718.11719.11328.0586.17578.34765.0586.35156.05859.40625v.17578l-.0586.17578-.11718.69922v.17188l.11719.17578.29296.29297h.40625l.17578.11719.1172.17187.11718.29297v.23437h-.52734l-.23047-.23437h-.23438l-.17578.0586-.0586.69921.0586.34766.11719.17578.17578.41015.11719.23047.28906.46875.17578.0547h.52344l.23437.05858.75782.64063.05859.29297v.23437l.0586.0586.23046.34765v.35157l-.11719.17187v.29297l.29297.28906.29297.17578.17188.0586.29297.17578.29297.11719.58203.40625.28906.23437.29297.17578.21875.16016.01562.01172.23047.17578.64063.52344.17578.23437.11719.17578.17578.17578.11328.17188v.64062l.11719.17579.46875.11718.58203.11719.23437.0586.23047.11327.29297.1172.11328.05859.58594.35156.28906.17187.17578.0625.17578.0547.17578.05858.69922.35157.28906.17578.23438.05469.28906.17578.23438.11719.64062.40625.29297.11718.17188.0586.23437.05859.41016.0586.23047.05859.23437.11719.0586.17187-.41016.17578.46875.0586.0586.29296.11327.23438.17578.05469.23438.05859.17578.0586.40625.11718.64063.23438.11718.17187.0586.23438v.17578l-.0586.11719-.05859.40625.23438.23437.11718.0586.34766.11718.64062.23047.17578.11719.28907.11719.17578.17578.23437.46484.58203 1.10547.17579.17578.34765.17578.17578.11719.35157.11719 1.04687.52343.23438.0586.46484.11328.29297.0586.46484.17577.75781.58204.23438.23437.34766.46484.17578.17579.28906.23437.8164.69922.29298.17578.28906.28906.29297.17578.29297.28907.6953.64062.17579.17578.29297.23438.28906.23437.46875.28906.64063.58204.34765.23437.23438.29297.34765.34766.35156.46484.9336.99219.34766.40625.11718.17578.23438.0586.11328.11718.64453.17578.23047.11328.23437.0586.29297.17578.23047.11719.9336.69921.40625.40625.23437.17579.40625.17578.23438.11718.8164.34766.34766.23438.23437.11718.29297.28906.23047.1172.75781.35156.35156.17187.23047.0586.29297.11718.23438.0586.8711.17578h.8164l.46875.23046.17187.0586.875.69922.46485.11719.29297.05859.17578.0586.23047.05859.46875.05859.34765.0586.35156.05859.40625.0586h.29297l.17188.05858v.23047l.17578.17579h.29297l.34765.05859.35157.0586.69922.11718h.64062l.46484-.23438.29297-.17578.17188-.11718.41015-.17188.28907-.17578.93359-.46484.46875-.29297.52344-.29297.46484-.17188.46484-.17578 1.05079-.46484.28906-.11719.41016-.11719.28906-.11718.52734-.17579 1.51563-.69921.58203-.34766.28906-.0586.29297-.05859.34766-.11719.875-.23046.35156-.1172h.11328l.23437-.05858.875-.23438.23438-.0586h.8125l.35156-.05859.8164-.11719.17188-.05859.35156-.05469.29297-.05859.23047-.0586.8164-.17577.17579-.0586h.34766l.23437-.0586.46485-.11718.7578-.17188.23438-.05859h.34766l.41015-.11719.28907-.05859 1.28515-.0586h.28907l.41015-.05859.23047-.0586h.17578l.875-.11718h.40625l.41016-.11719h.34765l.35157-.11328.8711-.0586h1.75l1.04687.28907.41015.11719.28906.11719.35157.11718.28906.1172 1.05078.17187.28906.05859h.29297l.29297.0586.17188.05859.41015.0586.17188.05858.11719.0586h.11718l.11719.0586.35156.05859h.11328l.41016.0664 1.92188.39453 1.92578.39454 1.51953.44921 1.69531.71875 2.14453.8047 1.60547-.71876 1.42969-.80469 1.16015-1.07812 1.25-.44922 3.03516-.71875 1.875-.35938 2.14453-1.34765 2.23438-1.2539 2.5-1.25782 1.6953-.44922 1.78517-.17969 1.16015-.26953.625.53906 1.33985-.26953.71484-.98828.98437-1.34375.44532-.17969.80468-.35937 1.875-.53906 1.78516-.44922 1.25-.26953 1.16016-.08985 1.69921-.08984 1.96094-.26953 1.25-.08985h.53906l.625-.08984h.89063l2.14453-.17969 2.41016-.17968 2.58984-.08985 1.69531.17969 1.60938.08984 1.42969.35938 1.16015.71875 1.875.98828 1.16016 1.52734.26562.71485.62891.08984.35547.89844.53515.53906.53516 1.52735 1.07422.35937h.53516l-.8047.53516.08985 1.70703.71485 2.69531.89062.80469.89453.98828.71485 1.25781 1.78515.53906 1.51953-.17968.35547 1.34375 1.60938-.8047.98047-.53905.26953.26953.3164-.21485.21875-.14453.80079.44922.44921-.35937h.35547l.53516-.26954.53906-.71875.53516-.26953.625-.98828 1.16015.44922.83985.3711 1.39453.61718 1.69531-.17969h1.60547l1.78516.08985.17968-1.70703.53516-1.34375.80469.26953.49219.84765.40234.40625-.08985.53907v.35937l.71485.44922.71094-.26953h1.42968l.35938.98828.44531 1.25781.71485 1.34375 1.25.62891 1.6953.6289.71485-.17968.17969-.53906.98047-.08985.44922.35938.08593 1.25781-.26562.6289-.53516.1797v.53906l.71485.98437.26562.53906.98438.98829.80078 1.07812-.26563.35938-.08984.89843-.625 2.33203-.35547 2.06641-.08984 1.79297-.1797.71875-.08983.53906v1.4375l-.98047 1.88281-.35938 1.70704-.53515.89843-.8047 1.16797-.26562.53906 2.05469 1.25391.08594.35938-.35547.53906-.08985-.17969v.8086l.08985 1.4375-.44531.71484-1.07422.09375-.26563.71484.53516.89844.80469.71875 1.16015.8086 1.33985.26952.4453.35938-.35546.44922-1.78906-.08985-1.25-.44921-.71485-.71875-.625-.08985-.17578 3.58985-.1875 1.30859h89.35938V311.69922h-55.26953v49.08203l.76171.125 3.28907.54297 2.02344 2.83594v2.7539l2.35156.33203 2.34765.33204h4.05079l-1.37891 4.16015-2.02344.70703-2.02344.70313-.54296.34375-2.59375 1.61719-.1875.11718-2.02344-2.07812-.73047-2.74219-2.67188-2.07813-1.375-3.5-.0664-.08203-1.95703-2.67187 2.75-1.41797v-49.08203h-118.2422v91.41406l.1172.03125.1328.01172.07423.07422.10547.04687.08984.0586.08594.0586.08984.05858.29688.29688.05859.08984.03125.1172.02734.11718.01563.13672-.03125.11719-.0586.08984-.05859.08594-.04297.10546-.04687.10157-.02735.1211v.14452l.17579.26953.14843.14844.07422.08594.07422.07422.04297.10547.0625.08984.0586.08594.04296.10547.0586.08984.04687.10156.04297.10547.0586.08594.11718.17969.07422.07421.0625.08594.0586.08985.04296.10546.0586.08985.05859.08594.0625.08984.0586.08984.04296.10157.11719.17968.07422.07422.0586.08594.07421.07422.08984.0586.10547.04687h.14844l.13281-.01563.13281.01563.10157-.04688.07422-.07422.04687-.10156-.01562-.13281v-.14844l-.04688-.10547-.02734-.11719-.04688-.10156-.02734-.1211-.04297-.10155-.0625-.08985-.04297-.10156-.04297-.10547-.03125-.11719-.01562-.1328-.01172-.13673.08594-.0586.05859-.08593.1211-.03125.04296.10547.01563.13281v.11719l.0586.10156.05858.08985.08985.05859.14844.14844.05859.08984.04297.10547-.01172.10156.08594.0586.10547.04687.08593.0586.08985.05859.07422.07422-.1172.02734-.10546.04688-.08594.05859-.07422.07422-.05859.08984-.0625.08594-.02734.1211-.04688.10156-.04297.10546-.03125.1172-.01172.1328-.01562.13282v.14844l.02734.11718.04688.10547.04297.10156.05859.08985.07422.07422.08984.05859.07422.07422.08985.0586.05859.08984.04297.10546.04687.10157.11719.03125.13281.01562h.14844l.11719-.03125.10547.04297.04296.10547.04688.10156.02734.1211.03125.11718.02735.1172.03125.12108.02734.1172.10547.04296.10156.04688.13281-.01563.14844.14844.0625.08594.07422.07421.07031.07422.08985.0625.10547.04297.10156.04297.11719.03125.13671.01563.1172-.03125.07421-.07422.02735-.11719-.01172-.13281-.03125-.1211-.02735-.11718.04297-.10547h.11719l.08984.0625.11719.02734h.14844l.13281.01563h.14844l.13281.01562.13281-.01562h.14844l.13281-.01563.13281-.01172.13672.01172.1172-.02734.1328-.01563.19141-.0586-.0586.17579-.01562.13281-.02734.1211-.01563.1328-.0586.08595-.1328.01562-.10547.04688-.10547.04296-.11719.03125-.11719.02735-.26562.03125h-.14844l-.13281.01562-.07422.07422.0586.08594.14843.14844.11719.17969.07422.0703.08984.0625.08985.0586.08593.0586.08985.05859.10156.04297.10547.0625.10547.04297.08593.05859.10547.04688.10156.04296.1797.1172.05859.08983-.04297.10157-.04688.10547.01563.1328.22265.22267.0586.08984.04297.10156.03125.1211.04296.10156.01563.13281.03125.11719.01172.13672.03125.11718.14844.14844.10156.04297.10547.04297.11719.03125.1328.01562.13673.01563h.11718l.1172-.03125.08983-.0586.04297-.10546.04688-.10157.04297-.10546.03125-.1172.01172-.1328v-.14844l-.01172-.13281-.01563-.13282-.03125-.11719-.04297-.10546-.04687-.10547-.04297-.10156-.04297-.10547-.01562-.13282.01562-.1328.02735-.1172.03125-.11718.02734-.1211.04687-.10156.08985-.0586.08594-.0625.07421-.07421.08985-.0586.22265-.22265.0586-.08594.07422-.07422.11718-.17969.0586-.08593v-.14844l-.07422-.07422-.10156-.04688-.10547-.04296-.10156-.04297-.0586-.08985-.04687-.10546-.02735-.1172.08985-.05859.11718-.03125.10157-.04296.17968-.1172.14844-.14843.01172-.13281-.01172-.10547-.08984-.0586-.13281.01563h-.14844l-.13281.01563-.13282-.01563-.1211-.03125-.08593-.0586-.07422-.07421-.0586-.08985-.0625-.08593-.11718-.1797-.0586-.08593.03126-.1211.08594-.05859.12109-.03125.0586-.08593v-.1211l-.03126-.11719-.0586-.08984-.05858-.08594-.04688-.10546-.02734-.1172-.01563-.1328.0586-.08985.07421-.07422.08985-.0586.11719-.17968.07421-.07422.0586-.08594.14844-.14843.12109-.03125.13281-.01563.13281.01563.07422.07422.04297.10546.01563.13282-.03125.11719-.1172.03125-.1328.01171-.14844.14844-.04297.10547-.04688.10156-.02734.1211-.03125.11718v.14844l.03125.11719.04297.10547.0586.08984.07421.07031.07422.07422.11719.03125.1211.02735.11718-.02735.13281-.01562h.11719l.08984.0586.07422.07421.04688.10547.0586.08594.10155.04687.13282.01563.10546.04296.08594.0586-.01172.10547-.07421.07422-.1797.11718-.05859.08985-.08984.0586-.07031.07421-.07422.07422-.0625.08984-.02735.11719-.01562.13281.01563.13281-.01563.13282v.14844l.01563.1328.02734.1172.03125.12109.07422.07422.08984.0586.08594.05858.08984.0586.11719.03125v.08594l-.10156.04687-.08985.0586-.26562.03125-.11719.02734h-.14844l-.10546.04297-.10157.04687-.0586.08985-.0625.23437-.01171.13281-.03125.1211-.01563.13281v.29297l-.01171.13281.01171.13672.01563.13281.13281.01563.13281.01172.1211.03125.08594.05859.07421.07422.04688.10547.04297.10156.01562.13281v.44531l-.01562.13282v.44531l.03125.26563.02734.11718.01563.13281.03125.1172.08594.21093.03125.26563v.14843l-.03125.11719-.02735.11719-.03125.1211-.02734.11718-.03125.11719-.03125.12109-.01172.13281-.01563.13281.08985.0586.11719-.03125.10156.01562.04687.10547-.03125.26563v.4414l-.04297.10547-.04687.10547-.04297.10156-.04297.10547-.0586.08594-.03124.1211-.04297.11718-.03125.11719-.01563.13281.01563.13281.0586.08985.10546.04687.08594.0586.0586.08593-.01173.13672-.03125.11719-.04296.10156v.44531l-.01563.13282v.14844l-.03125.11718-.04297.10547-.02734.11719-.04688.10547-.04297.10156-.03125.1211-.02734.11718-.03125.13281-.03125.1172-.02734.11718-.04297.10547-.03125.11719-.03125.12109-.01172.13281-.01563.13281v.29688l.02735.11719v.14843l.04687.39844.02735.11719.05859.08984.1211.03125h.14843l.13281-.01562.0586.08984v.11719l-.0586.08984-.08984.0586-.10156.04296-.10547.04688-.08985.0586-.08593.05859-.13672.01562-.11719-.03125-.13281-.01562-.10156.04687-.0625.08594-.01172.13672-.01563.13281-.03125.11719-.02734.11719-.01563.1328-.03125.1211v.29688l.01563.13281.03125.11719v.14844l.01172.1328v.14844l-.02735.1172-.04687.10156-.02735.12109-.03125.11719-.05859.08984-.07422.07422-.10156.04297-.10547.04687-.11719.02735-.12109.03125-.10156-.04688.0586-.08594.10546-.04687.02734-.11719.03125-.11719.02735-.12109.03125-.11719v-.14844l.01562-.1328-.03125-.1172-.04297-.10546-.10546.01562-.07422.07422-.10157.04297-.08984.0625-.07422.07422-.04297.10156-.01562.13281-.03125.11719-.02735.1211-.03125.11718-.02734.11719-.03125.1211-.02734.11718-.03125.11719-.04297.10547-.08985.05859h-.08984l-.11719-.03125-.03125-.08594.01563-.13672-.03125-.11718v-.14844l-.01172-.13281v-.14844l-.0625-.23438-.02735-.12109-.04296-.10156-.04688-.10547-.0586-.08594-.05859-.08984-.04296-.10547-.0625-.08594-.14844-.14844-.07031-.07421-.10547-.04688-.10547-.04297-.10156-.04297-.29688-.29687-.08984-.07422-.08594-.0586-.10547-.04296-.08984-.0625-.08594-.0586-.10547-.04297-.08984-.05859-.08594-.0625-.07422-.07031-.10547-.04688-.08594-.0586-.10546-.04296-.08985-.0625-.10156-.04297-.10547-.04297-.08594-.0586-.10547-.04687-.10546-.04296-.10157-.04688-.08984-.0586-.10156-.04296-.10547-.04297-.08985-.0625-.11718-.02735-.13282-.01562-.1328.01563h-.14845l-.1328.01562-.1172-.03125-.08984-.0586-.07422-.07421-.08984-.0586-.10156-.04687h-.14844l-.1211-.02735-.10156-.04296-.07422-.07422-.11719-.17969-.08984-.0586-.10156-.04296-.08985-.0625-.10546-.04297-.08985-.0586-.08594-.05859-.10546-.04687-.0586-.08594-.0586-.08985-.04296-.10546-.04688-.10157-.07421-.07421-.08594-.0586-.07422-.07422-.08984-.0586-.22266-.22265-.04297-.10547-.03125-.26562.10547-.04297h.14453l.10547.04297.07422.07422.08984.0586.08594.05858.10547.04688.08984.0586.14844.14843.07031.07422.14844.14844.0625.08594.07422.07421.08594.0586.07421.07422.08985.0625.08984.05859.08594.0586.26953.17577.10156.04688.10547.04297.10156.04297.04688-.07422.0586-.08594.07421-.07422.07031-.07422.10547.04297.07422.07422.0586.08985.04296.10156.04688.10547.04297.10546.1211.02735.11718-.02735.07422-.08984.04297-.10547.0586-.08984.07421-.07422.10547-.04297.11719-.02734.1328.01172.08985.05859.14844.14844.0586.08984.04296.10547.04688.10156.04297.10547.04296.10156.10547.04688.10547.04297.13281.01562.08594-.0586.0586-.08983.07421-.07422.10547-.04297.1172.02734.10546.04688.10156.04296.10547.04297.10156.04688.1797.11719v.11718l-.01563.13282.01562.1328.01563.13673.05859.08594.10156.04687.1211.02734.11718.03125h.14844l.11719-.03125.0586-.08984.17968-.11719.0586-.08984.07421-.07422.0586-.08594.11718-.17969.1797-.11718.11718.03125.08984.0586.04297.07421-.01562.13281v.11719l.08984.0586h.14844l.13281-.01563.13281-.01172.26563-.03125.10547-.04297.11718-.03125.1211-.02734.07422-.07422.0703-.07422.0625-.08984-.01562-.10547-.04687-.10156-.10156-.04297-.10547-.01563-.11719.02735-.26563.03125h-.14843l-.07422-.07422-.08985-.0586-.11718-.03125-.11719-.02734-.13281-.01563h-.14844l-.13281.01563h-.29688l-.10547-.04688-.14843-.14843-.04297-.10157-.0586-.08984.22266-.22266.08594-.05859.10547-.04297.11718-.03125.13282-.01562.1328.01562.13673.01563.10156.04296.13281-.01171.08985-.0625.10156-.04297.0625-.08985-.04688-.10156-.08984-.0586-.11719-.03124-.10156-.04297-.0586-.08985-.0625-.08984v-.11719l.01563-.1328.10547-.04688.07422-.07032v-.12109l-.08985-.0586-.03125-.11718.08985-.0586.07422-.07421.04297-.10547.05859-.08985.04688-.10156.01562-.13281v-.14844l-.04688-.10547-.04296-.10156-.08985-.0586-.13281-.01562-.10156-.04297-.13672-.01562-.11719-.03125h-.44531l-.13281-.01563-.13282-.01172-.1328-.01562-.1172-.03125h-.14843l-.13282-.01563-.1328-.01171-.26563-.03125-.1211-.04297-.08594-.0586-.07421-.07422v-.14843l.01171-.13282.10547-.04687.10157-.04297.1328-.01563h.15235l.13281-.01562h.29297l.1211.03125.10156.04297.08984.0586.23438.0625.1211-.04688.08984-.0586.10156-.04296.13281-.01563.10547.04297.10156.04687.13281.01172.1211-.02734h.14453l.1211-.03125.11718-.02735.10547-.04687.07422-.07422.08594-.0586.14843-.14843.0586-.08594.04687-.10547.02735-.11718.01562-.10547-.10156-.04297-.08985-.0586-.11718-.03125-.10547-.04296-.08985-.0625-.07421-.08594-.07422-.07422-.10156-.04297-.10547-.04687-.10157-.04297-.05859-.08985-.04688-.10156-.08593-.21094-.0625-.08593-.0586-.08985-.07421-.07422-.08594-.05859h-.26953l-.1172.03125-.08983.0586-.10157.04296-.13281.01563-.10547-.01563-.02734-.11719-.0625-.08984-.11719-.03125-.10156-.04297-.14844-.14844-.03125-.11718-.01563-.10547.07422-.07422.1797-.11719.11718-.02734.11719-.03125.13671.01562.10157.04297.10547.04297.10156.04688.10547.04296.11719.03125.1328.01563.1172.02734.1328.01563.10548-.01563.08984-.05859-.07422-.07422-.10547-.04297-.07422-.07422-.07421-.08984-.14844-.14844-.08594-.0586-.08984-.05858-.07422-.07422-.08985-.0586-.10156-.04687-.1211-.02735-.10156-.04687-.10546-.04297-.1172-.03125-.10155-.04297-.1211-.03125h-.14844l-.11718.03125-.10547.04297-.08594.0625-.17969.11719-.08593.0586-.08985.05858-.10547.04688-.08593.0586-.10547.04296-.10156.04297-.10547.04688-.07422.07421-.0586.08985-.05859.08594-.04688.10546-.05859.08594-.07422.07422-.13281-.01172-.11719-.03125h-.11719l-.07421.07422-.08985.0586-.07422.07421-.08984.0586-.08594.0586-.10547.04687-.10156.04296-.13672.01563-.10156-.04297-.14844-.14844-.10547-.04687h-.08593l-.10547.04687-.10156.04297-.1211.03125-.11719-.03125-.07421-.07422v-.11718l.03125-.1211.07421-.07031.0586-.08984.07422-.07422.11718-.03125.10547-.04297h.29297l.13281-.01563.13672-.01562.10156-.04297.08985-.0586.10156-.04687.08985-.0586.1328-.01171.08985.0586.13281.01171.08985-.0586.08594-.05859.10546-.04296.08985-.0586.08594-.0625.08984-.0586.14844-.14843.05859-.08594.0586-.08984.10546-.04297.13281-.01563.1172.02735.12109.03125.05859-.0586.0586-.08984.03124-.26562.02735-.1172.10547.01173.1328.01562.10157-.04297.08985-.05859.05859-.08984.07422-.07422.0586-.08985.04687-.10156.01171-.13281-.01171-.13281-.04688-.10547-.14844-.14844-.05859-.08984-.0586-.08594-.04296-.10547v-.44531l.01562-.13281v-.14844l.01172-.13281-.0586-.0586-.08984.0586-.10156-.04297-.17969-.1172-.08593-.05858-.0625-.08985-.0586-.08984-.07422-.07422-.08593-.0586-.1211.03125-.10156.01172-.10547.04688-.08594.0586-.10546.04296-.14844.14844-.08985.0586-.08593.05859-.08985.0625-.10547.04296-.1328.01563v-.1211l.10546-.04296.11719-.03125.07422-.07031.04296-.10547v-.14844l-.02734-.11719-.14844-.14844-.1328-.01562h-.14845l-.11718.03125-.10547.04297-.10156.04297-.08985.0625-.11719.02734-.07421-.07422.01171-.13281-.04296-.10156-.04297-.10547-.08985-.0586-.11719.02735-.12109.03125-.11719.03125-.10156.04297-.1211.03125-.10156.04296-.10546.04297-.08985.0586-.10156.01562v-.11719l.01563-.1328-.0586-.08985-.07422.04297-.14844.14844-.05859.08984-.07422.07422-.04687.10547-.04297.10156-.07422.07422-.0586.08984-.07421.07422-.0586.08594-.07421.07422-.08985.0625-.07422.0703-.07422.07423-.10156.01562-.13281.01563-.10547-.04297v-.1211l.14844-.14843.04297-.10156.05859-.08985.04688-.10156.04296-.10547.0586-.08984.03125-.1172.04297-.10155.03125-.1211.02734-.11719.04688-.10546.04296-.10157.04297-.10546.07422-.07032.08985-.0625.08984-.0586.10156-.04296h.29688l.26562-.03125.10547-.04297-.07422-.07422-.11719-.03125-.10546-.04297-.08985-.05859-.10156-.04688-.08985-.05859-.10156-.04297-.10547-.04297-.08984-.0625-.08594-.05859-.10547-.04297-.10156-.04297-.1211-.03125-.11718-.03125-.10156-.04297-.1211-.03125-.10156-.04296-.08984-.0586-.04297-.10547-.01563-.13281.10157-.04297.1328-.01562.13673.01562.13281-.01562.10156-.04297.0586-.08985.01562-.10546-.08984-.0586-.07422-.07422-.10156-.04297-.08985-.05859-.14844-.14844-.04296-.10547-.01563-.1328v-.29298l-.0586-.08984-.08984-.0586-.07421-.07421-.04297-.10547-.03125-.11719-.0586-.08984-.07422-.07422-.11718-.02735-.07422-.07421-.08985-.0586-.08984-.0625-.08594-.0586-.07422-.07421-.05859-.08594-.04688-.10547-.08593-.0586-.14844-.14843-.19531-.0586-.13281.01563-.10157.04297-.07422.07422-.04687.10156-.04297.10547-.0586.08985-.05859.08593-.29687.29688-.08985.0586h-.08593l-.0625-.08595-.04297-.10546.03125-.1172.0586-.08984.02733-.11718-.01171-.13282-.08985-.0625-.10547.04688-.11718.02734-.1172.03125-.26952.17578-.10156.04688-.1172.02734-.10546.04688-.08985.0586-.10156.04296-.0586-.08594-.04687-.10547.01563-.1328.04687-.10548.07032-.07422.07421-.0703.0586-.08985v-.14844l-.04297-.10547h-.23828l-.10156.04688-.03125.11718-.02735.1172-.03125.12108-.07422.04297-.1328.01563-.07423-.04688-.04297-.10156-.04296-.10547-.04688-.10156-.04297-.10547-.1211.03125-.10156.04297-.1328.01563-.1172.03125-.10546.04296-.08985.0586-.10156.04687-.1211.02735-.1328.01562-.10157-.04297-.0586-.08984-.04687-.10547-.04297-.10156-.04296-.10547v-.11719l.05859-.08984.08594-.0586.17968-.11718.10157-.04688.10546-.04297.10547-.0586.10157-.04296.08984-.0625.10156-.04297.10547-.0586.10156-.04687.08985-.0586.10547-.04296.10156-.04297.08984-.0625.10156-.04297.13672-.01562.1172.03125.10155.04297.1211.03125.10156.04296.10547.04688.10156.04297.10547.04297.10156.04687.10547.04297.10156.04297.10547.04688.08594.05859.10547.04297.11719.03125.10546.04297.10157.04687.08984.0586.10547.04296.10156.04297.10547.04688.11719.02734.10156.04688.1211.02734h.14843l.08594-.0586.01563-.10156.05859-.08984-.02735-.11719-.07421-.07422-.1172-.17968-.07421-.07422-.08984-.07422-.1797-.11719-.08593-.0586-.10547-.04296-.10156-.04688-.26953-.17578-.0586-.08984-.07421-.07422-.0586-.08984-.04297-.10157-.03125-.11718-.01562-.13672v-.5625l-.01172-.13281-.01563-.13282-.03125-.11719-.01562-.1328-.01172-.13282-.03125-.1211-.22265-.22265-.0586-.08594-.01562-.10547.03125-.11718.1328-.01563v-91.41406H172.98829v1.45312l-.0586.23438-.35155 1.05078-.17188.52344-.11719.34765-.17578.41016-.11719.17188-.23437.29296-.23047.0586h-.35156l-.11719.0586-.23047.40624V317l.11719.17578.23047.23047.11719.23438.64062.7578.29297.46485.17578.23438.23047.35156.23437.34765.64063.81641.17578.46485.17188.41015.11718.69531.17578.46875.1172 1.39844.05858.46485v.875l.1172 1.04687v4.78125l-.0586.46484-.35156 1.28125-.17578.52344-.11329.41016-.35156.92969-.46484 1.16796-.23438.58204-.11719.17578-.17187.34765-.17578.40625-.35156.8164-.0586.29298-.11328.29297-.11719.28906-.05859.17578-.11719.875-.0586.40625-.05858.11719-.0586.17578-.0586.17187-.23046.52735-.11719.17187v.23438l-.11719.23437-.05859.17188-.17578.58594v.28906l-.0586.17578v.29297l-.05859.11328-.0586.52734v.17188l-.05468.23437v2.6211l-.17578.8164-.11719.17578-.17578.23438-.11719.17187-.11328.23438-.58594.9336-.23047.28906-.29296.46484-.17578.23437-.28907.35157-.35156.69921-.11328.23047-.17578.41016-.17578.23047-.40625.52734-.81641.69922-.29297.17188-.28906.23437-.17578.11719-.17578.17578-.52344.40625-.52734.17578-.17188.17578-.23438.05469-.64062.17578h-.75781m12.21094 31.02344l-1.07422.44922.35937.89453 1.25-.71485.44531-.53906-.98047-.08984"/><path fill="#d3d3d3" fill-opacity="0" fill-rule="evenodd" d="M201.5039 416.59375h-.89452l.44921.6289.98047.35938.80469-.08984.44531-.98828-.17578.08984-.71484-.35547-.89453.35547M356.125 475.66406l-.0586-.52344v-.29296l.11329-.29297.0586-.23047.46874-.46875h.11328l.11719-.11328.11719-.0586h.17578l.23437-.05859h.34766l.23438.0586.11718.05859.23047.17187.0586.17578.11718.58204v.29296l-.11719.17579-.17187.28906-.17578.17578-.52735.52344-.23046.23437-.1172.0586h-.17577l-.11719-.0586-.40625-.29297-.17578-.11719-.11719-.05859-.0586-.11328-.05468-.11719m6.64063-10.95703l-.0586-.17187v-1.10938l.0586-.17187.17578-.0586.17187-.0586h.17578l.23438-.05858.11719.05859.05859.69922-.0586.17187-.11718.17578-.11719.0586-.23438.52344-.11328.05859h-.23437l-.0586-.11719m9.61329-14.39062l-.1172-.17579v-.69921l.29298-.875.11719-.17188.17578-.35156.11328-.23047.11719-.29297.35156-.75781.11719-.23047.17187-.23438h.17578l.11719-.05859h.64062l.1172.0586.23437.23437.17187.11328.35156.29297.1172.11719.11327.17578v.11328l.11719.0586.11719.11718v.69922l-.0586.17578v.23047l-.05859.17578-.34766 1.05078-.11718.23047-.1172.23438-.11718.05859-.23047.23438-.64062.28906h-.875l-.41016-.11719-.64062-.46484"/><g clip-path="url(#a)"><path fill="#fff" fill-opacity="0" fill-rule="evenodd" d="M143.9961 475.88672v4.4375H144h-.0039V311.66797H144h-.0039v164.21875"/></g><g clip-path="url(#b)"><path fill="#fff" fill-opacity="0" fill-rule="evenodd" d="M144 480.32422V311.66797h17.75v71.66406l-4.4375 1.8125-1.8789 1.97656.14452 4.4375 1.73438 2 4.4375 1.29688 3.35938-3.29688 1.07812-1.61328 1.5586-2.82422-1.5586-1.61328-4.4375-2.17578v-71.66406h26.6289v45.54297l-4.4375 1.0039-3.30859 2.27344-1.1289 1.84766-3.48438 2.59375.10938 4.4375 3.375 3.6211.7539.8164 3.6836 3.4414 4.10937-3.4414.0664-4.4375.26173-3.40625 2.8203 3.40625-1.78515 4.4375-.73437 4.4375.96484 4.4375 3.17188 2.8125 3.13672 1.6289 1.30468 1.48438.67969 2.95312-.67969.8672-3.39453 3.5703-1.04687 1.07813-4.09375 3.35937-.34375.9961-2.45313 3.4414 2.45313 2.13672 3.14843 2.30469 1.28907 1.66016 1.58203 2.77734 2.85937 3.71484.3164.72266 4.1211 4.17188.32422.26562 4.11328 3.80469 2.71485.63672 1.72265 1.01562 4.4414 1.61328 2.78126-2.6289 1.65625-1.29688 4.4375-.05078 4.4375.41406 4.4375-.47265 4.4414-3.00391.01954-.03125-.01953-.01953-1.1836-4.41797-3.25781-3.78906-.40234-.64844-4.03516-3.54297-2.20703-.89453-2.23047-2.45703-2.82813-1.98438-1.60937-1.52343-4.4375-2.48829-4.4414-.35937-.28516-.0664-4.15235-4.29298-.82422-.14453.82422-1.03125L207.5 391.5586l-1.36719-1.35546-4.4375-2.65235-2.39844-.42969 2.39844-2.9453.95703-1.4961 3.01172-4.4375-3.96875-3.53906-4.4375-.69922-1.6211-.19922-1.4453-4.4375-1.375-1.53125-3.47266-2.90625.74219-4.4414-1.70703-3.27735v-45.54297h62.13672v69.5l-1.47266 1.51172 1.47266 1.47656 2.76171-1.47656-2.76172-1.51172v-69.5h4.4375v106.11719l-2.55468.40234 2.55469.46484.55859-.46484-.5586-.40234v-106.1172h17.75391v43.95313l-.39062.4297.39062.57421 1.39063-.57422-1.39063-.42969v-43.95312h13.3164v33.39453l-3.7539 2.11328-.6836.26563-4.15624 4.17187 4.15625 3.07422 3.88281 1.36328.55469.46094.51172-.46094 3.12109-4.4375-1.91016-4.4375-1.72265-2.11328v-33.39453h22.1914v32.01562l-3.91406 3.4922-.52344 2.28515-1.08984 2.15234 1.08984 1.70703 4.4375-.1211 2.27344-1.58593 2.16406-2.71094 4.44141-1.03906 2.625-.6875-2.625-1.58203-4.4414.11719-4.4375-2.02735v-32.01562h17.7539v19.5664l-1.63281 2.625 1.63281 1.50391 3.67578-1.5039-3.67578-2.625v-19.56641h8.875V450.875l-4.4375 2.21484-.60156.60547-1.26953 4.4375 1.87109 1.75781 4.4375 1.07422 3.63281 1.60547.8086.64844 4.4375 2.48047 4.4375-.66406 3.07421-2.46485-1.98046-4.4375-1.09375-.64844-4.4375-1.75-3.5625-2.03906-.875-1.03515-4.44141-1.78516V311.66797h8.8789v13.98047l-4.4375 2.60547-1.6914 1.16796 1.6914 1.26563 4.29298 3.17188.14453.27734.46484-.27735 3.02344-4.4375-3.48828-3.77343v-13.98047h26.6289v125.34765l-3.29297 3.36329 1.91797 4.4375 1.375.84375 4.4375 1.71875 2.78516-2.5625-2.78516-2.5625-1.14453-1.875-3.29297-3.36329V311.66798h26.6289v82.59765l-1.72655 1.73047 1.72656 1.73047 2.5586-1.73047-2.5586-1.73046v-82.59766h8.8789v116.7539l-4.4375 1.09766-2.1289 1.98438-.04688 4.4375 2.17579 3.91796.21484.51954-.21485.67578-1.57421 3.76172.7539 4.4414.82031 1.125.82032-1.125 1.57031-4.4414 2.04688-.8711 4.4375-2.34375 1.18359-1.22265 2.4414-4.4375-3.625-3.56641-1.38671-.8711-3.05079-3.08202V311.66796h17.75391v80.03515l-4.39844 4.29297 2.50782 4.4375-.20313 4.4375-2.34375 1.52735-3.46094-1.52735 1.01172-4.4375 2.10938-4.4375-4.10156-2.73046-2.82032 2.73046.74219 4.4375.85938 4.4375-.3711 4.44141 1.58985 1.58984 2.88671 2.84766.03907 4.4375 1.51562 1.52344 4.4375 2.22265 4.4375.25 4.4375-.52734 4.28906-3.46875.14844-.09766 4.4414-2.15625 2.1836-2.18359 2.2539-2.29688 2.14063-2.14062-2.14062-2.23438-1.01563-2.20703-.16015-4.4375-3.26172-3.57421-4.4414 2.85546-.71876.71875-3.71875 2.39844-4.4375-.53906-2.58984-1.85938 2.46094-4.4375-4.3086-4.29296v-80.03516h44.3789v168.65625H144"/></g><path fill="#50fcfc" fill-rule="evenodd" d="M155.57813 391.5586l-.14454-4.4375 1.87891-1.97657 4.4375-1.8125 4.4375 2.17578 1.5586 1.61328-1.5586 2.82422-1.07813 1.61328-3.35937 3.29688-4.4375-1.29688-1.73438-2m20.55079-22.1914l-.10938-4.4375 3.48438-2.59375 1.1289-1.84766 3.3086-2.27344v5.40625l-.91797 1.3086-3.51953 1.78906-1.76563 2.64844 1.76563 1.89453 2.35937 2.54297 2.07813 1.94531 2.3203-1.94531 1.23438-4.4375-2.74609-4.4375-.8086-1.3086v-5.40625l4.4375-1.0039 1.70704 3.27734-.74219 4.4414 3.47266 2.90626v6.28125l-3.46875 4.125 3.18359 4.4375.28516.2539 4.4414 2.6836 2.80078-2.9375 1.63672-1.51953 2.45313-2.91797-2.45313-2.1875-4.4375-1.46875-4.4414-.46875v-6.28125l1.375 1.53125 1.4453 4.4375 1.6211.19922 4.4375.69921 3.96875 3.53907-3.01172 4.4375-.95703 1.4961-2.39844 2.9453 2.39844.4297v1.3828l-2.46094 2.625-1.97656 2.51172-1.82812 1.92578-2.61328 2.69922-2.1172 1.73828-1.45702 4.4375 3.57422 3.08204 1.28125 1.35937 3.16015 3.9961 4.4375-1.9922v2.13282l-.66797.30078.66797.28906 1.67969-.28906-1.67969-.30078v-2.13281l4.4375 1.82812 1.29297.60547-1.29297 1.9336-4.4375.40624-2.08594 2.09766 2.08594 2.10938 2.82031 2.32812 1.6172 1.5 4.4375 2.01953 4.4414.6875 4.4375-3.55078 4.4375.03906 3.10547-.69531 1.33203-.16797 4.4375-1.10156 1.10156-3.16797-1.10156-1.28125-1.96094-3.15625-2.47656-2.17188-4.4375-2.10156-.25781-.16406-4.1797-3.9414-.57812-.5-3.85937-3.3047-4.4414-.70312-1.94141-.42969-2.4961-2.58203-4.4375-1.09375-1.55078-.76172 1.55078-1.10546 3.21875-3.33204-3.21875-2.625v-1.3828l4.4375 2.65233L207.5 391.5586l-1.36719 3.40625-.82422 1.03125.82422.14454 4.15235 4.29296.28515.06641 4.4414.35938 4.4375 2.48828 1.60938 1.52343 2.82813 1.98438 2.23047 2.45703 2.20703.89453 4.03516 3.54297.40234.64844 3.25781 3.78906 1.1836 4.41797.01953.01953-.01953.03125-4.44141 3.0039-4.4375.47266-4.4375-.41406-4.4375.05078-1.65625 1.29688-2.78125 2.6289-4.4414-1.61328-1.72266-1.01562-2.71485-.63672-4.11328-3.80469-.32422-.26563-4.1211-4.17187-.3164-.72266-2.85937-3.71484-1.58203-2.77734-1.28907-1.66016-3.14843-2.30469-2.45313-2.13672 2.45313-3.4414.34375-.9961 4.09375-3.35937 1.04687-1.07813 3.39453-3.5703.67969-.8672-.67969-2.95312-1.30469-1.48438-3.13671-1.6289-3.17188-2.8125-.96484-4.4375.73437-4.4375 1.78516-4.4375-2.82031-3.40625-.26172 3.40625-.0664 4.4375-4.10938 3.4414-3.6836-3.4414-.7539-.8164-3.375-3.6211"/><path fill="#00e8fc" fill-rule="evenodd" d="M179.5039 371.26172l-1.76562-1.89453 1.76563-2.64844 3.51953-1.78906.91797-1.3086v2.48829l-3.89453 3.2578 3.89453 4.06641 2.51953-4.0664-2.51953-3.25781v-2.48829l.80859 1.3086 2.7461 4.4375-1.23438 4.4375-2.32031 1.94531-2.07813-1.94531-2.35937-2.54297"/><path fill="#00d4fc" fill-rule="evenodd" d="M183.9414 373.4336l-3.89452-4.06641 3.89453-3.25781v1.33593l-2.29688 1.92188 2.29688 2.39844 1.48828-2.39844-1.48828-1.92188v-1.33594l2.51953 3.25782-2.51953 4.0664"/><path fill="#00c4fc" fill-rule="evenodd" d="M183.9414 371.76563l-2.29687-2.39844 2.29688-1.92188v1.33594l-.69922.58594.69922.73047.45312-.73047-.45312-.58594v-1.33594l1.48828 1.92188-1.48828 2.39844"/><path fill="#00b8fc" fill-rule="evenodd" d="M183.9414 370.09766l-.69921-.73047.69922-.58594.45312.58594-.45312.73047"/><path fill="#00e8fc" fill-rule="evenodd" d="M192.8164 407.95313l-3.57421-3.08204 1.45703-4.4375 2.11719-1.73828v6.15625l-.00391.01953.0039.00782L197 409.3125l.25781.32031.74219-.32031-.74219-.27734-4.4336-4.16407-.0078-.01953v-6.15625l2.61328-2.69922 1.82812-1.92578v7.96485l-1.10156 2.83593 1.10156 1.03516 2.42969-1.03516-2.42969-2.83593v-7.96485l1.97656-2.51172 2.46094-2.625v2.3086l-.29687.3164.29687.40235.38672-.40235-.38672-.3164v-2.3086l3.21875 2.625-3.21875 3.33204-1.55078 1.10546 1.55078.76172v2.01563l-2.23047 1.66015 2.23047 2.35547.63672 2.08203.1875 4.44141 3.61328 2.51172 4.10156 1.92578-2.83593 4.4375.53906 4.4375 2.63281 1.66016 4.4414-.53907 1.33595-1.12109 3.10156-1.86719 4.4375.95313 4.4375-1.51563 2.49219-2.00781-2.4922-4.20703-.05077-.23047-4.38672-3.45703-1.52344-.98047-2.91406-2.75-1.95703-1.6914-2.48047-2.125-4.4414-1.27344-4.4375-.94532-.45313-.09375-3.98438-1.66015v-2.01563l4.4375 1.09375 2.4961 2.58203 1.9414.4297 4.4414.70312 3.85938 3.30468.57813.5 4.17969 3.94141.2578.16406 4.4375 2.10156 2.47657 2.17188 1.96094 3.15625 1.10156 1.28125-1.10156 3.16797-4.4375 1.10156-1.33203.16797-3.10547.69531-4.4375-.03906-4.4375 3.55078-4.4414-.6875-4.4375-2.01953-1.6172-1.5-2.8203-2.32813-2.08595-2.10937 2.08594-2.09766 4.4375-.40625 1.29297-1.93359-1.29297-.60547-4.4375-1.82812-4.4375 1.99218-3.16015-3.99609-1.28125-1.35938m-.28516-25.27343l-3.1836-4.4375 3.46876-4.125v1.32031l-2.35938 2.80469 2.35938 3.07812 4.4414 1.15235 4.39063-4.23047-4.39063-2.6836-4.4414-.12109v-1.32031l4.4414.46875 4.4375 1.46875 2.45313 2.1875-2.45313 2.91797-1.63672 1.51953-2.80078 2.9375-4.4414-2.6836-.28516-.2539"/><path fill="#00d4fc" fill-rule="evenodd" d="M192.8164 381.32031l-2.35937-3.07812 2.35938-2.80469 4.4414.1211v.96874l-4.4414.23047-1.25 1.48438 1.25 1.6289 4.4414 1.07422 2.80078-2.70312-2.80078-1.71485v-.96875l4.39063 2.6836-4.39063 4.23047-4.4414-1.15235"/><path fill="#00c4fc" fill-rule="evenodd" d="M192.8164 379.8711l-1.25-1.62891 1.25-1.48438 4.44141-.23047v.96875l-4.4414.58204-.13672.16406.13672.1836 4.4414.99218 1.21485-1.17578-1.21485-.7461v-.96875l2.80078 1.71485-2.80078 2.70312-4.4414-1.07422"/><path fill="#00b8fc" fill-rule="evenodd" d="M192.8164 378.42578l-.13671-.1836.13672-.16406 4.4414-.58203 1.21485.7461-1.21485 1.17578-4.4414-.99219"/><path fill="#00d4fc" fill-rule="evenodd" d="M192.8164 404.8789l-.0039-.0078.0039-.01954.00782.01953 4.4336 4.16407.74218.27734-.74219.32031L197 409.3125l-4.1836-4.4336"/><path fill="#50fcfc" fill-rule="evenodd" d="M197.25781 402.03516l-1.10156 2.83593 1.10156 1.03516 2.42969-1.03516-2.42969-2.83593"/><path fill="#00d4fc" fill-rule="evenodd" d="M201.69531 402.78906l-2.23047-2.35547 2.23047-1.66015 3.98438 1.66015.45312.09375v1.00391l-2.92187 3.33984 1.20312 4.44141 1.71875 1.19531 4.4375 2.54688.64063.69531-.64063 4.35938-.04687.07812.04687.5586.14063-.5586 4.30078-.3789 3.33594.3789 1.10156.35547 4.4375 2.0625 4.21875-2.41797-.8711-4.4375-3.34765-2.63672-2.78906-1.80078-1.64844-1.5586-3.33594-2.8828-1.10156-.94141-4.4414-1.84766-4.4375-.55078v-1.0039l4.4375.9453 4.4414 1.27344 2.48047 2.125 1.95703 1.69141 2.91406 2.75 1.52344.98047 4.38672 3.45703.05078.23047 2.49219 4.20703-2.4922 2.00781-4.4375 1.51563-4.4375-.95313-3.10155 1.86719-1.33594 1.1211-4.4414.53906-2.63282-1.66016-.53906-4.4375 2.83594-4.4375-4.10157-1.92578-3.61328-2.51172-.1875-4.4414-.63672-2.08204"/><path fill="#fff" fill-opacity="0" fill-rule="evenodd" d="M201.69531 413.44922l-.66797.30078.66797.28906 1.67969-.28906-1.67969-.30078"/><path fill="#00d4fc" fill-rule="evenodd" d="M201.69531 391.96094l-.29687-.40235.29687-.3164.38672.3164-.38672.40235"/><path fill="#00c4fc" fill-rule="evenodd" d="M204.41406 409.3125l-1.20312-4.4414 2.92187-3.33985v1.0039l-2.04297 2.33594 2.04297 4.26954.10547.17187 4.33203 2.95313 1.36328 1.48437 3.07813 3.28516 4.4375.80859 1.83984.34375 2.59766 1.3086 2.28516-1.3086.02343-4.4375-2.3086-1.82031-4.05077-2.61719-.38672-.36719-4.4375-3.82812-.23438-.2461-4.20703-2.18359-4.4375-.15234v-1.00391l4.4375.55078 4.4414 1.84766 1.10157.9414 3.33594 2.88282 1.64844 1.55859 2.78906 1.80078 3.34766 2.63672.87109 4.4375-4.21875 2.41797-4.4375-2.0625-1.10156-.35547-3.33594-.3789-4.30078.3789-.14063.5586-.04687-.5586.04687-.07813.64063-4.35937-.64063-.69531-4.4375-2.54688-1.71875-1.19531"/><path fill="#00b8fc" fill-rule="evenodd" d="M206.13281 409.14063l-2.04297-4.26954 2.04297-2.33593 4.4375.15234v.60938l-4.4375.24218-1.16797 1.33203 1.16797 2.4375 1.26172 2.00391 3.17578 2.16797 2.08985 2.26953 2.35156 2.51172 4.4375 1.16797 4.03516.75781.40234.20313.35156-.20313.92188-4.4375-1.27344-1.0039-4.4375-3.11329-.9961-.32031-3.4414-2.96094-1.40625-1.48047-3.03516-1.57421v-.60938l4.20703 2.1836.23438.24609 4.4375 3.82812.38672.36719 4.05078 2.61719 2.3086 1.82031-.02345 4.4375-2.28515 1.3086-2.59766-1.3086-1.83984-.34375-4.4375-.8086-3.07813-3.28515-1.36328-1.48438-4.33203-2.95312-.10547-.17188"/><path fill="#00a8fc" fill-rule="evenodd" d="M206.13281 407.3086l-1.16797-2.4375 1.16797-1.33204 4.4375-.24219v.60938l-4.4375.63672-.28906.32812.28906.60547 2.41406 3.83594 2.02344 1.3789 2.8125 3.0586 1.6289 1.73828 4.4375 1.53125 4.4375-2.3125.23438-.95703-.23437-.1836-4.4375-3.47265-2.42969-.78125-2.00781-1.73047-2.57813-2.71094-1.86328-.96484v-.60938l3.03516 1.57422 1.40625 1.48047 3.4414 2.96094.9961.32031 4.4375 3.11328 1.27344 1.00391-.92188 4.4375-.35156.20313-.40234-.20313-4.03516-.75781-4.4375-1.16797-2.35156-2.51172-2.08985-2.26953-3.17578-2.16797-1.26172-2.0039"/><path fill="#009800" fill-rule="evenodd" d="M206.13281 405.47656l-.28906-.60547.28906-.32812 4.4375-.63672v.60938l-2.07422.35546 1.20703 4.44141.8672.58984 3.53905 3.84766.90235.96094 4.4375 1.89453 3.99219-2.85547-3.9922-3.19531-3.86327-1.24219-.57422-.5-3.75-3.9414-.6914-.35548v-.60937l1.86327.96484 2.57813 2.71094 2.00781 1.73047 2.42969.78125 4.4375 3.47266.23437.18359-.23437.95703-4.4375 2.3125-4.4375-1.53125-1.6289-1.73828-2.8125-3.0586-2.02345-1.3789-2.41406-3.83594"/><path fill="#00ac00" fill-rule="evenodd" d="M209.70313 409.3125l-1.20704-4.4414 2.07422-.35548.6914.35547 3.75 3.94141.57423.5 3.86328 1.24219v.45703l-4.4375 1.44922-.17969 1.28906.17969.1875 4.4375 2.25781 3.41406-2.44531-3.41406-2.73828v-.45703l3.99219 3.19531-3.9922 2.85547-4.4375-1.89453-.90233-.96094-3.53907-3.84766-.86719-.58984"/><path fill="#00c800" fill-rule="evenodd" d="M215.01172 413.9375l-.17969-.1875.17969-1.28906 4.4375-1.44922v.92187L216.3789 413.75l3.0703 1.6211 2.26563-1.6211-2.26562-1.8164v-.92188l3.41406 2.73828-3.41406 2.44531-4.4375-2.25781"/><path fill="#10cc00" fill-rule="evenodd" d="M219.44922 415.3711l-3.07031-1.6211 3.0703-1.8164v.92187l-1.51171.89453 1.51172.79688 1.11328-.79688-1.11328-.89453v-.92188l2.26562 1.81641-2.26562 1.6211"/><path fill="#24d000" fill-rule="evenodd" d="M219.44922 414.54688l-1.51172-.79688 1.51172-.89453 1.11328.89453-1.11328.79688"/><path fill="#50fcfc" fill-rule="evenodd" d="M250.51563 384.15625l-1.47266-1.47656 1.47266-1.51172 2.76171 1.51172-2.76172 1.47656m4.4375 34.4961l-2.55468-.46485 2.55469-.40234.55859.40234-.5586.46484m17.75391-62.02734l-.39062-.57422.39062-.42969 1.39063.4297-1.39063.57421m8.8789-1.9375l-4.15624-3.07422 4.15625-4.17187.6836-.26563 3.7539-2.11328v3.13672l-4.4375 2.69531-.71485.71875.71485.52735 4.4375 2.46875 2.39062-2.9961-2.39062-3.41406v-3.13672l1.72265 2.11328 1.91016 4.4375-3.1211 4.4375-.51171.46094-.55469-.46094-3.88281-1.36328"/><path fill="#00e8fc" fill-rule="evenodd" d="M281.58594 352.14063l-.71485-.52735.71485-.71875 4.4375-2.69531v2.95703l-.66406.45703.66406.39844.3164-.39844-.3164-.45703v-2.95703l2.39062 3.41406-2.39062 2.9961-4.4375-2.46875"/><path fill="#00d4fc" fill-rule="evenodd" d="M286.02344 352.01172l-.66406-.39844.66406-.45703.3164.45703-.3164.39844"/><path fill="#50fcfc" fill-rule="evenodd" d="M303.77734 353.32031l-1.08984-1.70703 1.08984-2.15234.52344-2.28516 3.91406-3.49219v2.13282l-1.51953 1.35937 1.51953 2.0664 1.91797-2.0664-1.91797-1.35937v-2.13282l4.4375 2.02735 4.44141-.11719 2.625 1.58203-2.625.6875-4.4414 1.03906-2.16407 2.71094-2.27344 1.58594-4.4375.1211"/><path fill="#00e8fc" fill-rule="evenodd" d="M308.21484 349.24219l-1.51953-2.0664 1.51953-1.35938 1.91797 1.35937-1.91797 2.0664"/><path fill="#50fcfc" fill-rule="evenodd" d="M325.96875 335.36328l-1.63281-1.5039 1.63281-2.625 3.67578 2.625-3.67578 1.5039m4.4375 124.52735l-1.8711-1.75782 1.26954-4.4375.60156-.60547 4.4375-2.21484 4.4414 1.78516.875 1.03515 3.5625 2.03906v4.7461l-1.28906 2.08984 1.28907.83985 2.1914-.83985-2.1914-2.08984v-4.7461l4.4375 1.75 1.09375.64844 1.98046 4.4375-3.07421 2.46485-4.4375.66406-4.4375-2.48047-.8086-.64844-3.63281-1.60547-4.4375-1.07421m8.8789-129.20313l-1.6914-1.26563 1.6914-1.16796 4.4375-2.60547 3.48829 3.77344-3.02344 4.4375-.46484.27734-.14454-.27735-4.29296-3.17187"/><path fill="#00e8fc" fill-rule="evenodd" d="M343.72266 463.41016l-1.28907-.83985 1.28907-2.08984 2.1914 2.08984-2.1914.83985"/><path fill="#50fcfc" fill-rule="evenodd" d="M368.97656 444.8164l-1.91797-4.4375 3.29297-3.36327v1.76171l-1.5664 1.60157 1.5664 2.28906 1.57031-2.28906-1.5703-1.60157v-1.76171l3.29296 3.36328 1.14453 1.875 2.78516 2.5625-2.78516 2.5625-4.4375-1.71875-1.375-.84375"/><path fill="#00e8fc" fill-rule="evenodd" d="M370.35156 442.66797l-1.5664-2.28906 1.5664-1.60157 1.57031 1.60157-1.5703 2.28906"/><path fill="#50fcfc" fill-rule="evenodd" d="M396.98047 397.72656l-1.72656-1.73047 1.72656-1.73046 2.5586 1.73046-2.5586 1.73047m4.4414 42.13281l-2.17578-3.91796.04688-4.4375 2.1289-1.98438 4.4375-1.09765v2.14453l-2.1328.9375-1.27735 4.4375 2.5 4.4375.91015.76953 1.17188-.76953 3.26563-1.38282 2.27343-3.05468-2.27344-2.23829-3.5078-2.19921-.9297-.9375v-2.14454l3.05079 3.08204 1.38671.87109 3.625 3.5664-2.4414 4.4375-1.1836 1.22266-4.4375 2.34375-2.04687.8711-1.57031 4.4414-.82031 1.125-.82032-1.125-.7539-4.4414 1.57421-3.76172.21485-.67578-.21485-.51954"/><path fill="#00e8fc" fill-rule="evenodd" d="M404.94922 440.3789l-2.5-4.4375 1.27734-4.4375 2.13281-.9375v5.32813l-.02734.04688.02735.03906 4.4375-.01172.01953-.02734-.01954-.01954-4.4375-.02734v-5.32812l.9297.9375 3.5078 2.19921 2.27344 2.23829-2.27344 3.05468-3.26562 1.38282-1.17188.76953-.91015-.76953"/><path fill="#00d4fc" fill-rule="evenodd" d="M405.85938 435.98047l-.02735-.03906.02735-.04688 4.4375.02735.01953.01953-.01954.02734-4.4375.01172"/><path fill="#50fcfc" fill-rule="evenodd" d="M412.65625 400.4336l-.74219-4.4375 2.82031-2.73048v2.65235l-.07812.07812.07813.25.11718-.25-.11719-.07812v-2.65235l4.10157 2.73047-2.10938 4.4375-1.01172 4.4375 3.46094 1.52735 2.34375-1.52735.20313-4.4375-2.50782-4.4375 4.39844-4.29296v.45703l-3.9336 3.83593 3.9336 4.17579 3.85547-4.17579-3.85547-3.83593v-.45704l4.3086 4.29297-2.46094 4.4375 2.58984 1.85938 4.4375.53906 3.71875-2.39844.71875-.71875 4.4414-2.85546v1.92968l-2.19921 1.64453-1.94922 4.4375-.29297.14844-4.4375 1.65625-4.4375-1.41797-4.4375.6836-4.4375 3.1875-.42578.18359.42578.41406 2.6914 4.02344.1836 4.4375 1.5625.98438 4.4375 1.85546 4.4375-.85546 2.45313-1.98438 1.98437-1.3086 3.90625-3.1289.53516-1.0039 3.3789-3.4336-1.60937-4.4414-.26563-4.4375-1.5039-1.64454v-1.92969l3.26172 3.57422.16015 4.4375 1.01563 2.20704 2.14062 2.23437-2.14062 2.14063-2.2539 2.29687-2.1836 2.1836-4.4414 2.15624-.14845.09766-4.28906 3.46875-4.4375.52734-4.4375-.25-4.4375-2.22265-1.51562-1.52344-.03907-4.4375-2.88671-2.84766-1.58985-1.58984.3711-4.4414-.85938-4.4375"/><path fill="#00e8fc" fill-rule="evenodd" d="M414.73438 396.2461l-.07813-.25.07813-.07813.11718.07812-.11719.25m4.44141 13.48047l-.42578-.41406.42578-.1836 4.4375-3.1875 4.4375-.68359 4.4375 1.41797 4.4375-1.65625v3.24219l-1.52344 1.05078-2.91406 1.96875-4.4375.15234-1.71875 2.31641.0586 4.4375 1.66015.90625 3.125-.90625 1.3125-.89844 4.4375-2.42187 1.39453-1.11719 1.00781-4.4375-2.40234-1.05078v-3.24219l.29297-.14844 1.94922-4.4375 2.19922-1.64453 1.5039 1.64453.26563 4.4375 1.60937 4.44141-3.3789 3.4336-.53516 1.0039-3.90625 3.1289-1.98437 1.3086-2.45313 1.98438-4.4375.85546-4.4375-1.85546-1.5625-.98438-.1836-4.4375-2.6914-4.02344m4.4375-9.55469l-3.9336-4.17578 3.9336-3.83593v.7578l-3.15625 3.07813 3.15625 3.35157 3.08985-3.35157-3.08985-3.07812v-.75781l3.85547 3.83593-3.85547 4.17579"/><path fill="#00d4fc" fill-rule="evenodd" d="M423.61328 399.34766l-3.15625-3.35157 3.15625-3.07812v.75781l-2.3789 2.32031 2.3789 2.52344 2.32813-2.52344-2.32813-2.3203v-.75782l3.08985 3.07812-3.08985 3.35157"/><path fill="#00c4fc" fill-rule="evenodd" d="M423.61328 398.51953l-2.3789-2.52344 2.3789-2.3203v.7578l-1.60156 1.5625 1.60156 1.69922 1.5664-1.69922-1.5664-1.5625v-.7578l2.32813 2.3203-2.32813 2.52344"/><path fill="#00b8fc" fill-rule="evenodd" d="M423.61328 397.69531l-1.60156-1.69922 1.60156-1.5625v.75782l-.82422.80468.82422.875.80469-.875-.80469-.80468v-.75782l1.5664 1.5625-1.5664 1.69922"/><path fill="#00a8fc" fill-rule="evenodd" d="M423.61328 396.8711l-.82422-.875.82422-.8047v.75782l-.04687.04687.04687.05079.04297-.05079-.04297-.04687v-.75781l.80469.80468-.80469.875"/><path fill="#009800" fill-rule="evenodd" d="M423.61328 396.04688l-.04687-.05079.04687-.04687.04297.04687-.04297.05079"/><path fill="#00d4fc" fill-rule="evenodd" d="M426.39063 418.1875l-.0586-4.4375 1.71875-2.3164 4.4375-.15235 2.91406-1.96875 1.52344-1.05078 2.40235 1.05078-1.00782 4.4375-1.39453 1.11719-4.4375 2.42187-1.3125.89844-3.125.90625-1.66015-.90625"/><g clip-path="url(#c)"><path fill="#fff" fill-opacity="0" fill-rule="evenodd" d="M467.99219 480.32422h.0039V311.66797h-.0039.0039v168.65625h-.0039"/></g><path fill="#fff" fill-opacity="0" fill-rule="evenodd" d="M200.20703 375.46484l.71875 5.79688 9.88672-1.22656-.71875-5.79688-9.88672 1.22656"/><path fill-rule="evenodd" d="M208.70313 377.9375l.0625.5039-6.2461.77344-.09766-.78125 4.45704-.55078-.17188-1.3789.55078-.06641.13672.54688.08203.24218.11719.21875.16406.1836.23047.14453.3125.10547.40234.05859"/><path fill="#fff" fill-opacity="0" fill-rule="evenodd" d="M212.67969 435.35938l5.72265-1.1836-2.02343-9.7539-5.71875 1.18359 2.01953 9.7539"/><path fill-rule="evenodd" d="M214.45703 426.6914l.5-.10546 1.27734 6.16406-.76953.16016-.91406-4.39454-1.35937.28125-.11328-.54296.53515-.1797.23828-.10155.20703-.13672.16797-.17969.1289-.23828.07813-.32031.02344-.40625"/><path fill="#00f" fill-rule="evenodd" d="M179.63281 458.76953H188.25V448.6211h-8.61719v10.14844"/><path fill="azure" fill-rule="evenodd" d="M181.46484 450.45313h.83203v2.82421h3.28907v-2.82421h.83203v6.48046h-.83203v-2.91406h-3.28906v2.91406h-.83204v-6.48046"/><path fill="#00f" fill-rule="evenodd" d="M388.23438 436.57422h8.61718v-10.14453h-8.61719v10.14453"/><path fill="azure" fill-rule="evenodd" d="M390.0664 428.26172h.83594v2.82422h3.28516v-2.82422h.83203v6.48047h-.83203v-2.91406h-3.28516v2.91406h-.83593v-6.48047"/><path fill="#00f" fill-rule="evenodd" d="M201.82422 396.6289h8.61719v-10.14452h-8.6172v10.14453"/><path fill="azure" fill-rule="evenodd" d="M203.65625 388.3164h.83203v2.82423h3.28906v-2.82422h.83203v6.48046h-.83203v-2.91406h-3.28906v2.91406h-.83203v-6.48046"/><path fill="#ff3030" fill-rule="evenodd" d="M451.0664 343.3711h7.69141v-10.14844h-7.6914v10.14843"/><path fill="azure" fill-rule="evenodd" d="M452.89844 335.0586h.83203v5.73827h3.19531v.7422h-4.02734v-6.48048"/><path fill="#00f" fill-rule="evenodd" d="M321.66016 325.61719h8.61718v-10.14453h-8.61718v10.14453"/><path fill="azure" fill-rule="evenodd" d="M323.49219 317.30469h.83203v2.82422h3.28906v-2.82422h.83203v6.48047h-.83203v-2.91797h-3.28906v2.91797h-.83203v-6.48047"/><path fill="#ffffe0" fill-rule="evenodd" d="M252.97266 364.96484h22.17968v-10.1914h-22.17968v10.1914"/><path fill-rule="evenodd" d="M256.47266 356.60547h.5078v6.29687h-.78515v-4.49218h-1.39062v-.5547l.5625-.0625.25-.05468.23047-.08984.20312-.14063.17578-.21094.14063-.29296.10547-.39844m4.8125 0l.23046.01953.21875.05469.20704.08984.1953.1211.1875.15234.17188.17187.30079.42188.24218.49219.17969.54687.11328.57813.03516.59375-.03516.59375-.11328.58203-.17969.55469-.24219.5-.30078.42968-.17187.17969-.1875.15234-.19531.125-.20704.08985-.21875.0586-.23046.01952-.22657-.01953-.22265-.0586-.20703-.08984-.19532-.125-.18359-.15234-.17188-.17969-.30078-.42969-.24609-.5-.17969-.55468-.10937-.58203-.03906-.59375h.83203l.03125.5625.08203.5039.125.44531.16015.375.19141.30079.21094.21875.22265.13671.22657.04688.22656-.04688.22265-.13671.21094-.21875.1914-.30079.16407-.375.125-.4453.08203-.50391.02735-.5625-.02735-.5625-.08203-.5-.125-.4375-.16406-.36329-.1914-.29296-.21094-.21485-.22266-.13281-.22656-.04297-.22657.04297-.22265.13281-.21094.21485-.1914.29296-.16016.36329-.125.4375-.08203.5-.03125.5625h-.83204l.03907-.59375.10937-.57813.17969-.54687.2461-.4922.30077-.42187.17188-.17187.1836-.15235.1953-.12109.20704-.08984.22265-.05469.22657-.01953m5.09375 0h.5078v6.29687h-.78515v-4.49218h-1.39062v-.5547l.5586-.0625.2539-.05468.23047-.08984.20312-.14063.17188-.21094.14453-.29296.10547-.39844m2.8203 2.17578h.78907l.01953-.3164.0586-.28516.09765-.2539.14063-.21485.1836-.17188.22265-.1289.26562-.08204.3086-.02734.23437.01953.22656.0625.20313.10547.17969.13672.14843.17188.11329.20703.0703.23437.02735.26563-.02344.26953-.0664.22265-.10938.19141-.15625.17188-.19922.16406-.24609.16406-.63672.39063-.53515.3125-.4375.3164-.34766.32422-.26172.33594-.1914.35156-.125.3711-.07032.39062-.01953.42187h4.21094v-.74218h-3.33203l.08203-.28516.11328-.23438.14844-.20312.1875-.17969.23046-.17187.28125-.17578.71485-.41407.41797-.20703.34375-.23047.28125-.25.21875-.26953.16406-.27734.11328-.28516.0625-.28515.01953-.28125-.04297-.38282-.11718-.34765-.19141-.3086-.25-.26171-.30078-.21094-.34766-.16016-.3789-.09765-.40625-.03516-.4375.03515-.39844.09766-.35156.16797-.3086.23438-.2461.30078-.1875.375-.11327.4453-.04297.51954"/><path fill="#ffffe0" fill-rule="evenodd" d="M350.61719 413.625h22.17969v-10.1914h-22.1797v10.1914"/><path fill-rule="evenodd" d="M354.11719 405.26563h.50781v6.29687h-.78516v-4.49219h-1.39062v-.55469l.5586-.0625.2539-.05468.23047-.08985.20312-.14062.17188-.21094.14453-.29297.10547-.39844m4.8125 0l.23047.01954.21875.05468.20703.08985.19531.1211.1836.15233.17187.17579.30469.41796.24218.4922.1797.54687.10937.57812.03906.59375-.03906.59375-.10938.58203-.17969.5547-.24218.5-.3047.42968-.17187.17969-.18359.15234-.19531.125-.20703.08984-.21875.0586-.23047.01953-.23047-.01953-.21875-.0586-.20703-.08984-.19531-.125-.1836-.15234-.17187-.1797-.3047-.42968-.24218-.5-.17969-.55469-.10937-.58203-.03906-.59375h.83203l.03125.5625.07812.5039.1289.44532.16017.375.1914.30078.21094.21875.22265.13672.22657.04688.22656-.04688.22266-.13672.21093-.21875.19141-.30078.16016-.375.1289-.44531.08203-.5039.02735-.5625-.02735-.5625-.08203-.5-.1289-.4336-.16016-.36719-.1914-.29297-.21094-.21484-.22266-.1289-.22656-.04688-.22656.04687-.22266.1289-.21094.21485-.1914.29297-.16016.36719-.1289.4336-.07813.5-.03125.5625h-.83203l.03906-.59376.10937-.57812.1797-.54688.24218-.49219.30469-.41796.17187-.17579.1836-.15234.1953-.1211.20704-.08984.21875-.05468.23047-.01954m5.08984 0h.51172v6.29688h-.78906v-4.49219h-1.38672v-.55469l.5586-.0625.2539-.05468.22656-.08985.20703-.14062.17188-.21094.14062-.29297.10547-.39844m2.82422 2.17579h.78906l.01953-.31641.0586-.28516.09765-.2539.14063-.21485.1836-.17187.22265-.1289.26562-.08204.3047-.02734.23827.02344.22656.0625.20313.10156.17969.13672.14844.17187.11328.20703.0703.23438.02735.26562-.02344.26953-.0664.22266-.10938.19531-.15625.16797-.19921.16406-.2461.16407-.63672.39062-.53515.3125-.4375.3164-.34766.32423-.26563.33593-.1875.35157-.125.37109-.0703.39063-.01954.42187h4.21094v-.74219h-3.33203l.08203-.28515.11328-.23438.14844-.20312.1875-.1797.23047-.17187.27734-.17578.71875-.41406.41406-.20703.34766-.23047.28125-.25.21875-.26953.16406-.27735.10938-.28515.0664-.28516.01953-.28125-.04296-.38281-.1211-.34766-.1875-.30859-.25-.26172-.30469-.21094-.34375-.16015-.3789-.09766-.41016-.03515-.4336.03515-.39843.09766-.35547.16797-.30469.23437-.24609.30078-.1875.375-.11328.44531-.04297.51954"/><path fill="#ffffe0" fill-rule="evenodd" d="M427.53516 419.05469h22.17968v-10.1914h-22.17968v10.1914"/><path fill-rule="evenodd" d="M431.03516 410.69531h.5078v6.29297h-.78515V412.5h-1.38672v-.55469l.5586-.0664.25-.0547.23047-.08983.20312-.14063.17578-.21094.14063-.29297.10547-.39453m4.8125 0l.23046.01953.21875.0547.20704.08983.19921.1211.1836.14844.17187.17578.30079.41797.24218.49609.17969.54688.11328.57812.03906.58984-.03906.59375-.11328.58594-.17969.55469-.24219.5-.30078.42969-.17187.17968-.1836.15235-.19921.1211-.20704.09374-.21875.0586-.23046.01953-.22657-.01954-.21875-.05859-.21093-.09375-.19532-.1211-.18359-.15234-.17188-.17968-.30078-.4297-.24218-.5-.1797-.55468-.11327-.58594-.03906-.59375h.83593l.02735.5625.08203.50782.125.4414.16406.375.1914.30078.20704.22266.22265.13672.22657.04687.22656-.04687.22265-.13672.21094-.22266.1914-.30078.16407-.375.125-.4414.08203-.50782.02735-.5625-.02735-.55859-.08203-.5039-.125-.4336-.16406-.36719-.1914-.28906-.21094-.21484-.22266-.13282-.22656-.04296-.22657.04296-.22265.13282-.20703.21484-.19141.28906-.16406.36719-.125.4336-.08203.5039-.02735.5586h-.83594l.03907-.58985.11328-.57813.17969-.54687.24218-.4961.30079-.41796.17187-.17578.1836-.14844.1953-.1211.21094-.08984.21875-.05469.22657-.01953m5.09375 0h.5078v6.29297h-.78515V412.5h-1.39062v-.55469l.5625-.0664.25-.0547.23047-.08983.20312-.14063.17578-.21094.14063-.29297.10547-.39453m2.82421 2.17578h.78516l.01953-.3164.0586-.28516.10156-.2539.14062-.21485.1797-.17578.22265-.1289.26562-.07813.3086-.02735.23828.01954.22265.0625.20313.10156.17969.14062.14843.17188.11329.20703.07421.23438.02344.26562-.02344.26563-.0625.22656-.11328.1914-.15234.17188-.20313.16015-.24609.16797-.63281.39063-.53906.3125-.4375.3164-.34766.32422-.26172.33594-.1914.35156-.125.3672-.06641.39452-.02344.41797h4.21094V416.25h-3.33203l.08593-.28516.11329-.23828.14843-.19922.1875-.17968.23047-.17188.27735-.17578.71875-.41797.41406-.20312.34375-.23047.28125-.2539.21875-.26563.16406-.27735.11328-.28515.0625-.28516.01953-.28125-.03906-.38281-.1211-.34766-.1914-.3086-.25-.26171-.30078-.21485-.34766-.15625-.3789-.09765-.40625-.03516-.4336.03125-.39844.10156-.35546.16407-.3047.23437-.25.30469-.18358.375-.1172.44531-.03906.51953"/></g></defs><use xlink:href="#d"/></svg>