<svg xmlns="http://www.w3.org/2000/svg" role="img" xmlns:xlink="http://www.w3.org/1999/xlink" viewBox="142.45 309.95 326.84 171.84"><defs><clipPath id="a"><path d="M144 311.67188h1v168.65625h-1zm0 0"/></clipPath><clipPath id="b"><path d="M144 311.67188h324v168.65625H144zm0 0"/></clipPath><clipPath id="c"><path d="M467 311.67188h1v168.65625h-1zm0 0"/></clipPath><clipPath id="d"><path d="M144 477h3v3.32813h-3zm0 0"/></clipPath><clipPath id="e"><path d="M154 477h7v3.32813h-7zm0 0"/></clipPath><clipPath id="f"><path d="M167 477h7v3.32813h-7zm0 0"/></clipPath><clipPath id="g"><path d="M180 478h8v2.32813h-8zm0 0"/></clipPath><clipPath id="h"><path d="M193 478h8v2.32813h-8zm0 0"/></clipPath><clipPath id="i"><path d="M207 478h7v2.32813h-7zm0 0"/></clipPath><clipPath id="j"><path d="M220 478h8v2.32813h-8zm0 0"/></clipPath><clipPath id="k"><path d="M233 478h8v2.32813h-8zm0 0"/></clipPath><clipPath id="l"><path d="M246 478h9v2.32813h-9zm0 0"/></clipPath><clipPath id="m"><path d="M260 479h8v1.32813h-8zm0 0"/></clipPath><clipPath id="n"><path d="M267 479h2v1.32813h-2zm0 0"/></clipPath><clipPath id="o"><path d="M273 479h8v1.32813h-8zm0 0"/></clipPath><clipPath id="p"><path d="M280 479h3v1.32813h-3zm0 0"/></clipPath><clipPath id="q"><path d="M286 479h9v1.32813h-9zm0 0"/></clipPath><clipPath id="r"><path d="M293 479h3v1.32813h-3zm0 0"/></clipPath><clipPath id="s"><path d="M300 479h8v1.32813h-8zm0 0"/></clipPath><clipPath id="t"><path d="M307 480h2v.32813h-2zm0 0"/></clipPath><clipPath id="u"><path d="M313 479h8v1.32813h-8zm0 0"/></clipPath><clipPath id="v"><path d="M320 479h3v1.32813h-3zm0 0"/></clipPath><clipPath id="w"><path d="M326 478h8v2.32813h-8zm0 0"/></clipPath><clipPath id="x"><path d="M333 478h3v2.32813h-3zm0 0"/></clipPath><clipPath id="y"><path d="M340 478h8v2.32813h-8zm0 0"/></clipPath><clipPath id="z"><path d="M345 479h3v1.32813h-3zm0 0"/></clipPath><clipPath id="A"><path d="M353 478h8v2.32813h-8zm0 0"/></clipPath><clipPath id="B"><path d="M359 478h2v2.32813h-2zm0 0"/></clipPath><clipPath id="C"><path d="M366 478h8v2.32813h-8zm0 0"/></clipPath><clipPath id="D"><path d="M373 478h3v2.32813h-3zm0 0"/></clipPath><clipPath id="E"><path d="M380 477h7v3.32813h-7zm0 0"/></clipPath><clipPath id="F"><path d="M393 479h8v1.32813h-8zm0 0"/></clipPath><clipPath id="G"><path d="M399 479h2v1.32813h-2zm0 0"/></clipPath><clipPath id="H"><path d="M407 477h7v3.32813h-7zm0 0"/></clipPath><clipPath id="I"><path d="M420 477h7v3.32813h-7zm0 0"/></clipPath><clipPath id="J"><path d="M433 478h8v2.32813h-8zm0 0"/></clipPath><clipPath id="K"><path d="M446 478h8v2.32813h-8zm0 0"/></clipPath><clipPath id="L"><path d="M460 478h8v2.32813h-8zm0 0"/></clipPath><clipPath id="M"><path d="M144 464h3v6h-3zm0 0"/></clipPath><clipPath id="N"><path d="M144 450h3v7h-3zm0 0"/></clipPath><clipPath id="O"><path d="M144 439h4v3h-4zm0 0"/></clipPath><clipPath id="P"><path d="M144 424h3v6h-3zm0 0"/></clipPath><clipPath id="Q"><path d="M144 410h2v8h-2zm0 0"/></clipPath><clipPath id="R"><path d="M144 415h1v3h-1zm0 0"/></clipPath><clipPath id="S"><path d="M144 399h4v2h-4zm0 0"/></clipPath><clipPath id="T"><path d="M144 384h4v6h-4zm0 0"/></clipPath><clipPath id="U"><path d="M144 373h4v2h-4zm0 0"/></clipPath><clipPath id="V"><path d="M144 359h4v3h-4zm0 0"/></clipPath><clipPath id="W"><path d="M144 346h4v2h-4zm0 0"/></clipPath><clipPath id="X"><path d="M144 332h4v4h-4zm0 0"/></clipPath><clipPath id="Y"><path d="M144 319h4v4h-4zm0 0"/></clipPath><clipPath id="Z"><path d="M465 317h3v2h-3zm0 0"/></clipPath><g id="aa" clip-path="url(#clip1)"><path fill="#fff" fill-opacity="0" fill-rule="evenodd" d="M0 0h1000v1000H0zm0 0"/><path fill="#d3d3d3" fill-opacity="0" fill-rule="evenodd" d="M162.15234 355.86719l-.23437.29297.0586.23437.11718.17188.17578.23437.29297.34766.11328.0586.11719-.17188.0586-.23438.17577-.17578.46485-.17578h.69922l.23437.29297.28906.8164.0586.17579.17578.23046.35156.23438.69922.69922.17188.17578.23437.34765.23438.41016.28906.58203.41015.46485.23047.23437.23438.17578.11719.23047.17578.29297.17187 1.16406v.23438l.0586.28906.05859.11719.11719.11719.34765.41015.11719.17188.17578.17578.17578.23437.11719.17188.17188.35156.05859.23438.23437.40625.23438-.0586-.17578.17578-.0586.92969h-.58203l-.23437-.11328-.34766.11328-.11719.11719-.05859.29297-.0586.17578-.11718.17187-.46484.29297-.0586.23438-.0586.11328v.64453l.0586.17187v.41016l.0586.0586v.40624l.05859.40625.11719.17579.05859.05859.23047.64062-.0586.29297v.69922l-.05859.58203v.23438l-.0586.23047-.05468.35156v1.92187l.05469.1172h.42578l-.36719.11718-.02344.35156.89063 1.16797 1.74219.53906 1.33984.35938v.53906l.08984.8086.53516.71484 1.51953.26953.89063-.08594.08984 1.16406.53516.1797 1.16015-.1797 2.05469-.98437 1.16016-.36328 1.8789-.17578 1.69531-.1797-.17968.71876-1.51563.08594-1.25.08984-.80469.26953-1.07421.8086.26953.71875.53515.89843-.17968.625-.26563.8086.26563 1.07812.625.89844.80468.17969 1.25-.1797-.26562.72267.09766.5039.05468.29297v.17188l.0586.29296v.40625l.17578.1172.35156.11718h.40625l.29297-.17578.11328-.11719.0586-.11719.11718-.23047.0586-.17578.35156-.46484.23047-.17578.17578-.0586.17578.0586.0586.17578.11718.98828.05469.46875.0586.17188.11718.23437.17578.0586.8164.05859h.28907l.11719.23437.05859.40625.0586.35156v1.10547l.11718.29297.11719.34766.28906.69922.17578.35156.58203.7539.35157.17579.17187.0586.46875.23437.64063.46484.34765.23438.29297.17578.29297.05468.23047.0625.8164.34766.29297.17578.11328.17188.35157.35156.11719.17578.52343.64063v.28906l.0586.35156v.34766l.05859.35156.0586.28906.11718.0586.17188.05859h.17578l.58203.23437.17578.1172.17578.28905.17578.23438.11328.23437.29297.23047.11719.11719v.41016l.0586.05468.28906.23438.23437.11719.0586.11718.11718.17188.0586.11719.23047.23437.05859.17578.23437.0586.1172.05859-.1172.11328-.05859.11719v.11719l-.11719.29296-.11719.28907v.58203l.17579.11719.11718.05859.0586.11719.11719.11719.11328.05859.17578.34765.0586.35157.05858.40625v.17578l-.05859.17578-.11719.69922v.17187l.1172.17579.29296.29296h.40625l.17578.1172.11719.17187.11719.29296v.23438h-.52735l-.23047-.23438h-.23437l-.17578.0586-.0586.69922.0586.34765.11719.17579.17578.41015.11718.23047.28907.46875.17578.05469h.52344l.23437.0586.75781.64062.0586.29296v.23438l.05859.0586.23047.34765v.35156l-.11719.17188v.29297l.29297.28906.29297.17578.17187.0586.29297.17577.29297.1172.58203.40624.28906.23438.29297.17578.21875.16015.01563.01172.23047.17579.64062.52343.17578.23438.1172.17578.17577.17578.11328.17188v.64062l.1172.17578.46874.11719.58203.11719.23438.05859.23047.11328.29297.11719.11328.0586.58593.35156.28907.17187.17578.0625.17578.05469.17578.0586.69922.35155.28906.17579.23438.05468.28906.17578.23437.1172.64063.40624.29297.11719.17187.0586.23438.05859.41015.05859.23047.0586.23438.11718.0586.17188-.41017.17578.46875.0586.0586.29296.11328.23438.17578.05468.23438.0586.17578.05859.40625.11719.64062.23437.11719.17188.0586.23437v.17578l-.0586.1172-.0586.40624.23438.23438.11719.05859.34766.11719.64062.23047.17578.11718.28906.1172.17578.17577.23438.46485.58203 1.10546.17578.17579.34766.17578.17578.11719.35156.11718 1.04688.52344.23437.0586.46485.11327.29297.0586.46484.17578.75781.58203.23438.23438.34765.46484.17578.17578.28907.23438.8164.69921.29297.17579.28906.28906.29297.17578.29297.28906.69531.64063.17578.17578.29297.23437.28907.23438.46875.28906.64062.58203.34766.23438.23437.29297.34766.34765.35156.46485.9336.99218.34765.40625.11719.17579.23437.05859.11328.11719.64454.17578.23047.11328.23437.0586.29297.17577.23047.1172.9336.69921.40624.40625.23438.17578.40625.17578.23437.11719.8164.34766.34766.23437.23438.11719.29297.28906.23047.11719.7578.35156.35157.17188.23047.05859.29297.11719.23437.0586.8711.17577h.8164l.46875.23047.17188.0586.875.69921.46484.1172.29297.05858.17578.0586.23047.0586.46875.05859.34766.05859.35156.0586.40625.05859h.29297l.17187.0586v.23046l.17578.17578h.29297l.34766.0586.35156.05859.69922.11719h.64063l.46484-.23438.29297-.17578.17187-.11719.41016-.17187.28906-.17578.9336-.46485.46875-.29297.52343-.29296.46485-.17188.46484-.17578 1.05078-.46485.28906-.11718.41016-.11719.28906-.11719.52735-.17578 1.51562-.69922.58203-.34765.28907-.0586.29297-.0586.34765-.11718.875-.23047.35156-.11719h.11329l.23437-.05859.875-.23437.23438-.0586h.8125l.35156-.0586.8164-.11718.17188-.0586.35156-.05468.29297-.0586.23047-.05859.8164-.17578.17579-.0586h.34765l.23438-.05859.46484-.11718.75781-.17188.23438-.0586h.34765l.41016-.11718.28906-.0586 1.28516-.05859h.28906l.41016-.0586.23047-.05858h.17578l.875-.1172h.40625l.41015-.11718h.34766l.35156-.11328.8711-.0586h1.75l1.04687.28907.41016.11719.28906.11718.35156.11719.28907.11719 1.05078.17187.28906.0586h.29297l.29297.05859.17187.0586.41016.05859.17187.0586.1172.05858h.11718l.11719.0586.35156.0586h.11328l.41016.0664 1.92187.39453 1.92578.39453 1.51953.44922 1.69532.71875 2.14453.80469 1.60547-.71875 1.42968-.80469 1.16016-1.07813 1.25-.44921 3.03516-.71875 1.875-.35938 2.14453-1.34765 2.23437-1.25391 2.5-1.25781 1.69531-.44922 1.78516-.17969 1.16016-.26953.625.53906 1.33984-.26953.71485-.98828.98437-1.34375.44531-.17969.80469-.35937 1.875-.53907 1.78516-.44921 1.25-.26954 1.16015-.08984 1.69922-.08984 1.96094-.26954 1.25-.08984h.53906l.625-.08984h.89063l2.14453-.17969 2.41015-.17969 2.58985-.08984 1.69531.17969 1.60938.08984 1.42968.35938 1.16016.71875 1.875.98828 1.16015 1.52734.26563.71484.6289.08985.35548.89844.53515.53906.53516 1.52734 1.07422.35938h.53515l-.80469.53515.08985 1.70703.71484 2.69532.89063.80468.89453.98829.71484 1.2578 1.78516.53907 1.51953-.17969.35547 1.34375 1.60937-.80469.98047-.53906.26953.26953.31641-.21484.21875-.14453.80078.44922.44922-.35938h.35547l.53515-.26953.53907-.71875.53515-.26953.625-.98828 1.16016.44922.83984.3711 1.39454.61718 1.6953-.17969h1.60548l1.78515.08985.17969-1.70704.53516-1.34375.80468.26954.4922.84765.40233.40625-.08984.53906v.35938l.71485.44922.71093-.26953h1.42969l.35938.98828.4453 1.25781.71485 1.34375 1.25.6289 1.69531.62891.71485-.17969.17969-.53906.98046-.08984.44922.35937.08594 1.25782-.26563.6289-.53515.17969v.53906l.71484.98438.26563.53906.98437.98828.80078 1.07813-.26562.35937-.08985.89844-.625 2.33203-.35546 2.0664-.08985 1.79298-.17969.71875-.08984.53906v1.4375l-.98047 1.88281-.35937 1.70703-.53516.89844-.80469 1.16797-.26562.53906 2.05469 1.2539.08593.35938-.35546.53906-.08985-.17968v.80859l.08985 1.4375-.44532.71484-1.07422.09375-.26562.71485.53515.89844.8047.71875 1.16015.80859 1.33984.26953.44531.35938-.35546.44921-1.78907-.08984-1.25-.44922-.71484-.71875-.625-.08984-.17578 3.58984-.1875 1.3086h89.35937V311.70313h-55.26953v49.08203l.76172.125 3.28906.54296 2.02344 2.83594v2.7539l2.35156.33204 2.34766.33203h4.05078l-1.3789 4.16016-2.02344.70703-2.02344.70312-.54297.34375-2.59375 1.6172-.1875.11718-2.02344-2.07813-.73046-2.74218-2.67188-2.07813-1.375-3.5-.0664-.08203-1.95704-2.67188 2.75-1.41796v-49.08204H294.42187v91.41407l.1172.03125.1328.01172.07422.07421.10547.04688.08985.0586.08593.05859.08985.0586.29687.29687.0586.08984.03125.11719.02734.11719.01563.13671-.03125.1172-.0586.08983-.0586.08594-.04296.10547-.04688.10156-.02734.1211v.14453l.17578.26953.14844.14844.07422.08594.07422.07421.04296.10547.0625.08985.0586.08593.04297.10547.0586.08985.04687.10156.04296.10547.0586.08594.11719.17968.07421.07422.0625.08594.0586.08984.04297.10547.0586.08985.05858.08593.0625.08985.0586.08984.04297.10156.11719.17969.07421.07422.0586.08594.07422.07421.08984.0586.10547.04687h.14844l.1328-.01562.13282.01562.10156-.04687.07422-.07422.04688-.10156-.01563-.13281v-.14844l-.04687-.10547-.02735-.11719-.04687-.10156-.02735-.1211-.04296-.10156-.0625-.08984-.04297-.10156-.04297-.10547-.03125-.11719-.01563-.13281-.01171-.13672.08593-.0586.0586-.08593.12109-.03125.04297.10547.01562.1328v.1172l.0586.10156.0586.08984.08983.0586.14844.14843.0586.08985.04296.10547-.01171.10156.08593.0586.10547.04687.08594.0586.08984.05858.07422.07422-.11719.02735-.10546.04687-.08594.0586-.07422.07421-.0586.08985-.0625.08594-.02734.12109-.04687.10156-.04297.10547-.03125.11719-.01172.13281-.01563.13281v.14844l.02735.11719.04687.10547.04297.10156.0586.08984.07421.07422.08985.0586.07422.07421.08984.0586.0586.08984.04296.10547.04688.10156.11719.03125.1328.01563h.14845l.11718-.03125.10547.04297.04297.10547.04688.10156.02734.1211L299.5 410l.02734.11719.03125.1211.02735.11718.10547.04297.10156.04687.13281-.01562.14844.14844.0625.08593.07422.07422.07031.07422.08984.0625.10547.04297.10156.04297.1172.03125.13671.01562.11719-.03125.07422-.07422.02734-.11718-.01172-.13282-.03125-.12109-.02734-.11719.04297-.10547h.11719l.08984.0625.11719.02735h.14843l.13282.01562h.14843l.13282.01563.1328-.01563h.14845l.1328-.01562.13282-.01172.13672.01172.11719-.02735.13281-.01562.1914-.0586-.05859.17579-.01562.1328-.02735.1211-.01562.13281-.0586.08594-.1328.01563-.10548.04687-.10546.04297-.1172.03125-.11718.02735-.26563.03125h-.14843l-.13281.01562-.07422.07422.05859.08594.14844.14843.11719.1797.07421.0703.08985.0625.08984.0586.08594.0586.08984.05858.10156.04297.10547.0625.10547.04297.08594.0586.10547.04687.10156.04297.17969.11719.0586.08984-.04298.10156-.04687.10547.01562.13281.22266.22266.0586.08985.04296.10156.03125.1211.04297.10155.01563.13282.03125.11718.01171.13672.03125.11719.14844.14844.10156.04297.10547.04296.1172.03125.1328.01563.13672.01563h.11719l.11719-.03125.08984-.0586.04297-.10547.04688-.10156.04296-.10547.03125-.11719.01172-.1328v-.14845l-.01172-.1328-.01562-.13282-.03125-.11719-.04297-.10547-.04688-.10547-.04296-.10156-.04297-.10547-.01563-.13281.01563-.13281.02734-.11719.03125-.11719.02735-.1211.04687-.10155.08984-.0586.08594-.0625.07422-.07422.08984-.05859.22266-.22266.0586-.08593.07421-.07422.11719-.17969.0586-.08594v-.14844l-.07423-.07421-.10156-.04688-.10547-.04297-.10156-.04297-.0586-.08984-.04687-.10547-.02734-.11719.08984-.05859.11719-.03125.10156-.04297.17969-.11719.14844-.14843.01172-.13282-.01172-.10546-.08985-.0586-.1328.01563h-.14845l-.1328.01562-.13282-.01562-.1211-.03125-.08593-.0586-.07422-.07422-.0586-.08984-.0625-.08594-.11718-.17969-.0586-.08593.03125-.1211.08594-.05859.1211-.03125.05859-.08594v-.1211l-.03125-.11718-.0586-.08984-.05859-.08594-.04687-.10547-.02735-.11719-.01562-.1328.0586-.08985.07421-.07422.08984-.0586.1172-.17968.07421-.07422.0586-.08594.14843-.14844.1211-.03125.1328-.01562.13282.01562.07422.07422.04297.10547.01562.13281-.03125.1172-.11719.03124-.1328.01172-.14844.14844-.04297.10547-.04688.10156-.02734.1211-.03125.11718v.14844l.03125.11719.04297.10546.05859.08985.07422.07031.07422.07422.11719.03125.12109.02734.11719-.02734.1328-.01563h.1172l.08984.0586.07422.07422.04687.10546.0586.08594.10156.04688.13281.01562.10547.04297.08594.0586-.01172.10546-.07422.07422-.17969.11719-.05859.08984-.08984.0586-.07032.07422-.07421.07421-.0625.08985-.02735.11719-.01562.1328.01562.13282-.01562.13281v.14844l.01562.13281.02735.1172.03125.12108.07421.07422.08985.0586.08594.0586.08984.05858.11719.03125v.08594l-.10157.04688-.08984.0586-.26563.03124-.11718.02735h-.14844l-.10547.04296-.10156.04688-.0586.08984-.0625.23438-.01171.13281-.03125.1211-.01563.1328v.29298l-.01172.1328.01172.13673.01563.1328.1328.01563.13282.01172.1211.03125.08593.0586.07422.07421.04688.10547.04296.10157.01563.1328v.44532l-.01563.13281v.44532l.03125.26562.02735.11719.01562.13281.03125.11719.08594.21094.03125.26562v.14844l-.03125.11719-.02734.11718-.03125.1211-.02735.11719-.03125.11718-.03125.1211-.01171.1328-.01563.13282.08984.0586.1172-.03125.10155.01562.04688.10547-.03125.26562v.44141l-.04297.10547-.04688.10547-.04296.10156-.04297.10547-.0586.08594-.03125.12109-.04296.11719-.03125.11719-.01563.1328.01563.13282.05859.08984.10547.04688.08594.0586.05859.08593-.01172.13672-.03125.11719-.04297.10156v.44531l-.01562.13281v.14844l-.03125.11719-.04297.10547-.02735.11719-.04687.10546-.04297.10157-.03125.12109-.02734.11719-.03125.13281-.03125.11719-.02735.11719-.04297.10546-.03125.1172-.03125.12108-.01171.13282-.01563.13281v.29688l.02734.11718v.14844l.04688.39844.02734.11719.0586.08984.12109.03125h.14844l.13281-.01563.0586.08985v.11719l-.0586.08984-.08984.0586-.10157.04296-.10546.04688-.08985.05859-.08594.0586-.13671.01562-.1172-.03125-.1328-.01563-.10157.04688-.0625.08594-.01172.13671-.01562.13282-.03125.11719-.02735.11718-.01562.13281-.03125.1211v.29687l.01563.13282.03125.11718v.14844l.01171.13281v.14844l-.02734.11719-.04688.10156-.02734.1211-.03125.11718-.0586.08985-.07421.07421-.10156.04297-.10547.04688-.11719.02734-.1211.03125-.10156-.04687.0586-.08594.10547-.04688.02734-.11718.03125-.11719.02734-.1211.03125-.11718v-.14844l.01563-.13281-.03125-.11719-.04297-.10547-.10547.01563-.07422.07422-.10156.04296-.08984.0625-.07422.07422-.04297.10157-.01563.1328-.03125.1172L304.25 426l-.03125.11719-.02734.11719-.03125.12109-.02735.11719-.03125.11718-.04297.10547-.08984.0586h-.08984l-.1172-.03125-.03124-.08594.01562-.13672-.03125-.11719v-.14844l-.01171-.1328v-.14844l-.0625-.23438-.02735-.1211-.04297-.10156-.04687-.10546-.0586-.08594-.05859-.08985-.04297-.10546-.0625-.08594-.14844-.14844-.0703-.07422-.10548-.04687-.10547-.04297-.10156-.04297-.29687-.29688-.08985-.07421-.08594-.0586-.10546-.04297-.08985-.0625-.08594-.0586-.10546-.04296-.08985-.0586-.08594-.0625-.07421-.0703-.10547-.04688-.08594-.0586-.10547-.04296-.08984-.0625-.10156-.04297-.10547-.04297-.08594-.0586-.10547-.04687-.10547-.04297-.10156-.04687-.08985-.0586-.10156-.04297-.10547-.04296-.08984-.0625-.11719-.02735-.13281-.01562-.13281.01562H299.75l-.13281.01563-.11719-.03125-.08984-.0586-.07422-.07422-.08985-.05859-.10156-.04688h-.14844l-.12109-.02734-.10156-.04297-.07422-.07422-.11719-.17968-.08984-.0586-.10156-.04297-.08985-.0625-.10547-.04296-.08984-.0586-.08594-.0586-.10547-.04687-.0586-.08594-.05858-.08984-.04297-.10547-.04688-.10156-.07422-.07422-.08594-.0586-.07421-.07421-.08985-.0586-.22265-.22265-.04297-.10547-.03125-.26563.10547-.04296h.14453l.10547.04296.07421.07422.08985.0586.08594.0586.10546.04687.08985.05859.14844.14844.0703.07422.14845.14843.0625.08594.07421.07422.08594.0586.07422.07421.08985.0625.08984.0586.08594.05859.26953.17578.10156.04688.10547.04296.10156.04297.04688-.07421.05859-.08594.07422-.07422.07031-.07422.10547.04297.07422.07422.0586.08984.04296.10156.04688.10547.04296.10547.1211.02735.11719-.02735.07421-.08984.04297-.10547.0586-.08985.07422-.07421.10546-.04297.1172-.02735.1328.01172.08985.0586.14844.14843.05859.08985.04297.10547.04687.10156.04297.10547.04297.10156.10547.04688.10547.04296.13281.01563.08594-.0586.0586-.08984.07421-.07422.10547-.04297.11719.02735.10547.04687.10156.04297.10547.04297.10156.04688.17969.11718v.11719l-.01563.13281.01563.13281.01562.13672.0586.08594.10156.04688.1211.02734.11718.03125h.14844l.11719-.03125.05859-.08984.17969-.1172.05859-.08983.07422-.07422.0586-.08594.11718-.17969.17969-.11719.11719.03125.08984.0586.04297.07422-.01563.1328v.1172l.08985.05859h.14843l.13282-.01563.1328-.01171.26563-.03125.10547-.04297.11719-.03125.1211-.02735.07421-.07421.07031-.07422.0625-.08985-.01562-.10547-.04688-.10156-.10156-.04297-.10547-.01562-.11718.02734-.26563.03125h-.14844l-.07421-.07422-.08985-.0586-.11719-.03124-.11718-.02735-.13282-.01562h-.14843l-.13282.01563h-.29687l-.10547-.04688-.14844-.14844-.04297-.10156-.05859-.08984.22266-.22266.08593-.0586.10547-.04296.11719-.03125.13281-.01563.13281.01563.13672.01562.10157.04297.1328-.01172.08985-.0625.10156-.04297.0625-.08984-.04687-.10156-.08984-.0586-.1172-.03125-.10155-.04296-.0586-.08985-.0625-.08984v-.11719l.01563-.13281.10547-.04688.07421-.07031v-.1211l-.08984-.05859-.03125-.11719.08985-.05859.07421-.07422.04297-.10547.0586-.08984.04687-.10156.01563-.13281v-.14844l-.04688-.10547-.04297-.10156-.08984-.0586-.13281-.01562-.10157-.04297-.13671-.01563-.1172-.03125h-.4453l-.13282-.01562-.13281-.01172-.13281-.01563-.11719-.03125h-.14844l-.13281-.01562-.13281-.01172-.26563-.03125-.1211-.04297-.08593-.0586-.07422-.07421v-.14844l.01172-.13281.10547-.04688.10156-.04296.13281-.01563h.15235l.13281-.01562h.29297l.1211.03125.10156.04296.08984.0586.23438.0625.12109-.04688.08984-.05859.10156-.04297.13282-.01562.10547.04296.10156.04688.13281.01172.1211-.02735h.14453l.12109-.03125.11719-.02734.10547-.04687.07421-.07422.08594-.0586.14844-.14843.0586-.08594.04687-.10547.02734-.11719.01563-.10547-.10156-.04296-.08985-.0586-.11719-.03125-.10546-.04297-.08985-.0625-.07422-.08594-.07422-.07421-.10156-.04297-.10547-.04688-.10156-.04297-.0586-.08984-.04687-.10156-.08594-.21094-.0625-.08594-.05859-.08984-.07422-.07422-.08594-.0586h-.26953l-.11719.03126-.08984.05859-.10156.04297-.13281.01562-.10547-.01562-.02735-.11719-.0625-.08984-.11718-.03125-.10157-.04297-.14843-.14844-.03125-.11719-.01563-.10546.07422-.07422.17969-.1172.11719-.02733.11718-.03125.13672.01562.10156.04297.10547.04297.10156.04687.10547.04297.1172.03125.1328.01563.1172.02734.1328.01563.10547-.01563.08985-.0586-.07422-.07421-.10547-.04297-.07422-.07422-.07422-.08984-.14844-.14844-.08593-.0586-.08985-.05859-.07422-.07422-.08984-.0586-.10156-.04687-.1211-.02734-.10156-.04688-.10547-.04296-.11719-.03125-.10156-.04297-.1211-.03125h-.14843l-.11719.03125-.10546.04297-.08594.0625-.17969.11718-.08594.0586-.08984.0586-.10547.04687-.08594.05859-.10547.04297-.10156.04297-.10547.04687-.07422.07422-.05859.08985-.0586.08593-.04687.10547-.0586.08594-.07421.07422-.13281-.01172-.1172-.03125h-.11718l-.07422.07422-.08984.0586-.07422.07421-.08984.0586-.08594.05859-.10547.04687-.10156.04297-.13672.01563-.10156-.04297-.14844-.14844-.10547-.04688h-.08594l-.10547.04688-.10156.04297-.1211.03125-.11718-.03125-.07422-.07422v-.11719l.03125-.1211.07422-.0703.0586-.08985.07421-.07422.11719-.03125.10547-.04296h.29297l.13281-.01563.13672-.01563.10156-.04296.08985-.0586.10156-.04687.08984-.0586.13281-.01171.08985.05859.13281.01172.08984-.0586.08594-.05859.10547-.04297.08984-.0586.08594-.0625.08985-.05859.14843-.14843.0586-.08594.05859-.08985.10547-.04296.13281-.01563.11719.02735.1211.03125.05859-.0586.05859-.08984.03125-.26563.02734-.11719.10547.01172.13281.01563.10157-.04297.08984-.0586.0586-.08984.07421-.07422.0586-.08984.04687-.10156.01172-.13281-.01172-.13282-.04687-.10547-.14844-.14843-.0586-.08985-.05859-.08594-.04297-.10546v-.44532l.01563-.1328v-.14845l.01172-.1328-.0586-.0586-.08984.0586-.10156-.04298-.17969-.11719-.08594-.05859-.0625-.08984-.0586-.08985-.07421-.07421-.08594-.0586-.1211.03125-.10155.01172-.10547.04688-.08594.05859-.10547.04297-.14844.14844-.08984.05859-.08594.0586-.08984.0625-.10547.04296-.13281.01563v-.1211l.10547-.04297.11718-.03125.07422-.0703.04297-.10548v-.14844l-.02734-.11718-.14844-.14844-.13281-.01563h-.14844l-.11719.03125-.10547.04297-.10156.04297-.08984.0625-.11719.02735-.07422-.07422.01172-.13281-.04297-.10157-.04297-.10547-.08984-.05859-.11719.02734-.1211.03125-.11718.03125-.10156.04297-.1211.03125-.10156.04297-.10547.04297-.08984.0586-.10156.01562v-.11719l.01562-.13281-.0586-.08985-.07421.04297-.14844.14844-.0586.08985-.07421.07421-.04688.10547-.04296.10156-.07422.07422-.0586.08985-.07422.07422-.05859.08593-.07422.07422-.08984.0625-.07422.07031-.07422.07422-.10156.01563-.13281.01562-.10547-.04296v-.1211l.14843-.14844.04297-.10156.0586-.08984.04687-.10156.04297-.10547.0586-.08985.03124-.11719.04297-.10156.03125-.1211.02735-.11718.04687-.10547.04297-.10156.04297-.10547.07422-.07031.08984-.0625.08985-.0586.10156-.04296h.29687l.26563-.03125.10547-.04297-.07422-.07422-.11719-.03125-.10547-.04297-.08984-.0586-.10156-.04687-.08985-.0586-.10156-.04296-.10547-.04297-.08984-.0625-.08594-.0586-.10547-.04296-.10156-.04297-.1211-.03125-.11718-.03125-.10157-.04297L297.5 410.25l-.10156-.04297-.08985-.0586-.04296-.10546-.01563-.13281.10156-.04297.13281-.01563.13672.01563.13282-.01563.10156-.04297.0586-.08984.01562-.10547-.08985-.0586-.07421-.07421-.10157-.04297-.08984-.0586-.14844-.14843-.04297-.10547-.01562-.13281v-.29297l-.0586-.08985-.08984-.05859-.07422-.07422-.04297-.10547-.03125-.11718-.0586-.08985-.07421-.07422-.11719-.02734-.07422-.07422-.08984-.0586-.08984-.0625-.08594-.05859-.07422-.07421-.0586-.08594-.04687-.10547-.08594-.0586-.14843-.14843-.19532-.0586-.1328.01563-.10157.04297-.07422.07422-.04688.10156-.04296.10547-.0586.08984-.0586.08594-.29687.29687-.08984.0586h-.08594l-.0625-.08594-.04297-.10547.03125-.11719.0586-.08984.02734-.11719-.01172-.13281-.08984-.0625-.10547.04688-.11719.02734-.11719.03125-.26953.17578-.10156.04688-.11719.02734-.10546.04687-.08985.0586-.10156.04297-.0586-.08594-.04687-.10547.01563-.13281.04687-.10547.07031-.07422.07422-.07031.0586-.08985v-.14843l-.04297-.10547h-.23829l-.10156.04687-.03125.11719-.02734.11719-.03125.1211-.07422.04296-.13281.01563-.07422-.04688-.04297-.10156-.04297-.10547-.04687-.10156-.04297-.10547-.1211.03125-.10156.04297-.13281.01562-.11719.03125-.10547.04297-.08984.0586-.10156.04687-.1211.02734-.13281.01563-.10156-.04297-.0586-.08985-.04687-.10546-.04297-.10157-.04297-.10546v-.1172l.0586-.08984.08593-.05859.17969-.11719.10156-.04687.10547-.04297.10547-.0586.10156-.04296.08985-.0625.10156-.04297.10547-.0586.10156-.04687.08984-.0586.10547-.04296.10156-.04297.08985-.0625.10156-.04297.13672-.01563.11719.03125.10156.04297.1211.03125.10156.04297.10546.04688.10157.04296.10547.04297.10156.04688.10547.04297.10156.04297.10547.04687.08594.0586.10546.04296.1172.03125.10546.04297.10156.04688.08985.0586.10547.04296.10156.04297.10547.04687.11719.02735.10156.04687.1211.02735h.14843l.08594-.0586.01562-.10156.0586-.08984-.02735-.1172-.07422-.07421-.11719-.17969-.07421-.07422-.08985-.07421-.17969-.1172-.08593-.05859-.10547-.04296-.10156-.04688-.26954-.17578-.05859-.08985-.07422-.07421-.0586-.08985-.04296-.10156-.03125-.11719-.01563-.13672v-.5625l-.01171-.1328-.01563-.13282-.03125-.11719-.01562-.13281-.01172-.13281-.03125-.1211-.22266-.22265-.0586-.08594-.01562-.10547.03125-.11719.13281-.01562v-91.41406H172.9922v1.45312l-.0586.23438-.35156 1.05078-.17187.52343-.1172.34766-.17577.41016-.11719.17187-.23438.29297-.23046.0586h-.35157l-.11718.05859-.23047.40625v.29297l.11719.17578.23046.23047.1172.23437.64062.75781.29297.46485.17578.23437.23047.35156.23437.34766.64063.8164.17578.46485.17187.41016.11719.69531.17578.46875.11719 1.39844.0586.46484v.875l.11718 1.04688v4.78125l-.0586.46484-.35156 1.28125-.17578.52344-.11328.41015-.35156.9297L172.93359 336l-.23437.58203-.11719.17578-.17187.34766-.17578.40625-.35157.8164-.0586.29297-.11327.29297-.11719.28906-.0586.17579-.11718.875-.0586.40625-.05859.11718-.0586.17579-.05859.17187-.23047.52734-.11718.17188v.23437l-.11719.23438-.0586.17187-.17577.58594v.28906l-.0586.17579v.29296l-.0586.11329-.05859.52734v.17187l-.05468.23438v2.6211l-.17578.8164-.1172.17578-.17577.23438-.1172.17187-.11327.23438-.58594.93359-.23047.28906-.29297.46485-.17578.23437-.28906.35156-.35156.69922-.11328.23047-.17579.41016-.17578.23046-.40625.52735-.8164.69922-.29297.17187-.28906.23438-.17579.11719-.17578.17578-.52344.40625-.52734.17578-.17187.17578-.23438.05469-.64062.17578h-.75782m12.21094 31.02344l-1.07422.44921.35938.89454 1.25-.71485.44531-.53906-.98047-.08985"/><path fill="#d3d3d3" fill-opacity="0" fill-rule="evenodd" d="M201.50781 416.59766h-.89453l.44922.6289.98047.35938.80469-.08985.4453-.98828-.17577.08985-.71485-.35547-.89453.35547m154.6211 59.0703l-.0586-.52343v-.29297l.11328-.29297.0586-.23046.46875-.46875h.11328l.11719-.11329.11718-.05859h.17579l.23437-.0586h.34766l.23437.0586.11719.0586.23047.17187.0586.17578.11718.58203v.29297l-.11719.17578-.17187.28906-.17579.17579-.52734.52343-.23047.23438-.11719.0586h-.17578l-.11718-.0586-.40625-.29297-.17579-.11719-.11718-.0586-.0586-.11327-.05468-.1172m6.64062-10.95702l-.0586-.17188v-1.10937l.0586-.17188.17578-.0586.17188-.05858h.17578l.23437-.0586.1172.0586.05858.69921-.05859.17188-.11719.17578-.11718.0586-.23438.52343-.11328.0586h-.23438l-.05859-.1172m9.61328-14.39062l-.11719-.17578v-.69922l.29297-.875.1172-.17187.17577-.35156.11328-.23047.1172-.29297.35155-.75781.1172-.23047.17187-.23438h.17578l.11719-.0586h.64062l.11719.0586.23437.23438.17188.11328.35156.29297.11719.11718.11328.17579v.11328l.11719.05859.11718.11719v.69922l-.05859.17578v.23047l-.0586.17578-.34765 1.05078-.11719.23047-.11719.23437-.11718.0586-.23047.23437-.64063.28906h-.875l-.41015-.11718-.64063-.46485"/><path fill="none" stroke="#bebebe" stroke-linecap="round" stroke-linejoin="round" stroke-miterlimit="10" stroke-width=".5" d="M467.95703 311.69531H144.02734v168.625h323.9297v-168.625"/><g clip-path="url(#a)"><path fill="#fff" fill-opacity="0" fill-rule="evenodd" d="M144 475.89063v4.4375h.0039H144V311.67188h.0039H144v164.21875"/></g><g clip-path="url(#b)"><path fill="#fff" fill-opacity="0" fill-rule="evenodd" d="M144.0039 480.32813V311.67188h17.75v71.0625l-4.4375 1.83203-2.5625 2.55859.34766 4.4375 2.21485 2.52344 4.4375 1.42187 4.0078-3.94531.4297-.70703v9.32812l-.22266.25391.22266.13281.21875-.13281-.21875-.2539v-9.32813l1.84375-3.73047-1.84375-1.92969-4.4375-2.46094v-71.0625h26.6289v45.54297l-4.4375 1.00391-3.3086 2.27344-1.1289 1.84765-3.49219 2.59375.1172 4.4375 3.375 3.6211.7539.8164 3.6836 3.45313 4.11327-3.45313.0625-4.4375.26172-3.40625 2.82031 3.40625-1.80468 4.4375-.71875 4.4375.91015 4.4375 3.23047 2.8125 2.98047 1.62891 1.46094 1.69922.58984 2.73828-.58984.83594L193.86328 396l-1.04297.47656L190.8711 396l-2.48828-2.55469-3.58984-1.88281-.84766-.88281-.85156.88281.85156 1.11328L185.46484 396l2.91797 4.34375.01563.09375-.01563.10156-3.09375 4.33594 3.09375 2.8125.92578 1.6289 3.51172 3.66407.16016.77344.42578 4.4375-.3125 4.4375 4.04688 4.4414.12109.07813 4.4375 3.1914 4.4375.85938 4.3789.3086.0586.04296 4.4414 2.11328 4.4375-.9961 1.30079-1.16015 2.39843-4.4375.73828-.375 4.4375-.33203 4.4375-.22656 4.44141-2.4414.82813-1.06641-.82813-1.17188-.42578-3.26562-4.01563-4.26563-.15234-.17187-4.28516-3.81641-1.70703-.6211-2.73047-2.98437-2.15234-1.45703-2.28516-1.8711-4.4375-2.25-4.2539-.3164-.1875-.29297L208.35938 396l-.82032-4.4375-1.40234-1.47266-4.4375-2.76171-1.5-.20313 1.5-1.32031 1.76953-3.1211 2.20703-4.4375-3.97656-3.53906-4.4375-.69922-1.59766-.19922-1.46875-4.4375-1.375-1.53125-3.47265-2.90625.74218-4.4414-1.70703-3.27735v-45.54296h44.38281v76.61328l-3.49218 3.27734 3.49219 3.34375 3.92187-3.34375-3.92188-3.27734v-76.61329h17.75391v69.39844l-1.47266 1.61328 1.47266 1.48829v32.35937l-.95703 1.66016.95703.86328 4.4375.46875 2.17969-1.33203-2.17969-1.39454-4.4375-.26562v-32.35938l2.76172-1.48828-2.76172-1.61328v-69.39844h22.1914V355.625l-.39062.42969.39063.57422 1.39062-.57422-1.39062-.42969v-43.95313h13.3164v33.39454l-3.7539 2.11328-.6836.26562-4.15625 4.17188 4.15625 3.07422 3.88282 1.36328.55468.46094.51172-.46094 3.1211-4.4375-1.91016-4.4375-1.72266-2.11328v-33.39454h8.875v60.21094l-1.96093 1.92578 1.96093.6797 1.10938-.6797-1.10938-1.92578v-60.21094h13.31641v32.01563l-3.91406 3.49219-.52344 2.28515-1.08984 2.15235 1.08984 1.70703 4.4375-.1211 2.27344-1.58593 2.16406-2.71094 4.4414-1.03906 2.625-.6875-2.625-1.58203-4.4414.11718-4.4375-2.02734v-32.01563h17.7539v19.56641l-1.6328 2.625 1.6328 1.5039 3.67579-1.5039-3.67578-2.625v-19.5664h17.7539v13.98046l-4.4375 2.60547-1.6914 1.16797 1.6914 1.26563v96.13671l-.2461.2422.2461.23827.23828-.23828-.23828-.24219v-96.13671l4.29297 3.17187.14453.27735.46485-.27735 3.02343-4.4375-3.48828-3.77344v-13.98046h4.4375V438.9453l-1.53125 1.4375 1.53125 1.4961 1.4414-1.4961-1.4414-1.4375V311.67187h22.1914V436.7422l-3.58202 3.64062-.85547.91406-4.4375.51954-4.4375.05468-4.22656 2.94922 4.22656 3.8164.91406.625 3.52344 2.89454 2.9336-2.89453 1.5039-.63281 1.64062.6328 2.79688 3.16798.60937 1.26953-.60937.71875-4.4375.97656-4.4375.0586-4.4375-.04688-4.4414.24219-4.4375-1.07813-1.5-.8711-2.9375-2.41015-1.17188-2.02734-3.26563-3.80469-4.4414.33594-4.4375 1.96484-1.625 1.5039-2.52344 4.4375.3086 4.4375 3.83984 2.78126 4.4375.83594 1.57812.8203 2.86328 2.3672 4.4375 1.14843 4.4375.00782 4.4375.01953 4.4414.02344 4.4375-.07422 4.4375.42968 4.4375.13672 4.4375-.03125 4.44142.2539 3.77734-4.28124-.04297-4.4375.70313-1.67578 2.99218-2.76172-2.99219-2.9375-2.99218-1.5-1.44531-1.48438-.52735-2.95703-3.91406-3.80469-.85156-.6328-3.58594-3.64063V311.67188h26.6289v82.59765L395.25781 396l1.72656 1.73047v28.55469l-.86328.78515.86329 2.50781.2539 1.9297 1.57031 4.4375 1.60938 4.4375-1.22266 4.4375.41797 4.4414 1.8125 1.82812 1.35938-1.82812 1.87109-4.4414 1.20703-.58594 4.4375-1.48438 4.4375.48047 3.33594 1.58984 1.10547.91406 1.45312-.91406-1.45312-1.47265-1.20313-2.96485-3.23828-2.71094-.76953-1.72656-3.66797-3.69531-.67969-.74219-3.7578-3.76953-4.4375.3164-3.48438-.98437-.95704-.78515v-28.5547L399.54298 396l-2.5586-1.73047v-82.59765h26.63282v80.03515L419.21875 396l2.50781 4.4375-.20312 4.4375-2.34375 1.52734-3.46094-1.52734 1.01172-4.4375L418.83984 396l-4.10156-2.73047L411.91797 396l.73828 4.4375.86328 4.4375-.3711 4.4414 1.58985 1.61329 2.86719 2.82422-.91016 4.4375 2.48438 2.54687 1.92969 1.89063 2.5078 2.3164 3.3047-2.3164 1.1328-.27735 4.4375-.5039 4.4375-1.125 2.67188-2.53125 1.76953-1.02735 3.57422-3.41015.86328-1.91016 2.17579-2.52734-2.17579-2.23438-1.01562-2.20703-.16016-4.4375-3.26172-3.57422-4.4414 2.85547-.71875.71875-3.71875 2.39844-4.4375-.53906-2.58985-1.85938L427.92578 396l-4.3086-4.29297v-80.03515h26.62891v113.24218l-2.17968 2.15625 2.17968 3.35156 2.20704-3.35156-2.20704-2.15625V311.67187h17.75v168.65625H144.00391"/></g><path fill="#50fcfc" fill-rule="evenodd" d="M155.10156 391.5625l-.34765-4.4375 2.5625-2.5586 4.4375-1.83202 4.4375 2.46093 1.84375 1.92969-1.84375 3.73047-.4297.70703-4.0078 3.94531-4.4375-1.42187-2.21485-2.52344m11.08985 9.00781l-.22266-.13281.22266-.2539.21875.2539-.21875.13281m9.9414-31.19922l-.11719-4.4375 3.4922-2.59375 1.1289-1.84765 3.3086-2.27344v5.40625l-.91798 1.3086-3.51953 1.78906-1.76562 2.64843 1.76562 1.89454 2.35938 2.54296 2.07812 1.94922 2.32031-1.94922 1.23438-4.4375-2.7461-4.4375-.80859-1.30859v-5.40625l4.4375-1.0039 1.70703 3.27734-.74218 4.4414 3.47265 2.90625v6.27344l-3.47265 4.13281 3.17968 4.4375.29297.25782 4.4414 2.7539 3.10157-3.01172 1.33594-1.23046 2.45703-3.20704-2.45703-2.1875-4.4375-1.46875-4.4414-.47656v-6.27344l1.375 1.53125 1.46874 4.4375 1.59766.19922 4.4375.69922 3.97656 3.53906-2.20703 4.4375-1.76953 3.1211-1.5 1.32031 1.5.20313v1.29296l-2.67188 2.94141-1.76562 2.49219L195.42969 396l-2.60938 1.1914-3.6211 3.2461-.54687 4.4375 2.66016 4.4414 1.50781 1.57032.58985 2.86719 1.23047 4.4375 1.48046 4.4375 1.14063 1.22656 2.88672 3.21484 1.55078 1.13281 4.4375 2.02344 4.4375.46094 4.4414.44531 4.14844-4.0625.28906-1.15234 4.4375-2.28125L227.5 422.6289l.82813-.08594.90234.08594 3.53516.80468 1.10937-.80468 1.45703-4.4375-2.5664-2.72657-1.53125-1.71093-2.90625-2.58594-4.4375-1.78516-.12891-.0664-4.3086-4.06641-.46875-.375-3.96875-3.42578-4.4414-.65625-1.67188-.35547-2.76562-3.07422-4.4375-.83594L200.29688 396l1.40234-.85547 3.38281-3.58203-3.38281-2.9414v-1.29298l4.4375 2.76172 1.40234 1.47266.82031 4.4375 2.21485 4.14453.1875.29297 4.2539.3164 4.4375 2.25 2.28516 1.8711 2.15234 1.45703 2.73047 2.98438 1.70703.62109 4.28516 3.8164.15234.17188 4.01563 4.26563.42578 3.26562.82813 1.17188-.82813 1.0664-4.4414 2.4414-4.4375.22657-4.4375.33203-.73829.375-2.39843 4.4375-1.30078 1.16016-4.4375.9961-4.44141-2.11329-.0586-.04297-4.3789-.3086-4.4375-.85937-4.4375-3.1914-.1211-.07813-4.04687-4.4414.3125-4.4375-.42578-4.4375-.16016-.77344-3.51172-3.66406-.92578-1.62891-3.09375-2.8125 3.09375-4.33594.01563-.10156-.01563-.09375L185.46484 396l-1.51953-3.32422-.85156-1.11328.85156-.88281.84766.88281 3.58984 1.88281L190.8711 396l1.94922.47656L193.86328 396l3.39844-3.60156.58984-.83594-.58984-2.73828-1.46094-1.69922-2.98047-1.6289-3.23047-2.8125-.91015-4.4375.71875-4.4375 1.80469-4.4375-2.82032-3.40626-.26172 3.40625-.0625 4.4375-4.11328 3.45313-3.6836-3.45313-.7539-.8164-3.375-3.6211"/><path fill="#00e8fc" fill-rule="evenodd" d="M179.50781 371.26563l-1.76562-1.89454 1.76562-2.64843 3.51953-1.78907.91797-1.30859v2.48828l-3.89453 3.25781 3.89453 4.06641 2.51953-4.0664-2.51953-3.25782V363.625l.8086 1.3086 2.74609 4.4375-1.23438 4.4375-2.3203 1.94921-2.07813-1.94922-2.35938-2.54296"/><path fill="#00d4fc" fill-rule="evenodd" d="M183.94531 373.4375l-3.89453-4.0664 3.89453-3.25782v1.33594l-2.29687 1.92187 2.29687 2.39844 1.48828-2.39844-1.48828-1.92187v-1.33594l2.51953 3.25781-2.51953 4.06641"/><path fill="#00c4fc" fill-rule="evenodd" d="M183.94531 371.76953l-2.29687-2.39844 2.29687-1.92187v1.33594l-.69922.58593.69922.73047.45313-.73047-.45313-.58593v-1.33594l1.48828 1.92187-1.48828 2.39844"/><path fill="#00b8fc" fill-rule="evenodd" d="M183.94531 370.10156l-.69922-.73047.69922-.58593.45313.58593-.45313.73047"/><path fill="#00e8fc" fill-rule="evenodd" d="M191.3125 409.3164l-2.66016-4.4414.54688-4.4375 3.6211-3.2461L195.42968 396l1.83203-1.94531v3.28906l-4.4414 1.04297-2.29298 2.05078.29688 4.4375 1.9961 2.77734.52343 1.66407.78125 4.4375 2.57031 4.4375.5664 1.16796 1.85157 3.26954 2.58594 2.72265 1.85937 1.71875 2.57813 1.53125 4.4375.71485 4.4414.59375 2.90235-2.83985 1.1211-4.4414.41405-.44922 4.4375-.39063 4.4375-1.17969 4.4375-2.09765.15625-.32031-.15625-.16407-3.83203-4.27343-.60547-.53907-4.4375-3.22265-1.27343-.67578-3.16406-2.98438-1.82032-1.45703-2.61719-2.25781-4.4414-1.21875-4.4375-.9336-.08203-.02734-4.35547-2.29297-4.4375-.80078v-3.28906l1.76562-2.49219 2.67188-2.9414v2.16015l-.71094.78125.71094.95313.89844-.95313-.89844-.78125v-2.16016l3.38281 2.94141-3.38281 3.58203-1.40234.85547 1.40234.52734 4.4375.83594 2.76562 3.07422 1.67188.35547 4.4414.65625 3.96875 3.42578.46875.375 4.3086 4.0664.1289.06641 4.4375 1.78516 2.90625 2.58594 1.53125 1.71093 2.56641 2.72657-1.45703 4.4375-1.10938.80468-3.53515-.80468-.90234-.08594-.82813.08594-3.60938 1.0078-4.4375 2.28126-.28906 1.15234-4.14844 4.0625-4.4414-.44531-4.4375-.46094-4.4375-2.02344-1.55078-1.1328-2.88672-3.21485-1.14063-1.22656-1.48047-4.4375-1.23046-4.4375-.58985-2.8672-1.50781-1.5703m1.21484-26.63282l-3.17968-4.4375 3.47265-4.1328v1.32421l-2.36328 2.8086 2.36328 3.07812 4.4414 1.16015 4.39063-4.23828-4.39062-2.68359-4.4414-.125v-1.32422l4.4414.47656 4.4375 1.46875 2.45703 2.1875-2.45703 3.20704-1.33594 1.23046-3.10156 3.01172-4.4414-2.7539-.29298-.25782"/><path fill="#00d4fc" fill-rule="evenodd" d="M192.82031 381.32422l-2.36328-3.07813 2.36328-2.80859 4.4414.125v.96875l-4.4414.22656-1.25 1.48828 1.25 1.62891 4.4414 1.07813 2.8047-2.70704-2.8047-1.71484v-.96875l4.39063 2.6836-4.39062 4.23827-4.4414-1.16015m-1.9961 23.55078l-.29688-4.4375 2.29297-2.05078v1.1914l-.96094.85938.96094 3.98438 3.08985-3.98438-3.08985-.85938v-1.1914l4.4414-1.04297v5.29688l-1.91405 2.23437 1.91406.64453 4.4375.9375.6289-1.58203-.6289-1.49219-4.4375-.74219v-5.29687l4.4375.80078v1.61719l-2.53516.67578 2.53516.8711 1.5 3.5664-1.5 3.77734-4.4375-2.21093-2.96484 2.875.54296 4.4375 2.42188 3.65625.44531.78125 3.80078 4.4375.1914.20312 4.4375 4.15625.35157.08203 4.08594.875 4.4414.74219 1.65235-1.61719 1.15234-4.4414 1.63281-1.77344 4.4375-.11719 4.4375-2.0586.94532-.48827-.94531-1.13282-.55079-3.30468-3.88672-3.15235-2.42187-1.28515-2.01563-1.90235-3.16796-2.53906-1.26953-1.09375L210.57422 402l-4.4375-.52344-3.15234-1.03906-1.28516-.67578v-1.61719l4.35547 2.29297.08203.02734 4.4375.9336 4.4414 1.21875 2.6172 2.25781 1.8203 1.45703 3.16407 2.98438 1.27344.67578 4.4375 3.22265.60546.53907 3.83203 4.27343.15625.16407-.15625.3203-4.4375 2.09767-4.4375 1.17968-4.4375.39063-.41406.44922-1.1211 4.4414-2.90233 2.83985-4.44141-.59375-4.4375-.71485-2.57813-1.53125-1.85937-1.71875-2.58594-2.72265-1.85156-3.26954-.5664-1.16796-2.57032-4.4375-.78125-4.4375-.52344-1.66407-1.9961-2.77734"/><path fill="#00c4fc" fill-rule="evenodd" d="M192.82031 379.875l-1.25-1.6289 1.25-1.48829 4.4414-.22656V377.5l-4.4414.58203-.13672.16406.13672.1836 4.4414.99219 1.21485-1.17579-1.21484-.74609v-.96875l2.80469 1.71484-2.8047 2.70704-4.4414-1.07813m0 24.54688l-.96094-3.98438.96094-.85938 3.08985.85938-3.08985 3.98438"/><path fill="#00b8fc" fill-rule="evenodd" d="M192.82031 378.42969l-.13672-.1836.13672-.16406 4.4414-.58203 1.21485.7461-1.21484 1.17577-4.4414-.99218"/><path fill="#00c4fc" fill-rule="evenodd" d="M194.83984 413.7539l-.54297-4.4375 2.96485-2.875 4.4375 2.21094 1.5-3.77734-1.5-3.5664-2.53516-.8711 2.53516-.67578 1.28516.67578 3.15234 1.03906v1.01172l-2.0625 2.38672-.28516 4.4414-2.08984 3.5-1.10547-3.5-3.33203-1.94921-2.01172 1.94922.30469 4.4375 1.70703 2.57421 1.0586 1.86329 3.3789 3.80078 1.36328.63672 3.07422 2.9414 4.4375 1.17969 2.32422.32031 2.11719.39844.40625-.39844 1.17578-4.4414 2.85547-3.09766 4.4375.16016 2.91406-1.5.22265-4.4375-3.13672-2.54297-3.5664-1.89453-.8711-.82422-4.4375-3.54688-.0703-.07031-4.3711-2.26953-4.4375-.11719v-1.01172l4.4375.52344 4.4414 1.78125 1.26954 1.09375 3.16797 2.53906 2.01562 1.90235 2.42188 1.28515 3.88671 3.15235.55078 3.30468.94532 1.13282-.94531.48828-4.4375 2.0586-4.4375.11718-1.63282 1.77344-1.15234 4.4414-1.65234 1.61719-4.44141-.74219-4.08594-.875-.35156-.08203-4.4375-4.15625-.1914-.20312-3.80079-4.4375-.44531-.78125-2.42188-3.65625"/><path fill="#00b8fc" fill-rule="evenodd" d="M195.55469 413.7539l-.30469-4.4375 2.01172-1.94921 3.33203 1.94922 1.10547 3.5 2.08984-3.5.28516-4.44141 2.0625-2.38672 4.4375.11719v.60547l-4.4375.28906-1.1875 1.375 1.1875 3.83203.27344.60938-.27344.74218-2.52734 3.69532-1.91016.67968-1.64453-.67968-1.04297-4.4375-1.75-1.02344-1.0586 1.02344.07032 4.4375.98828 1.49218 1.67578 2.94532 2.76172 3.10937 2.84375 1.32813 1.59375 1.52343 4.4375 1.70704L215.01562 424l.36329-1.3711 4.07422-4.42187 4.4375.4336.875-.44922 1.51171-4.4375-2.38672-1.9375-4.4375-2.44922-.36328-.05078-4.07422-3.1875-1.23437-1.25391-3.20703-1.66406v-.60547l4.3711 2.26953.0703.07031 4.4375 3.54688.8711.82422 3.5664 1.89453 3.13672 2.54297-.22265 4.4375-2.91406 1.5-4.4375-.16016-2.85547 3.09766-1.17578 4.4414-.40625.39844-2.1172-.39844-2.32421-.32031-4.4375-1.17969-3.07422-2.9414-1.36328-.63672-3.3789-3.80078-1.0586-1.86329-1.70703-2.57421"/><path fill="#00e8fc" fill-rule="evenodd" d="M197.26172 402.64063l-1.91406 2.23437 1.91406.64453 4.4375.9375.6289-1.58203-.6289-1.49219-4.4375-.74219"/><path fill="#00a8fc" fill-rule="evenodd" d="M196.27344 413.7539l-.07031-4.4375 1.05859-1.02343 1.75 1.02344 1.04297 4.4375 1.64453.67968 1.91016-.67968 2.52734-3.69532.27344-.74218-.27344-.60938-1.1875-3.83203 1.1875-1.375 4.4375-.28906v.60156l-4.4375.69922-.3164.36328.3164 1.01953 1.53906 3.42188-1.53906 4.17578-.17578.26172-4.26172 1.51953-3.66797-1.51953-.60156-4.4375-.16797-.10157-.10547.10157-.16797 4.4375.27344.41015 2.29297 4.02735 2.14453 2.41406 4.32812 2.02344.10938.10546 4.4375 2.23829 3.50781-2.34375.9336-2.03516 2.01953-2.40234 2.41797-.21094 4.4375-.71094 1.63671-3.51562-1.63672-1.32813-4.4375-2.84765-1.875-.26172-2.5625-2.00782-2.39453-2.43359-2.04687-1.0625v-.60156l3.20703 1.66406 1.23438 1.2539 4.07421 3.1875.36328.05079 4.4375 2.44922 2.38672 1.9375-1.51172 4.4375-.875.44921-4.4375-.43359-4.07421 4.42188L215.01563 424l-4.44141 1.85938-4.4375-1.70704-1.59375-1.52343-2.84375-1.32813-2.76172-3.10937-1.67578-2.94532-.98828-1.49218"/><path fill="#009800" fill-rule="evenodd" d="M197.26172 414.16406l-.27344-.41015.16797-4.4375.10547-.10157.16797.10157.60156 4.4375 3.66797 1.51953 4.26172-1.51953.17578-.26172 1.53906-4.17578-1.53906-3.42188-.3164-1.01953.3164-.36328 4.4375-.69922v.60547l-2.41016.45703.77735 4.4414-2.47657 4.4375-.32812.8125-4.4375 1.54298-1.53125 2.08203 1.53125 1.72265 4.4375 1.90235 1.60547.8125 2.83203 1.45703 2.17969-1.45703 2.04297-4.4375.21875-.02735 4.4375-.39844 4.4375-2.10937.8828-1.90234-.8828-.71875-4.4375-3.2461-3.38672-.47265-1.05078-.82422-3.5586-3.61719-.88281-.45703v-.60547l2.04687 1.0625 2.39453 2.4336 2.5625 2.0078 1.875.26173 4.4375 2.84765 1.63672 1.32813-1.63672 3.51562-4.4375.71094-2.41796.21094-2.01953 2.40234-.9336 2.03516-3.50781 2.34375-4.4375-2.23829-.10938-.10546-4.32812-2.02344-2.14453-2.41406-2.29297-4.02735"/><path fill="#00ac00" fill-rule="evenodd" d="M201.69922 419.91406l-1.53125-1.72265 1.53125-2.08204 4.4375-1.54296.32812-.8125 2.47657-4.4375-.77735-4.44141 2.41016-.45703v2.46094l-.36719 2.4375-3.38672 4.4375-.6836 1.6953-4.4375 1.5-.91405 1.2422.91406 1.03125 4.4375 1.71093 3.33594 1.69532 1.10156.5664.84766-.5664 2.1328-4.4375 1.46095-.1797 4.4375-.46093 4.4375-3.50781.1328-.28906-.1328-.10938L219.45313 410l-4.4375-.63672-2.26172-.04687-2.1797-2.4375v-2.46094l.88282.45703 3.5586 3.61719 1.05078.82422 3.38672.47265 4.4375 3.2461.8828.71875-.8828 1.90234-4.4375 2.10938-4.4375.39843-.21875.02735-2.04297 4.4375-2.1797 1.45703-2.83202-1.45703-1.60547-.8125-4.4375-1.90235"/><path fill="#00c800" fill-rule="evenodd" d="M201.69922 419.22266l-.91406-1.03125.91406-1.2422 4.4375-1.5.6836-1.6953 3.38671-4.4375.36719-2.4375 2.17969 2.4375 2.26172.04687v.3125l-4.44141.375-3.04297 3.70313-1.39453 3.45703-3.03906.98047 3.03906.98437 4.4375.01953.4961-1.0039 3.9453-.48047 4.4375-.58594 3.97657-3.3711-3.97656-3.33202-4.4375-.7461v-.3125l4.4375.63672 4.4375 3.64453.1328.10938-.1328.28906-4.4375 3.50781-4.4375.46094-1.46094.17969-2.13281 4.4375-.84766.5664-1.10156-.5664-3.33594-1.69532-4.4375-1.71093"/><path fill="#00d4fc" fill-rule="evenodd" d="M201.69922 392.51563l-.71094-.95313.71094-.78125.89844.78125-.89844.95313"/><path fill="#10cc00" fill-rule="evenodd" d="M206.13672 419.17578l-3.03906-.98437 3.03906-.98047 1.39453-3.45703 3.04297-3.70313 4.4414-.375v.3125l-4.4414.92578-2.33594 2.83985 2.33594 3.5703 4.4414.08204 4.4375-.71094 3.47266-2.9414-3.47266-2.90625-4.4375-.85938v-.3125l4.4375.7461 3.97657 3.33203-3.97656 3.37109-4.4375.58594-3.94532.48047-.4961 1.0039-4.4375-.01953"/><path fill="#24d000" fill-rule="evenodd" d="M210.57422 417.32422l-2.33594-3.57031 2.33594-2.83985 4.4414-.92578v.3164l-4.4414 1.47266-1.625 1.97657 1.625 2.48437 4.4414.86328 4.4375-.83203 2.96485-2.51562-2.96484-2.48438-4.4375-.96484v-.3164l4.4375.85937 3.47265 2.90625-3.47266 2.9414-4.4375.71094-4.4414-.08203"/><path fill="#3cd800" fill-rule="evenodd" d="M210.57422 416.23828l-1.625-2.48437 1.625-1.97657 4.4414-1.47265v.3125l-4.4414 2.01953-.91797 1.11719.91797 1.40234 4.4414 1.64063 4.4375-.95704 2.46094-2.08593-2.46094-2.0625-4.4375-1.07422v-.3125l4.4375.96484 2.96485 2.48438-2.96484 2.51562-4.4375.83203-4.44141-.86328"/><path fill="#54dc00" fill-rule="evenodd" d="M210.57422 415.15625l-.91797-1.40234.91797-1.1172 4.4414-2.01952v.3125l-4.4414 2.57031-.20703.2539.20703.31641 4.4414 2.42188 4.4375-1.08203 1.95704-1.65625-1.95703-1.63672-4.4375-1.1875v-.3125l4.4375 1.07422 2.46093 2.0625-2.46094 2.08593-4.4375.95704-4.4414-1.64063"/><path fill="#e8e05c" fill-rule="evenodd" d="M210.57422 414.07031l-.20703-.3164.20703-.25391 4.4414-2.57031v.3125l-4.07812 2.51172 4.07813 2.43359 4.4375-1.20313 1.44921-1.23046-1.44922-1.21485-4.4375-1.29687v-.3125l4.4375 1.1875 1.95704 1.63672-1.95703 1.65625-4.4375 1.08203-4.44141-2.42188"/><path fill="#e8d450" fill-rule="evenodd" d="M215.01563 416.1875l-4.07813-2.4336 4.07813-2.51171v.6289l-3.0625 1.88282 3.0625 1.82421 4.4375-1.45312.4414-.3711-.4414-.37109-4.4375-1.51172v-.6289l4.4375 1.29687 1.44921 1.21485-1.44922 1.23046-4.4375 1.20313"/><path fill="#e8b830" fill-rule="evenodd" d="M215.01563 415.57813l-3.0625-1.82422 3.0625-1.88282v.625l-2.04297 1.25782 2.04297 1.21875 3.46093-1.21875-3.46094-1.25782v-.625l4.4375 1.51172.44141.3711-.4414.37109-4.4375 1.45313"/><path fill="#e8a824" fill-rule="evenodd" d="M215.01563 414.97266l-2.04297-1.21875 2.04297-1.25782v.62891l-1.02344.6289 1.02344.60938 1.73046-.60937-1.73047-.62891v-.6289l3.46094 1.2578-3.46094 1.21876"/><path fill="#d87c08" fill-rule="evenodd" d="M215.01563 414.36328l-1.02344-.60937 1.02344-.62891v.625l-.00391.0039h.00781l-.0039-.0039v-.625l1.73046.6289-1.73047.60938"/><path fill="#fc4444" fill-rule="evenodd" d="M215.01563 413.7539h-.00391l.0039-.0039.00391.0039h-.0039"/><path fill="#50fcfc" fill-rule="evenodd" d="M232.76563 394.90625l-3.4922-3.34375 3.4922-3.27734v1.84375l-1.52344 1.43359 1.52344 1.46094 1.71484-1.46094-1.71484-1.4336v-1.84374l3.92187 3.27734-3.92188 3.34375"/><path fill="#00e8fc" fill-rule="evenodd" d="M232.76563 393.02344l-1.52344-1.46094 1.52344-1.4336 1.71484 1.4336-1.71484 1.46094"/><path fill="#50fcfc" fill-rule="evenodd" d="M250.51953 384.17188l-1.47266-1.48829 1.47266-1.61328 2.76172 1.61328-2.76172 1.48829m0 34.8828l-.95703-.86327.95703-1.66016 4.4375.26563 2.17969 1.39453-2.17969 1.33203-4.4375-.46875m22.1914-62.42578l-.39062-.57422.39063-.42969 1.39062.42969-1.39062.57422m8.8789-1.9375l-4.15625-3.07422 4.15625-4.17188.6836-.26562 3.7539-2.11328v3.13671l-4.4375 2.69532-.71484.71875.71484.52734 4.4375 2.46875 2.39063-2.9961-2.39063-3.41406v-3.13671l1.72266 2.11328 1.91016 4.4375-3.1211 4.4375-.51172.46094-.55468-.46094-3.88282-1.36328"/><path fill="#00e8fc" fill-rule="evenodd" d="M281.58984 352.14453l-.71484-.52734.71484-.71875 4.4375-2.69531v2.95703l-.66406.45703.66406.39844.31641-.39844-.3164-.45703v-2.95704l2.39062 3.41407-2.39063 2.9961-4.4375-2.46876"/><path fill="#00d4fc" fill-rule="evenodd" d="M286.02734 352.01563l-.66406-.39844.66406-.45703.31641.45703-.3164.39844"/><path fill="#50fcfc" fill-rule="evenodd" d="M294.90234 374.48828l-1.96093-.67969 1.96093-1.92578 1.10938 1.92578-1.10938.6797m8.87891-21.16407l-1.08984-1.70703 1.08984-2.15235.52344-2.28515 3.91406-3.49219v2.13281l-1.51953 1.35938 1.51953 2.0664 1.91797-2.0664-1.91797-1.35938v-2.13281l4.4375 2.02734 4.4414-.11718 2.625 1.58203-2.625.6875-4.4414 1.03906-2.16406 2.71094-2.27344 1.58594-4.4375.12109"/><path fill="#00e8fc" fill-rule="evenodd" d="M308.21875 349.2461l-1.51953-2.06641 1.51953-1.35938 1.91797 1.35938-1.91797 2.0664"/><path fill="#50fcfc" fill-rule="evenodd" d="M325.97266 335.36719l-1.63282-1.5039 1.63282-2.625 3.67578 2.625-3.67578 1.5039m.59765 122.76953l-.3086-4.4375 2.52345-4.4375 1.625-1.5039 4.4375-1.96485v2.0039l-2.22266 1.46485-2.21484 1.33594-2.60157 3.10156 2.35938 4.4375.24219.17578 4.4375 1.28125 4.4414 2.32031.96094.66016 3.47656 1.85156 4.4375-.26172 4.4375-1.47656 4.4414 1.11328 4.4375.27735 4.4375.48828 4.4375.54687 4.4375.0664 4.44142.48438 2.72656-3.08984-.0625-4.4375 1.77344-4.22266.23046-.21484-.23046-.23047-4.4375-2.89844-4.44141 1.66016-1.72656 1.46875-2.71094 3.20703-3.6836 1.23047-.7539.39453-4.4375.9375-4.4375.55469-4.4414 2.2461-3.75782-4.13282-.67969-.26172-4.4375-2.58984-1.33984-1.58594-2.51953-4.4375-.57813-.67188-4.4414-.79296v-2.00391l4.4414-.33594 3.26563 3.80469 1.17187 2.02734 2.9375 2.41016 1.5.8711 4.4375 1.07812 4.4414-.24219 4.4375.04688 4.4375-.0586 4.4375-.97656.60938-.71875-.60937-1.26953-2.79688-3.16797-1.64062-.63281-1.5039.6328-2.9336 2.89454-3.52344-2.89453-.91406-.625-4.22656-3.8164 4.22656-2.94923 4.4375-.05468 4.4375-.51954.85547-.91406 3.58203-3.64062v1.3086l-2.29297 2.33202-2.14453 2.28516-4.4375 1.29297-4.4375.14844-1.02735.71093 1.02735.92578 4.4375 2.1797 4.4375-.77735 4.4375 1.61719 4.4375-1.09766v.95312l-2.1289.64063 2.1289 1.1875 3.16406-1.1875-3.16406-.64063v-.95312l2.92969-2.84766-2.9297-2.84765-2.14062-1.58985-2.29687-2.33203v-1.3086l3.58594 3.64063.85156.63281 3.91406 3.8047.52735 2.95702 1.4453 1.48438 2.9922 1.5 2.99218 2.9375-2.99219 2.76172-.70312 1.67578.04297 4.4375-3.77735 4.28125-4.4414-.2539-4.4375.03124-4.4375-.13672-4.4375-.42968-4.4375.07421-4.4414-.02343-4.4375-.01953-4.4375-.00782-4.4375-1.14843-2.86329-2.3672-1.57812-.8203-4.4375-.83594-3.83985-2.78125"/><path fill="#00e8fc" fill-rule="evenodd" d="M330.16797 458.13672l-2.35938-4.4375 2.60157-3.10156 2.21484-1.33594 2.22266-1.46485v4.4297l-4.4375 1.44921-.01954.02344.01954.03515 4.4375 1.37891 4.03906 3.02344.40234.21094.48438-.21094-.48438-.67188-2.41015-3.76562-2.03125-1.47266v-4.42969l4.4414.79297.57813.67188 2.51953 4.4375 1.33984 1.58594 4.4375 2.58984.67969.26172 3.75781 4.13281 4.4414-2.2461 4.4375-.55468 4.4375-.9375.75392-.39453 3.68359-1.23047 2.71094-3.20703 1.72656-1.46875 4.4414-1.66016v2.98047l-.39843.14844-4.04297 3.91015-.39063.52735-4.04687 4.42187-.02735.01563.02735.00781 4.4375.23047 4.4414.86719.97266-1.10547-.08984-4.4375-.66406-4.4375-.21875-.14844v-2.98047l4.4375 2.89844.23046.23047-.23046.21484-1.77344 4.22266.0625 4.4375-2.72656 3.08984-4.44141-.48437-4.4375-.0664-4.4375-.54688-4.4375-.48829-4.4375-.27734-4.4414-1.11328-4.4375 1.47656-4.4375.26172-3.47657-1.85156-.96094-.66016-4.4414-2.32031-4.4375-1.28125-.2422-.17578"/><path fill="#00d4fc" fill-rule="evenodd" d="M330.41016 453.73438l-.01954-.03516.01954-.02344 4.4375-1.44922 2.03125 1.47266 2.41015 3.76562.48438.67188-.48438.21094-.40234-.21094-4.03906-3.02344-4.4375-1.3789"/><path fill="#50fcfc" fill-rule="evenodd" d="M339.28906 330.6914l-1.6914-1.26562 1.6914-1.16797 4.4375-2.60547 3.48828 3.77344-3.02343 4.4375-.46485.27735-.14453-.27735-4.29297-3.17187m0 96.61718l-.2461-.23828.2461-.24219.23828.2422-.23828.23827m8.875 14.57032l-1.53125-1.4961 1.53125-1.4375 1.4414 1.4375-1.4414 1.4961"/><path fill="#00e8fc" fill-rule="evenodd" d="M357.04297 445.7461l-1.02735-.92579 1.02735-.71094 4.4375-.14843 4.4375-1.29297 2.14453-2.28516 2.29297-2.33203v2.1836l-.14453.14843-3.60938 4.4375 3.7539.96094 4.4375.29297 1.28907-1.2539-1.28906-1.25391-4.28906-3.1836-.14844-.14844v-2.18359l2.29687 2.33203 2.14063 1.58985 2.92969 2.84765-2.9297 2.84766-4.4375 1.09765-4.4375-1.61718-4.4375.77734-4.4375-2.17969"/><path fill="#00d4fc" fill-rule="evenodd" d="M370.35547 445.78125l-3.7539-.96094 3.60937-4.4375.14453-.14844.14844.14844 4.28906 3.1836 1.28906 1.2539-1.28906 1.2539-4.4375-.29296m0 16.80078l-.02735-.00781.02735-.01563 4.04687-4.42187.39063-.52735 4.04297-3.91015.39844-.14844.21875.14844.66406 4.4375.08984 4.4375-.97265 1.10547-4.44141-.86719-4.4375-.23047"/><path fill="#fff" fill-opacity="0" fill-rule="evenodd" d="M374.79297 448.6211l-2.1289.64062 2.1289 1.1875 3.16406-1.1875-3.16406-.64063"/><path fill="#50fcfc" fill-rule="evenodd" d="M396.98438 397.73047L395.2578 396l1.72656-1.73047L399.54298 396l-2.5586 1.73047m0 31.84765l-.86328-2.5078.86329-.78516.95703.78515 3.48437.98438 4.4375-.3164v1.22265l-4.4375 1.47265-1.30078 1.07422 1.30078 2.80078.33985 1.63672 2.78906 4.4375 1.3086 1 2.4375-1 2-.61719 2.34374-3.8203-2.34375-2.36329-1.89844-2.07422-2.53906-2.54687v-1.22266l3.75781 3.76953.6797.74219 3.66796 3.69531.76953 1.72656 3.23828 2.71094 1.20313 2.96485 1.45312 1.47265-1.45312.91406-1.10547-.91406-3.33594-1.58984-4.4375-.48047-4.4375 1.48438-1.20703.58593-1.8711 4.4414-1.35937 1.82813-1.8125-1.82812-.41797-4.4414 1.22266-4.4375-1.60938-4.4375-1.5703-4.4375-.25392-1.9297"/><path fill="#00e8fc" fill-rule="evenodd" d="M401.42578 434.3086l-1.30078-2.80079 1.30078-1.07422 4.4375-1.47265V431l-1.1289.50781-.80079 4.4375 1.9297 2.35156 4.4375-2.125.14062-.22656-.14063-.14062-3.9336-4.29688-.5039-.50781v-2.03906l2.53906 2.54687 1.89844 2.07422 2.34375 2.36328-2.34375 3.82031-2 .6172-2.4375 1-1.3086-1-2.78906-4.4375-.33984-1.63673"/><path fill="#00d4fc" fill-rule="evenodd" d="M405.86328 438.29688l-1.92969-2.35157.80079-4.4375 1.1289-.50781.5039.50781 3.9336 4.29688.14063.14062-.14063.22656-4.4375 2.125"/><path fill="#50fcfc" fill-rule="evenodd" d="M412.65625 400.4375L411.91797 396l2.82031-2.73047v2.65235l-.07812.07812.07812.25.11719-.25-.11719-.07813v-2.65234L418.83984 396l-2.10937 4.4375-1.01172 4.4375 3.46094 1.52734 2.34375-1.52734.20312-4.4375L419.21875 396l4.39844-4.29297v.45703L419.68359 396l3.9336 4.17578L427.47266 396l-3.85547-3.83594v-.45703L427.92579 396l-2.46095 4.4375 2.58985 1.85938 4.4375.53906 3.71875-2.39844.71875-.71875 4.4414-2.85547v1.92969l-2.19921 1.64453-1.94922 4.4375-.29297.14844-4.4375 1.65625-4.4375-1.41797-4.4375.6836-4.4375 3.1875-.42578.18359.42578.41406 2.6914 4.02344-.89062 4.4375 2.63672 2.53125 4.4375.51171 4.4375-.57812 4.20703-2.46484.23047-.1797 4.4414-2.59765 1.7422-1.66015 1.63671-4.4375-1.60938-4.44141-.26562-4.4375-1.5039-1.64453v-1.92969l3.26171 3.57422.16016 4.4375 1.01562 2.20703 2.17579 2.23438-2.17579 2.52734-.86328 1.91016-3.57422 3.41015-1.76953 1.02735-2.67187 2.53125-4.4375 1.125-4.4375.5039-1.13281.27735-3.3047 2.3164-2.5078-2.3164-1.9297-1.89063-2.48437-2.54687.91016-4.4375-2.86719-2.82422-1.58984-1.61328.3711-4.44141-.86329-4.4375"/><path fill="#00e8fc" fill-rule="evenodd" d="M414.73828 396.25l-.07812-.25.07812-.07813.11719.07813-.11719.25m4.4414 13.48047l-.42577-.41406.42578-.1836 4.4375-3.1875 4.4375-.6836 4.4375 1.41798 4.4375-1.65625v3.24219l-1.52344 1.05078-2.91406 1.96875-4.4375.14843-1.71875 2.32032-.26953 4.4375 1.98828 1.18359 4.4375-.70703.8125-.47656 3.625-2.81641 2.61719-1.6211-.21485-4.4375-2.40234-1.05077v-3.2422l.29297-.14843 1.94921-4.4375 2.19922-1.64453 1.50391 1.64453.26563 4.4375 1.60937 4.4414-1.63672 4.4375-1.74219 1.66016-4.4414 2.59766-.23047.17969-4.20703 2.46484-4.4375.57813-4.4375-.51172-2.63672-2.53125.89062-4.4375-2.6914-4.02344m4.4375-9.55469L419.68359 396l3.9336-3.83594v.75781L420.46094 396l3.15625 3.35156L426.70703 396l-3.08984-3.07813v-.7578L427.47266 396l-3.85547 4.17578"/><path fill="#00d4fc" fill-rule="evenodd" d="M423.61719 399.35156L420.46094 396l3.15625-3.07813v.75782L421.23829 396l2.3789 2.52344L425.9453 396l-2.32812-2.32031v-.75781L426.70703 396l-3.08984 3.35156"/><path fill="#00c4fc" fill-rule="evenodd" d="M423.61719 398.52344L421.23829 396l2.3789-2.32031v.75781L422.01563 396l1.60156 1.69922L425.18359 396l-1.5664-1.5625v-.75781L425.9453 396l-2.32812 2.52344"/><path fill="#00b8fc" fill-rule="evenodd" d="M423.61719 397.69922L422.01563 396l1.60156-1.5625v.75781l-.82422.80469.82422.875.80469-.875-.8047-.80469v-.75781L425.1836 396l-1.5664 1.69922"/><path fill="#00a8fc" fill-rule="evenodd" d="M423.61719 396.875l-.82422-.875.82422-.80469v.75781L423.5703 396l.04688.05078.04297-.05078-.04297-.04688v-.7578l.80469.80468-.8047.875"/><path fill="#009800" fill-rule="evenodd" d="M423.61719 396.05078L423.5703 396l.04688-.04688.04297.04688-.04297.05078"/><path fill="#00d4fc" fill-rule="evenodd" d="M428.05469 419.375l-1.98828-1.1836.26953-4.4375 1.71875-2.3203 4.4375-.14844 2.91406-1.96875 1.52344-1.05079 2.40234 1.05079.21485 4.4375-2.6172 1.62109-3.625 2.8164-.8125.47657-4.4375.70703"/><path fill="#50fcfc" fill-rule="evenodd" d="M450.2461 430.42188l-2.1797-3.35157 2.1797-2.15625 2.20702 2.15625-2.20703 3.35156"/><g clip-path="url(#c)"><path fill="#fff" fill-opacity="0" fill-rule="evenodd" d="M467.9961 480.32813H468V311.67188h-.0039H468v168.65625h-.0039"/></g><path fill="#fff" fill-opacity="0" fill-rule="evenodd" d="M366.86719 471.66797l5.83984.0664.11719-9.96093-5.83985-.0664-.11718 9.96093"/><path fill-rule="evenodd" d="M370.46094 463.58203l.50781.0039-.07031 6.29298-.78906-.00782.05468-4.48828-1.39062-.01562.00781-.55469.5586-.0586.2539-.05077.23047-.08985.20312-.13672.1797-.21094.14452-.29296.10938-.39063"/><path fill="#fff" fill-opacity="0" fill-rule="evenodd" d="M180.3789 382.23828l5.83985.16016.26953-9.95703-5.83594-.16016-.27343 9.95703"/><path fill-rule="evenodd" d="M184.09766 374.20703l.5078.01563-.17187 6.29296-.78515-.02343.1211-4.48828-1.38673-.03516.01563-.5586.5625-.04687.2539-.04687.23047-.08594.20703-.13281.1797-.20704.14843-.28906.11719-.39453"/><path fill="#fff" fill-opacity="0" fill-rule="evenodd" d="M222.60547 437.34375l3.625-4.58203-7.8164-6.17969-3.6211 4.58594 7.8125 6.17578"/><path fill-rule="evenodd" d="M218.40234 429.5586l.3125-.39844 4.94141 3.90234-.48828.61719-3.52344-2.78516-.85937 1.08985-.4375-.34375.29687-.48047.11328-.23047.07031-.23438.01563-.25-.05469-.26562-.14453-.29297-.24219-.32813"/><g clip-path="url(#d)"><path fill="none" stroke="#000" stroke-linecap="round" stroke-linejoin="round" stroke-miterlimit="10" stroke-width=".5" d="M146.45313 482.84375l-4.90625-5.03125"/></g><g clip-path="url(#e)"><path fill="none" stroke="#000" stroke-linecap="round" stroke-linejoin="round" stroke-miterlimit="10" stroke-width=".5" d="M159.875 482.73828l-5.11719-4.8164"/></g><g clip-path="url(#f)"><path fill="none" stroke="#000" stroke-linecap="round" stroke-linejoin="round" stroke-miterlimit="10" stroke-width=".5" d="M173.09375 482.83203l-4.92969-5.00781"/></g><g clip-path="url(#g)"><path fill="none" stroke="#000" stroke-linecap="round" stroke-linejoin="round" stroke-miterlimit="10" stroke-width=".5" d="M186.96484 482.1289l-6.03906-3.60156"/></g><g clip-path="url(#h)"><path fill="none" stroke="#000" stroke-linecap="round" stroke-linejoin="round" stroke-miterlimit="10" stroke-width=".5" d="M200.54297 481.58203l-6.5664-2.5039"/></g><g clip-path="url(#i)"><path fill="none" stroke="#000" stroke-linecap="round" stroke-linejoin="round" stroke-miterlimit="10" stroke-width=".5" d="M213.75 481.83203l-6.35156-3.00781"/></g><g clip-path="url(#j)"><path fill="none" stroke="#000" stroke-linecap="round" stroke-linejoin="round" stroke-miterlimit="10" stroke-width=".5" d="M227.15625 481.625l-6.53125-2.59375"/></g><g clip-path="url(#k)"><path fill="none" stroke="#000" stroke-linecap="round" stroke-linejoin="round" stroke-miterlimit="10" stroke-width=".5" d="M240.42578 481.73828l-6.4375-2.8164"/></g><g clip-path="url(#l)"><path fill="none" stroke="#000" stroke-linecap="round" stroke-linejoin="round" stroke-miterlimit="10" stroke-width=".5" d="M253.82422 481.53125l-6.60547-2.40234"/></g><g clip-path="url(#m)"><path fill="none" stroke="#000" stroke-linecap="round" stroke-linejoin="round" stroke-miterlimit="10" stroke-width=".5" d="M267.33984 480.05469l-7.0078.54687"/></g><g clip-path="url(#n)"><path fill="none" stroke="#000" stroke-linecap="round" stroke-linejoin="round" stroke-miterlimit="10" stroke-width=".5" d="M267.33984 480.05469l1.31641 2.07031"/></g><g clip-path="url(#o)"><path fill="none" stroke="#000" stroke-linecap="round" stroke-linejoin="round" stroke-miterlimit="10" stroke-width=".5" d="M280.64063 479.92188l-6.98047.8125"/></g><g clip-path="url(#p)"><path fill="none" stroke="#000" stroke-linecap="round" stroke-linejoin="round" stroke-miterlimit="10" stroke-width=".5" d="M280.64063 479.92188l1.39453 2.01953"/></g><g clip-path="url(#q)"><path fill="none" stroke="#000" stroke-linecap="round" stroke-linejoin="round" stroke-miterlimit="10" stroke-width=".5" d="M293.97266 480.08594l-7.01172.48437"/></g><g clip-path="url(#r)"><path fill="none" stroke="#000" stroke-linecap="round" stroke-linejoin="round" stroke-miterlimit="10" stroke-width=".5" d="M293.97266 480.08594l1.29687 2.08203"/></g><g clip-path="url(#s)"><path fill="none" stroke="#000" stroke-linecap="round" stroke-linejoin="round" stroke-miterlimit="10" stroke-width=".5" d="M307.29297 480.4336l-7.02344-.20704"/></g><g clip-path="url(#t)"><path fill="none" stroke="#000" stroke-linecap="round" stroke-linejoin="round" stroke-miterlimit="10" stroke-width=".5" d="M307.29297 480.4336l1.08594 2.19921"/></g><g clip-path="url(#u)"><path fill="none" stroke="#000" stroke-linecap="round" stroke-linejoin="round" stroke-miterlimit="10" stroke-width=".5" d="M320.58594 479.91016l-6.97656.83984"/></g><g clip-path="url(#v)"><path fill="none" stroke="#000" stroke-linecap="round" stroke-linejoin="round" stroke-miterlimit="10" stroke-width=".5" d="M320.58594 479.91016l1.40234 2.01172"/></g><g clip-path="url(#w)"><path fill="none" stroke="#000" stroke-linecap="round" stroke-linejoin="round" stroke-miterlimit="10" stroke-width=".5" d="M333.75 479.23438l-6.67578 2.1875"/></g><g clip-path="url(#x)"><path fill="none" stroke="#000" stroke-linecap="round" stroke-linejoin="round" stroke-miterlimit="10" stroke-width=".5" d="M333.75 479.23438l1.76953 1.69921"/></g><g clip-path="url(#y)"><path fill="none" stroke="#000" stroke-linecap="round" stroke-linejoin="round" stroke-miterlimit="10" stroke-width=".5" d="M347.01563 479.09375l-6.57813 2.47266"/></g><g clip-path="url(#z)"><path fill="none" stroke="#000" stroke-linecap="round" stroke-linejoin="round" stroke-miterlimit="10" stroke-width=".5" d="M346.0586 479.45313l.91796.80859"/></g><g clip-path="url(#A)"><path fill="none" stroke="#000" stroke-linecap="round" stroke-linejoin="round" stroke-miterlimit="10" stroke-width=".5" d="M360.16016 478.71484l-6.23829 3.23047"/></g><g clip-path="url(#B)"><path fill="none" stroke="#000" stroke-linecap="round" stroke-linejoin="round" stroke-miterlimit="10" stroke-width=".5" d="M359.2539 479.1836l1.00782.6953"/></g><g clip-path="url(#C)"><path fill="none" stroke="#000" stroke-linecap="round" stroke-linejoin="round" stroke-miterlimit="10" stroke-width=".5" d="M373.47656 478.71094l-6.23828 3.23437"/></g><g clip-path="url(#D)"><path fill="none" stroke="#000" stroke-linecap="round" stroke-linejoin="round" stroke-miterlimit="10" stroke-width=".5" d="M373.47656 478.71094l2.01953 1.39453"/></g><g clip-path="url(#E)"><path fill="none" stroke="#000" stroke-linecap="round" stroke-linejoin="round" stroke-miterlimit="10" stroke-width=".5" d="M386.32422 478.02734l-5.3086 4.60547"/></g><path fill="none" stroke="#000" stroke-linecap="round" stroke-linejoin="round" stroke-miterlimit="10" stroke-width=".5" d="M385.55469 478.69531l1.14453.4414"/><g clip-path="url(#F)"><path fill="none" stroke="#000" stroke-linecap="round" stroke-linejoin="round" stroke-miterlimit="10" stroke-width=".5" d="M400.44922 479.73828l-6.92578 1.17969"/></g><g clip-path="url(#G)"><path fill="none" stroke="#000" stroke-linecap="round" stroke-linejoin="round" stroke-miterlimit="10" stroke-width=".5" d="M399.4414 479.91016l.75.97265"/></g><g clip-path="url(#H)"><path fill="none" stroke="#000" stroke-linecap="round" stroke-linejoin="round" stroke-miterlimit="10" stroke-width=".5" d="M412.89844 482.6914l-5.19531-4.72656"/></g><g clip-path="url(#I)"><path fill="none" stroke="#000" stroke-linecap="round" stroke-linejoin="round" stroke-miterlimit="10" stroke-width=".5" d="M426.22656 482.6836l-5.21875-4.70704"/></g><g clip-path="url(#J)"><path fill="none" stroke="#000" stroke-linecap="round" stroke-linejoin="round" stroke-miterlimit="10" stroke-width=".5" d="M439.92578 482.17188l-5.98828-3.6836"/></g><g clip-path="url(#K)"><path fill="none" stroke="#000" stroke-linecap="round" stroke-linejoin="round" stroke-miterlimit="10" stroke-width=".5" d="M453.49219 481.67188L447 478.98438"/></g><g clip-path="url(#L)"><path fill="none" stroke="#000" stroke-linecap="round" stroke-linejoin="round" stroke-miterlimit="10" stroke-width=".5" d="M466.78906 481.72266l-6.45312-2.78516"/></g><g clip-path="url(#M)"><path fill="none" stroke="#000" stroke-linecap="round" stroke-linejoin="round" stroke-miterlimit="10" stroke-width=".5" d="M146.58984 469.38672l-5.17968-4.7461"/></g><path fill="none" stroke="#000" stroke-linecap="round" stroke-linejoin="round" stroke-miterlimit="10" stroke-width=".5" d="M146.58984 469.38672l-.61718 2.3789m-.13672-3.0664l-.3086 1.1875m14.72657-.94531l-5.875-3.85547m5.875 3.85547l-.22657 2.4414m13.48828-2.36328l-5.76953-4.01172m5.76953 4.01172l-.28906 2.4336m14.19922-3.95704l-6.96094-.96484m5.94922.82422l.42188 1.15234m13.9336-1.63672l-7.01954.28516m6-.24219l.61719 1.0586m13.71484-.7461l-7.01172-.42578m7.01172.42578l1.01953 2.23438m12.10547-3.60547l-6.63281 2.3164m6.63281-2.3164l1.80078 1.66797m11.4336-1.8789l-6.47266 2.73827m6.47266-2.73828l1.90625 1.54688m11.4414-1.46485l-6.53906 2.57422m6.53906-2.57422l1.86719 1.59375m11.50781-1.4336l-6.65625 2.25391m5.6875-1.92578l.89453.83985M280.5 465.94922l-6.69922 2.1289m6.69922-2.1289l1.7539 1.71484m11.46485-1.98047l-6.5039 2.66016m6.5039-2.66016l1.88672 1.56641m11.19922-2.02344l-6.04688 3.57422m6.04688-3.57422l2.09375 1.27735m10.6289-2.02344l-4.86328 5.0664m4.15625-4.33203l1.17969.33594m12.46094-1.39062l-4.09766 5.70703m3.5-4.875l1.21485.16406m11.66796-1.5039l-2.03906 6.72265m1.74219-5.7461l1.20312-.23827m12.3125-.76563l-1.84765 6.77734m1.57812-5.79297l1.19531-.26953m12.40235-.71093l-1.875 6.76953m1.60156-5.78516l1.19922-.26562m12.11719-.78516l-1.33203 6.90234m1.14062-5.89843l1.17188-.35938m12.4414-.6211l-1.54297 6.85548m12.62891-.23047l2.91406-6.39453m8.54297 2.03906l6.63281 2.3164m11.01954-1.15625l-.01954-.20312-.05859-.1914-.09375-.17579-.45703-.375-.1914-.0586-.20313-.01952-.19922.01953-.1914.0586-.45704.375-.09375.17577-.0586.19141-.01952.20312.01953.19922.0586.19141.09374.17578.45703.375.1914.0586.19923.01953.20312-.01954.1914-.05859.45704-.375.09375-.17578.0586-.1914.01952-.19923m12.60547-3.5l-.62109 6.9961m15.01563-.26953l-2.78125-6.45703m2.375 5.51562l-.76563.95703"/><g clip-path="url(#N)"><path fill="none" stroke="#000" stroke-linecap="round" stroke-linejoin="round" stroke-miterlimit="10" stroke-width=".5" d="M146.4336 456.23438l-4.8672-5.07032"/></g><path fill="none" stroke="#000" stroke-linecap="round" stroke-linejoin="round" stroke-miterlimit="10" stroke-width=".5" d="M146.4336 456.23438l-.76563 2.33203m14.83984-3.40235l-6.38672-2.9336m6.38672 2.9336l.14063 2.45313m13.4961-3.95703l-7.02735.07812m6.0039-.0664l.58985 1.07421m13.7461-1.10156l-7.02345.10547m6.00391-.08984l.58984 1.07422m13.73438-1.3086l-7.0039.54688m5.98437-.46875l.66015 1.03515m13.56641-1.7539l-6.78516 1.82812m5.79688-1.5625l.83984.89453m13.21875-1.80078l-6.30078 3.10938m6.30078-3.10938l1.99219 1.42969m11.01172-1.94531l-5.67578 4.14062m5.67578-4.14062l2.20703 1.0703m10.91797-1.3125l-5.29297 4.625m5.29297-4.625l2.29297.875m11.29687-.51562l-5.84375 3.90625m4.99219-3.33984l1.08203.58203m13.0039-1.26172l-5.68359 4.13282m4.85547-3.53125l1.10547.53515m13.52344-.19922l-6.65625 2.2539m5.6875-1.92577l.89453.84375m12.58984-2.48438l-5.05468 4.8789m4.3203-4.16796l1.16798.3789m11.70703-1.89062l-2.70703 6.48438m2.3125-5.54297l1.22265-.11328m8.3047.33203l5.66015 4.16406m-4.83594-3.5586l.17578-1.21484m13.53516-.4336l3.21875 6.2461m-2.75-5.33593l.69922-1.00782m11.82422.28907l3.86328 5.86718m-3.30078-5.01562l.58593-1.07422m12.01172.32812l4.17188 5.65235m-3.56641-4.82813l.53125-1.10937m12.375.15234l3.78125 5.92188m-3.23047-5.0625l.60156-1.06641m10.65235 2.28906l6.80078 1.75782m-5.8125-1.50391l-.28516-1.1914m12.80469 3.25l6.41406-2.8672m-5.48047 2.44922l-.96875-.7539m13.04297-.29688l7.02735.0664m-6.00391-.05468l-.5664-1.08984m12.9453 1.88672l6.85548-1.54688M434.5 454.2461l-.79687-.92968m13.27734 1.67968l6.53125-2.59375m-5.58203 2.21485l-.9336-.79297m13.83594 2.08594l5.46094-4.42188m-4.66797 3.77735l-1.1289-.48047"/><g clip-path="url(#O)"><path fill="none" stroke="#000" stroke-linecap="round" stroke-linejoin="round" stroke-miterlimit="10" stroke-width=".5" d="M147.33203 441.5l-6.66406-2.23438"/></g><path fill="none" stroke="#000" stroke-linecap="round" stroke-linejoin="round" stroke-miterlimit="10" stroke-width=".5" d="M146.36328 441.17578l.19922 1.21094m14.07813-.8711l-6.65235-2.26171m5.6836 1.92968l.19921 1.21094m14.1836-2.79297l-6.85156 1.5625m5.85546-1.33593l.8047.92968m13.53124-1.03515l-6.89844 1.3203m5.89453-1.1289l.76954.95703m13.60547-.71093l-7.01172.44922m5.99218-.38672l.64453 1.04687m13.32422-2.46484l-6.27734 3.16015m6.27734-3.16015l2 1.41406m10.78125-2.19531l-5.21093 4.71875m5.21093-4.71875l2.3086.83594m10.6875-1.14454l-4.57422 5.33594m3.91016-4.5586l1.1953.26954m13.3047-.49219L247.71483 442.5m5.61328-4.23047l2.22266 1.03516m11.5586-.19922l-6.54688 2.55469m5.59375-2.1836l.92969.80078m12.79297-2.10546l-5.45703 4.42187m4.66406-3.77734l1.1289.47656m10.8711-2.36719l-1.23828 6.91797m12.01953-6.40625l3.82812 5.89453m9.8711-6.11328l3.05859 6.32813m-2.61328-5.40625l.72656-.98829m11.91406.1875l3.51563 6.08594m-3.0039-5.19922l.64843-1.03906m12.35937.04297l3.10547 6.30469m-2.65234-5.38672l.71875-.9961m13.23047-.25l.9336 6.96485m-.79688-5.95313l.9961-.71484m10.39843.48437l4.5 5.39844m8.9961-5.53515l4.14062 5.67578m7.73828-3.04688l7.01172.41797m-5.99219-.35937l-.51172-1.11329m13.17969 2.85157l6.26562-3.17578m-5.35547 2.71093l-1.0039-.70312m13.6836 1.6211l5.71874-4.08204m-4.88672 3.48828l-1.09765-.54687m14.39453 1.95312l4.08984-5.71094m-3.4961 4.88282l-1.21484-.16407m13.6836.79688l4.59375-5.3164m-4.59375 5.3164l-2.39063-.54688m15.3086.14063l5.39062-4.50781m-5.39062 4.5078l-2.27344-.92187"/><g clip-path="url(#P)"><path fill="none" stroke="#000" stroke-linecap="round" stroke-linejoin="round" stroke-miterlimit="10" stroke-width=".5" d="M146.44922 429.58594l-4.89844-5.03516"/></g><path fill="none" stroke="#000" stroke-linecap="round" stroke-linejoin="round" stroke-miterlimit="10" stroke-width=".5" d="M145.73828 428.85547l-.375 1.16797m15.46094-3.13672l-7.01953.36328m6-.3125l.6289 1.05469m13.23828-2.67969l-6.08593 3.51172m5.20312-3l1.03906.64844m13.39063-.6797l-6.54688 2.5547m5.59375-2.1836l.9297.79688m8.5703 3.28906l2.98829-6.36328m13.42578 6.3086l-3.20703-6.25391m2.73828 5.34375l-.69922 1.0078m15.53125-5.52734l-5.30469 4.60547m4.53516-3.93359l1.14453.4375m11-2.2461l-1.42578 6.87891m1.21875-5.8789l1.17969-.34375m12.72656-.5547l-2.19531 6.67579m1.875-5.70313l1.21093-.21093m12.14063-.83985l-1.6289 6.83203m1.39452-5.83984l1.1875-.3086m14.16407.38673l-5.23047 4.6914M290.5 423.5547l-.07031 7.02734m12.14453-6.8125l2.41406 6.59766m-2.0625-5.63672l.82031-.91406m10.7461.89062l5.20703 4.72266m-4.44922-4.03516l.30078-1.1875m11.97656.85547l5.76563 4.01172m-4.92578-3.42969l.14453-1.21875m12.44922.47656l5.53125 4.33594m-4.72656-3.70703l.21484-1.20703m17.3086.04297l-4.4961 5.40234m3.83984-4.61719l1.20313.25m11.65234-1.66015l-2.26562 6.65234m1.9375-5.6836l1.21093-.1953m7.82813 3.08593l6.94531-1.0664m7.76953 3.37109l4.14063-5.67578m8.0039 4.1875l6.48829-2.69922M408 428.02735l-.94531-.78126m18.97265 2.37891l-4.82421-5.10938m18.87109 4.125l-6.28516-3.14453m5.3711 2.6875l.03125 1.22657m12.65234.78906l-3.19531-6.25781m2.73047 5.34375l-.70313 1.0078m10.6211-.53515l4.52734-5.375m-4.52735 5.375l-2.39843-.51562"/><g clip-path="url(#Q)"><path fill="none" stroke="#000" stroke-linecap="round" stroke-linejoin="round" stroke-miterlimit="10" stroke-width=".5" d="M144.8164 417.17188l-1.6328-6.83594"/></g><g clip-path="url(#R)"><path fill="none" stroke="#000" stroke-linecap="round" stroke-linejoin="round" stroke-miterlimit="10" stroke-width=".5" d="M144.57813 416.17578l-.91797.8125"/></g><path fill="none" stroke="#000" stroke-linecap="round" stroke-linejoin="round" stroke-miterlimit="10" stroke-width=".5" d="M156.8164 410.27344l.9961 6.95703m13.10938-6.97656l-.58204 7m.4961-5.98438l1.1289-.48437m12.60547-.48829l-1.25 6.91407m1.0664-5.91016l1.16798-.375m9.03515.54297l5.33985 4.5664m-4.5625-3.90234l.26562-1.19531m11.67188 1.53125l6.53906 2.57031m-5.58594-2.19922l-.14062-1.21875m12.5586 3.54688l6.42968-2.82813m-5.4961 2.41797l-.96093-.76172m13.17969.72657l6.7539-1.9375m-5.76953 1.65234l-.85547-.88281m13.34375-1.21094l6.4375 2.82031m7.02734-3.11718l6.14063 3.41406m-5.2461-2.91797l.02344-1.22656m11.9961 2.98828l6.9414-1.10547m11.46094-2.5664l-3.23047 6.24218m16.48438-6.27344l-3.10938 6.30469m2.65625-5.38672l1.22657-.03906m11.77343-1.15234l-1.57422 6.85156m16.19532-6.25l-4.1836 5.64844m18.77344-3.82032l-6.73828 1.99219m5.75781-1.70313l.85938.875m13.58203-.1953l-7.02735.05077m7.02735-.05078l1.16797 2.16016m12-3.13281l-6.73438 2m5.75781-1.71094l.85938.875m13.47266-1.01563l-6.81641 1.70313m17.29297-4.32031l-1.13672 6.93359m10.46484-4.27344l6.83594 1.61719m12.19922 1.84766l-4.60156-5.3125m3.92968 4.53906l-.4414 1.14453m15.52344-2.13281l-6.79297-1.78906m5.80468 1.52734l.28125 1.19531m13.97266-.76172l-6.69531-2.13672m6.69531 2.13672l.4375 2.41406m12.91406-2.53515l-6.76562-1.89063m5.78125 1.6172l.26172 1.1953"/><g clip-path="url(#S)"><path fill="none" stroke="#000" stroke-linecap="round" stroke-linejoin="round" stroke-miterlimit="10" stroke-width=".5" d="M147.5039 400.17188l-7.0078.53125"/></g><path fill="none" stroke="#000" stroke-linecap="round" stroke-linejoin="round" stroke-miterlimit="10" stroke-width=".5" d="M146.48438 400.25l.65625 1.03516m9.89843-4.34766l.55469 7.0039m-.47656-5.98827l1.03515-.65625m13.42188-.2422l-1.88672 6.76954m1.60938-5.78516l1.19921-.26562m13.9336.17969l-4.96875 4.96875m4.2461-4.2461l1.17187.35938m13.46875-.27344l-6.17578 3.35156m5.27734-2.86328l1.02344.67578m13.60547.22266l-7.00391.58203m5.98437-.5l.66407 1.03125m13.5.29687l-6.66407-2.23828m6.66407 2.23828l.40234 2.41797m13.09375-3.52344l-7.02734-.03125m6.0039.02735l.57422 1.08594m13.76172-.94532l-7.01953-.30468m5.9961.26171l.53124 1.10547m13.80469-1.02343l-7.01563-.37891m5.9961.32422l.51562 1.10937m13.78907-1.73437l-6.95704.98047m5.94532-.83985l.72265.9922m13.59766-1.1875l-6.9414 1.08983m5.92968-.93359l.73828.98047m13.57422-1.22266l-6.91406 1.26172m6.91406-1.26172l1.51953 1.92188m11.52735-2.76563l-6.37891 2.94922m5.44922-2.51953l.98047.73828m13.33203-1.01562l-6.51172 2.64453m6.51172-2.64453l1.8789 1.57422m11.58594-1.11329l-6.8125 1.72266m5.82031-1.47265l.82422.90625m13.58985-.375l-7.02735.15625m6.00391-.13282l.60156 1.07031m7.92969 1.64454l4.58984-5.32032m12.23828 5.95704l-2.4414-6.58985m17.125 5.66797l-5.17578-4.75m17.95703 5.22656l-4.10938-5.69922m17.78125 5.40235l-4.82422-5.10938m4.125 4.36719l-.39453 1.16406m15.42188-2.1875l-6.84766-1.57812m6.84766 1.57812l.63672 2.3711m12.61718-2.13672l-6.72265-2.04297m6.72265 2.04297l.47266 2.40625m12.53906-1.70313L460.5 398.71094m6.1211 3.45312l-.0586 2.45313"/><g clip-path="url(#T)"><path fill="none" stroke="#000" stroke-linecap="round" stroke-linejoin="round" stroke-miterlimit="10" stroke-width=".5" d="M146.76172 384.95313l-5.52344 4.33984"/></g><path fill="none" stroke="#000" stroke-linecap="round" stroke-linejoin="round" stroke-miterlimit="10" stroke-width=".5" d="M145.95703 385.58203l1.125.4961m13.73438 1.33984l-7.00391-.58985m5.98438.50391l.48437 1.1289m13.83984-1.73827l-6.98047.80078m5.96485-.6836l.69531 1.01172m13.21094-2.4414l-6.13281 3.42578m5.24218-2.92578l1.03125.66406m12.66407-1.86328l-5.11328 4.82422m4.36718-4.1211l1.16406.39063m13.71094.32422l-6.73828 1.99218m6.73828-1.99218l1.71875 1.75m11.72656-.4375l-7-.63672m7 .63672l.94922 2.26171m12.34375-3.07812l-6.95703.9961m6.95703-.9961l1.44532 1.98438m-2.45703-1.83985l.72265.99219m13.3789-1.96875l-6.5039 2.66015m6.5039-2.66015l1.88673 1.57031m11.6289-.89453l-6.90625 1.3086m6.90625-1.3086l1.53516 1.91406m11.82422-1.58203l-6.9961.64453m6.9961-.64453l1.34765 2.05469m11.94922-2.21485l-6.96094.96485m6.96094-.96485l1.4375 1.98829m11.20703-3.61329l-5.62109 4.21485m4.80469-3.60156l1.10937.51953m12.4961-1.69922l-4.5625 5.34765m3.89843-4.5664l1.19532.26172m12.83593-.99219l-4.67187 5.25m3.99219-4.48828l1.1914.28906m10.71875-1.9336l-.5 7.01173m.42578-5.9922l1.1211-.49608m9.30468.75l5.42579 4.46484m-4.63672-3.8125l.24218-1.20313m13.10938 5.7461l3.77344-5.92578m14.76953 1.875l-6.67969 2.17578m5.70703-1.85938l.88281.85156m6.87891 1.39844l6.3711-2.95703m13.1875 3.21094l-6.11329-3.46485m18.19532 4.73438l-3.65235-6.0039m3.1211 5.1289l-.625 1.0586m14.58984-.25782l-3.88672-5.85547m17.3086 5.78125l-4.10157-5.70703m3.50781 4.875l-.54296 1.10156m14.12109-.05859l-3.4414-6.1289m2.9414 5.23827l-.66406 1.03125"/><g clip-path="url(#U)"><path fill="none" stroke="#000" stroke-linecap="round" stroke-linejoin="round" stroke-miterlimit="10" stroke-width=".5" d="M147.5039 374.04297l-7.0078-.46875"/></g><path fill="none" stroke="#000" stroke-linecap="round" stroke-linejoin="round" stroke-miterlimit="10" stroke-width=".5" d="M147.5039 374.04297l1.00782 2.23828m12.3125-2.3125l-7.01953-.32031m7.01953.32031l1.05469 2.21484m12.2539-2.66796l-7.0039.58593m7.0039-.58594l1.32813 2.0625m11.74219-3.08203l-6.51563 2.625m6.51563-2.625l1.8789 1.57813m10.96875-2.40235l-5.58203 4.27344m5.58203-4.27344l2.23047 1.01954m11.5625-.17188l-6.53516 2.57813m6.53516-2.57813l1.86719 1.58985m11.6875-.4961l-7.01563.39063m5.9961-.33204l.6328 1.04688m13.62892-.17188l-6.8711-1.47656m6.8711 1.47656l.67187 2.35938m12.71875-2.91406l-7.01953-.36719m7.01953.36719l1.03516 2.22265m12.10547-1.30078L260.5 372.70312m6.67188 2.21094l.41015 2.41797m12.65235-1.83984l-6.16797-3.36719m5.26953 2.8789l-.01172 1.22657m14.64844-2.66797l-7.01172.49219m5.98828-.42188l.65234 1.04297m13.6836-.59765l-7.00782-.53907m5.98829.46094l.48828 1.125m13.36718-3.10547l-6.05078 3.57813m17.84375-4.96485l-3.00781 6.35156m2.57031-5.42578l1.22657-.05859m9.27343-.73828l3.5 6.09375m-2.99218-5.20703l.65234-1.03906m11.32812.8125l5.15235 4.77343m-5.15235-4.77344l.625-2.375m.125 3.06641l.3125-1.1836m11.4297 1.9922l6.79687 1.77343m-6.79688-1.77344l-.5664-2.38671m1.55468 2.64453l-.28125-1.19531m14.07813-1.11329l3.85937 5.875m8.04688-1.83984l6.67578-2.19922m-5.70313 1.8789l-.88671-.84765m19.87109-1.1289L407 375.0078m18.8789-3.88672l-4.52734 5.375m12.07422-2.4414l7.01172-.49219m-5.99219.42188l-.64843-1.04297m12.95703 1.2578l6.98437-.78124m-5.96875.66797l-.6914-1.01172m13.88671 3.10156l5.19141-4.73437"/><g clip-path="url(#V)"><path fill="none" stroke="#000" stroke-linecap="round" stroke-linejoin="round" stroke-miterlimit="10" stroke-width=".5" d="M147.48828 360.91406l-6.97656-.83984"/></g><path fill="none" stroke="#000" stroke-linecap="round" stroke-linejoin="round" stroke-miterlimit="10" stroke-width=".5" d="M147.48828 360.91406l.88672 2.28516m-1.90234-2.41016l.4453 1.14453m13.90626-1.65234l-7.01563.42188m7.01563-.42188l1.27734 2.09375m-2.30078-2.03125l.64063 1.04688m13.6328-1.58204l-6.89062 1.3711m6.89063-1.3711l1.55469 1.89844m-2.5547-1.69922l.77735.94922m13.60547-.5664l-7.02344.20703m7.02344-.20704l1.21484 2.12891m11.9336-.94922l-6.6875-2.15625m5.71484 1.84375l.21485 1.20703m14.1914-1.38671l-6.92969-1.16797m6.9297 1.16796l.77734 2.32813m10.67968.21094l-3.21093-6.25m3.21093 6.25l-1.39843 2.01562m16.14062-3.36719l-6.0664-3.54687m6.0664 3.54688l-.09766 2.45312m13.73047-3.16406l-6.69922-2.125m6.69922 2.125l.44141 2.41406m12.3125-1.33984l-5.57813-4.26954m5.57813 4.26954l-.40234 2.41796m13.6328-2.3125l-5.41015-4.48437m5.41016 4.48438l-.4961 2.40625m14.4922-3.70313l-6.76954-1.88672m5.78516 1.60938l.26172 1.19921m13.77734-.2578l-6.25-3.21485m6.25 3.21484l.03125 2.45313m13.01172-2.00781l-5.70703-4.10547m5.70703 4.10546l-.33203 2.4297m13.03906-1.78126l-4.48828-5.40625m3.83594 4.6211l-.46875 1.1328m11.66406-6.52343l1.05078 6.94922m-.89844-5.9375l.98828-.73438m9.38672 2.02735l6.6289 2.33594m-5.66405-1.9961l-.1836-1.21094m12.47266 1.0586l6.75 1.96094m-6.75-1.96094l-.5-2.40235m13.67578 3.42579l7.02734-.08594m-7.02734.08594l-1.17578-2.14844m14.64844 1.0664l6.71484 2.07813m-5.73828-1.77344l-.23047-1.20703m12.48047 1.25781l6.89062 1.3672m-5.88671-1.16798l-.35547-1.17578m19.57812 2.25l-6.92969-1.17578m5.92188 1.0039l.38672 1.16407m13.63281-3.10938l-6.32422 3.0586m5.40625-2.61328l.98828.72265m12.83203-1.82422l-5.5 4.3711m4.69922-3.73438l1.125.48828m8.52344 4.125l3.4336-6.1289m-2.9336 5.23828l-1.22656-.02735"/><g clip-path="url(#W)"><path fill="none" stroke="#000" stroke-linecap="round" stroke-linejoin="round" stroke-miterlimit="10" stroke-width=".5" d="M147.5 346.85156l-7 .65235"/></g><path fill="none" stroke="#000" stroke-linecap="round" stroke-linejoin="round" stroke-miterlimit="10" stroke-width=".5" d="M147.5 346.85156l1.34766 2.05078m11.70312-3.09375l-6.47266 2.73829m5.53125-2.33985l.95313.77344m13.17969-1.42969l-6.22656 3.2539m5.3203-2.78124l1.01563.69531m13.4336 1.55469l-6.6797-2.1914m5.70704 1.875l.20703 1.20702m11.10938 1.50781l-.73438-6.98828m.625 5.97266l-1.01562.6836m13.18359.23827l1.77734-6.80078m-1.51953 5.8125l-1.19531.28125m14.91016.8125l.46093-7.01171m-.39453 5.99218l-1.1211.5039m13.35157.29298l2.4961-6.5664m-2.4961 6.5664l-2.4336.3086m14.98048-.71485l4.03125-5.7539m-3.44141 4.91796l-1.21875-.14844m18.98047-.09375l-6.03906-3.59765m5.16015 3.07421l-.0586 1.22657m10.98438 1.0039l.4961-7.01171m-.4961 7.01171l-2.24218.9961m15.10937-1.0586l1.39453-6.88671m-1.39453 6.88671l-2.35156.69922m17.50781-.82031l-2.28906-6.64453m1.95703 5.67578l-.83594.89844m13.64844.25l-.6211-7m.53126 5.98047l-1.03125.66796m11.16796-1.25l5.91407-3.80078m-5.05078 3.2461l-1.07032-.59766m13.27344.6914l6.41016-2.8789m-5.47657 2.46094l-.96875-.7539m14.75391 2.75l3.60547-6.03516m-3.08203 5.15625l-1.22266-.0625m13.27344-4.5l5.08594 4.84765m7.27343-2.125l7-.59765m-7 .59765l-1.33203-2.0625m15.89453-.9336l4.50391 5.39454m-3.84766-4.60938l.46094-1.13671m13.85938 6.51171l1.17968-6.92578m-1.0078 5.91797l-1.16407.38672M427 346.23047l-6.76563 1.89453m5.78125-1.61719l.84766.88672m13.47656-1.07422l-6.8164 1.71485m6.8164-1.71485l1.64453 1.82031m11.73438-1.5078l-6.9414 1.08984m5.92968-.9336l.73828.98047m13.60547-.17578l-6.97656-.83203m5.96094.71094l.4453 1.14453"/><g clip-path="url(#X)"><path fill="none" stroke="#000" stroke-linecap="round" stroke-linejoin="round" stroke-miterlimit="10" stroke-width=".5" d="M147.3711 332.8711l-6.7422 1.98437"/></g><path fill="none" stroke="#000" stroke-linecap="round" stroke-linejoin="round" stroke-miterlimit="10" stroke-width=".5" d="M147.3711 332.8711l1.71484 1.75m9.45312-4.05079l-2.44922 6.58594m2.44922-6.58594l2.4336-.32422m6.78125 1.60157l5.7539 4.03125m-4.91797-3.44532l.14844-1.21875m12.24219.76172l5.92969 3.77344m-5.06641-3.22656l.09766-1.22266m11.8164 2.28906l7.0039.54688m-5.98437-.46875l-.49218-1.125m12.875 2.13672l6.83203-1.63672m-6.83203 1.63672l-1.625-1.83594m14.875.53125l6.96093.97656m-6.96093-.97656l-.83985-2.30469m14.17578 3.41406l6.91797-1.24218m-6.91797 1.24219l-1.51562-1.9297m15.17187 2.9297l6.23438-3.2422m-6.23438 3.2422l-2.01953-1.38672m2.92969.91406l-1.01172-.6914m13.35938-1.95704l6.35156 3m-5.42969-2.5625l-.0586-1.22656m15.1211 5.76562l1.01172-6.95312m-.86328 5.9414l-1.15625.41407m12.89062.05078l3.875-5.86328m-3.875 5.86328l-2.4414-.23047m16.10547.4336l3.17968-6.26563m-3.17968 6.26562l-2.45313.05079m14.6211-.98047l5.47265-4.40625m-5.47266 4.40625l-2.2578-.96485m14.8203-.8164l6.97657-.84375m-6.97657.84375l-1.40234-2.01172m14.76953.86328l6.875 1.45312m-6.875-1.45312l-.67969-2.35938m1.6797 2.57032l-.33985-1.1797m12.6211 1.15235l6.9414 1.08594m-5.9336-.92969l-.39843-1.15625m12.8086 2.55078l6.73437-2.01562m-6.73438 2.01562l-1.72266-1.74609m14.89454.91016l7.01953-.34375m-7.01953.34375l-1.25391-2.10547m14.57031 2.13281l7.01953-.39844m-5.99609.33985l-.63672-1.05079m17.03516 4.3711l-1.19532-6.92188m1.02344 5.91407l-.96875.7539m17.28516-2.42187l-6.85156-1.57031m5.85156 1.33984l.32031 1.1875m13.67578-.10156l-6.21484-3.28125m6.21484 3.28125l.00781 2.45312m13.33204-5.6836l-6.26563 3.1797m5.35547-2.71875l1.0039.70703m13.3125-.97657l-6.4453 2.79688m5.5078-2.39063l.95704.76172"/><g clip-path="url(#Y)"><path fill="none" stroke="#000" stroke-linecap="round" stroke-linejoin="round" stroke-miterlimit="10" stroke-width=".5" d="M147.27344 319.27344l-6.54688 2.55078"/></g><path fill="none" stroke="#000" stroke-linecap="round" stroke-linejoin="round" stroke-miterlimit="10" stroke-width=".5" d="M147.27344 319.27344l1.85937 1.59765m-2.8125-1.22656l.92969.79688M160.46875 319l-6.3086 3.09375M160.46876 319l1.98828 1.4375m-2.90625-.98828l1.98828 1.4375m12.44531-1.38281l-6.71093 2.08984m6.71094-2.08984l1.74609 1.72656m-2.72266-1.42188l.8711.86329m13.53125-.69922l-6.9297 1.15234m6.9297-1.15234l1.49218 1.94921m-2.5-1.78125l.7461.97266m13.59375-1.02734l-6.96485.92578m6.96485-.92578l1.42969 1.9961m-2.44141-1.86329l1.42578 1.9961m-2.4414-1.85938l.71484.9961m14.42187-2.07423l-6.55078 2.54297m6.55078-2.54297l1.85547 1.60157m-2.8086-1.23438l1.85548 1.60547m-2.8086-1.23438l.92969.80079m14.15234-1.85547l-6.27343 3.17187m6.27343-3.17187l2.00391 1.41406m-2.91797-.95313l2.00781 1.41407m-2.92187-.94922l1.0039.70703m14.2461-1.39844l-6.48438 2.70703m6.48438-2.70703l1.89453 1.55469m-2.83984-1.16406l1.89843 1.5586m12.41407.62108l-6.59375-2.43359m5.63672 2.07813l.16406 1.21484m10.74219-5.58984l.14062 7.02734m-.1211-6.0039l1.07423-.59766m12.92578-.36719l-1.26953 6.91016m1.08593-5.90625l1.16797-.3711m9.39063.16797l4.60937 5.30469m-3.9375-4.53125l.4375-1.14453m11.75 5.19922l5.51953-4.34766m-5.51953 4.34766l-2.2461-.98829m14.90626-.36328l6.83203-1.64843m-6.83203 1.64843l-1.6289-1.83203m2.625 1.59375l-.81641-.91797m13.05468 0l6.9961.66797m-6.9961-.66797l-.9414-2.26562m18.67187-.79297l-1.83594 6.78125m17.7461-3.36719l-7.02735-.04687m6.00391.03906l.57031 1.08984m13.73047-.60156l-6.95312-1.00781m13.76172 2.28125l6.0625-3.55078m-5.1797 3.03515l-1.04687-.64453m13.03907-1.17578l6.9414 1.11719m-5.92969-.95313l-.39843-1.16015m15.91015-1.94922l.52344 7.00781m-.44922-5.98828l1.03906-.65234m10.7461 6.20312l3.4375-6.1289m-2.9375 5.23828l-1.22656-.02735m17.12109 1.08985l-2.72266-6.47657m2.32813 5.53516l-.77735.95313m16.3672-1.89063l-6.48048-2.71875m5.53516 2.32422l.11328 1.22265m13.01172-4.99609l-4.21484 5.6211"/><g clip-path="url(#Z)"><path fill="none" stroke="#000" stroke-linecap="round" stroke-linejoin="round" stroke-miterlimit="10" stroke-width=".5" d="M465.66797 317.73828l2.42578.3789"/></g><path fill="#00f" fill-rule="evenodd" d="M259.52734 472.08594h8.6172V461.9414h-8.6172v10.14453"/><path fill="azure" fill-rule="evenodd" d="M261.35938 463.77344h.83203v2.82422h3.28906v-2.82422h.83203v6.48047h-.83203v-2.91797h-3.28906v2.91797h-.83204v-6.48047"/><path fill="#00f" fill-rule="evenodd" d="M397.11719 458.77344h8.61719V448.625h-8.6172v10.14844"/><path fill="azure" fill-rule="evenodd" d="M398.94922 450.45703h.83203v2.82422h3.28516v-2.82422h.83593v6.48047h-.83593v-2.91406h-3.28516v2.91406h-.83203v-6.48047"/><path fill="#ff3030" fill-rule="evenodd" d="M340.10938 445.45703h7.6953V435.3125h-7.6953v10.14453"/><path fill="azure" fill-rule="evenodd" d="M341.94531 437.14453h.83203v5.73828h3.19532v.74219h-4.02735v-6.48047"/><path fill="#00f" fill-rule="evenodd" d="M228.45703 418.82813h8.6211v-10.14844h-8.6211v10.14844"/><path fill="azure" fill-rule="evenodd" d="M230.28906 410.51172h.83594v2.82422h3.28516v-2.82422h.83203v6.48047h-.83203v-2.91406H231.125v2.91406h-.83594v-6.48047"/><path fill="#ff3030" fill-rule="evenodd" d="M322.35938 352.25h7.6914v-10.14453h-7.6914V352.25"/><path fill="azure" fill-rule="evenodd" d="M324.1914 343.9375h.83204v5.73828h3.19531v.74219h-4.02734v-6.48047"/><path fill="#ff3030" fill-rule="evenodd" d="M437.7539 347.8125h7.69532v-10.14453h-7.69531v10.14453"/><path fill="azure" fill-rule="evenodd" d="M439.58594 339.5h.83594v5.73828h3.1914v.74219h-4.02734V339.5"/><path fill="#ffffe0" fill-rule="evenodd" d="M235.22266 373.60547h22.17968v-10.19531h-22.17968v10.1953"/><path fill-rule="evenodd" d="M238.72266 365.2461h.5078v6.29296h-.78515v-4.48828h-1.39062v-.5586l.5625-.0625.25-.05468.23047-.08984.20312-.14063.17578-.21094.14063-.29296.10547-.39454m4.8125 0l.23047.01563.21875.0586.20703.08984.19922.12109.18359.14844.17187.17578.30078.41797.2422.4961.17968.54296.11328.58203.03906.58985-.03906.59375-.11328.58203-.17969.55468-.24219.50391-.30078.42578-.17187.17969-.1836.15234-.19921.125-.20703.09375-.21875.05469-.23047.01953-.22657-.01953-.21875-.05469-.21093-.09375-.19532-.125-.18359-.15234-.17188-.17969-.30078-.42578-.24609-.5039-.17969-.5547-.10937-.58202-.03906-.59375h.83203l.03125.5625.08203.5078.125.44141.16406.375.1875.30079.21094.22265.22265.13672.22657.04688.22656-.04688.22266-.13672.21093-.22265.1914-.30079.16407-.375.125-.4414.08203-.50781.02735-.5625-.02735-.5625-.08203-.5-.125-.4336-.16406-.36719-.1914-.29296-.21095-.21485-.22265-.1289-.22656-.04688-.22657.04688-.22265.1289-.21094.21485-.1875.29296-.16406.3672-.125.43358-.08203.5-.03125.5625h-.83203l.03906-.58984.10937-.58203.17969-.54297.2461-.4961.30077-.41796.17188-.17578.1836-.14844.1953-.1211.21094-.08984.21875-.0586.22657-.01562m5.09375 0h.5078v6.29297h-.78515v-4.48828h-1.39062v-.5586l.5586-.0625.2539-.05468.23047-.08984.20312-.14063.17188-.21094.14453-.29296.10547-.39454m2.82422 2.17188h.78515l.01953-.3125.0586-.28906.10156-.25.13672-.21875.1836-.17188.22265-.1289.26562-.08204.3086-.02734.23828.02344.22265.0625.20313.10156.17969.13672.14843.17578.11328.20313.07032.23828.02734.26171-.02344.26954-.0664.22656-.10938.1914-.15625.17188-.19922.16016-.24609.16796-.63281.38672-.53906.3125-.4375.32032-.34766.32421-.26172.33594-.1914.34766-.125.3711-.07032.39452-.01953.41797h4.21094v-.74219h-3.33203l.08203-.28125.11328-.23828.14844-.19921.1875-.1836.23047-.16797.28125-.17578.71484-.41797.41797-.20703.34375-.23047.28125-.25.21875-.26562.16406-.28125.11328-.28125.0625-.28516.01953-.28125-.04297-.38281-.11718-.34766-.19141-.3086-.25-.26562-.30078-.21093-.34766-.16016-.3789-.09766-.40625-.03125-.4375.03125-.39844.09766-.35156.16797-.3047.23437-.25.3047-.18358.37108-.1172.44922-.03905.51563"/><path fill="#ffffe0" fill-rule="evenodd" d="M361.0586 383.55078h22.17968v-10.1914H361.0586v10.1914"/><path fill-rule="evenodd" d="M364.5586 375.1914h.5078v6.29688h-.78515v-4.49219h-1.38672v-.55468l.5586-.06641.25-.05078.23046-.08985.20313-.14453.17578-.20703.14063-.29687.10546-.39453m4.8125 0l.23047.01953.21875.05469.20703.08984.19922.1211.1836.14843.17187.17578.30078.42188.24219.49218.17969.54688.11328.57812.03906.59375-.03906.58985-.11328.58594-.17969.55468-.24219.5-.30078.42969-.17187.17969-.1836.15234-.19922.125-.20703.08985-.21875.05859-.23047.01953-.22656-.01953-.21875-.0586-.21094-.08984-.1953-.125-.1836-.15234-.17188-.17969-.30078-.42969-.24219-.5-.17968-.55469-.11329-.58593-.03906-.58985h.83594l.02734.5625.08204.50391.125.44531.16406.3711.1914.30078.20704.22265.22265.13672.22656.04688.22657-.04688.22265-.13672.21094-.22265.1914-.30078.16407-.3711.125-.44531.08203-.5039.02734-.5625-.02734-.5625-.08203-.5-.125-.4375-.16406-.36329-.19141-.29297-.21094-.21484-.22265-.13281-.22657-.04297-.22656.04297-.22265.13281-.20704.21484-.1914.29297-.16406.36328-.125.4375-.08204.5-.02734.5625h-.83594l.03906-.59375.11329-.57812.17968-.54688.2422-.49218.30077-.42188.17188-.17578.1836-.14844.1953-.1211.21094-.08983.21875-.0547.22656-.01952m5.09375 0h.50782v6.29687h-.78516v-4.49219h-1.39063v-.55468l.5625-.06641.25-.05078.23047-.08985.20313-.14453.17578-.20703.14063-.29687.10546-.39453m2.82422 2.17578h.78516l.01953-.3164.0586-.28517.10156-.2539.14062-.21485.17969-.17578.22265-.1289.26563-.07813.3086-.02734.23827.01953.22266.0625.20313.10156.17968.14063.14844.17187.11328.20703.07422.23438.02344.26562-.02344.26954-.0625.22265-.11328.1914-.15234.17188-.20313.16406-.2461.16407-.6328.39062-.53907.3125-.4375.3164-.34765.32423-.26172.33594-.1914.35156-.125.3711-.07032.39062-.01953.42187h4.21094v-.74219h-3.33204l.08594-.28515.11328-.23438.14844-.20312.1875-.17969.23047-.17188.27734-.17578.71875-.41796.41406-.20313.34375-.23047.28125-.2539.21875-.26563.16407-.27734.11328-.28516.0625-.28516.01953-.28125-.04297-.3828-.11719-.34767-.1914-.30859-.25-.26172-.30078-.21484-.34766-.15625-.3789-.09766-.40626-.03515-.43359.03125-.39844.10156-.35547.16406-.30468.23438-.25.30468-.1836.375-.11719.44532-.03906.51953"/></g></defs><use xlink:href="#aa"/></svg>