<svg xmlns="http://www.w3.org/2000/svg" role="img" xmlns:xlink="http://www.w3.org/1999/xlink" viewBox="142.45 309.95 326.84 171.84"><defs><clipPath id="a"><path d="M144 311.67188h1v168.65625h-1zm0 0"/></clipPath><clipPath id="b"><path d="M144 311.67188h324v168.65625H144zm0 0"/></clipPath><clipPath id="c"><path d="M467 311.67188h1v168.65625h-1zm0 0"/></clipPath><clipPath id="d"><path d="M144 477h3v3.32813h-3zm0 0"/></clipPath><clipPath id="e"><path d="M154 477h7v3.32813h-7zm0 0"/></clipPath><clipPath id="f"><path d="M167 477h7v3.32813h-7zm0 0"/></clipPath><clipPath id="g"><path d="M180 478h8v2.32813h-8zm0 0"/></clipPath><clipPath id="h"><path d="M193 478h8v2.32813h-8zm0 0"/></clipPath><clipPath id="i"><path d="M207 478h7v2.32813h-7zm0 0"/></clipPath><clipPath id="j"><path d="M220 478h8v2.32813h-8zm0 0"/></clipPath><clipPath id="k"><path d="M233 478h8v2.32813h-8zm0 0"/></clipPath><clipPath id="l"><path d="M246 478h9v2.32813h-9zm0 0"/></clipPath><clipPath id="m"><path d="M260 480h8v.32813h-8zm0 0"/></clipPath><clipPath id="n"><path d="M267 480h2v.32813h-2zm0 0"/></clipPath><clipPath id="o"><path d="M273 479h8v1.32813h-8zm0 0"/></clipPath><clipPath id="p"><path d="M280 479h3v1.32813h-3zm0 0"/></clipPath><clipPath id="q"><path d="M286 479h9v1.32813h-9zm0 0"/></clipPath><clipPath id="r"><path d="M293 479h3v1.32813h-3zm0 0"/></clipPath><clipPath id="s"><path d="M300 479h8v1.32813h-8zm0 0"/></clipPath><clipPath id="t"><path d="M307 480h2v.32813h-2zm0 0"/></clipPath><clipPath id="u"><path d="M313 479h8v1.32813h-8zm0 0"/></clipPath><clipPath id="v"><path d="M320 479h3v1.32813h-3zm0 0"/></clipPath><clipPath id="w"><path d="M326 479h9v1.32813h-9zm0 0"/></clipPath><clipPath id="x"><path d="M332 479h2v1.32813h-2zm0 0"/></clipPath><clipPath id="y"><path d="M340 479h8v1.32813h-8zm0 0"/></clipPath><clipPath id="z"><path d="M345 479h3v1.32813h-3zm0 0"/></clipPath><clipPath id="A"><path d="M353 478h8v2.32813h-8zm0 0"/></clipPath><clipPath id="B"><path d="M359 479h2v1.32813h-2zm0 0"/></clipPath><clipPath id="C"><path d="M367 478h7v2.32813h-7zm0 0"/></clipPath><clipPath id="D"><path d="M373 478h3v2.32813h-3zm0 0"/></clipPath><clipPath id="E"><path d="M380 477h7v3.32813h-7zm0 0"/></clipPath><clipPath id="F"><path d="M393 479h8v1.32813h-8zm0 0"/></clipPath><clipPath id="G"><path d="M399 479h2v1.32813h-2zm0 0"/></clipPath><clipPath id="H"><path d="M407 477h7v3.32813h-7zm0 0"/></clipPath><clipPath id="I"><path d="M420 477h7v3.32813h-7zm0 0"/></clipPath><clipPath id="J"><path d="M433 478h8v2.32813h-8zm0 0"/></clipPath><clipPath id="K"><path d="M446 478h8v2.32813h-8zm0 0"/></clipPath><clipPath id="L"><path d="M452 480h2v.32813h-2zm0 0"/></clipPath><clipPath id="M"><path d="M460 478h8v2.32813h-8zm0 0"/></clipPath><clipPath id="N"><path d="M144 464h3v6h-3zm0 0"/></clipPath><clipPath id="O"><path d="M144 450h3v7h-3zm0 0"/></clipPath><clipPath id="P"><path d="M144 438h4v5h-4zm0 0"/></clipPath><clipPath id="Q"><path d="M144 424h3v6h-3zm0 0"/></clipPath><clipPath id="R"><path d="M144 410h2v8h-2zm0 0"/></clipPath><clipPath id="S"><path d="M144 415h2v3h-2zm0 0"/></clipPath><clipPath id="T"><path d="M144 399h4v3h-4zm0 0"/></clipPath><clipPath id="U"><path d="M144 384h4v6h-4zm0 0"/></clipPath><clipPath id="V"><path d="M144 373h4v2h-4zm0 0"/></clipPath><clipPath id="W"><path d="M144 359h4v3h-4zm0 0"/></clipPath><clipPath id="X"><path d="M144 346h4v2h-4zm0 0"/></clipPath><clipPath id="Y"><path d="M144 332h4v4h-4zm0 0"/></clipPath><clipPath id="Z"><path d="M144 319h4v3h-4zm0 0"/></clipPath><g id="aa" clip-path="url(#clip1)"><path fill="#fff" fill-opacity="0" fill-rule="evenodd" d="M0 0h1000v1000H0zm0 0"/><path fill="#d3d3d3" fill-opacity="0" fill-rule="evenodd" d="M162.15234 355.86719l-.23437.29297.0586.23437.11718.17188.17578.23437.29297.34766.11328.0586.11719-.17188.0586-.23438.17577-.17578.46485-.17578h.69922l.23437.29297.28906.8164.0586.17579.17578.23046.35156.23438.69922.69922.17188.17578.23437.34765.23438.41016.28906.58203.41015.46485.23047.23437.23438.17578.11719.23047.17578.29297.17187 1.16406v.23438l.0586.28906.05859.11719.11719.11719.34765.41015.11719.17188.17578.17578.17578.23437.11719.17188.17188.35156.05859.23438.23437.40625.23438-.0586-.17578.17578-.0586.92969h-.58203l-.23437-.11328-.34766.11328-.11719.11719-.05859.29297-.0586.17578-.11718.17187-.46484.29297-.0586.23438-.0586.11328v.64453l.0586.17187v.41016l.0586.0586v.40624l.05859.40625.11719.17579.05859.05859.23047.64062-.0586.29297v.69922l-.05859.58203v.23438l-.0586.23047-.05468.35156v1.92187l.05469.1172h.42578l-.36719.11718-.02344.35156.89063 1.16797 1.74219.53906 1.33984.35938v.53906l.08984.8086.53516.71484 1.51953.26953.89063-.08594.08984 1.16406.53516.1797 1.16015-.1797 2.05469-.98437 1.16016-.36328 1.8789-.17578 1.69531-.1797-.17968.71876-1.51563.08594-1.25.08984-.80469.26953-1.07421.8086.26953.71875.53515.89843-.17968.625-.26563.8086.26563 1.07812.625.89844.80468.17969 1.25-.1797-.26562.72267.09766.5039.05468.29297v.17188l.0586.29296v.40625l.17578.1172.35156.11718h.40625l.29297-.17578.11328-.11719.0586-.11719.11718-.23047.0586-.17578.35156-.46484.23047-.17578.17578-.0586.17578.0586.0586.17578.11718.98828.05469.46875.0586.17188.11718.23437.17578.0586.8164.05859h.28907l.11719.23437.05859.40625.0586.35156v1.10547l.11718.29297.11719.34766.28906.69922.17578.35156.58203.7539.35157.17579.17187.0586.46875.23437.64063.46484.34765.23438.29297.17578.29297.05468.23047.0625.8164.34766.29297.17578.11328.17188.35157.35156.11719.17578.52343.64063v.28906l.0586.35156v.34766l.05859.35156.0586.28906.11718.0586.17188.05859h.17578l.58203.23437.17578.1172.17578.28905.17578.23438.11328.23437.29297.23047.11719.11719v.41016l.0586.05468.28906.23438.23437.11719.0586.11718.11718.17188.0586.11719.23047.23437.05859.17578.23437.0586.1172.05859-.1172.11328-.05859.11719v.11719l-.11719.29296-.11719.28907v.58203l.17579.11719.11718.05859.0586.11719.11719.11719.11328.05859.17578.34765.0586.35157.05858.40625v.17578l-.05859.17578-.11719.69922v.17187l.1172.17579.29296.29296h.40625l.17578.1172.11719.17187.11719.29296v.23438h-.52735l-.23047-.23438h-.23437l-.17578.0586-.0586.69922.0586.34765.11719.17579.17578.41015.11718.23047.28907.46875.17578.05469h.52344l.23437.0586.75781.64062.0586.29296v.23438l.05859.0586.23047.34765v.35156l-.11719.17188v.29297l.29297.28906.29297.17578.17187.0586.29297.17577.29297.1172.58203.40624.28906.23438.29297.17578.21875.16015.01563.01172.23047.17579.64062.52343.17578.23438.1172.17578.17577.17578.11328.17188v.64062l.1172.17578.46874.11719.58203.11719.23438.05859.23047.11328.29297.11719.11328.0586.58593.35156.28907.17187.17578.0625.17578.05469.17578.0586.69922.35155.28906.17579.23438.05468.28906.17578.23437.1172.64063.40624.29297.11719.17187.0586.23438.05859.41015.05859.23047.0586.23438.11718.0586.17188-.41017.17578.46875.0586.0586.29296.11328.23438.17578.05468.23438.0586.17578.05859.40625.11719.64062.23437.11719.17188.0586.23437v.17578l-.0586.1172-.0586.40624.23438.23438.11719.05859.34766.11719.64062.23047.17578.11718.28906.1172.17578.17577.23438.46485.58203 1.10546.17578.17579.34766.17578.17578.11719.35156.11718 1.04688.52344.23437.0586.46485.11327.29297.0586.46484.17578.75781.58203.23438.23438.34765.46484.17578.17578.28907.23438.8164.69921.29297.17579.28906.28906.29297.17578.29297.28906.69531.64063.17578.17578.29297.23437.28907.23438.46875.28906.64062.58203.34766.23438.23437.29297.34766.34765.35156.46485.9336.99218.34765.40625.11719.17579.23437.05859.11328.11719.64454.17578.23047.11328.23437.0586.29297.17577.23047.1172.9336.69921.40624.40625.23438.17578.40625.17578.23437.11719.8164.34766.34766.23437.23438.11719.29297.28906.23047.11719.7578.35156.35157.17188.23047.05859.29297.11719.23437.0586.8711.17577h.8164l.46875.23047.17188.0586.875.69921.46484.1172.29297.05858.17578.0586.23047.0586.46875.05859.34766.05859.35156.0586.40625.05859h.29297l.17187.0586v.23046l.17578.17578h.29297l.34766.0586.35156.05859.69922.11719h.64063l.46484-.23438.29297-.17578.17187-.11719.41016-.17187.28906-.17578.9336-.46485.46875-.29297.52343-.29296.46485-.17188.46484-.17578 1.05078-.46485.28906-.11718.41016-.11719.28906-.11719.52735-.17578 1.51562-.69922.58203-.34765.28907-.0586.29297-.0586.34765-.11718.875-.23047.35156-.11719h.11329l.23437-.05859.875-.23437.23438-.0586h.8125l.35156-.0586.8164-.11718.17188-.0586.35156-.05468.29297-.0586.23047-.05859.8164-.17578.17579-.0586h.34765l.23438-.05859.46484-.11718.75781-.17188.23438-.0586h.34765l.41016-.11718.28906-.0586 1.28516-.05859h.28906l.41016-.0586.23047-.05858h.17578l.875-.1172h.40625l.41015-.11718h.34766l.35156-.11328.8711-.0586h1.75l1.04687.28907.41016.11719.28906.11718.35156.11719.28907.11719 1.05078.17187.28906.0586h.29297l.29297.05859.17187.0586.41016.05859.17187.0586.1172.05858h.11718l.11719.0586.35156.0586h.11328l.41016.0664 1.92187.39453 1.92578.39453 1.51953.44922 1.69532.71875 2.14453.80469 1.60547-.71875 1.42968-.80469 1.16016-1.07813 1.25-.44921 3.03516-.71875 1.875-.35938 2.14453-1.34765 2.23437-1.25391 2.5-1.25781 1.69531-.44922 1.78516-.17969 1.16016-.26953.625.53906 1.33984-.26953.71485-.98828.98437-1.34375.44531-.17969.80469-.35937 1.875-.53907 1.78516-.44921 1.25-.26954 1.16015-.08984 1.69922-.08984 1.96094-.26954 1.25-.08984h.53906l.625-.08984h.89063l2.14453-.17969 2.41015-.17969 2.58985-.08984 1.69531.17969 1.60938.08984 1.42968.35938 1.16016.71875 1.875.98828 1.16015 1.52734.26563.71484.6289.08985.35548.89844.53515.53906.53516 1.52734 1.07422.35938h.53515l-.80469.53515.08985 1.70703.71484 2.69532.89063.80468.89453.98829.71484 1.2578 1.78516.53907 1.51953-.17969.35547 1.34375 1.60937-.80469.98047-.53906.26953.26953.31641-.21484.21875-.14453.80078.44922.44922-.35938h.35547l.53515-.26953.53907-.71875.53515-.26953.625-.98828 1.16016.44922.83984.3711 1.39454.61718 1.6953-.17969h1.60548l1.78515.08985.17969-1.70704.53516-1.34375.80468.26954.4922.84765.40233.40625-.08984.53906v.35938l.71485.44922.71093-.26953h1.42969l.35938.98828.4453 1.25781.71485 1.34375 1.25.6289 1.69531.62891.71485-.17969.17969-.53906.98046-.08984.44922.35937.08594 1.25782-.26563.6289-.53515.17969v.53906l.71484.98438.26563.53906.98437.98828.80078 1.07813-.26562.35937-.08985.89844-.625 2.33203-.35546 2.0664-.08985 1.79298-.17969.71875-.08984.53906v1.4375l-.98047 1.88281-.35937 1.70703-.53516.89844-.80469 1.16797-.26562.53906 2.05469 1.2539.08593.35938-.35546.53906-.08985-.17968v.80859l.08985 1.4375-.44532.71484-1.07422.09375-.26562.71485.53515.89844.8047.71875 1.16015.80859 1.33984.26953.44531.35938-.35546.44921-1.78907-.08984-1.25-.44922-.71484-.71875-.625-.08984-.17578 3.58984-.1875 1.3086h89.35937V311.70313h-55.26953v49.08203l.76172.125 3.28906.54296 2.02344 2.83594v2.7539l2.35156.33204 2.34766.33203h4.05078l-1.3789 4.16016-2.02344.70703-2.02344.70312-.54297.34375-2.59375 1.6172-.1875.11718-2.02344-2.07813-.73046-2.74218-2.67188-2.07813-1.375-3.5-.0664-.08203-1.95704-2.67188 2.75-1.41796v-49.08204H294.42187v91.41407l.1172.03125.1328.01172.07422.07421.10547.04688.08985.0586.08593.05859.08985.0586.29687.29687.0586.08984.03125.11719.02734.11719.01563.13671-.03125.1172-.0586.08983-.0586.08594-.04296.10547-.04688.10156-.02734.1211v.14453l.17578.26953.14844.14844.07422.08594.07422.07421.04296.10547.0625.08985.0586.08593.04297.10547.0586.08985.04687.10156.04296.10547.0586.08594.11719.17968.07421.07422.0625.08594.0586.08984.04297.10547.0586.08985.05858.08593.0625.08985.0586.08984.04297.10156.11719.17969.07421.07422.0586.08594.07422.07421.08984.0586.10547.04687h.14844l.1328-.01562.13282.01562.10156-.04687.07422-.07422.04688-.10156-.01563-.13281v-.14844l-.04687-.10547-.02735-.11719-.04687-.10156-.02735-.1211-.04296-.10156-.0625-.08984-.04297-.10156-.04297-.10547-.03125-.11719-.01563-.13281-.01171-.13672.08593-.0586.0586-.08593.12109-.03125.04297.10547.01562.1328v.1172l.0586.10156.0586.08984.08983.0586.14844.14843.0586.08985.04296.10547-.01171.10156.08593.0586.10547.04687.08594.0586.08984.05858.07422.07422-.11719.02735-.10546.04687-.08594.0586-.07422.07421-.0586.08985-.0625.08594-.02734.12109-.04687.10156-.04297.10547-.03125.11719-.01172.13281-.01563.13281v.14844l.02735.11719.04687.10547.04297.10156.0586.08984.07421.07422.08985.0586.07422.07421.08984.0586.0586.08984.04296.10547.04688.10156.11719.03125.1328.01563h.14845l.11718-.03125.10547.04297.04297.10547.04688.10156.02734.1211L299.5 410l.02734.11719.03125.1211.02735.11718.10547.04297.10156.04687.13281-.01562.14844.14844.0625.08593.07422.07422.07031.07422.08984.0625.10547.04297.10156.04297.1172.03125.13671.01562.11719-.03125.07422-.07422.02734-.11718-.01172-.13282-.03125-.12109-.02734-.11719.04297-.10547h.11719l.08984.0625.11719.02735h.14843l.13282.01562h.14843l.13282.01563.1328-.01563h.14845l.1328-.01562.13282-.01172.13672.01172.11719-.02735.13281-.01562.1914-.0586-.05859.17579-.01562.1328-.02735.1211-.01562.13281-.0586.08594-.1328.01563-.10548.04687-.10546.04297-.1172.03125-.11718.02735-.26563.03125h-.14843l-.13281.01562-.07422.07422.05859.08594.14844.14843.11719.1797.07421.0703.08985.0625.08984.0586.08594.0586.08984.05858.10156.04297.10547.0625.10547.04297.08594.0586.10547.04687.10156.04297.17969.11719.0586.08984-.04298.10156-.04687.10547.01562.13281.22266.22266.0586.08985.04296.10156.03125.1211.04297.10155.01563.13282.03125.11718.01171.13672.03125.11719.14844.14844.10156.04297.10547.04296.1172.03125.1328.01563.13672.01563h.11719l.11719-.03125.08984-.0586.04297-.10547.04688-.10156.04296-.10547.03125-.11719.01172-.1328v-.14845l-.01172-.1328-.01562-.13282-.03125-.11719-.04297-.10547-.04688-.10547-.04296-.10156-.04297-.10547-.01563-.13281.01563-.13281.02734-.11719.03125-.11719.02735-.1211.04687-.10155.08984-.0586.08594-.0625.07422-.07422.08984-.05859.22266-.22266.0586-.08593.07421-.07422.11719-.17969.0586-.08594v-.14844l-.07423-.07421-.10156-.04688-.10547-.04297-.10156-.04297-.0586-.08984-.04687-.10547-.02734-.11719.08984-.05859.11719-.03125.10156-.04297.17969-.11719.14844-.14843.01172-.13282-.01172-.10546-.08985-.0586-.1328.01563h-.14845l-.1328.01562-.13282-.01562-.1211-.03125-.08593-.0586-.07422-.07422-.0586-.08984-.0625-.08594-.11718-.17969-.0586-.08593.03125-.1211.08594-.05859.1211-.03125.05859-.08594v-.1211l-.03125-.11718-.0586-.08984-.05859-.08594-.04687-.10547-.02735-.11719-.01562-.1328.0586-.08985.07421-.07422.08984-.0586.1172-.17968.07421-.07422.0586-.08594.14843-.14844.1211-.03125.1328-.01562.13282.01562.07422.07422.04297.10547.01562.13281-.03125.1172-.11719.03124-.1328.01172-.14844.14844-.04297.10547-.04688.10156-.02734.1211-.03125.11718v.14844l.03125.11719.04297.10546.05859.08985.07422.07031.07422.07422.11719.03125.12109.02734.11719-.02734.1328-.01563h.1172l.08984.0586.07422.07422.04687.10546.0586.08594.10156.04688.13281.01562.10547.04297.08594.0586-.01172.10546-.07422.07422-.17969.11719-.05859.08984-.08984.0586-.07032.07422-.07421.07421-.0625.08985-.02735.11719-.01562.1328.01562.13282-.01562.13281v.14844l.01562.13281.02735.1172.03125.12108.07421.07422.08985.0586.08594.0586.08984.05858.11719.03125v.08594l-.10157.04688-.08984.0586-.26563.03124-.11718.02735h-.14844l-.10547.04296-.10156.04688-.0586.08984-.0625.23438-.01171.13281-.03125.1211-.01563.1328v.29298l-.01172.1328.01172.13673.01563.1328.1328.01563.13282.01172.1211.03125.08593.0586.07422.07421.04688.10547.04296.10157.01563.1328v.44532l-.01563.13281v.44532l.03125.26562.02735.11719.01562.13281.03125.11719.08594.21094.03125.26562v.14844l-.03125.11719-.02734.11718-.03125.1211-.02735.11719-.03125.11718-.03125.1211-.01171.1328-.01563.13282.08984.0586.1172-.03125.10155.01562.04688.10547-.03125.26562v.44141l-.04297.10547-.04688.10547-.04296.10156-.04297.10547-.0586.08594-.03125.12109-.04296.11719-.03125.11719-.01563.1328.01563.13282.05859.08984.10547.04688.08594.0586.05859.08593-.01172.13672-.03125.11719-.04297.10156v.44531l-.01562.13281v.14844l-.03125.11719-.04297.10547-.02735.11719-.04687.10546-.04297.10157-.03125.12109-.02734.11719-.03125.13281-.03125.11719-.02735.11719-.04297.10546-.03125.1172-.03125.12108-.01171.13282-.01563.13281v.29688l.02734.11718v.14844l.04688.39844.02734.11719.0586.08984.12109.03125h.14844l.13281-.01563.0586.08985v.11719l-.0586.08984-.08984.0586-.10157.04296-.10546.04688-.08985.05859-.08594.0586-.13671.01562-.1172-.03125-.1328-.01563-.10157.04688-.0625.08594-.01172.13671-.01562.13282-.03125.11719-.02735.11718-.01562.13281-.03125.1211v.29687l.01563.13282.03125.11718v.14844l.01171.13281v.14844l-.02734.11719-.04688.10156-.02734.1211-.03125.11718-.0586.08985-.07421.07421-.10156.04297-.10547.04688-.11719.02734-.1211.03125-.10156-.04687.0586-.08594.10547-.04688.02734-.11718.03125-.11719.02734-.1211.03125-.11718v-.14844l.01563-.13281-.03125-.11719-.04297-.10547-.10547.01563-.07422.07422-.10156.04296-.08984.0625-.07422.07422-.04297.10157-.01563.1328-.03125.1172L304.25 426l-.03125.11719-.02734.11719-.03125.12109-.02735.11719-.03125.11718-.04297.10547-.08984.0586h-.08984l-.1172-.03125-.03124-.08594.01562-.13672-.03125-.11719v-.14844l-.01171-.1328v-.14844l-.0625-.23438-.02735-.1211-.04297-.10156-.04687-.10546-.0586-.08594-.05859-.08985-.04297-.10546-.0625-.08594-.14844-.14844-.0703-.07422-.10548-.04687-.10547-.04297-.10156-.04297-.29687-.29688-.08985-.07421-.08594-.0586-.10546-.04297-.08985-.0625-.08594-.0586-.10546-.04296-.08985-.0586-.08594-.0625-.07421-.0703-.10547-.04688-.08594-.0586-.10547-.04296-.08984-.0625-.10156-.04297-.10547-.04297-.08594-.0586-.10547-.04687-.10547-.04297-.10156-.04687-.08985-.0586-.10156-.04297-.10547-.04296-.08984-.0625-.11719-.02735-.13281-.01562-.13281.01562H299.75l-.13281.01563-.11719-.03125-.08984-.0586-.07422-.07422-.08985-.05859-.10156-.04688h-.14844l-.12109-.02734-.10156-.04297-.07422-.07422-.11719-.17968-.08984-.0586-.10156-.04297-.08985-.0625-.10547-.04296-.08984-.0586-.08594-.0586-.10547-.04687-.0586-.08594-.05858-.08984-.04297-.10547-.04688-.10156-.07422-.07422-.08594-.0586-.07421-.07421-.08985-.0586-.22265-.22265-.04297-.10547-.03125-.26563.10547-.04296h.14453l.10547.04296.07421.07422.08985.0586.08594.0586.10546.04687.08985.05859.14844.14844.0703.07422.14845.14843.0625.08594.07421.07422.08594.0586.07422.07421.08985.0625.08984.0586.08594.05859.26953.17578.10156.04688.10547.04296.10156.04297.04688-.07421.05859-.08594.07422-.07422.07031-.07422.10547.04297.07422.07422.0586.08984.04296.10156.04688.10547.04296.10547.1211.02735.11719-.02735.07421-.08984.04297-.10547.0586-.08985.07422-.07421.10546-.04297.1172-.02735.1328.01172.08985.0586.14844.14843.05859.08985.04297.10547.04687.10156.04297.10547.04297.10156.10547.04688.10547.04296.13281.01563.08594-.0586.0586-.08984.07421-.07422.10547-.04297.11719.02735.10547.04687.10156.04297.10547.04297.10156.04688.17969.11718v.11719l-.01563.13281.01563.13281.01562.13672.0586.08594.10156.04688.1211.02734.11718.03125h.14844l.11719-.03125.05859-.08984.17969-.1172.05859-.08983.07422-.07422.0586-.08594.11718-.17969.17969-.11719.11719.03125.08984.0586.04297.07422-.01563.1328v.1172l.08985.05859h.14843l.13282-.01563.1328-.01171.26563-.03125.10547-.04297.11719-.03125.1211-.02735.07421-.07421.07031-.07422.0625-.08985-.01562-.10547-.04688-.10156-.10156-.04297-.10547-.01562-.11718.02734-.26563.03125h-.14844l-.07421-.07422-.08985-.0586-.11719-.03124-.11718-.02735-.13282-.01562h-.14843l-.13282.01563h-.29687l-.10547-.04688-.14844-.14844-.04297-.10156-.05859-.08984.22266-.22266.08593-.0586.10547-.04296.11719-.03125.13281-.01563.13281.01563.13672.01562.10157.04297.1328-.01172.08985-.0625.10156-.04297.0625-.08984-.04687-.10156-.08984-.0586-.1172-.03125-.10155-.04296-.0586-.08985-.0625-.08984v-.11719l.01563-.13281.10547-.04688.07421-.07031v-.1211l-.08984-.05859-.03125-.11719.08985-.05859.07421-.07422.04297-.10547.0586-.08984.04687-.10156.01563-.13281v-.14844l-.04688-.10547-.04297-.10156-.08984-.0586-.13281-.01562-.10157-.04297-.13671-.01563-.1172-.03125h-.4453l-.13282-.01562-.13281-.01172-.13281-.01563-.11719-.03125h-.14844l-.13281-.01562-.13281-.01172-.26563-.03125-.1211-.04297-.08593-.0586-.07422-.07421v-.14844l.01172-.13281.10547-.04688.10156-.04296.13281-.01563h.15235l.13281-.01562h.29297l.1211.03125.10156.04296.08984.0586.23438.0625.12109-.04688.08984-.05859.10156-.04297.13282-.01562.10547.04296.10156.04688.13281.01172.1211-.02735h.14453l.12109-.03125.11719-.02734.10547-.04687.07421-.07422.08594-.0586.14844-.14843.0586-.08594.04687-.10547.02734-.11719.01563-.10547-.10156-.04296-.08985-.0586-.11719-.03125-.10546-.04297-.08985-.0625-.07422-.08594-.07422-.07421-.10156-.04297-.10547-.04688-.10156-.04297-.0586-.08984-.04687-.10156-.08594-.21094-.0625-.08594-.05859-.08984-.07422-.07422-.08594-.0586h-.26953l-.11719.03126-.08984.05859-.10156.04297-.13281.01562-.10547-.01562-.02735-.11719-.0625-.08984-.11718-.03125-.10157-.04297-.14843-.14844-.03125-.11719-.01563-.10546.07422-.07422.17969-.1172.11719-.02733.11718-.03125.13672.01562.10156.04297.10547.04297.10156.04687.10547.04297.1172.03125.1328.01563.1172.02734.1328.01563.10547-.01563.08985-.0586-.07422-.07421-.10547-.04297-.07422-.07422-.07422-.08984-.14844-.14844-.08593-.0586-.08985-.05859-.07422-.07422-.08984-.0586-.10156-.04687-.1211-.02734-.10156-.04688-.10547-.04296-.11719-.03125-.10156-.04297-.1211-.03125h-.14843l-.11719.03125-.10546.04297-.08594.0625-.17969.11718-.08594.0586-.08984.0586-.10547.04687-.08594.05859-.10547.04297-.10156.04297-.10547.04687-.07422.07422-.05859.08985-.0586.08593-.04687.10547-.0586.08594-.07421.07422-.13281-.01172-.1172-.03125h-.11718l-.07422.07422-.08984.0586-.07422.07421-.08984.0586-.08594.05859-.10547.04687-.10156.04297-.13672.01563-.10156-.04297-.14844-.14844-.10547-.04688h-.08594l-.10547.04688-.10156.04297-.1211.03125-.11718-.03125-.07422-.07422v-.11719l.03125-.1211.07422-.0703.0586-.08985.07421-.07422.11719-.03125.10547-.04296h.29297l.13281-.01563.13672-.01563.10156-.04296.08985-.0586.10156-.04687.08984-.0586.13281-.01171.08985.05859.13281.01172.08984-.0586.08594-.05859.10547-.04297.08984-.0586.08594-.0625.08985-.05859.14843-.14843.0586-.08594.05859-.08985.10547-.04296.13281-.01563.11719.02735.1211.03125.05859-.0586.05859-.08984.03125-.26563.02734-.11719.10547.01172.13281.01563.10157-.04297.08984-.0586.0586-.08984.07421-.07422.0586-.08984.04687-.10156.01172-.13281-.01172-.13282-.04687-.10547-.14844-.14843-.0586-.08985-.05859-.08594-.04297-.10546v-.44532l.01563-.1328v-.14845l.01172-.1328-.0586-.0586-.08984.0586-.10156-.04298-.17969-.11719-.08594-.05859-.0625-.08984-.0586-.08985-.07421-.07421-.08594-.0586-.1211.03125-.10155.01172-.10547.04688-.08594.05859-.10547.04297-.14844.14844-.08984.05859-.08594.0586-.08984.0625-.10547.04296-.13281.01563v-.1211l.10547-.04297.11718-.03125.07422-.0703.04297-.10548v-.14844l-.02734-.11718-.14844-.14844-.13281-.01563h-.14844l-.11719.03125-.10547.04297-.10156.04297-.08984.0625-.11719.02735-.07422-.07422.01172-.13281-.04297-.10157-.04297-.10547-.08984-.05859-.11719.02734-.1211.03125-.11718.03125-.10156.04297-.1211.03125-.10156.04297-.10547.04297-.08984.0586-.10156.01562v-.11719l.01562-.13281-.0586-.08985-.07421.04297-.14844.14844-.0586.08985-.07421.07421-.04688.10547-.04296.10156-.07422.07422-.0586.08985-.07422.07422-.05859.08593-.07422.07422-.08984.0625-.07422.07031-.07422.07422-.10156.01563-.13281.01562-.10547-.04296v-.1211l.14843-.14844.04297-.10156.0586-.08984.04687-.10156.04297-.10547.0586-.08985.03124-.11719.04297-.10156.03125-.1211.02735-.11718.04687-.10547.04297-.10156.04297-.10547.07422-.07031.08984-.0625.08985-.0586.10156-.04296h.29687l.26563-.03125.10547-.04297-.07422-.07422-.11719-.03125-.10547-.04297-.08984-.0586-.10156-.04687-.08985-.0586-.10156-.04296-.10547-.04297-.08984-.0625-.08594-.0586-.10547-.04296-.10156-.04297-.1211-.03125-.11718-.03125-.10157-.04297L297.5 410.25l-.10156-.04297-.08985-.0586-.04296-.10546-.01563-.13281.10156-.04297.13281-.01563.13672.01563.13282-.01563.10156-.04297.0586-.08984.01562-.10547-.08985-.0586-.07421-.07421-.10157-.04297-.08984-.0586-.14844-.14843-.04297-.10547-.01562-.13281v-.29297l-.0586-.08985-.08984-.05859-.07422-.07422-.04297-.10547-.03125-.11718-.0586-.08985-.07421-.07422-.11719-.02734-.07422-.07422-.08984-.0586-.08984-.0625-.08594-.05859-.07422-.07421-.0586-.08594-.04687-.10547-.08594-.0586-.14843-.14843-.19532-.0586-.1328.01563-.10157.04297-.07422.07422-.04688.10156-.04296.10547-.0586.08984-.0586.08594-.29687.29687-.08984.0586h-.08594l-.0625-.08594-.04297-.10547.03125-.11719.0586-.08984.02734-.11719-.01172-.13281-.08984-.0625-.10547.04688-.11719.02734-.11719.03125-.26953.17578-.10156.04688-.11719.02734-.10546.04687-.08985.0586-.10156.04297-.0586-.08594-.04687-.10547.01563-.13281.04687-.10547.07031-.07422.07422-.07031.0586-.08985v-.14843l-.04297-.10547h-.23829l-.10156.04687-.03125.11719-.02734.11719-.03125.1211-.07422.04296-.13281.01563-.07422-.04688-.04297-.10156-.04297-.10547-.04687-.10156-.04297-.10547-.1211.03125-.10156.04297-.13281.01562-.11719.03125-.10547.04297-.08984.0586-.10156.04687-.1211.02734-.13281.01563-.10156-.04297-.0586-.08985-.04687-.10546-.04297-.10157-.04297-.10546v-.1172l.0586-.08984.08593-.05859.17969-.11719.10156-.04687.10547-.04297.10547-.0586.10156-.04296.08985-.0625.10156-.04297.10547-.0586.10156-.04687.08984-.0586.10547-.04296.10156-.04297.08985-.0625.10156-.04297.13672-.01563.11719.03125.10156.04297.1211.03125.10156.04297.10546.04688.10157.04296.10547.04297.10156.04688.10547.04297.10156.04297.10547.04687.08594.0586.10546.04296.1172.03125.10546.04297.10156.04688.08985.0586.10547.04296.10156.04297.10547.04687.11719.02735.10156.04687.1211.02735h.14843l.08594-.0586.01562-.10156.0586-.08984-.02735-.1172-.07422-.07421-.11719-.17969-.07421-.07422-.08985-.07421-.17969-.1172-.08593-.05859-.10547-.04296-.10156-.04688-.26954-.17578-.05859-.08985-.07422-.07421-.0586-.08985-.04296-.10156-.03125-.11719-.01563-.13672v-.5625l-.01171-.1328-.01563-.13282-.03125-.11719-.01562-.13281-.01172-.13281-.03125-.1211-.22266-.22265-.0586-.08594-.01562-.10547.03125-.11719.13281-.01562v-91.41406H172.9922v1.45312l-.0586.23438-.35156 1.05078-.17187.52343-.1172.34766-.17577.41016-.11719.17187-.23438.29297-.23046.0586h-.35157l-.11718.05859-.23047.40625v.29297l.11719.17578.23046.23047.1172.23437.64062.75781.29297.46485.17578.23437.23047.35156.23437.34766.64063.8164.17578.46485.17187.41016.11719.69531.17578.46875.11719 1.39844.0586.46484v.875l.11718 1.04688v4.78125l-.0586.46484-.35156 1.28125-.17578.52344-.11328.41015-.35156.9297L172.93359 336l-.23437.58203-.11719.17578-.17187.34766-.17578.40625-.35157.8164-.0586.29297-.11327.29297-.11719.28906-.0586.17579-.11718.875-.0586.40625-.05859.11718-.0586.17579-.05859.17187-.23047.52734-.11718.17188v.23437l-.11719.23438-.0586.17187-.17577.58594v.28906l-.0586.17579v.29296l-.0586.11329-.05859.52734v.17187l-.05468.23438v2.6211l-.17578.8164-.1172.17578-.17577.23438-.1172.17187-.11327.23438-.58594.93359-.23047.28906-.29297.46485-.17578.23437-.28906.35156-.35156.69922-.11328.23047-.17579.41016-.17578.23046-.40625.52735-.8164.69922-.29297.17187-.28906.23438-.17579.11719-.17578.17578-.52344.40625-.52734.17578-.17187.17578-.23438.05469-.64062.17578h-.75782m12.21094 31.02344l-1.07422.44921.35938.89454 1.25-.71485.44531-.53906-.98047-.08985"/><path fill="#d3d3d3" fill-opacity="0" fill-rule="evenodd" d="M201.50781 416.59766h-.89453l.44922.6289.98047.35938.80469-.08985.4453-.98828-.17577.08985-.71485-.35547-.89453.35547m154.6211 59.0703l-.0586-.52343v-.29297l.11328-.29297.0586-.23046.46875-.46875h.11328l.11719-.11329.11718-.05859h.17579l.23437-.0586h.34766l.23437.0586.11719.0586.23047.17187.0586.17578.11718.58203v.29297l-.11719.17578-.17187.28906-.17579.17579-.52734.52343-.23047.23438-.11719.0586h-.17578l-.11718-.0586-.40625-.29297-.17579-.11719-.11718-.0586-.0586-.11327-.05468-.1172m6.64062-10.95702l-.0586-.17188v-1.10937l.0586-.17188.17578-.0586.17188-.05858h.17578l.23437-.0586.1172.0586.05858.69921-.05859.17188-.11719.17578-.11718.0586-.23438.52343-.11328.0586h-.23438l-.05859-.1172m9.61328-14.39062l-.11719-.17578v-.69922l.29297-.875.1172-.17187.17577-.35156.11328-.23047.1172-.29297.35155-.75781.1172-.23047.17187-.23438h.17578l.11719-.0586h.64062l.11719.0586.23437.23438.17188.11328.35156.29297.11719.11718.11328.17579v.11328l.11719.05859.11718.11719v.69922l-.05859.17578v.23047l-.0586.17578-.34765 1.05078-.11719.23047-.11719.23437-.11718.0586-.23047.23437-.64063.28906h-.875l-.41015-.11718-.64063-.46485"/><path fill="none" stroke="#bebebe" stroke-linecap="round" stroke-linejoin="round" stroke-miterlimit="10" stroke-width=".5" d="M467.95703 311.69531H144.02734v168.625h323.9297v-168.625"/><g clip-path="url(#a)"><path fill="#fff" fill-opacity="0" fill-rule="evenodd" d="M144 475.89063v4.4375h.0039H144V311.67188h.0039H144v164.21875"/></g><g clip-path="url(#b)"><path fill="#fff" fill-opacity="0" fill-rule="evenodd" d="M144.0039 480.32813V311.67188h17.75V382.875l-4.4375 1.80469-2.33202 2.44531.22265 4.4375L157.31641 394l4.4375 1.39063 3.82812-3.82813.60938-.98828 1.76172-3.44922-1.76172-1.83984-4.4375-2.41016v-71.20313h26.6289v45.54297l-4.4375 1.00391-3.3086 2.27344-1.1289 1.84765-3.49219 2.59375.1172 4.4375 3.375 3.6211.7539.8164 3.6836 3.45313 4.11327-3.45313.0625-4.4375.26172-3.40625 2.82031 3.40625-1.80468 4.4375-.71875 4.4375.91015 4.4375 3.23047 2.8125 3.07422 1.62891 1.36719 1.5664.61328 2.8711-.61328.85547L193.86328 396l-1.04297.48047-4.39062 3.95703-.04688.3164-3.01172 4.1211 3.01172 2.77734 1.04688 1.66407 3.39062 3.55859.19531.8789.82032 4.4375 3.42187 4.4375.0039.00391 2.11329 4.4375 2.32422 2.16406 4.4375 1.67188 4.4375.39844 3.6836.20312.7578.32031 4.4375.82422 1.25-1.14453 2.26172-4.4375.92578-.3789 4.4375-.33985 4.4375-.21484 4.44141-2.44531.82813-1.0625-.82813-1.0586-.49219-3.3789-3.94922-4.19532-.21484-.24218-4.22266-3.77344-1.80859-.66406-2.6289-2.85157-2.36329-1.58984-2.07422-1.76563-4.4375-2.33984-4.41015-.33203-.03125-.04688L208.21484 396l-.67968-4.4375-1.39844-1.40625-4.4375-2.8086-1.67578-.22265 1.67578-1.51953 1.6289-2.92188 2.34766-4.4375-3.97656-3.53906-4.4375-.69922-1.59766-.19922-1.46875-4.4375-1.375-1.53125-3.47265-2.90625.74218-4.4414-1.70703-3.27735v-45.54296h44.38281v76.8203l-3.30078 3.07032 3.30078 3.14453 3.4375-3.14453-3.4375-3.07031v-76.82031h17.75391v69.39843l-1.47266 1.61328 1.47266 1.48829v32.35937l-.95703 1.66016.95703.86328 4.4375.42969 2.01563-1.29297-2.01563-1.34375-4.4375-.31641v-32.35938l2.76172-1.48828-2.76172-1.61328v-69.39844h22.1914V355.625l-.39062.42969.39063.57422 1.39062-.57422-1.39062-.42969v-43.95313h13.3164v33.39454l-3.7539 2.11328-.6836.26562-4.15625 4.17188 4.15625 3.07422 3.88282 1.36328.55468.46094.51172-.46094 3.1211-4.4375-1.91016-4.4375-1.72266-2.11328v-33.39454h8.875v60.21094l-1.96093 1.92578 1.96093.6797 1.10938-.6797-1.10938-1.92578v-60.21094h13.31641v32.01563l-3.91406 3.49219-.52344 2.28515-1.08984 2.15235 1.08984 1.70703 4.4375-.1211 2.27344-1.58593 2.16406-2.71094 4.4414-1.03906 2.625-.6875-2.625-1.58203-4.4414.11718-4.4375-2.02734v-32.01563h17.7539v19.56641l-1.6328 2.625 1.6328 1.5039 3.67579-1.5039-3.67578-2.625v-19.5664h17.7539v13.98046l-4.4375 2.60547-1.6914 1.16797 1.6914 1.26563 4.29297 3.17187.14453.27735.46485-.27735 3.02343-4.4375-3.48828-3.77344v-13.98046h4.4375V439.3789l-1.0664 1.0039 1.0664 1.01172 1.0039-1.01172-1.0039-1.0039V311.67187h22.1914v125.21875l-3.42577 3.4922-1.01172 1.13671-4.4375.79297-4.4375.04297-2.78906 2.46484 2.78906 3.32031 3.625 1.1211.8125.42578.40234-.42578 4.03516-1.08594 3.20703 1.08594 1.23047 1.28515 1.42187 3.15235-1.42187 1.83984-4.4375.82031-4.4375-.13671-4.4375-.1172-4.4414-.04296-4.4375-1.01953-2.20313-1.34375-2.23438-1.94531-1.4414-2.4922-2.9961-3.67577-4.4414.46484-3.375 3.21094-1.0625.82422-3.72266 3.61328.07422 4.4375 3.64844 2.45703 4.4375 1.0664 1.6289.91407 2.8125 2.32812 4.4375 1.1836 4.4375-.05078 4.4375-.23047 4.4414-.07031 4.4375-.15235 4.4375.58594 4.4375.14844 4.4375-.0586 4.44142.40625 3.5664-4.08984-.00781-4.4375.8789-1.6914 2.92188-2.7461-2.92188-2.875-4.4375-1.41016-4.4414 1.39063-3.26172-1.54297 3.26172-.8125 3.76172-3.6289-3.76172-3.62891-1.01172-.8086-3.42578-3.49219V311.67188h26.6289v82.59766L395.25781 396l1.72656 1.73047v28.61328l-.79687.72656.79688 2.42578.2539 2.01172 1.60938 4.4375 1.58203 4.4375-1.20703 4.4375.6914 4.4414 1.51172 1.50782 1.125-1.50781 2.08594-4.4414 1.22656-.60938 4.4375-1.47656 4.4375.49609 3.33594 1.58984 1.10547.91406 1.44922-.91406-1.44922-1.47265-1.20313-2.96485-3.23828-2.71094-.77344-1.72656-3.66406-3.69531-.67969-.74219-3.7578-3.76953-4.4375.32031-3.53907-.98828-.90235-.72656v-28.61328L399.54298 396l-2.5586-1.73047v-82.59765h26.63282v80.03515L419.21875 396l2.50781 4.4375-.20312 4.4375-2.34375 1.52734-3.46094-1.52734 1.01172-4.4375L418.83984 396l-4.10156-2.73047L411.91797 396l.73828 4.4375.86328 4.4375-.3711 4.4414 1.58985 1.58985 2.88672 2.84766-.92578 4.4375 2.48047 2.49609 1.98047 1.9414 2.45703 2.31641 3.30469-2.3164 1.1328-.27735 4.4375-.5039 4.4375-1.125 2.67188-2.53125 1.76953-1.02735 3.57422-3.41015.86328-1.91016 2.17579-2.52734-2.17579-2.23438-1.01562-2.20703-.16016-4.4375-3.26172-3.57422-4.4414 2.85547-.71875.71875-3.71875 2.39844-4.4375-.53906-2.58985-1.85938L427.92578 396l-4.3086-4.29297v-80.03515h26.62891v113.24218l-2.17968 2.15625 2.17968 3.35156 2.20704-3.35156-2.20704-2.15625V311.67187h17.75v168.65625H144.00391"/></g><path fill="#50fcfc" fill-rule="evenodd" d="M155.20703 391.5625l-.22266-4.4375 2.33204-2.44531 4.4375-1.80469 4.4375 2.41016 1.76172 1.83984-1.76172 3.44922-.60938.98828-3.82812 3.82813L157.3164 394l-2.10938-2.4375m20.92578-22.1914l-.11719-4.4375 3.4922-2.59376 1.1289-1.84765 3.3086-2.27344v5.40625l-.91798 1.3086-3.51953 1.78906-1.76562 2.64843 1.76562 1.89454 2.35938 2.54296 2.07812 1.94922 2.32031-1.94922 1.23438-4.4375-2.7461-4.4375-.80859-1.30859v-5.40625l4.4375-1.0039 1.70703 3.27734-.74218 4.4414 3.47265 2.90625v6.27344l-3.47265 4.13281 3.17968 4.4375.29297.25782 4.4414 2.71093 3.03126-2.96875 1.40625-1.29687 2.45703-3.14063-2.45703-2.1875-4.4375-1.46875-4.4414-.47656v-6.27344l1.375 1.53125 1.46874 4.4375 1.59766.19922 4.4375.69922 3.97656 3.53906-2.34766 4.4375-1.6289 2.92188-1.67578 1.51953 1.67578.22266v1.30859l-2.63672 2.90625-1.80078 2.50781L195.42969 396l-2.60938 1.19922-3.58984 3.23828-.55469 4.4375 2.99219 4.4414 1.15234 1.20704.71485 3.23047 2.27734 4.4375 1.44922 1.875 1.50781 2.5625 2.92969 3.60156.75781.83984 3.67969 2.6289 4.4375.6172 4.4414.41015 3.96094-3.65625.47656-1.48437 4.4375-1.98438 3.53907-.97265.89844-.09375.9375.09375 3.5.80468 1.10937-.80468 1.375-4.4375-2.48438-2.63672-1.59765-1.80078-2.83984-2.53907-4.4375-1.8203-.15235-.07813-4.28516-4.03907-.5-.40234-3.9375-3.40625-4.4414-.66797-1.69531-.36328-2.7422-3.03906-4.4375-.8711L200.29298 396l1.40625-.8711 3.35937-3.5664-3.35937-2.90625v-1.3086l4.4375 2.8086 1.39844 1.40625.67968 4.4375 2.35938 4.39063.03125.04687 4.41016.33203 4.4375 2.33985 2.07421 1.76562 2.36328 1.58984 2.62891 2.85157 1.8086.66406 4.22265 3.77344.21484.24218 3.94922 4.19532.4922 3.3789.82812 1.0586-.82813 1.0625-4.4414 2.4453-4.4375.21485-4.4375.33985-.92579.3789-2.26172 4.4375-1.25 1.14453-4.4375-.82421-.7578-.32032-3.6836-.20312-4.4375-.39844-4.4375-1.67188-2.32422-2.16406-2.11328-4.4375-.0039-.0039-3.42188-4.4375-.82031-4.4375-.19532-.87891-3.39062-3.5586-1.04688-1.66406-3.01172-2.77734 3.01172-4.1211.04688-.3164 4.39062-3.95703L193.86328 396l3.39844-3.58203.61328-.85547-.61328-2.8711-1.36719-1.5664-3.07422-1.6289-3.23047-2.8125-.91015-4.4375.71875-4.4375 1.80469-4.4375-2.82032-3.40626-.26172 3.40625-.0625 4.4375-4.11328 3.45313-3.6836-3.45313-.7539-.8164-3.375-3.6211"/><path fill="#00e8fc" fill-rule="evenodd" d="M179.50781 371.26563l-1.76562-1.89454 1.76562-2.64843 3.51953-1.78907.91797-1.30859v2.48828l-3.89453 3.25781 3.89453 4.06641 2.51953-4.0664-2.51953-3.25782V363.625l.8086 1.3086 2.74609 4.4375-1.23438 4.4375-2.3203 1.94921-2.07813-1.94922-2.35938-2.54296"/><path fill="#00d4fc" fill-rule="evenodd" d="M183.94531 373.4375l-3.89453-4.0664 3.89453-3.25782v1.33594l-2.29687 1.92187 2.29687 2.39844 1.48828-2.39844-1.48828-1.92187v-1.33594l2.51953 3.25781-2.51953 4.06641"/><path fill="#00c4fc" fill-rule="evenodd" d="M183.94531 371.76953l-2.29687-2.39844 2.29687-1.92187v1.33594l-.69922.58593.69922.73047.45313-.73047-.45313-.58593v-1.33594l1.48828 1.92187-1.48828 2.39844"/><path fill="#00b8fc" fill-rule="evenodd" d="M183.94531 370.10156l-.69922-.73047.69922-.58593.45313.58593-.45313.73047"/><path fill="#00e8fc" fill-rule="evenodd" d="M191.66797 409.3164l-2.99219-4.4414.55469-4.4375 3.58984-3.23828L195.4297 396l1.83203-1.92969v3.27735l-4.4414 1.05078-2.25782 2.03906.3086 4.4375 1.94921 2.4961.7539 1.9453.82813 4.4375 2.85938 3.79298.42187.64453 3.60547 4.4375.41016.5039 3.5625 3.9375.875.6211 4.4375.97265 4.4414.70313 2.48829-2.29688 1.44922-4.4414.5-.4922 4.4375-.35937 4.4375-1.20703 4.4375-2.28515.04296-.09375-.04297-.04688-3.89843-4.39062-.53906-.48047-4.4375-3.26563-1.29688-.6914-3.14063-2.96094-1.83984-1.48047-2.59766-2.2461-4.4414-1.22656-4.4375-.92968-.10156-.03516-4.33594-2.29297-4.4375-.79687v-3.27735l1.80078-2.50781 2.63672-2.90625v2.1836l-.65625.72265.65625.88281.83594-.88281-.83594-.72266v-2.18359l3.35937 2.90625-3.35937 3.5664-1.40625.8711 1.40625.52734 4.4375.8711 2.74219 3.03906 1.6953.36328 4.44142.66797 3.9375 3.40625.5.40234 4.28515 4.03907.15234.07812 4.4375 1.82031 2.83985 2.53907 1.59766 1.80078 2.48437 2.63672-1.375 4.4375-1.10938.80468-3.5-.80468-.9375-.09375-.89843.09375-3.53906.97265-4.4375 1.98438-.47657 1.48437-3.96094 3.65625-4.4414-.41015-4.4375-.6172-3.67969-2.6289-.75781-.83984-2.92969-3.60156-1.50781-2.5625-1.44922-1.875-2.27734-4.4375-.71485-3.23047-1.15234-1.20703m.85937-26.63282l-3.17968-4.4375 3.47265-4.1328v1.32421l-2.36328 2.8086 2.36328 3.07812 4.4414 1.15625 4.39063-4.23438-4.39062-2.68359-4.4414-.125v-1.32422l4.4414.47656 4.4375 1.46875 2.45703 2.1875-2.45703 3.14063-1.40625 1.29687-3.03125 2.96875-4.4414-2.71093-.29298-.25782"/><path fill="#00d4fc" fill-rule="evenodd" d="M192.82031 381.32422l-2.36328-3.07813 2.36328-2.80859 4.4414.125v.96875l-4.4414.22656-1.25 1.48828 1.25 1.62891 4.4414 1.07813 2.8047-2.70704-2.8047-1.71484v-.96875l4.39063 2.6836-4.39062 4.23437-4.4414-1.15625m-1.94923 23.55078l-.30859-4.4375 2.25781-2.03906v1.20312l-.92578.83594.92578 3.82422 3.0586-3.82422-3.0586-.83594v-1.20312l4.4414-1.05078v5.29296l-1.94921 2.23438 1.94922.75781 4.4375 1.22266.6289-1.98047-.6289-1.49219-4.4375-.74219v-5.29296l4.4375.79687v1.61719l-2.53516.67578 2.53516.8711 1.5 3.5664-1.24219 4.4414-.25781 1.58594-.1875-1.58593-4.25-2.59766-2.60156 2.59766.60937 4.4375 1.99219 2.64062 1.17969 1.79688 3.2578 3.71484 1.27735.72266 3.16016 3.33593 4.4375 1.07032.21094.03515 4.23047.9375 1.01562-.9375 1.52734-4.4414 1.89453-1.875 4.4375-.02344 4.4375-2.1289.77735-.41016-.77734-.94922-.57813-3.48828-3.85938-3.13282-2.4453-1.30468-1.9922-1.87891-3.17968-2.5625-1.25781-1.08594-4.44141-1.78125-4.4375-.52734-3.15625-1.04297-1.28125-.67578v-1.61719l4.33594 2.29297.10156.03516 4.4375.92968 4.4414 1.22657 2.59766 2.24609 1.83984 1.48047 3.14063 2.96094 1.29688.6914 4.4375 3.26563.53906.48047 3.89844 4.39062.04296.04688-.04297.09375-4.4375 2.28515-4.4375 1.20703-4.4375.35938-.5.49219-1.44921 4.4414-2.48828 2.29688-4.44141-.70313-4.4375-.97265-.875-.6211-3.5625-3.9375-.41016-.5039-3.60547-4.4375-.42187-.64454-2.85938-3.79296-.82812-4.4375-.7539-1.94532-1.94923-2.49609"/><path fill="#00c4fc" fill-rule="evenodd" d="M192.82031 379.875l-1.25-1.6289 1.25-1.48829 4.4414-.22656V377.5l-4.4414.58203-.13672.16406.13672.1836 4.4414.99219 1.21485-1.17579-1.21484-.74609v-.96875l2.80469 1.71484-2.8047 2.70704-4.4414-1.07813m0 24.38672l-.92578-3.82422.92578-.83594 3.0586.83594-3.0586 3.82422"/><path fill="#00b8fc" fill-rule="evenodd" d="M192.82031 378.42969l-.13672-.1836.13672-.16406 4.4414-.58203 1.21485.7461-1.21484 1.17577-4.4414-.99218"/><path fill="#00c4fc" fill-rule="evenodd" d="M195.26953 413.7539l-.60937-4.4375 2.60156-2.59765 4.25 2.59766.1875 1.58593.25781-1.58593 1.24219-4.44141-1.5-3.5664-2.53516-.8711 2.53516-.67578 1.28125.67578 3.15625 1.04297v1.01172l-2.0625 2.38281.3125 4.4414v4.4375l-2.6875.8711-1.70703-.8711-.25781-4.4375-2.47266-1.51171-1.51563 1.51172.39063 4.4375 1.125 1.49218 1.9336 2.94532 2.5039 2.85546 2.80078 1.58204 1.63672 1.72656 4.4375 1.72265 4.4414-.21484 1.14844-3.23437 3.28906-3.25782 4.4375.3125 2.85157-1.49218.25-4.4375-3.10156-2.51954-3.58985-1.91796-.84766-.80079-4.4375-3.5664-.07421-.07422-4.3672-2.26563-4.4375-.11718v-1.01172l4.4375.52734 4.44142 1.78125 1.2578 1.08594 3.1797 2.5625 1.99218 1.8789 2.44531 1.3047 3.85938 3.1328.57813 3.48829.77734.94922-.77734.41015-4.4375 2.1289-4.4375.02345-1.89454 1.875-1.52734 4.4414-1.01563.9375-4.23046-.9375-.21094-.03515-4.4375-1.07032-3.16016-3.33593-1.27734-.72266-3.25781-3.71484-1.1797-1.79688-1.99218-2.64062"/><path fill="#00e8fc" fill-rule="evenodd" d="M197.26172 402.64063l-1.94922 2.23437 1.94922.75781 4.4375 1.22266.6289-1.98047-.6289-1.49219-4.4375-.74219"/><path fill="#00b8fc" fill-rule="evenodd" d="M196.13672 413.7539l-.39063-4.4375 1.51563-1.51171 2.47266 1.51172.2578 4.4375 1.70704.87109 2.6875-.8711v-4.4375l-.3125-4.4414 2.0625-2.38281 4.4375.11719v.60156l-4.4375.29297-1.1875 1.37109 1.1875 3.67969.34766.76172-.14454 4.4375-.20312.6328-4.4375 1.31642-3.8125-1.94922.07031-4.4375-.69531-.42579-.42578.42579.16797 4.4375.2578.33984 2.69142 4.09766 1.74609 1.99218 4.32422 2.44532.11328.12109 4.4375 2.3711 4.16016-2.4922.28125-.58593 3.93359-3.85156.5039-.03125 1.13672.03125 3.30078.4414.84766-.4414 1.5-4.4375-2.34766-1.90625-4.4375-2.47657-.39062-.05468-4.04688-3.1875-1.23437-1.25391-3.20703-1.66406v-.60156l4.36719 2.26562.07422.07422 4.4375 3.5664.84765.80079 3.58984 1.91796 3.10157 2.51954-.25 4.4375-2.85156 1.49218-4.4375-.3125-3.28907 3.25782-1.14844 3.23437-4.4414.21485-4.4375-1.72266L204.5 422.6289l-2.80078-1.58204-2.5039-2.85546-1.9336-2.94532-1.125-1.49218"/><path fill="#00a8fc" fill-rule="evenodd" d="M197.0039 413.7539l-.16796-4.4375.42578-.42577.69531.42578-.07031 4.4375 3.8125 1.94921 4.4375-1.3164.20312-.63281.14453-4.4375-.34765-.76172-1.1875-3.67969 1.1875-1.3711 4.4375-.29296v.60547l-4.4375.6953-.3164.36329.3164.97656 1.58984 3.46485-.96094 4.4375-.6289 1.96875-4.4375 1.05859-.99219 1.41016.99219 1.1289 4.4375 1.82813 1.6211 1.48047 2.8164 1.53515 2.5625-1.53515 1.8789-3.95704.48829-.48046 3.94922-.25 4.4375-.70704 1.58984-3.48046-1.58984-1.29297-4.4375-2.8711-1.89063-.27343-2.54688-2.00391-2.39843-2.4375-2.04297-1.0586v-.60546l3.20703 1.66406 1.23438 1.2539 4.04687 3.1875.39063.0547 4.4375 2.47656 2.34765 1.90625-1.5 4.4375-.84766.4414-3.30078-.4414-1.13672-.03125-.5039.03125-3.9336 3.85156-.28125.58594-4.16015 2.49218-4.4375-2.37109-.11328-.1211-4.32422-2.4453-1.7461-1.9922-2.6914-4.09765-.25781-.33984"/><path fill="#009800" fill-rule="evenodd" d="M201.69922 419.32031l-.99219-1.1289.99219-1.41016 4.4375-1.0586.6289-1.96874.96094-4.4375-1.58984-3.46485-.3164-.97656.3164-.36328 4.4375-.69531v.60156l-2.41016.45703.80469 4.4414-1.77344 4.4375-1.0586 3.3047-4.4375.80077-.23437.33204.23438.26562 4.4375 1.09375 3.3789 3.07813 1.0586.57812.96484-.57812 2.1914-4.4375 1.28517-.14063 4.4375-.32812 4.4375-2.14063.83593-1.82812-.83594-.6797-4.4375-3.26562-3.39453-.49218-1.04297-.82422-3.55859-3.61719-.88281-.45703v-.60156l2.04297 1.05859 2.39844 2.4375 2.54687 2.0039 1.89063.27344 4.4375 2.8711 1.58984 1.29297-1.58984 3.48046-4.4375.70704-3.94922.25-.48828.48046-1.87891 3.95704-2.5625 1.53515-2.8164-1.53515-1.6211-1.48047-4.4375-1.82813"/><path fill="#00d4fc" fill-rule="evenodd" d="M201.69922 392.44531l-.65625-.88281.65625-.72266.83594.72266-.83594.88281"/><path fill="#00ac00" fill-rule="evenodd" d="M201.69922 418.45703l-.23438-.26562.23438-.33204 4.4375-.80078 1.0586-3.30468 1.77343-4.4375-.80469-4.44141 2.41016-.45703v2.46484l-.36328 2.4336-2.58985 4.4375-.94922 4.4375 3.90235 3.26953 1.65625-3.26953 2.78516-.3086 4.4375-.3789 4.4375-3.57813.07812-.17187-.07813-.06641-4.4375-3.66406-4.4375-.65625-2.26171-.05078-2.1797-2.4336v-2.46484l.88282.45703 3.5586 3.61719 1.04296.82422 3.39453.49218 4.4375 3.26563.83594.67969-.83594 1.82812-4.4375 2.14063-4.4375.32812-1.28515.14063-2.1914 4.4375-.96485.57812-1.0586-.57812-3.3789-3.07813-4.4375-1.09375"/><path fill="#00c800" fill-rule="evenodd" d="M210.57422 421.46094l-3.90234-3.26953.94921-4.4375 2.58985-4.4375.36328-2.4336 2.17969 2.4336 2.26172.05078v.35547l-4.44141.73828-2.09766 3.29297 2.09766 3.7539 4.4414.04297 4.4375-.48437 3.94532-3.3125-3.94531-3.29297-4.4375-.73828v-.35547l4.4375.65625 4.4375 3.66406.07812.0664-.07813.17188-4.4375 3.57813-4.4375.3789-2.78515.3086-1.65625 3.26953"/><path fill="#10cc00" fill-rule="evenodd" d="M210.57422 417.50781l-2.09766-3.7539 2.09766-3.29297 4.4414-.73828v.35156l-4.4414 1.72656-1.2461 1.95313 1.2461 2.22656 4.4414 1.23828 4.4375-.58984 3.42188-2.875-3.42188-2.85938-4.4375-.82031v-.35156l4.4375.73828 3.94532 3.29297-3.94531 3.3125-4.4375.48437-4.44141-.04297"/><path fill="#24d000" fill-rule="evenodd" d="M210.57422 415.98047l-1.2461-2.22656 1.2461-1.95313 4.4414-1.72656v.35547l-4.4414 2.71094-.39063.61328.39063.69921 4.4414 2.4336 4.4375-.69531 2.90235-2.4375-2.90234-2.42579-4.4375-.89843v-.35547l4.4375.82031 3.42187 2.85938-3.42188 2.875-4.4375.58984-4.4414-1.23828"/><path fill="#3cd800" fill-rule="evenodd" d="M210.57422 414.45313l-.39063-.69922.39063-.61329 4.4414-2.71093v.35156l-4.17187 2.97266 4.17188 2.79687 4.4375-.79687 2.3828-2-2.3828-1.98829-4.4375-.98437v-.35156l4.4375.89844 2.90234 2.42578-2.90234 2.4375-4.4375.6953-4.44141-2.43358"/><path fill="#54dc00" fill-rule="evenodd" d="M215.01563 416.55078l-4.17188-2.79687 4.17188-2.97266v.35156l-3.67579 2.6211 3.67578 2.46484 4.4375-.90234 1.85938-1.5625-1.85938-1.5547-4.4375-1.0664v-.35156l4.4375.98438 2.38282 1.98828-2.38281 2-4.4375.79687"/><path fill="#e8e05c" fill-rule="evenodd" d="M215.01563 416.21875l-3.67579-2.46484 3.67578-2.6211v.35547l-3.17968 2.26563 3.17969 2.1328 4.4375-1.0078 1.33984-1.125-1.33984-1.1211-4.4375-1.14453v-.35547l4.4375 1.0664 1.85937 1.5547-1.85938 1.5625-4.4375.90234"/><path fill="#e8d450" fill-rule="evenodd" d="M215.01563 415.88672l-3.1797-2.13281 3.1797-2.26563v.70703l-2.19141 1.5586 2.1914 1.46875 4.4375-1.21875.29688-.25-.29688-.25-4.4375-1.3086v-.70703l4.4375 1.14453 1.33985 1.1211-1.33984 1.125-4.4375 1.0078"/><path fill="#e8b830" fill-rule="evenodd" d="M215.01563 415.22266l-2.19141-1.46875 2.1914-1.5586v.70313l-1.19921.85547 1.19922.80468 2.78906-.80468-2.78906-.85547v-.70313l4.4375 1.3086.29687.25-.29688.25-4.4375 1.21875"/><path fill="#e8a824" fill-rule="evenodd" d="M215.01563 414.5586l-1.19922-.8047 1.19922-.85546v.70703l-.20704.14844.20703.13671.47657-.13671-.47656-.14844v-.70703l2.78906.85547-2.78906.80468"/><path fill="#d87c08" fill-rule="evenodd" d="M215.01563 413.89063l-.20704-.13672.20703-.14844.47657.14844-.47656.13671"/><path fill="#50fcfc" fill-rule="evenodd" d="M232.76563 394.70703l-3.30079-3.14453 3.30078-3.07031v2.16797l-.96875.90234.96875.92188 1.01172-.92188-1.01172-.90234v-2.16797l3.4375 3.07031-3.4375 3.14453"/><path fill="#00e8fc" fill-rule="evenodd" d="M232.76563 392.48438l-.96875-.92188.96875-.90234 1.01171.90234-1.01172.92188"/><path fill="#50fcfc" fill-rule="evenodd" d="M250.51953 384.17188l-1.47266-1.48829 1.47266-1.61328 2.76172 1.61328-2.76172 1.48829m0 34.8828l-.95703-.86327.95703-1.66016 4.4375.3164 2.01563 1.34376-2.01563 1.29296-4.4375-.42968m22.1914-62.42578l-.39062-.57422.39063-.42969 1.39062.42969-1.39062.57422m8.8789-1.9375l-4.15625-3.07422 4.15625-4.17188.6836-.26562 3.7539-2.11328v3.13671l-4.4375 2.69532-.71484.71875.71484.52734 4.4375 2.46875 2.39063-2.9961-2.39063-3.41406v-3.13671l1.72266 2.11328 1.91016 4.4375-3.1211 4.4375-.51172.46094-.55468-.46094-3.88282-1.36328"/><path fill="#00e8fc" fill-rule="evenodd" d="M281.58984 352.14453l-.71484-.52734.71484-.71875 4.4375-2.69531v2.95703l-.66406.45703.66406.39844.31641-.39844-.3164-.45703v-2.95704l2.39062 3.41407-2.39063 2.9961-4.4375-2.46876"/><path fill="#00d4fc" fill-rule="evenodd" d="M286.02734 352.01563l-.66406-.39844.66406-.45703.31641.45703-.3164.39844"/><path fill="#50fcfc" fill-rule="evenodd" d="M294.90234 374.48828l-1.96093-.67969 1.96093-1.92578 1.10938 1.92578-1.10938.6797m8.87891-21.16407l-1.08984-1.70703 1.08984-2.15235.52344-2.28515 3.91406-3.49219v2.13281l-1.51953 1.35938 1.51953 2.0664 1.91797-2.0664-1.91797-1.35938v-2.13281l4.4375 2.02734 4.4414-.11718 2.625 1.58203-2.625.6875-4.4414 1.03906-2.16406 2.71094-2.27344 1.58594-4.4375.12109"/><path fill="#00e8fc" fill-rule="evenodd" d="M308.21875 349.2461l-1.51953-2.06641 1.51953-1.35938 1.91797 1.35938-1.91797 2.0664"/><path fill="#50fcfc" fill-rule="evenodd" d="M325.97266 335.36719l-1.63282-1.5039 1.63282-2.625 3.67578 2.625-3.67578 1.5039m.78906 122.76953l-.07422-4.4375 3.72266-3.61328 1.0625-.82422 3.375-3.21094v2.48828l-.75782.72266-3.67968 2.86719-1.6172 1.5703 1.6172 3.48829 1.33593.94922 3.10157 1.15234 4.4414 2.38672 1.03125.89844 3.40625 1.83984 4.4375-.42578 3.35547-1.41406-3.35547-3.83985-.64453-.59765-3.79297-2.26563-1.99219-2.17187-2.30468-4.4375-.14063-.17578-4.4414-.54688v-2.48828l4.4414-.46484 2.9961 3.67578 1.4414 2.49219 2.23438 1.9453 2.20312 1.34376 4.4375 1.01953 4.4414.04297 4.4375.11719 4.4375.13671 4.4375-.8203 1.42188-1.83985-1.42187-3.15235-1.23047-1.28515-3.20703-1.08594-4.03516 1.08594-.40234.42578-.8125-.42578-3.625-1.1211-2.78906-3.3203 2.78906-2.46485 4.4375-.04297 4.4375-.79297 1.01172-1.13672 3.42578-3.49219v1.5547l-1.90235 1.9375-2.53515 2.84374-3.88672 1.59375 3.88672 1.625 4.4375.79688 4.4375-.01172 2.5-2.41016-2.5-2.41015-2.53516-2.02735-1.90234-1.9375v-1.55469l3.42578 3.4922 1.01172.80859 3.76172 3.6289-3.76172 3.6289-3.26172.8125 3.26172 1.54298 4.4414-1.39063v1.92188l-4.4414 1.78906-.59766.57422-3.21484 4.4375-.625.71484-4.4375 2.24219-4.4375 1.35156-.8711.1289.8711.05079 4.4375.77734 4.4375.92579 4.4375.11328 4.4414.65625 2.19922-2.52344.03125-4.4375 2.20704-4.25.19921-.1875-.19921-.19922-4.4375-2.16406v-1.92188l4.4375 1.41016 2.92187 2.875-2.92188 2.7461-.8789 1.6914.00781 4.4375-3.5664 4.08984-4.44141-.40625-4.4375.0586-4.4375-.14844-4.4375-.58594-4.4375.15235-4.4414.0703-4.4375.23048-4.4375.05078-4.4375-1.1836-2.8125-2.32812-1.62891-.91406-4.4375-1.06641-3.64844-2.45703"/><path fill="#00e8fc" fill-rule="evenodd" d="M330.41016 457.1875l-1.6172-3.48828 1.6172-1.57031 3.67968-2.8672.75782-.72265 4.4414.54688.14063.17578 2.30469 4.4375 1.99218 2.17187 3.79297 2.26563.64453.59765 3.35547 3.83985-3.35547 1.41406-4.4375.42578-3.40625-1.83984-1.03125-.89844-4.4414-2.38672-3.10157-1.15234-1.33593-.94922"/><path fill="#50fcfc" fill-rule="evenodd" d="M339.28906 330.6914l-1.6914-1.26562 1.6914-1.16797 4.4375-2.60547 3.48828 3.77344-3.02343 4.4375-.46485.27735-.14453-.27735-4.29297-3.17187m8.875 110.70312l-1.0664-1.01172 1.0664-1.0039 1.0039 1.0039-1.0039 1.01172"/><path fill="#00e8fc" fill-rule="evenodd" d="M361.48047 462.625l-.8711-.05078.8711-.1289 4.4375-1.35157 4.4375-2.24219.625-.71484 3.21484-4.4375.59766-.57422 4.4414-1.78906v6.6914l-.07812.10938.07813.7461.01171-.7461-.01171-.10938v-6.6914l4.4375 2.16406.19921.19922-.19921.1875-2.20704 4.25-.03125 4.4375-2.19921 2.52344-4.44141-.65625-4.4375-.11329-4.4375-.92578-4.4375-.77734m4.4375-16.17969l-3.88672-1.625 3.88672-1.59375 2.53515-2.84375 1.90235-1.9375 1.90234 1.9375 2.53516 2.02735v2.03125l-1.30078.3789 1.30078.38281.39453-.3828-.39453-.37891v-2.03125l2.5 2.41015-2.5 2.41016-4.4375.01172-4.4375-.79688"/><path fill="#00d4fc" fill-rule="evenodd" d="M374.79297 445.20313l-1.30078-.38282 1.30078-.3789.39453.3789-.39453.38281m4.4414 13.6797l-.07812-.7461.07813-.10938.01171.10938-.01171.7461"/><path fill="#50fcfc" fill-rule="evenodd" d="M396.98438 397.73047L395.2578 396l1.72656-1.73047L399.54298 396l-2.5586 1.73047m0 31.76562l-.79687-2.42578.79688-.72656.90234.72656 3.53906.98828 4.4375-.3203v1.22265l-4.4375 1.4961-1.27734 1.05077 1.27734 2.67578.375 1.76172 2.85938 4.4375 1.20312.91406 2.27735-.91406 2.16015-.63672 2.33985-3.80078-2.33985-2.35937-1.89844-2.07813-2.53906-2.54687v-1.22266l3.75781 3.76953.6797.74219 3.66405 3.69531.77344 1.72656 3.23828 2.71094 1.20313 2.96485 1.44922 1.47265-1.44922.91406-1.10547-.91406-3.33594-1.58984-4.4375-.4961-4.4375 1.47657-1.22656.60937-2.08594 4.4414-1.125 1.50782-1.51172-1.50781-.6914-4.4414 1.20703-4.4375-1.58203-4.4375-1.60938-4.4375-.2539-2.01173"/><path fill="#00e8fc" fill-rule="evenodd" d="M401.42578 434.1836l-1.27734-2.67579 1.27734-1.05078 4.4375-1.4961V431l-1.11719.50781-.78515 4.4375 1.90234 2.30469 4.4375-2.09375.1289-.21094-.1289-.13281-3.9336-4.30469-.5039-.50781v-2.03906l2.53906 2.54687 1.89844 2.07813 2.33985 2.35937-2.33985 3.80078-2.16015.63672-2.27735.91406-1.20312-.91406-2.85938-4.4375-.375-1.76172"/><path fill="#00d4fc" fill-rule="evenodd" d="M405.86328 438.25l-1.90234-2.30469.78515-4.4375L405.8633 431l.5039.50781 3.9336 4.30469.1289.13281-.1289.21094-4.4375 2.09375"/><path fill="#50fcfc" fill-rule="evenodd" d="M412.65625 400.4375L411.91797 396l2.82031-2.73047v2.65235l-.07812.07812.07812.25.11719-.25-.11719-.07813v-2.65234L418.83984 396l-2.10937 4.4375-1.01172 4.4375 3.46094 1.52734 2.34375-1.52734.20312-4.4375L419.21875 396l4.39844-4.29297v.45703L419.68359 396l3.9336 4.17578L427.47266 396l-3.85547-3.83594v-.45703L427.92579 396l-2.46095 4.4375 2.58985 1.85938 4.4375.53906 3.71875-2.39844.71875-.71875 4.4414-2.85547v1.92969l-2.19921 1.64453-1.94922 4.4375-.29297.14844-4.4375 1.65625-4.4375-1.41797-4.4375.6836-4.4375 3.1875-.42578.18359.42578.41406 2.6914 4.02344-.89062 4.4375 2.63672 2.53125 4.4375.51171 4.4375-.57812 4.20703-2.46484.23047-.1797 4.4414-2.59765 1.7422-1.66015 1.63671-4.4375-1.60938-4.44141-.26562-4.4375-1.5039-1.64453v-1.92969l3.26171 3.57422.16016 4.4375 1.01562 2.20703 2.17579 2.23438-2.17579 2.52734-.86328 1.91016-3.57422 3.41015-1.76953 1.02735-2.67187 2.53125-4.4375 1.125-4.4375.5039-1.13281.27735-3.3047 2.3164-2.45702-2.3164-1.98047-1.94141-2.48047-2.4961.92578-4.4375-2.88672-2.84765-1.58984-1.58984.3711-4.44141-.86329-4.4375"/><path fill="#00e8fc" fill-rule="evenodd" d="M414.73828 396.25l-.07812-.25.07812-.07813.11719.07813-.11719.25m4.4414 13.48047l-.42577-.41406.42578-.1836 4.4375-3.1875 4.4375-.6836 4.4375 1.41798 4.4375-1.65625v3.24219l-1.52344 1.05078-2.91406 1.96875-4.4375.14843-1.71875 2.32032-.26953 4.4375 1.98828 1.18359 4.4375-.70703.8125-.47656 3.625-2.81641 2.61719-1.6211-.21485-4.4375-2.40234-1.05077v-3.2422l.29297-.14843 1.94921-4.4375 2.19922-1.64453 1.50391 1.64453.26563 4.4375 1.60937 4.4414-1.63672 4.4375-1.74219 1.66016-4.4414 2.59766-.23047.17969-4.20703 2.46484-4.4375.57813-4.4375-.51172-2.63672-2.53125.89062-4.4375-2.6914-4.02344m4.4375-9.55469L419.68359 396l3.9336-3.83594v.75781L420.46094 396l3.15625 3.35156L426.70703 396l-3.08984-3.07813v-.7578L427.47266 396l-3.85547 4.17578"/><path fill="#00d4fc" fill-rule="evenodd" d="M423.61719 399.35156L420.46094 396l3.15625-3.07813v.75782L421.23829 396l2.3789 2.52344L425.9453 396l-2.32812-2.32031v-.75781L426.70703 396l-3.08984 3.35156"/><path fill="#00c4fc" fill-rule="evenodd" d="M423.61719 398.52344L421.23829 396l2.3789-2.32031v.75781L422.01563 396l1.60156 1.69922L425.18359 396l-1.5664-1.5625v-.75781L425.9453 396l-2.32812 2.52344"/><path fill="#00b8fc" fill-rule="evenodd" d="M423.61719 397.69922L422.01563 396l1.60156-1.5625v.75781l-.82422.80469.82422.875.80469-.875-.8047-.80469v-.75781L425.1836 396l-1.5664 1.69922"/><path fill="#00a8fc" fill-rule="evenodd" d="M423.61719 396.875l-.82422-.875.82422-.80469v.75781L423.5703 396l.04688.05078.04297-.05078-.04297-.04688v-.7578l.80469.80468-.8047.875"/><path fill="#009800" fill-rule="evenodd" d="M423.61719 396.05078L423.5703 396l.04688-.04688.04297.04688-.04297.05078"/><path fill="#00d4fc" fill-rule="evenodd" d="M428.05469 419.375l-1.98828-1.1836.26953-4.4375 1.71875-2.3203 4.4375-.14844 2.91406-1.96875 1.52344-1.05079 2.40234 1.05079.21485 4.4375-2.6172 1.62109-3.625 2.8164-.8125.47657-4.4375.70703"/><path fill="#50fcfc" fill-rule="evenodd" d="M450.2461 430.42188l-2.1797-3.35157 2.1797-2.15625 2.20702 2.15625-2.20703 3.35156"/><g clip-path="url(#c)"><path fill="#fff" fill-opacity="0" fill-rule="evenodd" d="M467.9961 480.32813H468V311.67188h-.0039H468v168.65625h-.0039"/></g><path fill="#fff" fill-opacity="0" fill-rule="evenodd" d="M385.64844 462.24219l3.52344-4.66016-7.94532-6.00781-3.52344 4.65625 7.94532 6.01172"/><path fill-rule="evenodd" d="M381.27734 454.54688l.3086-.40625 5.01953 3.80078-.47656.625-3.57813-2.70704-.83984 1.10547-.4414-.33593.28515-.48438.10937-.23437.0664-.23438.01173-.25-.0625-.26562-.15235-.28907-.25-.32421"/><path fill="#fff" fill-opacity="0" fill-rule="evenodd" d="M186.83203 369.10547l4.19922 4.0586L197.95313 366l-4.20313-4.0586-6.91797 7.16407"/><path fill-rule="evenodd" d="M194.9961 365.6914l.36327.35548-4.37109 4.52734-.5664-.54688 3.11718-3.23046-.9961-.96485.38282-.39844.44922.33985.21875.13672.22656.09765.2461.03906.26953-.03125.3086-.11328.35155-.21093"/><path fill="#fff" fill-opacity="0" fill-rule="evenodd" d="M430.03125 427.45703l5.7461-1.05078-1.78907-9.79688-5.7461 1.04688 1.78907 9.80078"/><path fill-rule="evenodd" d="M432.01172 418.83203l.5-.08984 1.13281 6.1914-.77344.14063-.80859-4.41797-1.36328.25-.10156-.54688.53906-.16406.23828-.09765.21094-.12891.17187-.17578.13672-.23828.08594-.3164.03125-.40626"/><g clip-path="url(#d)"><path fill="none" stroke="#000" stroke-linecap="round" stroke-linejoin="round" stroke-miterlimit="10" stroke-width=".5" d="M146.53516 482.76172l-5.07032-4.86719"/></g><g clip-path="url(#e)"><path fill="none" stroke="#000" stroke-linecap="round" stroke-linejoin="round" stroke-miterlimit="10" stroke-width=".5" d="M159.92969 482.67578l-5.22656-4.69531"/></g><g clip-path="url(#f)"><path fill="none" stroke="#000" stroke-linecap="round" stroke-linejoin="round" stroke-miterlimit="10" stroke-width=".5" d="M173.17578 482.75l-5.09375-4.84375"/></g><g clip-path="url(#g)"><path fill="none" stroke="#000" stroke-linecap="round" stroke-linejoin="round" stroke-miterlimit="10" stroke-width=".5" d="M186.95703 482.13672l-6.02344-3.61719"/></g><g clip-path="url(#h)"><path fill="none" stroke="#000" stroke-linecap="round" stroke-linejoin="round" stroke-miterlimit="10" stroke-width=".5" d="M200.53125 481.61328l-6.54297-2.5664"/></g><g clip-path="url(#i)"><path fill="none" stroke="#000" stroke-linecap="round" stroke-linejoin="round" stroke-miterlimit="10" stroke-width=".5" d="M213.72656 481.88281l-6.30469-3.10547"/></g><g clip-path="url(#j)"><path fill="none" stroke="#000" stroke-linecap="round" stroke-linejoin="round" stroke-miterlimit="10" stroke-width=".5" d="M227.08984 481.77734l-6.39843-2.89843"/></g><g clip-path="url(#k)"><path fill="none" stroke="#000" stroke-linecap="round" stroke-linejoin="round" stroke-miterlimit="10" stroke-width=".5" d="M240.4375 481.70313l-6.46484-2.75"/></g><g clip-path="url(#l)"><path fill="none" stroke="#000" stroke-linecap="round" stroke-linejoin="round" stroke-miterlimit="10" stroke-width=".5" d="M253.8125 481.55469l-6.58594-2.44922"/></g><g clip-path="url(#m)"><path fill="none" stroke="#000" stroke-linecap="round" stroke-linejoin="round" stroke-miterlimit="10" stroke-width=".5" d="M267.34766 480.28125l-7.02344.09375"/></g><g clip-path="url(#n)"><path fill="none" stroke="#000" stroke-linecap="round" stroke-linejoin="round" stroke-miterlimit="10" stroke-width=".5" d="M267.34766 480.28125l1.17968 2.15234"/></g><g clip-path="url(#o)"><path fill="none" stroke="#000" stroke-linecap="round" stroke-linejoin="round" stroke-miterlimit="10" stroke-width=".5" d="M280.65234 480.03906l-7.0039.57813"/></g><g clip-path="url(#p)"><path fill="none" stroke="#000" stroke-linecap="round" stroke-linejoin="round" stroke-miterlimit="10" stroke-width=".5" d="M280.65234 480.03906l1.32422 2.0664"/></g><g clip-path="url(#q)"><path fill="none" stroke="#000" stroke-linecap="round" stroke-linejoin="round" stroke-miterlimit="10" stroke-width=".5" d="M293.97656 480.21094l-7.02344.23437"/></g><g clip-path="url(#r)"><path fill="none" stroke="#000" stroke-linecap="round" stroke-linejoin="round" stroke-miterlimit="10" stroke-width=".5" d="M293.97656 480.21094l1.22266 2.125"/></g><g clip-path="url(#s)"><path fill="none" stroke="#000" stroke-linecap="round" stroke-linejoin="round" stroke-miterlimit="10" stroke-width=".5" d="M307.28516 480.5586l-7.01172-.46094"/></g><g clip-path="url(#t)"><path fill="none" stroke="#000" stroke-linecap="round" stroke-linejoin="round" stroke-miterlimit="10" stroke-width=".5" d="M307.28516 480.5586l1.0078 2.23827"/></g><g clip-path="url(#u)"><path fill="none" stroke="#000" stroke-linecap="round" stroke-linejoin="round" stroke-miterlimit="10" stroke-width=".5" d="M320.60156 480.1211l-7.01172.41406"/></g><g clip-path="url(#v)"><path fill="none" stroke="#000" stroke-linecap="round" stroke-linejoin="round" stroke-miterlimit="10" stroke-width=".5" d="M320.60156 480.1211l1.28125 2.09374"/></g><g clip-path="url(#w)"><path fill="none" stroke="#000" stroke-linecap="round" stroke-linejoin="round" stroke-miterlimit="10" stroke-width=".5" d="M333.8086 479.42969l-6.79298 1.79687"/></g><g clip-path="url(#x)"><path fill="none" stroke="#000" stroke-linecap="round" stroke-linejoin="round" stroke-miterlimit="10" stroke-width=".5" d="M332.82031 479.6914l.83203.90235"/></g><g clip-path="url(#y)"><path fill="none" stroke="#000" stroke-linecap="round" stroke-linejoin="round" stroke-miterlimit="10" stroke-width=".5" d="M347.10547 479.36719l-6.75781 1.92187"/></g><g clip-path="url(#z)"><path fill="none" stroke="#000" stroke-linecap="round" stroke-linejoin="round" stroke-miterlimit="10" stroke-width=".5" d="M346.1211 479.64844l.85156.88281"/></g><g clip-path="url(#A)"><path fill="none" stroke="#000" stroke-linecap="round" stroke-linejoin="round" stroke-miterlimit="10" stroke-width=".5" d="M360.21484 478.82422l-6.34765 3.00781"/></g><g clip-path="url(#B)"><path fill="none" stroke="#000" stroke-linecap="round" stroke-linejoin="round" stroke-miterlimit="10" stroke-width=".5" d="M359.29297 479.26172l.98437.73437"/></g><g clip-path="url(#C)"><path fill="none" stroke="#000" stroke-linecap="round" stroke-linejoin="round" stroke-miterlimit="10" stroke-width=".5" d="M373.42578 478.61719l-6.13672 3.42187"/></g><g clip-path="url(#D)"><path fill="none" stroke="#000" stroke-linecap="round" stroke-linejoin="round" stroke-miterlimit="10" stroke-width=".5" d="M373.42578 478.61719l2.0586 1.33203"/></g><g clip-path="url(#E)"><path fill="none" stroke="#000" stroke-linecap="round" stroke-linejoin="round" stroke-miterlimit="10" stroke-width=".5" d="M386.30469 478l-5.26563 4.65625"/></g><path fill="none" stroke="#000" stroke-linecap="round" stroke-linejoin="round" stroke-miterlimit="10" stroke-width=".5" d="M385.53906 478.67969l1.14844.42969"/><g clip-path="url(#F)"><path fill="none" stroke="#000" stroke-linecap="round" stroke-linejoin="round" stroke-miterlimit="10" stroke-width=".5" d="M400.42188 479.60156l-6.875 1.45313"/></g><g clip-path="url(#G)"><path fill="none" stroke="#000" stroke-linecap="round" stroke-linejoin="round" stroke-miterlimit="10" stroke-width=".5" d="M399.42188 479.8125l.78906.9414"/></g><g clip-path="url(#H)"><path fill="none" stroke="#000" stroke-linecap="round" stroke-linejoin="round" stroke-miterlimit="10" stroke-width=".5" d="M413.13281 482.41016l-5.66015-4.16407"/></g><g clip-path="url(#I)"><path fill="none" stroke="#000" stroke-linecap="round" stroke-linejoin="round" stroke-miterlimit="10" stroke-width=".5" d="M426.4414 482.41406l-5.65234-4.17187"/></g><g clip-path="url(#J)"><path fill="none" stroke="#000" stroke-linecap="round" stroke-linejoin="round" stroke-miterlimit="10" stroke-width=".5" d="M440.07422 481.89844l-6.28516-3.14063"/></g><g clip-path="url(#K)"><path fill="none" stroke="#000" stroke-linecap="round" stroke-linejoin="round" stroke-miterlimit="10" stroke-width=".5" d="M453.55469 481.51172l-6.61719-2.36719"/></g><g clip-path="url(#L)"><path fill="none" stroke="#000" stroke-linecap="round" stroke-linejoin="round" stroke-miterlimit="10" stroke-width=".5" d="M452.59375 481.16797l.17578 1.21484"/></g><g clip-path="url(#M)"><path fill="none" stroke="#000" stroke-linecap="round" stroke-linejoin="round" stroke-miterlimit="10" stroke-width=".5" d="M466.77734 481.75l-6.42968-2.83984"/></g><g clip-path="url(#N)"><path fill="none" stroke="#000" stroke-linecap="round" stroke-linejoin="round" stroke-miterlimit="10" stroke-width=".5" d="M146.61328 469.36328l-5.22656-4.69922"/></g><path fill="none" stroke="#000" stroke-linecap="round" stroke-linejoin="round" stroke-miterlimit="10" stroke-width=".5" d="M146.61328 469.36328l-.59375 2.38281m-.16797-3.0664l-.29687 1.1914m14.6875-.91406l-5.85547-3.88281m5.85547 3.88281l-.23438 2.4414m13.5-2.37109L167.75 465m5.75781 4.02734l-.29687 2.4375M187.3789 467.75l-6.8672-1.47266m5.8672 1.25782l.33593 1.18359m14.0547-1.54297l-7.01954-.32422m6 .27735l.52344 1.10937m13.76562-.6289l-6.92578-1.19141m6.92578 1.1914l.76563 2.33204m12.49219-3.78907l-6.8125 1.72266m6.8125-1.72266l1.64843 1.82032m11.55078-2.1875l-6.58203 2.45703m6.58203-2.45703l1.83594 1.6289m11.53906-1.46093l-6.69922 2.12109m6.69922-2.1211l1.75 1.71485m11.67578-1.26172l-6.92187 1.21484m5.91406-1.03906l.7539.96875m13.59766-.94922l-6.98046.82422m6.98047-.82422l1.39843 2.01563m11.76953-2.6875l-6.68359 2.16797m6.6836-2.16797l1.76171 1.70312m11.35156-2.1914l-6.28515 3.14453m6.28515-3.14453l2 1.42187m10.79688-2.1875l-5.2461 4.67578m4.48048-3.9961l1.15234.42579m12.30469-1.65625l-4 5.77734m3.41796-4.9375l1.21875.14454m11.67579-1.46485l-1.9922 6.73828m1.70313-5.75781l1.20313-.2461m12.42969-.72656l-2.05079 6.72266m1.75-5.7461l1.20704-.23437m12.29296-.77344l-1.8164 6.78516M371 464.60547l1.19531-.27344m12.27344-.74219l-1.59375 6.84766m1.35938-5.85156l1.1875-.3125m11.72265-.76953l-.3164 7.01953m11.3164-.73438l4.3125-5.55078m8.69531.26953l4.92579 5.01172m11.28906-5.99219l-.8711 6.97266m13.47266-6.98828l.55469 7.0039m-.47266-5.98437l1.03516-.66016M465 470.21875l-2.875-6.41016m2.45313 5.48047l-.75.96485"/><g clip-path="url(#O)"><path fill="none" stroke="#000" stroke-linecap="round" stroke-linejoin="round" stroke-miterlimit="10" stroke-width=".5" d="M146.4375 456.23047l-4.875-5.0625"/></g><path fill="none" stroke="#000" stroke-linecap="round" stroke-linejoin="round" stroke-miterlimit="10" stroke-width=".5" d="M146.4375 456.23047l-.76172 2.33203m14.71094-3.16016l-6.14453-3.40625m6.14453 3.40625l-.04297 2.45313m13.78906-3.88281l-7.0039-.54688m5.98437.46484l.49219 1.125m13.85156-1.28125l-7.02344-.0703m6.00391.05859L187 454.8125m13.77344-1.23438l-7.02344.2422m6-.20704l.61328 1.0625m13.66016-1.64844l-6.89844 1.33985m5.89453-1.14453l.77344.95312m13.23047-2.0664l-6.26563 3.17968m5.35547-2.71875l1.0039.70703m12.91016-1.67187l-5.64453 4.1836m5.64453-4.1836l2.21485 1.05469m10.79687-1.41016L248 456.14844m5.03906-4.89844l2.33594.75m11.28906-.38672l-5.65625 4.16797m4.83203-3.5586l1.10938.52735m13.28906-.72656l-6.17578 3.35156m5.27734-2.86328l1.02344.67578m13.60547.2461l-7.00781.53124m5.98828-.45312l.65625 1.03515m13.1914-2.65234l-6.03125 3.60938m5.15235-3.08594l1.05078.63281m12.15625-2.22265l-4.0586 5.73828m3.46876-4.90235l1.21484.15625m7.42188.51953l6.48046 2.71485m-5.53906-2.32031L328 451.51563m14.23438-1l2.98437 6.36328m-2.55078-5.4375l.73828-.98047m11.41797.51172l4.4336 5.44922m-3.78907-4.65625l.47656-1.12891m12.29688.25781l4.23047 5.60938m-3.6172-4.79297l.51954-1.11328m12.38281.15234l3.82422 5.89453m-3.82422-5.89453l1.1914-2.14453m10.57813 4.47656l6.91797 1.23438m-5.91015-1.0547l-.37891-1.16796m12.96484 3.09766l6.35938-2.98438m-5.4336 2.55078l-.98046-.73828m13.04687-.57812l7.00781.51171m-5.98828-.4375l-.4961-1.12109m12.875 2.11328l6.83985-1.61719m-5.84375 1.37891l-.8086-.92187m13.26563 1.60546l6.5625-2.51171m-5.60546 2.14843l-.92579-.80468m13.72657 1.98046l5.67968-4.13671m-4.85546 3.53515l-1.10157-.53515"/><g clip-path="url(#P)"><path fill="none" stroke="#000" stroke-linecap="round" stroke-linejoin="round" stroke-miterlimit="10" stroke-width=".5" d="M147.20703 441.8164l-6.41406-2.86718"/></g><path fill="none" stroke="#000" stroke-linecap="round" stroke-linejoin="round" stroke-miterlimit="10" stroke-width=".5" d="M146.27344 441.39844l.08594 1.22656m14.17187-.83203l-6.4336-2.82031m5.5 2.41015l.08985 1.22266m14.33594-3.13281l-6.78516 1.82421m5.79688-1.55859l.83984.89453m13.48047-1.09765l-6.82031 1.6953m5.82812-1.44921l.82031.91406m13.58985-.3125h-7.02735m6.00391 0l.57813 1.08594m13.44921-2.53125l-6.40234 2.89063m6.40234-2.89063l1.94141 1.5m10.8164-2.36719l-5.28906 4.625m5.28907-4.625l2.29297.8711m10.76562-1.13672l-4.77344 5.15625m4.07813-4.40625l1.1836.3125m13.16015-.70703l-5.4414 4.4453m4.64843-3.79687l1.13281.47266m13.45313-.34766l-6.39844 2.90235m5.46875-2.48047l.97266.75m13.28906-1.14063l-6.42969 2.83594m5.49219-2.42187l.96484.7578m11.82031-2.80077l-3.49609 6.09375m13.3086-6.08985l3.5078 6.08594m9.73048-6.03906l3.66015 5.9961m10.01563-6.19141l2.9414 6.3828m-2.51562-5.45312l.74219-.97656m11.58984.36719l4.05469 5.74219m-3.46485-4.90625l.55469-1.09375m13.48828-.3125l1.41797 6.8828m-1.21094-5.8789l.9414-.78515m12.15626-.21485l1.4375 6.8789m-1.22656-5.8789l.9414-.78515m10.77735.41015l4.21093 5.625m-3.59765-4.8086l.52344-1.10937m10.8789 2.23047l6.8086 1.7539m-5.81641-1.5l-.28906-1.1914m12.80078 3.22656l6.4336-2.82421m-5.5 2.41015l-.96095-.75781m13.17579.70703L427 439.4375m-5.78125 1.61719l-.84766-.88672m13.89454 2.5039l5.33203-4.57421m-4.5586 3.90625l-1.14062-.44532m13.72265 1.16016l5.25391-4.66797m-5.2539 4.66797l-2.30079-.85547m15.4375.63672l5.60547-4.23438M460.75781 442.5l-2.22656-1.03125"/><g clip-path="url(#Q)"><path fill="none" stroke="#000" stroke-linecap="round" stroke-linejoin="round" stroke-miterlimit="10" stroke-width=".5" d="M146.44531 429.58984l-4.89062-5.04297"/></g><path fill="none" stroke="#000" stroke-linecap="round" stroke-linejoin="round" stroke-miterlimit="10" stroke-width=".5" d="M145.73438 428.85547l-.375 1.16797m15.46875-2.90235l-7.02735-.10547m6.0039.08985l.5625 1.09375m13.15235-3.13281l-5.77734 4.0039m4.9375-3.42187l1.08984.5625m13.34766-.65235l-6.34375 3.01953m5.42187-2.58203l.98438.73047m8.39844 3.42578l3.36328-6.16797m13.04297 6.3047l-2.81641-6.4375m2.40625 5.5l-.76172.96093m15.54297-5.75l-4.92969 5.01172m4.21094-4.28125l1.17578.34765m11.04688-2.02343l-1.3086 6.90234m1.11719-5.89844l1.17187-.36328m12.1875-.66406l-1.01562 6.95313m.8711-5.94141l1.15234-.41406m10.95703-.53516l1.6875 6.82422m-1.4414-5.82813l.91015-.8203m14.60156.10546l-3.19531 6.26172m16.07422-6.44531l-2.32813 6.6289m12.96485-6.48437l3.03125 6.33984m-2.58985-5.41797l.73047-.98437m10.57813 1.53906l6.16015 3.38672m-5.26172-2.89063l.01563-1.23046m12.8086.14843l5.34374 4.5586m-4.5664-3.89453l.26562-1.19922m12.08594.77343l5.71875 4.08204m-4.88672-3.48829l.16015-1.21484m17.6797.1914l-4.9961 4.94141m4.26953-4.22265l1.17188.36328m11.41406-1.96875l-2.08203 6.71484m1.77734-5.73828l1.20703-.22656m8.11719 3.9336l6.50781-2.65235m9.20313 4.73437l1.71484-6.8164m10.1211 6.03125l4.67187-5.2461m-3.99219 4.48438l-1.1914-.29297m18.83593.71484l-5.34375-4.5664m4.5664 3.90234l-.26562 1.19531m14.94532-1.5039l-6.51954-2.6211m5.57032 2.23828l.13281 1.22266m12.51172.95703l-3.28125-6.21484m12.4336 5.55469l5.04296-4.89454m-5.04297 4.89454l-2.33594-.75391"/><g clip-path="url(#R)"><path fill="none" stroke="#000" stroke-linecap="round" stroke-linejoin="round" stroke-miterlimit="10" stroke-width=".5" d="M145.23047 417.04297l-2.46094-6.58203"/></g><g clip-path="url(#S)"><path fill="none" stroke="#000" stroke-linecap="round" stroke-linejoin="round" stroke-miterlimit="10" stroke-width=".5" d="M144.875 416.08594l-.8164.91797"/></g><path fill="none" stroke="#000" stroke-linecap="round" stroke-linejoin="round" stroke-miterlimit="10" stroke-width=".5" d="M158.86328 410.59766l-3.09766 6.30859m16.00782-6.47266l-2.28906 6.64063m1.95703-5.67578l1.21093-.1914m12.21094-.84376l-1.83594 6.78125m1.56641-5.79687l1.19531-.27344m8.8164.3789l5.3125 4.60157m-4.54296-3.9336l.27734-1.1953m11.62891 1.60546l6.58594 2.44531m-5.6289-2.08984l-.16017-1.21485m12.62891 3.57032l6.36719-2.97657m-5.4414 2.54297l-.98048-.73828m13.19922.72656l6.71094-2.08593m-5.73438 1.78125l-.875-.86328m13.0547.11718l7.02734.01563m-6.00391-.01172l-.57422-1.08594m13.03516.00781l6.6875 2.16407m-5.71485-1.84766l-.21484-1.21094m12.41797 2.45313l6.96484-.95313m-5.94922.8125l-.71875-.99609m16.9922-2.82031l-.98048 6.96093m15.25781-6.67968l-2.90625 6.39843m2.48438-5.46875l1.22266-.07421m10.29687-1.08594l1.52734 6.85937m-1.30468-5.86328l.92968-.79687m13.89844-.14844l-1.9414 6.7539m17.16406-5.38671l-5.76172 4.02343m4.92578-3.4375l1.08984.5586m13.6836.59375l-7.0039.54687m5.98437-.46875l.66015 1.03516m13.47657-2.03125l-6.60938 2.38281m5.64844-2.03906l.91015.82422m13.10157-1.73828l-6.08203 3.52343m18.15234-4.78125l-3.58984 6.03907m12.60937-5.48828l5.0039 4.93359m13.59766-.32422l-5.57422-4.28125m19.32032 3.55078l-6.4336-2.82031m5.5 2.41016l.08985 1.22265m14.2461-1.03125l-6.60938-2.38672m6.60937 2.38672l.34766 2.42969m13.08984-2.84766l-6.85547-1.55078m5.85938 1.32813l.32031 1.1836"/><g clip-path="url(#T)"><path fill="none" stroke="#000" stroke-linecap="round" stroke-linejoin="round" stroke-miterlimit="10" stroke-width=".5" d="M147.48438 399.98828l-6.96875.90235"/></g><path fill="none" stroke="#000" stroke-linecap="round" stroke-linejoin="round" stroke-miterlimit="10" stroke-width=".5" d="M156.41406 397.04297l1.80078 6.79297m-1.53906-5.80469l.90234-.83594m13.83594-.17969l-1.57031 6.84766m1.34375-5.85156l1.1836-.32031m13.66015-.08204l-4.17188 5.65625m3.56641-4.83203l1.21094.1797m13.5664-.09376l-5.88671 3.83594m5.03125-3.27735l1.07422.59375m13.5078-.28125l-6.70702 2.09766m5.73047-1.79297l.87109.85938m13.38672 1.02734l-6.64063-2.28906m6.64063 2.28906l.38672 2.42578m13.10937-3.28125l-7.0039-.57422m7.0039.57422l.97266 2.25m12.32812-2.1211l-6.97656-.83202m5.96484.71094l.44141 1.14453m13.89844-1.1211l-7-.64062m5.98047.54687l.47265 1.13281m13.84375-1.83984l-6.96093.96094m5.9453-.82031l.71876.99218m13.51562-1.59375l-6.76953 1.88282m5.78516-1.60938l.84375.89063m13.5039-.97266l-6.86718 1.5m6.86718-1.5l1.58594 1.8711m11.39844-2.76954l-6.20703 3.29688m5.30469-2.8164l1.01562.6875m13.28516-.9961l-6.375 2.95703m5.44922-2.52735l.97656.73829m13.4336-.73438l-6.71095 2.08594m5.73438-1.78125l.8711.86328m13.5703-.36328l-7.01171.47656m5.99218-.40625l.64844 1.04297m8.60547 2.26563l3.15234-6.28125m14.4961 5.3164l-5.51953-4.34765m19.14453 3.8828l-6.13672-3.42187m5.24219 2.92578l-.02344 1.22657m12.9414.58984l-3.55078-6.0625m18.11329 4.82031l-6.05079-3.57422m5.17188 3.0547l-.05469 1.22265m14.72656-2.22266l-7.0039-.53906m7.0039.53906l.98438 2.25m12.27734-1.83984l-6.89453-1.35938m6.89453 1.35938l.71094 2.34765m12.29688-1.45703l-6.28516-3.14062m5.3711 2.6836l.03124 1.22655"/><g clip-path="url(#U)"><path fill="none" stroke="#000" stroke-linecap="round" stroke-linejoin="round" stroke-miterlimit="10" stroke-width=".5" d="M146.77344 384.96875l-5.54688 4.3125"/></g><path fill="none" stroke="#000" stroke-linecap="round" stroke-linejoin="round" stroke-miterlimit="10" stroke-width=".5" d="M145.96875 385.59375l1.11719.5039m13.73437 1.26563l-7.01172-.47656m5.9922.40625l.5 1.11719m13.80077-1.83204l-6.9414 1.08985m5.92968-.92969l.73828.98047m13.40235-1.83984l-6.57031 2.48828m5.61328-2.125l.92187.8086m12.76563-2.17579l-5.40235 4.4961m4.6172-3.83985l1.1328.46094m13.64453.15625l-6.7539 1.94922m6.7539-1.94922l1.70704 1.76562m11.67968-.125l-6.89843-1.32812m6.89843 1.32812l.72266 2.34375m12.58984-3.69922l-6.89062 1.37891m6.89062-1.3789l1.5547 1.89843m-2.5586-1.69922l.77734.95313m13.29297-1.91406l-6.39844 2.90234m6.39844-2.90235l1.94531 1.4961m11.54297-1.03516l-6.74219 1.98438m6.7422-1.98438l1.71484 1.75m11.6914-1.34765l-6.92578 1.17578m6.92578-1.17578l1.5 1.9453m11.82031-1.91405l-6.9375 1.11328m6.9375-1.11328l1.48438 1.95312m11.26562-3.3789l-5.80468 3.96484m5.80468-3.96485l2.17188 1.14063m10.91406-1.4375l-5.34765 4.5586m5.34765-4.5586l2.28125.90234m10.48828-1.41796l-4.25781 5.58984m3.64063-4.77735l1.21093.19922m9.79688-1.63671l1.59375 6.84375m-1.36328-5.85157l.92578-.80469m9.99219 1.34375l5.92578 3.77735m-5.0625-3.22656l.09375-1.22266m17.15625 5.5586l-3.67188-5.9922m18.32031 1.48048L380.5 388.64063m5.41797-2.59375l.98828.73046m7.08203 2.17579l5.9961-3.66016m-5.125 3.1289l-1.0547-.625m19.9961-.375l-7-.59765m5.98438.51172l.48047 1.1289m12.6914 1.28125L421.27734 384.5m3.9961 4.48047l-.42188 1.15234m14.96094-1l-5.76172-4.01953m18.35547 4.78125l-4.3164-5.54297m3.6875 4.73828l-.5 1.1172m13.37109.2578l-2.17188-6.68359m1.85547 5.71094l-.85156.88281"/><g clip-path="url(#V)"><path fill="none" stroke="#000" stroke-linecap="round" stroke-linejoin="round" stroke-miterlimit="10" stroke-width=".5" d="M147.5039 374.08594l-7.0078-.55469"/></g><path fill="none" stroke="#000" stroke-linecap="round" stroke-linejoin="round" stroke-miterlimit="10" stroke-width=".5" d="M147.5039 374.08594l.97657 2.25m12.32422-2.1289l-6.98047-.79688m6.98047.79687l.90234 2.28125m12.4375-2.60937l-7.02734-.14063m7.02734.14063l1.10547 2.1875M187.20703 372.5l-6.52344 2.61719m6.52344-2.61719l1.875 1.58203m10.88281-2.51562l-5.41015 4.48437m5.41015-4.48437l2.26953.92968m11.3125-.5625l-5.9414 3.75m5.07812-3.20312l1.0625.60547m13.10547-1.17188l-5.92187 3.78906m19.76562-1.49218l-6.98047-.80469m6.98047.80469l.89844 2.28125m12.39453-3.2461l-6.9375 1.125m6.9375-1.125l1.48438 1.95313m11.7539-.46485l-6.78125-1.85156m6.78125 1.85156l.53906 2.39063m12.2461-1.27734l-5.72266-4.08204m4.89063 3.48829l-.16016 1.21875m14.84375-1.76172l-6.79297-1.80469m19.92188 2.32422l-6.42188-2.84766m18.78516-1.26562L314.83594 376.5m16.44922-6.09375l-1.7461 6.80469m1.49219-5.8164l1.1914-.28907m9.01954.21875l4.96875 4.96875m-4.2461-4.2461l.35938-1.17187m11.9961.71094l5.4414 4.44531m-5.4414-4.44531l.47655-2.40625m.31641 3.05469l.23828-1.20704m11.49219 2.75391l7.02734.05469m-7.02734-.05469l-1.13672-2.17578m18.22656-1.30078l-.52734 7.00781m10.83984-1.3086l5.48047-4.39452m-4.6836 3.7578l-1.1289-.48437m19.86719-1.54687l-6.96094.94531m5.94922-.8086l.71484.9961m12.15235-3.53516l-4.03906 5.75m3.44921-4.91406l1.21875.15235m7.15625 1.70312l7.01954.36719m-5.9961-.3164l-.51953-1.10938m12.82813.87109l6.98828.74219m6.83203 1.48047l5.97265-3.70313m-5.10156 3.16406l-1.0625-.61718"/><g clip-path="url(#W)"><path fill="none" stroke="#000" stroke-linecap="round" stroke-linejoin="round" stroke-miterlimit="10" stroke-width=".5" d="M147.4961 360.85156l-6.9922-.71875"/></g><path fill="none" stroke="#000" stroke-linecap="round" stroke-linejoin="round" stroke-miterlimit="10" stroke-width=".5" d="M147.4961 360.85156l.92187 2.27344m-1.9414-2.375l.46484 1.13281m13.8828-1.57422l-7.01952.3672m7.01953-.3672l1.26172 2.10547m-2.28125-2.05078l.6289 1.05078m13.59375-1.8125l-6.79687 1.78125m6.79687-1.78125l1.66407 1.80469m-2.65235-1.54297l.83203.90235m13.57422-.5625l-7 .58203m7-.58204l1.32813 2.0625m11.92578-1.05078l-6.8789-1.4414m6.8789 1.4414l.6836 2.35547m12.67187-2.58203l-6.95703-.99219m6.95703.9922l.83203 2.30858m10.94922.1211l-3.89063-5.85156m3.89063 5.85156l-1.16797 2.16015m15.44531-3.10937l-5.8125-3.94922m5.8125 3.94922l-.26562 2.4375m14-3.28516l-6.65625-2.2539m6.65625 2.2539l.39843 2.41797m12.47266-1.53515l-5.76563-4.01954m5.76563 4.01954l-.29688 2.43359m13.1836-1.92969l-4.91016-5.02734m4.91016 5.02734l-.7461 2.33594m14.82813-3.44531l-6.4414-2.8125m5.5039 2.40234l.09375 1.22656m13.71094-.0664l-5.54688-4.3125m5.54688 4.3125l-.41797 2.41797m12.83594-1.60157l-3.75391-5.9414m3.20703 5.07422l-.60547 1.0664m10.75781-.17187l3.66407-5.9961m10.67969-.42187l1.60546 6.83984m-1.37109-5.84765l.92188-.8086m9.8828 1.54297l6.16016 3.38672m-5.26171-2.89453l.01562-1.22656m11.97656 2.16406l7.00781.52734m-7.0078-.52734l-.98438-2.2461m14.28906 2.45704l7.02734.10546m-7.02734-.10546l-1.11719-2.1836m14.61719 1.10938l6.66016 2.25m-5.69141-1.92188l-.19531-1.21094m12.6875.52735l6.3711 2.96484m-5.44532-2.53515l-.0664-1.22266m19.14062 1.98438l-7.0039.57812m7.0039-.57813l1.32812 2.0625m11.7461-3.08203l-6.51954 2.6172m5.57032-2.23438l.9375.78906m12.28906-2.58203l-4.44531 5.4414m3.80078-4.65234l1.20312.24219m8.375 4.46094l4.31641-5.54297m-3.6875 4.73437l-1.20703-.21094"/><g clip-path="url(#X)"><path fill="none" stroke="#000" stroke-linecap="round" stroke-linejoin="round" stroke-miterlimit="10" stroke-width=".5" d="M147.5039 346.92578l-7.0078.5039"/></g><path fill="none" stroke="#000" stroke-linecap="round" stroke-linejoin="round" stroke-miterlimit="10" stroke-width=".5" d="M147.5039 346.92578l1.3047 2.07813m11.93359-2.60547l-6.85156 1.5586m5.85546-1.33204l.80078.92969m13.06641-2.23047l-5.96875 3.70703m5.10156-3.16797l1.0625.61719m13.42188 1.94922l-6.57031-2.5039m5.61328 2.14062l.15234 1.21484m11.69531 1.30469l-1.72265-6.8125m1.47265 5.82031l-.91015.82422m13.9414.25781l-.65234-6.9961m.5586 5.98048l-1.02735.67187m15.57813.03906l-2.9375-6.38671m2.5078 5.45703l-.74218.97656m12.92188.27344l.1953-7.02735m-.1953 7.02735l-2.19922 1.08984m14.90625-1.16016l1.41015-6.88671m-1.41015 6.88671l-2.35157.69532m19.88282-4.03516l-7.02344-.20703m6 .17578l.54687 1.10156m10.94141 2.27735l-1.32422-6.90235m1.32422 6.90235l-1.91016 1.53906m14.94922-1.4961l-.76953-6.98437m.76953 6.98438l-2.02734 1.3828m15.92969-1.5l-1.94532-6.7539m1.66407 5.76953l-.88282.85547m13.63282.26172l-.25391-7.01953m.21875 6l-1.0625.61328m11.70312-.72266l5.16407-4.76171m-4.41407 4.0703l-1.15625-.40624m13.50391.83984l5.60156-4.2461m-4.78515 3.62891l-1.11328-.51562m16.60546 2.51953l-.38671-7.01563m.33203 5.9922l-1.05078.63671m11.88671-5.7461l4.6797 5.2461m7.55468-1.82812l6.84375-1.58985m-6.84375 1.58985l-1.61328-1.84766m16.25781-1.76953l4.1836 5.64844m-3.57422-4.82813l.52734-1.10547m13.96094 6.60938l.6211-7m-.53126 5.98047l-1.13281.47656m17.77344-4.60156l-6.21094 3.28906m5.30469-2.8125l1.01562.6875m13.5-.40235l-6.80078 1.76172m6.80078-1.76171l1.66016 1.80859m11.73047-1.45313l-6.94922 1.05079m5.9375-.89844l.73047.98828m13.6328-.54688l-7.02734-.13671m6.00391.11718l.55469 1.09375"/><g clip-path="url(#Y)"><path fill="none" stroke="#000" stroke-linecap="round" stroke-linejoin="round" stroke-miterlimit="10" stroke-width=".5" d="M147.39063 332.94531l-6.78125 1.83594"/></g><path fill="none" stroke="#000" stroke-linecap="round" stroke-linejoin="round" stroke-miterlimit="10" stroke-width=".5" d="M147.39063 332.94531l1.67968 1.79297m10.33985-3.69531l-4.19141 5.64062m3.58203-4.8203l1.21484.18358m7.32813.57422l6.57422 2.48438m6.67187-2.28906l6.71094 2.09375m-5.73437-1.78907l-.22657-1.20703m12.4922 2.72266l6.85546-1.54688m-5.85547 1.32032l-.80078-.9297m13.58203 2.27345l5.92578-3.78125m-5.92578 3.78125l-2.13672-1.20704m15.17969-2.05859l6.46875 2.75m-6.46875-2.75l-.21094-2.44531M233.75 334.5078l6.91016-1.28906m-6.91016 1.28906l-1.52734-1.91797m15.55468 3.46875l5.48828-4.39062m-5.48828 4.39062l-2.2539-.97265m15.3125-3.05469l5.9961 3.66406m-5.1211-3.13281l.07031-1.22266m15.82813 6.00782l-.91407-6.96875m.78125 5.95312l-1 .71485m12.69532.08203l2.58984-6.53125m-2.21484 5.58203l-1.21875.13672m14.65234.96875l1.60156-6.84375m-1.60156 6.84375l-2.375.625m15.2539-.75782l2.47266-6.57812m-2.11328 5.6211l-1.21484.15624m12.07422-1.3789l6.66796-2.22266m-5.69921 1.90234l-.88672-.84765m13.22265-1.01953l6.6875 2.15625m-6.6875-2.15625l-.4336-2.41407m13.59767 3.1172l6.98828.75m-5.97266-.64063l-.45703-1.14063m13.35937 3.40625l5.78125-4m-5.78125 4l-2.17968-1.1289m14.92187-.28125l6.92969-1.1797m-6.92969 1.1797l-1.5-1.94141m14.8086 1.91015l6.9414-1.11718m-5.92969.95312l-.74218-.97656m17.73828 3.875l-2.44531-6.58594m2.08984 5.6289l-.8125.91798m16.77344-3.32031l-7.02344.1328m6-.11327l.59766 1.0703m13.3789.53517l-6.30078-3.1172m5.38281 2.66407l.03516 1.22656m14.36328-3.49219l-6.63281 2.32032m5.66797-1.98438l.90234.83203m13.04688-1.85937l-5.97266 3.70312m5.10547-3.16406l1.0586.61719"/><g clip-path="url(#Z)"><path fill="none" stroke="#000" stroke-linecap="round" stroke-linejoin="round" stroke-miterlimit="10" stroke-width=".5" d="M147.30469 319.35156l-6.60938 2.39453"/></g><path fill="none" stroke="#000" stroke-linecap="round" stroke-linejoin="round" stroke-miterlimit="10" stroke-width=".5" d="M147.30469 319.35156l1.82031 1.64453m-2.78125-1.29687l.91016.82422m13.17968-1.59375l-6.23828 3.23437m6.23828-3.23437l2.01953 1.39453m-2.92578-.92188l2.01953 1.39454m12.4297-1.32032l-6.69141 2.14453m6.6914-2.14453l1.75781 1.71094m-2.73046-1.39844l.8789.85547m13.52344-.69531l-6.92188 1.19922m6.92188-1.19922l1.5039 1.9375m11.83204-1.82422l-6.96094.96875m6.96094-.96875l1.4375 1.98828m-2.45313-1.84765l1.4414 1.98828m12.7461-2.7422l-6.67578 2.19532m6.67578-2.19531l1.76953 1.69922m-2.74218-1.3789l1.77343 1.69921m12.35938-2.41016l-6.36719 2.97657m6.36719-2.97657l1.96094 1.47657m-2.88672-1.04297l1.96094 1.47656m12.28906-1.89063l-6.38281 2.94141m6.3828-2.9414l1.94923 1.48437m-2.87891-1.0586l1.95313 1.48829m12.55468.1836l-6.91406-1.25392m6.91406 1.25391l.75 2.33594m10.30469-6.26563l-2.39453 6.60547m15.4961-6.67578l-1.96485 6.7461m1.67969-5.76563l1.19921-.25m9.48047-.28906l3.875 5.86328m-3.30859-5.01172l.58594-1.07813m11.27734 5.25l5.64844-4.18359m-5.64844 4.1836l-2.21484-1.0547m15.02734.08985l6.65625-2.2539m-6.65625 2.2539l-1.78906-1.6836m2.7539 1.35548l-.89062-.84375m13.1914 1.01562l6.75391-1.94531m-6.7539 1.94531l-1.70704-1.76172m21.90235 1.03516l-7.00781-.49219m20.26953.91406l-6.90235-1.33203m5.89844 1.13672l.35938 1.17188m13.73046-.2461l-6.4453-2.79687m13.89062 3.70703l5.29687-4.61719m-4.52734 3.94531l-1.14453-.4375m13.59765 1.00391l5.48047-4.40234m10.66406-1.3125l-.17578 7.02343m.14844-6l1.09766-.55078m9.98047 5.80078l4.35156-5.51953m-3.71875 4.71485l-1.20703-.21875m17.11328 1.61718l-2.09766-6.70703m1.79297 5.73047l-.86328.8711m16.46875-1.47657l-6.0664-3.54687m5.18359 3.03125l-.05078 1.22656m13.28906-5.32031l-4.14844 5.67187m3.54297-4.84765l1.21484.17578"/><path fill="#00f" fill-rule="evenodd" d="M246.21094 467.64844h8.61719V457.5039h-8.6172v10.14453"/><path fill="azure" fill-rule="evenodd" d="M248.04297 459.33594h.83594v2.82422h3.28515v-2.82422h.83203v6.48047h-.83203v-2.91797h-3.28515v2.91797h-.83594v-6.48047"/><path fill="#00f" fill-rule="evenodd" d="M392.67578 458.77344h8.6211V448.625h-8.6211v10.14844"/><path fill="azure" fill-rule="evenodd" d="M394.51172 450.45703h.83203v2.82422h3.28516v-2.82422h.83203v6.48047h-.83203v-2.91406h-3.28516v2.91406h-.83203v-6.48047"/><path fill="#ff3030" fill-rule="evenodd" d="M331.23438 441.01953h7.6914V430.8711h-7.6914v10.14844"/><path fill="azure" fill-rule="evenodd" d="M333.0664 432.70703h.83594v5.73828h3.19141v.73828h-4.02734v-6.47656"/><path fill="#00f" fill-rule="evenodd" d="M383.80078 436.57813h8.61719v-10.14454h-8.61719v10.14454"/><path fill="azure" fill-rule="evenodd" d="M385.63281 428.26563h.83203v2.82421h3.28907v-2.82421h.83203v6.48046h-.83203v-2.91406h-3.28907v2.91406h-.83203v-6.48046"/><path fill="#00f" fill-rule="evenodd" d="M232.89453 418.82813h8.6211v-10.14844h-8.6211v10.14844"/><path fill="azure" fill-rule="evenodd" d="M234.73047 410.51172h.83203v2.82422h3.28516v-2.82422h.83593v6.48047h-.83593v-2.91406h-3.28516v2.91406h-.83203v-6.48047"/><path fill="#ff3030" fill-rule="evenodd" d="M224.71484 347.8125h7.69141v-10.14453h-7.6914v10.14453"/><path fill="azure" fill-rule="evenodd" d="M226.54688 339.5h.83203v5.73828h3.1953v.74219h-4.02733V339.5"/><path fill="#ff3030" fill-rule="evenodd" d="M437.7539 347.8125h7.69532v-10.14453h-7.69531v10.14453"/><path fill="azure" fill-rule="evenodd" d="M439.58594 339.5h.83594v5.73828h3.1914v.74219h-4.02734V339.5"/><path fill="#ffffe0" fill-rule="evenodd" d="M230.78516 373.3164h22.17968V363.125h-22.17968v10.1914"/><path fill-rule="evenodd" d="M234.28516 364.95703h.5078v6.29688h-.78515v-4.4922h-1.39062v-.55468l.5625-.0664.25-.05079.23047-.08984.20312-.14453.17188-.20703.14453-.29688.10547-.39453m4.8125 0l.23047.01953.21875.05469.20703.08984.1953.1211.1875.14844.16798.17578.30469.42187.24218.49219.17969.54687.11328.57813.03516.59375-.03516.58984-.11328.58594-.17969.55469-.24219.5-.30468.42969-.16797.17968-.1875.15235-.19531.125-.20703.08984-.21875.0586-.23047.01952-.23047-.01953-.21875-.05859-.20703-.08984-.19532-.125-.18359-.15235-.17188-.17969-.30078-.42968-.24609-.5-.17969-.55469-.10937-.58594-.03906-.58984h.83203l.03125.5625.08203.5039.125.44532.16015.3711.19141.30077.21094.22266.22265.13672.22657.04687.22656-.04687.22266-.13672.21093-.22266.1914-.30078.16017-.3711.1289-.4453.08203-.50391.02735-.5625-.02735-.5625-.08203-.5-.1289-.4375-.16016-.36328-.1914-.29297-.21095-.21485-.22265-.1328-.22656-.04298-.22657.04297-.22265.13281-.21094.21485-.1914.29297-.16016.36328-.125.4375-.08203.5-.03125.5625h-.83203l.03906-.59375.10937-.57813.17969-.54687.2461-.49219.30077-.42187.17188-.17579.1836-.14843.1953-.1211.20704-.08984.21875-.05469.23047-.01953m5.09375 0h.5078v6.29688h-.78905v-4.4922h-1.38672v-.55468l.5586-.0664.2539-.05079.23047-.08984.20312-.14453.17188-.20703.14062-.29688.10938-.39453m2.8203 2.17578h.78907l.01953-.3164.0586-.28516.09765-.2539.14063-.21485.1836-.17578.22265-.1289.26562-.07813.3086-.02735.23437.01954.22656.0625.20313.10156.17969.14062.14843.17188.11328.20703.07032.23437.02734.26563-.02344.26953-.0664.22266-.10938.1914-.15625.17188-.19922.16406-.24609.16406-.63672.39063-.53516.3125-.4375.3164-.34765.32422-.26563.33594-.1875.35156-.125.3711-.0703.39062-.01954.42188h4.21094v-.7422h-3.33203l.08203-.28515.11328-.23437.14844-.20313.1875-.17969.23047-.17187.28125-.17578.71484-.41797.41406-.20313.34766-.23046.28125-.25391.21875-.26563.16406-.27734.10938-.28515.0664-.28516.01953-.28125-.04297-.38281-.12109-.34766-.1875-.3086-.25-.26171-.30469-.21485-.34375-.15625-.3789-.09765-.40625-.03516-.4375.03125-.39844.10156-.35547.16407-.30469.23437-.2461.30469-.1875.375-.11327.44531-.04297.51953"/><path fill="#ffffe0" fill-rule="evenodd" d="M372.8125 393.99219h22.17969v-10.1914H372.8125v10.1914"/><path fill-rule="evenodd" d="M376.3125 385.63281h.50781v6.29297h-.78515v-4.48828h-1.39063v-.55469l.5625-.0664.25-.0547.23047-.08983.20313-.14063.17187-.21094.14453-.29297.10547-.39453m4.8125 0l.23047.01953.21875.0547.20703.08983.19531.1211.1875.14844.16797.17578.30469.41797.24219.49609.17968.54688.11329.57812.03515.58984-.03515.59375-.11329.58594-.17968.55078-.2422.5039-.30468.4297-.16797.17578-.1875.15625-.19531.1211-.20703.09374-.21875.05469-.23047.01953-.23047-.01953-.21875-.05469-.20703-.09375-.19531-.1211-.1836-.15624-.17187-.17578-.30078-.4297-.2461-.5039-.17968-.55078-.10938-.58594-.03906-.59375h.83203l.03125.5625.08203.50782.125.4414.16016.375.1914.30078.21094.22266.22266.13672.22656.04687.22656-.04687.22266-.13672.21094-.22266.1914-.30078.16016-.375.1289-.4414.08204-.50782.02734-.5625-.02734-.55859-.08204-.5039-.1289-.4336-.16016-.36719-.1914-.29297-.21094-.21093-.22266-.13282-.22656-.04687-.22656.04687-.22266.13282-.21094.21093-.1914.29297-.16016.36719-.125.4336-.08203.5039-.03125.5586h-.83203l.03906-.58985.10938-.57813.17968-.54687.2461-.4961.30078-.41796.17187-.17578.1836-.14844.19531-.1211.20703-.08984.21875-.05469.23047-.01953m5.09375 0h.50781v6.29297h-.78906v-4.48828h-1.38672v-.55469l.5586-.0664.2539-.0547.23047-.08983.20313-.14063.17187-.21094.14063-.29297.10937-.39453m2.82031 2.17578h.78906l.01954-.3164.05859-.28906.09766-.25.14062-.21485.1836-.17578.22265-.1289.26563-.07813.30859-.03125.23438.02344.22656.0625.20312.10156.17969.13672.14844.17578.11328.20312.07031.23829.02735.26562-.02344.26563-.0664.22656-.10938.1914-.15625.17188-.19922.16015-.2461.16797-.63671.38672-.53516.3164-.4375.31642-.34766.32421-.26562.33594-.1875.35156-.125.3672-.07031.39452-.01954.41797h4.21094v-.73828h-3.33203l.08203-.28516.11328-.23828.14844-.19922.1875-.17968.23047-.17188.28125-.17578.71484-.41797.41406-.20312.34766-.23438.28125-.25.21875-.26562.16406-.27735.10938-.28515.0664-.28516.01954-.28125-.04297-.38281-.1211-.34766-.1875-.3086-.25-.26171-.30468-.21485-.34375-.15625-.37891-.10156-.40625-.03125-.4375.03125-.39844.09766-.35547.16797-.30468.23437-.2461.30469-.1875.375-.11328.44531-.04297.51953"/></g></defs><use xlink:href="#aa"/></svg>