<svg xmlns="http://www.w3.org/2000/svg" role="img" xmlns:xlink="http://www.w3.org/1999/xlink" viewBox="142.45 309.95 326.84 171.84"><defs><clipPath id="a"><path d="M144 311.67188h1v168.65625h-1zm0 0"/></clipPath><clipPath id="b"><path d="M144 311.67188h324v168.65625H144zm0 0"/></clipPath><clipPath id="c"><path d="M467 311.67188h1v168.65625h-1zm0 0"/></clipPath><clipPath id="d"><path d="M144 478h4v2.32813h-4zm0 0"/></clipPath><clipPath id="e"><path d="M154 477h7v3.32813h-7zm0 0"/></clipPath><clipPath id="f"><path d="M167 477h7v3.32813h-7zm0 0"/></clipPath><clipPath id="g"><path d="M180 478h8v2.32813h-8zm0 0"/></clipPath><clipPath id="h"><path d="M193 478h8v2.32813h-8zm0 0"/></clipPath><clipPath id="i"><path d="M207 478h7v2.32813h-7zm0 0"/></clipPath><clipPath id="j"><path d="M220 478h8v2.32813h-8zm0 0"/></clipPath><clipPath id="k"><path d="M233 478h8v2.32813h-8zm0 0"/></clipPath><clipPath id="l"><path d="M246 479h9v1.32813h-9zm0 0"/></clipPath><clipPath id="m"><path d="M260 479h8v1.32813h-8zm0 0"/></clipPath><clipPath id="n"><path d="M267 480h2v.32813h-2zm0 0"/></clipPath><clipPath id="o"><path d="M273 480h8v.32813h-8zm0 0"/></clipPath><clipPath id="p"><path d="M280 480h3v.32813h-3zm0 0"/></clipPath><clipPath id="q"><path d="M286 479h9v1.32813h-9zm0 0"/></clipPath><clipPath id="r"><path d="M293 480h3v.32813h-3zm0 0"/></clipPath><clipPath id="s"><path d="M300 479h8v1.32813h-8zm0 0"/></clipPath><clipPath id="t"><path d="M307 480h2v.32813h-2zm0 0"/></clipPath><clipPath id="u"><path d="M313 479h8v1.32813h-8zm0 0"/></clipPath><clipPath id="v"><path d="M320 480h2v.32813h-2zm0 0"/></clipPath><clipPath id="w"><path d="M326 480h9v.32813h-9zm0 0"/></clipPath><clipPath id="x"><path d="M332 480h2v.32813h-2zm0 0"/></clipPath><clipPath id="y"><path d="M339 479h9v1.32813h-9zm0 0"/></clipPath><clipPath id="z"><path d="M345 479h3v1.32813h-3zm0 0"/></clipPath><clipPath id="A"><path d="M353 478h8v2.32813h-8zm0 0"/></clipPath><clipPath id="B"><path d="M359 479h2v1.32813h-2zm0 0"/></clipPath><clipPath id="C"><path d="M367 477h7v3.32813h-7zm0 0"/></clipPath><clipPath id="D"><path d="M381 477h6v3.32813h-6zm0 0"/></clipPath><clipPath id="E"><path d="M395 476h4v4.32813h-4zm0 0"/></clipPath><clipPath id="F"><path d="M406 479h9v1.32813h-9zm0 0"/></clipPath><clipPath id="G"><path d="M420 478h8v2.32813h-8zm0 0"/></clipPath><clipPath id="H"><path d="M433 478h8v2.32813h-8zm0 0"/></clipPath><clipPath id="I"><path d="M446 478h8v2.32813h-8zm0 0"/></clipPath><clipPath id="J"><path d="M452 480h2v.32813h-2zm0 0"/></clipPath><clipPath id="K"><path d="M460 478h7v2.32813h-7zm0 0"/></clipPath><clipPath id="L"><path d="M144 464h3v6h-3zm0 0"/></clipPath><clipPath id="M"><path d="M144 450h3v7h-3zm0 0"/></clipPath><clipPath id="N"><path d="M144 437h3v6h-3zm0 0"/></clipPath><clipPath id="O"><path d="M144 424h3v6h-3zm0 0"/></clipPath><clipPath id="P"><path d="M144 410h3v7h-3zm0 0"/></clipPath><clipPath id="Q"><path d="M144 398h4v5h-4zm0 0"/></clipPath><clipPath id="R"><path d="M144 384h4v6h-4zm0 0"/></clipPath><clipPath id="S"><path d="M144 373h4v2h-4zm0 0"/></clipPath><clipPath id="T"><path d="M144 360h4v1h-4zm0 0"/></clipPath><clipPath id="U"><path d="M144 346h4v2h-4zm0 0"/></clipPath><clipPath id="V"><path d="M144 333h4v2h-4zm0 0"/></clipPath><clipPath id="W"><path d="M144 319h4v3h-4zm0 0"/></clipPath><g id="X" clip-path="url(#clip1)"><path fill="#fff" fill-opacity="0" fill-rule="evenodd" d="M0 0h1000v1000H0zm0 0"/><path fill="#d3d3d3" fill-opacity="0" fill-rule="evenodd" d="M162.15234 355.86719l-.23437.29297.0586.23437.11718.17188.17578.23437.29297.34766.11328.0586.11719-.17188.0586-.23438.17577-.17578.46485-.17578h.69922l.23437.29297.28906.8164.0586.17579.17578.23046.35156.23438.69922.69922.17188.17578.23437.34765.23438.41016.28906.58203.41015.46485.23047.23437.23438.17578.11719.23047.17578.29297.17187 1.16406v.23438l.0586.28906.05859.11719.11719.11719.34765.41015.11719.17188.17578.17578.17578.23437.11719.17188.17188.35156.05859.23438.23437.40625.23438-.0586-.17578.17578-.0586.92969h-.58203l-.23437-.11328-.34766.11328-.11719.11719-.05859.29297-.0586.17578-.11718.17187-.46484.29297-.0586.23438-.0586.11328v.64453l.0586.17187v.41016l.0586.0586v.40624l.05859.40625.11719.17579.05859.05859.23047.64062-.0586.29297v.69922l-.05859.58203v.23438l-.0586.23047-.05468.35156v1.92187l.05469.1172h.42578l-.36719.11718-.02344.35156.89063 1.16797 1.74219.53906 1.33984.35938v.53906l.08984.8086.53516.71484 1.51953.26953.89063-.08594.08984 1.16406.53516.1797 1.16015-.1797 2.05469-.98437 1.16016-.36328 1.8789-.17578 1.69531-.1797-.17968.71876-1.51563.08594-1.25.08984-.80469.26953-1.07421.8086.26953.71875.53515.89843-.17968.625-.26563.8086.26563 1.07812.625.89844.80468.17969 1.25-.1797-.26562.72267.09766.5039.05468.29297v.17188l.0586.29296v.40625l.17578.1172.35156.11718h.40625l.29297-.17578.11328-.11719.0586-.11719.11718-.23047.0586-.17578.35156-.46484.23047-.17578.17578-.0586.17578.0586.0586.17578.11718.98828.05469.46875.0586.17188.11718.23437.17578.0586.8164.05859h.28907l.11719.23437.05859.40625.0586.35156v1.10547l.11718.29297.11719.34766.28906.69922.17578.35156.58203.7539.35157.17579.17187.0586.46875.23437.64063.46484.34765.23438.29297.17578.29297.05468.23047.0625.8164.34766.29297.17578.11328.17188.35157.35156.11719.17578.52343.64063v.28906l.0586.35156v.34766l.05859.35156.0586.28906.11718.0586.17188.05859h.17578l.58203.23437.17578.1172.17578.28905.17578.23438.11328.23437.29297.23047.11719.11719v.41016l.0586.05468.28906.23438.23437.11719.0586.11718.11718.17188.0586.11719.23047.23437.05859.17578.23437.0586.1172.05859-.1172.11328-.05859.11719v.11719l-.11719.29296-.11719.28907v.58203l.17579.11719.11718.05859.0586.11719.11719.11719.11328.05859.17578.34765.0586.35157.05858.40625v.17578l-.05859.17578-.11719.69922v.17187l.1172.17579.29296.29296h.40625l.17578.1172.11719.17187.11719.29296v.23438h-.52735l-.23047-.23438h-.23437l-.17578.0586-.0586.69922.0586.34765.11719.17579.17578.41015.11718.23047.28907.46875.17578.05469h.52344l.23437.0586.75781.64062.0586.29296v.23438l.05859.0586.23047.34765v.35156l-.11719.17188v.29297l.29297.28906.29297.17578.17187.0586.29297.17577.29297.1172.58203.40624.28906.23438.29297.17578.21875.16015.01563.01172.23047.17579.64062.52343.17578.23438.1172.17578.17577.17578.11328.17188v.64062l.1172.17578.46874.11719.58203.11719.23438.05859.23047.11328.29297.11719.11328.0586.58593.35156.28907.17187.17578.0625.17578.05469.17578.0586.69922.35155.28906.17579.23438.05468.28906.17578.23437.1172.64063.40624.29297.11719.17187.0586.23438.05859.41015.05859.23047.0586.23438.11718.0586.17188-.41017.17578.46875.0586.0586.29296.11328.23438.17578.05468.23438.0586.17578.05859.40625.11719.64062.23437.11719.17188.0586.23437v.17578l-.0586.1172-.0586.40624.23438.23438.11719.05859.34766.11719.64062.23047.17578.11718.28906.1172.17578.17577.23438.46485.58203 1.10546.17578.17579.34766.17578.17578.11719.35156.11718 1.04688.52344.23437.0586.46485.11327.29297.0586.46484.17578.75781.58203.23438.23438.34765.46484.17578.17578.28907.23438.8164.69921.29297.17579.28906.28906.29297.17578.29297.28906.69531.64063.17578.17578.29297.23437.28907.23438.46875.28906.64062.58203.34766.23438.23437.29297.34766.34765.35156.46485.9336.99218.34765.40625.11719.17579.23437.05859.11328.11719.64454.17578.23047.11328.23437.0586.29297.17577.23047.1172.9336.69921.40624.40625.23438.17578.40625.17578.23437.11719.8164.34766.34766.23437.23438.11719.29297.28906.23047.11719.7578.35156.35157.17188.23047.05859.29297.11719.23437.0586.8711.17577h.8164l.46875.23047.17188.0586.875.69921.46484.1172.29297.05858.17578.0586.23047.0586.46875.05859.34766.05859.35156.0586.40625.05859h.29297l.17187.0586v.23046l.17578.17578h.29297l.34766.0586.35156.05859.69922.11719h.64063l.46484-.23438.29297-.17578.17187-.11719.41016-.17187.28906-.17578.9336-.46485.46875-.29297.52343-.29296.46485-.17188.46484-.17578 1.05078-.46485.28906-.11718.41016-.11719.28906-.11719.52735-.17578 1.51562-.69922.58203-.34765.28907-.0586.29297-.0586.34765-.11718.875-.23047.35156-.11719h.11329l.23437-.05859.875-.23437.23438-.0586h.8125l.35156-.0586.8164-.11718.17188-.0586.35156-.05468.29297-.0586.23047-.05859.8164-.17578.17579-.0586h.34765l.23438-.05859.46484-.11718.75781-.17188.23438-.0586h.34765l.41016-.11718.28906-.0586 1.28516-.05859h.28906l.41016-.0586.23047-.05858h.17578l.875-.1172h.40625l.41015-.11718h.34766l.35156-.11328.8711-.0586h1.75l1.04687.28907.41016.11719.28906.11718.35156.11719.28907.11719 1.05078.17187.28906.0586h.29297l.29297.05859.17187.0586.41016.05859.17187.0586.1172.05858h.11718l.11719.0586.35156.0586h.11328l.41016.0664 1.92187.39453 1.92578.39453 1.51953.44922 1.69532.71875 2.14453.80469 1.60547-.71875 1.42968-.80469 1.16016-1.07813 1.25-.44921 3.03516-.71875 1.875-.35938 2.14453-1.34765 2.23437-1.25391 2.5-1.25781 1.69531-.44922 1.78516-.17969 1.16016-.26953.625.53906 1.33984-.26953.71485-.98828.98437-1.34375.44531-.17969.80469-.35937 1.875-.53907 1.78516-.44921 1.25-.26954 1.16015-.08984 1.69922-.08984 1.96094-.26954 1.25-.08984h.53906l.625-.08984h.89063l2.14453-.17969 2.41015-.17969 2.58985-.08984 1.69531.17969 1.60938.08984 1.42968.35938 1.16016.71875 1.875.98828 1.16015 1.52734.26563.71484.6289.08985.35548.89844.53515.53906.53516 1.52734 1.07422.35938h.53515l-.80469.53515.08985 1.70703.71484 2.69532.89063.80468.89453.98829.71484 1.2578 1.78516.53907 1.51953-.17969.35547 1.34375 1.60937-.80469.98047-.53906.26953.26953.31641-.21484.21875-.14453.80078.44922.44922-.35938h.35547l.53515-.26953.53907-.71875.53515-.26953.625-.98828 1.16016.44922.83984.3711 1.39454.61718 1.6953-.17969h1.60548l1.78515.08985.17969-1.70704.53516-1.34375.80468.26954.4922.84765.40233.40625-.08984.53906v.35938l.71485.44922.71093-.26953h1.42969l.35938.98828.4453 1.25781.71485 1.34375 1.25.6289 1.69531.62891.71485-.17969.17969-.53906.98046-.08984.44922.35937.08594 1.25782-.26563.6289-.53515.17969v.53906l.71484.98438.26563.53906.98437.98828.80078 1.07813-.26562.35937-.08985.89844-.625 2.33203-.35546 2.0664-.08985 1.79298-.17969.71875-.08984.53906v1.4375l-.98047 1.88281-.35937 1.70703-.53516.89844-.80469 1.16797-.26562.53906 2.05469 1.2539.08593.35938-.35546.53906-.08985-.17968v.80859l.08985 1.4375-.44532.71484-1.07422.09375-.26562.71485.53515.89844.8047.71875 1.16015.80859 1.33984.26953.44531.35938-.35546.44921-1.78907-.08984-1.25-.44922-.71484-.71875-.625-.08984-.17578 3.58984-.1875 1.3086h89.35937V311.70313h-55.26953v49.08203l.76172.125 3.28906.54296 2.02344 2.83594v2.7539l2.35156.33204 2.34766.33203h4.05078l-1.3789 4.16016-2.02344.70703-2.02344.70312-.54297.34375-2.59375 1.6172-.1875.11718-2.02344-2.07813-.73046-2.74218-2.67188-2.07813-1.375-3.5-.0664-.08203-1.95704-2.67188 2.75-1.41796v-49.08204H294.42187v91.41407l.1172.03125.1328.01172.07422.07421.10547.04688.08985.0586.08593.05859.08985.0586.29687.29687.0586.08984.03125.11719.02734.11719.01563.13671-.03125.1172-.0586.08983-.0586.08594-.04296.10547-.04688.10156-.02734.1211v.14453l.17578.26953.14844.14844.07422.08594.07422.07421.04296.10547.0625.08985.0586.08593.04297.10547.0586.08985.04687.10156.04296.10547.0586.08594.11719.17968.07421.07422.0625.08594.0586.08984.04297.10547.0586.08985.05858.08593.0625.08985.0586.08984.04297.10156.11719.17969.07421.07422.0586.08594.07422.07421.08984.0586.10547.04687h.14844l.1328-.01562.13282.01562.10156-.04687.07422-.07422.04688-.10156-.01563-.13281v-.14844l-.04687-.10547-.02735-.11719-.04687-.10156-.02735-.1211-.04296-.10156-.0625-.08984-.04297-.10156-.04297-.10547-.03125-.11719-.01563-.13281-.01171-.13672.08593-.0586.0586-.08593.12109-.03125.04297.10547.01562.1328v.1172l.0586.10156.0586.08984.08983.0586.14844.14843.0586.08985.04296.10547-.01171.10156.08593.0586.10547.04687.08594.0586.08984.05858.07422.07422-.11719.02735-.10546.04687-.08594.0586-.07422.07421-.0586.08985-.0625.08594-.02734.12109-.04687.10156-.04297.10547-.03125.11719-.01172.13281-.01563.13281v.14844l.02735.11719.04687.10547.04297.10156.0586.08984.07421.07422.08985.0586.07422.07421.08984.0586.0586.08984.04296.10547.04688.10156.11719.03125.1328.01563h.14845l.11718-.03125.10547.04297.04297.10547.04688.10156.02734.1211L299.5 410l.02734.11719.03125.1211.02735.11718.10547.04297.10156.04687.13281-.01562.14844.14844.0625.08593.07422.07422.07031.07422.08984.0625.10547.04297.10156.04297.1172.03125.13671.01562.11719-.03125.07422-.07422.02734-.11718-.01172-.13282-.03125-.12109-.02734-.11719.04297-.10547h.11719l.08984.0625.11719.02735h.14843l.13282.01562h.14843l.13282.01563.1328-.01563h.14845l.1328-.01562.13282-.01172.13672.01172.11719-.02735.13281-.01562.1914-.0586-.05859.17579-.01562.1328-.02735.1211-.01562.13281-.0586.08594-.1328.01563-.10548.04687-.10546.04297-.1172.03125-.11718.02735-.26563.03125h-.14843l-.13281.01562-.07422.07422.05859.08594.14844.14843.11719.1797.07421.0703.08985.0625.08984.0586.08594.0586.08984.05858.10156.04297.10547.0625.10547.04297.08594.0586.10547.04687.10156.04297.17969.11719.0586.08984-.04298.10156-.04687.10547.01562.13281.22266.22266.0586.08985.04296.10156.03125.1211.04297.10155.01563.13282.03125.11718.01171.13672.03125.11719.14844.14844.10156.04297.10547.04296.1172.03125.1328.01563.13672.01563h.11719l.11719-.03125.08984-.0586.04297-.10547.04688-.10156.04296-.10547.03125-.11719.01172-.1328v-.14845l-.01172-.1328-.01562-.13282-.03125-.11719-.04297-.10547-.04688-.10547-.04296-.10156-.04297-.10547-.01563-.13281.01563-.13281.02734-.11719.03125-.11719.02735-.1211.04687-.10155.08984-.0586.08594-.0625.07422-.07422.08984-.05859.22266-.22266.0586-.08593.07421-.07422.11719-.17969.0586-.08594v-.14844l-.07423-.07421-.10156-.04688-.10547-.04297-.10156-.04297-.0586-.08984-.04687-.10547-.02734-.11719.08984-.05859.11719-.03125.10156-.04297.17969-.11719.14844-.14843.01172-.13282-.01172-.10546-.08985-.0586-.1328.01563h-.14845l-.1328.01562-.13282-.01562-.1211-.03125-.08593-.0586-.07422-.07422-.0586-.08984-.0625-.08594-.11718-.17969-.0586-.08593.03125-.1211.08594-.05859.1211-.03125.05859-.08594v-.1211l-.03125-.11718-.0586-.08984-.05859-.08594-.04687-.10547-.02735-.11719-.01562-.1328.0586-.08985.07421-.07422.08984-.0586.1172-.17968.07421-.07422.0586-.08594.14843-.14844.1211-.03125.1328-.01562.13282.01562.07422.07422.04297.10547.01562.13281-.03125.1172-.11719.03124-.1328.01172-.14844.14844-.04297.10547-.04688.10156-.02734.1211-.03125.11718v.14844l.03125.11719.04297.10546.05859.08985.07422.07031.07422.07422.11719.03125.12109.02734.11719-.02734.1328-.01563h.1172l.08984.0586.07422.07422.04687.10546.0586.08594.10156.04688.13281.01562.10547.04297.08594.0586-.01172.10546-.07422.07422-.17969.11719-.05859.08984-.08984.0586-.07032.07422-.07421.07421-.0625.08985-.02735.11719-.01562.1328.01562.13282-.01562.13281v.14844l.01562.13281.02735.1172.03125.12108.07421.07422.08985.0586.08594.0586.08984.05858.11719.03125v.08594l-.10157.04688-.08984.0586-.26563.03124-.11718.02735h-.14844l-.10547.04296-.10156.04688-.0586.08984-.0625.23438-.01171.13281-.03125.1211-.01563.1328v.29298l-.01172.1328.01172.13673.01563.1328.1328.01563.13282.01172.1211.03125.08593.0586.07422.07421.04688.10547.04296.10157.01563.1328v.44532l-.01563.13281v.44532l.03125.26562.02735.11719.01562.13281.03125.11719.08594.21094.03125.26562v.14844l-.03125.11719-.02734.11718-.03125.1211-.02735.11719-.03125.11718-.03125.1211-.01171.1328-.01563.13282.08984.0586.1172-.03125.10155.01562.04688.10547-.03125.26562v.44141l-.04297.10547-.04688.10547-.04296.10156-.04297.10547-.0586.08594-.03125.12109-.04296.11719-.03125.11719-.01563.1328.01563.13282.05859.08984.10547.04688.08594.0586.05859.08593-.01172.13672-.03125.11719-.04297.10156v.44531l-.01562.13281v.14844l-.03125.11719-.04297.10547-.02735.11719-.04687.10546-.04297.10157-.03125.12109-.02734.11719-.03125.13281-.03125.11719-.02735.11719-.04297.10546-.03125.1172-.03125.12108-.01171.13282-.01563.13281v.29688l.02734.11718v.14844l.04688.39844.02734.11719.0586.08984.12109.03125h.14844l.13281-.01563.0586.08985v.11719l-.0586.08984-.08984.0586-.10157.04296-.10546.04688-.08985.05859-.08594.0586-.13671.01562-.1172-.03125-.1328-.01563-.10157.04688-.0625.08594-.01172.13671-.01562.13282-.03125.11719-.02735.11718-.01562.13281-.03125.1211v.29687l.01563.13282.03125.11718v.14844l.01171.13281v.14844l-.02734.11719-.04688.10156-.02734.1211-.03125.11718-.0586.08985-.07421.07421-.10156.04297-.10547.04688-.11719.02734-.1211.03125-.10156-.04687.0586-.08594.10547-.04688.02734-.11718.03125-.11719.02734-.1211.03125-.11718v-.14844l.01563-.13281-.03125-.11719-.04297-.10547-.10547.01563-.07422.07422-.10156.04296-.08984.0625-.07422.07422-.04297.10157-.01563.1328-.03125.1172L304.25 426l-.03125.11719-.02734.11719-.03125.12109-.02735.11719-.03125.11718-.04297.10547-.08984.0586h-.08984l-.1172-.03125-.03124-.08594.01562-.13672-.03125-.11719v-.14844l-.01171-.1328v-.14844l-.0625-.23438-.02735-.1211-.04297-.10156-.04687-.10546-.0586-.08594-.05859-.08985-.04297-.10546-.0625-.08594-.14844-.14844-.0703-.07422-.10548-.04687-.10547-.04297-.10156-.04297-.29687-.29688-.08985-.07421-.08594-.0586-.10546-.04297-.08985-.0625-.08594-.0586-.10546-.04296-.08985-.0586-.08594-.0625-.07421-.0703-.10547-.04688-.08594-.0586-.10547-.04296-.08984-.0625-.10156-.04297-.10547-.04297-.08594-.0586-.10547-.04687-.10547-.04297-.10156-.04687-.08985-.0586-.10156-.04297-.10547-.04296-.08984-.0625-.11719-.02735-.13281-.01562-.13281.01562H299.75l-.13281.01563-.11719-.03125-.08984-.0586-.07422-.07422-.08985-.05859-.10156-.04688h-.14844l-.12109-.02734-.10156-.04297-.07422-.07422-.11719-.17968-.08984-.0586-.10156-.04297-.08985-.0625-.10547-.04296-.08984-.0586-.08594-.0586-.10547-.04687-.0586-.08594-.05858-.08984-.04297-.10547-.04688-.10156-.07422-.07422-.08594-.0586-.07421-.07421-.08985-.0586-.22265-.22265-.04297-.10547-.03125-.26563.10547-.04296h.14453l.10547.04296.07421.07422.08985.0586.08594.0586.10546.04687.08985.05859.14844.14844.0703.07422.14845.14843.0625.08594.07421.07422.08594.0586.07422.07421.08985.0625.08984.0586.08594.05859.26953.17578.10156.04688.10547.04296.10156.04297.04688-.07421.05859-.08594.07422-.07422.07031-.07422.10547.04297.07422.07422.0586.08984.04296.10156.04688.10547.04296.10547.1211.02735.11719-.02735.07421-.08984.04297-.10547.0586-.08985.07422-.07421.10546-.04297.1172-.02735.1328.01172.08985.0586.14844.14843.05859.08985.04297.10547.04687.10156.04297.10547.04297.10156.10547.04688.10547.04296.13281.01563.08594-.0586.0586-.08984.07421-.07422.10547-.04297.11719.02735.10547.04687.10156.04297.10547.04297.10156.04688.17969.11718v.11719l-.01563.13281.01563.13281.01562.13672.0586.08594.10156.04688.1211.02734.11718.03125h.14844l.11719-.03125.05859-.08984.17969-.1172.05859-.08983.07422-.07422.0586-.08594.11718-.17969.17969-.11719.11719.03125.08984.0586.04297.07422-.01563.1328v.1172l.08985.05859h.14843l.13282-.01563.1328-.01171.26563-.03125.10547-.04297.11719-.03125.1211-.02735.07421-.07421.07031-.07422.0625-.08985-.01562-.10547-.04688-.10156-.10156-.04297-.10547-.01562-.11718.02734-.26563.03125h-.14844l-.07421-.07422-.08985-.0586-.11719-.03124-.11718-.02735-.13282-.01562h-.14843l-.13282.01563h-.29687l-.10547-.04688-.14844-.14844-.04297-.10156-.05859-.08984.22266-.22266.08593-.0586.10547-.04296.11719-.03125.13281-.01563.13281.01563.13672.01562.10157.04297.1328-.01172.08985-.0625.10156-.04297.0625-.08984-.04687-.10156-.08984-.0586-.1172-.03125-.10155-.04296-.0586-.08985-.0625-.08984v-.11719l.01563-.13281.10547-.04688.07421-.07031v-.1211l-.08984-.05859-.03125-.11719.08985-.05859.07421-.07422.04297-.10547.0586-.08984.04687-.10156.01563-.13281v-.14844l-.04688-.10547-.04297-.10156-.08984-.0586-.13281-.01562-.10157-.04297-.13671-.01563-.1172-.03125h-.4453l-.13282-.01562-.13281-.01172-.13281-.01563-.11719-.03125h-.14844l-.13281-.01562-.13281-.01172-.26563-.03125-.1211-.04297-.08593-.0586-.07422-.07421v-.14844l.01172-.13281.10547-.04688.10156-.04296.13281-.01563h.15235l.13281-.01562h.29297l.1211.03125.10156.04296.08984.0586.23438.0625.12109-.04688.08984-.05859.10156-.04297.13282-.01562.10547.04296.10156.04688.13281.01172.1211-.02735h.14453l.12109-.03125.11719-.02734.10547-.04687.07421-.07422.08594-.0586.14844-.14843.0586-.08594.04687-.10547.02734-.11719.01563-.10547-.10156-.04296-.08985-.0586-.11719-.03125-.10546-.04297-.08985-.0625-.07422-.08594-.07422-.07421-.10156-.04297-.10547-.04688-.10156-.04297-.0586-.08984-.04687-.10156-.08594-.21094-.0625-.08594-.05859-.08984-.07422-.07422-.08594-.0586h-.26953l-.11719.03126-.08984.05859-.10156.04297-.13281.01562-.10547-.01562-.02735-.11719-.0625-.08984-.11718-.03125-.10157-.04297-.14843-.14844-.03125-.11719-.01563-.10546.07422-.07422.17969-.1172.11719-.02733.11718-.03125.13672.01562.10156.04297.10547.04297.10156.04687.10547.04297.1172.03125.1328.01563.1172.02734.1328.01563.10547-.01563.08985-.0586-.07422-.07421-.10547-.04297-.07422-.07422-.07422-.08984-.14844-.14844-.08593-.0586-.08985-.05859-.07422-.07422-.08984-.0586-.10156-.04687-.1211-.02734-.10156-.04688-.10547-.04296-.11719-.03125-.10156-.04297-.1211-.03125h-.14843l-.11719.03125-.10546.04297-.08594.0625-.17969.11718-.08594.0586-.08984.0586-.10547.04687-.08594.05859-.10547.04297-.10156.04297-.10547.04687-.07422.07422-.05859.08985-.0586.08593-.04687.10547-.0586.08594-.07421.07422-.13281-.01172-.1172-.03125h-.11718l-.07422.07422-.08984.0586-.07422.07421-.08984.0586-.08594.05859-.10547.04687-.10156.04297-.13672.01563-.10156-.04297-.14844-.14844-.10547-.04688h-.08594l-.10547.04688-.10156.04297-.1211.03125-.11718-.03125-.07422-.07422v-.11719l.03125-.1211.07422-.0703.0586-.08985.07421-.07422.11719-.03125.10547-.04296h.29297l.13281-.01563.13672-.01563.10156-.04296.08985-.0586.10156-.04687.08984-.0586.13281-.01171.08985.05859.13281.01172.08984-.0586.08594-.05859.10547-.04297.08984-.0586.08594-.0625.08985-.05859.14843-.14843.0586-.08594.05859-.08985.10547-.04296.13281-.01563.11719.02735.1211.03125.05859-.0586.05859-.08984.03125-.26563.02734-.11719.10547.01172.13281.01563.10157-.04297.08984-.0586.0586-.08984.07421-.07422.0586-.08984.04687-.10156.01172-.13281-.01172-.13282-.04687-.10547-.14844-.14843-.0586-.08985-.05859-.08594-.04297-.10546v-.44532l.01563-.1328v-.14845l.01172-.1328-.0586-.0586-.08984.0586-.10156-.04298-.17969-.11719-.08594-.05859-.0625-.08984-.0586-.08985-.07421-.07421-.08594-.0586-.1211.03125-.10155.01172-.10547.04688-.08594.05859-.10547.04297-.14844.14844-.08984.05859-.08594.0586-.08984.0625-.10547.04296-.13281.01563v-.1211l.10547-.04297.11718-.03125.07422-.0703.04297-.10548v-.14844l-.02734-.11718-.14844-.14844-.13281-.01563h-.14844l-.11719.03125-.10547.04297-.10156.04297-.08984.0625-.11719.02735-.07422-.07422.01172-.13281-.04297-.10157-.04297-.10547-.08984-.05859-.11719.02734-.1211.03125-.11718.03125-.10156.04297-.1211.03125-.10156.04297-.10547.04297-.08984.0586-.10156.01562v-.11719l.01562-.13281-.0586-.08985-.07421.04297-.14844.14844-.0586.08985-.07421.07421-.04688.10547-.04296.10156-.07422.07422-.0586.08985-.07422.07422-.05859.08593-.07422.07422-.08984.0625-.07422.07031-.07422.07422-.10156.01563-.13281.01562-.10547-.04296v-.1211l.14843-.14844.04297-.10156.0586-.08984.04687-.10156.04297-.10547.0586-.08985.03124-.11719.04297-.10156.03125-.1211.02735-.11718.04687-.10547.04297-.10156.04297-.10547.07422-.07031.08984-.0625.08985-.0586.10156-.04296h.29687l.26563-.03125.10547-.04297-.07422-.07422-.11719-.03125-.10547-.04297-.08984-.0586-.10156-.04687-.08985-.0586-.10156-.04296-.10547-.04297-.08984-.0625-.08594-.0586-.10547-.04296-.10156-.04297-.1211-.03125-.11718-.03125-.10157-.04297L297.5 410.25l-.10156-.04297-.08985-.0586-.04296-.10546-.01563-.13281.10156-.04297.13281-.01563.13672.01563.13282-.01563.10156-.04297.0586-.08984.01562-.10547-.08985-.0586-.07421-.07421-.10157-.04297-.08984-.0586-.14844-.14843-.04297-.10547-.01562-.13281v-.29297l-.0586-.08985-.08984-.05859-.07422-.07422-.04297-.10547-.03125-.11718-.0586-.08985-.07421-.07422-.11719-.02734-.07422-.07422-.08984-.0586-.08984-.0625-.08594-.05859-.07422-.07421-.0586-.08594-.04687-.10547-.08594-.0586-.14843-.14843-.19532-.0586-.1328.01563-.10157.04297-.07422.07422-.04688.10156-.04296.10547-.0586.08984-.0586.08594-.29687.29687-.08984.0586h-.08594l-.0625-.08594-.04297-.10547.03125-.11719.0586-.08984.02734-.11719-.01172-.13281-.08984-.0625-.10547.04688-.11719.02734-.11719.03125-.26953.17578-.10156.04688-.11719.02734-.10546.04687-.08985.0586-.10156.04297-.0586-.08594-.04687-.10547.01563-.13281.04687-.10547.07031-.07422.07422-.07031.0586-.08985v-.14843l-.04297-.10547h-.23829l-.10156.04687-.03125.11719-.02734.11719-.03125.1211-.07422.04296-.13281.01563-.07422-.04688-.04297-.10156-.04297-.10547-.04687-.10156-.04297-.10547-.1211.03125-.10156.04297-.13281.01562-.11719.03125-.10547.04297-.08984.0586-.10156.04687-.1211.02734-.13281.01563-.10156-.04297-.0586-.08985-.04687-.10546-.04297-.10157-.04297-.10546v-.1172l.0586-.08984.08593-.05859.17969-.11719.10156-.04687.10547-.04297.10547-.0586.10156-.04296.08985-.0625.10156-.04297.10547-.0586.10156-.04687.08984-.0586.10547-.04296.10156-.04297.08985-.0625.10156-.04297.13672-.01563.11719.03125.10156.04297.1211.03125.10156.04297.10546.04688.10157.04296.10547.04297.10156.04688.10547.04297.10156.04297.10547.04687.08594.0586.10546.04296.1172.03125.10546.04297.10156.04688.08985.0586.10547.04296.10156.04297.10547.04687.11719.02735.10156.04687.1211.02735h.14843l.08594-.0586.01562-.10156.0586-.08984-.02735-.1172-.07422-.07421-.11719-.17969-.07421-.07422-.08985-.07421-.17969-.1172-.08593-.05859-.10547-.04296-.10156-.04688-.26954-.17578-.05859-.08985-.07422-.07421-.0586-.08985-.04296-.10156-.03125-.11719-.01563-.13672v-.5625l-.01171-.1328-.01563-.13282-.03125-.11719-.01562-.13281-.01172-.13281-.03125-.1211-.22266-.22265-.0586-.08594-.01562-.10547.03125-.11719.13281-.01562v-91.41406H172.9922v1.45312l-.0586.23438-.35156 1.05078-.17187.52343-.1172.34766-.17577.41016-.11719.17187-.23438.29297-.23046.0586h-.35157l-.11718.05859-.23047.40625v.29297l.11719.17578.23046.23047.1172.23437.64062.75781.29297.46485.17578.23437.23047.35156.23437.34766.64063.8164.17578.46485.17187.41016.11719.69531.17578.46875.11719 1.39844.0586.46484v.875l.11718 1.04688v4.78125l-.0586.46484-.35156 1.28125-.17578.52344-.11328.41015-.35156.9297L172.93359 336l-.23437.58203-.11719.17578-.17187.34766-.17578.40625-.35157.8164-.0586.29297-.11327.29297-.11719.28906-.0586.17579-.11718.875-.0586.40625-.05859.11718-.0586.17579-.05859.17187-.23047.52734-.11718.17188v.23437l-.11719.23438-.0586.17187-.17577.58594v.28906l-.0586.17579v.29296l-.0586.11329-.05859.52734v.17187l-.05468.23438v2.6211l-.17578.8164-.1172.17578-.17577.23438-.1172.17187-.11327.23438-.58594.93359-.23047.28906-.29297.46485-.17578.23437-.28906.35156-.35156.69922-.11328.23047-.17579.41016-.17578.23046-.40625.52735-.8164.69922-.29297.17187-.28906.23438-.17579.11719-.17578.17578-.52344.40625-.52734.17578-.17187.17578-.23438.05469-.64062.17578h-.75782m12.21094 31.02344l-1.07422.44921.35938.89454 1.25-.71485.44531-.53906-.98047-.08985"/><path fill="#d3d3d3" fill-opacity="0" fill-rule="evenodd" d="M201.50781 416.59766h-.89453l.44922.6289.98047.35938.80469-.08985.4453-.98828-.17577.08985-.71485-.35547-.89453.35547m154.6211 59.0703l-.0586-.52343v-.29297l.11328-.29297.0586-.23046.46875-.46875h.11328l.11719-.11329.11718-.05859h.17579l.23437-.0586h.34766l.23437.0586.11719.0586.23047.17187.0586.17578.11718.58203v.29297l-.11719.17578-.17187.28906-.17579.17579-.52734.52343-.23047.23438-.11719.0586h-.17578l-.11718-.0586-.40625-.29297-.17579-.11719-.11718-.0586-.0586-.11327-.05468-.1172m6.64062-10.95702l-.0586-.17188v-1.10937l.0586-.17188.17578-.0586.17188-.05858h.17578l.23437-.0586.1172.0586.05858.69921-.05859.17188-.11719.17578-.11718.0586-.23438.52343-.11328.0586h-.23438l-.05859-.1172m9.61328-14.39062l-.11719-.17578v-.69922l.29297-.875.1172-.17187.17577-.35156.11328-.23047.1172-.29297.35155-.75781.1172-.23047.17187-.23438h.17578l.11719-.0586h.64062l.11719.0586.23437.23438.17188.11328.35156.29297.11719.11718.11328.17579v.11328l.11719.05859.11718.11719v.69922l-.05859.17578v.23047l-.0586.17578-.34765 1.05078-.11719.23047-.11719.23437-.11718.0586-.23047.23437-.64063.28906h-.875l-.41015-.11718-.64063-.46485"/><path fill="none" stroke="#bebebe" stroke-linecap="round" stroke-linejoin="round" stroke-miterlimit="10" stroke-width=".5" d="M467.95703 311.69531H144.02734v168.625h323.9297v-168.625"/><g clip-path="url(#a)"><path fill="#fff" fill-opacity="0" fill-rule="evenodd" d="M144 475.89063v4.4375h.0039H144V311.67188h.0039H144v164.21875"/></g><g clip-path="url(#b)"><path fill="#fff" fill-opacity="0" fill-rule="evenodd" d="M144.0039 480.32813V311.67188h17.75v71.66015l-4.4375 1.76563-1.91015 2.02734.15234 4.4375 1.75782 2.03125 4.4375 1.26953 3.35937-3.30078 1.07813-1.61328L167.75 387.125l-1.5586-1.61328-4.4375-2.17969v-71.66015h26.62891v45.54296l-4.4375 1.00391-3.3086 2.27344-1.1289 1.84765-3.49219 2.59375.1172 4.4375 3.375 3.6211.7539.8164 3.6836 3.45313 4.10937-3.45313.0664-4.4375.26172-3.40625 2.82031 3.40625-1.78515 4.4375-.73438 4.4375.96485 4.4375 3.17187 2.8125 3.13672 1.62891 1.30469 1.49219.64062 2.94531-.64062.85938L193.86719 396l-1.04688.89844-4.17578 3.53906-.26172.83594-2.76562 3.60156 2.76562 2.38281 1.83203 2.0586 2.60547 2.9453 1.05469 1.4922 3.38672 4.43359v.0039l4.4375 4.41798.02734.01953 4.41016 4.35546.42578.08594 4.01172 1.78516 4.4414 1.14062 3.14844-2.92578 1.28906-1.17578 4.4375-.07812 4.4375.3789 4.4375-.26172 4.44141-3.10156.14063-.20312-.14063-.14454-1.01953-4.29296-3.42188-3.88282-.36718-.55468-4.07031-3.60938-2.20313-.82812-2.23438-2.46094-2.82421-1.98047-1.61328-1.52344-4.4375-2.48828-4.44141-.36719-.26172-.05859-4.17578-4.35156L205.6289 396l.5078-.66797 1.37892-3.76953-1.37891-1.3711-4.4375-2.71874-2.21094-.34766 2.21094-2.76953.96094-1.67188 3.01562-4.4375-3.97656-3.53906-4.4375-.69922-1.6211-.19922-1.4453-4.4375-1.375-1.53125-3.47266-2.90625.74218-4.4414-1.70703-3.27735v-45.54296h62.13672v69.5l-1.47266 1.51171 1.47266 1.47657 2.76172-1.47657-2.76172-1.51171v-69.5h4.4375v105.9375l-3.30078.58203 3.30078.67968.84766-.67968-.84766-.58204v-105.9375h17.7539V355.625l-.39062.42969.39063.57422 1.39062-.57422-1.39062-.42969v-43.95313h13.3164v33.39454l-3.7539 2.11328-.6836.26562-4.15625 4.17188 4.15625 3.07422 3.88282 1.36328.55468.46094.51172-.46094 3.1211-4.4375-1.91016-4.4375-1.72266-2.11328v-33.39454h8.875v60.42579l-1.53125 1.71093 1.53125.56641.79297-.5664-.79297-1.71094v-60.42579h13.31641v32.01563l-3.91406 3.49219-.52344 2.28515-1.08984 2.15235 1.08984 1.70703 4.4375-.1211 2.27344-1.58593 2.16406-2.71094 4.4414-1.03906 2.625-.6875-2.625-1.58203-4.4414.11718-4.4375-2.02734v-32.01563h17.7539v19.56641l-1.6328 2.625 1.6328 1.5039 3.67579-1.5039-3.67578-2.625v-19.5664h8.875v138.96484l-4.4375 2.21484-.85547.84766-1.375 4.4375 2.23047 2.0586 4.4375.96874 2.375 1.41016 2.0664 1.76172 4.4375 1.54297 4.4375-.64454 3.40625-2.66015-1.98437-4.4375-1.42188-.8086-4.4375-1.85546-3.14062-1.77344-1.29688-1.47266-4.4414-1.58984V311.67187h8.8789v13.98047l-4.4375 2.60547-1.6914 1.16797 1.6914 1.26563 4.29297 3.17187.14453.27735.46485-.27735 3.02343-4.4375-3.48828-3.77344v-13.98046h26.6289v125.30859l-3.33202 3.40234 1.00781 4.4375 2.32422 1.51563 4.4375 1.36328 3.08984-2.8789-3.08984-2.88282-1.10547-1.55469-3.33203-3.40234v-125.3086h8.8789v141.125l-1.09765.90235-.1211 4.4375 1.21875 2.29297.8711-2.29297-.125-4.4375-.7461-.90235v-141.125h17.75v82.59766L395.25781 396l1.72656 1.73047L399.54298 396l-2.5586-1.73047v-82.59765h8.87891v116.32421l-4.4375.60938-3.46484 2.90234.91015 4.4375 2.5547 4.21875.11718.21875-.11719.40235-1.57812 4.03515.74218 4.4414.83594 1.125.82031-1.125 1.57032-4.4414 2.04687-.85156 4.4375-1.82031 1.77344-1.76563 1.85156-4.4375-3.625-3.625-.90625-.8125-3.53125-3.51172V311.67188h17.7539v80.03515L419.21876 396l2.50781 4.4375-.20312 4.4375-2.34375 1.52734-3.46094-1.52734 1.01172-4.4375L418.83984 396l-4.10156-2.73047L411.91797 396l.74219 4.4375.85937 4.4375-.3711 4.4414 1.58985 1.58985 2.88672 2.84766-.69922 4.4375 2.2539 2.26171 4.17188 2.17579.26563.26171.53125-.26171 3.90625-.33594 4.4375-.47656 4.4375-2.03125 1.63672-1.59375 2.80468-1.375 3.15235-3.0625 1.28515-2.14454 2.17188-2.29296-2.17188-2.23438-1.01562-2.20703-.16016-4.4375-3.26172-3.57422-4.4414 2.85547-.71875.71875-3.71875 2.39844-4.4375-.53906-2.58985-1.85938L427.92578 396l-4.3086-4.29297v-80.03515h44.37891v168.65625H144.00391"/></g><path fill="#50fcfc" fill-rule="evenodd" d="M155.5586 391.5625l-.15235-4.4375 1.91016-2.02734 4.4375-1.76563 4.4375 2.17969L167.75 387.125l-1.5586 2.82422-1.07812 1.61328-3.35937 3.30078-4.4375-1.26953-1.75782-2.03125m20.57422-22.1914l-.11719-4.4375 3.4922-2.59376 1.1289-1.84765 3.3086-2.27344v5.40625l-.91798 1.3086-3.51953 1.78906-1.76562 2.64843 1.76562 1.89454 2.35938 2.54296 2.07812 1.94922 2.32031-1.94922 1.23438-4.4375-2.7461-4.4375-.80859-1.30859v-5.40625l4.4375-1.0039 1.70703 3.27734-.74218 4.4414 3.47265 2.90625v6.28125l-3.46875 4.125 3.1836 4.4375.28515.25391 4.4414 2.6836 2.80079-2.9375 1.63672-1.51954 2.45703-2.91797-2.45703-2.1875-4.4375-1.46875-4.4414-.46875v-6.28125l1.375 1.53125 1.4453 4.4375 1.6211.19922 4.4375.69922 3.97656 3.53906-3.01562 4.4375-.96094 1.67188-2.21094 2.76953 2.21094.34766v1.33203l-2.5586 2.75781-1.8789 2.50781L195.43359 396l-2.61328 2.24219-2.58984 2.19531-1.25781 4.4375 3.84765 4.15234.17578.28907 3.27735 4.4375.98828 1.28906 1.65234 3.14844 2.78516 2.76953 2.0664 1.66797 2.3711 2.33984 4.4375 1.47656 3.625.625.8164.35547.38282-.35547 4.05469-3.69922 4.4375-.0039 3.25-.73828 1.1875-.13672 4.375.13672.0625.0078.0078-.0078 1.51954-4.4375-1.52734-1.73047-1.80079-2.70703-2.63672-2.33594-4.4375-1.94922-.24218-.15234-4.19531-3.96875-.57813-.47266-3.85938-3.30469-4.4414-.70703-1.92188-.42578-2.51562-2.61719-4.4375-1.08203L200.17578 396l1.52344-1.00781 3.29687-3.42969-3.29687-2.75781v-1.33203l4.4375 2.71875 1.3789 1.37109-1.3789 3.76953-.50781.66797.5078.08594 4.17579 4.35156.26172.0586 4.4414.36718 4.4375 2.48828 1.61329 1.52344 2.82422 1.98047 2.23437 2.46094 2.20313.82812 4.0703 3.60938.3672.55468 3.42187 3.88282 1.01953 4.29296.14063.14454-.14063.20312-4.4414 3.10156-4.4375.26172-4.4375-.3789-4.4375.07812-1.28907 1.17578-3.14844 2.92578-4.4414-1.14062-4.01172-1.78516-.42578-.08594-4.41016-4.35546-.02734-.01954-4.4375-4.41796v-.00391l-3.38672-4.4336-1.05469-1.49218-2.60547-2.94531-1.83203-2.0586-2.76562-2.38281 2.76562-3.60156.26172-.83594 4.17578-3.53906L193.8672 396l3.39453-3.57813.64062-.85937-.64062-2.94531-1.30469-1.49219-3.13672-1.6289-3.17187-2.8125-.96485-4.4375.73438-4.4375 1.78516-4.4375-2.82032-3.40626-.26172 3.40625-.0664 4.4375-4.10938 3.45313-3.6836-3.45313-.7539-.8164-3.375-3.6211"/><path fill="#00e8fc" fill-rule="evenodd" d="M179.50781 371.26563l-1.76562-1.89454 1.76562-2.64843 3.51953-1.78907.91797-1.30859v2.48828l-3.89453 3.25781 3.89453 4.06641 2.51953-4.0664-2.51953-3.25782V363.625l.8086 1.3086 2.74609 4.4375-1.23438 4.4375-2.3203 1.94921-2.07813-1.94922-2.35938-2.54296"/><path fill="#00d4fc" fill-rule="evenodd" d="M183.94531 373.4375l-3.89453-4.0664 3.89453-3.25782v1.33594l-2.29687 1.92187 2.29687 2.39844 1.48828-2.39844-1.48828-1.92187v-1.33594l2.51953 3.25781-2.51953 4.06641"/><path fill="#00c4fc" fill-rule="evenodd" d="M183.94531 371.76953l-2.29687-2.39844 2.29687-1.92187v1.33594l-.69922.58593.69922.73047.45313-.73047-.45313-.58593v-1.33594l1.48828 1.92187-1.48828 2.39844"/><path fill="#00b8fc" fill-rule="evenodd" d="M183.94531 370.10156l-.69922-.73047.69922-.58593.45313.58593-.45313.73047"/><path fill="#00e8fc" fill-rule="evenodd" d="M192.82031 409.02734l-3.84765-4.15234 1.2578-4.4375 2.58985-2.19531v2.73437l-.51172 3.89844.51172.55469 2.3711 3.88672 2.0703 2.46484 3.65626-2.46484-3.65625-2.01954-3.91016-2.42187-.53125-3.89844v-2.73437L195.4336 396l1.82813-1.92969v9.3164l-.44922 1.48829.44922.27734 1.40234-.27734-1.40234-1.48828v-9.3164l1.8789-2.50782 2.5586-2.75781v2.21875l-.5.53906.5.66797.64453-.66797-.64453-.53906v-2.21875l3.29687 2.75781-3.29687 3.42969L200.17578 396l1.52344.73828v2.02344l-2.33594 1.67578 2.33594 2.375v8.91797l-3.2461 2.02344 3.2461 1.76953v2.64453l-.02734.02344.02734.02734.125-.02734-.125-.02344v-2.64453l4.4375.02344.9336-1.79297-.9336-.58594-4.4375-1.4375v-8.91797l.63281 2.0625-.23047 4.4414 4.03516 2.57032 2.98437 1.86719-2.1875 4.4375.0625 4.4375 3.57813 2.1328 4.4414-.3164 1.9297-1.8164 2.5078-1.82422 4.4375.94922 4.4375-1.3711 2.96094-2.1914-2.71484-4.4375-.2461-.21875-4.4375-3.29688-1.4375-.92187-3-2.83985-1.95703-1.60156-2.48047-2.125-4.4414-1.27734-4.4375-.94141-.44922-.09375-3.98828-1.67578v-2.02344l4.4375 1.08203 2.51562 2.61719 1.92188.42578 4.4414.70703 3.85938 3.30469.57813.47266 4.1953 3.96875.2422.15234 4.4375 1.94922 2.63671 2.33594 1.80078 2.70703 1.52735 1.73047-1.51953 4.4375-.00781.0078-.0625-.0078-4.375-.13672-1.1875.13672-3.25.73828-4.4375.0039-4.0547 3.69922-.3828.35547-.81641-.35547-3.625-.625-4.4375-1.47656-2.3711-2.33984-2.0664-1.66797-2.78516-2.76953-1.65234-3.14844-.98828-1.28906-3.27735-4.4375-.17578-.28907m-.28515-26.34375l-3.1836-4.4375 3.46875-4.125v1.32032l-2.35937 2.80468 2.35937 3.07813 4.4414 1.15234 4.39063-4.23047-4.39062-2.68359-4.4414-.1211v-1.3203l4.4414.46874 4.4375 1.46875 2.45703 2.1875-2.45703 2.91797-1.63672 1.51953-2.80078 2.9375-4.4414-2.68359-.28516-.2539"/><path fill="#00d4fc" fill-rule="evenodd" d="M192.82031 381.32422l-2.35937-3.07813 2.35937-2.80468 4.4414.12109v.96875l-4.4414.23047-1.25 1.48437 1.25 1.62891 4.4414 1.07422 2.80079-2.70313-2.80078-1.71484v-.96875l4.39062 2.6836-4.39062 4.23046-4.4414-1.15234"/><path fill="#00c4fc" fill-rule="evenodd" d="M192.82031 379.875l-1.25-1.6289 1.25-1.48438 4.4414-.23047V377.5l-4.4414.58203-.13672.16406.13672.1836 4.4414.99219 1.21485-1.17579-1.21484-.74609v-.96875l2.80078 1.71484-2.80078 2.70313-4.4414-1.07422"/><path fill="#00d4fc" fill-rule="evenodd" d="M192.82031 405.42969l-.51172-.55469.51172-3.89844.53125 3.89844 3.91016 2.42188 3.65625 2.01953-3.65625 2.46484-2.07031-2.46484-2.3711-3.88672"/><path fill="#00b8fc" fill-rule="evenodd" d="M192.82031 378.42969l-.13672-.1836.13672-.16406 4.4414-.58203 1.21485.7461-1.21484 1.17577-4.4414-.99218"/><path fill="#50fcfc" fill-rule="evenodd" d="M197.26172 403.38672l-.44922 1.48828.44922.27734 1.40234-.27734-1.40234-1.48828m4.4375 8.34375l-3.2461 2.02344 3.2461 1.76953 4.4375.02344.9336-1.79297-.9336-.58594-4.4375-1.4375v1.8086l1.44922.21484-1.44922.1875-.34375-.1875.34375-.21485v-1.8086"/><path fill="#00d4fc" fill-rule="evenodd" d="M201.69922 402.8125l-2.33594-2.375 2.33594-1.67578 3.98828 1.67578.44922.09375v1.0039l-2.92578 3.33985.90625 4.4414 2.01953 1.28516 4.4375 2.89844.16406.2539-.16406 1.61329-1.22656 2.82422.47656 4.4375.75.44921 1.86328-.44921 1.41797-4.4375 1.16016-.10157 2.23437.10157 2.20313.39062 4.4375 2.10156 4.4375-2.41015.10937-.08203-.10938-.1797-.89062-4.2578-3.54688-2.7461-2.6289-1.6914-1.8086-1.71094-3.33593-2.73047-1.10156-.94531-4.44141-1.84766-4.4375-.54687v-1.00391l4.4375.9414 4.4414 1.27735 2.48047 2.125 1.95703 1.60156 3 2.83985 1.4375.92187 4.4375 3.29688.2461.21875 2.71484 4.4375-2.96094 2.1914-4.4375 1.3711-4.4375-.94922-2.5078 1.82422-1.9297 1.8164-4.4414.3164-3.57813-2.1328-.0625-4.4375 2.1875-4.4375-2.98437-1.8672-4.03516-2.5703.23047-4.44141-.63281-2.0625m0-10.58203l-.5-.66797.5-.53906.64453.53906-.64453.66797"/><path fill="#fff" fill-opacity="0" fill-rule="evenodd" d="M201.69922 413.53906l-.34375.21485.34375.1875 1.44922-.1875-1.44922-.21485"/><path fill="#00d4fc" fill-rule="evenodd" d="M201.69922 418.21875l-.02734-.02734.02734-.02344.125.02344-.125.02734"/><path fill="#00c4fc" fill-rule="evenodd" d="M204.11719 409.3164l-.90625-4.4414 2.92578-3.33984v1.0039l-2.04688 2.33594 2.04297 4.4414h.0039l4.4375 3.30079.73048 1.13672 3.71094 3.76171 4.4375.38282 1.6953.29297 2.7422 1.42578 2.57812-1.42578-.02344-4.4375-2.55469-1.97657-3.82421-2.46093-.61328-.58204-4.4375-3.62109-.23438-.23828-4.20703-2.1836-4.4375-.15234v-1.0039l4.4375.54687 4.4414 1.84766 1.10157.94531 3.33594 2.73047 1.80859 1.71094 2.6289 1.6914 3.54688 2.7461.89063 4.2578.10937.1797-.10938.08203-4.4375 2.41015-4.4375-2.10156-2.20312-.39062-2.23438-.10157-1.16015.10157-1.41797 4.4375-1.86328.44921-.75-.44921-.47656-4.4375 1.22656-2.82422.16406-1.61328-.16406-.25391-4.4375-2.89844-2.01953-1.28515"/><path fill="#00b8fc" fill-rule="evenodd" d="M206.13281 409.3164l-2.04297-4.4414 2.04688-2.33594 4.4375.15235v.60937l-4.4375.24219-1.16797 1.33203 1.16797 2.53906 1.17969 1.90235 3.2578 2.42187 1.29688 2.01563 3.14453 3.1875 4.4375.60156 3.75391.64844.6836.35546.64453-.35546.91406-4.4375-1.5586-1.20704-4.4375-3.03906-.71484-.1914-3.72266-3.01172-1.40625-1.42969-3.03515-1.57422v-.60937l4.20703 2.18359.23438.23828 4.4375 3.6211.61328.58203 3.82422 2.46093 2.55468 1.97657.02344 4.4375-2.57813 1.42578-2.74218-1.42578-1.69531-.29297-4.4375-.38281-3.71094-3.76172-.73047-1.13672-4.4375-3.30078h-.0039"/><path fill="#00a8fc" fill-rule="evenodd" d="M206.13672 407.41406l-1.16797-2.53906 1.16797-1.33203 4.4375-.24219v.60938l-4.4375.63671-.28906.32813.28906.6289 2.36328 3.8125 2.07422 1.53907 1.86328 2.89844 2.57813 2.61328 4.4375.82031 4.4375-1.39063.5664-2.04296-.5664-.4375-4.4375-3.41016-2.1875-.58984-2.25-1.82032-2.57813-2.62109-1.86328-.96484v-.60938l3.03516 1.57422 1.40625 1.42969 3.72265 3.01172.71484.1914 4.4375 3.03906 1.5586 1.20704-.91406 4.4375-.64453.35546-.6836-.35546-3.7539-.64844-4.4375-.60156-3.14454-3.1875-1.29687-2.01563-3.25781-2.42187-1.1797-1.90235"/><path fill="#009800" fill-rule="evenodd" d="M206.13672 405.5039l-.28906-.6289.28906-.32813 4.4375-.63671v.60937L208.5 404.875l1.1875 4.4414.88672.66016 2.42969 3.77735 2.01172 2.03906 4.4375 1.03906 4.22656-3.07812-4.22656-3.44922-3.66016-.98828-.77734-.63282-3.75-3.80859-.69141-.35547v-.60937l1.86328.96484 2.57813 2.6211 2.25 1.8203 2.1875.58985 4.4375 3.41016.5664.4375-.5664 2.04296-4.4375 1.39063-4.4375-.82031-2.57813-2.61328-1.86328-2.89844L208.5 409.3164l-2.36328-3.8125"/><path fill="#00ac00" fill-rule="evenodd" d="M209.6875 409.3164L208.5 404.875l2.07422-.35547.6914.35547 3.75 3.8086v1.32421l-1.4453 3.7461 1.4453 1.46484 4.4375 1.25781 3.73829-2.72265-3.73828-3.05079-4.4375-.6953v-1.32423l.77734.63282 3.66016.98828 4.22656 3.44922-4.22656 3.07812-4.4375-1.03906-2.01172-2.03906-2.4297-3.77735-.88671-.66015"/><path fill="#00c800" fill-rule="evenodd" d="M215.01563 415.21875l-1.44532-1.46484 1.44531-3.7461 4.4375.69531V411.5l-4.4375 1.4414-.3164.8125.3164.31641 4.4375 1.69531 2.76172-2.01171-2.76172-2.25391v-.79688l3.73829 3.05079-3.73828 2.72265-4.4375-1.25781"/><path fill="#10cc00" fill-rule="evenodd" d="M215.01563 414.07031l-.31641-.3164.3164-.8125 4.4375-1.44141v.79688l-3.18359 1.45703 3.1836 1.30078 1.78515-1.30078-1.78516-1.45704V411.5l2.76172 2.2539-2.76172 2.01173-4.4375-1.69532"/><path fill="#24d000" fill-rule="evenodd" d="M219.45313 415.05469l-3.1836-1.30078 3.1836-1.45704v.79688l-1.44532.66016 1.44531.58984.8086-.58984-.8086-.66016v-.79688l1.78516 1.45704-1.78516 1.30078"/><path fill="#3cd800" fill-rule="evenodd" d="M219.45313 414.34375l-1.44532-.58984 1.44531-.66016.8086.66016-.8086.58984"/><path fill="#50fcfc" fill-rule="evenodd" d="M250.51953 384.16016l-1.47266-1.47657 1.47266-1.51171 2.76172 1.51171-2.76172 1.47657m4.4375 34.71093l-3.30078-.67968 3.30078-.58204.84766.58204-.84766.67968m17.7539-62.24218l-.39062-.57422.39063-.42969 1.39062.42969-1.39062.57422m8.8789-1.9375l-4.15625-3.07422 4.15625-4.17188.6836-.26562 3.7539-2.11328v3.13671l-4.4375 2.69532-.71484.71875.71484.52734 4.4375 2.46875 2.39063-2.9961-2.39063-3.41406v-3.13671l1.72266 2.11328 1.91016 4.4375-3.1211 4.4375-.51172.46094-.55468-.46094-3.88282-1.36328"/><path fill="#00e8fc" fill-rule="evenodd" d="M281.58984 352.14453l-.71484-.52734.71484-.71875 4.4375-2.69531v2.95703l-.66406.45703.66406.39844.31641-.39844-.3164-.45703v-2.95704l2.39062 3.41407-2.39063 2.9961-4.4375-2.46876"/><path fill="#00d4fc" fill-rule="evenodd" d="M286.02734 352.01563l-.66406-.39844.66406-.45703.31641.45703-.3164.39844"/><path fill="#50fcfc" fill-rule="evenodd" d="M294.90234 374.375l-1.53125-.5664 1.53125-1.71094.79297 1.71093-.79297.56641m8.87891-21.05078l-1.08984-1.70703 1.08984-2.15235.52344-2.28515 3.91406-3.49219v2.13281l-1.51953 1.35938 1.51953 2.0664 1.91797-2.0664-1.91797-1.35938v-2.13281l4.4375 2.02734 4.4414-.11718 2.625 1.58203-2.625.6875-4.4414 1.03906-2.16406 2.71094-2.27344 1.58594-4.4375.12109"/><path fill="#00e8fc" fill-rule="evenodd" d="M308.21875 349.2461l-1.51953-2.06641 1.51953-1.35938 1.91797 1.35938-1.91797 2.0664"/><path fill="#50fcfc" fill-rule="evenodd" d="M325.97266 335.36719l-1.63282-1.5039 1.63282-2.625 3.67578 2.625-3.67578 1.5039m4.4375 124.82812l-2.23047-2.0586 1.375-4.4375.85547-.84765 4.4375-2.21484 4.4414 1.58984v5.23047l-4.11328.67969 4.11328.8711 2.10938 3.5664 2.32812 1.3164 3.13281-1.3164-3.1328-3.0625-2.97266-1.375-1.46485-.67969v-5.23047l1.29688 1.47266 3.14062 1.77344 4.4375 1.85546 1.42188.8086 1.98437 4.4375-3.40625 2.66015-4.4375.64454-4.4375-1.54297-2.0664-1.76172-2.375-1.41016-4.4375-.96875"/><path fill="#00e8fc" fill-rule="evenodd" d="M339.28906 459.00781l-4.11328-.8711 4.11328-.67968 1.46485.67969 2.97265 1.375 3.13281 3.0625-3.1328 1.3164-2.32813-1.3164-2.10938-3.5664"/><path fill="#50fcfc" fill-rule="evenodd" d="M339.28906 330.6914l-1.6914-1.26562 1.6914-1.16797 4.4375-2.60547 3.48828 3.77344-3.02343 4.4375-.46485.27735-.14453-.27735-4.29297-3.17187m28.74219 114.1289l-1.00781-4.4375 3.33203-3.40234v1.69922l-1.66797 1.70312 1.66797 2.64063 3.3164 1.79687 1.1211.54297.58203-.54297-.58203-.53906-2.76953-3.89844-1.66797-1.70312v-1.69922l3.33203 3.40234 1.10547 1.55469 3.08984 2.88281-3.08984 2.8789-4.4375-1.36327-2.32422-1.51563"/><path fill="#00e8fc" fill-rule="evenodd" d="M370.35547 443.02344l-1.66797-2.64063 1.66797-1.70312 1.66797 1.70312 2.76953 3.89844.58203.53906-.58203.54297-1.1211-.54297-3.3164-1.79687"/><path fill="#50fcfc" fill-rule="evenodd" d="M379.23438 460.42969l-1.21875-2.29297.12109-4.4375 1.09765-.90235.7461.90235.125 4.4375-.8711 2.29297m17.75-62.69922L395.25781 396l1.72656-1.73047L399.54298 396l-2.5586 1.73047m1.88672 38.21484l-.91015-4.4375 3.46484-2.90234 4.4375-.60938v1.5l-4.4375 1.625-.46484.38672.46484 1.49219.51953 2.94531 2.90235 4.4375 1.01562.84375 1.52344-.84375 2.91406-1.14844 2.27344-3.28906-2.27344-2.27344-2.41406-2.16406-2.02344-2.01172v-1.5l3.53125 3.51172.90625.8125 3.625 3.625-1.85156 4.4375-1.77344 1.76563-4.4375 1.82031-2.04687.85156-1.57032 4.4414-.8203 1.125-.83595-1.125-.74218-4.4414 1.57812-4.03515.11719-.40235-.11719-.21875-2.55469-4.21875"/><path fill="#00e8fc" fill-rule="evenodd" d="M401.42578 433l-.46484-1.49219.46484-.38672 4.4375-1.625v3.53907l-1.0664 2.91015 1.0664 1.39453 4.4375-1.36718.01953-.02735-.01953-.01953-4.4375-2.89062v-3.53907l2.02344 2.01172 2.41406 2.16406 2.27344 2.27344-2.27344 3.28906-2.91406 1.14844-1.52344.84375-1.01562-.84375-2.90235-4.4375L401.42578 433"/><path fill="#00d4fc" fill-rule="evenodd" d="M405.86328 437.33984l-1.0664-1.39453 1.0664-2.91015 4.4375 2.89062.01953.01953-.01953.02735-4.4375 1.36718"/><path fill="#50fcfc" fill-rule="evenodd" d="M412.66016 400.4375l-.7422-4.4375 2.82032-2.73047v2.65235l-.07812.07812.07812.25.11719-.25-.11719-.07813v-2.65234L418.83984 396l-2.10937 4.4375-1.01172 4.4375 3.46094 1.52734 2.34375-1.52734.20312-4.4375L419.21875 396l4.39844-4.29297v.45703L419.68359 396l3.9336 4.17578L427.47266 396l-3.85547-3.83594v-.45703L427.92579 396l-2.46095 4.4375 2.58985 1.85938 4.4375.53906 3.71875-2.39844.71875-.71875 4.4414-2.85547v1.92969l-2.19921 1.64453-1.94922 4.4375-.29297.14844-4.4375 1.65625-4.4375-1.41797-4.4375.6836-4.4375 3.1875-.42578.18359.42578.41406 2.6914 4.02344-.6328 4.4375 2.3789 1.21875 4.4375 1.78125 4.4375-.6211 3.33984-2.3789 1.09766-.83594 4.4414-2.6836.94141-.91796 2.4375-4.4375-1.60938-4.44141-.26562-4.4375-1.5039-1.64453v-1.92969l3.26171 3.57422.16016 4.4375 1.01562 2.20703 2.17188 2.23438-2.17188 2.29296-1.28515 2.14454-3.15235 3.0625-2.80468 1.375-1.63672 1.59375-4.4375 2.03125-4.4375.47656-3.90625.33594-.53125.26171-.26563-.26171-4.17187-2.17579-2.2539-2.26171.69921-4.4375-2.88672-2.84766-1.58984-1.58984.3711-4.44141-.85938-4.4375"/><path fill="#00e8fc" fill-rule="evenodd" d="M414.73828 396.25l-.07812-.25.07812-.07813.11719.07813-.11719.25m4.4414 13.48047l-.42577-.41406.42578-.1836 4.4375-3.1875 4.4375-.6836 4.4375 1.41798 4.4375-1.65625v3.24219l-1.52344 1.05078-2.91406 1.96875-4.4375.15234-1.71875 2.3164-.26953 4.4375 1.98828 1.16407 4.4375-.86328.42187-.30078 4.01563-3.06641 2.01172-1.3711.39062-4.4375-2.40234-1.05077v-3.2422l.29297-.14843 1.94921-4.4375 2.19922-1.64453 1.50391 1.64453.26563 4.4375 1.60937 4.4414-2.4375 4.4375-.9414.91798-4.44141 2.68359-1.09766.83594-3.33984 2.3789-4.4375.6211-4.4375-1.78125-2.3789-1.21875.6328-4.4375-2.6914-4.02344m4.4375-9.55469L419.68359 396l3.9336-3.83594v.75781L420.46094 396l3.15625 3.35156L426.70703 396l-3.08984-3.07813v-.7578L427.47266 396l-3.85547 4.17578"/><path fill="#00d4fc" fill-rule="evenodd" d="M423.61719 399.35156L420.46094 396l3.15625-3.07813v.75782L421.23829 396l2.3789 2.52344L425.9453 396l-2.32812-2.32031v-.75781L426.70703 396l-3.08984 3.35156"/><path fill="#00c4fc" fill-rule="evenodd" d="M423.61719 398.52344L421.23829 396l2.3789-2.32031v.75781L422.01563 396l1.60156 1.69922L425.18359 396l-1.5664-1.5625v-.75781L425.9453 396l-2.32812 2.52344"/><path fill="#00b8fc" fill-rule="evenodd" d="M423.61719 397.69922L422.01563 396l1.60156-1.5625v.75781l-.82422.80469.82422.875.80469-.875-.8047-.80469v-.75781L425.1836 396l-1.5664 1.69922"/><path fill="#00a8fc" fill-rule="evenodd" d="M423.61719 396.875l-.82422-.875.82422-.80469v.75781L423.5703 396l.04688.05078.04297-.05078-.04297-.04688v-.7578l.80469.80468-.8047.875"/><path fill="#009800" fill-rule="evenodd" d="M423.61719 396.05078L423.5703 396l.04688-.04688.04297.04688-.04297.05078"/><path fill="#00d4fc" fill-rule="evenodd" d="M428.05469 419.35547l-1.98828-1.16406.26953-4.4375 1.71875-2.31641 4.4375-.15234 2.91406-1.96875 1.52344-1.05079 2.40234 1.05079-.39062 4.4375-2.01172 1.37109-4.01563 3.0664-.42187.30079-4.4375.86328"/><g clip-path="url(#c)"><path fill="#fff" fill-opacity="0" fill-rule="evenodd" d="M467.9961 480.32813H468V311.67188h-.0039H468v168.65625h-.0039"/></g><path fill="#fff" fill-opacity="0" fill-rule="evenodd" d="M189.76953 375.53906l4.5039 3.71875 6.33985-7.6836-4.50781-3.71874-6.33594 7.6836"/><path fill-rule="evenodd" d="M197.64063 371.4961l.39062.32421-4.0039 4.85547-.60938-.5 2.85937-3.46484-1.0703-.88281.35155-.4297.47266.3086.23047.11719.23437.07812.2461.01954.26953-.05079.29687-.13671.33203-.23829"/><path fill="#fff" fill-opacity="0" fill-rule="evenodd" d="M430.53125 427.61719l5.63281-1.55078-2.64062-9.60547-5.63281 1.55078 2.64062 9.60547"/><path fill-rule="evenodd" d="M431.75 418.85156l.49219-.13672 1.66797 6.07032-.75782.21093-1.1914-4.33203-1.33985.36719-.14453-.53516.51953-.21093.23047-.1172.19922-.14843.15625-.1875.11328-.25.0586-.32031-.00391-.41016"/><g clip-path="url(#d)"><path fill="none" stroke="#000" stroke-linecap="round" stroke-linejoin="round" stroke-miterlimit="10" stroke-width=".5" d="M146.875 482.34766l-5.75-4.03516"/></g><g clip-path="url(#e)"><path fill="none" stroke="#000" stroke-linecap="round" stroke-linejoin="round" stroke-miterlimit="10" stroke-width=".5" d="M160.13281 482.42578l-5.63672-4.1914"/></g><g clip-path="url(#f)"><path fill="none" stroke="#000" stroke-linecap="round" stroke-linejoin="round" stroke-miterlimit="10" stroke-width=".5" d="M173.42188 482.46094l-5.58204-4.26563"/></g><g clip-path="url(#g)"><path fill="none" stroke="#000" stroke-linecap="round" stroke-linejoin="round" stroke-miterlimit="10" stroke-width=".5" d="M186.94531 482.16016l-6-3.66016"/></g><g clip-path="url(#h)"><path fill="none" stroke="#000" stroke-linecap="round" stroke-linejoin="round" stroke-miterlimit="10" stroke-width=".5" d="M200.5039 481.67969l-6.48827-2.70313"/></g><g clip-path="url(#i)"><path fill="none" stroke="#000" stroke-linecap="round" stroke-linejoin="round" stroke-miterlimit="10" stroke-width=".5" d="M213.64844 482.03516l-6.14453-3.41016"/></g><g clip-path="url(#j)"><path fill="none" stroke="#000" stroke-linecap="round" stroke-linejoin="round" stroke-miterlimit="10" stroke-width=".5" d="M226.78516 482.32031l-5.78907-3.98437"/></g><g clip-path="url(#k)"><path fill="none" stroke="#000" stroke-linecap="round" stroke-linejoin="round" stroke-miterlimit="10" stroke-width=".5" d="M240.52734 481.48047l-6.64062-2.30078"/></g><g clip-path="url(#l)"><path fill="none" stroke="#000" stroke-linecap="round" stroke-linejoin="round" stroke-miterlimit="10" stroke-width=".5" d="M253.8711 481.38281l-6.70313-2.10937"/></g><g clip-path="url(#m)"><path fill="none" stroke="#000" stroke-linecap="round" stroke-linejoin="round" stroke-miterlimit="10" stroke-width=".5" d="M267.26172 481.11328l-6.85156-1.57031"/></g><g clip-path="url(#n)"><path fill="none" stroke="#000" stroke-linecap="round" stroke-linejoin="round" stroke-miterlimit="10" stroke-width=".5" d="M267.26172 481.11328l.63672 2.3711"/></g><g clip-path="url(#o)"><path fill="none" stroke="#000" stroke-linecap="round" stroke-linejoin="round" stroke-miterlimit="10" stroke-width=".5" d="M280.66406 480.32031l-7.02734.01953"/></g><g clip-path="url(#p)"><path fill="none" stroke="#000" stroke-linecap="round" stroke-linejoin="round" stroke-miterlimit="10" stroke-width=".5" d="M280.66406 480.32031l1.15625 2.16406"/></g><g clip-path="url(#q)"><path fill="none" stroke="#000" stroke-linecap="round" stroke-linejoin="round" stroke-miterlimit="10" stroke-width=".5" d="M293.96484 480.6289l-7-.60156"/></g><g clip-path="url(#r)"><path fill="none" stroke="#000" stroke-linecap="round" stroke-linejoin="round" stroke-miterlimit="10" stroke-width=".5" d="M293.96484 480.6289l.96485 2.25782"/></g><g clip-path="url(#s)"><path fill="none" stroke="#000" stroke-linecap="round" stroke-linejoin="round" stroke-miterlimit="10" stroke-width=".5" d="M307.2539 480.8711l-6.9453-1.08594"/></g><g clip-path="url(#t)"><path fill="none" stroke="#000" stroke-linecap="round" stroke-linejoin="round" stroke-miterlimit="10" stroke-width=".5" d="M307.2539 480.8711l.80079 2.3203"/></g><g clip-path="url(#u)"><path fill="none" stroke="#000" stroke-linecap="round" stroke-linejoin="round" stroke-miterlimit="10" stroke-width=".5" d="M320.5664 480.8711l-6.9414-1.08204"/></g><g clip-path="url(#v)"><path fill="none" stroke="#000" stroke-linecap="round" stroke-linejoin="round" stroke-miterlimit="10" stroke-width=".5" d="M320.5664 480.8711l.8047 2.3164"/></g><g clip-path="url(#w)"><path fill="none" stroke="#000" stroke-linecap="round" stroke-linejoin="round" stroke-miterlimit="10" stroke-width=".5" d="M333.92188 480.39844l-7.02344-.14063"/></g><g clip-path="url(#x)"><path fill="none" stroke="#000" stroke-linecap="round" stroke-linejoin="round" stroke-miterlimit="10" stroke-width=".5" d="M332.90234 480.3789l.5547 1.09376"/></g><g clip-path="url(#y)"><path fill="none" stroke="#000" stroke-linecap="round" stroke-linejoin="round" stroke-miterlimit="10" stroke-width=".5" d="M347.23438 480.1289l-7.01563.39844"/></g><g clip-path="url(#z)"><path fill="none" stroke="#000" stroke-linecap="round" stroke-linejoin="round" stroke-miterlimit="10" stroke-width=".5" d="M346.21484 480.1875l.63282 1.05078"/></g><g clip-path="url(#A)"><path fill="none" stroke="#000" stroke-linecap="round" stroke-linejoin="round" stroke-miterlimit="10" stroke-width=".5" d="M360.32813 479.08984l-6.57422 2.47657"/></g><g clip-path="url(#B)"><path fill="none" stroke="#000" stroke-linecap="round" stroke-linejoin="round" stroke-miterlimit="10" stroke-width=".5" d="M359.3711 479.44922l.92187.8125"/></g><g clip-path="url(#C)"><path fill="none" stroke="#000" stroke-linecap="round" stroke-linejoin="round" stroke-miterlimit="10" stroke-width=".5" d="M372.9375 477.94531l-5.16406 4.76563"/></g><path fill="none" stroke="#000" stroke-linecap="round" stroke-linejoin="round" stroke-miterlimit="10" stroke-width=".5" d="M372.1875 478.64063l1.15625.40625"/><g clip-path="url(#D)"><path fill="none" stroke="#000" stroke-linecap="round" stroke-linejoin="round" stroke-miterlimit="10" stroke-width=".5" d="M386.01563 477.71094l-4.6875 5.23437"/></g><path fill="none" stroke="#000" stroke-linecap="round" stroke-linejoin="round" stroke-miterlimit="10" stroke-width=".5" d="M385.33203 478.47266l1.1914.29297"/><g clip-path="url(#E)"><path fill="none" stroke="#000" stroke-linecap="round" stroke-linejoin="round" stroke-miterlimit="10" stroke-width=".5" d="M398.57422 477.19531l-3.17578 6.26953"/></g><g clip-path="url(#F)"><path fill="none" stroke="#000" stroke-linecap="round" stroke-linejoin="round" stroke-miterlimit="10" stroke-width=".5" d="M413.80078 480.02734l-7 .60157"/></g><g clip-path="url(#G)"><path fill="none" stroke="#000" stroke-linecap="round" stroke-linejoin="round" stroke-miterlimit="10" stroke-width=".5" d="M426.76172 481.89453l-6.29297-3.1289"/></g><g clip-path="url(#H)"><path fill="none" stroke="#000" stroke-linecap="round" stroke-linejoin="round" stroke-miterlimit="10" stroke-width=".5" d="M440.17578 481.67578l-6.48828-2.69531"/></g><g clip-path="url(#I)"><path fill="none" stroke="#000" stroke-linecap="round" stroke-linejoin="round" stroke-miterlimit="10" stroke-width=".5" d="M453.57813 481.4414l-6.66407-2.22265"/></g><g clip-path="url(#J)"><path fill="none" stroke="#000" stroke-linecap="round" stroke-linejoin="round" stroke-miterlimit="10" stroke-width=".5" d="M452.60938 481.11719l.20312 1.21094"/></g><g clip-path="url(#K)"><path fill="none" stroke="#000" stroke-linecap="round" stroke-linejoin="round" stroke-miterlimit="10" stroke-width=".5" d="M466.67188 481.96484l-6.21875-3.27343"/></g><g clip-path="url(#L)"><path fill="none" stroke="#000" stroke-linecap="round" stroke-linejoin="round" stroke-miterlimit="10" stroke-width=".5" d="M146.67578 469.28906l-5.35156-4.55078"/></g><path fill="none" stroke="#000" stroke-linecap="round" stroke-linejoin="round" stroke-miterlimit="10" stroke-width=".5" d="M146.67578 469.28906l-.52734 2.39844m-.25-3.0586l-.26563 1.19923m14.39063-.57422l-5.41797-4.48047m5.41797 4.48047l-.49219 2.40234m-.29688-3.05469l-.24609 1.20313m14.48047-.71875l-5.67578-4.14063m5.67578 4.14063l-.34766 2.42578m14.00782-3.01563l-6.3672-2.96484m6.3672 2.96484l.1328 2.44922m13.41407-3.09765l-6.82812-1.66797m5.83203 1.42578l.30469 1.1875m13.72265-.1836l-6.26172-3.1914m6.26172 3.1914l.04297 2.45313m13.39063-2.71094l-6.5-2.67578m6.5 2.67578l.24218 2.4414m13.33203-3.59765l-7.01953-.36328m7.01953.36328l1.03516 2.22657m12.23047-1.78907l-6.91797-1.23828m6.91797 1.23828l.7539 2.33203m12.58594-2.51562l-6.97265-.8711m5.96093.7461l.4375 1.14453m13.77735-.47266l-6.7461-1.96484m5.76563 1.67969l.25 1.20312m14.17578-1.625l-7.0039-.55078m5.98437.47266l.48828 1.125m13.85547-1.46485l-7.02344.28516m6-.24219l.6211 1.0586m13.55078-2.03125l-6.69141 2.14453m5.71875-1.83203l.8789.85547m12.85157-2.23438l-5.57422 4.27734m4.76172-3.65625l1.11719.50782m12.04687-1.9922l-3.65234 6.00392m3.1211-5.12891l1.22655.07031m11.66016-1.34765l-1.73047 6.80859m1.48047-5.82031l1.1914-.28907m11.77735-.79687l-.53906 7.0039m.46094-5.98437l1.125-.49219m12.79296-.44922l-1.58984 6.84766m1.35938-5.85156l1.18359-.3164m8.05469 2.78124l7.02734-.07422m6.79297-1.78125l6.01562 3.63672m-5.14062-3.10547l.07031-1.22656m14.0664-.7461l2.625 6.51954m-2.24218-5.57031l.78906-.9375m15.8711.6953l-4.83203 5.10548m15.5625-6.0625l.33593 7.01953m15.4336-.84375l-4.57422-5.33203m3.91015 4.55859l-.4453 1.14063"/><g clip-path="url(#M)"><path fill="none" stroke="#000" stroke-linecap="round" stroke-linejoin="round" stroke-miterlimit="10" stroke-width=".5" d="M146.4375 456.23047l-4.875-5.0625"/></g><path fill="none" stroke="#000" stroke-linecap="round" stroke-linejoin="round" stroke-miterlimit="10" stroke-width=".5" d="M146.4375 456.23047l-.76563 2.33203m14.42579-2.71875l-5.56641-4.28906m5.5664 4.28906l-.40624 2.41797m14.40234-3.96485l-6.92578-1.1953m6.92578 1.1953l.76563 2.32813m12.59375-2.71875l-7.01563-.41406m5.9961.35156l.5078 1.11719m13.82813-1.41406l-7.01953.30078m6-.25391l.6211 1.05469m13.71093-.72656l-7.01172-.44532m5.99219.3789l.5039 1.1172m13.83594-1.20313l-7.02343-.14062m6.0039.12109l.55078 1.09375m13.6836-1.99219l-6.82031 1.69531m5.82812-1.44921l.8164.91406m13.46094-1.26172l-6.76562 1.89453m5.78125-1.61719l.84766.88672m13.54296.3086l-6.94922-1.04688m5.94141.89453l.40625 1.15625m13.73047-.28906l-6.57422-2.47656m5.61719 2.11719l.16016 1.21484m14.01562-.625l-6.38281-2.9375m5.45703 2.50781l.07031 1.22656m14.3789-1.37109l-6.79687-1.78906m5.8086 1.52734l.28125 1.19531m14.01953-2.73437l-6.78906 1.8125m5.80078-1.55078l.83593.89844m8.01563 2.59375l4.10937-5.69922m8.01172 1.51172l6.4961 2.67968m6.875-2.80468l6.38671 2.92968m-5.45703-2.5039l-.0703-1.22657m13.33202-.375l4.63672 5.28125m-3.96484-4.51171l.4336-1.14844m12.22655.36328l4.59766 5.3125m-4.59766-5.3125l.88672-2.28906m11.2539 4.41797l6.94923 1.05468m-5.9375-.90234l-.40625-1.15625m12.67187 1.60156l7.02344-.14062m-6 .12109l-.59766-1.07422m13.83204 3.42188l5.13671-4.79688m7.94922 4.52344l5.59766-4.25m-4.78125 3.63281l-1.11328-.51562m13.6875 1.23047l5.44531-4.44532m-4.65234 3.79688l-1.13282-.47656m13.96094 1.45312l4.83203-5.10156m-4.1289 4.35937l-1.1797-.32812"/><g clip-path="url(#N)"><path fill="none" stroke="#000" stroke-linecap="round" stroke-linejoin="round" stroke-miterlimit="10" stroke-width=".5" d="M146.6211 442.72266l-5.2422-4.67578"/></g><path fill="none" stroke="#000" stroke-linecap="round" stroke-linejoin="round" stroke-miterlimit="10" stroke-width=".5" d="M146.6211 442.72266l-.57813 2.3828m14.14062-2.6914l-5.73828-4.0586m4.90235 3.46485l-.15235 1.21875m14.85547-1.85547l-6.83984-1.60156m5.84375 1.3711l.3164 1.18359m14.08203-1.95313l-7.01562.40235m5.9961-.34375l.63671 1.04687m13.60156-1.7539l-6.8203 1.6953m5.82812-1.4453l.82031.91015m13.58984-.39453l-7.02734.16406m6.0039-.14062l.60157 1.07031m13.6914-1.5625l-6.9375 1.10156m5.9297-.9414l.73827.98047m13.39063-1.8672l-6.54688 2.5547m5.59375-2.1836l.9297.80078m13.5664-.16796l-7.0039.54687m5.98437-.46875l.66015 1.03516m13.58594-.01563l-6.83203-1.64453m5.83984 1.40234l.30469 1.1875m14.08984-1.48046l-7.0039-.57422m5.98437.48828l.48438 1.1289m13.78515-.60156l-6.875-1.46094m5.875 1.25l.33985 1.1797m9.94531 1.76562l1.1875-6.92578m11.57812 6.78515l2.28516-6.64453m10.61328.17188l3.1211 6.29687m9.2539-5.61719l4.9961 4.9414m-4.26954-4.22265l.35547-1.17578m14.27735-.5586l.91015 6.96876m-.77734-5.95313l1-.71093m11.34766-.08594l2.58203 6.53515m-2.20703-5.58593l.79687-.9336m10.20703 1.85547l6.44922 2.78906m-5.51172-2.3828l-.09765-1.22266m12.25 1.55468l6.90234 1.3125m-5.89844-1.1211l-.36328-1.17187m12.65234 1.11329l6.94922 1.04687m-5.9375-.89453l-.41015-1.15625m12.89062.3125l6.59375 2.4336m-5.63281-2.08204l-.16797-1.21484m12.77734 3.83984l6.08204-3.52344m-5.19532 3.01172l-1.04297-.64843m14.05079 1.91015l4.92187-5.01953m-4.92187 5.01953l-2.35157-.69531m15.5625.58203l5.13282-4.79688m-5.13282 4.79688l-2.32422-.79688"/><g clip-path="url(#O)"><path fill="none" stroke="#000" stroke-linecap="round" stroke-linejoin="round" stroke-miterlimit="10" stroke-width=".5" d="M146.44922 429.58984l-4.89844-5.03906"/></g><path fill="none" stroke="#000" stroke-linecap="round" stroke-linejoin="round" stroke-miterlimit="10" stroke-width=".5" d="M145.73438 428.85547l-.375 1.16797m15.4375-2.49219l-6.96485-.92578m5.95313.79297l.42578 1.14843m13.79687-2.4453l-6.75781 1.93359m5.77734-1.65235l.84766.88281m13.58203-.16015l-7.02344-.07422m6.00391.0625l.5625 1.08984m13.76563-.89062l-7.01172-.44922m5.99218.38281l.50782 1.11719m9.8789 2.21094l.88281-6.97266m-.7539 5.95703l-1.14453.4375m17.75781-1.05078l-5.96875-3.71094m15.60547-1.58984l1.38672 6.88672m11.54297-6.78906l2.15625 6.6914m10.8203-6.5586l2.83595 6.42579m15.1328-1.83984l-6.46874-2.7461m17.57031 1.375l-.01953-.20312-.0586-.1914-.09374-.17579-.46094-.375-.1914-.0586-.19923-.01952-.19921.01953-.19141.05859-.45703.375-.09766.17578-.05469.1914-.01953.20313.01953.19922.0547.1914.09765.17579.45703.375.1914.0586.19922.01952.19922-.01953.1914-.0586.46095-.375.09375-.17577.05859-.1914.01953-.19923m13.3164 0l-.01952-.20312-.0586-.1914-.09375-.17579-.46093-.375-.19141-.0586-.19922-.01952-.19922.01953-.1914.05859-.46094.375-.09375.17578-.0586.1914-.01953.20313.01953.19922.0586.1914.09375.17579.46094.375.1914.0586.19922.01952.19922-.01953.1914-.0586.46094-.375.09375-.17577.0586-.1914.01953-.19923m8.94922 1.08594l6.68359-2.17578m6.65234-.0625l6.64063 2.30078m10.47266-4.63281l-.95313 6.96484m.8125-5.94922l1.15234-.42578m14.375.47266l-5.09765 4.83984m4.35547-4.13672l1.16406.39063m10.13281-2.17969l.42188 7.01172m12.05078-6.85547l2.10937 6.70313m13.59766-6.60157l-2.67578 6.4961m2.28515-5.55078l1.22266-.1211m14.32031 3.92578l-6.35156-3.0039m19.83203 2.58593l-6.6836-2.16796m5.71095 1.85156l.21484 1.20703m13.60937.04297l-5.7539-4.03516m4.91406 3.44922l-.14844 1.21875m9.21485-5.38281l4.42187 5.46484m8.4375-.44531l5.33594-4.57422m-4.5625 3.90625l-1.14063-.44531"/><g clip-path="url(#P)"><path fill="none" stroke="#000" stroke-linecap="round" stroke-linejoin="round" stroke-miterlimit="10" stroke-width=".5" d="M146.28125 416.42578l-4.5625-5.34375"/></g><path fill="none" stroke="#000" stroke-linecap="round" stroke-linejoin="round" stroke-miterlimit="10" stroke-width=".5" d="M145.61719 415.64844l-.44922 1.14062m15.07812-1.09765l-5.85937-3.87891m5.0039 3.3164l-.11718 1.22266m12.71875-5.83593l-2.72266 6.47656m2.32422-5.53516l1.22266-.10937m10.9453-1.10157l.3672 7.01563m-.3125-5.9961l1.05078-.6328m8.88281 3.26171l7.01953-.28125m-6 .23828l-.61719-1.0586m12.91016 1.03126l7.02734-.14063m-7.02734.14063l-1.19531-2.14063m14.9336 3.73829l6.17968-3.33594m-5.28125 2.85156l-1.02344-.67969m13.92578 1.85547l5.20703-4.71875m-4.44922 4.03125l-1.15234-.41406m14.3711 1.67187l3.8828-5.85937m-3.3164 5.0039l-1.22266-.11718m12.98829-.01172l5.85156-3.89453m-5 3.32812l-1.07813-.58203m14.90235 2.34766l3.13281-6.28906m-2.67969 5.375l-1.22656.03125m12.9414-.02735l5.42188-4.46875m7.85156.05078l5.50782 4.36719m10.21484-5.67969l.6914 6.99219m14.56641-6.625l-3.19531 6.25781m2.73047-5.34765l1.22656-.01953m14.4336 1.73437l-6.95313 1.00781m5.9414-.85937l.72657.98828m13.42578.5664l-6.60547-2.40234m5.64453 2.05469l.17188 1.21484m13.48828-4.33203l-5.3711 4.53125m4.58985-3.8711l1.13672.45704m13.73047.51562l-6.91407 1.26563m6.91407-1.26563l1.52343 1.92188m11.38672-3.02734l-6.10547 3.47656m5.21875-2.97266l1.03516.65625m10.38672-2.92578l-.54688 7.00781m.46875-5.98828l1.125-.48828m10.51954-.21484l2.94921 6.375m-2.51953-5.44922l.74219-.97656m12.7461 6.64062l1.74609-6.80469m15.4375 1.5625l-5.98828 3.67969m5.11718-3.14453l1.0547.6211m13.61718.19921l-6.96094.96875m5.94531-.82812l.72266.99218"/><g clip-path="url(#Q)"><path fill="none" stroke="#000" stroke-linecap="round" stroke-linejoin="round" stroke-miterlimit="10" stroke-width=".5" d="M147.14063 398.86328l-6.28125 3.15235"/></g><path fill="none" stroke="#000" stroke-linecap="round" stroke-linejoin="round" stroke-miterlimit="10" stroke-width=".5" d="M158.03516 397l-1.44141 6.8789m15.70313-6.53124l-3.33594 6.18359m2.85156-5.28516l1.22656.00782m13.84375.2578l-5.875 3.85157m5.01953-3.28906l1.07813.58984m7.13281-1.01562l6.04688 3.57812m-5.16797-3.0586l.05469-1.22265m12.0078 1.58594l6.78907 1.8125m13.22266.29688l-6.60157-2.40625m5.64063 2.05859l.17187 1.21484m13.84375-.3125l-6.08203-3.51562m5.19922 3.0039l-.04297 1.22657m14.6875-2.04297l-6.97265-.85938m5.95703.73438l.4414 1.14453m13.91407-1.4961l-7.02344.09766m7.02344-.09765l1.18359 2.14843m12.11719-1.77734l-6.9961-.64453m6.9961.64453l.94922 2.26172m12.3789-2.71485l-7.02344.25782m7.02344-.25782l1.23047 2.125m12.0586-2.45312l-6.96876.91406m5.95313-.78125l.71094 1m13.64843-.67578h-7.02734m6.0039 0l.57813 1.08594m13.64453-1.98047l-6.79687 1.78906m6.79687-1.78906l1.66407 1.80078m11.73437-1.375l-6.96484.9375m6.96484-.9375l1.4336 1.99219m11.91406-1.52344h-7.02735m6.00391 0l.57812 1.08594m11.6875 2.1211l-2.8789-6.41017m2.46094 5.47657l-.75391.96875m16.5586-3.17578l-7.02344-.12891m6 .10938l.55859 1.09375m13.24219-3.01172l-5.94922 3.74609m5.08203-3.20313l1.0664.60938m9.83594 4.21875l.61328-7M426.82422 399l-6.41406 2.875m6.41406-2.875l1.9375 1.50781m11.66015.32813l-6.98046-.79688m5.96484.6836l.44922 1.14062m12.80469-3.97656l-4.82813 5.10547m4.125-4.36328l1.1836.32421m13.78515.46485l-6.72656 2.03906m5.7461-1.74219l.86718.8711"/><g clip-path="url(#R)"><path fill="none" stroke="#000" stroke-linecap="round" stroke-linejoin="round" stroke-miterlimit="10" stroke-width=".5" d="M146.75781 384.94531l-5.51562 4.35547"/></g><path fill="none" stroke="#000" stroke-linecap="round" stroke-linejoin="round" stroke-miterlimit="10" stroke-width=".5" d="M145.95703 385.57813l1.1211.49609m13.33984 2.69922l-6.20313-3.30078m5.30078 2.8203l-.0039 1.22657m14.58594-1.83203l-6.9375-1.125m5.92968.96094l.39453 1.16015m13.96485-1.28515l-7.00781-.55078m7.0078.55078l.97657 2.25m12.33203-2.84375l-6.9961.63672m5.98048-.54297l.67187 1.02344m11.48047 2.45703l-2.63672-6.51172m17.92578 4.47656l-6.58984-2.4414m6.58984 2.4414l.32813 2.42969m12.85156-5.1875l-6.3164 3.07422m6.3164-3.07422l1.98438 1.44531m-2.90235-.9961l.99219.72266m13.51172-.39844l-6.85938 1.52735m6.85938-1.52735l1.59766 1.86329m-2.59375-1.64063l.79687.92969m13.59766-.28516l-7.02344-.20703m7.02344.20703l1.08984 2.19922m12.22266-2.4414l-7.01953.27734m6-.23828l.61718 1.0586m13.625-1.77345l-6.83594 1.62891m6.83594-1.6289l1.625 1.83984m11.76953-1.3789l-6.99218.70702m6.99218-.70703l1.36329 2.03906m11.86718-2.52343l-6.82422 1.67578m5.83204-1.42969l.8164.91406m8.57031-3.4961l3.01563 6.34767m-2.57422-5.42188l.73047-.98828m14.23047-.23047l-1.15625 6.9336m16.94922-5.19923l-6.11329 3.46485m5.22266-2.96094l1.03516.66016m13.57422 1.17578l-6.92188-1.21485m5.91406 1.03907l.38282 1.16797m13.90234-2.39844l-6.84375 1.59765m5.84766-1.36328l.80859.92188m7.59375-2.83985l4.97266 4.96875m-4.2461-4.24609l.35547-1.17578m18.14844 2.17188l-6.85938 1.52734m5.86329-1.30469l.79687.9336m12.75781-2.67579l-5.34375 4.56641m4.5664-3.90234l1.14063.44921m13.71094 1.92579L433.5 386.36719m5.86328 1.29297l.33203 1.17968m13.85547-2.91796l-6.60547 2.40234m16.9961 2.29297l-.75782-6.98828"/><g clip-path="url(#S)"><path fill="none" stroke="#000" stroke-linecap="round" stroke-linejoin="round" stroke-miterlimit="10" stroke-width=".5" d="M147.47656 374.3086l-6.95312-1"/></g><path fill="none" stroke="#000" stroke-linecap="round" stroke-linejoin="round" stroke-miterlimit="10" stroke-width=".5" d="M147.47656 374.3086l.83203 2.30859m12.32813-1.66406l-6.64453-2.28907m6.64453 2.28906l.38281 2.42188m13.1211-3.47656l-7.02344-.17969m6.0039.15234l.54688 1.09766m12.99219-3.39063l-5.4297 4.46094m4.64063-3.8125l1.13282.46875m13.33203-.58203l-6.15235 3.39063m5.25782-2.89844l1.02734.67187m13.0625-1.37109l-5.91016 3.80469m5.91016-3.80469l2.14063 1.19922m10.51562 3.36328l-4.59375-5.32031m3.92578 4.54687l-.44531 1.14063m15.55469-3.8125l-6.84766 1.57031m6.84766-1.57031l1.60937 1.85156m11.40625-2.67188l-6.25 3.21094m5.33984-2.7461l1.00782.69923m13.08594-1.40235l-5.98438 3.6875m5.98438-3.6875l2.11718 1.2422m11.60156-.29688l-6.79296 1.79687m5.80468-1.53515l.83594.89843m8.4414 2.85156l3.26173-6.22656m14.91797 1.74219l-6.46875 2.73828m5.52734-2.33984l.95312.77344m13.14063 1.90234l-6.14453-3.40625m5.25 2.91015l-.01953 1.22657m8.17578-4.29297l5.96094 3.71875m-5.09375-3.17578l.08593-1.22656m11.84375 2.86718l7-.64844m-5.98047.5547l-.67578-1.02735m13.70703 2.96875l5.52735-4.34375m13.63281 3.85937l-6.16406-3.375m5.26953 2.88282l-.01563 1.22656m14.4961-1.36719L380.3203 372.75m5.72657 1.8086l.22265 1.20312m14.125-1.10156l-6.8164-1.70313m6.8164 1.70313l.59375 2.3828m11.96875-5.53515l-5.3125 4.60156m4.53906-3.92968l1.14454.4414m10.77343-2.29296l-.96875 6.96093m14.85938-.13281l-2.125-6.69531m12.83203.1914l3.09375 6.3086m-2.64453-5.39063l.71875-.99219m16.77344 1.53907l-6.16016 3.3789"/><g clip-path="url(#T)"><path fill="none" stroke="#000" stroke-linecap="round" stroke-linejoin="round" stroke-miterlimit="10" stroke-width=".5" d="M147.51172 360.53906l-7.02344-.08984"/></g><path fill="none" stroke="#000" stroke-linecap="round" stroke-linejoin="round" stroke-miterlimit="10" stroke-width=".5" d="M147.51172 360.53906l1.125 2.17969m-2.14453-2.1914l.5625 1.08984m13.76562-.89844l-7.01172-.44922m7.01172.44922l1.01172 2.23438m12.30469-2.25l-7.01563-.42188m7.01563.42188l1.01953 2.23046m12.28906-2.73828l-7 .59766m7-.59766l1.33203 2.0625m11.8047-2.91406l-6.64063 2.30078m6.64062-2.30078l1.79688 1.66797m-2.76563-1.33203l.89844.83203m13.44531.9375l-6.76172-1.91406m6.76172 1.91406l.51953 2.39844m12.89844-3.79688l-6.96875.88281m6.96875-.8828l1.41406 2.0078m10.50781 1.25782l-4.18359-5.64454m3.57422 4.82422l-.52734 1.10547m15.86718-3.29687l-7.01562.3789m7.01562-.3789l1.26953 2.09765m-2.28906-2.04296l.63281 1.05078m13.65625-.3125l-6.92187-1.20704m6.92188 1.20704l.76171 2.33203m11.98047-.9336l-5.77344-4.0078m5.77344 4.0078l-.28906 2.4375m13.55469-2.37109l-5.67969-4.14063m5.67969 4.14063l-.34375 2.42969m13.07812-1.8086l-4.51562-5.3828m3.85937 4.60155l-.46094 1.13672m11.3672.375l1.61327-6.83984m-1.3789 5.84375l-1.1836.3125m18.53125-3.35938l-6.91797 1.2422m5.91016-1.0586l.75781.96094m7.00782-2.1797l6.1953 3.3125m-5.29687-2.82812l.00391-1.22656m12.08984 1.60156l6.83985 1.59766m-5.84766-1.36719l-.3125-1.1836m13.34375 3.98829l5.42188-4.47266m-4.63282 3.82031l-1.1328-.46875m19.64062-2.39843l-6.54297 2.5664m16.83984 2.21875l-.5039-7.0078m.42968 5.98827l-1.03906.65235m17.67187-3.47657l-6.99218.6836m5.97656-.58594l.67969 1.02344m13.61328-1.41406l-6.91406 1.26562m6.91406-1.26563l1.51953 1.92579m11.5664-2.6797l-6.45703 2.77735m5.51563-2.375l.95703.76953m12.09766-2.65234l-4.05469 5.73828m3.46484-4.90625l1.21875.15625m7.56641 3.54688l6.1836-3.33594"/><g clip-path="url(#U)"><path fill="none" stroke="#000" stroke-linecap="round" stroke-linejoin="round" stroke-miterlimit="10" stroke-width=".5" d="M147.51172 347.17969h-7.02344"/></g><path fill="none" stroke="#000" stroke-linecap="round" stroke-linejoin="round" stroke-miterlimit="10" stroke-width=".5" d="M147.51172 347.17969l1.15234 2.16406m12.07813-1.39063l-6.85547-1.55078m6.85547 1.55079l.64453 2.37109m12.35156-1.51172l-6.21875-3.26953m5.3164 2.79297l.00391 1.22656m14.39844-1.16406l-6.58594-2.4414m5.62891 2.08593l.16406 1.21875m13.13672.55469l-4.64453-5.27735m4.64453 5.27735l-.86719 2.29687m15.3711-5.0664l-7.02344.26562m6.0039-.23047l.61329 1.0625m13.64844-.25l-6.87891-1.4336m5.8789 1.22657l.34375 1.17578m13.96094-.90625l-6.85156-1.5586m6.85156 1.5586l.64063 2.36719m12.54297-1.92578l-6.58985-2.4375m5.6289 2.08203l.16798 1.21484m14.07031-.76172l-6.51563-2.63671m5.56641 2.2539l.1289 1.21875m14.20313-1.01953l-6.65234-2.26953m6.65234 2.26953l.38672 2.42578m12.70703-1.91797l-6.21093-3.28515m6.21093 3.28515l.0039 2.45703m12.16017-1.17968l-3.90625-5.83985m3.33593 4.99219l-.57812 1.07813m13.38281.2539l-1.7461-6.8086m1.7461 6.8086l-1.8125 1.65235m12.78516-1.8672l2.9414-6.3789m-2.9414 6.3789l-2.44922.14063m18.1914-6.71094l-1.91796 6.76172m1.64062-5.77734l1.19922-.25781m9.26562-.10938l4.33985 5.52735m-4.33985-5.52735l.9922-2.24219m15.54687 1.65625l-2.10938 6.70313m1.80469-5.73047l1.20703-.22265m9.08984 5.28125l4.53907-5.36329m-3.87891 4.58204l-1.19922-.25782m16.875-5.07422l-1.5039 6.86329m1.28515-5.86329l1.1836-.33203m15.0625 3.33985l-6.9297-1.15235m5.92188.98438l.39063 1.16406m13.6211-3.125l-6.3047 3.10547m6.3047-3.10547l1.98827 1.4375m11.1836-1.69922l-6.01953 3.6289m6.01953-3.6289l2.10547 1.25781m11.53125-.5625l-6.66407 2.23829m6.66407-2.23829l1.78125 1.6875m10.74218-2.99609l-5.07812 4.85547m4.33984-4.14844l1.16406.38281"/><g clip-path="url(#V)"><path fill="none" stroke="#000" stroke-linecap="round" stroke-linejoin="round" stroke-miterlimit="10" stroke-width=".5" d="M147.46875 333.30469l-6.9375 1.11719"/></g><path fill="none" stroke="#000" stroke-linecap="round" stroke-linejoin="round" stroke-miterlimit="10" stroke-width=".5" d="M147.46875 333.30469l1.48047 1.95703m-2.48828-1.79297l.73828.97656m13.625-.72656l-7.01953.28906m7.01953-.28906l1.24219 2.11719m11.65625-.3086l-6.1875-3.32812m6.1875 3.32812l-.01172 2.45313m10.875-.66406l-1.28125-6.91016m11.30078 5.75781l5.3086-4.60156m-4.53516 3.9336l-1.14453-.44141m18.19921 1.78906l-3.71484-5.96484m3.17188 5.09765l-.61329 1.0625m15.28125-5.46094l-5.33593 4.57032m4.55859-3.90625l1.14453.44531m12.7539-1.32031l-4.94921 4.99219m4.23047-4.26563l1.17187.35156m6.89453 1.79297l6.98828-.75m-5.97265.64063l-.6875-1.01563m18.03906 3.89844l-3.1211-6.29688m3.1211 6.29688l-1.42578 1.99219m16.66406-4.6836l-6.96484-.91406m5.95312.78125l.4297 1.14844m11.80858 1.7539l-2.78515-6.45312m2.3789 5.51172l-.76562.96094m15.52344-.70704l-4.85938-5.07812m4.85938 5.07812l-.76953 2.32813m12.30078-1.41406l-1.28906-6.90625m1.28906 6.90625l-1.92188 1.53125m14.17578-1.4961l.83204-6.97656m-.83204 6.97656l-2.28906.88672m14.22266-7.39453l3.59375 6.03906m-3.07031-5.16015l.63671-1.05079m10.5 3.85938l6.90235-1.33594m-5.89844 1.14063l-.76953-.95313m13.46484 2.19531l6.13281-3.43359m-5.23828 2.9375l-1.03125-.66406m13.25.73437l6.53907-2.57812m-6.53907 2.57812l-1.86718-1.59375m18.61328 3.8125l-.32422-7.01953m16.86328 2.57422l-6.77344 1.875m5.78906-1.60156l.84375.89062m11.8672-3.24609l-3.59766 6.03906m3.07421-5.16015l1.22657.05859m14.125.90234l-6.6211 2.35938m5.65625-2.01563l.90625.82813m13.56641-.26563l-7.00781.54688m7.00781-.54688l1.3164 2.06641m10.17188-4.8789l-3.35547 6.17187m2.86719-5.27344l1.22656.00781"/><g clip-path="url(#W)"><path fill="none" stroke="#000" stroke-linecap="round" stroke-linejoin="round" stroke-miterlimit="10" stroke-width=".5" d="M147.42188 319.74219l-6.84375 1.60937"/></g><path fill="none" stroke="#000" stroke-linecap="round" stroke-linejoin="round" stroke-miterlimit="10" stroke-width=".5" d="M147.42188 319.74219l1.61718 1.84765m-2.61328-1.61328l.8086.92188m13.25-1.8711l-6.33594 3.03907m6.33594-3.03907l1.97265 1.45704m11.52734-.97657l-6.71093 2.08203m5.73437-1.78125l.8711.86329m13.57812-.08204l-7.02344-.08593m6.00391.07421l.5625 1.08985m13.75-1.53516l-6.98047.82813m6.98047-.82813l1.39844 2.01953m-2.41406-1.89843l.69921 1.0078m13.59375-1.36327l-6.90625 1.30078m6.90625-1.30078l1.53516 1.91406m-2.53906-1.72656l.76562.96094m13.53906-1.21875l-6.875 1.4414m6.875-1.4414l1.57422 1.8828m-2.57422-1.67577l.78516.9453m13.17578-2.11718l-6.16797 3.3711m6.16797-3.3711l2.05078 1.34766m-2.94922-.85938l2.05079 1.35156m12.42578-1.23046l-6.6914 2.14843m6.6914-2.14843l1.75781 1.71093m-2.73438-1.39843l.88282.85546m13.5586-.43359l-6.9922.6836m6.9922-.6836l1.35937 2.04297m11.96484-1.9336l-7.01172.46094m5.99219-.39062l.64453 1.04297m6.98047.5625l6.40625-2.89063m-5.47266 2.47266l-.97265-.75m13.54687-2.08594l6.02344 3.6211m-5.14844-3.09375l.0664-1.22657m12.01563 3.51172l6.73828-2.0039m-6.73828 2.0039l-1.71875-1.75m19.21875 4.16406l-1.6289-6.83593m1.6289 6.83593l-1.83984 1.625m1.60156-2.61718l-.91797.80859m15.375-.17188l-3.4414-6.125m2.9414 5.23438l-.66015 1.03516m16.03125-1.9375l-6.55079-2.53516m6.55079 2.53516l.29296 2.4375m13.21094-4.30079l-6.92578 1.19141m16.51172 2.90625l.53125-7.00781m-.45703 5.98828l-1.1211.49219m16.41016.05078l-3.5664-6.05078m3.04687 5.17187l-.64063 1.04297m16.16797-2.6914l-6.95312-1m5.9414.85546l.41797 1.15235m6.96094-2.03906l6.94531 1.0664m-5.93359-.91406l-.40625-1.15625m15.86719 5.03515l.6289-7m-.53906 5.98047l-1.1289.48047m17.39062-.73828l-5.4414-4.44531m4.64843 3.80078l-.23828 1.20313m13.95312-5.41016l-4.66015 5.25781m3.98437-4.49219l1.19141.28907"/><path fill="#00f" fill-rule="evenodd" d="M161.88281 454.33203H170.5V444.1875h-8.61719v10.14453"/><path fill="azure" fill-rule="evenodd" d="M163.71484 446.01953h.83203v2.82422h3.28907v-2.82422h.83203V452.5h-.83203v-2.91406h-3.28906V452.5h-.83204v-6.48047"/><path fill="#00f" fill-rule="evenodd" d="M388.23828 436.57813h8.61719v-10.14454h-8.61719v10.14454"/><path fill="azure" fill-rule="evenodd" d="M390.07031 428.26563h.83594v2.82421h3.28516v-2.82421h.83203v6.48046h-.83203v-2.91406h-3.28516v2.91406h-.83594v-6.48046"/><path fill="#00f" fill-rule="evenodd" d="M201.82813 396.63281h8.61718v-10.14453h-8.61719v10.14453"/><path fill="azure" fill-rule="evenodd" d="M203.66016 388.32031h.83203v2.82422h3.28906v-2.82422h.83203v6.48047h-.83203v-2.91406h-3.28906v2.91406h-.83203v-6.48047"/><path fill="#ff3030" fill-rule="evenodd" d="M451.07031 343.375h7.6914v-10.14844h-7.6914V343.375"/><path fill="azure" fill-rule="evenodd" d="M452.90234 335.0625h.83204v5.73828h3.1953v.74219h-4.02734v-6.48047"/><path fill="#ffffe0" fill-rule="evenodd" d="M259.33203 365.79688h22.17969v-10.19141h-22.17969v10.1914"/><path fill-rule="evenodd" d="M262.83203 357.4375h.50781v6.29688h-.78515v-4.4922h-1.39063v-.55468l.5625-.0664.25-.05079.23047-.08984.20313-.14063.17578-.21093.14062-.29688.10547-.39453m4.8125 0l.23047.01953.21875.05469.20703.08984.19531.1211.1875.14843.16797.17579.30469.42187.24219.49219.17969.54687.11328.57813.03515.59375-.03515.58984-.11329.58594-.17968.55469-.24219.5-.30469.42968-.16797.1797-.1875.15233-.1953.125-.20704.08985-.21875.0586-.23047.01952-.23047-.01953-.21875-.0586-.20703-.08983-.19531-.125-.1836-.15235-.17187-.17969-.30078-.42968-.2461-.5-.17968-.5547-.10938-.58593-.03906-.58984h.83203l.03125.5625.08203.5039.125.44532.16016.375.1914.29687.21094.22266.22266.13672.22656.04687.22656-.04687.22266-.13672.21094-.22266.1914-.29687.16016-.375.1289-.44532.08204-.5039.02734-.5625-.02734-.5625-.08203-.5-.12891-.4375-.16016-.36328-.1914-.29297-.21094-.21485-.22266-.1328-.22656-.04298-.22656.04297-.22266.13281-.21094.21485-.1914.29297-.16016.36328-.125.4375-.08203.5-.03125.5625h-.83203l.03906-.59375.10938-.57813.17969-.54687.24609-.49219.30078-.42188.17188-.17578.18359-.14843.19531-.1211.20703-.08984.21875-.05469.23047-.01953m5.09375 0h.50781v6.29688h-.78906v-4.4922h-1.38672v-.55468l.5586-.0664.2539-.05079.23047-.08984.20313-.14063.17187-.21093.14063-.29688.10937-.39453m2.82031 2.17578h.78907l.01953-.3164.0586-.28516.09765-.2539.14062-.21485.1836-.17188.22265-.1289.26563-.08203.3086-.02735.23437.01953.22656.0625.20312.10157.1797.14062.14843.17188.11328.20703.07031.23437.02735.26563-.02344.26953-.0664.22265-.10938.19141-.15625.17188-.19922.16406-.2461.16406-.63671.39063-.53516.3125-.4375.3164-.34766.32422-.26562.33594-.1875.35156-.125.3711-.07031.39062-.01954.42188h4.21094v-.7422h-3.33203l.08203-.28515.11328-.23437.14844-.20313.1875-.17969.23047-.17187.28125-.17578.71484-.41406.41407-.20704.34765-.23046.28125-.25.21875-.26954.16406-.27734.10938-.28516.0664-.28515.01954-.28125-.04297-.38281-.1211-.34766-.1875-.3086-.25-.26171-.30468-.21094-.34375-.16016-.3789-.09765-.40626-.03516-.4375.03516-.39844.09765-.35546.16406-.3047.23438-.24609.30469-.1875.375-.11328.44531-.04297.51953"/><path fill="#ffffe0" fill-rule="evenodd" d="M346.35156 410.17969h22.17969v-10.1914h-22.17969v10.1914"/><path fill-rule="evenodd" d="M349.85156 401.82031h.50781v6.29688h-.78515v-4.48828h-1.38672v-.5586l.5586-.0625.25-.05469.23046-.08984.20313-.14062.17578-.21094.14062-.29297.10547-.39844m4.8125 0l.23047.01953.21875.0586.20703.08594.19922.12109.1836.15234.17187.17578.30078.41797.24219.49219.17969.54688.11328.58203.03906.58984-.03906.59375-.11328.58203-.1797.55469-.24218.5039-.30078.42579-.17188.17968-.18359.15235-.19922.125-.20703.09375-.21875.05469-.23047.01953-.22656-.01954-.21875-.05468-.21094-.09375-.19531-.125-.1836-.15235-.17187-.17968-.30078-.42579-.24219-.5039-.17969-.55469-.11328-.58203-.03906-.59375h.83594l.02734.5625.08203.5039.125.44532.16407.375.1914.30078.20703.21875.22266.13672.22656.04687.22656-.04687.22266-.13672.21094-.21875.1914-.30078.16407-.375.125-.44531.08203-.50391.02734-.5625-.02734-.5625-.08203-.5-.125-.4336-.16406-.36718-.19141-.29297-.21094-.21484-.22265-.12891-.22657-.04688-.22656.04688-.22266.1289-.20703.21485-.1914.29297-.16407.36719-.125.43359-.08203.5-.02734.5625h-.83594l.03906-.58984.11329-.58204.17968-.54687.24219-.49219.30078-.41797.17188-.17578.18359-.15234.19531-.1211.21094-.08593.21875-.0586.22656-.01953m5.09375 0h.50781v6.29688h-.78515v-4.48828h-1.39063v-.5586l.5625-.0625.25-.05469.23047-.08984.20313-.14062.17578-.21094.14062-.29297.10547-.39844m2.82422 2.17578h.78516l.01953-.3164.0586-.28516.10156-.2539.14062-.21485.17969-.17187.22265-.12891.26563-.08203.3086-.02735.23827.02344.22266.0625.20313.10156.17968.13672.14844.17188.11328.20703.07422.23828.02344.26172-.02344.26953-.0625.22266-.11328.19531-.15235.16797-.20312.16406-.2461.16406-.6328.39063-.53907.3125-.4375.3164-.34765.32422-.26172.33594-.19141.35156-.125.3711-.07031.39453-.01953.41797h4.21093v-.74219h-3.33203l.08594-.28125.11328-.23828.14844-.20313.1836-.17968.23437-.17188.27734-.17578.71485-.41406.41796-.20703.34375-.23047.28125-.25.21875-.26953.16407-.27735.11328-.28515.0625-.28125.01953-.28125-.04297-.38672-.11719-.34766-.1914-.30469-.25-.26562-.30079-.21094-.34765-.16015-.3789-.09766-.40626-.03516-.4375.03516-.39453.09765-.35547.16797-.30469.23438-.25.30078-.18359.375-.11719.44922-.03906.51562"/><path fill="#ffffe0" fill-rule="evenodd" d="M426.07422 415.29297h22.17969v-10.1914h-22.1797v10.1914"/><path fill-rule="evenodd" d="M429.57031 406.9336h.51172v6.29687h-.78906v-4.48828h-1.38672v-.5586l.5586-.0625.2539-.05468.22656-.08985.20703-.14062.17188-.21094.14062-.29297.10547-.39844m4.8164 0l.22657.01954.22266.05859.20703.08594.19531.12109.1836.15234.17187.17579.30078.41796.2461.4922.17968.54687.10938.58203.03906.58984-.03906.59375-.10938.58203-.17969.55469-.24609.5039-.30078.42579-.17188.17969-.18359.15234-.19531.125-.20703.09375-.22266.05469-.22656.01953-.23047-.01953-.21875-.0547-.20703-.09374-.19922-.125-.1836-.15235-.17187-.17968-.30078-.42578-.24219-.50391-.17969-.55469-.11328-.58203-.03515-.59375h.83203l.02734.5625.08203.50781.125.44141.16407.375.1914.30078.21094.21875.22266.13672.22656.04688.22656-.04688.22266-.13672.21094-.21875.1875-.30078.16406-.375.125-.4414.08203-.50782.03125-.5625-.03125-.5625-.08203-.5-.125-.4336-.16406-.36718-.1875-.29297-.21094-.21484-.22266-.1289-.22656-.04688-.22656.04687-.22266.1289-.21094.21485-.1914.29297-.16407.36719-.125.4336-.08203.5-.02734.5625h-.83203l.03515-.58985.11329-.58203.17968-.54688.24219-.49219.30078-.41796.17188-.17579.18359-.15234.19922-.1211.20703-.08593.21875-.0586.23047-.01953m5.08984 0h.51172v6.29688h-.78906v-4.48828h-1.38672v-.5586l.5586-.0625.25-.05468.23046-.08985.20313-.14062.17578-.21094.14062-.29297.10547-.39844m2.82422 2.17579h.78516l.01953-.31641.0625-.28516.09765-.2539.14063-.21485.17969-.17187.22265-.1289.26563-.08204.3086-.02734.23827.02343.22266.0625.20703.10157.17578.13671.15235.17188.10937.20703.07422.23828.02344.26172-.01953.26953-.06641.22656-.10938.19141-.15625.16797-.19921.16406-.25.16797-.63282.38672-.53906.3125-.4375.3164-.34375.32423-.26562.33593-.19141.35156-.125.3711-.0664.39453-.02344.41797h4.21484v-.74219h-3.33203l.08203-.28125.11328-.23828.14844-.20313.1875-.17968.23047-.17188.27734-.17578.71875-.41406.41406-.20703.34766-.23047.27734-.25.22266-.26953.16406-.27735.10938-.28125.0625-.28515.02344-.28125-.04297-.38672-.1211-.34766-.1875-.30469-.25-.26562-.30469-.21094-.34375-.16015-.3828-.09766-.40626-.03516-.4336.03516-.39843.09766-.35547.16796-.30469.23438-.25.30469-.18359.3711-.11719.44921-.03906.51563"/></g></defs><use xlink:href="#X"/></svg>