<svg xmlns="http://www.w3.org/2000/svg" role="img" xmlns:xlink="http://www.w3.org/1999/xlink" viewBox="142.45 309.95 326.84 171.84"><defs><clipPath id="a"><path d="M144 311.67188h1v168.65625h-1zm0 0"/></clipPath><clipPath id="b"><path d="M144 311.67188h324v168.65625H144zm0 0"/></clipPath><clipPath id="c"><path d="M467 311.67188h1v168.65625h-1zm0 0"/></clipPath><clipPath id="d"><path d="M144 477h3v3.32813h-3zm0 0"/></clipPath><clipPath id="e"><path d="M154 477h7v3.32813h-7zm0 0"/></clipPath><clipPath id="f"><path d="M167 477h7v3.32813h-7zm0 0"/></clipPath><clipPath id="g"><path d="M180 478h8v2.32813h-8zm0 0"/></clipPath><clipPath id="h"><path d="M193 478h8v2.32813h-8zm0 0"/></clipPath><clipPath id="i"><path d="M207 478h7v2.32813h-7zm0 0"/></clipPath><clipPath id="j"><path d="M220 478h8v2.32813h-8zm0 0"/></clipPath><clipPath id="k"><path d="M233 478h8v2.32813h-8zm0 0"/></clipPath><clipPath id="l"><path d="M246 478h9v2.32813h-9zm0 0"/></clipPath><clipPath id="m"><path d="M260 479h8v1.32813h-8zm0 0"/></clipPath><clipPath id="n"><path d="M267 480h2v.32813h-2zm0 0"/></clipPath><clipPath id="o"><path d="M273 479h8v1.32813h-8zm0 0"/></clipPath><clipPath id="p"><path d="M280 479h3v1.32813h-3zm0 0"/></clipPath><clipPath id="q"><path d="M286 480h9v.32813h-9zm0 0"/></clipPath><clipPath id="r"><path d="M293 480h3v.32813h-3zm0 0"/></clipPath><clipPath id="s"><path d="M300 479h8v1.32813h-8zm0 0"/></clipPath><clipPath id="t"><path d="M307 480h2v.32813h-2zm0 0"/></clipPath><clipPath id="u"><path d="M313 479h8v1.32813h-8zm0 0"/></clipPath><clipPath id="v"><path d="M320 480h2v.32813h-2zm0 0"/></clipPath><clipPath id="w"><path d="M326 479h9v1.32813h-9zm0 0"/></clipPath><clipPath id="x"><path d="M332 479h2v1.32813h-2zm0 0"/></clipPath><clipPath id="y"><path d="M340 479h8v1.32813h-8zm0 0"/></clipPath><clipPath id="z"><path d="M345 479h3v1.32813h-3zm0 0"/></clipPath><clipPath id="A"><path d="M353 478h8v2.32813h-8zm0 0"/></clipPath><clipPath id="B"><path d="M359 479h2v1.32813h-2zm0 0"/></clipPath><clipPath id="C"><path d="M367 478h7v2.32813h-7zm0 0"/></clipPath><clipPath id="D"><path d="M373 478h3v2.32813h-3zm0 0"/></clipPath><clipPath id="E"><path d="M380 477h7v3.32813h-7zm0 0"/></clipPath><clipPath id="F"><path d="M393 479h8v1.32813h-8zm0 0"/></clipPath><clipPath id="G"><path d="M399 479h2v1.32813h-2zm0 0"/></clipPath><clipPath id="H"><path d="M407 478h7v2.32813h-7zm0 0"/></clipPath><clipPath id="I"><path d="M420 478h7v2.32813h-7zm0 0"/></clipPath><clipPath id="J"><path d="M433 478h8v2.32813h-8zm0 0"/></clipPath><clipPath id="K"><path d="M446 478h8v2.32813h-8zm0 0"/></clipPath><clipPath id="L"><path d="M452 480h2v.32813h-2zm0 0"/></clipPath><clipPath id="M"><path d="M460 478h8v2.32813h-8zm0 0"/></clipPath><clipPath id="N"><path d="M144 464h3v6h-3zm0 0"/></clipPath><clipPath id="O"><path d="M144 450h3v7h-3zm0 0"/></clipPath><clipPath id="P"><path d="M144 438h4v5h-4zm0 0"/></clipPath><clipPath id="Q"><path d="M144 424h3v6h-3zm0 0"/></clipPath><clipPath id="R"><path d="M144 410h2v8h-2zm0 0"/></clipPath><clipPath id="S"><path d="M144 399h4v3h-4zm0 0"/></clipPath><clipPath id="T"><path d="M144 384h3v6h-3zm0 0"/></clipPath><clipPath id="U"><path d="M144 373h4v2h-4zm0 0"/></clipPath><clipPath id="V"><path d="M144 359h4v3h-4zm0 0"/></clipPath><clipPath id="W"><path d="M144 346h4v2h-4zm0 0"/></clipPath><clipPath id="X"><path d="M144 332h4v3h-4zm0 0"/></clipPath><clipPath id="Y"><path d="M144 319h4v3h-4zm0 0"/></clipPath><g id="Z" clip-path="url(#clip1)"><path fill="#fff" fill-opacity="0" fill-rule="evenodd" d="M0 0h1000v1000H0zm0 0"/><path fill="#d3d3d3" fill-opacity="0" fill-rule="evenodd" d="M162.15234 355.86719l-.23437.29297.0586.23437.11718.17188.17578.23437.29297.34766.11328.0586.11719-.17188.0586-.23438.17577-.17578.46485-.17578h.69922l.23437.29297.28906.8164.0586.17579.17578.23046.35156.23438.69922.69922.17188.17578.23437.34765.23438.41016.28906.58203.41015.46485.23047.23437.23438.17578.11719.23047.17578.29297.17187 1.16406v.23438l.0586.28906.05859.11719.11719.11719.34765.41015.11719.17188.17578.17578.17578.23437.11719.17188.17188.35156.05859.23438.23437.40625.23438-.0586-.17578.17578-.0586.92969h-.58203l-.23437-.11328-.34766.11328-.11719.11719-.05859.29297-.0586.17578-.11718.17187-.46484.29297-.0586.23438-.0586.11328v.64453l.0586.17187v.41016l.0586.0586v.40624l.05859.40625.11719.17579.05859.05859.23047.64062-.0586.29297v.69922l-.05859.58203v.23438l-.0586.23047-.05468.35156v1.92187l.05469.1172h.42578l-.36719.11718-.02344.35156.89063 1.16797 1.74219.53906 1.33984.35938v.53906l.08984.8086.53516.71484 1.51953.26953.89063-.08594.08984 1.16406.53516.1797 1.16015-.1797 2.05469-.98437 1.16016-.36328 1.8789-.17578 1.69531-.1797-.17968.71876-1.51563.08594-1.25.08984-.80469.26953-1.07421.8086.26953.71875.53515.89843-.17968.625-.26563.8086.26563 1.07812.625.89844.80468.17969 1.25-.1797-.26562.72267.09766.5039.05468.29297v.17188l.0586.29296v.40625l.17578.1172.35156.11718h.40625l.29297-.17578.11328-.11719.0586-.11719.11718-.23047.0586-.17578.35156-.46484.23047-.17578.17578-.0586.17578.0586.0586.17578.11718.98828.05469.46875.0586.17188.11718.23437.17578.0586.8164.05859h.28907l.11719.23437.05859.40625.0586.35156v1.10547l.11718.29297.11719.34766.28906.69922.17578.35156.58203.7539.35157.17579.17187.0586.46875.23437.64063.46484.34765.23438.29297.17578.29297.05468.23047.0625.8164.34766.29297.17578.11328.17188.35157.35156.11719.17578.52343.64063v.28906l.0586.35156v.34766l.05859.35156.0586.28906.11718.0586.17188.05859h.17578l.58203.23437.17578.1172.17578.28905.17578.23438.11328.23437.29297.23047.11719.11719v.41016l.0586.05468.28906.23438.23437.11719.0586.11718.11718.17188.0586.11719.23047.23437.05859.17578.23437.0586.1172.05859-.1172.11328-.05859.11719v.11719l-.11719.29296-.11719.28907v.58203l.17579.11719.11718.05859.0586.11719.11719.11719.11328.05859.17578.34765.0586.35157.05858.40625v.17578l-.05859.17578-.11719.69922v.17187l.1172.17579.29296.29296h.40625l.17578.1172.11719.17187.11719.29296v.23438h-.52735l-.23047-.23438h-.23437l-.17578.0586-.0586.69922.0586.34765.11719.17579.17578.41015.11718.23047.28907.46875.17578.05469h.52344l.23437.0586.75781.64062.0586.29296v.23438l.05859.0586.23047.34765v.35156l-.11719.17188v.29297l.29297.28906.29297.17578.17187.0586.29297.17577.29297.1172.58203.40624.28906.23438.29297.17578.21875.16015.01563.01172.23047.17579.64062.52343.17578.23438.1172.17578.17577.17578.11328.17188v.64062l.1172.17578.46874.11719.58203.11719.23438.05859.23047.11328.29297.11719.11328.0586.58593.35156.28907.17187.17578.0625.17578.05469.17578.0586.69922.35155.28906.17579.23438.05468.28906.17578.23437.1172.64063.40624.29297.11719.17187.0586.23438.05859.41015.05859.23047.0586.23438.11718.0586.17188-.41017.17578.46875.0586.0586.29296.11328.23438.17578.05468.23438.0586.17578.05859.40625.11719.64062.23437.11719.17188.0586.23437v.17578l-.0586.1172-.0586.40624.23438.23438.11719.05859.34766.11719.64062.23047.17578.11718.28906.1172.17578.17577.23438.46485.58203 1.10546.17578.17579.34766.17578.17578.11719.35156.11718 1.04688.52344.23437.0586.46485.11327.29297.0586.46484.17578.75781.58203.23438.23438.34765.46484.17578.17578.28907.23438.8164.69921.29297.17579.28906.28906.29297.17578.29297.28906.69531.64063.17578.17578.29297.23437.28907.23438.46875.28906.64062.58203.34766.23438.23437.29297.34766.34765.35156.46485.9336.99218.34765.40625.11719.17579.23437.05859.11328.11719.64454.17578.23047.11328.23437.0586.29297.17577.23047.1172.9336.69921.40624.40625.23438.17578.40625.17578.23437.11719.8164.34766.34766.23437.23438.11719.29297.28906.23047.11719.7578.35156.35157.17188.23047.05859.29297.11719.23437.0586.8711.17577h.8164l.46875.23047.17188.0586.875.69921.46484.1172.29297.05858.17578.0586.23047.0586.46875.05859.34766.05859.35156.0586.40625.05859h.29297l.17187.0586v.23046l.17578.17578h.29297l.34766.0586.35156.05859.69922.11719h.64063l.46484-.23438.29297-.17578.17187-.11719.41016-.17187.28906-.17578.9336-.46485.46875-.29297.52343-.29296.46485-.17188.46484-.17578 1.05078-.46485.28906-.11718.41016-.11719.28906-.11719.52735-.17578 1.51562-.69922.58203-.34765.28907-.0586.29297-.0586.34765-.11718.875-.23047.35156-.11719h.11329l.23437-.05859.875-.23437.23438-.0586h.8125l.35156-.0586.8164-.11718.17188-.0586.35156-.05468.29297-.0586.23047-.05859.8164-.17578.17579-.0586h.34765l.23438-.05859.46484-.11718.75781-.17188.23438-.0586h.34765l.41016-.11718.28906-.0586 1.28516-.05859h.28906l.41016-.0586.23047-.05858h.17578l.875-.1172h.40625l.41015-.11718h.34766l.35156-.11328.8711-.0586h1.75l1.04687.28907.41016.11719.28906.11718.35156.11719.28907.11719 1.05078.17187.28906.0586h.29297l.29297.05859.17187.0586.41016.05859.17187.0586.1172.05858h.11718l.11719.0586.35156.0586h.11328l.41016.0664 1.92187.39453 1.92578.39453 1.51953.44922 1.69532.71875 2.14453.80469 1.60547-.71875 1.42968-.80469 1.16016-1.07813 1.25-.44921 3.03516-.71875 1.875-.35938 2.14453-1.34765 2.23437-1.25391 2.5-1.25781 1.69531-.44922 1.78516-.17969 1.16016-.26953.625.53906 1.33984-.26953.71485-.98828.98437-1.34375.44531-.17969.80469-.35937 1.875-.53907 1.78516-.44921 1.25-.26954 1.16015-.08984 1.69922-.08984 1.96094-.26954 1.25-.08984h.53906l.625-.08984h.89063l2.14453-.17969 2.41015-.17969 2.58985-.08984 1.69531.17969 1.60938.08984 1.42968.35938 1.16016.71875 1.875.98828 1.16015 1.52734.26563.71484.6289.08985.35548.89844.53515.53906.53516 1.52734 1.07422.35938h.53515l-.80469.53515.08985 1.70703.71484 2.69532.89063.80468.89453.98829.71484 1.2578 1.78516.53907 1.51953-.17969.35547 1.34375 1.60937-.80469.98047-.53906.26953.26953.31641-.21484.21875-.14453.80078.44922.44922-.35938h.35547l.53515-.26953.53907-.71875.53515-.26953.625-.98828 1.16016.44922.83984.3711 1.39454.61718 1.6953-.17969h1.60548l1.78515.08985.17969-1.70704.53516-1.34375.80468.26954.4922.84765.40233.40625-.08984.53906v.35938l.71485.44922.71093-.26953h1.42969l.35938.98828.4453 1.25781.71485 1.34375 1.25.6289 1.69531.62891.71485-.17969.17969-.53906.98046-.08984.44922.35937.08594 1.25782-.26563.6289-.53515.17969v.53906l.71484.98438.26563.53906.98437.98828.80078 1.07813-.26562.35937-.08985.89844-.625 2.33203-.35546 2.0664-.08985 1.79298-.17969.71875-.08984.53906v1.4375l-.98047 1.88281-.35937 1.70703-.53516.89844-.80469 1.16797-.26562.53906 2.05469 1.2539.08593.35938-.35546.53906-.08985-.17968v.80859l.08985 1.4375-.44532.71484-1.07422.09375-.26562.71485.53515.89844.8047.71875 1.16015.80859 1.33984.26953.44531.35938-.35546.44921-1.78907-.08984-1.25-.44922-.71484-.71875-.625-.08984-.17578 3.58984-.1875 1.3086h89.35937V311.70313h-55.26953v49.08203l.76172.125 3.28906.54296 2.02344 2.83594v2.7539l2.35156.33204 2.34766.33203h4.05078l-1.3789 4.16016-2.02344.70703-2.02344.70312-.54297.34375-2.59375 1.6172-.1875.11718-2.02344-2.07813-.73046-2.74218-2.67188-2.07813-1.375-3.5-.0664-.08203-1.95704-2.67188 2.75-1.41796v-49.08204H294.42187v91.41407l.1172.03125.1328.01172.07422.07421.10547.04688.08985.0586.08593.05859.08985.0586.29687.29687.0586.08984.03125.11719.02734.11719.01563.13671-.03125.1172-.0586.08983-.0586.08594-.04296.10547-.04688.10156-.02734.1211v.14453l.17578.26953.14844.14844.07422.08594.07422.07421.04296.10547.0625.08985.0586.08593.04297.10547.0586.08985.04687.10156.04296.10547.0586.08594.11719.17968.07421.07422.0625.08594.0586.08984.04297.10547.0586.08985.05858.08593.0625.08985.0586.08984.04297.10156.11719.17969.07421.07422.0586.08594.07422.07421.08984.0586.10547.04687h.14844l.1328-.01562.13282.01562.10156-.04687.07422-.07422.04688-.10156-.01563-.13281v-.14844l-.04687-.10547-.02735-.11719-.04687-.10156-.02735-.1211-.04296-.10156-.0625-.08984-.04297-.10156-.04297-.10547-.03125-.11719-.01563-.13281-.01171-.13672.08593-.0586.0586-.08593.12109-.03125.04297.10547.01562.1328v.1172l.0586.10156.0586.08984.08983.0586.14844.14843.0586.08985.04296.10547-.01171.10156.08593.0586.10547.04687.08594.0586.08984.05858.07422.07422-.11719.02735-.10546.04687-.08594.0586-.07422.07421-.0586.08985-.0625.08594-.02734.12109-.04687.10156-.04297.10547-.03125.11719-.01172.13281-.01563.13281v.14844l.02735.11719.04687.10547.04297.10156.0586.08984.07421.07422.08985.0586.07422.07421.08984.0586.0586.08984.04296.10547.04688.10156.11719.03125.1328.01563h.14845l.11718-.03125.10547.04297.04297.10547.04688.10156.02734.1211L299.5 410l.02734.11719.03125.1211.02735.11718.10547.04297.10156.04687.13281-.01562.14844.14844.0625.08593.07422.07422.07031.07422.08984.0625.10547.04297.10156.04297.1172.03125.13671.01562.11719-.03125.07422-.07422.02734-.11718-.01172-.13282-.03125-.12109-.02734-.11719.04297-.10547h.11719l.08984.0625.11719.02735h.14843l.13282.01562h.14843l.13282.01563.1328-.01563h.14845l.1328-.01562.13282-.01172.13672.01172.11719-.02735.13281-.01562.1914-.0586-.05859.17579-.01562.1328-.02735.1211-.01562.13281-.0586.08594-.1328.01563-.10548.04687-.10546.04297-.1172.03125-.11718.02735-.26563.03125h-.14843l-.13281.01562-.07422.07422.05859.08594.14844.14843.11719.1797.07421.0703.08985.0625.08984.0586.08594.0586.08984.05858.10156.04297.10547.0625.10547.04297.08594.0586.10547.04687.10156.04297.17969.11719.0586.08984-.04298.10156-.04687.10547.01562.13281.22266.22266.0586.08985.04296.10156.03125.1211.04297.10155.01563.13282.03125.11718.01171.13672.03125.11719.14844.14844.10156.04297.10547.04296.1172.03125.1328.01563.13672.01563h.11719l.11719-.03125.08984-.0586.04297-.10547.04688-.10156.04296-.10547.03125-.11719.01172-.1328v-.14845l-.01172-.1328-.01562-.13282-.03125-.11719-.04297-.10547-.04688-.10547-.04296-.10156-.04297-.10547-.01563-.13281.01563-.13281.02734-.11719.03125-.11719.02735-.1211.04687-.10155.08984-.0586.08594-.0625.07422-.07422.08984-.05859.22266-.22266.0586-.08593.07421-.07422.11719-.17969.0586-.08594v-.14844l-.07423-.07421-.10156-.04688-.10547-.04297-.10156-.04297-.0586-.08984-.04687-.10547-.02734-.11719.08984-.05859.11719-.03125.10156-.04297.17969-.11719.14844-.14843.01172-.13282-.01172-.10546-.08985-.0586-.1328.01563h-.14845l-.1328.01562-.13282-.01562-.1211-.03125-.08593-.0586-.07422-.07422-.0586-.08984-.0625-.08594-.11718-.17969-.0586-.08593.03125-.1211.08594-.05859.1211-.03125.05859-.08594v-.1211l-.03125-.11718-.0586-.08984-.05859-.08594-.04687-.10547-.02735-.11719-.01562-.1328.0586-.08985.07421-.07422.08984-.0586.1172-.17968.07421-.07422.0586-.08594.14843-.14844.1211-.03125.1328-.01562.13282.01562.07422.07422.04297.10547.01562.13281-.03125.1172-.11719.03124-.1328.01172-.14844.14844-.04297.10547-.04688.10156-.02734.1211-.03125.11718v.14844l.03125.11719.04297.10546.05859.08985.07422.07031.07422.07422.11719.03125.12109.02734.11719-.02734.1328-.01563h.1172l.08984.0586.07422.07422.04687.10546.0586.08594.10156.04688.13281.01562.10547.04297.08594.0586-.01172.10546-.07422.07422-.17969.11719-.05859.08984-.08984.0586-.07032.07422-.07421.07421-.0625.08985-.02735.11719-.01562.1328.01562.13282-.01562.13281v.14844l.01562.13281.02735.1172.03125.12108.07421.07422.08985.0586.08594.0586.08984.05858.11719.03125v.08594l-.10157.04688-.08984.0586-.26563.03124-.11718.02735h-.14844l-.10547.04296-.10156.04688-.0586.08984-.0625.23438-.01171.13281-.03125.1211-.01563.1328v.29298l-.01172.1328.01172.13673.01563.1328.1328.01563.13282.01172.1211.03125.08593.0586.07422.07421.04688.10547.04296.10157.01563.1328v.44532l-.01563.13281v.44532l.03125.26562.02735.11719.01562.13281.03125.11719.08594.21094.03125.26562v.14844l-.03125.11719-.02734.11718-.03125.1211-.02735.11719-.03125.11718-.03125.1211-.01171.1328-.01563.13282.08984.0586.1172-.03125.10155.01562.04688.10547-.03125.26562v.44141l-.04297.10547-.04688.10547-.04296.10156-.04297.10547-.0586.08594-.03125.12109-.04296.11719-.03125.11719-.01563.1328.01563.13282.05859.08984.10547.04688.08594.0586.05859.08593-.01172.13672-.03125.11719-.04297.10156v.44531l-.01562.13281v.14844l-.03125.11719-.04297.10547-.02735.11719-.04687.10546-.04297.10157-.03125.12109-.02734.11719-.03125.13281-.03125.11719-.02735.11719-.04297.10546-.03125.1172-.03125.12108-.01171.13282-.01563.13281v.29688l.02734.11718v.14844l.04688.39844.02734.11719.0586.08984.12109.03125h.14844l.13281-.01563.0586.08985v.11719l-.0586.08984-.08984.0586-.10157.04296-.10546.04688-.08985.05859-.08594.0586-.13671.01562-.1172-.03125-.1328-.01563-.10157.04688-.0625.08594-.01172.13671-.01562.13282-.03125.11719-.02735.11718-.01562.13281-.03125.1211v.29687l.01563.13282.03125.11718v.14844l.01171.13281v.14844l-.02734.11719-.04688.10156-.02734.1211-.03125.11718-.0586.08985-.07421.07421-.10156.04297-.10547.04688-.11719.02734-.1211.03125-.10156-.04687.0586-.08594.10547-.04688.02734-.11718.03125-.11719.02734-.1211.03125-.11718v-.14844l.01563-.13281-.03125-.11719-.04297-.10547-.10547.01563-.07422.07422-.10156.04296-.08984.0625-.07422.07422-.04297.10157-.01563.1328-.03125.1172L304.25 426l-.03125.11719-.02734.11719-.03125.12109-.02735.11719-.03125.11718-.04297.10547-.08984.0586h-.08984l-.1172-.03125-.03124-.08594.01562-.13672-.03125-.11719v-.14844l-.01171-.1328v-.14844l-.0625-.23438-.02735-.1211-.04297-.10156-.04687-.10546-.0586-.08594-.05859-.08985-.04297-.10546-.0625-.08594-.14844-.14844-.0703-.07422-.10548-.04687-.10547-.04297-.10156-.04297-.29687-.29688-.08985-.07421-.08594-.0586-.10546-.04297-.08985-.0625-.08594-.0586-.10546-.04296-.08985-.0586-.08594-.0625-.07421-.0703-.10547-.04688-.08594-.0586-.10547-.04296-.08984-.0625-.10156-.04297-.10547-.04297-.08594-.0586-.10547-.04687-.10547-.04297-.10156-.04687-.08985-.0586-.10156-.04297-.10547-.04296-.08984-.0625-.11719-.02735-.13281-.01562-.13281.01562H299.75l-.13281.01563-.11719-.03125-.08984-.0586-.07422-.07422-.08985-.05859-.10156-.04688h-.14844l-.12109-.02734-.10156-.04297-.07422-.07422-.11719-.17968-.08984-.0586-.10156-.04297-.08985-.0625-.10547-.04296-.08984-.0586-.08594-.0586-.10547-.04687-.0586-.08594-.05858-.08984-.04297-.10547-.04688-.10156-.07422-.07422-.08594-.0586-.07421-.07421-.08985-.0586-.22265-.22265-.04297-.10547-.03125-.26563.10547-.04296h.14453l.10547.04296.07421.07422.08985.0586.08594.0586.10546.04687.08985.05859.14844.14844.0703.07422.14845.14843.0625.08594.07421.07422.08594.0586.07422.07421.08985.0625.08984.0586.08594.05859.26953.17578.10156.04688.10547.04296.10156.04297.04688-.07421.05859-.08594.07422-.07422.07031-.07422.10547.04297.07422.07422.0586.08984.04296.10156.04688.10547.04296.10547.1211.02735.11719-.02735.07421-.08984.04297-.10547.0586-.08985.07422-.07421.10546-.04297.1172-.02735.1328.01172.08985.0586.14844.14843.05859.08985.04297.10547.04687.10156.04297.10547.04297.10156.10547.04688.10547.04296.13281.01563.08594-.0586.0586-.08984.07421-.07422.10547-.04297.11719.02735.10547.04687.10156.04297.10547.04297.10156.04688.17969.11718v.11719l-.01563.13281.01563.13281.01562.13672.0586.08594.10156.04688.1211.02734.11718.03125h.14844l.11719-.03125.05859-.08984.17969-.1172.05859-.08983.07422-.07422.0586-.08594.11718-.17969.17969-.11719.11719.03125.08984.0586.04297.07422-.01563.1328v.1172l.08985.05859h.14843l.13282-.01563.1328-.01171.26563-.03125.10547-.04297.11719-.03125.1211-.02735.07421-.07421.07031-.07422.0625-.08985-.01562-.10547-.04688-.10156-.10156-.04297-.10547-.01562-.11718.02734-.26563.03125h-.14844l-.07421-.07422-.08985-.0586-.11719-.03124-.11718-.02735-.13282-.01562h-.14843l-.13282.01563h-.29687l-.10547-.04688-.14844-.14844-.04297-.10156-.05859-.08984.22266-.22266.08593-.0586.10547-.04296.11719-.03125.13281-.01563.13281.01563.13672.01562.10157.04297.1328-.01172.08985-.0625.10156-.04297.0625-.08984-.04687-.10156-.08984-.0586-.1172-.03125-.10155-.04296-.0586-.08985-.0625-.08984v-.11719l.01563-.13281.10547-.04688.07421-.07031v-.1211l-.08984-.05859-.03125-.11719.08985-.05859.07421-.07422.04297-.10547.0586-.08984.04687-.10156.01563-.13281v-.14844l-.04688-.10547-.04297-.10156-.08984-.0586-.13281-.01562-.10157-.04297-.13671-.01563-.1172-.03125h-.4453l-.13282-.01562-.13281-.01172-.13281-.01563-.11719-.03125h-.14844l-.13281-.01562-.13281-.01172-.26563-.03125-.1211-.04297-.08593-.0586-.07422-.07421v-.14844l.01172-.13281.10547-.04688.10156-.04296.13281-.01563h.15235l.13281-.01562h.29297l.1211.03125.10156.04296.08984.0586.23438.0625.12109-.04688.08984-.05859.10156-.04297.13282-.01562.10547.04296.10156.04688.13281.01172.1211-.02735h.14453l.12109-.03125.11719-.02734.10547-.04687.07421-.07422.08594-.0586.14844-.14843.0586-.08594.04687-.10547.02734-.11719.01563-.10547-.10156-.04296-.08985-.0586-.11719-.03125-.10546-.04297-.08985-.0625-.07422-.08594-.07422-.07421-.10156-.04297-.10547-.04688-.10156-.04297-.0586-.08984-.04687-.10156-.08594-.21094-.0625-.08594-.05859-.08984-.07422-.07422-.08594-.0586h-.26953l-.11719.03126-.08984.05859-.10156.04297-.13281.01562-.10547-.01562-.02735-.11719-.0625-.08984-.11718-.03125-.10157-.04297-.14843-.14844-.03125-.11719-.01563-.10546.07422-.07422.17969-.1172.11719-.02733.11718-.03125.13672.01562.10156.04297.10547.04297.10156.04687.10547.04297.1172.03125.1328.01563.1172.02734.1328.01563.10547-.01563.08985-.0586-.07422-.07421-.10547-.04297-.07422-.07422-.07422-.08984-.14844-.14844-.08593-.0586-.08985-.05859-.07422-.07422-.08984-.0586-.10156-.04687-.1211-.02734-.10156-.04688-.10547-.04296-.11719-.03125-.10156-.04297-.1211-.03125h-.14843l-.11719.03125-.10546.04297-.08594.0625-.17969.11718-.08594.0586-.08984.0586-.10547.04687-.08594.05859-.10547.04297-.10156.04297-.10547.04687-.07422.07422-.05859.08985-.0586.08593-.04687.10547-.0586.08594-.07421.07422-.13281-.01172-.1172-.03125h-.11718l-.07422.07422-.08984.0586-.07422.07421-.08984.0586-.08594.05859-.10547.04687-.10156.04297-.13672.01563-.10156-.04297-.14844-.14844-.10547-.04688h-.08594l-.10547.04688-.10156.04297-.1211.03125-.11718-.03125-.07422-.07422v-.11719l.03125-.1211.07422-.0703.0586-.08985.07421-.07422.11719-.03125.10547-.04296h.29297l.13281-.01563.13672-.01563.10156-.04296.08985-.0586.10156-.04687.08984-.0586.13281-.01171.08985.05859.13281.01172.08984-.0586.08594-.05859.10547-.04297.08984-.0586.08594-.0625.08985-.05859.14843-.14843.0586-.08594.05859-.08985.10547-.04296.13281-.01563.11719.02735.1211.03125.05859-.0586.05859-.08984.03125-.26563.02734-.11719.10547.01172.13281.01563.10157-.04297.08984-.0586.0586-.08984.07421-.07422.0586-.08984.04687-.10156.01172-.13281-.01172-.13282-.04687-.10547-.14844-.14843-.0586-.08985-.05859-.08594-.04297-.10546v-.44532l.01563-.1328v-.14845l.01172-.1328-.0586-.0586-.08984.0586-.10156-.04298-.17969-.11719-.08594-.05859-.0625-.08984-.0586-.08985-.07421-.07421-.08594-.0586-.1211.03125-.10155.01172-.10547.04688-.08594.05859-.10547.04297-.14844.14844-.08984.05859-.08594.0586-.08984.0625-.10547.04296-.13281.01563v-.1211l.10547-.04297.11718-.03125.07422-.0703.04297-.10548v-.14844l-.02734-.11718-.14844-.14844-.13281-.01563h-.14844l-.11719.03125-.10547.04297-.10156.04297-.08984.0625-.11719.02735-.07422-.07422.01172-.13281-.04297-.10157-.04297-.10547-.08984-.05859-.11719.02734-.1211.03125-.11718.03125-.10156.04297-.1211.03125-.10156.04297-.10547.04297-.08984.0586-.10156.01562v-.11719l.01562-.13281-.0586-.08985-.07421.04297-.14844.14844-.0586.08985-.07421.07421-.04688.10547-.04296.10156-.07422.07422-.0586.08985-.07422.07422-.05859.08593-.07422.07422-.08984.0625-.07422.07031-.07422.07422-.10156.01563-.13281.01562-.10547-.04296v-.1211l.14843-.14844.04297-.10156.0586-.08984.04687-.10156.04297-.10547.0586-.08985.03124-.11719.04297-.10156.03125-.1211.02735-.11718.04687-.10547.04297-.10156.04297-.10547.07422-.07031.08984-.0625.08985-.0586.10156-.04296h.29687l.26563-.03125.10547-.04297-.07422-.07422-.11719-.03125-.10547-.04297-.08984-.0586-.10156-.04687-.08985-.0586-.10156-.04296-.10547-.04297-.08984-.0625-.08594-.0586-.10547-.04296-.10156-.04297-.1211-.03125-.11718-.03125-.10157-.04297L297.5 410.25l-.10156-.04297-.08985-.0586-.04296-.10546-.01563-.13281.10156-.04297.13281-.01563.13672.01563.13282-.01563.10156-.04297.0586-.08984.01562-.10547-.08985-.0586-.07421-.07421-.10157-.04297-.08984-.0586-.14844-.14843-.04297-.10547-.01562-.13281v-.29297l-.0586-.08985-.08984-.05859-.07422-.07422-.04297-.10547-.03125-.11718-.0586-.08985-.07421-.07422-.11719-.02734-.07422-.07422-.08984-.0586-.08984-.0625-.08594-.05859-.07422-.07421-.0586-.08594-.04687-.10547-.08594-.0586-.14843-.14843-.19532-.0586-.1328.01563-.10157.04297-.07422.07422-.04688.10156-.04296.10547-.0586.08984-.0586.08594-.29687.29687-.08984.0586h-.08594l-.0625-.08594-.04297-.10547.03125-.11719.0586-.08984.02734-.11719-.01172-.13281-.08984-.0625-.10547.04688-.11719.02734-.11719.03125-.26953.17578-.10156.04688-.11719.02734-.10546.04687-.08985.0586-.10156.04297-.0586-.08594-.04687-.10547.01563-.13281.04687-.10547.07031-.07422.07422-.07031.0586-.08985v-.14843l-.04297-.10547h-.23829l-.10156.04687-.03125.11719-.02734.11719-.03125.1211-.07422.04296-.13281.01563-.07422-.04688-.04297-.10156-.04297-.10547-.04687-.10156-.04297-.10547-.1211.03125-.10156.04297-.13281.01562-.11719.03125-.10547.04297-.08984.0586-.10156.04687-.1211.02734-.13281.01563-.10156-.04297-.0586-.08985-.04687-.10546-.04297-.10157-.04297-.10546v-.1172l.0586-.08984.08593-.05859.17969-.11719.10156-.04687.10547-.04297.10547-.0586.10156-.04296.08985-.0625.10156-.04297.10547-.0586.10156-.04687.08984-.0586.10547-.04296.10156-.04297.08985-.0625.10156-.04297.13672-.01563.11719.03125.10156.04297.1211.03125.10156.04297.10546.04688.10157.04296.10547.04297.10156.04688.10547.04297.10156.04297.10547.04687.08594.0586.10546.04296.1172.03125.10546.04297.10156.04688.08985.0586.10547.04296.10156.04297.10547.04687.11719.02735.10156.04687.1211.02735h.14843l.08594-.0586.01562-.10156.0586-.08984-.02735-.1172-.07422-.07421-.11719-.17969-.07421-.07422-.08985-.07421-.17969-.1172-.08593-.05859-.10547-.04296-.10156-.04688-.26954-.17578-.05859-.08985-.07422-.07421-.0586-.08985-.04296-.10156-.03125-.11719-.01563-.13672v-.5625l-.01171-.1328-.01563-.13282-.03125-.11719-.01562-.13281-.01172-.13281-.03125-.1211-.22266-.22265-.0586-.08594-.01562-.10547.03125-.11719.13281-.01562v-91.41406H172.9922v1.45312l-.0586.23438-.35156 1.05078-.17187.52343-.1172.34766-.17577.41016-.11719.17187-.23438.29297-.23046.0586h-.35157l-.11718.05859-.23047.40625v.29297l.11719.17578.23046.23047.1172.23437.64062.75781.29297.46485.17578.23437.23047.35156.23437.34766.64063.8164.17578.46485.17187.41016.11719.69531.17578.46875.11719 1.39844.0586.46484v.875l.11718 1.04688v4.78125l-.0586.46484-.35156 1.28125-.17578.52344-.11328.41015-.35156.9297L172.93359 336l-.23437.58203-.11719.17578-.17187.34766-.17578.40625-.35157.8164-.0586.29297-.11327.29297-.11719.28906-.0586.17579-.11718.875-.0586.40625-.05859.11718-.0586.17579-.05859.17187-.23047.52734-.11718.17188v.23437l-.11719.23438-.0586.17187-.17577.58594v.28906l-.0586.17579v.29296l-.0586.11329-.05859.52734v.17187l-.05468.23438v2.6211l-.17578.8164-.1172.17578-.17577.23438-.1172.17187-.11327.23438-.58594.93359-.23047.28906-.29297.46485-.17578.23437-.28906.35156-.35156.69922-.11328.23047-.17579.41016-.17578.23046-.40625.52735-.8164.69922-.29297.17187-.28906.23438-.17579.11719-.17578.17578-.52344.40625-.52734.17578-.17187.17578-.23438.05469-.64062.17578h-.75782m12.21094 31.02344l-1.07422.44921.35938.89454 1.25-.71485.44531-.53906-.98047-.08985"/><path fill="#d3d3d3" fill-opacity="0" fill-rule="evenodd" d="M201.50781 416.59766h-.89453l.44922.6289.98047.35938.80469-.08985.4453-.98828-.17577.08985-.71485-.35547-.89453.35547m154.6211 59.0703l-.0586-.52343v-.29297l.11328-.29297.0586-.23046.46875-.46875h.11328l.11719-.11329.11718-.05859h.17579l.23437-.0586h.34766l.23437.0586.11719.0586.23047.17187.0586.17578.11718.58203v.29297l-.11719.17578-.17187.28906-.17579.17579-.52734.52343-.23047.23438-.11719.0586h-.17578l-.11718-.0586-.40625-.29297-.17579-.11719-.11718-.0586-.0586-.11327-.05468-.1172m6.64062-10.95702l-.0586-.17188v-1.10937l.0586-.17188.17578-.0586.17188-.05858h.17578l.23437-.0586.1172.0586.05858.69921-.05859.17188-.11719.17578-.11718.0586-.23438.52343-.11328.0586h-.23438l-.05859-.1172m9.61328-14.39062l-.11719-.17578v-.69922l.29297-.875.1172-.17187.17577-.35156.11328-.23047.1172-.29297.35155-.75781.1172-.23047.17187-.23438h.17578l.11719-.0586h.64062l.11719.0586.23437.23438.17188.11328.35156.29297.11719.11718.11328.17579v.11328l.11719.05859.11718.11719v.69922l-.05859.17578v.23047l-.0586.17578-.34765 1.05078-.11719.23047-.11719.23437-.11718.0586-.23047.23437-.64063.28906h-.875l-.41015-.11718-.64063-.46485"/><path fill="none" stroke="#bebebe" stroke-linecap="round" stroke-linejoin="round" stroke-miterlimit="10" stroke-width=".5" d="M467.95703 311.69531H144.02734v168.625h323.9297v-168.625"/><g clip-path="url(#a)"><path fill="#fff" fill-opacity="0" fill-rule="evenodd" d="M144 475.89063v4.4375h.0039H144V311.67188h.0039H144v164.21875"/></g><g clip-path="url(#b)"><path fill="#fff" fill-opacity="0" fill-rule="evenodd" d="M144.0039 480.32813V311.67188h17.75v71.3203l-4.4375 1.81641-2.18359 2.31641.14453 4.4375 2.03907 2.36328 4.4375 1.3125 3.67187-3.67578.76563-1.23828 1.66406-3.19922-1.66406-1.7539-4.4375-2.37891v-71.32031h26.6289v45.54296l-4.4375 1.00391-3.3086 2.27344-1.1289 1.84765-3.49219 2.59375.1172 4.4375 3.375 3.6211.7539.8164 3.6836 3.45313 4.11327-3.45313.0625-4.4375.26172-3.40625 2.82031 3.40625-1.80468 4.4375-.71875 4.4375.91015 4.4375 3.23047 2.8125 3.13281 1.62891 1.3086 1.5039.61719 2.9336-.6172.85547L193.8672 396l-1.04688.48047-4.375 3.95703-.0625.41406-2.99219 4.02344 2.9922 2.7539 1.05468 1.6875 3.38281 3.53516.26172.90235 1.1875 4.4375 2.99219 3.2539.83203 1.1836 3.60547 3.92187.4375.51953 4 3.50781 4.4375.41797 4.4414.23829 4.4375-.1172 3.19922-4.04687 1.23828-.40625 4.4375-.3164 4.4375-.21094 4.44141-2.47656.79688-1.03125-.79688-.8672-.60547-3.5703-3.83594-4.13282-.26953-.30468-4.16797-3.73438-1.98046-.70312-2.45703-2.64454-2.52344-1.79687-1.91406-1.71094-4.4375-2.375-4.44141-.34765-.01563-.00391L207.83203 396l-.29687-4.4375-1.39844-1.40625-4.4375-2.79297-1.8164-.23828 1.8164-1.875 1.35547-2.5664 2.6211-4.4375-3.97657-3.53907-4.4375-.69922-1.59766-.19922-1.46875-4.4375-1.375-1.53125-3.47265-2.90625.74218-4.4414-1.70703-3.27735v-45.54296h44.38281v77.29296l-2.875 2.59766 2.875 2.6914 2.95313-2.6914-2.95313-2.59766v-77.29296h17.75391v69.39843l-1.47266 1.61328 1.47266 1.48438v32.39453l-.95703 1.6289.95703.86329 4.4375.41797 1.92188-1.28125-1.92188-1.28516-4.4375-.34375v-32.39453l2.76172-1.48438-2.76172-1.61328v-69.39844h22.1914V355.625l-.39062.42969.39063.57422 1.39062-.57422-1.39062-.42969v-43.95313h13.3164v33.39454l-3.7539 2.11328-.6836.26562-4.15625 4.17188 4.15625 3.07422 3.88282 1.36328.55468.46094.51172-.46094 3.1211-4.4375-1.91016-4.4375-1.72266-2.11328v-33.39454h8.875v60.21094l-1.96093 1.92578 1.96093.6797 1.10938-.6797-1.10938-1.92578v-60.21094h13.31641v32.01563l-3.91406 3.49219-.52344 2.28515-1.08984 2.15235 1.08984 1.70703 4.4375-.1211 2.27344-1.58593 2.16406-2.71094 4.4414-1.03906 2.625-.6875-2.625-1.58203-4.4414.11718-4.4375-2.02734v-32.01563h17.7539v19.56641l-1.6328 2.625 1.6328 1.5039 3.67579-1.5039-3.67578-2.625v-19.5664h17.7539v13.98046l-4.4375 2.60547-1.6914 1.16797 1.6914 1.26563v115.92968l-4.4414.63672-2.00391 2.0039-2.4336 1.61329-3.05468 2.82422-.54297 4.4375 3.59766 2.45703 4.4375.90625 1.67968 1.07422 2.76172 2.28906 4.4375 1.1914 4.4375-.125 4.4375-.92968 4.4414-.71875 4.4375.14453 4.4375.92188 4.4375.5078 4.4375-.05077 4.44142.6289 3.32812-3.85937.03125-4.4375 1.07813-1.72656 2.83984-2.71094-2.83985-2.8125-4.4375-1.26563-4.4414 1.91407-2.25 2.16406-2.1875 3.33984-4.4375 1.05469-.24219.04297-4.19531 1.01953-4.4375-.69922-1.0625-.32031-3.3789-.48438-4.4375-2.05078-3.60548-1.90234-.83203-.7539-2.58984-3.6836-1.84766-2.64063V330.69141l4.29297 3.17187.14453.27735.46485-.27735 3.02343-4.4375-3.48828-3.77344v-13.98046h26.6289v125.25l-3.39452 3.46093-1.04297 2.21094-4.4375 1.11719-4.4375-.33594-1.61719 1.44531 1.61719 2.35938 4.4375-1.09766 4.4375 1 4.4375.1289 4.4375.7461 3.32422-3.13672-3.32422-3.13672-1.04297-1.30078-3.39453-3.46094v-125.25h26.6289v82.59766L395.25781 396l1.72656 1.73047v28.625l-.78125.71484.78125 2.42188.25782 2.01562 1.6211 4.4375 1.5703 4.4375-.89453 4.4375.92578 4.4414.96094 1.13282.82813-1.13281 1.92187-4.4414 1.6875-.71485 4.4375-1.3711 4.4375.4922 3.23828-2.84376-3.23828-2.71094-.77344-1.72656-3.66406-3.69531-.67969-.74219-3.7578-3.76953-4.4375.32422-3.53907-.99219-.90235-.71484v-28.625L399.54298 396l-2.5586-1.73047v-82.59765h26.63282v80.03515L419.21875 396l2.50781 4.4375-.20312 4.4375-2.34375 1.52734-3.46094-1.52734 1.01172-4.4375L418.83984 396l-4.10156-2.73047L411.91797 396l.73828 4.4375.86328 4.4375-.3711 4.4414 1.58985 1.58985 2.88672 2.84766-.84375 4.4375 2.39844 2.40234 2.02734 2.03516 2.41016 2.3164 3.30469-2.3164 1.1328-.27735 4.4375-.5039 4.4375-1.125 2.67188-2.53125 1.76953-1.02735 3.57422-3.41015.86328-1.91016 2.17579-2.52734-2.17579-2.23438-1.01562-2.20703-.16016-4.4375-3.26172-3.57422-4.4414 2.85547-.71875.71875-3.71875 2.39844-4.4375-.53906-2.58985-1.85938L427.92578 396l-4.3086-4.29297v-80.03515h26.62891v113.24218l-2.17968 2.15625 2.17968 3.35156 2.20704-3.35156-2.20704-2.15625V311.67187h17.75v168.65625H144.00391"/></g><path fill="#50fcfc" fill-rule="evenodd" d="M155.27734 391.5625l-.14453-4.4375 2.1836-2.3164 4.4375-1.81641 4.4375 2.3789 1.66406 1.75391-1.66406 3.19922-.76563 1.23828-3.67187 3.67578-4.4375-1.3125-2.03907-2.36328m20.85547-22.1914l-.11719-4.4375 3.4922-2.59376 1.1289-1.84765 3.3086-2.27344v5.40625l-.91798 1.3086-3.51953 1.78906-1.76562 2.64843 1.76562 1.89454 2.35938 2.54296 2.07812 1.94922 2.32031-1.94922 1.23438-4.4375-2.7461-4.4375-.80859-1.30859v-5.40625l4.4375-1.0039 1.70703 3.27734-.74218 4.4414 3.47265 2.90625v6.27344l-3.47265 4.13281 3.17968 4.4375.29297.25782 4.4414 2.68359 2.91798-2.9414 1.51953-1.40235 2.45703-3.03516-2.45703-2.1875-4.4375-1.46875-4.4414-.47656v-6.27344l1.375 1.53125 1.46874 4.4375 1.59766.19922 4.4375.69922 3.97656 3.53906-2.6211 4.4375-1.35546 2.56641-1.8164 1.875 1.8164.23828v1.3125l-2.625 2.88672-1.8125 2.50781L195.43359 396l-2.61328 1.20703-3.57422 3.23047-.55859 4.4375 2.98438 4.4414 1.14843 1.19923.92969 3.23828 3.25 4.4375.26172.28125 2.92578 4.15625 1.51172 1.64843 2.36328 2.79297 2.07422 1.82031 4.4375.85157 4.4414.53906 3.71094-3.21094.72656-1.75781 4.4375-1.72266 3.48829-.96093.94922-.10157.98828.10157 3.44922.80468 1.10546-.80468 1.27735-4.4375-2.38281-2.56641-1.65625-1.8711-2.78125-2.48827-4.4375-1.83985-.20313-.10937-4.23438-4.02344-.51171-.41797-3.92578-3.39063-4.44141-.67968-1.72266-.36719-2.71484-2.94531-4.4375-.96485L200.29297 396l1.40625-.8789 3.35547-3.5586-3.35547-2.88672v-1.3125l4.4375 2.79297 1.39844 1.40625.29687 4.4375 2.72656 4.4375.01563.0039 4.4414.34766 4.4375 2.375 1.91407 1.71094 2.52344 1.79688 2.45703 2.64453 1.98047.70312 4.16796 3.73438.26953.30468 3.83594 4.13282.60547 3.5703.79688.8672-.79688 1.03125-4.4414 2.47656-4.4375.21094-4.4375.3164-1.23829.40625-3.19922 4.04688-4.4375.11719-4.4414-.23829-4.4375-.41796-4-3.50782-.4375-.51953-3.60547-3.92187-.83203-1.1836-2.99219-3.2539-1.1875-4.4375-.26172-.90235-3.38281-3.53515-1.05469-1.6875-2.99219-2.75391 2.9922-4.02344.0625-.41406 4.375-3.95703L193.86718 396l3.39453-3.58203.61719-.85547-.6172-2.9336-1.30858-1.5039-3.13282-1.6289-3.23047-2.8125-.91015-4.4375.71875-4.4375 1.80469-4.4375-2.82032-3.40626-.26172 3.40625-.0625 4.4375-4.11328 3.45313-3.6836-3.45313-.7539-.8164-3.375-3.6211"/><path fill="#00e8fc" fill-rule="evenodd" d="M179.50781 371.26563l-1.76562-1.89454 1.76562-2.64843 3.51953-1.78907.91797-1.30859v2.48828l-3.89453 3.25781 3.89453 4.06641 2.51953-4.0664-2.51953-3.25782V363.625l.8086 1.3086 2.74609 4.4375-1.23438 4.4375-2.3203 1.94921-2.07813-1.94922-2.35938-2.54296"/><path fill="#00d4fc" fill-rule="evenodd" d="M183.94531 373.4375l-3.89453-4.0664 3.89453-3.25782v1.33594l-2.29687 1.92187 2.29687 2.39844 1.48828-2.39844-1.48828-1.92187v-1.33594l2.51953 3.25781-2.51953 4.06641"/><path fill="#00c4fc" fill-rule="evenodd" d="M183.94531 371.76953l-2.29687-2.39844 2.29687-1.92187v1.33594l-.69922.58593.69922.73047.45313-.73047-.45313-.58593v-1.33594l1.48828 1.92187-1.48828 2.39844"/><path fill="#00b8fc" fill-rule="evenodd" d="M183.94531 370.10156l-.69922-.73047.69922-.58593.45313.58593-.45313.73047"/><path fill="#00e8fc" fill-rule="evenodd" d="M191.67188 409.3164l-2.98438-4.4414.5586-4.4375 3.57421-3.23047L195.4336 396l1.82813-1.92969v3.28125l-4.4414 1.0586-2.23829 2.02734.3086 4.4375 1.92968 2.48438.80078 1.95703 1.2422 4.4375 2.39843 3.08593.92187 1.35157 3.51563 3.83593.92969.60157 3.5078 3.80859 2.48048.63281 1.95703.58203 4.4414 1.03907 1.875-1.6211 1.92579-4.4414.63672-.6172 4.4375-.23437 4.4375-1.23046 4.375-2.35547-3.91016-4.4375-.46484-.41407-4.4375-3.30078-1.34766-.72265-3.08984-2.9375-1.85157-1.50391-2.58594-2.23438-4.4414-1.23437-4.4375-.92188L206 400.4375l-4.30078-2.29297-4.4375-.79297v-3.28125l1.8125-2.50781 2.625-2.88672v2.1914l-.63281.69532.6328.85938.8086-.85938-.8086-.69531v-2.1914l3.35548 2.88671-3.35547 3.5586-1.40625.8789 1.40625.52734 4.4375.96485 2.71484 2.94531 1.72266.36719 4.4414.67969 3.92579 3.39062.51172.41797 4.23437 4.02344.20313.10937 4.4375 1.83985 2.78125 2.48828 1.65625 1.87109 2.3828 2.5664-1.27734 4.4375-1.10547.8047-3.44921-.8047-.98828-.10156-.94922.10157-3.48828.96093-4.4375 1.72266-.72657 1.75781-3.71094 3.21094-4.4414-.53906-4.4375-.85156-2.07422-1.82032-2.36328-2.79297-1.51172-1.64843-2.92578-4.15625L197 418.1914l-3.25-4.4375-.92969-3.23829-1.14844-1.19921m.85547-26.63282l-3.17968-4.4375 3.47265-4.1328v1.32421l-2.36328 2.8086 2.36328 3.07812 4.4414 1.15234 4.39063-4.23047-4.39062-2.68359-4.4414-.125v-1.32422l4.4414.47656 4.4375 1.46875 2.45703 2.1875-2.45703 3.03516-1.51953 1.40234-2.91797 2.94141-4.4414-2.6836-.29298-.2578"/><path fill="#00d4fc" fill-rule="evenodd" d="M192.82031 381.32422l-2.36328-3.07813 2.36328-2.80859 4.4414.125v.96875l-4.4414.22656-1.25 1.48828 1.25 1.62891 4.4414 1.07422 2.80079-2.70313-2.80078-1.71484v-.96875l4.39062 2.6836-4.39062 4.23046-4.4414-1.15234m-1.9297 23.55078l-.30859-4.4375 2.23828-2.02734v1.20703l-.90625.82031.90625 3.76563 3.03516-3.76563-3.03516-.82031v-1.20703l4.4414-1.0586v5.28906l-1.96093 2.23438 1.96094.80469 4.4375 1.25v6.59765l-.08984.22657.08984.05468.17969-.05468-.1797-.22657v-6.59765l.62892-2.05469-.62891-1.49219-4.4375-.74219v-5.28906l4.4375.79297v1.61719l-2.53516.67578 2.53516.8711 1.5039 3.5664-1.07812 4.4414 3.8086 4.4375-4.23438 1.27735-2.10938-1.27734 1.79297-4.4375-4.1211-2.48047-2.48437 2.48047 1.19922 4.4375 1.28516 1.65234 1.90234 2.78516 2.53516 2.76562 2.57812 1.67188 1.85938 2.01953 4.4375 1.66406 4.3086.75781.1328.03125.03907-.03125 2.14844-4.4414 2.25-2.1875 4.4375.28906 4.4375-2.16797.6875-.3711-.6875-.83984-.60547-3.59765-3.83203-3.10157-2.4922-1.33593-1.9453-1.85157-3.19141-2.58984-1.2461-1.07813-4.4414-1.78515-4.4375-.51953-3.16797-1.05469-1.26953-.67578v-1.61719L206 400.4375l.13672.04688 4.4375.92187 4.4414 1.23438 2.58594 2.23437 1.85156 1.5039 3.08985 2.9375 1.34766.72266 4.4375 3.30078.46484.41407 3.91016 4.4375-4.375 2.35546-4.4375 1.23047-4.4375.23438-.63672.61719-1.92578 4.4414-1.875 1.6211-4.44141-1.03907-1.95703-.58203-2.48047-.63281-3.50781-3.8086-.9297-.60156-3.51562-3.83593-.92187-1.35157-2.39844-3.08593-1.24219-4.4375-.80078-1.95704-1.92969-2.48437"/><path fill="#00c4fc" fill-rule="evenodd" d="M192.82031 379.875l-1.25-1.6289 1.25-1.48829 4.4414-.22656V377.5l-4.4414.58203-.13672.16406.13672.1836 4.4414.99219 1.21485-1.17579-1.21484-.74609v-.96875l2.80078 1.71484-2.80078 2.70313-4.4414-1.07422m0 24.32813l-.90626-3.76563.90625-.82031 3.03516.82031-3.03516 3.76563"/><path fill="#00b8fc" fill-rule="evenodd" d="M192.82031 378.42969l-.13672-.1836.13672-.16406 4.4414-.58203 1.21485.7461-1.21484 1.17577-4.4414-.99218"/><path fill="#00c4fc" fill-rule="evenodd" d="M195.97656 413.7539l-1.19922-4.4375 2.48438-2.48046 4.1211 2.48047-1.79298 4.4375 2.10938 1.27734 4.23437-1.27734-3.80859-4.4375 1.07813-4.44141-1.50391-3.5664-2.53516-.8711 2.53516-.67578 1.26953.67578 3.16797 1.05469V402.5l-2.0586 2.375.64063 4.4414 1.41797 1.6211.48047 2.8164-.48047 2.08204-4.4375.41406-4.1289-2.4961 1.89062-4.4375-2.19922-1.32812-1.32813 1.32813 1.15625 4.4375.17188.21875 2.88281 4.21875 1.55469 1.69921 4.22266 2.73829.21484.23437 4.4375 2.40235 4.4414-1.44141.57813-1.19531 3.85938-3.75391 4.4375.80469 2.8203-1.48828.25391-4.4375-3.07422-2.48829-3.63671-1.94921-.80078-.76563-4.4375-3.59375-.08204-.08203-4.35937-2.26172-4.4375-.11328v-1.00781l4.4375.51953 4.4414 1.78515 1.2461 1.07813 3.1914 2.58984 1.94532 1.85157 2.49219 1.33593 3.83203 3.10157.60547 3.59765.6875.83985-.6875.37109-4.4375 2.16797-4.4375-.28906-2.25 2.1875-2.14844 4.4414-.03906.03125-.13282-.03125-4.3086-.75781-4.4375-1.66406-1.85937-2.01953-2.57812-1.67188-2.53516-2.76562-1.90234-2.78516-1.28516-1.65234"/><path fill="#00e8fc" fill-rule="evenodd" d="M197.26172 402.64063l-1.96094 2.23437 1.96094.80469 4.4375 1.25.6289-2.05469-.6289-1.49219-4.4375-.74219"/><path fill="#00b8fc" fill-rule="evenodd" d="M197.08984 413.7539l-1.15625-4.4375 1.32813-1.32812v1.15625l-.17188.17188.17188.66015.28125-.66015-.28125-.17188v-1.15625l2.19922 1.32813-1.89063 4.4375 4.1289 2.49609 4.4375-.41406.48048-2.08203-.48047-2.81641-1.41797-1.6211-.64063-4.4414 2.0586-2.375 4.4375.11328v.60547l-4.4375.28906-1.1836 1.36719 1.1836 3.32813.53906 1.11328.44531 4.4375-.98437 4.27734-4.4375-.5586-.57813.71876.57813.6289 4.4375-.28515 1.61719 4.09375 2.8203 1.58984 3.1211-1.58984 1.32031-2.8086 1.75782-1.6289 2.67969-.125 2.54296.125 1.89453.4414.83594-.4414 1.48047-4.4375-2.3164-1.875-4.4375-2.4961-.44141-.0664-3.9961-3.1797-1.24218-1.26171-3.19922-1.65625v-.60547l4.35937 2.26172.08203.08203 4.4375 3.59375.80079.76563 3.63672 1.94921 3.07421 2.48829-.2539 4.4375-2.82031 1.48828-4.4375-.80469-3.85938 3.7539-.57813 1.19532-4.4414 1.4414-4.4375-2.40234-.21484-.23437-4.22266-2.73829-1.55469-1.69921-2.88281-4.21875-.17188-.21875"/><path fill="#00a8fc" fill-rule="evenodd" d="M197.26172 409.97656l-.17188-.66015.17188-.17188.28125.17188-.28125.66015"/><path fill="#00d4fc" fill-rule="evenodd" d="M201.69922 392.42188l-.63281-.85938.6328-.69531.8086.69531-.8086.85938"/><path fill="#00a8fc" fill-rule="evenodd" d="M201.69922 418.82031l-.57813-.6289.57813-.71875 4.4375.55859.98437-4.27734-.4453-4.4375-.53907-1.11329-1.1836-3.32812 1.1836-1.36719 4.4375-.28906v.60156l-4.4375.69922-.3125.35547.3125.875 1.73047 3.5664-.23828 4.4375.16015 4.4375 1.82422 4.4375.96094.54298 1.0664-.54297 2.10157-4.4375 1.27344-.1172 4.4375-.23437 4.4375-.625 1.55468-3.46093-1.55469-1.26172-4.4375-2.88281-1.92578-.29297-2.51172-2.00391-2.40625-2.4375-2.03515-1.05469v-.60156l3.19922 1.65625 1.24219 1.26172 3.99609 3.17969.4414.0664 4.4375 2.4961 2.31641 1.875-1.48047 4.4375-.83594.4414-1.89453-.4414-2.54297-.125-2.67968.125-1.75781 1.6289-1.32032 2.8086-3.1211 1.58984-2.8203-1.58984-1.6172-4.09375-4.4375.28515"/><path fill="#00e8fc" fill-rule="evenodd" d="M201.69922 413.52734l-.08984.22657.08984.05468.17969-.05468-.1797-.22657"/><path fill="#009800" fill-rule="evenodd" d="M206.13672 405.75l-.3125-.875.3125-.35547 4.4375-.69922v.60547l-2.38281.44922.86718 4.4414-.92578 4.4375 1.4375 4.4375 1.0039 2.39454 1.14454-2.39453 3.29688-.3086 4.4375-.26953 4.4375-2.08594.79687-1.77343-.79688-.64454-4.4375-3.26953-3.40625-.52343-1.03125-.82422-3.5703-3.61719-.8711-.44922v-.60547l2.03516 1.05469 2.40625 2.4375 2.51171 2.0039 1.92578.29298 4.4375 2.8828 1.5547 1.26173-1.5547 3.46093-4.4375.625-4.4375.23438-1.27343.11719-2.10156 4.4375-1.06641.54296-.96094-.54296-1.82422-4.4375-.16015-4.4375.23828-4.4375-1.73047-3.56641"/><path fill="#00ac00" fill-rule="evenodd" d="M209.57031 418.1914l-1.4375-4.4375.92578-4.4375-.86718-4.4414 2.3828-.44922v2.58203l-.32421 2.3086-1.60938 4.4375 1.9336 3.98437 4.4414-.04687 4.4375-.30079 4.4375-3.55078.03907-.08593-.03906-.03125-4.4375-3.65625-4.4375-.6875-2.33985-.0625-2.10156-2.3086v-2.58203l.8711.44922 3.5703 3.61719 1.03125.82422 3.40625.52343 4.4375 3.26954.79688.64453-.79688 1.77343-4.4375 2.08594-4.4375.26953-3.29687.3086-1.14453 2.39453-1.0039-2.39453"/><path fill="#00c800" fill-rule="evenodd" d="M210.57422 417.73828l-1.9336-3.98437 1.60938-4.4375.32422-2.3086 2.10156 2.3086 2.33984.0625v.42187l-4.4414 1.67188-.92188 2.28125.92188 1.90234 4.4414 1.65625 4.4375-.3711 3.90235-3.1875-3.90234-3.23046-4.4375-.72266v-.42187l4.4375.6875 4.4375 3.65625.03906.03125-.03906.08593-4.4375 3.55079-4.4375.30078-4.44141.04687"/><path fill="#10cc00" fill-rule="evenodd" d="M210.57422 415.65625l-.92188-1.90234.92188-2.28125 4.4414-1.67188v.42188l-4.39453 3.53125 4.39453 3.17968 4.4375-.4414 3.35157-2.73828-3.35156-2.77344-4.4375-.75781v-.42188l4.4375.72266 3.90234 3.23047-3.90234 3.1875-4.4375.37109-4.44141-1.65625"/><path fill="#24d000" fill-rule="evenodd" d="M215.01563 416.9336l-4.39454-3.1797 4.39453-3.53124v.42187l-3.87109 3.10938 3.8711 2.80078 4.4375-.51172 2.80078-2.28906-2.80078-2.32032-4.4375-.78906v-.42187l4.4375.7578 3.35156 2.77345-3.35156 2.73828-4.4375.4414"/><path fill="#3cd800" fill-rule="evenodd" d="M215.01563 416.55469l-3.8711-2.80078 3.8711-3.10938v.41797l-3.34766 2.6914 3.34766 2.42188 4.4375-.58594 2.25-1.83593-2.25-1.86329-4.4375-.82812v-.41797l4.4375.78906 2.80078 2.32032-2.80078 2.28906-4.4375.51172"/><path fill="#54dc00" fill-rule="evenodd" d="M215.01563 416.17578l-3.34766-2.42187 3.34766-2.69141v.42188l-2.82422 2.26953 2.82422 2.04296 4.4375-.65625 1.69921-1.38671-1.69922-1.40625-4.4375-.86329v-.42187l4.4375.82813 2.25 1.86328-2.25 1.83593-4.4375.58594"/><path fill="#e8e05c" fill-rule="evenodd" d="M215.01563 415.79688l-2.82422-2.04297 2.82422-2.26954v.42188l-2.30079 1.84766 2.30078 1.66406 4.4375-.72656 1.14844-.9375-1.14844-.95313-4.4375-.89453v-.42188l4.4375.86329 1.69922 1.40625-1.69922 1.38671-4.4375.65625"/><path fill="#e8d450" fill-rule="evenodd" d="M215.01563 415.41797l-2.30079-1.66406 2.30078-1.84766v.84375l-1.25 1.0039 1.25.90235 4.4375-.86328.04688-.03906-.04688-.03907-4.4375-.96484v-.84375l4.4375.89453 1.14844.95313-1.14844.9375-4.4375.72656"/><path fill="#e8b830" fill-rule="evenodd" d="M215.01563 414.65625l-1.25-.90234 1.25-1.00391v.83984l-.20313.16407.20313.14453.74218-.14453-.74219-.16407V412.75l4.4375.96484.04688.03907-.04688.03906-4.4375.86328"/><path fill="#e8a824" fill-rule="evenodd" d="M215.01563 413.89844l-.20313-.14453.20313-.16407.74218.16407-.74219.14453"/><path fill="#50fcfc" fill-rule="evenodd" d="M232.76563 394.2539l-2.875-2.6914 2.875-2.59766 2.95312 2.59766-2.95313 2.6914m17.75391-10.08593l-1.47266-1.48438 1.47266-1.61328 2.76172 1.61328-2.76172 1.48438m0 34.88672l-.95703-.86328.95703-1.62891 4.4375.34375 1.92188 1.28516-1.92188 1.28125-4.4375-.41797m22.1914-62.42578l-.39062-.57422.39063-.42969 1.39062.42969-1.39062.57422m8.8789-1.9375l-4.15625-3.07422 4.15625-4.17188.6836-.26562 3.7539-2.11328v3.13671l-4.4375 2.69532-.71484.71875.71484.52734 4.4375 2.46875 2.39063-2.9961-2.39063-3.41406v-3.13671l1.72266 2.11328 1.91016 4.4375-3.1211 4.4375-.51172.46094-.55468-.46094-3.88282-1.36328"/><path fill="#00e8fc" fill-rule="evenodd" d="M281.58984 352.14453l-.71484-.52734.71484-.71875 4.4375-2.69531v2.95703l-.66406.45703.66406.39844.31641-.39844-.3164-.45703v-2.95704l2.39062 3.41407-2.39063 2.9961-4.4375-2.46876"/><path fill="#00d4fc" fill-rule="evenodd" d="M286.02734 352.01563l-.66406-.39844.66406-.45703.31641.45703-.3164.39844"/><path fill="#50fcfc" fill-rule="evenodd" d="M294.90234 374.48828l-1.96093-.67969 1.96093-1.92578 1.10938 1.92578-1.10938.6797m8.87891-21.16407l-1.08984-1.70703 1.08984-2.15235.52344-2.28515 3.91406-3.49219v2.13281l-1.51953 1.35938 1.51953 2.0664 1.91797-2.0664-1.91797-1.35938v-2.13281l4.4375 2.02734 4.4414-.11718 2.625 1.58203-2.625.6875-4.4414 1.03906-2.16406 2.71094-2.27344 1.58594-4.4375.12109"/><path fill="#00e8fc" fill-rule="evenodd" d="M308.21875 349.2461l-1.51953-2.06641 1.51953-1.35938 1.91797 1.35938-1.91797 2.0664"/><path fill="#50fcfc" fill-rule="evenodd" d="M325.97266 335.36719l-1.63282-1.5039 1.63282-2.625 3.67578 2.625-3.67578 1.5039m4.4375 125.22656l-3.59766-2.45703.54297-4.4375 3.05469-2.82422 2.43359-1.61328 2.0039-2.0039v4.5625l-3.55859 1.8789 1.26172 4.4375 2.29688.6211 4.4414 2.34374 1.14453 1.47266 3.29297 1.75781 4.4375-.65234 1.98828-1.10547-1.98828-2.57031-3.13281-1.8672-1.30469-.63671-4.4375-3.6914-.1875-.10938-4.2539-1.8789v-4.5625l4.4414-.63673 1.84766 2.64063 2.58984 3.6836.83203.7539 3.60547 1.90234 4.4375 2.05078 3.3789.48438 1.0625.32031 4.4375.69922 4.19532-1.01953.24219-.04297 4.4375-1.05469 2.1875-3.33984 2.25-2.16406 4.4414-1.91407v2.72657l-2.55468 1.35156-1.88672 2.07812-1.51563 2.35938-2.92187 3.48437-1.75781.95313 1.7578.58984 4.4375.22266 4.44142 1.05469 1.60937-1.8672.1211-4.4375 2.70702-4.33983.10157-.09766-.10156-.10156-4.4375-1.25v-2.72657l4.4375 1.26563 2.83984 2.8125-2.83985 2.71094-1.07812 1.72656-.03125 4.4375-3.32813 3.85937-4.4414-.6289-4.4375.05078-4.4375-.50781-4.4375-.92188-4.4375-.14453-4.4414.71875-4.4375.92969-4.4375.125-4.4375-1.1914-2.76173-2.28907-1.67968-1.07422-4.4375-.90625"/><path fill="#00e8fc" fill-rule="evenodd" d="M332.55078 458.13672l-1.26172-4.4375 3.5586-1.8789 4.2539 1.8789.1875.10937 4.4375 3.69141 1.30469.63672 3.13281 1.86719 1.98828 2.5703-1.98828 1.10548-4.4375.65234-3.29297-1.75781-1.14453-1.47266-4.4414-2.34375-2.29688-.6211"/><path fill="#50fcfc" fill-rule="evenodd" d="M339.28906 330.6914l-1.6914-1.26562 1.6914-1.16797 4.4375-2.60547 3.48828 3.77344-3.02343 4.4375-.46485.27735-.14453-.27735-4.29297-3.17187m17.7539 116.48828l-1.61718-2.35938 1.61719-1.44531 4.4375.33594 4.4375-1.11719 1.04297-2.21094 3.39453-3.46094v1.60157l-1.82031 1.85937 1.8203 3.21875 1.8672 1.21875 2.5703 1.1836 1.25392-1.1836-1.25391-1.1836-2.61328-3.2539-1.82422-1.85937v-1.60156l3.39453 3.46093 1.04297 1.30078 3.32422 3.13672-3.32422 3.13672-4.4375-.7461-4.4375-.1289-4.4375-1-4.4375 1.09766"/><path fill="#00e8fc" fill-rule="evenodd" d="M370.35547 443.60156l-1.82031-3.21875 1.8203-1.85937 1.82423 1.85937 2.61328 3.2539 1.2539 1.1836-1.2539 1.1836-2.57031-1.1836-1.8672-1.21875m0 19.5625l-1.7578-.58984 1.7578-.95313 2.92188-3.48437 1.51563-2.35938 1.88672-2.07812 2.55469-1.35156 4.4375 1.25.10156.10156-.10156.09765-2.70704 4.33985-.12109 4.4375-1.60938 1.86719-4.4414-1.0547-4.4375-.22265"/><path fill="#50fcfc" fill-rule="evenodd" d="M396.98438 397.73047L395.2578 396l1.72656-1.73047L399.54298 396l-2.5586 1.73047m0 31.76172l-.78125-2.42188.78125-.71484.90235.71484 3.53906.99219 4.4375-.32422v1.22266l-4.4375 1.5-1.27344 1.04687 1.27344 2.63281.38672 1.8047 2.85938 4.4375 1.1914.875 2.25781-.875 2.1797-.64063 2.33983-3.79688-2.33984-2.35937-1.89844-2.07813-2.53906-2.54687v-1.22266l3.75781 3.76953.6797.74219 3.66405 3.69531.77344 1.72656 3.23828 2.71094-3.23828 2.84375-4.4375-.49219-4.4375 1.3711-1.6875.71484-1.92187 4.4414-.82813 1.13282-.96094-1.13281-.92578-4.4414.89453-4.4375-1.5703-4.4375-1.6211-4.4375-.25781-2.01563"/><path fill="#00e8fc" fill-rule="evenodd" d="M401.42578 434.14063l-1.27344-2.63282 1.27344-1.04687 4.4375-1.5V431l-1.11719.50781-.77734 4.4375 1.89453 2.30078 4.4375-2.08984.1289-.21094-.1289-.13281-3.9336-4.30469-.5039-.50781v-2.03906l2.53906 2.54687 1.89844 2.07813 2.33985 2.35937-2.33985 3.79688-2.17969.64062-2.2578.875-1.19142-.875-2.85937-4.4375-.38672-1.80469"/><path fill="#00d4fc" fill-rule="evenodd" d="M405.86328 438.2461l-1.89453-2.30079.77734-4.4375L405.8633 431l.5039.50781 3.9336 4.30469.1289.13281-.1289.21094-4.4375 2.08984"/><path fill="#50fcfc" fill-rule="evenodd" d="M412.65625 400.4375L411.91797 396l2.82031-2.73047v2.65235l-.07812.07812.07812.25.11719-.25-.11719-.07813v-2.65234L418.83984 396l-2.10937 4.4375-1.01172 4.4375 3.46094 1.52734 2.34375-1.52734.20312-4.4375L419.21875 396l4.39844-4.29297v.45703L419.68359 396l3.9336 4.17578L427.47266 396l-3.85547-3.83594v-.45703L427.92579 396l-2.46095 4.4375 2.58985 1.85938 4.4375.53906 3.71875-2.39844.71875-.71875 4.4414-2.85547v1.92969l-2.19921 1.64453-1.94922 4.4375-.29297.14844-4.4375 1.65625-4.4375-1.41797-4.4375.6836-4.4375 3.1875-.42578.18359.42578.41406 2.6914 4.02344-.76562 4.4375 2.51172 2.53125 4.4375.51171 4.4375-.57812 4.20703-2.46484.23047-.1797 4.4414-2.59765 1.7422-1.66015 1.63671-4.4375-1.60938-4.44141-.26562-4.4375-1.5039-1.64453v-1.92969l3.26171 3.57422.16016 4.4375 1.01562 2.20703 2.17579 2.23438-2.17579 2.52734-.86328 1.91016-3.57422 3.41015-1.76953 1.02735-2.67187 2.53125-4.4375 1.125-4.4375.5039-1.13281.27735-3.3047 2.3164-2.41015-2.3164-2.02734-2.03516-2.39844-2.40234.84375-4.4375-2.88672-2.84766-1.58984-1.58984.3711-4.44141-.86329-4.4375"/><path fill="#00e8fc" fill-rule="evenodd" d="M414.73828 396.25l-.07812-.25.07812-.07813.11719.07813-.11719.25m4.4414 13.48047l-.42577-.41406.42578-.1836 4.4375-3.1875 4.4375-.6836 4.4375 1.41798 4.4375-1.65625v3.24219l-1.52344 1.05078-2.91406 1.96875-4.4375.15234-1.71875 2.3164-.26953 4.4375 1.98828 1.1836 4.4375-.70703.8125-.47656 3.625-2.81641 2.61719-1.6211-.21485-4.4375-2.40234-1.05077v-3.2422l.29297-.14843 1.94921-4.4375 2.19922-1.64453 1.50391 1.64453.26563 4.4375 1.60937 4.4414-1.63672 4.4375-1.74219 1.66016-4.4414 2.59766-.23047.17969-4.20703 2.46484-4.4375.57813-4.4375-.51172-2.51172-2.53125.76562-4.4375-2.6914-4.02344m4.4375-9.55469L419.68359 396l3.9336-3.83594v.75781L420.46094 396l3.15625 3.35156L426.70703 396l-3.08984-3.07813v-.7578L427.47266 396l-3.85547 4.17578"/><path fill="#00d4fc" fill-rule="evenodd" d="M423.61719 399.35156L420.46094 396l3.15625-3.07813v.75782L421.23829 396l2.3789 2.52344L425.9453 396l-2.32812-2.32031v-.75781L426.70703 396l-3.08984 3.35156"/><path fill="#00c4fc" fill-rule="evenodd" d="M423.61719 398.52344L421.23829 396l2.3789-2.32031v.75781L422.01563 396l1.60156 1.69922L425.18359 396l-1.5664-1.5625v-.75781L425.9453 396l-2.32812 2.52344"/><path fill="#00b8fc" fill-rule="evenodd" d="M423.61719 397.69922L422.01563 396l1.60156-1.5625v.75781l-.82422.80469.82422.875.80469-.875-.8047-.80469v-.75781L425.1836 396l-1.5664 1.69922"/><path fill="#00a8fc" fill-rule="evenodd" d="M423.61719 396.875l-.82422-.875.82422-.80469v.75781L423.5703 396l.04688.05078.04297-.05078-.04297-.04688v-.7578l.80469.80468-.8047.875"/><path fill="#009800" fill-rule="evenodd" d="M423.61719 396.05078L423.5703 396l.04688-.04688.04297.04688-.04297.05078"/><path fill="#00d4fc" fill-rule="evenodd" d="M428.05469 419.375l-1.98828-1.1836.26953-4.4375 1.71875-2.3164 4.4375-.15234 2.91406-1.96875 1.52344-1.05079 2.40234 1.05079.21485 4.4375-2.6172 1.62109-3.625 2.8164-.8125.47657-4.4375.70703"/><path fill="#50fcfc" fill-rule="evenodd" d="M450.2461 430.42188l-2.1797-3.35157 2.1797-2.15625 2.20702 2.15625-2.20703 3.35156"/><g clip-path="url(#c)"><path fill="#fff" fill-opacity="0" fill-rule="evenodd" d="M467.9961 480.32813H468V311.67188h-.0039H468v168.65625h-.0039"/></g><path fill="#fff" fill-opacity="0" fill-rule="evenodd" d="M203.78906 391.0039l3.42969-4.72265-8.0586-5.85547-3.43359 4.72656 8.0625 5.85157"/><path fill-rule="evenodd" d="M199.26953 383.39844l.29688-.41406 5.09375 3.69921-.46094.63672-3.63281-2.63672-.81641 1.125-.44922-.32812.27344-.49219.10547-.23437.0625-.23829.00781-.24609-.07031-.26562-.15235-.28907-.2578-.3164"/><path fill="#fff" fill-opacity="0" fill-rule="evenodd" d="M436.375 426.82031L441.49219 424l-4.8086-8.72266-5.11328 2.82032 4.80469 8.72265"/><path fill-rule="evenodd" d="M435.51953 418.01563l.44531-.2461 3.03907 5.51172-.69141.3789-2.16797-3.92968-1.21484.66797-.26953-.48438.46093-.32812.19532-.16797.15625-.1914.10937-.22266.05078-.26563-.01562-.32812-.09766-.39454"/><g clip-path="url(#d)"><path fill="none" stroke="#000" stroke-linecap="round" stroke-linejoin="round" stroke-miterlimit="10" stroke-width=".5" d="M146.61328 482.67578l-5.22656-4.69531"/></g><g clip-path="url(#e)"><path fill="none" stroke="#000" stroke-linecap="round" stroke-linejoin="round" stroke-miterlimit="10" stroke-width=".5" d="M159.96875 482.6289l-5.3086-4.60156"/></g><g clip-path="url(#f)"><path fill="none" stroke="#000" stroke-linecap="round" stroke-linejoin="round" stroke-miterlimit="10" stroke-width=".5" d="M173.23438 482.6875l-5.20704-4.71875"/></g><g clip-path="url(#g)"><path fill="none" stroke="#000" stroke-linecap="round" stroke-linejoin="round" stroke-miterlimit="10" stroke-width=".5" d="M186.9375 482.17188l-5.98438-3.6836"/></g><g clip-path="url(#h)"><path fill="none" stroke="#000" stroke-linecap="round" stroke-linejoin="round" stroke-miterlimit="10" stroke-width=".5" d="M200.5039 481.67578l-6.48827-2.6914"/></g><g clip-path="url(#i)"><path fill="none" stroke="#000" stroke-linecap="round" stroke-linejoin="round" stroke-miterlimit="10" stroke-width=".5" d="M213.69531 481.94922l-6.23828-3.23828"/></g><g clip-path="url(#j)"><path fill="none" stroke="#000" stroke-linecap="round" stroke-linejoin="round" stroke-miterlimit="10" stroke-width=".5" d="M227 481.96484l-6.21875-3.27343"/></g><g clip-path="url(#k)"><path fill="none" stroke="#000" stroke-linecap="round" stroke-linejoin="round" stroke-miterlimit="10" stroke-width=".5" d="M240.4375 481.70313l-6.46484-2.75"/></g><g clip-path="url(#l)"><path fill="none" stroke="#000" stroke-linecap="round" stroke-linejoin="round" stroke-miterlimit="10" stroke-width=".5" d="M253.8086 481.57031l-6.57423-2.48437"/></g><g clip-path="url(#m)"><path fill="none" stroke="#000" stroke-linecap="round" stroke-linejoin="round" stroke-miterlimit="10" stroke-width=".5" d="M267.34375 480.51172l-7.01563-.36328"/></g><g clip-path="url(#n)"><path fill="none" stroke="#000" stroke-linecap="round" stroke-linejoin="round" stroke-miterlimit="10" stroke-width=".5" d="M267.34375 480.51172l1.03906 2.22265"/></g><g clip-path="url(#o)"><path fill="none" stroke="#000" stroke-linecap="round" stroke-linejoin="round" stroke-miterlimit="10" stroke-width=".5" d="M280.66016 480.16016l-7.01953.33593"/></g><g clip-path="url(#p)"><path fill="none" stroke="#000" stroke-linecap="round" stroke-linejoin="round" stroke-miterlimit="10" stroke-width=".5" d="M280.66016 480.16016l1.2539 2.10937"/></g><g clip-path="url(#q)"><path fill="none" stroke="#000" stroke-linecap="round" stroke-linejoin="round" stroke-miterlimit="10" stroke-width=".5" d="M293.98047 480.3711l-7.02735-.08594"/></g><g clip-path="url(#r)"><path fill="none" stroke="#000" stroke-linecap="round" stroke-linejoin="round" stroke-miterlimit="10" stroke-width=".5" d="M293.98047 480.3711l1.125 2.18359"/></g><g clip-path="url(#s)"><path fill="none" stroke="#000" stroke-linecap="round" stroke-linejoin="round" stroke-miterlimit="10" stroke-width=".5" d="M307.26953 480.73047l-6.98047-.80469"/></g><g clip-path="url(#t)"><path fill="none" stroke="#000" stroke-linecap="round" stroke-linejoin="round" stroke-miterlimit="10" stroke-width=".5" d="M307.26953 480.73047l.89844 2.28515"/></g><g clip-path="url(#u)"><path fill="none" stroke="#000" stroke-linecap="round" stroke-linejoin="round" stroke-miterlimit="10" stroke-width=".5" d="M320.60938 480.4336l-7.02344-.21094"/></g><g clip-path="url(#v)"><path fill="none" stroke="#000" stroke-linecap="round" stroke-linejoin="round" stroke-miterlimit="10" stroke-width=".5" d="M320.60938 480.4336l1.08593 2.20312"/></g><g clip-path="url(#w)"><path fill="none" stroke="#000" stroke-linecap="round" stroke-linejoin="round" stroke-miterlimit="10" stroke-width=".5" d="M333.8789 479.75781l-6.93359 1.14453"/></g><g clip-path="url(#x)"><path fill="none" stroke="#000" stroke-linecap="round" stroke-linejoin="round" stroke-miterlimit="10" stroke-width=".5" d="M332.86719 479.92188l.7461.97656"/></g><g clip-path="url(#y)"><path fill="none" stroke="#000" stroke-linecap="round" stroke-linejoin="round" stroke-miterlimit="10" stroke-width=".5" d="M347.1836 479.70313l-6.91407 1.25"/></g><g clip-path="url(#z)"><path fill="none" stroke="#000" stroke-linecap="round" stroke-linejoin="round" stroke-miterlimit="10" stroke-width=".5" d="M346.17578 479.88672l.76172.96094"/></g><g clip-path="url(#A)"><path fill="none" stroke="#000" stroke-linecap="round" stroke-linejoin="round" stroke-miterlimit="10" stroke-width=".5" d="M360.30078 479.01953l-6.51953 2.6211"/></g><g clip-path="url(#B)"><path fill="none" stroke="#000" stroke-linecap="round" stroke-linejoin="round" stroke-miterlimit="10" stroke-width=".5" d="M359.35156 479.39844l.9375.78906"/></g><g clip-path="url(#C)"><path fill="none" stroke="#000" stroke-linecap="round" stroke-linejoin="round" stroke-miterlimit="10" stroke-width=".5" d="M373.39453 478.5664l-6.07812 3.52344"/></g><g clip-path="url(#D)"><path fill="none" stroke="#000" stroke-linecap="round" stroke-linejoin="round" stroke-miterlimit="10" stroke-width=".5" d="M373.39453 478.5664l2.08594 1.29688"/></g><g clip-path="url(#E)"><path fill="none" stroke="#000" stroke-linecap="round" stroke-linejoin="round" stroke-miterlimit="10" stroke-width=".5" d="M386.32031 478.01953l-5.29687 4.61719"/></g><path fill="none" stroke="#000" stroke-linecap="round" stroke-linejoin="round" stroke-miterlimit="10" stroke-width=".5" d="M385.54688 478.6914l1.14843.4375"/><g clip-path="url(#F)"><path fill="none" stroke="#000" stroke-linecap="round" stroke-linejoin="round" stroke-miterlimit="10" stroke-width=".5" d="M400.41406 479.55078l-6.85547 1.5586"/></g><g clip-path="url(#G)"><path fill="none" stroke="#000" stroke-linecap="round" stroke-linejoin="round" stroke-miterlimit="10" stroke-width=".5" d="M399.41406 479.77734l.80469.92578"/></g><g clip-path="url(#H)"><path fill="none" stroke="#000" stroke-linecap="round" stroke-linejoin="round" stroke-miterlimit="10" stroke-width=".5" d="M413.34766 482.07813l-6.09375-3.4961"/></g><g clip-path="url(#I)"><path fill="none" stroke="#000" stroke-linecap="round" stroke-linejoin="round" stroke-miterlimit="10" stroke-width=".5" d="M426.53906 482.28125l-5.84375-3.90234"/></g><g clip-path="url(#J)"><path fill="none" stroke="#000" stroke-linecap="round" stroke-linejoin="round" stroke-miterlimit="10" stroke-width=".5" d="M440.10547 481.83984l-6.34766-3.01953"/></g><g clip-path="url(#K)"><path fill="none" stroke="#000" stroke-linecap="round" stroke-linejoin="round" stroke-miterlimit="10" stroke-width=".5" d="M453.5625 481.48438l-6.63281-2.3125"/></g><g clip-path="url(#L)"><path fill="none" stroke="#000" stroke-linecap="round" stroke-linejoin="round" stroke-miterlimit="10" stroke-width=".5" d="M452.59766 481.14844l.1875 1.21094"/></g><g clip-path="url(#M)"><path fill="none" stroke="#000" stroke-linecap="round" stroke-linejoin="round" stroke-miterlimit="10" stroke-width=".5" d="M466.7539 481.79688l-6.38671-2.9336"/></g><g clip-path="url(#N)"><path fill="none" stroke="#000" stroke-linecap="round" stroke-linejoin="round" stroke-miterlimit="10" stroke-width=".5" d="M146.6211 469.35156l-5.2422-4.67578"/></g><path fill="none" stroke="#000" stroke-linecap="round" stroke-linejoin="round" stroke-miterlimit="10" stroke-width=".5" d="M146.6211 469.35156l-.57813 2.38281m-.1836-3.0625l-.28906 1.19141m14.64844-.875l-5.8086-3.94922m5.8086 3.94922l-.26563 2.4414m-.57812-3.01562l-.13281 1.21875m14.28125-.625l-5.78516-3.98828m5.78516 3.98828l-.28125 2.4375m14.05469-3.375l-6.70313-2.11328m5.72656 1.80469l.22266 1.20703m14.1875-1.40625l-6.9414-1.09766m5.93359.9375l.39843 1.16016m13.8125-.51563l-6.71875-2.0664m6.71875 2.0664l.46485 2.40625m12.98828-3.78906l-6.99219.69922m6.99219-.69922l1.35937 2.04297m11.85547-2.59375l-6.79297 1.80078m6.79297-1.80078l1.66797 1.80078m11.72266-1.4414l-6.94531 1.08203m6.9453-1.08203l1.47266 1.96484m11.88282-1.50781l-7.02344.16797m6-.14453l.60156 1.0703m13.73828-.92968l-7.02734-.16016m7.02734.16016l1.10157 2.1914m12.1289-3.04296l-6.85547 1.54297m6.85547-1.54297l1.59766 1.86328m11.53515-2.4336l-6.49218 2.6836m5.54687-2.29297l.94531.78125m12.92579-1.875l-5.71485 4.08984m4.88281-3.49609l1.09766.54688m12.46484-1.77344l-4.54687 5.35547m3.88672-4.57813l1.19922.26172m11.65234-1.6836l-2.29687 6.64454m1.96093-5.67578l1.21094-.19141m12.59766-.71875l-2.61328 6.52734m2.23046-5.57812l1.22266-.13281m12.27344-.88672l-2.20703 6.66797m1.88672-5.69922l1.20703-.20703m12.0078-.875l-1.36718 6.89453m1.16797-5.89063l1.17578-.35547m11.78516-.71093l-.26172 7.01953m10.75-1.25781L413 464.76172m8.27734-.3711l4.6797 5.2461m11.32812-6.11719l-.71094 6.98828m13.26562-6.98437l.81641 6.98047m-.69922-5.96485l1.00781-.69922m14.26563 6.26563l-3.33984-6.1836m2.85546 5.28516l-.67968 1.01953"/><g clip-path="url(#O)"><path fill="none" stroke="#000" stroke-linecap="round" stroke-linejoin="round" stroke-miterlimit="10" stroke-width=".5" d="M146.42969 456.23438l-4.85938-5.07422"/></g><path fill="none" stroke="#000" stroke-linecap="round" stroke-linejoin="round" stroke-miterlimit="10" stroke-width=".5" d="M146.42969 456.23438l-.76563 2.33203m14.6875-3.09766l-6.07031-3.53906m6.07031 3.53906l-.09765 2.45313m13.83984-3.63282l-6.92578-1.17969m5.91797 1.00782l.38672 1.16406m13.98437-1.71875l-7.02344.27344m6-.23438l.6172 1.0586m13.72265-.94922l-7.02735-.02344m6.00391.01953l.57422 1.08594m13.7539-1.34375l-7.0078.5m5.98827-.42969l.65235 1.03906m13.38281-2.30078l-6.40625 2.88282m5.47656-2.46485l.96875.7539m12.89844-1.8203l-5.64844 4.17968m5.64844-4.17968l2.21484 1.05468m10.875-1.32812l-5.19922 4.72656m4.44141-4.03906l1.15625.41406m13.4414-.34375l-6.25 3.21094m5.33985-2.7461l1.00781.70313m13.46094-.55469l-6.73828 1.98438m5.75781-1.69532l.85938.875m13.58203-.21484l-7.02735.08594m6.00391-.07422l.58985 1.07422m13.53125-2.2539l-6.59375 2.42187m5.63671-2.07032l.91407.82032m12.73437-2.2422l-5.34765 4.5625m4.5703-3.89843l1.14063.44922m6.91406.15234l6.72657 2.03125m-5.7461-1.73437l-.23828-1.20703m13.98438-.9961l3.90625 5.83985m-3.33985-4.98828l.58204-1.08204m11.58593.71485l5.0664 4.875m-4.32812-4.16406l.33594-1.1797m12.55078.1836l4.44531 5.4414m-3.79687-4.64843l.47266-1.13281m12.30078.25781l4.23437 5.60938m-4.23437-5.60938l1.03515-2.22656M393.47656 453.5l7.01953.39453M394.5 453.5586l-.51563-1.11328m13.41797 3.23828l5.79688-3.97265m6.90234 1.95703l7.02735.0586m-6.00391-.04688l-.5664-1.08985m13.0039 2.10157l6.73828-1.98438m-5.75781 1.69531l-.85938-.875m13.35938 1.60938l6.41015-2.8789m-5.48046 2.46093l-.96875-.75m13.7539 1.84766l5.60938-4.23438m-4.79297 3.61719l-1.11328-.51563"/><g clip-path="url(#P)"><path fill="none" stroke="#000" stroke-linecap="round" stroke-linejoin="round" stroke-miterlimit="10" stroke-width=".5" d="M147.07031 442.08984l-6.14062-3.41015"/></g><path fill="none" stroke="#000" stroke-linecap="round" stroke-linejoin="round" stroke-miterlimit="10" stroke-width=".5" d="M147.07031 442.08984l-.04297 2.45313m13.34375-2.42578l-6.11328-3.46485m5.22656 2.96094l-.03515 1.22266m14.66016-2.9414l-6.95704.98046m5.94532-.83984l.71875.99218m13.48047-1.6953l-6.70313 2.10155m5.72656-1.79687l.875.86328m13.57031-.36328l-7.01171.4961m5.99218-.42579l.64844 1.04297m13.48828-2.05078l-6.61719 2.36719m6.6172-2.3672l1.8164 1.65235m11.01953-2.55078l-5.65625 4.16797m4.83203-3.5625l1.10938.53125m12.69922-1.52344l-4.9961 4.9414m4.26953-4.22265l1.17188.36328m13.05469-.8828l-5.3672 4.53905m4.58595-3.8789l1.14062.45703m13.4414-.36719l-6.33593 3.03906m5.41406-2.59765l.98828.72656m13.4961-.47656l-6.82813 1.66015m5.83203-1.41797l.8164.91407m12.69923-2.66797l-5.24219 4.67969m13.42578-4.79688l5.01953 4.91797m10.26563-5.92969l1.08203 6.9414m10.82422-6.39452l3.89844 5.84765m-3.33204-4.99609l.58204-1.08203m11.62109.67969l4.99219 4.9453m-4.26563-4.22655l.35156-1.17188m13.79297-.46094l1.8789 6.77344m-1.60546-5.78516l.89063-.84765m12.90625-.26172l.36718 7.01562m-.3125-5.99609l1.05078-.6289m10.21875.35937l4.35157 5.51562m-3.71875-4.71484l.49218-1.1211m11.03125 1.97266l6.66797 2.21094m-5.69922-1.88672l-.20703-1.21094m12.375 2.1172l7.02344-.25m-6 .21484l-.61328-1.0625m12.96094.33984l6.91406 1.26562m-5.90625-1.08203l-.375-1.16797m12.88672 2.94532l6.5039-2.65625m-5.55859 2.26953l-.9414-.78516m13.8164 2.03516l5.49219-4.38281M447.5 442.5742l-2.25-.97265m15.5039.89844l5.61329-4.23047M460.7539 442.5l-2.22266-1.03906"/><g clip-path="url(#Q)"><path fill="none" stroke="#000" stroke-linecap="round" stroke-linejoin="round" stroke-miterlimit="10" stroke-width=".5" d="M146.42578 429.61328l-4.85156-5.08594"/></g><path fill="none" stroke="#000" stroke-linecap="round" stroke-linejoin="round" stroke-miterlimit="10" stroke-width=".5" d="M145.71875 428.8711l-.38672 1.16406m15.4961-2.92579l-7.02735-.08203m6.0039.07032l.56641 1.08984m12.875-3.46484l-5.23047 4.6914m4.46875-4.00781l1.15235.42188m13.34375-.53125l-6.07031 3.54296m5.1875-3.02734l1.04297.64453m8.09765 3.48438l4.04297-5.7461m12.26953 6.25l-1.94922-6.7539m1.66406 5.76953l-.8789.85547m16.04297-5.67578l-5.07813 4.85546m4.33985-4.14843l1.16406.3828m10.77344-2.14843l-.84766 6.97266m.72656-5.96094l1.14453-.4375m11.9375-.60156l-.13672 7.02734m.1172-6.0039l1.09374-.5547m10.9961-.26562l2.35156 6.6211m-2.00781-5.65625l.82812-.90625m15.4961.49609l-4.35547 5.51172m18.10547-5.10547l-5.22657 4.69922m14.40235-5.51172l3.05468 6.32422m-2.60937-5.40625l.72265-.98828m10.41797 1.91406l6.51172 2.63672m-5.5664-2.2539l-.125-1.21876m12.96875.01172l5.5664 4.28516m-4.75781-3.66407l.20313-1.20703m12.26953.62891l5.6328 4.19922m-4.8125-3.58985l.1836-1.21093m17.51953.1289l-4.78515 5.14453m4.08984-4.39843l1.1836.3164m11.20703-1.91797l-1.54297 6.85547m1.3164-5.85937l1.1836-.32422m8.54297 4.51172l6.08593-3.51172m12.51563 4.46094l-4.48828-5.41016m15.14844 6.19531l.8203-6.98046m-.69921 5.96484l-1.14453.44531m17.32031-.52734l-5.14453-4.78516m4.39844 4.08984l-.31641 1.1836m15.07422-1.58985l-6.53516-2.58203m5.58594 2.20703l.13672 1.21875m11.88281-2.1328l-.01953-.20313-.0586-.1914-.09374-.17579-.46094-.375-.1914-.0586-.19923-.01953-.19921.01954-.19141.05859-.45703.375-.09766.17578-.0586.1914-.01952.20313.01953.19922.0586.1914.09765.17579.45703.375.1914.0586.19922.01952.19922-.01953.1914-.0586.46095-.375.09375-.17577.05859-.1914.01953-.19923m9.6211 2.28125l5.34375-4.5664m-5.34375 4.5664l-2.28516-.89844"/><g clip-path="url(#R)"><path fill="none" stroke="#000" stroke-linecap="round" stroke-linejoin="round" stroke-miterlimit="10" stroke-width=".5" d="M145.51172 416.92578l-3.02344-6.34375"/></g><path fill="none" stroke="#000" stroke-linecap="round" stroke-linejoin="round" stroke-miterlimit="10" stroke-width=".5" d="M145.07031 416.0039l-.73047.98438m16.41407-2.52344l-6.87891-1.42578m18.27734-2.45312l-3.04297 6.33594m2.59766-5.41407l1.22656-.05078m11.25782-1.20703l-.4922 7.00781m.42188-5.98828l1.1172-.5m9.15624.94922l5.73047 4.07031m-4.89453-3.47656l.15625-1.21875m11.84766 1.57422l6.68359 2.17187m-6.6836-2.17187l-.42578-2.41797m13.98828 5.16797l6.1875-3.32813m-5.28906 2.84375l-1.01953-.67968m13.21094.65625l6.63672-2.3125m-5.67188 1.97656l-.89844-.83203m13.21094 1.05078l6.71094-2.08203m-5.73438 1.78125l-.87109-.86328m13.10156-.45313l6.9297 1.15234m-5.92188-.98437l-.39063-1.16016m12.9961 3.08985l6.33203-3.03907m-5.41016 2.59766l-.98828-.72656m16.90625-3.84766l-.71485 6.99219m13.78907-7.00781l-.23828 7.02343m.20312-6l1.10547-.53906m10.48828-.07812l3.28125 6.21093m-2.80469-5.30859l.6875-1.01562m14.46094-.23047l-1.33984 6.89843m1.14453-5.89453l1.17187-.35937m13.83985.04297l-4.34375 5.52343m3.71094-4.71875l1.20703.21485m14.0039 1l-6.8711 1.48437m5.8711-1.26953l.79297.9375m13.16016-2.11328l-6.14844 3.40625m5.2539-2.91016l1.02735.66797m12.89844-1.59765l-5.57813 4.27343m18.55469-4.65234l-4.90234 5.03125m4.1914-4.30078l1.17578.34375m9.98438-2.04688l.82812 6.97657m16.25391-2.4336l-6.70313-2.10937M439.98048 415.5l-6.09766-3.49219m5.21094 2.98438l-.03906 1.22656M453.5 415.07422l-6.50781-2.64453m5.5625 2.26172l.125 1.21875m14.35937-1.66407l-6.95703-.98437m5.94531.83984l.41797 1.15235"/><g clip-path="url(#S)"><path fill="none" stroke="#000" stroke-linecap="round" stroke-linejoin="round" stroke-miterlimit="10" stroke-width=".5" d="M147.4336 399.69531l-6.8672 1.48438"/></g><path fill="none" stroke="#000" stroke-linecap="round" stroke-linejoin="round" stroke-miterlimit="10" stroke-width=".5" d="M155.6914 397.32031l3.2461 6.23438m12.1875-6.59375l-.99219 6.95703m.84766-5.94531l1.15625-.41797m13.76562-.03516l-3.91406 5.83594m3.34375-4.98828l1.21875.125m13.03906-.6836l-4.66015 5.26172m3.98047-4.4961l1.1953.28517m13.22657-.60157l-5.51172 4.35938m4.71094-3.72266l1.1211.49219m13.58984 2.10547l-6.70313-2.10938m6.70313 2.10938l.44922 2.41015m13.0078-3.07812l-6.98437-.76953m6.98438.76953l.90625 2.28125m12.375-2.05469l-6.91797-1.22656m5.91016 1.05078l.3789 1.16797m13.98438-1.30078l-7-.60938m5.98047.51953l.48047 1.12891m13.85937-1.58203l-7.01172.47656m7.01172-.47656l1.29688 2.08203m11.91406-2.73047l-6.80078 1.77344m6.80078-1.77344l1.66015 1.80469m11.63672-1.86719l-6.76562 1.90235m6.76562-1.90235l1.69532 1.77344m11.05859-2.91797l-5.64453 4.1914m4.82422-3.58202l1.10547.52734m13.48437-.3086l-6.55469 2.53125m5.60157-2.16406l.92968.80469m13.40625-.98828l-6.6875 2.16406m5.71485-1.84765l.8789.85156m13.57813-.04688l-7.02735-.07422m6.00391.0625l.5664 1.08985m8.82423 2.08984l2.87109-6.41406m15.39062 3.25l-7.02734-.08203m20.19922 1.04297l-6.73828-2.00391m5.75781 1.71094l.24219 1.20312m13.96484-.66015l-6.5625-2.50782m19.98828 2.17188l-6.78515-1.83203m6.78515 1.83203l.54688 2.39062m12.89062-3.28125l-7.02734-.05078m7.02734.05078l1.13672 2.17188m12.14844-1.73438l-6.96484-.92968m6.96484.92968l.85547 2.30079m12.25-1.48829l-6.54688-2.55078m5.59375 2.17969l.14453 1.21484"/><g clip-path="url(#T)"><path fill="none" stroke="#000" stroke-linecap="round" stroke-linejoin="round" stroke-miterlimit="10" stroke-width=".5" d="M146.72656 384.90625l-5.45312 4.4336"/></g><path fill="none" stroke="#000" stroke-linecap="round" stroke-linejoin="round" stroke-miterlimit="10" stroke-width=".5" d="M145.9336 385.55078l1.1289.47656m13.75781 1.31641l-7.01172-.4375m5.9922.3711l.5078 1.11718m13.71094-2.19531l-6.78125 1.84765m5.79688-1.57812l.83984.89453m13.55469-.6836l-6.96875.88673m5.95703-.75782l.70703 1.00391m13.39453-2L194 388.4375m5.57031-2.2461l.9414.78907m13.46485-.74219l-6.80078 1.76953m6.80078-1.76953l1.66016 1.80469m11.66016-.0586l-6.8125-1.72265m6.8125 1.72265l.58593 2.38282m12.75-4.02344l-6.85156 1.5586m6.85156-1.5586l1.60156 1.85547m-2.60156-1.6289l.80469.92968m13.3086-1.77344l-6.44923 2.79297m6.44922-2.79297l1.91797 1.53125m11.53125-1.16015l-6.71875 2.05078m6.71875-2.05078l1.73438 1.73437M280.5 386.0625l-6.69922 2.1211m6.69922-2.1211l1.7539 1.71875m11.71485-.94922l-7.0039.58594m7.0039-.58594l1.32813 2.0625m11.625-3.34765l-6.28125 3.15625m6.28125-3.15625l2 1.41796m10.83984-2.1289l-5.33203 4.57422m5.33203-4.57422l2.28515.89453m9.60157-1.89453l-2.47656 6.57422m2.11718-5.6172l1.21875-.15624m9.92578-.78125l2.58594 6.53515m-2.21094-5.58203l.79688-.9375m11.05469.66797l4.76171 5.16797m14.07032-1l-6.27344-3.16797m5.35938 2.70703l.02734 1.22657m13.96484-4.33594l-5.79687 3.97265m4.95312-3.39453l1.08594.56641m7.38281 2.97656l5.58203-4.26953m-4.76953 3.64844l-1.11719-.51172m19.91407-1.2461l-7.00781.4922m5.98828-.42188l.65234 1.03906m13.01563 1.20703l-5.67188-4.14453m4.84766 3.54297l-.17579 1.21484m14.80079-1.53515l-6.64454-2.29688m5.67579 1.96094l.1914 1.21094m12.54297 1.00781l-3.54687-6.0664m3.03125 5.18359l-.64454 1.04297m13.29297.26953l-1.17968-6.92578m1.0078 5.91796l-.97265.75"/><g clip-path="url(#U)"><path fill="none" stroke="#000" stroke-linecap="round" stroke-linejoin="round" stroke-miterlimit="10" stroke-width=".5" d="M147.4961 374.14063l-6.9922-.66407"/></g><path fill="none" stroke="#000" stroke-linecap="round" stroke-linejoin="round" stroke-miterlimit="10" stroke-width=".5" d="M147.4961 374.14063l.9453 2.26562m12.35548-2.11719l-6.96094-.96484m6.96094.96484l.84375 2.30469m12.46484-2.26563l-6.94922-1.03906m6.94922 1.03906l.82031 2.3125m12.2461-4.22656l-6.45313 2.78516m6.45313-2.78516l1.91406 1.53516m10.89844-2.35938l-5.44922 4.4375m4.65625-3.79296l1.1328.47656m12.54688-1.5625l-4.58984 5.32031m3.92188-4.54688l1.1953.27344m8.96876-1.55469l3.04687 6.33594m15.30078-3.32031l-7.01953.30469m7.01953-.30469l1.2461 2.11719m11.85547-3.1836l-6.58985 2.4375m6.58985-2.4375l1.83203 1.63282m11.66406.08984l-6.95313-1.00781m6.95313 1.00781l.82813 2.3086m11.58593-.42188l-5.14844-4.78125m4.39844 4.08594l-.3164 1.18359m13.53515.17969l-3.45703-6.11719m16.90235 6.03906l-3.71875-5.96094m17.21484.1211l-4.08203 5.71875m15.55469-6.36719l-.39454 7.01563m.33594-5.9961l1.11328-.51172m9.14453 1.03907l5.83594 3.91796m-4.98828-3.34765l.1289-1.21875m12.36329.61328l5.78515 3.99219m-5.78515-3.99219l.28125-2.4375m12.6836 5.78906l6.48437-2.71094m-5.53907 2.31641l-.94921-.77734m17.16796-3.64453l-1.21093 6.92187m12.21484-.39062l3.41016-6.14063m-2.91407 5.2461l-1.22656-.01954m19.08203-3.26953l-6.66406 2.22266m5.69531-1.89844l.89063.84766m10.69531-3.51563l-1.26953 6.91406m1.08594-5.90625l1.16796-.37109m8.1875 2.69531l7.01954.25m-6-.21484l-.53516-1.10156m13.26563-.51172l6.14843 3.40625m-5.2539-2.91016l.02343-1.22656m12.4922 4.29297l5.96093-3.71875"/><g clip-path="url(#V)"><path fill="none" stroke="#000" stroke-linecap="round" stroke-linejoin="round" stroke-miterlimit="10" stroke-width=".5" d="M147.5 360.79297l-7-.60156"/></g><path fill="none" stroke="#000" stroke-linecap="round" stroke-linejoin="round" stroke-miterlimit="10" stroke-width=".5" d="M147.5 360.79297l.96484 2.25781m-1.98437-2.34375l.48437 1.1289m13.86328-1.4375l-7.02343.1875m7.02344-.1875l1.20703 2.13673m-2.23047-2.10938l.60547 1.07031m13.57812-2.03515l-6.71484 2.0664m6.71484-2.0664l1.73828 1.73047m11.6914-1.23829l-6.9453 1.07813m6.9453-1.07813l1.46876 1.96485m11.88672-1.36719l-7.02735-.11328m7.02735.11328l1.11719 2.1836m12.18359-1.92579l-7-.6328m7 .6328l.95312 2.26172m11.45703-.20703l-5.1875-4.74219m5.1875 4.7422l-.61328 2.375m14.04297-2.50782l-5.41797-4.47656m5.41797 4.47656l-.49219 2.40625m14.16797-2.9336l-6.13672-3.42187m6.13672 3.42188l-.05078 2.45312m13.40625-2.52344l-6.21875-3.27734m6.21875 3.27734l.00781 2.45313m12.44141-1.39063l-4.48828-5.40625m4.48828 5.40625l-.92969 2.26953m.27735-3.05468l-.46485 1.1328m14.64844-.53905l-4.91797-5.01954m4.19922 4.28907l-.36719 1.16797m14.60938-.66407l-5.33594-4.5703m5.33594 4.5703l-.53125 2.39454m10.8711-1.1797l.61327-7m-.52343 5.98438l-1.12891.47656m11.4375-4.35937l6.44531 2.79688m9.23438-4.8047l1.71875 6.8125m-1.46875-5.8203l.91015-.82422m10.39454.89843l5.23828 4.6836m-5.23828-4.6836l.58203-2.3828m11.84765 4.9453l7.01172-.4414m-7.01172.4414l-1.28906-2.08984m14.60547 1.6211l7.00781.49609m-7.00781-.4961L379.17187 358m14.34766 1.91797l6.9336 1.14844m-5.92579-.98047l-.39062-1.16406m18.4961-1.0586l-4.66407 5.25781m19.09375-3.3164l-6.89062 1.3789m6.89062-1.3789l1.55469 1.89844m11.64453-2.32422l-6.66016 2.23046m5.6914-1.90625l.89063.84375m11.53907-3.24218l-2.95313 6.3789m2.52344-5.44921l1.22656-.07032m8.8164 5.04688l4.45313-5.4336m-3.80468 4.64454l-1.20313-.2422"/><g clip-path="url(#W)"><path fill="none" stroke="#000" stroke-linecap="round" stroke-linejoin="round" stroke-miterlimit="10" stroke-width=".5" d="M147.50781 347l-7.01562.35547"/></g><path fill="none" stroke="#000" stroke-linecap="round" stroke-linejoin="round" stroke-miterlimit="10" stroke-width=".5" d="M147.50781 347l1.26172 2.10547m12.04688-2.19531l-7.00391.53515m5.98828-.45703l.65625 1.03516m13.0586-2.84766l-5.77344 4.0039m4.9336-3.42187l1.09374.5625m13.48828 2.03125l-6.625-2.34765m5.66016 2.0078l.17969 1.21095m11.90625 1.28515l-2.23828-6.66015m2.23828 6.66015l-1.6875 1.78125m15.625-2.0586l-3.48047-6.10546m2.97265 5.21875l-.65625 1.03516m15.4961-1.02344L221.1328 345m4.71094 3.72266l-.21875 1.20703m12.71875.57031l-2.27734-6.64453m2.27734 6.64453l-1.67578 1.79297m14.13281-1.61328l-.5586-7.0039m.5586 7.0039L248.73438 352m18.55859-5.4375l-6.91797 1.23438m5.91406-1.0547l.75781.96485m11.79688 2.55078l-3.38672-6.16015m3.38672 6.16015L277.5 352.3086m14.21094-1.84375l-2.49219-6.5703m2.49219 6.5703l-1.61328 1.84375m14.58593-1.73437l-1.80468-6.79297m1.80468 6.79297l-1.80078 1.66797m14.45703-1.5586l-.48828-7.01171m.41797 5.99218l-1.04297.64844m12.07813-.32422l4.21484-5.6211m-3.60156 4.8047l-1.21484-.19141m14.35546 1.28906l3.33594-6.1836m-2.85156 5.28516l-1.22656-.0078m15.97265 1.3203l-.4961-7.01171m.42579 5.99218l-1.03906.64844m15.19922-3.13281l-.01953-.19922-.0586-.19531-.09375-.17579-.46094-.375-.1914-.05859-.19922-.01953-.19922.01953-.1914.0586-.45704.375-.09765.17578-.0586.1953-.01953.19923.01953.19922.0586.1914.09765.17578.45703.375.19141.0586.19922.01953.19922-.01953.1914-.0586.46094-.375.09375-.17578.0586-.1914.01953-.19922m9.07422 1.40625l6.4375-2.8125m-5.50391 2.40234l-.96094-.76172m14.92188-3.34375l3.27734 6.21485m-2.80078-5.3125l.6914-1.01172m14.31641 6.6914l-1.0586-6.94921m.90235 5.9375l-.98437.73437m16.76953-5.25781l-5.6914 4.1211m4.86327-3.52345l1.10157.54297m13.59765.03516l-6.80078 1.77344m6.80078-1.77344l1.66016 1.80469m11.71875-1.4961l-6.92969 1.15235m5.92188-.98438l.74609.97266m13.58594-1.10156l-6.94532 1.07421m5.9336-.91796l.73437.98437"/><g clip-path="url(#X)"><path fill="none" stroke="#000" stroke-linecap="round" stroke-linejoin="round" stroke-miterlimit="10" stroke-width=".5" d="M147.41406 333.03516l-6.82812 1.65234"/></g><path fill="none" stroke="#000" stroke-linecap="round" stroke-linejoin="round" stroke-miterlimit="10" stroke-width=".5" d="M147.41406 333.03516l1.6289 1.83593m11.29298-2.80078l-6.04297 3.58594m5.16406-3.0664l1.04688.64062m6.79297-.47266l6.66796 2.21094m6.48828-1.48047l6.98438.75m-5.96875-.64062l-.45703-1.13672m13.08984 2.9375l6.3164-3.07422m-5.39843 2.6289l-.99219-.72265m14.32032 2.34765l4.45703-5.42968m-3.8086 4.64062l-1.20312-.24219m13.125-3.55468l5.94531 3.74219m-5.08203-3.19922l.08984-1.22266m11.875 3.17578l6.91797-1.25m-5.91015 1.0664l-.75782-.96093m14.00782 2.97266l5.03125-4.90625m-5.03125 4.90625l-2.33594-.75m15.38281-3.84375l5.57031 4.28125m-4.76171-3.66016l.20703-1.21094m17.1289 5.58594l-4.08984-5.71094m3.4961 4.8789l-.54688 1.10157m11.9414.35547l.9375-6.96094m-.80078 5.94922l-1.14843.42578m14.47265.60547l.64844-7m-.64844 7l-2.26562.94531m17.14062-1.15625l-2.47265-6.57812m2.11328 5.6211l-.8125.91796m10.37109-1.23828l5.76172-4.02344m-4.92578 3.4375l-1.08985-.5586m13.16016-2.10546l6.57813 2.47656m-6.57813-2.47656l-.3164-2.4336m13.40624 3.58594l7.02735.17188m-6.0039-.14453L354 332.70703m13.94531 3.71485l4.82032-5.1172m-4.82032 5.1172l-2.36718-.64844m14.66796-1.1211l6.84766-1.57812m-6.84766 1.57812l-1.60937-1.85156m14.96484 2l6.76953-1.875m11.87891 3.85938l-3.89844-5.84375m3.33203 4.99609l-.58203 1.07813m15.92578-3.9922l-6.82421 1.6797m5.83203-1.4336l.8203.91406m13.3125 1.05079l-6.47265-2.7422m5.53125 2.34376l.10547 1.21875m14.35938-2.89063l-6.88672 1.39844m5.88281-1.19531l.78125.94531m12.78125-2.71484l-5.375 4.52734m4.59375-3.86719l1.13672.45703"/><g clip-path="url(#Y)"><path fill="none" stroke="#000" stroke-linecap="round" stroke-linejoin="round" stroke-miterlimit="10" stroke-width=".5" d="M147.33203 319.42969l-6.66406 2.23828"/></g><path fill="none" stroke="#000" stroke-linecap="round" stroke-linejoin="round" stroke-miterlimit="10" stroke-width=".5" d="M147.33203 319.42969l1.78125 1.6875m-2.75-1.36328l.89063.84375m13.1289-1.75782l-6.13672 3.41797m6.13672-3.41797l2.0625 1.33204m-2.95312-.83594l1.03125.66406m13.4414-.5586l-6.66797 2.21094m6.66797-2.21093l1.77735 1.6953m11.64844-1.28124L180.5 321.23828m6.89063-1.38281l1.55468 1.89844m11.78516-1.7422l-6.9414 1.07423m6.9414-1.07422l1.47266 1.96484m-2.48047-1.8086l1.46875 1.96485m12.77343-2.5039l-6.78125 1.83593m6.78125-1.83593l1.6797 1.78906m-2.66407-1.51953l1.67578 1.78906m12.47266-2.5l-6.47657 2.72266m6.47657-2.72266l1.90234 1.55078m-2.84375-1.15625l1.90234 1.55078m12.27344-2.125l-6.3164 3.08203m6.3164-3.08203l1.98438 1.4414m-2.90235-.99608l1.98438 1.4414m12.60156-.23437l-7.02344-.22266m7.02344.22266l1.08594 2.19921m12.14844-3.07421l-6.85938 1.52343m18.45703-3.82812l-3.42578 6.13281m2.92969-5.23828l1.22656.02344m9.09375-.8789l3.5586 6.05858m-3.04298-5.17968l.64454-1.04297m10.98437 5.10156l5.89844-3.82031m-5.03906 3.26562l-1.07422-.59765m13.19922.5039l6.55859-2.52343m-6.5586 2.52343l-1.85156-1.60546m2.8047 1.23828l-.92579-.80079m14.16016 2.46485l4.8164-5.11719m-4.11718 4.375l-1.1836-.32422m18.67188 1.01172l-4.9297-5.00781m19.17579 3.40234l-6.79297-1.79297m5.80469 1.53125l.28125 1.19532m13.69531-.1211l-6.14062-3.41797m14.1914 4.45313l4.39063-5.48828m-3.7539 4.6875l-1.20313-.22656m15.33203 1.71484l1.48828-6.86719m-1.26953 5.8711l-1.1836.33203m15.76954-6.20313l-1.4922 6.86719m1.27735-5.86719l1.17969-.33203m8.88672 4.99219l5.4336-4.45313m-4.64063 3.8086l-1.13282-.47266m17.22657 2.30078l-1.70703-6.8164m1.45703 5.82421l-.91016.82032m16.60938-1.38672l-5.97657-3.69922m5.10547 3.16015l-.07812 1.22266m13.35156-5.36719l-4.15234 5.66797m3.55078-4.84375l1.21093.17578"/><path fill="#00f" fill-rule="evenodd" d="M383.80078 436.57813h8.61719v-10.14454h-8.61719v10.14454"/><path fill="azure" fill-rule="evenodd" d="M385.63281 428.26563h.83203v2.82421h3.28907v-2.82421h.83203v6.48046h-.83203v-2.91406h-3.28907v2.91406h-.83203v-6.48046"/><path fill="#00f" fill-rule="evenodd" d="M232.89453 418.82813h8.6211v-10.14844h-8.6211v10.14844"/><path fill="azure" fill-rule="evenodd" d="M234.73047 410.51172h.83203v2.82422h3.28516v-2.82422h.83593v6.48047h-.83593v-2.91406h-3.28516v2.91406h-.83203v-6.48047"/><path fill="#ff3030" fill-rule="evenodd" d="M442.1914 347.8125h7.69532v-10.14453h-7.69531v10.14453"/><path fill="azure" fill-rule="evenodd" d="M444.02734 339.5h.83204v5.73828h3.1953v.74219h-4.02734V339.5"/><path fill="#ff3030" fill-rule="evenodd" d="M229.15234 343.375h7.69141v-10.14844h-7.6914V343.375"/><path fill="azure" fill-rule="evenodd" d="M230.98438 335.0625h.83203v5.73828h3.1953v.74219h-4.02733v-6.48047"/><path fill="#00f" fill-rule="evenodd" d="M312.78516 325.6211h8.62109v-10.14454h-8.6211v10.14453"/><path fill="azure" fill-rule="evenodd" d="M314.6211 317.3086h.83202v2.82421h3.28516v-2.82422h.83203v6.48047h-.83203v-2.91797h-3.28515v2.91797h-.83204v-6.48047"/><path fill="#ffffe0" fill-rule="evenodd" d="M279.60547 367.71484h22.1836v-10.1914h-22.1836v10.1914"/><path fill-rule="evenodd" d="M283.10547 359.35547h.51172v6.29687h-.78906v-4.49218h-1.38672v-.5547l.55859-.0625.2539-.05468.22657-.08984.20312-.14063.17579-.21094.14062-.29296.10547-.39844m4.8164 0l.22657.01953.21875.05469.21094.08984.1953.1211.1836.15234.17188.17578.30078.41797.24219.49219.17968.54687.11328.58203.03907.58985-.03907.59375-.11328.58203-.17969.55469-.24218.5039-.30078.42578-.17188.17969-.1836.15234-.1953.125-.21094.08985-.21875.0586-.22656.01952-.23047-.01953-.21875-.0586-.20704-.08984-.19921-.125-.1836-.15234-.17187-.17969-.30078-.42578-.2422-.5039-.17968-.5547-.11328-.58202-.03906-.59375h.83594l.02734.5625.08203.5039.125.44531.16406.375.1914.30079.21095.21875.22265.13671.22656.04688.22266-.04688.22656-.13671.20704-.21875.1914-.30079.16406-.375.125-.4453.08204-.50391.02734-.5625-.02735-.5625-.08203-.5-.125-.4336-.16406-.36719-.1914-.29296-.20704-.21485-.22656-.1289-.22265-.04688-.22657.04688-.22265.1289-.21094.21485-.1914.29296-.16407.3672-.125.43359-.08203.5-.02735.5625h-.83593l.03906-.58985.11328-.58203.17969-.54687.24219-.4922.30078-.41796.17187-.17578.1836-.15235.19921-.12109.20704-.08984.21875-.05469.23046-.01953m5.08985 0h.50781v6.29687h-.78515v-4.49218h-1.39063v-.5547l.5625-.0625.25-.05468.23047-.08984.20312-.14063.17579-.21094.14062-.29296.10547-.39844m2.82422 2.17578h.78515l.01954-.3164.05859-.28516.10156-.2539.14063-.21485.17968-.17188.22266-.1289.26563-.08204.30859-.02734.23828.02344.22266.0625.20312.10156.17969.13672.14844.17188.11328.20703.07422.23828.02343.26172-.02343.26953-.0625.22265-.11329.19532-.15234.16796-.20312.16407-.2461.16406-.63281.39063-.53906.3125-.4375.3164-.34766.32422-.26172.33594-.1914.35156-.125.3711-.06641.39062-.02344.42187h4.21094v-.74218h-3.33203l.08594-.28125.11328-.23829.14844-.20312.1875-.17969.23046-.17187.27735-.17578.71875-.41407.41406-.20703.34375-.23047.28125-.25.21875-.26953.16406-.27734.11328-.28516.0625-.28515.01954-.28125-.03907-.38282-.1211-.34765-.1914-.30469-.25-.26563-.30078-.21093-.34765-.16016-.37891-.09765-.40625-.03516-.4336.03515-.39843.09766-.35547.16797-.30469.23438-.25.30078-.1836.375-.11718.4453-.03906.51954"/><path fill="#ffffe0" fill-rule="evenodd" d="M386.1289 404.84375h22.1797v-10.1914h-22.1797v10.1914"/><path fill-rule="evenodd" d="M389.625 396.48438h.51172v6.29687h-.78906v-4.49219h-1.38672v-.55469l.5586-.0664.2539-.05078.23047-.08985.20312-.14453.17188-.20703.14062-.29687.10547-.39454m4.8164 0l.22657.01954.22265.05468.20704.08985.1953.1211.1836.14843.17188.17578.30078.42188.2461.49218.17968.54688.10938.57812.03906.59375-.03906.58985-.10938.58593-.17969.5547-.2461.5-.30077.42968-.17188.17969-.1836.15234-.1953.125-.20704.08984-.22265.0586-.22656.01953-.23047-.01953-.21875-.0586-.20703-.08984-.19922-.125-.1836-.15234-.17187-.1797-.30078-.42968-.24219-.5-.17969-.55469-.11328-.58593-.03515-.58985h.83203l.02734.5625.08203.5039.125.44532.16406.3711.19141.30078.21094.22265.22265.13672.22657.04688.22656-.04688.22265-.13672.21094-.22265.1914-.30079.16017-.37109.125-.44531.08203-.5039.03125-.5625-.03125-.5625-.08204-.5-.125-.4375-.16015-.36329-.1914-.29297-.21094-.21484-.22266-.13281-.22656-.04297-.22657.04297-.22265.1328-.21094.21485-.1914.29297-.16407.36328-.125.4375-.08203.5-.02734.5625h-.83204l.03516-.59375.11328-.57812.17969-.54688.24219-.49219.30078-.42187.17187-.17578.1836-.14844.19922-.1211.20703-.08984.21875-.05468.23047-.01954m5.08984 0h.51172v6.29688h-.78906v-4.49219h-1.38672v-.55469l.5586-.0664.2539-.05078.22656-.08985.20313-.14453.17578-.20703.14062-.29687.10547-.39454m2.82422 2.17579h.78515l.01954-.31641.0625-.28516.09765-.2539.14063-.21485.17969-.17578.22265-.1289.26563-.07813.30859-.02734.23828.01953.22266.0625.20703.10156.17578.14063.15234.17187.10938.20703.07422.23438.02344.26562-.01954.26953-.0664.22266-.10938.1914-.15625.17188-.19922.16406-.25.16407-.6328.39062-.53907.3125-.4375.3164-.34375.32423-.26563.33593-.1914.35157-.125.37109-.0664.39063-.02345.42187h4.21485v-.74219h-3.33203l.08203-.28515.11328-.23438.14844-.20312.1875-.1797.23046-.17187.27735-.17578.71875-.41797.41406-.20312.34766-.23047.27734-.2539.22266-.26563.16406-.27735.10938-.28515.0625-.28516.02343-.28125-.04297-.38281-.12109-.34766-.1875-.30859-.25-.26172-.30469-.21484-.34375-.15625-.38281-.09766-.40625-.03515-.4336.03515-.39843.09766-.35547.16406-.30469.23438-.25.30468-.1836.375-.11718.44531-.03906.51954"/></g></defs><use xlink:href="#Z"/></svg>