<svg xmlns="http://www.w3.org/2000/svg" role="img" xmlns:xlink="http://www.w3.org/1999/xlink" viewBox="142.45 309.95 326.84 171.84"><defs><clipPath id="a"><path d="M144 311.67188h1v168.65625h-1zm0 0"/></clipPath><clipPath id="b"><path d="M144 311.67188h324v168.65625H144zm0 0"/></clipPath><clipPath id="c"><path d="M467 311.67188h1v168.65625h-1zm0 0"/></clipPath><clipPath id="d"><path d="M144 477h3v3.32813h-3zm0 0"/></clipPath><clipPath id="e"><path d="M154 477h7v3.32813h-7zm0 0"/></clipPath><clipPath id="f"><path d="M168 477h5v3.32813h-5zm0 0"/></clipPath><clipPath id="g"><path d="M180 478h8v2.32813h-8zm0 0"/></clipPath><clipPath id="h"><path d="M193 478h8v2.32813h-8zm0 0"/></clipPath><clipPath id="i"><path d="M207 478h7v2.32813h-7zm0 0"/></clipPath><clipPath id="j"><path d="M220 478h8v2.32813h-8zm0 0"/></clipPath><clipPath id="k"><path d="M233 478h8v2.32813h-8zm0 0"/></clipPath><clipPath id="l"><path d="M246 479h9v1.32813h-9zm0 0"/></clipPath><clipPath id="m"><path d="M253 480h3v.32813h-3zm0 0"/></clipPath><clipPath id="n"><path d="M260 479h8v1.32813h-8zm0 0"/></clipPath><clipPath id="o"><path d="M267 479h3v1.32813h-3zm0 0"/></clipPath><clipPath id="p"><path d="M273 479h8v1.32813h-8zm0 0"/></clipPath><clipPath id="q"><path d="M280 479h3v1.32813h-3zm0 0"/></clipPath><clipPath id="r"><path d="M286 479h9v1.32813h-9zm0 0"/></clipPath><clipPath id="s"><path d="M293 479h3v1.32813h-3zm0 0"/></clipPath><clipPath id="t"><path d="M300 479h8v1.32813h-8zm0 0"/></clipPath><clipPath id="u"><path d="M306 479h4v1.32813h-4zm0 0"/></clipPath><clipPath id="v"><path d="M313 478h8v2.32813h-8zm0 0"/></clipPath><clipPath id="w"><path d="M320 478h3v2.32813h-3zm0 0"/></clipPath><clipPath id="x"><path d="M326 478h8v2.32813h-8zm0 0"/></clipPath><clipPath id="y"><path d="M332 479h2v1.32813h-2zm0 0"/></clipPath><clipPath id="z"><path d="M340 478h8v2.32813h-8zm0 0"/></clipPath><clipPath id="A"><path d="M345 479h3v1.32813h-3zm0 0"/></clipPath><clipPath id="B"><path d="M354 477h6v3.32813h-6zm0 0"/></clipPath><clipPath id="C"><path d="M367 478h7v2.32813h-7zm0 0"/></clipPath><clipPath id="D"><path d="M380 478h8v2.32813h-8zm0 0"/></clipPath><clipPath id="E"><path d="M385 479h3v1.32813h-3zm0 0"/></clipPath><clipPath id="F"><path d="M395 476h4v4.32813h-4zm0 0"/></clipPath><clipPath id="G"><path d="M406 479h9v1.32813h-9zm0 0"/></clipPath><clipPath id="H"><path d="M420 477h7v3.32813h-7zm0 0"/></clipPath><clipPath id="I"><path d="M433 478h8v2.32813h-8zm0 0"/></clipPath><clipPath id="J"><path d="M447 477h6v3.32813h-6zm0 0"/></clipPath><clipPath id="K"><path d="M460 477h7v3.32813h-7zm0 0"/></clipPath><clipPath id="L"><path d="M144 463h3v8h-3zm0 0"/></clipPath><clipPath id="M"><path d="M144 450h3v7h-3zm0 0"/></clipPath><clipPath id="N"><path d="M144 438h4v4h-4zm0 0"/></clipPath><clipPath id="O"><path d="M144 426h4v3h-4zm0 0"/></clipPath><clipPath id="P"><path d="M144 412h4v3h-4zm0 0"/></clipPath><clipPath id="Q"><path d="M144 400h4v1h-4zm0 0"/></clipPath><clipPath id="R"><path d="M144 386h4v2h-4zm0 0"/></clipPath><clipPath id="S"><path d="M144 373h4v2h-4zm0 0"/></clipPath><clipPath id="T"><path d="M144 360h4v1h-4zm0 0"/></clipPath><clipPath id="U"><path d="M144 344h3v6h-3zm0 0"/></clipPath><clipPath id="V"><path d="M144 331h4v6h-4zm0 0"/></clipPath><clipPath id="W"><path d="M144 319h4v4h-4zm0 0"/></clipPath><clipPath id="X"><path d="M466 318h2v3h-2zm0 0"/></clipPath><g id="Y" clip-path="url(#clip1)"><path fill="#fff" fill-opacity="0" fill-rule="evenodd" d="M0 0h1000v1000H0zm0 0"/><path fill="#d3d3d3" fill-opacity="0" fill-rule="evenodd" d="M162.15234 355.86719l-.23437.29297.0586.23437.11718.17188.17578.23437.29297.34766.11328.0586.11719-.17188.0586-.23438.17577-.17578.46485-.17578h.69922l.23437.29297.28906.8164.0586.17579.17578.23046.35156.23438.69922.69922.17188.17578.23437.34765.23438.41016.28906.58203.41015.46485.23047.23437.23438.17578.11719.23047.17578.29297.17187 1.16406v.23438l.0586.28906.05859.11719.11719.11719.34765.41015.11719.17188.17578.17578.17578.23437.11719.17188.17188.35156.05859.23438.23437.40625.23438-.0586-.17578.17578-.0586.92969h-.58203l-.23437-.11328-.34766.11328-.11719.11719-.05859.29297-.0586.17578-.11718.17187-.46484.29297-.0586.23438-.0586.11328v.64453l.0586.17187v.41016l.0586.0586v.40624l.05859.40625.11719.17579.05859.05859.23047.64062-.0586.29297v.69922l-.05859.58203v.23438l-.0586.23047-.05468.35156v1.92187l.05469.1172h.42578l-.36719.11718-.02344.35156.89063 1.16797 1.74219.53906 1.33984.35938v.53906l.08984.8086.53516.71484 1.51953.26953.89063-.08594.08984 1.16406.53516.1797 1.16015-.1797 2.05469-.98437 1.16016-.36328 1.8789-.17578 1.69531-.1797-.17968.71876-1.51563.08594-1.25.08984-.80469.26953-1.07421.8086.26953.71875.53515.89843-.17968.625-.26563.8086.26563 1.07812.625.89844.80468.17969 1.25-.1797-.26562.72267.09766.5039.05468.29297v.17188l.0586.29296v.40625l.17578.1172.35156.11718h.40625l.29297-.17578.11328-.11719.0586-.11719.11718-.23047.0586-.17578.35156-.46484.23047-.17578.17578-.0586.17578.0586.0586.17578.11718.98828.05469.46875.0586.17188.11718.23437.17578.0586.8164.05859h.28907l.11719.23437.05859.40625.0586.35156v1.10547l.11718.29297.11719.34766.28906.69922.17578.35156.58203.7539.35157.17579.17187.0586.46875.23437.64063.46484.34765.23438.29297.17578.29297.05468.23047.0625.8164.34766.29297.17578.11328.17188.35157.35156.11719.17578.52343.64063v.28906l.0586.35156v.34766l.05859.35156.0586.28906.11718.0586.17188.05859h.17578l.58203.23437.17578.1172.17578.28905.17578.23438.11328.23437.29297.23047.11719.11719v.41016l.0586.05468.28906.23438.23437.11719.0586.11718.11718.17188.0586.11719.23047.23437.05859.17578.23437.0586.1172.05859-.1172.11328-.05859.11719v.11719l-.11719.29296-.11719.28907v.58203l.17579.11719.11718.05859.0586.11719.11719.11719.11328.05859.17578.34765.0586.35157.05858.40625v.17578l-.05859.17578-.11719.69922v.17187l.1172.17579.29296.29296h.40625l.17578.1172.11719.17187.11719.29296v.23438h-.52735l-.23047-.23438h-.23437l-.17578.0586-.0586.69922.0586.34765.11719.17579.17578.41015.11718.23047.28907.46875.17578.05469h.52344l.23437.0586.75781.64062.0586.29296v.23438l.05859.0586.23047.34765v.35156l-.11719.17188v.29297l.29297.28906.29297.17578.17187.0586.29297.17577.29297.1172.58203.40624.28906.23438.29297.17578.21875.16015.01563.01172.23047.17579.64062.52343.17578.23438.1172.17578.17577.17578.11328.17188v.64062l.1172.17578.46874.11719.58203.11719.23438.05859.23047.11328.29297.11719.11328.0586.58593.35156.28907.17187.17578.0625.17578.05469.17578.0586.69922.35155.28906.17579.23438.05468.28906.17578.23437.1172.64063.40624.29297.11719.17187.0586.23438.05859.41015.05859.23047.0586.23438.11718.0586.17188-.41017.17578.46875.0586.0586.29296.11328.23438.17578.05468.23438.0586.17578.05859.40625.11719.64062.23437.11719.17188.0586.23437v.17578l-.0586.1172-.0586.40624.23438.23438.11719.05859.34766.11719.64062.23047.17578.11718.28906.1172.17578.17577.23438.46485.58203 1.10546.17578.17579.34766.17578.17578.11719.35156.11718 1.04688.52344.23437.0586.46485.11327.29297.0586.46484.17578.75781.58203.23438.23438.34765.46484.17578.17578.28907.23438.8164.69921.29297.17579.28906.28906.29297.17578.29297.28906.69531.64063.17578.17578.29297.23437.28907.23438.46875.28906.64062.58203.34766.23438.23437.29297.34766.34765.35156.46485.9336.99218.34765.40625.11719.17579.23437.05859.11328.11719.64454.17578.23047.11328.23437.0586.29297.17577.23047.1172.9336.69921.40624.40625.23438.17578.40625.17578.23437.11719.8164.34766.34766.23437.23438.11719.29297.28906.23047.11719.7578.35156.35157.17188.23047.05859.29297.11719.23437.0586.8711.17577h.8164l.46875.23047.17188.0586.875.69921.46484.1172.29297.05858.17578.0586.23047.0586.46875.05859.34766.05859.35156.0586.40625.05859h.29297l.17187.0586v.23046l.17578.17578h.29297l.34766.0586.35156.05859.69922.11719h.64063l.46484-.23438.29297-.17578.17187-.11719.41016-.17187.28906-.17578.9336-.46485.46875-.29297.52343-.29296.46485-.17188.46484-.17578 1.05078-.46485.28906-.11718.41016-.11719.28906-.11719.52735-.17578 1.51562-.69922.58203-.34765.28907-.0586.29297-.0586.34765-.11718.875-.23047.35156-.11719h.11329l.23437-.05859.875-.23437.23438-.0586h.8125l.35156-.0586.8164-.11718.17188-.0586.35156-.05468.29297-.0586.23047-.05859.8164-.17578.17579-.0586h.34765l.23438-.05859.46484-.11718.75781-.17188.23438-.0586h.34765l.41016-.11718.28906-.0586 1.28516-.05859h.28906l.41016-.0586.23047-.05858h.17578l.875-.1172h.40625l.41015-.11718h.34766l.35156-.11328.8711-.0586h1.75l1.04687.28907.41016.11719.28906.11718.35156.11719.28907.11719 1.05078.17187.28906.0586h.29297l.29297.05859.17187.0586.41016.05859.17187.0586.1172.05858h.11718l.11719.0586.35156.0586h.11328l.41016.0664 1.92187.39453 1.92578.39453 1.51953.44922 1.69532.71875 2.14453.80469 1.60547-.71875 1.42968-.80469 1.16016-1.07813 1.25-.44921 3.03516-.71875 1.875-.35938 2.14453-1.34765 2.23437-1.25391 2.5-1.25781 1.69531-.44922 1.78516-.17969 1.16016-.26953.625.53906 1.33984-.26953.71485-.98828.98437-1.34375.44531-.17969.80469-.35937 1.875-.53907 1.78516-.44921 1.25-.26954 1.16015-.08984 1.69922-.08984 1.96094-.26954 1.25-.08984h.53906l.625-.08984h.89063l2.14453-.17969 2.41015-.17969 2.58985-.08984 1.69531.17969 1.60938.08984 1.42968.35938 1.16016.71875 1.875.98828 1.16015 1.52734.26563.71484.6289.08985.35548.89844.53515.53906.53516 1.52734 1.07422.35938h.53515l-.80469.53515.08985 1.70703.71484 2.69532.89063.80468.89453.98829.71484 1.2578 1.78516.53907 1.51953-.17969.35547 1.34375 1.60937-.80469.98047-.53906.26953.26953.31641-.21484.21875-.14453.80078.44922.44922-.35938h.35547l.53515-.26953.53907-.71875.53515-.26953.625-.98828 1.16016.44922.83984.3711 1.39454.61718 1.6953-.17969h1.60548l1.78515.08985.17969-1.70704.53516-1.34375.80468.26954.4922.84765.40233.40625-.08984.53906v.35938l.71485.44922.71093-.26953h1.42969l.35938.98828.4453 1.25781.71485 1.34375 1.25.6289 1.69531.62891.71485-.17969.17969-.53906.98046-.08984.44922.35937.08594 1.25782-.26563.6289-.53515.17969v.53906l.71484.98438.26563.53906.98437.98828.80078 1.07813-.26562.35937-.08985.89844-.625 2.33203-.35546 2.0664-.08985 1.79298-.17969.71875-.08984.53906v1.4375l-.98047 1.88281-.35937 1.70703-.53516.89844-.80469 1.16797-.26562.53906 2.05469 1.2539.08593.35938-.35546.53906-.08985-.17968v.80859l.08985 1.4375-.44532.71484-1.07422.09375-.26562.71485.53515.89844.8047.71875 1.16015.80859 1.33984.26953.44531.35938-.35546.44921-1.78907-.08984-1.25-.44922-.71484-.71875-.625-.08984-.17578 3.58984-.1875 1.3086h89.35937V311.70313h-55.26953v49.08203l.76172.125 3.28906.54296 2.02344 2.83594v2.7539l2.35156.33204 2.34766.33203h4.05078l-1.3789 4.16016-2.02344.70703-2.02344.70312-.54297.34375-2.59375 1.6172-.1875.11718-2.02344-2.07813-.73046-2.74218-2.67188-2.07813-1.375-3.5-.0664-.08203-1.95704-2.67188 2.75-1.41796v-49.08204H294.42187v91.41407l.1172.03125.1328.01172.07422.07421.10547.04688.08985.0586.08593.05859.08985.0586.29687.29687.0586.08984.03125.11719.02734.11719.01563.13671-.03125.1172-.0586.08983-.0586.08594-.04296.10547-.04688.10156-.02734.1211v.14453l.17578.26953.14844.14844.07422.08594.07422.07421.04296.10547.0625.08985.0586.08593.04297.10547.0586.08985.04687.10156.04296.10547.0586.08594.11719.17968.07421.07422.0625.08594.0586.08984.04297.10547.0586.08985.05858.08593.0625.08985.0586.08984.04297.10156.11719.17969.07421.07422.0586.08594.07422.07421.08984.0586.10547.04687h.14844l.1328-.01562.13282.01562.10156-.04687.07422-.07422.04688-.10156-.01563-.13281v-.14844l-.04687-.10547-.02735-.11719-.04687-.10156-.02735-.1211-.04296-.10156-.0625-.08984-.04297-.10156-.04297-.10547-.03125-.11719-.01563-.13281-.01171-.13672.08593-.0586.0586-.08593.12109-.03125.04297.10547.01562.1328v.1172l.0586.10156.0586.08984.08983.0586.14844.14843.0586.08985.04296.10547-.01171.10156.08593.0586.10547.04687.08594.0586.08984.05858.07422.07422-.11719.02735-.10546.04687-.08594.0586-.07422.07421-.0586.08985-.0625.08594-.02734.12109-.04687.10156-.04297.10547-.03125.11719-.01172.13281-.01563.13281v.14844l.02735.11719.04687.10547.04297.10156.0586.08984.07421.07422.08985.0586.07422.07421.08984.0586.0586.08984.04296.10547.04688.10156.11719.03125.1328.01563h.14845l.11718-.03125.10547.04297.04297.10547.04688.10156.02734.1211L299.5 410l.02734.11719.03125.1211.02735.11718.10547.04297.10156.04687.13281-.01562.14844.14844.0625.08593.07422.07422.07031.07422.08984.0625.10547.04297.10156.04297.1172.03125.13671.01562.11719-.03125.07422-.07422.02734-.11718-.01172-.13282-.03125-.12109-.02734-.11719.04297-.10547h.11719l.08984.0625.11719.02735h.14843l.13282.01562h.14843l.13282.01563.1328-.01563h.14845l.1328-.01562.13282-.01172.13672.01172.11719-.02735.13281-.01562.1914-.0586-.05859.17579-.01562.1328-.02735.1211-.01562.13281-.0586.08594-.1328.01563-.10548.04687-.10546.04297-.1172.03125-.11718.02735-.26563.03125h-.14843l-.13281.01562-.07422.07422.05859.08594.14844.14843.11719.1797.07421.0703.08985.0625.08984.0586.08594.0586.08984.05858.10156.04297.10547.0625.10547.04297.08594.0586.10547.04687.10156.04297.17969.11719.0586.08984-.04298.10156-.04687.10547.01562.13281.22266.22266.0586.08985.04296.10156.03125.1211.04297.10155.01563.13282.03125.11718.01171.13672.03125.11719.14844.14844.10156.04297.10547.04296.1172.03125.1328.01563.13672.01563h.11719l.11719-.03125.08984-.0586.04297-.10547.04688-.10156.04296-.10547.03125-.11719.01172-.1328v-.14845l-.01172-.1328-.01562-.13282-.03125-.11719-.04297-.10547-.04688-.10547-.04296-.10156-.04297-.10547-.01563-.13281.01563-.13281.02734-.11719.03125-.11719.02735-.1211.04687-.10155.08984-.0586.08594-.0625.07422-.07422.08984-.05859.22266-.22266.0586-.08593.07421-.07422.11719-.17969.0586-.08594v-.14844l-.07423-.07421-.10156-.04688-.10547-.04297-.10156-.04297-.0586-.08984-.04687-.10547-.02734-.11719.08984-.05859.11719-.03125.10156-.04297.17969-.11719.14844-.14843.01172-.13282-.01172-.10546-.08985-.0586-.1328.01563h-.14845l-.1328.01562-.13282-.01562-.1211-.03125-.08593-.0586-.07422-.07422-.0586-.08984-.0625-.08594-.11718-.17969-.0586-.08593.03125-.1211.08594-.05859.1211-.03125.05859-.08594v-.1211l-.03125-.11718-.0586-.08984-.05859-.08594-.04687-.10547-.02735-.11719-.01562-.1328.0586-.08985.07421-.07422.08984-.0586.1172-.17968.07421-.07422.0586-.08594.14843-.14844.1211-.03125.1328-.01562.13282.01562.07422.07422.04297.10547.01562.13281-.03125.1172-.11719.03124-.1328.01172-.14844.14844-.04297.10547-.04688.10156-.02734.1211-.03125.11718v.14844l.03125.11719.04297.10546.05859.08985.07422.07031.07422.07422.11719.03125.12109.02734.11719-.02734.1328-.01563h.1172l.08984.0586.07422.07422.04687.10546.0586.08594.10156.04688.13281.01562.10547.04297.08594.0586-.01172.10546-.07422.07422-.17969.11719-.05859.08984-.08984.0586-.07032.07422-.07421.07421-.0625.08985-.02735.11719-.01562.1328.01562.13282-.01562.13281v.14844l.01562.13281.02735.1172.03125.12108.07421.07422.08985.0586.08594.0586.08984.05858.11719.03125v.08594l-.10157.04688-.08984.0586-.26563.03124-.11718.02735h-.14844l-.10547.04296-.10156.04688-.0586.08984-.0625.23438-.01171.13281-.03125.1211-.01563.1328v.29298l-.01172.1328.01172.13673.01563.1328.1328.01563.13282.01172.1211.03125.08593.0586.07422.07421.04688.10547.04296.10157.01563.1328v.44532l-.01563.13281v.44532l.03125.26562.02735.11719.01562.13281.03125.11719.08594.21094.03125.26562v.14844l-.03125.11719-.02734.11718-.03125.1211-.02735.11719-.03125.11718-.03125.1211-.01171.1328-.01563.13282.08984.0586.1172-.03125.10155.01562.04688.10547-.03125.26562v.44141l-.04297.10547-.04688.10547-.04296.10156-.04297.10547-.0586.08594-.03125.12109-.04296.11719-.03125.11719-.01563.1328.01563.13282.05859.08984.10547.04688.08594.0586.05859.08593-.01172.13672-.03125.11719-.04297.10156v.44531l-.01562.13281v.14844l-.03125.11719-.04297.10547-.02735.11719-.04687.10546-.04297.10157-.03125.12109-.02734.11719-.03125.13281-.03125.11719-.02735.11719-.04297.10546-.03125.1172-.03125.12108-.01171.13282-.01563.13281v.29688l.02734.11718v.14844l.04688.39844.02734.11719.0586.08984.12109.03125h.14844l.13281-.01563.0586.08985v.11719l-.0586.08984-.08984.0586-.10157.04296-.10546.04688-.08985.05859-.08594.0586-.13671.01562-.1172-.03125-.1328-.01563-.10157.04688-.0625.08594-.01172.13671-.01562.13282-.03125.11719-.02735.11718-.01562.13281-.03125.1211v.29687l.01563.13282.03125.11718v.14844l.01171.13281v.14844l-.02734.11719-.04688.10156-.02734.1211-.03125.11718-.0586.08985-.07421.07421-.10156.04297-.10547.04688-.11719.02734-.1211.03125-.10156-.04687.0586-.08594.10547-.04688.02734-.11718.03125-.11719.02734-.1211.03125-.11718v-.14844l.01563-.13281-.03125-.11719-.04297-.10547-.10547.01563-.07422.07422-.10156.04296-.08984.0625-.07422.07422-.04297.10157-.01563.1328-.03125.1172L304.25 426l-.03125.11719-.02734.11719-.03125.12109-.02735.11719-.03125.11718-.04297.10547-.08984.0586h-.08984l-.1172-.03125-.03124-.08594.01562-.13672-.03125-.11719v-.14844l-.01171-.1328v-.14844l-.0625-.23438-.02735-.1211-.04297-.10156-.04687-.10546-.0586-.08594-.05859-.08985-.04297-.10546-.0625-.08594-.14844-.14844-.0703-.07422-.10548-.04687-.10547-.04297-.10156-.04297-.29687-.29688-.08985-.07421-.08594-.0586-.10546-.04297-.08985-.0625-.08594-.0586-.10546-.04296-.08985-.0586-.08594-.0625-.07421-.0703-.10547-.04688-.08594-.0586-.10547-.04296-.08984-.0625-.10156-.04297-.10547-.04297-.08594-.0586-.10547-.04687-.10547-.04297-.10156-.04687-.08985-.0586-.10156-.04297-.10547-.04296-.08984-.0625-.11719-.02735-.13281-.01562-.13281.01562H299.75l-.13281.01563-.11719-.03125-.08984-.0586-.07422-.07422-.08985-.05859-.10156-.04688h-.14844l-.12109-.02734-.10156-.04297-.07422-.07422-.11719-.17968-.08984-.0586-.10156-.04297-.08985-.0625-.10547-.04296-.08984-.0586-.08594-.0586-.10547-.04687-.0586-.08594-.05858-.08984-.04297-.10547-.04688-.10156-.07422-.07422-.08594-.0586-.07421-.07421-.08985-.0586-.22265-.22265-.04297-.10547-.03125-.26563.10547-.04296h.14453l.10547.04296.07421.07422.08985.0586.08594.0586.10546.04687.08985.05859.14844.14844.0703.07422.14845.14843.0625.08594.07421.07422.08594.0586.07422.07421.08985.0625.08984.0586.08594.05859.26953.17578.10156.04688.10547.04296.10156.04297.04688-.07421.05859-.08594.07422-.07422.07031-.07422.10547.04297.07422.07422.0586.08984.04296.10156.04688.10547.04296.10547.1211.02735.11719-.02735.07421-.08984.04297-.10547.0586-.08985.07422-.07421.10546-.04297.1172-.02735.1328.01172.08985.0586.14844.14843.05859.08985.04297.10547.04687.10156.04297.10547.04297.10156.10547.04688.10547.04296.13281.01563.08594-.0586.0586-.08984.07421-.07422.10547-.04297.11719.02735.10547.04687.10156.04297.10547.04297.10156.04688.17969.11718v.11719l-.01563.13281.01563.13281.01562.13672.0586.08594.10156.04688.1211.02734.11718.03125h.14844l.11719-.03125.05859-.08984.17969-.1172.05859-.08983.07422-.07422.0586-.08594.11718-.17969.17969-.11719.11719.03125.08984.0586.04297.07422-.01563.1328v.1172l.08985.05859h.14843l.13282-.01563.1328-.01171.26563-.03125.10547-.04297.11719-.03125.1211-.02735.07421-.07421.07031-.07422.0625-.08985-.01562-.10547-.04688-.10156-.10156-.04297-.10547-.01562-.11718.02734-.26563.03125h-.14844l-.07421-.07422-.08985-.0586-.11719-.03124-.11718-.02735-.13282-.01562h-.14843l-.13282.01563h-.29687l-.10547-.04688-.14844-.14844-.04297-.10156-.05859-.08984.22266-.22266.08593-.0586.10547-.04296.11719-.03125.13281-.01563.13281.01563.13672.01562.10157.04297.1328-.01172.08985-.0625.10156-.04297.0625-.08984-.04687-.10156-.08984-.0586-.1172-.03125-.10155-.04296-.0586-.08985-.0625-.08984v-.11719l.01563-.13281.10547-.04688.07421-.07031v-.1211l-.08984-.05859-.03125-.11719.08985-.05859.07421-.07422.04297-.10547.0586-.08984.04687-.10156.01563-.13281v-.14844l-.04688-.10547-.04297-.10156-.08984-.0586-.13281-.01562-.10157-.04297-.13671-.01563-.1172-.03125h-.4453l-.13282-.01562-.13281-.01172-.13281-.01563-.11719-.03125h-.14844l-.13281-.01562-.13281-.01172-.26563-.03125-.1211-.04297-.08593-.0586-.07422-.07421v-.14844l.01172-.13281.10547-.04688.10156-.04296.13281-.01563h.15235l.13281-.01562h.29297l.1211.03125.10156.04296.08984.0586.23438.0625.12109-.04688.08984-.05859.10156-.04297.13282-.01562.10547.04296.10156.04688.13281.01172.1211-.02735h.14453l.12109-.03125.11719-.02734.10547-.04687.07421-.07422.08594-.0586.14844-.14843.0586-.08594.04687-.10547.02734-.11719.01563-.10547-.10156-.04296-.08985-.0586-.11719-.03125-.10546-.04297-.08985-.0625-.07422-.08594-.07422-.07421-.10156-.04297-.10547-.04688-.10156-.04297-.0586-.08984-.04687-.10156-.08594-.21094-.0625-.08594-.05859-.08984-.07422-.07422-.08594-.0586h-.26953l-.11719.03126-.08984.05859-.10156.04297-.13281.01562-.10547-.01562-.02735-.11719-.0625-.08984-.11718-.03125-.10157-.04297-.14843-.14844-.03125-.11719-.01563-.10546.07422-.07422.17969-.1172.11719-.02733.11718-.03125.13672.01562.10156.04297.10547.04297.10156.04687.10547.04297.1172.03125.1328.01563.1172.02734.1328.01563.10547-.01563.08985-.0586-.07422-.07421-.10547-.04297-.07422-.07422-.07422-.08984-.14844-.14844-.08593-.0586-.08985-.05859-.07422-.07422-.08984-.0586-.10156-.04687-.1211-.02734-.10156-.04688-.10547-.04296-.11719-.03125-.10156-.04297-.1211-.03125h-.14843l-.11719.03125-.10546.04297-.08594.0625-.17969.11718-.08594.0586-.08984.0586-.10547.04687-.08594.05859-.10547.04297-.10156.04297-.10547.04687-.07422.07422-.05859.08985-.0586.08593-.04687.10547-.0586.08594-.07421.07422-.13281-.01172-.1172-.03125h-.11718l-.07422.07422-.08984.0586-.07422.07421-.08984.0586-.08594.05859-.10547.04687-.10156.04297-.13672.01563-.10156-.04297-.14844-.14844-.10547-.04688h-.08594l-.10547.04688-.10156.04297-.1211.03125-.11718-.03125-.07422-.07422v-.11719l.03125-.1211.07422-.0703.0586-.08985.07421-.07422.11719-.03125.10547-.04296h.29297l.13281-.01563.13672-.01563.10156-.04296.08985-.0586.10156-.04687.08984-.0586.13281-.01171.08985.05859.13281.01172.08984-.0586.08594-.05859.10547-.04297.08984-.0586.08594-.0625.08985-.05859.14843-.14843.0586-.08594.05859-.08985.10547-.04296.13281-.01563.11719.02735.1211.03125.05859-.0586.05859-.08984.03125-.26563.02734-.11719.10547.01172.13281.01563.10157-.04297.08984-.0586.0586-.08984.07421-.07422.0586-.08984.04687-.10156.01172-.13281-.01172-.13282-.04687-.10547-.14844-.14843-.0586-.08985-.05859-.08594-.04297-.10546v-.44532l.01563-.1328v-.14845l.01172-.1328-.0586-.0586-.08984.0586-.10156-.04298-.17969-.11719-.08594-.05859-.0625-.08984-.0586-.08985-.07421-.07421-.08594-.0586-.1211.03125-.10155.01172-.10547.04688-.08594.05859-.10547.04297-.14844.14844-.08984.05859-.08594.0586-.08984.0625-.10547.04296-.13281.01563v-.1211l.10547-.04297.11718-.03125.07422-.0703.04297-.10548v-.14844l-.02734-.11718-.14844-.14844-.13281-.01563h-.14844l-.11719.03125-.10547.04297-.10156.04297-.08984.0625-.11719.02735-.07422-.07422.01172-.13281-.04297-.10157-.04297-.10547-.08984-.05859-.11719.02734-.1211.03125-.11718.03125-.10156.04297-.1211.03125-.10156.04297-.10547.04297-.08984.0586-.10156.01562v-.11719l.01562-.13281-.0586-.08985-.07421.04297-.14844.14844-.0586.08985-.07421.07421-.04688.10547-.04296.10156-.07422.07422-.0586.08985-.07422.07422-.05859.08593-.07422.07422-.08984.0625-.07422.07031-.07422.07422-.10156.01563-.13281.01562-.10547-.04296v-.1211l.14843-.14844.04297-.10156.0586-.08984.04687-.10156.04297-.10547.0586-.08985.03124-.11719.04297-.10156.03125-.1211.02735-.11718.04687-.10547.04297-.10156.04297-.10547.07422-.07031.08984-.0625.08985-.0586.10156-.04296h.29687l.26563-.03125.10547-.04297-.07422-.07422-.11719-.03125-.10547-.04297-.08984-.0586-.10156-.04687-.08985-.0586-.10156-.04296-.10547-.04297-.08984-.0625-.08594-.0586-.10547-.04296-.10156-.04297-.1211-.03125-.11718-.03125-.10157-.04297L297.5 410.25l-.10156-.04297-.08985-.0586-.04296-.10546-.01563-.13281.10156-.04297.13281-.01563.13672.01563.13282-.01563.10156-.04297.0586-.08984.01562-.10547-.08985-.0586-.07421-.07421-.10157-.04297-.08984-.0586-.14844-.14843-.04297-.10547-.01562-.13281v-.29297l-.0586-.08985-.08984-.05859-.07422-.07422-.04297-.10547-.03125-.11718-.0586-.08985-.07421-.07422-.11719-.02734-.07422-.07422-.08984-.0586-.08984-.0625-.08594-.05859-.07422-.07421-.0586-.08594-.04687-.10547-.08594-.0586-.14843-.14843-.19532-.0586-.1328.01563-.10157.04297-.07422.07422-.04688.10156-.04296.10547-.0586.08984-.0586.08594-.29687.29687-.08984.0586h-.08594l-.0625-.08594-.04297-.10547.03125-.11719.0586-.08984.02734-.11719-.01172-.13281-.08984-.0625-.10547.04688-.11719.02734-.11719.03125-.26953.17578-.10156.04688-.11719.02734-.10546.04687-.08985.0586-.10156.04297-.0586-.08594-.04687-.10547.01563-.13281.04687-.10547.07031-.07422.07422-.07031.0586-.08985v-.14843l-.04297-.10547h-.23829l-.10156.04687-.03125.11719-.02734.11719-.03125.1211-.07422.04296-.13281.01563-.07422-.04688-.04297-.10156-.04297-.10547-.04687-.10156-.04297-.10547-.1211.03125-.10156.04297-.13281.01562-.11719.03125-.10547.04297-.08984.0586-.10156.04687-.1211.02734-.13281.01563-.10156-.04297-.0586-.08985-.04687-.10546-.04297-.10157-.04297-.10546v-.1172l.0586-.08984.08593-.05859.17969-.11719.10156-.04687.10547-.04297.10547-.0586.10156-.04296.08985-.0625.10156-.04297.10547-.0586.10156-.04687.08984-.0586.10547-.04296.10156-.04297.08985-.0625.10156-.04297.13672-.01563.11719.03125.10156.04297.1211.03125.10156.04297.10546.04688.10157.04296.10547.04297.10156.04688.10547.04297.10156.04297.10547.04687.08594.0586.10546.04296.1172.03125.10546.04297.10156.04688.08985.0586.10547.04296.10156.04297.10547.04687.11719.02735.10156.04687.1211.02735h.14843l.08594-.0586.01562-.10156.0586-.08984-.02735-.1172-.07422-.07421-.11719-.17969-.07421-.07422-.08985-.07421-.17969-.1172-.08593-.05859-.10547-.04296-.10156-.04688-.26954-.17578-.05859-.08985-.07422-.07421-.0586-.08985-.04296-.10156-.03125-.11719-.01563-.13672v-.5625l-.01171-.1328-.01563-.13282-.03125-.11719-.01562-.13281-.01172-.13281-.03125-.1211-.22266-.22265-.0586-.08594-.01562-.10547.03125-.11719.13281-.01562v-91.41406H172.9922v1.45312l-.0586.23438-.35156 1.05078-.17187.52343-.1172.34766-.17577.41016-.11719.17187-.23438.29297-.23046.0586h-.35157l-.11718.05859-.23047.40625v.29297l.11719.17578.23046.23047.1172.23437.64062.75781.29297.46485.17578.23437.23047.35156.23437.34766.64063.8164.17578.46485.17187.41016.11719.69531.17578.46875.11719 1.39844.0586.46484v.875l.11718 1.04688v4.78125l-.0586.46484-.35156 1.28125-.17578.52344-.11328.41015-.35156.9297L172.93359 336l-.23437.58203-.11719.17578-.17187.34766-.17578.40625-.35157.8164-.0586.29297-.11327.29297-.11719.28906-.0586.17579-.11718.875-.0586.40625-.05859.11718-.0586.17579-.05859.17187-.23047.52734-.11718.17188v.23437l-.11719.23438-.0586.17187-.17577.58594v.28906l-.0586.17579v.29296l-.0586.11329-.05859.52734v.17187l-.05468.23438v2.6211l-.17578.8164-.1172.17578-.17577.23438-.1172.17187-.11327.23438-.58594.93359-.23047.28906-.29297.46485-.17578.23437-.28906.35156-.35156.69922-.11328.23047-.17579.41016-.17578.23046-.40625.52735-.8164.69922-.29297.17187-.28906.23438-.17579.11719-.17578.17578-.52344.40625-.52734.17578-.17187.17578-.23438.05469-.64062.17578h-.75782m12.21094 31.02344l-1.07422.44921.35938.89454 1.25-.71485.44531-.53906-.98047-.08985"/><path fill="#d3d3d3" fill-opacity="0" fill-rule="evenodd" d="M201.50781 416.59766h-.89453l.44922.6289.98047.35938.80469-.08985.4453-.98828-.17577.08985-.71485-.35547-.89453.35547m154.6211 59.0703l-.0586-.52343v-.29297l.11328-.29297.0586-.23046.46875-.46875h.11328l.11719-.11329.11718-.05859h.17579l.23437-.0586h.34766l.23437.0586.11719.0586.23047.17187.0586.17578.11718.58203v.29297l-.11719.17578-.17187.28906-.17579.17579-.52734.52343-.23047.23438-.11719.0586h-.17578l-.11718-.0586-.40625-.29297-.17579-.11719-.11718-.0586-.0586-.11327-.05468-.1172m6.64062-10.95702l-.0586-.17188v-1.10937l.0586-.17188.17578-.0586.17188-.05858h.17578l.23437-.0586.1172.0586.05858.69921-.05859.17188-.11719.17578-.11718.0586-.23438.52343-.11328.0586h-.23438l-.05859-.1172m9.61328-14.39062l-.11719-.17578v-.69922l.29297-.875.1172-.17187.17577-.35156.11328-.23047.1172-.29297.35155-.75781.1172-.23047.17187-.23438h.17578l.11719-.0586h.64062l.11719.0586.23437.23438.17188.11328.35156.29297.11719.11718.11328.17579v.11328l.11719.05859.11718.11719v.69922l-.05859.17578v.23047l-.0586.17578-.34765 1.05078-.11719.23047-.11719.23437-.11718.0586-.23047.23437-.64063.28906h-.875l-.41015-.11718-.64063-.46485"/><path fill="none" stroke="#bebebe" stroke-linecap="round" stroke-linejoin="round" stroke-miterlimit="10" stroke-width=".5" d="M467.95703 311.69531H144.02734v168.625h323.9297v-168.625"/><g clip-path="url(#a)"><path fill="#fff" fill-opacity="0" fill-rule="evenodd" d="M144 475.89063v4.4375h.0039H144V311.67188h.0039H144v164.21875"/></g><g clip-path="url(#b)"><path fill="#fff" fill-opacity="0" fill-rule="evenodd" d="M144.0039 480.32813V311.67188h17.75v70.53515l-.82812.47656-3.60937 1.28516-3.7422 3.15625 1.06642 4.4375 2.67578 2.82031 4.4375 1.55078 4.4375-3.07421.66797-1.29688 1.29687-4.4375-1.96484-2.13672-3.91797-2.30469-.51953-.47656v-70.53515h26.6289v45.54296l-4.4375 1.00391-3.3086 2.27344-1.1289 1.84765-3.49219 2.59375.1172 4.4375 3.375 3.6211.7539.8164 3.6836 3.48829 4.16796-3.48829.00781-4.4375.26172-3.40625 2.78125 3.40625-1.96875 4.4375-.54687 4.4375.74219 4.4375 3.42968 2.97657 2.33594 1.46484 2.10547 2.72656.3711 1.71094-.3711.53125L193.62109 396l-.80078.21094-.47656-.21094-3.96094-4.10547-.8711-.33203-3.5664-4.2461-3.24219 4.2461L179.60938 396l-.10156.15234-4.4414 1.01563-4.4375-.02344-4.4375-.75-3.7422 4.04297 3.7422 3.66797 1.57812.76953 2.85938 3.13672 1.42578 1.30469 1.61719 4.4375 1.39453 1.20703 4.4414 2.35547 4.4375.4414.77344.4336-.77344 2.42187-1.49219 2.01563 1.4922 3.84375.15624.59765 4.28125 3.17578 4.4375.625 4.4414.25782 4.4375.12109 2.58595.25781 1.85156 1.91406 4.4375 1.35157 4.4414.17187 4.4375-1.8086 2.32032-1.6289 2.11719-2.58203 4.4375-.58984 4.4375-.01563 4.4414 1.73047 1.9961-2.98047.9453-4.4414-2.9414-4.39844-.0039-.03906-2.10547-4.4375-2.33203-2.0625-4.4375-2.33985-.10547-.03515-4.33203-3.8711-.82032-.57031-3.61719-3.08984-4.4375-1.21094-1.30859-.13672L211.23437 396l-.66015-.07422-2.45703-4.36328-1.98047-2.2461-3.14063-2.1914.81641-4.4414 1.875-4.4375-3.98828-3.60157-4.4375-.65625-1.41016-.17969-1.57812-4.4375-1.45313-1.5703-3.47265-2.8672.74218-4.4414-1.70703-3.27735v-45.54296h35.50781v82.4414l-4.4375 1.28516-2.65234.60156 2.65234.83594 4.4375 1.3086L226.65625 396l-2.76563-1.88672v-82.4414h8.875v76.54296l-3.72656 3.34766 3.72656 3.4414 4.13282-3.4414-4.13281-3.34766v-76.54296h17.7539v69.39843l-1.47266 1.61328 1.47266 1.48829v29.9414l-2.78516 4.07813 2.78516 2.10156 4.4375-.00781 4.03125-2.09375-4.03125-2.47657-4.4375-1.60156v-29.9414l2.76172-1.48829-2.76172-1.61328v-69.39844h22.1914V355.625l-.39062.42969.39063.57422 1.39062-.57422-1.39062-.42969v-43.95313h13.3164v33.39454l-3.7539 2.11328-.6836.26562-4.15625 4.17188 4.15625 3.07422 3.88282 1.36328.55468.46094.51172-.46094 3.1211-4.4375-1.91016-4.4375-1.72266-2.11328v-33.39454h8.875v60.21094l-1.96093 1.92578 1.96093.6797 1.10938-.6797-1.10938-1.92578v-60.21094h13.31641v32.01563l-3.91406 3.49219-.52344 2.28515-1.08984 2.15235 1.08984 1.71094 4.4375-.125 2.27344-1.58594 2.16406-2.71094 4.4414-1.03906 2.66016-.6875-2.66015-1.58203-4.44141.11718-4.4375-2.02734v-32.01563h17.7539v19.56641l-1.6328 2.625 1.6328 1.5039 3.6797-1.5039-3.6797-2.625v-19.5664h17.75391v13.97656l-4.4375 2.60156-1.70312 1.17578 1.70312 1.27344v93.02734l-3.17187 3.34375 3.17187 2.7539 3.27735-2.7539-3.27735-3.34375v-93.02734l4.29297 3.16406.14453.27735.46485-.27735 3.02343-4.4375-3.48828-3.77734v-13.97656h26.6289v124.66796l-3.91015 4.04297-.52734.5039-4.4375.47657-1.92969-.98047-2.50781-2.60547-4.4414-.96484-4.4375.875-3.69923 2.69531 1.22657 4.4375-1.96485.30078-2.3711-.30078-2.0664-.63672-.94531.63672-3.4961.71094-4.4375.9336-3.24218 2.79687-1.19531.88672-4.17579 3.55078 4.17579 4.0586.1875.3789 4.25 3.4336 4.4375.41406 1.44921.58984 2.9922 2.4961 4.4375 1.08984 4.4375.1914 4.4375.51172 4.4414.07422 4.4375-.05469.36328.13281 4.07422 3.17579 4.4375-.33985 4.4375-1.64453 4.4414.10547 4.4375-1.09766.34766-.19921 4.08985-1.80079 1.6875-2.64062-1.6875-3.15235-4.4375.47266-.3086-1.75781.3086-.82422 3.80859-3.61328-3.8086-4.27735-.08984-.16015-4.34765-4.21094-.07813-.23047-4.36328-4.39062-.09766-.04688-4.33984-4.04297V311.67188h13.3164V427.875l-4.26171 3.63281-.17579 2.41797-1.17187 2.01953 1.17188 3.41016 4.4375.34765 4.4375.33594 3.35937-4.09375-3.35938-3.64453-.78125-.79297-3.65625-3.63281V311.67187h8.875v130.1836l-3.57421 2.96484 3.48046 4.4414.09375.16017.14844-.16016 2.66797-4.4414-2.8164-2.96485v-130.1836h4.4375v82.59766L395.2539 396l1.73046 1.73047L399.54688 396l-2.5625-1.73047v-82.59765h4.44141v112.72265l-4.4414 1.13672-1.57813 1.53906 1.46484 4.4375.11329.1289 1.5039 4.3086-.41406 4.4375-.32422 4.4375.57031 4.4414 3.10547 3.1836 2.32422-3.1836 2.11328-4.28515.1289-.15625 4.3086-1.57422 4.4375.39454 2.72656 1.17968 1.71485 1.5 2.375-1.5-2.375-2.08594-.91016-2.35156-3.53125-3.4961-.30078-.9414-4.13672-4.11719-.28125-.3203-4.15625-4.03126-1.9414-.40625-2.4961-2.67578V311.67188h22.1914v80.03515L419.21876 396l2.50781 4.4375-.20312 4.4375-2.34375 1.52734-3.46094-1.52734 1.01172-4.4375L418.83984 396l-4.10156-2.74219L411.91406 396l.74219 4.4375.86328 4.4375-.3711 4.4414 1.58985 1.64844 2.82031 2.78907-.97656 4.4375 2.59766 2.64062 1.85937 1.79688 2.57813 2.35546 3.34375-2.35546 1.09375-.27344 4.4375-.49219 4.4375-1.09375 2.70312-2.57812 1.73828-1.00782 3.58594-3.42968.85156-1.89454 2.17579-2.54296-2.17579-2.2422-1.01171-2.19921-.16016-4.4375-3.26563-3.57422-4.4414 2.85547-.71875.71875-3.71875 2.39844-4.4375-.53906-2.58985-1.85938L427.9297 396l-4.3125-4.29297v-80.03515h26.6289V424.875l-2.26562 2.19531 2.26562 3.4961 2.25782-3.4961-2.25782-2.19531V311.67187h17.75v168.65625H144.00391"/></g><path fill="#50fcfc" fill-rule="evenodd" d="M154.64063 391.5625l-1.06641-4.4375 3.74219-3.15625 3.60937-1.28516.82813-.47656.51953.47656 3.91797 2.3047 1.96484 2.13671-1.29688 4.4375-.66796 1.29688-4.4375 3.07421-4.4375-1.55078-2.67578-2.82031"/><path fill="#50fcfc" fill-rule="evenodd" d="M166.1914 404.10547l-3.74218-3.66797 3.74219-4.04297 4.4375.75 4.4375.02344 4.4414-1.01563.10156-.15234 1.09375-4.4375 3.2422-4.2461 3.5664 4.2461.8711.33203L192.34374 396l.47656.21094.80078-.21094 3.64063-3.90625.3711-.53125-.3711-1.71094-2.10547-2.72656-2.33594-1.46484-3.42969-2.97657-.74218-4.4375.54687-4.4375 1.96875-4.4375-2.78125-3.40625-.26172 3.40625-.0078 4.4375-4.16798 3.48829-3.6836-3.48829-.7539-.8164-3.375-3.6211-.11719-4.4375 3.4922-2.59375 1.1289-1.84765 3.3086-2.27344v5.40625l-.91798 1.3086-3.51953 1.78906-1.76562 2.64843 1.76562 1.89454 2.35156 2.54296 2.08594 1.97657 2.35938-1.97657 1.19531-4.4375-2.7461-4.4375-.80859-1.30859v-5.40625l4.4375-1.0039 1.70703 3.27734-.74218 4.4414 3.47265 2.8672v6.26952l-3.5039 4.17578 3.02343 4.4375.48047.42188 4.4414 2.94922 3.33204-3.3711 1.10547-1.03125v6.5625l-2.91016 3.34766-1.52734 2.16797L195.14453 396l-2.32422.60938L191.4297 396l-3.04688-3.16016-3.36328-1.27734-1.07422-1.28125-.97656 1.28125L181.26562 396l-1.7578 2.64063-4.44141 1.1953-4.4375.4375-4.4375-1.7539-1.77344 1.91797 1.77344 1.73828 4.4375-1.02344 1.1289 3.72266 3.3086 3.0625.42187 1.3789 1.05469 4.4375 2.96484 2.14454 4.4375.76562 2.73047 1.52735-1.59766 4.4375 2.08985 4.4414 1.21484.89844 4.4375 1.73438 4.4414.37109 4.4375.34375 4.4375.64453 4.4375.23828 1.76563.20703 2.67578 1.28906 2-1.28906 2.39454-4.4375.04297-.28125 4.4375-1.6289 4.4375-.73829 4.4375.03516 2.23828-1.82812.83984-4.4375-3.07813-3.40625-.92187-1.03125-3.51563-3.1836-3.72656-1.2539-.71094-.63672-4.4375-3.65625-.1875-.14844-4.25-3.60938-4.4414-.63671-.95313-.19141L207.1172 396l-.98047-1.48047-.8086-2.95703-3.6289-3.34766v-6.5625l2.49219-3.40625-2.4922-2.25-4.4375-1.42578-4.4414-.5v-6.26953l1.45313 1.57031 1.57812 4.4375 1.41016.1797 4.4375.65624 3.98828 3.60156-1.875 4.4375-.8164 4.44141 3.14062 2.1914 1.98047 2.2461 2.45703 4.36328.66016.07422 2.47265 4.4375 1.3086.13672 4.4375 1.21094 3.61718 3.08984.82031.57031 4.33204 3.8711.10547.03515 4.4375 2.33985 2.33203 2.0625 2.10547 4.4375.0039.03906 2.9414 4.39844-.9453 4.4414-1.9961 2.98047-4.4414-1.73047-4.4375.01563-4.4375.58984-2.1172 2.58203-2.3203 1.6289-4.4375 1.8086-4.44141-.17187-4.4375-1.35156-1.85156-1.91407-2.58594-.25781-4.4375-.1211-4.4414-.2578-4.4375-.625-4.28126-3.17579-.15625-.59765-1.49219-3.84375 1.4922-2.01563.77343-2.42187-.77344-.4336-4.4375-.4414-4.4414-2.35547-1.39453-1.20703-1.6172-4.4375-1.42577-1.3047-2.85938-3.13671-1.57812-.76953"/><path fill="#00e8fc" fill-rule="evenodd" d="M166.1914 402.17578l-1.77343-1.73828 1.77344-1.91797 4.4375 1.7539 4.4375-.4375 4.4414-1.1953L181.26562 396l1.70313-4.4375.97656-1.28125 1.07422 1.28125 3.36328 1.27734v1.57422L184.08594 396l-.14063.13281-2.875 4.30469-1.5625 1.5039-3.02734 2.9336.92578 4.4414 2.10156 4.08985.60156.34766 3.83594 1.08203 4.4375 1.98828 1.14063 1.36719-1.14063 3.23046-.5 1.20704.5.84375 3.02735 3.59765 1.41015.6875 4.4414.5625 4.4375.71485 4.4375 1.07421 4.4375.32422 4.44142.50782 3.57421-3.8711.63672-4.4414.22656-.27735 4.4375-.07812 4.4375-.78906 4.4375-1.64063.8125-1.65234-.8125-.89844-3.16406-3.53906-1.27344-1.15235-4.4375-2.77344-1.01171-.51171-3.42578-3.21875-1.53907-1.22266-2.89844-2.46094-4.4414-1.17187-3.99219-.80469-.44531-.66406-4.4375-1.84766-4.4375-1.1875-4.4414.53516L189.91405 396l-1.53125-1.58594v-1.57422L191.4297 396l1.39062.60938L195.14453 396l2.11719-2.26953 1.52734-2.16797 2.91016-3.34766v2.21094l-.99219 1.13672.99219 1.3164v2.5547l-.9336.5664.9336.34766L204.21875 396l-2.51953-.5664v-2.5547l1.23437-1.3164-1.23437-1.13672v-2.21094l3.6289 3.34766.8086 2.95703.98047 1.48047 2.5039 4.4375.95313.1914 4.4414.63673 4.25 3.60937.1875.14844 4.4375 3.65625.71094.63672 3.72656 1.2539 3.51563 3.1836.92188 1.03125 3.07812 3.40625-.83984 4.4375-2.23828 1.82812-4.4375-.03515-4.4375.73828-4.4375 1.6289-.04297.28125-2.39453 4.4375-2 1.28906-2.67579-1.28906-1.76562-.20703-4.4375-.23828-4.4375-.64453-4.4375-.34375-4.4414-.3711-4.4375-1.73437-1.21485-.89844-2.08984-4.4414 1.59765-4.4375-2.73047-1.52735-4.4375-.76562-2.96484-2.14453-1.05469-4.4375-.42187-1.37891-3.3086-3.0625-1.1289-3.72266-4.4375 1.02344"/><path fill="#00d4fc" fill-rule="evenodd" d="M177.40625 409.3164l-.92578-4.4414 3.02734-2.9336 1.5625-1.5039 2.875-4.30469.14063-.13281 4.29687-1.58594v1.57813l-.02734.00781-4.41016 4.26953-.11328.16797-4.32422 4.15234-.29687.28516.11719 4.4414.17968.34766 4.4375 2.74219 3.78906 1.34766.64844.19921 3.53906 4.23829.89844 1.25 1.54688 3.1875 2.89453 3.82421 1.80078.6172 2.63672.58202 4.4375 1.50782 4.4375.41015 4.4414.48828 2.75782-2.98828.36719-4.4414 1.3125-1.60547 4.4375.21484 4.4375-1.57031 2.48046-1.47656-2.48047-2.89454-.3125-1.54296-4.125-3.34375-2.15625-1.09375-2.28125-2.14454-2.89453-2.29687-1.54297-1.3125-4.4414-1.70703-4.4375-.5586-2.6211-.85937-1.8164-.9336-3.49219.9336 3.49219 1.20313 1.36719 3.23437-1.3672 2.73047-4.4375-2.04297-1.0703-.6875.88672-4.4375-4.25782-2.5L188.39453 396l-.01172-.00781v-1.57813L189.91406 396l2.90625 1.27344 4.4414-.53516v6.33985l-.39062 1.79687.39063.25 4.4375.76172.50781-1.01172-.50781-1.19531-4.4375-.60156v-6.33985l4.4375 1.1875 4.4375 1.84766.44531.66406 3.99219.80469 4.4414 1.17187 2.89844 2.46094 1.53906 1.22266 3.42579 3.21875 1.01172.51171 4.4375 2.77344 1.27343 1.15235 3.16406 3.53906.8125.89844-.8125 1.65234-4.4375 1.64063-4.4375.78906-4.4375.07812-.22656.27735-.63672 4.4414-3.57422 3.8711-4.4414-.50782-4.4375-.32421-4.4375-1.07422-4.4375-.71485-4.4414-.5625-1.41016-.6875-3.02735-3.59765-.5-.84375.5-1.20704 1.14063-3.23046-1.14063-1.3672-4.4375-1.98827-3.83594-1.08203-.60156-.34766-2.10156-4.08984"/><path fill="#00e8fc" fill-rule="evenodd" d="M179.50781 371.26563l-1.76562-1.89454 1.76562-2.64843 3.51953-1.78907.91797-1.30859v2.48828l-3.89453 3.25781 3.89453 4.07422 2.51953-4.07422-2.51953-3.2578V363.625l.8086 1.3086 2.74609 4.4375-1.19531 4.4375-2.35938 1.97656-2.08594-1.97657-2.35156-2.54296"/><path fill="#00c4fc" fill-rule="evenodd" d="M179.32813 409.3164l-.1172-4.4414.29688-.28516 4.32422-4.15234.11328-.16797L188.35547 396l.02734-.00781.01172.00781 4.42578 1.9375v.66406l-4.4375.38672-1.48437 1.44922-2.95313 3.1211-1.38672 1.3164 1.38672 3.84766.36328.59375 4.07422 1.90234 2.78516 2.53516 1.65234 2.08593.72266 2.35157 2.4375 4.4375 1.28125 1.6953 4.4375 2.12892 1.44922.61718 2.98828 1.13672 4.4375.4961 4.4414.46875 1.94141-2.10157.09375-4.4414 2.40234-2.9375 4.4375.51171 4.04688-2.01171-.64063-4.4375-3.40625-2.76172-3.30078-1.67578-1.13672-1.07032-4.24609-3.37109-.1914-.16406-4.44141-2.2461-4.4375-.16406-2.20703 2.57422-2.21485 4.4414h-.01953L197.26171 406l-1.75-1.125.4375-4.4375-3.1289-1.83594v-.66406l4.25781 2.5-.88671 4.4375 1.0703.6875 4.4375 2.04297 1.3672-2.73047-1.3672-3.23438-3.49218-1.20312 3.49219-.9336 1.8164.9336 2.6211.85938 4.4375.55859 4.4414 1.70703 1.54297 1.3125 2.89453 2.29688 2.28125 2.14453 2.15625 1.09375 4.125 3.34375.3125 1.54296 2.48047 2.89454-2.48047 1.47656-4.4375 1.57031-4.4375-.21484-1.3125 1.60547-.36718 4.4414-2.75781 2.98828-4.44141-.48828-4.4375-.41015-4.4375-1.50782-2.63672-.58203-1.80078-.61719-2.89453-3.82421-1.54688-3.1875-.89844-1.25-3.53906-4.23829-.64844-.19921-3.78906-1.34766-4.4375-2.74219-.17969-.34765"/><path fill="#00d4fc" fill-rule="evenodd" d="M183.94531 373.44531l-3.89453-4.07422 3.89453-3.2578v1.33593l-2.29687 1.92187 2.29687 2.40235 1.48828-2.40235-1.48828-1.92187v-1.33594l2.51953 3.25781-2.51953 4.07422"/><path fill="#00c4fc" fill-rule="evenodd" d="M183.94531 371.77344l-2.29687-2.40235 2.29687-1.92187v1.33594l-.69922.58593.69922.73047.45313-.73047-.45313-.58593v-1.33594l1.48828 1.92187-1.48828 2.40235"/><path fill="#00b8fc" fill-rule="evenodd" d="M183.94531 408.72266l-1.38672-3.84766 1.38672-1.3164 2.95313-3.1211 1.48437-1.44922 4.4375-.38672v.66406l-3.42969 1.17188-1.0078 2.25-2.03126 2.1875 2.03125 2.77734.76953 1.66407 3.66797 3.3828.19922 1.0547 1.67969 4.4375 2.5625 4.0625.32031.375 4.11719 2.76953 3.94531 1.67187.49219.1836 4.4375.58203 4.4414.45312 1.125-1.21875-.17578-4.4414 3.48828-4.26954 4.4375.8086 1.96485-.97656.72266-4.4375-2.6875-2.1797-4.4375-2.2578h-.00782l-4.42969-3.48438-1.0039-.95703-3.4375-1.79688-4.4375.22657-1.34766 1.57031 1.34766 4.21484.09766.22657-.09766.03906-4.4375.75-.58594-.78906-3.85156-2.87891-2.4336-1.5625-.01171-4.4375-1.9961-1.17188v-.66406l3.1289 1.83594-.4375 4.4375 1.75 1.125 4.4336 3.3164h.01953l2.21485-4.4414 2.20703-2.57422 4.4375.16406 4.4414 2.2461.19141.16406 4.2461 3.3711 1.13671 1.0703 3.30078 1.67579 3.40625 2.76172.64063 4.4375-4.04688 2.01171-4.4375-.51171-2.40234 2.9375-.09375 4.4414-1.9414 2.10156-4.44141-.46875-4.4375-.49609-2.98828-1.13672-1.44922-.61719-4.4375-2.1289-1.28125-1.69531-2.4375-4.4375-.72266-2.35157-1.65234-2.08593-2.78516-2.53516-4.07422-1.90234-.36328-.59375m0-38.6211l-.69922-.73047.69922-.58593.45313.58593-.45313.73047"/><path fill="#00a8fc" fill-rule="evenodd" d="M188.38281 407.65234l-2.03125-2.77734 2.03125-2.1875 1.00781-2.25 3.4297-1.17188v.66797l-1.48438.50391-2.05078 4.4375 2.41406 4.4414 1.1211 1.03126.63671 3.40625 2.39844 4.4375 1.40625 2.23046 1.89453 2.20704 2.54297 1.71093 4.4375 2.07422 4.4375.57422 1.01562.08203 3.42578.33203.3086-.33203-.3086-3.33984-.08984-1.10156.08984-.32813 2.84766-4.10937 1.58984-.1836 4.4375.09375 1.96875-4.34765-1.96875-1.59766-4.4375-2.63281-1.42578-.20703-3.01172-2.3711-2.17187-2.07031-2.26953-1.1875-4.4375.6211-.48438.5664.48438 1.52344 1.26953 2.91797-1.26953.5039-4.4375 1.07422-1.17188-1.57812-3.26562-2.44141-3.11328-2-.46485-4.4375-.86328-.5039v-.66798l1.9961 1.17188.01172 4.4375 2.43359 1.5625 3.85156 2.8789.58594.78907 4.4375-.75.09766-.03906-.09766-.22657-1.34766-4.21484 1.34766-1.57031 4.4375-.22656 3.4375 1.79687 1.0039.95703 4.4297 3.48438h.0078l4.4375 2.2578 2.6875 2.1797-.72265 4.4375-1.96484.97656-4.4375-.8086-3.48829 4.26954.17578 4.4414-1.125 1.21875-4.4414-.45312-4.4375-.58203-.49219-.1836-3.94531-1.67187-4.11719-2.76953-.32031-.375-2.5625-4.0625-1.67969-4.4375-.19922-1.0547-3.66797-3.3828-.76953-1.66407"/><path fill="#009800" fill-rule="evenodd" d="M191.69922 409.3164l-2.41406-4.4414 2.05078-4.4375 1.48437-.5039v1.39062l-1.72265 3.55078 1.72265 2.79297.48438 1.64844.58984 4.4375 3.11328 4.4375.2539.39843 3.46876 4.03907.96875.65234 4.4375 2.32031 4.4375.6914 3.65625-3.66405.78516-2.95313 1.02734-1.48437 3.41016-.39454 4.4375-1.28125 1.25-2.76171-1.25-1.01563-4.4375-3.0039-2.84375-.41797-1.59375-1.25391-3.33985-3.1875-1.10156-.57422-3.03516.57422 1.03906 4.4414-2.4414.96876-4.4375 1.39453-1.75781-2.36328-2.6797-2.00391-3.79296-2.4375-.64844-3.55078v-1.39063l.86328.50391.46485 4.4375 3.11328 2 3.26562 2.4414 1.17188 1.57813 4.4375-1.07422 1.26953-.5039-1.26953-2.91797-.48438-1.52344.48438-.5664 4.4375-.6211 2.26953 1.1875 2.17188 2.07031 3.01171 2.3711 1.42578.20703 4.4375 2.63281 1.96875 1.59766-1.96875 4.34765-4.4375-.09375-1.58984.1836-2.84766 4.10937-.08984.32813.08984 1.10156.3086 3.33984-.3086.33203-3.42578-.33203-1.01562-.08203-4.4375-.57422-4.4375-2.07422-2.54297-1.71093-1.89453-2.20704-1.40625-2.23046-2.39844-4.4375-.63672-3.40625-1.1211-1.03125"/><path fill="#00e8fc" fill-rule="evenodd" d="M192.33984 382.6836l-3.02343-4.4375 3.5039-4.17579v1.32422l-2.39453 2.85156 2.39453 3.12891 4.4414 1.17578 4.4375-4.30469-4.4375-2.70703-4.4414-.14453v-1.32422l4.4414.5 4.4375 1.42578 2.4922 2.25-2.4922 3.40625-1.10546 1.03125-3.33203 3.3711-4.4414-2.94922-.48048-.42188"/><path fill="#00d4fc" fill-rule="evenodd" d="M192.82031 381.375l-2.39453-3.1289 2.39453-2.85157 4.4414.14453v.96485l-4.4414.21484-1.28125 1.52734 1.28125 1.67579 4.4414 1.09375 2.85157-2.76954-2.85156-1.74218v-.96485l4.4375 2.70703-4.4375 4.3047-4.4414-1.17579"/><path fill="#00ac00" fill-rule="evenodd" d="M192.82031 407.66797l-1.72265-2.79297 1.72265-3.55078.64844 3.55078 3.79297 2.4375 2.67969 2.0039 1.7578 2.36329 4.4375-1.39453 2.44142-.96875-1.03907-4.44141 3.03516-.57422v.91406l-.82813 4.10157-3.60937 1.43359-4.4375 1.71875-2.34375-3.15234-2.09375-1.56641-3.09375 1.5664.16797 4.4375 2.92578 3.97266.32812.46485 4.10938 4.26953.5625.16797 3.875 2.16015 4.4375.80469 2.96094-2.96484.98828-4.4375.49219-.0625 4.4375-.53907 4.4375-2.66015.53125-1.17578-.53125-.4336-4.4375-3.3789-4.26172-.625-.17578-.14063-4.44141-3.96094v-.91406l1.10156.57422 3.33984 3.1875 1.59375 1.2539 2.84375.41798 4.4375 3.0039 1.25 1.01563-1.25 2.76171-4.4375 1.28125-3.41015.39454-1.02734 1.48437-.78516 2.95313-3.65625 3.66406-4.4375-.6914-4.4375-2.32032-.96875-.65234-3.46875-4.03907-.2539-.39843-3.11329-4.4375-.58984-4.4375-.48438-1.64844"/><path fill="#00c4fc" fill-rule="evenodd" d="M192.82031 379.92188l-1.28125-1.67579 1.28125-1.52734 4.4414-.21484v.96875l-4.4414.5703-.16797.20313.16797.22266 4.4414 1.00781 1.26563-1.23047-1.26562-.77343v-.96875l2.85156 1.74218-2.85156 2.76954-4.4414-1.09375"/><path fill="#00b8fc" fill-rule="evenodd" d="M192.82031 378.46875l-.16797-.22266.16797-.20312 4.4414-.57031 1.26563.77343-1.26562 1.23047-4.4414-1.00781"/><path fill="#00c800" fill-rule="evenodd" d="M194.33594 413.7539l-.16797-4.4375 3.09375-1.5664v.8711l-1.36719.6953-.6836 4.4375 2.05079 2.78126 1.16797 1.65625 3.26953 3.39843 3.47656 1.03907.96094.53515 4.4375 1.03516 1.5664-1.57031.12891-4.4375 2.7461-.34766 4.4375-.67578 4.11718-3.41406-4.11719-3.39454-4.4375-.77343-4.4414.05469-4.4375 2.04296-4.09766 2.07032-.33984.19921-.32813-.19921-3.18359-4.4375-.92578-.69532V407.75l2.09375 1.5664 2.34375 3.15235 4.4375-1.71875 3.60937-1.4336.82813-4.10156 4.4414 3.96094.17579.14063 4.26172.625 4.4375 3.3789.53125.4336-.53125 1.17578-4.4375 2.66015-4.4375.53907-.4922.0625-.98827 4.4375-2.96094 2.96484-4.4375-.80469-3.875-2.16015-.5625-.16797-4.10938-4.26953-.32812-.46485-2.92578-3.97265"/><path fill="#10cc00" fill-rule="evenodd" d="M197.26172 416.53516l-2.05078-2.78125.6836-4.4375 1.36718-.69532.92578.69532 3.1836 4.4375.32812.19921.33984-.19921 4.09766-2.07032 4.4375-2.04296 4.4414-.0547v.28907l-4.4414.27344-4.4375 2.46875-2.2539 1.13672-2.1836 1.28906-2.08984-1.28906-2.34766-3.83985-1.17188 3.83985 1.17188 1.58593 2.00781 2.85157 2.42969 2.52343 4.4375 1.08985 3.7461.82422.6914.17578.17578-.17578-.17578-1.47657-.34766-2.96093.34766-.14844 4.4414-.48047 4.4375-.8125 3.61329-2.9961-3.61328-2.97656-4.4375-.90234v-.28906l4.4375.77344 4.11718 3.39453-4.11719 3.41406-4.4375.67578-2.74609.34766-.1289 4.4375-1.56641 1.5703-4.4375-1.03515-.96094-.53515-3.47656-1.03907-3.26953-3.39843-1.16797-1.65625"/><path fill="#24d000" fill-rule="evenodd" d="M197.26172 415.33984l-1.17188-1.58593 1.17188-3.83985 2.34766 3.83985 2.08984 1.28906 2.1836-1.28906 2.2539-1.13672 4.4375-2.46875 4.4414-.27344v.29297l-4.4414.48828-4.4375 2.89063-.41016.20703-4.02734 2.3789-3.85156-2.3789-.58594-.95704-.29297.95704.29297.39453 2.84766 4.04297 1.58984 1.65234 4.4375.72656 2.69531-2.3789 1.74219-.75391 4.4414-.16016 4.4375-.9453 3.10547-2.57813-3.10547-2.5625-4.4375-1.02344v-.29297l4.4375.90234 3.61329 2.97657-3.61328 2.99609-4.4375.8125-4.44141.48047-.34766.14844.34766 2.96093.17578 1.47657-.17578.17578-.6914-.17578-3.7461-.82422-4.4375-1.08985-2.42969-2.52343-2.00781-2.85157"/><path fill="#00e8fc" fill-rule="evenodd" d="M197.26172 403.07813l-.39063 1.79687.39063.25 4.4375.76172.50781-1.01172-.50781-1.19531-4.4375-.60156"/><path fill="#3cd800" fill-rule="evenodd" d="M197.26172 414.14844l-.29297-.39453.29297-.95704.58594.95704 3.85156 2.3789 4.02734-2.3789.41016-.20704 4.4375-2.89062 4.4414-.48828v.28906l-4.4414.70703-3.85156 2.58985-.58594 2.01953-4.4375 1.44922-.75.96875.75.77734 4.4375.3711 1.30078-1.14844 3.13672-1.35547 4.4414.15625 4.4375-1.08203 2.60157-2.15625-2.60156-2.14454-4.4375-1.15234v-.28906l4.4375 1.02344 3.10546 2.5625-3.10547 2.57812-4.4375.94531-4.4414.16016-1.74219.7539-2.69531 2.37891-4.4375-.72656-1.58984-1.65234-2.84766-4.04297"/><path fill="#00d4fc" fill-rule="evenodd" d="M201.69922 392.8789l-.99219-1.3164.99219-1.13672 1.23437 1.13672-1.23437 1.3164"/><path fill="#50fcfc" fill-rule="evenodd" d="M201.69922 395.4336l-.9336.5664.9336.34766L204.21875 396l-2.51953-.5664"/><path fill="#54dc00" fill-rule="evenodd" d="M201.69922 418.96875l-.75-.77734.75-.96875 4.4375-1.44922.58594-2.01953 3.85156-2.58985 4.4414-.70703v.28906l-4.4414.92188-3.09766 2.08594 3.09766 2.48046 4.4414.47266 4.4375-1.21484 2.09375-1.73828-2.09375-1.72657-4.4375-1.28125v-.28906l4.4375 1.15235 2.60157 2.14453-2.60156 2.15625-4.4375 1.08203-4.44141-.15625-3.13672 1.35547-1.30078 1.14843-4.4375-.37109"/><path fill="#e8e05c" fill-rule="evenodd" d="M210.57422 416.23438l-3.09766-2.48047 3.09766-2.08594 4.4414-.92188v.28907l-4.4414 1.14062-2.34375 1.57813 2.34375 1.875 4.4414.79296 4.4375-1.35156 1.58985-1.3164-1.58984-1.3125-4.4375-1.40625v-.28907l4.4375 1.28125 2.09375 1.72657-2.09375 1.73828-4.4375 1.21484-4.44141-.47265"/><path fill="#e8d450" fill-rule="evenodd" d="M210.57422 415.6289l-2.34375-1.875 2.34375-1.57812 4.4414-1.14062v.57812l-4.4414 1.57813-.83594.5625.83594.66796 4.4414 1.4336 4.4375-1.6211.57813-.48046-.57813-.47657-4.4375-1.66406v-.57812l4.4375 1.40625 1.58985 1.3125-1.58984 1.3164-4.4375 1.35156-4.44141-.79296"/><path fill="#e8b830" fill-rule="evenodd" d="M210.57422 414.42188l-.83594-.66797.83594-.5625 4.4414-1.57813v.58203l-3.8125 1.5586 3.8125 1.53125 3.82813-1.53125-3.82813-1.5586v-.58203l4.4375 1.66406.57813.47657-.57813.48046-4.4375 1.6211-4.4414-1.4336"/><path fill="#e8a824" fill-rule="evenodd" d="M215.01563 415.28516l-3.8125-1.53125 3.8125-1.5586v.57813l-2.39454.98047 2.39453.96093 2.40235-.96093-2.40234-.98047v-.57813l3.82812 1.5586-3.82813 1.53125"/><path fill="#d87c08" fill-rule="evenodd" d="M215.01563 414.71484l-2.39454-.96093 2.39453-.98047v.57812l-.98046.40235.98047.39062.98046-.39062-.98047-.40235v-.57812l2.40235.98047-2.40234.96093"/><path fill="#fc4444" fill-rule="evenodd" d="M215.01563 414.14453l-.98047-.39062.98047-.40235.98046.40235-.98047.39062"/><path fill="#50fcfc" fill-rule="evenodd" d="M219.45313 396.83594L216.80077 396l2.65234-.60156 4.4375-1.28516L226.65625 396l-2.76563 2.14453-4.4375-1.3086m13.3125-1.83202l-3.72656-3.44141 3.72656-3.34766v1.72657l-1.80078 1.62109 1.80078 1.66406 2-1.66406-2-1.6211v-1.72656l4.13282 3.34766-4.13281 3.4414"/><path fill="#00e8fc" fill-rule="evenodd" d="M232.76563 393.22656l-1.80079-1.66406 1.80078-1.6211 2 1.6211-2 1.66406"/><path fill="#50fcfc" fill-rule="evenodd" d="M250.51953 420.29297l-2.78516-2.10156 2.78516-4.07813 4.4375 1.60156 4.03125 2.47657-4.03125 2.09375-4.4375.0078m0-36.12108l-1.47266-1.48829 1.47266-1.61328 2.76172 1.61328-2.76172 1.48829m22.1914-27.54297l-.39062-.57422.39063-.42969 1.39062.42969-1.39062.57422m8.8789-1.9375l-4.15625-3.07422 4.15625-4.17188.6836-.26562 3.7539-2.11328v3.13671l-4.4375 2.69532-.71484.71875.71484.52734 4.4375 2.46875 2.39063-2.9961-2.39063-3.41406v-3.13671l1.72266 2.11328 1.91016 4.4375-3.1211 4.4375-.51172.46094-.55468-.46094-3.88282-1.36328"/><path fill="#00e8fc" fill-rule="evenodd" d="M281.58984 352.14453l-.71484-.52734.71484-.71875 4.4375-2.69531v2.95703l-.66406.45703.66406.39844.31641-.39844-.3164-.45703v-2.95704l2.39062 3.41407-2.39063 2.9961-4.4375-2.46876"/><path fill="#00d4fc" fill-rule="evenodd" d="M286.02734 352.01563l-.66406-.39844.66406-.45703.31641.45703-.3164.39844"/><path fill="#50fcfc" fill-rule="evenodd" d="M294.90234 374.48828l-1.96093-.67969 1.96093-1.92578 1.10938 1.92578-1.10938.6797m8.87891-21.16017l-1.08984-1.71093 1.08984-2.15235.52344-2.28515 3.91406-3.49219v2.13281l-1.51953 1.35938 1.51953 2.0664 1.91797-2.0664-1.91797-1.35938v-2.13281l4.4375 2.02734 4.4414-.11718 2.66016 1.58203-2.66015.6875-4.44141 1.03906-2.16406 2.71094-2.27344 1.58594-4.4375.125"/><path fill="#00e8fc" fill-rule="evenodd" d="M308.21875 349.2461l-1.51953-2.06641 1.51953-1.35938 1.91797 1.35938-1.91797 2.0664"/><path fill="#50fcfc" fill-rule="evenodd" d="M325.97266 457.75781l-4.17579-4.0586 4.17579-3.55077 1.1953-.88672 3.2422-2.79688 4.4375-.93359 3.49609-.71094.94531-.63672 2.0664.63672 2.3711.30078 1.96485-.30078-1.22657-4.4375 3.69922-2.69531 4.4375-.875 4.4414.96484 2.50782 2.60547 1.92969.98047 4.4375-.47656.52734-.5039 3.91016-4.04298v1.16407l-2.78516 2.8789-1.65234 1.58203-4.4375 1.14063-4.4375-1.80469-1.13672-.91797-3.30469-1.5664-2.48437 1.5664 2.48437 2.52344 1.625 1.91406-1.625 3.40625-4.4375-.28906-4.4375-.04688-4.4375-.24218-4.4414-.07422-3.22657 1.6875-1.21093.46484-4.4375 3.91406-.07032.0586.07032.0664 2.14062 4.3711 2.29688 1.85547 4.4375.41797 4.4414 1.84765.63281.3164 3.8047 2.0547 4.4375.28125 4.4375-.02344 4.4414.84765 4.4375.10547 3.26172 1.17579 1.17578.91406 4.4375-.71094.40625-.20313 4.03125-.8203 4.4414.05468 3.89454-3.67578-.78516-4.4375 1.32813-3.5664.91796-.8711-.91796-1.03125-1.90235-3.40625-2.53515-2.45703-.66797-1.98438-3.77344-3.79687-1.34766-.64063-3.08984-2.8789v-1.16407l4.33984 4.04297.09766.04688 4.36328 4.39062.07813.23047 4.34765 4.21094.08985.16015 3.80859 4.27735-3.8086 3.61328-.30859.82422.3086 1.75781 4.4375-.47265 1.6875 3.15234-1.6875 2.64062-4.08985 1.80079-.34765.19921-4.4375 1.09766-4.44141-.10547-4.4375 1.64453-4.4375.33985-4.07422-3.17579-.36328-.1328-4.4375.05468-4.4414-.07422-4.4375-.51172-4.4375-.1914-4.4375-1.08985-2.9922-2.4961-1.44921-.58983-4.4375-.41407-4.25-3.4336-.1875-.3789m0-122.39062l-1.63282-1.5039 1.63282-2.625 3.67968 2.625-3.67968 1.5039"/><path fill="#00e8fc" fill-rule="evenodd" d="M325.97266 453.76563l-.07032-.06641.07032-.0586 4.4375-3.91406 1.21093-.46484 3.22657-1.6875v3.39453l-4.4375 1.25781-1.65235 1.47266 1.65235 2.95703 4.4375.85938.67187.62109 3.76953 1.7539 4.4375.61329 4.4375-2.08204.01563-.28515-.01563-.00781-4.4375-1.2461-2.91406-3.1836-1.52344-1.34374-4.4414-1.38672v-3.39453l4.4414.07422 4.4375.24219 4.4375.04687 4.4375.28906 1.625-3.40625-1.625-1.91406-2.48437-2.52344 2.48437-1.5664 3.30469 1.5664 1.13672.91797 4.4375 1.80469 4.4375-1.14063 1.65234-1.58203 2.78516-2.8789v1.9453l-.90235.9336-3.53515 3.3789-2.61719 1.0586 2.61719 2.0039V451l-4.4375 2.46875-1.29688.23047 1.29688.375 4.4375 1.1289 4.4375-1.12109.39453-.38281-.39453-.38672-4.4375-2.3125v-4.17578l4.4375 2.29687 4.4375-1.11718v1.11718l-.51172.14063.51172.51953.57031-.51953-.57031-.14063v-1.11718l2.79297-3.1836-2.79297-2.8086-3.4336-1.6289-1.0039-.9336v-1.9453l3.08984 2.8789 1.34766.64063 3.77344 3.79687.66796 1.98438v3.66406l-3.85546 3.23047-.58594.64844-4.03906 3.78906-.39844.125-4.4375.4336-4.4375.93359-4.4375.42968-2.92188 2.51563 2.92188 1.15234 4.4375.3711 4.4375 1.01562 4.4375.0039 4.4375-.6875 4.4414.2422 2.21875-2.09766-.8125-4.4375.12891-4.4375-1.53515-3.23047v-3.66406l2.53515 2.45703 1.90235 3.40625.91796 1.03125-.91796.8711-1.32813 3.5664.78516 4.4375-3.89454 3.67578-4.4414-.05469-4.03125.82031-.40625.20313-4.4375.71094-1.17578-.91406-3.26172-1.17579-4.4375-.10546-4.4414-.84766-4.4375.02344-4.4375-.28125-3.8047-2.0547-.6328-.3164-4.44141-1.84765-4.4375-.41797-2.29688-1.85547-2.14062-4.3711"/><path fill="#00d4fc" fill-rule="evenodd" d="M330.41016 456.65625l-1.65235-2.95703 1.65235-1.47266 4.4375-1.25781 4.4414 1.38672 1.52344 1.34375 2.91406 3.1836 4.4375 1.24609.01563.0078-.01563.28517-4.4375 2.08203-4.4375-.61329-3.76953-1.7539-.67187-.6211-4.4375-.85937"/><path fill="#50fcfc" fill-rule="evenodd" d="M339.28906 429.82422l-3.17187-2.7539 3.17187-3.34376 3.27735 3.34375-3.27735 2.7539m0-99.125l-1.70312-1.27343 1.70312-1.17578 4.4375-2.60156 3.48828 3.77734-3.02343 4.4375-.46485.27735-.14453-.27735-4.29297-3.16406"/><path fill="#00d4fc" fill-rule="evenodd" d="M357.04297 463.72656l-2.92188-1.15234 2.92188-2.51563 4.4375-.42968 4.4375-.9336 4.4375-.4336.39844-.125 4.03906-3.78905.58594-.64844 3.85546-3.23047v9.20313l-4.4414 2.5703-4.4375-.60937-4.4375.90235-.35547.03906.35547.02734 4.4375.53125 4.4375-.46875 4.4414.42578.54297-.51562-.54296-2.90235v-9.20312l1.53515 3.23047-.1289 4.4375.8125 4.4375-2.21875 2.09765-4.44141-.24218-4.4375.6875-4.4375-.0039-4.4375-1.01563-4.4375-.3711"/><path fill="#50fcfc" fill-rule="evenodd" d="M361.48047 453.46875l-1.29688.23047 1.29688.375 4.4375 1.1289 4.4375-1.12109.39453-.38281-.39453-.38672-4.4375-2.3125-4.4375 2.46875"/><path fill="#00d4fc" fill-rule="evenodd" d="M365.91797 446.82422l-2.61719-2.0039 2.61719-1.0586 3.53515-3.3789.90235-.9336v3l-2.625 2.3711 2.625 1.60546 4.4375.46094 1.8125-2.0664L374.79297 443l-4.4375-.55078v-3l1.0039.9336 3.4336 1.6289 2.79297 2.8086-2.79297 3.18359-4.4375 1.11718-4.4375-2.29687"/><path fill="#00c4fc" fill-rule="evenodd" d="M365.91797 462.60156l-.35547-.02734.35547-.03906 4.4375-.90235 4.4375.60938 4.4414-2.57031.54297 2.90234-.54296.51562-4.44141-.42578-4.4375.46875-4.4375-.53125m4.4375-16.17578l-2.625-1.60547 2.625-2.3711 4.4375.55079v.98438l-3 .83593 3 .94922.83203-.94922-.83203-.83594V443l1.8125 1.82031-1.8125 2.0664-4.4375-.46093"/><path fill="#00b8fc" fill-rule="evenodd" d="M374.79297 445.76953l-3-.94922 3-.83594.83203.83594-.83203.94922"/><path fill="#50fcfc" fill-rule="evenodd" d="M374.79297 449.1211l-.51172.14062.51172.51953.57031-.51953-.57031-.14063m4.4414-9.76562l-1.17187-3.41016 1.17188-2.01953.17578-2.41797 4.26171-3.63281v1.89453l-2.03515 1.73828 1.97265 4.4375.0625.05078 4.4375 1.85938 1.57032-1.91016-1.57031-1.70312-2.69141-2.73438-1.7461-1.73828V427.875l3.65625 3.63281.78125.79297 3.35938 3.64453-3.35938 4.09375-4.4375-.33594-4.4375-.34765"/><path fill="#00e8fc" fill-rule="evenodd" d="M383.60938 435.94531l-1.97266-4.4375 2.03515-1.73828 1.7461 1.73828 2.6914 2.73438 1.57032 1.70312-1.57031 1.91016-4.4375-1.85938-.0625-.05078"/><path fill="#50fcfc" fill-rule="evenodd" d="M392.45313 449.26172l-3.48047-4.4414 3.57421-2.96485 2.81641 2.96484-2.66797 4.4414-.14844.16017-.09375-.16016m4.53125-51.53125L395.25392 396l1.73046-1.73047L399.54688 396l-2.5625 1.73047m-.11328 33.77734l-1.46484-4.4375 1.57813-1.53906 4.4414-1.13672 2.4961 2.67578 1.9414.40625v.89453l-4.4375.54688-1.63672 2.58984 1.63672 3.7461.13281.6914 1.33985 4.4375-1.47266 2.85156-.60156 1.58594.60156 1.22656.73438-1.22656 3.70312-2.58203 4.16016-1.85547.27734-.07031 1.8125.07031 2.625.20703.22656-.20703-.22656-.22265-1.35547-4.21485-3.08203-3.0664-1.20312-1.3711-3.23438-3.13672v-.89453l4.15625 4.03125.28125.32031 4.13672 4.1172.30078.9414 3.53125 3.4961.91016 2.35156 2.375 2.08593-2.375 1.5-1.71485-1.5-2.72656-1.17969-4.4375-.39453-4.3086 1.57422-.1289.15625-2.11328 4.28516-2.32422 3.1836-3.10547-3.1836-.57031-4.4414.32422-4.4375.41406-4.4375-1.5039-4.3086-.11329-.1289"/><path fill="#00e8fc" fill-rule="evenodd" d="M401.42578 435.2539l-1.63672-3.74609 1.63672-2.58984 4.4375-.54688v1.4922l-2.78515 1.64452.5625 4.4375 2.22265 2.8789 4.4375-1.0039 1.32031-1.875-1.3203-1.3164-2.7422-3.1211-1.6953-1.64453v-1.49219l3.23437 3.13672 1.20312 1.3711 3.08203 3.0664 1.35547 4.21485.22656.22265-.22656.20703-2.625-.20703-1.8125-.07031-.27734.07031-4.16016 1.85547-3.70312 2.58203-.73438 1.22656-.60156-1.22656.60156-1.58594 1.47266-2.85156-1.33985-4.4375-.1328-.6914"/><path fill="#00d4fc" fill-rule="evenodd" d="M403.64063 435.94531l-.5625-4.4375 2.78515-1.64453v1.49219l-.25781.15234.1211 4.4375.13671.17578.92578-.17578-.76953-4.4375-.15625-.15234v-1.49219l1.69531 1.64453 2.7422 3.1211 1.3203 1.3164-1.3203 1.875-4.4375 1.0039-2.22267-2.8789"/><path fill="#00c4fc" fill-rule="evenodd" d="M405.72656 435.94531l-.1211-4.4375.25782-.15234.15625.15234.76953 4.4375-.92578.17578-.13672-.17578"/><path fill="#50fcfc" fill-rule="evenodd" d="M412.65625 400.4375L411.91406 396l2.82422-2.74219v2.66406l-.07812.07813.07812.25781.1211-.25781-.1211-.07813v-2.66406L418.83984 396l-2.10937 4.4375-1.01172 4.4375 3.46094 1.52734 2.34375-1.52734.20312-4.4375L419.21875 396l4.39844-4.29297v.45313L419.68359 396l3.9336 4.17578L427.47266 396l-3.85547-3.83984v-.45313L427.92969 396l-2.46485 4.4375 2.58985 1.85938 4.4375.53906 3.71875-2.39844.71875-.71875 4.4414-2.85547v1.92969l-2.19921 1.64453-1.95313 4.4375-.28906.14844-4.4375 1.65625-4.4375-1.41797-4.4375.6836-4.4375 3.1875-.42578.18359.42578.41796 2.6836 4.01954-1.08204 4.4375 2.83594 2.6289 4.4375.41797 4.4375-.57031 4.22656-2.47656.21094-.16407 4.4414-2.59765 1.75391-1.67578 1.63281-4.4375-1.60937-4.44141-.27344-4.4375-1.5039-1.64453v-1.92969l3.26562 3.57422.16015 4.4375 1.01172 2.19922 2.17579 2.24219-2.17579 2.54296-.85156 1.89454-3.58594 3.42968-1.73828 1.00782-2.70312 2.57812-4.4375 1.09375-4.4375.49219-1.09375.27344-3.34375 2.35546-2.57813-2.35546-1.85937-1.79688-2.59766-2.64062.97656-4.4375-2.8203-2.78907-1.58985-1.64843.3711-4.44141-.86329-4.4375"/><path fill="#00e8fc" fill-rule="evenodd" d="M414.73828 396.25781L414.66016 396l.07812-.07813.1211.07813-.1211.25781m4.4414 13.47656l-.42577-.41796.42578-.1836 4.4375-3.1875 4.4375-.6836 4.4375 1.41798 4.4375-1.65625v3.23437l-1.53125 1.0586-2.90625 1.96875-4.4375.14843-1.71875 2.32032-.27735 4.4375 1.9961 1.18359 4.4375-.69922.83203-.48437 3.60547-2.80079 2.63281-1.63671-.20313-4.4375-2.42968-1.0586v-3.23437l.28906-.14844 1.95313-4.4375 2.19921-1.64453 1.50391 1.64453.27344 4.4375 1.60937 4.4414-1.63281 4.4375-1.7539 1.67579-4.44141 2.59765-.21094.16407-4.22656 2.47656-4.4375.57031-4.4375-.41797-2.83594-2.6289 1.08203-4.4375-2.6836-4.01954m4.4375-9.55859L419.6836 396l3.9336-3.83984v.7578L420.46094 396l3.15625 3.35156L426.71094 396l-3.09375-3.08203v-.75781L427.47266 396l-3.85547 4.17578"/><path fill="#00d4fc" fill-rule="evenodd" d="M423.61719 399.35156L420.46094 396l3.15625-3.08203v.76172L421.23829 396l2.3789 2.52344L425.94922 396l-2.33203-2.32031v-.76172L426.71094 396l-3.09375 3.35156"/><path fill="#00c4fc" fill-rule="evenodd" d="M423.61719 398.52344L421.23829 396l2.3789-2.32031v.75781L422.01563 396l1.60156 1.69922L425.18359 396l-1.5664-1.5625v-.75781L425.94922 396l-2.33203 2.52344"/><path fill="#00b8fc" fill-rule="evenodd" d="M423.61719 397.69922L422.01563 396l1.60156-1.5625v.75781l-.82422.80469.82422.875.8086-.875-.8086-.80469v-.75781l1.5664 1.5625-1.5664 1.69922"/><path fill="#00a8fc" fill-rule="evenodd" d="M423.61719 396.875l-.82422-.875.82422-.80469v.75781L423.5703 396l.04688.05078.04297-.05078-.04297-.04688v-.7578l.8086.80468-.8086.875"/><path fill="#009800" fill-rule="evenodd" d="M423.61719 396.05078L423.5703 396l.04688-.04688.04297.04688-.04297.05078"/><path fill="#00d4fc" fill-rule="evenodd" d="M428.05469 419.375l-1.9961-1.1836.27735-4.4375 1.71875-2.3203 4.4375-.14844 2.90625-1.96875 1.53125-1.0586 2.42969 1.0586.20312 4.4375-2.63281 1.63671-3.60547 2.80079-.83203.48437-4.4375.69922"/><path fill="#50fcfc" fill-rule="evenodd" d="M450.2461 430.5664l-2.26563-3.49609 2.26562-2.19531 2.25782 2.19531-2.25782 3.4961"/><g clip-path="url(#c)"><path fill="#fff" fill-opacity="0" fill-rule="evenodd" d="M467.9961 480.32813H468V311.67188h-.0039H468v168.65625h-.0039"/></g><path fill="#fff" fill-opacity="0" fill-rule="evenodd" d="M377.8789 461.8789l4.66407 3.51563 5.9961-7.95312-4.66407-3.51563-5.9961 7.95313"/><path fill-rule="evenodd" d="M385.5664 457.4961l.40626.30468-3.78907 5.02735-.6289-.47266 2.70312-3.58594-1.10937-.83594.33594-.4414.48437.28515.23438.10547.23828.0664.24609.01173.26563-.0625.28906-.15235.32422-.25"/><path fill="#fff" fill-opacity="0" fill-rule="evenodd" d="M185.67578 366.64844l.78125 5.78906 9.8711-1.32813-.77735-5.78906-9.875 1.32813"/><path fill-rule="evenodd" d="M194.19922 369.03125l.0664.5039-6.23828.83985-.10547-.78125 4.45313-.59766-.1875-1.375.55078-.07421.14063.54687.08593.24219.1172.21484.16796.1836.23047.14453.3125.10156.40625.05078"/><path fill="#fff" fill-opacity="0" fill-rule="evenodd" d="M231.38672 416.26953l1.58984 5.6211 9.58594-2.70704-1.58984-5.62109-9.58594 2.70703"/><path fill-rule="evenodd" d="M240.16016 417.42969l.13672.48828-6.0547 1.71094-.21484-.75782 4.32032-1.21875-.37891-1.33593.53516-.15235.21484.51953.1211.23047.14843.19531.1914.15625.25.11329.32032.05468.41016-.0039"/><path fill="#fff" fill-opacity="0" fill-rule="evenodd" d="M430.00781 427.45703l5.75-1.02344-1.75-9.80859-5.75 1.02734 1.75 9.8047"/><path fill-rule="evenodd" d="M432.02734 418.84375l.5-.08984 1.10547 6.1953-.77734.14063-.78516-4.42187-1.36719.24219-.09765-.54688.53906-.16015.23828-.09766.21094-.1289.17578-.17579.13281-.23437.08985-.31641.03515-.40625"/><path fill="#fff" fill-opacity="0" fill-rule="evenodd" d="M213.08203 437.3164l7.42969-2.7578-3.55078-9.5547-7.42969 2.75782 3.55078 9.55469"/><path fill-rule="evenodd" d="M212.4961 428.61719l3.08202-1.14453.25782.6953-2.47266.91798.41016 1.77344.15625-.23047.20703-.21875.27344-.19532.34765-.16406.3125-.08984.34766-.03906.36328.02343.36719.09375.35547.17578.16797.1211.16406.14844.15234.17578.13672.19921.1289.23047.10938.26172.1211.42969.05078.42578-.02735.42188-.10937.40234-.1875.3711-.125.17187-.14844.16015-.17188.14454-.1953.13671-.21485.1172-.24219.10156-.44922.1289-.41015.04297-.3711-.03516-.33203-.10546-.29687-.16407-.26563-.22265-.23437-.26563-.20313-.30078.73438-.27344.15625.1875.16797.16016.17968.1289.1914.09375.19923.0547.20703.01952.21875-.01953.22266-.0625.28515-.13281.24219-.16406.1875-.19922.13281-.22656.08203-.25782.02344-.28906-.03906-.3164-.10156-.34766-.10938-.23828-.14844-.22266-.1836-.19922-.21483-.16015-.2461-.1172-.27734-.05858-.30469.0078-.33203.08594-.30469.14844-.22656.20313-.1875.26953-.19922.35937-.65234.2422-.75782-3.3711"/><g clip-path="url(#d)"><path fill="none" stroke="#000" stroke-linecap="round" stroke-linejoin="round" stroke-miterlimit="10" stroke-width=".5" d="M146.60156 482.6914l-5.20312-4.72656"/></g><g clip-path="url(#e)"><path fill="none" stroke="#000" stroke-linecap="round" stroke-linejoin="round" stroke-miterlimit="10" stroke-width=".5" d="M159.78516 482.82813l-4.9375-5"/></g><g clip-path="url(#f)"><path fill="none" stroke="#000" stroke-linecap="round" stroke-linejoin="round" stroke-miterlimit="10" stroke-width=".5" d="M172.71875 483.15234l-4.17578-5.64843"/></g><g clip-path="url(#g)"><path fill="none" stroke="#000" stroke-linecap="round" stroke-linejoin="round" stroke-miterlimit="10" stroke-width=".5" d="M186.88281 482.2539l-5.875-3.85156"/></g><g clip-path="url(#h)"><path fill="none" stroke="#000" stroke-linecap="round" stroke-linejoin="round" stroke-miterlimit="10" stroke-width=".5" d="M200.46875 481.75781l-6.41797-2.85547"/></g><g clip-path="url(#i)"><path fill="none" stroke="#000" stroke-linecap="round" stroke-linejoin="round" stroke-miterlimit="10" stroke-width=".5" d="M213.66797 481.99219l-6.1875-3.32813"/></g><g clip-path="url(#j)"><path fill="none" stroke="#000" stroke-linecap="round" stroke-linejoin="round" stroke-miterlimit="10" stroke-width=".5" d="M227.13672 481.66797l-6.4961-2.67969"/></g><g clip-path="url(#k)"><path fill="none" stroke="#000" stroke-linecap="round" stroke-linejoin="round" stroke-miterlimit="10" stroke-width=".5" d="M240.35938 481.8789l-6.3086-3.10156"/></g><g clip-path="url(#l)"><path fill="none" stroke="#000" stroke-linecap="round" stroke-linejoin="round" stroke-miterlimit="10" stroke-width=".5" d="M254.0039 480.78516l-6.96874-.91407"/></g><g clip-path="url(#m)"><path fill="none" stroke="#000" stroke-linecap="round" stroke-linejoin="round" stroke-miterlimit="10" stroke-width=".5" d="M254.0039 480.78516l.85938 2.29687"/></g><g clip-path="url(#n)"><path fill="none" stroke="#000" stroke-linecap="round" stroke-linejoin="round" stroke-miterlimit="10" stroke-width=".5" d="M267.3125 479.82031l-6.95313 1.01953"/></g><g clip-path="url(#o)"><path fill="none" stroke="#000" stroke-linecap="round" stroke-linejoin="round" stroke-miterlimit="10" stroke-width=".5" d="M267.3125 479.82031l1.45313 1.97656"/></g><g clip-path="url(#p)"><path fill="none" stroke="#000" stroke-linecap="round" stroke-linejoin="round" stroke-miterlimit="10" stroke-width=".5" d="M280.63281 479.85938l-6.96484.9375"/></g><g clip-path="url(#q)"><path fill="none" stroke="#000" stroke-linecap="round" stroke-linejoin="round" stroke-miterlimit="10" stroke-width=".5" d="M280.63281 479.85938l1.42969 1.99218"/></g><g clip-path="url(#r)"><path fill="none" stroke="#000" stroke-linecap="round" stroke-linejoin="round" stroke-miterlimit="10" stroke-width=".5" d="M293.91016 479.64063l-6.89063 1.375"/></g><g clip-path="url(#s)"><path fill="none" stroke="#000" stroke-linecap="round" stroke-linejoin="round" stroke-miterlimit="10" stroke-width=".5" d="M293.91016 479.64063l1.55468 1.90234"/></g><g clip-path="url(#t)"><path fill="none" stroke="#000" stroke-linecap="round" stroke-linejoin="round" stroke-miterlimit="10" stroke-width=".5" d="M307.19922 479.51953l-6.83594 1.61719"/></g><g clip-path="url(#u)"><path fill="none" stroke="#000" stroke-linecap="round" stroke-linejoin="round" stroke-miterlimit="10" stroke-width=".5" d="M307.19922 479.51953l1.6211 1.84375"/></g><g clip-path="url(#v)"><path fill="none" stroke="#000" stroke-linecap="round" stroke-linejoin="round" stroke-miterlimit="10" stroke-width=".5" d="M320.34375 478.98828l-6.4961 2.67969"/></g><g clip-path="url(#w)"><path fill="none" stroke="#000" stroke-linecap="round" stroke-linejoin="round" stroke-miterlimit="10" stroke-width=".5" d="M320.34375 478.98828l1.89063 1.5625"/></g><g clip-path="url(#x)"><path fill="none" stroke="#000" stroke-linecap="round" stroke-linejoin="round" stroke-miterlimit="10" stroke-width=".5" d="M333.75 479.23438l-6.67969 2.1875"/></g><g clip-path="url(#y)"><path fill="none" stroke="#000" stroke-linecap="round" stroke-linejoin="round" stroke-miterlimit="10" stroke-width=".5" d="M332.77734 479.55469l.88672.84765"/></g><g clip-path="url(#z)"><path fill="none" stroke="#000" stroke-linecap="round" stroke-linejoin="round" stroke-miterlimit="10" stroke-width=".5" d="M346.90625 478.83203l-6.35938 2.99219"/></g><g clip-path="url(#A)"><path fill="none" stroke="#000" stroke-linecap="round" stroke-linejoin="round" stroke-miterlimit="10" stroke-width=".5" d="M345.98047 479.26953l.98047.73438"/></g><g clip-path="url(#B)"><path fill="none" stroke="#000" stroke-linecap="round" stroke-linejoin="round" stroke-miterlimit="10" stroke-width=".5" d="M359.45313 477.77344l-4.82422 5.10937"/></g><path fill="none" stroke="#000" stroke-linecap="round" stroke-linejoin="round" stroke-miterlimit="10" stroke-width=".5" d="M358.75 478.51563l1.1836.32812"/><g clip-path="url(#C)"><path fill="none" stroke="#000" stroke-linecap="round" stroke-linejoin="round" stroke-miterlimit="10" stroke-width=".5" d="M373.21875 478.29297l-5.72656 4.07031"/></g><path fill="none" stroke="#000" stroke-linecap="round" stroke-linejoin="round" stroke-miterlimit="10" stroke-width=".5" d="M373.21875 478.29297l2.19531 1.10156"/><g clip-path="url(#D)"><path fill="none" stroke="#000" stroke-linecap="round" stroke-linejoin="round" stroke-miterlimit="10" stroke-width=".5" d="M386.89063 478.92188l-6.4375 2.8164"/></g><g clip-path="url(#E)"><path fill="none" stroke="#000" stroke-linecap="round" stroke-linejoin="round" stroke-miterlimit="10" stroke-width=".5" d="M385.95313 479.33203l.96093.76172"/></g><g clip-path="url(#F)"><path fill="none" stroke="#000" stroke-linecap="round" stroke-linejoin="round" stroke-miterlimit="10" stroke-width=".5" d="M398.65625 477.23828l-3.33984 6.17969"/></g><g clip-path="url(#G)"><path fill="none" stroke="#000" stroke-linecap="round" stroke-linejoin="round" stroke-miterlimit="10" stroke-width=".5" d="M413.80078 480.6289l-7-.59765"/></g><g clip-path="url(#H)"><path fill="none" stroke="#000" stroke-linecap="round" stroke-linejoin="round" stroke-miterlimit="10" stroke-width=".5" d="M426.39453 482.48047l-5.55469-4.30469"/></g><g clip-path="url(#I)"><path fill="none" stroke="#000" stroke-linecap="round" stroke-linejoin="round" stroke-miterlimit="10" stroke-width=".5" d="M439.96094 482.10938l-6.0586-3.5625"/></g><g clip-path="url(#J)"><path fill="none" stroke="#000" stroke-linecap="round" stroke-linejoin="round" stroke-miterlimit="10" stroke-width=".5" d="M452.53516 482.99219l-4.57813-5.32813"/></g><g clip-path="url(#K)"><path fill="none" stroke="#000" stroke-linecap="round" stroke-linejoin="round" stroke-miterlimit="10" stroke-width=".5" d="M466.26563 482.57031l-5.41016-4.48437"/></g><g clip-path="url(#L)"><path fill="none" stroke="#000" stroke-linecap="round" stroke-linejoin="round" stroke-miterlimit="10" stroke-width=".5" d="M146.04688 469.8711l-4.09375-5.71485"/></g><path fill="none" stroke="#000" stroke-linecap="round" stroke-linejoin="round" stroke-miterlimit="10" stroke-width=".5" d="M146.04688 469.8711l-1.08985 2.1953m.49219-3.02734l-.54297 1.09766m15.14063-.91016l-5.46094-4.42578m5.46094 4.42578l-.46875 2.40625m13.57421-2.17187l-5.04297-4.89453m4.3086 4.17968l-.33984 1.1797m15.36328-2.58204l-6.9922-.66016m5.97657.56641l.46875 1.13281m13.79297-2.13672l-6.85547 1.53516m5.85938-1.3125l.79687.9336m13.51563-1.14844l-6.85938 1.51953m6.85938-1.51953l1.59375 1.86328m11.49609-2.54297l-6.41016 2.8789m6.41016-2.8789l1.9414 1.5039m11.42579-1.38671l-6.51172 2.64453m6.51172-2.64453l1.88281 1.57421m11.41797-1.60937l-6.48047 2.71484m6.48047-2.71484l1.89844 1.55469m11.51562-1.28907l-6.67969 2.1836m5.70704-1.86719l.8828.85156m13.2461-1.5625L273.96875 468.5m6.36328-2.97266L282.29297 467m11.42578-1.3125l-6.5039 2.65625m6.5039-2.65625l1.88672 1.57031m11.07422-2.22656l-5.80078 3.96484m4.95703-3.38672l1.08984.56641m12.35547-1.91406l-4.3711 5.5039m4.3711-5.5039l2.41406.44531m8.86328-1.20312l-.29296 7.01953m.25-6l1.10546-.52735m12.78516-.42968l-1.35938 6.89453m1.16016-5.89063l1.17578-.35547m11.5-.71093l.3164 7.01953m-.26952-6l1.0586-.6211m11.41405-.26953l1.91016 6.76172m-1.63281-5.77734l.88672-.84766m11.91015-.0625l2.38672 6.61328m-2.03906-5.64844l.82422-.91015m10.65234.98828l5.3711 4.52734m-4.58985-3.87109l.25781-1.19922m13.32422 5.91406l3.27344-6.21484m11.50781 6.61719l.33985-7.01953m-.28907 5.99609l-1.10937.52344m14.85156.49218l-.61328-7.0039m.52344 5.98437l-1.03125.66797m14.92578.27344l-1.58985-6.84766m15.3047 6.72657l-2.39063-6.60547"/><g clip-path="url(#M)"><path fill="none" stroke="#000" stroke-linecap="round" stroke-linejoin="round" stroke-miterlimit="10" stroke-width=".5" d="M146.38672 456.27734l-4.77344-5.15625"/></g><path fill="none" stroke="#000" stroke-linecap="round" stroke-linejoin="round" stroke-miterlimit="10" stroke-width=".5" d="M146.38672 456.27734l-.80469 2.31641m14.82422-3.22266l-6.1836-3.34375m5.28516 2.85547l-.01172 1.22656m14.57032-3.14843l-6.8711 1.47656m5.8711-1.26172l.78906.9375m13.40234-1.58203l-6.625 2.33594m5.66016-1.9961l.90625.82813m13.00781-1.91797l-5.89062 3.83203m5.89062-3.83203l2.14453 1.1914m11.29688-.97656l-6.14453 3.40625m6.14453-3.40625l2.0586 1.33594m11.24608-1.35156l-6.125 3.4375m6.125-3.4375l2.06641 1.32422m10.75-2.00782l-5.1289 4.8047m5.1289-4.8047l2.32422.79688m11.10547-.66797l-5.35938 4.54297m5.35938-4.54297l2.28125.91016m11.28516-.57422l-5.86329 3.8711m5.01172-3.3086l1.07813.58984m13.24218-.90234l-6.16796 3.3711m5.26953-2.87891l1.02734.67578m12.375-2.16016l-4.54687 5.35547m17.6328-5.53516l-4.08593 5.71485m3.49219-4.88282l1.21484.16407m11.8711-1.4336l-2.44141 6.58985m2.08594-5.6289l1.21484-.16407m10.22266-.86328l2.02734 6.72656m-1.73437-5.75l.87109-.86328m10.5625.88672l5.20312 4.72265m-4.4453-4.03515l.30077-1.1875m12.89844-.05469L359 456.61328m-3.34766-4.98047l.57813-1.08203m10.95312 1.63672l6.34375 3.01953m-5.42187-2.57812l-.05469-1.22657m13.20703-.2578l4.82422 5.10937m-4.1211-4.3672l.39454-1.16015m11.19531 2.23047l6.8711 1.48438m-5.8711-1.26954l-.33203-1.17968m12.66016.91797l6.84765 1.57812m-5.85156-1.34766l-.32031-1.1875m12.54687 1.69922l7.02735.09375m-6.00391-.08203l-.5625-1.08984m13.27344 2.78906l6.1914-3.32812m-5.28906 2.84375l-1.01953-.6836m13.67969 1.5586l5.69922-4.10938m-4.8711 3.51172l-1.10156-.54297m14.59375 2.07422l3.6875-5.98047"/><g clip-path="url(#N)"><path fill="none" stroke="#000" stroke-linecap="round" stroke-linejoin="round" stroke-miterlimit="10" stroke-width=".5" d="M147.26563 441.6836l-6.53125-2.59766"/></g><path fill="none" stroke="#000" stroke-linecap="round" stroke-linejoin="round" stroke-miterlimit="10" stroke-width=".5" d="M146.3164 441.30469l.13282 1.21875m14.34375-1.64453l-6.95703-.9922m5.94531.84767l.41797 1.15625m13.86719-2.23829l-6.8711 1.46485m5.8711-1.2539l.78906.9414m13.46094-1.41016l-6.7422 1.97656m5.76173-1.6875l.85547.875m13.21484-1.74218l-6.28906 3.13671m5.3711-2.67968l1 .71093m12.76952-1.87109l-5.36328 4.54297m4.58203-3.88281l1.14063.45312m12.90625-1.16797l-5.26563 4.65235m5.26563-4.65235l2.29687.85938m11.03906-.83594l-5.30859 4.60156m5.3086-4.60156l2.28906.88281m10.0039-1.6914l-3.26172 6.22265m2.78516-5.3203l1.22656-.00392m14.01953.53516l-6.17578 3.35156m5.27735-2.86328l1.02343.67578m12.27344-2.25l-4.33984 5.52735m16.92578-5.96875l-2.8789 6.41015m15.77734-3.20703l-.01953-.19922-.0586-.1914-.09375-.17578-.46094-.37891-.1914-.0586-.19922-.01953-.19922.01954-.1914.05859-.46094.3789-.09375.17579-.0586.1914-.01953.19922.01953.19922.0586.1914.09375.1797.46093.375.19141.05859.19922.01953.19922-.01953.1914-.0586.46094-.375.09375-.17968.0586-.1914.01953-.19923m9.35547 1.9336l5.87109-3.86328m7.41016.05468l5.9414 3.75m-5.07812-3.20312l.08984-1.22656m13.30078-.3125l4.0586 5.73828m-3.46485-4.90235l.55078-1.09765m11.96094.42187l4.48047 5.41406m-3.82813-4.625l.46875-1.13671m11.5547 1.04296l5.76171 4.02344m-4.92578-3.4375l.14844-1.21875m11.69531 2.67578l7.02734-.0586m-6.0039.05079l-.58594-1.07813m12.91797.53125l6.94922 1.04688m-5.9375-.89453l-.41016-1.15625m12.6836 1.26562l7.0078.52344m-5.98827-.44531l-.4922-1.125m12.78907 1.5586l7.00781-.5m-5.98828.42968l-.65234-1.03906m13.48047 2.73828l5.9414-3.75781m-5.07422 3.21093l-1.0664-.60547m14.13672 1.88672l4.69531-5.22656m-4.01172 4.46484l-1.1914-.29296m14.24218 1.3789l3.85938-5.8711m-3.30078 5.01563l-1.21875-.11328"/><g clip-path="url(#O)"><path fill="none" stroke="#000" stroke-linecap="round" stroke-linejoin="round" stroke-miterlimit="10" stroke-width=".5" d="M147.41797 427.88281l-6.83594-1.6289"/></g><path fill="none" stroke="#000" stroke-linecap="round" stroke-linejoin="round" stroke-miterlimit="10" stroke-width=".5" d="M146.42188 427.64844l.30859 1.1875m14.08984-2.02344l-7.00781.51172m5.98828-.4375l.65234 1.03906m13.34375-2.38281l-6.33203 3.05078m5.41016-2.60547l.98828.72266m13.29297-1.07031l-6.42188 2.85546m16.41016 2.08594l.23047-7.02344m16.3789 5.01172l-6.35546-3.0039m18.45312-1.41407l-3.92187 5.83204m15.22656-6.4297l.09766 7.02735m16.32422-1.78125l-6.11329-3.46484m16.58203 5.23828l-.42187-7.01172m12.64844 6.90625l1.75781-6.80078m15.91016 3.90234l-6.95313-1.0039m13.41016 1.45312l6.76562-1.90234m7.58203-1.66406l4.69922 5.23046m-4.01562-4.46875l.42187-1.15234m12.875-.07812l3.36719 6.16796m-2.875-5.26953l.67188-1.02734m10.88671 1.30078l5.89454 3.82422m10.80078 1.57422l-.86328-6.97266m13.52734 6.99219l.4375-7.01172m10.10547 1.66016l5.98047 3.6914m-5.10938-3.15234l.07813-1.22656m18.75 1.625l-6.78516 1.8164m5.80078-1.55078l.83594.89844m6.6836.67969l6.77343-1.8711m13.08594-.60547l-6.3125 3.08204m5.39453-2.63282l.99219.71875m13.05859 2.24219l-5.94922-3.73828m14.64844 4.97656l3.28125-6.21484m-2.80469 5.3086l-1.22656.0039m14.21875.97656l2.97656-6.36328m-2.54297 5.4375l-1.22656.0625"/><g clip-path="url(#P)"><path fill="none" stroke="#000" stroke-linecap="round" stroke-linejoin="round" stroke-miterlimit="10" stroke-width=".5" d="M147.41797 412.9336l-6.83594 1.63671"/></g><path fill="none" stroke="#000" stroke-linecap="round" stroke-linejoin="round" stroke-miterlimit="10" stroke-width=".5" d="M157.17188 410.24219l.28515 7.02344m-.24219-6l1.0586-.6211m12.92969-.35937l-1.14844 6.93359m.98047-5.92188l1.16406-.39062m11.05078-.59766l1.39063 6.89063m-1.1875-5.88672l.94921-.78125m11.3672.03906l2.98046 6.36719m-2.54688-5.4414l.73829-.98048m10.1289 3.48047l7.01172-.48828m-5.99219.41797l-.64843-1.03906m12.9375.82422l7.02343.08593m-6.0039-.07421l-.5625-1.08985m13.9414-1.41797l4.85547 5.07813m9.07031-5.54688l3.63282 6.01563m8.4375-4.73047l6.125 3.44531m6.76172-1.3086l6.98047-.82812m6.53906 1.66407l6.57031-2.5m11.66406 4.35937l-3.26562-6.21875m17.26562 5.75l-4.63672-5.28125m16.84766 5.9375l-2.42969-6.59375m15.54688 6.66016l-2.03125-6.72657m14.58984 6.8672l-.51953-7.00782m14.44922 6.90625l-1.75-6.80469m11.71484 5.89453l4.95313-4.98437m-4.23438 4.25781l-1.17187-.35547m12.73047-1.38281l7.02734-.0586m-6.0039.05079l-.58594-1.07813m17.5664-2.2539l-2.35156 6.625m2.00781-5.66016l1.21485-.17969m14.22265.625l-5.91015 3.80469m5.05078-3.25l1.07031.59766m13.64063.35937l-6.98047.78125m5.96484-.66797l.69531 1.01172m13.17578 1.04297l-6.0625-3.55469m5.1797 3.03516l-.05079 1.22656m13.29688.34766l-4.15625-5.66407m3.55078 4.83985l-.53125 1.10547"/><g clip-path="url(#Q)"><path fill="none" stroke="#000" stroke-linecap="round" stroke-linejoin="round" stroke-miterlimit="10" stroke-width=".5" d="M147.51172 400.34766l-7.02344.17968"/></g><path fill="none" stroke="#000" stroke-linecap="round" stroke-linejoin="round" stroke-miterlimit="10" stroke-width=".5" d="M146.49219 400.375l.60156 1.0664m12.51172-3.66796l-4.58203 5.32812m3.91406-4.55078l1.19922.26563m12.75781-1.0625l-4.53125 5.37109m3.8711-4.58984l1.20312.2578m13.08594-.73827l-5.16016 4.76953m4.41016-4.07813l1.16015.40625m13.83985 1.21485l-7.02735.14062m7.02735-.14062l1.19531 2.14453m12.02734-1.27735l-6.84375-1.59375M213 401.00392l.3164 1.18359m13.83985-.44922l-6.53125-2.60156m5.57813 2.22265l.13671 1.21875m14.23828-1.15234l-6.74609-1.97265m5.76563 1.68359l.24609 1.20312m14.1289-1.2539l-6.90624-1.29297m5.90234 1.10547l.36719 1.16797m13.60156.02343l-6.20313-3.30468m5.30079 2.82421l-.00391 1.22657m13.17969.44922l-4.1211-5.69532m3.51953 4.8672l-.53906 1.10155m15.03516-.80078l-5.28125-4.63672m4.51172 3.96094l-.28125 1.19531m14.0625-.21484l-4.67188-5.25m3.99219 4.48828l-.42578 1.14844m10.76562.2461l2.63672-6.51563m13.26563 6.53515l-2.53907-6.55468m13.15625 6.48828l2.85938-6.41797M357.75 403.8789l-1.41797-6.88282m12.33203 6.52344l3.38281-6.16015m-2.89062 5.26171l-1.22656-.01562m13.97656.8711l3.52734-6.07813m-3.01172 5.19531l-1.22656-.04688m12.55078-.74609l6.48047-2.72265m-5.53515 2.32421l-.95313-.77343m13.16016.67968l6.8086-1.73828m-5.82032 1.48438l-.82422-.90625m13.14453 1.13672l6.82031-1.69532m-5.82812 1.44922l-.82031-.91406m17.27734 3.75L436.20703 397m16.27734 6.14844l-4.47656-5.41797m3.82422 4.6289l-.46484 1.13282m15.4961-1.85156l-6.60548-2.40235m5.64453 2.05078l.17188 1.21485"/><g clip-path="url(#R)"><path fill="none" stroke="#000" stroke-linecap="round" stroke-linejoin="round" stroke-miterlimit="10" stroke-width=".5" d="M147.50781 386.92578l-7.01562.39453"/></g><path fill="none" stroke="#000" stroke-linecap="round" stroke-linejoin="round" stroke-miterlimit="10" stroke-width=".5" d="M146.48828 386.98438l.63672 1.04687m13.6914-.6289l-7.0039-.5586m7.0039.5586l.97657 2.25m12.35156-2.44923l-7.02734-.16015m7.02734.16015l1.10156 2.19141m-2.125-2.21484l.55078 1.09765m13.78516-1.18359l-7.02344.0586m6.00391-.05079l.58594 1.07813m13.71875-.58985l-6.96485-.93359m5.95313.79688l.42578 1.15234m13.89063-.94922l-6.94532-1.0664m5.9375.91015l.40235 1.16016m13.52734.16015l-6.15625-3.39453m5.25781 2.90235l-.01562 1.22656m14.64844-2.10156l-6.9961-.66016m5.98047.5625l.46875 1.13281m12.11328 1.67969l-3.5-6.08985m2.99219 5.20704l-.65234 1.03906m15.64062-1.23828l-5.82813-3.92188m4.98047 3.34766l-.125 1.22265m12.96094.52344l-3.17578-6.26953m2.71484 5.35547l-.70703 1.0039m12.0586.1875l1.67187-6.82421m10.57813 6.36719l3.80468-5.91016m-3.25 5.05078l-1.22265-.10156m14.13672 1.05469l3.49609-6.09766m-2.98828 5.21094l-1.22266-.03907m13.07031.1172l5.41407-4.47657m7.35937 3.57422l6.5-2.67578m-5.55469 2.28515l-.9453-.78125m13.55077-1.96875l6.02735 3.60547m-5.15235-3.08203l.0625-1.22656m13.39844-.38672l3.98828 5.78515m-3.41015-4.9414l.5664-1.08985m14.0625-.375l.20313 7.02735m-.17188-6.0039l1.0664-.60548m14.08204.0586l-3.52734 6.07422m12.17187-5.01172l5.8125 3.94922m6.99219-2.79688l6.83203 1.64453m7.15625 1.3711l5.48828-4.38672m-4.6914 3.75l-1.125-.48438m14.57812 1.9414l3.61719-6.02733m-3.08985 5.14843l-1.22656-.0625m16.0625 1.4336l-.48047-7.01172"/><g clip-path="url(#S)"><path fill="none" stroke="#000" stroke-linecap="round" stroke-linejoin="round" stroke-miterlimit="10" stroke-width=".5" d="M147.49219 374.20313l-6.98438-.78907"/></g><path fill="none" stroke="#000" stroke-linecap="round" stroke-linejoin="round" stroke-miterlimit="10" stroke-width=".5" d="M147.49219 374.20313l.90234 2.28125m12.375-2.03125l-6.91016-1.28907m6.91016 1.28906l.73438 2.33985m-1.73828-2.52735l.36718 1.17188m14.00781-1.46484l-7.01953-.32813m5.9961.28125l.52734 1.10938m13.76953-.66407l-6.9375-1.125m5.92578.96094l.39844 1.16016m13.91016-.90625l-6.90235-1.30469m14.59375-2.10938l4.34766 5.51954m10.65234-6.23829l.97657 6.96094m14.0078-.17187L236.02345 370.5m16.05469 6.45703l-3.11329-6.29687m2.66016 5.3828l-.71484.9961m12.09765.1836l1.65625-6.82813m-1.41797 5.83594l-1.1875.30078m15.36328.78125l-.54296-7.00781m.46484 5.98828l-1.03516.65625m14.2461.3711l-.17578-7.02344m.14843 6l-1.0664.60546m13.91015.39454l.82032-6.97657m-.70313 5.96094l-1.14062.44531m13.6328.41406l2.23048-6.66406m-1.90625 5.69531l-1.21094.19922m13.82422.6172l2.98828-6.35938m8.3086 3.3125l7.02343-.26563m7.55078-2.5625l4.5039 5.39063m-3.84765-4.60938l.46094-1.13281m14.19922-.45703l.5039 7.00781m-.42968-5.98828l1.03906-.65235m10.72656.07422l3.44922 6.125m-2.94531-5.23437l.66015-1.03125m10.88282 1.36328l5.98828 3.67969m-5.11719-3.14453l.07813-1.22657m14.42187-.85546l1.875 6.77343m8.8789-3.6875l7 .60156m-5.98437-.51562l-.48047-1.125m12.76563 1.23828l7.02734.20313m-6.0039-.17188l-.54297-1.10156m12.9375.32812l6.82031 1.6875m7 1.13282l5.8125-3.95313"/><g clip-path="url(#T)"><path fill="none" stroke="#000" stroke-linecap="round" stroke-linejoin="round" stroke-miterlimit="10" stroke-width=".5" d="M147.51172 360.38281l-7.02344.22266"/></g><path fill="none" stroke="#000" stroke-linecap="round" stroke-linejoin="round" stroke-miterlimit="10" stroke-width=".5" d="M147.51172 360.38281l1.21875 2.1289m-2.24219-2.09765l.61328 1.0664m13.70313-1.3789l-6.98047.78516m6.98047-.78516l1.39062 2.02344m-2.40625-1.91016l.69531 1.01172m13.64844-.9961l-7.00781.52345m7.00781-.52344l1.3125 2.07422m12.00781-1.98438l-7.01562.34375m5.9961-.29297l.6289 1.0547m11.66016-4.125l-2.92578 6.38671m2.5-5.45703l1.22656-.07422m9.51953-.82422l3.0664 6.32422m-2.62109-5.40625l.72266-.98828m11.1289.8164l5.10157 4.83204m-4.35938-4.12891l.32422-1.1836m11.51172 1.65235l6.57422 2.48438m-5.61719-2.1211l-.15625-1.21875m12.67188 3.69922l6.2578-3.19922m7.6875 4.0664l5-4.9375m-4.27343 4.21876l-1.17188-.36328m14.53125 1.67187l3.45704-6.11719m9.32812 5.75l4.51563-5.3828m-3.85938 4.60155l-1.19922-.2539m19.35547-.29297l-6.47656-2.72266m20.05078 1.04297l-6.9961.63672m18.58985-3.35156l-3.55078 6.0625m15.25781-6.53906l-.33984 7.01953m.29297-6l1.10937-.52344m10.875-.28516l2.41797 6.59766m-2.0664-5.64063l.8203-.91015m14.48829-.07422l-2.26953 6.64844m1.9375-5.6797l1.21093-.1953m12.91016-.57032l-3.22266 6.2422m2.75391-5.33204l1.22656-.01563m8.32422-.10937l5.2461 4.67188m-4.48438-3.9922l.28906-1.1914m11.91797.97266l5.9375 3.7539m-5.07422-3.21093l.09375-1.22266m12.98438-.0625l4.6836 5.23828m8.30859-4.91015l5.33203 4.57812m-4.5547-3.91016l.26563-1.19921M453 358.30858l-5.5039 4.3672m19.21874-.63282l-6.30468-3.10156m5.38672 2.65234l.03906 1.22656"/><g clip-path="url(#U)"><path fill="none" stroke="#000" stroke-linecap="round" stroke-linejoin="round" stroke-miterlimit="10" stroke-width=".5" d="M146.73438 344.96875l-5.46875 4.41797"/></g><path fill="none" stroke="#000" stroke-linecap="round" stroke-linejoin="round" stroke-miterlimit="10" stroke-width=".5" d="M146.73438 344.96875l2.2578.96484m11.1211-.8828l-5.59375 4.2539m4.77734-3.63281l1.1172.51171m13.35937-.57421l-6.28516 3.13671m5.3711-2.67968l1 .71093m12.70703-1.9375l-5.2422 4.6797m4.48048-4l1.14844.42577m10.47656-2.27734l-.33985 7.01953m.28907-5.9961l1.10937-.52343m9.80078.33984l4.57031 5.33985m-3.90234-4.5625l.44531-1.14063M221.13281 345l5.51563 4.35547M221.1328 345l.4414-2.41406m12.40235 3.21094l6.46094 2.76171m-6.46094-2.76171l-.20703-2.44532m13.30078 3.16797l6.90235 1.3164m-5.89844-1.125l-.36328-1.17187m12.6289 1.97266l6.9922-.66797m-5.97657.57031l-.67578-1.02344m12.97265.44141l6.9961.6914m-5.97657-.58984l-.46875-1.13671m12.79297.83203l6.94141 1.09765m-5.9336-.9375l-.39843-1.16015m12.83594.45703l6.67968 2.1875m-5.70703-1.8711l-.21093-1.20703m13.10937-.16406l5.5664 4.29297m-5.5664-4.29297l.41406-2.41797m13.17578 2.10547l5.01954 4.91797m-4.28907-4.20313l.34375-1.17578m11.92578.83203l5.64844 4.17579m-4.82812-3.57032l.17968-1.21094m13.27735-.28515l3.72265 5.96094m-3.17968-5.09375l.61328-1.0625m12.66797-.07032l2.70312 6.48829m-2.70312-6.48829l1.55859-1.89453m13.72266 1.67969l-1.22657 6.91797m1.04688-5.91016l1.16797-.3789m9.26562.30859l4.89453 5.04297m-4.18359-4.3086l.3789-1.16796m18.1836 2.78906l-7.01953.33203m5.9961-.28125l.625 1.05469m13.6953-.5625l-6.98437-.7539m20.32031.47655l-7.02734-.1953m6.0039.16405l.54688 1.10157m13.64844-2.16016l-6.74219 1.98047m5.76172-1.6914l.85937.875m13.51172.5078l-6.89453-1.36328m5.89063 1.16407l.35547 1.17578"/><g clip-path="url(#V)"><path fill="none" stroke="#000" stroke-linecap="round" stroke-linejoin="round" stroke-miterlimit="10" stroke-width=".5" d="M146.78125 331.71484l-5.5625 4.29688"/></g><path fill="none" stroke="#000" stroke-linecap="round" stroke-linejoin="round" stroke-miterlimit="10" stroke-width=".5" d="M146.78125 331.71484l2.23438 1.00782m-3.04297-.38282l2.23437 1.00782m11.67578-1.88282l-5.13281 4.79688m5.13281-4.79688l2.32031.79297m11.33204-.3711l-5.8086 3.95313m5.8086-3.95312l2.17187 1.14062m10.20703-2.07421l-3.9375 5.8203m3.9375-5.8203l2.4375.2578m9.19922-.84765l-.58203 7m.58203-7l2.2539-.97265M208.53907 331l4.07031 5.72656m-3.47656-4.89453l.54688-1.09765m11.15625 1.39062l6.10937 3.47656m-6.10937-3.47656l.07422-2.45313m12.91015 3.2422l6.76953 1.89452m-6.76953-1.89453l-.52344-2.39453m13.71485 3.52735l7.01562-.3672m-7.01562.3672l-1.26563-2.10157m14.59766 2.3125l6.98438-.78906m-6.98438.78906l-1.38672-2.02344m14.6914 1.3711l7.00782.51562m-7.00781-.51562l-.99219-2.2461m14.3086 2.23047l7.0039.54688m-7.0039-.54688l-.98047-2.25m14.4375 1.48829l6.71484 2.0703m-6.71484-2.0703l-.46094-2.41016m13.96875 1.92578l6.33203 3.03906m-6.33203-3.03906l-.10156-2.45313m13.52343 2.2461l6.11719 3.45312m-6.11719-3.45312l.0625-2.45313m13.01953 2.95313l6.58594 2.45312m-6.58594-2.45312l-.32421-2.42969m13.71093 2.25781l6.44532 2.79688m-6.44532-2.79688l-.19531-2.44921m14.02344 1.60937l5.41797 4.47656m-4.62891-3.82422l.2461-1.20312m18.48046 3.16406l-6.98437-.75m6.98437.75l.91407 2.27735m11.77343-4.6875l-5.73047 4.0703m4.89454-3.47656l1.09765.54688m13.57031-.0625l-6.76171 1.91406m5.77734-1.63672l.84766.88672m13.28515 1.20703l-6.4336-2.82812m5.5 2.41797l.08985 1.22265m14.11719-.71875l-6.34766-3.01562m5.42578 2.57812l.0547 1.22266m14.32421-3.45703l-6.63281 2.32812m5.66797-1.98828l.90234.83203m13.57422.07422l-7.02344-.16797m6 .14454l.55078 1.09765"/><g clip-path="url(#W)"><path fill="none" stroke="#000" stroke-linecap="round" stroke-linejoin="round" stroke-miterlimit="10" stroke-width=".5" d="M147.29688 319.33594l-6.59375 2.42187"/></g><path fill="none" stroke="#000" stroke-linecap="round" stroke-linejoin="round" stroke-miterlimit="10" stroke-width=".5" d="M147.29688 319.33594l1.82812 1.63672m-2.78516-1.28516l1.82813 1.63672m12.58984-1.48047l-6.88672 1.41016m6.88672-1.41016l1.5625 1.89063m-2.5664-1.6875l1.5664 1.89453m-2.5664-1.6875l.78125.9453m14.60547-.52343l-7.02344-.25781m7.02344.25781l1.07421 2.20703m-2.09375-2.24219l1.07032 2.20704m13.25-2.65625l-6.9922.71093m6.9922-.71093l1.36328 2.03906m-2.38281-1.9336l1.36718 2.03907m12.875-2.66016l-6.8086 1.74219m6.8086-1.74219l1.65235 1.8164m-2.64453-1.5625l1.65625 1.8125m12.57421-2.3203l-6.65625 2.2539m6.65625-2.2539l1.78516 1.68359m-2.7539-1.35547l1.78515 1.6836m12.375-2.33204l-6.40625 2.89453m6.40625-2.89453l1.9414 1.5m-2.875-1.07812l1.94141 1.5m12.25-2.03516l-6.29297 3.1211m6.29297-3.1211l1.9961 1.42578m-2.91016-.97265l.9961.71484m13.10156-1.41016l-6.03125 3.60547m6.03125-3.60547l2.10156 1.26954m10.19922-2.35547l-4 5.77734m11.99219-1.7539l6.64843-2.27344m6.59375 2.03906l6.79297-1.80469m-5.80469 1.54297l-.83593-.89844m13.30859-1.07422l6.5 2.66797m-6.5-2.66797l-.2461-2.4414m14.19141 1.4336l5.23828 4.68358m-5.23828-4.68359l.58594-2.38281m12.8711 2.23047l4.95312 4.98437m-4.23047-4.25781l.35938-1.17188m13.1914-.23046l3.03906 6.33593m11.9375-6.67578l-.28515 7.01953m.2461-6l1.10546-.53125m11.19922-.375l1.8125 6.78907m-1.54688-5.80079l.89844-.83593m14.54688.0586l-2.97657 6.36718m16.91407-5.99219l-4.22266 5.61719m3.60938-4.79688l1.21093.1875m12.8086-.93359l-4.40625 5.47266m3.76562-4.6797l1.20313.23048m12.24609 4.78906l-3.39453-6.15234m2.90234 5.2578l-.67187 1.02735m15.60156-1.11328l-5.63672-4.1914m4.8164 3.58203l-.18359 1.21093m14.96094-2.08984l-6.92187-1.21484m6.92187 1.21484l.76172 2.33203m12.32813-4.3086l-6.47266 2.73829"/><g clip-path="url(#X)"><path fill="none" stroke="#000" stroke-linecap="round" stroke-linejoin="round" stroke-miterlimit="10" stroke-width=".5" d="M466.79688 319.17969l1.90625 1.54687"/></g><path fill="#00f" fill-rule="evenodd" d="M161.88281 472.08594H170.5V461.9414h-8.61719v10.14453"/><path fill="azure" fill-rule="evenodd" d="M163.71484 463.77344h.83203v2.82422h3.28907v-2.82422h.83203v6.48047h-.83203v-2.91797h-3.28906v2.91797h-.83204v-6.48047"/><path fill="#00f" fill-rule="evenodd" d="M383.80078 436.57813h8.61719v-10.14454h-8.61719v10.14454"/><path fill="azure" fill-rule="evenodd" d="M385.63281 428.26563h.83203v2.82421h3.28907v-2.82421h.83203v6.48046h-.83203v-2.91406h-3.28907v2.91406h-.83203v-6.48046"/><path fill="#ff3030" fill-rule="evenodd" d="M451.07031 343.375h7.6914v-10.14844h-7.6914V343.375"/><path fill="azure" fill-rule="evenodd" d="M452.90234 335.0625h.83204v5.73828h3.1953v.74219h-4.02734v-6.48047"/><path fill="#ffffe0" fill-rule="evenodd" d="M252.97656 383.42969h22.17969v-10.1914h-22.17969v10.1914"/><path fill-rule="evenodd" d="M256.47656 375.07031h.50781v6.29688h-.78515V376.875h-1.39063v-.55469l.5625-.0625.25-.05469.23047-.08984.20313-.14062.17578-.21094.14062-.29297.10547-.39844m4.8125 0l.23047.01953.21875.0547.20703.08983.19531.1211.1875.15234.17188.17578.30078.41797.24219.49219.17969.54688.11328.57812.03515.59375-.03515.59375-.11328.58203-.1797.55469-.24218.5-.30078.42969-.17188.17968-.1875.15235-.1953.125-.20704.08984-.21875.0586-.23047.01953-.22656-.01954-.22266-.05859-.20703-.08984-.19531-.125-.1836-.15235-.17187-.17968-.30078-.4297-.2461-.5-.17968-.55468-.10938-.58203-.03906-.59375h.83203l.03125.5625.08203.5039.125.44532.16016.375.1914.30078.21094.21875.22266.13672.22656.04687.22656-.04687.22266-.13672.21094-.21875.1914-.30078.16407-.375.125-.44531.08203-.50391.02734-.5625-.02734-.5625-.08203-.5-.125-.4336-.16406-.36718-.19141-.29297-.21094-.21484-.22265-.12891-.22657-.04688-.22656.04688-.22266.1289-.21093.21485-.19141.29297-.16016.36719-.125.43359-.08203.5-.03125.5625h-.83203l.03906-.59375.10938-.57813.17969-.54687.24609-.49219.30078-.41797.17188-.17578.18359-.15234.19531-.1211.20703-.08984.22266-.05469.22656-.01953m5.09375 0h.50781v6.29688h-.78515V376.875h-1.39063v-.55469l.5586-.0625.2539-.05469.23047-.08984.20313-.14062.17187-.21094.14453-.29297.10547-.39844m2.82031 2.17578h.78907l.01953-.3164.0586-.28516.09765-.2539.14062-.21485.1836-.17187.22265-.12891.26563-.08203.3086-.02735.23437.02344.22656.0625.20313.10156.17968.13672.14844.17188.11328.20703.07031.23438.02735.26562-.02344.26953-.0664.22266-.10938.19531-.15625.16797-.19922.16406-.2461.16406-.63671.39063-.53516.3125-.4375.3164-.34765.32422-.26172.33594-.19141.35156-.125.3711-.07031.39062-.01953.42188h4.21093v-.74219h-3.33203l.08203-.28516.11329-.23437.14843-.20313.1875-.17968.23047-.17188.28125-.17578.71485-.41406.41796-.20703.34375-.23047.28125-.25.21875-.26953.16407-.27735.11328-.28515.0625-.28516.01953-.28125-.04297-.38281-.11719-.34766-.1914-.3086-.25-.26171-.30079-.21094-.34765-.16015-.3789-.09766-.40626-.03516-.4375.03516-.39844.09765-.35156.16797-.3086.23438-.24608.30078-.1875.375-.11329.44531-.04296.51953"/><path fill="#ffffe0" fill-rule="evenodd" d="M386.1289 420.0586h22.1797v-10.19141h-22.1797v10.1914"/><path fill-rule="evenodd" d="M389.625 411.70313h.51172v6.29296h-.78906v-4.48828h-1.38672v-.5586l.5586-.0625.2539-.05468.23047-.08984.20312-.14063.17188-.21094.14062-.29296.10547-.39454m4.8164 0l.22657.01563.22265.0586.20704.08984.1953.11719.1836.15234.17188.17578.30078.41797.2461.49219.17968.54687.10938.58203.03906.58985-.03906.59375-.10938.58203-.17969.55469-.2461.5039-.30077.42578-.17188.17969-.1836.15234-.1953.125-.20704.09375-.22265.0547-.22656.01952-.23047-.01953-.21875-.05469-.20703-.09375-.19922-.125-.1836-.15234-.17187-.17969-.30078-.42578-.24219-.5039-.17969-.5547-.11328-.58202-.03515-.59375h.83203l.02734.5625.08203.5078.125.44142.16406.375.19141.30078.21094.21875.22265.14062.22657.04688.22656-.04688.22265-.14062.21094-.21875.1914-.30079.16017-.375.125-.4414.08203-.50781.03125-.5625-.03125-.5625-.08204-.5-.125-.4336-.16015-.36719-.1914-.29296-.21094-.21485-.22266-.1289-.22656-.04688-.22657.04688-.22265.1289-.21094.21485-.1914.29296-.16407.3672-.125.43359-.08203.5-.02734.5625h-.83204l.03516-.58985.11328-.58203.17969-.54687.24219-.4922.30078-.41796.17187-.17578.1836-.15235.19922-.11718.20703-.08985.21875-.05859.23047-.01563m5.08984 0h.51172v6.29297h-.78906v-4.48828h-1.38672v-.5586l.5586-.0625.2539-.05468.22656-.08984.20313-.14063.17578-.21094.14062-.29296.10547-.39454m2.82422 2.17188h.78515l.01954-.3164.0625-.28516.09765-.25.14063-.21875.17969-.17188.22265-.1289.26563-.08204.30859-.02734.23828.02344.22266.0625.20703.10156.17578.13672.15234.17578.10938.20313.07422.23828.02344.26172-.01954.26953-.0664.22656-.10938.1914-.15625.17188-.19922.16016-.25.16797-.6328.38671-.53907.3125-.4375.31641-.34375.32813-.26563.33593-.1914.34766-.125.3711-.0664.39452-.02345.41797h4.21485v-.74218h-3.33203l.08203-.28125.11328-.23829.14844-.20312.1875-.17969.23046-.17187.27735-.17578.71875-.41407.41406-.20703.34766-.23047.27734-.25.22266-.26953.16406-.27734.10938-.28125.0625-.28516.02343-.28125-.04297-.38281-.12109-.35156-.1875-.30469-.25-.26563-.30469-.21093-.34375-.16016-.38281-.09765-.40625-.03125-.4336.03125-.39843.09765L403.25 412l-.30469.23438-.25.30468-.1836.3711-.11718.44921-.03906.51563"/></g></defs><use xlink:href="#Y"/></svg>