<svg xmlns="http://www.w3.org/2000/svg" role="img" xmlns:xlink="http://www.w3.org/1999/xlink" viewBox="142.45 309.95 326.84 171.84"><defs><clipPath id="a"><path d="M144 311.67188h1v168.65625h-1zm0 0"/></clipPath><clipPath id="b"><path d="M144 311.67188h324v168.65625H144zm0 0"/></clipPath><clipPath id="c"><path d="M467 311.67188h1v168.65625h-1zm0 0"/></clipPath><clipPath id="d"><path d="M144 477h3v3.32813h-3zm0 0"/></clipPath><clipPath id="e"><path d="M154 477h7v3.32813h-7zm0 0"/></clipPath><clipPath id="f"><path d="M167 477h7v3.32813h-7zm0 0"/></clipPath><clipPath id="g"><path d="M180 478h8v2.32813h-8zm0 0"/></clipPath><clipPath id="h"><path d="M193 478h8v2.32813h-8zm0 0"/></clipPath><clipPath id="i"><path d="M207 478h7v2.32813h-7zm0 0"/></clipPath><clipPath id="j"><path d="M220 478h8v2.32813h-8zm0 0"/></clipPath><clipPath id="k"><path d="M233 478h8v2.32813h-8zm0 0"/></clipPath><clipPath id="l"><path d="M246 479h9v1.32813h-9zm0 0"/></clipPath><clipPath id="m"><path d="M260 479h8v1.32813h-8zm0 0"/></clipPath><clipPath id="n"><path d="M267 479h2v1.32813h-2zm0 0"/></clipPath><clipPath id="o"><path d="M273 479h8v1.32813h-8zm0 0"/></clipPath><clipPath id="p"><path d="M280 479h3v1.32813h-3zm0 0"/></clipPath><clipPath id="q"><path d="M286 479h9v1.32813h-9zm0 0"/></clipPath><clipPath id="r"><path d="M293 479h3v1.32813h-3zm0 0"/></clipPath><clipPath id="s"><path d="M300 480h8v.32813h-8zm0 0"/></clipPath><clipPath id="t"><path d="M307 480h2v.32813h-2zm0 0"/></clipPath><clipPath id="u"><path d="M313 479h8v1.32813h-8zm0 0"/></clipPath><clipPath id="v"><path d="M320 479h3v1.32813h-3zm0 0"/></clipPath><clipPath id="w"><path d="M326 479h9v1.32813h-9zm0 0"/></clipPath><clipPath id="x"><path d="M333 479h3v1.32813h-3zm0 0"/></clipPath><clipPath id="y"><path d="M340 478h8v2.32813h-8zm0 0"/></clipPath><clipPath id="z"><path d="M345 479h3v1.32813h-3zm0 0"/></clipPath><clipPath id="A"><path d="M353 478h8v2.32813h-8zm0 0"/></clipPath><clipPath id="B"><path d="M358 478h3v2.32813h-3zm0 0"/></clipPath><clipPath id="C"><path d="M367 478h7v2.32813h-7zm0 0"/></clipPath><clipPath id="D"><path d="M373 478h3v2.32813h-3zm0 0"/></clipPath><clipPath id="E"><path d="M380 477h7v3.32813h-7zm0 0"/></clipPath><clipPath id="F"><path d="M393 479h8v1.32813h-8zm0 0"/></clipPath><clipPath id="G"><path d="M399 479h2v1.32813h-2zm0 0"/></clipPath><clipPath id="H"><path d="M407 478h7v2.32813h-7zm0 0"/></clipPath><clipPath id="I"><path d="M420 477h7v3.32813h-7zm0 0"/></clipPath><clipPath id="J"><path d="M433 478h8v2.32813h-8zm0 0"/></clipPath><clipPath id="K"><path d="M446 478h8v2.32813h-8zm0 0"/></clipPath><clipPath id="L"><path d="M460 478h7v2.32813h-7zm0 0"/></clipPath><clipPath id="M"><path d="M144 464h3v6h-3zm0 0"/></clipPath><clipPath id="N"><path d="M144 450h3v7h-3zm0 0"/></clipPath><clipPath id="O"><path d="M144 439h4v3h-4zm0 0"/></clipPath><clipPath id="P"><path d="M144 424h3v6h-3zm0 0"/></clipPath><clipPath id="Q"><path d="M144 410h2v8h-2zm0 0"/></clipPath><clipPath id="R"><path d="M144 415h2v3h-2zm0 0"/></clipPath><clipPath id="S"><path d="M144 399h4v2h-4zm0 0"/></clipPath><clipPath id="T"><path d="M144 385h4v5h-4zm0 0"/></clipPath><clipPath id="U"><path d="M144 373h4v2h-4zm0 0"/></clipPath><clipPath id="V"><path d="M144 359h4v3h-4zm0 0"/></clipPath><clipPath id="W"><path d="M144 346h4v3h-4zm0 0"/></clipPath><clipPath id="X"><path d="M144 332h4v4h-4zm0 0"/></clipPath><clipPath id="Y"><path d="M144 319h4v4h-4zm0 0"/></clipPath><clipPath id="Z"><path d="M465 317h3v2h-3zm0 0"/></clipPath><g id="aa" clip-path="url(#clip1)"><path fill="#fff" fill-opacity="0" fill-rule="evenodd" d="M0 0h1000v1000H0zm0 0"/><path fill="#d3d3d3" fill-opacity="0" fill-rule="evenodd" d="M162.15234 355.86719l-.23437.29297.0586.23437.11718.17188.17578.23437.29297.34766.11328.0586.11719-.17188.0586-.23438.17577-.17578.46485-.17578h.69922l.23437.29297.28906.8164.0586.17579.17578.23046.35156.23438.69922.69922.17188.17578.23437.34765.23438.41016.28906.58203.41015.46485.23047.23437.23438.17578.11719.23047.17578.29297.17187 1.16406v.23438l.0586.28906.05859.11719.11719.11719.34765.41015.11719.17188.17578.17578.17578.23437.11719.17188.17188.35156.05859.23438.23437.40625.23438-.0586-.17578.17578-.0586.92969h-.58203l-.23437-.11328-.34766.11328-.11719.11719-.05859.29297-.0586.17578-.11718.17187-.46484.29297-.0586.23438-.0586.11328v.64453l.0586.17187v.41016l.0586.0586v.40624l.05859.40625.11719.17579.05859.05859.23047.64062-.0586.29297v.69922l-.05859.58203v.23438l-.0586.23047-.05468.35156v1.92187l.05469.1172h.42578l-.36719.11718-.02344.35156.89063 1.16797 1.74219.53906 1.33984.35938v.53906l.08984.8086.53516.71484 1.51953.26953.89063-.08594.08984 1.16406.53516.1797 1.16015-.1797 2.05469-.98437 1.16016-.36328 1.8789-.17578 1.69531-.1797-.17968.71876-1.51563.08594-1.25.08984-.80469.26953-1.07421.8086.26953.71875.53515.89843-.17968.625-.26563.8086.26563 1.07812.625.89844.80468.17969 1.25-.1797-.26562.72267.09766.5039.05468.29297v.17188l.0586.29296v.40625l.17578.1172.35156.11718h.40625l.29297-.17578.11328-.11719.0586-.11719.11718-.23047.0586-.17578.35156-.46484.23047-.17578.17578-.0586.17578.0586.0586.17578.11718.98828.05469.46875.0586.17188.11718.23437.17578.0586.8164.05859h.28907l.11719.23437.05859.40625.0586.35156v1.10547l.11718.29297.11719.34766.28906.69922.17578.35156.58203.7539.35157.17579.17187.0586.46875.23437.64063.46484.34765.23438.29297.17578.29297.05468.23047.0625.8164.34766.29297.17578.11328.17188.35157.35156.11719.17578.52343.64063v.28906l.0586.35156v.34766l.05859.35156.0586.28906.11718.0586.17188.05859h.17578l.58203.23437.17578.1172.17578.28905.17578.23438.11328.23437.29297.23047.11719.11719v.41016l.0586.05468.28906.23438.23437.11719.0586.11718.11718.17188.0586.11719.23047.23437.05859.17578.23437.0586.1172.05859-.1172.11328-.05859.11719v.11719l-.11719.29296-.11719.28907v.58203l.17579.11719.11718.05859.0586.11719.11719.11719.11328.05859.17578.34765.0586.35157.05858.40625v.17578l-.05859.17578-.11719.69922v.17187l.1172.17579.29296.29296h.40625l.17578.1172.11719.17187.11719.29296v.23438h-.52735l-.23047-.23438h-.23437l-.17578.0586-.0586.69922.0586.34765.11719.17579.17578.41015.11718.23047.28907.46875.17578.05469h.52344l.23437.0586.75781.64062.0586.29296v.23438l.05859.0586.23047.34765v.35156l-.11719.17188v.29297l.29297.28906.29297.17578.17187.0586.29297.17577.29297.1172.58203.40624.28906.23438.29297.17578.21875.16015.01563.01172.23047.17579.64062.52343.17578.23438.1172.17578.17577.17578.11328.17188v.64062l.1172.17578.46874.11719.58203.11719.23438.05859.23047.11328.29297.11719.11328.0586.58593.35156.28907.17187.17578.0625.17578.05469.17578.0586.69922.35155.28906.17579.23438.05468.28906.17578.23437.1172.64063.40624.29297.11719.17187.0586.23438.05859.41015.05859.23047.0586.23438.11718.0586.17188-.41017.17578.46875.0586.0586.29296.11328.23438.17578.05468.23438.0586.17578.05859.40625.11719.64062.23437.11719.17188.0586.23437v.17578l-.0586.1172-.0586.40624.23438.23438.11719.05859.34766.11719.64062.23047.17578.11718.28906.1172.17578.17577.23438.46485.58203 1.10546.17578.17579.34766.17578.17578.11719.35156.11718 1.04688.52344.23437.0586.46485.11327.29297.0586.46484.17578.75781.58203.23438.23438.34765.46484.17578.17578.28907.23438.8164.69921.29297.17579.28906.28906.29297.17578.29297.28906.69531.64063.17578.17578.29297.23437.28907.23438.46875.28906.64062.58203.34766.23438.23437.29297.34766.34765.35156.46485.9336.99218.34765.40625.11719.17579.23437.05859.11328.11719.64454.17578.23047.11328.23437.0586.29297.17577.23047.1172.9336.69921.40624.40625.23438.17578.40625.17578.23437.11719.8164.34766.34766.23437.23438.11719.29297.28906.23047.11719.7578.35156.35157.17188.23047.05859.29297.11719.23437.0586.8711.17577h.8164l.46875.23047.17188.0586.875.69921.46484.1172.29297.05858.17578.0586.23047.0586.46875.05859.34766.05859.35156.0586.40625.05859h.29297l.17187.0586v.23046l.17578.17578h.29297l.34766.0586.35156.05859.69922.11719h.64063l.46484-.23438.29297-.17578.17187-.11719.41016-.17187.28906-.17578.9336-.46485.46875-.29297.52343-.29296.46485-.17188.46484-.17578 1.05078-.46485.28906-.11718.41016-.11719.28906-.11719.52735-.17578 1.51562-.69922.58203-.34765.28907-.0586.29297-.0586.34765-.11718.875-.23047.35156-.11719h.11329l.23437-.05859.875-.23437.23438-.0586h.8125l.35156-.0586.8164-.11718.17188-.0586.35156-.05468.29297-.0586.23047-.05859.8164-.17578.17579-.0586h.34765l.23438-.05859.46484-.11718.75781-.17188.23438-.0586h.34765l.41016-.11718.28906-.0586 1.28516-.05859h.28906l.41016-.0586.23047-.05858h.17578l.875-.1172h.40625l.41015-.11718h.34766l.35156-.11328.8711-.0586h1.75l1.04687.28907.41016.11719.28906.11718.35156.11719.28907.11719 1.05078.17187.28906.0586h.29297l.29297.05859.17187.0586.41016.05859.17187.0586.1172.05858h.11718l.11719.0586.35156.0586h.11328l.41016.0664 1.92187.39453 1.92578.39453 1.51953.44922 1.69532.71875 2.14453.80469 1.60547-.71875 1.42968-.80469 1.16016-1.07813 1.25-.44921 3.03516-.71875 1.875-.35938 2.14453-1.34765 2.23437-1.25391 2.5-1.25781 1.69531-.44922 1.78516-.17969 1.16016-.26953.625.53906 1.33984-.26953.71485-.98828.98437-1.34375.44531-.17969.80469-.35937 1.875-.53907 1.78516-.44921 1.25-.26954 1.16015-.08984 1.69922-.08984 1.96094-.26954 1.25-.08984h.53906l.625-.08984h.89063l2.14453-.17969 2.41015-.17969 2.58985-.08984 1.69531.17969 1.60938.08984 1.42968.35938 1.16016.71875 1.875.98828 1.16015 1.52734.26563.71484.6289.08985.35548.89844.53515.53906.53516 1.52734 1.07422.35938h.53515l-.80469.53515.08985 1.70703.71484 2.69532.89063.80468.89453.98829.71484 1.2578 1.78516.53907 1.51953-.17969.35547 1.34375 1.60937-.80469.98047-.53906.26953.26953.31641-.21484.21875-.14453.80078.44922.44922-.35938h.35547l.53515-.26953.53907-.71875.53515-.26953.625-.98828 1.16016.44922.83984.3711 1.39454.61718 1.6953-.17969h1.60548l1.78515.08985.17969-1.70704.53516-1.34375.80468.26954.4922.84765.40233.40625-.08984.53906v.35938l.71485.44922.71093-.26953h1.42969l.35938.98828.4453 1.25781.71485 1.34375 1.25.6289 1.69531.62891.71485-.17969.17969-.53906.98046-.08984.44922.35937.08594 1.25782-.26563.6289-.53515.17969v.53906l.71484.98438.26563.53906.98437.98828.80078 1.07813-.26562.35937-.08985.89844-.625 2.33203-.35546 2.0664-.08985 1.79298-.17969.71875-.08984.53906v1.4375l-.98047 1.88281-.35937 1.70703-.53516.89844-.80469 1.16797-.26562.53906 2.05469 1.2539.08593.35938-.35546.53906-.08985-.17968v.80859l.08985 1.4375-.44532.71484-1.07422.09375-.26562.71485.53515.89844.8047.71875 1.16015.80859 1.33984.26953.44531.35938-.35546.44921-1.78907-.08984-1.25-.44922-.71484-.71875-.625-.08984-.17578 3.58984-.1875 1.3086h89.35937V311.70313h-55.26953v49.08203l.76172.125 3.28906.54296 2.02344 2.83594v2.7539l2.35156.33204 2.34766.33203h4.05078l-1.3789 4.16016-2.02344.70703-2.02344.70312-.54297.34375-2.59375 1.6172-.1875.11718-2.02344-2.07813-.73046-2.74218-2.67188-2.07813-1.375-3.5-.0664-.08203-1.95704-2.67188 2.75-1.41796v-49.08204H294.42187v91.41407l.1172.03125.1328.01172.07422.07421.10547.04688.08985.0586.08593.05859.08985.0586.29687.29687.0586.08984.03125.11719.02734.11719.01563.13671-.03125.1172-.0586.08983-.0586.08594-.04296.10547-.04688.10156-.02734.1211v.14453l.17578.26953.14844.14844.07422.08594.07422.07421.04296.10547.0625.08985.0586.08593.04297.10547.0586.08985.04687.10156.04296.10547.0586.08594.11719.17968.07421.07422.0625.08594.0586.08984.04297.10547.0586.08985.05858.08593.0625.08985.0586.08984.04297.10156.11719.17969.07421.07422.0586.08594.07422.07421.08984.0586.10547.04687h.14844l.1328-.01562.13282.01562.10156-.04687.07422-.07422.04688-.10156-.01563-.13281v-.14844l-.04687-.10547-.02735-.11719-.04687-.10156-.02735-.1211-.04296-.10156-.0625-.08984-.04297-.10156-.04297-.10547-.03125-.11719-.01563-.13281-.01171-.13672.08593-.0586.0586-.08593.12109-.03125.04297.10547.01562.1328v.1172l.0586.10156.0586.08984.08983.0586.14844.14843.0586.08985.04296.10547-.01171.10156.08593.0586.10547.04687.08594.0586.08984.05858.07422.07422-.11719.02735-.10546.04687-.08594.0586-.07422.07421-.0586.08985-.0625.08594-.02734.12109-.04687.10156-.04297.10547-.03125.11719-.01172.13281-.01563.13281v.14844l.02735.11719.04687.10547.04297.10156.0586.08984.07421.07422.08985.0586.07422.07421.08984.0586.0586.08984.04296.10547.04688.10156.11719.03125.1328.01563h.14845l.11718-.03125.10547.04297.04297.10547.04688.10156.02734.1211L299.5 410l.02734.11719.03125.1211.02735.11718.10547.04297.10156.04687.13281-.01562.14844.14844.0625.08593.07422.07422.07031.07422.08984.0625.10547.04297.10156.04297.1172.03125.13671.01562.11719-.03125.07422-.07422.02734-.11718-.01172-.13282-.03125-.12109-.02734-.11719.04297-.10547h.11719l.08984.0625.11719.02735h.14843l.13282.01562h.14843l.13282.01563.1328-.01563h.14845l.1328-.01562.13282-.01172.13672.01172.11719-.02735.13281-.01562.1914-.0586-.05859.17579-.01562.1328-.02735.1211-.01562.13281-.0586.08594-.1328.01563-.10548.04687-.10546.04297-.1172.03125-.11718.02735-.26563.03125h-.14843l-.13281.01562-.07422.07422.05859.08594.14844.14843.11719.1797.07421.0703.08985.0625.08984.0586.08594.0586.08984.05858.10156.04297.10547.0625.10547.04297.08594.0586.10547.04687.10156.04297.17969.11719.0586.08984-.04298.10156-.04687.10547.01562.13281.22266.22266.0586.08985.04296.10156.03125.1211.04297.10155.01563.13282.03125.11718.01171.13672.03125.11719.14844.14844.10156.04297.10547.04296.1172.03125.1328.01563.13672.01563h.11719l.11719-.03125.08984-.0586.04297-.10547.04688-.10156.04296-.10547.03125-.11719.01172-.1328v-.14845l-.01172-.1328-.01562-.13282-.03125-.11719-.04297-.10547-.04688-.10547-.04296-.10156-.04297-.10547-.01563-.13281.01563-.13281.02734-.11719.03125-.11719.02735-.1211.04687-.10155.08984-.0586.08594-.0625.07422-.07422.08984-.05859.22266-.22266.0586-.08593.07421-.07422.11719-.17969.0586-.08594v-.14844l-.07423-.07421-.10156-.04688-.10547-.04297-.10156-.04297-.0586-.08984-.04687-.10547-.02734-.11719.08984-.05859.11719-.03125.10156-.04297.17969-.11719.14844-.14843.01172-.13282-.01172-.10546-.08985-.0586-.1328.01563h-.14845l-.1328.01562-.13282-.01562-.1211-.03125-.08593-.0586-.07422-.07422-.0586-.08984-.0625-.08594-.11718-.17969-.0586-.08593.03125-.1211.08594-.05859.1211-.03125.05859-.08594v-.1211l-.03125-.11718-.0586-.08984-.05859-.08594-.04687-.10547-.02735-.11719-.01562-.1328.0586-.08985.07421-.07422.08984-.0586.1172-.17968.07421-.07422.0586-.08594.14843-.14844.1211-.03125.1328-.01562.13282.01562.07422.07422.04297.10547.01562.13281-.03125.1172-.11719.03124-.1328.01172-.14844.14844-.04297.10547-.04688.10156-.02734.1211-.03125.11718v.14844l.03125.11719.04297.10546.05859.08985.07422.07031.07422.07422.11719.03125.12109.02734.11719-.02734.1328-.01563h.1172l.08984.0586.07422.07422.04687.10546.0586.08594.10156.04688.13281.01562.10547.04297.08594.0586-.01172.10546-.07422.07422-.17969.11719-.05859.08984-.08984.0586-.07032.07422-.07421.07421-.0625.08985-.02735.11719-.01562.1328.01562.13282-.01562.13281v.14844l.01562.13281.02735.1172.03125.12108.07421.07422.08985.0586.08594.0586.08984.05858.11719.03125v.08594l-.10157.04688-.08984.0586-.26563.03124-.11718.02735h-.14844l-.10547.04296-.10156.04688-.0586.08984-.0625.23438-.01171.13281-.03125.1211-.01563.1328v.29298l-.01172.1328.01172.13673.01563.1328.1328.01563.13282.01172.1211.03125.08593.0586.07422.07421.04688.10547.04296.10157.01563.1328v.44532l-.01563.13281v.44532l.03125.26562.02735.11719.01562.13281.03125.11719.08594.21094.03125.26562v.14844l-.03125.11719-.02734.11718-.03125.1211-.02735.11719-.03125.11718-.03125.1211-.01171.1328-.01563.13282.08984.0586.1172-.03125.10155.01562.04688.10547-.03125.26562v.44141l-.04297.10547-.04688.10547-.04296.10156-.04297.10547-.0586.08594-.03125.12109-.04296.11719-.03125.11719-.01563.1328.01563.13282.05859.08984.10547.04688.08594.0586.05859.08593-.01172.13672-.03125.11719-.04297.10156v.44531l-.01562.13281v.14844l-.03125.11719-.04297.10547-.02735.11719-.04687.10546-.04297.10157-.03125.12109-.02734.11719-.03125.13281-.03125.11719-.02735.11719-.04297.10546-.03125.1172-.03125.12108-.01171.13282-.01563.13281v.29688l.02734.11718v.14844l.04688.39844.02734.11719.0586.08984.12109.03125h.14844l.13281-.01563.0586.08985v.11719l-.0586.08984-.08984.0586-.10157.04296-.10546.04688-.08985.05859-.08594.0586-.13671.01562-.1172-.03125-.1328-.01563-.10157.04688-.0625.08594-.01172.13671-.01562.13282-.03125.11719-.02735.11718-.01562.13281-.03125.1211v.29687l.01563.13282.03125.11718v.14844l.01171.13281v.14844l-.02734.11719-.04688.10156-.02734.1211-.03125.11718-.0586.08985-.07421.07421-.10156.04297-.10547.04688-.11719.02734-.1211.03125-.10156-.04687.0586-.08594.10547-.04688.02734-.11718.03125-.11719.02734-.1211.03125-.11718v-.14844l.01563-.13281-.03125-.11719-.04297-.10547-.10547.01563-.07422.07422-.10156.04296-.08984.0625-.07422.07422-.04297.10157-.01563.1328-.03125.1172L304.25 426l-.03125.11719-.02734.11719-.03125.12109-.02735.11719-.03125.11718-.04297.10547-.08984.0586h-.08984l-.1172-.03125-.03124-.08594.01562-.13672-.03125-.11719v-.14844l-.01171-.1328v-.14844l-.0625-.23438-.02735-.1211-.04297-.10156-.04687-.10546-.0586-.08594-.05859-.08985-.04297-.10546-.0625-.08594-.14844-.14844-.0703-.07422-.10548-.04687-.10547-.04297-.10156-.04297-.29687-.29688-.08985-.07421-.08594-.0586-.10546-.04297-.08985-.0625-.08594-.0586-.10546-.04296-.08985-.0586-.08594-.0625-.07421-.0703-.10547-.04688-.08594-.0586-.10547-.04296-.08984-.0625-.10156-.04297-.10547-.04297-.08594-.0586-.10547-.04687-.10547-.04297-.10156-.04687-.08985-.0586-.10156-.04297-.10547-.04296-.08984-.0625-.11719-.02735-.13281-.01562-.13281.01562H299.75l-.13281.01563-.11719-.03125-.08984-.0586-.07422-.07422-.08985-.05859-.10156-.04688h-.14844l-.12109-.02734-.10156-.04297-.07422-.07422-.11719-.17968-.08984-.0586-.10156-.04297-.08985-.0625-.10547-.04296-.08984-.0586-.08594-.0586-.10547-.04687-.0586-.08594-.05858-.08984-.04297-.10547-.04688-.10156-.07422-.07422-.08594-.0586-.07421-.07421-.08985-.0586-.22265-.22265-.04297-.10547-.03125-.26563.10547-.04296h.14453l.10547.04296.07421.07422.08985.0586.08594.0586.10546.04687.08985.05859.14844.14844.0703.07422.14845.14843.0625.08594.07421.07422.08594.0586.07422.07421.08985.0625.08984.0586.08594.05859.26953.17578.10156.04688.10547.04296.10156.04297.04688-.07421.05859-.08594.07422-.07422.07031-.07422.10547.04297.07422.07422.0586.08984.04296.10156.04688.10547.04296.10547.1211.02735.11719-.02735.07421-.08984.04297-.10547.0586-.08985.07422-.07421.10546-.04297.1172-.02735.1328.01172.08985.0586.14844.14843.05859.08985.04297.10547.04687.10156.04297.10547.04297.10156.10547.04688.10547.04296.13281.01563.08594-.0586.0586-.08984.07421-.07422.10547-.04297.11719.02735.10547.04687.10156.04297.10547.04297.10156.04688.17969.11718v.11719l-.01563.13281.01563.13281.01562.13672.0586.08594.10156.04688.1211.02734.11718.03125h.14844l.11719-.03125.05859-.08984.17969-.1172.05859-.08983.07422-.07422.0586-.08594.11718-.17969.17969-.11719.11719.03125.08984.0586.04297.07422-.01563.1328v.1172l.08985.05859h.14843l.13282-.01563.1328-.01171.26563-.03125.10547-.04297.11719-.03125.1211-.02735.07421-.07421.07031-.07422.0625-.08985-.01562-.10547-.04688-.10156-.10156-.04297-.10547-.01562-.11718.02734-.26563.03125h-.14844l-.07421-.07422-.08985-.0586-.11719-.03124-.11718-.02735-.13282-.01562h-.14843l-.13282.01563h-.29687l-.10547-.04688-.14844-.14844-.04297-.10156-.05859-.08984.22266-.22266.08593-.0586.10547-.04296.11719-.03125.13281-.01563.13281.01563.13672.01562.10157.04297.1328-.01172.08985-.0625.10156-.04297.0625-.08984-.04687-.10156-.08984-.0586-.1172-.03125-.10155-.04296-.0586-.08985-.0625-.08984v-.11719l.01563-.13281.10547-.04688.07421-.07031v-.1211l-.08984-.05859-.03125-.11719.08985-.05859.07421-.07422.04297-.10547.0586-.08984.04687-.10156.01563-.13281v-.14844l-.04688-.10547-.04297-.10156-.08984-.0586-.13281-.01562-.10157-.04297-.13671-.01563-.1172-.03125h-.4453l-.13282-.01562-.13281-.01172-.13281-.01563-.11719-.03125h-.14844l-.13281-.01562-.13281-.01172-.26563-.03125-.1211-.04297-.08593-.0586-.07422-.07421v-.14844l.01172-.13281.10547-.04688.10156-.04296.13281-.01563h.15235l.13281-.01562h.29297l.1211.03125.10156.04296.08984.0586.23438.0625.12109-.04688.08984-.05859.10156-.04297.13282-.01562.10547.04296.10156.04688.13281.01172.1211-.02735h.14453l.12109-.03125.11719-.02734.10547-.04687.07421-.07422.08594-.0586.14844-.14843.0586-.08594.04687-.10547.02734-.11719.01563-.10547-.10156-.04296-.08985-.0586-.11719-.03125-.10546-.04297-.08985-.0625-.07422-.08594-.07422-.07421-.10156-.04297-.10547-.04688-.10156-.04297-.0586-.08984-.04687-.10156-.08594-.21094-.0625-.08594-.05859-.08984-.07422-.07422-.08594-.0586h-.26953l-.11719.03126-.08984.05859-.10156.04297-.13281.01562-.10547-.01562-.02735-.11719-.0625-.08984-.11718-.03125-.10157-.04297-.14843-.14844-.03125-.11719-.01563-.10546.07422-.07422.17969-.1172.11719-.02733.11718-.03125.13672.01562.10156.04297.10547.04297.10156.04687.10547.04297.1172.03125.1328.01563.1172.02734.1328.01563.10547-.01563.08985-.0586-.07422-.07421-.10547-.04297-.07422-.07422-.07422-.08984-.14844-.14844-.08593-.0586-.08985-.05859-.07422-.07422-.08984-.0586-.10156-.04687-.1211-.02734-.10156-.04688-.10547-.04296-.11719-.03125-.10156-.04297-.1211-.03125h-.14843l-.11719.03125-.10546.04297-.08594.0625-.17969.11718-.08594.0586-.08984.0586-.10547.04687-.08594.05859-.10547.04297-.10156.04297-.10547.04687-.07422.07422-.05859.08985-.0586.08593-.04687.10547-.0586.08594-.07421.07422-.13281-.01172-.1172-.03125h-.11718l-.07422.07422-.08984.0586-.07422.07421-.08984.0586-.08594.05859-.10547.04687-.10156.04297-.13672.01563-.10156-.04297-.14844-.14844-.10547-.04688h-.08594l-.10547.04688-.10156.04297-.1211.03125-.11718-.03125-.07422-.07422v-.11719l.03125-.1211.07422-.0703.0586-.08985.07421-.07422.11719-.03125.10547-.04296h.29297l.13281-.01563.13672-.01563.10156-.04296.08985-.0586.10156-.04687.08984-.0586.13281-.01171.08985.05859.13281.01172.08984-.0586.08594-.05859.10547-.04297.08984-.0586.08594-.0625.08985-.05859.14843-.14843.0586-.08594.05859-.08985.10547-.04296.13281-.01563.11719.02735.1211.03125.05859-.0586.05859-.08984.03125-.26563.02734-.11719.10547.01172.13281.01563.10157-.04297.08984-.0586.0586-.08984.07421-.07422.0586-.08984.04687-.10156.01172-.13281-.01172-.13282-.04687-.10547-.14844-.14843-.0586-.08985-.05859-.08594-.04297-.10546v-.44532l.01563-.1328v-.14845l.01172-.1328-.0586-.0586-.08984.0586-.10156-.04298-.17969-.11719-.08594-.05859-.0625-.08984-.0586-.08985-.07421-.07421-.08594-.0586-.1211.03125-.10155.01172-.10547.04688-.08594.05859-.10547.04297-.14844.14844-.08984.05859-.08594.0586-.08984.0625-.10547.04296-.13281.01563v-.1211l.10547-.04297.11718-.03125.07422-.0703.04297-.10548v-.14844l-.02734-.11718-.14844-.14844-.13281-.01563h-.14844l-.11719.03125-.10547.04297-.10156.04297-.08984.0625-.11719.02735-.07422-.07422.01172-.13281-.04297-.10157-.04297-.10547-.08984-.05859-.11719.02734-.1211.03125-.11718.03125-.10156.04297-.1211.03125-.10156.04297-.10547.04297-.08984.0586-.10156.01562v-.11719l.01562-.13281-.0586-.08985-.07421.04297-.14844.14844-.0586.08985-.07421.07421-.04688.10547-.04296.10156-.07422.07422-.0586.08985-.07422.07422-.05859.08593-.07422.07422-.08984.0625-.07422.07031-.07422.07422-.10156.01563-.13281.01562-.10547-.04296v-.1211l.14843-.14844.04297-.10156.0586-.08984.04687-.10156.04297-.10547.0586-.08985.03124-.11719.04297-.10156.03125-.1211.02735-.11718.04687-.10547.04297-.10156.04297-.10547.07422-.07031.08984-.0625.08985-.0586.10156-.04296h.29687l.26563-.03125.10547-.04297-.07422-.07422-.11719-.03125-.10547-.04297-.08984-.0586-.10156-.04687-.08985-.0586-.10156-.04296-.10547-.04297-.08984-.0625-.08594-.0586-.10547-.04296-.10156-.04297-.1211-.03125-.11718-.03125-.10157-.04297L297.5 410.25l-.10156-.04297-.08985-.0586-.04296-.10546-.01563-.13281.10156-.04297.13281-.01563.13672.01563.13282-.01563.10156-.04297.0586-.08984.01562-.10547-.08985-.0586-.07421-.07421-.10157-.04297-.08984-.0586-.14844-.14843-.04297-.10547-.01562-.13281v-.29297l-.0586-.08985-.08984-.05859-.07422-.07422-.04297-.10547-.03125-.11718-.0586-.08985-.07421-.07422-.11719-.02734-.07422-.07422-.08984-.0586-.08984-.0625-.08594-.05859-.07422-.07421-.0586-.08594-.04687-.10547-.08594-.0586-.14843-.14843-.19532-.0586-.1328.01563-.10157.04297-.07422.07422-.04688.10156-.04296.10547-.0586.08984-.0586.08594-.29687.29687-.08984.0586h-.08594l-.0625-.08594-.04297-.10547.03125-.11719.0586-.08984.02734-.11719-.01172-.13281-.08984-.0625-.10547.04688-.11719.02734-.11719.03125-.26953.17578-.10156.04688-.11719.02734-.10546.04687-.08985.0586-.10156.04297-.0586-.08594-.04687-.10547.01563-.13281.04687-.10547.07031-.07422.07422-.07031.0586-.08985v-.14843l-.04297-.10547h-.23829l-.10156.04687-.03125.11719-.02734.11719-.03125.1211-.07422.04296-.13281.01563-.07422-.04688-.04297-.10156-.04297-.10547-.04687-.10156-.04297-.10547-.1211.03125-.10156.04297-.13281.01562-.11719.03125-.10547.04297-.08984.0586-.10156.04687-.1211.02734-.13281.01563-.10156-.04297-.0586-.08985-.04687-.10546-.04297-.10157-.04297-.10546v-.1172l.0586-.08984.08593-.05859.17969-.11719.10156-.04687.10547-.04297.10547-.0586.10156-.04296.08985-.0625.10156-.04297.10547-.0586.10156-.04687.08984-.0586.10547-.04296.10156-.04297.08985-.0625.10156-.04297.13672-.01563.11719.03125.10156.04297.1211.03125.10156.04297.10546.04688.10157.04296.10547.04297.10156.04688.10547.04297.10156.04297.10547.04687.08594.0586.10546.04296.1172.03125.10546.04297.10156.04688.08985.0586.10547.04296.10156.04297.10547.04687.11719.02735.10156.04687.1211.02735h.14843l.08594-.0586.01562-.10156.0586-.08984-.02735-.1172-.07422-.07421-.11719-.17969-.07421-.07422-.08985-.07421-.17969-.1172-.08593-.05859-.10547-.04296-.10156-.04688-.26954-.17578-.05859-.08985-.07422-.07421-.0586-.08985-.04296-.10156-.03125-.11719-.01563-.13672v-.5625l-.01171-.1328-.01563-.13282-.03125-.11719-.01562-.13281-.01172-.13281-.03125-.1211-.22266-.22265-.0586-.08594-.01562-.10547.03125-.11719.13281-.01562v-91.41406H172.9922v1.45312l-.0586.23438-.35156 1.05078-.17187.52343-.1172.34766-.17577.41016-.11719.17187-.23438.29297-.23046.0586h-.35157l-.11718.05859-.23047.40625v.29297l.11719.17578.23046.23047.1172.23437.64062.75781.29297.46485.17578.23437.23047.35156.23437.34766.64063.8164.17578.46485.17187.41016.11719.69531.17578.46875.11719 1.39844.0586.46484v.875l.11718 1.04688v4.78125l-.0586.46484-.35156 1.28125-.17578.52344-.11328.41015-.35156.9297L172.93359 336l-.23437.58203-.11719.17578-.17187.34766-.17578.40625-.35157.8164-.0586.29297-.11327.29297-.11719.28906-.0586.17579-.11718.875-.0586.40625-.05859.11718-.0586.17579-.05859.17187-.23047.52734-.11718.17188v.23437l-.11719.23438-.0586.17187-.17577.58594v.28906l-.0586.17579v.29296l-.0586.11329-.05859.52734v.17187l-.05468.23438v2.6211l-.17578.8164-.1172.17578-.17577.23438-.1172.17187-.11327.23438-.58594.93359-.23047.28906-.29297.46485-.17578.23437-.28906.35156-.35156.69922-.11328.23047-.17579.41016-.17578.23046-.40625.52735-.8164.69922-.29297.17187-.28906.23438-.17579.11719-.17578.17578-.52344.40625-.52734.17578-.17187.17578-.23438.05469-.64062.17578h-.75782m12.21094 31.02344l-1.07422.44921.35938.89454 1.25-.71485.44531-.53906-.98047-.08985"/><path fill="#d3d3d3" fill-opacity="0" fill-rule="evenodd" d="M201.50781 416.59766h-.89453l.44922.6289.98047.35938.80469-.08985.4453-.98828-.17577.08985-.71485-.35547-.89453.35547m154.6211 59.0703l-.0586-.52343v-.29297l.11328-.29297.0586-.23046.46875-.46875h.11328l.11719-.11329.11718-.05859h.17579l.23437-.0586h.34766l.23437.0586.11719.0586.23047.17187.0586.17578.11718.58203v.29297l-.11719.17578-.17187.28906-.17579.17579-.52734.52343-.23047.23438-.11719.0586h-.17578l-.11718-.0586-.40625-.29297-.17579-.11719-.11718-.0586-.0586-.11327-.05468-.1172m6.64062-10.95702l-.0586-.17188v-1.10937l.0586-.17188.17578-.0586.17188-.05858h.17578l.23437-.0586.1172.0586.05858.69921-.05859.17188-.11719.17578-.11718.0586-.23438.52343-.11328.0586h-.23438l-.05859-.1172m9.61328-14.39062l-.11719-.17578v-.69922l.29297-.875.1172-.17187.17577-.35156.11328-.23047.1172-.29297.35155-.75781.1172-.23047.17187-.23438h.17578l.11719-.0586h.64062l.11719.0586.23437.23438.17188.11328.35156.29297.11719.11718.11328.17579v.11328l.11719.05859.11718.11719v.69922l-.05859.17578v.23047l-.0586.17578-.34765 1.05078-.11719.23047-.11719.23437-.11718.0586-.23047.23437-.64063.28906h-.875l-.41015-.11718-.64063-.46485"/><path fill="none" stroke="#bebebe" stroke-linecap="round" stroke-linejoin="round" stroke-miterlimit="10" stroke-width=".5" d="M467.95703 311.69531H144.02734v168.625h323.9297v-168.625"/><g clip-path="url(#a)"><path fill="#fff" fill-opacity="0" fill-rule="evenodd" d="M144 475.89063v4.4375h.0039H144V311.67188h.0039H144v164.21875"/></g><g clip-path="url(#b)"><path fill="#fff" fill-opacity="0" fill-rule="evenodd" d="M144.0039 480.32813V311.67188h17.75v70.91015l-.16406.10156-4.27343 1.71094-2.875 2.73047.51953 4.4375 2.35547 2.64453 4.4375 1.41797 4.14062-4.0625.29688-.4961v6.55079l-2.5586 2.82031 2.5586 2.02734 2.68359-2.02734-2.6836-2.82031v-6.55078l1.89063-3.94141-1.89062-1.9961-4.33203-2.4453-.10547-.10157v-70.91015h26.6289v45.54296l-4.4375 1.00391-3.3086 2.27344-1.1289 1.84765-3.49219 2.59375.1172 4.4375 3.375 3.6211.7539.8164 3.6836 3.45313 4.11327-3.45313.0625-4.4375.26172-3.40625 2.82031 3.40625-1.80468 4.4375-.71875 4.4375.91015 4.4375 3.23047 2.8125 2.90235 1.62891 1.53906 1.78516.57422 2.65234-.57422.82813L193.85938 396l-1.03907.47266-.80469-.47266-3.6328-3.82031-1.23829-.61719-3.19922-3.2539-2.97656 3.2539 2.97656 3.5664.41016.8711-.41016 2.23828-2.9961 2.19922-1.4414.78906-2.61719 3.64844 1.51954 4.4414 1.09765 1.16798 4.4375-.5 4.4375 1.40625 3.90235 2.36328.53515.82812.23047 3.60938-.23047 1.48046-2.11328 2.95704 1.44922 4.4414.66406.6289 4.4414 2.04688 4.4375 1.17579 4.4375.57421.25.01172 4.1875 1.79688 4.44142 1.30469 4.4375-1.7461 1.59375-1.35547 2.28906-4.4375.55469-.34375 4.4375-.30078 4.4375-.28906 4.4414-2.3164.97656-1.19141-.97656-1.40235-.375-3.03515-4.0664-4.33204-.09766-.10546-4.33984-3.85938-1.59375-.57812-2.84375-3.10547-1.90625-1.33594-2.53125-2.02734-4.4375-2.13282-3.66016-.27734-.78125-1.14453L208.72656 396l-1.16797-4.4375-1.42187-1.53516-4.4375-2.77343-1.03906-.12891 1.03906-.9375 1.79297-3.5039 2.1836-4.4375-3.97657-3.53907-4.4375-.69922-1.59766-.19922-1.46875-4.4375-1.375-1.53125-3.47265-2.90625.74218-4.4414-1.70703-3.27735v-45.54296h35.50781v82.61718L220.17188 396l3.71875 1.90234L226.33203 396l-2.4414-1.71094v-82.61719h8.875v76.54297l-3.71485 3.34766 3.71484 3.42578 4.13282-3.42578-4.13281-3.34766v-76.54296h17.7539v69.39843l-1.47266 1.61328 1.47266 1.48829v32.30468l-.98047 1.71485.98047.86328 4.4375.4961 2.23438-1.35938-2.23438-1.4336-4.4375-.28125v-32.30469l2.76172-1.48828-2.76172-1.61328v-69.39844h22.1914V355.625l-.39062.42969.39063.57422 1.39062-.57422-1.39062-.42969v-43.95313h13.3164v33.39454l-3.7539 2.11328-.6836.26562-4.15625 4.17188 4.15625 3.07422 3.88282 1.36328.55468.46094.51172-.46094 3.1211-4.4375-1.91016-4.4375-1.72266-2.11328v-33.39454h8.875v60.21094l-1.96093 1.92578 1.96093.6797 1.10938-.6797-1.10938-1.92578v-60.21094h13.31641v32.01563l-3.91406 3.49219-.52344 2.28515-1.08984 2.15235 1.08984 1.70703 4.4375-.1211 2.27344-1.58593 2.16406-2.71094 4.4414-1.03906 2.625-.6875-2.625-1.58203-4.4414.11718-4.4375-2.02734v-32.01563h17.7539v19.56641l-1.6328 2.625 1.6328 1.5039 3.67579-1.5039-3.67578-2.625v-19.5664h17.7539v13.98046l-4.4375 2.60547-1.6914 1.16797 1.6914 1.26563v93.86718l-2.59765 2.51172 2.59765 2.54297 2.53125-2.54297-2.53125-2.51172v-93.86718l4.29297 3.17187.14453.27735.46485-.27735 3.02343-4.4375-3.48828-3.77344v-13.98046h26.6289v124.93359l-3.6875 3.77734-.75.69922-4.4375.45703-4.4375.1836-4.4414 1.6953-2.97656-3.03515-1.46094-1.45703-1.64453 1.45703 1.64453 2.6211 1.88281 1.8164-1.8828 2.79297-4.4375.4375-4.4375-2.67187-4.44141.35937-4.4375 1.27735-2.41407 2.24609-2.02343 2.67578-2.13282 1.76172 2.13282 2.9336.30859 1.5039 4.1289 3.36719 4.4375.27734 1.48829.79297 2.95312 2.46094 4.4375 1.09375 4.4375.03515 4.4375.26172 4.4414-.13672 4.4375.03516 4.30079.6914.13672.08985.66797-.08985 3.76953-.09375 4.4375-.125 4.4414.20704 3.91016-4.4297-.08594-4.4375.61329-1.54687 3.18359-2.89062-3.1836-3.53516-1.17968-.90234-3.25781-3.07031-.36329-1.3711-4.07812-4.14844-.36719-.28906-4.07031-3.77734v-124.9336h26.6289v82.59766L395.25781 396l1.72656 1.73047v28.54687l-.86718.79297.86719 2.51563.2539 1.92187 1.51953 4.4375 1.32031 4.4375-1.05859 4.4375.34766 4.4414 2.0586 2.13282 1.53515-2.13281 1.92578-4.4414.97656-.46485 4.4375-1.44922 4.4375.34766 3.33594 1.5664 1.10547.91406 1.45312-.91406-1.45312-1.47656L418 440.38281 414.73828 437.5l-.66797-1.55469-3.76953-3.76562-.6289-.67188-3.8086-3.77344-4.4375.31641-3.47656-.98047-.96485-.79297v-28.54687L399.54298 396l-2.5586-1.73047v-82.59765h26.63282v80.03515L419.21875 396l2.50781 4.4375-.20312 4.4375-2.34375 1.52734-3.46094-1.52734 1.01172-4.4375L418.83984 396l-4.10156-2.73047L411.91797 396l.73828 4.4375.86328 4.4375-.3711 4.4414 1.58985 1.64844 2.83203 2.78907-.875 4.4375 2.48438 2.55859 1.91406 1.8789 2.52344 2.31641 3.30469-2.3164 1.1328-.27735 4.4375-.5039 4.4375-1.125 2.67188-2.53125 1.76953-1.02735 3.57422-3.41015.86328-1.91016 2.17579-2.52734-2.17579-2.23438-1.01562-2.20703-.16016-4.4375-3.26172-3.57422-4.4414 2.85547-.71875.71875-3.71875 2.39844-4.4375-.53906-2.58985-1.85938L427.92578 396l-4.3086-4.29297v-80.03515h26.62891v113.24218l-2.17968 2.15625 2.17968 3.35156 2.20704-3.35156-2.20704-2.15625V311.67187h17.75v168.65625H144.00391"/></g><path fill="#50fcfc" fill-rule="evenodd" d="M154.96094 391.5625l-.51953-4.4375 2.875-2.73047 4.27343-1.71094.16407-.10156.10547.10156 4.33203 2.44532 1.89062 1.99609-1.89062 3.9414-.29688.4961-4.14062 4.0625-4.4375-1.41797-2.35547-2.64453m11.23047 10.90234l-2.5586-2.02734 2.5586-2.82031 2.68359 2.82031-2.6836 2.02734m9.94141-33.09375l-.11719-4.4375 3.4922-2.59375 1.1289-1.84765 3.3086-2.27344v5.40625l-.91798 1.3086-3.51953 1.78906-1.76562 2.64843 1.76562 1.89454 2.35938 2.54296 2.07812 1.94922 2.32031-1.94922 1.23438-4.4375-2.7461-4.4375-.80859-1.30859v-5.40625l4.4375-1.0039 1.70703 3.27734-.74218 4.4414 3.47265 2.90625v6.27344l-3.47265 4.13281 3.17968 4.4375.29297.25782 4.4414 2.78906 3.11329-3.04688 1.32422-1.22265 2.45703-3.21485-2.45703-2.1875-4.4375-1.46875-4.4414-.47656v-6.27344l1.375 1.53125 1.46874 4.4375 1.59766.19922 4.4375.69922 3.97656 3.53906-2.1836 4.4375-1.79296 3.50391-1.03906.9375 1.03906.1289v1.28516l-2.71094 3.02344-1.72656 2.48047L195.41797 396l-2.59766 1.17969L190.8047 396l-2.42188-2.54688-3.79687-1.89062-.64063-.65234-.59375.65234.59375.71094L185.69921 396l2.6836 4.26953.07422.16797-.07422.42969-3.7539 4.00781 3.7539 2.44922 1.03516 1.99219 3.40234 3.0039.33594 1.4336.73438 4.4375-.27344 4.4375 3.64453 4.27734.20312.16406 4.23438 2.375 4.4375 1.23438 4.4375.32422 3.6836.5039.7578.41406.71875-.41406 3.62891-4.4375.08984-.5 4.4375-2.64062 4.4375-1.21875 4.4375.72265 1.125-.80468 1.52344-4.4375-2.64844-2.82032-1.47656-1.61718-2.96094-2.62891-4.4375-1.7539-.10546-.0547-4.33203-4.10156-.42188-.33984-4.01563-3.46094-4.4414-.64062-1.59766-.33594-2.83984-3.15234-4.4375-.76563L200.3164 396l1.3828-.82422 3.41798-3.61328-3.41797-3.02344v-1.28515l4.4375 2.77343 1.42187 1.53516L208.72656 396l1.84766 3.29297.78125 1.14453 3.66016.27734 4.4375 2.13282 2.53125 2.02734 1.90625 1.33594 2.84375 3.10547 1.59375.57812 4.33984 3.85938.09766.10546 4.0664 4.33204.375 3.03515.97656 1.40235-.97656 1.1914-4.4414 2.3164-4.4375.28907-4.4375.30078-.5547.34375-2.28905 4.4375-1.59375 1.35547-4.4375 1.7461-4.44141-1.3047-4.1875-1.79687-.25-.01172-4.4375-.57421-4.4375-1.17579-4.4414-2.04687-.66407-.6289-1.44922-4.44141 2.11328-2.95704.23047-1.48046-.23047-3.60938-.53515-.82812-3.90235-2.36329-4.4375-1.40625-4.4375.5-1.09765-1.16796-1.51953-4.44141 2.61718-3.64844 1.4414-.78906 2.9961-2.19922.41016-2.23828-.41016-.8711-2.97656-3.5664 2.97656-3.2539 3.19922 3.2539 1.23828.61719L192.01562 396l.8047.47266L193.85936 396l3.40235-3.60938.57422-.82812-.57422-2.65234-1.53906-1.78516-2.90235-1.6289-3.23047-2.8125-.91015-4.4375.71875-4.4375 1.80469-4.4375-2.82032-3.40626-.26172 3.40625-.0625 4.4375-4.11328 3.45313-3.6836-3.45313-.7539-.8164-3.375-3.6211"/><path fill="#00e8fc" fill-rule="evenodd" d="M179.50781 371.26563l-1.76562-1.89454 1.76562-2.64843 3.51953-1.78907.91797-1.30859v2.48828l-3.89453 3.25781 3.89453 4.06641 2.51953-4.0664-2.51953-3.25782V363.625l.8086 1.3086 2.74609 4.4375-1.23438 4.4375-2.3203 1.94921-2.07813-1.94922-2.35938-2.54296"/><path fill="#00d4fc" fill-rule="evenodd" d="M183.94531 373.4375l-3.89453-4.0664 3.89453-3.25782v1.33594l-2.29687 1.92187 2.29687 2.39844 1.48828-2.39844-1.48828-1.92187v-1.33594l2.51953 3.25781-2.51953 4.06641"/><path fill="#00c4fc" fill-rule="evenodd" d="M183.94531 371.76953l-2.29687-2.39844 2.29687-1.92187v1.33594l-.69922.58593.69922.73047.45313-.73047-.45313-.58593v-1.33594l1.48828 1.92187-1.48828 2.39844"/><path fill="#00b8fc" fill-rule="evenodd" d="M183.94531 370.10156l-.69922-.73047.69922-.58593.45313.58593-.45313.73047"/><path fill="#00e8fc" fill-rule="evenodd" d="M183.94531 392.27344l-.59375-.71094.59375-.65234.64063.65234 3.79687 1.89063v2.12109L187.9375 396l.44531.71094 1.65235 3.72656-.26563 4.4375 2.53906 4.4414.51172.45313.92969 3.98438 1.53516 4.4375 1.26953 4.4375.70703.83203L201.69922 427l.09375.07031 4.34375 2.2539 4.4375.5547 4.4414.62109 3.28516-3.42969.78906-4.4414.36328-.4375 4.4375-.32032 4.4375-1.13671 4.4375-1.97657.28516-.5664-.28516-.3047-3.78125-4.1328-.65625-.58204-4.4375-3.1953-1.2539-.66016-3.1836-3.01563-1.77734-1.42578-2.66016-2.29297-4.4414-1.20312-4.4375-.91407-.07813-.02734-4.35937-2.30078-4.4375-.8164-4.4414 1.03515L188.78515 396l-.40235-.42578v-2.1211L190.8047 396l2.01562 1.17969L195.41797 396l1.84375-1.95703 1.72656-2.48047 2.71094-3.02344v2.14063l-.79297.88281.79297 1.05469.9961-1.05469-.9961-.88281v-2.14063l3.41797 3.02344-3.41797 3.61328L200.3164 396l1.3828.51953 4.4375.76563 2.83985 3.15234 1.59766.33594 4.4414.64062 4.01563 3.46094.42188.33984 4.33203 4.10157.10547.05468 4.4375 1.75391 2.96093 2.6289 1.47656 1.6172 2.64844 2.8203-1.52344 4.4375-1.125.8047-4.4375-.72266-4.4375 1.21875-4.4375 2.64062-.08984.5-3.6289 4.4375-.71875.41406-.75782-.41406-3.6836-.5039-4.4375-.32422-4.4375-1.23438-4.23437-2.375-.20312-.16406-3.64453-4.27734.27344-4.4375-.73438-4.4375-.33594-1.4336-3.40234-3.0039-1.03516-1.9922-3.7539-2.44921 3.7539-4.00781.07422-.42969-.07422-.16797L185.69921 396l-1.7539-3.72656"/><path fill="#00d4fc" fill-rule="evenodd" d="M188.38281 396.71094L187.9375 396l.44531-.42578.40235.42578 4.03515 2.35547v1.17969l-1.20703.90234.64063 4.4375.5664.96484.72266 3.47657.80078 4.4375 2.33984 4.4375.57813 1.5625 1.63672 2.875 2.80078 2.46875 2.70312 1.97265 1.73438.89844 4.4375.78516 4.4414.64062 2.22657-2.32422.76172-4.4414 1.44922-1.75391 4.4375-.0625 4.4375-1.9961 1.19921-.625-1.19922-1.38671-.53125-3.05078-3.90625-3.17188-2.39843-1.26562-2.03906-1.9336-3.13282-2.50781-1.30469-1.125-4.4414-1.76563-4.4375-.5078L203 400.4375l-1.30078-.6875-2.54688.6875 2.54688.88281 1.5 3.55469-1.5 2.98047-4.4375-1.71094-3.91406-1.26953 2.61718-4.4375-3.14453-.90234v-1.1797l4.4414-1.03515v5.32031l-1.60546 2.23438 1.60547.52344 4.4375.72265.6289-1.24609-.6289-1.48438-4.4375-.75v-5.3203l4.4375.8164 4.35937 2.30078.07813.02734 4.4375.91407 4.4414 1.20312 2.66016 2.29297 1.77734 1.42578 3.1836 3.01563 1.2539.66015 4.4375 3.19531.65625.58204 3.78125 4.1328.28516.3047-.28516.5664-4.4375 1.97656-4.4375 1.13672-4.4375.32032-.36328.4375-.78906 4.4414-3.28516 3.42969-4.4414-.6211-4.4375-.55468-4.34375-2.2539-.09375-.07032-4.4375-3.53906-.70703-.83203-1.26953-4.4375-1.53516-4.4375-.92969-3.98438-.51172-.45312-2.53906-4.44141.26563-4.4375-1.65235-3.72656"/><path fill="#00e8fc" fill-rule="evenodd" d="M192.52734 382.6836l-3.17968-4.4375 3.47265-4.13282v1.32422l-2.36328 2.8086 2.36328 3.07812 4.4414 1.16015 4.39063-4.23828-4.39062-2.68359-4.4414-.125v-1.32422l4.4414.47656 4.4375 1.46875 2.45703 2.1875-2.45703 3.21485-1.32422 1.22265-3.11328 3.04688-4.4414-2.78906-.29298-.25782"/><path fill="#00d4fc" fill-rule="evenodd" d="M192.82031 381.32422l-2.36328-3.07813 2.36328-2.80859 4.4414.125v.96875l-4.4414.22656-1.25 1.48828 1.25 1.62891 4.4414 1.07813 2.8047-2.70704-2.8047-1.71484v-.96875l4.39063 2.6836-4.39062 4.23827-4.4414-1.16015"/><path fill="#00c4fc" fill-rule="evenodd" d="M192.82031 379.875l-1.25-1.6289 1.25-1.48829 4.4414-.22656V377.5l-4.4414.58203-.13672.16406.13672.1836 4.4414.99219 1.21485-1.17579-1.21484-.74609v-.96875l2.80469 1.71484-2.8047 2.70704-4.4414-1.07813m-.5664 25l-.64063-4.4375 1.20703-.90234 3.14453.90234-2.61718 4.4375 3.91406 1.26953 4.4375 1.71094 1.5-2.98047-1.5-3.55469-2.54688-.88281 2.54688-.6875 1.30078.6875 3.13672 1.03906v1.01172l-2.0625 2.38672-1.6289 4.4414-.7461.46876-.20703-.46875-4.23047-2.42188-2.83984 2.42188.51562 4.4375 2.32422 3.85937.29687.57813 3.4961 4.4375.64453.5703 4.4375 3.47267 1.78516.39843 2.65234.5586 4.4414.66015 1.16407-1.21875.73828-4.4414 2.53516-3.07032 4.4375.19922 3.05078-1.5664.10937-4.4375-3.16016-2.56641-3.54296-1.8711-.89453-.84765-4.4375-3.54688-.04297-.04687-4.39844-2.28125-4.4375-.10547v-1.01172l4.4375.50781 4.4414 1.76563 1.3047 1.125 3.1328 2.50781 2.03907 1.9336 2.39844 1.26562 3.90625 3.17188.53125 3.05078 1.19921 1.38672-1.19922.625-4.4375 1.99609-4.4375.0625-1.44921 1.7539-.76172 4.44141-2.22656 2.32422-4.44141-.64062-4.4375-.78516-1.73438-.89844-2.70312-1.97265-2.80078-2.46875-1.63672-2.875-.57813-1.5625-2.33984-4.4375-.80078-4.4375-.72266-3.47657-.5664-.96484"/><path fill="#00b8fc" fill-rule="evenodd" d="M192.82031 378.42969l-.13672-.1836.13672-.16406 4.4414-.58203 1.21485.7461-1.21484 1.17577-4.4414-.99218m2.11718 35.32422l-.51563-4.4375 2.83985-2.42188 4.23047 2.42188.20703.46875.7461-.46875 1.6289-4.44141 2.0625-2.38672 4.4375.10547v.60547l-4.4375.30078-1.1875 1.375 1.1875 3.83203.27344.60938-.27344.2539-4.4375 3.1836-1.51563-3.4375-2.92187-1.67188-1.96094 1.67188.23047 4.4375 1.73047 2.87109.8086 1.5664 3.6289 4.03907 1 .39844 3.4375 2.85937 4.4375 1.16016 3.69531.42187.7461.10938.10546-.10938.71094-4.4414 3.6211-4.38672 4.4375.46094.99609-.51172 1.41797-4.4375-2.41406-1.96094-4.4375-2.4336-.33204-.04296-4.10547-3.20704-1.21484-1.23437-3.22656-1.67578v-.60547l4.39844 2.28125.04297.04688 4.4375 3.54687.89453.84766 3.54297 1.87109 3.16015 2.5664-.10937 4.4375-3.05078 1.56641-4.4375-.19922-2.53516 3.07032-.73828 4.4414-1.16406 1.21875-4.44141-.66015-2.65234-.5586-1.78516-.39844-4.4375-3.47265-.64453-.57031-3.4961-4.4375-.29687-.57813-2.32422-3.85937"/><path fill="#00a8fc" fill-rule="evenodd" d="M195.53125 413.7539l-.23047-4.4375 1.96094-1.67187 2.92187 1.67188 1.51563 3.4375 4.4375-3.1836.27344-.2539-.27344-.60938-1.1875-3.83203 1.1875-1.375 4.4375-.30078v.60937l-4.4375.70313-.3164.36328.3164 1.01953 1.53906 3.42188-1.53906 1.43359-3.51953 3.0039-.91797.4336-1.14453-.4336-1.67969-4.4375-1.61328-.92577-1.08203.92578-.05469 4.4375 1.13672 1.88671 1.3164 2.55079 3.1211 3.47265 2.42187.96485 2.01563 1.67578 4.4375 1.50781 4.17187-3.1836.26953-.64843 2.65625-3.78906 1.78125-.20313 4.4375-.625 1.67188-3.60937-1.67188-1.35547-4.4375-2.82813-1.85546-.2539-2.58203-2.01954-2.38282-2.42187-2.0586-1.0664v-.60938l3.22657 1.67578 1.21484 1.23438 4.10547 3.20703.33203.04296 4.4375 2.4336 2.41407 1.96094-1.41797 4.4375-.9961.51171-4.4375-.46093-3.62109 4.38672-.71094 4.4414-.10547.10938-.74609-.10938-3.69531-.42187-4.4375-1.16016-3.4375-2.85937-1-.39844-3.6289-4.03906-.8086-1.56641-1.73047-2.8711"/><path fill="#00e8fc" fill-rule="evenodd" d="M197.26172 402.64063l-1.60547 2.23437 1.60547.52344 4.4375.72265.6289-1.24609-.6289-1.48438-4.4375-.75"/><path fill="#009800" fill-rule="evenodd" d="M197.26172 415.64063l-1.13672-1.88672.05469-4.4375 1.08203-.92579 1.61328.92579 1.67969 4.4375 1.14453.43359.91797-.4336 3.51953-3.0039 1.53906-1.4336-1.53906-3.42187-.3164-1.01953.3164-.36328 4.4375-.70313v.60547l-2.41406.46094.77734 4.4414-2.80078 2.6172-2.13281 1.8203-2.3047 1.08594-2.86718-1.08593-1.26562-4.4375-.3047-.17579-.20702.17579-.33594 4.4375.54297.89843 1.82812 3.53907 2.60938 2.90625 3.84766 1.53125.58984.49218 4.4375 1.85938 3.07812-2.35156 1.36328-3.28125.8086-1.15625 3.6289-.41797 4.4375-2.01953.92579-2-.92578-.75391-4.4375-3.21875-3.37891-.46484-1.0586-.83204-3.55078-3.60937-.89062-.46094v-.60547l2.0586 1.06641 2.3828 2.42188 2.58204 2.01953 1.85547.2539 4.4375 2.82813 1.67187 1.35547-1.67188 3.60937-4.4375.625-1.78125.20313-2.65625 3.78906-.26953.64844-4.17187 3.18359-4.4375-1.50781-2.01563-1.67578-2.42187-.96485-3.1211-3.47265-1.3164-2.55079"/><path fill="#00ac00" fill-rule="evenodd" d="M197.26172 414.65234l-.54297-.89843.33594-4.4375.20703-.17579.30469.17579 1.26562 4.4375 2.86719 1.08593 2.30469-1.08593 2.1328-1.82032 2.80079-2.61718-.77734-4.44141 2.41406-.46094v2.45313l-.3711 2.44922-4.0664 3.80078-.7461.63672-3.6914 1.74218-2.10156 2.69532 2.10156 2.33984 4.4375 1.75781 1.08203.33985 3.35547 1.51562 1.98437-1.51562 1.8125-4.4375.64453-.08204 4.4375-.54687 4.4375-3.41797.1797-.39062-.1797-.14844-4.4375-3.61328-4.4375-.63281-2.2539-.04297-2.1875-2.44922v-2.45313l.89062.46094 3.55078 3.60938 1.0586.83203 3.3789.46484L223.89063 413l.92579.7539-.92578 2-4.4375 2.01954-3.62891.41797-.8086 1.15625-1.36328 3.28125-3.07812 2.35156-4.4375-1.85938-.58984-.49218-3.84766-1.53125-2.60938-2.90625-1.82812-3.53907"/><path fill="#00c800" fill-rule="evenodd" d="M201.69922 420.53125l-2.10156-2.33984 2.10156-2.69532 3.6914-1.74218.7461-.63672 4.0664-3.80078.3711-2.44922 2.1875 2.44922 2.2539.04296v.29297l-4.4414.16797-3.9961 3.9336-.4414.99218-4.4375 2.0586-1.08203 1.38672 1.08203 1.20312 4.4375 1.73828 4.4375.94922 1.51562-3.89062 2.92578-.3711 4.4375-.6836 3.9961-3.3828-3.9961-3.34375-4.4375-.75782v-.29296l4.4375.6328 4.4375 3.61329.1797.14844-.1797.39062-4.4375 3.41797-4.4375.54688-.64453.08203-1.8125 4.4375-1.98437 1.51562-3.35547-1.51562-1.08203-.33985-4.4375-1.75781"/><path fill="#10cc00" fill-rule="evenodd" d="M201.69922 419.39453l-1.08203-1.20312 1.08203-1.38672 4.4375-2.0586.4414-.99218 3.9961-3.9336 4.4414-.16797v.28907l-4.4414.47265-3.39453 3.33985-1.04297 2.35156-4.4375 2.00781-.0625.07813.0625.0703 4.4375 1.71095 3.64062-1.78125.79688-.25 4.4414-.41016 4.4375-.82031 3.4961-2.95703-3.4961-2.92188-4.4375-.89062v-.28907l4.4375.75782 3.9961 3.34375-3.9961 3.3828-4.4375.6836-2.92578.3711-1.51562 3.89062-4.4375-.94922-4.4375-1.73828"/><path fill="#00d4fc" fill-rule="evenodd" d="M201.69922 392.61719l-.79297-1.05469.79297-.88281.9961.88281-.9961 1.05469"/><path fill="#24d000" fill-rule="evenodd" d="M201.69922 418.26172l-.0625-.07031.0625-.07813 4.4375-2.00781 1.04297-2.35156 3.39453-3.33985 4.4414-.47265v.29296l-4.4414.77344-2.79297 2.7461-1.64453 3.71093-1.60938.72657 1.60938.62109 1.26953-.6211 3.16797-.99218 4.4414.04297 4.4375-.95313 2.9922-2.53515-2.9922-2.50391-4.4375-1.01563v-.29296l4.4375.89062 3.4961 2.92188-3.4961 2.95703-4.4375.82031-4.4414.41016-.79688.25-3.64062 1.78125-4.4375-1.71094"/><path fill="#3cd800" fill-rule="evenodd" d="M206.13672 418.8125l-1.60938-.6211 1.60938-.72656 1.64453-3.71093 2.79297-2.7461 4.4414-.77344v.29297l-4.4414 1.07032-2.1875 2.15625 2.1875 2.70312 4.4414.4961 4.4375-1.08985 2.48829-2.10937-2.48828-2.08204-4.4375-1.14453v-.29296l4.4375 1.01562 2.99218 2.5039-2.99219 2.53516-4.4375.95313-4.4414-.04297-3.16797.99219-1.26953.62109"/><path fill="#54dc00" fill-rule="evenodd" d="M210.57422 416.45703l-2.1875-2.70312 2.1875-2.15625 4.4414-1.07032v.29297l-4.4414 1.3711-1.58594 1.5625 1.58594 1.95703 4.4414.94922 4.4375-1.22266 1.98829-1.6836-1.98828-1.66406-4.4375-1.26953v-.29297l4.4375 1.14454 2.48828 2.08203-2.48828 2.10937-4.4375 1.08985-4.44141-.4961"/><path fill="#e8e05c" fill-rule="evenodd" d="M210.57422 415.71094l-1.58594-1.95703 1.58594-1.5625 4.4414-1.3711v.29297l-4.4414 1.67188-.98438.96875.98438 1.21484 4.4414 1.40234 4.4375-1.35937 1.48438-1.25781-1.48438-1.2422-4.4375-1.39843v-.29297l4.4375 1.26953 1.98829 1.66407-1.98828 1.68359-4.4375 1.22266-4.44141-.94922"/><path fill="#e8d450" fill-rule="evenodd" d="M210.57422 414.96875l-.98438-1.21484.98438-.96875 4.4414-1.67188v.58203l-4.21875 2.0586 4.21875 2.03906 4.4375-1.63281.48047-.40625-.48047-.40235-4.4375-1.65625v-.58203l4.4375 1.39844 1.48438 1.24219-1.48438 1.2578-4.4375 1.35938-4.4414-1.40234"/><path fill="#e8b830" fill-rule="evenodd" d="M215.01563 415.79297l-4.21875-2.03906 4.21875-2.0586v.58594l-3.02344 1.47266 3.02344 1.46093 3.67968-1.46093-3.67969-1.47266v-.58594l4.4375 1.65625.48047.40235-.48047.40625-4.4375 1.6328"/><path fill="#e8a824" fill-rule="evenodd" d="M215.01563 415.21484l-3.02344-1.46093 3.02344-1.47266v.58203l-1.82422.89063 1.82422.8828 2.21875-.8828-2.21875-.89063v-.58203l3.67968 1.47266-3.67969 1.46093"/><path fill="#d87c08" fill-rule="evenodd" d="M215.01563 414.63672l-1.82422-.88281 1.82422-.89063v.58594l-.625.30469.625.30078.7578-.30078-.7578-.3047v-.58593l2.21875.89063-2.21875.8828"/><path fill="#fc4444" fill-rule="evenodd" d="M215.01563 414.05469l-.625-.30078.625-.3047.7578.3047-.7578.30078"/><path fill="#50fcfc" fill-rule="evenodd" d="M223.89063 397.90234L220.17188 396l3.71875-1.71094L226.33202 396l-2.4414 1.90234m8.875-2.91406l-3.71485-3.42578 3.71484-3.34766v1.73047l-1.79296 1.61719 1.79297 1.65625 1.99609-1.65625-1.9961-1.61719v-1.73047l4.13282 3.34766-4.13281 3.42578"/><path fill="#00e8fc" fill-rule="evenodd" d="M232.76563 393.21875l-1.79297-1.65625 1.79297-1.61719 1.99609 1.61719-1.9961 1.65625"/><path fill="#50fcfc" fill-rule="evenodd" d="M250.51953 384.17188l-1.47266-1.48829 1.47266-1.61328 2.76172 1.61328-2.76172 1.48829m0 34.8828l-.98047-.86327.98047-1.71485 4.4375.28125 2.23438 1.4336-2.23438 1.35937-4.4375-.4961m22.1914-62.42577l-.39062-.57422.39063-.42969 1.39062.42969-1.39062.57422m8.8789-1.9375l-4.15625-3.07422 4.15625-4.17188.6836-.26562 3.7539-2.11328v3.13671l-4.4375 2.69532-.71484.71875.71484.52734 4.4375 2.46875 2.39063-2.9961-2.39063-3.41406v-3.13671l1.72266 2.11328 1.91016 4.4375-3.1211 4.4375-.51172.46094-.55468-.46094-3.88282-1.36328"/><path fill="#00e8fc" fill-rule="evenodd" d="M281.58984 352.14453l-.71484-.52734.71484-.71875 4.4375-2.69531v2.95703l-.66406.45703.66406.39844.31641-.39844-.3164-.45703v-2.95704l2.39062 3.41407-2.39063 2.9961-4.4375-2.46876"/><path fill="#00d4fc" fill-rule="evenodd" d="M286.02734 352.01563l-.66406-.39844.66406-.45703.31641.45703-.3164.39844"/><path fill="#50fcfc" fill-rule="evenodd" d="M294.90234 374.48828l-1.96093-.67969 1.96093-1.92578 1.10938 1.92578-1.10938.6797m8.87891-21.16407l-1.08984-1.70703 1.08984-2.15235.52344-2.28515 3.91406-3.49219v2.13281l-1.51953 1.35938 1.51953 2.0664 1.91797-2.0664-1.91797-1.35938v-2.13281l4.4375 2.02734 4.4414-.11718 2.625 1.58203-2.625.6875-4.4414 1.03906-2.16406 2.71094-2.27344 1.58594-4.4375.12109"/><path fill="#00e8fc" fill-rule="evenodd" d="M308.21875 349.2461l-1.51953-2.06641 1.51953-1.35938 1.91797 1.35938-1.91797 2.0664"/><path fill="#50fcfc" fill-rule="evenodd" d="M325.97266 456.63281l-2.13282-2.9336 2.13282-1.76171 2.02343-2.67578 2.41407-2.2461 4.4375-1.27734 4.4414-.35937 4.4375 2.67187 4.4375-.4375 1.88281-2.79297-1.8828-1.8164-1.64454-2.6211 1.64453-1.45703 1.46094 1.45703 2.97656 3.03516v4.14062l-2.61328 1.70313 1.63281 4.4375.98047.42187 1.54297-.42187-.5-4.4375-1.04297-1.70313v-4.14062l4.4414-1.69531 4.4375-.1836 4.4375-.45703.75-.69922 3.6875-3.77734v1.15234l-2.5625 2.625-1.875 1.75-4.4375 1.13672-4.4375.46094-1.95312 1.08984 1.95313 2.625 2.23437 1.8164 2.20313 1.23048.95703-1.23047 3.48047-1.53125v1.13672l-.89453.39453L362 453.69922l3.91797.70312 1.9961-.70312-.89844-4.4375-1.09766-.39453v-1.13672l4.26562 1.53125.17188.33203 1.45312 4.10547-1.45312 1.57812-4.4375 1.71875-3.63672 1.14063-.80078.32422-4.4375.33594-4.4414 1.96093-2.33594-2.6211-2.10157-1.28515-4.4375-2.47265-.4961-.6797-2.89062-4.4375-1.05078-.79296-4.4414-.75781-2.77344 1.55078-1.66406.84375-3.27735 3.59375 1.20703 4.4375 2.07032 1.6914 4.4375-.14062 4.4414 2.44922.7461.4375 3.6914 1.96094 4.4375-.17188 4.4375-1.04687 4.4414 1.01171 4.4375.3086 4.4375.79687 4.4375.25 4.4375-.05468 4.44142.41406 3.05859-3.46875-.19922-4.4375 1.57813-3.98438.5-.45312-.5-.55469-4.4375-3.59375-4.44141 2.1211-4.29297-2.41016 4.29297-1.49219v.91406l-1.66016.57813 1.66016.92969 1.90625-.9297-1.90625-.57812v-.91406l3.11328-2.94922-3.11328-3.16406-1.60938-1.27344-2.82812-2.625v-1.15234l4.07031 3.77734.36719.28906 4.07812 4.14844.36329 1.3711 3.2578 3.0703 1.1797.90235 3.18359 3.53516-3.1836 2.89062-.61328 1.54688.08594 4.4375-3.91015 4.42969-4.44141-.20704-4.4375.125-3.76953.09375-.66797.08985-.13672-.08985-4.30078-.6914-4.4375-.03516-4.4414.13672-4.4375-.26172-4.4375-.03515-4.4375-1.09375-2.95313-2.46094-1.48828-.79297-4.4375-.27734-4.12891-3.3672-.3086-1.5039m0-121.26562l-1.6328-1.5039 1.6328-2.625 3.67579 2.625-3.67578 1.5039"/><path fill="#00e8fc" fill-rule="evenodd" d="M328.33984 458.13672l-1.20703-4.4375 3.27735-3.59375 1.66406-.84375 2.77344-1.55078v3.46484l-4.4375 1.91797-.55079.60547.55079 1.4961 4.4375.97265 2.71093 1.96875 1.73047 1.05078 2.17969-1.05078-2.17969-3.51953-.51953-.91797-3.92187-2.52344v-3.46484l4.4414.75781 1.05078.79297 2.89063 4.4375.4961.67969 4.4375 2.47265 2.10156 1.28516 2.33593 2.6211 4.4414-1.96094 4.4375-.33594.80079-.32422 3.63672-1.14063 4.4375-1.71875 1.45312-1.57812-1.45312-4.10547-.17188-.33203-4.26562-1.53125-3.48047 1.53125-.95703 1.23047-2.20313-1.23047-2.23437-1.8164-1.95313-2.625 1.95313-1.08985 4.4375-.46094 4.4375-1.13672 1.875-1.75 2.5625-2.625v1.92578l-.6836.69922-3.7539 3.5039-2.38281.9336 2.3828 1.01172 4.4375 1.26172 4.4375-.84766 1.50392-1.42578-1.50391-1.52734-3.67969-2.91016-.75781-.69922v-1.92578l2.82812 2.625 1.60938 1.27344 3.11328 3.16406-3.11328 2.94922-4.29297 1.49219 4.29297 2.41015 4.4414-2.12109v3.04297l-2.99218 1.10547-1.44922 1.64062-2.3125 2.79688-2.125 1.57031-4.4375 2.48047-.92578.38672.92578.1914 4.4375.84766 4.4375.0664 4.4414.76173 1.64454-1.8672-.39454-4.4375.03907-4.4375-1.28906-1.10546v-3.04297l4.4375 3.59375.5.55469-.5.45312-1.57813 3.98438.19922 4.4375-3.0586 3.46875-4.4414-.41406-4.4375.05468-4.4375-.25-4.4375-.79687-4.4375-.3086-4.4414-1.01171-4.4375 1.04687-4.4375.17188-3.69141-1.96094-.7461-.4375-4.4414-2.44922-4.4375.14063-2.07032-1.69141"/><path fill="#00d4fc" fill-rule="evenodd" d="M330.41016 455.19531l-.55079-1.4961.55079-.60546 4.4375-1.91797 3.92187 2.52344.51953.91797 2.17969 3.51953-2.17969 1.05078-1.73047-1.05078-2.71093-1.96875-4.4375-.97266"/><path fill="#50fcfc" fill-rule="evenodd" d="M339.28906 429.61328l-2.59765-2.54297 2.59765-2.51172 2.53125 2.51172-2.53125 2.54297m0-98.92187l-1.6914-1.26563 1.6914-1.16797 4.4375-2.60547 3.48828 3.77344-3.02343 4.4375-.46485.27735-.14453-.27735-4.29297-3.17187"/><path fill="#fff" fill-opacity="0" fill-rule="evenodd" d="M352.60156 447.5586l-2.61328 1.70312 1.63281 4.4375.98047.42187 1.54297-.42187-.5-4.4375-1.04297-1.70313m12.42188 1.70313L362 453.69922l3.91797.70312 1.9961-.70312-.89844-4.4375-1.09766-.39453-.89453.39453"/><path fill="#00d4fc" fill-rule="evenodd" d="M365.91797 445.83203l-2.38281-1.01172 2.3828-.9336 3.75392-3.5039.68359-.69922v5.04297l-.1289.09375.1289.03125.77734-.03125-.77734-.09375v-5.04297l.75781.69922 3.67969 2.91016 1.5039 1.52734-1.5039 1.42578-4.4375.84766-4.4375-1.26172m0 16.9336l-.92578-.19141.92578-.38672 4.4375-2.48047 2.125-1.57031 2.3125-2.79688 1.44922-1.64062 2.99219-1.10547v8.09375l-1.22657 1.88672 1.22656.26562.23047-.26562-.23046-1.88672v-8.09375l1.28906 1.10547-.03906 4.4375.39453 4.4375-1.64454 1.86719-4.4414-.76172-4.4375-.0664-4.4375-.84767"/><path fill="#00c4fc" fill-rule="evenodd" d="M370.35547 444.85156l-.1289-.03125.1289-.09375.77734.09375-.77734.03125"/><path fill="#fff" fill-opacity="0" fill-rule="evenodd" d="M374.79297 448.6836l-1.66016.57812 1.66016.92969 1.90625-.9297-1.90625-.57812"/><path fill="#00c4fc" fill-rule="evenodd" d="M379.23438 462.83984l-1.22657-.26562 1.22656-1.88672.23047 1.88672-.23046.26562"/><path fill="#50fcfc" fill-rule="evenodd" d="M396.98438 397.73047L395.2578 396l1.72656-1.73047L399.54298 396l-2.5586 1.73047m0 31.85547l-.86718-2.51563.86719-.79297.96484.79297 3.47656.98047 4.4375-.3164v1.22265l-4.4375 1.47266-1.30469 1.07812 1.3047 2.95313.29296 1.48437 2.57422 4.4375 1.57031 1.17188 2.94922-1.17188 1.48828-.45312 2.44922-3.98438-2.44922-2.44531-1.85937-1.99219-2.57813-2.55078v-1.22265l3.8086 3.77343.6289.67188 3.76953 3.76562.66797 1.55469L418 440.38281l1.17969 2.96094 1.45312 1.47656-1.45312.91406-1.10547-.91406-3.33594-1.5664-4.4375-.34766-4.4375 1.44922-.97656.46484-1.92578 4.4414-1.53516 2.13282-2.0586-2.13281-.34765-4.4414 1.0586-4.4375-1.32032-4.4375-1.51953-4.4375-.2539-1.92188"/><path fill="#00e8fc" fill-rule="evenodd" d="M401.42578 434.46094l-1.30469-2.95313 1.3047-1.07812 4.4375-1.47266v2.03516l-1.14454.51562-.85156 4.4375 1.9961 2.45703 4.4375-2.05859.24608-.39844-.24609-.2461-3.91797-4.1914-.51953-.51562v-2.03516l2.57813 2.55078 1.85937 1.99219 2.44922 2.44531-2.44922 3.98438-1.48828.45312-2.94922 1.17188-1.57031-1.17188-2.57422-4.4375-.29297-1.48437"/><path fill="#00d4fc" fill-rule="evenodd" d="M405.86328 438.40234l-1.9961-2.45703.85157-4.4375 1.14453-.51562.51953.51562 3.91797 4.1914.2461.2461-.2461.39844-4.4375 2.0586"/><path fill="#50fcfc" fill-rule="evenodd" d="M412.65625 400.4375L411.91797 396l2.82031-2.73047v2.65235l-.07812.07812.07812.25.11719-.25-.11719-.07813v-2.65234L418.83984 396l-2.10937 4.4375-1.01172 4.4375 3.46094 1.52734 2.34375-1.52734.20312-4.4375L419.21875 396l4.39844-4.29297v.45703L419.68359 396l3.9336 4.17578L427.47266 396l-3.85547-3.83594v-.45703L427.92579 396l-2.46095 4.4375 2.58985 1.85938 4.4375.53906 3.71875-2.39844.71875-.71875 4.4414-2.85547v1.92969l-2.19921 1.64453-1.94922 4.4375-.29297.14844-4.4375 1.65625-4.4375-1.41797-4.4375.6836-4.4375 3.1875-.42578.18359.42578.41406 2.6914 4.02344-.89062 4.4375 2.63672 2.53125 4.4375.51171 4.4375-.57812 4.20703-2.46484.23047-.1797 4.4414-2.59765 1.7422-1.66015 1.63671-4.4375-1.60938-4.44141-.26562-4.4375-1.5039-1.64453v-1.92969l3.26171 3.57422.16016 4.4375 1.01562 2.20703 2.17579 2.23438-2.17579 2.52734-.86328 1.91016-3.57422 3.41015-1.76953 1.02735-2.67187 2.53125-4.4375 1.125-4.4375.5039-1.13281.27735-3.3047 2.3164-2.52343-2.3164-1.91406-1.87891-2.48438-2.5586.875-4.4375-2.83203-2.78906-1.58984-1.64843.3711-4.44141-.86329-4.4375"/><path fill="#00e8fc" fill-rule="evenodd" d="M414.73828 396.25l-.07812-.25.07812-.07813.11719.07813-.11719.25m4.4414 13.48047l-.42577-.41406.42578-.1836 4.4375-3.1875 4.4375-.6836 4.4375 1.41798 4.4375-1.65625v3.24219l-1.52344 1.05078-2.91406 1.96875-4.4375.14843-1.71875 2.32032-.26953 4.4375 1.98828 1.18359 4.4375-.70703.8125-.47656 3.625-2.81641 2.61719-1.6211-.21485-4.4375-2.40234-1.05077v-3.2422l.29297-.14843 1.94921-4.4375 2.19922-1.64453 1.50391 1.64453.26563 4.4375 1.60937 4.4414-1.63672 4.4375-1.74219 1.66016-4.4414 2.59766-.23047.17969-4.20703 2.46484-4.4375.57813-4.4375-.51172-2.63672-2.53125.89062-4.4375-2.6914-4.02344m4.4375-9.55469L419.68359 396l3.9336-3.83594v.75781L420.46094 396l3.15625 3.35156L426.70703 396l-3.08984-3.07813v-.7578L427.47266 396l-3.85547 4.17578"/><path fill="#00d4fc" fill-rule="evenodd" d="M423.61719 399.35156L420.46094 396l3.15625-3.07813v.75782L421.23829 396l2.3789 2.52344L425.9453 396l-2.32812-2.32031v-.75781L426.70703 396l-3.08984 3.35156"/><path fill="#00c4fc" fill-rule="evenodd" d="M423.61719 398.52344L421.23829 396l2.3789-2.32031v.75781L422.01563 396l1.60156 1.69922L425.18359 396l-1.5664-1.5625v-.75781L425.9453 396l-2.32812 2.52344"/><path fill="#00b8fc" fill-rule="evenodd" d="M423.61719 397.69922L422.01563 396l1.60156-1.5625v.75781l-.82422.80469.82422.875.80469-.875-.8047-.80469v-.75781L425.1836 396l-1.5664 1.69922"/><path fill="#00a8fc" fill-rule="evenodd" d="M423.61719 396.875l-.82422-.875.82422-.80469v.75781L423.5703 396l.04688.05078.04297-.05078-.04297-.04688v-.7578l.80469.80468-.8047.875"/><path fill="#009800" fill-rule="evenodd" d="M423.61719 396.05078L423.5703 396l.04688-.04688.04297.04688-.04297.05078"/><path fill="#00d4fc" fill-rule="evenodd" d="M428.05469 419.375l-1.98828-1.1836.26953-4.4375 1.71875-2.3203 4.4375-.14844 2.91406-1.96875 1.52344-1.05079 2.40234 1.05079.21485 4.4375-2.6172 1.62109-3.625 2.8164-.8125.47657-4.4375.70703"/><path fill="#50fcfc" fill-rule="evenodd" d="M450.2461 430.42188l-2.1797-3.35157 2.1797-2.15625 2.20702 2.15625-2.20703 3.35156"/><g clip-path="url(#c)"><path fill="#fff" fill-opacity="0" fill-rule="evenodd" d="M467.9961 480.32813H468V311.67188h-.0039H468v168.65625h-.0039"/></g><path fill="#fff" fill-opacity="0" fill-rule="evenodd" d="M376.58984 450.90234l4.44922 3.78516 6.45703-7.58594-4.44921-3.78515-6.45704 7.58593"/><path fill-rule="evenodd" d="M384.52344 446.98047l.38672.32812-4.07813 4.79297-.59765-.50781 2.90625-3.42188-1.0547-.89843.35938-.42188.46875.3125.22656.1211.23047.08203.25.02344.26563-.04688.30078-.13281.33594-.23047"/><path fill="#fff" fill-opacity="0" fill-rule="evenodd" d="M179.07813 370.23438l2.55468-5.25391-8.95703-4.35547-2.55469 5.2539 8.95703 4.35548"/><path fill-rule="evenodd" d="M173.30078 363.53125l.22266-.45703 5.66015 2.7539-.34375.70704-4.03906-1.96485-.60547 1.25-.5-.24219.1836-.53125.0625-.25.01953-.24609-.03516-.2461-.11328-.24609-.20313-.2578-.30859-.26954"/><path fill="#fff" fill-opacity="0" fill-rule="evenodd" d="M230.78125 417.23828l2.48047 5.28906 9.01953-4.22656-2.48047-5.28906-9.01953 4.22656"/><path fill-rule="evenodd" d="M239.625 416.95703l.21875.46094-5.70313 2.67187-.33203-.71093 4.06641-1.90625-.58984-1.25782.5039-.23437.29688.48047.15234.20312.17969.17188.21484.1211.26563.0703.32422.00391.40234-.07422"/><path fill="#fff" fill-opacity="0" fill-rule="evenodd" d="M419.85938 429.78125l5.82812.38281.65625-9.9375-5.82813-.38672-.65625 9.94141"/><path fill-rule="evenodd" d="M423.88672 421.90234l.50781.03125-.41406 6.28125-.78516-.05078.29688-4.48047-1.38672-.08984.03515-.55469.5625-.02734.25782-.03906.23437-.07422.21094-.1289.1875-.19532.16016-.28516.1328-.38672"/><g clip-path="url(#d)"><path fill="none" stroke="#000" stroke-linecap="round" stroke-linejoin="round" stroke-miterlimit="10" stroke-width=".5" d="M146.48828 482.8086l-4.97656-4.96094"/></g><g clip-path="url(#e)"><path fill="none" stroke="#000" stroke-linecap="round" stroke-linejoin="round" stroke-miterlimit="10" stroke-width=".5" d="M159.86328 482.7461l-5.09766-4.83594"/></g><g clip-path="url(#f)"><path fill="none" stroke="#000" stroke-linecap="round" stroke-linejoin="round" stroke-miterlimit="10" stroke-width=".5" d="M173.0664 482.86328l-4.87109-5.0664"/></g><g clip-path="url(#g)"><path fill="none" stroke="#000" stroke-linecap="round" stroke-linejoin="round" stroke-miterlimit="10" stroke-width=".5" d="M186.97656 482.10938l-6.0625-3.5586"/></g><g clip-path="url(#h)"><path fill="none" stroke="#000" stroke-linecap="round" stroke-linejoin="round" stroke-miterlimit="10" stroke-width=".5" d="M200.55078 481.55469l-6.58203-2.45313"/></g><g clip-path="url(#i)"><path fill="none" stroke="#000" stroke-linecap="round" stroke-linejoin="round" stroke-miterlimit="10" stroke-width=".5" d="M213.7461 481.83984l-6.34376-3.02343"/></g><g clip-path="url(#j)"><path fill="none" stroke="#000" stroke-linecap="round" stroke-linejoin="round" stroke-miterlimit="10" stroke-width=".5" d="M227.17188 481.58594l-6.5625-2.51172"/></g><g clip-path="url(#k)"><path fill="none" stroke="#000" stroke-linecap="round" stroke-linejoin="round" stroke-miterlimit="10" stroke-width=".5" d="M240.41406 481.76563L234 478.89452"/></g><g clip-path="url(#l)"><path fill="none" stroke="#000" stroke-linecap="round" stroke-linejoin="round" stroke-miterlimit="10" stroke-width=".5" d="M253.8711 481.38672l-6.69923-2.11719"/></g><g clip-path="url(#m)"><path fill="none" stroke="#000" stroke-linecap="round" stroke-linejoin="round" stroke-miterlimit="10" stroke-width=".5" d="M267.32813 479.95703l-6.98438.74219"/></g><g clip-path="url(#n)"><path fill="none" stroke="#000" stroke-linecap="round" stroke-linejoin="round" stroke-miterlimit="10" stroke-width=".5" d="M267.32813 479.95703l1.375 2.03125"/></g><g clip-path="url(#o)"><path fill="none" stroke="#000" stroke-linecap="round" stroke-linejoin="round" stroke-miterlimit="10" stroke-width=".5" d="M280.6289 479.84375l-6.95702.96875"/></g><g clip-path="url(#p)"><path fill="none" stroke="#000" stroke-linecap="round" stroke-linejoin="round" stroke-miterlimit="10" stroke-width=".5" d="M280.6289 479.84375l1.44141 1.98828"/></g><g clip-path="url(#q)"><path fill="none" stroke="#000" stroke-linecap="round" stroke-linejoin="round" stroke-miterlimit="10" stroke-width=".5" d="M293.96484 479.99219l-6.99609.67578"/></g><g clip-path="url(#r)"><path fill="none" stroke="#000" stroke-linecap="round" stroke-linejoin="round" stroke-miterlimit="10" stroke-width=".5" d="M293.96484 479.99219l1.35157 2.04297"/></g><g clip-path="url(#s)"><path fill="none" stroke="#000" stroke-linecap="round" stroke-linejoin="round" stroke-miterlimit="10" stroke-width=".5" d="M307.29297 480.27734l-7.02344.10157"/></g><g clip-path="url(#t)"><path fill="none" stroke="#000" stroke-linecap="round" stroke-linejoin="round" stroke-miterlimit="10" stroke-width=".5" d="M307.29297 480.27734l1.1836 2.14844"/></g><g clip-path="url(#u)"><path fill="none" stroke="#000" stroke-linecap="round" stroke-linejoin="round" stroke-miterlimit="10" stroke-width=".5" d="M320.5586 479.72656l-6.92579 1.20313"/></g><g clip-path="url(#v)"><path fill="none" stroke="#000" stroke-linecap="round" stroke-linejoin="round" stroke-miterlimit="10" stroke-width=".5" d="M320.5586 479.72656l1.5039 1.9375"/></g><g clip-path="url(#w)"><path fill="none" stroke="#000" stroke-linecap="round" stroke-linejoin="round" stroke-miterlimit="10" stroke-width=".5" d="M333.75781 479.26563l-6.69531 2.1289"/></g><g clip-path="url(#x)"><path fill="none" stroke="#000" stroke-linecap="round" stroke-linejoin="round" stroke-miterlimit="10" stroke-width=".5" d="M333.75781 479.26563l1.7539 1.71484"/></g><g clip-path="url(#y)"><path fill="none" stroke="#000" stroke-linecap="round" stroke-linejoin="round" stroke-miterlimit="10" stroke-width=".5" d="M347.01953 479.10547l-6.58594 2.44531"/></g><g clip-path="url(#z)"><path fill="none" stroke="#000" stroke-linecap="round" stroke-linejoin="round" stroke-miterlimit="10" stroke-width=".5" d="M346.0625 479.46094l.91406.8164"/></g><g clip-path="url(#A)"><path fill="none" stroke="#000" stroke-linecap="round" stroke-linejoin="round" stroke-miterlimit="10" stroke-width=".5" d="M360.09375 478.59375l-6.10547 3.47266"/></g><g clip-path="url(#B)"><path fill="none" stroke="#000" stroke-linecap="round" stroke-linejoin="round" stroke-miterlimit="10" stroke-width=".5" d="M359.20703 479.09766l1.03516.65625"/></g><g clip-path="url(#C)"><path fill="none" stroke="#000" stroke-linecap="round" stroke-linejoin="round" stroke-miterlimit="10" stroke-width=".5" d="M373.44531 478.65234l-6.17578 3.35157"/></g><g clip-path="url(#D)"><path fill="none" stroke="#000" stroke-linecap="round" stroke-linejoin="round" stroke-miterlimit="10" stroke-width=".5" d="M373.44531 478.65234l2.04297 1.35547"/></g><g clip-path="url(#E)"><path fill="none" stroke="#000" stroke-linecap="round" stroke-linejoin="round" stroke-miterlimit="10" stroke-width=".5" d="M386.34375 478.04688L381 482.60938"/></g><path fill="none" stroke="#000" stroke-linecap="round" stroke-linejoin="round" stroke-miterlimit="10" stroke-width=".5" d="M385.5664 478.71094l1.14063.44922"/><g clip-path="url(#F)"><path fill="none" stroke="#000" stroke-linecap="round" stroke-linejoin="round" stroke-miterlimit="10" stroke-width=".5" d="M400.3711 479.38672l-6.76954 1.88281"/></g><g clip-path="url(#G)"><path fill="none" stroke="#000" stroke-linecap="round" stroke-linejoin="round" stroke-miterlimit="10" stroke-width=".5" d="M399.38672 479.66016l.84375.89062"/></g><g clip-path="url(#H)"><path fill="none" stroke="#000" stroke-linecap="round" stroke-linejoin="round" stroke-miterlimit="10" stroke-width=".5" d="M413.21484 482.29297l-5.82812-3.92969"/></g><g clip-path="url(#I)"><path fill="none" stroke="#000" stroke-linecap="round" stroke-linejoin="round" stroke-miterlimit="10" stroke-width=".5" d="M426.30078 482.59766l-5.36719-4.53907"/></g><g clip-path="url(#J)"><path fill="none" stroke="#000" stroke-linecap="round" stroke-linejoin="round" stroke-miterlimit="10" stroke-width=".5" d="M439.92578 482.16797l-5.98828-3.67578"/></g><g clip-path="url(#K)"><path fill="none" stroke="#000" stroke-linecap="round" stroke-linejoin="round" stroke-miterlimit="10" stroke-width=".5" d="M453.3789 481.92188l-6.26562-3.1836"/></g><g clip-path="url(#L)"><path fill="none" stroke="#000" stroke-linecap="round" stroke-linejoin="round" stroke-miterlimit="10" stroke-width=".5" d="M466.72266 481.86719l-6.32032-3.07422"/></g><g clip-path="url(#M)"><path fill="none" stroke="#000" stroke-linecap="round" stroke-linejoin="round" stroke-miterlimit="10" stroke-width=".5" d="M146.50781 469.47656l-5.01562-4.92578"/></g><path fill="none" stroke="#000" stroke-linecap="round" stroke-linejoin="round" stroke-miterlimit="10" stroke-width=".5" d="M146.50781 469.47656l-.69922 2.35156m-.03125-3.0703l-.34765 1.17968m14.84765-1.03516l-5.92578-3.77734m5.92578 3.77734l-.1914 2.44532m13.46484-2.37891l-5.83984-3.91016m5.83984 3.91016l-.25 2.4414m14.15234-4.1914l-7.01562-.41016m5.9961.35157l.51171 1.11328m13.79688-1.73828l-6.96094.95703m5.94531-.8164l.71875.99218m13.63281-.95313l-7.0039.59766m7.0039-.59766l1.32813 2.0625m11.71484-3.14062l-6.46093 2.7539m6.46093-2.7539l1.91016 1.53906m11.35156-1.66406l-6.35156 3.0039m6.35156-3.0039l1.96485 1.46484m11.42578-1.29297l-6.5039 2.66016m6.5039-2.66016l1.88672 1.57032m11.46875-1.46485l-6.58594 2.44922m6.58594-2.44922l1.83593 1.63281m11.44141-1.72656l-6.51172 2.63672m6.51172-2.63672l1.88281 1.57813m11.33985-1.79297l-6.32422 3.0664m6.32422-3.0664l1.98046 1.44922m11.10547-1.84766l-5.87109 3.86328m5.8711-3.86328l2.15624 1.17969m10.58204-1.85156l-4.71485 5.20703m4.02735-4.44922l1.1914.29687m12.125-1.54297l-3.33984 6.1836m2.85156-5.28516l1.22656.00781m11.78516-1.21484l-1.75781 6.80078m1.5-5.8125l1.1953-.28515m12.6172-.63282l-2.23829 6.66016m1.91016-5.6914l1.21094-.20313m12.29297-.8086l-1.96094 6.7461m1.67578-5.76563l1.19922-.25m11.75781-.85547l-.67578 6.9961m.57813-5.97656l1.1328-.46875m13.23829-.32032l-2.58984 6.53516m13.71484.1289l1.78906-6.79296m9.09375 4.52734l6.65625-2.26172m11.00781 1.13281l-.01953-.20312-.05859-.1914-.09375-.17579-.45703-.375-.1914-.0586-.20313-.01952-.19922.01953-.1914.0586-.45704.375-.09375.17577-.0586.19141-.01952.20312.01953.19922.0586.19141.09374.17578.45703.375.1914.0586.19923.01953.20312-.01954.1914-.05859.45704-.375.09375-.17578.0586-.1914.01952-.19923m13.42188-3.32812l-2.25781 6.65234m15.89453-.125l-2.89844-6.40234m2.47656 5.46875l-.75.97266"/><g clip-path="url(#N)"><path fill="none" stroke="#000" stroke-linecap="round" stroke-linejoin="round" stroke-miterlimit="10" stroke-width=".5" d="M146.46094 456.20703l-4.92188-5.01562"/></g><path fill="none" stroke="#000" stroke-linecap="round" stroke-linejoin="round" stroke-miterlimit="10" stroke-width=".5" d="M146.46094 456.20703l-.74219 2.33985m14.89063-3.625l-6.58985-2.44532m6.58984 2.44531l.32422 2.4297m13.19141-4.00391l-6.99219.70312m5.97656-.60156l.6797 1.01953m13.66796-.90625l-7.02344.27344m6-.23438l.6172 1.0625m13.67968-1.52344l-6.9375 1.11329m5.92578-.94922l.74219.97656m13.3164-2.03125l-6.40234 2.89844m5.46875-2.47656l.97266.75m13.22265-1.28516l-6.29687 3.125m6.29687-3.125l1.99219 1.42969m11.03125-1.91407l-5.71484 4.09375m5.71484-4.09375l2.19922 1.08985m10.97266-1.27344l-5.4297 4.46094m5.4297-4.46094l2.26562.9414m11.29688-.60546l-5.92188 3.78515m5.0586-3.23437l1.0703.60547m13.03126-1.26953l-5.76563 4.01562m4.92578-3.4336l1.08985.5625m12.97656-1.26562l-5.59375 4.2539m4.78125-3.6328l1.11328.51172m12.09766-1.97266l-3.75782 5.9375m3.21094-5.07422l1.22266.09375m12.25781-1.16797l-2.99219 6.35938m2.55469-5.4336l1.22656-.0625m8.78125-.38672l4.49219 5.40625m-3.83594-4.62109l.46485-1.13281m12.63671.03515l3.60938 6.03125m-3.08594-5.15234l.63281-1.05078m12.26954.10937l3.38671 6.15625m-2.89453-5.26171l.67188-1.02735m11.55469.54688l4.58203 5.32812m-3.91797-4.55469l.44922-1.14062m12.54687.10547l3.88672 5.85156m-3.32031-5l.58203-1.08203m10.66016 2.48828l6.90234 1.33594m-5.89844-1.14063l-.35937-1.17578m13.32812 3.78125l5.58594-4.26562m-4.77344 3.64453l-1.11328-.51172m13.01563-.08594l6.78515-1.83203m-5.79687 1.5664l-.83985-.89452m13.17578 1.18359l6.76954-1.875m-5.78516 1.60156l-.84375-.89062m13.22266 1.33203l6.67187-2.21094m-5.69922 1.89063l-.88672-.84766m13.96485 2.42578l5.20312-4.72656m-4.44531 4.03906l-1.15625-.41406"/><g clip-path="url(#O)"><path fill="none" stroke="#000" stroke-linecap="round" stroke-linejoin="round" stroke-miterlimit="10" stroke-width=".5" d="M147.32813 441.51172l-6.65625-2.25781"/></g><path fill="none" stroke="#000" stroke-linecap="round" stroke-linejoin="round" stroke-miterlimit="10" stroke-width=".5" d="M146.35938 441.1836l.1953 1.21093m14.16798-1.16016l-6.81641-1.69921m5.82422 1.45312l.29687 1.1875m14.08594-2.2461l-6.96875.91016m5.95703-.78125l.71094 1m13.60547-1.19921l-6.94531 1.05078m5.9375-.89844l.73047.98437m13.58984-1.16406l-6.9414 1.10156m5.93359-.9414l.73828.98047m13.17578-2.3125l-6.1211 3.4453m6.1211-3.4453l2.0664 1.32422m10.69141-2.06641l-5.00781 4.92969m5.00781-4.9297l2.33984.73829m10.91797-.79297l-4.89453 5.03906m4.1836-4.30468l1.17968.33984m13.23828-.625l-5.67578 4.14453m5.67578-4.14453l2.20704 1.07031m11.53515-.28906l-6.53515 2.58203m5.58593-2.20703l.9336.79688m12.55078-2.3672l-4.96875 4.96876m4.2461-4.2461l1.17187.35938m10.82812-2.08203l-.89843 6.96875m11.49218-6.16406l4.54297 5.35937m9.1914-5.66406l3.70704 5.97265m-3.16797-5.10546l.61719-1.0586m12.19922.16797l3.625 6.01953M329.125 438.25l.63281-1.05078m12.72266-.10156l2.48828 6.5703m-2.125-5.61327l.8086-.92188m13.01562-.24218l.7461 6.98828m-.64063-5.97266l1.01562-.6875m10.0586.70703l5.01953 4.91797m8.13672-4.7461l5.33593 4.57423m-4.55859-3.91016l.26563-1.19531m11.47265 2.23828l6.9336 1.15625m-5.92579-.98828l-.38671-1.16016m12.7578 2.44531l6.8047-1.75m-5.81641 1.4961l-.82422-.90625m13.54688 2.10546l6.01171-3.64062m-5.13671 3.11328l-1.05079-.6289m14.41407 2.16796l4.16797-5.66015m-4.16797 5.66015l-2.42578-.35937m15.85156.4336l3.94922-5.8125m-3.94922 5.8125l-2.4414-.26563m15.1289-.27735l5.19922-4.72656m-5.19922 4.72656l-2.3086-.82812"/><g clip-path="url(#P)"><path fill="none" stroke="#000" stroke-linecap="round" stroke-linejoin="round" stroke-miterlimit="10" stroke-width=".5" d="M146.71094 429.30469l-5.42188-4.47266"/></g><path fill="none" stroke="#000" stroke-linecap="round" stroke-linejoin="round" stroke-miterlimit="10" stroke-width=".5" d="M145.92188 428.65234l-.2461 1.20313m15.1289-3.20703l-6.97655.83984m5.96093-.71484l.69922 1.0039m13.11328-2.58203l-5.94531 3.7461m5.08203-3.19922l1.0625.60937m13.57813-.03515l-6.8672 1.5039m5.8672-1.28515l.79297.93359m9.76171 3.09766l.65625-6.9961m15.07422 6.32422l-4.17578-5.65234m3.5664 4.82812l-.52734 1.10938m14.81641-5.6289l-4.90625 5.03515m4.1914-4.30078l1.17579.34375m10.72265-2.0586l-.64453 6.9961m.55078-5.98047l1.13282-.47266m13.94922.0625l-3.98829 5.78516m3.40625-4.94532l1.21875.14063m12.57422-1.04688l-3.78125 5.92188m16.22656-2.96094l-.01953-.20312-.05859-.1914L278 426.5l-.45703-.375-.1914-.0586-.19923-.01953-.19922.01954-.1953.05859-.45704.375-.09375.17578-.0586.1914-.01952.20313.01953.19922.0586.1914.09374.17579.45703.375.19532.0586.19921.01952.19922-.01953.1914-.0586.45704-.375.09375-.17577.0586-.1914.01953-.19923m15.61328-1.15234l-6.64063 2.30078m16.50781-4.66016l.25782 7.01953m-.22266-6l1.0625-.61328m10.08594.41407l4.51953 5.3789m-3.86328-4.59765l.46094-1.13672m11.49609 1.15234l5.92187 3.78516m-5.05859-3.23438l.09766-1.22265m12.21484.91406l6.20313 3.30078m-5.30079-2.82031v-1.22657m18.07032-.01171l-5.11328 4.8164m4.37109-4.11719l1.16016.39454m12.36328-1.5586l-4.04688 5.7461m3.45703-4.91016l1.21875.15234m8.52344 4.67188l4.28125-5.57422m9 .02734l4.34766 5.51953m7.6289-2.61718l7.02344-.28516m8.54688 3.42188l2.51562-6.5586m14.72266 5.5664l-5.33203-4.57421m4.55859 3.91016l-.26953 1.1953m11.58594.69532l.21093-7.02734m-.17968 6.0039l-1.10157.54297m12.42578-.1914l4.13282-5.6836m-4.13282 5.6836l-2.42968-.34375"/><g clip-path="url(#Q)"><path fill="none" stroke="#000" stroke-linecap="round" stroke-linejoin="round" stroke-miterlimit="10" stroke-width=".5" d="M145.19922 417.05469l-2.39844-6.60156"/></g><g clip-path="url(#R)"><path fill="none" stroke="#000" stroke-linecap="round" stroke-linejoin="round" stroke-miterlimit="10" stroke-width=".5" d="M144.85156 416.09375l-.82031.91406"/></g><path fill="none" stroke="#000" stroke-linecap="round" stroke-linejoin="round" stroke-miterlimit="10" stroke-width=".5" d="M157.2539 410.24219l.125 7.02344m13.44923-7.01954l-.39454 7.01563m.33594-5.9961l1.11328-.51171m12.63281-.46875l-1.14062 6.93359m.97266-5.92188l1.16406-.39453m9.13281.50782l5.23438 4.6875m-4.47266-4.00782l.29297-1.1914m11.38281 2.47265l6.98438.76563m-5.96875-.65625l-.45313-1.14063m12.88281 2.4297l6.72657-2.03517m-5.7461 1.7422l-.86719-.8711m13.08985.65625l6.95312-1.01953m-5.9414.8711l-.73047-.98829m15.00781-2.54688l3.0039 6.35157m8.90626-5.14844l5.8125 3.94531m-4.96875-3.3711l.13281-1.21874m11.78906 1.98047l6.91016 1.27343m12.49219-2.96484l-5.26563 4.65234m4.5-3.97265l1.14844.42969m12.96094-1.07813l-5.32032 4.59375m4.54688-3.92578l1.14062.44531m12.85938-1.21094l-5.14063 4.78907m19.39453-2.52344l-7.02343.25781m20.33593-.28125l-7.01953.30078m6-.2539l.6211 1.05468m13.70703-1.21875l-7.0039.53907m7.0039-.53907l1.3164 2.07032m11.91797-2.59766l-6.84375 1.59375m5.84766-1.36328l.8086.92578m13.48437.51953l-6.80469-1.75781m16.52734 4.38672l.37891-7.01563m10.32031 5.6211l5.60938-4.23047m12.41015 5.07031l-3.80078-5.91016m3.25 5.05079l-.60156 1.0703m16.01172-2.46484l-6.88672-1.40234m6.88672 1.40234l.69531 2.35547m12.5-1.91797l-6.64844-2.27734m6.64844 2.27734l.38672 2.42579m12.8711-2.26563l-6.53126-2.59375m5.57813 2.21484l.13672 1.22266"/><g clip-path="url(#S)"><path fill="none" stroke="#000" stroke-linecap="round" stroke-linejoin="round" stroke-miterlimit="10" stroke-width=".5" d="M147.50781 400.23047l-7.01562.41406"/></g><path fill="none" stroke="#000" stroke-linecap="round" stroke-linejoin="round" stroke-miterlimit="10" stroke-width=".5" d="M146.48828 400.29297l.63672 1.04687m11.21875-4.26171l-2.0586 6.71875m1.76173-5.73829l1.20312-.23437m12.77344-.61328l-2.78516 6.45312m2.3789-5.51172l1.22266-.10156m13.19532-.4375l-4.1797 5.65235m3.57032-4.83204l1.21484.1836m13.83985.41797l-6.4414 2.80468m5.5039-2.39453l.96094.76172m13.58593.25781l-7.02734-.05468m6.0039.04687l.56641 1.08985m13.67969-.31641l-6.84375-1.58594m6.84375 1.58594l.63672 2.3711m12.75781-3.44141l-7.0039.55468m5.98437-.47265l.66016 1.03515m13.66797-1.1953l-6.9922.71093M253 400.1875l.6836 1.01563m13.66015-.94532l-7.01563.35938m5.9961-.30469l.6289 1.05078m13.71094-.8164l-7.02344-.21875m6 .1875l.54297 1.10156m13.75782-1.6836l-6.95313 1.00782m5.9414-.85938l.72657.98828m13.58203-1.26172l-6.91406 1.25782m6.91406-1.25782l1.51953 1.92579m11.59375-2.61329l-6.51172 2.63282m6.51172-2.63282l1.88281 1.57813m11.53907-1.28125l-6.72657 2.03906m6.72657-2.03906l1.73047 1.73828m11.73046-.9414l-7.01562.4453m5.99219-.3789l.64453 1.04297m13.6875-.60547l-7.0039-.5625m5.98437.48047l.48828 1.1289m6.9961-.26562l6.69921-2.1211m10.8711 4.45313l-1.81641-6.78906m16.71094 5.8789L394.5 397.95313m17.83203 5.35157l-4.0625-5.73047m3.47266 4.89453l-.55078 1.09766m14.07421-.02735l-3.30078-6.20312m2.82422 5.30078l-.6875 1.01953m15.95703-1.61328l-6.2539-3.21094m6.2539 3.21094l.03516 2.45312m13.34766-2.59375l-6.38672-2.92968m6.38672 2.92968l.14062 2.45313m12.98828-2.10156l-6.01562-3.63282m6.01562 3.63282l-.13281 2.44921"/><g clip-path="url(#T)"><path fill="none" stroke="#000" stroke-linecap="round" stroke-linejoin="round" stroke-miterlimit="10" stroke-width=".5" d="M147.08203 385.4336l-6.16406 3.3789"/></g><path fill="none" stroke="#000" stroke-linecap="round" stroke-linejoin="round" stroke-miterlimit="10" stroke-width=".5" d="M146.1836 385.92578l1.02734.67578m13.60937.78125l-7.00781-.51953m5.98828.4414l.49219 1.125m13.82422-1.74218l-6.97266.8711m6.97266-.8711l1.41015 2.00781m11.47657-3.30078l-6.1172 3.45703m6.1172-3.45703l2.0703 1.32031m11.10938-1.53906l-5.84765 3.89453m5.84765-3.89453l2.16016 1.16406m11.64453-.05468l-6.82422 1.67578m6.82422-1.67578l1.63281 1.82812m11.78125-.85156l-7.02343-.27735m7.02343.27735l1.0625 2.21094m12.25-2.55079l-7.01562.40235m7.01562-.40235l1.27344 2.09766m11.88672-2.9375l-6.71094 2.08594m6.71094-2.08594l1.74219 1.72656m11.71875-1.0078l-7 .64452m7-.64453l1.34375 2.05078m11.98437-1.7461l-7.02734.03517m7.02734-.03516l1.16406 2.16015m12.14844-1.96484l-7.01953-.35547m5.9961.30469l.51953 1.10938m13.24218-3.17188l-5.86718 3.8711m5.01171-3.3086l1.07813.58594m11.38672-2.5039l-2.45703 6.58202m2.10156-5.625l1.21484-.16015m13.25391-.375l-4.05469 5.73828m3.46485-4.90235l1.21875.15235m11.48828-1.53516l-1.65625 6.83203m1.41406-5.83594l1.1914-.30468m10.14454-.5l2.78906 6.44922m-2.38672-5.51172l.76563-.95703m10.0625 3.7539l6.95312-1.01953m-5.9414.8711l-.72657-.98829m19.98047.10547l-6.94922 1.04297m14.02344 1.64453l5.53516-4.33203m-4.73047 3.70313l-1.1211-.4961m18.27735 1.92578l-3.75782-5.93359m16.19141 6.33594l-1.99219-6.73828m1.69922 5.7578l-.875.85938m15.17969-.16796l-3.38672-6.15625m2.89453 5.2578l-.67187 1.02735m14.2539-.01562l-2.9375-6.38672m2.51172 5.45703l-.7461.97656m14.60548-.10547l-3.17578-6.26953m2.71484 5.35547l-.70703 1.0039"/><g clip-path="url(#U)"><path fill="none" stroke="#000" stroke-linecap="round" stroke-linejoin="round" stroke-miterlimit="10" stroke-width=".5" d="M147.5039 374.0664l-7.0078-.51562"/></g><path fill="none" stroke="#000" stroke-linecap="round" stroke-linejoin="round" stroke-miterlimit="10" stroke-width=".5" d="M147.5039 374.0664l.98829 2.2461m12.33594-2.46484l-7.02735-.07813m7.02734.07813l1.12891 2.17578m-2.15234-2.1875l.5664 1.08984m13.73828-1.61719l-6.95703 1m6.95703-1l1.44922 1.98047m-2.46093-1.83594l.72265.98829m13.47656-1.69141l-6.70312 2.11719m6.70313-2.11719l1.75 1.71875M200.5 372.44531l-6.47656 2.72656m6.47656-2.72656l1.90234 1.55078m11.58594-1.02343l-6.82422 1.67187m6.82422-1.67187l1.63281 1.83203m11.78125-1.02344l-7.02343.05469m7.02343-.05469l1.17188 2.15625m11.94922-.97656l-6.63672-2.30469m6.63672 2.30469l.3789 2.42578m13.04688-2.8164l-6.85938-1.52344m6.85938 1.52343l.65625 2.36328m12.53125-1.92187l-6.60156-2.40625m6.60156 2.40625l.33984 2.42969m12.95313-2.3711l-6.5586-2.52344m6.5586 2.52344l.29687 2.4375m13.20313-4.29687l-6.92578 1.19531m5.91796-1.01953l.75.96875m13.6172-.35938l-7.01563-.375m5.9961.32032l.51562 1.11328m13.78125-1.79297l-6.94141 1.09375m5.92969-.9375l.73828.98047m12.54687-3.1289l-4.85937 5.07812m4.15234-4.33985l1.17969.33203m10.46875-2.04296l-.11328 7.02343m.09765-6.0039l1.09375-.5586m10.01563.28125l4.33203 5.53516m-4.33203-5.53516l.9961-2.24219m-.36329 3.05079l.4961-1.1211m11.24218 1.44531l6.21875 3.27344m-6.21875-3.27344l-.0078-2.45312m.91405 2.92969l-.0039-1.22656m12.01562 2.17187l7.01563.42969m-5.9961-.36719l-.5078-1.11719m12.8164.91406l6.98828.71094m-5.97266-.60937l-.46484-1.13281m13 .07421l6.51562 2.625m-5.5664-2.24218l-.13282-1.22266m15.09766-1.30078l1.3164 6.90234m9.19141-2.875l6.9336-1.14844m-5.92578.98047l-.7422-.97265m13.08985 1.34375l6.85156-1.5586m-5.85546 1.33204l-.80079-.92579m13.94532 2.73438l5.20312-4.71875m-4.44922 4.03125l-1.15234-.41406"/><g clip-path="url(#V)"><path fill="none" stroke="#000" stroke-linecap="round" stroke-linejoin="round" stroke-miterlimit="10" stroke-width=".5" d="M147.5 360.79688l-7-.60547"/></g><path fill="none" stroke="#000" stroke-linecap="round" stroke-linejoin="round" stroke-miterlimit="10" stroke-width=".5" d="M147.5 360.79688l.96094 2.2578m-1.98047-2.34765l.48047 1.1289m13.85937-1.55468l-7.01172.42188m7.01172-.42188l1.28125 2.09375m-2.30078-2.03125l.64063 1.04688M174.125 360.125l-6.98828.73438m6.98828-.73438l1.3711 2.03516m-2.38673-1.92579l.6836 1.01563m13.64453-.375l-6.98438-.76172m6.98438.76172l.91016 2.27734m12.28125-1.66796L193.89063 359.5m5.7578 1.69531l.25 1.20313m14.09766-1.09375l-6.83984-1.6211m6.83984 1.6211l.6211 2.3711m11.09375-.17579l-3.64063-6.01172m3.10938 5.13672l-.6289 1.05469m15.7539-1.52735l-6.19531-3.3164m6.1953 3.3164l-.0078 2.45313m13.38671-2.57813l-6.32422-3.0664m6.32422 3.0664l.08985 2.44922m12.95703-1.99219L260.9414 358.5m4.9453 3.40625L265.75 363.125m14.19922-.50781l-5.59766-4.25m5.59766 4.25l-.39063 2.42187m14.16016-3.22265l-6.50781-2.64844m6.50781 2.64844l.25 2.4414m13.11719-2.57422l-6.61328-2.3789m6.61328 2.3789l.35156 2.42579m12.79688-2.03516l-6.27735-3.16016m6.27735 3.16016l.05468 2.45312m13.03516-2.0703l-5.82813-3.92579m4.98047 3.35547l-.1289 1.21875m12.46875-5.95313l-2.1836 6.6797m11.23438-4.84767l6.34765 3.01954m-5.42187-2.58204l-.05469-1.22656m12.54297.60156l6.15234 3.39454m-6.15234-3.39454l.03516-2.45312m12.83984 4.125l7.02734.04688m-7.02734-.04688l-1.13672-2.17188m14.64453 1.0586l6.64453 2.27734m-6.64453-2.27734l-.39062-2.42188m13.57812 2.89454l6.89844 1.33203m-6.89844-1.33204l-.71875-2.34765m18.79297 6.27344l-2.61719-6.52344m16.69532.42578l-4.14844 5.67188m18.22656-4.91016l-5.67187 4.14844m4.84765-3.54297l1.10547.53515m9.04297 4.25391l2.3125-6.63672m-1.97656 5.66797l-1.21094.1875"/><g clip-path="url(#W)"><path fill="none" stroke="#000" stroke-linecap="round" stroke-linejoin="round" stroke-miterlimit="10" stroke-width=".5" d="M147.41016 346.33203l-6.82032 1.6914"/></g><path fill="none" stroke="#000" stroke-linecap="round" stroke-linejoin="round" stroke-miterlimit="10" stroke-width=".5" d="M147.41016 346.33203l1.64062 1.82422m11.26953-2.79688l-6.01172 3.63672m5.13672-3.10546l1.05469.6289m13.33594-.77734l-6.41406 2.8711m5.48046-2.45313l.96875.7539m13.56641.65625l-6.98438-.78515m5.96875.67187l.44922 1.14063m10.04688 2.07812l.6836-6.9961m-.58204 5.97657l-1.13672.46875m13.03125.14844l3.32422-6.1914m-2.83984 5.29296l-1.22656-.00781m14.5 1.10547l2.4375-6.58985m-2.08204 5.63281l-1.21875.16407m12.8047-.1289l5.18358-4.7461m-5.18359 4.7461l-2.3125-.81642m15.0586-.02343l6.3203-3.0664m-5.39843 2.62108l-.99219-.72265m18.53516 2.53125l-3.97656-5.79297m13.51562 5.92188l3.57422-6.05079m-3.05469 5.17188l-1.22656-.0586m14.05078.95313l3.51563-6.08203m-3.51563 6.08203l-2.44922-.08594m18.38282.45313l-1.71875-6.8164m1.46875 5.82421l-.91016.82422m13.1875.2461l.85547-6.97266m9.52734 4.51171l6.72266-2.04687m-5.7461 1.7461l-.86718-.8672m13.10547.76173l6.91796-1.23829m-5.91015 1.0586l-.75781-.96485m13.42187 2.17579l6.20703-3.30079m-5.30078 2.82032l-1.01953-.6836m13.73828-2.61328l5.58984 4.25781m-4.77734-3.64062l.19531-1.21094m11.60547 2.35938l6.98828.72656m-5.96875-.6211l-.46093-1.13671m13.94921-1.26172l4.60547 5.3086m-3.9336-4.53517l.4375-1.14453m13.98438 6.5l1.04688-6.94921m-.89453 5.9375l-1.15625.41015m18.35547-2.82031l-7.02735-.10547m7.02735.10547l1.12109 2.1836m12.09766-3.06641l-6.83203 1.66015m6.83203-1.66015l1.6289 1.83593m11.73828-1.5664l-6.9375 1.1211m6.9375-1.1211l1.48438 1.95703m11.8125-.73438l-6.90234-1.32421m5.89843 1.1328l.36328 1.17188"/><g clip-path="url(#X)"><path fill="none" stroke="#000" stroke-linecap="round" stroke-linejoin="round" stroke-miterlimit="10" stroke-width=".5" d="M147.22266 332.46094l-6.44532 2.80469"/></g><path fill="none" stroke="#000" stroke-linecap="round" stroke-linejoin="round" stroke-miterlimit="10" stroke-width=".5" d="M147.22266 332.46094l1.91797 1.52734m-2.85547-1.11719l.96093.76172m11.00782-3.15625L156.375 337.25m1.8789-6.77344l2.39454-.53125m8.19922.89063l3.5664 6.05469m-3.04687-5.17579l.64062-1.04296m11.65235.52343l4.5703 5.33594m-3.90624-4.5586l.44922-1.14452m11.24219 1.6875l6.48828 2.6953m-6.48828-2.6953l-.23438-2.44141m13.33984 3.13672l6.90625 1.30469m-6.90625-1.3047l-.72656-2.34374m13.98438 2.84765l7.02343.29688m-7.02343-.29688L219.3203 331.5m14.4414 3.05469l6.88673-1.38672m-6.88672 1.38672l-1.5586-1.89453m14.91016 2.0625l6.8125-1.71875m-6.8125 1.71875l-1.64453-1.82032m2.63672 1.57032l-.82422-.91016m13.14844-.5586l6.8125 1.71485m-6.8125-1.71484l-.58985-2.37891m15.29297 6.11719l4.03516-5.75781m-3.44531 4.91796l-1.21875-.14843m13.4453.5625l5.03126-4.90625m-5.03125 4.90625l-2.33594-.75m15.23438.23437l5.86328-3.875m-5.86328 3.875l-2.15235-1.17187m15.19922.6875l6.40234-2.90625m-6.40234 2.90625l-1.9414-1.5m14.94921-.13282l7.01563.35938m-7.01563-.35938l-1.03906-2.22265m14.3789 1.95703l6.96876.89062m-6.96875-.89062l-.8711-2.29297m1.88282 2.42188l-.4336-1.14454m12.83594.51172l6.76953 1.89844m-6.76953-1.89844l-.52344-2.39844m13.72266 3.0547l7.0039.58593m-7.0039-.58594l-.96875-2.25781m14.28515 2.24219l7 .61719m-7-.6172l-.95703-2.26171m14.3047 2.00781l6.93358 1.125m-5.92578-.96094l-.39453-1.16015m16.08985 5.07031l.15625-7.02344m-.13282 6.0039l-1.09375.55079m17.45703-1.20313l-5.98828-3.67968m5.1172 3.14453l-.07423 1.22265m14.2461-.66406L433.95312 332m5.95704 3.72656l-.17188 2.44531m13.32422-6.41015l-5.63281 4.19922m4.8125-3.58594l1.10937.52344m13.57031-.0664l-6.71875 2.0625m5.73829-1.76173l.87109.86719"/><g clip-path="url(#Y)"><path fill="none" stroke="#000" stroke-linecap="round" stroke-linejoin="round" stroke-miterlimit="10" stroke-width=".5" d="M147.27734 319.27734l-6.55468 2.53907"/></g><path fill="none" stroke="#000" stroke-linecap="round" stroke-linejoin="round" stroke-miterlimit="10" stroke-width=".5" d="M147.27734 319.27734l1.85547 1.60547m-2.8086-1.23437l.92579.80078m13.30469-1.26172l-6.48047 2.72266m6.48047-2.72266l1.90234 1.55078m-2.84375-1.15625l1.89844 1.55078m-2.84375-1.15234l.95312.77344m14.40235-1.10938l-6.78906 1.8086m6.78906-1.8086l1.67187 1.79688m-2.65625-1.53516l1.66797 1.79688m12.71875-1.64844l-6.96094.98828m6.96094-.98828l1.4414 1.98437m-2.45702-1.83984l.72265.99219m13.60938-1.1211l-6.96094.95313m6.96094-.95313l1.4336 1.99219m-2.44923-1.85156l1.4375 1.98828m-2.44922-1.85156l.71875.99609m14.38282-2.14844l-6.48438 2.70313m6.48438-2.70313l1.89843 1.5586m-2.83984-1.16407l1.89844 1.5547m-2.84375-1.16017l.94922.77735m14.1289-1.83594l-6.23437 3.2461m6.23437-3.2461l2.01953 1.38672m-2.92968-.91406l2.02343 1.38672m-2.92968-.91797l1.01172.69531m14.2578-1.33984l-6.51171 2.64843m6.51172-2.64843l1.88281 1.57421m-2.83203-1.1875l.9414.78516m13.42579 1.1836l-6.71875-2.0586m5.74218 1.75781l.23438 1.20704m10.89844-5.44532l-.39844 7.01563m.33984-5.99219l1.11719-.51563m12.89844-.41015l-1.6836 6.82031m1.44141-5.82812l1.1875-.29688m8.85938.42969l5.33593 4.57422m-4.5586-3.91016l.26954-1.19531m11.89453 4.57422l6.08594-3.51172m-6.08594 3.51172l-2.08203-1.30078m14.9336-.2461l7.01171-.42187m-7.01172.42187l-1.28125-2.09375m2.30079 2.03125l-.64063-1.04687m13.125-.26172l6.63281 2.32422m-6.63281-2.32422l-.36719-2.42578m16.69532.08594l.60937 7m-.52344-5.98047l1.03125-.66797m15.58203 1.46094l-6.16015 3.3789m19.48047-3.3711l-6.17188 3.35938m13.05469-.61328l6.69531-2.1289m-5.72265 1.8164l-.875-.85547m13.8164-2.08594l5.4961 4.375m-4.69532-3.73828l.22266-1.20703m14.78125-.7461l.51562 7.00782m-.4414-5.98828l1.03906-.65234m11.5 6.51953l1.91797-6.76172m-1.63672 5.77734l-1.19922.25781m16.71485.51172l-3.04297-6.33593m3.04297 6.33593l-1.45704 1.97657m16.61329-4.1211l-6.72266-2.04687m5.74219 1.75l.23828 1.20312m12.97265-4.60156l-4.55859 5.34766"/><g clip-path="url(#Z)"><path fill="none" stroke="#000" stroke-linecap="round" stroke-linejoin="round" stroke-miterlimit="10" stroke-width=".5" d="M465.83984 317.875l2.39844.52734"/></g><path fill="#00f" fill-rule="evenodd" d="M255.08984 472.08594h8.6172V461.9414h-8.6172v10.14453"/><path fill="azure" fill-rule="evenodd" d="M256.92188 463.77344h.83203v2.82422h3.28515v-2.82422h.83594v6.48047h-.83594v-2.91797h-3.28515v2.91797h-.83204v-6.48047"/><path fill="#00f" fill-rule="evenodd" d="M161.88281 467.64844H170.5V457.5039h-8.61719v10.14453"/><path fill="azure" fill-rule="evenodd" d="M163.71484 459.33594h.83203v2.82422h3.28907v-2.82422h.83203v6.48047h-.83203v-2.91797h-3.28906v2.91797h-.83204v-6.48047"/><path fill="#00f" fill-rule="evenodd" d="M392.67578 463.21094h8.6211V453.0625h-8.6211v10.14844"/><path fill="azure" fill-rule="evenodd" d="M394.51172 454.89844h.83203v2.82031h3.28516v-2.82031h.83203v6.48047h-.83203v-2.91797h-3.28516v2.91797h-.83203v-6.48047"/><path fill="#00f" fill-rule="evenodd" d="M388.23828 432.14063h8.61719v-10.14454h-8.61719v10.14454"/><path fill="azure" fill-rule="evenodd" d="M390.07031 423.82813h.83594v2.82421h3.28516v-2.82421h.83203v6.48046h-.83203v-2.91796h-3.28516v2.91796h-.83594v-6.48046"/><path fill="#00f" fill-rule="evenodd" d="M219.58203 414.38672h8.61719v-10.14453h-8.61719v10.14453"/><path fill="azure" fill-rule="evenodd" d="M221.41406 406.07422h.83203v2.82422h3.28907v-2.82422h.83203v6.48047h-.83203v-2.91406h-3.28907v2.91406h-.83203v-6.48047"/><path fill="#ff3030" fill-rule="evenodd" d="M317.91797 356.6875h7.69531v-10.14453h-7.69531v10.14453"/><path fill="azure" fill-rule="evenodd" d="M319.7539 348.375h.83204v5.74219h3.1914v.73828h-4.02343V348.375"/><path fill="#ff3030" fill-rule="evenodd" d="M451.07031 338.9375h7.6914v-10.14844h-7.6914v10.14844"/><path fill="azure" fill-rule="evenodd" d="M452.90234 330.625h.83204v5.73828h3.1953v.73828h-4.02734V330.625"/><path fill="#ffffe0" fill-rule="evenodd" d="M238.65625 370.23438h22.17969v-10.19141h-22.17969v10.1914"/><path fill-rule="evenodd" d="M242.15625 361.875h.50781v6.29688h-.78515v-4.48829h-1.39063v-.55859l.5625-.0625.25-.05469.23047-.08984.20313-.14063.17187-.21093.14453-.29297.10547-.39844m4.8125 0l.23047.01953.21875.0586.20703.08593.19531.1211.1875.15234.16797.17578.30469.41797.24219.49219.17968.54687.11328.58203.03516.58985-.03516.59375-.11328.58203-.17968.55469-.2422.5039-.30468.42578-.16797.1797-.1875.15233-.19531.125-.20703.09375-.21875.0547-.23047.01952-.23047-.01953-.21875-.05469-.20703-.09375-.19531-.125-.1836-.15234-.17187-.17969-.30078-.42578-.2461-.5039-.17968-.5547-.10938-.58202-.03906-.59375h.83203l.03125.5625.07813.50781.1289.4414.16016.375.1914.30079.21094.21875.22266.13672.22656.04687.22656-.04687.22266-.13672.21094-.21875.1914-.30078.16016-.375.1289-.44141.08204-.50781.02734-.5625-.02734-.5625-.08203-.5-.12891-.4336-.16016-.36718-.1914-.29297-.21094-.21485-.22266-.1289-.22656-.04688-.22656.04688-.22266.1289-.21094.21485-.1914.29297-.16016.36718-.1289.4336-.07813.5-.03125.5625h-.83203l.03906-.58985.10938-.58203.17968-.54687.2461-.49219.30078-.41797.17187-.17578.1836-.15234.19531-.1211.20703-.08594.21875-.05859.23047-.01953m5.08984 0h.51172v6.29688h-.78906v-4.48829h-1.38672v-.55859l.5586-.0625.2539-.05469.23047-.08984.20313-.14063.17187-.21093.14063-.29297.10546-.39844m2.82422 2.17578h.78906l.01954-.3164.05859-.28516.09766-.2539.14062-.21485.1836-.17188.22265-.1289.26563-.08203.30859-.02735.23438.02344.22656.0625.20312.10156.17969.13672.14844.17188.11328.20703.07031.23828.02735.26172-.02344.26953-.0664.22656-.10938.1914-.15625.16798-.19922.16406-.2461.16797-.63671.38672-.53516.3125-.4375.3164-.34766.32422-.26562.33594-.1875.35156-.125.3711-.07031.39453-.01954.41796h4.21094v-.74218H255.625l.08203-.28125.11328-.23828.14844-.20313.1875-.17969.23047-.17187.27734-.17578.71875-.41406.41406-.20704.34766-.23046.28125-.25.21875-.26954.16406-.27734.10938-.28125.0664-.28516.01954-.28125-.04297-.38671-.1211-.34766-.1875-.30469-.25-.26562-.30468-.21094-.34375-.16016-.37891-.09765-.40625-.03516-.4375.03516-.39844.09765-.35547.16797-.30468.23438-.2461.30078-.1875.375-.11328.44922-.04297.51562"/><path fill="#ffffe0" fill-rule="evenodd" d="M386.1289 399.15625h22.1797v-10.1914h-22.1797v10.1914"/><path fill-rule="evenodd" d="M389.625 390.79688h.51172v6.29687h-.78906v-4.49219h-1.38672v-.55469l.5586-.0664.2539-.05078.23047-.08985.20312-.14453.17188-.20703.14062-.29687.10547-.39454m4.8164 0l.22657.01954.22265.05468.20704.08985.1953.1211.1836.14843.17188.17578.30078.42188.2461.49218.17968.54688.10938.57812.03906.59375-.03906.58985-.10938.58593-.17969.5547-.2461.5-.30077.42968-.17188.17969-.1836.15234-.1953.125-.20704.08984-.22265.0586-.22656.01953-.23047-.01953-.21875-.0586-.20703-.08984-.19922-.125-.1836-.15234-.17187-.1797-.30078-.42968-.24219-.5-.17969-.55469-.11328-.58593-.03515-.58985h.83203l.02734.5625.08203.5039.125.44532.16406.3711.19141.30078.21094.22265.22265.13672.22657.04688.22656-.04688.22265-.13672.21094-.22265.1914-.30079.16017-.37109.125-.44531.08203-.5039.03125-.5625-.03125-.5625-.08204-.5-.125-.4375-.16015-.36329-.1914-.29297-.21094-.21484-.22266-.13281-.22656-.04297-.22657.04297-.22265.1328-.21094.21485-.1914.29297-.16407.36328-.125.4375-.08203.5-.02734.5625h-.83204l.03516-.59375.11328-.57812.17969-.54688.24219-.49219.30078-.42187.17187-.17578.1836-.14844.19922-.1211.20703-.08984.21875-.05468.23047-.01954m5.08984 0h.51172v6.29688h-.78906v-4.49219h-1.38672v-.55469l.5586-.0664.2539-.05078.22656-.08985.20313-.14453.17578-.20703.14062-.29687.10547-.39454m2.82422 2.17579h.78515l.01954-.31641.0625-.28516.09765-.2539.14063-.21485.17969-.17578.22265-.1289.26563-.07813.30859-.02734.23828.01953.22266.0625.20703.10156.17578.14063.15234.17187.10938.20703.07422.23438.02344.26562-.01954.26953-.0664.22266-.10938.1914-.15625.17188-.19922.16406-.25.16407-.6328.39062-.53907.3125-.4375.3164-.34375.32423-.26563.33593-.1914.35157-.125.37109-.0664.39063-.02345.42187h4.21485v-.74219h-3.33203l.08203-.28515.11328-.23438.14844-.20312.1875-.1797.23046-.17187.27735-.17578.71875-.41797.41406-.20312.34766-.23047.27734-.2539.22266-.26563.16406-.27735.10938-.28515.0625-.28516.02343-.28125-.04297-.38281-.12109-.34766-.1875-.30859-.25-.26172-.30469-.21484-.34375-.15625-.38281-.09766-.40625-.03515-.4336.03125-.39843.10156-.35547.16406-.30469.23438-.25.30468-.1836.375-.11718.44531-.03906.51954"/></g></defs><use xlink:href="#aa"/></svg>