<svg xmlns="http://www.w3.org/2000/svg" role="img" xmlns:xlink="http://www.w3.org/1999/xlink" viewBox="142.45 309.95 326.84 171.84"><defs><clipPath id="a"><path d="M144 311.67188h1v168.65625h-1zm0 0"/></clipPath><clipPath id="b"><path d="M144 311.67188h324v168.65625H144zm0 0"/></clipPath><clipPath id="c"><path d="M467 311.67188h1v168.65625h-1zm0 0"/></clipPath><clipPath id="d"><path d="M144 477h3v3.32813h-3zm0 0"/></clipPath><clipPath id="e"><path d="M154 477h7v3.32813h-7zm0 0"/></clipPath><clipPath id="f"><path d="M168 477h6v3.32813h-6zm0 0"/></clipPath><clipPath id="g"><path d="M180 478h8v2.32813h-8zm0 0"/></clipPath><clipPath id="h"><path d="M193 478h8v2.32813h-8zm0 0"/></clipPath><clipPath id="i"><path d="M207 478h7v2.32813h-7zm0 0"/></clipPath><clipPath id="j"><path d="M220 478h8v2.32813h-8zm0 0"/></clipPath><clipPath id="k"><path d="M233 478h8v2.32813h-8zm0 0"/></clipPath><clipPath id="l"><path d="M246 479h9v1.32813h-9zm0 0"/></clipPath><clipPath id="m"><path d="M253 480h3v.32813h-3zm0 0"/></clipPath><clipPath id="n"><path d="M260 479h8v1.32813h-8zm0 0"/></clipPath><clipPath id="o"><path d="M267 479h3v1.32813h-3zm0 0"/></clipPath><clipPath id="p"><path d="M273 479h8v1.32813h-8zm0 0"/></clipPath><clipPath id="q"><path d="M280 479h3v1.32813h-3zm0 0"/></clipPath><clipPath id="r"><path d="M286 479h9v1.32813h-9zm0 0"/></clipPath><clipPath id="s"><path d="M293 479h3v1.32813h-3zm0 0"/></clipPath><clipPath id="t"><path d="M300 479h8v1.32813h-8zm0 0"/></clipPath><clipPath id="u"><path d="M306 479h4v1.32813h-4zm0 0"/></clipPath><clipPath id="v"><path d="M313 478h8v2.32813h-8zm0 0"/></clipPath><clipPath id="w"><path d="M320 478h3v2.32813h-3zm0 0"/></clipPath><clipPath id="x"><path d="M326 478h8v2.32813h-8zm0 0"/></clipPath><clipPath id="y"><path d="M332 479h2v1.32813h-2zm0 0"/></clipPath><clipPath id="z"><path d="M340 478h8v2.32813h-8zm0 0"/></clipPath><clipPath id="A"><path d="M345 479h3v1.32813h-3zm0 0"/></clipPath><clipPath id="B"><path d="M354 477h6v3.32813h-6zm0 0"/></clipPath><clipPath id="C"><path d="M367 478h7v2.32813h-7zm0 0"/></clipPath><clipPath id="D"><path d="M380 478h8v2.32813h-8zm0 0"/></clipPath><clipPath id="E"><path d="M385 478h3v2.32813h-3zm0 0"/></clipPath><clipPath id="F"><path d="M394 477h6v3.32813h-6zm0 0"/></clipPath><clipPath id="G"><path d="M406 479h9v1.32813h-9zm0 0"/></clipPath><clipPath id="H"><path d="M420 477h7v3.32813h-7zm0 0"/></clipPath><clipPath id="I"><path d="M433 478h8v2.32813h-8zm0 0"/></clipPath><clipPath id="J"><path d="M447 477h6v3.32813h-6zm0 0"/></clipPath><clipPath id="K"><path d="M460 477h7v3.32813h-7zm0 0"/></clipPath><clipPath id="L"><path d="M144 463h3v8h-3zm0 0"/></clipPath><clipPath id="M"><path d="M144 450h3v7h-3zm0 0"/></clipPath><clipPath id="N"><path d="M144 438h4v4h-4zm0 0"/></clipPath><clipPath id="O"><path d="M144 425h4v4h-4zm0 0"/></clipPath><clipPath id="P"><path d="M144 413h4v2h-4zm0 0"/></clipPath><clipPath id="Q"><path d="M144 400h4v1h-4zm0 0"/></clipPath><clipPath id="R"><path d="M144 386h4v2h-4zm0 0"/></clipPath><clipPath id="S"><path d="M144 373h4v2h-4zm0 0"/></clipPath><clipPath id="T"><path d="M144 360h4v1h-4zm0 0"/></clipPath><clipPath id="U"><path d="M144 344h4v6h-4zm0 0"/></clipPath><clipPath id="V"><path d="M144 331h4v6h-4zm0 0"/></clipPath><clipPath id="W"><path d="M144 319h4v4h-4zm0 0"/></clipPath><clipPath id="X"><path d="M466 318h2v3h-2zm0 0"/></clipPath><g id="Y" clip-path="url(#clip1)"><path fill="#fff" fill-opacity="0" fill-rule="evenodd" d="M0 0h1000v1000H0zm0 0"/><path fill="#d3d3d3" fill-opacity="0" fill-rule="evenodd" d="M162.15234 355.86719l-.23437.29297.0586.23437.11718.17188.17578.23437.29297.34766.11328.0586.11719-.17188.0586-.23438.17577-.17578.46485-.17578h.69922l.23437.29297.28906.8164.0586.17579.17578.23046.35156.23438.69922.69922.17188.17578.23437.34765.23438.41016.28906.58203.41015.46485.23047.23437.23438.17578.11719.23047.17578.29297.17187 1.16406v.23438l.0586.28906.05859.11719.11719.11719.34765.41015.11719.17188.17578.17578.17578.23437.11719.17188.17188.35156.05859.23438.23437.40625.23438-.0586-.17578.17578-.0586.92969h-.58203l-.23437-.11328-.34766.11328-.11719.11719-.05859.29297-.0586.17578-.11718.17187-.46484.29297-.0586.23438-.0586.11328v.64453l.0586.17187v.41016l.0586.0586v.40624l.05859.40625.11719.17579.05859.05859.23047.64062-.0586.29297v.69922l-.05859.58203v.23438l-.0586.23047-.05468.35156v1.92187l.05469.1172h.42578l-.36719.11718-.02344.35156.89063 1.16797 1.74219.53906 1.33984.35938v.53906l.08984.8086.53516.71484 1.51953.26953.89063-.08594.08984 1.16406.53516.1797 1.16015-.1797 2.05469-.98437 1.16016-.36328 1.8789-.17578 1.69531-.1797-.17968.71876-1.51563.08594-1.25.08984-.80469.26953-1.07421.8086.26953.71875.53515.89843-.17968.625-.26563.8086.26563 1.07812.625.89844.80468.17969 1.25-.1797-.26562.72267.09766.5039.05468.29297v.17188l.0586.29296v.40625l.17578.1172.35156.11718h.40625l.29297-.17578.11328-.11719.0586-.11719.11718-.23047.0586-.17578.35156-.46484.23047-.17578.17578-.0586.17578.0586.0586.17578.11718.98828.05469.46875.0586.17188.11718.23437.17578.0586.8164.05859h.28907l.11719.23437.05859.40625.0586.35156v1.10547l.11718.29297.11719.34766.28906.69922.17578.35156.58203.7539.35157.17579.17187.0586.46875.23437.64063.46484.34765.23438.29297.17578.29297.05468.23047.0625.8164.34766.29297.17578.11328.17188.35157.35156.11719.17578.52343.64063v.28906l.0586.35156v.34766l.05859.35156.0586.28906.11718.0586.17188.05859h.17578l.58203.23437.17578.1172.17578.28905.17578.23438.11328.23437.29297.23047.11719.11719v.41016l.0586.05468.28906.23438.23437.11719.0586.11718.11718.17188.0586.11719.23047.23437.05859.17578.23437.0586.1172.05859-.1172.11328-.05859.11719v.11719l-.11719.29296-.11719.28907v.58203l.17579.11719.11718.05859.0586.11719.11719.11719.11328.05859.17578.34765.0586.35157.05858.40625v.17578l-.05859.17578-.11719.69922v.17187l.1172.17579.29296.29296h.40625l.17578.1172.11719.17187.11719.29296v.23438h-.52735l-.23047-.23438h-.23437l-.17578.0586-.0586.69922.0586.34765.11719.17579.17578.41015.11718.23047.28907.46875.17578.05469h.52344l.23437.0586.75781.64062.0586.29296v.23438l.05859.0586.23047.34765v.35156l-.11719.17188v.29297l.29297.28906.29297.17578.17187.0586.29297.17577.29297.1172.58203.40624.28906.23438.29297.17578.21875.16015.01563.01172.23047.17579.64062.52343.17578.23438.1172.17578.17577.17578.11328.17188v.64062l.1172.17578.46874.11719.58203.11719.23438.05859.23047.11328.29297.11719.11328.0586.58593.35156.28907.17187.17578.0625.17578.05469.17578.0586.69922.35155.28906.17579.23438.05468.28906.17578.23437.1172.64063.40624.29297.11719.17187.0586.23438.05859.41015.05859.23047.0586.23438.11718.0586.17188-.41017.17578.46875.0586.0586.29296.11328.23438.17578.05468.23438.0586.17578.05859.40625.11719.64062.23437.11719.17188.0586.23437v.17578l-.0586.1172-.0586.40624.23438.23438.11719.05859.34766.11719.64062.23047.17578.11718.28906.1172.17578.17577.23438.46485.58203 1.10546.17578.17579.34766.17578.17578.11719.35156.11718 1.04688.52344.23437.0586.46485.11327.29297.0586.46484.17578.75781.58203.23438.23438.34765.46484.17578.17578.28907.23438.8164.69921.29297.17579.28906.28906.29297.17578.29297.28906.69531.64063.17578.17578.29297.23437.28907.23438.46875.28906.64062.58203.34766.23438.23437.29297.34766.34765.35156.46485.9336.99218.34765.40625.11719.17579.23437.05859.11328.11719.64454.17578.23047.11328.23437.0586.29297.17577.23047.1172.9336.69921.40624.40625.23438.17578.40625.17578.23437.11719.8164.34766.34766.23437.23438.11719.29297.28906.23047.11719.7578.35156.35157.17188.23047.05859.29297.11719.23437.0586.8711.17577h.8164l.46875.23047.17188.0586.875.69921.46484.1172.29297.05858.17578.0586.23047.0586.46875.05859.34766.05859.35156.0586.40625.05859h.29297l.17187.0586v.23046l.17578.17578h.29297l.34766.0586.35156.05859.69922.11719h.64063l.46484-.23438.29297-.17578.17187-.11719.41016-.17187.28906-.17578.9336-.46485.46875-.29297.52343-.29296.46485-.17188.46484-.17578 1.05078-.46485.28906-.11718.41016-.11719.28906-.11719.52735-.17578 1.51562-.69922.58203-.34765.28907-.0586.29297-.0586.34765-.11718.875-.23047.35156-.11719h.11329l.23437-.05859.875-.23437.23438-.0586h.8125l.35156-.0586.8164-.11718.17188-.0586.35156-.05468.29297-.0586.23047-.05859.8164-.17578.17579-.0586h.34765l.23438-.05859.46484-.11718.75781-.17188.23438-.0586h.34765l.41016-.11718.28906-.0586 1.28516-.05859h.28906l.41016-.0586.23047-.05858h.17578l.875-.1172h.40625l.41015-.11718h.34766l.35156-.11328.8711-.0586h1.75l1.04687.28907.41016.11719.28906.11718.35156.11719.28907.11719 1.05078.17187.28906.0586h.29297l.29297.05859.17187.0586.41016.05859.17187.0586.1172.05858h.11718l.11719.0586.35156.0586h.11328l.41016.0664 1.92187.39453 1.92578.39453 1.51953.44922 1.69532.71875 2.14453.80469 1.60547-.71875 1.42968-.80469 1.16016-1.07813 1.25-.44921 3.03516-.71875 1.875-.35938 2.14453-1.34765 2.23437-1.25391 2.5-1.25781 1.69531-.44922 1.78516-.17969 1.16016-.26953.625.53906 1.33984-.26953.71485-.98828.98437-1.34375.44531-.17969.80469-.35937 1.875-.53907 1.78516-.44921 1.25-.26954 1.16015-.08984 1.69922-.08984 1.96094-.26954 1.25-.08984h.53906l.625-.08984h.89063l2.14453-.17969 2.41015-.17969 2.58985-.08984 1.69531.17969 1.60938.08984 1.42968.35938 1.16016.71875 1.875.98828 1.16015 1.52734.26563.71484.6289.08985.35548.89844.53515.53906.53516 1.52734 1.07422.35938h.53515l-.80469.53515.08985 1.70703.71484 2.69532.89063.80468.89453.98829.71484 1.2578 1.78516.53907 1.51953-.17969.35547 1.34375 1.60937-.80469.98047-.53906.26953.26953.31641-.21484.21875-.14453.80078.44922.44922-.35938h.35547l.53515-.26953.53907-.71875.53515-.26953.625-.98828 1.16016.44922.83984.3711 1.39454.61718 1.6953-.17969h1.60548l1.78515.08985.17969-1.70704.53516-1.34375.80468.26954.4922.84765.40233.40625-.08984.53906v.35938l.71485.44922.71093-.26953h1.42969l.35938.98828.4453 1.25781.71485 1.34375 1.25.6289 1.69531.62891.71485-.17969.17969-.53906.98046-.08984.44922.35937.08594 1.25782-.26563.6289-.53515.17969v.53906l.71484.98438.26563.53906.98437.98828.80078 1.07813-.26562.35937-.08985.89844-.625 2.33203-.35546 2.0664-.08985 1.79298-.17969.71875-.08984.53906v1.4375l-.98047 1.88281-.35937 1.70703-.53516.89844-.80469 1.16797-.26562.53906 2.05469 1.2539.08593.35938-.35546.53906-.08985-.17968v.80859l.08985 1.4375-.44532.71484-1.07422.09375-.26562.71485.53515.89844.8047.71875 1.16015.80859 1.33984.26953.44531.35938-.35546.44921-1.78907-.08984-1.25-.44922-.71484-.71875-.625-.08984-.17578 3.58984-.1875 1.3086h89.35937V311.70313h-55.26953v49.08203l.76172.125 3.28906.54296 2.02344 2.83594v2.7539l2.35156.33204 2.34766.33203h4.05078l-1.3789 4.16016-2.02344.70703-2.02344.70312-.54297.34375-2.59375 1.6172-.1875.11718-2.02344-2.07813-.73046-2.74218-2.67188-2.07813-1.375-3.5-.0664-.08203-1.95704-2.67188 2.75-1.41796v-49.08204H294.42187v91.41407l.1172.03125.1328.01172.07422.07421.10547.04688.08985.0586.08593.05859.08985.0586.29687.29687.0586.08984.03125.11719.02734.11719.01563.13671-.03125.1172-.0586.08983-.0586.08594-.04296.10547-.04688.10156-.02734.1211v.14453l.17578.26953.14844.14844.07422.08594.07422.07421.04296.10547.0625.08985.0586.08593.04297.10547.0586.08985.04687.10156.04296.10547.0586.08594.11719.17968.07421.07422.0625.08594.0586.08984.04297.10547.0586.08985.05858.08593.0625.08985.0586.08984.04297.10156.11719.17969.07421.07422.0586.08594.07422.07421.08984.0586.10547.04687h.14844l.1328-.01562.13282.01562.10156-.04687.07422-.07422.04688-.10156-.01563-.13281v-.14844l-.04687-.10547-.02735-.11719-.04687-.10156-.02735-.1211-.04296-.10156-.0625-.08984-.04297-.10156-.04297-.10547-.03125-.11719-.01563-.13281-.01171-.13672.08593-.0586.0586-.08593.12109-.03125.04297.10547.01562.1328v.1172l.0586.10156.0586.08984.08983.0586.14844.14843.0586.08985.04296.10547-.01171.10156.08593.0586.10547.04687.08594.0586.08984.05858.07422.07422-.11719.02735-.10546.04687-.08594.0586-.07422.07421-.0586.08985-.0625.08594-.02734.12109-.04687.10156-.04297.10547-.03125.11719-.01172.13281-.01563.13281v.14844l.02735.11719.04687.10547.04297.10156.0586.08984.07421.07422.08985.0586.07422.07421.08984.0586.0586.08984.04296.10547.04688.10156.11719.03125.1328.01563h.14845l.11718-.03125.10547.04297.04297.10547.04688.10156.02734.1211L299.5 410l.02734.11719.03125.1211.02735.11718.10547.04297.10156.04687.13281-.01562.14844.14844.0625.08593.07422.07422.07031.07422.08984.0625.10547.04297.10156.04297.1172.03125.13671.01562.11719-.03125.07422-.07422.02734-.11718-.01172-.13282-.03125-.12109-.02734-.11719.04297-.10547h.11719l.08984.0625.11719.02735h.14843l.13282.01562h.14843l.13282.01563.1328-.01563h.14845l.1328-.01562.13282-.01172.13672.01172.11719-.02735.13281-.01562.1914-.0586-.05859.17579-.01562.1328-.02735.1211-.01562.13281-.0586.08594-.1328.01563-.10548.04687-.10546.04297-.1172.03125-.11718.02735-.26563.03125h-.14843l-.13281.01562-.07422.07422.05859.08594.14844.14843.11719.1797.07421.0703.08985.0625.08984.0586.08594.0586.08984.05858.10156.04297.10547.0625.10547.04297.08594.0586.10547.04687.10156.04297.17969.11719.0586.08984-.04298.10156-.04687.10547.01562.13281.22266.22266.0586.08985.04296.10156.03125.1211.04297.10155.01563.13282.03125.11718.01171.13672.03125.11719.14844.14844.10156.04297.10547.04296.1172.03125.1328.01563.13672.01563h.11719l.11719-.03125.08984-.0586.04297-.10547.04688-.10156.04296-.10547.03125-.11719.01172-.1328v-.14845l-.01172-.1328-.01562-.13282-.03125-.11719-.04297-.10547-.04688-.10547-.04296-.10156-.04297-.10547-.01563-.13281.01563-.13281.02734-.11719.03125-.11719.02735-.1211.04687-.10155.08984-.0586.08594-.0625.07422-.07422.08984-.05859.22266-.22266.0586-.08593.07421-.07422.11719-.17969.0586-.08594v-.14844l-.07423-.07421-.10156-.04688-.10547-.04297-.10156-.04297-.0586-.08984-.04687-.10547-.02734-.11719.08984-.05859.11719-.03125.10156-.04297.17969-.11719.14844-.14843.01172-.13282-.01172-.10546-.08985-.0586-.1328.01563h-.14845l-.1328.01562-.13282-.01562-.1211-.03125-.08593-.0586-.07422-.07422-.0586-.08984-.0625-.08594-.11718-.17969-.0586-.08593.03125-.1211.08594-.05859.1211-.03125.05859-.08594v-.1211l-.03125-.11718-.0586-.08984-.05859-.08594-.04687-.10547-.02735-.11719-.01562-.1328.0586-.08985.07421-.07422.08984-.0586.1172-.17968.07421-.07422.0586-.08594.14843-.14844.1211-.03125.1328-.01562.13282.01562.07422.07422.04297.10547.01562.13281-.03125.1172-.11719.03124-.1328.01172-.14844.14844-.04297.10547-.04688.10156-.02734.1211-.03125.11718v.14844l.03125.11719.04297.10546.05859.08985.07422.07031.07422.07422.11719.03125.12109.02734.11719-.02734.1328-.01563h.1172l.08984.0586.07422.07422.04687.10546.0586.08594.10156.04688.13281.01562.10547.04297.08594.0586-.01172.10546-.07422.07422-.17969.11719-.05859.08984-.08984.0586-.07032.07422-.07421.07421-.0625.08985-.02735.11719-.01562.1328.01562.13282-.01562.13281v.14844l.01562.13281.02735.1172.03125.12108.07421.07422.08985.0586.08594.0586.08984.05858.11719.03125v.08594l-.10157.04688-.08984.0586-.26563.03124-.11718.02735h-.14844l-.10547.04296-.10156.04688-.0586.08984-.0625.23438-.01171.13281-.03125.1211-.01563.1328v.29298l-.01172.1328.01172.13673.01563.1328.1328.01563.13282.01172.1211.03125.08593.0586.07422.07421.04688.10547.04296.10157.01563.1328v.44532l-.01563.13281v.44532l.03125.26562.02735.11719.01562.13281.03125.11719.08594.21094.03125.26562v.14844l-.03125.11719-.02734.11718-.03125.1211-.02735.11719-.03125.11718-.03125.1211-.01171.1328-.01563.13282.08984.0586.1172-.03125.10155.01562.04688.10547-.03125.26562v.44141l-.04297.10547-.04688.10547-.04296.10156-.04297.10547-.0586.08594-.03125.12109-.04296.11719-.03125.11719-.01563.1328.01563.13282.05859.08984.10547.04688.08594.0586.05859.08593-.01172.13672-.03125.11719-.04297.10156v.44531l-.01562.13281v.14844l-.03125.11719-.04297.10547-.02735.11719-.04687.10546-.04297.10157-.03125.12109-.02734.11719-.03125.13281-.03125.11719-.02735.11719-.04297.10546-.03125.1172-.03125.12108-.01171.13282-.01563.13281v.29688l.02734.11718v.14844l.04688.39844.02734.11719.0586.08984.12109.03125h.14844l.13281-.01563.0586.08985v.11719l-.0586.08984-.08984.0586-.10157.04296-.10546.04688-.08985.05859-.08594.0586-.13671.01562-.1172-.03125-.1328-.01563-.10157.04688-.0625.08594-.01172.13671-.01562.13282-.03125.11719-.02735.11718-.01562.13281-.03125.1211v.29687l.01563.13282.03125.11718v.14844l.01171.13281v.14844l-.02734.11719-.04688.10156-.02734.1211-.03125.11718-.0586.08985-.07421.07421-.10156.04297-.10547.04688-.11719.02734-.1211.03125-.10156-.04687.0586-.08594.10547-.04688.02734-.11718.03125-.11719.02734-.1211.03125-.11718v-.14844l.01563-.13281-.03125-.11719-.04297-.10547-.10547.01563-.07422.07422-.10156.04296-.08984.0625-.07422.07422-.04297.10157-.01563.1328-.03125.1172L304.25 426l-.03125.11719-.02734.11719-.03125.12109-.02735.11719-.03125.11718-.04297.10547-.08984.0586h-.08984l-.1172-.03125-.03124-.08594.01562-.13672-.03125-.11719v-.14844l-.01171-.1328v-.14844l-.0625-.23438-.02735-.1211-.04297-.10156-.04687-.10546-.0586-.08594-.05859-.08985-.04297-.10546-.0625-.08594-.14844-.14844-.0703-.07422-.10548-.04687-.10547-.04297-.10156-.04297-.29687-.29688-.08985-.07421-.08594-.0586-.10546-.04297-.08985-.0625-.08594-.0586-.10546-.04296-.08985-.0586-.08594-.0625-.07421-.0703-.10547-.04688-.08594-.0586-.10547-.04296-.08984-.0625-.10156-.04297-.10547-.04297-.08594-.0586-.10547-.04687-.10547-.04297-.10156-.04687-.08985-.0586-.10156-.04297-.10547-.04296-.08984-.0625-.11719-.02735-.13281-.01562-.13281.01562H299.75l-.13281.01563-.11719-.03125-.08984-.0586-.07422-.07422-.08985-.05859-.10156-.04688h-.14844l-.12109-.02734-.10156-.04297-.07422-.07422-.11719-.17968-.08984-.0586-.10156-.04297-.08985-.0625-.10547-.04296-.08984-.0586-.08594-.0586-.10547-.04687-.0586-.08594-.05858-.08984-.04297-.10547-.04688-.10156-.07422-.07422-.08594-.0586-.07421-.07421-.08985-.0586-.22265-.22265-.04297-.10547-.03125-.26563.10547-.04296h.14453l.10547.04296.07421.07422.08985.0586.08594.0586.10546.04687.08985.05859.14844.14844.0703.07422.14845.14843.0625.08594.07421.07422.08594.0586.07422.07421.08985.0625.08984.0586.08594.05859.26953.17578.10156.04688.10547.04296.10156.04297.04688-.07421.05859-.08594.07422-.07422.07031-.07422.10547.04297.07422.07422.0586.08984.04296.10156.04688.10547.04296.10547.1211.02735.11719-.02735.07421-.08984.04297-.10547.0586-.08985.07422-.07421.10546-.04297.1172-.02735.1328.01172.08985.0586.14844.14843.05859.08985.04297.10547.04687.10156.04297.10547.04297.10156.10547.04688.10547.04296.13281.01563.08594-.0586.0586-.08984.07421-.07422.10547-.04297.11719.02735.10547.04687.10156.04297.10547.04297.10156.04688.17969.11718v.11719l-.01563.13281.01563.13281.01562.13672.0586.08594.10156.04688.1211.02734.11718.03125h.14844l.11719-.03125.05859-.08984.17969-.1172.05859-.08983.07422-.07422.0586-.08594.11718-.17969.17969-.11719.11719.03125.08984.0586.04297.07422-.01563.1328v.1172l.08985.05859h.14843l.13282-.01563.1328-.01171.26563-.03125.10547-.04297.11719-.03125.1211-.02735.07421-.07421.07031-.07422.0625-.08985-.01562-.10547-.04688-.10156-.10156-.04297-.10547-.01562-.11718.02734-.26563.03125h-.14844l-.07421-.07422-.08985-.0586-.11719-.03124-.11718-.02735-.13282-.01562h-.14843l-.13282.01563h-.29687l-.10547-.04688-.14844-.14844-.04297-.10156-.05859-.08984.22266-.22266.08593-.0586.10547-.04296.11719-.03125.13281-.01563.13281.01563.13672.01562.10157.04297.1328-.01172.08985-.0625.10156-.04297.0625-.08984-.04687-.10156-.08984-.0586-.1172-.03125-.10155-.04296-.0586-.08985-.0625-.08984v-.11719l.01563-.13281.10547-.04688.07421-.07031v-.1211l-.08984-.05859-.03125-.11719.08985-.05859.07421-.07422.04297-.10547.0586-.08984.04687-.10156.01563-.13281v-.14844l-.04688-.10547-.04297-.10156-.08984-.0586-.13281-.01562-.10157-.04297-.13671-.01563-.1172-.03125h-.4453l-.13282-.01562-.13281-.01172-.13281-.01563-.11719-.03125h-.14844l-.13281-.01562-.13281-.01172-.26563-.03125-.1211-.04297-.08593-.0586-.07422-.07421v-.14844l.01172-.13281.10547-.04688.10156-.04296.13281-.01563h.15235l.13281-.01562h.29297l.1211.03125.10156.04296.08984.0586.23438.0625.12109-.04688.08984-.05859.10156-.04297.13282-.01562.10547.04296.10156.04688.13281.01172.1211-.02735h.14453l.12109-.03125.11719-.02734.10547-.04687.07421-.07422.08594-.0586.14844-.14843.0586-.08594.04687-.10547.02734-.11719.01563-.10547-.10156-.04296-.08985-.0586-.11719-.03125-.10546-.04297-.08985-.0625-.07422-.08594-.07422-.07421-.10156-.04297-.10547-.04688-.10156-.04297-.0586-.08984-.04687-.10156-.08594-.21094-.0625-.08594-.05859-.08984-.07422-.07422-.08594-.0586h-.26953l-.11719.03126-.08984.05859-.10156.04297-.13281.01562-.10547-.01562-.02735-.11719-.0625-.08984-.11718-.03125-.10157-.04297-.14843-.14844-.03125-.11719-.01563-.10546.07422-.07422.17969-.1172.11719-.02733.11718-.03125.13672.01562.10156.04297.10547.04297.10156.04687.10547.04297.1172.03125.1328.01563.1172.02734.1328.01563.10547-.01563.08985-.0586-.07422-.07421-.10547-.04297-.07422-.07422-.07422-.08984-.14844-.14844-.08593-.0586-.08985-.05859-.07422-.07422-.08984-.0586-.10156-.04687-.1211-.02734-.10156-.04688-.10547-.04296-.11719-.03125-.10156-.04297-.1211-.03125h-.14843l-.11719.03125-.10546.04297-.08594.0625-.17969.11718-.08594.0586-.08984.0586-.10547.04687-.08594.05859-.10547.04297-.10156.04297-.10547.04687-.07422.07422-.05859.08985-.0586.08593-.04687.10547-.0586.08594-.07421.07422-.13281-.01172-.1172-.03125h-.11718l-.07422.07422-.08984.0586-.07422.07421-.08984.0586-.08594.05859-.10547.04687-.10156.04297-.13672.01563-.10156-.04297-.14844-.14844-.10547-.04688h-.08594l-.10547.04688-.10156.04297-.1211.03125-.11718-.03125-.07422-.07422v-.11719l.03125-.1211.07422-.0703.0586-.08985.07421-.07422.11719-.03125.10547-.04296h.29297l.13281-.01563.13672-.01563.10156-.04296.08985-.0586.10156-.04687.08984-.0586.13281-.01171.08985.05859.13281.01172.08984-.0586.08594-.05859.10547-.04297.08984-.0586.08594-.0625.08985-.05859.14843-.14843.0586-.08594.05859-.08985.10547-.04296.13281-.01563.11719.02735.1211.03125.05859-.0586.05859-.08984.03125-.26563.02734-.11719.10547.01172.13281.01563.10157-.04297.08984-.0586.0586-.08984.07421-.07422.0586-.08984.04687-.10156.01172-.13281-.01172-.13282-.04687-.10547-.14844-.14843-.0586-.08985-.05859-.08594-.04297-.10546v-.44532l.01563-.1328v-.14845l.01172-.1328-.0586-.0586-.08984.0586-.10156-.04298-.17969-.11719-.08594-.05859-.0625-.08984-.0586-.08985-.07421-.07421-.08594-.0586-.1211.03125-.10155.01172-.10547.04688-.08594.05859-.10547.04297-.14844.14844-.08984.05859-.08594.0586-.08984.0625-.10547.04296-.13281.01563v-.1211l.10547-.04297.11718-.03125.07422-.0703.04297-.10548v-.14844l-.02734-.11718-.14844-.14844-.13281-.01563h-.14844l-.11719.03125-.10547.04297-.10156.04297-.08984.0625-.11719.02735-.07422-.07422.01172-.13281-.04297-.10157-.04297-.10547-.08984-.05859-.11719.02734-.1211.03125-.11718.03125-.10156.04297-.1211.03125-.10156.04297-.10547.04297-.08984.0586-.10156.01562v-.11719l.01562-.13281-.0586-.08985-.07421.04297-.14844.14844-.0586.08985-.07421.07421-.04688.10547-.04296.10156-.07422.07422-.0586.08985-.07422.07422-.05859.08593-.07422.07422-.08984.0625-.07422.07031-.07422.07422-.10156.01563-.13281.01562-.10547-.04296v-.1211l.14843-.14844.04297-.10156.0586-.08984.04687-.10156.04297-.10547.0586-.08985.03124-.11719.04297-.10156.03125-.1211.02735-.11718.04687-.10547.04297-.10156.04297-.10547.07422-.07031.08984-.0625.08985-.0586.10156-.04296h.29687l.26563-.03125.10547-.04297-.07422-.07422-.11719-.03125-.10547-.04297-.08984-.0586-.10156-.04687-.08985-.0586-.10156-.04296-.10547-.04297-.08984-.0625-.08594-.0586-.10547-.04296-.10156-.04297-.1211-.03125-.11718-.03125-.10157-.04297L297.5 410.25l-.10156-.04297-.08985-.0586-.04296-.10546-.01563-.13281.10156-.04297.13281-.01563.13672.01563.13282-.01563.10156-.04297.0586-.08984.01562-.10547-.08985-.0586-.07421-.07421-.10157-.04297-.08984-.0586-.14844-.14843-.04297-.10547-.01562-.13281v-.29297l-.0586-.08985-.08984-.05859-.07422-.07422-.04297-.10547-.03125-.11718-.0586-.08985-.07421-.07422-.11719-.02734-.07422-.07422-.08984-.0586-.08984-.0625-.08594-.05859-.07422-.07421-.0586-.08594-.04687-.10547-.08594-.0586-.14843-.14843-.19532-.0586-.1328.01563-.10157.04297-.07422.07422-.04688.10156-.04296.10547-.0586.08984-.0586.08594-.29687.29687-.08984.0586h-.08594l-.0625-.08594-.04297-.10547.03125-.11719.0586-.08984.02734-.11719-.01172-.13281-.08984-.0625-.10547.04688-.11719.02734-.11719.03125-.26953.17578-.10156.04688-.11719.02734-.10546.04687-.08985.0586-.10156.04297-.0586-.08594-.04687-.10547.01563-.13281.04687-.10547.07031-.07422.07422-.07031.0586-.08985v-.14843l-.04297-.10547h-.23829l-.10156.04687-.03125.11719-.02734.11719-.03125.1211-.07422.04296-.13281.01563-.07422-.04688-.04297-.10156-.04297-.10547-.04687-.10156-.04297-.10547-.1211.03125-.10156.04297-.13281.01562-.11719.03125-.10547.04297-.08984.0586-.10156.04687-.1211.02734-.13281.01563-.10156-.04297-.0586-.08985-.04687-.10546-.04297-.10157-.04297-.10546v-.1172l.0586-.08984.08593-.05859.17969-.11719.10156-.04687.10547-.04297.10547-.0586.10156-.04296.08985-.0625.10156-.04297.10547-.0586.10156-.04687.08984-.0586.10547-.04296.10156-.04297.08985-.0625.10156-.04297.13672-.01563.11719.03125.10156.04297.1211.03125.10156.04297.10546.04688.10157.04296.10547.04297.10156.04688.10547.04297.10156.04297.10547.04687.08594.0586.10546.04296.1172.03125.10546.04297.10156.04688.08985.0586.10547.04296.10156.04297.10547.04687.11719.02735.10156.04687.1211.02735h.14843l.08594-.0586.01562-.10156.0586-.08984-.02735-.1172-.07422-.07421-.11719-.17969-.07421-.07422-.08985-.07421-.17969-.1172-.08593-.05859-.10547-.04296-.10156-.04688-.26954-.17578-.05859-.08985-.07422-.07421-.0586-.08985-.04296-.10156-.03125-.11719-.01563-.13672v-.5625l-.01171-.1328-.01563-.13282-.03125-.11719-.01562-.13281-.01172-.13281-.03125-.1211-.22266-.22265-.0586-.08594-.01562-.10547.03125-.11719.13281-.01562v-91.41406H172.9922v1.45312l-.0586.23438-.35156 1.05078-.17187.52343-.1172.34766-.17577.41016-.11719.17187-.23438.29297-.23046.0586h-.35157l-.11718.05859-.23047.40625v.29297l.11719.17578.23046.23047.1172.23437.64062.75781.29297.46485.17578.23437.23047.35156.23437.34766.64063.8164.17578.46485.17187.41016.11719.69531.17578.46875.11719 1.39844.0586.46484v.875l.11718 1.04688v4.78125l-.0586.46484-.35156 1.28125-.17578.52344-.11328.41015-.35156.9297L172.93359 336l-.23437.58203-.11719.17578-.17187.34766-.17578.40625-.35157.8164-.0586.29297-.11327.29297-.11719.28906-.0586.17579-.11718.875-.0586.40625-.05859.11718-.0586.17579-.05859.17187-.23047.52734-.11718.17188v.23437l-.11719.23438-.0586.17187-.17577.58594v.28906l-.0586.17579v.29296l-.0586.11329-.05859.52734v.17187l-.05468.23438v2.6211l-.17578.8164-.1172.17578-.17577.23438-.1172.17187-.11327.23438-.58594.93359-.23047.28906-.29297.46485-.17578.23437-.28906.35156-.35156.69922-.11328.23047-.17579.41016-.17578.23046-.40625.52735-.8164.69922-.29297.17187-.28906.23438-.17579.11719-.17578.17578-.52344.40625-.52734.17578-.17187.17578-.23438.05469-.64062.17578h-.75782m12.21094 31.02344l-1.07422.44921.35938.89454 1.25-.71485.44531-.53906-.98047-.08985"/><path fill="#d3d3d3" fill-opacity="0" fill-rule="evenodd" d="M201.50781 416.59766h-.89453l.44922.6289.98047.35938.80469-.08985.4453-.98828-.17577.08985-.71485-.35547-.89453.35547m154.6211 59.0703l-.0586-.52343v-.29297l.11328-.29297.0586-.23046.46875-.46875h.11328l.11719-.11329.11718-.05859h.17579l.23437-.0586h.34766l.23437.0586.11719.0586.23047.17187.0586.17578.11718.58203v.29297l-.11719.17578-.17187.28906-.17579.17579-.52734.52343-.23047.23438-.11719.0586h-.17578l-.11718-.0586-.40625-.29297-.17579-.11719-.11718-.0586-.0586-.11327-.05468-.1172m6.64062-10.95702l-.0586-.17188v-1.10937l.0586-.17188.17578-.0586.17188-.05858h.17578l.23437-.0586.1172.0586.05858.69921-.05859.17188-.11719.17578-.11718.0586-.23438.52343-.11328.0586h-.23438l-.05859-.1172m9.61328-14.39062l-.11719-.17578v-.69922l.29297-.875.1172-.17187.17577-.35156.11328-.23047.1172-.29297.35155-.75781.1172-.23047.17187-.23438h.17578l.11719-.0586h.64062l.11719.0586.23437.23438.17188.11328.35156.29297.11719.11718.11328.17579v.11328l.11719.05859.11718.11719v.69922l-.05859.17578v.23047l-.0586.17578-.34765 1.05078-.11719.23047-.11719.23437-.11718.0586-.23047.23437-.64063.28906h-.875l-.41015-.11718-.64063-.46485"/><path fill="none" stroke="#bebebe" stroke-linecap="round" stroke-linejoin="round" stroke-miterlimit="10" stroke-width=".5" d="M467.95703 311.69531H144.02734v168.625h323.9297v-168.625"/><g clip-path="url(#a)"><path fill="#fff" fill-opacity="0" fill-rule="evenodd" d="M144 475.89063v4.4375h.0039H144V311.67188h.0039H144v164.21875"/></g><g clip-path="url(#b)"><path fill="#fff" fill-opacity="0" fill-rule="evenodd" d="M144.0039 480.32813V311.67188h17.75v70.54296l-.8125.46875-3.625 1.32032-3.66015 3.12109 1.01172 4.4375 2.64844 2.8164 4.4375 1.5 4.4375-3.17968.5664-1.13672 1.39063-4.4375-1.95703-2.1211-3.92578-2.3203-.51172-.46876v-70.54296h26.6289v45.54296l-4.4375 1.00391-3.3086 2.27344-1.1289 1.84765-3.49219 2.59375.1172 4.4375 3.375 3.6211.7539.8164 3.6836 3.48829 4.16796-3.48829.00781-4.4375.26172-3.40625 2.78125 3.40625-1.96484 4.4375-.55078 4.4375.76172 4.4375 3.41015 2.96875 2.42188 1.47266 2.01953 2.6289.3789 1.8086-.3789.54297L193.64844 396l-.82813.21484-.49219-.21484-3.9453-4.09375-.89845-.34375-3.53906-4.05078-3.21484 4.05078L179.62109 396l-.11328.17188-4.4414 1.02734-4.4375-.02344-4.4375-.71094-3.64453 3.97266 3.64453 3.47656 2.30078.96094 2.13672 2.34766 2.08593 2.09375 1.42578 4.4375.92579.78515 4.4414 2.70703 4.4375.45313.94531.49219-.9453 3.4375-.67579 1 .67578 1.42968.875 3.01172 3.5625 2.85938 4.4375.88281 4.4414.27344 4.4375.125 2.8086.29687 1.6289 1.73047 4.4375 1.45703 4.44142.2461 4.4375-1.8047 2.3203-1.6289 2.1172-2.66015 4.4375-.98829 2.47265-.78906 1.96484-.11328.69141.11328 3.75 2.1875 1.58203-2.1875 1.11328-4.4414-2.6953-4.28516-.01563-.15234-2.48828-4.4375-1.9375-1.59766-4.4375-2.80078-.11329-.03906-4.32422-3.83985-.85937-.60156-3.57813-2.6875-4.4375-1.60547-1.3789-.14453-3.0625-4.41406L210.5664 396l-2.48047-4.4375-1.94922-2.20313-3.33984-2.23437.96875-4.4414 1.92187-4.4375-3.98828-3.59766-4.4375-.66016-1.41406-.17969-1.57422-4.4375-1.45313-1.5703-3.47265-2.8672.74218-4.4414-1.70703-3.27735v-45.54296h35.50781v82.4414l-4.4375 1.3086-2.44921.57812 2.44922.57813 4.4375 1.5664L226.65625 396l-2.76563-1.88672v-82.4414h8.875v76.54296l-3.72656 3.34766 3.72656 3.4414 4.13282-3.4414-4.13281-3.34766v-76.54296h17.7539v69.39843l-1.47266 1.61328 1.47266 1.48829v30.14453l-2.35937 3.875 2.35937 1.80078 4.4375.20312 3.66797-2.0039-3.66797-2.26563-4.4375-1.60937v-30.14454l2.76172-1.48828-2.76172-1.61328v-69.39844h22.1914V355.625l-.39062.42969.39063.57422 1.39062-.57422-1.39062-.42969v-43.95313h13.3164v33.39454l-3.7539 2.11328-.6836.26562-4.15625 4.17188 4.15625 3.07422 3.88282 1.36328.55468.46094.51172-.46094 3.1211-4.4375-1.91016-4.4375-1.72266-2.11328v-33.39454h8.875v60.21094l-1.96093 1.92578 1.96093.6797 1.10938-.6797-1.10938-1.92578v-60.21094h13.31641v32.01563l-3.91406 3.49219-.52344 2.28515-1.08984 2.15235 1.08984 1.71094 4.4375-.125 2.27344-1.58594 2.16406-2.71094 4.4414-1.03906 2.625-.6875-2.625-1.58203-4.4414.11718-4.4375-2.02734v-32.01563h17.7539v19.56641l-1.6328 2.625 1.6328 1.5039 3.67579-1.5039-3.67578-2.625v-19.5664h17.7539v13.98046l-4.4375 2.60547-1.69531 1.16797 1.69531 1.26563v93.27734l-3.11328 3.10156 3.11328 2.73828 3.21875-2.73828-3.21875-3.10156v-93.27734l4.29297 3.17187.14453.27735.46485-.27735 3.02343-4.4375-3.48828-3.77344v-13.98046h26.6289v124.6875l-3.89843 4.02343-.53906.51563-4.4375.47656-4.4375-.5586-1.16797-.43359-3.27344-2.57422-4.4375.45704-2.60937 2.11718.44531 4.4375-2.27344.32813-2.52734-.32813-1.91016-.60547-.86719.60547-3.57421.7461-4.4375.94921-3.21094 2.7461-1.22656.90625-3.98438 3.53125 3.98438 4.04297.1914.39453 4.2461 3.4336 4.4375.41015 1.44921.59375 2.9922 2.4961 4.4375 1.08984 4.4375.1875 4.4375.49218 4.4414.07422 4.4375-.05078.41015.15235 4.02735 3.14843 4.4375-.35937 4.4375-1.64063 4.4414.1211 4.39063-1.26954-.1289-4.4414-.14454-4.4375.32031-.85547 3.59375-3.58203-3.59375-4.20313-.1328-.23437-4.3047-4.17969-.08984-.26172-4.35156-4.375-.125-.0625-4.3125-4.02344v-124.6875h13.3164v118.14844l-3.20703 1.6875-1.23046 3.10938-.77735 1.32812.77735 2.30078 1.3203-2.30078 3.1172-1.24219 1.69921-3.1953-1.69921-1.6875V311.67187h4.4375V459.6328l-2.14844 2.9414 2.14844 2.45313 1.58203-2.45312-1.58204-2.9414V311.67187h4.4375v130.28906l-3.40625 2.85937 3.40625 4.35156 2.69141-4.35156-2.6914-2.85937V311.67188h4.4375v82.59765L395.2539 396l1.73046 1.73047L399.54298 396l-2.5586-1.73047v-82.59765h4.44141v112.7578l-4.4414 1.14844-1.53125 1.4922 1.48046 4.4375.05079.0625 1.51562 4.375-.3711 4.4375-.3203 4.4375.64843 4.4414 2.96875 3.1211 2.2539-3.1211 2.1836-4.41406.02344-.02735 4.41406-1.61328 4.4375.39063 2.79297 1.22265 1.64844 1.45313 2.30078-1.45313-2.30078-2.01953-.9414-2.41797-3.5-3.44922-.31642-.98828-4.12109-4.10547-.28906-.33203-4.14844-4.02344-1.97265-.41406-2.46485-2.64062V311.67188h22.1914v80.03515L419.21876 396l2.50781 4.4375-.20312 4.4375-2.34375 1.52734-3.46094-1.52734 1.01172-4.4375L418.83984 396l-4.10156-2.73828L411.91797 396l.73828 4.4375.86328 4.4375-.3711 4.4414 1.58985 1.64844 2.82031 2.78907-.97265 4.4375 2.59375 2.64062 1.85937 1.79688 2.57813 2.35156 3.33984-2.35156 1.09766-.27344 4.4375-.4961 4.4375-1.09765 2.69922-2.57031 1.74218-1.01172 3.58204-3.42578.85546-1.90235 2.17579-2.53515-2.17579-2.23829-1.01171-2.20312-.16016-4.4375-3.26563-3.57422-4.4414 2.85547-.71875.71875-3.71875 2.39844-4.4375-.53906-2.58985-1.85938L427.9297 396l-4.3125-4.29297v-80.03515h26.6289V424.8789l-2.26171 2.1914 2.26171 3.48438 2.25782-3.48438-2.25782-2.1914V311.67187h17.75v168.65625H144.00391"/></g><path fill="#50fcfc" fill-rule="evenodd" d="M154.66797 391.5625l-1.01172-4.4375 3.66016-3.1211 3.625-1.3203.8125-.46876.51172.46875 3.92578 2.32032 1.95703 2.12109-1.39063 4.4375-.5664 1.13672-4.4375 3.17969-4.4375-1.5-2.64844-2.81641"/><path fill="#50fcfc" fill-rule="evenodd" d="M166.1914 403.91406l-3.64452-3.47656 3.64453-3.97266 4.4375.71094 4.4375.02344 4.4414-1.02735.11328-.17187 1.10938-4.4375 3.21484-4.05078 3.53906 4.05078.89844.34375L192.32812 396l.4922.21484.82812-.21484 3.61328-3.89453.3789-.54297-.3789-1.8086-2.01953-2.6289-2.42188-1.47266-3.41015-2.96875-.76172-4.4375.55078-4.4375 1.96484-4.4375-2.78125-3.40625-.26172 3.40625-.0078 4.4375-4.16798 3.48829-3.6836-3.48829-.7539-.8164-3.375-3.6211-.11719-4.4375 3.4922-2.59375 1.1289-1.84765 3.3086-2.27344v5.40625l-.91798 1.3086-3.51953 1.78906-1.76562 2.64843 1.76562 1.89454 2.35156 2.54296 2.08594 1.97657 2.35938-1.97657 1.19531-4.4375-2.7461-4.4375-.80859-1.30859v-5.40625l4.4375-1.0039 1.70703 3.27734-.74218 4.4414 3.47265 2.8672v6.26952l-3.5039 4.17578 3.03515 4.4375.46875.41016 4.4414 2.89063 3.29298-3.30079 1.14453-1.0625V388.25l-2.90234 3.3125-1.53516 2.17969L195.16797 396l-2.34766.61328L191.41797 396l-3.03516-3.15234-3.375-1.28516-1.0625-1.21875-.96875 1.21875L181.28125 396l-1.77344 2.66797-4.4414 1.19922-4.4375.4375-4.4375-1.39453-1.40235 1.52734 1.40235 1.33984 4.4375-1.03515 2.60547 4.13281 1.83203 1.84375.70312 2.59766 1.07422 4.4375 2.66406 1.96093 4.4375.76954 3.28125 1.70703-1.66406 4.4375 2.78906 4.4414.03125.02735 4.4375 2.45703 4.4414.4336 4.4375.375 4.4375.68358 4.4375.2461 1.80079.21484 2.64063 1.28906 2-1.28906 2.39062-4.4375.04688-.30078 4.4375-1.64453 4.4375-.89453 4.4375.01953 2.0664-1.6211.9961-4.4375-3.0625-3.29687-1.02344-1.14062-3.41406-3.17579-3.76954-1.26171-.66797-.59375-4.4375-3.69922-.1875-.14844-4.25-3.60547-4.4414-.63281-.98047-.19922L207.06641 396l-.9297-1.41016-.8203-3.02734-3.6172-3.3125v-6.6289l2.48829-3.375-2.48828-2.2422-4.4375-1.43359-4.4414-.5v-6.26953l1.45312 1.57031 1.57422 4.4375 1.41406.1797 4.4375.66015 3.98828 3.59765-1.92188 4.4375-.96875 4.44141 3.33985 2.23438 1.94922 2.20312L210.5664 396l.0078.02344 3.0625 4.41406 1.37892.14453 4.4375 1.60547 3.57812 2.6875.85938.60156 4.32421 3.83985.11328.03906 4.4375 2.80078 1.9375 1.59766 2.48829 4.4375.01562.15234 2.69531 4.28516-1.11328 4.4414-1.58203 2.1875-3.75-2.1875-.6914-.11328-1.96485.11328-2.47266.78906-4.4375.98829-2.11718 2.66015-2.32031 1.6289-4.4375 1.8047-4.44141-.2461-4.4375-1.45703-1.6289-1.73047-2.8086-.29687-4.4375-.125-4.4414-.27344-4.4375-.88281-3.5625-2.85938-.875-3.01172-.67579-1.42968.67578-1 .94531-3.4375-.9453-.4922-4.4375-.45312-4.44141-2.70703-.92578-.78515-1.42579-4.4375-2.08593-2.09375-2.13672-2.34766-2.30078-.96094"/><path fill="#00e8fc" fill-rule="evenodd" d="M166.1914 401.77734l-1.40234-1.33984 1.40235-1.52734 4.4375 1.39453 4.4375-.4375 4.4414-1.19922L181.28125 396l1.69531-4.4375.96875-1.21875 1.0625 1.21875 3.375 1.28516v1.5703L184.09766 396l-.15235.14844-2.85156 4.28906-1.58594 1.53125-2.6289 2.90625.91015 4.4414 1.71875 3.48829 1.76172.94922 2.67578.70703 4.4375 1.54297 1.78125 2.1875 2.65625 3.94921.21094.48829-.21094 1.83593-.6914 2.60547.6914.38672 4.4414.70313 4.4375.78906 4.4375 1.13281 4.4375.33985 4.44142.51171 3.5625-3.86328.63671-4.4414.23828-.28907 4.4375-.07812 4.4375-.86719 4.4375-1.63281.79688-1.57031-.79688-.85547-3.21875-3.58203-1.21875-1.13672-4.4375-2.78125-1.01953-.51953-3.41797-3.21485-1.54296-1.22656-2.89453-2.45313-4.44141-1.17187-4.01172-.8125-.42578-.63281-4.4375-1.86328-4.4375-1.16797-4.4414.5039L189.90624 396l-1.52344-1.58203v-1.57031L191.41797 396l1.40234.61328L195.16797 396l2.09375-2.25781 1.53516-2.17969 2.90234-3.3125v2.19531l-.98047 1.11719.98047 1.30078v2.5586l-.95313.57812.95313.35938L204.30078 396l-2.60156-.57813v-2.55859l1.21875-1.30078-1.21875-1.11719V388.25l3.61719 3.3125.8203 3.02734.9297 1.41016 2.52734 4.4375.98047.19922 4.4414.63281 4.25 3.60547.1875.14844 4.4375 3.69922.66797.59375 3.76953 1.26171 3.41407 3.17579 1.02344 1.14062 3.0625 3.29688-.9961 4.4375-2.0664 1.62109-4.4375-.01953-4.4375.89453-4.4375 1.64453-.04688.30078-2.39063 4.4375-2 1.28906-2.64062-1.28906-1.80078-.21484-4.4375-.2461-4.4375-.68359-4.4375-.375-4.4414-.4336-4.4375-2.45702-.03126-.02735-2.78906-4.4414 1.66406-4.4375-3.28125-1.70704-4.4375-.76953-2.66406-1.96093-1.07422-4.4375-.70312-2.59766-1.83203-1.84375-2.60547-4.13281-4.4375 1.03515"/><path fill="#00d4fc" fill-rule="evenodd" d="M177.78906 409.3164l-.91015-4.4414 2.6289-2.90625 1.58594-1.53125 2.85156-4.28906.15235-.14844 4.28515-1.58203v1.57422l-.02344.00781-4.41406 4.3086-.08594.1289-4.35156 4.1914-.22265.2461.22265 1.69531.875 2.7461 3.5625 2.14843 4.4375 1.4922.91016.79687 3.40234 4.4375.125.1875 1.82813 4.25 2.61328 3.55468 2.42578.88672 2.01172.46875 4.4375 1.58203 4.4375.42579 4.4414.49218 2.73829-2.96875.375-4.4414 1.32422-1.6211 4.4375.21875 4.4375-1.64844 2.39843-1.38671-2.39844-2.8047-.3203-1.6328-4.1172-3.33594-2.16406-1.10156-2.27344-2.14063-2.90234-2.30078-1.53516-1.30078-4.4414-1.71485-4.4375-.55468-2.65234-.86719-1.78516-.91797-3.40625.91797 3.40625 1.17969 1.3789 3.25781-1.3789 2.7539-4.4375-2.02343-1.10938-.73047.91016-4.4375-4.24219-2.49219L188.39062 396l-.0078-.00781v-1.57422L189.90624 396l2.91406 1.27734 4.4414-.5039v6.26172l-.41015 1.83984.41016.26953 4.4375.76563.51953-1.03516-.51953-1.22266-4.4375-.61718v-6.26172l4.4375 1.16797 4.4375 1.86328.42578.63281 4.01172.8125 4.4414 1.17188 2.89454 2.45312 1.54297 1.22656 3.41796 3.21485 1.01953.51953 4.4375 2.78125 1.21875 1.13672 3.21875 3.58203.79688.85547-.79688 1.5703-4.4375 1.63282-4.4375.86719-4.4375.07812-.23828.28907-.63672 4.4414-3.5625 3.86328-4.4414-.51171-4.4375-.33985-4.4375-1.13281-4.4375-.78906-4.4414-.70313-.69141-.38672.6914-2.60547.21094-1.83593-.21094-.48829-2.65625-3.94921-1.78125-2.1875-4.4375-1.54297-2.67578-.70703-1.76172-.94922-1.71875-3.48828"/><path fill="#00e8fc" fill-rule="evenodd" d="M179.50781 371.26563l-1.76562-1.89454 1.76562-2.64843 3.51953-1.78907.91797-1.30859v2.48828l-3.89453 3.25781 3.89453 4.07422 2.51953-4.07422-2.51953-3.2578V363.625l.8086 1.3086 2.74609 4.4375-1.19531 4.4375-2.35938 1.97656-2.08594-1.97657-2.35156-2.54296"/><path fill="#00c4fc" fill-rule="evenodd" d="M179.50781 406.57031l-.22265-1.69531.22265-.2461 4.35156-4.1914.08594-.1289L188.35937 396l.02344-.00781.00781.00781 4.4297 1.94531v.66406l-4.4375.37891-1.47657 1.44922-2.96094 3.59375-.89062.84375.89062 1.64453 2.6289 2.79688 1.8086.76953 4.19531 3.66797.2422.32421 1.09765 4.11329 2.34766 4.4375.99609 1.35546 4.4375 2.35938 1.64453.72656 2.79297 1.08594 4.4375.51953 4.4414.46875 1.91407-2.07422.11328-4.4414 2.41016-2.94922 4.4375.51172 3.95312-2-.55469-4.4375L223.89062 411l-3.30859-1.6836-1.1289-1.0664-4.25782-3.375-.17969-.15234-4.4414-2.25-4.4375-.16407-2.19922 2.56641-2.14453 4.4414-.09375.01563-.01172-.01562-4.42578-3.25391-1.8086-1.1875.48047-4.4375-3.11328-1.82813v-.66406l4.24219 2.49219-.91016 4.4375 1.10938.73047 4.4375 2.02344 1.3789-2.75391-1.3789-3.25781-3.40625-1.17969 3.40625-.91797 1.78516.91797 2.65234.86719 4.4375.55469 4.4414 1.71484 1.53516 1.30078 2.90234 2.30078 2.27344 2.14063 2.16406 1.10156 4.1172 3.33594.3203 1.6328 2.39844 2.8047-2.39844 1.38671-4.4375 1.64844-4.4375-.21875-1.32421 1.6211-.375 4.4414-2.73828 2.96875-4.44141-.49219-4.4375-.42578-4.4375-1.58203-2.01172-.46875-2.42578-.88672-2.61328-3.55468-1.82813-4.25-.125-.1875-3.40234-4.4375-.91016-.79688-4.4375-1.49219-3.5625-2.14843-.875-2.7461"/><path fill="#00d4fc" fill-rule="evenodd" d="M183.94531 373.44531l-3.89453-4.07422 3.89453-3.2578v1.33593l-2.29687 1.92187 2.29687 2.40235 1.48828-2.40235-1.48828-1.92187v-1.33594l2.51953 3.25781-2.51953 4.07422"/><path fill="#00c4fc" fill-rule="evenodd" d="M183.94531 371.77344l-2.29687-2.40235 2.29687-1.92187v1.33594l-.69922.58593.69922.73047.45313-.73047-.45313-.58593v-1.33594l1.48828 1.92187-1.48828 2.40235"/><path fill="#00b8fc" fill-rule="evenodd" d="M183.94531 406.51953l-.89062-1.64453.89062-.84375 2.96094-3.59375 1.47656-1.44922 4.4375-.3789v.66406l-3.42578 1.16406-1.01172 3.27734-.85156 1.16016.85156.89063 1.9336 3.55078 2.5039 2.24609.41016 2.1914 1.83984 4.4375 2.1914 3.69141.60938.7461 3.82813 2.625 4.11719 1.8164.3203.125 4.4375.60938 4.44142.44531 1.08593-1.17969-.14844-4.4414 3.5-4.28125 4.4375.80859 1.90235-.96484.77734-4.4375-2.67969-2.17188-4.4375-2.26562h-.01953l-4.41797-3.44922L214 404.875l-3.42578-1.79297-4.4375.23438-1.33594 1.55859 1.33594 4.1875.10937.2539-.10937.04298-4.4375.76171-.63672-.80468-3.80078-2.79297L194.75 404.875l.05469-4.4375-1.98438-1.16406v-.66406l3.11328 1.82812-.48047 4.4375 1.8086 1.1875 4.42578 3.2539.01172.01563.09375-.01562 2.14453-4.44141 2.19922-2.5664 4.4375.16406 4.4414 2.25.1797.15234 4.2578 3.375 1.12891 1.0664 3.3086 1.6836 3.39843 2.7539.55469 4.4375-3.95313 2-4.4375-.51171-2.41015 2.94922-.11328 4.4414-1.91406 2.07422-4.44141-.46875-4.4375-.51953-2.79297-1.08594-1.64453-.72656-4.4375-2.35938-.9961-1.35546-2.34765-4.4375-1.09766-4.11329-.24219-.32421-4.1953-3.66797-1.8086-.76953-2.6289-2.79688m0-36.41797l-.69923-.73047.69922-.58593.45313.58593-.45313.73047"/><path fill="#00a8fc" fill-rule="evenodd" d="M188.38281 405.76563l-.85156-.89063.85156-1.16016 1.01172-3.27734 3.42578-1.16406v.66406l-1.47656.5-1.55469 4.4375 3.03125 4.3125.04688.1289.8086 4.4375 2.54687 4.4375 1.03906 1.75 2.19531 2.6875 2.24219 1.53907 4.4375 2.17969 4.4375.61328 1.46484.10937 2.97656.28516.26172-.28516-.26172-3.1211-.09765-1.3203.09766-.35547 2.82421-4.08203 1.61328-.1836 4.4375.07031 1.95704-4.32421-1.95703-1.58594-4.4375-2.64063-1.48438-.21093-2.95313-2.3047-2.18359-2.13671-2.25781-1.17969-4.4375.625-.47656.55469.47656 1.49219 1.28125 2.94922-1.28125.51171-4.4375 1.08594-1.26172-1.59765-3.17578-2.33594-3.21094-2.10547-.375-4.4375-.85547-.5v-.66406l1.98438 1.16406-.05469 4.4375 2.51172 1.64844 3.80078 2.79297.63672.80468 4.4375-.76171.10937-.04297-.10937-.25391-1.33594-4.1875 1.33594-1.5586 4.4375-.23437L214 404.875l1.01563.99219 4.41796 3.44922h.01953l4.4375 2.26562 2.6797 2.17188-.77735 4.4375-1.90234.96484-4.4375-.8086-3.5 4.28126.14843 4.4414-1.08594 1.17969-4.4414-.44531-4.4375-.60938-.32031-.125-4.1172-1.8164-3.82812-2.625-.60937-.7461-2.1914-3.6914-1.83985-4.4375-.41016-2.19141-2.5039-2.2461-1.9336-3.55077"/><path fill="#00e8fc" fill-rule="evenodd" d="M192.35156 382.6836l-3.03515-4.4375 3.5039-4.17579v1.32422l-2.39062 2.85156 2.39062 3.125 4.4414 1.16016 4.4297-4.28516-4.4297-2.70312-4.4414-.14844v-1.32422l4.4414.5 4.4375 1.4336 2.48829 2.24218-2.48828 3.375-1.14453 1.0625-3.29297 3.30079-4.4414-2.89063-.46876-.41016"/><path fill="#009800" fill-rule="evenodd" d="M192.82031 409.1875l-3.03125-4.3125 1.55469-4.4375 1.47656-.5v1.57813l-1.30469 3.35937 1.3047 1.85938.91015 2.58203.38672 4.4375 3.14453 4.375.03906.0625 3.7461 4.4375.65234.44921 4.4375 2.44141 4.4375.7461 3.64844-3.63672.79297-2.98438 1.0039-1.45312 3.4336-.39454 4.4375-1.30859 1.23828-2.73437-1.23828-1.00391-4.4375-3.01563-2.95313-.41796-1.48438-1.16016-3.35156-3.28125-1.08984-.57031-2.9961.57031 1.01172 4.4414-2.45312.98048-4.4375 1.40625-1.88672-2.38672-2.55078-1.875-3.91016-2.56641-.53125-3.35938v-1.57812l.85547.5.375 4.4375 3.21094 2.10547 3.17578 2.33594 1.26172 1.59765 4.4375-1.08594 1.28125-.51171-1.28125-2.94922-.47656-1.49219.47656-.55469 4.4375-.625 2.25781 1.17969 2.1836 2.13672 2.95312 2.30469 1.48438.21093 4.4375 2.64063 1.95703 1.58594-1.95703 4.32421-4.4375-.0703-1.61329.18359-2.82422 4.08203-.09765.35547.09766 1.3203.26171 3.1211-.26172.28516-2.97656-.28516-1.46484-.10937-4.4375-.61328-4.4375-2.1797-2.24219-1.53905-2.19531-2.6875-1.03906-1.75-2.54688-4.4375-.8086-4.4375-.04687-.12891"/><path fill="#00d4fc" fill-rule="evenodd" d="M192.82031 381.3711l-2.39062-3.125 2.39062-2.85157 4.4414.14844v.96875l-4.4414.21094-1.27734 1.52343 1.27734 1.67188 4.4414 1.07812 2.83985-2.75-2.83984-1.73437v-.96875l4.42969 2.70312-4.4297 4.28516-4.4414-1.16016"/><path fill="#00ac00" fill-rule="evenodd" d="M192.82031 406.73438l-1.30469-1.85938 1.3047-3.35938.53124 3.35938 3.91016 2.5664 2.55078 1.875 1.88672 2.38673 4.4375-1.40625 2.45312-.98047-1.01172-4.44141 2.9961-.57031v.96484l-.8125 4.04688-3.625 1.44921-4.4375 1.73047-2.51172-3.17968-1.92578-1.41797-2.66797 1.41797-.03125 4.4375 2.69922 3.7578.46094.6797 3.97656 4.17968.84766.25782 3.58984 2.0625 4.4375.8789 2.95312-2.9414.98047-4.4375.50781-.0625 4.4375-.54297 4.4375-2.6875.51954-1.14453-.51953-.41797-4.4375-3.39453-4.42188-.625-.01563-.01563-4.4414-4.03125v-.96484l1.08984.57031 3.35156 3.28125 1.48438 1.16016 2.95313.41796 4.4375 3.01563 1.23828 1.0039-1.23828 2.73438-4.4375 1.3086-3.4336.39453-1.0039 1.45312-.79297 2.98438-3.64844 3.63671-4.4375-.74609-4.4375-2.4414-.65234-.44922-3.7461-4.4375-.03906-.0625-3.14453-4.375-.38672-4.4375-.91016-2.58204"/><path fill="#00c4fc" fill-rule="evenodd" d="M192.82031 379.91797l-1.27734-1.67188 1.27734-1.52343 4.4414-.21094v.96875l-4.4414.5664-.16797.19922.16797.21875 4.4414.9922 1.25-1.21095-1.25-.76562v-.96875l2.83985 1.73437-2.83984 2.75-4.4414-1.07812"/><path fill="#00b8fc" fill-rule="evenodd" d="M192.82031 378.46484l-.16797-.21875.16797-.19921 4.4414-.56641 1.25.76562-1.25 1.21094-4.4414-.99219"/><path fill="#00c800" fill-rule="evenodd" d="M197.26172 417.51172l-2.69922-3.75781.03125-4.4375 2.66797-1.41797v.91797l-.9414.5-.8711 4.4375 1.8125 2.52343 1.29687 1.91407 3.14063 3.29687 3.73047 1.14063.70703.40625 4.4375 1.14843 1.5586-1.55468.12109-4.4375 2.76172-.34766 4.4375-.67578 4.11328-3.41406-4.11328-3.39454-4.4375-.7578-4.44141.04296-4.4375 2.05469-4.0586 2.05469-.3789.23046-.40625-.23046-3.35547-4.4375-.67578-.5v-.91797l1.92578 1.41797 2.51172 3.17968 4.4375-1.73046 3.625-1.44922.8125-4.04688 4.4414 4.03125.01563.01563 4.42188.625 4.4375 3.39453.51953.41797-.51953 1.14453-4.4375 2.6875-4.4375.54297-.50782.0625-.98047 4.4375-2.95312 2.9414-4.4375-.8789-3.58984-2.0625-.84766-.25782-3.97656-4.17968-.46094-.6797"/><path fill="#10cc00" fill-rule="evenodd" d="M197.26172 416.27734l-1.8125-2.52343.8711-4.4375.9414-.5.67578.5 3.35547 4.4375.40625.23046.3789-.23046 4.0586-2.0547 4.4375-2.05468 4.4414-.04297v.28906l-4.4414.26172-4.4375 2.48438-2.20703 1.11719-2.23047 1.35546-2.3789-1.35546-2.0586-3.08985-.92578 3.08985.92578 1.28906 2.13672 3.14844 2.30078 2.41796 4.4375 1.10938 3.83594.91016.60156.16796.16797-.16796-.16797-1.40625-.35547-3.03125.35547-.15235 4.4414-.48047 4.4375-.8125 3.60938-2.99218-3.60938-2.97657-4.4375-.88671v-.28907l4.4375.75781 4.11329 3.39454-4.11328 3.41406-4.4375.67578-2.76172.34766-.1211 4.4375-1.5586 1.55468-4.4375-1.14843-.70702-.40625-3.73047-1.14063-3.14063-3.29687-1.29687-1.91407"/><path fill="#24d000" fill-rule="evenodd" d="M197.26172 415.04297l-.92578-1.28906.92578-3.08985 2.0586 3.08985 2.3789 1.35546 2.23047-1.35546 2.20703-1.1172 4.4375-2.48437 4.4414-.26171v.28906l-4.4414.48047-4.4375 2.91406-.35547.17969-4.08203 2.48046-4.35156-2.48046-.08594-.13282-.04297.13282.04297.05468 2.97656 4.38282 1.46094 1.53515 4.4375.78516 2.6836-2.32031 1.7539-.75782 4.4414-.16015 4.4375-.94531 3.10157-2.57422-3.10156-2.5586-4.4375-1.01562v-.28906l4.4375.88671 3.60937 2.97657-3.60938 2.99218-4.4375.8125-4.4414.48047-.35547.15235.35547 3.03125.16797 1.40625-.16797.16796-.60156-.16796-3.83594-.91016-4.4375-1.10938-2.30078-2.41796-2.13672-3.14844"/><path fill="#00e8fc" fill-rule="evenodd" d="M197.26172 403.03516l-.41016 1.83984.41016.26953 4.4375.76563.51953-1.03516-.51953-1.22266-4.4375-.61718"/><path fill="#3cd800" fill-rule="evenodd" d="M197.26172 413.8086l-.04297-.0547.04297-.1328.08594.1328 4.35156 2.48048 4.08203-2.48047.35547-.1797 4.4375-2.91405 4.4414-.48047v.28906l-4.4414.69531-3.83203 2.58985-.60547 2.0703-4.4375 1.53517-.6211.83203.6211.65234 4.4375.46484 1.28906-1.11718 3.14844-1.35938 4.4414.15625 4.4375-1.07812 2.59766-2.15625-2.59766-2.14063-4.4375-1.14453v-.28906l4.4375 1.01562 3.10157 2.5586-3.10156 2.57421-4.4375.94532-4.44141.16015-1.7539.75782-2.6836 2.3203-4.4375-.78515-1.46094-1.53515-2.97656-4.38282"/><path fill="#00d4fc" fill-rule="evenodd" d="M201.69922 392.86328l-.98047-1.30078.98047-1.11719 1.21875 1.11719-1.21875 1.30078"/><path fill="#50fcfc" fill-rule="evenodd" d="M201.69922 395.42188l-.95313.57812.95313.35938L204.30078 396l-2.60156-.57813"/><path fill="#54dc00" fill-rule="evenodd" d="M201.69922 418.84375l-.6211-.65234.6211-.83204 4.4375-1.53515.60547-2.07031 3.83203-2.58985 4.4414-.69531v.28906l-4.4414.91406-3.08203 2.08204 3.08203 2.47656 4.4414.47265 4.4375-1.21484 2.08985-1.73437-2.08984-1.72657-4.4375-1.26953v-.28906l4.4375 1.14453 2.59765 2.14063-2.59766 2.15625-4.4375 1.07812-4.4414-.15625-3.14844 1.35938-1.28906 1.11718-4.4375-.46484"/><path fill="#e8e05c" fill-rule="evenodd" d="M210.57422 416.23047l-3.08203-2.47656 3.08203-2.08204 4.4414-.91406v.28906l-4.4414 1.13282-2.32813 1.57422 2.32813 1.87109 4.4414.79297 4.4375-1.34766 1.58594-1.3164-1.58594-1.3086-4.4375-1.39844v-.28906l4.4375 1.26953 2.08985 1.72657-2.08984 1.73437-4.4375 1.21485-4.44141-.47266"/><path fill="#e8d450" fill-rule="evenodd" d="M210.57422 415.625l-2.32813-1.8711 2.32813-1.57421 4.4414-1.13281v.57812l-4.4414 1.5664-.82813.5625.82813.66798 4.4414 1.42968 4.4375-1.6211.57422-.47655-.57422-.47266-4.4375-1.65625v-.57813l4.4375 1.39844 1.58594 1.3086-1.58594 1.3164-4.4375 1.34766-4.4414-.79297"/><path fill="#e8b830" fill-rule="evenodd" d="M210.57422 414.42188l-.82813-.66797.82813-.5625 4.4414-1.56641v.57813l-3.80859 1.55078 3.8086 1.52734 3.8203-1.52734-3.8203-1.55079v-.57812l4.4375 1.65625.57421.47266-.57422.47656-4.4375 1.6211-4.4414-1.4297"/><path fill="#e8a824" fill-rule="evenodd" d="M215.01563 415.28125l-3.8086-1.52734 3.8086-1.55079v.57813l-2.38672.97266 2.38672.95703 2.39453-.95703-2.39453-.97266v-.57813l3.8203 1.55079-3.8203 1.52734"/><path fill="#d87c08" fill-rule="evenodd" d="M215.01563 414.71094l-2.38672-.95703 2.38672-.97266v.57813l-.96875.39453.96875.38671.96875-.38671-.96875-.39454v-.57812l2.39453.97266-2.39453.95703"/><path fill="#fc4444" fill-rule="evenodd" d="M215.01563 414.14063l-.96875-.38672.96875-.39454.96875.39454-.96875.38671"/><path fill="#50fcfc" fill-rule="evenodd" d="M219.45313 396.57813L217.0039 396l2.44922-.57813 4.4375-1.30859L226.65625 396l-2.76563 2.14453-4.4375-1.5664m13.3125-1.57422l-3.72656-3.44141 3.72656-3.34766v1.72657l-1.80078 1.62109 1.80078 1.66406 2-1.66406-2-1.6211v-1.72656l4.13282 3.34766-4.13281 3.4414"/><path fill="#00e8fc" fill-rule="evenodd" d="M232.76563 393.22656l-1.80079-1.66406 1.80078-1.6211 2 1.6211-2 1.66406"/><path fill="#50fcfc" fill-rule="evenodd" d="M250.51953 419.99219l-2.35937-1.80078 2.35937-3.875 4.4375 1.60937 3.66797 2.26563-3.66797 2.0039-4.4375-.20312m0-35.82031l-1.47266-1.48829 1.47266-1.61328 2.76172 1.61328-2.76172 1.48829m22.1914-27.54297l-.39062-.57422.39063-.42969 1.39062.42969-1.39062.57422m8.8789-1.9375l-4.15625-3.07422 4.15625-4.17188.6836-.26562 3.7539-2.11328v3.13671l-4.4375 2.69532-.71484.71875.71484.52734 4.4375 2.46875 2.39063-2.9961-2.39063-3.41406v-3.13671l1.72266 2.11328 1.91016 4.4375-3.1211 4.4375-.51172.46094-.55468-.46094-3.88282-1.36328"/><path fill="#00e8fc" fill-rule="evenodd" d="M281.58984 352.14453l-.71484-.52734.71484-.71875 4.4375-2.69531v2.95703l-.66406.45703.66406.39844.31641-.39844-.3164-.45703v-2.95704l2.39062 3.41407-2.39063 2.9961-4.4375-2.46876"/><path fill="#00d4fc" fill-rule="evenodd" d="M286.02734 352.01563l-.66406-.39844.66406-.45703.31641.45703-.3164.39844"/><path fill="#50fcfc" fill-rule="evenodd" d="M294.90234 374.48828l-1.96093-.67969 1.96093-1.92578 1.10938 1.92578-1.10938.6797m8.87891-21.16017l-1.08984-1.71093 1.08984-2.15235.52344-2.28515 3.91406-3.49219v2.13281l-1.51953 1.35938 1.51953 2.0664 1.91797-2.0664-1.91797-1.35938v-2.13281l4.4375 2.02734 4.4414-.11718 2.625 1.58203-2.625.6875-4.4414 1.03906-2.16406 2.71094-2.27344 1.58594-4.4375.125"/><path fill="#00e8fc" fill-rule="evenodd" d="M308.21875 349.2461l-1.51953-2.06641 1.51953-1.35938 1.91797 1.35938-1.91797 2.0664"/><path fill="#50fcfc" fill-rule="evenodd" d="M325.97266 457.74219l-3.98438-4.04297 3.98438-3.53125 1.22656-.90625 3.21094-2.7461 4.4375-.94921 3.57421-.7461.8672-.60547 1.91015.60547 2.52734.32813L346 444.8203l-.44531-4.4375 2.60937-2.11719 4.4375-.45703 3.27344 2.57422 1.16797.4336 4.4375.55859 4.4375-.47656.53906-.51563 3.89844-4.02344v1.16016l-2.77344 2.86328-1.66406 1.58985-4.4375 1.14062-4.4375-.32031-2.78125 2.02734-1.66016 3.4961-4.4375-.32422-4.4375-.09375-4.4375-.2461-4.4414-.05468-3.17579 1.66406-1.26171.48828-4.4375 3.94531-.00391.0039.0039.00392 2.14063 4.43359 2.29688 1.85547 4.4375.40625 4.4414 1.85547.63672.3203 3.80078 2.05079 4.4375.27344 4.4375-.02735 4.4414.84375 4.4375.07032 3.32032 1.23046 1.11719.8711 4.4375-.7539.24219-.1172 4.1953-.83203 4.44142.0625 3.38671-3.67187-.28906-4.4375 1.33985-3.57422.86328-.86328-.86329-1.01172-1.92968-3.42578-2.50781-2.4375-.67579-2.0039-3.76562-3.78516-1.36719-.65235-3.07031-2.86328v-1.16015l4.3125 4.02343.125.0625 4.35156 4.375.08985.26172 4.30468 4.17969.13281.23437 3.59375 4.20313-3.59375 3.58203-.3203.85547.14452 4.4375.12891 4.4414-4.39063 1.26954-4.4414-.1211-4.4375 1.64063-4.4375.35937-4.02735-3.14844-.41015-.15234-4.4375.05078-4.4414-.07422-4.4375-.49218-4.4375-.1875-4.4375-1.08985-2.9922-2.4961-1.44921-.59374-4.4375-.41016-4.2461-3.4336-.1914-.39452m0-122.375l-1.63282-1.5039 1.63282-2.625 3.67578 2.625-3.67578 1.5039"/><path fill="#00e8fc" fill-rule="evenodd" d="M325.97266 453.70313l-.00391-.00391.0039-.0039 4.4375-3.94532 1.26173-.48828 3.17578-1.66406V451l-4.4375 1.2461-1.63282 1.45312 1.63282 2.94531 4.4375.82031.73046.67188 3.71094 1.72265 4.4375.53907 4.28906-2.26172-4.28906-1.17578-2.95312-3.26172-1.48438-1.3125L334.84766 451v-3.40234l4.4414.05468 4.4375.2461 4.4375.09375 4.4375.32422 1.66016-3.4961 2.78125-2.02734 4.4375.32031 4.4375-1.14062 1.66406-1.58985 2.77344-2.86328v1.9336l-.90235.92968-3.53515 3.38281-2.61719 1.0547 2.61719 1.67187v2.97656l-4.4375 3.97266-1.41016.2578 1.41016.42188 4.4375 1.10938 4.4375-1.08594.45703-.44531-.45703-.44922-4.4375-3.78125v-2.97656l4.4375 2.625 4.4375-1.4414v1.0039l-1.6836.58203 1.6836 1.69922 1.8164-1.69922-1.8164-.58203v-1.0039l2.78515-2.85548-2.78515-2.80078-3.4414-1.63672-.9961-.92969v-1.93359l3.07031 2.86328 1.36719.65235 3.76562 3.78515.67579 2.0039v3.65235l-3.84375 3.22266-.59766.66406-3.98047 3.77344-.45703.14453-4.4375.4375-4.4375 1.02734-4.4375.35547-2.91016 2.47266 2.91016 1.13672 4.4375.28125 4.4375 1.08984 4.4375.0039 4.4375-.66015 4.4414.24219 1.9297-2.09375-.52735-4.4375.13281-4.4375-1.53515-3.22266v-3.65234l2.5078 2.4375 1.9297 3.42578.86328 1.01172-.86329.86328-1.33984 3.57422.28906 4.4375-3.38671 3.67187-4.44141-.0625-4.19531.83204-.2422.11718-4.4375.7539-1.11718-.87108-3.32031-1.23047-4.4375-.07032-4.4414-.84375-4.4375.02735-4.4375-.27344-3.80079-2.05078-.63672-.32031-4.4414-1.85547-4.4375-.40625-2.29688-1.85547-2.14062-4.4336"/><path fill="#00d4fc" fill-rule="evenodd" d="M330.41016 456.64453l-1.63282-2.94531 1.63282-1.45313L334.84766 451l4.4414 1.38672 1.48438 1.3125 2.95312 3.26172 4.28906 1.17578-4.28906 2.26172-4.4375-.53906-3.71094-1.72266-.73046-.67188-4.4375-.8203"/><path fill="#50fcfc" fill-rule="evenodd" d="M339.28906 429.8086l-3.11328-2.73829 3.11328-3.10156 3.21875 3.10156-3.21875 2.73828m0-99.11718l-1.69531-1.26563 1.69531-1.16797 4.4375-2.60547 3.48828 3.77344-3.02343 4.4375-.46485.27735-.14453-.27735-4.29297-3.17187"/><path fill="#00d4fc" fill-rule="evenodd" d="M357.04297 463.71094l-2.91016-1.13672 2.91016-2.47266 4.4375-.35547 4.4375-1.02734 4.4375-.4375.45703-.14453 3.98047-3.77344.59765-.66406 3.84375-3.22266v9.19922l-4.4414 2.57422-4.4375-.57813-4.4375.90235h-.01563l.01563.0039 4.4375.52344 4.4375-.4375 4.4414.42188.47266-.51172-.47265-2.89844v-9.19922l1.53515 3.22266-.13281 4.4375.52734 4.4375-1.92969 2.09375-4.4414-.24219-4.4375.66016-4.4375-.0039-4.4375-1.08985-4.4375-.28125"/><path fill="#50fcfc" fill-rule="evenodd" d="M361.48047 453.4414l-1.41016.25782 1.41016.42187 4.4375 1.10938 4.4375-1.08594.45703-.44531-.45703-.44922-4.4375-3.78125-4.4375 3.97266"/><path fill="#00d4fc" fill-rule="evenodd" d="M365.91797 446.49219l-2.61719-1.67188 2.61719-1.05469 3.53515-3.3828.90235-.9297v3.01563l-2.60938 2.35156 2.60938 1.58985 4.4375.26171 1.8086-1.85156-1.8086-1.8164-4.4375-.53516v-3.01563l.9961.9297 3.4414 1.63671 2.78515 2.80078-2.78515 2.85547-4.4375 1.4414-4.4375-2.625"/><path fill="#00c4fc" fill-rule="evenodd" d="M365.91797 462.57813l-.01563-.00391h.01563l4.4375-.90235 4.4375.57813 4.4414-2.57422.47266 2.89844-.47265.51172-4.44141-.42188-4.4375.4375-4.4375-.52344m4.4375-16.16796l-2.60938-1.58985 2.60938-2.35156 4.4375.53516v.98437l-2.98047.83203 2.98047.85156.82812-.85156-.82812-.83203v-.98437l1.8086 1.8164-1.8086 1.85156-4.4375-.26171"/><path fill="#00b8fc" fill-rule="evenodd" d="M374.79297 445.67188l-2.98047-.85157 2.98047-.83203.82812.83203-.82812.85156"/><path fill="#50fcfc" fill-rule="evenodd" d="M374.79297 448.67969l-1.6836.58203 1.6836 1.69922 1.8164-1.69922-1.8164-.58203m4.4414-10.4336l-.77734-2.30078.77735-1.32812 1.23046-3.10938 3.20704-1.6875 1.69921 1.6875-1.69921 3.19531-3.1172 1.2422-1.3203 2.30077m8.875 26.78125l-2.14844-2.45312 2.14844-2.9414 1.58203 2.9414-1.58204 2.45312m4.4375-15.85546l-3.40625-4.35157 3.40625-2.85937 2.69141 2.85937-2.6914 4.35156m4.4375-51.4414L395.2539 396l1.73046-1.73047L399.54298 396l-2.5586 1.73047m-.05078 33.77734l-1.48046-4.4375 1.53125-1.49219 4.4414-1.14843 2.46485 2.64062 1.97265.41406v.89454l-4.4375.57812-1.6211 2.55078 1.6211 3.69922.14063.73828 1.375 4.4375-1.51563 2.98828-.53906 1.44922.53906 1.09766.66016-1.09766 3.77734-2.6211 4.08203-1.8164.35547-.08984 2.3711.08984 2.0664.16016.17578-.16016-.17578-.17187-1.3711-4.26563-3.0664-3.05469-1.21484-1.3828-3.22266-3.12891v-.89454l4.14844 4.02344.28906.33203 4.1211 4.10547.3164.98828 3.5 3.44922.9414 2.41797 2.30079 2.01953-2.30078 1.45313-1.64844-1.45313-2.79297-1.22265-4.4375-.39063-4.41406 1.61328-.02344.02735-2.1836 4.41406-2.2539 3.1211-2.96875-3.1211-.64844-4.4414.32032-4.4375.37109-4.4375-1.51563-4.375-.05078-.0625"/><path fill="#00e8fc" fill-rule="evenodd" d="M401.42578 435.20703l-1.6211-3.69922 1.6211-2.55078 4.4375-.57812v1.49218l-2.77344 1.63672.56641 4.4375 2.20703 2.85547 4.4375-1 1.3086-1.85547-1.3086-1.30469-2.7539-3.1328-1.6836-1.63673v-1.49218l3.22266 3.1289 1.21484 1.38281 3.0664 3.0547 1.3711 4.26562.17578.17187-.17578.16016-2.0664-.16016-2.3711-.08984-.35547.08984-4.08203 1.8164-3.77734 2.6211-.66016 1.09766-.53906-1.09766.53906-1.44922 1.51563-2.98828-1.375-4.4375-.14063-.73828"/><path fill="#00d4fc" fill-rule="evenodd" d="M403.65625 435.94531l-.5664-4.4375 2.77343-1.63672v1.4961l-.23828.14062.11719 4.4375.1211.15625.8203-.15625-.67578-4.4375-.14453-.14062v-1.4961l1.6836 1.63672 2.7539 3.13281 1.3086 1.3047-1.3086 1.85546-4.4375 1-2.20703-2.85547"/><path fill="#00c4fc" fill-rule="evenodd" d="M405.74219 435.94531l-.11719-4.4375.23828-.14062.14453.14062.67578 4.4375-.8203.15625-.1211-.15625"/><path fill="#50fcfc" fill-rule="evenodd" d="M412.65625 400.4375L411.91797 396l2.82031-2.73828v2.66015l-.07812.07813.07812.25.11719-.25-.11719-.07813v-2.66015L418.83984 396l-2.10937 4.4375-1.01172 4.4375 3.46094 1.52734 2.34375-1.52734.20312-4.4375L419.21875 396l4.39844-4.29297v.45313L419.68359 396l3.9336 4.17578L427.47266 396l-3.85547-3.83984v-.45313L427.92969 396l-2.46485 4.4375 2.58985 1.85938 4.4375.53906 3.71875-2.39844.71875-.71875 4.4414-2.85547v1.92969l-2.19921 1.64453-1.95313 4.4375-.28906.14844-4.4375 1.65625-4.4375-1.41797-4.4375.6836-4.4375 3.1875-.42578.18359.42578.41796 2.6836 4.01954-1.07813 4.4375 2.83203 2.6289 4.4375.41797 4.4375-.57031 4.22265-2.47656.21485-.16797 4.4414-2.59766 1.75-1.67187 1.63282-4.4375-1.60547-4.44141-.27344-4.4375-1.5039-1.64453v-1.92969l3.26562 3.57422.16015 4.4375 1.01172 2.20313 2.17579 2.23828-2.17579 2.53515-.85546 1.90235-3.58204 3.42578-1.74218 1.01172-2.69922 2.5703-4.4375 1.09767-4.4375.49609-1.09766.27344-3.33984 2.35156-2.57813-2.35156-1.85937-1.79688-2.59375-2.64062.97265-4.4375-2.8203-2.78907-1.58985-1.64843.3711-4.44141-.86329-4.4375"/><path fill="#00e8fc" fill-rule="evenodd" d="M414.73828 396.25l-.07812-.25.07812-.07813.11719.07813-.11719.25m4.4414 13.48438l-.42577-.41797.42578-.1836 4.4375-3.1875 4.4375-.6836 4.4375 1.41798 4.4375-1.65625v3.23437l-1.53125 1.0586-2.90625 1.96875-4.4375.14843-1.71875 2.32032-.27735 4.4375 1.9961 1.18359 4.4375-.69922.82812-.48437 3.60938-2.8047 2.6289-1.6328-.20312-4.4375-2.42578-1.0586v-3.23437l.28906-.14844 1.95313-4.4375 2.19921-1.64453 1.50391 1.64453.27344 4.4375 1.60547 4.4414-1.63282 4.4375-1.75 1.67188-4.4414 2.59766-.21485.16797-4.22265 2.47656-4.4375.57031-4.4375-.41797-2.83203-2.6289 1.07812-4.4375-2.6836-4.01954m4.4375-9.55859L419.6836 396l3.9336-3.83984v.76171L420.46094 396l3.15625 3.35156L426.71094 396l-3.09375-3.07813v-.76171L427.47266 396l-3.85547 4.17578"/><path fill="#00d4fc" fill-rule="evenodd" d="M423.61719 399.35156L420.46094 396l3.15625-3.07813v.75782L421.23829 396l2.3789 2.52344L425.94922 396l-2.33203-2.32031v-.75781L426.71094 396l-3.09375 3.35156"/><path fill="#00c4fc" fill-rule="evenodd" d="M423.61719 398.52344L421.23829 396l2.3789-2.32031v.75781L422.01563 396l1.60156 1.69922L425.18359 396l-1.5664-1.5625v-.75781L425.94922 396l-2.33203 2.52344"/><path fill="#00b8fc" fill-rule="evenodd" d="M423.61719 397.69922L422.01563 396l1.60156-1.5625v.75781l-.82422.80469.82422.875.80469-.875-.8047-.80469v-.75781L425.1836 396l-1.5664 1.69922"/><path fill="#00a8fc" fill-rule="evenodd" d="M423.61719 396.875l-.82422-.875.82422-.80469v.75781L423.5703 396l.04688.05078.04297-.05078-.04297-.04688v-.7578l.80469.80468-.8047.875"/><path fill="#009800" fill-rule="evenodd" d="M423.61719 396.05078L423.5703 396l.04688-.04688.04297.04688-.04297.05078"/><path fill="#00d4fc" fill-rule="evenodd" d="M428.05469 419.375l-1.9961-1.1836.27735-4.4375 1.71875-2.3203 4.4375-.14844 2.90625-1.96875 1.53125-1.0586 2.42578 1.0586.20312 4.4375-2.6289 1.6328-3.60938 2.8047-.82812.48437-4.4375.69922"/><path fill="#50fcfc" fill-rule="evenodd" d="M450.2461 430.55469l-2.26173-3.48438 2.26172-2.1914 2.25782 2.1914-2.25782 3.48438"/><g clip-path="url(#c)"><path fill="#fff" fill-opacity="0" fill-rule="evenodd" d="M467.9961 480.32813H468V311.67188h-.0039H468v168.65625h-.0039"/></g><path fill="#fff" fill-opacity="0" fill-rule="evenodd" d="M386.07813 462.91406l3.16406-4.91015-8.375-5.39454-3.16406 4.91016 8.375 5.39453"/><path fill-rule="evenodd" d="M381.14063 455.57031l.27734-.42969 5.28906 3.41016-.42578.66406-3.77344-2.43359-.7539 1.16797-.46485-.30078.25-.50781.08985-.23829.05078-.24218-.01172-.25-.08203-.25782-.17188-.27734-.27344-.30469"/><path fill="#fff" fill-opacity="0" fill-rule="evenodd" d="M191.21875 388.75781l2.4414 5.3086 9.04688-4.16797-2.4414-5.30469-9.04688 4.16406"/><path fill-rule="evenodd" d="M200.0625 388.53906l.21484.46094-5.71875 2.63281-.32812-.71484 4.07812-1.875-.58203-1.26172.5039-.23438.29298.48047.15625.20704.17578.17187.21484.125.26563.07031.32422.00781.40234-.0703"/><path fill="#fff" fill-opacity="0" fill-rule="evenodd" d="M222.70313 411.98828l5.05859 2.92578 4.98828-8.6211-5.0586-2.92577-4.98827 8.6211"/><path fill-rule="evenodd" d="M229.80469 406.70703l.4414.2539-3.15625 5.44923-.67968-.39454 2.25-3.88671-1.20313-.69532.27734-.48046.51954.22265.24218.08203.2461.03516.2461-.01953.2578-.09375.26953-.1836.28907-.28906"/><path fill="#fff" fill-opacity="0" fill-rule="evenodd" d="M213.07813 437.3086l7.42968-2.75391-3.54297-9.5586-7.42968 2.75782 3.54297 9.55468"/><path fill-rule="evenodd" d="M212.4961 428.60938l3.08202-1.14454.25782.69532-2.47266.91796.41016 1.77344.15625-.23047.20703-.21875.27344-.1953.34765-.16407.3125-.08985.34766-.03515.36328.01953.36719.09375.35547.17578.16797.125.16406.14844.15234.17187.13672.20313.1289.23047.10938.26172.1211.42578.05078.42969-.02735.41796-.10937.40235-.1875.3711-.1289.17187-.14845.16015-.17187.14844-.1914.13281-.21876.1211-.23828.10156-.45312.1289-.40625.04297-.3711-.03515-.33203-.10938-.29687-.16406-.26563-.22266-.23437-.26562-.20703-.30078.73828-.27344.15625.1875.16797.16016.17968.1289.1914.09375.19923.0586.20703.01953.21484-.02344.22656-.0625.28516-.1289.23828-.16798.1914-.1953.13282-.23048.08203-.2578.02344-.28907-.03906-.3164-.10156-.34376-.10938-.24219-.14844-.22265-.1836-.19922-.21483-.16016-.2461-.11718-.27734-.0586-.30469.00781-.33203.08594-.30469.15235-.22656.19921-.1875.26954-.19922.36328-.65234.23828-.75782-3.3711"/><g clip-path="url(#d)"><path fill="none" stroke="#000" stroke-linecap="round" stroke-linejoin="round" stroke-miterlimit="10" stroke-width=".5" d="M146.58594 482.70703l-5.17188-4.7539"/></g><g clip-path="url(#e)"><path fill="none" stroke="#000" stroke-linecap="round" stroke-linejoin="round" stroke-miterlimit="10" stroke-width=".5" d="M159.80078 482.8125l-4.96875-4.96875"/></g><g clip-path="url(#f)"><path fill="none" stroke="#000" stroke-linecap="round" stroke-linejoin="round" stroke-miterlimit="10" stroke-width=".5" d="M172.76172 483.1211L168.5 477.53515"/></g><g clip-path="url(#g)"><path fill="none" stroke="#000" stroke-linecap="round" stroke-linejoin="round" stroke-miterlimit="10" stroke-width=".5" d="M186.89844 482.23047l-5.90625-3.80469"/></g><g clip-path="url(#h)"><path fill="none" stroke="#000" stroke-linecap="round" stroke-linejoin="round" stroke-miterlimit="10" stroke-width=".5" d="M200.48438 481.72266l-6.44922-2.78907"/></g><g clip-path="url(#i)"><path fill="none" stroke="#000" stroke-linecap="round" stroke-linejoin="round" stroke-miterlimit="10" stroke-width=".5" d="M213.6836 481.96875l-6.21485-3.28125"/></g><g clip-path="url(#j)"><path fill="none" stroke="#000" stroke-linecap="round" stroke-linejoin="round" stroke-miterlimit="10" stroke-width=".5" d="M227.14453 481.65234l-6.50781-2.64843"/></g><g clip-path="url(#k)"><path fill="none" stroke="#000" stroke-linecap="round" stroke-linejoin="round" stroke-miterlimit="10" stroke-width=".5" d="M240.36328 481.86719l-6.3164-3.07813"/></g><g clip-path="url(#l)"><path fill="none" stroke="#000" stroke-linecap="round" stroke-linejoin="round" stroke-miterlimit="10" stroke-width=".5" d="M253.9961 480.85547l-6.94923-1.05469"/></g><g clip-path="url(#m)"><path fill="none" stroke="#000" stroke-linecap="round" stroke-linejoin="round" stroke-miterlimit="10" stroke-width=".5" d="M253.9961 480.85547l.8125 2.3164"/></g><g clip-path="url(#n)"><path fill="none" stroke="#000" stroke-linecap="round" stroke-linejoin="round" stroke-miterlimit="10" stroke-width=".5" d="M267.3164 479.83984l-6.96093.97657"/></g><g clip-path="url(#o)"><path fill="none" stroke="#000" stroke-linecap="round" stroke-linejoin="round" stroke-miterlimit="10" stroke-width=".5" d="M267.3164 479.83984l1.44141 1.98438"/></g><g clip-path="url(#p)"><path fill="none" stroke="#000" stroke-linecap="round" stroke-linejoin="round" stroke-miterlimit="10" stroke-width=".5" d="M280.63281 479.85156l-6.96484.95313"/></g><g clip-path="url(#q)"><path fill="none" stroke="#000" stroke-linecap="round" stroke-linejoin="round" stroke-miterlimit="10" stroke-width=".5" d="M280.63281 479.85156l1.4336 1.99219"/></g><g clip-path="url(#r)"><path fill="none" stroke="#000" stroke-linecap="round" stroke-linejoin="round" stroke-miterlimit="10" stroke-width=".5" d="M293.91797 479.66797l-6.90235 1.32422"/></g><g clip-path="url(#s)"><path fill="none" stroke="#000" stroke-linecap="round" stroke-linejoin="round" stroke-miterlimit="10" stroke-width=".5" d="M293.91797 479.66797l1.53906 1.91015"/></g><g clip-path="url(#t)"><path fill="none" stroke="#000" stroke-linecap="round" stroke-linejoin="round" stroke-miterlimit="10" stroke-width=".5" d="M307.21094 479.5664l-6.85938 1.52735"/></g><g clip-path="url(#u)"><path fill="none" stroke="#000" stroke-linecap="round" stroke-linejoin="round" stroke-miterlimit="10" stroke-width=".5" d="M307.21094 479.5664l1.59375 1.86329"/></g><g clip-path="url(#v)"><path fill="none" stroke="#000" stroke-linecap="round" stroke-linejoin="round" stroke-miterlimit="10" stroke-width=".5" d="M320.36719 479.04297l-6.54297 2.57031"/></g><g clip-path="url(#w)"><path fill="none" stroke="#000" stroke-linecap="round" stroke-linejoin="round" stroke-miterlimit="10" stroke-width=".5" d="M320.36719 479.04297l1.86328 1.59765"/></g><g clip-path="url(#x)"><path fill="none" stroke="#000" stroke-linecap="round" stroke-linejoin="round" stroke-miterlimit="10" stroke-width=".5" d="M333.74219 479.21094l-6.66016 2.23437"/></g><g clip-path="url(#y)"><path fill="none" stroke="#000" stroke-linecap="round" stroke-linejoin="round" stroke-miterlimit="10" stroke-width=".5" d="M332.77344 479.53516l.89062.84375"/></g><g clip-path="url(#z)"><path fill="none" stroke="#000" stroke-linecap="round" stroke-linejoin="round" stroke-miterlimit="10" stroke-width=".5" d="M346.90625 478.83594l-6.35938 2.98828"/></g><g clip-path="url(#A)"><path fill="none" stroke="#000" stroke-linecap="round" stroke-linejoin="round" stroke-miterlimit="10" stroke-width=".5" d="M345.98047 479.26953l.98047.73438"/></g><g clip-path="url(#B)"><path fill="none" stroke="#000" stroke-linecap="round" stroke-linejoin="round" stroke-miterlimit="10" stroke-width=".5" d="M359.53516 477.85547l-4.98829 4.94922"/></g><path fill="none" stroke="#000" stroke-linecap="round" stroke-linejoin="round" stroke-miterlimit="10" stroke-width=".5" d="M358.8086 478.57422l1.17187.36328"/><g clip-path="url(#C)"><path fill="none" stroke="#000" stroke-linecap="round" stroke-linejoin="round" stroke-miterlimit="10" stroke-width=".5" d="M373.2539 478.33984l-5.79296 3.97657"/></g><path fill="none" stroke="#000" stroke-linecap="round" stroke-linejoin="round" stroke-miterlimit="10" stroke-width=".5" d="M373.2539 478.33984l2.17579 1.13672"/><g clip-path="url(#D)"><path fill="none" stroke="#000" stroke-linecap="round" stroke-linejoin="round" stroke-miterlimit="10" stroke-width=".5" d="M386.83594 478.80469l-6.32813 3.05078"/></g><g clip-path="url(#E)"><path fill="none" stroke="#000" stroke-linecap="round" stroke-linejoin="round" stroke-miterlimit="10" stroke-width=".5" d="M385.91406 479.2461l.99219.72656"/></g><g clip-path="url(#F)"><path fill="none" stroke="#000" stroke-linecap="round" stroke-linejoin="round" stroke-miterlimit="10" stroke-width=".5" d="M399.1836 477.58594l-4.39454 5.48437"/></g><g clip-path="url(#G)"><path fill="none" stroke="#000" stroke-linecap="round" stroke-linejoin="round" stroke-miterlimit="10" stroke-width=".5" d="M413.79688 480.6875l-6.9922-.71875"/></g><g clip-path="url(#H)"><path fill="none" stroke="#000" stroke-linecap="round" stroke-linejoin="round" stroke-miterlimit="10" stroke-width=".5" d="M426.42578 482.4414l-5.61719-4.22265"/></g><g clip-path="url(#I)"><path fill="none" stroke="#000" stroke-linecap="round" stroke-linejoin="round" stroke-miterlimit="10" stroke-width=".5" d="M439.99219 482.05469l-6.1211-3.45313"/></g><g clip-path="url(#J)"><path fill="none" stroke="#000" stroke-linecap="round" stroke-linejoin="round" stroke-miterlimit="10" stroke-width=".5" d="M452.69922 482.84766l-4.90235-5.03516"/></g><g clip-path="url(#K)"><path fill="none" stroke="#000" stroke-linecap="round" stroke-linejoin="round" stroke-miterlimit="10" stroke-width=".5" d="M466.35547 482.45703l-5.58985-4.25781"/></g><g clip-path="url(#L)"><path fill="none" stroke="#000" stroke-linecap="round" stroke-linejoin="round" stroke-miterlimit="10" stroke-width=".5" d="M146.09766 469.83203l-4.19532-5.63672"/></g><path fill="none" stroke="#000" stroke-linecap="round" stroke-linejoin="round" stroke-miterlimit="10" stroke-width=".5" d="M146.09766 469.83203l-1.04688 2.21875m.4375-3.03906l-.52344 1.10937m15.09766-.91796l-5.4961-4.37891m5.4961 4.3789l-.44922 2.41407m13.58594-2.20703l-5.14063-4.79297m4.39453 4.09375l-.3164 1.1875m15.30469-2.53516l-6.9922-.69922m5.97657.59766l.46484 1.13672m13.78516-2.20313l-6.83203 1.63672m5.83984-1.39844l.8125.91797m13.5-1.14843l-6.83984 1.62109m6.83984-1.6211l1.6172 1.84376m11.47265-2.4961l-6.39063 2.92578m6.39063-2.92578l1.94922 1.48828m11.41406-1.3789l-6.48828 2.70703m6.48828-2.70703l1.89453 1.55859m11.42188-1.55469l-6.48829 2.69922m6.48828-2.69922l1.89454 1.5625m11.51953-1.29297l-6.6875 2.16016m6.6875-2.16016l1.76172 1.70704m11.3828-2.13672l-6.34765 3.01953m6.34766-3.01953l1.96875 1.46484m11.41406-1.3125l-6.48047 2.71484m6.48047-2.71484l1.89844 1.55469m11.07031-2.1875l-5.79297 3.98047m4.95313-3.39844l1.08594.5664m12.33984-1.92578l-4.33203 5.53516m4.33203-5.53516l2.41406.42579m9.07031-1.15625l-.67187 6.99609m.57422-5.97656l1.13281-.47266m12.53125-.51172l-1.17187 6.92578m1-5.91797l1.16406-.39062m11.57812-.66406l.3164 7.01953m-.26952-6l1.05469-.6211m11.64453-.32812l1.45312 6.8789m-1.24219-5.875l.94141-.78906m12.10156-.19922l1.57813 6.84766m-1.34766-5.85156l.92578-.80469m10.13282 1.1289l5.6289 4.20704m8.94922 1.05078l3.10156-6.3086m11.36328 6.64454l.8047-6.98047m12.85155 7.0039l.1211-7.02734m-.10547 6.0039l-1.08984.5586m14.6328.46094l-.36718-7.01953m14.39063 6.90625l-1.78516-6.79297"/><g clip-path="url(#M)"><path fill="none" stroke="#000" stroke-linecap="round" stroke-linejoin="round" stroke-miterlimit="10" stroke-width=".5" d="M146.39063 456.27344l-4.78125-5.14844"/></g><path fill="none" stroke="#000" stroke-linecap="round" stroke-linejoin="round" stroke-miterlimit="10" stroke-width=".5" d="M146.39063 456.27344l-.8047 2.32031m14.84766-3.28125l-6.23828-3.23047m5.33203 2.76172l.01563 1.22656m14.55469-2.94922l-6.9336 1.15235m5.92188-.98438l.7461.97656m13.49218-1.53125l-6.75781 1.9297m5.77343-1.64845l.85157.88282m13.03125-2.08985l-5.92578 3.78125m5.92578-3.78125l2.13672 1.20703m11.27343-1.04687l-6.11719 3.45703m6.1172-3.45703l2.0703 1.32031m11.26954-1.27734l-6.16407 3.3711m6.16407-3.3711l2.05078 1.34765m10.80078-2.0039l-5.23828 4.6836m5.23828-4.6836l2.30469.84765m11.0664-.78125l-5.35156 4.5547m5.35156-4.5547l2.28125.90235m11.3164-.52344l-5.91405 3.79297m5.05468-3.23828l1.07032.59765m13.20312-.98828l-6.11328 3.46875m5.22266-2.96484l1.03515.65625m12.54688-1.96094l-4.86328 5.07031m4.15625-4.33203l1.17968.33203m12.25391-1.52734l-3.6875 5.98047m3.15234-5.10938l1.22266.07813M318.54688 450.5l-2.90235 6.39844m2.48047-5.46875l1.22266-.07813m10.12109-1.03906l1.88281 6.76953m-1.60937-5.78515l.89062-.84375m10.54297.82812l5.10156 4.83594m-4.35937-4.13281l.32812-1.1836m12.77735.02344l4.03515 5.75m-3.44921-4.91406l.55468-1.09375m11.19532 1.30078l5.99609 3.66406m-5.125-3.13281l.07422-1.22266m13.05469-.125l4.625 5.29297m-3.95313-4.51953l.4375-1.14844m11.0625 2.3789l6.91016 1.28907m-5.90235-1.10156l-.3711-1.17188m12.66407 1.0625l6.9375 1.1289m-5.92578-.96484l-.39453-1.16015m12.65234 1.60937l7.02735-.09765m-6.00391.08593l-.58984-1.07812m13.45312 2.96484l5.88672-3.84375m-5.02734 3.28516l-1.07813-.59375m13.5039 1.09766l5.94923-3.73828m-5.08594 3.1953l-1.0625-.60937m14.39062 2.10547l4.19141-5.64062"/><g clip-path="url(#N)"><path fill="none" stroke="#000" stroke-linecap="round" stroke-linejoin="round" stroke-miterlimit="10" stroke-width=".5" d="M147.26953 441.67188l-6.53906-2.57813"/></g><path fill="none" stroke="#000" stroke-linecap="round" stroke-linejoin="round" stroke-miterlimit="10" stroke-width=".5" d="M146.3164 441.29688l.14063 1.21875m14.32031-1.54297l-6.92578-1.1797m5.91797 1.00782l.38672 1.16406m13.92578-2.22656l-6.90625 1.28906m5.90234-1.10156l.76563.95703m13.49219-1.42578l-6.78125 1.85156m5.79297-1.58203l.83984.89453m13.29297-1.64453l-6.4375 2.8164m5.5-2.41015l.96094.76172m12.80859-1.96484l-5.47656 4.40625m4.67969-3.76563l1.1289.48438M226.5 438.03125l-5.21875 4.70313m5.21875-4.70313l2.30469.83594m11-.84766l-5.19922 4.72656m5.19922-4.72656l2.3086.82813m10.33983-1.39844l-3.86328 5.8711m3.30078-5.01954l1.21875.11719m13.84375.34375l-6.23437 3.2461m5.32813-2.77344l1.0078.6953m12.35548-2.23437l-4.51953 5.3789m17.10546-5.85546l-3.05859 6.32813m15.86719-3.16407l-.01953-.19922-.0586-.1914-.09375-.17578-.46094-.37891-.1914-.0586-.19922-.01952-.19922.01953-.1914.05859-.46094.3789-.09375.17579-.0586.1914-.01953.19922.01953.19922.0586.1914.09375.1797.46094.375.1914.05859.19922.01953.19922-.01953.1914-.0586.46094-.375.09375-.17968.0586-.1914.01953-.19923m9.35547 1.92969l5.87109-3.85937m7.67969-.32032l5.39844 4.5m-4.61329-3.84375l.25391-1.20312m13.07422-.15625l3.80469 5.91015m-3.25-5.05078l.59765-1.07031m11.72266.54688l4.6836 5.23828m-4-4.47657l.42187-1.15234m11.57031 1.14844l5.96094 3.71875m-5.09375-3.17969l.08594-1.22266m12.01171 1.42579l6.66407 2.23437m-5.69532-1.91016l-.19921-1.20703m12.53125.92969l6.6914 2.14453m-5.71875-1.83203l-.21875-1.20703m12.41016 1.61719l6.99219.69921m-5.97266-.59765L407.35547 439m12.75 1.53906l7.01953-.3086m-5.9961.26173l-.625-1.05469m13.46876 2.83984l5.91796-3.78515m-5.05859 3.23437l-1.0664-.60547m14.19921 1.9336l4.5625-5.34375m-3.89843 4.5664l-1.19922-.26562M461.5 443.23047l4.1211-5.6914m-3.51954 4.86327l-1.21484-.17187"/><g clip-path="url(#O)"><path fill="none" stroke="#000" stroke-linecap="round" stroke-linejoin="round" stroke-miterlimit="10" stroke-width=".5" d="M147.375 428.05078l-6.75-1.96484"/></g><path fill="none" stroke="#000" stroke-linecap="round" stroke-linejoin="round" stroke-miterlimit="10" stroke-width=".5" d="M146.39063 427.76563l.25 1.19921m14.16406-2.28906l-6.98047.78516m5.96484-.67188l.69531 1.01172m13.32813-2.22266l-6.36328 2.98047m5.4375-2.54687l.98047.73828m13.42578-.7461l-6.69531 2.12891m17.10156 2.42188l-.875-6.97266m16.32422 5.8789l-5.14453-4.78515m17.86718-.50781l-3.96093 5.80078m15.78125-6.3789l-.97266 6.95702m17.21484-2.64062l-6.82422-1.67578m17.1836 4.32031l-.91406-6.96484m13.14062 6.9375l1.26172-6.91016m15.5039 5.55078l-5.64062-4.1914m12.9336 3.53906l6.40625-2.88672m8.28125-1.55469l3.66015 5.9961m9.28516-5.73829l4.39844 5.48047m7.85156-4.03515l6.53125 2.58984m10.51562 2.1875l-.9336-6.96484m16.76954 5.33203l-5.97266-3.69922m12.92188.8789l6.7539 1.94141m13.3047-1.98047l-6.73048 2.01953m5.75-1.72656l.86329.8711m6.8125 1.17187l6.5078-2.65234m13.3125-.00782l-6.5 2.66797m5.5547-2.27734l.9453.78125m12.69532 2.49219l-5.26172-4.66016m14.26563 5.41797l3.35937-6.17578m-2.8711 5.27734l-1.22656-.01172m14.15235.96094l3.16406-6.27734m-2.70312 5.36328l-1.22657.02734"/><g clip-path="url(#P)"><path fill="none" stroke="#000" stroke-linecap="round" stroke-linejoin="round" stroke-miterlimit="10" stroke-width=".5" d="M147.51172 413.79297l-7.02344-.07813"/></g><path fill="none" stroke="#000" stroke-linecap="round" stroke-linejoin="round" stroke-miterlimit="10" stroke-width=".5" d="M157.28125 410.23828l.07031 7.02735m-.0625-6.00391l1.07813-.58594m12.83203-.39062l-1.14063 6.93359m.97657-5.92188l1.16015-.39453m11.32031-.63672l.85547 6.97657m-.73047-5.96094l1.00782-.70313m11.05469.02344l3.11328 6.30078m-2.66016-5.3828l.71875-.9961m10.20313 3.57812l6.99218-.69531m6.33594-.11719l6.96875.92969m-5.95313-.79297l-.42968-1.15234m13.73828-1.01563l4.94922 4.99219m8.3789-5.0039l4.92578 5.01171m8.10547-4.69531l5.4922 4.38281m7.11327-1.54687l6.91016-1.28907M288 416.25391l4.9336-5.00391m11.70702 5.91016l-1.72265-6.8125m16.41406 6.11328l-4.47265-5.41797m16.5703 6.07422l-2.03515-6.72657m14.82031 6.84375l-.97656-6.96093m.83203 5.94531l-.99219.72266m15.48047-.01954l-3.03515-6.33593m14.66015 6.67578l.34766-7.01563m10.73828 6.07032l4.80469-5.12891m-4.10547 4.38281l-1.1836-.32031M393.5 414.19531l6.97266-.88281m-5.95704.7539l-.70703-1m17.60157-2.64843l-2.21875 6.66797m1.89453-5.69532l1.21094-.20703m14.41796.91407l-6.19921 3.3125m5.29687-2.83204l1.01953.6836m13.60938.63281l-7.01954-.28125m6 .23828l.53125 1.10547m13.10938.89844l-5.63281-4.20313m4.8125 3.58985l-.1836 1.21484m13.5586.14844l-4.10938-5.70313m3.51172 4.8711l-.54297 1.10156"/><g clip-path="url(#Q)"><path fill="none" stroke="#000" stroke-linecap="round" stroke-linejoin="round" stroke-miterlimit="10" stroke-width=".5" d="M147.51172 400.33594l-7.02344.20312"/></g><path fill="none" stroke="#000" stroke-linecap="round" stroke-linejoin="round" stroke-miterlimit="10" stroke-width=".5" d="M146.48828 400.36719l.60938 1.0664m12.48437-3.67968l-4.53125 5.37109m3.8711-4.58984l1.19921.2578m12.6172-1.16405l-4.21485 5.62109m3.60156-4.80469l1.21094.1875m12.90625-.85156l-4.59375 5.3164m3.92578-4.54296l1.19531.27344m13.9961 1.38671l-7.01172.44922m7.01172-.44922l1.28906 2.08594m11.97265-1.20312l-6.90234-1.32032m5.89844 1.12891l.35937 1.17188m13.7539-.29297l-6.49218-2.69141m5.54688 2.29688l.11718 1.22265m14.32422-1.40625l-6.85547-1.53906m5.85938 1.3164l.32422 1.1836m13.99219-.97266l-6.86329-1.51562m5.86328 1.29687l.32813 1.17969m13.45703.26172l-5.80469-3.95703m4.96094 3.3789l-.13672 1.22266m13.54688.14844l-4.3086-5.54688m3.6836 4.74219l-.5039 1.11719m15.55468-1.78516l-6.53125-2.59765m5.58203 2.21875l.13281 1.21875m13.6914-.04688l-5.64843-4.1836m4.82422 3.57423l-.17969 1.21093m11.17188.80469l.64453-6.9961m14.07031 6.83985l-2.15625-6.6875m13.625 6.77344l1.53516-6.85938m11.64062 6.82422l1.8164-6.78906m9.81642 5.76953l5.17968-4.75m-4.42578 4.0586l-1.15625-.40626m13.8789 1.26172l4.85938-5.07812m-4.15234 4.33984l-1.17969-.33203m13.01172-.02734l6.41016-2.88282m-5.47657 2.46485l-.96875-.75m13.21094.80078l6.6914-2.14453m-5.71874 1.83203l-.8789-.85547m13.46093 1.74219l6.20703-3.29688m-5.30078 2.8164l-1.01953-.68358m15.83594 2.96093l1.39453-6.88672m14.41015 6.46485l-3.58593-6.04297m3.0664 5.16406l-.64062 1.04688m15.83984-1.64454l-6.3125-3.08984m5.39453 2.64063l.03906 1.22656"/><g clip-path="url(#R)"><path fill="none" stroke="#000" stroke-linecap="round" stroke-linejoin="round" stroke-miterlimit="10" stroke-width=".5" d="M147.4961 386.77734l-6.9922.69141"/></g><path fill="none" stroke="#000" stroke-linecap="round" stroke-linejoin="round" stroke-miterlimit="10" stroke-width=".5" d="M146.48047 386.8789l.67969 1.01954m13.66015-.53125l-7.01172-.48828m7.01172.48828l1 2.24219m12.32422-2.52344l-7.02734.07812m7.02734-.07812l1.17578 2.15234m-2.19922-2.14453l.58985 1.07813m13.7461-1.00782l-7.02345-.08203m6.00391.07031L187 388.2422m13.76563-.90625l-7.01172-.42578m5.99218.36328l.51172 1.11719m13.8164-.95704l-7-.62109m5.98438.53125l.47657 1.1289m13.39453.41407l-6.07813-3.52735m5.19531 3.01563L226 389.59766m14.71875-2.4336l-7.02734-.08203m6.0039.07031l.5664 1.08985m12.79298 1.3164l-5.0664-4.87109m4.32812 4.16016l-.33594 1.18359m15.13281-1.64453l-6.55469-2.52735m5.60157 2.16016l.14843 1.21875m12.57813.9414l-3.47266-6.10937m2.96875 5.21875l-.65625 1.03516m11.1875-.05078l3.10547-6.30078m9.23828 5.59765l5.04688-4.89453m-4.3125 4.1836l-1.16797-.37891m13.98828 1.3125l4.5664-5.33985m7.91798 4.29297l6.23046-3.24609m6.7461 2.28516l6.90234-1.32422m-5.89453 1.13281l-.76953-.95703m13.45312-1.20703l6.15235 3.39062m-5.25781-2.89844l.01953-1.22656m12.60156.41016l5.75 4.03515m-4.91406-3.44921l.15234-1.21875m13.5664-.45704l3.27344 6.21875m-2.79687-5.3164l.6914-1.01172m11.66407.41406l4.23828 5.60547m7.6836-2.91406l7.02343.22265m6.55469 1.22266l6.5-2.66797m7.5039 3.73828l5.1211-4.80859m-4.375 4.10938l-1.16406-.39454m14.58203 1.75782l3.42187-6.13672m-2.92187 5.2461l-1.22657-.02735m15.58985 1.35937l.32812-7.01953"/><g clip-path="url(#S)"><path fill="none" stroke="#000" stroke-linecap="round" stroke-linejoin="round" stroke-miterlimit="10" stroke-width=".5" d="M147.49219 374.1836l-6.98438-.75"/></g><path fill="none" stroke="#000" stroke-linecap="round" stroke-linejoin="round" stroke-miterlimit="10" stroke-width=".5" d="M147.49219 374.1836l.91406 2.27734m12.38281-2.13672l-6.94922-1.03125m6.94922 1.03125l.82422 2.3086m-1.83203-2.46094l.41016 1.15625m13.9375-1.19141l-6.9961-.65625m5.97656.5625l.47266 1.1289m13.84375-.8789l-6.96094-.96875m5.94922.82812l.41797 1.15235m13.92188-1.14063l-6.98828-.71484m5.97265.61328l.46484 1.13672m9.08594-4.66016l2.57031 6.53906m9.32422-5.51171l5.41407 4.48046m10.52343 1.27344l.16797-7.02344m16.30078 5.22266l-6.13672-3.42187m5.2422 2.92187l-.02345 1.22656m11.46485 1.0625l-.60547-7m.51953 5.98047l-1.03125.66797m14.8789.28516l-1.49609-6.86719m1.27735 5.86719l-.9336.79297m13.65625.28515l.125-7.02344m-.10546 6.00391l-1.09375.55469m13.1875.23047l2.53125-6.55469m-2.16407 5.60156l-1.21875.14453m14.76172.98047l1.33985-6.89844m-1.14454 5.89454l-1.17187.35937m12.54687-.2539l4.83204-5.10157m7.45703 3.26563l6.8789-1.4336m6.72657-.83203l6.30078 3.10156m-5.38672-2.65234l-.03516-1.22656m13.73828-.66016l3.69922 5.97656m-3.16015-5.10546l.61718-1.0625m11.27344.97265l5.46875 4.41406m-4.67187-3.77343l.23046-1.20313m11.65235 1.77344l6.73828 1.99219m-5.75781-1.70313l-.2461-1.20312m13.28125-.375l5.33985 4.57031m7.1289-2.3125l7.02735.05469m-6.00391-.04688l-.5664-1.08984m12.90624 1.67578l6.9336-1.13281m-5.92578.96875l-.7422-.97656m13.00782.76171l7.01563-.375m-5.9961.32032l-.63281-1.05079m13.36328 2.6211l6.14453-3.40625"/><g clip-path="url(#T)"><path fill="none" stroke="#000" stroke-linecap="round" stroke-linejoin="round" stroke-miterlimit="10" stroke-width=".5" d="M147.51172 360.44531l-7.02344.09375"/></g><path fill="none" stroke="#000" stroke-linecap="round" stroke-linejoin="round" stroke-miterlimit="10" stroke-width=".5" d="M147.51172 360.44531l1.1836 2.15235m-2.20313-2.13672l.58984 1.07422m13.73047-1.36329l-6.9961.64063m6.9961-.64063l1.34766 2.0547m-2.36328-1.96094l.67187 1.02734m13.67578-.83594l-7.02734.07031m7.02734-.0703l1.17188 2.15624m12.14062-2.07031l-7.02344-.10156m6.00391.08593l.5586 1.09375m13.02734-3.30078l-5.52735 4.34375m4.72266-3.71094l1.1211.4961m9.14452-2.29688l2.1836 6.6797m-1.86719-5.70704l.85156-.88281m10.44141 1.1211l5.59375 4.2578m-4.78125-3.63671l.19922-1.21094m11.61328 2.28125l6.97266.875m-5.95703-.7461l-.4375-1.14843m13.51562 3.6953l5.41797-4.47655m-4.6289 3.82421l-1.13673-.46484m14.04297 1.51172l4.65625-5.26563m-3.97656 4.5l-1.19531-.28515m15.90625 1.92187l.50781-7.0078m-.4336 5.98827l-1.125.4961m12.58985-.11329l4.0586-5.73437m-3.46876 4.90234l-1.21875-.15625m17.45313 1.3086l-2.96485-6.3711m13.2461 6.33594l3.10547-6.30469m12.60156-.2578l-1.67969 6.82421m13.1289-6.77344l2.05079 6.72266m-1.75-5.7461l.86719-.86718m11.03906.46094l4.26953 5.58203m-3.64844-4.76954l.51172-1.11718m14.10156-.41406l.4297 7.01562m-.3672-5.99219l1.04688-.64062m12.53125-.38672l-.21875 7.02344m.1875-6l1.10156-.54297m8.91016 1.64062l6.44922 2.78516m-5.51172-2.38281l-.09766-1.22266m12.36719 1.09375l6.66406 2.23438m-5.6914-1.91016l-.20313-1.20703m12.54297.89453l6.67187 2.21094m-5.70312-1.89063l-.20313-1.20703m12.71875.47266l6.33204 3.04296m-5.41016-2.60156l-.05078-1.22656m17.6289-.57031l-4.03515 5.7539m18.46875-1.29687l-6.27344-3.16406m5.35938 2.70312l.02734 1.22656"/><g clip-path="url(#U)"><path fill="none" stroke="#000" stroke-linecap="round" stroke-linejoin="round" stroke-miterlimit="10" stroke-width=".5" d="M146.80469 345.0625l-5.60938 4.23047"/></g><path fill="none" stroke="#000" stroke-linecap="round" stroke-linejoin="round" stroke-miterlimit="10" stroke-width=".5" d="M146.80469 345.0625l2.22656 1.03906m11.09375-1.03125l-5.6211 4.21875m4.8047-3.60547l1.10937.51954m13.38672-.52735l-6.35156 3.00781m5.42968-2.5703l.98438.73046m13-1.61719l-5.84375 3.90625m4.99219-3.33984l1.08203.58203m10.41797-2.69922l-.51172 7.00781m.4375-5.98828l1.12109-.4961m9.65234.37892l4.72266 5.20312m-4.03516-4.44922l.41407-1.15234m11.52343 1.25781l6.10157 3.48047m-6.10157-3.48047l.07032-2.45313m12.92578 3.19922l6.73828 1.98829m-6.73828-1.98829l-.49219-2.40234m13.66797 3.54688l7.01953-.30079m-6 .25782l-.6211-1.0586m13.1836 2.30469l6.48438-2.70313m-5.54297 2.3086l-.94922-.77735m13.14062.60938l6.84766-1.58203m-5.85156 1.35156l-.8047-.92578m13.0625-.08594l6.96876.90235m-5.95313-.76954l-.43359-1.14843m12.79297.6875l6.85156 1.5625m-5.85547-1.33594l-.32031-1.1836m12.9961.02735l6.13671 3.42188m-6.13672-3.42188l.04688-2.45313m13.42187 2.20313l5.83204 3.91797m-4.98438-3.34766l.125-1.22265m12.14063.99218l6.23437 3.2422m-5.32812-2.77345l-.01172-1.22656m12.98828-.03906l5.09765 4.83203m-4.35546-4.1289l.32812-1.1836m12.73438.05078l4.11718 5.69531m-4.11718-5.6953l1.08203-2.20313m13.70703 1.58593l1.16797 6.9297m-.9961-5.92188l.97266-.75m9.98828 1.03906l5.53516 4.33203m-4.73047-3.69922l.21484-1.21094m18.54297 3.21875l-6.96094-.94921m20.0039 1.90625l-6.41405-2.86329m20.02734 1.66016l-7.01172-.45703m5.99219.39062l.5039 1.1172m13.70704-2.22267l-6.76563 1.89063m5.78125-1.61719l.84766.88672m13.51172.48047l-6.88672-1.39453m5.88672 1.1914l.34765 1.17579"/><g clip-path="url(#V)"><path fill="none" stroke="#000" stroke-linecap="round" stroke-linejoin="round" stroke-miterlimit="10" stroke-width=".5" d="M146.8164 331.76563l-5.6328 4.1953"/></g><path fill="none" stroke="#000" stroke-linecap="round" stroke-linejoin="round" stroke-miterlimit="10" stroke-width=".5" d="M146.8164 331.76563l2.21876 1.04687m-3.03907-.4375l2.21875 1.05078m11.48828-2.14062l-4.77734 5.15625m4.77734-5.15625l2.3711.6289m11.29297-.2539l-5.47656 4.40234m4.67968-3.76172l1.1289.48438m11.9297-2.00782l-3.3672 6.16797m3.3672-6.16797l2.45312.02735m8.71094-.42578l.9336 6.96484m-.9336-6.96484l1.99219-1.4297m9.85547 1.98048l3.87109 5.86719m-3.8711-5.8672l1.17188-2.15234m11.01953 3.35157l6.11328 3.46875m-6.11328-3.46875l.0664-2.45313m12.875 3.42578l6.86329 1.52344m-6.86328-1.52344l-.65235-2.36328m1.65235 2.58594l-.32813-1.1836m12.58985 2.16016l6.97265-.8789m-6.97265.8789l-1.41407-2.0039m2.4297 1.8789l-.70704-1.0039m13.00781 1.15625l6.96485-.9297m-6.96485.9297l-1.42578-1.9961m14.71094 1.5625l7.02734-.0625m-7.02734.0625l-1.17188-2.15625m14.4922 1.96094l7.01952.32812m-7.01953-.32812l-1.05078-2.21875M300.375 333l6.8125 1.72656M300.375 333l-.58594-2.38281m14.0664 1.89062l6.48438 2.71094m-6.48437-2.71094l-.23047-2.4414m1.17188 2.83593l-.11329-1.22265m12.51954.7461l6.41406 2.875m-6.41406-2.875l-.16407-2.44923m13.32031 2.8789l6.73438 2.01173m-6.73438-2.01172l-.48437-2.40235m13.88672 2.14844l6.5586 2.52344m-6.5586-2.52344l-.29688-2.4375m1.25 2.80469l-.14843-1.21875m12.85937.17578l5.86328 3.875m-5.86328-3.875l.23438-2.4414m19.5039 4.76953l-6.98437-.78125m5.96875.66796l.44922 1.14063m12.96093-3.8125l-5.14453 4.78906m4.39453-4.09375l1.16016.40235m13.65234.15234l-6.64062 2.28906m5.67578-1.95703l.89844.83594m12.97265 1.94531l-5.8203-3.9375m4.97265 3.36328l-.1289 1.21875m14.48437-.96484l-6.20704-3.29688m5.3047 2.81641v1.22656m14.33984-3.78906l-6.45313 2.78906m5.51563-2.38281l.95703.76563m13.58203.17968l-7.02735.08594m6.00391-.07422l.58985 1.07813"/><g clip-path="url(#W)"><path fill="none" stroke="#000" stroke-linecap="round" stroke-linejoin="round" stroke-miterlimit="10" stroke-width=".5" d="M147.29688 319.33984l-6.59375 2.41797"/></g><path fill="none" stroke="#000" stroke-linecap="round" stroke-linejoin="round" stroke-miterlimit="10" stroke-width=".5" d="M147.29688 319.33984l1.82812 1.63672m-2.78516-1.28515l1.82813 1.63671m12.57422-1.55468l-6.85547 1.54687m6.85547-1.54687l1.60156 1.85937M159.74609 320l1.60157 1.85938m-2.60157-1.63672l.80078.93359m14.59766-.57422l-7.02734-.0664m7.02734.0664l1.1289 2.17578m-2.15234-2.1875l1.13282 2.17969m13.1914-2.51172l-7 .61719m7-.61719l1.33594 2.0586m-2.35547-1.96875l1.33984 2.05859m12.90625-2.6836l-6.8203 1.69141m6.8203-1.6914l1.63672 1.82421m-2.6289-1.57812l1.63672 1.82422m12.5703-2.40235l-6.62108 2.35157m6.62109-2.35157l1.8086 1.65625m-2.77345-1.3125l1.8125 1.65625m12.33985-2.30859l-6.36719 2.97266m6.36719-2.97266l1.96094 1.47266m-2.88672-1.04297l1.96094 1.47656m12.22265-2.02344l-6.2539 3.20313m6.2539-3.20313l2.01172 1.40625m-2.92188-.9375l1.00782.69922m13.0664-1.4336l-5.94922 3.73829m5.08204-3.19531l1.0664.60937m9.23438-2.67969l1.8125 6.78907m8.94922-2.77735l6.91797-1.23047m6.49609 1.64063l6.71875-2.05469m-5.74219 1.75781l-.86719-.86718m13.17578-.78516l6.78125 1.84766m-6.78125-1.84766l-.53906-2.39453m14.32422 1.36328l5.83984 3.91016m-5.83984-3.91016l.25-2.4414m13.11328 2.37109l5.7461 4.04687m-4.91016-3.45703l.15234-1.21484m13.00782-.09766l4.3828 5.49219m11.23438-6.25781l-.22265 7.02343m.1875-6l1.10156-.54296m10.92578-.26563l2.42188 6.59766m-2.07032-5.63672l.82032-.91406m14.22265-.15235l-1.73828 6.8086m16.08594-6.36329l-3.80078 5.91407m3.2461-5.05079l1.22265.09766m12.71875-.91015l-3.94532 5.8164m3.3711-4.96875l1.22265.1289m12.01954 5.1836l-2.64844-6.50781m2.26172 5.5625l-.78516.9414m15.83594-.97265l-5.34766-4.55469m4.57031 3.89453l-.26171 1.19531m15.11718-2.07812l-6.87109-1.46875m6.8711 1.46875l.67187 2.35938m12.39844-4.5625l-6.38282 2.9414"/><g clip-path="url(#X)"><path fill="none" stroke="#000" stroke-linecap="round" stroke-linejoin="round" stroke-miterlimit="10" stroke-width=".5" d="M466.7539 319.07813l1.95313 1.48437"/></g><path fill="#00f" fill-rule="evenodd" d="M161.88281 472.08594H170.5V461.9414h-8.61719v10.14453"/><path fill="azure" fill-rule="evenodd" d="M163.71484 463.77344h.83203v2.82422h3.28907v-2.82422h.83203v6.48047h-.83203v-2.91797h-3.28906v2.91797h-.83204v-6.48047"/><path fill="#00f" fill-rule="evenodd" d="M383.80078 436.57813h8.61719v-10.14454h-8.61719v10.14454"/><path fill="azure" fill-rule="evenodd" d="M385.63281 428.26563h.83203v2.82421h3.28907v-2.82421h.83203v6.48046h-.83203v-2.91406h-3.28907v2.91406h-.83203v-6.48046"/><path fill="#ff3030" fill-rule="evenodd" d="M451.07031 343.375h7.6914v-10.14844h-7.6914V343.375"/><path fill="azure" fill-rule="evenodd" d="M452.90234 335.0625h.83204v5.73828h3.1953v.74219h-4.02734v-6.48047"/><path fill="#ffffe0" fill-rule="evenodd" d="M275.16797 392.35547h22.17969v-10.1914h-22.1797v10.1914"/><path fill-rule="evenodd" d="M278.66797 383.9961h.50781v6.29687h-.78515v-4.49219H277v-.55469l.5625-.0625.25-.05468.23047-.08985.20312-.14062.17579-.21094.14062-.29688.10547-.39453m4.8125 0l.23047.01954.21875.05468.20703.08985.19922.12109.1836.14844.17187.17578.30078.42187.24219.4922.17968.54687.11328.57812.03907.59375-.03907.59375-.11328.58203-.17969.55469-.24218.5-.30078.42969-.17188.17969-.1836.15234-.19921.125-.20703.08984-.21875.0586-.23047.01953-.22656-.01953-.21875-.0586-.21094-.08984-.19531-.125-.1836-.15235-.17187-.17968-.30078-.42969-.2461-.5-.17969-.55469-.10937-.58203-.03906-.59375h.83203l.03125.5625.08203.5039.125.44532.16406.375.1875.30078.21094.21875.22266.13672.22656.04688.22656-.04688.22266-.13672.21094-.21875.1914-.30078.16406-.375.125-.44531.08204-.5039.02734-.5625-.02735-.5625-.08203-.5-.125-.4375-.16406-.36329-.1914-.29297-.21094-.21484-.22266-.13281-.22656-.04297-.22656.04296-.22266.13282-.21094.21484-.1875.29297-.16406.36328-.125.4375-.08203.5-.03125.5625h-.83203l.03906-.59375.10938-.57812.17968-.54688.2461-.49219.30078-.42187.17187-.17578.1836-.14844.1953-.1211.21095-.08984.21875-.05469.22656-.01953m5.09375 0h.50781v6.29688h-.78515v-4.49219h-1.39063v-.55469l.5586-.0625.2539-.05468.23047-.08985.20312-.14062.17188-.21094.14453-.29688.10547-.39453m2.82422 2.17579h.78515l.01954-.31641.05859-.28516.10156-.2539.13672-.21485.1836-.17187.22265-.1289.26563-.08204.30859-.02734.23828.01953.22266.0625.20312.10156.17969.14063.14844.17187.11328.20703.07031.23438.02734.26562-.02343.26953-.06641.22266-.10938.1914-.15625.17188-.19921.16406-.2461.16406-.63672.39063-.53515.3125-.4375.3164-.34766.32423-.26172.33593-.1914.35156-.125.3711-.07032.39062-.01953.42188h4.21094v-.74219h-3.33203l.08203-.28515.11328-.23438.14844-.20313.1875-.17968.23047-.17188.28125-.17578.71484-.41406.41797-.20703.34375-.23047.28125-.25.21875-.26953.16406-.27735.11328-.28515.0625-.28516.01954-.28125-.04297-.38281-.1172-.34766-.1914-.3086-.25-.26171-.30078-.21094-.34765-.16015-.37891-.09766-.40625-.03516-.4375.03516-.39844.09766-.35156.16406-.30469.23828-.25.30078-.1836.375-.11718.44531-.03906.51954"/><path fill="#ffffe0" fill-rule="evenodd" d="M395.0039 419.88281h22.1797v-10.1914h-22.1797v10.1914"/><path fill-rule="evenodd" d="M398.5039 411.52344h.50782v6.29687h-.78516v-4.48828h-1.39062v-.5586l.5625-.0625.25-.05468.23047-.08984.20312-.14063.17578-.21094.14063-.29296.10547-.39844m4.8125 0l.23046.01953.21875.0586.20704.08593.19921.1211.1836.15234.17187.17578.30079.41797.24218.49219.17969.54687.11328.58203.03516.58985-.03516.59375-.11328.58203-.17969.55468-.24219.50391-.30078.42578-.17187.17969-.1836.15234-.19921.125-.20704.09375-.21875.05469-.23046.01953-.22657-.01953-.22265-.05469-.20703-.09375-.19532-.125-.18359-.15234-.17188-.17969L401.8086 417l-.24609-.5039-.17969-.5547-.10937-.58202-.03906-.59375h.83203l.03125.5625.08203.5078.125.44141.16015.375.19141.30079.21094.21875.22265.13671.22657.04688.22656-.04688.22265-.13671.21094-.21875.1914-.30079.16407-.375.125-.4414.08203-.50781.02735-.5625-.02735-.5625-.08203-.5-.125-.4336-.16406-.36719-.1914-.29296-.21094-.21485-.22266-.1289-.22656-.04688-.22657.04688-.22265.1289-.21094.21485-.1914.29296-.16016.3672-.125.43358-.08203.5-.03125.5625h-.83204l.03907-.58984.10937-.58203.17969-.54688.2461-.49218.30077-.41797.17188-.17578.1836-.15235.1953-.12109.20704-.08594.22265-.0586.22657-.01952m5.09375 0h.5078v6.29687h-.78515v-4.48828h-1.39062v-.5586l.5586-.0625.2539-.05468.23047-.08984.20312-.14063.17188-.21094.14453-.29296.10547-.39844m2.8203 2.17578h.78907l.01953-.3164.0586-.28516.09765-.25391.14063-.21484.1836-.17188.22265-.1289.26562-.08204.3086-.02734.23828.02344.22265.0625.20313.10156.17969.13672.14843.17187.11329.20704.0703.23828.02735.26171-.02344.26954-.0664.22656-.10938.1914-.15625.16797-.19922.16407-.24609.16796-.63672.38672-.53515.3125-.4375.31641-.34766.32422-.26172.33594-.1914.35156-.125.3711-.07032.39452-.01953.41797h4.21094v-.74219h-3.33203l.08203-.28125.11328-.23828.14844-.20312.1875-.17969.23046-.17187.28125-.17579.71485-.41406.41797-.20703.34375-.23047.28125-.25.21875-.26953.16406-.27734.11328-.28125.0625-.28516.01953-.28125-.04297-.38672-.11718-.34765-.19141-.3047-.25-.26562-.30078-.21093-.34766-.16016-.3789-.09766-.40625-.03515-.4375.03515-.39844.09766-.35156.16797-.3047.23437-.25.3047-.1875.37108-.11327.44922-.04297.51563"/></g></defs><use xlink:href="#Y"/></svg>