<svg xmlns="http://www.w3.org/2000/svg" role="img" xmlns:xlink="http://www.w3.org/1999/xlink" viewBox="142.45 309.95 326.84 171.84"><defs><clipPath id="a"><path d="M144 311.67188h1v168.65625h-1zm0 0"/></clipPath><clipPath id="b"><path d="M144 311.67188h324v168.65625H144zm0 0"/></clipPath><clipPath id="c"><path d="M467 311.67188h1v168.65625h-1zm0 0"/></clipPath><clipPath id="d"><path d="M144 477h3v3.32813h-3zm0 0"/></clipPath><clipPath id="e"><path d="M154 477h7v3.32813h-7zm0 0"/></clipPath><clipPath id="f"><path d="M167 477h7v3.32813h-7zm0 0"/></clipPath><clipPath id="g"><path d="M181 477h6v3.32813h-6zm0 0"/></clipPath><clipPath id="h"><path d="M194 477h7v3.32813h-7zm0 0"/></clipPath><clipPath id="i"><path d="M207 478h7v2.32813h-7zm0 0"/></clipPath><clipPath id="j"><path d="M220 478h8v2.32813h-8zm0 0"/></clipPath><clipPath id="k"><path d="M234 477h7v3.32813h-7zm0 0"/></clipPath><clipPath id="l"><path d="M247 477h7v3.32813h-7zm0 0"/></clipPath><clipPath id="m"><path d="M261 477h6v3.32813h-6zm0 0"/></clipPath><clipPath id="n"><path d="M274 478h7v2.32813h-7zm0 0"/></clipPath><clipPath id="o"><path d="M287 477h7v3.32813h-7zm0 0"/></clipPath><clipPath id="p"><path d="M300 477h7v3.32813h-7zm0 0"/></clipPath><clipPath id="q"><path d="M314 477h7v3.32813h-7zm0 0"/></clipPath><clipPath id="r"><path d="M328 477h5v3.32813h-5zm0 0"/></clipPath><clipPath id="s"><path d="M341 476h5v4.32813h-5zm0 0"/></clipPath><clipPath id="t"><path d="M354 477h6v3.32813h-6zm0 0"/></clipPath><clipPath id="u"><path d="M367 478h7v2.32813h-7zm0 0"/></clipPath><clipPath id="v"><path d="M380 478h7v2.32813h-7zm0 0"/></clipPath><clipPath id="w"><path d="M395 476h4v4.32813h-4zm0 0"/></clipPath><clipPath id="x"><path d="M408 476h4v4.32813h-4zm0 0"/></clipPath><clipPath id="y"><path d="M422 476h4v4.32813h-4zm0 0"/></clipPath><clipPath id="z"><path d="M435 476h4v4.32813h-4zm0 0"/></clipPath><clipPath id="A"><path d="M449 476h3v4.32813h-3zm0 0"/></clipPath><clipPath id="B"><path d="M463 476h2v4.32813h-2zm0 0"/></clipPath><clipPath id="C"><path d="M144 464h3v6h-3zm0 0"/></clipPath><clipPath id="D"><path d="M144 451h4v6h-4zm0 0"/></clipPath><clipPath id="E"><path d="M144 437h3v7h-3zm0 0"/></clipPath><clipPath id="F"><path d="M144 423h1v8h-1zm0 0"/></clipPath><clipPath id="G"><path d="M144 410h3v7h-3zm0 0"/></clipPath><clipPath id="H"><path d="M144 397h3v7h-3zm0 0"/></clipPath><clipPath id="I"><path d="M144 383h3v8h-3zm0 0"/></clipPath><clipPath id="J"><path d="M144 370h1v8h-1zm0 0"/></clipPath><clipPath id="K"><path d="M144 359h4v3h-4zm0 0"/></clipPath><clipPath id="L"><path d="M144 344h3v6h-3zm0 0"/></clipPath><clipPath id="M"><path d="M144 330h2v8h-2zm0 0"/></clipPath><clipPath id="N"><path d="M144 318h4v5h-4zm0 0"/></clipPath><clipPath id="O"><path d="M465 317h3v2h-3zm0 0"/></clipPath><g id="P" clip-path="url(#clip1)"><path fill="#fff" fill-opacity="0" fill-rule="evenodd" d="M0 0h1000v1000H0zm0 0"/><path fill="#d3d3d3" fill-opacity="0" fill-rule="evenodd" d="M162.15234 355.86719l-.23437.29297.0586.23437.11718.17188.17578.23437.29297.34766.11328.0586.11719-.17188.0586-.23438.17577-.17578.46485-.17578h.69922l.23437.29297.28906.8164.0586.17579.17578.23046.35156.23438.69922.69922.17188.17578.23437.34765.23438.41016.28906.58203.41015.46485.23047.23437.23438.17578.11719.23047.17578.29297.17187 1.16406v.23438l.0586.28906.05859.11719.11719.11719.34765.41015.11719.17188.17578.17578.17578.23437.11719.17188.17188.35156.05859.23438.23437.40625.23438-.0586-.17578.17578-.0586.92969h-.58203l-.23437-.11328-.34766.11328-.11719.11719-.05859.29297-.0586.17578-.11718.17187-.46484.29297-.0586.23438-.0586.11328v.64453l.0586.17187v.41016l.0586.0586v.40624l.05859.40625.11719.17579.05859.05859.23047.64062-.0586.29297v.69922l-.05859.58203v.23438l-.0586.23047-.05468.35156v1.92187l.05469.1172h.42578l-.36719.11718-.02344.35156.89063 1.16797 1.74219.53906 1.33984.35938v.53906l.08984.8086.53516.71484 1.51953.26953.89063-.08594.08984 1.16406.53516.1797 1.16015-.1797 2.05469-.98437 1.16016-.36328 1.8789-.17578 1.69531-.1797-.17968.71876-1.51563.08594-1.25.08984-.80469.26953-1.07421.8086.26953.71875.53515.89843-.17968.625-.26563.8086.26563 1.07812.625.89844.80468.17969 1.25-.1797-.26562.72267.09766.5039.05468.29297v.17188l.0586.29296v.40625l.17578.1172.35156.11718h.40625l.29297-.17578.11328-.11719.0586-.11719.11718-.23047.0586-.17578.35156-.46484.23047-.17578.17578-.0586.17578.0586.0586.17578.11718.98828.05469.46875.0586.17188.11718.23437.17578.0586.8164.05859h.28907l.11719.23437.05859.40625.0586.35156v1.10547l.11718.29297.11719.34766.28906.69922.17578.35156.58203.7539.35157.17579.17187.0586.46875.23437.64063.46484.34765.23438.29297.17578.29297.05468.23047.0625.8164.34766.29297.17578.11328.17188.35157.35156.11719.17578.52343.64063v.28906l.0586.35156v.34766l.05859.35156.0586.28906.11718.0586.17188.05859h.17578l.58203.23437.17578.1172.17578.28905.17578.23438.11328.23437.29297.23047.11719.11719v.41016l.0586.05468.28906.23438.23437.11719.0586.11718.11718.17188.0586.11719.23047.23437.05859.17578.23437.0586.1172.05859-.1172.11328-.05859.11719v.11719l-.11719.29296-.11719.28907v.58203l.17579.11719.11718.05859.0586.11719.11719.11719.11328.05859.17578.34765.0586.35157.05858.40625v.17578l-.05859.17578-.11719.69922v.17187l.1172.17579.29296.29296h.40625l.17578.1172.11719.17187.11719.29296v.23438h-.52735l-.23047-.23438h-.23437l-.17578.0586-.0586.69922.0586.34765.11719.17579.17578.41015.11718.23047.28907.46875.17578.05469h.52344l.23437.0586.75781.64062.0586.29296v.23438l.05859.0586.23047.34765v.35156l-.11719.17188v.29297l.29297.28906.29297.17578.17187.0586.29297.17577.29297.1172.58203.40624.28906.23438.29297.17578.21875.16015.01563.01172.23047.17579.64062.52343.17578.23438.1172.17578.17577.17578.11328.17188v.64062l.1172.17578.46874.11719.58203.11719.23438.05859.23047.11328.29297.11719.11328.0586.58593.35156.28907.17187.17578.0625.17578.05469.17578.0586.69922.35155.28906.17579.23438.05468.28906.17578.23437.1172.64063.40624.29297.11719.17187.0586.23438.05859.41015.05859.23047.0586.23438.11718.0586.17188-.41017.17578.46875.0586.0586.29296.11328.23438.17578.05468.23438.0586.17578.05859.40625.11719.64062.23437.11719.17188.0586.23437v.17578l-.0586.1172-.0586.40624.23438.23438.11719.05859.34766.11719.64062.23047.17578.11718.28906.1172.17578.17577.23438.46485.58203 1.10546.17578.17579.34766.17578.17578.11719.35156.11718 1.04688.52344.23437.0586.46485.11327.29297.0586.46484.17578.75781.58203.23438.23438.34765.46484.17578.17578.28907.23438.8164.69921.29297.17579.28906.28906.29297.17578.29297.28906.69531.64063.17578.17578.29297.23437.28907.23438.46875.28906.64062.58203.34766.23438.23437.29297.34766.34765.35156.46485.9336.99218.34765.40625.11719.17579.23437.05859.11328.11719.64454.17578.23047.11328.23437.0586.29297.17577.23047.1172.9336.69921.40624.40625.23438.17578.40625.17578.23437.11719.8164.34766.34766.23437.23438.11719.29297.28906.23047.11719.7578.35156.35157.17188.23047.05859.29297.11719.23437.0586.8711.17577h.8164l.46875.23047.17188.0586.875.69921.46484.1172.29297.05858.17578.0586.23047.0586.46875.05859.34766.05859.35156.0586.40625.05859h.29297l.17187.0586v.23046l.17578.17578h.29297l.34766.0586.35156.05859.69922.11719h.64063l.46484-.23438.29297-.17578.17187-.11719.41016-.17187.28906-.17578.9336-.46485.46875-.29297.52343-.29296.46485-.17188.46484-.17578 1.05078-.46485.28906-.11718.41016-.11719.28906-.11719.52735-.17578 1.51562-.69922.58203-.34765.28907-.0586.29297-.0586.34765-.11718.875-.23047.35156-.11719h.11329l.23437-.05859.875-.23437.23438-.0586h.8125l.35156-.0586.8164-.11718.17188-.0586.35156-.05468.29297-.0586.23047-.05859.8164-.17578.17579-.0586h.34765l.23438-.05859.46484-.11718.75781-.17188.23438-.0586h.34765l.41016-.11718.28906-.0586 1.28516-.05859h.28906l.41016-.0586.23047-.05858h.17578l.875-.1172h.40625l.41015-.11718h.34766l.35156-.11328.8711-.0586h1.75l1.04687.28907.41016.11719.28906.11718.35156.11719.28907.11719 1.05078.17187.28906.0586h.29297l.29297.05859.17187.0586.41016.05859.17187.0586.1172.05858h.11718l.11719.0586.35156.0586h.11328l.41016.0664 1.92187.39453 1.92578.39453 1.51953.44922 1.69532.71875 2.14453.80469 1.60547-.71875 1.42968-.80469 1.16016-1.07813 1.25-.44921 3.03516-.71875 1.875-.35938 2.14453-1.34765 2.23437-1.25391 2.5-1.25781 1.69531-.44922 1.78516-.17969 1.16016-.26953.625.53906 1.33984-.26953.71485-.98828.98437-1.34375.44531-.17969.80469-.35937 1.875-.53907 1.78516-.44921 1.25-.26954 1.16015-.08984 1.69922-.08984 1.96094-.26954 1.25-.08984h.53906l.625-.08984h.89063l2.14453-.17969 2.41015-.17969 2.58985-.08984 1.69531.17969 1.60938.08984 1.42968.35938 1.16016.71875 1.875.98828 1.16015 1.52734.26563.71484.6289.08985.35548.89844.53515.53906.53516 1.52734 1.07422.35938h.53515l-.80469.53515.08985 1.70703.71484 2.69532.89063.80468.89453.98829.71484 1.2578 1.78516.53907 1.51953-.17969.35547 1.34375 1.60937-.80469.98047-.53906.26953.26953.31641-.21484.21875-.14453.80078.44922.44922-.35938h.35547l.53515-.26953.53907-.71875.53515-.26953.625-.98828 1.16016.44922.83984.3711 1.39454.61718 1.6953-.17969h1.60548l1.78515.08985.17969-1.70704.53516-1.34375.80468.26954.4922.84765.40233.40625-.08984.53906v.35938l.71485.44922.71093-.26953h1.42969l.35938.98828.4453 1.25781.71485 1.34375 1.25.6289 1.69531.62891.71485-.17969.17969-.53906.98046-.08984.44922.35937.08594 1.25782-.26563.6289-.53515.17969v.53906l.71484.98438.26563.53906.98437.98828.80078 1.07813-.26562.35937-.08985.89844-.625 2.33203-.35546 2.0664-.08985 1.79298-.17969.71875-.08984.53906v1.4375l-.98047 1.88281-.35937 1.70703-.53516.89844-.80469 1.16797-.26562.53906 2.05469 1.2539.08593.35938-.35546.53906-.08985-.17968v.80859l.08985 1.4375-.44532.71484-1.07422.09375-.26562.71485.53515.89844.8047.71875 1.16015.80859 1.33984.26953.44531.35938-.35546.44921-1.78907-.08984-1.25-.44922-.71484-.71875-.625-.08984-.17578 3.58984-.1875 1.3086h89.35937V311.70313h-55.26953v49.08203l.76172.125 3.28906.54296 2.02344 2.83594v2.7539l2.35156.33204 2.34766.33203h4.05078l-1.3789 4.16016-2.02344.70703-2.02344.70312-.54297.34375-2.59375 1.6172-.1875.11718-2.02344-2.07813-.73046-2.74218-2.67188-2.07813-1.375-3.5-.0664-.08203-1.95704-2.67188 2.75-1.41796v-49.08204H294.42187v91.41407l.1172.03125.1328.01172.07422.07421.10547.04688.08985.0586.08593.05859.08985.0586.29687.29687.0586.08984.03125.11719.02734.11719.01563.13671-.03125.1172-.0586.08983-.0586.08594-.04296.10547-.04688.10156-.02734.1211v.14453l.17578.26953.14844.14844.07422.08594.07422.07421.04296.10547.0625.08985.0586.08593.04297.10547.0586.08985.04687.10156.04296.10547.0586.08594.11719.17968.07421.07422.0625.08594.0586.08984.04297.10547.0586.08985.05858.08593.0625.08985.0586.08984.04297.10156.11719.17969.07421.07422.0586.08594.07422.07421.08984.0586.10547.04687h.14844l.1328-.01562.13282.01562.10156-.04687.07422-.07422.04688-.10156-.01563-.13281v-.14844l-.04687-.10547-.02735-.11719-.04687-.10156-.02735-.1211-.04296-.10156-.0625-.08984-.04297-.10156-.04297-.10547-.03125-.11719-.01563-.13281-.01171-.13672.08593-.0586.0586-.08593.12109-.03125.04297.10547.01562.1328v.1172l.0586.10156.0586.08984.08983.0586.14844.14843.0586.08985.04296.10547-.01171.10156.08593.0586.10547.04687.08594.0586.08984.05858.07422.07422-.11719.02735-.10546.04687-.08594.0586-.07422.07421-.0586.08985-.0625.08594-.02734.12109-.04687.10156-.04297.10547-.03125.11719-.01172.13281-.01563.13281v.14844l.02735.11719.04687.10547.04297.10156.0586.08984.07421.07422.08985.0586.07422.07421.08984.0586.0586.08984.04296.10547.04688.10156.11719.03125.1328.01563h.14845l.11718-.03125.10547.04297.04297.10547.04688.10156.02734.1211L299.5 410l.02734.11719.03125.1211.02735.11718.10547.04297.10156.04687.13281-.01562.14844.14844.0625.08593.07422.07422.07031.07422.08984.0625.10547.04297.10156.04297.1172.03125.13671.01562.11719-.03125.07422-.07422.02734-.11718-.01172-.13282-.03125-.12109-.02734-.11719.04297-.10547h.11719l.08984.0625.11719.02735h.14843l.13282.01562h.14843l.13282.01563.1328-.01563h.14845l.1328-.01562.13282-.01172.13672.01172.11719-.02735.13281-.01562.1914-.0586-.05859.17579-.01562.1328-.02735.1211-.01562.13281-.0586.08594-.1328.01563-.10548.04687-.10546.04297-.1172.03125-.11718.02735-.26563.03125h-.14843l-.13281.01562-.07422.07422.05859.08594.14844.14843.11719.1797.07421.0703.08985.0625.08984.0586.08594.0586.08984.05858.10156.04297.10547.0625.10547.04297.08594.0586.10547.04687.10156.04297.17969.11719.0586.08984-.04298.10156-.04687.10547.01562.13281.22266.22266.0586.08985.04296.10156.03125.1211.04297.10155.01563.13282.03125.11718.01171.13672.03125.11719.14844.14844.10156.04297.10547.04296.1172.03125.1328.01563.13672.01563h.11719l.11719-.03125.08984-.0586.04297-.10547.04688-.10156.04296-.10547.03125-.11719.01172-.1328v-.14845l-.01172-.1328-.01562-.13282-.03125-.11719-.04297-.10547-.04688-.10547-.04296-.10156-.04297-.10547-.01563-.13281.01563-.13281.02734-.11719.03125-.11719.02735-.1211.04687-.10155.08984-.0586.08594-.0625.07422-.07422.08984-.05859.22266-.22266.0586-.08593.07421-.07422.11719-.17969.0586-.08594v-.14844l-.07423-.07421-.10156-.04688-.10547-.04297-.10156-.04297-.0586-.08984-.04687-.10547-.02734-.11719.08984-.05859.11719-.03125.10156-.04297.17969-.11719.14844-.14843.01172-.13282-.01172-.10546-.08985-.0586-.1328.01563h-.14845l-.1328.01562-.13282-.01562-.1211-.03125-.08593-.0586-.07422-.07422-.0586-.08984-.0625-.08594-.11718-.17969-.0586-.08593.03125-.1211.08594-.05859.1211-.03125.05859-.08594v-.1211l-.03125-.11718-.0586-.08984-.05859-.08594-.04687-.10547-.02735-.11719-.01562-.1328.0586-.08985.07421-.07422.08984-.0586.1172-.17968.07421-.07422.0586-.08594.14843-.14844.1211-.03125.1328-.01562.13282.01562.07422.07422.04297.10547.01562.13281-.03125.1172-.11719.03124-.1328.01172-.14844.14844-.04297.10547-.04688.10156-.02734.1211-.03125.11718v.14844l.03125.11719.04297.10546.05859.08985.07422.07031.07422.07422.11719.03125.12109.02734.11719-.02734.1328-.01563h.1172l.08984.0586.07422.07422.04687.10546.0586.08594.10156.04688.13281.01562.10547.04297.08594.0586-.01172.10546-.07422.07422-.17969.11719-.05859.08984-.08984.0586-.07032.07422-.07421.07421-.0625.08985-.02735.11719-.01562.1328.01562.13282-.01562.13281v.14844l.01562.13281.02735.1172.03125.12108.07421.07422.08985.0586.08594.0586.08984.05858.11719.03125v.08594l-.10157.04688-.08984.0586-.26563.03124-.11718.02735h-.14844l-.10547.04296-.10156.04688-.0586.08984-.0625.23438-.01171.13281-.03125.1211-.01563.1328v.29298l-.01172.1328.01172.13673.01563.1328.1328.01563.13282.01172.1211.03125.08593.0586.07422.07421.04688.10547.04296.10157.01563.1328v.44532l-.01563.13281v.44532l.03125.26562.02735.11719.01562.13281.03125.11719.08594.21094.03125.26562v.14844l-.03125.11719-.02734.11718-.03125.1211-.02735.11719-.03125.11718-.03125.1211-.01171.1328-.01563.13282.08984.0586.1172-.03125.10155.01562.04688.10547-.03125.26562v.44141l-.04297.10547-.04688.10547-.04296.10156-.04297.10547-.0586.08594-.03125.12109-.04296.11719-.03125.11719-.01563.1328.01563.13282.05859.08984.10547.04688.08594.0586.05859.08593-.01172.13672-.03125.11719-.04297.10156v.44531l-.01562.13281v.14844l-.03125.11719-.04297.10547-.02735.11719-.04687.10546-.04297.10157-.03125.12109-.02734.11719-.03125.13281-.03125.11719-.02735.11719-.04297.10546-.03125.1172-.03125.12108-.01171.13282-.01563.13281v.29688l.02734.11718v.14844l.04688.39844.02734.11719.0586.08984.12109.03125h.14844l.13281-.01563.0586.08985v.11719l-.0586.08984-.08984.0586-.10157.04296-.10546.04688-.08985.05859-.08594.0586-.13671.01562-.1172-.03125-.1328-.01563-.10157.04688-.0625.08594-.01172.13671-.01562.13282-.03125.11719-.02735.11718-.01562.13281-.03125.1211v.29687l.01563.13282.03125.11718v.14844l.01171.13281v.14844l-.02734.11719-.04688.10156-.02734.1211-.03125.11718-.0586.08985-.07421.07421-.10156.04297-.10547.04688-.11719.02734-.1211.03125-.10156-.04687.0586-.08594.10547-.04688.02734-.11718.03125-.11719.02734-.1211.03125-.11718v-.14844l.01563-.13281-.03125-.11719-.04297-.10547-.10547.01563-.07422.07422-.10156.04296-.08984.0625-.07422.07422-.04297.10157-.01563.1328-.03125.1172L304.25 426l-.03125.11719-.02734.11719-.03125.12109-.02735.11719-.03125.11718-.04297.10547-.08984.0586h-.08984l-.1172-.03125-.03124-.08594.01562-.13672-.03125-.11719v-.14844l-.01171-.1328v-.14844l-.0625-.23438-.02735-.1211-.04297-.10156-.04687-.10546-.0586-.08594-.05859-.08985-.04297-.10546-.0625-.08594-.14844-.14844-.0703-.07422-.10548-.04687-.10547-.04297-.10156-.04297-.29687-.29688-.08985-.07421-.08594-.0586-.10546-.04297-.08985-.0625-.08594-.0586-.10546-.04296-.08985-.0586-.08594-.0625-.07421-.0703-.10547-.04688-.08594-.0586-.10547-.04296-.08984-.0625-.10156-.04297-.10547-.04297-.08594-.0586-.10547-.04687-.10547-.04297-.10156-.04687-.08985-.0586-.10156-.04297-.10547-.04296-.08984-.0625-.11719-.02735-.13281-.01562-.13281.01562H299.75l-.13281.01563-.11719-.03125-.08984-.0586-.07422-.07422-.08985-.05859-.10156-.04688h-.14844l-.12109-.02734-.10156-.04297-.07422-.07422-.11719-.17968-.08984-.0586-.10156-.04297-.08985-.0625-.10547-.04296-.08984-.0586-.08594-.0586-.10547-.04687-.0586-.08594-.05858-.08984-.04297-.10547-.04688-.10156-.07422-.07422-.08594-.0586-.07421-.07421-.08985-.0586-.22265-.22265-.04297-.10547-.03125-.26563.10547-.04296h.14453l.10547.04296.07421.07422.08985.0586.08594.0586.10546.04687.08985.05859.14844.14844.0703.07422.14845.14843.0625.08594.07421.07422.08594.0586.07422.07421.08985.0625.08984.0586.08594.05859.26953.17578.10156.04688.10547.04296.10156.04297.04688-.07421.05859-.08594.07422-.07422.07031-.07422.10547.04297.07422.07422.0586.08984.04296.10156.04688.10547.04296.10547.1211.02735.11719-.02735.07421-.08984.04297-.10547.0586-.08985.07422-.07421.10546-.04297.1172-.02735.1328.01172.08985.0586.14844.14843.05859.08985.04297.10547.04687.10156.04297.10547.04297.10156.10547.04688.10547.04296.13281.01563.08594-.0586.0586-.08984.07421-.07422.10547-.04297.11719.02735.10547.04687.10156.04297.10547.04297.10156.04688.17969.11718v.11719l-.01563.13281.01563.13281.01562.13672.0586.08594.10156.04688.1211.02734.11718.03125h.14844l.11719-.03125.05859-.08984.17969-.1172.05859-.08983.07422-.07422.0586-.08594.11718-.17969.17969-.11719.11719.03125.08984.0586.04297.07422-.01563.1328v.1172l.08985.05859h.14843l.13282-.01563.1328-.01171.26563-.03125.10547-.04297.11719-.03125.1211-.02735.07421-.07421.07031-.07422.0625-.08985-.01562-.10547-.04688-.10156-.10156-.04297-.10547-.01562-.11718.02734-.26563.03125h-.14844l-.07421-.07422-.08985-.0586-.11719-.03124-.11718-.02735-.13282-.01562h-.14843l-.13282.01563h-.29687l-.10547-.04688-.14844-.14844-.04297-.10156-.05859-.08984.22266-.22266.08593-.0586.10547-.04296.11719-.03125.13281-.01563.13281.01563.13672.01562.10157.04297.1328-.01172.08985-.0625.10156-.04297.0625-.08984-.04687-.10156-.08984-.0586-.1172-.03125-.10155-.04296-.0586-.08985-.0625-.08984v-.11719l.01563-.13281.10547-.04688.07421-.07031v-.1211l-.08984-.05859-.03125-.11719.08985-.05859.07421-.07422.04297-.10547.0586-.08984.04687-.10156.01563-.13281v-.14844l-.04688-.10547-.04297-.10156-.08984-.0586-.13281-.01562-.10157-.04297-.13671-.01563-.1172-.03125h-.4453l-.13282-.01562-.13281-.01172-.13281-.01563-.11719-.03125h-.14844l-.13281-.01562-.13281-.01172-.26563-.03125-.1211-.04297-.08593-.0586-.07422-.07421v-.14844l.01172-.13281.10547-.04688.10156-.04296.13281-.01563h.15235l.13281-.01562h.29297l.1211.03125.10156.04296.08984.0586.23438.0625.12109-.04688.08984-.05859.10156-.04297.13282-.01562.10547.04296.10156.04688.13281.01172.1211-.02735h.14453l.12109-.03125.11719-.02734.10547-.04687.07421-.07422.08594-.0586.14844-.14843.0586-.08594.04687-.10547.02734-.11719.01563-.10547-.10156-.04296-.08985-.0586-.11719-.03125-.10546-.04297-.08985-.0625-.07422-.08594-.07422-.07421-.10156-.04297-.10547-.04688-.10156-.04297-.0586-.08984-.04687-.10156-.08594-.21094-.0625-.08594-.05859-.08984-.07422-.07422-.08594-.0586h-.26953l-.11719.03126-.08984.05859-.10156.04297-.13281.01562-.10547-.01562-.02735-.11719-.0625-.08984-.11718-.03125-.10157-.04297-.14843-.14844-.03125-.11719-.01563-.10546.07422-.07422.17969-.1172.11719-.02733.11718-.03125.13672.01562.10156.04297.10547.04297.10156.04687.10547.04297.1172.03125.1328.01563.1172.02734.1328.01563.10547-.01563.08985-.0586-.07422-.07421-.10547-.04297-.07422-.07422-.07422-.08984-.14844-.14844-.08593-.0586-.08985-.05859-.07422-.07422-.08984-.0586-.10156-.04687-.1211-.02734-.10156-.04688-.10547-.04296-.11719-.03125-.10156-.04297-.1211-.03125h-.14843l-.11719.03125-.10546.04297-.08594.0625-.17969.11718-.08594.0586-.08984.0586-.10547.04687-.08594.05859-.10547.04297-.10156.04297-.10547.04687-.07422.07422-.05859.08985-.0586.08593-.04687.10547-.0586.08594-.07421.07422-.13281-.01172-.1172-.03125h-.11718l-.07422.07422-.08984.0586-.07422.07421-.08984.0586-.08594.05859-.10547.04687-.10156.04297-.13672.01563-.10156-.04297-.14844-.14844-.10547-.04688h-.08594l-.10547.04688-.10156.04297-.1211.03125-.11718-.03125-.07422-.07422v-.11719l.03125-.1211.07422-.0703.0586-.08985.07421-.07422.11719-.03125.10547-.04296h.29297l.13281-.01563.13672-.01563.10156-.04296.08985-.0586.10156-.04687.08984-.0586.13281-.01171.08985.05859.13281.01172.08984-.0586.08594-.05859.10547-.04297.08984-.0586.08594-.0625.08985-.05859.14843-.14843.0586-.08594.05859-.08985.10547-.04296.13281-.01563.11719.02735.1211.03125.05859-.0586.05859-.08984.03125-.26563.02734-.11719.10547.01172.13281.01563.10157-.04297.08984-.0586.0586-.08984.07421-.07422.0586-.08984.04687-.10156.01172-.13281-.01172-.13282-.04687-.10547-.14844-.14843-.0586-.08985-.05859-.08594-.04297-.10546v-.44532l.01563-.1328v-.14845l.01172-.1328-.0586-.0586-.08984.0586-.10156-.04298-.17969-.11719-.08594-.05859-.0625-.08984-.0586-.08985-.07421-.07421-.08594-.0586-.1211.03125-.10155.01172-.10547.04688-.08594.05859-.10547.04297-.14844.14844-.08984.05859-.08594.0586-.08984.0625-.10547.04296-.13281.01563v-.1211l.10547-.04297.11718-.03125.07422-.0703.04297-.10548v-.14844l-.02734-.11718-.14844-.14844-.13281-.01563h-.14844l-.11719.03125-.10547.04297-.10156.04297-.08984.0625-.11719.02735-.07422-.07422.01172-.13281-.04297-.10157-.04297-.10547-.08984-.05859-.11719.02734-.1211.03125-.11718.03125-.10156.04297-.1211.03125-.10156.04297-.10547.04297-.08984.0586-.10156.01562v-.11719l.01562-.13281-.0586-.08985-.07421.04297-.14844.14844-.0586.08985-.07421.07421-.04688.10547-.04296.10156-.07422.07422-.0586.08985-.07422.07422-.05859.08593-.07422.07422-.08984.0625-.07422.07031-.07422.07422-.10156.01563-.13281.01562-.10547-.04296v-.1211l.14843-.14844.04297-.10156.0586-.08984.04687-.10156.04297-.10547.0586-.08985.03124-.11719.04297-.10156.03125-.1211.02735-.11718.04687-.10547.04297-.10156.04297-.10547.07422-.07031.08984-.0625.08985-.0586.10156-.04296h.29687l.26563-.03125.10547-.04297-.07422-.07422-.11719-.03125-.10547-.04297-.08984-.0586-.10156-.04687-.08985-.0586-.10156-.04296-.10547-.04297-.08984-.0625-.08594-.0586-.10547-.04296-.10156-.04297-.1211-.03125-.11718-.03125-.10157-.04297L297.5 410.25l-.10156-.04297-.08985-.0586-.04296-.10546-.01563-.13281.10156-.04297.13281-.01563.13672.01563.13282-.01563.10156-.04297.0586-.08984.01562-.10547-.08985-.0586-.07421-.07421-.10157-.04297-.08984-.0586-.14844-.14843-.04297-.10547-.01562-.13281v-.29297l-.0586-.08985-.08984-.05859-.07422-.07422-.04297-.10547-.03125-.11718-.0586-.08985-.07421-.07422-.11719-.02734-.07422-.07422-.08984-.0586-.08984-.0625-.08594-.05859-.07422-.07421-.0586-.08594-.04687-.10547-.08594-.0586-.14843-.14843-.19532-.0586-.1328.01563-.10157.04297-.07422.07422-.04688.10156-.04296.10547-.0586.08984-.0586.08594-.29687.29687-.08984.0586h-.08594l-.0625-.08594-.04297-.10547.03125-.11719.0586-.08984.02734-.11719-.01172-.13281-.08984-.0625-.10547.04688-.11719.02734-.11719.03125-.26953.17578-.10156.04688-.11719.02734-.10546.04687-.08985.0586-.10156.04297-.0586-.08594-.04687-.10547.01563-.13281.04687-.10547.07031-.07422.07422-.07031.0586-.08985v-.14843l-.04297-.10547h-.23829l-.10156.04687-.03125.11719-.02734.11719-.03125.1211-.07422.04296-.13281.01563-.07422-.04688-.04297-.10156-.04297-.10547-.04687-.10156-.04297-.10547-.1211.03125-.10156.04297-.13281.01562-.11719.03125-.10547.04297-.08984.0586-.10156.04687-.1211.02734-.13281.01563-.10156-.04297-.0586-.08985-.04687-.10546-.04297-.10157-.04297-.10546v-.1172l.0586-.08984.08593-.05859.17969-.11719.10156-.04687.10547-.04297.10547-.0586.10156-.04296.08985-.0625.10156-.04297.10547-.0586.10156-.04687.08984-.0586.10547-.04296.10156-.04297.08985-.0625.10156-.04297.13672-.01563.11719.03125.10156.04297.1211.03125.10156.04297.10546.04688.10157.04296.10547.04297.10156.04688.10547.04297.10156.04297.10547.04687.08594.0586.10546.04296.1172.03125.10546.04297.10156.04688.08985.0586.10547.04296.10156.04297.10547.04687.11719.02735.10156.04687.1211.02735h.14843l.08594-.0586.01562-.10156.0586-.08984-.02735-.1172-.07422-.07421-.11719-.17969-.07421-.07422-.08985-.07421-.17969-.1172-.08593-.05859-.10547-.04296-.10156-.04688-.26954-.17578-.05859-.08985-.07422-.07421-.0586-.08985-.04296-.10156-.03125-.11719-.01563-.13672v-.5625l-.01171-.1328-.01563-.13282-.03125-.11719-.01562-.13281-.01172-.13281-.03125-.1211-.22266-.22265-.0586-.08594-.01562-.10547.03125-.11719.13281-.01562v-91.41406H172.9922v1.45312l-.0586.23438-.35156 1.05078-.17187.52343-.1172.34766-.17577.41016-.11719.17187-.23438.29297-.23046.0586h-.35157l-.11718.05859-.23047.40625v.29297l.11719.17578.23046.23047.1172.23437.64062.75781.29297.46485.17578.23437.23047.35156.23437.34766.64063.8164.17578.46485.17187.41016.11719.69531.17578.46875.11719 1.39844.0586.46484v.875l.11718 1.04688v4.78125l-.0586.46484-.35156 1.28125-.17578.52344-.11328.41015-.35156.9297L172.93359 336l-.23437.58203-.11719.17578-.17187.34766-.17578.40625-.35157.8164-.0586.29297-.11327.29297-.11719.28906-.0586.17579-.11718.875-.0586.40625-.05859.11718-.0586.17579-.05859.17187-.23047.52734-.11718.17188v.23437l-.11719.23438-.0586.17187-.17577.58594v.28906l-.0586.17579v.29296l-.0586.11329-.05859.52734v.17187l-.05468.23438v2.6211l-.17578.8164-.1172.17578-.17577.23438-.1172.17187-.11327.23438-.58594.93359-.23047.28906-.29297.46485-.17578.23437-.28906.35156-.35156.69922-.11328.23047-.17579.41016-.17578.23046-.40625.52735-.8164.69922-.29297.17187-.28906.23438-.17579.11719-.17578.17578-.52344.40625-.52734.17578-.17187.17578-.23438.05469-.64062.17578h-.75782m12.21094 31.02344l-1.07422.44921.35938.89454 1.25-.71485.44531-.53906-.98047-.08985"/><path fill="#d3d3d3" fill-opacity="0" fill-rule="evenodd" d="M201.50781 416.59766h-.89453l.44922.6289.98047.35938.80469-.08985.4453-.98828-.17577.08985-.71485-.35547-.89453.35547m154.6211 59.0703l-.0586-.52343v-.29297l.11328-.29297.0586-.23046.46875-.46875h.11328l.11719-.11329.11718-.05859h.17579l.23437-.0586h.34766l.23437.0586.11719.0586.23047.17187.0586.17578.11718.58203v.29297l-.11719.17578-.17187.28906-.17579.17579-.52734.52343-.23047.23438-.11719.0586h-.17578l-.11718-.0586-.40625-.29297-.17579-.11719-.11718-.0586-.0586-.11327-.05468-.1172m6.64062-10.95702l-.0586-.17188v-1.10937l.0586-.17188.17578-.0586.17188-.05858h.17578l.23437-.0586.1172.0586.05858.69921-.05859.17188-.11719.17578-.11718.0586-.23438.52343-.11328.0586h-.23438l-.05859-.1172m9.61328-14.39062l-.11719-.17578v-.69922l.29297-.875.1172-.17187.17577-.35156.11328-.23047.1172-.29297.35155-.75781.1172-.23047.17187-.23438h.17578l.11719-.0586h.64062l.11719.0586.23437.23438.17188.11328.35156.29297.11719.11718.11328.17579v.11328l.11719.05859.11718.11719v.69922l-.05859.17578v.23047l-.0586.17578-.34765 1.05078-.11719.23047-.11719.23437-.11718.0586-.23047.23437-.64063.28906h-.875l-.41015-.11718-.64063-.46485"/><path fill="none" stroke="#bebebe" stroke-linecap="round" stroke-linejoin="round" stroke-miterlimit="10" stroke-width=".5" d="M467.95703 311.69531H144.02734v168.625h323.9297v-168.625"/><g clip-path="url(#a)"><path fill="#fff" fill-opacity="0" fill-rule="evenodd" d="M144 475.89063v4.4375h.0039H144V311.67188h.0039H144v164.21875"/></g><g clip-path="url(#b)"><path fill="#fff" fill-opacity="0" fill-rule="evenodd" d="M144.0039 480.32813V311.67188h75.44923v45.28125l-3.67579 3.53906-.76172.2539-4.4414.14454-4.4375.73046-4.4375 1.57032-1.86719 1.74218-.65234 4.4375-1.91797 2.59375-1.44531 1.84375-2.08203 4.4375 3.52734 2.9961 4.27344 1.4414-4.27344 1.8086-4.4414-.16016-2.42579 2.79297-1.125 4.4375-.2539 4.4375-.63282.5664-4.4375-.04296L180.33203 396l-.82422-.48828-4.4414-1.08203L171.98047 396l-1.35156.26953-.6836-.26953-3.7539-3.15234-4.4375 1.4375L160.05469 396l-2 4.4375-.73828 2.33203-1.9336 2.10547-.60937 4.4414-.01172 4.4375 2.55469 2.69923 4.4375.7578 4.4375.92188.19922.0586 4.23828 2.35156 4.4375.75 4.4414-2.84766.5-.2539 3.9375-.42188 4.4375-.33984 4.4375-.48828 4.4414-1.17579 4.3047-2.01171-.0547-4.4375-2.90233-4.44141 3.08984-.74219 4.4375.41016.80469.33203 1.8203 4.4414 1.8125 2.5625 4.44142-1.20312 4.4375-.48047 3.53906 3.5586.89844 1.47265 1.93359-1.47265-1.9336-1.51563-2.9453-2.92187-1.4922-.77735-4.4375-1.6289-.94921-2.03516-.84375-4.4375-2.64844-2.55078L209.55078 396l1.02344-.52344 4.4414-.35547 3.94922-3.55859.48828-.9336 2.98438-3.5039 1.45313-1.88672 2.6328-2.55469 1.8047-.88671 4.14062.88671.29688.22657 1.96875 4.21484-.48047 4.4375-.46485 4.4375-1.02344 1.15625-1.58203 3.28125 1.58203 1.51172 1.59766-1.51172 2.84375-2.66797 4.4375.26953 2.71484 2.39844 1.72266 1.83984 4.4375 1.22657 3.23438-3.06641 1.20312-.84375L259.28906 396l.10938-.23438 3.41406-4.20312 1.02344-2.97266.84375-1.46484 3.59375-3.45703 1.04297-.98438-1.04297-1.08593-1.19922 1.08593-3.23828 3.40235-2.83203-3.40235 1.57812-4.4375-3.1836-3.28515-2.67968 3.28515-1.76172 2.4375-2.90625 2-1.53125.75391-1.25-.7539-2.8086-4.4375-.3789-.29688-.57812.29687-3.85938.40235-4.4375-.23828-.42969-.16407-3.64062-4.4375-.3711-.36718-4.4375-2.78125-3.93359-1.28907 2.22656-4.4375-2.66797-4.4414-.0625-.07813-4.4375-3.46094v-45.28125h128.71094v73.73438l-1.91015 1.71875-2.52735.79297-4.4375 1.27344-4.4414.98437-4.4375 1.10938-.33594.27734.33594.41406L334.42969 396l.41797.32031 4.4414 2.98828v19.69922l-4.4414 2.96875-.76954.65235.76954 2.47265.42187 1.96875 4.01953 2.50781 3.29688-2.5078.23047-4.44141-3.52735-3.6211V399.3086l4.4375-.20312 4.4375-.26563 4.4375-1 4.4414.4922v14.5703l-4.1914.85157 4.1914 1.26562 1.58595-1.26562-1.58594-.85157v-14.5703l4.4375-.03517 4.4375-1.17187 1.28125-1.125-1.28125-4.40234-4.4375 1.72656-1.63672-1.76172-2.80078-2.73828-2.96485-1.69922-1.47656-1.14063-4.4375-.57812v-73.73438h57.69922v95.8125l-4.4375 1.71485-4.4414.02344-.08985.09375-3.85156 4.4375-.4961.49218-4.4375 1.14454-3.4414 2.80078-.9961.20703-4.4375 3.05078-1.74218 1.17969-2.69922.83984-1.42188-.83984-1.34765-4.4375-.64063-4.4375-1.02734-2.80079-4.4375 2.3711-.85938.42969.38672 4.4375-.7461 4.4375-.23827 4.4414-1.47266 4.4375 2.92969 3.58203.13672.85547-.1211 4.4375-.01562.03516-.28906-.03516-4.14844-1.98828-4.4375.60156-3.74219 1.38672-.69922.0586-.77734-.0586-3.66016-1.2539-1.46484 1.2539 1.46484 2.70313.17578 1.73437-.17578 2.42969-1.0625 2.01172 1.0625 1.90625.75 2.53125 1.69922 4.4375 1.98828 1.84765 1.05078 2.58985 3.39063 3.44922 4.4375.45312 4.4375-.1211 4.4375-1.46874 4.4375-.5664 4.4414 1.44921 2.8672-3.19531.98827-4.4375.58204-.61719 3.83593-3.82031-.19922-4.4375.80079-4.0586.35937-.3828.375-4.4375 3.70313-1.5547 4.34765-2.8828.08985-.06641 4.4414-.83204 4.4375-1.01953 4.4375-.04296 4.4375 1.6289v.41406l-3 4.35547-1.4375 2.90235-1.32031 1.53515-2.08203 4.4414-1.03516 1.22267-2.83594 3.21484-1.05468 4.4375-.54688 3.30469-.8711 1.1328.8711.96095 4.4375 2.61718 4.4375-1.82421 1.83203-1.75391 2.60547-1.66016 3.22266-2.77734 1.21875-3.75 3.8164 3.75.6211.63672 4.4375-.44922 4.4375 2.6914 1.96875 1.5586 2.46875 2.20703 2.20703-2.20703.88281-4.4375-3.08984-3.0664-4.4375.43359-4.4375 2.4453-3.04297-4.25-1.39453-1.3789-.80078-3.0586.39062-4.4414-2.33594-4.4375-1.6914-1.67969-4.4414-2.67578v-.41406l4.4414-.61719 3.4375-3.48828-3.4375-3.52734-.95703-.91016-2.41797-4.4414 1.2539-4.4375-2.3203-2.6836-1.88673-1.7539-1.69922-4.4375-.85156-.50782-4.4375-1.32421v-95.8125h17.7539v74.28515l-1.10156 1.16797 1.10157 2.51563 1.08984-2.51563-1.08984-1.16797v-74.28515h26.6289V419.8828l-4.10937 2.7461 4.10937 2.70312v8.46485l-2.02343 2.14843-2.19532 4.4375-.21875 4.21485-.01171.22265.01171.01172 4.4375 1.69922 1.7461-1.71094.46484-4.4375.47656-4.4375-2.6875-2.14844v-8.46484l2.69922-2.70312-2.69922-2.7461V311.67187h13.31641V420.3047l-1.98047 2.32422 1.98047 1.96875 2.20313-1.96875-2.20313-2.32422V311.67188h4.4336v168.65625H144.0039"/></g><path fill="#50fcfc" fill-rule="evenodd" d="M157.3164 416.45313l-2.55468-2.69922.01172-4.4375.60937-4.44141 1.9336-2.10547.73828-2.33203 2-4.4375 1.69922-1.71484 4.4375-1.4375L169.9453 396l.6836.26953L171.98047 396l3.08594-1.57031 4.4414 1.08203.82422.48828 3.61328.52344 4.4375.04297.63281-.56641.25391-4.4375 1.125-4.4375 2.42578-2.79297 4.4414.16016 4.27345-1.8086-4.27344-1.4414-3.52734-2.9961 2.08203-4.4375 1.4453-1.84375 1.91798-2.59375.65234-4.4375 1.86719-1.74218 4.4375-1.57032 4.4375-.73046 4.4414-.14454.76172-.2539 3.67578-3.53906v1.88671l-1.71484 1.65235-2.72266.90625-4.4414.69531-4.4375 2.08984-1.39453.75-1.86328 4.4375.0078 4.4375-1.1875 2.0586-2.14843 2.3789 2.14844 1.39063.79297 3.04687-.79297 1.9297-2.97266 2.51171-1.46484 1.41797-4.4414 1.83203-.65235 1.1875.65234 2.54297L193 396l-.17969.26563-4.35156 4.17187-.08594.21875-.14062-.21875-4.29688-2.41016-4.4375.00391-4.4414.03906-4.4375.03906-4.4375-1.78125-4.4375.82422-2.3672 3.28516-1.30077 4.4375-.32422 4.4414 3.375 4.4375.61719.20313 4.4375 1.35156 4.4375.26954 4.4375 1.11328 4.4414-1.45704 4.4375.69922 4.4375-1.27734 4.4375-.78125.28906-.1211 4.15235-.83984 3.02734-3.59765-3.02734-3.3125-2.96875-1.12891 2.86719-4.4375.10156-.0664.3086.0664 4.1289 1.65234 4.4375-.17187 3.14062-1.48047L207.75 396l2.82422-1.44922 4.4414-.9375 2.27735-2.05078 2.16016-4.13281.2578-.30469 3.86329-4.4414.3164-.41407 4.4375-2.27344 3.08594-1.75-2.21875-4.4375-.86719-.58593-4.4375.125-1.8164.46093-2.6211.32813-3.48828-.32813 3.39844-4.4375.08984-.02343 4.4375-4.125.16797-.28907-.16797-.27734-2.35546-4.16406-2.08203-1.65235v-1.88671l4.4375 3.46093.0625.07813 2.66796 4.4414-2.22656 4.4375 3.9336 1.28907 4.4375 2.78125.37109.36718 3.64062 4.4375.4297.16407 4.4375.23828v1.3789l-4.4375 1.0547-1.70704 1.60155 1.70703 3.4922.72656.94921-.72656 3.65625-.10156.78125.10156.22266 4.4375 3.1289L243.82031 396l2.26172 1.97656 2.9375 2.46094 1.5.71875.75781-.71875 3.6797-2.57813L257.19921 396l2.11719-4.4375.08203-.33984 2.5-4.09766-2.5-2.65625-4.4414-1.07813-4.4375 2.70704-2.23438 1.02734-2.20313.8086-1.39062-.8086.82812-4.4414-3.875-2.65626v-1.3789l3.85938-.40235.57812-.29687.3789.29687 2.8086 4.4375 1.25.75391 1.53125-.7539 2.90625-2 1.76172-2.4375 2.67969-3.28516 3.1836 3.28515-1.57813 4.4375 2.83203 3.40235 3.23828-3.40235 1.19922-1.08593 1.04297 1.08593-1.04297.98438-3.59375 3.45703-.84375 1.46484-1.02344 2.97266-3.41406 4.20313-.10938.23437-4.33203 3.59375-1.20312.84375-3.23438 3.0664-4.4375-1.22656-1.72266-1.83984-2.71484-2.39844-4.4375-.26953-2.84375 2.66797-1.59766 1.51172-1.58203-1.51172 1.58203-3.28125L233.78906 396l.46485-4.4375.48047-4.4375-1.96875-4.21484-.29688-.22657-4.14063-.88671-1.80468.88671-2.63281 2.5547-1.45313 1.88671-2.98438 3.5039-.48828.9336-3.94922 3.5586-4.4414.35546-1.02344.52344 1.02344 1.88672 2.64844 2.55078.84375 4.4375.94922 2.03516 4.4375 1.6289 1.49218.77735 2.94531 2.92187 1.9336 1.51563-1.9336 1.47265-.89843-1.47265-3.53906-3.5586-4.4375.48047-4.44141 1.20313-1.8125-2.5625-1.82031-4.44141-.8047-.33203-4.4375-.41016-3.08983.74219 2.90234 4.4414.05469 4.4375-4.3047 2.01173-4.4414 1.17578-4.4375.48828-4.4375.33984-3.9375.42188-.5.2539-4.4414 2.84766-4.4375-.75-4.23828-2.35156-.19922-.0586-4.4375-.92187-4.4375-.75781"/><path fill="#00e8fc" fill-rule="evenodd" d="M161.13672 413.7539l-3.375-4.4375.32422-4.4414 1.30078-4.4375 2.36719-3.28516 4.4375-.82421v2.69921l-4.4375 1.21094-.14453.19922-.94922 4.4375.64843 4.4414.44532.51173 4.4375 1.34375 4.37109-1.85547.0664-.09375 2.82032-4.34766-2.82031-2.60938-1.39453-1.82812-3.04297-1.41016v-2.69921l4.4375 1.78125 4.4375-.03907 4.4414-.03906 4.4375-.0039 4.29688 2.41015.14062.21875.08594-.21875 4.35156-4.17188L193 396l-.17969-1.89453-.65234-2.54297.65234-1.1875 4.4414-1.83203v3.55469L194.79298 396l-1.97266 2.91406-1.58594 1.52344 1.58594 1.92578 1.58594-1.92578 2.85547-1.90234 4.4375.4453L204.77734 396l-3.07812-3.14453-4.4375-.75781v-3.5547l1.46484-1.41796 2.97266-2.51172.79297-1.92969-.79297-3.04687-2.14844-1.39063 2.14844-2.3789 1.1875-2.0586-.00781-4.4375 1.86328-4.4375 1.39453-.75v11.07032l-2.24219 2.99218-.0664 4.4375-1.6211 4.44141 3.92969 4.01172.72656.42578 3.71094 1.44922 3.72266-1.44922.71875-.24219 3.41796-4.19531 1.01953-1.97656 2.22266-2.46485 2.21484-2.90234 2.64844-1.53516-2.64844-1.76171-4.4375 1.13671-4.4375-.89453-4.4414-1.02734-4.4375-.44531v-11.07032l4.4375-2.08984 4.4414-.69531 2.72266-.90625 1.71484-1.65235v2.07813l-4.4375 1.5664-4.4414 1.61329-1.48828.83593-1.88672 4.4375 3.375 1.82813v2.57422l-.08984.03515.08984.02344 1.53516-.02344-1.53516-.03515v-2.57422l4.4414-.50781 1.26954-1.32032 3.16797-.82812 3.65234-3.60938-3.65234-4.01562v-2.07813l2.08203 1.65235 2.35547 4.16406.16796.27734-.16797.28907-4.4375 4.125-.08984.02343-3.39844 4.4375 3.48828.32813 2.6211-.32813 1.8164-.46093 4.4375-.125.8672.58593 2.21874 4.4375-3.08594 1.75-4.4375 2.27344-.3164.41406-3.86328 4.44141-.25781.30469-2.16016 4.13281-2.27734 2.05078-4.44141.9375L207.75 396l1.52734 4.4375-3.14062 1.48047-4.4375.17187-4.1289-1.65234-.3086-.0664-.10156.0664-2.8672 4.4375 2.96876 1.1289v2.23438l-4.4414.89063-.69141.1875.6914.14062 4.4414 1.03125.98438-1.17187-.98437-1.07813v-2.23437l3.02734 3.3125-3.02734 3.59765-4.15234.83985-.28907.12109-4.4375.78125-4.4375 1.27734-4.4375-.69921-4.4414 1.45703-4.4375-1.11329-4.4375-.26953-4.4375-1.35156-.6172-.20312"/><path fill="#00d4fc" fill-rule="evenodd" d="M161.3086 409.3164l-.64844-4.4414.94922-4.4375.14453-.19922 4.4375-1.21094 3.04297 1.41016 1.39453 1.82813 2.8203 2.60937-2.8203 4.34766-.06641.09375-4.3711 1.85546-4.4375-1.34375-.4453-.51171m31.51171-6.95313l-1.58594-1.92578 1.58594-1.52344L194.79297 396l2.46875-3.90234v2.82812L196.58203 396l.67969.69531 4.4375-.5586.14062-.13671-.14062-.14453-4.4375-.92969v-2.82812l4.4375.7578L204.77734 396l-3.07812 2.98047-4.4375-.44531-2.85547 1.90234-1.58594 1.92578m0 7.09375l-.6914-.14062.6914-.1875 4.4414-.89063.98438 1.07813-.98437 1.17187-4.4414-1.03125"/><path fill="#00c4fc" fill-rule="evenodd" d="M197.26172 396.69531L196.58203 396l.67969-1.07422 4.4375.92969.14062.14453-.14062.13672-4.4375.5586"/><path fill="#00d4fc" fill-rule="evenodd" d="M206.13672 391.13672l-3.92969-4.01172 1.6211-4.4414.0664-4.4375 2.24219-2.9922 4.4375.44532v1.86719l-2.60547.67968-1.83203 1.15625-.97266 3.28125-.71094 4.44141 1.6836 1.71875 4.4375 2.64063 4.4414-1.48829 2.33985-2.87109 2.09766-4.07422.32812-.36719-.32813-.77343-4.4375-2.82813-2.55078-.83594-1.89062-.67968v-1.8672l4.4414 1.02735 4.4375.89453 4.4375-1.13671 2.64844 1.76171-2.64844 1.53516-2.21484 2.90234-2.22266 2.46485-1.01953 1.97656-3.41797 4.19531-.71875.24219-3.72265 1.44922-3.71094-1.44922-.72656-.42578"/><path fill="#00c4fc" fill-rule="evenodd" d="M206.13672 388.84375l-1.6836-1.71875.71094-4.4414.97266-3.28126 1.83203-1.15625 2.60547-.67968v2.09765l-3.69531 3.01953-.3086 4.44141 4.0039 3.04297 4.44142-1.4961 1.26171-1.54687 1.28516-4.4414-2.54688-1.89454-4.4414-1.125v-2.09765l1.89062.67968 2.55078.83594 4.4375 2.82813.32813.77343-.32813.3672-2.09765 4.07421-2.33984 2.8711-4.44141 1.48827-4.4375-2.64062"/><path fill="#00b8fc" fill-rule="evenodd" d="M210.57422 390.16797l-4.0039-3.04297.30859-4.4414 3.6953-3.01954v2.22656l-.96874.79297-1.30078 4.44141 2.26953 1.72266 4.4414-1.5.1797-.22266.07812-4.4414-.25781-.19141-4.44141-.60156v-2.22657l4.4414 1.125 2.54688 1.89453-1.28516 4.44141-1.26172 1.54688-4.4414 1.49609"/><path fill="#00d4fc" fill-rule="evenodd" d="M210.57422 371.19922l-3.375-1.82813 1.88672-4.4375 1.48828-.83593 4.4414-1.61329 4.4375-1.5664v.89453l-4.4375 1.75781-3.03125 1.36328 3.03125 3.02344 4.4375-.22265 2.83985-2.80079-2.83984-3.12109v-.89453l3.65234 4.01562-3.65234 3.60938-3.16797.82812-1.26953 1.32032-4.44141.5078"/><path fill="#00a8fc" fill-rule="evenodd" d="M210.57422 388.84766l-2.26953-1.72266 1.30078-4.4414.96875-.79298v3.79297l-.53516 1.44141.53516.40625 1.20703-.40625-1.20703-1.4414v-3.79298l4.4414.60157.25782.1914-.07813 4.44141-.17969.22266-4.4414 1.5"/><path fill="#009800" fill-rule="evenodd" d="M210.57422 387.53125l-.53516-.40625.53516-1.4414 1.20703 1.4414-1.20703.40625"/><path fill="#50fcfc" fill-rule="evenodd" d="M210.57422 373.77344l-.08984.03515.08984.02344 1.53516-.02344-1.53516-.03515"/><path fill="#00c4fc" fill-rule="evenodd" d="M215.01563 367.95703l-3.03125-3.02344 3.03125-1.36328 4.4375-1.75781v.89844l-4.4375 1.94531-.6172.27734.6172.60938 4.4375 1.38672 2.02343-1.9961-2.02344-2.22265v-.89844l2.83985 3.1211-2.83984 2.80077-4.4375.22266"/><path fill="#00b8fc" fill-rule="evenodd" d="M215.01563 365.54297l-.6172-.60938.6172-.27734 4.4375-1.94531v.89453L216.5 364.93359l2.95313 1.19141 1.20703-1.1914-1.20703-1.32813v-.89453l2.02343 2.22265-2.02344 1.9961-4.4375-1.38672"/><path fill="#00a8fc" fill-rule="evenodd" d="M219.45313 366.125L216.5 364.9336l2.95313-1.32813V364.5l-.96094.4336.96094.38671.39062-.38672-.39063-.43359v-.89453l1.20704 1.32812-1.20703 1.19141"/><path fill="#009800" fill-rule="evenodd" d="M219.45313 365.32031l-.96094-.38672.96094-.43359.39062.4336-.39063.38671"/><path fill="#00e8fc" fill-rule="evenodd" d="M237.20703 386.17578L235.5 382.6836l1.70703-1.60156 4.4375-1.05469v2.29688l-.8789.35937.8789 1.06641.52734-1.0664-.52734-.35938v-2.29688l3.875 2.65625-.82812 4.44141 1.39062.8086 2.20313-.8086 2.23437-1.02734 4.4375-2.70704v2.5547l-1.66406 1.17968-2.77344 1.08984-4.4375 3.26563-.59375.08203.59375.13672L248.125 396l2.39453 2.2461L253.62891 396l1.32812-.6836 2.88672-3.7539-.29297-4.4375-2.59375-1.17969v-2.55469l4.4414 1.07813 2.5 2.65625-2.5 4.09766-.08202.33984L257.1992 396l-2.24218 1.85938-3.67969 2.57812-.7578.71875-1.5-.71875-2.9375-2.46094L243.8203 396l-2.17578-1.08594-4.4375-3.1289-.10156-.22266.10156-.78125.72656-3.65625-.72656-.94922"/><path fill="#00d4fc" fill-rule="evenodd" d="M241.64453 383.75l-.8789-1.0664.8789-.35938.52734.35937-.52734 1.06641m4.4375 7.94922l-.59375-.13672.59375-.08203 4.4375-3.26563 2.77344-1.08984 1.66406-1.17969v2.76953l-4.4375.92188-2.57812 1.92578 2.57812 3.95703 4.4375-2.11719 1.41797-1.83984-1.41797-2.84766v-2.76953l2.59375 1.17969.29297 4.4375-2.88672 3.7539-1.32812.6836-3.10938 2.2461L248.125 396l-2.04297-4.30078"/><path fill="#00c4fc" fill-rule="evenodd" d="M250.51953 395.51953l-2.57812-3.95703 2.57812-1.92578v1.42187l-.67578.50391.67578 1.03516 4.00781-1.03516-4.0078-.5039v-1.42188l4.4375-.92188 1.41796 2.84766-1.41797 1.83984-4.4375 2.1172"/><path fill="#00b8fc" fill-rule="evenodd" d="M250.51953 392.59766l-.67578-1.03516.67578-.5039 4.00781.5039-4.0078 1.03516"/><path fill="#50fcfc" fill-rule="evenodd" d="M330.41016 391.97656l-.33594-.41406.33594-.27734 4.4375-1.10938 4.4414-.98437 4.4375-1.27344 2.52735-.79297 1.91015-1.71875v2.78125l-4.4375 1.15234-3.79297 2.22266-.64453 3.33594-.375 1.10156.375.26563 4.4375.80468 4.4375-.6289L349.3125 396l3.28906-1.3125 3.67578-3.125-3.67578-2.7539-4.4375-.6211v-2.78125l4.4375.57813 1.47656 1.14062 2.96485 1.69922 2.80078 2.73828 1.63672 1.76172 4.4375-1.72656L367.19922 396l-1.28125 1.125-4.4375 1.17188-4.4375.03515-4.4414-.49219-4.4375 1-4.4375.26563-4.4375.20312-4.44141-2.98828-.41797-.32031-4.01953-4.02344m4.4375 33.125l-.76954-2.47265.76954-.65235 4.4414-2.96875 3.52735 3.6211-.23047 4.4414-3.29688 2.50781-4.01953-2.5078-.42187-1.96876"/><path fill="#00e8fc" fill-rule="evenodd" d="M339.28906 396.26563l-.375-.26563.375-1.10156.64453-3.33594 3.79297-2.22266 4.4375-1.15234v3.0586l-2.73437.3164 2.73437.46094 1.32031-.46094-1.3203-.3164v-3.0586l4.4375.6211 3.67577 2.7539-3.67578 3.125L349.3125 396l-1.14844.4414-4.4375.62891-4.4375-.80469"/><path fill="#00d4fc" fill-rule="evenodd" d="M348.16406 392.02344l-2.73437-.46094 2.73437-.3164 1.32031.3164-1.3203.46094"/><path fill="#50fcfc" fill-rule="evenodd" d="M348.16406 443.08594l-1.46484-2.70313 1.46484-1.2539 3.66016 1.2539.77734.0586.69922-.0586 3.74219-1.38672 4.4375-.60156 4.14844 1.98828.28906.03516.01562-.03516.1211-4.4375-.13672-.85547-2.92969-3.58203 1.47266-4.4375.23828-4.4414.7461-4.4375-.38673-4.4375.85938-.4297 4.4375-2.37108 1.02734 2.80078.64063 4.4375 1.34765 4.4375 1.42188.83984 2.69922-.83984 1.74219-1.1797 4.4375-3.05077.99609-.20703 3.4414-2.80079 4.4375-1.14453.4961-.49218 3.85156-4.4375.08985-.09375v2.45703l-1.82422 2.07422-2.61329 2.59765-4.4375 1.51563-.39843.32422-4.03906.83984-3.91797 3.59766-.51954.37109-4.4414 2.72656-4.4375-2.53906-3.03125 3.88281-1.35156 4.4375.73437 4.4375-.28515 4.4375-.50391 1.13281-4.4375-.24218-4.4375.02344-4.4414.21484-3.22266 3.3086 1.7539 4.4414 1.46875 3.69922.1875.73828.82031 4.4375L356 462.57422l1.04297 1.0586 4.4375 1.73437 4.4375-.35938 3.73828-2.4336.69922-.46093 4.4375-.50781 3.38672.96875 1.05469.50781.45312-.50781 2.48828-4.4375 1.4961-1.58203 2.86718-2.85547-.58594-4.4375-2.28125-3.46094-.70703-.98047-3.73046-2.94531-.87891-1.49219-.51563-4.4375 1.39454-1.38281v.99219l-.39454.39062.20704 4.4375.1875.32031 3.1953-.3203-1.53906-4.4375-1.65625-.39063v-.99219l4.4375 1.02734 1.82813.35547 2.60938 1.57422 4.4375-1.09375.72265-.48047 3.71485-2.65234 4.4414.0039 3.3164-1.78906 1.1211-1.4375 3.7539-3-3.7539-1.58984-4.4375-2.1289-1.33984-.72266-3.10156-2.85938-2.19141-1.57812 2.1914-2.20704 4.44141-1.35156 2.92578-.8789-2.92578-1.28516-4.4414-.78906v-2.45703l4.4414-.02344 4.4375-1.71485v8.97266l-4.4375.3789-3.58594 1.35548 3.58594 2.8828 2.35938 1.5547 2.07812.64453 4.4375-.25 1.44922-.39453.01953-4.4375-1.46875-1.59375-4.4375-.14063v-8.97265l4.4375 1.32421.85156.50782 1.69922 4.4375 1.88672 1.7539v8.96875l-3.98437 2.59375 3.98437 2.64844 1.67578 1.78906 2.76563 1.96875 1.9414-1.96875-1.9414-1.99219-2.57031-2.4453-1.8711-2.59376v-8.96875l2.32031 2.6836-1.2539 4.4375 2.41797 4.4414.95703.91016 3.4375 3.52734-3.4375 3.48828-4.4414.6172-4.4375-1.62892-4.4375.04297-4.4375 1.01954-4.44142.83203-.08984.0664-4.34765 2.88281-3.70313 1.5547-.375 4.4375-.35938.3828-.80078 4.0586.19922 4.4375-3.83594 3.82031-.58203.61719-.98828 4.4375-2.86719 3.19531-4.4414-1.44922-4.4375.5664-4.4375 1.46876-4.4375.1211-4.4375-.45313-3.39063-3.44922-1.05078-2.58985-1.98828-1.84765-1.69922-4.4375-.75-2.53125-1.0625-1.90625 1.0625-2.01172.17578-2.42969-.17578-1.73437"/><path fill="#00e8fc" fill-rule="evenodd" d="M351.13281 449.26172l-1.7539-4.4414 3.22265-3.3086 4.4414-.21485 4.4375-.02343 4.4375.24219.50392-1.13282.28515-4.4375-.73437-4.4375 1.35156-4.4375 3.03125-3.88281 4.4375 2.53906L379.23437 423l.51954-.3711 3.91796-3.59765 4.03907-.83984.39844-.32422v.67969l-4.4375 1.53515-2.77344 2.54688-1.66406 1.17968-3.82813 3.26172-.61328.92188-4.4375-.83594-3.67969 4.35156 1.1211 4.4375-.5586 4.4375-1.32031 2.96094-4.4375.59375-4.4375-.47266-4.4414-.17578-1.4922 1.53125 1.4922 2.38281 4.4414.62891 4.4375.19922 4.4375.77344.23437.45703-.23437.65625-4.4375.45312-4.4375 1.73829-.60547 1.58984-.36719 4.4375.97266 1.55078 2.61719 2.88672 1.8203.9414 4.4375-.76171.27345-.1797 4.16406-2.75 4.4375-.90233 4.4414 1.48828 1.41797-2.27344 3.01954-3.19531 1.25-1.2422-1.22657-4.4375-.02344-.03905-3.18359-4.40235-1.2539-.98828-2.02735-3.44922-1.03125-4.4375 3.0586-3.03125 4.4375.90235 4.4375.52343 2.46484-2.83203 1.78515-4.4375.1875-.48828v4.8164l-.01562.10938.01563.3164.09765-.3164-.09765-.10937v-4.8164l1.7578.48827 2.6797 2.76953 4.4414.48829 2.89844-3.25782-2.89844-1.92578-4.4414-2.20703-.0586-.3086-4.3789-4.0625-4.4375-.01952v-.6797l4.4375-1.51562 2.61328-2.59765 1.82421-2.07422 4.44141.78906 2.92578 1.28516-2.92578.8789-4.4414 1.35156-2.19141 2.20704 2.1914 1.57812 3.10157 2.85938 1.33984.72265 4.4375 2.1289 3.7539 1.58985-3.7539 3-1.1211 1.4375-3.3164 1.78906-4.4414-.0039-3.71485 2.65234-.72265.48047-4.4375 1.09375-2.60938-1.57422-1.82813-.35547-4.4375-1.02734-1.39453 1.38281.51563 4.4375.8789 1.49219 3.73047 2.94531.70704.98047 2.28125 3.46094.58593 4.4375-2.86719 2.85547-1.49609 1.58203-2.48828 4.4375-.45313.50781-1.05468-.50781-3.38672-.96875-4.4375.50781-.69922.46094-3.73828 2.4336-4.4375.35937-4.4375-1.73438L356 462.57421l-2.39063-4.4375-.8203-4.4375-.1875-.73827-1.46876-3.69922"/><path fill="#00d4fc" fill-rule="evenodd" d="M352.60156 447.20313l-1.49219-2.38282 1.4922-1.53125 4.4414.17578 4.4375.47266 4.4375-.59375 1.32031-2.96094.5586-4.4375-1.1211-4.4375 3.67969-4.35156 4.4375.83594.61328-.92188 3.82813-3.26172 1.66406-1.17968 2.77344-2.54688 4.4375-1.53515v.3828l-4.4375 2.20704-1.62891 1.49219-2.8086 1.99218-2.875 2.44922-1.5664 2.36328-4.4375-1.4414-2.97266 3.51562 1.5039 4.4375-.83593 4.4375-1.3125 4.4375 1.9414 4.4414.19141 4.4375-2.95312 3.94923-4.4375.03906-.46094.44922.46094.55469 4.4375-.29297.80078-.26172 3.63672-2.34766 4.4375.66406 4.4414 1.30079 3.39063-4.0547-.67188-4.4375-2.71875-3.375-1.01953-1.0664-2.15625-4.4375-1.26562-3.85156-.49219-.58594.49219-.46484 4.03125-3.97266.41015-.20703 1.44141.20703 2.9961.53516 4.4375.05078.5078-.58594 3.44141-4.4375.48829-1.2539 3.53125-3.1875-3.53125-3.27344-4.4375-.42578v-.38281l4.4375.01953 4.3789 4.0625.0586.30859 4.4414 2.20703v1.79688l-3.17578.1289 3.17578.21485.1914-.21485-.1914-.1289v-1.79688l2.89844 1.92578-2.89844 3.25781-4.4414-.48828-2.6797-2.76953-1.7578-.48828-.1875.48828-1.78516 4.4375-2.46485 2.83203-4.4375-.52343-4.4375-.90235-3.05859 3.03125 1.03125 4.4375 2.02735 3.44922 1.2539.98828 3.1836 4.40235.02343.03906 1.22656 4.4375-1.25 1.24219-3.01953 3.1953-1.41796 2.27345-4.44141-1.48829-4.4375.90235-4.16406 2.75-.27344.17969-4.4375.76171-1.82031-.9414-2.6172-2.88672-.97265-1.55078.36719-4.4375.60547-1.58985 4.4375-1.73828 4.4375-.45312.23437-.65625-.23437-.45703-4.4375-.77344-4.4375-.19922-4.4414-.6289"/><path fill="#50fcfc" fill-rule="evenodd" d="M357.04297 415.01953l-4.1914-1.26562 4.1914-.85157 1.58594.85157-1.58594 1.26562"/><path fill="#00c4fc" fill-rule="evenodd" d="M361.48047 458.6914l-.46094-.55468.46094-.44922 4.4375-.03906 2.95312-3.94922-.1914-4.4375-1.9414-4.4414 1.3125-4.4375.83593-4.4375-1.5039-4.4375 2.97265-3.51563 4.4375 1.4414 1.5664-2.36328 2.875-2.44922 2.8086-1.99218 1.6289-1.4922 4.4375-2.20702v.38281l-4.4375 2.875-.48437.4414-3.95313 2.80079-1.92578 1.64062-2.51562 3.80078-4.4375-2.04296-2.26563 2.67968 1.88672 4.4375-1.10937 4.4375 1.48828 4.10156.82812.33594 3.60938.75v1.13672l-3.42578 2.55469 3.42578 2.92969 2.61719-2.9297-2.6172-2.55468v-1.13672l3.78126 3.6914-3.78125 4.23438-.74219.20313.74219.36719 1.63672-.3672 2.80469-1.41405.98046-3.02344-.98046-1.21875-3.08204-3.22266-1.24218-4.4375-.1172-.35547-3.41796-4.08203 3.41797-3.21875 1.23828-1.21875 3.20313-1.60547 4.4375 1.50391 4.4375-.15234 3.64843-4.1836.78906-2.01953 2.6836-2.42187-2.6836-2.48829-4.4375-.82812v-.38281l4.4375.42578 3.53125 3.27344-3.53125 3.1875-.48828 1.2539-3.4414 4.4375-.50781.58594-4.4375-.05078-2.9961-.53516-1.4414-.20703-.41016.20703-4.03125 3.97266-.49219.46484.49219.58594 1.26562 3.85156 2.15625 4.4375 1.01954 1.0664 2.71875 3.375.67187 4.4375-3.39063 4.0547-4.4414-1.30079-4.4375-.66406-3.63672 2.34766-.80078.26172-4.4375.29297"/><path fill="#00b8fc" fill-rule="evenodd" d="M369.97656 435.94531l-1.88672-4.4375 2.26563-2.67969v.83594l-1.5586 1.84375 1.5586 3.42578v2.96485l-.67578 2.48437.67578 1.85938 2.13281-1.85938-2.13281-2.48437v-2.96485l3.54297-3.42578-3.54297-1.84375v-.83594l4.4375 2.04297 2.51562-3.80078 1.92579-1.64062 3.95312-2.80078.48438-.44141 4.4375-2.875v.38281l-4.125 2.9336-.3125.08593-4.4375 3.52735-.97266.82812.97265 1.42969 4.4375 2.76172 4.4375-.35156 3.35157-3.83985 1.08594-2.78515 1.83203-1.65625-1.83204-1.69922-4.4375-1.23438v-.38281l4.4375.82813 2.6836 2.48828-2.6836 2.42187-.78906 2.01953-3.64844 4.1836-4.4375.15234-4.4375-1.5039-3.20312 1.60546-1.23828 1.21875-3.41797 3.21875 3.41797 4.08203.11719.35547 1.24218 4.4375 3.08204 3.22266.98046 1.21875-.98046 3.02344-2.8047 1.41406-1.63671.36719-.74219-.3672.74219-.20312 3.78125-4.23437-3.78125-3.6914-3.60938-.75-.82812-.33594-1.48828-4.10157 1.10937-4.4375"/><path fill="#00a8fc" fill-rule="evenodd" d="M370.35547 434.9336l-1.5586-3.42579 1.5586-1.84375V430.5l-.85156 1.00781.85156 1.8711 1.9336-1.8711-1.9336-1.00781v-.83594l3.54297 1.84375-3.54297 3.42578"/><path fill="#009800" fill-rule="evenodd" d="M370.35547 433.3789l-.85156-1.87109.85156-1.00781v.83594l-.14453.17187.14453.3164.32812-.3164-.32812-.17187V430.5l1.9336 1.00781-1.9336 1.8711"/><path fill="#00a8fc" fill-rule="evenodd" d="M370.35547 442.24219l-.67578-1.85938.67578-2.48437 2.13281 2.48437-2.13281 1.85938"/><path fill="#00ac00" fill-rule="evenodd" d="M370.35547 431.82422l-.14453-.3164.14453-.17188.32812.17187-.32812.3164"/><path fill="#00d4fc" fill-rule="evenodd" d="M374.79297 446.70703l-3.42578 2.55469 3.42578 2.92969 2.61719-2.9297-2.6172-2.55468v1.13672l1.45313 1.41797-1.45312 1.625-1.90235-1.625 1.90235-1.41797v-1.13672"/><path fill="#00e8fc" fill-rule="evenodd" d="M374.79297 447.84375l-1.90235 1.41797 1.90235 1.625 1.45312-1.625-1.45312-1.41797v1.13672l.28906.28125-.28906.32031-.375-.32031.375-.28125v-1.13672"/><path fill="#50fcfc" fill-rule="evenodd" d="M374.79297 448.98047l-.375.28125.375.32031.28906-.32031-.28906-.28125"/><path fill="#00a8fc" fill-rule="evenodd" d="M379.23438 428.5l-.97266-1.42969.97265-.82812 4.4375-3.52735.3125-.08593 4.125-2.9336v.38281l-3.58593 2.55079-.85156.23828-4.4375 4.1836-.02344.01952.02344.02735 4.4375 4.01953 4.4375-.55078 3.05078-3.4961 1.38671-3.55078.98438-.89062-.98438-.91407-4.4375-1.63671v-.38282l4.4375 1.23438 1.83204 1.69922-1.83204 1.65625-1.08593 2.78515-3.35156 3.83985-4.4375.35156-4.4375-2.76172"/><path fill="#fff" fill-opacity="0" fill-rule="evenodd" d="M379.23438 435.55469l-.39454.39062.20704 4.4375.1875.32031 3.1953-.3203-1.53906-4.4375-1.65625-.39063"/><path fill="#009800" fill-rule="evenodd" d="M379.23438 427.09766l-.02344-.02735.02344-.01953 4.4375-4.1836.85156-.23827 3.58594-2.55079v.38672l-3.04688 2.16407-1.39063.38671-4.28515 4.0547 4.28515 3.90234 4.4375-.75 2.75391-3.15235 1.6836-4.3164.13671-.125-.13671-.125-4.4375-2.03907v-.38671l4.4375 1.63671.98437.91407-.98438.89062-1.38671 3.55078-3.05079 3.4961-4.4375.55078-4.4375-4.01953"/><path fill="#00ac00" fill-rule="evenodd" d="M383.67188 430.97266l-4.28516-3.90235 4.28515-4.05469 1.39063-.38671 3.04688-2.16407v.38282l-2.50782 1.78125-1.92969.53515-4.125 3.90625 4.125 3.76172 4.4375-.94922 2.45313-2.8125 1.30469-4.4414-3.75781-1.78125v-.38282l4.4375 2.03907.13671.125-.13671.125-1.6836 4.3164-2.7539 3.15235-4.4375.75"/><path fill="#00c800" fill-rule="evenodd" d="M383.67188 430.83203l-4.125-3.76172 4.125-3.90625 1.92968-.53515 2.50781-1.78125v.76562l-1.42968 1.01563-3.00781.83593-3.8125 3.60547 3.8125 3.47266 4.4375-1.34766 1.85546-2.125.28516-4.4414-2.14063-1.01563v-.76562l3.75782 1.78125-1.30469 4.4414-2.45313 2.8125-4.4375.94922"/><path fill="#10cc00" fill-rule="evenodd" d="M383.67188 430.54297l-3.8125-3.47266 3.8125-3.60547 3.0078-.83593 1.4297-1.01563v.76953l-.34766.2461-4.08985 1.1328-3.49609 3.3086 3.4961 3.1836 4.4375-1.7461 1.2578-1.4375-.73437-4.4414-.52344-.2461v-.76953l2.14063 1.01563-.28516 4.4414-1.85546 2.125-4.4375 1.34766"/><path fill="#24d000" fill-rule="evenodd" d="M383.67188 430.2539l-3.4961-3.18359 3.4961-3.3086v.30079l-3.1797 3.00781 3.1797 2.89453 4.4375-2.14062.66015-.7539-.66015-2.75-4.4375-.25782v-.30078l4.08984-1.13281.34765-.2461.52344.2461.73438 4.4414-1.25781 1.4375-4.4375 1.7461"/><path fill="#3cd800" fill-rule="evenodd" d="M383.67188 429.96484l-3.1797-2.89453 3.1797-3.00781v.29688l-2.86329 2.71093 2.86329 2.60938 4.4375-2.54297.0625-.0664-.0625-.25391-4.4375-2.45704v-.29687l4.4375.25781.66015 2.75-.66015.7539-4.4375 2.14063"/><path fill="#54dc00" fill-rule="evenodd" d="M383.67188 429.67969l-2.86329-2.60938 2.86329-2.71094v.30079l-2.54688 2.41015 2.54688 2.32031 3.99218-2.3203-3.99219-2.41016v-.30079l4.4375 2.45704.0625.2539-.0625.0664-4.4375 2.54298"/><path fill="#e8e05c" fill-rule="evenodd" d="M383.67188 429.39063l-2.54688-2.32032 2.54688-2.41015v.29687l-2.23047 2.11328 2.23046 2.03125 3.4961-2.03125-3.4961-2.11328v-.29687l3.9922 2.41015-3.9922 2.32031"/><path fill="#e8d450" fill-rule="evenodd" d="M383.67188 429.10156l-2.23047-2.03125 2.23046-2.11328v.59766l-1.59765 1.51562 1.59765 1.45703 2.50391-1.45703-2.5039-1.51562v-.59766l3.49609 2.11328-3.4961 2.03125"/><path fill="#e8b830" fill-rule="evenodd" d="M383.67188 428.52734l-1.59766-1.45703 1.59765-1.51562v.59765l-.96875.91797.96875.8789 1.51563-.8789-1.51563-.91797v-.59765l2.50391 1.51562-2.5039 1.45703"/><path fill="#e8a824" fill-rule="evenodd" d="M383.67188 427.94922l-.96875-.8789.96875-.91798v.59766l-.33594.32031.33594.30469.52343-.30469-.52344-.32031v-.59766l1.51563.91797-1.51563.8789"/><path fill="#d87c08" fill-rule="evenodd" d="M383.67188 427.375l-.33594-.30469.33594-.32031.52343.32031-.52344.30469"/><path fill="#50fcfc" fill-rule="evenodd" d="M392.54688 431.39844l-.01563.10937.01563.3164.09765-.3164-.09765-.10937"/><path fill="#fff" fill-opacity="0" fill-rule="evenodd" d="M401.42578 416.83594l-3.58594 1.35547 3.58594 2.8828 2.35938 1.5547 2.07812.64453 4.4375-.25 1.44922-.39453.01953-4.4375-1.46875-1.59375-4.4375-.14063-4.4375.3789"/><path fill="#00c4fc" fill-rule="evenodd" d="M401.42578 427.28516l-3.17578-.21485 3.17578-.1289.1914.1289-.1914.21485"/><path fill="#50fcfc" fill-rule="evenodd" d="M401.42578 463.53516l-.8711-.96094.8711-1.13281.54688-3.3047 1.05468-4.4375 2.83594-3.21483 1.03516-1.22266 2.08203-4.4414 1.32031-1.53516 1.4375-2.90235 3-4.35547v4.50391l-3.2539 4.28906-1.1836 2.84375-1.02344 1.59766-3.41406 4.03515-.35547.40235-2.30078 4.4375-.33203 4.4375 2.98828 2.27734 3.32813-2.27734L410.30078 462l4.42969-3.86328-1.60547-4.4375 1.61328-.76563 4.4414-.8125 2.28516-2.85937.78516-4.4414-3.07031-3.71876-4.4414-.57031v-4.5039l4.4414 2.67577 1.6914 1.6797 2.33594 4.4375-.39062 4.4414.80078 3.0586 1.39453 1.3789 3.04297 4.25 4.4375-2.44531 4.4375-.4336v2.17188l-4.1211.89453 4.1211 2.42969.90234-2.4297-.90234-.89452v-2.17188l3.08984 3.0664-.88281 4.4375-2.20703 2.20704-2.46875-2.20703-1.96875-1.5586-4.4375-2.6914-4.4375.44922-.6211-.63672-3.8164-3.75-1.21875 3.75-3.22266 2.77734-2.60547 1.66016-1.83203 1.7539-4.4375 1.82422-4.4375-2.61718"/><path fill="#00e8fc" fill-rule="evenodd" d="M405.86328 464.85156l-2.98828-2.27734.33203-4.4375 2.30078-4.4375.35547-.40235 3.41406-4.03515 1.02344-1.59766v7.30469l-4.4375 2.08594-.60547 1.08203.46875 4.4375.13672.10547.14844-.10547 4.28906-2.21875 2.54688-2.21875-2.54688-3.16797v-7.30469l1.1836-2.84375 3.2539-4.28906 4.4414.57031v1.9336l-4.4414.89453-.67578.89062-.48438 4.4414 1.16016.76173 4.4414-.72656.02735-.03516 1.44922-4.4414-1.47656-1.78516v-1.9336l3.07031 3.71875-.78516 4.4414-2.28515 2.85938-4.4414.8125-1.61329.76563 1.60547 4.4375L410.30078 462l-1.10937.57422-3.32813 2.27734"/><path fill="#00d4fc" fill-rule="evenodd" d="M405.72656 462.57422l-.46875-4.4375.60547-1.08203 4.4375-2.08594v2.34766l-1.46875.8203 1.46875.57423.66016-.57422-.66016-.82031v-2.34766l2.54688 3.16797-2.54688 2.21875-4.28906 2.21875-.14844.10547-.13672-.10547"/><path fill="#00c4fc" fill-rule="evenodd" d="M410.30078 458.71094l-1.46875-.57422 1.46875-.82031.66016.8203-.66016.57423"/><path fill="#00e8fc" fill-rule="evenodd" d="M414.73828 429.71875l-3.98437-2.64844 3.98437-2.59375 1.8711 2.59375 2.5703 2.44531 1.94141 1.9922-1.9414 1.96874-2.76563-1.96875-1.67578-1.78906"/><path fill="#00d4fc" fill-rule="evenodd" d="M414.73828 450.02344l-1.16015-.76172.48437-4.4414.67578-.89063 4.4414-.89453 1.47657 1.78515-1.44922 4.4414-.02734.03517-4.4414.72656"/><path fill="#50fcfc" fill-rule="evenodd" d="M423.61719 389.64063l-1.10156-2.51563 1.10156-1.16797 1.08984 1.16797-1.08984 2.51563"/><path fill="#00e8fc" fill-rule="evenodd" d="M436.92969 460.5664l-4.1211-2.42968 4.1211-.89453.90234.89453-.90234 2.42969"/><path fill="#50fcfc" fill-rule="evenodd" d="M445.8086 444.83203l-.01173-.01172.01172-.22265.21875-4.21485 2.19532-4.4375 2.02343-2.14844 2.6875 2.14844-.47656 4.4375-.46484 4.4375-1.7461 1.71094-4.4375-1.69922m4.4375-19.5l-4.10937-2.70312 4.10937-2.7461v2.65625l-.13671.08985.13671.09375.08985-.09375-.08985-.08985v-2.65625l2.69922 2.7461-2.69922 2.70312"/><path fill="#00e8fc" fill-rule="evenodd" d="M450.2461 422.72266l-.13673-.09375.13672-.08985.08985.08985-.08985.09375"/><path fill="#50fcfc" fill-rule="evenodd" d="M463.5625 424.59766l-1.98047-1.96875 1.98047-2.32422 2.20313 2.32422-2.20313 1.96875"/><g clip-path="url(#c)"><path fill="#fff" fill-opacity="0" fill-rule="evenodd" d="M467.9961 480.32813H468V311.67188h-.0039H468v168.65625h-.0039"/></g><path fill="#fff" fill-opacity="0" fill-rule="evenodd" d="M405.1211 412.07422l5.34765 2.34765 4.0039-9.12109-5.34765-2.34765-4.0039 9.12109"/><path fill-rule="evenodd" d="M411.59375 406.03906l.46484.20313-2.53125 5.76562-.71875-.3164 1.8047-4.11329-1.27345-.55859.22657-.50781.53906.16406.25.05469.2461.01172.24218-.05078.2461-.1211.24609-.21094.25781-.3203"/><path fill="#fff" fill-opacity="0" fill-rule="evenodd" d="M218.39453 368.15234l2.2461 5.39454 9.1953-3.82813-2.24609-5.39453-9.1953 3.82812"/><path fill-rule="evenodd" d="M227.24219 368.26172l.19531.46875-5.8125 2.41797-.30078-.72656 4.14453-1.72657-.53516-1.28125.51563-.21094.27344.4922.14843.21093.16797.17578.21094.13281.26172.08204.32422.01562.40625-.05078"/><path fill="#fff" fill-opacity="0" fill-rule="evenodd" d="M235.70313 403.70703l5.49609-1.98828-3.38672-9.36719-5.49219 1.98828 3.38281 9.3672"/><path fill-rule="evenodd" d="M236.23438 394.8711l.47656-.17188 2.14062 5.92187-.74219.26563-1.52343-4.22266-1.3086.47266-.1875-.52344.50391-.25.21875-.13672.1875-.16015.14063-.20313.09375-.25781.03125-.32422-.03125-.41016"/><path fill="#fff" fill-opacity="0" fill-rule="evenodd" d="M190.3789 422.5586l5.7422-1.07423-1.82423-9.78906-5.74218 1.07031 1.82422 9.79297"/><path fill-rule="evenodd" d="M192.32813 413.92578l.5039-.09375 1.15234 6.1875-.77343.14453-.82422-4.41406-1.36328.2539-.10156-.54296.53906-.16797.23828-.09766.20703-.13281.17578-.17578.13281-.23828.08203-.3164.03125-.40626"/><path fill="#fff" fill-opacity="0" fill-rule="evenodd" d="M386.26172 440.74219l7.39062-2.85547-3.67187-9.50781-7.39453 2.85546 3.67578 9.50782"/><path fill-rule="evenodd" d="M385.5625 432.05078l3.0664-1.1836.26563.69141-2.46094.94922.4336 1.76953.15625-.23437.20312-.22266.26953-.19922.34375-.16796.3125-.08985.34766-.04297.36328.01563.36719.08984.35937.17188.17188.12109.16406.14453.15235.17188.14453.19921.1289.22657.11328.26172.12891.42578.05078.42578-.01953.42187-.10156.40235-.1836.375-.125.17187-.14843.16406-.16797.14844-.1914.13672-.21485.1211-.23828.10546-.44922.13672-.41016.04688-.3711-.03125-.33202-.10156-.30079-.16016-.26953-.21875-.23437-.26172-.21094-.30078.73438-.28125.15625.1875.17187.15625.17969.125.1914.08984.19922.05469.21094.01953.21485-.02734.22656-.0625.28125-.13672.23828-.16797.1836-.19922.1328-.23047.07813-.26172.01953-.28906-.04297-.3164-.10547-.33985-.11328-.23828-.14844-.22266-.1875-.1953-.21875-.16017-.25-.11328-.27734-.05468-.30469.01171-.32812.08985-.30078.15625-.22266.20312-.1875.26954-.19531.36718-.64844.25-.80078-3.36328"/><g clip-path="url(#d)"><path fill="none" stroke="#000" stroke-linecap="round" stroke-linejoin="round" stroke-miterlimit="10" stroke-width=".5" d="M146.6914 482.58594l-5.3828-4.51172"/></g><g clip-path="url(#e)"><path fill="none" stroke="#000" stroke-linecap="round" stroke-linejoin="round" stroke-miterlimit="10" stroke-width=".5" d="M159.9336 482.67188l-5.23829-4.6836"/></g><g clip-path="url(#f)"><path fill="none" stroke="#000" stroke-linecap="round" stroke-linejoin="round" stroke-miterlimit="10" stroke-width=".5" d="M173.29297 482.6211l-5.32422-4.58594"/></g><g clip-path="url(#g)"><path fill="none" stroke="#000" stroke-linecap="round" stroke-linejoin="round" stroke-miterlimit="10" stroke-width=".5" d="M186.4375 482.8086l-4.98438-4.95704"/></g><g clip-path="url(#h)"><path fill="none" stroke="#000" stroke-linecap="round" stroke-linejoin="round" stroke-miterlimit="10" stroke-width=".5" d="M199.86719 482.6836l-5.21485-4.71094"/></g><g clip-path="url(#i)"><path fill="none" stroke="#000" stroke-linecap="round" stroke-linejoin="round" stroke-miterlimit="10" stroke-width=".5" d="M213.45703 482.33984l-5.76172-4.02343"/></g><g clip-path="url(#j)"><path fill="none" stroke="#000" stroke-linecap="round" stroke-linejoin="round" stroke-miterlimit="10" stroke-width=".5" d="M226.92578 482.10156l-6.07031-3.54297"/></g><g clip-path="url(#k)"><path fill="none" stroke="#000" stroke-linecap="round" stroke-linejoin="round" stroke-miterlimit="10" stroke-width=".5" d="M240.01172 482.4414l-5.61328-4.22656"/></g><g clip-path="url(#l)"><path fill="none" stroke="#000" stroke-linecap="round" stroke-linejoin="round" stroke-miterlimit="10" stroke-width=".5" d="M253.04297 482.77734L248 477.88281"/></g><g clip-path="url(#m)"><path fill="none" stroke="#000" stroke-linecap="round" stroke-linejoin="round" stroke-miterlimit="10" stroke-width=".5" d="M266.22266 482.91016l-4.77344-5.16016"/></g><g clip-path="url(#n)"><path fill="none" stroke="#000" stroke-linecap="round" stroke-linejoin="round" stroke-miterlimit="10" stroke-width=".5" d="M280.03906 482.32813l-5.77734-3.9961"/></g><g clip-path="url(#o)"><path fill="none" stroke="#000" stroke-linecap="round" stroke-linejoin="round" stroke-miterlimit="10" stroke-width=".5" d="M293.01172 482.75l-5.08985-4.84375"/></g><g clip-path="url(#p)"><path fill="none" stroke="#000" stroke-linecap="round" stroke-linejoin="round" stroke-miterlimit="10" stroke-width=".5" d="M306.4375 482.6289l-5.3125-4.59765"/></g><g clip-path="url(#q)"><path fill="none" stroke="#000" stroke-linecap="round" stroke-linejoin="round" stroke-miterlimit="10" stroke-width=".5" d="M319.82422 482.54297l-5.45703-4.42969"/></g><g clip-path="url(#r)"><path fill="none" stroke="#000" stroke-linecap="round" stroke-linejoin="round" stroke-miterlimit="10" stroke-width=".5" d="M332.11328 483.40234l-3.40625-6.14843"/></g><g clip-path="url(#s)"><path fill="none" stroke="#000" stroke-linecap="round" stroke-linejoin="round" stroke-miterlimit="10" stroke-width=".5" d="M345.21875 483.51172l-2.98438-6.36328"/></g><g clip-path="url(#t)"><path fill="none" stroke="#000" stroke-linecap="round" stroke-linejoin="round" stroke-miterlimit="10" stroke-width=".5" d="M359.48047 482.85938l-4.8789-5.0586"/></g><g clip-path="url(#u)"><path fill="none" stroke="#000" stroke-linecap="round" stroke-linejoin="round" stroke-miterlimit="10" stroke-width=".5" d="M373.42578 482.03906l-6.13672-3.42187"/></g><g clip-path="url(#v)"><path fill="none" stroke="#000" stroke-linecap="round" stroke-linejoin="round" stroke-miterlimit="10" stroke-width=".5" d="M386.60156 482.26953l-5.85937-3.88281"/></g><g clip-path="url(#w)"><path fill="none" stroke="#000" stroke-linecap="round" stroke-linejoin="round" stroke-miterlimit="10" stroke-width=".5" d="M396.08984 483.72656l1.79297-6.79297"/></g><g clip-path="url(#x)"><path fill="none" stroke="#000" stroke-linecap="round" stroke-linejoin="round" stroke-miterlimit="10" stroke-width=".5" d="M408.97266 483.58203l2.65625-6.50781"/></g><g clip-path="url(#y)"><path fill="none" stroke="#000" stroke-linecap="round" stroke-linejoin="round" stroke-miterlimit="10" stroke-width=".5" d="M422.33984 483.60156l2.55079-6.54687"/></g><g clip-path="url(#z)"><path fill="none" stroke="#000" stroke-linecap="round" stroke-linejoin="round" stroke-miterlimit="10" stroke-width=".5" d="M437.85938 483.71875l-1.85547-6.77734"/></g><g clip-path="url(#A)"><path fill="none" stroke="#000" stroke-linecap="round" stroke-linejoin="round" stroke-miterlimit="10" stroke-width=".5" d="M451.1875 483.71484l-1.88281-6.76953"/></g><g clip-path="url(#B)"><path fill="none" stroke="#000" stroke-linecap="round" stroke-linejoin="round" stroke-miterlimit="10" stroke-width=".5" d="M463.35547 483.83594l.41406-7.01563"/></g><g clip-path="url(#C)"><path fill="none" stroke="#000" stroke-linecap="round" stroke-linejoin="round" stroke-miterlimit="10" stroke-width=".5" d="M146.47266 469.51172l-4.94532-4.9961"/></g><path fill="none" stroke="#000" stroke-linecap="round" stroke-linejoin="round" stroke-miterlimit="10" stroke-width=".5" d="M146.47266 469.51172l-.73047 2.33984m14.02734-2.32422L154.85937 464.5m4.91016 5.02734l-.7461 2.33594m13.91016-2.19922l-4.60937-5.30078m4.60937 5.30078l-.8789 2.29297m14.0664-2.1836l-4.35156-5.51952m4.35156 5.51953l-.98828 2.2461m14.32813-2.26563l-4.39844-5.48047m4.39844 5.48047l-.96875 2.2539m14.8789-2.86719l-5.58984-4.2539m5.58984 4.2539l-.39453 2.42188m13.67969-2.38281l-5.53516-4.33203m5.53516 4.33203l-.42578 2.41406m13.36328-2.0039l-4.77734-5.15235m4.77734 5.15234l-.80469 2.31641m13.82422-2.07031l-4.1875-5.64453m3.57813 4.82422l-.52735 1.10546m14.07031-.03906l-3.42578-6.13672m2.9297 5.24219l-.66407 1.03125m14.65234-.24219l-3.77734-5.92578m3.23047 5.0625l-.60547 1.07031m9.0664-3.07421l7.02344-.19141m7.4336-2.4961l4.74218 5.1836m7.46875-2.07031l6.94922-1.04297m12.26563 3.0664l-4.84766-5.08984m13.41406 5.17969l4.64844-5.26953m-3.97265 4.5039l-1.19141-.28515m15.16015 1.78515l1.98829-6.73828m-1.69922 5.75781l-1.20313.2461m16.89453.45703l-3.34375-6.1836m2.85547 5.28516l-.67578 1.01953m14.84375-.34765l-4.07031-5.73047m12.41797 4.80078l5.86328-3.8711m-5.01172 3.3086l-1.07813-.58984m13.44922 1.0039l6.05079-3.57422m-5.17188 3.05469l-1.04688-.64062m13.91407 1.74609l5.1836-4.7461m-4.4297 4.0547l-1.15625-.41016m14.33985 1.63672l3.9414-5.81641m-3.36718 4.97266l-1.21875-.13282m14.20703 1.1289l3.44922-6.12108m-2.94922 5.23046l-1.22656-.02734m14.1875.9961l3.15625-6.27735m-2.69532 5.36328l-1.22656.03125"/><g clip-path="url(#D)"><path fill="none" stroke="#000" stroke-linecap="round" stroke-linejoin="round" stroke-miterlimit="10" stroke-width=".5" d="M146.8164 455.80078l-5.6328-4.20703"/></g><path fill="none" stroke="#000" stroke-linecap="round" stroke-linejoin="round" stroke-miterlimit="10" stroke-width=".5" d="M145.9961 455.1914l-.1875 1.21094m13.3789.26954l-3.7461-5.94532m3.19923 5.07813l-.60938 1.0664m14.13281-.01172l-3.0664-6.3203m3.0664 6.3203l-1.44531 1.98438m14.71875-1.96484l-2.98438-6.35938m2.98438 6.35938l-1.47266 1.96484m14.86328-2l-3.13671-6.28906m3.13672 6.28906l-1.42579 1.9961m15.5-2.50782l-4.65625-5.26562m4.65625 5.26562l-.85937 2.29688m14.42578-2.54297l-5.15625-4.77344m4.40625 4.07812l-.3125 1.1875m12.94531.44141l-2.29297-6.64062m1.96094 5.67578l-.83594.89843m13.46485.25782l-.2539-7.02344m.21483 6l-1.0625.61719m13.58985.33593l1.39844-6.88671m-1.19532 5.88671l-1.17578.34766m12.64063-.17187l4.6914-5.23438m7.61328 3.65234l6.71485-2.07421m6.4414.99609l7.02735.08594m-6.0039-.07422l-.5625-1.08985m13.72265 3.4336l5.29297-4.625m-4.52344 3.95312l-1.14453-.4375m14.15625 1.55078l4.35937-5.51171m-3.72265 4.71093l-1.20703-.21875m13.10937.16407l5.91016-3.80079m-5.04688 3.25l-1.07422-.60156m13.9336 1.67188l5.09765-4.83594m-5.09765 4.83594l-2.32813-.77735m15.67578.8125l5.03125-4.90625m-4.29687 4.19141l-1.17188-.375m12.85157-.54297l6.83203-1.64062m-5.83594 1.40234l-.8125-.91797m13.03906.51172l7.01953-.35156m-5.99609.30078l-.63281-1.05469m13.22265 2.35547l6.42188-2.85156m-6.42188 2.85156l-1.93359-1.51563m15.09766 1.10547l6.72656-2.03515m-6.72656 2.03515l-1.73047-1.73828m15.05469 1.76563l6.70703-2.08594m-6.70704 2.08594l-1.74609-1.72657m16.01953 3.25391l4.78906-5.14062m-4.09375 4.39062l-1.18359-.3164m14.07422 1.29296l4.2461-5.59765m-4.2461 5.59765l-2.42188-.39062"/><g clip-path="url(#E)"><path fill="none" stroke="#000" stroke-linecap="round" stroke-linejoin="round" stroke-miterlimit="10" stroke-width=".5" d="M146.36328 442.98047l-4.72656-5.19531"/></g><path fill="none" stroke="#000" stroke-linecap="round" stroke-linejoin="round" stroke-miterlimit="10" stroke-width=".5" d="M145.67578 442.22656l-.41406 1.15625m14.25781-.26562l-4.41016-5.46875m4.41016 5.46875l-.96094 2.25781m15.25782-3.51172l-6.375-2.95703m5.44922 2.52734l.0664 1.22266m13.58984.08594l-5.20312-4.71875m4.44531 4.03515l-.30078 1.1875m14.59375-.76562l-5.64062-4.1914m18.04687-.85157l-3.82812 5.89062m3.27343-5.03515l1.22266.10937m14.23047 1.625l-6.99219.71094m20.1875-1.33203l-6.75 1.95703m14.17578-3.4336l5.02735 4.91016m-4.29688-4.1953l.34375-1.1797m11.45703 1.69922l6.59375 2.4375M261.5 439.51953l-.16406-1.21484m13.21484-.28516L279.75 442.75m-4.4414-4.04297l.30468-1.1875m14.2461-.59765l1.21484 6.92187m-1.03906-5.91406l.96875-.7539m12.0078-.21876l1.53907 6.85547m-1.3164-5.85938l.93359-.80078m11.73828-.07422l2.3789 6.61329m-2.03124-5.65235l.82421-.91015m10.6836.9453l5.29687 4.6172m-4.52734-3.94532l.27734-1.1953m11.53907 3.79296l6.7578-1.91797m-5.77734 1.63672l-.84765-.88281m13.32812 1.57812l6.46485-2.7461m-6.46485 2.7461l-1.91015-1.54687m14.97656.64453l6.96094-.94531m-6.96094.9453l-1.4336-1.98827m14.71876 1.67968l7.01953-.32421m-7.01953.32421l-1.25-2.11328m14.6914 2.89844l6.76953-1.89453m-6.76953 1.89453l-1.6914-1.77734m14.99609 1.73828l6.78906-1.8164m-6.78906 1.8164l-1.67188-1.79688m15.04688 2l6.66797-2.22265m-6.66797 2.22265l-1.77734-1.6914m15.10937 1.73828l6.63672-2.32031m-6.63672 2.3203l-1.80078-1.66405m16.03906 3.07421l4.79297-5.13671m-4.79297 5.13672l-2.3711-.63672m15.39063.32812l5.38282-4.51953m-5.38282 4.51953l-2.27734-.91797"/><g clip-path="url(#F)"><path fill="none" stroke="#000" stroke-linecap="round" stroke-linejoin="round" stroke-miterlimit="10" stroke-width=".5" d="M143.61328 430.5625l.77344-6.98438"/></g><path fill="none" stroke="#000" stroke-linecap="round" stroke-linejoin="round" stroke-miterlimit="10" stroke-width=".5" d="M158.34766 430.42578l-2.06641-6.71484m1.76563 5.73828l-.8672.8711m13.17579.25l.54687-7.00391m-.46484 5.98437l-1.125.49219m15.65625-2.97266l-.01953-.20312-.0586-.1914-.09375-.17579-.46093-.375-.1914-.0586-.19923-.01952-.19922.01953-.1914.05859-.46094.375-.09375.17578-.0586.1914-.01952.20313.01953.19922.05859.1914.09375.17579.46094.375.1914.0586.19922.01952.19922-.01953.1914-.0586.46095-.375.09375-.17577.05859-.1914.01953-.19923m13.375-3.34375l-2.16797 6.6836m1.85547-5.71094l1.20703-.21484m9.8086-.57813l3.05468 6.32813m8.52344-4.46485l6.52734 2.60156m-5.57422-2.22656l-.13671-1.21875m13.66015-.67187l4.20703 5.6289m-3.59375-4.8086l.51953-1.10937m11.6172.81641l5.33593 4.57422m-4.5586-3.90625l.26954-1.19922m13.82812-.51562l2.21875 6.66796m-1.89453-5.69921l.84375-.88672m12.57422-.19532l1.36328 6.89454m-1.16406-5.89063l.94922-.77734m12.01172-.19141l1.67578 6.82422m-1.4336-5.83203l.91407-.8164m12.3125-.21095l1.36718 6.89454m-1.16796-5.89063l.94921-.77734m10.92579.28125l3.84765 5.8789m-3.84765-5.8789l1.17968-2.14844m11.07422 3.23047l5.96875 3.71484m-5.09765-3.17187l.08203-1.22657m11.84765 2.8672l6.9961-.65235m-5.97657.5586l-.67578-1.02735m13.07032 1.67578l6.80078-1.76172m-5.8125 1.5039l-.82813-.90234m13.21875 1.38672l6.67188-2.21484m-5.69922 1.89062l-.88672-.84765m13.4414 1.67578l6.2461-3.22266m-6.2461 3.22266l-2.01562-1.39844m16.79688 2.88672l3.3164-6.19922m-2.83203 5.29688l-1.22656-.00391m12.90234-.08984l5.6289-4.20704m-4.8125 3.59375l-1.10937-.52343m13.20703.45312l6.42579-2.83984m-6.42579 2.83984l-1.92968-1.51562m15.91797 2.51953l5.08203-4.84766m-4.34375 4.14453l-1.16407-.38672m12.92579-.28906l6.71093-2.08984m-5.73437 1.78515l-.8711-.86328m14.67188 3.08203l3.78906-5.91796m-3.23828 5.05859l-1.22266-.10156"/><g clip-path="url(#G)"><path fill="none" stroke="#000" stroke-linecap="round" stroke-linejoin="round" stroke-miterlimit="10" stroke-width=".5" d="M142.10156 416.71094l3.79688-5.91406"/></g><path fill="none" stroke="#000" stroke-linecap="round" stroke-linejoin="round" stroke-miterlimit="10" stroke-width=".5" d="M155.39844 416.69922l3.83203-5.89063m-3.27344 5.03516l-1.22266-.10938m13.51172.60157l4.76953-5.16406m-4.07421 4.41015l-1.1875-.3086m14.29297 1.4336l3.79687-5.91015m-3.2461 5.05078l-1.22265-.10157m12.50781-1.03125l6.75781-1.92187m-5.77734 1.64062l-.84766-.8828m13.08985-.34376l6.9414 1.09375m-5.93359-.9375l-.39844-1.15625m12.7461.77735l6.85937 1.53906m-6.85937-1.53906l-.64844-2.3672m13.88672 2.9336l7.01562.40235m-7.01562-.40235l-1.02734-2.22656m2.04687 2.28516l-.51172-1.11329m12.83203.77735l6.96094.96093m-6.96094-.96093l-.84375-2.30469m14.1289 2.66406l7.02345.24219m-6-.20703l-.53907-1.10547m16.14453-2.3164l.39454 7.01562m-.33594-5.9961l1.04687-.63671m13.46094-.22657l-2.10547 6.70313m12.3789-6.25l3.97657 5.79687m-3.39844-4.95312l.57032-1.08984m12.91015-.14063l2.48828 6.57031m-2.125-5.61719l.8086-.92187m13.91797-.21875l-1.0625 6.94531m14.66015-6.89062l-1.625 6.83594m12.19922-.48047l3.85547-5.875m-3.29687 5.01953l-1.21875-.11328m15.96875 1.54297l-.12891-7.02344m.10937 6.0039l-1.07421.59375m11.41406-1.14453l5.85547-3.88281m-5.00391 3.3164l-1.07812-.58203m17.5 2.56641l-2.0586-6.71875m15.65625.09766l-2.6211 6.51953m15.64845-3.25781l-.01954-.19922-.05859-.1914-.09766-.1797-.45703-.375-.1914-.05859-.19922-.01953-.19922.01953-.1914.0586-.46094.375-.09375.17968-.0586.1914-.01953.19923.01953.19921.0586.19141.09375.17578.46093.3789.1914.0586.19923.01953.19922-.01953.1914-.0586.45703-.3789.09766-.17578.0586-.1914.01953-.19922m8.88671-.86329l6.8086 1.72657m-5.82031-1.47657l-.29297-1.1914m12.66797.76562l6.71093 2.07813m-5.73437-1.77735l-.23047-1.20312m14.51562 5.16016l2.82032-6.4375m-2.41016 5.5l-1.22266.09375"/><g clip-path="url(#H)"><path fill="none" stroke="#000" stroke-linecap="round" stroke-linejoin="round" stroke-miterlimit="10" stroke-width=".5" d="M142.08594 403.38281l3.82812-5.89062"/></g><path fill="none" stroke="#000" stroke-linecap="round" stroke-linejoin="round" stroke-miterlimit="10" stroke-width=".5" d="M154.34766 402.32031l5.93359-3.76562m-5.07031 3.21875l-1.0664-.60547m12.99218-.3711l6.98828-.71875m-5.97266.6172l-.68359-1.01954m12.96484.67969l7.02344.16406m-6.0039-.14062l-.55079-1.09375m12.8711.73046l6.97656.84766m-5.96094-.72656l-.4414-1.14453m12.78125.76562l6.89453 1.35938m-6.89453-1.35938l-.71094-2.34765m13.97266 3.34765l7-.64062m-7 .64062l-1.34375-2.05078m14.6875 1.17578l6.9414 1.10938m-5.92969-.94531l-.39843-1.16407m12.78125 2.48047l6.78125-1.84765m-5.79297 1.57812l-.83985-.89453m13.05078.46094l7.01563-.44532m-5.9961.37891l-.64062-1.04297m13.42578 2.6836l6.03907-3.59375m9.75 5.26953l1.08593-6.94141m12.85157 6.98047l-.15625-7.02344m16.85546 4.09766l-6.92578-1.17188m5.91797 1l.39063 1.16406m12.72656-4.26953l-4.51563 5.38282m3.85938-4.59766l1.19922.2539m13.9961 1.16407l-6.96095.98047m6.96094-.98047l1.4414 1.98437m11.28126.50391l-5.77735-3.9961m5.77735 3.9961l-.28516 2.4375m11.6875-1.0625l-1.94922-6.75m1.94922 6.75l-1.76172 1.71094m14.92578-1.67188l-1.65234-6.82812m1.41406 5.83594l-.91797.8164m12.76954.16406l1.7539-6.80468m-1.5 5.8164l-1.1914.28516m12.64453-5.1836l4.96875 4.96875m-4.2461-4.24609l.35938-1.17187m15.47656-.4961l-1.51953 6.85938m1.51953-6.85938l2.36328-.65625m13.60938 3.26172l-6.83203 1.64844m5.83593-1.41016l.8164.91797m13.29688 1.07813l-6.4375-2.82032m15.84375 4.85547l1.38282-6.89062"/><g clip-path="url(#I)"><path fill="none" stroke="#000" stroke-linecap="round" stroke-linejoin="round" stroke-miterlimit="10" stroke-width=".5" d="M145.96875 390.03516l-3.9375-5.82422"/></g><path fill="none" stroke="#000" stroke-linecap="round" stroke-linejoin="round" stroke-miterlimit="10" stroke-width=".5" d="M145.39453 389.1875l-.57422 1.08203m13.48047.22656l-1.97266-6.74609m1.6875 5.76563l-.8789.85546m11.65234-.2539l3.67969-5.98828m-3.14453 5.11718l-1.22266-.07812m12.34375-1.73047l7-.6289m12.1875-2.27735l-4.7461 5.1836m16.54298-6l-1.71094 6.8164m1.46484-5.82422l1.1875-.29297m9.98438-.45312l3.07031 6.32422m-2.625-5.40235l.72266-.99219m10.17969 2.95313l7.0039.5586m-7.0039-.5586l-.97657-2.2539m14.28125 2.53515h7.02735m-7.02735 0l-1.15234-2.16797m17.23437 5.60156l1.4922-6.86718m-1.27345 5.86718l-1.18359.33204m16.72656.30468l-3.40234-6.14453m2.91015 5.25l-.67187 1.03125m16.28906-3.08203l-7.02344-.2539m6.00391.21874l.53516 1.10157m12.61719-3.82422l-4.65625 5.26562m18.97656-3.73828l-6.66797 2.20703m5.69922-1.88672l.88672.84766m12.85937-2.1914l-5.59375 4.2539m4.78125-3.63672l1.11328.51563m13.6914 1.51953l-6.9453-1.05078m5.93359.89843l.41016 1.15625m13.47265.25391l-6.0586-3.5625m6.0586 3.5625l-.10547 2.44922m12.04688-1.13281l-3.3086-6.19922m2.82813 5.29687l-.6875 1.01953m15.58594-1.04296l-5.51953-4.34766m4.71875 3.71484l-.21875 1.20703m14.66796-1.07812l-6.18359-3.33985m5.28516 2.85547l-.01172 1.22657m10.8164 1.08593l.63672-6.99609m-.54687 5.98047l-1.1289.47265m18.04296-3.9375l-6.7461 1.96485m5.76563-1.67969l.85547.8789m12.70703-2.5039l-5.27734 4.64453m5.27734-4.64453l2.29688.86719m11.32812-.45313l-5.89844 3.81641m5.89844-3.8164l2.14453 1.1914m10.29297-2.1211l-4.14453 5.67579m3.54297-4.84766l1.21484.17188"/><g clip-path="url(#J)"><path fill="none" stroke="#000" stroke-linecap="round" stroke-linejoin="round" stroke-miterlimit="10" stroke-width=".5" d="M143.64063 377.30469l.71875-6.99219"/></g><path fill="none" stroke="#000" stroke-linecap="round" stroke-linejoin="round" stroke-miterlimit="10" stroke-width=".5" d="M155.98828 377.0625l2.65234-6.50781m-2.26562 5.5586l-1.21875.125m12.74219-.22267l5.46484-4.41406m-4.67187 3.77344l-1.12891-.48047m14.02734-3.69531l4.71094 5.21484m-4.02344-4.45312l.41797-1.15625m11.76953.875l5.58985 4.25781m-4.77735-3.63672l.19922-1.21094m14.28906-.69921l1.6211 6.83593m-1.6211-6.83594l1.83985-1.62109m13.16016 1.63672l-1.75 6.80469m1.49609-5.8164l1.1914-.28517m15.01172 2.8672l-7.01953-.33594m6 .28515l.52344 1.10938m13.03125.98828l-5.45703-4.42969m4.66016 3.78516l-.23438 1.20312m14.82031-1.32812l-6.40625-2.89063m5.47266 2.46875l.08203 1.22656m13.7461-.10546l-5.56641-4.28907m4.75781 3.66406l-.20703 1.21094m14.78515-4.09375l-6.47656 2.72266m5.53516-2.32422l.95312.77344m13.44922-.7539l-6.76562 1.89062m5.78125-1.6172l.84765.88673m13.51563.45703l-6.89453-1.34375m5.89062 1.14844l.35938 1.17187m13.26953-3.82422l-5.51563 4.35156m4.71485-3.71875l1.1211.4922m7.71874 3.5l5.03906-4.89844m14.14454 3.51171l-6.69922-2.1289m5.72265 1.82031l.22266 1.20703m12.64453.98047l-3.84766-5.88281m3.84766 5.88281l-1.1836 2.14844m14.20313-1.97656l-3.25781-6.22657m2.78125 5.32031l-.6914 1.01172m13.99609.10547l-2.28516-6.64844m1.95313 5.6797l-.83985.89843m16.14453-1.1289l-5.59765-4.25m4.78125 3.6289l-.19532 1.21094m15.03907-2.8125l-7.02344.19531m6-.16797l.60547 1.0664m12.77344-3.41015l-5.10547 4.82813m5.10546-4.82813l2.32422.78125m9.96485-1.53125l-3.05078 6.32813m2.60546-5.41016l1.22657-.04688m12.29687-.97656l-2.57812 6.53906m2.57812-6.53906l2.4375-.27734"/><g clip-path="url(#K)"><path fill="none" stroke="#000" stroke-linecap="round" stroke-linejoin="round" stroke-miterlimit="10" stroke-width=".5" d="M147.3164 359.33594l-6.6328 2.3125"/></g><path fill="none" stroke="#000" stroke-linecap="round" stroke-linejoin="round" stroke-miterlimit="10" stroke-width=".5" d="M146.35156 359.67578l.90235.83203m11.85547-3.03515l-3.58985 6.03906m16.13281-3.01953l-.01953-.19922-.0586-.1914-.09374-.17579-.46094-.3789-.1914-.0547-.19922-.01952-.19922.01953-.1914.05469-.45704.3789-.09375.17578-.0586.1914-.01952.19923.01953.19922.05859.1914.09375.17969.45703.375.1914.0586.19923.01952.19922-.01953.1914-.05859.46094-.375.09375-.17969.0586-.1914.01952-.19922m9.37891-1.96094l5.82813 3.92188m-4.98047-3.35157l.125-1.21875m11.74609 2.5l7.02344.22266m-7.02344-.22266l-1.08203-2.20312m2.10156 2.23437l-.53906-1.10156m13.52344-.91406l5.64453 4.1875m-5.64453-4.1875l.36718-2.42578m18.0547 1.85156l-4.57032 5.33984m3.90625-4.5625l1.19531.26563m13.74219 2.97265l-6.48828-2.6953m6.48828 2.6953l.23437 2.44532m13.34375-3.60547l-7.01562-.3711m5.9961.31641l.51952 1.11328m13.3086.58594l-6-3.66016m5.125 3.125l-.07031 1.22656m14.3203-.79687l-6.12109-3.44922m5.23047 2.94531l-.02734 1.22657m13.94922-.29688l-5.55469-4.30078m4.7461 3.67578l-.20704 1.20703m14.97266-1.91406l-6.83594-1.64063m6.83594 1.64063l.61328 2.375m12.65625-4.17578l-6.7461 1.96094m5.76563-1.67579l.85547.88282m13.40625-1.27735l-6.67969 2.1836m6.67969-2.1836l1.76953 1.70313m11.24219 1.15625l-6.07031-3.53516m6.0703 3.53516l-.09374 2.44922m13.0039-1.89063l-5.26171-4.65625m4.49609 3.98047l-.28516 1.1914m14.70313-.96484l-5.9375-3.7578m5.9375 3.7578l-.1836 2.44922m13.54297-2.51562l-6.02343-3.6211m6.02343 3.6211l-.1328 2.44922m10.79687-.76563L396.625 357m16.36719 5.75l-5.38282-4.51563m4.60157 3.85938l-.2539 1.19922m15.07812-3.60938l-6.83594 1.6172m5.83984-1.38282l.8125.92187m10.29688-3.85546L436.71484 364m.3711-5.99219l1.11328-.50781m13.11328-.35547l-2.13281 6.69531m2.13281-6.6953l2.41406-.4375m9.5039.28905l.66016 6.9961m-.66015-6.9961l2.05078-1.35156"/><g clip-path="url(#L)"><path fill="none" stroke="#000" stroke-linecap="round" stroke-linejoin="round" stroke-miterlimit="10" stroke-width=".5" d="M146.47266 344.67969l-4.94532 4.9961"/></g><path fill="none" stroke="#000" stroke-linecap="round" stroke-linejoin="round" stroke-miterlimit="10" stroke-width=".5" d="M145.7539 345.40625l1.17188.35547m13.00781-.92578l-5.23437 4.6875m4.47266-4.00781l1.15234.42187m11.97656-1.84766l-3.34375 6.1797m2.85938-5.28126l1.22656.00781m9.90625-1.1875l1.99219 6.73829m-1.70313-5.75782l.875-.85937m12.53516 6.70703l1.22265-6.91797m9.39844 4.65234l6.60938-2.38671m-6.60938 2.38671l-1.8164-1.64453m19.4414-2.91406l-2.00781 6.73438m1.71484-5.75782l1.20313-.24219m13.64062 5.33985l-4.48047-5.41406m3.82813 4.625l-.46875 1.1328m15.6914-3.39843l-6.99218.6914m6.99219-.6914l1.35937 2.04297m11.96875-1.85938l-7.01953.32422m7.01953-.32421l1.25 2.11328m-2.26953-2.06641l.625 1.0586m13.60156-.0625l-6.80078-1.75782m6.80078 1.75781l.57422 2.38282m12.76563-4.0547l-6.84766 1.58204m6.84765-1.58203l1.60938 1.85156m11.76172-.57422l-6.96094-.97265m5.94922.83203l.41797 1.15234m6.92578-1.77734l7.0039.5586m-5.98437-.47657l-.48828-1.125m18.80469-1.125l-5.03906 4.89844m4.30468-4.1875l1.17188.375m13.19531-.71094l-5.67188 4.14453m5.67188-4.14453l2.20703 1.07031m6.28516 3.89844l3.97265-5.79297m-3.39453 4.94922l-1.21875-.13672m16.65235 1.52734l-1.42188-6.8828m1.21485 5.8789l-.94532.78515m15.38672-.11328l-3.25781-6.22265m3.25781 6.22265l-1.38672 2.02735m13.9961-1.75l-1.84766-6.77735m1.58203 5.79297l-.89453.83985m14.57422-3.2422l-.01953-.19921-.0586-.19531-.09375-.17579-.46093-.375-.19141-.05859-.19922-.01953-.19922.01953-.1914.0586-.45704.375-.09765.17578-.0586.1953-.01953.19923.01954.19922.05859.1914.09765.17578.45704.375.1914.0586.19922.01953.19922-.01953.1914-.0586.46094-.375.09375-.17578.0586-.1914.01953-.19922m9.21875-1.70703l6.14453 3.41015m-5.25-2.91406l.02344-1.22656m15.07422-1.05469l.79296 6.98047m-.67968-5.96485l1.01172-.6953m15.13671.7539l-5.10156 4.83203m4.35938-4.1289l1.16406.39062m10.66797-2.17578l-.64844 6.9961m.64844-6.9961l2.26172-.94531"/><g clip-path="url(#M)"><path fill="none" stroke="#000" stroke-linecap="round" stroke-linejoin="round" stroke-miterlimit="10" stroke-width=".5" d="M144.8789 330.46094l-1.7578 6.80469"/></g><path fill="none" stroke="#000" stroke-linecap="round" stroke-linejoin="round" stroke-miterlimit="10" stroke-width=".5" d="M159.28125 330.95313l-3.9336 5.8203m16.07423-6.33202l-1.58204 6.84375m1.35157-5.84766l1.18359-.32031m12.8086-.54297l-2.47657 6.57812m2.47656-6.57812l2.4336-.3125m-2.79297 1.26953l1.21875-.15625m10.67969 5.96094l1.07812-6.94531m-.92187 5.93359l-1.16016.40234m17.57031-.63281l-5.42969-4.46094m4.64063 3.8125l-.24219 1.20313m9.9375.29297l3.39063-6.15625m-2.89844 5.26171l-1.22656-.01953m18.67578-.22656l-5.86328-3.875m5.86328 3.875l-.23438 2.4414m12.65235-1.51171l-4.0664-5.73438m3.47265 4.89844l-.55078 1.09766m15.46484-4.89063l-6.07813 3.52344m6.07813-3.52344l2.08203 1.29297M280.60547 334.5l-6.91016-1.27344m6.91016 1.27344l.74219 2.33984m12.53515-2.15234l-6.83203-1.64844m5.83594 1.41016l.30469 1.1875m12.08203 1.40625l-2.98438-6.35938m2.55078 5.4336l-.73828.98437m15.32813-.60937l-4.66797-5.25781m3.98828 4.49218l-.42969 1.14844m8.79688-4.23828l6.58594 2.45312m6.51171-1.0703l7.01954-.3125m-5.9961.26562l-.625-1.0547m19.41406-.90233l-5.97265 3.6953m5.10547-3.16015l1.05859.61719m6.9414 2.15625l6.39063-2.92188m-6.39062 2.92188l-1.94922-1.48828m15.10156 1.05469l6.71875-2.0547m-6.71875 2.0547l-1.73437-1.73438m2.71093 1.4336l-.86718-.8672m15.99609 3.60938l1.13672-6.9375m-1.13672 6.9375l-2.32422.78516m15.4414-.82422l1.53126-6.85938m-1.53125 6.85938l-2.36328.65234m16.42187-.57031l.04688-7.02344m-.04297 6.0039l-1.08594.56642m11.14453-4.33204l6.55078 2.54688m12.89453-3.32031l-5.71093 4.09375m4.8828-3.4961l1.09766.54297m11.50782-2.35156l-2.63282 6.51562m2.63282-6.51562l2.4414-.2539"/><g clip-path="url(#N)"><path fill="none" stroke="#000" stroke-linecap="round" stroke-linejoin="round" stroke-miterlimit="10" stroke-width=".5" d="M141.04297 322.44531l5.91406-3.79297"/></g><path fill="none" stroke="#000" stroke-linecap="round" stroke-linejoin="round" stroke-miterlimit="10" stroke-width=".5" d="M160.67969 321.5664l-6.72656-2.03515m19.3203-1.30078l-5.28515 4.63281m4.51563-3.95703l1.14453.4336m12.48828-1.53907l-4.38281 5.49219m4.3828-5.49219l2.41407.45313m-3.05078.34765l1.20703.22656m14.0039 2.37891l-6.90234-1.3164m6.90235 1.3164l.72656 2.34375m12.51953-2.05469l-6.76562-1.89843m6.76562 1.89843l.52344 2.39844m12.88672-3.86328l-6.95313 1.03516m6.95313-1.03516l1.45703 1.97266m11.88672-1.20704l-7.01172-.5m7.01172.5l.99219 2.2461m12.26562-3.16406l-6.89844 1.33593m6.89844-1.33593l1.54297 1.90625m11.82812-1.01172l-7.01172-.45313m7.01172.45313l1.01172 2.23828m10.45313-5.5625l-3.3086 6.19922m15.59766.35547l-1.2539-6.91407m17.45312 3.33204l-7.02344.25m6-.21094l.61328 1.0625m12.1211 1.97265l-3.81641-5.89843m3.26172 5.04296l-.59375 1.07032m16.0039-2.48438l-6.89453-1.35937m5.89063 1.16406l.35547 1.17188m12.0664 1.49609l-3.10156-6.30469m2.64844 5.39063l-.71485.99218m14.6211-6.3125l-3.3789 6.16407m2.88671-5.26563l1.22656.01563m12.08203-1.13672l-2.3828 6.60937m2.3828-6.60937l2.4297-.34766m12.5078 1.54688l-5.625 4.21093m13.1836-.18359l5.88672-3.84375m-5.88672 3.84375l-2.14844-1.1836m16.5625 2.25391l3.6875-5.98437m-3.6875 5.98437l-2.44531-.15625m15.0039-.47265l5.19922-4.72657m-4.4414 4.03907l-1.15625-.41407m17.85937 1.89454l-3.08984-6.3125m3.08984 6.3125l-1.4375 1.98828m16.71875-5.26954l-7.02344.25m7.02344-.25l1.22656 2.125m-2.25-2.08593l.6172 1.0625m12.46093-3.67578l-4.5 5.39843"/><g clip-path="url(#O)"><path fill="none" stroke="#000" stroke-linecap="round" stroke-linejoin="round" stroke-miterlimit="10" stroke-width=".5" d="M465.8125 317.84766l2.39844.5039"/></g><path fill="none" stroke="#000" stroke-linecap="round" stroke-linejoin="round" stroke-miterlimit="10" stroke-width=".5" d="M465.15625 318.63281l1.19922.2539"/><path fill="#00f" fill-rule="evenodd" d="M175.19922 472.08594h8.61719V461.9414h-8.6172v10.14453"/><path fill="azure" fill-rule="evenodd" d="M177.03125 463.77344h.83203v2.82422h3.28516v-2.82422h.83594v6.48047h-.83594v-2.91797h-3.28516v2.91797h-.83203v-6.48047"/><path fill="#00f" fill-rule="evenodd" d="M383.80078 436.57813h8.61719v-10.14454h-8.61719v10.14454"/><path fill="azure" fill-rule="evenodd" d="M385.63281 428.26563h.83203v2.82421h3.28907v-2.82421h.83203v6.48046h-.83203v-2.91406h-3.28907v2.91406h-.83203v-6.48046"/><path fill="#00f" fill-rule="evenodd" d="M219.58203 414.38672h8.61719v-10.14453h-8.61719v10.14453"/><path fill="azure" fill-rule="evenodd" d="M221.41406 406.07422h.83203v2.82422h3.28907v-2.82422h.83203v6.48047h-.83203v-2.91406h-3.28907v2.91406h-.83203v-6.48047"/><path fill="#ff3030" fill-rule="evenodd" d="M442.1914 347.8125h7.69532v-10.14453h-7.69531v10.14453"/><path fill="azure" fill-rule="evenodd" d="M444.02734 339.5h.83204v5.73828h3.1953v.74219h-4.02734V339.5"/><path fill="#ff3030" fill-rule="evenodd" d="M282.41406 338.9375h7.6914v-10.14844h-7.6914v10.14844"/><path fill="azure" fill-rule="evenodd" d="M284.2461 330.625h.83202v5.73828h3.19532v.73828h-4.02735V330.625"/><path fill="#00f" fill-rule="evenodd" d="M370.48438 338.9375h8.62109v-10.14844h-8.6211v10.14844"/><path fill="azure" fill-rule="evenodd" d="M372.3164 330.625h.83594v2.82031h3.28516V330.625h.83203v6.47656h-.83203v-2.91406h-3.28516v2.91406h-.83593V330.625"/><path fill="#ff3030" fill-rule="evenodd" d="M193.64453 330.0586h7.69531v-10.14454h-7.6953v10.14453"/><path fill="azure" fill-rule="evenodd" d="M195.47656 321.7461h.83594v5.73827h3.1914v.7422h-4.02734v-6.48048"/><path fill="#ffffe0" fill-rule="evenodd" d="M244.10156 378.11328h22.17969v-10.19531h-22.17969v10.19531"/><path fill-rule="evenodd" d="M247.59766 369.7539h.51172v6.29298h-.78907v-4.48829h-1.38672v-.55468l.5586-.06641.2539-.05469.23047-.08984.20313-.14063.17187-.21093.14063-.29297.10547-.39453m4.8164 0l.22656.01953.22266.05469.20703.08984.19531.1211.1836.14843.17187.17578.30078.41797.2461.4961.17969.54687.10937.57812.03906.58985-.03906.59375-.10937.58594-.1797.55078-.24608.5039-.30079.42578-.17187.1797-.1836.15624-.1953.1211-.20704.09375-.22266.05468-.22656.01953-.23047-.01953-.21875-.05469-.20703-.09375-.19922-.12109-.18359-.15625-.17188-.17969-.30078-.42578-.24218-.5039-.1797-.55079-.11327-.58593-.03516-.59375h.83203l.02735.5625.08203.50781.125.4414.16406.375.1914.30079.21094.22265.22266.13672.22656.04688.22656-.04688.22266-.13672.21094-.22265.1914-.30078.16016-.375.125-.44141.08203-.50781.03125-.5625-.03125-.5625-.08203-.5-.125-.4336-.16016-.36718-.1914-.29297-.21094-.21094-.22266-.13281-.22656-.04688-.22656.04688-.22266.13281-.21093.21094-.19141.29297-.16406.36718-.125.4336-.08203.5-.02735.5625h-.83203l.03516-.58985.11328-.57812.17969-.54688.24218-.49609.30078-.41797.17188-.17578.1836-.14844.19921-.1211.20703-.08983.21875-.0547.23047-.01952m5.08985 0h.51171v6.29296h-.78906v-4.48828h-1.38672v-.55468l.5586-.06641.25-.05469.23047-.08984.20312-.14063.17578-.21093.14063-.29297.10547-.39453m2.82421 2.17578h.78516l.01953-.3164.0625-.28907.09766-.25.14062-.21485.1797-.17578.22265-.1289.26562-.08203.3086-.02735.23828.02344.22265.0625.20704.10156.17578.13672.15234.17578.10938.20313.07421.23828.02344.26562-.01953.26563-.0664.22656-.10938.1914-.15625.17188-.19922.16016-.25.16797-.63281.38672-.53906.3164-.4375.3164-.34375.32423-.26563.33594-.1914.35156-.125.36719-.06641.39453-.02344.41796h4.21484v-.73828h-3.33203l.08203-.28515.11329-.23828.14843-.19922.1875-.17969.23047-.17188.27735-.17578.71875-.41796.41406-.20704.34765-.23046.27735-.25.22265-.26563.16407-.28125.10937-.28125.0625-.28516.02344-.28125-.04297-.3828-.1211-.34767-.1875-.30859-.25-.26172-.30468-.21484-.34375-.15625-.38281-.10156-.40625-.03125-.4336.03125-.39844.09765-.35546.16797-.3047.23438-.25.30468-.18358.375-.1172.44532-.03906.51953"/><path fill="#ffffe0" fill-rule="evenodd" d="M368.375 375.39063h22.17969v-10.19141H368.375v10.1914"/><path fill-rule="evenodd" d="M371.875 367.03125h.50781v6.29297h-.78906v-4.48828h-1.38672v-.55469l.5586-.0664.2539-.0547.23047-.08984.20313-.14062.17187-.21094.14453-.29297.10547-.39453m4.8125 0l.23047.01953.21875.05469.20703.08984.19531.1211.1836.14843.17187.17579.30078.41796.2461.4961.17968.54687.10938.57813.03906.58984-.03906.59375-.10938.58594-.17968.55078-.2461.5039-.30078.42579-.17187.17969-.1836.15625-.19531.12109-.20703.09375-.21875.05469-.23047.01953-.23047-.01953-.21875-.0547-.20703-.09374-.19531-.1211-.1875-.15625-.16797-.17968-.30469-.42578L374.9336 372l-.17968-.55078-.11329-.58594-.03515-.59375h.83203l.02734.5625.08204.50781.1289.44141.16016.375.1914.30078.21094.22266.22266.13672.22656.04687.22656-.04687.22266-.13672.21094-.22266.1914-.30078.16016-.375.1289-.4414.07813-.50782.03125-.5625-.03125-.5586-.07813-.5039-.1289-.4336-.16016-.36718-.1914-.29297-.21094-.21094-.22266-.1328-.22656-.04688-.22656.04687-.22266.13281-.21094.21094-.1914.29297-.16016.36719-.1289.4336-.08204.5039-.02734.5586h-.83203l.03515-.58985.11329-.57813.17968-.54687.2422-.4961.30468-.41796.16797-.17579.1875-.14843.19531-.1211.20703-.08984.21875-.05469.23047-.01953m5.08984 0h.51172v6.29297H381.5v-4.48828h-1.38672v-.55469l.5586-.0664.2539-.0547.22656-.08984.20313-.14062.17578-.21094.14063-.29297.10546-.39453m2.82422 2.17578h.78906l.01954-.3164.05859-.28907.09766-.25.14062-.21484.17969-.17578.22656-.1289.26172-.07813.3086-.03125.23827.02343.22266.0625.20703.10157.17969.13671.14844.17579.11328.20312.07031.23828.02344.26563-.01953.26562-.0664.22656-.10938.19141-.15625.17188-.19922.16015-.25.16797-.63281.38672-.53516.3164-.4375.31641-.34766.32422-.26562.33594-.1875.35156-.125.36719-.07031.39453-.01954.41797h4.21094v-.73828h-3.33203l.08203-.28516.11328-.23828.14844-.19922.1875-.17969.23047-.17187.27734-.17578.71875-.41797.41406-.20313.34766-.23437.28125-.25.21875-.26563.16406-.27734.10938-.28516.0664-.28515.01954-.28125-.04297-.38281-.1211-.34766-.1875-.3086-.25-.26171-.30468-.21485-.34375-.15625-.38282-.10156-.40625-.03125-.43359.03125-.39844.09766-.35547.16796-.30468.23438-.2461.30469-.1875.375-.11719.44531-.03906.51953"/></g></defs><use xlink:href="#P"/></svg>