<svg xmlns="http://www.w3.org/2000/svg" role="img" xmlns:xlink="http://www.w3.org/1999/xlink" viewBox="142.45 309.95 326.84 171.84"><defs><clipPath id="a"><path d="M144 456h1v24.32813h-1zm0 0"/></clipPath><clipPath id="b"><path d="M144 311.67188h1V453h-1zm0 0"/></clipPath><clipPath id="c"><path d="M144 311.67188h324v168.65625H144zm0 0"/></clipPath><clipPath id="d"><path d="M467 311.67188h1v168.65625h-1zm0 0"/></clipPath><clipPath id="e"><path d="M144 477h3v3.32813h-3zm0 0"/></clipPath><clipPath id="f"><path d="M154 478h7v2.32813h-7zm0 0"/></clipPath><clipPath id="g"><path d="M167 477h7v3.32813h-7zm0 0"/></clipPath><clipPath id="h"><path d="M181 477h6v3.32813h-6zm0 0"/></clipPath><clipPath id="i"><path d="M194 477h7v3.32813h-7zm0 0"/></clipPath><clipPath id="j"><path d="M207 478h7v2.32813h-7zm0 0"/></clipPath><clipPath id="k"><path d="M220 477h7v3.32813h-7zm0 0"/></clipPath><clipPath id="l"><path d="M234 477h7v3.32813h-7zm0 0"/></clipPath><clipPath id="m"><path d="M246 478h9v2.32813h-9zm0 0"/></clipPath><clipPath id="n"><path d="M252 480h2v.32813h-2zm0 0"/></clipPath><clipPath id="o"><path d="M260 479h8v1.32813h-8zm0 0"/></clipPath><clipPath id="p"><path d="M266 480h1v.32813h-1zm0 0"/></clipPath><clipPath id="q"><path d="M273 478h8v2.32813h-8zm0 0"/></clipPath><clipPath id="r"><path d="M287 478h7v2.32813h-7zm0 0"/></clipPath><clipPath id="s"><path d="M300 478h8v2.32813h-8zm0 0"/></clipPath><clipPath id="t"><path d="M313 478h8v2.32813h-8zm0 0"/></clipPath><clipPath id="u"><path d="M327 478h7v2.32813h-7zm0 0"/></clipPath><clipPath id="v"><path d="M340 479h8v1.32813h-8zm0 0"/></clipPath><clipPath id="w"><path d="M345 480h2v.32813h-2zm0 0"/></clipPath><clipPath id="x"><path d="M353 478h8v2.32813h-8zm0 0"/></clipPath><clipPath id="y"><path d="M366 480h9v.32813h-9zm0 0"/></clipPath><clipPath id="z"><path d="M372 480h2v.32813h-2zm0 0"/></clipPath><clipPath id="A"><path d="M380 479h8v1.32813h-8zm0 0"/></clipPath><clipPath id="B"><path d="M385 479h3v1.32813h-3zm0 0"/></clipPath><clipPath id="C"><path d="M393 479h8v1.32813h-8zm0 0"/></clipPath><clipPath id="D"><path d="M408 476h5v4.32813h-5zm0 0"/></clipPath><clipPath id="E"><path d="M421 477h5v3.32813h-5zm0 0"/></clipPath><clipPath id="F"><path d="M434 477h6v3.32813h-6zm0 0"/></clipPath><clipPath id="G"><path d="M447 478h7v2.32813h-7zm0 0"/></clipPath><clipPath id="H"><path d="M461 476h5v4.32813h-5zm0 0"/></clipPath><clipPath id="I"><path d="M144 464h3v6h-3zm0 0"/></clipPath><clipPath id="J"><path d="M144 451h3v6h-3zm0 0"/></clipPath><clipPath id="K"><path d="M144 437h3v7h-3zm0 0"/></clipPath><clipPath id="L"><path d="M144 423h3v8h-3zm0 0"/></clipPath><clipPath id="M"><path d="M144 410h2v8h-2zm0 0"/></clipPath><clipPath id="N"><path d="M144 415h1v3h-1zm0 0"/></clipPath><clipPath id="O"><path d="M144 398h4v4h-4zm0 0"/></clipPath><clipPath id="P"><path d="M144 385h4v5h-4zm0 0"/></clipPath><clipPath id="Q"><path d="M144 372h4v3h-4zm0 0"/></clipPath><clipPath id="R"><path d="M144 360h4v1h-4zm0 0"/></clipPath><clipPath id="S"><path d="M144 346h4v2h-4zm0 0"/></clipPath><clipPath id="T"><path d="M144 333h4v2h-4zm0 0"/></clipPath><clipPath id="U"><path d="M466 331h2v3h-2zm0 0"/></clipPath><clipPath id="V"><path d="M144 319h4v3h-4zm0 0"/></clipPath><clipPath id="W"><path d="M465 317h3v2h-3zm0 0"/></clipPath><g id="X" clip-path="url(#clip1)"><path fill="#fff" fill-opacity="0" fill-rule="evenodd" d="M0 0h1000v1000H0zm0 0"/><path fill="#d3d3d3" fill-opacity="0" fill-rule="evenodd" d="M162.15234 355.86719l-.23437.29297.0586.23437.11718.17188.17578.23437.29297.34766.11328.0586.11719-.17188.0586-.23438.17577-.17578.46485-.17578h.69922l.23437.29297.28906.8164.0586.17579.17578.23046.35156.23438.69922.69922.17188.17578.23437.34765.23438.41016.28906.58203.41015.46485.23047.23437.23438.17578.11719.23047.17578.29297.17187 1.16406v.23438l.0586.28906.05859.11719.11719.11719.34765.41015.11719.17188.17578.17578.17578.23437.11719.17188.17188.35156.05859.23438.23437.40625.23438-.0586-.17578.17578-.0586.92969h-.58203l-.23437-.11328-.34766.11328-.11719.11719-.05859.29297-.0586.17578-.11718.17187-.46484.29297-.0586.23438-.0586.11328v.64453l.0586.17187v.41016l.0586.0586v.40624l.05859.40625.11719.17579.05859.05859.23047.64062-.0586.29297v.69922l-.05859.58203v.23438l-.0586.23047-.05468.35156v1.92187l.05469.1172h.42578l-.36719.11718-.02344.35156.89063 1.16797 1.74219.53906 1.33984.35938v.53906l.08984.8086.53516.71484 1.51953.26953.89063-.08594.08984 1.16406.53516.1797 1.16015-.1797 2.05469-.98437 1.16016-.36328 1.8789-.17578 1.69531-.1797-.17968.71876-1.51563.08594-1.25.08984-.80469.26953-1.07421.8086.26953.71875.53515.89843-.17968.625-.26563.8086.26563 1.07812.625.89844.80468.17969 1.25-.1797-.26562.72267.09766.5039.05468.29297v.17188l.0586.29296v.40625l.17578.1172.35156.11718h.40625l.29297-.17578.11328-.11719.0586-.11719.11718-.23047.0586-.17578.35156-.46484.23047-.17578.17578-.0586.17578.0586.0586.17578.11718.98828.05469.46875.0586.17188.11718.23437.17578.0586.8164.05859h.28907l.11719.23437.05859.40625.0586.35156v1.10547l.11718.29297.11719.34766.28906.69922.17578.35156.58203.7539.35157.17579.17187.0586.46875.23437.64063.46484.34765.23438.29297.17578.29297.05468.23047.0625.8164.34766.29297.17578.11328.17188.35157.35156.11719.17578.52343.64063v.28906l.0586.35156v.34766l.05859.35156.0586.28906.11718.0586.17188.05859h.17578l.58203.23437.17578.1172.17578.28905.17578.23438.11328.23437.29297.23047.11719.11719v.41016l.0586.05468.28906.23438.23437.11719.0586.11718.11718.17188.0586.11719.23047.23437.05859.17578.23437.0586.1172.05859-.1172.11328-.05859.11719v.11719l-.11719.29296-.11719.28907v.58203l.17579.11719.11718.05859.0586.11719.11719.11719.11328.05859.17578.34765.0586.35157.05858.40625v.17578l-.05859.17578-.11719.69922v.17187l.1172.17579.29296.29296h.40625l.17578.1172.11719.17187.11719.29296v.23438h-.52735l-.23047-.23438h-.23437l-.17578.0586-.0586.69922.0586.34765.11719.17579.17578.41015.11718.23047.28907.46875.17578.05469h.52344l.23437.0586.75781.64062.0586.29296v.23438l.05859.0586.23047.34765v.35156l-.11719.17188v.29297l.29297.28906.29297.17578.17187.0586.29297.17577.29297.1172.58203.40624.28906.23438.29297.17578.21875.16015.01563.01172.23047.17579.64062.52343.17578.23438.1172.17578.17577.17578.11328.17188v.64062l.1172.17578.46874.11719.58203.11719.23438.05859.23047.11328.29297.11719.11328.0586.58593.35156.28907.17187.17578.0625.17578.05469.17578.0586.69922.35155.28906.17579.23438.05468.28906.17578.23437.1172.64063.40624.29297.11719.17187.0586.23438.05859.41015.05859.23047.0586.23438.11718.0586.17188-.41017.17578.46875.0586.0586.29296.11328.23438.17578.05468.23438.0586.17578.05859.40625.11719.64062.23437.11719.17188.0586.23437v.17578l-.0586.1172-.0586.40624.23438.23438.11719.05859.34766.11719.64062.23047.17578.11718.28906.1172.17578.17577.23438.46485.58203 1.10546.17578.17579.34766.17578.17578.11719.35156.11718 1.04688.52344.23437.0586.46485.11327.29297.0586.46484.17578.75781.58203.23438.23438.34765.46484.17578.17578.28907.23438.8164.69921.29297.17579.28906.28906.29297.17578.29297.28906.69531.64063.17578.17578.29297.23437.28907.23438.46875.28906.64062.58203.34766.23438.23437.29297.34766.34765.35156.46485.9336.99218.34765.40625.11719.17579.23437.05859.11328.11719.64454.17578.23047.11328.23437.0586.29297.17577.23047.1172.9336.69921.40624.40625.23438.17578.40625.17578.23437.11719.8164.34766.34766.23437.23438.11719.29297.28906.23047.11719.7578.35156.35157.17188.23047.05859.29297.11719.23437.0586.8711.17577h.8164l.46875.23047.17188.0586.875.69921.46484.1172.29297.05858.17578.0586.23047.0586.46875.05859.34766.05859.35156.0586.40625.05859h.29297l.17187.0586v.23046l.17578.17578h.29297l.34766.0586.35156.05859.69922.11719h.64063l.46484-.23438.29297-.17578.17187-.11719.41016-.17187.28906-.17578.9336-.46485.46875-.29297.52343-.29296.46485-.17188.46484-.17578 1.05078-.46485.28906-.11718.41016-.11719.28906-.11719.52735-.17578 1.51562-.69922.58203-.34765.28907-.0586.29297-.0586.34765-.11718.875-.23047.35156-.11719h.11329l.23437-.05859.875-.23437.23438-.0586h.8125l.35156-.0586.8164-.11718.17188-.0586.35156-.05468.29297-.0586.23047-.05859.8164-.17578.17579-.0586h.34765l.23438-.05859.46484-.11718.75781-.17188.23438-.0586h.34765l.41016-.11718.28906-.0586 1.28516-.05859h.28906l.41016-.0586.23047-.05858h.17578l.875-.1172h.40625l.41015-.11718h.34766l.35156-.11328.8711-.0586h1.75l1.04687.28907.41016.11719.28906.11718.35156.11719.28907.11719 1.05078.17187.28906.0586h.29297l.29297.05859.17187.0586.41016.05859.17187.0586.1172.05858h.11718l.11719.0586.35156.0586h.11328l.41016.0664 1.92187.39453 1.92578.39453 1.51953.44922 1.69532.71875 2.14453.80469 1.60547-.71875 1.42968-.80469 1.16016-1.07813 1.25-.44921 3.03516-.71875 1.875-.35938 2.14453-1.34765 2.23437-1.25391 2.5-1.25781 1.69531-.44922 1.78516-.17969 1.16016-.26953.625.53906 1.33984-.26953.71485-.98828.98437-1.34375.44531-.17969.80469-.35937 1.875-.53907 1.78516-.44921 1.25-.26954 1.16015-.08984 1.69922-.08984 1.96094-.26954 1.25-.08984h.53906l.625-.08984h.89063l2.14453-.17969 2.41015-.17969 2.58985-.08984 1.69531.17969 1.60938.08984 1.42968.35938 1.16016.71875 1.875.98828 1.16015 1.52734.26563.71484.6289.08985.35548.89844.53515.53906.53516 1.52734 1.07422.35938h.53515l-.80469.53515.08985 1.70703.71484 2.69532.89063.80468.89453.98829.71484 1.2578 1.78516.53907 1.51953-.17969.35547 1.34375 1.60937-.80469.98047-.53906.26953.26953.31641-.21484.21875-.14453.80078.44922.44922-.35938h.35547l.53515-.26953.53907-.71875.53515-.26953.625-.98828 1.16016.44922.83984.3711 1.39454.61718 1.6953-.17969h1.60548l1.78515.08985.17969-1.70704.53516-1.34375.80468.26954.4922.84765.40233.40625-.08984.53906v.35938l.71485.44922.71093-.26953h1.42969l.35938.98828.4453 1.25781.71485 1.34375 1.25.6289 1.69531.62891.71485-.17969.17969-.53906.98046-.08984.44922.35937.08594 1.25782-.26563.6289-.53515.17969v.53906l.71484.98438.26563.53906.98437.98828.80078 1.07813-.26562.35937-.08985.89844-.625 2.33203-.35546 2.0664-.08985 1.79298-.17969.71875-.08984.53906v1.4375l-.98047 1.88281-.35937 1.70703-.53516.89844-.80469 1.16797-.26562.53906 2.05469 1.2539.08593.35938-.35546.53906-.08985-.17968v.80859l.08985 1.4375-.44532.71484-1.07422.09375-.26562.71485.53515.89844.8047.71875 1.16015.80859 1.33984.26953.44531.35938-.35546.44921-1.78907-.08984-1.25-.44922-.71484-.71875-.625-.08984-.17578 3.58984-.1875 1.3086h89.35937V311.70313h-55.26953v49.08203l.76172.125 3.28906.54296 2.02344 2.83594v2.7539l2.35156.33204 2.34766.33203h4.05078l-1.3789 4.16016-2.02344.70703-2.02344.70312-.54297.34375-2.59375 1.6172-.1875.11718-2.02344-2.07813-.73046-2.74218-2.67188-2.07813-1.375-3.5-.0664-.08203-1.95704-2.67188 2.75-1.41796v-49.08204H294.42187v91.41407l.1172.03125.1328.01172.07422.07421.10547.04688.08985.0586.08593.05859.08985.0586.29687.29687.0586.08984.03125.11719.02734.11719.01563.13671-.03125.1172-.0586.08983-.0586.08594-.04296.10547-.04688.10156-.02734.1211v.14453l.17578.26953.14844.14844.07422.08594.07422.07421.04296.10547.0625.08985.0586.08593.04297.10547.0586.08985.04687.10156.04296.10547.0586.08594.11719.17968.07421.07422.0625.08594.0586.08984.04297.10547.0586.08985.05858.08593.0625.08985.0586.08984.04297.10156.11719.17969.07421.07422.0586.08594.07422.07421.08984.0586.10547.04687h.14844l.1328-.01562.13282.01562.10156-.04687.07422-.07422.04688-.10156-.01563-.13281v-.14844l-.04687-.10547-.02735-.11719-.04687-.10156-.02735-.1211-.04296-.10156-.0625-.08984-.04297-.10156-.04297-.10547-.03125-.11719-.01563-.13281-.01171-.13672.08593-.0586.0586-.08593.12109-.03125.04297.10547.01562.1328v.1172l.0586.10156.0586.08984.08983.0586.14844.14843.0586.08985.04296.10547-.01171.10156.08593.0586.10547.04687.08594.0586.08984.05858.07422.07422-.11719.02735-.10546.04687-.08594.0586-.07422.07421-.0586.08985-.0625.08594-.02734.12109-.04687.10156-.04297.10547-.03125.11719-.01172.13281-.01563.13281v.14844l.02735.11719.04687.10547.04297.10156.0586.08984.07421.07422.08985.0586.07422.07421.08984.0586.0586.08984.04296.10547.04688.10156.11719.03125.1328.01563h.14845l.11718-.03125.10547.04297.04297.10547.04688.10156.02734.1211L299.5 410l.02734.11719.03125.1211.02735.11718.10547.04297.10156.04687.13281-.01562.14844.14844.0625.08593.07422.07422.07031.07422.08984.0625.10547.04297.10156.04297.1172.03125.13671.01562.11719-.03125.07422-.07422.02734-.11718-.01172-.13282-.03125-.12109-.02734-.11719.04297-.10547h.11719l.08984.0625.11719.02735h.14843l.13282.01562h.14843l.13282.01563.1328-.01563h.14845l.1328-.01562.13282-.01172.13672.01172.11719-.02735.13281-.01562.1914-.0586-.05859.17579-.01562.1328-.02735.1211-.01562.13281-.0586.08594-.1328.01563-.10548.04687-.10546.04297-.1172.03125-.11718.02735-.26563.03125h-.14843l-.13281.01562-.07422.07422.05859.08594.14844.14843.11719.1797.07421.0703.08985.0625.08984.0586.08594.0586.08984.05858.10156.04297.10547.0625.10547.04297.08594.0586.10547.04687.10156.04297.17969.11719.0586.08984-.04298.10156-.04687.10547.01562.13281.22266.22266.0586.08985.04296.10156.03125.1211.04297.10155.01563.13282.03125.11718.01171.13672.03125.11719.14844.14844.10156.04297.10547.04296.1172.03125.1328.01563.13672.01563h.11719l.11719-.03125.08984-.0586.04297-.10547.04688-.10156.04296-.10547.03125-.11719.01172-.1328v-.14845l-.01172-.1328-.01562-.13282-.03125-.11719-.04297-.10547-.04688-.10547-.04296-.10156-.04297-.10547-.01563-.13281.01563-.13281.02734-.11719.03125-.11719.02735-.1211.04687-.10155.08984-.0586.08594-.0625.07422-.07422.08984-.05859.22266-.22266.0586-.08593.07421-.07422.11719-.17969.0586-.08594v-.14844l-.07423-.07421-.10156-.04688-.10547-.04297-.10156-.04297-.0586-.08984-.04687-.10547-.02734-.11719.08984-.05859.11719-.03125.10156-.04297.17969-.11719.14844-.14843.01172-.13282-.01172-.10546-.08985-.0586-.1328.01563h-.14845l-.1328.01562-.13282-.01562-.1211-.03125-.08593-.0586-.07422-.07422-.0586-.08984-.0625-.08594-.11718-.17969-.0586-.08593.03125-.1211.08594-.05859.1211-.03125.05859-.08594v-.1211l-.03125-.11718-.0586-.08984-.05859-.08594-.04687-.10547-.02735-.11719-.01562-.1328.0586-.08985.07421-.07422.08984-.0586.1172-.17968.07421-.07422.0586-.08594.14843-.14844.1211-.03125.1328-.01562.13282.01562.07422.07422.04297.10547.01562.13281-.03125.1172-.11719.03124-.1328.01172-.14844.14844-.04297.10547-.04688.10156-.02734.1211-.03125.11718v.14844l.03125.11719.04297.10546.05859.08985.07422.07031.07422.07422.11719.03125.12109.02734.11719-.02734.1328-.01563h.1172l.08984.0586.07422.07422.04687.10546.0586.08594.10156.04688.13281.01562.10547.04297.08594.0586-.01172.10546-.07422.07422-.17969.11719-.05859.08984-.08984.0586-.07032.07422-.07421.07421-.0625.08985-.02735.11719-.01562.1328.01562.13282-.01562.13281v.14844l.01562.13281.02735.1172.03125.12108.07421.07422.08985.0586.08594.0586.08984.05858.11719.03125v.08594l-.10157.04688-.08984.0586-.26563.03124-.11718.02735h-.14844l-.10547.04296-.10156.04688-.0586.08984-.0625.23438-.01171.13281-.03125.1211-.01563.1328v.29298l-.01172.1328.01172.13673.01563.1328.1328.01563.13282.01172.1211.03125.08593.0586.07422.07421.04688.10547.04296.10157.01563.1328v.44532l-.01563.13281v.44532l.03125.26562.02735.11719.01562.13281.03125.11719.08594.21094.03125.26562v.14844l-.03125.11719-.02734.11718-.03125.1211-.02735.11719-.03125.11718-.03125.1211-.01171.1328-.01563.13282.08984.0586.1172-.03125.10155.01562.04688.10547-.03125.26562v.44141l-.04297.10547-.04688.10547-.04296.10156-.04297.10547-.0586.08594-.03125.12109-.04296.11719-.03125.11719-.01563.1328.01563.13282.05859.08984.10547.04688.08594.0586.05859.08593-.01172.13672-.03125.11719-.04297.10156v.44531l-.01562.13281v.14844l-.03125.11719-.04297.10547-.02735.11719-.04687.10546-.04297.10157-.03125.12109-.02734.11719-.03125.13281-.03125.11719-.02735.11719-.04297.10546-.03125.1172-.03125.12108-.01171.13282-.01563.13281v.29688l.02734.11718v.14844l.04688.39844.02734.11719.0586.08984.12109.03125h.14844l.13281-.01563.0586.08985v.11719l-.0586.08984-.08984.0586-.10157.04296-.10546.04688-.08985.05859-.08594.0586-.13671.01562-.1172-.03125-.1328-.01563-.10157.04688-.0625.08594-.01172.13671-.01562.13282-.03125.11719-.02735.11718-.01562.13281-.03125.1211v.29687l.01563.13282.03125.11718v.14844l.01171.13281v.14844l-.02734.11719-.04688.10156-.02734.1211-.03125.11718-.0586.08985-.07421.07421-.10156.04297-.10547.04688-.11719.02734-.1211.03125-.10156-.04687.0586-.08594.10547-.04688.02734-.11718.03125-.11719.02734-.1211.03125-.11718v-.14844l.01563-.13281-.03125-.11719-.04297-.10547-.10547.01563-.07422.07422-.10156.04296-.08984.0625-.07422.07422-.04297.10157-.01563.1328-.03125.1172L304.25 426l-.03125.11719-.02734.11719-.03125.12109-.02735.11719-.03125.11718-.04297.10547-.08984.0586h-.08984l-.1172-.03125-.03124-.08594.01562-.13672-.03125-.11719v-.14844l-.01171-.1328v-.14844l-.0625-.23438-.02735-.1211-.04297-.10156-.04687-.10546-.0586-.08594-.05859-.08985-.04297-.10546-.0625-.08594-.14844-.14844-.0703-.07422-.10548-.04687-.10547-.04297-.10156-.04297-.29687-.29688-.08985-.07421-.08594-.0586-.10546-.04297-.08985-.0625-.08594-.0586-.10546-.04296-.08985-.0586-.08594-.0625-.07421-.0703-.10547-.04688-.08594-.0586-.10547-.04296-.08984-.0625-.10156-.04297-.10547-.04297-.08594-.0586-.10547-.04687-.10547-.04297-.10156-.04687-.08985-.0586-.10156-.04297-.10547-.04296-.08984-.0625-.11719-.02735-.13281-.01562-.13281.01562H299.75l-.13281.01563-.11719-.03125-.08984-.0586-.07422-.07422-.08985-.05859-.10156-.04688h-.14844l-.12109-.02734-.10156-.04297-.07422-.07422-.11719-.17968-.08984-.0586-.10156-.04297-.08985-.0625-.10547-.04296-.08984-.0586-.08594-.0586-.10547-.04687-.0586-.08594-.05858-.08984-.04297-.10547-.04688-.10156-.07422-.07422-.08594-.0586-.07421-.07421-.08985-.0586-.22265-.22265-.04297-.10547-.03125-.26563.10547-.04296h.14453l.10547.04296.07421.07422.08985.0586.08594.0586.10546.04687.08985.05859.14844.14844.0703.07422.14845.14843.0625.08594.07421.07422.08594.0586.07422.07421.08985.0625.08984.0586.08594.05859.26953.17578.10156.04688.10547.04296.10156.04297.04688-.07421.05859-.08594.07422-.07422.07031-.07422.10547.04297.07422.07422.0586.08984.04296.10156.04688.10547.04296.10547.1211.02735.11719-.02735.07421-.08984.04297-.10547.0586-.08985.07422-.07421.10546-.04297.1172-.02735.1328.01172.08985.0586.14844.14843.05859.08985.04297.10547.04687.10156.04297.10547.04297.10156.10547.04688.10547.04296.13281.01563.08594-.0586.0586-.08984.07421-.07422.10547-.04297.11719.02735.10547.04687.10156.04297.10547.04297.10156.04688.17969.11718v.11719l-.01563.13281.01563.13281.01562.13672.0586.08594.10156.04688.1211.02734.11718.03125h.14844l.11719-.03125.05859-.08984.17969-.1172.05859-.08983.07422-.07422.0586-.08594.11718-.17969.17969-.11719.11719.03125.08984.0586.04297.07422-.01563.1328v.1172l.08985.05859h.14843l.13282-.01563.1328-.01171.26563-.03125.10547-.04297.11719-.03125.1211-.02735.07421-.07421.07031-.07422.0625-.08985-.01562-.10547-.04688-.10156-.10156-.04297-.10547-.01562-.11718.02734-.26563.03125h-.14844l-.07421-.07422-.08985-.0586-.11719-.03124-.11718-.02735-.13282-.01562h-.14843l-.13282.01563h-.29687l-.10547-.04688-.14844-.14844-.04297-.10156-.05859-.08984.22266-.22266.08593-.0586.10547-.04296.11719-.03125.13281-.01563.13281.01563.13672.01562.10157.04297.1328-.01172.08985-.0625.10156-.04297.0625-.08984-.04687-.10156-.08984-.0586-.1172-.03125-.10155-.04296-.0586-.08985-.0625-.08984v-.11719l.01563-.13281.10547-.04688.07421-.07031v-.1211l-.08984-.05859-.03125-.11719.08985-.05859.07421-.07422.04297-.10547.0586-.08984.04687-.10156.01563-.13281v-.14844l-.04688-.10547-.04297-.10156-.08984-.0586-.13281-.01562-.10157-.04297-.13671-.01563-.1172-.03125h-.4453l-.13282-.01562-.13281-.01172-.13281-.01563-.11719-.03125h-.14844l-.13281-.01562-.13281-.01172-.26563-.03125-.1211-.04297-.08593-.0586-.07422-.07421v-.14844l.01172-.13281.10547-.04688.10156-.04296.13281-.01563h.15235l.13281-.01562h.29297l.1211.03125.10156.04296.08984.0586.23438.0625.12109-.04688.08984-.05859.10156-.04297.13282-.01562.10547.04296.10156.04688.13281.01172.1211-.02735h.14453l.12109-.03125.11719-.02734.10547-.04687.07421-.07422.08594-.0586.14844-.14843.0586-.08594.04687-.10547.02734-.11719.01563-.10547-.10156-.04296-.08985-.0586-.11719-.03125-.10546-.04297-.08985-.0625-.07422-.08594-.07422-.07421-.10156-.04297-.10547-.04688-.10156-.04297-.0586-.08984-.04687-.10156-.08594-.21094-.0625-.08594-.05859-.08984-.07422-.07422-.08594-.0586h-.26953l-.11719.03126-.08984.05859-.10156.04297-.13281.01562-.10547-.01562-.02735-.11719-.0625-.08984-.11718-.03125-.10157-.04297-.14843-.14844-.03125-.11719-.01563-.10546.07422-.07422.17969-.1172.11719-.02733.11718-.03125.13672.01562.10156.04297.10547.04297.10156.04687.10547.04297.1172.03125.1328.01563.1172.02734.1328.01563.10547-.01563.08985-.0586-.07422-.07421-.10547-.04297-.07422-.07422-.07422-.08984-.14844-.14844-.08593-.0586-.08985-.05859-.07422-.07422-.08984-.0586-.10156-.04687-.1211-.02734-.10156-.04688-.10547-.04296-.11719-.03125-.10156-.04297-.1211-.03125h-.14843l-.11719.03125-.10546.04297-.08594.0625-.17969.11718-.08594.0586-.08984.0586-.10547.04687-.08594.05859-.10547.04297-.10156.04297-.10547.04687-.07422.07422-.05859.08985-.0586.08593-.04687.10547-.0586.08594-.07421.07422-.13281-.01172-.1172-.03125h-.11718l-.07422.07422-.08984.0586-.07422.07421-.08984.0586-.08594.05859-.10547.04687-.10156.04297-.13672.01563-.10156-.04297-.14844-.14844-.10547-.04688h-.08594l-.10547.04688-.10156.04297-.1211.03125-.11718-.03125-.07422-.07422v-.11719l.03125-.1211.07422-.0703.0586-.08985.07421-.07422.11719-.03125.10547-.04296h.29297l.13281-.01563.13672-.01563.10156-.04296.08985-.0586.10156-.04687.08984-.0586.13281-.01171.08985.05859.13281.01172.08984-.0586.08594-.05859.10547-.04297.08984-.0586.08594-.0625.08985-.05859.14843-.14843.0586-.08594.05859-.08985.10547-.04296.13281-.01563.11719.02735.1211.03125.05859-.0586.05859-.08984.03125-.26563.02734-.11719.10547.01172.13281.01563.10157-.04297.08984-.0586.0586-.08984.07421-.07422.0586-.08984.04687-.10156.01172-.13281-.01172-.13282-.04687-.10547-.14844-.14843-.0586-.08985-.05859-.08594-.04297-.10546v-.44532l.01563-.1328v-.14845l.01172-.1328-.0586-.0586-.08984.0586-.10156-.04298-.17969-.11719-.08594-.05859-.0625-.08984-.0586-.08985-.07421-.07421-.08594-.0586-.1211.03125-.10155.01172-.10547.04688-.08594.05859-.10547.04297-.14844.14844-.08984.05859-.08594.0586-.08984.0625-.10547.04296-.13281.01563v-.1211l.10547-.04297.11718-.03125.07422-.0703.04297-.10548v-.14844l-.02734-.11718-.14844-.14844-.13281-.01563h-.14844l-.11719.03125-.10547.04297-.10156.04297-.08984.0625-.11719.02735-.07422-.07422.01172-.13281-.04297-.10157-.04297-.10547-.08984-.05859-.11719.02734-.1211.03125-.11718.03125-.10156.04297-.1211.03125-.10156.04297-.10547.04297-.08984.0586-.10156.01562v-.11719l.01562-.13281-.0586-.08985-.07421.04297-.14844.14844-.0586.08985-.07421.07421-.04688.10547-.04296.10156-.07422.07422-.0586.08985-.07422.07422-.05859.08593-.07422.07422-.08984.0625-.07422.07031-.07422.07422-.10156.01563-.13281.01562-.10547-.04296v-.1211l.14843-.14844.04297-.10156.0586-.08984.04687-.10156.04297-.10547.0586-.08985.03124-.11719.04297-.10156.03125-.1211.02735-.11718.04687-.10547.04297-.10156.04297-.10547.07422-.07031.08984-.0625.08985-.0586.10156-.04296h.29687l.26563-.03125.10547-.04297-.07422-.07422-.11719-.03125-.10547-.04297-.08984-.0586-.10156-.04687-.08985-.0586-.10156-.04296-.10547-.04297-.08984-.0625-.08594-.0586-.10547-.04296-.10156-.04297-.1211-.03125-.11718-.03125-.10157-.04297L297.5 410.25l-.10156-.04297-.08985-.0586-.04296-.10546-.01563-.13281.10156-.04297.13281-.01563.13672.01563.13282-.01563.10156-.04297.0586-.08984.01562-.10547-.08985-.0586-.07421-.07421-.10157-.04297-.08984-.0586-.14844-.14843-.04297-.10547-.01562-.13281v-.29297l-.0586-.08985-.08984-.05859-.07422-.07422-.04297-.10547-.03125-.11718-.0586-.08985-.07421-.07422-.11719-.02734-.07422-.07422-.08984-.0586-.08984-.0625-.08594-.05859-.07422-.07421-.0586-.08594-.04687-.10547-.08594-.0586-.14843-.14843-.19532-.0586-.1328.01563-.10157.04297-.07422.07422-.04688.10156-.04296.10547-.0586.08984-.0586.08594-.29687.29687-.08984.0586h-.08594l-.0625-.08594-.04297-.10547.03125-.11719.0586-.08984.02734-.11719-.01172-.13281-.08984-.0625-.10547.04688-.11719.02734-.11719.03125-.26953.17578-.10156.04688-.11719.02734-.10546.04687-.08985.0586-.10156.04297-.0586-.08594-.04687-.10547.01563-.13281.04687-.10547.07031-.07422.07422-.07031.0586-.08985v-.14843l-.04297-.10547h-.23829l-.10156.04687-.03125.11719-.02734.11719-.03125.1211-.07422.04296-.13281.01563-.07422-.04688-.04297-.10156-.04297-.10547-.04687-.10156-.04297-.10547-.1211.03125-.10156.04297-.13281.01562-.11719.03125-.10547.04297-.08984.0586-.10156.04687-.1211.02734-.13281.01563-.10156-.04297-.0586-.08985-.04687-.10546-.04297-.10157-.04297-.10546v-.1172l.0586-.08984.08593-.05859.17969-.11719.10156-.04687.10547-.04297.10547-.0586.10156-.04296.08985-.0625.10156-.04297.10547-.0586.10156-.04687.08984-.0586.10547-.04296.10156-.04297.08985-.0625.10156-.04297.13672-.01563.11719.03125.10156.04297.1211.03125.10156.04297.10546.04688.10157.04296.10547.04297.10156.04688.10547.04297.10156.04297.10547.04687.08594.0586.10546.04296.1172.03125.10546.04297.10156.04688.08985.0586.10547.04296.10156.04297.10547.04687.11719.02735.10156.04687.1211.02735h.14843l.08594-.0586.01562-.10156.0586-.08984-.02735-.1172-.07422-.07421-.11719-.17969-.07421-.07422-.08985-.07421-.17969-.1172-.08593-.05859-.10547-.04296-.10156-.04688-.26954-.17578-.05859-.08985-.07422-.07421-.0586-.08985-.04296-.10156-.03125-.11719-.01563-.13672v-.5625l-.01171-.1328-.01563-.13282-.03125-.11719-.01562-.13281-.01172-.13281-.03125-.1211-.22266-.22265-.0586-.08594-.01562-.10547.03125-.11719.13281-.01562v-91.41406H172.9922v1.45312l-.0586.23438-.35156 1.05078-.17187.52343-.1172.34766-.17577.41016-.11719.17187-.23438.29297-.23046.0586h-.35157l-.11718.05859-.23047.40625v.29297l.11719.17578.23046.23047.1172.23437.64062.75781.29297.46485.17578.23437.23047.35156.23437.34766.64063.8164.17578.46485.17187.41016.11719.69531.17578.46875.11719 1.39844.0586.46484v.875l.11718 1.04688v4.78125l-.0586.46484-.35156 1.28125-.17578.52344-.11328.41015-.35156.9297L172.93359 336l-.23437.58203-.11719.17578-.17187.34766-.17578.40625-.35157.8164-.0586.29297-.11327.29297-.11719.28906-.0586.17579-.11718.875-.0586.40625-.05859.11718-.0586.17579-.05859.17187-.23047.52734-.11718.17188v.23437l-.11719.23438-.0586.17187-.17577.58594v.28906l-.0586.17579v.29296l-.0586.11329-.05859.52734v.17187l-.05468.23438v2.6211l-.17578.8164-.1172.17578-.17577.23438-.1172.17187-.11327.23438-.58594.93359-.23047.28906-.29297.46485-.17578.23437-.28906.35156-.35156.69922-.11328.23047-.17579.41016-.17578.23046-.40625.52735-.8164.69922-.29297.17187-.28906.23438-.17579.11719-.17578.17578-.52344.40625-.52734.17578-.17187.17578-.23438.05469-.64062.17578h-.75782m12.21094 31.02344l-1.07422.44921.35938.89454 1.25-.71485.44531-.53906-.98047-.08985"/><path fill="#d3d3d3" fill-opacity="0" fill-rule="evenodd" d="M201.50781 416.59766h-.89453l.44922.6289.98047.35938.80469-.08985.4453-.98828-.17577.08985-.71485-.35547-.89453.35547m154.6211 59.0703l-.0586-.52343v-.29297l.11328-.29297.0586-.23046.46875-.46875h.11328l.11719-.11329.11718-.05859h.17579l.23437-.0586h.34766l.23437.0586.11719.0586.23047.17187.0586.17578.11718.58203v.29297l-.11719.17578-.17187.28906-.17579.17579-.52734.52343-.23047.23438-.11719.0586h-.17578l-.11718-.0586-.40625-.29297-.17579-.11719-.11718-.0586-.0586-.11327-.05468-.1172m6.64062-10.95702l-.0586-.17188v-1.10937l.0586-.17188.17578-.0586.17188-.05858h.17578l.23437-.0586.1172.0586.05858.69921-.05859.17188-.11719.17578-.11718.0586-.23438.52343-.11328.0586h-.23438l-.05859-.1172m9.61328-14.39062l-.11719-.17578v-.69922l.29297-.875.1172-.17187.17577-.35156.11328-.23047.1172-.29297.35155-.75781.1172-.23047.17187-.23438h.17578l.11719-.0586h.64062l.11719.0586.23437.23438.17188.11328.35156.29297.11719.11718.11328.17579v.11328l.11719.05859.11718.11719v.69922l-.05859.17578v.23047l-.0586.17578-.34765 1.05078-.11719.23047-.11719.23437-.11718.0586-.23047.23437-.64063.28906h-.875l-.41015-.11718-.64063-.46485"/><path fill="none" stroke="#bebebe" stroke-linecap="round" stroke-linejoin="round" stroke-miterlimit="10" stroke-width=".5" d="M467.95703 311.69531H144.02734v168.625h323.9297v-168.625"/><g clip-path="url(#a)"><path fill="#fff" fill-opacity="0" fill-rule="evenodd" d="M144 475.89063v4.4375h.0039H144v-24.3047 19.8672"/></g><g clip-path="url(#b)"><path fill="#fff" fill-opacity="0" fill-rule="evenodd" d="M144 449.26172v3.27344-140.86329h.0039H144v137.58985"/></g><path fill="#50fcfc" fill-rule="evenodd" d="M144 452.53516v3.48828l.0039-.00781v-3.47657l-.0039-.0039"/><g clip-path="url(#c)"><path fill="#fff" fill-opacity="0" fill-rule="evenodd" d="M144.0039 480.32813v-24.3125l.90626-2.31641-.90625-1.16016V311.67187h84.32422v63.51954l-4.4375.76562-2.14063 2.28906 2.14063 2.59375 1.875 1.84375 2.5625 3.56641.72265.875 2.57031 4.4375-3.29297 1.14844-4.4375.52734-3.3164-1.67578 1.53125-4.4375-2.65234-2.67578-2.91797-1.76563-1.51953-1.49218-1.8711-2.94532-2.57031-2.53515-4.4375.98437-1.5586 1.55078 1.5586 2.65625.76953 1.78125 3.66797 2.88672 1.75 1.55469 2.6914 4.0586 1.26172.3789L217.6797 396l-2.66406 3.2461L212.80469 396l-2.23047-1.94922-4.4375-1.84765-1.17578-.64063-1.66016-4.4375-1.60156-1.5625-4.4375-.52734-3.51953-2.35157-.92188-1.04296-4.4375.2539-.51562.78906.51562.53516 1.6836 3.90625.92187 4.4375-2.60547 2.17188-4.4375-1.0625-4.4375-.04688-4.4414-.20313-4.4375-.22265-4.4375-.42188-4.4375-.05859-.90235-.15625-3.53515-3.95313-4.44141-.3203-1.75781-.16407-2.67969-.89453-.8164.89453-1.91016 4.4375 2.72656 2.95313.9961 1.48437-.9961.45313-3.88672 3.98437-.19531 4.4375.6836 4.4414 3.39843 3.40626 4.4375.5078 4.4414.10938 4.4375.2461.69141.16797 3.7461 3.15234 4.4375.19531 4.4375.14844 4.4414-.29688 3.74219-3.19921.69531-.26954 4.4375.01563 4.4375.07031.77344.1836 3.66797 2.68359 4.4375.34375 3.375 1.41016 1.0625.76171 4.4375 2.73829 3.28125-3.5 1.16016-.625 4.4375.3203.8203.3047 3.6172 2.5703 4.4375-.21093 4.4375-.35937 2.99609 2.4375 1.44531 1.46484 3.35938-1.46484 1.07812-.33985 4-4.09765.4375-1.28125 1.5625-3.15625-1.5625-3.35938-.15625-1.07812-.46484-4.44141-.23828-4.4375-3.57813-2.76563L240.16797 396l-2.96094-3.35547-3.32422-1.08203 3.32422-1.82813 1.89453-2.60937 1.32422-4.4414-3.21875-3.41016-3.33594-1.02735-1.10547-.92968-4.4375-2.125v-63.51954h26.62891v53.63672l-4.4375.28125-3.92187 3.78125-.51563.53125-4.4375.58594-3.9414 3.32031 3.9414 3.89844 4.4375-.05469v7.35157l-2.1211 2.12109 2.1211 2.11719 2.3086-2.11719-2.3086-2.1211v-7.35156l4.4375-.46484 4.4375-1.63281 2.22266-1.7461 2.21875-4.02343.3125-.41407-.3125-.28515-4.4414-3.77735v-53.63671h44.38671v83.69921l-.73438.62891-3.70703.90625-4.4375.51172-4.4375-1.08985-4.4375.31641-4.4375.08594-4.4414.83594-4.4375 1.84765-1.97656 1.02344-2.46094.78906-3.0586 3.64844-1.3789 2.80469-2.6836 1.63672 2.6836 1.53906 4.4375 2.27344 3.4414.625.9961.55468 4.4375 1.19532 4.4414 1.96484 1.46485.72266 2.97265 2.38671 4.25391 2.05079.1836.1328.33593-.1328 4.10156-1.4961 4.4375.50781 4.44141.26954 4.4375.16406 4.4375-.39063 4.4375-.55468 2.89453-2.9375 1.11719-4.4375.42969-1.44922 2.74218-2.98828-.98046-4.44141-1.76172-1.76563-4.44141.16407-1.73438 1.60156-2.70312.63281-4.4375-.01953-.9336-.61328.9336-2.02344 2.21484-2.41406-2.21484-3.13672L300.8125 396l-1.46875-.6289v-83.69923h31.0664v113.15235l-2.89452 2.2461 2.89453 2.16796 2.1289-2.16797-2.1289-2.2461V311.67189h13.3164v36.41406l-4.4375.85937-2.28515 2.67188 2.28515 2.70312 2.96875 1.73438 1.46875 1.11719 1.1914-1.1172 2.39454-4.4375-3.58594-3.53124v-36.41406h35.50781v111.25l-4.4414 3.28125-.76563.86718.76563 1.77735.1836 2.66015-.1836.78125-2.61719 3.65625-1.82031 1.01953-3.42969 3.41797-1.00781.83985-4.4375.92968-3.29297 2.66797-1.14453 1.10938-4.4414.2461-4.15626 3.08593-.28125.3125-3.17578 4.125 1.34375 4.4375 1.83203 1.82422.64844 2.61328 3.78906 3.76172 4.4414-.14453 4.4375-1.39844 2.44142-2.21875 1.99609-.98828 4.4375.2461 4.4375.10546 1.94922.63672 2.49219 2.28906 3.84375-2.28906.55078-4.4375.04296-.03125 4.4375-2.08985 2.90235-2.3164-.34766-4.4375-2.55469-2.41016-1.52734-2.03125-2.91015-3.16797-4.4375-1.125-.25391-.14453.2539-.1289 4.4375-1.42188 2.5-2.88672.86329-4.4375-3.36329-3.65625-.53515-.78125-3.90235-4.14844v-111.25h22.19141v115.27735l-.44922.1211.44922.13671.49219-.13672-.49219-.1211V311.67189h22.1914v97.92187l-4.4375.1875-4.4414 2.20703-1.70312 1.76563 1.21875 4.4375.48437 1.72656 4.4414.46484v2.66797l-4.4414.11719-2.4961 3.90234-1.9414 3.89063-4.27344.54687 4.27344.63672v5.5625l-2.83203 2.67578-.63672 4.4375 1.04297 4.4414-2.01172.39063-4.4375.19922-3.85937 3.84766 2.53906 4.4375 1.32031 1.375 2.07813 3.0625 2.35937 2.20312 4.4375-.84375 1.39063-1.35937 1.10937-4.4375-2.5-3.16016-.34765-1.27734.34765-1.8711 4.4375-.27343 2.2539-2.29297 1.5586-4.4414-3.8125-3.76563-1.98437-.67188-2.45313-2.67578v-5.5625l4.4375 1.01953 3.58203-1.65625.85938-.42187L423.61719 428l.86328-.92969-.86328-1.10937-4.4375-2.91016v-2.66797l.48437-2.1914 3.95313-.46875 3.97265-3.96875-3.97265-4.16016v-97.92188h44.3789v168.65625H144.00391"/></g><path fill="#50fcfc" fill-rule="evenodd" d="M144.91016 453.69922l-.90625 2.3164v-3.47656l.90625 1.16016m.1289-44.38281l-.6836-4.44141.19532-4.4375 3.88672-3.98438.9961-.45312-.9961-1.48438-2.72656-2.95312 1.91015-4.4375.81641-.89453 2.67969.89453 1.75781.16406 4.4414.32031 3.53516 3.95313.90235.15625 4.4375.0586 4.4375.42187 4.4375.22265 4.4414.20313 4.4375.04688 4.4375 1.0625 2.60547-2.17188-.92187-4.4375-1.6836-3.90625-.51562-.53516.51562-.78906 4.4375-.2539v5.26562l-.11328.21875.11328.33203v6.98828L191.63671 396l1.1836.32422.83203-.32422-.83203-1.55469v-6.98828l1.23047 4.10547L196.9375 396l-4.11719 1.60156-4.4375-1.11719L185.14062 396l-1.1953-.33594-4.4375-.77734-4.44141-.9375-4.4375-.54688-4.4375-1.05468-4.4375-.16407-3.53907-.62109-.89843-1.0039-4.44141-1.58594-4.4375 2.28515-.16016.30469.16016.17188L151.29297 396l-2.85547 1.30469-3.0586 3.13281-.48827 4.4375 1.70312 4.4414 1.84375 1.84766 4.4375 1.27344 4.4414.25781 4.4375.15235 3.7422.90625.6953.58593 4.4375.69922 4.4375.6211 4.44141-.65235 1.46485-1.2539 2.97265-1.15235 4.4375-.13281 4.4375.07031 4.4414 1.08203 4.4375-.36718 4.4375-.8711 1.46485 1.3711 2.5664 4.4375.40626.28125.26562-.28125 4.17578-2.2461 4.4375.45313 4.4375 1.39453 4.4375-.3711 4.4375-.60156 2.96875 1.3711 1.47266 1.23046 3.67969-1.23046.75781-.15235 3.0586-4.28515-.69922-4.4375-.67578-4.44141-1.6836-3.8789-.125-.5586L237.42187 396l-.21484-.24219-4.4414-2.23437L228.48047 396l-.15234.09766-1.4922-.09766-2.9453-.19922-.44532.19922-3.99219 1.0664-3.21875 3.3711-1.21875 2.41406-.71484-2.41406-3.72656-3.95313-1.0039-.48437-3.4336-2.44922-3.64453-1.98828-.79297-1.48047-4.4375-1.85547-4.0586-1.10156-.3828-.21875v-5.26563l.92187 1.04297 3.51953 2.35157 4.4375.52734 1.60156 1.5625 1.66016 4.4375 1.17578.64063 4.4375 1.84765L212.80469 396l2.21094 3.2461L217.67969 396l-1.40235-4.4375-1.26172-.3789-2.6914-4.0586-1.75-1.55469-3.66797-2.88672-.76953-1.78125-1.5586-2.65625 1.5586-1.55078 4.4375-.98437v4.53515l-.46875 2.4375.46875.3711.79687-.3711-.79687-2.4375v-4.53515l2.57031 2.53515 1.8711 2.94532 1.51953 1.49218 2.91797 1.76563 2.65234 2.67578-1.53125 4.4375 3.3164 1.67578 4.4375-.52734 3.29297-1.14844-2.5703-4.4375-.72267-.875-2.5625-3.5664-1.875-1.84376-2.14062-2.59375 2.14063-2.28906 4.4375-.76562v2.17578l-2.14844.8789 2.14844 2.10938 1.51171 2.32812 2.92578 3.28907 4.44141-.61329 1.39063-2.67578-1.39063-1.47265-4.4414-.79297-2.97657-2.17188-1.46094-.8789v-2.17578l4.4375 2.125 1.10547.92968 3.33594 1.02735 3.21875 3.41015-1.32422 4.44141-1.89453 2.60938-3.32422 1.82812 3.32422 1.08203L240.16797 396l1.47656 1.67188 3.57813 2.76562.23828 4.4375.46484 4.4414.15625 1.07813 1.5625 3.35938-1.5625 3.15625-.4375 1.28125-4 4.09765-1.07812.33985-3.35938 1.46484-1.44531-1.46484-2.9961-2.4375-4.4375.35937-4.4375.21094-3.61718-2.57031-.82031-.3047-4.4375-.3203-1.16016.625-3.28125 3.5-4.4375-2.73829-1.0625-.76171-3.375-1.41016-4.4375-.34375-3.66797-2.6836-.77344-.18359-4.4375-.07031-4.4375-.01563-.69531.26954-3.74219 3.19921-4.4414.29688-4.4375-.14844-4.4375-.19531-3.7461-3.15234-.6914-.16797-4.4375-.2461-4.44141-.10937-4.4375-.50781-3.39844-3.40625"/><path fill="#00e8fc" fill-rule="evenodd" d="M146.59375 409.3164l-1.70313-4.4414.48829-4.4375 3.05859-3.13281L151.29297 396l-2.85547-4.26563-.16016-.17187.16016-.30469 4.4375-2.28515 4.4414 1.58593v2.3086L153.78517 396l-.91016.28516-4.4375 2.43359-1.67578 1.71875-.98438 4.4375 2.66016 4.05078.77734.39063 3.66016 1.79687 4.4414.5039h4.4375l4.4375.95704 4.4375.00781 4.4375.52344 4.44141-.8086 4.4375-1.16406 4.4375-.3789 4.4375.05859 4.4414 1.5039 3.66798-3 .76953-2.1875 3.08203 2.1875 1.35547.53516 4.17187 3.90235.26563.41796 1.51172-.41796 2.92969-.53907 3.26953.53907 1.16797.16796.63671-.16796 3.80078-.7422 4.4375.48829 4.4375-.1289 4.44141.18359 3.84375-4.23828.08594-4.44141-1.45313-4.4375-2.47656-2.60156-4.4414-.16797-4.4375 2.5586-4.4375-2.94141-4.4375 2.34765-.77344.80469-1.21094 4.4375-2.45313 1.3164-1.10156-1.3164-1.04297-4.4375-2.29687-2.4336L206.42578 396l-.28906-.20703-4.4375-.73438-.83203.94141-2.3086 4.4375-1.29687 3.97656-2.8789-3.97656-1.5625-.70313-4.4375-.59765-4.4375-1.47266-4.4375-.04297-4.44141-.95312L173.3203 396l-2.6914-.59375-4.4375-2.10547-4.4375-.34375-4.4375-.08984v-2.3086l.89843 1.00391 3.53907.6211 4.4375.16406 4.4375 1.05468 4.4375.54688 4.4414.9375 4.4375.77734 1.19531.33594 3.2422.48438 4.4375 1.11718L196.9375 396l-2.88672-4.4375-1.23047-4.10547-.11328-.33203.11328-.21875.38281.21875 4.0586 1.10156 4.4375 1.85547.79297 1.48047 3.64453 1.98828L209.57032 396l1.0039.48438 3.72656 3.95312.71484 2.41406 1.21875-2.41406 3.21875-3.3711 3.9922-1.0664.4453-.19922 2.94532.19922 1.49219.09766.15234-.09766 4.28516-2.47656 4.4414 2.23437.21484.24219 4.09766 4.4375.125.5586 1.6836 3.8789.67578 4.4414.69922 4.4375-3.0586 4.28516-.75781.15235-3.67969 1.23046-1.47266-1.23046-2.96875-1.3711-4.4375.60156-4.4375.3711-4.4375-1.39453-4.4375-.45313-4.17578 2.2461-.26562.28125-.40625-.28125-2.5664-4.4375-1.46485-1.3711-4.4375.8711-4.4375.36718-4.4414-1.08203-4.4375-.07031-4.4375.13281-2.97266 1.15235-1.46485 1.2539-4.4414.65235-4.4375-.6211-4.4375-.69922-.69532-.58593-3.74218-.90625-4.4375-.15235-4.44141-.25781-4.4375-1.27344-1.84375-1.84765"/><path fill="#00d4fc" fill-rule="evenodd" d="M148.4375 408.92578l-2.66016-4.05078.98438-4.4375 1.67578-1.71875 4.4375-2.4336.91016-.28515 3.53125-3.13281 4.4375.08984v.77344l-4.4375.78125L155.6367 396l-2.76171.86328-4.4375 3.26953-.29688.30469-1.47265 4.4375 1.76953 2.69922 3.46484 1.74219.97266.47656 4.4414.75 4.4375-.15235 4.4375.82032 4.4375-.5 4.4375.08203 4.44141-.8711 4.4375-.2578 2.64453-.34766 1.79297-1.38282 4.4375-.16406.41016 1.54688 4.03125 1.6914 2.0664-1.6914-2.0664-2.58594L193.75 404.875l-.92969-1.1914-4.4375-.63282-2.125-2.61328-2.3125-.98438-4.4375.46875-4.4414.21094-4.4375-2.74219L169.40234 396l-3.21093-1.75-4.4375-.51953v-.77344l4.4375.34375 4.4375 2.10547 2.6914.59375 1.7461.66797 4.4414.95312 4.4375.04297 4.4375 1.47266 4.4375.59765 1.5625.70313 2.8789 3.97656 1.29688-3.97656L200.8672 396l.83203-.9414 4.4375.73437v1.16015l-4.4375 1.8047-1.01563 1.67968 1.01563 2.15625 4.4375 1.42188 2.2539.85937 2.1836 2.7461 2.46094 1.6953 1.98047 1.08204 4.4375-.1875 4.4375.96875 4.4375.96484 4.4375-.54687 4.4414-.53907 1.57813-1.74218 1.39062-4.44141-2.32812-4.4375-.64063-.67188-1.9375.67188-2.5039 1-4.4375.00781-1.83594-1.00781-2.60156-1.8086-2.94141 1.8086-.9375 4.4375-.5586 3.07422-4.4375.5-2.98437-3.57422-.58984-4.4375-.8672-.91406-4.4375-2.57031v-1.16016l.28907.20703 4.14844 2.0039 2.29687 2.4336 1.04297 4.4375 1.10156 1.3164 2.45313-1.3164 1.21094-4.4375.77344-.80469 4.4375-2.34765 4.4375 2.9414 4.4375-2.5586 4.4414.16798 2.47656 2.60156 1.45313 4.4375-.08594 4.4414-3.84375 4.23829-4.4414-.1836-4.4375.12891-4.4375-.48828-3.80079.74219-.63672.16796-1.16796-.16796-3.26953-.53907-2.9297.53907-1.51171.41796-.26563-.41796-4.17187-3.90235-1.35547-.53515-3.08203-2.1875-.76953 2.1875-3.66797 3-4.4414-1.50391-4.4375-.0586-4.4375.37891-4.4375 1.16406-4.44141.8086-4.4375-.52344-4.4375-.00781-4.4375-.95703h-4.4375l-4.44141-.5039-3.66016-1.79688-.77734-.39063"/><path fill="#00c4fc" fill-rule="evenodd" d="M148.4375 407.57422l-1.76953-2.69922 1.47266-4.4375.29687-.30469 4.4375-3.26953L155.63672 396l1.67969-1.48828 4.4375-.78125v.77344L157.51953 396l-.20312.05469-4.44141 1.38672-3.85547 2.99609-.58203 1.96094-.88281 2.47656.88281 1.34375 4.4375 2.67188 3.63281.42578.8086.15234 2.35547-.15234 2.08203-.08985 1.08593.08985 3.35157.52734 2.6914-.52734 1.7461-.69141 4.4375-2.67969.6914-1.07031-.6914-.49219-2.77735-3.94531-1.66015-1.07422L167.65625 396l-1.46484-.79688-4.4375-.69921v-.77344l4.4375.51953 3.21093 1.75 1.22657 1.39063 4.4375 2.74218 4.4414-.21094 4.4375-.46875v4.32813l-.85156 1.09375.85156.71875.82422-.71875-.82422-1.09375v-4.32813l2.3125.98438 2.125 2.61328 4.4375.63281.92969 1.19141 3.51172 1.85547v1.9961l-.91797.58984.91797.3828.46875-.3828-.46875-.58985v-1.9961l2.0664 2.58595-2.0664 1.6914-4.03125-1.6914-.41016-1.54688-4.4375.16406-1.79297 1.38282-2.64453.34765-4.4375.25781-4.4414.8711-4.4375-.08203-4.4375.5-4.4375-.82031-4.4375.15234-4.44141-.75-.97266-.47656-3.46484-1.7422"/><path fill="#00b8fc" fill-rule="evenodd" d="M148.4375 406.21875l-.88281-1.34375.88281-2.47656.58203-1.96094 3.85547-2.9961 4.4414-1.38671.20313-.05469 4.23438-1.4961v.77344L159.70703 396l-2.39062.64844-4.44141 1.3711-3.10938 2.41796-1.3203 4.4375 4.42968 3.34766 4.4414-.07813 4.4375.38672 4.4375.0664 4.4375-2.70312 1.3125-1.01953-1.3125-1.99219-.46093-2.44531-3.97656-4.26172-.65625-.17578-3.78125-.72266v-.77343l4.4375.69921 1.46484.79688 2.97266 3.36328 1.66015 1.07422 2.77735 3.94531.6914.49219-.6914 1.07031-4.4375 2.67969-1.7461.6914-2.6914.52735-3.35157-.52734-1.08593-.08985-2.08203.08985-2.35547.15234-.8086-.15234-3.63281-.42579-4.4375-2.67187"/><path fill="#00a8fc" fill-rule="evenodd" d="M152.875 408.22266l-4.42969-3.34766 1.32031-4.4375 3.10938-2.41797 4.4414-1.3711L159.70704 396l2.04688-.72266v.76563l-4.4375 1.19922-4.44141 1.35547-2.36719 1.83984-1.17969 4.4375 3.54688 2.67969 4.4414-.76953 4.4375 1.05468 4.4375-.41406 3.44532-2.55078-.48828-4.4375-2.95703-3.16797-4.4375-1.22656v-.76563l3.78125.72266.65625.17578 3.97656 4.26172.46094 2.44531 1.3125 1.99219-1.3125 1.01953-4.4375 2.70313-4.4375-.06641-4.4375-.38672-4.44141.07813"/><path fill="#009800" fill-rule="evenodd" d="M152.875 407.55469l-3.54688-2.67969 1.1797-4.4375 2.36718-1.83984 4.4414-1.35547 4.4375-1.19922v.69531l-4.4375 1.09766-4.4414 1.33984-1.625 1.26172-1.03516 4.4375 2.66016 2.01172 4.4414-1.46485 4.4375 1.72266 4.4375-.89062 1.85938-1.37891.08203-4.4375-1.9414-2.07813-4.4375-1.62109v-.69531l4.4375 1.22656 2.95703 3.16797.48828 4.4375-3.44531 2.55078-4.4375.41406-4.4375-1.05468-4.44141.76953"/><path fill="#00ac00" fill-rule="evenodd" d="M152.875 406.88672l-2.66016-2.01172 1.03516-4.4375 1.625-1.26172 4.4414-1.33984 4.4375-1.09766v.6914l-4.4375 1-4.4414 1.32032-.8789.6875-.89844 4.4375 1.77734 1.34375 3.41797-1.34375 1.02344-.66797.92968.66797 3.50782 1.57422 4.4375-1.36719.27734-.20703.64453-4.4375-.92187-.98828-4.4375-2.01953v-.6914l4.4375 1.62108 1.9414 2.07813-.08203 4.4375-1.85937 1.3789-4.4375.89063-4.4375-1.72265-4.44141 1.46484"/><path fill="#00c800" fill-rule="evenodd" d="M152.875 406.21875l-1.77734-1.34375.89843-4.4375.87891-.6875 4.4414-1.32031 4.4375-1v1.38672l-4.4375.80078-2.79296.82031-1.64844 4.3789-.00781.0586.00781.00781.01953-.00781 4.42188-2.89844 4.03125 2.89844.40625.1836.55859-.1836 2.46484-4.4375-3.02343-1.6211v-1.38671l4.4375 2.01953.92187.98828-.64453 4.4375-.27734.20703-4.4375 1.36719-3.50782-1.57422-.92968-.66797-1.02344.66797-3.41797 1.34375"/><path fill="#10cc00" fill-rule="evenodd" d="M152.875 404.88281l-.00781-.00781.00781-.0586 1.64844-4.3789 2.79297-.82031 4.4375-.80078v1.38671l-1.56641.23438 1.5664.72266.4375-.72266-.4375-.23438v-1.38671l3.02344 1.62109-2.46484 4.4375-.5586.1836-.40624-.1836-4.03125-2.89844-4.42188 2.89844-.01953.00781"/><path fill="#24d000" fill-rule="evenodd" d="M161.7539 401.16016l-1.5664-.72266 1.5664-.23438.4375.23438-.4375.72266"/><path fill="#00b8fc" fill-rule="evenodd" d="M183.94531 405.59375l-.85156-.71875.85156-1.09375.82422 1.09375-.82422.71875"/><path fill="#fff" fill-opacity="0" fill-rule="evenodd" d="M192.82031 394.44531L191.63671 396l1.1836.32422.83203-.32422-.83203-1.55469"/><path fill="#00b8fc" fill-rule="evenodd" d="M197.26172 409.69922l-.91797-.38281.91797-.58985.46875.58985-.46875.3828"/><path fill="#00c4fc" fill-rule="evenodd" d="M201.69922 402.59375l-1.01563-2.15625 1.01563-1.67969 4.4375-1.80469v1.05079l-3.6211 2.43359 3.6211 2.5 3.78906-2.5-3.78906-2.4336v-1.05077l4.4375 2.5703.86719.91407.58984 4.4375 2.98438 3.57422 4.4375-.5.55859-3.07422.9375-4.4375 2.9414-1.8086v1.34766l-.75.46094-2.0703 4.4375 2.71484 4.4414.10547.03126 4.4375 1.4414 4.4375-.96484 2.16406-.50781 2.27734-.5625 2.00781-3.87891-2.0078-3.38281-4.44142 2.16406-4.4375-1.14844-3.77343-2.07031-.66406-.46094v-1.34765l2.60156 1.80859 1.83594 1.00781 4.4375-.00781 2.5039-1 1.9375-.67188.64063.67188 2.32812 4.4375-1.39062 4.4414-1.57813 1.7422-4.4414.53906-4.4375.54687-4.4375-.96484-4.4375-.96875-4.4375.1875-1.98047-1.08203-2.46094-1.69532-2.1836-2.74609-2.2539-.85938-4.4375-1.42187"/><path fill="#00b8fc" fill-rule="evenodd" d="M206.13672 402.9375l-3.6211-2.5 3.6211-2.4336v1.0547l-2.05469 1.3789 2.05469 1.42188 2.15234-1.42188-2.15234-1.3789v-1.0547l3.78906 2.4336-3.78906 2.5"/><path fill="#00a8fc" fill-rule="evenodd" d="M206.13672 401.85938l-2.05469-1.42188 2.05469-1.3789v1.05077l-.49219.32813.49219.33984.51562-.33984-.51562-.32813v-1.05078l2.15234 1.37891-2.15234 1.42188"/><path fill="#009800" fill-rule="evenodd" d="M206.13672 400.77734l-.49219-.33984.49219-.32813.51562.32813-.51562.33984"/><path fill="#00e8fc" fill-rule="evenodd" d="M210.57422 383.05469l-.46875-.3711.46875-2.4375.79687 2.4375-.79687.3711"/><path fill="#00b8fc" fill-rule="evenodd" d="M223.78516 409.3164l-2.71485-4.4414 2.07031-4.4375.75-.46094v1.71875l-1.76171 3.17969 1.76172 2.79297 4.08593 1.64844.35156.11328.47266-.11328 2.77734-4.44141-3.25-1.30469-4.4375-1.875v-1.71875l.66407.46094 3.77344 2.07031 4.4375 1.14844 4.4414-2.16406v1.6211l-3.14062 1.76171 3.14062 2.02344 1.04688-2.02344-1.04688-1.76172v-1.6211l2.00781 3.38282-2.0078 3.8789-2.27735.5625-2.16406.50782-4.4375.96484-4.4375-1.4414-.10547-.03125"/><path fill="#00a8fc" fill-rule="evenodd" d="M223.89063 407.66797l-1.76172-2.79297 1.76172-3.17969v1.91016l-.70313 1.26953.70313 1.11719 4.4375-.21875.61328-.89844-.61328-.2461-4.4375-1.02343v-1.91016l4.4375 1.875 3.25 1.30469-2.77735 4.4414-.47266.11329-.35156-.11328-4.08594-1.64844"/><path fill="#009800" fill-rule="evenodd" d="M223.89063 405.99219l-.70313-1.11719.70313-1.26953 4.4375 1.02344.61328.24609-.61328.89844-4.4375.21875"/><path fill="#00e8fc" fill-rule="evenodd" d="M228.32813 380.35547l-2.14844-2.10938 2.14844-.8789 1.46093.8789 2.97656 2.17188 4.44141.79297 1.39063 1.47265-1.39063 2.67579-4.4414.61328-2.92579-3.28907-1.51172-2.32812"/><path fill="#00a8fc" fill-rule="evenodd" d="M237.20703 406.89844l-3.14062-2.02344 3.14062-1.76172v1.61719l-.26172.14453.26172.16797.08594-.16797-.08594-.14453v-1.61719l1.04688 1.76172-1.04688 2.02344"/><path fill="#009800" fill-rule="evenodd" d="M237.20703 405.04297l-.26172-.16797.26172-.14453.08594.14453-.08594.16797"/><path fill="#50fcfc" fill-rule="evenodd" d="M241.64453 377.70703l-3.9414-3.89844 3.9414-3.3203 4.4375-.58595.51563-.53125 3.92187-3.78125 4.4375-.28125v1.08594l-4.4375.1836-2.89453 2.79296-1.54297 1.58594-4.4375 1.28516-1.85937 1.5664 1.85937 1.83594 4.4375.96875 4.4375-1.02344 2.94531-1.78125 1.4922-.76171 3.29296-3.67579-3.29297-2.97656v-1.08594l4.4414 3.77735.3125.28515-.3125.41407-2.21874 4.02343-2.22266 1.7461-4.4375 1.63281-4.4375.46484-4.4375.0547"/><path fill="#00e8fc" fill-rule="evenodd" d="M241.64453 375.64453l-1.85937-1.83594 1.85937-1.5664 4.4375-1.28516 1.54297-1.58594 2.89453-2.79296 4.4375-.1836v1.8125l-4.4375.01563-1.1875 1.14843-3.25 3.34375-2.54297 1.09375 2.54297 1.07813 2.90234-1.07813 1.53516-1.42578 4.4375-1.57422 1.28906-1.4375-1.28906-1.16406v-1.8125l3.29297 2.97656-3.29297 3.67579-1.49219.76171-2.9453 1.78125-4.4375 1.02344-4.4375-.96875"/><path fill="#00d4fc" fill-rule="evenodd" d="M246.08203 374.88672l-2.54297-1.07813 2.54297-1.09375 3.25-3.34375 1.1875-1.14843 4.4375-.01563 1.28906 1.16406-1.28906 1.4375-4.4375 1.57422-1.53516 1.42578-2.90234 1.07813"/><path fill="#50fcfc" fill-rule="evenodd" d="M246.08203 389.24219l-2.1211-2.11719 2.1211-2.1211 2.3086 2.1211-2.3086 2.11719m13.3164 21.61328l-2.68359-1.53906 2.6836-1.63672 1.3789-2.80469 3.0586-3.64844 2.46094-.78906 1.97656-1.02344 4.4375-1.84765 4.4414-.83594 4.4375-.08594 4.4375-.3164v.78906l-4.4375.57031-4.4375 1.2461-4.4414 1.02343-.89453.48047-3.54297 2.65625-4.4375 1.30078-.40235.48047-2.23046 4.4414 2.6328 1.91798 4.4375.26953 4.4375 1 2.81641 1.25 1.625 1.03515 4.4375 1.9336 4.4375 1.10156 4.4375-.48438 4.4375-.67578 1.96094 1.52735 2.48047 1.68359 4.4375.46484 4.4375-.33593 4.4375-1.33594.47266-.47656 2.70312-4.4375 1.26563-4.28125.14062-.15625-.14062-.39844-4.44141-3-4.4375.69922-4.4375.23828L300.75 404.875l2.15234-4.4375-3.55859-3.01953-4.4414 1.13672-4.4375 1.3125-4.4375-2.75v-.78906l4.4375 1.08984 4.4375-.51172L298.60936 396l.73438-.6289 1.46875.6289 2.96875 1.30078 2.21484 3.13672-2.21484 2.41406-.9336 2.02344.9336.61328 4.4375.01953 2.70313-.63281 1.73437-1.60156 4.4414-.16406 1.76173 1.76562.98046 4.4414-2.74218 2.98829-.4297 1.44922-1.11718 4.4375-2.89453 2.9375-4.4375.55468-4.4375.39063-4.4375-.16406-4.4414-.26954-4.4375-.5078-4.10157 1.49609-.33594.1328-.18359-.1328-4.2539-2.05079-2.97266-2.38671-1.46485-.72266-4.4414-1.96484-4.4375-1.19532-.9961-.55468-3.4414-.625-4.4375-2.27344"/><path fill="#00e8fc" fill-rule="evenodd" d="M263.83594 411.23438l-2.63281-1.91797 2.23046-4.44141.40235-.48047 4.4375-1.30078 3.54297-2.65625.89453-.48047 4.4414-1.02344 4.4375-1.24609 4.4375-.57031v1.3125l-4.4375.98828-2.21875 1.01953-2.21875 2.09375-4.4414 1.23828-1.33594 1.10547 1.09766 4.4414.23828.08204.3086-.08203 4.1328-1.57813 1.69922 1.57813 2.73828 2.51171 4.4375 1.62891 1.25782.29688 3.17968.82812 2.41016-.82812 2.02734-.36329 4.44141-.76953.4961 1.13282 3.9414 4.03125 4.4375.16406 4.4375-1.5664 1.78516-2.62891-.90235-4.4375-.88281-.66016-4.4375-.1836-4.4375.66798-4.4375-2.54297-1.19922-1.72266 1.19922-3.60156.4336-.83594-.4336-.36719-1.35938.36719-3.08203.72656-4.4375.22656-1.59375-.95312-2.84375-2.00781v-1.3125l4.4375 2.75 4.4375-1.3125 4.44141-1.13672 3.5586 3.01953-2.15235 4.4375 3.03125 1.98047 4.4375-.23828 4.4375-.69922 4.4414 3 .14063.39844-.14062.15625-1.26563 4.28125-2.70312 4.4375-.47266.47656-4.4375 1.33594-4.4375.33593-4.4375-.46484-2.48047-1.6836-1.96094-1.52734-4.4375.67578-4.4375.48438-4.4375-1.10156-4.4375-1.9336-1.625-1.03515-2.8164-1.25-4.4375-1-4.4375-.26954"/><path fill="#00d4fc" fill-rule="evenodd" d="M272.47266 409.3164l-1.09766-4.4414 1.33594-1.10547 4.4414-1.23828 2.21875-2.09375 2.21875-1.01953 4.4375-.98828v1.3125l-2.5.69531-1.9375 1.22656-3.3789 3.21094 3.3789 3.21484 1.70704 1.22657 2.73046 1.64453 4.4375 1.25 4.4375-.24219 4.3086-2.65234-3.07422-4.44141-1.23438-1.41016-4.4375-.96484-3.45312-2.0625-.98438-.69531v-1.3125l2.84375 2.00781 1.59375.95313 4.4375-.22657 3.08204-.72656 1.35937-.36719.4336.36719-.4336.83594-1.19922 3.60156 1.19922 1.72266 4.4375 2.54296 4.4375-.66796v1.26953l-4.4375 1.22656-2.39844 2.78516 2.39844 2.45312 4.4375 1.05469 4.4375-2.92578.39453-.58203-.39453-1.20704-4.4375-2.80468v-1.26953l4.4375.18359.88281.66016.90235 4.4375-1.78516 2.6289-4.4375 1.5664-4.4375-.16405-3.9414-4.03125-.4961-1.13282-4.4414.76954-2.02735.36328-2.41016.82812-3.17968-.82812-1.25782-.29688-4.4375-1.6289-2.73828-2.51172-1.69922-1.57813-4.1328 1.57813-.3086.08203-.23828-.08203"/><path fill="#00c4fc" fill-rule="evenodd" d="M281.58984 408.08984l-3.3789-3.21484 3.3789-3.21094 1.9375-1.22656 2.5-.69531v1.69531l-4.4375 3.19922-.2539.23828.2539.24219 4.4375 3.42187 2.32032.77735 2.11718.68359 4.4375.54297 1.9961-1.22656-1.9961-3.06641-1.11718-1.375-3.32032-1.26563-4.4375-2.17187v-1.69531l.98438.69531 3.45312 2.0625 4.4375.96484 1.23438 1.41016 3.07422 4.4414-4.3086 2.65235-4.4375.24219-4.4375-1.25-2.73046-1.64453-1.70704-1.22657"/><path fill="#00b8fc" fill-rule="evenodd" d="M281.58984 405.11719l-.2539-.24219.2539-.23828 4.4375-3.19922v2.13672l-1.76953 1.30078 1.76953 1.39063 4.4375-.6211.41797-.76953-.41797-.16016-4.4375-1.14062v-2.13672l4.4375 2.17188 3.32032 1.26562 1.11718 1.375 1.9961 3.0664-1.9961 1.22657-4.4375-.54297-2.11718-.6836-2.32032-.77734-4.4375-3.42187"/><path fill="#00a8fc" fill-rule="evenodd" d="M286.02734 406.26563l-1.76953-1.39063 1.76953-1.30078 4.4375 1.14062.41797.16016-.41797.76953-4.4375.6211"/><path fill="#00c4fc" fill-rule="evenodd" d="M303.78125 416.20703l-2.39844-2.45312 2.39844-2.78516 4.4375-1.22656v.78515l-4.4375 2.23438-.85547.99219.85547.87109 4.4375 1.95313L312 413.7539l-3.78125-3.22657v-.78515l4.4375 2.80469.39453 1.20703-.39453.58203-4.4375 2.92578-4.4375-1.05469"/><path fill="#00b8fc" fill-rule="evenodd" d="M303.78125 414.625l-.85547-.8711.85547-.99218 4.4375-2.23438v.78125l-3.88281 2.44532 3.88281 2.13671 2.86328-2.13671-2.86328-2.44532v-.78125L312 413.75391l-3.78125 2.82421-4.4375-1.95312"/><path fill="#00a8fc" fill-rule="evenodd" d="M308.21875 415.89063l-3.88281-2.13672 3.88281-2.44532v.78516l-2.63672 1.66016 2.63672 1.45312 1.94531-1.45312-1.94531-1.66016v-.78516l2.86328 2.44532-2.86328 2.13671"/><path fill="#009800" fill-rule="evenodd" d="M308.21875 415.20703l-2.63672-1.45312 2.63672-1.66016v.78516l-1.39063.875 1.39063.76562 1.02734-.76562-1.02734-.875v-.78516l1.94531 1.66016-1.94531 1.45312"/><path fill="#00ac00" fill-rule="evenodd" d="M308.21875 414.51953l-1.39063-.76562 1.39063-.875v.78125l-.14453.09375.14453.07812.10938-.07812-.10938-.09375v-.78125l1.02734.875-1.02734.76562"/><path fill="#00c800" fill-rule="evenodd" d="M308.21875 413.83203l-.14453-.07812.14453-.09375.10938.09375-.10938.07812"/><path fill="#50fcfc" fill-rule="evenodd" d="M330.41016 429.23828l-2.89454-2.16797 2.89454-2.2461 2.1289 2.2461-2.1289 2.16797m8.8789-74.91797l-2.28515-2.70312 2.28515-2.67188 4.4375-.85937v1.4414l-3.6914 2.08985 3.6914 2.89062 2.1211-2.89062-2.1211-2.08985v-1.4414l3.58594 3.53125-2.39453 4.4375-1.1914 1.11719-1.46876-1.1172-2.96875-1.73437"/><path fill="#00e8fc" fill-rule="evenodd" d="M343.72656 354.50781l-3.6914-2.89062 3.6914-2.08985 2.1211 2.08985-2.1211 2.89062"/><path fill="#50fcfc" fill-rule="evenodd" d="M346.33203 458.13672l-1.34375-4.4375 3.17578-4.125.28125-.3125 4.15625-3.08594 4.4414-.2461 1.14454-1.10937 3.29297-2.66797 4.4375-.92968 1.00781-.83985 3.42969-3.41797 1.82031-1.01953 2.61719-3.65625.1836-.78125-.1836-2.66015-.76563-1.77735.76563-.86719 4.4414-3.28125v1.57422l-2.90625 2.57422-.46875 4.4375-.9414 4.4375-.125.6289-4.4375 1.92579-1.89063 1.88281-2.54687 2.1211-4.4375 2.30859-.01563.00781-4.42187 4.26563-4.4414-.3789-.7422.55468-3.6953 4.1289-.23829.3086.23828.5 1.23047 3.9375.67188 4.4375 2.53515 2.51562 4.4414-.49218 3.30079-2.02344-1.70703-4.4375-1.59375-3.17578-4.4414-1.19531-1.06641-.06641 1.0664-.46875 4.4414-2.57031.19532-1.39844 4.24219-4.42188v3.73438l-.65625.6875-.49219 4.4375 1.14844 1.7539 2.27344-1.7539 2.16406-2.02344.42969-2.41406-.4297-.49219-4.4375-.19531v-3.73438l4.4375 2.52344 1.66798 1.89844-.42578 4.4375-1.2422 2.39062-2.36718 2.04688 2.36719 1.30469 4.4375 1.0039 4.4375.11328 4.4414 1.61329 3.52735-4.03516.91015-.73047 4.07032-3.70703-.38672-4.4375-3.6836-4.13672-.53125-.30469-3.90625-2.40625-3.55468-2.03125 3.55469-1.8164 3.55859-2.6211.8789-1.59375 1.3672-2.84375-1.3672-1.48437-2.01562-2.95313-2.42188-2.57422v-1.57421l3.90235 4.14843.53515.78125 3.36329 3.65625-.86329 4.4375-2.5 2.88672-4.4375 1.42188-.2539.1289.2539.14453 4.4375 1.125 2.91016 3.16797 1.52735 2.03125 2.55468 2.41016.34766 4.4375-2.90235 2.3164-4.4375 2.08985-.04296.03125-.55079 4.4375-3.84375 2.28906-2.49218-2.28906-1.94922-.63672-4.4375-.10547-4.4375-.2461-1.9961.98829-2.4414 2.21875-4.4375 1.39844-4.4414.14453-3.78907-3.76172-.64844-2.61328-1.83203-1.82422"/><path fill="#00e8fc" fill-rule="evenodd" d="M348.16406 454.19922l-.23828-.5.23828-.3086 3.69531-4.1289.7422-.55469 4.4414.3789 4.42187-4.26562.01563-.00781 4.4375-2.3086 2.54687-2.12109 1.89063-1.88281v2.6875l-4.4375 3.45313-.34766.17968.34766.20313 3.73047 4.23828.4336 4.4375.27343 4.26953.27734.16797 4.16016.125 4.4414 2.25781 2.08204-2.38281 2.35546-1.89453 2.79297-2.54297-1.6953-4.4375-1.09767-1.23438-4.4375-2.71093-.35937-.4961-4.08203-3.375-4.4375-.25781V438.5l4.4375-1.92578.125-.6289.9414-4.4375.46875-4.4375 2.90625-2.57423v2.63672l-1.89843 4.375 1.89844 4.21094 3.04296-4.21094-3.04296-4.375v-2.63672l2.42187 2.57422 2.01563 2.95313 1.36718 1.48437-1.36719 2.84375-.8789 1.59375-3.5586 2.6211-3.55468 1.8164 3.55469 2.03125 3.90625 2.40625.53125.30469 3.68359 4.13672.38672 4.4375-4.07031 3.70703-.91016.73047-3.52735 4.03515-4.4414-1.61328-4.4375-.11328-4.4375-1.0039-2.36719-1.3047 2.36719-2.04687 1.24219-2.39062.42578-4.4375-1.66797-1.89844-4.4375-2.52344-4.24219 4.42188-.19531 1.39844-4.4414 2.5703-1.06641.46876 1.0664.0664v4.35157l-.01562.01953-.42188 4.4375.4375.4375 2.08203-.4375-2.05468-4.4375-.02735-.01953v-4.35156l4.4414 1.1953 1.59376 3.17579 1.70703 4.4375-3.30078 2.02344-4.4414.49218-2.53516-2.51562-.67188-4.4375-1.23047-3.9375"/><path fill="#00d4fc" fill-rule="evenodd" d="M352.60156 463.01172l-.4375-.4375.42188-4.4375.01562-.01953.02735.01953 2.05468 4.4375-2.08203.4375"/><path fill="#fff" fill-opacity="0" fill-rule="evenodd" d="M360.82422 449.26172l-.49219 4.4375 1.14844 1.7539 2.27344-1.7539 2.16406-2.02344.42969-2.41406-.4297-.49219-4.4375-.19531-.65624.6875"/><path fill="#00d4fc" fill-rule="evenodd" d="M365.91797 445.02344l-.34766-.20313.34766-.17969 4.4375-3.45312 4.4375.25781v1.26563l-4.4375 1.51562-.78125.59375.78125 1.01953 4.4375.6836v1.01953l-3.6836 1.71875 3.6836 2.875 2.10937-2.875-2.10937-1.71875v-1.01953l3.36719 2.73828-3.0586 4.4375 2.71875 4.4375 1.41406.72656.63672-.72656 3.80079-3.0586 1.51562-1.3789-1.51563-2.98828-1.78515-1.44922-2.65235-1.82031-1.89062-2.6211-2.55078-2.10937v-1.26563l4.08203 3.375.35938.4961 4.4375 2.71093 1.09765 1.23438 1.69531 4.4375-2.79296 2.54297-2.35547 1.89453-2.08204 2.38281-4.4414-2.25781-4.16016-.125-.27734-.16797-.27344-4.26953-.4336-4.4375-3.73046-4.23828"/><path fill="#00c4fc" fill-rule="evenodd" d="M370.35547 445.83984l-.78125-1.01953.78125-.59375 4.4375-1.51562v1.26562l-2.00781.84375 2.0078.6836 1.01954-.6836-1.01953-.84375v-1.26562l2.55078 2.10937 1.89063 2.6211v3.70703l-.67188 2.55078.67188 1.14062 4.4375-.92578.23828-.21484-.23829-.46875-4.4375-2.08203v-3.70703l2.65235 1.8203 1.78515 1.44923 1.51563 2.98828-1.51563 1.3789-3.80078 3.0586-.63671.72656-1.41407-.72656-2.71875-4.4375 3.0586-4.4375-3.3672-2.73828-4.4375-.6836"/><path fill="#00e8fc" fill-rule="evenodd" d="M374.79297 447.54297l-3.6836 1.71875 3.6836 2.875 2.10937-2.875-2.10937-1.71875v1.02344l.85547.6953-.85547 1.16407-1.49219-1.16406 1.49219-.69531v-1.02344"/><path fill="#00b8fc" fill-rule="evenodd" d="M374.79297 445.5039l-2.00781-.68359 2.0078-.84375 1.01954.84375-1.01953.6836"/><path fill="#50fcfc" fill-rule="evenodd" d="M374.79297 448.5664l-1.49219.69532 1.49219 1.16406.85547-1.16406-.85547-.69531v.60937l.10156.08594-.10156.13672-.17578-.13672.17578-.08594v-.60937"/><path fill="#fff" fill-opacity="0" fill-rule="evenodd" d="M374.79297 449.17578l-.17578.08594.17578.13672.10156-.13672-.10156-.08594"/><path fill="#00d4fc" fill-rule="evenodd" d="M379.23438 435.71875l-1.89844-4.21094 1.89844-4.375v3.40235l-.42188.97265.42188.9336.67578-.9336-.67579-.97265v-3.40235l3.04297 4.375-3.04296 4.21094"/><path fill="#00b8fc" fill-rule="evenodd" d="M379.23438 454.83984l-.67188-1.14062.67188-2.55078 4.4375 2.08203.23828.46875-.23829.21484-4.4375.92578"/><path fill="#00c4fc" fill-rule="evenodd" d="M379.23438 432.4414l-.42188-.93359.42188-.97265.67578.97265-.67579.9336"/><path fill="#50fcfc" fill-rule="evenodd" d="M400.10547 458.13672l-2.53906-4.4375 3.85937-3.84766 4.4375-.19922v1.0586l-4.4375.0664-2.92969 2.92188 2.9297 3.59375 1.18358.84375 3.25391 3.79687 4.05469-3.79687-1.03516-4.4375-3.01953-2.98828v-1.0586l2.01172-.39062-1.04297-4.4414.63672-4.4375 2.83203-2.67579v3.26563l-1.92187 3.84765 1.92187 3.07813 4.4375.8711 2.77735-3.94923-2.77735-2.74219-4.4375-1.10546v-3.26563l2.45313 2.67578 1.98437.67188 3.8125 3.76562-1.5586 4.4414-2.2539 2.29298-4.4375.27344-.34765 1.87109.34765 1.27734 2.5 3.16016-1.10937 4.4375-1.39063 1.35937-4.4375.84375-2.35937-2.20312-2.07813-3.0625-1.32031-1.375"/><path fill="#00e8fc" fill-rule="evenodd" d="M401.42578 457.29297l-2.92969-3.59375 2.9297-2.92188v1.54297l-1.38282 1.3789 1.38281 1.69532 3.84375 2.74219.59375.6914.74219-.6914.49219-4.4375-1.23438-1.22266-4.4375-.15625v-1.54297l4.4375-.0664 3.01953 2.98828 1.03516 4.4375-4.05469 3.79687-3.2539-3.79687-1.1836-.84375"/><path fill="#00d4fc" fill-rule="evenodd" d="M401.42578 455.39453l-1.38281-1.69531 1.38281-1.3789 4.4375.15624 1.23438 1.22266-.4922 4.4375-.74218.6914-.59375-.6914-3.84375-2.74219"/><path fill="#50fcfc" fill-rule="evenodd" d="M401.42578 427.20703l-.44922-.13672.44922-.1211.49219.1211-.49219.13672m8.875 4.9375l-4.27344-.63672 4.27344-.54687 1.9414-3.89063 2.4961-3.90234 4.4414-.11719 4.4375 2.91016.86329 1.10937-.86328.92969-4.4375 3.08594-.85938.42187-3.58203 1.65625-4.4375-1.01953"/><path fill="#00e8fc" fill-rule="evenodd" d="M410.30078 447.89844l-1.92187-3.07813 1.92187-3.84765 4.4375 1.10546v1.70313l-3.13672 1.03906 3.13672 1.4961 1.05469-1.4961-1.05469-1.03906v-1.70313l2.77735 2.7422-2.77735 3.94921-4.4375-.8711"/><path fill="#00d4fc" fill-rule="evenodd" d="M414.73828 446.3164l-3.13672-1.49609 3.13672-1.03906 1.05469 1.03906-1.05469 1.4961"/><path fill="#50fcfc" fill-rule="evenodd" d="M414.2539 418.1914l-1.21874-4.4375 1.70312-1.76562 4.4414-2.20703 4.4375-.1875v.75l-4.4375.35938-3.76952 3.05078 3.76953 3.47265 4.4375-.21875 3.25781-3.2539-3.25781-3.41016v-.75l3.97265 4.16016-3.97265 3.96875-3.95313.46875-.48437 2.1914-4.4414-.46484-.48438-1.72656"/><path fill="#00e8fc" fill-rule="evenodd" d="M419.17969 417.22656l-3.76953-3.47265 3.76953-3.05079 4.4375-.35937v1.2461l-4.4375.65234-1.86719 1.51172 1.86719 1.71875 4.4375.34375 2.0664-2.0625-2.0664-2.16407v-1.24609l3.25781 3.41016-3.25781 3.2539-4.4375.21875"/><path fill="#00d4fc" fill-rule="evenodd" d="M419.17969 415.47266l-1.86719-1.71875 1.86719-1.51172 4.4375-.65235v1.25l-4.33203.91407 4.33203.87109.875-.8711-.875-.91406v-1.25l2.0664 2.16407-2.0664 2.0625-4.4375-.34375"/><path fill="#00c4fc" fill-rule="evenodd" d="M423.61719 414.625l-4.33203-.8711 4.33203-.91406.875.91407-.875.87109"/><g clip-path="url(#d)"><path fill="#fff" fill-opacity="0" fill-rule="evenodd" d="M467.9961 480.32813H468V311.67188h-.0039H468v168.65625h-.0039"/></g><path fill="#fff" fill-opacity="0" fill-rule="evenodd" d="M371.21875 465.21875l5.04297 2.95313 5.03125-8.59766-5.03906-2.94922-5.03516 8.59375"/><path fill-rule="evenodd" d="M378.34766 459.97266l.4375.2578-3.1797 5.4336-.67968-.39844 2.26953-3.875-1.19922-.69921.28125-.48047.51563.22656.2461.08203.24218.03906.2461-.01953.2578-.09375.26954-.1836.29297-.28905"/><path fill="#fff" fill-opacity="0" fill-rule="evenodd" d="M149.03906 392.0586l5.82031.48437.82422-9.92578-5.8203-.48438-.82423 9.92578"/><path fill-rule="evenodd" d="M153.19922 384.25l.50781.04297-.52344 6.27344-.78515-.06641.375-4.47266-1.38281-.11718.04296-.55079.56641-.01953.2539-.03125.23829-.0703.21094-.125.1914-.19532.16797-.28125.13672-.38672"/><path fill="#fff" fill-opacity="0" fill-rule="evenodd" d="M214.58594 390.28906l2.19531 5.41406 9.23047-3.74218-2.19531-5.41406-9.23047 3.74218"/><path fill-rule="evenodd" d="M223.42969 390.47656l.1914.47266-5.83203 2.36719-.29687-.73047 4.16015-1.6875-.51953-1.28516.51563-.21094.26953.4961.14453.21094.16797.17968.20703.13672.26172.08203.32422.01953.40625-.05078"/><path fill="#fff" fill-opacity="0" fill-rule="evenodd" d="M169.69531 400.60938l7.59766 2.25 2.89453-9.77344-7.59766-2.25-2.89453 9.77344"/><path fill-rule="evenodd" d="M174.44922 393.29688l3.15234.93359-.21094.71094-2.53125-.75-.73437 1.66406.26563-.08985.29687-.05078.33203.00782.3789.07812.3047.11719.29687.17578.28125.23828.23438.29297.17968.35547.0625.19922.04297.21484.01563.23047-.00782.2461-.03906.26171-.0664.27344-.16016.41406-.21875.375-.27344.3164-.32812.25782-.3711.1836-.20703.0625-.21484.03906-.22266.01562-.23828-.00781-.24219-.03516-.2539-.0625-.4375-.16796-.35547-.21094-.27344-.25-.20313-.28516-.13671-.3125-.08203-.33594-.02735-.35156.01563-.36719.7578.22657.00782.24218.03906.23047.06641.20703.09766.19141.125.16406.15625.14063.18359.11328.21875.08594.3086.0664.28906.01172.26953-.04687.2461-.10157.21874-.16015.1914-.21485.16016-.27734.125-.33594.0547-.25781.01952-.26563-.03125-.26953-.07422-.26171-.1289-.23829-.1875-.21484-.2461-.17578-.3164-.1289-.33594-.0625-.30078.02343-.3125.10156-.375.17188-.66797-.19922 1.41797-3.15235"/><g clip-path="url(#e)"><path fill="none" stroke="#000" stroke-linecap="round" stroke-linejoin="round" stroke-miterlimit="10" stroke-width=".5" d="M146.65625 482.6289l-5.3125-4.60156"/></g><g clip-path="url(#f)"><path fill="none" stroke="#000" stroke-linecap="round" stroke-linejoin="round" stroke-miterlimit="10" stroke-width=".5" d="M160.16797 482.38281l-5.70313-4.10547"/></g><g clip-path="url(#g)"><path fill="none" stroke="#000" stroke-linecap="round" stroke-linejoin="round" stroke-miterlimit="10" stroke-width=".5" d="M173.3789 482.51953l-5.49609-4.38281"/></g><g clip-path="url(#h)"><path fill="none" stroke="#000" stroke-linecap="round" stroke-linejoin="round" stroke-miterlimit="10" stroke-width=".5" d="M186.59375 482.63672l-5.29688-4.61328"/></g><g clip-path="url(#i)"><path fill="none" stroke="#000" stroke-linecap="round" stroke-linejoin="round" stroke-miterlimit="10" stroke-width=".5" d="M200.04297 482.47266l-5.5664-4.28907"/></g><g clip-path="url(#j)"><path fill="none" stroke="#000" stroke-linecap="round" stroke-linejoin="round" stroke-miterlimit="10" stroke-width=".5" d="M213.50781 482.26172l-5.86719-3.86719"/></g><g clip-path="url(#k)"><path fill="none" stroke="#000" stroke-linecap="round" stroke-linejoin="round" stroke-miterlimit="10" stroke-width=".5" d="M226.63672 482.51953l-5.49219-4.3789"/></g><g clip-path="url(#l)"><path fill="none" stroke="#000" stroke-linecap="round" stroke-linejoin="round" stroke-miterlimit="10" stroke-width=".5" d="M240.02734 482.41797l-5.64453-4.17969"/></g><g clip-path="url(#m)"><path fill="none" stroke="#000" stroke-linecap="round" stroke-linejoin="round" stroke-miterlimit="10" stroke-width=".5" d="M253.82813 481.51172l-6.6172-2.36328"/></g><g clip-path="url(#n)"><path fill="none" stroke="#000" stroke-linecap="round" stroke-linejoin="round" stroke-miterlimit="10" stroke-width=".5" d="M252.86719 481.16797l.17969 1.21094"/></g><g clip-path="url(#o)"><path fill="none" stroke="#000" stroke-linecap="round" stroke-linejoin="round" stroke-miterlimit="10" stroke-width=".5" d="M267.26563 481.08203l-6.86329-1.50781"/></g><g clip-path="url(#p)"><path fill="none" stroke="#000" stroke-linecap="round" stroke-linejoin="round" stroke-miterlimit="10" stroke-width=".5" d="M266.26953 480.86328l.32813 1.17969"/></g><g clip-path="url(#q)"><path fill="none" stroke="#000" stroke-linecap="round" stroke-linejoin="round" stroke-miterlimit="10" stroke-width=".5" d="M280.38672 481.69922l-6.47266-2.74219"/></g><g clip-path="url(#r)"><path fill="none" stroke="#000" stroke-linecap="round" stroke-linejoin="round" stroke-miterlimit="10" stroke-width=".5" d="M293.38281 482.28516l-5.83594-3.91407"/></g><g clip-path="url(#s)"><path fill="none" stroke="#000" stroke-linecap="round" stroke-linejoin="round" stroke-miterlimit="10" stroke-width=".5" d="M306.97656 481.78906l-6.39062-2.92187"/></g><g clip-path="url(#t)"><path fill="none" stroke="#000" stroke-linecap="round" stroke-linejoin="round" stroke-miterlimit="10" stroke-width=".5" d="M319.98828 482.32422l-5.78515-3.99219"/></g><g clip-path="url(#u)"><path fill="none" stroke="#000" stroke-linecap="round" stroke-linejoin="round" stroke-miterlimit="10" stroke-width=".5" d="M333.39844 482.17578l-5.97656-3.69531"/></g><g clip-path="url(#v)"><path fill="none" stroke="#000" stroke-linecap="round" stroke-linejoin="round" stroke-miterlimit="10" stroke-width=".5" d="M347.14844 481.1211l-6.84375-1.58594"/></g><g clip-path="url(#w)"><path fill="none" stroke="#000" stroke-linecap="round" stroke-linejoin="round" stroke-miterlimit="10" stroke-width=".5" d="M346.15234 480.89063l.31641 1.1875"/></g><g clip-path="url(#x)"><path fill="none" stroke="#000" stroke-linecap="round" stroke-linejoin="round" stroke-miterlimit="10" stroke-width=".5" d="M360.09375 482.0664l-6.10547-3.47656"/></g><g clip-path="url(#y)"><path fill="none" stroke="#000" stroke-linecap="round" stroke-linejoin="round" stroke-miterlimit="10" stroke-width=".5" d="M373.8711 480.33984l-7.02735-.02343"/></g><g clip-path="url(#z)"><path fill="none" stroke="#000" stroke-linecap="round" stroke-linejoin="round" stroke-miterlimit="10" stroke-width=".5" d="M372.84766 480.33594l.5703 1.08594"/></g><g clip-path="url(#A)"><path fill="none" stroke="#000" stroke-linecap="round" stroke-linejoin="round" stroke-miterlimit="10" stroke-width=".5" d="M387.07422 479.45703l-6.8086 1.74219"/></g><g clip-path="url(#B)"><path fill="none" stroke="#000" stroke-linecap="round" stroke-linejoin="round" stroke-miterlimit="10" stroke-width=".5" d="M386.08594 479.71094l.82422.90625"/></g><g clip-path="url(#C)"><path fill="none" stroke="#000" stroke-linecap="round" stroke-linejoin="round" stroke-miterlimit="10" stroke-width=".5" d="M400.49219 480.53906l-7.01172-.42187"/></g><g clip-path="url(#D)"><path fill="none" stroke="#000" stroke-linecap="round" stroke-linejoin="round" stroke-miterlimit="10" stroke-width=".5" d="M411.80469 483.5039l-3.00781-6.35156"/></g><g clip-path="url(#E)"><path fill="none" stroke="#000" stroke-linecap="round" stroke-linejoin="round" stroke-miterlimit="10" stroke-width=".5" d="M425.41797 483.34375l-3.60547-6.03125"/></g><g clip-path="url(#F)"><path fill="none" stroke="#000" stroke-linecap="round" stroke-linejoin="round" stroke-miterlimit="10" stroke-width=".5" d="M439.34375 482.88281l-4.82422-5.10937"/></g><g clip-path="url(#G)"><path fill="none" stroke="#000" stroke-linecap="round" stroke-linejoin="round" stroke-miterlimit="10" stroke-width=".5" d="M453.19922 482.23438l-5.90625-3.8086"/></g><g clip-path="url(#H)"><path fill="none" stroke="#000" stroke-linecap="round" stroke-linejoin="round" stroke-miterlimit="10" stroke-width=".5" d="M465.01563 483.52734l-2.91016-6.39843"/></g><g clip-path="url(#I)"><path fill="none" stroke="#000" stroke-linecap="round" stroke-linejoin="round" stroke-miterlimit="10" stroke-width=".5" d="M146.63672 469.33594l-5.27344-4.64453"/></g><path fill="none" stroke="#000" stroke-linecap="round" stroke-linejoin="round" stroke-miterlimit="10" stroke-width=".5" d="M146.63672 469.33594l-.5664 2.38672m13.89062-2.39844l-5.29297-4.6211m5.29297 4.6211l-.5586 2.39062m13.6836-2.1875L168.17578 464.5m4.91016 5.02734l-.7461 2.33985m14.14844-2.42969l-5.08594-4.84766m5.08594 4.84766l-.66406 2.36328m14.16406-2.57031l-5.45312-4.4336m5.45312 4.4336l-.47266 2.40625m14.08985-2.84375l-6.0586-3.5586m5.17579 3.04297l-.05078 1.22657m14.01562-.36329l-5.59375-4.2539m4.78125 3.63672l-.19922 1.21093m14-.22265l-4.9414-4.9961m4.22265 4.26954l-.36328 1.17187m15.11328-1.46094l-6.3711-2.96484m5.44141 2.53125l.06641 1.22656m14.48828-2.6211l-6.99219.69141m5.97657-.58984l.67968 1.01953m13.66016-.51953l-7.01172-.51172m5.99219.4375l.4961 1.1211m13.54687.12109l-6.42578-2.84766m5.48828 2.4336l.08984 1.22265m13.90235-.32812l-5.90625-3.8086m5.04687 3.25391l-.10547 1.22266m13.88672-.16406l-5.1211-4.81641m4.375 4.11328l-.3203 1.1836m13.60546.13671l-3.57031-6.05078m3.05078 5.17188l-.64062 1.04687m10.20703-.70703l4.96875-4.97266m12.00781 5.79688l-2.35547-6.6211M372 463.90625l-3.28516 6.21484m14.05079-6.5039l1.8125 6.79297m8.91406-3.76954l6.98828.7461m-5.97266-.63672l-.45703-1.13672m13.21875-.375l6.0625 3.55078m-5.17969-3.03515l.04688-1.22266m12.04687 1.49219l6.7422 1.98047m7.66015 1.67968l4.5664-5.33984m10.3672 6.1211l1.32812-6.90235m11.4453 6.75l2.41017-6.59766m-2.0586 5.64063l-1.21484.16797"/><g clip-path="url(#J)"><path fill="none" stroke="#000" stroke-linecap="round" stroke-linejoin="round" stroke-miterlimit="10" stroke-width=".5" d="M146.625 456.03516l-5.25-4.67188"/></g><path fill="none" stroke="#000" stroke-linecap="round" stroke-linejoin="round" stroke-miterlimit="10" stroke-width=".5" d="M146.625 456.03516l-.57813 2.3828m13.67188-2.15624l-4.8086-5.125m4.8086 5.125l-.79297 2.32031m13.79297-2.0586l-4.17578-5.65234m4.17578 5.65235l-1.0586 2.21484m14.4922-2.30469l-4.41407-5.46875m4.41406 5.46875l-.96484 2.25782m14.89453-2.89844l-5.64453-4.1875m4.82422 3.57812l-.1836 1.21485m14.85157-1.66016l-6.71094-2.08203m5.73438 1.78125l.23046 1.20313m14.0586-.89454l-6.70703-2.09375m5.73437 1.78907l.22656 1.20703m13.85938-.39063l-6.30078-3.11719m5.38281 2.66407l.03516 1.22265m10.60547 1.15625l.88671-6.96875m10.38672 5.96875l4.96875-4.96875m14.26953 3.19922l-6.8789-1.42969m19.7461 2.5547l-5.98438-3.6836m17.89062 4.98047l-3.16406-6.27344m2.70312 5.35937l-.70703 1.00391m15.03906-.4375l-4.27734-5.57812m17.73438 5.46093l-4.5625-5.34375m13.05859 5.10157l5.07812-4.85938m-4.33984 4.15234l-1.16406-.38671m13.64062.98046l5.27735-4.63671m-4.51172 3.96484l-1.14453-.4336m13.28125.53126l6.10156-3.48829m-5.21094 2.98438l-1.03906-.65625m13.0039-.71875l7.02344.27344m-6-.23438l-.53515-1.10547m13.0664-.07422l6.54297 2.5547m-6.54297-2.5547l-.28515-2.4375m13.4414 2.96094l6.86328 1.50781m-5.86718-1.28906l-.32813-1.17969m12.58594 1.3086l6.98047.8125m-5.96485-.69531l-.4453-1.14063m12.84765 2.35547l6.77734-1.85547m8.16406 3.96875l3.52344-6.07812m8.72266 5.12109l5.66015-4.16406m-4.83593 3.5586l-1.10547-.53126"/><g clip-path="url(#K)"><path fill="none" stroke="#000" stroke-linecap="round" stroke-linejoin="round" stroke-miterlimit="10" stroke-width=".5" d="M146.48828 442.86328l-4.97656-4.96094"/></g><path fill="none" stroke="#000" stroke-linecap="round" stroke-linejoin="round" stroke-miterlimit="10" stroke-width=".5" d="M146.48828 442.86328l-.71484 2.34766m14.35937-2.73047l-5.63672-4.19531m5.63672 4.1953l-.36719 2.42579m12.65625-1.5l-3.58203-6.04687m3.0586 5.16796l-.63672 1.04688m15.14453-.6836l-4.92188-5.01562m4.20704 4.28516l-.3711 1.17187m14.6836-.7539l-5.48828-4.38672m4.6914 3.74609l-.22656 1.20703m14.17578-.3789L207.99219 438m4.41406 4.07422l-.3125 1.1875m14.67188-.85938l-5.75-4.03906m4.91406 3.45313l-.15235 1.21875m14.94141-2.56641l-7.02734-.16797m13.3164.08203h7.02735m6.33984.60547l6.92188-1.21094m-5.91407 1.03516l-.7539-.96875m14.02343 3.01172l4.9961-4.94531m9.64453 5.78515l2.34766-6.625m13.46093 6.57032l-2.64062-6.51172m2.25781 5.5625l-.78906.9414m10.83984-.61718l4.65235-5.26563m-3.97657 4.5l-1.1914-.28516m13.20703.32422l5.90234-3.8125m-5.04297 3.25782l-1.07422-.59766m13.0625.0586l6.83594-1.625m-5.84375 1.39062l-.8086-.92188m13.33204 1.7539l6.4336-2.8203m-5.5 2.41015l-.96094-.75781m13.07421.21875l6.96875-.91797m-5.95312.78125l-.71094-.9961m13.1875-.5078l6.61719 2.36328m-6.61719-2.36328l-.35547-2.4297m13.57813 2.72266l6.80078 1.77344m-5.8125-1.51562l-.28125-1.19141m12.72656.5625l6.5625 2.51953m-5.60547-2.15234l-.15234-1.21875M420.21484 439.5l6.80079 1.76953m-5.8086-1.51172l-.28515-1.19531m12.51171 2.15625l6.9961-.66797m-5.97656.57031l-.6797-1.02343m13.19141 2.04687l6.5625-2.51953m-5.60546 2.15234l-.92579-.80468m14.01563 2.32812l5.10156-4.83203m-4.35937 4.1289l-1.16407-.39062"/><g clip-path="url(#L)"><path fill="none" stroke="#000" stroke-linecap="round" stroke-linejoin="round" stroke-miterlimit="10" stroke-width=".5" d="M145.91406 430.01563l-3.82812-5.89454"/></g><path fill="none" stroke="#000" stroke-linecap="round" stroke-linejoin="round" stroke-miterlimit="10" stroke-width=".5" d="M145.91406 430.01563l-1.1875 2.14453m15.00781-2.54297l-4.83984-5.09766m4.83984 5.09766l-.77734 2.32422m14.52734-2.82813l-5.71093-4.08984m4.88281 3.4961l-.16406 1.21484m13.46484.21484l-4.02344-5.76172m3.4375 4.92188l-.55859 1.09375m13.89063.0703l-2.88672-6.41015m2.46875 5.47656l-.75391.96875m14.71875-.15234l-3.35156-6.17578m2.86328 5.27734l-.67578 1.02344m12.1836.2461l1.24218-6.91798m-1.0625 5.91016l-1.16797.375m11.41797-2.60937l7.01172-.4336m6.3125-.13281l6.99219.69922m-5.97266-.59766l-.46484-1.13672m12.77734.90235l6.96094.96484m-5.94922-.82422l-.42188-1.15234m12.90235 2.6875l6.60546-2.38672m-5.64453 2.03906l-.91015-.82031m13.83593 2.1836l5.46485-4.41797m-4.67188 3.77343l-1.1289-.48047m14.6289 1.96094l3.50391-6.08984m-2.99219 5.20312l-1.22656-.03906m14 .90625l3.5664-6.05078m-3.04687 5.17187l-1.22656-.05468m13.58594.6328l4.4375-5.44921M328.83594 429l-1.20313-.23828m13.48047.65625l5.22656-4.69531m-4.46875 4.01172l-1.15234-.42188m12.95312-.25l6.73829-1.98828m-5.75782 1.69922l-.85937-.8789m13.1289.91015l6.8711-1.47266m6.47265-.1211l6.8125 1.71485m-5.82421-1.46484l-.29297-1.1914m13.1289-.19141l5.79297 3.98046m-4.94922-3.39843l.13672-1.21875m13.6289-.5l3.20704 6.2539m-2.74219-5.34375l.69922-1.00781m11.67578.39062l4.15235 5.66797m-3.54688-4.84375l.53516-1.10547m12.38672 6.09375l3.73046-5.95703m9.76954 6.0625l3.35937-6.16797m-2.8711 5.27344l-1.22656-.01562m12.58985-.60156l6.28515-3.14454m-5.37109 2.6875l-1-.71093"/><g clip-path="url(#M)"><path fill="none" stroke="#000" stroke-linecap="round" stroke-linejoin="round" stroke-miterlimit="10" stroke-width=".5" d="M144.85547 417.16016l-1.71094-6.8125"/></g><g clip-path="url(#N)"><path fill="none" stroke="#000" stroke-linecap="round" stroke-linejoin="round" stroke-miterlimit="10" stroke-width=".5" d="M144.60547 416.16797l-.91016.82422"/></g><path fill="none" stroke="#000" stroke-linecap="round" stroke-linejoin="round" stroke-miterlimit="10" stroke-width=".5" d="M157.53516 417.26172l-.4375-7.01563m.37109 5.9922l-1.04297.64452m13.6875.34766l1.03125-6.95313m-.8789 5.94141l-1.15625.41016m13.92578.51953l1.8203-6.78906m-1.55468 5.80078l-1.19531.27343m13.30078.3047l3.70703-5.96876m-3.16797 5.10156l-1.22265-.08203m13.26562.34375l5.17188-4.75781m-5.17188 4.75781l-2.3125-.8164m14.89844-.40235l6.63281-2.32031m-6.63281 2.32031l-1.80469-1.66406m15.51563 2.45703l5.83984-3.90625m-5.83984 3.90625l-2.16016-1.16015m14.88281-.76563l7.02735-.05469m-6.00391.04688l-.58594-1.07813m14.03516 3.66797l4.70703-5.21875m-4.01953 4.45703l-1.1914-.29687m12.92968-.19922l6.48828-2.70313m13.2539 2.83985l-6.36327-2.97656m14.11328 4.0703l4.76562-5.16405m-4.07422 4.41015l-1.1875-.3125m15.65235 1.95703l1.08203-6.94531m-.92188 5.9336l-1.16015.40234m12.5039-.2539l4.70313-5.21876m-4.70313 5.21875l-2.3789-.59375m14.98437-.29687l6.125-3.44141m-5.23437 2.9414l-1.03516-.66015m17.16406-4.01172l-1.28515 6.90625m17.17968-4.85156l-6.4453 2.79687m5.5078-2.39062l.96094.76562m12.50781-2.30078l-4.8789 5.05469m19.08984-3.63281l-6.66797 2.21094m5.69922-1.89063l.88672.84766m12.96484-2.04688l-5.80078 3.96875m4.95703-3.39062l1.08594.5703m12.98047-1.27343l-5.6211 4.21875m5.6211-4.21875l2.22266 1.04297m11.7539 1.61328l-6.9414-1.09375m5.92968.9336l.40235 1.16015m8.46875 1.35156l3.96875-5.79687m14.5586 4.28906l-6.45313-2.78125m5.51172 2.375l.10156 1.22266"/><g clip-path="url(#O)"><path fill="none" stroke="#000" stroke-linecap="round" stroke-linejoin="round" stroke-miterlimit="10" stroke-width=".5" d="M140.71484 399.19531l6.57032 2.48828"/></g><path fill="none" stroke="#000" stroke-linecap="round" stroke-linejoin="round" stroke-miterlimit="10" stroke-width=".5" d="M154.64063 402.71875l5.34765-4.5586m-5.34766 4.5586l-2.28125-.90234M168.5 403.23437l4.25781-5.58984M168.5 403.23438l-2.41797-.39454m14.7461-.78515l6.23437-3.23438m-5.32813 2.76563l-1.01171-.69531m13.05078-.01563l6.97265-.875m-5.95703.75l-.70703-1.0039m12.98047.57812l7.02344.23047m-7.02344-.23047l-1.07813-2.20313m14.40625 2.6172l7-.60157m-7 .60156l-1.33593-2.0586m20.54297 4.33204l-4.78516-5.14453m15.42969 6.07422l.55469-7.00391m-.47266 5.98438l-1.125.48828m17.72266-1.28907l-6.17188-3.36328m5.27344 2.8711l-.01172 1.23046m14.63281-2.79296l-6.98828.74218m5.97266-.6328l.6875 1.01562m13.66406-.6797l-7.02734-.14843m7.02734.14844l1.10547 2.1914m12.20312-2.42187l-7.01953.3164m7.01953-.3164l1.25 2.10938m11.32032.21875l-5.52735-4.34375m5.52735 4.34375l-.4336 2.41406m12.97656-1.6914l-3.98437-5.78907m3.98437 5.78906l-1.1328 2.17969m15.42187-3.1914l-5.9336-3.76563m5.9336 3.76562l-.1875 2.44531m13.49218-2.42578l-5.91015-3.80468m5.05078 3.25l-.10156 1.22265m13.3203.32031l-4-5.77734m3.41798 4.9375l-.5625 1.08985m15.64062-4.63282l-6.35937 2.98828m5.4336-2.55468l.98046.73437m13.22266-1.2461l-6.28516 3.14063m5.3711-2.6836l1 .71095m8.37109-2.66407l3.42969 6.13282m13.97265-5.66016l-4.74219 5.1875m4.05079-4.42969l1.1875.30469m13.78906.4414l-6.6836 2.1797m5.71094-1.86329l.88281.85156m13.4961-.8203l-6.86719 1.48437m5.86719-1.26563l.79297.9336m13.0625 1.46093l-5.94922-3.74218"/><g clip-path="url(#P)"><path fill="none" stroke="#000" stroke-linecap="round" stroke-linejoin="round" stroke-miterlimit="10" stroke-width=".5" d="M147.10156 385.47266l-6.20312 3.30078"/></g><path fill="none" stroke="#000" stroke-linecap="round" stroke-linejoin="round" stroke-miterlimit="10" stroke-width=".5" d="M147.10156 385.47266l2.03516 1.37109m11.63281.91406l-6.91016-1.26953m6.91016 1.26953l.74219 2.33985m9.84766.46484l-1.45704-6.875m1.2422 5.8711l-.9375.78906m15.29296-.07422l-3.10938-6.30078m2.65625 5.38671l-.71875.9922m15.66797-5.4336l-5.46875 4.41015m13.4336-4.55078l5.23047 4.69532m8-.10157l5.39843-4.49609m14.10157 1.82031l-6.97266.85938m5.96094-.73438l.70312 1.0039m10.97656 2.71095l-1.67968-6.82422m1.4375 5.83203l-.91406.8164m15.09375-.04296l-2.92188-6.38672m2.92188 6.38672l-1.48829 1.94921m15.84766-2.67968l-5.01172-4.92578m5.01172 4.92578l-.69922 2.35156m14.63672-3.21484l-6.25781-3.19922m5.34765 2.73437l.01954 1.22656m14.49609-1.55078l-6.83594-1.62109m6.83594 1.6211l.6211 2.375m12.78515-3.04298l-7.01953-.28515m7.01953.28515l1.0625 2.21094m-2.08203-2.25l.53125 1.10547m13.60937-.04297l-6.6289-2.33203m6.6289 2.33203l.36719 2.42578m-1.33203-2.76562l.1836 1.21094m14.01952-.67188l-6.47656-2.73047m6.47656 2.73047l.21875 2.44531m-1.16406-2.84375l.11328 1.22266m14.28125-1.20313l-6.7461-1.97265m5.76563 1.6875l.2461 1.19922m12.78125.91406l-4.20703-5.6289m3.59375 4.80859l-.52344 1.11328m15.38672-4.86719l-6.07813 3.51953m5.19531-3.00781l1.03907.64844m13.60547.17578l-6.97266.85156m6.97266-.85156l1.40625 2.00781m11.77343-.52344l-6.69921-2.12109m5.72265 1.8125l.22266 1.20703m12.40625 1.1211l-3.3789-6.16016m2.88671 5.26562l-.67188 1.02344m15.51563-.99219l-5.44922-4.43359m19.05078.41016l-6.02344 3.61328m19.32032-3.64844l-5.98438 3.6836m5.11328-3.14844l1.0586.62109"/><g clip-path="url(#Q)"><path fill="none" stroke="#000" stroke-linecap="round" stroke-linejoin="round" stroke-miterlimit="10" stroke-width=".5" d="M147.45313 373.15625l-6.90625 1.30469"/></g><path fill="none" stroke="#000" stroke-linecap="round" stroke-linejoin="round" stroke-miterlimit="10" stroke-width=".5" d="M147.45313 373.15625l1.53515 1.91406m11.82813-1.54297l-7.00391.5625m7.0039-.5625l1.32423 2.06641m11.98828-1.45313l-6.9961-.66406m6.9961.66406l.9414 2.26563m-1.96094-2.36328l.47266 1.13281m13.86328-1.66797l-7 .60156m7-.60156l1.33594 2.0586m10.25781-4.78907l-3.5586 6.0625m3.04298-5.17968l1.22265.05078m10.51563-1.40235l.625 7m-.53516-5.98046l1.03125-.67188m14.82813 5.78906l-4.64063-5.27344m4.64063 5.27344l-.86719 2.29688m15.16797-6.11719l-6.61328 2.36719m6.61328-2.36719l1.8164 1.65234m-2.77734-1.30859l.90625.82813m12.76563 2.2578l-5.40625-4.49218m5.40625 4.49219l-.4961 2.40234m-.28906-3.0586l-.25 1.20313m14.4375-.65625l-5.57813-4.27344m5.57813 4.27344l-.40625 2.42188m-.40625-3.04297l-.20313 1.21094m14.85938-1.57032l-6.63672-2.3164m6.63672 2.3164l.3711 2.42579m-1.33594-2.76172l.18359 1.21484m13.86328-.35156l-6.16797-3.36719m6.16797 3.36719l-.02734 2.45312M292.65234 375l-.01171 1.22656m14.40625-1.125l-6.53516-2.58594m6.53515 2.58594l.27735 2.4375m13.25781-4.16797l-6.97265.8711m5.95703-.74219l.70703 1.0039m13.64062-.96093l-7.00781.53125m5.98828-.45313l.65625 1.03516m13.09375 1.10547l-5.83594-3.91016m4.98829 3.34375l-.125 1.21875m14.65625-1.35937l-6.57422-2.49219m6.57421 2.49219l.3086 2.4336m12.97265-2.35938l-6.5078-2.64454m5.5625 2.26172l.125 1.21875m14.39452-2.26953l-7.02343.22656m6-.1953l.61328 1.0664m12.27734 1.85937l-4.1289-5.6875m3.52734 4.85938l-.53516 1.10156m15.88672-2.80469l-7-.625m7 .625l.95313 2.26172m11.66015-4.69922l-5.59375 4.25m4.78125-3.6328l1.11328.51562m11.23829.99218l-.01954-.19921-.05859-.19141-.09375-.17578-.45703-.3789-.1914-.0586-.20313-.01953-.19922.01953-.1914.0586-.45704.3789-.09375.17578-.0586.1914-.01952.19922.01953.19922.0586.1914.09374.17579.45703.3789.1914.0586.19923.01953.20312-.01953.1914-.0586.45704-.3789.09375-.17578.0586-.1914.01952-.19923m8.83594-.61718l6.91797 1.23437m-5.91406-1.05469l-.375-1.16796m12.66406 2.08984l6.96094-.96875m-5.94922.82812l-.71875-.99218"/><g clip-path="url(#R)"><path fill="none" stroke="#000" stroke-linecap="round" stroke-linejoin="round" stroke-miterlimit="10" stroke-width=".5" d="M147.50781 360.6875l-7.01562-.38672"/></g><path fill="none" stroke="#000" stroke-linecap="round" stroke-linejoin="round" stroke-miterlimit="10" stroke-width=".5" d="M147.50781 360.6875l1.03125 2.22656m12.23828-1.82422l-6.92578-1.1914m6.92578 1.1914l.76953 2.32813m12.58985-2.6875l-7.01172-.47656m7.01172.47656l1 2.23828m12.32031-2.54297l-7.02344.13672m7.02344-.13672l1.19531 2.14453m11.82032-3.5l-6.42578 2.84375m6.42578-2.84375l1.92968 1.51563m-2.86328-1.10156l.96485.7578m13.30468-1.12109l-6.46875 2.7422m5.52735-2.34376l.95312.77344m11.3086 3.48828l-2.47657-6.57422m2.47657 6.57422l-1.6211 1.83984m1.26172-2.79687l-.8125.92187m16.55078-2.05078l-6.60156-2.40625m5.64063 2.0586l.16796 1.21484m14.3125-1.83594l-7.01172-.46484m7.01172.46484l1.00391 2.23438m-2.02344-2.30469l1.0039 2.23828m13.16017-1.29687L260.5 359.38672m6.67188 2.21094l.41015 2.41796m11.92188-.91406l-4.70703-5.21484m4.70703 5.21484l-.83594 2.30469m14.11719-2.27734l-4.64063-5.27344m4.64063 5.27344l-.86328 2.29687m.1914-3.0625l-.4336 1.14844m15.08985-1.17188l-5.97656-3.6914m5.97656 3.6914l-.15625 2.44922m-.71094-2.98828l-.08203 1.22656m14.67188-1.64062l-6.79297-1.78906m6.79297 1.78906l.5625 2.39062m11.95312-.91796l-5.19531-4.73047m4.4414 4.04296l-.30468 1.1875m9.41797-.26171l4.71484-5.21094m-4.71484 5.21094l-2.3789-.59766m16.53515 1.16016l3.03515-6.33594m-3.03515 6.33594l-2.45313.10546m2.89453-1.02734l-1.22656.05469m16.83594.9961l-2.4375-6.58985m2.08203 5.6289l-.8125.91797m16.73047-2.66406l-6.92969-1.17578m6.92969 1.17578l.76953 2.32813m11.90625-.82813l-5.65234-4.17578m4.82812 3.5664l-.17969 1.21485m11.32032-6.20313l.34375 7.01954m-.29297-6l1.05469-.62891m11.71875-.33203l1.32812 6.90234m-1.13672-5.89844l.95703-.76953m14.67188.22266l-3.6836 5.98438m3.14844-5.11329l1.22266.07813m8.83984-.88281l3.89063 5.85156m-3.32422-5l.58203-1.07813m10.65234 2.55079l6.92188 1.20312m-6.92188-1.20313l-.76562-2.33203"/><g clip-path="url(#S)"><path fill="none" stroke="#000" stroke-linecap="round" stroke-linejoin="round" stroke-miterlimit="10" stroke-width=".5" d="M147.48438 346.72266l-6.96875.91015"/></g><path fill="none" stroke="#000" stroke-linecap="round" stroke-linejoin="round" stroke-miterlimit="10" stroke-width=".5" d="M147.48438 346.72266l1.42187 2m11.91797-1.35938l-7.01953-.3711m7.01953.3711l1.03516 2.22266m12.17187-1.51953l-6.80078-1.77735m5.8086 1.51953L173.32421 349m11.7461 1.50781l-2.25-6.65625m1.92187 5.6875l-.83985.89063m13.67188-6.75l-.6289 6.9961m15.14062-.32423l-3.01953-6.34375m18.33593 3.01953l-7.02343.3047m6-.26173l.62109 1.0586m11.46484 2.32812l-2.51953-6.5586m2.15625 5.60548l-.80469.92578m16.60938-2.3086l-6.76953-1.88671m6.76953 1.88671l.52734 2.39844m-1.51172-2.67187l.26172 1.19921m13.52735.15235l-5.75-4.04297m5.75 4.04297l-.30469 2.4336m12.96484-1.73048l-4.4414-5.4453m4.4414 5.4453l-.94922 2.26172m.3047-3.05469l-.47657 1.12891m14.9336-.83203l-5.4336-4.45703m5.4336 4.45703l-.48438 2.40625m11.6875-1.17188l-1.21094-6.92187m1.21094 6.92188l-1.9375 1.5078m1.76172-2.51562l-1.9375 1.50781m16.20312-.73046l-2.76172-6.46094m2.76172 6.46094l-1.53906 1.91015m16.66797-3.6836l-6.39063-2.91796m5.46094 2.4961l.07422 1.22265m12.21875 1.02734l-2.48828-6.57421m2.48828 6.57421l-1.61719 1.84375m1.25781-2.80078l-.8125.92188m13.38282.25781l-.27735-7.01953m.27735 7.01953l-2.1211 1.23828m2.07813-2.25781l-1.0586.61719m13.36329.28515l1.82812-6.78515m-1.82812 6.78515l-2.39063.54688m2.65625-1.53516l-1.19531.27735m18.34375-1.19922l-6.3711-2.96485m6.3711 2.96485l.13281 2.44921m-1.0586-2.8828l.06641 1.22656m12.55079.87109l-3.1211-6.29297m2.66797 5.3789l-.71484.9961m10.08984-5.3086l5.66406 4.16016m10.38281-5.59375l.20313 7.02735m-.17578-6.00391l1.0664-.60547m15.35547 1.32031l-6.0664 3.55079m6.0664-3.55079l2.08594 1.28907m10.22656-2.38282l-4.05859 5.73829m4.0586-5.73829l2.43359.3125m11.51172.26172l-5.32032 4.58985m4.54297-3.92188l1.14453.4414"/><g clip-path="url(#T)"><path fill="none" stroke="#000" stroke-linecap="round" stroke-linejoin="round" stroke-miterlimit="10" stroke-width=".5" d="M147.46484 333.28906l-6.92968 1.14453"/></g><path fill="none" stroke="#000" stroke-linecap="round" stroke-linejoin="round" stroke-miterlimit="10" stroke-width=".5" d="M147.46484 333.28906l1.4922 1.95313m11.79687-2.09766l-6.87891 1.4375m6.8789-1.4375l1.57032 1.88672m11.55469.17188l-6.4961-2.6797m5.55078 2.28907l.1211 1.21875m13.80078-.19922l-5.82031-3.9375m5.8203 3.9375l-.26171 2.4414m11.35547-.96484l-1.375-6.89062m1.375 6.89062l-1.90234 1.5547m17.92968-4.125l-6.80469-1.75m6.8047 1.75l.57812 2.38671m11.75-.70703l-4.82813-5.10938m4.82813 5.10938l-.78516 2.32422m14.38281-2.625l-5.39453-4.50781m5.39453 4.5078l-.5039 2.39844m12.40625-1.3828l-2.5664-6.53907m2.5664 6.53906l-1.59766 1.86328m1.22266-2.8125l-1.59766 1.86329m17.07813-2.48047l-6.14844-3.40625m6.14844 3.40625l-.04297 2.45312m12.32422-1.29687l-4.08203-5.71875m4.08203 5.71875l-1.09375 2.1953m14.08984-1.99218l-3.4414-6.125m3.4414 6.125l-1.32813 2.0664m14.37891-1.93359l-2.91797-6.39062m2.91797 6.39062l-1.49219 1.94922m1.07032-2.8789l-.7461.97265m12.26172.1914l1.52735-6.85937m-1.52735 6.85938l-2.36328.65625m2.58594-1.65625l-2.36328.65625m13.26562-1.1836l5.90625-3.80468m-5.90625 3.80469l-2.14062-1.19922M346.04687 336.5l-4.64062-5.27734m4.64063 5.27734l-.8672 2.29688m11.375-1.45313l.97266-6.96094m-.97265 6.96094l-2.30469.83984m2.44531-1.85156l-1.15234.41797m13.76172.46484l2.10156-6.70312m-2.10156 6.70312l-2.41016.45313m16.10156-.35547l1.35157-6.89844m-1.35157 6.89844l-2.34765.71094m2.54297-1.71485l-1.17579.35547m16.09375.52735l-2.24609-6.65625m2.2461 6.65625l-1.6875 1.78515m14.08984-8.6211l-.42188 7.01563m.36329-5.99609l1.11328-.50781m15.29296 4.35156l-6.48437-2.71094m5.53906 2.3164l.11328 1.22267m14.41797-2.1211l-7.02734-.125m6.0039.10547l.5547 1.09375m13.35546-2.8164l-6.17187 3.35937m6.17187-3.35938l2.04688 1.35157m-2.94532-.86329l2.04688 1.35157m11.95312-2.1836l-5.74609 4.04688"/><g clip-path="url(#U)"><path fill="none" stroke="#000" stroke-linecap="round" stroke-linejoin="round" stroke-miterlimit="10" stroke-width=".5" d="M466.4336 331.83984l2.1914 1.10938"/></g><g clip-path="url(#V)"><path fill="none" stroke="#000" stroke-linecap="round" stroke-linejoin="round" stroke-miterlimit="10" stroke-width=".5" d="M147.48438 320.9961l-6.96875-.89844"/></g><path fill="none" stroke="#000" stroke-linecap="round" stroke-linejoin="round" stroke-miterlimit="10" stroke-width=".5" d="M147.48438 320.9961l.86718 2.29687m12.33985-3.71875l-6.75 1.94922m6.75-1.94922l1.70703 1.76172m11.69531-1.3789l-6.92578 1.18358m5.91797-1.01171l.75.96875m12.65234-2.97266l-5.08594 4.84766m4.34766-4.14454l1.16406.38672m13.78516 2.0586l-6.875-1.45313m5.875 1.24219l.33984 1.17969m9.9414 1.76953l1.19142-6.92578m-1.01954 5.91797l-1.16406.3828m16.49219.29298l-3.1836-6.26563m3.1836 6.26563l-1.40625 2.00781m16.6289-4.8164l-6.99609-.64454m6.9961.64453l.94921 2.26172m12.3086-1.86719l-6.8789-1.4375m6.8789 1.4375l.6836 2.35547m12.4453-4.40234l-6.5078 2.65625m5.55858-2.26953l.94532.78515m10.1836 3.66797l-.23438-7.02343m.19922 6.0039l-1.0625.60938m11.92187-.50781l4.7461-5.1836m-4.0547 4.42969l-1.1914-.3086m19.5586-2.51562l-6.7422 1.96875m13.57813.65234l6.21485-3.27343m-5.3125 2.79687l-1.01172-.6875m15.125 2.7461l2.8125-6.4375m-2.8125 6.4375l-2.44532.1914m2.85547-1.125l-1.22265.09375m14.64453 1.01953l1.77734-6.79687m-1.51562 5.8086l-1.19532.28515m11.70704-1.9336l6.86328-1.51953m-5.86329 1.29688l-.79687-.9336m13.03906.14454l7.00781.5039m-7.0078-.5039l-.9922-2.2461m15.48047 5.125l4.66407-5.2539m-4.66407 5.2539l-2.38671-.57812m3.0625-.1875l-1.19141-.28907m14.42969 1.48438l3.46484-6.11328m-3.46484 6.11328l-2.45313-.07031m14.01172-2.58594l6.98047-.80469m-5.96485.6875l-.69921-1.00781m13.19921 1.96484l6.57422-2.48437m-5.61718 2.125l-.92188-.8125m17.67969 3.26562l-2.22266-6.66797m1.89844 5.69532l-.84375.89062m16.0664-5.50781l-5.39062 4.51172m5.39063-4.51172l2.27343.92187m10.60547-1.35937l-4.51562 5.38281"/><g clip-path="url(#W)"><path fill="none" stroke="#000" stroke-linecap="round" stroke-linejoin="round" stroke-miterlimit="10" stroke-width=".5" d="M465.82031 317.85547l2.39844.51172"/></g><path fill="none" stroke="#000" stroke-linecap="round" stroke-linejoin="round" stroke-miterlimit="10" stroke-width=".5" d="M465.16406 318.64063l2.39844.5078"/><path fill="#00f" fill-rule="evenodd" d="M241.77344 476.52344h8.61719V466.3789h-8.6172v10.14453"/><path fill="azure" fill-rule="evenodd" d="M243.60547 468.21094h.83203v2.82422h3.28906v-2.82422h.83203v6.48047h-.83203v-2.91407h-3.28906v2.91407h-.83203v-6.48047"/><path fill="#ff3030" fill-rule="evenodd" d="M362.30469 476.52344h7.6914V466.3789h-7.6914v10.14453"/><path fill="azure" fill-rule="evenodd" d="M364.13672 468.21094h.83203v5.74219h3.19531v.73828h-4.02734v-6.48047"/><path fill="#00f" fill-rule="evenodd" d="M175.19922 472.08594h8.61719V461.9414h-8.6172v10.14453"/><path fill="azure" fill-rule="evenodd" d="M177.03125 463.77344h.83203v2.82422h3.28516v-2.82422h.83594v6.48047h-.83594v-2.91797h-3.28516v2.91797h-.83203v-6.48047"/><path fill="#00f" fill-rule="evenodd" d="M388.23828 436.57813h8.61719v-10.14454h-8.61719v10.14454"/><path fill="azure" fill-rule="evenodd" d="M390.07031 428.26563h.83594v2.82421h3.28516v-2.82421h.83203v6.48046h-.83203v-2.91406h-3.28516v2.91406h-.83594v-6.48046"/><path fill="#00f" fill-rule="evenodd" d="M228.45703 414.38672h8.6211v-10.14453h-8.6211v10.14453"/><path fill="azure" fill-rule="evenodd" d="M230.28906 406.07422h.83594v2.82422h3.28516v-2.82422h.83203v6.48047h-.83203v-2.91406H231.125v2.91406h-.83594v-6.48047"/><path fill="#ff3030" fill-rule="evenodd" d="M451.07031 343.375h7.6914v-10.14844h-7.6914V343.375"/><path fill="azure" fill-rule="evenodd" d="M452.90234 335.0625h.83204v5.73828h3.1953v.74219h-4.02734v-6.48047"/><path fill="#00f" fill-rule="evenodd" d="M370.48438 334.4961h8.62109v-10.14454h-8.6211v10.14453"/><path fill="azure" fill-rule="evenodd" d="M372.3164 326.1836h.83594v2.82421h3.28516v-2.82422h.83203v6.48047h-.83203V329.75h-3.28516v2.91406h-.83593v-6.48047"/><path fill="#ffffe0" fill-rule="evenodd" d="M270.73047 375.60547h22.17969v-10.1914h-22.1797v10.1914"/><path fill-rule="evenodd" d="M274.23047 367.2461h.50781v6.29687h-.78515v-4.48828h-1.39063v-.5586l.5625-.0625.25-.05468.23047-.08985.20312-.14062.17188-.21094.14453-.29297.10547-.39844m4.8125 0l.23047.01954.21875.05859.20703.08594.19531.12109.1875.15234.16797.17579.30469.41796.24219.4922.17968.54687.11328.58203.03516.58984-.03516.59375-.11328.58203-.17969.55469-.24218.5039-.30469.42579-.16797.17969-.1875.15234-.19531.125-.20703.09375-.21875.05469-.23047.01953-.23047-.01953-.21875-.0547-.20703-.09374-.19531-.125-.1836-.15235-.17187-.17968-.30078-.42578-.2461-.50391-.17969-.55469-.10937-.58203-.03906-.59375h.83203l.03125.5625.07812.50781.12891.44141.16016.375.1914.30078.21094.21875.22266.13672.22656.04688.22656-.04688.22266-.13672.21094-.21875.1914-.30078.16016-.375.1289-.4414.08204-.50782.02734-.5625-.02735-.5625-.08203-.5-.1289-.4336-.16016-.36718-.1914-.29297-.21094-.21484-.22266-.1289-.22656-.04688-.22656.04687-.22266.1289-.21094.21485-.1914.29297-.16016.36719-.1289.4336-.07813.5-.03125.5625h-.83203l.03906-.58985.10938-.58203.17968-.54688.2461-.49219.30078-.41796.17187-.17579.1836-.15234.1953-.1211.20704-.08593.21875-.0586.23047-.01953m5.08984 0h.51172v6.29688h-.78906v-4.48828h-1.38672v-.5586l.5586-.0625.2539-.05468.23047-.08985.20312-.14062.17188-.21094.14062-.29297.10547-.39844m2.82422 2.17579h.78906l.01954-.31641.05859-.28516.09765-.2539.14063-.21485.1836-.17187.22265-.1289.26563-.08204.30859-.02734.23437.02343.22657.0625.20312.10157.17969.13671.14844.17188.11328.20703.07031.23828.02734.26172-.02343.26953-.06641.22656-.10938.19141-.15625.16797-.19921.16406-.2461.16797-.63672.38672-.53515.3125-.4375.3164-.34766.32423-.26562.33593-.1875.35156-.125.3711-.07032.39453-.01953.41797h4.21094v-.74219h-3.33203l.08203-.28125.11328-.23828.14844-.20313.1875-.17968.23047-.17188.27734-.17578.71875-.41406.41406-.20703.34766-.23047.28125-.25.21875-.26953.16406-.27735.10938-.28125.0664-.28515.01954-.28125-.04297-.38672-.1211-.34766-.1875-.30469-.25-.26562-.30469-.21094-.34375-.16015-.3789-.09766-.40625-.03516-.4375.03516-.39844.09766-.35547.16796-.30469.23438-.24609.30469-.1875.3711-.11328.44921-.04297.51563"/><path fill="#ffffe0" fill-rule="evenodd" d="M393.57031 392.42578H415.75v-10.1914h-22.17969v10.1914"/><path fill-rule="evenodd" d="M397.0664 384.07031h.51173v6.29297h-.78907V385.875h-1.38672v-.5586l.5586-.0625.2539-.05468.22657-.08985.20312-.14062.17578-.21094.14063-.29297.10547-.39453m4.8164 0l.22656.01563.21875.0586.21094.08983.19531.1172.1836.15234.17187.17578.30079.41797.24609.49218.17969.54688.10937.58203.03906.58984-.03906.59375-.10937.58204-.1797.55468-.24608.5039-.30079.42579-.17187.17969-.1836.15234-.1953.125-.21094.09375-.21875.05469-.22657.01953-.23047-.01953-.21875-.05469-.20703-.09375-.19922-.125-.18359-.15234-.17188-.17969-.30078-.42578-.24218-.5039-.1797-.5547-.11327-.58203-.03906-.59375h.83593l.02735.5625.08203.50782.125.4414.16406.375.1914.30078.21094.21875.22266.14063.22656.04687.22656-.04687.22266-.14063.21094-.21875.1875-.30078.16406-.375.125-.4414.08203-.50782.03125-.5625-.03125-.5625-.08203-.5-.125-.43359-.16406-.36719-.1875-.29297-.21094-.21484-.22265-.1289-.22657-.04688-.22656.04687-.22266.12891-.21093.21484-.19141.29297-.16406.36719-.125.4336-.08203.5-.02735.5625h-.83594l.03907-.58985.11328-.58203.17969-.54688.24218-.49218.30079-.41797.17187-.17578.1836-.15235.19921-.11719.20703-.08984.21875-.0586.23047-.01562m5.08985 0h.5078v6.29297h-.78515V385.875h-1.38672v-.5586l.5586-.0625.25-.05468.23047-.08985.20312-.14062.17578-.21094.14063-.29297.10547-.39453m2.82421 2.17188h.78516l.01953-.3164.0625-.28517.09766-.25.14062-.21875.1797-.17187.22265-.1289.26562-.08204.3086-.02734.23828.02344.22265.0625.20704.10156.17578.13672.14843.17578.11329.20312.07421.23829.02344.26171-.01953.26954-.0664.22656-.10938.1914-.15625.17188-.20313.16015-.24609.16797-.63281.38672-.53906.3125-.4375.3164-.34375.32813-.26563.33204-.1914.35156-.125.3711-.06641.39452-.02344.41797h4.21484v-.74219h-3.33203l.08203-.28125.11329-.23828.14843-.20312.1875-.17969.23047-.17188.27735-.17578.71875-.41406.41406-.20703.34765-.23047.27735-.25.22265-.26953.16016-.27734.11328-.28125.0625-.28516.01953-.28125-.03906-.38281-.1211-.35156-.1875-.3047-.2539-.26562-.30078-.21094-.34375-.16015-.38281-.09766-.40625-.03125-.4336.03125-.39844.09766-.35546.16797-.3047.23437-.25.30469-.18358.3711-.1172.44921-.03906.51563"/></g></defs><use xlink:href="#X"/></svg>