<svg xmlns="http://www.w3.org/2000/svg" role="img" xmlns:xlink="http://www.w3.org/1999/xlink" viewBox="142.87 323.12 285.77 154.27"><defs><clipPath id="a"><path d="M144 455h1v25.32813h-1zm0 0"/></clipPath><clipPath id="b"><path d="M144 311.67188h1V453h-1zm0 0"/></clipPath><clipPath id="c"><path d="M144 311.67188h324v168.65625H144zm0 0"/></clipPath><clipPath id="d"><path d="M467 311.67188h1v168.65625h-1zm0 0"/></clipPath><clipPath><path d="M144 477h3v3.32813h-3zm0 0"/></clipPath><clipPath><path d="M154 478h7v2.32813h-7zm0 0"/></clipPath><clipPath><path d="M167 477h7v3.32813h-7zm0 0"/></clipPath><clipPath><path d="M181 477h6v3.32813h-6zm0 0"/></clipPath><clipPath><path d="M194 477h7v3.32813h-7zm0 0"/></clipPath><clipPath><path d="M207 478h7v2.32813h-7zm0 0"/></clipPath><clipPath><path d="M220 477h7v3.32813h-7zm0 0"/></clipPath><clipPath><path d="M234 477h7v3.32813h-7zm0 0"/></clipPath><clipPath><path d="M247 478h7v2.32813h-7zm0 0"/></clipPath><clipPath><path d="M260 479h8v1.32813h-8zm0 0"/></clipPath><clipPath><path d="M266 480h1v.32813h-1zm0 0"/></clipPath><clipPath><path d="M273 478h8v2.32813h-8zm0 0"/></clipPath><clipPath><path d="M279 480h1v.32813h-1zm0 0"/></clipPath><clipPath><path d="M287 478h7v2.32813h-7zm0 0"/></clipPath><clipPath><path d="M300 478h8v2.32813h-8zm0 0"/></clipPath><clipPath><path d="M313 478h8v2.32813h-8zm0 0"/></clipPath><clipPath><path d="M327 478h7v2.32813h-7zm0 0"/></clipPath><clipPath><path d="M339 479h9v1.32813h-9zm0 0"/></clipPath><clipPath><path d="M345 480h3v.32813h-3zm0 0"/></clipPath><clipPath><path d="M353 478h8v2.32813h-8zm0 0"/></clipPath><clipPath><path d="M359 480h1v.32813h-1zm0 0"/></clipPath><clipPath><path d="M366 479h9v1.32813h-9zm0 0"/></clipPath><clipPath><path d="M372 479h2v1.32813h-2zm0 0"/></clipPath><clipPath><path d="M379 479h9v1.32813h-9zm0 0"/></clipPath><clipPath><path d="M385 479h3v1.32813h-3zm0 0"/></clipPath><clipPath><path d="M396 476h2v4.32813h-2zm0 0"/></clipPath><clipPath><path d="M409 476h3v4.32813h-3zm0 0"/></clipPath><clipPath><path d="M421 477h5v3.32813h-5zm0 0"/></clipPath><clipPath><path d="M433 477h7v3.32813h-7zm0 0"/></clipPath><clipPath><path d="M447 477h6v3.32813h-6zm0 0"/></clipPath><clipPath><path d="M462 476h3v4.32813h-3zm0 0"/></clipPath><clipPath><path d="M144 464h3v6h-3zm0 0"/></clipPath><clipPath><path d="M144 451h3v6h-3zm0 0"/></clipPath><clipPath><path d="M144 437h3v7h-3zm0 0"/></clipPath><clipPath><path d="M144 423h3v8h-3zm0 0"/></clipPath><clipPath><path d="M144 410h1v8h-1zm0 0"/></clipPath><clipPath><path d="M144 415h1v3h-1zm0 0"/></clipPath><clipPath><path d="M144 399h4v3h-4zm0 0"/></clipPath><clipPath><path d="M144 385h4v5h-4zm0 0"/></clipPath><clipPath><path d="M144 372h4v4h-4zm0 0"/></clipPath><clipPath><path d="M144 360h4v1h-4zm0 0"/></clipPath><clipPath><path d="M144 346h4v3h-4zm0 0"/></clipPath><clipPath><path d="M144 333h4v2h-4zm0 0"/></clipPath><clipPath><path d="M466 331h2v2h-2zm0 0"/></clipPath><clipPath><path d="M144 319h4v3h-4zm0 0"/></clipPath><clipPath><path d="M465 317h3v2h-3zm0 0"/></clipPath><g id="e" clip-path="url(#clip1)"><path fill="#fff" fill-opacity="0" fill-rule="evenodd" d="M-.0039-.0039h1000v1000h-1000zm0 0"/><path fill="#d3d3d3" fill-opacity="0" fill-rule="evenodd" d="M162.14844 355.86328l-.23438.29297.0586.23438.11718.17187.17578.23438.29297.34765.11328.0586.1172-.17188.05859-.23438.17578-.17578.46484-.17578h.69922l.23438.29297.28906.8164.0586.17579.17577.23047.35156.23437.69922.69922.17188.17578.23437.34766.23438.41015.28906.58204.41016.46484.23047.23438.23437.17578.11719.23046.17578.29297.17188 1.16407v.23437l.05859.28906.0586.1172.11718.11718.34766.41015.11718.17188.17578.17578.17579.23438.11718.17187.17188.35156.0586.23438.23437.40625.23437-.0586-.17578.17579-.0586.92968h-.58202l-.23438-.11328-.34766.11328-.11718.1172-.0586.29296-.05859.17578-.11719.17188-.46484.29296-.0586.23438-.05859.11328v.64453l.0586.17188v.41015l.05859.0586v.40625l.0586.40625.11718.17578.0586.0586.23046.64062-.0586.29297v.69921l-.05858.58204v.23437l-.0586.23047-.05469.35156v1.92188l.0547.11719h.42577l-.36719.11718-.02343.35156.89062 1.16797 1.74219.53907 1.33984.35937v.53906l.08985.8086.53515.71484 1.51953.26953.89063-.08594.08984 1.16407.53516.17969 1.16016-.1797 2.05468-.98437 1.16016-.36328 1.8789-.17578 1.69532-.17969-.17969.71875-1.51562.08594-1.25.08984-.8047.26954-1.07421.80859.26953.71875.53516.89844-.17969.625-.26563.80859.26563 1.07813.625.89843.80469.17969 1.25-.17969-.26563.72266.09766.5039.05469.29297v.17188l.05859.29297v.40625l.17578.11719.35156.11718h.40625l.29297-.17578.11328-.11719.0586-.11718.11719-.23047.05859-.17578.35156-.46485.23047-.17578.17578-.0586.17578.0586.0586.17578.11718.98828.0547.46875.05858.17188.1172.23437.17577.0586.81641.0586h.28906l.11719.23437.0586.40625.05859.35156v1.10547l.11719.29297.11718.34765.28906.69922.17579.35156.58203.75391.35156.17578.17188.0586.46875.23437.64062.46484.34766.23438.29297.17578.29296.05469.23047.0625.8164.34765.29298.17579.11328.17187.35156.35156.11719.17578.52344.64063v.28906l.05859.35156v.34766l.0586.35156.05859.28906.11719.0586.17187.0586h.17578l.58203.23437.17578.11719.17578.28906.17579.23437.11328.23438.29297.23047.11718.11718v.41016l.0586.05469.28906.23437.23438.11719.05859.11719.11719.17187.05859.11719.23047.23438.0586.17578.23437.05859.11719.0586-.1172.11327-.05859.1172v.11718l-.11718.29297-.1172.28906v.58203l.17579.11719.11719.0586.0586.11718.11718.11719.11328.0586.17578.34765.0586.35156.05859.40625v.17578l-.0586.17578-.11718.69922v.17188l.11719.17578.29296.29297h.40625l.17578.11719.1172.17187.11718.29297v.23437h-.52734l-.23047-.23437h-.23438l-.17578.0586-.0586.69921.0586.34766.11719.17578.17578.41015.11719.23047.28906.46875.17578.0547h.52344l.23437.05858.75782.64063.05859.29297v.23437l.0586.0586.23046.34765v.35157l-.11719.17187v.29297l.29297.28906.29297.17578.17188.0586.29297.17578.29297.11719.58203.40625.28906.23437.29297.17578.21875.16016.01562.01172.23047.17578.64063.52344.17578.23437.11719.17578.17578.17578.11328.17188v.64062l.11719.17579.46875.11718.58203.11719.23437.0586.23047.11327.29297.1172.11328.05859.58594.35156.28906.17187.17578.0625.17578.0547.17578.05858.69922.35157.28906.17578.23438.05469.28906.17578.23438.11719.64062.40625.29297.11718.17188.0586.23437.05859.41016.0586.23047.05859.23437.11719.0586.17187-.41016.17578.46875.0586.0586.29296.11327.23438.17578.05469.23438.05859.17578.0586.40625.11718.64063.23438.11718.17187.0586.23438v.17578l-.0586.11719-.05859.40625.23438.23437.11718.0586.34766.11718.64062.23047.17578.11719.28907.11719.17578.17578.23437.46484.58203 1.10547.17579.17578.34765.17578.17578.11719.35157.11719 1.04687.52343.23438.0586.46484.11328.29297.0586.46484.17577.75781.58204.23438.23437.34766.46484.17578.17579.28906.23437.8164.69922.29298.17578.28906.28906.29297.17578.29297.28907.6953.64062.17579.17578.29297.23438.28906.23437.46875.28906.64063.58204.34765.23437.23438.29297.34765.34766.35156.46484.9336.99219.34766.40625.11718.17578.23438.0586.11328.11718.64453.17578.23047.11328.23437.0586.29297.17578.23047.11719.9336.69921.40625.40625.23437.17579.40625.17578.23438.11718.8164.34766.34766.23438.23437.11718.29297.28906.23047.1172.75781.35156.35156.17187.23047.0586.29297.11718.23438.0586.8711.17578h.8164l.46875.23046.17187.0586.875.69922.46485.11719.29297.05859.17578.0586.23047.05859.46875.05859.34765.0586.35156.05859.40625.0586h.29297l.17188.05858v.23047l.17578.17579h.29297l.34765.05859.35157.0586.69922.11718h.64062l.46484-.23438.29297-.17578.17188-.11718.41015-.17188.28907-.17578.93359-.46484.46875-.29297.52344-.29297.46484-.17188.46484-.17578 1.05079-.46484.28906-.11719.41016-.11719.28906-.11718.52734-.17579 1.51563-.69921.58203-.34766.28906-.0586.29297-.05859.34766-.11719.875-.23046.35156-.1172h.11328l.23437-.05858.875-.23438.23438-.0586h.8125l.35156-.05859.8164-.11719.17188-.05859.35156-.05469.29297-.05859.23047-.0586.8164-.17577.17579-.0586h.34766l.23437-.0586.46485-.11718.7578-.17188.23438-.05859h.34766l.41015-.11719.28907-.05859 1.28515-.0586h.28907l.41015-.05859.23047-.0586h.17578l.875-.11718h.40625l.41016-.11719h.34765l.35157-.11328.8711-.0586h1.75l1.04687.28907.41015.11719.28906.11719.35157.11718.28906.1172 1.05078.17187.28906.05859h.29297l.29297.0586.17188.05859.41015.0586.17188.05858.11719.0586h.11718l.11719.0586.35156.05859h.11328l.41016.0664 1.92188.39453 1.92578.39454 1.51953.44921 1.69531.71875 2.14453.8047 1.60547-.71876 1.42969-.80469 1.16015-1.07812 1.25-.44922 3.03516-.71875 1.875-.35938 2.14453-1.34765 2.23438-1.2539 2.5-1.25782 1.6953-.44922 1.78517-.17969 1.16015-.26953.625.53906 1.33985-.26953.71484-.98828.98437-1.34375.44532-.17969.80468-.35937 1.875-.53906 1.78516-.44922 1.25-.26953 1.16016-.08985 1.69921-.08984 1.96094-.26953 1.25-.08985h.53906l.625-.08984h.89063l2.14453-.17969 2.41016-.17968 2.58984-.08985 1.69531.17969 1.60938.08984 1.42969.35938 1.16015.71875 1.875.98828 1.16016 1.52734.26562.71485.62891.08984.35547.89844.53515.53906.53516 1.52735 1.07422.35937h.53516l-.8047.53516.08985 1.70703.71485 2.69531.89062.80469.89453.98828.71485 1.25781 1.78515.53906 1.51953-.17968.35547 1.34375 1.60938-.8047.98047-.53905.26953.26953.3164-.21485.21875-.14453.80079.44922.44921-.35937h.35547l.53516-.26954.53906-.71875.53516-.26953.625-.98828 1.16015.44922.83985.3711 1.39453.61718 1.69531-.17969h1.60547l1.78516.08985.17968-1.70703.53516-1.34375.80469.26953.49219.84765.40234.40625-.08985.53907v.35937l.71485.44922.71094-.26953h1.42968l.35938.98828.44531 1.25781.71485 1.34375 1.25.62891 1.6953.6289.71485-.17968.17969-.53906.98047-.08985.44922.35938.08593 1.25781-.26562.6289-.53516.1797v.53906l.71485.98437.26562.53906.98438.98829.80078 1.07812-.26563.35938-.08984.89843-.625 2.33203-.35547 2.06641-.08984 1.79297-.1797.71875-.08983.53906v1.4375l-.98047 1.88281-.35938 1.70704-.53515.89843-.8047 1.16797-.26562.53906 2.05469 1.25391.08594.35938-.35547.53906-.08985-.17969v.8086l.08985 1.4375-.44531.71484-1.07422.09375-.26563.71484.53516.89844.80469.71875 1.16015.8086 1.33985.26952.4453.35938-.35546.44922-1.78906-.08985-1.25-.44921-.71485-.71875-.625-.08985-.17578 3.58985-.1875 1.30859h89.35938V311.69922h-55.26953v49.08203l.76171.125 3.28907.54297 2.02344 2.83594v2.7539l2.35156.33203 2.34765.33204h4.05079l-1.37891 4.16015-2.02344.70703-2.02344.70313-.54296.34375-2.59375 1.61719-.1875.11718-2.02344-2.07812-.73047-2.74219-2.67188-2.07813-1.375-3.5-.0664-.08203-1.95703-2.67187 2.75-1.41797v-49.08203h-118.2422v91.41406l.1172.03125.1328.01172.07423.07422.10547.04687.08984.0586.08594.0586.08984.05858.29688.29688.05859.08984.03125.1172.02734.11718.01563.13672-.03125.11719-.0586.08984-.05859.08594-.04297.10546-.04687.10157-.02735.1211v.14452l.17579.26953.14843.14844.07422.08594.07422.07422.04297.10547.0625.08984.0586.08594.04296.10547.0586.08984.04687.10156.04297.10547.0586.08594.11718.17969.07422.07421.0625.08594.0586.08985.04296.10546.0586.08985.05859.08594.0625.08984.0586.08984.04296.10157.11719.17968.07422.07422.0586.08594.07421.07422.08984.0586.10547.04687h.14844l.13281-.01563.13281.01563.10157-.04688.07422-.07422.04687-.10156-.01562-.13281v-.14844l-.04688-.10547-.02734-.11719-.04688-.10156-.02734-.1211-.04297-.10155-.0625-.08985-.04297-.10156-.04297-.10547-.03125-.11719-.01562-.1328-.01172-.13673.08594-.0586.05859-.08593.1211-.03125.04296.10547.01563.13281v.11719l.0586.10156.05858.08985.08985.05859.14844.14844.05859.08984.04297.10547-.01172.10156.08594.0586.10547.04687.08593.0586.08985.05859.07422.07422-.1172.02734-.10546.04688-.08594.05859-.07422.07422-.05859.08984-.0625.08594-.02734.1211-.04688.10156-.04297.10546-.03125.1172-.01172.1328-.01562.13282v.14844l.02734.11718.04688.10547.04297.10156.05859.08985.07422.07422.08984.05859.07422.07422.08985.0586.05859.08984.04297.10546.04687.10157.11719.03125.13281.01562h.14844l.11719-.03125.10547.04297.04296.10547.04688.10156.02734.1211.03125.11718.02735.1172.03125.12108.02734.1172.10547.04296.10156.04688.13281-.01563.14844.14844.0625.08594.07422.07421.07031.07422.08985.0625.10547.04297.10156.04297.11719.03125.13671.01563.1172-.03125.07421-.07422.02735-.11719-.01172-.13281-.03125-.1211-.02735-.11718.04297-.10547h.11719l.08984.0625.11719.02734h.14844l.13281.01563h.14844l.13281.01562.13281-.01562h.14844l.13281-.01563.13281-.01172.13672.01172.1172-.02734.1328-.01563.19141-.0586-.0586.17579-.01562.13281-.02734.1211-.01563.1328-.0586.08595-.1328.01562-.10547.04688-.10547.04296-.11719.03125-.11719.02735-.26562.03125h-.14844l-.13281.01562-.07422.07422.0586.08594.14843.14844.11719.17969.07422.0703.08984.0625.08985.0586.08593.0586.08985.05859.10156.04297.10547.0625.10547.04297.08593.05859.10547.04688.10156.04296.1797.1172.05859.08983-.04297.10157-.04688.10547.01563.1328.22265.22267.0586.08984.04297.10156.03125.1211.04296.10156.01563.13281.03125.11719.01172.13672.03125.11718.14844.14844.10156.04297.10547.04297.11719.03125.1328.01562.13673.01563h.11718l.1172-.03125.08983-.0586.04297-.10546.04688-.10157.04297-.10546.03125-.1172.01172-.1328v-.14844l-.01172-.13281-.01563-.13282-.03125-.11719-.04297-.10546-.04687-.10547-.04297-.10156-.04297-.10547-.01562-.13282.01562-.1328.02735-.1172.03125-.11718.02734-.1211.04687-.10156.08985-.0586.08594-.0625.07421-.07421.08985-.0586.22265-.22265.0586-.08594.07422-.07422.11718-.17969.0586-.08593v-.14844l-.07422-.07422-.10156-.04688-.10547-.04296-.10156-.04297-.0586-.08985-.04687-.10546-.02735-.1172.08985-.05859.11718-.03125.10157-.04296.17968-.1172.14844-.14843.01172-.13281-.01172-.10547-.08984-.0586-.13281.01563h-.14844l-.13281.01563-.13282-.01563-.1211-.03125-.08593-.0586-.07422-.07421-.0586-.08985-.0625-.08593-.11718-.1797-.0586-.08593.03126-.1211.08594-.05859.12109-.03125.0586-.08593v-.1211l-.03126-.11719-.0586-.08984-.05858-.08594-.04688-.10546-.02734-.1172-.01563-.1328.0586-.08985.07421-.07422.08985-.0586.11719-.17968.07421-.07422.0586-.08594.14844-.14843.12109-.03125.13281-.01563.13281.01563.07422.07422.04297.10546.01563.13282-.03125.11719-.1172.03125-.1328.01171-.14844.14844-.04297.10547-.04688.10156-.02734.1211-.03125.11718v.14844l.03125.11719.04297.10547.0586.08984.07421.07031.07422.07422.11719.03125.1211.02735.11718-.02735.13281-.01562h.11719l.08984.0586.07422.07421.04688.10547.0586.08594.10155.04687.13282.01563.10546.04296.08594.0586-.01172.10547-.07421.07422-.1797.11718-.05859.08985-.08984.0586-.07031.07421-.07422.07422-.0625.08984-.02735.11719-.01562.13281.01563.13281-.01563.13282v.14844l.01563.1328.02734.1172.03125.12109.07422.07422.08984.0586.08594.05858.08984.0586.11719.03125v.08594l-.10156.04687-.08985.0586-.26562.03125-.11719.02734h-.14844l-.10546.04297-.10157.04687-.0586.08985-.0625.23437-.01171.13281-.03125.1211-.01563.13281v.29297l-.01171.13281.01171.13672.01563.13281.13281.01563.13281.01172.1211.03125.08594.05859.07421.07422.04688.10547.04297.10156.01562.13281v.44531l-.01562.13282v.44531l.03125.26563.02734.11718.01563.13281.03125.1172.08594.21093.03125.26563v.14843l-.03125.11719-.02735.11719-.03125.1211-.02734.11718-.03125.11719-.03125.12109-.01172.13281-.01563.13281.08985.0586.11719-.03125.10156.01562.04687.10547-.03125.26563v.4414l-.04297.10547-.04687.10547-.04297.10156-.04297.10547-.0586.08594-.03124.1211-.04297.11718-.03125.11719-.01563.13281.01563.13281.0586.08985.10546.04687.08594.0586.0586.08593-.01173.13672-.03125.11719-.04296.10156v.44531l-.01563.13282v.14844l-.03125.11718-.04297.10547-.02734.11719-.04688.10547-.04297.10156-.03125.1211-.02734.11718-.03125.13281-.03125.1172-.02734.11718-.04297.10547-.03125.11719-.03125.12109-.01172.13281-.01563.13281v.29688l.02735.11719v.14843l.04687.39844.02735.11719.05859.08984.1211.03125h.14843l.13281-.01562.0586.08984v.11719l-.0586.08984-.08984.0586-.10156.04296-.10547.04688-.08985.0586-.08593.05859-.13672.01562-.11719-.03125-.13281-.01562-.10156.04687-.0625.08594-.01172.13672-.01563.13281-.03125.11719-.02734.11719-.01563.1328-.03125.1211v.29688l.01563.13281.03125.11719v.14844l.01172.1328v.14844l-.02735.1172-.04687.10156-.02735.12109-.03125.11719-.05859.08984-.07422.07422-.10156.04297-.10547.04687-.11719.02735-.12109.03125-.10156-.04688.0586-.08594.10546-.04687.02734-.11719.03125-.11719.02735-.12109.03125-.11719v-.14844l.01562-.1328-.03125-.1172-.04297-.10546-.10546.01562-.07422.07422-.10157.04297-.08984.0625-.07422.07422-.04297.10156-.01562.13281-.03125.11719-.02735.1211-.03125.11718-.02734.11719-.03125.1211-.02734.11718-.03125.11719-.04297.10547-.08985.05859h-.08984l-.11719-.03125-.03125-.08594.01563-.13672-.03125-.11718v-.14844l-.01172-.13281v-.14844l-.0625-.23438-.02735-.12109-.04296-.10156-.04688-.10547-.0586-.08594-.05859-.08984-.04296-.10547-.0625-.08594-.14844-.14844-.07031-.07421-.10547-.04688-.10547-.04297-.10156-.04297-.29688-.29687-.08984-.07422-.08594-.0586-.10547-.04296-.08984-.0625-.08594-.0586-.10547-.04297-.08984-.05859-.08594-.0625-.07422-.07031-.10547-.04688-.08594-.0586-.10546-.04296-.08985-.0625-.10156-.04297-.10547-.04297-.08594-.0586-.10547-.04687-.10546-.04296-.10157-.04688-.08984-.0586-.10156-.04296-.10547-.04297-.08985-.0625-.11718-.02735-.13282-.01562-.1328.01563h-.14845l-.1328.01562-.1172-.03125-.08984-.0586-.07422-.07421-.08984-.0586-.10156-.04687h-.14844l-.1211-.02735-.10156-.04296-.07422-.07422-.11719-.17969-.08984-.0586-.10156-.04296-.08985-.0625-.10546-.04297-.08985-.0586-.08594-.05859-.10546-.04687-.0586-.08594-.0586-.08985-.04296-.10546-.04688-.10157-.07421-.07421-.08594-.0586-.07422-.07422-.08984-.0586-.22266-.22265-.04297-.10547-.03125-.26562.10547-.04297h.14453l.10547.04297.07422.07422.08984.0586.08594.05858.10547.04688.08984.0586.14844.14843.07031.07422.14844.14844.0625.08594.07422.07421.08594.0586.07421.07422.08985.0625.08984.05859.08594.0586.26953.17577.10156.04688.10547.04297.10156.04297.04688-.07422.0586-.08594.07421-.07422.07031-.07422.10547.04297.07422.07422.0586.08985.04296.10156.04688.10547.04297.10546.1211.02735.11718-.02735.07422-.08984.04297-.10547.0586-.08984.07421-.07422.10547-.04297.11719-.02734.1328.01172.08985.05859.14844.14844.0586.08984.04296.10547.04688.10156.04297.10547.04296.10156.10547.04688.10547.04297.13281.01562.08594-.0586.0586-.08983.07421-.07422.10547-.04297.1172.02734.10546.04688.10156.04296.10547.04297.10156.04688.1797.11719v.11718l-.01563.13282.01562.1328.01563.13673.05859.08594.10156.04687.1211.02734.11718.03125h.14844l.11719-.03125.0586-.08984.17968-.11719.0586-.08984.07421-.07422.0586-.08594.11718-.17969.1797-.11718.11718.03125.08984.0586.04297.07421-.01562.13281v.11719l.08984.0586h.14844l.13281-.01563.13281-.01172.26563-.03125.10547-.04297.11718-.03125.1211-.02734.07422-.07422.0703-.07422.0625-.08984-.01562-.10547-.04687-.10156-.10156-.04297-.10547-.01563-.11719.02735-.26563.03125h-.14843l-.07422-.07422-.08985-.0586-.11718-.03125-.11719-.02734-.13281-.01563h-.14844l-.13281.01563h-.29688l-.10547-.04688-.14843-.14843-.04297-.10157-.0586-.08984.22266-.22266.08594-.05859.10547-.04297.11718-.03125.13282-.01562.1328.01562.13673.01563.10156.04296.13281-.01171.08985-.0625.10156-.04297.0625-.08985-.04688-.10156-.08984-.0586-.11719-.03124-.10156-.04297-.0586-.08985-.0625-.08984v-.11719l.01563-.1328.10547-.04688.07422-.07032v-.12109l-.08985-.0586-.03125-.11718.08985-.0586.07422-.07421.04297-.10547.05859-.08985.04688-.10156.01562-.13281v-.14844l-.04688-.10547-.04296-.10156-.08985-.0586-.13281-.01562-.10156-.04297-.13672-.01562-.11719-.03125h-.44531l-.13281-.01563-.13282-.01172-.1328-.01562-.1172-.03125h-.14843l-.13282-.01563-.1328-.01171-.26563-.03125-.1211-.04297-.08594-.0586-.07421-.07422v-.14843l.01171-.13282.10547-.04687.10157-.04297.1328-.01563h.15235l.13281-.01562h.29297l.1211.03125.10156.04297.08984.0586.23438.0625.1211-.04688.08984-.0586.10156-.04296.13281-.01563.10547.04297.10156.04687.13281.01172.1211-.02734h.14453l.1211-.03125.11718-.02735.10547-.04687.07422-.07422.08594-.0586.14843-.14843.0586-.08594.04687-.10547.02735-.11718.01562-.10547-.10156-.04297-.08985-.0586-.11718-.03125-.10547-.04296-.08985-.0625-.07421-.08594-.07422-.07422-.10156-.04297-.10547-.04687-.10157-.04297-.05859-.08985-.04688-.10156-.08593-.21094-.0625-.08593-.0586-.08985-.07421-.07422-.08594-.05859h-.26953l-.1172.03125-.08983.0586-.10157.04296-.13281.01563-.10547-.01563-.02734-.11719-.0625-.08984-.11719-.03125-.10156-.04297-.14844-.14844-.03125-.11718-.01563-.10547.07422-.07422.1797-.11719.11718-.02734.11719-.03125.13671.01562.10157.04297.10547.04297.10156.04688.10547.04296.11719.03125.1328.01563.1172.02734.1328.01563.10548-.01563.08984-.05859-.07422-.07422-.10547-.04297-.07422-.07422-.07421-.08984-.14844-.14844-.08594-.0586-.08984-.05858-.07422-.07422-.08985-.0586-.10156-.04687-.1211-.02735-.10156-.04687-.10546-.04297-.1172-.03125-.10155-.04297-.1211-.03125h-.14844l-.11718.03125-.10547.04297-.08594.0625-.17969.11719-.08593.0586-.08985.05858-.10547.04688-.08593.0586-.10547.04296-.10156.04297-.10547.04688-.07422.07421-.0586.08985-.05859.08594-.04688.10546-.05859.08594-.07422.07422-.13281-.01172-.11719-.03125h-.11719l-.07421.07422-.08985.0586-.07422.07421-.08984.0586-.08594.0586-.10547.04687-.10156.04296-.13672.01563-.10156-.04297-.14844-.14844-.10547-.04687h-.08593l-.10547.04687-.10156.04297-.1211.03125-.11719-.03125-.07421-.07422v-.11718l.03125-.1211.07421-.07031.0586-.08984.07422-.07422.11718-.03125.10547-.04297h.29297l.13281-.01563.13672-.01562.10156-.04297.08985-.0586.10156-.04687.08985-.0586.1328-.01171.08985.0586.13281.01171.08985-.0586.08594-.05859.10546-.04296.08985-.0586.08594-.0625.08984-.0586.14844-.14843.05859-.08594.0586-.08984.10546-.04297.13281-.01563.1172.02735.12109.03125.05859-.0586.0586-.08984.03124-.26562.02735-.1172.10547.01173.1328.01562.10157-.04297.08985-.05859.05859-.08984.07422-.07422.0586-.08985.04687-.10156.01171-.13281-.01171-.13281-.04688-.10547-.14844-.14844-.05859-.08984-.0586-.08594-.04296-.10547v-.44531l.01562-.13281v-.14844l.01172-.13281-.0586-.0586-.08984.0586-.10156-.04297-.17969-.1172-.08593-.05858-.0625-.08985-.0586-.08984-.07422-.07422-.08593-.0586-.1211.03125-.10156.01172-.10547.04688-.08594.0586-.10546.04296-.14844.14844-.08985.0586-.08593.05859-.08985.0625-.10547.04296-.1328.01563v-.1211l.10546-.04296.11719-.03125.07422-.07031.04296-.10547v-.14844l-.02734-.11719-.14844-.14844-.1328-.01562h-.14845l-.11718.03125-.10547.04297-.10156.04297-.08985.0625-.11719.02734-.07421-.07422.01171-.13281-.04296-.10156-.04297-.10547-.08985-.0586-.11719.02735-.12109.03125-.11719.03125-.10156.04297-.1211.03125-.10156.04296-.10546.04297-.08985.0586-.10156.01562v-.11719l.01563-.1328-.0586-.08985-.07422.04297-.14844.14844-.05859.08984-.07422.07422-.04687.10547-.04297.10156-.07422.07422-.0586.08984-.07421.07422-.0586.08594-.07421.07422-.08985.0625-.07422.0703-.07422.07423-.10156.01562-.13281.01563-.10547-.04297v-.1211l.14844-.14843.04297-.10156.05859-.08985.04688-.10156.04296-.10547.0586-.08984.03125-.1172.04297-.10155.03125-.1211.02734-.11719.04688-.10546.04296-.10157.04297-.10546.07422-.07032.08985-.0625.08984-.0586.10156-.04296h.29688l.26562-.03125.10547-.04297-.07422-.07422-.11719-.03125-.10546-.04297-.08985-.05859-.10156-.04688-.08985-.05859-.10156-.04297-.10547-.04297-.08984-.0625-.08594-.05859-.10547-.04297-.10156-.04297-.1211-.03125-.11718-.03125-.10156-.04297-.1211-.03125-.10156-.04296-.08984-.0586-.04297-.10547-.01563-.13281.10157-.04297.1328-.01562.13673.01562.13281-.01562.10156-.04297.0586-.08985.01562-.10546-.08984-.0586-.07422-.07422-.10156-.04297-.08985-.05859-.14844-.14844-.04296-.10547-.01563-.1328v-.29298l-.0586-.08984-.08984-.0586-.07421-.07421-.04297-.10547-.03125-.11719-.0586-.08984-.07422-.07422-.11718-.02735-.07422-.07421-.08985-.0586-.08984-.0625-.08594-.0586-.07422-.07421-.05859-.08594-.04688-.10547-.08593-.0586-.14844-.14843-.19531-.0586-.13281.01563-.10157.04297-.07422.07422-.04687.10156-.04297.10547-.0586.08985-.05859.08593-.29687.29688-.08985.0586h-.08593l-.0625-.08595-.04297-.10546.03125-.1172.0586-.08984.02733-.11718-.01171-.13282-.08985-.0625-.10547.04688-.11718.02734-.1172.03125-.26952.17578-.10156.04688-.1172.02734-.10546.04688-.08985.0586-.10156.04296-.0586-.08594-.04687-.10547.01563-.1328.04687-.10548.07032-.07422.07421-.0703.0586-.08985v-.14844l-.04297-.10547h-.23828l-.10156.04688-.03125.11718-.02735.1172-.03125.12108-.07422.04297-.1328.01563-.07423-.04688-.04297-.10156-.04296-.10547-.04688-.10156-.04297-.10547-.1211.03125-.10156.04297-.1328.01563-.1172.03125-.10546.04296-.08985.0586-.10156.04687-.1211.02735-.1328.01562-.10157-.04297-.0586-.08984-.04687-.10547-.04297-.10156-.04296-.10547v-.11719l.05859-.08984.08594-.0586.17968-.11718.10157-.04688.10546-.04297.10547-.0586.10157-.04296.08984-.0625.10156-.04297.10547-.0586.10156-.04687.08985-.0586.10547-.04296.10156-.04297.08984-.0625.10156-.04297.13672-.01562.1172.03125.10155.04297.1211.03125.10156.04296.10547.04688.10156.04297.10547.04297.10156.04687.10547.04297.10156.04297.10547.04688.08594.05859.10547.04297.11719.03125.10546.04297.10157.04687.08984.0586.10547.04296.10156.04297.10547.04688.11719.02734.10156.04688.1211.02734h.14843l.08594-.0586.01563-.10156.05859-.08984-.02735-.11719-.07421-.07422-.1172-.17968-.07421-.07422-.08984-.07422-.1797-.11719-.08593-.0586-.10547-.04296-.10156-.04688-.26953-.17578-.0586-.08984-.07421-.07422-.0586-.08984-.04297-.10157-.03125-.11718-.01562-.13672v-.5625l-.01172-.13281-.01563-.13282-.03125-.11719-.01562-.1328-.01172-.13282-.03125-.1211-.22265-.22265-.0586-.08594-.01562-.10547.03125-.11718.1328-.01563v-91.41406H172.98829v1.45312l-.0586.23438-.35155 1.05078-.17188.52344-.11719.34765-.17578.41016-.11719.17188-.23437.29296-.23047.0586h-.35156l-.11719.0586-.23047.40624V317l.11719.17578.23047.23047.11719.23438.64062.7578.29297.46485.17578.23438.23047.35156.23437.34765.64063.81641.17578.46485.17188.41015.11718.69531.17578.46875.1172 1.39844.05858.46485v.875l.1172 1.04687v4.78125l-.0586.46484-.35156 1.28125-.17578.52344-.11329.41016-.35156.92969-.46484 1.16796-.23438.58204-.11719.17578-.17187.34765-.17578.40625-.35156.8164-.0586.29298-.11328.29297-.11719.28906-.05859.17578-.11719.875-.0586.40625-.05858.11719-.0586.17578-.0586.17187-.23046.52735-.11719.17187v.23438l-.11719.23437-.05859.17188-.17578.58594v.28906l-.0586.17578v.29297l-.05859.11328-.0586.52734v.17188l-.05468.23437v2.6211l-.17578.8164-.11719.17578-.17578.23438-.11719.17187-.11328.23438-.58594.9336-.23047.28906-.29296.46484-.17578.23437-.28907.35157-.35156.69921-.11328.23047-.17578.41016-.17578.23047-.40625.52734-.81641.69922-.29297.17188-.28906.23437-.17578.11719-.17578.17578-.52344.40625-.52734.17578-.17188.17578-.23438.05469-.64062.17578h-.75781m12.21094 31.02344l-1.07422.44922.35937.89453 1.25-.71485.44531-.53906-.98047-.08984"/><path fill="#d3d3d3" fill-opacity="0" fill-rule="evenodd" d="M201.5039 416.59375h-.89452l.44921.6289.98047.35938.80469-.08984.44531-.98828-.17578.08984-.71484-.35547-.89453.35547M356.125 475.66406l-.0586-.52344v-.29296l.11329-.29297.0586-.23047.46874-.46875h.11328l.11719-.11328.11719-.0586h.17578l.23437-.05859h.34766l.23438.0586.11718.05859.23047.17187.0586.17578.11718.58204v.29296l-.11719.17579-.17187.28906-.17578.17578-.52735.52344-.23046.23437-.1172.0586h-.17577l-.11719-.0586-.40625-.29297-.17578-.11719-.11719-.05859-.0586-.11328-.05468-.11719m6.64063-10.95703l-.0586-.17187v-1.10938l.0586-.17187.17578-.0586.17187-.0586h.17578l.23438-.05858.11719.05859.05859.69922-.0586.17187-.11718.17578-.11719.0586-.23438.52344-.11328.05859h-.23437l-.0586-.11719m9.61329-14.39062l-.1172-.17579v-.69921l.29298-.875.11719-.17188.17578-.35156.11328-.23047.11719-.29297.35156-.75781.11719-.23047.17187-.23438h.17578l.11719-.05859h.64062l.1172.0586.23437.23437.17187.11328.35156.29297.1172.11719.11327.17578v.11328l.11719.0586.11719.11718v.69922l-.0586.17578v.23047l-.05859.17578-.34766 1.05078-.11718.23047-.1172.23438-.11718.05859-.23047.23438-.64062.28906h-.875l-.41016-.11719-.64062-.46484"/><g clip-path="url(#a)"><path fill="#fff" fill-opacity="0" fill-rule="evenodd" d="M143.9961 475.88672v4.4375H144h-.0039v-25.2461 20.8086"/></g><g clip-path="url(#b)"><path fill="#fff" fill-opacity="0" fill-rule="evenodd" d="M143.9961 449.25781v3.70313-141.29297H144h-.0039V449.2578"/></g><path fill="#50fcfc" fill-rule="evenodd" d="M143.9961 452.96094v2.11719l.0039-.00782v-2.10937h-.0039"/><g clip-path="url(#c)"><path fill="#fff" fill-opacity="0" fill-rule="evenodd" d="M144 480.32422v-25.2539l.55078-1.375-.55078-.73438V311.66797h66.57031v64.27734l-4.4375.7461-1.5586 1.55078 1.5586 2.52734.9375 1.91016 3.5 2.7539 1.75 1.6875 2.6914 4.0547 1.27345.3828 1.69922 4.4375-2.78125 4.4375-.19141.21875-.07031-.21875-2.6211-4.4375-1.75-1.42578-4.4375-2.1289-1.40625-.88282-1.69922-4.4375-1.33203-1.3125-4.4375-.77734-3.51953-2.35156-.92187-1.04297-4.4375.2539-.51563.78907.51563.53515 1.68359 3.90625.92188 4.4375-2.60547 2.28516-4.4375-.80078-4.4375.52734-4.44141.27344-4.4375-.19922-4.4375-1.5625-4.4375-.25781-.98047-.26563-3.45703-3.95312-4.4414-.32031-1.75782-.16407-2.67969-.89453-.8164.89453-1.91016 4.4375 2.72656 2.875 1.29688 1.5625-1.29688 1.09375-3.21875 3.34375-.25 4.4375.63672 4.44141 2.83203 2.83984 4.4375.8672 4.44141.16796 4.4375.35547.69531.20703 3.74219 3.15234 4.4375-.02343 4.4375.2578 4.4414-.37108 3.36329-3.01563 1.07422-.50781 4.4375-.03125 4.4375-.07813 4.4414.1875 4.4375-3.35937 4.4375 3.3164.4336.47266 2.35547 4.4375 1.64843 1.55078 1.48828-1.55078 2.95313-1.13281 4.4375.39453 2.40625.73828 2.03125 1.63281 4.4375-.28906 4.4375.08594 2.9961 3.00781 1.4453 1.46484 3.35938-1.46484 1.07813-.35938 3.5039-4.07812.9336-3.46875.55468-.96875-.55469-1.09375-1.74218-3.34375-1.10156-4.4414 1.73437-4.4375-3.32813-2.54298-1.60156-1.89453-2.83594-2.62109-4.4414.84766-3.53516 1.77343-.90234.45704-.84375-.45704-3.59375-1.83984-3.32422-2.59766 1.48828-4.4375-2.60156-2.625-2.96875-1.8164-1.46875-1.45703-2.14844-2.98047-2.29297-2.29688v-64.27734h44.38281v53.63672l-4.4375.28125-3.92187 3.78125-.51563.53125-4.4375.83203-3.43359 3.07422 3.4336 3.07031 4.4375.76563V385l-2.1211 2.1211 2.1211 2.11718 2.30859-2.11719L246.07812 385v-7.35938l4.4375-.45703 4.4375-1.6328 2.22266-1.7461 2.21875-4.02344.3125-.41406-.3125-.28516-4.4414-3.77734v-53.63672h31.0703v84.96484l-4.4375.10547-4.4375.08203-4.4414.79688-4.4375 1.79297-1.97656 1.02343-2.46094.78907-3.0586 3.64843-1.3789 2.8047-2.6836 1.63671 2.6836 1.53906 4.4375 2.27344 3.44922.625.98828.55078 4.4375.60547 4.4414.90234 4.25391 2.37891.1836.21875 4.26953 4.21875.16797.13281.33203-.13281 4.10547-1.71875 4.4375.61328 4.4414-.50781 4.4375.8125 4.4375-.14453 4.4375-.55469 2.89454-2.9375 1.11718-4.4375.42969-1.44922 2.74219-2.98828-.98047-4.4414-1.76172-1.76563-4.4414.16406-1.73048 1.60156-2.70703.63282-4.4375.16796-1.6328-.80078 1.6328-2.8789 1.67188-1.5586-1.67188-1.6875-4.4375-1.41015-4.4414 1.53906-4.4375 1.1836-4.4375-3.42579v-84.96484h44.38281v113.21875l-2.64453 2.17969 2.64453 2.0703 1.95703-2.0703-1.95703-2.1797V311.66798h13.3164v36.41406l-4.4375.85938L337 351.61328l2.28516 2.70313 2.96875 1.73437 1.46875 1.11719 1.1914-1.11719 2.39453-4.4375-3.58593-3.53125v-36.41406h35.5078v111.28515l-4.4414 3.2461-.76562.86719.76562 1.77734.2461 2.66016-.2461.78125-2.61719 3.65625-1.8203 1.02734-3.41798 3.41016-1.01953.98046-4.4375 1.19141-2.74219 2.26563 2.7422 2.58984 4.4375.92188 1.5.92968-.26173 4.4375-1.23828 2.38672-3.33594 2.05078-1.10156.9336-1.08984-.9336-2.86328-4.4375-.48438-.5664-4.4414-.71094-4.4375-1.60547-2.75391 2.88281 1.13281 4.4375 1.6211 1.66016.66796 2.77734 3.76954 3.76172 4.4414-.14453 4.4375-1.40625 2.40625-2.21094 2.03125-2.26562 4.4375 1.01953 4.4375-.09375 3.2539 1.33984 1.1875 1.10938 2.625-1.10938 1.19532-4.4375.61719-.51953 4.38281-3.91797-.39453-4.4375-3.05469-4.4414-.9336-.89454-4.4375-2.875-.33202-.66796.33203-.26563 4.4375-3.45312.67187-.71875 1.66407-4.4375-2.33594-2.39454-.85938-2.04296-3.57812-4.11329V311.66798h31.0664v127.84375l-.89062.86719-2.35547 4.4375.97266 4.4414-2.16406.47266-4.4375.42187-3.57032 3.54297 2.9961 4.4375.57421.59766 4.4375 2.95703 3.64844-3.55469.05469-4.4375.73438-2.72265 1.6953-1.71485 2.7422-1.0664 3.3789-3.375-3.3789-3.34766-3.60157-1.08984-.83594-.8672V311.66798h13.31641v97.92187l-4.4375.1875-4.4414 2.2422-1.66797 1.73046 1.66796 3.65234 2.28907.78516 2.15234.72656.48047-.72656 3.95703-.46875 3.97266-3.96875-3.97266-4.16016v-97.92187h44.3789v168.65625H144"/></g><path fill="#50fcfc" fill-rule="evenodd" d="M144.55078 453.69531l-.55078 1.375v-2.10937l.55078.73437m1.05078-44.38281l-.63672-4.4414.25-4.4375 3.21875-3.34376 1.29688-1.09375-1.29688-1.5625-2.72656-2.875 1.91016-4.4375.8164-.89453 2.6797.89453 1.7578.16407 4.44141.3203 3.45703 3.95313.98047.26563 4.4375.25781 4.4375 1.5625 4.4375.19922 4.4414-.27344 4.4375-.52734 4.4375.80078 2.60548-2.28516-.92188-4.4375-1.6836-3.90625-.51562-.53515.51563-.78906 4.4375-.25391v5.26562l-.11328.21875.11328.33204v6.98828l-1.27344 1.55468 1.27344.48438.83203-.48438-.83203-1.55468v-6.98829l1.23437 4.10547 2.88281 4.4375-4.11718 2.40235-4.4375-1.14453-4.4375-1.15625-4.4375.53515-4.44141.26172-4.4375-.54687-.33984-.35157-4.09766-3.03906-4.4375-.42969-3.5625-.96875-.875-1.0039-4.4414-1.58594-4.4375 2.28516-.16016.30468.16015.16797 3.54688 4.26953-3.54688 2.98829-1.39453 1.44921-.6211 4.4375 1.58985 4.44141.42578.42578 4.4375 2.17578 4.44141.40235 4.4375.3203 3.74219 1.11329.69531.58203 4.4375.07031 4.4375.95313 4.4414-.82813.8672-.77734 3.5703-1.6875 4.4375-.35156 4.4375-.14063 4.44141.55078 3.17969-2.80859 1.25781-1.41797 3.51563 1.41797.92187.77344 3.35547 3.66406 1.08203 1.5 4.4414-.27734 4.4375.85156 4.4375.09375 4.4375-.24219 4.4375-.42187 4.44142 1.85546 4.3125-3.35937-2.42188-4.4375 1.8164-4.4414-.13671-4.4375-3.57031-4.28907-4.44141 2.94922-3.80469 1.33984-.63281.03516-.04688-.03516-4.39062-3.90625-4.4375 2.3672-1.23438 1.53905-3.20312 3.63282-1.14844-3.63282-3.29297-3.61328-1.5039-.82422-2.9336-2.04687-3.8086-2.39063-.6289-1.18359-4.4375-2.14844-4.0586-1.10547-.3828-.21875v-5.26562l.92187 1.04297 3.51953 2.35156 4.4375.77734 1.33203 1.3125 1.69922 4.4375 1.40625.88282 4.4375 2.1289 1.75 1.42578 2.6211 4.4375.0703.21875.19142-.21875 2.78125-4.4375-1.69922-4.4375-1.27344-.3828-2.6914-4.0547-1.75-1.6875-3.5-2.7539-.9375-1.91016-1.5586-2.52734 1.5586-1.55078 4.4375-.7461v6.60156l-.03126.13282.03125.02734.0586-.02734-.0586-.13281v-6.60157l2.29297 2.29688 2.14844 2.98047 1.46875 1.45703 2.96875 1.8164 2.60156 2.625-1.48828 4.4375 3.32422 2.59766 3.59375 1.83984.84375.45704.90234-.45704 3.53516-1.77343 4.4414-.84766 2.83594 2.6211 1.60156 1.89452 3.32813 2.54297-1.73438 4.4375 1.10157 4.44141 1.74219 3.34375.55468 1.09375-.55469.96875-.93359 3.46875-3.5039 4.07813-1.07813.35937-3.35938 1.46484-1.4453-1.46484-2.9961-3.00781-4.4375-.08594-4.4375.28906-2.03125-1.63281-2.40625-.73828-4.4375-.39453-2.95313 1.13281-1.48828 1.55078-1.64844-1.55078-2.35546-4.4375-.4336-.47266-4.4375-3.3164-4.4375 3.35937-4.4414-.1875-4.4375.07813-4.4375.03125-1.07422.50781-3.36328 3.01563-4.44141.37109-4.4375-.25781-4.4375.02343-3.74219-3.15234-.69531-.20703-4.4375-.35547-4.4414-.16797-4.4375-.86719-2.83204-2.83984"/><path fill="#00e8fc" fill-rule="evenodd" d="M148.00781 409.3125l-1.58984-4.4414.6211-4.4375 1.39452-1.44923 3.54688-2.98828-3.54688-4.26953-.16015-.16797.16015-.30468 4.4375-2.28516 4.44141 1.58594v2.53906l-2.94531 2.90234-1.4961.6211-3.97656 3.8164-.32422 4.4375 2.89844 4.44141 1.40234.76172 4.44141.78515 4.4375.26172 4.4375.73438 4.4375-.76563 4.4375.95313 4.4414-.66406 4.4375-1.28516 4.0547-.78125.3828-.39844 4.4375-3.09765 1.10157 3.49609 3.33984.8125.92188-.8125 3.51562-3.96484 2.20703-.47657 2.23047-.21093.50781.21093 3.9297 3.98829 1.11718.45312 3.32422 1.91016 4.4375 1.3125 4.4375-.15625 4.4375.21875 4.4375-1.2461 2.15625-2.03906 2.28516-1.39453 2.23437-3.04688-2.23438-3.64453-4.4414 2.60547-4.4375-1.89844-1.91797-1.5-2.51953-2.24218-2.84375 2.24218-1.26172 4.4375-.33203 1.39063-4.4375 1.4375-1.65234-2.82813-1.28516-4.4375-1.5039-1.64843-4.4375-2.57813-2.04298-.21094-2.39453-.90625-.82812.90625-2.21875 4.4375 1.3789 4.4375-2.76953 1.91407-3.97265-1.91407-.46875-.40234-4.4375-1.6914-1.96875-2.34376-2.46875-1.52343-4.4375.47656-4.16407 1.04687-.27734.1172-.10547-.1172-4.33203-2.05078-2.3086-2.38672-2.1289-1.57812-4.4375-.71875-4.4375-.60547v-2.53906l.875 1.0039 3.5625.96875 4.4375.4297 4.09766 3.03905.33984.35157 4.4375.54687 4.4414-.26172 4.4375-.53515 4.4375 1.15625 4.4375 1.14453 4.1172-2.40235-2.88282-4.4375-1.23437-4.10546-.11328-.33204.11328-.21875.3828.21875 4.0586 1.10547 4.4375 2.14844.6289 1.1836 3.8086 2.39062 2.9336 2.04687 1.5039.82422 3.29297 3.61328 1.14844 3.63282 3.20312-3.63282 1.23438-1.53906 4.4375-2.36719 4.39062 3.90625.04688.03516.63281-.03516 3.80469-1.33984 4.4414-2.94922 3.57032 4.28906.13672 4.4375-1.81641 4.44141 2.42188 4.4375-4.3125 3.35938-4.44141-1.85547-4.4375.42187-4.4375.24219-4.4375-.09375-4.4375-.85156-4.4414.27734-1.08204-1.5-3.35547-3.66406-.92187-.77344-3.51563-1.41797-1.25781 1.41797-3.17969 2.8086-4.4414-.55079-4.4375.14063-4.4375.35156-3.57032 1.6875-.86718.77734-4.44141.82813-4.4375-.95313-4.4375-.0703-.69531-.58204-3.74219-1.11328-4.4375-.32031-4.4414-.40235-4.4375-2.17578-.42579-.42578"/><path fill="#00d4fc" fill-rule="evenodd" d="M151.46875 409.3125l-2.89844-4.4414.32422-4.4375 3.97656-3.81641 1.4961-.6211 2.94531-2.90234 4.4375.60547v1.17187l-4.4375.15625-.98438.96875-3.45703 1.4375-3.125 3-.35156 4.4375 3.47656 3.89844 4.01172.54297.42969.08984 4.4375.20704 4.4375.05468 1.19531-.35156 3.24219-1.51563 4.04688-2.92578-4.01172-4.4375-.03516-.01562-4.27734-4.42188-.16016-.11718-4.4375-1.00782v-1.17187l4.4375.71875 2.1289 1.57812 2.3086 2.38672 4.33203 2.05078.10547.1172.27734-.1172 4.16407-1.04687 4.4375-.47656v5.24218l-.90625.71875.90625.57422.5625-.57422-.5625-.71875v-5.24218l2.46875 1.52343 1.96875 2.34375 4.4375 1.69141.46875.40234 3.97265 1.91407 2.76953-1.91407-1.3789-4.4375 2.21875-4.4375.82812-.90625 2.39453.90625 2.04297.21094v1.13281l-4.4375 1.76172-.76562 1.33203.76562 1.30079 4.4375 1.78906 3.21485 1.34765 1.22265 1.2422.86719-1.2422-.86719-3.26562-.2461-1.17188-4.1914-3.09375v-1.1328l4.4375 2.57812 1.5039 1.64843 1.28517 4.4375 1.65234 2.82813 4.4375-1.4375.33203-1.39063 1.26172-4.4375 2.84375-2.24218v1.66796l-.73047.57422-2.1875 4.4375.51953 4.44141 2.39844.95313 4.4375.60156 3.20312-1.55469-.64062-4.4414-2.5625-1.47266-3.78906-2.96485-.64844-.57421v-1.66797l2.51953 2.24218 1.91797 1.5 4.4375 1.89844 4.4414-2.60547v2.40625l-1.82421 1.23828 1.82422 1.03907.7578-1.03907-.7578-1.23828v-2.40625l2.23437 3.64453-2.23438 3.04688-2.28515 1.39453-2.15625 2.03906-4.4375 1.2461-4.4375-.21875-4.4375.15625-4.4375-1.3125-3.32422-1.91016-1.11719-.45313-3.92969-3.98828-.5078-.21093-2.23048.21093-2.20703.47657-3.51562 3.96484-.92188.8125-3.33984-.8125-1.10156-3.4961-4.4375 3.09766-.38282.39844-4.05468.78125-4.4375 1.28516-4.44141.66406-4.4375-.95313-4.4375.76563-4.4375-.73438-4.4375-.26171-4.4414-.78516-1.40235-.76172"/><path fill="#00c4fc" fill-rule="evenodd" d="M152.8711 408.76953l-3.47657-3.89844.35156-4.4375 3.125-3 3.45703-1.4375.98438-.96875 4.4375-.15625v1.15235l-4.4375.26953-4.4414 1.95703-2.27735 2.1836-.3789 4.4375 2.65624 2.98046 4.44141.42188 4.4375.26953 4.4375-.47656 4.14063-3.19532-.8047-4.4375-3.33593-3.39453-4.4375-1.01562v-1.15235l4.4375 1.00782.16016.11718 4.27734 4.42188.03516.01562 4.01172 4.4375-4.04688 2.92579-3.24219 1.51562-1.19531.35156-4.4375-.05469-4.4375-.20703-.42969-.08984-4.01172-.54297"/><path fill="#00b8fc" fill-rule="evenodd" d="M152.8711 407.85156l-2.65626-2.98047.37891-4.4375 2.27734-2.18359 4.44141-1.95703 4.4375-.26953v.71484l-4.4375.14844-4.4414 2.17969-1.42579 1.36718-.41015 4.4375 1.83593 2.0586 4.44141.23437 4.4375.42578 4.4375-1.0039 2.21875-1.71485.0039-4.4375-2.22265-2.26171-4.4375-1.4336v-.71484l4.4375 1.01562 3.33594 3.39453.80469 4.4375-4.14063 3.19532-4.4375.47656-4.4375-.26953-4.4414-.42188"/><path fill="#00a8fc" fill-rule="evenodd" d="M152.8711 406.92969l-1.83594-2.0586.41015-4.4375 1.42578-1.36718 4.44141-2.1797 4.4375-.14843v.71094l-4.4375.03125-4.4414 2.40234-.57423.55078-.4375 4.4375 1.01172 1.13672 4.44141.05078 4.4375.57422 4.4375-1.52734.30078-.23438.8086-4.4375-1.10938-1.1289-4.4375-1.85547v-.71094l4.4375 1.4336 2.22266 2.26171-.00391 4.4375-2.21875 1.71485-4.4375 1.0039-4.4375-.42578-4.4414-.23437"/><path fill="#009800" fill-rule="evenodd" d="M152.8711 406.00781l-1.01173-1.13672.4375-4.4375.57422-.55078 4.44141-2.40234v.59375l-4.10938 2.35937-.33203 2.57032-.1914 1.86718.1914.21875 4.44141-.14062 4.4375.73047 2.21875-.8086 2.21875-4.4375-4.4375-2.27343-4.4375-.08594v-.59375l4.4375-.03125 4.4375 1.85547 1.10938 1.1289-.8086 4.4375-.30078.23438-4.4375 1.52734-4.4375-.57422-4.4414-.05078"/><path fill="#00ac00" fill-rule="evenodd" d="M152.8711 405.08984l-.19141-.21875.1914-1.86718.33203-2.57032 4.10938-2.35937v.59375l-3.07422 1.76562 3.07422 3.38282 4.4375.76171 3.04688-4.14453L161.75 398.875l-4.4375-.20703v-.59375l4.4375.08594 4.4375 2.27343-2.21875 4.4375-2.21875.8086-4.4375-.73047-4.4414.14062"/><path fill="#00c800" fill-rule="evenodd" d="M157.3125 403.8164l-3.07422-3.3828 3.07422-1.76563v1.1875l-1.01172.57812 1.01172 1.10938 4.4375-.75.26172-.35938-.26172-.1328-4.4375-.44532v-1.1875l4.4375.20703 3.04688 1.5586-3.04688 4.14452-4.4375-.76171"/><path fill="#10cc00" fill-rule="evenodd" d="M157.3125 401.54297l-1.01172-1.10938 1.01172-.57812 4.4375.44531.26172.13281-.26172.35938-4.4375.75"/><path fill="#00c4fc" fill-rule="evenodd" d="M183.9414 405.44531l-.90624-.57422.90625-.71875.5625.71875-.5625.57422"/><path fill="#fff" fill-opacity="0" fill-rule="evenodd" d="M192.8164 394.4414l-1.27343 1.5547 1.27344.48437.83203-.48438-.83203-1.55468"/><path fill="#00c4fc" fill-rule="evenodd" d="M201.69531 401.73438l-.76562-1.30079.76562-1.33203 4.4375-1.76172v1.13672l-3.20312 1.95703 3.20312 1.95704 2.65235-1.95704-2.65235-1.95703v-1.13672l4.1914 3.09375.2461 1.17188.86719 3.26562-.86719 1.2422-1.22265-1.2422-3.21485-1.34765-4.4375-1.78906"/><path fill="#00b8fc" fill-rule="evenodd" d="M206.13281 402.39063l-3.20312-1.95704 3.20312-1.95703v1.13281l-1.34765.82422 1.34765.82422 1.11719-.82422-1.11719-.82421v-1.13282l2.65235 1.95703-2.65235 1.95704"/><path fill="#00a8fc" fill-rule="evenodd" d="M206.13281 401.25781l-1.34765-.82422 1.34765-.82421 1.11719.82421-1.11719.82422"/><path fill="#00e8fc" fill-rule="evenodd" d="M210.57031 382.70703l-.03125-.02734.03125-.13281.0586.1328-.0586.02735"/><path fill="#00c4fc" fill-rule="evenodd" d="M221.48828 409.3125l-.51953-4.4414 2.1875-4.4375.73047-.57423v1.94922l-1.73047 3.0625 1.73047 3.22657 4.4375-2.86329.02344-.36328-.02344-.01171-4.4375-3.05079v-1.94921l.64844.57421 3.78906 2.96485 2.5625 1.47265.64062 4.44141-3.20312 1.55469-4.4375-.60156-2.39844-.95313"/><path fill="#00b8fc" fill-rule="evenodd" d="M223.88672 408.09766l-1.73047-3.22657 1.73047-3.0625v2.10547l-.54297.95703.54297 1.01172 1.39844-1.01172-1.39844-.95703v-2.10547l4.4375 3.05079.02344.01171-.02344.36329-4.4375 2.86328"/><path fill="#00a8fc" fill-rule="evenodd" d="M223.88672 405.88281l-.54297-1.01172.54297-.95703 1.39844.95703-1.39844 1.01172"/><path fill="#00c4fc" fill-rule="evenodd" d="M237.20313 405.91016l-1.82422-1.03907 1.82422-1.23828.7578 1.23828-.7578 1.03907"/><path fill="#50fcfc" fill-rule="evenodd" d="M241.64063 376.875l-3.4336-3.07031 3.4336-3.07422 4.4375-.83203.51562-.53125 3.92188-3.78125 4.4375-.28125v1.08594l-4.4375.18359-2.89454 2.79297-1.54297 1.58984-4.4375 1.83594-1.1328 1.01172 1.1328 1.01172 4.4375 1.78515 4.4375-1.01562 2.94532-1.78125 1.49219-.76172 3.29296-3.67578-3.29296-2.97656v-1.08594l4.4414 3.77734.3125.28516-.3125.41406-2.21875 4.02344-2.22265 1.7461-4.4375 1.6328-4.4375.45704-4.4375-.76563"/><path fill="#00e8fc" fill-rule="evenodd" d="M241.64063 374.8164l-1.13282-1.01171 1.13281-1.01172 4.4375-1.83594 1.54297-1.58984 2.89453-2.79297 4.4375-.1836v1.8125l-4.4375.01563-1.1875 1.14844-3.25 3.35547-2.0625 1.08203 2.0625 1.0625 2.88672-1.0625 1.55078-1.42578 4.4375-1.57422 1.28907-1.4375-1.28906-1.16406v-1.8125l3.29296 2.97656-3.29296 3.67578-1.4922.76172-2.9453 1.78125-4.4375 1.01562-4.4375-1.78515"/><path fill="#50fcfc" fill-rule="evenodd" d="M246.07813 389.23828l-2.1211-2.11719L246.07813 385l2.30859 2.1211-2.3086 2.11718"/><path fill="#00d4fc" fill-rule="evenodd" d="M246.07813 374.86719l-2.0625-1.0625 2.0625-1.08203 3.25-3.35547 1.1875-1.14844 4.4375-.01563 1.28906 1.16407-1.28906 1.4375-4.4375 1.57422-1.55079 1.42578-2.88672 1.0625"/><path fill="#50fcfc" fill-rule="evenodd" d="M259.39453 410.85156l-2.6836-1.53906 2.6836-1.63672 1.3789-2.80469 3.0586-3.64843 2.46094-.78907 1.97656-1.02343 4.4375-1.79297 4.4414-.79688 4.4375-.08203 4.4375-.10547v.98828l-4.4375.30079-4.4375 1.34765-4.4414.8164-.66015.34766-3.77735 2.65625-4.4375 1.30079-.40234.48046-2.23047 4.44141 2.63281 1.91797 4.4375.26953 4.4375.60547 4.4414-.23828 4.4375 1.01172 1.94923.87109 2.48828 1.33594 4.4375 1.55078 4.4375-1.24219 4.4414.32422 2 2.46875 2.4375 1.15234 4.4375.64844 4.4375-1.32422.47266-.47656 2.70313-4.4375 1.26562-4.28125.14063-.15625-.14063-.39844-4.4414-3-4.4375.70313-4.4375.39453-4.3711-2.14063.48438-4.4375-.55079-.26953-.5703.26953-3.8711 1.21875-4.4375-.33203-1.10156-.88672-3.33594-2.8125v-.98828l4.4375 3.42578 4.4375-1.18359 4.4414-1.53906 4.4375 1.41015 1.67188 1.6875-1.67188 1.5586-1.6328 2.8789 1.6328.80079 4.4375-.16797 2.70704-.63282 1.73046-1.60156 4.44141-.16406 1.76172 1.76562.98047 4.44141-2.74219 2.98828-.42969 1.44922-1.11719 4.4375-2.89453 2.9375-4.4375.55469-4.4375.14453-4.4375-.8125-4.4414.50781-4.4375-.61328-4.10547 1.71875-.33203.13281-.16797-.13281-4.26953-4.21875-.1836-.21875-4.2539-2.3789-4.4414-.90235-4.4375-.60547-.98829-.55078-3.44922-.625-4.4375-2.27344"/><path fill="#00e8fc" fill-rule="evenodd" d="M263.83203 411.23047l-2.63281-1.91797 2.23047-4.4414.40234-.48048 4.4375-1.30078 3.77735-2.65625.66015-.34765 4.4414-.8164 4.4375-1.34767 4.4375-.30078v1.64844l-4.4375.6289-1.21874.53516-3.21875 2.66016-4.4414.71094-1.32813 1.0664 1.32812 2.52735 4.4414-.58203 4.4375.8203 2.70313 1.67579 1.73438 1.23438 4.4375 1.8203 4.4375-.17968 4.4414-2.83203 1.4297 4.39453 3.0078 3.125 4.4375 1.0625 4.4375-1.5586 1.78516-2.6289-.90234-4.4375-.88282-.66016-4.4375-.18359-4.4375.77344-4.4375.03125-4.26953-4.40235-.17187-.12109-4.4375-1.85547-3.05469-2.46094-1.38281-1.16406v-1.64844l3.33594 2.8125 1.10156.88672 4.4375.33203 3.8711-1.21875.5703-.26953.55079.26953-.48438 4.4375 4.3711 2.14063 4.4375-.39453 4.4375-.70313 4.4414 3 .14063.39844-.14063.15625-1.26563 4.28125-2.70312 4.4375-.47266.47656-4.4375 1.32422-4.4375-.64844-2.4375-1.15234-2-2.46875-4.4414-.32422-4.4375 1.24219-4.4375-1.55078-2.48828-1.33594-1.94922-.8711-4.4375-1.01171-4.4414.23828-4.4375-.60547-4.4375-.26953"/><path fill="#00d4fc" fill-rule="evenodd" d="M272.70703 407.39844l-1.32812-2.52735 1.32812-1.0664 4.4414-.71094 3.21876-2.66016 1.21875-.53515 4.4375-.6289v2.38671l-3.6875 3.21484 3.6875 2.3672 4.4375-.27735 1.90625 2.35156 2.53125.80078 1.25-.80078-1.25-1.27734-3.49219-3.16407-.94531-.40625-4.4375-2.80859v-2.38672l1.38281 1.16406 3.05469 2.46094 4.4375 1.85547.17187.1211 4.26953 4.40234 4.4375-.03125 4.4375-.77344V409.75l-4.4375 2.10547-1.26171 1.89453 1.26171 1.3125 4.4375 2.17188 4.4375-2.90235.39454-.58203-.39454-1.20703-4.4375-2.79297v-1.28125l4.4375.1836.88282.66015.90234 4.4375-1.78516 2.6289-4.4375 1.5586-4.4375-1.0625-3.0078-3.125-1.4297-4.39453-4.4414 2.83203-4.4375.17969-4.4375-1.82031-1.73438-1.23438-2.70312-1.67578-4.4375-.82031-4.4414.58203"/><path fill="#00c4fc" fill-rule="evenodd" d="M286.02344 407.23828l-3.6875-2.36719 3.6875-3.21484 4.4375 2.8086.94531.40624 3.49219 3.16407 1.25 1.27734-1.25.80078-2.53125-.80078-1.90625-2.35156-4.4375.27734m17.7539 7.82422l-1.26171-1.3125 1.26171-1.89453 4.4375-2.10547v.80469l-4.14843 3.19531 4.14843 2.78516 3.76172-2.78516-3.76172-3.19531V409.75l4.4375 2.79297.39454 1.20703-.39454.58203-4.4375 2.90235-4.4375-2.17188"/><path fill="#00b8fc" fill-rule="evenodd" d="M308.21484 416.53516l-4.14843-2.78516 4.14843-3.19531v.80469l-3.10546 2.39062 3.10546 2.08203 2.81641-2.08203-2.8164-2.39063v-.80468l3.76171 3.19531-3.76172 2.78516"/><path fill="#00a8fc" fill-rule="evenodd" d="M308.21484 415.83203l-3.10546-2.08203 3.10546-2.39063v.80079l-2.05859 1.58984 2.0586 1.38281 1.86718-1.38281-1.86719-1.58984v-.80079l2.81641 2.39063-2.8164 2.08203"/><path fill="#009800" fill-rule="evenodd" d="M308.21484 415.13281l-2.05859-1.38281 2.0586-1.58984v.80468l-1.01563.78516 1.01562.6836.92188-.6836-.92188-.78516v-.80468l1.8672 1.58984-1.8672 1.38281"/><path fill="#00ac00" fill-rule="evenodd" d="M308.21484 414.4336l-1.01562-.6836 1.01562-.78516.92188.78516-.92188.6836"/><path fill="#50fcfc" fill-rule="evenodd" d="M330.40625 429.13672l-2.64453-2.07031 2.64453-2.1797 1.95703 2.1797-1.95703 2.0703m8.8789-74.8203L337 351.61328l2.28516-2.67187 4.4375-.85938v1.4414l-3.69141 2.08985 3.6914 2.89063 2.1211-2.89063-2.1211-2.08984v-1.4414l3.58594 3.53124-2.39453 4.4375-1.1914 1.11719-1.46875-1.11719-2.96875-1.73437"/><path fill="#00e8fc" fill-rule="evenodd" d="M343.72266 354.5039l-3.69141-2.89062 3.6914-2.08984 2.1211 2.08984-2.1211 2.89063"/><path fill="#50fcfc" fill-rule="evenodd" d="M346.53906 458.13281l-1.13281-4.4375 2.7539-2.88281 4.4375 1.60547v2.98047l-3.05468 2.73437.53906 4.4375 2.51563 2.51172 4.4414-.49219 3.29297-2.01953-3.29297-3.10937-1.16797-1.32813-3.27343-2.73437v-2.98047l4.4414.71094.48438.5664 2.86328 4.4375 1.08984.9336 1.10156-.9336 3.33594-2.05078 1.23828-2.38672.26172-4.4375-1.5-.92969-4.4375-.92187-2.74219-2.58984 2.7422-2.26563 4.4375-1.1914 1.01952-.98047 3.41797-3.41016 1.82031-1.02734 2.6172-3.65625.24609-.78125-.2461-2.66016-.76562-1.77734.76562-.8672 4.4414-3.24608v1.66406l-2.79687 2.44922-.20703 4.4375-1.10547 4.4375-.33203.72656-4.4375 1.84765-1.86719 1.86329-2.5703 2.47265-3.60938 1.96485 3.60937 1.99609 3.94531 2.44531-.35546 4.4375-1.02735 4.4375 1.875.91406 4.4375-.34375 4.4414 2.75782 2.70313-3.32813 1.73438-1.46094 3.32812-2.97656-2.34765-4.4375-.98047-1.21875-4.4375-2.35937-.63281-.86328-3.03516-4.4375 3.66797-2.9297 1.71484-1.5078 2.24219-4.4375-1.82813-4.4375-2.1289-2.44922v-1.66406l3.57812 4.11328.85938 2.04296 2.33594 2.39454-1.66407 4.4375-.67187.71875-4.4375 3.45312-.33203.26563.33203.66796 4.4375 2.875.9336.89454 3.05468 4.4414.39453 4.4375-4.38281 3.91797-.61719.51953-1.19531 4.4375-2.625 1.10938-1.1875-1.10938-3.2539-1.33984-4.4375.09375-4.4375-1.01953-2.03126 2.26562-2.40625 2.21094-4.4375 1.40625-4.4414.14453-3.76954-3.76172-.66796-2.77734-1.6211-1.66016"/><path fill="#00e8fc" fill-rule="evenodd" d="M350.08203 462.57031l-.53906-4.4375 3.05469-2.73437v4.1211l-.42579 3.05077.42579.42969 2.04296-.42969-2.04296-3.05078v-4.1211l3.27343 2.73438 1.16797 1.32813 3.29297 3.10937-3.29297 2.01953-4.4414.4922-2.51563-2.51173"/><path fill="#00d4fc" fill-rule="evenodd" d="M352.59766 463l-.42579-.42969.42579-3.05078 2.04296 3.05078-2.04296.42969"/><path fill="#00e8fc" fill-rule="evenodd" d="M365.91406 446.8125l-3.60937-1.9961 3.60937-1.96484 2.57031-2.47265 1.8672-1.86329 4.4375-1.84765v6.36328l-4.27344 1.78516 4.27343 1v1.71875l-3.95703 1.72265 3.95703 2.7461 2.1211-2.7461-2.1211-1.72265v-1.71875l4.24219 3.4414-2.70313 4.4375 1.375 4.4375 1.52735 1.03906.83984-1.03906 3.59766-3.03125 1.57422-1.40625-1.57422-2.33984-3.98047-2.09766-.45703-.30469-3.04297-4.13671-1.39844-1.78516v-6.36328l.33203-.72656 1.10547-4.4375.20703-4.4375 2.79688-2.44922v3.27734l-1.01563 3.60938 1.01563 1.93359 1.33594-1.9336-1.33594-3.60937v-3.27734l2.1289 2.44922 1.82813 4.4375-2.24219 4.4375-1.71484 1.5078-3.66797 2.9297 3.03516 4.4375.6328.86328 4.4375 2.35937.98048 1.21875 2.34765 4.4375-3.32812 2.97656-1.73438 1.46094-2.70312 3.32813-4.4414-2.75781-4.4375.34375-1.875-.91407 1.02734-4.4375.35546-4.4375-3.9453-2.44531"/><path fill="#00d4fc" fill-rule="evenodd" d="M374.78906 445.8164l-4.27344-1 4.27344-1.78515 1.39844 1.78516 3.04297 4.13671.45703.3047 3.98047 2.09765 1.57422 2.33984-1.57422 1.40625-3.59766 3.03125-.83984 1.03906-1.52735-1.03906-1.375-4.4375 2.70313-4.4375-4.24219-3.4414"/><path fill="#50fcfc" fill-rule="evenodd" d="M374.78906 447.53516l-3.95703 1.72265 3.95703 2.7461 2.1211-2.7461-2.1211-1.72265v1.03125l.85156.6914-.85156 1.09766-1.58203-1.09766 1.58203-.6914v-1.03125"/><path fill="#fff" fill-opacity="0" fill-rule="evenodd" d="M374.78906 448.5664l-1.58203.69141 1.58203 1.09766.85156-1.09766-.85156-.6914"/><path fill="#00d4fc" fill-rule="evenodd" d="M379.23047 433.4375l-1.01563-1.9336 1.01563-3.60937 1.33594 3.60938-1.33594 1.93359"/><path fill="#50fcfc" fill-rule="evenodd" d="M400.84766 458.13281l-2.9961-4.4375 3.57031-3.54297 4.4375-.42187v1.2461l-4.4375.53124-2.20312 2.1875 2.20313 2.84375 2.48046 1.59375 1.95704 1.48047 1.51953-1.48047 1.01562-4.4375-2.53515-2.71875v-1.2461l2.16406-.47265-.97266-4.4414 2.35547-4.4375.89063-.8672v3.19142l-1.41016 2.11328 1.41015 2.49218 4.4375-.76562 1.72657-1.72656-1.72656-1.71094-4.4375-.40235v-3.1914l.83593.86719 3.60156 1.08984 3.37891 3.34766-3.3789 3.375-2.7422 1.0664-1.6953 1.71485-.73438 2.72265-.05469 4.4375-3.64844 3.55469-4.4375-2.95703-.57421-.59766"/><path fill="#00e8fc" fill-rule="evenodd" d="M401.42188 456.53906l-2.20313-2.84375 2.20313-2.1875 4.4375-.53125v2.08203l-4 .63672 4 1.54688.59375-1.54688-.59375-.63672v-2.08203l2.53515 2.71875-1.01562 4.4375-1.51954 1.48047-1.95703-1.48047-2.48046-1.59375"/><path fill="#00d4fc" fill-rule="evenodd" d="M405.85938 455.24219l-4-1.54688 4-.63672.59375.63672-.59375 1.54688"/><path fill="#00e8fc" fill-rule="evenodd" d="M410.29688 447.3086l-1.41016-2.4922 1.41015-2.11327 4.4375.40234 1.72657 1.71094-1.72656 1.72656-4.4375.76562"/><path fill="#50fcfc" fill-rule="evenodd" d="M414.73438 417.40234L413.0664 413.75l1.66796-1.73047 4.44141-2.24219 4.4375-.1875v.75l-4.4375.35938-3.75781 3.05078 3.75781 3.47266 4.4375-.21875 3.25781-3.25391-3.2578-3.41016v-.75l3.97265 4.16016-3.97266 3.96875-3.95703.46875-.48047.72656-2.15234-.72656-2.28906-.78516"/><path fill="#00e8fc" fill-rule="evenodd" d="M419.17578 417.22266l-3.75781-3.47266 3.75781-3.05078 4.4375-.35938v1.2461l-4.4375.65234-1.86328 1.51172 1.86328 1.71875 4.4375.34375 2.0664-2.0625-2.0664-2.16406v-1.2461l3.25781 3.41016-3.2578 3.2539-4.4375.21876"/><path fill="#00d4fc" fill-rule="evenodd" d="M419.17578 415.46875L417.3125 413.75l1.86328-1.51172 4.4375-.65234v1.25l-4.33203.91406 4.33203.8711.875-.8711-.875-.91406v-1.25l2.0664 2.16406-2.0664 2.0625-4.4375-.34375"/><path fill="#00c4fc" fill-rule="evenodd" d="M423.61328 414.6211l-4.33203-.8711 4.33203-.91406.875.91406-.875.8711"/><g clip-path="url(#d)"><path fill="#fff" fill-opacity="0" fill-rule="evenodd" d="M467.99219 480.32422h.0039V311.66797h-.0039.0039v168.65625h-.0039"/></g><path fill="#fff" fill-opacity="0" fill-rule="evenodd" d="M361.04688 470.89063l5.05468-2.92579-4.98828-8.62109-5.05469 2.92578 4.98829 8.6211"/><path fill-rule="evenodd" d="M360.0039 462.10156l.44141-.2539 3.15235 5.44921-.6797.39454-2.25-3.88672-1.19921.69531-.28125-.48047.45313-.33594.1914-.17578.15625-.1914.10156-.22266.04688-.26953-.02344-.32813-.10937-.39453"/><path fill="#fff" fill-opacity="0" fill-rule="evenodd" d="M171.67578 398.94531l5.83984-.05078-.07812-9.95703-5.84375.04688.08203 9.96093"/><path fill-rule="evenodd" d="M175.10938 390.78906l.5078-.0039.05079 6.29296-.78516.00782-.03515-4.49219-1.39063.01172-.0039-.55469.55859-.07031.2539-.05469.22657-.08984.20312-.14453.17188-.21094.14062-.29688.10156-.39453"/><path fill="#fff" fill-opacity="0" fill-rule="evenodd" d="M232.50781 397.3086l5.61719 1.60546 2.73828-9.57422-5.61328-1.60546-2.74219 9.57421"/><path fill-rule="evenodd" d="M238.10938 390.45703l.48828.14063-1.73047 6.05078-.75781-.21485 1.23437-4.3164-1.33203-.38281.15234-.53516.55469.09375.25781.01562.2461-.02343.23437-.07813.22266-.15234.21875-.2461.21094-.35156"/><path fill="#fff" fill-opacity="0" fill-rule="evenodd" d="M224.91406 418.32031l7.875-.88672-1.14453-10.1289-7.875.88672 1.14453 10.1289"/><path fill-rule="evenodd" d="M226.4414 409.73438l3.26563-.3672.08203.73829-2.6211.29297-.02733 1.82031.20703-.1875.2539-.16016.3125-.125.375-.07421.32813-.01172.34375.04687.34765.10938.33594.17968.30078.25782.13672.16015.1211.17969.10546.20703.08594.22656.0664.25782.04688.27734.01563.44531-.0586.42578-.125.40235-.20312.36328-.27344.3164-.16406.13672-.1836.1172-.19921.10155-.22266.08594-.23828.0625-.25781.04297-.46875.01563-.40625-.0586-.35157-.1211-.29687-.18359-.2461-.23437-.20703-.27735-.16406-.3125-.125-.34375.78125-.08984.10547.22266.125.19531.14453.16797.16016.13672.17969.10156.19921.07031.21485.03125.23437-.00781.3086-.0586.26953-.10156.23047-.14843.1875-.1875.14062-.23047.08984-.27735.04297-.3164-.01562-.35547-.05078-.26172-.08985-.2539-.1289-.23438-.17188-.21094-.21094-.17187-.2578-.1211-.29688-.0664-.33985.0039-.33203.07031-.26562.14063-.25.21875-.28125.30078-.6875.07813.07422-3.45704"/><path fill="#00f" fill-rule="evenodd" d="M228.45313 476.51953h8.62109V466.375h-8.6211v10.14453"/><path fill="azure" fill-rule="evenodd" d="M230.28516 468.20703h.83593v2.82422h3.28516v-2.82422h.83203v6.48047h-.83203v-2.91406h-3.28516v2.91406h-.83593v-6.48047"/><path fill="#ff3030" fill-rule="evenodd" d="M335.66797 454.32813h7.69531v-10.14454h-7.69531v10.14454"/><path fill="azure" fill-rule="evenodd" d="M337.5 446.01563h.83594v5.73828h3.1914v.74218H337.5v-6.48046"/><path fill="#00f" fill-rule="evenodd" d="M388.23438 432.13672h8.61718v-10.14453h-8.61719v10.14453"/><path fill="azure" fill-rule="evenodd" d="M390.0664 423.82422h.83594v2.82422h3.28516v-2.82422h.83203v6.48047h-.83203v-2.91797h-3.28516v2.91797h-.83593v-6.48047"/><path fill="#00f" fill-rule="evenodd" d="M219.57813 414.38281h8.61718v-10.14453h-8.61719v10.14453"/><path fill="azure" fill-rule="evenodd" d="M221.41016 406.07031h.83203v2.82422h3.28906v-2.82422h.83203v6.48047h-.83203v-2.91406h-3.28906v2.91406h-.83203v-6.48047"/><path fill="#00f" fill-rule="evenodd" d="M370.48047 334.49219h8.6211v-10.14453h-8.6211v10.14453"/><path fill="azure" fill-rule="evenodd" d="M372.3125 326.17969h.83594v2.82422h3.28515v-2.82422h.83204v6.48047h-.83204v-2.91407h-3.28515v2.91407h-.83594v-6.48047"/><path fill="#ffffe0" fill-rule="evenodd" d="M252.11719 383.54688h22.17969v-10.19141h-22.1797v10.1914"/><path fill-rule="evenodd" d="M255.61719 375.1875h.50781v6.29688h-.78516v-4.4922h-1.39062v-.55468l.5625-.0664.25-.05079.23047-.08984.20312-.14453.17578-.20703.14063-.29688.10547-.39453m4.8125 0l.23047.01953.21875.05469.20703.08984.19922.1211.18359.14843.17188.17579.30078.42187.24218.49219.1797.54687.11327.57813.03906.59375-.03906.58984-.11328.58594-.17969.55469-.24218.5-.30079.42968-.17187.1797-.1836.15233-.19921.125-.20703.08985-.21875.0586-.23047.01952-.22656-.01953-.21875-.0586-.21094-.08983-.19531-.125-.1836-.15235-.17187-.17969-.30079-.42968-.24218-.5-.1836-.5547-.10937-.58593-.03906-.58984h.83203l.03125.5625.08203.5039.125.44532.16406.37109.1875.30078.21094.22266.22265.13672.22657.04687.22656-.04687.22266-.13672.21093-.22266.19141-.30078.16406-.3711.125-.4453.08203-.50391.02735-.5625-.02735-.5625-.08203-.5-.125-.4375-.16406-.36328-.1914-.29297-.21094-.21485-.22266-.1328-.22656-.04298-.22656.04297-.22266.13281-.21094.21485-.1875.29297-.16406.36328-.125.4375-.08203.5-.03125.5625h-.83203l.03906-.59375.10937-.57813.1836-.54687.24219-.49219.30078-.42188.17187-.17578.1836-.14843.1953-.1211.21094-.08984.21875-.05469.22657-.01953m5.09375 0h.50781v6.29688h-.78516v-4.4922h-1.39062v-.55468l.5625-.0664.25-.05079.23047-.08984.20312-.14453.17188-.20703.14453-.29688.10547-.39453m2.82422 2.17578h.78515l.01953-.3164.0586-.28516.10156-.2539.13672-.21485.1836-.17578.22265-.1289.26562-.07813.3086-.02735.23828.01953.22265.0625.20313.10157.17969.14062.14844.17188.11328.20703.0703.23437.02735.26563-.02344.26953-.0664.22265-.10938.19141-.15234.17188-.20313.16406-.24609.16406-.63281.39063-.53906.3125-.4375.3164-.34766.32422-.26172.33594-.1914.35156-.125.3711-.07032.39062-.01953.42188h4.21094v-.7422h-3.33203l.08203-.28515.11719-.23437.14453-.20313.1875-.17969.23047-.17187.28125-.17578.71484-.41797.41797-.20313.34375-.23046.28125-.25391.21875-.26563.16406-.27734.11328-.28516.0625-.28515.01953-.28125-.04296-.38281-.1172-.34766-.1914-.3086-.25-.26171-.30078-.21485-.34766-.15625-.3789-.09765-.40625-.03516-.4375.03125-.39844.10156-.35156.16406-.30469.23438-.25.30469-.1836.375-.11718.44531-.03906.51953"/><path fill="#ffffe0" fill-rule="evenodd" d="M398.07031 405.73828H420.25v-10.1914h-22.17969v10.1914"/><path fill-rule="evenodd" d="M401.57031 397.3789h.50781v6.29688h-.78515v-4.49219h-1.39063v-.55468l.5586-.06641.2539-.05078.23047-.08985.20313-.14062.17187-.21094.14453-.29687.10547-.39453m4.8125 0l.23047.01953.21875.05469.20703.08984.19531.1211.1836.14843.17187.17578.3047.42188.24218.49218.17969.54688.10937.57812.03906.59375-.03906.58985-.10937.58594-.1797.55468-.24218.5-.30469.42969-.17187.17969-.1836.15234-.1953.125-.20704.08985-.21875.05859-.23047.01953-.23047-.01953-.21875-.0586-.20703-.08984-.19531-.125-.1836-.15234-.17187-.17969-.30469-.42969-.24218-.5-.1797-.55469-.10937-.58593-.03906-.58985h.83203l.03125.5625.07813.50391.1289.44531.16016.3711.1914.30078.21094.22265.22266.13672.22656.04688.22656-.04688.22266-.13672.21094-.22265.1914-.30078.16016-.3711.1289-.44531.08204-.5039.02734-.5625-.02734-.5625-.08203-.5-.1289-.4375-.16017-.36329-.1914-.29297-.21094-.21484-.22265-.13281-.22657-.04297-.22656.04297-.22266.13281-.21093.21484-.19141.29297-.16016.36328-.1289.4375-.07813.5-.03125.5625h-.83203l.03906-.59375.10938-.57812.17969-.54688.24218-.49218.3047-.42188.17187-.17578.18359-.14844.19531-.1211.20703-.08983.21875-.0547.23047-.01952m5.08985 0h.51171v6.29687h-.78906v-4.49219h-1.38672v-.55468l.5586-.06641.2539-.05078.22657-.08985.20703-.14062.17187-.21094.14063-.29687.10547-.39453m2.82421 2.17578h.78907l.01953-.3164.0586-.28517.09765-.2539.14062-.21485.1836-.17187.22265-.13281.26563-.07813.30469-.02734.23828.01953.22656.0625.20313.10156.17968.14063.14844.17187.11328.20703.07031.23438.02735.26562-.02344.26954-.0664.22265-.10938.1914-.15625.17188-.19922.16406-.2461.16407-.63671.39062-.53516.3125-.4375.3164-.34765.32423-.26563.33594-.1875.35156-.125.3711-.07031.39062-.01953.42187h4.21093v-.74219h-3.33203l.08203-.28515.11329-.23438.14843-.20312.1875-.17969.23047-.17188.27735-.17578.71875-.41406.41406-.20703.34765-.23047.28125-.25.21875-.26953.16407-.27734.10937-.28516.0664-.28516.01954-.28125-.04297-.3828-.1211-.34767-.1875-.30859-.25-.26172-.30468-.21094-.34375-.16015-.38281-.09766-.40625-.03515-.4336.03515-.39844.09766-.35546.16406-.3047.23438-.24608.30468-.1875.375-.11329.44532-.04296.51953"/></g></defs><use xlink:href="#e"/></svg>