<svg xmlns="http://www.w3.org/2000/svg" role="img" xmlns:xlink="http://www.w3.org/1999/xlink" viewBox="142.45 309.95 326.84 171.84"><defs><clipPath id="a"><path d="M144 455h1v25.32813h-1zm0 0"/></clipPath><clipPath id="b"><path d="M144 311.67188h1V453h-1zm0 0"/></clipPath><clipPath id="c"><path d="M144 311.67188h324v168.65625H144zm0 0"/></clipPath><clipPath id="d"><path d="M467 311.67188h1v168.65625h-1zm0 0"/></clipPath><clipPath id="e"><path d="M144 477h3v3.32813h-3zm0 0"/></clipPath><clipPath id="f"><path d="M154 478h7v2.32813h-7zm0 0"/></clipPath><clipPath id="g"><path d="M167 477h7v3.32813h-7zm0 0"/></clipPath><clipPath id="h"><path d="M181 477h6v3.32813h-6zm0 0"/></clipPath><clipPath id="i"><path d="M194 477h7v3.32813h-7zm0 0"/></clipPath><clipPath id="j"><path d="M207 478h7v2.32813h-7zm0 0"/></clipPath><clipPath id="k"><path d="M220 477h7v3.32813h-7zm0 0"/></clipPath><clipPath id="l"><path d="M234 478h7v2.32813h-7zm0 0"/></clipPath><clipPath id="m"><path d="M246 478h9v2.32813h-9zm0 0"/></clipPath><clipPath id="n"><path d="M252 480h2v.32813h-2zm0 0"/></clipPath><clipPath id="o"><path d="M260 479h8v1.32813h-8zm0 0"/></clipPath><clipPath id="p"><path d="M266 480h1v.32813h-1zm0 0"/></clipPath><clipPath id="q"><path d="M273 478h8v2.32813h-8zm0 0"/></clipPath><clipPath id="r"><path d="M279 480h1v.32813h-1zm0 0"/></clipPath><clipPath id="s"><path d="M287 478h7v2.32813h-7zm0 0"/></clipPath><clipPath id="t"><path d="M300 478h8v2.32813h-8zm0 0"/></clipPath><clipPath id="u"><path d="M313 478h8v2.32813h-8zm0 0"/></clipPath><clipPath id="v"><path d="M327 478h7v2.32813h-7zm0 0"/></clipPath><clipPath id="w"><path d="M340 479h8v1.32813h-8zm0 0"/></clipPath><clipPath id="x"><path d="M345 480h2v.32813h-2zm0 0"/></clipPath><clipPath id="y"><path d="M353 478h8v2.32813h-8zm0 0"/></clipPath><clipPath id="z"><path d="M366 480h9v.32813h-9zm0 0"/></clipPath><clipPath id="A"><path d="M372 480h2v.32813h-2zm0 0"/></clipPath><clipPath id="B"><path d="M379 479h9v1.32813h-9zm0 0"/></clipPath><clipPath id="C"><path d="M385 479h3v1.32813h-3zm0 0"/></clipPath><clipPath id="D"><path d="M393 478h8v2.32813h-8zm0 0"/></clipPath><clipPath id="E"><path d="M408 476h4v4.32813h-4zm0 0"/></clipPath><clipPath id="F"><path d="M421 477h5v3.32813h-5zm0 0"/></clipPath><clipPath id="G"><path d="M434 477h6v3.32813h-6zm0 0"/></clipPath><clipPath id="H"><path d="M447 477h7v3.32813h-7zm0 0"/></clipPath><clipPath id="I"><path d="M462 476h4v4.32813h-4zm0 0"/></clipPath><clipPath id="J"><path d="M144 464h3v6h-3zm0 0"/></clipPath><clipPath id="K"><path d="M144 451h3v6h-3zm0 0"/></clipPath><clipPath id="L"><path d="M144 437h3v7h-3zm0 0"/></clipPath><clipPath id="M"><path d="M144 423h3v8h-3zm0 0"/></clipPath><clipPath id="N"><path d="M144 410h2v8h-2zm0 0"/></clipPath><clipPath id="O"><path d="M144 415h1v3h-1zm0 0"/></clipPath><clipPath id="P"><path d="M144 399h4v3h-4zm0 0"/></clipPath><clipPath id="Q"><path d="M144 385h4v5h-4zm0 0"/></clipPath><clipPath id="R"><path d="M144 372h4v3h-4zm0 0"/></clipPath><clipPath id="S"><path d="M144 360h4v1h-4zm0 0"/></clipPath><clipPath id="T"><path d="M144 346h4v2h-4zm0 0"/></clipPath><clipPath id="U"><path d="M144 333h4v2h-4zm0 0"/></clipPath><clipPath id="V"><path d="M466 331h2v3h-2zm0 0"/></clipPath><clipPath id="W"><path d="M144 319h4v3h-4zm0 0"/></clipPath><clipPath id="X"><path d="M465 317h3v2h-3zm0 0"/></clipPath><g id="Y" clip-path="url(#clip1)"><path fill="#fff" fill-opacity="0" fill-rule="evenodd" d="M0 0h1000v1000H0zm0 0"/><path fill="#d3d3d3" fill-opacity="0" fill-rule="evenodd" d="M162.15234 355.86719l-.23437.29297.0586.23437.11718.17188.17578.23437.29297.34766.11328.0586.11719-.17188.0586-.23438.17577-.17578.46485-.17578h.69922l.23437.29297.28906.8164.0586.17579.17578.23046.35156.23438.69922.69922.17188.17578.23437.34765.23438.41016.28906.58203.41015.46485.23047.23437.23438.17578.11719.23047.17578.29297.17187 1.16406v.23438l.0586.28906.05859.11719.11719.11719.34765.41015.11719.17188.17578.17578.17578.23437.11719.17188.17188.35156.05859.23438.23437.40625.23438-.0586-.17578.17578-.0586.92969h-.58203l-.23437-.11328-.34766.11328-.11719.11719-.05859.29297-.0586.17578-.11718.17187-.46484.29297-.0586.23438-.0586.11328v.64453l.0586.17187v.41016l.0586.0586v.40624l.05859.40625.11719.17579.05859.05859.23047.64062-.0586.29297v.69922l-.05859.58203v.23438l-.0586.23047-.05468.35156v1.92187l.05469.1172h.42578l-.36719.11718-.02344.35156.89063 1.16797 1.74219.53906 1.33984.35938v.53906l.08984.8086.53516.71484 1.51953.26953.89063-.08594.08984 1.16406.53516.1797 1.16015-.1797 2.05469-.98437 1.16016-.36328 1.8789-.17578 1.69531-.1797-.17968.71876-1.51563.08594-1.25.08984-.80469.26953-1.07421.8086.26953.71875.53515.89843-.17968.625-.26563.8086.26563 1.07812.625.89844.80468.17969 1.25-.1797-.26562.72267.09766.5039.05468.29297v.17188l.0586.29296v.40625l.17578.1172.35156.11718h.40625l.29297-.17578.11328-.11719.0586-.11719.11718-.23047.0586-.17578.35156-.46484.23047-.17578.17578-.0586.17578.0586.0586.17578.11718.98828.05469.46875.0586.17188.11718.23437.17578.0586.8164.05859h.28907l.11719.23437.05859.40625.0586.35156v1.10547l.11718.29297.11719.34766.28906.69922.17578.35156.58203.7539.35157.17579.17187.0586.46875.23437.64063.46484.34765.23438.29297.17578.29297.05468.23047.0625.8164.34766.29297.17578.11328.17188.35157.35156.11719.17578.52343.64063v.28906l.0586.35156v.34766l.05859.35156.0586.28906.11718.0586.17188.05859h.17578l.58203.23437.17578.1172.17578.28905.17578.23438.11328.23437.29297.23047.11719.11719v.41016l.0586.05468.28906.23438.23437.11719.0586.11718.11718.17188.0586.11719.23047.23437.05859.17578.23437.0586.1172.05859-.1172.11328-.05859.11719v.11719l-.11719.29296-.11719.28907v.58203l.17579.11719.11718.05859.0586.11719.11719.11719.11328.05859.17578.34765.0586.35157.05858.40625v.17578l-.05859.17578-.11719.69922v.17187l.1172.17579.29296.29296h.40625l.17578.1172.11719.17187.11719.29296v.23438h-.52735l-.23047-.23438h-.23437l-.17578.0586-.0586.69922.0586.34765.11719.17579.17578.41015.11718.23047.28907.46875.17578.05469h.52344l.23437.0586.75781.64062.0586.29296v.23438l.05859.0586.23047.34765v.35156l-.11719.17188v.29297l.29297.28906.29297.17578.17187.0586.29297.17577.29297.1172.58203.40624.28906.23438.29297.17578.21875.16015.01563.01172.23047.17579.64062.52343.17578.23438.1172.17578.17577.17578.11328.17188v.64062l.1172.17578.46874.11719.58203.11719.23438.05859.23047.11328.29297.11719.11328.0586.58593.35156.28907.17187.17578.0625.17578.05469.17578.0586.69922.35155.28906.17579.23438.05468.28906.17578.23437.1172.64063.40624.29297.11719.17187.0586.23438.05859.41015.05859.23047.0586.23438.11718.0586.17188-.41017.17578.46875.0586.0586.29296.11328.23438.17578.05468.23438.0586.17578.05859.40625.11719.64062.23437.11719.17188.0586.23437v.17578l-.0586.1172-.0586.40624.23438.23438.11719.05859.34766.11719.64062.23047.17578.11718.28906.1172.17578.17577.23438.46485.58203 1.10546.17578.17579.34766.17578.17578.11719.35156.11718 1.04688.52344.23437.0586.46485.11327.29297.0586.46484.17578.75781.58203.23438.23438.34765.46484.17578.17578.28907.23438.8164.69921.29297.17579.28906.28906.29297.17578.29297.28906.69531.64063.17578.17578.29297.23437.28907.23438.46875.28906.64062.58203.34766.23438.23437.29297.34766.34765.35156.46485.9336.99218.34765.40625.11719.17579.23437.05859.11328.11719.64454.17578.23047.11328.23437.0586.29297.17577.23047.1172.9336.69921.40624.40625.23438.17578.40625.17578.23437.11719.8164.34766.34766.23437.23438.11719.29297.28906.23047.11719.7578.35156.35157.17188.23047.05859.29297.11719.23437.0586.8711.17577h.8164l.46875.23047.17188.0586.875.69921.46484.1172.29297.05858.17578.0586.23047.0586.46875.05859.34766.05859.35156.0586.40625.05859h.29297l.17187.0586v.23046l.17578.17578h.29297l.34766.0586.35156.05859.69922.11719h.64063l.46484-.23438.29297-.17578.17187-.11719.41016-.17187.28906-.17578.9336-.46485.46875-.29297.52343-.29296.46485-.17188.46484-.17578 1.05078-.46485.28906-.11718.41016-.11719.28906-.11719.52735-.17578 1.51562-.69922.58203-.34765.28907-.0586.29297-.0586.34765-.11718.875-.23047.35156-.11719h.11329l.23437-.05859.875-.23437.23438-.0586h.8125l.35156-.0586.8164-.11718.17188-.0586.35156-.05468.29297-.0586.23047-.05859.8164-.17578.17579-.0586h.34765l.23438-.05859.46484-.11718.75781-.17188.23438-.0586h.34765l.41016-.11718.28906-.0586 1.28516-.05859h.28906l.41016-.0586.23047-.05858h.17578l.875-.1172h.40625l.41015-.11718h.34766l.35156-.11328.8711-.0586h1.75l1.04687.28907.41016.11719.28906.11718.35156.11719.28907.11719 1.05078.17187.28906.0586h.29297l.29297.05859.17187.0586.41016.05859.17187.0586.1172.05858h.11718l.11719.0586.35156.0586h.11328l.41016.0664 1.92187.39453 1.92578.39453 1.51953.44922 1.69532.71875 2.14453.80469 1.60547-.71875 1.42968-.80469 1.16016-1.07813 1.25-.44921 3.03516-.71875 1.875-.35938 2.14453-1.34765 2.23437-1.25391 2.5-1.25781 1.69531-.44922 1.78516-.17969 1.16016-.26953.625.53906 1.33984-.26953.71485-.98828.98437-1.34375.44531-.17969.80469-.35937 1.875-.53907 1.78516-.44921 1.25-.26954 1.16015-.08984 1.69922-.08984 1.96094-.26954 1.25-.08984h.53906l.625-.08984h.89063l2.14453-.17969 2.41015-.17969 2.58985-.08984 1.69531.17969 1.60938.08984 1.42968.35938 1.16016.71875 1.875.98828 1.16015 1.52734.26563.71484.6289.08985.35548.89844.53515.53906.53516 1.52734 1.07422.35938h.53515l-.80469.53515.08985 1.70703.71484 2.69532.89063.80468.89453.98829.71484 1.2578 1.78516.53907 1.51953-.17969.35547 1.34375 1.60937-.80469.98047-.53906.26953.26953.31641-.21484.21875-.14453.80078.44922.44922-.35938h.35547l.53515-.26953.53907-.71875.53515-.26953.625-.98828 1.16016.44922.83984.3711 1.39454.61718 1.6953-.17969h1.60548l1.78515.08985.17969-1.70704.53516-1.34375.80468.26954.4922.84765.40233.40625-.08984.53906v.35938l.71485.44922.71093-.26953h1.42969l.35938.98828.4453 1.25781.71485 1.34375 1.25.6289 1.69531.62891.71485-.17969.17969-.53906.98046-.08984.44922.35937.08594 1.25782-.26563.6289-.53515.17969v.53906l.71484.98438.26563.53906.98437.98828.80078 1.07813-.26562.35937-.08985.89844-.625 2.33203-.35546 2.0664-.08985 1.79298-.17969.71875-.08984.53906v1.4375l-.98047 1.88281-.35937 1.70703-.53516.89844-.80469 1.16797-.26562.53906 2.05469 1.2539.08593.35938-.35546.53906-.08985-.17968v.80859l.08985 1.4375-.44532.71484-1.07422.09375-.26562.71485.53515.89844.8047.71875 1.16015.80859 1.33984.26953.44531.35938-.35546.44921-1.78907-.08984-1.25-.44922-.71484-.71875-.625-.08984-.17578 3.58984-.1875 1.3086h89.35937V311.70313h-55.26953v49.08203l.76172.125 3.28906.54296 2.02344 2.83594v2.7539l2.35156.33204 2.34766.33203h4.05078l-1.3789 4.16016-2.02344.70703-2.02344.70312-.54297.34375-2.59375 1.6172-.1875.11718-2.02344-2.07813-.73046-2.74218-2.67188-2.07813-1.375-3.5-.0664-.08203-1.95704-2.67188 2.75-1.41796v-49.08204H294.42187v91.41407l.1172.03125.1328.01172.07422.07421.10547.04688.08985.0586.08593.05859.08985.0586.29687.29687.0586.08984.03125.11719.02734.11719.01563.13671-.03125.1172-.0586.08983-.0586.08594-.04296.10547-.04688.10156-.02734.1211v.14453l.17578.26953.14844.14844.07422.08594.07422.07421.04296.10547.0625.08985.0586.08593.04297.10547.0586.08985.04687.10156.04296.10547.0586.08594.11719.17968.07421.07422.0625.08594.0586.08984.04297.10547.0586.08985.05858.08593.0625.08985.0586.08984.04297.10156.11719.17969.07421.07422.0586.08594.07422.07421.08984.0586.10547.04687h.14844l.1328-.01562.13282.01562.10156-.04687.07422-.07422.04688-.10156-.01563-.13281v-.14844l-.04687-.10547-.02735-.11719-.04687-.10156-.02735-.1211-.04296-.10156-.0625-.08984-.04297-.10156-.04297-.10547-.03125-.11719-.01563-.13281-.01171-.13672.08593-.0586.0586-.08593.12109-.03125.04297.10547.01562.1328v.1172l.0586.10156.0586.08984.08983.0586.14844.14843.0586.08985.04296.10547-.01171.10156.08593.0586.10547.04687.08594.0586.08984.05858.07422.07422-.11719.02735-.10546.04687-.08594.0586-.07422.07421-.0586.08985-.0625.08594-.02734.12109-.04687.10156-.04297.10547-.03125.11719-.01172.13281-.01563.13281v.14844l.02735.11719.04687.10547.04297.10156.0586.08984.07421.07422.08985.0586.07422.07421.08984.0586.0586.08984.04296.10547.04688.10156.11719.03125.1328.01563h.14845l.11718-.03125.10547.04297.04297.10547.04688.10156.02734.1211L299.5 410l.02734.11719.03125.1211.02735.11718.10547.04297.10156.04687.13281-.01562.14844.14844.0625.08593.07422.07422.07031.07422.08984.0625.10547.04297.10156.04297.1172.03125.13671.01562.11719-.03125.07422-.07422.02734-.11718-.01172-.13282-.03125-.12109-.02734-.11719.04297-.10547h.11719l.08984.0625.11719.02735h.14843l.13282.01562h.14843l.13282.01563.1328-.01563h.14845l.1328-.01562.13282-.01172.13672.01172.11719-.02735.13281-.01562.1914-.0586-.05859.17579-.01562.1328-.02735.1211-.01562.13281-.0586.08594-.1328.01563-.10548.04687-.10546.04297-.1172.03125-.11718.02735-.26563.03125h-.14843l-.13281.01562-.07422.07422.05859.08594.14844.14843.11719.1797.07421.0703.08985.0625.08984.0586.08594.0586.08984.05858.10156.04297.10547.0625.10547.04297.08594.0586.10547.04687.10156.04297.17969.11719.0586.08984-.04298.10156-.04687.10547.01562.13281.22266.22266.0586.08985.04296.10156.03125.1211.04297.10155.01563.13282.03125.11718.01171.13672.03125.11719.14844.14844.10156.04297.10547.04296.1172.03125.1328.01563.13672.01563h.11719l.11719-.03125.08984-.0586.04297-.10547.04688-.10156.04296-.10547.03125-.11719.01172-.1328v-.14845l-.01172-.1328-.01562-.13282-.03125-.11719-.04297-.10547-.04688-.10547-.04296-.10156-.04297-.10547-.01563-.13281.01563-.13281.02734-.11719.03125-.11719.02735-.1211.04687-.10155.08984-.0586.08594-.0625.07422-.07422.08984-.05859.22266-.22266.0586-.08593.07421-.07422.11719-.17969.0586-.08594v-.14844l-.07423-.07421-.10156-.04688-.10547-.04297-.10156-.04297-.0586-.08984-.04687-.10547-.02734-.11719.08984-.05859.11719-.03125.10156-.04297.17969-.11719.14844-.14843.01172-.13282-.01172-.10546-.08985-.0586-.1328.01563h-.14845l-.1328.01562-.13282-.01562-.1211-.03125-.08593-.0586-.07422-.07422-.0586-.08984-.0625-.08594-.11718-.17969-.0586-.08593.03125-.1211.08594-.05859.1211-.03125.05859-.08594v-.1211l-.03125-.11718-.0586-.08984-.05859-.08594-.04687-.10547-.02735-.11719-.01562-.1328.0586-.08985.07421-.07422.08984-.0586.1172-.17968.07421-.07422.0586-.08594.14843-.14844.1211-.03125.1328-.01562.13282.01562.07422.07422.04297.10547.01562.13281-.03125.1172-.11719.03124-.1328.01172-.14844.14844-.04297.10547-.04688.10156-.02734.1211-.03125.11718v.14844l.03125.11719.04297.10546.05859.08985.07422.07031.07422.07422.11719.03125.12109.02734.11719-.02734.1328-.01563h.1172l.08984.0586.07422.07422.04687.10546.0586.08594.10156.04688.13281.01562.10547.04297.08594.0586-.01172.10546-.07422.07422-.17969.11719-.05859.08984-.08984.0586-.07032.07422-.07421.07421-.0625.08985-.02735.11719-.01562.1328.01562.13282-.01562.13281v.14844l.01562.13281.02735.1172.03125.12108.07421.07422.08985.0586.08594.0586.08984.05858.11719.03125v.08594l-.10157.04688-.08984.0586-.26563.03124-.11718.02735h-.14844l-.10547.04296-.10156.04688-.0586.08984-.0625.23438-.01171.13281-.03125.1211-.01563.1328v.29298l-.01172.1328.01172.13673.01563.1328.1328.01563.13282.01172.1211.03125.08593.0586.07422.07421.04688.10547.04296.10157.01563.1328v.44532l-.01563.13281v.44532l.03125.26562.02735.11719.01562.13281.03125.11719.08594.21094.03125.26562v.14844l-.03125.11719-.02734.11718-.03125.1211-.02735.11719-.03125.11718-.03125.1211-.01171.1328-.01563.13282.08984.0586.1172-.03125.10155.01562.04688.10547-.03125.26562v.44141l-.04297.10547-.04688.10547-.04296.10156-.04297.10547-.0586.08594-.03125.12109-.04296.11719-.03125.11719-.01563.1328.01563.13282.05859.08984.10547.04688.08594.0586.05859.08593-.01172.13672-.03125.11719-.04297.10156v.44531l-.01562.13281v.14844l-.03125.11719-.04297.10547-.02735.11719-.04687.10546-.04297.10157-.03125.12109-.02734.11719-.03125.13281-.03125.11719-.02735.11719-.04297.10546-.03125.1172-.03125.12108-.01171.13282-.01563.13281v.29688l.02734.11718v.14844l.04688.39844.02734.11719.0586.08984.12109.03125h.14844l.13281-.01563.0586.08985v.11719l-.0586.08984-.08984.0586-.10157.04296-.10546.04688-.08985.05859-.08594.0586-.13671.01562-.1172-.03125-.1328-.01563-.10157.04688-.0625.08594-.01172.13671-.01562.13282-.03125.11719-.02735.11718-.01562.13281-.03125.1211v.29687l.01563.13282.03125.11718v.14844l.01171.13281v.14844l-.02734.11719-.04688.10156-.02734.1211-.03125.11718-.0586.08985-.07421.07421-.10156.04297-.10547.04688-.11719.02734-.1211.03125-.10156-.04687.0586-.08594.10547-.04688.02734-.11718.03125-.11719.02734-.1211.03125-.11718v-.14844l.01563-.13281-.03125-.11719-.04297-.10547-.10547.01563-.07422.07422-.10156.04296-.08984.0625-.07422.07422-.04297.10157-.01563.1328-.03125.1172L304.25 426l-.03125.11719-.02734.11719-.03125.12109-.02735.11719-.03125.11718-.04297.10547-.08984.0586h-.08984l-.1172-.03125-.03124-.08594.01562-.13672-.03125-.11719v-.14844l-.01171-.1328v-.14844l-.0625-.23438-.02735-.1211-.04297-.10156-.04687-.10546-.0586-.08594-.05859-.08985-.04297-.10546-.0625-.08594-.14844-.14844-.0703-.07422-.10548-.04687-.10547-.04297-.10156-.04297-.29687-.29688-.08985-.07421-.08594-.0586-.10546-.04297-.08985-.0625-.08594-.0586-.10546-.04296-.08985-.0586-.08594-.0625-.07421-.0703-.10547-.04688-.08594-.0586-.10547-.04296-.08984-.0625-.10156-.04297-.10547-.04297-.08594-.0586-.10547-.04687-.10547-.04297-.10156-.04687-.08985-.0586-.10156-.04297-.10547-.04296-.08984-.0625-.11719-.02735-.13281-.01562-.13281.01562H299.75l-.13281.01563-.11719-.03125-.08984-.0586-.07422-.07422-.08985-.05859-.10156-.04688h-.14844l-.12109-.02734-.10156-.04297-.07422-.07422-.11719-.17968-.08984-.0586-.10156-.04297-.08985-.0625-.10547-.04296-.08984-.0586-.08594-.0586-.10547-.04687-.0586-.08594-.05858-.08984-.04297-.10547-.04688-.10156-.07422-.07422-.08594-.0586-.07421-.07421-.08985-.0586-.22265-.22265-.04297-.10547-.03125-.26563.10547-.04296h.14453l.10547.04296.07421.07422.08985.0586.08594.0586.10546.04687.08985.05859.14844.14844.0703.07422.14845.14843.0625.08594.07421.07422.08594.0586.07422.07421.08985.0625.08984.0586.08594.05859.26953.17578.10156.04688.10547.04296.10156.04297.04688-.07421.05859-.08594.07422-.07422.07031-.07422.10547.04297.07422.07422.0586.08984.04296.10156.04688.10547.04296.10547.1211.02735.11719-.02735.07421-.08984.04297-.10547.0586-.08985.07422-.07421.10546-.04297.1172-.02735.1328.01172.08985.0586.14844.14843.05859.08985.04297.10547.04687.10156.04297.10547.04297.10156.10547.04688.10547.04296.13281.01563.08594-.0586.0586-.08984.07421-.07422.10547-.04297.11719.02735.10547.04687.10156.04297.10547.04297.10156.04688.17969.11718v.11719l-.01563.13281.01563.13281.01562.13672.0586.08594.10156.04688.1211.02734.11718.03125h.14844l.11719-.03125.05859-.08984.17969-.1172.05859-.08983.07422-.07422.0586-.08594.11718-.17969.17969-.11719.11719.03125.08984.0586.04297.07422-.01563.1328v.1172l.08985.05859h.14843l.13282-.01563.1328-.01171.26563-.03125.10547-.04297.11719-.03125.1211-.02735.07421-.07421.07031-.07422.0625-.08985-.01562-.10547-.04688-.10156-.10156-.04297-.10547-.01562-.11718.02734-.26563.03125h-.14844l-.07421-.07422-.08985-.0586-.11719-.03124-.11718-.02735-.13282-.01562h-.14843l-.13282.01563h-.29687l-.10547-.04688-.14844-.14844-.04297-.10156-.05859-.08984.22266-.22266.08593-.0586.10547-.04296.11719-.03125.13281-.01563.13281.01563.13672.01562.10157.04297.1328-.01172.08985-.0625.10156-.04297.0625-.08984-.04687-.10156-.08984-.0586-.1172-.03125-.10155-.04296-.0586-.08985-.0625-.08984v-.11719l.01563-.13281.10547-.04688.07421-.07031v-.1211l-.08984-.05859-.03125-.11719.08985-.05859.07421-.07422.04297-.10547.0586-.08984.04687-.10156.01563-.13281v-.14844l-.04688-.10547-.04297-.10156-.08984-.0586-.13281-.01562-.10157-.04297-.13671-.01563-.1172-.03125h-.4453l-.13282-.01562-.13281-.01172-.13281-.01563-.11719-.03125h-.14844l-.13281-.01562-.13281-.01172-.26563-.03125-.1211-.04297-.08593-.0586-.07422-.07421v-.14844l.01172-.13281.10547-.04688.10156-.04296.13281-.01563h.15235l.13281-.01562h.29297l.1211.03125.10156.04296.08984.0586.23438.0625.12109-.04688.08984-.05859.10156-.04297.13282-.01562.10547.04296.10156.04688.13281.01172.1211-.02735h.14453l.12109-.03125.11719-.02734.10547-.04687.07421-.07422.08594-.0586.14844-.14843.0586-.08594.04687-.10547.02734-.11719.01563-.10547-.10156-.04296-.08985-.0586-.11719-.03125-.10546-.04297-.08985-.0625-.07422-.08594-.07422-.07421-.10156-.04297-.10547-.04688-.10156-.04297-.0586-.08984-.04687-.10156-.08594-.21094-.0625-.08594-.05859-.08984-.07422-.07422-.08594-.0586h-.26953l-.11719.03126-.08984.05859-.10156.04297-.13281.01562-.10547-.01562-.02735-.11719-.0625-.08984-.11718-.03125-.10157-.04297-.14843-.14844-.03125-.11719-.01563-.10546.07422-.07422.17969-.1172.11719-.02733.11718-.03125.13672.01562.10156.04297.10547.04297.10156.04687.10547.04297.1172.03125.1328.01563.1172.02734.1328.01563.10547-.01563.08985-.0586-.07422-.07421-.10547-.04297-.07422-.07422-.07422-.08984-.14844-.14844-.08593-.0586-.08985-.05859-.07422-.07422-.08984-.0586-.10156-.04687-.1211-.02734-.10156-.04688-.10547-.04296-.11719-.03125-.10156-.04297-.1211-.03125h-.14843l-.11719.03125-.10546.04297-.08594.0625-.17969.11718-.08594.0586-.08984.0586-.10547.04687-.08594.05859-.10547.04297-.10156.04297-.10547.04687-.07422.07422-.05859.08985-.0586.08593-.04687.10547-.0586.08594-.07421.07422-.13281-.01172-.1172-.03125h-.11718l-.07422.07422-.08984.0586-.07422.07421-.08984.0586-.08594.05859-.10547.04687-.10156.04297-.13672.01563-.10156-.04297-.14844-.14844-.10547-.04688h-.08594l-.10547.04688-.10156.04297-.1211.03125-.11718-.03125-.07422-.07422v-.11719l.03125-.1211.07422-.0703.0586-.08985.07421-.07422.11719-.03125.10547-.04296h.29297l.13281-.01563.13672-.01563.10156-.04296.08985-.0586.10156-.04687.08984-.0586.13281-.01171.08985.05859.13281.01172.08984-.0586.08594-.05859.10547-.04297.08984-.0586.08594-.0625.08985-.05859.14843-.14843.0586-.08594.05859-.08985.10547-.04296.13281-.01563.11719.02735.1211.03125.05859-.0586.05859-.08984.03125-.26563.02734-.11719.10547.01172.13281.01563.10157-.04297.08984-.0586.0586-.08984.07421-.07422.0586-.08984.04687-.10156.01172-.13281-.01172-.13282-.04687-.10547-.14844-.14843-.0586-.08985-.05859-.08594-.04297-.10546v-.44532l.01563-.1328v-.14845l.01172-.1328-.0586-.0586-.08984.0586-.10156-.04298-.17969-.11719-.08594-.05859-.0625-.08984-.0586-.08985-.07421-.07421-.08594-.0586-.1211.03125-.10155.01172-.10547.04688-.08594.05859-.10547.04297-.14844.14844-.08984.05859-.08594.0586-.08984.0625-.10547.04296-.13281.01563v-.1211l.10547-.04297.11718-.03125.07422-.0703.04297-.10548v-.14844l-.02734-.11718-.14844-.14844-.13281-.01563h-.14844l-.11719.03125-.10547.04297-.10156.04297-.08984.0625-.11719.02735-.07422-.07422.01172-.13281-.04297-.10157-.04297-.10547-.08984-.05859-.11719.02734-.1211.03125-.11718.03125-.10156.04297-.1211.03125-.10156.04297-.10547.04297-.08984.0586-.10156.01562v-.11719l.01562-.13281-.0586-.08985-.07421.04297-.14844.14844-.0586.08985-.07421.07421-.04688.10547-.04296.10156-.07422.07422-.0586.08985-.07422.07422-.05859.08593-.07422.07422-.08984.0625-.07422.07031-.07422.07422-.10156.01563-.13281.01562-.10547-.04296v-.1211l.14843-.14844.04297-.10156.0586-.08984.04687-.10156.04297-.10547.0586-.08985.03124-.11719.04297-.10156.03125-.1211.02735-.11718.04687-.10547.04297-.10156.04297-.10547.07422-.07031.08984-.0625.08985-.0586.10156-.04296h.29687l.26563-.03125.10547-.04297-.07422-.07422-.11719-.03125-.10547-.04297-.08984-.0586-.10156-.04687-.08985-.0586-.10156-.04296-.10547-.04297-.08984-.0625-.08594-.0586-.10547-.04296-.10156-.04297-.1211-.03125-.11718-.03125-.10157-.04297L297.5 410.25l-.10156-.04297-.08985-.0586-.04296-.10546-.01563-.13281.10156-.04297.13281-.01563.13672.01563.13282-.01563.10156-.04297.0586-.08984.01562-.10547-.08985-.0586-.07421-.07421-.10157-.04297-.08984-.0586-.14844-.14843-.04297-.10547-.01562-.13281v-.29297l-.0586-.08985-.08984-.05859-.07422-.07422-.04297-.10547-.03125-.11718-.0586-.08985-.07421-.07422-.11719-.02734-.07422-.07422-.08984-.0586-.08984-.0625-.08594-.05859-.07422-.07421-.0586-.08594-.04687-.10547-.08594-.0586-.14843-.14843-.19532-.0586-.1328.01563-.10157.04297-.07422.07422-.04688.10156-.04296.10547-.0586.08984-.0586.08594-.29687.29687-.08984.0586h-.08594l-.0625-.08594-.04297-.10547.03125-.11719.0586-.08984.02734-.11719-.01172-.13281-.08984-.0625-.10547.04688-.11719.02734-.11719.03125-.26953.17578-.10156.04688-.11719.02734-.10546.04687-.08985.0586-.10156.04297-.0586-.08594-.04687-.10547.01563-.13281.04687-.10547.07031-.07422.07422-.07031.0586-.08985v-.14843l-.04297-.10547h-.23829l-.10156.04687-.03125.11719-.02734.11719-.03125.1211-.07422.04296-.13281.01563-.07422-.04688-.04297-.10156-.04297-.10547-.04687-.10156-.04297-.10547-.1211.03125-.10156.04297-.13281.01562-.11719.03125-.10547.04297-.08984.0586-.10156.04687-.1211.02734-.13281.01563-.10156-.04297-.0586-.08985-.04687-.10546-.04297-.10157-.04297-.10546v-.1172l.0586-.08984.08593-.05859.17969-.11719.10156-.04687.10547-.04297.10547-.0586.10156-.04296.08985-.0625.10156-.04297.10547-.0586.10156-.04687.08984-.0586.10547-.04296.10156-.04297.08985-.0625.10156-.04297.13672-.01563.11719.03125.10156.04297.1211.03125.10156.04297.10546.04688.10157.04296.10547.04297.10156.04688.10547.04297.10156.04297.10547.04687.08594.0586.10546.04296.1172.03125.10546.04297.10156.04688.08985.0586.10547.04296.10156.04297.10547.04687.11719.02735.10156.04687.1211.02735h.14843l.08594-.0586.01562-.10156.0586-.08984-.02735-.1172-.07422-.07421-.11719-.17969-.07421-.07422-.08985-.07421-.17969-.1172-.08593-.05859-.10547-.04296-.10156-.04688-.26954-.17578-.05859-.08985-.07422-.07421-.0586-.08985-.04296-.10156-.03125-.11719-.01563-.13672v-.5625l-.01171-.1328-.01563-.13282-.03125-.11719-.01562-.13281-.01172-.13281-.03125-.1211-.22266-.22265-.0586-.08594-.01562-.10547.03125-.11719.13281-.01562v-91.41406H172.9922v1.45312l-.0586.23438-.35156 1.05078-.17187.52343-.1172.34766-.17577.41016-.11719.17187-.23438.29297-.23046.0586h-.35157l-.11718.05859-.23047.40625v.29297l.11719.17578.23046.23047.1172.23437.64062.75781.29297.46485.17578.23437.23047.35156.23437.34766.64063.8164.17578.46485.17187.41016.11719.69531.17578.46875.11719 1.39844.0586.46484v.875l.11718 1.04688v4.78125l-.0586.46484-.35156 1.28125-.17578.52344-.11328.41015-.35156.9297L172.93359 336l-.23437.58203-.11719.17578-.17187.34766-.17578.40625-.35157.8164-.0586.29297-.11327.29297-.11719.28906-.0586.17579-.11718.875-.0586.40625-.05859.11718-.0586.17579-.05859.17187-.23047.52734-.11718.17188v.23437l-.11719.23438-.0586.17187-.17577.58594v.28906l-.0586.17579v.29296l-.0586.11329-.05859.52734v.17187l-.05468.23438v2.6211l-.17578.8164-.1172.17578-.17577.23438-.1172.17187-.11327.23438-.58594.93359-.23047.28906-.29297.46485-.17578.23437-.28906.35156-.35156.69922-.11328.23047-.17579.41016-.17578.23046-.40625.52735-.8164.69922-.29297.17187-.28906.23438-.17579.11719-.17578.17578-.52344.40625-.52734.17578-.17187.17578-.23438.05469-.64062.17578h-.75782m12.21094 31.02344l-1.07422.44921.35938.89454 1.25-.71485.44531-.53906-.98047-.08985"/><path fill="#d3d3d3" fill-opacity="0" fill-rule="evenodd" d="M201.50781 416.59766h-.89453l.44922.6289.98047.35938.80469-.08985.4453-.98828-.17577.08985-.71485-.35547-.89453.35547m154.6211 59.0703l-.0586-.52343v-.29297l.11328-.29297.0586-.23046.46875-.46875h.11328l.11719-.11329.11718-.05859h.17579l.23437-.0586h.34766l.23437.0586.11719.0586.23047.17187.0586.17578.11718.58203v.29297l-.11719.17578-.17187.28906-.17579.17579-.52734.52343-.23047.23438-.11719.0586h-.17578l-.11718-.0586-.40625-.29297-.17579-.11719-.11718-.0586-.0586-.11327-.05468-.1172m6.64062-10.95702l-.0586-.17188v-1.10937l.0586-.17188.17578-.0586.17188-.05858h.17578l.23437-.0586.1172.0586.05858.69921-.05859.17188-.11719.17578-.11718.0586-.23438.52343-.11328.0586h-.23438l-.05859-.1172m9.61328-14.39062l-.11719-.17578v-.69922l.29297-.875.1172-.17187.17577-.35156.11328-.23047.1172-.29297.35155-.75781.1172-.23047.17187-.23438h.17578l.11719-.0586h.64062l.11719.0586.23437.23438.17188.11328.35156.29297.11719.11718.11328.17579v.11328l.11719.05859.11718.11719v.69922l-.05859.17578v.23047l-.0586.17578-.34765 1.05078-.11719.23047-.11719.23437-.11718.0586-.23047.23437-.64063.28906h-.875l-.41015-.11718-.64063-.46485"/><path fill="none" stroke="#bebebe" stroke-linecap="round" stroke-linejoin="round" stroke-miterlimit="10" stroke-width=".5" d="M467.95703 311.69531H144.02734v168.625h323.9297v-168.625"/><g clip-path="url(#a)"><path fill="#fff" fill-opacity="0" fill-rule="evenodd" d="M144 475.89063v4.4375h.0039H144V455.8164v20.07421"/></g><g clip-path="url(#b)"><path fill="#fff" fill-opacity="0" fill-rule="evenodd" d="M144 449.26172v3.34375-140.9336h.0039H144v137.58985"/></g><path fill="#50fcfc" fill-rule="evenodd" d="M144 452.60547v3.21094l.0039-.00782v-3.20312H144"/><g clip-path="url(#c)"><path fill="#fff" fill-opacity="0" fill-rule="evenodd" d="M144.0039 480.32813v-24.51954l.84376-2.10937-.84375-1.09375v-140.9336h66.5703v64.03907l-4.4375.98437-1.55858 1.55078 1.55859 2.65625.76953 1.78125 3.66797 2.88672 1.75 1.55469 2.6914 4.0586 1.26172.3789L217.6797 396l-2.66406 3.65234L212.75 396l-2.17578-1.8789-4.4375-1.8711-1.23047-.6875-1.67578-4.4375-1.53125-1.4961-4.4375-.59374-3.51953-2.35157-.92188-1.04296-4.4375.2539-.51562.78906.51562.53516 1.6836 3.90625.92187 4.4375-2.60547 2.23047-4.4375-1.0664-4.4375-.07813-4.4414-.04688-4.4375-.26953-4.4375-.44922-4.4375-.14453-.92188-.17578-3.51562-3.95313-4.44141-.3203-1.75781-.16407-2.67969-.89453-.8164.89453-1.91016 4.4375 2.72656 2.92969L149.5039 396l-1.0664.53906-3.79688 3.89844-.22265 4.4375.71094 4.4414 3.30859 3.3125 4.4375.57032 4.4414.11719 4.4375.2539.69141.1836 3.7461 3.15234 4.4375.16797 4.4375.17578 4.4414-.29688 3.74219-3.19921.69531-.28125 4.4375.0039 4.4375.02344 1.58203.2539 2.85938 1.875 4.4375.4297 4.4375-.53907.28906 2.67188 4.14844 2.8828 2.6289-2.8828 1.8125-.76172 4.4375.33203 1.23047.42969 3.20703 2.3828 4.4375-.25 4.4375-.3125 2.9961 2.6172 1.44531 1.46484 3.35938-1.46484 1.07812-.33985 3.74219-4.09765.69531-2.46875 1.02734-1.96875-1.02734-2.14844-.33203-2.28906-.32031-4.44141-.20703-4.4375-3.57813-2.76172L240.12891 396l-2.92188-2.82813-4.4414-1.28515-4.4375 1.30078-4.4375.05078-3.31641-1.67578 1.5039-4.4375-2.625-2.66406-2.92968-1.77735-1.50781-1.49218-1.8711-2.94532-2.57031-2.53515v-64.03906h17.7539v63.6953l-3.53515 2.87891 3.53516 3.85938.82812.57812 2.625 4.44141.98438 2.01953 1.52734-2.01953 2.91406-.875 2.58203-3.5664-2.58203-2.8086-3.40234-1.6289-1.03906-.88282-4.4375-1.9961v-63.6953h26.6289v53.63671l-4.4375.28125-3.92187 3.78125-.51563.53125-4.4375.58594-3.88281 3.32031 3.88281 3.84375h4.4375v7.35157l-2.1211 2.12109 2.1211 2.11719 2.3086-2.11719-2.3086-2.1211v-7.35156l4.4375-.46484 4.4375-1.63281 2.22266-1.7461 2.21875-4.02343.3125-.41407-.3125-.28515-4.4414-3.77735v-53.63671h44.38671v83.69921l-.72266.62891-3.71875 1.20313-4.4375 1.07812-4.4375-1.92188-4.4375.28516-4.4375.08594-4.4414.83594-4.4375 1.84765-1.97656 1.02344-2.46094.78906-3.0586 3.64844-1.3789 2.80469-2.6836 1.63672 2.6836 1.53906 4.4375 2.27344 3.4414.625.9961.55468 4.4375.91016 4.4414 1.83984 2.25391 1.13282 2.1836 2.01171 4.2578 2.42579.1797.1328.33593-.1328 4.10156-1.63672 4.4375.53125 4.44141.09765 4.4375.4336 4.4375-.3711 4.4375-.55468 2.89453-2.9375 1.11719-4.4375.42969-1.44922 2.74218-2.98828-.98046-4.44141-1.76172-1.76563-4.44141.16407-1.73438 1.60156-2.70312.63281-4.4375.14063-1.3789-.77344 1.3789-2.33594 2.20703-2.10156-2.20703-3.13281L300.8125 396l-1.46875-.6289v-83.69923h31.0664v113.17188l-2.85156 2.22656 2.85157 2.1289 2.0703-2.1289-2.0703-2.22656V311.67187h13.3164v36.41407l-4.4375.85937-2.28515 2.67188 2.28515 2.70312 2.96875 1.73438 1.46875 1.11719 1.1914-1.1172 2.39454-4.4375-3.58594-3.53124v-36.41406h35.50781v111.25l-4.4414 3.28125-.76563.86718.76563 1.77735.1914 2.66015-.1914.78125-2.61719 3.65625-1.82031 1.01953-3.42578 3.41797-1.01172.88281-4.4375 1.22657-2.91797 2.32812-1.51953 1.4961-4.4414.33593-3.20704 2.60938-1.23047 1.01172-3.02344 3.42578 1.27735 4.4375 1.7461 1.78515.65234 2.65235 3.78515 3.76172 4.4414-.14453 4.4375-1.40235 2.4375-2.21484 2-1.1836 4.4375.3711 4.4375.10937 2.21095.70313 2.23046 2.02734 3.53125-2.02734.71875-4.4375.1875-.15235 4.4375-2.28906 2.61329-1.9961-.4297-4.4375-2.18358-2.03515-1.65235-2.40625-2.78515-3.05469-4.4375-1.1953-.28125-.1875.28125-.15235 4.4375-1.60938 2.27734-2.67578.92969-4.4375-3.20704-3.45703-.58984-.98047-3.84765-4.14844v-111.25h31.0664V437.8125l-2.66015 2.57031-.77344 4.4375 1.04297 4.4414-2.04688.39454-4.4375.21875-3.83984 3.82422 2.55469 4.4375 1.28515 1.34375 2.34766 3.09375 2.08984 1.96484 3.36719-1.96484 1.07031-.80078 2.42188-3.63672-2.42188-2.94531-.40625-1.4922.40625-2.07812 4.4375-1.26562 1.08594-1.09375 2.65625-4.4414-3.74219-3.69532-2.10547-.74219-2.33203-2.57031V311.67187h13.3164v97.92188l-4.4375.1875-4.4414 2.20703-1.70312 1.76563 1.23828 4.4375.46484 1.5625 4.4414.54687v3.20313l-4.4414.26171-1.63281 3.3047 1.63281 2.96093 4.4414-.59766 4.4375-2.20703.15626-.15625-.15625-.21484-4.4375-3.35156v-3.20313l.48047-2.10937 3.95703-.46875 3.97265-3.96875-3.97265-4.16016v-97.92188h44.3789v168.65625H144.00391"/></g><path fill="#50fcfc" fill-rule="evenodd" d="M144.84766 453.69922l-.84375 2.10937v-3.20312l.84375 1.09375m.28125-44.38281l-.71094-4.44141.22266-4.4375 3.79687-3.89844L149.5039 396l-1.0664-1.50781-2.72656-2.92969 1.91015-4.4375.81641-.89453 2.67969.89453 1.75781.16406 4.4414.32031 3.51563 3.95313.92188.17578 4.4375.14453 4.4375.44922 4.4375.26953 4.4414.04688 4.4375.07812 4.4375 1.0664 2.60547-2.23046-.92187-4.4375-1.6836-3.90625-.51562-.53516.51562-.78906 4.4375-.2539v5.26562l-.11328.21875.11328.33203v6.98828L191.58984 396l1.23047.35547.83203-.35547-.83203-1.55469v-6.98828l1.23047 4.10547L196.9375 396l-4.11719 1.7539-4.4375-1.11718L184.9922 396l-1.04688-.3125-4.4375-.76172-4.4414-.53515-4.4375-.66797-4.4375-1.23438-4.4375-.2461-3.54688-.67968-.89062-1.0039-4.44141-1.58594-4.4375 2.28515-.16016.30469.16016.17188L151.44531 396l-3.00781 1.52344-2.83984 2.91406-.54688 4.4375 1.77734 4.4414 1.60938 1.61329 4.4375 1.4336 4.4414.27733 4.4375.125 3.7422.98829.6953.58593 4.4375.6172 4.4375.70312L179.50782 415l1.45703-1.2461 2.98047-1.20702 4.4375-.17579 4.4375-.01562 4.4414.88672 4.4375-3.48047 4.4375 2.33984 1.85157 1.65235 2.58594 3.55468 4.4414-1.55078 4.4375.52735 4.4375.9375 4.4375-.21094 4.4375-.5586 3.42579 1.73829 1.01562.89843 3.38672-.89843 1.05078-.17188 2.80078-4.26562-.9336-4.4375-.3164-4.44141-1.55078-3.8125-.14453-.625L237.3164 396l-.10937-.10547-4.4414-1.72265L229.25 396l-.92188.66797L225.08595 396l-1.19531-.19922-.44532.19922-3.99219 1.15625-3.04687 3.28125-1.39063 2.8711-.83984-2.8711-3.60156-3.8789L209.5039 396l-3.3672-2.38281-3.67968-2.05469-.75781-1.41406-4.4375-1.92188-4.0586-1.10156-.3828-.21875v-5.26563l.92187 1.04297 3.51953 2.35157 4.4375.59375 1.53125 1.49609 1.67578 4.4375 1.23047.6875 4.4375 1.8711L212.75 396l2.26563 3.65234L217.67969 396l-1.40235-4.4375-1.26172-.3789-2.6914-4.0586-1.75-1.55469-3.66797-2.88672-.76953-1.78125-1.5586-2.65625 1.5586-1.55078 4.4375-.98437v4.53515l-.46875 2.4375.46875.3711.79687-.3711-.79687-2.4375v-4.53515l2.57031 2.53515 1.8711 2.94532 1.5078 1.49218 2.9297 1.77735 2.625 2.66406-1.50391 4.4375 3.3164 1.67578 4.4375-.05078 4.4375-1.30078 4.44141 1.28515L240.12891 396l1.51562 1.67578 3.57813 2.76172.20703 4.4375.32031 4.4414.33203 2.28907 1.02734 2.14844-1.02734 1.96875-.69531 2.46875-3.74219 4.09765-1.07812.33985-3.35938 1.46484-1.44531-1.46484-2.9961-2.6172-4.4375.3125-4.4375.25-3.20703-2.3828-1.23047-.4297-4.4375-.33202-1.8125.76172-2.6289 2.8828-4.14844-2.8828-.28906-2.67188-4.4375.53906-4.4375-.42968-2.85938-1.875-1.58203-.25391-4.4375-.02344-4.4375-.0039-.69531.28125-3.74219 3.19921-4.4414.29688-4.4375-.17578-4.4375-.16797-3.7461-3.15234-.6914-.1836-4.4375-.2539-4.44141-.1172-4.4375-.5703-3.3086-3.3125"/><path fill="#00e8fc" fill-rule="evenodd" d="M146.82813 409.3164l-1.77735-4.4414.54688-4.4375 2.83984-2.91406L151.44531 396l-3.00781-4.26563-.16016-.17187.16016-.30469 4.4375-2.28515 4.4414 1.58593v2.41797L153.97267 396l-1.09766.34375-4.4375 2.8164-1.24219 1.27735-1.09765 4.4375 2.33984 3.72266 1.1836.71875 3.2539 1.64843 4.4414.54688 4.4375-.08594 4.4375 1.0039 4.4375.02735 4.4375.63281 4.44141-.8203 4.4375-1.26173 4.4375-.48437 4.4375-.07422 4.4414 1.375 2.8711-2.50781 1.5664-3.09766 4.4375 2.59375.17579.5039 4.26172 3.04298 4.4414.55468 4.01563.83985.42188.0703.2539-.0703 4.1836-.91016 4.4375.46875 4.4375-.33984 4.4414.15234 3.08203-3.8086.72266-4.4414-1.61328-4.4375-2.1914-2.28906-4.44142 1.16406-1.67187 1.125-2.76563.32031-.51562-.32031-3.92188-3.10156-4.4375 2.59765-.46875.50391-.78906 4.4375-3.17969 1.64453-1.33203-1.64453-1.05859-4.4375-2.05078-2.20703L206.28516 396l-.14844-.10547-4.4375-.82812-.83203.93359-2.27344 4.4375-.58984 4.4375-.7422.20313-.36718-.20313-3.1914-4.4375-.88282-.35156-4.4375-.35156-4.4375-1.85938-4.4375-.0039-4.4414-.26563-4.4375-1.57422-.02735-.03125-4.41015-2.5039-4.4375-.41407-4.4375-.10547v-2.41797l.89062 1.00391 3.54688.67969 4.4375.2461 4.4375 1.23437 4.4375.66796 4.4414.53516 4.4375.76172 1.04688.3125 3.39062.63672 4.4375 1.11719L196.9375 396l-2.88672-4.4375-1.23047-4.10547-.11328-.33203.11328-.21875.38281.21875 4.0586 1.10156 4.4375 1.92188.75781 1.41406 3.67969 2.05469L209.5039 396l1.0703.5586 3.60157 3.8789.83984 2.8711 1.39063-2.8711 3.04688-3.28125L223.4453 396l.44531-.19922 1.19532.19922 3.24219.66797L229.25 396l3.51563-1.82813 4.4414 1.72266.10938.10547 4.18359 4.4375.14453.625 1.55078 3.8125.3164 4.4414.9336 4.4375-2.80078 4.26563-1.05078.17188-3.38672.89843-1.01562-.89843-3.42578-1.73829-4.4375.5586-4.4375.21094-4.4375-.9375-4.4375-.52735-4.44141 1.55078-2.58594-3.55468-1.85156-1.65235-4.4375-2.33984-4.4375 3.48047-4.4414-.88672-4.4375.01562-4.4375.17579-2.98048 1.20703L179.50781 415l-4.4414.66016-4.4375-.70313-4.4375-.61719-.69532-.58593-3.74218-.98829-4.4375-.125-4.44141-.27734-4.4375-1.4336-1.60938-1.61327"/><path fill="#00d4fc" fill-rule="evenodd" d="M148.4375 408.59766l-2.33984-3.72266 1.09765-4.4375 1.24219-1.27734 4.4375-2.81641L153.97266 396l3.34375-3.02344 4.4375.10547v.83985l-4.4375.83203L155.9414 396l-3.06641.95703-4.26953 3.48047-.16797.67969-1.28906 3.75781 1.28906 2.05469 3.9375 2.38672.5.2539 4.4414.8125 4.4375-.29687 4.4375.80469 4.4375-.39844 4.4375.2461 4.44141-.875 4.4375-.39454.9961-.15234 3.4414-3.23438 2.98828-1.20703-2.98828-.63281-3.25781-3.80469-1.17969-.5625-4.17187.5625-.26563.2461-4.4414.47656-.57032-.72266-3.86718-2.46094L168.8242 396l-2.6328-1.49219-4.4375-.58594v-.83984l4.4375.41406L170.60156 396l.02735.03125 4.4375 1.57422 4.4414.26562 4.4375.00391 4.4375 1.85938 4.4375.35156.88281.35156 3.19141 4.4375.36719.20313v2.39843l-2.90625 1.83985 2.90625 1.08984 1.2461-1.08984-1.2461-1.83985v-2.39844l.74219-.20312.58984-4.4375L200.86719 396l.83203-.9336 4.4375.82813v1.15235l-4.4375 1.83984-.92188 1.55078.92188 1.86328 4.4375 1.60156 2.53906.97266 1.89844 2.32813 3.30469 2.11328 1.13672.60546 4.4375-.04687 4.4375 1.08984 4.4375.91016 4.4375-.8711 4.4414-1.22656.375-.46093 2.34375-4.44141-2.6289-4.4375-.08985-.09375-.22266.09375-4.21875 1.94922-4.4375-.53125-2.28906-1.41797-2.14844-1.69922-2.65234 1.69922-1.00781 4.4375-.77734 3.71875-4.4375.25-3.21485-3.96875-.72656-4.4375-.5-.53516-4.4375-2.85546v-1.15235l.14844.10547 4.28906 2.23047 2.05078 2.20703 1.0586 4.4375 1.33202 1.64453 3.1797-1.64453.78905-4.4375.46875-.5039 4.4375-2.59766 3.92188 3.10156.51563.32031 2.76562-.32031 1.67188-1.125 4.4414-1.16406 2.1914 2.28906 1.61329 4.4375-.72266 4.4414-3.08203 3.8086-4.4414-.15234-4.4375.33984-4.4375-.46875-4.1836.91016-.2539.0703-.42188-.0703-4.01563-.83985-4.4414-.55469-4.26172-3.04296-.17578-.50391-4.4375-2.59375-1.5664 3.09766-2.8711 2.5078-4.4414-1.375-4.4375.07423-4.4375.48437-4.4375 1.26172-4.44141.82031-4.4375-.6328-4.4375-.02735-4.4375-1.0039-4.4375.08593-4.44141-.54688-3.2539-1.64843-1.1836-.71875"/><path fill="#00c4fc" fill-rule="evenodd" d="M148.4375 406.92969l-1.28906-2.05469 1.28906-3.75781.16797-.67969 4.26953-3.48047L155.9414 396l1.375-1.2461 4.4375-.83202v.83984L158.0664 396l-.75.17578-4.4414 1.39453-3.51563 2.86719-.92187 3.73438-.24219.70312.24219.38672 4.4375 3.47656 4.4414.5039 4.4375-.23437 4.17579.3086.26172.03906.27734-.03906 4.16016-1.15235 4.30468-3.28906-3.48828-4.4375-.8164-.51953L167.04297 396l-.85156-.48438-4.4375-.7539v-.83985l4.4375.58594L168.8242 396l1.8047 1.97656 3.86718 2.46094.57032.72266 4.4414-.47657.26563-.24609 4.17187-.5625 1.17969.5625 3.25781 3.80469 2.98828.63281-2.98828 1.20703-3.4414 3.23438-.9961.15234-4.4375.39453-4.4414.875-4.4375-.2461-4.4375.39844-4.4375-.80468-4.4375.29687-4.44141-.8125-.5-.2539-3.9375-2.38672"/><path fill="#00b8fc" fill-rule="evenodd" d="M148.4375 405.26172l-.24219-.38672.24219-.70313.92188-3.73437 3.51562-2.86719 4.4414-1.39453.75-.17578 3.6875-1.23828v.84375L160.57032 396l-3.2539.76563-4.44141 1.41796-2.76172 2.25391-1.02734 4.4375 3.78906 3.16016 4.4414-.11329 4.4375.3672 4.4375-.14844 4.4375-2.84766.54688-.41797-.54687-.73438-.77344-3.70312-3.66406-3.85938L163.86328 396l-2.10937-.39453v-.84375l4.4375.7539.85156.48438 3.58594 3.91797.8164.51953 3.48828 4.4375-4.30468 3.28906-4.16016 1.15235-.27734.03906-.26172-.03906-4.17578-.3086-4.4375.23438-4.44141-.5039-4.4375-3.47657"/><path fill="#00a8fc" fill-rule="evenodd" d="M152.875 408.03516l-3.78906-3.16016 1.02734-4.4375 2.76172-2.2539 4.4414-1.41798L160.57032 396l1.1836-.39453v.76172l-4.4375.98437-4.44141 1.44531-2.01172 1.64063-.92969 4.4375 2.94141 2.45703 4.4414-.73437 4.4375.97265 4.4375-.63672 2.95704-2.05859-.34766-4.4375-2.60937-2.7461-4.4375-1.32421v-.76172l2.10937.39453 2.32813.57813 3.66406 3.85937.77344 3.70313.54687.73437-.54687.41797-4.4375 2.84765-4.4375.14844-4.4375-.36719-4.44141.11329"/><path fill="#009800" fill-rule="evenodd" d="M152.875 407.33203l-2.9414-2.45703.92968-4.4375 2.01172-1.64063 4.4414-1.4453 4.4375-.98438v.69531l-4.4375.8789-4.4414 1.47266-1.25781 1.02344-.83985 4.4375 2.09766 1.75 4.4414-1.34766 4.4375 1.57032 4.4375-1.125 1.21876-.84766.33593-4.4375-1.55468-1.63672-4.4375-1.73828v-.69531l4.4375 1.32422 2.60937 2.74609.34766 4.4375-2.95703 2.0586-4.4375.63671-4.4375-.97265-4.44141.73437"/><path fill="#00ac00" fill-rule="evenodd" d="M152.875 406.625l-2.09766-1.75.83985-4.4375 1.25781-1.02344 4.4414-1.47265 4.4375-.87891v.69922l-4.4375.76562-4.4414 1.5-.5039.41016-.75 4.4375 1.2539 1.04688 3.01953-1.04688 1.42188-.78516 1.26953.78516 3.16797 1.2539 3.78906-1.2539.64844-1.71484.5-2.72266-.5-.52344-4.4375-2.15234v-.69922l4.4375 1.73828 1.55468 1.63672-.33593 4.4375-1.21875.84766-4.4375 1.125-4.4375-1.57032-4.44141 1.34766"/><path fill="#00c800" fill-rule="evenodd" d="M152.875 405.92188l-1.2539-1.04688.75-4.4375.5039-.41016 4.4414-1.5 4.4375-.76562v1.39062l-4.4375.5547-2.14843.73046 2.14844 1.40234 4.4375 2.48829 2.42578-3.89063-2.42578-1.28516v-1.39062l4.4375 2.15234.5.52344-.5 2.72266-.64844 1.71484-3.78906 1.2539-3.16797-1.2539-1.26953-.78516-1.42188.78516-3.01953 1.04688"/><path fill="#10cc00" fill-rule="evenodd" d="M157.3164 401.83984l-2.14843-1.40234 2.14844-.73047 4.4375-.55469 2.42578 1.28516-2.42578 3.89063-4.4375-2.48829"/><path fill="#fff" fill-opacity="0" fill-rule="evenodd" d="M192.82031 394.44531L191.58984 396l1.23047.35547.83203-.35547-.83203-1.55469"/><path fill="#00c4fc" fill-rule="evenodd" d="M197.26172 410.40625l-2.90625-1.08984 2.90625-1.83985 1.2461 1.83985-1.2461 1.08984m4.4375-8.10547l-.92188-1.86328.92188-1.55078 4.4375-1.83985v1.09766l-3.47656 2.29297 3.47656 2.34375 3.34766-2.34375-3.34766-2.29297v-1.09765l4.4375 2.85546.5.53516.72656 4.4375 3.21484 3.96875 4.4375-.25.77735-3.71875 1.00781-4.4375 2.65234-1.69922v1.39844l-.46875.30078-2.11718 4.4375 2.58594 4.22266.60546.21875 3.83203 1.12109 3.75391-1.1211.6836-3.27343 4.4414 1.65625 1.63281-2.82422-1.6328-2.71094-4.44142 2.59375-4.4375-1.80469-4.05859-2.51562-.3789-.30078v-1.39844l2.14843 1.69922 2.28906 1.41797 4.4375.53125 4.21875-1.94922.22266-.09375.08984.09375 2.62891 4.4375-2.34375 4.4414-.375.46094-4.4414 1.22657-4.4375.87109-4.4375-.91016-4.4375-1.08984-4.4375.04688-1.13672-.60547-3.3047-2.11329-1.89843-2.32812-2.53906-.97266-4.4375-1.60156"/><path fill="#00b8fc" fill-rule="evenodd" d="M206.13672 402.78125l-3.47656-2.34375 3.47656-2.29297v1.09766l-1.8125 1.19531 1.8125 1.22266 1.7461-1.22266-1.7461-1.19531v-1.09766l3.34766 2.29297-3.34766 2.34375"/><path fill="#00a8fc" fill-rule="evenodd" d="M206.13672 401.66016l-1.8125-1.22266 1.8125-1.19531v1.09765l-.14844.09766.14844.10156.14453-.10156-.14453-.09766v-1.09765l1.7461 1.19531-1.7461 1.22266"/><path fill="#009800" fill-rule="evenodd" d="M206.13672 400.53906l-.14844-.10156.14844-.09766.14453.09766-.14453.10156"/><path fill="#00e8fc" fill-rule="evenodd" d="M210.57422 383.05469l-.46875-.3711.46875-2.4375.79687 2.4375-.79687.3711"/><path fill="#00b8fc" fill-rule="evenodd" d="M223.89063 409.09766l-2.58594-4.22266 2.11719-4.4375.46875-.30078v1.89844l-1.50782 2.83984 1.50781 2.46484 4.4375.98438 1.96875-3.44922-1.96875-.82813-4.4375-2.01171v-1.89844l.37891.30078 4.0586 2.51563 4.4375 1.80468 4.4414-2.59375v1.80078l-1.54687.91016 1.54687.95313.54688-.95313-.54688-.91016v-1.80078l1.63281 2.71094-1.6328 2.82422-4.44142-1.65625-.68359 3.27344-3.7539 1.12109-3.83204-1.1211-.60547-.21874"/><path fill="#00a8fc" fill-rule="evenodd" d="M223.89063 407.33984l-1.50782-2.46484 1.50781-2.83984v2.02734l-.43359.8125.4336.70703 2.7578-.70703-2.7578-.8125v-2.02734l4.4375 2.01171 1.96875.82813-1.96875 3.44922-4.4375-.98438"/><path fill="#009800" fill-rule="evenodd" d="M223.89063 405.58203l-.4336-.70703.4336-.8125 2.7578.8125-2.7578.70703"/><path fill="#50fcfc" fill-rule="evenodd" d="M228.32813 382.10547l-3.53516-3.85938 3.53516-2.8789v2.45703l-.51954.42187.51953.56641.76172-.5664-.76172-.42188v-2.45703l4.4375 1.9961 1.03907.8828 3.40234 1.62891 2.58203 2.8086-2.58203 3.5664-2.91406.875-1.52734 2.01953-.98438-2.01953-2.625-4.4414-.82813-.57813"/><path fill="#00e8fc" fill-rule="evenodd" d="M228.32813 378.8125l-.51954-.5664.51953-.42188.76172.42187-.76172.56641"/><path fill="#00a8fc" fill-rule="evenodd" d="M237.20703 405.82813l-1.54687-.95313 1.54687-.91016.54688.91016-.54688.95313"/><path fill="#50fcfc" fill-rule="evenodd" d="M241.64453 377.65234l-3.88281-3.84375 3.88281-3.3203 4.4375-.58595.51563-.53125 3.92187-3.78125 4.4375-.28125v1.08594l-4.4375.1836-2.89453 2.79296-1.54297 1.58594-4.4375 1.28906-1.82812 1.5625 1.82812 1.8125 4.4375.9922 4.4375-1.02345 2.94531-1.78125 1.4922-.76171 3.29296-3.67579-3.29297-2.97656v-1.08594l4.4414 3.77735.3125.28515-.3125.41407-2.21874 4.02343-2.22266 1.7461-4.4375 1.63281-4.4375.46484h-4.4375"/><path fill="#00e8fc" fill-rule="evenodd" d="M241.64453 375.6211l-1.82812-1.8125 1.82812-1.5625 4.4375-1.28907 1.54297-1.58594 2.89453-2.79296 4.4375-.1836v1.8125l-4.4375.01563-1.1875 1.14843-3.25 3.34375-2.53906 1.09375 2.53906 1.07813 2.90234-1.07813 1.53516-1.42578 4.4375-1.57422 1.28906-1.4375-1.28906-1.16406v-1.8125l3.29297 2.97656-3.29297 3.67579-1.49219.76171-2.9453 1.78125-4.4375 1.02344-4.4375-.99219"/><path fill="#00d4fc" fill-rule="evenodd" d="M246.08203 374.88672l-2.53906-1.07813 2.53906-1.09375 3.25-3.34375 1.1875-1.14843 4.4375-.01563 1.28906 1.16406-1.28906 1.4375-4.4375 1.57422-1.53516 1.42578-2.90234 1.07813"/><path fill="#50fcfc" fill-rule="evenodd" d="M246.08203 389.24219l-2.1211-2.11719 2.1211-2.1211 2.3086 2.1211-2.3086 2.11719m13.3164 21.61328l-2.68359-1.53906 2.6836-1.63672 1.3789-2.80469 3.0586-3.64844 2.46094-.78906 1.97656-1.02344 4.4375-1.84765 4.4414-.83594 4.4375-.08594 4.4375-.28515v.84765l-4.4375.48047-4.4375 1.2461-4.4414 1.02343-.89453.48047-3.54297 2.65625-4.4375 1.30078-.40235.48047-2.23046 4.4414 2.6328 1.91798 4.4375.26953 4.4375.96875 3.46094 1.28125.98047.53906 4.4375 1.83984 4.4375 1.27735 4.4375-.32813 4.4375-1.03906 3.4375 2.14844 1.00391.58203 4.4375 1.5 4.4375-.26953 4.4375-1.33594.47266-.47656 2.70312-4.4375 1.26563-4.28125.14062-.15625-.14062-.39844-4.44141-3-4.4375.70312-4.4375.33985-3.72656-2.08594 2.83984-4.4375-3.55078-3.01563-4.4414 1.91797-2.41407 1.09766-2.02344.29297-.44921-.29297-3.98829-3.23047v-.84765l4.4375 1.92187 4.4375-1.07813L298.6211 396l.72266-.6289 1.46875.6289 2.96875 1.30469 2.20703 3.13281-2.20703 2.10156-1.3789 2.33594 1.3789.77344 4.4375-.14063 2.70313-.63281 1.73437-1.60156 4.4414-.16406 1.76173 1.76562.98046 4.4414-2.74218 2.98829-.4297 1.44922-1.11718 4.4375-2.89453 2.9375-4.4375.55468-4.4375.3711-4.4375-.4336-4.4414-.09765-4.4375-.53125-4.10157 1.63672-.33594.1328-.17968-.1328-4.25782-2.42579-2.18359-2.01171-2.2539-1.13282-4.44141-1.83984-4.4375-.91016-.9961-.55468-3.4414-.625-4.4375-2.27344"/><path fill="#00e8fc" fill-rule="evenodd" d="M263.83594 411.23438l-2.63281-1.91797 2.23046-4.44141.40235-.48047 4.4375-1.30078 3.54297-2.65625.89453-.48047 4.4414-1.02344 4.4375-1.24609 4.4375-.48047v1.41406l-4.4375.79688-2.21875 1.01953-2.21875 2.10156-4.4414 1.23047-1.33594 1.10547 1.09766 4.4414.23828.08204.3086-.08203 4.1328-1.58594 2.33985 1.58594 2.09765 1.59375 4.4375 2.03125 3.9336.8125.5039.125.29297-.125 4.14453-.82813 4.44141-.95312.82813 1.78125 3.60937 3.95703 4.4375.23828 4.4375-1.5664 1.78516-2.62891-.90235-4.4375-.88281-.66016-4.4375-.1836-4.4375.67579-4.4375-2.09766L297.5 404.875l1.84375-3.80469.42188-.63281-.42188-.35938-.72656.35938-3.71485 1.66797-4.4375-.23828-2.1953-1.42969-2.2422-1.8164v-1.41407l3.98829 3.23047.44921.29297 2.02344-.29297 2.41406-1.09766 4.44141-1.91796 3.55078 3.01562-2.83984 4.4375 3.72656 2.08594 4.4375-.33985 4.4375-.70312 4.4414 3 .14063.39844-.14062.15625-1.26563 4.28125-2.70312 4.4375-.47266.47656-4.4375 1.33594-4.4375.26953-4.4375-1.5-1.0039-.58203-3.4375-2.14844-4.4375 1.03906-4.4375.32813-4.4375-1.27735-4.4375-1.83984-.98048-.53906-3.46093-1.28125-4.4375-.96875-4.4375-.26954"/><path fill="#00d4fc" fill-rule="evenodd" d="M272.47266 409.3164l-1.09766-4.4414 1.33594-1.10547 4.4414-1.23047 2.21875-2.10156 2.21875-1.01953 4.4375-.79688v1.41407l-1.8125.40234-2.625 1.26953-3.33203 3.16797 3.33203 2.6836 2.92188 1.7578 1.51562.9375 4.4375 1.19141 4.4375-.01953 4.01563-2.10937-3.67578-4.44141-.33985-.35938L290.46484 403l-3.9414-2.5625-.4961-.40234v-1.41407l2.2422 1.81641 2.1953 1.42969 4.4375.23828 3.71485-1.66797.72656-.35938.42188.35938-.42188.63281L297.5 404.875l1.84375 2.17578 4.4375 2.09766 4.4375-.67578v1.26953l-4.4375 1.28125-2.15234 2.73047 2.15234 2.36328 4.4375 1.14453 4.4375-2.92578.39453-.58203-.39453-1.20704-4.4375-2.80468v-1.26953l4.4375.18359.88281.66016.90235 4.4375-1.78516 2.6289-4.4375 1.5664-4.4375-.23827-3.60938-3.95703-.82812-1.78125-4.4414.95312-4.14454.82813-.29297.125-.5039-.125-3.9336-.8125-4.4375-2.03125-2.09765-1.59375-2.33985-1.58594-4.1328 1.58594-.3086.08203-.23828-.08203"/><path fill="#00c4fc" fill-rule="evenodd" d="M281.58984 407.5586l-3.33203-2.6836 3.33203-3.16797 2.625-1.26953 1.8125-.40234v2.0703l-4.4375 2.6797-.09765.08984.09765.07813 4.4375 2.79296 4.4375.92188.95313.64844 3.48437.60937 1.16407-.60937-1.16407-1.44141-2.5078-3-1.9297-.73828-4.4375-2.03125v-2.07031l.4961.40234 3.9414 2.5625 4.4375 1.51563.33985.35937 3.67578 4.4414-4.01563 2.10938-4.4375.01953-4.4375-1.1914-1.51562-.9375-2.92188-1.75782"/><path fill="#00b8fc" fill-rule="evenodd" d="M281.58984 404.95313l-.09765-.07813.09765-.08984 4.4375-2.6797v2.33204l-.72265.4375.72265.45703 1.56641-.45703-1.5664-.4375v-2.33203l4.4375 2.03125 1.92968.73828 2.50781 3 1.16407 1.4414-1.16407.60938-3.48437-.60937-.95313-.64844-4.4375-.92188-4.4375-2.79296"/><path fill="#00a8fc" fill-rule="evenodd" d="M286.02734 405.33203l-.72265-.45703.72265-.4375 1.56641.4375-1.5664.45703"/><path fill="#00c4fc" fill-rule="evenodd" d="M303.78125 416.11719l-2.15234-2.36328 2.15234-2.73047 4.4375-1.28125v.78515l-4.4375 2.33985-.69531.88672.69531.76562 4.4375 2.0586L312 413.7539l-3.78125-3.22657v-.78515l4.4375 2.80469.39453 1.20703-.39453.58203-4.4375 2.92578-4.4375-1.14453"/><path fill="#00b8fc" fill-rule="evenodd" d="M303.78125 414.51953l-.69531-.76562.69531-.88672 4.4375-2.33985v.78125l-3.80078 2.44532 3.80078 2.13671 2.86328-2.13671-2.86328-2.44532v-.78125L312 413.75391l-3.78125 2.82421-4.4375-2.05859"/><path fill="#00a8fc" fill-rule="evenodd" d="M308.21875 415.89063l-3.80078-2.13672 3.80078-2.44532v.78516l-2.58203 1.66016 2.58203 1.45312 1.94531-1.45312-1.94531-1.66016v-.78516l2.86328 2.44532-2.86328 2.13671"/><path fill="#009800" fill-rule="evenodd" d="M308.21875 415.20703l-2.58203-1.45312 2.58203-1.66016v.78516l-1.36328.875 1.36328.76562 1.02734-.76562-1.02734-.875v-.78516l1.94531 1.66016-1.94531 1.45312"/><path fill="#00ac00" fill-rule="evenodd" d="M308.21875 414.51953l-1.36328-.76562 1.36328-.875v.78125l-.14063.09375.14063.07812.10938-.07812-.10938-.09375v-.78125l1.02734.875-1.02734.76562"/><path fill="#00c800" fill-rule="evenodd" d="M308.21875 413.83203l-.14063-.07812.14063-.09375.10938.09375-.10938.07812"/><path fill="#50fcfc" fill-rule="evenodd" d="M330.41016 429.19922l-2.85157-2.1289 2.85157-2.22657 2.0703 2.22656-2.0703 2.1289m8.8789-74.8789l-2.28515-2.70312 2.28515-2.67188 4.4375-.85937v1.4414l-3.6914 2.08985 3.6914 2.89062 2.1211-2.89062-2.1211-2.08985v-1.4414l3.58594 3.53125-2.39453 4.4375-1.1914 1.11719-1.46876-1.1172-2.96875-1.73437"/><path fill="#00e8fc" fill-rule="evenodd" d="M343.72656 354.50781l-3.6914-2.89062 3.6914-2.08985 2.1211 2.08985-2.1211 2.89062"/><path fill="#50fcfc" fill-rule="evenodd" d="M346.41797 458.13672l-1.27735-4.4375 3.02344-3.42578v3.3789l-.03906.04688.03906.08984 1.25781 4.34766.64844 4.4375 2.53125 2.51562 4.4414-.49218 3.29688-2.02344-2.3203-4.4375-.97657-1.74219-4.4414-1.76172-4.30079-.9336-.13672-.04687v-3.3789l1.23047-1.01172 3.20703-2.60938 4.4414-.33593 1.51954-1.4961 2.91797-2.32812v5.11719l-1.625 1.65234.20312 4.4375 1.42188 2.38281 4.4375-2.19922.09375-.1836.63281-4.4375-.72656-.74218-4.4375-.91015v-5.1172l4.4375-1.22656 1.01172-.8828 3.42578-3.41798 1.82031-1.01953 2.61719-3.65625.1914-.78125-.1914-2.66015-.76563-1.77735.76563-.86719 4.4414-3.28125V424.5l-2.90234 2.57031-.41406 4.4375-.98047 4.4375-.14453.70313-4.4375 1.85937-1.88281 1.875-2.5547 2.22656-3.82421 2.21094 3.82422 2.30078 2.10156 2.14063-.26172 4.4375-1.83984 3.55078-1.1875.88672 1.1875.67969 4.4375 1.42578 4.4375.11328 4.4414 1.66015 3.34375-3.8789 1.09375-.88672 3.95313-3.55078-.61328-4.4375-3.33985-3.90235-1.01953-.53906-3.41796-2.00781-3.64454-2.42969 3.64454-1.97656 3.24218-2.46094 1.19531-2.39844.94922-2.03906-.94921-1.02734-2.0547-3.41016-2.3828-2.57031v-1.57813l3.84765 4.14844.58985.98047 3.20703 3.45703-.9297 4.4375-2.27733 2.67578-4.4375 1.60938-.28125.15234.28125.1875 4.4375 1.19531 2.78515 3.0547 1.65235 2.40624 2.18359 2.03516.42969 4.4375-2.61329 1.9961-4.4375 2.28906-.1875.15234-.71875 4.4375-3.53125 2.02734-2.23046-2.02734-2.21094-.70313-4.4375-.10937-4.4375-.3711-2 1.1836-2.4375 2.21484-4.4375 1.40235-4.4414.14453-3.78516-3.76172-.65235-2.65235-1.7461-1.78515"/><path fill="#00e8fc" fill-rule="evenodd" d="M348.16406 453.78906l-.03906-.08984.03906-.04688.13672.04688 4.30078.9336v3.79296l-.4375 4.14844.4375.4375 2.08203-.4375-2.08203-4.14844v-3.79297l4.4414 1.76172.97657 1.74219 2.32031 4.4375-3.29687 2.02344-4.4414.49218-2.53126-2.51562-.64844-4.4375-1.2578-4.34766"/><path fill="#00d4fc" fill-rule="evenodd" d="M352.60156 463.01172l-.4375-.4375.4375-4.14844 2.08203 4.14844-2.08203.4375"/><path fill="#fff" fill-opacity="0" fill-rule="evenodd" d="M361.48047 447.60938l-1.625 1.65234.20312 4.4375 1.42188 2.38281 4.4375-2.19922.09375-.1836.63281-4.4375-.72656-.74218-4.4375-.91015"/><path fill="#00e8fc" fill-rule="evenodd" d="M365.91797 447.1211l-3.82422-2.30079 3.82422-2.21094 2.55469-2.22656 1.8828-1.875v2.8789l-4.36718 3.4336 4.32422 4.4414.04297.6797.65234 3.7578 3.78516 3.69923.40234.73828 4.03906 2.1289 1.83594-2.1289 2.60156-2.11328 2.58594-2.32422-2.1289-4.4375-.45704-.53516-4.4375-2.77734-.78906-1.1289-3.65234-3.17188-4.4375-.26172v-2.8789l4.4375-1.85938.14453-.70313.98047-4.4375.41406-4.4375 2.90235-2.57031v2.65625l-1.76172 4.35156 1.76171 3.79688 2.67188-3.79688-2.67188-4.35156V424.5l2.38282 2.57031 2.05469 3.41016.94921 1.02734-.94921 2.03906-1.19532 2.39844-3.24219 2.46094-3.64453 1.97656 3.64454 2.42969 3.41796 2.00781 1.01954.53906 3.33984 3.90235.61328 4.4375-3.95313 3.55078-1.09375.88672-3.34375 3.8789-4.4414-1.66015-4.4375-.11328-4.4375-1.42578-1.1875-.6797 1.1875-.88671 1.83984-3.55078.26172-4.4375-2.10156-2.14063"/><path fill="#00d4fc" fill-rule="evenodd" d="M370.3125 449.26172l-4.32422-4.4414 4.36719-3.4336 4.4375.26172v1.47656l-4.14063 1.69531 4.14063 1.30469v1.1289l-4.39063 2.00782 4.39063 3.30078 2.51562-3.30078-2.51562-2.00781V446.125l3.9336 3.13672-2.48829 4.4375 2.27735 4.4375.71875.3789.32421-.3789 4.11329-3.33985 1.21875-1.09765-1.21875-2.28516-3.11329-2.15234-1.32421-.875-2.48438-3.5664-1.95703-1.69532v-1.47656l3.65234 3.17187.78906 1.1289 4.4375 2.77735.45704.53516 2.1289 4.4375-2.58594 2.32422-2.60156 2.11328-1.83594 2.1289-4.03906-2.1289-.40234-.73828-3.78516-3.69922-.65234-3.75781-.04297-.6797"/><path fill="#00e8fc" fill-rule="evenodd" d="M374.79297 447.2539l-4.39063 2.00782 4.39063 3.30078 2.51562-3.30078-2.51562-2.00781v1.1328l1.09765.875-1.09765 1.44142-1.91406-1.44141 1.91406-.875v-1.13281"/><path fill="#00c4fc" fill-rule="evenodd" d="M374.79297 446.125l-4.14063-1.30469 4.14063-1.69531v1.47266l-.54688.22265.54688.17188.25781-.17188-.25781-.22265V443.125l1.95703 1.69531 2.48438 3.5664 1.32421.875 3.11329 2.15235 1.21875 2.28516-1.21875 1.09765-4.11329 3.33985-.32421.3789-.71875-.3789-2.27735-4.4375 2.48828-4.4375-3.9336-3.13672"/><path fill="#50fcfc" fill-rule="evenodd" d="M374.79297 448.38672l-1.91406.875 1.91406 1.4414 1.09765-1.4414-1.09765-.875v.67578l.25.19922-.25.32422-.42969-.32422.42969-.19922v-.67578"/><path fill="#00b8fc" fill-rule="evenodd" d="M374.79297 444.99219l-.54688-.17188.54688-.22265.25781.22265-.25781.17188"/><path fill="#fff" fill-opacity="0" fill-rule="evenodd" d="M374.79297 449.0625l-.42969.19922.42969.32422.25-.32422-.25-.19922"/><path fill="#00d4fc" fill-rule="evenodd" d="M379.23438 435.30469l-1.76172-3.79688 1.76171-4.35156v3.83984l-.20703.51172.20704.4414.3125-.4414-.3125-.51172v-3.83984l2.67187 4.35156-2.67188 3.79688"/><path fill="#00c4fc" fill-rule="evenodd" d="M379.23438 431.94922l-.20704-.4414.20704-.51173.3125.51172-.3125.4414"/><path fill="#50fcfc" fill-rule="evenodd" d="M400.14063 458.13672l-2.5547-4.4375 3.83985-3.82422 4.4375-.21875v1.0586l-4.4375.11327-2.8789 2.8711 2.8789 3.5586 1.35938.8789 3.07812 3.46484 3.88672-3.46484-.91016-4.4375-2.97656-2.98438v-1.05859l2.04688-.39453-1.04297-4.4414.77344-4.4375 2.66015-2.57032v3.375l-1.88281 3.63281 1.88281 3.03516 4.4375.26953 2.60938-3.30469-2.60938-2.57422-4.4375-1.05859v-3.375l2.33203 2.57031 2.10547.74219 3.74219 3.69531-2.65625 4.4414-1.08594 1.09376-4.4375 1.26562-.40625 2.07813.40625 1.49219 2.42188 2.9453-2.42188 3.63673-1.07031.80078-3.36719 1.96484-2.08984-1.96484-2.34766-3.09375-1.28515-1.34375"/><path fill="#00e8fc" fill-rule="evenodd" d="M401.42578 457.25781l-2.8789-3.5586 2.8789-2.87108v1.59375l-1.28125 1.27734 1.28125 1.58203 4.41797 2.85547.01953.01953.02344-.01953 1.1914-4.4375-1.21484-1.21875-4.4375-.0586v-1.59375l4.4375-.11328 2.97656 2.98438.91016 4.4375-3.88672 3.46484-3.07812-3.46484-1.35938-.8789"/><path fill="#00d4fc" fill-rule="evenodd" d="M401.42578 455.28125l-1.28125-1.58203 1.28125-1.27735 4.4375.0586 1.21485 1.21875-1.19141 4.4375-.02344.01953-.01953-.01953-4.41797-2.85547"/><path fill="#00e8fc" fill-rule="evenodd" d="M410.30078 447.85547l-1.88281-3.03516 1.88281-3.63281 4.4375 1.0586v1.86718l-2.58594.70703 2.58594.91016.71875-.91016-.71875-.70703v-1.86719l2.60938 2.57422-2.60938 3.30469-4.4375-.26953"/><path fill="#00d4fc" fill-rule="evenodd" d="M414.73828 445.73047l-2.58594-.91016 2.58594-.70703.71875.70703-.71875.91016"/><path fill="#50fcfc" fill-rule="evenodd" d="M414.27344 418.1914l-1.23828-4.4375 1.70312-1.76562 4.4414-2.20703 4.4375-.1875v.75l-4.4375.35938-3.76952 3.05078 3.76953 3.47265 4.4375-.21875 3.25781-3.2539-3.25781-3.41016v-.75l3.97265 4.16016-3.97265 3.96875-3.95703.46875-.48047 2.10937-4.4414-.54687-.46485-1.5625m.46484 11.83984l-1.63281-2.96094 1.63281-3.30469 4.4414-.26171 4.4375 3.35156.15626.21484-.15625.15625-4.4375 2.20703-4.4414.59766"/><path fill="#00e8fc" fill-rule="evenodd" d="M419.17969 417.22656l-3.76953-3.47265 3.76953-3.05079 4.4375-.35937v1.2461l-4.4375.65234-1.86719 1.51172 1.86719 1.71875 4.4375.34375 2.0664-2.0625-2.0664-2.16407v-1.24609l3.25781 3.41016-3.25781 3.2539-4.4375.21875"/><path fill="#00d4fc" fill-rule="evenodd" d="M419.17969 415.47266l-1.86719-1.71875 1.86719-1.51172 4.4375-.65235v1.25l-4.33203.91407 4.33203.87109.875-.8711-.875-.91406v-1.25l2.0664 2.16407-2.0664 2.0625-4.4375-.34375"/><path fill="#00c4fc" fill-rule="evenodd" d="M423.61719 414.625l-4.33203-.8711 4.33203-.91406.875.91407-.875.87109"/><g clip-path="url(#d)"><path fill="#fff" fill-opacity="0" fill-rule="evenodd" d="M467.9961 480.32813H468V311.67188h-.0039H468v168.65625h-.0039"/></g><path fill="#fff" fill-opacity="0" fill-rule="evenodd" d="M375.27344 469.27344l5.8086.63281 1.07812-9.90234-5.8086-.63282-1.07812 9.90235"/><path fill-rule="evenodd" d="M379.63281 461.57031l.50781.05469-.68359 6.25781-.78125-.08203.48438-4.46484-1.37891-.15235.0586-.55078.5664-.0039.2539-.02735.23829-.0625.21875-.11719.19531-.1914.17188-.27735.14843-.3828"/><path fill="#fff" fill-opacity="0" fill-rule="evenodd" d="M149.03906 392.0586l5.82031.48437.82422-9.92578-5.8203-.48438-.82423 9.92578"/><path fill-rule="evenodd" d="M153.19922 384.25l.50781.04297-.52344 6.27344-.78515-.06641.375-4.47266-1.38281-.11718.04296-.55079.56641-.01953.2539-.03125.23829-.0703.21094-.125.1914-.19532.16797-.28125.13672-.38672"/><path fill="#fff" fill-opacity="0" fill-rule="evenodd" d="M214.58203 390.30469l2.20703 5.41015 9.22266-3.76953-2.21094-5.40625-9.21875 3.76563"/><path fill-rule="evenodd" d="M223.42969 390.46875l.1914.47266-5.82812 2.3828-.29688-.73046 4.15625-1.69922-.52343-1.28515.51172-.20704.27343.4922.14453.21093.16797.17969.21094.13671.25781.08204.32813.01953.40625-.05469"/><path fill="#fff" fill-opacity="0" fill-rule="evenodd" d="M305.33203 427.08594l5.8125-.60547-1.03515-9.90625-5.8086.60547 1.03125 9.90625"/><path fill-rule="evenodd" d="M307.97266 418.64063l.5039-.0547.65235 6.26173-.78125.08203-.46485-4.46485-1.38281.14454-.05469-.5547.54688-.12109.2461-.08203.21874-.11328.1875-.16015.15235-.22657.10937-.3086.0664-.40233"/><path fill="#fff" fill-opacity="0" fill-rule="evenodd" d="M164.14453 397.63281l6.19531 4.9414 6.35157-7.96874-6.19532-4.9414-6.35156 7.96874"/><path fill-rule="evenodd" d="M171.29297 392.64453l2.57031 2.04688-.46094.58203-2.0625-1.64453-1.30859 1.26562.28125.01563.29297.0625.3086.1328.3203.21485.23438.22266.21484.27734.16797.32031.10938.36329.03125.39843-.01563.20704-.04297.21484-.07422.21875-.09765.22656-.13281.22656-.16797.23047-.30078.32422-.34375.26172-.375.19531-.39844.11328-.41406.03125-.21485-.01953-.21094-.04687-.21484-.07031-.21484-.09766-.21485-.1211-.21093-.15625-.34375-.3164-.2461-.32813-.16015-.33593-.08203-.33985-.01172-.33984.05078-.34375.10937-.33594.15235-.33203.61328.49219-.08203.23047-.04688.22656-.01953.21875.01953.21094.05469.19921.08984.1875.1289.17579.16798.16015.26172.17578.26562.1211.26563.0586h.26562l.26172-.06642.26172-.1289.25-.19531.24219-.26563.14843-.21875.1172-.23828.07421-.26172.02734-.26953-.02734-.26953-.09375-.26953-.16406-.25781-.24219-.23829-.28516-.18359-.28906-.08984-.33203-.02344-.41016.01953-.54297-.4336 2.4961-2.39062"/><g clip-path="url(#e)"><path fill="none" stroke="#000" stroke-linecap="round" stroke-linejoin="round" stroke-miterlimit="10" stroke-width=".5" d="M146.65234 482.63281l-5.30468-4.60937"/></g><g clip-path="url(#f)"><path fill="none" stroke="#000" stroke-linecap="round" stroke-linejoin="round" stroke-miterlimit="10" stroke-width=".5" d="M160.1836 482.35547l-5.73829-4.05469"/></g><g clip-path="url(#g)"><path fill="none" stroke="#000" stroke-linecap="round" stroke-linejoin="round" stroke-miterlimit="10" stroke-width=".5" d="M173.3789 482.51563l-5.49609-4.375"/></g><g clip-path="url(#h)"><path fill="none" stroke="#000" stroke-linecap="round" stroke-linejoin="round" stroke-miterlimit="10" stroke-width=".5" d="M186.60156 482.6289l-5.3125-4.59765"/></g><g clip-path="url(#i)"><path fill="none" stroke="#000" stroke-linecap="round" stroke-linejoin="round" stroke-miterlimit="10" stroke-width=".5" d="M200.04688 482.46875l-5.57422-4.28125"/></g><g clip-path="url(#j)"><path fill="none" stroke="#000" stroke-linecap="round" stroke-linejoin="round" stroke-miterlimit="10" stroke-width=".5" d="M213.5039 482.26953l-5.85937-3.8789"/></g><g clip-path="url(#k)"><path fill="none" stroke="#000" stroke-linecap="round" stroke-linejoin="round" stroke-miterlimit="10" stroke-width=".5" d="M226.64063 482.51563l-5.5-4.375"/></g><g clip-path="url(#l)"><path fill="none" stroke="#000" stroke-linecap="round" stroke-linejoin="round" stroke-miterlimit="10" stroke-width=".5" d="M240.04688 482.39453l-5.6836-4.13281"/></g><g clip-path="url(#m)"><path fill="none" stroke="#000" stroke-linecap="round" stroke-linejoin="round" stroke-miterlimit="10" stroke-width=".5" d="M253.8125 481.5625l-6.58203-2.46484"/></g><g clip-path="url(#n)"><path fill="none" stroke="#000" stroke-linecap="round" stroke-linejoin="round" stroke-miterlimit="10" stroke-width=".5" d="M252.85547 481.20313l.15625 1.21484"/></g><g clip-path="url(#o)"><path fill="none" stroke="#000" stroke-linecap="round" stroke-linejoin="round" stroke-miterlimit="10" stroke-width=".5" d="M267.28125 481.01563l-6.89063-1.375"/></g><g clip-path="url(#p)"><path fill="none" stroke="#000" stroke-linecap="round" stroke-linejoin="round" stroke-miterlimit="10" stroke-width=".5" d="M266.27734 480.8164l.35547 1.17579"/></g><g clip-path="url(#q)"><path fill="none" stroke="#000" stroke-linecap="round" stroke-linejoin="round" stroke-miterlimit="10" stroke-width=".5" d="M280.42969 481.59375l-6.5586-2.52734"/></g><g clip-path="url(#r)"><path fill="none" stroke="#000" stroke-linecap="round" stroke-linejoin="round" stroke-miterlimit="10" stroke-width=".5" d="M279.47656 481.22656l.14453 1.21485"/></g><g clip-path="url(#s)"><path fill="none" stroke="#000" stroke-linecap="round" stroke-linejoin="round" stroke-miterlimit="10" stroke-width=".5" d="M293.39063 482.27344l-5.85157-3.89063"/></g><g clip-path="url(#t)"><path fill="none" stroke="#000" stroke-linecap="round" stroke-linejoin="round" stroke-miterlimit="10" stroke-width=".5" d="M306.98828 481.76172l-6.41406-2.86719"/></g><g clip-path="url(#u)"><path fill="none" stroke="#000" stroke-linecap="round" stroke-linejoin="round" stroke-miterlimit="10" stroke-width=".5" d="M320.05078 482.23047l-5.91015-3.80469"/></g><g clip-path="url(#v)"><path fill="none" stroke="#000" stroke-linecap="round" stroke-linejoin="round" stroke-miterlimit="10" stroke-width=".5" d="M333.39453 482.1836l-5.96875-3.71094"/></g><g clip-path="url(#w)"><path fill="none" stroke="#000" stroke-linecap="round" stroke-linejoin="round" stroke-miterlimit="10" stroke-width=".5" d="M347.1875 480.92969l-6.92188-1.20313"/></g><g clip-path="url(#x)"><path fill="none" stroke="#000" stroke-linecap="round" stroke-linejoin="round" stroke-miterlimit="10" stroke-width=".5" d="M346.17969 480.7539l.38281 1.16798"/></g><g clip-path="url(#y)"><path fill="none" stroke="#000" stroke-linecap="round" stroke-linejoin="round" stroke-miterlimit="10" stroke-width=".5" d="M360.14844 481.96875l-6.21485-3.28125"/></g><g clip-path="url(#z)"><path fill="none" stroke="#000" stroke-linecap="round" stroke-linejoin="round" stroke-miterlimit="10" stroke-width=".5" d="M373.86719 480.26563l-7.02344.125"/></g><g clip-path="url(#A)"><path fill="none" stroke="#000" stroke-linecap="round" stroke-linejoin="round" stroke-miterlimit="10" stroke-width=".5" d="M372.84766 480.28516l.59375 1.0703"/></g><g clip-path="url(#B)"><path fill="none" stroke="#000" stroke-linecap="round" stroke-linejoin="round" stroke-miterlimit="10" stroke-width=".5" d="M387.09375 479.54297l-6.84766 1.57422"/></g><g clip-path="url(#C)"><path fill="none" stroke="#000" stroke-linecap="round" stroke-linejoin="round" stroke-miterlimit="10" stroke-width=".5" d="M386.09766 479.76953l.80468.92969"/></g><g clip-path="url(#D)"><path fill="none" stroke="#000" stroke-linecap="round" stroke-linejoin="round" stroke-miterlimit="10" stroke-width=".5" d="M400.11328 481.9336l-6.2539-3.20704"/></g><g clip-path="url(#E)"><path fill="none" stroke="#000" stroke-linecap="round" stroke-linejoin="round" stroke-miterlimit="10" stroke-width=".5" d="M411.63281 483.57813l-2.66406-6.5"/></g><g clip-path="url(#F)"><path fill="none" stroke="#000" stroke-linecap="round" stroke-linejoin="round" stroke-miterlimit="10" stroke-width=".5" d="M425.41797 483.34766l-3.60156-6.03516"/></g><g clip-path="url(#G)"><path fill="none" stroke="#000" stroke-linecap="round" stroke-linejoin="round" stroke-miterlimit="10" stroke-width=".5" d="M439.4414 482.78516l-5.01952-4.91407"/></g><g clip-path="url(#H)"><path fill="none" stroke="#000" stroke-linecap="round" stroke-linejoin="round" stroke-miterlimit="10" stroke-width=".5" d="M453.05469 482.4414l-5.61719-4.22265"/></g><g clip-path="url(#I)"><path fill="none" stroke="#000" stroke-linecap="round" stroke-linejoin="round" stroke-miterlimit="10" stroke-width=".5" d="M464.84766 483.59766l-2.57032-6.53907"/></g><g clip-path="url(#J)"><path fill="none" stroke="#000" stroke-linecap="round" stroke-linejoin="round" stroke-miterlimit="10" stroke-width=".5" d="M146.6289 469.34375l-5.2578-4.66016"/></g><path fill="none" stroke="#000" stroke-linecap="round" stroke-linejoin="round" stroke-miterlimit="10" stroke-width=".5" d="M146.6289 469.34375l-.5703 2.38281m13.89062-2.38672l-5.26953-4.65234m5.26953 4.65234l-.57031 2.38672M173 469.60937l-4.73828-5.1914M173 469.60937l-.82813 2.3125m14.2461-2.41406l-4.94531-4.98828m4.9453 4.98828l-.72655 2.34375m14.23047-2.54297l-5.32422-4.58984m5.32422 4.58984l-.54297 2.39063m14.24609-2.9375l-6.09766-3.4961m5.21094 2.98438l-.03906 1.22656m13.98047-.32812l-5.58203-4.26953m4.77343 3.64843l-.20312 1.21094m13.95312-.17187l-4.83203-5.10547m4.1289 4.36328l-.39062 1.16016m15.1875-1.51172l-6.39062-2.91797m5.46094 2.49219l.07422 1.22656m14.46875-2.64063l-6.98438.76172m5.96875-.65234l.6914 1.01562m13.65235-.48828l-7.00781-.51172m5.98828.4375l.49219 1.1211m13.625-.0586l-6.57422-2.48828m5.61718 2.125l.15625 1.21875m13.79688-.22265l-5.9414-3.75391m5.07812 3.20703l-.08985 1.22266m13.82422-.10938l-5.05078-4.88672m4.3164 4.17578l-.33984 1.1797m13.45704.21874l-3.1875-6.26172m2.72656 5.35157l-.70703 1.0039m10.65625-.51172l4.46875-5.42578m11.84765 6.14063l-1.53515-6.85547m15.10547 3.42969l-.01954-.20313-.05859-.1914-.09375-.17579-.46094-.375-.1914-.0586-.19922-.01952-.19922.01953-.1914.0586-.45704.375-.09765.17577-.0586.19141-.01953.20313.01953.19921.0586.19141.09765.17578.45703.375.19141.0586.19922.01953.19922-.01953.1914-.0586.46094-.375.09375-.17578.0586-.1914.01953-.19922m9.63671-2.30079l5.3125 4.59766m7.15235-2.0586l7.01172-.48046m-5.99219.41015l-.64844-1.04296m13.29297-.66407l6.3164 3.07422m-5.39843-2.6289l-.04297-1.22657m12.08984 2.08203l7.01172.47266m8.58594 3.0586l2.44922-6.58985m11.61719 6.77734l.94531-6.96484m11.70312 6.80469l2.27735-6.64453m-1.94531 5.67968l-1.21094.19141"/><g clip-path="url(#K)"><path fill="none" stroke="#000" stroke-linecap="round" stroke-linejoin="round" stroke-miterlimit="10" stroke-width=".5" d="M146.64063 456.01953l-5.28125-4.64062"/></g><path fill="none" stroke="#000" stroke-linecap="round" stroke-linejoin="round" stroke-miterlimit="10" stroke-width=".5" d="M146.64063 456.01953l-.56641 2.38672m13.58984-2.09375l-4.69922-5.22656m4.69922 5.22656l-.83984 2.30469m13.8789-2.08203l-4.14453-5.67578m4.14453 5.67578l-1.0703 2.21093m14.48046-2.28125l-4.33594-5.53125m4.33594 5.53125l-.99219 2.2422m14.98047-2.94141l-5.6836-4.13282m4.85938 3.53125l-.17187 1.21485m14.85156-1.72266l-6.76172-1.91406m5.77735 1.63281l.2578 1.19922m13.97657-.71094l-6.63281-2.32812m5.66797 1.98828l.1836 1.21484m13.72265-.1211l-5.88672-3.83593m5.03125 3.27734l-.10938 1.22266m11.46875.92969l-.26172-7.02344m11.73438 6.58203l3.42188-6.14062m15.04687 3.76172l-6.88672-1.38672m19.42188 2.98437l-5.32813-4.57812m17.13672 5.60547l-2.3125-6.63282m1.97656 5.66797l-.83203.90235m15.1836-.26954l-3.71485-5.96875m3.17188 5.09766l-.61329 1.0625m14.34375-.11719l-3.46093-6.11719m12.66797 5.64454l4.7578-5.17188m-4.0664 4.41797l-1.1875-.3086m13.69531.94923l4.9922-4.94532m-4.26954 4.22656l-1.16797-.36718m13.32422.55078l5.85938-3.8789m-5.00782 3.3164l-1.07812-.58594m12.95703-.75l7.02734-.07812m-6.0039.0664l-.58594-1.07812m13.08594-.13282l6.61328 2.3672m-6.61328-2.3672l-.35547-2.42968m13.53515 2.90625l6.88282 1.41406m-5.88281-1.20703l-.34375-1.17969m12.60156 1.3711l7 .61718m-5.98047-.52734l-.48047-1.1289m12.83984 2.09374l6.8672-1.49219M449 456.98437l2.49219-6.5703m9.20312 5.3164l5.73047-4.0664m-4.89453 3.47655l-1.09766-.55078"/><g clip-path="url(#L)"><path fill="none" stroke="#000" stroke-linecap="round" stroke-linejoin="round" stroke-miterlimit="10" stroke-width=".5" d="M146.46094 442.89063l-4.92188-5.01563"/></g><path fill="none" stroke="#000" stroke-linecap="round" stroke-linejoin="round" stroke-miterlimit="10" stroke-width=".5" d="M146.46094 442.89063l-.73828 2.33984m14.3828-2.71094l-5.58202-4.27344m5.58203 4.27344l-.40234 2.42188m12.66015-1.5l-3.46484-6.11329m2.96094 5.22266l-.66016 1.03516m15.16016-.64844l-4.82813-5.10547m4.125 4.36328l-.39063 1.16016m14.76563-.8086l-5.53906-4.32421m4.73047 3.6953l-.21094 1.20704m14.01953-.23047l-4.91406-5.02344m4.19922 4.29297l-.3711 1.16797m14.58203-.6289l-5.27343-4.64063m4.5078 3.96875l-.28515 1.1914m15.03906-1.66406l-6.62109-2.35156m13.6914 3.10547l5.8711-3.85937m6.89453 2.3789l6.96875-.89844m-5.95703.76954l-.70703-1.00391m14.46484 3.55078l4.0625-5.73437m9.98828 6.13671l2.58594-6.53515m-2.20703 5.58203l-1.21875.13672m16.48828.90234l-2.07812-6.71094m1.77734 5.73438l-.86328.8711m11.29297-.46876l4.29297-5.5625m-3.66797 4.7539l-1.21094-.20312m13.74219.88282l4.60937-5.3047m-3.9375 4.53517l-1.1953-.27735m12.92577-.19922l6.4375-2.8125m-5.5039 2.40625l-.96094-.76562m13.45312 1.40625l6.21485-3.28125m-5.3086 2.80469l-1.01562-.6875m13.05078.0078l6.96094-.96874m-6.96094.96875l-1.4375-1.98438m14.8711.48047l6.72656 2.03906m-6.72657-2.03906l-.47265-2.40625m13.6875 2.83203l6.92578 1.1914m-5.91797-1.01952l-.38281-1.16406m12.85547.375l6.59375 2.42578m-5.63282-2.07422l-.16796-1.21485m12.44921 1.08594l6.7422 1.98047m-5.76173-1.69531l-.2461-1.19922m12.48438 2.46875l6.9336-1.13281m-5.92578.96875l-.7422-.97657m13.20704 1.75391l6.61719-2.35937m-5.65625 2.01562l-.90625-.82812m14.04687 2.4414l5.04297-4.89453m-4.3086 4.17969l-1.16796-.375"/><g clip-path="url(#M)"><path fill="none" stroke="#000" stroke-linecap="round" stroke-linejoin="round" stroke-miterlimit="10" stroke-width=".5" d="M145.9414 429.9961l-3.8828-5.85548"/></g><path fill="none" stroke="#000" stroke-linecap="round" stroke-linejoin="round" stroke-miterlimit="10" stroke-width=".5" d="M145.9414 429.9961l-1.16796 2.15624m14.94531-2.52343l-4.8086-5.1211m4.8086 5.1211l-.78906 2.32421m14.35937-2.58593l-5.3164-4.59766m4.54297 3.92969l-.27344 1.19531m13.7539.02734l-4.10156-5.70703m3.5039 4.875l-.54296 1.10157m13.73437.1289l-2.66015-6.5039m2.27344 5.55859l-.78516.9414m14.92578-.21484l-3.53906-6.0664m3.02734 5.18359l-.64844 1.04297m12.1797.28125l1.05468-6.94922m-.90234 5.9375l-1.15625.40625m11.39453-2.21875l6.90234-1.30078m6.35156.7461l7.02344-.19141m-6 .16406l-.60547-1.0664m12.91406 1.36718l6.98828-.73828m-5.96875.6289l-.6875-1.01562m13.35157 2.35937l6.2539-3.20312m-5.34375 2.73437l-1.0078-.69921m13.78515 1.74609l5.50781-4.36328m-4.70703 3.73047l-1.1211-.49219m14.7461 2.04687l3.28906-6.20703m-2.8125 5.3047l-1.22656.0039m13.89844.80468l3.625-6.01953m-3.09766 5.14453l-1.22656-.0664m13.76562.77734l4.1211-5.6914m-3.52344 4.86328l-1.21485-.16797m13.48829.61719l5.0039-4.9336m-4.27344 4.21485l-1.17187-.3672m13.2539.44141l6.01173-3.64453m-5.13672 3.11328l-1.0547-.6289m13.26954.71875l6.46094-2.76172m-5.51953 2.35937l-.95704-.76953m13.14454-1.02343l6.83593 1.6289m-5.83984-1.39453l-.3086-1.1875m13.375-.51562l5.33985 4.5664m-4.5625-3.90234l.26563-1.19531m13.54687-.41016l2.79297 6.44922m-2.38672-5.51172l.76172-.95703m12.22265-.01172l2.64063 6.51172m-2.25781-5.5625l.78906-.9414m11.07031 5.8203l4.78516-5.14453m9.3711 5.72266l3.10546-6.30078m-2.65625 5.38672l-1.22656.03515m12.45312-.80078l6.38282-2.9414m-5.45313 2.51562l-.97656-.7461"/><g clip-path="url(#N)"><path fill="none" stroke="#000" stroke-linecap="round" stroke-linejoin="round" stroke-miterlimit="10" stroke-width=".5" d="M144.76563 417.1836l-1.53125-6.85938"/></g><g clip-path="url(#O)"><path fill="none" stroke="#000" stroke-linecap="round" stroke-linejoin="round" stroke-miterlimit="10" stroke-width=".5" d="M144.54297 416.1836l-.92969.80077"/></g><path fill="none" stroke="#000" stroke-linecap="round" stroke-linejoin="round" stroke-miterlimit="10" stroke-width=".5" d="M157.4375 417.26563l-.2461-7.02344m.21094 6l-1.0625.61328m13.79688.375l.98437-6.95703m-.83984 5.94531l-1.15234.41797m13.8164.48437l2-6.73437m-1.71094 5.7539l-1.19921.2461m13.3203.32031l3.8086-5.90625m-3.2539 5.04688l-1.22266-.10547m13.34375.4336l5.08984-4.84376m-5.08984 4.84375l-2.32813-.77734m14.8672-.4961l6.64062-2.29687m-6.64063 2.29687l-1.79687-1.67187m15.6211 2.63281l5.62108-4.21875m-5.62109 4.21875l-2.22266-1.04297m14.84766-.76953l7.0039-.59375m-5.98437.50781l-.66406-1.03125m14.10938 3.4297l4.70312-5.21876m-4.01953 4.46094l-1.1914-.30078m13.01171-.01953l6.32422-3.06641m13.33203 3.03125l-6.35937-2.99219m14.23828 4.1875l4.51172-5.38672m-3.85547 4.60547l-1.19922-.2539m15.39844 1.78125l1.43359-6.87891m-1.22656 5.8789l-1.17578.34376m12.6289-.19141l4.7461-5.17969m-4.7461 5.17969l-2.375-.61328m15.0586-.15235l6.0078-3.64843m-5.1328 3.11718l-1.0547-.6289m16.9961-4.14063l-.9961 6.95313m17.08595-4.7539l-6.54688 2.55077m5.59375-2.17968l.92969.80078m12.83984-2.05078l-5.54687 4.3125m4.73828-3.6836l1.1211.5m13.5664-.0664l-6.67578 2.1875m5.70703-1.8711l.88281.85156m12.98438-2.02734l-5.84375 3.90625m4.99218-3.33984l1.08203.58203m13.01563-1.25l-5.70313 4.10937m5.70313-4.10937l2.19922 1.08203m11.73828 1.5039l-6.94922-1.0625m5.9375.91016l.40625 1.15625m7.5664.47656l5.75782-4.02734m13.67578 3.3711l-6.48047-2.71094"/><g clip-path="url(#P)"><path fill="none" stroke="#000" stroke-linecap="round" stroke-linejoin="round" stroke-miterlimit="10" stroke-width=".5" d="M140.67578 399.29688l6.64844 2.28125"/></g><path fill="none" stroke="#000" stroke-linecap="round" stroke-linejoin="round" stroke-miterlimit="10" stroke-width=".5" d="M154.55469 402.61328l5.51953-4.35156m-5.51953 4.35156l-2.2461-.98828m16.13672 1.5664l4.36719-5.5039m-4.36719 5.5039l-2.41015-.4453m14.88672-.51563l6.04687-3.58594m-5.16797 3.0664l-1.04687-.64062m13.02343-.17578l6.96875-.91015m-5.95703.77734l-.71094-1m12.98829.83203l7.01953-.3125m-7.01953.3125l-1.25-2.10938m14.58203 2.32813l6.98437-.75m-6.98437.75l-1.3789-2.03125m20.5078 4.29297l-4.64453-5.27344m16.19922 6.10547l-1.125-6.9375m.96484 5.92969l-.98046.74219m17.0625-1.6797l-6.33594-3.04296m5.41406 2.59765l.05078 1.22657m14.52344-2.5625l-7.00781.51562m5.98828-.4414l.65234 1.03906m13.6836-1.07031l-7.01172.43359m7.01172-.4336l1.28515 2.08985m12.02344-2.17578l-7 .60156m7-.60156l1.33203 2.0586m11.33985.28906l-5.71485-4.09375m5.71485 4.09375l-.32813 2.43359m12.73438-1.55469l-3.89844-5.84765m3.89844 5.84765l-1.16407 2.16016m15.41407-3.07422l-5.76563-4.01953m5.76563 4.01953l-.29297 2.4336m13.55468-2.36329l-5.66015-4.16406m4.83594 3.5586l-.17579 1.21484m12.9961.48046l-3.02344-6.34375m2.58594 5.42188l-.73047.98438m16.21094-4.59766l-6.47657 2.73047m5.53516-2.33203l.94922.77343m13.29687-1.1914l-6.45703 2.76953m5.51953-2.36719l.95313.76953m10.47656-3.27734l-.8086 6.98047m15.48438-6.52735l-3.53515 6.07422m3.02343-5.1914l1.22266.04687m14.27344 1.36328l-6.8711 1.48828m5.8711-1.27343l.79297.9375m13.5-1.23829l-6.82813 1.66016m5.83594-1.42187l.8164.91796m13.3086 1.04688l-6.46484-2.75"/><g clip-path="url(#Q)"><path fill="none" stroke="#000" stroke-linecap="round" stroke-linejoin="round" stroke-miterlimit="10" stroke-width=".5" d="M147.08594 385.44531l-6.17188 3.35547"/></g><path fill="none" stroke="#000" stroke-linecap="round" stroke-linejoin="round" stroke-miterlimit="10" stroke-width=".5" d="M147.08594 385.44531l2.04687 1.35156m11.66406.8125l-6.96093-.97265m6.96094.97265l.83984 2.3047m9.85156.61718l-1.71484-6.8164m1.46484 5.82421l-.91016.82422m15.10547-.0586l-2.97656-6.36327M185 389.3789l-.73438.98046m15.82032-5.32421l-5.65235 4.17578m13.17578-3.96875l5.9336 3.76172m10.03906 1.62109l.61328-7m16.48438 2.98047l-6.94922 1.03515m5.9375-.8828l.73047.98437m11.30078 2.6914l-2.35938-6.62109m2.01563 5.65625l-.82422.90625m14.85547-.09766l-3.10156-6.30859m3.10156 6.3086l-1.4375 1.98827m15.76562-2.74218l-5.1289-4.80078m5.1289 4.80078l-.64062 2.3711m14.51562-3.16407l-6.24609-3.21485m5.33594 2.7461l.01562 1.23047m14.51563-1.60156l-6.85938-1.53516m6.85938 1.53515l.64843 2.3672m-1.64843-2.58985l.32422 1.1836m14.0703-1.52735l-7.01562-.39844m7.01563.39844l1.02734 2.22656m-2.05078-2.28515l.51563 1.11328m13.6328-.10157l-6.63671-2.30859m6.63672 2.3086l.375 2.42577m-1.34375-2.76171l.1875 1.21484m14.03125-.71484l-6.51172-2.63672m6.51172 2.63672l.2539 2.4414m-1.19921-2.82422l.125 1.21875m14.23437-1.10156l-6.70312-2.10547m5.72656 1.80078l.22265 1.20704m12.94141.76562l-4.44922-5.4414m3.80078 4.64843l-.47265 1.13281m15.28125-4.76562l-6.14453 3.41015m5.2539-2.91406l1.02735.66797m13.60546.20703l-6.99609.66797m6.9961-.66797l1.35156 2.04688m11.89062-.9336l-6.85156-1.55859m5.85547 1.33203l.32031 1.1836m12.48828 1.20703l-3.84375-5.88282m3.28516 5.02344l-.59375 1.07813m15.52344-1.29688l-5.95704-3.72656m19.3672.16015l-6.14845 3.40235m19.32813-3.6289l-5.875 3.85546m5.01953-3.29297l1.07422.58985"/><g clip-path="url(#R)"><path fill="none" stroke="#000" stroke-linecap="round" stroke-linejoin="round" stroke-miterlimit="10" stroke-width=".5" d="M147.4375 373.07813l-6.875 1.45703"/></g><path fill="none" stroke="#000" stroke-linecap="round" stroke-linejoin="round" stroke-miterlimit="10" stroke-width=".5" d="M147.4375 373.07813l1.57422 1.8828m11.79687-1.51562l-6.98828.72266m6.98828-.72266l1.3711 2.03906m11.95703-1.4453l-7.01172-.46485m7.01172.46484l1.0039 2.23828m-2.02343-2.30468l.5 1.12109m13.8164-1.70313l-6.97656.83594m6.97656-.83594l1.40235 2.01172m10.38281-4.51171l-3.91797 5.83593m3.34766-4.98828l1.21875.1289m10.04687-1.51171l1.32031 6.90234m-1.125-5.89453l.95313-.76953m15.10938 5.88672l-4.5625-5.34375m4.5625 5.34375l-.90235 2.28515m15.22656-6.1914l-6.58203 2.46875m6.58203-2.46875l1.83985 1.625m-2.79688-1.26563l.91797.8125m12.8164 2.2461l-5.5078-4.36719m5.5078 4.36719l-.4453 2.41406m-.35547-3.05078l-.22266 1.20703m14.53125-.83594l-5.89063-3.83594m5.89063 3.83594l-.21875 2.4414m-.64063-3l-.10546 1.22267m14.71093-1.6172l-6.7539-1.92968m6.7539 1.92969l.51563 2.39844m-1.4961-2.6797l.25391 1.19923m13.75-.20313l-6.17187-3.35937m6.17187 3.35937l-.02344 2.45313m-.875-2.94141l-.01171 1.22656m14.45703-1.25781l-6.63282-2.32031m6.63282 2.32031l.37109 2.42578m13.125-3.92969l-6.9961.6875m5.97657-.58984l.67969 1.02344m13.66015-1.0586l-7.0039.5625m5.98437-.48046l.66016 1.03515m13.16797.9961l-5.9961-3.66407m5.125 3.1289l-.07422 1.22657m14.55079-1.28906l-6.57422-2.47266m6.57422 2.47266l.3164 2.4336m12.9375-2.27735l-6.45312-2.78516m5.51562 2.38281l.09766 1.22266m14.42578-2.5625l-6.99219.69922m5.97266-.59766l.6836 1.02344m12.4414 1.89453l-4.57422-5.33594m4.57422 5.33594l-.89453 2.28516m15.40625-4.5l-6.96875-.91016m6.96875.91016l.86328 2.30078m11.88672-4.71094l-5.83594 3.91406m4.98437-3.34375l1.08204.57813m11.1875.8086l-.01954-.19923-.05859-.1914-.09375-.17578-.45703-.3789-.1914-.0586-.20313-.01953-.19922.01953-.1914.0586-.45704.3789-.09375.17578-.0586.1914-.01952.19922.01953.19922.0586.1914.09374.17579.45703.3789.1914.0586.19923.01953.20312-.01953.1914-.0586.45704-.3789.09375-.17578.0586-.1914.01953-.19923m8.82812-.58203l6.92969 1.16406m-5.92188-.99609l-.38672-1.16015m12.71094 2.24609l6.89844-1.34375m-5.89453 1.14844l-.77344-.95313"/><g clip-path="url(#S)"><path fill="none" stroke="#000" stroke-linecap="round" stroke-linejoin="round" stroke-miterlimit="10" stroke-width=".5" d="M147.51172 360.6289l-7.02344-.26952"/></g><path fill="none" stroke="#000" stroke-linecap="round" stroke-linejoin="round" stroke-miterlimit="10" stroke-width=".5" d="M147.51172 360.6289l1.0664 2.20704m12.19922-1.73828l-6.92187-1.20704m6.92187 1.20704l.76172 2.33203m12.58985-2.61328l-6.9961-.64454m6.9961.64454l.94922 2.26171m12.3789-2.70312l-7.02344.23828m7.02344-.23828l1.22266 2.125m11.9375-3.04297l-6.71485 2.07031m6.71485-2.0703l1.73828 1.73437m-2.71484-1.4336l.87109.86719m13.41797-1.17969l-6.70703 2.09766m6.70703-2.09766l1.7461 1.72266m9.75 2.48437l-3.07032-6.3203m3.07031 6.3203l-1.44531 1.98438m1-2.90235l-.72266.9922m16.1875-1.875l-6.48047-2.71485m6.48047 2.71484l.22656 2.4414m13.33594-3.3828l-6.97656-.83204m6.97656.83204l.89063 2.28515m-1.90235-2.40625l.88672 2.28516m13.33203-1.61328l-6.7578-1.9336m6.7578 1.9336l.50782 2.39844m12.02343-1l-5.1914-4.73438m5.1914 4.73438l-.60937 2.3789m13.66015-2.11328l-4.66015-5.26172m4.66015 5.26172l-.85937 2.29688m.17969-3.0625l-.42969 1.14843m14.98828-1.02344l-5.78906-3.98046m5.78906 3.98046l-.27734 2.4375m-.5664-3.01562l-.13673 1.21875m14.85938-2.02344l-6.91797-1.21484m6.91797 1.21484l.76172 2.33203m-1.76563-2.51171l.3789 1.16796m12.53907 1.25391l-4.11328-5.69922m3.51172 4.86719l-.53906 1.10156m10.22656-.35937l4.34375-5.52344m-4.34375 5.52344l-2.41797-.4336m16.71094.97656l2.38671-6.60937m-2.38671 6.60938l-2.4297.34765m2.77735-1.3086l-1.21484.17188m16.67187.75l-2.58984-6.53125m2.21094 5.58203l-.79297.9336m16.6914-2.92969l-7-.64063m7 .64063l.94922 2.26172m11.77344-.60547l-5.8164-3.94922m4.96875 3.375l-.13282 1.21875m11.99219-6.08203l-1.21094 6.92188m1.03516-5.91407l1.16797-.3789m11.61328-.6797l.21094 7.02345m-.1797-6l1.0625-.60938m14.34376.22266l-4.03516 5.75m3.44922-4.91406l1.21875.15234m8.58594-.94531l4.15625 5.66406m-3.55078-4.83985l.53125-1.10546m10.80469 2.47265l6.90625 1.28516m-6.90625-1.28516l-.73829-2.34375"/><g clip-path="url(#T)"><path fill="none" stroke="#000" stroke-linecap="round" stroke-linejoin="round" stroke-miterlimit="10" stroke-width=".5" d="M147.47266 346.64453l-6.94532 1.0664"/></g><path fill="none" stroke="#000" stroke-linecap="round" stroke-linejoin="round" stroke-miterlimit="10" stroke-width=".5" d="M147.47266 346.64453l1.46875 1.96485m11.88672-1.37891l-7.02735-.10547m7.02734.10547l1.1172 2.1836m12.02734-1.14844l-6.6836-2.17579M173 347.94922l.21094 1.20703m11.8086 1.36719l-2.14845-6.6914m1.83594 5.71874l-.85547.8789m13.67578-6.7539l-.53515 7.0039m14.60547-3.5l-.01953-.19921-.0586-.19531-.09375-.17579-.46094-.375-.1914-.05859-.19922-.01953-.19922.01953-.1914.0586-.45704.375-.09765.17578-.0547.1953-.01952.19923.01953.19922.05469.1914.09765.17578.45703.375.19141.0586.19922.01953.19922-.01953.1914-.0586.46094-.375.09375-.17578.0586-.1914.01953-.19922m15.80078-.21875l-7.01563.4336m5.99219-.3711l.64453 1.04687m11.89844 2.17578l-3.42578-6.13671m2.92578 5.24609l-.66406 1.02734m16.15625-2.28515l-6.78125-1.83985m6.78125 1.83985l.54687 2.39062m-1.53125-2.66015l.27344 1.19921m13.54297.12891l-5.8125-3.95313m5.8125 3.95313l-.26953 2.4375m12.80078-1.61328l-4.24219-5.60547m4.24219 5.60547l-1.03516 2.22656m.41797-3.04297l-.51953 1.11328m15.25-1.14843l-5.84375-3.90235m5.84375 3.90235l-.2461 2.4414m11.50391-.98828l-1.72656-6.8086m1.72656 6.8086l-1.8164 1.65235m1.5664-2.64063l-.91016.82422m14.9961-.01172l-2.76953-6.45703m2.76953 6.45703l-1.53906 1.91406m16.89062-4.33984l-6.83984-1.60547m5.84375 1.3711l.3125 1.1875m11.84765 1.51952l-2.53906-6.55078m2.53906 6.55079l-1.60156 1.85937M344.625 349.5l-.80078.92969m13.51172.25l-.58985-7.0039m.58985 7.0039l-2.0625 1.32812m1.97656-2.34765l-1.03125.66406m13.71875.34375l.83984-6.97656m-.83984 6.97656l-2.28906.88281m2.41015-1.89844l-1.14453.44141m18.03516-1.64844l-6.55469-2.53515m6.55469 2.53515l.28906 2.4375m-1.24219-2.80469l.14453 1.21875m12.39844 1.03125l-3.10547-6.30078m2.65625 5.38672l-.71875.99219m9.91407-5.02734l6.03125 3.60156m10.16406-5.3125l.27344 7.01953m-.23438-6l1.0625-.61719m15.35156 1.28125l-6.0039 3.65235m6.0039-3.65235l2.10938 1.25m10.19922-2.3164l-3.98828 5.78515m3.98828-5.78515l2.4375.28125m11.4375.19921l-5.10938 4.82422m4.36719-4.12109l1.16016.39063"/><g clip-path="url(#U)"><path fill="none" stroke="#000" stroke-linecap="round" stroke-linejoin="round" stroke-miterlimit="10" stroke-width=".5" d="M147.47266 333.32031l-6.94532 1.08594"/></g><path fill="none" stroke="#000" stroke-linecap="round" stroke-linejoin="round" stroke-miterlimit="10" stroke-width=".5" d="M147.47266 333.32031l1.47265 1.96485m11.8125-2.12891l-6.88281 1.41406m6.88281-1.41406l1.5625 1.89063m11.60156.04687l-6.58203-2.46094m6.58203 2.46094l.32032 2.42969m12.61328-1.6914l-5.82031-3.9375m5.8203 3.9375l-.26171 2.4414m11.54297-1.00781l-1.7539-6.8047m1.7539 6.8047l-1.8086 1.65625m17.44532-3.60938l-6.39844-2.89844m6.39844 2.89844l.15625 2.44922m12.51953-1.49219l-5.11719-4.8125m5.11719 4.8125l-.64453 2.36719m14.02344-2.4375l-5.2461-4.67188m5.2461 4.67188l-.57813 2.38281m13.09375-1.71484l-3.64844-6.00781m3.64844 6.0078l-1.2539 2.10938m.72265-2.98437l-1.2539 2.10937m16.39452-2.6211l-6.23437-3.23437m6.23438 3.23438l.02734 2.45312m12.3125-1.28515l-4.28125-5.57031m4.28125 5.5703l-1.01953 2.23438m14.52734-2.39453l-4.66797-5.25m4.66797 5.25l-.85547 2.30078m13.54297-1.85547l-3.41406-6.14062m3.41406 6.14062l-1.33594 2.0586m.83985-2.95313l-.66797 1.03125m12.39844.28516l.74609-6.98438m-.7461 6.98438l-2.27734.91797m2.38672-1.9336l-1.14062.45704m11.79296-.98829l5.85157-3.89062m-5.85157 3.89062l-2.15625-1.16406m21.10157 1.46485l-5.40625-4.4922m5.40625 4.4922l-.5 2.40234m10.875-1.14453l.47265-7.00781m-.47265 7.0078l-2.23828 1.00391m2.30859-2.02343l-1.1211.5039m13.73829.41797l1.72656-6.8125m-1.72656 6.8125l-2.38282.58203m16.10938-.5039l.90625-6.96875m-.90625 6.96875l-2.30078.86328m2.42969-1.8789l-1.14844.43358m15.96094.41016l-2.34766-6.625m2.34766 6.625l-1.65625 1.8086m13.59375-8.62891l.40625 7.01562m-.34766-5.99609l1.05078-.63672m15.78516 4.09766l-6.7539-1.94531m5.77343 1.66015l.2539 1.20313m14.1797-1.95313l-7.02735.125m6.0039-.10547l.59375 1.07422m13.34766-2.65625l-6.23437 3.25m6.23437-3.25l2.02344 1.39063m-2.92969-.91797l2.01953 1.39062m11.92969-2.29687l-5.6914 4.11719"/><g clip-path="url(#V)"><path fill="none" stroke="#000" stroke-linecap="round" stroke-linejoin="round" stroke-miterlimit="10" stroke-width=".5" d="M466.40625 331.80469l2.20313 1.07812"/></g><g clip-path="url(#W)"><path fill="none" stroke="#000" stroke-linecap="round" stroke-linejoin="round" stroke-miterlimit="10" stroke-width=".5" d="M147.47266 321.07422l-6.94532-1.05469"/></g><path fill="none" stroke="#000" stroke-linecap="round" stroke-linejoin="round" stroke-miterlimit="10" stroke-width=".5" d="M147.47266 321.07422l.8125 2.3164m12.4375-3.69921l-6.81641 1.71093m6.8164-1.71093l1.64454 1.8203m11.73047-1.53905l-6.9336 1.15234m5.92188-.98438l.7461.97266m12.08983-3.47265l-3.95312 5.8125m3.3789-4.96485l1.21876.13281m14.07812 2.875l-6.76953-1.89453m5.78516 1.61719l.26172 1.19922m10.77734 1.64062l-.2461-7.02343m.20704 6.0039l-1.0625.61328m16.28906-.21484l-3.99219-5.78125m3.99219 5.78125l-1.125 2.17969m15.95312-4.88281l-7.01953-.3711m7.01953.3711l1.03516 2.22265m12.26172-2.02344l-6.98438-.77343m6.98438.77343l.90625 2.28125m12.1211-4.10546l-6.41016 2.8789m5.48047-2.46094l.96875.75391m11.2578 3.57422l-2.36718-6.61719m2.01953 5.65625l-.82422.90625m11.41407-.28906l3.77343-5.92578m-3.22265 5.0625l-1.22266-.09375m19.24219-3.0039l-6.73828 1.99218m13.64062.75781l6.08985-3.5039m-5.20313 2.99218l-1.03906-.65234m15.45312 2.76172l2.1211-6.69922m-2.1211 6.69922l-2.41406.4414m2.72266-1.41796l-1.20704.22265m15.5.91016l-.45312-7.01172m.38672 5.99219l-1.04297.64453M353.75 319.3203l6.58203 2.45703m6.61328-2.0703l6.82422 1.67968m-6.82422-1.67969l-.60156-2.3789m15.16797 5.99218l4.32031-5.54297m-4.32031 5.54297l-2.41797-.42187m3.04688-.38672l-1.20704-.21094m14.48047 1.39063l3.14453-6.28516m-3.14453 6.28516l-2.45312.0625m13.83594-2.9375l7.0078-.53516m-5.98827.45703l-.65625-1.03906m13.02343 1.59375l6.8672-1.48828m-5.8672 1.26953l-.79296-.9336m17.8125 3.6836l-2.54688-6.55078m2.17969 5.59765l-.80078.9297m16.02734-5.35548l-5.6289 4.20703m5.6289-4.20703l2.21875 1.04297m10.42188-1.72656l-4.28125 5.57031"/><g clip-path="url(#X)"><path fill="none" stroke="#000" stroke-linecap="round" stroke-linejoin="round" stroke-miterlimit="10" stroke-width=".5" d="M465.70313 317.76172l2.41796.40625"/></g><path fill="none" stroke="#000" stroke-linecap="round" stroke-linejoin="round" stroke-miterlimit="10" stroke-width=".5" d="M465.07813 318.57422l2.42187.40625"/><path fill="#00f" fill-rule="evenodd" d="M241.77344 476.52344h8.61719V466.3789h-8.6172v10.14453"/><path fill="azure" fill-rule="evenodd" d="M243.60547 468.21094h.83203v2.82422h3.28906v-2.82422h.83203v6.48047h-.83203v-2.91407h-3.28906v2.91407h-.83203v-6.48047"/><path fill="#ff3030" fill-rule="evenodd" d="M340.10938 467.64844h7.6953V457.5039h-7.6953v10.14453"/><path fill="azure" fill-rule="evenodd" d="M341.94531 459.33594h.83203v5.73828h3.19532v.74219h-4.02735v-6.48047"/><path fill="#00f" fill-rule="evenodd" d="M388.23828 436.57813h8.61719v-10.14454h-8.61719v10.14454"/><path fill="azure" fill-rule="evenodd" d="M390.07031 428.26563h.83594v2.82421h3.28516v-2.82421h.83203v6.48046h-.83203v-2.91406h-3.28516v2.91406h-.83594v-6.48046"/><path fill="#00f" fill-rule="evenodd" d="M228.45703 418.82813h8.6211v-10.14844h-8.6211v10.14844"/><path fill="azure" fill-rule="evenodd" d="M230.28906 410.51172h.83594v2.82422h3.28516v-2.82422h.83203v6.48047h-.83203v-2.91406H231.125v2.91406h-.83594v-6.48047"/><path fill="#00f" fill-rule="evenodd" d="M326.10156 414.38672h8.61719v-10.14453h-8.61719v10.14453"/><path fill="azure" fill-rule="evenodd" d="M327.9336 406.07422h.83593v2.82422h3.28516v-2.82422h.83203v6.48047h-.83203v-2.91406h-3.28516v2.91406h-.83594v-6.48047"/><path fill="#ff3030" fill-rule="evenodd" d="M446.63281 347.8125h7.6914v-10.14453h-7.6914v10.14453"/><path fill="azure" fill-rule="evenodd" d="M448.46484 339.5h.83204v5.73828h3.1953v.74219h-4.02734V339.5"/><path fill="#00f" fill-rule="evenodd" d="M370.48438 334.4961h8.62109v-10.14454h-8.6211v10.14453"/><path fill="azure" fill-rule="evenodd" d="M372.3164 326.1836h.83594v2.82421h3.28516v-2.82422h.83203v6.48047h-.83203V329.75h-3.28516v2.91406h-.83593v-6.48047"/><path fill="#ffffe0" fill-rule="evenodd" d="M266.29297 376.34375h22.17969v-10.1914h-22.1797v10.1914"/><path fill-rule="evenodd" d="M269.79297 367.98828h.50781v6.29297h-.78906v-4.48828H268.125v-.5586l.5586-.0625.2539-.05468.23047-.08985.20312-.14062.17188-.21094.14062-.29297.10938-.39453m4.8125 0l.23047.01563.21875.05859.20703.08984.19531.1172.1836.15233.17187.17579.30078.41796.2461.4922.17968.54687.10938.58203.03906.58984-.03906.59375-.10938.58203-.17969.5547-.24609.5039-.30078.42578-.17188.17969-.18359.15234-.19531.125-.20703.09375-.21875.05469-.23047.01953-.23047-.01953-.21875-.05469-.20703-.09375-.19531-.125-.1875-.15234-.16797-.1797-.30469-.42577-.24219-.5039-.17969-.5547-.11328-.58203-.03515-.59375h.83203l.02734.5625.08203.50781.12891.44141.16016.375.1914.30078.21094.21875.22266.14063.22656.04687.22656-.04687.22266-.14063.21094-.21875.1914-.30078.16016-.375.125-.4414.08203-.50782.03125-.5625-.03125-.5625-.08203-.5-.125-.4336-.16016-.36718-.1914-.29297-.21094-.21484-.22266-.1289-.22656-.04688-.22656.04687-.22266.1289-.21094.21485-.1914.29297-.16016.36719-.1289.4336-.08204.5-.02734.5625h-.83203l.03515-.58985.11329-.58203.17968-.54688.24219-.49219.30469-.41796.16797-.17579.1875-.15234.1953-.11719.20704-.08984.21875-.0586.23047-.01562m5.08984 0h.51172v6.29297h-.78906v-4.48828h-1.38672v-.5586l.5586-.0625.2539-.05468.22656-.08985.20313-.14062.17578-.21094.14062-.29297.10547-.39453m2.82422 2.17188h.78906l.01954-.3125.05859-.28907.09765-.25.14063-.21875.17969-.17187.22265-.1289.26563-.08204.3086-.02734.23827.02344.22266.0625.20703.10156.17969.13672.14844.17578.11328.20312.07031.23828.02344.26172-.01953.26953-.06641.22657-.10938.1914-.15625.17188-.19921.16015-.25.16797-.63282.38672-.53906.3125-.4375.3164-.34375.32813-.26562.33594-.1875.34766-.12891.37109-.0664.39453-.01954.41797h4.21094v-.74219h-3.33203l.08203-.28125.11328-.23828.14844-.20312.1875-.1797.23047-.17187.27734-.17578.71875-.41406.41406-.20703.34766-.23047.28125-.25.21875-.26953.16406-.27735.10938-.28125.0625-.28515.02344-.28125-.04297-.38281-.1211-.35157-.1875-.30468-.25-.26563-.30469-.21094-.34375-.16015-.3828-.09766-.40626-.03125-.4336.03125-.39843.09766-.35547.16797-.30469.23437-.24609.30469-.1875.3711-.11719.44921-.03906.51563"/><path fill="#ffffe0" fill-rule="evenodd" d="M350.6211 372.0039h22.17968v-10.1914H350.6211v10.1914"/><path fill-rule="evenodd" d="M354.1211 363.64453h.5078v6.29688h-.78515v-4.4922h-1.39063v-.55468l.5586-.0664.2539-.05079.23047-.08984.20313-.14453.17187-.20703.14454-.29688.10546-.39453m4.8125 0l.23047.01953.21875.05469.20703.08984.19532.1211.18359.14844.17188.17578.30468.42187.24219.49219.17969.54687.10937.57813.03906.59375-.03906.58984-.10937.58594-.17969.55469-.24219.5-.30469.42969-.17187.17968-.1836.15235-.1953.125-.20704.08984-.21875.0586-.23047.01952-.23046-.01953-.21875-.05859-.20704-.08984-.1953-.125-.1836-.15235-.17188-.17969-.30469-.42968-.24218-.5L357 368.0625l-.10938-.58594-.03906-.58984h.83203l.03125.5625.07813.5039.1289.44532.16016.3711.1914.30077.21094.22266.22266.13672.22656.04687.22657-.04687.22265-.13672.21094-.22266.1914-.30078.16016-.3711.1289-.4453.08204-.50391.02734-.5625-.02734-.5625-.08203-.5-.1289-.4375-.16016-.36328-.19141-.29297-.21094-.21485-.22265-.1328-.22657-.04298-.22656.04297-.22265.13281-.21094.21485-.1914.29297-.16017.36328-.1289.4375-.07813.5-.03125.5625h-.83203l.03906-.59375.10938-.57813.17969-.54687.24219-.49219.30468-.42187.17188-.17579.1836-.14843.1953-.1211.20704-.08984.21875-.05469.23046-.01953m5.08985 0h.51172v6.29688h-.78907v-4.4922h-1.38671v-.55468l.55859-.0664.2539-.05079.22657-.08984.20703-.14453.17187-.20703.14063-.29688.10547-.39453m2.82422 2.17578h.78906l.01953-.3164.0586-.28516.09765-.2539.14063-.21485.18359-.17578.22265-.1289.26563-.07813.30469-.02735.23828.01954.22656.0625.20313.10156.17968.14062.14844.17188.11328.20703.07031.23437.02735.26563-.02344.26953-.0664.22266-.10938.1914-.15625.17188-.19922.16406-.2461.16406-.63671.39063-.53516.3125-.4375.3164-.34765.32422-.26563.33594-.1875.35156-.125.3711-.07031.39062-.01953.42188h4.21094v-.7422h-3.33204l.08204-.28515.11328-.23437.14843-.20313.1875-.17969.23047-.17187.27735-.17578.71875-.41797.41406-.20313.34765-.23046.28125-.25391.21875-.26563.16407-.27734.10937-.28515.0664-.28516.01954-.28125-.04297-.38281-.1211-.34766-.1875-.3086-.25-.26171-.30468-.21485-.34375-.15625-.3789-.09765-.41016-.03516-.4336.03125-.39843.10156-.35547.16407-.30469.23437-.2461.30469-.1875.375-.11327.44531-.04297.51953"/></g></defs><use xlink:href="#Y"/></svg>