<svg xmlns="http://www.w3.org/2000/svg" role="img" xmlns:xlink="http://www.w3.org/1999/xlink" viewBox="142.45 309.95 326.84 171.84"><defs><clipPath id="a"><path d="M144 311.67188h1v168.65625h-1zm0 0"/></clipPath><clipPath id="b"><path d="M144 311.67188h324v168.65625H144zm0 0"/></clipPath><clipPath id="c"><path d="M467 311.67188h1v168.65625h-1zm0 0"/></clipPath><clipPath id="d"><path d="M144 479h4v1.32813h-4zm0 0"/></clipPath><clipPath id="e"><path d="M147 480h2v.32813h-2zm0 0"/></clipPath><clipPath id="f"><path d="M153 479h9v1.32813h-9zm0 0"/></clipPath><clipPath id="g"><path d="M160 480h2v.32813h-2zm0 0"/></clipPath><clipPath id="h"><path d="M166 479h9v1.32813h-9zm0 0"/></clipPath><clipPath id="i"><path d="M172 480h2v.32813h-2zm0 0"/></clipPath><clipPath id="j"><path d="M180 479h8v1.32813h-8zm0 0"/></clipPath><clipPath id="k"><path d="M186 480h2v.32813h-2zm0 0"/></clipPath><clipPath id="l"><path d="M193 479h8v1.32813h-8zm0 0"/></clipPath><clipPath id="m"><path d="M199 480h2v.32813h-2zm0 0"/></clipPath><clipPath id="n"><path d="M206 479h9v1.32813h-9zm0 0"/></clipPath><clipPath id="o"><path d="M212 480h2v.32813h-2zm0 0"/></clipPath><clipPath id="p"><path d="M220 478h8v2.32813h-8zm0 0"/></clipPath><clipPath id="q"><path d="M226 480h1v.32813h-1zm0 0"/></clipPath><clipPath id="r"><path d="M233 478h8v2.32813h-8zm0 0"/></clipPath><clipPath id="s"><path d="M247 477h7v3.32813h-7zm0 0"/></clipPath><clipPath id="t"><path d="M261 477h6v3.32813h-6zm0 0"/></clipPath><clipPath id="u"><path d="M274 477h6v3.32813h-6zm0 0"/></clipPath><clipPath id="v"><path d="M287 477h7v3.32813h-7zm0 0"/></clipPath><clipPath id="w"><path d="M301 477h6v3.32813h-6zm0 0"/></clipPath><clipPath id="x"><path d="M316 476h3v4.32813h-3zm0 0"/></clipPath><clipPath id="y"><path d="M329 476h3v4.32813h-3zm0 0"/></clipPath><clipPath id="z"><path d="M343 476h2v4.32813h-2zm0 0"/></clipPath><clipPath id="A"><path d="M356 476h2v4.32813h-2zm0 0"/></clipPath><clipPath id="B"><path d="M368 477h5v3.32813h-5zm0 0"/></clipPath><clipPath id="C"><path d="M381 477h5v3.32813h-5zm0 0"/></clipPath><clipPath id="D"><path d="M393 478h8v2.32813h-8zm0 0"/></clipPath><clipPath id="E"><path d="M407 478h7v2.32813h-7zm0 0"/></clipPath><clipPath id="F"><path d="M419 479h9v1.32813h-9zm0 0"/></clipPath><clipPath id="G"><path d="M425 479h3v1.32813h-3zm0 0"/></clipPath><clipPath id="H"><path d="M434 477h5v3.32813h-5zm0 0"/></clipPath><clipPath id="I"><path d="M448 477h5v3.32813h-5zm0 0"/></clipPath><clipPath id="J"><path d="M462 476h3v4.32813h-3zm0 0"/></clipPath><clipPath id="K"><path d="M144 466h4v2h-4zm0 0"/></clipPath><clipPath id="L"><path d="M144 453h4v2h-4zm0 0"/></clipPath><clipPath id="M"><path d="M144 440h4v1h-4zm0 0"/></clipPath><clipPath id="N"><path d="M144 425h4v4h-4zm0 0"/></clipPath><clipPath id="O"><path d="M144 411h4v5h-4zm0 0"/></clipPath><clipPath id="P"><path d="M144 398h4v5h-4zm0 0"/></clipPath><clipPath id="Q"><path d="M144 384h3v6h-3zm0 0"/></clipPath><clipPath id="R"><path d="M465 384h3v1h-3zm0 0"/></clipPath><clipPath id="S"><path d="M144 371h4v6h-4zm0 0"/></clipPath><clipPath id="T"><path d="M466 371h2v3h-2zm0 0"/></clipPath><clipPath id="U"><path d="M144 358h4v5h-4zm0 0"/></clipPath><clipPath id="V"><path d="M466 358h2v3h-2zm0 0"/></clipPath><clipPath id="W"><path d="M144 345h4v4h-4zm0 0"/></clipPath><clipPath id="X"><path d="M144 332h4v4h-4zm0 0"/></clipPath><clipPath id="Y"><path d="M144 317h3v7h-3zm0 0"/></clipPath><g id="Z" clip-path="url(#clip1)"><path fill="#fff" fill-opacity="0" fill-rule="evenodd" d="M0 0h1000v1000H0zm0 0"/><path fill="#d3d3d3" fill-opacity="0" fill-rule="evenodd" d="M162.15234 355.86719l-.23437.29297.0586.23437.11718.17188.17578.23437.29297.34766.11328.0586.11719-.17188.0586-.23438.17577-.17578.46485-.17578h.69922l.23437.29297.28906.8164.0586.17579.17578.23046.35156.23438.69922.69922.17188.17578.23437.34765.23438.41016.28906.58203.41015.46485.23047.23437.23438.17578.11719.23047.17578.29297.17187 1.16406v.23438l.0586.28906.05859.11719.11719.11719.34765.41015.11719.17188.17578.17578.17578.23437.11719.17188.17188.35156.05859.23438.23437.40625.23438-.0586-.17578.17578-.0586.92969h-.58203l-.23437-.11328-.34766.11328-.11719.11719-.05859.29297-.0586.17578-.11718.17187-.46484.29297-.0586.23438-.0586.11328v.64453l.0586.17187v.41016l.0586.0586v.40624l.05859.40625.11719.17579.05859.05859.23047.64062-.0586.29297v.69922l-.05859.58203v.23438l-.0586.23047-.05468.35156v1.92187l.05469.1172h.42578l-.36719.11718-.02344.35156.89063 1.16797 1.74219.53906 1.33984.35938v.53906l.08984.8086.53516.71484 1.51953.26953.89063-.08594.08984 1.16406.53516.1797 1.16015-.1797 2.05469-.98437 1.16016-.36328 1.8789-.17578 1.69531-.1797-.17968.71876-1.51563.08594-1.25.08984-.80469.26953-1.07421.8086.26953.71875.53515.89843-.17968.625-.26563.8086.26563 1.07812.625.89844.80468.17969 1.25-.1797-.26562.72267.09766.5039.05468.29297v.17188l.0586.29296v.40625l.17578.1172.35156.11718h.40625l.29297-.17578.11328-.11719.0586-.11719.11718-.23047.0586-.17578.35156-.46484.23047-.17578.17578-.0586.17578.0586.0586.17578.11718.98828.05469.46875.0586.17188.11718.23437.17578.0586.8164.05859h.28907l.11719.23437.05859.40625.0586.35156v1.10547l.11718.29297.11719.34766.28906.69922.17578.35156.58203.7539.35157.17579.17187.0586.46875.23437.64063.46484.34765.23438.29297.17578.29297.05468.23047.0625.8164.34766.29297.17578.11328.17188.35157.35156.11719.17578.52343.64063v.28906l.0586.35156v.34766l.05859.35156.0586.28906.11718.0586.17188.05859h.17578l.58203.23437.17578.1172.17578.28905.17578.23438.11328.23437.29297.23047.11719.11719v.41016l.0586.05468.28906.23438.23437.11719.0586.11718.11718.17188.0586.11719.23047.23437.05859.17578.23437.0586.1172.05859-.1172.11328-.05859.11719v.11719l-.11719.29296-.11719.28907v.58203l.17579.11719.11718.05859.0586.11719.11719.11719.11328.05859.17578.34765.0586.35157.05858.40625v.17578l-.05859.17578-.11719.69922v.17187l.1172.17579.29296.29296h.40625l.17578.1172.11719.17187.11719.29296v.23438h-.52735l-.23047-.23438h-.23437l-.17578.0586-.0586.69922.0586.34765.11719.17579.17578.41015.11718.23047.28907.46875.17578.05469h.52344l.23437.0586.75781.64062.0586.29296v.23438l.05859.0586.23047.34765v.35156l-.11719.17188v.29297l.29297.28906.29297.17578.17187.0586.29297.17577.29297.1172.58203.40624.28906.23438.29297.17578.21875.16015.01563.01172.23047.17579.64062.52343.17578.23438.1172.17578.17577.17578.11328.17188v.64062l.1172.17578.46874.11719.58203.11719.23438.05859.23047.11328.29297.11719.11328.0586.58593.35156.28907.17187.17578.0625.17578.05469.17578.0586.69922.35155.28906.17579.23438.05468.28906.17578.23437.1172.64063.40624.29297.11719.17187.0586.23438.05859.41015.05859.23047.0586.23438.11718.0586.17188-.41017.17578.46875.0586.0586.29296.11328.23438.17578.05468.23438.0586.17578.05859.40625.11719.64062.23437.11719.17188.0586.23437v.17578l-.0586.1172-.0586.40624.23438.23438.11719.05859.34766.11719.64062.23047.17578.11718.28906.1172.17578.17577.23438.46485.58203 1.10546.17578.17579.34766.17578.17578.11719.35156.11718 1.04688.52344.23437.0586.46485.11327.29297.0586.46484.17578.75781.58203.23438.23438.34765.46484.17578.17578.28907.23438.8164.69921.29297.17579.28906.28906.29297.17578.29297.28906.69531.64063.17578.17578.29297.23437.28907.23438.46875.28906.64062.58203.34766.23438.23437.29297.34766.34765.35156.46485.9336.99218.34765.40625.11719.17579.23437.05859.11328.11719.64454.17578.23047.11328.23437.0586.29297.17577.23047.1172.9336.69921.40624.40625.23438.17578.40625.17578.23437.11719.8164.34766.34766.23437.23438.11719.29297.28906.23047.11719.7578.35156.35157.17188.23047.05859.29297.11719.23437.0586.8711.17577h.8164l.46875.23047.17188.0586.875.69921.46484.1172.29297.05858.17578.0586.23047.0586.46875.05859.34766.05859.35156.0586.40625.05859h.29297l.17187.0586v.23046l.17578.17578h.29297l.34766.0586.35156.05859.69922.11719h.64063l.46484-.23438.29297-.17578.17187-.11719.41016-.17187.28906-.17578.9336-.46485.46875-.29297.52343-.29296.46485-.17188.46484-.17578 1.05078-.46485.28906-.11718.41016-.11719.28906-.11719.52735-.17578 1.51562-.69922.58203-.34765.28907-.0586.29297-.0586.34765-.11718.875-.23047.35156-.11719h.11329l.23437-.05859.875-.23437.23438-.0586h.8125l.35156-.0586.8164-.11718.17188-.0586.35156-.05468.29297-.0586.23047-.05859.8164-.17578.17579-.0586h.34765l.23438-.05859.46484-.11718.75781-.17188.23438-.0586h.34765l.41016-.11718.28906-.0586 1.28516-.05859h.28906l.41016-.0586.23047-.05858h.17578l.875-.1172h.40625l.41015-.11718h.34766l.35156-.11328.8711-.0586h1.75l1.04687.28907.41016.11719.28906.11718.35156.11719.28907.11719 1.05078.17187.28906.0586h.29297l.29297.05859.17187.0586.41016.05859.17187.0586.1172.05858h.11718l.11719.0586.35156.0586h.11328l.41016.0664 1.92187.39453 1.92578.39453 1.51953.44922 1.69532.71875 2.14453.80469 1.60547-.71875 1.42968-.80469 1.16016-1.07813 1.25-.44921 3.03516-.71875 1.875-.35938 2.14453-1.34765 2.23437-1.25391 2.5-1.25781 1.69531-.44922 1.78516-.17969 1.16016-.26953.625.53906 1.33984-.26953.71485-.98828.98437-1.34375.44531-.17969.80469-.35937 1.875-.53907 1.78516-.44921 1.25-.26954 1.16015-.08984 1.69922-.08984 1.96094-.26954 1.25-.08984h.53906l.625-.08984h.89063l2.14453-.17969 2.41015-.17969 2.58985-.08984 1.69531.17969 1.60938.08984 1.42968.35938 1.16016.71875 1.875.98828 1.16015 1.52734.26563.71484.6289.08985.35548.89844.53515.53906.53516 1.52734 1.07422.35938h.53515l-.80469.53515.08985 1.70703.71484 2.69532.89063.80468.89453.98829.71484 1.2578 1.78516.53907 1.51953-.17969.35547 1.34375 1.60937-.80469.98047-.53906.26953.26953.31641-.21484.21875-.14453.80078.44922.44922-.35938h.35547l.53515-.26953.53907-.71875.53515-.26953.625-.98828 1.16016.44922.83984.3711 1.39454.61718 1.6953-.17969h1.60548l1.78515.08985.17969-1.70704.53516-1.34375.80468.26954.4922.84765.40233.40625-.08984.53906v.35938l.71485.44922.71093-.26953h1.42969l.35938.98828.4453 1.25781.71485 1.34375 1.25.6289 1.69531.62891.71485-.17969.17969-.53906.98046-.08984.44922.35937.08594 1.25782-.26563.6289-.53515.17969v.53906l.71484.98438.26563.53906.98437.98828.80078 1.07813-.26562.35937-.08985.89844-.625 2.33203-.35546 2.0664-.08985 1.79298-.17969.71875-.08984.53906v1.4375l-.98047 1.88281-.35937 1.70703-.53516.89844-.80469 1.16797-.26562.53906 2.05469 1.2539.08593.35938-.35546.53906-.08985-.17968v.80859l.08985 1.4375-.44532.71484-1.07422.09375-.26562.71485.53515.89844.8047.71875 1.16015.80859 1.33984.26953.44531.35938-.35546.44921-1.78907-.08984-1.25-.44922-.71484-.71875-.625-.08984-.17578 3.58984-.1875 1.3086h89.35937V311.70313h-55.26953v49.08203l.76172.125 3.28906.54296 2.02344 2.83594v2.7539l2.35156.33204 2.34766.33203h4.05078l-1.3789 4.16016-2.02344.70703-2.02344.70312-.54297.34375-2.59375 1.6172-.1875.11718-2.02344-2.07813-.73046-2.74218-2.67188-2.07813-1.375-3.5-.0664-.08203-1.95704-2.67188 2.75-1.41796v-49.08204H294.42187v91.41407l.1172.03125.1328.01172.07422.07421.10547.04688.08985.0586.08593.05859.08985.0586.29687.29687.0586.08984.03125.11719.02734.11719.01563.13671-.03125.1172-.0586.08983-.0586.08594-.04296.10547-.04688.10156-.02734.1211v.14453l.17578.26953.14844.14844.07422.08594.07422.07421.04296.10547.0625.08985.0586.08593.04297.10547.0586.08985.04687.10156.04296.10547.0586.08594.11719.17968.07421.07422.0625.08594.0586.08984.04297.10547.0586.08985.05858.08593.0625.08985.0586.08984.04297.10156.11719.17969.07421.07422.0586.08594.07422.07421.08984.0586.10547.04687h.14844l.1328-.01562.13282.01562.10156-.04687.07422-.07422.04688-.10156-.01563-.13281v-.14844l-.04687-.10547-.02735-.11719-.04687-.10156-.02735-.1211-.04296-.10156-.0625-.08984-.04297-.10156-.04297-.10547-.03125-.11719-.01563-.13281-.01171-.13672.08593-.0586.0586-.08593.12109-.03125.04297.10547.01562.1328v.1172l.0586.10156.0586.08984.08983.0586.14844.14843.0586.08985.04296.10547-.01171.10156.08593.0586.10547.04687.08594.0586.08984.05858.07422.07422-.11719.02735-.10546.04687-.08594.0586-.07422.07421-.0586.08985-.0625.08594-.02734.12109-.04687.10156-.04297.10547-.03125.11719-.01172.13281-.01563.13281v.14844l.02735.11719.04687.10547.04297.10156.0586.08984.07421.07422.08985.0586.07422.07421.08984.0586.0586.08984.04296.10547.04688.10156.11719.03125.1328.01563h.14845l.11718-.03125.10547.04297.04297.10547.04688.10156.02734.1211L299.5 410l.02734.11719.03125.1211.02735.11718.10547.04297.10156.04687.13281-.01562.14844.14844.0625.08593.07422.07422.07031.07422.08984.0625.10547.04297.10156.04297.1172.03125.13671.01562.11719-.03125.07422-.07422.02734-.11718-.01172-.13282-.03125-.12109-.02734-.11719.04297-.10547h.11719l.08984.0625.11719.02735h.14843l.13282.01562h.14843l.13282.01563.1328-.01563h.14845l.1328-.01562.13282-.01172.13672.01172.11719-.02735.13281-.01562.1914-.0586-.05859.17579-.01562.1328-.02735.1211-.01562.13281-.0586.08594-.1328.01563-.10548.04687-.10546.04297-.1172.03125-.11718.02735-.26563.03125h-.14843l-.13281.01562-.07422.07422.05859.08594.14844.14843.11719.1797.07421.0703.08985.0625.08984.0586.08594.0586.08984.05858.10156.04297.10547.0625.10547.04297.08594.0586.10547.04687.10156.04297.17969.11719.0586.08984-.04298.10156-.04687.10547.01562.13281.22266.22266.0586.08985.04296.10156.03125.1211.04297.10155.01563.13282.03125.11718.01171.13672.03125.11719.14844.14844.10156.04297.10547.04296.1172.03125.1328.01563.13672.01563h.11719l.11719-.03125.08984-.0586.04297-.10547.04688-.10156.04296-.10547.03125-.11719.01172-.1328v-.14845l-.01172-.1328-.01562-.13282-.03125-.11719-.04297-.10547-.04688-.10547-.04296-.10156-.04297-.10547-.01563-.13281.01563-.13281.02734-.11719.03125-.11719.02735-.1211.04687-.10155.08984-.0586.08594-.0625.07422-.07422.08984-.05859.22266-.22266.0586-.08593.07421-.07422.11719-.17969.0586-.08594v-.14844l-.07423-.07421-.10156-.04688-.10547-.04297-.10156-.04297-.0586-.08984-.04687-.10547-.02734-.11719.08984-.05859.11719-.03125.10156-.04297.17969-.11719.14844-.14843.01172-.13282-.01172-.10546-.08985-.0586-.1328.01563h-.14845l-.1328.01562-.13282-.01562-.1211-.03125-.08593-.0586-.07422-.07422-.0586-.08984-.0625-.08594-.11718-.17969-.0586-.08593.03125-.1211.08594-.05859.1211-.03125.05859-.08594v-.1211l-.03125-.11718-.0586-.08984-.05859-.08594-.04687-.10547-.02735-.11719-.01562-.1328.0586-.08985.07421-.07422.08984-.0586.1172-.17968.07421-.07422.0586-.08594.14843-.14844.1211-.03125.1328-.01562.13282.01562.07422.07422.04297.10547.01562.13281-.03125.1172-.11719.03124-.1328.01172-.14844.14844-.04297.10547-.04688.10156-.02734.1211-.03125.11718v.14844l.03125.11719.04297.10546.05859.08985.07422.07031.07422.07422.11719.03125.12109.02734.11719-.02734.1328-.01563h.1172l.08984.0586.07422.07422.04687.10546.0586.08594.10156.04688.13281.01562.10547.04297.08594.0586-.01172.10546-.07422.07422-.17969.11719-.05859.08984-.08984.0586-.07032.07422-.07421.07421-.0625.08985-.02735.11719-.01562.1328.01562.13282-.01562.13281v.14844l.01562.13281.02735.1172.03125.12108.07421.07422.08985.0586.08594.0586.08984.05858.11719.03125v.08594l-.10157.04688-.08984.0586-.26563.03124-.11718.02735h-.14844l-.10547.04296-.10156.04688-.0586.08984-.0625.23438-.01171.13281-.03125.1211-.01563.1328v.29298l-.01172.1328.01172.13673.01563.1328.1328.01563.13282.01172.1211.03125.08593.0586.07422.07421.04688.10547.04296.10157.01563.1328v.44532l-.01563.13281v.44532l.03125.26562.02735.11719.01562.13281.03125.11719.08594.21094.03125.26562v.14844l-.03125.11719-.02734.11718-.03125.1211-.02735.11719-.03125.11718-.03125.1211-.01171.1328-.01563.13282.08984.0586.1172-.03125.10155.01562.04688.10547-.03125.26562v.44141l-.04297.10547-.04688.10547-.04296.10156-.04297.10547-.0586.08594-.03125.12109-.04296.11719-.03125.11719-.01563.1328.01563.13282.05859.08984.10547.04688.08594.0586.05859.08593-.01172.13672-.03125.11719-.04297.10156v.44531l-.01562.13281v.14844l-.03125.11719-.04297.10547-.02735.11719-.04687.10546-.04297.10157-.03125.12109-.02734.11719-.03125.13281-.03125.11719-.02735.11719-.04297.10546-.03125.1172-.03125.12108-.01171.13282-.01563.13281v.29688l.02734.11718v.14844l.04688.39844.02734.11719.0586.08984.12109.03125h.14844l.13281-.01563.0586.08985v.11719l-.0586.08984-.08984.0586-.10157.04296-.10546.04688-.08985.05859-.08594.0586-.13671.01562-.1172-.03125-.1328-.01563-.10157.04688-.0625.08594-.01172.13671-.01562.13282-.03125.11719-.02735.11718-.01562.13281-.03125.1211v.29687l.01563.13282.03125.11718v.14844l.01171.13281v.14844l-.02734.11719-.04688.10156-.02734.1211-.03125.11718-.0586.08985-.07421.07421-.10156.04297-.10547.04688-.11719.02734-.1211.03125-.10156-.04687.0586-.08594.10547-.04688.02734-.11718.03125-.11719.02734-.1211.03125-.11718v-.14844l.01563-.13281-.03125-.11719-.04297-.10547-.10547.01563-.07422.07422-.10156.04296-.08984.0625-.07422.07422-.04297.10157-.01563.1328-.03125.1172L304.25 426l-.03125.11719-.02734.11719-.03125.12109-.02735.11719-.03125.11718-.04297.10547-.08984.0586h-.08984l-.1172-.03125-.03124-.08594.01562-.13672-.03125-.11719v-.14844l-.01171-.1328v-.14844l-.0625-.23438-.02735-.1211-.04297-.10156-.04687-.10546-.0586-.08594-.05859-.08985-.04297-.10546-.0625-.08594-.14844-.14844-.0703-.07422-.10548-.04687-.10547-.04297-.10156-.04297-.29687-.29688-.08985-.07421-.08594-.0586-.10546-.04297-.08985-.0625-.08594-.0586-.10546-.04296-.08985-.0586-.08594-.0625-.07421-.0703-.10547-.04688-.08594-.0586-.10547-.04296-.08984-.0625-.10156-.04297-.10547-.04297-.08594-.0586-.10547-.04687-.10547-.04297-.10156-.04687-.08985-.0586-.10156-.04297-.10547-.04296-.08984-.0625-.11719-.02735-.13281-.01562-.13281.01562H299.75l-.13281.01563-.11719-.03125-.08984-.0586-.07422-.07422-.08985-.05859-.10156-.04688h-.14844l-.12109-.02734-.10156-.04297-.07422-.07422-.11719-.17968-.08984-.0586-.10156-.04297-.08985-.0625-.10547-.04296-.08984-.0586-.08594-.0586-.10547-.04687-.0586-.08594-.05858-.08984-.04297-.10547-.04688-.10156-.07422-.07422-.08594-.0586-.07421-.07421-.08985-.0586-.22265-.22265-.04297-.10547-.03125-.26563.10547-.04296h.14453l.10547.04296.07421.07422.08985.0586.08594.0586.10546.04687.08985.05859.14844.14844.0703.07422.14845.14843.0625.08594.07421.07422.08594.0586.07422.07421.08985.0625.08984.0586.08594.05859.26953.17578.10156.04688.10547.04296.10156.04297.04688-.07421.05859-.08594.07422-.07422.07031-.07422.10547.04297.07422.07422.0586.08984.04296.10156.04688.10547.04296.10547.1211.02735.11719-.02735.07421-.08984.04297-.10547.0586-.08985.07422-.07421.10546-.04297.1172-.02735.1328.01172.08985.0586.14844.14843.05859.08985.04297.10547.04687.10156.04297.10547.04297.10156.10547.04688.10547.04296.13281.01563.08594-.0586.0586-.08984.07421-.07422.10547-.04297.11719.02735.10547.04687.10156.04297.10547.04297.10156.04688.17969.11718v.11719l-.01563.13281.01563.13281.01562.13672.0586.08594.10156.04688.1211.02734.11718.03125h.14844l.11719-.03125.05859-.08984.17969-.1172.05859-.08983.07422-.07422.0586-.08594.11718-.17969.17969-.11719.11719.03125.08984.0586.04297.07422-.01563.1328v.1172l.08985.05859h.14843l.13282-.01563.1328-.01171.26563-.03125.10547-.04297.11719-.03125.1211-.02735.07421-.07421.07031-.07422.0625-.08985-.01562-.10547-.04688-.10156-.10156-.04297-.10547-.01562-.11718.02734-.26563.03125h-.14844l-.07421-.07422-.08985-.0586-.11719-.03124-.11718-.02735-.13282-.01562h-.14843l-.13282.01563h-.29687l-.10547-.04688-.14844-.14844-.04297-.10156-.05859-.08984.22266-.22266.08593-.0586.10547-.04296.11719-.03125.13281-.01563.13281.01563.13672.01562.10157.04297.1328-.01172.08985-.0625.10156-.04297.0625-.08984-.04687-.10156-.08984-.0586-.1172-.03125-.10155-.04296-.0586-.08985-.0625-.08984v-.11719l.01563-.13281.10547-.04688.07421-.07031v-.1211l-.08984-.05859-.03125-.11719.08985-.05859.07421-.07422.04297-.10547.0586-.08984.04687-.10156.01563-.13281v-.14844l-.04688-.10547-.04297-.10156-.08984-.0586-.13281-.01562-.10157-.04297-.13671-.01563-.1172-.03125h-.4453l-.13282-.01562-.13281-.01172-.13281-.01563-.11719-.03125h-.14844l-.13281-.01562-.13281-.01172-.26563-.03125-.1211-.04297-.08593-.0586-.07422-.07421v-.14844l.01172-.13281.10547-.04688.10156-.04296.13281-.01563h.15235l.13281-.01562h.29297l.1211.03125.10156.04296.08984.0586.23438.0625.12109-.04688.08984-.05859.10156-.04297.13282-.01562.10547.04296.10156.04688.13281.01172.1211-.02735h.14453l.12109-.03125.11719-.02734.10547-.04687.07421-.07422.08594-.0586.14844-.14843.0586-.08594.04687-.10547.02734-.11719.01563-.10547-.10156-.04296-.08985-.0586-.11719-.03125-.10546-.04297-.08985-.0625-.07422-.08594-.07422-.07421-.10156-.04297-.10547-.04688-.10156-.04297-.0586-.08984-.04687-.10156-.08594-.21094-.0625-.08594-.05859-.08984-.07422-.07422-.08594-.0586h-.26953l-.11719.03126-.08984.05859-.10156.04297-.13281.01562-.10547-.01562-.02735-.11719-.0625-.08984-.11718-.03125-.10157-.04297-.14843-.14844-.03125-.11719-.01563-.10546.07422-.07422.17969-.1172.11719-.02733.11718-.03125.13672.01562.10156.04297.10547.04297.10156.04687.10547.04297.1172.03125.1328.01563.1172.02734.1328.01563.10547-.01563.08985-.0586-.07422-.07421-.10547-.04297-.07422-.07422-.07422-.08984-.14844-.14844-.08593-.0586-.08985-.05859-.07422-.07422-.08984-.0586-.10156-.04687-.1211-.02734-.10156-.04688-.10547-.04296-.11719-.03125-.10156-.04297-.1211-.03125h-.14843l-.11719.03125-.10546.04297-.08594.0625-.17969.11718-.08594.0586-.08984.0586-.10547.04687-.08594.05859-.10547.04297-.10156.04297-.10547.04687-.07422.07422-.05859.08985-.0586.08593-.04687.10547-.0586.08594-.07421.07422-.13281-.01172-.1172-.03125h-.11718l-.07422.07422-.08984.0586-.07422.07421-.08984.0586-.08594.05859-.10547.04687-.10156.04297-.13672.01563-.10156-.04297-.14844-.14844-.10547-.04688h-.08594l-.10547.04688-.10156.04297-.1211.03125-.11718-.03125-.07422-.07422v-.11719l.03125-.1211.07422-.0703.0586-.08985.07421-.07422.11719-.03125.10547-.04296h.29297l.13281-.01563.13672-.01563.10156-.04296.08985-.0586.10156-.04687.08984-.0586.13281-.01171.08985.05859.13281.01172.08984-.0586.08594-.05859.10547-.04297.08984-.0586.08594-.0625.08985-.05859.14843-.14843.0586-.08594.05859-.08985.10547-.04296.13281-.01563.11719.02735.1211.03125.05859-.0586.05859-.08984.03125-.26563.02734-.11719.10547.01172.13281.01563.10157-.04297.08984-.0586.0586-.08984.07421-.07422.0586-.08984.04687-.10156.01172-.13281-.01172-.13282-.04687-.10547-.14844-.14843-.0586-.08985-.05859-.08594-.04297-.10546v-.44532l.01563-.1328v-.14845l.01172-.1328-.0586-.0586-.08984.0586-.10156-.04298-.17969-.11719-.08594-.05859-.0625-.08984-.0586-.08985-.07421-.07421-.08594-.0586-.1211.03125-.10155.01172-.10547.04688-.08594.05859-.10547.04297-.14844.14844-.08984.05859-.08594.0586-.08984.0625-.10547.04296-.13281.01563v-.1211l.10547-.04297.11718-.03125.07422-.0703.04297-.10548v-.14844l-.02734-.11718-.14844-.14844-.13281-.01563h-.14844l-.11719.03125-.10547.04297-.10156.04297-.08984.0625-.11719.02735-.07422-.07422.01172-.13281-.04297-.10157-.04297-.10547-.08984-.05859-.11719.02734-.1211.03125-.11718.03125-.10156.04297-.1211.03125-.10156.04297-.10547.04297-.08984.0586-.10156.01562v-.11719l.01562-.13281-.0586-.08985-.07421.04297-.14844.14844-.0586.08985-.07421.07421-.04688.10547-.04296.10156-.07422.07422-.0586.08985-.07422.07422-.05859.08593-.07422.07422-.08984.0625-.07422.07031-.07422.07422-.10156.01563-.13281.01562-.10547-.04296v-.1211l.14843-.14844.04297-.10156.0586-.08984.04687-.10156.04297-.10547.0586-.08985.03124-.11719.04297-.10156.03125-.1211.02735-.11718.04687-.10547.04297-.10156.04297-.10547.07422-.07031.08984-.0625.08985-.0586.10156-.04296h.29687l.26563-.03125.10547-.04297-.07422-.07422-.11719-.03125-.10547-.04297-.08984-.0586-.10156-.04687-.08985-.0586-.10156-.04296-.10547-.04297-.08984-.0625-.08594-.0586-.10547-.04296-.10156-.04297-.1211-.03125-.11718-.03125-.10157-.04297L297.5 410.25l-.10156-.04297-.08985-.0586-.04296-.10546-.01563-.13281.10156-.04297.13281-.01563.13672.01563.13282-.01563.10156-.04297.0586-.08984.01562-.10547-.08985-.0586-.07421-.07421-.10157-.04297-.08984-.0586-.14844-.14843-.04297-.10547-.01562-.13281v-.29297l-.0586-.08985-.08984-.05859-.07422-.07422-.04297-.10547-.03125-.11718-.0586-.08985-.07421-.07422-.11719-.02734-.07422-.07422-.08984-.0586-.08984-.0625-.08594-.05859-.07422-.07421-.0586-.08594-.04687-.10547-.08594-.0586-.14843-.14843-.19532-.0586-.1328.01563-.10157.04297-.07422.07422-.04688.10156-.04296.10547-.0586.08984-.0586.08594-.29687.29687-.08984.0586h-.08594l-.0625-.08594-.04297-.10547.03125-.11719.0586-.08984.02734-.11719-.01172-.13281-.08984-.0625-.10547.04688-.11719.02734-.11719.03125-.26953.17578-.10156.04688-.11719.02734-.10546.04687-.08985.0586-.10156.04297-.0586-.08594-.04687-.10547.01563-.13281.04687-.10547.07031-.07422.07422-.07031.0586-.08985v-.14843l-.04297-.10547h-.23829l-.10156.04687-.03125.11719-.02734.11719-.03125.1211-.07422.04296-.13281.01563-.07422-.04688-.04297-.10156-.04297-.10547-.04687-.10156-.04297-.10547-.1211.03125-.10156.04297-.13281.01562-.11719.03125-.10547.04297-.08984.0586-.10156.04687-.1211.02734-.13281.01563-.10156-.04297-.0586-.08985-.04687-.10546-.04297-.10157-.04297-.10546v-.1172l.0586-.08984.08593-.05859.17969-.11719.10156-.04687.10547-.04297.10547-.0586.10156-.04296.08985-.0625.10156-.04297.10547-.0586.10156-.04687.08984-.0586.10547-.04296.10156-.04297.08985-.0625.10156-.04297.13672-.01563.11719.03125.10156.04297.1211.03125.10156.04297.10546.04688.10157.04296.10547.04297.10156.04688.10547.04297.10156.04297.10547.04687.08594.0586.10546.04296.1172.03125.10546.04297.10156.04688.08985.0586.10547.04296.10156.04297.10547.04687.11719.02735.10156.04687.1211.02735h.14843l.08594-.0586.01562-.10156.0586-.08984-.02735-.1172-.07422-.07421-.11719-.17969-.07421-.07422-.08985-.07421-.17969-.1172-.08593-.05859-.10547-.04296-.10156-.04688-.26954-.17578-.05859-.08985-.07422-.07421-.0586-.08985-.04296-.10156-.03125-.11719-.01563-.13672v-.5625l-.01171-.1328-.01563-.13282-.03125-.11719-.01562-.13281-.01172-.13281-.03125-.1211-.22266-.22265-.0586-.08594-.01562-.10547.03125-.11719.13281-.01562v-91.41406H172.9922v1.45312l-.0586.23438-.35156 1.05078-.17187.52343-.1172.34766-.17577.41016-.11719.17187-.23438.29297-.23046.0586h-.35157l-.11718.05859-.23047.40625v.29297l.11719.17578.23046.23047.1172.23437.64062.75781.29297.46485.17578.23437.23047.35156.23437.34766.64063.8164.17578.46485.17187.41016.11719.69531.17578.46875.11719 1.39844.0586.46484v.875l.11718 1.04688v4.78125l-.0586.46484-.35156 1.28125-.17578.52344-.11328.41015-.35156.9297L172.93359 336l-.23437.58203-.11719.17578-.17187.34766-.17578.40625-.35157.8164-.0586.29297-.11327.29297-.11719.28906-.0586.17579-.11718.875-.0586.40625-.05859.11718-.0586.17579-.05859.17187-.23047.52734-.11718.17188v.23437l-.11719.23438-.0586.17187-.17577.58594v.28906l-.0586.17579v.29296l-.0586.11329-.05859.52734v.17187l-.05468.23438v2.6211l-.17578.8164-.1172.17578-.17577.23438-.1172.17187-.11327.23438-.58594.93359-.23047.28906-.29297.46485-.17578.23437-.28906.35156-.35156.69922-.11328.23047-.17579.41016-.17578.23046-.40625.52735-.8164.69922-.29297.17187-.28906.23438-.17579.11719-.17578.17578-.52344.40625-.52734.17578-.17187.17578-.23438.05469-.64062.17578h-.75782m12.21094 31.02344l-1.07422.44921.35938.89454 1.25-.71485.44531-.53906-.98047-.08985"/><path fill="#d3d3d3" fill-opacity="0" fill-rule="evenodd" d="M201.50781 416.59766h-.89453l.44922.6289.98047.35938.80469-.08985.4453-.98828-.17577.08985-.71485-.35547-.89453.35547m154.6211 59.0703l-.0586-.52343v-.29297l.11328-.29297.0586-.23046.46875-.46875h.11328l.11719-.11329.11718-.05859h.17579l.23437-.0586h.34766l.23437.0586.11719.0586.23047.17187.0586.17578.11718.58203v.29297l-.11719.17578-.17187.28906-.17579.17579-.52734.52343-.23047.23438-.11719.0586h-.17578l-.11718-.0586-.40625-.29297-.17579-.11719-.11718-.0586-.0586-.11327-.05468-.1172m6.64062-10.95702l-.0586-.17188v-1.10937l.0586-.17188.17578-.0586.17188-.05858h.17578l.23437-.0586.1172.0586.05858.69921-.05859.17188-.11719.17578-.11718.0586-.23438.52343-.11328.0586h-.23438l-.05859-.1172m9.61328-14.39062l-.11719-.17578v-.69922l.29297-.875.1172-.17187.17577-.35156.11328-.23047.1172-.29297.35155-.75781.1172-.23047.17187-.23438h.17578l.11719-.0586h.64062l.11719.0586.23437.23438.17188.11328.35156.29297.11719.11718.11328.17579v.11328l.11719.05859.11718.11719v.69922l-.05859.17578v.23047l-.0586.17578-.34765 1.05078-.11719.23047-.11719.23437-.11718.0586-.23047.23437-.64063.28906h-.875l-.41015-.11718-.64063-.46485"/><path fill="none" stroke="#bebebe" stroke-linecap="round" stroke-linejoin="round" stroke-miterlimit="10" stroke-width=".5" d="M467.95703 311.69531H144.02734v168.625h323.9297v-168.625"/><g clip-path="url(#a)"><path fill="#fff" fill-opacity="0" fill-rule="evenodd" d="M144 475.89063v4.4375h.0039H144V311.67188h.0039H144v164.21875"/></g><g clip-path="url(#b)"><path fill="#fff" fill-opacity="0" fill-rule="evenodd" d="M144.0039 480.32813V311.67188h44.37891v122.8203l-4.4375 1.1797-.27734.27343-1.04688 4.4375 1.32422 3.05078 4.4375-1.3164 1.85547-1.73438 1.01563-4.4375-2.8711-1.45312V311.67188h22.1914v2.86328l-2.30858 1.57421 2.30859 1.98047 1.88672-1.98046-1.88672-1.57422v-2.86329h8.8789v101.16797l-.84375.91407-2.67578 4.4375 3.51953 3.10546.62891 1.33204 1.53516 4.4414-2.16406 2.26953-2.2461 2.16797 2.1289 4.4375.1172.21094v6.5039l-4.4375 1.62891-.48829.53125.48828 2.67578.4336 1.76563 4.0039 2.07031 1.9961-2.07031 1.23437-4.4414-3.23047-2.16016v-6.50391l4.4375 1.32031V455.5l-3.63671 2.63672-.80078 1.67187-2.42188-1.67187-2.01563-.99219-4.4414.96875-.00781.02344-1.16797 4.4375 1.17578 1.00781 4.4414.05469 4.4375.15625 4.4375.61719 1.9922-1.83594.55468-4.4375-2.54688-2.63672v-18.02344l1.59375-1.53125 2.84375-.58203 4.4375-1.0586 3.04688-2.79687-3.04688-3.96094-.08984-.47656-4.34766-4.23437-.35546-.20703-.82813-4.4375-3.2539-4.08594-2.26172-.35156-2.17578-.91407V311.67188h22.1914v108.16406l-2.85156 2.79297 2.85156 4.41406.04297.02734 4.39453 2.21875 4.4375-1.86328.44531-.35547-.4453-.34765-4.4375-3.77735-.19142-.3164-4.24609-2.79297V311.67188h84.32813v95.94921l-1.94141 1.69532-2.4961 1.08593-4.4375 1.28907-2.15234 2.0625-2.28906.83203-4.4375 3.21094-.5586.39453-3.8789.29687-3.51953-.29687-.91797-.66797-4.4414-1.625-2.63673 2.29297-1.80078.98437-2.6328-.98437-1.8047-1.3672-1.64453 1.3672-2.79297 1.71875-4.4375.65234-1.51171-2.3711-1.89454-4.4375-1.03515-1.6289-4.4375-2.51563-4.4375 3.5625-.5586.58204-3.48046 4.4375.24609 4.4375-.23828 4.4414-.40625 1.3789-2.88281 3.0586-1.5586 4.1836-.23828.2539.23828.83203.19922 3.60547-.19922 1.60156-4.4375 1.62891-2.9961 1.20703-1.4414 3.39844-.23437 1.04297.23437.4961 4.16406 3.9414.27344.1289.24219-.1289 4.19531-2.20703 4.03125-2.23047.41016-.17188 4.4375-2.47265 2.82031-1.79688 1.61719-1.65625 4.4375-2.48828.39844-.29297 4.04296-.27344 1.2461.27344 3.1914 1.66406 4.4375-.28906 4.4375 1.30078 2.83204-2.67578-2.83204-3.07422-1.36328-1.36328 1.08985-4.4375.27343-.5664 4.4375.10937 4.44141-.11328v2.33203l-2.3711 2.67578 2.3711 2.33203v19.57813l-.38672.28125.05469 4.4375.33203.07812.09766-.07812.6875-4.4375-.78516-.28125v-19.57813l2.33203-2.33203-2.33203-2.67578v-2.33203l4.4375.1211 4.4375-.3086 4.4375-.1875 3.375-3.49219-.53125-4.4414.72656-4.4375.8711-2.35157 4.4375 1.07422 4.4375 1.15235 4.4375-.44922 2.83593.57422 1.60157 1.08984 4.4414 2.40625 2.3164.9414 2.1211.8711.9414-.8711 2.1172-4.4375-.71875-4.4375-2.33985-2.65234-2.28515 2.65235-2.15235 1.71875-4.4414 1.8203-1.10157-3.53905-3.33593-4.22266-.76172-.21484-3.67578-1.69532v-95.94921h22.1914v118.49218l-1.42578 1.34375 1.42578 1.94531 1.33985-1.9453-1.33985-1.34376V311.67187h22.1914v94.81641l-4.27343 2.82813-.16406.03515-4.4375 2.46875-1.9336 1.9336-1.89843 4.4375.05078 4.4375.52344 4.4414 3.2578 3.29688.22657 1.14062.1914 4.4375-.41796 4.21485-4.4375-.84766-4.4414.98828-4.4375-2.92187-3.07032 3.0039-1.36719 1.01563-2.03125-1.01563-2.40625-1.74219-4.4414.76172-1.1836.98047-3.2539 2.80078-4.4375 1.3047-.34766.33202.34766.89453 3.72656 3.54688-3.72656 1.8125-3.16016 2.625-1.27734 1.08594-.75782-1.08594-3.67968-2.23438-4.44141-.53906-2.48438 2.77344-.63671 4.4375 3.12109 2.20312 4.4414.16797 4.4375-.74219 4.4375-.30468 4.4375 1.32812 4.4375-1.4375 1.1875-1.21484 3.25391-3.47266 4.4375-.44922.82422-.51562 3.61328-1.10938 4.4375-.66796 4.4414.80468.05079.97266.0039 4.4375-.05468.07812-4.4414.80079-1.23829 3.55859 1.23828 1.22265 4.4414 1.41407 4.4375.86719.32423.9375.51172 4.4375 1.0039 4.4375 2.59766 2.60546 4.23828-2.60546.19922-.77735.77734.77735 3.66016 1.03515 1.42969-1.03515 3.01171-1.3672 4.4375.91016 4.4375-.17968 3.6172-3.80079-2.48048-4.4375.85547-4.4414 2.44531-1.1875.53907 1.1875 1.5039 4.4414 2.39454 2.29688 4.4414.80469 3.11328-3.10156 1.32422-.27344 4.4375-.39844 3.8125-3.76953.625-2.9414 1.60156-1.4961-1.11328-4.4375 3.95313-2.36328 1.80078-2.07422 1.84375-4.4414-.94531-4.4375-2.69922-3.80079-.67969-.63672-3.76172-2.625-4.4375.85938-2.08203 1.76562-2.35547.48047-4.4375 1.4961-3.17969 2.46093-1.26171.53906-4.40235-.53906-.03515-.01562-4.4375-3.45313-3.15235-.96875 3.15235-.59765 4.4375-2.22266 4.4375-1.3164.30468-.30079-.30469-.53125-.89062-3.90625-3.54688-3.22265-4.4375-1.12891-4.4375.94531-4.4375 2.54688-1 .85937-3.4414.76953-.3125-.76953-4.125-4.33984-.13672-.10156-.53125-4.4375.66797-.61329 3.85156-3.82421.51172-4.4375-4.36328-2.82813v-94.8164h53.26172v147.30859l-.78125 3.59375.78125.59765.89062-.59765-.89062-3.59375v-147.3086h44.3789v168.65625H144.00391"/></g><path fill="#50fcfc" fill-rule="evenodd" d="M183.94531 443.4336l-1.32422-3.05079 1.04688-4.4375.27734-.27344 4.4375-1.17968 2.8711 1.45312-1.01563 4.4375-1.85547 1.73438-4.4375 1.3164m26.6289-125.34375l-2.30858-1.98046 2.30859-1.57422 1.88672 1.57421-1.88672 1.98047m0 145.4922l-1.17578-1.00782 1.16797-4.4375.0078-.02344 4.44142-.96875 2.01562.99219 2.42188 1.67187.80078-1.67187 3.63672-2.63672 2.54687 2.63672-.55469 4.4375-1.99219 1.83594-4.4375-.6172-4.4375-.15624-4.4414-.05469m4.4414-16.08594l-.48828-2.67578.48828-.53125 4.4375-1.6289 3.23047 2.16015-1.23437 4.4414-1.9961 2.07032-4.0039-2.07031-.4336-1.76563m4.4375-26.19921l-3.51953-3.10547 2.67578-4.4375.84375-.91407 2.17579.91407 2.26172.35156v2.24219l-4.4375.35937-1.05079 1.48438 1.05078.92968 1.65625 3.50782 2.78125 3.99609.22657.44531-.22656.54688-3.79297 3.89062 3.79297 3.40625 4.4375-.48437 4.4375-2.58985.36718-.33203-.36719-.47265-.74218-3.96485-3.69531-3.59765-1.45704-.84375-1.51172-4.4375-1.46875-1.84375v-2.2422l3.25391 4.08595.82813 4.4375.35547.20703 4.34765 4.23437.08984.47656 3.04688 3.96094-3.04688 2.79688-4.4375 1.0586-2.84375.58202-1.59375 1.53125-4.4375-1.32031-.11718-.21094-2.1289-4.4375 2.24608-2.16797 2.16407-2.26953-1.53516-4.4414-.6289-1.33204"/><path fill="#00e8fc" fill-rule="evenodd" d="M219.45313 419.1211l-1.05079-.9297 1.05078-1.48437 4.4375-.35937v3.83203l-1.0703 2.44922 1.0703 1.53515 1.46875 2.90625-1.46875 3.57422-.84375.86328.84375.75781 4.4375.61329 2.17579-1.3711.42968-4.4375-2.60547-2.53906-3.29296-1.90234-1.14453-2.44922v-3.83203l1.46875 1.84375 1.51171 4.4375 1.45703.84375 3.69532 3.59765.74219 3.96485.36718.47265-.36719.33203-4.4375 2.58985-4.4375.48437-3.79296-3.40625 3.79297-3.89062.22656-.54688-.22656-.44531-2.78125-3.9961-1.65625-3.5078"/><path fill="#00d4fc" fill-rule="evenodd" d="M223.89063 424.16406l-1.07032-1.53515 1.07031-2.44922 1.14454 2.44922 3.29297 1.90234v1.0625l-1.72657 1.47656 1.72656 4.08985 1.51563-4.08985-1.51563-1.47656v-1.0625l2.60547 2.53906-.42968 4.4375-2.17578 1.3711-4.4375-.61329-.84375-.7578.84375-.86329 1.46875-3.57422-1.46875-2.90625"/><path fill="#00c4fc" fill-rule="evenodd" d="M228.32813 431.16016l-1.72657-4.08985 1.72656-1.47656v1.0586l-.48437.41796.48438 1.14844.42578-1.14844-.42578-.41797v-1.05859l1.51562 1.47656-1.51563 4.08985"/><path fill="#00b8fc" fill-rule="evenodd" d="M228.32813 428.21875l-.48438-1.14844.48438-.41797.42578.41797-.42578 1.14844"/><path fill="#50fcfc" fill-rule="evenodd" d="M241.64453 427.04297l-2.85156-4.41406 2.85156-2.79297v2.47656l-.32422.3164.32422.5.48047-.5-.48047-.3164v-2.47656l4.2461 2.79297.1914.3164 4.4375 3.77735.44531.34765-.4453.35547-4.4375 1.86328-4.39454-2.21875-.04297-.02734"/><path fill="#00e8fc" fill-rule="evenodd" d="M241.64453 423.1289l-.32422-.5.32422-.3164.48047.3164-.48047.5"/><path fill="#50fcfc" fill-rule="evenodd" d="M246.08203 449.75781l-.23437-.4961.23437-1.04296 1.4414-3.39844 2.9961-1.20703 4.4375-1.6289.19922-1.60157-.19922-3.60547-.23828-.83203.23828-.2539 1.5586-4.1836 2.8828-3.0586.40626-1.3789.23828-4.4414-.2461-4.4375 3.48047-4.4375.5586-.58204 4.4375-3.5625v2.90235l-1.42578 1.24219-3.01172 3.87109-.47656.5664-1.41407 4.4375-1.35547 4.44141-1.1914 4.05078-.36719.38672.36719.47266v3.27734l-3.76953.6875 3.76953.2539.22265-.2539-.22265-.6875v-3.27734l1.28515 3.96484-1.28515 1.45703-3.01953 2.98047 3.01953 4.21094 4.4375-.53516 3.65625-3.67578.78125-.57422 4.4375-2.11328 4.4414.21094 3.71485-1.96094.72265-.71094 4.14454.71094.29296.07031 4.38282 4.3672.05468.02734.02735-.02735-.02735-.02734-4.40234-4.41016 1.63281-4.4375 1.5625-4.4375 1.20703-1.42969.4922 1.4297 3.9453 2.63671 4.44141.0664 4.4375.03126 4.4375-.25781 4.4375-.65625 1.75781-1.82032-1.52734-4.4414 2-4.4375-2.23047-2.25391-2.84375 2.2539 1.59375 4.4375-3.1875.4375-.17969-.4375-4.25781-3.48827-4.4375-.16016-4.4414-.26563-4.4375 2.73829-4.4375-1.51954-3.73829 2.69532-.69922.33203-4.4375.95703-4.4414 2.53906-1.52344-3.82812.92969-4.4375-2.30469-4.4375-1.53906-1.2422v-2.90233l4.4375 2.51562 1.03515 1.6289 1.89454 4.4375 1.51171 2.3711 4.4375-.65234 2.79297-1.71875 1.64453-1.3672 1.8047 1.3672 2.6328.98437 1.80079-.98437 2.63671-2.29297 4.44141 1.625.91797.66797 3.51953.29687 3.8789-.29687.5586-.39454 4.4375-3.21093 2.28906-.83203 2.15235-2.0625 4.4375-1.28907 2.49609-1.08593 1.9414-1.69532v2.16407l-4.4375 2.66796-2.66796 1.30079 2.66797 1.22656 4.4375 2.36328 4.4375-2.0586 1.32421-1.53124-1.32421-1.67188-4.4375-2.29687v-2.16407l3.67578 1.69532.76172.21484 3.33593 4.22266 1.10157 3.53906 4.4414-1.82031 2.15235-1.71875 2.28515-2.65235v6.41797l-1 .67188 1 .47656.27735-.47656-.27735-.67188v-6.41797l2.33985 2.65235.71875 4.4375-2.1172 4.4375-.9414.87109-2.1211-.8711-2.3164-.9414-4.4414-2.40625-1.60157-1.08984-2.83593-.57422-4.4375.44922-4.4375-1.15235-4.4375-1.07422-.8711 2.35157-.72656 4.4375.53125 4.4414-3.375 3.49219-4.4375.1875-4.4375.3086-4.4375-.1211-4.4414.11328-4.4375-.10937-.27344.5664-1.08985 4.4375 1.36328 1.36328 2.83204 3.07422-2.83204 2.67578-4.4375-1.30078-4.4375.28906-3.1914-1.66406-1.2461-.27344-4.04296.27344-.39844.29297-4.4375 2.48828-1.61719 1.65625-2.82031 1.79688-4.4375 2.47265-.41016.17188-4.03125 2.23047-4.19531 2.20703-.24219.1289-.27344-.1289-4.16406-3.9414"/><path fill="#fff" fill-opacity="0" fill-rule="evenodd" d="M259.39844 435.25781l-3.76953.6875 3.76953.2539.22265-.2539-.22265-.6875"/><path fill="#00e8fc" fill-rule="evenodd" d="M259.39844 444.59375l-3.01953-4.21094 3.01953-2.98047 1.28515-1.45703-1.28515-3.96484-.36719-.47266.36719-.38672 1.1914-4.05078 1.35547-4.4414 1.41406-4.4375.47657-.56641v5.95703l-1.9375 3.48828-.23828 4.4375.79687 4.4375-3.0586 3.46485-.98437.97265.98438 1.375 4.4375-.01953 1.34765-1.35547 3.08985-2.26953 3-2.16797 1.4375-3.02734 4.4414.13281 1.5625-1.54297 2.875-2.10937 2.01563-2.32813-2.01563-1.3789-3.72265 1.3789-.71485 1.2461-4.4414 2.17187-1.39453-3.41797-3.04297-3.48437-4.4375-.0039V417.625l3.01172-3.8711 1.42578-1.24218 1.53906 1.24219 2.30469 4.4375-.92969 4.4375 1.52344 3.82812 4.4414-2.53906 4.4375-.95703.69922-.33203 3.73828-2.69532 4.4375 1.51954 4.4375-2.73829 4.44141.26563 4.4375.16015v1.08985l-4.4375.24219-4.4414.62109-2.14063 1.53516 1.53906 4.4414.60156.40235 4.44141.35546 4.4375-.11328 4.4375-.17578 1.78906-.46875-1.78906-.75781-1.50781-3.6836-2.92969-2.39843v-1.08985l4.25781 3.48829.17969.4375 3.1875-.4375-1.59375-4.4375 2.84375-2.25391v2.25l-.0039.0039.0039.00782.0039-.00781-.0039-.00391v-2.25l2.23047 2.2539-2 4.4375 1.52734 4.44141-1.75781 1.82031-4.4375.65625-4.4375.25782-4.4375-.03125-4.4414-.0664-3.94532-2.63673-.49219-1.42969-1.20703 1.4297-1.5625 4.4375-1.63281 4.4375 4.40234 4.41015.02735.02734-.02735.02735-.05468-.02735-4.38282-4.36719-.29296-.0703-4.14454-.71094-.72265.71093-3.71485 1.96094-4.4414-.21094-4.4375 2.11328-.78125.57422-3.65625 3.67578-4.4375.53516"/><path fill="#00d4fc" fill-rule="evenodd" d="M259.39844 441.75781l-.98438-1.375.98438-.97265 3.0586-3.46485-.79688-4.4375.23828-4.4375 1.9375-3.48828 4.4375.0039v1.66016l-4.4375.6875-.6289 1.13672.6289 3.53516.73437.90234 1.23828 4.4375 2.46485.47266.65234-.47266 1.40625-4.4375-.46484-4.4375-1.59375-1.82422v-1.66015l3.04297 3.48437 1.39453 3.41797 4.4414-2.17187.71485-1.2461 3.72265-1.3789 2.01563 1.3789-2.01563 2.32813-2.875 2.10937-1.5625 1.54297-4.4414-.13281-1.4375 3.02734-3 2.16797-3.08985 2.26953-1.34765 1.35547-4.4375.01953"/><path fill="#00c4fc" fill-rule="evenodd" d="M263.83594 430.60547l-.6289-3.53516.6289-1.13672 4.4375-.6875v1.66016l-.70703.16406.70703.90235.14453-.90235-.14453-.16406v-1.66016l1.59375 1.82422.46484 4.4375-1.40625 4.4375-.65234.47266-2.46485-.47266-1.23828-4.4375-.73437-.90234"/><path fill="#00b8fc" fill-rule="evenodd" d="M268.27344 427.97266l-.70703-.90235.70703-.16406.14453.16406-.14453.90235"/><path fill="#00d4fc" fill-rule="evenodd" d="M294.30078 427.07031l-1.53906-4.4414 2.14062-1.53516 4.44141-.6211 4.4375-.24218v1.08984l-4.4375.64063-2.47266.66797 2.47266 1.8789 4.4375.9414 1.60156-2.8203-1.60156-1.3086v-1.08984l2.92969 2.39844 1.50781 3.68359 1.78906.75781-1.78906.46875-4.4375.17578-4.4375.11329-4.4414-.35547-.60157-.40235"/><path fill="#00c4fc" fill-rule="evenodd" d="M299.34375 424.50781l-2.47266-1.8789 2.47266-.66797 4.4375-.64063v1.08594l-1.19531.22266 1.19531.48046.26953-.48046-.26953-.22266v-1.08594l1.60156 1.3086-1.60156 2.8203-4.4375-.9414"/><path fill="#50fcfc" fill-rule="evenodd" d="M299.34375 438.27734l-2.3711-2.33203 2.3711-2.67578 2.33203 2.67578-2.33203 2.33203m-.33203 24.29688l-.05469-4.4375.38672-.28125.78516.28125-.6875 4.4375-.09766.07812-.33203-.07812"/><path fill="#00b8fc" fill-rule="evenodd" d="M303.78125 423.10938l-1.19531-.48047 1.19531-.22266.26953.22266-.26953.48046"/><path fill="#50fcfc" fill-rule="evenodd" d="M312.65625 460.33984l-3.1211-2.20312.63673-4.4375 2.48437-2.77344 4.4414.53906 3.6797 2.23438.7578 1.08594 1.27735-1.08594 3.16016-2.625 3.72656-1.8125-3.72656-3.54688-.34766-.89453.34766-.33203 4.4375-1.30469 3.2539-2.80078 1.1836-.98047 4.4414-.76171 2.40625 1.74218 2.03125 1.01563 1.36719-1.01563 3.07031-3.0039 4.4375 2.92187 4.4414-.98828 4.4375.84766.41798-4.21485-.1914-4.4375-.22657-1.14062-3.25781-3.29688-.52344-4.4414-.05078-4.4375 1.89844-4.4375 1.93359-1.9336 4.4375-2.46875.16406-.03515 4.27344-2.82813v2.42188l-.61328.40625-3.82422.87109-3.98438 3.5664-.45312.59376-2.91016 3.84375.11719 4.4375 1.40625 4.4414 1.38672 1.40235.60547 3.03515.47265 4.4375 1.23047 4.4375-2.3086 2.66406-4.4375-.33984-4.4414 1.14063-4.4375-2.64844-4.4375 3.16797-2.0039.45312-2.4336 2.125-1.09765 2.3164 1.09765.87892 2.96485-.87891 1.47265-1.76172 1.95313 1.76172 2.48437.3789 1.45313-.3789 2.98437-2.16406 4.4414-.33985 4.4375-.4375v2.33203L358 449.26172l3.48047.61328 1-.61328-1-.60938v-2.33203l4.4375 2.66797.0625.27344-.0625.67969-4.4375 2.29296-1.67969 1.46485.82031 4.4375-2.0625 4.4375 2.92188.57031 1.33594 3.8711 2.03125 4.4375 1.0703 3.67968 1.53907-3.67969 2.89844-.60546 4.4375-1.20313 4.4414 1.71875.04297.08985 4.39454 3.17187 4.4375-.6836 2.36718-2.48827-2.36719-3.13282-.88671-1.30469-2.4375-4.4414 3.32421-1.02735 4.4375-1.99609 1.36329 3.02344 3.07421 4.125 1.51172.3164 2.9297 1.10157 1.10546-1.10156 3.33203-.6875 4.4375-1.02735 2.75781-2.72656-.85156-4.4375-1.90625-2.64453-3.67187-1.79297-.76563-.7461-.6289-3.6914.6289-.28516 4.4375-.41406v.58203l-1.0625.11719 1.0625 1.04687.80469-1.04687-.80469-.11719v-.58203l4.4375.58594 4.4414-1.66406 1.67579-2.66407-1.58203-4.4375-.09375-.13281-4.4414-4.26172-4.4375.49219-4.4375 1.0586-4.06642 2.84374-.37109.35156-4.4414 1.96485-4.4375-.46875-2.73047-1.84766-1.70704-1.33203-4.4375-2.07422-.92187-1.03125.92188-2.24219 4.4375.31641 3.33203-2.51172 1.10546-2.66015 1.05079-1.77735-1.05079-.95703-4.4375-2.07031-4.4375 2.48828-.80468.53906-3.63281 1.65625-4.44141.5625-.90235-2.21875-3.53515-3.71875-1.0039-.72265-.66798-4.4375 1.67188-1.53516 2.92187-2.90234-2.29296-4.4375-.62891-.40625v-2.42188l4.36328 2.82813-.51172 4.4375-3.85156 3.82421-.66797.61329.53125 4.4375.13672.10156 4.125 4.33984.3125.76953 3.4414-.76953 1-.85937 4.4375-2.54688 4.4375-.94531 4.4375 1.1289 3.54688 3.22266.89063 3.90625.30468.53125-.30469.30078-4.4375 1.31641-4.4375 2.22266-3.15234.59765 3.15235.96875 4.4375 3.45313.03515.01562 4.40235.53906 1.26171-.53906 3.1797-2.46094 4.4375-1.49609 2.35546-.48047 2.08203-1.76562 4.4375-.85938 3.76172 2.625.67969.63672 2.69922 3.80078.9453 4.4375-1.84374 4.4414-1.80078 2.07423-3.95313 2.36328 1.11328 4.4375-1.60156 1.4961-.625 2.9414-3.8125 3.76953-4.4375.39844-1.32422.27344-3.11328 3.10156-4.4414-.80469-2.39454-2.29688-1.5039-4.4414-.53906-1.1875-2.44532 1.1875-.85547 4.4414 2.48047 4.4375-3.61719 3.80079-4.4375.17968-4.4375-.91015-3.01171 1.36719-1.4297 1.03515-3.66015-1.03515-.77734-.77735-.19922.77735-4.23828 2.60546-2.59766-2.60546-1.0039-4.4375-.51172-4.4375-.32422-.9375-4.4375-.8672-4.4414-1.41406-1.23829-1.22265 1.23828-3.5586 4.4414-.80078.0547-.07812-.00391-4.4375-.05078-.97266-4.4414-.80469-4.4375.66797-3.61329 1.10938-.82422.51562-4.4375.44922-3.2539 3.47266-1.1875 1.21484-4.4375 1.4375-4.4375-1.32812-4.4375.30469-4.4375.74218-4.44141-.16797"/><path fill="#00d4fc" fill-rule="evenodd" d="M312.65625 418.19922l-.0039-.00781.0039-.00391.0039.0039-.0039.00782"/><path fill="#00e8fc" fill-rule="evenodd" d="M321.53516 414.98047l-2.66797-1.22656 2.66797-1.30079 4.4375-2.66796v1.32421l-3.38672 2.64454 3.38672 2.39062 3.40234-2.39062-3.40234-2.64454v-1.32421l4.4375 2.29687 1.32421 1.67188-1.32421 1.53125-4.4375 2.05859-4.4375-2.36328"/><path fill="#00d4fc" fill-rule="evenodd" d="M325.97266 416.14453l-3.38672-2.39062 3.38672-2.64454v1.32813l-1.6875 1.3164 1.6875 1.19141 1.6953-1.1914-1.6953-1.31641v-1.32813l3.40234 2.64454-3.40234 2.39062"/><path fill="#00c4fc" fill-rule="evenodd" d="M325.97266 414.94531l-1.6875-1.1914 1.6875-1.31641 1.6953 1.3164-1.6953 1.19141"/><path fill="#00e8fc" fill-rule="evenodd" d="M339.28906 450.14063l-1.09765-.87891 1.09765-2.3164 2.4336-2.125 2.0039-.45313 4.4375-3.16797 4.4375 2.64844 4.4414-1.14063 4.4375.33985 2.3086-2.66407-1.23047-4.4375-.47265-4.4375-.60547-3.03515-1.38672-1.40235-1.40625-4.4414-.11719-4.4375 2.91016-3.84375.45312-.59375 3.98438-3.56641 3.82422-.8711.61328-.40624v2.64062l-4.4375.02344-2.4336 2.17969-2.0039 2.6289-1.3711 1.8086.22266 4.4375 1.14844 2.47265.44531 1.96875.78906 4.4375.94532 4.4375 2.2578 3.61719.6875.82031-.6875 4.41016-.02343.02734.02344.01563 1.04297 4.42578 1.4375 4.4375-2.48047 2.76953-1.38281 1.66797-.60157 4.4375.57032 4.4414 1.41406 2.34375 4.4375.22657 3.70703-2.57031.73047-.58204 2.8164.58204 1.625.8203 1.91016 3.6172 2.52735 1.82421 4.4375-1.52734.28125-.29688-.28125-.375-2.76172-4.0625-1.67579-2.20703-.60937-2.23437.60938-2.65625 4-1.78125.4375-.17969 4.4375-.63281 2.22265.8125.51563 4.4375 1.69921 2.28125 4.44141 1.46094 4.4375-.6797 4.4375-2.0703 1.0039-.9922-1.0039-2.01562-4.4375-1.8125-2.80078-.60937-1.63672-1.24219-3.60937-3.19531 3.60937-3.38281V453.5l-.21094.19922.21094.1875 2.58203-.1875-2.58203-.19922v-3.1836l.94531-1.05468 3.4922-1.5625 4.4375-.10938 4.4375-.34375 3.21093-2.42578-.60938-4.4375-2.60156-2.55078-4.4375.08594-4.4375 1.47656-1.41406.98828-3.02344 2.85938-3.0664 1.57812-1.375 1.13672-4.4375-.89453-.75782-.24219-3.67969-2.46094-2.24218-1.97656-2.19531-1.29297-2.80079-3.14453-1.63671-3.78906-4.44141-.53125-.09375-.11719-1.79297-4.4375-2.55078-2.6836-2.44531-1.7578-.90235-4.4375 3.34766-3.07422 1.375-1.36328-1.375-2.20313v-2.64062l.6289.40625 2.29297 4.4375-2.92187 2.90234-1.67188 1.53516.66797 4.4375 1.0039.72265 3.53517 3.71875.90234 2.21875 4.4414-.5625 3.63282-1.65625.80469-.53906 4.4375-2.48828v2.21094l-1.30079.8164.3711 4.4375.92969.30469.40625-.30469 1.0625-4.4375-1.46875-.8164v-2.21094l4.4375 2.07031 1.05078.95703-1.05079 1.77735-1.10546 2.66015-3.33204 2.51172-4.4375-.3164-.92187 2.24218.92188 1.03125 4.4375 2.07422 1.70703 1.33203 2.73046 1.84766 4.4375.46875 4.44141-1.96485.3711-.35156 4.0664-2.84375 4.4375-1.0586 4.4375-.49218 4.4414 4.26172.09376.13281 1.58203 4.4375-1.67578 2.66406-4.4414 1.66407-4.4375-.58594-4.4375.41406-.62892.28516.62891 3.6914.76563.7461 3.67187 1.79297 1.90625 2.64453.85156 4.4375-2.7578 2.72656-4.4375 1.02735-3.33204.6875-1.10547 1.10156-2.92969-1.10156-1.51171-.31641-3.07422-4.125-1.36329-3.02344-4.4375 1.9961-3.32421 1.02734 2.4375 4.4414.88671 1.3047 2.3672 3.1328-2.3672 2.48829-4.4375.68359-4.39453-3.17188-.04296-.08984-4.44141-1.71875-4.4375 1.20313-2.89844.60546-1.53906 3.6797-1.07031-3.6797-2.03125-4.4375-1.33594-3.87109-2.92188-.57031 2.0625-4.4375-.8203-4.4375 1.67968-1.46485 4.4375-2.29296.0625-.6797-.0625-.27343-4.4375-2.66797-4.4375.4375-4.4414.33985-2.98438 2.16406-1.45313.3789-2.48437-.3789-1.95313-1.76172-1.47265 1.76172-2.96485.8789m4.4375-31.47265l-1-.47656 1-.67188.27735.67188-.27735.47656"/><path fill="#50fcfc" fill-rule="evenodd" d="M348.16406 433.45313l-1.42578-1.94532 1.42578-1.34375 1.33985 1.34375-1.33985 1.94531"/><path fill="#fff" fill-opacity="0" fill-rule="evenodd" d="M361.48047 448.65234L358 449.26172l3.48047.61328 1-.61328-1-.60938"/><path fill="#00d4fc" fill-rule="evenodd" d="M360.33203 422.6289l-.22265-4.4375 1.37109-1.80859 2.0039-2.6289 2.4336-2.1797v1.39063l-.88281.78907.8828 2.75v3.80859l-2.47655 2.3164-.71094 4.44141.61328 4.4375 1.41797 4.4375 1.15625 1.85547 2.16015 2.58203.20313 4.4375-.34375 4.4414 2.41797 3.69923 1.57031.73828-1.57031 2.04687-2.14844 2.39063-1.78515 4.4375.09765 4.4414 3.83594 1.3125 1.89062-1.3125L374.79297 465l4.4414 1.39063 3.15625-3.81641.96875-4.4375.3125-.36328 4.4375-2.52735 4.4375.5586 2.875-2.10547 1.16407-4.4375-4.03906-2.69922-4.28516 2.69922-.15235.4414-.11718-.4414-.65235-4.4414-3.66796-3.2422-2.91407 3.2422-1.52344 1.21093-.46875-1.21094.06641-4.4375.11328-4.4375-4.15234-2.80078-1.3164-1.63672-1.5547-4.4375-1.5664-1.65234-3.88672-2.78906-.55078-2.31641v-3.8086l3.69922-2.75-3.69922-.78906v-1.39062l4.4375-.02344 1.375 2.20313-1.375 1.36328-3.34766 3.07422.90235 4.4375 2.4453 1.7578 2.55079 2.6836 1.79297 4.4375.09375.11719 4.4414.53125 1.63672 3.78906 2.80079 3.14453 2.1953 1.29297 2.2422 1.97656 3.67968 2.46094.75781.24219 4.4375.89453 1.375-1.13672 3.06641-1.57812 3.02344-2.85938 1.41406-.98828 4.4375-1.47656v1.4414l-2.67969 1.02344-1.7578 1.20703-3.42188 3.23047 3.42187 1.59766 4.4375.19922 4.4375-1.27344.6914-.52344.03516-4.4375-.72656-.71094-4.4375-.3125v-1.4414l4.4375-.08594 2.60156 2.55078.60938 4.4375-3.21094 2.42578-4.4375.34375-4.4375.10938-3.49219 1.5625-.9453 1.05469-3.60938 3.3828 3.60937 3.19532v2.0664l-4.4414 2.1211-.32032 1.49219.32031.4336 4.44141 2.26171 4.4375-.32422 3.94531-2.3711-3.9453-2.96483-4.4375-.64844v-2.0664l1.63671 1.24218 2.80078.60937 4.4375 1.8125 1.0039 2.01563-1.0039.99219-4.4375 2.0703-4.4375.6797-4.4414-1.46094-1.69922-2.28125-.51563-4.4375-2.22265-.8125-4.4375.63281-.4375.17969-4 1.78125-.60938 2.65625.60938 2.23437v3.23438l-.66016 3.41015.66015.47266 1.28516-.47265-1.28515-3.41016v-3.23438l1.67578 2.20704 2.76171 4.0625.28125.375-.28125.29687-4.4375 1.52734-2.52734-1.82421-1.91015-3.6172-1.625-.8203-2.81641-.58204-.73047.58204-3.70703 2.5703-4.4375-.22656-1.41406-2.34375-.57032-4.4414.60157-4.4375 1.3828-1.66797 2.48048-2.76953-1.4375-4.4375-1.04297-4.42578-.02344-.01563.02344-.02734.6875-4.41016-.6875-.82031-2.25781-3.61719-.94532-4.4375-.78906-4.4375-.44531-1.96875-1.14844-2.47265"/><path fill="#00c4fc" fill-rule="evenodd" d="M363.34375 431.50781l-.61328-4.4375.71094-4.4414 2.47656-2.31641v3.08203l-2.38672 3.67578.4414 4.4375 1.88673 4.4375.05859.09375 3.63281 4.34375.80469 3.6211.14453.8164-.14453.34375-1.4414 4.09766 1.4414 2.20312 1.35937-2.20312 3.07813-2.1211v.63282l-2.16016 1.48828 2.16016 3.20312v4.92579l-1.0664.74609 1.0664.4336.15234-.4336-.15234-.7461v-4.92578l2.73828-3.20312-2.73828-1.48828v-.63281l3.90234 2.12109-3.46875 4.4375.54297 4.4375-.97656 2.80078-4.4375-1.66016-2.16406 3.29688 2.01171 4.4414.15235.05079.07422-.05079 4.36328-3.44921 4.4414 2.01171 2.48047-3.0039.85157-4.4375 1.10546-1.28516 3.94141-3.15234-1.4961-4.4375-2.27343-4.4414-.17188-.15235-.13671.15234-4.30079 3.41797-1.3203-3.41797-1.17579-4.4375-.04687-4.4375-1.89844-1.28125-2.53906-3.15625-1.3125-4.4375-.58594-.61719-4.4375-3.05859v-3.08203l.55078 2.3164 3.88672 2.78907 1.5664 1.65234 1.5547 4.4375 1.3164 1.63672 4.15234 2.80078-.11328 4.4375-.0664 4.4375.46875 1.21094 1.52343-1.21094 2.91406-3.24219 3.66797 3.2422.65235 4.4414.11719.4414.15234-.4414 4.28515-2.69922v1.5l-1.90234 1.19922-.21094 4.4375 2.11329.58984.80859-.58984.98828-4.4375-1.79688-1.19922v-1.5l4.03907 2.69922-1.16406 4.4375-2.875 2.10547-4.4375-.5586-4.4375 2.52735-.3125.36328-.96875 4.4375-3.15625 3.8164L374.79296 465l-2.54688 2.01563-1.89062 1.3125-3.83594-1.3125-.09765-4.44141 1.78515-4.4375 2.14844-2.39063 1.57031-2.04687-1.57031-.73828-2.41797-3.69922.34375-4.4414-.20313-4.4375-2.16015-2.58204-1.15625-1.85547-1.41797-4.4375"/><path fill="#00b8fc" fill-rule="evenodd" d="M363.97266 431.50781l-.44141-4.4375 2.38672-3.67578v1.23438l-1.58203 2.4414.26953 4.4375 1.3125 3.05078 1.41797 1.38672 3.01953 3.6211 4.11719-3.6211-3.4375-4.4375-.6797-2.5625-.7578-1.875-3.6797-2.4414v-1.23438l4.4375 3.0586.58595.61718 1.3125 4.4375 2.53906 3.15625V440.5l-3.1211 4.32031-1.3164 3.1211-.46485 1.3203.46485.70704.4375-.70703 4-2.7539 2.26953-1.6875-2.26953-4.32032v-5.83594l1.89844 1.28125.04687 4.4375 1.17578 4.4375 1.32031 3.41797 4.30079-3.41797.13671-.15234v3.51953l-1.60156 1.07422-2.64062 4.4375-.19531.14844-2.64454 4.28906-1.33984 4.4375 3.98438 2.1875 1.80859-2.1875.73047-4.4375 1.89844-2.20703 2.78906-2.23047-2.22266-4.4375-.5664-1.07422v-3.51953l.17187.15234 2.27344 4.4414 1.4961 4.4375-3.94142 3.15235-1.10546 1.28516-.85157 4.4375-2.48046 3.0039-4.44141-2.01171-4.36328 3.44921-.07422.05079-.15235-.05079-2.01171-4.4414 2.16406-3.29688v2.69532l-.39453.60156.39453.83984 1.86719-.83984-1.8672-.60156v-2.69532l4.4375 1.66016.97657-2.80078-.54297-4.4375 3.46875-4.4375-3.90234-2.1211-3.07813 2.1211-1.35937 2.20312-1.4414-2.20312 1.4414-4.09766.14453-.34375-.14453-.8164-.80469-3.6211-3.63281-4.34375-.0586-.09375-1.88671-4.4375"/><path fill="#00a8fc" fill-rule="evenodd" d="M364.60547 431.50781l-.26953-4.4375 1.58203-2.4414v1.23828l-.78125 1.20312.09765 4.4375.6836 1.58594 2.91797 2.85156 1.51953 1.82422 2.07422-1.82422-2.07422-3.08594-1.29297-1.35156-1.32813-4.4375-1.8164-1.20312v-1.23828l3.67969 2.4414.7578 1.875.6797 2.5625 3.4375 4.4375-4.1172 3.6211-3.01952-3.6211-1.41797-1.38672-1.3125-3.05078"/><path fill="#00c4fc" fill-rule="evenodd" d="M365.91797 416.5039l-.88281-2.75.8828-.78906 3.69923.78907-3.69922 2.75"/><path fill="#009800" fill-rule="evenodd" d="M365.23438 431.50781l-.09766-4.4375.78125-1.20312v2.28515l-.05469 3.35547.05469.1211 4.41406 4.3164.02344.02735.03125-.02735-.03125-.04687-4.1914-4.39063-.2461-3.35547v-2.28515l1.8164 1.20312 1.32813 4.4375 1.29297 1.35156 2.07422 3.08594-2.07422 1.82422-1.51953-1.82422-2.91797-2.85156-.6836-1.58594"/><path fill="#00ac00" fill-rule="evenodd" d="M365.91797 431.6289l-.05469-.12109.05469-3.35547.2461 3.35547 4.1914 4.39063.03125.04687-.03125.02735-.02344-.02735-4.41406-4.3164"/><path fill="#00a8fc" fill-rule="evenodd" d="M370.35547 449.96875l-.46485-.70703.46485-1.32031 1.3164-3.1211 3.1211-4.32031v1.625l-1.94531 2.69531 1.9453 1.05469 1.41798-1.05469-1.41797-2.69531V440.5l2.26953 4.32031-2.26953 1.6875-4 2.7539-.4375.70704m0 13.44531l-.39453-.83984.39453-.60156 1.86719.60156-1.8672.83984"/><path fill="#00d4fc" fill-rule="evenodd" d="M374.79297 447.77344l-2.16016 1.48828 2.16016 3.20312 2.73828-3.20312-2.73828-1.48828v.63281l1.57031.85547-1.57031 1.83984-1.23828-1.83984 1.23828-.85547v-.63281"/><path fill="#009800" fill-rule="evenodd" d="M374.79297 445.875l-1.94531-1.05469 1.9453-2.69531v1.6211l-.77343 1.07421.77344.42188.5664-.42188-.5664-1.07422V442.125l1.41797 2.69531-1.41797 1.05469"/><path fill="#00e8fc" fill-rule="evenodd" d="M374.79297 448.40625l-1.23828.85547 1.23828 1.83984 1.57031-1.83984-1.57031-.85547v.63281l.40625.22266-.40625.47265-.32031-.47265.3203-.22266v-.63281"/><path fill="#00d4fc" fill-rule="evenodd" d="M374.79297 457.39063l-1.0664.74609 1.0664.4336.15234-.4336-.15234-.7461"/><path fill="#00ac00" fill-rule="evenodd" d="M374.79297 445.24219l-.77344-.42188.77344-1.07422.5664 1.07422-.5664.42188"/><path fill="#50fcfc" fill-rule="evenodd" d="M374.79297 449.03906l-.32031.22266.3203.47265.40626-.47265-.40625-.22266"/><path fill="#00a8fc" fill-rule="evenodd" d="M379.23438 464.76172l-3.98438-2.1875 1.33984-4.4375 2.64454-4.28906.1953-.14844 2.64063-4.4375 1.60156-1.07422v2.53906l-2.48437 2.97266-1.95313 1.48828-1.8203 2.94922-.6836 4.4375 2.5039 1.375 1.13672-1.375.60938-4.4375 2.6914-3.13281 1.63282-1.3047-1.63281-2.97265v-2.53906l.5664 1.07422 2.22266 4.4375-2.78906 2.23047-1.89844 2.20703-.73047 4.4375-1.8086 2.1875"/><path fill="#009800" fill-rule="evenodd" d="M379.23438 463.94922l-2.50391-1.375.6836-4.4375 1.8203-2.94922 1.95313-1.48828 2.48438-2.97266v2.10156l-.73047.8711-3.70704 2.82422-.99609 1.61328-.02734 4.4375 1.02344.5625.46093-.5625.4961-4.4375 3.48046-4.05469.48047-.38281-.48046-.8711v-2.10156l1.6328 2.97266-1.6328 1.30469-2.69141 3.1328-.60938 4.4375-1.13671 1.375"/><path fill="#00ac00" fill-rule="evenodd" d="M379.23438 463.13672l-1.02344-.5625.02734-4.4375.9961-1.61328v1.33594l-.17188.27734.17188 1.77344.16406-1.77344-.16406-.27735v-1.33593l3.70703-2.82422.73046-.8711.48047.8711-.48046.38281-3.48047 4.05469-.4961 4.4375-.46094.5625"/><path fill="#00c800" fill-rule="evenodd" d="M379.23438 459.91016l-.17188-1.77344.17188-.27735.16406.27735-.16406 1.77344"/><path fill="#00c4fc" fill-rule="evenodd" d="M383.67188 471.92578l-.66016-.47265.66015-3.41016 1.28516 3.41015-1.28515.47266"/><path fill="#00d4fc" fill-rule="evenodd" d="M387.17969 431.50781l-.3711-4.4375 1.30079-.8164 1.46875.8164-1.0625 4.4375-.40625.30469-.9297-.30469"/><path fill="#00b8fc" fill-rule="evenodd" d="M392.54688 454.28906l-2.11329-.58984.21094-4.4375 1.90235-1.19922 1.79687 1.19922-.98828 4.4375-.8086.58984"/><path fill="#00c4fc" fill-rule="evenodd" d="M396.98438 463.00781l-.32032-.4336.32031-1.49218 4.44141-2.1211v1.40235l-2.99219 2.21094 2.9922 1.65234 4.4375.03125 2.79687-1.6836-2.79688-2.10155-4.4375-.10938v-1.40234l4.4375.64844 3.94531 2.96484-3.9453 2.3711-4.4375.32421-4.44142-2.26172"/><path fill="#00b8fc" fill-rule="evenodd" d="M401.42578 464.22656l-2.99219-1.65234 2.9922-2.21094 4.4375.10938v.86328l-4.4375.42578-1.09767.8125 1.09766.60547 4.4375.38672 1.64844-.9922-1.64844-1.23827v-.86328l2.79688 2.10156-2.79688 1.6836-4.4375-.03126"/><path fill="#00a8fc" fill-rule="evenodd" d="M401.42578 463.17969l-1.09765-.60547 1.09765-.8125 4.4375-.42578v.86328l-2.25781.375 2.25781.30078.5-.30078-.5-.375v-.86328l1.64844 1.23828-1.64844.99219-4.4375-.38672"/><path fill="#50fcfc" fill-rule="evenodd" d="M401.42578 453.5l-.21094.19922.21094.1875 2.58203-.1875-2.58203-.19922"/><path fill="#00c4fc" fill-rule="evenodd" d="M405.86328 446.41797l-3.42187-1.59766 3.42187-3.23047 1.75781-1.20703 2.6797-1.02344v2.15235l-4.4375 2.67187-.67579.63672.67578.3164 4.4375.51173 2.39063-.82813-2.39063-3.3086v-2.15233l4.4375.3125.72656.71093-.03515 4.4375-.6914.52344-4.4375 1.27344-4.4375-.19922"/><path fill="#009800" fill-rule="evenodd" d="M405.86328 462.875l-2.25781-.30078 2.25781-.375.5.375-.5.30078"/><path fill="#00b8fc" fill-rule="evenodd" d="M405.86328 445.13672l-.67578-.3164.67578-.63673 4.4375-2.67187 2.39063 3.3086-2.39063.82812-4.4375-.51172"/><path fill="#fff" fill-opacity="0" fill-rule="evenodd" d="M410.30078 449.14453l-1.0625.11719 1.0625 1.04687.80469-1.04687-.80469-.11719"/><path fill="#50fcfc" fill-rule="evenodd" d="M423.61719 463.17188l-.78125-.59766.78125-3.59375.89062 3.59375-.89062.59765"/><g clip-path="url(#c)"><path fill="#fff" fill-opacity="0" fill-rule="evenodd" d="M467.9961 480.32813H468V311.67188h-.0039H468v168.65625h-.0039"/></g><path fill="#fff" fill-opacity="0" fill-rule="evenodd" d="M319.84766 445.69531l3.2578 4.84766 8.26954-5.55078-3.2539-4.84766-8.27344 5.55078"/><path fill-rule="evenodd" d="M328.54688 444.07031l.28515.42188L323.60547 448l-.4375-.65234 3.72656-2.50391-.77344-1.15234.46094-.3086.36719.42969.1836.17969.20312.14062.23047.08985.26953.02734.32422-.04688.38671-.1328"/><path fill="#fff" fill-opacity="0" fill-rule="evenodd" d="M386.96875 442.89453l4.98047 3.0586 5.21094-8.48829-4.97657-3.05859-5.21484 8.48828"/><path fill-rule="evenodd" d="M394.20703 437.80078l.4336.26563-3.29688 5.36328-.66797-.41016 2.34766-3.82422-1.1836-.72656.29297-.47656.51172.23828.24219.08594.24219.04687.24609-.01562.25781-.08985.27735-.17578.29687-.28125"/><path fill="#fff" fill-opacity="0" fill-rule="evenodd" d="M346.71875 428.39844l3.46094-4.70313-8.01953-5.90625-3.46485 4.70703 8.02344 5.90235"/><path fill-rule="evenodd" d="M342.2461 420.76172l.30468-.41016 5.0664 3.73438-.46484.63281-3.61718-2.66016-.82032 1.1172-.44921-.32813.28125-.4922.10546-.23437.0625-.23828.00782-.2461-.06641-.26562-.15234-.28906-.25782-.32031"/><path fill="#fff" fill-opacity="0" fill-rule="evenodd" d="M258.51953 455.15234l5.25781-2.54687-4.33593-8.96485-5.26172 2.54297 4.33984 8.96875"/><path fill-rule="evenodd" d="M258.1289 446.3125l.45704-.22266 2.74219 5.66407-.70704.34375-1.95703-4.04297-1.25.60547-.24219-.5.47657-.30079.20312-.16015.16797-.17969.1211-.21484.0664-.26563v-.32812l-.07812-.39844"/><path fill="#fff" fill-opacity="0" fill-rule="evenodd" d="M407.22656 443.83203l7.8086-1.34375-1.72657-10.04687-7.80859 1.34375 1.72656 10.04687"/><path fill-rule="evenodd" d="M408.2539 435.17188l3.23829-.5586.1289.73047-2.60156.44922.07813 1.8164.1953-.19921.2461-.17579.30078-.14062.3711-.09766.32812-.02734.34375.02344.35547.08984.34375.16016.3164.23828.14454.15234.13281.17578.11719.19922.09765.22266.08204.25.0625.27734.04296.4414-.03125.4297-.10546.41015-.1797.375-.2539.32813-.15625.14453-.17578.13281-.19531.11328-.21485.09375-.23437.07813-.2539.05469-.46876.04687-.41015-.03516-.35547-.10156-.3086-.16797-.26171-.21875-.21875-.26562-.1836-.30078-.14453-.33594.77344-.13281.1211.21484.1328.1875.15235.15625.17187.1289.1836.09376.20312.05468.21485.01954.23437-.01954.30469-.07421.26562-.1211.22266-.15625.17188-.20312.1289-.23829.07422-.27734.02344-.32031-.03516-.35547-.0664-.25781-.10157-.2461-.14453-.23046-.1836-.19922-.22265-.15625-.26172-.10938-.30078-.05078-.33984.02344-.32813.09375-.25781.15234-.23828.23438-.26172.3164-.6836.11719-.125-3.45313"/><g clip-path="url(#d)"><path fill="none" stroke="#000" stroke-linecap="round" stroke-linejoin="round" stroke-miterlimit="10" stroke-width=".5" d="M147.46094 480.9336l-6.92188-1.21094"/></g><g clip-path="url(#e)"><path fill="none" stroke="#000" stroke-linecap="round" stroke-linejoin="round" stroke-miterlimit="10" stroke-width=".5" d="M147.46094 480.9336l.76172 2.33202"/></g><g clip-path="url(#f)"><path fill="none" stroke="#000" stroke-linecap="round" stroke-linejoin="round" stroke-miterlimit="10" stroke-width=".5" d="M160.77344 480.95313l-6.91797-1.2461"/></g><g clip-path="url(#g)"><path fill="none" stroke="#000" stroke-linecap="round" stroke-linejoin="round" stroke-miterlimit="10" stroke-width=".5" d="M160.77344 480.95313l.75 2.33593"/></g><g clip-path="url(#h)"><path fill="none" stroke="#000" stroke-linecap="round" stroke-linejoin="round" stroke-miterlimit="10" stroke-width=".5" d="M174.09375 480.91406l-6.92969-1.17187"/></g><g clip-path="url(#i)"><path fill="none" stroke="#000" stroke-linecap="round" stroke-linejoin="round" stroke-miterlimit="10" stroke-width=".5" d="M173.08594 480.7461l.38672 1.16406"/></g><g clip-path="url(#j)"><path fill="none" stroke="#000" stroke-linecap="round" stroke-linejoin="round" stroke-miterlimit="10" stroke-width=".5" d="M187.42969 480.77344l-6.96875-.89063"/></g><g clip-path="url(#k)"><path fill="none" stroke="#000" stroke-linecap="round" stroke-linejoin="round" stroke-miterlimit="10" stroke-width=".5" d="M186.41797 480.64453l.4336 1.14844"/></g><g clip-path="url(#l)"><path fill="none" stroke="#000" stroke-linecap="round" stroke-linejoin="round" stroke-miterlimit="10" stroke-width=".5" d="M200.64844 481.2539l-6.77735-1.84765"/></g><g clip-path="url(#m)"><path fill="none" stroke="#000" stroke-linecap="round" stroke-linejoin="round" stroke-miterlimit="10" stroke-width=".5" d="M199.66406 480.98438l.26953 1.1953"/></g><g clip-path="url(#n)"><path fill="none" stroke="#000" stroke-linecap="round" stroke-linejoin="round" stroke-miterlimit="10" stroke-width=".5" d="M214.0664 480.74219l-6.98046-.82422"/></g><g clip-path="url(#o)"><path fill="none" stroke="#000" stroke-linecap="round" stroke-linejoin="round" stroke-miterlimit="10" stroke-width=".5" d="M213.05078 480.6211l.44531 1.14452"/></g><g clip-path="url(#p)"><path fill="none" stroke="#000" stroke-linecap="round" stroke-linejoin="round" stroke-miterlimit="10" stroke-width=".5" d="M227.21875 481.45703l-6.65625-2.2539"/></g><g clip-path="url(#q)"><path fill="none" stroke="#000" stroke-linecap="round" stroke-linejoin="round" stroke-miterlimit="10" stroke-width=".5" d="M226.25 481.1289l.19922 1.21094"/></g><g clip-path="url(#r)"><path fill="none" stroke="#000" stroke-linecap="round" stroke-linejoin="round" stroke-miterlimit="10" stroke-width=".5" d="M240.375 481.83984l-6.33984-3.02343"/></g><g clip-path="url(#s)"><path fill="none" stroke="#000" stroke-linecap="round" stroke-linejoin="round" stroke-miterlimit="10" stroke-width=".5" d="M253.23047 482.5664l-5.41797-4.47656"/></g><g clip-path="url(#t)"><path fill="none" stroke="#000" stroke-linecap="round" stroke-linejoin="round" stroke-miterlimit="10" stroke-width=".5" d="M266.01953 483.07813l-4.3711-5.5"/></g><g clip-path="url(#u)"><path fill="none" stroke="#000" stroke-linecap="round" stroke-linejoin="round" stroke-miterlimit="10" stroke-width=".5" d="M279.3125 483.10156l-4.32031-5.54297"/></g><g clip-path="url(#v)"><path fill="none" stroke="#000" stroke-linecap="round" stroke-linejoin="round" stroke-miterlimit="10" stroke-width=".5" d="M293.0664 482.6914l-5.20312-4.72656"/></g><g clip-path="url(#w)"><path fill="none" stroke="#000" stroke-linecap="round" stroke-linejoin="round" stroke-miterlimit="10" stroke-width=".5" d="M305.76172 483.23047l-3.96094-5.80469"/></g><g clip-path="url(#x)"><path fill="none" stroke="#000" stroke-linecap="round" stroke-linejoin="round" stroke-miterlimit="10" stroke-width=".5" d="M317.76953 483.77734l-1.34765-6.89843"/></g><g clip-path="url(#y)"><path fill="none" stroke="#000" stroke-linecap="round" stroke-linejoin="round" stroke-miterlimit="10" stroke-width=".5" d="M330.0039 483.82031l.81641-6.98047"/></g><g clip-path="url(#z)"><path fill="none" stroke="#000" stroke-linecap="round" stroke-linejoin="round" stroke-miterlimit="10" stroke-width=".5" d="M343.36719 483.82422l.71875-6.99219"/></g><g clip-path="url(#A)"><path fill="none" stroke="#000" stroke-linecap="round" stroke-linejoin="round" stroke-miterlimit="10" stroke-width=".5" d="M357.125 483.83984l-.16797-7.02343"/></g><g clip-path="url(#B)"><path fill="none" stroke="#000" stroke-linecap="round" stroke-linejoin="round" stroke-miterlimit="10" stroke-width=".5" d="M372.07813 483.39063l-3.44532-6.125"/></g><g clip-path="url(#C)"><path fill="none" stroke="#000" stroke-linecap="round" stroke-linejoin="round" stroke-miterlimit="10" stroke-width=".5" d="M385.41797 483.3789l-3.49219-6.09765"/></g><g clip-path="url(#D)"><path fill="none" stroke="#000" stroke-linecap="round" stroke-linejoin="round" stroke-miterlimit="10" stroke-width=".5" d="M400.17188 481.8086l-6.3711-2.96094"/></g><g clip-path="url(#E)"><path fill="none" stroke="#000" stroke-linecap="round" stroke-linejoin="round" stroke-miterlimit="10" stroke-width=".5" d="M413.25 482.24219l-5.89453-3.82813"/></g><g clip-path="url(#F)"><path fill="none" stroke="#000" stroke-linecap="round" stroke-linejoin="round" stroke-miterlimit="10" stroke-width=".5" d="M427.09375 479.83203l-6.95703.99219"/></g><g clip-path="url(#G)"><path fill="none" stroke="#000" stroke-linecap="round" stroke-linejoin="round" stroke-miterlimit="10" stroke-width=".5" d="M426.08203 479.97656l.72266.99219"/></g><g clip-path="url(#H)"><path fill="none" stroke="#000" stroke-linecap="round" stroke-linejoin="round" stroke-miterlimit="10" stroke-width=".5" d="M438.6875 483.3711l-3.51172-6.08594"/></g><g clip-path="url(#I)"><path fill="none" stroke="#000" stroke-linecap="round" stroke-linejoin="round" stroke-miterlimit="10" stroke-width=".5" d="M452.1836 483.25781l-3.875-5.85937"/></g><g clip-path="url(#J)"><path fill="none" stroke="#000" stroke-linecap="round" stroke-linejoin="round" stroke-miterlimit="10" stroke-width=".5" d="M464.74219 483.63672l-2.35938-6.61719"/></g><g clip-path="url(#K)"><path fill="none" stroke="#000" stroke-linecap="round" stroke-linejoin="round" stroke-miterlimit="10" stroke-width=".5" d="M147.5039 467.29688l-7.0078-.56641"/></g><path fill="none" stroke="#000" stroke-linecap="round" stroke-linejoin="round" stroke-miterlimit="10" stroke-width=".5" d="M146.48438 467.21484l.48437 1.12891m13.83594-1.73047l-6.98047.80078m5.96484-.6836l.69531 1.01173m13.64454-1.05469l-6.9961.65234m5.97656-.55859l.67579 1.02344m13.3164-2.33203l-6.3125 3.08203m5.39453-2.63281l.9922.72265m13.40233-.78906l-6.63671 2.3164m5.67187-1.98046l.89844.83593m13.41797 1.02735l-6.71094-2.08203m19.4961-1.04688l-5.64844 4.17578m17.16015-2.08593l-.01953-.20313-.0586-.1914-.09374-.17579-.45703-.375-.19141-.0586-.19922-.01952-.19922.01953-.19531.0586-.45703.375-.09375.17577-.0586.19141-.01953.20313.01953.19921.0586.19141.09375.17578.45703.375.19531.0586.19922.01953.19922-.01953.1914-.0586.45704-.375.09375-.17578.0586-.1914.01952-.19922m14.82031 2.4414l-5.05078-4.88672m16.07813 5.94922l-.47656-7.01172m12.3203 6.79688l2.46485-6.58203m9.41797 5.58203l5.32813-4.58203m7.14062 2.4375l7.02344-.29297m8.57422 3.4375l2.45703-6.58203M330.86328 470.5l-.90234-6.97266m.76953 5.95704l-1 .71093m13.46875.29297l1.05469-6.94922m-.90235 5.9375l-1.15625.40625m12.86328.03125l3.96485-5.80078m-3.39063 4.95703l-1.21875-.13672m14.66797 1.35547l2.55078-6.55078m14.71485 5.55469l-5.35157-4.5586m13.1836.16797l5.61328 4.22266m9.4375 1.23438l2.14062-6.69141m-1.82812 5.71875l-1.20703.21875m13.95703.66406l2.64844-6.51172m-2.26563 5.5625l-1.21875.125m16.1289 1.01953l-1.30859-6.90234m1.1172 5.89844l-.95313.76953m14.96484.09766l-2.32031-6.62891m1.98437 5.66406l-.83203.90235m14.52344.05078l-2.39844-6.60547m2.39844 6.60547l-1.64453 1.8203"/><g clip-path="url(#L)"><path fill="none" stroke="#000" stroke-linecap="round" stroke-linejoin="round" stroke-miterlimit="10" stroke-width=".5" d="M147.48438 454.13672l-6.96875-.875"/></g><path fill="none" stroke="#000" stroke-linecap="round" stroke-linejoin="round" stroke-miterlimit="10" stroke-width=".5" d="M146.47266 454.00781l.4375 1.14844m13.85547-.80078l-6.90235-1.3125m5.89844 1.1211l.36328 1.17187m13.61719-3.26563l-6.22656 3.25781m19.78906-.60156l-6.71875-2.0586m18.67187 3.91798l-3.9961-5.77735m12.10548 1.45313l6.41406 2.8711m6.59766-1.45704l7.02343.04297m6.3711-.76953l6.86328 1.4961m-5.86719-1.27735l-.33203-1.17969m12.59766 2.14453l6.97265-.86719m-5.96094.7422l-.70312-1.00391m14.78906-2.37891l3.40625 6.14453m8.38281-4.45312l6.45704 2.76562m8.61718-4.57422l2.9375 6.38281m8.33985-3.41796l7.01172.45312m6.55468 1.08984l6.51172-2.6328m-5.5664 2.25l-.9375-.78907m13.96093 2.21484l5.20313-4.72265m-4.44531 4.03515l-1.15625-.41406m13.5039.85156l5.6211-4.21875m-4.80078 3.60157l-1.11329-.51954m15.33204 2.3672l2.17578-6.6797m-1.85938 5.70704l-1.20703.21484m12.64453-4.89063l5.30078 4.61329m-4.53125-3.94141l.27735-1.19531m11.48437 3.58593l6.86328-1.51171m-5.86328 1.29296l-.79687-.93359m13.12109-.39062l6.84766 1.57812m-6.84766-1.57812l-.63672-2.3711m14.10938 4.45313l6.53515-2.58594m-6.53515 2.58594l-1.8672-1.59375m16.46485 3.19922l3.96875-5.79688m-3.96875 5.79688l-2.4414-.27344m15.02343-.39844l5.4336-4.45703m-5.4336 4.45703l-2.26562-.9414m3.05469.29296l-1.12891-.46875m14.83594 2.05078l3.07031-6.3203m-3.07031 6.3203l-2.45313.08985m17.42578.26172l-.24218-7.02344m.24218 7.02344l-2.1289 1.22265"/><g clip-path="url(#M)"><path fill="none" stroke="#000" stroke-linecap="round" stroke-linejoin="round" stroke-miterlimit="10" stroke-width=".5" d="M147.51172 440.33984l-7.02344.08594"/></g><path fill="none" stroke="#000" stroke-linecap="round" stroke-linejoin="round" stroke-miterlimit="10" stroke-width=".5" d="M158.33594 440.38281l-.01953-.19922-.0586-.1914-.09375-.17578-.45703-.37891-.1914-.0586-.19922-.01953-.19922.01954-.19531.05859-.45704.3789-.09375.17579-.05859.1914-.01953.19922.01953.19922.0586.1914.09374.1797.45703.375.19532.05859.19922.01953.19922-.01953.1914-.0586.45703-.375.09375-.17968.0586-.1914.01953-.19923m11.76172 3.47266l1.0664-6.94531m12.7539 6.98828l.0547-7.02735m16.74218 4.15235l-6.91015-1.28125m19.50781-1.5586l-5.47656 4.40235m4.67969-3.76172l1.1289.48437m9.6875-2.39453l1.11719 6.9375m10.27734-.97656l4.95703-4.98047m7.40235 3.23828l6.86719-1.5m6.75 2.34375l6.26562-3.1836m-5.35547 2.71876l-1.0039-.70313m16.02734-3.90234l1.02734 6.95313m10.85938-6.40235l3.88281 5.85547m-3.3164-5.0039l.58202-1.07813m10.72657 2.20703l6.76562 1.89063m-5.78125-1.61329l-.26562-1.19921m12.60547.88671l6.74609 1.96094m-5.76563-1.67578l-.25-1.19922m12.59766.8711l6.72266 2.04687m-5.7461-1.75l-.23437-1.20312m12.44531 1.5l6.97656.85937m-5.96093-.73437l-.44141-1.14454m13.27734 3.35938l5.90235-3.8164m-5.04297 3.2578l-1.07031-.59374m13.32812.80468l6.29688-3.125m-5.37891 2.67188l-.9961-.71485M380.5 438.875l6.34375 3.01563m-5.42188-2.57813l-.05468-1.22266m12.14844 1.73438l6.9414 1.11719m-6.9414-1.1172l-.78907-2.3203m1.80078 2.48437l-.39843-1.16015m12.8828 2.78906l6.58204-2.46485m-6.58203 2.46485l-1.83985-1.6289m2.79688 1.26952l-.91797-.8125m13.86719 2.1875l5.39453-4.5m-5.39453 4.5l-2.27344-.92578m3.0586.27344l-1.13672-.46484m14.55859 1.8789l3.61328-6.02344m-3.61328 6.02344l-2.45313-.125m2.97657-.75l-1.22266-.0625m14.125 1.0039l3.39063-6.15234m-3.39063 6.15235l-2.45312-.03906m2.9453-.85547l-1.22655-.01953m15.26171 1.3164l.96485-6.96094m-.96485 6.96094l-2.30078.84375"/><g clip-path="url(#N)"><path fill="none" stroke="#000" stroke-linecap="round" stroke-linejoin="round" stroke-miterlimit="10" stroke-width=".5" d="M147.20313 425.625l-6.40625 2.88672"/></g><path fill="none" stroke="#000" stroke-linecap="round" stroke-linejoin="round" stroke-miterlimit="10" stroke-width=".5" d="M146.27344 426.04688l.96875.75m13.45312-.6836l-6.76172 1.91016m5.77735-1.63281l.85156.88671m13.27344 1.22657l-6.41406-2.8711M187.2539 428.25l-6.6172-2.36328m5.65626 2.01953l.17578 1.21484m14.17969-1.11718l-6.77344-1.8711m5.78516 1.59766l.26953 1.19922m14.11328-1.29297l-6.9336-1.13281m6.9336 1.1328l.78906 2.32032m12.48438-3.66015l-6.85157 1.54296m6.85157-1.54296l1.60156 1.85937m11.59375-2.27734l-6.61328 2.3789m5.65234-2.03125l.90625.82422m11.98438-2.92578l-3.83985 5.88672m3.28125-5.03125l1.21875.10937m9.23047-1.19921l3.0039 6.35546m-2.5664-5.42968l.73438-.98438m13.71093-.27734l-.1289 7.02734m.10937-6.0039l1.09375-.5547m9.60157.65235l5.14843 4.78516m13.38282-.07422l-5.28125-4.63672m14.3789 5.45703l3.15235-6.27734m15.14843 3.99219l-6.8164-1.70704m13.26172.2461l6.92187 1.21484m-5.91406-1.03515l-.38281-1.16797m14.62109 4.7578l3.0586-6.32421m-2.61329 5.40625l-1.22656.04297m14.59375 1.07031l2.0625-6.71484m-1.76172 5.73828l-1.20312.23437m15.98437.82032l-1.46875-6.8711m1.2539 5.8711l-.9375.78906m14.61329.17578l-1.76172-6.80078m1.50781 5.8125l-.90625.82812m10.41406-1.74218l6.35938-2.9961m-6.35938 2.9961l-1.96484-1.47266m2.89063 1.03516l-.98047-.73438m13.29297.98828l6.51562-2.6289m-6.51562 2.6289l-1.87891-1.57812M421.30469 428l-1.8789-1.57813m15.09765 3.20704l4.8164-5.1211m-4.8164 5.1211l-2.36719-.64454m3.07031-.10156l-1.1836-.32031m14.66798 1.66406l3.07422-6.3164m-3.07422 6.3164l-2.45313.08985m2.89844-1.00782l-1.22656.04297m14.25781.94922l2.75-6.46484m-2.75 6.46484l-2.44531.21484m2.84375-1.15625l-1.22266.10938"/><g clip-path="url(#O)"><path fill="none" stroke="#000" stroke-linecap="round" stroke-linejoin="round" stroke-miterlimit="10" stroke-width=".5" d="M146.96875 411.8711l-5.9375 3.76562"/></g><path fill="none" stroke="#000" stroke-linecap="round" stroke-linejoin="round" stroke-miterlimit="10" stroke-width=".5" d="M146.10547 412.41797l1.0664.60937m13.46485-.41797l-6.64453 2.28907m5.67969-1.95703l.89453.83593m13.5625-.36328l-6.9961.67969m5.97656-.58203l.6797 1.02344m13.24609.89062l-6.1797-3.34765m16.42579 5.1875l-.04297-7.02735m.03906 6.00781l-1.08203.58204m14.57813.43359l-.39453-7.01563m.39453 7.01563l-2.09766 1.27344m17.07422-1.80078l-3.71875-5.96094m3.17578 5.09375l-.61328 1.0625m16.01172-2.28516l-6.79688-1.78515m6.79688 1.78515l.5625 2.39063m12.72656-4.26172l-6.75 1.95703m5.76953-1.67188l.85547.88282m8.26172-3.20313l3.60938 6.02735m11.1875-6.51172l.64453 7m-.55078-5.98047l1.02734-.67188m10.45703.30469l4.1211 5.69531m-3.52344-4.86718l.54297-1.10157m11.0703 1.59375l6.32813 3.05469m-5.41015-2.60937l-.04688-1.22657m13.19531-.2461l4.82422 5.10938m-4.1211-4.36718l.39063-1.16016m13.00782 6.08594l3.25-6.23047m-2.77735 5.32422l-1.22656.01172m17.6836.67578l-3.98048-5.78906m17.51563 5.625l-4.41797-5.46485m3.77344 4.67188l-.48047 1.1289m10.51953 0l3.42578-6.13281m-2.92969 5.24219l-1.22656-.02735m12.26563-1.77343l6.98437-.75m-6.98437.75l-1.3789-2.03125m14.70702 1.17187l6.95703.96875m-6.95703-.96875l-.84375-2.30469m1.85547 2.44532l-.42187-1.15235m12.70312 1.78907l7.0039-.58594m-7.0039.58594l-1.32812-2.06641m14.63671 1.57812l7.01563.39063m-7.01563-.39063l-1.03125-2.23046m17.69141-1.08594l.32422 7.01953m-.27734-5.9961l1.05468-.625m10.15235 5.83594l4.44531-5.44531m-4.44531 5.44531l-2.40625-.48047m15.66015.42579l4.57032-5.33594m-4.57032 5.33594l-2.39453-.53516"/><g clip-path="url(#P)"><path fill="none" stroke="#000" stroke-linecap="round" stroke-linejoin="round" stroke-miterlimit="10" stroke-width=".5" d="M147.19531 398.98047l-6.39062 2.91406"/></g><path fill="none" stroke="#000" stroke-linecap="round" stroke-linejoin="round" stroke-miterlimit="10" stroke-width=".5" d="M146.26563 399.40625l.97265.7461m13.46875-.63673l-6.78125 1.84766m5.79297-1.57812l.83984.89062m13.38672-1.40625l-6.6289 2.33594M183 403.82422l1.89063-6.76953m12.3828 6.89844l-.02734-7.02735m.02735 7.02735l-2.16406 1.16015m14.15234-1.41406l2.625-6.51953m-2.625 6.51953l-2.4375.25781m17.23437-.00781l-.33593-7.01953m.33593 7.01953l-2.10937 1.2539m18.24219-2.91406l-5.97266-3.69922m5.97266 3.69922l-.16016 2.44922m11.64453-7.61719l-2.3086 6.63672m1.97266-5.67187l1.21094-.1875m9.51172 5.57031l3.54688-6.0625m8.0664 2.51563l6.94922 1.03125m-5.9375-.87891l-.41016-1.15625m12.92188.22656l6.53125 2.58985m-6.53125-2.58985l-.27344-2.4375m13.77344 2.04297l6.16406 3.375m-6.16406-3.375l.03125-2.45313m13.01562 3.08594l6.69922 2.11328m-6.69922-2.11328l-.44922-2.41406m13.7422 2.48047l6.74218 1.98047m-6.74219-1.98047l-.4961-2.40235m15.7461 6.59766l2.875-6.41406m-2.45703 5.48047l-1.22266.08203m14.85157 1.08594l1.41015-6.88282m-1.41015 6.88282l-2.35547.6953m14.51172-1.15624l3.72656-5.96094m-3.72656 5.96094l-2.44532-.17188m14.1172-3.01953l7.01562.42578m-5.9961-.36328l-.5078-1.11719m13.1328-.23437l6.35547 3.0039m-6.35547-3.0039l-.11328-2.45313m14.36719 1.2461l4.48047 5.41406m-4.48047-5.41406l.9336-2.26563m11.16015 4.35547l6.91797 1.23828M421.16406 400l-.375-1.16797m19.01563-.41406l-5.7461 4.03906m4.91016-3.45312l1.09375.55859m13.08203-1.10938l-5.79687 3.97266m4.95312-3.39453l1.08984.5664m11.96485-2.17968l-3.58594 6.04297m3.0625-5.16406l1.22656.05859"/><g clip-path="url(#Q)"><path fill="none" stroke="#000" stroke-linecap="round" stroke-linejoin="round" stroke-miterlimit="10" stroke-width=".5" d="M146.57031 384.73047l-5.14062 4.78515"/></g><path fill="none" stroke="#000" stroke-linecap="round" stroke-linejoin="round" stroke-miterlimit="10" stroke-width=".5" d="M145.82422 385.42578l1.16016.40235m13.4414-.33985l-6.21875 3.27344m5.3125-2.80078l1.01563.6914m10.51562-3.01562l-.84375 6.97656m.84375-6.97656l2.28906-.88672m9.3711 1.08203l2.46875 6.58203m-2.46875-6.58203l1.625-1.83594m9.47265 5.78516l6.90235-1.3164m-6.90235 1.3164l-1.53906-1.91016m15.72656 3.63672l5.16016-4.76953m-5.16016 4.76953l-2.3164-.8086m3.0664.11329l-1.16015-.40234m16.4375 2.22265l-.26563-7.01953m.26563 7.01953l-2.1211 1.23438m2.08203-2.2539l-1.0625.61718m15.3047.2539l-2.04298-6.72265m2.04297 6.72265l-1.73828 1.73438m16.66016-2.76172l-5.2539-4.66797m5.2539 4.66797l-.58203 2.38672m14.73828-4.15625l-6.9375-1.1289m5.92578.96484l.39844 1.16015m8.07421-4.14062l4.76954 5.16015m-4.07813-4.41015l.40625-1.15625m12.3164.3164l4.57032 5.33985m-3.90625-4.5625l.44922-1.14063m12.71094 0l3.55078 6.06641m-3.55078-6.0664l1.28906-2.08594m-.76953 2.96875l.64062-1.04297m10.97266 1.29687l5.91797 3.79297m-5.91797-3.79297l.19922-2.44531m.66406 2.9961l.09766-1.22266m14.10547-.73047l2.41796 6.59765m-2.41796-6.59765l1.63671-1.82813m-1.28515 2.78907l.82031-.91407m10.17578 4.75782l6.35156-3.00782m-6.35156 3.00782l-1.96875-1.46485m16.28516 2.71875l4.34765-5.51953m-4.34765 5.51953l-2.41406-.4375m3.04687-.36719l-1.20703-.21875m12.69922-.72265l6.73047-2.02344m-6.73047 2.02344l-1.72656-1.7461m14.99218-.10937l6.82422 1.6836m-5.82812-1.4375l-.30078-1.19141m13.96093-1.05078l4.14453 5.67578m-4.14453-5.67578l1.07032-2.20704m11.79687 2.59375l5.03906 4.90235m-4.30468-4.1875l.34375-1.17969m16.92187 5.6836l-4.32812-5.53516m3.69921 4.73047l-.5 1.1211m15.19922-1.12892l-5.83984-3.91015M439 388.5078l-.1211 1.22266m12.37891-5.97266l-2.02343 6.73047m1.73046-5.75l1.20313-.23828m13.53516-.16406l-4.28125 5.57422"/><g clip-path="url(#R)"><path fill="none" stroke="#000" stroke-linecap="round" stroke-linejoin="round" stroke-miterlimit="10" stroke-width=".5" d="M465.70313 384.33594l2.41796.40625"/></g><g clip-path="url(#S)"><path fill="none" stroke="#000" stroke-linecap="round" stroke-linejoin="round" stroke-miterlimit="10" stroke-width=".5" d="M141.08984 371.83984l5.82032 3.9336"/></g><path fill="none" stroke="#000" stroke-linecap="round" stroke-linejoin="round" stroke-miterlimit="10" stroke-width=".5" d="M153.80469 373.99219l7.01953-.36719m10.03906-3.32422l-.46484 7.01172m.39453-5.98828l1.1211-.5039m14.44921.4414l-4.83984 5.09375m4.83984-5.09375l2.36719.65625m10.48047-1.03125l-3.90235 5.84375m3.90235-5.84375l2.4414.2461m-3.0078.60546l1.21874.1211m11.21875 5.42578l-1.01172-6.95313m1.01172 6.95313l-1.98047 1.45312m15.60547-1.51172l-1.63281-6.83594m1.63281 6.83594l-1.83984 1.6211m1.60156-2.6172l-.92188.8125m15.38672-.17577l-3.45703-6.11719m3.45703 6.11719l-1.3164 2.07031m.8164-2.96094l-.66015 1.03516m15.08984-.58594l-4.6875-5.23437m4.6875 5.23437l-.84375 2.30469m.16406-3.0664l-.42578 1.15234m14.53125-.4961l-4.91015-5.02734m4.91015 5.02734l-.74218 2.33985m13.49609-7.8125l-3.78516 5.92187m3.78516-5.92187l2.44531.1953m10.4414-.42968L289 377.00391m2.92969-6.39063l2.44922-.14453m-2.875 1.07422l2.44922-.14453m11.59765-.625l-3.54297 6.07031m3.54297-6.07031l2.45313.09765m-2.96875.78516l2.45312.09766m11.48047-.91797l-3.7461 5.94531m3.7461-5.94531l2.44922.1836m-2.99219.68358l2.44531.1797m11.87891-.69532l-4.67578 5.24219m4.67578-5.24219l2.38281.58203m-3.0625.17969l2.38281.58203m12-.9375L341 376.02344m5.45313-4.42969l2.26171.95703m-3.05468-.3125l1.1289.47656m7.19531-.64062l6.11329 3.46875m-6.11329-3.46875l.07032-2.45313m12.8164 4.6211l6.97266-.86719m-5.96094.73828l-.70312-1.0039m14.97656-2.47266l3.02734 6.34375m-2.58593-5.42188l.73046-.98437m10.14454 3.30469l7.02734-.14063m-6.0039.1211l-.59766-1.07032m16.3125 4.53125l.17969-7.02344m-.15235 6l-1.09765.55079m16.35156-.06641l-3.75-5.94531m3.75 5.94531l-1.21875 2.1289m15.03515-2.51171l-4.7539-5.17969m4.0625 4.42578l-.41016 1.15625m14.88281-5.0586l-5.68359 4.13282m4.85547-3.53125l1.10156.53516m13.28125-.75391l-6.16797 3.36719"/><g clip-path="url(#T)"><path fill="none" stroke="#000" stroke-linecap="round" stroke-linejoin="round" stroke-miterlimit="10" stroke-width=".5" d="M466.64453 372.125l2.05078 1.35156"/></g><path fill="none" stroke="#000" stroke-linecap="round" stroke-linejoin="round" stroke-miterlimit="10" stroke-width=".5" d="M465.75 372.61719l1.02344.67187"/><g clip-path="url(#U)"><path fill="none" stroke="#000" stroke-linecap="round" stroke-linejoin="round" stroke-miterlimit="10" stroke-width=".5" d="M140.8789 358.8789l6.2422 3.22657"/></g><path fill="none" stroke="#000" stroke-linecap="round" stroke-linejoin="round" stroke-miterlimit="10" stroke-width=".5" d="M153.80078 360.4375l7.02734.11328m-6.0039-.09765l-.5586-1.09375m12.85157 1.16015l7.02734-.05469m-6.0039.04688l-.58594-1.07813m17.77344-2.17187l-2.76563 6.46094m17.7461-4.98047l-6.09376 3.5m5.20703-2.98828l1.03907.65234m13.26562-.96484l-6.30469 3.10546m6.3047-3.10546l1.99218 1.43359m-2.91016-.98438l.9961.71875m10.58203 3.86329l-.99219-6.95704m.99219 6.95704l-1.98047 1.4453m1.83594-2.45702l-.99219.72265m15.1875.09766l-2.46484-6.57813m2.46484 6.57813l-1.6211 1.83984m15.51173-2.11328l-3.61329-6.02734m3.61328 6.02734l-1.26562 2.10156m14.46484-2.03906l-3.38672-6.15625m2.89454 5.26172l-.67188 1.02735m16.11719-2.08594l-6.66016-2.25m5.6914 1.92187l.19923 1.21094m11.0586-5.50781l-.60548 7m.60547-7l2.25781-.96094m-2.34765 1.98047l2.25781-.96094m-2.34375 1.98047l1.1289-.48047m12.89063-1.46875l-1.66797 6.82422m1.66797-6.82422l2.3789-.60547m-2.62109 1.59766l1.19141-.30469m13.57422-.13672l-4.08203 5.71875m4.08203-5.71875l2.4336.32422m-3.02735.50781l1.21875.16016m11.83594-1.4375l-2.3711 6.61328m2.3711-6.61328l2.42968-.35547m-2.77343 1.3164l2.42578-.35156m10.9961-.6875l-1.89845 6.76563m1.89844-6.76563l2.39453-.52343m-2.67187 1.50781l1.19922-.26172m13.51953-.17187l-4.15235 5.66796m4.15235-5.66796l2.42969.34765m-3.03516.47656l2.42969.35157m10.875-1.53906l-2.92188 6.39062m2.92188-6.39063l2.45312-.14453m12.69531 2.1172l-6.58593 2.4453m6.58593-2.4453l1.83594 1.6328m11.6914-.15234l-7.01171-.51563m5.99219.44141l.49218 1.1211m11.82422 1.8789l-2.97656-6.36328m2.54297 5.4375l-.73438.98047m14.08594.10156l-2.17969-6.67969m1.85938 5.71094l-.84766.88281m15.16016-.21875l-3.53516-6.0703m3.02344 5.1875l-.64844 1.04296m14.09375.03516l-2.77343-6.45704m2.37109 5.51563l-.76953.95703m16.1836-4.92578l-6.16798 3.36328"/><g clip-path="url(#V)"><path fill="none" stroke="#000" stroke-linecap="round" stroke-linejoin="round" stroke-miterlimit="10" stroke-width=".5" d="M466.64453 358.8125l2.05078 1.34766"/></g><g clip-path="url(#W)"><path fill="none" stroke="#000" stroke-linecap="round" stroke-linejoin="round" stroke-miterlimit="10" stroke-width=".5" d="M140.70703 345.94922l6.58594 2.45703"/></g><path fill="none" stroke="#000" stroke-linecap="round" stroke-linejoin="round" stroke-miterlimit="10" stroke-width=".5" d="M153.90625 346.33203l6.82031 1.6914m-6.82031-1.6914l-.59766-2.3789m13.85938 3.82421l6.92578-1.19921m-6.92578 1.19921l-1.5039-1.9375m14.83202 2.01563l6.89844-1.35547M181.5 347.66016l-.77344-.95313m17.55469.47266l-.01953-.19922-.0586-.19531-.09375-.17579-.45703-.375-.1914-.05859-.19922-.01953-.19922.01953-.19531.0586-.45703.375-.09375.17578-.0586.1953-.01953.19923.01953.19922.0586.1914.09375.17578.45703.375.19531.0586.19922.01953.19922-.01953.1914-.0586.45703-.375.09375-.17578.0586-.1914.01953-.19922m15.73047-.73047l-6.875 1.45703m5.875-1.2461l.78906.94141m13.60156-.42187H220.375m7.02734 0l1.15235 2.16406m-2.17188-2.16406l.57422 1.08203m10.35547 2.42969l-.21094-7.02344m.17969 6l-1.0664.60937m13.85546.38672l.90235-6.96875m-.77344 5.95313l-1.14844.4336m14.96875.60546l-.3711-7.01953m.32032 5.9961l-1.05469.6328m17.73047-3.49609l-6.98828.7539m5.97266-.64452l.6875 1.01562m7.41015-2.94531l5.48047 4.39453m-5.48047-4.39453l.45313-2.41016m14.23437 1.3711l2.73438 6.47265m-2.73438-6.47265l1.55078-1.90235m-1.15234 2.84375l.77344-.95312m14.3789-.15625l-1.73437 6.8086m1.73437-6.8086l2.38282-.58203m-2.63672 1.57421l1.1914-.29296m12.03907-.76954l-1.0586 6.94922m1.0586-6.94921l2.3125-.8125m9.29297.97656l2.35937 6.6211m-2.35937-6.6211l1.65234-1.8125m-1.3086 2.77734l.82422-.90625m12.89063-.23437l.8711 6.97265m-.8711-6.97265l2.00781-1.41016m-1.88281 2.42578l1.0039-.70703m13.71485-.16016l-2.1836 6.67579m2.1836-6.67579l2.41797-.42187m-2.73828 1.39062l1.21093-.20703m13.14063-.4336l-3.6211 6.01954m17.89844-5.16797l-5.54297 4.3164m19-4.12109l-5.82812 3.92579m4.98047-3.35547l1.08203.57812m8.17187 3.70703l3.98829-5.78515m-3.98829 5.78515l-2.4375-.28125m16.52344.6836l2.44922-6.58985m-2.09375 5.6289l-1.21484.16407m15.72265 1l-.64843-6.9961m.55468 5.98048l-1.02343.67187m17.3789-1.86719l-6.53906-2.57421m5.58594 2.19921l.14062 1.21875"/><g clip-path="url(#X)"><path fill="none" stroke="#000" stroke-linecap="round" stroke-linejoin="round" stroke-miterlimit="10" stroke-width=".5" d="M140.6875 332.69531l6.625 2.33594"/></g><path fill="none" stroke="#000" stroke-linecap="round" stroke-linejoin="round" stroke-miterlimit="10" stroke-width=".5" d="M153.8164 333.53906l6.9961.64844m-6.9961-.64844l-.94921-2.26172m1.96875 2.35547l-.47656-1.1289m12.76562 1.59765l7.01172-.48047m-7.01172.48047l-1.29688-2.08203m14.69141 2.61719l6.85156-1.54688m-6.85156 1.54688l-1.60156-1.86328m2.59766 1.63672l-.80079-.9297m13.03907.1875l7.01562.38673m-7.01562-.38672l-1.03125-2.22656m14.34375 2.59765l7.01953-.35547m-6 .3047l-.6289-1.05079m19.82812.01563l-6.78907 1.8164m5.80078-1.55078l.83594.89844m13.53125-.8711l-6.91797 1.23438m6.91797-1.23438l1.51563 1.9297m11.85547-1.33985l-7.02735.05469m6.0039-.04688l.58204 1.08203m13.26563.72656l-6.04688-3.57812m5.16797 3.0586l-.05469 1.22265m14.38281-.95313l-6.3164-3.07812m15.7539-1.90235l1.4375 6.87891m-1.22656-5.875l.9414-.78515m10.02735 1.17578l5.71094 4.09375m-5.71094-4.09375l.32422-2.4336m14.13672 1.41016l3.41797 6.14062m-3.41797-6.14062l1.33594-2.0586m-.83594 2.95313l.66406-1.03125m12.30078.0586l3.11719 6.29687m-3.11719-6.29688l1.42969-1.99218m11.6875 2.09765l3.51562 6.08594m-3.51562-6.08594l1.30078-2.08203m11.28906 2.64063l4.96875 4.96875m-4.96875-4.96875l.71485-2.34766m.00781 3.07031l.35547-1.17187m12.91015-.07813l3.6211 6.02344m-3.6211-6.02344l1.26172-2.10156m-.73437 2.97656l.6289-1.05078m16.73829 1.02735l-5.53907 4.3203m4.73438-3.6914l1.11719.5m8.98046-2.2539l2.50391 6.5664m-2.14062-5.60937l.80859-.92579m11.38281.3711l4.02344 5.76172m-3.4375-4.92188l.5586-1.09375m13.92968 6.64063l.50781-7.00781m11.84766 6.80078l2.42578-6.59375m-2.07422 5.6328l-1.21484.16798m15.66406 1l-.54687-7.00781m.54687 7.0078l-2.07031 1.31641m17.0625-1.89843l-3.89844-5.84375m3.33203 4.99609l-.58203 1.07813"/><g clip-path="url(#Y)"><path fill="none" stroke="#000" stroke-linecap="round" stroke-linejoin="round" stroke-miterlimit="10" stroke-width=".5" d="M141.91797 317.71875l4.16406 5.66016"/></g><path fill="none" stroke="#000" stroke-linecap="round" stroke-linejoin="round" stroke-miterlimit="10" stroke-width=".5" d="M153.83203 320.08594l6.96484.92187m-6.96484-.92187l-.85937-2.29688m14.16797 3.17969l6.97656-.83984m-6.97656.83984l-1.40235-2.01563m14.7539 2.2422l6.90626-1.29688m-6.90625 1.29687l-1.53125-1.91797m14.82812 1.82032l6.9414-1.10157m-6.9414 1.10157l-1.47656-1.95704m2.48828 1.79688l-.73828-.97656m13.04688 0l6.92968 1.17187m-6.92969-1.17187l-.77343-2.32813m14.46875 1.23828l6.17187 3.35547m-6.17187-3.35547l.01953-2.45312m15.72266.67969L237.86327 324m-1.125-5.89844l.95703-.76953m16.03516 1.78906l-6.42188 2.85157m5.48828-2.4336l.96485.7539m13.5664-.13671l-6.98437.78125m5.96875-.66797l.6914 1.01563m12.4375-3.40235l-4.58202 5.32813m3.91406-4.55078l1.19922.26953m9.11718-1.61328l2.75391 6.46484m-2.35547-5.52344l.77344-.95703m11.7539.21094l3.53125 6.07422m-3.01953-5.1914l.64844-1.04298m12.1836.14063l3.47265 6.10937m-3.47265-6.10937l1.3164-2.07031m11.78516 2.20312l3.89844 5.84766m-3.89844-5.84766l1.16406-2.16016m11.69531 2.52344l4.8125 5.1211m-4.8125-5.1211l.78906-2.32422m-.08984 3.07031l.39453-1.16406m11.61328 1.17188l6.02735 3.61328m-6.02735-3.61328l.12891-2.45313m.75 2.97656l.0625-1.22265m12.42188.6211l5.92968 3.76952m-5.92969-3.76953l.19141-2.44531m13.71875 1.73828l4.74219 5.1836m-4.05469-4.4297l.41016-1.15624m12.94531-.11328l3.28516 6.21093m-2.8086-5.30468l.6875-1.01563m11.9414.23047l3.70704 5.96875m-3.16797-5.09766l.61328-1.0625m11.98438.3086l4.0625 5.73437m-3.47266-4.89844l.55078-1.09765m13.20313 6.4961l2.0039-6.73438m-1.71093 5.75781l-1.20313.24219m16.21094.74219l-1.96875-6.7461m1.96875 6.7461l-1.7539 1.71093m15.82812-2.03515l-3.48438-6.10157m3.48438 6.10157l-1.3086 2.07421"/><path fill="#00f" fill-rule="evenodd" d="M383.80078 441.01953h8.61719V430.8711h-8.61719v10.14844"/><path fill="azure" fill-rule="evenodd" d="M385.63281 432.70703h.83203v2.82031h3.28907v-2.8203h.83203v6.47655h-.83203v-2.91406h-3.28907v2.91406h-.83203v-6.47656"/><path fill="#ff3030" fill-rule="evenodd" d="M211.39844 436.57813h7.6914v-10.14454h-7.6914v10.14454"/><path fill="azure" fill-rule="evenodd" d="M213.23047 428.26563h.83594v5.74218h3.1914v.73828h-4.02734v-6.48046"/><path fill="#00f" fill-rule="evenodd" d="M246.21094 427.70313h8.61719v-10.14454h-8.6172v10.14454"/><path fill="azure" fill-rule="evenodd" d="M248.04297 419.39063h.83594v2.82421h3.28515v-2.82421h.83203v6.48046h-.83203v-2.91796h-3.28515v2.91796h-.83594v-6.48046"/><path fill="#ff3030" fill-rule="evenodd" d="M317.91797 374.4414h7.69531v-10.14452h-7.69531v10.14453"/><path fill="azure" fill-rule="evenodd" d="M319.7539 366.1289h.83204v5.7422h3.1914v.73827h-4.02343v-6.48046"/><path fill="#ff3030" fill-rule="evenodd" d="M424.4414 374.4414h7.69141v-10.14452h-7.6914v10.14453"/><path fill="azure" fill-rule="evenodd" d="M426.27344 366.1289h.83203v5.7422h3.19531v.73827h-4.02734v-6.48046"/><path fill="#ff3030" fill-rule="evenodd" d="M206.96094 365.5664h7.6914v-10.14452h-7.6914v10.14453"/><path fill="azure" fill-rule="evenodd" d="M208.79297 357.2539h.83203v5.73829h3.19531v.74219h-4.02734v-6.48047"/><path fill="#ffffe0" fill-rule="evenodd" d="M408.32031 404.19531H430.5V394h-22.17969v10.19531"/><path fill-rule="evenodd" d="M411.82031 395.83594h.50781v6.29297h-.78906v-4.48829h-1.38672v-.55468l.5586-.0664.2539-.0547.23047-.08984.20313-.14063.17187-.21093.14063-.29297.10937-.39453m4.8125 0l.23047.01562.21875.0586.20703.08984.19531.1211.1836.14843.17187.17578.30079.41797.24609.4961.17969.54296.10937.58204.03906.58984-.03906.59375-.10937.58203-.1797.55469-.24608.5039-.30079.42579-.17187.17968-.1836.15625-.1953.1211-.20704.09375-.21875.05468-.23047.01954-.23047-.01954-.21875-.05468-.20703-.09375-.19531-.1211-.1875-.15625-.16797-.17969-.30469-.42578-.24218-.5039-.1797-.55469-.11327-.58203-.03516-.59375h.83203l.02735.5625.08203.50781.1289.4414.16016.375.1914.30079.21094.22265.22266.13672.22656.04688.22656-.04688.22266-.13671.21094-.22266.1914-.30078.16016-.375.125-.4414.08203-.50782.03125-.5625-.03125-.5625-.08203-.5-.125-.4336-.16015-.36718-.19141-.29297-.21094-.21094-.22265-.13281-.22657-.04688-.22656.04688-.22266.13281-.21093.21094-.19141.29297-.16016.36719-.1289.43359-.08203.5-.02735.5625h-.83203l.03516-.58985.11328-.58203.17969-.54296.24218-.4961.3047-.41797.16796-.17578.1875-.14844.19531-.12109.20703-.08984.21875-.0586.23047-.01562m4.95313 0l.22656.01562.22266.0586.20703.08984.19531.1211.1836.14843.17187.17578.30078.41797.2461.4961.17968.54296.10938.58204.03906.58984-.03906.59375-.10938.58203-.17969.55469-.24609.5039-.30078.42579-.17188.17968-.18359.15625-.19531.1211-.20703.09375-.22266.05468-.22656.01954-.23047-.01954-.21875-.05468-.20703-.09375-.19922-.1211-.1836-.15625-.17187-.17969-.30078-.42578-.24219-.5039-.17969-.55469-.11328-.58203-.03515-.59375h.83203l.02734.5625.08203.50781.125.4414.16406.375.19141.30079.21094.22265.22265.13672.22657.04688.22656-.04688.22266-.13671.21093-.22266.1875-.30078.16407-.375.125-.4414.08203-.50782.03125-.5625-.03125-.5625-.08203-.5-.125-.4336-.16407-.36718-.1875-.29297-.21093-.21094-.22266-.13281-.22656-.04688-.22656.04688-.22266.13281-.21094.21094-.1914.29297-.16407.36719-.125.43359-.08203.5-.02734.5625h-.83203l.03515-.58985.11328-.58203.1797-.54296.24218-.4961.30078-.41797.17188-.17578.18359-.14844.19922-.12109.20703-.08984.21875-.0586.23047-.01562m4.95312 0l.38672.02734.35938.08203.3203.13672.28126.1875.23047.23438.17187.28906.10938.33203.03515.375-.01953.27344-.0586.23828-.08593.19922-.11328.16797-.1289.14453-.14063.1211-.28516.19921.23047.11719.21094.14844.17969.17187.15625.1914.12109.21485.08984.23047.0586.24219.01953.2578-.03516.3086-.10547.32422-.17187.32813-.23828.30468-.3086.26954-.37109.21484-.21094.08203-.23047.0586-.24218.03906-.26172.01171-.26172-.01171-.24219-.03907-.22265-.05859-.20704-.08203-.35546-.21485-.29297-.26953-.22266-.30468-.15625-.32813-.09375-.32422-.02734-.3086h.83203l.02734.25.07813.23829.12109.21094.16016.1836.1953.15233.21876.1172.23828.0703.25781.02735.2539-.02735.23829-.0703.22266-.1172.1914-.15234.16016-.1836.125-.21093.07422-.23828.02734-.25-.02734-.2539-.07422-.23438-.125-.21485-.16016-.18359-.1914-.15234-.22266-.11329-.23828-.07421-.2539-.02344-.25782.02344-.23828.07421-.21875.11329-.19531.15234-.16016.1836-.1211.21484-.07812.23437-.02734.2539h-.83203l.01562-.2539.0586-.24219.08984-.22265.125-.20703.15234-.1914.1836-.17188.20703-.15235.23047-.13281-.28516-.19922-.14063-.1211-.1289-.14452-.11328-.16797-.08594-.19922-.0586-.23828-.01952-.27344h.78515l.02344.21484.0664.19141.10547.16797.13672.13672.16406.11328.1875.08203.20704.05078.22265.01563.21875-.01563.20703-.05078.1875-.08203.16797-.11328.13672-.13672.10156-.16797.06641-.1914.02344-.21485-.02344-.21484-.0664-.19141-.10157-.16406-.13672-.14063-.16797-.11328-.1875-.07812-.20703-.05079-.21875-.01953-.22265.01954-.20704.05078-.1875.07812-.16406.11328-.13672.14063-.10546.16406-.06641.1914-.02344.21485h-.78515l.03906-.375.10547-.33203.17578-.28906.23047-.23438.27734-.1875.32422-.13672.35547-.08203.39062-.02734"/></g></defs><use xlink:href="#Z"/></svg>