<svg xmlns="http://www.w3.org/2000/svg" role="img" xmlns:xlink="http://www.w3.org/1999/xlink" viewBox="142.45 309.95 326.84 171.84"><defs><clipPath id="a"><path d="M144 311.67188h1v168.65625h-1zm0 0"/></clipPath><clipPath id="b"><path d="M144 311.67188h324v168.65625H144zm0 0"/></clipPath><clipPath id="c"><path d="M467 311.67188h1v168.65625h-1zm0 0"/></clipPath><clipPath id="d"><path d="M144 479h4v1.32813h-4zm0 0"/></clipPath><clipPath id="e"><path d="M147 480h2v.32813h-2zm0 0"/></clipPath><clipPath id="f"><path d="M153 479h9v1.32813h-9zm0 0"/></clipPath><clipPath id="g"><path d="M160 480h2v.32813h-2zm0 0"/></clipPath><clipPath id="h"><path d="M166 479h9v1.32813h-9zm0 0"/></clipPath><clipPath id="i"><path d="M172 480h2v.32813h-2zm0 0"/></clipPath><clipPath id="j"><path d="M180 479h8v1.32813h-8zm0 0"/></clipPath><clipPath id="k"><path d="M186 480h2v.32813h-2zm0 0"/></clipPath><clipPath id="l"><path d="M193 479h8v1.32813h-8zm0 0"/></clipPath><clipPath id="m"><path d="M199 480h2v.32813h-2zm0 0"/></clipPath><clipPath id="n"><path d="M206 479h9v1.32813h-9zm0 0"/></clipPath><clipPath id="o"><path d="M212 480h2v.32813h-2zm0 0"/></clipPath><clipPath id="p"><path d="M220 479h8v1.32813h-8zm0 0"/></clipPath><clipPath id="q"><path d="M226 480h1v.32813h-1zm0 0"/></clipPath><clipPath id="r"><path d="M233 478h8v2.32813h-8zm0 0"/></clipPath><clipPath id="s"><path d="M247 477h7v3.32813h-7zm0 0"/></clipPath><clipPath id="t"><path d="M261 477h6v3.32813h-6zm0 0"/></clipPath><clipPath id="u"><path d="M274 477h6v3.32813h-6zm0 0"/></clipPath><clipPath id="v"><path d="M287 477h7v3.32813h-7zm0 0"/></clipPath><clipPath id="w"><path d="M301 477h6v3.32813h-6zm0 0"/></clipPath><clipPath id="x"><path d="M315 476h4v4.32813h-4zm0 0"/></clipPath><clipPath id="y"><path d="M330 476h1v4.32813h-1zm0 0"/></clipPath><clipPath id="z"><path d="M343 476h2v4.32813h-2zm0 0"/></clipPath><clipPath id="A"><path d="M356 476h2v4.32813h-2zm0 0"/></clipPath><clipPath id="B"><path d="M368 476h4v4.32813h-4zm0 0"/></clipPath><clipPath id="C"><path d="M381 476h5v4.32813h-5zm0 0"/></clipPath><clipPath id="D"><path d="M393 478h8v2.32813h-8zm0 0"/></clipPath><clipPath id="E"><path d="M407 478h7v2.32813h-7zm0 0"/></clipPath><clipPath id="F"><path d="M420 478h8v2.32813h-8zm0 0"/></clipPath><clipPath id="G"><path d="M425 479h3v1.32813h-3zm0 0"/></clipPath><clipPath id="H"><path d="M434 477h6v3.32813h-6zm0 0"/></clipPath><clipPath id="I"><path d="M447 477h6v3.32813h-6zm0 0"/></clipPath><clipPath id="J"><path d="M462 476h3v4.32813h-3zm0 0"/></clipPath><clipPath id="K"><path d="M144 466h4v2h-4zm0 0"/></clipPath><clipPath id="L"><path d="M144 452h4v3h-4zm0 0"/></clipPath><clipPath id="M"><path d="M144 439h4v3h-4zm0 0"/></clipPath><clipPath id="N"><path d="M144 425h4v4h-4zm0 0"/></clipPath><clipPath id="O"><path d="M144 411h4v5h-4zm0 0"/></clipPath><clipPath id="P"><path d="M144 398h4v5h-4zm0 0"/></clipPath><clipPath id="Q"><path d="M144 384h3v6h-3zm0 0"/></clipPath><clipPath id="R"><path d="M144 371h3v6h-3zm0 0"/></clipPath><clipPath id="S"><path d="M465 371h3v2h-3zm0 0"/></clipPath><clipPath id="T"><path d="M144 358h4v5h-4zm0 0"/></clipPath><clipPath id="U"><path d="M466 358h2v2h-2zm0 0"/></clipPath><clipPath id="V"><path d="M144 345h4v4h-4zm0 0"/></clipPath><clipPath id="W"><path d="M144 332h4v4h-4zm0 0"/></clipPath><clipPath id="X"><path d="M144 317h3v7h-3zm0 0"/></clipPath><g id="Y" clip-path="url(#clip1)"><path fill="#fff" fill-opacity="0" fill-rule="evenodd" d="M0 0h1000v1000H0zm0 0"/><path fill="#d3d3d3" fill-opacity="0" fill-rule="evenodd" d="M162.15234 355.86719l-.23437.29297.0586.23437.11718.17188.17578.23437.29297.34766.11328.0586.11719-.17188.0586-.23438.17577-.17578.46485-.17578h.69922l.23437.29297.28906.8164.0586.17579.17578.23046.35156.23438.69922.69922.17188.17578.23437.34765.23438.41016.28906.58203.41015.46485.23047.23437.23438.17578.11719.23047.17578.29297.17187 1.16406v.23438l.0586.28906.05859.11719.11719.11719.34765.41015.11719.17188.17578.17578.17578.23437.11719.17188.17188.35156.05859.23438.23437.40625.23438-.0586-.17578.17578-.0586.92969h-.58203l-.23437-.11328-.34766.11328-.11719.11719-.05859.29297-.0586.17578-.11718.17187-.46484.29297-.0586.23438-.0586.11328v.64453l.0586.17187v.41016l.0586.0586v.40624l.05859.40625.11719.17579.05859.05859.23047.64062-.0586.29297v.69922l-.05859.58203v.23438l-.0586.23047-.05468.35156v1.92187l.05469.1172h.42578l-.36719.11718-.02344.35156.89063 1.16797 1.74219.53906 1.33984.35938v.53906l.08984.8086.53516.71484 1.51953.26953.89063-.08594.08984 1.16406.53516.1797 1.16015-.1797 2.05469-.98437 1.16016-.36328 1.8789-.17578 1.69531-.1797-.17968.71876-1.51563.08594-1.25.08984-.80469.26953-1.07421.8086.26953.71875.53515.89843-.17968.625-.26563.8086.26563 1.07812.625.89844.80468.17969 1.25-.1797-.26562.72267.09766.5039.05468.29297v.17188l.0586.29296v.40625l.17578.1172.35156.11718h.40625l.29297-.17578.11328-.11719.0586-.11719.11718-.23047.0586-.17578.35156-.46484.23047-.17578.17578-.0586.17578.0586.0586.17578.11718.98828.05469.46875.0586.17188.11718.23437.17578.0586.8164.05859h.28907l.11719.23437.05859.40625.0586.35156v1.10547l.11718.29297.11719.34766.28906.69922.17578.35156.58203.7539.35157.17579.17187.0586.46875.23437.64063.46484.34765.23438.29297.17578.29297.05468.23047.0625.8164.34766.29297.17578.11328.17188.35157.35156.11719.17578.52343.64063v.28906l.0586.35156v.34766l.05859.35156.0586.28906.11718.0586.17188.05859h.17578l.58203.23437.17578.1172.17578.28905.17578.23438.11328.23437.29297.23047.11719.11719v.41016l.0586.05468.28906.23438.23437.11719.0586.11718.11718.17188.0586.11719.23047.23437.05859.17578.23437.0586.1172.05859-.1172.11328-.05859.11719v.11719l-.11719.29296-.11719.28907v.58203l.17579.11719.11718.05859.0586.11719.11719.11719.11328.05859.17578.34765.0586.35157.05858.40625v.17578l-.05859.17578-.11719.69922v.17187l.1172.17579.29296.29296h.40625l.17578.1172.11719.17187.11719.29296v.23438h-.52735l-.23047-.23438h-.23437l-.17578.0586-.0586.69922.0586.34765.11719.17579.17578.41015.11718.23047.28907.46875.17578.05469h.52344l.23437.0586.75781.64062.0586.29296v.23438l.05859.0586.23047.34765v.35156l-.11719.17188v.29297l.29297.28906.29297.17578.17187.0586.29297.17577.29297.1172.58203.40624.28906.23438.29297.17578.21875.16015.01563.01172.23047.17579.64062.52343.17578.23438.1172.17578.17577.17578.11328.17188v.64062l.1172.17578.46874.11719.58203.11719.23438.05859.23047.11328.29297.11719.11328.0586.58593.35156.28907.17187.17578.0625.17578.05469.17578.0586.69922.35155.28906.17579.23438.05468.28906.17578.23437.1172.64063.40624.29297.11719.17187.0586.23438.05859.41015.05859.23047.0586.23438.11718.0586.17188-.41017.17578.46875.0586.0586.29296.11328.23438.17578.05468.23438.0586.17578.05859.40625.11719.64062.23437.11719.17188.0586.23437v.17578l-.0586.1172-.0586.40624.23438.23438.11719.05859.34766.11719.64062.23047.17578.11718.28906.1172.17578.17577.23438.46485.58203 1.10546.17578.17579.34766.17578.17578.11719.35156.11718 1.04688.52344.23437.0586.46485.11327.29297.0586.46484.17578.75781.58203.23438.23438.34765.46484.17578.17578.28907.23438.8164.69921.29297.17579.28906.28906.29297.17578.29297.28906.69531.64063.17578.17578.29297.23437.28907.23438.46875.28906.64062.58203.34766.23438.23437.29297.34766.34765.35156.46485.9336.99218.34765.40625.11719.17579.23437.05859.11328.11719.64454.17578.23047.11328.23437.0586.29297.17577.23047.1172.9336.69921.40624.40625.23438.17578.40625.17578.23437.11719.8164.34766.34766.23437.23438.11719.29297.28906.23047.11719.7578.35156.35157.17188.23047.05859.29297.11719.23437.0586.8711.17577h.8164l.46875.23047.17188.0586.875.69921.46484.1172.29297.05858.17578.0586.23047.0586.46875.05859.34766.05859.35156.0586.40625.05859h.29297l.17187.0586v.23046l.17578.17578h.29297l.34766.0586.35156.05859.69922.11719h.64063l.46484-.23438.29297-.17578.17187-.11719.41016-.17187.28906-.17578.9336-.46485.46875-.29297.52343-.29296.46485-.17188.46484-.17578 1.05078-.46485.28906-.11718.41016-.11719.28906-.11719.52735-.17578 1.51562-.69922.58203-.34765.28907-.0586.29297-.0586.34765-.11718.875-.23047.35156-.11719h.11329l.23437-.05859.875-.23437.23438-.0586h.8125l.35156-.0586.8164-.11718.17188-.0586.35156-.05468.29297-.0586.23047-.05859.8164-.17578.17579-.0586h.34765l.23438-.05859.46484-.11718.75781-.17188.23438-.0586h.34765l.41016-.11718.28906-.0586 1.28516-.05859h.28906l.41016-.0586.23047-.05858h.17578l.875-.1172h.40625l.41015-.11718h.34766l.35156-.11328.8711-.0586h1.75l1.04687.28907.41016.11719.28906.11718.35156.11719.28907.11719 1.05078.17187.28906.0586h.29297l.29297.05859.17187.0586.41016.05859.17187.0586.1172.05858h.11718l.11719.0586.35156.0586h.11328l.41016.0664 1.92187.39453 1.92578.39453 1.51953.44922 1.69532.71875 2.14453.80469 1.60547-.71875 1.42968-.80469 1.16016-1.07813 1.25-.44921 3.03516-.71875 1.875-.35938 2.14453-1.34765 2.23437-1.25391 2.5-1.25781 1.69531-.44922 1.78516-.17969 1.16016-.26953.625.53906 1.33984-.26953.71485-.98828.98437-1.34375.44531-.17969.80469-.35937 1.875-.53907 1.78516-.44921 1.25-.26954 1.16015-.08984 1.69922-.08984 1.96094-.26954 1.25-.08984h.53906l.625-.08984h.89063l2.14453-.17969 2.41015-.17969 2.58985-.08984 1.69531.17969 1.60938.08984 1.42968.35938 1.16016.71875 1.875.98828 1.16015 1.52734.26563.71484.6289.08985.35548.89844.53515.53906.53516 1.52734 1.07422.35938h.53515l-.80469.53515.08985 1.70703.71484 2.69532.89063.80468.89453.98829.71484 1.2578 1.78516.53907 1.51953-.17969.35547 1.34375 1.60937-.80469.98047-.53906.26953.26953.31641-.21484.21875-.14453.80078.44922.44922-.35938h.35547l.53515-.26953.53907-.71875.53515-.26953.625-.98828 1.16016.44922.83984.3711 1.39454.61718 1.6953-.17969h1.60548l1.78515.08985.17969-1.70704.53516-1.34375.80468.26954.4922.84765.40233.40625-.08984.53906v.35938l.71485.44922.71093-.26953h1.42969l.35938.98828.4453 1.25781.71485 1.34375 1.25.6289 1.69531.62891.71485-.17969.17969-.53906.98046-.08984.44922.35937.08594 1.25782-.26563.6289-.53515.17969v.53906l.71484.98438.26563.53906.98437.98828.80078 1.07813-.26562.35937-.08985.89844-.625 2.33203-.35546 2.0664-.08985 1.79298-.17969.71875-.08984.53906v1.4375l-.98047 1.88281-.35937 1.70703-.53516.89844-.80469 1.16797-.26562.53906 2.05469 1.2539.08593.35938-.35546.53906-.08985-.17968v.80859l.08985 1.4375-.44532.71484-1.07422.09375-.26562.71485.53515.89844.8047.71875 1.16015.80859 1.33984.26953.44531.35938-.35546.44921-1.78907-.08984-1.25-.44922-.71484-.71875-.625-.08984-.17578 3.58984-.1875 1.3086h89.35937V311.70313h-55.26953v49.08203l.76172.125 3.28906.54296 2.02344 2.83594v2.7539l2.35156.33204 2.34766.33203h4.05078l-1.3789 4.16016-2.02344.70703-2.02344.70312-.54297.34375-2.59375 1.6172-.1875.11718-2.02344-2.07813-.73046-2.74218-2.67188-2.07813-1.375-3.5-.0664-.08203-1.95704-2.67188 2.75-1.41796v-49.08204H294.42187v91.41407l.1172.03125.1328.01172.07422.07421.10547.04688.08985.0586.08593.05859.08985.0586.29687.29687.0586.08984.03125.11719.02734.11719.01563.13671-.03125.1172-.0586.08983-.0586.08594-.04296.10547-.04688.10156-.02734.1211v.14453l.17578.26953.14844.14844.07422.08594.07422.07421.04296.10547.0625.08985.0586.08593.04297.10547.0586.08985.04687.10156.04296.10547.0586.08594.11719.17968.07421.07422.0625.08594.0586.08984.04297.10547.0586.08985.05858.08593.0625.08985.0586.08984.04297.10156.11719.17969.07421.07422.0586.08594.07422.07421.08984.0586.10547.04687h.14844l.1328-.01562.13282.01562.10156-.04687.07422-.07422.04688-.10156-.01563-.13281v-.14844l-.04687-.10547-.02735-.11719-.04687-.10156-.02735-.1211-.04296-.10156-.0625-.08984-.04297-.10156-.04297-.10547-.03125-.11719-.01563-.13281-.01171-.13672.08593-.0586.0586-.08593.12109-.03125.04297.10547.01562.1328v.1172l.0586.10156.0586.08984.08983.0586.14844.14843.0586.08985.04296.10547-.01171.10156.08593.0586.10547.04687.08594.0586.08984.05858.07422.07422-.11719.02735-.10546.04687-.08594.0586-.07422.07421-.0586.08985-.0625.08594-.02734.12109-.04687.10156-.04297.10547-.03125.11719-.01172.13281-.01563.13281v.14844l.02735.11719.04687.10547.04297.10156.0586.08984.07421.07422.08985.0586.07422.07421.08984.0586.0586.08984.04296.10547.04688.10156.11719.03125.1328.01563h.14845l.11718-.03125.10547.04297.04297.10547.04688.10156.02734.1211L299.5 410l.02734.11719.03125.1211.02735.11718.10547.04297.10156.04687.13281-.01562.14844.14844.0625.08593.07422.07422.07031.07422.08984.0625.10547.04297.10156.04297.1172.03125.13671.01562.11719-.03125.07422-.07422.02734-.11718-.01172-.13282-.03125-.12109-.02734-.11719.04297-.10547h.11719l.08984.0625.11719.02735h.14843l.13282.01562h.14843l.13282.01563.1328-.01563h.14845l.1328-.01562.13282-.01172.13672.01172.11719-.02735.13281-.01562.1914-.0586-.05859.17579-.01562.1328-.02735.1211-.01562.13281-.0586.08594-.1328.01563-.10548.04687-.10546.04297-.1172.03125-.11718.02735-.26563.03125h-.14843l-.13281.01562-.07422.07422.05859.08594.14844.14843.11719.1797.07421.0703.08985.0625.08984.0586.08594.0586.08984.05858.10156.04297.10547.0625.10547.04297.08594.0586.10547.04687.10156.04297.17969.11719.0586.08984-.04298.10156-.04687.10547.01562.13281.22266.22266.0586.08985.04296.10156.03125.1211.04297.10155.01563.13282.03125.11718.01171.13672.03125.11719.14844.14844.10156.04297.10547.04296.1172.03125.1328.01563.13672.01563h.11719l.11719-.03125.08984-.0586.04297-.10547.04688-.10156.04296-.10547.03125-.11719.01172-.1328v-.14845l-.01172-.1328-.01562-.13282-.03125-.11719-.04297-.10547-.04688-.10547-.04296-.10156-.04297-.10547-.01563-.13281.01563-.13281.02734-.11719.03125-.11719.02735-.1211.04687-.10155.08984-.0586.08594-.0625.07422-.07422.08984-.05859.22266-.22266.0586-.08593.07421-.07422.11719-.17969.0586-.08594v-.14844l-.07423-.07421-.10156-.04688-.10547-.04297-.10156-.04297-.0586-.08984-.04687-.10547-.02734-.11719.08984-.05859.11719-.03125.10156-.04297.17969-.11719.14844-.14843.01172-.13282-.01172-.10546-.08985-.0586-.1328.01563h-.14845l-.1328.01562-.13282-.01562-.1211-.03125-.08593-.0586-.07422-.07422-.0586-.08984-.0625-.08594-.11718-.17969-.0586-.08593.03125-.1211.08594-.05859.1211-.03125.05859-.08594v-.1211l-.03125-.11718-.0586-.08984-.05859-.08594-.04687-.10547-.02735-.11719-.01562-.1328.0586-.08985.07421-.07422.08984-.0586.1172-.17968.07421-.07422.0586-.08594.14843-.14844.1211-.03125.1328-.01562.13282.01562.07422.07422.04297.10547.01562.13281-.03125.1172-.11719.03124-.1328.01172-.14844.14844-.04297.10547-.04688.10156-.02734.1211-.03125.11718v.14844l.03125.11719.04297.10546.05859.08985.07422.07031.07422.07422.11719.03125.12109.02734.11719-.02734.1328-.01563h.1172l.08984.0586.07422.07422.04687.10546.0586.08594.10156.04688.13281.01562.10547.04297.08594.0586-.01172.10546-.07422.07422-.17969.11719-.05859.08984-.08984.0586-.07032.07422-.07421.07421-.0625.08985-.02735.11719-.01562.1328.01562.13282-.01562.13281v.14844l.01562.13281.02735.1172.03125.12108.07421.07422.08985.0586.08594.0586.08984.05858.11719.03125v.08594l-.10157.04688-.08984.0586-.26563.03124-.11718.02735h-.14844l-.10547.04296-.10156.04688-.0586.08984-.0625.23438-.01171.13281-.03125.1211-.01563.1328v.29298l-.01172.1328.01172.13673.01563.1328.1328.01563.13282.01172.1211.03125.08593.0586.07422.07421.04688.10547.04296.10157.01563.1328v.44532l-.01563.13281v.44532l.03125.26562.02735.11719.01562.13281.03125.11719.08594.21094.03125.26562v.14844l-.03125.11719-.02734.11718-.03125.1211-.02735.11719-.03125.11718-.03125.1211-.01171.1328-.01563.13282.08984.0586.1172-.03125.10155.01562.04688.10547-.03125.26562v.44141l-.04297.10547-.04688.10547-.04296.10156-.04297.10547-.0586.08594-.03125.12109-.04296.11719-.03125.11719-.01563.1328.01563.13282.05859.08984.10547.04688.08594.0586.05859.08593-.01172.13672-.03125.11719-.04297.10156v.44531l-.01562.13281v.14844l-.03125.11719-.04297.10547-.02735.11719-.04687.10546-.04297.10157-.03125.12109-.02734.11719-.03125.13281-.03125.11719-.02735.11719-.04297.10546-.03125.1172-.03125.12108-.01171.13282-.01563.13281v.29688l.02734.11718v.14844l.04688.39844.02734.11719.0586.08984.12109.03125h.14844l.13281-.01563.0586.08985v.11719l-.0586.08984-.08984.0586-.10157.04296-.10546.04688-.08985.05859-.08594.0586-.13671.01562-.1172-.03125-.1328-.01563-.10157.04688-.0625.08594-.01172.13671-.01562.13282-.03125.11719-.02735.11718-.01562.13281-.03125.1211v.29687l.01563.13282.03125.11718v.14844l.01171.13281v.14844l-.02734.11719-.04688.10156-.02734.1211-.03125.11718-.0586.08985-.07421.07421-.10156.04297-.10547.04688-.11719.02734-.1211.03125-.10156-.04687.0586-.08594.10547-.04688.02734-.11718.03125-.11719.02734-.1211.03125-.11718v-.14844l.01563-.13281-.03125-.11719-.04297-.10547-.10547.01563-.07422.07422-.10156.04296-.08984.0625-.07422.07422-.04297.10157-.01563.1328-.03125.1172L304.25 426l-.03125.11719-.02734.11719-.03125.12109-.02735.11719-.03125.11718-.04297.10547-.08984.0586h-.08984l-.1172-.03125-.03124-.08594.01562-.13672-.03125-.11719v-.14844l-.01171-.1328v-.14844l-.0625-.23438-.02735-.1211-.04297-.10156-.04687-.10546-.0586-.08594-.05859-.08985-.04297-.10546-.0625-.08594-.14844-.14844-.0703-.07422-.10548-.04687-.10547-.04297-.10156-.04297-.29687-.29688-.08985-.07421-.08594-.0586-.10546-.04297-.08985-.0625-.08594-.0586-.10546-.04296-.08985-.0586-.08594-.0625-.07421-.0703-.10547-.04688-.08594-.0586-.10547-.04296-.08984-.0625-.10156-.04297-.10547-.04297-.08594-.0586-.10547-.04687-.10547-.04297-.10156-.04687-.08985-.0586-.10156-.04297-.10547-.04296-.08984-.0625-.11719-.02735-.13281-.01562-.13281.01562H299.75l-.13281.01563-.11719-.03125-.08984-.0586-.07422-.07422-.08985-.05859-.10156-.04688h-.14844l-.12109-.02734-.10156-.04297-.07422-.07422-.11719-.17968-.08984-.0586-.10156-.04297-.08985-.0625-.10547-.04296-.08984-.0586-.08594-.0586-.10547-.04687-.0586-.08594-.05858-.08984-.04297-.10547-.04688-.10156-.07422-.07422-.08594-.0586-.07421-.07421-.08985-.0586-.22265-.22265-.04297-.10547-.03125-.26563.10547-.04296h.14453l.10547.04296.07421.07422.08985.0586.08594.0586.10546.04687.08985.05859.14844.14844.0703.07422.14845.14843.0625.08594.07421.07422.08594.0586.07422.07421.08985.0625.08984.0586.08594.05859.26953.17578.10156.04688.10547.04296.10156.04297.04688-.07421.05859-.08594.07422-.07422.07031-.07422.10547.04297.07422.07422.0586.08984.04296.10156.04688.10547.04296.10547.1211.02735.11719-.02735.07421-.08984.04297-.10547.0586-.08985.07422-.07421.10546-.04297.1172-.02735.1328.01172.08985.0586.14844.14843.05859.08985.04297.10547.04687.10156.04297.10547.04297.10156.10547.04688.10547.04296.13281.01563.08594-.0586.0586-.08984.07421-.07422.10547-.04297.11719.02735.10547.04687.10156.04297.10547.04297.10156.04688.17969.11718v.11719l-.01563.13281.01563.13281.01562.13672.0586.08594.10156.04688.1211.02734.11718.03125h.14844l.11719-.03125.05859-.08984.17969-.1172.05859-.08983.07422-.07422.0586-.08594.11718-.17969.17969-.11719.11719.03125.08984.0586.04297.07422-.01563.1328v.1172l.08985.05859h.14843l.13282-.01563.1328-.01171.26563-.03125.10547-.04297.11719-.03125.1211-.02735.07421-.07421.07031-.07422.0625-.08985-.01562-.10547-.04688-.10156-.10156-.04297-.10547-.01562-.11718.02734-.26563.03125h-.14844l-.07421-.07422-.08985-.0586-.11719-.03124-.11718-.02735-.13282-.01562h-.14843l-.13282.01563h-.29687l-.10547-.04688-.14844-.14844-.04297-.10156-.05859-.08984.22266-.22266.08593-.0586.10547-.04296.11719-.03125.13281-.01563.13281.01563.13672.01562.10157.04297.1328-.01172.08985-.0625.10156-.04297.0625-.08984-.04687-.10156-.08984-.0586-.1172-.03125-.10155-.04296-.0586-.08985-.0625-.08984v-.11719l.01563-.13281.10547-.04688.07421-.07031v-.1211l-.08984-.05859-.03125-.11719.08985-.05859.07421-.07422.04297-.10547.0586-.08984.04687-.10156.01563-.13281v-.14844l-.04688-.10547-.04297-.10156-.08984-.0586-.13281-.01562-.10157-.04297-.13671-.01563-.1172-.03125h-.4453l-.13282-.01562-.13281-.01172-.13281-.01563-.11719-.03125h-.14844l-.13281-.01562-.13281-.01172-.26563-.03125-.1211-.04297-.08593-.0586-.07422-.07421v-.14844l.01172-.13281.10547-.04688.10156-.04296.13281-.01563h.15235l.13281-.01562h.29297l.1211.03125.10156.04296.08984.0586.23438.0625.12109-.04688.08984-.05859.10156-.04297.13282-.01562.10547.04296.10156.04688.13281.01172.1211-.02735h.14453l.12109-.03125.11719-.02734.10547-.04687.07421-.07422.08594-.0586.14844-.14843.0586-.08594.04687-.10547.02734-.11719.01563-.10547-.10156-.04296-.08985-.0586-.11719-.03125-.10546-.04297-.08985-.0625-.07422-.08594-.07422-.07421-.10156-.04297-.10547-.04688-.10156-.04297-.0586-.08984-.04687-.10156-.08594-.21094-.0625-.08594-.05859-.08984-.07422-.07422-.08594-.0586h-.26953l-.11719.03126-.08984.05859-.10156.04297-.13281.01562-.10547-.01562-.02735-.11719-.0625-.08984-.11718-.03125-.10157-.04297-.14843-.14844-.03125-.11719-.01563-.10546.07422-.07422.17969-.1172.11719-.02733.11718-.03125.13672.01562.10156.04297.10547.04297.10156.04687.10547.04297.1172.03125.1328.01563.1172.02734.1328.01563.10547-.01563.08985-.0586-.07422-.07421-.10547-.04297-.07422-.07422-.07422-.08984-.14844-.14844-.08593-.0586-.08985-.05859-.07422-.07422-.08984-.0586-.10156-.04687-.1211-.02734-.10156-.04688-.10547-.04296-.11719-.03125-.10156-.04297-.1211-.03125h-.14843l-.11719.03125-.10546.04297-.08594.0625-.17969.11718-.08594.0586-.08984.0586-.10547.04687-.08594.05859-.10547.04297-.10156.04297-.10547.04687-.07422.07422-.05859.08985-.0586.08593-.04687.10547-.0586.08594-.07421.07422-.13281-.01172-.1172-.03125h-.11718l-.07422.07422-.08984.0586-.07422.07421-.08984.0586-.08594.05859-.10547.04687-.10156.04297-.13672.01563-.10156-.04297-.14844-.14844-.10547-.04688h-.08594l-.10547.04688-.10156.04297-.1211.03125-.11718-.03125-.07422-.07422v-.11719l.03125-.1211.07422-.0703.0586-.08985.07421-.07422.11719-.03125.10547-.04296h.29297l.13281-.01563.13672-.01563.10156-.04296.08985-.0586.10156-.04687.08984-.0586.13281-.01171.08985.05859.13281.01172.08984-.0586.08594-.05859.10547-.04297.08984-.0586.08594-.0625.08985-.05859.14843-.14843.0586-.08594.05859-.08985.10547-.04296.13281-.01563.11719.02735.1211.03125.05859-.0586.05859-.08984.03125-.26563.02734-.11719.10547.01172.13281.01563.10157-.04297.08984-.0586.0586-.08984.07421-.07422.0586-.08984.04687-.10156.01172-.13281-.01172-.13282-.04687-.10547-.14844-.14843-.0586-.08985-.05859-.08594-.04297-.10546v-.44532l.01563-.1328v-.14845l.01172-.1328-.0586-.0586-.08984.0586-.10156-.04298-.17969-.11719-.08594-.05859-.0625-.08984-.0586-.08985-.07421-.07421-.08594-.0586-.1211.03125-.10155.01172-.10547.04688-.08594.05859-.10547.04297-.14844.14844-.08984.05859-.08594.0586-.08984.0625-.10547.04296-.13281.01563v-.1211l.10547-.04297.11718-.03125.07422-.0703.04297-.10548v-.14844l-.02734-.11718-.14844-.14844-.13281-.01563h-.14844l-.11719.03125-.10547.04297-.10156.04297-.08984.0625-.11719.02735-.07422-.07422.01172-.13281-.04297-.10157-.04297-.10547-.08984-.05859-.11719.02734-.1211.03125-.11718.03125-.10156.04297-.1211.03125-.10156.04297-.10547.04297-.08984.0586-.10156.01562v-.11719l.01562-.13281-.0586-.08985-.07421.04297-.14844.14844-.0586.08985-.07421.07421-.04688.10547-.04296.10156-.07422.07422-.0586.08985-.07422.07422-.05859.08593-.07422.07422-.08984.0625-.07422.07031-.07422.07422-.10156.01563-.13281.01562-.10547-.04296v-.1211l.14843-.14844.04297-.10156.0586-.08984.04687-.10156.04297-.10547.0586-.08985.03124-.11719.04297-.10156.03125-.1211.02735-.11718.04687-.10547.04297-.10156.04297-.10547.07422-.07031.08984-.0625.08985-.0586.10156-.04296h.29687l.26563-.03125.10547-.04297-.07422-.07422-.11719-.03125-.10547-.04297-.08984-.0586-.10156-.04687-.08985-.0586-.10156-.04296-.10547-.04297-.08984-.0625-.08594-.0586-.10547-.04296-.10156-.04297-.1211-.03125-.11718-.03125-.10157-.04297L297.5 410.25l-.10156-.04297-.08985-.0586-.04296-.10546-.01563-.13281.10156-.04297.13281-.01563.13672.01563.13282-.01563.10156-.04297.0586-.08984.01562-.10547-.08985-.0586-.07421-.07421-.10157-.04297-.08984-.0586-.14844-.14843-.04297-.10547-.01562-.13281v-.29297l-.0586-.08985-.08984-.05859-.07422-.07422-.04297-.10547-.03125-.11718-.0586-.08985-.07421-.07422-.11719-.02734-.07422-.07422-.08984-.0586-.08984-.0625-.08594-.05859-.07422-.07421-.0586-.08594-.04687-.10547-.08594-.0586-.14843-.14843-.19532-.0586-.1328.01563-.10157.04297-.07422.07422-.04688.10156-.04296.10547-.0586.08984-.0586.08594-.29687.29687-.08984.0586h-.08594l-.0625-.08594-.04297-.10547.03125-.11719.0586-.08984.02734-.11719-.01172-.13281-.08984-.0625-.10547.04688-.11719.02734-.11719.03125-.26953.17578-.10156.04688-.11719.02734-.10546.04687-.08985.0586-.10156.04297-.0586-.08594-.04687-.10547.01563-.13281.04687-.10547.07031-.07422.07422-.07031.0586-.08985v-.14843l-.04297-.10547h-.23829l-.10156.04687-.03125.11719-.02734.11719-.03125.1211-.07422.04296-.13281.01563-.07422-.04688-.04297-.10156-.04297-.10547-.04687-.10156-.04297-.10547-.1211.03125-.10156.04297-.13281.01562-.11719.03125-.10547.04297-.08984.0586-.10156.04687-.1211.02734-.13281.01563-.10156-.04297-.0586-.08985-.04687-.10546-.04297-.10157-.04297-.10546v-.1172l.0586-.08984.08593-.05859.17969-.11719.10156-.04687.10547-.04297.10547-.0586.10156-.04296.08985-.0625.10156-.04297.10547-.0586.10156-.04687.08984-.0586.10547-.04296.10156-.04297.08985-.0625.10156-.04297.13672-.01563.11719.03125.10156.04297.1211.03125.10156.04297.10546.04688.10157.04296.10547.04297.10156.04688.10547.04297.10156.04297.10547.04687.08594.0586.10546.04296.1172.03125.10546.04297.10156.04688.08985.0586.10547.04296.10156.04297.10547.04687.11719.02735.10156.04687.1211.02735h.14843l.08594-.0586.01562-.10156.0586-.08984-.02735-.1172-.07422-.07421-.11719-.17969-.07421-.07422-.08985-.07421-.17969-.1172-.08593-.05859-.10547-.04296-.10156-.04688-.26954-.17578-.05859-.08985-.07422-.07421-.0586-.08985-.04296-.10156-.03125-.11719-.01563-.13672v-.5625l-.01171-.1328-.01563-.13282-.03125-.11719-.01562-.13281-.01172-.13281-.03125-.1211-.22266-.22265-.0586-.08594-.01562-.10547.03125-.11719.13281-.01562v-91.41406H172.9922v1.45312l-.0586.23438-.35156 1.05078-.17187.52343-.1172.34766-.17577.41016-.11719.17187-.23438.29297-.23046.0586h-.35157l-.11718.05859-.23047.40625v.29297l.11719.17578.23046.23047.1172.23437.64062.75781.29297.46485.17578.23437.23047.35156.23437.34766.64063.8164.17578.46485.17187.41016.11719.69531.17578.46875.11719 1.39844.0586.46484v.875l.11718 1.04688v4.78125l-.0586.46484-.35156 1.28125-.17578.52344-.11328.41015-.35156.9297L172.93359 336l-.23437.58203-.11719.17578-.17187.34766-.17578.40625-.35157.8164-.0586.29297-.11327.29297-.11719.28906-.0586.17579-.11718.875-.0586.40625-.05859.11718-.0586.17579-.05859.17187-.23047.52734-.11718.17188v.23437l-.11719.23438-.0586.17187-.17577.58594v.28906l-.0586.17579v.29296l-.0586.11329-.05859.52734v.17187l-.05468.23438v2.6211l-.17578.8164-.1172.17578-.17577.23438-.1172.17187-.11327.23438-.58594.93359-.23047.28906-.29297.46485-.17578.23437-.28906.35156-.35156.69922-.11328.23047-.17579.41016-.17578.23046-.40625.52735-.8164.69922-.29297.17187-.28906.23438-.17579.11719-.17578.17578-.52344.40625-.52734.17578-.17187.17578-.23438.05469-.64062.17578h-.75782m12.21094 31.02344l-1.07422.44921.35938.89454 1.25-.71485.44531-.53906-.98047-.08985"/><path fill="#d3d3d3" fill-opacity="0" fill-rule="evenodd" d="M201.50781 416.59766h-.89453l.44922.6289.98047.35938.80469-.08985.4453-.98828-.17577.08985-.71485-.35547-.89453.35547m154.6211 59.0703l-.0586-.52343v-.29297l.11328-.29297.0586-.23046.46875-.46875h.11328l.11719-.11329.11718-.05859h.17579l.23437-.0586h.34766l.23437.0586.11719.0586.23047.17187.0586.17578.11718.58203v.29297l-.11719.17578-.17187.28906-.17579.17579-.52734.52343-.23047.23438-.11719.0586h-.17578l-.11718-.0586-.40625-.29297-.17579-.11719-.11718-.0586-.0586-.11327-.05468-.1172m6.64062-10.95702l-.0586-.17188v-1.10937l.0586-.17188.17578-.0586.17188-.05858h.17578l.23437-.0586.1172.0586.05858.69921-.05859.17188-.11719.17578-.11718.0586-.23438.52343-.11328.0586h-.23438l-.05859-.1172m9.61328-14.39062l-.11719-.17578v-.69922l.29297-.875.1172-.17187.17577-.35156.11328-.23047.1172-.29297.35155-.75781.1172-.23047.17187-.23438h.17578l.11719-.0586h.64062l.11719.0586.23437.23438.17188.11328.35156.29297.11719.11718.11328.17579v.11328l.11719.05859.11718.11719v.69922l-.05859.17578v.23047l-.0586.17578-.34765 1.05078-.11719.23047-.11719.23437-.11718.0586-.23047.23437-.64063.28906h-.875l-.41015-.11718-.64063-.46485"/><path fill="none" stroke="#bebebe" stroke-linecap="round" stroke-linejoin="round" stroke-miterlimit="10" stroke-width=".5" d="M467.95703 311.69531H144.02734v168.625h323.9297v-168.625"/><g clip-path="url(#a)"><path fill="#fff" fill-opacity="0" fill-rule="evenodd" d="M144 475.89063v4.4375h.0039H144V311.67188h.0039H144v164.21875"/></g><g clip-path="url(#b)"><path fill="#fff" fill-opacity="0" fill-rule="evenodd" d="M144.0039 480.32813V311.67188h44.37891v125.48437l-4.4375 1.59766-1.21094 1.6289 1.21094 2.95703 4.4375-1.24609 1.83203-1.71094-1.83203-3.22656V311.67187h22.1914v3.25391l-1.67577 1.1836 1.67578 1.54296 1.30078-1.54296-1.30078-1.1836v-3.2539h8.8789V412.8789l-.80468.875-2.71485 4.4375 3.51953 3.10546.62891 1.33204 1.53516 4.4414-2.16406 2.26953-2.2461 2.16797 2.1289 4.4375.1172.21094v6.55078l-4.4375 1.58203-.48829.53125.48828 2.58985v10.08203l-4.22656.64453-.21484.09765-1.0586 4.33985 1.0586.9375 4.4414.03125 4.4375.21484 2.63282-1.1836-2.63281-2.67187-2.98047-1.76562-1.45703-.64453v-10.08203l1.13671 1.85156 3.30078 1.0039.96094-1.0039 2.23047-4.4414-3.1914-2.11329v-6.55078l4.4375 1.32031 1.59375-1.53125 2.84375-.58203 4.4375-1.0586 3.04687-2.79687-3.04688-3.96094-.08984-.47656-4.34766-4.23437-.35546-.20703-.82813-4.4375-3.2539-4.08204-2.33204-.35546-2.10547-.875V311.67187h22.19141v108.16407l-2.85156 2.79297 2.85156 4.41406.04297.02734 4.39453 2.21875 4.4375-1.86328.44531-.35547-.4453-.34765-4.4375-3.77735-.19142-.3164-4.24609-2.79297V311.67188h84.32813v95.94921l-1.94141 1.69532-2.4961 1.08593-4.4375 1.28907-2.15234 2.0625-2.28906.83203-4.4375 3.21094-.5586.39453-3.8789.29687-3.51953-.29687-.91797-.66797-4.4414-1.625-2.63673 2.29297-1.80078 1.08984-2.6328-1.08984-1.8047-1.3672-1.64453 1.3672-2.79297 1.71875-4.4375.65234-1.51171-2.3711-1.89454-4.4375-1.03515-1.6289-4.4375-2.51563-4.4375 3.5625-.5586.58204-3.46875 4.4375.23438 4.4375-.23828 4.4414-.40625 1.3789-2.88281 3.0586 2.8828 3.51172.59766.92578-.59765.5664-3.41016 3.8711 3.41016 4.0625 4.4375-.08984 4.4375-2.88672 1.95703-1.08594 2.48047-.75 4.4414.05078 1.34375.69922 3.09375 1.53906 4.4375-.30468 4.4375 1.42578 2.66016-2.66016-2.66016-3.0586-1.36328-1.3789 1.08203-4.4375.28125-.60547 4.4375-.01171 4.44141-.14063v2.85156l-2.29297 2.34375 2.29297 2.26563v19.69531l-.32422.23047.07031 4.4375.25391.0586.07422-.0586.58203-4.4375-.65625-.23047v-19.69531l2.26172-2.26563-2.26172-2.34375V430.75l4.4375.30469 4.4375-.3086 4.4375-.18359 3.3711-3.49219-.52735-4.4414.72656-4.4375.8711-2.35157 4.4375 1.07422 4.4375 1.15235 4.4375-.44922 2.83593.57422 1.60157 1.08984 4.4414 2.40625 2.3164.9414 2.1211.8711.9414-.8711 2.10548-4.4375-.70703-4.4375-2.33985-2.65234-2.2539 2.65235-2.1836 1.74609-4.4414 1.79297-1.10157-3.53906-3.33593-4.22266-.76172-.21484-3.67578-1.69532v-95.94921h22.1914v118.49218l-1.39453 1.34375 1.39453 1.94531 1.33985-1.9453-1.33985-1.34376V311.67187h22.1914v94.81641l-4.27343 2.82813-.16406.03515-4.4375 2.46875-1.9336 1.9336-1.89843 4.4375.05078 4.4375.52344 4.4414 3.2578 3.29688.22657 1.14062.1914 4.4375-.41796 4.21485-4.4375-.84766-4.4414.98828-4.4375-2.91406-3.0586 2.9961-1.3789 1.02343-2.04298-1.02344-2.39453-1.72656-4.4414.77734-1.16407.94922-3.27343 2.80078-4.4375 1.3047-.34766.33202.34766.84375 3.9375 3.59766-3.9375 1.94531-3.0547 2.49219-1.3828 1.13672-.79688-1.13672-3.64062-2.23047-4.44141-.54297-2.47266 2.77344-.6289 4.4375 3.10156 2.20312 4.4414.16797 4.4375-.74219 4.4375-.30468 4.4375 1.32422 4.4375-1.46094L336 458.13672l3.28906-3.5664 4.4375-.3711.80469-.5 3.63281-1.10938 4.4375-.67187 4.4414.16406.57032-2.82031 3.86719-.66797 1.1914.66797-.67578 4.4375-.51562.61328-4.30469 3.82422-.13281.1875-3.78906 4.25 3.78906 2.61719 4.4375.41796.97265 1.40625 1.28907 4.4375 2.17578 3.77344 4.4375-2.61719 2.58594 3.28125 1.85156.92579 1.29687-.92579 3.14454-1.4414 4.4375.95312 4.4375-.16796 3.59375-3.78125-2.46094-4.4375-.72656-4.44141 4.03125-1.1875.53906 1.1875 1.5039 4.4414 2.39454 2.29688 4.4414.80469 3.11328-3.10156 1.32422-.27344 4.4375-.41016 3.8125-3.75781.625-2.9414 1.60156-1.4961-1.11328-4.4375 3.95313-2.36328 1.80078-2.07422 1.84375-4.4414-.94531-4.4375-2.69922-3.80079-.67969-.63672-3.76172-2.625-4.4375.85938-2.08203 1.76562-2.35547.48047-4.4375 1.52344-3.10547 2.4336-1.33594.67577-4.4375.02344-1.15625-.69922-3.28125-3.01172-3.16796-1.42578 3.16796-.59765 4.4375-2.22657 4.1875-1.61328-.64062-4.4375-3.54688-3.22265-4.4375-1.12891-4.4375.94531-4.4375 2.54688-.96093.85937-3.48047.83203-.32813-.83203-4.10937-4.33984-.13672-.10156-.53125-4.4375.66797-.61329 3.85156-3.82421.51172-4.4375-4.36328-2.82813v-94.8164h53.26172v147.30859l-.78125 3.59375.78125.59765.89062-.59765-.89062-3.59375v-147.3086h44.3789v168.65625H144.00391"/></g><path fill="#50fcfc" fill-rule="evenodd" d="M183.94531 443.33984l-1.21094-2.95703 1.21094-1.6289 4.4375-1.59766 1.83203 3.22656-1.83203 1.71094-4.4375 1.2461m26.6289-125.6875l-1.67577-1.54298 1.67578-1.18359 1.30078 1.1836-1.30078 1.54296m0 145.85938l-1.0586-.9375 1.0586-4.33985.21484-.09765 4.22656-.64453 1.45704.64453 2.98047 1.76562 2.6328 2.67188-2.6328 1.1836-4.4375-.21485-4.44141-.03125m4.4414-16.10156l-.48828-2.58985.48828-.53125 4.4375-1.58203 3.19141 2.11328-2.23047 4.4414-.96094 1.00392-3.30078-1.00391-1.13672-1.85156m4.4375-26.11329l-3.51953-3.10546 2.71485-4.4375.80469-.875 2.10546.875 2.33203.35546v2.23829l-4.4375.37109-1.05078 1.47266 1.05078.92968 1.65625 3.50782 2.78125 3.99609.22657.44531-.22656.54688-3.79297 3.89062 3.79297 3.40625 4.4375-.48437 4.4375-2.58985.36718-.33203-.36719-.47265-.74218-3.96485-3.69531-3.59765-1.45704-.84375-1.51172-4.4375-1.46875-1.84375v-2.23829l3.25391 4.08204.82813 4.4375.35547.20703 4.34765 4.23437.08984.47656 3.04688 3.96094-3.04688 2.79688-4.4375 1.0586-2.84375.58202-1.59375 1.53125-4.4375-1.32031-.11718-.21094-2.1289-4.4375 2.24608-2.16797 2.16407-2.26953-1.53516-4.4414-.6289-1.33204"/><path fill="#00e8fc" fill-rule="evenodd" d="M219.45313 419.1211l-1.05079-.9297 1.05078-1.47265 4.4375-.3711v3.83204l-1.0703 2.44922 1.0703 1.53515 1.46875 2.90625-1.46875 3.57422-.84375.86328.84375.75781 4.4375.61329 2.17579-1.3711.42968-4.4375-2.60547-2.53906-3.29296-1.90234-1.14453-2.44922v-3.83203l1.46875 1.84375 1.51171 4.4375 1.45703.84375 3.69532 3.59765.74219 3.96485.36718.47265-.36719.33203-4.4375 2.58985-4.4375.48437-3.79296-3.40625 3.79297-3.89062.22656-.54688-.22656-.44531-2.78125-3.9961-1.65625-3.5078"/><path fill="#00d4fc" fill-rule="evenodd" d="M223.89063 424.16406l-1.07032-1.53515 1.07031-2.44922 1.14454 2.44922 3.29297 1.90234v1.0625l-1.72657 1.47656 1.72656 4.08985 1.51563-4.08985-1.51563-1.47656v-1.0625l2.60547 2.53906-.42968 4.4375-2.17578 1.3711-4.4375-.61329-.84375-.7578.84375-.86329 1.46875-3.57422-1.46875-2.90625"/><path fill="#00c4fc" fill-rule="evenodd" d="M228.32813 431.16016l-1.72657-4.08985 1.72656-1.47656v1.0586l-.48437.41796.48438 1.14844.42578-1.14844-.42578-.41797v-1.05859l1.51562 1.47656-1.51563 4.08985"/><path fill="#00b8fc" fill-rule="evenodd" d="M228.32813 428.21875l-.48438-1.14844.48438-.41797.42578.41797-.42578 1.14844"/><path fill="#50fcfc" fill-rule="evenodd" d="M241.64453 427.04297l-2.85156-4.41406 2.85156-2.79297v2.47656l-.32422.3164.32422.5.48047-.5-.48047-.3164v-2.47656l4.2461 2.79297.1914.3164 4.4375 3.77735.44531.34765-.4453.35547-4.4375 1.86328-4.39454-2.21875-.04297-.02734"/><path fill="#00e8fc" fill-rule="evenodd" d="M241.64453 423.1289l-.32422-.5.32422-.3164.48047.3164-.48047.5"/><path fill="#50fcfc" fill-rule="evenodd" d="M259.39844 444.44531l-3.41016-4.0625 3.41016-3.8711.59765-.5664-.59765-.92578-2.88281-3.51172 2.8828-3.0586.40626-1.3789.23828-4.4414-.23438-4.4375 3.46875-4.4375.5586-.58204 4.4375-3.5625v2.90235l-1.42578 1.24219-3.01172 3.87109-.47266.5664-1.41797 4.4375-1.35547 4.44141-1.1914 4.05078-.36719.38672.36719.44531 2.58203 3.9922-2.58203 2.45312-1.75 1.98437 1.75 2.08594 4.4375-.21094 2.36719-1.875 2.0703-1.07812 4.4375-2.41406 2.5-.94532 1.94141-.50781 4.4375-.29297 4.1836.80078.2539.07031.03516-.0703 1.63281-4.4375 1.4414-4.4375 1.32813-2.02735.64454 2.02734 3.79296 2.3789 4.44141.08204 4.4375.26563 4.4375-.25782 4.4375-.65234 1.7539-1.8164-1.52343-4.44141 2-4.4375-2.23047-2.25391-2.84375 2.2539 1.59375 4.4375-3.1875.44141-.17969-.4414-4.25781-3.48829-4.4375-.15625-4.4414-.20703-4.4375 3.01172-4.4375-1.85547-3.73829 2.69532-.69922.33203-4.4375.95703-4.4414 2.53906-1.52344-3.82812.92969-4.4375-2.30469-4.4375-1.53906-1.2422v-2.90233l4.4375 2.51562 1.03515 1.6289 1.89454 4.4375 1.51171 2.3711 4.4375-.65234 2.79297-1.71875 1.64453-1.3672 1.8047 1.3672 2.6328 1.08984 1.80079-1.08984 2.63671-2.29297 4.44141 1.625.91797.66797 3.51953.29687 3.8789-.29687.5586-.39454 4.4375-3.21093 2.28906-.83203 2.15235-2.0625 4.4375-1.28907 2.49609-1.08593 1.9414-1.69532v2.16407l-4.4375 2.66796-2.66796 1.30079 2.66797 1.22656 4.4375 2.36328 4.4375-2.0586 1.32421-1.53124-1.32421-1.67188-4.4375-2.29687v-2.16407l3.67578 1.69532.76172.21484 3.33593 4.22266 1.10157 3.53906 4.4414-1.79297 2.1836-1.7461 2.2539-2.65234v6.41797l-1 .67188 1 .47656.27735-.47656-.27735-.67188v-6.41797l2.33985 2.65235.70703 4.4375-2.10547 4.4375-.9414.87109-2.1211-.8711-2.3164-.9414-4.44141-2.40625-1.60157-1.08984-2.83593-.57422-4.4375.44922-4.4375-1.15235-4.4375-1.07422-.8711 2.35157-.72656 4.4375.52734 4.4414-3.37109 3.49219-4.4375.1836-4.4375.30859-4.4375-.30469-4.4414.14063-4.4375.01171-.28126.60547-1.08203 4.4375 1.36328 1.3789 2.66016 3.0586-2.66016 2.66016-4.4375-1.42578-4.4375.30469-3.09375-1.53907-1.34375-.69922-4.4414-.05078-2.48047.75-1.95703 1.08594-4.4375 2.88672-4.4375.08984"/><path fill="#00e8fc" fill-rule="evenodd" d="M259.39844 442.46875l-1.75-2.08594 1.75-1.98437 2.58203-2.45313-2.58203-3.99219-.36719-.4453.36719-.38673 1.1914-4.05078 1.35547-4.4414 1.41797-4.4375.47266-.56641v5.95703l-1.9375 3.48828-.01172 4.4375 1.94922 2.75 2.14844 1.6875 2.28906 1.07031 1.64453-1.0703 2.79297-3.3711 4.4414-.30469 1.52735-.76172 2.91015-2.10937 2.01563-2.32813-2.01563-1.3789-3.72265 1.3789-.71485 1.27735-4.4414 2.24218-1.40235-3.51953-3.03515-3.48047-4.4375-.0078V417.625l3.01172-3.8711 1.42578-1.24218 1.53906 1.24219 2.30469 4.4375-.92969 4.4375 1.52344 3.82812 4.4414-2.53906 4.4375-.95703.69922-.33203 3.73828-2.69532 4.4375 1.85547 4.4375-3.01172 4.44141.20704 4.4375.15625v1.08984l-4.4375.25781-4.4414.96875-1.57032 1.17188 1.57031 4.33593.21094.10547 4.23047.42969 4.4375.20313 4.4375-.17579 1.7539-.45703-1.7539-.7461-1.50781-3.6953-2.92969-2.39844v-1.08985l4.25781 3.48829.17969.4414 3.1875-.4414-1.59375-4.4375 2.84375-2.25391v2.25l-.0039.0039.0039.00782.0039-.00781-.0039-.00391v-2.25l2.23047 2.2539-2 4.4375 1.52344 4.44141-1.75391 1.8164-4.4375.65235-4.4375.25781-4.4375-.26562-4.4414-.08203-3.79298-2.3789-.64453-2.02735-1.32812 2.02734-1.4414 4.4375-1.63282 4.4375-.03516.07031-.2539-.0703-4.1836-.80079-4.4375.29297-1.9414.50781-2.5.94531-4.4375 2.41407-2.07031 1.07812-2.3672 1.875-4.4375.21094"/><path fill="#00d4fc" fill-rule="evenodd" d="M263.83594 434.25781l-1.94922-2.75.01172-4.4375 1.9375-3.48828 4.4375.00781v1.66407l-4.4375.67968-.6289 1.13672.6289 2.78516 1.95703 1.65234 2.48047 1.79297 1.44531-1.79297.13672-4.4375-1.58203-1.8164v-1.66407l3.03515 3.48047 1.40235 3.51953 4.4414-2.24218.71485-1.27735 3.72265-1.3789 2.01563 1.3789-2.01563 2.32813-2.91015 2.10937-1.52735.76172-4.4414.30469-2.79297 3.3711-1.64453 1.0703-2.28906-1.0703-2.14844-1.6875"/><path fill="#00c4fc" fill-rule="evenodd" d="M263.83594 429.85547l-.6289-2.78516.6289-1.13672 4.4375-.67968v1.66796l-.64844.14844.64844.53906.1289-.53906-.1289-.14844v-1.66796l1.58203 1.8164-.13672 4.4375-1.44531 1.79297-2.48047-1.79297-1.95703-1.65234"/><path fill="#00b8fc" fill-rule="evenodd" d="M268.27344 427.60938l-.64844-.53907.64844-.14844.1289.14844-.1289.53906"/><path fill="#00d4fc" fill-rule="evenodd" d="M294.90234 426.96484l-1.5703-4.33593 1.5703-1.17188 4.44141-.96875 4.4375-.25781v1.08984l-4.4375.66797-1.91797.64063 1.91797 1.5625 4.4375 1.24609 1.60156-2.8086-1.60156-1.30859v-1.08984l2.92969 2.39844 1.50781 3.6953 1.7539.7461-1.7539.45703-4.4375.17579-4.4375-.20313-4.23047-.42969-.21094-.10547"/><path fill="#50fcfc" fill-rule="evenodd" d="M299.34375 438.21094l-2.29297-2.26563 2.29297-2.34375 2.26172 2.34375-2.26172 2.26563"/><path fill="#00c4fc" fill-rule="evenodd" d="M299.34375 424.1914l-1.91797-1.5625 1.91797-.64062 4.4375-.66797v1.08594l-1.16406.22266 1.16406.47656.26953-.47656-.26953-.22266v-1.08594l1.60156 1.3086-1.60156 2.80859-4.4375-1.2461"/><path fill="#50fcfc" fill-rule="evenodd" d="M299.08984 462.57422l-.0703-4.4375.32421-.23047.65625.23047-.58203 4.4375-.07422.0586-.2539-.0586"/><path fill="#00b8fc" fill-rule="evenodd" d="M303.78125 423.10547l-1.16406-.47656 1.16406-.22266.26953.22266-.26953.47656"/><path fill="#50fcfc" fill-rule="evenodd" d="M312.65625 460.33984l-3.10156-2.20312.6289-4.4375 2.47266-2.77344 4.4414.54297 3.64063 2.23047.79688 1.13672 1.3828-1.13672 3.0547-2.49219 3.9375-1.94531-3.9375-3.59766-.34766-.84375.34766-.33203 4.4375-1.30469 3.27343-2.80078 1.16407-.94922 4.4414-.77734 2.39453 1.72656 2.04297 1.02344 1.3789-1.02344 3.0586-2.9961 4.4375 2.91407 4.4414-.98828 4.4375.84766.41798-4.21485-.1914-4.4375-.22657-1.14062-3.25781-3.29688-.52344-4.4414-.05078-4.4375 1.89844-4.4375 1.93359-1.9336 4.4375-2.46875.16406-.03515 4.27344-2.82813v2.42188l-.61328.40625-3.82422.87109-3.98438 3.5664-.45312.59376-2.91016 3.84375.11719 4.4375 1.40625 4.4414 1.38672 1.40235.60547 3.03515.47265 4.4375 1.26172 4.4375-2.33984 2.67578-4.4375-.34375-4.4414 1.14063-4.4375-2.64453-4.4375 3.16015-1.9922.44922-2.4453 2.13281-1.09376 2.3086 1.09375.85937 2.95313-.85937 1.48437-1.78125 1.97266 1.78125 2.46484.375 1.4375-.375 3-2.1875 4.4414-.35938 4.4375-.42578 4.4375 2.46875.125.5039-.125 1.3086-1.32421 3.1289-3.11328 3.71876-.8086.71875-1.98046 4.4375 2.78906.46875 2.7539 3.97265 1.6836 3.04688 4.4375.33203 4.4375-.8164 4.4414 1.64062.13282.23438 4.30469 3.10156 4.4375-.67969 2.30078-2.42188-2.30079-3.07812-.89062-1.35938-3.54688-3.78906-.23828-.65234.23829-1.27735 4.4375-1.10937 4.4375-.63672 1.36328 3.02344 3.07421 4.125 1.51172.3164 2.9297 1.10157 1.10546-1.10156 3.33203-.6875 4.4375-1.03516 2.75781-2.71875-.85156-4.4375-1.90625-2.64453-3.83594-1.79297-.60156-.57813-.8164-3.85937.8164-.28906 4.4375-.41016v.58203l-1.07031.11719 1.07031 1.04687.80469-1.04687-.80469-.11719v-.58203l4.4375.58594 4.4414-1.66406 1.67579-2.66407-1.58203-4.4375-.09375-.13281-4.4414-4.26172-4.4375.49219-4.4375 1.0625-4.03517 2.83984-.40234.3789-4.4414 2.41017-4.4375-.02344-4.4375-2.60938-.07032-.15625-4.36719-3.40234-.92187-1.03516.92188-2.2539 4.4375.32812 3.33203-2.51172 1.10546-2.66015 1.05079-1.77735-1.05079-.95703-4.4375-2.07031-4.4375 2.48828-.80468.53906-3.63281 1.78906-4.44141.52344-.91797-2.3125-3.51953-3.71875-1.0039-.72265-.66798-4.4375 1.67188-1.53516 2.92187-2.90234-2.29296-4.4375-.62891-.40625v-2.42188l4.36328 2.82813-.51172 4.4375-3.85156 3.82421-.66797.61329.53125 4.4375.13672.10156 4.10937 4.33984.32813.83203 3.48047-.83203.96094-.85937 4.4375-2.54688 4.4375-.94531 4.4375 1.1289 3.54687 3.22266.64063 4.4375-4.1875 1.61328-4.4375 2.22657-3.16797.59765 3.16796 1.42578 3.28125 3.01172 1.15625.69922 4.4375-.02344 1.33594-.67578 3.10547-2.4336 4.4375-1.52343 2.35547-.48047 2.08203-1.76562 4.4375-.85938 3.76172 2.625.67969.63672 2.69922 3.80078.9453 4.4375-1.84374 4.4414-1.80078 2.07423-3.95313 2.36328 1.11328 4.4375-1.60156 1.4961-.625 2.9414-3.8125 3.75781-4.4375.41016-1.32422.27344-3.11328 3.10156-4.4414-.80469-2.39454-2.29688-1.5039-4.4414-.53906-1.1875-4.03125 1.1875.72656 4.4414 2.46094 4.4375-3.59375 3.78125-4.4375.16797-4.4375-.95312-3.14454 1.4414-1.29687.92579-1.85156-.92579-2.58594-3.28125-4.4375 2.6172-2.17578-3.77344-1.28906-4.4375-.97266-1.40625-4.4375-.41797-3.78906-2.6172 3.78906-4.25.13281-.1875 4.30469-3.82421.51562-.61328.67579-4.4375-1.19141-.66797-3.86719.66797-.57031 2.82031-4.4414-.16406-4.4375.67187-3.63282 1.10938-.80469.5-4.4375.3711L336 458.13671l-1.15234 1.1875-4.4375 1.46094-4.4375-1.32422-4.4375.30469-4.4375.74218-4.44141-.16797"/><path fill="#00d4fc" fill-rule="evenodd" d="M312.65625 418.19922l-.0039-.00781.0039-.00391.0039.0039-.0039.00782"/><path fill="#00e8fc" fill-rule="evenodd" d="M321.53516 414.98047l-2.66797-1.22656 2.66797-1.30079 4.4375-2.66796v1.32421l-3.38672 2.64454 3.38672 2.39062 3.40234-2.39062-3.40234-2.64454v-1.32421l4.4375 2.29687 1.32421 1.67188-1.32421 1.53125-4.4375 2.05859-4.4375-2.36328"/><path fill="#00d4fc" fill-rule="evenodd" d="M325.97266 416.14453l-3.38672-2.39062 3.38672-2.64454v1.32813l-1.6875 1.3164 1.6875 1.19141 1.6953-1.1914-1.6953-1.31641v-1.32813l3.40234 2.64454-3.40234 2.39062"/><path fill="#00c4fc" fill-rule="evenodd" d="M325.97266 414.94531l-1.6875-1.1914 1.6875-1.31641 1.6953 1.3164-1.6953 1.19141"/><path fill="#00e8fc" fill-rule="evenodd" d="M339.28906 450.1211l-1.09375-.85938 1.09375-2.3086 2.44531-2.1328 1.9922-.44923 4.4375-3.16015 4.4375 2.64453 4.4414-1.14063 4.4375.34375 2.33984-2.67578-1.26172-4.4375-.47265-4.4375-.60547-3.03515-1.38672-1.40235-1.40625-4.4414-.11719-4.4375 2.91016-3.84375.45312-.59375 3.98438-3.56641 3.82422-.8711.61328-.40624v2.64062l-4.4375.02344-2.4336 2.17969-2.0039 2.6289-1.3711 1.8086.22266 4.4375 1.14844 2.47265.44531 1.96875.78906 4.4375.94532 4.4375 2.2578 3.59766.70704.83984-.69922 4.4375 1.08203 4.4414 1.79297 4.4375-1.3086 4.4375-1.57421 2.8672-.76172 1.5703.76172 1.32813 1.61719 3.11329 2.8203 1.45312 2.8086-1.45313 1.6289-1.6875 2.98048 1.6875 1.46094.7422 2.09375 3.6953 2.34375 1.6875 4.4375-1.52734.15234-.16015-.15235-.20313-2.76953-4.23438-1.66796-1.78125-.96094-2.66015.7539-4.4375.20704-.22656 4.4375-1.13282 4.4375.45704 2.23437.90234.5039 4.4375 1.69923 2.28125 4.4414 1.46094 4.4375-.6797 4.4375-2.07421 1.0039-.98828-1.0039-2.01563-4.4375-1.8125-2.82422-.60937-1.61328-1.15235-4.17578-3.28515 4.10156-4.4375.07422-.07031v3.91406l-.55469.59375.5547.4336 3.64062-.4336-3.64063-.59375v-3.91406l4.4375-1.4961 4.4375-.10547 4.4375-.34375 3.21094-2.42578-.60938-4.4375-2.60156-2.55078-4.4375.08985-4.4375 1.48437-1.39062.97656-3.04688 2.8789-2.39844 1.5586-2.04296 2.125-4.4375-1.34765-4.4375.6875-.7461-1.46485-2.03125-4.4375-1.66015-1.29297-2.80079-3.14453-1.63671-3.44922-4.44141-.78125-.17578-.20703-1.72656-4.4375-2.53516-2.67969-2.44531-1.76171-.90235-4.4375 3.34766-3.07422 1.375-1.36328-1.375-2.20313v-2.64062l.6289.40625 2.29297 4.4375-2.92187 2.90234-1.67188 1.53516.66797 4.4375 1.0039.72265 3.51954 3.71875.91797 2.3125 4.4414-.52344 3.63282-1.78906.80469-.53906 4.4375-2.48828v2.21094l-1.30079.8164.375 4.4375.92579.30469.40625-.30469 1.0625-4.4375-1.46875-.8164v-2.21094l4.4375 2.07031 1.05078.95703-1.05079 1.77735-1.10546 2.66015-3.33204 2.51172-4.4375-.32812-.92187 2.2539.92188 1.03516 4.36718 3.40234.07031.15625 4.4375 2.60938 4.4375.02344 4.44141-2.41016.40235-.3789 4.03515-2.83985 4.4375-1.0625 4.4375-.49219 4.4414 4.26172.09376.13281 1.58203 4.4375-1.67578 2.66406-4.4414 1.66407-4.4375-.58594-4.4375.41016-.81642.28906.81641 3.85937.60156.57813 3.83594 1.79297 1.90625 2.64453.85156 4.4375-2.7578 2.71875-4.4375 1.03515-3.33204.6875-1.10547 1.10157-2.92969-1.10156-1.51171-.31641-3.07422-4.125-1.36329-3.02344-4.4375.63672-4.4375 1.10938-.23828 1.27734.23829.65234 3.54687 3.78906.89063 1.35938 2.30078 3.07813-2.30079 2.42187-4.4375.67969-4.30468-3.10156-.13281-.23438-4.44141-1.64063-4.4375.81641-4.4375-.33203-1.6836-3.04688-2.7539-3.97265-2.78906-.46875 1.98046-4.4375.8086-.71875 3.11328-3.71875 1.32422-3.1289.125-1.3086-.125-.5039-4.4375-2.46876-4.4375.42578-4.4414.35938-3 2.1875-1.4375.375-2.46485-.375-1.97266-1.78125-1.48437 1.78125-2.95313.85937m4.4375-31.45312l-1-.47656 1-.67188.27735.67188-.27735.47656"/><path fill="#50fcfc" fill-rule="evenodd" d="M348.16406 433.45313l-1.39453-1.94532 1.39453-1.34375 1.33985 1.34375-1.33985 1.94531"/><path fill="#00d4fc" fill-rule="evenodd" d="M360.33203 422.6289l-.22265-4.4375 1.37109-1.80859 2.0039-2.6289 2.4336-2.1797v1.39063l-.88281.78907.8828 2.75v3.80859l-2.47655 2.3164-.71094 4.44141.61328 4.4375 1.41797 4.4375 1.15625 1.84375 2.17578 2.59375.1914 4.4375-.30468 4.4414 2.375 3.53517v6.91015l-2.0625 2.86719 2.0625 3.29687 3.17187-3.29687-3.17187-2.86719v-6.91015l1.83594.90234 2.60156 3.29687.41797 1.14063-.10938 4.4375 4.13281 3.67969 2.75-3.6797.41016-4.4375 1.27735-1.39843 4.4375-2.58594 4.4375 1.39844 2.41015-1.85156 1.01953-4.4375-3.42969-2.15625-3.40234 2.15625-1.03515 3.17578-1.29297-3.17578-2.13672-4.4414-1.00781-2.1875-1.8086 2.1875-2.6289 2.67187-.46875-2.67188.0664-4.4375.11328-4.4375-4.15234-2.74219-1.44531-1.6953-1.4375-4.4375-1.5547-1.64063-3.88671-2.80078-.55078-2.31641v-3.8086l3.69922-2.75-3.69922-.78906v-1.39062l4.4375-.02344 1.375 2.20313-1.375 1.36328-3.34766 3.07422.90235 4.4375 2.4453 1.76171 2.53517 2.6797 1.72656 4.4375.17578.20702 4.4414.78125 1.63672 3.44922 2.80079 3.14453 1.66015 1.29297 2.03125 4.4375.7461 1.46485 4.4375-.6875 4.4375 1.34765 2.04296-2.125 2.39844-1.5586 3.04688-2.8789 1.39062-.97656 4.4375-1.48438v1.4375l-2.66015 1.02344-1.77735 1.22656-3.41015 3.21094 3.41015 1.59375 4.4375.20313 4.4375-1.27344.6914-.52344.03516-4.4375-.72656-.71094-4.4375-.3125v-1.4375l4.4375-.08984 2.60156 2.55078.60938 4.4375-3.21094 2.42578-4.4375.34375-4.4375.10547-4.4375 1.4961-.07422.0703-4.10156 4.4375 4.17578 3.28517v1.98437l-4.4414 2.1289-.32032 1.47657.32031.4336 4.44141 2.26171 4.4375-.32422 3.94531-2.3711-3.9453-2.96483-4.4375-.64063v-1.98438l1.61327 1.15235 2.82422.60937 4.4375 1.8125 1.0039 2.01563-1.0039.98828-4.4375 2.07422-4.4375.67969-4.4414-1.46094-1.69922-2.28125-.50391-4.4375-2.23438-.90235-4.4375-.45703-4.4375 1.13282-.20703.22656-.7539 4.4375.96094 2.66015v3.42579l-.37891 2.79296.3789.26954.75782-.26954-.75781-2.79296v-3.42579l1.66796 1.78125 2.76954 4.23438.15234.20313-.15235.16015-4.4375 1.52735-2.34375-1.6875-2.09375-3.69532-1.46093-.74219-2.98047-1.6875-1.6289 1.6875-2.8086 1.45313-2.82031-1.45313-1.6172-3.11328-.76171-1.32812.76172-1.57031 1.57422-2.8672 1.3086-4.4375-1.79298-4.4375-1.08203-4.4414.69922-4.4375-.70703-.83984-2.25781-3.59766-.94532-4.4375-.78906-4.4375-.44531-1.96875-1.14844-2.47265"/><path fill="#00c4fc" fill-rule="evenodd" d="M363.34375 431.50781l-.61328-4.4375.71094-4.4414 2.47656-2.31641v3.08203l-2.38672 3.67578.44531 4.4375 1.88281 4.4375.0586.08985 3.64453 4.34765.79297 3.61328.14453.82422-.14453.34766-1.41016 4.09375 1.41016 2.09375 1.34375-2.09375 3.09375-2.1289v.63671l-2.16797 1.49219 2.16797 3.21875 3.84765-3.21875-3.84765-1.49219v-.63672l3.11719-2.3125-1.17188-4.4375-.04687-4.4375-1.89844-1.2539-2.71875-3.1836-1.14844-4.4375-.57031-.60156-4.4375-3.07422v-3.08203l.55078 2.3164 3.88672 2.80079 1.55469 1.64062 1.4375 4.4375 1.4453 1.69531 4.15235 2.7422-.11328 4.4375-.0664 4.4375.46875 2.67187 2.6289-2.67188 1.8086-2.1875v6.28125l-.33985.34766-3.55469 4.4375-.54296.45312-2.66797 3.98438-.375 4.4375 3.04296 2.71094 2.02735-2.71094.0664-4.4375 2.34375-2.5664 2.92579-1.8711-2.76954-4.4375-.15625-.34766v-6.28125l1.00782 2.1875 2.13672 4.4414 1.29296 3.17579 1.03516-3.17578 3.40235-2.15625v1.51172l-1.01563.64453.53125 4.4375.48438.17187.22265-.17187.80469-4.4375-1.02735-.64453v-1.51172l3.4297 2.15625-1.01954 4.4375-2.41015 1.85156-4.4375-1.39844-4.4375 2.58594-1.27735 1.39844-.41015 4.4375-2.75 3.67969-4.13282-3.6797.10938-4.4375-.41797-1.14062-2.60156-3.29687-1.83594-.90235-2.375-3.53515.30469-4.4414-.19141-4.4375-2.17578-2.59376-1.15625-1.84375-1.41797-4.4375"/><path fill="#00b8fc" fill-rule="evenodd" d="M363.97656 431.50781l-.44531-4.4375 2.38672-3.67578v1.23438l-1.58203 2.4414.26953 4.4375 1.3125 3.05078 1.42187 1.38672 3.01563 3.61328 4.11719-3.61328-3.66797-4.4375-.44922-2.02734-.77735-2.41016-3.66015-2.4414v-1.23438l4.4375 3.07422.57031.60156 1.14844 4.4375 2.71875 3.1836V440.5l-3.11328 4.32031-1.32422 3.16016-.4414 1.28125.4414.65625.42187-.65625 4.01563-2.76172 2.26172-1.67969-2.26172-4.32031v-5.8086l1.89844 1.25391.04687 4.4375 1.17188 4.4375-3.1172 2.3125-3.09374 2.1289-1.34375 2.09376-1.41016-2.09375 1.41016-4.09375.14453-.34766-.14453-.82422-.79297-3.61328-3.64453-4.34765-.0586-.08985-1.8828-4.4375"/><path fill="#00a8fc" fill-rule="evenodd" d="M364.60547 431.50781l-.26953-4.4375 1.58203-2.4414v1.23828l-.78125 1.20312.09765 4.4375.6836 1.58594 2.92578 2.85156 1.51172 1.8125 2.0664-1.8125-2.0664-2.70312-1.66016-1.73438-.97265-4.4375-1.8047-1.20312v-1.23828l3.66017 2.4414.77734 2.41016.44922 2.02734 3.66797 4.4375-4.1172 3.61328-3.01562-3.61328-1.42187-1.38672-1.3125-3.05078"/><path fill="#00c4fc" fill-rule="evenodd" d="M365.91797 416.5039l-.88281-2.75.8828-.78906 3.69923.78907-3.69922 2.75"/><path fill="#009800" fill-rule="evenodd" d="M365.23438 431.50781l-.09766-4.4375.78125-1.20312v2.29687l-.05469 3.34375.05469.1211 4.42578 4.3164.01172.01563.01953-.01563-.01953-.02344-4.22266-4.41406-.21484-3.34375v-2.29687l1.80469 1.20312.97265 4.4375 1.66016 1.73438 2.0664 2.70312-2.0664 1.8125-1.51172-1.8125-2.92578-2.85156-.6836-1.58594"/><path fill="#00ac00" fill-rule="evenodd" d="M365.91797 431.6289l-.05469-.12109.05469-3.34375.21484 3.34375 4.22266 4.41406.01953.02344-.01953.01563-.01172-.01563-4.42578-4.3164"/><path fill="#00c4fc" fill-rule="evenodd" d="M370.35547 465.8711l-2.0625-3.29688 2.0625-2.86719 3.17187 2.86719-3.17187 3.29687"/><path fill="#00a8fc" fill-rule="evenodd" d="M370.35547 449.91797l-.4414-.65625.4414-1.28125 1.32422-3.16016 3.11328-4.32031v1.63672l-1.9336 2.6836 1.9336 1.04296 1.40625-1.04297-1.40625-2.6836V440.5l2.26172 4.32031-2.26172 1.67969-4.01563 2.76172-.42187.65625"/><path fill="#00d4fc" fill-rule="evenodd" d="M374.79297 447.76953l-2.16797 1.49219 2.16797 3.21875 3.84765-3.21875-3.84765-1.49219v.63281l2.21094.85938-2.21094 1.84765-1.2461-1.84765 1.2461-.85938v-.6328"/><path fill="#009800" fill-rule="evenodd" d="M374.79297 445.86328l-1.9336-1.04297 1.9336-2.6836v1.63673l-.7539 1.04687.7539.41016.55078-.41016-.55078-1.04687v-1.63672l1.40625 2.6836-1.40625 1.04296"/><path fill="#00e8fc" fill-rule="evenodd" d="M374.79297 448.40234l-1.2461.85938 1.2461 1.84765 2.21094-1.84765-2.21094-.85938v.63672l.57031.22266-.57031.47656-.32031-.47656.3203-.22266v-.63672"/><path fill="#00ac00" fill-rule="evenodd" d="M374.79297 445.23047l-.7539-.41016.7539-1.04687.55078 1.04687-.55078.41016"/><path fill="#50fcfc" fill-rule="evenodd" d="M374.79297 449.03906l-.32031.22266.3203.47656.57032-.47656-.57031-.22266"/><path fill="#00b8fc" fill-rule="evenodd" d="M379.23438 465.28516l-3.04297-2.71094.375-4.4375 2.66796-3.98438.54297-.45312 3.5547-4.4375.33983-.34766v3.0625l-1.46093 1.72266-2.97656 2.48437-1.3086 1.95313-.64844 4.4375 1.95704 1.74219 1.30078-1.7422-.27344-4.4375 3.41015-3.73437 1.09766-.70312-1.09765-1.72266v-3.0625l.15625.34766 2.76953 4.4375-2.92579 1.8711-2.34375 2.5664-.0664 4.4375-2.02735 2.71094"/><path fill="#00a8fc" fill-rule="evenodd" d="M379.23438 464.3164l-1.95704-1.74218.64844-4.4375 1.3086-1.95313v2.14454l-.8672 4.24609.8672.77344.57421-.77344-.57421-4.2461v-2.14453l2.97656-2.48437 1.46094-1.72266 1.09765 1.72266-1.09765.70312-3.41016 3.73438.27344 4.4375-1.30079 1.74219"/><path fill="#009800" fill-rule="evenodd" d="M379.23438 463.34766l-.8672-.77344.8672-4.2461.57421 4.2461-.57421.77344"/><path fill="#00c4fc" fill-rule="evenodd" d="M383.67188 471.72266l-.37891-.26954.3789-2.79296.75782 2.79296-.75781.26954"/><path fill="#00d4fc" fill-rule="evenodd" d="M387.1836 431.50781l-.375-4.4375 1.30077-.8164 1.46875.8164-1.0625 4.4375-.40625.30469-.92578-.30469"/><path fill="#00b8fc" fill-rule="evenodd" d="M392.0625 453.69922l-.53125-4.4375 1.01563-.64453 1.02734.64453-.80469 4.4375-.22265.17187-.48438-.17187"/><path fill="#00c4fc" fill-rule="evenodd" d="M396.98438 463.00781l-.32032-.4336.32031-1.47655 4.44141-2.12891v1.39844l-2.99219 2.20703 2.9922 1.65234 4.4375.02735 2.79687-1.6797-2.79688-2.10155-4.4375-.10547v-1.39844l4.4375.64063 3.94531 2.96484-3.9453 2.3711-4.4375.32421-4.44142-2.26172"/><path fill="#00b8fc" fill-rule="evenodd" d="M401.42578 464.22656l-2.99219-1.65234 2.9922-2.20703 4.4375.10547v.86328l-4.4375.42969-1.09767.80859 1.09766.60547 4.4375.38672 1.64453-.9922-1.64453-1.23827v-.86328l2.79688 2.10156-2.79688 1.67969-4.4375-.02735"/><path fill="#00a8fc" fill-rule="evenodd" d="M401.42578 463.17969l-1.09765-.60547 1.09765-.8086 4.4375-.42968v.86719l-2.2539.37109 2.2539.30078.4961-.30078-.4961-.3711v-.86718l1.64453 1.23828-1.64453.99219-4.4375-.38672"/><path fill="#50fcfc" fill-rule="evenodd" d="M401.42578 453.10547l-.55469.59375.5547.4336 3.64062-.4336-3.64063-.59375"/><path fill="#00c4fc" fill-rule="evenodd" d="M405.86328 446.41406l-3.41015-1.59375 3.41015-3.21094 1.77735-1.22656 2.66015-1.02344v2.15235l-4.4375 2.6836-.66406.625.66406.3125 4.4375.51562 2.39063-.82813-2.39063-3.3086v-2.15233l4.4375.3125.72656.71093-.03515 4.4375-.6914.52344-4.4375 1.27344-4.4375-.20313"/><path fill="#009800" fill-rule="evenodd" d="M405.86328 462.875l-2.2539-.30078 2.2539-.3711.4961.3711-.4961.30078"/><path fill="#00b8fc" fill-rule="evenodd" d="M405.86328 445.13281l-.66406-.3125.66406-.625 4.4375-2.6836 2.39063 3.3086-2.39063.82813-4.4375-.51563"/><path fill="#fff" fill-opacity="0" fill-rule="evenodd" d="M410.30078 449.14453l-1.07031.11719 1.07031 1.04687.80469-1.04687-.80469-.11719"/><path fill="#50fcfc" fill-rule="evenodd" d="M423.61719 463.17188l-.78125-.59766.78125-3.59375.89062 3.59375-.89062.59765"/><g clip-path="url(#c)"><path fill="#fff" fill-opacity="0" fill-rule="evenodd" d="M467.9961 480.32813H468V311.67188h-.0039H468v168.65625h-.0039"/></g><path fill="#fff" fill-opacity="0" fill-rule="evenodd" d="M317.44531 459.39453l5.78906.79688 1.35547-9.8711-5.78906-.79297-1.35547 9.8672"/><path fill-rule="evenodd" d="M322.01953 451.82031l.5039.0664-.85546 6.23829-.78125-.10938.60937-4.4453-1.375-.19141.07813-.54688.5625.01172.25781-.01953.23828-.0586.22266-.11328.19922-.18359.17969-.27344.16015-.375"/><path fill="#fff" fill-opacity="0" fill-rule="evenodd" d="M382.28125 429.6289l5.45313-2.08984-3.5586-9.30078-5.45312 2.08594 3.55859 9.30469"/><path fill-rule="evenodd" d="M382.64453 420.78516l.47656-.1797 2.25 5.87892-.73828.28125-1.60156-4.19532-1.29688.4961-.19921-.51954.5-.2578.21484-.14063.1836-.16797.14062-.20313.08594-.2578.02734-.32813-.04297-.40625"/><path fill="#fff" fill-opacity="0" fill-rule="evenodd" d="M324.66797 412.88281l5.48047 2.02735 3.45703-9.33985-5.47656-2.03125-3.46094 9.34375"/><path fill-rule="evenodd" d="M330.77344 406.47266l.47656.17968-2.1836 5.90235-.73827-.27344 1.55859-4.21094-1.30078-.48047.1914-.52343.54688.1328.2539.03907.2461-.0039.24219-.0625.23437-.13672.23828-.22657.23438-.33593"/><path fill="#fff" fill-opacity="0" fill-rule="evenodd" d="M380.83203 443.5039l3.44922 7.13282 9.17578-4.4414-3.45312-7.13282-9.17188 4.4414"/><path fill-rule="evenodd" d="M389.4375 442.09375l1.42969 2.96094-.66797.32031-1.14844-2.375-1.72265.57813.24218.13671.23828.1836.21875.25.19922.33203.11719.30469.07031.33984.01172.36719-.0586.3711-.14062.375-.10547.17968-.1328.17187-.16017.16797-.1875.16016-.21484.14844-.25.1328-.41406.16407-.42188.08985-.42187.01171-.41016-.0703-.38672-.15235-.18359-.10938-.17188-.13281-.16406-.15625-.15234-.17969-.13672-.20312-.125-.23047-.17188-.4375-.08203-.40235v-.37109l.07422-.34375.13672-.3125.19531-.28125.2422-.26172.28124-.23047.34375.70704-.17578.17187-.14063.1836-.11328.1914-.07421.19531-.03907.20703.0039.20704.03907.21484.08594.21875.15625.26953.1875.22266.21484.16796.23828.11329.26563.05859.28906-.00781.3125-.0664.33594-.13282.22656-.13281.20703-.16797.17969-.19922.14063-.23438.09375-.2578.03125-.28126-.03516-.30078-.11719-.32031-.17969-.28906-.21875-.20704-.28906-.16406-.3789-.16015-.30079-.625 3.28516-1.07813"/><path fill="#fff" fill-opacity="0" fill-rule="evenodd" d="M393.32031 475.78906l.46485-7.91406-10.17579-.59375-.46093 7.91016 10.17187.59765"/><path fill-rule="evenodd" d="M385.1211 472.82031l.1914-3.28125.74219.04297-.15625 2.63672 1.78906.33594-.14844-.23828-.11719-.27735-.0703-.32422-.00782-.38671.04297-.32032.10547-.33594.16797-.32421.23046-.29688.3047-.2539.18359-.10547.19921-.08985.21875-.07031.2422-.04688.26171-.01953h.28516l.4375.0625.41406.12891.3711.1914.32421.26173.26563.3203.10547.1875.08593.19923.06641.21484.04688.23047.01953.2461v.26171l-.06641.46485-.125.39453-.17969.32421-.23047.26172-.27343.20313-.3086.15625-.33594.10547-.35937.0664.04688-.78515.23437-.0664.21484-.08985.1875-.11328.16016-.13672.13281-.15625.10547-.1836.0664-.20703.03126-.23047-.0039-.3164-.0547-.28516-.10546-.25-.15625-.21875-.20313-.17578-.2539-.13672-.3047-.09375-.35546-.04687-.26563.0039-.26562.04688-.2539.08594-.23438.1328-.20704.1836-.16406.23047-.11719.28125-.05468.33594.01562.33984.09375.28516.17188.28515.25.32422-.03906.69531-3.39454-.66406"/><g clip-path="url(#d)"><path fill="none" stroke="#000" stroke-linecap="round" stroke-linejoin="round" stroke-miterlimit="10" stroke-width=".5" d="M147.47266 480.85156l-6.94532-1.04297"/></g><g clip-path="url(#e)"><path fill="none" stroke="#000" stroke-linecap="round" stroke-linejoin="round" stroke-miterlimit="10" stroke-width=".5" d="M147.47266 480.85156l.8203 2.3125"/></g><g clip-path="url(#f)"><path fill="none" stroke="#000" stroke-linecap="round" stroke-linejoin="round" stroke-miterlimit="10" stroke-width=".5" d="M160.79688 480.78516l-6.96485-.91407"/></g><g clip-path="url(#g)"><path fill="none" stroke="#000" stroke-linecap="round" stroke-linejoin="round" stroke-miterlimit="10" stroke-width=".5" d="M160.79688 480.78516l.86328 2.29687"/></g><g clip-path="url(#h)"><path fill="none" stroke="#000" stroke-linecap="round" stroke-linejoin="round" stroke-miterlimit="10" stroke-width=".5" d="M174.07813 481.0039l-6.89454-1.35156"/></g><g clip-path="url(#i)"><path fill="none" stroke="#000" stroke-linecap="round" stroke-linejoin="round" stroke-miterlimit="10" stroke-width=".5" d="M173.07422 480.8086l.35937 1.17187"/></g><g clip-path="url(#j)"><path fill="none" stroke="#000" stroke-linecap="round" stroke-linejoin="round" stroke-miterlimit="10" stroke-width=".5" d="M187.42188 480.83594l-6.95313-1.01563"/></g><g clip-path="url(#k)"><path fill="none" stroke="#000" stroke-linecap="round" stroke-linejoin="round" stroke-miterlimit="10" stroke-width=".5" d="M186.41016 480.6875l.41406 1.15625"/></g><g clip-path="url(#l)"><path fill="none" stroke="#000" stroke-linecap="round" stroke-linejoin="round" stroke-miterlimit="10" stroke-width=".5" d="M200.6289 481.32422l-6.73827-1.99219"/></g><g clip-path="url(#m)"><path fill="none" stroke="#000" stroke-linecap="round" stroke-linejoin="round" stroke-miterlimit="10" stroke-width=".5" d="M199.64844 481.03516l.2461 1.20312"/></g><g clip-path="url(#n)"><path fill="none" stroke="#000" stroke-linecap="round" stroke-linejoin="round" stroke-miterlimit="10" stroke-width=".5" d="M214.03516 480.9414l-6.91797-1.22265"/></g><g clip-path="url(#o)"><path fill="none" stroke="#000" stroke-linecap="round" stroke-linejoin="round" stroke-miterlimit="10" stroke-width=".5" d="M213.02734 480.76172l.37891 1.16797"/></g><g clip-path="url(#p)"><path fill="none" stroke="#000" stroke-linecap="round" stroke-linejoin="round" stroke-miterlimit="10" stroke-width=".5" d="M227.26953 481.28906l-6.75781-1.92187"/></g><g clip-path="url(#q)"><path fill="none" stroke="#000" stroke-linecap="round" stroke-linejoin="round" stroke-miterlimit="10" stroke-width=".5" d="M226.28516 481.01172l.2578 1.19922"/></g><g clip-path="url(#r)"><path fill="none" stroke="#000" stroke-linecap="round" stroke-linejoin="round" stroke-miterlimit="10" stroke-width=".5" d="M240.41406 481.76172L234 478.89453"/></g><g clip-path="url(#s)"><path fill="none" stroke="#000" stroke-linecap="round" stroke-linejoin="round" stroke-miterlimit="10" stroke-width=".5" d="M253.21484 482.58594l-5.38672-4.51172"/></g><g clip-path="url(#t)"><path fill="none" stroke="#000" stroke-linecap="round" stroke-linejoin="round" stroke-miterlimit="10" stroke-width=".5" d="M265.85156 483.20703l-4.03125-5.7539"/></g><g clip-path="url(#u)"><path fill="none" stroke="#000" stroke-linecap="round" stroke-linejoin="round" stroke-miterlimit="10" stroke-width=".5" d="M279.23438 483.15625L275.0664 477.5"/></g><g clip-path="url(#v)"><path fill="none" stroke="#000" stroke-linecap="round" stroke-linejoin="round" stroke-miterlimit="10" stroke-width=".5" d="M292.98047 482.78125l-5.03125-4.90625"/></g><g clip-path="url(#w)"><path fill="none" stroke="#000" stroke-linecap="round" stroke-linejoin="round" stroke-miterlimit="10" stroke-width=".5" d="M305.79297 483.20703l-4.02735-5.75781"/></g><g clip-path="url(#x)"><path fill="none" stroke="#000" stroke-linecap="round" stroke-linejoin="round" stroke-miterlimit="10" stroke-width=".5" d="M317.96875 483.73047l-1.7461-6.80469"/></g><g clip-path="url(#y)"><path fill="none" stroke="#000" stroke-linecap="round" stroke-linejoin="round" stroke-miterlimit="10" stroke-width=".5" d="M330.28516 483.83984l.25-7.02343"/></g><g clip-path="url(#z)"><path fill="none" stroke="#000" stroke-linecap="round" stroke-linejoin="round" stroke-miterlimit="10" stroke-width=".5" d="M343.60547 483.83984l.24219-7.02343"/></g><g clip-path="url(#A)"><path fill="none" stroke="#000" stroke-linecap="round" stroke-linejoin="round" stroke-miterlimit="10" stroke-width=".5" d="M356.96875 483.83984l.14453-7.02343"/></g><g clip-path="url(#B)"><path fill="none" stroke="#000" stroke-linecap="round" stroke-linejoin="round" stroke-miterlimit="10" stroke-width=".5" d="M371.61719 483.60938l-2.51953-6.5586"/></g><g clip-path="url(#C)"><path fill="none" stroke="#000" stroke-linecap="round" stroke-linejoin="round" stroke-miterlimit="10" stroke-width=".5" d="M385.125 483.52734l-2.91016-6.39843"/></g><g clip-path="url(#D)"><path fill="none" stroke="#000" stroke-linecap="round" stroke-linejoin="round" stroke-miterlimit="10" stroke-width=".5" d="M400.13672 481.88281l-6.30078-3.10937"/></g><g clip-path="url(#E)"><path fill="none" stroke="#000" stroke-linecap="round" stroke-linejoin="round" stroke-miterlimit="10" stroke-width=".5" d="M413.33203 482.10938l-6.0586-3.5625"/></g><g clip-path="url(#F)"><path fill="none" stroke="#000" stroke-linecap="round" stroke-linejoin="round" stroke-miterlimit="10" stroke-width=".5" d="M426.82422 478.89453l-6.41406 2.86719"/></g><g clip-path="url(#G)"><path fill="none" stroke="#000" stroke-linecap="round" stroke-linejoin="round" stroke-miterlimit="10" stroke-width=".5" d="M425.89063 479.3125l.96875.7539"/></g><g clip-path="url(#H)"><path fill="none" stroke="#000" stroke-linecap="round" stroke-linejoin="round" stroke-miterlimit="10" stroke-width=".5" d="M438.76953 483.32422l-3.67578-5.98828"/></g><g clip-path="url(#I)"><path fill="none" stroke="#000" stroke-linecap="round" stroke-linejoin="round" stroke-miterlimit="10" stroke-width=".5" d="M452.5 483.02734l-4.5039-5.39453"/></g><g clip-path="url(#J)"><path fill="none" stroke="#000" stroke-linecap="round" stroke-linejoin="round" stroke-miterlimit="10" stroke-width=".5" d="M464.64063 483.67188l-2.15625-6.6875"/></g><g clip-path="url(#K)"><path fill="none" stroke="#000" stroke-linecap="round" stroke-linejoin="round" stroke-miterlimit="10" stroke-width=".5" d="M147.4961 467.35156l-6.9922-.67578"/></g><path fill="none" stroke="#000" stroke-linecap="round" stroke-linejoin="round" stroke-miterlimit="10" stroke-width=".5" d="M146.48047 467.2539l.46875 1.13282m13.875-1.51953l-7.01953.29297m6-.25l.6211 1.05859m13.71874-.9961l-7.02734.08204m6.0039-.07031l.58985 1.07812m13.41797-2.53906l-6.3672 2.98047m5.44142-2.54688l.98046.73828m13.4297-.72656l-6.70704 2.08984m20.10156-.28906l-6.86328-1.51172m19.01953-1.92187l-4.54687 5.35547m16.60937-2.67578l-.01953-.20313-.0586-.1914-.09374-.17579-.45703-.375-.19141-.0586-.19922-.01952-.19922.01953-.19531.0586-.45703.375-.09375.17577-.0586.19141-.01953.20313.01953.19921.0586.19141.09375.17578.45703.375.19531.0586.19922.01953.19922-.01953.1914-.0586.45704-.375.09375-.17578.0586-.1914.01952-.19923m14.49219 2.7422l-4.39453-5.48829m14.98828 6.21875l1.04688-6.94922m10.57421 6.19922l4.4336-5.44922m12.1211 2.72657l-.01954-.20313-.0586-.1914-.09374-.17579-.46094-.375-.1914-.0586-.19923-.01952-.19922.01953-.1914.0586-.45703.375-.09766.17577-.05469.19141-.01953.20313.01953.19921.0547.19141.09765.17578.45703.375.1914.0586.19922.01953.19922-.01953.1914-.0586.46095-.375.09375-.17578.05859-.1914.01953-.19922m9.58203 2.23437l5.41797-4.47266m10.21485 5.72657l.78515-6.98047m14.09375 6.80469l-2.34375-6.625m2.0039 5.66015l-.82812.90235m12.67969.20312l1.26172-6.91016m-1.07813 5.90625l-1.16796.3711m12.4375-.34766l4.98828-4.94922m-4.26172 4.23047l-1.17188-.36328m14.82813 1.8164l2.85156-6.41796m-2.4375 5.48437l-1.22266.08594m16.47266 1.02734L382.75 463.625m1.57422 5.79297l-.89453.83984m11.98437-6.38672l3.14453 6.28516m-2.6875-5.3711l.71094-1m12.53906 6.53907l2.35938-6.6211m-2.01563 5.65625l-1.21484.1797m13.71484.57421l3.3047-6.19922m-2.82423 5.29688h-1.22656m16.4414 1.23828l-1.45702-6.8711m1.24609 5.8711l-.9414.78906m14.86718.10156l-2.25781-6.65234m1.92969 5.6836l-.83985.89453m14.86328-.07813l-3.01562-6.34766m2.57812 5.42579l-.73437.98437"/><g clip-path="url(#L)"><path fill="none" stroke="#000" stroke-linecap="round" stroke-linejoin="round" stroke-miterlimit="10" stroke-width=".5" d="M147.4414 454.41016l-6.8828-1.42188"/></g><path fill="none" stroke="#000" stroke-linecap="round" stroke-linejoin="round" stroke-miterlimit="10" stroke-width=".5" d="M146.4414 454.20313l.34376 1.17578m13.9375-.82813l-6.81641-1.70703m5.82422 1.46094l.29687 1.1914m13.58985-3.64843l-5.97266 3.69921m19.59375-.6289l-6.58984-2.4375m18.01953 4.4375l-2.8164-6.4375m11.27343 2.55078l6.89844 1.33203m6.41797-1.33984l6.89843 1.35156m6.44141-1.45703l6.85156 1.5625m-5.85547-1.33594l-.3203-1.1836m12.55077 1.61329l7.02344.25m-6-.21484l-.53516-1.10157m14.9336-2.03125l2.8086 6.4414m-2.39845-5.5039l.76172-.96093m10.0625 2.8164l6.97266.85547m6.46484-1.4375l6.73047 2.01953m6.9336.79297l6.03125-3.60156m7.49218 3.91406l5.61328-4.22656m-4.79687 3.60937l-1.11328-.51953m13.6914 1.23828l5.45704-4.42968m-4.66407 3.78515l-1.1289-.48047m13.4375.83203l5.8828-3.84375m-5.02733 3.28516l-1.07422-.59375m14.04687 1.76953l4.85547-5.07812M355.32031 455.5l-1.17968-.33203m12.89062-2.60156l6.65234 2.26562m-5.6875-1.9375l-.1953-1.21094m12.40234 2.58985l6.93359-1.14844m-5.92188.98047l-.74609-.97266m13.02344.20703l6.98828.71875m-5.97266-.61328l-.46093-1.13672m12.9453 2.57032l6.6172-2.35938m-6.6172 2.35938l-1.8125-1.65625m16.58595 3.46093l3.69921-5.97265m-3.69921 5.97265l-2.44922-.16015m14.88672-.60938l5.45703-4.42968m-5.45703 4.42968l-2.25782-.95703m3.05078.3125l-1.1289-.47656m15.08984 2.17187l2.58203-6.53515m-2.58203 6.53515l-2.4375.27735m17.29688-.03906l-.51172-7.00782m.51172 7.00782l-2.07813 1.30468"/><g clip-path="url(#M)"><path fill="none" stroke="#000" stroke-linecap="round" stroke-linejoin="round" stroke-miterlimit="10" stroke-width=".5" d="M147.49219 440.78125l-6.98438-.79688"/></g><path fill="none" stroke="#000" stroke-linecap="round" stroke-linejoin="round" stroke-miterlimit="10" stroke-width=".5" d="M153.84375 440.92578l6.9414-1.08594m9.1211 3.98047l1.44922-6.875m11.6914 6.83594l1.79688-6.79297m15.91797 3.70313l-7-.6172m18.32812-2.85937l-3.03125 6.33985m2.58985-5.41797l1.22656-.05469m9.10156-.64453l3.82813 5.89063m8.51562-.94141l5.76953-4.00781m-4.92968 3.42578l-1.08985-.5586m13.08985.16797l6.71875-2.0586m6.6875 2.3125l6.53906-2.5703m-5.58984 2.1953l-.9297-.79687m16.2461-3.61328l.63672 7m-.54297-5.98047l1.02344-.67187m10.28906.4375l4.45703 5.4336m-3.8086-4.64454l.47267-1.13281m11.73828.79297l5.36718 4.53125m-4.58593-3.8711l.2578-1.19921m11.52345 2.07812l6.875 1.45313m-5.875-1.2422l-.33985-1.17968m12.7461.61719l6.6875 2.15625m-5.71485-1.83985l-.21484-1.21093m12.50781 1.05859l6.78516 1.82813m-5.79688-1.5625l-.27343-1.19532m12.625 2.84375l6.73828-1.9961m-5.75782 1.70313l-.85937-.875m13.42187 1.73829L373.5 438.8125m-5.3711 2.6836l-1-.71094m13.375-1.92578l6.33204 3.04687m-6.33203-3.04687l-.09766-2.44922m13.10938 3.42578l6.9414 1.09375m-6.9414-1.09375l-.80079-2.32031m14.4336 4.41796l6.3086-3.09765m-6.3086 3.09765l-1.98828-1.4375m2.90625.98438l-.9961-.71875m14.1211 2.16406l4.85156-5.08203m-4.85156 5.08203l-2.36328-.66406m3.0664-.07813l-1.17969-.33203m14.61329 1.65625l3.20703-6.25m-3.20703 6.25l-2.45313.03907m2.91797-.94532l-1.22656.01563m14.08984.89844l3.17969-6.26563m-3.17969 6.26563l-2.45312.05078m2.91796-.96094l-1.22656.02344m15 1.20312l1.33594-6.89844m-1.33594 6.89844l-2.34765.71875"/><g clip-path="url(#N)"><path fill="none" stroke="#000" stroke-linecap="round" stroke-linejoin="round" stroke-miterlimit="10" stroke-width=".5" d="M147.23438 425.6914l-6.46875 2.75391"/></g><path fill="none" stroke="#000" stroke-linecap="round" stroke-linejoin="round" stroke-miterlimit="10" stroke-width=".5" d="M146.29297 426.09375l.95312.76953m13.41407-.875l-6.6875 2.16016m5.71093-1.84766l.88282.85547m13.22656 1.4375l-6.32813-3.05078m19.84375 2.53515l-6.72656-2.01953m5.75 1.72657l.23828 1.20312m14.14063-1.25781l-6.90235-1.32422m5.89844 1.13281l.35938 1.17188m13.90234-.72656l-6.78516-1.83204m6.78516 1.83203l.54297 2.39454m12.8086-4.0625l-6.86329 1.5078m6.86328-1.5078l1.58985 1.86718m11.51172-2.52734l-6.4336 2.82422m5.4961-2.41406l.96484.7578m11.88672-2.76171l-3.63281 6.01172m3.10546-5.13672l1.22657.0664m8.53906-.625l4.52344 5.37891m-3.8672-4.59375l.45704-1.14062m14.78516-.45313l-.64453 6.9961m.55078-5.98047l1.1328-.47266m9.10938.89063l5.6875 4.1289m-4.85937-3.52734l.17187-1.21484m18.65235 3.05859l-6.98438-.76172m16.89453 3.89453l-.17187-7.02734m14.42187 3.51562l-.01953-.20312-.0586-.1914-.09374-.17579-.46094-.375-.1914-.0586-.19922-.01952-.19922.01953-.1914.05859-.45704.375-.09766.17578-.05859.1914-.01953.20313.01953.19922.0586.1914.09765.17579.45703.375.1914.0586.19923.01952.19922-.01953.1914-.0586.46094-.375.09375-.17577.0586-.1914.01952-.19923m8.88282-.85547l6.8164 1.70704m-5.82422-1.45704l-.29687-1.1914m13.51172 4.2461l5.03515-4.90235m-4.30468 4.1875l-1.16797-.375m15.13672 1.96484l2.26953-6.65234m-1.9414 5.6836l-1.21095.1953m15.5547.95313l-.44532-7.01172m.3789 5.99219l-1.04296.64453m15.95312-.08594l-3.5039-6.08984m2.99218 5.20312l-.64843 1.03907m9.66796-1.46485l6.11329-3.46484m-6.11329 3.46484l-2.0703-1.3164m2.95702.8125l-1.03515-.65625m13.28515.80468l6.46485-2.7539m-6.46485 2.7539l-1.90625-1.54297m2.84766 1.14063l-1.91016-1.53906m15.1836 3.1914l4.66406-5.2539m-4.66406 5.2539l-2.38282-.57422m3.0625-.1875l-1.1914-.28906m14.75781 1.64453l2.8086-6.4414m-2.8086 6.4414l-2.44922.1914m2.85547-1.1289l-1.22266.09375m14.16016.85547l2.7461-6.46484m-2.7461 6.46484l-2.44531.21485m2.84765-1.15235l-1.22265.10547"/><g clip-path="url(#O)"><path fill="none" stroke="#000" stroke-linecap="round" stroke-linejoin="round" stroke-miterlimit="10" stroke-width=".5" d="M146.9336 411.82031l-5.8672 3.86328"/></g><path fill="none" stroke="#000" stroke-linecap="round" stroke-linejoin="round" stroke-miterlimit="10" stroke-width=".5" d="M146.08203 412.38281l1.07422.58985m13.5039-.29297l-6.6914 2.14453m5.71875-1.83203l.8789.85547m13.45313-1.01563l-6.78125 1.84375m5.79688-1.57422l.83984.89453m13.38281.9297l-6.625-2.34376m5.66016 2l.1836 1.21485m12.30077 1.125l-3.03515-6.33594M198.33594 416l-.72656.98828m13.5664.22656l-1.19922-6.92187m1.19922 6.92187l-1.9375 1.50391m15.78906-1.64062l-2.27343-6.64844m1.9414 5.67969l-.83594.89843m16.79297-2.57422l-6.89453-1.36328m5.89063 1.16797l.35547 1.17188m13.98437-2.22657l-6.9336 1.14063m5.92579-.97266l.74219.97266m9.14062-3.94531l1.94531 6.75m-1.66406-5.76953l.88281-.85157m12.50782-.21484l1.23437 6.91797m-1.05469-5.91016l.96485-.75781m10.69922.38281l4.17187 5.65625m-3.5625-4.83203l.52735-1.10938m11.0078 1.80079l6.51563 2.625m7.7539-3.96875l4.60548 5.30859m-3.9336-4.53516l.44141-1.14453m12.54297 5.9414l3.92187-5.83202m-3.35156 4.98437l-1.21875-.125m18.95313-.15625l-6.0547-3.57031m17.2422 5.17969l-1.80079-6.79297m1.53907 5.80469l-.89844.83593m11.79688-.21093l3.55468-6.0625m-3.03906 5.17968l-1.22266-.05078m12.29297-1.91015l7.01563-.37891m-7.01563.3789l-1.26953-2.09765m14.625 1.34375l6.9336 1.13281m-6.9336-1.13281l-.78906-2.32422m1.79687 2.48828l-.39453-1.16015M406.8672 414.5l6.86719-1.49219m-6.8672 1.49219l-1.58593-1.8711m14.91406 1.9297l6.83985-1.60938m-6.83985 1.60937l-1.61719-1.84765m19.625-2.23047l-2.54687 6.54687m2.17969-5.59375l1.21875-.14453m9.01562 5.22266l4.35156-5.51563m-3.71875 4.71485l-1.20703-.21875m14.01172 1.11328l4.10547-5.70313m-3.50781 4.875l-1.21485-.16797"/><g clip-path="url(#P)"><path fill="none" stroke="#000" stroke-linecap="round" stroke-linejoin="round" stroke-miterlimit="10" stroke-width=".5" d="M147.17969 398.9414l-6.35938 2.9922"/></g><path fill="none" stroke="#000" stroke-linecap="round" stroke-linejoin="round" stroke-miterlimit="10" stroke-width=".5" d="M146.2539 399.3789l.98438.73438m13.44531-.67578l-6.73828 2m5.75781-1.70703l.85938.875m13.58203-.1211l-7.02734-.09375m6.0039.08204l.5625 1.08984m11.3086 2.23047l-2.09766-6.70703m14.65625 6.85547l-.57812-7.00391m.57812 7.0039l-2.0664 1.32423m14.27734-1.41016l1.625-6.83594m-1.625 6.83594l-2.375.6211m16.86719-.54298l-.72657-6.98828m.72657 6.98828l-2.03516 1.3711m17.89063-2.88672l-5.8086-3.95703m5.8086 3.95703l-.26954 2.4375m8.48047-7.15625l4.39844 5.48047m12.67969.40625l-3.125-6.29297m2.66797 5.375l-.71094 1m9.66016-1.91406l6.51953-2.62891m6.8828-.19531l6.34376 3.01953m-6.34375-3.01953l-.10938-2.45313m13.54688 2.21875l6.10156 3.48438m-6.10156-3.48438l.07031-2.44922m12.96094 3.08594l6.66797 2.21485m-6.66797-2.21485l-.41016-2.41797m13.65625 2.65235l6.80469 1.74609m-6.80469-1.7461l-.57812-2.38671m16.39453 6.65234l1.80469-6.78906m-1.54297 5.80469l-1.19531.27734m14.8164.8125l.66797-6.9961m-.57031 5.97657l-1.13281.47265m13.33984.29297l2.6914-6.49218m-2.6914 6.49218l-2.4414.23438m13.67187-2.71875l6.85937-1.52344m-5.86328 1.30469l-.79687-.9336m13.62109-1.55859l5.84766 3.89844m-4.9961-3.33203l.1211-1.21875m13.78515-.58594l2.96094 6.375m-2.96094-6.375l1.48047-1.95703m9.86328 5.80469l6.90235-1.32032m-5.89844 1.12891l-.76563-.95703m19.875-.58985l-6.6914 2.15625m5.71484-1.83984l.88281.85156m12.91797-2.1328l-5.71093 4.08983m4.8828-3.49609l1.09766.54688m12.07813-2.0625l-3.77344 5.92968m3.22266-5.0664l1.22265.09765"/><g clip-path="url(#Q)"><path fill="none" stroke="#000" stroke-linecap="round" stroke-linejoin="round" stroke-miterlimit="10" stroke-width=".5" d="M146.70703 384.88672l-5.41406 4.47265"/></g><path fill="none" stroke="#000" stroke-linecap="round" stroke-linejoin="round" stroke-miterlimit="10" stroke-width=".5" d="M145.92188 385.53516l1.1328.46875m13.62891.125l-6.73828 1.98828m5.75781-1.69922l.85938.875m10.3789-3.66797l-.62109 6.9961m.53125-5.98048l1.1289-.47656m10.21485-.08594l3.5 6.09375m-3.5-6.09375L183.5 382m10.2461 5.17578l7.02734-.10156m-7.02735.10156l-1.18359-2.15234m15.4336 4.48828l5.15624-4.77735m-5.15625 4.77735l-2.3164-.8086m18.67578 1.90235l-.92969-6.96485m.92969 6.96485l-1.99219 1.42969m1.85938-2.44141l-1 .71484m15.45703.00391l-2.94531-6.3789m2.9453 6.3789l-1.48437 1.95313m15.75-2.60157l-4.85156-5.08203m4.85156 5.08203l-.76953 2.32813m13.85156-2.125l-4.3828-5.48828m3.74608 4.6914l-.48828 1.125m10.46094-6.09765l3.57422 6.05078m-3.05469-5.16797l.64063-1.04688m10.84375 1.53125l6.19531 3.31641m8.1875-4.52344l4.0625 5.73438m-4.0625-5.73438l1.10156-2.19531m-.51172 3.02734l.55079-1.09375m11.80859.5586l4.79297 5.13672m-4.79297-5.13672l.79687-2.32031m13.89844 1.52343l2.03125 6.73047m-2.03125-6.73047l1.74219-1.72656m-1.44531 2.70703l.87109-.86328m10.47266 5.50781l5.3828-4.51953m-5.3828 4.51953l-2.27344-.91797m15.85547 1.20313l4.84765-5.08594m-4.84765 5.08594l-2.36328-.66406m14.71093-.95704l6.78125-1.84765m-6.78125 1.84765l-1.67968-1.78515m14.875.72265l7.02343.27735m-6-.23438l-.53515-1.10546m13.98047-1.40625l4.71484 5.21484m-4.71484-5.21485l.83593-2.30468m12.42579 2.35937l4.82421 5.10547m-4.125-4.36328l.39454-1.16406m16.92187 5.64062l-4.57813-5.33203m3.91016 4.55469l-.44531 1.14453m15.27344-1.44531l-6.26954-3.17578m5.35547 2.71484l.02735 1.22656m12.03906-5.73047L449.27344 390.5m1.66406-5.76953l1.19922-.2539m13.09375-.44532l-3.33594 6.1836m3.33594-6.1836l2.45312.01563"/><g clip-path="url(#R)"><path fill="none" stroke="#000" stroke-linecap="round" stroke-linejoin="round" stroke-miterlimit="10" stroke-width=".5" d="M141.58984 371.25l4.82032 5.11719"/></g><path fill="none" stroke="#000" stroke-linecap="round" stroke-linejoin="round" stroke-miterlimit="10" stroke-width=".5" d="M153.82422 374.20703l6.98047-.79687m10.41015-3.06641l-1.16797 6.92969m.9961-5.92188l1.16406-.38672m13.92969.09766l-4.38281 5.49219m4.3828-5.49219l2.41017.44922m10.1875-.89453l-2.94922 6.3789m2.94922-6.3789l2.44921-.13672m-2.8789 1.0664l1.22656-.0703m12.66016 5.45312l-3.23047-6.24219m2.75781 5.33203l-.69531 1.01172m13.59375.21484l-1.45313-6.875m1.45313 6.875l-1.88281 1.57422m16.15625-1.92969l-3.3711-6.16406m3.3711 6.16406l-1.34766 2.05079m.85937-2.94922l-.67578 1.02734m15.49219-.96094l-5.39844-4.5m5.39844 4.5l-.5 2.40235m-.28516-3.0586l-.25 1.20313m15.03907-1.85547l-6.77344-1.88281m6.77344 1.88281l.52734 2.39453m11.41797-6.21094l-4.03516 5.75m4.03516-5.75l2.4375.30079m10.4414-.5625l-3.16015 6.27343m3.16015-6.27344l2.45313-.05468m-2.91406.96484l1.22656-.02734m12.33984-.98047l-2.74218 6.46875m2.74218-6.46875l2.44141-.21875m-2.83984 1.16015l2.4414-.21875m11.48047-.6289l-3.16015 6.27734m3.16015-6.27734l2.45313-.05469m-2.91407.96875l2.45313-.05469m11.3125-.86328l-3.14063 6.28516m3.14063-6.28516l2.45312-.0586m-2.91015.97657l1.22656-.03125m13.39844-.28906l-4.84375 5.09375m4.84375-5.09375l2.36328.66015m5.46094.1797l6.13671 3.41406m-6.13671-3.41407l.04687-2.45703m12.82813 4.33594l7.01953-.34766m-6 .29688l-.6289-1.05078m14.80858-2.1875l3.2461 6.23437m-3.2461-6.23437l1.39063-2.02344m10.08594 5.73047l6.92578-1.17969m-5.91797 1.00781l-.75-.97265m16.41016 4.0664l.21875-7.02344m-.1836 6l-1.10156.54297m16.65234-.26171l-4.3203-5.53907m4.3203 5.53906l-1 2.2422m14.57422-2.46485l-4.83984-5.09766m4.13281 4.35938l-.38672 1.16015m14.40625-5.51953l-4.83203 5.10156M451.96093 372l1.1797.32422m13.10546-.78125l-5.37109 4.53125"/><g clip-path="url(#S)"><path fill="none" stroke="#000" stroke-linecap="round" stroke-linejoin="round" stroke-miterlimit="10" stroke-width=".5" d="M466.2461 371.54297l2.27734.91406"/></g><path fill="none" stroke="#000" stroke-linecap="round" stroke-linejoin="round" stroke-miterlimit="10" stroke-width=".5" d="M465.46484 372.20313l1.14063.45703"/><g clip-path="url(#T)"><path fill="none" stroke="#000" stroke-linecap="round" stroke-linejoin="round" stroke-miterlimit="10" stroke-width=".5" d="M140.85156 358.9336l6.29688 3.12109"/></g><path fill="none" stroke="#000" stroke-linecap="round" stroke-linejoin="round" stroke-miterlimit="10" stroke-width=".5" d="M153.80078 360.58203l7.02734-.17969m-6.0039.15235l-.60156-1.0664m12.89843 1.14452l7.01953-.28125m-6 .24219l-.61718-1.0625m18.51953-1.85547l-4.19531 5.63672m3.58593-4.8164l1.21094.18359m13.69922.1289l-6.16797 3.3711m5.26953-2.88281l1.02735.67578m13.05859-1.37891l-5.91406 3.79688m5.91406-3.79688l2.14063 1.20313m9.07812 4.10156l-1.71875-6.8125m1.71875 6.8125l-1.82031 1.64844m1.57031-2.63672l-.91016.8203m14.84766.0547l-2.46484-6.58204m2.46484 6.58204l-1.625 1.83593m15.98828-2.45312l-4.5586-5.34766m4.5586 5.34766l-.90234 2.28125m13.84375-2.0039l-3.8125-5.90235m3.25781 5.04297l-.59766 1.07031m14.58203-6.03906l-4.03906 5.75m15.625-6.375l-.58594 7.0039m.58594-7.0039l2.25781-.96875m-2.33984 1.98828l2.2539-.96875m-2.33984 1.98828l1.125-.48438m12.63672-1.51953l-1.14062 6.9336m1.14062-6.9336l2.32422-.78906m-2.49219 1.79688l1.16407-.39454m13.60937-.125l-3.72265 5.95704m3.72265-5.95704l2.44922.16797m-2.98828.69532l2.44531.17187m10.6211-1.40234l-2.14844 6.6914m2.14844-6.6914l2.41406-.4375m-2.72656 1.41015l2.41406-.43359m11.02344-.59375l-1.76563 6.80078m1.76563-6.80078l2.38671-.57031m12.08985 1.11328l-4.08985 5.71484m4.08985-5.71484l2.4336.32422m-3.02735.50781l2.42969.32422m10.79296-1.53906l-2.71875 6.48046m2.71875-6.48046l2.44532-.22266m12.65625 1.89844l-6.29297 3.125m5.3789-2.66797l.9961.71094m13.57422.83203l-6.97266-.875m5.95703.75l.4375 1.14453m12.30469 1.5l-3.79688-5.91406m3.79688 5.91406L411 365.58984m14.14453-1.93359l-3.05469-6.32813m2.60938 5.41016l-.72656.98828m14.72265-.19531l-3.52734-6.07422m3.01562 5.1914l-.64843 1.03907m13.95312.09375l-2.48437-6.57422m2.125 5.61719l-.8125.92187m16.10156-5.29687l-5.71484 4.08984"/><g clip-path="url(#U)"><path fill="none" stroke="#000" stroke-linecap="round" stroke-linejoin="round" stroke-miterlimit="10" stroke-width=".5" d="M466.41797 358.44922l2.19922 1.09375"/></g><g clip-path="url(#V)"><path fill="none" stroke="#000" stroke-linecap="round" stroke-linejoin="round" stroke-miterlimit="10" stroke-width=".5" d="M140.76953 345.80078l6.46094 2.7539"/></g><path fill="none" stroke="#000" stroke-linecap="round" stroke-linejoin="round" stroke-miterlimit="10" stroke-width=".5" d="M153.88672 346.40234l6.85547 1.5547m-6.85547-1.5547l-.64063-2.37109m13.97657 4l6.8164-1.70703m-6.8164 1.70703l-1.64453-1.82031m14.95312 1.79687l6.82813-1.66015m-5.83594 1.41796l-.8125-.91796m19.88672 1.43359l-6.67188-2.20313m19.88281-.27734l-6.46484 2.7539m5.52344-2.35156l.95312.76954m13.58203.09765l-7.02343.21485m7.02343-.21485l1.21875 2.1289m9.58985 1.34767l-2.00781-6.73438m1.71484 5.7539l-.875.85938m13.60156.26172l-.2461-7.01953m.21095 6l-1.0625.61328m14.72265.38281l-.8711-6.97265m.7461 5.95703l-1.0039.70703m17.51562-3.38281l-7.01172.41015m15.0586-3.24219l3.52734 6.07813m-3.52735-6.07813L290 342.0547m-.78516 2.96875l.64844-1.04297m12.38672.03515l3.0625 6.32422m-3.0625-6.32421l1.44922-1.98047m-1.0039 2.90234l.72265-.99219m14.5039-.1836l-1.64843 6.83204m1.64844-6.83203l2.375-.60938m-2.6172 1.60547l1.1875-.3086m12.28907-.70312l-1.49219 6.86329m1.49219-6.86329l2.36328-.66796m-2.57812 1.66406l1.17968-.33203m10.51954-.57422l2.17187 6.6836m-2.17188-6.6836l1.70704-1.76563m-1.39063 2.73828l.85156-.8828m12.8086-.23438l.84765 6.97265m-.84765-6.97265l2.01172-1.40625m-1.88672 2.41796l1.0039-.69921m13.6797-.17188l-2.14063 6.6914m2.14062-6.6914l2.41406-.4375m-2.72265 1.41016l1.20703-.21875m13.73047.01172l-4.76563 5.16406m18.1836-5.0664L394.5 349.66405m18.1836-5.07031l-4.76173 5.16797m4.06641-4.41406l1.1875.30859m8.8125 4.63672l3.2539-6.23047m-3.2539 6.23047l-2.45312.01562m16.02343.10157l2.7461-6.46485m-2.34766 5.52735l-1.22265.10546m16.04296 1.07422l-1.0625-6.94921m.90625 5.9375l-.98046.73437m17.36328-2.5l-6.88672-1.39063m5.88672 1.1875l.35156 1.17579"/><g clip-path="url(#W)"><path fill="none" stroke="#000" stroke-linecap="round" stroke-linejoin="round" stroke-miterlimit="10" stroke-width=".5" d="M140.65625 332.77734l6.6875 2.17188"/></g><path fill="none" stroke="#000" stroke-linecap="round" stroke-linejoin="round" stroke-miterlimit="10" stroke-width=".5" d="M153.8086 333.64063l7.01171.4453m-7.01172-.4453l-1.01172-2.23438m2.03125 2.30078l-.5078-1.11719m12.80468 1.50782l7.01172-.46875m-7.01172.46875l-1.29297-2.08594m14.6836 2.6211l6.85937-1.53907m-6.85938 1.53906l-1.59765-1.86328m14.82812 1.07813l7.02735.03125m-7.02735-.03125l-1.14453-2.16797m14.46485 2.32422l7.01953-.28125m-6 .23828l-.61719-1.0586m19.1836-1.20703l-5.52735 4.33594m4.72656-3.70703l1.1211.4961m13.72656.67968l-6.98828.72656m5.97265-.6211l.6836 1.01954m13.57422-1.5625l-6.83985 1.60156m5.84375-1.3711l.8086.92579m12.8125 1.85547l-5.46094-4.42188m4.66797 3.77735l-.23438 1.20703m9.9414-5.86719l3.33985 6.1836m10.85157-6.51172l1.58984 6.84375m-1.35938-5.84766l.92579-.8086m10.84375.42188l4.21875 5.625m-4.21875-5.625l1.04296-2.21875m12.70313 1.94531l3.35547 6.17188m-3.35547-6.17188l1.35547-2.04687m12.35547 1.85937l2.5625 6.54297m-2.5625-6.54297l1.59765-1.85937m11.58203 1.91797l2.83594 6.42969m-2.83594-6.4297l1.51954-1.92968m10.64453 2.7461l5.13672 4.79687m-5.13672-4.79688l.63672-2.37109m.10937 3.07031l.32031-1.1875m13.04297-.14844l3.54688 6.06641m-3.54688-6.0664l1.28906-2.08594m-.77343 2.96875l.64453-1.04297m16.44922.7461l-5.03907 4.89843m4.3047-4.1836l1.16796.375m8.74219-1.7578l3.23828 6.23437m-2.76563-5.32813l.69532-1.01171m10.77734 1.375l5.97656 3.6953m-5.10547-3.16015l.07813-1.22265m16.3789 2.53515l-.01953-.19922-.05859-.1914-.09766-.17579-.45703-.3789-.1914-.0586-.19922-.01953-.19922.01954-.1914.05859-.46094.3789-.09375.17579-.0586.1914-.01953.19922.01953.19922.0586.1914.09375.17579.46093.3789.1914.0586.19923.01953.19922-.01953.1914-.0586.45703-.3789.09766-.17578.0586-.19141.01953-.19922m11.02734 3.27735l2.52734-6.5547m-2.16015 5.60157l-1.21875.14844m15.9453 1.0039l-1.03124-6.95312m.88281 5.9414l-.98828.72657m16.3711-.66016l-4.8711-5.0625m4.16406 4.32813l-.38281 1.16406"/><g clip-path="url(#X)"><path fill="none" stroke="#000" stroke-linecap="round" stroke-linejoin="round" stroke-miterlimit="10" stroke-width=".5" d="M141.85938 317.76172l4.28125 5.57422"/></g><path fill="none" stroke="#000" stroke-linecap="round" stroke-linejoin="round" stroke-miterlimit="10" stroke-width=".5" d="M153.82031 320.16797l6.98828.76172m-6.98828-.76172l-.91015-2.28125m14.23047 3.05469l6.98046-.78907m-6.98047.78907l-1.39062-2.02344m14.80078 2.53125l6.78906-1.80469m-6.78906 1.80469l-1.67187-1.79688m14.91797 1.48829l6.92578-1.1836m-6.92578 1.1836l-1.5-1.94141m2.5078 1.76953l-.75-.97266m13.0586-.05468l6.92188 1.21093m-6.92188-1.21093l-.76172-2.33204m14.36719 1.4297l6.34375 3.01952m-6.34375-3.01953l-.10938-2.45312m15.00782.82812l3.17969 6.26563m-2.71875-5.35156l.70703-1.00391m16.65234 1.26172l-5.83203 3.92187m4.98047-3.35156l1.08594.57813m13.64062.29687l-6.95313 1.03125m5.94141-.8789l.72656.98827m12.26172-3.41406l-4.27343 5.57813m3.64843-4.76563l1.21094.20313m9.35547-1.51563l2.47266 6.57813m-2.11329-5.6211l.8086-.91796m11.2461.46093l4.27343 5.57813m-3.65234-4.76563l.51171-1.11719m12.35938.1797l3.91797 5.83202m-3.91797-5.83203l1.15625-2.16406m11.98828 2.28516l4.25781 5.58984m-4.25781-5.58984l1.02344-2.23047m11.96875 2.51172l4.90625 5.02734m-4.90625-5.02734l.7461-2.33985m-.03516 3.07031l.375-1.16796m11.58984 1.28125l6.1836 3.33984m-6.1836-3.33984l.01953-2.45704m13.3789 2.3086l6.01563 3.63672m-6.01562-3.63672l.13672-2.44922m13.89062 1.60938l4.59375 5.3164m-3.92578-4.54297l.4414-1.14453m12.91407-.10547l3.17578 6.26563m-2.71484-5.35547l.70703-1m11.62109.41797l4.22656 5.61328m-3.61328-4.79688l.51953-1.11328m12.34766.17969l3.89844 5.84766m-3.33203-4.9961l.58203-1.08203m12.4375 6.24219l3.35547-6.17578m-2.8672 5.27734l-1.22655-.01172m16.40625 1.26953l-1.35157-6.89453m1.15625 5.89063l-.95312.77344m15.82031-.35157l-4.0664-5.73047m3.47656 4.89454l-.55078 1.09765"/><path fill="#00f" fill-rule="evenodd" d="M215.14453 472.08594h8.61719V461.9414h-8.61719v10.14453"/><path fill="azure" fill-rule="evenodd" d="M216.97656 463.77344h.83203v2.82422h3.28516v-2.82422h.83594v6.48047h-.83594v-2.91797h-3.28516v2.91797h-.83203v-6.48047"/><path fill="#00f" fill-rule="evenodd" d="M388.23828 467.64844h8.61719V457.5039h-8.61719v10.14453"/><path fill="azure" fill-rule="evenodd" d="M390.07031 459.33594h.83594v2.82422h3.28516v-2.82422h.83203v6.48047h-.83203v-2.91797h-3.28516v2.91797h-.83594v-6.48047"/><path fill="#00f" fill-rule="evenodd" d="M388.23828 436.57813h8.61719v-10.14454h-8.61719v10.14454"/><path fill="azure" fill-rule="evenodd" d="M390.07031 428.26563h.83594v2.82421h3.28516v-2.82421h.83203v6.48046h-.83203v-2.91406h-3.28516v2.91406h-.83594v-6.48046"/><path fill="#ff3030" fill-rule="evenodd" d="M211.39844 432.14063h7.6914v-10.14454h-7.6914v10.14454"/><path fill="azure" fill-rule="evenodd" d="M213.23047 423.82813h.83594v5.73828h3.1914v.74218h-4.02734v-6.48046"/><path fill="#00f" fill-rule="evenodd" d="M250.64844 432.14063h8.6211v-10.14454h-8.6211v10.14454"/><path fill="azure" fill-rule="evenodd" d="M252.48438 423.82813h.83203v2.82421h3.28515v-2.82421h.83203v6.48046h-.83203v-2.91796h-3.28515v2.91796h-.83203v-6.48046"/><path fill="#00f" fill-rule="evenodd" d="M197.39063 401.07422h8.61718v-10.14844h-8.61719v10.14844"/><path fill="azure" fill-rule="evenodd" d="M199.22266 392.76172h.83203v2.82031h3.28515v-2.82031h.83594v6.47656h-.83594v-2.91406h-3.28515v2.91406h-.83203v-6.47656"/><path fill="#ff3030" fill-rule="evenodd" d="M322.35938 374.4414h7.6914v-10.14452h-7.6914v10.14453"/><path fill="azure" fill-rule="evenodd" d="M324.1914 366.1289h.83204v5.7422h3.19531v.73827h-4.02734v-6.48046"/><path fill="#ff3030" fill-rule="evenodd" d="M420 374.4414h7.69531v-10.14452H420v10.14453"/><path fill="azure" fill-rule="evenodd" d="M421.83594 366.1289h.83203v5.7422h3.1914v.73827h-4.02343v-6.48046"/><path fill="#ff3030" fill-rule="evenodd" d="M211.39844 370.0039h7.6914v-10.14452h-7.6914v10.14453"/><path fill="azure" fill-rule="evenodd" d="M213.23047 361.6914h.83594v5.73829h3.1914v.74219h-4.02734v-6.48047"/><path fill="#ffffe0" fill-rule="evenodd" d="M310.67578 391.76563h22.17969V381.5703h-22.17969v10.19531"/><path fill-rule="evenodd" d="M314.17578 383.40625h.50781v6.29297h-.78515v-4.48828h-1.39063v-.55469l.5586-.0664.2539-.0547.23047-.08984.20313-.14062.17187-.21094.14453-.29297.10547-.39453m4.8125 0l.23047.01563.21875.05859.20703.08984.19531.1211.1836.14843.17187.17579.30469.41796.24219.4961.17969.54297.10937.58203.03906.58984-.03906.59375-.10938.58203-.17968.55469-.24219.5039-.30469.42579-.17187.17969-.1836.15625-.1953.12109-.20704.09375-.21875.05469-.23047.01953-.23047-.01953-.21875-.0547-.20703-.09374-.19531-.1211-.1836-.15625-.17187-.17968-.30469-.42578-.24219-.50391-.17968-.55469-.10938-.58203-.03906-.59375h.83203l.03125.5625.07813.50781.1289.44141.16016.375.1914.30078.21094.22266.22266.13672.22656.04687.22656-.04687.22266-.13672.21094-.22266.1914-.30078.16016-.375.1289-.4414.08204-.50782.02734-.5625-.02734-.5625-.08203-.5-.12891-.4336-.16016-.36718-.1914-.29297-.21094-.21484-.22266-.1289-.22656-.04688-.22656.04687-.22266.1289-.21094.21485-.1914.29297-.16016.36719-.1289.4336-.07813.5-.03125.5625h-.83203l.03906-.58985.10938-.58203.17969-.54297.24218-.4961.30469-.41796.17188-.17579.18359-.14843.19531-.1211.20703-.08984.21875-.0586.23047-.01562m4.95313 0l.23046.01563.21875.05859.20704.08984.1953.1211.1836.14843.17188.17579.30469.41796.24218.4961.17969.54297.10938.58203.03906.58984-.03906.59375-.10938.58203-.17969.55469-.24219.5039-.30468.42579-.17188.17969-.1836.15625-.1953.12109-.20704.09375-.21875.05469-.23046.01953-.23047-.01953-.21875-.0547-.20703-.09374-.19532-.1211-.1875-.15625-.16796-.17968-.3047-.42578-.24218-.50391-.17969-.55469-.10937-.58203-.03906-.59375h.83203l.02734.5625.08203.50781.1289.44141.16016.375.19141.30078.21094.22266.22265.13672.22657.04687.22656-.04687.22265-.13672.21094-.22266.1914-.30078.16017-.375.1289-.4414.07813-.50782.03125-.5625-.03125-.5625-.07813-.5-.1289-.4336-.16016-.36718-.1914-.29297-.21094-.21484-.22266-.1289-.22656-.04688-.22657.04687-.22265.1289-.21094.21485-.1914.29297-.16016.36719-.1289.4336-.08204.5-.02734.5625h-.83204l.03907-.58985.10937-.58203.17969-.54297.24219-.4961.30469-.41796.16796-.17579.1875-.14843.19532-.1211.20703-.08984.21875-.0586.23047-.01562m4.95312 0l.38672.02734.35938.08204.3203.13671.28126.1875.23047.23438.17187.28906.10938.33203.03906.375-.02344.27344-.05469.23438-.08984.20312-.10938.16797-.1328.14453-.13673.1211-.28906.19921.23438.11719.20703.14844.17969.17187.15625.1914.12109.21485.09375.23047.05469.24219.01953.25781-.03516.3086-.10547.32421-.17187.32813-.23828.30469-.3047.26953-.375.21484-.21093.08203-.23047.0586-.24219.03906-.26171.01172-.26172-.01172-.23828-.03906-.22657-.0586-.20312-.08203-.35938-.21484-.28906-.26953-.22265-.3047-.16016-.32812-.08985-.32421-.03125-.3086h.83204l.02734.25.07813.23828.12109.21094.16015.1836.19532.15234.21875.11719.24219.0703.2539.02735.2539-.02734.2422-.07031.21875-.1172.1914-.15234.16016-.18359.125-.21094.07812-.23828.02735-.25-.02735-.2539-.07812-.23438-.125-.21484-.16016-.1836-.1914-.15234-.21875-.11328-.2422-.07422-.2539-.02344-.2539.02344-.2422.07422-.21874.11328-.19531.15234-.16016.1836-.1211.21484-.07812.23438-.02734.2539h-.83204l.01954-.2539.05468-.2422.08985-.22265.125-.20703.15234-.1914.1836-.17188.20703-.15235.23046-.1328-.28515-.19923-.14063-.12109-.1289-.14453-.11328-.16797-.08594-.20313-.0586-.23437-.01953-.27344h.78516l.02344.21485.0664.1914.10547.16797.13672.13672.16406.11328.1875.08203.20704.05078.22265.01563.21875-.01563.20703-.05078.1875-.08203.16797-.11328.13672-.13672.10156-.16797.0664-.1914.02345-.21485-.02344-.21484-.0664-.1914-.10157-.16407-.13672-.14063-.16797-.11328-.1875-.07812-.20703-.05078-.21875-.01953-.22265.01953-.20704.05078-.1875.07812-.16406.11329-.13672.14062-.10547.16406-.0664.1914-.02344.21485h-.78516l.03907-.375.10937-.33203.17188-.28906.23046-.23438.27735-.1875.32422-.13671.35937-.08204.38672-.02734"/><path fill="#ffffe0" fill-rule="evenodd" d="M395.0039 399.58594h22.1797v-10.19531h-22.1797v10.1953"/><path fill-rule="evenodd" d="M398.5039 391.22656h.50782v6.29297h-.78516v-4.48828h-1.39062v-.55469l.5625-.0664.25-.0547.23047-.08983.20312-.14063.17578-.21094.14063-.29297.10547-.39453m4.8125 0l.23046.01953.21875.0547.20704.08983.19921.1211.1836.14844.17187.17578.30079.41797.24218.49609.17969.54688.11328.57812.03516.58984-.03516.59375-.11328.58594-.17969.55078-.24219.5039-.30078.42579-.17187.17969-.1836.15625-.19921.1211-.20704.09374-.21875.05469-.23046.01953-.22657-.01953-.22265-.05469-.20703-.09375-.19532-.1211-.18359-.15624-.17188-.17969-.30078-.42578-.24609-.5039-.17969-.55079-.10937-.58594-.03906-.59375h.83203l.03125.5625.08203.50782.125.4414.16015.375.19141.30078.21094.22266.22265.13672.22657.04687.22656-.04687.22265-.13672.21094-.22266.1914-.30078.16407-.375.125-.4414.08203-.50782.02735-.5625-.02735-.5625-.08203-.5-.125-.43359-.16406-.36719-.1914-.29297-.21094-.21093-.22266-.13282-.22656-.04687-.22657.04687-.22265.13282-.21094.21093-.1914.29297-.16016.36719-.125.4336-.08203.5-.03125.5625h-.83204l.03907-.58985.10937-.57813.17969-.54687.2461-.4961.30077-.41796.17188-.17578.1836-.14844.1953-.1211.20704-.08984.22265-.05469.22657-.01953m4.95312 0l.23047.01953.21875.0547.20703.08983.19531.1211.1875.14844.16797.17578.30469.41797.24219.49609.17969.54688.11328.57812.03515.58984-.03515.59375-.11329.58594-.17968.55078-.24219.5039-.30469.42579-.16797.17969-.1875.15625-.1953.1211-.20704.09374-.21875.05469-.23047.01953-.23047-.01953-.21875-.05469-.20703-.09375-.19531-.1211-.1836-.15624-.17187-.17969-.30078-.42578-.2461-.5039-.17968-.55079-.10938-.58594-.03906-.59375h.83203l.03125.5625.07813.50782.1289.4414.16016.375.1914.30078.21094.22266.22266.13672.22656.04687.22656-.04687.22266-.13672.21094-.22266.1914-.30078.16016-.375.1289-.4414.08204-.50782.02734-.5625-.02734-.5625-.08203-.5-.12891-.43359-.16016-.36719-.1914-.29297-.21094-.21093-.22266-.13282-.22656-.04687-.22656.04687-.22266.13282-.21094.21093-.1914.29297-.16016.36719-.1289.4336-.07813.5-.03125.5625h-.83203l.03906-.58985.10938-.57813.17969-.54687.24609-.4961.30078-.41796.17188-.17578.18359-.14844.19531-.1211.20703-.08984.21875-.05469.23047-.01953m4.95313 0l.38671.02735.35938.08203.32031.13672.28125.1875.23047.23437.17188.28906.10937.33204.03906.375-.02343.27343-.0547.23828-.08983.19922-.10938.16797-.1289.14453-.14063.1211-.28906.19921.23437.1172.20703.14843.1836.17188.15234.1914.125.21485.08984.23046.0547.2422.01952.2578-.03515.3086-.10157.32422-.17187.32812-.24219.30469-.30469.26953-.375.21484-.21093.08204-.23047.05859-.24219.03906-.26172.01172-.25781-.01172-.24219-.03906-.22265-.0586-.20704-.08203-.35937-.21484-.28906-.26953-.22266-.30469-.15625-.32812-.09375-.32422-.03125-.3086h.83203l.02735.25391.07812.23438.1211.21093.16015.1836.19531.15234.21875.11719.24219.07031.2539.02734.25391-.02734.24219-.07031.21875-.11719.19531-.15234.16016-.1836.1211-.21094.07812-.23437.02734-.2539-.02734-.25391-.07813-.23438-.1211-.21484-.16015-.1836-.19531-.15234-.21875-.11328-.24219-.07422-.2539-.02344-.25391.02344-.24219.07422-.21875.11328-.19531.15235-.16016.18359-.12109.21484-.07813.23438-.02734.2539h-.83203l.01953-.2539.05469-.24219.08984-.22266.125-.20703.15235-.1914.18359-.17188.20703-.15234.23047-.13281-.28516-.19922-.14062-.1211-.1289-.14453-.10938-.16797-.08985-.19922-.05859-.23828-.01953-.27344h.78906l.01953.21485.0664.1914.10548.16797.13672.13672.16406.11328.1914.08204.20704.05078.21875.01562.21875-.01562.20703-.05079.1914-.08203.16407-.11328.13671-.13672.10547-.16796.0625-.19141.02344-.21485-.02344-.21484-.0625-.1914-.10546-.16407-.13672-.14062-.16407-.10938-.1914-.08203-.20703-.05078-.21875-.01953-.21875.01953-.20704.05078-.1914.08203-.16406.10938-.13672.14062-.10547.16406-.0664.19141-.01954.21485h-.78906l.03906-.375.10938-.33204.17187-.28906.23047-.23437.27734-.1875.32422-.13672.35938-.08203.38672-.02735"/></g></defs><use xlink:href="#Y"/></svg>