<svg xmlns="http://www.w3.org/2000/svg" role="img" xmlns:xlink="http://www.w3.org/1999/xlink" viewBox="142.45 309.95 326.84 171.84"><defs><clipPath id="a"><path d="M144 311.67188h1v168.65625h-1zm0 0"/></clipPath><clipPath id="b"><path d="M144 311.67188h324v168.65625H144zm0 0"/></clipPath><clipPath id="c"><path d="M467 311.67188h1v168.65625h-1zm0 0"/></clipPath><clipPath id="d"><path d="M144 479h4v1.32813h-4zm0 0"/></clipPath><clipPath id="e"><path d="M147 480h2v.32813h-2zm0 0"/></clipPath><clipPath id="f"><path d="M153 479h9v1.32813h-9zm0 0"/></clipPath><clipPath id="g"><path d="M160 480h2v.32813h-2zm0 0"/></clipPath><clipPath id="h"><path d="M166 479h9v1.32813h-9zm0 0"/></clipPath><clipPath id="i"><path d="M172 480h2v.32813h-2zm0 0"/></clipPath><clipPath id="j"><path d="M180 479h8v1.32813h-8zm0 0"/></clipPath><clipPath id="k"><path d="M186 480h2v.32813h-2zm0 0"/></clipPath><clipPath id="l"><path d="M193 479h8v1.32813h-8zm0 0"/></clipPath><clipPath id="m"><path d="M199 480h2v.32813h-2zm0 0"/></clipPath><clipPath id="n"><path d="M206 479h9v1.32813h-9zm0 0"/></clipPath><clipPath id="o"><path d="M212 480h2v.32813h-2zm0 0"/></clipPath><clipPath id="p"><path d="M220 478h8v2.32813h-8zm0 0"/></clipPath><clipPath id="q"><path d="M226 480h1v.32813h-1zm0 0"/></clipPath><clipPath id="r"><path d="M233 478h8v2.32813h-8zm0 0"/></clipPath><clipPath id="s"><path d="M247 477h7v3.32813h-7zm0 0"/></clipPath><clipPath id="t"><path d="M261 477h6v3.32813h-6zm0 0"/></clipPath><clipPath id="u"><path d="M274 477h6v3.32813h-6zm0 0"/></clipPath><clipPath id="v"><path d="M287 477h7v3.32813h-7zm0 0"/></clipPath><clipPath id="w"><path d="M301 477h6v3.32813h-6zm0 0"/></clipPath><clipPath id="x"><path d="M316 476h3v4.32813h-3zm0 0"/></clipPath><clipPath id="y"><path d="M329 476h2v4.32813h-2zm0 0"/></clipPath><clipPath id="z"><path d="M343 476h2v4.32813h-2zm0 0"/></clipPath><clipPath id="A"><path d="M356 476h2v4.32813h-2zm0 0"/></clipPath><clipPath id="B"><path d="M368 476h5v4.32813h-5zm0 0"/></clipPath><clipPath id="C"><path d="M381 476h5v4.32813h-5zm0 0"/></clipPath><clipPath id="D"><path d="M393 478h8v2.32813h-8zm0 0"/></clipPath><clipPath id="E"><path d="M407 478h7v2.32813h-7zm0 0"/></clipPath><clipPath id="F"><path d="M419 479h9v1.32813h-9zm0 0"/></clipPath><clipPath id="G"><path d="M425 479h3v1.32813h-3zm0 0"/></clipPath><clipPath id="H"><path d="M434 477h5v3.32813h-5zm0 0"/></clipPath><clipPath id="I"><path d="M447 477h6v3.32813h-6zm0 0"/></clipPath><clipPath id="J"><path d="M462 476h3v4.32813h-3zm0 0"/></clipPath><clipPath id="K"><path d="M144 466h4v2h-4zm0 0"/></clipPath><clipPath id="L"><path d="M144 452h4v3h-4zm0 0"/></clipPath><clipPath id="M"><path d="M144 440h4v1h-4zm0 0"/></clipPath><clipPath id="N"><path d="M144 425h4v4h-4zm0 0"/></clipPath><clipPath id="O"><path d="M144 411h4v5h-4zm0 0"/></clipPath><clipPath id="P"><path d="M144 398h4v5h-4zm0 0"/></clipPath><clipPath id="Q"><path d="M144 384h3v6h-3zm0 0"/></clipPath><clipPath id="R"><path d="M465 384h3v1h-3zm0 0"/></clipPath><clipPath id="S"><path d="M144 371h4v6h-4zm0 0"/></clipPath><clipPath id="T"><path d="M466 371h2v3h-2zm0 0"/></clipPath><clipPath id="U"><path d="M144 358h4v5h-4zm0 0"/></clipPath><clipPath id="V"><path d="M466 358h2v3h-2zm0 0"/></clipPath><clipPath id="W"><path d="M144 345h4v4h-4zm0 0"/></clipPath><clipPath id="X"><path d="M144 332h4v4h-4zm0 0"/></clipPath><clipPath id="Y"><path d="M144 317h3v7h-3zm0 0"/></clipPath><g id="Z" clip-path="url(#clip1)"><path fill="#fff" fill-opacity="0" fill-rule="evenodd" d="M0 0h1000v1000H0zm0 0"/><path fill="#d3d3d3" fill-opacity="0" fill-rule="evenodd" d="M162.15234 355.86719l-.23437.29297.0586.23437.11718.17188.17578.23437.29297.34766.11328.0586.11719-.17188.0586-.23438.17577-.17578.46485-.17578h.69922l.23437.29297.28906.8164.0586.17579.17578.23046.35156.23438.69922.69922.17188.17578.23437.34765.23438.41016.28906.58203.41015.46485.23047.23437.23438.17578.11719.23047.17578.29297.17187 1.16406v.23438l.0586.28906.05859.11719.11719.11719.34765.41015.11719.17188.17578.17578.17578.23437.11719.17188.17188.35156.05859.23438.23437.40625.23438-.0586-.17578.17578-.0586.92969h-.58203l-.23437-.11328-.34766.11328-.11719.11719-.05859.29297-.0586.17578-.11718.17187-.46484.29297-.0586.23438-.0586.11328v.64453l.0586.17187v.41016l.0586.0586v.40624l.05859.40625.11719.17579.05859.05859.23047.64062-.0586.29297v.69922l-.05859.58203v.23438l-.0586.23047-.05468.35156v1.92187l.05469.1172h.42578l-.36719.11718-.02344.35156.89063 1.16797 1.74219.53906 1.33984.35938v.53906l.08984.8086.53516.71484 1.51953.26953.89063-.08594.08984 1.16406.53516.1797 1.16015-.1797 2.05469-.98437 1.16016-.36328 1.8789-.17578 1.69531-.1797-.17968.71876-1.51563.08594-1.25.08984-.80469.26953-1.07421.8086.26953.71875.53515.89843-.17968.625-.26563.8086.26563 1.07812.625.89844.80468.17969 1.25-.1797-.26562.72267.09766.5039.05468.29297v.17188l.0586.29296v.40625l.17578.1172.35156.11718h.40625l.29297-.17578.11328-.11719.0586-.11719.11718-.23047.0586-.17578.35156-.46484.23047-.17578.17578-.0586.17578.0586.0586.17578.11718.98828.05469.46875.0586.17188.11718.23437.17578.0586.8164.05859h.28907l.11719.23437.05859.40625.0586.35156v1.10547l.11718.29297.11719.34766.28906.69922.17578.35156.58203.7539.35157.17579.17187.0586.46875.23437.64063.46484.34765.23438.29297.17578.29297.05468.23047.0625.8164.34766.29297.17578.11328.17188.35157.35156.11719.17578.52343.64063v.28906l.0586.35156v.34766l.05859.35156.0586.28906.11718.0586.17188.05859h.17578l.58203.23437.17578.1172.17578.28905.17578.23438.11328.23437.29297.23047.11719.11719v.41016l.0586.05468.28906.23438.23437.11719.0586.11718.11718.17188.0586.11719.23047.23437.05859.17578.23437.0586.1172.05859-.1172.11328-.05859.11719v.11719l-.11719.29296-.11719.28907v.58203l.17579.11719.11718.05859.0586.11719.11719.11719.11328.05859.17578.34765.0586.35157.05858.40625v.17578l-.05859.17578-.11719.69922v.17187l.1172.17579.29296.29296h.40625l.17578.1172.11719.17187.11719.29296v.23438h-.52735l-.23047-.23438h-.23437l-.17578.0586-.0586.69922.0586.34765.11719.17579.17578.41015.11718.23047.28907.46875.17578.05469h.52344l.23437.0586.75781.64062.0586.29296v.23438l.05859.0586.23047.34765v.35156l-.11719.17188v.29297l.29297.28906.29297.17578.17187.0586.29297.17577.29297.1172.58203.40624.28906.23438.29297.17578.21875.16015.01563.01172.23047.17579.64062.52343.17578.23438.1172.17578.17577.17578.11328.17188v.64062l.1172.17578.46874.11719.58203.11719.23438.05859.23047.11328.29297.11719.11328.0586.58593.35156.28907.17187.17578.0625.17578.05469.17578.0586.69922.35155.28906.17579.23438.05468.28906.17578.23437.1172.64063.40624.29297.11719.17187.0586.23438.05859.41015.05859.23047.0586.23438.11718.0586.17188-.41017.17578.46875.0586.0586.29296.11328.23438.17578.05468.23438.0586.17578.05859.40625.11719.64062.23437.11719.17188.0586.23437v.17578l-.0586.1172-.0586.40624.23438.23438.11719.05859.34766.11719.64062.23047.17578.11718.28906.1172.17578.17577.23438.46485.58203 1.10546.17578.17579.34766.17578.17578.11719.35156.11718 1.04688.52344.23437.0586.46485.11327.29297.0586.46484.17578.75781.58203.23438.23438.34765.46484.17578.17578.28907.23438.8164.69921.29297.17579.28906.28906.29297.17578.29297.28906.69531.64063.17578.17578.29297.23437.28907.23438.46875.28906.64062.58203.34766.23438.23437.29297.34766.34765.35156.46485.9336.99218.34765.40625.11719.17579.23437.05859.11328.11719.64454.17578.23047.11328.23437.0586.29297.17577.23047.1172.9336.69921.40624.40625.23438.17578.40625.17578.23437.11719.8164.34766.34766.23437.23438.11719.29297.28906.23047.11719.7578.35156.35157.17188.23047.05859.29297.11719.23437.0586.8711.17577h.8164l.46875.23047.17188.0586.875.69921.46484.1172.29297.05858.17578.0586.23047.0586.46875.05859.34766.05859.35156.0586.40625.05859h.29297l.17187.0586v.23046l.17578.17578h.29297l.34766.0586.35156.05859.69922.11719h.64063l.46484-.23438.29297-.17578.17187-.11719.41016-.17187.28906-.17578.9336-.46485.46875-.29297.52343-.29296.46485-.17188.46484-.17578 1.05078-.46485.28906-.11718.41016-.11719.28906-.11719.52735-.17578 1.51562-.69922.58203-.34765.28907-.0586.29297-.0586.34765-.11718.875-.23047.35156-.11719h.11329l.23437-.05859.875-.23437.23438-.0586h.8125l.35156-.0586.8164-.11718.17188-.0586.35156-.05468.29297-.0586.23047-.05859.8164-.17578.17579-.0586h.34765l.23438-.05859.46484-.11718.75781-.17188.23438-.0586h.34765l.41016-.11718.28906-.0586 1.28516-.05859h.28906l.41016-.0586.23047-.05858h.17578l.875-.1172h.40625l.41015-.11718h.34766l.35156-.11328.8711-.0586h1.75l1.04687.28907.41016.11719.28906.11718.35156.11719.28907.11719 1.05078.17187.28906.0586h.29297l.29297.05859.17187.0586.41016.05859.17187.0586.1172.05858h.11718l.11719.0586.35156.0586h.11328l.41016.0664 1.92187.39453 1.92578.39453 1.51953.44922 1.69532.71875 2.14453.80469 1.60547-.71875 1.42968-.80469 1.16016-1.07813 1.25-.44921 3.03516-.71875 1.875-.35938 2.14453-1.34765 2.23437-1.25391 2.5-1.25781 1.69531-.44922 1.78516-.17969 1.16016-.26953.625.53906 1.33984-.26953.71485-.98828.98437-1.34375.44531-.17969.80469-.35937 1.875-.53907 1.78516-.44921 1.25-.26954 1.16015-.08984 1.69922-.08984 1.96094-.26954 1.25-.08984h.53906l.625-.08984h.89063l2.14453-.17969 2.41015-.17969 2.58985-.08984 1.69531.17969 1.60938.08984 1.42968.35938 1.16016.71875 1.875.98828 1.16015 1.52734.26563.71484.6289.08985.35548.89844.53515.53906.53516 1.52734 1.07422.35938h.53515l-.80469.53515.08985 1.70703.71484 2.69532.89063.80468.89453.98829.71484 1.2578 1.78516.53907 1.51953-.17969.35547 1.34375 1.60937-.80469.98047-.53906.26953.26953.31641-.21484.21875-.14453.80078.44922.44922-.35938h.35547l.53515-.26953.53907-.71875.53515-.26953.625-.98828 1.16016.44922.83984.3711 1.39454.61718 1.6953-.17969h1.60548l1.78515.08985.17969-1.70704.53516-1.34375.80468.26954.4922.84765.40233.40625-.08984.53906v.35938l.71485.44922.71093-.26953h1.42969l.35938.98828.4453 1.25781.71485 1.34375 1.25.6289 1.69531.62891.71485-.17969.17969-.53906.98046-.08984.44922.35937.08594 1.25782-.26563.6289-.53515.17969v.53906l.71484.98438.26563.53906.98437.98828.80078 1.07813-.26562.35937-.08985.89844-.625 2.33203-.35546 2.0664-.08985 1.79298-.17969.71875-.08984.53906v1.4375l-.98047 1.88281-.35937 1.70703-.53516.89844-.80469 1.16797-.26562.53906 2.05469 1.2539.08593.35938-.35546.53906-.08985-.17968v.80859l.08985 1.4375-.44532.71484-1.07422.09375-.26562.71485.53515.89844.8047.71875 1.16015.80859 1.33984.26953.44531.35938-.35546.44921-1.78907-.08984-1.25-.44922-.71484-.71875-.625-.08984-.17578 3.58984-.1875 1.3086h89.35937V311.70313h-55.26953v49.08203l.76172.125 3.28906.54296 2.02344 2.83594v2.7539l2.35156.33204 2.34766.33203h4.05078l-1.3789 4.16016-2.02344.70703-2.02344.70312-.54297.34375-2.59375 1.6172-.1875.11718-2.02344-2.07813-.73046-2.74218-2.67188-2.07813-1.375-3.5-.0664-.08203-1.95704-2.67188 2.75-1.41796v-49.08204H294.42187v91.41407l.1172.03125.1328.01172.07422.07421.10547.04688.08985.0586.08593.05859.08985.0586.29687.29687.0586.08984.03125.11719.02734.11719.01563.13671-.03125.1172-.0586.08983-.0586.08594-.04296.10547-.04688.10156-.02734.1211v.14453l.17578.26953.14844.14844.07422.08594.07422.07421.04296.10547.0625.08985.0586.08593.04297.10547.0586.08985.04687.10156.04296.10547.0586.08594.11719.17968.07421.07422.0625.08594.0586.08984.04297.10547.0586.08985.05858.08593.0625.08985.0586.08984.04297.10156.11719.17969.07421.07422.0586.08594.07422.07421.08984.0586.10547.04687h.14844l.1328-.01562.13282.01562.10156-.04687.07422-.07422.04688-.10156-.01563-.13281v-.14844l-.04687-.10547-.02735-.11719-.04687-.10156-.02735-.1211-.04296-.10156-.0625-.08984-.04297-.10156-.04297-.10547-.03125-.11719-.01563-.13281-.01171-.13672.08593-.0586.0586-.08593.12109-.03125.04297.10547.01562.1328v.1172l.0586.10156.0586.08984.08983.0586.14844.14843.0586.08985.04296.10547-.01171.10156.08593.0586.10547.04687.08594.0586.08984.05858.07422.07422-.11719.02735-.10546.04687-.08594.0586-.07422.07421-.0586.08985-.0625.08594-.02734.12109-.04687.10156-.04297.10547-.03125.11719-.01172.13281-.01563.13281v.14844l.02735.11719.04687.10547.04297.10156.0586.08984.07421.07422.08985.0586.07422.07421.08984.0586.0586.08984.04296.10547.04688.10156.11719.03125.1328.01563h.14845l.11718-.03125.10547.04297.04297.10547.04688.10156.02734.1211L299.5 410l.02734.11719.03125.1211.02735.11718.10547.04297.10156.04687.13281-.01562.14844.14844.0625.08593.07422.07422.07031.07422.08984.0625.10547.04297.10156.04297.1172.03125.13671.01562.11719-.03125.07422-.07422.02734-.11718-.01172-.13282-.03125-.12109-.02734-.11719.04297-.10547h.11719l.08984.0625.11719.02735h.14843l.13282.01562h.14843l.13282.01563.1328-.01563h.14845l.1328-.01562.13282-.01172.13672.01172.11719-.02735.13281-.01562.1914-.0586-.05859.17579-.01562.1328-.02735.1211-.01562.13281-.0586.08594-.1328.01563-.10548.04687-.10546.04297-.1172.03125-.11718.02735-.26563.03125h-.14843l-.13281.01562-.07422.07422.05859.08594.14844.14843.11719.1797.07421.0703.08985.0625.08984.0586.08594.0586.08984.05858.10156.04297.10547.0625.10547.04297.08594.0586.10547.04687.10156.04297.17969.11719.0586.08984-.04298.10156-.04687.10547.01562.13281.22266.22266.0586.08985.04296.10156.03125.1211.04297.10155.01563.13282.03125.11718.01171.13672.03125.11719.14844.14844.10156.04297.10547.04296.1172.03125.1328.01563.13672.01563h.11719l.11719-.03125.08984-.0586.04297-.10547.04688-.10156.04296-.10547.03125-.11719.01172-.1328v-.14845l-.01172-.1328-.01562-.13282-.03125-.11719-.04297-.10547-.04688-.10547-.04296-.10156-.04297-.10547-.01563-.13281.01563-.13281.02734-.11719.03125-.11719.02735-.1211.04687-.10155.08984-.0586.08594-.0625.07422-.07422.08984-.05859.22266-.22266.0586-.08593.07421-.07422.11719-.17969.0586-.08594v-.14844l-.07423-.07421-.10156-.04688-.10547-.04297-.10156-.04297-.0586-.08984-.04687-.10547-.02734-.11719.08984-.05859.11719-.03125.10156-.04297.17969-.11719.14844-.14843.01172-.13282-.01172-.10546-.08985-.0586-.1328.01563h-.14845l-.1328.01562-.13282-.01562-.1211-.03125-.08593-.0586-.07422-.07422-.0586-.08984-.0625-.08594-.11718-.17969-.0586-.08593.03125-.1211.08594-.05859.1211-.03125.05859-.08594v-.1211l-.03125-.11718-.0586-.08984-.05859-.08594-.04687-.10547-.02735-.11719-.01562-.1328.0586-.08985.07421-.07422.08984-.0586.1172-.17968.07421-.07422.0586-.08594.14843-.14844.1211-.03125.1328-.01562.13282.01562.07422.07422.04297.10547.01562.13281-.03125.1172-.11719.03124-.1328.01172-.14844.14844-.04297.10547-.04688.10156-.02734.1211-.03125.11718v.14844l.03125.11719.04297.10546.05859.08985.07422.07031.07422.07422.11719.03125.12109.02734.11719-.02734.1328-.01563h.1172l.08984.0586.07422.07422.04687.10546.0586.08594.10156.04688.13281.01562.10547.04297.08594.0586-.01172.10546-.07422.07422-.17969.11719-.05859.08984-.08984.0586-.07032.07422-.07421.07421-.0625.08985-.02735.11719-.01562.1328.01562.13282-.01562.13281v.14844l.01562.13281.02735.1172.03125.12108.07421.07422.08985.0586.08594.0586.08984.05858.11719.03125v.08594l-.10157.04688-.08984.0586-.26563.03124-.11718.02735h-.14844l-.10547.04296-.10156.04688-.0586.08984-.0625.23438-.01171.13281-.03125.1211-.01563.1328v.29298l-.01172.1328.01172.13673.01563.1328.1328.01563.13282.01172.1211.03125.08593.0586.07422.07421.04688.10547.04296.10157.01563.1328v.44532l-.01563.13281v.44532l.03125.26562.02735.11719.01562.13281.03125.11719.08594.21094.03125.26562v.14844l-.03125.11719-.02734.11718-.03125.1211-.02735.11719-.03125.11718-.03125.1211-.01171.1328-.01563.13282.08984.0586.1172-.03125.10155.01562.04688.10547-.03125.26562v.44141l-.04297.10547-.04688.10547-.04296.10156-.04297.10547-.0586.08594-.03125.12109-.04296.11719-.03125.11719-.01563.1328.01563.13282.05859.08984.10547.04688.08594.0586.05859.08593-.01172.13672-.03125.11719-.04297.10156v.44531l-.01562.13281v.14844l-.03125.11719-.04297.10547-.02735.11719-.04687.10546-.04297.10157-.03125.12109-.02734.11719-.03125.13281-.03125.11719-.02735.11719-.04297.10546-.03125.1172-.03125.12108-.01171.13282-.01563.13281v.29688l.02734.11718v.14844l.04688.39844.02734.11719.0586.08984.12109.03125h.14844l.13281-.01563.0586.08985v.11719l-.0586.08984-.08984.0586-.10157.04296-.10546.04688-.08985.05859-.08594.0586-.13671.01562-.1172-.03125-.1328-.01563-.10157.04688-.0625.08594-.01172.13671-.01562.13282-.03125.11719-.02735.11718-.01562.13281-.03125.1211v.29687l.01563.13282.03125.11718v.14844l.01171.13281v.14844l-.02734.11719-.04688.10156-.02734.1211-.03125.11718-.0586.08985-.07421.07421-.10156.04297-.10547.04688-.11719.02734-.1211.03125-.10156-.04687.0586-.08594.10547-.04688.02734-.11718.03125-.11719.02734-.1211.03125-.11718v-.14844l.01563-.13281-.03125-.11719-.04297-.10547-.10547.01563-.07422.07422-.10156.04296-.08984.0625-.07422.07422-.04297.10157-.01563.1328-.03125.1172L304.25 426l-.03125.11719-.02734.11719-.03125.12109-.02735.11719-.03125.11718-.04297.10547-.08984.0586h-.08984l-.1172-.03125-.03124-.08594.01562-.13672-.03125-.11719v-.14844l-.01171-.1328v-.14844l-.0625-.23438-.02735-.1211-.04297-.10156-.04687-.10546-.0586-.08594-.05859-.08985-.04297-.10546-.0625-.08594-.14844-.14844-.0703-.07422-.10548-.04687-.10547-.04297-.10156-.04297-.29687-.29688-.08985-.07421-.08594-.0586-.10546-.04297-.08985-.0625-.08594-.0586-.10546-.04296-.08985-.0586-.08594-.0625-.07421-.0703-.10547-.04688-.08594-.0586-.10547-.04296-.08984-.0625-.10156-.04297-.10547-.04297-.08594-.0586-.10547-.04687-.10547-.04297-.10156-.04687-.08985-.0586-.10156-.04297-.10547-.04296-.08984-.0625-.11719-.02735-.13281-.01562-.13281.01562H299.75l-.13281.01563-.11719-.03125-.08984-.0586-.07422-.07422-.08985-.05859-.10156-.04688h-.14844l-.12109-.02734-.10156-.04297-.07422-.07422-.11719-.17968-.08984-.0586-.10156-.04297-.08985-.0625-.10547-.04296-.08984-.0586-.08594-.0586-.10547-.04687-.0586-.08594-.05858-.08984-.04297-.10547-.04688-.10156-.07422-.07422-.08594-.0586-.07421-.07421-.08985-.0586-.22265-.22265-.04297-.10547-.03125-.26563.10547-.04296h.14453l.10547.04296.07421.07422.08985.0586.08594.0586.10546.04687.08985.05859.14844.14844.0703.07422.14845.14843.0625.08594.07421.07422.08594.0586.07422.07421.08985.0625.08984.0586.08594.05859.26953.17578.10156.04688.10547.04296.10156.04297.04688-.07421.05859-.08594.07422-.07422.07031-.07422.10547.04297.07422.07422.0586.08984.04296.10156.04688.10547.04296.10547.1211.02735.11719-.02735.07421-.08984.04297-.10547.0586-.08985.07422-.07421.10546-.04297.1172-.02735.1328.01172.08985.0586.14844.14843.05859.08985.04297.10547.04687.10156.04297.10547.04297.10156.10547.04688.10547.04296.13281.01563.08594-.0586.0586-.08984.07421-.07422.10547-.04297.11719.02735.10547.04687.10156.04297.10547.04297.10156.04688.17969.11718v.11719l-.01563.13281.01563.13281.01562.13672.0586.08594.10156.04688.1211.02734.11718.03125h.14844l.11719-.03125.05859-.08984.17969-.1172.05859-.08983.07422-.07422.0586-.08594.11718-.17969.17969-.11719.11719.03125.08984.0586.04297.07422-.01563.1328v.1172l.08985.05859h.14843l.13282-.01563.1328-.01171.26563-.03125.10547-.04297.11719-.03125.1211-.02735.07421-.07421.07031-.07422.0625-.08985-.01562-.10547-.04688-.10156-.10156-.04297-.10547-.01562-.11718.02734-.26563.03125h-.14844l-.07421-.07422-.08985-.0586-.11719-.03124-.11718-.02735-.13282-.01562h-.14843l-.13282.01563h-.29687l-.10547-.04688-.14844-.14844-.04297-.10156-.05859-.08984.22266-.22266.08593-.0586.10547-.04296.11719-.03125.13281-.01563.13281.01563.13672.01562.10157.04297.1328-.01172.08985-.0625.10156-.04297.0625-.08984-.04687-.10156-.08984-.0586-.1172-.03125-.10155-.04296-.0586-.08985-.0625-.08984v-.11719l.01563-.13281.10547-.04688.07421-.07031v-.1211l-.08984-.05859-.03125-.11719.08985-.05859.07421-.07422.04297-.10547.0586-.08984.04687-.10156.01563-.13281v-.14844l-.04688-.10547-.04297-.10156-.08984-.0586-.13281-.01562-.10157-.04297-.13671-.01563-.1172-.03125h-.4453l-.13282-.01562-.13281-.01172-.13281-.01563-.11719-.03125h-.14844l-.13281-.01562-.13281-.01172-.26563-.03125-.1211-.04297-.08593-.0586-.07422-.07421v-.14844l.01172-.13281.10547-.04688.10156-.04296.13281-.01563h.15235l.13281-.01562h.29297l.1211.03125.10156.04296.08984.0586.23438.0625.12109-.04688.08984-.05859.10156-.04297.13282-.01562.10547.04296.10156.04688.13281.01172.1211-.02735h.14453l.12109-.03125.11719-.02734.10547-.04687.07421-.07422.08594-.0586.14844-.14843.0586-.08594.04687-.10547.02734-.11719.01563-.10547-.10156-.04296-.08985-.0586-.11719-.03125-.10546-.04297-.08985-.0625-.07422-.08594-.07422-.07421-.10156-.04297-.10547-.04688-.10156-.04297-.0586-.08984-.04687-.10156-.08594-.21094-.0625-.08594-.05859-.08984-.07422-.07422-.08594-.0586h-.26953l-.11719.03126-.08984.05859-.10156.04297-.13281.01562-.10547-.01562-.02735-.11719-.0625-.08984-.11718-.03125-.10157-.04297-.14843-.14844-.03125-.11719-.01563-.10546.07422-.07422.17969-.1172.11719-.02733.11718-.03125.13672.01562.10156.04297.10547.04297.10156.04687.10547.04297.1172.03125.1328.01563.1172.02734.1328.01563.10547-.01563.08985-.0586-.07422-.07421-.10547-.04297-.07422-.07422-.07422-.08984-.14844-.14844-.08593-.0586-.08985-.05859-.07422-.07422-.08984-.0586-.10156-.04687-.1211-.02734-.10156-.04688-.10547-.04296-.11719-.03125-.10156-.04297-.1211-.03125h-.14843l-.11719.03125-.10546.04297-.08594.0625-.17969.11718-.08594.0586-.08984.0586-.10547.04687-.08594.05859-.10547.04297-.10156.04297-.10547.04687-.07422.07422-.05859.08985-.0586.08593-.04687.10547-.0586.08594-.07421.07422-.13281-.01172-.1172-.03125h-.11718l-.07422.07422-.08984.0586-.07422.07421-.08984.0586-.08594.05859-.10547.04687-.10156.04297-.13672.01563-.10156-.04297-.14844-.14844-.10547-.04688h-.08594l-.10547.04688-.10156.04297-.1211.03125-.11718-.03125-.07422-.07422v-.11719l.03125-.1211.07422-.0703.0586-.08985.07421-.07422.11719-.03125.10547-.04296h.29297l.13281-.01563.13672-.01563.10156-.04296.08985-.0586.10156-.04687.08984-.0586.13281-.01171.08985.05859.13281.01172.08984-.0586.08594-.05859.10547-.04297.08984-.0586.08594-.0625.08985-.05859.14843-.14843.0586-.08594.05859-.08985.10547-.04296.13281-.01563.11719.02735.1211.03125.05859-.0586.05859-.08984.03125-.26563.02734-.11719.10547.01172.13281.01563.10157-.04297.08984-.0586.0586-.08984.07421-.07422.0586-.08984.04687-.10156.01172-.13281-.01172-.13282-.04687-.10547-.14844-.14843-.0586-.08985-.05859-.08594-.04297-.10546v-.44532l.01563-.1328v-.14845l.01172-.1328-.0586-.0586-.08984.0586-.10156-.04298-.17969-.11719-.08594-.05859-.0625-.08984-.0586-.08985-.07421-.07421-.08594-.0586-.1211.03125-.10155.01172-.10547.04688-.08594.05859-.10547.04297-.14844.14844-.08984.05859-.08594.0586-.08984.0625-.10547.04296-.13281.01563v-.1211l.10547-.04297.11718-.03125.07422-.0703.04297-.10548v-.14844l-.02734-.11718-.14844-.14844-.13281-.01563h-.14844l-.11719.03125-.10547.04297-.10156.04297-.08984.0625-.11719.02735-.07422-.07422.01172-.13281-.04297-.10157-.04297-.10547-.08984-.05859-.11719.02734-.1211.03125-.11718.03125-.10156.04297-.1211.03125-.10156.04297-.10547.04297-.08984.0586-.10156.01562v-.11719l.01562-.13281-.0586-.08985-.07421.04297-.14844.14844-.0586.08985-.07421.07421-.04688.10547-.04296.10156-.07422.07422-.0586.08985-.07422.07422-.05859.08593-.07422.07422-.08984.0625-.07422.07031-.07422.07422-.10156.01563-.13281.01562-.10547-.04296v-.1211l.14843-.14844.04297-.10156.0586-.08984.04687-.10156.04297-.10547.0586-.08985.03124-.11719.04297-.10156.03125-.1211.02735-.11718.04687-.10547.04297-.10156.04297-.10547.07422-.07031.08984-.0625.08985-.0586.10156-.04296h.29687l.26563-.03125.10547-.04297-.07422-.07422-.11719-.03125-.10547-.04297-.08984-.0586-.10156-.04687-.08985-.0586-.10156-.04296-.10547-.04297-.08984-.0625-.08594-.0586-.10547-.04296-.10156-.04297-.1211-.03125-.11718-.03125-.10157-.04297L297.5 410.25l-.10156-.04297-.08985-.0586-.04296-.10546-.01563-.13281.10156-.04297.13281-.01563.13672.01563.13282-.01563.10156-.04297.0586-.08984.01562-.10547-.08985-.0586-.07421-.07421-.10157-.04297-.08984-.0586-.14844-.14843-.04297-.10547-.01562-.13281v-.29297l-.0586-.08985-.08984-.05859-.07422-.07422-.04297-.10547-.03125-.11718-.0586-.08985-.07421-.07422-.11719-.02734-.07422-.07422-.08984-.0586-.08984-.0625-.08594-.05859-.07422-.07421-.0586-.08594-.04687-.10547-.08594-.0586-.14843-.14843-.19532-.0586-.1328.01563-.10157.04297-.07422.07422-.04688.10156-.04296.10547-.0586.08984-.0586.08594-.29687.29687-.08984.0586h-.08594l-.0625-.08594-.04297-.10547.03125-.11719.0586-.08984.02734-.11719-.01172-.13281-.08984-.0625-.10547.04688-.11719.02734-.11719.03125-.26953.17578-.10156.04688-.11719.02734-.10546.04687-.08985.0586-.10156.04297-.0586-.08594-.04687-.10547.01563-.13281.04687-.10547.07031-.07422.07422-.07031.0586-.08985v-.14843l-.04297-.10547h-.23829l-.10156.04687-.03125.11719-.02734.11719-.03125.1211-.07422.04296-.13281.01563-.07422-.04688-.04297-.10156-.04297-.10547-.04687-.10156-.04297-.10547-.1211.03125-.10156.04297-.13281.01562-.11719.03125-.10547.04297-.08984.0586-.10156.04687-.1211.02734-.13281.01563-.10156-.04297-.0586-.08985-.04687-.10546-.04297-.10157-.04297-.10546v-.1172l.0586-.08984.08593-.05859.17969-.11719.10156-.04687.10547-.04297.10547-.0586.10156-.04296.08985-.0625.10156-.04297.10547-.0586.10156-.04687.08984-.0586.10547-.04296.10156-.04297.08985-.0625.10156-.04297.13672-.01563.11719.03125.10156.04297.1211.03125.10156.04297.10546.04688.10157.04296.10547.04297.10156.04688.10547.04297.10156.04297.10547.04687.08594.0586.10546.04296.1172.03125.10546.04297.10156.04688.08985.0586.10547.04296.10156.04297.10547.04687.11719.02735.10156.04687.1211.02735h.14843l.08594-.0586.01562-.10156.0586-.08984-.02735-.1172-.07422-.07421-.11719-.17969-.07421-.07422-.08985-.07421-.17969-.1172-.08593-.05859-.10547-.04296-.10156-.04688-.26954-.17578-.05859-.08985-.07422-.07421-.0586-.08985-.04296-.10156-.03125-.11719-.01563-.13672v-.5625l-.01171-.1328-.01563-.13282-.03125-.11719-.01562-.13281-.01172-.13281-.03125-.1211-.22266-.22265-.0586-.08594-.01562-.10547.03125-.11719.13281-.01562v-91.41406H172.9922v1.45312l-.0586.23438-.35156 1.05078-.17187.52343-.1172.34766-.17577.41016-.11719.17187-.23438.29297-.23046.0586h-.35157l-.11718.05859-.23047.40625v.29297l.11719.17578.23046.23047.1172.23437.64062.75781.29297.46485.17578.23437.23047.35156.23437.34766.64063.8164.17578.46485.17187.41016.11719.69531.17578.46875.11719 1.39844.0586.46484v.875l.11718 1.04688v4.78125l-.0586.46484-.35156 1.28125-.17578.52344-.11328.41015-.35156.9297L172.93359 336l-.23437.58203-.11719.17578-.17187.34766-.17578.40625-.35157.8164-.0586.29297-.11327.29297-.11719.28906-.0586.17579-.11718.875-.0586.40625-.05859.11718-.0586.17579-.05859.17187-.23047.52734-.11718.17188v.23437l-.11719.23438-.0586.17187-.17577.58594v.28906l-.0586.17579v.29296l-.0586.11329-.05859.52734v.17187l-.05468.23438v2.6211l-.17578.8164-.1172.17578-.17577.23438-.1172.17187-.11327.23438-.58594.93359-.23047.28906-.29297.46485-.17578.23437-.28906.35156-.35156.69922-.11328.23047-.17579.41016-.17578.23046-.40625.52735-.8164.69922-.29297.17187-.28906.23438-.17579.11719-.17578.17578-.52344.40625-.52734.17578-.17187.17578-.23438.05469-.64062.17578h-.75782m12.21094 31.02344l-1.07422.44921.35938.89454 1.25-.71485.44531-.53906-.98047-.08985"/><path fill="#d3d3d3" fill-opacity="0" fill-rule="evenodd" d="M201.50781 416.59766h-.89453l.44922.6289.98047.35938.80469-.08985.4453-.98828-.17577.08985-.71485-.35547-.89453.35547m154.6211 59.0703l-.0586-.52343v-.29297l.11328-.29297.0586-.23046.46875-.46875h.11328l.11719-.11329.11718-.05859h.17579l.23437-.0586h.34766l.23437.0586.11719.0586.23047.17187.0586.17578.11718.58203v.29297l-.11719.17578-.17187.28906-.17579.17579-.52734.52343-.23047.23438-.11719.0586h-.17578l-.11718-.0586-.40625-.29297-.17579-.11719-.11718-.0586-.0586-.11327-.05468-.1172m6.64062-10.95702l-.0586-.17188v-1.10937l.0586-.17188.17578-.0586.17188-.05858h.17578l.23437-.0586.1172.0586.05858.69921-.05859.17188-.11719.17578-.11718.0586-.23438.52343-.11328.0586h-.23438l-.05859-.1172m9.61328-14.39062l-.11719-.17578v-.69922l.29297-.875.1172-.17187.17577-.35156.11328-.23047.1172-.29297.35155-.75781.1172-.23047.17187-.23438h.17578l.11719-.0586h.64062l.11719.0586.23437.23438.17188.11328.35156.29297.11719.11718.11328.17579v.11328l.11719.05859.11718.11719v.69922l-.05859.17578v.23047l-.0586.17578-.34765 1.05078-.11719.23047-.11719.23437-.11718.0586-.23047.23437-.64063.28906h-.875l-.41015-.11718-.64063-.46485"/><path fill="none" stroke="#bebebe" stroke-linecap="round" stroke-linejoin="round" stroke-miterlimit="10" stroke-width=".5" d="M467.95703 311.69531H144.02734v168.625h323.9297v-168.625"/><g clip-path="url(#a)"><path fill="#fff" fill-opacity="0" fill-rule="evenodd" d="M144 475.89063v4.4375h.0039H144V311.67188h.0039H144v164.21875"/></g><g clip-path="url(#b)"><path fill="#fff" fill-opacity="0" fill-rule="evenodd" d="M144.0039 480.32813V311.67188h44.37891V434.5625l-3.78125 1.38281-.65625.80078-1.29297 3.63672 1.29297 3.01563 4.4375-1.30078 1.83594-1.71485.92188-4.4375-2.75782-1.38281V311.67187h22.1914v2.92188l-2.22655 1.51563 2.22656 1.91796 1.8086-1.91796-1.8086-1.51563v-2.92188h8.8789v101.17188l-.83593.91016-2.6836 4.4375 3.51953 3.10546.62891 1.33204 1.53516 4.4414-2.16406 2.26953-2.2461 2.16797 2.1289 4.4375.1172.21094v6.5039l-4.4375 1.62891-.48829.53125.48828 2.63672.44532 1.80469 3.99219 2.07031 1.99609-2.07031 1.23437-4.4414-3.23047-2.16016v-6.50391l4.4375 1.32031v18.0664l-3.62109 2.59376-.8164 1.6875-2.42579-1.6875-2.01172-.99219-4.4414.96875-.00781.02344-1.13282 4.4375 1.14063.9961 4.4414.05859 4.4375.15234 4.4375.58203 1.89844-1.78906.6211-4.4375-2.51953-2.59375v-18.0664l1.59375-1.53126 2.84375-.58203 4.4375-1.0586 3.04687-2.79687-3.04688-3.96094-.08984-.47656-4.34766-4.23437-.35546-.20703-.82813-4.4375-3.2539-4.08204-2.28125-.35546-2.15625-.91016V311.67187h22.1914v108.16407l-2.85156 2.79297 2.85156 4.41406.04297.02734 4.39453 2.21875 4.4375-1.86328.44531-.35547-.4453-.34765-4.4375-3.77735-.19142-.3164-4.24609-2.79297V311.67188h84.32813v95.94921l-1.94141 1.69532-2.4961 1.08593-4.4375 1.28907-2.15234 2.0625-2.28906.83203-4.4375 3.21094-.5586.39453-3.8789.29687-3.51953-.29687-.91797-.66797-4.4414-1.625-2.63673 2.29297-1.80078 1.01953-2.6328-1.01953-1.8047-1.3672-1.64453 1.3672-2.79297 1.71875-4.4375.65234-1.51171-2.3711-1.89454-4.4375-1.03515-1.6289-4.4375-2.51563-4.4375 3.5625-.5586.58204-3.48046 4.4375.24609 4.4375-.23828 4.4414-.40625 1.3789-2.88281 3.0586-1.5586 4.1836-.23828.2539.23828.83203.20313 3.60547 1.6328 4.4375-1.83593 1.76563-2.10156-1.76563-2.33594-1.20703-2.9961 1.20703-1.4414 3.39844-.23437 1.04297.23437.4961 4.03516-.4961.40234-.0664.05078.0664 4.38672 1.58203 4.03125-1.58203.41016-.4375 3.26562-4.0039 1.17188-.17188 4.4375-1.80078 3.76172-2.46485.67578-.15625 4.4414-.125 1.28125.28125 3.15625 1.66016 4.4375-.28906 4.4375 1.30078 2.82422-2.67188-2.82422-3.07422-1.36328-1.36328 1.08985-4.4375.27343-.58984 4.4375.11328 4.44141-.17578v2.59375l-2.32813 2.4961 2.32813 2.29296v19.625l-.375.27344.07813 4.4375.29687.07031.08594-.07031.67187-4.4375-.75781-.27344v-19.625l2.28906-2.29297-2.28906-2.4961v-2.59374l4.4375.20312 4.4375-.3125 4.4375-.18359 3.3711-3.49219-.52735-4.4414.72656-4.4375.8711-2.35157 4.4375 1.07422 4.4375 1.15235 4.4375-.44922 2.83593.57422 1.60157 1.08984 4.4414 2.40625 2.3164.9414 2.1211.8711.9414-.8711 2.11329-4.4375-.71484-4.4375-2.33985-2.65234-2.28515 2.65235-2.15235 1.71875-4.4414 1.8203-1.10157-3.53905-3.33593-4.22266-.76172-.21484-3.67578-1.69532v-95.94921h22.1914v118.49218l-1.41797 1.34375 1.41797 1.94531 1.33985-1.9453-1.33985-1.34376V311.67187h22.1914v94.81641l-4.27343 2.82813-.16406.03515-4.4375 2.46875-1.9336 1.9336-1.89843 4.4375.05078 4.4375.52344 4.4414 3.2578 3.29688.22657 1.14062.1914 4.4375-.41796 4.21485-4.4375-.84766-4.4414.98828-4.4375-2.91797-3.06641 3-1.3711 1.01953-2.03515-1.01953-2.40235-1.74219-4.4414.77344-1.17188.96875-3.26562 2.80078-4.4375 1.3047-.34766.33202.34766.875 3.74218 3.5664-3.74218 1.85157-3.12891 2.58594-1.3086 1.10547-.76952-1.10547-3.66797-2.23438-4.44141-.53906-2.48047 2.77344-.63672 4.4375 3.11719 2.20312 4.4414.16797 4.4375-.74219 4.4375-.30468 4.4375 1.32812 4.4375-1.44531 1.1797-1.20703 3.26171-3.5 4.4375-.42188.82422-.51562 3.61328-1.10938 4.4375-.66796 4.4414.5664.14454 1.21094-.07031 4.4375-.07422.10937-4.4414.80079-1.21876 3.52734 1.21875 1.20312 4.4414 1.42188 4.4375.70703.44923 1.10938.8125 4.4375 1.05469 4.4375 2.12109 2.14843 3.82031-2.14844.61719-1.54296 1.44531 1.54296 2.99219 1.03516 1.42969-1.03515 3.01171-1.3711 4.4375.91406 4.4375-.17968 3.6172-3.80079-2.48048-4.4375.44922-4.4414 2.85156-1.1875.53907 1.1875 1.5039 4.4414 2.39454 2.29688 4.4414.80469 3.11328-3.10156 1.32422-.27344 4.4375-.40235 3.8125-3.76562.625-2.9414 1.60156-1.4961-1.11328-4.4375 3.95313-2.36328 1.80078-2.07422 1.84375-4.4414-.94531-4.4375-2.69922-3.80079-.67969-.63672-3.76172-2.625-4.4375.85938-2.08203 1.76562-2.35547.48047-4.4375 1.4961-3.17187 2.46093-1.26954.58985-4.4375-.4961-.1289-.09375-4.3086-3.46875-3.16406-.96875 3.16406-.59765 4.4375-2.22266 4.4375-1.3164.3047-.30079-.3047-.53125-.89062-3.90625-3.54688-3.22265-4.4375-1.12891-4.4375.94531-4.4375 2.54688-1 .85937-3.4414.77344-.3125-.77344-4.125-4.33984-.13672-.10156-.53125-4.4375.66797-.61329 3.85156-3.82421.51172-4.4375-4.36328-2.82813v-94.8164h53.26172v147.30859l-.78125 3.59375.78125.59765.89062-.59765-.89062-3.59375v-147.3086h44.3789v168.65625H144.00391"/></g><path fill="#50fcfc" fill-rule="evenodd" d="M183.94531 443.39844l-1.29297-3.01563 1.29297-3.63672.65625-.80078 3.78125-1.38281 2.75781 1.38281-.92187 4.4375-1.83594 1.71485-4.4375 1.30078m26.6289-125.3711l-2.22655-1.91796 2.22656-1.51563 1.8086 1.51563-1.8086 1.91796m0 145.54297l-1.14063-.9961 1.13282-4.4375.0078-.02343 4.44142-.96875 2.01171.99219 2.42578 1.6875.81641-1.6875 3.6211-2.59375 2.51953 2.59375-.6211 4.4375-1.89844 1.78906-4.4375-.58203-4.4375-.15234-4.4414-.0586m4.4414-16.11328l-.48828-2.63672.48828-.53125 4.4375-1.6289 3.23047 2.16015-1.23437 4.4414-1.9961 2.07032-3.99218-2.07031-.44531-1.80469m4.4375-26.16015l-3.51954-3.10547 2.6836-4.4375.83594-.91016 2.15625.91016 2.28125.35546v2.23829l-4.4375.36328-1.05079 1.48047 1.05078.92968 1.65625 3.50782 2.78125 3.99609.22657.44531-.22656.54688-3.79297 3.89062 3.79297 3.40625 4.4375-.48437 4.4375-2.58985.36718-.33203-.36719-.47265-.74218-3.96485-3.69531-3.59765-1.45704-.84375-1.51172-4.4375-1.46875-1.84375v-2.23829l3.25391 4.08204.82813 4.4375.35547.20703 4.34765 4.23437.08984.47656 3.04688 3.96094-3.04688 2.79688-4.4375 1.0586-2.84375.58202-1.59375 1.53125-4.4375-1.32031-.11718-.21094-2.1289-4.4375 2.24608-2.16797 2.16407-2.26953-1.53516-4.4414-.6289-1.33204"/><path fill="#00e8fc" fill-rule="evenodd" d="M219.45313 419.1211l-1.05079-.9297 1.05078-1.48046 4.4375-.36328v3.83203l-1.0703 2.44922 1.0703 1.53515 1.46875 2.90625-1.46875 3.57422-.84375.86328.84375.75781 4.4375.61329 2.17579-1.3711.42968-4.4375-2.60547-2.53906-3.29296-1.90234-1.14453-2.44922v-3.83203l1.46875 1.84375 1.51171 4.4375 1.45703.84375 3.69532 3.59765.74219 3.96485.36718.47265-.36719.33203-4.4375 2.58985-4.4375.48437-3.79296-3.40625 3.79297-3.89062.22656-.54688-.22656-.44531-2.78125-3.9961-1.65625-3.5078"/><path fill="#00d4fc" fill-rule="evenodd" d="M223.89063 424.16406l-1.07032-1.53515 1.07031-2.44922 1.14454 2.44922 3.29297 1.90234v1.0625l-1.72657 1.47656 1.72656 4.08985 1.51563-4.08985-1.51563-1.47656v-1.0625l2.60547 2.53906-.42968 4.4375-2.17578 1.3711-4.4375-.61329-.84375-.7578.84375-.86329 1.46875-3.57422-1.46875-2.90625"/><path fill="#00c4fc" fill-rule="evenodd" d="M228.32813 431.16016l-1.72657-4.08985 1.72656-1.47656v1.0586l-.48437.41796.48438 1.14844.42578-1.14844-.42578-.41797v-1.05859l1.51562 1.47656-1.51563 4.08985"/><path fill="#00b8fc" fill-rule="evenodd" d="M228.32813 428.21875l-.48438-1.14844.48438-.41797.42578.41797-.42578 1.14844"/><path fill="#50fcfc" fill-rule="evenodd" d="M241.64453 427.04297l-2.85156-4.41406 2.85156-2.79297v2.47656l-.32422.3164.32422.5.48047-.5-.48047-.3164v-2.47656l4.2461 2.79297.1914.3164 4.4375 3.77735.44531.34765-.4453.35547-4.4375 1.86328-4.39454-2.21875-.04297-.02734"/><path fill="#00e8fc" fill-rule="evenodd" d="M241.64453 423.1289l-.32422-.5.32422-.3164.48047.3164-.48047.5"/><path fill="#50fcfc" fill-rule="evenodd" d="M246.08203 449.75781l-.23437-.4961.23437-1.04296 1.4414-3.39844 2.9961-1.20703 2.33594 1.20703 2.10156 1.76563 1.83594-1.76563-1.63281-4.4375-.20313-3.60547-.23828-.83203.23828-.2539 1.5586-4.1836 2.8828-3.0586.40626-1.3789.23828-4.4414-.2461-4.4375 3.48047-4.4375.5586-.58204 4.4375-3.5625v2.90235l-1.42578 1.24219-3.01172 3.87109-.47656.5664-1.41407 4.4375-1.35547 4.44141-1.1914 4.05078-.36719.38672.36719.47266v3.25781l-3.78516.70703 3.78516.26172.26172-.26172-.26172-.70703v-3.25781l1.46484 3.96484-1.46484 1.47266-3.01172 2.96484 3.01172 3.47266 4.4375-.73438 3.21875-2.73828 1.21875-.67187 4.4375-2.16016 4.4414.35156 3.66407-1.95703.77343-.76172 4.16797.76172.26953.07031 4.38672 4.3672.05078.02343.02735-.02344-.02735-.02734-4.40234-4.41016 1.63281-4.4375 1.44531-4.4375 1.32422-1.6914.58594 1.6914 3.85156 2.5625 4.44141.05078 4.4375.1172 4.4375-.25782 4.4375-.65235 1.75781-1.8203-1.52734-4.44141 2-4.4375-2.23047-2.25391-2.84375 2.2539 1.59375 4.4375-3.1875.4375-.17969-.4375-4.25781-3.48827-4.4375-.16016-4.4414-.2539-4.4375 2.83593-4.4375-1.6289-3.73829 2.6953-.69922.33204-4.4375.95703-4.4414 2.53906-1.52344-3.82812.92969-4.4375-2.30469-4.4375-1.53906-1.2422v-2.90233l4.4375 2.51562 1.03515 1.6289 1.89454 4.4375 1.51171 2.3711 4.4375-.65234 2.79297-1.71875 1.64453-1.3672 1.8047 1.3672 2.6328 1.01953 1.80079-1.01953 2.63671-2.29297 4.44141 1.625.91797.66797 3.51953.29687 3.8789-.29687.5586-.39454 4.4375-3.21093 2.28906-.83203 2.15235-2.0625 4.4375-1.28907 2.49609-1.08593 1.9414-1.69532v2.16407l-4.4375 2.66796-2.66796 1.30079 2.66797 1.22656 4.4375 2.36328 4.4375-2.0586 1.32421-1.53124-1.32421-1.67188-4.4375-2.29687v-2.16407l3.67578 1.69532.76172.21484 3.33593 4.22266 1.10157 3.53906 4.4414-1.82031 2.15235-1.71875 2.28515-2.65235v6.41797l-1 .67188 1 .47656.27735-.47656-.27735-.67188v-6.41797l2.33985 2.65235.71484 4.4375-2.11328 4.4375-.9414.87109-2.1211-.8711-2.3164-.9414-4.44141-2.40625-1.60157-1.08984-2.83593-.57422-4.4375.44922-4.4375-1.15235-4.4375-1.07422-.8711 2.35157-.72656 4.4375.52734 4.4414-3.37109 3.49219-4.4375.1836-4.4375.3125-4.4375-.20313-4.4414.17578-4.4375-.11328-.27344.58984-1.08985 4.4375 1.36328 1.36328 2.82422 3.07422-2.82422 2.67188-4.4375-1.30078-4.4375.28906-3.15625-1.66016-1.28125-.28125-4.4414.125-.67578.15625-3.76172 2.46485-4.4375 1.80078-1.17188.17187-3.26562 4.0039-.41016.4375-4.03125 1.58204-4.38672-1.58203-.05078-.0664-.40234.0664-4.03516.4961"/><path fill="#fff" fill-opacity="0" fill-rule="evenodd" d="M259.39844 435.23828l-3.78516.70703 3.78516.26172.26172-.26172-.26172-.70703"/><path fill="#00e8fc" fill-rule="evenodd" d="M259.39844 443.85547l-3.01172-3.47266 3.01172-2.96484 1.46484-1.47266-1.46484-3.96484-.36719-.47266.36719-.38672 1.1914-4.05078 1.35547-4.4414 1.41406-4.4375.47657-.56641v5.95703l-1.9375 3.48828-.23828 4.4375 1.21093 4.4375-3.47265 3.49219-.96094.94531.96094 1.10547 4.4375-.91406.22265-.1914 4.21485-2.32813 2.95703-2.10938 1.48047-3.07031 4.4414.16797 1.5547-1.53516 2.8828-2.10937 2.01563-2.32813-2.01563-1.3789-3.72265 1.3789-.71485 1.2539-4.4414 2.16798-1.39844-3.42188-3.03906-3.48437-4.4375-.0039V417.625l3.01172-3.8711 1.42578-1.24218 1.53906 1.24219 2.30469 4.4375-.92969 4.4375 1.52344 3.82812 4.4414-2.53906 4.4375-.95703.69922-.33203 3.73828-2.69532 4.4375 1.62891 4.4375-2.83594 4.44141.2539 4.4375.16017v1.08984l-4.4375.24219-4.4414.69921-1.9961 1.45704 1.64063 4.4414.35546.23438 4.44141.42578 4.4375-.01953 4.4375-.17969 1.76953-.46094-1.76953-.75-1.50781-3.6914-2.92969-2.39844v-1.08985l4.25781 3.48829.17969.4375 3.1875-.4375-1.59375-4.4375 2.84375-2.25391v2.25l-.0039.0039.0039.00782.0039-.00781-.0039-.00391v-2.25l2.23047 2.2539-2 4.4375 1.52734 4.44141-1.75781 1.82031-4.4375.65235-4.4375.25781-4.4375-.11719-4.4414-.05078-3.85157-2.5625-.58594-1.6914-1.32421 1.6914-1.44532 4.4375-1.63281 4.4375 4.40234 4.41016.02735.02734-.02735.02344-.05078-.02344-4.38672-4.36719-.26953-.0703-4.16797-.76173-.77343.76172-3.66407 1.95703-4.4414-.35156-4.4375 2.16016-1.21875.67187-3.21875 2.73828-4.4375.73438"/><path fill="#00d4fc" fill-rule="evenodd" d="M259.39844 441.48828l-.96094-1.10547.96094-.94531 3.47265-3.49219-1.21093-4.4375.23828-4.4375 1.9375-3.48828 4.4375.0039V425.25l-4.4375.6836-.6289 1.13671.6289 3.53516.8125.90234 2.08594 4.4375 1.53906.45703.64062-.45703 1.28516-4.4375-.33985-4.4375-1.58593-1.82031v-1.66406l3.03906 3.48437 1.39844 3.42188 4.4414-2.16797.71485-1.2539 3.72265-1.37891 2.01563 1.3789-2.01563 2.32813-2.8828 2.10937-1.5547 1.53516-4.4414-.16797-1.48047 3.07031-2.95703 2.10938-4.21485 2.32812-.22265.1914-4.4375.91407"/><path fill="#00c4fc" fill-rule="evenodd" d="M263.83594 430.60547l-.6289-3.53516.6289-1.13672 4.4375-.68359v1.66406l-.67578.15625.67578.75781.13672-.7578-.13672-.15626V425.25l1.58594 1.82031.33984 4.4375-1.28516 4.4375-.64062.45703-1.53906-.45703-2.08594-4.4375-.8125-.90234"/><path fill="#00b8fc" fill-rule="evenodd" d="M268.27344 427.82813l-.67578-.75782.67578-.15625.13672.15625-.13672.75781"/><path fill="#00d4fc" fill-rule="evenodd" d="M294.54688 427.07031l-1.64063-4.4414 1.9961-1.45704 4.4414-.69921 4.4375-.2422v1.08985l-4.4375.64063-2.33594.66797 2.33594 1.79296 4.4375 1.02344 1.60156-2.8164-1.60156-1.3086v-1.08984l2.92969 2.39844 1.50781 3.6914 1.76953.75-1.76953.46094-4.4375.17969-4.4375.01953-4.4414-.42578-.35548-.23438"/><path fill="#00c4fc" fill-rule="evenodd" d="M299.34375 424.42188l-2.33594-1.79297 2.33594-.66797 4.4375-.64063v1.08594l-1.19531.22266 1.19531.47656.26953-.47656-.26953-.22266v-1.08594l1.60156 1.3086-1.60156 2.8164-4.4375-1.02344"/><path fill="#50fcfc" fill-rule="evenodd" d="M299.34375 438.23828l-2.32813-2.29297 2.32813-2.4961 2.28906 2.4961-2.28906 2.29297m-.29688 24.33594l-.07812-4.4375.375-.27344.75781.27344-.67187 4.4375-.08594.07031-.29688-.07031"/><path fill="#00b8fc" fill-rule="evenodd" d="M303.78125 423.10547l-1.19531-.47656 1.19531-.22266.26953.22266-.26953.47656"/><path fill="#50fcfc" fill-rule="evenodd" d="M312.65625 460.33984l-3.11719-2.20312.63672-4.4375 2.48047-2.77344 4.4414.53906 3.66798 2.23438.76953 1.10547 1.30859-1.10547 3.1289-2.58594 3.7422-1.85156-3.7422-3.5664-.34765-.875.34766-.33204 4.4375-1.30469 3.26562-2.80078 1.17188-.96875 4.4414-.77344 2.40235 1.7422 2.03515 1.01952 1.3711-1.01953 3.0664-3 4.4375 2.91797 4.4414-.98828 4.4375.84766.41798-4.21485-.1914-4.4375-.22657-1.14062-3.25781-3.29688-.52344-4.4414-.05078-4.4375 1.89844-4.4375 1.93359-1.9336 4.4375-2.46875.16406-.03515 4.27344-2.82813v2.42188l-.61328.40625-3.82422.87109-3.98438 3.5664-.45312.59376-2.91016 3.84375.11719 4.4375 1.40625 4.4414 1.38672 1.40235.60547 3.03515.47265 4.4375 1.23047 4.4375-2.3086 2.67188-4.4375-.34766-4.4414 1.14063-4.4375-2.64844-4.4375 3.16797-1.9961.45312-2.4414 2.1289-1.09765 2.3125 1.09765.875 2.96094-.875 1.47656-1.76952 1.95703 1.76953 2.48047.3789 1.45313-.3789 2.98437-2.16797 4.4414-.34766 4.4375-.4375v2.32032l-3.60546.6328 3.60547 1.26173 1.13281-1.26172-1.13281-.63281v-2.32032l4.4375 2.45704.1211.49609-.1211 1.20312-2.83985 3.23438-1.59765 2.51562-.84766 1.92188-2.03515 4.4375 2.8828.53125 1.59376 3.91015 2.40234 4.4375.4414 1.28516.73048-1.28515 3.70703-.66016 4.4375-1.15235 4.4414 1.71875.04688.09375 4.39063 3.16797 4.4375-.68359 2.36328-2.48438-2.36329-3.1289-.88671-1.3086-3.55079-4.38671-.01562-.0547.01563-.0664 4.4375-1.33203 4.4375-1.625 1.36328 3.02344 3.07421 4.125 1.51172.3164 2.9297 1.10157 1.10546-1.10156 3.33203-.6875 4.4375-1.02735 2.75781-2.72656-.85156-4.4375-1.90625-2.64453-3.69922-1.79297-.73828-.71875-.67578-3.71875.67578-.28516 4.4375-.41406v.58203l-1.0625.11719 1.0625 1.04687.80469-1.04687-.80469-.11719v-.58203l4.4375.58594 4.4414-1.66406 1.67579-2.66407-1.58203-4.4375-.09375-.13281-4.4414-4.26172-4.4375.49219-4.4375 1.0586-4.06642 2.84374-.37109.35547-4.4414 2.15625-4.4375-.5-2.78516-2.01172-1.65235-1.33203-4.4375-2.07031-.92187-1.03516.92188-2.25 4.4375.32422 3.33203-2.51172 1.10546-2.66015 1.05079-1.77735-1.05079-.95703-4.4375-2.07031-4.4375 2.48828-.80468.53906-3.63281 1.66016-4.44141.5586-.90235-2.21876-3.53515-3.71875-1.0039-.72265-.66798-4.4375 1.67188-1.53516 2.92187-2.90234-2.29296-4.4375-.62891-.40625v-2.42188l4.36328 2.82813-.51172 4.4375-3.85156 3.82421-.66797.61329.53125 4.4375.13672.10156 4.125 4.33984.3125.77344 3.4414-.77344 1-.85937 4.4375-2.54688 4.4375-.94531 4.4375 1.1289 3.54688 3.22266.89063 3.90625.30468.53125-.30469.30078-4.4375 1.31641-4.4375 2.22266-3.16406.59765 3.16406.96875 4.3086 3.46875.1289.09375 4.4375.4961 1.26954-.58985 3.17187-2.46094 4.4375-1.49609 2.35547-.48047 2.08203-1.76562 4.4375-.85938 3.76172 2.625.67969.63672 2.69922 3.80078.9453 4.4375-1.84374 4.4414-1.80078 2.07423-3.95313 2.36328 1.11328 4.4375-1.60156 1.4961-.625 2.9414-3.8125 3.76562-4.4375.40235-1.32422.27344-3.11328 3.10156-4.4414-.80469-2.39454-2.29688-1.5039-4.4414-.53906-1.1875-2.85157 1.1875-.44922 4.4414 2.48047 4.4375-3.61719 3.80079-4.4375.17968-4.4375-.91406-3.01171 1.3711-1.4297 1.03515-2.99218-1.03515-1.44531-1.54297-.61719 1.54296-3.82031 2.14844-2.1211-2.14844-1.05468-4.4375-.8125-4.4375-.44922-1.10937-4.4375-.70703-4.4414-1.42188-1.21876-1.20312 1.21875-3.52735 4.4414-.80078.07423-.10937.07031-4.4375-.14453-1.21094-4.4414-.5664-4.4375.66796-3.61329 1.10938-.82422.51562-4.4375.42188-3.26172 3.5-1.17968 1.20703-4.4375 1.44531-4.4375-1.32812-4.4375.30469-4.4375.74218-4.44141-.16797"/><path fill="#00d4fc" fill-rule="evenodd" d="M312.65625 418.19922l-.0039-.00781.0039-.00391.0039.0039-.0039.00782"/><path fill="#00e8fc" fill-rule="evenodd" d="M321.53516 414.98047l-2.66797-1.22656 2.66797-1.30079 4.4375-2.66796v1.32421l-3.38672 2.64454 3.38672 2.39062 3.40234-2.39062-3.40234-2.64454v-1.32421l4.4375 2.29687 1.32421 1.67188-1.32421 1.53125-4.4375 2.05859-4.4375-2.36328"/><path fill="#00d4fc" fill-rule="evenodd" d="M325.97266 416.14453l-3.38672-2.39062 3.38672-2.64454v1.32813l-1.6875 1.3164 1.6875 1.19141 1.6953-1.1914-1.6953-1.31641v-1.32813l3.40234 2.64454-3.40234 2.39062"/><path fill="#00c4fc" fill-rule="evenodd" d="M325.97266 414.94531l-1.6875-1.1914 1.6875-1.31641 1.6953 1.3164-1.6953 1.19141"/><path fill="#00e8fc" fill-rule="evenodd" d="M339.28906 450.13672l-1.09765-.875 1.09765-2.3125 2.4414-2.1289 1.9961-.45313 4.4375-3.16797 4.4375 2.64844 4.4414-1.14063 4.4375.34766 2.3086-2.67188-1.23047-4.4375-.47265-4.4375-.60547-3.03515-1.38672-1.40235-1.40625-4.4414-.11719-4.4375 2.91016-3.84375.45312-.59375 3.98438-3.56641 3.82422-.8711.61328-.40624v2.64062l-4.4375.02344-2.4336 2.17969-2.0039 2.6289-1.3711 1.8086.22266 4.4375 1.14844 2.47265.44531 1.96875.78906 4.4375.94532 4.4375 2.2578 3.61719.6875.82031-.6875 4.41016-.02343.02734.02344.01563 1.08594 4.42578 1.43359 4.4375-2.51953 2.875-1.3164 1.5625-.64844 4.4375 1.01953 4.4414.9453 1.57032 4.4375.85937 3.625-2.42969.8125-.74218 2.82032.74219 1.6211.8203 1.91796 3.6172 2.51954 1.8164 4.4375-1.52344.27734-.29296-.27735-.3711-2.76171-4.0664-1.67579-2.07032-.6953-2.3711.6953-3.03124 3.27735-1.40625 1.16015-.4375 4.4375-.39844 2.23047.83594.50782 4.4375 1.69921 2.28125 4.44141 1.46094 4.4375-.6797 4.4375-2.0703 1.0039-.9922-1.0039-2.01562-4.4375-1.8125-2.8164-.60937-1.6211-1.1836-3.80078-3.2539 3.80078-3.6836v3.29297l-.40234.39063.40234.34375 3.26563-.34375-3.26563-.39063v-3.29296l.69922-.75391 3.73828-1.5625 4.4375-.10938 4.4375-.34375 3.21094-2.42578-.60938-4.4375-2.60156-2.55078-4.4375.08985-4.4375 1.47656-1.41015.98437-3.02735 2.85938-2.72265 1.57812-1.71875 1.58594-4.4375-1.22266-1.12891-.36328-3.3086-2.35156-2.24218-2.08594-2.19531-1.29297-2.80079-3.14453-1.63671-3.77734-4.44141-.53906-.09766-.1211-1.78906-4.4375-2.55078-2.6836-2.44531-1.7578-.90235-4.4375 3.34766-3.07422 1.375-1.36328-1.375-2.20313v-2.64062l.6289.40625 2.29297 4.4375-2.92187 2.90234-1.67188 1.53516.66797 4.4375 1.0039.72265 3.53517 3.71875.90234 2.21875 4.4414-.5586 3.63282-1.66015.80469-.53906 4.4375-2.48828v2.21094l-1.30079.8164.3711 4.4375.92969.30469.40625-.30469 1.0625-4.4375-1.46875-.8164v-2.21094l4.4375 2.07031 1.05078.95703-1.05079 1.77735-1.10546 2.66015-3.33204 2.51172-4.4375-.32422-.92187 2.25.92188 1.03516 4.4375 2.07031 1.65234 1.33203 2.78515 2.01172 4.4375.5 4.44141-2.15625.3711-.35547 4.0664-2.84375 4.4375-1.0586 4.4375-.49218 4.4414 4.26172.09376.13281 1.58203 4.4375-1.67578 2.66406-4.4414 1.66407-4.4375-.58594-4.4375.41406-.67579.28516.67578 3.71875.73828.71875 3.69922 1.79297 1.90625 2.64453.85156 4.4375-2.7578 2.72656-4.4375 1.02735-3.33204.6875-1.10547 1.10156-2.92969-1.10156-1.51171-.31641-3.07422-4.125-1.36329-3.02344-4.4375 1.625-4.4375 1.33203-.01562.0664.01563.0547 3.55078 4.38671.88671 1.3086 2.36329 3.1289-2.36329 2.48438-4.4375.6836-4.39062-3.16798-.04688-.09375-4.4414-1.71875-4.4375 1.15235-3.70703.66015-.73047 1.28516-.4414-1.28515-2.40235-4.4375-1.59375-3.91016-2.88281-.53125 2.03515-4.4375.84766-1.92188 1.59765-2.51562 2.83985-3.23438.1211-1.20312-.1211-.4961-4.4375-2.45703-4.4375.4375-4.4414.34766-2.98438 2.16797-1.45313.3789-2.48047-.3789-1.95703-1.76953-1.47656 1.76953-2.96094.875m4.4375-31.46875l-1-.47656 1-.67188.27735.67188-.27735.47656"/><path fill="#50fcfc" fill-rule="evenodd" d="M348.16406 433.45313l-1.41797-1.94532 1.41797-1.34375 1.33985 1.34375-1.33985 1.94531"/><path fill="#fff" fill-opacity="0" fill-rule="evenodd" d="M361.48047 448.6289l-3.60547.63282 3.60547 1.26172 1.13281-1.26172-1.13281-.63281"/><path fill="#00d4fc" fill-rule="evenodd" d="M360.33203 422.6289l-.22265-4.4375 1.37109-1.80859 2.0039-2.6289 2.4336-2.1797v1.39063l-.88281.78907.8828 2.75v3.80859l-2.47655 2.3164-.71094 4.44141.61328 4.4375 1.41797 4.4375 1.15625 1.85547 2.16015 2.58203.20313 4.4375-.3125 4.4414 2.38672 3.69532 1.58203.74219-1.58203 2.07812-2.07422 2.35938-1.78125 4.4375 1.1289 4.4414 2.72657 1.08204 1.61719-1.08204 2.8203-2.57421 4.44142 1.92578 3.05859-3.79297.94922-4.4375.42969-.54688 4.4375-2.48437 4.4375.63672 2.74218-2.04297 1.0664-4.4375-3.80858-2.57422-4.04297 2.57422-.39454 1.03906-.3164-1.03906-.66016-4.4414-3.46094-3.23438-2.90625 3.23437-1.53125 1.23828-.46875-1.23828.06641-4.4375.11328-4.4375-4.15234-2.79687-1.33985-1.64063-1.53125-4.4375-1.5664-1.64844-3.88672-2.79296-.55078-2.31641v-3.8086l3.69922-2.75-3.69922-.78906v-1.39062l4.4375-.02344 1.375 2.20313-1.375 1.36328-3.34766 3.07422.90235 4.4375 2.4453 1.7578 2.55079 2.6836 1.78906 4.4375.09766.1211 4.4414.53906 1.63672 3.77734 2.80079 3.14453 2.1953 1.29297 2.2422 2.08594 3.30859 2.35156 1.1289.36328 4.4375 1.22266 1.71875-1.58594 2.72266-1.57812 3.02735-2.85938 1.41015-.98437 4.4375-1.47656v1.4375l-2.67187 1.02343-1.76563 1.21485-3.42187 3.22265 3.42187 1.59766 4.4375.19922 4.4375-1.27344.6914-.52344.03516-4.4375-.72656-.71094-4.4375-.3125v-1.4375l4.4375-.08984 2.60156 2.55078.60938 4.4375-3.21094 2.42578-4.4375.34375-4.4375.10938-3.73828 1.5625-.69922.7539-3.80078 3.6836 3.80078 3.2539v2.01563l-4.4414 2.1211-.32032 1.48437.32031.4336 4.44141 2.26171 4.4375-.32422 3.94531-2.3711-3.9453-2.96483-4.4375-.64063v-2.01563l1.62108 1.1836 2.81641.60937 4.4375 1.8125 1.0039 2.01563-1.0039.99219-4.4375 2.0703-4.4375.6797-4.4414-1.46094-1.69922-2.28125-.50782-4.4375-2.23046-.83594-4.4375.39844-1.16016.4375-3.27735 1.40625-.6953 3.03125.6953 2.3711v3.11327l-.64843 3.39454.64844.46484 1.26562-.46485-1.26563-3.39453v-3.11328l1.67579 2.07031 2.76171 4.06641.27735.3711-.27735.29296-4.4375 1.52344-2.51953-1.8164-1.91796-3.6172-1.6211-.8203-2.82031-.7422-.8125.7422-3.625 2.42968-4.4375-.85937-.94531-1.57031-1.01954-4.44141.64844-4.4375 1.3164-1.5625 2.51954-2.875-1.4336-4.4375-1.08593-4.42578-.02344-.01563.02344-.02734.6875-4.41016-.6875-.82031-2.25781-3.61719-.94532-4.4375-.78906-4.4375-.44531-1.96875-1.14844-2.47265"/><path fill="#00c4fc" fill-rule="evenodd" d="M363.34375 431.50781l-.61328-4.4375.71094-4.4414 2.47656-2.31641v3.08203l-2.38672 3.67578.44531 4.4375 1.88281 4.4375.0586.09375 3.63672 4.34375.80078 3.61719.14453.82031-.14453.34375-1.42188 4.09766 1.42188 2.20312 1.35937-2.20312 3.07813-2.125v.63281l-2.16016 1.49219 2.16016 3.21094v4.71093l-1.34766.95313 1.34766.85937.21094-.85937-.21094-.95313v-4.71093l2.76562-3.21094-2.76562-1.49219v-.63281l3.9414 2.125-3.46875 4.4375.59766 4.4375-1.07031 4.36719-4.4375-2.97657-1.89063 3.04688 1.89063 3.6875 4.4375-3.64844 4.4414 2.91016 2.37891-2.94922.8164-4.4375 1.2422-1.58594 3.80468-2.85156-1.57812-4.4375-2.09375-4.4414-.13281-.125-.11329.125-4.32421 3.48827-1.32422-3.48828-1.17188-4.4375-.04687-4.4375-1.89844-1.27734-2.57813-3.16016-1.27734-4.4375-.58203-.61719-4.4375-3.05859v-3.08203l.55078 2.3164 3.88672 2.79298 1.5664 1.64843 1.53125 4.4375 1.33985 1.64063 4.15234 2.79687-.11328 4.4375-.0664 4.4375.46875 1.23828 1.53125-1.23828 2.90625-3.23437 3.46093 3.23437.66016 4.4414.3164 1.03907.39454-1.03906 4.04296-2.57422v1.5039l-1.67968 1.07032-.11719 4.4375 1.79688.48437.65234-.48437.9336-4.4375-1.58594-1.07031v-1.50391l3.80859 2.57422-1.0664 4.4375-2.7422 2.04297-4.4375-.63672-4.4375 2.48437-.42968.54688-.94922 4.4375-3.0586 3.79297-4.4414-1.92578-2.82031 2.57421-1.6172 1.08204-2.72655-1.08204-1.12891-4.4414 1.78125-4.4375 2.07422-2.35938 1.58203-2.07812-1.58203-.74219-2.38672-3.69531.3125-4.4414-.20313-4.4375-2.16015-2.58204-1.15625-1.85547-1.41797-4.4375"/><path fill="#00b8fc" fill-rule="evenodd" d="M363.97656 431.50781l-.44531-4.4375 2.38672-3.67578v1.23438l-1.58203 2.4414.26953 4.4375 1.3125 3.05078 1.42187 1.38672 3.01563 3.61719 4.11719-3.61719-3.4961-4.4375-.6211-2.44531-.7578-1.99219-3.6797-2.4414v-1.23438l4.4375 3.0586.58204.61718 1.27734 4.4375 2.57813 3.16016V440.5l-3.11719 4.32031-1.32031 3.1211-.45703 1.3203.45703.70704.4375-.70703 4-2.75781 2.26562-1.6836-2.26562-4.32031v-5.83203l1.89844 1.27734.04687 4.4375 1.17188 4.4375 1.32421 3.48828 4.32422-3.48828.11329-.125v3.8789l-1.03516.6875-3.125 4.4375-.27735.17188-2.51562 4.26563-.67188 4.4375 3.1875 2.10547 1.69532-2.10547.6875-4.4375 2.05469-2.625 2.41796-1.8125-2.08593-4.4375-.33204-.6875v-3.8789l.13282.125 2.09375 4.4414 1.57812 4.4375-3.80469 2.85156-1.24218 1.58594-.8164 4.4375-2.37892 2.94922-4.4414-2.91016-4.4375 3.64844-1.89063-3.6875 1.89063-3.04688 4.4375 2.97657 1.07031-4.3672-.59765-4.4375 3.46875-4.4375-3.94141-2.125-3.07813 2.125-1.35937 2.20313-1.42188-2.20312 1.42188-4.09766.14453-.34375-.14453-.82031-.80078-3.61719-3.63672-4.34375-.0586-.09375-1.8828-4.4375"/><path fill="#00a8fc" fill-rule="evenodd" d="M364.60547 431.50781l-.26953-4.4375 1.58203-2.4414v1.23828l-.78125 1.20312.09765 4.4375.6836 1.58594 2.92187 2.85156 1.51563 1.82031 2.07031-1.8203-2.07031-2.96876-1.40235-1.46875-1.22265-4.4375-1.8125-1.20312v-1.23828l3.67969 2.4414.7578 1.99219.6211 2.44531 3.4961 4.4375-4.1172 3.61719-3.01562-3.61719-1.42187-1.38672-1.3125-3.05078"/><path fill="#00c4fc" fill-rule="evenodd" d="M365.91797 416.5039l-.88281-2.75.8828-.78906 3.69923.78907-3.69922 2.75"/><path fill="#009800" fill-rule="evenodd" d="M365.23438 431.50781l-.09766-4.4375.78125-1.20312v2.29297l-.05469 3.34765.05469.1211 4.42187 4.3164.01563.01953.02344-.01953-.02344-.03515-4.20313-4.40235-.23437-3.34765v-2.29297l1.8125 1.20312 1.22265 4.4375 1.40235 1.46875 2.07031 2.96875-2.07031 1.82031-1.51563-1.8203-2.92187-2.85157-.6836-1.58594"/><path fill="#00ac00" fill-rule="evenodd" d="M365.91797 431.6289l-.05469-.12109.05469-3.34765.23437 3.34765 4.20313 4.40235.02344.03515-.02344.01953-.01563-.01953-4.42187-4.3164"/><path fill="#00a8fc" fill-rule="evenodd" d="M370.35547 449.96875l-.45703-.70703.45703-1.32031 1.32031-3.1211 3.11719-4.32031v1.6289l-1.9414 2.69141 1.9414 1.05078 1.41015-1.05078-1.41015-2.6914V440.5l2.26562 4.32031-2.26562 1.6836-4 2.7578-.4375.70704"/><path fill="#00d4fc" fill-rule="evenodd" d="M374.79297 447.76953l-2.16016 1.49219 2.16016 3.21094 2.76562-3.21094-2.76562-1.49219v.63672l1.58984.85547-1.58984 1.84375-1.23828-1.84375 1.23828-.85547v-.63672"/><path fill="#009800" fill-rule="evenodd" d="M374.79297 445.8711l-1.9414-1.05079 1.9414-2.6914v1.6289l-.76563 1.0625.76563.41406.5586-.41406-.5586-1.0625v-1.6289l1.41015 2.6914-1.41015 1.05078"/><path fill="#00d4fc" fill-rule="evenodd" d="M374.79297 457.1836l-1.34766.95312 1.34766.85937.21094-.85937-.21094-.95313"/><path fill="#00e8fc" fill-rule="evenodd" d="M374.79297 448.40625l-1.23828.85547 1.23828 1.84375 1.58984-1.84375-1.58984-.85547v.63281l.41015.22266-.41015.47656-.32031-.47656.3203-.22266v-.63281"/><path fill="#00ac00" fill-rule="evenodd" d="M374.79297 445.23438l-.76563-.41407.76563-1.0625.5586 1.0625-.5586.41406"/><path fill="#50fcfc" fill-rule="evenodd" d="M374.79297 449.03906l-.32031.22266.3203.47656.41017-.47656-.41016-.22266"/><path fill="#00a8fc" fill-rule="evenodd" d="M379.23438 464.67969l-3.1875-2.10547.67187-4.4375 2.51563-4.26563.27734-.17187 3.125-4.4375 1.03515-.6875v3.01953l-1.77343 2.10547-2.66406 1.625-1.65625 2.8125-.25391 4.4375 1.91015 1.26172 1.01563-1.26172.55469-4.4375 2.86719-3.66406 1.03125-.77344-1.03125-2.10547v-3.01953l.33203.6875 2.08593 4.4375-2.41796 1.8125-2.0547 2.625-.6875 4.4375-1.6953 2.10547"/><path fill="#009800" fill-rule="evenodd" d="M379.23438 463.83594l-1.91016-1.26172.2539-4.4375 1.65625-2.8125v1.45703l-.80078 1.35547.16797 4.4375.63281.41797.33594-.41797.42188-4.4375-.75781-1.35547v-1.45703l2.66406-1.625 1.77344-2.10547 1.03125 2.10547-1.03125.77344-2.8672 3.66406-.55468 4.4375-1.01563 1.26172"/><path fill="#00ac00" fill-rule="evenodd" d="M378.60156 462.57422l-.16797-4.4375.80079-1.35547.7578 1.35547-.42187 4.4375-.33594.41797-.6328-.41797"/><path fill="#00c4fc" fill-rule="evenodd" d="M383.67188 471.91797l-.64844-.46485.64844-3.39453 1.26562 3.39454-1.26563.46484"/><path fill="#00d4fc" fill-rule="evenodd" d="M387.17969 431.50781l-.3711-4.4375 1.30079-.8164 1.46875.8164-1.0625 4.4375-.40625.30469-.9297-.30469"/><path fill="#00b8fc" fill-rule="evenodd" d="M392.54688 454.1836l-1.79688-.48438.11719-4.4375 1.67969-1.07031 1.58593 1.0703-.9336 4.4375-.65233.48438"/><path fill="#00c4fc" fill-rule="evenodd" d="M396.98438 463.00781l-.32032-.4336.32031-1.48437 4.44141-2.12109v1.39844l-2.99219 2.20703 2.9922 1.65234 4.4375.02735 2.79687-1.6797-2.79688-2.10155-4.4375-.10547v-1.39844l4.4375.64063 3.94531 2.96484-3.9453 2.3711-4.4375.32421-4.44142-2.26172"/><path fill="#00b8fc" fill-rule="evenodd" d="M401.42578 464.22656l-2.99219-1.65234 2.9922-2.20703 4.4375.10547v.86328l-4.4375.42969-1.09767.80859 1.09766.60547 4.4375.38672 1.64844-.9922-1.64844-1.23827v-.86328l2.79688 2.10156-2.79688 1.67969-4.4375-.02735"/><path fill="#00a8fc" fill-rule="evenodd" d="M401.42578 463.17969l-1.09765-.60547 1.09765-.8086 4.4375-.42968v.86328l-2.25781.375 2.25781.30078.5-.30078-.5-.375v-.86328l1.64844 1.23828-1.64844.99219-4.4375-.38672"/><path fill="#50fcfc" fill-rule="evenodd" d="M401.42578 453.3086l-.40234.39062.40234.34375 3.26563-.34375-3.26563-.39063"/><path fill="#00c4fc" fill-rule="evenodd" d="M405.86328 446.41797l-3.42187-1.59766 3.42187-3.22265 1.76563-1.21485 2.67187-1.02344v2.15235l-4.4375 2.67187-.67578.63672.67578.3164 4.4375.51173 2.39063-.82813-2.39063-3.3086v-2.15233l4.4375.3125.72656.71093-.03515 4.4375-.6914.52344-4.4375 1.27344-4.4375-.19922"/><path fill="#009800" fill-rule="evenodd" d="M405.86328 462.875l-2.25781-.30078 2.25781-.375.5.375-.5.30078"/><path fill="#00b8fc" fill-rule="evenodd" d="M405.86328 445.13672l-.67578-.3164.67578-.63673 4.4375-2.67187 2.39063 3.3086-2.39063.82812-4.4375-.51172"/><path fill="#fff" fill-opacity="0" fill-rule="evenodd" d="M410.30078 449.14453l-1.0625.11719 1.0625 1.04687.80469-1.04687-.80469-.11719"/><path fill="#50fcfc" fill-rule="evenodd" d="M423.61719 463.17188l-.78125-.59766.78125-3.59375.89062 3.59375-.89062.59765"/><g clip-path="url(#c)"><path fill="#fff" fill-opacity="0" fill-rule="evenodd" d="M467.9961 480.32813H468V311.67188h-.0039H468v168.65625h-.0039"/></g><path fill="#fff" fill-opacity="0" fill-rule="evenodd" d="M345.23828 442.76172l5.8164-.5625-.96093-9.91406-5.8125.5625.95703 9.91406"/><path fill-rule="evenodd" d="M347.9375 434.33203l.50781-.04687.60547 6.26562-.78125.07422-.4336-4.46875-1.3828.13672-.05079-.55469.55079-.11719.24609-.07812.21875-.11328.1875-.16016.15234-.22656.11328-.30469.06641-.40625"/><path fill="#fff" fill-opacity="0" fill-rule="evenodd" d="M389.98438 426.66797l2.94921 5.04297 8.59766-5.02735-2.94922-5.04296-8.59765 5.02734"/><path fill-rule="evenodd" d="M398.76563 425.58594l.2578.4414-5.43359 3.17579-.39843-.6797 3.875-2.26562-.69922-1.19922.48047-.28125.33984.45313.17188.1914.1914.15235.22656.10156.26954.04688.32421-.02735.39454-.10937"/><path fill="#fff" fill-opacity="0" fill-rule="evenodd" d="M342.49219 419.78516l4.20703-4.05079-6.91016-7.17578-4.20703 4.0547 6.91016 7.17187"/><path fill-rule="evenodd" d="M339.375 411.5039l.36328-.35156 4.3711 4.53125-.57032.54688-3.11328-3.23438-1 .96485-.38672-.39844.35938-.4375.14453-.21094.10156-.22656.05078-.24219-.02344-.26953-.10156-.3125-.19531-.35937"/><path fill="#fff" fill-opacity="0" fill-rule="evenodd" d="M277.17969 446.28906l5.71094 1.21875 2.07421-9.7461-5.71484-1.21483-2.07031 9.74218"/><path fill-rule="evenodd" d="M282.29297 439.07031l.4961.10547-1.3086 6.15625-.76953-.16406.9336-4.39063-1.35938-.28906.11718-.54297.5625.05078h.25782l.24218-.03906.22657-.09765.21484-.16797.19922-.25782.1875-.36328"/><path fill="#fff" fill-opacity="0" fill-rule="evenodd" d="M387.16797 449.11719l7.59375 2.26172 2.91406-9.76563-7.59375-2.26562-2.91406 9.76953"/><path fill-rule="evenodd" d="M391.9336 441.8125l3.14843.9414-.21094.70704-2.52734-.7539-.73828 1.66405.26562-.08984.29688-.05078.33594.00781.375.07813.30468.12109.29688.17578.27734.23438.23828.29687.1797.35547.0625.19922.03905.21484.01563.23047-.00781.2461-.03907.26171-.0664.27344-.16016.41406-.21875.3711-.27734.32031-.32422.25781-.375.1836-.20313.05859-.21484.03906-.22656.01563-.23438-.00781-.2461-.03907-.2539-.0625-.4375-.16797-.35156-.21093-.27344-.25-.20312-.28516-.13672-.3125-.08203-.33594-.02735-.35156.01954-.36328.7539.22265.00781.2461.03907.22656.0664.21094.09766.1875.125.16797.15234.14062.1875.11328.21485.08594.30859.0664.28906.01173.26953-.04688.2461-.09765.22265-.16016.19141-.21875.16016-.27344.125-.33594.05859-.2578.01563-.26954-.02735-.26563-.07812-.26171-.125-.2422-.1875-.21093-.25-.17969-.3125-.1289-.33594-.0625-.30078.02344-.3125.10156-.375.17187-.66797-.19922 1.42187-3.15234"/><g clip-path="url(#d)"><path fill="none" stroke="#000" stroke-linecap="round" stroke-linejoin="round" stroke-miterlimit="10" stroke-width=".5" d="M147.46484 480.91016l-6.92968-1.16407"/></g><g clip-path="url(#e)"><path fill="none" stroke="#000" stroke-linecap="round" stroke-linejoin="round" stroke-miterlimit="10" stroke-width=".5" d="M147.46484 480.91016l.77735 2.32812"/></g><g clip-path="url(#f)"><path fill="none" stroke="#000" stroke-linecap="round" stroke-linejoin="round" stroke-miterlimit="10" stroke-width=".5" d="M160.77734 480.91797l-6.92578-1.17969"/></g><g clip-path="url(#g)"><path fill="none" stroke="#000" stroke-linecap="round" stroke-linejoin="round" stroke-miterlimit="10" stroke-width=".5" d="M160.77734 480.91797l.77344 2.32812"/></g><g clip-path="url(#h)"><path fill="none" stroke="#000" stroke-linecap="round" stroke-linejoin="round" stroke-miterlimit="10" stroke-width=".5" d="M174.08984 480.94922l-6.91797-1.23828"/></g><g clip-path="url(#i)"><path fill="none" stroke="#000" stroke-linecap="round" stroke-linejoin="round" stroke-miterlimit="10" stroke-width=".5" d="M173.08203 480.76953l.375 1.16797"/></g><g clip-path="url(#j)"><path fill="none" stroke="#000" stroke-linecap="round" stroke-linejoin="round" stroke-miterlimit="10" stroke-width=".5" d="M187.42969 480.79297l-6.96875-.92969"/></g><g clip-path="url(#k)"><path fill="none" stroke="#000" stroke-linecap="round" stroke-linejoin="round" stroke-miterlimit="10" stroke-width=".5" d="M186.41406 480.66016l.42969 1.14843"/></g><g clip-path="url(#l)"><path fill="none" stroke="#000" stroke-linecap="round" stroke-linejoin="round" stroke-miterlimit="10" stroke-width=".5" d="M200.63672 481.30078l-6.7539-1.94531"/></g><g clip-path="url(#m)"><path fill="none" stroke="#000" stroke-linecap="round" stroke-linejoin="round" stroke-miterlimit="10" stroke-width=".5" d="M199.65234 481.01953l.25391 1.19922"/></g><g clip-path="url(#n)"><path fill="none" stroke="#000" stroke-linecap="round" stroke-linejoin="round" stroke-miterlimit="10" stroke-width=".5" d="M214.05469 480.82422l-6.95703-.99219"/></g><g clip-path="url(#o)"><path fill="none" stroke="#000" stroke-linecap="round" stroke-linejoin="round" stroke-miterlimit="10" stroke-width=".5" d="M213.04297 480.67969l.41797 1.15234"/></g><g clip-path="url(#p)"><path fill="none" stroke="#000" stroke-linecap="round" stroke-linejoin="round" stroke-miterlimit="10" stroke-width=".5" d="M227.22266 481.44531l-6.66407-2.23047"/></g><g clip-path="url(#q)"><path fill="none" stroke="#000" stroke-linecap="round" stroke-linejoin="round" stroke-miterlimit="10" stroke-width=".5" d="M226.2539 481.1211l.20313 1.20702"/></g><g clip-path="url(#r)"><path fill="none" stroke="#000" stroke-linecap="round" stroke-linejoin="round" stroke-miterlimit="10" stroke-width=".5" d="M240.38281 481.83203l-6.35156-3.00781"/></g><g clip-path="url(#s)"><path fill="none" stroke="#000" stroke-linecap="round" stroke-linejoin="round" stroke-miterlimit="10" stroke-width=".5" d="M253.22266 482.57422l-5.40625-4.48828"/></g><g clip-path="url(#t)"><path fill="none" stroke="#000" stroke-linecap="round" stroke-linejoin="round" stroke-miterlimit="10" stroke-width=".5" d="M265.97656 483.11328l-4.28125-5.57031"/></g><g clip-path="url(#u)"><path fill="none" stroke="#000" stroke-linecap="round" stroke-linejoin="round" stroke-miterlimit="10" stroke-width=".5" d="M279.29297 483.11328l-4.28125-5.57031"/></g><g clip-path="url(#v)"><path fill="none" stroke="#000" stroke-linecap="round" stroke-linejoin="round" stroke-miterlimit="10" stroke-width=".5" d="M293.04688 482.71484l-5.16016-4.76953"/></g><g clip-path="url(#w)"><path fill="none" stroke="#000" stroke-linecap="round" stroke-linejoin="round" stroke-miterlimit="10" stroke-width=".5" d="M305.78125 483.21875l-4-5.77734"/></g><g clip-path="url(#x)"><path fill="none" stroke="#000" stroke-linecap="round" stroke-linejoin="round" stroke-miterlimit="10" stroke-width=".5" d="M317.8086 483.76953l-1.42579-6.88281"/></g><g clip-path="url(#y)"><path fill="none" stroke="#000" stroke-linecap="round" stroke-linejoin="round" stroke-miterlimit="10" stroke-width=".5" d="M330.07813 483.82813l.66796-6.9961"/></g><g clip-path="url(#z)"><path fill="none" stroke="#000" stroke-linecap="round" stroke-linejoin="round" stroke-miterlimit="10" stroke-width=".5" d="M343.42578 483.82813l.60156-7"/></g><g clip-path="url(#A)"><path fill="none" stroke="#000" stroke-linecap="round" stroke-linejoin="round" stroke-miterlimit="10" stroke-width=".5" d="M357.08203 483.84375L357 476.81641"/></g><g clip-path="url(#B)"><path fill="none" stroke="#000" stroke-linecap="round" stroke-linejoin="round" stroke-miterlimit="10" stroke-width=".5" d="M371.92578 483.47266l-3.13672-6.28907"/></g><g clip-path="url(#C)"><path fill="none" stroke="#000" stroke-linecap="round" stroke-linejoin="round" stroke-miterlimit="10" stroke-width=".5" d="M385.3125 483.4336l-3.28516-6.21094"/></g><g clip-path="url(#D)"><path fill="none" stroke="#000" stroke-linecap="round" stroke-linejoin="round" stroke-miterlimit="10" stroke-width=".5" d="M400.17188 481.8164l-6.3711-2.97265"/></g><g clip-path="url(#E)"><path fill="none" stroke="#000" stroke-linecap="round" stroke-linejoin="round" stroke-miterlimit="10" stroke-width=".5" d="M413.26563 482.21484l-5.9297-3.77343"/></g><g clip-path="url(#F)"><path fill="none" stroke="#000" stroke-linecap="round" stroke-linejoin="round" stroke-miterlimit="10" stroke-width=".5" d="M427.05469 479.59766l-6.875 1.46093"/></g><g clip-path="url(#G)"><path fill="none" stroke="#000" stroke-linecap="round" stroke-linejoin="round" stroke-miterlimit="10" stroke-width=".5" d="M426.05469 479.8125l.78906.9375"/></g><g clip-path="url(#H)"><path fill="none" stroke="#000" stroke-linecap="round" stroke-linejoin="round" stroke-miterlimit="10" stroke-width=".5" d="M438.6914 483.3711l-3.51952-6.08204"/></g><g clip-path="url(#I)"><path fill="none" stroke="#000" stroke-linecap="round" stroke-linejoin="round" stroke-miterlimit="10" stroke-width=".5" d="M452.25 483.21484l-4.00781-5.77343"/></g><g clip-path="url(#J)"><path fill="none" stroke="#000" stroke-linecap="round" stroke-linejoin="round" stroke-miterlimit="10" stroke-width=".5" d="M464.71875 483.64453l-2.3125-6.63281"/></g><g clip-path="url(#K)"><path fill="none" stroke="#000" stroke-linecap="round" stroke-linejoin="round" stroke-miterlimit="10" stroke-width=".5" d="M147.5 467.3086l-7-.58985"/></g><path fill="none" stroke="#000" stroke-linecap="round" stroke-linejoin="round" stroke-miterlimit="10" stroke-width=".5" d="M146.48047 467.22266l.48437 1.1289m13.84766-1.67187l-6.9961.66797m5.98048-.57032l.67578 1.02344m13.66015-1.0625l-7.0039.55078m5.98437-.46875l.66016 1.03516m13.34765-2.33984l-6.35156 2.99609m5.42969-2.5625l.98047.73437m13.41797-.77343l-6.67188 2.20703m5.69922-1.88672l.88672.84766m13.30078 1.30468l-6.47266-2.73828m19.66797-.2539l-6.23437 3.24609m17.45312-1.6211l-.01953-.20312-.0586-.1914-.09374-.17579-.45703-.375-.19141-.0586-.19922-.01952-.19922.01953-.19531.0586-.45703.375-.09375.17577-.0586.19141-.01953.20313.01953.19921.0586.19141.09375.17578.45703.375.19531.0586.19922.01953.19922-.01953.1914-.0586.45704-.375.09375-.17578.0586-.1914.01952-.19922m14.60547 2.64453l-4.6211-5.29297m15.57032 6.16015l.10938-7.02734m11.80468 6.71094l2.91406-6.39453m8.8672 5.04297l5.97656-3.69141m6.96875 2.875l6.71875-2.0586m8.80078 4.34766l2.30859-6.63672m12.71484 6.78907l-1.10546-6.94141m.9414 5.92969l-.97656.74218m13.46484.28516l.875-6.97266m-.75 5.95704l-1.14453.4375m12.70313-.06641l4.13671-5.6836m-3.53515 4.85547l-1.21485-.17187m14.96485 1.51562l2.0625-6.71484m-1.76172 5.73828l-1.20703.23438m17.35547.19922l-4.20703-5.62891m13.17968.10937l4.48047 5.41016m9.9414.6211l2.26954-6.65235m-1.9414 5.6836l-1.21094.1953m13.91796.66407l2.82813-6.4336m-2.41797 5.4961l-1.22265.09375m16.23046 1.07031l-1.3789-6.88672m1.17969 5.88672l-.94922.77735m14.91796.10156l-2.28515-6.64453m1.94922 5.67968l-.83594.89454m14.6289.01562l-2.57421-6.53516m2.57422 6.53516l-1.59375 1.86719"/><g clip-path="url(#L)"><path fill="none" stroke="#000" stroke-linecap="round" stroke-linejoin="round" stroke-miterlimit="10" stroke-width=".5" d="M147.47656 454.20313l-6.95312-1.00782"/></g><path fill="none" stroke="#000" stroke-linecap="round" stroke-linejoin="round" stroke-miterlimit="10" stroke-width=".5" d="M146.46484 454.0586l.41407 1.15234m13.8789-.8125L153.8711 453m5.88672 1.19531l.34766 1.17578m13.60937-3.35547l-6.16797 3.36329m19.75782-.65625l-6.71875-2.04688m18.4414 4.0625l-3.53125-6.07812m11.71875 2.01172l6.72266 2.05078m6.46094-1.41797l6.98437.78906m6.38672-1.125l6.875 1.45703m-5.875-1.24219l-.33984-1.17968m12.58203 1.90625l7.01562-.42188m-5.99218.35938l-.64063-1.04688m14.83984-2.23047l3.19922 6.25782m8.375-4.20704l6.6875 2.15625m8.44141-4.24218l3.05469 6.32812m8.29687-2.78515l6.98438-.76172m6.6289 1.84375l6.38672-2.92578m-5.45703 2.5l-.97656-.7422m13.91797 2.02735l5.27734-4.64062m-4.51172 3.96484l-1.14844-.4336m13.60547 1l5.46094-4.42187m-4.66797 3.77735l-1.1289-.47657m14.83203 2.0625l3.09765-6.3086m-2.64453 5.39063l-1.22656.04297m12.88281-4.45703l5.51172 4.35938m-4.71094-3.72657l.21875-1.20703m11.6797 3.74219l6.74218-1.97656m-5.76172 1.6875l-.85938-.8789m13.10938-.46095l6.91016 1.27735m-6.91016-1.27735l-.73828-2.33984m14.23828 4.26953l6.53906-2.57812m-6.53906 2.57812l-1.86328-1.59375m16.4961 3.22656l3.90624-5.84375m-3.90625 5.84375l-2.4414-.24609m14.98437-.46094l5.44922-4.4336m-5.44922 4.4336l-2.26172-.95312m3.05469.3086l-1.13281-.47657m14.92187 2.10156l2.91406-6.39453m-2.91406 6.39453l-2.44922.14844m17.3672.16797l-.28907-7.02344m.28906 7.02344l-2.11719 1.23828"/><g clip-path="url(#M)"><path fill="none" stroke="#000" stroke-linecap="round" stroke-linejoin="round" stroke-miterlimit="10" stroke-width=".5" d="M147.51172 440.4414l-7.02344-.11718"/></g><path fill="none" stroke="#000" stroke-linecap="round" stroke-linejoin="round" stroke-miterlimit="10" stroke-width=".5" d="M153.8086 440.58203l7.01562-.39453m9.28125 3.66797l1.05078-6.94531m12.4375 6.96875l.69922-6.9922m16.46094 3.88282L193.76953 440m19.17969-2.20703l-4.7461 5.17969m4.0547-4.42579l1.1875.3047m9.2578-1.77344l2.375 6.61328m9.4961-.98047l5.26172-4.65625m-4.4961 3.98047l-1.14843-.4297m12.8164-1.09765l7.02344-.2461m6.66016 1.69142l6.28515-3.14063m-5.36718 2.6836l-1-.71094m16.0664-3.88282l.94922 6.96094m-.8125-5.94922l.9961-.71484m10.76562.22266l3.78125 5.92187m-3.23047-5.0586l.60547-1.0703m10.80078 1.82812l6.5 2.67969m-5.55469-2.28907l-.11719-1.21875m12.34375 1.26172l6.78907 1.8125m-5.80469-1.54687l-.27344-1.19531m12.64453.78515l6.70313 2.10156m-5.72656-1.79687l-.22657-1.20313m12.46485 1.29297l6.90234 1.3164m-5.89844-1.125l-.35937-1.17187m13.09375 3.41407l6.0586-3.5547m-5.17579 3.03907L353.84766 441m13.60156 1.35938l5.8125-3.94922m-4.96485 3.375l-1.08593-.57422m13.27344-2.3125l6.37109 2.96875m-6.3711-2.96875l-.1289-2.44922m13.16406 3.35156l6.9336 1.16406m-6.9336-1.16406l-.77734-2.32422m1.78906 2.4961l-.39063-1.16407m12.90235 2.88672l6.51562-2.625m-6.51562 2.625l-1.8789-1.57812m2.82812 1.19531l-.9414-.78906m13.91796 2.17187l5.29297-4.625m-5.29297 4.625l-2.29297-.875m3.0664.20313l-1.14843-.4375m14.60938 1.85547l3.45703-6.1172m-3.45704 6.1172l-2.45312-.0625m15.80469.08593l3.38281-6.16015m-3.38281 6.16015l-2.45313-.03515m2.94531-.86328l-1.22656-.01563m15.23438 1.3086l1.01562-6.95313m-1.01562 6.95313l-2.3125.82812"/><g clip-path="url(#N)"><path fill="none" stroke="#000" stroke-linecap="round" stroke-linejoin="round" stroke-miterlimit="10" stroke-width=".5" d="M147.21094 425.64453l-6.42188 2.84766"/></g><path fill="none" stroke="#000" stroke-linecap="round" stroke-linejoin="round" stroke-miterlimit="10" stroke-width=".5" d="M146.27734 426.0586l.96485.7578m13.44531-.73437l-6.7461 1.97266m5.76563-1.6836l.85547.875m13.28125 1.2422l-6.42578-2.83985m19.84766 2.57031l-6.64063-2.30078m5.67578 1.96484l.1875 1.21094m14.17969-1.16016l-6.8125-1.73047m5.82031 1.47657l.29297 1.1914m14.0625-1.16406l-6.91016-1.27734m6.91016 1.27734l.73828 2.33984m12.55078-3.74218l-6.85937 1.52734m6.85937-1.52734l1.59375 1.86328m11.5664-2.375l-6.54687 2.55078m5.59375-2.17969l.9297.80078m12.01171-2.8203l-3.89453 5.84765m3.32812-4.9961l1.21875.1172m8.8711-1.03517l3.6836 5.98047m-3.14454-5.11328l.61719-1.05469m14.34375-.3203l-.6836 6.99609m.58203-5.97657l1.13672-.46875m9.1172.85157l5.64062 4.1914m-4.82032-3.58203l.1875-1.21094m18.03516 4.66797l-5.8164-3.9414m15.07812 5.29296l2.29297-6.64453m15.57812 4.16797L327 426.22266m13.28516.14453l6.8828 1.40234m-5.8828-1.19922l-.34766-1.17578m14.42578 4.76172l3.35547-6.17578m-2.86719 5.27734l-1.22656-.01172m14.70703 1.1836l2.04688-6.72266m-1.75 5.7461l-1.20313.23437m15.9375.82422l-1.38281-6.88672m1.17969 5.88672l-.94532.77734m14.96875.08203l-2.39453-6.60547m2.04688 5.64454l-.82031.91015m10.14062-1.6875l6.29297-3.1289m-6.29297 3.1289l-1.9961-1.42969m2.91016.97266l-.9961-.71094m13.28907.9336l6.50781-2.66016m-6.5078 2.66016l-1.88673-1.57032m2.83203 1.1836l-1.8828-1.57031m15.11327 3.20312l4.78516-5.15234m-4.78516 5.15234l-2.3711-.63281m3.06642-.11719l-1.1836-.3164m14.69922 1.66796l2.9961-6.35547m-2.9961 6.35547l-2.45313.1172m2.88672-1.04298l-1.22656.0586m14.21875.91796l2.77344-6.45703m-2.77344 6.45703l-2.44531.20313m2.84765-1.14063l-1.22265.10157"/><g clip-path="url(#O)"><path fill="none" stroke="#000" stroke-linecap="round" stroke-linejoin="round" stroke-miterlimit="10" stroke-width=".5" d="M146.96484 411.86719l-5.92968 3.77344"/></g><path fill="none" stroke="#000" stroke-linecap="round" stroke-linejoin="round" stroke-miterlimit="10" stroke-width=".5" d="M146.10156 412.41406l1.0664.60547m13.47657-.39062l-6.65625 2.25m5.6875-1.92188l.89063.83985m13.53906-.55079l-6.95313 1.01563m5.94141-.8711l.72656.9922m13.38672.67968l-6.52344-2.61719m16.96485 4.80078l-.77344-6.98437m.66016 5.96875l-1.01563.6914m14.3164.33594l-.51952-7.00781m.51953 7.00781l-2.07422 1.3086m16.90625-1.78516l-3.5586-6.0586m3.04297 5.1797l-.64453 1.04296m16.11719-2.3789l-6.83594-1.625m6.83594 1.625l.61719 2.375m12.67969-4.07422l-6.80079 1.77344m5.8086-1.51563l.83203.90234m8.25781-3.28125l3.63281 6.01563m11.14063-6.5039l.71484 6.99218m-.60937-5.97656l1.01953-.67969m10.6211.22266l3.85546 5.875m-3.29687-5.01953l.58984-1.07813m10.86719 1.76953l6.45312 2.78125m-5.51562-2.3789l-.09766-1.22266m13.3164-.3711l4.76954 5.16407m-4.07422-4.41406l.40625-1.15625m12.85156 6.03515l3.4961-6.09375m-2.98829 5.20703l-1.22656-.03906m18.26563.36328l-4.96875-4.96875m17.60937 5.4961l-3.6211-6.02344m3.09376 5.14844l-.63281 1.05078m10.91015-.14453l3.50781-6.08594m-2.99609 5.19922l-1.22656-.03907m12.27734-1.88671l7.01172-.46485m-7.01172.46485l-1.29297-2.08204m14.63672 1.3672l6.95703.96874m-6.95703-.96875l-.84375-2.30469m1.85547 2.44532l-.42187-1.15235m12.71484 1.90235l6.98047-.8125m-6.98047.8125l-1.39453-2.01954m14.6836 1.65625l7.02734-.08984m-7.02735.08984l-1.17969-2.14843m18.33985-1.39453l-.66016 6.99609m.5664-5.97656l1.12892-.47266m9.71875 5.66797l4.46093-5.42969m-3.8125 4.64063l-1.20312-.24219m13.83203 1l4.53906-5.36719m-4.53906 5.36719l-2.39844-.51953"/><g clip-path="url(#P)"><path fill="none" stroke="#000" stroke-linecap="round" stroke-linejoin="round" stroke-miterlimit="10" stroke-width=".5" d="M147.1914 398.96484l-6.3828 2.94532"/></g><path fill="none" stroke="#000" stroke-linecap="round" stroke-linejoin="round" stroke-miterlimit="10" stroke-width=".5" d="M146.26172 399.39453l.97656.74219m13.46484-.6211l-6.77734 1.84766m5.79297-1.58203l.83984.89453m13.52735-.86328l-6.91406 1.2539m16.46484 2.8711l.61719-7m13.10156 7.01172l-.1914-7.02344m.1914 7.02344l-2.13281 1.21094m14.11718-1.4336l2.47266-6.57812m-2.47266 6.57812l-2.43359.3164m17.13281-.09374l-.30078-7.01953m.30078 7.01953l-2.11328 1.24219m18.26563-2.90235l-5.97266-3.69922m5.97266 3.69922l-.16016 2.44922m11.1289-7.7539l-1.27734 6.91015m1.08985-5.90625l1.17187-.3711m10.95703 6.25782l1.46875-6.8711m9.0664 3.33204l7.02735.20312m-6.0039-.17187l-.54297-1.10156m13.08984-.14063l6.51953 2.625m-6.51953-2.625l-.26172-2.4375m13.74219 2.08594l6.1875 3.32812m-6.1875-3.32812l.01172-2.45313m13.05078 3.03906l6.6914 2.15625m-6.6914-2.15625l-.42969-2.41406m13.73438 2.45703l6.71484 2.07422m-6.71484-2.07422l-.46094-2.41015m15.85937 6.72265L345 397.16406m-2.17578 5.59766l-1.21875.14453m14.83203.99219l1.20703-6.92188m-1.03125 5.91406l-1.16797.38282m13.21485.24219l3.39062-6.15625m-3.39062 6.15625l-2.45313-.03516m13.94922-3.01563l7.02734-.05078m-6.0039.04297l-.58203-1.08203m13.26171-.53906l6.25391 3.20312m-6.2539-3.20312l-.03907-2.45313m14.51953 1.14063l3.92188 5.83203m-3.92188-5.83203l1.15625-2.16406m10.63672 4.62109l6.96875.91797m-5.95312-.78516l-.42969-1.14844m19.26562-.26953l-6.10546 3.48438m5.21484-2.97656l1.03906.65625m12.95703-1.48438l-5.6875 4.125m4.85938-3.52344l1.10547.53906m11.98437-2.10156l-3.58203 6.04688m3.0625-5.16406l1.22656.05468"/><g clip-path="url(#Q)"><path fill="none" stroke="#000" stroke-linecap="round" stroke-linejoin="round" stroke-miterlimit="10" stroke-width=".5" d="M146.60938 384.76953l-5.21875 4.70703"/></g><path fill="none" stroke="#000" stroke-linecap="round" stroke-linejoin="round" stroke-miterlimit="10" stroke-width=".5" d="M145.85156 385.45313l1.15235.42187m13.52343-.17188l-6.42578 2.83985m5.49219-2.42578l.96484.75781m10.47266-3.24219l-.80469 6.98047m.6875-5.96484l1.14453-.44922m10.48828-.30078l2.79688 6.44922m-2.79688-6.44922l1.53125-1.91797m9.71485 5.70703l6.9336-1.1289m-6.9336 1.1289l-1.48438-1.95313M207.9883 389.5l5.17577-4.7539m-5.17578 4.7539l-2.3164-.8164m3.0703.125l-1.16015-.41016m16.47266 2.23437l-.32813-7.01953m.32813 7.01953l-2.10938 1.2539m2.0625-2.27343l-1.05469.625m15.33985.22656l-2.17188-6.68359m2.17188 6.6836l-1.70703 1.76562m16.46484-2.67188l-5.0625-4.87109m5.0625 4.8711l-.67187 2.35937m14.59375-3.20703l-6.27344-3.17188m14.1211-1.04687l4.66015 5.26172M275.5 385.2578l.42578-1.14844m12.03906.54297l5 4.94141m-4.26953-4.22266l.35157-1.17578m12.83593-.02734l3.79688 5.91015m-3.79688-5.91015l1.19922-2.14063m-.64844 3l.60157-1.0703m11.21093 1.10937l5.69922 4.11328m-5.69922-4.11328l.33204-2.4297m.49609 3.03126l.16797-1.21875m14.07422-.66406l2.1875 6.67578m-2.1875-6.67578l1.69922-1.76954m-1.37891 2.7422l.84766-.88673m10.14843 4.91797l6.1875-3.32812m-6.1875 3.32812l-2.04297-1.36328m16.23438 2.42188l4.4336-5.44922m-4.4336 5.44922l-2.40625-.47266m3.05078-.32031l-1.20312-.23438M367 388.16406l6.71094-2.08203M367 388.16406l-1.74219-1.73047m14.96485.02344l6.89843 1.33203m-5.89453-1.13672l-.36328-1.17187m14.00781-1.16406l4.23047 5.61328m-4.23047-5.61328l1.03907-2.22266m11.90625 2.54688l4.96875 4.96875m-4.2461-4.2461l.35938-1.17578m16.90234 5.6875l-4.3711-5.5039m3.73438 4.70312l-.48828 1.125m15.26172-1.2539l-6.01172-3.64454m5.13672 3.11328l-.07031 1.22656m12.1289-5.92187l-1.75 6.8086m1.4961-5.81641l1.1914-.28906m13.52735-.17188l-4.04688 5.7461"/><g clip-path="url(#R)"><path fill="none" stroke="#000" stroke-linecap="round" stroke-linejoin="round" stroke-miterlimit="10" stroke-width=".5" d="M465.58594 384.25l2.4336.3086"/></g><g clip-path="url(#S)"><path fill="none" stroke="#000" stroke-linecap="round" stroke-linejoin="round" stroke-miterlimit="10" stroke-width=".5" d="M141.19531 371.6914l5.60938 4.23438"/></g><path fill="none" stroke="#000" stroke-linecap="round" stroke-linejoin="round" stroke-miterlimit="10" stroke-width=".5" d="M153.8086 374.02734l7.01171-.4375m10.17188-3.27734l-.72266 6.99219m.61719-5.97266l1.13672-.46484m14.29687.35156l-4.75 5.17969m4.75-5.17969l2.375.61328m10.4414-.9961l-3.7539 5.94141m3.7539-5.9414l2.44532.1836m-2.99219.68358l1.22266.08985m11.38672 5.47265l-1.2461-6.91406m1.2461 6.91406l-1.92578 1.51954m15.375-1.54688l-1.51563-6.85937m1.51563 6.85937l-1.86719 1.59375m1.64844-2.58984l-.9336.79297m15.42188-.15625l-3.42188-6.14063m3.42188 6.14063l-1.33203 2.05859m.83203-2.95313l-.66406 1.03125m15.18359-.65625l-4.83203-5.10156m4.83203 5.10156l-.78125 2.32813m.07813-3.07031l-.39063 1.16406m14.76563-.8164l-5.54688-4.3125m5.54688 4.3125l-.41797 2.41796m12.7539-7.59375l-3.58984 6.03906m3.58984-6.03906l2.45313.11719m10.53906-.28906L288.9961 377m2.9414-6.38281l2.44922-.14063m-2.8789 1.07031l2.44921-.14062m11.50781-.67969l-3.36718 6.16406m3.36718-6.16406l2.45313.02735m-2.9414.86718l2.45312.02735m11.44922-.86719l-3.56641 6.05469m3.5664-6.05469l2.45313.10938m-2.97265.77343l2.45312.10547m11.76172-.73047l-4.32422 5.53906m4.32422-5.53906l2.41406.42578m-3.04297.37891l2.41407.42578m12.02343-.76172l-5.3125 4.60156m5.3125-4.60156l2.28907.88281m-3.0625-.21484l1.14453.4414m7.23437-.54687l6.10547 3.47656m-6.10547-3.47656l.07031-2.45312m12.81641 4.67578l6.96094-.96875m-5.94531.82812l-.72266-.99218m15.03906-2.54688l2.92578 6.39063m-2.5-5.46094l.7461-.97266m10.09765 3.4336l7.01953-.39063m-5.99609.33594l-.63672-1.05078m16.35547 4.42187l.16797-7.02344m-.14453 6l-1.09766.55079m16.40235-.10547l-3.85938-5.8711m3.85938 5.8711l-1.17579 2.15625m14.96875-2.53125l-4.8164-5.11719m4.11328 4.3711l-.39453 1.16406m14.67969-5.25391l-5.35157 4.55469m4.57422-3.89063l1.14063.44922m13.26562-.6875l-5.97656 3.69922"/><g clip-path="url(#T)"><path fill="none" stroke="#000" stroke-linecap="round" stroke-linejoin="round" stroke-miterlimit="10" stroke-width=".5" d="M466.55078 371.95703l2.11719 1.23828"/></g><path fill="none" stroke="#000" stroke-linecap="round" stroke-linejoin="round" stroke-miterlimit="10" stroke-width=".5" d="M465.67969 372.4961l1.0586.61718"/><g clip-path="url(#U)"><path fill="none" stroke="#000" stroke-linecap="round" stroke-linejoin="round" stroke-miterlimit="10" stroke-width=".5" d="M140.8711 358.89844l6.2578 3.1914"/></g><path fill="none" stroke="#000" stroke-linecap="round" stroke-linejoin="round" stroke-miterlimit="10" stroke-width=".5" d="M153.80078 360.45313l7.02734.07812m-6.0039-.0664l-.5625-1.08985m12.85547 1.1914l7.02734-.14452m-6.0039.12109l-.59766-1.07031m18.11328-2.04688l-3.42188 6.13672m18.08204-4.80469l-6.10938 3.47266m5.21875-2.96875l1.03516.65625m13.21484-1.07813l-6.19922 3.3086m6.19922-3.3086l2.03516 1.3711m-2.9375-.89063l1.01953.6836m10.67187 3.95703l-1.14843-6.9336m1.14843 6.9336l-1.94922 1.48828m1.78125-2.5l-.97656.7461m15.11719.08984l-2.46484-6.58204m2.46484 6.58204l-1.625 1.83593m15.6289-2.1875l-3.84374-5.8828m3.84375 5.8828l-1.1836 2.14844m14.28516-2.01953l-3.41406-6.14063m2.91796 5.25l-.66796 1.02735m16.125-2.16016l-6.70703-2.08984m5.73046 1.78515l.23047 1.20704m11.01172-5.44922l-.60547 7m.60547-7l2.25781-.96094m-2.34765 1.98047l2.25781-.96094m-2.34375 1.98047l1.1289-.48047m12.8125-1.48828l-1.5078 6.86328m1.5078-6.86328l2.36329-.66016m-2.58203 1.65625l1.17968-.32812m13.60938-.11719l-4.01953 5.76172m4.01953-5.76172l2.4375.29297m-3.01953.54297l2.4336.29687m10.625-1.5664l-2.33985 6.625m2.33984-6.625l2.42578-.36328m-2.76953 1.32812l2.42969-.36719m10.98047-.67578l-1.84375 6.78125m1.84375-6.78125l2.39453-.54297m12.07031 1.09766l-4.14453 5.67578m4.14453-5.67578l2.42969.34766m-3.03125.47656l2.42578.34765m10.8125-1.55859l-2.78906 6.44922m2.78906-6.44922l2.44531-.19922m12.75 2.14844l-6.54687 2.55078m6.54687-2.55078l1.85938 1.60156m11.67578.02344l-6.98828-.70313m5.97265.60157l.46485 1.13672m11.97656 1.74218l-3.20703-6.2539m2.73828 5.34375l-.69922 1.0039m14.08203.07813l-2.41015-6.60156m2.0625 5.64062l-.82032.91406m15.07422-.23437l-3.58984-6.03906m3.0664 5.16015l-.63671 1.05078m13.9414.08985l-2.52344-6.5586m2.15625 5.60157l-.80078.92968m16.23047-5.0703l-6.01562 3.6328"/><g clip-path="url(#V)"><path fill="none" stroke="#000" stroke-linecap="round" stroke-linejoin="round" stroke-miterlimit="10" stroke-width=".5" d="M466.57031 358.67578l2.10547 1.25781"/></g><g clip-path="url(#W)"><path fill="none" stroke="#000" stroke-linecap="round" stroke-linejoin="round" stroke-miterlimit="10" stroke-width=".5" d="M140.72656 345.89844l6.54688 2.5586"/></g><path fill="none" stroke="#000" stroke-linecap="round" stroke-linejoin="round" stroke-miterlimit="10" stroke-width=".5" d="M153.90234 346.35156l6.82813 1.65625m-6.82813-1.65625l-.60937-2.3789m13.88672 3.86328l6.90234-1.3164m-6.90234 1.3164l-1.53906-1.91016m14.87109 2l6.86719-1.4961m-5.8672 1.27735l-.79296-.9375m17.5625.41016l-.01953-.19922-.0586-.19531-.09375-.17579-.45703-.375-.1914-.05859-.19922-.01953-.19922.01953-.19531.0586-.45703.375-.09375.17578-.0586.1953-.01953.19923.01953.19922.0586.1914.09375.17578.45703.375.19531.0586.19922.01953.19922-.01953.1914-.0586.45703-.375.09375-.17578.0586-.1914.01953-.19922m15.69922-.86719l-6.8125 1.73047m5.82031-1.47656l.82813.90625m13.58593-.3672l-7.02343.14454m7.02343-.14453l1.19532 2.14453m-2.21485-2.1211l.59766 1.07032m10.54687 2.47656l-.64062-6.9961m.54687 5.98048l-1.02734.67187m13.66797.33203l.89453-6.97265m-.76563 5.95703l-1.14843.4336m15.04687.59765l-.53125-7.0039m.45313 5.98827l-1.03516.65235m17.65235-3.5547l-6.98047.83204m5.96484-.71094l.69922 1.00781m7.6211-3.16015l5.03905 4.89453m-5.03906-4.89453l.6836-2.35938m13.72265 1.59766l2.85938 6.41797m-2.85938-6.41797l1.50781-1.9336m-1.09375 2.8672l.75782-.96485m14.46093-.16016l-1.77734 6.80079m1.77734-6.80079l2.39063-.5625m-2.64844 1.5547l1.19531-.28517m12.06641-.77343l-1.15625 6.9336m1.15625-6.9336l2.32813-.77735m-2.4961 1.78907l1.16406-.39063m10.57422-.46875l2.33594 6.6289m-2.33594-6.6289l1.66016-1.80469m-1.32031 2.76954l.83203-.90235m12.88281-.23437l.85547 6.97265m-.85547-6.97265l2.00781-1.41016m-1.8828 2.42578l1.0039-.70703m13.70703-.16016l-2.1875 6.67579m2.1875-6.67579l2.41797-.42187m-2.73438 1.39062l1.20703-.20703m13.39453-.26953l-4.125 5.6914m18.19532-4.9414l-5.63672 4.1914m18.9375-4.21484L407.5 349.29688m4.78906-3.6211l1.11328.51563m8.29688 3.92968l3.83594-5.88671m-3.83594 5.88671l-2.44531-.21484m16.48437.57813l2.38672-6.60938m-2.03906 5.64453l-1.21485.17578m15.71094.98047l-.66797-6.9961m.57031 5.97657l-1.02343.67969m17.41406-1.99219l-6.6289-2.33203m5.66406 1.99219l.1875 1.21484"/><g clip-path="url(#X)"><path fill="none" stroke="#000" stroke-linecap="round" stroke-linejoin="round" stroke-miterlimit="10" stroke-width=".5" d="M140.67969 332.71094l6.64062 2.30078"/></g><path fill="none" stroke="#000" stroke-linecap="round" stroke-linejoin="round" stroke-miterlimit="10" stroke-width=".5" d="M153.8164 333.5586l7 .60937m-7-.60938l-.96093-2.2578m1.97656 2.34765l-.48047-1.1289m12.77344 1.58983l7.01172-.49218m-7.01172.49219l-1.30078-2.08204m14.6875 2.58594l6.86719-1.5039m-6.8672 1.5039l-1.58593-1.86719m2.58594 1.64844l-.79297-.9336m13.03125.25391l7.01953.29688m-7.01953-.29688L192.6914 331.5m14.37891 2.61328l7.00781-.5m-5.98828.42969l-.65234-1.03906m19.7539-.34766l-6.60156 2.41406m5.64063-2.0625l.91406.8164m13.52344-.5625l-6.92578 1.20313m5.91797-1.02734l.7539.96875m13.61328-.73438l-7.01562.37891m5.9961-.32031l.6328 1.04687m13.19141.91797l-5.99219-3.66797m5.1211 3.13672l-.07422 1.22266m14.60156-1.42188l-6.67578-2.20312m15.9961-2.35156l1.3125 6.90625M290 331.41406l.95703-.76562m10.10547.98828l5.4375 4.45312m-5.4375-4.45312l.48047-2.40625m13.85156 1.5586l3.40235 6.14843m-3.40235-6.14844l1.33985-2.0586m-.84375 2.95313l.66796-1.02734m12.36329.02344l2.98046 6.36719m-2.98046-6.3672l1.47265-1.96093m11.66406 2.05078l3.33594 6.1875m-3.33594-6.1875l1.35938-2.04297m11.1211 2.66797l5.0039 4.9375m-5.0039-4.9375l.70312-2.35156m.02734 3.07031l.35156-1.17578m12.9375-.09375l3.59766 6.03906m-3.59766-6.03906l1.26954-2.09766m-.7461 2.97657l.63281-1.05079m16.67188.96094l-5.42969 4.46094m4.64063-3.8125l1.1289.47266m8.92578-2.14063l2.66797 6.5m-2.27734-5.55469l.78125-.9453M408 331.20702l4.60547 5.3086m-3.9375-4.53516l.4414-1.14453m14.58985 6.53906l-.16797-7.02344m12.22266 6.82031l2.35547-6.61718m-2.01563 5.65625l-1.21094.17969m15.6836.97265l-.63672-7m.63672 7l-2.0547 1.34375m17.07423-1.97265l-4.05078-5.7422M465 335.89845l-.55469 1.09375"/><g clip-path="url(#Y)"><path fill="none" stroke="#000" stroke-linecap="round" stroke-linejoin="round" stroke-miterlimit="10" stroke-width=".5" d="M141.90234 317.72656l4.19532 5.64063"/></g><path fill="none" stroke="#000" stroke-linecap="round" stroke-linejoin="round" stroke-miterlimit="10" stroke-width=".5" d="M153.82813 320.11328l6.97265.8711m-6.97266-.8711l-.875-2.29297m14.1836 3.1211l6.98437-.78516m-6.98437.78516l-1.38281-2.02735m14.75 2.34766l6.8828-1.42578m-6.8828 1.42578l-1.56641-1.89063m14.85547 1.7422l6.9336-1.13282m-6.9336 1.13281l-1.48828-1.94922m2.4961 1.78516l-.7422-.97656m13.0547-.02735l6.92187 1.20313m-6.92188-1.20313l-.76562-2.32812m14.42578 1.3125l6.23437 3.23828m-6.23437-3.23828l-.02344-2.45313m15.51953.6836l1.8711 6.77343m-1.59766-5.78515l.89062-.84375m16.25391 1.72265l-6.33594 3.04297m5.41406-2.60156l.98829.72656m13.5703-.05469l-6.97655.81641m5.96093-.69922l.69922 1.00781m12.41016-3.40234l-4.53516 5.3711m3.875-4.58985l1.19922.25781m9.1836-1.60937l2.64843 6.50781m-2.26172-5.5586l.78516-.9453m11.6211.26171l3.6953 5.97657m-3.16015-5.10547l.6211-1.0586m12.21484.15235l3.58203 6.04687m-3.58203-6.04687l1.27734-2.09375m11.82813 2.23047l4.0039 5.77343m-4.0039-5.77343l1.12109-2.1797m11.76953 2.52345l4.85156 5.08593m-4.85156-5.08593l.77344-2.32813m-.0664 3.07031l.38671-1.16406m11.625 1.17578l6.04297 3.58203m-6.04297-3.58203l.11328-2.45312m.76563 2.97265l.05468-1.22265m12.4375.60547l5.9297 3.77343m-5.9297-3.77343l.19141-2.44532m13.75781 1.70313l4.66407 5.25781m-3.98438-4.49219l.42578-1.14843m12.91406-.10157l3.25391 6.22657m-2.78125-5.32032l.6914-1.01171m11.85548.28125l3.84765 5.8789m-3.28906-5.02344l.58984-1.07812m12.1172.2539l3.9453 5.81641m-3.37109-4.96875l.57031-1.08594m13.01953 6.47657l2.2461-6.66016m-1.91797 5.6914l-1.21094.19923m16.26563.82421l-1.88672-6.76953m1.88672 6.76953l-1.78125 1.69141m15.9453-2.05469l-3.58593-6.04297m3.58594 6.04297l-1.27735 2.09375"/><path fill="#00f" fill-rule="evenodd" d="M286.15625 472.08594h8.61719V461.9414h-8.61719v10.14453"/><path fill="azure" fill-rule="evenodd" d="M287.98828 463.77344h.83594v2.82422h3.28515v-2.82422h.83204v6.48047h-.83204v-2.91797h-3.28515v2.91797h-.83594v-6.48047"/><path fill="#00f" fill-rule="evenodd" d="M215.14453 467.64844h8.61719V457.5039h-8.61719v10.14453"/><path fill="azure" fill-rule="evenodd" d="M216.97656 459.33594h.83203v2.82422h3.28516v-2.82422h.83594v6.48047h-.83594v-2.91797h-3.28516v2.91797h-.83203v-6.48047"/><path fill="#00f" fill-rule="evenodd" d="M383.80078 441.01953h8.61719V430.8711h-8.61719v10.14844"/><path fill="azure" fill-rule="evenodd" d="M385.63281 432.70703h.83203v2.82031h3.28907v-2.8203h.83203v6.47655h-.83203v-2.91406h-3.28907v2.91406h-.83203v-6.47656"/><path fill="#ff3030" fill-rule="evenodd" d="M211.39844 432.14063h7.6914v-10.14454h-7.6914v10.14454"/><path fill="azure" fill-rule="evenodd" d="M213.23047 423.82813h.83594v5.73828h3.1914v.74218h-4.02734v-6.48046"/><path fill="#00f" fill-rule="evenodd" d="M241.77344 423.26563h8.61719v-10.14844h-8.6172v10.14844"/><path fill="azure" fill-rule="evenodd" d="M243.60547 414.95313h.83203v2.8203h3.28906v-2.8203h.83203v6.48046h-.83203v-2.91796h-3.28906v2.91796h-.83203v-6.48046"/><path fill="#ff3030" fill-rule="evenodd" d="M317.91797 374.4414h7.69531v-10.14452h-7.69531v10.14453"/><path fill="azure" fill-rule="evenodd" d="M319.7539 366.1289h.83204v5.7422h3.1914v.73827h-4.02343v-6.48046"/><path fill="#ff3030" fill-rule="evenodd" d="M424.4414 374.4414h7.69141v-10.14452h-7.6914v10.14453"/><path fill="azure" fill-rule="evenodd" d="M426.27344 366.1289h.83203v5.7422h3.19531v.73827h-4.02734v-6.48046"/><path fill="#ff3030" fill-rule="evenodd" d="M202.52344 365.5664h7.6914v-10.14452h-7.6914v10.14453"/><path fill="azure" fill-rule="evenodd" d="M204.35547 357.2539h.83203v5.73829h3.19531v.74219h-4.02734v-6.48047"/><path fill="#ffffe0" fill-rule="evenodd" d="M417.19531 412.19922H439.375V402.0039h-22.17969v10.1953"/><path fill-rule="evenodd" d="M420.69531 403.83984h.50781v6.29297h-.78515v-4.48828h-1.39063v-.55469l.5625-.0664.25-.05469.23047-.08984.20313-.14063.17578-.21094.14062-.29296.10547-.39454m4.8125 0l.23047.01954.21875.05468.20703.08985.19922.12109.1836.14844.17187.17578.30078.41797.24219.4961.17969.54687.11328.57812.03906.58985-.03906.59375-.11328.58593-.1797.55078-.24218.50391-.30078.42578-.17188.17969-.18359.15625-.19922.1211-.20703.09374-.21875.05469-.23047.01953-.22656-.01953-.21875-.05469-.21094-.09375-.19531-.1211-.1836-.15624-.17187-.17969L424 409.3125l-.2461-.5039-.17968-.55079-.10938-.58594-.03906-.59375h.83203l.03125.5625.08203.50782.125.4414.16407.375.1875.30079.21093.22265.22266.13672.22656.04688.22656-.04688.22266-.13672.21094-.22265.1914-.30079.16407-.375.125-.4414.08203-.50781.02734-.5625-.02734-.5625-.08203-.5-.125-.4336-.16406-.36719-.19141-.29296-.21094-.21094-.22265-.13281-.22657-.04688-.22656.04688-.22266.1328-.21093.21094-.1875.29297-.16407.3672-.125.43358-.08203.5-.03125.5625h-.83203l.03906-.58984.10938-.57812.17969-.54688.24609-.4961.30078-.41796.17188-.17578.18359-.14844.19531-.1211.21094-.08984.21875-.05469.22656-.01953m4.95313 0l.23047.01954.21875.05468.20703.08985.19531.12109.1875.14844.16797.17578.30469.41797.24218.4961.1797.54687.11327.57812.03516.58985-.03516.59375-.11328.58593-.17969.55078-.24218.50391-.3047.42578-.16796.17969-.1875.15625-.19531.1211-.20703.09374-.21875.05469-.23047.01953-.23047-.01953-.21875-.05469-.20703-.09375-.19531-.1211-.1836-.15624-.17187-.17969-.30079-.42578-.24609-.5039-.17969-.55079-.10937-.58594-.03906-.59375h.83203l.03125.5625.08203.50782.125.4414.16015.375.19141.30079.21094.22265.22265.13672.22657.04688.22656-.04688.22266-.13672.21093-.22265.19141-.30079.16406-.375.125-.4414.08203-.50781.02735-.5625-.02735-.5625-.08203-.5-.125-.4336-.16406-.36719-.1914-.29296-.21094-.21094-.22266-.13281-.22656-.04688-.22656.04688-.22266.1328-.21094.21094-.1914.29297-.16016.3672-.125.43358-.08203.5-.03125.5625h-.83203l.03906-.58984.10937-.57812.1797-.54688.24608-.4961.30079-.41796.17187-.17578.1836-.14844.1953-.1211.20704-.08984.21875-.05469.23047-.01953m4.95312 0l.38672.02735.35938.08203.32421.13672.27735.1875.23047.23828.17187.28515.10938.33204.03906.375-.01953.27343-.0586.23829-.08984.19921-.10937.16797-.12891.14453-.14063.125-.28515.19532.23047.11718.20703.14844.1836.17188.15234.1914.125.21485.08984.23046.05469.2422.01953.2578-.03516.3086-.10156.32812-.17188.32422-.24218.30469-.30469.26953-.375.21485-.21094.08203-.22656.05859-.2461.03906-.26171.01172-.25781-.01172-.2422-.03906-.22265-.0586-.20703-.08202-.35938-.21485-.28906-.26953-.22265-.30469-.15625-.32422-.09375-.32812-.03125-.3086h.83203l.02734.25391.07813.23438.12109.21093.16406.1836.1914.15234.21876.11719.24219.07031.2539.02735.2539-.02735.2422-.07031.21875-.11719.1953-.15234.16017-.1836.12109-.21093.07812-.23438.02735-.2539-.02735-.25391-.07812-.23438-.1211-.21484-.16015-.1836-.19531-.15234-.21875-.11328-.2422-.07422-.2539-.02344-.2539.02344-.2422.07422-.21874.11328-.1914.15235-.16407.18359-.1211.21484-.07812.23438-.02734.2539h-.83203l.01953-.2539.05469-.23828.08984-.22656.125-.20704.15234-.1914.1836-.17188.20703-.15234.23437-.13281-.28906-.19532-.14063-.125-.1289-.14453-.10938-.16797-.08984-.19921-.05469-.23829-.02344-.27343h.78907l.02344.21484.0625.1914.10546.16798.13672.13671.16406.11329.19141.08203.20703.05078.21875.01562.22266-.01562.20312-.05078.19141-.08204.16406-.11328.13672-.13671.10547-.16797.0664-.19141.01954-.21484-.01953-.21485-.06641-.1914-.10547-.16407-.13672-.14062-.16406-.10938-.1914-.08203-.20313-.05078-.22266-.01953-.21875.01953-.20703.05078-.1914.08203-.16407.10938-.13672.14062-.10546.16407-.0625.1914-.02344.21485h-.78906l.03906-.375.10937-.33204.17188-.28515.23047-.23828.28125-.1875.3203-.13672.35938-.08203.38672-.02735"/></g></defs><use xlink:href="#Z"/></svg>