<svg xmlns="http://www.w3.org/2000/svg" role="img" xmlns:xlink="http://www.w3.org/1999/xlink" viewBox="142.45 309.95 326.84 171.84"><defs><clipPath id="a"><path d="M144 311.67188h1v168.65625h-1zm0 0"/></clipPath><clipPath id="b"><path d="M144 311.67188h324v168.65625H144zm0 0"/></clipPath><clipPath id="c"><path d="M467 311.67188h1v168.65625h-1zm0 0"/></clipPath><clipPath id="d"><path d="M144 479h4v1.32813h-4zm0 0"/></clipPath><clipPath id="e"><path d="M147 480h2v.32813h-2zm0 0"/></clipPath><clipPath id="f"><path d="M153 480h9v.32813h-9zm0 0"/></clipPath><clipPath id="g"><path d="M160 480h3v.32813h-3zm0 0"/></clipPath><clipPath id="h"><path d="M166 479h9v1.32813h-9zm0 0"/></clipPath><clipPath id="i"><path d="M172 480h2v.32813h-2zm0 0"/></clipPath><clipPath id="j"><path d="M180 479h8v1.32813h-8zm0 0"/></clipPath><clipPath id="k"><path d="M186 480h2v.32813h-2zm0 0"/></clipPath><clipPath id="l"><path d="M193 479h8v1.32813h-8zm0 0"/></clipPath><clipPath id="m"><path d="M199 480h2v.32813h-2zm0 0"/></clipPath><clipPath id="n"><path d="M206 479h9v1.32813h-9zm0 0"/></clipPath><clipPath id="o"><path d="M212 480h2v.32813h-2zm0 0"/></clipPath><clipPath id="p"><path d="M220 480h8v.32813h-8zm0 0"/></clipPath><clipPath id="q"><path d="M226 480h2v.32813h-2zm0 0"/></clipPath><clipPath id="r"><path d="M233 479h8v1.32813h-8zm0 0"/></clipPath><clipPath id="s"><path d="M239 480h2v.32813h-2zm0 0"/></clipPath><clipPath id="t"><path d="M247 477h7v3.32813h-7zm0 0"/></clipPath><clipPath id="u"><path d="M261 476h5v4.32813h-5zm0 0"/></clipPath><clipPath id="v"><path d="M274 477h6v3.32813h-6zm0 0"/></clipPath><clipPath id="w"><path d="M287 477h7v3.32813h-7zm0 0"/></clipPath><clipPath id="x"><path d="M301 477h5v3.32813h-5zm0 0"/></clipPath><clipPath id="y"><path d="M315 476h4v4.32813h-4zm0 0"/></clipPath><clipPath id="z"><path d="M329 476h3v4.32813h-3zm0 0"/></clipPath><clipPath id="A"><path d="M343 476h2v4.32813h-2zm0 0"/></clipPath><clipPath id="B"><path d="M356 476h2v4.32813h-2zm0 0"/></clipPath><clipPath id="C"><path d="M369 476h2v4.32813h-2zm0 0"/></clipPath><clipPath id="D"><path d="M382 476h3v4.32813h-3zm0 0"/></clipPath><clipPath id="E"><path d="M394 477h6v3.32813h-6zm0 0"/></clipPath><clipPath id="F"><path d="M406 478h8v2.32813h-8zm0 0"/></clipPath><clipPath id="G"><path d="M421 477h6v3.32813h-6zm0 0"/></clipPath><clipPath id="H"><path d="M434 477h6v3.32813h-6zm0 0"/></clipPath><clipPath id="I"><path d="M446 478h8v2.32813h-8zm0 0"/></clipPath><clipPath id="J"><path d="M462 476h3v4.32813h-3zm0 0"/></clipPath><clipPath id="K"><path d="M144 466h4v2h-4zm0 0"/></clipPath><clipPath id="L"><path d="M144 452h4v4h-4zm0 0"/></clipPath><clipPath id="M"><path d="M144 438h4v4h-4zm0 0"/></clipPath><clipPath id="N"><path d="M144 425h4v4h-4zm0 0"/></clipPath><clipPath id="O"><path d="M144 411h4v5h-4zm0 0"/></clipPath><clipPath id="P"><path d="M144 398h4v5h-4zm0 0"/></clipPath><clipPath id="Q"><path d="M465 397h3v2h-3zm0 0"/></clipPath><clipPath id="R"><path d="M144 385h4v5h-4zm0 0"/></clipPath><clipPath id="S"><path d="M144 370h1v8h-1zm0 0"/></clipPath><clipPath id="T"><path d="M465 370h3v2h-3zm0 0"/></clipPath><clipPath id="U"><path d="M144 358h4v5h-4zm0 0"/></clipPath><clipPath id="V"><path d="M465 357h3v3h-3zm0 0"/></clipPath><clipPath id="W"><path d="M144 345h4v5h-4zm0 0"/></clipPath><clipPath id="X"><path d="M466 346h2v3h-2zm0 0"/></clipPath><clipPath id="Y"><path d="M144 332h4v4h-4zm0 0"/></clipPath><clipPath id="Z"><path d="M144 317h3v7h-3zm0 0"/></clipPath><g id="aa" clip-path="url(#clip1)"><path fill="#fff" fill-opacity="0" fill-rule="evenodd" d="M0 0h1000v1000H0zm0 0"/><path fill="#d3d3d3" fill-opacity="0" fill-rule="evenodd" d="M162.15234 355.86719l-.23437.29297.0586.23437.11718.17188.17578.23437.29297.34766.11328.0586.11719-.17188.0586-.23438.17577-.17578.46485-.17578h.69922l.23437.29297.28906.8164.0586.17579.17578.23046.35156.23438.69922.69922.17188.17578.23437.34765.23438.41016.28906.58203.41015.46485.23047.23437.23438.17578.11719.23047.17578.29297.17187 1.16406v.23438l.0586.28906.05859.11719.11719.11719.34765.41015.11719.17188.17578.17578.17578.23437.11719.17188.17188.35156.05859.23438.23437.40625.23438-.0586-.17578.17578-.0586.92969h-.58203l-.23437-.11328-.34766.11328-.11719.11719-.05859.29297-.0586.17578-.11718.17187-.46484.29297-.0586.23438-.0586.11328v.64453l.0586.17187v.41016l.0586.0586v.40624l.05859.40625.11719.17579.05859.05859.23047.64062-.0586.29297v.69922l-.05859.58203v.23438l-.0586.23047-.05468.35156v1.92187l.05469.1172h.42578l-.36719.11718-.02344.35156.89063 1.16797 1.74219.53906 1.33984.35938v.53906l.08984.8086.53516.71484 1.51953.26953.89063-.08594.08984 1.16406.53516.1797 1.16015-.1797 2.05469-.98437 1.16016-.36328 1.8789-.17578 1.69531-.1797-.17968.71876-1.51563.08594-1.25.08984-.80469.26953-1.07421.8086.26953.71875.53515.89843-.17968.625-.26563.8086.26563 1.07812.625.89844.80468.17969 1.25-.1797-.26562.72267.09766.5039.05468.29297v.17188l.0586.29296v.40625l.17578.1172.35156.11718h.40625l.29297-.17578.11328-.11719.0586-.11719.11718-.23047.0586-.17578.35156-.46484.23047-.17578.17578-.0586.17578.0586.0586.17578.11718.98828.05469.46875.0586.17188.11718.23437.17578.0586.8164.05859h.28907l.11719.23437.05859.40625.0586.35156v1.10547l.11718.29297.11719.34766.28906.69922.17578.35156.58203.7539.35157.17579.17187.0586.46875.23437.64063.46484.34765.23438.29297.17578.29297.05468.23047.0625.8164.34766.29297.17578.11328.17188.35157.35156.11719.17578.52343.64063v.28906l.0586.35156v.34766l.05859.35156.0586.28906.11718.0586.17188.05859h.17578l.58203.23437.17578.1172.17578.28905.17578.23438.11328.23437.29297.23047.11719.11719v.41016l.0586.05468.28906.23438.23437.11719.0586.11718.11718.17188.0586.11719.23047.23437.05859.17578.23437.0586.1172.05859-.1172.11328-.05859.11719v.11719l-.11719.29296-.11719.28907v.58203l.17579.11719.11718.05859.0586.11719.11719.11719.11328.05859.17578.34765.0586.35157.05858.40625v.17578l-.05859.17578-.11719.69922v.17187l.1172.17579.29296.29296h.40625l.17578.1172.11719.17187.11719.29296v.23438h-.52735l-.23047-.23438h-.23437l-.17578.0586-.0586.69922.0586.34765.11719.17579.17578.41015.11718.23047.28907.46875.17578.05469h.52344l.23437.0586.75781.64062.0586.29296v.23438l.05859.0586.23047.34765v.35156l-.11719.17188v.29297l.29297.28906.29297.17578.17187.0586.29297.17577.29297.1172.58203.40624.28906.23438.29297.17578.21875.16015.01563.01172.23047.17579.64062.52343.17578.23438.1172.17578.17577.17578.11328.17188v.64062l.1172.17578.46874.11719.58203.11719.23438.05859.23047.11328.29297.11719.11328.0586.58593.35156.28907.17187.17578.0625.17578.05469.17578.0586.69922.35155.28906.17579.23438.05468.28906.17578.23437.1172.64063.40624.29297.11719.17187.0586.23438.05859.41015.05859.23047.0586.23438.11718.0586.17188-.41017.17578.46875.0586.0586.29296.11328.23438.17578.05468.23438.0586.17578.05859.40625.11719.64062.23437.11719.17188.0586.23437v.17578l-.0586.1172-.0586.40624.23438.23438.11719.05859.34766.11719.64062.23047.17578.11718.28906.1172.17578.17577.23438.46485.58203 1.10546.17578.17579.34766.17578.17578.11719.35156.11718 1.04688.52344.23437.0586.46485.11327.29297.0586.46484.17578.75781.58203.23438.23438.34765.46484.17578.17578.28907.23438.8164.69921.29297.17579.28906.28906.29297.17578.29297.28906.69531.64063.17578.17578.29297.23437.28907.23438.46875.28906.64062.58203.34766.23438.23437.29297.34766.34765.35156.46485.9336.99218.34765.40625.11719.17579.23437.05859.11328.11719.64454.17578.23047.11328.23437.0586.29297.17577.23047.1172.9336.69921.40624.40625.23438.17578.40625.17578.23437.11719.8164.34766.34766.23437.23438.11719.29297.28906.23047.11719.7578.35156.35157.17188.23047.05859.29297.11719.23437.0586.8711.17577h.8164l.46875.23047.17188.0586.875.69921.46484.1172.29297.05858.17578.0586.23047.0586.46875.05859.34766.05859.35156.0586.40625.05859h.29297l.17187.0586v.23046l.17578.17578h.29297l.34766.0586.35156.05859.69922.11719h.64063l.46484-.23438.29297-.17578.17187-.11719.41016-.17187.28906-.17578.9336-.46485.46875-.29297.52343-.29296.46485-.17188.46484-.17578 1.05078-.46485.28906-.11718.41016-.11719.28906-.11719.52735-.17578 1.51562-.69922.58203-.34765.28907-.0586.29297-.0586.34765-.11718.875-.23047.35156-.11719h.11329l.23437-.05859.875-.23437.23438-.0586h.8125l.35156-.0586.8164-.11718.17188-.0586.35156-.05468.29297-.0586.23047-.05859.8164-.17578.17579-.0586h.34765l.23438-.05859.46484-.11718.75781-.17188.23438-.0586h.34765l.41016-.11718.28906-.0586 1.28516-.05859h.28906l.41016-.0586.23047-.05858h.17578l.875-.1172h.40625l.41015-.11718h.34766l.35156-.11328.8711-.0586h1.75l1.04687.28907.41016.11719.28906.11718.35156.11719.28907.11719 1.05078.17187.28906.0586h.29297l.29297.05859.17187.0586.41016.05859.17187.0586.1172.05858h.11718l.11719.0586.35156.0586h.11328l.41016.0664 1.92187.39453 1.92578.39453 1.51953.44922 1.69532.71875 2.14453.80469 1.60547-.71875 1.42968-.80469 1.16016-1.07813 1.25-.44921 3.03516-.71875 1.875-.35938 2.14453-1.34765 2.23437-1.25391 2.5-1.25781 1.69531-.44922 1.78516-.17969 1.16016-.26953.625.53906 1.33984-.26953.71485-.98828.98437-1.34375.44531-.17969.80469-.35937 1.875-.53907 1.78516-.44921 1.25-.26954 1.16015-.08984 1.69922-.08984 1.96094-.26954 1.25-.08984h.53906l.625-.08984h.89063l2.14453-.17969 2.41015-.17969 2.58985-.08984 1.69531.17969 1.60938.08984 1.42968.35938 1.16016.71875 1.875.98828 1.16015 1.52734.26563.71484.6289.08985.35548.89844.53515.53906.53516 1.52734 1.07422.35938h.53515l-.80469.53515.08985 1.70703.71484 2.69532.89063.80468.89453.98829.71484 1.2578 1.78516.53907 1.51953-.17969.35547 1.34375 1.60937-.80469.98047-.53906.26953.26953.31641-.21484.21875-.14453.80078.44922.44922-.35938h.35547l.53515-.26953.53907-.71875.53515-.26953.625-.98828 1.16016.44922.83984.3711 1.39454.61718 1.6953-.17969h1.60548l1.78515.08985.17969-1.70704.53516-1.34375.80468.26954.4922.84765.40233.40625-.08984.53906v.35938l.71485.44922.71093-.26953h1.42969l.35938.98828.4453 1.25781.71485 1.34375 1.25.6289 1.69531.62891.71485-.17969.17969-.53906.98046-.08984.44922.35937.08594 1.25782-.26563.6289-.53515.17969v.53906l.71484.98438.26563.53906.98437.98828.80078 1.07813-.26562.35937-.08985.89844-.625 2.33203-.35546 2.0664-.08985 1.79298-.17969.71875-.08984.53906v1.4375l-.98047 1.88281-.35937 1.70703-.53516.89844-.80469 1.16797-.26562.53906 2.05469 1.2539.08593.35938-.35546.53906-.08985-.17968v.80859l.08985 1.4375-.44532.71484-1.07422.09375-.26562.71485.53515.89844.8047.71875 1.16015.80859 1.33984.26953.44531.35938-.35546.44921-1.78907-.08984-1.25-.44922-.71484-.71875-.625-.08984-.17578 3.58984-.1875 1.3086h89.35937V311.70313h-55.26953v49.08203l.76172.125 3.28906.54296 2.02344 2.83594v2.7539l2.35156.33204 2.34766.33203h4.05078l-1.3789 4.16016-2.02344.70703-2.02344.70312-.54297.34375-2.59375 1.6172-.1875.11718-2.02344-2.07813-.73046-2.74218-2.67188-2.07813-1.375-3.5-.0664-.08203-1.95704-2.67188 2.75-1.41796v-49.08204H294.42187v91.41407l.1172.03125.1328.01172.07422.07421.10547.04688.08985.0586.08593.05859.08985.0586.29687.29687.0586.08984.03125.11719.02734.11719.01563.13671-.03125.1172-.0586.08983-.0586.08594-.04296.10547-.04688.10156-.02734.1211v.14453l.17578.26953.14844.14844.07422.08594.07422.07421.04296.10547.0625.08985.0586.08593.04297.10547.0586.08985.04687.10156.04296.10547.0586.08594.11719.17968.07421.07422.0625.08594.0586.08984.04297.10547.0586.08985.05858.08593.0625.08985.0586.08984.04297.10156.11719.17969.07421.07422.0586.08594.07422.07421.08984.0586.10547.04687h.14844l.1328-.01562.13282.01562.10156-.04687.07422-.07422.04688-.10156-.01563-.13281v-.14844l-.04687-.10547-.02735-.11719-.04687-.10156-.02735-.1211-.04296-.10156-.0625-.08984-.04297-.10156-.04297-.10547-.03125-.11719-.01563-.13281-.01171-.13672.08593-.0586.0586-.08593.12109-.03125.04297.10547.01562.1328v.1172l.0586.10156.0586.08984.08983.0586.14844.14843.0586.08985.04296.10547-.01171.10156.08593.0586.10547.04687.08594.0586.08984.05858.07422.07422-.11719.02735-.10546.04687-.08594.0586-.07422.07421-.0586.08985-.0625.08594-.02734.12109-.04687.10156-.04297.10547-.03125.11719-.01172.13281-.01563.13281v.14844l.02735.11719.04687.10547.04297.10156.0586.08984.07421.07422.08985.0586.07422.07421.08984.0586.0586.08984.04296.10547.04688.10156.11719.03125.1328.01563h.14845l.11718-.03125.10547.04297.04297.10547.04688.10156.02734.1211L299.5 410l.02734.11719.03125.1211.02735.11718.10547.04297.10156.04687.13281-.01562.14844.14844.0625.08593.07422.07422.07031.07422.08984.0625.10547.04297.10156.04297.1172.03125.13671.01562.11719-.03125.07422-.07422.02734-.11718-.01172-.13282-.03125-.12109-.02734-.11719.04297-.10547h.11719l.08984.0625.11719.02735h.14843l.13282.01562h.14843l.13282.01563.1328-.01563h.14845l.1328-.01562.13282-.01172.13672.01172.11719-.02735.13281-.01562.1914-.0586-.05859.17579-.01562.1328-.02735.1211-.01562.13281-.0586.08594-.1328.01563-.10548.04687-.10546.04297-.1172.03125-.11718.02735-.26563.03125h-.14843l-.13281.01562-.07422.07422.05859.08594.14844.14843.11719.1797.07421.0703.08985.0625.08984.0586.08594.0586.08984.05858.10156.04297.10547.0625.10547.04297.08594.0586.10547.04687.10156.04297.17969.11719.0586.08984-.04298.10156-.04687.10547.01562.13281.22266.22266.0586.08985.04296.10156.03125.1211.04297.10155.01563.13282.03125.11718.01171.13672.03125.11719.14844.14844.10156.04297.10547.04296.1172.03125.1328.01563.13672.01563h.11719l.11719-.03125.08984-.0586.04297-.10547.04688-.10156.04296-.10547.03125-.11719.01172-.1328v-.14845l-.01172-.1328-.01562-.13282-.03125-.11719-.04297-.10547-.04688-.10547-.04296-.10156-.04297-.10547-.01563-.13281.01563-.13281.02734-.11719.03125-.11719.02735-.1211.04687-.10155.08984-.0586.08594-.0625.07422-.07422.08984-.05859.22266-.22266.0586-.08593.07421-.07422.11719-.17969.0586-.08594v-.14844l-.07423-.07421-.10156-.04688-.10547-.04297-.10156-.04297-.0586-.08984-.04687-.10547-.02734-.11719.08984-.05859.11719-.03125.10156-.04297.17969-.11719.14844-.14843.01172-.13282-.01172-.10546-.08985-.0586-.1328.01563h-.14845l-.1328.01562-.13282-.01562-.1211-.03125-.08593-.0586-.07422-.07422-.0586-.08984-.0625-.08594-.11718-.17969-.0586-.08593.03125-.1211.08594-.05859.1211-.03125.05859-.08594v-.1211l-.03125-.11718-.0586-.08984-.05859-.08594-.04687-.10547-.02735-.11719-.01562-.1328.0586-.08985.07421-.07422.08984-.0586.1172-.17968.07421-.07422.0586-.08594.14843-.14844.1211-.03125.1328-.01562.13282.01562.07422.07422.04297.10547.01562.13281-.03125.1172-.11719.03124-.1328.01172-.14844.14844-.04297.10547-.04688.10156-.02734.1211-.03125.11718v.14844l.03125.11719.04297.10546.05859.08985.07422.07031.07422.07422.11719.03125.12109.02734.11719-.02734.1328-.01563h.1172l.08984.0586.07422.07422.04687.10546.0586.08594.10156.04688.13281.01562.10547.04297.08594.0586-.01172.10546-.07422.07422-.17969.11719-.05859.08984-.08984.0586-.07032.07422-.07421.07421-.0625.08985-.02735.11719-.01562.1328.01562.13282-.01562.13281v.14844l.01562.13281.02735.1172.03125.12108.07421.07422.08985.0586.08594.0586.08984.05858.11719.03125v.08594l-.10157.04688-.08984.0586-.26563.03124-.11718.02735h-.14844l-.10547.04296-.10156.04688-.0586.08984-.0625.23438-.01171.13281-.03125.1211-.01563.1328v.29298l-.01172.1328.01172.13673.01563.1328.1328.01563.13282.01172.1211.03125.08593.0586.07422.07421.04688.10547.04296.10157.01563.1328v.44532l-.01563.13281v.44532l.03125.26562.02735.11719.01562.13281.03125.11719.08594.21094.03125.26562v.14844l-.03125.11719-.02734.11718-.03125.1211-.02735.11719-.03125.11718-.03125.1211-.01171.1328-.01563.13282.08984.0586.1172-.03125.10155.01562.04688.10547-.03125.26562v.44141l-.04297.10547-.04688.10547-.04296.10156-.04297.10547-.0586.08594-.03125.12109-.04296.11719-.03125.11719-.01563.1328.01563.13282.05859.08984.10547.04688.08594.0586.05859.08593-.01172.13672-.03125.11719-.04297.10156v.44531l-.01562.13281v.14844l-.03125.11719-.04297.10547-.02735.11719-.04687.10546-.04297.10157-.03125.12109-.02734.11719-.03125.13281-.03125.11719-.02735.11719-.04297.10546-.03125.1172-.03125.12108-.01171.13282-.01563.13281v.29688l.02734.11718v.14844l.04688.39844.02734.11719.0586.08984.12109.03125h.14844l.13281-.01563.0586.08985v.11719l-.0586.08984-.08984.0586-.10157.04296-.10546.04688-.08985.05859-.08594.0586-.13671.01562-.1172-.03125-.1328-.01563-.10157.04688-.0625.08594-.01172.13671-.01562.13282-.03125.11719-.02735.11718-.01562.13281-.03125.1211v.29687l.01563.13282.03125.11718v.14844l.01171.13281v.14844l-.02734.11719-.04688.10156-.02734.1211-.03125.11718-.0586.08985-.07421.07421-.10156.04297-.10547.04688-.11719.02734-.1211.03125-.10156-.04687.0586-.08594.10547-.04688.02734-.11718.03125-.11719.02734-.1211.03125-.11718v-.14844l.01563-.13281-.03125-.11719-.04297-.10547-.10547.01563-.07422.07422-.10156.04296-.08984.0625-.07422.07422-.04297.10157-.01563.1328-.03125.1172L304.25 426l-.03125.11719-.02734.11719-.03125.12109-.02735.11719-.03125.11718-.04297.10547-.08984.0586h-.08984l-.1172-.03125-.03124-.08594.01562-.13672-.03125-.11719v-.14844l-.01171-.1328v-.14844l-.0625-.23438-.02735-.1211-.04297-.10156-.04687-.10546-.0586-.08594-.05859-.08985-.04297-.10546-.0625-.08594-.14844-.14844-.0703-.07422-.10548-.04687-.10547-.04297-.10156-.04297-.29687-.29688-.08985-.07421-.08594-.0586-.10546-.04297-.08985-.0625-.08594-.0586-.10546-.04296-.08985-.0586-.08594-.0625-.07421-.0703-.10547-.04688-.08594-.0586-.10547-.04296-.08984-.0625-.10156-.04297-.10547-.04297-.08594-.0586-.10547-.04687-.10547-.04297-.10156-.04687-.08985-.0586-.10156-.04297-.10547-.04296-.08984-.0625-.11719-.02735-.13281-.01562-.13281.01562H299.75l-.13281.01563-.11719-.03125-.08984-.0586-.07422-.07422-.08985-.05859-.10156-.04688h-.14844l-.12109-.02734-.10156-.04297-.07422-.07422-.11719-.17968-.08984-.0586-.10156-.04297-.08985-.0625-.10547-.04296-.08984-.0586-.08594-.0586-.10547-.04687-.0586-.08594-.05858-.08984-.04297-.10547-.04688-.10156-.07422-.07422-.08594-.0586-.07421-.07421-.08985-.0586-.22265-.22265-.04297-.10547-.03125-.26563.10547-.04296h.14453l.10547.04296.07421.07422.08985.0586.08594.0586.10546.04687.08985.05859.14844.14844.0703.07422.14845.14843.0625.08594.07421.07422.08594.0586.07422.07421.08985.0625.08984.0586.08594.05859.26953.17578.10156.04688.10547.04296.10156.04297.04688-.07421.05859-.08594.07422-.07422.07031-.07422.10547.04297.07422.07422.0586.08984.04296.10156.04688.10547.04296.10547.1211.02735.11719-.02735.07421-.08984.04297-.10547.0586-.08985.07422-.07421.10546-.04297.1172-.02735.1328.01172.08985.0586.14844.14843.05859.08985.04297.10547.04687.10156.04297.10547.04297.10156.10547.04688.10547.04296.13281.01563.08594-.0586.0586-.08984.07421-.07422.10547-.04297.11719.02735.10547.04687.10156.04297.10547.04297.10156.04688.17969.11718v.11719l-.01563.13281.01563.13281.01562.13672.0586.08594.10156.04688.1211.02734.11718.03125h.14844l.11719-.03125.05859-.08984.17969-.1172.05859-.08983.07422-.07422.0586-.08594.11718-.17969.17969-.11719.11719.03125.08984.0586.04297.07422-.01563.1328v.1172l.08985.05859h.14843l.13282-.01563.1328-.01171.26563-.03125.10547-.04297.11719-.03125.1211-.02735.07421-.07421.07031-.07422.0625-.08985-.01562-.10547-.04688-.10156-.10156-.04297-.10547-.01562-.11718.02734-.26563.03125h-.14844l-.07421-.07422-.08985-.0586-.11719-.03124-.11718-.02735-.13282-.01562h-.14843l-.13282.01563h-.29687l-.10547-.04688-.14844-.14844-.04297-.10156-.05859-.08984.22266-.22266.08593-.0586.10547-.04296.11719-.03125.13281-.01563.13281.01563.13672.01562.10157.04297.1328-.01172.08985-.0625.10156-.04297.0625-.08984-.04687-.10156-.08984-.0586-.1172-.03125-.10155-.04296-.0586-.08985-.0625-.08984v-.11719l.01563-.13281.10547-.04688.07421-.07031v-.1211l-.08984-.05859-.03125-.11719.08985-.05859.07421-.07422.04297-.10547.0586-.08984.04687-.10156.01563-.13281v-.14844l-.04688-.10547-.04297-.10156-.08984-.0586-.13281-.01562-.10157-.04297-.13671-.01563-.1172-.03125h-.4453l-.13282-.01562-.13281-.01172-.13281-.01563-.11719-.03125h-.14844l-.13281-.01562-.13281-.01172-.26563-.03125-.1211-.04297-.08593-.0586-.07422-.07421v-.14844l.01172-.13281.10547-.04688.10156-.04296.13281-.01563h.15235l.13281-.01562h.29297l.1211.03125.10156.04296.08984.0586.23438.0625.12109-.04688.08984-.05859.10156-.04297.13282-.01562.10547.04296.10156.04688.13281.01172.1211-.02735h.14453l.12109-.03125.11719-.02734.10547-.04687.07421-.07422.08594-.0586.14844-.14843.0586-.08594.04687-.10547.02734-.11719.01563-.10547-.10156-.04296-.08985-.0586-.11719-.03125-.10546-.04297-.08985-.0625-.07422-.08594-.07422-.07421-.10156-.04297-.10547-.04688-.10156-.04297-.0586-.08984-.04687-.10156-.08594-.21094-.0625-.08594-.05859-.08984-.07422-.07422-.08594-.0586h-.26953l-.11719.03126-.08984.05859-.10156.04297-.13281.01562-.10547-.01562-.02735-.11719-.0625-.08984-.11718-.03125-.10157-.04297-.14843-.14844-.03125-.11719-.01563-.10546.07422-.07422.17969-.1172.11719-.02733.11718-.03125.13672.01562.10156.04297.10547.04297.10156.04687.10547.04297.1172.03125.1328.01563.1172.02734.1328.01563.10547-.01563.08985-.0586-.07422-.07421-.10547-.04297-.07422-.07422-.07422-.08984-.14844-.14844-.08593-.0586-.08985-.05859-.07422-.07422-.08984-.0586-.10156-.04687-.1211-.02734-.10156-.04688-.10547-.04296-.11719-.03125-.10156-.04297-.1211-.03125h-.14843l-.11719.03125-.10546.04297-.08594.0625-.17969.11718-.08594.0586-.08984.0586-.10547.04687-.08594.05859-.10547.04297-.10156.04297-.10547.04687-.07422.07422-.05859.08985-.0586.08593-.04687.10547-.0586.08594-.07421.07422-.13281-.01172-.1172-.03125h-.11718l-.07422.07422-.08984.0586-.07422.07421-.08984.0586-.08594.05859-.10547.04687-.10156.04297-.13672.01563-.10156-.04297-.14844-.14844-.10547-.04688h-.08594l-.10547.04688-.10156.04297-.1211.03125-.11718-.03125-.07422-.07422v-.11719l.03125-.1211.07422-.0703.0586-.08985.07421-.07422.11719-.03125.10547-.04296h.29297l.13281-.01563.13672-.01563.10156-.04296.08985-.0586.10156-.04687.08984-.0586.13281-.01171.08985.05859.13281.01172.08984-.0586.08594-.05859.10547-.04297.08984-.0586.08594-.0625.08985-.05859.14843-.14843.0586-.08594.05859-.08985.10547-.04296.13281-.01563.11719.02735.1211.03125.05859-.0586.05859-.08984.03125-.26563.02734-.11719.10547.01172.13281.01563.10157-.04297.08984-.0586.0586-.08984.07421-.07422.0586-.08984.04687-.10156.01172-.13281-.01172-.13282-.04687-.10547-.14844-.14843-.0586-.08985-.05859-.08594-.04297-.10546v-.44532l.01563-.1328v-.14845l.01172-.1328-.0586-.0586-.08984.0586-.10156-.04298-.17969-.11719-.08594-.05859-.0625-.08984-.0586-.08985-.07421-.07421-.08594-.0586-.1211.03125-.10155.01172-.10547.04688-.08594.05859-.10547.04297-.14844.14844-.08984.05859-.08594.0586-.08984.0625-.10547.04296-.13281.01563v-.1211l.10547-.04297.11718-.03125.07422-.0703.04297-.10548v-.14844l-.02734-.11718-.14844-.14844-.13281-.01563h-.14844l-.11719.03125-.10547.04297-.10156.04297-.08984.0625-.11719.02735-.07422-.07422.01172-.13281-.04297-.10157-.04297-.10547-.08984-.05859-.11719.02734-.1211.03125-.11718.03125-.10156.04297-.1211.03125-.10156.04297-.10547.04297-.08984.0586-.10156.01562v-.11719l.01562-.13281-.0586-.08985-.07421.04297-.14844.14844-.0586.08985-.07421.07421-.04688.10547-.04296.10156-.07422.07422-.0586.08985-.07422.07422-.05859.08593-.07422.07422-.08984.0625-.07422.07031-.07422.07422-.10156.01563-.13281.01562-.10547-.04296v-.1211l.14843-.14844.04297-.10156.0586-.08984.04687-.10156.04297-.10547.0586-.08985.03124-.11719.04297-.10156.03125-.1211.02735-.11718.04687-.10547.04297-.10156.04297-.10547.07422-.07031.08984-.0625.08985-.0586.10156-.04296h.29687l.26563-.03125.10547-.04297-.07422-.07422-.11719-.03125-.10547-.04297-.08984-.0586-.10156-.04687-.08985-.0586-.10156-.04296-.10547-.04297-.08984-.0625-.08594-.0586-.10547-.04296-.10156-.04297-.1211-.03125-.11718-.03125-.10157-.04297L297.5 410.25l-.10156-.04297-.08985-.0586-.04296-.10546-.01563-.13281.10156-.04297.13281-.01563.13672.01563.13282-.01563.10156-.04297.0586-.08984.01562-.10547-.08985-.0586-.07421-.07421-.10157-.04297-.08984-.0586-.14844-.14843-.04297-.10547-.01562-.13281v-.29297l-.0586-.08985-.08984-.05859-.07422-.07422-.04297-.10547-.03125-.11718-.0586-.08985-.07421-.07422-.11719-.02734-.07422-.07422-.08984-.0586-.08984-.0625-.08594-.05859-.07422-.07421-.0586-.08594-.04687-.10547-.08594-.0586-.14843-.14843-.19532-.0586-.1328.01563-.10157.04297-.07422.07422-.04688.10156-.04296.10547-.0586.08984-.0586.08594-.29687.29687-.08984.0586h-.08594l-.0625-.08594-.04297-.10547.03125-.11719.0586-.08984.02734-.11719-.01172-.13281-.08984-.0625-.10547.04688-.11719.02734-.11719.03125-.26953.17578-.10156.04688-.11719.02734-.10546.04687-.08985.0586-.10156.04297-.0586-.08594-.04687-.10547.01563-.13281.04687-.10547.07031-.07422.07422-.07031.0586-.08985v-.14843l-.04297-.10547h-.23829l-.10156.04687-.03125.11719-.02734.11719-.03125.1211-.07422.04296-.13281.01563-.07422-.04688-.04297-.10156-.04297-.10547-.04687-.10156-.04297-.10547-.1211.03125-.10156.04297-.13281.01562-.11719.03125-.10547.04297-.08984.0586-.10156.04687-.1211.02734-.13281.01563-.10156-.04297-.0586-.08985-.04687-.10546-.04297-.10157-.04297-.10546v-.1172l.0586-.08984.08593-.05859.17969-.11719.10156-.04687.10547-.04297.10547-.0586.10156-.04296.08985-.0625.10156-.04297.10547-.0586.10156-.04687.08984-.0586.10547-.04296.10156-.04297.08985-.0625.10156-.04297.13672-.01563.11719.03125.10156.04297.1211.03125.10156.04297.10546.04688.10157.04296.10547.04297.10156.04688.10547.04297.10156.04297.10547.04687.08594.0586.10546.04296.1172.03125.10546.04297.10156.04688.08985.0586.10547.04296.10156.04297.10547.04687.11719.02735.10156.04687.1211.02735h.14843l.08594-.0586.01562-.10156.0586-.08984-.02735-.1172-.07422-.07421-.11719-.17969-.07421-.07422-.08985-.07421-.17969-.1172-.08593-.05859-.10547-.04296-.10156-.04688-.26954-.17578-.05859-.08985-.07422-.07421-.0586-.08985-.04296-.10156-.03125-.11719-.01563-.13672v-.5625l-.01171-.1328-.01563-.13282-.03125-.11719-.01562-.13281-.01172-.13281-.03125-.1211-.22266-.22265-.0586-.08594-.01562-.10547.03125-.11719.13281-.01562v-91.41406H172.9922v1.45312l-.0586.23438-.35156 1.05078-.17187.52343-.1172.34766-.17577.41016-.11719.17187-.23438.29297-.23046.0586h-.35157l-.11718.05859-.23047.40625v.29297l.11719.17578.23046.23047.1172.23437.64062.75781.29297.46485.17578.23437.23047.35156.23437.34766.64063.8164.17578.46485.17187.41016.11719.69531.17578.46875.11719 1.39844.0586.46484v.875l.11718 1.04688v4.78125l-.0586.46484-.35156 1.28125-.17578.52344-.11328.41015-.35156.9297L172.93359 336l-.23437.58203-.11719.17578-.17187.34766-.17578.40625-.35157.8164-.0586.29297-.11327.29297-.11719.28906-.0586.17579-.11718.875-.0586.40625-.05859.11718-.0586.17579-.05859.17187-.23047.52734-.11718.17188v.23437l-.11719.23438-.0586.17187-.17577.58594v.28906l-.0586.17579v.29296l-.0586.11329-.05859.52734v.17187l-.05468.23438v2.6211l-.17578.8164-.1172.17578-.17577.23438-.1172.17187-.11327.23438-.58594.93359-.23047.28906-.29297.46485-.17578.23437-.28906.35156-.35156.69922-.11328.23047-.17579.41016-.17578.23046-.40625.52735-.8164.69922-.29297.17187-.28906.23438-.17579.11719-.17578.17578-.52344.40625-.52734.17578-.17187.17578-.23438.05469-.64062.17578h-.75782m12.21094 31.02344l-1.07422.44921.35938.89454 1.25-.71485.44531-.53906-.98047-.08985"/><path fill="#d3d3d3" fill-opacity="0" fill-rule="evenodd" d="M201.50781 416.59766h-.89453l.44922.6289.98047.35938.80469-.08985.4453-.98828-.17577.08985-.71485-.35547-.89453.35547m154.6211 59.0703l-.0586-.52343v-.29297l.11328-.29297.0586-.23046.46875-.46875h.11328l.11719-.11329.11718-.05859h.17579l.23437-.0586h.34766l.23437.0586.11719.0586.23047.17187.0586.17578.11718.58203v.29297l-.11719.17578-.17187.28906-.17579.17579-.52734.52343-.23047.23438-.11719.0586h-.17578l-.11718-.0586-.40625-.29297-.17579-.11719-.11718-.0586-.0586-.11327-.05468-.1172m6.64062-10.95702l-.0586-.17188v-1.10937l.0586-.17188.17578-.0586.17188-.05858h.17578l.23437-.0586.1172.0586.05858.69921-.05859.17188-.11719.17578-.11718.0586-.23438.52343-.11328.0586h-.23438l-.05859-.1172m9.61328-14.39062l-.11719-.17578v-.69922l.29297-.875.1172-.17187.17577-.35156.11328-.23047.1172-.29297.35155-.75781.1172-.23047.17187-.23438h.17578l.11719-.0586h.64062l.11719.0586.23437.23438.17188.11328.35156.29297.11719.11718.11328.17579v.11328l.11719.05859.11718.11719v.69922l-.05859.17578v.23047l-.0586.17578-.34765 1.05078-.11719.23047-.11719.23437-.11718.0586-.23047.23437-.64063.28906h-.875l-.41015-.11718-.64063-.46485"/><path fill="none" stroke="#bebebe" stroke-linecap="round" stroke-linejoin="round" stroke-miterlimit="10" stroke-width=".5" d="M467.95703 311.69531H144.02734v168.625h323.9297v-168.625"/><g clip-path="url(#a)"><path fill="#fff" fill-opacity="0" fill-rule="evenodd" d="M144 475.89063v4.4375h.0039H144V311.67188h.0039H144v164.21875"/></g><g clip-path="url(#b)"><path fill="#fff" fill-opacity="0" fill-rule="evenodd" d="M144.0039 480.32813V311.67188h44.37891v126.44921l-4.4375 1.14063-1.02734 1.1211 1.02734 2.86718 4.4375-1.375 1.60547-1.49219-1.60547-2.26172V311.67188h31.07031V412.8789l-.80468.875-2.71485 4.4375 3.51953 3.10546.62891 1.33204 1.53516 4.4414-2.16406 2.26953-2.2461 2.16797 2.1289 4.4375.1172.15235 4.4375 1.3789 1.59375-1.53125 2.84375-.58203 4.4375-1.0586 3.04687-2.79687-3.04688-3.96094-.08984-.47656-4.34766-4.23437-.35546-.20703-.83203-4.4375-3.25-4.08204-2.33204-.35546-2.10547-.875V311.67187h22.19141v108.16407l-2.85156 2.79297 2.85156 4.41406.04297.02734 4.39453 2.21875 4.4375-1.86328.44531-.35547-.4453-.34765-4.4375-3.77735-.19142-.3164-4.24609-2.79297V311.67188h84.32813v95.94921l-1.94141 1.69532-2.4961 1.08593-4.4375 1.28907-2.15234 2.0625-2.28906.83203-4.4375 3.21094-.5586.39453-3.8789.30468-3.51953-.30468-.91797-.66797-4.4414-1.625-2.63673 2.29297-1.80078 1.10156-2.6328-1.10156-1.8047-1.3672-1.64453 1.3672-2.79297 1.73046-4.4375.66407-1.53125-2.39453-1.875-4.4375-1.03515-1.62891-4.4375-2.51563-4.4375 3.5625-.5586.58204-3.35156 4.4375.1211 4.4375.07812 4.4414.64063 4.4375 1.80468 4.4375 1.26563 1.49219 4.4375-1.40625 4.4375.86719 4.4414 1.33203 4.4375-1.96485 4.4375 1.81641 2.54688-2.13672 1.48828-4.4375.40234-.60547 4.4375-.02343 4.44141-.1875 4.4375.35156 4.4375-.30469 4.4375-.17969 3.3711-3.48828-.61329-4.4414.8125-4.4375.8711-2.35157 4.4375 1.07422 4.4375 1.15235 4.4375-.44922 2.83593.57422 1.60157 1.08984 4.4414 2.40625 2.32031.9414 2.1172.86329.9375-.86328 2.10156-4.4375-.69922-4.4375-2.33985-2.65235-2.2539 2.65235-2.1836 1.74609-4.4414 1.79297-1.10157-3.53906-3.33593-4.22266-.76172-.21484-3.67578-1.69532v-95.94921h22.1914v118.5l-1.34375 1.33593 1.34375 1.94531 1.33985-1.9453-1.33985-1.33594v-118.5h22.1914v94.8164l-4.27343 2.82813-.16406.03515-4.4375 2.46875-1.9336 1.9336-1.89843 4.4375.05078 4.4375.52344 4.4414 3.2578 3.29688.22657 1.14062.1914 4.4375-.41796 4.21485-4.4375-.84766-4.4414.98828-4.4375-2.89062-3.02344 2.97265-1.41407 1.03516-2.0586-1.03516-2.3789-1.67969-4.4414.7461-1.16016.9336-3.27734 2.80077-4.4375 1.3047-.34766.33202.34766.83594 3.96093 3.60547-3.02343 4.4375-.9375 1.38281-4.4375-.16797-.88282-1.21484-3.55468-2.13672-4.44141-.55469-2.45313 2.6914-.58593 4.4375 3.03906 2.16407 4.4414.15235 4.4375-.73438 4.4375-.35156 4.4375 1.39453 4.23829-2.625.19922-.63281 4.4414-2.9961 4.4375-.34375.76172-.46484 3.67578-1.11328 4.4375-.6875 4.4414-2.38281.13282-.25391 4.30469-.67578 4.4375.09375.47656.58203-.47656 1.16797-2.96094 3.26953-1.47656 1.4414-4.17969 2.9961-.25781 1.25-.64063 3.1875.64063.60547 4.4375.49219 4.4375.69921 4.4375 2.625.13672.01954 4.30078 2.40625 4.4414 1.64453.35547.38671 4.08204 2.65235 4.4375-.21875 2.32421-2.4336-2.32421-3.9414-.375-.4961.375-2.60937.40234-1.83203 4.03515-1.5664.62891 1.5664 1.46485 4.4414 2.34375 2.29688 4.4414.80469 3.11328-3.10156 1.32422-.3047 4.4375-.68359 3.53516-3.45312.90234-2.9414 1.60156-1.4961-1.60156-3.66797-.4375-.76953.4375-.30469 4.4414-2.10547 1.75782-2.02734 1.88672-4.4414-.94531-4.4375-2.69922-3.80079-.67969-.63672-3.76172-2.625-4.4375.85938-2.08203 1.76562-2.35547.4961L401.42578 438l-2.59375 2.38281-1.84765 1.42578-4.4375.57032-2.9297 2.4414-1.5078.8125-4.4375.19922-1.52344-1.01172 1.52344-1.73828 3.99218-2.69922-3.99219-3.26562-.37109-1.17188.3711-.89844 4.4375-.39062 4.4375-2.24219 1.28125-.90625 1.82812-4.4375-3.10938-2.98828-4.4375-1.30078-4.4375 1.33984-4.01171 2.94922-.42579.21094-4.4414.73438-.36719-.94532-4.07031-4.33984-.13672-.10156-.53125-4.4375.66797-.61329 3.85156-3.82421.51172-4.4375-4.36328-2.82813v-94.8164h53.26172v147.30859l-.78125 3.59375.78125.59765.89062-.59765-.89062-3.59375v-147.3086h44.3789v168.65625H144.00391"/></g><path fill="#50fcfc" fill-rule="evenodd" d="M183.94531 443.25l-1.02734-2.86719 1.02734-1.1211 4.4375-1.14062 1.60547 2.26172-1.60547 1.49219-4.4375 1.375m35.50781-21.95313l-3.51953-3.10546 2.71485-4.4375.80469-.875 2.10546.875 2.33203.35546v2.23829l-4.4375.37109-1.05078 1.47266 1.05078.92968 1.65625 3.50782 2.78125 3.99609.22657.44531-.22656.54688-3.79297 3.89062 3.79297 3.40625 4.4375-.48437 4.4375-2.58985.36718-.33203-.36719-.47265-.74218-3.96485-3.69531-3.59765-1.45704-.84375-1.51172-4.4375-1.46875-1.84375v-2.23829l3.25 4.08204.83204 4.4375.35547.20703 4.34765 4.23437.08984.47656 3.04688 3.96094-3.04688 2.79688-4.4375 1.0586-2.84375.58202-1.59375 1.53125-4.4375-1.3789-.11718-.15235-2.1289-4.4375 2.24608-2.16797 2.16407-2.26953-1.53516-4.4414-.6289-1.33204"/><path fill="#00e8fc" fill-rule="evenodd" d="M219.45313 419.1211l-1.05079-.9297 1.05078-1.47265 4.4375-.3711v3.83204l-1.0703 2.44922 1.0703 1.53515 1.46875 2.90625-1.46875 3.57422-.84375.86328.84375.75781 4.4375.61329 2.17579-1.3711.42968-4.4375-2.60547-2.53906-3.29296-1.90234-1.14453-2.44922v-3.83203l1.46875 1.84375 1.51171 4.4375 1.45703.84375 3.69532 3.59765.74219 3.96485.36718.47265-.36719.33203-4.4375 2.58985-4.4375.48437-3.79296-3.40625 3.79297-3.89062.22656-.54688-.22656-.44531-2.78125-3.9961-1.65625-3.5078"/><path fill="#00d4fc" fill-rule="evenodd" d="M223.89063 424.16406l-1.07032-1.53515 1.07031-2.44922 1.14454 2.44922 3.29297 1.90234v1.0625l-1.72657 1.47656 1.72656 4.08985 1.51563-4.08985-1.51563-1.47656v-1.0625l2.60547 2.53906-.42968 4.4375-2.17578 1.3711-4.4375-.61329-.84375-.7578.84375-.86329 1.46875-3.57422-1.46875-2.90625"/><path fill="#00c4fc" fill-rule="evenodd" d="M228.32813 431.16016l-1.72657-4.08985 1.72656-1.47656v1.0586l-.48437.41796.48438 1.14844.42578-1.14844-.42578-.41797v-1.05859l1.51562 1.47656-1.51563 4.08985"/><path fill="#00b8fc" fill-rule="evenodd" d="M228.32813 428.21875l-.48438-1.14844.48438-.41797.42578.41797-.42578 1.14844"/><path fill="#50fcfc" fill-rule="evenodd" d="M241.64453 427.04297l-2.85156-4.41406 2.85156-2.79297v2.47656l-.32422.3164.32422.5.48047-.5-.48047-.3164v-2.47656l4.2461 2.79297.1914.3164 4.4375 3.77735.44531.34765-.4453.35547-4.4375 1.86328-4.39454-2.21875-.04297-.02734"/><path fill="#00e8fc" fill-rule="evenodd" d="M241.64453 423.1289l-.32422-.5.32422-.3164.48047.3164-.48047.5"/><path fill="#50fcfc" fill-rule="evenodd" d="M260.04688 422.6289l-.1211-4.4375 3.35156-4.4375.5586-.58202 4.4375-3.5625v2.90234l-1.42578 1.24219-3.01172 3.89453-.4414.54297-1.44532 4.4375-.70703 4.4414 1.57812 4.4375 1.01563 1.75781 4.4375 1.32032 4.4375-.35938 4.4414.88281 4.4375-1.89453 4.4375-.51953.4922-1.1875 2.61718-4.4375 1.32812-2.08984.66407 2.08984 3.77343 2.34375h4.44141l4.4375.33594 4.4375-.21875 4.4375-.64844 1.75-1.8125-1.52734-4.4414 2.0078-4.4375-2.23046-2.25391-2.84375 2.2539 1.60156 4.4375-3.19531.44141-.1836-.4414-4.2539-3.46485-4.4375-.09765-4.4414-.20704-4.4375 2.96875-4.4375-1.89453-3.71094 2.69532-.72657.3789-4.4375.92969-3.5 3.13281-.9414 1.03516-.48828-1.03516-1.4922-4.4414 1.37892-4.4375-2.29688-4.4375-1.53906-1.2422v-2.90233l4.4375 2.51562 1.03515 1.6289 1.875 4.4375 1.53125 2.39454 4.4375-.66406 2.79297-1.73047 1.64453-1.3672 1.8047 1.3672 2.6328 1.10156 1.80079-1.10156 2.63671-2.29297 4.44141 1.625.91797.66797 3.51953.30468 3.8789-.30468.5586-.39454 4.4375-3.21093 2.28906-.83203 2.15235-2.0625 4.4375-1.28907 2.49609-1.08593 1.9414-1.69532v2.16407l-4.4375 2.66796-2.66796 1.30079 2.66797 1.22656 4.4375 2.36328 4.4375-2.0586 1.32421-1.53124-1.32421-1.67188-4.4375-2.29687v-2.16407l3.67578 1.69532.76172.21484 3.33593 4.22266 1.10157 3.53906 4.4414-1.79297 2.1836-1.7461 2.2539-2.65234v6.41797l-1 .67188 1 .47265.27735-.47265-.27735-.67188v-6.41797l2.33985 2.65235.69921 4.4375-2.10156 4.4375-.9375.86328-2.11719-.86328-2.3203-.94141-4.44141-2.40625-1.60157-1.08984-2.83593-.57422-4.4375.44922-4.4375-1.15235-4.4375-1.07422-.8711 2.35157-.8125 4.4375.61328 4.4414-3.37109 3.48828-4.4375.1797-4.4375.30468-4.4375-.35156-4.4414.1875-4.4375.02343-.40235.60547-1.48828 4.4375-2.54688 2.13672-4.4375-1.8164-4.4375 1.96484-4.4414-1.33203-4.4375-.86719-4.4375 1.40625-1.26563-1.49219-1.80469-4.4375-.64062-4.4375-.07813-4.4414"/><path fill="#00e8fc" fill-rule="evenodd" d="M262.82031 431.50781l-1.57812-4.4375.70703-4.4414 1.44531-4.4375.4414-.54297 3.01173-3.89453 1.42578-1.2422v11.96485l-4.4375.41016-.73438 2.1836.73438 1.58984 2.97265 2.84765 1.46485.79297 2.72265-.79297-.83593-4.4375-1.88672-2.59375v-11.96484l1.53906 1.24219 2.29688 4.4375-1.37891 4.4375 1.49219 4.4414.48828 1.03516.9414-1.03516 3.5-3.13281 4.4375-.92969v2.98047l-3.375 1.08203 3.375 1.59766 1.66016-1.59766-1.66016-1.08203v-2.98047l.72657-.3789 3.71093-2.69532 4.4375 1.89454 4.4375-2.96875 4.44141.20703 4.4375.09765v1.11328l-4.4375.44922-4.4414 1.1875-.9922.71485.9922 3.78125 1.29687.66015 3.14453.21094 4.4375.3086 4.4375-.07032 1.72656-.44922-1.72656-.73437-1.55078-3.70703-2.88672-2.35157v-1.11328l4.2539 3.46485.1836.4414 3.19531-.4414-1.60156-4.4375 2.84375-2.25391v2.25l-.0039.0039.0039.00782.0039-.00781-.0039-.00391v-2.25l2.23047 2.2539-2.00781 4.4375 1.52734 4.44141-1.75 1.8125-4.4375.64844-4.4375.21875-4.4375-.33594h-4.4414l-3.77344-2.34375-.66407-2.08984-1.32812 2.08984-2.61719 4.4375-.49219 1.1875-4.4375.51953-4.4375 1.89454-4.4414-.88282-4.4375.35938-4.4375-1.32031-1.01563-1.75782"/><path fill="#00d4fc" fill-rule="evenodd" d="M263.83594 428.66016l-.73438-1.58985.73438-2.1836 4.4375-.41015 1.88672 2.59375.83593 4.4375-2.72265.79297-1.46485-.79297-2.97265-2.84765m17.7539.0078l-3.375-1.59765 3.375-1.08203 1.66016 1.08203-1.66016 1.59766m13.3125-2.25781l-.99218-3.78125.99218-.71485 4.44141-1.1875 4.4375-.44922v1.11329l-4.4375.99218-.72656.2461.72656.6328 4.4375 2.00782 1.51953-2.64062-1.51953-1.23829v-1.11328l2.88672 2.35157 1.55078 3.70703 1.72656.73437-1.72656.44922-4.4375.07031-4.4375-.30859-3.14453-.21094-1.29688-.66015"/><path fill="#00c4fc" fill-rule="evenodd" d="M299.34375 423.26172l-.72656-.63281.72656-.2461 4.4375-.99219v1.11329l-.51953.125.51953.26953.15234-.26953-.15234-.125v-1.11329l1.51953 1.23829-1.51953 2.64062-4.4375-2.00781"/><path fill="#00b8fc" fill-rule="evenodd" d="M303.78125 422.89844l-.51953-.26953.51953-.125.15234.125-.15234.26953"/><path fill="#50fcfc" fill-rule="evenodd" d="M312.65625 460.30078l-3.03906-2.16406.58594-4.4375 2.45312-2.6914 4.4414.55468 3.5547 2.13672.8828 1.21484 4.4375.16797.9375-1.38281 3.02344-4.4375-3.96093-3.60547-.34766-.83594.34766-.33203 4.4375-1.30469 3.27734-2.80078 1.16016-.9336 4.4414-.74608 2.3789 1.67968 2.0586 1.03516 1.41406-1.03516 3.02344-2.97265 4.4375 2.89062 4.4414-.98828 4.4375.84766.41798-4.21485-.1914-4.4375-.22657-1.14062-3.25781-3.29688-.52344-4.4414-.05078-4.4375 1.89844-4.4375 1.93359-1.9336 4.4375-2.46875.16406-.03515 4.27344-2.82813v2.42188l-.61328.40625-3.82422.87109-3.98438 3.5664-.45312.59376-2.91016 3.84375.11719 4.4375 1.40625 4.4414 1.38672 1.39844.60547 3.03906.47265 4.4375 1.26172 4.4375-2.33984 2.69531-4.4375-.33984-4.4414 1.13672-4.4375-2.60938-4.4375 3.11329-1.96876.4414-2.46875 2.13672-1.08984 2.30469 1.08984.85156 2.9375-.85156 1.5-1.8125 2.02344 1.8125 2.41406.36328 1.3711-.36328 3.0664-2.25781 4.4414-.34766 4.4375-.38672 4.4375-.17187 2.59376 3.16406 1.84375 2.42578 2.30469 2.01172 2.1328 3.3789.19142 1.0586-.19141 3.27344-3.0664 1.16406 3.0664.35156 4.4414 3.9414 3.61329-4.29296.82421-1.9961 4.4375-1.20703 4.4375-.77734 1.60157 3.98047 2.83594 4.04687 1.51171.39454 2.9297 1.10156 1.10546-1.10156 3.33203-.76172 4.4375-1.71094 2.01563-1.96875-.10938-4.4375-1.90625-2.46094-4.0039-1.97656-.4336-.4336-.92187-4.0039.92187-.33203 4.4375-.3711v.58594l-1.14062.11719 1.14062 1.14062.83594-1.14062-.83594-.11719v-.58594l4.4375.54297 4.4414-1.64844 1.67579-2.6328-1.58203-4.4375-.09375-.13282-4.4414-4.26172-4.4375.49219-4.4375 1.10937-3.97267 2.79297-.46484.52344-4.4414 3.70313-1.06641.21093-3.3711.22266-4.4375 2.65234-4.4375-.04297-4.26171-2.83203 3.73828-4.4375-1.04688-4.4375 1.57031-3.80078 4.4375.51563 1.82422-1.15235 2.61329-3.9414.29296-.4961-.29296-.28515-4.4375-2.26172-3.70313 2.54687-.73438 2.51563-4.4375.51562-4.4414-.58594-.95313-2.4453-3.48437-3.71876-1.0039-.72265-.66798-4.4375 1.67188-1.53516 2.92187-2.90234-2.29296-4.4375-.62891-.40625v-2.42188l4.36328 2.82813-.51172 4.4375-3.85156 3.82421-.66797.61329.53125 4.4375.13672.10156 4.07031 4.33984.36719.94531 4.4414-.73437.42579-.21094 4.01171-2.94922 4.4375-1.33984 4.4375 1.30078 3.10938 2.98828-1.82813 4.4375-1.28125.90625-4.4375 2.24219-4.4375.39063-.37109.89843.3711 1.17188 3.99218 3.26562-3.99219 2.69922-1.52343 1.73828 1.52344 1.01172 4.4375-.19922 1.5078-.8125 2.9297-2.4414 4.4375-.57032 1.84765-1.42578L401.42578 438l4.4375-1.5586 2.35547-.49609 2.08203-1.76562 4.4375-.85938 3.76172 2.625.67969.63672 2.69922 3.80078.9453 4.4375-1.88671 4.4414-1.75781 2.02735-4.4414 2.10547-.4375.30469.4375.76953 1.60155 3.66797-1.60156 1.4961-.90234 2.9414-3.53516 3.45312-4.4375.6836-1.32422.30469-3.11328 3.10156-4.4414-.80469-2.34375-2.29688-1.46485-4.4414-.6289-1.5664-4.03516 1.5664-.40235 1.83203-.375 2.60938.375.49609 2.32422 3.9414-2.32421 2.4336-4.4375.21875-4.08204-2.65235-.35546-.38671-4.44141-1.64454-4.30078-2.40625-.13672-.01953-4.4375-2.625-4.4375-.69921-4.4375-.4922-.64063-.60546.64063-3.1875.25781-1.25 4.17969-2.9961 1.47656-1.4414 2.96094-3.26953.47656-1.16797-.47656-.58203-4.4375-.09375-4.30469.67578-.13281.2539-4.4414 2.38282-4.4375.6875-3.67579 1.11328-.76172.46484-4.4375.34375-4.4414 2.9961-.19922.6328-4.23828 2.625-4.4375-1.39452-4.4375.35156-4.4375.73438-4.44141-.15235"/><path fill="#00d4fc" fill-rule="evenodd" d="M312.65625 418.19922l-.0039-.00781.0039-.00391.0039.0039-.0039.00782"/><path fill="#00e8fc" fill-rule="evenodd" d="M321.53516 414.98047l-2.66797-1.22656 2.66797-1.30079 4.4375-2.66796v1.32421l-3.38672 2.64454 3.38672 2.39062 3.40234-2.39062-3.40234-2.64454v-1.32421l4.4375 2.29687 1.32421 1.67188-1.32421 1.53125-4.4375 2.05859-4.4375-2.36328"/><path fill="#00d4fc" fill-rule="evenodd" d="M325.97266 416.14453l-3.38672-2.39062 3.38672-2.64454v1.32813l-1.6875 1.3164 1.6875 1.19141 1.6953-1.1914-1.6953-1.31641v-1.32813l3.40234 2.64454-3.40234 2.39062"/><path fill="#00c4fc" fill-rule="evenodd" d="M325.97266 414.94531l-1.6875-1.1914 1.6875-1.31641 1.6953 1.3164-1.6953 1.19141"/><path fill="#00e8fc" fill-rule="evenodd" d="M339.28906 450.11328l-1.08984-.85156 1.08984-2.30469 2.46875-2.13672 1.96875-.4414 4.4375-3.11329 4.4375 2.60938 4.4414-1.13672 4.4375.33985 2.33985-2.69532-1.26172-4.4375-.47265-4.4375-.60547-3.03906-1.38672-1.39844-1.40625-4.4414-.11719-4.4375 2.91016-3.84375.45312-.59375 3.98438-3.56641 3.82422-.8711.61328-.40624v2.64062l-4.4375.02344-2.4336 2.17969-2.0039 2.6289-1.3711 1.8086.22266 4.4375 1.14844 2.47265.44531 1.96875.78906 4.4375.94532 4.4375 2.2578 3.59766.73048.83984 3.70703 4.34375.13281.09375 4.30469 2.23047v1.28125l-2.57031.92969 2.5703 2.85156 1.4297-2.85156-1.4297-.92969v-1.28125l3.40626 2.21094-1.57813 4.4375-.14453 4.4375.66406 4.4375 2.09375 1.97265 1.66016-1.97265 1.85547-4.4375.92188-.94531 4.4375-2.35157 4.4375 1.21875 3.6289 2.07813-.41406 4.4375 1.22265 1.7461 4.44141 1.80077 4.4375-.6289 4.21485-2.91797-4.21485-3.7461-3.40625-.6914-1.03125-.69531-4.4414-1.54297-.71875-2.19922.71875-2.20313 3.80859-2.23437.63281-.45313v4.28516l-.71094.60547.71094.4961 3.76172-.4961-3.76172-.60547v-4.28516l4.4375-1.1914 4.4375-.03516 4.4375-.36328 3.21094-2.39844-.60938-4.4375-2.60156-2.55078-4.4375.09375-4.4375 1.57422-1.2539.88281-3.1836 3.5586-1.03515.8789-3.40625 3.67578-4.4375-1.92578-3.38672 2.6914-1.05079 2.96485-4.4375-2.04297-2.10546-.92187-2.33204-1.5625-1.58203-2.8789.76954-4.4375.8125-2.08204.87109-2.35547-.8711-1.70703-4.4414-2.375-.2539-.35547-1.67188-4.4375-2.51172-2.67969-2.44531-1.76171-.90235-4.4375 3.34766-3.07422 1.375-1.36328-1.375-2.20313v-2.64062l.6289.40625 2.29297 4.4375-2.92187 2.90234-1.67188 1.53516.66797 4.4375 1.0039.72265 3.48438 3.71875.95313 2.44531 4.4414.58594 4.4375-.51562.73438-2.51563 3.70313-2.54687 4.4375 2.26172.29296.28515-.29296.4961-2.61329 3.9414-1.82421 1.15235-4.4375-.51563-1.57032 3.80078 1.04688 4.4375-3.73828 4.4375 4.26171 2.83203 4.4375.04297 4.4375-2.65234 3.3711-.22266 1.0664-.21094 4.44141-3.70312.46485-.52344 3.97265-2.79297 4.4375-1.10937 4.4375-.49219 4.4414 4.26172.09376.13281 1.58203 4.4375-1.67578 2.63281-4.4414 1.64844-4.4375-.54297-4.4375.3711-.92188.33203.92187 4.0039.4336.4336 4.0039 1.97656 1.90625 2.46094.10938 4.4375-2.01563 1.96875-4.4375 1.71094-3.33203.76171-1.10547 1.10157-2.92969-1.10156-1.51171-.39454-2.83594-4.04687-1.60156-3.98047-4.4375.77734-4.4375 1.20704-.82422 1.99609-3.61329 4.29297-4.4414-3.9414-3.0664-.35157 3.0664-1.16406.1914-3.27344-.1914-1.0586-2.13281-3.3789-2.3047-2.01172-1.84374-2.42578-2.59375-3.16406-4.4375.17187-4.4375.38672-4.4414.34766-3.06641 2.2578-1.3711.36329-2.41406-.36328-2.02344-1.8125-1.5 1.8125-2.9375.85156m4.4375-31.44922l-1-.47265 1-.67188.27735.67188-.27735.47265"/><path fill="#50fcfc" fill-rule="evenodd" d="M348.16406 433.45313l-1.34375-1.94532 1.34375-1.33594 1.33985 1.33594-1.33985 1.94531"/><path fill="#00d4fc" fill-rule="evenodd" d="M360.33203 422.6289l-.22265-4.4375 1.37109-1.80859 2.0039-2.6289 2.4336-2.1797v1.39063l-.88281.78907.8828 2.75v3.80859l-2.47655 2.3164-.71094 4.44141.61328 4.4375 1.41797 4.4375 1.15625 1.84375 2.25781 2.59375 2.17969 2.5586 2.61328 1.8789 1.82422.94531 1.21094-.9453.3203-4.4375 1.59376-4.4375-3.125-2.33594-1.5-2.10157-1.40235-4.4375-1.53515-1.64062-3.88672-2.80078-.55078-2.31641v-3.8086l3.69922-2.75-3.69922-.78906v-1.39062l4.4375-.02344 1.375 2.20313-1.375 1.36328-3.34766 3.07422.90235 4.4375 2.4453 1.76171 2.51173 2.6797 1.67187 4.4375.2539.35546 4.44142 2.375.87109 1.70703-.8711 2.35547-.8125 2.08203-.76953 4.4375 1.58204 2.8789 2.33203 1.5625 2.10546.92188v1.96485l-3.75 1.55078-.6875.64844-1.26171 3.78906 1.26171 3.76953 1.60547-3.76953 2.83204-2.89844 2.30468-1.53906-2.30469-1.55078v-1.96485l4.4375 2.04297 1.05079-2.96484 3.38671-2.6914v1.52734l-1.46093 1.16406 1.41797 4.4375.04296.01562.02735-.01562 2.13281-4.4375-2.16015-1.16406v-1.52735l4.4375 1.92578 3.40625-3.67578 1.03515-.8789 3.1836-3.5586 1.2539-.88281 4.4375-1.57422v1.44531l-2.50781 1.01172-1.92969 1.42969-2.73047 3.00781 2.73047 1.48828 4.4375.29688 4.4375-1.26953.6914-.51563.03516-4.4375-.72656-.71094-4.4375-.30078v-1.4453l4.4375-.09376 2.60156 2.55078.60938 4.4375-3.21094 2.39844-4.4375.36328-4.4375.03516-4.4375 1.1914-.63281.45313-3.8086 2.23437-.71875 2.20313.71875 2.19922 4.44141 1.54297v2.12109l-3.875 3.01172 3.875 2.21484 4.4375-.0586 3.11328-2.15624-3.11328-2.76563-4.4375-.24609v-2.1211l1.03125.69532 3.40625.6914 4.21485 3.7461-4.21485 2.91797-4.4375.6289-4.4414-1.80078-1.22266-1.7461.41406-4.4375-3.6289-2.07812-4.4375-1.21875-4.4375 2.35157-.92188.9453-1.85547 4.4375-1.66015 1.97267-2.09375-1.97266-.66407-4.4375.14453-4.4375 1.57813-4.4375-3.40625-2.21094-4.30469-2.23047-.13281-.09375-3.70703-4.34375-.73047-.83984-2.25781-3.59766-.94532-4.4375-.78906-4.4375-.44531-1.96875-1.14844-2.47265"/><path fill="#00c4fc" fill-rule="evenodd" d="M363.34375 431.50781l-.61328-4.4375.71094-4.4414 2.47656-2.31641v3.08594l-2.38281 3.67187.4414 4.4375 1.88281 4.4375.0586.08985 3.78125 4.34765.65625.76953 2.71875-.76953 1.71875-1.98437.78906-2.45313-.78906-.58984-2.75-3.84766-1.125-4.4375-.5625-.60156-4.4375-3.07031v-3.08594l.55078 2.3164 3.88672 2.80079 1.53515 1.64062 1.40235 4.4375 1.5 2.10156 3.125 2.33594-1.59375 4.4375-.32031 4.4375-1.21094.94531-1.82422-.9453-2.61328-1.87891-2.17969-2.5586-2.25781-2.59375-1.15625-1.84375-1.41797-4.4375"/><path fill="#00b8fc" fill-rule="evenodd" d="M363.97656 431.50781l-.4414-4.4375 2.3828-3.67187v1.23828l-1.57812 2.4336.26563 4.4375 1.3125 3.05077 1.42578 1.38672 3.01172 3.45313 3.33203-3.45313-2.89063-4.4375-.4414-2.01953-.78516-2.41797-3.65234-2.4336v-1.23827l4.4375 3.07031.5625.60156 1.125 4.4375 2.75 3.84766.78906.58984-.78906 2.45313-1.71875 1.98437-2.71875.76953-.65625-.76953-3.78125-4.34765-.0586-.08985-1.8828-4.4375"/><path fill="#00a8fc" fill-rule="evenodd" d="M364.60547 431.50781l-.26563-4.4375 1.57813-2.4336v1.2422l-.77344 1.1914.08985 4.4375.68359 1.58594 2.9336 2.85156 1.5039 1.72656 1.66797-1.72656-1.66797-2.69531-1.66016-1.74219-.98828-4.4375-1.78906-1.1914v-1.2422l3.65234 2.4336.78516 2.41797.4414 2.01953 2.89063 4.4375-3.33203 3.45313-3.01172-3.45313-1.42578-1.38672-1.3125-3.05078"/><path fill="#00c4fc" fill-rule="evenodd" d="M365.91797 416.5039l-.88281-2.75.8828-.78906 3.69923.78907-3.69922 2.75"/><path fill="#009800" fill-rule="evenodd" d="M365.23438 431.50781l-.08985-4.4375.77344-1.1914v2.59765l-.05469 3.03125.05469.1211.21484-.1211-.21484-3.03125v-2.59765l1.78906 1.1914.98828 4.4375 1.66016 1.74219 1.66797 2.69531-1.66797 1.72656-1.5039-1.72656-2.9336-2.85156-.6836-1.58594"/><path fill="#00ac00" fill-rule="evenodd" d="M365.91797 431.6289l-.05469-.12109.05469-3.03125.21484 3.03125-.21484.1211"/><path fill="#50fcfc" fill-rule="evenodd" d="M374.79297 448.33203l-2.57031.92969 2.5703 2.85156 1.4297-2.85156-1.4297-.92969v.77344l.2422.15625-.2422.48047-.43358-.48047.43359-.15625v-.77344"/><path fill="#fff" fill-opacity="0" fill-rule="evenodd" d="M374.79297 449.10547l-.4336.15625.4336.48047.24219-.48047-.2422-.15625"/><path fill="#00c4fc" fill-rule="evenodd" d="M379.23438 461.90625l-1.26172-3.76953 1.26171-3.78906.6875-.64844 3.75-1.55078 2.3047 1.55078-2.3047 1.53906-2.83203 2.89844-1.60546 3.76953m13.26953-8.20703l-1.41797-4.4375 1.46094-1.16406 2.16015 1.16406-2.13281 4.4375-.02735.01562-.04296-.01562m8.92187 11.08984l-3.875-2.21484 3.875-3.01172 4.4375.2461v.97656l-4.4375.59375-1.53906 1.1953 1.53906.88282 4.4375.51172 2.01172-1.39453-2.01172-1.78906v-.97657l3.11328 2.76563-3.11328 2.15625-4.4375.0586"/><path fill="#00b8fc" fill-rule="evenodd" d="M401.42578 463.45703l-1.53906-.88281 1.53906-1.19531 4.4375-.59375v.98046l-3.14453.8086 3.14453.63281.91016-.63281-.91016-.8086v-.98046l2.01172 1.78906-2.01172 1.39453-4.4375-.51172"/><path fill="#50fcfc" fill-rule="evenodd" d="M401.42578 453.09375l-.71094.60547.71094.4961 3.76172-.4961-3.76172-.60547"/><path fill="#00a8fc" fill-rule="evenodd" d="M405.86328 463.20703l-3.14453-.63281 3.14453-.8086.91016.8086-.91016.63281"/><path fill="#00c4fc" fill-rule="evenodd" d="M405.86328 446.3086l-2.73047-1.48829 2.73047-3.00781 1.92969-1.42969 2.50781-1.01172v2.19532l-4.4375 2.89453-.32812.35937.32812.17969 4.4375.6289 2.36328-.80859-2.36328-3.2539v-2.19532l4.4375.30079.72656.71093-.03515 4.4375-.6914.51563-4.4375 1.26953-4.4375-.29688"/><path fill="#00b8fc" fill-rule="evenodd" d="M405.86328 445l-.32812-.17969.32812-.35937 4.4375-2.89453 2.36328 3.2539-2.36328.8086-4.4375-.62891"/><path fill="#fff" fill-opacity="0" fill-rule="evenodd" d="M410.30078 449.14453l-1.14062.11719 1.14062 1.14062.83594-1.14062-.83594-.11719"/><path fill="#50fcfc" fill-rule="evenodd" d="M423.61719 463.17188l-.78125-.59766.78125-3.59375.89062 3.59375-.89062.59765"/><g clip-path="url(#c)"><path fill="#fff" fill-opacity="0" fill-rule="evenodd" d="M467.9961 480.32813H468V311.67188h-.0039H468v168.65625h-.0039"/></g><path fill="#fff" fill-opacity="0" fill-rule="evenodd" d="M334.28516 446.47656l4.49609-3.72656-6.35938-7.66797-4.49609 3.72656 6.35938 7.66797"/><path fill-rule="evenodd" d="M331.78906 437.98828l.39453-.32422 4.01563 4.84375-.60547.5039-2.86328-3.45702-1.07031.88672-.35547-.4297.39062-.40624.16016-.20313.11719-.21484.0664-.23828v-.27344l-.07812-.3164-.17188-.3711"/><path fill="#fff" fill-opacity="0" fill-rule="evenodd" d="M382.8711 430.19531l5.22656-2.61328-4.45704-8.91015-5.22265 2.61328 4.45312 8.91015"/><path fill-rule="evenodd" d="M382.36719 421.35938l.45703-.22657 2.8125 5.6289-.70313.35157-2.0078-4.01562-1.2422.62109-.24609-.4961.46875-.30859.20313-.16015.16406-.1836.1211-.21875.05858-.26562-.0039-.32422-.08203-.40235"/><path fill="#fff" fill-opacity="0" fill-rule="evenodd" d="M387.23438 461.09375l2.0039 5.48828 9.35938-3.41797-2.00391-5.48828-9.35938 3.41797"/><path fill-rule="evenodd" d="M396.07031 461.59375l.17578.47656-5.91406 2.16016-.26953-.73828 4.21875-1.54297-.47656-1.30078.51953-.1914.2539.5039.13672.21875.16407.1836.20312.14062.2539.09375.32813.03125.40625-.03516"/><path fill="#fff" fill-opacity="0" fill-rule="evenodd" d="M338.88672 421.61328l5.04297-2.94922-5.02735-8.59765-5.04296 2.9453 5.02734 8.60157"/><path fill-rule="evenodd" d="M337.80469 412.82813l.4414-.25782 3.17579 5.4336-.6797.39843-2.26562-3.875-1.19922.70313-.28125-.48047.45313-.33984.1914-.17188.15235-.19531.10156-.22266.04688-.26953-.02735-.32812-.10937-.39454"/><path fill="#fff" fill-opacity="0" fill-rule="evenodd" d="M405.1211 447.02734l5.92187-5.26562-6.77344-7.61719-5.92187 5.26563 6.77343 7.61718"/><path fill-rule="evenodd" d="M401.42188 439.13281l2.45312-2.1836.49219.55079-1.96875 1.7539 1.02344 1.50391.0625-.27344.11328-.27734.18359-.28125.26563-.28125.2578-.19531.3086-.16016.34766-.11328.3789-.04297.39454.03516.20312.05078.20313.07813.20312.10937.20313.13672.20312.16797.19922.20312.26562.35547.20313.3789.125.40235.04687.41406-.03906.41407-.0586.20703-.07812.20312-.10547.19922-.1328.19531-.16017.1875-.1875.1836-.37109.28515-.36719.1875-.35546.10157-.34766.01953-.33985-.04688-.32812-.10937-.3125-.16016-.30078-.20703.58594-.52344.21484.1211.21484.08593.21485.0547.20703.01562.20703-.01563.20313-.0586.1953-.09765.1836-.14062.21875-.22657.16406-.24218.10547-.25.04297-.26172-.01953-.26953-.08594-.27735-.14844-.28125-.21875-.28515-.1914-.1836-.21875-.15625-.24219-.11719-.25781-.07421-.27344-.01563-.28125.04688-.28125.11718-.27734.19922-.22656.25-.13672.26953-.08204.32032-.05078.40625-.51953.46484-1.92969-2.86719"/><g clip-path="url(#d)"><path fill="none" stroke="#000" stroke-linecap="round" stroke-linejoin="round" stroke-miterlimit="10" stroke-width=".5" d="M147.5 480.64453l-7-.63281"/></g><g clip-path="url(#e)"><path fill="none" stroke="#000" stroke-linecap="round" stroke-linejoin="round" stroke-miterlimit="10" stroke-width=".5" d="M147.5 480.64453l.95313 2.26172"/></g><g clip-path="url(#f)"><path fill="none" stroke="#000" stroke-linecap="round" stroke-linejoin="round" stroke-miterlimit="10" stroke-width=".5" d="M160.82813 480.29688l-7.02735.0625"/></g><g clip-path="url(#g)"><path fill="none" stroke="#000" stroke-linecap="round" stroke-linejoin="round" stroke-miterlimit="10" stroke-width=".5" d="M160.82813 480.29688L162 482.45313"/></g><g clip-path="url(#h)"><path fill="none" stroke="#000" stroke-linecap="round" stroke-linejoin="round" stroke-miterlimit="10" stroke-width=".5" d="M174.08984 480.94922l-6.91797-1.23828"/></g><g clip-path="url(#i)"><path fill="none" stroke="#000" stroke-linecap="round" stroke-linejoin="round" stroke-miterlimit="10" stroke-width=".5" d="M173.08203 480.76953l.375 1.16797"/></g><g clip-path="url(#j)"><path fill="none" stroke="#000" stroke-linecap="round" stroke-linejoin="round" stroke-miterlimit="10" stroke-width=".5" d="M187.42578 480.82031l-6.96094-.98437"/></g><g clip-path="url(#k)"><path fill="none" stroke="#000" stroke-linecap="round" stroke-linejoin="round" stroke-miterlimit="10" stroke-width=".5" d="M186.41016 480.67969l.42187 1.15234"/></g><g clip-path="url(#l)"><path fill="none" stroke="#000" stroke-linecap="round" stroke-linejoin="round" stroke-miterlimit="10" stroke-width=".5" d="M200.6289 481.32031l-6.73827-1.98437"/></g><g clip-path="url(#m)"><path fill="none" stroke="#000" stroke-linecap="round" stroke-linejoin="round" stroke-miterlimit="10" stroke-width=".5" d="M199.64844 481.03125l.25 1.20313"/></g><g clip-path="url(#n)"><path fill="none" stroke="#000" stroke-linecap="round" stroke-linejoin="round" stroke-miterlimit="10" stroke-width=".5" d="M213.97656 481.21094l-6.80078-1.76563"/></g><g clip-path="url(#o)"><path fill="none" stroke="#000" stroke-linecap="round" stroke-linejoin="round" stroke-miterlimit="10" stroke-width=".5" d="M212.98828 480.95703l.28125 1.1914"/></g><g clip-path="url(#p)"><path fill="none" stroke="#000" stroke-linecap="round" stroke-linejoin="round" stroke-miterlimit="10" stroke-width=".5" d="M227.40234 480.39063l-7.02343-.125"/></g><g clip-path="url(#q)"><path fill="none" stroke="#000" stroke-linecap="round" stroke-linejoin="round" stroke-miterlimit="10" stroke-width=".5" d="M226.38281 480.3711l.55469 1.09374"/></g><g clip-path="url(#r)"><path fill="none" stroke="#000" stroke-linecap="round" stroke-linejoin="round" stroke-miterlimit="10" stroke-width=".5" d="M240.60938 481.20313l-6.8086-1.75"/></g><g clip-path="url(#s)"><path fill="none" stroke="#000" stroke-linecap="round" stroke-linejoin="round" stroke-miterlimit="10" stroke-width=".5" d="M239.61719 480.94922l.28906 1.1914"/></g><g clip-path="url(#t)"><path fill="none" stroke="#000" stroke-linecap="round" stroke-linejoin="round" stroke-miterlimit="10" stroke-width=".5" d="M253.30469 482.47266l-5.5664-4.28907"/></g><g clip-path="url(#u)"><path fill="none" stroke="#000" stroke-linecap="round" stroke-linejoin="round" stroke-miterlimit="10" stroke-width=".5" d="M265.45703 483.44531l-3.24219-6.23437"/></g><g clip-path="url(#v)"><path fill="none" stroke="#000" stroke-linecap="round" stroke-linejoin="round" stroke-miterlimit="10" stroke-width=".5" d="M279.07031 483.27344l-3.83984-5.88672"/></g><g clip-path="url(#w)"><path fill="none" stroke="#000" stroke-linecap="round" stroke-linejoin="round" stroke-miterlimit="10" stroke-width=".5" d="M292.78516 482.96875l-4.63672-5.28125"/></g><g clip-path="url(#x)"><path fill="none" stroke="#000" stroke-linecap="round" stroke-linejoin="round" stroke-miterlimit="10" stroke-width=".5" d="M305.71094 483.26563l-3.85938-5.875"/></g><g clip-path="url(#y)"><path fill="none" stroke="#000" stroke-linecap="round" stroke-linejoin="round" stroke-miterlimit="10" stroke-width=".5" d="M318.24219 483.65234l-2.29297-6.64453"/></g><g clip-path="url(#z)"><path fill="none" stroke="#000" stroke-linecap="round" stroke-linejoin="round" stroke-miterlimit="10" stroke-width=".5" d="M330.875 483.8125l-.92578-6.96484"/></g><g clip-path="url(#A)"><path fill="none" stroke="#000" stroke-linecap="round" stroke-linejoin="round" stroke-miterlimit="10" stroke-width=".5" d="M344.11719 483.82031l-.78516-6.98437"/></g><g clip-path="url(#B)"><path fill="none" stroke="#000" stroke-linecap="round" stroke-linejoin="round" stroke-miterlimit="10" stroke-width=".5" d="M356.66797 483.82422l.7461-6.98828"/></g><g clip-path="url(#C)"><path fill="none" stroke="#000" stroke-linecap="round" stroke-linejoin="round" stroke-miterlimit="10" stroke-width=".5" d="M370.71094 483.82422L370 476.83203"/></g><g clip-path="url(#D)"><path fill="none" stroke="#000" stroke-linecap="round" stroke-linejoin="round" stroke-miterlimit="10" stroke-width=".5" d="M384.16797 483.8086l-.99219-6.95704"/></g><g clip-path="url(#E)"><path fill="none" stroke="#000" stroke-linecap="round" stroke-linejoin="round" stroke-miterlimit="10" stroke-width=".5" d="M399.25781 483.00781l-4.54297-5.35937"/></g><g clip-path="url(#F)"><path fill="none" stroke="#000" stroke-linecap="round" stroke-linejoin="round" stroke-miterlimit="10" stroke-width=".5" d="M413.35938 482.0586l-6.1172-3.46094"/></g><g clip-path="url(#G)"><path fill="none" stroke="#000" stroke-linecap="round" stroke-linejoin="round" stroke-miterlimit="10" stroke-width=".5" d="M425.83203 477.60156l-4.42969 5.45313"/></g><path fill="none" stroke="#000" stroke-linecap="round" stroke-linejoin="round" stroke-miterlimit="10" stroke-width=".5" d="M425.1875 478.39453l1.20313.23828"/><g clip-path="url(#H)"><path fill="none" stroke="#000" stroke-linecap="round" stroke-linejoin="round" stroke-miterlimit="10" stroke-width=".5" d="M438.89844 483.23828l-3.9336-5.82031"/></g><g clip-path="url(#I)"><path fill="none" stroke="#000" stroke-linecap="round" stroke-linejoin="round" stroke-miterlimit="10" stroke-width=".5" d="M453.4961 481.66797l-6.5-2.67578"/></g><g clip-path="url(#J)"><path fill="none" stroke="#000" stroke-linecap="round" stroke-linejoin="round" stroke-miterlimit="10" stroke-width=".5" d="M464.07422 483.80469l-1.02735-6.95313"/></g><g clip-path="url(#K)"><path fill="none" stroke="#000" stroke-linecap="round" stroke-linejoin="round" stroke-miterlimit="10" stroke-width=".5" d="M147.48828 467.4414l-6.97656-.85546"/></g><path fill="none" stroke="#000" stroke-linecap="round" stroke-linejoin="round" stroke-miterlimit="10" stroke-width=".5" d="M146.47266 467.3164l.4414 1.14454m13.91406-1.54297l-7.02343.1914m6-.16406l.60547 1.0664m13.73437-1.03515l-7.02734.07422m6.0039-.0625l.58594 1.07813m13.24219-2.87891l-6.00781 3.65234m5.1328-3.12109l1.0547.6289m13.30468-.83984l-6.34765 3.01172m19.17969.7539l-5.38282-4.51952m18.08985-.57032l-4.16407 5.66016m13.98438-6.04688l2.82812 6.4336m12.92188-3.21485l-.01953-.20312-.0586-.1914-.09375-.17579-.46093-.375-.19141-.0586-.19922-.01952-.19922.01953-.1914.0586-.45703.375-.09766.17577-.05469.19141-.01953.20313.01953.19921.05469.19141.09766.17578.45703.375.1914.0586.19922.01953.19922-.01953.1914-.0586.46094-.375.09375-.17578.0586-.1914.01953-.19923m9.78125 2.45313l5.02344-4.91016m8.22265 4.83985l5.16406-4.76953m7.6797 4.1289l6.10155-3.48437m9.1875 5.08203l2.15625-6.6836m13.10547 6.7461l-1.73828-6.8086m17.1211 5.33204l-5.875-3.85547m5.01953 3.29687l-.11328 1.21875m10.9414.90235l.8086-6.98047m-.69141 5.96484l-1.14063.44922m12.03516-.6836l5.41797-4.48046m-4.6289 3.82812l-1.13282-.46875m14.42188 1.8086l3.89062-5.85547m-3.32422 5.0039l-1.21875-.12109m14.96094 1.42578l1.90625-6.76172m-1.6289 5.77735l-1.19923.26172m11.72266-3.22657l6.9336 1.13672M410.73046 470.5l-.85938-6.97266m.73438 5.95704l-1.0039.70703m12.99609.18359l2.03906-6.72266m-1.74219 5.7461l-1.20312.23828m15.64453.86719l-.8086-6.98047m.69141 5.96484l-1.00781.69531m15.9375-.21484l-3.80078-5.91016m3.24609 5.05078l-.59766 1.07032m15.03907-.67188l-4.94922-4.98828m4.23047 4.26172l-.36329 1.17188"/><g clip-path="url(#L)"><path fill="none" stroke="#000" stroke-linecap="round" stroke-linejoin="round" stroke-miterlimit="10" stroke-width=".5" d="M147.3164 454.86328l-6.6328-2.32812"/></g><path fill="none" stroke="#000" stroke-linecap="round" stroke-linejoin="round" stroke-miterlimit="10" stroke-width=".5" d="M146.35156 454.52344l.1836 1.21484m14.17578-1.14062l-6.79297-1.79688m5.80469 1.53516l.28125 1.19531m13.28906-4.125l-5.32813 4.58203m17.25782-5.5625l-2.5586 6.54688m11.13281-2.67578l6.92579-1.19532m6.49609-.4414l6.71484 2.07812m6.6172-2.1289l6.67968 2.17968m-5.70703-1.86328l-.21094-1.20703m12.57031.83984l6.64453 2.28125m-5.67968-1.94922l-.19141-1.21093m12.77344.34375l6.17969 3.34765m8.48437-4.72265l3.48438 6.10156m-2.97657-5.21484l.65235-1.03907m10.74218 4.7461l6.3125-3.08594m-5.39453 2.63672l-.9961-.71875m13.20704.71484l6.67969-2.17969m6.76562 2.51954l6.41797-2.86329m-5.48437 2.44922l-.96485-.7539m13.89453 2.03125l5.32422-4.58985m-4.54687 3.92188l-1.14453-.4414m13.48437.85546l5.72266-4.07812m-4.89063 3.48437l-1.09765-.54687m13.0625.0703l6.7578-1.9375m-5.77343 1.65626l-.85156-.88281m13.08984.74609l6.9414-1.10156m-5.92968.9414l-.73828-.98047m13.03125 1.0625l6.96094-.9453m-5.94922.80859l-.71484-.9961m12.98437.63281l7.02734.0547m-6.0039-.04688l-.5664-1.08594m12.86718.875l7.01172.45703m-5.99219-.39062l-.5039-1.1172m12.88671 2.09376l6.83594-1.625m-6.83594 1.625l-1.6211-1.83985m18.71095 4.52344l-.71094-6.99219m.71094 6.9922l-2.03907 1.36327m13.0586-1.92968l3.8789-5.85938m-3.8789 5.85938l-2.4414-.23829m3.0039-.61328l-1.21875-.12109m15.4375 1.52344l.94922-6.96094m-.94922 6.96094l-2.30469.84765m17.4961-1.10547l-2.8047-6.4453m2.39454 5.5078l-.76172.95704"/><g clip-path="url(#M)"><path fill="none" stroke="#000" stroke-linecap="round" stroke-linejoin="round" stroke-miterlimit="10" stroke-width=".5" d="M147.23828 441.7461l-6.47656-2.72266"/></g><path fill="none" stroke="#000" stroke-linecap="round" stroke-linejoin="round" stroke-miterlimit="10" stroke-width=".5" d="M155.0039 443.03125l4.6211-5.29297m10.65234 6.14063l.70313-6.9922M182.5 443.58595l2.89063-6.40625m12.89062 3.20312l-.01953-.19922-.0586-.1914-.09375-.17578-.45703-.37891-.1914-.0586-.19922-.01952-.19922.01953-.19531.05859-.45703.3789-.09375.17579-.0586.1914-.01953.19922.01953.19922.0586.1914.09375.1797.45703.375.19531.05859.19922.01953.19922-.01953.1914-.0586.45703-.375.09375-.17968.0586-.1914.01953-.19923m11.60938-3.44531l1.37109 6.89063m-1.17188-5.88672l.94922-.77735m10.55078.5625l4.60157 5.3125M222.2578 438.5l.44531-1.14453m11.13282 4.02344l6.73828-1.9922m-5.75781 1.70313l-.85938-.875m13.11719-.5078l6.89453 1.35155m-5.89453-1.15625l-.35547-1.17187m13.4336-.61719l5.36718 4.53906m-4.58594-3.8789l.26172-1.19922m15.27344-.6914l-.63672 7m.54688-5.98048l1.1289-.47265m11.64453-.54688l.625 7m-.53515-5.98047l1.03125-.67187m10.85547.05078l3.30468 6.20313m-2.82422-5.30079l.6875-1.01562m10.4922 2.03125l6.61327 2.3711m7.46485-3.61329l5.08593 4.85156m7.28125-2.83203l6.98047.8164m-5.96484-.69921l-.44531-1.14062m12.72265 1.42968h7.02735m-6.0039 0l-.57813-1.08203m12.87109 1.03516l7.02734.09765m-7.02734-.09765l-1.1211-2.1836m14.64454 1.04297l6.60937 2.3789m-6.60937-2.3789l-.35157-2.42968m13.46094 3.8203l7.01563-.40234m-7.01563.40235l-1.27344-2.09766m15.3047 4.02735l5.58593-4.26563m-5.58594 4.26563l-2.23047-1.01954m16.50782 1.88672l3.66406-5.9961m-3.66406 5.9961l-2.44922-.14843m16.33203.42578l2.52734-6.5547m-2.52734 6.5547l-2.4375.29687m15.80469-.27344l2.42187-6.59765m-2.42187 6.59765l-2.4297.33204m2.78126-1.29297l-1.21485.16797m14.75782.94921l1.26172-6.91406m-1.26172 6.91406l-2.33594.7422"/><g clip-path="url(#N)"><path fill="none" stroke="#000" stroke-linecap="round" stroke-linejoin="round" stroke-miterlimit="10" stroke-width=".5" d="M147.3711 426.07031l-6.7422 1.9961"/></g><path fill="none" stroke="#000" stroke-linecap="round" stroke-linejoin="round" stroke-miterlimit="10" stroke-width=".5" d="M146.39063 426.36328l.85937.875m13.38672-1.3164l-6.64453 2.29296m5.67578-1.96093l.89844.83593m13.23828 1.48438l-6.34766-3.01172m19.53516 3.25781l-6.09375-3.5039m5.20703 2.99218l-.04297 1.22657m14.66406-3.03125l-6.9336 1.1289m5.92579-.96484l.74219.97656m13.40625.65625l-6.58203-2.46484m6.58203 2.46484l.3164 2.4336m12.94141-5.03907l-6.46875 2.7461m6.46875-2.7461l1.90625 1.54297m11.51953-1.25l-6.6875 2.16016m5.71484-1.84375l.87891.85156m10.60547-3.5586l-1.08594 6.94141m.92969-5.9336l1.16016-.39843m8.98437.71875l5.5664 4.28516m-4.7539-3.66406l.20313-1.20704m15.36718-.77343l-.5664 7.0039m.48437-5.98437l1.1289-.48828m9.0547 1.03125l5.85937 3.8789m11.78125-5.16406l-2.78906 6.44922m13.92578.19922l1.5664-6.84766m13.5547 3.42578l-.01954-.20312-.0586-.1914-.09374-.17579-.46094-.375-.1914-.0586-.19922-.01952-.19922.01953-.1914.05859-.45704.375-.09766.17578-.05859.1914-.01953.20313.01953.19922.0586.1914.09765.17579.45703.375.1914.0586.19923.01952.19922-.01953.1914-.0586.46094-.375.09375-.17577.0586-.1914.01952-.19923m8.78907-.28125l7.0078.5586m-5.98827-.47657l-.48828-1.125m13.3164 3.19922l5.9414-3.7539m-5.07812 3.20703l-1.0625-.60938m14.21485 1.96094l4.53906-5.36328m-4.53906 5.36328l-2.39844-.51953m15.61719-4.76172l4.73047 5.19922m-4.03907-4.4414l.41407-1.15626m18.0039 3.77344l-6.85547-1.55078m5.85547 1.32812l.32422 1.1836m8.57422 1.16015l3.97656-5.79296m-3.97656 5.79296l-2.4375-.27343m3.01563-.57032l-1.21875-.13671m13.10546.15625l5.67579-4.14454m-5.67579 4.14454l-2.20703-1.07032m3.03516.46485L420.5 428m14.55078 2.03906l3.76172-5.9375m-3.21484 5.07032l-1.22266-.08985m15.1289 1.42188l1.48829-6.8711m-1.48828 6.8711l-2.36328.66406m2.57812-1.66406l-1.17969.33203m13.77344.51562l2.4961-6.5664m-2.4961 6.5664l-2.4336.3086m2.79688-1.26172l-1.21484.15234"/><g clip-path="url(#O)"><path fill="none" stroke="#000" stroke-linecap="round" stroke-linejoin="round" stroke-miterlimit="10" stroke-width=".5" d="M146.9336 411.82031l-5.8672 3.86719"/></g><path fill="none" stroke="#000" stroke-linecap="round" stroke-linejoin="round" stroke-miterlimit="10" stroke-width=".5" d="M146.07813 412.38281l1.07812.58594m13.46484-.40234l-6.61328 2.375m5.65235-2.02735l.90625.82422m13.14843-1.66797l-6.16797 3.36328m5.26954-2.87109l1.02343.67578m13.58985.0586l-6.96875.91406m5.95312-.78125l.71094 1m13.13281 1.15625l-5.9961-3.66406m5.9961 3.66406l-.14453 2.44922m12.79297-1.65235l-4.66016-5.25781m4.66016 5.25781l-.85938 2.30078m12.10157-1.42578l-.51563-7.00781m.4414 5.98828l-1.03905.65235m17.4453-1.85938l-6.54687-2.55469m5.59375 2.1836l.14063 1.21875m13 .65625l-4.29688-5.5625m3.67188 4.75l-.5039 1.12109m13.54687-6.375l-2.5 6.57031m15.10547-6.75781l-1.08203 6.94531m.92578-5.9336l1.16015-.40233m10.8125-.51563l1.91797 6.75781m-1.64062-5.77734l.88672-.84766m12.99218-.26562l.23438 7.02344m-.19922-6l1.0625-.61329m12.28125-.41015l.10547 7.02344m-.08985-6.00391l1.07422-.58984m14.50781 5.79687l-4.46093-5.42969m3.8125 4.64063l-.46875 1.13281m14.02734-6.0625l-3.65234 6.0039m16.0586.39063l-1.83204-6.78515m1.5664 5.80078l-.89843.83593m11.07031-.76953l4.98828-4.94922m-4.26172 4.23047l-1.17187-.36328m12.76172-1.00781l6.98437-.76563m-6.98437.76563l-1.38281-2.02734m2.39843 1.91796l-.6914-1.01562m13.75-1.46875l5.46484 4.42187m-5.46484-4.42187l.46875-2.41016m.32812 3.05469l.23438-1.20703m11.6328 1.82422l6.76563 1.89453m-5.78125-1.61719l-.26171-1.19922m12.65234 3.00782l6.64844-2.27344m-5.6836 1.9414l-.89453-.83984m19.33985-2.1289l-5.54297 4.32421m5.54296-4.32422l2.23829 1m9.57812 4.4375l-2.54687-6.54687m2.17578 5.59375l-.79688.92969m16.58203-2.26172l-6.74218-1.97656m5.76171 1.6875l.2461 1.20312"/><g clip-path="url(#P)"><path fill="none" stroke="#000" stroke-linecap="round" stroke-linejoin="round" stroke-miterlimit="10" stroke-width=".5" d="M147.17969 398.9414l-6.35938 2.9922"/></g><path fill="none" stroke="#000" stroke-linecap="round" stroke-linejoin="round" stroke-miterlimit="10" stroke-width=".5" d="M146.2539 399.3789l.98438.73438m13.32813-1.00781l-6.5 2.66797m6.5-2.66797l1.88672 1.5664m11.64843-.78515l-6.9414 1.10547m6.9414-1.10547l1.47656 1.95703m11.35157-3.25781l-5.96875 3.70312m5.10156-3.16406l1.0586.61719m10.77343 4.15234l-1.26562-6.91406m1.07812 5.91015l-.96094.75782m14.40235.25781L210 396.97265m1.14844 6.9336l-1.94922 1.48828m16.13672-1.7539l-2.89063-6.40625m2.89063 6.40625l-1.5 1.9414m15.5039-2.35156l-4.26953-5.58203m3.64844 4.76953l-.51172 1.11328m13.33594-3.09375l-.01953-.19922-.0586-.1914-.09375-.17579-.46093-.3789-.19141-.05469-.19922-.02344-.19922.02344-.1914.05469-.45703.3789-.09766.17579-.05469.1914-.01953.19922.01953.19922.05469.1914.09766.1797.45703.375.1914.05859.19922.01953.19922-.01953.1914-.0586.46094-.375.09375-.17969.0586-.1914.01953-.19922m15.72656-.73828l-6.8711 1.47656m5.8711-1.26172l.79297.9414m13.51172-1.20702l-6.84766 1.57812m15.17188-3.9336l3.13672 6.28907m-2.6797-5.3711l.71095-1m10.90625 1.1172l5.61718 4.21875m-5.61718-4.21875l.3789-2.42579m12.40235 3.44922l6.68359 2.17188m-6.6836-2.17188l-.42578-2.41406m14.28907 1.3711l5.58984 4.2578m-4.77734-3.63671l.19922-1.21094m14.8164 6.22266l.5586-7.00391m12.16406 6.90625l1.7461-6.8086m-1.4922 5.81641l-1.1914.28906m13.375.34375l3.5-6.09375m-3.5 6.09375l-2.45313-.07812m15.125-.39453l4.78907-5.14453m-4.09375 4.39453l-1.1836-.3164m14.73047-4.69923l2.9336 6.38282m-2.9336-6.38282l1.48438-1.95312m11.125 2.38672l4.34765 5.51953m-4.34765-5.51953l.98828-2.2461m17.66015 6.53516l-6.32422-3.0625m5.40625 2.61719l.04688 1.22656m14.51562-2.70313l-6.98046.78516m6.98046-.78515l1.38672 2.02343m11.8086-2.6289l-6.73828 1.99609m5.7578-1.70703l.85938.875m12.4922-2.70703l-4.85157 5.08203"/><g clip-path="url(#Q)"><path fill="none" stroke="#000" stroke-linecap="round" stroke-linejoin="round" stroke-miterlimit="10" stroke-width=".5" d="M465.98828 397.89844l2.36328.66406"/></g><g clip-path="url(#R)"><path fill="none" stroke="#000" stroke-linecap="round" stroke-linejoin="round" stroke-miterlimit="10" stroke-width=".5" d="M147.01172 385.3164l-6.02344 3.61329"/></g><path fill="none" stroke="#000" stroke-linecap="round" stroke-linejoin="round" stroke-miterlimit="10" stroke-width=".5" d="M146.13672 385.84375l1.05078.63281m13.60938.17578l-6.96485.94141m5.95313-.80469l.71484.9961m11.40625-3.9336l-2.55469 6.54297m2.1836-5.59375l1.21875-.14062m9.80468-.76563l2.77344 6.45703m-2.36719-5.51953l.76563-.95312m10.60937 1.28906l5.83985 3.91015m-4.98828-3.33984l.12109-1.22265m13.42969 5.60546l3.66406-5.99609m-3.66406 5.9961l-2.44922-.14844m20.17578-.46094l-5.15625-4.77735m5.15625 4.77735l-.625 2.3711m14.35547-2.92188l-5.98828-3.67578m5.98828 3.67578l-.15234 2.44922m13.54296-2.57813l-6.14062-3.41797m6.14062 3.41797l-.04687 2.45313m13.60156-2.98438l-6.61719-2.35547m5.65625 2.01172l.1797 1.21485m13.02734-4.75782l-4.48047 5.41797m12.39843-4.25l6.3125 3.08594m-5.39453-2.63672l-.03906-1.22656m13.64063-.60156l3.90625 5.83984m-3.90625-5.83985l1.16015-2.16406m13.73438 1.58985l.74609 6.98828m-.7461-6.98828l2.03126-1.375m-1.92188 2.39062l1.01563-.6875m11.72265-.2461l1.67969 6.82423m-1.67969-6.82422l1.82813-1.63672m-1.58203 2.6289l.91406-.8164m11.67578 6.49219l2.63672-6.51172m-2.63672 6.51172l-2.4375.2578m14.09375-1.64843l5.95703-3.73047m-5.95703 3.73047l-2.125-1.22656m14.96484-1.27735l6.91016 1.27735m-5.90625-1.09375l-.36719-1.16797m13.82032-1.02344l4.62109 5.29297m-3.94922-4.52344l.4375-1.14453m11.41406 1.3711l6.20703 3.30078m-6.20703-3.30078v-2.45313m15.85938.63672l1.1211 6.9375m-.96095-5.92969l.98047-.74219m15.57813 5.26563l-5.6875-4.1289m4.85937 3.52734l-.17187 1.21484m14.88281-1.83203l-6.82422-1.6914m6.82422 1.6914l.59375 2.3789m12.17969-5.25l-5.74219 4.05079m4.90625-3.46094l1.09766.55469m11.1953-2.48438l-2.02733 6.73047m2.02734-6.73047l2.40625-.47656"/><g clip-path="url(#S)"><path fill="none" stroke="#000" stroke-linecap="round" stroke-linejoin="round" stroke-miterlimit="10" stroke-width=".5" d="M143.51953 370.32813l.96094 6.96093"/></g><path fill="none" stroke="#000" stroke-linecap="round" stroke-linejoin="round" stroke-miterlimit="10" stroke-width=".5" d="M160.82813 373.75l-7.02735.11719m19.03906-2.78906l-4.42187 5.46093m3.78125-4.66797l1.20312.23438m12.23828-1.375l-3.39062 6.15625m3.39063-6.15625l2.45312.03515m9.13672-.47265l.0586 7.02734m-.0586-7.02734l2.15625-1.16797m13.14844 1.76563l-3.91797 5.83593m3.34765-4.98828l1.21875.1289m13.1836 4.4336l-4.95313-4.98437m4.23438 4.2578l-.36328 1.17188m13.4453.22657l-3.05077-6.33204m3.05078 6.33204l-1.45313 1.98046m1.00782-2.89843l-.72657.98828m16.39453-2.48438l-6.86328-1.5m6.86328 1.5l.66016 2.36329m12.32813-4.75782l-6.21094 3.28906m6.21094-3.28906l2.03125 1.3711m11.16015-1.58594l-5.96093 3.71875m5.96093-3.71875l2.1211 1.22656m10.54297-1.9961l-4.66407 5.25782m4.66406-5.25781l2.38672.57812m9.33594-1.38281l-1.47656 6.86719m1.47656-6.86719l2.35938-.67188m-2.57422 1.66797l1.17969-.33203m12.22656-.6914l-1.23047 6.91796m1.23047-6.91796l2.33594-.75391m-2.51563 1.76172l1.16797-.3789m11.95312-.67188l-.48046 7.00781m.48046-7.00781l2.23829-1.0039m-2.3086 2.02343l1.11719-.5039m13.32812-.27735l-2.60156 6.53125m2.60156-6.53125l2.4375-.26953m6.21875 2.5039l6.71875 2.0586m-5.74218-1.75781l-.23438-1.20313m14.40235-1.23047l3.05859 6.32813m10.07812-6.23829l3.41016 6.14454m-2.91406-5.25l.66797-1.02735m10.34765 3.05078l7.01953.3125m-6-.26953l-.52734-1.10547m16.23438 4.73047l.1953-7.02344m-.16406 6l-1.10156.54688M426.36328 376l-5.49219-4.38281M426.3633 376l-.45313 2.41406m14.03906-2.8086l-6.03516-3.59765m5.15625 3.07422l-.0586 1.22656m14.14063-4.47656l-5.80859 3.95313m4.96094-3.37891l1.08594.57031m12.05859-2.13281l-3.77344 5.92969"/><g clip-path="url(#T)"><path fill="none" stroke="#000" stroke-linecap="round" stroke-linejoin="round" stroke-miterlimit="10" stroke-width=".5" d="M465.44922 370.84375l2.44531.1914"/></g><path fill="none" stroke="#000" stroke-linecap="round" stroke-linejoin="round" stroke-miterlimit="10" stroke-width=".5" d="M464.89844 371.70703l1.22265.09375"/><g clip-path="url(#U)"><path fill="none" stroke="#000" stroke-linecap="round" stroke-linejoin="round" stroke-miterlimit="10" stroke-width=".5" d="M140.80078 359.03906l6.39844 2.91016"/></g><path fill="none" stroke="#000" stroke-linecap="round" stroke-linejoin="round" stroke-miterlimit="10" stroke-width=".5" d="M153.8164 360.8086l6.9961-.63282m-5.97656.54297l-.67188-1.02734m12.95313.8203l7.02734-.03515m12.46094-2.27734l-5.32031 4.58984m4.54687-3.92187l1.14453.44531m13.32422-.57813l-6.08203 3.51954m5.19922-3.00782l1.03906.64844m12.34375-2.1211l-4.44922 5.4375m3.80078-4.64452l1.20313.23828m13.02734 4.16406l-4.98437-4.94922m4.98437 4.94922l-.70703 2.34766m-.01562-3.07032l-.35547 1.17579m13.28125.30078l-2.76172-6.46094m2.76172 6.46094l-1.53906 1.91015m16.78515-3.96875l-6.625-2.34375m5.66406 2.0039l.1797 1.21095m12.98827.6953l-4.40625-5.47655m3.76563 4.67968l-.48438 1.12891m9.11719-4.6914l6.23828 3.24218m-5.32812-2.76953l-.01172-1.22656m15.41406-1.13672l.2461 7.02344m-.2461-7.02344l2.125-1.22656m-2.08984 2.25l2.125-1.22657m11.52734.21094l-.5 7.00781m.5-7.0078l2.24219-.9961m-2.3164 2.01562l1.12109-.4961m13.3203-.28124l-2.60546 6.52734m2.60547-6.52734l2.4375-.26953m-2.8164 1.21875l2.4375-.26563m10.61327-.8711l-1.3164 6.90235m1.3164-6.90234l2.34375-.72656m-2.53515 1.73046l1.17187-.36328m12.21875-.66015l-1.08594 6.9414m1.08594-6.9414l2.3164-.80469m-2.47655 1.8125l1.16015-.40234m13.375-.26172l-3.20703 6.2539m3.20703-6.2539l2.45313-.03906m-2.92188.94921l2.45313-.03906m11.32422-.875l-3.19532 6.25781m17.07813-5.89453l-4.32813 5.53516m3.69922-4.73047l1.20703.21484M400.5 360.5586l-7.02734-.1328m6.0039.11327l.55469 1.09375m12.53125 1.55078l-4.52344-5.3789m4.52344 5.3789l-.91406 2.27344m14.22656-2.27344l-4.51953-5.3828m4.51953 5.3828l-.91797 2.27735m14.08985-2.16406l-4.23047-5.60938m3.61718 4.79297l-.51953 1.11328m15.17188-1.03125l-5.67969-4.13672m4.85547 3.53516l-.17188 1.21484m14.07032-5.05078l-5.19532 4.73438"/><g clip-path="url(#V)"><path fill="none" stroke="#000" stroke-linecap="round" stroke-linejoin="round" stroke-miterlimit="10" stroke-width=".5" d="M466.16016 358.125l2.30859.82813"/></g><g clip-path="url(#W)"><path fill="none" stroke="#000" stroke-linecap="round" stroke-linejoin="round" stroke-miterlimit="10" stroke-width=".5" d="M141 345.35156l6 3.65235"/></g><path fill="none" stroke="#000" stroke-linecap="round" stroke-linejoin="round" stroke-miterlimit="10" stroke-width=".5" d="M153.84375 346.63281l6.9414 1.08985m-6.9414-1.08985l-.80078-2.3164M167.625 349l6.00781-3.64453M168.5 348.46875l-1.05469-.625m13.01563-.21094l6.96875-.91015m-5.95313.77734l-.71484-.9961m17.51953.67579l-.01953-.19922-.0586-.19531-.09375-.17579-.45703-.375-.1914-.05859-.19922-.01953-.19922.01953-.19531.0586-.45703.375-.09375.17578-.0586.1953-.01953.19923.01953.19922.0586.1914.09375.17578.45703.375.19531.0586.19922.01953.19922-.01953.1914-.0586.45703-.375.09375-.17578.0586-.1914.01953-.19922m14.36719-2.83985l-4.14453 5.67579m3.53906-4.84766l1.21484.17187m13.91406.58204l-6.5625 2.51171m5.60547-2.14843l.92578.80859m13.15235 1.75781l-6.17578-3.34765m5.27734 2.86328l-.00781 1.22656m13.3789.28516l-4.49218-5.40235m3.83984 4.61719l-.46484 1.13672m15.48828-1.84766l-6.60156-2.41015m5.64062 2.05859l.16797 1.21484m8.09375-4.30078l5.42578 4.46485m-4.63672-3.8125l.24219-1.20313m13.9414-.5664l2.10938 6.70312m-2.10937-6.70313l1.72265-1.75m-1.41406 2.72266l.85938-.875m11.99609-.04687l2.41406 6.59765m-2.41406-6.59765l1.63672-1.82813m-1.28516 2.78906l.8164-.91406m13.77345-.23437l-.83985 6.97656m.83985-6.97656l2.28906-.88672m-2.41016 1.89844l1.14453-.44141m12.89063-.44531l-2.03906 6.72265m2.03906-6.72265l2.40625-.47657m-2.70313 1.45313l2.40625-.47266m9.32813-.55078l1.71875 6.8164m-1.71875-6.8164l1.8164-1.64453m-1.5664 2.63672l.91015-.82422m12.65625-.2539l.71485 6.98827m-.71485-6.98828l2.03907-1.36718m-1.9336 2.3828l2.03516-1.36718m12.26953.41016l-1.47266 6.8711m1.47266-6.8711l2.35938-.67188m-2.57422 1.67188l2.35937-.67188m7.86328.71094l5.13672 4.79297m9.98828-5.82813l1.51953 6.86329m13.48438-6.82032l-1.85547 6.77735m1.58203-5.79297l1.19922-.26953m10.88281 6.14062l1.15625-6.9336m-1.15625 6.9336l-2.32812.78125m15.80469-.75781l.83203-6.98047m-.71094 5.96484l-1.14453.44141m17.28515-.47656l-5.0625-4.8789m4.32422 4.16796l-.33593 1.17969m15.33203-3.4375l-6.94532 1.0586"/><g clip-path="url(#X)"><path fill="none" stroke="#000" stroke-linecap="round" stroke-linejoin="round" stroke-miterlimit="10" stroke-width=".5" d="M467.03516 346.64844l1.46484 1.96875"/></g><g clip-path="url(#Y)"><path fill="none" stroke="#000" stroke-linecap="round" stroke-linejoin="round" stroke-miterlimit="10" stroke-width=".5" d="M140.60547 332.96094l6.78906 1.80469"/></g><path fill="none" stroke="#000" stroke-linecap="round" stroke-linejoin="round" stroke-miterlimit="10" stroke-width=".5" d="M153.80078 333.77734l7.02734.17188m-7.02734-.17188l-1.09766-2.1914m14.41797 2.48828l7.01563-.42188m-7.01563.42188l-1.27734-2.09375m14.71094 2.8086l6.78125-1.85548m-6.78125 1.85547l-1.67969-1.78515m14.88281.5625l7.0039.59375m-7.0039-.59375l-.96484-2.25391m14.42969 1.5l6.70703 2.10156m-5.73047-1.79687l-.22656-1.20313m18.66015-.25l-5.48437 4.39844m19.5664-2.35156l-7.01953.30078m6-.2539l.6211 1.05468m12.64843-3.47266l-4.89062 5.04688m4.17969-4.3125l1.17968.33984m11.31641 4.83985l-1.82813-6.78516m11.64454 1.01172l5.16797 4.76172m-4.41407-4.0664l.3086-1.1875m13.07812-.16798l3.51563 6.08594m-3.00391-5.19922l.65234-1.04297m13.85547-.3125l.10938 7.02344m-.10938-7.02344l2.14844-1.1875m9.90234 1.4414l2.63672 6.51563m-2.63672-6.51562l1.57813-1.8789m12.65234 1.64452l.8086 6.98047m-.8086-6.98047l2.01953-1.39062m10.73047 1.5039l1.9375 6.75782m-1.9375-6.75781l1.76563-1.70313m10.10937 2.52344l4.8164 5.11719m-4.8164-5.1172l.78516-2.32421m13.23828 1.8086l3.39844 6.14843m-3.39844-6.14844l1.33984-2.0586m-.84375 2.95313l.66797-1.02734m15.92578.3711l-4.15234 5.67187m3.55078-4.84766l1.21094.17578m8.04687-.54687l5.16797 4.76562m7.67969-4.125l6.10156 3.48438m-5.21484-2.97656l.03906-1.22657m15.38281-1.05078l.1172 7.02344m-.10157-6.0039l1.07422-.59376m10.65234 6.19922l3.26172-6.22656m-2.78516 5.32031l-1.23046.00781m17.65234.70313l-3.90625-5.83984m3.33984 4.99218l-.58203 1.08204m16.01172-3.44141l-7.0039.57812m5.98437-.49218l.66406 1.03125"/><g clip-path="url(#Z)"><path fill="none" stroke="#000" stroke-linecap="round" stroke-linejoin="round" stroke-miterlimit="10" stroke-width=".5" d="M141.70703 317.88672l4.58594 5.32422"/></g><path fill="none" stroke="#000" stroke-linecap="round" stroke-linejoin="round" stroke-miterlimit="10" stroke-width=".5" d="M153.8086 320.34375l7.01562.41016m-7.01563-.41016l-1.02343-2.23047m14.34765 2.7539l6.9961-.63671m-6.9961.63672l-1.34375-2.05469m15.03516 3.34766l6.24219-3.22266m-5.33594 2.7539l-1.00781-.69921m13.04297-.08985l6.99218-.70703m-6.99219.70703l-1.36328-2.03906m14.77735.78516l6.79297 1.79687m-6.79297-1.79687l-.5586-2.38672m13.96485 2.09765l6.60937 2.37891m-6.60937-2.3789l-.35156-2.4297m14.16015 1.51173l5.6211 4.21484m-5.6211-4.21484l.3789-2.42579m15.44532 1.03125l.60156 7m16.22266-4.93359l-6.41406 2.86719m5.48046-2.44922l.96875.7539m12.23438-2.5078l-4.32422 5.53906m3.69531-4.73047l1.20704.21094m9.55468-1.60938l2.04297 6.72266m-1.7461-5.7461l.8672-.86719m10.84375.6211l4.65625 5.26172m-3.98047-4.4961l.42968-1.14843m12.15625.42968l4.76172 5.16797m-4.76172-5.16797l.8125-2.3164m12.38672 2.42578l4.99219 4.94531m-4.99219-4.94531l.70703-2.34766m12.51954 2.4414l5.17187 4.75782m-5.17187-4.75781l.61718-2.375m.13672 3.0664l.3086-1.18359m11.72265 1.2461l6.23047 3.25m-6.23047-3.25l-.01953-2.45313m13.41797 2.30078l6.0625 3.55469m-6.0625-3.55469l.10156-2.44922m14.32813 1.28516l3.83593 5.88672m-3.83593-5.88672l1.1875-2.14844m12.71093 1.83985l2.66797 6.5m-2.28125-5.5547l.78516-.9414m10.58594 1.2539l5.78515 3.98829M408.25 319.1328l.14063-1.21875m13.29687-.30469l3.85938 5.875m-3.29688-5.01953l.58984-1.07421M434 322.48046l5.86328-3.86719m-5.01172 3.30469l-1.07812-.58594m15.79297 2.66406l1.35937-6.89453m-1.16015 5.89063l-1.17579.35547m17.85547-.79297l-5.76562-4.01563m4.92578 3.4336l-.14453 1.21484"/><path fill="#00f" fill-rule="evenodd" d="M321.66406 463.21094h8.61719V453.0625h-8.61719v10.14844"/><path fill="azure" fill-rule="evenodd" d="M323.4961 454.89844h.83202v2.82031h3.28907v-2.82031h.83203v6.48047h-.83203v-2.91797h-3.28906v2.91797h-.83204v-6.48047"/><path fill="#00f" fill-rule="evenodd" d="M206.26563 458.77344h8.61718V448.625h-8.61719v10.14844"/><path fill="azure" fill-rule="evenodd" d="M208.09766 450.45703h.83593v2.82422h3.28516v-2.82422h.83203v6.48047h-.83203v-2.91406h-3.28516v2.91406h-.83593v-6.48047"/><path fill="#00f" fill-rule="evenodd" d="M383.80078 436.57813h8.61719v-10.14454h-8.61719v10.14454"/><path fill="azure" fill-rule="evenodd" d="M385.63281 428.26563h.83203v2.82421h3.28907v-2.82421h.83203v6.48046h-.83203v-2.91406h-3.28907v2.91406h-.83203v-6.48046"/><path fill="#00f" fill-rule="evenodd" d="M215.14453 409.94922h8.61719v-10.14453h-8.61719v10.14453"/><path fill="azure" fill-rule="evenodd" d="M216.97656 401.63672h.83203v2.82422h3.28516v-2.82422h.83594v6.48047h-.83594v-2.91797h-3.28516v2.91797h-.83203v-6.48047"/><path fill="#ff3030" fill-rule="evenodd" d="M326.79688 378.88281h7.6914v-10.14844h-7.6914v10.14844"/><path fill="azure" fill-rule="evenodd" d="M328.6289 370.5664h.83204v5.7422h3.19531v.73827h-4.02734v-6.48046"/><path fill="#ff3030" fill-rule="evenodd" d="M202.52344 370.0039h7.6914v-10.14452h-7.6914v10.14453"/><path fill="azure" fill-rule="evenodd" d="M204.35547 361.6914h.83203v5.73829h3.19531v.74219h-4.02734v-6.48047"/><path fill="#ff3030" fill-rule="evenodd" d="M446.63281 343.375h7.6914v-10.14844h-7.6914V343.375"/><path fill="azure" fill-rule="evenodd" d="M448.46484 335.0625h.83204v5.73828h3.1953v.74219h-4.02734v-6.48047"/><path fill="#ffffe0" fill-rule="evenodd" d="M297.30078 387.98828h22.17969v-10.1914h-22.17969v10.1914"/><path fill-rule="evenodd" d="M300.80078 379.6289h.50781v6.29688h-.78515v-4.49219h-1.39063v-.55468l.5625-.0625.25-.0547.23047-.08983.20313-.14063.17578-.21094.14062-.29297.10547-.39843m4.8125 0l.23047.01953.21875.05469.20703.08984.19922.1211.1836.15234.17187.17578.30078.41797.24219.49218.17969.54688.11328.57812.03906.59375-.03906.59375-.11329.58204-.17968.55468-.24219.5-.30078.42969-.17188.17969-.18359.15234-.19922.125-.20703.08985-.21875.05859-.23047.01953-.22656-.01953-.21875-.0586-.21094-.08984-.19531-.125-.1836-.15234-.17187-.17969-.30078-.42969-.2461-.5-.17968-.55469-.10938-.58203-.03906-.59375h.83203l.03125.5625.08203.50391.125.44531.16406.375.1875.30078.21094.21875.22266.13672.22656.04688.22656-.04688.22266-.13672.21094-.21875.1914-.30078.16407-.375.125-.44531.08203-.5039.02734-.5625-.02734-.5625-.08203-.5-.125-.4375-.16407-.36329-.1914-.29297-.21094-.21484-.22266-.1289-.22656-.04688-.22656.04687-.22266.12891-.21094.21484-.1875.29297-.16406.36328-.125.4375-.08203.5-.03125.5625h-.83203l.03906-.59375.10938-.57812.17969-.54688.24609-.49218.30078-.41797.17188-.17578.18359-.15235.19531-.1211.21094-.08983.21875-.0547.22656-.01952m4.95313 0l.23046.01953.21875.05469.20704.08984.1953.1211.1875.15234.17188.17578.30079.41797.24218.49218.17969.54688.11328.57812.03516.59375-.03516.59375-.11328.58204-.17969.55468-.24219.5-.30078.42969-.17187.17969-.1875.15234-.19531.125-.20704.08985-.21875.05859-.23046.01953-.22657-.01953-.22265-.0586-.20703-.08984-.19532-.125-.18359-.15234-.17188-.17969-.30078-.42969-.24609-.5-.17969-.55469-.10937-.58203-.03906-.59375h.83203l.03125.5625.08203.50391.125.44531.16015.375.19141.30078.21094.21875.22265.13672.22657.04688.22656-.04688.22265-.13672.21094-.21875.1914-.30078.16407-.375.125-.44531.08203-.5039.02735-.5625-.02735-.5625-.08203-.5-.125-.4375-.16406-.36329-.1914-.29297-.21094-.21484-.22266-.1289-.22656-.04688-.22657.04687-.22265.12891-.21094.21484-.1914.29297-.16016.36328-.125.4375-.08203.5-.03125.5625h-.83204l.03907-.59375.10937-.57812.17969-.54688.2461-.49218.30077-.41797.17188-.17578.1836-.15235.1953-.1211.20704-.08983.22265-.0547.22657-.01952m4.95312 0l.38672.02734.35938.08594.32421.13281.27735.1875.23047.23828.17187.28516.10938.33203.03906.3789-.01953.27344-.0586.23438-.08984.19922-.10938.17187-.1289.14453-.14063.1211-.28515.19921.23047.1172.20703.14452.1836.17188.15233.19531.125.21485.08985.22656.05469.2461.01953.2539-.03516.3125-.10156.32422-.17188.32421-.24218.3086-.3047.26953-.375.21484-.21093.07813-.22656.0625-.2461.03906-.26171.01172-.25782-.01172-.24218-.03906-.22266-.0625-.20703-.07813-.35938-.21484-.28906-.26953-.22265-.3086-.15625-.32421-.09375-.32422-.03125-.3125h.83203l.02734.2539.07813.23438.12109.21484.16406.1836.1914.15234.21876.11328.24219.07422.2539.02344.2539-.02344.2422-.07422.21875-.11328.1953-.15234.16016-.1836.1211-.21484.07812-.23438.02735-.2539-.02735-.25-.07812-.23828-.1211-.21094-.16015-.1836-.19531-.15234-.21875-.11719-.2422-.0703-.2539-.02735-.2539.02734-.2422.07031-.21874.1172-.1914.15233-.16407.1836-.1211.21094-.07812.23828-.02734.25h-.83204l.01954-.2539.05468-.23829.09375-.22266.1211-.21093.15234-.1875.1836-.17579.20703-.15234.23437-.1289-.28906-.19922-.14063-.1211-.1289-.14453-.10938-.17187-.08984-.19922-.05469-.23438-.02344-.27344h.78907l.02343.21485.0625.1914.10547.16407.13672.14062.16406.11328.19141.07813.20703.05078.21875.01953.22266-.01953.20312-.05078.1914-.07813.16407-.11328.13672-.14062.10547-.16406.0664-.19141.01954-.21485-.01954-.21484-.0664-.1914-.10547-.16797-.13672-.13672-.16406-.11328-.1914-.08204-.20313-.05078-.22266-.01562-.21875.01562-.20703.05079-.1914.08203-.16407.11328-.13672.13672-.10547.16796-.0625.19141-.02343.21485h-.78907l.03907-.37891.10937-.33203.17188-.28516.23046-.23828.28125-.1875.32032-.13281.35937-.08594.38672-.02734"/><path fill="#ffffe0" fill-rule="evenodd" d="M412.75781 417.70703h22.17969v-10.1914h-22.17969v10.1914"/><path fill-rule="evenodd" d="M416.25781 409.34766h.50781v6.29296h-.78515v-4.48828h-1.39063v-.55468l.5625-.06641.25-.05469.23047-.08984.20313-.14063.17187-.20703.14453-.29687.10547-.39453m4.8125 0l.23047.01953.21875.05469.20703.08984.19531.1211.1875.14843.16797.17578.3047.42188.24218.49218.17969.54688.11328.57812.03515.58985-.03515.59375-.11328.58594-.1797.55468-.24218.5-.30469.42969-.16796.17969-.1875.15234-.19532.125-.20703.08985-.21875.05859-.23047.01953-.23047-.01953-.21875-.0586-.20703-.08984-.19531-.125-.1836-.15234-.17187-.17969-.30078-.42969-.2461-.5-.17968-.55469-.10938-.58593-.03906-.59375h.83203l.03125.5664.08203.50391.125.4414.16016.375.1914.30079.21094.22265.22266.13672.22656.04688.22656-.04688.22266-.13672.21094-.22265.1914-.30078.16016-.375.1289-.44141.08204-.5039.02734-.56641-.02734-.5586-.08203-.5-.1289-.4375-.16017-.36718-.1914-.28907-.21094-.21484-.22265-.13281-.22657-.04297-.22656.04297-.22266.13281-.21093.21484-.19141.28907-.16016.36718-.125.4375-.08203.5-.03125.5586h-.83203l.03906-.58985.10938-.57812.17969-.54688.24609-.49218.30078-.42188.17188-.17578.18359-.14844.19531-.1211.20703-.08983.21875-.0547.23047-.01952m4.95313 0l.23047.01953.21875.05469.20703.08984.19531.1211.1836.14843.17187.17578.30469.42188.24218.49218.1797.54688.10937.57812.03906.58985-.03906.59375-.10938.58594-.17969.55468-.24218.5-.3047.42969-.17187.17969-.18359.15234-.19531.125-.20703.08985-.21875.05859-.23047.01953-.23047-.01953-.21875-.0586-.20703-.08984-.19531-.125-.1836-.15234-.17187-.17969-.3047-.42969-.24218-.5-.17969-.55469-.10937-.58593-.03906-.59375h.83203l.02734.5664.08203.50391.1289.4414.16017.375.1914.30079.21094.22265.22265.13672.22657.04688.22656-.04688.22266-.13672.21093-.22265.19141-.30078.16016-.375.1289-.44141.07813-.5039.03125-.56641-.03125-.5586-.07813-.5-.1289-.4375-.16016-.36718-.1914-.28907-.21094-.21484-.22266-.13281-.22656-.04297-.22656.04297-.22266.13281-.21094.21484-.1914.28907-.16016.36718-.1289.4375-.08204.5-.02734.5586h-.83203l.03906-.58985.10937-.57812.1797-.54688.24218-.49218.30469-.42188.17187-.17578.1836-.14844.1953-.1211.20704-.08983.21875-.0547.23047-.01952m4.95312 0l.38672.02734.35938.08203.3203.13672.28126.1875.23047.23828.17187.28516.10938.33203.03906.375-.02344.27734-.05469.23438-.08984.19922-.10937.17187-.12891.14063-.14063.125-.28906.1953.23438.1211.20703.14453.1836.17188.15234.19531.12109.21094.09375.23047.05469.2461.01953.2539-.03516.3086-.10156.32812-.17188.32421-.24218.3047-.30469.26952-.375.21485-.21094.08203-.23047.0586-.24218.03906-.26172.01562-.26172-.01563-.23828-.03906-.22656-.0586L430 415.6797l-.35938-.21485-.28906-.26953-.22265-.30469-.16016-.32421-.08984-.32813-.03125-.3086h.83203l.02734.25391.07813.23438.12109.21094.16016.1875.1953.15234.21876.11328.24219.07031.2539.02735.2539-.02735.2422-.0703.21875-.11329.1914-.15234.16406-.1875.1211-.21094.07812-.23438.02735-.2539-.02735-.2539-.07812-.23438-.1211-.21094-.16406-.1875-.1914-.15235-.21875-.11328-.2422-.07421-.2539-.02344-.2539.02344-.2422.07421-.21874.11329-.19531.15234-.16016.1875-.1211.21094-.07812.23437-.02734.2539h-.83203l.01953-.2539.05469-.23828.08984-.22656.125-.20703.15234-.19141.1836-.17188.20703-.15234.23047-.13281-.28516-.19531-.14063-.125-.1289-.14063-.10938-.17187-.08984-.19922-.0586-.23438-.01952-.27734h.78515l.02344.21484.0664.1914.10547.16798.13672.14062.16406.10938.1875.08203.20704.05078.22265.01563.21875-.01563.20703-.05078.19141-.08203.16406-.10938.13672-.14062.10156-.16797.06641-.1914.02344-.21485-.02344-.21094-.0664-.1914-.10157-.16797-.13672-.14063-.16406-.10937-.1914-.08204-.20704-.05078-.21875-.01562-.22265.01562-.20704.05079-.1875.08203-.16406.10937-.13672.14063-.10546.16796-.06641.19141-.02344.21094h-.78515l.03906-.375.10937-.33203.17188-.28516.23047-.23828.27734-.1875.32422-.13672.35937-.08203.38672-.02734"/><path fill="#ffffe0" fill-rule="evenodd" d="M235.22266 427.48828h22.17968v-10.1914h-22.17968v10.1914"/><path fill-rule="evenodd" d="M238.72266 419.1289h.5078v6.29298h-.78515v-4.48829h-1.39062v-.55468l.5625-.06641.25-.05469.23047-.08984.20312-.14063.17578-.21093.14063-.29297.10547-.39453m4.8125 0l.23047.01953.21875.05469.20703.08984.19922.1211.18359.14843.17187.17578.30078.41797.2422.4961.17968.54687.11328.57812.03906.58985-.03906.59375-.11328.58594-.17969.55468-.24219.5-.30078.42969-.17187.17969-.1836.15234-.19921.1211-.20703.09375-.21875.05859-.23047.01953-.22657-.01953-.21875-.0586-.21093-.09375-.19532-.12109-.18359-.15234-.17188-.17969-.30078-.42969-.24609-.5-.17969-.55469-.10937-.58593-.03906-.59375h.83203l.03125.5625.08203.50781.125.4414.16406.375.1875.30079.21094.22265.22265.13672.22657.04688.22656-.04688.22266-.13672.21093-.22265.1914-.30078.16407-.375.125-.44141.08203-.50781.02735-.5625-.02735-.5586-.08203-.5039-.125-.4336-.16406-.36718-.1914-.28907-.21095-.21484-.22265-.13281-.22656-.04297-.22657.04297-.22265.13281-.21094.21484-.1875.28907-.16406.36718-.125.4336-.08203.5039-.03125.5586h-.83203l.03906-.58985.10937-.57812.17969-.54688.2461-.49609.30077-.41797.17188-.17578.1836-.14844.1953-.1211.21094-.08983.21875-.0547.22657-.01952m5.09375 0h.5078v6.29296h-.78515v-4.48828h-1.39062v-.55468l.5586-.06641.2539-.05469.23047-.08984.20312-.14063.17188-.21093.14453-.29297.10547-.39453m2.82422 2.17578h.78515l.01953-.3164.0586-.28517.10156-.2539.13672-.21485.1836-.17578.22265-.1289.26562-.07813.3086-.02734.23828.01953.22265.0625.20313.10156.17969.14063.14843.17187.11328.20703.07032.23438.02734.26562-.02344.26563-.0664.22656-.10938.1914-.15625.17188-.19922.16016-.24609.16797-.63281.39062-.53906.3125-.4375.3164-.34766.32423-.26172.33594-.1914.35156-.125.36719-.07032.39453-.01953.41796h4.21094v-.73828h-3.33203l.08203-.28515.11328-.23828.14844-.19922.1875-.17969.23047-.17188.28125-.17578.71484-.41796.41797-.20313.34375-.23047.28125-.2539.21875-.26563.16406-.27734.11328-.28516.0625-.28516.01953-.28125-.04297-.3828-.11718-.34767-.19141-.30859-.25-.26172-.30078-.21484-.34766-.15625-.3789-.09766-.40625-.03515-.4375.03125-.39844.10156-.35156.16406-.3047.23438-.25.30468-.18358.375-.1172.44532-.03905.51953"/></g></defs><use xlink:href="#aa"/></svg>