<svg xmlns="http://www.w3.org/2000/svg" role="img" xmlns:xlink="http://www.w3.org/1999/xlink" viewBox="149.54 349.79 305.93 121.43"><defs><clipPath id="a"><path d="M144 311.67188h1v168.65625h-1zm0 0"/></clipPath><clipPath id="b"><path d="M144 311.67188h324v168.65625H144zm0 0"/></clipPath><clipPath id="c"><path d="M467 311.67188h1v168.65625h-1zm0 0"/></clipPath><clipPath id="d"><path d="M144 479h4v1.32813h-4zm0 0"/></clipPath><clipPath id="e"><path d="M147 480h2v.32813h-2zm0 0"/></clipPath><clipPath id="f"><path d="M153 479h9v1.32813h-9zm0 0"/></clipPath><clipPath id="g"><path d="M160 479h3v1.32813h-3zm0 0"/></clipPath><clipPath id="h"><path d="M166 479h9v1.32813h-9zm0 0"/></clipPath><clipPath id="i"><path d="M172 480h2v.32813h-2zm0 0"/></clipPath><clipPath id="j"><path d="M180 479h8v1.32813h-8zm0 0"/></clipPath><clipPath id="k"><path d="M186 480h2v.32813h-2zm0 0"/></clipPath><clipPath id="l"><path d="M193 479h8v1.32813h-8zm0 0"/></clipPath><clipPath id="m"><path d="M199 480h2v.32813h-2zm0 0"/></clipPath><clipPath id="n"><path d="M207 478h8v2.32813h-8zm0 0"/></clipPath><clipPath id="o"><path d="M212 480h2v.32813h-2zm0 0"/></clipPath><clipPath id="p"><path d="M220 479h8v1.32813h-8zm0 0"/></clipPath><clipPath id="q"><path d="M226 480h2v.32813h-2zm0 0"/></clipPath><clipPath id="r"><path d="M233 479h8v1.32813h-8zm0 0"/></clipPath><clipPath id="s"><path d="M239 480h2v.32813h-2zm0 0"/></clipPath><clipPath id="t"><path d="M247 477h7v3.32813h-7zm0 0"/></clipPath><clipPath id="u"><path d="M262 476h4v4.32813h-4zm0 0"/></clipPath><clipPath id="v"><path d="M275 477h5v3.32813h-5zm0 0"/></clipPath><clipPath id="w"><path d="M288 477h5v3.32813h-5zm0 0"/></clipPath><clipPath id="x"><path d="M301 477h5v3.32813h-5zm0 0"/></clipPath><clipPath id="y"><path d="M315 476h4v4.32813h-4zm0 0"/></clipPath><clipPath id="z"><path d="M329 476h3v4.32813h-3zm0 0"/></clipPath><clipPath id="A"><path d="M342 476h3v4.32813h-3zm0 0"/></clipPath><clipPath id="B"><path d="M356 476h2v4.32813h-2zm0 0"/></clipPath><clipPath id="C"><path d="M369 476h2v4.32813h-2zm0 0"/></clipPath><clipPath id="D"><path d="M383 476h2v4.32813h-2zm0 0"/></clipPath><clipPath id="E"><path d="M395 476h4v4.32813h-4zm0 0"/></clipPath><clipPath id="F"><path d="M406 478h8v2.32813h-8zm0 0"/></clipPath><clipPath id="G"><path d="M421 477h5v3.32813h-5zm0 0"/></clipPath><clipPath id="H"><path d="M434 477h6v3.32813h-6zm0 0"/></clipPath><clipPath id="I"><path d="M446 479h8v1.32813h-8zm0 0"/></clipPath><clipPath id="J"><path d="M452 480h2v.32813h-2zm0 0"/></clipPath><clipPath id="K"><path d="M463 476h1v4.32813h-1zm0 0"/></clipPath><clipPath id="L"><path d="M144 466h4v2h-4zm0 0"/></clipPath><clipPath id="M"><path d="M144 452h4v4h-4zm0 0"/></clipPath><clipPath id="N"><path d="M144 438h4v5h-4zm0 0"/></clipPath><clipPath id="O"><path d="M144 425h4v4h-4zm0 0"/></clipPath><clipPath id="P"><path d="M144 411h4v5h-4zm0 0"/></clipPath><clipPath id="Q"><path d="M144 398h4v5h-4zm0 0"/></clipPath><clipPath id="R"><path d="M465 397h3v3h-3zm0 0"/></clipPath><clipPath id="S"><path d="M144 385h4v5h-4zm0 0"/></clipPath><clipPath id="T"><path d="M144 370h1v8h-1zm0 0"/></clipPath><clipPath id="U"><path d="M144 370h2v2h-2zm0 0"/></clipPath><clipPath id="V"><path d="M465 370h3v2h-3zm0 0"/></clipPath><clipPath id="W"><path d="M144 358h4v5h-4zm0 0"/></clipPath><clipPath id="X"><path d="M465 357h3v2h-3zm0 0"/></clipPath><clipPath id="Y"><path d="M144 344h4v6h-4zm0 0"/></clipPath><clipPath id="Z"><path d="M466 346h2v3h-2zm0 0"/></clipPath><clipPath id="aa"><path d="M144 332h4v3h-4zm0 0"/></clipPath><clipPath id="ab"><path d="M144 317h3v7h-3zm0 0"/></clipPath><g id="ac" clip-path="url(#clip1)"><path fill="#fff" fill-opacity="0" fill-rule="evenodd" d="M.04297 0h1000v1000h-1000zm0 0"/><path fill="#d3d3d3" fill-opacity="0" fill-rule="evenodd" d="M162.19531 355.86719l-.23437.29297.0586.23437.11718.17188.17578.23437.29297.34766.11328.0586.11719-.17188.0586-.23438.17577-.17578.46485-.17578h.69922l.23437.29297.28906.8164.0586.17579.17578.23046.35156.23438.69922.69922.17187.17578.23438.34765.23437.41016.28907.58203.41015.46485.23047.23437.23438.17578.11718.23047.17578.29297.17188 1.16406v.23438l.0586.28906.05859.11719.11719.11719.34765.41015.11719.17188.17578.17578.17578.23437.11719.17188.17187.35156.0586.23438.23437.40625.23438-.0586-.17578.17578-.0586.92969h-.58203l-.23437-.11328-.34766.11328-.11719.11719-.0586.29297-.05858.17578-.1172.17187-.46484.29297-.05859.23438-.0586.11328v.64453l.0586.17187v.41016l.0586.0586v.40624l.05859.40625.11719.17579.05859.05859.23047.64062-.0586.29297v.69922l-.05859.58203v.23438l-.0586.23047-.05468.35156v1.92187l.05469.1172h.42578l-.36719.11718-.02344.35156.89063 1.16797 1.74219.53906 1.33984.35938v.53906l.08984.8086.53516.71484 1.51953.26953.89063-.08594.08984 1.16406.53516.1797 1.16015-.1797 2.05469-.98437 1.16016-.36328 1.8789-.17578 1.69531-.1797-.17968.71876-1.51563.08594-1.25.08984-.80469.26953-1.07422.8086.26954.71875.53515.89843-.17969.625-.26562.8086.26563 1.07812.625.89844.80468.17969 1.25-.1797-.26562.72267.09765.5039.0547.29297v.17188l.05858.29296v.40625l.17579.1172.35156.11718h.40625l.29297-.17578.11328-.11719.0586-.11719.11718-.23047.0586-.17578.35156-.46484.23047-.17578.17578-.0586.17578.0586.0586.17578.11718.98828.05469.46875.05859.17188.11719.23437.17578.0586.8164.05859h.28907l.11719.23437.05859.40625.0586.35156v1.10547l.11718.29297.11719.34766.28906.69922.17578.35156.58203.7539.35156.17579.17188.0586.46875.23437.64063.46484.34765.23438.29297.17578.29297.05468.23047.0625.8164.34766.29297.17578.11328.17188.35157.35156.11718.17578.52344.64063v.28906l.0586.35156v.34766l.05859.35156.0586.28906.11718.0586.17188.05859h.17578l.58203.23437.17578.1172.17578.28905.17578.23438.11328.23437.29297.23047.11719.11719v.41016l.0586.05468.28905.23438.23438.11719.0586.11718.11718.17188.0586.11719.23046.23437.0586.17578.23437.0586.11719.05859-.11719.11328-.0586.11719v.11719l-.11718.29296-.11719.28907v.58203l.17578.11719.1172.05859.05859.11719.11718.11719.11328.05859.17579.34765.05859.35157.0586.40625v.17578l-.0586.17578-.11719.69922v.17187l.11719.17579.29297.29296h.40625l.17578.1172.11719.17187.11719.29296v.23438h-.52735l-.23047-.23438h-.23437l-.17578.0586-.0586.69922.0586.34765.11718.17579.17578.41015.1172.23047.28905.46875.17579.05469h.52343l.23438.0586.75781.64062.0586.29296v.23438l.05859.0586.23047.34765v.35156l-.11719.17188v.29297l.29297.28906.29297.17578.17187.0586.29297.17577.29297.1172.58203.40624.28906.23438.29297.17578.21875.16015.01563.01172.23047.17579.64062.52343.17578.23438.11719.17578.17578.17578.11328.17188v.64062l.11719.17578.46875.11719.58203.11719.23438.05859.23047.11328.29296.11719.11328.0586.58594.35156.28906.17187.17579.0625.17578.05469.17578.0586.69922.35155.28906.17579.23438.05468.28906.17578.23437.1172.64063.40624.29297.11719.17187.0586.23438.05859.41015.05859.23047.0586.23438.11718.05859.17188-.41016.17578.46875.0586.0586.29296.11328.23438.17578.05468.23438.0586.17578.05859.40625.11719.64062.23437.11719.17188.0586.23437v.17578l-.0586.1172-.0586.40624.23438.23438.11719.05859.34765.11719.64063.23047.17578.11718.28906.1172.17578.17577.23438.46485.58203 1.10546.17578.17579.34766.17578.17578.11719.35156.11718 1.04688.52344.23437.0586.46484.11327.29297.0586.46485.17578.75781.58203.23438.23438.34765.46484.17578.17578.28906.23438.81641.69921.29297.17579.28906.28906.29297.17578.29297.28906.69531.64063.17578.17578.29297.23437.28906.23438.46875.28906.64063.58203.34766.23438.23437.29297.34766.34765.35156.46485.9336.99218.34765.40625.11719.17579.23437.05859.11328.11719.64453.17578.23047.11328.23438.0586.29297.17577.23047.1172.93359.69921L232 437.5l.23438.17578.40625.17578.23437.11719.8164.34766.34766.23437.23438.11719.29297.28906.23047.11719.7578.35156.35157.17188.23047.05859.29297.11719.23437.0586.8711.17577h.8164l.46875.23047.17188.0586.875.69921.46484.1172.29297.05858.17578.0586.23047.0586.46875.05859.34766.05859.35156.0586.40625.05859h.29297l.17187.0586v.23046l.17578.17578h.29297l.34766.0586.35156.05859.69922.11719h.64063l.46484-.23438.29297-.17578.17187-.11719.41016-.17187.28906-.17578.9336-.46485.46875-.29297.52343-.29296.46485-.17188.46484-.17578 1.05078-.46485.28906-.11718.41016-.11719.28906-.11719.52735-.17578 1.51562-.69922.58203-.34765.28906-.0586.29297-.0586.34766-.11718.875-.23047.35156-.11719h.11328l.23438-.05859.875-.23437.23437-.0586h.8125l.35157-.0586.8164-.11718.17188-.0586.35156-.05468.29297-.0586.23047-.05859.8164-.17578.17579-.0586h.34765l.23438-.05859.46484-.11718.75781-.17188.23438-.0586h.34765l.41016-.11718.28906-.0586 1.28516-.05859h.28906l.41016-.0586.23047-.05858h.17578l.875-.1172h.40625l.41015-.11718h.34766l.35156-.11328.8711-.0586h1.75l1.04687.28907.41016.11719.28906.11718.35156.11719.28906.11719 1.05079.17187.28906.0586h.29297l.29297.05859.17187.0586.41016.05859.17187.0586.11719.05858h.11719l.11719.0586.35156.0586h.11328l.41015.0664 1.92188.39453 1.92578.39453 1.51953.44922 1.69531.71875 2.14454.80469 1.60546-.71875 1.4297-.80469 1.16015-1.07813 1.25-.44921 3.03515-.71875 1.875-.35938 2.14454-1.34765 2.23437-1.25391 2.5-1.25781 1.69531-.44922 1.78516-.17969 1.16016-.26953.625.53906 1.33984-.26953.71484-.98828.98438-1.34375.44531-.17969.80469-.35937 1.875-.53907 1.78515-.44921 1.25-.26954 1.16016-.08984 1.69922-.08984 1.96094-.26954 1.25-.08984h.53906l.625-.08984h.89063l2.14453-.17969 2.41015-.17969 2.58985-.08984 1.6953.17969 1.60938.08984 1.4297.35938 1.16015.71875 1.875.98828 1.16015 1.52734.26563.71484.6289.08985.35547.89844.53516.53906.53516 1.52734 1.07421.35938h.53516l-.80469.53515.08985 1.70703.71484 2.69532.89063.80468.89453.98829.71484 1.2578 1.78516.53907 1.51953-.17969.35547 1.34375 1.60937-.80469.98047-.53906.26953.26953.3164-.21484.21876-.14453.80078.44922.44922-.35938h.35547l.53515-.26953.53907-.71875.53515-.26953.625-.98828 1.16016.44922.83984.3711 1.39453.61718 1.69532-.17969h1.60546l1.78516.08985.17969-1.70704.53515-1.34375.8047.26954.49218.84765.40234.40625-.08984.53906v.35938l.71484.44922.71094-.26953h1.42969l.35937.98828.44532 1.25781.71484 1.34375 1.25.6289 1.69531.62891.71485-.17969.17968-.53906.98047-.08984.44922.35937.08594 1.25782-.26563.6289-.53515.17969v.53906l.71484.98438.26563.53906.98437.98828.80078 1.07813-.26562.35937-.08985.89844-.625 2.33203-.35546 2.0664-.08985 1.79298-.17969.71875-.08984.53906v1.4375l-.98047 1.88281-.35937 1.70703-.53516.89844-.80469 1.16797-.26562.53906 2.05469 1.2539.08593.35938-.35547.53906-.08984-.17968v.80859l.08984 1.4375-.4453.71484-1.07423.09375-.26562.71485.53515.89844.8047.71875 1.16015.80859 1.33984.26953.44531.35938-.35546.44921-1.78907-.08984-1.25-.44922-.71484-.71875-.625-.08984-.17578 3.58984-.1875 1.3086h89.35937V311.70313h-55.26953v49.08203l.76172.125 3.28906.54296 2.02344 2.83594v2.7539l2.35156.33204 2.34766.33203h4.05078l-1.3789 4.16016-2.02344.70703-2.02344.70312-.54297.34375-2.59375 1.6172-.1875.11718-2.02344-2.07813-.73047-2.74218-2.67187-2.07813-1.375-3.5-.0664-.08203-1.95704-2.67188 2.75-1.41796v-49.08204H294.46484v91.41407l.1172.03125.1328.01172.07422.07421.10547.04688.08985.0586.08593.05859.08985.0586.29687.29687.0586.08984.03125.11719.02734.11719.01562.13671-.03125.1172-.05859.08983-.0586.08594-.04296.10547-.04688.10156-.02734.1211v.14453l.17578.26953.14844.14844.07422.08594.07421.07421.04297.10547.0625.08985.0586.08593.04297.10547.05859.08985.04688.10156.04296.10547.0586.08594.11719.17968.07421.07422.0625.08594.0586.08984.04297.10547.05859.08985.0586.08593.0625.08985.05859.08984.04297.10156.11718.17969.07422.07422.0586.08594.07421.07421.08985.0586.10547.04687h.14844l.1328-.01562.13282.01562.10156-.04687.07422-.07422.04688-.10156-.01563-.13281v-.14844l-.04687-.10547-.02735-.11719-.04687-.10156-.02735-.1211-.04296-.10156-.0625-.08984-.04297-.10156-.04297-.10547-.03125-.11719-.01563-.13281-.01172-.13672.08594-.0586.0586-.08593.12109-.03125.04297.10547.01562.1328v.1172l.0586.10156.05859.08984.08984.0586.14844.14843.0586.08985.04296.10547-.01171.10156.08593.0586.10547.04687.08594.0586.08984.05858.07422.07422-.11719.02735-.10546.04687-.08594.0586-.07422.07421-.0586.08985-.0625.08594-.02734.12109-.04687.10156-.04297.10547-.03125.11719-.01172.13281-.01563.13281v.14844l.02735.11719.04687.10547.04297.10156.0586.08984.07421.07422.08985.0586.07422.07421.08984.0586.0586.08984.04296.10547.04688.10156.11719.03125.1328.01563h.14844l.1172-.03125.10546.04297.04297.10547.04688.10156.02734.1211.03125.11718.02734.11719.03125.1211.02735.11718.10546.04297.10157.04687.13281-.01562.14844.14844.0625.08593.07422.07422.0703.07422.08985.0625.10547.04297.10156.04297.1172.03125.13671.01562.11719-.03125.07422-.07422.02734-.11718-.01172-.13282-.03125-.12109-.02734-.11719.04297-.10547h.11718l.08985.0625.11719.02735h.14843l.13281.01562h.14844l.13281.01563.13282-.01563h.14844l.1328-.01562.13282-.01172.13672.01172.11719-.02735.1328-.01562.19142-.0586-.0586.17579-.01562.1328-.02735.1211-.01562.13281-.0586.08594-.1328.01563-.10548.04687-.10547.04297-.11718.03125-.1172.02735-.26562.03125h-.14843l-.13282.01562-.07421.07422.05859.08594.14844.14843.11718.1797.07422.0703.08985.0625.08984.0586.08594.0586.08984.05858.10156.04297.10547.0625.10547.04297.08594.0586.10547.04687.10156.04297.17969.11719.0586.08984-.04298.10156-.04687.10547.01562.13281.22266.22266.0586.08985.04296.10156.03125.1211.04297.10155.01563.13282.03125.11718.01171.13672.03125.11719.14844.14844.10156.04297.10547.04296.11719.03125.13281.01563.13672.01563h.11719l.11719-.03125.08984-.0586.04297-.10547.04687-.10156.04297-.10547.03125-.11719.01172-.1328v-.14845l-.01172-.1328-.01562-.13282-.03125-.11719-.04297-.10547-.04688-.10547-.04296-.10156-.04297-.10547-.01563-.13281.01563-.13281.02734-.11719.03125-.11719.02734-.1211.04688-.10155.08984-.0586.08594-.0625.07422-.07422.08984-.05859.22266-.22266.0586-.08593.07421-.07422.11719-.17969.0586-.08594v-.14844l-.07423-.07421-.10156-.04688-.10547-.04297-.10156-.04297-.0586-.08984-.04687-.10547-.02734-.11719.08984-.05859.11719-.03125.10156-.04297.17969-.11719.14844-.14843.01171-.13282-.01171-.10546-.08985-.0586-.13281.01563h-.14844l-.13281.01562-.13281-.01562-.1211-.03125-.08593-.0586-.07422-.07422-.0586-.08984-.0625-.08594-.11718-.17969-.0586-.08593.03125-.1211.08594-.05859.1211-.03125.05859-.08594v-.1211l-.03125-.11718-.0586-.08984-.05859-.08594-.04688-.10547-.02734-.11719-.01562-.1328.05859-.08985.07422-.07422.08984-.0586.11719-.17968.07422-.07422.0586-.08594.14843-.14844.1211-.03125.1328-.01562.13282.01562.07422.07422.04297.10547.01562.13281-.03125.1172-.11719.03124-.1328.01172-.14845.14844-.04296.10547-.04688.10156-.02734.1211-.03125.11718v.14844l.03125.11719.04296.10546.0586.08985.07422.07031.07422.07422.11718.03125.1211.02734.11719-.02734.1328-.01563h.1172l.08984.0586.07422.07422.04687.10546.0586.08594.10156.04688.13281.01562.10547.04297.08594.0586-.01172.10546-.07422.07422-.17969.11719-.0586.08984-.08983.0586-.07032.07422-.07422.07421-.0625.08985-.02734.11719-.01563.1328.01563.13282-.01563.13281v.14844l.01563.13281.02734.1172.03125.12108.07422.07422.08985.0586.08593.0586.08985.05858.11719.03125v.08594l-.10157.04688-.08984.0586-.26563.03124-.11718.02735h-.14844l-.10547.04296-.10156.04688-.0586.08984-.0625.23438-.01171.13281-.03125.1211-.01563.1328v.29298l-.01172.1328.01172.13673.01563.1328.1328.01563.13282.01172.1211.03125.08593.0586.07422.07421.04688.10547.04296.10157.01563.1328v.44532l-.01563.13281v.44532l.03125.26562.02735.11719.01562.13281.03125.11719.08594.21094.03125.26562v.14844l-.03125.11719-.02734.11718-.03125.1211-.02735.11719-.03125.11718-.03125.1211-.01172.1328-.01562.13282.08984.0586.11719-.03125.10156.01562.04688.10547-.03125.26562v.44141l-.04297.10547-.04688.10547-.04296.10156-.04297.10547-.0586.08594-.03125.12109-.04297.11719-.03125.11719-.01562.1328.01562.13282.0586.08984.10547.04688.08593.0586.0586.08593-.01172.13672-.03125.11719-.04297.10156v.44531l-.01563.13281v.14844l-.03125.11719-.04296.10547-.02735.11719-.04687.10546-.04297.10157-.03125.12109-.02735.11719-.03125.13281-.03125.11719-.02734.11719-.04297.10546-.03125.1172-.03125.12108-.01172.13282-.01562.13281v.29688l.02734.11718v.14844l.04688.39844.02734.11719.0586.08984.12109.03125h.14844l.1328-.01563.0586.08985v.11719l-.0586.08984-.08983.0586-.10157.04296-.10547.04688-.08984.05859-.08594.0586-.13672.01562-.11718-.03125-.13282-.01563-.10156.04688-.0625.08594-.01172.13671-.01562.13282-.03125.11719-.02735.11718-.01562.13281-.03125.1211v.29687l.01562.13282.03125.11718v.14844l.01172.13281v.14844l-.02734.11719-.04688.10156-.02734.1211-.03125.11718-.0586.08985-.07421.07421-.10156.04297-.10547.04688-.1172.02734-.12108.03125-.10157-.04687.0586-.08594.10546-.04688.02735-.11718.03125-.11719.02734-.1211.03125-.11718v-.14844l.01563-.13281-.03125-.11719-.04297-.10547-.10547.01563-.07422.07422-.10156.04296-.08985.0625-.07421.07422-.04297.10157-.01563.1328-.03125.1172-.02734.12109-.03125.11719-.02735.11719-.03125.12109-.02734.11719-.03125.11718-.04297.10547-.08984.0586h-.08985l-.11718-.03125-.03125-.08594.01562-.13672-.03125-.11719v-.14844l-.01172-.1328v-.14844l-.0625-.23438-.02734-.1211-.04297-.10156-.04687-.10546-.0586-.08594-.0586-.08985-.04296-.10546-.0625-.08594-.14844-.14844-.07031-.07422-.10547-.04687-.10547-.04297-.10156-.04297-.29688-.29688-.08984-.07421-.08594-.0586-.10546-.04297-.08985-.0625-.08594-.0586-.10546-.04296-.08985-.0586-.08594-.0625-.07421-.0703-.10547-.04688-.08594-.0586-.10547-.04296-.08984-.0625-.10157-.04297-.10546-.04297-.08594-.0586-.10547-.04687-.10547-.04297-.10156-.04687-.08985-.0586-.10156-.04297-.10547-.04296-.08984-.0625-.11719-.02735-.13281-.01562-.13281.01562h-.14844l-.13281.01563-.1172-.03125-.08983-.0586-.07422-.07422-.08985-.05859-.10156-.04688h-.14844l-.1211-.02734-.10155-.04297-.07422-.07422-.11719-.17968-.08984-.0586-.10157-.04297-.08984-.0625-.10547-.04296-.08984-.0586-.08594-.0586-.10547-.04687-.0586-.08594-.05859-.08984-.04296-.10547-.04688-.10156-.07422-.07422-.08594-.0586-.07421-.07421-.08985-.0586-.22265-.22265-.04297-.10547-.03125-.26563.10546-.04296h.14454l.10546.04296.07422.07422.08985.0586.08594.0586.10546.04687.08985.05859.14844.14844.0703.07422.14844.14843.0625.08594.07422.07422.08594.0586.07422.07421.08984.0625.08985.0586.08594.05859.26953.17578.10156.04688.10547.04296.10156.04297.04688-.07421.05859-.08594.07422-.07422.07031-.07422.10547.04297.07422.07422.0586.08984.04296.10156.04688.10547.04296.10547.1211.02735.11719-.02735.07421-.08984.04297-.10547.0586-.08985.07421-.07421.10547-.04297.1172-.02735.1328.01172.08985.0586.14844.14843.05859.08985.04297.10547.04687.10156.04297.10547.04297.10156.10547.04688.10547.04296.13281.01563.08594-.0586.0586-.08984.07421-.07422.10547-.04297.11719.02735.10546.04687.10157.04297.10547.04297.10156.04688.17969.11718v.11719l-.01563.13281.01563.13281.01562.13672.0586.08594.10156.04688.1211.02734.11718.03125h.14844l.11718-.03125.0586-.08984.17969-.1172.05859-.08983.07422-.07422.0586-.08594.11718-.17969.17969-.11719.11718.03125.08985.0586.04297.07422-.01563.1328v.1172l.08985.05859h.14843l.13281-.01563.13282-.01171.26562-.03125.10547-.04297.11719-.03125.1211-.02735.07421-.07421.07031-.07422.0625-.08985-.01562-.10547-.04688-.10156-.10156-.04297-.10547-.01562-.11719.02734-.26562.03125h-.14844l-.07422-.07422-.08984-.0586-.11719-.03124-.11719-.02735-.1328-.01562h-.14844l-.13282.01563h-.29687l-.10547-.04688-.14844-.14844-.04297-.10156-.0586-.08984.22267-.22266.08593-.0586.10547-.04296.11719-.03125.13281-.01563.13281.01563.13672.01562.10156.04297.13282-.01172.08984-.0625.10156-.04297.0625-.08984-.04687-.10156-.08985-.0586-.11718-.03125-.10156-.04296-.0586-.08985-.0625-.08984v-.11719l.01563-.13281.10546-.04688.07422-.07031v-.1211l-.08984-.05859-.03125-.11719.08984-.05859.07422-.07422.04297-.10547.0586-.08984.04687-.10156.01563-.13281v-.14844l-.04688-.10547-.04297-.10156-.08984-.0586-.13281-.01562-.10157-.04297-.13672-.01563-.11718-.03125h-.44532l-.1328-.01562-.13282-.01172-.13281-.01563-.1172-.03125h-.14843l-.13281-.01562-.13281-.01172-.26563-.03125-.1211-.04297-.08593-.0586-.07422-.07421v-.14844l.01172-.13281.10547-.04688.10156-.04296.13281-.01563h.15235l.13281-.01562h.29297l.1211.03125.10156.04296.08984.0586.23437.0625.1211-.04688.08984-.05859.10156-.04297.13282-.01562.10546.04296.10157.04688.13281.01172.1211-.02735h.14452l.1211-.03125.11719-.02734.10546-.04687.07422-.07422.08594-.0586.14844-.14843.0586-.08594.04687-.10547.02734-.11719.01563-.10547-.10157-.04296-.08984-.0586-.11719-.03125-.10547-.04297-.08984-.0625-.07422-.08594-.07422-.07421-.10156-.04297-.10547-.04688-.10156-.04297-.0586-.08984-.04687-.10156-.08594-.21094-.0625-.08594-.0586-.08984L304.1875 417l-.08594-.0586h-.26953l-.11719.03126-.08984.05859-.10156.04297-.13281.01562-.10547-.01562-.02735-.11719-.0625-.08984-.11719-.03125-.10156-.04297-.14844-.14844-.03125-.11719-.01562-.10546.07422-.07422.17969-.1172.11718-.02733.1172-.03125.13671.01562.10156.04297.10547.04297.10156.04687.10547.04297.11719.03125.13281.01563.11719.02734.13281.01563.10547-.01563.08985-.0586-.07422-.07421-.10547-.04297-.07422-.07422-.07422-.08984-.14844-.14844-.08594-.0586-.08984-.05859-.07422-.07422-.08984-.0586-.10156-.04687-.1211-.02734-.10156-.04688-.10547-.04296-.11719-.03125-.10156-.04297-.1211-.03125h-.14843l-.11719.03125-.10547.04297-.08593.0625-.1797.11718-.08593.0586-.08984.0586-.10547.04687-.08594.05859-.10547.04297-.10156.04297-.10547.04687-.07422.07422-.0586.08985-.05858.08593-.04688.10547-.0586.08594-.07421.07422-.13281-.01172-.1172-.03125h-.11718l-.07422.07422-.08984.0586-.07422.07421-.08985.0586-.08593.05859-.10547.04687-.10156.04297-.13672.01563-.10156-.04297-.14844-.14844-.10547-.04688h-.08594l-.10547.04688-.10156.04297-.1211.03125-.11718-.03125-.07422-.07422v-.11719l.03125-.1211.07422-.0703.0586-.08985.07421-.07422.11719-.03125.10547-.04296h.29297l.1328-.01563.13673-.01563.10156-.04296.08984-.0586.10157-.04687.08984-.0586.13281-.01171.08985.05859.1328.01172.08985-.0586.08594-.05859.10547-.04297.08984-.0586.08594-.0625.08984-.05859.14844-.14843.0586-.08594.05859-.08985.10547-.04296.13281-.01563.11719.02735.1211.03125.05858-.0586.0586-.08984.03125-.26563.02734-.11719.10547.01172.13281.01563.10157-.04297.08984-.0586.0586-.08984.07421-.07422.0586-.08984.04687-.10156.01172-.13281-.01172-.13282-.04687-.10547-.14844-.14843-.0586-.08985-.05859-.08594-.04297-.10546v-.44532l.01563-.1328v-.14845l.01172-.1328-.0586-.0586-.08984.0586-.10156-.04298-.1797-.11719-.08593-.05859-.0625-.08984-.0586-.08985-.07421-.07421-.08594-.0586-.1211.03125-.10156.01172-.10546.04688-.08594.05859-.10547.04297-.14844.14844-.08984.05859-.08594.0586-.08984.0625-.10547.04296-.13281.01563v-.1211l.10546-.04297.1172-.03125.07421-.0703.04297-.10548v-.14844l-.02734-.11718-.14844-.14844-.13281-.01563h-.14844l-.11719.03125-.10547.04297-.10156.04297-.08984.0625-.1172.02735-.07421-.07422.01172-.13281-.04297-.10157-.04297-.10547-.08984-.05859-.11719.02734-.1211.03125-.11718.03125-.10156.04297-.1211.03125-.10156.04297-.10547.04297-.08984.0586-.10156.01562v-.11719l.01562-.13281-.0586-.08985-.07421.04297-.14844.14844-.0586.08985-.07421.07421-.04688.10547-.04297.10156-.07421.07422-.0586.08985-.07422.07422-.0586.08593-.07421.07422-.08984.0625-.07422.07031-.07422.07422-.10156.01563-.13282.01562-.10546-.04296v-.1211l.14843-.14844.04297-.10156.0586-.08984.04687-.10156.04297-.10547.0586-.08985.03124-.11719.04297-.10156.03125-.1211.02735-.11718.04687-.10547.04297-.10156.04297-.10547.07422-.07031.08984-.0625.08984-.0586.10157-.04296h.29687l.26563-.03125.10546-.04297-.07421-.07422-.1172-.03125-.10546-.04297-.08984-.0586-.10157-.04687-.08984-.0586-.10156-.04296-.10547-.04297-.08985-.0625-.08593-.0586-.10547-.04296-.10156-.04297-.1211-.03125-.11719-.03125-.10156-.04297-.1211-.03125-.10155-.04297-.08985-.0586-.04297-.10546-.01562-.13281.10156-.04297.13281-.01563.13672.01563.13281-.01563.10157-.04297.0586-.08984.01562-.10547-.08985-.0586-.07422-.07421-.10156-.04297-.08984-.0586-.14844-.14843-.04297-.10547-.01562-.13281v-.29297l-.0586-.08985-.08984-.05859-.07422-.07422-.04297-.10547-.03125-.11718-.0586-.08985-.07421-.07422-.11719-.02734-.07422-.07422-.08984-.0586-.08985-.0625-.08593-.05859-.07422-.07421-.0586-.08594-.04687-.10547-.08594-.0586-.14844-.14843-.1953-.0586-.13282.01563-.10156.04297-.07422.07422-.04688.10156-.04296.10547-.0586.08984-.0586.08594-.29687.29687-.08984.0586h-.08594l-.0625-.08594-.04297-.10547.03125-.11719.0586-.08984.02734-.11719-.01172-.13281-.08984-.0625-.10547.04688-.11719.02734-.11719.03125-.26953.17578-.10156.04688-.11719.02734-.10547.04687-.08984.0586-.10156.04297-.0586-.08594-.04687-.10547.01562-.13281.04688-.10547.07031-.07422.07422-.07031.0586-.08985v-.14843l-.04298-.10547h-.23828l-.10156.04687-.03125.11719-.02734.11719-.03125.1211-.07422.04296-.13281.01563-.07422-.04688-.04297-.10156-.04297-.10547-.04688-.10156-.04296-.10547-.1211.03125-.10156.04297-.13281.01562-.11719.03125-.10547.04297-.08984.0586-.10156.04687-.1211.02734-.13281.01563-.10156-.04297-.0586-.08985-.04687-.10546-.04297-.10157-.04297-.10546v-.1172l.0586-.08984.08593-.05859.17969-.11719.10156-.04687.10547-.04297.10547-.0586.10156-.04296.08985-.0625.10156-.04297.10547-.0586.10156-.04687.08984-.0586.10547-.04296.10156-.04297.08985-.0625.10156-.04297.13672-.01563.11719.03125.10156.04297.1211.03125.10156.04297.10546.04688.10157.04296.10546.04297.10157.04688.10547.04297.10156.04297.10547.04687.08594.0586.10546.04296.1172.03125.10546.04297.10156.04688.08985.0586.10546.04296.10157.04297.10547.04687.11718.02735.10157.04687.12109.02735h.14844l.08594-.0586.01562-.10156.0586-.08984-.02735-.1172-.07422-.07421-.11719-.17969-.07421-.07422-.08985-.07421-.17969-.1172-.08593-.05859-.10547-.04296-.10156-.04688-.26954-.17578-.05859-.08985-.07422-.07421-.0586-.08985-.04296-.10156-.03125-.11719-.01563-.13672v-.5625l-.01171-.1328-.01563-.13282-.03125-.11719-.01563-.13281-.01171-.13281-.03125-.1211-.22266-.22265-.0586-.08594-.01562-.10547.03125-.11719.13281-.01562v-91.41406H173.03516v1.45312l-.0586.23438-.35156 1.05078-.17188.52343-.11718.34766-.17578.41016-.1172.17187-.23437.29297-.23047.0586h-.35156l-.11719.05859-.23046.40625v.29297l.11718.17578.23047.23047.11719.23437.64063.75781.29296.46485.17578.23437.23047.35156.23438.34766.64062.8164.17578.46485.17188.41016.11719.69531.17578.46875.11719 1.39844.05859.46484v.875l.11719 1.04688v4.78125l-.0586.46484-.35156 1.28125-.17578.52344-.11328.41015-.35156.9297L172.97656 336l-.23437.58203-.11719.17578-.17188.34766-.17578.40625-.35156.8164-.0586.29297-.11327.29297-.1172.28906-.05858.17579-.1172.875-.05859.40625-.05859.11718-.0586.17579-.05859.17187-.23047.52734-.11718.17188v.23437l-.1172.23438-.05858.17187-.17579.58594v.28906l-.05859.17579v.29296l-.0586.11329-.05859.52734v.17187l-.05469.23438v2.6211l-.17578.8164-.11718.17578-.17578.23438-.1172.17187-.11327.23438-.58594.93359-.23047.28906-.29297.46485-.17578.23437-.28906.35156-.35156.69922-.11329.23047-.17578.41016-.17578.23046-.40625.52735-.8164.69922-.29297.17187-.28907.23438-.17578.11719-.17578.17578-.52344.40625-.52734.17578-.17188.17578-.23437.05469-.64063.17578h-.7578m12.21093 31.02344l-1.07422.44921.35938.89454 1.25-.71485.4453-.53906-.98046-.08985"/><path fill="#d3d3d3" fill-opacity="0" fill-rule="evenodd" d="M201.55078 416.59766h-.89453l.44922.6289.98047.35938.80469-.08985.4453-.98828-.17577.08985-.71485-.35547-.89453.35547m154.6211 59.0703l-.0586-.52343v-.29297l.11328-.29297.0586-.23046.46875-.46875h.11328l.11719-.11329.11718-.05859h.17578l.23438-.0586h.34765l.23438.0586.11719.0586.23047.17187.05859.17578.11719.58203v.29297l-.11719.17578-.17188.28906-.17578.17579-.52734.52343-.23047.23438-.11719.0586h-.17578l-.11719-.0586-.40625-.29297-.17578-.11719-.11718-.0586-.0586-.11327-.05469-.1172m6.64063-10.95702l-.0586-.17188v-1.10937l.0586-.17188.17578-.0586.17188-.05858h.17578l.23437-.0586.11719.0586.0586.69921-.0586.17188-.11719.17578-.11719.0586-.23437.52343-.11328.0586h-.23438l-.05859-.1172m9.61328-14.39062l-.11719-.17578v-.69922l.29297-.875.11719-.17187.17578-.35156.11328-.23047.11719-.29297.35156-.75781.11719-.23047.17188-.23438h.17578l.11718-.0586h.64063l.11719.0586.23437.23438.17188.11328.35156.29297.11719.11718.11328.17579v.11328l.11719.05859.11718.11719v.69922l-.0586.17578v.23047l-.05858.17578-.34766 1.05078-.11719.23047-.11719.23437-.11718.0586-.23047.23437-.64063.28906h-.875l-.41015-.11718-.64063-.46485"/><path fill="none" stroke="#bebebe" stroke-linecap="round" stroke-linejoin="round" stroke-miterlimit="10" stroke-width=".5" d="M0 311.69531h0v168.625h0v-168.625"/><g clip-path="url(#a)"><path fill="#fff" fill-opacity="0" fill-rule="evenodd" d="M144.04297 475.89063v4.4375h.0039-.0039V311.67188h.0039-.0039v164.21875"/></g><g clip-path="url(#b)"><path fill="#fff" fill-opacity="0" fill-rule="evenodd" d="M144.04688 480.32813V311.67188h44.3789v126.54687l-4.4375 1.11328-.9961 1.05078.9961 2.83985 4.4375-1.34766 1.60547-1.49219-1.60547-2.16406V311.67187h31.07031v101.20704l-.80468.875-2.71485 4.4375 3.51953 3.10156.62891 1.33594 1.53516 4.4414-2.16407 2.26953-2.24609 2.16797 2.2461 3.57422 1.34765.86328 3.08984 1.53125 1.59375-1.53125 2.84375-.58203 4.4375-1.0586 3.04688-2.79687-3.04688-3.96094-.08984-.47656-4.34766-4.23437-.35547-.20703-.83203-4.4375-3.25-4.08204-2.33203-.35546-2.10547-.875V311.67187h22.19141v108.16407l-2.85156 2.79297 2.85156 4.41406.04297.02734 4.39453 2.21875 4.4375-1.86328.44531-.35547-.44531-.34765-4.4375-3.77735-.1914-.3164-4.2461-2.79297V311.67188h84.32813v95.94921l-1.94141 1.69532-2.4961 1.08593-4.4375 1.28907-2.15234 2.0625-2.28906.83203-4.4375 3.21094-.5586.39453-3.8789.30468-3.51953-.30468-.91797-.66797-4.4414-1.625-2.63673 2.29297-1.80078 1.10156-2.63281-1.10156-1.80469-1.3672-1.64453 1.3672-2.79297 1.73437-4.4375 1.98047-2.35547-3.71484-1.07812-4.4375-1.00781-1.60938-4.4375-2.53515-4.4375 3.5625-.5586.58203-3.35156 4.4375.1211 4.4375.29296 4.4414.89453 4.4375 2.60157 3.16406 4.4375.89454 4.4375-.00782L277.1953 435l4.4375-.76172 3.7539 1.70703.6836.54688.6836-.54688 3.1328-4.4375.6211-.64453 4.4375.01563 4.4414-.19141 4.4375.35547 4.4375-.30469 4.4375-.17969 3.3711-3.48828-.61328-4.4414.8125-4.4375.8711-2.35157 4.4375 1.07422 4.4375 1.11719 4.4375-.41406 2.83984.57422 1.59765 1.08984 4.44141 1.9414 4.4375.03516 2.90235-3.0664-.5625-4.4375-2.33985-2.65235-2.2539 2.65235-2.1836 1.74609-4.4414 1.79297-1.10157-3.53906-3.33594-4.22266-.76171-.21484-3.67579-1.69532v-95.94921h22.19141v118.5l-1.34375 1.33593 1.34375 1.94531 1.33985-1.9453-1.33985-1.33594v-118.5h22.1914v94.8164l-4.27343 2.82813-.16406.03515-4.4375 2.46875-1.9336 1.9336-1.89843 4.4375.05078 4.4375.52344 4.4414 3.2578 3.29688.22657 1.14062.1914 4.4375-.41796 4.21485-4.4375-.84766-4.4414.98828-4.4375-2.88672-3.01563 2.96875-1.42188 1.03516-2.0625-1.03516-2.375-1.67578-4.4414.75-1.14454.92578-3.29296 2.82031-4.4375 1.28516-.34766.33203.34765.83594 3.96094 3.60547-2.98437 4.4375-.97656 2.71484-4.4375-.98437-.92579-1.73047-3.51171-2.0586-4.44141-.60546-2.42578 2.66406.96484 4.4375 1.46094 1.17187 4.4414 1.11329 4.4375-1.1875 4.4375-.63672 4.4375 2.1328 4.19532-2.59374.24219-.73828 4.4414-2.89063 4.4375-.34375.76172-.46484 3.67578-1.11328 4.4375-.6875 4.4375-2.63672.0039-.0039 4.4375-1.10938 4.4375.2461 1.4297.86718 2.23437 4.4375-3.66406 3.10937-1.94922 1.32813 1.27344 4.4375.67578.14844.54297-.14844 3.89453-3.60938 1.4336 3.60938 3.0039 2.41015 2.22656 2.03125 2.21484 1.71094 3.95313-1.71094.25-4.4414.23437-.42578 4.4375.19922 4.4375-1.33985.62891 1.5664 1.48047 4.44142 2.32812 2.29687 4.44141.80469 3.11328-3.10156 1.32422-.32813 4.4375-1.01172 3.19531-3.10156 1.24219-3.03125 1.51953-1.40625-1.51953-2.94922-.86719-1.48828.86719-.63281 4.4414-1.89844 1.70313-1.90625 1.9375-4.4414-.9414-4.4375-2.69922-3.80079-.6797-.63672-3.76171-2.625-4.4375.85938-2.08203 1.76562-2.35547.4961-4.4375 1.64453-2.42578 2.29687-2.01563 1.60938-4.4375.45703-2.78515 2.3711-1.65235.90624-4.4375.16797-4.4375.25781-.5703-1.33203.5703-1.01172 4.4375-.83203 3.86329-2.59375-3.86329-2.6875-.67187-1.75.67187-2.35937 4.4375.03515 4.4375-1.22656 1.23047-.88672 1.85547-4.4375-3.08594-2.96094-4.4375-1.0625-4.4375 3.31641-.8203.70703-3.6172 1.40235-4.4414-.44922-.36719-.95313-4.07031-4.33984-.13672-.10156-.53125-4.4375.66797-.61329 3.85156-3.82421.51172-4.4375-4.36328-2.82813v-94.8164h53.26172v147.30859l-.78125 3.59375.78125.59765.89062-.59765-.89062-3.59375v-147.3086h44.3789v168.65625H144.04687"/></g><path fill="#50fcfc" fill-rule="evenodd" d="M183.98828 443.22266l-.9961-2.83985.9961-1.05078 4.4375-1.11328 1.60547 2.16406-1.60547 1.49219-4.4375 1.34766m35.50781-21.9297l-3.51953-3.10155 2.71485-4.4375.80468-.875 2.10547.875 2.33203.35546v2.23829l-4.4375.37109-1.05078 1.47266 1.05078.92578 1.65625 3.51172 2.78125 3.99609.22657.44531-.22657.54688-3.79297 3.89062 3.79297 3.40625 4.4375-.48437 4.4375-2.58985.3672-.33203-.3672-.47265-.74218-3.96485-3.69532-3.59765-1.45703-.84375-1.51172-4.4375-1.46875-1.84375v-2.23829l3.25 4.08204.83203 4.4375.35547.20703 4.34766 4.23437.08984.47656 3.04688 3.96094-3.04688 2.79688-4.4375 1.0586-2.84375.58202-1.59375 1.53125-3.08984-1.53125-1.34766-.86328-2.24609-3.57422 2.2461-2.16797 2.16406-2.26953-1.53516-4.4414-.6289-1.33594"/><path fill="#00e8fc" fill-rule="evenodd" d="M219.4961 419.11719l-1.05079-.92578 1.05078-1.47266 4.4375-.3711v3.83204l-1.0703 2.44922 1.0703 1.53515 1.46875 2.90625-1.46875 3.57422-.84375.86328.84375.75781 4.4375.61329 2.17578-1.3711.4297-4.4375-2.60548-2.53906-3.29297-1.90234-1.14453-2.44922v-3.83203l1.46875 1.84375 1.51172 4.4375 1.45703.84375 3.69532 3.59765.74218 3.96485.3672.47265-.3672.33203-4.4375 2.58985-4.4375.48437-3.79297-3.40625 3.79297-3.89062.22657-.54688-.22657-.44531-2.78125-3.9961-1.65625-3.51171"/><path fill="#00d4fc" fill-rule="evenodd" d="M223.9336 424.16406l-1.07032-1.53515 1.07031-2.44922 1.14453 2.44922 3.29297 1.90234v1.0625l-1.72656 1.47656 1.72656 4.08985 1.51563-4.08985-1.51563-1.47656v-1.0625l2.60547 2.53906-.42969 4.4375-2.17578 1.3711-4.4375-.61329-.84375-.7578.84375-.86329 1.46875-3.57422-1.46875-2.90625"/><path fill="#00c4fc" fill-rule="evenodd" d="M228.3711 431.16016l-1.72657-4.08985 1.72656-1.47656v1.0586l-.48437.41796.48437 1.14844.42578-1.14844-.42578-.41797v-1.05859l1.51563 1.47656-1.51563 4.08985"/><path fill="#00b8fc" fill-rule="evenodd" d="M228.3711 428.21875l-.48438-1.14844.48437-.41797.42578.41797-.42578 1.14844"/><path fill="#50fcfc" fill-rule="evenodd" d="M241.6875 427.04297l-2.85156-4.41406 2.85156-2.79297v2.47656l-.32422.3164.32422.5.48047-.5-.48047-.3164v-2.47656l4.2461 2.79297.1914.3164 4.4375 3.77735.44531.34765-.44531.35547-4.4375 1.86328-4.39453-2.21875-.04297-.02734"/><path fill="#00e8fc" fill-rule="evenodd" d="M241.6875 423.1289l-.32422-.5.32422-.3164.48047.3164-.48047.5"/><path fill="#50fcfc" fill-rule="evenodd" d="M260.08984 422.6289l-.12109-4.4375 3.35156-4.4375.5586-.58202 4.4375-3.5625v2.90234l-1.42579 1.24219-3.01171 3.89453-.44141.54297-1.44531 4.4375-.17188 4.4414 2.0586 4.26563.25.17187 4.1875 1.9961 4.4375-.45704 4.4414.07422 3.67969-1.61328.75781-.375 4.4375-.86328 3.10938-3.19922 1.32812-2.08984.66406 2.08984 3.77344 2.34375 4.4414-.0039 4.4375.33984 4.4375-.21875 4.4375-.64844 1.75-1.8125-1.52733-4.4414 2.0078-4.4375-2.23046-2.25391-2.84375 2.2539 1.60156 4.4375-3.19531.44141-.1836-.4414-4.2539-3.46485-4.4375-.09765-4.4414-.20704-4.4375 2.96875-4.4375-1.89453-3.70704 2.69532-.73047.4453-4.4375 1.92188-2.46094 2.07422-1.98046 2.2539-.78516-2.2539-2.08594-4.4414 1.2539-4.4375-1.28124-4.4375-1.53906-1.2422v-2.90233l4.4375 2.53515 1.0078 1.60938 1.07813 4.4375 2.35547 3.71484 4.4375-1.98047 2.79297-1.73437 1.64453-1.3672 1.80469 1.3672 2.63281 1.10156 1.80078-1.10156 2.63672-2.29297 4.4414 1.625.91798.66797 3.51953.30468 3.8789-.30468.5586-.39454 4.4375-3.21093 2.28906-.83203 2.15235-2.0625 4.4375-1.28907 2.49609-1.08593 1.9414-1.69532v2.16407l-4.4375 2.66796-2.66796 1.30079 2.66796 1.22656 4.4375 2.33594 4.4375-2.03125 1.32422-1.53125-1.32421-1.67188-4.4375-2.29687v-2.16407l3.67578 1.69532.76171.21484 3.33594 4.22266 1.10156 3.53906 4.44141-1.79297 2.1836-1.7461 2.2539-2.65234v6.41797l-1 .67188 1 .28125.26563-.28125-.26563-.67188v-6.41797l2.33985 2.65235.5625 4.4375-2.90235 3.0664-4.4375-.03515-4.4414-1.94141-1.59766-1.08984-2.83985-.57422-4.4375.41406-4.4375-1.11719-4.4375-1.07422-.87109 2.35157-.8125 4.4375.61328 4.4414-3.3711 3.48828-4.4375.1797-4.4375.30468-4.4375-.35547-4.4414.1914-4.4375-.01562-.6211.64453-3.1328 4.4375-.6836.54688-.6836-.54688-3.7539-1.70703-4.4375.76172-4.4414.5586-4.4375.0078-4.4375-.89452-2.60157-3.16407-.89453-4.4375-.29297-4.4414"/><path fill="#00e8fc" fill-rule="evenodd" d="M263.8789 431.33594l-2.05859-4.26563.17188-4.4414 1.44531-4.4375.4414-.54297 3.01173-3.89453 1.42578-1.2422v12.35548l-3.7422 2.20312 3.7422 2.8711 1.58593-2.8711-1.58593-2.20312v-12.35547l1.53906 1.24219 1.28125 4.4375-1.2539 4.4375 2.08593 4.4414.78516 2.2539 1.98046-2.2539 2.46094-2.07422 4.4375-1.92187v3.47265l-.98437.52344.98437.52735.8789-.52735-.8789-.52344v-3.47265l.73047-.44531 3.70703-2.69532 4.4375 1.89454 4.4375-2.96875 4.4414.20703 4.4375.09765v1.11328l-4.4375.44922-4.4414 1.1875-.99219.71485.9922 3.78125 1.29687.66015 3.14453.21094 4.4375.3086 4.4375-.07032 1.72656-.44922-1.72656-.73437-1.55078-3.70703-2.88672-2.35157v-1.11328l4.2539 3.46485.1836.4414 3.19531-.4414-1.60156-4.4375 2.84375-2.25391v2.25l-.0039.0039.0039.00782.0039-.00781-.0039-.00391v-2.25l2.23047 2.2539-2.00781 4.4375 1.52734 4.44141-1.75 1.8125-4.4375.64844-4.4375.21875-4.4375-.33984-4.4414.0039-3.77344-2.34375-.66407-2.08984-1.32812 2.08984-3.10938 3.19922-4.4375.86328-.75781.375-3.67969 1.61328-4.4414-.07421-4.4375.45703-4.1875-1.9961-.25-.17187"/><path fill="#00d4fc" fill-rule="evenodd" d="M268.3164 429.9414l-3.74218-2.87109 3.74219-2.20312 1.58593 2.20312-1.58593 2.8711m13.3164-2.34375l-.98437-.52735.98437-.52344.8789.52344-.8789.52735m13.3125-1.1875l-.99219-3.78125.9922-.71485 4.4414-1.1875 4.4375-.44922v1.11329l-4.4375.99218-.72656.2461.72656.6328 4.4375 2.00782 1.51953-2.64062-1.51953-1.23829v-1.11328l2.88672 2.35157 1.55078 3.70703 1.72656.73437-1.72656.44922-4.4375.07031-4.4375-.30859-3.14453-.21094-1.29688-.66015"/><path fill="#00c4fc" fill-rule="evenodd" d="M299.38672 423.26172l-.72656-.63281.72656-.2461 4.4375-.99219v1.11329l-.51953.125.51953.26953.15234-.26953-.15234-.125v-1.11329l1.51953 1.23829-1.51953 2.64062-4.4375-2.00781"/><path fill="#00b8fc" fill-rule="evenodd" d="M303.82422 422.89844l-.51953-.26953.51953-.125.15234.125-.15234.26953"/><path fill="#50fcfc" fill-rule="evenodd" d="M311.23828 458.13672l-.96484-4.4375 2.42578-2.66406 4.4414.60546 3.51172 2.0586.92579 1.73047 4.4375.98437.97656-2.71484 2.98437-4.4375-3.96094-3.60547-.34765-.83594.34765-.33203 4.4375-1.28515 3.29297-2.82032 1.14454-.92578 4.4414-.75 2.375 1.67578 2.0625 1.03516 1.42188-1.03516 3.01562-2.96875 4.4375 2.88672 4.4414-.98828 4.4375.84766.41798-4.21485-.19141-4.4375-.22656-1.14062-3.25781-3.29688-.52344-4.4414-.05078-4.4375 1.89843-4.4375 1.9336-1.9336 4.4375-2.46875.16406-.03515 4.27344-2.82813v2.42188l-.61328.40625-3.82422.87109-3.98438 3.5664-.45312.59376-2.91016 3.84375.11719 4.4375 1.40625 4.4414 1.38672 1.39844.60547 3.03906.47265 4.4375 1.26172 4.4375-2.33984 3.54688-4.4375-1.1836-4.4414 1.14063-4.4375-2.60938-4.4375 3.10157-1.96876.4414-2.46875 2.13672-1.08984 2.30469 1.08984.85156 2.9375-.85156 1.5-1.8125 2.02344 1.8125 2.41406.36328 1.36719-.36328 3.07031-2.27735 4.4414-.34765 4.4375-1.16406 4.4375-.28125 4.4375.74218 4.4375 1.79297v.94922l-2.30468.58594 2.30469 1.75781 1.35547-1.75781-1.35547-.58594v-.94922l3.5586 1.53516-3.375 4.4375.625 4.4375.52733 4.4375 3.10547 3.02734 2.53516-3.02734 1.90234-3.50781 4.4375-.64844 4.4375.17578 1.60157 3.98047 2.83593 4.04687 1.51172.39454 2.92969 1.10156 1.10547-1.10156 3.33203-.82032 4.4375-2.52734 1.125-1.09375-.4961-4.4375-.6289-.97656-2.29297.97656-2.14453.0664-.23438-.0664-4.20312-3.27735-1.89453-1.16015 1.89453-1.61719 3.15234-2.82031 1.28516-.39453 4.4375-.34375v.60937l-1.32813.1289 1.32813 1.1836.88281-1.1836-.88281-.1289v-.60937l4.4375.57031 4.4414-1.6875 1.66407-2.58594-1.57031-4.4375-.09375-.13281-4.44141-4.26172-4.4375.51172-4.4375 1.09375-3.89453 2.78906-.54297.625-4.36328 3.8125-.07813.125-4.4375.10156-4.4375 2.69141-4.4375-.04297-4.4375.67578-1.52343-3.55078 1.52343-2.70703 3.82813-1.73047-1.28906-4.4375-2.53907-3.98437-.67968-.45313-3.76172-1.97265-.95313-2.46485-3.48437-3.71875-1.0039-.72265-.66798-4.4375 1.67188-1.53516 2.92187-2.90234-2.29297-4.4375-.6289-.40625v-2.42188l4.36328 2.82813-.51172 4.4375-3.85156 3.82421-.66797.61329.53125 4.4375.13672.10156 4.07031 4.33984.36719.95313 4.4414.44922 3.6172-1.40235.8203-.70703 4.4375-3.3164v2.3828l-1.89453 1.64063 1.89453 2.78906 4.4375-2.41406.22266-.375-.22266-.21484-4.4375-1.42578v-2.38281l4.4375 1.0625 3.08594 2.96093-1.85547 4.4375-1.23047.88672-4.4375 1.22656-4.4375-.03515-.67187 2.35937.67187 1.75 3.86329 2.6875-3.86329 2.59375-4.4375.83203-.5703 1.01172.5703 1.33203 4.4375-.2578 4.4375-.16798 1.65235-.90625 2.78515-2.3711 4.4375-.45702 2.01563-1.60938 2.42578-2.29687 4.4375-1.64453 2.35547-.4961 2.08203-1.76562 4.4375-.85938 3.76172 2.625.67969.63672 2.69921 3.80078.94141 4.4375-1.9375 4.4414-1.70312 1.90626-4.44141 1.89844-.86719.6328.86719 1.48829 1.51953 2.94922-1.51953 1.40625-1.24219 3.03125-3.19531 3.10156-4.4375 1.01172-1.32422.32813-3.11328 3.10156-4.4414-.80469-2.32813-2.29688-1.48047-4.4414-.6289-1.5664-4.4375 1.33984-4.4375-.19922-.23438.42578-.25 4.4414-3.95313 1.71094-2.21484-1.71094-2.22656-2.03125-3.0039-2.41015-1.4336-3.60938-3.89453 3.60938-.54297.14844-.67578-.14844-1.27344-4.4375 1.94922-1.32813 3.66406-3.10937-2.23438-4.4375-1.42968-.86719-4.4375-.2461-4.4375 1.10938-.0039.0039-4.4375 2.63673-4.4375.6875-3.67579 1.11328-.76172.46484-4.4375.34375-4.4414 2.89063-.2422.73828-4.1953 2.59375-4.4375-2.13281-4.4375.63671-4.4375 1.1875-4.44141-1.11328-1.46094-1.17187"/><path fill="#00d4fc" fill-rule="evenodd" d="M312.69922 418.19922l-.0039-.00781.0039-.00391.0039.0039-.0039.00782"/><path fill="#00e8fc" fill-rule="evenodd" d="M321.57813 414.98047l-2.66797-1.22656 2.66796-1.30079 4.4375-2.66796v1.32421l-3.38671 2.64454 3.38671 2.375 3.40235-2.375-3.40235-2.64454v-1.32421l4.4375 2.29687 1.32422 1.67188-1.32421 1.53125-4.4375 2.03125-4.4375-2.33594"/><path fill="#00d4fc" fill-rule="evenodd" d="M326.01563 416.1289l-3.38672-2.375 3.38671-2.64452v1.32812l-1.6875 1.3164 1.6875 1.1836 1.69532-1.1836-1.69531-1.3164v-1.32813l3.40234 2.64454-3.40235 2.375"/><path fill="#00c4fc" fill-rule="evenodd" d="M326.01563 414.9375l-1.6875-1.1836 1.6875-1.3164 1.6953 1.3164-1.6953 1.1836"/><path fill="#00e8fc" fill-rule="evenodd" d="M339.33203 450.11328l-1.08984-.85156 1.08984-2.30469 2.46875-2.13672 1.96875-.4414 4.4375-3.10157 4.4375 2.60938 4.4414-1.14063 4.4375 1.1836 2.33985-3.54688-1.26172-4.4375-.47265-4.4375-.60547-3.03906-1.38672-1.39844-1.40625-4.4414-.11719-4.4375 2.91016-3.84375.45312-.59375 3.98438-3.56641 3.82422-.8711.61328-.40624v2.64062l-4.4375.02344-2.4336 2.17969-2.0039 2.6289-1.3711 1.8086.22266 4.4375 1.14844 2.47265.44531 1.96875.78906 4.4375.94531 4.4375 2.25782 3.59766.98437.83984 3.45313 2.8789 2.3164 1.5586 2.1211 1.32422 1.32812-1.32422 2.29297-4.4375.82031-2.73437.4922-1.70313-.4922-.77344-4.4414-3.24609-.26563-.41797-1.66015-4.4375-2.51172-2.67969-2.44531-1.76171-.90235-4.4375 3.34766-3.07422 1.375-1.36328-1.375-2.20313v-2.64062l.6289.40625 2.29297 4.4375-2.92187 2.90234-1.67188 1.53516.66797 4.4375 1.0039.72265 3.48438 3.71875.95313 2.46485 3.76172 1.97265.67968.45313 2.53907 3.98437 1.28906 4.4375-3.82813 1.73047-1.52343 2.70703 1.52343 3.55078 4.4375-.67578v2.63672l-4.18359 3.36719-.2539.33984-1.90626 4.09766 1.90625 4.10547 2.54688-4.10547 1.89062-1.57031 4.38282-2.8672-4.38282-3.36718v-2.63672l4.4375.04297 4.4375-2.6914v1.53515l-3.3789 2.67969-.95313 4.4375 4.33203 2.09765 3.62891 2.33985-.41406 4.4375 1.22265 1.7461 4.44141 1.78515 4.4375-.73438 3.70313-2.79687-3.70313-3.375-3.71875-1.0625-.71875-.5586-4.4414-.85546-1.54298-3.02344.98438-4.4375-3.8789-2.67969v-1.53515l4.4375-.10157.07812-.125 4.36328-3.8125.54297-.625 3.89453-2.78906 4.4375-1.09375 4.4375-.51172v1.84375l-4.4375.16016-4.4375 1.51562-1.21875.875-3.21875 3.6914-.85547.7461.85547 2.17578 4.4375.57813 4.4375-.0664 4.4375-.29688 3.19922-2.39063-.59766-4.4375-2.60156-2.55078v-1.84375l4.4414 4.26172.09376.13281 1.5703 4.4375-1.66405 2.58594-4.44141 1.6875-4.4375-.57031-4.4375.34375-1.28516.39453-3.15234 2.82031-1.89453 1.61719 1.89453 1.16015 4.20313 3.27735.23437.0664 2.14453-.0664 2.29297-.97656.6289.97656.4961 4.4375-1.125 1.09375-4.4375 2.52734-3.33203.82031-1.10547 1.10157-2.92969-1.10156-1.51172-.39454-2.83593-4.04687-1.60157-3.98047-4.4375-.17578-4.4375.64844-1.90234 3.5078-2.53516 3.02735-3.10546-3.02734-.52735-4.4375-.625-4.4375 3.375-4.4375-3.5586-1.53516-4.4375-1.79297-4.4375-.74218-4.4375.28125-4.4375 1.16406-4.4414.34765-3.07031 2.27735-1.36719.36328-2.41406-.36328-2.02344-1.8125-1.5 1.8125-2.9375.85156m4.4375-31.64062l-1-.28125 1-.67188.26563.67188-.26563.28125"/><path fill="#50fcfc" fill-rule="evenodd" d="M348.20703 433.45313l-1.34375-1.94532 1.34375-1.33594 1.33985 1.33594-1.33985 1.94531"/><path fill="#00d4fc" fill-rule="evenodd" d="M360.375 422.6289l-.22266-4.4375 1.3711-1.80859 2.0039-2.6289 2.4336-2.1797v1.39063l-.88281.78907.8828 2.75v3.80859l-2.47656 2.3164-.71093 4.44141.61328 4.4375 1.41797 4.4375 1.15625 1.84375 3.03515 2.59375 1.40235 1.17188 4.4375 2.4336 1.5-3.60548 1.10156-4.4375-2.60156-2.08203-1.51172-2.35547-1.39063-4.4375-1.53515-1.64062-3.88672-2.80078-.55078-2.31641v-3.8086l3.69922-2.75-3.69922-.78906v-1.39062l4.4375-.02344 1.375 2.20313-1.375 1.36328-3.34766 3.07422.90235 4.4375 2.4453 1.76171 2.51173 2.6797 1.66015 4.4375.26563.41796 4.4414 3.2461.4922.77343-.4922 1.70313-.8203 2.73437-2.29298 4.4375-1.32812 1.32422-2.1211-1.32422-2.3164-1.5586-3.45313-2.8789-.98437-.83984-2.25781-3.59766-.94532-4.4375-.78906-4.4375-.44531-1.96875-1.14844-2.47265"/><path fill="#00c4fc" fill-rule="evenodd" d="M363.38672 431.50781l-.61328-4.4375.71094-4.4414 2.47656-2.31641v3.08594l-2.38281 3.67187.4414 4.4375 1.88281 4.4375.0586.08985 4.4375 3.92578 4.4375-3.10547.1836-.91016-.1836-.14844-2.7539-4.28906-1.1211-4.4375-.5625-.60156-4.4375-3.07031v-3.08594l.55078 2.3164 3.88672 2.80079 1.53515 1.64062 1.39063 4.4375 1.51172 2.35547 2.60156 2.08203-1.10156 4.4375-1.5 3.60547-4.4375-2.4336-1.40235-1.17187-3.03515-2.59375-1.15625-1.84375-1.41797-4.4375"/><path fill="#00b8fc" fill-rule="evenodd" d="M364.01953 431.50781l-.4414-4.4375 2.3828-3.67187v1.23828l-1.57812 2.4336.26563 4.4375 1.3125 3.05077 1.42969 1.38672 3.0078 2.67578 3.03516-2.67578-2.59765-4.4375-.4375-2.01953-.78516-2.41797-3.65234-2.4336v-1.23827l4.4375 3.07031.5625.60156 1.1211 4.4375 2.7539 4.28906.1836.14844-.1836.91016-4.4375 3.10547-4.4375-3.92578-.0586-.08985-1.8828-4.4375"/><path fill="#00a8fc" fill-rule="evenodd" d="M364.64844 431.50781l-.26563-4.4375 1.57813-2.4336v1.2422l-.77344 1.1914.08984 4.4375.6836 1.58594 2.9336 2.85156 1.5039 1.33594 1.51562-1.33594-1.51562-2.6914-1.66016-1.7461-.98828-4.4375-1.78906-1.1914v-1.2422l3.65234 2.4336.78516 2.41797.4375 2.01953 2.59765 4.4375-3.03515 2.67578-3.00781-2.67578-1.4297-1.38672-1.3125-3.05078"/><path fill="#00c4fc" fill-rule="evenodd" d="M365.96094 416.5039l-.88281-2.75.8828-.78906 3.69923.78907-3.69922 2.75"/><path fill="#009800" fill-rule="evenodd" d="M365.27734 431.50781l-.08984-4.4375.77344-1.1914v2.59765l-.05469 3.03125.05469.1211.21484-.1211-.21484-3.03125v-2.59765l1.78906 1.1914.98828 4.4375 1.66016 1.7461 1.51562 2.6914-1.51562 1.33594-1.5039-1.33594-2.9336-2.85156-.6836-1.58594"/><path fill="#00ac00" fill-rule="evenodd" d="M365.96094 431.6289l-.05469-.12109.05469-3.03125.21484 3.03125-.21484.1211"/><path fill="#fff" fill-opacity="0" fill-rule="evenodd" d="M374.83594 448.67578l-2.30469.58594 2.30469 1.75781 1.35547-1.75781-1.35547-.58594"/><path fill="#00d4fc" fill-rule="evenodd" d="M379.27734 462.24219l-1.90625-4.10547 1.90625-4.09766.25391-.33984 4.1836-3.36719v2.25l-1.39063 1.11719-3.04688 4.05469-.17968.3828.17968.38282.23438-.38281 4.20312-3.48438 1.45704-.95312-1.45704-1.11719v-2.25l4.38282 3.36719-4.38282 2.86719-1.89062 1.5703-2.54688 4.10548"/><path fill="#00c4fc" fill-rule="evenodd" d="M379.27734 458.51953l-.17968-.38281.17968-.38281 3.04688-4.0547 1.39062-1.11718 1.45704 1.11719-1.45704.95312-4.20312 3.48438-.23438.38281"/><path fill="#00e8fc" fill-rule="evenodd" d="M388.15234 429.85938l-1.89453-2.78907 1.89453-1.64062 4.4375 1.42578.22266.21484-.22266.375-4.4375 2.41406"/><path fill="#00d4fc" fill-rule="evenodd" d="M392.58984 455.79688l-4.33203-2.09766.95313-4.4375 3.3789-2.67969v1.53906l-1.43359 1.14063 1.4336 3.46875 1.64843-3.46875-1.64844-1.14063v-1.53906l3.87891 2.67969-.98438 4.4375 1.54297 3.02344 4.44141.85546v2.03516l-3.85547 2.96094 3.85547 2.17187 4.4375-.19921 2.61328-1.97266-2.61328-2.38281-4.4375-.57813v-2.03515l.71875.55859 3.71875 1.0625 3.70313 3.375-3.70313 2.79687-4.4375.73438-4.4414-1.78516-1.22266-1.7461.41406-4.4375-3.6289-2.33983"/><path fill="#00c4fc" fill-rule="evenodd" d="M392.58984 452.73047l-1.43359-3.46875 1.4336-1.14063 1.64843 1.14063-1.64844 3.46875m8.87891 12.01562l-3.85547-2.17187 3.85547-2.96094 4.4375.57813v.99609l-4.4375.28125-1.4375 1.10547 1.4375.8086 4.4375.34374 1.52344-1.15234-1.52344-1.38672v-.9961l2.61328 2.38282-2.61328 1.97265-4.4375.19922"/><path fill="#00b8fc" fill-rule="evenodd" d="M401.46875 463.38281l-1.4375-.8086 1.4375-1.10546 4.4375-.28125v.99219l-2.19922.39453 2.19922.32812.4336-.32812-.4336-.39453v-.99219l1.52344 1.38672-1.52344 1.15234-4.4375-.34375"/><path fill="#00d4fc" fill-rule="evenodd" d="M401.46875 446.9961l-.85547-2.17579.85547-.7461 3.21875-3.6914 1.21875-.875 4.4375-1.51562v1.49219l-2.33594.89843-2.10156 1.44531-2.65625 2.9922 2.65625 1.46093 4.4375.21094 4.4375-1.16406.67969-.50782.04687-4.4375-.72656-.71094-4.4375-.1875v-1.49218l4.4375-.16016 2.60156 2.55078.59766 4.4375-3.19922 2.39063-4.4375.29687-4.4375.0664-4.4375-.57812"/><path fill="#00c4fc" fill-rule="evenodd" d="M405.90625 446.28125l-2.65625-1.46094 2.65625-2.99219 2.10156-1.4453 2.33594-.89844v2.58593l-4.4375 2.41016-.30078.33984.30078.16797 4.4375.49219 2.08594-.66016-2.08594-2.75v-2.58594l4.4375.1875.72656.71094-.04687 4.4375-.67969.50781-4.4375 1.16407-4.4375-.21094"/><path fill="#00a8fc" fill-rule="evenodd" d="M405.90625 462.90234l-2.19922-.32812 2.19922-.39453.4336.39453-.4336.32812"/><path fill="#00b8fc" fill-rule="evenodd" d="M405.90625 444.98828l-.30078-.16797.30078-.33984 4.4375-2.41016 2.08594 2.75-2.08594.66016-4.4375-.49219"/><path fill="#fff" fill-opacity="0" fill-rule="evenodd" d="M410.34375 449.13281l-1.32813.1289 1.32813 1.1836.88281-1.1836-.88281-.1289"/><path fill="#50fcfc" fill-rule="evenodd" d="M423.66016 463.17188l-.78125-.59766.78125-3.59375.89062 3.59375-.89062.59765"/><g clip-path="url(#c)"><path fill="#fff" fill-opacity="0" fill-rule="evenodd" d="M468.03906 480.32813h.0039V311.67188h-.0039.0039v168.65625h-.0039"/></g><path fill="#fff" fill-opacity="0" fill-rule="evenodd" d="M336.15625 442.97266l5.01172 3.0039 5.11719-8.54687-5.01172-3-5.11719 8.54297"/><path fill-rule="evenodd" d="M343.33594 437.79688l.4336.26171-3.23048 5.40235-.67578-.40625 2.30469-3.85156-1.1914-.71094.28515-.47656.51562.23046.2422.08204.24218.04296.25-.01562.25781-.09375.26953-.17969.29688-.28515"/><path fill="#fff" fill-opacity="0" fill-rule="evenodd" d="M379.44531 449.92969l4.7461-3.40235-5.8047-8.09765-4.74608 3.40234 5.80468 8.09766"/><path fill-rule="evenodd" d="M377.55078 441.28516l.41406-.29688 3.66797 5.11719-.63672.45703-2.61718-3.64844-1.12891.8086-.32422-.45313.41797-.3789.17188-.1875.13671-.20704.08204-.23437.01953-.27344-.0586-.32031-.14453-.38281"/><path fill="#fff" fill-opacity="0" fill-rule="evenodd" d="M387.42578 467.26172l1.59375-5.6211-9.58203-2.71875-1.59375 5.6172 9.58203 2.72265"/><path fill-rule="evenodd" d="M380.5625 461.67578l.13672-.49219 6.0586 1.71875-.21485.75782-4.32031-1.22657-.37891 1.33594-.53516-.15234.08985-.55469.01953-.25781-.02344-.2461-.08203-.23437-.15234-.22266-.2461-.21875-.35156-.20703"/><path fill="#fff" fill-opacity="0" fill-rule="evenodd" d="M334.91797 425.46484l5.71094 1.21875 2.08203-9.73828-5.71485-1.22265-2.07812 9.74218"/><path fill-rule="evenodd" d="M340.03516 418.2461l.5.10937-1.31641 6.15625-.76953-.16797.9375-4.39063-1.35547-.28906.11328-.54297.5625.0547h.25781l.2422-.03907.23046-.09766.21094-.16797.20312-.2578.1836-.3672"/><g clip-path="url(#d)"><path fill="none" stroke="#000" stroke-linecap="round" stroke-linejoin="round" stroke-miterlimit="10" stroke-width=".5" d="M0 480.60156v-.54687"/></g><g clip-path="url(#e)"><path fill="none" stroke="#000" stroke-linecap="round" stroke-linejoin="round" stroke-miterlimit="10" stroke-width=".5" d="M0 480.60156v2.25"/></g><g clip-path="url(#f)"><path fill="none" stroke="#000" stroke-linecap="round" stroke-linejoin="round" stroke-miterlimit="10" stroke-width=".5" d="M0 480.20313v.25"/></g><g clip-path="url(#g)"><path fill="none" stroke="#000" stroke-linecap="round" stroke-linejoin="round" stroke-miterlimit="10" stroke-width=".5" d="M0 480.20313v2.125"/></g><g clip-path="url(#h)"><path fill="none" stroke="#000" stroke-linecap="round" stroke-linejoin="round" stroke-miterlimit="10" stroke-width=".5" d="M0 480.91406v-1.17187"/></g><g clip-path="url(#i)"><path fill="none" stroke="#000" stroke-linecap="round" stroke-linejoin="round" stroke-miterlimit="10" stroke-width=".5" d="M0 480.7461v1.16406"/></g><g clip-path="url(#j)"><path fill="none" stroke="#000" stroke-linecap="round" stroke-linejoin="round" stroke-miterlimit="10" stroke-width=".5" d="M0 480.78125v-.90234"/></g><g clip-path="url(#k)"><path fill="none" stroke="#000" stroke-linecap="round" stroke-linejoin="round" stroke-miterlimit="10" stroke-width=".5" d="M0 480.64844v1.14844"/></g><g clip-path="url(#l)"><path fill="none" stroke="#000" stroke-linecap="round" stroke-linejoin="round" stroke-miterlimit="10" stroke-width=".5" d="M0 481.34766v-2.03516"/></g><g clip-path="url(#m)"><path fill="none" stroke="#000" stroke-linecap="round" stroke-linejoin="round" stroke-miterlimit="10" stroke-width=".5" d="M0 481.05078v1.20313"/></g><g clip-path="url(#n)"><path fill="none" stroke="#000" stroke-linecap="round" stroke-linejoin="round" stroke-miterlimit="10" stroke-width=".5" d="M0 481.51563v-2.375"/></g><g clip-path="url(#o)"><path fill="none" stroke="#000" stroke-linecap="round" stroke-linejoin="round" stroke-miterlimit="10" stroke-width=".5" d="M0 481.17188v1.21484"/></g><g clip-path="url(#p)"><path fill="none" stroke="#000" stroke-linecap="round" stroke-linejoin="round" stroke-miterlimit="10" stroke-width=".5" d="M0 480.41797v-.17969"/></g><g clip-path="url(#q)"><path fill="none" stroke="#000" stroke-linecap="round" stroke-linejoin="round" stroke-miterlimit="10" stroke-width=".5" d="M0 480.39453v1.09766"/></g><g clip-path="url(#r)"><path fill="none" stroke="#000" stroke-linecap="round" stroke-linejoin="round" stroke-miterlimit="10" stroke-width=".5" d="M0 481.26953v-1.88281"/></g><g clip-path="url(#s)"><path fill="none" stroke="#000" stroke-linecap="round" stroke-linejoin="round" stroke-miterlimit="10" stroke-width=".5" d="M0 480.9961v1.19921"/></g><g clip-path="url(#t)"><path fill="none" stroke="#000" stroke-linecap="round" stroke-linejoin="round" stroke-miterlimit="10" stroke-width=".5" d="M0 482.60156v-4.54297"/></g><g clip-path="url(#u)"><path fill="none" stroke="#000" stroke-linecap="round" stroke-linejoin="round" stroke-miterlimit="10" stroke-width=".5" d="M0 483.53516V477.125"/></g><g clip-path="url(#v)"><path fill="none" stroke="#000" stroke-linecap="round" stroke-linejoin="round" stroke-miterlimit="10" stroke-width=".5" d="M0 483.33984v-6.01953"/></g><g clip-path="url(#w)"><path fill="none" stroke="#000" stroke-linecap="round" stroke-linejoin="round" stroke-miterlimit="10" stroke-width=".5" d="M0 483.08203v-5.50781"/></g><g clip-path="url(#x)"><path fill="none" stroke="#000" stroke-linecap="round" stroke-linejoin="round" stroke-miterlimit="10" stroke-width=".5" d="M0 483.32031v-5.98437"/></g><g clip-path="url(#y)"><path fill="none" stroke="#000" stroke-linecap="round" stroke-linejoin="round" stroke-miterlimit="10" stroke-width=".5" d="M0 483.65625V477"/></g><g clip-path="url(#z)"><path fill="none" stroke="#000" stroke-linecap="round" stroke-linejoin="round" stroke-miterlimit="10" stroke-width=".5" d="M0 483.78906v-6.92187"/></g><g clip-path="url(#A)"><path fill="none" stroke="#000" stroke-linecap="round" stroke-linejoin="round" stroke-miterlimit="10" stroke-width=".5" d="M0 483.80469v-6.94922"/></g><g clip-path="url(#B)"><path fill="none" stroke="#000" stroke-linecap="round" stroke-linejoin="round" stroke-miterlimit="10" stroke-width=".5" d="M0 483.8086v-6.96094"/></g><g clip-path="url(#C)"><path fill="none" stroke="#000" stroke-linecap="round" stroke-linejoin="round" stroke-miterlimit="10" stroke-width=".5" d="M0 483.83984v-7.01953"/></g><g clip-path="url(#D)"><path fill="none" stroke="#000" stroke-linecap="round" stroke-linejoin="round" stroke-miterlimit="10" stroke-width=".5" d="M0 483.83203v-7.0039"/></g><g clip-path="url(#E)"><path fill="none" stroke="#000" stroke-linecap="round" stroke-linejoin="round" stroke-miterlimit="10" stroke-width=".5" d="M0 483.64453v-6.63281"/></g><g clip-path="url(#F)"><path fill="none" stroke="#000" stroke-linecap="round" stroke-linejoin="round" stroke-miterlimit="10" stroke-width=".5" d="M0 482.01172v-3.36719"/></g><g clip-path="url(#G)"><path fill="none" stroke="#000" stroke-linecap="round" stroke-linejoin="round" stroke-miterlimit="10" stroke-width=".5" d="M0 477.4414v5.77344"/></g><path fill="none" stroke="#000" stroke-linecap="round" stroke-linejoin="round" stroke-miterlimit="10" stroke-width=".5" d="M0 478.28125v.14453"/><g clip-path="url(#H)"><path fill="none" stroke="#000" stroke-linecap="round" stroke-linejoin="round" stroke-miterlimit="10" stroke-width=".5" d="M0 483.23438v-5.8125"/></g><g clip-path="url(#I)"><path fill="none" stroke="#000" stroke-linecap="round" stroke-linejoin="round" stroke-miterlimit="10" stroke-width=".5" d="M0 481.14844v-1.64063"/></g><g clip-path="url(#J)"><path fill="none" stroke="#000" stroke-linecap="round" stroke-linejoin="round" stroke-miterlimit="10" stroke-width=".5" d="M0 480.91016v1.1875"/></g><g clip-path="url(#K)"><path fill="none" stroke="#000" stroke-linecap="round" stroke-linejoin="round" stroke-miterlimit="10" stroke-width=".5" d="M0 483.83594v-7.01563"/></g><g clip-path="url(#L)"><path fill="none" stroke="#000" stroke-linecap="round" stroke-linejoin="round" stroke-miterlimit="10" stroke-width=".5" d="M0 467.47266v-.91797"/></g><path fill="none" stroke="#000" stroke-linecap="round" stroke-linejoin="round" stroke-miterlimit="10" stroke-width=".5" d="M0 467.33984v1.14844m0-1.53125v.11328m0-.09375v1.07422m0-1.1289v.18359m0-.15625v1.0664m0-3.04296v4.08203m0-3.48828v.54687m0-.75781v3.3164m0 1.26954v-5.85547m0 .22656v5.40234m0-6.04297v6.6836m0-6.6875v6.6914m0-.98828v-4.71484m0 5.52344v-6.33203m0 5.41015v.05078m0 1.04297v-6.67578M0 470.5v-6.97266m0 5.95703v.4375m0 .52735v-6.8711m0 5.8711v.78906m0-.83203v-4.78516m0 4.08985v1.1836m0 .57421v-6.91016m0 5.90625v.76172m0-.7461v-4.93359m0 4.21485v-.36719m0 1.3789v-5.51952m0 4.71875v-.21875m0 1.29296v-6.0664m0 5.1836v-.05079m0-4.26172v4.32422m0-3.69531v-1.20703m0 6.25v-7.01953m0 6v.625m0 .34375v-6.91797m0 5.91015v.37891m0 .66406v-6.98828m0 5.96875v.6914m0-.66796v-4.9961m0 4.26954v1.17187m0-.6836v-4.51952m0 3.86328v1.19922"/><g clip-path="url(#M)"><path fill="none" stroke="#000" stroke-linecap="round" stroke-linejoin="round" stroke-miterlimit="10" stroke-width=".5" d="M0 454.98047v-2.5664"/></g><path fill="none" stroke="#000" stroke-linecap="round" stroke-linejoin="round" stroke-miterlimit="10" stroke-width=".5" d="M0 454.60938v1.21875m0-1.47266v-1.3125m0 1.1211v1.17187m0-3.6211v3.96875m0-5.46875v6.96875m0-2.95312v-1.0625m0 .61719v-.17188m0-1.1289v2.42578m0-2.07032V451.625m0 1.0625v2.02344m0-1.73047v-1.20313M0 452v3.39844m0-4.14453v4.88672m0-4.17579v-1.17578m0 4.69922v-3.58203m0 3.0625v-.64063m0 1.12891v-3.51953m0 3.00781v-.64844m0 .57813v-2.35547m0 2.01563v-.82813m0 2.125v-4.26562m0 3.64453v-.51172m0 1.09375v-4.1875m0 3.57812v-.52734m0 .29297v-2.5m0 2.13672v-.8086m0 .28125v-.71875m0 .61328v-1.01953m0 1.625v-1.72265m0 1.47265v-.90625m0-.34765v1.28906m0-1.10156v-1.17188m0 2.14453v-1.03125m0 1.03125v-1.97656m0 1.96484v-1.0078m0 .85937v-.98828m0 4.08203v-6.90235m0 5.89844v.76953m0-.14062v-6.15235m0 6.15235v-.03906m0-.85547v-.01953m0 1.35156v-7.02735m0 7.02735v1.16406m0-1.65234v-6.04688m0 5.16797v1.04687"/><g clip-path="url(#N)"><path fill="none" stroke="#000" stroke-linecap="round" stroke-linejoin="round" stroke-miterlimit="10" stroke-width=".5" d="M0 441.96484v-3.16015"/></g><path fill="none" stroke="#000" stroke-linecap="round" stroke-linejoin="round" stroke-miterlimit="10" stroke-width=".5" d="M0 442.73828v-4.71094m0 5.8086v-6.90625m0 3.45312v-1.02343 2.04687V440.38281m0-.01562v.03515m0-3.33984v6.64063m0-6.27344v5.90625m0-5.04688v-1.07031m0 3.53906v-.7461m0 .63673v-1.01563m0-.5625v2.625m0-4.23828v5.85547m0-5.0039v-1.07813m0-.24219v6.78906m0-5.80078v-.27343m0-.82422v7.0078m0-5.98827v-.5m0-.23828v6.4453m0-5.5078v-.95703m0 1.9375v2.61328m0-2.23438v-1.21875m0 1.15625v1.97656m0-.83203v-.3125m0 .26563v-1.05469m0 1.4336v-.97657m0 .97656v-1.98437m0 1.6289V440.25m0 .26563v-2.1211m0 .70703v2.5625m0-2.1914v-1.21875m0 2.36718v-.47265m0 .47265v-2.08593m0 4.39843v-5.09765m0 5.09765v-.65625m0 1.1836v-6.15625m0 6.15625v-.03125m0 .35937v-6.8086m0 6.8086v.58203m0-.66015v-6.65235m0 6.65235v.39062m0-1.35937v.19531m0 .91797v-6.94531m0 6.9453v.8086"/><g clip-path="url(#O)"><path fill="none" stroke="#000" stroke-linecap="round" stroke-linejoin="round" stroke-miterlimit="10" stroke-width=".5" d="M0 426.20313v1.73046"/></g><path fill="none" stroke="#000" stroke-linecap="round" stroke-linejoin="round" stroke-miterlimit="10" stroke-width=".5" d="M0 426.45703v.90625m0-1.76953v2.94922m0-2.51953v.74218M0 427.5v-.86328m0 2.625V424.875m0 1.15625v2.07422m0-1.77344v.86719m0 .86328v-1.98828m0 1.98828v2.40625m0-4.99219v3.1836m0-3.1836v1.41016m0-.96875v2.30078m0-1.96484v.83203m0-3.52344v7.01172m0-5.99219v-.5039m0 .5078v4.96876m0-4.2461v-1.17578m0-.57031v7.01172m0-5.99219v-.5m0 .24219v5.48828m0-6.20312v6.91796m0-5.91015v-.375m0 5.59765v-5.54296m0-.61329v6.76954m0-4.40235v2.03516m0-1.73828v-1.20313m0 4.03906v-4.23046m0 3.61328v-.51953m0 1.40625v-4.76954m0 4.76954v-.8086m0-4.98047v6.8125m0-5.82422v-.82421m0 2.1289v2.22266m0-1.89844v.84375m0 2.95703v-6.02734m0 6.02734v-.1211m0-.7539v-.0625m0 .4961v-5.14454m0 5.14454v-.63282m0-.11718v-.31641m0 1.98828v-6.98828m0 6.98437v-6.98046m0 6.98046v.90235m0-1.91797v.45312m0 .39454v-6.64454m0 6.64454v.39062m0-1.35547v.19531"/><g clip-path="url(#P)"><path fill="none" stroke="#000" stroke-linecap="round" stroke-linejoin="round" stroke-miterlimit="10" stroke-width=".5" d="M0 411.83984v3.82813"/></g><path fill="none" stroke="#000" stroke-linecap="round" stroke-linejoin="round" stroke-miterlimit="10" stroke-width=".5" d="M0 412.39453v.59375m0-.7539v3.03906m0-2.59766v.72656m0-1.2578v3.21874m0-2.75v.69922m0-.78516v2.45313m0-2.09766v.8164m0 1.625v-3.14062m0 3.14063v2.45312m0-1.74218v-4.5625m0 4.5625v2.39453m0-1.17578v-7m0 5.98046v.66407m0-.58203v-5.125m0 4.3789v1.16016m0-.1875v-5.57813m0 4.76563v1.11719m0-6.50782v6.82813m0-6.88672v6.9414m0-5.92968v-.39844m0-.51172v6.74219m0-6.6211v6.5m0-5.55468v-.1211m0-1.05078v6.94922m0-5.9375v-.40625m0 4.5625v-3.38672m0-1.8164v7.02343m0-.42578v-6.17187m0 5.27344v1.02343m0-.875v-4.67187m0 4.67187v-.85156m0-1.0664v-.83594m0 .83594v-2.01563m0 1.89063v-1.00391m0-2.0586v5.53516m0-5.53515v-2.2422m0 3.05079v-1.1211m0 .97657v4.21094m0-4.21094v-2.42578m0 1.4414v6.17969m0-5.23438v4.28907m0-4.28906v1.01171m0 2.2461v-2.22657m0 1.90235v1.21094m0-2.32813v.65625m0-.5625v1.02734"/><g clip-path="url(#Q)"><path fill="none" stroke="#000" stroke-linecap="round" stroke-linejoin="round" stroke-miterlimit="10" stroke-width=".5" d="M0 398.91016v3.05468"/></g><path fill="none" stroke="#000" stroke-linecap="round" stroke-linejoin="round" stroke-miterlimit="10" stroke-width=".5" d="M0 399.35547v.72656m0-1.08594v2.88282m0-2.88282V400.5m0-.95313v1.78125m0-1.78125v1.8047m0-2.52735v3.22656m0-2.7539v.6953m0 3.9375v-6.98046m0 5.96484v.69531m0 .32422v-6.99218m0 6.99218v1.3672m0-1.96485v-5.79297m0 5.79297v2.17578m0-2.55078v-5.04688m0 4.3125v1.16797m0-6.3164v6.72265m0-4.79687v2.86718m0-2.44921v.7539m0-2.73437v5.99218m0-5.12109v.07422m0-1.29688v6.69532m0-5.72266v-.875m0 .89844v4.70312m0-4.70312v-2.3789m0 3.16796v3.1289m0-2.67577v-1.22657m0-.5v5.67188m0-4.84766v-1.10156m0 6.27734v-6.32812m0 6.625v-6.92188m0 6.34766v-5.76953m0 5.76953v-.29297m0 .0039v-5.1914m0 4.4336v-.3047m0-4.71484v6.35938m0-6.35938v-1.96484m0 2.6836v4.92187m0-4.92188V395.625m0 5.9961v-2.36329m0 2.01953v1.21094m0-2.40234v.70703m0-.70703v2.03906m0-2.57031v1.76953m0-1.76953v1.80469m0-3.2422v4.64063"/><g clip-path="url(#R)"><path fill="none" stroke="#000" stroke-linecap="round" stroke-linejoin="round" stroke-miterlimit="10" stroke-width=".5" d="M0 398.11719v.86719"/></g><g clip-path="url(#S)"><path fill="none" stroke="#000" stroke-linecap="round" stroke-linejoin="round" stroke-miterlimit="10" stroke-width=".5" d="M0 385.375v3.4961"/></g><path fill="none" stroke="#000" stroke-linecap="round" stroke-linejoin="round" stroke-miterlimit="10" stroke-width=".5" d="M0 385.88672v.65234m0 .02735v1.11328m0-.95313v.98047m0-3.79687v6.42968m0-5.49609v-.08984m0-1.0547v6.84767m0-5.85157v-.80469m0 1.1211v4.22656m0-3.61328v-1.21094m0 5.92578v-6.43359m0 6.4336v.17968m0-1.5625v-3.66797m0 3.13281v1.22657m0-.52344v-4.0039m0 4.0039v2.4375m0-2.95313v-2.97265m0 2.97265v2.44922m0-3.33593v-1.19922m0 1.02734v1.16406m0-4.17578v5.16797m0-4.41406v.3086m0-.94923v4.94141m0-4.22266v-1.17578m0-.28906v6.4375m0-5.5039v-.96094m0-.26563v7.01953m0-7.01953v-1.25781m0 2.28125v-.6289m0-.35157v6.9336m0-6.9336v-1.48828m0 2.4961v-.7422m0 6.52344v-6.64453m0 6.64453v.38672m0-1.9414v-3.53125m0 3.53125v-1.29688m0-1.66797v2.39453m0-2.04687v-1.21485m0-1.37109v6.8711m0-5.8711v-.78906m0 2.00781v2.4336m0-2.4336v-2.42969m0 .15625v6.98047m0-5.96484v-.69531m0 5.05078v-3.76172m0 3.21484v1.22266m0-1.97266v-1.16797m0 1.16797v2.32813m0-4.1875v2.55078m0-2.17969v.80078m0-3.20312v6.61328m0-6.61328v-.34766"/><g clip-path="url(#T)"><path fill="none" stroke="#000" stroke-linecap="round" stroke-linejoin="round" stroke-miterlimit="10" stroke-width=".5" d="M0 370.30078v7.01563"/></g><g clip-path="url(#U)"><path fill="none" stroke="#000" stroke-linecap="round" stroke-linejoin="round" stroke-miterlimit="10" stroke-width=".5" d="M0 371.32031v-.63281"/></g><path fill="none" stroke="#000" stroke-linecap="round" stroke-linejoin="round" stroke-miterlimit="10" stroke-width=".5" d="M0 373.24219v1.1289m0-2.97265v4.8164m0-4.11328v.39453m0-1.92187v6.46875m0-6.46875v-.21485m0 1.15625v-.10937m0-1.08984v6.98046m0-6.98046v-1.39063m0 1.70313v6.35937m0-6.35937v-.1211m0 5.125v-3.64844m0 3.64844v2.44922m0-1.16406v-6.21875m0 6.21875v2.02734m0-2.9336v1.01563m0-3.02343v-.39063m0 .39063v2.22656m0-3.91406v2.98046m0-2.98046v1.47265M0 372.75v.73828m0-2.02344v4.6875m0-4.6875v.84766m0-1.28125v5.55469m0-5.55469v.41406M0 370.5v6.61719M0 370.5v-.35938m0 .20313v6.92578m0-6.92578v-.76563m0 .73829v6.98437m0-6.98437v-.91016m0 1.92578v-.45703m0-.36328v6.59375m0-5.63672v-.16406m0 1.22656v2.55469m0-2.1836v-1.21875m0-.60937v5.46875m0-5.92578V377m0-5.45703v-.97266m0 2.39844v1.67969m0-1.4375v-1.1875m0 5.29297v-7.01563m0 5.9961v.6289m0-1.5625V372.25m0 3.11328v2.45313m0-2.5547v-2.90624m0 2.48047v1.22656m0-3.86328v3.21875m0-2.75v.69922m0-2.57422v6.03125"/><g clip-path="url(#V)"><path fill="none" stroke="#000" stroke-linecap="round" stroke-linejoin="round" stroke-miterlimit="10" stroke-width=".5" d="M0 370.79297v.125"/></g><path fill="none" stroke="#000" stroke-linecap="round" stroke-linejoin="round" stroke-miterlimit="10" stroke-width=".5" d="M0 371.67188v.0625"/><g clip-path="url(#W)"><path fill="none" stroke="#000" stroke-linecap="round" stroke-linejoin="round" stroke-miterlimit="10" stroke-width=".5" d="M0 359.08594v2.8164"/></g><path fill="none" stroke="#000" stroke-linecap="round" stroke-linejoin="round" stroke-miterlimit="10" stroke-width=".5" d="M0 360.69531v-.40234m0 .34375v-1.05078m0 .25781v1.30078m0-2.92969v4.5586m0-3.89453v.44921m0-.84765v4.02734m0-3.4414v.55468m0-2.09375v5.9336m0-5.07031v.09375m0 3.59765v-3.17969m0 3.1797v2.45312m0-.90625v-6.27344m0 6.27344v2.0039m0-4.39844v-1.48046m0 1.26562v1.17969m0 .96094v-5.33594m0 .5586v4.22265m0-3.60938v-1.21093m0-.75v6.91796m0-6.91796v-1.51563m0 2.51953v-1.51172m0 .46094V364m0-7.01172v-1.01172m0 2.03125V357m0 .15234v6.6797m0-6.6797v-.42187m0 1.39453v-.42188m0-.6875v6.95704m0-6.95704v-.83593m0 1.84765v-.41796m0-.60157v6.97266m0-6.97266v-.8789m0 1.89062v-.4375m0-.30469v6.4336m0-6.4336v-.1875m0 1.1211v-.1836m0 .22266v4.48828m0-5.21875v5.94922m0-5.08594v.08985m0 1.89453v.25m0-.21485v1.0625m0 1.54297v-5.03125m0 4.30078v1.16797m0-.67969v-4.54687m0 4.54688v2.39843M0 362.75v-4.51563m0 3.85938v1.19922m0-2.23438v-1.1289m0 .96484v1.16016m0-4.04688v4.96875"/><g clip-path="url(#X)"><path fill="none" stroke="#000" stroke-linecap="round" stroke-linejoin="round" stroke-miterlimit="10" stroke-width=".5" d="M0 358.00781v.71875"/></g><g clip-path="url(#Y)"><path fill="none" stroke="#000" stroke-linecap="round" stroke-linejoin="round" stroke-miterlimit="10" stroke-width=".5" d="M0 345.23047v3.89453"/></g><path fill="none" stroke="#000" stroke-linecap="round" stroke-linejoin="round" stroke-miterlimit="10" stroke-width=".5" d="M0 346.71484v.92579m0-.92579v-2.30078m0 4.9961v-4.46485m0 3.8164v-.47265m0-.70703v-.8086m0 .69141v-1.01171m0-2.34766V350.25m0-6.03125v5.91797m0-5.05469v.09766m0-.03125v4.0586m0-3.46876v.55078m0 1.5586v-1.33594m0 1.14062v1.17188m0 .76562v-4.82421m0 4.125v1.17968m0-2.01953v-1.7461m0-.84374v3.4336m0-4.9961v6.5625m0-6.5625v-1.85156m0 2.80468v-.92578m0-.10156v6.70703m0-6.70703v-1.7461m0 2.72266v-.875m0-.25v7.00781m0-7.0078v-.9922m0 2.01172v-.4961m0-.4375v6.83204m0-6.83203v-.60938m0 1.60547v-.61328m0-.41797v6.90235m0-6.90235v-1.53515m0 2.53906v-.76563m0-.29296v7.01171m0-7.01171V342.375m0 2.3164v-1.29687m0 .3164v6.9336m0-6.9336v-.78515m0 1.79297v-.78516m0 .91797v4.65235m0-5.69532v6.7422m0-6.8125v6.8789m0-6.8789v-.6797m0 7.62891v-7.01953m0 6v.6211m0 .3125v-6.84376m0 5.63281v-4.42578m0 3.78125v1.20704m0-3.48438v1.41797"/><g clip-path="url(#Z)"><path fill="none" stroke="#000" stroke-linecap="round" stroke-linejoin="round" stroke-miterlimit="10" stroke-width=".5" d="M0 346.46875v1.89063"/></g><g clip-path="url(#aa)"><path fill="none" stroke="#000" stroke-linecap="round" stroke-linejoin="round" stroke-miterlimit="10" stroke-width=".5" d="M0 333.03125v1.66406"/></g><path fill="none" stroke="#000" stroke-linecap="round" stroke-linejoin="round" stroke-miterlimit="10" stroke-width=".5" d="M0 333.73047v.26562m0-.26562v-2.21094m0 2.46485v-.2422m0 .2422v-2.125m0 2.95312v-1.89844m0 1.89844v-1.77344m0-.1211v1.88673m0-1.88672v-2.39453m0 1.73437v3.21094m0-2.7461v-1.22656m0-.61328v5.96094m0-3.79688v1.63282m0-1.39453v.91796m0-2.8789v5.07812m0-4.33984v.33203m0 1.46875V332.83984 334.88672 333.86328m0-2.83594v5.67188m0-4.84766V330.75m0-.14453v6.51562m0-6.51562v-1.8789m0 1.625v7.02343m0-7.02344v-1.21094m0 1.42579v6.59375m0-6.59375v-1.83204m0 1.63282v6.99219m0-6.9922v-1.35937m0 2.375v-.67969m0-.27734v6.8711m0-6.8711v-1.57812m0 2.16796v5.69141m0-5.6914v-2.20313m0 1.98047v6.14062m0-6.14062v-2.0586m0 2.95313v-1.03125m0 .35547v5.70312m0-4.87109v.16406m0 1.85547V332.83984 334.88672 333.86328m0-2.41406v4.82812m0-4.125v-1.18359m0-.61328v7.01172m0-.32422v-6.36328m0 5.4375v.0625m0 .66406v-5.96094m0 5.09375v1.0625m0-3.71875v1.08594m0-.92578v.98047"/><g clip-path="url(#ab)"><path fill="none" stroke="#000" stroke-linecap="round" stroke-linejoin="round" stroke-miterlimit="10" stroke-width=".5" d="M0 317.94922v5.19531"/></g><path fill="none" stroke="#000" stroke-linecap="round" stroke-linejoin="round" stroke-miterlimit="10" stroke-width=".5" d="M0 320.28516v.52734m0-.52734v-2.25m0 2.64453v-.26563m0 .26563v-2.1211m0 3.13282v-2.28516m0 1.95313v-.83985m0 .04297v-.03125m0 .02734v-1.08203m0 .10547v1.92969m0-1.92969v-2.39844m0 2.28125v2.16407m0-2.16407v-2.41406m0 1.4961v4.0039m0-4.0039v-2.4375m0 1.04296v6.78907m0-5.80079v-.83593m0 1.6836v3.12108m0-4.5039v5.88672m0-5.03125v.10937m0-1.46094v6.87891m0-5.8789v-.78516m0 .48437v5.47657m0-4.6797v-1.125m0 .42579v5.28125m0-5.28125v-2.29297m0 2.38281v5.10157m0-5.10157v-2.32421m0 2.42187v4.91016m0-4.91016v-2.35547m0 3.07031v-1.17968m0 1.15234v3.53516m0-3.53516v-2.45313m0 2.3047v3.82812m0-3.82813v-2.44531m0 1.3164v6.08985m0-6.08984v-2.07813m0 1.74219v6.76172m0-5.78125v-.84766m0 1.32031v3.85547m0-3.29687v-1.22266m0-.23047v5.64063m0-4.82031v-1.10547m0 5.37109v-4.52734m0 3.86718v-.45703m0 2.23828v-6.76953m0 5.78516v.26172m0-.54688v-4.23047m0 3.61329v1.21093"/><path fill="#00f" fill-rule="evenodd" d="M219.625 467.64844h8.61719V457.5039H219.625v10.14453"/><path fill="azure" fill-rule="evenodd" d="M221.45703 459.33594h.83203v2.82422h3.28906v-2.82422h.83204v6.48047h-.83203v-2.91797h-3.28907v2.91797h-.83203v-6.48047"/><path fill="#00f" fill-rule="evenodd" d="M383.84375 436.57813h8.61719v-10.14454h-8.61719v10.14454"/><path fill="azure" fill-rule="evenodd" d="M385.67578 428.26563h.83203v2.82421h3.28906v-2.82421h.83204v6.48046h-.83204v-2.91406h-3.28906v2.91406h-.83203v-6.48046"/><path fill="#ff3030" fill-rule="evenodd" d="M184.8125 414.38672h7.6914v-10.14453h-7.6914v10.14453"/><path fill="azure" fill-rule="evenodd" d="M186.64453 406.07422h.83203v5.74219h3.19531v.73828h-4.02734v-6.48047"/><path fill="#00f" fill-rule="evenodd" d="M219.625 414.38672h8.61719v-10.14453H219.625v10.14453"/><path fill="azure" fill-rule="evenodd" d="M221.45703 406.07422h.83203v2.82422h3.28906v-2.82422h.83204v6.48047h-.83203v-2.91406h-3.28907v2.91406h-.83203v-6.48047"/><path fill="#ff3030" fill-rule="evenodd" d="M326.83984 378.88281h7.69141v-10.14844h-7.6914v10.14844"/><path fill="azure" fill-rule="evenodd" d="M328.67188 370.5664h.83203v5.7422h3.1953v.73827h-4.02733v-6.48046"/><path fill="#ff3030" fill-rule="evenodd" d="M202.5664 370.0039h7.69141v-10.14452h-7.6914v10.14453"/><path fill="azure" fill-rule="evenodd" d="M204.39844 361.6914h.83203v5.73829h3.19531v.74219h-4.02734v-6.48047"/><path fill="#ff3030" fill-rule="evenodd" d="M446.67578 365.5664h7.6914v-10.14452h-7.6914v10.14453"/><path fill="azure" fill-rule="evenodd" d="M448.50781 357.2539h.83203v5.73829h3.19532v.74219h-4.02735v-6.48047"/><path fill="#ffffe0" fill-rule="evenodd" d="M289.3125 361.35938h22.17969v-10.19141H289.3125v10.1914"/><path fill-rule="evenodd" d="M292.8125 353h.50781v6.29297h-.78515v-4.48828h-1.39063V354.25l.5625-.0664.25-.05079.23047-.08984.20313-.14453.17578-.20703.14062-.29688.10547-.39453m4.8125 0l.23047.01953.21875.05469.20703.08984.19531.1211.1875.14843.16797.17579.30469.42187.24219.49219.17968.54687.11329.57813.03515.58984-.03515.59375-.11329.58594-.17968.55469-.2422.5-.30468.42968-.16797.1797-.1875.15233-.19531.125-.20703.08985-.21875.0586-.23047.01952-.23047-.01953-.21875-.0586-.20703-.08983-.19531-.125-.1836-.15235-.17187-.17969-.30078-.42968-.2461-.5-.17968-.5547-.10938-.58593-.03906-.59375h.83203l.03125.5664.08203.50391.125.44141.16016.375.1914.30078.21094.22266.22266.13672.22656.04687.22656-.04687.22266-.13672.21094-.22266.1914-.30078.16016-.375.1289-.4414.08204-.50391.02734-.5664-.02734-.5586-.08204-.5-.1289-.4375-.16016-.36328-.1914-.29297-.21094-.21485-.22266-.1328-.22656-.04298-.22656.04297-.22266.13281-.21094.21485-.1914.29297-.16016.36328-.125.4375-.08203.5-.03125.5586h-.83203l.03906-.58985.10938-.57813.17968-.54687.2461-.49219.30078-.42188.17187-.17578.1836-.14843.19531-.1211.20703-.08984.21875-.05469L297.625 353m4.95313 0l.23046.01953.21875.05469.20704.08984.1953.1211.1836.14843.17188.17579.30468.42187.2422.49219.17968.54687.10937.57813.03907.58984-.03907.59375-.10937.58594-.17969.55469-.24219.5-.30468.42968-.17188.1797-.1836.15233-.1953.125-.20704.08985-.21875.0586-.23046.01952-.23047-.01953-.21875-.0586-.20704-.08983-.1953-.125-.1836-.15235-.17188-.17969-.30468-.42968-.2422-.5-.17968-.5547-.10937-.58593-.03907-.59375h.83204l.03125.5664.07812.50391.1289.44141.16016.375.1914.30078.21095.22266.22265.13672.22656.04687.22657-.04687.22265-.13672.21094-.22266.1914-.30078.16016-.375.12891-.4414.08203-.50391.02735-.5664-.02735-.5586-.08203-.5-.1289-.4375-.16016-.36328-.1914-.29297-.21095-.21485-.22265-.1328-.22656-.04298-.22657.04297-.22265.13281-.21094.21485-.1914.29297-.16016.36328-.12891.4375-.07813.5-.03125.5586h-.83203l.03907-.58985.10937-.57813.17969-.54687.24219-.49219.30468-.42188.17188-.17578.1836-.14843.1953-.1211.20704-.08984.21875-.05469.23046-.01953m4.95313 0l.38672.02734.35937.08204.32032.13671.28125.1875.23046.23829.17188.28515.10938.33203.03906.3789-.02344.27345-.05469.23437-.08984.19922-.10938.17188-.1289.14453-.14063.12109-.28906.19531.23438.1211.20703.14453.18359.17187.15234.19531.1211.21094.09375.23047.05469.2461.01953.2539-.03516.3086-.10156.32812-.17188.32422-.24219.30469-.30468.26953-.375.21484-.21094.08203-.23047.0625-.24219.03516-.26171.01562-.25782-.01562-.24219-.03516-.22656-.0625-.20312-.08203-.35938-.21484-.28906-.26953-.22266-.3047-.16015-.32421-.08985-.32813-.03125-.30859h.83204l.02734.2539.07812.23438.1211.21094.16015.1875.19532.15234.21875.11329.24218.07421.25391.02344.2539-.02344.2422-.07421.21874-.11329.19141-.15234.16406-.1875.1211-.21094.07812-.23437.02735-.2539-.02735-.25392-.07812-.23437-.1211-.21094-.16406-.1875-.1914-.15234-.21876-.11328-.24218-.07031-.25391-.02735-.2539.02735-.2422.0703-.21874.11329-.19532.15234-.16015.1875-.1211.21094-.07812.23438-.02735.2539h-.83203l.01954-.2539.05468-.23829.08985-.22656.125-.20703.15234-.1914.1836-.17188.20702-.15235.23047-.1328-.28515-.19532-.14063-.1211-.1289-.14452-.10938-.17188-.08984-.19922-.0586-.23437-.01953-.27344h.78906l.01954.21094.0664.1914.10547.16797.13672.14063.16406.10937.1875.08203.20703.05078.22266.01563.21875-.01563.20703-.05078.1914-.08203.16407-.10937.13672-.14063.10547-.16797.0625-.1914.02344-.21094-.02344-.21485-.0625-.1914-.10547-.16797-.13672-.14063-.16406-.10937-.1914-.08203-.20704-.05078-.21875-.01563-.22266.01563-.20703.05078-.1875.08203-.16406.10938-.13672.14062-.10547.16797-.0664.1914-.01954.21485h-.78906l.03906-.3789.10938-.33204.17188-.28515.23046-.23829.27735-.1875.32422-.13671.35937-.08204.38672-.02734"/><path fill="#ffffe0" fill-rule="evenodd" d="M390.60938 415.50781h22.17968v-10.1914h-22.17969v10.1914"/><path fill-rule="evenodd" d="M394.10938 407.14844h.5078v6.29297h-.78515v-4.48829h-1.39062v-.55468l.55859-.0664.2539-.0547.23048-.08984.20312-.14063.17188-.21093.14453-.29297.10546-.39453m4.8125 0l.23047.01953.21875.05469.20704.08984.1953.1211.1836.14843.17188.17578.30468.41797.2422.4961.17968.54687.10937.57813.03907.58984-.03907.59375-.10937.58594-.17969.55078-.24219.5039-.30468.4297-.17188.17968-.1836.15234-.1953.1211-.20704.09375-.21875.05859-.23046.01953-.23047-.01953-.21875-.0586-.20704-.09374-.1953-.1211-.1836-.15234-.17188-.17969-.30468-.42969-.2422-.5039-.17968-.55078-.10937-.58594-.03907-.59375h.83204l.03125.5625.07812.50781.1289.4414.16016.375.1914.30079.21095.22265.22265.13672.22656.04688.22657-.04688.22265-.13671.21094-.22266.1914-.30078.16016-.375.12891-.4414.08203-.50782.02735-.5625-.02735-.5586-.08203-.5039-.1289-.4336-.16016-.36718-.1914-.28906-.21095-.21485-.22265-.13281-.22656-.04297-.22657.04297-.22265.13281-.21094.21485-.1914.28906-.16016.36719-.12891.43359-.07813.5039-.03125.5586h-.83203l.03907-.58985.10937-.57812.17969-.54688.24219-.49609.30468-.41797.17188-.17578.1836-.14844.1953-.12109.20704-.08984.21875-.0547.23046-.01952m4.95313 0l.23047.01953.21875.05469.20703.08984.19531.1211.1836.14843.17187.17578.30078.41797.2461.4961.17968.54687.10938.57813.03906.58984-.03906.59375-.10938.58594-.17968.55078-.2461.5039-.30078.4297-.17187.17968-.1836.15234-.19531.1211-.20703.09375-.21875.05859-.23047.01953-.23047-.01953-.21875-.0586-.20703-.09374-.19531-.1211-.1875-.15234-.16797-.17969-.30469-.42969-.24219-.5039-.17968-.55078-.11329-.58594-.03515-.59375h.83203l.02734.5625.08204.50781.1289.4414.16016.375.1914.30079.21094.22265.22266.13672.22656.04688.22656-.04688.22266-.13671.21094-.22266.1914-.30078.16016-.375.125-.4414.08203-.50782.03125-.5625-.03125-.5586-.08203-.5039-.125-.4336-.16016-.36718-.1914-.28906-.21094-.21485-.22266-.13281-.22656-.04297-.22656.04297-.22266.13281-.21094.21485-.1914.28906-.16016.36719-.1289.43359-.08204.5039-.02734.5586h-.83203l.03515-.58985.11329-.57812.17968-.54688.2422-.49609.30468-.41797.16797-.17578.1875-.14844.19531-.12109.20703-.08984.21875-.0547.23047-.01952m4.95313 0l.38671.02734.35938.08203.32031.13672.28125.1875.23047.23828.17188.28516.10937.33203.03906.375-.02344.27734-.05468.23438-.08985.19922-.11328.17187-.1289.14063-.13672.125-.28906.19531.23437.11719.20703.14844.17969.17187.15625.1914.1211.21485.09374.23047.05469.24219.01953.2578-.03515.3086-.10547.32813-.17188.32422-.23828.30468-.30469.26954-.375.21484-.21094.08203-.23046.0586-.2422.03906-.26171.01562-.26172-.01562-.23828-.03907-.22656-.05859-.20313-.08203-.35937-.21485-.28906-.26953-.22266-.30468-.16016-.32422-.08984-.32813-.03125-.3086h.83203l.02734.25392.07813.23437.1211.21094.16015.1875.19531.14844.21875.11718.23828.07031.25781.02735.25391-.02735.24219-.0703.21875-.1172.1914-.14843.16016-.1875.125-.21094.07813-.23438.02734-.2539-.02734-.2539-.07813-.23438-.125-.21094-.16015-.1875-.19141-.15234-.21875-.11329-.24219-.07421-.2539-.02344-.25782.02344-.23828.07421-.21875.11329-.19531.15234-.16016.1875-.1211.21094-.07812.23437-.02734.2539h-.83203l.01953-.2539.05469-.23828.08984-.22656.125-.20703.15235-.1914.18359-.17188.20703-.15235.23047-.13281-.28516-.19531-.14062-.125-.1289-.14063-.11329-.17187-.08594-.19922-.0586-.23438-.01952-.27734h.78515l.02344.21484.0664.19141.10548.16797.13671.14062.16407.10938.1875.08203.20703.05078.22265.01563.21875-.01563.20704-.05078.1875-.08203.16796-.10938.13672-.14062.10157-.16797.0664-.1914.02344-.21485-.02344-.21484-.0664-.1875-.10157-.16797-.13671-.14063-.16797-.10937-.1875-.08203-.20704-.05079-.21875-.01562-.22265.01563-.20703.05078-.1875.08203-.16406.10937-.13672.14063-.10547.16797-.0664.1875-.02345.21484h-.78515l.03906-.375.10938-.33203.17187-.28516.23047-.23828.27734-.1875.32422-.13672.35938-.08203.38671-.02734"/><path fill="#ffffe0" fill-rule="evenodd" d="M150.9375 466.71875h22.17969v-10.19531H150.9375v10.19531"/><path fill-rule="evenodd" d="M154.4375 458.35938h.50781v6.29296h-.78515v-4.48828h-1.39063v-.55469l.5625-.0664.25-.05469.23047-.08984.20313-.14063.17578-.21094.14062-.29296.10547-.39454m4.8125 0l.23047.01563.21875.0586.20703.08984.19531.1211.1875.14843.16797.17578.30469.41797.24219.4961.17968.54296.11328.58203.03516.58985-.03516.59375-.11328.58203-.17968.55469-.2422.5039-.30468.42578-.16797.17969-.1875.15625-.19531.1211-.20703.09374-.21875.0547-.23047.01952-.23047-.01953-.21875-.05469-.20703-.09375-.19531-.12109-.1836-.15625-.17187-.17969-.30078-.42578-.2461-.5039-.17968-.5547-.10938-.58202-.03906-.59375H158l.03125.5625.08203.5078.125.44142.16016.375.1914.30078.21094.22265.22266.13672.22656.04688.22656-.04688.22266-.13672.21094-.22265.1914-.30079.16016-.375.1289-.4414.08204-.50781.02734-.5625-.02734-.5625-.08203-.5-.12891-.4336-.16016-.36719-.1914-.29296-.21094-.21094-.22266-.13281-.22656-.04688-.22656.04688-.22266.1328-.21094.21095-.1914.29296-.16016.3672-.125.43359-.08203.5-.03125.5625h-.83203l.03906-.58985.10938-.58203.17968-.54297.2461-.4961.30078-.41796.17187-.17578.1836-.14844.19531-.1211.20703-.08984.21875-.05859.23047-.01563m5.09375 0h.50781v6.29297h-.78906v-4.48828h-1.38672v-.55469l.5586-.0664.2539-.05469.23047-.08984.20313-.14063.17187-.21094.14453-.29296.10547-.39454m2.82031 2.17579h.78906l.01954-.31641.05859-.28906.09766-.25.14062-.21875.1836-.17188.22265-.1289.26563-.08204.30859-.02734.23438.02344.22656.0625.20312.10156.17969.13672.14844.17578.11328.20313.07031.23828.02734.26172-.02343.26953-.0664.22656-.10938.1914-.15625.17188-.19922.16016-.2461.16797-.63672.38671-.53515.3125-.4375.32032-.34766.32422-.26172.33593-.1914.34766-.125.3711-.07031.39452-.01954.41797h4.21094v-.74218h-3.33203l.08203-.28125.11328-.23829.14844-.19921.1875-.1836.23047-.16797.28125-.17578.71484-.41797.41797-.20703.34375-.23047.28125-.25.21875-.26562.16406-.28125.10938-.28125.0664-.28516.01954-.28125-.04297-.38281-.1211-.34766-.1875-.30859-.25-.26563-.30078-.21093-.34765-.16016-.37891-.09765-.40625-.03125-.4375.03125-.39844.09765-.35547.16797-.30468.23438-.2461.30468-.1875.375-.11328.44531-.04297.51954"/></g></defs><use xlink:href="#ac"/></svg>