<svg xmlns="http://www.w3.org/2000/svg" role="img" xmlns:xlink="http://www.w3.org/1999/xlink" viewBox="142.45 309.95 326.84 171.84"><defs><clipPath id="a"><path d="M144 311.67188h1v168.65625h-1zm0 0"/></clipPath><clipPath id="b"><path d="M144 311.67188h324v168.65625H144zm0 0"/></clipPath><clipPath id="c"><path d="M383 311.67188h1V312h-1zm0 0"/></clipPath><clipPath id="d"><path d="M467 311.67188h1v168.65625h-1zm0 0"/></clipPath><clipPath id="e"><path d="M144 477h3v3.32813h-3zm0 0"/></clipPath><clipPath id="f"><path d="M155 477h5v3.32813h-5zm0 0"/></clipPath><clipPath id="g"><path d="M168 477h5v3.32813h-5zm0 0"/></clipPath><clipPath id="h"><path d="M181 477h6v3.32813h-6zm0 0"/></clipPath><clipPath id="i"><path d="M195 477h5v3.32813h-5zm0 0"/></clipPath><clipPath id="j"><path d="M208 476h5v4.32813h-5zm0 0"/></clipPath><clipPath id="k"><path d="M221 477h6v3.32813h-6zm0 0"/></clipPath><clipPath id="l"><path d="M234 477h7v3.32813h-7zm0 0"/></clipPath><clipPath id="m"><path d="M247 477h7v3.32813h-7zm0 0"/></clipPath><clipPath id="n"><path d="M260 478h8v2.32813h-8zm0 0"/></clipPath><clipPath id="o"><path d="M274 477h7v3.32813h-7zm0 0"/></clipPath><clipPath id="p"><path d="M287 478h7v2.32813h-7zm0 0"/></clipPath><clipPath id="q"><path d="M300 478h8v2.32813h-8zm0 0"/></clipPath><clipPath id="r"><path d="M305 480h2v.32813h-2zm0 0"/></clipPath><clipPath id="s"><path d="M313 478h8v2.32813h-8zm0 0"/></clipPath><clipPath id="t"><path d="M319 480h1v.32813h-1zm0 0"/></clipPath><clipPath id="u"><path d="M327 478h7v2.32813h-7zm0 0"/></clipPath><clipPath id="v"><path d="M340 478h8v2.32813h-8zm0 0"/></clipPath><clipPath id="w"><path d="M355 476h4v4.32813h-4zm0 0"/></clipPath><clipPath id="x"><path d="M369 476h3v4.32813h-3zm0 0"/></clipPath><clipPath id="y"><path d="M381 476h5v4.32813h-5zm0 0"/></clipPath><clipPath id="z"><path d="M394 477h6v3.32813h-6zm0 0"/></clipPath><clipPath id="A"><path d="M406 478h8v2.32813h-8zm0 0"/></clipPath><clipPath id="B"><path d="M419 479h9v1.32813h-9zm0 0"/></clipPath><clipPath id="C"><path d="M433 479h8v1.32813h-8zm0 0"/></clipPath><clipPath id="D"><path d="M431 478h3v2.32813h-3zm0 0"/></clipPath><clipPath id="E"><path d="M446 479h8v1.32813h-8zm0 0"/></clipPath><clipPath id="F"><path d="M446 479h3v1.32813h-3zm0 0"/></clipPath><clipPath id="G"><path d="M459 479h9v1.32813h-9zm0 0"/></clipPath><clipPath id="H"><path d="M460 479h2v1.32813h-2zm0 0"/></clipPath><clipPath id="I"><path d="M144 463h2v8h-2zm0 0"/></clipPath><clipPath id="J"><path d="M144 469h2v4h-2zm0 0"/></clipPath><clipPath id="K"><path d="M144 449h1v9h-1zm0 0"/></clipPath><clipPath id="L"><path d="M144 455h1v3h-1zm0 0"/></clipPath><clipPath id="M"><path d="M144 440h4v1h-4zm0 0"/></clipPath><clipPath id="N"><path d="M144 423h2v8h-2zm0 0"/></clipPath><clipPath id="O"><path d="M144 412h4v4h-4zm0 0"/></clipPath><clipPath id="P"><path d="M144 400h4v1h-4zm0 0"/></clipPath><clipPath id="Q"><path d="M144 384h4v6h-4zm0 0"/></clipPath><clipPath id="R"><path d="M144 372h4v4h-4zm0 0"/></clipPath><clipPath id="S"><path d="M144 358h4v5h-4zm0 0"/></clipPath><clipPath id="T"><path d="M144 344h3v7h-3zm0 0"/></clipPath><clipPath id="U"><path d="M144 330h2v8h-2zm0 0"/></clipPath><clipPath id="V"><path d="M144 316h1v9h-1zm0 0"/></clipPath><clipPath id="W"><path d="M144 315h2v3h-2zm0 0"/></clipPath><clipPath id="X"><path d="M144 317h1v2h-1zm0 0"/></clipPath><g id="Y" clip-path="url(#clip1)"><path fill="#fff" fill-opacity="0" fill-rule="evenodd" d="M0 0h1000v1000H0zm0 0"/><path fill="#d3d3d3" fill-opacity="0" fill-rule="evenodd" d="M162.15234 355.86719l-.23437.29297.0586.23437.11718.17188.17578.23437.29297.34766.11328.0586.11719-.17188.0586-.23438.17577-.17578.46485-.17578h.69922l.23437.29297.28906.8164.0586.17579.17578.23046.35156.23438.69922.69922.17188.17578.23437.34765.23438.41016.28906.58203.41015.46485.23047.23437.23438.17578.11719.23047.17578.29297.17187 1.16406v.23438l.0586.28906.05859.11719.11719.11719.34765.41015.11719.17188.17578.17578.17578.23437.11719.17188.17188.35156.05859.23438.23437.40625.23438-.0586-.17578.17578-.0586.92969h-.58203l-.23437-.11328-.34766.11328-.11719.11719-.05859.29297-.0586.17578-.11718.17187-.46484.29297-.0586.23438-.0586.11328v.64453l.0586.17187v.41016l.0586.0586v.40624l.05859.40625.11719.17579.05859.05859.23047.64062-.0586.29297v.69922l-.05859.58203v.23438l-.0586.23047-.05468.35156v1.92187l.05469.1172h.42578l-.36719.11718-.02344.35156.89063 1.16797 1.74219.53906 1.33984.35938v.53906l.08984.8086.53516.71484 1.51953.26953.89063-.08594.08984 1.16406.53516.1797 1.16015-.1797 2.05469-.98437 1.16016-.36328 1.8789-.17578 1.69531-.1797-.17968.71876-1.51563.08594-1.25.08984-.80469.26953-1.07421.8086.26953.71875.53515.89843-.17968.625-.26563.8086.26563 1.07812.625.89844.80468.17969 1.25-.1797-.26562.72267.09766.5039.05468.29297v.17188l.0586.29296v.40625l.17578.1172.35156.11718h.40625l.29297-.17578.11328-.11719.0586-.11719.11718-.23047.0586-.17578.35156-.46484.23047-.17578.17578-.0586.17578.0586.0586.17578.11718.98828.05469.46875.0586.17188.11718.23437.17578.0586.8164.05859h.28907l.11719.23437.05859.40625.0586.35156v1.10547l.11718.29297.11719.34766.28906.69922.17578.35156.58203.7539.35157.17579.17187.0586.46875.23437.64063.46484.34765.23438.29297.17578.29297.05468.23047.0625.8164.34766.29297.17578.11328.17188.35157.35156.11719.17578.52343.64063v.28906l.0586.35156v.34766l.05859.35156.0586.28906.11718.0586.17188.05859h.17578l.58203.23437.17578.1172.17578.28905.17578.23438.11328.23437.29297.23047.11719.11719v.41016l.0586.05468.28906.23438.23437.11719.0586.11718.11718.17188.0586.11719.23047.23437.05859.17578.23437.0586.1172.05859-.1172.11328-.05859.11719v.11719l-.11719.29296-.11719.28907v.58203l.17579.11719.11718.05859.0586.11719.11719.11719.11328.05859.17578.34765.0586.35157.05858.40625v.17578l-.05859.17578-.11719.69922v.17187l.1172.17579.29296.29296h.40625l.17578.1172.11719.17187.11719.29296v.23438h-.52735l-.23047-.23438h-.23437l-.17578.0586-.0586.69922.0586.34765.11719.17579.17578.41015.11718.23047.28907.46875.17578.05469h.52344l.23437.0586.75781.64062.0586.29296v.23438l.05859.0586.23047.34765v.35156l-.11719.17188v.29297l.29297.28906.29297.17578.17187.0586.29297.17577.29297.1172.58203.40624.28906.23438.29297.17578.21875.16015.01563.01172.23047.17579.64062.52343.17578.23438.1172.17578.17577.17578.11328.17188v.64062l.1172.17578.46874.11719.58203.11719.23438.05859.23047.11328.29297.11719.11328.0586.58593.35156.28907.17187.17578.0625.17578.05469.17578.0586.69922.35155.28906.17579.23438.05468.28906.17578.23437.1172.64063.40624.29297.11719.17187.0586.23438.05859.41015.05859.23047.0586.23438.11718.0586.17188-.41017.17578.46875.0586.0586.29296.11328.23438.17578.05468.23438.0586.17578.05859.40625.11719.64062.23437.11719.17188.0586.23437v.17578l-.0586.1172-.0586.40624.23438.23438.11719.05859.34766.11719.64062.23047.17578.11718.28906.1172.17578.17577.23438.46485.58203 1.10546.17578.17579.34766.17578.17578.11719.35156.11718 1.04688.52344.23437.0586.46485.11327.29297.0586.46484.17578.75781.58203.23438.23438.34765.46484.17578.17578.28907.23438.8164.69921.29297.17579.28906.28906.29297.17578.29297.28906.69531.64063.17578.17578.29297.23437.28907.23438.46875.28906.64062.58203.34766.23438.23437.29297.34766.34765.35156.46485.9336.99218.34765.40625.11719.17579.23437.05859.11328.11719.64454.17578.23047.11328.23437.0586.29297.17577.23047.1172.9336.69921.40624.40625.23438.17578.40625.17578.23437.11719.8164.34766.34766.23437.23438.11719.29297.28906.23047.11719.7578.35156.35157.17188.23047.05859.29297.11719.23437.0586.8711.17577h.8164l.46875.23047.17188.0586.875.69921.46484.1172.29297.05858.17578.0586.23047.0586.46875.05859.34766.05859.35156.0586.40625.05859h.29297l.17187.0586v.23046l.17578.17578h.29297l.34766.0586.35156.05859.69922.11719h.64063l.46484-.23438.29297-.17578.17187-.11719.41016-.17187.28906-.17578.9336-.46485.46875-.29297.52343-.29296.46485-.17188.46484-.17578 1.05078-.46485.28906-.11718.41016-.11719.28906-.11719.52735-.17578 1.51562-.69922.58203-.34765.28907-.0586.29297-.0586.34765-.11718.875-.23047.35156-.11719h.11329l.23437-.05859.875-.23437.23438-.0586h.8125l.35156-.0586.8164-.11718.17188-.0586.35156-.05468.29297-.0586.23047-.05859.8164-.17578.17579-.0586h.34765l.23438-.05859.46484-.11718.75781-.17188.23438-.0586h.34765l.41016-.11718.28906-.0586 1.28516-.05859h.28906l.41016-.0586.23047-.05858h.17578l.875-.1172h.40625l.41015-.11718h.34766l.35156-.11328.8711-.0586h1.75l1.04687.28907.41016.11719.28906.11718.35156.11719.28907.11719 1.05078.17187.28906.0586h.29297l.29297.05859.17187.0586.41016.05859.17187.0586.1172.05858h.11718l.11719.0586.35156.0586h.11328l.41016.0664 1.92187.39453 1.92578.39453 1.51953.44922 1.69532.71875 2.14453.80469 1.60547-.71875 1.42968-.80469 1.16016-1.07813 1.25-.44921 3.03516-.71875 1.875-.35938 2.14453-1.34765 2.23437-1.25391 2.5-1.25781 1.69531-.44922 1.78516-.17969 1.16016-.26953.625.53906 1.33984-.26953.71485-.98828.98437-1.34375.44531-.17969.80469-.35937 1.875-.53907 1.78516-.44921 1.25-.26954 1.16015-.08984 1.69922-.08984 1.96094-.26954 1.25-.08984h.53906l.625-.08984h.89063l2.14453-.17969 2.41015-.17969 2.58985-.08984 1.69531.17969 1.60938.08984 1.42968.35938 1.16016.71875 1.875.98828 1.16015 1.52734.26563.71484.6289.08985.35548.89844.53515.53906.53516 1.52734 1.07422.35938h.53515l-.80469.53515.08985 1.70703.71484 2.69532.89063.80468.89453.98829.71484 1.2578 1.78516.53907 1.51953-.17969.35547 1.34375 1.60937-.80469.98047-.53906.26953.26953.31641-.21484.21875-.14453.80078.44922.44922-.35938h.35547l.53515-.26953.53907-.71875.53515-.26953.625-.98828 1.16016.44922.83984.3711 1.39454.61718 1.6953-.17969h1.60548l1.78515.08985.17969-1.70704.53516-1.34375.80468.26954.4922.84765.40233.40625-.08984.53906v.35938l.71485.44922.71093-.26953h1.42969l.35938.98828.4453 1.25781.71485 1.34375 1.25.6289 1.69531.62891.71485-.17969.17969-.53906.98046-.08984.44922.35937.08594 1.25782-.26563.6289-.53515.17969v.53906l.71484.98438.26563.53906.98437.98828.80078 1.07813-.26562.35937-.08985.89844-.625 2.33203-.35546 2.0664-.08985 1.79298-.17969.71875-.08984.53906v1.4375l-.98047 1.88281-.35937 1.70703-.53516.89844-.80469 1.16797-.26562.53906 2.05469 1.2539.08593.35938-.35546.53906-.08985-.17968v.80859l.08985 1.4375-.44532.71484-1.07422.09375-.26562.71485.53515.89844.8047.71875 1.16015.80859 1.33984.26953.44531.35938-.35546.44921-1.78907-.08984-1.25-.44922-.71484-.71875-.625-.08984-.17578 3.58984-.1875 1.3086h89.35937V311.70313h-55.26953v49.08203l.76172.125 3.28906.54296 2.02344 2.83594v2.7539l2.35156.33204 2.34766.33203h4.05078l-1.3789 4.16016-2.02344.70703-2.02344.70312-.54297.34375-2.59375 1.6172-.1875.11718-2.02344-2.07813-.73046-2.74218-2.67188-2.07813-1.375-3.5-.0664-.08203-1.95704-2.67188 2.75-1.41796v-49.08204H294.42187v91.41407l.1172.03125.1328.01172.07422.07421.10547.04688.08985.0586.08593.05859.08985.0586.29687.29687.0586.08984.03125.11719.02734.11719.01563.13671-.03125.1172-.0586.08983-.0586.08594-.04296.10547-.04688.10156-.02734.1211v.14453l.17578.26953.14844.14844.07422.08594.07422.07421.04296.10547.0625.08985.0586.08593.04297.10547.0586.08985.04687.10156.04296.10547.0586.08594.11719.17968.07421.07422.0625.08594.0586.08984.04297.10547.0586.08985.05858.08593.0625.08985.0586.08984.04297.10156.11719.17969.07421.07422.0586.08594.07422.07421.08984.0586.10547.04687h.14844l.1328-.01562.13282.01562.10156-.04687.07422-.07422.04688-.10156-.01563-.13281v-.14844l-.04687-.10547-.02735-.11719-.04687-.10156-.02735-.1211-.04296-.10156-.0625-.08984-.04297-.10156-.04297-.10547-.03125-.11719-.01563-.13281-.01171-.13672.08593-.0586.0586-.08593.12109-.03125.04297.10547.01562.1328v.1172l.0586.10156.0586.08984.08983.0586.14844.14843.0586.08985.04296.10547-.01171.10156.08593.0586.10547.04687.08594.0586.08984.05858.07422.07422-.11719.02735-.10546.04687-.08594.0586-.07422.07421-.0586.08985-.0625.08594-.02734.12109-.04687.10156-.04297.10547-.03125.11719-.01172.13281-.01563.13281v.14844l.02735.11719.04687.10547.04297.10156.0586.08984.07421.07422.08985.0586.07422.07421.08984.0586.0586.08984.04296.10547.04688.10156.11719.03125.1328.01563h.14845l.11718-.03125.10547.04297.04297.10547.04688.10156.02734.1211L299.5 410l.02734.11719.03125.1211.02735.11718.10547.04297.10156.04687.13281-.01562.14844.14844.0625.08593.07422.07422.07031.07422.08984.0625.10547.04297.10156.04297.1172.03125.13671.01562.11719-.03125.07422-.07422.02734-.11718-.01172-.13282-.03125-.12109-.02734-.11719.04297-.10547h.11719l.08984.0625.11719.02735h.14843l.13282.01562h.14843l.13282.01563.1328-.01563h.14845l.1328-.01562.13282-.01172.13672.01172.11719-.02735.13281-.01562.1914-.0586-.05859.17579-.01562.1328-.02735.1211-.01562.13281-.0586.08594-.1328.01563-.10548.04687-.10546.04297-.1172.03125-.11718.02735-.26563.03125h-.14843l-.13281.01562-.07422.07422.05859.08594.14844.14843.11719.1797.07421.0703.08985.0625.08984.0586.08594.0586.08984.05858.10156.04297.10547.0625.10547.04297.08594.0586.10547.04687.10156.04297.17969.11719.0586.08984-.04298.10156-.04687.10547.01562.13281.22266.22266.0586.08985.04296.10156.03125.1211.04297.10155.01563.13282.03125.11718.01171.13672.03125.11719.14844.14844.10156.04297.10547.04296.1172.03125.1328.01563.13672.01563h.11719l.11719-.03125.08984-.0586.04297-.10547.04688-.10156.04296-.10547.03125-.11719.01172-.1328v-.14845l-.01172-.1328-.01562-.13282-.03125-.11719-.04297-.10547-.04688-.10547-.04296-.10156-.04297-.10547-.01563-.13281.01563-.13281.02734-.11719.03125-.11719.02735-.1211.04687-.10155.08984-.0586.08594-.0625.07422-.07422.08984-.05859.22266-.22266.0586-.08593.07421-.07422.11719-.17969.0586-.08594v-.14844l-.07423-.07421-.10156-.04688-.10547-.04297-.10156-.04297-.0586-.08984-.04687-.10547-.02734-.11719.08984-.05859.11719-.03125.10156-.04297.17969-.11719.14844-.14843.01172-.13282-.01172-.10546-.08985-.0586-.1328.01563h-.14845l-.1328.01562-.13282-.01562-.1211-.03125-.08593-.0586-.07422-.07422-.0586-.08984-.0625-.08594-.11718-.17969-.0586-.08593.03125-.1211.08594-.05859.1211-.03125.05859-.08594v-.1211l-.03125-.11718-.0586-.08984-.05859-.08594-.04687-.10547-.02735-.11719-.01562-.1328.0586-.08985.07421-.07422.08984-.0586.1172-.17968.07421-.07422.0586-.08594.14843-.14844.1211-.03125.1328-.01562.13282.01562.07422.07422.04297.10547.01562.13281-.03125.1172-.11719.03124-.1328.01172-.14844.14844-.04297.10547-.04688.10156-.02734.1211-.03125.11718v.14844l.03125.11719.04297.10546.05859.08985.07422.07031.07422.07422.11719.03125.12109.02734.11719-.02734.1328-.01563h.1172l.08984.0586.07422.07422.04687.10546.0586.08594.10156.04688.13281.01562.10547.04297.08594.0586-.01172.10546-.07422.07422-.17969.11719-.05859.08984-.08984.0586-.07032.07422-.07421.07421-.0625.08985-.02735.11719-.01562.1328.01562.13282-.01562.13281v.14844l.01562.13281.02735.1172.03125.12108.07421.07422.08985.0586.08594.0586.08984.05858.11719.03125v.08594l-.10157.04688-.08984.0586-.26563.03124-.11718.02735h-.14844l-.10547.04296-.10156.04688-.0586.08984-.0625.23438-.01171.13281-.03125.1211-.01563.1328v.29298l-.01172.1328.01172.13673.01563.1328.1328.01563.13282.01172.1211.03125.08593.0586.07422.07421.04688.10547.04296.10157.01563.1328v.44532l-.01563.13281v.44532l.03125.26562.02735.11719.01562.13281.03125.11719.08594.21094.03125.26562v.14844l-.03125.11719-.02734.11718-.03125.1211-.02735.11719-.03125.11718-.03125.1211-.01171.1328-.01563.13282.08984.0586.1172-.03125.10155.01562.04688.10547-.03125.26562v.44141l-.04297.10547-.04688.10547-.04296.10156-.04297.10547-.0586.08594-.03125.12109-.04296.11719-.03125.11719-.01563.1328.01563.13282.05859.08984.10547.04688.08594.0586.05859.08593-.01172.13672-.03125.11719-.04297.10156v.44531l-.01562.13281v.14844l-.03125.11719-.04297.10547-.02735.11719-.04687.10546-.04297.10157-.03125.12109-.02734.11719-.03125.13281-.03125.11719-.02735.11719-.04297.10546-.03125.1172-.03125.12108-.01171.13282-.01563.13281v.29688l.02734.11718v.14844l.04688.39844.02734.11719.0586.08984.12109.03125h.14844l.13281-.01563.0586.08985v.11719l-.0586.08984-.08984.0586-.10157.04296-.10546.04688-.08985.05859-.08594.0586-.13671.01562-.1172-.03125-.1328-.01563-.10157.04688-.0625.08594-.01172.13671-.01562.13282-.03125.11719-.02735.11718-.01562.13281-.03125.1211v.29687l.01563.13282.03125.11718v.14844l.01171.13281v.14844l-.02734.11719-.04688.10156-.02734.1211-.03125.11718-.0586.08985-.07421.07421-.10156.04297-.10547.04688-.11719.02734-.1211.03125-.10156-.04687.0586-.08594.10547-.04688.02734-.11718.03125-.11719.02734-.1211.03125-.11718v-.14844l.01563-.13281-.03125-.11719-.04297-.10547-.10547.01563-.07422.07422-.10156.04296-.08984.0625-.07422.07422-.04297.10157-.01563.1328-.03125.1172L304.25 426l-.03125.11719-.02734.11719-.03125.12109-.02735.11719-.03125.11718-.04297.10547-.08984.0586h-.08984l-.1172-.03125-.03124-.08594.01562-.13672-.03125-.11719v-.14844l-.01171-.1328v-.14844l-.0625-.23438-.02735-.1211-.04297-.10156-.04687-.10546-.0586-.08594-.05859-.08985-.04297-.10546-.0625-.08594-.14844-.14844-.0703-.07422-.10548-.04687-.10547-.04297-.10156-.04297-.29687-.29688-.08985-.07421-.08594-.0586-.10546-.04297-.08985-.0625-.08594-.0586-.10546-.04296-.08985-.0586-.08594-.0625-.07421-.0703-.10547-.04688-.08594-.0586-.10547-.04296-.08984-.0625-.10156-.04297-.10547-.04297-.08594-.0586-.10547-.04687-.10547-.04297-.10156-.04687-.08985-.0586-.10156-.04297-.10547-.04296-.08984-.0625-.11719-.02735-.13281-.01562-.13281.01562H299.75l-.13281.01563-.11719-.03125-.08984-.0586-.07422-.07422-.08985-.05859-.10156-.04688h-.14844l-.12109-.02734-.10156-.04297-.07422-.07422-.11719-.17968-.08984-.0586-.10156-.04297-.08985-.0625-.10547-.04296-.08984-.0586-.08594-.0586-.10547-.04687-.0586-.08594-.05858-.08984-.04297-.10547-.04688-.10156-.07422-.07422-.08594-.0586-.07421-.07421-.08985-.0586-.22265-.22265-.04297-.10547-.03125-.26563.10547-.04296h.14453l.10547.04296.07421.07422.08985.0586.08594.0586.10546.04687.08985.05859.14844.14844.0703.07422.14845.14843.0625.08594.07421.07422.08594.0586.07422.07421.08985.0625.08984.0586.08594.05859.26953.17578.10156.04688.10547.04296.10156.04297.04688-.07421.05859-.08594.07422-.07422.07031-.07422.10547.04297.07422.07422.0586.08984.04296.10156.04688.10547.04296.10547.1211.02735.11719-.02735.07421-.08984.04297-.10547.0586-.08985.07422-.07421.10546-.04297.1172-.02735.1328.01172.08985.0586.14844.14843.05859.08985.04297.10547.04687.10156.04297.10547.04297.10156.10547.04688.10547.04296.13281.01563.08594-.0586.0586-.08984.07421-.07422.10547-.04297.11719.02735.10547.04687.10156.04297.10547.04297.10156.04688.17969.11718v.11719l-.01563.13281.01563.13281.01562.13672.0586.08594.10156.04688.1211.02734.11718.03125h.14844l.11719-.03125.05859-.08984.17969-.1172.05859-.08983.07422-.07422.0586-.08594.11718-.17969.17969-.11719.11719.03125.08984.0586.04297.07422-.01563.1328v.1172l.08985.05859h.14843l.13282-.01563.1328-.01171.26563-.03125.10547-.04297.11719-.03125.1211-.02735.07421-.07421.07031-.07422.0625-.08985-.01562-.10547-.04688-.10156-.10156-.04297-.10547-.01562-.11718.02734-.26563.03125h-.14844l-.07421-.07422-.08985-.0586-.11719-.03124-.11718-.02735-.13282-.01562h-.14843l-.13282.01563h-.29687l-.10547-.04688-.14844-.14844-.04297-.10156-.05859-.08984.22266-.22266.08593-.0586.10547-.04296.11719-.03125.13281-.01563.13281.01563.13672.01562.10157.04297.1328-.01172.08985-.0625.10156-.04297.0625-.08984-.04687-.10156-.08984-.0586-.1172-.03125-.10155-.04296-.0586-.08985-.0625-.08984v-.11719l.01563-.13281.10547-.04688.07421-.07031v-.1211l-.08984-.05859-.03125-.11719.08985-.05859.07421-.07422.04297-.10547.0586-.08984.04687-.10156.01563-.13281v-.14844l-.04688-.10547-.04297-.10156-.08984-.0586-.13281-.01562-.10157-.04297-.13671-.01563-.1172-.03125h-.4453l-.13282-.01562-.13281-.01172-.13281-.01563-.11719-.03125h-.14844l-.13281-.01562-.13281-.01172-.26563-.03125-.1211-.04297-.08593-.0586-.07422-.07421v-.14844l.01172-.13281.10547-.04688.10156-.04296.13281-.01563h.15235l.13281-.01562h.29297l.1211.03125.10156.04296.08984.0586.23438.0625.12109-.04688.08984-.05859.10156-.04297.13282-.01562.10547.04296.10156.04688.13281.01172.1211-.02735h.14453l.12109-.03125.11719-.02734.10547-.04687.07421-.07422.08594-.0586.14844-.14843.0586-.08594.04687-.10547.02734-.11719.01563-.10547-.10156-.04296-.08985-.0586-.11719-.03125-.10546-.04297-.08985-.0625-.07422-.08594-.07422-.07421-.10156-.04297-.10547-.04688-.10156-.04297-.0586-.08984-.04687-.10156-.08594-.21094-.0625-.08594-.05859-.08984-.07422-.07422-.08594-.0586h-.26953l-.11719.03126-.08984.05859-.10156.04297-.13281.01562-.10547-.01562-.02735-.11719-.0625-.08984-.11718-.03125-.10157-.04297-.14843-.14844-.03125-.11719-.01563-.10546.07422-.07422.17969-.1172.11719-.02733.11718-.03125.13672.01562.10156.04297.10547.04297.10156.04687.10547.04297.1172.03125.1328.01563.1172.02734.1328.01563.10547-.01563.08985-.0586-.07422-.07421-.10547-.04297-.07422-.07422-.07422-.08984-.14844-.14844-.08593-.0586-.08985-.05859-.07422-.07422-.08984-.0586-.10156-.04687-.1211-.02734-.10156-.04688-.10547-.04296-.11719-.03125-.10156-.04297-.1211-.03125h-.14843l-.11719.03125-.10546.04297-.08594.0625-.17969.11718-.08594.0586-.08984.0586-.10547.04687-.08594.05859-.10547.04297-.10156.04297-.10547.04687-.07422.07422-.05859.08985-.0586.08593-.04687.10547-.0586.08594-.07421.07422-.13281-.01172-.1172-.03125h-.11718l-.07422.07422-.08984.0586-.07422.07421-.08984.0586-.08594.05859-.10547.04687-.10156.04297-.13672.01563-.10156-.04297-.14844-.14844-.10547-.04688h-.08594l-.10547.04688-.10156.04297-.1211.03125-.11718-.03125-.07422-.07422v-.11719l.03125-.1211.07422-.0703.0586-.08985.07421-.07422.11719-.03125.10547-.04296h.29297l.13281-.01563.13672-.01563.10156-.04296.08985-.0586.10156-.04687.08984-.0586.13281-.01171.08985.05859.13281.01172.08984-.0586.08594-.05859.10547-.04297.08984-.0586.08594-.0625.08985-.05859.14843-.14843.0586-.08594.05859-.08985.10547-.04296.13281-.01563.11719.02735.1211.03125.05859-.0586.05859-.08984.03125-.26563.02734-.11719.10547.01172.13281.01563.10157-.04297.08984-.0586.0586-.08984.07421-.07422.0586-.08984.04687-.10156.01172-.13281-.01172-.13282-.04687-.10547-.14844-.14843-.0586-.08985-.05859-.08594-.04297-.10546v-.44532l.01563-.1328v-.14845l.01172-.1328-.0586-.0586-.08984.0586-.10156-.04298-.17969-.11719-.08594-.05859-.0625-.08984-.0586-.08985-.07421-.07421-.08594-.0586-.1211.03125-.10155.01172-.10547.04688-.08594.05859-.10547.04297-.14844.14844-.08984.05859-.08594.0586-.08984.0625-.10547.04296-.13281.01563v-.1211l.10547-.04297.11718-.03125.07422-.0703.04297-.10548v-.14844l-.02734-.11718-.14844-.14844-.13281-.01563h-.14844l-.11719.03125-.10547.04297-.10156.04297-.08984.0625-.11719.02735-.07422-.07422.01172-.13281-.04297-.10157-.04297-.10547-.08984-.05859-.11719.02734-.1211.03125-.11718.03125-.10156.04297-.1211.03125-.10156.04297-.10547.04297-.08984.0586-.10156.01562v-.11719l.01562-.13281-.0586-.08985-.07421.04297-.14844.14844-.0586.08985-.07421.07421-.04688.10547-.04296.10156-.07422.07422-.0586.08985-.07422.07422-.05859.08593-.07422.07422-.08984.0625-.07422.07031-.07422.07422-.10156.01563-.13281.01562-.10547-.04296v-.1211l.14843-.14844.04297-.10156.0586-.08984.04687-.10156.04297-.10547.0586-.08985.03124-.11719.04297-.10156.03125-.1211.02735-.11718.04687-.10547.04297-.10156.04297-.10547.07422-.07031.08984-.0625.08985-.0586.10156-.04296h.29687l.26563-.03125.10547-.04297-.07422-.07422-.11719-.03125-.10547-.04297-.08984-.0586-.10156-.04687-.08985-.0586-.10156-.04296-.10547-.04297-.08984-.0625-.08594-.0586-.10547-.04296-.10156-.04297-.1211-.03125-.11718-.03125-.10157-.04297L297.5 410.25l-.10156-.04297-.08985-.0586-.04296-.10546-.01563-.13281.10156-.04297.13281-.01563.13672.01563.13282-.01563.10156-.04297.0586-.08984.01562-.10547-.08985-.0586-.07421-.07421-.10157-.04297-.08984-.0586-.14844-.14843-.04297-.10547-.01562-.13281v-.29297l-.0586-.08985-.08984-.05859-.07422-.07422-.04297-.10547-.03125-.11718-.0586-.08985-.07421-.07422-.11719-.02734-.07422-.07422-.08984-.0586-.08984-.0625-.08594-.05859-.07422-.07421-.0586-.08594-.04687-.10547-.08594-.0586-.14843-.14843-.19532-.0586-.1328.01563-.10157.04297-.07422.07422-.04688.10156-.04296.10547-.0586.08984-.0586.08594-.29687.29687-.08984.0586h-.08594l-.0625-.08594-.04297-.10547.03125-.11719.0586-.08984.02734-.11719-.01172-.13281-.08984-.0625-.10547.04688-.11719.02734-.11719.03125-.26953.17578-.10156.04688-.11719.02734-.10546.04687-.08985.0586-.10156.04297-.0586-.08594-.04687-.10547.01563-.13281.04687-.10547.07031-.07422.07422-.07031.0586-.08985v-.14843l-.04297-.10547h-.23829l-.10156.04687-.03125.11719-.02734.11719-.03125.1211-.07422.04296-.13281.01563-.07422-.04688-.04297-.10156-.04297-.10547-.04687-.10156-.04297-.10547-.1211.03125-.10156.04297-.13281.01562-.11719.03125-.10547.04297-.08984.0586-.10156.04687-.1211.02734-.13281.01563-.10156-.04297-.0586-.08985-.04687-.10546-.04297-.10157-.04297-.10546v-.1172l.0586-.08984.08593-.05859.17969-.11719.10156-.04687.10547-.04297.10547-.0586.10156-.04296.08985-.0625.10156-.04297.10547-.0586.10156-.04687.08984-.0586.10547-.04296.10156-.04297.08985-.0625.10156-.04297.13672-.01563.11719.03125.10156.04297.1211.03125.10156.04297.10546.04688.10157.04296.10547.04297.10156.04688.10547.04297.10156.04297.10547.04687.08594.0586.10546.04296.1172.03125.10546.04297.10156.04688.08985.0586.10547.04296.10156.04297.10547.04687.11719.02735.10156.04687.1211.02735h.14843l.08594-.0586.01562-.10156.0586-.08984-.02735-.1172-.07422-.07421-.11719-.17969-.07421-.07422-.08985-.07421-.17969-.1172-.08593-.05859-.10547-.04296-.10156-.04688-.26954-.17578-.05859-.08985-.07422-.07421-.0586-.08985-.04296-.10156-.03125-.11719-.01563-.13672v-.5625l-.01171-.1328-.01563-.13282-.03125-.11719-.01562-.13281-.01172-.13281-.03125-.1211-.22266-.22265-.0586-.08594-.01562-.10547.03125-.11719.13281-.01562v-91.41406H172.9922v1.45312l-.0586.23438-.35156 1.05078-.17187.52343-.1172.34766-.17577.41016-.11719.17187-.23438.29297-.23046.0586h-.35157l-.11718.05859-.23047.40625v.29297l.11719.17578.23046.23047.1172.23437.64062.75781.29297.46485.17578.23437.23047.35156.23437.34766.64063.8164.17578.46485.17187.41016.11719.69531.17578.46875.11719 1.39844.0586.46484v.875l.11718 1.04688v4.78125l-.0586.46484-.35156 1.28125-.17578.52344-.11328.41015-.35156.9297L172.93359 336l-.23437.58203-.11719.17578-.17187.34766-.17578.40625-.35157.8164-.0586.29297-.11327.29297-.11719.28906-.0586.17579-.11718.875-.0586.40625-.05859.11718-.0586.17579-.05859.17187-.23047.52734-.11718.17188v.23437l-.11719.23438-.0586.17187-.17577.58594v.28906l-.0586.17579v.29296l-.0586.11329-.05859.52734v.17187l-.05468.23438v2.6211l-.17578.8164-.1172.17578-.17577.23438-.1172.17187-.11327.23438-.58594.93359-.23047.28906-.29297.46485-.17578.23437-.28906.35156-.35156.69922-.11328.23047-.17579.41016-.17578.23046-.40625.52735-.8164.69922-.29297.17187-.28906.23438-.17579.11719-.17578.17578-.52344.40625-.52734.17578-.17187.17578-.23438.05469-.64062.17578h-.75782m12.21094 31.02344l-1.07422.44921.35938.89454 1.25-.71485.44531-.53906-.98047-.08985"/><path fill="#d3d3d3" fill-opacity="0" fill-rule="evenodd" d="M201.50781 416.59766h-.89453l.44922.6289.98047.35938.80469-.08985.4453-.98828-.17577.08985-.71485-.35547-.89453.35547m154.6211 59.0703l-.0586-.52343v-.29297l.11328-.29297.0586-.23046.46875-.46875h.11328l.11719-.11329.11718-.05859h.17579l.23437-.0586h.34766l.23437.0586.11719.0586.23047.17187.0586.17578.11718.58203v.29297l-.11719.17578-.17187.28906-.17579.17579-.52734.52343-.23047.23438-.11719.0586h-.17578l-.11718-.0586-.40625-.29297-.17579-.11719-.11718-.0586-.0586-.11327-.05468-.1172m6.64062-10.95702l-.0586-.17188v-1.10937l.0586-.17188.17578-.0586.17188-.05858h.17578l.23437-.0586.1172.0586.05858.69921-.05859.17188-.11719.17578-.11718.0586-.23438.52343-.11328.0586h-.23438l-.05859-.1172m9.61328-14.39062l-.11719-.17578v-.69922l.29297-.875.1172-.17187.17577-.35156.11328-.23047.1172-.29297.35155-.75781.1172-.23047.17187-.23438h.17578l.11719-.0586h.64062l.11719.0586.23437.23438.17188.11328.35156.29297.11719.11718.11328.17579v.11328l.11719.05859.11718.11719v.69922l-.05859.17578v.23047l-.0586.17578-.34765 1.05078-.11719.23047-.11719.23437-.11718.0586-.23047.23437-.64063.28906h-.875l-.41015-.11718-.64063-.46485"/><path fill="none" stroke="#bebebe" stroke-linecap="round" stroke-linejoin="round" stroke-miterlimit="10" stroke-width=".5" d="M467.95703 311.69531H144.02734v168.625h323.9297v-168.625"/><g clip-path="url(#a)"><path fill="#fff" fill-opacity="0" fill-rule="evenodd" d="M144 475.89063v4.4375h.0039H144V311.67188h.0039H144v164.21875"/></g><g clip-path="url(#b)"><path fill="#fff" fill-opacity="0" fill-rule="evenodd" d="M144.0039 480.32813V311.67188h44.37891v63.26171l-3.42969 3.3125 3.4297 3.30079 2.09765 1.13671-2.09766 1.60547-3.77344 2.83594-.66406 2.92969-.64453 1.50781.64453.78906L186.11328 396l-2.16797.83984-4.4375.10157-4.4414.8789-4.4375-.17187L167.51563 396l-1.32422-.4961-.53125.4961.53125.53125 2.8828 3.90625-.23827 4.4375-2.64453 2.64063-2.02344 1.80078-2.41406.64843-3.71094 3.78907-.29688 4.4375-.1328 4.4375-.29688.64062-3.53516 3.80078-.49219 4.4375-.41406 1.20703-2.99219 3.23047 2.99219 3.55078.98828.88672 2.6211 4.4375-2.16016 4.4414 2.99219 2.96485 4.4375-.1875 4.4375-1.35937 1.6875-1.41797 2.75-1.32813 4.4375-1.49609 4.4414-.05078 4.4375.46094 4.4375-1.40625.72266-.6211 3.71484-1.30078 3.58985-3.13672.85156-.35156 4.4375-.57031 3.5586-3.51563.8789-.52734 4.4375-3.71875.1914-.1914 4.25-1.40626 3.20704-3.03125.55468-4.4414-3.76172-4.00782-.40625-.42968-3.60156-4.4375-.4336-.32813-4.4375.17188-.80858-4.28125-.03125-4.44141.625-4.4375.21484-.11719 1.19531.11719 3.24219 1.72656 4.4414.40625 1.81641 2.30469 2.6211 3.23438 1.42187 1.20703 3.01563 2.41796 3.01171-2.41796 1.42578-.89454 3.62891-3.54687.8086-.73047v6.3125l-3.6211 3.29688-.69531 4.4375 2.79297 4.4375 1.52344 1.2539 2.66406-1.2539 1.77734-.58594 3.21094-3.85156.39062-4.4375-3.60156-2.89844-4.4414-.39844v-6.3125l4.4414-.1289 4.4375.28906.76563.57031 3.67187 2.83203 2.48828-2.83203-.21094-4.4375L250.08984 396l-2.44922-4.4375-1.55859-1.59766-4.4375-2.53125-4.4375-.22265-4.4414 1.59375-2.70704 2.75781L228.6133 396l-.28517.3086-4.4375.64843-4.4375-.19922-.86328-.75781-3.57422-2.9414-3.25-1.4961-1.1914-1.35547-1.52734-3.08203 1.52734-1.14844 3.09766-3.29297-3.09766-3.90625-4.4375-.42578-4.4375-.03515-4.4375.89062-2.6875-.96094-1.7539-.5078-4.4375-2.8047v-63.26171h53.26171v53.40234l-4.4375 1.91797-1.98047 2.3789-2.46094 1.92579-3.01953 2.51171 3.01953 1.82813 4.44141 2.41797 4.4375-.16406v2.16015l-.95312 2.63281.95312 1.40235 1.02344-1.40235-1.02344-2.6328v-2.16017l4.4375-2.58984 1.44531-1.49219 2.9922-2.0078 4.4375-.66798 4.4414 1.28516v22.94531l-1.3164.63672 1.3164.57031.99219-.57031-.9922-.63672v-22.94531l.42188 1.39062.83203 4.4375 3.1836 3.56641 1.98437.8711 2.45313 2.41406 3.2461 2.02734 1.1914.69531 4.4414 2.07422 4.4375.05078 4.4375-2.57422.2422-.24609 4.1953-2.47266 1.94922-1.96875-1.94922-2.125-4.4375-.8203-4.4375-.69923-4.4375-.36328-3.9414-.42969-.5-.28125-1.58985-4.15625-.66406-4.4375-2.1836-3.96875-4.4375 1.44922-4.4375 1.01953-4.4414.19922-4.4375-1.26953-4.4375-.13672-4.4375-1.58984v-53.40235h88.76563v59.08204l-3.21485 3.05468 3.21485 3.14454 3.32812-3.14454-3.32812-3.05468v-59.08204h17.7539v127.04688l-2.24219 1.66406 2.2422 2.57031 2.66796 1.8672-2.66797 3.5625-.9336.8789.9336 1.09765.91016-1.09765 3.52734-2.6289 1.55469-1.8125-1.55469-1.03907-2.71484-3.39844-1.72266-1.66406V311.67187h26.6289V443.4375l-1.82812 1.38281 1.82813 1.39453 1.3711-1.39453-1.3711-1.38281V311.67187h4.4414v113.71485l-1.6914 1.6836-1.96485 4.4375 3.65625 3.82421 4.02735-3.82422-1.74219-4.4375-2.28515-1.6836V311.67189h4.41015l.02735.03515v81.9336L381.32421 396l2.34765 2.46094L386.07423 396l-2.40235-2.35938v-81.93359l.02735-.03515h13.28515v109.0664l-4.4375.16016-4.4375 1.32031-.48828.41016-.65234 4.4414 1.14063 1.3164 1.38671 3.1211 3.05079 2.86719 4.4375.0039 4.4414-.25 2.09766 1.81641 2.33984 2.59375 4.4375-.83984 1.13281-1.7539-1.1328-1.23829-4.4375-1.67578-1.27735-1.52344-2.22266-4.4375-.9375-.85937-2.51562-3.58203-1.92579-1.89063v-109.0664h8.87891v74.96484l-.33203.48828.33203.32422.32422-.32422-.32422-.48828v-74.96485h26.6289v3.9336l-.48046.5039.48047.48047.48047-.48046-.48047-.50391v-3.9336h4.4375v55.69532l-1.73438 2.0039 1.73438 2.21875 4.4414-1.58203 2.90625 3.80078 1.53125 1.50782v3.67968l-4.4375.05079-4.4414 1.51562-2.17188 2.1211 2.17188 2.125 4.4414 1.46093 4.4375.1289 4.4375-.33202 3.45704-3.38282-3.45704-3.3789-4.4375-.3086v-3.67968l1.76954-1.50782-1.76954-3.03515-2.6328-1.40235-1.8047-.83984-4.4414-1.16406v-55.69531h17.7539v56.40234l-2.03515 1.29687 2.03515 1.87891 1.59375 2.5586.40235 4.4375 2.44531 2.42187 2.41797-2.42188-.65235-4.4375-1.76562-2.5039-2.89844-1.9336-1.54297-1.29687v-56.40235h13.3125v168.65625H144.00391"/></g><path fill="#50fcfc" fill-rule="evenodd" d="M152.875 439.4961l-2.99219-3.55079 2.99219-3.23047.41406-1.20703.49219-4.4375 3.53516-3.80078.29687-.64062.13281-4.4375.29688-4.4375 3.71094-3.78907 2.41406-.64843 2.02344-1.80079 2.64453-2.64062.23828-4.4375-2.88281-3.90625-.53125-.53125.53125-.4961 1.32422.4961 3.11328 1.64844 4.4375.17187 4.4414-.8789 4.4375-.10157L186.11328 396l-2.16797-3.64844-.64453-.78906.64453-1.50781.66406-2.92969 3.77344-2.83594V386.75l-.49219.375.4922 1.3164 1.125-1.3164-1.125-.375v-2.46094l2.09765-1.60547-2.09766-1.13671-3.42969-3.30079 3.4297-3.3125v1.75l-1.6172 1.5625 1.6172 1.5586 2.1953-1.5586-2.1953-1.5625v-1.75l4.4375 2.8047v16.5703L190.55468 396l2.26562.34766L193.25 396l-.42969-1.6914v-16.57032l1.7539.50781 2.6875.96094 4.4375-.89062v2.0625l-3.02733 2.30468-1.41016.54688-3.96484 3.89453-.41797 4.4375L194.0703 396l-1.25 1.00781-3.89844 3.42969-.53906 1-1.78515-1-2.65235-1.85156-4.4375.4336-2.41015 1.41796-2.03125 3.95313-.47657.48437.47657 1.3125 4.4414-.9336v3.51563l-.69922.54688.69922.24218.67578-.24218-.67578-.54688v-3.51562l4.4375 3.47656.11328.58594-.11328.14062-4.4375 1.66406-4.10937 2.63282-.33203.42187-.36328-.42187-4.07422-2.84766-4.4375-1.0586-4.4375 1.40626-2.44532 2.5-.85937 4.4375-.15234 4.4375-.98047 2.10156-2.17578 2.33984-.97657 4.4375-1.28906 3.78125-.60547.65625.60547.71875 4.125 3.71875.3164.44922.89454 3.98828 3.54297 4.2461 4.4375-1.03125 4.4375-2.9297.55078-.28515 3.88672-2.11328 4.4414 1.01953 4.4375-.29297 4.4375-.92578 3.875-2.125.5625-.13672 4.4414-1.91796 4.40626-2.38282.03125-.01562 4.4375-2.67578 2.01172-1.7461 2.42578-1.82812 4.4414-2.30469.32032-.30469 1.70312-4.4414-2.02344-2.15625-2.14453-2.28125-2.29687-2.56641-4.4375.09766-4.4375-1.88282-.0664-.08593.0664-.23438 2.14062-4.20312-.12109-4.44141.80469-4.4375 1.61328-.86328 4.4375.44531 4.4414-2.32031 2.07032 2.73828 2.36719 3.72266.27734.71484 4.16016 3.67969 4.4375-2.76563.93359-.91406 3.5039-3.16406 4.44141.64844 4.4375-1.28125 1.47266-.64063 2.96484-2.63281.85938-1.80469-.85938-1.25-1.01953-3.1875-3.41797-2.89063-4.4375-.21875-4.42187 3.10938-.01953.07031L231.08202 396l-2.7539 2.98828-4.4375-.16797-4.4375.42969L215.75 396l-.73438-.60547-4.4414-3.29687-1.66406-.53516-2.71875-4.4375 4.3828-3.29297 1.08204-1.14844-1.08203-1.36328-4.4375-.7461-4.4375-.1953v-2.0625l4.4375.03515 4.4375.42578 3.09766 3.90625-3.09766 3.29297-1.52734 1.14844 1.52734 3.08203 1.1914 1.35547 3.25 1.4961L218.58984 396l.86328.75781 4.4375.19922 4.4375-.64844.28516-.30859 1.44531-4.4375 2.70703-2.75781 4.44141-1.59375 4.4375.22265 4.4375 2.53125 1.5586 1.59766L250.08983 396l-1.73047 4.4375.21094 4.4375-2.48828 2.83203-3.67187-2.83203-.76563-.57031-4.4375-.28906-4.4414.1289-.8086.73047-3.6289 3.54688-1.42579.89453-3.01172 2.41796-3.01562-2.41796-1.42188-1.20704-2.62109-3.23437-1.8164-2.30469-4.44141-.40625-3.24219-1.72656-1.19531-.11719-.21484.11719-.625 4.4375.03125 4.4414.80859 4.28126 4.4375-.17188.4336.32813 3.60155 4.4375.40625.42968 3.76172 4.00782-.55468 4.4414-3.20703 3.03125-4.25 1.40625-.19141.1914-4.4375 3.71876-.8789.52734-3.5586 3.51563-4.4375.57031-.85156.35156-3.58985 3.13672-3.71484 1.30078-.72266.6211-4.4375 1.40625-4.4375-.46094-4.4414.05078-4.4375 1.4961-2.75 1.32812-1.6875 1.41797-4.4375 1.35937-4.4375.1875-2.9922-2.96484 2.16017-4.4414-2.6211-4.4375-.98828-.88673"/><path fill="#00e8fc" fill-rule="evenodd" d="M152.875 436.66406l-.60547-.71875.60547-.65625 1.28906-3.78125.97656-4.4375 2.17579-2.33984.98047-2.10156.15234-4.4375.85937-4.4375 2.44532-2.5 4.4375-1.40625 4.4375 1.05859 4.07422 2.84766.36328.42187.33203-.42187 4.10937-2.63282 4.4375-1.66406.11328-.14062-.11328-.58594-4.4375-3.47656-4.4414.93359-.47657-1.3125.47657-.48438 2.03125-3.95312 2.41015-1.41797 4.4375-.4336 2.65235 1.85157 1.78515 1 .53906-1 3.89844-3.42969 1.25-1.00781-1.1914-4.4375.41797-4.4375 3.96484-3.89453 1.41016-.54688 3.02734-2.30468v2.58203l-4.4375 2.01562-2.1875 2.14844-1.53906 4.4375L195.4375 396l-2.61719 2.11328-2.64453 2.32422-1.79297 3.32031-2.28125 1.11719-.6914 4.4414-1.46485 1.85157-4.4375 2.5625-.03906.02344-4.20313 4.4375-.19921.14843-4.4375.07422-.51953-.22265.2539-4.4375-4.17187-2.375-4.4375 2.03125-.33594.34375-1.79297 4.4375-.1914 4.4375-2.0547 4.4414-.0625.15235-1.6875 4.28515-1.10937 4.4375 2.79688 2.6875 1.46484 1.75 1.09375 4.4375 1.8789 2.2539 4.4375-1.90233.51173-.35157 3.92578-4.4375 4.4375-3.28515 2.74609 3.28515 1.69531.82813 3.14844-.82813 1.28906-.53906 4.4375-.375 4.4375-1.05078 3.96875-2.47266.47266-.49219 4.4375-2.0664 2.61719-1.8789 1.8203-1.07813 4.03126-3.35938.40625-.21484 4.0586-4.22656-4.0586-4.16797-4.4375.02344-.67969-.29297-3.75781-2.57422-1.46094-1.86328 1.375-4.4375-.14844-4.44141.23438-2.3086.4961-2.1289 3.9414-2.11328 4.4375.4961L213.83984 396l-3.26562-2.73828-4.4375-1.20313-.24219-.49609-.49219-4.4375-3.70312-4.16406v-2.58203l4.4375.1953 4.4375.7461 1.08203 1.36328-1.08203 1.14844-4.38281 3.29297 2.71875 4.4375 1.66406.53516 4.4414 3.29687L215.75 396l3.70313 3.25 4.4375-.42969 4.4375.16797L231.08202 396l1.6836-4.36719.01953-.07031 4.42187-3.10938v2.07032l-1.47656 1.03906-.96094 4.4375 2.4375 3.11719 4.4375-1.14453L243.67578 396l-1.04687-4.4375-.98438-.83203-4.4375-.20703v-2.07031l4.4375.21875 3.41797 2.89062 1.01953 3.1875.85938 1.25-.85938 1.80469-2.96484 2.63281-1.47266.64063-4.4375 1.28125-4.4414-.64844-3.50391 3.16406-.9336.91406-4.4375 2.76563-4.16015-3.67969-.27734-.71484-2.3672-3.72266-2.0703-2.73828-4.44141 2.32031-4.4375-.44531-1.61328.86328-.80469 4.4375.1211 4.4414-2.14063 4.20313-.0664.23438.0664.08593 4.4375 1.88282 4.4375-.09766 2.29687 2.5664 2.14453 2.28126 2.02344 2.15625-1.70312 4.4414-.32031.30469-4.44141 2.30469-2.42578 1.82812-2.01172 1.7461-4.4375 2.67578-.03125.01562-4.40625 2.38281-4.4414 1.91797-.5625.13672-3.875 2.125-4.4375.92578-4.4375.29297-4.44141-1.01953-3.88672 2.11328-.55078.28516-4.4375 2.92969-4.4375 1.03125-3.54297-4.2461-.89453-3.98828-.31641-.44922-4.125-3.71875"/><path fill="#00d4fc" fill-rule="evenodd" d="M157.3164 438.63281l-2.79687-2.6875 1.10938-4.4375 1.6875-4.28515.0625-.15235 2.05468-4.4414.19141-4.4375 1.79297-4.4375.33594-.34375 4.4375-2.03125 4.17187 2.375-.2539 4.4375.51953.22265 4.4375-.07422.19922-.14843 4.20312-4.4375.03906-.02344 4.4375-2.5625 1.46485-1.85156.6914-4.44141 2.28125-1.11719 1.79297-3.32031 2.64453-2.32422L195.4375 396l-1.90234-4.4375 1.53906-4.4375 2.1875-2.14844 4.4375-2.01562v.83203l-4.4375 2.92969-.41016.40234-2.66406 4.4375L196.80469 396l-3.98438 3.21484-1.38672 1.22266-2.23437 4.4375-.8164 1.34375-1.6211 3.09766-2.8164 3.5664-1.50782.8711-2.92969.89453-3.3789 3.54297-1.0625.79687-4.4375.51953-3.07422-1.3164.1211-4.4375-1.48438-.84375-1.75782.84375-2.67968 2.2539-.95703 2.1836-.22657 4.4375-1.60937 4.4414-1.64453 3.86328-.22657.57422-.63672 4.4375.86329.82813 3.02343 3.60937 1.19532 4.4375.21875.26172.57422-.26172 3.86328-1.88281 2.41015-2.55469 2.02735-2.64062 2.02343-1.79688 2.41407-1.5586 4.3164-2.8789.125-.07422 2.76953-4.36328 1.66797-1.60547 3.15235-2.83593 1.28515-.79688v.71094l-.13672.08594-4.30078 3.87109-.58984.57031.58984 2.17578 4.4375-1.80078.42578-.375 4.01172-4.35156.0664-.08984-.0664-.07422-4.4375-.01172v-.71094l4.4375-1.69922 2.15625 2.4961-2.15625 2.91796-1.40234 1.52344-3.03516 2.67578-2.83984 1.76172-1.45313 4.4375 4.29297 1.65235 4.4375-1.00782 1.03516-.64453 3.40625-3.57031 2.30469-.86719 2.1328-.65234 4.4375-2.51563 1.52345-1.26953 2.91406-1.53515 2.79297-2.90625-2.79297-2.86329-4.4375-.16796-3.27734-1.40625-1.16016-.79688-2.85156-3.64062 2.13672-4.4375-.53516-4.44141-3.1875-2.71875-2.84766-1.71875 2.84766-3.79688v1.91797l-1.41016 1.87891 1.41016.85156 3.64453-.85156-3.64453-1.8789v-1.91798l4.4375 2.4297 4.4375-1.9961 4.4375.54687 1.875-1.62109-1.875-1.57422-4.4375-.25-1.27344-2.61328-.20312-4.4375-2.96094-3.33203v-.83203l3.70312 4.16406.4922 4.4375.24218.4961 4.4375 1.20312L213.83984 396l-3.26562 2.82031-4.4375-.4961-3.9414 2.11329-.4961 2.1289-.23438 2.3086.14844 4.4414-1.375 4.4375 1.46094 1.86329 3.75781 2.57422.67969.29296 4.4375-.02343 4.0586 4.16797-4.0586 4.22656-.40625.21484-4.03125 3.35938-1.82031 1.07812-2.6172 1.8789-4.4375 2.06642-.47265.49218-3.96875 2.47266-4.4375 1.05078-4.4375.375-1.28906.53906-3.14844.82813-1.69531-.82813-2.7461-3.28515-4.4375 3.28515-3.92577 4.4375-.51172.35156-4.4375 1.90235-1.87891-2.2539-1.09375-4.4375-1.46484-1.75"/><path fill="#00c4fc" fill-rule="evenodd" d="M157.3164 436.77344l-.86327-.82813.63671-4.4375.22657-.57422 1.64453-3.86328 1.60937-4.4414.22656-4.4375.95704-2.1836 2.67968-2.2539 1.75782-.84375 1.48437.84375-.1211 4.4375 3.07423 1.3164 4.4375-.51953 1.0625-.79687 3.3789-3.54297 2.92969-.89453 1.50781-.8711 2.8164-3.5664 1.6211-3.09766.8164-1.34375 2.23438-4.4375 1.38672-1.22266v1.10547l-.13281.11719-1.91797 4.4375-2.38672 3.92969-.26562.51172-3.4414 4.4375-.73048.33203-4.4375 1.46484-2.51953 2.64063-1.92187 1.4414-4.4375.96875-4.4375-1.17578-4.4375 2.41797-.04688.78516-1.16406 4.4414-.46484 4.4375-1.08985 4.4375 2.76563 4.02344 1.49218.41406 2.94532.40235.3828-.40235 3.4297-4.4375.625-.48437 4.4375-2.99219 1.4453-.96094 2.9961-1.77344 1.6914-2.66406 2.7461-2.63672 2.0039-1.80468 2.4336-1.50782 4.23438-2.92968.20312-.30079 4.4414-3.58984.19142-.54687 2.90234-4.4375-.92578-4.44141-2.16797-1.85156-4.28516-2.58594-.15625-.11719v-1.10547L196.8047 396l-2.61719-4.4375 2.66406-4.4375.41016-.40234 4.4375-2.9297v.83595l-3.53125 2.49609-.90625.76172-2.42188 3.67578 2.42188 3.76172 2.0664.67578 2.3711 1.32813 3.75-1.32813-1.61719-4.4375.08594-4.4375-2.21875-2.4961v-.83593l2.96094 3.33203.20312 4.4375 1.27344 2.61328 4.4375.25v1.16797L207.40625 396l3.16797.41797.48828-.41797-.48828-.40625v-1.16797l1.875 1.57422-1.875 1.6211-4.4375-.54688-4.4375 1.9961-4.4375-2.4297-2.84766 3.79688 2.84766 1.71875 3.1875 2.71875.53516 4.4414-2.13672 4.4375 2.85156 3.64063 1.16016.79688 3.27734 1.40625v1.11718l-4.4375.70704-4.4375.83203-.1914.375-1.91798 4.4414-2.33203 1.36719-3.61719 3.07031 3.6172 2.72656 2.625-2.72656 1.8164-2.8086 4.4375-.33983 2.52344-1.28907 1.91406-.82812 4.4375-2.02735 1.52344-1.58593-1.52344-1.5625-4.4375-.35157v-1.11718l4.4375.16796 2.79297 2.86329-2.79297 2.90625-2.91406 1.53515-1.52344 1.26953-4.4375 2.51563-2.13281.65234-2.3047.86719-3.40624 3.57031-1.03516.64453-4.4375 1.00782-4.29297-1.65235 1.45313-4.4375 2.83984-1.76172 3.03516-2.67578 1.40234-1.52344 2.15625-2.91796-2.15625-2.4961-4.4375 1.69922-1.28515.79688-3.15235 2.83593-1.66797 1.60547-2.76953 4.36328-.125.07422-4.3164 2.8789-2.41407 1.5586-2.02343 1.79688-2.02735 2.64062-2.41015 2.55469-3.86328 1.88281-.57422.26172-.21875-.26172-1.19532-4.4375-3.02343-3.60937"/><path fill="#00b8fc" fill-rule="evenodd" d="M161.7539 439.96875l-2.76562-4.02344 1.08984-4.4375.46485-4.4375 1.16406-4.4414.04688-.78516 4.4375-2.41797 4.4375 1.17578 4.4375-.96875 1.92187-1.4414 2.51953-2.64063 4.4375-1.46484.73047-.33203 3.4414-4.4375.26563-.51172 2.38672-3.92969 1.91797-4.4375.13281-.11719v3.42578l-.47656 1.12891-2.96484 4.4414-.9961 1.55079-2.21875 2.88672-2.21875 1.0039-4.4375 1.69531-1.66015 1.73829-2.78125 2.08984-4.4375 1.41406-4.4375.3789-.79688.5547-3.21094 4.4414.51172 4.4375-.58594 4.4375 4.08204 2.38672 1.85547-2.38672 2.58203-2 3.38672-2.4375 1.05078-.39453 4.4414-3.07812.61328-.96485 3.82422-3.67187.85156-.76953 3.58594-2.21875 3.20703-2.21875 1.23047-1.82032 2.96485-2.61718 1.47656-.80079 2.46094-3.63671-1.3086-4.44141-1.15234-.98438-4.4414-.14453v-3.42578l.15624.11719 4.28516 2.58594 2.16797 1.85156.92578 4.4414-2.90234 4.4375-.19141.54688-4.4414 3.58985-.20313.30078-4.23438 2.92968-2.4336 1.50782-2.0039 1.80468-2.7461 2.63672-1.6914 2.66406-2.9961 1.77344-1.4453.96094-4.4375 2.99219-.625.48437-3.4297 4.4375-.3828.40235-2.94532-.40235-1.49218-.41406"/><path fill="#00a8fc" fill-rule="evenodd" d="M166.1914 438.33203l-4.08202-2.38672.58593-4.4375-.51172-4.4375 3.21094-4.4414.79688-.5547 4.4375-.3789 4.4375-1.41406 2.78125-2.08984 1.66015-1.73829 4.4375-1.6953 2.21875-1.00391 2.21875-2.88672.9961-1.55078 2.96484-4.44141.47656-1.1289 4.4414.14452v.8672l-.73046.11718-3.71094 1.25-2.19922 3.1914-2.23828 3.48829-.72656.94922-3.71094 1.67968-4.4375 1.92188-.79687.83594-3.64453 2.73828-4.20313 1.69922-.23437.19921-4.4375 1.57032-2.1797 2.67187.6211 4.4375 1.5586 4.16016 4.4375-3.24219 1.28125-.91797 3.15625-1.17969 4.02343-3.2578.41797-.28516 4.26172-4.15625.17578-.26172 4.4375-2.66797 2.17578-1.50781 2.26172-3.33594 1.2461-1.10156 3.1953-1.73047 1.83204-2.70703-1.69531-4.44141-.13672-.11719v-.86719l1.15234.98438 1.3086 4.4414-2.46094 3.63673-1.47656.80078-2.96485 2.61718-1.23047 1.82032-3.20703 2.21875-3.58594 2.21875-.85156.76953-3.82422 3.67187-.61328.96485-4.4414 3.07812-1.05078.39453-3.38672 2.4375-2.58203 2-1.85547 2.38672"/><path fill="#009800" fill-rule="evenodd" d="M164.63281 431.50781l-.6211-4.4375 2.1797-2.67187 4.4375-1.57031.23437-.19922 4.20313-1.69922 3.64453-2.73828.79687-.83594 4.4375-1.92188 3.71094-1.67968.72656-.94922v2.33984l-4.4375.96094-4.33594 2.08594-.10156.05859-4.4414 3.32422-2.60157 1.05469-1.83593 1.54296-4.4375 2.46094-.35547.4375.35547 2.21094 4.4375 1.53906 4.4375-1.28125 3.05078-2.46875 1.39062-.94531 3.58594-3.4961.85156-1.28124 4.4375-2.36329 1.14844-.79296-1.14844-3.04688v-2.33984l2.23828-3.48828 2.19922-3.19141 3.71094-1.25.73047-.11719v1.5l-4.4414 1.66406-.96095 1.39454.96094 3.27734 4.4414-1.5 1.20313-1.77734-1.20312-3.0586v-1.5l.13672.11719 1.69531 4.4414-1.83203 2.70704-3.19531 1.73047-1.2461 1.10156-2.26172 3.33594-2.17578 1.5078-4.4375 2.66798-.17578.26172-4.26172 4.15625-.41797.28515-4.02343 3.25781-3.15625 1.1797-1.28125.91796-4.4375 3.24219-1.5586-4.16016"/><path fill="#00ac00" fill-rule="evenodd" d="M166.1914 429.28125l-.35546-2.21094.35547-.4375 4.4375-2.46094 1.83593-1.54296 2.60157-1.0547 4.4414-3.32421.10156-.0586 4.33594-2.08593v.67578l-2.9336 1.41016-1.5039.88671-4.4414 3.14454-1.00391.40625-3.4336 2.88671-2.61327 1.5547 2.61328 2.0078 4.4375-.32812 2.07812-1.67969 2.36328-1.60547 2.90625-2.83593 1.53125-2.30079 4.4375-2.05468.1211-.08203-.1211-.31641-4.4375-1.09375v-.67578l4.4375-.96094 1.14844 3.04688-1.14844.79296-4.4375 2.36329-.85156 1.28125-3.58594 3.49609-1.39062.94531-3.05078 2.46875-4.4375 1.28125-4.4375-1.53906"/><path fill="#00c800" fill-rule="evenodd" d="M170.6289 429.07813l-2.61327-2.00782 2.61328-1.55469 3.43359-2.88671 1.0039-.40625 4.44141-3.14454 1.5039-.88671 2.9336-1.41016v1.34766l-.1289.0625-4.3086 2.54296-2.77734 1.89454-1.66406 4.03906-.60938.40234.60938.10547.1328-.10547 4.3086-2.92578 1.55078-1.51562 2.88672-4.34375.20703-.09375-.20703-.0625v-1.34766l4.4375 1.09375.1211.3164-.1211.08204-4.4375 2.05469-1.53125 2.30078-2.90625 2.83593-2.36328 1.60547-2.07812 1.67969-4.4375.32813"/><path fill="#10cc00" fill-rule="evenodd" d="M175.0664 427.17578l-.60937-.10547.60938-.40234 1.66406-4.03906 2.77734-1.89454v1.65625l-.35547.23829.35547.1953.19531-.1953-.1953-.23829v-1.65625l4.30859-2.54296.1289-.0625.20703.0625-.20703.09375-2.88672 4.34375-1.55078 1.51562-4.3086 2.92578-.1328.10547"/><path fill="#fff" fill-opacity="0" fill-rule="evenodd" d="M179.50781 408.76953l-.69922.54688.69922.24218.67578-.24218-.67578-.54688"/><path fill="#24d000" fill-rule="evenodd" d="M179.50781 422.82422l-.35547-.19531.35547-.23829.19531.23829-.1953.1953"/><path fill="#00e8fc" fill-rule="evenodd" d="M183.94531 426.5l-.58984.57031.58984 2.17578 4.4375-1.80078.42578-.375 4.01172-4.35156.0664-.08984-.0664-.07422-4.4375-.01172-.13672.08594-4.30078 3.87109m4.4375-46.69531l-1.61719-1.5586 1.6172-1.5625 2.1953 1.5625-2.1953 1.5586m0 8.63672l-.4922-1.31641.4922-.375 1.125.375-1.125 1.3164"/><path fill="#00b8fc" fill-rule="evenodd" d="M192.82031 434.23438l-3.61719-2.72657 3.6172-3.07031v2.96094l-.125.10937.125.09375.09374-.09375-.09375-.10937v-2.96094l2.33203-1.36719 1.91797-4.4414.1914-.375 4.4375-.83204 4.4375-.70703v1.11329l-2.10937.80078 2.10938 1.51171 4.4375-1.24218.25781-.26953-.25781-.26172-4.4375-.53906v-1.11329l4.4375.35157 1.52344 1.5625-1.52344 1.58593-4.4375 2.02735-1.91406.82812-2.52344 1.28906-4.4375.33985-1.8164 2.8086-2.625 2.72656"/><path fill="#fff" fill-opacity="0" fill-rule="evenodd" d="M192.82031 394.3086L190.5547 396l2.26562.34766L193.25 396l-.42969-1.6914"/><path fill="#00ac00" fill-rule="evenodd" d="M192.82031 412.59375l-.96094-3.27734.96094-1.39454 4.4414-1.66406v1.59766l-3.5625 1.46094 3.5625.84765.57423-.84765-.57422-1.46094v-1.59766l1.20312 3.0586-1.20312 1.77734-4.4414 1.5"/><path fill="#00a8fc" fill-rule="evenodd" d="M192.82031 431.60156l-.125-.09375.125-.10937.09375.10937-.09375.09375"/><path fill="#00c800" fill-rule="evenodd" d="M197.26172 410.16406l-3.5625-.84765 3.5625-1.46094.57422 1.46094-.57422.84765"/><path fill="#00b8fc" fill-rule="evenodd" d="M197.26172 395.32422l-2.42188-3.76172 2.42188-3.67578.90625-.76172 3.53125-2.4961v.83204l-2.35156 1.66406-2.08594 1.7539-1.76563 2.6836 1.76563 2.7461 4.4375.88671 1.10156-3.63281.375-4.4375-1.47656-1.66406v-.83203l2.21875 2.49609-.08594 4.4375L205.44922 396l-3.75 1.32813L199.32812 396l-2.0664-.67578"/><path fill="#00a8fc" fill-rule="evenodd" d="M197.26172 394.3086l-1.76563-2.7461 1.76563-2.6836 2.08594-1.7539 2.35156-1.66406v.83594l-1.17188.82812-3.26562 2.7461-1.11328 1.6914 1.11328 1.73047 4.4375-1.50781.0664-.22266.66797-4.4375-.73437-.82813v-.83593l1.47656 1.66406-.375 4.4375-1.10156 3.63281-4.4375-.88672"/><path fill="#00e8fc" fill-rule="evenodd" d="M197.26172 398.5586l-1.41016 1.8789 1.41016.85156 3.64453-.85156-3.64453-1.8789"/><path fill="#009800" fill-rule="evenodd" d="M197.26172 393.29297l-1.11328-1.73047 1.11328-1.6914v.99218l-.46094.69922.46094.71094 1.90234-.71094-1.90234-.69922v-.99219l3.26562-2.74609 1.17188-.82813.73437.82813-.66797 4.4375-.0664.22266-4.4375 1.5078"/><path fill="#00ac00" fill-rule="evenodd" d="M197.26172 392.27344l-.46094-.71094.46094-.69922 1.90234.69922-1.90234.71094"/><path fill="#00a8fc" fill-rule="evenodd" d="M206.13672 424.14063l-2.10938-1.51172 2.10938-.80079 4.4375.53907.25781.26172-.25781.26953-4.4375 1.24219"/><path fill="#00b8fc" fill-rule="evenodd" d="M210.57422 396.41797L207.40625 396l3.16797-.40625.48828.40625-.48828.41797"/><path fill="#50fcfc" fill-rule="evenodd" d="M231.24219 422.6289l-2.79297-4.4375.69531-4.4375 3.6211-3.29687v1.83594l-1.60157 1.46094-1.1914 4.4375 2.79297 3.14062 4.4414-2.89062.20703-.25-.04687-4.4375-.16016-.12891-4.4414-1.33203v-1.83594l4.4414.39844 3.60156 2.89844-.39062 4.4375-3.21094 3.85156-1.77734.58594-2.66406 1.2539-1.52344-1.2539m1.52344-46.9922l-3.01954-1.82812 3.01953-2.51171 2.46094-1.92579 1.98047-2.3789 4.4375-1.91797v4.1289l-.24219.16797-4.1953 3.64454-1 .79296 1 .57032 2.79687-.57032 1.64062-3.0664.76172-1.3711-.76172-.16796v-4.12891l4.4375 1.58984 4.4375.13672 4.4375 1.26953 4.4414-.19922 4.4375-1.01953v3.48438l-1.27343 3.47265.48828 4.4375.78516.87891 4.0586-.8789.3789-.96876.28125-3.46875-.28125-.7578-4.4375-2.71485v-3.48438l4.4375-1.44922 2.1836 3.96875.66405 4.4375 1.58985 4.15625.5.28125 3.9414.4297v1.28905l-4.4414.40235-2.82031 2.3164 2.8203 2.41407 4 2.02734.44141.24219 4.4375.11328.57813-.35547 3.85937-3.34375 1.7422-1.09766-1.7422-.70312-4.4375-1.73047-4.4375-.28516v-1.28906l4.4375.36328 4.4375.69922 4.4375.82031 1.94922 2.125-1.94922 1.96875-4.1953 2.47266-.2422.2461-4.4375 2.57421-4.4375-.05078-4.4414-2.07422-1.1914-.69531-3.2461-2.02734-2.45313-2.41407-1.98437-.87109-3.1836-3.5664-.83203-4.4375-.42187-1.39063-4.4414-1.28516-4.4375.66797-2.9922 2.00781-1.4453 1.4922-4.4375 2.58983-4.4375.16407-4.44142-2.41797"/><path fill="#00e8fc" fill-rule="evenodd" d="M232.76563 421.33203l-2.79297-3.14062 1.1914-4.4375 1.60156-1.46094v5.20312l-.24609.69532.2461.27734.41015-.27734-.41016-.69532v-5.20312l4.44141 1.33203.16016.1289.04687 4.4375-.20703.25-4.4414 2.89063"/><path fill="#00d4fc" fill-rule="evenodd" d="M232.76563 418.46875l-.2461-.27734.2461-.69532.41015.69532-.41016.27734m4.44141-19.35156L234.76953 396l.96094-4.4375 1.47656-1.03906 4.4375.20703.98438.83203L243.67578 396l-2.03125 1.97266-4.4375 1.14453"/><path fill="#00e8fc" fill-rule="evenodd" d="M237.20703 374.3789l-1-.5703 1-.79298 4.19531-3.64453.2422-.16796.76171.16796-.76172 1.3711-1.64062 3.0664-2.79688.57032"/><path fill="#50fcfc" fill-rule="evenodd" d="M241.64453 384.08594l-.95312-1.40235.95312-2.6328 1.02344 2.6328-1.02344 1.40235m17.7539 12.48437L258.08204 396l1.3164-.63672.9922.63672-.9922.57031"/><path fill="#00e8fc" fill-rule="evenodd" d="M263.05078 378.2461l-.48828-4.4375 1.27344-3.47266 4.4375 2.71484.28125.75781-.28125 3.46875-.3789.96875-4.0586.87891-.78516-.8789m9.66016 6.85156l-2.82031-2.41407 2.8203-2.3164 4.44141-.40235v2.14063l-1.86718.57812 1.86718.9922 4.4375-.1797.89454-.8125-.89454-.41015-4.4375-.16797v-2.14063l4.4375.28516 4.4375 1.73047 1.7422.70312-1.7422 1.09766-3.85937 3.34375-.57813.35547-4.4375-.11328-.4414-.24219-4-2.02734"/><path fill="#00d4fc" fill-rule="evenodd" d="M277.15234 383.67578l-1.86718-.99219 1.86718-.57812 4.4375.16797.89454.41015-.89454.8125-4.4375.1797"/><path fill="#50fcfc" fill-rule="evenodd" d="M330.41016 376.95313l-3.21485-3.14454 3.21485-3.05468v2.17578l-.92579.8789.92579.90625.95703-.90625-.95703-.8789v-2.17578l3.32812 3.05468-3.32812 3.14454"/><path fill="#00e8fc" fill-rule="evenodd" d="M330.41016 374.71484l-.92579-.90625.92579-.8789.95703.8789-.95703.90625"/><path fill="#50fcfc" fill-rule="evenodd" d="M348.16406 442.95313l-2.24219-2.57032 2.2422-1.66406 1.72265 1.66406 2.71484 3.39844 1.55469 1.03906-1.55469 1.8125-3.52734 2.6289-.91016 1.09767-.9336-1.09766.9336-.8789 2.66797-3.5625-2.66797-1.8672m26.6289 3.26172l-1.82812-1.39453 1.82813-1.38281 1.3711 1.38281-1.3711 1.39453m4.4414-10.8828l-3.65625-3.82423 1.96485-4.4375 1.6914-1.6836v3.04688l-2.09765 3.07422 2.09765 2.1914 2.3086-2.1914-2.3086-3.07422v-3.04687l2.28516 1.6836 1.74219 4.4375-4.02735 3.82421"/><path fill="#00e8fc" fill-rule="evenodd" d="M379.23438 433.69922l-2.09766-2.1914 2.09765-3.07423 2.3086 3.07422-2.3086 2.1914"/><path fill="#50fcfc" fill-rule="evenodd" d="M383.67188 398.46094L381.32421 396l2.34765-2.35938L386.07423 396l-2.40235 2.46094"/><g clip-path="url(#c)"><path fill="#50fcfc" fill-rule="evenodd" d="M383.69922 311.67188h-.05469l.02735.03515.02734-.03515"/></g><path fill="#50fcfc" fill-rule="evenodd" d="M388.10938 428.38672l-1.14063-1.3164.65234-4.44141.48829-.41016 4.4375-1.32031 4.4375-.16016v9.82031l-1.78907.94922 1.78906.51172 2.33204-.51172-2.33204-.94922v-9.8203l1.92579 1.89062 2.51562 3.58203.9375.85937 2.22266 4.4375 1.27734 1.52344 4.4375 1.67578 1.13281 1.23828-1.1328 1.7539-4.4375.83985-2.33985-2.59375-2.09766-1.8164-4.4414.25-4.4375-.00391-3.05079-2.86719-1.38671-3.1211"/><path fill="#00e8fc" fill-rule="evenodd" d="M396.98438 432.01953l-1.78907-.51172 1.78906-.94922 2.33204.94922-2.33204.51172"/><path fill="#50fcfc" fill-rule="evenodd" d="M405.86328 387.44922l-.33203-.32422.33203-.48828.32422.48828-.32422.32422m26.6289-70.85938l-.48046-.48046.48047-.50391.48047.5039-.48047.48047m4.4375 68.21875l-2.17188-2.125 2.17188-2.12109 4.4414-1.51563 4.4375-.05078v1.12891l-4.4375.21875-3.65234 2.33984 3.65234 2.3125 4.4375.26954 4.4375-.78516 1.83594-1.79688-1.83594-1.79296-4.4375-.76563v-1.1289l4.4375.30859 3.45704 3.3789-3.45704 3.38282-4.4375.33203-4.4375-.1289-4.4414-1.46095m0-13.21875l-1.73438-2.21875 1.73438-2.0039 4.4414 1.16406 1.8047.83984 2.6328 1.40235 1.76954 3.03515-1.76954 1.50782-1.53125-1.50782-2.90625-3.80078-4.4414 1.58203"/><path fill="#00e8fc" fill-rule="evenodd" d="M441.3711 384.9961l-3.65235-2.3125 3.65234-2.33985 4.4375-.21875V382l-4.4375.5039-.28515.1797.28515.17968 4.4375.51172 2.35938-.6914-2.35938-.6836v-1.875l4.4375.76563 1.83594 1.79296-1.83594 1.79688-4.4375.78515-4.4375-.26953"/><path fill="#00d4fc" fill-rule="evenodd" d="M441.3711 382.86328l-.28516-.17969.28515-.17968L445.8086 382l2.35938.6836-2.35938.6914-4.4375-.51172"/><path fill="#50fcfc" fill-rule="evenodd" d="M454.6836 371.25l-2.03516-1.8789 2.03515-1.29688 1.54297 1.29687 2.89844 1.9336 1.76563 2.5039.65234 4.4375-2.41797 2.42188-2.44531-2.42188-.40235-4.4375-1.59375-2.55859"/><g clip-path="url(#d)"><path fill="#fff" fill-opacity="0" fill-rule="evenodd" d="M467.9961 480.32813H468V311.67188h-.0039H468v168.65625h-.0039"/></g><path fill="#fff" fill-opacity="0" fill-rule="evenodd" d="M202.44922 383.23828l5.83203.30469.51563-9.94922-5.83204-.30078-.51562 9.94531"/><path fill-rule="evenodd" d="M206.36328 375.30469l.50781.02734-.32422 6.28516-.78515-.03906.23047-4.48438-1.38672-.07422.03125-.55469.5625-.03515.2539-.03906.23438-.07813.21094-.13281.1836-.19922.15624-.28516.125-.39062"/><path fill="#fff" fill-opacity="0" fill-rule="evenodd" d="M202.58594 404.30469l5.58984 1.6875 2.8789-9.53516-5.59374-1.6875-2.875 9.53516"/><path fill-rule="evenodd" d="M208.28125 397.53516l.48828.14453-1.82031 6.02734-.75-.22656 1.29687-4.29688-1.33203-.40234.16016-.53125.55469.09766.2578.02343.2461-.01953.23438-.07812.22656-.15235.22266-.23828.21484-.34765"/><path fill="#fff" fill-opacity="0" fill-rule="evenodd" d="M272.67578 394.07422l5.69531 1.30078 2.21875-9.71094-5.6953-1.30078-2.21876 9.71094"/><path fill-rule="evenodd" d="M277.89844 386.92969l.4961.11328-1.40235 6.13672-.76563-.17578 1-4.375-1.35547-.3086.125-.54297.5586.0625.25781.00391.2461-.03906.23046-.08985.21485-.16796.20312-.25391.1914-.36328"/><path fill="#fff" fill-opacity="0" fill-rule="evenodd" d="M201.1289 422.8789l7.76563 1.57813 2.03125-9.98828-7.76562-1.57813-2.03125 9.98829"/><path fill-rule="evenodd" d="M205.22656 415.1836l3.21875.65234-.14844.72656-2.58203-.52734-.58593 1.72265.2539-.11328.28906-.07422.33594-.02344.38281.04297.3125.09375.3125.14844.29688.21094.26563.27344.20703.33593.07812.19532.0625.21093.03516.22657.01172.24609-.01172.26172-.04688.28125-.1211.42578-.18358.39063-.2461.34375-.30078.28515-.35938.21485-.1953.07812-.21095.0586-.22265.03515-.23828.01172-.2461-.01563-.2578-.03906-.44923-.1289-.3711-.1797-.29687-.22656-.22656-.26171-.16406-.30079-.10938-.32812-.05859-.34766-.01563-.36328.77344.15625.03125.24219.0586.22266.08593.20312.10938.17969.14062.15625.16797.125.19531.09765.22266.0625.3125.03907.28906-.01172.26563-.07031.23437-.1211.20703-.17578.16797-.23437.13672-.28907.09766-.34765.03125-.26172-.00781-.26563-.05078-.26562-.09766-.2539-.14844-.22657-.20703-.19531-.26172-.15625-.32422-.10156-.33984-.03125-.29688.05078-.30468.1289-.35938.20313-.67969-.14063 1.13672-3.26172"/><g clip-path="url(#e)"><path fill="none" stroke="#000" stroke-linecap="round" stroke-linejoin="round" stroke-miterlimit="10" stroke-width=".5" d="M145.90625 483.28125l-3.8125-5.90234"/></g><g clip-path="url(#f)"><path fill="none" stroke="#000" stroke-linecap="round" stroke-linejoin="round" stroke-miterlimit="10" stroke-width=".5" d="M159.23047 483.27344l-3.83203-5.89063"/></g><g clip-path="url(#g)"><path fill="none" stroke="#000" stroke-linecap="round" stroke-linejoin="round" stroke-miterlimit="10" stroke-width=".5" d="M172.42188 483.35156l-3.58204-6.04687"/></g><g clip-path="url(#h)"><path fill="none" stroke="#000" stroke-linecap="round" stroke-linejoin="round" stroke-miterlimit="10" stroke-width=".5" d="M185.98828 483.1875l-4.08594-5.71484"/></g><g clip-path="url(#i)"><path fill="none" stroke="#000" stroke-linecap="round" stroke-linejoin="round" stroke-miterlimit="10" stroke-width=".5" d="M199.16406 483.28125l-3.80469-5.90625"/></g><g clip-path="url(#j)"><path fill="none" stroke="#000" stroke-linecap="round" stroke-linejoin="round" stroke-miterlimit="10" stroke-width=".5" d="M211.92969 483.57031l-2.71094-6.48437"/></g><g clip-path="url(#k)"><path fill="none" stroke="#000" stroke-linecap="round" stroke-linejoin="round" stroke-miterlimit="10" stroke-width=".5" d="M226.33203 482.85547l-4.88281-5.05469"/></g><g clip-path="url(#l)"><path fill="none" stroke="#000" stroke-linecap="round" stroke-linejoin="round" stroke-miterlimit="10" stroke-width=".5" d="M239.90625 482.57813l-5.40234-4.4961"/></g><g clip-path="url(#m)"><path fill="none" stroke="#000" stroke-linecap="round" stroke-linejoin="round" stroke-miterlimit="10" stroke-width=".5" d="M253.29688 482.48047l-5.5547-4.30469"/></g><g clip-path="url(#n)"><path fill="none" stroke="#000" stroke-linecap="round" stroke-linejoin="round" stroke-miterlimit="10" stroke-width=".5" d="M266.76953 482.26172l-5.86719-3.86719"/></g><g clip-path="url(#o)"><path fill="none" stroke="#000" stroke-linecap="round" stroke-linejoin="round" stroke-miterlimit="10" stroke-width=".5" d="M279.95703 482.44531l-5.61328-4.23047"/></g><g clip-path="url(#p)"><path fill="none" stroke="#000" stroke-linecap="round" stroke-linejoin="round" stroke-miterlimit="10" stroke-width=".5" d="M293.30469 482.39844l-5.67969-4.14063"/></g><g clip-path="url(#q)"><path fill="none" stroke="#000" stroke-linecap="round" stroke-linejoin="round" stroke-miterlimit="10" stroke-width=".5" d="M307.11719 481.4336l-6.67188-2.21094"/></g><g clip-path="url(#r)"><path fill="none" stroke="#000" stroke-linecap="round" stroke-linejoin="round" stroke-miterlimit="10" stroke-width=".5" d="M306.14453 481.11328l.20703 1.20703"/></g><g clip-path="url(#s)"><path fill="none" stroke="#000" stroke-linecap="round" stroke-linejoin="round" stroke-miterlimit="10" stroke-width=".5" d="M320.41406 481.48828l-6.63281-2.32031"/></g><g clip-path="url(#t)"><path fill="none" stroke="#000" stroke-linecap="round" stroke-linejoin="round" stroke-miterlimit="10" stroke-width=".5" d="M319.44922 481.15234l.1836 1.21094"/></g><g clip-path="url(#u)"><path fill="none" stroke="#000" stroke-linecap="round" stroke-linejoin="round" stroke-miterlimit="10" stroke-width=".5" d="M333.39844 482.17578l-5.97656-3.69531"/></g><g clip-path="url(#v)"><path fill="none" stroke="#000" stroke-linecap="round" stroke-linejoin="round" stroke-miterlimit="10" stroke-width=".5" d="M346.9414 478.91406l-6.43359 2.82813"/></g><g clip-path="url(#w)"><path fill="none" stroke="#000" stroke-linecap="round" stroke-linejoin="round" stroke-miterlimit="10" stroke-width=".5" d="M358.19922 477.01172l-2.3164 6.63281"/></g><path fill="none" stroke="#000" stroke-linecap="round" stroke-linejoin="round" stroke-miterlimit="10" stroke-width=".5" d="M357.86328 477.97656l1.21094-.1875"/><g clip-path="url(#x)"><path fill="none" stroke="#000" stroke-linecap="round" stroke-linejoin="round" stroke-miterlimit="10" stroke-width=".5" d="M369.95703 476.83984l.79688 6.98047"/></g><path fill="none" stroke="#000" stroke-linecap="round" stroke-linejoin="round" stroke-miterlimit="10" stroke-width=".5" d="M370.07422 477.85547l1.01172-.69531"/><g clip-path="url(#y)"><path fill="none" stroke="#000" stroke-linecap="round" stroke-linejoin="round" stroke-miterlimit="10" stroke-width=".5" d="M381.98438 477.2461l3.37109 6.16406"/></g><path fill="none" stroke="#000" stroke-linecap="round" stroke-linejoin="round" stroke-miterlimit="10" stroke-width=".5" d="M381.98438 477.2461l1.34765-2.05079"/><g clip-path="url(#z)"><path fill="none" stroke="#000" stroke-linecap="round" stroke-linejoin="round" stroke-miterlimit="10" stroke-width=".5" d="M394.2539 478.1211l5.46485 4.41406"/></g><path fill="none" stroke="#000" stroke-linecap="round" stroke-linejoin="round" stroke-miterlimit="10" stroke-width=".5" d="M394.2539 478.1211l.46485-2.41016"/><g clip-path="url(#A)"><path fill="none" stroke="#000" stroke-linecap="round" stroke-linejoin="round" stroke-miterlimit="10" stroke-width=".5" d="M407.08984 478.90625l6.42188 2.84766"/></g><path fill="none" stroke="#000" stroke-linecap="round" stroke-linejoin="round" stroke-miterlimit="10" stroke-width=".5" d="M407.08984 478.90625l-.17578-2.44922"/><g clip-path="url(#B)"><path fill="none" stroke="#000" stroke-linecap="round" stroke-linejoin="round" stroke-miterlimit="10" stroke-width=".5" d="M420.15625 479.73047l6.92188 1.19922"/></g><path fill="none" stroke="#000" stroke-linecap="round" stroke-linejoin="round" stroke-miterlimit="10" stroke-width=".5" d="M420.15625 479.73047l-.76563-2.33203"/><g clip-path="url(#C)"><path fill="none" stroke="#000" stroke-linecap="round" stroke-linejoin="round" stroke-miterlimit="10" stroke-width=".5" d="M433.4336 480.67188l6.99609-.6836"/></g><g clip-path="url(#D)"><path fill="none" stroke="#000" stroke-linecap="round" stroke-linejoin="round" stroke-miterlimit="10" stroke-width=".5" d="M433.4336 480.67188l-1.35548-2.04688"/></g><g clip-path="url(#E)"><path fill="none" stroke="#000" stroke-linecap="round" stroke-linejoin="round" stroke-miterlimit="10" stroke-width=".5" d="M446.82031 481.10938l6.85156-1.5625"/></g><g clip-path="url(#F)"><path fill="none" stroke="#000" stroke-linecap="round" stroke-linejoin="round" stroke-miterlimit="10" stroke-width=".5" d="M447.8164 480.88281l-.80077-.92578"/></g><g clip-path="url(#G)"><path fill="none" stroke="#000" stroke-linecap="round" stroke-linejoin="round" stroke-miterlimit="10" stroke-width=".5" d="M460.1211 481.05078l6.8789-1.4414"/></g><g clip-path="url(#H)"><path fill="none" stroke="#000" stroke-linecap="round" stroke-linejoin="round" stroke-miterlimit="10" stroke-width=".5" d="M461.125 480.83984l-.78906-.9414"/></g><g clip-path="url(#I)"><path fill="none" stroke="#000" stroke-linecap="round" stroke-linejoin="round" stroke-miterlimit="10" stroke-width=".5" d="M145.4336 470.22266l-2.8672-6.41797"/></g><g clip-path="url(#J)"><path fill="none" stroke="#000" stroke-linecap="round" stroke-linejoin="round" stroke-miterlimit="10" stroke-width=".5" d="M145.4336 470.22266l-1.51173 1.93359"/></g><path fill="none" stroke="#000" stroke-linecap="round" stroke-linejoin="round" stroke-miterlimit="10" stroke-width=".5" d="M158.48438 470.32813l-2.33594-6.62891m2.33594 6.6289l-1.66407 1.8047m15.2539-1.91798l-2.89062-6.40234m2.89063 6.40234l-1.5 1.94141m14.82422-1.94531l-2.90625-6.39453m2.90625 6.39453l-1.49219 1.94531m14.95313-2.01562l-3.19922-6.25391m3.19922 6.2539l-1.40625 2.01172m14.42578-1.875l-2.60547-6.52734m2.22656 5.57813l-.79297.9375m15.45313-.57032l-4.53907-5.36328m3.87891 4.58203l-.45313 1.14063m15.25782-1.38672l-6.19922-3.3086m5.29687 2.82813v1.22656m14.38672-1.11718l-6.53906-2.56641m5.58984 2.19531l.14063 1.21875m13.8125-.23437l-5.91406-3.79297m5.05468 3.24219l-.10156 1.22265m14.41016-.90234l-6.1836-3.33203m5.28516 2.84765l-.00781 1.22657m14.30078-.89844l-6.34375-3.01953m5.42187 2.58203l.0547 1.22265m14.51171-1.98046l-7-.62891m5.98047.53516l.47656 1.1328m13.73047-2.33593l-6.7461 1.96484m5.76563-1.67968l.85547.8828m13.26562-1.64062l-6.39843 2.91016m5.46875-2.48437l.97265.74609m10.875-3.13672l-1.60156 6.83984m1.36719-5.84375l1.1875-.3164m10.73047-.67578l1.66015 6.83203m-1.41797-5.83594l.91797-.8164m11.64453-.01172l2.6797 6.49609m-2.6797-6.4961l1.56641-1.89062m10.57813 2.6836l5.02343 4.91015m-5.02343-4.91016l.6875-2.35546m12.35156 2.66796l5.57422 4.28516m-5.57422-4.28516l.40625-2.41796m.40625 3.04296l.20312-1.21093m11.69141 1.8203l6.78906 1.81642m-6.78906-1.81641l-.55078-2.39063m13.78125 2.8125l6.96094.97266m-6.96094-.97266l-.83985-2.30859m14.19532 2.07422l6.8789 1.4414m-6.8789-1.4414l-.67969-2.35938m13.94531 2.66797l6.97656.82422m-6.97656-.82422l-.89062-2.28906m14.21093 3.17188l6.96485-.94141m-6.96485.9414l-1.42968-1.99609"/><g clip-path="url(#K)"><path fill="none" stroke="#000" stroke-linecap="round" stroke-linejoin="round" stroke-miterlimit="10" stroke-width=".5" d="M144.03906 457.21094l-.07812-7.02735"/></g><g clip-path="url(#L)"><path fill="none" stroke="#000" stroke-linecap="round" stroke-linejoin="round" stroke-miterlimit="10" stroke-width=".5" d="M144.02734 456.1914l-1.07812.58594"/></g><path fill="none" stroke="#000" stroke-linecap="round" stroke-linejoin="round" stroke-miterlimit="10" stroke-width=".5" d="M157.90234 457.16406l-1.17578-6.92969m1.17578 6.9297l-1.9414 1.49609m14.67969-1.44922l-.02344-7.02735m.01953 6.00782l-1.08203.57812m14.45312.4414l-.125-7.02343m.10547 6l-1.07031.59766m13.91797.40234l.85156-6.97656m-.73047 5.96094l-1.14453.4414m13.69531.4336l2.13672-6.69532m-1.82812 5.71875l-1.20703.22266m14.0664.70312l2.42578-6.59375m-2.07031 5.63282l-1.21484.16796m18.60937-1.09375l-6.4375-2.8203m19.80078 2.6953l-6.53906-2.5703m5.58984 2.1953l.14063 1.21875m13.625.03516l-5.53906-4.32812m13.68359 4.72656l4.80078-5.1289m14.08203 4.08593l-6.33593-3.03906m19.83593 2.57422l-6.70312-2.10938m19.40234-1.15234l-5.47265 4.41406m17.6914-5.3164l-3.28125 6.21484m2.80469-5.3086l1.22656-.0039m10.09375-1.20703l1.66406 6.82812m-1.42187-5.83594l.91406-.8164m10.17188 1.14062l5.63672 4.19532m-4.81641-3.58594l.1836-1.21094m12.89843-.01562l4.46484 5.42578m-4.46484-5.42578l.9414-2.26563m-.29296 3.05469l.46875-1.13281m12.3164.25l4.22657 5.61718m-4.22657-5.61719l1.03907-2.22265m-.42578 3.03906l.51953-1.10937m11.5078.96093l5.57423 4.27735m-5.57422-4.27735l.40234-2.41797m.40625 3.04297l.40625-2.42187m11.83594 2.19531l6.10156 3.48047m-6.10156-3.48047l.07031-2.45312m12.96485 3.07422l6.66015 2.23828m-6.66015-2.23828l-.40235-2.41797m13.67969 2.54297l6.73828 1.98828m-6.73828-1.98828l-.49219-2.40235m1.47266 2.6914l-.2461-1.19921m12.58985.875l6.71875 2.0625m-6.71875-2.0625l-.46484-2.41016m13.6289 3.28516l7.01953.3086m-7.01953-.3086l-1.05469-2.21094"/><g clip-path="url(#M)"><path fill="none" stroke="#000" stroke-linecap="round" stroke-linejoin="round" stroke-miterlimit="10" stroke-width=".5" d="M147.51172 440.33203l-7.02344.10156"/></g><path fill="none" stroke="#000" stroke-linecap="round" stroke-linejoin="round" stroke-miterlimit="10" stroke-width=".5" d="M157.09766 443.89063l.4375-7.01563m-.4375 7.01563l-2.23438 1.01562m16.19922-1.03516l-.86328-6.97265m.86328 6.97265l-2.00781 1.41016m15.14453-1.39453l-.50781-7.00781m.5078 7.0078l-2.07812 1.3086m15.64453-1.33594l-1.0078-6.95312m.85937 5.9414l-.98828.72657m14.96875-3.1914l-.01953-.19923-.0586-.1914-.09375-.17578-.46094-.37891-.1914-.0586-.19922-.01953-.19922.01954-.1914.05859-.45704.3789-.09765.17579-.0547.1914-.01952.19922.01953.19922.05469.1914.09765.1797.45703.375.19141.05859.19922.01953.19922-.01953.1914-.0586.46094-.375.09375-.17968.0586-.1914.01953-.19923m13.26172 3.3789l-1.9375-6.7539m14.99609 6.8164l-1.42578-6.8828m1.21875 5.8828l-.94531.78126m15.8828-.42578l-4.2578-5.58985m3.64062 4.77344l-.51172 1.11719m8.80469-3.17578l7.02344.15625m-6.00391-.13281l-.55078-1.09766m13.14453-.26563l6.42578 2.83985m-5.49219-2.42969l-.08593-1.22266m12.45312.83985l6.45313 2.78125m-5.51172-2.375l-.10156-1.22266m13.71875-.6914l3.96875 5.79687m-3.39063-4.95313l.5664-1.08593m13.29688 6.54687l1.71485-6.8125m8.96875 3.83594l6.97656-.85547m-5.96094.73047l-.70312-1.0039m13.1914-.50391l6.60156 2.41015m-5.64062-2.05859l-.17188-1.21875m12.9922-.0039l5.66796 4.14843m-5.66797-4.14844l.34766-2.42968m13.36328 1.97656l4.8789 5.0586m-4.8789-5.0586l.75781-2.33203m12.80469 2.11328l4.3789 5.4961m-4.3789-5.4961l.98047-2.2539m12.35547 2.23827l4.33984 5.52344m-4.33984-5.52344l.99218-2.24609m-.36328 3.05078l.4961-1.125m12.22265.29297l4.27344 5.57813m-4.27344-5.57813l1.01953-2.23047m11.26563 3.4961l6.33203 3.04687m-6.33203-3.04688l-.09766-2.45312m1.01953 2.89844l-.04687-1.22656m12.22266 1.35546l6.76953 1.89844m-6.76953-1.89844l-.52344-2.39453m1.50781 2.67188l-.26172-1.19922m12.72266.54297l6.50781 2.65625m-6.50781-2.65625l-.2461-2.4375m13.38672 3.0039l6.85938 1.52344m-6.85938-1.52344l-.65625-2.36328m1.65235 2.58594l-.32813-1.1836"/><g clip-path="url(#N)"><path fill="none" stroke="#000" stroke-linecap="round" stroke-linejoin="round" stroke-miterlimit="10" stroke-width=".5" d="M145.75 424.01953l-3.5 6.09766"/></g><path fill="none" stroke="#000" stroke-linecap="round" stroke-linejoin="round" stroke-miterlimit="10" stroke-width=".5" d="M145.23828 424.90625l1.22656.03906m9.89844 5.5039l1.90625-6.76171m10.5586 6.39844l3.60156-6.03516m-3.07813 5.15625l-1.22265-.0586m14.65234 1.23438l2.32813-6.6289m-1.98829 5.66406l-1.21484.1836m15.04297.96484l.6211-6.9961m-.6211 6.9961l-2.25781.95703m17.05078-1.14063l-2.33203-6.6289m1.99218 5.66406l-.83203.90234m13.16016.25782l.32031-7.01954m-.27344 6l-1.10937.52344m11.1211-2.19531l6.83202-1.63672m6.38672.90234l7.02344-.16796m-6 .14453l-.60156-1.07032m12.92187 1.47657l6.96485-.9336m-5.94922.79688l-.71485-.9961m13.51954-1.1953l5.96093 3.72265m-5.09375-3.17969l.08203-1.22656m12.35547.69531l5.97657 3.69922m-5.10547-3.16016l.07812-1.22265m13.86719-.64844l2.97656 6.36328m-2.54297-5.4375l.73438-.98047m10.60937 1.45313l6.05078 3.5664m8.625-4.875l3.33204 6.1836m-2.84766-5.28516l.67969-1.01953m10.99609 1.11719l5.64063 4.1914m-4.82032-3.58203l.1836-1.21094m13.45703-.39062l3.34765 6.17578m-3.34765-6.17578l1.35547-2.04688m11.73437 2.1797l3.79688 5.91015m-3.79688-5.91016l1.19922-2.14062m11.27734 2.89453l5.47657 4.40234m-5.47657-4.40234l.45704-2.41016m13.24609 2l4.69922 5.22266m-4.69922-5.22266l.83984-2.30469m-.15625 3.06641l.41797-1.15625m11.4961 1.29687l6.13671 3.42188m-6.13671-3.42188l.04687-2.45703m13.67188 1.875l5.32812 4.58203m-5.32812-4.58203l.53906-2.39453m12.9414 2.21485l4.9961 4.9414m-4.9961-4.9414l.70313-2.35157m12.84375 2.13672l4.53125 5.3711m-4.53125-5.3711l.91406-2.27734m12.2461 2.41797l4.84375 5.08984m-4.84375-5.08984l.77734-2.32813"/><g clip-path="url(#O)"><path fill="none" stroke="#000" stroke-linecap="round" stroke-linejoin="round" stroke-miterlimit="10" stroke-width=".5" d="M147.24219 412.40234l-6.48438 2.69922"/></g><path fill="none" stroke="#000" stroke-linecap="round" stroke-linejoin="round" stroke-miterlimit="10" stroke-width=".5" d="M146.30078 412.79688l.94531.77734m13.08985-1.61328l-6.04297 3.58593m5.16406-3.0625l1.04688.63672m13.34375-.77734l-6.4375 2.82031m5.5-2.41015l.96484.76172m9.45313 3.6953l1.23437-6.91796m-1.05469 5.91406l-1.16797.375m15.8086.57031l-1.77344-6.79687m1.51563 5.8086l-.90625.83202m12.36718.05078l2.44531-6.58593m-2.4453 6.58594l-2.4297.32812m14.60157-1.02344l4.73437-5.19531m-4.04687 4.4375l-1.1875-.30078m13.23047.3711l5.90234-3.82032m-5.90234 3.82031l-2.14063-1.19531m14.91406-.32422l6.98438-.78125m-5.96875.66797l-.6914-1.01172M260.78515 415.5l6.10156-3.49219m-5.21484 2.98438l-1.03516-.65625m13-.625l7.02734.08593m-6.0039-.07421l-.5625-1.08985m13.46484-.85937l5.80469 3.96093m-4.95703-3.38671l.1328-1.21875m13.12891-.1836l4.21875 5.61719m-3.60546-4.80078l.51953-1.10938m12.26172.23047l4.05859 5.73828m-3.46875-4.90234l.55469-1.09375m11.08984 1.4961l6.22266 3.26562m-5.32032-2.78906l-.0039-1.22657m13.3164-.34765l4.42188 5.46093m-4.42188-5.46093l.95704-2.25782m12.55859 2.10547l4.01953 5.76563m-4.01953-5.76563l1.1211-2.18359m12.38671 2.0586l3.63281 6.01562m-3.6328-6.01563l1.2578-2.10547m11.53907 2.48829l4.67187 5.25m-4.67187-5.25l.85156-2.30078m-.17188 3.0664l.42579-1.15234M394 411.90234l5.97266 3.70313M394 411.90234l.16406-2.44921m.70703 2.98828l.07813-1.22657m13.11328-.16796l4.47656 5.41406m-4.47656-5.41406l.9336-2.26954m12.3203 2.32032l4.60157 5.3125m-4.60156-5.3125l.8828-2.28907m-.21484 3.0625l.44141-1.14453m12.36719.23828l4.27734 5.57422m-4.27734-5.57422l1.01562-2.23046m-.39453 3.04296l.50781-1.11718m12.35547.18359l3.94141 5.82031m-3.9414-5.82031l1.14452-2.16797m-.57421 3.01563l.57421-1.08594m11.5547.76953l5.17187 4.75781m-5.17188-4.75781l.61719-2.375m.13281 3.0664l.3086-1.1875"/><g clip-path="url(#P)"><path fill="none" stroke="#000" stroke-linecap="round" stroke-linejoin="round" stroke-miterlimit="10" stroke-width=".5" d="M147.51172 400.28906l-7.02344.29688"/></g><path fill="none" stroke="#000" stroke-linecap="round" stroke-linejoin="round" stroke-miterlimit="10" stroke-width=".5" d="M147.51172 400.28906l1.24219 2.11719m11.78515-3.35938l-6.44922 2.78516m6.44922-2.78515l1.91797 1.53125m11.67969.07421l-7.01172-.42968m7.01172.42968l1.01953 2.23438m12.28516-2.09766l-6.9922-.69922m5.97657.59766l.46484 1.13281m9.76172 2.07813l1.21485-6.92188m-1.03906 5.91406l-1.16797.37891m12.74218-.07031l4.34766-5.51953m-4.34766 5.51953l-2.41406-.4375m15.14063-.15235l5.52343-4.34375m-5.52343 4.34375l-2.2461-.98828m3.05078.35938l-1.125-.4961m13.44141.85547l5.91016-3.80078m-5.91016 3.80078l-2.14063-1.19921m15.37891 1.07421l6.0625-3.55078m-6.0625 3.55078l-2.08984-1.28906m15.05469.46875l6.76562-1.91015m-6.76563 1.91015l-1.6953-1.77344m14.97265 1.62891l6.83984-1.6211m-6.83984 1.6211l-1.6211-1.84375m14.85157 1.26172l7.01172-.46094m-7.01172.46094l-1.29297-2.08594m14.92578.3789l6.375 2.95313m-6.375-2.95312l-.13672-2.44922m13.40625 2.55469l6.46875 2.74609m-6.46875-2.7461l-.21484-2.4453m13.48828 2.54296l6.55078 2.54688m-5.59766-2.17578l-.14453-1.21875m12.55078.73437l6.45704 2.77344m-6.45704-2.77344l-.20312-2.44531m13.78906 1.9414L360 402.33204m-5.91797-3.78515l.19531-2.44532m13.32813 2.14844l5.5 4.375m-5.5-4.375l.44922-2.41016m14.01172 1.47266l3.20703 6.2539m-2.73828-5.34374l.69921-1.00782m11.89063.2422l3.72266 5.96093m-3.72266-5.96094l1.22656-2.125m12.4961 1.91016l2.91015 6.39453m-2.91015-6.39453l1.49218-1.94922m11.75782 1.97656l3.03515 6.33594m-3.03515-6.33594l1.45703-1.97656m12.99219 1.65234l.76953 6.98438m-.76954-6.98438l2.02735-1.38281m10.65625 1.51172l2.03125 6.72656m-2.03125-6.72656l1.74219-1.73047m-1.44532 2.71094l.8711-.86719m11.75.03516l2.82812 6.43359m-2.82812-6.4336l1.51953-1.92577m-1.10938 2.85937l.76172-.96094"/><g clip-path="url(#Q)"><path fill="none" stroke="#000" stroke-linecap="round" stroke-linejoin="round" stroke-miterlimit="10" stroke-width=".5" d="M141.11719 389.13281l5.76562-4.01562"/></g><path fill="none" stroke="#000" stroke-linecap="round" stroke-linejoin="round" stroke-miterlimit="10" stroke-width=".5" d="M160.80469 386.71875l-6.98047.8086m5.96484-.69141l.69922 1.01172m13.29688.8203l-6.3125-3.08983m6.3125 3.08984l.08203 2.45312m13.03906-2.10546l-5.92188-3.78516m5.0586 3.23437l-.09766 1.22266m12.94531.54688l-3.26171-6.22266m2.78906 5.3164l-.6914 1.01563m15.16796-.58203l-4.63672-5.27735m3.96094 4.51172l-.4336 1.14844m12.10548.49219v-7.02735m0 6.00391l-1.08204.57813m11.84766-.65235l5.10156-4.83203m-4.35937 4.1289l-1.16406-.39062m13.3125.54688l5.94921-3.73828m-5.94922 3.73828l-2.1289-1.21875m15.20703.77734l6.42188-2.85547m-6.42188 2.85547l-1.9336-1.51172m2.8672 1.09766l-.96485-.75781m13.0664.1328l6.98438-.77733m-6.98437.77734l-1.38672-2.02735m14.77734 2.46094l6.83203-1.64453m-6.83203 1.64453l-1.6289-1.83594m2.62109 1.59766l-.8125-.91797m13.04297.15625l7.01562.35547m-7.01562-.35547l-1.04297-2.22265m14.94531.4453l5.83984 3.91017m-4.99218-3.33985l.125-1.22265m11.75 2.58593l7.02734.04688m-7.02734-.04688l-1.13672-2.17578m14.46484 1.88281l7 .62891m-7-.6289l-.95312-2.25782m14.36328 1.70313l6.8086 1.73828m-5.81641-1.48438l-.29297-1.1914m13.67187-.8047l4.69531 5.22657m-4.01171-4.46875l.42187-1.15234m13.15234-.21485l2.8086 6.44141m-2.8086-6.4414l1.52735-1.92188m11.1836 2.25781l4.01952 5.76953m-4.01953-5.76953l1.1211-2.1836m12.9453 1.78907l2.51563 6.5586m-2.51562-6.5586l1.60937-1.85156m13.29297 1.63281l-.65625 6.9961m.5586-5.97657l1.1328-.47265m15.3711 2.14062l-6.83984 1.6211m5.84375-1.38282l.8086.92188m9.70702-3.84375l.75 6.98828m-.75-6.98828l2.03125-1.375m12.46485 1.44921l-1.60938 6.83985m1.60938-6.83985l2.3711-.625"/><g clip-path="url(#R)"><path fill="none" stroke="#000" stroke-linecap="round" stroke-linejoin="round" stroke-miterlimit="10" stroke-width=".5" d="M147.32813 372.6836l-6.65625 2.25"/></g><path fill="none" stroke="#000" stroke-linecap="round" stroke-linejoin="round" stroke-miterlimit="10" stroke-width=".5" d="M147.32813 372.6836l1.78515 1.68359m11.54688.51562l-6.69141-2.15234m5.71875 1.83984l.21484 1.20703m8.1211.38672l5.21094-4.71094m-4.45313 4.02735l-1.15234-.41797m14.40625 1.69531l3.8203-5.89844m-3.8203 5.89844l-2.44532-.21094m17.45703.76954l.42579-7.01563m-.36328 5.99219l-1.11329.51172m17.8711-1.76563l-6.58203-2.46094m5.625 2.10157l.16015 1.21875m10.86328 1.42187l-.08593-7.02344m11.53906 6.51563l3.64062-6.00781m-3.11328 5.13281l-1.22265-.0664m13.48047.55077l4.6953-5.22656m-4.6953 5.22656l-2.37891-.58984m15.21484.0586l5.65625-4.16797m-5.65625 4.16796l-2.21484-1.05859m3.03906.45313l-1.10937-.53125m13.33203.71484l6.1914-3.32031m-6.1914 3.32031l-2.03907-1.36328m15.27735 1.21484l6.34375-3.02344m-6.34375 3.02344l-1.97266-1.46094m2.89844 1.01954l-.98828-.73047m13.16797.61719l6.76172-1.91407m-6.76172 1.91406l-1.69532-1.76953m2.6797 1.4922l-.84766-.88673m13.04687.16406l7.02734.08594m-7.02734-.08594l-1.125-2.17968m15.10547 4.27734l5.69922-4.11328m10.375 5.57031l.17578-7.02344m10.61719 1.16016l5.22265 4.70313m-4.46093-4.01954l.29687-1.1914m14.3711-.6211l.99218 6.95704m-.84765-5.94141l.99218-.72656m12.97266-.3086l-.59766 7m.51172-5.98437l1.1289-.48047m11.07032-.42969l1.8086 6.78906m-1.54297-5.80078l.89843-.83593m13.9961-.14454l-1.88282 6.76954m1.60938-5.78125l1.19922-.26563m12.14453-.78125l-1.39453 6.89063m1.1914-5.88672l1.17579-.35156m8.76171.78515l5.76954 4.01563m-4.9297-3.4336l.14845-1.21484m12.20703.82031l6.00781 3.64063m-5.13281-3.11329l.0664-1.22265m16.14844-.91406l-1.53906 6.85937m1.53906-6.85937l2.36719-.64844"/><g clip-path="url(#S)"><path fill="none" stroke="#000" stroke-linecap="round" stroke-linejoin="round" stroke-miterlimit="10" stroke-width=".5" d="M146.80078 358.3711l-5.60156 4.24609"/></g><path fill="none" stroke="#000" stroke-linecap="round" stroke-linejoin="round" stroke-miterlimit="10" stroke-width=".5" d="M146.80078 358.3711l2.22656 1.02734m-3.04297-.41016l2.22657 1.03125m-3.03906-.41406l1.11328.51562m13.87109-1.6953l-5.6836 4.13671m5.6836-4.13672l2.20703 1.07422m-3.03516-.47266l2.20704 1.07422m10.60547-2.78125l-3.01954 6.34375m3.01953-6.34375l2.44922-.10937m5.88282 2.7461l6.9453 1.0703m-6.9453-1.0703l-.8086-2.31642m14.53516 4.57813l6.1211-3.44922m-6.1211 3.44922l-2.0664-1.32422m2.95702.82031l-1.03515-.66015m15.16406 2.67969l2.71484-6.48047m-2.71484 6.48046l-2.44531.22266m13.98828-5.0625l6.25781 3.19922m7.41406.5586l5.54297-4.31641m-4.73828 3.6875l-1.11719-.5m13.96094 1.5l4.875-5.0625m-4.16406 4.32812l-1.17969-.33984m18.32031 1.36328l-4.1953-5.63672m3.58593 4.8164l-.52344 1.10938m14.94922-.74219l-5.19922-4.73046m5.19922 4.73046l-.60547 2.375m12.71485-1.51562l-2.78907-6.44922m2.78906 6.44922l-1.53125 1.91797m16.42188-3.26953l-5.9414-3.75m5.07812 3.20703l-.08985 1.22265m14.1836-.54687l-5.76953-4.01172m4.92969 3.42578l-.14454 1.21875m14.92188-2.82422l-7.01563.3711m16.71875-3.69922l.20704 7.02344m11.95703-6.79297l2.51171 6.5625m-2.14453-5.60547l.8047-.92578m10.05468 2.17578l6.6914 2.14844m-5.71875-1.83594l-.21875-1.20703m12.60938 3.1914l6.58984-2.4414m-5.6289 2.08594l-.91797-.81641m13.65625-2.01563l5.82422 3.9297m-4.97656-3.35548l.1289-1.22265m15.01953-.89063L410.53125 364m-.39453-5.99219l1.04297-.64453m11.46484-.2461l1.9414 6.75391m-1.65624-5.77343l.88281-.85157m11.89063-.04687l2.45703 6.58594m-2.09766-5.625l.8125-.91797m10.32422 1.5039l6.09765 3.4922m-6.09765-3.4922l.07422-2.44921m12.77734 4.28906l7.02344-.1875m-6.0039.16015l-.60548-1.0664"/><g clip-path="url(#T)"><path fill="none" stroke="#000" stroke-linecap="round" stroke-linejoin="round" stroke-miterlimit="10" stroke-width=".5" d="M146.0625 344.33203l-4.125 5.6914"/></g><path fill="none" stroke="#000" stroke-linecap="round" stroke-linejoin="round" stroke-miterlimit="10" stroke-width=".5" d="M146.0625 344.33203l2.42969.33985m-3.03125.48828l2.42969.33984m11.71875-.98047l-4.58985 5.32031m4.58984-5.3203l2.39454.54296m-3.0625.23047l2.39453.54297m11.76953-1.15235l-4.94922 4.98829m4.94922-4.98829l2.34766.71094m-3.06641.01563l2.34766.70703m11.2578-1.79688l-4.09374 5.71485m4.09375-5.71485l2.42969.32813m-3.02735.5039l2.4336.32422m5.98828 2.39844l6.88672-1.39453m-5.88282 1.1914l-.78125-.94921m14.86719 3.54687l3.33984-6.1836m-3.33984 6.1836l-2.45313-.01562m2.9375-.88282l-1.22656-.0078m13.07422.12108l5.30078-4.61328m-5.30078 4.61329l-2.28906-.87891m14.90625-.36328l6.69922-2.1289m-5.72266 1.8203l-.8789-.85937m15.90625 3.55469l1.32421-6.90235m-1.32422 6.90235l-2.34375.72265m18.28125-1.25781l-3.92187-5.83203m3.92188 5.83203l-1.15235 2.16406m14.84766-2.46094l-4.6836-5.23828m4.6836 5.23829l-.84375 2.30468m14.86328-3.16797l-6.08984-3.5078m6.08984 3.5078l-.08594 2.44922m-.80078-2.96094l-.04297 1.22657m14.6914-2.07422l-6.98437-.79297m6.98438.79297l.89844 2.28125m12.43359-2.5l-7.01953-.35156m5.9961.29687l.52343 1.11328m13.02734.98438l-5.44531-4.4414m4.65234 3.79687l-.23828 1.20312m11.35938-6.28125l.53125 7.0039m9.78515-4.80468l6.52735 2.60938m-5.57813-2.23047l-.13281-1.22266m12.61719.58203l6.29297 3.1289m-6.29297-3.1289l-.0664-2.45312m13.14843 4.98828l6.7539-1.9414m-6.7539 1.9414l-1.70313-1.76172m14.89844 1.14062l6.9961-.69921m-6.9961.69921l-1.35937-2.04296m15.66406-.76563l5.01562 4.91797m-4.28515-4.20313l.34765-1.17578m12.83985-.03125l3.8125 5.90235m-3.8125-5.90235l1.1914-2.14453m11.10157 3.15235l5.85547 3.88671m-5.85547-3.88671l.23828-2.44141m13.5 1.92187l5.01172 4.92579m-5.01172-4.92579l.69531-2.35156m11.65234 4.26563l6.94141 1.09765m-6.9414-1.09765l-.79688-2.32032"/><g clip-path="url(#U)"><path fill="none" stroke="#000" stroke-linecap="round" stroke-linejoin="round" stroke-miterlimit="10" stroke-width=".5" d="M145.15625 330.54688l-2.3125 6.6328"/></g><path fill="none" stroke="#000" stroke-linecap="round" stroke-linejoin="round" stroke-miterlimit="10" stroke-width=".5" d="M145.15625 330.54688l2.42578-.375m-2.76172 1.33984l1.21485-.1875m13.29687-.33594l-4.03516 5.75m4.03516-5.75l2.4375.30078m10.5664-.4961l-3.41015 6.14063m3.41016-6.14062l2.45312.04297m11.25781.21094l-4.20312 5.6328m4.20313-5.6328l2.42578.375m-3.03907.4453l1.21485.1875m13.70703.14454l-6.1914 3.32812m6.1914-3.32812l2.03906 1.36328m-2.9414-.8789l2.04296 1.36327m8.21485 3.22266l1.73047-6.8125m-1.73047 6.8125l-2.38281.58203m13.4375-2.38281l6.25-3.21094m-6.25 3.21094l-2.01563-1.39844m2.92578.9336l-1.00781-.70313m13.07422.14453l6.92969-1.16406m-6.9297 1.16406L232.2461 332.5m2.50391 1.77344l-.75-.97266m13.03516.1211l6.97265.8828m-6.97265-.8828l-.8711-2.29688m1.88672 2.42578l-.8711-2.29687m13.6211 4.3789l6.07031-3.54297m-6.0703 3.54297l-2.08595-1.28906m16.71875 2.58594l3.4336-6.13281m-3.4336 6.1328l-2.45312-.05468m17.26953.4961l.42969-7.01563m-.42969 7.01562l-2.23047 1.01563m18.71875-2.625l-5.91406-3.79688m5.05469 3.2422l-.10157 1.22265m10.96875-6.0625l.69922 6.99219m10-5.38282L333.375 335.75m-5.0664-3.22266l.09765-1.22656m12.07422 1.21875l6.49219 2.6875m-5.54688-2.29687l-.1211-1.22266m12.33595 1.28906l6.80078 1.77344m-6.80078-1.77344l-.56641-2.38672m13.85547 2.4922l6.85156 1.5625m-6.85156-1.5625l-.64063-2.3672m1.63672 2.59375l-.32031-1.18359m12.57812 1.32422l6.97657.82812m-6.97657-.82812l-.89062-2.28906m1.90625 2.41015l-.44531-1.14453m12.78515 2.1211l6.89453-1.3672m-6.89453 1.3672l-1.55078-1.90235m2.55469 1.70313l-.77734-.94922m13.02343.55469l7.02344-.1836m-7.02344.1836l-1.20703-2.13282m14.65625 1.07422l6.7539 1.9375m-6.7539-1.9375l-.51172-2.39844m1.4961 2.6797l-.25782-1.19923m12.70313.58203l6.52734 2.60938m-6.52734-2.60938l-.26172-2.4414m1.21094 2.82031l-.13281-1.21875m12.28906 2.6836l6.94531-1.07813m-6.94531 1.07812l-1.46875-1.96093m2.48047 1.80468l-.73438-.98046m13 .52343l7.02344.14844m-7.02344-.14844l-1.10937-2.1914m2.1289 2.21484l-.55078-1.09766"/><g clip-path="url(#V)"><path fill="none" stroke="#000" stroke-linecap="round" stroke-linejoin="round" stroke-miterlimit="10" stroke-width=".5" d="M143.3789 317.08984l1.2422 6.91797"/></g><g clip-path="url(#W)"><path fill="none" stroke="#000" stroke-linecap="round" stroke-linejoin="round" stroke-miterlimit="10" stroke-width=".5" d="M143.3789 317.08984l1.9297-1.51562"/></g><g clip-path="url(#X)"><path fill="none" stroke="#000" stroke-linecap="round" stroke-linejoin="round" stroke-miterlimit="10" stroke-width=".5" d="M143.5625 318.09766l.96484-.76172"/></g><path fill="none" stroke="#000" stroke-linecap="round" stroke-linejoin="round" stroke-miterlimit="10" stroke-width=".5" d="M156.90625 317.0586l.8164 6.98046m-.8164-6.98047l2.01953-1.39843m11.8789 1.3789l-.34765 7.01953m.29688-6l1.10937-.51953m11.05078-.34765l2.0625 6.71484m-1.76172-5.73828l.86328-.8711m15.14844.33985l-3.9336 5.82422m3.35938-4.97656l1.22266.1289m14.02344.79688l-6.64844 2.27343m5.6836-1.9414l.89452.83594m13.45313-.95313L220.5 321.47266m6.78125-1.84766l1.67969 1.78516m11.4961-2.1875l-6.50392 2.65234m6.50391-2.65234l1.88672 1.5703m10.69922-2.6914L248 322.9961m5.04297-4.89453l2.33594.7539m4.96093 2.03126l6.9922-.67969m-6.9922.67969l-1.35937-2.04297m15.03906 3.29297l6.26563-3.17969m-6.26563 3.17969l-2.00781-1.41016m2.91797.94922l-1.0039-.70703m14.0039 2.01172l5.07422-4.86328m-5.07422 4.86328l-2.33203-.76953m3.0703.0625l-1.16405-.38672m13.86718 1.21875l4.82032-5.11328m-4.82032 5.11328l-2.36718-.65235m16.48437 1.21875l3.21484-6.25m-2.74609 5.33985l-1.22656.01953m12.19531-2.6836l6.96875.90235m-6.96875-.90234l-.86328-2.29688m14.28516 1.78125l6.7578 1.92969m-6.7578-1.92969l-.51172-2.39844m13.82812 2.39844l6.7539 1.92969m-6.7539-1.92969l-.51562-2.39844m1.4961 2.6797l-.25392-1.19923M366.9336 319.75l6.84375 1.59766M366.9336 319.75l-.6289-2.3711m1.625 2.60157l-.3164-1.1836m16.20312-1.7578l-.28907 7.01952m.2461-6l1.10547-.53125m8.60937 3.34375l6.9961-.64453m-6.9961.64453l-1.34766-2.05078m14.75782 2.60938l6.80468-1.76172m-6.80468 1.76172l-1.65625-1.8086m2.64843 1.55079l-.82812-.90235m15.6289-3.11328l1.84766 6.78125m-1.84765-6.78125l1.78906-1.67969m11.76562 1.625l1.3711 6.89063m-1.3711-6.89063l1.90235-1.55078m14.97656 2.98438l-5.75781 4.02734m12.67968-1.98438l7.02735-.05859m-6.0039.05078l-.58595-1.07812"/><path fill="#00f" fill-rule="evenodd" d="M272.83984 472.08594h8.6211V461.9414h-8.6211v10.14453"/><path fill="azure" fill-rule="evenodd" d="M274.67578 463.77344h.83203v2.82422h3.28516v-2.82422h.83594v6.48047h-.83594v-2.91797h-3.28516v2.91797h-.83203v-6.48047"/><path fill="#ff3030" fill-rule="evenodd" d="M366.74219 463.21094h7.6914V453.0625h-7.6914v10.14844"/><path fill="azure" fill-rule="evenodd" d="M368.57422 454.89844h.83203v5.73828h3.19531v.74219h-4.02734v-6.48047"/><path fill="#00f" fill-rule="evenodd" d="M383.80078 436.57813h8.61719v-10.14454h-8.61719v10.14454"/><path fill="azure" fill-rule="evenodd" d="M385.63281 428.26563h.83203v2.82421h3.28907v-2.82421h.83203v6.48046h-.83203v-2.91406h-3.28907v2.91406h-.83203v-6.48046"/><path fill="#00f" fill-rule="evenodd" d="M224.01953 418.82813h8.61719v-10.14844h-8.61719v10.14844"/><path fill="azure" fill-rule="evenodd" d="M225.85156 410.51172h.83594v2.82422h3.28516v-2.82422h.83203v6.48047h-.83203v-2.91406h-3.28516v2.91406h-.83594v-6.48047"/><path fill="#ff3030" fill-rule="evenodd" d="M193.64453 343.375h7.69531v-10.14844h-7.6953V343.375"/><path fill="azure" fill-rule="evenodd" d="M195.47656 335.0625h.83594v5.73828h3.1914v.74219h-4.02734v-6.48047"/><path fill="#00f" fill-rule="evenodd" d="M370.48438 330.0586h8.62109v-10.14454h-8.6211v10.14453"/><path fill="azure" fill-rule="evenodd" d="M372.3164 321.7461h.83594v2.82421h3.28516v-2.82422h.83203v6.48047h-.83203v-2.91797h-3.28516v2.91797h-.83593v-6.48047"/><path fill="#ffffe0" fill-rule="evenodd" d="M266.29297 354.7461h22.17969v-10.19141h-22.1797v10.1914"/><path fill-rule="evenodd" d="M269.79297 346.38672h.50781v6.29297h-.78906v-4.48828H268.125v-.5547l.5586-.0664.2539-.05469.23047-.08984.20312-.14062.17188-.21094.14062-.29297.10938-.39453m4.8125 0l.23047.01953.21875.05469.20703.08984.19531.1211.1836.14843.17187.17578.30078.41797.2461.4961.17968.54687.10938.57813.03906.58984-.03906.59375-.10938.58594-.17969.55078-.24609.5039-.30078.4297-.17188.17968-.18359.15234-.19531.1211-.20703.09375-.21875.05469-.23047.01953-.23047-.01954-.21875-.05468-.20703-.09375-.19531-.1211-.1875-.15234-.16797-.17969-.30469-.42969-.24219-.5039-.17969-.55078-.11328-.58594-.03515-.59375h.83203l.02734.5625.08203.50781.12891.4414.16016.375.1914.30079.21094.22266.22266.13671.22656.04688.22656-.04688.22266-.13671.21094-.22266.1914-.30078.16016-.375.125-.4414.08203-.50782.03125-.5625-.03125-.5586-.08203-.5039-.125-.4336-.16016-.36718-.1914-.29297-.21094-.21094-.22266-.13281-.22656-.04297-.22656.04297-.22266.13281-.21094.21094-.1914.29297-.16016.36719-.1289.43359-.08204.5039-.02734.5586h-.83203l.03515-.58984.11329-.57813.17968-.54687.24219-.4961.30469-.41797.16797-.17578.1875-.14844.1953-.12109.20704-.08984.21875-.05469.23047-.01953m5.08984 0h.51172v6.29297h-.78906v-4.48828h-1.38672v-.5547l.5586-.0664.2539-.05469.22656-.08984.20313-.14062.17578-.21094.14062-.29297.10547-.39453m2.82422 2.17578h.78906l.01954-.3164.05859-.28907.09765-.25.14063-.21484.17969-.17578.22265-.12891.26563-.07813.3086-.02734.23827.01953.22266.0625.20703.10156.17969.13672.14844.17579.11328.20312.07031.23828.02344.26563-.01953.26562-.06641.22656-.10938.19141-.15625.17188-.19921.16015-.25.16797-.63282.38672-.53906.3164-.4375.31641-.34375.32422-.26562.33594-.1875.35156-.12891.36719-.0664.39453-.01954.41797h4.21094v-.73828h-3.33203l.08203-.28516.11328-.23828.14844-.19922.1875-.17969.23047-.17187.27734-.17578.71875-.41797.41406-.20313.34766-.23437.28125-.25.21875-.26563.16406-.27734.10938-.28516.0625-.28515.02344-.28125-.04297-.38282-.1211-.34765-.1875-.3086-.25-.26171-.30469-.21485-.34375-.15625-.3828-.10156-.40626-.03125-.4336.03125-.39843.09765-.35547.16797-.30469.23438-.24609.30469-.1875.375-.11719.4453-.03906.51954"/><path fill="#ffffe0" fill-rule="evenodd" d="M315.11328 337.35156h22.17969v-10.1914h-22.17969v10.1914"/><path fill-rule="evenodd" d="M318.61328 328.9961h.50781v6.29296h-.78515v-4.48828h-1.39063v-.5586l.5625-.0625.25-.05468.23047-.08984.20313-.14063.17578-.21094.14062-.29296.10547-.39454m4.8125 0l.23047.01563.21875.0586.20703.08984.19922.11718.1836.15235.17187.17578.30078.41797.24219.49219.17969.54687.11328.58203.03515.58985-.03515.59375-.11329.58203-.17968.55468-.24219.50391-.30078.42578-.17188.17969-.18359.15234-.19922.125-.20703.09375-.21875.05469-.23047.01953-.22656-.01953-.21875-.05469-.21094-.09375-.19531-.125-.1836-.15234-.17187-.17969-.30078-.42578-.2461-.5039-.17968-.5547-.10938-.58202-.03906-.59375h.83203l.03125.5625.08203.5078.125.44141.16406.375.1875.30079.21094.21875.22266.14062.22656.04688.22656-.04688.22266-.14063.21094-.21875.1914-.30078.16407-.375.125-.4414.08203-.50781.02734-.5625-.02734-.5625-.08203-.5-.125-.4336-.16407-.36719-.1914-.29296-.21094-.21485-.22266-.1289-.22656-.04688-.22656.04688-.22266.1289-.21094.21485-.1875.29296-.16406.3672-.125.43358-.08203.5-.03125.5625h-.83203l.03906-.58984.10938-.58203.17969-.54688.24609-.49218.30078-.41797.17188-.17578.18359-.15235.19531-.11718.21094-.08985.21875-.0586.22656-.01562m5.09375 0h.50781v6.29297h-.78515v-4.48828h-1.39063v-.5586l.5586-.0625.2539-.05468.23047-.08984.20313-.14063.17187-.21094.14453-.29296.10547-.39454m2.82031 2.17188h.78907l.01953-.3125.0586-.28906.10155-.25.13672-.21875.1836-.17188.22265-.1289.26563-.08204.3086-.02734.23827.02344.22266.0625.20312.10156.1797.13672.14843.17578.11328.20313.07031.23828.02735.26171-.02344.26954-.0664.22656-.10938.1914-.15625.17188-.19922.16016-.2461.16796-.63671.38672-.53516.3125-.4375.31641-.34766.32813-.26171.33593-.19141.34766-.125.3711-.07031.39452-.01954.41797h4.21094v-.74219h-3.33203l.08203-.28125.11328-.23828.14844-.20312.1875-.17969.23047-.17187.28125-.17579.71484-.41406.41797-.20703.34375-.23047.28125-.25.21875-.26953.16406-.27734.11329-.28125.0625-.28516.01953-.28125-.04297-.38281-.11719-.35156-.1914-.3047-.25-.26562-.30079-.21093-.34765-.16016-.3789-.09766-.40626-.03125-.4375.03125-.39844.09766-.35156.16797-.30469.23437-.25.3047-.1875.37108-.11328.44922-.04297.51563"/></g></defs><use xlink:href="#Y"/></svg>