<svg xmlns="http://www.w3.org/2000/svg" role="img" xmlns:xlink="http://www.w3.org/1999/xlink" viewBox="142.45 309.95 326.84 171.84"><defs><clipPath id="a"><path d="M144 311.67188h1v168.65625h-1zm0 0"/></clipPath><clipPath id="b"><path d="M144 311.67188h324v168.65625H144zm0 0"/></clipPath><clipPath id="c"><path d="M467 311.67188h1v168.65625h-1zm0 0"/></clipPath><clipPath id="d"><path d="M144 477h3v3.32813h-3zm0 0"/></clipPath><clipPath id="e"><path d="M155 477h5v3.32813h-5zm0 0"/></clipPath><clipPath id="f"><path d="M168 476h5v4.32813h-5zm0 0"/></clipPath><clipPath id="g"><path d="M181 477h5v3.32813h-5zm0 0"/></clipPath><clipPath id="h"><path d="M195 477h5v3.32813h-5zm0 0"/></clipPath><clipPath id="i"><path d="M209 476h4v4.32813h-4zm0 0"/></clipPath><clipPath id="j"><path d="M221 477h6v3.32813h-6zm0 0"/></clipPath><clipPath id="k"><path d="M234 477h7v3.32813h-7zm0 0"/></clipPath><clipPath id="l"><path d="M247 477h7v3.32813h-7zm0 0"/></clipPath><clipPath id="m"><path d="M260 478h7v2.32813h-7zm0 0"/></clipPath><clipPath id="n"><path d="M274 478h7v2.32813h-7zm0 0"/></clipPath><clipPath id="o"><path d="M287 478h7v2.32813h-7zm0 0"/></clipPath><clipPath id="p"><path d="M300 478h7v2.32813h-7zm0 0"/></clipPath><clipPath id="q"><path d="M313 478h8v2.32813h-8zm0 0"/></clipPath><clipPath id="r"><path d="M327 477h7v3.32813h-7zm0 0"/></clipPath><clipPath id="s"><path d="M340 478h8v2.32813h-8zm0 0"/></clipPath><clipPath id="t"><path d="M355 476h4v4.32813h-4zm0 0"/></clipPath><clipPath id="u"><path d="M370 476h1v4.32813h-1zm0 0"/></clipPath><clipPath id="v"><path d="M381 476h5v4.32813h-5zm0 0"/></clipPath><clipPath id="w"><path d="M393 478h8v2.32813h-8zm0 0"/></clipPath><clipPath id="x"><path d="M406 478h8v2.32813h-8zm0 0"/></clipPath><clipPath id="y"><path d="M419 479h9v1.32813h-9zm0 0"/></clipPath><clipPath id="z"><path d="M420 478h2v2.32813h-2zm0 0"/></clipPath><clipPath id="A"><path d="M433 479h8v1.32813h-8zm0 0"/></clipPath><clipPath id="B"><path d="M433 479h2v1.32813h-2zm0 0"/></clipPath><clipPath id="C"><path d="M446 478h8v2.32813h-8zm0 0"/></clipPath><clipPath id="D"><path d="M446 479h3v1.32813h-3zm0 0"/></clipPath><clipPath id="E"><path d="M459 479h9v1.32813h-9zm0 0"/></clipPath><clipPath id="F"><path d="M460 479h2v1.32813h-2zm0 0"/></clipPath><clipPath id="G"><path d="M144 463h2v8h-2zm0 0"/></clipPath><clipPath id="H"><path d="M144 469h2v2h-2zm0 0"/></clipPath><clipPath id="I"><path d="M144 449h1v9h-1zm0 0"/></clipPath><clipPath id="J"><path d="M144 455h1v2h-1zm0 0"/></clipPath><clipPath id="K"><path d="M144 439h4v3h-4zm0 0"/></clipPath><clipPath id="L"><path d="M144 423h2v8h-2zm0 0"/></clipPath><clipPath id="M"><path d="M144 411h4v5h-4zm0 0"/></clipPath><clipPath id="N"><path d="M144 399h4v3h-4zm0 0"/></clipPath><clipPath id="O"><path d="M144 384h4v6h-4zm0 0"/></clipPath><clipPath id="P"><path d="M144 372h4v3h-4zm0 0"/></clipPath><clipPath id="Q"><path d="M144 358h3v5h-3zm0 0"/></clipPath><clipPath id="R"><path d="M144 344h3v6h-3zm0 0"/></clipPath><clipPath id="S"><path d="M144 330h2v8h-2zm0 0"/></clipPath><clipPath id="T"><path d="M144 316h1v9h-1zm0 0"/></clipPath><clipPath id="U"><path d="M144 315h2v3h-2zm0 0"/></clipPath><clipPath id="V"><path d="M144 317h1v2h-1zm0 0"/></clipPath><g id="W" clip-path="url(#clip1)"><path fill="#fff" fill-opacity="0" fill-rule="evenodd" d="M0 0h1000v1000H0zm0 0"/><path fill="#d3d3d3" fill-opacity="0" fill-rule="evenodd" d="M162.15234 355.86719l-.23437.29297.0586.23437.11718.17188.17578.23437.29297.34766.11328.0586.11719-.17188.0586-.23438.17577-.17578.46485-.17578h.69922l.23437.29297.28906.8164.0586.17579.17578.23046.35156.23438.69922.69922.17188.17578.23437.34765.23438.41016.28906.58203.41015.46485.23047.23437.23438.17578.11719.23047.17578.29297.17187 1.16406v.23438l.0586.28906.05859.11719.11719.11719.34765.41015.11719.17188.17578.17578.17578.23437.11719.17188.17188.35156.05859.23438.23437.40625.23438-.0586-.17578.17578-.0586.92969h-.58203l-.23437-.11328-.34766.11328-.11719.11719-.05859.29297-.0586.17578-.11718.17187-.46484.29297-.0586.23438-.0586.11328v.64453l.0586.17187v.41016l.0586.0586v.40624l.05859.40625.11719.17579.05859.05859.23047.64062-.0586.29297v.69922l-.05859.58203v.23438l-.0586.23047-.05468.35156v1.92187l.05469.1172h.42578l-.36719.11718-.02344.35156.89063 1.16797 1.74219.53906 1.33984.35938v.53906l.08984.8086.53516.71484 1.51953.26953.89063-.08594.08984 1.16406.53516.1797 1.16015-.1797 2.05469-.98437 1.16016-.36328 1.8789-.17578 1.69531-.1797-.17968.71876-1.51563.08594-1.25.08984-.80469.26953-1.07421.8086.26953.71875.53515.89843-.17968.625-.26563.8086.26563 1.07812.625.89844.80468.17969 1.25-.1797-.26562.72267.09766.5039.05468.29297v.17188l.0586.29296v.40625l.17578.1172.35156.11718h.40625l.29297-.17578.11328-.11719.0586-.11719.11718-.23047.0586-.17578.35156-.46484.23047-.17578.17578-.0586.17578.0586.0586.17578.11718.98828.05469.46875.0586.17188.11718.23437.17578.0586.8164.05859h.28907l.11719.23437.05859.40625.0586.35156v1.10547l.11718.29297.11719.34766.28906.69922.17578.35156.58203.7539.35157.17579.17187.0586.46875.23437.64063.46484.34765.23438.29297.17578.29297.05468.23047.0625.8164.34766.29297.17578.11328.17188.35157.35156.11719.17578.52343.64063v.28906l.0586.35156v.34766l.05859.35156.0586.28906.11718.0586.17188.05859h.17578l.58203.23437.17578.1172.17578.28905.17578.23438.11328.23437.29297.23047.11719.11719v.41016l.0586.05468.28906.23438.23437.11719.0586.11718.11718.17188.0586.11719.23047.23437.05859.17578.23437.0586.1172.05859-.1172.11328-.05859.11719v.11719l-.11719.29296-.11719.28907v.58203l.17579.11719.11718.05859.0586.11719.11719.11719.11328.05859.17578.34765.0586.35157.05858.40625v.17578l-.05859.17578-.11719.69922v.17187l.1172.17579.29296.29296h.40625l.17578.1172.11719.17187.11719.29296v.23438h-.52735l-.23047-.23438h-.23437l-.17578.0586-.0586.69922.0586.34765.11719.17579.17578.41015.11718.23047.28907.46875.17578.05469h.52344l.23437.0586.75781.64062.0586.29296v.23438l.05859.0586.23047.34765v.35156l-.11719.17188v.29297l.29297.28906.29297.17578.17187.0586.29297.17577.29297.1172.58203.40624.28906.23438.29297.17578.21875.16015.01563.01172.23047.17579.64062.52343.17578.23438.1172.17578.17577.17578.11328.17188v.64062l.1172.17578.46874.11719.58203.11719.23438.05859.23047.11328.29297.11719.11328.0586.58593.35156.28907.17187.17578.0625.17578.05469.17578.0586.69922.35155.28906.17579.23438.05468.28906.17578.23437.1172.64063.40624.29297.11719.17187.0586.23438.05859.41015.05859.23047.0586.23438.11718.0586.17188-.41017.17578.46875.0586.0586.29296.11328.23438.17578.05468.23438.0586.17578.05859.40625.11719.64062.23437.11719.17188.0586.23437v.17578l-.0586.1172-.0586.40624.23438.23438.11719.05859.34766.11719.64062.23047.17578.11718.28906.1172.17578.17577.23438.46485.58203 1.10546.17578.17579.34766.17578.17578.11719.35156.11718 1.04688.52344.23437.0586.46485.11327.29297.0586.46484.17578.75781.58203.23438.23438.34765.46484.17578.17578.28907.23438.8164.69921.29297.17579.28906.28906.29297.17578.29297.28906.69531.64063.17578.17578.29297.23437.28907.23438.46875.28906.64062.58203.34766.23438.23437.29297.34766.34765.35156.46485.9336.99218.34765.40625.11719.17579.23437.05859.11328.11719.64454.17578.23047.11328.23437.0586.29297.17577.23047.1172.9336.69921.40624.40625.23438.17578.40625.17578.23437.11719.8164.34766.34766.23437.23438.11719.29297.28906.23047.11719.7578.35156.35157.17188.23047.05859.29297.11719.23437.0586.8711.17577h.8164l.46875.23047.17188.0586.875.69921.46484.1172.29297.05858.17578.0586.23047.0586.46875.05859.34766.05859.35156.0586.40625.05859h.29297l.17187.0586v.23046l.17578.17578h.29297l.34766.0586.35156.05859.69922.11719h.64063l.46484-.23438.29297-.17578.17187-.11719.41016-.17187.28906-.17578.9336-.46485.46875-.29297.52343-.29296.46485-.17188.46484-.17578 1.05078-.46485.28906-.11718.41016-.11719.28906-.11719.52735-.17578 1.51562-.69922.58203-.34765.28907-.0586.29297-.0586.34765-.11718.875-.23047.35156-.11719h.11329l.23437-.05859.875-.23437.23438-.0586h.8125l.35156-.0586.8164-.11718.17188-.0586.35156-.05468.29297-.0586.23047-.05859.8164-.17578.17579-.0586h.34765l.23438-.05859.46484-.11718.75781-.17188.23438-.0586h.34765l.41016-.11718.28906-.0586 1.28516-.05859h.28906l.41016-.0586.23047-.05858h.17578l.875-.1172h.40625l.41015-.11718h.34766l.35156-.11328.8711-.0586h1.75l1.04687.28907.41016.11719.28906.11718.35156.11719.28907.11719 1.05078.17187.28906.0586h.29297l.29297.05859.17187.0586.41016.05859.17187.0586.1172.05858h.11718l.11719.0586.35156.0586h.11328l.41016.0664 1.92187.39453 1.92578.39453 1.51953.44922 1.69532.71875 2.14453.80469 1.60547-.71875 1.42968-.80469 1.16016-1.07813 1.25-.44921 3.03516-.71875 1.875-.35938 2.14453-1.34765 2.23437-1.25391 2.5-1.25781 1.69531-.44922 1.78516-.17969 1.16016-.26953.625.53906 1.33984-.26953.71485-.98828.98437-1.34375.44531-.17969.80469-.35937 1.875-.53907 1.78516-.44921 1.25-.26954 1.16015-.08984 1.69922-.08984 1.96094-.26954 1.25-.08984h.53906l.625-.08984h.89063l2.14453-.17969 2.41015-.17969 2.58985-.08984 1.69531.17969 1.60938.08984 1.42968.35938 1.16016.71875 1.875.98828 1.16015 1.52734.26563.71484.6289.08985.35548.89844.53515.53906.53516 1.52734 1.07422.35938h.53515l-.80469.53515.08985 1.70703.71484 2.69532.89063.80468.89453.98829.71484 1.2578 1.78516.53907 1.51953-.17969.35547 1.34375 1.60937-.80469.98047-.53906.26953.26953.31641-.21484.21875-.14453.80078.44922.44922-.35938h.35547l.53515-.26953.53907-.71875.53515-.26953.625-.98828 1.16016.44922.83984.3711 1.39454.61718 1.6953-.17969h1.60548l1.78515.08985.17969-1.70704.53516-1.34375.80468.26954.4922.84765.40233.40625-.08984.53906v.35938l.71485.44922.71093-.26953h1.42969l.35938.98828.4453 1.25781.71485 1.34375 1.25.6289 1.69531.62891.71485-.17969.17969-.53906.98046-.08984.44922.35937.08594 1.25782-.26563.6289-.53515.17969v.53906l.71484.98438.26563.53906.98437.98828.80078 1.07813-.26562.35937-.08985.89844-.625 2.33203-.35546 2.0664-.08985 1.79298-.17969.71875-.08984.53906v1.4375l-.98047 1.88281-.35937 1.70703-.53516.89844-.80469 1.16797-.26562.53906 2.05469 1.2539.08593.35938-.35546.53906-.08985-.17968v.80859l.08985 1.4375-.44532.71484-1.07422.09375-.26562.71485.53515.89844.8047.71875 1.16015.80859 1.33984.26953.44531.35938-.35546.44921-1.78907-.08984-1.25-.44922-.71484-.71875-.625-.08984-.17578 3.58984-.1875 1.3086h89.35937V311.70313h-55.26953v49.08203l.76172.125 3.28906.54296 2.02344 2.83594v2.7539l2.35156.33204 2.34766.33203h4.05078l-1.3789 4.16016-2.02344.70703-2.02344.70312-.54297.34375-2.59375 1.6172-.1875.11718-2.02344-2.07813-.73046-2.74218-2.67188-2.07813-1.375-3.5-.0664-.08203-1.95704-2.67188 2.75-1.41796v-49.08204H294.42187v91.41407l.1172.03125.1328.01172.07422.07421.10547.04688.08985.0586.08593.05859.08985.0586.29687.29687.0586.08984.03125.11719.02734.11719.01563.13671-.03125.1172-.0586.08983-.0586.08594-.04296.10547-.04688.10156-.02734.1211v.14453l.17578.26953.14844.14844.07422.08594.07422.07421.04296.10547.0625.08985.0586.08593.04297.10547.0586.08985.04687.10156.04296.10547.0586.08594.11719.17968.07421.07422.0625.08594.0586.08984.04297.10547.0586.08985.05858.08593.0625.08985.0586.08984.04297.10156.11719.17969.07421.07422.0586.08594.07422.07421.08984.0586.10547.04687h.14844l.1328-.01562.13282.01562.10156-.04687.07422-.07422.04688-.10156-.01563-.13281v-.14844l-.04687-.10547-.02735-.11719-.04687-.10156-.02735-.1211-.04296-.10156-.0625-.08984-.04297-.10156-.04297-.10547-.03125-.11719-.01563-.13281-.01171-.13672.08593-.0586.0586-.08593.12109-.03125.04297.10547.01562.1328v.1172l.0586.10156.0586.08984.08983.0586.14844.14843.0586.08985.04296.10547-.01171.10156.08593.0586.10547.04687.08594.0586.08984.05858.07422.07422-.11719.02735-.10546.04687-.08594.0586-.07422.07421-.0586.08985-.0625.08594-.02734.12109-.04687.10156-.04297.10547-.03125.11719-.01172.13281-.01563.13281v.14844l.02735.11719.04687.10547.04297.10156.0586.08984.07421.07422.08985.0586.07422.07421.08984.0586.0586.08984.04296.10547.04688.10156.11719.03125.1328.01563h.14845l.11718-.03125.10547.04297.04297.10547.04688.10156.02734.1211L299.5 410l.02734.11719.03125.1211.02735.11718.10547.04297.10156.04687.13281-.01562.14844.14844.0625.08593.07422.07422.07031.07422.08984.0625.10547.04297.10156.04297.1172.03125.13671.01562.11719-.03125.07422-.07422.02734-.11718-.01172-.13282-.03125-.12109-.02734-.11719.04297-.10547h.11719l.08984.0625.11719.02735h.14843l.13282.01562h.14843l.13282.01563.1328-.01563h.14845l.1328-.01562.13282-.01172.13672.01172.11719-.02735.13281-.01562.1914-.0586-.05859.17579-.01562.1328-.02735.1211-.01562.13281-.0586.08594-.1328.01563-.10548.04687-.10546.04297-.1172.03125-.11718.02735-.26563.03125h-.14843l-.13281.01562-.07422.07422.05859.08594.14844.14843.11719.1797.07421.0703.08985.0625.08984.0586.08594.0586.08984.05858.10156.04297.10547.0625.10547.04297.08594.0586.10547.04687.10156.04297.17969.11719.0586.08984-.04298.10156-.04687.10547.01562.13281.22266.22266.0586.08985.04296.10156.03125.1211.04297.10155.01563.13282.03125.11718.01171.13672.03125.11719.14844.14844.10156.04297.10547.04296.1172.03125.1328.01563.13672.01563h.11719l.11719-.03125.08984-.0586.04297-.10547.04688-.10156.04296-.10547.03125-.11719.01172-.1328v-.14845l-.01172-.1328-.01562-.13282-.03125-.11719-.04297-.10547-.04688-.10547-.04296-.10156-.04297-.10547-.01563-.13281.01563-.13281.02734-.11719.03125-.11719.02735-.1211.04687-.10155.08984-.0586.08594-.0625.07422-.07422.08984-.05859.22266-.22266.0586-.08593.07421-.07422.11719-.17969.0586-.08594v-.14844l-.07423-.07421-.10156-.04688-.10547-.04297-.10156-.04297-.0586-.08984-.04687-.10547-.02734-.11719.08984-.05859.11719-.03125.10156-.04297.17969-.11719.14844-.14843.01172-.13282-.01172-.10546-.08985-.0586-.1328.01563h-.14845l-.1328.01562-.13282-.01562-.1211-.03125-.08593-.0586-.07422-.07422-.0586-.08984-.0625-.08594-.11718-.17969-.0586-.08593.03125-.1211.08594-.05859.1211-.03125.05859-.08594v-.1211l-.03125-.11718-.0586-.08984-.05859-.08594-.04687-.10547-.02735-.11719-.01562-.1328.0586-.08985.07421-.07422.08984-.0586.1172-.17968.07421-.07422.0586-.08594.14843-.14844.1211-.03125.1328-.01562.13282.01562.07422.07422.04297.10547.01562.13281-.03125.1172-.11719.03124-.1328.01172-.14844.14844-.04297.10547-.04688.10156-.02734.1211-.03125.11718v.14844l.03125.11719.04297.10546.05859.08985.07422.07031.07422.07422.11719.03125.12109.02734.11719-.02734.1328-.01563h.1172l.08984.0586.07422.07422.04687.10546.0586.08594.10156.04688.13281.01562.10547.04297.08594.0586-.01172.10546-.07422.07422-.17969.11719-.05859.08984-.08984.0586-.07032.07422-.07421.07421-.0625.08985-.02735.11719-.01562.1328.01562.13282-.01562.13281v.14844l.01562.13281.02735.1172.03125.12108.07421.07422.08985.0586.08594.0586.08984.05858.11719.03125v.08594l-.10157.04688-.08984.0586-.26563.03124-.11718.02735h-.14844l-.10547.04296-.10156.04688-.0586.08984-.0625.23438-.01171.13281-.03125.1211-.01563.1328v.29298l-.01172.1328.01172.13673.01563.1328.1328.01563.13282.01172.1211.03125.08593.0586.07422.07421.04688.10547.04296.10157.01563.1328v.44532l-.01563.13281v.44532l.03125.26562.02735.11719.01562.13281.03125.11719.08594.21094.03125.26562v.14844l-.03125.11719-.02734.11718-.03125.1211-.02735.11719-.03125.11718-.03125.1211-.01171.1328-.01563.13282.08984.0586.1172-.03125.10155.01562.04688.10547-.03125.26562v.44141l-.04297.10547-.04688.10547-.04296.10156-.04297.10547-.0586.08594-.03125.12109-.04296.11719-.03125.11719-.01563.1328.01563.13282.05859.08984.10547.04688.08594.0586.05859.08593-.01172.13672-.03125.11719-.04297.10156v.44531l-.01562.13281v.14844l-.03125.11719-.04297.10547-.02735.11719-.04687.10546-.04297.10157-.03125.12109-.02734.11719-.03125.13281-.03125.11719-.02735.11719-.04297.10546-.03125.1172-.03125.12108-.01171.13282-.01563.13281v.29688l.02734.11718v.14844l.04688.39844.02734.11719.0586.08984.12109.03125h.14844l.13281-.01563.0586.08985v.11719l-.0586.08984-.08984.0586-.10157.04296-.10546.04688-.08985.05859-.08594.0586-.13671.01562-.1172-.03125-.1328-.01563-.10157.04688-.0625.08594-.01172.13671-.01562.13282-.03125.11719-.02735.11718-.01562.13281-.03125.1211v.29687l.01563.13282.03125.11718v.14844l.01171.13281v.14844l-.02734.11719-.04688.10156-.02734.1211-.03125.11718-.0586.08985-.07421.07421-.10156.04297-.10547.04688-.11719.02734-.1211.03125-.10156-.04687.0586-.08594.10547-.04688.02734-.11718.03125-.11719.02734-.1211.03125-.11718v-.14844l.01563-.13281-.03125-.11719-.04297-.10547-.10547.01563-.07422.07422-.10156.04296-.08984.0625-.07422.07422-.04297.10157-.01563.1328-.03125.1172L304.25 426l-.03125.11719-.02734.11719-.03125.12109-.02735.11719-.03125.11718-.04297.10547-.08984.0586h-.08984l-.1172-.03125-.03124-.08594.01562-.13672-.03125-.11719v-.14844l-.01171-.1328v-.14844l-.0625-.23438-.02735-.1211-.04297-.10156-.04687-.10546-.0586-.08594-.05859-.08985-.04297-.10546-.0625-.08594-.14844-.14844-.0703-.07422-.10548-.04687-.10547-.04297-.10156-.04297-.29687-.29688-.08985-.07421-.08594-.0586-.10546-.04297-.08985-.0625-.08594-.0586-.10546-.04296-.08985-.0586-.08594-.0625-.07421-.0703-.10547-.04688-.08594-.0586-.10547-.04296-.08984-.0625-.10156-.04297-.10547-.04297-.08594-.0586-.10547-.04687-.10547-.04297-.10156-.04687-.08985-.0586-.10156-.04297-.10547-.04296-.08984-.0625-.11719-.02735-.13281-.01562-.13281.01562H299.75l-.13281.01563-.11719-.03125-.08984-.0586-.07422-.07422-.08985-.05859-.10156-.04688h-.14844l-.12109-.02734-.10156-.04297-.07422-.07422-.11719-.17968-.08984-.0586-.10156-.04297-.08985-.0625-.10547-.04296-.08984-.0586-.08594-.0586-.10547-.04687-.0586-.08594-.05858-.08984-.04297-.10547-.04688-.10156-.07422-.07422-.08594-.0586-.07421-.07421-.08985-.0586-.22265-.22265-.04297-.10547-.03125-.26563.10547-.04296h.14453l.10547.04296.07421.07422.08985.0586.08594.0586.10546.04687.08985.05859.14844.14844.0703.07422.14845.14843.0625.08594.07421.07422.08594.0586.07422.07421.08985.0625.08984.0586.08594.05859.26953.17578.10156.04688.10547.04296.10156.04297.04688-.07421.05859-.08594.07422-.07422.07031-.07422.10547.04297.07422.07422.0586.08984.04296.10156.04688.10547.04296.10547.1211.02735.11719-.02735.07421-.08984.04297-.10547.0586-.08985.07422-.07421.10546-.04297.1172-.02735.1328.01172.08985.0586.14844.14843.05859.08985.04297.10547.04687.10156.04297.10547.04297.10156.10547.04688.10547.04296.13281.01563.08594-.0586.0586-.08984.07421-.07422.10547-.04297.11719.02735.10547.04687.10156.04297.10547.04297.10156.04688.17969.11718v.11719l-.01563.13281.01563.13281.01562.13672.0586.08594.10156.04688.1211.02734.11718.03125h.14844l.11719-.03125.05859-.08984.17969-.1172.05859-.08983.07422-.07422.0586-.08594.11718-.17969.17969-.11719.11719.03125.08984.0586.04297.07422-.01563.1328v.1172l.08985.05859h.14843l.13282-.01563.1328-.01171.26563-.03125.10547-.04297.11719-.03125.1211-.02735.07421-.07421.07031-.07422.0625-.08985-.01562-.10547-.04688-.10156-.10156-.04297-.10547-.01562-.11718.02734-.26563.03125h-.14844l-.07421-.07422-.08985-.0586-.11719-.03124-.11718-.02735-.13282-.01562h-.14843l-.13282.01563h-.29687l-.10547-.04688-.14844-.14844-.04297-.10156-.05859-.08984.22266-.22266.08593-.0586.10547-.04296.11719-.03125.13281-.01563.13281.01563.13672.01562.10157.04297.1328-.01172.08985-.0625.10156-.04297.0625-.08984-.04687-.10156-.08984-.0586-.1172-.03125-.10155-.04296-.0586-.08985-.0625-.08984v-.11719l.01563-.13281.10547-.04688.07421-.07031v-.1211l-.08984-.05859-.03125-.11719.08985-.05859.07421-.07422.04297-.10547.0586-.08984.04687-.10156.01563-.13281v-.14844l-.04688-.10547-.04297-.10156-.08984-.0586-.13281-.01562-.10157-.04297-.13671-.01563-.1172-.03125h-.4453l-.13282-.01562-.13281-.01172-.13281-.01563-.11719-.03125h-.14844l-.13281-.01562-.13281-.01172-.26563-.03125-.1211-.04297-.08593-.0586-.07422-.07421v-.14844l.01172-.13281.10547-.04688.10156-.04296.13281-.01563h.15235l.13281-.01562h.29297l.1211.03125.10156.04296.08984.0586.23438.0625.12109-.04688.08984-.05859.10156-.04297.13282-.01562.10547.04296.10156.04688.13281.01172.1211-.02735h.14453l.12109-.03125.11719-.02734.10547-.04687.07421-.07422.08594-.0586.14844-.14843.0586-.08594.04687-.10547.02734-.11719.01563-.10547-.10156-.04296-.08985-.0586-.11719-.03125-.10546-.04297-.08985-.0625-.07422-.08594-.07422-.07421-.10156-.04297-.10547-.04688-.10156-.04297-.0586-.08984-.04687-.10156-.08594-.21094-.0625-.08594-.05859-.08984-.07422-.07422-.08594-.0586h-.26953l-.11719.03126-.08984.05859-.10156.04297-.13281.01562-.10547-.01562-.02735-.11719-.0625-.08984-.11718-.03125-.10157-.04297-.14843-.14844-.03125-.11719-.01563-.10546.07422-.07422.17969-.1172.11719-.02733.11718-.03125.13672.01562.10156.04297.10547.04297.10156.04687.10547.04297.1172.03125.1328.01563.1172.02734.1328.01563.10547-.01563.08985-.0586-.07422-.07421-.10547-.04297-.07422-.07422-.07422-.08984-.14844-.14844-.08593-.0586-.08985-.05859-.07422-.07422-.08984-.0586-.10156-.04687-.1211-.02734-.10156-.04688-.10547-.04296-.11719-.03125-.10156-.04297-.1211-.03125h-.14843l-.11719.03125-.10546.04297-.08594.0625-.17969.11718-.08594.0586-.08984.0586-.10547.04687-.08594.05859-.10547.04297-.10156.04297-.10547.04687-.07422.07422-.05859.08985-.0586.08593-.04687.10547-.0586.08594-.07421.07422-.13281-.01172-.1172-.03125h-.11718l-.07422.07422-.08984.0586-.07422.07421-.08984.0586-.08594.05859-.10547.04687-.10156.04297-.13672.01563-.10156-.04297-.14844-.14844-.10547-.04688h-.08594l-.10547.04688-.10156.04297-.1211.03125-.11718-.03125-.07422-.07422v-.11719l.03125-.1211.07422-.0703.0586-.08985.07421-.07422.11719-.03125.10547-.04296h.29297l.13281-.01563.13672-.01563.10156-.04296.08985-.0586.10156-.04687.08984-.0586.13281-.01171.08985.05859.13281.01172.08984-.0586.08594-.05859.10547-.04297.08984-.0586.08594-.0625.08985-.05859.14843-.14843.0586-.08594.05859-.08985.10547-.04296.13281-.01563.11719.02735.1211.03125.05859-.0586.05859-.08984.03125-.26563.02734-.11719.10547.01172.13281.01563.10157-.04297.08984-.0586.0586-.08984.07421-.07422.0586-.08984.04687-.10156.01172-.13281-.01172-.13282-.04687-.10547-.14844-.14843-.0586-.08985-.05859-.08594-.04297-.10546v-.44532l.01563-.1328v-.14845l.01172-.1328-.0586-.0586-.08984.0586-.10156-.04298-.17969-.11719-.08594-.05859-.0625-.08984-.0586-.08985-.07421-.07421-.08594-.0586-.1211.03125-.10155.01172-.10547.04688-.08594.05859-.10547.04297-.14844.14844-.08984.05859-.08594.0586-.08984.0625-.10547.04296-.13281.01563v-.1211l.10547-.04297.11718-.03125.07422-.0703.04297-.10548v-.14844l-.02734-.11718-.14844-.14844-.13281-.01563h-.14844l-.11719.03125-.10547.04297-.10156.04297-.08984.0625-.11719.02735-.07422-.07422.01172-.13281-.04297-.10157-.04297-.10547-.08984-.05859-.11719.02734-.1211.03125-.11718.03125-.10156.04297-.1211.03125-.10156.04297-.10547.04297-.08984.0586-.10156.01562v-.11719l.01562-.13281-.0586-.08985-.07421.04297-.14844.14844-.0586.08985-.07421.07421-.04688.10547-.04296.10156-.07422.07422-.0586.08985-.07422.07422-.05859.08593-.07422.07422-.08984.0625-.07422.07031-.07422.07422-.10156.01563-.13281.01562-.10547-.04296v-.1211l.14843-.14844.04297-.10156.0586-.08984.04687-.10156.04297-.10547.0586-.08985.03124-.11719.04297-.10156.03125-.1211.02735-.11718.04687-.10547.04297-.10156.04297-.10547.07422-.07031.08984-.0625.08985-.0586.10156-.04296h.29687l.26563-.03125.10547-.04297-.07422-.07422-.11719-.03125-.10547-.04297-.08984-.0586-.10156-.04687-.08985-.0586-.10156-.04296-.10547-.04297-.08984-.0625-.08594-.0586-.10547-.04296-.10156-.04297-.1211-.03125-.11718-.03125-.10157-.04297L297.5 410.25l-.10156-.04297-.08985-.0586-.04296-.10546-.01563-.13281.10156-.04297.13281-.01563.13672.01563.13282-.01563.10156-.04297.0586-.08984.01562-.10547-.08985-.0586-.07421-.07421-.10157-.04297-.08984-.0586-.14844-.14843-.04297-.10547-.01562-.13281v-.29297l-.0586-.08985-.08984-.05859-.07422-.07422-.04297-.10547-.03125-.11718-.0586-.08985-.07421-.07422-.11719-.02734-.07422-.07422-.08984-.0586-.08984-.0625-.08594-.05859-.07422-.07421-.0586-.08594-.04687-.10547-.08594-.0586-.14843-.14843-.19532-.0586-.1328.01563-.10157.04297-.07422.07422-.04688.10156-.04296.10547-.0586.08984-.0586.08594-.29687.29687-.08984.0586h-.08594l-.0625-.08594-.04297-.10547.03125-.11719.0586-.08984.02734-.11719-.01172-.13281-.08984-.0625-.10547.04688-.11719.02734-.11719.03125-.26953.17578-.10156.04688-.11719.02734-.10546.04687-.08985.0586-.10156.04297-.0586-.08594-.04687-.10547.01563-.13281.04687-.10547.07031-.07422.07422-.07031.0586-.08985v-.14843l-.04297-.10547h-.23829l-.10156.04687-.03125.11719-.02734.11719-.03125.1211-.07422.04296-.13281.01563-.07422-.04688-.04297-.10156-.04297-.10547-.04687-.10156-.04297-.10547-.1211.03125-.10156.04297-.13281.01562-.11719.03125-.10547.04297-.08984.0586-.10156.04687-.1211.02734-.13281.01563-.10156-.04297-.0586-.08985-.04687-.10546-.04297-.10157-.04297-.10546v-.1172l.0586-.08984.08593-.05859.17969-.11719.10156-.04687.10547-.04297.10547-.0586.10156-.04296.08985-.0625.10156-.04297.10547-.0586.10156-.04687.08984-.0586.10547-.04296.10156-.04297.08985-.0625.10156-.04297.13672-.01563.11719.03125.10156.04297.1211.03125.10156.04297.10546.04688.10157.04296.10547.04297.10156.04688.10547.04297.10156.04297.10547.04687.08594.0586.10546.04296.1172.03125.10546.04297.10156.04688.08985.0586.10547.04296.10156.04297.10547.04687.11719.02735.10156.04687.1211.02735h.14843l.08594-.0586.01562-.10156.0586-.08984-.02735-.1172-.07422-.07421-.11719-.17969-.07421-.07422-.08985-.07421-.17969-.1172-.08593-.05859-.10547-.04296-.10156-.04688-.26954-.17578-.05859-.08985-.07422-.07421-.0586-.08985-.04296-.10156-.03125-.11719-.01563-.13672v-.5625l-.01171-.1328-.01563-.13282-.03125-.11719-.01562-.13281-.01172-.13281-.03125-.1211-.22266-.22265-.0586-.08594-.01562-.10547.03125-.11719.13281-.01562v-91.41406H172.9922v1.45312l-.0586.23438-.35156 1.05078-.17187.52343-.1172.34766-.17577.41016-.11719.17187-.23438.29297-.23046.0586h-.35157l-.11718.05859-.23047.40625v.29297l.11719.17578.23046.23047.1172.23437.64062.75781.29297.46485.17578.23437.23047.35156.23437.34766.64063.8164.17578.46485.17187.41016.11719.69531.17578.46875.11719 1.39844.0586.46484v.875l.11718 1.04688v4.78125l-.0586.46484-.35156 1.28125-.17578.52344-.11328.41015-.35156.9297L172.93359 336l-.23437.58203-.11719.17578-.17187.34766-.17578.40625-.35157.8164-.0586.29297-.11327.29297-.11719.28906-.0586.17579-.11718.875-.0586.40625-.05859.11718-.0586.17579-.05859.17187-.23047.52734-.11718.17188v.23437l-.11719.23438-.0586.17187-.17577.58594v.28906l-.0586.17579v.29296l-.0586.11329-.05859.52734v.17187l-.05468.23438v2.6211l-.17578.8164-.1172.17578-.17577.23438-.1172.17187-.11327.23438-.58594.93359-.23047.28906-.29297.46485-.17578.23437-.28906.35156-.35156.69922-.11328.23047-.17579.41016-.17578.23046-.40625.52735-.8164.69922-.29297.17187-.28906.23438-.17579.11719-.17578.17578-.52344.40625-.52734.17578-.17187.17578-.23438.05469-.64062.17578h-.75782m12.21094 31.02344l-1.07422.44921.35938.89454 1.25-.71485.44531-.53906-.98047-.08985"/><path fill="#d3d3d3" fill-opacity="0" fill-rule="evenodd" d="M201.50781 416.59766h-.89453l.44922.6289.98047.35938.80469-.08985.4453-.98828-.17577.08985-.71485-.35547-.89453.35547m154.6211 59.0703l-.0586-.52343v-.29297l.11328-.29297.0586-.23046.46875-.46875h.11328l.11719-.11329.11718-.05859h.17579l.23437-.0586h.34766l.23437.0586.11719.0586.23047.17187.0586.17578.11718.58203v.29297l-.11719.17578-.17187.28906-.17579.17579-.52734.52343-.23047.23438-.11719.0586h-.17578l-.11718-.0586-.40625-.29297-.17579-.11719-.11718-.0586-.0586-.11327-.05468-.1172m6.64062-10.95702l-.0586-.17188v-1.10937l.0586-.17188.17578-.0586.17188-.05858h.17578l.23437-.0586.1172.0586.05858.69921-.05859.17188-.11719.17578-.11718.0586-.23438.52343-.11328.0586h-.23438l-.05859-.1172m9.61328-14.39062l-.11719-.17578v-.69922l.29297-.875.1172-.17187.17577-.35156.11328-.23047.1172-.29297.35155-.75781.1172-.23047.17187-.23438h.17578l.11719-.0586h.64062l.11719.0586.23437.23438.17188.11328.35156.29297.11719.11718.11328.17579v.11328l.11719.05859.11718.11719v.69922l-.05859.17578v.23047l-.0586.17578-.34765 1.05078-.11719.23047-.11719.23437-.11718.0586-.23047.23437-.64063.28906h-.875l-.41015-.11718-.64063-.46485"/><path fill="none" stroke="#bebebe" stroke-linecap="round" stroke-linejoin="round" stroke-miterlimit="10" stroke-width=".5" d="M467.95703 311.69531H144.02734v168.625h323.9297v-168.625"/><g clip-path="url(#a)"><path fill="#fff" fill-opacity="0" fill-rule="evenodd" d="M144 475.89063v4.4375h.0039H144V311.67188h.0039H144v164.21875"/></g><g clip-path="url(#b)"><path fill="#fff" fill-opacity="0" fill-rule="evenodd" d="M144.0039 480.32813V311.67188h44.37891v63.26171l-3.42578 3.3125 3.42578 3.30079 2.10156 1.13671-2.10156 1.60938-3.74219 2.83203-.6953 3.05469-.59766 1.38281.59765.67188L186.35156 396l2.03125 2.25781.41016 2.17969-.41016.50781-4.4375-.23828-.92969-.26953-3.5078-2.0039-4.44141.28124-4.4375-.3203L167.0742 396l-.8828-.4961-.53125.4961.53125.52734 3.03906 3.91016-.27734 4.4375 1.67578 1.96484 3.08984 2.47657 1.34766 4.15625.33203.28125-.33203.10937-3.07032 4.32813-1.36718.17578-.5-.17578-1.40235-4.4375-2.53515-2.52735-4.4375.13672-2.35938 2.39063-1.22656 4.4375-.34375 4.4375-.50781 1.15625-2.94141 3.28515-.76172 4.4375-.73828 2.05078-2.14453 2.38672 2.14453 2.4336 2.55078 2.0039 1.89063 3.40625.11718 1.03125-.11718.82422-2.46485 3.61719 2.46485 2.4414 4.4375.19141 4.4375-1.38281 1.48437-1.25 2.95313-3.21875 1.70312-1.22266 2.73438-4.2461 4.4414 3.66017 4.4375-.08204 4.4375.14844 4.4375-3.02344 1.55078-.89453 2.89063-.8164 4.4375-1.01954 2.6211-2.60156 1.8164-1.21875 3.34766-3.21875 1.08984-.82812 4.4414-2.09766 1.6172-1.51172 1.54687-4.4414-3.16406-3.65235-.57032-.78515-3.66406-4.4375-.20703-.16016-4.4375.0039-.8086-4.28124-.03125-4.44141.6172-4.4375.22265-.1211 1.22656.1211 3.21094 1.71875 4.4414.41406 1.81641 2.30469 2.6211 3.22656 1.42968 1.21485 3.00781 2.40625 3.01172-2.40625 1.42578-.89454 3.62891-3.54687.8086-.73047v6.4961l-3.3672 3.11328-.93359 4.4375 2.77735 4.4375 1.52344 1.2539 2.66406-1.2539 1.77734-.69141 3.02734-3.7461.29688-4.4375-3.32422-2.55468-4.4414-.5586v-6.49609l4.4414-.1289 4.4375.28906.76563.57031 3.67187 2.83203 2.48828-2.83203-.21094-4.4375L250.08984 396l-2.44922-4.4375-1.55859-1.59766-4.4375-2.53125-4.4375-.22265-4.4414 1.59375-2.70704 2.75781L228.63281 396l-.30469.33203-4.4375.625-4.4375-.19922-.86328-.75781-3.57422-2.9336-3.70312-1.5039-.73828-.85547-1.53516-3.58203 1.53516-1.15234 3.09766-3.28907-3.09766-3.90625-4.4375-.42578-4.4375-.03515-4.4375.89062-2.6875-.96094-1.7539-.5078-4.4375-2.8047v-63.26171h53.26171v53.40234l-4.4375 1.91797-1.98047 2.3789-2.46094 1.92579-3.01953 2.51171 3.01953 1.82813 4.44141 2.41797 4.4375-.16406v2.16015l-.95312 2.63281.95312 1.40235 1.02344-1.40235-1.02344-2.6328v-2.16017l4.4375-2.58984 1.44531-1.49219 2.9922-2.0078 4.4375-.66798 4.4414 1.25v22.98828l-1.3125.62891 1.3125.57031.99219-.57031-.9922-.6289V372.3828l.42579 1.42578 4.01172 4.28125.83594.15625 1.30859 4.4375 2.29297 1.83985 4.4375 2.14062.76953.46094 3.67187 2.76953 4.4375-.05469 4.2461-2.71484.1914-.1875 4.4375-2.67969 1.57813-1.57422-1.57813-1.74218-4.4375-1-4.4375-.89844-4.4375-.21875-4.4414-.44531-.91797-.13282-.6914-4.4375-.70313-4.4375-2.125-3.94921-4.4375 1.46093-4.4375 1.02344-4.4414.16406-4.4375-1.26953-4.4375-.13672-4.4375-1.58984v-53.40235h88.76562v59.08204l-3.21485 3.05468 3.21485 3.14454 3.32812-3.14454-3.32812-3.05468v-59.08204h22.1914v132.67579l-.625.47265.625.66797.58594-.66797-.58594-.47265V311.67187h26.63281v113.71485l-1.6914 1.6836-1.9336 4.4375 3.625 3.77343 3.71094-3.77344-1.875-4.4375-1.83594-1.6836V311.67189h4.4375v81.96875L381.32423 396l2.34765 2.46094L386.07423 396l-2.40235-2.35938v-81.96875h13.3125v109.06641l-4.4375.16016-4.4375 1.32422-.48437.40625.10547 4.4414.3789.61328 1.44922 3.82422 2.98829 2.86719 4.4375.0039 4.4414-.2539 2.09766 1.82031 2.33984 2.58594 4.4375-.875 1.13281-1.71094-1.1328-1.23828-4.4375-1.66797-1.28907-1.53125-2.21094-4.4375-.9375-.85937-2.51562-3.58203-1.92579-1.89063v-109.0664h8.87891v74.96484l-.33203.48828.33203.32422.32422-.32422-.32422-.48828v-74.96485h26.6289v3.9336l-.48046.5039.48047.48047.48047-.48046-.48047-.50391v-3.9336h4.4375v55.69532l-1.73438 2.0039 1.73438 2.21875 4.4414-1.58203 2.90625 3.80078 1.53125 1.50782 1.76954-1.50782-1.76954-3.03515-2.6328-1.40235-1.8047-.83984-4.4414-1.16406v-55.69531h13.3164v67.6328l-4.4375.21094-4.4375 1.15235-2.18359 2.01562 2.1836 1.9297 4.4375 1.28124 4.4375.17188 3.45702-3.38282-3.45703-3.3789v-67.63281h4.4375v56.40234l-2.03515 1.29687 2.03515 1.87891 1.59375 2.5586.40235 4.4375 2.44531 2.42187 2.41797-2.42188-.65235-4.4375-1.76562-2.5039-2.89844-1.9336-1.54297-1.29687v-56.40235h13.3125v168.65625H144.00391"/></g><path fill="#50fcfc" fill-rule="evenodd" d="M152.875 438.3789l-2.14453-2.43359 2.14453-2.38672.73828-2.05078.76172-4.4375 2.9414-3.28515.50782-1.15625.34375-4.4375 1.22656-4.4375 2.35938-2.39063 4.4375-.13672 2.53515 2.52735 1.40235 4.4375.5.17578 1.36718-.17578 3.07032-4.32813.33203-.10937-.33203-.28125-1.34766-4.15625-3.08984-2.47657-1.67578-1.96484.27734-4.4375-3.03906-3.91016-.53125-.52734.53125-.4961.8828.4961 3.5547 2.39453 4.4375.32031 4.4414-.28125 3.50781 2.00391.9297.26953 4.4375.23828.41015-.50781-.41016-2.17969L186.35156 396l-2.40625-3.76563-.59765-.67187.59765-1.38281.69531-3.05469 3.7422-2.83203v2.46094l-.48438.37109.48437 1.26953L189.5 387.125l-1.11719-.3711v-2.46093l2.10156-1.60938-2.10156-1.13671-3.42578-3.30079 3.42578-3.3125v1.75l-1.61719 1.5625 1.6172 1.5586 2.1953-1.5586-2.1953-1.5625v-1.75l4.4375 2.8047v16.5703L190.44531 396l2.375.47656L193.25 396l-.42969-1.6914v-16.57032l1.7539.50781 2.6875.96094 4.4375-.89062v2.0625l-3.02733 2.30468-1.41016.54688-3.96484 3.89453-.41797 4.4375L194.0703 396l-1.25 1.39063-3.10156 3.04687-1.33594 1.66406-4.4375.80469-4.4375 1.6914-.4375.27735.4375.1211v3.36718l-2.52734.95313 2.52734 2.70312 1.35547-2.70312-1.35547-.95313v-3.36719l4.4375 3.0547.42188 1.26562-.42188.91796-2.77734 3.51954-1.66016.4453-4.1914 3.9922-.25.20312-4.4375.65625-2.48438-.85937-1.95312-3.62891-4.4375-.0039-2.19141 3.6328-.63281 4.4375-1.61328 3.66798-.69532.77343-1.5039 4.4375-1.49219 4.4375 3.6914 3.39453.62891 1.04297.6289 4.4375 3.1797 4.05078 4.4375-1.28125 2.6914-2.76953 1.7461-4.0625.3164-.375 4.1211-2.61328 4.25 2.61328.1914.16406.76172-.16406 3.67578-.53515 4.4375.3164 4.4375-1.08594 4.4414-3.08203.1172-.05078 4.3203-1.33203 4.11329-3.10547.32422-.1875 4.4375-3.4414 1.25781-.8086 3.1836-3.58984.46484-.85156-.46484-.53907-2.83204-3.89843-1.60937-1.8672-4.4375 1.53126-4.4375-3.96094-.07813-.14062.07813-.23438 2.14062-4.20312-.12109-4.44141.80078-4.4375 1.61719-.89063 4.4375.46485 4.4414-2.32422 2.07032 2.75 2.36719 3.71484.28125.72266 4.15625 3.67969 4.4375-2.76563.93359-.91406 3.5039-3.16406 4.44141.64844 4.4375-1.28125 1.47266-.64063 2.96484-2.63281.85938-1.80469-.85938-1.25-1.01953-3.1875-3.41797-2.89063-4.4375-.21875-4.42187 3.10938-.01953.07031L231.08983 396l-2.76172 2.9961-4.4375-.17579-4.4375.42969-3.71093-3.25-.72656-.59766-4.44141-3.23046-1.90234-.60938-2.4922-4.4375 4.39454-3.29297 1.08203-1.14844-1.08203-1.36328-4.4375-.7461-4.4375-.1953v-2.0625l4.4375.03515 4.4375.42578 3.09766 3.90625-3.09766 3.28907-1.53516 1.15234 1.53516 3.58203.73828.85547 3.70313 1.5039L218.58983 396l.86328.75781 4.4375.19922 4.4375-.625.3047-.33203 1.42577-4.4375 2.70703-2.75781 4.44141-1.59375 4.4375.22265 4.4375 2.53125 1.5586 1.59766L250.08983 396l-1.73047 4.4375.21094 4.4375-2.48828 2.83203-3.67187-2.83203-.76563-.57031-4.4375-.28906-4.4414.1289-.8086.73047-3.6289 3.54688-1.42579.89453-3.01172 2.40625-3.0078-2.40625-1.4297-1.21485-2.62109-3.22656-1.8164-2.30469-4.44141-.41406-3.21094-1.71875-1.22656-.1211-.22266.1211-.61719 4.4375.03125 4.4414.8086 4.28126 4.4375-.00391.20703.16016 3.66406 4.4375.57031.78515 3.16407 3.65235-1.54688 4.4414-1.61719 1.51172-4.4414 2.09766-1.08984.82812-3.34766 3.21875-1.8164 1.21875-2.6211 2.60156-4.4375 1.01954-2.89063.8164-1.55078.89453-4.4375 3.02344-4.4375-.14844-4.4375.08204-4.4414-3.66016-2.73438 4.2461-1.70312 1.22265-2.95313 3.21875-1.48437 1.25-4.4375 1.38281-4.4375-.1914-2.46485-2.44141 2.46485-3.61719.11718-.82422-.11718-1.03125-1.89063-3.40625-2.55078-2.0039"/><path fill="#00e8fc" fill-rule="evenodd" d="M157.3164 439.33984l-3.6914-3.39453 1.49219-4.4375 1.5039-4.4375.69532-.77344 1.61328-3.66796.63281-4.4375 2.1914-3.63282 4.4375.00391 1.95313 3.6289 2.48438.85938 4.4375-.65625.25-.20312 4.1914-3.9922 1.66016-.4453 2.77734-3.51954.42188-.91796-.42188-1.26563-4.4375-3.05469-.4375-.12109.4375-.27734 4.4375-1.69141 4.4375-.80469 1.33594-1.66406 3.10156-3.04688 1.25-1.39062-1.1914-4.4375.41797-4.4375 3.96484-3.89453 1.41016-.54688 3.02734-2.30468v2.58203l-4.4375 2.01953-2.1836 2.14453-1.53906 4.4375L195.4375 396l-2.61719 2.91016-1.55469 1.52734-2.8828 3.58984-2.16798.84766.1172 4.4414-2.14063 4.4375-.2461.125-4.4375 1.23048-3.23828 3.08203-1.20312.98828-4.4375 1.01953-4.4375-.90235-4.4375-.67968-.98047 4.01172-1.75 4.4414-1.30469 4.4375-.40234 1.375-.80078 3.0625.80078.73438 2.23828 3.70312.91797 4.4375 1.28125 1.63281 3.26172-1.6328 1.17578-.71485 2.53125-3.72266 1.90625-2.10937 2.85156-2.32813 1.58594-1.16015 4.4414-1.83594 1.33203-1.4414 1.6211-4.4375 1.48437-1.42188v1.125l-.3086.29687.3086 2.04297 3.96875-2.04297-3.96875-.29687v-1.125l3.78516-3.01953.65234-.37891 4.4375-.69531 2.29688 1.07422-2.29688 4.28906-.07422.15234-4.36328 3.69922-.96875.73828-3.11719 4.4375 4.08594 2.00781 4.4375-1.35156.9414-.65625 3.10157-4.4375.39844-.41406 4.4375-1.13281 4.4375-2.00781 1.07422-.88282 3.36328-1.71484 2.64062-2.72656-2.64062-3.08985-4.4375.61328-2.98438-1.96093-1.45312-1.35938-1.65234-3.07812 1.55078-4.4375-.14844-4.44141.25-2.3164.49219-2.1211 3.9453-2.17578 4.4375.52734L213.8125 396l-3.23828-2.66016-4.4375-1.1289-.3125-.64844-.42188-4.4375-3.70312-4.16406v-2.58203l4.4375.1953 4.4375.7461 1.08203 1.36328-1.08203 1.14844-4.39453 3.29297 2.49219 4.4375 1.90234.60938 4.4414 3.23046.72657.59766 3.71094 3.25 4.4375-.42969 4.4375.17578L231.08983 396l1.67578-4.36719.01954-.07031 4.42187-3.10938v2.07032l-1.47656 1.03906-.95313 4.4375 2.4297 3.11719 4.4375-1.14453L243.67577 396l-1.04687-4.4375-.98438-.83203-4.4375-.20703v-2.07031l4.4375.21875 3.41797 2.89062 1.01953 3.1875.85938 1.25-.85938 1.80469-2.96484 2.63281-1.47266.64063-4.4375 1.28125-4.4414-.64844-3.50391 3.16406-.9336.91406-4.4375 2.76563-4.15625-3.67969-.28125-.72266-2.36718-3.71484-2.07031-2.75-4.44141 2.32422-4.4375-.46485-1.61719.89063-.80078 4.4375.1211 4.4414-2.14063 4.20313-.07813.23438.07813.14062 4.4375 3.96094 4.4375-1.53125 1.60937 1.86719 2.83203 3.89843.46485.53907-.46484.85156-3.1836 3.58984-1.25781.8086-4.4375 3.4414-.32422.1875-4.11328 3.10547-4.32031 1.33203-.1172.05078-4.4414 3.08204-4.4375 1.08593-4.4375-.3164-3.67578.53515-.76172.16406-.1914-.16406-4.25-2.61328-4.1211 2.61328-.3164.375-1.7461 4.0625-2.6914 2.76953-4.4375 1.28125-3.1797-4.05078-.6289-4.4375-.6289-1.04297"/><path fill="#00d4fc" fill-rule="evenodd" d="M157.3164 436.67969l-.80077-.73438.80078-3.0625.40234-1.375 1.30469-4.4375 1.75-4.4414.98047-4.01172 4.4375.67969 4.4375.90234 4.4375-1.01953 1.20312-.98828 3.23828-3.08204 4.4375-1.23046.2461-.125 2.14062-4.4375-.11719-4.44141 2.16797-.84766 2.88281-3.58984 1.5547-1.52734L195.4375 396l-1.89844-4.4375 1.53906-4.4375 2.1836-2.14453 4.4375-2.01953v.83203l-4.4375 2.9375-.40234.39453-2.66407 4.4375L196.8047 396l-3.98438 4.42969-.00781.00781-3.23438 4.4375-1.1953 4.11719-.08595.32422-2.73437 4.4375-1.61719.8125-4.4375 1.45312-2.28515 2.17188-2.15625 1.77343-4.4375 1.37891-4.4375.65625-1.46875.6289-2.96875 2.69532-.63672 1.7461-.14063 4.4375-1.32031 4.4375 1.50781 4.4375.58985 2.35156 4.4375-1.56641.53125-.78516 3.90625-4.32031.14453-.11719 4.29297-3.14062 2.14453-1.29688 2.29687-1.41015 1.77735-3.02735 2.66015-2.54687 2.375-1.89453 2.0625-1.19922 4.4375-2.14453 1.71094-1.09375 2.73047-2.21485 1.21484-2.22265 2.3789-4.4375-.48046-4.44141-3.11328-2.63281-4.42578-1.80469 4.42578-3.80078v1.92187l-2.1914 1.87891 2.1914.89453 3.64844-.89453-3.64844-1.8789v-1.92188l4.4375 2.35937 4.4375-2.01562 4.4375.58203 1.8164-1.5625-1.8164-1.49219-4.4375-.14844-1.35156-2.79687-.125-4.4375-2.96094-3.33203v-.83203l3.70312 4.16406.42188 4.4375.3125.64844 4.4375 1.1289L213.8125 396l-3.23828 2.78906-4.4375-.52734-3.94531 2.17578-.4922 2.1211-.25 2.3164.14845 4.4414-1.55078 4.4375 1.65234 3.07813 1.45312 1.35938 2.98438 1.96093 4.4375-.61328v2.35156l-4.4375.32422-.92188.41407.92188.94921 4.4375-.29687.63281-.65234-.63281-.73829v-2.35156l2.64062 3.08985-2.64062 2.72656-3.36328 1.71484-1.07422.88281-4.4375 2.00782-4.4375 1.13281-.39844.41406-3.10156 4.4375-.9414.65625-4.4375 1.35156-4.08595-2.0078 3.1172-4.4375.96874-.73829 4.36328-3.69922.07422-.15234 2.29688-4.28906-2.29688-1.07422-4.4375.69531-.65234.3789-3.78516 3.01954-1.48437 1.42187-1.6211 4.4375-1.33203 1.4414-4.4414 1.83595-1.58594 1.16015-2.85156 2.32813-1.90625 2.10937-2.53125 3.72266-1.17578.71484-3.26172 1.63281-1.28125-1.6328-.91797-4.4375-2.23828-3.70313"/><path fill="#00c4fc" fill-rule="evenodd" d="M161.16406 440.38281l-1.50781-4.4375 1.32031-4.4375.14063-4.4375.63672-1.7461 2.96875-2.6953L166.1914 422l4.4375-.65625 4.4375-1.3789 2.15625-1.77344 2.28515-2.17188 4.4375-1.45312 1.61719-.8125 2.73438-4.4375.08593-.32422 1.19531-4.11719 3.23438-4.4375.00781-.00781L196.8047 396l-2.60938-4.4375 2.66406-4.4375.40235-.39453 4.4375-2.9375v.83594l-3.52344 2.49609-.91406.77344-2.40625 3.66406 2.40625 3.7539 2.26953.6836 2.16797 1.16797L204.9375 396l-1.1875-4.4375.16797-4.4375-2.21875-2.4961v-.83593l2.96094 3.33203.125 4.4375 1.35156 2.79688 4.4375.14843v1.16797L208.17188 396l2.40234.33984.39453-.33984-.39453-.32422v-1.16797L212.39062 396l-1.8164 1.5625-4.4375-.58203-4.4375 2.01562-4.4375-2.35937-4.42578 3.80078 4.42578 1.80469v.91015l-4.4414.20704-1.10157 1.51562-2.17578 4.4414-1.16016 2.10157-1.45312 2.33594-2.98438 1.5-4.4375 1.67187-1.32812 1.26563-3.11328 2.55859-4.4375 1.73828-.6211.14063-3.8164 1.79296-2.7461 2.64844.1289 4.4375-.28124 4.4375 2.89844 2.10938 1.83203-2.10938 2.60547-2.1211 3.33593-2.3164 1.10157-.35937 4.4414-3.05078.60547-1.02735 3.83203-3.66797.96485-.77343 3.47265-2.01954 3.77735-2.41796.66015-.94532 3.96485-3.49218.47656-.25 2.84766-4.1875-.8125-4.44141-2.03516-1.72266v-.91015l3.11328 2.63281.48047 4.4414-2.3789 4.4375-1.21485 2.22266-2.73047 2.21485-1.71094 1.09375-4.4375 2.14453-2.0625 1.19922-2.375 1.89453-2.66015 2.54687-1.77735 3.02735-2.29687 1.41015-2.14453 1.29688-4.29297 3.14062-.14453.11719-3.90625 4.32031-.53125.78516-4.4375 1.5664-.58985-2.35156"/><path fill="#00b8fc" fill-rule="evenodd" d="M166.1914 438.05469l-2.89843-2.10938.28125-4.4375-.1289-4.4375 2.74609-2.64844 3.8164-1.79296.6211-.14063 4.4375-1.73828 3.11328-2.5586 1.32812-1.26562 4.4375-1.67187 2.98438-1.5 1.45312-2.33594 1.16016-2.10156 2.17578-4.44141 1.10156-1.51563 4.4414-.20703v.91016l-2.8789.8125-1.5625.98438-2.0625 3.45703-2.375 4.30468-.08203.13282-4.35547 2.1875-4.4375 1.89453-.375.35547-4.0664 3.34375-2.72657 1.09375-1.71093 1.40625-4.4375 2.72656-.32032.3086.09375 4.4375.22657.98437 4.4375-.90625.11718-.07813 4.32032-1.39844 3.80859-3.03906.63281-.51172 4.08985-3.92968.34765-.38672 4.4375-2.45313 2.4961-1.59765 1.9414-2.77735 1.88672-1.66015 2.55469-1.34375 2.10547-3.09375-1.14453-4.44141-.96094-.8125v-.91016l2.03516 1.72266.8125 4.4414-2.84766 4.1875-.47656.25-3.96485 3.4922-.66015.9453-3.77735 2.41798-3.47265 2.01953-.96485.77343-3.83203 3.66797-.60547 1.02735-4.4414 3.05078-1.10157.35937-3.33593 2.3164-2.60547 2.1211-1.83203 2.10938"/><path fill="#00a8fc" fill-rule="evenodd" d="M165.96484 431.50781l-.09375-4.4375.32032-.3086 4.4375-2.72655 1.71093-1.40625 2.72657-1.09375 4.0664-3.34375.375-.35547 4.4375-1.89453 4.35547-2.1875.08203-.13282v2.34375l-4.4375.66407-3.5 1.5625-.9375.8125-4.4414 3.3164-.76953.3086-3.66797 3.0078-2.2461 1.4336 2.2461 2.1289 4.4375-.1289 2.5078-2 1.9336-1.57031 2.99219-2.8711 1.44531-1.625 4.4375-2.03515 1.21485-.77734-1.21485-2.22657v-2.34375l2.375-4.30468 2.0625-3.45704 1.5625-.98437 2.8789-.8125v1.0586l-4.4414 2.76562-.85156 1.42969.85156 3.91406 4.4414-1.91016 1.36329-2.0039-1.36328-4.19532v-1.05859l.96094.8125 1.14453 4.4414-2.10547 3.09376-2.55469 1.34375-1.88672 1.66015-1.9414 2.77735-2.4961 1.59765-4.4375 2.45313-.34765.38672-4.08985 3.92968-.63281.51172-3.8086 3.03906-4.3203 1.39844-.1172.07813-4.4375.90625-.22656-.98438"/><path fill="#009800" fill-rule="evenodd" d="M170.6289 429.19922l-2.24609-2.1289 2.2461-1.4336 3.66797-3.00781.76953-.3086 4.4414-3.3164.9375-.8125 3.5-1.5625v.6875l-1.96094.875-2.47656 2.14453-3.28515 2.29297-1.15625 1.7578-3.96875 2.6836 3.96875.95703 1.20312-.95703 3.23828-2.625 1.89063-1.8164 2.54687-2.86329 4.26172-1.57421-4.26172-.875v-.6875l4.4375-.66407 1.21485 2.22657-1.21485.77734-4.4375 2.03516-1.44531 1.625-2.99219 2.87109-1.9336 1.57031-2.5078 2-4.4375.1289"/><path fill="#00ac00" fill-rule="evenodd" d="M175.0664 428.02734l-3.96874-.95703 3.96875-2.6836 1.15625-1.7578 3.28515-2.29297 2.47656-2.14453 1.96094-.875v.6875l-.42187.1875-4.01563 3.48046-1.375.95704 1.375.76171.79297-.76171 3.64453-4.09766.91406-.33984-.91406-.1875v-.6875l4.26172.875-4.26172 1.57421-2.54687 2.86329-1.89063 1.8164-3.23828 2.625-1.20312.95703"/><path fill="#fff" fill-opacity="0" fill-rule="evenodd" d="M179.50781 408.36328l-2.52734.95313 2.52734 2.70312 1.35547-2.70312-1.35547-.95313"/><path fill="#00c800" fill-rule="evenodd" d="M179.50781 423.39063l-1.375-.76172 1.375-.95704 4.01563-3.48046.42187-.1875.91406.1875-.91406.33984-3.64453 4.09766-.79297.76171"/><path fill="#50fcfc" fill-rule="evenodd" d="M183.94531 426.77344l-.3086.29687.3086 2.04297 3.96875-2.04297-3.96875-.29687"/><path fill="#00e8fc" fill-rule="evenodd" d="M188.38281 379.80469l-1.61719-1.5586 1.6172-1.5625 2.1953 1.5625-2.1953 1.5586m0 8.58984l-.48438-1.26953.48437-.3711 1.11719.3711-1.11719 1.26953"/><path fill="#fff" fill-opacity="0" fill-rule="evenodd" d="M192.82031 394.3086l-2.375 1.6914 2.375.47656L193.25 396l-.42969-1.6914"/><path fill="#009800" fill-rule="evenodd" d="M192.82031 413.23047l-.85156-3.91406.85156-1.4297 4.4414-2.76562v2.28516l-3.27343 1.91016 3.27344.91015.61719-.91015-.6172-1.91016v-2.28516l1.36329 4.19532-1.36328 2.0039-4.4414 1.91016"/><path fill="#00ac00" fill-rule="evenodd" d="M197.26172 410.22656l-3.27344-.91015 3.27344-1.91016.61719 1.91016-.6172.91015"/><path fill="#00b8fc" fill-rule="evenodd" d="M197.26172 395.3164l-2.40625-3.7539 2.40625-3.66406.91406-.77344 3.52344-2.4961v.83594l-2.34766 1.66016-2.08984 1.77734-1.75 2.66016 1.75 2.72656 4.4375.51172 1.01562-3.23828.46094-4.4375-1.47656-1.66016v-.83593l2.21875 2.49609-.16797 4.4375L204.9375 396l-3.23828 1.16797L199.53125 396l-2.26953-.6836"/><path fill="#00e8fc" fill-rule="evenodd" d="M197.26172 398.5586l-2.1914 1.8789 2.1914.89453 3.64844-.89453-3.64844-1.8789"/><path fill="#00a8fc" fill-rule="evenodd" d="M197.26172 394.28906l-1.75-2.72656 1.75-2.66016 2.08984-1.77734 2.34766-1.66016v.83204l-1.16797.82812-3.26953 2.77734-1.08984 1.66016 1.08984 1.69922 4.38281-1.69922.05469-.09375.73437-4.34375-.73437-.82813v-.83203l1.47656 1.66016-.46094 4.4375-1.01562 3.23828-4.4375-.51172"/><path fill="#009800" fill-rule="evenodd" d="M197.26172 393.26172l-1.08984-1.69922 1.08984-1.66016v1l-.4336.66016.4336.67188L199 391.5625l-1.73828-.66016v-1l3.26953-2.77734 1.16797-.82813.73437.82813-.73437 4.34375-.05469.09375-4.38281 1.69922"/><path fill="#00ac00" fill-rule="evenodd" d="M197.26172 392.23438l-.4336-.67188.4336-.66016L199 391.5625l-1.73828.67188"/><path fill="#00c4fc" fill-rule="evenodd" d="M206.13672 423.57813l-.92188-.94922.92188-.41407 4.4375-.32421.63281.73828-.63281.65234-4.4375.29688"/><path fill="#00b8fc" fill-rule="evenodd" d="M210.57422 396.33984L208.17188 396l2.40234-.32422.39453.32422-.39453.33984"/><path fill="#50fcfc" fill-rule="evenodd" d="M231.24219 422.6289l-2.77735-4.4375.9336-4.4375 3.36719-3.11327v2.11718l-1.07422.9961-1.57422 4.4375 2.64844 3.01562 4.14843-3.01562-1.22265-4.4375-2.92578-.9961v-2.11719l4.4414.5586 3.32422 2.55469-.29688 4.4375-3.02734 3.74609-1.77734.6914-2.66406 1.25391-1.52344-1.2539m1.52344-46.9922l-3.01954-1.82812 3.01953-2.51171 2.46094-1.92579 1.98047-2.3789 4.4375-1.91797v4.1289l-.24219.16797-4.1953 3.64454-1 .79296 1 .57032 2.79687-.57032 1.64062-3.0664.76172-1.3711-.76172-.16796v-4.12891l4.4375 1.58984 4.4375.13672 4.4375 1.26953 4.4414-.16406 4.4375-1.02344v3.6211l-1.24609 3.30468 1.2461 1.33204 4.4375-.8711.23047-.46094-.23047-.61718-4.4375-2.6875v-3.6211l4.4375-1.46094 2.125 3.94922.70312 4.4375.6914 4.4375.91798.13282 4.4414.4453 4.4375.21876v1.21484l-4.4375.05469-4.4414.23438-2.66797 2.13671 2.66797 1.97657 4.11719 2.46484.32421.24219 4.4375-.14453.15625-.09766 4.28125-4.125.4961-.3164-.4961-.20313-4.4375-2.22266v-1.21484l4.4375.89844 4.4375 1 1.57813 1.74218-1.57813 1.57422-4.4375 2.67969-.1914.1875-4.2461 2.71484-4.4375.0547-3.67187-2.76954-.76953-.46094-4.4375-2.14062-2.29297-1.83985-1.3086-4.4375-.83593-.15625-4.01172-4.28125-.42578-1.42578-4.4414-1.25-4.4375.66797-2.9922 2.00781-1.4453 1.4922-4.4375 2.58983-4.4375.16407-4.44142-2.41797"/><path fill="#00e8fc" fill-rule="evenodd" d="M232.76563 421.20703l-2.64844-3.01562 1.57422-4.4375 1.07422-.9961 2.92578.9961 1.22265 4.4375-4.14844 3.01562"/><path fill="#00d4fc" fill-rule="evenodd" d="M237.20703 399.11719L234.77734 396l.95313-4.4375 1.47656-1.03906 4.4375.20703.98438.83203L243.67578 396l-2.03125 1.97266-4.4375 1.14453"/><path fill="#00e8fc" fill-rule="evenodd" d="M237.20703 374.3789l-1-.5703 1-.79298 4.19531-3.64453.2422-.16796.76171.16796-.76172 1.3711-1.64062 3.0664-2.79688.57032"/><path fill="#50fcfc" fill-rule="evenodd" d="M241.64453 384.08594l-.95312-1.40235.95312-2.6328 1.02344 2.6328-1.02344 1.40235m17.7539 12.48437L258.08594 396l1.3125-.6289.9922.6289-.9922.57031"/><path fill="#00e8fc" fill-rule="evenodd" d="M263.83594 375.14063l-1.2461-1.33204 1.2461-3.30468 4.4375 2.6875.23047.61718-.23047.46094-4.4375.8711m8.875 9.51953l-2.66797-1.97657 2.66797-2.13671 4.4414-.23438 4.4375-.05469v2.02735l-3.61718.39843 3.61718.75.76172-.75-.76172-.39843v-2.02735l4.4375 2.22266.4961.20312-.4961.31641-4.28125 4.125-.15625.09766-4.4375.14453-.32421-.24219-4.1172-2.46484"/><path fill="#00d4fc" fill-rule="evenodd" d="M281.58984 383.4336l-3.61718-.75 3.61718-.39844.76172.39843-.76172.75"/><path fill="#50fcfc" fill-rule="evenodd" d="M330.41016 376.95313l-3.21485-3.14454 3.21485-3.05468v2.17578l-.92579.8789.92579.90625.95703-.90625-.95703-.8789v-2.17578l3.32812 3.05468-3.32812 3.14454"/><path fill="#00e8fc" fill-rule="evenodd" d="M330.41016 374.71484l-.92579-.90625.92579-.8789.95703.8789-.95703.90625"/><path fill="#50fcfc" fill-rule="evenodd" d="M352.60156 445.48828l-.625-.66797.625-.47265.58594.47265-.58594.66797m26.63281-10.20703l-3.625-3.77344 1.9336-4.4375 1.6914-1.6836v3.07032l-2.05859 3.05078 2.0586 2.14453 2.10546-2.14453-2.10546-3.05078v-3.07031l1.83593 1.6836 1.875 4.4375-3.71094 3.77343"/><path fill="#00e8fc" fill-rule="evenodd" d="M379.23438 433.65234l-2.0586-2.14453 2.0586-3.05078 2.10546 3.05078-2.10546 2.14453"/><path fill="#50fcfc" fill-rule="evenodd" d="M383.67188 398.46094L381.32421 396l2.34765-2.35938L386.07423 396l-2.40235 2.46094m4.0586 28.60937l-.10547-4.4414.48438-.40625 4.4375-1.32422 4.4375-.16016v9.82031l-1.78907.94922 1.78906.51172 2.32422-.51172-2.32421-.94922v-9.8203l1.92578 1.89062 2.51562 3.58203.9375.85937 2.21094 4.4375 1.28906 1.53125 4.4375 1.66797 1.13281 1.23828-1.1328 1.71094-4.4375.875-2.33985-2.58594-2.09766-1.82031-4.4414.2539-4.4375-.0039-2.98829-2.86719-1.44921-3.82422-.37891-.61328"/><path fill="#00e8fc" fill-rule="evenodd" d="M396.98438 432.01953l-1.78907-.51172 1.78906-.94922 2.32422.94922-2.32421.51172"/><path fill="#50fcfc" fill-rule="evenodd" d="M405.86328 387.44922l-.33203-.32422.33203-.48828.32422.48828-.32422.32422m26.6289-70.85938l-.48046-.48046.48047-.50391.48047.5039-.48047.48047m4.4375 55l-1.73438-2.21875 1.73438-2.0039 4.4414 1.16406 1.8047.83984 2.6328 1.40235 1.76954 3.03515-1.76954 1.50782-1.53125-1.50782-2.90625-3.80078-4.4414 1.58203m4.4414 13.02344l-2.18359-1.92969 2.1836-2.01562 4.4375-1.15235 4.4375-.21093v1.58594l-4.4375.52343-2.56641 1.26953 2.5664 1.28516 4.4375.51172 1.83594-1.79688-1.83594-1.79296v-1.58594l3.45704 3.3789-3.45704 3.38282-4.4375-.17188-4.4375-1.28125"/><path fill="#00e8fc" fill-rule="evenodd" d="M445.8086 383.96875l-2.56641-1.28516 2.5664-1.26953 4.4375-.52344 1.83594 1.79297-1.83594 1.79688-4.4375-.51172"/><path fill="#50fcfc" fill-rule="evenodd" d="M454.6836 371.25l-2.03516-1.8789 2.03515-1.29688 1.54297 1.29687 2.89844 1.9336 1.76563 2.5039.65234 4.4375-2.41797 2.42188-2.44531-2.42188-.40235-4.4375-1.59375-2.55859"/><g clip-path="url(#c)"><path fill="#fff" fill-opacity="0" fill-rule="evenodd" d="M467.9961 480.32813H468V311.67188h-.0039H468v168.65625h-.0039"/></g><path fill="#fff" fill-opacity="0" fill-rule="evenodd" d="M177.83203 392.5586l3.51953 4.66015 7.94531-6.0039-3.51953-4.66016-7.9453 6.0039"/><path fill-rule="evenodd" d="M186.42578 390.44922l.30469.40625-5.01953 3.79687-.47656-.6289 3.58203-2.70703-.83594-1.10938.4414-.33203.39063.40625.19531.16797.20703.1289.23828.07813.27344.01172.32031-.0625.37891-.15625"/><path fill="#fff" fill-opacity="0" fill-rule="evenodd" d="M227.03906 415.4375l4.76563-3.3789-5.76172-8.125-4.76563 3.3789 5.76172 8.125"/><path fill-rule="evenodd" d="M225.1914 406.78125l.41407-.29297 3.64062 5.13672-.64062.45313-2.59766-3.66016-1.13281.80078-.32031-.45313.41797-.375.17578-.1914.13672-.20703.08203-.23047.01953-.27344-.05469-.32031-.14062-.38672"/><path fill="#fff" fill-opacity="0" fill-rule="evenodd" d="M297.02344 386.2461l.15234-5.83985-9.95703-.25781-.15234 5.83984 9.95703.25781"/><path fill-rule="evenodd" d="M288.99219 382.53516l.01172-.50782 6.29296.16407-.01953.78515-4.48828-.11719-.03515 1.39063-.5586-.01563-.05078-.5625-.04687-.2539-.08204-.23047-.13671-.20703-.20313-.17969-.29297-.14844-.39062-.11718"/><path fill="#fff" fill-opacity="0" fill-rule="evenodd" d="M206.75 433.71484l6.625-4.34765-5.59375-8.51953-6.625 4.34375 5.59375 8.52343"/><path fill-rule="evenodd" d="M204.23828 425.36328l2.7461-1.80078.40625.61719-2.20704 1.44922.79688 1.63671.10156-.26171.15234-.25782.22266-.2539.30078-.23438.28906-.15625.32813-.11719.35938-.05859.3789.01172.38672.08984.1914.08204.19141.10937.1875.13672.17969.16406.17578.19531.16406.23047.21485.39063.14453.40625.0664.41406-.01562.41406-.10156.40625-.08203.19531-.10938.1875-.13672.1836-.15625.17578-.1875.16406-.21094.15235-.41015.22656-.38672.13281-.3711.04688-.34765-.02735-.32813-.09765-.30468-.15625-.28906-.20704-.26563-.24609.65625-.4336.19531.15235.19922.11719.20313.08203.20312.05078.20703.01172.21094-.02734.20703-.07032.20313-.10937.25-.19531.1953-.21094.14063-.23438.07813-.2539.02344-.26953-.04297-.28907-.10938-.30078-.17187-.3125-.16406-.20703-.19141-.1875-.22266-.15234-.25-.10938-.26562-.05469-.28516.00391-.29297.07422-.30469.15625-.26171.21484-.17578.2461-.125.3086-.11329.39452-.57812.38281-1.49219-3.12109"/><g clip-path="url(#d)"><path fill="none" stroke="#000" stroke-linecap="round" stroke-linejoin="round" stroke-miterlimit="10" stroke-width=".5" d="M146.11328 483.13672l-4.22656-5.61719"/></g><g clip-path="url(#e)"><path fill="none" stroke="#000" stroke-linecap="round" stroke-linejoin="round" stroke-miterlimit="10" stroke-width=".5" d="M159.08984 483.35938l-3.55078-6.0625"/></g><g clip-path="url(#f)"><path fill="none" stroke="#000" stroke-linecap="round" stroke-linejoin="round" stroke-miterlimit="10" stroke-width=".5" d="M172.26953 483.4375l-3.27734-6.21484"/></g><g clip-path="url(#g)"><path fill="none" stroke="#000" stroke-linecap="round" stroke-linejoin="round" stroke-miterlimit="10" stroke-width=".5" d="M185.67969 483.38281l-3.46875-6.10937"/></g><g clip-path="url(#h)"><path fill="none" stroke="#000" stroke-linecap="round" stroke-linejoin="round" stroke-miterlimit="10" stroke-width=".5" d="M198.98047 483.39063l-3.4414-6.125"/></g><g clip-path="url(#i)"><path fill="none" stroke="#000" stroke-linecap="round" stroke-linejoin="round" stroke-miterlimit="10" stroke-width=".5" d="M211.82422 483.61328l-2.5-6.5664"/></g><g clip-path="url(#j)"><path fill="none" stroke="#000" stroke-linecap="round" stroke-linejoin="round" stroke-miterlimit="10" stroke-width=".5" d="M226.1875 482.98828l-4.59375-5.32031"/></g><g clip-path="url(#k)"><path fill="none" stroke="#000" stroke-linecap="round" stroke-linejoin="round" stroke-miterlimit="10" stroke-width=".5" d="M239.85156 482.64063l-5.29297-4.625"/></g><g clip-path="url(#l)"><path fill="none" stroke="#000" stroke-linecap="round" stroke-linejoin="round" stroke-miterlimit="10" stroke-width=".5" d="M253.2539 482.53906l-5.46484-4.41797"/></g><g clip-path="url(#m)"><path fill="none" stroke="#000" stroke-linecap="round" stroke-linejoin="round" stroke-miterlimit="10" stroke-width=".5" d="M266.6836 482.38672l-5.69532-4.11719"/></g><g clip-path="url(#n)"><path fill="none" stroke="#000" stroke-linecap="round" stroke-linejoin="round" stroke-miterlimit="10" stroke-width=".5" d="M280.02344 482.34766l-5.7461-4.03907"/></g><g clip-path="url(#o)"><path fill="none" stroke="#000" stroke-linecap="round" stroke-linejoin="round" stroke-miterlimit="10" stroke-width=".5" d="M293.3164 482.38672l-5.69921-4.11328"/></g><g clip-path="url(#p)"><path fill="none" stroke="#000" stroke-linecap="round" stroke-linejoin="round" stroke-miterlimit="10" stroke-width=".5" d="M306.67969 482.3125l-5.79688-3.96875"/></g><g clip-path="url(#q)"><path fill="none" stroke="#000" stroke-linecap="round" stroke-linejoin="round" stroke-miterlimit="10" stroke-width=".5" d="M320.17969 482.01172l-6.16797-3.36719"/></g><g clip-path="url(#r)"><path fill="none" stroke="#000" stroke-linecap="round" stroke-linejoin="round" stroke-miterlimit="10" stroke-width=".5" d="M333.23828 482.41406l-5.65625-4.17187"/></g><g clip-path="url(#s)"><path fill="none" stroke="#000" stroke-linecap="round" stroke-linejoin="round" stroke-miterlimit="10" stroke-width=".5" d="M346.91016 481.8125l-6.3711-2.96484"/></g><g clip-path="url(#t)"><path fill="none" stroke="#000" stroke-linecap="round" stroke-linejoin="round" stroke-miterlimit="10" stroke-width=".5" d="M358.51953 477.14063l-2.95312 6.375"/></g><path fill="none" stroke="#000" stroke-linecap="round" stroke-linejoin="round" stroke-miterlimit="10" stroke-width=".5" d="M358.08984 478.0664L359.3125 478"/><g clip-path="url(#u)"><path fill="none" stroke="#000" stroke-linecap="round" stroke-linejoin="round" stroke-miterlimit="10" stroke-width=".5" d="M370.2539 476.8164l.20313 7.02344"/></g><path fill="none" stroke="#000" stroke-linecap="round" stroke-linejoin="round" stroke-miterlimit="10" stroke-width=".5" d="M370.28516 477.83984l1.0664-.60937"/><g clip-path="url(#v)"><path fill="none" stroke="#000" stroke-linecap="round" stroke-linejoin="round" stroke-miterlimit="10" stroke-width=".5" d="M382.16406 477.15625l3.01563 6.34766"/></g><path fill="none" stroke="#000" stroke-linecap="round" stroke-linejoin="round" stroke-miterlimit="10" stroke-width=".5" d="M382.60156 478.07813l.73438-.98438"/><g clip-path="url(#w)"><path fill="none" stroke="#000" stroke-linecap="round" stroke-linejoin="round" stroke-miterlimit="10" stroke-width=".5" d="M393.99219 478.49219l5.98828 3.67187"/></g><path fill="none" stroke="#000" stroke-linecap="round" stroke-linejoin="round" stroke-miterlimit="10" stroke-width=".5" d="M393.99219 478.49219l.14844-2.44922"/><g clip-path="url(#x)"><path fill="none" stroke="#000" stroke-linecap="round" stroke-linejoin="round" stroke-miterlimit="10" stroke-width=".5" d="M407.0664 478.95703l6.46876 2.7461"/></g><path fill="none" stroke="#000" stroke-linecap="round" stroke-linejoin="round" stroke-miterlimit="10" stroke-width=".5" d="M407.0664 478.95703l-.21484-2.44531"/><g clip-path="url(#y)"><path fill="none" stroke="#000" stroke-linecap="round" stroke-linejoin="round" stroke-miterlimit="10" stroke-width=".5" d="M420.14453 479.78906l6.94531 1.07813"/></g><g clip-path="url(#z)"><path fill="none" stroke="#000" stroke-linecap="round" stroke-linejoin="round" stroke-miterlimit="10" stroke-width=".5" d="M421.15625 479.94531l-.40625-1.15625"/></g><g clip-path="url(#A)"><path fill="none" stroke="#000" stroke-linecap="round" stroke-linejoin="round" stroke-miterlimit="10" stroke-width=".5" d="M433.42188 480.5039l7.01953-.35156"/></g><g clip-path="url(#B)"><path fill="none" stroke="#000" stroke-linecap="round" stroke-linejoin="round" stroke-miterlimit="10" stroke-width=".5" d="M434.44531 480.45313l-.63281-1.0547"/></g><g clip-path="url(#C)"><path fill="none" stroke="#000" stroke-linecap="round" stroke-linejoin="round" stroke-miterlimit="10" stroke-width=".5" d="M446.90234 481.41016l6.6875-2.16407"/></g><g clip-path="url(#D)"><path fill="none" stroke="#000" stroke-linecap="round" stroke-linejoin="round" stroke-miterlimit="10" stroke-width=".5" d="M447.875 481.09766l-.8789-.85547"/></g><g clip-path="url(#E)"><path fill="none" stroke="#000" stroke-linecap="round" stroke-linejoin="round" stroke-miterlimit="10" stroke-width=".5" d="M460.1836 481.29688l6.7539-1.9375"/></g><g clip-path="url(#F)"><path fill="none" stroke="#000" stroke-linecap="round" stroke-linejoin="round" stroke-miterlimit="10" stroke-width=".5" d="M461.16797 481.01563l-.85156-.88282"/></g><g clip-path="url(#G)"><path fill="none" stroke="#000" stroke-linecap="round" stroke-linejoin="round" stroke-miterlimit="10" stroke-width=".5" d="M145.17969 470.32422l-2.35938-6.6211"/></g><g clip-path="url(#H)"><path fill="none" stroke="#000" stroke-linecap="round" stroke-linejoin="round" stroke-miterlimit="10" stroke-width=".5" d="M144.83594 469.35938l-.82422.90625"/></g><path fill="none" stroke="#000" stroke-linecap="round" stroke-linejoin="round" stroke-miterlimit="10" stroke-width=".5" d="M158.05078 470.44922l-1.47266-6.8711m1.47266 6.8711l-1.8789 1.58203m15.37109-1.625l-1.82813-6.78516m1.82813 6.78516l-1.79297 1.67578m15.35156-1.75l-2.3125-6.63672m2.3125 6.63672l-1.66406 1.80078m15.1211-1.85547l-2.59766-6.52734m2.59765 6.52734l-1.58593 1.8711m14.53515-1.7461l-1.86719-6.77734m1.8672 6.77734l-1.78126 1.6836m15.72656-1.92578l-3.125-6.29297M225 469.24609l-.71484.9961m15.34765-.6914l-4.85547-5.07423m4.15235 4.33594l-.38672 1.16797m14.84766-.9414l-5.7422-4.05079m4.90626 3.46094l-.15235 1.21875m13.875-.1289l-4.8828-5.05079m4.17187 4.3164l-.375 1.16798m14.67578-.73047l-5.4336-4.45703m4.64453 3.80859l-.24218 1.20313m14.46484-.70704l-5.66797-4.15234m4.84375 3.55078l-.17969 1.21094m14.4961-.8789l-6.02735-3.61329m5.15235 3.08594l-.0625 1.22656m14.67969-1.79297l-6.87891-1.42578m5.8789 1.21875l.34376 1.17969m14.03515-1.9414l-7.00781.51171m5.98828-.4375l.65625 1.03906m11.32031-4.17968l-2.28906 6.64453m1.95313-5.67969l1.21484-.1914m10.27734-.81641l2.02735 6.73047m-1.73047-5.75l.8711-.86328m11.87109-.01954l2.57812 6.53516m-2.57812-6.53516l1.59375-1.86718m10.42968 2.75l5.16407 4.76953m-5.16407-4.76953l.625-2.3711m12.25 2.96094l6.04297 3.58984m-6.04297-3.58984l.1172-2.45313m12.8125 3.39454l6.8164 1.70703m-6.8164-1.70703l-.59376-2.37891m13.8711 2.55078l6.89062 1.36328m-6.89063-1.36328l-.71093-2.35156m13.97265 2.71094l6.9961.64453m-6.9961-.64453l-.94921-2.26172m14.25 2.5664l7.02734.03516m-7.02735-.03516l-1.14453-2.17187m14.50391 2.76562l6.9336-1.15234m-6.9336 1.15234l-1.48828-1.94921"/><g clip-path="url(#I)"><path fill="none" stroke="#000" stroke-linecap="round" stroke-linejoin="round" stroke-miterlimit="10" stroke-width=".5" d="M143.67578 457.19531l.64844-6.9961"/></g><g clip-path="url(#J)"><path fill="none" stroke="#000" stroke-linecap="round" stroke-linejoin="round" stroke-miterlimit="10" stroke-width=".5" d="M143.76953 456.17969l-1.13281.47265"/></g><path fill="none" stroke="#000" stroke-linecap="round" stroke-linejoin="round" stroke-miterlimit="10" stroke-width=".5" d="M157.23828 457.21094l.15625-7.02344m-.15625 7.02344l-2.19531 1.10156m15-1.14844l1.17578-6.92969m-1.17578 6.9297l-2.32813.77343m15.50782-.80078l1.4453-6.875m-1.4453 6.875l-2.35547.6836m15.59765-.69923l1.58985-6.84375m-1.35938 5.84766l-1.1836.3164m14.28907.6836l1.54688-6.85547m-1.32032 5.85938l-1.18359.32422m14.21484.66015l1.66407-6.82812m-1.42188 5.83203l-1.1914.30469m16.55859.46875l-2.92578-6.38672m2.5 5.46093l-.74219.97266m16.17969-1.70313l-6.32031-3.07421m5.40234 2.6289l.04297 1.22657m12.10937 1.02734l-2.15625-6.6875m1.84375 5.71484l-.85547.8789m13.60938.25782l-.41016-7.01562m15.61328 6.33203L288.375 450.875m17.54687 5.60938l-4.28515-5.57032m18.95703 2.45313l-6.9961.66406m18.84376-3.19922l-4.0625 5.73438m3.47265-4.90235l1.21485.15625m9.22265-1.32812l2.875 6.41406m9.02344-5.26172l5.70703 4.10547m-4.875-3.50781l.16406-1.21485m13.16016-.21093l4.02344 5.76171m-4.02344-5.76171l1.11719-2.1836m11.86328 2.44922l4.6914 5.23438m-4.6914-5.23438l.84765-2.30469m-.16406 3.06641l.42188-1.15234m11.48828 1.29687l6.13672 3.42188m-6.13672-3.42188l.05078-2.45312m.84375 2.94922l.04687-2.45313m12.0586 2.71484l6.76562 1.90625m-6.76562-1.90625l-.51953-2.39843m13.71093 3.1289l7.01172.44531m-7.01172-.4453l-1.01171-2.23438m14.34765 2.03515l6.97266.84375m-6.97266-.84375l-.88672-2.28906m14.22657 2.09766l6.92187 1.22265m-6.92187-1.22265l-.75391-2.33203m14.02734 2.6953l7.00782.4961m-7.00782-.4961l-.99609-2.24218"/><g clip-path="url(#K)"><path fill="none" stroke="#000" stroke-linecap="round" stroke-linejoin="round" stroke-miterlimit="10" stroke-width=".5" d="M147.45703 439.76563L140.54297 441"/></g><path fill="none" stroke="#000" stroke-linecap="round" stroke-linejoin="round" stroke-miterlimit="10" stroke-width=".5" d="M156.53125 443.8086l1.5664-6.85157m-1.5664 6.85156l-2.36719.64063m15.92578-.59375l1.08203-6.94531m-1.08203 6.9453l-2.3203.8047m15.4453-.83985l1.46094-6.875m-1.46094 6.875l-2.35547.67578m15.8672-.64062l1.0664-6.94531m-1.0664 6.9453l-2.31641.8125m15.23828-.89452l1.85547-6.77735m-1.58594 5.78907l-1.19531.26953m15.8203.78125l-1.30468-6.90625m1.11328 5.90234l-.95703.76563m15.26172-.01563l-2.90234-6.39844m2.48047 5.46875l-.75.97266m14.35546.01562l-2.64062-6.51171m2.25781 5.5625l-.78906.9414m11.36719-.23047l3.60156-6.03515m-3.07813 5.15625l-1.22656-.0625m13.4414.51172l4.75391-5.17579m-4.0625 4.42188l-1.1875-.3086m12.67579-1.48046l7.02734-.08985m-6.0039.07422l-.58985-1.07422m13.16797-.35156l6.45312 2.78906m-5.51172-2.3828l-.10156-1.22267m14.625 5.5547l2.15625-6.6875m10.02735 6.07812l4.41406-5.46485m-3.77344 4.66797l-1.20312-.23047m12.5703-1.66015l7.02735-.08985m-6.0039.07422l-.58985-1.07422m13.1914-.39843l6.41016 2.8828m-6.41015-2.8828l-.16016-2.44532m14.22266 1.375l4.91406 5.02344m-4.91406-5.02344l.7461-2.33593m12.74218 2.17968l4.57031 5.33985m-4.57031-5.33985l.89453-2.28515m11.95313 2.76953l5.5039 4.36719m-5.5039-4.3672l.4453-2.41405m12.54688 2.89843l6.14844 3.39844m-6.14844-3.39844l.03907-2.45312m12.91796 3.39844l6.86329 1.51171m-6.86329-1.51171l-.65625-2.36328m1.65625 2.58203l-.32812-1.1836m12.66797.85938l6.8164 1.71875m-6.8164-1.71875l-.58594-2.38281m1.57813 2.6328l-.29297-1.1914m12.75.52344l6.54687 2.55469m-6.54687-2.5547l-.28516-2.4375m13.41016 3.13282l6.92968 1.16797m-6.92968-1.16797l-.77735-2.32812"/><g clip-path="url(#L)"><path fill="none" stroke="#000" stroke-linecap="round" stroke-linejoin="round" stroke-miterlimit="10" stroke-width=".5" d="M145.4336 423.85938l-2.8672 6.41796"/></g><path fill="none" stroke="#000" stroke-linecap="round" stroke-linejoin="round" stroke-miterlimit="10" stroke-width=".5" d="M156.27734 430.42578l2.07813-6.71484m9.6211 5.66015l5.30468-4.60546m-4.53125 3.9375l-1.14453-.44141m13.94922 1.3789l4.78125-5.14453m-4.08594 4.39844l-1.1875-.3164m15.59766 1.95312l1.19922-6.92578m-1.19922 6.92578l-2.33203.76172m16.66015-.73438l-.82422-6.98046m.70313 5.96484l-1.00781.69922m14.21875.33594l-.375-7.01954m.3203 5.9961l-1.05077.63281m12.05859-.35937l4.35156-5.51954m7.73438 3.63672l6.80469-1.7539m7.08203 2.95312l5.66406-4.15234m-4.83984 3.55078l-1.10547-.53516m13.28906-2.51953l6.27734 3.16016m7.54688-3.91016l5.26172 4.66016m-4.4961-3.98047l.28516-1.19531m12.75.0625l4.28906 5.5664m-3.66406-4.75781l.5039-1.11719m11.57813.91016l5.5039 4.36328m-4.70312-3.73047l.22266-1.20703m12.95312-.0664l4.1836 5.64453m-3.57422-4.82422l.52734-1.10547m11.83203.57422l4.8711 5.0664M342 425.27344l.3789-1.16797m12.48048.21094l4.36328 5.5078m-4.36328-5.5078l.98437-2.25m12.23828 2.32422l4.55078 5.35546m-4.55078-5.35546l.90235-2.28125m11.53125 3.41406l6.3125 3.08984m-6.3125-3.08984l-.08204-2.45313m13.89844 1.69532l5.3086 4.60546m-5.3086-4.60546l.54688-2.39063m.22656 3.0625l.27344-1.19531m12.35937.42187l5.125 4.8086m-5.125-4.8086l.64063-2.36718m11.96484 3.49609l6.54688 2.55078m-6.54688-2.55078l-.28906-2.4375m14.16015 1.48437l5.4336 4.45704m-5.4336-4.45704l.48438-2.40625m12.67969 2.60547l5.73828 4.0586m-5.73828-4.0586l.30859-2.4336m12.92578 2.55079l5.89453 3.82422m-5.89453-3.82422l.21485-2.44531"/><g clip-path="url(#M)"><path fill="none" stroke="#000" stroke-linecap="round" stroke-linejoin="round" stroke-miterlimit="10" stroke-width=".5" d="M147.1211 415.36328l-6.2422-3.22265"/></g><path fill="none" stroke="#000" stroke-linecap="round" stroke-linejoin="round" stroke-miterlimit="10" stroke-width=".5" d="M160.57813 412.45313l-6.52735 2.59765m5.57813-2.21875l.9375.79297m12.45703-2.4414l-4.78906 5.14062m4.09375-4.39453l1.18359.3164m9.86328 4.97266l1.14063-6.9336m-.97266 5.92579l-1.16406.39453m15.51172.60547l-1.26172-6.91406m1.07812 5.90625l-.96484.76171m12.6211.08594l2.42187-6.59375m-2.42188 6.59375l-2.42969.33594m15.13282-.63281l3.64843-6.00391m-3.64843 6.0039l-2.44922-.14062m15.21484-.26953l4.7461-5.1836m-4.7461 5.1836l-2.375-.60937m14.71484-.91407l6.69532-2.13281m-6.69531 2.13281l-1.75391-1.71484m15.82422 3.01562l5.1875-4.73437m-4.4336 4.04687l-1.15625-.41406m13.00391-.07812l6.61328-2.37891m-5.65234 2.03516l-.90625-.82422m13.27734-1.25l6.58203 2.45703m-5.625-2.09766l-.16015-1.21484m12.9414.05078l5.73047 4.0664M301.75 412.3125l.15625-1.21875m12.08203 1.01953l6.21485 3.27735m-5.3125-2.80079l-.00391-1.22656m12.60937.42969l5.83204 3.92187m-4.98438-3.35156l.125-1.21875m13.96094-.65625l2.59375 6.53125m-2.59375-6.53125l1.58984-1.8711m11.03125 2.2422l3.98047 5.78906m-3.98047-5.78906l1.1289-2.17579m11.77345 2.50782l4.80859 5.125m-4.8086-5.125l.78907-2.32422m11.89844 3.10937l6.0625 3.55469m-6.0625-3.55469l.10156-2.45312m.78125 2.96875l.05078-1.22266m12.11719 1.26563l6.58984 2.4375m-6.58984-2.4375l-.32813-2.4336m1.28516 2.78516l-.16406-1.21484m13.17578-.23829l5.28125 4.63672m-5.28125-4.63672l.5664-2.38671m12.80469 2.32812l5.17188 4.75781m-5.17188-4.75781l.61719-2.375m.13281 3.0664l.3086-1.1875m12.5039.25l4.67578 5.25m-4.67578-5.25l.85547-2.30077m-.17578 3.0664l.42578-1.15234m11.97656.61719l5.14453 4.78906m-5.14453-4.78906l.63281-2.3711m12.62891 2.42969l5.25 4.66797m-5.25-4.66797l.57813-2.38281m.18359 3.0625l.28906-1.19141"/><g clip-path="url(#N)"><path fill="none" stroke="#000" stroke-linecap="round" stroke-linejoin="round" stroke-miterlimit="10" stroke-width=".5" d="M147.38281 401.38281l-6.76562-1.88672"/></g><path fill="none" stroke="#000" stroke-linecap="round" stroke-linejoin="round" stroke-miterlimit="10" stroke-width=".5" d="M147.38281 401.38281l.53125 2.39453m12.85547-3.97656l-6.91016 1.27735m6.91016-1.27735l1.52734 1.91797m11.7422-2.125l-6.82032 1.6914m6.82031-1.6914l1.64063 1.82422m11.77734-1.03906l-7.02344.12109m6.00391-.10547l.59375 1.07422m9.1875 2.32422l2.08594-6.71094m-1.78516 5.73438l-1.20312.23046m13 .08204l4.51953-5.37891m-4.51953 5.3789l-2.40235-.51171m15.09766-.16406l5.75781-4.03125m-5.75781 4.03125l-2.1875-1.11329m3.02344.52735l-1.08985-.5586m13.75781 1.39063l5.37891-4.52344m-5.3789 4.52344l-2.27735-.91797m15.8164 1.16016l4.9297-5.00782m-4.9297 5.00782l-2.35155-.69922m3.0703-.02735l-1.17577-.35156m13.2539.42969l5.96875-3.70703m-5.96875 3.70703l-2.1211-1.23438m15.5 1.33594l5.83985-3.91015m-5.83984 3.91015l-2.16016-1.16015m15.42188 1.07421l5.94922-3.73828m-5.94922 3.73828l-2.1289-1.22265m14.91015-.4336l7.01562-.42968m-7.01562.42968l-1.28125-2.08984m14.59375 1.70313l7.01953.34375m-7.01953-.34375l-1.04297-2.21875m14.3789 2.80078l6.98047-.82032m-5.96484.70313l-.69922-1.00781m12.98828.39843l7 .63282m-7-.63282l-.95312-2.26171m14.60547 1.05078l6.32421 3.05468m-6.32421-3.05468l-.09766-2.45313m13.29687 2.71875l6.5586 2.52344m-6.5586-2.52344l-.29687-2.4336m14.85547.83204l4.07031 5.72656m-3.48047-4.89453l.55078-1.09375m11.89844.47656l4.6211 5.29688m-4.6211-5.29688l.8789-2.28906m12.21094 2.50781l5.07422 4.85938m-5.07422-4.85938l.66407-2.35937m12.55468 2.46094l5.26172 4.65625m-5.26172-4.65625l.57422-2.38672m13.375 1.82421l3.9961 5.78125m-3.9961-5.78125l1.12891-2.17968m12.89062 1.80469l2.58594 6.53515m-2.58594-6.53515l1.59375-1.8672m-1.21484 2.81641l.79297-.93359m11.29297.46875l4.28906 5.5664m-4.28906-5.5664l1.01172-2.23438m-.38672 3.04297l.5039-1.11718"/><g clip-path="url(#O)"><path fill="none" stroke="#000" stroke-linecap="round" stroke-linejoin="round" stroke-miterlimit="10" stroke-width=".5" d="M141.08984 389.09375l5.82032-3.9375"/></g><path fill="none" stroke="#000" stroke-linecap="round" stroke-linejoin="round" stroke-miterlimit="10" stroke-width=".5" d="M159.64844 389.75l-4.66406-5.2539m19.11718 3.17968l-6.9414-1.10547m5.92968.94531l.39844 1.16016m13.64453-.07812l-6.375-2.94922m6.375 2.94922l.13672 2.45312m11.38281-.70312l-2.78515-6.44922m2.3789 5.51172l-.76562.95703m14.9375-.2539l-3.6836-5.98048m3.14844 5.11328l-.6211 1.0586m12.7422.33203l-.22657-7.02344m.19532 6l-1.06641.60938m11.6289-.81641l5.33985-4.5664m-4.5625 3.90234l-1.14063-.44922m13.67188 1.10547l5.35547-4.55078m-5.35547 4.55078l-2.28125-.90625m3.0586.2461l-1.14063-.45313m13.13281.23828l6.44531-2.79688m-6.4453 2.79688l-1.92188-1.53125m2.85937 1.1211l-.96094-.76173m13.56641 1.61328l5.98828-3.67968m-5.98828 3.67968l-2.11328-1.24609m2.98437.70703l-1.05859-.6211m13.42578 1.02344l6.14453-3.41015m-6.14453 3.41015l-2.0586-1.33593m2.95313.83984l-1.03125-.66797m13.03907-.07812l6.96875-.92578m-6.96875.92578l-1.42579-1.9961m14.73829 1.11329l6.97656.83984m-5.96485-.71485l-.4414-1.14453m12.7539 1.9297l6.95704-.98048m-6.95704.98047l-1.4453-1.98437m14.74218 1.84375l6.99219-.69922m-5.97657.59765l-.67968-1.01953m12.96093.74219l7.02735.0625m-6.0039-.05469l-.56641-1.08984m13.45312-.84766l5.83594 3.91797m-4.98438-3.34765l.125-1.21875m13.80469-.58985l2.90625 6.39844m-2.48437-5.46875l.75-.97266m11.35156.53516l4.48828 5.41015m-3.83594-4.62109l.46875-1.13672m11.9375.58594l5.0039 4.9336m-5.0039-4.9336l.69922-2.35156m14.9336 1.3086l.36328 7.01952m-.36329-7.01953l2.10547-1.26172m12.61328 1.47656l-2.4414 6.58985m2.08594-5.6289l1.21484-.16407m9.96484-.77734l2.54297 6.55078m-2.54297-6.55078l1.60157-1.85938m13.23828 1.6289l-.50782 7.01173m.50782-7.01172l2.24218-.99219"/><g clip-path="url(#P)"><path fill="none" stroke="#000" stroke-linecap="round" stroke-linejoin="round" stroke-miterlimit="10" stroke-width=".5" d="M147.41406 372.98047l-6.82812 1.65625"/></g><path fill="none" stroke="#000" stroke-linecap="round" stroke-linejoin="round" stroke-miterlimit="10" stroke-width=".5" d="M147.41406 372.98047l1.6289 1.83594m-2.62108-1.59375l.8125.91406m13.59375-.39063l-7.02735.125m6.0039-.10937l.59766 1.07422m10.47657 2.47656l-.4961-7.00781m.42188 5.98828l-1.03906.65234m12.17968-.25l4-5.77344m-4 5.77344l-2.4375-.28515m18.14063.89062l-.77735-6.98437m.66407 5.96875l-1.01172.6914m17.5039-2.51172l-6.90234-1.3125m5.89844 1.1211l.36328 1.17187m11.32812 1.77735l-1.64843-6.82813m1.41015 5.83594l-.91797.8125m12.5.08594l2.29688-6.64063m-1.96484 5.67578l-1.21094.1875m13.83984.63281l3.0039-6.35156m-3.0039 6.35156l-2.45312.11329m14.6328-.96485l5.26954-4.64844m-5.26953 4.64844l-2.29688-.86328m15.9336 1.1836l4.6289-5.28907m-4.6289 5.28906l-2.38672-.55859m15.57422.4375l4.88672-5.05078m-4.88672 5.05078l-2.35938-.67578m3.07031-.0586l-1.17968-.33984m13.36328.58985l5.72656-4.07813m-5.72656 4.07813l-2.19531-1.09766m15.0078.0625l6.73048-2.00781m-6.73047 2.00781l-1.72656-1.7461m17.45703 4.125l1.90234-6.76562m9.45703 5.35938l5.8086-3.95313m7.69921-.2539l5.42579 4.46093m-4.63672-3.8125l.24218-1.20312m13.58594-.4336l2.82031 6.4375m-2.41015-5.5l.76172-.96484m11.05468.77734l5 4.9375m-4.27343-4.21875l.35156-1.17578m12.45703.25l4.5586 5.35156m-3.89454-4.57421l.45313-1.14063m14.39062-.47265l.17578 7.02343m-.15234-6.0039l1.07031-.60157m11.66797-.35937l1.28125 6.90625m-1.09765-5.90235l.96093-.76562m10.52735.54297l4.5664 5.34375m-4.5664-5.34375l.89843-2.28125m11.69532 3.1289l6.00781 3.64844m-5.13281-3.11719l.07031-1.22656m13.34766-.35156l4.05468 5.74219m-3.46484-4.90625l.55078-1.09375"/><g clip-path="url(#Q)"><path fill="none" stroke="#000" stroke-linecap="round" stroke-linejoin="round" stroke-miterlimit="10" stroke-width=".5" d="M146.72266 358.27344l-5.44532 4.4375"/></g><path fill="none" stroke="#000" stroke-linecap="round" stroke-linejoin="round" stroke-miterlimit="10" stroke-width=".5" d="M146.72266 358.27344l2.26172.95312m-3.0547-.3086l2.26173.95313m-3.05078-.30468l1.1289.47656m13.95313-1.51953l-5.81641 3.9414m5.8164-3.9414l2.17188 1.14844m-3.01562-.57422l2.16797 1.14843m9.51171-3.24218l-.85547 6.97656m.73047-5.96094l1.14453-.4375m8.8711 4.74219l5.99219-3.66406m-5.1211 3.1328l-1.0586-.625m14.01954 1.81642l4.95703-4.98047m-4.95703 4.98046l-2.34766-.71093m17.9961 1.73047l.29297-7.01954m-.29297 7.01954l-2.21485 1.05859m14.3711-1.3086l2.60937-6.52343m-2.23047 5.57422l-1.21875.13281m13.65235.57031l3.61328-6.02734m-3.08594 5.14844l-1.22656-.0625m16.86719 1.28125l-2.09375-6.70704m1.78906 5.73047l-.86328.8711m16.52344-1.57031L260.75 358.8164m6.17188 3.35546l-.02344 2.45313m13.48437-2.75781l-6.46484-2.75m6.46484 2.75l.21485 2.44531m12.21093-1.19922l-4.6875-5.23828m4.6875 5.23828l-.84765 2.30078m14.72265-2.9414l-5.80859-3.95704m5.8086 3.95704l-.26563 2.4375m13.58984-2.44922l-5.82422-3.9375m5.82422 3.9375l-.26172 2.4414m14.16407-4.73828l-6.9961.65625m5.97656-.5586l.67579 1.02345m6.67968-.3125l6.96094-.96094m6.32031.4414l7.02735.07813m-6.0039-.0664l-.56642-1.08985m12.94532.34375l6.85156 1.55078m-5.85547-1.32422l-.32422-1.1836m13.48047 4.10938l5.17578-4.7539m-4.42187 4.0625l-1.15625-.41016m13.77343-3.71094l5.06641 4.8711m-4.32812-4.16406l.33593-1.1797m13.0586-.16015l3.4336 6.13281m-2.9336-5.23828l.66015-1.03125m11.42578.6836l4.89063 5.04296m-4.17969-4.3125l.375-1.16406m11.71485 1.0586l5.91796 3.78906m-5.91796-3.78906l.19921-2.44532m13.16016 2.37891l5.83203 3.92188m-4.98437-3.35157l.125-1.21875m11.76172 2.98047l6.98828-.74219m-5.96875.63672l-.6875-1.01562"/><g clip-path="url(#R)"><path fill="none" stroke="#000" stroke-linecap="round" stroke-linejoin="round" stroke-miterlimit="10" stroke-width=".5" d="M146.46094 344.66797l-4.92188 5.01953"/></g><path fill="none" stroke="#000" stroke-linecap="round" stroke-linejoin="round" stroke-miterlimit="10" stroke-width=".5" d="M146.46094 344.66797l2.35156.69531m-3.0664.03516l2.35156.69531m-3.07032.03516l1.17578.34765m13.75-1.6211L154.6797 349.5m5.27344-4.64453l2.29687.86328m-3.0664-.1875l2.29687.86328m11.6875-1.64453l-5.07813 4.85547m5.07813-4.85547l2.33203.76953m-3.07031-.0625l2.33203.76953m11.54687-1.64844l-4.72656 5.19922m4.72656-5.19921l2.37891.60546m-3.0664.15235l1.1875.30078m8.08593 4.14062l4.73047-5.1953m-4.04297 4.4375l-1.1875-.3047m15.35938 1.87891l1.64453-6.83203m-1.64453 6.83203l-2.375.61328m17.14453-.57422l-1.26563-6.91015m1.08203 5.90625l-.96484.76171m10.80469-1.42578l6.05078-3.57421m-6.05078 3.57421l-2.09375-1.27734m16.32812 2.30078l4.21485-5.6211m-3.60157 4.8047l-1.21484-.19141m18.36328.8164l-4.67969-5.23828m4 4.47657l-.42578 1.15234m15.01953-1.08203l-5.8789-3.85156m5.8789 3.85156l-.22265 2.4414m13.66015-2.64453l-6.125-3.4453m6.125 3.4453l-.05859 2.45313m13.8164-4.42969l-7.0078.5039M306.26562 347l.65234 1.03906m13.6914-.78906l-7.02734-.14453m6.0039.125l.5547 1.09375m13.65234-.19922l-6.76563-1.89453m5.78125 1.61719l.26563 1.19921m7.26172-2.79296l6.78125 1.84765m6.41406-.75l7.01953-.34375m-5.9961.29297l-.6289-1.05469m12.92578 1.20704l7.00782-.55079m-7.00782.55079l-1.3164-2.07032m2.33593 1.99219l-.65625-1.03516m13.40235 2.57422l6.10937-3.46875m-6.10937 3.46875l-2.07422-1.3164m15.02344.39062l6.83984-1.6211m-5.84375 1.38673l-.8125-.92188m13.04297.53516l7.01562-.375m-5.99609.32031l-.63281-1.05469m14.90234-2.24219l3.0664 6.32422m-2.61718-5.40234l.72266-.99219m10.88672 5.36328l5.58203-4.26171m-4.76953 3.64453l-1.1172-.51172m12.91016-1.29688l7 .58985m-7-.58985l-.96484-2.2539m1.98438 2.33984l-.48438-1.1289m13.125-.21094l6.3086 3.09765m-6.3086-3.09765l-.07812-2.45313"/><g clip-path="url(#S)"><path fill="none" stroke="#000" stroke-linecap="round" stroke-linejoin="round" stroke-miterlimit="10" stroke-width=".5" d="M145.32031 330.60938l-2.64062 6.5078"/></g><path fill="none" stroke="#000" stroke-linecap="round" stroke-linejoin="round" stroke-miterlimit="10" stroke-width=".5" d="M145.32031 330.60938l2.4414-.25391m-2.82421 1.19922l2.4414-.2539m12.30079-.03517l-4.73047 5.19532m4.73047-5.19531l2.3789.60546m-3.0664.14844l1.1875.30469m13.04297-.83203l-5.1836 4.74219m5.1836-4.7422l2.3125.82032m10.57812-1.21484l-4.33594 5.53125m4.33594-5.53125l2.41406.42968m10.94922-.39062l-4.4336 5.45312m4.4336-5.45312l2.41016.47265m-3.05469.32032l1.20313.23828m14.03515 2.03515l-6.99219-.67968m6.9922.67969l.9375 2.26953m6.47655-.05079l4.8125-5.11718m-4.8125 5.11719l-2.36718-.64454m3.0664-.09765L221 335.35547m13.8711 1.13281l4.66796-5.25m-3.98828 4.48828l-1.1914-.28906m12.88671-.30078l6.54688-2.55078m-6.54688 2.55078l-1.85937-1.59766m18.32031 3.83594l.25781-7.02344m-.21875 6l-1.10546.53516m14.76953.48047l-.51953-7.00781m.51953 7.0078l-2.07813 1.3086m14.33985-1.39062l1.58593-6.84375m-1.58594 6.84375l-2.37109.6328m19.96094-3.57812l-6.96094-.95312m5.94922.8125l.42188 1.15234m7.8828-3.91406l5.08595 4.85156m8.30078-4.92578l4.9375 5m-4.21875-4.27344l.36718-1.17187m11.62891 1.23437l6.14063 3.42188m-5.2461-2.92578l.02344-1.22656m11.96484 2.17187l7.0039.53516m-7.0039-.53516l-.98437-2.2461m14.32812 3.03516l6.94922-1.03906m-6.94922 1.03906l-1.46093-1.97265m15.17578 3.15234l6.14843-3.39844m-6.14843 3.39844l-2.0586-1.33594m2.95313.84375l-1.02735-.67187m13.25782.76953l6.52734-2.60938m-6.52734 2.60938l-1.8711-1.58203m2.82032 1.20312l-.9375-.79297m13.05468-.05078l7.02344-.16797m-7.02344.16797l-1.20312-2.13672m14.85156.5547l6.35547 3m-6.35547-3l-.11719-2.44923m13.22266 3.01563l6.77344 1.86719m-6.77344-1.8672l-.53125-2.39843m13.9375 4.54688l6.59375-2.4297m-6.59375 2.4297l-1.82813-1.63672m14.9297.58203l7.01952-.32031m-7.01953.3203l-1.25-2.11327m2.27344 2.0664l-.625-1.05469"/><g clip-path="url(#T)"><path fill="none" stroke="#000" stroke-linecap="round" stroke-linejoin="round" stroke-miterlimit="10" stroke-width=".5" d="M143.47656 317.07422l1.04688 6.94922"/></g><g clip-path="url(#U)"><path fill="none" stroke="#000" stroke-linecap="round" stroke-linejoin="round" stroke-miterlimit="10" stroke-width=".5" d="M143.47656 317.07422l1.96875-1.46485"/></g><g clip-path="url(#V)"><path fill="none" stroke="#000" stroke-linecap="round" stroke-linejoin="round" stroke-miterlimit="10" stroke-width=".5" d="M143.6289 318.08594l.98438-.73438"/></g><path fill="none" stroke="#000" stroke-linecap="round" stroke-linejoin="round" stroke-miterlimit="10" stroke-width=".5" d="M157.26172 317.03516l.10547 7.02734m-.10547-7.02734l2.14844-1.1836m-2.13282 2.20703l1.07422-.59375m13.7461-.10937l-2.9375 6.38281m2.51172-5.45312l1.22656-.07032m11.90625-1.07421l-1.71875 6.8125m1.46875-5.82032l1.1914-.29297m14.03125.25782l-5.03515 4.89843m4.30469-4.18359l1.16796.375m13.14844-.78125l-5.57422 4.28125m4.76172-3.65625l1.11719.50781m13.38281-.53125l-6.32031 3.07813m6.32031-3.07813l1.98438 1.44531m11.19922-1.6875l-6.0586 3.5625m6.0586-3.5625l2.08984 1.28516m-2.97266-.76562l1.04688.64062m13.2539-.97265l-6.26172 3.1875m5.35157-2.72266l1.0039.70312m7.08985 2.25782l5.9961-3.66407m-5.1211 3.13282l-1.0586-.625m13.98829 1.78515l5.01953-4.91797m-5.01953 4.91797l-2.33985-.74219m15.79297.875l4.74219-5.1875m-4.74219 5.1875l-2.375-.60937m17.1875 1.41797l1.75-6.80469m-1.4961 5.8164l-1.1914.28907m12.64453-.21875l4.96875-4.96875m-4.2461 4.2461l-1.17577-.35938m12.76562-.96485l6.97266-.875m-6.97266.875l-1.41406-2.0039m14.71094 1.83984l7.0078-.54687m-7.0078.54687l-1.31641-2.07031m14.625 1.96094l7.01953-.32813m-7.01953.32813l-1.25-2.10938m2.26953 2.0625l-.625-1.05469m12.91797.95704l7.02734-.03907m-7.02734.03907l-1.16406-2.16016m14.53515 1.5l6.91016 1.28125m-5.90234-1.09375l-.3711-1.17188m12.91407 3.03125l6.4414-2.8125m-6.4414 2.8125l-1.92188-1.52343m2.85938 1.11328l-.96094-.76172m13.69531 1.80469l5.72656-4.07422m-5.72656 4.07422l-2.1914-1.09766m17.78124-4.40234l1.1797 6.92578m-1.1797-6.92578l1.94141-1.5m11.83594 1.44922l.2539 7.02343m-.2539-7.02343l2.125-1.22657m11.55078 1.23438l-.46875 7.01172m.40234-5.99219l1.11719-.5039m8.63281 2.09374l6.79297 1.79297m-6.79297-1.79297l-.5625-2.39062"/><path fill="#00f" fill-rule="evenodd" d="M268.40234 472.08594h8.6211V461.9414h-8.6211v10.14453"/><path fill="azure" fill-rule="evenodd" d="M270.23438 463.77344h.83593v2.82422h3.28516v-2.82422h.83203v6.48047h-.83203v-2.91797h-3.28516v2.91797h-.83594v-6.48047"/><path fill="#ff3030" fill-rule="evenodd" d="M362.30469 454.33203h7.6914V444.1875h-7.6914v10.14453"/><path fill="azure" fill-rule="evenodd" d="M364.13672 446.01953h.83203v5.73828h3.19531V452.5h-4.02734v-6.48047"/><path fill="#00f" fill-rule="evenodd" d="M383.80078 432.14063h8.61719v-10.14454h-8.61719v10.14454"/><path fill="azure" fill-rule="evenodd" d="M385.63281 423.82813h.83203v2.82421h3.28907v-2.82421h.83203v6.48046h-.83203v-2.91796h-3.28907v2.91796h-.83203v-6.48046"/><path fill="#00f" fill-rule="evenodd" d="M219.58203 414.38672h8.61719v-10.14453h-8.61719v10.14453"/><path fill="azure" fill-rule="evenodd" d="M221.41406 406.07422h.83203v2.82422h3.28907v-2.82422h.83203v6.48047h-.83203v-2.91406h-3.28907v2.91406h-.83203v-6.48047"/><path fill="#00f" fill-rule="evenodd" d="M366.04688 401.07422h8.61718v-10.14844h-8.61719v10.14844"/><path fill="azure" fill-rule="evenodd" d="M367.8789 392.76172h.83594v2.82031H372v-2.82031h.83203v6.47656H372v-2.91406h-3.28516v2.91406h-.83593v-6.47656"/><path fill="#ff3030" fill-rule="evenodd" d="M193.64453 343.375h7.69531v-10.14844h-7.6953V343.375"/><path fill="azure" fill-rule="evenodd" d="M195.47656 335.0625h.83594v5.73828h3.1914v.74219h-4.02734v-6.48047"/><path fill="#ffffe0" fill-rule="evenodd" d="M248.53906 366.23828h22.17969v-10.19531h-22.17969v10.19531"/><path fill-rule="evenodd" d="M252.03906 357.8789h.50781v6.29298h-.78515v-4.48829h-1.39063v-.55468l.5586-.06641.2539-.05469.23047-.08984.20313-.14063.17187-.21093.14453-.29297.10547-.39453m4.8125 0l.23047.01953.21875.05469.20703.08984.19531.1211.1836.14843.17187.17578.3047.41797.24218.4961.17969.54296.10937.58203.03906.58985-.03906.59375-.10937.58203-.1797.55469-.24218.5039-.30469.42578-.17187.1797-.1836.15624-.1953.1211-.20704.09375-.21875.05468-.23047.01953-.23047-.01953-.21875-.05469-.20703-.09375-.19531-.12109-.1836-.15625-.17187-.17969-.30469-.42578-.24218-.5039-.1797-.5547-.10937-.58202-.03906-.59375h.83203l.02735.5625.08203.50781.1289.4414.16016.375.1914.30079.21094.22265.22266.13672.22656.04688.22656-.04688.22266-.13672.21094-.22265.1914-.30078.16016-.375.1289-.44141.07813-.50781.03125-.5625-.03125-.5625-.07812-.5-.1289-.4336-.16017-.36718-.1914-.29297-.21094-.21094-.22265-.13281-.22657-.04688-.22656.04688-.22266.13281-.21093.21094-.19141.29297-.16016.36718-.1289.4336-.08203.5-.02735.5625h-.83203l.03906-.58985.10938-.58203.17969-.54297.24218-.49609.3047-.41797.17187-.17578.18359-.14844.19531-.1211.20703-.08983.21875-.0547.23047-.01952m5.08985 0h.51171v6.29296h-.78906v-4.48828h-1.38672v-.55468l.5586-.06641.2539-.05469.22657-.08984.20703-.14063.17187-.21093.14063-.29297.10547-.39453m2.82421 2.17578h.78907l.01953-.3164.0586-.28907.09765-.25.14062-.21485.1797-.17578.22655-.1289.26563-.08203.30469-.02735.23828.02344.22656.0625.20313.10156.17968.13672.14844.17578.11328.20313.07031.23828.02344.26172-.01953.26953-.0664.22656-.10938.1914-.15625.17188-.19922.16016-.2461.16797-.63671.38672-.53516.3125-.4375.3203-.34765.32423-.26563.33594-.1875.34765-.125.3711-.07031.39453-.01953.41796h4.21093v-.73828h-3.33203l.08203-.28515.11329-.23828.14843-.19922.1875-.1836.23047-.16796.27735-.17579.71875-.41796.41406-.20704.34765-.23046.28125-.25.21875-.26563.16407-.28125.10937-.28125.0664-.28516.01954-.28125-.04297-.3828-.1211-.34767-.1875-.30859-.25-.26562-.30468-.21094-.34375-.16016-.38281-.09765-.40625-.03125-.4336.03125-.39844.09765-.35546.16797-.3047.23438-.24608.30468-.1875.375-.1172.44532-.03906.51953"/><path fill="#ffffe0" fill-rule="evenodd" d="M350.6211 350.92188h22.17968v-10.19141H350.6211v10.1914"/><path fill-rule="evenodd" d="M354.1211 342.5664h.5078v6.29298h-.78515v-4.48829h-1.39063v-.55859l.5586-.0625.2539-.05469.23047-.08984.20313-.14063.17187-.21093.14454-.29297.10546-.39453m4.8125 0l.23047.01562.21875.0586.20703.08984.19532.11719.18359.15234.17188.17578.30468.41797.24219.49219.17969.54687.10937.58203.03906.58985-.03906.59375-.10937.58203-.17969.55469-.24219.5039-.30469.42578-.17187.1797-.1836.15233-.1953.125-.20704.09375-.21875.0547-.23047.01952-.23046-.01953-.21875-.05469-.20704-.09375-.1953-.125-.1836-.15234-.17188-.17969-.30469-.42578-.24218-.5039-.17969-.5547-.10938-.58202-.03906-.59375h.83203l.03125.5625.07813.50781.1289.4414.16016.375.1914.30079.21094.21875.22266.14062.22656.04688.22657-.04688.22265-.14062.21094-.21875.1914-.30078.16016-.375.1289-.44141.08204-.50781.02734-.5625-.02734-.5625-.08203-.5-.1289-.4336-.16016-.36718-.19141-.29297-.21094-.21485-.22265-.1289-.22657-.04688-.22656.04688-.22265.1289-.21094.21485-.1914.29297-.16017.36718-.1289.4336-.07813.5-.03125.5625h-.83203l.03906-.58985.10938-.58203.17969-.54687.24219-.49219.30468-.41797.17188-.17578.1836-.15234.1953-.1172.20704-.08983.21875-.0586.23046-.01562m5.08985 0h.51172v6.29296h-.78907v-4.48828h-1.38671v-.55859l.55859-.0625.2539-.05469.22657-.08984.20703-.14063.17187-.21093.14063-.29297.10547-.39453m2.82422 2.17187h.78906l.01953-.3164.0586-.28516.09765-.25.14063-.21875.18359-.17188.22265-.1289.26563-.08203.30469-.02735.23828.02344.22656.0625.20313.10156.17968.13672.14844.17578.11328.20313.07031.23828.02735.26172-.02344.26953-.0664.22656-.10938.1914-.15625.17188-.19922.16016-.2461.16797-.63671.38672-.53516.3125-.4375.3164-.34765.32813-.26563.33594-.1875.34765-.125.3711-.07031.39453-.01953.41796h4.21094v-.74218h-3.33204l.08204-.28125.11328-.23828.14843-.20313.1875-.17969.23047-.17187.27735-.17578.71875-.41406.41406-.20704.34765-.23046.28125-.25.21875-.26954.16407-.27734.10937-.28125.0664-.28516.01954-.28125-.04297-.3828-.1211-.35157-.1875-.30469-.25-.26562-.30468-.21094-.34375-.16016-.3789-.09765-.41016-.03125-.4336.03125-.39843.09765-.35547.16797-.30469.23438-.2461.30468-.1875.3711-.11327.44922-.04297.51562"/></g></defs><use xlink:href="#W"/></svg>