<svg xmlns="http://www.w3.org/2000/svg" role="img" xmlns:xlink="http://www.w3.org/1999/xlink" viewBox="142.45 309.95 326.84 171.84"><defs><clipPath id="a"><path d="M144 311.67188h1v168.65625h-1zm0 0"/></clipPath><clipPath id="b"><path d="M144 311.67188h324v168.65625H144zm0 0"/></clipPath><clipPath id="c"><path d="M467 311.67188h1v168.65625h-1zm0 0"/></clipPath><clipPath id="d"><path d="M144 477h3v3.32813h-3zm0 0"/></clipPath><clipPath id="e"><path d="M155 477h5v3.32813h-5zm0 0"/></clipPath><clipPath id="f"><path d="M168 476h5v4.32813h-5zm0 0"/></clipPath><clipPath id="g"><path d="M182 476h4v4.32813h-4zm0 0"/></clipPath><clipPath id="h"><path d="M195 476h5v4.32813h-5zm0 0"/></clipPath><clipPath id="i"><path d="M209 476h4v4.32813h-4zm0 0"/></clipPath><clipPath id="j"><path d="M221 477h6v3.32813h-6zm0 0"/></clipPath><clipPath id="k"><path d="M234 477h7v3.32813h-7zm0 0"/></clipPath><clipPath id="l"><path d="M247 477h7v3.32813h-7zm0 0"/></clipPath><clipPath id="m"><path d="M260 477h7v3.32813h-7zm0 0"/></clipPath><clipPath id="n"><path d="M274 478h7v2.32813h-7zm0 0"/></clipPath><clipPath id="o"><path d="M287 478h7v2.32813h-7zm0 0"/></clipPath><clipPath id="p"><path d="M300 477h7v3.32813h-7zm0 0"/></clipPath><clipPath id="q"><path d="M313 478h8v2.32813h-8zm0 0"/></clipPath><clipPath id="r"><path d="M327 478h7v2.32813h-7zm0 0"/></clipPath><clipPath id="s"><path d="M340 478h7v2.32813h-7zm0 0"/></clipPath><clipPath id="t"><path d="M355 476h4v4.32813h-4zm0 0"/></clipPath><clipPath id="u"><path d="M369 476h2v4.32813h-2zm0 0"/></clipPath><clipPath id="v"><path d="M382 476h4v4.32813h-4zm0 0"/></clipPath><clipPath id="w"><path d="M393 478h8v2.32813h-8zm0 0"/></clipPath><clipPath id="x"><path d="M406 478h8v2.32813h-8zm0 0"/></clipPath><clipPath id="y"><path d="M419 479h9v1.32813h-9zm0 0"/></clipPath><clipPath id="z"><path d="M420 478h2v2.32813h-2zm0 0"/></clipPath><clipPath id="A"><path d="M433 479h8v1.32813h-8zm0 0"/></clipPath><clipPath id="B"><path d="M433 479h2v1.32813h-2zm0 0"/></clipPath><clipPath id="C"><path d="M446 478h8v2.32813h-8zm0 0"/></clipPath><clipPath id="D"><path d="M446 480h3v.32813h-3zm0 0"/></clipPath><clipPath id="E"><path d="M459 478h9v2.32813h-9zm0 0"/></clipPath><clipPath id="F"><path d="M460 480h2v.32813h-2zm0 0"/></clipPath><clipPath id="G"><path d="M144 463h2v8h-2zm0 0"/></clipPath><clipPath id="H"><path d="M144 469h2v2h-2zm0 0"/></clipPath><clipPath id="I"><path d="M144 449h1v9h-1zm0 0"/></clipPath><clipPath id="J"><path d="M144 455h1v2h-1zm0 0"/></clipPath><clipPath id="K"><path d="M144 439h4v3h-4zm0 0"/></clipPath><clipPath id="L"><path d="M144 423h2v8h-2zm0 0"/></clipPath><clipPath id="M"><path d="M144 409h1v9h-1zm0 0"/></clipPath><clipPath id="N"><path d="M144 398h4v5h-4zm0 0"/></clipPath><clipPath id="O"><path d="M144 384h4v6h-4zm0 0"/></clipPath><clipPath id="P"><path d="M144 372h4v3h-4zm0 0"/></clipPath><clipPath id="Q"><path d="M144 357h3v7h-3zm0 0"/></clipPath><clipPath id="R"><path d="M144 344h3v6h-3zm0 0"/></clipPath><clipPath id="S"><path d="M144 330h2v8h-2zm0 0"/></clipPath><clipPath id="T"><path d="M144 316h1v9h-1zm0 0"/></clipPath><clipPath id="U"><path d="M144 315h2v3h-2zm0 0"/></clipPath><clipPath id="V"><path d="M144 317h1v2h-1zm0 0"/></clipPath><g id="W" clip-path="url(#clip1)"><path fill="#fff" fill-opacity="0" fill-rule="evenodd" d="M0 0h1000v1000H0zm0 0"/><path fill="#d3d3d3" fill-opacity="0" fill-rule="evenodd" d="M162.15234 355.86719l-.23437.29297.0586.23437.11718.17188.17578.23437.29297.34766.11328.0586.11719-.17188.0586-.23438.17577-.17578.46485-.17578h.69922l.23437.29297.28906.8164.0586.17579.17578.23046.35156.23438.69922.69922.17188.17578.23437.34765.23438.41016.28906.58203.41015.46485.23047.23437.23438.17578.11719.23047.17578.29297.17187 1.16406v.23438l.0586.28906.05859.11719.11719.11719.34765.41015.11719.17188.17578.17578.17578.23437.11719.17188.17188.35156.05859.23438.23437.40625.23438-.0586-.17578.17578-.0586.92969h-.58203l-.23437-.11328-.34766.11328-.11719.11719-.05859.29297-.0586.17578-.11718.17187-.46484.29297-.0586.23438-.0586.11328v.64453l.0586.17187v.41016l.0586.0586v.40624l.05859.40625.11719.17579.05859.05859.23047.64062-.0586.29297v.69922l-.05859.58203v.23438l-.0586.23047-.05468.35156v1.92187l.05469.1172h.42578l-.36719.11718-.02344.35156.89063 1.16797 1.74219.53906 1.33984.35938v.53906l.08984.8086.53516.71484 1.51953.26953.89063-.08594.08984 1.16406.53516.1797 1.16015-.1797 2.05469-.98437 1.16016-.36328 1.8789-.17578 1.69531-.1797-.17968.71876-1.51563.08594-1.25.08984-.80469.26953-1.07421.8086.26953.71875.53515.89843-.17968.625-.26563.8086.26563 1.07812.625.89844.80468.17969 1.25-.1797-.26562.72267.09766.5039.05468.29297v.17188l.0586.29296v.40625l.17578.1172.35156.11718h.40625l.29297-.17578.11328-.11719.0586-.11719.11718-.23047.0586-.17578.35156-.46484.23047-.17578.17578-.0586.17578.0586.0586.17578.11718.98828.05469.46875.0586.17188.11718.23437.17578.0586.8164.05859h.28907l.11719.23437.05859.40625.0586.35156v1.10547l.11718.29297.11719.34766.28906.69922.17578.35156.58203.7539.35157.17579.17187.0586.46875.23437.64063.46484.34765.23438.29297.17578.29297.05468.23047.0625.8164.34766.29297.17578.11328.17188.35157.35156.11719.17578.52343.64063v.28906l.0586.35156v.34766l.05859.35156.0586.28906.11718.0586.17188.05859h.17578l.58203.23437.17578.1172.17578.28905.17578.23438.11328.23437.29297.23047.11719.11719v.41016l.0586.05468.28906.23438.23437.11719.0586.11718.11718.17188.0586.11719.23047.23437.05859.17578.23437.0586.1172.05859-.1172.11328-.05859.11719v.11719l-.11719.29296-.11719.28907v.58203l.17579.11719.11718.05859.0586.11719.11719.11719.11328.05859.17578.34765.0586.35157.05858.40625v.17578l-.05859.17578-.11719.69922v.17187l.1172.17579.29296.29296h.40625l.17578.1172.11719.17187.11719.29296v.23438h-.52735l-.23047-.23438h-.23437l-.17578.0586-.0586.69922.0586.34765.11719.17579.17578.41015.11718.23047.28907.46875.17578.05469h.52344l.23437.0586.75781.64062.0586.29296v.23438l.05859.0586.23047.34765v.35156l-.11719.17188v.29297l.29297.28906.29297.17578.17187.0586.29297.17577.29297.1172.58203.40624.28906.23438.29297.17578.21875.16015.01563.01172.23047.17579.64062.52343.17578.23438.1172.17578.17577.17578.11328.17188v.64062l.1172.17578.46874.11719.58203.11719.23438.05859.23047.11328.29297.11719.11328.0586.58593.35156.28907.17187.17578.0625.17578.05469.17578.0586.69922.35155.28906.17579.23438.05468.28906.17578.23437.1172.64063.40624.29297.11719.17187.0586.23438.05859.41015.05859.23047.0586.23438.11718.0586.17188-.41017.17578.46875.0586.0586.29296.11328.23438.17578.05468.23438.0586.17578.05859.40625.11719.64062.23437.11719.17188.0586.23437v.17578l-.0586.1172-.0586.40624.23438.23438.11719.05859.34766.11719.64062.23047.17578.11718.28906.1172.17578.17577.23438.46485.58203 1.10546.17578.17579.34766.17578.17578.11719.35156.11718 1.04688.52344.23437.0586.46485.11327.29297.0586.46484.17578.75781.58203.23438.23438.34765.46484.17578.17578.28907.23438.8164.69921.29297.17579.28906.28906.29297.17578.29297.28906.69531.64063.17578.17578.29297.23437.28907.23438.46875.28906.64062.58203.34766.23438.23437.29297.34766.34765.35156.46485.9336.99218.34765.40625.11719.17579.23437.05859.11328.11719.64454.17578.23047.11328.23437.0586.29297.17577.23047.1172.9336.69921.40624.40625.23438.17578.40625.17578.23437.11719.8164.34766.34766.23437.23438.11719.29297.28906.23047.11719.7578.35156.35157.17188.23047.05859.29297.11719.23437.0586.8711.17577h.8164l.46875.23047.17188.0586.875.69921.46484.1172.29297.05858.17578.0586.23047.0586.46875.05859.34766.05859.35156.0586.40625.05859h.29297l.17187.0586v.23046l.17578.17578h.29297l.34766.0586.35156.05859.69922.11719h.64063l.46484-.23438.29297-.17578.17187-.11719.41016-.17187.28906-.17578.9336-.46485.46875-.29297.52343-.29296.46485-.17188.46484-.17578 1.05078-.46485.28906-.11718.41016-.11719.28906-.11719.52735-.17578 1.51562-.69922.58203-.34765.28907-.0586.29297-.0586.34765-.11718.875-.23047.35156-.11719h.11329l.23437-.05859.875-.23437.23438-.0586h.8125l.35156-.0586.8164-.11718.17188-.0586.35156-.05468.29297-.0586.23047-.05859.8164-.17578.17579-.0586h.34765l.23438-.05859.46484-.11718.75781-.17188.23438-.0586h.34765l.41016-.11718.28906-.0586 1.28516-.05859h.28906l.41016-.0586.23047-.05858h.17578l.875-.1172h.40625l.41015-.11718h.34766l.35156-.11328.8711-.0586h1.75l1.04687.28907.41016.11719.28906.11718.35156.11719.28907.11719 1.05078.17187.28906.0586h.29297l.29297.05859.17187.0586.41016.05859.17187.0586.1172.05858h.11718l.11719.0586.35156.0586h.11328l.41016.0664 1.92187.39453 1.92578.39453 1.51953.44922 1.69532.71875 2.14453.80469 1.60547-.71875 1.42968-.80469 1.16016-1.07813 1.25-.44921 3.03516-.71875 1.875-.35938 2.14453-1.34765 2.23437-1.25391 2.5-1.25781 1.69531-.44922 1.78516-.17969 1.16016-.26953.625.53906 1.33984-.26953.71485-.98828.98437-1.34375.44531-.17969.80469-.35937 1.875-.53907 1.78516-.44921 1.25-.26954 1.16015-.08984 1.69922-.08984 1.96094-.26954 1.25-.08984h.53906l.625-.08984h.89063l2.14453-.17969 2.41015-.17969 2.58985-.08984 1.69531.17969 1.60938.08984 1.42968.35938 1.16016.71875 1.875.98828 1.16015 1.52734.26563.71484.6289.08985.35548.89844.53515.53906.53516 1.52734 1.07422.35938h.53515l-.80469.53515.08985 1.70703.71484 2.69532.89063.80468.89453.98829.71484 1.2578 1.78516.53907 1.51953-.17969.35547 1.34375 1.60937-.80469.98047-.53906.26953.26953.31641-.21484.21875-.14453.80078.44922.44922-.35938h.35547l.53515-.26953.53907-.71875.53515-.26953.625-.98828 1.16016.44922.83984.3711 1.39454.61718 1.6953-.17969h1.60548l1.78515.08985.17969-1.70704.53516-1.34375.80468.26954.4922.84765.40233.40625-.08984.53906v.35938l.71485.44922.71093-.26953h1.42969l.35938.98828.4453 1.25781.71485 1.34375 1.25.6289 1.69531.62891.71485-.17969.17969-.53906.98046-.08984.44922.35937.08594 1.25782-.26563.6289-.53515.17969v.53906l.71484.98438.26563.53906.98437.98828.80078 1.07813-.26562.35937-.08985.89844-.625 2.33203-.35546 2.0664-.08985 1.79298-.17969.71875-.08984.53906v1.4375l-.98047 1.88281-.35937 1.70703-.53516.89844-.80469 1.16797-.26562.53906 2.05469 1.2539.08593.35938-.35546.53906-.08985-.17968v.80859l.08985 1.4375-.44532.71484-1.07422.09375-.26562.71485.53515.89844.8047.71875 1.16015.80859 1.33984.26953.44531.35938-.35546.44921-1.78907-.08984-1.25-.44922-.71484-.71875-.625-.08984-.17578 3.58984-.1875 1.3086h89.35937V311.70313h-55.26953v49.08203l.76172.125 3.28906.54296 2.02344 2.83594v2.7539l2.35156.33204 2.34766.33203h4.05078l-1.3789 4.16016-2.02344.70703-2.02344.70312-.54297.34375-2.59375 1.6172-.1875.11718-2.02344-2.07813-.73046-2.74218-2.67188-2.07813-1.375-3.5-.0664-.08203-1.95704-2.67188 2.75-1.41796v-49.08204H294.42187v91.41407l.1172.03125.1328.01172.07422.07421.10547.04688.08985.0586.08593.05859.08985.0586.29687.29687.0586.08984.03125.11719.02734.11719.01563.13671-.03125.1172-.0586.08983-.0586.08594-.04296.10547-.04688.10156-.02734.1211v.14453l.17578.26953.14844.14844.07422.08594.07422.07421.04296.10547.0625.08985.0586.08593.04297.10547.0586.08985.04687.10156.04296.10547.0586.08594.11719.17968.07421.07422.0625.08594.0586.08984.04297.10547.0586.08985.05858.08593.0625.08985.0586.08984.04297.10156.11719.17969.07421.07422.0586.08594.07422.07421.08984.0586.10547.04687h.14844l.1328-.01562.13282.01562.10156-.04687.07422-.07422.04688-.10156-.01563-.13281v-.14844l-.04687-.10547-.02735-.11719-.04687-.10156-.02735-.1211-.04296-.10156-.0625-.08984-.04297-.10156-.04297-.10547-.03125-.11719-.01563-.13281-.01171-.13672.08593-.0586.0586-.08593.12109-.03125.04297.10547.01562.1328v.1172l.0586.10156.0586.08984.08983.0586.14844.14843.0586.08985.04296.10547-.01171.10156.08593.0586.10547.04687.08594.0586.08984.05858.07422.07422-.11719.02735-.10546.04687-.08594.0586-.07422.07421-.0586.08985-.0625.08594-.02734.12109-.04687.10156-.04297.10547-.03125.11719-.01172.13281-.01563.13281v.14844l.02735.11719.04687.10547.04297.10156.0586.08984.07421.07422.08985.0586.07422.07421.08984.0586.0586.08984.04296.10547.04688.10156.11719.03125.1328.01563h.14845l.11718-.03125.10547.04297.04297.10547.04688.10156.02734.1211L299.5 410l.02734.11719.03125.1211.02735.11718.10547.04297.10156.04687.13281-.01562.14844.14844.0625.08593.07422.07422.07031.07422.08984.0625.10547.04297.10156.04297.1172.03125.13671.01562.11719-.03125.07422-.07422.02734-.11718-.01172-.13282-.03125-.12109-.02734-.11719.04297-.10547h.11719l.08984.0625.11719.02735h.14843l.13282.01562h.14843l.13282.01563.1328-.01563h.14845l.1328-.01562.13282-.01172.13672.01172.11719-.02735.13281-.01562.1914-.0586-.05859.17579-.01562.1328-.02735.1211-.01562.13281-.0586.08594-.1328.01563-.10548.04687-.10546.04297-.1172.03125-.11718.02735-.26563.03125h-.14843l-.13281.01562-.07422.07422.05859.08594.14844.14843.11719.1797.07421.0703.08985.0625.08984.0586.08594.0586.08984.05858.10156.04297.10547.0625.10547.04297.08594.0586.10547.04687.10156.04297.17969.11719.0586.08984-.04298.10156-.04687.10547.01562.13281.22266.22266.0586.08985.04296.10156.03125.1211.04297.10155.01563.13282.03125.11718.01171.13672.03125.11719.14844.14844.10156.04297.10547.04296.1172.03125.1328.01563.13672.01563h.11719l.11719-.03125.08984-.0586.04297-.10547.04688-.10156.04296-.10547.03125-.11719.01172-.1328v-.14845l-.01172-.1328-.01562-.13282-.03125-.11719-.04297-.10547-.04688-.10547-.04296-.10156-.04297-.10547-.01563-.13281.01563-.13281.02734-.11719.03125-.11719.02735-.1211.04687-.10155.08984-.0586.08594-.0625.07422-.07422.08984-.05859.22266-.22266.0586-.08593.07421-.07422.11719-.17969.0586-.08594v-.14844l-.07423-.07421-.10156-.04688-.10547-.04297-.10156-.04297-.0586-.08984-.04687-.10547-.02734-.11719.08984-.05859.11719-.03125.10156-.04297.17969-.11719.14844-.14843.01172-.13282-.01172-.10546-.08985-.0586-.1328.01563h-.14845l-.1328.01562-.13282-.01562-.1211-.03125-.08593-.0586-.07422-.07422-.0586-.08984-.0625-.08594-.11718-.17969-.0586-.08593.03125-.1211.08594-.05859.1211-.03125.05859-.08594v-.1211l-.03125-.11718-.0586-.08984-.05859-.08594-.04687-.10547-.02735-.11719-.01562-.1328.0586-.08985.07421-.07422.08984-.0586.1172-.17968.07421-.07422.0586-.08594.14843-.14844.1211-.03125.1328-.01562.13282.01562.07422.07422.04297.10547.01562.13281-.03125.1172-.11719.03124-.1328.01172-.14844.14844-.04297.10547-.04688.10156-.02734.1211-.03125.11718v.14844l.03125.11719.04297.10546.05859.08985.07422.07031.07422.07422.11719.03125.12109.02734.11719-.02734.1328-.01563h.1172l.08984.0586.07422.07422.04687.10546.0586.08594.10156.04688.13281.01562.10547.04297.08594.0586-.01172.10546-.07422.07422-.17969.11719-.05859.08984-.08984.0586-.07032.07422-.07421.07421-.0625.08985-.02735.11719-.01562.1328.01562.13282-.01562.13281v.14844l.01562.13281.02735.1172.03125.12108.07421.07422.08985.0586.08594.0586.08984.05858.11719.03125v.08594l-.10157.04688-.08984.0586-.26563.03124-.11718.02735h-.14844l-.10547.04296-.10156.04688-.0586.08984-.0625.23438-.01171.13281-.03125.1211-.01563.1328v.29298l-.01172.1328.01172.13673.01563.1328.1328.01563.13282.01172.1211.03125.08593.0586.07422.07421.04688.10547.04296.10157.01563.1328v.44532l-.01563.13281v.44532l.03125.26562.02735.11719.01562.13281.03125.11719.08594.21094.03125.26562v.14844l-.03125.11719-.02734.11718-.03125.1211-.02735.11719-.03125.11718-.03125.1211-.01171.1328-.01563.13282.08984.0586.1172-.03125.10155.01562.04688.10547-.03125.26562v.44141l-.04297.10547-.04688.10547-.04296.10156-.04297.10547-.0586.08594-.03125.12109-.04296.11719-.03125.11719-.01563.1328.01563.13282.05859.08984.10547.04688.08594.0586.05859.08593-.01172.13672-.03125.11719-.04297.10156v.44531l-.01562.13281v.14844l-.03125.11719-.04297.10547-.02735.11719-.04687.10546-.04297.10157-.03125.12109-.02734.11719-.03125.13281-.03125.11719-.02735.11719-.04297.10546-.03125.1172-.03125.12108-.01171.13282-.01563.13281v.29688l.02734.11718v.14844l.04688.39844.02734.11719.0586.08984.12109.03125h.14844l.13281-.01563.0586.08985v.11719l-.0586.08984-.08984.0586-.10157.04296-.10546.04688-.08985.05859-.08594.0586-.13671.01562-.1172-.03125-.1328-.01563-.10157.04688-.0625.08594-.01172.13671-.01562.13282-.03125.11719-.02735.11718-.01562.13281-.03125.1211v.29687l.01563.13282.03125.11718v.14844l.01171.13281v.14844l-.02734.11719-.04688.10156-.02734.1211-.03125.11718-.0586.08985-.07421.07421-.10156.04297-.10547.04688-.11719.02734-.1211.03125-.10156-.04687.0586-.08594.10547-.04688.02734-.11718.03125-.11719.02734-.1211.03125-.11718v-.14844l.01563-.13281-.03125-.11719-.04297-.10547-.10547.01563-.07422.07422-.10156.04296-.08984.0625-.07422.07422-.04297.10157-.01563.1328-.03125.1172L304.25 426l-.03125.11719-.02734.11719-.03125.12109-.02735.11719-.03125.11718-.04297.10547-.08984.0586h-.08984l-.1172-.03125-.03124-.08594.01562-.13672-.03125-.11719v-.14844l-.01171-.1328v-.14844l-.0625-.23438-.02735-.1211-.04297-.10156-.04687-.10546-.0586-.08594-.05859-.08985-.04297-.10546-.0625-.08594-.14844-.14844-.0703-.07422-.10548-.04687-.10547-.04297-.10156-.04297-.29687-.29688-.08985-.07421-.08594-.0586-.10546-.04297-.08985-.0625-.08594-.0586-.10546-.04296-.08985-.0586-.08594-.0625-.07421-.0703-.10547-.04688-.08594-.0586-.10547-.04296-.08984-.0625-.10156-.04297-.10547-.04297-.08594-.0586-.10547-.04687-.10547-.04297-.10156-.04687-.08985-.0586-.10156-.04297-.10547-.04296-.08984-.0625-.11719-.02735-.13281-.01562-.13281.01562H299.75l-.13281.01563-.11719-.03125-.08984-.0586-.07422-.07422-.08985-.05859-.10156-.04688h-.14844l-.12109-.02734-.10156-.04297-.07422-.07422-.11719-.17968-.08984-.0586-.10156-.04297-.08985-.0625-.10547-.04296-.08984-.0586-.08594-.0586-.10547-.04687-.0586-.08594-.05858-.08984-.04297-.10547-.04688-.10156-.07422-.07422-.08594-.0586-.07421-.07421-.08985-.0586-.22265-.22265-.04297-.10547-.03125-.26563.10547-.04296h.14453l.10547.04296.07421.07422.08985.0586.08594.0586.10546.04687.08985.05859.14844.14844.0703.07422.14845.14843.0625.08594.07421.07422.08594.0586.07422.07421.08985.0625.08984.0586.08594.05859.26953.17578.10156.04688.10547.04296.10156.04297.04688-.07421.05859-.08594.07422-.07422.07031-.07422.10547.04297.07422.07422.0586.08984.04296.10156.04688.10547.04296.10547.1211.02735.11719-.02735.07421-.08984.04297-.10547.0586-.08985.07422-.07421.10546-.04297.1172-.02735.1328.01172.08985.0586.14844.14843.05859.08985.04297.10547.04687.10156.04297.10547.04297.10156.10547.04688.10547.04296.13281.01563.08594-.0586.0586-.08984.07421-.07422.10547-.04297.11719.02735.10547.04687.10156.04297.10547.04297.10156.04688.17969.11718v.11719l-.01563.13281.01563.13281.01562.13672.0586.08594.10156.04688.1211.02734.11718.03125h.14844l.11719-.03125.05859-.08984.17969-.1172.05859-.08983.07422-.07422.0586-.08594.11718-.17969.17969-.11719.11719.03125.08984.0586.04297.07422-.01563.1328v.1172l.08985.05859h.14843l.13282-.01563.1328-.01171.26563-.03125.10547-.04297.11719-.03125.1211-.02735.07421-.07421.07031-.07422.0625-.08985-.01562-.10547-.04688-.10156-.10156-.04297-.10547-.01562-.11718.02734-.26563.03125h-.14844l-.07421-.07422-.08985-.0586-.11719-.03124-.11718-.02735-.13282-.01562h-.14843l-.13282.01563h-.29687l-.10547-.04688-.14844-.14844-.04297-.10156-.05859-.08984.22266-.22266.08593-.0586.10547-.04296.11719-.03125.13281-.01563.13281.01563.13672.01562.10157.04297.1328-.01172.08985-.0625.10156-.04297.0625-.08984-.04687-.10156-.08984-.0586-.1172-.03125-.10155-.04296-.0586-.08985-.0625-.08984v-.11719l.01563-.13281.10547-.04688.07421-.07031v-.1211l-.08984-.05859-.03125-.11719.08985-.05859.07421-.07422.04297-.10547.0586-.08984.04687-.10156.01563-.13281v-.14844l-.04688-.10547-.04297-.10156-.08984-.0586-.13281-.01562-.10157-.04297-.13671-.01563-.1172-.03125h-.4453l-.13282-.01562-.13281-.01172-.13281-.01563-.11719-.03125h-.14844l-.13281-.01562-.13281-.01172-.26563-.03125-.1211-.04297-.08593-.0586-.07422-.07421v-.14844l.01172-.13281.10547-.04688.10156-.04296.13281-.01563h.15235l.13281-.01562h.29297l.1211.03125.10156.04296.08984.0586.23438.0625.12109-.04688.08984-.05859.10156-.04297.13282-.01562.10547.04296.10156.04688.13281.01172.1211-.02735h.14453l.12109-.03125.11719-.02734.10547-.04687.07421-.07422.08594-.0586.14844-.14843.0586-.08594.04687-.10547.02734-.11719.01563-.10547-.10156-.04296-.08985-.0586-.11719-.03125-.10546-.04297-.08985-.0625-.07422-.08594-.07422-.07421-.10156-.04297-.10547-.04688-.10156-.04297-.0586-.08984-.04687-.10156-.08594-.21094-.0625-.08594-.05859-.08984-.07422-.07422-.08594-.0586h-.26953l-.11719.03126-.08984.05859-.10156.04297-.13281.01562-.10547-.01562-.02735-.11719-.0625-.08984-.11718-.03125-.10157-.04297-.14843-.14844-.03125-.11719-.01563-.10546.07422-.07422.17969-.1172.11719-.02733.11718-.03125.13672.01562.10156.04297.10547.04297.10156.04687.10547.04297.1172.03125.1328.01563.1172.02734.1328.01563.10547-.01563.08985-.0586-.07422-.07421-.10547-.04297-.07422-.07422-.07422-.08984-.14844-.14844-.08593-.0586-.08985-.05859-.07422-.07422-.08984-.0586-.10156-.04687-.1211-.02734-.10156-.04688-.10547-.04296-.11719-.03125-.10156-.04297-.1211-.03125h-.14843l-.11719.03125-.10546.04297-.08594.0625-.17969.11718-.08594.0586-.08984.0586-.10547.04687-.08594.05859-.10547.04297-.10156.04297-.10547.04687-.07422.07422-.05859.08985-.0586.08593-.04687.10547-.0586.08594-.07421.07422-.13281-.01172-.1172-.03125h-.11718l-.07422.07422-.08984.0586-.07422.07421-.08984.0586-.08594.05859-.10547.04687-.10156.04297-.13672.01563-.10156-.04297-.14844-.14844-.10547-.04688h-.08594l-.10547.04688-.10156.04297-.1211.03125-.11718-.03125-.07422-.07422v-.11719l.03125-.1211.07422-.0703.0586-.08985.07421-.07422.11719-.03125.10547-.04296h.29297l.13281-.01563.13672-.01563.10156-.04296.08985-.0586.10156-.04687.08984-.0586.13281-.01171.08985.05859.13281.01172.08984-.0586.08594-.05859.10547-.04297.08984-.0586.08594-.0625.08985-.05859.14843-.14843.0586-.08594.05859-.08985.10547-.04296.13281-.01563.11719.02735.1211.03125.05859-.0586.05859-.08984.03125-.26563.02734-.11719.10547.01172.13281.01563.10157-.04297.08984-.0586.0586-.08984.07421-.07422.0586-.08984.04687-.10156.01172-.13281-.01172-.13282-.04687-.10547-.14844-.14843-.0586-.08985-.05859-.08594-.04297-.10546v-.44532l.01563-.1328v-.14845l.01172-.1328-.0586-.0586-.08984.0586-.10156-.04298-.17969-.11719-.08594-.05859-.0625-.08984-.0586-.08985-.07421-.07421-.08594-.0586-.1211.03125-.10155.01172-.10547.04688-.08594.05859-.10547.04297-.14844.14844-.08984.05859-.08594.0586-.08984.0625-.10547.04296-.13281.01563v-.1211l.10547-.04297.11718-.03125.07422-.0703.04297-.10548v-.14844l-.02734-.11718-.14844-.14844-.13281-.01563h-.14844l-.11719.03125-.10547.04297-.10156.04297-.08984.0625-.11719.02735-.07422-.07422.01172-.13281-.04297-.10157-.04297-.10547-.08984-.05859-.11719.02734-.1211.03125-.11718.03125-.10156.04297-.1211.03125-.10156.04297-.10547.04297-.08984.0586-.10156.01562v-.11719l.01562-.13281-.0586-.08985-.07421.04297-.14844.14844-.0586.08985-.07421.07421-.04688.10547-.04296.10156-.07422.07422-.0586.08985-.07422.07422-.05859.08593-.07422.07422-.08984.0625-.07422.07031-.07422.07422-.10156.01563-.13281.01562-.10547-.04296v-.1211l.14843-.14844.04297-.10156.0586-.08984.04687-.10156.04297-.10547.0586-.08985.03124-.11719.04297-.10156.03125-.1211.02735-.11718.04687-.10547.04297-.10156.04297-.10547.07422-.07031.08984-.0625.08985-.0586.10156-.04296h.29687l.26563-.03125.10547-.04297-.07422-.07422-.11719-.03125-.10547-.04297-.08984-.0586-.10156-.04687-.08985-.0586-.10156-.04296-.10547-.04297-.08984-.0625-.08594-.0586-.10547-.04296-.10156-.04297-.1211-.03125-.11718-.03125-.10157-.04297L297.5 410.25l-.10156-.04297-.08985-.0586-.04296-.10546-.01563-.13281.10156-.04297.13281-.01563.13672.01563.13282-.01563.10156-.04297.0586-.08984.01562-.10547-.08985-.0586-.07421-.07421-.10157-.04297-.08984-.0586-.14844-.14843-.04297-.10547-.01562-.13281v-.29297l-.0586-.08985-.08984-.05859-.07422-.07422-.04297-.10547-.03125-.11718-.0586-.08985-.07421-.07422-.11719-.02734-.07422-.07422-.08984-.0586-.08984-.0625-.08594-.05859-.07422-.07421-.0586-.08594-.04687-.10547-.08594-.0586-.14843-.14843-.19532-.0586-.1328.01563-.10157.04297-.07422.07422-.04688.10156-.04296.10547-.0586.08984-.0586.08594-.29687.29687-.08984.0586h-.08594l-.0625-.08594-.04297-.10547.03125-.11719.0586-.08984.02734-.11719-.01172-.13281-.08984-.0625-.10547.04688-.11719.02734-.11719.03125-.26953.17578-.10156.04688-.11719.02734-.10546.04687-.08985.0586-.10156.04297-.0586-.08594-.04687-.10547.01563-.13281.04687-.10547.07031-.07422.07422-.07031.0586-.08985v-.14843l-.04297-.10547h-.23829l-.10156.04687-.03125.11719-.02734.11719-.03125.1211-.07422.04296-.13281.01563-.07422-.04688-.04297-.10156-.04297-.10547-.04687-.10156-.04297-.10547-.1211.03125-.10156.04297-.13281.01562-.11719.03125-.10547.04297-.08984.0586-.10156.04687-.1211.02734-.13281.01563-.10156-.04297-.0586-.08985-.04687-.10546-.04297-.10157-.04297-.10546v-.1172l.0586-.08984.08593-.05859.17969-.11719.10156-.04687.10547-.04297.10547-.0586.10156-.04296.08985-.0625.10156-.04297.10547-.0586.10156-.04687.08984-.0586.10547-.04296.10156-.04297.08985-.0625.10156-.04297.13672-.01563.11719.03125.10156.04297.1211.03125.10156.04297.10546.04688.10157.04296.10547.04297.10156.04688.10547.04297.10156.04297.10547.04687.08594.0586.10546.04296.1172.03125.10546.04297.10156.04688.08985.0586.10547.04296.10156.04297.10547.04687.11719.02735.10156.04687.1211.02735h.14843l.08594-.0586.01562-.10156.0586-.08984-.02735-.1172-.07422-.07421-.11719-.17969-.07421-.07422-.08985-.07421-.17969-.1172-.08593-.05859-.10547-.04296-.10156-.04688-.26954-.17578-.05859-.08985-.07422-.07421-.0586-.08985-.04296-.10156-.03125-.11719-.01563-.13672v-.5625l-.01171-.1328-.01563-.13282-.03125-.11719-.01562-.13281-.01172-.13281-.03125-.1211-.22266-.22265-.0586-.08594-.01562-.10547.03125-.11719.13281-.01562v-91.41406H172.9922v1.45312l-.0586.23438-.35156 1.05078-.17187.52343-.1172.34766-.17577.41016-.11719.17187-.23438.29297-.23046.0586h-.35157l-.11718.05859-.23047.40625v.29297l.11719.17578.23046.23047.1172.23437.64062.75781.29297.46485.17578.23437.23047.35156.23437.34766.64063.8164.17578.46485.17187.41016.11719.69531.17578.46875.11719 1.39844.0586.46484v.875l.11718 1.04688v4.78125l-.0586.46484-.35156 1.28125-.17578.52344-.11328.41015-.35156.9297L172.93359 336l-.23437.58203-.11719.17578-.17187.34766-.17578.40625-.35157.8164-.0586.29297-.11327.29297-.11719.28906-.0586.17579-.11718.875-.0586.40625-.05859.11718-.0586.17579-.05859.17187-.23047.52734-.11718.17188v.23437l-.11719.23438-.0586.17187-.17577.58594v.28906l-.0586.17579v.29296l-.0586.11329-.05859.52734v.17187l-.05468.23438v2.6211l-.17578.8164-.1172.17578-.17577.23438-.1172.17187-.11327.23438-.58594.93359-.23047.28906-.29297.46485-.17578.23437-.28906.35156-.35156.69922-.11328.23047-.17579.41016-.17578.23046-.40625.52735-.8164.69922-.29297.17187-.28906.23438-.17579.11719-.17578.17578-.52344.40625-.52734.17578-.17187.17578-.23438.05469-.64062.17578h-.75782m12.21094 31.02344l-1.07422.44921.35938.89454 1.25-.71485.44531-.53906-.98047-.08985"/><path fill="#d3d3d3" fill-opacity="0" fill-rule="evenodd" d="M201.50781 416.59766h-.89453l.44922.6289.98047.35938.80469-.08985.4453-.98828-.17577.08985-.71485-.35547-.89453.35547m154.6211 59.0703l-.0586-.52343v-.29297l.11328-.29297.0586-.23046.46875-.46875h.11328l.11719-.11329.11718-.05859h.17579l.23437-.0586h.34766l.23437.0586.11719.0586.23047.17187.0586.17578.11718.58203v.29297l-.11719.17578-.17187.28906-.17579.17579-.52734.52343-.23047.23438-.11719.0586h-.17578l-.11718-.0586-.40625-.29297-.17579-.11719-.11718-.0586-.0586-.11327-.05468-.1172m6.64062-10.95702l-.0586-.17188v-1.10937l.0586-.17188.17578-.0586.17188-.05858h.17578l.23437-.0586.1172.0586.05858.69921-.05859.17188-.11719.17578-.11718.0586-.23438.52343-.11328.0586h-.23438l-.05859-.1172m9.61328-14.39062l-.11719-.17578v-.69922l.29297-.875.1172-.17187.17577-.35156.11328-.23047.1172-.29297.35155-.75781.1172-.23047.17187-.23438h.17578l.11719-.0586h.64062l.11719.0586.23437.23438.17188.11328.35156.29297.11719.11718.11328.17579v.11328l.11719.05859.11718.11719v.69922l-.05859.17578v.23047l-.0586.17578-.34765 1.05078-.11719.23047-.11719.23437-.11718.0586-.23047.23437-.64063.28906h-.875l-.41015-.11718-.64063-.46485"/><path fill="none" stroke="#bebebe" stroke-linecap="round" stroke-linejoin="round" stroke-miterlimit="10" stroke-width=".5" d="M467.95703 311.69531H144.02734v168.625h323.9297v-168.625"/><g clip-path="url(#a)"><path fill="#fff" fill-opacity="0" fill-rule="evenodd" d="M144 475.89063v4.4375h.0039H144V311.67188h.0039H144v164.21875"/></g><g clip-path="url(#b)"><path fill="#fff" fill-opacity="0" fill-rule="evenodd" d="M144.0039 480.32813V311.67188h44.37891v63.26171l-3.42578 3.3125 3.42578 3.30079 2.10156 1.13671-2.10156 1.60938-3.70703 2.83203-.73047 3.26172-.51172 1.17578.51172.55469L186.4922 396l1.89062 2.07031.52344 2.36719-.52344.55469-4.4375-.21485-1.1875-.33984-3.25-1.86719-4.4414.23438-4.4375-.33203L167.03125 396l-.83984-.49219-.53125.49219.53125.52734 3.04687 3.91016-.2461 4.4375 1.63673 1.85547 3.30078 2.58594 1.13672 3.99218 1.61718-3.99218 2.82422-1.04688 1.46485 1.04688-1.25 4.4375-.21485.03515-4.4414.16797-2.03125 4.23438-2.40625.41015-2.14453-.41015-2.29297-2.32813-2.32422-2.10937-2.11328-1.8672-1.90235 1.8672-1.26172 4.4375-.38672 4.4375-.88671 2.40625-1.9336 2.03515-1.26953 4.4375-1.23828 2.36328-1.98047 2.07422 1.98047 2.1875 2.94922 2.25 1.49219 2.65625.23437 1.78125-.23437 1.29297-2.2422 3.14844 2.2422 2.27344 4.4375.1953 4.4375-1.29296 1.37109-1.17578 2.92969-4.4414.13672-.58204 2.55468-3.85547 1.88282-.9336 1.86328.9336 2.57812 2.94531 4.4375-.1953 4.4375.0703 4.4375-2.48437.5664-.33594 3.875-1.6211 4.4375-2.0078.8125-.8086 3.625-2.29297 2.16017-2.14453 2.27734-1.5039 4.4414-2.25391.70704-.67969 1.51172-4.4414-2.21875-2.45704-1.41407-1.98046-2.85156-4.4375-.17578-.13672-4.4375-.01953-.83984-4.28125V404.875l.61328-4.4375.22656-.125 1.2461.125 3.1914 1.71875 4.4414.41406 1.81641 2.30469 2.6211 3.22656 1.43359 1.21485 3.0039 2.33984 3.00782-2.33984 1.42969-.89454 3.6289-3.54687.8086-.73047v7.03516l-2.71485 2.57422-1.52734 4.4375 2.73828 4.4375 1.5039 1.24218 2.61329-1.24218 1.82812-.94922 2.47266-3.48828-1.05469-4.4375-1.41797-1.36329-4.4414-1.21093v-7.03516l4.4414-.1289 4.4375-.03125 1.40625.89062 3.03125 2.54297 2.19922-2.54297.07813-4.4375L250.08202 396l-2.48047-4.4375-1.51953-1.59375-4.4375-2.53516-4.4375-.22265-4.4414 1.59375-2.70704 2.75781L228.63281 396l-.30469.33203-4.4375.625-4.4375-.19922-.86328-.75781-3.57422-2.9336-3.85937-1.5039-.58203-.67969-1.53906-3.75781 1.53906-1.15234 3.09766-3.28907-3.09766-3.90625-4.4375-.42578-4.4375-.03515-4.4375.89062-2.6875-.96094-1.7539-.5078-4.4375-2.8047v-63.26171h53.26171v53.40234l-4.4375 1.91797-1.98047 2.3789-2.46094 1.92579-3.01953 2.51171 3.01953 1.82813 4.44141 2.41797 4.4375-.16406v2.16015l-.95312 2.63281.95312 1.40235 1.02344-1.40235-1.02344-2.6328v-2.16017l4.4375-2.58984 1.44531-1.49219 2.9922-2.0078 4.4375-.66798 4.4414 1.25v23.09766L258.29688 396l1.10156.51172.90234-.51172-.90234-.51953V372.3828l.42578 1.42578 4.01172 4.1797 1.27734.2578 1.79688 4.4375 1.36328.97657 4.4375 1.6875 4.4414 1.6328 1.83985.14454 2.59765.47266.6211-.47266 3.57422-4.4414-4.19532-3.06641-4.4375-.5-4.4414-.47266-1.29297-.39844-.32031-4.4375-.69922-4.4375-2.125-3.94921-4.4375 1.46093-4.4375 1.02344-4.4414.16406-4.4375-1.26953-4.4375-.13672-4.4375-1.58984v-53.40235h88.76562v59.08204l-3.21485 3.05468 3.21485 3.14454 3.32812-3.14454-3.32812-3.05468v-59.08204h48.82421v113.79297l-1.60546 1.60547-2.01954 4.4375 3.625 3.76563 3.69922-3.76563-1.98046-4.4375-1.71875-1.60547V311.67188h4.4375v81.96875L381.32421 396l2.34765 2.46094L386.07423 396l-2.40235-2.35938v-81.96875h13.3125v109.06641l-4.4375.16016-4.4375 1.32422-.47265.40625.47265 1.35156 1.13282 3.08984.32422 4.4375 2.98046 2.8164 4.4375.0547 4.44141-.27344 2.10156 1.83984 2.33594 2.51953 4.4375-.80859 1.1289-1.71094-1.1289-1.20703-4.4375-1.69531-1.30469-1.53516-2.1953-4.4375-.9375-.85937-2.51954-3.58203-1.92188-1.89063v-109.0664h8.87891v74.96484l-.33203.48828.33203.32422.32422-.32422-.32422-.48828v-74.96485h26.6289v3.9336l-.48046.5039.48047.48047.48047-.48046-.48047-.50391v-3.9336h4.4375v55.69532l-1.73438 2.0039 1.73438 2.21875 4.4414-1.58203 2.90625 3.80078 1.53125 1.50782 1.76954-1.50782-1.76954-3.03515-2.6328-1.40235-1.8047-.83984-4.4414-1.16406v-55.69531h13.3164v68.0078l-3.82421 3.00391 3.82421 3.00782 3.09766-3.00782-3.09766-3.0039v-68.00781h4.4375v56.40234l-2.03515 1.29687 2.03515 1.87891 1.59766 2.5586.39844 4.4375 2.44531 2.42187 2.41797-2.42188-.65235-4.4375-1.76562-2.5-2.89844-1.9375-1.54297-1.29687v-56.40235h13.3125v168.65625H144.00391"/></g><path fill="#50fcfc" fill-rule="evenodd" d="M152.875 438.13281l-1.98047-2.1875 1.98047-2.07422 1.23828-2.36328 1.26953-4.4375 1.9336-2.03515.88672-2.40625.38671-4.4375 1.26172-4.4375 1.90235-1.8672 2.11328 1.8672 2.32422 2.10937 2.29297 2.32813 2.14453.41015 2.40625-.41015 2.03125-4.23438 4.4414-.16797.21485-.03515 1.25-4.4375-1.46485-1.04688-2.82422 1.04688-1.61718 3.99218-1.13672-3.99218-3.30078-2.58594-1.63672-1.85547.2461-4.4375-3.04688-3.91016-.53125-.52734.53125-.49219.83984.49219 3.59766 2.47266 4.4375.33203 4.4414-.23438 3.25 1.86719 1.1875.33984 4.4375.21485.52344-.55469-.52344-2.36719L186.4922 396l-2.54688-3.88281-.51172-.55469.51172-1.17578.73047-3.26172 3.70703-2.83203v2.46094l-.48047.37109.48047 1.19531L189.5 387.125l-1.11719-.3711v-2.46093l2.10156-1.60938-2.10156-1.13671-3.42578-3.30079 3.42578-3.3125v1.75l-1.61719 1.5625 1.6172 1.5586 2.1953-1.5586-2.1953-1.5625v-1.75l4.4375 2.8047v16.5625L190.37108 396l2.44922.5586L193.25 396l-.42969-1.69922v-16.5625l1.7539.50781 2.6875.96094 4.4375-.89062v2.0625l-3.02733 2.30468-1.41016.54688-3.96484 3.89453-.41407 4.4375 1.1875 4.4375-1.25 1.6211-2.83984 2.8164-1.59766 1.69922-4.4375.80469-4.4375 1.7578-.28515.17579.28515.08203 4.4375 3.08203.49219 1.27735-.49219 3.27734-.47656 1.16016-3.96094.64843-4.05469 3.78907-.38671.33984-4.4375.90625-4.4375-.4961-2.1211-.75-2.3164-2.11718-1.08203 2.11719-1.00782 4.4375-1.67578 4.4414-.67187 2.27344-1.01563 2.16406-2.08594 4.4375 3.10157 2.71485.8789 1.72265.72266 4.4375 2.83594 3.76563 4.4375-1.14844 2.26953-2.61719 1.57031-4.4375.59766-.7539 4.4375-2.98829 4.4414-.55859 4.4375 2.20703 4.4375 1.32813 4.4375-.91406 3.35156-2.75782 1.08985-2.17187 4.4375-1.34375 1.2461-.92188 3.1914-1.95312 3.55078-2.48438.88672-.36719 3.66797-4.07421-3.66797-4.32813-4.4375.625-.75781-.73437-3.6797-3.83985-.27343-.59765.27344-.73438 2.0586-3.70312-.03907-4.44141.79297-4.4375 1.625-.90234 4.4375.47265 4.4414-2.32422 2.07032 2.75391 2.36719 3.71484.28125.72266 4.15625 3.67188 4.4375-2.75782.93359-.91406 3.5039-3.17578 4.44141.66015 4.4375-1.33593 1.47266-.58594 2.96484-2.63281.85938-1.80469-.85938-1.25-1.01953-3.1875-3.41797-2.89063-4.4375-.21875-4.42187 3.10938-.01953.07031L231.08983 396l-2.76172 2.9961-4.4375-.17188-4.4375.42578-3.71093-3.25-.72656-.59766-4.44141-3.20703-1.99219-.63281-2.40625-4.4375 4.39844-3.29297 1.08203-1.14844-1.08203-1.36328-4.4375-.7461-4.4375-.1953v-2.0625l4.4375.03515 4.4375.42578 3.09766 3.90625-3.09766 3.28907-1.53906 1.15234 1.53906 3.75781.58203.67969 3.85938 1.5039L218.58983 396l.86328.75781 4.4375.19922 4.4375-.625.3047-.33203 1.42577-4.4375 2.70703-2.75781 4.44141-1.59375 4.4375.22265 4.4375 2.53516 1.51953 1.59375L250.08203 396l-1.72266 4.4375-.07812 4.4375-2.19922 2.54297-3.03125-2.54297-1.40625-.89063-4.4375.03125-4.4414.12891-.8086.73047-3.6289 3.54688-1.4297.89453-3.0078 2.33984-3.00391-2.33984-1.4336-1.21485-2.62109-3.22656-1.8164-2.30469-4.44141-.41406-3.1914-1.71875-1.2461-.125-.22656.125-.61328 4.4375v4.4414l.83984 4.28126 4.4375.01953.17578.13672 2.85156 4.4375 1.41406 1.98046 2.21875 2.45704-1.51171 4.4414-.70703.67969-4.44141 2.2539-2.27734 1.50391-2.16016 2.14453-3.625 2.29297-.8125.8086-4.4375 2.0078-3.875 1.6211-.5664.33594-4.4375 2.48438-4.4375-.07032-4.4375.19531-2.57813-2.9453-1.86328-.9336-1.88282.9336-2.55468 3.85546-.13672.58203-2.92969 4.4414-1.3711 1.17579-4.4375 1.29297-4.4375-.19531-2.24218-2.27344 2.24219-3.14844.23437-1.29297-.23437-1.78125-1.4922-2.65625-2.94921-2.25"/><path fill="#00e8fc" fill-rule="evenodd" d="M157.3164 438.66016l-3.10156-2.71485 2.08594-4.4375 1.01563-2.16406.67187-2.27344 1.67578-4.4414 1.00781-4.4375 1.08204-2.1172 2.3164 2.1172 2.1211.75 4.4375.49609 4.4375-.90625.38672-.33984 4.05468-3.78907 3.96094-.64843.47656-1.16016.49219-3.27734-.49219-1.27735-4.4375-3.08203-.28515-.08203.28515-.17578 4.4375-1.75781 4.4375-.8047 1.59766-1.69921 2.83984-2.8164 1.25-1.6211-1.1875-4.4375.41406-4.4375 3.96485-3.89453 1.41016-.54688 3.02734-2.30468v2.58203l-4.4375 2.01953-2.1836 2.14453-1.53515 4.4375L195.4375 396l-2.61719 3.39453-1.05078 1.04297-3.38672 3.60156-2.16406.83594.48438 4.4414-1.51172 4.4375-1.2461.65626-4.4375 1.01171-2.96094 2.76954-1.48046 1.30078-4.4375 1.33984-4.4375.72266-3.3047 1.07422-1.1328.8164-1.45313 3.625-.71484 4.4375-1.33594 4.4375 1.92578 4.4375 1.01563 4.4375.5625.7461 1.89843-.7461 2.53907-1.01562 2.01953-3.42188 2.41797-3.05078 1.84375-1.38672 2.59375-1.84375 4.0078-2.59375.4336-.27734 2.39844-4.16016 2.03906-2.08984 3.08594-2.35156 1.35156-.73047v1.80469l-4.4375 2.53906-.8086.82812-.1328 4.4375.9414 1.78125 2.25781-1.78125 2.1797-1.2461v4.78517l-1.02735.89843 1.02734.60156 3.47656-.60156-3.47656-.89844v-4.78515l4.16016-3.1914-4.16016-3.3672v-1.80468l4.4375-1.0625 4.38672-2.64453.05469-.04297 1.71484.04297 2.72266.20312 3.9414 4.23438.4961.45703 4.4375.46094.82812-.91797-.82812-.97266-4.4375.75781-4.35547-4.22265-.08203-.08594-1.98828-4.35156 1.8125-4.4375-.14453-4.44141.3203-2.34766.48048-2.08984 3.95703-2.19922 4.4375.53906L213.80469 396l-3.23047-2.63672-4.4375-1.07812-.34766-.72266-.38672-4.4375-3.70312-4.16406v-2.58203l4.4375.1953 4.4375.7461 1.08203 1.36328-1.08203 1.14844-4.39844 3.29297 2.40625 4.4375 1.99219.63281 4.4414 3.20703.72657.59766 3.71094 3.25 4.4375-.42578 4.4375.17187L231.08983 396l1.67578-4.36719.01954-.07031 4.42187-3.10938v2.07032l-1.47656 1.03906-.95313 4.4375 2.4297 3.11719 4.4375-1.14453L243.67577 396l-1.04687-4.4375-.98438-.83203-4.4375-.20703v-2.07031l4.4375.21875 3.41797 2.89062 1.01953 3.1875.85938 1.25-.85938 1.80469-2.96484 2.63281-1.47266.58594-4.4375 1.33594-4.4414-.66016-3.50391 3.17578-.9336.91406-4.4375 2.75781-4.15625-3.67187-.28125-.72266-2.36718-3.71484-2.07031-2.7539-4.44141 2.32421-4.4375-.47265-1.625.90234-.79297 4.4375.03906 4.4414-2.0586 3.70313-.27343.73438.27344.59765 3.67969 3.83985.7578.73437 4.4375-.625 3.66798 4.32813-3.66797 4.07421-.88672.3672-3.55078 2.48437-3.1914 1.95312-1.2461.92188-4.4375 1.34375-1.08984 2.17187-3.35157 2.75781-4.4375.91407-4.4375-1.32813-4.4375-2.20703-4.4414.5586-4.4375 2.98828-.59766.7539-1.57031 4.4375-2.26953 2.61719-4.4375 1.14844-2.83594-3.76563-.72266-4.4375-.8789-1.72265"/><path fill="#00d4fc" fill-rule="evenodd" d="M160.17578 440.38281l-1.92578-4.4375 1.33594-4.4375.71484-4.4375 1.45313-3.625 1.1328-.8164 3.3047-1.07422 4.4375-.72266 4.4375-1.33984 1.48047-1.30078 2.96093-2.76954 4.4375-1.01171 1.2461-.65625 1.51172-4.4375-.48438-4.44141 2.16406-.83594 3.38672-3.60156 1.05078-1.04297L195.4375 396l-1.89453-4.4375 1.53516-4.4375 2.18359-2.14453 4.4375-2.01953v.83203l-4.4375 2.9375-.40234.39453-2.66016 4.4375L196.80469 396l.45703.63672v1.92187l-2.77344 1.87891 2.77344 1.09375v1.11719l-4.4414.15625-1.73829 2.07031-2.34766 4.4414-.35156.70704-1.84765 3.73047-2.58985 1.36328-4.4375 1.32812-1.8711 1.7461-2.5703 2.26562-4.4375 1.76953-1.45703.40235-2.98047 1.3164-3.50782 3.125-.16406 4.4375-.76562 3.1836-.38282 1.2539.38282 1.66797 2.89062 2.76953 1.54688.33594.19922-.33594 3.08593-4.4375 1.15235-.92187 4.4375-3.08594.66797-.42969 3.77343-2.41406 1.16797-2.02344 3.26953-3.35156 1.42969-1.08984L188.38281 421l4.4375-2.33594.78516-.47265 3.65625-3.1211.73437-1.3164 2.63282-4.4375-.625-4.44141-2.7422-2.22656v-1.11719l3.66407-1.09375-3.66406-1.8789v-1.92188l4.4375 2.35156 4.4375-2.04687 4.4375.60546L212.37109 396l-1.79687-1.46875-4.4375-.09375-1.3789-2.875-.09766-4.4375-2.96094-3.33203v-.83203l3.70312 4.16406.38672 4.4375.34766.72266 4.4375 1.07812L213.80469 396l-3.23047 2.77734-4.4375-.53906-3.95703 2.19922-.48047 2.08984-.32031 2.34766.14453 4.4414-1.8125 4.4375 1.98828 4.35157.08203.08594 4.35547 4.22265 4.4375-.75781.82812.97266-.82812.91796-4.4375-.46093-.4961-.45703-3.9414-4.23438-2.72266-.20312-1.71484-.04297-.05469.04297-4.38672 2.64453-4.4375 1.0625-1.35156.73047-3.08594 2.35156-2.03906 2.08984-2.39844 4.16016-.4336.27734-4.0078 2.59375-2.59375 1.84375-1.84375 1.38672-2.41797 3.05078-2.01953 3.42188-2.53907 1.01562-1.89843.7461-.5625-.7461-1.01563-4.4375"/><path fill="#00c4fc" fill-rule="evenodd" d="M161.7539 437.61328l-.3828-1.66797.3828-1.2539.76563-3.1836.16406-4.4375 3.50782-3.125 2.98047-1.3164 1.45703-.40235 4.4375-1.76953 2.5703-2.26562 1.8711-1.7461 4.4375-1.32812 2.58985-1.36328 1.84765-3.73047.35156-.70703 2.34766-4.44141 1.73828-2.07031 4.4414-.15625v1.11719l-2.70312 1.10937-1.73828 1.0664-2.73437 3.375-1.70313 3.4297-.5 1.0078-3.9375 2.07423-4.4375 1.63671-.77734.72657-3.66406 3.22656-2.83594 1.21094-1.60156 1.1328-4.4375 2.41407-1 .89453-.20703 4.4375.64843 4.4375.5586.55078.36718-.55078 4.07032-3.25 1.73047-1.1875 2.70703-.95703 4.36328-3.48047.07812-.07812 4.2461-4.36328.1914-.17188 4.4375-2.35547 3.2461-1.91015 1.1914-1.60938 3.13672-2.82812 1.30469-.76172 2.47266-3.67578-1.10547-4.44141-1.3672-1.10938v-1.11718l2.7422 2.22656.625 4.4414-2.63282 4.4375-.73437 1.31641-3.65625 3.1211-.78516.47265L188.38281 421l-3.00781 1.6289-1.42969 1.08985-3.26953 3.35156-1.16797 2.02344-3.77344 2.41406-.66796.42969-4.4375 3.08594-1.15235.92187-3.08594 4.4375-.19921.33594-1.54688-.33594-2.89062-2.76953"/><path fill="#00b8fc" fill-rule="evenodd" d="M165.63281 435.94531l-.64844-4.4375.20704-4.4375 1-.89453 4.4375-2.41406 1.60156-1.13281 2.83594-1.21094 3.66406-3.22656.77734-.72657 4.4375-1.63671 3.9375-2.07422.5-1.00782 1.70313-3.42968 2.73437-3.375 1.73828-1.06641 2.70313-1.10938v1.125l-4.4414 2.71485-1.38673 1.71094-.27343 4.4375-2.77735 1.59375-4.4375 1.1875-3.94922 1.65625-.48828.5625-4.4414 3.625-.58203.25-3.85547 2.72265-2.85157 1.71875 2.85157 3.05078 4.4375-.76562 2.86328-2.28516 1.57812-1.53515 2.82813-2.90625 1.60937-1.45313 4.4375-1.97265 1.71875-1.01172 2.71875-3.66407.85938-.77343 3.58203-2.08985 1.57812-2.34765-1.57812-4.42579v-1.125l1.36719 1.10938 1.10547 4.4414-2.47266 3.67579-1.30469.76172-3.13672 2.82812-1.1914 1.60938-3.2461 1.91015-4.4375 2.35547-.1914.17188-4.2461 4.36328-.07812.07812-4.36328 3.48047-2.70703.95703-1.73047 1.1875-4.07032 3.25-.36718.55078-.5586-.55078"/><path fill="#00a8fc" fill-rule="evenodd" d="M170.6289 430.1211l-2.85156-3.05079 2.85157-1.71875 3.85547-2.72265.58203-.25 4.4414-3.625.48828-.5625 3.94922-1.65625v.71093l-2.25781.94532-2.17969 2.5078-2.54297 1.9297-1.89843 1.99218-4.4375 2.32422-.20313.125.20313.21875 4.4375.8711 1.36718-1.08985 3.07422-2.99219 1.41016-1.44921 3.02734-2.73047 4.4375-1.59375.1914-.11328-.1914-.31641-4.4375-.6289v-.71094l4.4375-1.1875 2.77735-1.59375.27343-4.4375 1.38672-1.71094 4.4414-2.71485v2.50391l-4.4414 1.875-.03515.04688.03515.1914 4.4414.82422.6836-1.01562-.6836-1.92188v-2.5039l1.57813 4.42578-1.57812 2.34765-3.58203 2.08985-.85938.77343-2.71875 3.66407-1.71875 1.01171-4.4375 1.97266-1.60937 1.45313-2.82813 2.90625-1.57812 1.53515-2.86328 2.28516-4.4375.76562"/><path fill="#009800" fill-rule="evenodd" d="M170.6289 427.28906l-.20312-.21875.20313-.125 4.4375-2.32422 1.89843-1.99218 2.54297-1.9297 2.17969-2.5078 2.25781-.94532v.71094l-.5664.23438.5664.42578 1.22266-.42578-1.22266-.23438v-.71094l4.4375.62891.1914.3164-.1914.11329-4.4375 1.59375-3.02734 2.73047-1.41016 1.44921-3.07422 2.9922-1.36718 1.08984-4.4375-.8711"/><path fill="#50fcfc" fill-rule="evenodd" d="M183.13672 427.07031l-.13281 4.4375.9414 1.78125 2.25781-1.78125 2.1797-1.2461 4.16015-3.1914-4.16016-3.36719-4.4375 2.53907V427l3.20703.07031-3.20703.58203-.07031-.58203.07031-.07031v-.75781l-.8086.82812"/><path fill="#00ac00" fill-rule="evenodd" d="M183.94531 418.61719l-.5664-.42578.5664-.23438 1.22266.23438-1.22266.42578"/><path fill="#fff" fill-opacity="0" fill-rule="evenodd" d="M183.94531 427l-.07031.07031.07031.58203 3.20703-.58203L183.94531 427"/><path fill="#00e8fc" fill-rule="evenodd" d="M188.38281 379.80469l-1.61719-1.5586 1.6172-1.5625 2.1953 1.5625-2.1953 1.5586"/><path fill="#00d4fc" fill-rule="evenodd" d="M188.38281 436.54688l-1.02734-.60157 1.02734-.89844 3.47656.89844-3.47656.60156"/><path fill="#00e8fc" fill-rule="evenodd" d="M188.38281 388.32031l-.48047-1.19531.48047-.3711 1.11719.3711-1.11719 1.19531"/><path fill="#fff" fill-opacity="0" fill-rule="evenodd" d="M192.82031 394.30078L190.3711 396l2.44922.5586L193.25 396l-.42969-1.69922"/><path fill="#009800" fill-rule="evenodd" d="M192.82031 409.50781l-.03515-.1914.03515-.04688 4.4414-1.875.6836 1.92188-.6836 1.01562-4.4414-.82422"/><path fill="#00c4fc" fill-rule="evenodd" d="M196.80469 396l-2.60547-4.4375 2.66016-4.4375.40234-.39453 4.4375-2.9375v.83594l-3.52344 2.49609-.91406.77344-2.40625 3.66406 2.40625 3.75 2.27734.6875 2.16016 1.16016L204.79688 396l-1.07422-4.4375.1953-4.4375-2.21874-2.4961v-.83593l2.96094 3.33203.09765 4.4375 1.3789 2.875 4.4375.09375v1.16797L208.4297 396l2.14453.3164.36719-.3164-.3672-.30078v-1.16797L212.3711 396l-1.79687 1.54688-4.4375-.60547-4.4375 2.04687-4.4375-2.35156-.45703-.63672"/><path fill="#00e8fc" fill-rule="evenodd" d="M197.26172 398.5586l-2.77344 1.8789 2.77344 1.09375 3.66406-1.09375-3.66406-1.8789"/><path fill="#00b8fc" fill-rule="evenodd" d="M197.26172 395.3125l-2.40625-3.75 2.40625-3.66406.91406-.77344 3.52344-2.4961v.83594l-2.34375 1.66016-2.09375 1.77734-1.75 2.66016 1.75 2.72656 4.4375.48047.98828-3.20703.48828-4.4375-1.47656-1.66016v-.83593l2.21875 2.49609-.19531 4.4375L204.79688 396l-3.09766 1.16016L199.53906 396l-2.27734-.6875"/><path fill="#00a8fc" fill-rule="evenodd" d="M197.26172 394.28906l-1.75-2.72656 1.75-2.66016 2.09375-1.77734 2.34375-1.66016v.83204l-1.16797.82812-3.26953 2.77734-1.08984 1.66016 1.08984 1.69922 4.32422-1.69922.11328-.1836.73437-4.2539-.73437-.82813v-.83203l1.47656 1.66016-.48828 4.4375-.98828 3.20703-4.4375-.48047"/><path fill="#009800" fill-rule="evenodd" d="M197.26172 393.26172l-1.08984-1.69922 1.08984-1.66016v1l-.4336.66016.4336.67188 1.71484-.67188-1.71484-.66016v-1l3.26953-2.77734 1.16797-.82813.73437.82813-.73437 4.2539-.11328.1836-4.32422 1.69922"/><path fill="#00ac00" fill-rule="evenodd" d="M197.26172 392.23438l-.4336-.67188.4336-.66016 1.71484.66016-1.71484.67188"/><path fill="#00b8fc" fill-rule="evenodd" d="M210.57422 396.3164L208.42969 396l2.14453-.30078.36719.30078-.3672.3164"/><path fill="#50fcfc" fill-rule="evenodd" d="M231.26172 422.6289l-2.73828-4.4375 1.52734-4.4375 2.71484-2.57421v2.89844l-2.54687 4.11328 2.54688 2.94921 3.53906-2.94921-3.53906-4.11329v-2.89843l4.4414 1.21094 1.41797 1.36328 1.05469 4.4375-2.47266 3.48828-1.82812.94922-2.61328 1.24218-1.50391-1.24218m1.5039-46.9922l-3.01953-1.82812 3.01953-2.51171 2.46094-1.92579 1.98047-2.3789 4.4375-1.91797v4.1289l-.24219.16797-4.1953 3.64454-1 .79296 1 .57032 2.79687-.57032 1.64062-3.0664.76172-1.3711-.76172-.16796v-4.12891l4.4375 1.58984 4.4375.13672 4.4375 1.26953 4.4414-.16406 4.4375-1.02344v3.6211l-1.24609 3.30468 1.2461 1.29688 4.4375-.84375.23047-.45313-.23047-.61328-4.4375-2.6914v-3.6211l4.4375-1.46094 2.125 3.94922.69922 4.4375.3203 4.4375 1.29298.39844 4.4414.47266v2.11719l-4.02343 1.44921 4.02343 1.7461 4.4375-.19922 1.38282-1.54688-1.38282-1.01171-4.4375-.4375v-2.1172l4.4375.5 4.19532 3.06641-3.57422 4.44141-.6211.47266-2.59765-.47266-1.83985-.14453-4.4414-1.63281-4.4375-1.6875-1.36328-.97657-1.79688-4.4375-1.27734-.2578-4.01172-4.1797-.42578-1.42578-4.4414-1.25-4.4375.66797-2.9922 2.00781-1.4453 1.4922-4.4375 2.58983-4.4375.16407-4.44142-2.41797"/><path fill="#00e8fc" fill-rule="evenodd" d="M232.76563 421.14063l-2.54688-2.94922 2.54688-4.11329 3.53906 4.11329-3.53906 2.94921"/><path fill="#00d4fc" fill-rule="evenodd" d="M237.20703 399.11719L234.77734 396l.95313-4.4375 1.47656-1.03906 4.4375.20703.98438.83203L243.67578 396l-2.03125 1.97266-4.4375 1.14453"/><path fill="#00e8fc" fill-rule="evenodd" d="M237.20703 374.3789l-1-.5703 1-.79298 4.19531-3.64453.2422-.16796.76171.16796-.76172 1.3711-1.64062 3.0664-2.79688.57032"/><path fill="#50fcfc" fill-rule="evenodd" d="M241.64453 384.08594l-.95312-1.40235.95312-2.6328 1.02344 2.6328-1.02344 1.40235m17.7539 12.42578L258.29688 396l1.10157-.51953.90234.51953-.90234.51172"/><path fill="#00e8fc" fill-rule="evenodd" d="M263.83594 375.10547l-1.2461-1.29688 1.2461-3.30468 4.4375 2.6914.23047.61328-.23047.45313-4.4375.84375m13.3164 9.32422l-4.02343-1.7461 4.02343-1.44921 4.4375.4375 1.38282 1.01171-1.38282 1.54688-4.4375.19922"/><path fill="#50fcfc" fill-rule="evenodd" d="M330.41016 376.95313l-3.21485-3.14454 3.21485-3.05468v2.17578l-.92579.8789.92579.90625.95703-.90625-.95703-.8789v-2.17578l3.32812 3.05468-3.32812 3.14454"/><path fill="#00e8fc" fill-rule="evenodd" d="M330.41016 374.71484l-.92579-.90625.92579-.8789.95703.8789-.95703.90625"/><path fill="#50fcfc" fill-rule="evenodd" d="M379.23438 435.27344l-3.625-3.76563 2.01953-4.4375 1.60546-1.60547v3.04297l-2.05468 3 2.05469 2.13281 2.09765-2.1328-2.09765-3v-3.04298l1.71875 1.60547 1.98046 4.4375-3.69921 3.76563"/><path fill="#00e8fc" fill-rule="evenodd" d="M379.23438 433.64063l-2.0547-2.13282 2.0547-3 2.09765 3-2.09765 2.13281"/><path fill="#50fcfc" fill-rule="evenodd" d="M383.67188 398.46094L381.32421 396l2.34765-2.35938L386.07423 396l-2.40235 2.46094m4.4375 25.51953l-.47265-1.35156.47265-.40625 4.4375-1.32422 4.4375-.16016v9.82031l-1.78906.94922 1.78906.51172 2.25391-.51172-2.2539-.94922v-9.8203l1.92187 1.89062 2.51953 3.58203.9375.85937 2.19531 4.4375 1.3047 1.53516 4.4375 1.69531 1.1289 1.20703-1.1289 1.71094-4.4375.8086-2.33595-2.51954-2.10156-1.83984-4.4414.27344-4.4375-.0547-2.98047-2.8164-.32422-4.4375-1.13281-3.08984"/><path fill="#00e8fc" fill-rule="evenodd" d="M396.98438 432.01953l-1.78907-.51172 1.78906-.94922 2.25391.94922-2.2539.51172"/><path fill="#50fcfc" fill-rule="evenodd" d="M405.86328 387.44922l-.33203-.32422.33203-.48828.32422.48828-.32422.32422m26.6289-70.85938l-.48046-.48046.48047-.50391.48047.5039-.48047.48047m4.4375 55l-1.73438-2.21875 1.73438-2.0039 4.4414 1.16406 1.8047.83984 2.6328 1.40235 1.76954 3.03515-1.76954 1.50782-1.53125-1.50782-2.90625-3.80078-4.4414 1.58203m13.3164 14.10157l-3.82421-3.00782 3.82421-3.0039v2.14844l-1.08984.85546 1.08984.85938.88282-.85938-.88282-.85546v-2.14844l3.09766 3.0039-3.09766 3.00782"/><path fill="#00e8fc" fill-rule="evenodd" d="M450.2461 383.54297l-1.08985-.85938 1.08984-.85546.88282.85546-.88282.85938"/><path fill="#50fcfc" fill-rule="evenodd" d="M454.6836 371.25l-2.03516-1.8789 2.03515-1.29688 1.54297 1.29687 2.89844 1.9375 1.76563 2.5.65234 4.4375-2.41797 2.42188-2.44531-2.42188-.39844-4.4375-1.59766-2.55859"/><g clip-path="url(#c)"><path fill="#fff" fill-opacity="0" fill-rule="evenodd" d="M467.9961 480.32813H468V311.67188h-.0039H468v168.65625h-.0039"/></g><path fill="#fff" fill-opacity="0" fill-rule="evenodd" d="M171.58203 403.83984l5.83984.06641.11329-9.96094-5.84375-.0664-.10938 9.96093"/><path fill-rule="evenodd" d="M175.17188 395.75l.5078.00781-.0703 6.29297-.78516-.00781.05078-4.48828-1.39063-.01563.00782-.55469.5586-.05859.2539-.05078.23047-.08984.20703-.13672.17578-.21094.14453-.29297.10938-.39453"/><path fill="#fff" fill-opacity="0" fill-rule="evenodd" d="M251.79297 409.89063l2.08594-5.45313-9.3047-3.5586-2.08593 5.45704 9.30469 3.55469"/><path fill-rule="evenodd" d="M245.45313 403.71875l.17968-.47266 5.8789 2.2461-.28124.73828-4.1914-1.60547-.4961 1.29688-.51953-.19922.14062-.54688.03906-.2539-.0039-.2461-.0586-.23828-.1328-.23828-.22657-.23828-.32813-.24219"/><path fill="#fff" fill-opacity="0" fill-rule="evenodd" d="M173.96875 446.45703l4.3789-3.86328-6.58984-7.46875-4.3789 3.86328 6.58984 7.46875"/><path fill-rule="evenodd" d="M171.21484 438.04688l.38282-.33594 4.16406 4.71875-.58984.51953-2.97266-3.36328-1.03906.91797-.3672-.41797.375-.41797.15626-.20703.10937-.21875.0625-.24219-.01172-.27344-.08593-.3125-.1836-.36719"/><path fill="#fff" fill-opacity="0" fill-rule="evenodd" d="M206.1914 407.44922l1.42579-7.79688-10.02344-1.83203-1.42969 7.79297 10.02735 1.83594"/><path fill-rule="evenodd" d="M198.41406 403.5039l.59375-3.23437.72656.13281L199.25781 403l1.73438.55078-.11719-.25-.08203-.29297-.03125-.33203.03906-.38281.08594-.3164.14453-.31641.20313-.30079.26953-.26562.33203-.21875.1914-.08203.21094-.0625.22656-.04297.2461-.01563.26172.00782.28125.03906.42968.11328.39453.17578.34375.23828.29297.29688.22266.35547.08203.19531.0625.21094.03906.22265.01563.23438-.00781.2461-.03516.2578-.1211.45313-.17187.375-.21875.30078-.26172.23047-.29687.17188-.32422.11328-.34766.0664-.36328.02344.14063-.77344.24218-.03906.22266-.0625.20313-.08984.17578-.11329.15234-.14453.1211-.16796.09374-.19532.0625-.22656.03125-.3125-.01953-.28906-.07422-.26563-.125-.23047-.18359-.20312-.23438-.16797-.29296-.1289-.34766-.08985-.26172-.02734-.26953.01171-.26172.0586-.25.10156-.22656.15625-.1914.20703-.14845.26563-.09765.32812-.02344.33594.05469.29688.13672.30078.20703.35546-.125.6836-3.28516-1.07031"/><g clip-path="url(#d)"><path fill="none" stroke="#000" stroke-linecap="round" stroke-linejoin="round" stroke-miterlimit="10" stroke-width=".5" d="M146.21484 483.0586l-4.42968-5.45704"/></g><g clip-path="url(#e)"><path fill="none" stroke="#000" stroke-linecap="round" stroke-linejoin="round" stroke-miterlimit="10" stroke-width=".5" d="M159.04297 483.38672l-3.45703-6.11719"/></g><g clip-path="url(#f)"><path fill="none" stroke="#000" stroke-linecap="round" stroke-linejoin="round" stroke-miterlimit="10" stroke-width=".5" d="M172.25 483.44531l-3.23828-6.23437"/></g><g clip-path="url(#g)"><path fill="none" stroke="#000" stroke-linecap="round" stroke-linejoin="round" stroke-miterlimit="10" stroke-width=".5" d="M185.58594 483.4336l-3.28516-6.21094"/></g><g clip-path="url(#h)"><path fill="none" stroke="#000" stroke-linecap="round" stroke-linejoin="round" stroke-miterlimit="10" stroke-width=".5" d="M198.92578 483.42188l-3.33203-6.1875"/></g><g clip-path="url(#i)"><path fill="none" stroke="#000" stroke-linecap="round" stroke-linejoin="round" stroke-miterlimit="10" stroke-width=".5" d="M211.79297 483.625l-2.4336-6.59375"/></g><g clip-path="url(#j)"><path fill="none" stroke="#000" stroke-linecap="round" stroke-linejoin="round" stroke-miterlimit="10" stroke-width=".5" d="M226.14844 483.01953l-4.51563-5.38281"/></g><g clip-path="url(#k)"><path fill="none" stroke="#000" stroke-linecap="round" stroke-linejoin="round" stroke-miterlimit="10" stroke-width=".5" d="M239.84375 482.64844l-5.27734-4.64063"/></g><g clip-path="url(#l)"><path fill="none" stroke="#000" stroke-linecap="round" stroke-linejoin="round" stroke-miterlimit="10" stroke-width=".5" d="M253.23438 482.5586l-5.4297-4.46094"/></g><g clip-path="url(#m)"><path fill="none" stroke="#000" stroke-linecap="round" stroke-linejoin="round" stroke-miterlimit="10" stroke-width=".5" d="M266.6289 482.46094l-5.58593-4.26172"/></g><g clip-path="url(#n)"><path fill="none" stroke="#000" stroke-linecap="round" stroke-linejoin="round" stroke-miterlimit="10" stroke-width=".5" d="M280.02734 482.34766l-5.7539-4.03516"/></g><g clip-path="url(#o)"><path fill="none" stroke="#000" stroke-linecap="round" stroke-linejoin="round" stroke-miterlimit="10" stroke-width=".5" d="M293.3086 482.39063l-5.6875-4.125"/></g><g clip-path="url(#p)"><path fill="none" stroke="#000" stroke-linecap="round" stroke-linejoin="round" stroke-miterlimit="10" stroke-width=".5" d="M306.45703 482.60547l-5.35156-4.55469"/></g><g clip-path="url(#q)"><path fill="none" stroke="#000" stroke-linecap="round" stroke-linejoin="round" stroke-miterlimit="10" stroke-width=".5" d="M320.125 482.10938l-6.0586-3.5625"/></g><g clip-path="url(#r)"><path fill="none" stroke="#000" stroke-linecap="round" stroke-linejoin="round" stroke-miterlimit="10" stroke-width=".5" d="M333.26563 482.375l-5.71094-4.09375"/></g><g clip-path="url(#s)"><path fill="none" stroke="#000" stroke-linecap="round" stroke-linejoin="round" stroke-miterlimit="10" stroke-width=".5" d="M346.6211 482.32031l-5.78907-3.98437"/></g><g clip-path="url(#t)"><path fill="none" stroke="#000" stroke-linecap="round" stroke-linejoin="round" stroke-miterlimit="10" stroke-width=".5" d="M358.625 477.1914l-3.16797 6.27344"/></g><path fill="none" stroke="#000" stroke-linecap="round" stroke-linejoin="round" stroke-miterlimit="10" stroke-width=".5" d="M358.16406 478.10547l1.22656-.02735"/><g clip-path="url(#u)"><path fill="none" stroke="#000" stroke-linecap="round" stroke-linejoin="round" stroke-miterlimit="10" stroke-width=".5" d="M370.47266 476.8164l-.23438 7.02344"/></g><path fill="none" stroke="#000" stroke-linecap="round" stroke-linejoin="round" stroke-miterlimit="10" stroke-width=".5" d="M370.4375 477.83984l1.10156-.53906"/><g clip-path="url(#v)"><path fill="none" stroke="#000" stroke-linecap="round" stroke-linejoin="round" stroke-miterlimit="10" stroke-width=".5" d="M382.29297 477.09766l2.75781 6.46093"/></g><path fill="none" stroke="#000" stroke-linecap="round" stroke-linejoin="round" stroke-miterlimit="10" stroke-width=".5" d="M382.6914 478.03906l.76954-.95703"/><g clip-path="url(#w)"><path fill="none" stroke="#000" stroke-linecap="round" stroke-linejoin="round" stroke-miterlimit="10" stroke-width=".5" d="M393.91016 478.6289l6.15234 3.39844"/></g><path fill="none" stroke="#000" stroke-linecap="round" stroke-linejoin="round" stroke-miterlimit="10" stroke-width=".5" d="M393.91016 478.6289l.03906-2.45312"/><g clip-path="url(#x)"><path fill="none" stroke="#000" stroke-linecap="round" stroke-linejoin="round" stroke-miterlimit="10" stroke-width=".5" d="M407.05078 478.9961l6.5039 2.66406"/></g><path fill="none" stroke="#000" stroke-linecap="round" stroke-linejoin="round" stroke-miterlimit="10" stroke-width=".5" d="M407.05078 478.9961l-.2461-2.44141"/><g clip-path="url(#y)"><path fill="none" stroke="#000" stroke-linecap="round" stroke-linejoin="round" stroke-miterlimit="10" stroke-width=".5" d="M420.13281 479.88281l6.96875.89063"/></g><g clip-path="url(#z)"><path fill="none" stroke="#000" stroke-linecap="round" stroke-linejoin="round" stroke-miterlimit="10" stroke-width=".5" d="M421.14453 480.01172l-.4336-1.14453"/></g><g clip-path="url(#A)"><path fill="none" stroke="#000" stroke-linecap="round" stroke-linejoin="round" stroke-miterlimit="10" stroke-width=".5" d="M433.41797 480.41016l7.02734-.16407"/></g><g clip-path="url(#B)"><path fill="none" stroke="#000" stroke-linecap="round" stroke-linejoin="round" stroke-miterlimit="10" stroke-width=".5" d="M434.4414 480.38672l-.60156-1.07031"/></g><g clip-path="url(#C)"><path fill="none" stroke="#000" stroke-linecap="round" stroke-linejoin="round" stroke-miterlimit="10" stroke-width=".5" d="M446.95313 481.55469l6.58593-2.45313"/></g><g clip-path="url(#D)"><path fill="none" stroke="#000" stroke-linecap="round" stroke-linejoin="round" stroke-miterlimit="10" stroke-width=".5" d="M447.91406 481.19922l-.91797-.8125"/></g><g clip-path="url(#E)"><path fill="none" stroke="#000" stroke-linecap="round" stroke-linejoin="round" stroke-miterlimit="10" stroke-width=".5" d="M460.22656 481.4336l6.66797-2.21094"/></g><g clip-path="url(#F)"><path fill="none" stroke="#000" stroke-linecap="round" stroke-linejoin="round" stroke-miterlimit="10" stroke-width=".5" d="M461.19531 481.11328l-.88672-.84765"/></g><g clip-path="url(#G)"><path fill="none" stroke="#000" stroke-linecap="round" stroke-linejoin="round" stroke-miterlimit="10" stroke-width=".5" d="M145.14453 470.33594l-2.28906-6.64453"/></g><g clip-path="url(#H)"><path fill="none" stroke="#000" stroke-linecap="round" stroke-linejoin="round" stroke-miterlimit="10" stroke-width=".5" d="M144.8125 469.36719l-.83594.89844"/></g><path fill="none" stroke="#000" stroke-linecap="round" stroke-linejoin="round" stroke-miterlimit="10" stroke-width=".5" d="M158.05469 470.44922l-1.48047-6.8711m1.48047 6.8711l-1.875 1.58203m15.23047-1.58984l-1.5586-6.85547m1.5586 6.85547l-1.85938 1.60156m15.22656-1.61719l-1.66406-6.82422m1.66406 6.82422l-1.83593 1.63281m15.28515-1.66796l-1.9336-6.75391m1.9336 6.7539l-1.76562 1.70313m15.02344-1.6875l-1.81641-6.78516m1.8164 6.78516l-1.79687 1.67578m15.57813-1.83594l-2.75-6.46484m2.35156 5.52344l-.77344.95703m15.41797-.59766l-4.61328-5.30078m3.9414 4.53125l-.4375 1.14453m14.76172-.71094l-5.28515-4.6289m4.51562 3.95703l-.28125 1.19531m13.76172.02344l-4.08203-5.72266m3.48828 4.89063l-.54688 1.09765m14.96875-.71093l-5.10546-4.83203m4.36328 4.1289l-.32813 1.1836m14.46875-.57032l-5.26953-4.65234m4.5 3.97266l-.28125 1.1953m14.53906-.73437l-5.62109-4.21484m4.80469 3.60156l-.1875 1.21094m14.80469-1.48828l-6.58985-2.4336m5.63281 2.07813l.16407 1.21875m14.32812-2.02344l-7.02734-.11328m6.0039.09375l.5586 1.09375m11.41797-4.44922l-2.3047 6.63672m13.0547-6.53515l2.82422 6.43359m-2.41407-5.5l.76172-.96094m12.22656-.00781l2.65625 6.5039m-2.65625-6.5039l1.57422-1.88672m10.54688 2.6914l5.04687 4.89454m-5.04687-4.89453l.67969-2.35547m12.0039 3.2539l6.3086 3.09766m-6.3086-3.09766l-.07812-2.45312m13.23437 2.82812l6.625 2.34766m-6.625-2.34766l-.35937-2.42578m13.61328 2.61719l6.7461 1.96484m-6.7461-1.96484l-.4961-2.40234m13.67188 3.30078l7.02734.16797m-6.0039-.14453l-.55078-1.09375m12.84375 1.29296l7.02343-.27734m-7.02343.27734L445.5 465.03125m14.60938 2.64063l6.90234-1.31641m-6.90234 1.3164l-1.53516-1.91406"/><g clip-path="url(#I)"><path fill="none" stroke="#000" stroke-linecap="round" stroke-linejoin="round" stroke-miterlimit="10" stroke-width=".5" d="M143.69531 457.19922l.60938-7"/></g><g clip-path="url(#J)"><path fill="none" stroke="#000" stroke-linecap="round" stroke-linejoin="round" stroke-miterlimit="10" stroke-width=".5" d="M143.78516 456.17969l-1.12891.48047"/></g><path fill="none" stroke="#000" stroke-linecap="round" stroke-linejoin="round" stroke-miterlimit="10" stroke-width=".5" d="M157.11719 457.20703l.39453-7.01562m-.39453 7.01562l-2.22656 1.02735m14.9453-1.11329l1.58985-6.84375m-1.58984 6.84375l-2.3711.63282m15.71094-.625l1.53516-6.85938m-1.53516 6.85938l-2.36328.64843m15.69922-.64453l1.4961-6.86719m-1.27735 5.8672l-1.17969.33202m14.46875.70313l1.10938-6.9375m-.94532 5.92969l-1.16406.39453m14.28125.60937l1.17969-6.92969m-1.00781 5.92188l-1.16407.38281M238.40625 457l-2.40234-6.60156m2.05468 5.64062l-.82422.91406m16.48829-1.80468L247.3203 452.25m5.46875 2.47656l.07813 1.22266m12.35156.98047l-2.76563-6.46094m2.36329 5.51953l-.76953.95703m13.91015.17188l-1.60937-6.83985m1.375 5.84766l-.92578.8086m15.57812-.28516l-3.82031-5.89844m3.26562 5.03906l-.59375 1.07422m15.17969-.82812l-5.25-4.67188m4.48438 3.99219l-.28907 1.1914m15.24219-3.1953l-6.99219.6953m18.86719-3.1953l-4.11328 5.6953m3.51172-4.86718l1.21875.16797m8.09375-.57032l5.09375 4.84375m7.88672-4.43359l5.76171 4.02344M355 452.27344l.14453-1.21875m13.32031-.3164l3.78516 5.92187m-3.78516-5.92188l1.20313-2.13672m11.59765 2.53516l4.8086 5.125m-4.8086-5.125l.79297-2.32422m-.09375 3.07031l.39844-1.16406m11.48438 1.40234l6.27734 3.15625m-6.27734-3.15625l-.0547-2.45312m.96876 2.91015l-.05469-2.45312m12.17188 2.78516l6.84765 1.57422m-6.84765-1.57422l-.64063-2.3672m13.86719 3.2422l7.02344-.17188m-7.02344.17188l-1.20703-2.14063m14.52344 1.86719l7.01953.3711m-7.01954-.3711l-1.03515-2.22266m14.35156 2.1875l7.01563.44532m-7.01563-.44532l-1.01172-2.23437m14.33594 2.15234l7 .60938m-7-.60938l-.96094-2.26172"/><g clip-path="url(#K)"><path fill="none" stroke="#000" stroke-linecap="round" stroke-linejoin="round" stroke-miterlimit="10" stroke-width=".5" d="M147.4414 439.67578l-6.8828 1.41406"/></g><path fill="none" stroke="#000" stroke-linecap="round" stroke-linejoin="round" stroke-miterlimit="10" stroke-width=".5" d="M146.4414 439.88281l.78126.94531m9.16797 2.94532l1.85156-6.77735m-1.85156 6.77735l-2.39454.53906m16-.47266l1.26563-6.91406m-1.26563 6.91406l-2.33593.7422m15.125-.88282l2.3203-6.63281m-2.3203 6.6328l-2.42578.3711m16.21875-.23828l1.36328-6.89453m-1.36328 6.89453l-2.34766.70703m16.14844-.64844l.39453-7.01562m-.33985 5.9961l-1.11328.51171m15.08594.47656l-1.03125-6.94921m.88281 5.9375l-.98828.73046m15.53906-.0664l-3.20703-6.2539m2.73828 5.34374l-.69922 1.0039m13.28516.26954l-.8086-6.98047m.69141 5.96484l-1.01172.69532m12.84375.13281l2.39063-6.60938m-2.04297 5.64844l-1.21484.17188m14.19922.79687l2.35547-6.6211m-2.01172 5.65626l-1.21485.17969m11.89453-1.97657l6.94141-1.09765m-5.9336.9375l-.73827-.98047m13.0703-.09766l6.89063 1.3789m9.42578 2.79298l.88672-6.96875m10.67969 6.23047l4.38281-5.4922m-3.7461 4.69532l-1.20312-.22656m12.61329-1.10938l6.92187-1.22265m-5.91406 1.04297l-.75781-.96485m13.14453-.42969l6.76172 1.92188m-6.76172-1.92188l-.51172-2.39843m14.80078.80078l4.8125 5.1211m-4.8125-5.1211l.78906-2.32422m12.61719 2.24219l4.63281 5.28515m-4.63281-5.28515l.8711-2.29688m11.68359 3.24219l6.15234 3.39062m-6.15234-3.39062l.03515-2.45313m13.07422 2.89063l6.5625 2.51562m-6.5625-2.51562l-.30078-2.4336m13.39844 3.38282l7 .61719m-7-.6172l-.95703-2.2578m1.97656 2.34765l-.48047-1.1289m12.80078.8203l6.94922 1.0586m-6.94922-1.0586l-.8125-2.3164m1.82422 2.46875l-.40625-1.15625m12.84766.4336l6.67187 2.19921m-6.67187-2.19921l-.41797-2.41797m13.58984 3.01953l6.95703.99219m-6.95703-.9922l-.83203-2.30859"/><g clip-path="url(#L)"><path fill="none" stroke="#000" stroke-linecap="round" stroke-linejoin="round" stroke-miterlimit="10" stroke-width=".5" d="M145.32031 423.8125l-2.64062 6.51172"/></g><path fill="none" stroke="#000" stroke-linecap="round" stroke-linejoin="round" stroke-miterlimit="10" stroke-width=".5" d="M157.07422 430.57422l.48437-7.01172m10.3711 5.7539l5.39844-4.49609m-4.61329 3.84375l-1.1328-.46484m13.5039.91406l5.71875-4.08984m-4.88672 3.49219l-1.09766-.54297m15.7539 2.54297l1.3711-6.89454m-1.3711 6.89453l-2.34765.70704M211 430.55469l-.85156-6.97266m.72656 5.96094l-1.0039.69922m14.08593.33984l-.13281-7.02734m.11328 6.0039l-1.07422.59766m13.97656.40625l.73047-6.98828m-.625 5.97266l-1.13672.45703m11.94532-.76953l5.53515-4.33204m-4.73047 3.70313l-1.12109-.5m13.46484.89844l5.8672-3.8711m-5.01173 3.3086l-1.07812-.58985m12.97656-1.13672l6.98828.70704m7.51953-3.00782l4.60547 5.3086m-3.9375-4.53516l.4414-1.14453m11.86329.71094l5.28515 4.6289m-4.51562-3.95703l.28125-1.1914m11.67578 1.46093l6.46875 2.7461m-5.53125-2.34766l-.10547-1.21875m13.54297-.57031l4.34375 5.52734m-3.71094-4.72265l.4961-1.1211m12.26562.25781l4.1875 5.64454m-3.57812-4.82422l.52734-1.10547m12.01172.41797l4.51953 5.3789m-4.51953-5.3789l.91797-2.27735m11.98437 2.6836l5.34375 4.5664m-5.34375-4.5664l.53125-2.39453m12.16016 3.46484l6.59375 2.42578m-6.59375-2.42578l-.33594-2.42969m14.13281 1.54297l5.62891 4.19922m-5.6289-4.19922l.37109-2.42578m13.19531 2.1211l5.125 4.80859m-5.125-4.8086l.64453-2.36719m11.9414 3.54297l6.58204 2.45703m-6.58203-2.45703l-.32031-2.43359m13.98437 1.7461l5.88672 3.83202m-5.03125-3.27734l.10937-1.21875m12.16797.97656l6.25391 3.20704m-5.34375-2.73829l-.01953-1.22656m12.45703.6914l6.1836 3.33985m-6.1836-3.33984l.01953-2.45313"/><g clip-path="url(#M)"><path fill="none" stroke="#000" stroke-linecap="round" stroke-linejoin="round" stroke-miterlimit="10" stroke-width=".5" d="M144.14844 417.26563l-.29688-7.02344"/></g><path fill="none" stroke="#000" stroke-linecap="round" stroke-linejoin="round" stroke-miterlimit="10" stroke-width=".5" d="M160.73438 412.94531l-6.83985 1.61719m5.84375-1.38281l.8125.92187m12.3164-3.05469l-4.47655 5.41407m3.82812-4.6289l1.19922.24609m9.78906 5.10937l1.47656-6.86719m-1.26172 5.86719l-1.17968.33594m15.21484.73828l-.39453-7.01563m.33984 5.9961l-1.05078.63281m13.11328.21094l2.22266-6.66407m-2.22266 6.66407l-2.42187.41015m15.28906-.59375l3.11328-6.29687m-3.11328 6.29687l-2.44922.07422m15.3164-.33984l4.01173-5.76563m-4.01172 5.76563l-2.4375-.29297m15.125-.26563l5.26953-4.64843m-5.26953 4.64844l-2.29688-.86329m15.94532 1.19532l4.59765-5.3125m-3.92578 4.53906l-1.19922-.27344m12.8789-.3125l6.52735-2.59766m-5.57812 2.22266l-.9375-.79297m13.05469-.05078l7.02343-.15625m-6 .13281l-.60156-1.0703m13.09375-.15626l6.625 2.34375m-5.66016-2.0039l-.18359-1.21094m12.63672.61328l6.41797 2.85937m-5.48438-2.4414l-.08593-1.22657m12.6875.39454l5.98046 3.6875m-5.11328-3.15235l.07813-1.22265m13.72656-.57813l3.26563 6.21875m-3.26563-6.21875l1.3789-2.02734m11.10938 2.625l4.91797 5.02343m-4.91797-5.02343l.74219-2.33985m12.19922 2.77344l5.66406 4.15625m-5.66406-4.15625l.35156-2.42969m12.53125 3.21094l6.53125 2.59375m-6.53125-2.59375l-.26953-2.4414m1.21875 2.8164l-.13281-1.21875m12.40234 1.11328l6.72266 2.05078m-6.72266-2.05078l-.46875-2.40625m1.44922 2.70703l-.23828-1.20312m13.1836-.2539l5.5039 4.36718m-5.5039-4.36719l.4414-2.41406m12.79687 2.50781l5.65235 4.17578m-5.65235-4.17578l.36328-2.42578m.46094 3.03516l.17969-1.21485m12.58984.27344l5.09375 4.83984m-5.09375-4.83984l.66016-2.36328m.08203 3.07031l.32813-1.1836m12.21875.50782l5.14843 4.78125m-5.14843-4.78125l.6289-2.3711m12.6836 2.3711l5.15234 4.77734m-5.15234-4.77734l.6289-2.3711m.1211 3.06641l.3164-1.18359"/><g clip-path="url(#N)"><path fill="none" stroke="#000" stroke-linecap="round" stroke-linejoin="round" stroke-miterlimit="10" stroke-width=".5" d="M147.23828 401.80078l-6.47656-2.72656"/></g><path fill="none" stroke="#000" stroke-linecap="round" stroke-linejoin="round" stroke-miterlimit="10" stroke-width=".5" d="M147.23828 401.80078l.22266 2.44531m13.36719-3.85156l-7.02735.08594m7.02734-.08594l1.1797 2.15235m11.98437-3.13282l-6.72266 2.05078m6.72266-2.05078l1.73437 1.73438m11.71875-1l-7 .58203m5.98438-.5l.66015 1.03515m11.39063 2.46875l-2.4414-6.58984m12.01952 5.7461l5.03516-4.90235m-5.03516 4.90235l-2.33593-.75m15.30078.33203l5.73437-4.06641m-5.73437 4.0664l-2.1914-1.10156m15.60155 1.22657l5.54297-4.32032m-5.54297 4.32032l-2.23828-1m15.9336 1.41406l4.78515-5.14453m-4.78515 5.14453l-2.3711-.63281m15.47656.42187l5.20313-4.72265m-5.20313 4.72265l-2.30859-.83203m15.5586.75781l5.33203-4.57422m-5.33203 4.57422l-2.28516-.89453m15.4336.6836l5.66796-4.15625m-5.66797 4.15625l-2.21094-1.06641m14.89844-.39844l6.92188-1.22265m-6.92188 1.22265l-1.51172-1.9336m14.8711 2.14454l6.83203-1.64453m-6.83203 1.64453l-1.625-1.83594m15.23437 2.6289l6.24219-3.23046m-5.33203 2.75781l-1.01172-.69531m13.14062.44531l6.79688-1.78906m-6.79688 1.78906l-1.66406-1.80078m14.9961-.05469l6.76171 1.92188m-6.76171-1.92188l-.51172-2.39844m13.82812 2.40235l6.75781 1.91797m-6.7578-1.91797l-.51563-2.39844m14.97656.64453l4.46875 5.42188m-3.82031-4.63281l.46875-1.13282m11.86328.66016l5.13672 4.79297m-5.13672-4.79297l.63672-2.3711m12.35937 2.76172l5.77344 4.00782m-5.77344-4.00782l.28906-2.4375m13.06641 2.38282l5.69531 4.11718m-5.6953-4.11718l.33593-2.4297m13.63672 1.7422l4.3789 5.49609m-4.3789-5.4961l.97656-2.2539m12.90625 1.88281l3.24219 6.23438m-3.24219-6.23438l1.39062-2.01953m-.91796 2.92578l.6953-1.00781m11.32032.69922l4.89453 5.04297m-4.89453-5.04297l.7539-2.33594"/><g clip-path="url(#O)"><path fill="none" stroke="#000" stroke-linecap="round" stroke-linejoin="round" stroke-miterlimit="10" stroke-width=".5" d="M141.07422 389.07031l5.85156-3.89453"/></g><path fill="none" stroke="#000" stroke-linecap="round" stroke-linejoin="round" stroke-miterlimit="10" stroke-width=".5" d="M154.45703 389.16797l5.71484-4.08985m13.83985 3.00391l-6.76172-1.91797m5.77734 1.63672L173.28516 389m13.48828.20703l-5.65625-4.16797m5.65625 4.16797l-.35547 2.42578m11.41406-1.04297l-1.14453-6.93359m.97656 5.92578l-.97265.74219m13.51953.29297l.72656-6.98828m-.6211 5.97265l-1.13671.46094m15.4375.5l-1.45313-6.875m1.24219 5.8711l-.9414.78906m11.37109-.62891l4.73828-5.1914m-4.04688 4.4375l-1.1914-.3086m13.39453.60156l5.58203-4.26953m-5.58203 4.26953L245.5 388.23828m3.04297.39844l-1.11719-.50781m13.1875.39453l6.44531-2.80078m-6.4453 2.80078l-1.92188-1.52735m15.59765 2.16407l5.72657-4.07422m-5.72657 4.07422l-2.19531-1.09766m3.02734.5039l-1.09765-.54687m13.5039 1.03125l5.875-3.85547m-5.875 3.85547L285.375 387.875m3.00781.61719l-1.07422-.58985m13.0586.04688l6.82812-1.65235m-6.82812 1.65235l-1.6289-1.83594m14.84374 1.04297l7.02735-.0664m-6.00391.05468l-.58594-1.07812m12.91406 1.5664l6.95313-1.01953m-6.95313 1.01953l-1.45312-1.97656m14.7461 1.78906l7-.64062m-5.98048.54687l-.67187-1.02734m12.96875 1.11719l6.9961-.63672m-5.98048.54687l-.67187-1.02734m13.5039-1.08203l5.9336 3.76172m-5.07031-3.21485l.09375-1.22265m13.61718-.51563l3.41016 6.14453m-2.91406-5.25l.66797-1.03125m11.48047.6211l4.7539 5.17578m-4.0625-4.42188l.40625-1.15625m11.91797.71485l5.35156 4.55078m-5.35156-4.55078l.52344-2.39844m15.05078 1.1836l.83594 6.98046m-.83594-6.98047l2.01172-1.39844m11.3164 1.39844l.8086 6.98047m-.6914-5.96484l1.01171-.69531m11.69531-.22657l1.78907 6.79297m-1.52735-5.80469l.89844-.83203m13.375-.25781l-.64844 6.9961m.64844-6.9961l2.26172-.94531"/><g clip-path="url(#P)"><path fill="none" stroke="#000" stroke-linecap="round" stroke-linejoin="round" stroke-miterlimit="10" stroke-width=".5" d="M147.4375 373.08203l-6.875 1.45313"/></g><path fill="none" stroke="#000" stroke-linecap="round" stroke-linejoin="round" stroke-miterlimit="10" stroke-width=".5" d="M147.4375 373.08203l1.57422 1.88281m-2.57422-1.67187l.78906.9414m13.59766-.625l-7.01563.39844m7.01563-.39844l1.26953 2.09766m10.69531.8711l-4.32031-5.53907m3.6914 4.73438l-.5 1.1211m11.31641.28905l1.9375-6.7539m-1.65625 5.77344l-1.19922.2539m17.30078.16797l-4.19921-5.63281m3.58984 4.8125l-.52734 1.10937m15.4453-1.4414l-6.1875-3.33204m5.28907 2.84766l-.00781 1.22656m12.83203.66407l-3.41016-6.14454m2.91407 5.25391l-.66797 1.02735m13.0039.29687l-.45703-7.01172m.39063 5.99219l-1.04297.64453m12.6875.04297l3.01953-6.34375m-2.58203 5.42187l-1.22656.0547m12.9414-.02345l5.34375-4.5625m-5.34375 4.5625l-2.28515-.90234m16.4453 1.6211l3.65235-6.00391m-3.65234 6.0039l-2.44922-.14062m15.17578-.3086l4.83203-5.10156m-4.83203 5.10156l-2.36719-.65234m3.07032-.08984l-1.1836-.32813m13.61328.88281l5.19532-4.73046m-5.19532 4.73046l-2.3125-.82421m15.12891.125l6.1914-3.32813M314 375.47266l-2.03906-1.36329m18.79297 3.19532l-.6875-6.99219m10.39062 2.20703l6.53906 2.57813m7.30079-3.48047L359.78516 376m-4.69141-3.7461l.22656-1.20702m12.91016-.03516l4.2539 5.59375m-3.63671-4.78125l.51562-1.11328m10.86328 2.39453l6.88672 1.40234m-5.88281-1.19531l-.34766-1.17969m13.33594-.48828l5.53516 4.32813m-4.73047-3.69922l.21484-1.20703m14.92188-.76954l.28125 7.02344m-.23828-6l1.05859-.6211m10.92187-.10155l2.86329 6.41796m-2.44532-5.48437l.7539-.96484m11.37892.5l4.39453 5.48437m-3.75391-4.6875l.48438-1.125m11.17578 1.64063l6.42187 2.85937m-6.42187-2.85937l-.16797-2.44922M460.5 372.08594l6.125 3.44531m-5.23437-2.94531l.03125-1.22656"/><g clip-path="url(#Q)"><path fill="none" stroke="#000" stroke-linecap="round" stroke-linejoin="round" stroke-miterlimit="10" stroke-width=".5" d="M146.6875 358.22656l-5.375 4.53125"/></g><path fill="none" stroke="#000" stroke-linecap="round" stroke-linejoin="round" stroke-miterlimit="10" stroke-width=".5" d="M146.6875 358.22656l2.27734.91406m-3.05859-.2539l2.27734.91406m-3.0625-.2539l1.14063.45703m13.84375-1.64454l-5.58203 4.26563m5.58203-4.26563l2.23047 1.02344m-3.04297-.40234l2.23047 1.02344m-3.04297-.40235l1.11719.51172m10.70312-3.11719l.66016 6.9961m-.5664-5.98047l1.02733-.67578m11.39063 6.48437l2.26563-6.65234m-1.9336 5.6836l-1.21094.1953m13.23828.26954l4.1797-5.64844m-3.57423 4.82812l-1.21093-.17968m15.24609 1.60546l1.52734-6.85937m-1.30468 5.86328l-1.1836.32422m15.15625.7539l-.23828-7.02343m.20703 6.0039l-1.0664.60938m14.66406.39453L236.83594 357m.63281 5.96875l-1.01953.6875m15.6914-.04297l-3.23828-6.23828m2.76563 5.32813l-.69531 1.01171m16.12109-1.90625l-6.51563-2.6328m6.51563 2.6328l.25781 2.44141m12.84375-2.0039l-6.08984-3.50391m6.08984 3.5039l-.08203 2.44922m13.26953-2.24219l-5.83203-3.91796m5.83203 3.91796l-.2539 2.44141m13.65625-2.57812l-6.00782-3.64844m6.00782 3.64844l-.14063 2.44921m13.47266-2.47656l-6.04297-3.58984m6.04297 3.58984L320 364.73828m13.90625-4.60156l-6.99219.71484m5.97656-.61328l.6836 1.01953m7.30078 1.28906l5.70312-4.10546m-4.875 3.5078l-1.09765-.54296m13.14062.3086l6.58985-2.44141m-5.63282 2.08594l-.91406-.81641m13.28516-1.3086l6.5625 2.51563m-5.60547-2.14844l-.15234-1.21875m13.3164 4.60547L386.14453 358m-4.22656 4.26172l-1.17578-.35547m13.79687-3.9375l4.89453 5.04688m-4.17968-4.3125l.375-1.16797m12.2578.40625l4.82813 5.10546m-4.125-4.36328l.39063-1.16406M421.14062 358l4.95313 4.98438m-4.23438-4.25782l.36329-1.17187m11.36328 1.86328l6.6914 2.15234m-5.71875-1.83984l-.21484-1.20703m14.29687-1.15625l3.21094 6.25m-2.74219-5.33985l.69922-1.0078m10.35938 4.1328l6.78515-1.8203"/><g clip-path="url(#R)"><path fill="none" stroke="#000" stroke-linecap="round" stroke-linejoin="round" stroke-miterlimit="10" stroke-width=".5" d="M146.59766 344.8125l-5.19532 4.73047"/></g><path fill="none" stroke="#000" stroke-linecap="round" stroke-linejoin="round" stroke-miterlimit="10" stroke-width=".5" d="M146.59766 344.8125l2.3125.82813m-3.06641-.14063l2.3086.82813m-3.06641-.13672l1.15625.41015m13.80469-1.63281l-5.46485 4.41797m5.46484-4.41797l2.25782.95703m-3.05469-.3164l2.26172.96093m11.76953-1.69531l-5.30469 4.60938m5.30469-4.60938l2.29297.8789m-3.0625-.21093l2.28906.88281m11.64844-1.71094l-5.00781 4.92579m5.0078-4.92579l2.33985.73829m-3.0664-.02344l1.16797.3711m10.59765 4.8828l-.45312-7.01171m.38672 5.99218l-1.04297.64453m14.79687.33204l-1.20312-6.92579m1.03125 5.91797l-.96875.7539m15.12109.07032l-2.53125-6.55469m2.16406 5.59766l-.80469.92969m10.75391-.75l4.9336-5.0039m-4.9336 5.0039l-2.35156-.69922m15.9961.98437l4.27734-5.57421m-4.27735 5.57421l-2.42187-.40234m19.79687.5586l-3.84375-5.88282m3.28516 5.02735l-.59375 1.07421m15.48828-1.24609l-5.88672-3.83203m5.88672 3.83203l-.21484 2.44531m13.73437-2.79687l-6.29297-3.1289m6.29297 3.1289l.0664 2.45312m13.58595-4.47656l-6.96875.91797m5.95312-.78516l.71484 1m13.56641-1.40234l-6.8711 1.46094m5.8711-1.25l.78906.9414m13.60547-.46875l-7.02734.08985m6.0039-.07813l.58985 1.07813m7.49219-3.23829l5.48437 4.38672m7.08594-1.75l6.97265-.88671m-5.95703.7578l-.70703-1m13.17969 1.85938l6.625-2.34375m-6.625 2.34375l-1.8086-1.66015m2.77344 1.3164l-.90625-.82812m13.7539 2.09765l5.63282-4.19921m-5.63281 4.19921l-2.21875-1.04687m14.89062-.4336l6.91797-1.23828m-5.91015 1.0586l-.75782-.96485m13.03516.9375l6.97656-.82421m-5.96093.70312l-.69922-1.00781m15.30078-2.58985l2.375 6.61329m-2.03125-5.65235l.82812-.90625m12.60938 6.6914l1.4414-6.8789m9.15235 4.14063l6.88672-1.40235m-6.88672 1.40235l-1.5625-1.89454m15.7539-1.20703l5.13282 4.80079m-5.13282-4.80079l.63672-2.36718"/><g clip-path="url(#S)"><path fill="none" stroke="#000" stroke-linecap="round" stroke-linejoin="round" stroke-miterlimit="10" stroke-width=".5" d="M145.39063 330.63672l-2.78125 6.45312"/></g><path fill="none" stroke="#000" stroke-linecap="round" stroke-linejoin="round" stroke-miterlimit="10" stroke-width=".5" d="M145.39063 330.63672l2.4453-.19922m-2.84765 1.13672l2.44531-.19922m12.26172-.09375l-4.76172 5.16406m4.76172-5.16406l2.375.6211m-3.0664.1289l1.1875.3125m13.27343-.5586l-5.66797 4.15626m5.66797-4.15625l2.21094 1.0664m-3.03516-.46094l1.10547.53125m12.3711-1.8203l-4.34375 5.52343m4.34375-5.52344l2.41406.4336m-3.04688.37109l1.20704.21484m12.54687-1.16406l-3.95312 5.8125m3.95312-5.8125l2.4375.26953m12.33203 1.8789l-6.86328 1.51563m6.86328-1.51562l1.58985 1.86719m6.7578 2.05078l3.07032-6.32031m-3.07031 6.3203l-2.45313.08985m17.85157.21875l-1.09766-6.9375m.9375 5.92969l-.98047.73828m11.26172-.88672l5.28906-4.6289m-4.51953 3.95703l-1.14453-.4375m17.79297 1.99218l-2.91406-6.39453m2.48828 5.46485l-.7461.97265m14.28516.04297l-2.51172-6.5625m2.51172 6.5625l-1.60938 1.85156m13.47657-1.625l.38281-7.01562m-.32813 5.9961l-1.10937.51562m17.88281-4.15625l-6.64062 2.30469m13.1211-1.10547l7.02733-.09375m7.01563-2.09375l5.57031 4.28125m-4.75781-3.66016l.20313-1.20703m11.7578 1.59375l6.65235 2.26562m-5.6836-1.9375l-.1953-1.21093m12.41796 1.36718l6.90235 1.29688m-5.89844-1.10938l-.36719-1.17187m12.82813 2.83984l6.60156-2.41406m-6.60156 2.41406l-1.82422-1.64062m15.71484 2.64844l5.45313-4.4297m-5.45313 4.4297l-2.26172-.95704m3.0547.3125l-1.13282-.47656m13.22656.45703l6.3086-3.10156m-6.3086 3.10156l-1.98828-1.4375m2.90625.98438l-.9961-.71875m13.40626 1.1914l6.28515-3.14062m-6.28515 3.14062l-2-1.42187m15.2578-1.60156l6.39845 2.90625m-6.39844-2.90625l-.15235-2.44922m13.32813 2.8125l6.67578 2.17969m-6.67578-2.1797l-.42578-2.41796m13.75781 4.65625l6.64063-2.29688m-6.64063 2.29688l-1.79687-1.67188m14.92578.76172l7.01172-.47656m-7.01172.47656l-1.29688-2.08203m2.32031 2.01172l-.64843-1.03906"/><g clip-path="url(#T)"><path fill="none" stroke="#000" stroke-linecap="round" stroke-linejoin="round" stroke-miterlimit="10" stroke-width=".5" d="M143.51953 317.0664l.96094 6.96094"/></g><g clip-path="url(#U)"><path fill="none" stroke="#000" stroke-linecap="round" stroke-linejoin="round" stroke-miterlimit="10" stroke-width=".5" d="M143.51953 317.0664l1.98438-1.4375"/></g><g clip-path="url(#V)"><path fill="none" stroke="#000" stroke-linecap="round" stroke-linejoin="round" stroke-miterlimit="10" stroke-width=".5" d="M143.65625 318.08203l.9961-.72265"/></g><path fill="none" stroke="#000" stroke-linecap="round" stroke-linejoin="round" stroke-miterlimit="10" stroke-width=".5" d="M157.375 317.03516l-.1211 7.02734m.1211-7.02734l2.1836-1.11329m-2.20313 2.13672l1.09375-.55859m14.01172.05078l-3.66406 5.9961m3.66406-5.9961l2.44922.14453m10.49609-.34375l-2.92188 6.39063m2.92188-6.39063l2.44922-.14453m12.14062 1.13672l-5.47265 4.41016m4.67578-3.76954l1.1289.48047m12.67579-1.45703l-4.85547 5.07813m4.14844-4.33985l1.17968.33594m13.3789-.42187l-5.92968 3.77343m5.92969-3.77343l2.13281 1.21093m11.1211-1.29687l-5.8086 3.94922m5.8086-3.94922l2.17187 1.14453m-3.01563-.57031l1.08594.57031m13.55469-.10156l-6.77344 1.86328m6.77344-1.86328l1.6875 1.78125m5.90625 1.77344l4.67188-5.25m-3.9922 4.48828l-1.1914-.28907m14.19922 1.33985l3.92578-5.82813m-3.92578 5.82813l-2.4414-.2539m15.46484.03515l4.51172-5.38672m-4.51172 5.38672l-2.40235-.50781m18.05078 1.32812l-.15625-7.02734m.13282 6.0039l-1.07031.59766m11.61328-.85938l5.43359-4.45703m-4.64453 3.8086l-1.1289-.47266m12.98437-.17969l6.77734-1.85547m-6.77734 1.85547l-1.6836-1.78515m2.66797 1.51562l-.83984-.89453m13.1836 1.21875l6.74609-1.96875m-6.7461 1.96875l-1.71094-1.75781m14.92188 1.26953l6.95703-.98828m-6.95703.98828l-1.44531-1.98438m14.7539 1.94532l6.96875-.91016m-5.95312.77734l-.71094-1m13.14063 1.71485l6.71093-2.07813m-5.73437 1.77735l-.8711-.86329m13.3711 1.59375l6.38672-2.9375m-6.38672 2.9375l-1.94922-1.48437m2.8789 1.0586l-.97656-.7422m13.82032 1.90626l5.47265-4.41016m-5.47265 4.41016l-2.25782-.96485m18.15625-4.75l.30079 7.01953m-.30079-7.01953l2.1172-1.2461m11.53515 1.2461l-.3711 7.01563m.3711-7.01563l2.22656-1.03515m10.90234 1.03125v7.02734m0-7.02734l2.16797-1.15235m7.82813 3.51563l6.64062 2.29687m-6.64062-2.29687l-.38281-2.42188"/><path fill="#00f" fill-rule="evenodd" d="M259.52734 463.21094h8.6172V453.0625h-8.6172v10.14844"/><path fill="azure" fill-rule="evenodd" d="M261.35938 454.89844h.83203v2.82031h3.28906v-2.82031h.83203v6.48047h-.83203v-2.91797h-3.28906v2.91797h-.83204v-6.48047"/><path fill="#ff3030" fill-rule="evenodd" d="M331.23438 432.14063h7.6914v-10.14454h-7.6914v10.14454"/><path fill="azure" fill-rule="evenodd" d="M333.0664 423.82813h.83594v5.73828h3.19141v.74218h-4.02734v-6.48046"/><path fill="#00f" fill-rule="evenodd" d="M388.23828 432.14063h8.61719v-10.14454h-8.61719v10.14454"/><path fill="azure" fill-rule="evenodd" d="M390.07031 423.82813h.83594v2.82421h3.28516v-2.82421h.83203v6.48046h-.83203v-2.91796h-3.28516v2.91796h-.83594v-6.48046"/><path fill="#00f" fill-rule="evenodd" d="M224.01953 414.38672h8.61719v-10.14453h-8.61719v10.14453"/><path fill="azure" fill-rule="evenodd" d="M225.85156 406.07422h.83594v2.82422h3.28516v-2.82422h.83203v6.48047h-.83203v-2.91406h-3.28516v2.91406h-.83594v-6.48047"/><path fill="#00f" fill-rule="evenodd" d="M366.04688 401.07422h8.61718v-10.14844h-8.61719v10.14844"/><path fill="azure" fill-rule="evenodd" d="M367.8789 392.76172h.83594v2.82031H372v-2.82031h.83203v6.47656H372v-2.91406h-3.28516v2.91406h-.83593v-6.47656"/><path fill="#ff3030" fill-rule="evenodd" d="M189.20703 343.375h7.6914v-10.14844h-7.6914V343.375"/><path fill="azure" fill-rule="evenodd" d="M191.03906 335.0625h.83594v5.73828h3.1914v.74219h-4.02734v-6.48047"/><path fill="#00f" fill-rule="evenodd" d="M414.86719 325.6211h8.6211v-10.14454h-8.6211v10.14453"/><path fill="azure" fill-rule="evenodd" d="M416.70313 317.3086h.83203v2.82421h3.28515v-2.82422h.83594v6.48047h-.83594v-2.91797h-3.28515v2.91797h-.83204v-6.48047"/><path fill="#ffffe0" fill-rule="evenodd" d="M230.78516 359.7539h22.17968v-10.1914h-22.17968v10.1914"/><path fill-rule="evenodd" d="M234.28516 351.39453h.5078v6.29297h-.78515v-4.48828h-1.39062v-.55469l.5625-.0664.25-.0547.23047-.08984.20312-.14062.17188-.21094.14453-.29297.10547-.39453m4.8125 0l.23047.01953.21875.05469.20703.08984.1953.1211.1875.14844.16798.17578.30469.41796.24218.4961.17969.54687.11328.57813.03516.58984-.03516.59375-.11328.58594-.17969.55078-.24219.5039-.30468.4297-.16797.17968-.1875.15235-.19531.12109-.20703.09375-.21875.05469-.23047.02344-.23047-.02344-.21875-.05469-.20703-.09375-.19532-.1211-.18359-.15234-.17188-.17969-.30078-.42968-.24609-.5039-.17969-.55079-.10937-.58594-.03906-.59375h.83203l.03125.5625.08203.50781.125.44141.16015.375.19141.30078.21094.22266.22265.13672.22657.04687.22656-.04687.22266-.13672.21093-.22266.1914-.30078.16017-.375.1289-.4414.08203-.50782.02735-.5625-.02735-.5586-.08203-.5039-.1289-.4336-.16016-.36718-.1914-.28906-.21095-.21485-.22265-.1328-.22656-.04298-.22657.04297-.22265.13281-.21094.21485-.1914.28906-.16016.36719-.125.4336-.08203.5039-.03125.5586h-.83203l.03906-.58985.10937-.57813.17969-.54687.2461-.4961.30077-.41796.17188-.17579.1836-.14843.1953-.1211.20704-.08984.21875-.05469.23047-.01953m5.09375 0h.5078v6.29297h-.78905v-4.48828h-1.38672v-.55469l.5586-.0664.2539-.0547.23047-.08984.20312-.14062.17188-.21094.14062-.29297.10938-.39453m2.8203 2.17578h.78907l.01953-.3164.0586-.28907.09765-.25.14063-.21484.1836-.17578.22265-.1289.26562-.07813.3086-.02735.23437.01954.22656.0625.20313.10156.17969.13672.14843.17578.11328.20312.07032.23828.02734.26563-.02344.26562-.0664.22657-.10938.1914-.15625.17188-.19922.16015-.24609.16797-.63672.38672-.53516.3164-.4375.31641-.34765.32422-.26563.33594-.1875.35156-.125.36719-.0703.39453-.01954.41797h4.21094v-.73828h-3.33203l.08203-.28516.11328-.23828.14844-.19922.1875-.17969.23047-.17187.28125-.17578.71484-.41797.41406-.20313.34766-.23437.28125-.25.21875-.26563.16406-.27734.10938-.28515.0664-.28516.01953-.28125-.04297-.38281-.12109-.34766-.1875-.3086-.25-.26171-.30469-.21485-.34375-.15625-.3789-.10156-.40625-.03125-.4375.03125-.39844.09766-.35547.16797-.30469.23437-.2461.30469-.1875.375-.11327.44531-.04297.51953"/><path fill="#ffffe0" fill-rule="evenodd" d="M363.82422 361.35938h22.17969v-10.19141h-22.1797v10.1914"/><path fill-rule="evenodd" d="M367.32031 353h.51172v6.29297h-.78906v-4.48828h-1.38672V354.25l.5586-.0664.2539-.05079.23047-.08984.20312-.14453.17188-.20703.14062-.29688.10547-.39453m4.8164 0l.23048.01953.21875.05469.20703.08984.19531.1211.1836.14843.17187.17579.30078.42187.2461.49219.17968.54687.10938.57813.03906.58984-.03906.59375-.10938.58594-.17969.55469-.24609.5-.30078.42968-.17188.1797-.18359.15233-.19531.125-.20703.08985-.21875.0586-.23047.01952-.23047-.01953-.21875-.0586-.20703-.08983-.19531-.125-.1875-.15235-.16797-.17969-.30469-.42968-.24219-.5-.17969-.5547-.11328-.58593-.03515-.59375h.83203l.02734.5664.08203.50391.125.44141.16407.375.1914.30078.21094.22266.22266.13672.22656.04687.22656-.04687.22266-.13672.21094-.22266.1914-.30078.16016-.375.125-.4414.08203-.50391.03125-.5664-.03125-.5586-.08203-.5-.125-.4375-.16016-.36328-.1914-.29297-.21094-.21485-.22266-.1328-.22656-.04298-.22656.04297-.22266.13281-.21094.21485-.1914.29297-.16407.36328-.125.4375-.08203.5-.02734.5586h-.83203l.03515-.58985.11329-.57813.17968-.54687.24219-.49219.30469-.42188.16797-.17578.1875-.14843.1953-.1211.20704-.08984.21875-.05469.23047-.01953m5.08984 0h.51172v6.29297h-.78906v-4.48828h-1.38672V354.25l.5586-.0664.2539-.05079.22656-.08984.20313-.14453.17578-.20703.14062-.29688.10547-.39453m2.82422 2.17578h.78516l.01953-.3164.0625-.28516.09765-.2539.14063-.21485.17969-.17578.22265-.1289.26563-.07813.3086-.02735.23827.01953.22266.0625.20703.10157.17578.14062.15235.17188.11328.20703.07031.23437.02344.26563-.01953.26953-.06641.22265-.10938.19141-.15625.17188-.19921.16406-.25.16406-.63282.39063-.53906.3125-.4375.3164-.34375.32422-.26562.33594-.19141.35156-.125.3711-.0664.39062-.02344.41797h4.21484v-.73828h-3.33203l.08203-.28516.11328-.23437.14844-.20313.1875-.17969.23047-.17187.27734-.17578.71875-.41797.41406-.20313.34766-.23046.27734-.25391.22266-.26563.16406-.27734.10938-.28516.0625-.28515.02344-.28125-.04297-.38281-.1211-.34766-.1875-.3086-.25-.26171-.30469-.21485-.34375-.15625-.3828-.09765L382.1328 353l-.4336.03125-.39843.10156-.35547.16406-.30469.23438-.24609.30469-.1875.375-.11719.44531-.03906.51953"/></g></defs><use xlink:href="#W"/></svg>