<svg xmlns="http://www.w3.org/2000/svg" role="img" xmlns:xlink="http://www.w3.org/1999/xlink" viewBox="142.45 309.95 326.84 171.84"><defs><clipPath id="a"><path d="M144 311.67188h1v168.65625h-1zm0 0"/></clipPath><clipPath id="b"><path d="M144 311.67188h324v168.65625H144zm0 0"/></clipPath><clipPath id="c"><path d="M467 311.67188h1v168.65625h-1zm0 0"/></clipPath><clipPath id="d"><path d="M144 477h3v3.32813h-3zm0 0"/></clipPath><clipPath id="e"><path d="M155 477h5v3.32813h-5zm0 0"/></clipPath><clipPath id="f"><path d="M168 477h5v3.32813h-5zm0 0"/></clipPath><clipPath id="g"><path d="M181 477h6v3.32813h-6zm0 0"/></clipPath><clipPath id="h"><path d="M195 477h5v3.32813h-5zm0 0"/></clipPath><clipPath id="i"><path d="M208 476h5v4.32813h-5zm0 0"/></clipPath><clipPath id="j"><path d="M221 477h6v3.32813h-6zm0 0"/></clipPath><clipPath id="k"><path d="M234 477h7v3.32813h-7zm0 0"/></clipPath><clipPath id="l"><path d="M247 477h7v3.32813h-7zm0 0"/></clipPath><clipPath id="m"><path d="M260 478h8v2.32813h-8zm0 0"/></clipPath><clipPath id="n"><path d="M274 477h7v3.32813h-7zm0 0"/></clipPath><clipPath id="o"><path d="M287 478h7v2.32813h-7zm0 0"/></clipPath><clipPath id="p"><path d="M300 478h8v2.32813h-8zm0 0"/></clipPath><clipPath id="q"><path d="M305 480h2v.32813h-2zm0 0"/></clipPath><clipPath id="r"><path d="M313 478h8v2.32813h-8zm0 0"/></clipPath><clipPath id="s"><path d="M319 480h1v.32813h-1zm0 0"/></clipPath><clipPath id="t"><path d="M327 478h7v2.32813h-7zm0 0"/></clipPath><clipPath id="u"><path d="M340 478h8v2.32813h-8zm0 0"/></clipPath><clipPath id="v"><path d="M355 476h4v4.32813h-4zm0 0"/></clipPath><clipPath id="w"><path d="M369 476h2v4.32813h-2zm0 0"/></clipPath><clipPath id="x"><path d="M381 476h5v4.32813h-5zm0 0"/></clipPath><clipPath id="y"><path d="M393 477h7v3.32813h-7zm0 0"/></clipPath><clipPath id="z"><path d="M406 478h8v2.32813h-8zm0 0"/></clipPath><clipPath id="A"><path d="M419 479h9v1.32813h-9zm0 0"/></clipPath><clipPath id="B"><path d="M433 479h8v1.32813h-8zm0 0"/></clipPath><clipPath id="C"><path d="M431 478h3v2.32813h-3zm0 0"/></clipPath><clipPath id="D"><path d="M446 479h8v1.32813h-8zm0 0"/></clipPath><clipPath id="E"><path d="M446 479h3v1.32813h-3zm0 0"/></clipPath><clipPath id="F"><path d="M459 479h9v1.32813h-9zm0 0"/></clipPath><clipPath id="G"><path d="M460 479h2v1.32813h-2zm0 0"/></clipPath><clipPath id="H"><path d="M144 463h2v8h-2zm0 0"/></clipPath><clipPath id="I"><path d="M144 469h2v4h-2zm0 0"/></clipPath><clipPath id="J"><path d="M144 449h1v9h-1zm0 0"/></clipPath><clipPath id="K"><path d="M144 455h1v3h-1zm0 0"/></clipPath><clipPath id="L"><path d="M144 440h4v1h-4zm0 0"/></clipPath><clipPath id="M"><path d="M144 423h2v8h-2zm0 0"/></clipPath><clipPath id="N"><path d="M144 412h4v4h-4zm0 0"/></clipPath><clipPath id="O"><path d="M144 400h4v1h-4zm0 0"/></clipPath><clipPath id="P"><path d="M144 384h4v6h-4zm0 0"/></clipPath><clipPath id="Q"><path d="M144 372h4v4h-4zm0 0"/></clipPath><clipPath id="R"><path d="M144 358h4v5h-4zm0 0"/></clipPath><clipPath id="S"><path d="M144 344h3v7h-3zm0 0"/></clipPath><clipPath id="T"><path d="M144 330h2v8h-2zm0 0"/></clipPath><clipPath id="U"><path d="M144 316h1v9h-1zm0 0"/></clipPath><clipPath id="V"><path d="M144 315h2v3h-2zm0 0"/></clipPath><clipPath id="W"><path d="M144 317h1v2h-1zm0 0"/></clipPath><g id="X" clip-path="url(#clip1)"><path fill="#fff" fill-opacity="0" fill-rule="evenodd" d="M0 0h1000v1000H0zm0 0"/><path fill="#d3d3d3" fill-opacity="0" fill-rule="evenodd" d="M162.15234 355.86719l-.23437.29297.0586.23437.11718.17188.17578.23437.29297.34766.11328.0586.11719-.17188.0586-.23438.17577-.17578.46485-.17578h.69922l.23437.29297.28906.8164.0586.17579.17578.23046.35156.23438.69922.69922.17188.17578.23437.34765.23438.41016.28906.58203.41015.46485.23047.23437.23438.17578.11719.23047.17578.29297.17187 1.16406v.23438l.0586.28906.05859.11719.11719.11719.34765.41015.11719.17188.17578.17578.17578.23437.11719.17188.17188.35156.05859.23438.23437.40625.23438-.0586-.17578.17578-.0586.92969h-.58203l-.23437-.11328-.34766.11328-.11719.11719-.05859.29297-.0586.17578-.11718.17187-.46484.29297-.0586.23438-.0586.11328v.64453l.0586.17187v.41016l.0586.0586v.40624l.05859.40625.11719.17579.05859.05859.23047.64062-.0586.29297v.69922l-.05859.58203v.23438l-.0586.23047-.05468.35156v1.92187l.05469.1172h.42578l-.36719.11718-.02344.35156.89063 1.16797 1.74219.53906 1.33984.35938v.53906l.08984.8086.53516.71484 1.51953.26953.89063-.08594.08984 1.16406.53516.1797 1.16015-.1797 2.05469-.98437 1.16016-.36328 1.8789-.17578 1.69531-.1797-.17968.71876-1.51563.08594-1.25.08984-.80469.26953-1.07421.8086.26953.71875.53515.89843-.17968.625-.26563.8086.26563 1.07812.625.89844.80468.17969 1.25-.1797-.26562.72267.09766.5039.05468.29297v.17188l.0586.29296v.40625l.17578.1172.35156.11718h.40625l.29297-.17578.11328-.11719.0586-.11719.11718-.23047.0586-.17578.35156-.46484.23047-.17578.17578-.0586.17578.0586.0586.17578.11718.98828.05469.46875.0586.17188.11718.23437.17578.0586.8164.05859h.28907l.11719.23437.05859.40625.0586.35156v1.10547l.11718.29297.11719.34766.28906.69922.17578.35156.58203.7539.35157.17579.17187.0586.46875.23437.64063.46484.34765.23438.29297.17578.29297.05468.23047.0625.8164.34766.29297.17578.11328.17188.35157.35156.11719.17578.52343.64063v.28906l.0586.35156v.34766l.05859.35156.0586.28906.11718.0586.17188.05859h.17578l.58203.23437.17578.1172.17578.28905.17578.23438.11328.23437.29297.23047.11719.11719v.41016l.0586.05468.28906.23438.23437.11719.0586.11718.11718.17188.0586.11719.23047.23437.05859.17578.23437.0586.1172.05859-.1172.11328-.05859.11719v.11719l-.11719.29296-.11719.28907v.58203l.17579.11719.11718.05859.0586.11719.11719.11719.11328.05859.17578.34765.0586.35157.05858.40625v.17578l-.05859.17578-.11719.69922v.17187l.1172.17579.29296.29296h.40625l.17578.1172.11719.17187.11719.29296v.23438h-.52735l-.23047-.23438h-.23437l-.17578.0586-.0586.69922.0586.34765.11719.17579.17578.41015.11718.23047.28907.46875.17578.05469h.52344l.23437.0586.75781.64062.0586.29296v.23438l.05859.0586.23047.34765v.35156l-.11719.17188v.29297l.29297.28906.29297.17578.17187.0586.29297.17577.29297.1172.58203.40624.28906.23438.29297.17578.21875.16015.01563.01172.23047.17579.64062.52343.17578.23438.1172.17578.17577.17578.11328.17188v.64062l.1172.17578.46874.11719.58203.11719.23438.05859.23047.11328.29297.11719.11328.0586.58593.35156.28907.17187.17578.0625.17578.05469.17578.0586.69922.35155.28906.17579.23438.05468.28906.17578.23437.1172.64063.40624.29297.11719.17187.0586.23438.05859.41015.05859.23047.0586.23438.11718.0586.17188-.41017.17578.46875.0586.0586.29296.11328.23438.17578.05468.23438.0586.17578.05859.40625.11719.64062.23437.11719.17188.0586.23437v.17578l-.0586.1172-.0586.40624.23438.23438.11719.05859.34766.11719.64062.23047.17578.11718.28906.1172.17578.17577.23438.46485.58203 1.10546.17578.17579.34766.17578.17578.11719.35156.11718 1.04688.52344.23437.0586.46485.11327.29297.0586.46484.17578.75781.58203.23438.23438.34765.46484.17578.17578.28907.23438.8164.69921.29297.17579.28906.28906.29297.17578.29297.28906.69531.64063.17578.17578.29297.23437.28907.23438.46875.28906.64062.58203.34766.23438.23437.29297.34766.34765.35156.46485.9336.99218.34765.40625.11719.17579.23437.05859.11328.11719.64454.17578.23047.11328.23437.0586.29297.17577.23047.1172.9336.69921.40624.40625.23438.17578.40625.17578.23437.11719.8164.34766.34766.23437.23438.11719.29297.28906.23047.11719.7578.35156.35157.17188.23047.05859.29297.11719.23437.0586.8711.17577h.8164l.46875.23047.17188.0586.875.69921.46484.1172.29297.05858.17578.0586.23047.0586.46875.05859.34766.05859.35156.0586.40625.05859h.29297l.17187.0586v.23046l.17578.17578h.29297l.34766.0586.35156.05859.69922.11719h.64063l.46484-.23438.29297-.17578.17187-.11719.41016-.17187.28906-.17578.9336-.46485.46875-.29297.52343-.29296.46485-.17188.46484-.17578 1.05078-.46485.28906-.11718.41016-.11719.28906-.11719.52735-.17578 1.51562-.69922.58203-.34765.28907-.0586.29297-.0586.34765-.11718.875-.23047.35156-.11719h.11329l.23437-.05859.875-.23437.23438-.0586h.8125l.35156-.0586.8164-.11718.17188-.0586.35156-.05468.29297-.0586.23047-.05859.8164-.17578.17579-.0586h.34765l.23438-.05859.46484-.11718.75781-.17188.23438-.0586h.34765l.41016-.11718.28906-.0586 1.28516-.05859h.28906l.41016-.0586.23047-.05858h.17578l.875-.1172h.40625l.41015-.11718h.34766l.35156-.11328.8711-.0586h1.75l1.04687.28907.41016.11719.28906.11718.35156.11719.28907.11719 1.05078.17187.28906.0586h.29297l.29297.05859.17187.0586.41016.05859.17187.0586.1172.05858h.11718l.11719.0586.35156.0586h.11328l.41016.0664 1.92187.39453 1.92578.39453 1.51953.44922 1.69532.71875 2.14453.80469 1.60547-.71875 1.42968-.80469 1.16016-1.07813 1.25-.44921 3.03516-.71875 1.875-.35938 2.14453-1.34765 2.23437-1.25391 2.5-1.25781 1.69531-.44922 1.78516-.17969 1.16016-.26953.625.53906 1.33984-.26953.71485-.98828.98437-1.34375.44531-.17969.80469-.35937 1.875-.53907 1.78516-.44921 1.25-.26954 1.16015-.08984 1.69922-.08984 1.96094-.26954 1.25-.08984h.53906l.625-.08984h.89063l2.14453-.17969 2.41015-.17969 2.58985-.08984 1.69531.17969 1.60938.08984 1.42968.35938 1.16016.71875 1.875.98828 1.16015 1.52734.26563.71484.6289.08985.35548.89844.53515.53906.53516 1.52734 1.07422.35938h.53515l-.80469.53515.08985 1.70703.71484 2.69532.89063.80468.89453.98829.71484 1.2578 1.78516.53907 1.51953-.17969.35547 1.34375 1.60937-.80469.98047-.53906.26953.26953.31641-.21484.21875-.14453.80078.44922.44922-.35938h.35547l.53515-.26953.53907-.71875.53515-.26953.625-.98828 1.16016.44922.83984.3711 1.39454.61718 1.6953-.17969h1.60548l1.78515.08985.17969-1.70704.53516-1.34375.80468.26954.4922.84765.40233.40625-.08984.53906v.35938l.71485.44922.71093-.26953h1.42969l.35938.98828.4453 1.25781.71485 1.34375 1.25.6289 1.69531.62891.71485-.17969.17969-.53906.98046-.08984.44922.35937.08594 1.25782-.26563.6289-.53515.17969v.53906l.71484.98438.26563.53906.98437.98828.80078 1.07813-.26562.35937-.08985.89844-.625 2.33203-.35546 2.0664-.08985 1.79298-.17969.71875-.08984.53906v1.4375l-.98047 1.88281-.35937 1.70703-.53516.89844-.80469 1.16797-.26562.53906 2.05469 1.2539.08593.35938-.35546.53906-.08985-.17968v.80859l.08985 1.4375-.44532.71484-1.07422.09375-.26562.71485.53515.89844.8047.71875 1.16015.80859 1.33984.26953.44531.35938-.35546.44921-1.78907-.08984-1.25-.44922-.71484-.71875-.625-.08984-.17578 3.58984-.1875 1.3086h89.35937V311.70313h-55.26953v49.08203l.76172.125 3.28906.54296 2.02344 2.83594v2.7539l2.35156.33204 2.34766.33203h4.05078l-1.3789 4.16016-2.02344.70703-2.02344.70312-.54297.34375-2.59375 1.6172-.1875.11718-2.02344-2.07813-.73046-2.74218-2.67188-2.07813-1.375-3.5-.0664-.08203-1.95704-2.67188 2.75-1.41796v-49.08204H294.42187v91.41407l.1172.03125.1328.01172.07422.07421.10547.04688.08985.0586.08593.05859.08985.0586.29687.29687.0586.08984.03125.11719.02734.11719.01563.13671-.03125.1172-.0586.08983-.0586.08594-.04296.10547-.04688.10156-.02734.1211v.14453l.17578.26953.14844.14844.07422.08594.07422.07421.04296.10547.0625.08985.0586.08593.04297.10547.0586.08985.04687.10156.04296.10547.0586.08594.11719.17968.07421.07422.0625.08594.0586.08984.04297.10547.0586.08985.05858.08593.0625.08985.0586.08984.04297.10156.11719.17969.07421.07422.0586.08594.07422.07421.08984.0586.10547.04687h.14844l.1328-.01562.13282.01562.10156-.04687.07422-.07422.04688-.10156-.01563-.13281v-.14844l-.04687-.10547-.02735-.11719-.04687-.10156-.02735-.1211-.04296-.10156-.0625-.08984-.04297-.10156-.04297-.10547-.03125-.11719-.01563-.13281-.01171-.13672.08593-.0586.0586-.08593.12109-.03125.04297.10547.01562.1328v.1172l.0586.10156.0586.08984.08983.0586.14844.14843.0586.08985.04296.10547-.01171.10156.08593.0586.10547.04687.08594.0586.08984.05858.07422.07422-.11719.02735-.10546.04687-.08594.0586-.07422.07421-.0586.08985-.0625.08594-.02734.12109-.04687.10156-.04297.10547-.03125.11719-.01172.13281-.01563.13281v.14844l.02735.11719.04687.10547.04297.10156.0586.08984.07421.07422.08985.0586.07422.07421.08984.0586.0586.08984.04296.10547.04688.10156.11719.03125.1328.01563h.14845l.11718-.03125.10547.04297.04297.10547.04688.10156.02734.1211L299.5 410l.02734.11719.03125.1211.02735.11718.10547.04297.10156.04687.13281-.01562.14844.14844.0625.08593.07422.07422.07031.07422.08984.0625.10547.04297.10156.04297.1172.03125.13671.01562.11719-.03125.07422-.07422.02734-.11718-.01172-.13282-.03125-.12109-.02734-.11719.04297-.10547h.11719l.08984.0625.11719.02735h.14843l.13282.01562h.14843l.13282.01563.1328-.01563h.14845l.1328-.01562.13282-.01172.13672.01172.11719-.02735.13281-.01562.1914-.0586-.05859.17579-.01562.1328-.02735.1211-.01562.13281-.0586.08594-.1328.01563-.10548.04687-.10546.04297-.1172.03125-.11718.02735-.26563.03125h-.14843l-.13281.01562-.07422.07422.05859.08594.14844.14843.11719.1797.07421.0703.08985.0625.08984.0586.08594.0586.08984.05858.10156.04297.10547.0625.10547.04297.08594.0586.10547.04687.10156.04297.17969.11719.0586.08984-.04298.10156-.04687.10547.01562.13281.22266.22266.0586.08985.04296.10156.03125.1211.04297.10155.01563.13282.03125.11718.01171.13672.03125.11719.14844.14844.10156.04297.10547.04296.1172.03125.1328.01563.13672.01563h.11719l.11719-.03125.08984-.0586.04297-.10547.04688-.10156.04296-.10547.03125-.11719.01172-.1328v-.14845l-.01172-.1328-.01562-.13282-.03125-.11719-.04297-.10547-.04688-.10547-.04296-.10156-.04297-.10547-.01563-.13281.01563-.13281.02734-.11719.03125-.11719.02735-.1211.04687-.10155.08984-.0586.08594-.0625.07422-.07422.08984-.05859.22266-.22266.0586-.08593.07421-.07422.11719-.17969.0586-.08594v-.14844l-.07423-.07421-.10156-.04688-.10547-.04297-.10156-.04297-.0586-.08984-.04687-.10547-.02734-.11719.08984-.05859.11719-.03125.10156-.04297.17969-.11719.14844-.14843.01172-.13282-.01172-.10546-.08985-.0586-.1328.01563h-.14845l-.1328.01562-.13282-.01562-.1211-.03125-.08593-.0586-.07422-.07422-.0586-.08984-.0625-.08594-.11718-.17969-.0586-.08593.03125-.1211.08594-.05859.1211-.03125.05859-.08594v-.1211l-.03125-.11718-.0586-.08984-.05859-.08594-.04687-.10547-.02735-.11719-.01562-.1328.0586-.08985.07421-.07422.08984-.0586.1172-.17968.07421-.07422.0586-.08594.14843-.14844.1211-.03125.1328-.01562.13282.01562.07422.07422.04297.10547.01562.13281-.03125.1172-.11719.03124-.1328.01172-.14844.14844-.04297.10547-.04688.10156-.02734.1211-.03125.11718v.14844l.03125.11719.04297.10546.05859.08985.07422.07031.07422.07422.11719.03125.12109.02734.11719-.02734.1328-.01563h.1172l.08984.0586.07422.07422.04687.10546.0586.08594.10156.04688.13281.01562.10547.04297.08594.0586-.01172.10546-.07422.07422-.17969.11719-.05859.08984-.08984.0586-.07032.07422-.07421.07421-.0625.08985-.02735.11719-.01562.1328.01562.13282-.01562.13281v.14844l.01562.13281.02735.1172.03125.12108.07421.07422.08985.0586.08594.0586.08984.05858.11719.03125v.08594l-.10157.04688-.08984.0586-.26563.03124-.11718.02735h-.14844l-.10547.04296-.10156.04688-.0586.08984-.0625.23438-.01171.13281-.03125.1211-.01563.1328v.29298l-.01172.1328.01172.13673.01563.1328.1328.01563.13282.01172.1211.03125.08593.0586.07422.07421.04688.10547.04296.10157.01563.1328v.44532l-.01563.13281v.44532l.03125.26562.02735.11719.01562.13281.03125.11719.08594.21094.03125.26562v.14844l-.03125.11719-.02734.11718-.03125.1211-.02735.11719-.03125.11718-.03125.1211-.01171.1328-.01563.13282.08984.0586.1172-.03125.10155.01562.04688.10547-.03125.26562v.44141l-.04297.10547-.04688.10547-.04296.10156-.04297.10547-.0586.08594-.03125.12109-.04296.11719-.03125.11719-.01563.1328.01563.13282.05859.08984.10547.04688.08594.0586.05859.08593-.01172.13672-.03125.11719-.04297.10156v.44531l-.01562.13281v.14844l-.03125.11719-.04297.10547-.02735.11719-.04687.10546-.04297.10157-.03125.12109-.02734.11719-.03125.13281-.03125.11719-.02735.11719-.04297.10546-.03125.1172-.03125.12108-.01171.13282-.01563.13281v.29688l.02734.11718v.14844l.04688.39844.02734.11719.0586.08984.12109.03125h.14844l.13281-.01563.0586.08985v.11719l-.0586.08984-.08984.0586-.10157.04296-.10546.04688-.08985.05859-.08594.0586-.13671.01562-.1172-.03125-.1328-.01563-.10157.04688-.0625.08594-.01172.13671-.01562.13282-.03125.11719-.02735.11718-.01562.13281-.03125.1211v.29687l.01563.13282.03125.11718v.14844l.01171.13281v.14844l-.02734.11719-.04688.10156-.02734.1211-.03125.11718-.0586.08985-.07421.07421-.10156.04297-.10547.04688-.11719.02734-.1211.03125-.10156-.04687.0586-.08594.10547-.04688.02734-.11718.03125-.11719.02734-.1211.03125-.11718v-.14844l.01563-.13281-.03125-.11719-.04297-.10547-.10547.01563-.07422.07422-.10156.04296-.08984.0625-.07422.07422-.04297.10157-.01563.1328-.03125.1172L304.25 426l-.03125.11719-.02734.11719-.03125.12109-.02735.11719-.03125.11718-.04297.10547-.08984.0586h-.08984l-.1172-.03125-.03124-.08594.01562-.13672-.03125-.11719v-.14844l-.01171-.1328v-.14844l-.0625-.23438-.02735-.1211-.04297-.10156-.04687-.10546-.0586-.08594-.05859-.08985-.04297-.10546-.0625-.08594-.14844-.14844-.0703-.07422-.10548-.04687-.10547-.04297-.10156-.04297-.29687-.29688-.08985-.07421-.08594-.0586-.10546-.04297-.08985-.0625-.08594-.0586-.10546-.04296-.08985-.0586-.08594-.0625-.07421-.0703-.10547-.04688-.08594-.0586-.10547-.04296-.08984-.0625-.10156-.04297-.10547-.04297-.08594-.0586-.10547-.04687-.10547-.04297-.10156-.04687-.08985-.0586-.10156-.04297-.10547-.04296-.08984-.0625-.11719-.02735-.13281-.01562-.13281.01562H299.75l-.13281.01563-.11719-.03125-.08984-.0586-.07422-.07422-.08985-.05859-.10156-.04688h-.14844l-.12109-.02734-.10156-.04297-.07422-.07422-.11719-.17968-.08984-.0586-.10156-.04297-.08985-.0625-.10547-.04296-.08984-.0586-.08594-.0586-.10547-.04687-.0586-.08594-.05858-.08984-.04297-.10547-.04688-.10156-.07422-.07422-.08594-.0586-.07421-.07421-.08985-.0586-.22265-.22265-.04297-.10547-.03125-.26563.10547-.04296h.14453l.10547.04296.07421.07422.08985.0586.08594.0586.10546.04687.08985.05859.14844.14844.0703.07422.14845.14843.0625.08594.07421.07422.08594.0586.07422.07421.08985.0625.08984.0586.08594.05859.26953.17578.10156.04688.10547.04296.10156.04297.04688-.07421.05859-.08594.07422-.07422.07031-.07422.10547.04297.07422.07422.0586.08984.04296.10156.04688.10547.04296.10547.1211.02735.11719-.02735.07421-.08984.04297-.10547.0586-.08985.07422-.07421.10546-.04297.1172-.02735.1328.01172.08985.0586.14844.14843.05859.08985.04297.10547.04687.10156.04297.10547.04297.10156.10547.04688.10547.04296.13281.01563.08594-.0586.0586-.08984.07421-.07422.10547-.04297.11719.02735.10547.04687.10156.04297.10547.04297.10156.04688.17969.11718v.11719l-.01563.13281.01563.13281.01562.13672.0586.08594.10156.04688.1211.02734.11718.03125h.14844l.11719-.03125.05859-.08984.17969-.1172.05859-.08983.07422-.07422.0586-.08594.11718-.17969.17969-.11719.11719.03125.08984.0586.04297.07422-.01563.1328v.1172l.08985.05859h.14843l.13282-.01563.1328-.01171.26563-.03125.10547-.04297.11719-.03125.1211-.02735.07421-.07421.07031-.07422.0625-.08985-.01562-.10547-.04688-.10156-.10156-.04297-.10547-.01562-.11718.02734-.26563.03125h-.14844l-.07421-.07422-.08985-.0586-.11719-.03124-.11718-.02735-.13282-.01562h-.14843l-.13282.01563h-.29687l-.10547-.04688-.14844-.14844-.04297-.10156-.05859-.08984.22266-.22266.08593-.0586.10547-.04296.11719-.03125.13281-.01563.13281.01563.13672.01562.10157.04297.1328-.01172.08985-.0625.10156-.04297.0625-.08984-.04687-.10156-.08984-.0586-.1172-.03125-.10155-.04296-.0586-.08985-.0625-.08984v-.11719l.01563-.13281.10547-.04688.07421-.07031v-.1211l-.08984-.05859-.03125-.11719.08985-.05859.07421-.07422.04297-.10547.0586-.08984.04687-.10156.01563-.13281v-.14844l-.04688-.10547-.04297-.10156-.08984-.0586-.13281-.01562-.10157-.04297-.13671-.01563-.1172-.03125h-.4453l-.13282-.01562-.13281-.01172-.13281-.01563-.11719-.03125h-.14844l-.13281-.01562-.13281-.01172-.26563-.03125-.1211-.04297-.08593-.0586-.07422-.07421v-.14844l.01172-.13281.10547-.04688.10156-.04296.13281-.01563h.15235l.13281-.01562h.29297l.1211.03125.10156.04296.08984.0586.23438.0625.12109-.04688.08984-.05859.10156-.04297.13282-.01562.10547.04296.10156.04688.13281.01172.1211-.02735h.14453l.12109-.03125.11719-.02734.10547-.04687.07421-.07422.08594-.0586.14844-.14843.0586-.08594.04687-.10547.02734-.11719.01563-.10547-.10156-.04296-.08985-.0586-.11719-.03125-.10546-.04297-.08985-.0625-.07422-.08594-.07422-.07421-.10156-.04297-.10547-.04688-.10156-.04297-.0586-.08984-.04687-.10156-.08594-.21094-.0625-.08594-.05859-.08984-.07422-.07422-.08594-.0586h-.26953l-.11719.03126-.08984.05859-.10156.04297-.13281.01562-.10547-.01562-.02735-.11719-.0625-.08984-.11718-.03125-.10157-.04297-.14843-.14844-.03125-.11719-.01563-.10546.07422-.07422.17969-.1172.11719-.02733.11718-.03125.13672.01562.10156.04297.10547.04297.10156.04687.10547.04297.1172.03125.1328.01563.1172.02734.1328.01563.10547-.01563.08985-.0586-.07422-.07421-.10547-.04297-.07422-.07422-.07422-.08984-.14844-.14844-.08593-.0586-.08985-.05859-.07422-.07422-.08984-.0586-.10156-.04687-.1211-.02734-.10156-.04688-.10547-.04296-.11719-.03125-.10156-.04297-.1211-.03125h-.14843l-.11719.03125-.10546.04297-.08594.0625-.17969.11718-.08594.0586-.08984.0586-.10547.04687-.08594.05859-.10547.04297-.10156.04297-.10547.04687-.07422.07422-.05859.08985-.0586.08593-.04687.10547-.0586.08594-.07421.07422-.13281-.01172-.1172-.03125h-.11718l-.07422.07422-.08984.0586-.07422.07421-.08984.0586-.08594.05859-.10547.04687-.10156.04297-.13672.01563-.10156-.04297-.14844-.14844-.10547-.04688h-.08594l-.10547.04688-.10156.04297-.1211.03125-.11718-.03125-.07422-.07422v-.11719l.03125-.1211.07422-.0703.0586-.08985.07421-.07422.11719-.03125.10547-.04296h.29297l.13281-.01563.13672-.01563.10156-.04296.08985-.0586.10156-.04687.08984-.0586.13281-.01171.08985.05859.13281.01172.08984-.0586.08594-.05859.10547-.04297.08984-.0586.08594-.0625.08985-.05859.14843-.14843.0586-.08594.05859-.08985.10547-.04296.13281-.01563.11719.02735.1211.03125.05859-.0586.05859-.08984.03125-.26563.02734-.11719.10547.01172.13281.01563.10157-.04297.08984-.0586.0586-.08984.07421-.07422.0586-.08984.04687-.10156.01172-.13281-.01172-.13282-.04687-.10547-.14844-.14843-.0586-.08985-.05859-.08594-.04297-.10546v-.44532l.01563-.1328v-.14845l.01172-.1328-.0586-.0586-.08984.0586-.10156-.04298-.17969-.11719-.08594-.05859-.0625-.08984-.0586-.08985-.07421-.07421-.08594-.0586-.1211.03125-.10155.01172-.10547.04688-.08594.05859-.10547.04297-.14844.14844-.08984.05859-.08594.0586-.08984.0625-.10547.04296-.13281.01563v-.1211l.10547-.04297.11718-.03125.07422-.0703.04297-.10548v-.14844l-.02734-.11718-.14844-.14844-.13281-.01563h-.14844l-.11719.03125-.10547.04297-.10156.04297-.08984.0625-.11719.02735-.07422-.07422.01172-.13281-.04297-.10157-.04297-.10547-.08984-.05859-.11719.02734-.1211.03125-.11718.03125-.10156.04297-.1211.03125-.10156.04297-.10547.04297-.08984.0586-.10156.01562v-.11719l.01562-.13281-.0586-.08985-.07421.04297-.14844.14844-.0586.08985-.07421.07421-.04688.10547-.04296.10156-.07422.07422-.0586.08985-.07422.07422-.05859.08593-.07422.07422-.08984.0625-.07422.07031-.07422.07422-.10156.01563-.13281.01562-.10547-.04296v-.1211l.14843-.14844.04297-.10156.0586-.08984.04687-.10156.04297-.10547.0586-.08985.03124-.11719.04297-.10156.03125-.1211.02735-.11718.04687-.10547.04297-.10156.04297-.10547.07422-.07031.08984-.0625.08985-.0586.10156-.04296h.29687l.26563-.03125.10547-.04297-.07422-.07422-.11719-.03125-.10547-.04297-.08984-.0586-.10156-.04687-.08985-.0586-.10156-.04296-.10547-.04297-.08984-.0625-.08594-.0586-.10547-.04296-.10156-.04297-.1211-.03125-.11718-.03125-.10157-.04297L297.5 410.25l-.10156-.04297-.08985-.0586-.04296-.10546-.01563-.13281.10156-.04297.13281-.01563.13672.01563.13282-.01563.10156-.04297.0586-.08984.01562-.10547-.08985-.0586-.07421-.07421-.10157-.04297-.08984-.0586-.14844-.14843-.04297-.10547-.01562-.13281v-.29297l-.0586-.08985-.08984-.05859-.07422-.07422-.04297-.10547-.03125-.11718-.0586-.08985-.07421-.07422-.11719-.02734-.07422-.07422-.08984-.0586-.08984-.0625-.08594-.05859-.07422-.07421-.0586-.08594-.04687-.10547-.08594-.0586-.14843-.14843-.19532-.0586-.1328.01563-.10157.04297-.07422.07422-.04688.10156-.04296.10547-.0586.08984-.0586.08594-.29687.29687-.08984.0586h-.08594l-.0625-.08594-.04297-.10547.03125-.11719.0586-.08984.02734-.11719-.01172-.13281-.08984-.0625-.10547.04688-.11719.02734-.11719.03125-.26953.17578-.10156.04688-.11719.02734-.10546.04687-.08985.0586-.10156.04297-.0586-.08594-.04687-.10547.01563-.13281.04687-.10547.07031-.07422.07422-.07031.0586-.08985v-.14843l-.04297-.10547h-.23829l-.10156.04687-.03125.11719-.02734.11719-.03125.1211-.07422.04296-.13281.01563-.07422-.04688-.04297-.10156-.04297-.10547-.04687-.10156-.04297-.10547-.1211.03125-.10156.04297-.13281.01562-.11719.03125-.10547.04297-.08984.0586-.10156.04687-.1211.02734-.13281.01563-.10156-.04297-.0586-.08985-.04687-.10546-.04297-.10157-.04297-.10546v-.1172l.0586-.08984.08593-.05859.17969-.11719.10156-.04687.10547-.04297.10547-.0586.10156-.04296.08985-.0625.10156-.04297.10547-.0586.10156-.04687.08984-.0586.10547-.04296.10156-.04297.08985-.0625.10156-.04297.13672-.01563.11719.03125.10156.04297.1211.03125.10156.04297.10546.04688.10157.04296.10547.04297.10156.04688.10547.04297.10156.04297.10547.04687.08594.0586.10546.04296.1172.03125.10546.04297.10156.04688.08985.0586.10547.04296.10156.04297.10547.04687.11719.02735.10156.04687.1211.02735h.14843l.08594-.0586.01562-.10156.0586-.08984-.02735-.1172-.07422-.07421-.11719-.17969-.07421-.07422-.08985-.07421-.17969-.1172-.08593-.05859-.10547-.04296-.10156-.04688-.26954-.17578-.05859-.08985-.07422-.07421-.0586-.08985-.04296-.10156-.03125-.11719-.01563-.13672v-.5625l-.01171-.1328-.01563-.13282-.03125-.11719-.01562-.13281-.01172-.13281-.03125-.1211-.22266-.22265-.0586-.08594-.01562-.10547.03125-.11719.13281-.01562v-91.41406H172.9922v1.45312l-.0586.23438-.35156 1.05078-.17187.52343-.1172.34766-.17577.41016-.11719.17187-.23438.29297-.23046.0586h-.35157l-.11718.05859-.23047.40625v.29297l.11719.17578.23046.23047.1172.23437.64062.75781.29297.46485.17578.23437.23047.35156.23437.34766.64063.8164.17578.46485.17187.41016.11719.69531.17578.46875.11719 1.39844.0586.46484v.875l.11718 1.04688v4.78125l-.0586.46484-.35156 1.28125-.17578.52344-.11328.41015-.35156.9297L172.93359 336l-.23437.58203-.11719.17578-.17187.34766-.17578.40625-.35157.8164-.0586.29297-.11327.29297-.11719.28906-.0586.17579-.11718.875-.0586.40625-.05859.11718-.0586.17579-.05859.17187-.23047.52734-.11718.17188v.23437l-.11719.23438-.0586.17187-.17577.58594v.28906l-.0586.17579v.29296l-.0586.11329-.05859.52734v.17187l-.05468.23438v2.6211l-.17578.8164-.1172.17578-.17577.23438-.1172.17187-.11327.23438-.58594.93359-.23047.28906-.29297.46485-.17578.23437-.28906.35156-.35156.69922-.11328.23047-.17579.41016-.17578.23046-.40625.52735-.8164.69922-.29297.17187-.28906.23438-.17579.11719-.17578.17578-.52344.40625-.52734.17578-.17187.17578-.23438.05469-.64062.17578h-.75782m12.21094 31.02344l-1.07422.44921.35938.89454 1.25-.71485.44531-.53906-.98047-.08985"/><path fill="#d3d3d3" fill-opacity="0" fill-rule="evenodd" d="M201.50781 416.59766h-.89453l.44922.6289.98047.35938.80469-.08985.4453-.98828-.17577.08985-.71485-.35547-.89453.35547m154.6211 59.0703l-.0586-.52343v-.29297l.11328-.29297.0586-.23046.46875-.46875h.11328l.11719-.11329.11718-.05859h.17579l.23437-.0586h.34766l.23437.0586.11719.0586.23047.17187.0586.17578.11718.58203v.29297l-.11719.17578-.17187.28906-.17579.17579-.52734.52343-.23047.23438-.11719.0586h-.17578l-.11718-.0586-.40625-.29297-.17579-.11719-.11718-.0586-.0586-.11327-.05468-.1172m6.64062-10.95702l-.0586-.17188v-1.10937l.0586-.17188.17578-.0586.17188-.05858h.17578l.23437-.0586.1172.0586.05858.69921-.05859.17188-.11719.17578-.11718.0586-.23438.52343-.11328.0586h-.23438l-.05859-.1172m9.61328-14.39062l-.11719-.17578v-.69922l.29297-.875.1172-.17187.17577-.35156.11328-.23047.1172-.29297.35155-.75781.1172-.23047.17187-.23438h.17578l.11719-.0586h.64062l.11719.0586.23437.23438.17188.11328.35156.29297.11719.11718.11328.17579v.11328l.11719.05859.11718.11719v.69922l-.05859.17578v.23047l-.0586.17578-.34765 1.05078-.11719.23047-.11719.23437-.11718.0586-.23047.23437-.64063.28906h-.875l-.41015-.11718-.64063-.46485"/><path fill="none" stroke="#bebebe" stroke-linecap="round" stroke-linejoin="round" stroke-miterlimit="10" stroke-width=".5" d="M467.95703 311.69531H144.02734v168.625h323.9297v-168.625"/><g clip-path="url(#a)"><path fill="#fff" fill-opacity="0" fill-rule="evenodd" d="M144 475.89063v4.4375h.0039H144V311.67188h.0039H144v164.21875"/></g><g clip-path="url(#b)"><path fill="#fff" fill-opacity="0" fill-rule="evenodd" d="M144.0039 480.32813V311.67188h44.37891v63.26171l-3.42578 3.3125 3.42578 3.30079 2.10156 1.13671-2.10156 1.60938-3.76172 2.83203-.67578 2.98438-.625 1.45312.625.75781L186.14062 396l-2.1953 1.01563-4.4375.125-4.44141 1.28515-4.4375-.70312L167.47266 396l-1.28125-.4961-.53125.4961.53125.53125 2.90625 3.90625-.23047 4.4375-2.67578 3.51172-1.10157.92969-3.33593.71484-3.63672 3.72266-.34766 4.4375-.13672 4.4375-.3164.6953-3.4922 3.7461-.51952 4.4375-.42969 1.24219-2.95313 3.19531 2.95313 3.46094 1.14844.97656 2.59765 4.4375-2.26562 4.4414 2.96094 2.94142 4.4375-.16407 4.4375-1.3789 1.66406-1.39844 2.77344-1.41406 4.4375-1.6836 4.4414-.10937 4.4375.65625 4.4375-1.5586.3711-.33203 4.0664-1.41015 3.53125-3.02735.91016-.3711 4.4375-.58593 3.51562-3.48047.92188-.5664 4.29297-3.8711.14453-.10937 4.4414-1.34766 3.16016-2.98047.59375-4.4414-3.7539-4.00391-.41797-.4336-3.60547-4.4375-.41797-.3164-4.4375.16016-.8086-4.28125-.03125-4.44141.625-4.4375.21485-.11719 1.19922.11719 3.23828 1.72266 4.4414.41015 1.81641 2.30469 2.6211 3.23438 1.42187 1.20703 3.01563 2.41796 3.01171-2.41796 1.42578-.89454 3.62891-3.54687.8086-.73047v6.3125l-3.6211 3.29688-.69531 4.4375 2.79297 4.4375 1.52344 1.2539 2.66406-1.2539 1.77734-.58594 3.21094-3.85156.38672-4.4375-3.59766-2.89454-4.4414-.40234v-6.3125l4.4414-.1289 4.4375.28906.76563.57031 3.67187 2.83203 2.48828-2.83203-.21094-4.4375L250.08984 396l-2.44922-4.4375-1.55859-1.59766-4.4375-2.53125-4.4375-.22265-4.4414 1.59375-2.70704 2.75781L228.625 396l-.29688.32031-4.4375.63672-4.4375-.19922-.86328-.75781-3.57422-2.9414-3.28515-1.4961-1.15625-1.3164-1.53125-3.1211 1.53125-1.14844 3.09766-3.29297-3.09766-3.90625-4.4375-.42578-4.4375-.03515-4.4375.89062-2.6875-.96094-1.7539-.5078-4.4375-2.8047v-63.26171h53.26171v53.40234l-4.4375 1.91797-1.98047 2.3789-2.46094 1.92579-3.01953 2.51171 3.01953 1.82813 4.44141 2.41797 4.4375-.16406v2.16015l-.95312 2.63281.95312 1.40235 1.02344-1.40235-1.02344-2.6328v-2.16017l4.4375-2.58984 1.44531-1.49219 2.9922-2.0078 4.4375-.66798 4.4414 1.28125v22.94922l-1.3164.63672 1.3164.57031.99219-.57031-.9922-.63672v-22.94922l.42188 1.39453.84766 4.4375 3.16797 3.5547 1.98437.8828 2.45313 2.41407 3.2461 2.02734 1.1914.69531 4.4414 2.07422 4.4375.05078 4.4375-2.57422.2422-.24609 4.1953-2.47266 1.94922-1.96875-1.94922-2.125-4.4375-.8203-4.4375-.69923-4.4375-.36328-3.9414-.42969-.5-.28125-1.58985-4.15625-.66796-4.4375-2.1797-3.96875-4.4375 1.45313-4.4375 1.01953-4.4414.19531-4.4375-1.26953-4.4375-.13672-4.4375-1.58984v-53.40235h88.76563v59.08204l-3.21485 3.05468 3.21485 3.14454 3.32812-3.14454-3.32812-3.05468v-59.08204h17.7539v127.04688l-2.16015 1.66406 2.16015 2.54297 2.69531 1.89453-2.6953 3.73438-.7461.70703.7461.8711.71874-.8711 3.71875-2.67578 1.55469-1.76563-1.55469-1.03906-2.71484-3.39844-1.72266-1.66406V311.67187h26.6289v131.80079l-1.77343 1.34765 1.77344 1.35938 1.33203-1.35938-1.33203-1.34765V311.67187h4.4414v113.71485l-1.6914 1.6836-1.94531 4.4375 3.63671 3.8203 4.01172-3.8203-1.78906-4.4375-2.22265-1.6836V311.67187h4.4375v81.96875L381.32421 396l2.34765 2.46094L386.07423 396l-2.40235-2.35938v-81.96875h13.3125v109.06641l-4.4375.16016-4.4375 1.32031-.48828.41016-.60156 4.4414 1.08985 1.3125 1.39062 3.125 3.04688 2.86719 4.4375.0039 4.4414-.25 2.09766 1.81641 2.33984 2.58594 4.4375-.83594 1.13281-1.75-1.1328-1.23828-4.4375-1.67578-1.27735-1.52344-2.22266-4.4375-.9375-.85937-2.51562-3.58203-1.92579-1.89063v-109.0664h8.87891v74.96484l-.33203.48828.33203.32422.32422-.32422-.32422-.48828v-74.96485h26.6289v3.9336l-.48046.5039.48047.48047.48047-.48046-.48047-.50391v-3.9336h4.4375v55.69532l-1.73438 2.0039 1.73438 2.21875 4.4414-1.58203 2.90625 3.80078 1.53125 1.50782v3.67968l-4.4375.05079-4.4414 1.51562-2.17188 2.1211 2.17188 2.125 4.4414 1.46093 4.4375.1289 4.4375-.33202 3.45704-3.38282-3.45704-3.3789-4.4375-.3086v-3.67968l1.76954-1.50782-1.76954-3.03515-2.6328-1.40235-1.8047-.83984-4.4414-1.16406v-55.69531h17.7539v56.40234l-2.03515 1.29687 2.03515 1.87891 1.59375 2.5586.40235 4.4375 2.44531 2.42187 2.41797-2.42188-.65235-4.4375-1.76562-2.5039-2.89844-1.9336-1.54297-1.29687v-56.40235h13.3125v168.65625H144.00391"/></g><path fill="#50fcfc" fill-rule="evenodd" d="M152.875 439.40625l-2.95313-3.46094L152.875 432.75l.42969-1.24219.51953-4.4375 3.49219-3.7461.3164-.6953.13672-4.4375.34766-4.4375 3.63672-3.72266 3.33593-.71484 1.10157-.9297 2.67578-3.51171.23047-4.4375-2.90625-3.90625-.53125-.53125.53125-.4961 1.28125.4961 3.15625 1.72266 4.4375.70312 4.4414-1.28515 4.4375-.125L186.14062 396l-2.1953-3.67969-.625-.75781.625-1.45313.67577-2.98437 3.76172-2.83203v2.46094l-.48828.37109.48828 1.29297 1.1211-1.29297-1.1211-.3711v-2.46093l2.10156-1.60938-2.10156-1.13671-3.42578-3.30079 3.42578-3.3125v1.75l-1.61719 1.5625 1.6172 1.5586 2.1953-1.5586-2.1953-1.5625v-1.75l4.4375 2.8047v16.5703L190.54296 396l2.27734.34766L193.25 396l-.42969-1.6914v-16.57032l1.7539.50781 2.6875.96094 4.4375-.89062v2.0625l-3.02733 2.30468-1.41016.54688-3.96484 3.89453-.41797 4.4375L194.0703 396l-1.25 1.01172-3.89453 3.42578-.54297 1.00781-2.35156-1.00781-2.08594-1.33203-4.4375.51172-1.60156.82031.32813 4.4375 1.27343.35938v3.51171l-.73437.57032.73437.27734.71875-.27734-.71875-.57032v-3.51171l4.4375 3.41015.13281.67188-.1328.17578-4.4375 1.80469-4.01563 2.45703-.42578.53906-.51953-.53906-3.91797-2.5625-4.4375-1.08594-4.4375 1.35937-2.23828 2.28907-1.00782 4.4375-.17187 4.4375-1.01953 2.21875-2.07422 2.22265-1.02735 4.4375-1.33984 3.89844-.4961.53906.4961.58203 4.4414 3.82422.02344.03125.89063 4.4375 3.52344 4.2461 4.4375-1.08204 4.4375-3.14843.03125-.01563 4.40625-2.46875 4.4414 1.26563 4.4375-.30078 4.4375-.9375 3.60938-1.9961.82812-.20312 4.4414-1.92969 4.33204-2.30469.10547-.04687 4.4375-2.75781 1.8125-1.63282 2.625-1.95312 4.4414-2.32813.16797-.15625 1.82813-4.4414-1.9961-2.12891-2.21875-2.3086-2.22265-2.49218-4.4375.1211-4.4375-1.97657-.0664-.08984.0664-.23438 2.14062-4.20312-.12109-4.44141.80469-4.4375 1.61328-.86719 4.4375.44922 4.4414-2.32422 2.07032 2.74219 2.36719 3.71875.28125.71875 4.15625 3.67969 4.4375-2.76563.93359-.91406 3.5039-3.16406 4.44141.64844 4.4375-1.28125 1.47266-.64063 2.96484-2.63281.85938-1.80469-.85938-1.25-1.01953-3.1875-3.41797-2.89063-4.4375-.21875-4.42187 3.10938-.01953.07031L231.08593 396l-2.7578 2.99219-4.4375-.17188-4.4375.42969-3.70704-3.25-.73047-.60547-4.4414-3.29297-1.67578-.53906-2.71094-4.4375 4.38672-3.29297 1.08203-1.14844-1.08203-1.36328-4.4375-.7461-4.4375-.1953v-2.0625l4.4375.03515 4.4375.42578 3.09766 3.90625-3.09766 3.29297-1.53125 1.14844 1.53125 3.1211 1.15625 1.3164 3.28516 1.4961L218.58983 396l.86328.75781 4.4375.19922 4.4375-.63672L228.625 396l1.4336-4.4375 2.70702-2.75781 4.44141-1.59375 4.4375.22265 4.4375 2.53125 1.5586 1.59766L250.08983 396l-1.73047 4.4375.21094 4.4375-2.48828 2.83203-3.67187-2.83203-.76563-.57031-4.4375-.28906-4.4414.1289-.8086.73047-3.6289 3.54688-1.42579.89453-3.01172 2.41796-3.01562-2.41796-1.42188-1.20704-2.62109-3.23437-1.8164-2.30469-4.44141-.41015-3.23828-1.72266-1.19922-.11719-.21484.11719-.625 4.4375.03125 4.4414.80859 4.28126 4.4375-.16016.41797.3164 3.60547 4.4375.41797.4336 3.7539 4.0039-.59375 4.44141-3.16016 2.98047-4.4414 1.34766-.14453.10937-4.29297 3.8711-.92188.5664-3.51562 3.48047-4.4375.58594-.91016.3711-3.53125 3.02734-4.0664 1.41015-.3711.33203-4.4375 1.5586-4.4375-.65625-4.4414.10937-4.4375 1.6836-2.77344 1.41406-1.66406 1.39844-4.4375 1.3789-4.4375.16406-2.96094-2.9414 2.26562-4.4414-2.59765-4.4375-1.14844-.97657"/><path fill="#00e8fc" fill-rule="evenodd" d="M152.875 436.52734l-.4961-.58203.4961-.53906 1.33984-3.89844 1.02735-4.4375 2.07422-2.22265 1.01953-2.21875.17187-4.4375 1.00781-4.4375 2.23829-2.28907 4.4375-1.35937 4.4375 1.08594 3.91797 2.5625.51953.53906.42578-.53906 4.01562-2.45704 4.4375-1.80468.13281-.17578-.1328-.67188-4.4375-3.41015-1.27345-.35938-.32812-4.4375 1.60156-.82031 4.4375-.51172 2.08594 1.33203 2.35156 1.00781.54297-1.00781 3.89453-3.42578 1.25-1.01172-1.1914-4.4375.41797-4.4375 3.96484-3.89453 1.41016-.54688 3.02734-2.30468v2.58203l-4.4375 2.01562-2.1875 2.14844-1.53906 4.4375L195.4375 396l-2.61719 2.11719-2.63672 2.32031-1.80078 3.33594-2.26562 1.10156-.65625 4.4414-1.51563 2.01954-4.02344 2.41797-.41406.12109-4.14453 4.3164-.29687.22266-4.4375.10938-.79297-.33203-.0586-4.4375-3.58593-2.07422-4.3086 2.07422-.1289.10156-2.01953 4.33594-.23047 4.4375-1.98828 4.4414-.19922.47266-1.58203 3.96484-1.09766 4.4375 2.67969 2.52344 1.59375 1.91406.98828 4.4375 1.85547 2.23828 4.4375-2.04296.27343-.19532 3.9961-4.4375.16797-.21875 4.4375-3.70703 3.07812 3.92578 1.36328.70313 2.60938-.70313 1.82812-.80469 4.4375-.1914 4.4375-1.08985 3.78906-2.35156.65235-.6836 4.4375-1.9375 2.47266-1.8164 1.96484-1.20703 3.9336-3.23047.5039-.26562 4.01953-4.17578-4.01953-4.08985-4.4375.02735-.85547-.375-3.58203-2.50391-1.46094-1.9336 1.375-4.4375-.14844-4.4414.23438-2.3086.4961-2.1289 3.9414-2.11719 4.4375.4961L213.83984 396l-3.26562-2.73047-4.4375-1.21094-.24219-.49609-.49219-4.4375-3.70312-4.16406v-2.58203l4.4375.1953 4.4375.7461 1.08203 1.36328-1.08203 1.14844-4.38672 3.29297 2.71094 4.4375 1.67578.53906 4.4414 3.29297.73047.60547 3.70703 3.25 4.4375-.42969 4.4375.17188L231.08595 396l1.67969-4.36719.01953-.07031 4.42187-3.10938v2.07032l-1.47656 1.03906-.96094 4.4375 2.4375 3.11719 4.4375-1.14453L243.67578 396l-1.04687-4.4375-.98438-.83203-4.4375-.20703v-2.07031l4.4375.21875 3.41797 2.89062 1.01953 3.1875.85938 1.25-.85938 1.80469-2.96484 2.63281-1.47266.64063-4.4375 1.28125-4.4414-.64844-3.50391 3.16406-.9336.91406-4.4375 2.76563-4.15625-3.67969-.28125-.71875-2.36718-3.71875-2.07031-2.74219-4.44141 2.32422-4.4375-.44922-1.61328.86719-.80469 4.4375.1211 4.4414-2.14063 4.20313-.0664.23438.0664.08984 4.4375 1.97656 4.4375-.1211 2.22266 2.4922 2.21875 2.30859 1.99609 2.1289-1.82813 4.44141-.16797.15625-4.4414 2.32813-2.625 1.95312-1.8125 1.63281-4.4375 2.75782-.10547.04687-4.33203 2.30469-4.4414 1.92969-.82813.20312-3.60938 1.9961-4.4375.9375-4.4375.30078-4.4414-1.26563-4.40625 2.46875-.03125.01563-4.4375 3.14844-4.4375 1.08203-3.52344-4.2461-.89063-4.4375-.02343-.03125-4.44141-3.82422"/><path fill="#00d4fc" fill-rule="evenodd" d="M157.3164 438.46875l-2.67968-2.52344 1.09766-4.4375 1.58203-3.96484.19922-.47266 1.98828-4.4414.23047-4.4375 2.01953-4.33594.1289-.10156 4.3086-2.07422 3.58593 2.07422.0586 4.4375.79297.33203 4.4375-.10938.29687-.22265 4.14453-4.31641.41406-.1211 4.02344-2.41796 1.51563-2.01953.65625-4.44141 2.26562-1.10156 1.80078-3.33594 2.63672-2.32031L195.4375 396l-1.90234-4.4375 1.53906-4.4375 2.1875-2.14844 4.4375-2.01562v.83203l-4.4375 2.92969-.40625.40234-2.66797 4.4375L196.80469 396l-3.98438 3.22656-1.3789 1.21094-2.23047 4.4375-.82813 1.42188-1.53906 3.01953-2.89844 3.86328-.95703.57422-3.48047 1.02343-3.27734 3.41407-1.16406.8789-4.4375.54688-3.4297-1.42578-.14062-4.4375-.86718-.5-1.03907.5-3.39843 2.74609-.78516 1.6914-.29688 4.4375-1.54687 4.44141-1.8086 4.28516-.0625.15234-.61718 4.4375.67969.63672 3.16406 3.80078 1.08203 4.4375.1914.23047.48048-.23047 3.95703-2.07812 2.1953-2.35938 2.2422-2.91797 1.6875-1.51953 2.75-1.75781 4.0078-2.67969.4336-.2539 2.74219-4.1836 1.69531-1.60547 3.1289-2.83593 1.3086-.82422 4.4375-1.76953v2.39062l-4.4375.09766-.16797.10547-4.26953 3.87109-.60156.57031.60156 2.41016 4.4375-1.91016.58594-.5 3.85156-4.1875.1914-.2539-.1914-.20313v-2.39062l2.41016 2.59375-2.41016 3.23046-1.11328 1.21094-3.32422 2.85156-2.46875 1.58594-1.39453 4.4375 3.86328 1.54688 4.4375-1.07813.75781-.46875 3.6836-3.86328 1.6875-.57422 2.75-.78906 4.4375-2.5664 1.32031-1.08204 3.11719-1.64062 2.69922-2.80078-2.69922-2.7422-4.4375-.15624-3.4961-1.53906-.9414-.65625-2.85547-3.78125 2.14063-4.4375-.53516-4.44141-3.1875-2.71875-2.85547-1.71875 2.85547-3.79688v1.91797l-1.41406 1.87891 1.41406.85156 3.64453-.85156-3.64453-1.8789v-1.91798l4.4375 2.42579 4.4375-1.9961 4.4375.54688L212.44532 396l-1.8711-1.5664-4.4375-.25-1.27734-2.6211-.19922-4.4375-2.96094-3.33203v-.83203l3.70312 4.16406.4922 4.4375.24218.4961 4.4375 1.21093L213.83984 396l-3.26562 2.8164-4.4375-.49609-3.9414 2.11719-.4961 2.1289-.23438 2.3086.14844 4.4414-1.375 4.4375 1.46094 1.9336 3.58203 2.5039.85547.375 4.4375-.02734 4.01953 4.08985-4.01953 4.17578-.5039.26562-3.9336 3.23047-1.96484 1.20703-2.47266 1.8164-4.4375 1.9375-.65234.6836-3.78907 2.35156-4.4375 1.08985-4.4375.1914-1.82812.8047-2.60938.70312-1.36328-.70313-3.07812-3.92578-4.4375 3.70703-.16797.21875-3.9961 4.4375-.27343.19531-4.4375 2.04297-1.85547-2.23828-.98828-4.4375-1.59375-1.91406"/><path fill="#00c4fc" fill-rule="evenodd" d="M157.3164 436.58203l-.67968-.63672.61719-4.4375.0625-.15234 1.80859-4.28516 1.54688-4.4414.29687-4.4375.78516-1.69141 3.39843-2.7461 1.03907-.5.86718.5.14063 4.4375 3.42969 1.42579 4.4375-.54688 1.16406-.8789 3.27734-3.41407 3.48047-1.02343.95703-.57422 2.89844-3.86328 1.53906-3.01954.82813-1.42187 2.23047-4.4375 1.3789-1.21094v1.10547l-.1211.10547-1.91796 4.4375-2.39844 4.125-.16015.3164-3.27344 4.4375-1.0039.46094-4.4375 1.46485-2.41016 2.51172-2.03125 1.53125-4.4375.99218-4.4375-.77343-4.10938 2.6875-.32812.47656-1.02344 3.96484-.2461 4.4375-1.16015 4.4375 2.42969 3.58985 3.39453.84765 1.04297.1289.12109-.1289 3.45313-4.4375.86328-.67187 4.4375-3 1.14843-.76563 3.29297-1.91797 1.65235-2.51953 2.78515-2.64062 1.98828-1.80078 2.44922-1.54688 4.19922-2.89062.23828-.35547 4.4414-3.58985v3.65625l-.41796.28907.41797.35546.80469-.35546-.8047-.28907v-3.65625l.1875-.49218 2.90235-4.4375-.92187-4.44141-2.16797-1.85156-4.30078-2.58594-.14063-.10547v-1.10547L196.8047 396l-2.61719-4.4375 2.66797-4.4375.40625-.40234 4.4375-2.9297v.83595l-3.52734 2.49609-.91016.76563-2.41797 3.67187 2.41797 3.76172 2.07812.67578 2.35938 1.32031L205.42188 396l-1.59375-4.4375.08984-4.4375-2.21875-2.4961v-.83593l2.96094 3.33203.19922 4.4375 1.27734 2.6211 4.4375.25v1.16406l-3.125.40234 3.125.41406.48047-.41406-.48047-.40234v-1.16407L212.44532 396l-1.8711 1.61719-4.4375-.54688-4.4375 1.9961-4.4375-2.42579-2.85547 3.79688 2.85547 1.71875 3.1875 2.71875.53516 4.4414-2.14063 4.4375 2.85547 3.78126.9414.65625 3.4961 1.53906v1.16015l-4.4375 1.72657-.08594.01172-4.35156 1.01562-1.44922 3.42578-2.99219 1.77344-3.25 2.66406 3.25 2.40625 2.3125-2.40625 2.1289-3.28515 4.4375-.1875 1.8711-.96485 2.5664-1.10547 4.4375-1.90625 1.375-1.42968-1.375-1.39844-4.4375-.33985v-1.16015l4.4375.15625 2.69923 2.74219-2.69922 2.80078-3.11719 1.64062-1.32031 1.08203-4.4375 2.56641-2.75.78906-1.6875.57422-3.6836 3.86328-.7578.46875-4.4375 1.07813-3.86329-1.54688 1.39453-4.4375 2.46875-1.58594 3.32422-2.85156 1.11328-1.21094 2.41016-3.23046-2.41016-2.59375-4.4375 1.76953-1.3086.82422-3.1289 2.83593-1.69531 1.60547-2.74219 4.1836-.4336.2539-4.0078 2.67969-2.75 1.75781-1.6875 1.51953-2.2422 2.91797-2.1953 2.35938-3.95703 2.07812-.48047.23047-.19141-.23047-1.08203-4.4375-3.16406-3.80078"/><path fill="#00b8fc" fill-rule="evenodd" d="M161.7539 439.53516l-2.42968-3.58985 1.16016-4.4375.24609-4.4375 1.02344-3.96484.32812-.47656 4.10938-2.6875 4.4375.77343 4.4375-.99218 2.03125-1.53125 2.41015-2.51172 4.4375-1.46485 1.0039-.46093 3.27345-4.4375.16015-.31641 2.39844-4.125 1.91797-4.4375.1211-.10547v3.44922l-.46485 1.09375-2.8711 4.4414-1.10156 1.75-1.97656 2.6875-2.46094 1.13282-4.4375 1.69531-1.54687 1.60938-2.89453 2.18359-4.4375 1.4375-4.16797.8164-.26953.10548-3.75 4.33593.52734 4.4375-.33984 4.4375L166.1914 438l1.60156-2.05469 2.83594-2.20312 3.14453-2.23438 1.29297-.48047 4.4414-3.10546.5586-.85157 3.8789-3.67578.84375-.76562 3.59375-2.26563 3.15235-2.17187 1.28515-1.89063 2.91406-2.54687 1.52735-.8047 2.45703-3.6328-1.30469-4.44141-1.15234-.98438-4.4414-.10937v-3.44922l.14062.10547 4.30078 2.58594 2.16797 1.85156.92187 4.4414-2.90234 4.4375-.1875.4922-4.4414 3.58984-.23829.35547-4.19922 2.89062-2.44922 1.54688-1.98828 1.80078-2.78515 2.64062-1.65235 2.51953-3.29297 1.91797-1.14843.76563-4.4375 3-.86328.67187-3.45313 4.4375-.1211.1289-1.04296-.1289-3.39453-.84765"/><path fill="#00a8fc" fill-rule="evenodd" d="M162.96875 431.50781l-.52734-4.4375 3.75-4.33594.26953-.10546 4.16797-.81641 4.4375-1.4375 2.89453-2.1836 1.54687-1.60937 4.4375-1.69531 2.46094-1.13281 1.97656-2.6875 1.10156-1.75 2.8711-4.44141.46484-1.09375 4.4414.10938v.86718l-.72265.11719-3.71875 1.3086-2.09375 3.1328-2.34375 3.73048-.51953.70703-3.91797 1.80859-4.4375 1.92188-.67969.70703-3.76171 2.83984-4.01563 1.59766-.42187.35546-4.4375 1.92579-1.8672 2.16015.6172 4.4375 1.25 3.41797 4.4375-2.71875.98828-.69922 3.44922-1.27344 3.95703-3.16406.48437-.33203 4.2539-4.10937.1836-.27344 4.4375-2.71094 2.10547-1.45312 2.33203-3.4297 1.15235-1.0078 3.28906-1.73829 1.82812-2.69921-1.6914-4.44141-.13672-.11719v-.86719l1.15234.98438 1.30469 4.4414-2.45703 3.63282-1.52734.80469-2.91407 2.54687-1.28515 1.89063-3.15235 2.17187-3.59375 2.26563-.84375.76562-3.8789 3.67578-.5586.85156-4.4414 3.10547-1.29297.48047-3.14453 2.23438-2.83594 2.20312L166.1914 438l-3.5625-2.05469.33984-4.4375"/><path fill="#009800" fill-rule="evenodd" d="M164.9414 431.50781l-.61718-4.4375 1.86719-2.16015 4.4375-1.92579.42187-.35546 4.01563-1.59766 3.76172-2.83984.67968-.70704 4.4375-1.92187 3.91797-1.8086.51953-.70702v2.42968l-4.4375.75781-4.13281 1.95704-.30469.17968-4.4414 3.3125-2.375.94532-2.0625 1.73437-4.41797 2.70703 4.41797 3.47266 4.4375-1.10547 2.96093-2.36719 1.48047-1.00781 3.55469-3.4336.88281-1.33984 4.4375-2.36719 1.0625-.73046-1.0625-2.71485v-2.42969l2.34375-3.73046 2.09375-3.13282 3.71875-1.30859.72266-.11719v1.50781l-4.4414 1.77735-.84766 1.27344.84765 2.9453 4.4414-1.17577 1.19532-1.76953-1.19531-3.05079v-1.5078l.13672.11718 1.6914 4.4414-1.82812 2.69923-3.28906 1.73828-1.15235 1.0078-2.33203 3.4297-2.10547 1.45312-4.4375 2.71094-.1836.27344-4.2539 4.10937-.48437.33203-3.95703 3.16406-3.44922 1.27344-.98828.69922-4.4375 2.71875-1.25-3.41797"/><path fill="#00ac00" fill-rule="evenodd" d="M170.6289 430.54297l-4.41796-3.47266 4.41797-2.70703 2.0625-1.73437 2.375-.94532 4.4414-3.3125.30469-.17968 4.13281-1.95704v.67188l-2.71094 1.28516-1.72656 1.01953-4.4414 3.125-.73438.29297-3.70312 3.11718-2.16016 1.32422 2.16016 1.69531 4.4375-.125 1.96875-1.5703 2.47265-1.6836 2.85547-2.75781 1.58203-2.40625 4.4375-2.01954.01563-.01171-.01563-.03907-4.4375-1.24609v-.67188l4.4375-.7578 1.0625 2.71484-1.0625.73046-4.4375 2.3672-.88281 1.33984-3.55469 3.43359-1.48047 1.00781-2.96093 2.36719-4.4375 1.10547"/><path fill="#00c800" fill-rule="evenodd" d="M170.6289 428.76563l-2.16015-1.69532 2.16016-1.32422 3.70312-3.11718.73438-.29297 4.4414-3.125v1.67578l-2.54687 1.74219 2.54687 1.41015 1.45703-1.41015-1.45703-1.7422v-1.67577l1.72656-1.01953 2.71094-1.28516 4.4375 1.2461.01563.03906-.01563.01171-4.4375 2.01954-1.58203 2.40625-2.85547 2.7578-2.47265 1.6836-1.96875 1.57031-4.4375.125"/><path fill="#10cc00" fill-rule="evenodd" d="M179.50781 424.03906l-2.54687-1.41015 2.54687-1.7422v1.67188l-.10156.07032.10156.05859.0586-.0586-.0586-.0703v-1.67188l1.45703 1.74219-1.45703 1.41015"/><path fill="#fff" fill-opacity="0" fill-rule="evenodd" d="M179.50781 408.7461l-.73437.5703.73437.27735.71875-.27734-.71875-.57032"/><path fill="#24d000" fill-rule="evenodd" d="M179.50781 422.6875l-.10156-.0586.10156-.0703.0586.0703-.0586.0586"/><path fill="#00e8fc" fill-rule="evenodd" d="M183.94531 426.5l-.60156.57031.60156 2.41016 4.4375-1.91016.58594-.5 3.85156-4.1875.1914-.2539-.1914-.20313-4.4375.09766-.16797.10547-4.26953 3.87109m4.4375-46.69531l-1.61719-1.5586 1.6172-1.5625 2.1953 1.5625-2.1953 1.5586m0 8.61328l-.48829-1.29297.48828-.3711 1.1211.3711-1.1211 1.29297"/><path fill="#00b8fc" fill-rule="evenodd" d="M192.82031 433.91406l-3.25-2.40625 3.25-2.66406 2.99219-1.77344 1.44922-3.42578 4.35156-1.01562.08594-.01172 4.4375-1.72656v1.16406l-1.47266.57422 1.47266 1.10937 4.4375-1.05469.05078-.05468-.05078-.05079-4.4375-.52343v-1.16406l4.4375.33984 1.375 1.39844-1.375 1.42968-4.4375 1.90625-2.5664 1.10547-1.8711.96485-4.4375.1875-2.1289 3.28515-2.3125 2.40625"/><path fill="#fff" fill-opacity="0" fill-rule="evenodd" d="M192.82031 394.3086L190.54297 396l2.27734.34766L193.25 396l-.42969-1.6914"/><path fill="#00ac00" fill-rule="evenodd" d="M192.82031 412.26172l-.84765-2.94531.84765-1.27344 4.4414-1.77735v1.60547l-3.28515 1.44532 3.28516.83593.5664-.83593-.5664-1.44532v-1.60546l1.19531 3.05078-1.19531 1.76953-4.4414 1.17578"/><path fill="#00c800" fill-rule="evenodd" d="M197.26172 410.15234l-3.28516-.83593 3.28516-1.44532.5664 1.44532-.5664.83593"/><path fill="#00b8fc" fill-rule="evenodd" d="M197.26172 395.32422l-2.41797-3.76172 2.41797-3.67188.91016-.76562 3.52734-2.4961v.83204l-2.34766 1.66406-2.08984 1.75781-1.76563 2.67969 1.76563 2.74219 4.4375.86719 1.09766-3.60938.3789-4.4375-1.47656-1.66406v-.83203l2.21875 2.49609-.08984 4.4375L205.42188 396l-3.72266 1.32031L199.33984 396l-2.07812-.67578"/><path fill="#00a8fc" fill-rule="evenodd" d="M197.26172 394.30469l-1.76563-2.74219 1.76563-2.67969 2.08984-1.75781 2.34766-1.66406v.83594l-1.16797.82812-3.26953 2.75-1.11328 1.6875 1.11328 1.72656 4.4375-1.51953.0625-.20703.67187-4.4375-.73437-.82813v-.83593l1.47656 1.66406-.3789 4.4375-1.09766 3.60938-4.4375-.8672"/><path fill="#00e8fc" fill-rule="evenodd" d="M197.26172 398.5586l-1.41406 1.8789 1.41406.85156 3.64453-.85156-3.64453-1.8789"/><path fill="#009800" fill-rule="evenodd" d="M197.26172 393.28906l-1.11328-1.72656 1.11328-1.6875v.99219l-.45703.69531.45703.70703 1.89062-.70703-1.89062-.69531v-.99219l3.26953-2.75 1.16797-.82813.73437.82813-.67187 4.4375-.0625.20703-4.4375 1.51953"/><path fill="#00ac00" fill-rule="evenodd" d="M197.26172 392.26953l-.45703-.70703.45703-.69531 1.89062.69531-1.89062.70703"/><path fill="#00d4fc" fill-rule="evenodd" d="M197.26172 417.90234l-.41797.28907.41797.35546.80469-.35546-.8047-.28907"/><path fill="#00a8fc" fill-rule="evenodd" d="M206.13672 423.73828l-1.47266-1.10937 1.47266-.57422 4.4375.52344.05078.05078-.05078.05468-4.4375 1.0547"/><path fill="#00b8fc" fill-rule="evenodd" d="M210.57422 396.41406l-3.125-.41406 3.125-.40234.48047.40234-.48047.41406"/><path fill="#50fcfc" fill-rule="evenodd" d="M231.24219 422.6289l-2.79297-4.4375.69531-4.4375 3.6211-3.29687v1.83985l-1.60157 1.45703-1.1914 4.4375 2.79297 3.14062 4.4414-2.89062.20703-.25-.05078-4.4375-.15625-.12891-4.4414-1.32813v-1.83984l4.4414.40235 3.59766 2.89453-.38672 4.4375-3.21094 3.85156-1.77734.58594-2.66406 1.2539-1.52344-1.2539m1.52344-46.9922l-3.01954-1.82812 3.01953-2.51171 2.46094-1.92579 1.98047-2.3789 4.4375-1.91797v4.1289l-.24219.16797-4.1953 3.64454-1 .79296 1 .57032 2.79687-.57032 1.64062-3.0664.76172-1.3711-.76172-.16796v-4.12891l4.4375 1.58984 4.4375.13672 4.4375 1.26953 4.4414-.19531 4.4375-1.01953v3.5l-1.27343 3.45312.54297 4.4375.73047.82032 3.61719-.82032.8203-1.70312.28126-2.73438-.28125-.7539-4.4375-2.69922v-3.5l4.4375-1.45313 2.17969 3.96875.66796 4.4375 1.58985 4.15625.5.28125 3.9414.4297v1.28905l-4.4414.40235-2.82031 2.3164 2.8203 2.41407 4 2.02734.44141.24219 4.4375.11328.57813-.35547 3.85937-3.34375 1.7422-1.09766-1.7422-.70312-4.4375-1.73047-4.4375-.28516v-1.28906l4.4375.36328 4.4375.69922 4.4375.82031 1.94922 2.125-1.94922 1.96875-4.1953 2.47266-.2422.2461-4.4375 2.57421-4.4375-.05078-4.4414-2.07422-1.1914-.69531-3.2461-2.02734-2.45313-2.41407-1.98437-.8828-3.16797-3.5547-.84766-4.4375-.42187-1.39453-4.4414-1.28125-4.4375.66797-2.9922 2.00781-1.4453 1.4922-4.4375 2.58983-4.4375.16407-4.44142-2.41797"/><path fill="#00e8fc" fill-rule="evenodd" d="M232.76563 421.33203l-2.79297-3.14062 1.1914-4.4375 1.60156-1.45704v5.19922l-.24609.69532.2461.27734.41015-.27734-.41016-.69532v-5.19921l4.44141 1.32812.15625.1289.05078 4.4375-.20703.25-4.4414 2.89063"/><path fill="#00d4fc" fill-rule="evenodd" d="M232.76563 418.46875l-.2461-.27734.2461-.69532.41015.69532-.41016.27734m4.44141-19.35156L234.76953 396l.96094-4.4375 1.47656-1.03906 4.4375.20703.98438.83203L243.67578 396l-2.03125 1.97266-4.4375 1.14453"/><path fill="#00e8fc" fill-rule="evenodd" d="M237.20703 374.3789l-1-.5703 1-.79298 4.19531-3.64453.2422-.16796.76171.16796-.76172 1.3711-1.64062 3.0664-2.79688.57032"/><path fill="#50fcfc" fill-rule="evenodd" d="M241.64453 384.08594l-.95312-1.40235.95312-2.6328 1.02344 2.6328-1.02344 1.40235m17.7539 12.48437L258.08204 396l1.3164-.63672.9922.63672-.9922.57031"/><path fill="#00e8fc" fill-rule="evenodd" d="M263.10547 378.2461l-.54297-4.4375 1.27344-3.45313 4.4375 2.69922.28125.7539-.28125 2.73438-.82031 1.70312-3.6172.82032-.73046-.82032m9.60547 6.85157l-2.82031-2.41407 2.8203-2.3164 4.44141-.40235v2.14063l-1.86718.57812 1.86718.9922 4.4375-.1797.89454-.8125-.89454-.41015-4.4375-.16797v-2.14063l4.4375.28516 4.4375 1.73047 1.7422.70312-1.7422 1.09766-3.85937 3.34375-.57813.35547-4.4375-.11328-.4414-.24219-4-2.02734"/><path fill="#00d4fc" fill-rule="evenodd" d="M277.15234 383.67578l-1.86718-.99219 1.86718-.57812 4.4375.16797.89454.41015-.89454.8125-4.4375.1797"/><path fill="#50fcfc" fill-rule="evenodd" d="M330.41016 376.95313l-3.21485-3.14454 3.21485-3.05468v2.17578l-.92579.8789.92579.90625.95703-.90625-.95703-.8789v-2.17578l3.32812 3.05468-3.32812 3.14454"/><path fill="#00e8fc" fill-rule="evenodd" d="M330.41016 374.71484l-.92579-.90625.92579-.8789.95703.8789-.95703.90625"/><path fill="#50fcfc" fill-rule="evenodd" d="M348.16406 442.92578l-2.16015-2.54297 2.16015-1.66406 1.72266 1.66406 2.71484 3.39844 1.55469 1.03906-1.55469 1.76563-3.71875 2.67578-.71875.8711-.7461-.8711.7461-.70703 2.69531-3.73438-2.6953-1.89453m26.6289 3.2539l-1.77344-1.35937 1.77344-1.34765 1.33203 1.34765-1.33203 1.35938m4.4414-10.85156l-3.63671-3.82032 1.9453-4.4375 1.69142-1.6836v3.05079l-2.08594 3.07031 2.08594 2.1875 2.29687-2.1875-2.29688-3.07031v-3.05078l2.22266 1.6836 1.78906 4.4375-4.01171 3.8203"/><path fill="#00e8fc" fill-rule="evenodd" d="M379.23438 433.69531l-2.08594-2.1875 2.08594-3.07031 2.29687 3.07031-2.29688 2.1875"/><path fill="#50fcfc" fill-rule="evenodd" d="M383.67188 398.46094L381.32421 396l2.34765-2.35938L386.07423 396l-2.40235 2.46094m4.4375 29.92187l-1.08984-1.3125.60156-4.4414.48829-.41016 4.4375-1.32031 4.4375-.16016v9.82031l-1.78907.94922 1.78906.51172 2.33204-.51172-2.33204-.94922v-9.8203l1.92579 1.89062 2.51562 3.58203.9375.85937 2.22266 4.4375 1.27734 1.52344 4.4375 1.67578 1.13281 1.23828-1.1328 1.75-4.4375.83594-2.33985-2.58594-2.09766-1.8164-4.4414.25-4.4375-.00391-3.04688-2.86719-1.39063-3.125"/><path fill="#00e8fc" fill-rule="evenodd" d="M396.98438 432.01953l-1.78907-.51172 1.78906-.94922 2.33204.94922-2.33204.51172"/><path fill="#50fcfc" fill-rule="evenodd" d="M405.86328 387.44922l-.33203-.32422.33203-.48828.32422.48828-.32422.32422m26.6289-70.85938l-.48046-.48046.48047-.50391.48047.5039-.48047.48047m4.4375 68.21875l-2.17188-2.125 2.17188-2.12109 4.4414-1.51563 4.4375-.05078v1.12891l-4.4375.21875-3.65234 2.33984 3.65234 2.3125 4.4375.26954 4.4375-.78516 1.83594-1.79688-1.83594-1.79296-4.4375-.76563v-1.1289l4.4375.30859 3.45704 3.3789-3.45704 3.38282-4.4375.33203-4.4375-.1289-4.4414-1.46095m0-13.21875l-1.73438-2.21875 1.73438-2.0039 4.4414 1.16406 1.8047.83984 2.6328 1.40235 1.76954 3.03515-1.76954 1.50782-1.53125-1.50782-2.90625-3.80078-4.4414 1.58203"/><path fill="#00e8fc" fill-rule="evenodd" d="M441.3711 384.9961l-3.65235-2.3125 3.65234-2.33985 4.4375-.21875V382l-4.4375.5039-.28515.1797.28515.17968 4.4375.51172 2.35938-.6914-2.35938-.6836v-1.875l4.4375.76563 1.83594 1.79296-1.83594 1.79688-4.4375.78515-4.4375-.26953"/><path fill="#00d4fc" fill-rule="evenodd" d="M441.3711 382.86328l-.28516-.17969.28515-.17968L445.8086 382l2.35938.6836-2.35938.6914-4.4375-.51172"/><path fill="#50fcfc" fill-rule="evenodd" d="M454.6836 371.25l-2.03516-1.8789 2.03515-1.29688 1.54297 1.29687 2.89844 1.9336 1.76563 2.5039.65234 4.4375-2.41797 2.42188-2.44531-2.42188-.40235-4.4375-1.59375-2.55859"/><g clip-path="url(#c)"><path fill="#fff" fill-opacity="0" fill-rule="evenodd" d="M467.9961 480.32813H468V311.67188h-.0039H468v168.65625h-.0039"/></g><path fill="#fff" fill-opacity="0" fill-rule="evenodd" d="M185.48828 380.32813l5.8125-.59375-1.01953-9.91016-5.8086.59765 1.01563 9.90625"/><path fill-rule="evenodd" d="M188.14063 371.88672l.5078-.05078.64063 6.26172-.78125.07812-.46094-4.46484-1.3789.14062-.0586-.55078.55079-.1211.24609-.08202.21875-.10938.1875-.16406.15234-.22656.10938-.3086.0664-.40234"/><path fill="#fff" fill-opacity="0" fill-rule="evenodd" d="M205.77734 417.24219l5.56641 1.76172 3.0039-9.5-5.5703-1.75782-3 9.4961"/><path fill-rule="evenodd" d="M211.5625 410.54688l.48438.15234-1.89844 6.0039-.75-.23828 1.35547-4.28125-1.32422-.41796.16797-.53125.55468.10937.25391.02344.2461-.01563.23827-.07422.22657-.14843.22656-.23829.21875-.34375"/><path fill="#fff" fill-opacity="0" fill-rule="evenodd" d="M286.70313 393.23047l4.59765-3.60547-6.15234-7.83594-4.59375 3.60938 6.14844 7.83203"/><path fill-rule="evenodd" d="M284.4375 384.67578l.40234-.3125 3.88672 4.95313-.6211.48437-2.76952-3.53125-1.09375.85547-.34375-.4336.40234-.39843.16406-.19922.125-.21094.07032-.23828.0078-.27344-.0703-.3164-.16016-.3789"/><path fill="#fff" fill-opacity="0" fill-rule="evenodd" d="M200.85547 439.9336l6.86328-3.95704-5.08984-8.83203-6.86328 3.95703 5.08984 8.83203"/><path fill-rule="evenodd" d="M198.82813 431.45313l2.84765-1.64063.3711.64063-2.28516 1.3164.69922 1.67969.11719-.2539.16796-.25.23438-.23829.3164-.21875.29297-.14062.33594-.09375.36328-.03907.3789.03125.37892.11329.1875.09375.18359.11718.17969.14844.17187.17578.16016.20313.15625.24218.1875.39844.1211.41406.04296.42188-.03906.41015-.125.39844-.09375.1914-.1211.1836-.14453.17188-.16797.16406-.1953.15625-.21876.14063-.42187.20312-.39844.10938-.3711.02734-.34375-.05078-.3203-.11328-.30079-.17579-.27344-.22265-.2539-.26172.6836-.39453.18358.16015.19141.13282.19922.09375.20313.0625.20703.02344.20703-.01563.21094-.0586.21093-.09765.26172-.17969.20703-.20312.15235-.22266.09375-.25.03906-.26953-.02734-.28516-.08985-.30859-.15625-.32422-.14844-.21484-.18359-.19922-.21484-.16406-.23828-.1211-.26563-.07422-.28125-.01171-.30078.05859-.3086.13672-.27734.20312-.1875.23438-.14453.29687-.13281.39063-.60156.34765-1.3125-3.19921"/><path fill="#fff" fill-opacity="0" fill-rule="evenodd" d="M166.51953 448.32031l7.92969-9.3125-7.75781-6.60547-7.9297 9.3086 7.75782 6.60937"/><path fill-rule="evenodd" d="M162.42578 440.23438l.33203-.38672 4.78906 4.08203-.5078.59765-3.41798-2.91015-.90234 1.0586-.42188-.36329.3125-.46875.125-.22656.07813-.23047.02734-.2461-.04687-.26953-.13281-.30078-.23438-.33594m3.1211-3.66406l.16406-.16015.1836-.13282.20312-.10156.21875-.07031.23437-.04297.2461-.01563.51562.04297.53125.13282.53125.21875.51563.28906.47265.35547.42969.41406.3711.46484.30468.4961.22656.50781.1289.50781.02345.2461v.24218l-.03516.23047-.0625.21485-.10156.20312-.13281.1875-.16407.16406-.1836.12891-.20702.09766-.21875.0703-.23828.04298-.2461.01172-.52344-.04688-.53906-.14062-.53906-.22266-.51563-.29297-.47656-.35547.53906-.63672.44922.34375.4375.26563.41797.1914.39063.1211.35156.04687.30469-.01562.25-.08203.1836-.14063.10937-.20312.03906-.25781-.03125-.3047L170 439.2461l-.17969-.36718-.2539-.38282-.33203-.39062-.41016-.38672-.44531-.33984-.4336-.26172-.41406-.1875-.38281-.11328-.34766-.04297-.30078.01953-.24219.08594-.1836.14062-.10937.20313-.04687.2539.02734.30078.09766.33204.17578.36328.25.3789.32813.38672.40625.38281-.53907.63672-.42578-.41406-.36719-.46094-.30078-.48828-.21875-.50781-.1211-.5-.02343-.2461.0039-.23437.03516-.23047.06641-.21484.10156-.20313.13281-.1875"/><g clip-path="url(#d)"><path fill="none" stroke="#000" stroke-linecap="round" stroke-linejoin="round" stroke-miterlimit="10" stroke-width=".5" d="M145.92578 483.26563l-3.85156-5.875"/></g><g clip-path="url(#e)"><path fill="none" stroke="#000" stroke-linecap="round" stroke-linejoin="round" stroke-miterlimit="10" stroke-width=".5" d="M159.21875 483.28125l-3.80469-5.90625"/></g><g clip-path="url(#f)"><path fill="none" stroke="#000" stroke-linecap="round" stroke-linejoin="round" stroke-miterlimit="10" stroke-width=".5" d="M172.41016 483.35938l-3.5625-6.0586"/></g><g clip-path="url(#g)"><path fill="none" stroke="#000" stroke-linecap="round" stroke-linejoin="round" stroke-miterlimit="10" stroke-width=".5" d="M185.96484 483.20313l-4.04297-5.75"/></g><g clip-path="url(#h)"><path fill="none" stroke="#000" stroke-linecap="round" stroke-linejoin="round" stroke-miterlimit="10" stroke-width=".5" d="M199.14453 483.29297l-3.76953-5.92969"/></g><g clip-path="url(#i)"><path fill="none" stroke="#000" stroke-linecap="round" stroke-linejoin="round" stroke-miterlimit="10" stroke-width=".5" d="M211.90625 483.57813l-2.66406-6.5"/></g><g clip-path="url(#j)"><path fill="none" stroke="#000" stroke-linecap="round" stroke-linejoin="round" stroke-miterlimit="10" stroke-width=".5" d="M226.30469 482.8789l-4.82813-5.10156"/></g><g clip-path="url(#k)"><path fill="none" stroke="#000" stroke-linecap="round" stroke-linejoin="round" stroke-miterlimit="10" stroke-width=".5" d="M239.89063 482.59766l-5.3711-4.53516"/></g><g clip-path="url(#l)"><path fill="none" stroke="#000" stroke-linecap="round" stroke-linejoin="round" stroke-miterlimit="10" stroke-width=".5" d="M253.28516 482.4961l-5.53125-4.33204"/></g><g clip-path="url(#m)"><path fill="none" stroke="#000" stroke-linecap="round" stroke-linejoin="round" stroke-miterlimit="10" stroke-width=".5" d="M266.75781 482.27734l-5.84375-3.89843"/></g><g clip-path="url(#n)"><path fill="none" stroke="#000" stroke-linecap="round" stroke-linejoin="round" stroke-miterlimit="10" stroke-width=".5" d="M279.96094 482.4375l-5.6211-4.21875"/></g><g clip-path="url(#o)"><path fill="none" stroke="#000" stroke-linecap="round" stroke-linejoin="round" stroke-miterlimit="10" stroke-width=".5" d="M293.30078 482.40625l-5.66797-4.15234"/></g><g clip-path="url(#p)"><path fill="none" stroke="#000" stroke-linecap="round" stroke-linejoin="round" stroke-miterlimit="10" stroke-width=".5" d="M307.08594 481.51953l-6.60938-2.38281"/></g><g clip-path="url(#q)"><path fill="none" stroke="#000" stroke-linecap="round" stroke-linejoin="round" stroke-miterlimit="10" stroke-width=".5" d="M306.125 481.17578l.17188 1.21094"/></g><g clip-path="url(#r)"><path fill="none" stroke="#000" stroke-linecap="round" stroke-linejoin="round" stroke-miterlimit="10" stroke-width=".5" d="M320.39063 481.55078l-6.58985-2.4414"/></g><g clip-path="url(#s)"><path fill="none" stroke="#000" stroke-linecap="round" stroke-linejoin="round" stroke-miterlimit="10" stroke-width=".5" d="M319.4336 481.19531l.16015 1.21485"/></g><g clip-path="url(#t)"><path fill="none" stroke="#000" stroke-linecap="round" stroke-linejoin="round" stroke-miterlimit="10" stroke-width=".5" d="M333.3789 482.21094l-5.93359-3.76563"/></g><g clip-path="url(#u)"><path fill="none" stroke="#000" stroke-linecap="round" stroke-linejoin="round" stroke-miterlimit="10" stroke-width=".5" d="M347.04688 479.17969l-6.64063 2.29687"/></g><g clip-path="url(#v)"><path fill="none" stroke="#000" stroke-linecap="round" stroke-linejoin="round" stroke-miterlimit="10" stroke-width=".5" d="M358.21484 477.01563l-2.34765 6.625"/></g><path fill="none" stroke="#000" stroke-linecap="round" stroke-linejoin="round" stroke-miterlimit="10" stroke-width=".5" d="M357.875 477.98047l1.21094-.17969"/><g clip-path="url(#w)"><path fill="none" stroke="#000" stroke-linecap="round" stroke-linejoin="round" stroke-miterlimit="10" stroke-width=".5" d="M369.98047 476.83594l.7539 6.98437"/></g><path fill="none" stroke="#000" stroke-linecap="round" stroke-linejoin="round" stroke-miterlimit="10" stroke-width=".5" d="M370.08984 477.85156l1.01563-.6875"/><g clip-path="url(#x)"><path fill="none" stroke="#000" stroke-linecap="round" stroke-linejoin="round" stroke-miterlimit="10" stroke-width=".5" d="M382.01953 477.22656l3.30469 6.20313"/></g><path fill="none" stroke="#000" stroke-linecap="round" stroke-linejoin="round" stroke-miterlimit="10" stroke-width=".5" d="M382.01953 477.22656l1.3711-2.03515"/><g clip-path="url(#y)"><path fill="none" stroke="#000" stroke-linecap="round" stroke-linejoin="round" stroke-miterlimit="10" stroke-width=".5" d="M394.23047 478.14844l5.51172 4.35937"/></g><path fill="none" stroke="#000" stroke-linecap="round" stroke-linejoin="round" stroke-miterlimit="10" stroke-width=".5" d="M394.23047 478.14844l.4414-2.41406"/><g clip-path="url(#z)"><path fill="none" stroke="#000" stroke-linecap="round" stroke-linejoin="round" stroke-miterlimit="10" stroke-width=".5" d="M407.08594 478.91797l6.4336 2.82422"/></g><path fill="none" stroke="#000" stroke-linecap="round" stroke-linejoin="round" stroke-miterlimit="10" stroke-width=".5" d="M407.08594 478.91797l-.1875-2.44922"/><g clip-path="url(#A)"><path fill="none" stroke="#000" stroke-linecap="round" stroke-linejoin="round" stroke-miterlimit="10" stroke-width=".5" d="M420.15234 479.74219l6.9297 1.17578"/></g><path fill="none" stroke="#000" stroke-linecap="round" stroke-linejoin="round" stroke-miterlimit="10" stroke-width=".5" d="M420.15234 479.74219l-.77343-2.32813"/><g clip-path="url(#B)"><path fill="none" stroke="#000" stroke-linecap="round" stroke-linejoin="round" stroke-miterlimit="10" stroke-width=".5" d="M433.4336 480.66406l6.99609-.67187"/></g><g clip-path="url(#C)"><path fill="none" stroke="#000" stroke-linecap="round" stroke-linejoin="round" stroke-miterlimit="10" stroke-width=".5" d="M433.4336 480.66406l-1.35548-2.04687"/></g><g clip-path="url(#D)"><path fill="none" stroke="#000" stroke-linecap="round" stroke-linejoin="round" stroke-miterlimit="10" stroke-width=".5" d="M446.82813 481.13672l6.83984-1.61328"/></g><g clip-path="url(#E)"><path fill="none" stroke="#000" stroke-linecap="round" stroke-linejoin="round" stroke-miterlimit="10" stroke-width=".5" d="M447.82031 480.90234l-.8086-.92578"/></g><g clip-path="url(#F)"><path fill="none" stroke="#000" stroke-linecap="round" stroke-linejoin="round" stroke-miterlimit="10" stroke-width=".5" d="M460.1289 481.07813l6.86329-1.5"/></g><g clip-path="url(#G)"><path fill="none" stroke="#000" stroke-linecap="round" stroke-linejoin="round" stroke-miterlimit="10" stroke-width=".5" d="M461.1289 480.85938l-.79687-.9336"/></g><g clip-path="url(#H)"><path fill="none" stroke="#000" stroke-linecap="round" stroke-linejoin="round" stroke-miterlimit="10" stroke-width=".5" d="M145.41406 470.23047l-2.82812-6.4336"/></g><g clip-path="url(#I)"><path fill="none" stroke="#000" stroke-linecap="round" stroke-linejoin="round" stroke-miterlimit="10" stroke-width=".5" d="M145.41406 470.23047l-1.51953 1.92578"/></g><path fill="none" stroke="#000" stroke-linecap="round" stroke-linejoin="round" stroke-miterlimit="10" stroke-width=".5" d="M158.4336 470.34375l-2.23438-6.66016m2.23437 6.66016l-1.6875 1.78125m15.29297-1.89453l-2.82031-6.4336m2.82031 6.4336l-1.51953 1.92578m14.86719-1.9375l-2.88281-6.41016m2.8828 6.41016l-1.5039 1.9375m14.90625-1.97656l-3.05469-6.33203m3.0547 6.33203l-1.45313 1.97656m14.48047-1.85547l-2.48438-6.57422m2.125 5.61719l-.8125.92188m15.41016-.48438l-4.32813-5.53516m3.69922 4.73047l-.5 1.1211m15.34766-1.3711l-6.13672-3.42578m5.2461 2.92578l-.02735 1.22657m14.4375-1.16016l-6.54297-2.5586m5.58984 2.1875l.14063 1.21876m13.73437-.11329L260.95704 465m4.91796 3.4414l-.14844 1.21876m14.42969-.82813l-6.01172-3.63672m5.13672 3.10938l-.0664 1.22265m14.375-.91015l-6.25-3.20703m5.34374 2.74218l.01563 1.22657m14.5664-1.91407l-6.96875-.90234m5.95313.76953l.4336 1.14844m13.8164-2.33203l-6.8086 1.73047m5.82032-1.48047l.82422.91015m13.3086-1.66796l-6.46876 2.74609m5.52734-2.34766l.95313.77344m10.8789-3.21875l-1.62109 6.83984m1.38672-5.84375l1.1875-.3125m10.72266-.67578l1.66015 6.82422m-1.41797-5.83203l.91407-.8164m11.64453-.00782l2.6914 6.48828m-2.6914-6.48828l1.5586-1.89453m10.58593 2.6875l5.03125 4.90234m-5.03125-4.90234l.6875-2.35547m12.35156 2.67578l5.58203 4.26172m-5.58203-4.26172l.39844-2.42187m.41406 3.03906l.19922-1.20703m11.69922 1.8125l6.78906 1.8164m-6.78906-1.8164l-.55078-2.39063m13.77344 2.86329l6.97265.87109m-6.97265-.8711l-.875-2.29296m14.22656 2.0703l6.90234 1.31642m-6.90234-1.31641l-.72266-2.34766m13.9961 2.625l6.98437.76172m-6.98437-.76172l-.91016-2.27734m14.23828 3.13672l6.96094-.95703m-6.96094.95703l-1.4375-1.99219"/><g clip-path="url(#J)"><path fill="none" stroke="#000" stroke-linecap="round" stroke-linejoin="round" stroke-miterlimit="10" stroke-width=".5" d="M144.00781 457.21094l-.01562-7.02735"/></g><g clip-path="url(#K)"><path fill="none" stroke="#000" stroke-linecap="round" stroke-linejoin="round" stroke-miterlimit="10" stroke-width=".5" d="M144.00781 456.1914l-1.08203.57813"/></g><path fill="none" stroke="#000" stroke-linecap="round" stroke-linejoin="round" stroke-miterlimit="10" stroke-width=".5" d="M157.85547 457.17188l-1.08203-6.94532m1.08203 6.94531l-1.96094 1.46875m14.67188-1.42968l.1289-7.02344m-.1289 7.02344l-2.1875 1.11328m15.43359-1.11328l.26563-7.02344m-.22657 6l-1.10156.53516m14.0586.46093l.90234-6.96875m-.76953 5.95313l-1.14844.4336m13.7461.45312l2.07421-6.71485m-1.77344 5.73828l-1.20312.23047m14.07422.69922l2.35937-6.61719m-2.01562 5.65625l-1.21485.17579m18.54297-1.02735l-6.35547-2.99219m19.75 2.8086l-6.51562-2.6289m5.57031 2.24609l.1289 1.22265m13.07813.58203l-4.40625-5.47265m13.58203 5.67187l3.8711-5.86719m14.23828 4.97266l-5.71875-4.08203m19.48437 3.22266l-6.61718-2.35938m19.33203-1.0586l-5.41797 4.47266m17.69922-5.32422l-3.35157 6.17579m2.86329-5.27735l1.22656.01172m10.05078-1.23047l1.69922 6.82032m-1.44922-5.82813l.91016-.82031m10.13671 1.21094l5.73829 4.05468m-4.90235-3.46484l.15235-1.21875m12.99218-.08203l4.40625 5.47656m-4.40625-5.47656l.96875-2.2539m-.32422 3.05077l.48047-1.1289m12.27735.26562l4.23437 5.60938m-4.23437-5.60938l1.03515-2.22656m-.41797 3.04297l.51563-1.11328m11.5.97656l5.59766 4.2461m-5.59766-4.2461l.39062-2.42188M395 452.19141l.39453-2.42188m11.8086 2.27344l6.1953 3.3125m-6.1953-3.3125l.0039-2.45313m13.0664 3.03125l6.6875 2.15235m-6.6875-2.15235l-.43359-2.41406m13.71485 2.51563l6.7539 1.94922m-6.7539-1.94922l-.5039-2.39844m1.48827 2.6836l-.2539-1.19923m12.59765.8711l6.72656 2.03906m-6.72656-2.03906l-.47265-2.40625m13.64062 3.2539l7.01953.33985m-7.01953-.33985l-1.04297-2.21875"/><g clip-path="url(#L)"><path fill="none" stroke="#000" stroke-linecap="round" stroke-linejoin="round" stroke-miterlimit="10" stroke-width=".5" d="M147.51172 440.26953l-7.02344.22656"/></g><path fill="none" stroke="#000" stroke-linecap="round" stroke-linejoin="round" stroke-miterlimit="10" stroke-width=".5" d="M157.05078 443.88672l.52734-7.00781m-.52734 7.0078l-2.2461.98438m16.15235-.98828l-.65625-6.9961m.65625 6.9961l-2.04687 1.34766m15.23047-1.33985L183.75 436.875m.39063 7.01563l-2.09766 1.27343m15.58984-1.28515l-.7461-6.98828m.63673 5.96875l-1.01563.6875m15.08985-3.16407l-.01953-.19922-.0586-.1914-.09375-.17578-.46094-.37891-.1914-.0586-.19922-.01953-.19922.01954-.1914.05859-.45704.3789-.09765.17579-.0547.1914-.01952.19922.01953.19922.05469.1914.09765.1797.45703.375.19141.05859.19922.01953.19922-.01953.1914-.0586.46094-.375.09375-.17968.0586-.1914.01953-.19923m13.45312 3.3164l-2.32031-6.6328m15.10937 6.77343l-1.26953-6.91015m1.08594 5.90234l-.96094.76563m15.96485-.4297l-4.28125-5.5703m3.66015 4.76172l-.50781 1.11718m8.79297-3.04687l7.02344-.08985m-6.00391.07422l-.58984-1.07422m13.09765-.16406l6.59766 2.41797m-5.63672-2.0664l-.16797-1.21485m12.53906.8125l6.5625 2.51563m-5.60546-2.14844l-.15235-1.21875m13.76172-.75781l4.0625 5.73437m-3.47266-4.89844l.55079-1.09765m13.27734 6.51953l1.85937-6.77735m8.89844 3.84375l6.96875-.91406m-5.95312.78125l-.71094-1m13.16016-.42187l6.67187 2.19922m-5.70312-1.87891l-.20704-1.21094m13.03516-.0625l5.70703 4.10156m-5.70703-4.10156l.32813-2.42969m13.38671 1.96485l4.90625 5.03125m-4.90625-5.03125l.75-2.33594m12.82032 2.10938l4.39453 5.48437m-4.39453-5.48437l.96875-2.25391m12.34375 2.25781l4.40234 5.48047m-4.40234-5.48047l.96875-2.2539m-.32813 3.05078l.48438-1.12891m12.12109.39063l4.53906 5.36328m-4.53906-5.36328l.91016-2.28125m11.48047 3.5l6.39062 2.92578m-6.39062-2.92578l-.14454-2.44922m1.07422 2.875l-.07422-1.22657m12.26563 1.32813l6.77734 1.86719m-6.77734-1.8672l-.53516-2.39452m1.52344 2.66797l-.26953-1.19922m12.73437.52344l6.5 2.67187m-6.5-2.67187l-.24218-2.44141m13.375 3.02734l6.86328 1.5039m-6.86328-1.5039l-.66016-2.36328m1.66016 2.58203l-.33203-1.1836"/><g clip-path="url(#M)"><path fill="none" stroke="#000" stroke-linecap="round" stroke-linejoin="round" stroke-miterlimit="10" stroke-width=".5" d="M145.72656 424.00781l-3.45312 6.1211"/></g><path fill="none" stroke="#000" stroke-linecap="round" stroke-linejoin="round" stroke-miterlimit="10" stroke-width=".5" d="M145.22266 424.89844l1.22656.03125m9.92578 5.52344l1.88281-6.76954m10.53516 6.37891l3.67578-5.98828m-3.14063 5.11719l-1.22656-.07422m14.57813 1.23047l2.53125-6.5586m-2.16406 5.60156l-1.21875.14844m15.05859 1.02344l.7461-6.98828m-.7461 6.98828l-2.27344.91406m17.08203-1.07812l-2.23828-6.66016m1.91406 5.6914l-.84375.89063m13.27344.26172l.17969-7.02734m-.15234 6.0039l-1.09766.54688m11.02344-2.375l6.90234-1.32422m6.35547.8164l7.01953-.30859m-6 .26172l-.6211-1.05469m12.96485 1.5586l6.92188-1.22266m-5.91407 1.04688l-.75781-.96875m13.52734-1.29688l5.9961 3.66016m-5.125-3.1289l.07422-1.22266m12.37109.6875l5.99219 3.66796m-5.1211-3.13671l.07813-1.22266m13.97265-.69922l2.78125 6.44922m-2.3789-5.51172l.76953-.95703m10.53125 1.42187l6.00781 3.64454m8.55469-4.8672l3.51172 6.08985m-3-5.20312l.64844-1.03907m11.10937 1.07813l5.60156 4.23828m-4.78906-3.6211l.19531-1.21484m13.32422-.3125l3.5664 6.0586m-3.5664-6.0586l1.28516-2.08984m11.90625 2.16797l3.8125 5.90234m-3.8125-5.90234l1.19531-2.14453m11.30078 2.8789l5.45313 4.4336m-5.45313-4.4336l.47266-2.40625m13.1875 2.03907l4.76172 5.16796m-4.76172-5.16796l.8086-2.3125m-.1172 3.0664l.40625-1.16015m11.53907 1.26171l6.11718 3.45704m-6.11718-3.45704l.0664-2.45312m13.53516 2.02344l5.54297 4.3164m-5.54297-4.3164l.42578-2.41797m13.13672 2.13281l5.04687 4.88672m-5.04687-4.88672l.6836-2.35937m12.85937 2.14453l4.59375 5.3164m-4.59375-5.3164l.89062-2.28907m12.25 2.44922l4.94141 4.9961m-4.9414-4.9961l.73046-2.34375"/><g clip-path="url(#N)"><path fill="none" stroke="#000" stroke-linecap="round" stroke-linejoin="round" stroke-miterlimit="10" stroke-width=".5" d="M147.27734 412.48828l-6.55468 2.53125"/></g><path fill="none" stroke="#000" stroke-linecap="round" stroke-linejoin="round" stroke-miterlimit="10" stroke-width=".5" d="M146.32422 412.85547l.92578.80469m13.08984-1.69532l-6.04687 3.57813m5.16406-3.0586l1.05078.63672m13.28125-.90234l-6.32031 3.07031m5.40234-2.625l.9922.72266m9.4375 3.82031l1.28905-6.90625m-1.10156 5.90234l-1.17187.3672m15.82422.58593l-1.76172-6.80469m1.5078 5.8125l-.90624.83203m12.39844.0586l2.39453-6.60547m-2.39453 6.60547l-2.4297.34765m14.6172-1.01172l4.64843-5.27343m-3.97265 4.5039l-1.1914-.28125m13.27733.42578l5.75782-4.02734m-5.75781 4.02735l-2.1875-1.11329m14.88671-.5039l6.98438-.78907m-5.96484.67188l-.69532-1.01172m13.47266 2.54688l6.02344-3.625m-5.14454 3.09765l-1.05468-.63281m12.98828-.59766l7.02734-.11328m-6.0039.09766l-.59375-1.07422m13.5-.95313l5.79687 3.97657m-4.95312-3.39844l.13671-1.21875m13.07422-.14453l4.32032 5.54297m-3.69141-4.73438l.5-1.1211m12.16797.32813l4.35547 5.51172m-3.72266-4.70703l.49219-1.125M327.36719 412l6.08593 3.50781m-5.19921-3l.03906-1.22656m13.32031-.33594l4.22656 5.61328m-4.22656-5.61328l1.03516-2.22265m12.39843 2.13671l3.98829 5.78907m-3.98829-5.78907l1.13282-2.17578m12.33593 2.07813l3.6797 5.98437m-3.6797-5.98437l1.2422-2.11719m11.48827 2.5664l4.84766 5.08594m-4.84766-5.08593l.77735-2.32813m-.07032 3.0664l.38672-1.16405m11.6211 1.17968l6.05078 3.57813m-6.05078-3.57813l.11328-2.44922m.76953 2.96875l.05469-1.22656m13.09765-.15625l4.60938 5.30469m-4.60938-5.30469l.88282-2.29297m12.39453 2.32422l4.6836 5.23828m-4.6836-5.23828l.84765-2.30078m-.16406 3.0625l.42188-1.14844m12.3789.2461l4.34766 5.52343m-4.34766-5.52343l.99219-2.2461m-.35938 3.05078l.4961-1.125m12.35547.19532l4.00781 5.77343m-4.00781-5.77343l1.125-2.1836m-.53907 3.02344l.5586-1.08984m11.58594.76172l5.17968 4.75m-5.17968-4.75l.61328-2.375m.14062 3.0664l.30469-1.1875"/><g clip-path="url(#O)"><path fill="none" stroke="#000" stroke-linecap="round" stroke-linejoin="round" stroke-miterlimit="10" stroke-width=".5" d="M147.51172 400.39453l-7.02344.08985"/></g><path fill="none" stroke="#000" stroke-linecap="round" stroke-linejoin="round" stroke-miterlimit="10" stroke-width=".5" d="M147.51172 400.39453l1.17969 2.14844m11.84375-3.50781l-6.44141 2.80859m6.4414-2.8086l1.92188 1.52344m11.6836.03125l-7.01954-.30468m7.01953.30468l1.0547 2.21485m12.2539-2.1211l-7.00781-.49218m5.98828.42187l.5 1.1211m9.71875 2.16406l1.22265-6.92188m-1.04297 5.91406l-1.16796.37891m12.72265-.08594l4.38281-5.49218m-4.3828 5.49218l-2.41016-.44921m15.14453-.13672l5.54687-4.31641m-5.54687 4.3164l-2.23828-1.0039m3.04687.375l-1.1211-.5m13.48438.92969l5.83203-3.91797m-5.83203 3.91797l-2.16406-1.16016m15.42188 1.07031l5.9453-3.74218m-5.9453 3.74218l-2.12891-1.21875m15.04687.34375l6.7422-1.99218m-6.7422 1.99218l-1.71875-1.75m14.9961 1.60157l6.82031-1.69141m-6.82031 1.6914l-1.64063-1.82812m14.86719 1.33985l6.99219-.71875m-6.99219.71875l-1.36719-2.03516m14.9375.32031l6.48438 2.71094m-6.48438-2.71094l-.22656-2.4414m13.4961 2.5625l6.57421 2.47265m-6.57422-2.47265l-.3164-2.4336m13.59765 2.52344l6.64453 2.28906m-5.67968-1.95703l-.1914-1.21094m12.60155.71094l6.51953 2.625m-6.51953-2.625l-.2578-2.4375m13.86718 1.86719l5.9336 3.76953m-5.9336-3.76953l.1914-2.44531m13.27344 2.23046l5.63672 4.19532m-5.63672-4.19532l.36719-2.42578m14.0586 1.45313l3.41015 6.14453m-2.91406-5.25l.66797-1.03125m11.97265.24219l3.76953 5.92968m-3.76953-5.92968l1.20703-2.13282m12.48828 1.92188l3.00782 6.35156m-3.00782-6.35156l1.46875-1.96875m11.67188 2.0586l3.35937 6.17187m-3.35937-6.17188l1.34766-2.04687m13.11328 1.66015l1.0664 6.94532m-1.0664-6.94532l1.96484-1.46875m10.84766 1.58594l2.07031 6.71485m-2.07031-6.71485l1.73437-1.73828m-1.4336 2.71484l.8672-.87109m11.71484.0586l2.9375 6.3828m-2.9375-6.3828l1.48437-1.95313m-1.05859 2.88281l.7461-.97656"/><g clip-path="url(#P)"><path fill="none" stroke="#000" stroke-linecap="round" stroke-linejoin="round" stroke-miterlimit="10" stroke-width=".5" d="M141.11719 389.1289l5.76562-4.01171"/></g><path fill="none" stroke="#000" stroke-linecap="round" stroke-linejoin="round" stroke-miterlimit="10" stroke-width=".5" d="M160.8086 386.75781l-6.98829.73047m5.97266-.625l.6836 1.01953m13.35155.69531l-6.39453-2.91015m6.39453 2.91015l.15235 2.44922m12.99219-2.12109l-6.0547-3.5664m5.17188 3.04687l-.05078 1.22656m12.8711.61328l-3.30078-6.20703m2.8203 5.30469l-.68359 1.01562m15.19922-.625l-4.74219-5.18359m4.0547 4.42969l-.41016 1.15625m11.92187.51562l.24219-7.01953m-.20703 6l-1.10156.53906m11.91015-.66015l5.1875-4.73828m-4.4336 4.05078l-1.15624-.41406m13.36719.65234l5.88671-3.83985m-5.88672 3.83985l-2.14843-1.1836m15.21875.7422l6.375-2.95704m-6.375 2.95703l-1.95703-1.48047m2.8828 1.05079l-.97655-.7422m13.07812.19923l6.95313-1.01172m-6.95313 1.01172l-1.45312-1.97657m14.83984 2.33594l6.8086-1.73047m-6.8086 1.73047l-1.65234-1.8164m2.64062 1.5664l-.82422-.91015m13.04297.1289l7.01953.33594m-7.01953-.33594l-1.04687-2.21875m14.89453.52344l5.95703 3.72265m-5.08984-3.17968l.08593-1.22656m11.82813 2.64062l7.02344-.1875m-7.02344.1875l-1.21094-2.13672m14.52734 1.88672l7.01954.3086m-7.01954-.3086l-1.05468-2.21484m14.46093 1.5625l6.83985 1.61328m-6.83985-1.61328L353 383.9414m14.91406.65625l4.88672 5.05078m-4.17578-4.3164l.375-1.16407m13.20703-.23828l2.92578 6.38672m-2.92578-6.38672l1.49219-1.94922m11.2461 2.28125l4.08202 5.72265m-4.08203-5.72265l1.09766-2.19531m12.92969 1.80468l2.65625 6.50391m-2.65625-6.5039l1.5703-1.88673m13.35938 1.63672l-.5703 7.00391m.48437-5.98438l1.1289-.48828m15.3711 2.02735l-6.76953 1.88672m5.78515-1.61329l.84375.89063m9.57422-3.69922l.99219 6.95703m-.99219-6.95703l1.98047-1.44531m12.55078 1.48437l-1.4375 6.87891m1.4375-6.8789l2.35547-.6836"/><g clip-path="url(#Q)"><path fill="none" stroke="#000" stroke-linecap="round" stroke-linejoin="round" stroke-miterlimit="10" stroke-width=".5" d="M147.33984 372.71484l-6.67968 2.1875"/></g><path fill="none" stroke="#000" stroke-linecap="round" stroke-linejoin="round" stroke-miterlimit="10" stroke-width=".5" d="M147.33984 372.71484l1.76953 1.69922m11.57422.39063l-6.73828-1.99219m5.75781 1.70313l.2461 1.19921m8.3125.6875L173 371.21094m-4.05078 4.4375l-1.1875-.30469m14.2461 1.39453l3.875-5.86328m-3.875 5.86328l-2.44141-.23047m17.49218.8086l.40235-7.01563m-.34375 5.9961l-1.11328.51171m17.94922-2.03125l-6.75391-1.9375m5.76953 1.65235l.25781 1.20312m10.66406 1.625v-7.02734m11.4922 6.51953l3.64452-6.00781m-3.11328 5.13281l-1.22656-.07031m13.54688.60937l4.57421-5.33594m-4.57422 5.33594l-2.39453-.53515m15.20313-.00391l5.58594-4.25781m-5.58594 4.25781l-2.23047-1.02344m3.04297.40625l-1.11719-.51172m13.39453.80079l6.03516-3.60157m-6.03516 3.60156l-2.09765-1.26953m15.3164 1.09766l6.22656-3.25781m-6.22656 3.25781l-2.02344-1.38672m2.9297.91016l-1.01173-.6914m13.15235.48827l6.76562-1.89844m-6.76562 1.89844l-1.69532-1.77344m2.6797 1.4961l-.84766-.88672m13.04687.2539l7.02734-.08202m-7.02734.08203l-1.17578-2.15235m15.32031 4.3789l5.3711-4.53124m-4.58985 3.8711l-1.14062-.45704m16.85937 2.32813l-1-6.95313m11.08203 1.26953l5.46485 4.41406m-4.67188-3.77343l.23438-1.20313m14.57422-.71484l.89062 6.96875m-.76172-5.95703l1-.70703m12.8086-.32813l-.35157 7.01563m.30078-5.9961l1.10938-.51953m10.96484-.32422l2.23047 6.66406m-1.90625-5.6953l.84375-.89063m14.1836-.13672l-1.84375 6.78125m1.57812-5.79297l1.19531-.27344m12.04297-.78906l-1.15625 6.92969m.98828-5.92188l1.16016-.39062m8.86719.83203l5.7539 4.03125m-4.91797-3.44531l.14844-1.21875m12.15235.91406l6.11328 3.46875m-5.22657-2.96485l.03516-1.22656m16.07813-1l-1.26172 6.91406m1.26172-6.91406l2.33984-.74219"/><g clip-path="url(#R)"><path fill="none" stroke="#000" stroke-linecap="round" stroke-linejoin="round" stroke-miterlimit="10" stroke-width=".5" d="M146.78516 358.35156l-5.57032 4.28125"/></g><path fill="none" stroke="#000" stroke-linecap="round" stroke-linejoin="round" stroke-miterlimit="10" stroke-width=".5" d="M146.78516 358.35156l2.23437 1.01563m-3.04297-.39063l2.23047 1.01563m-3.04297-.39453l1.11719.5078m13.88281-1.66796l-5.69922 4.10938m5.69922-4.10938l2.20313 1.08594m-3.03125-.48828l2.20312 1.08593m10.52735-2.83593l-2.875 6.41406m2.875-6.41406l2.44922-.16407m5.93359 3.00391l6.99219.73438m-6.9922-.73438l-.91796-2.27344m14.73047 4.47266l5.9961-3.66016m-5.9961 3.66016l-2.11328-1.25m2.98437.71484l-1.05469-.6211m15.27735 2.6211l2.4414-6.58984m-2.4414 6.58984l-2.4336.32422m13.85547-5.2539L227 362.125m7.41797.5039l5.57422-4.27343m-4.76563 3.65234l-1.11328-.50781m14.32813 1.82422l4.16015-5.66406M249.04687 362.5l-1.21484-.17578m18.28516.83984l-4.5625-5.34375m3.89844 4.5664l-.44922 1.14063m14.91797-.87109l-5.53907-4.32422m5.53906 4.32422l-.42578 2.41406m12.4336-1.38281L289 357.30078m2.92969 6.38672l-1.48828 1.94922m16.3164-3.27735l-5.95312-3.73437m5.08593 3.1914l-.08593 1.22266m14.14453-.49219l-5.70703-4.10546m4.875 3.5078l-.16407 1.21485m14.9375-3.17187l-6.95703 1m16.10938-3.94531l1.36719 6.89453m10.92968-6.52344l3.40235 6.14844m-2.90625-5.25391l.66797-1.02734m10.48828 2.1953l6.72656 2.02735m-5.7461-1.73437l-.24218-1.20313m12.70703 3.30078l6.46484-2.7578m-5.52343 2.35546l-.95313-.76953m13.66406-2.19531l5.79297 3.98046m-4.94922-3.40234l.13672-1.21875m14.9961-.875L410.53516 364m-.39844-5.99219l1.04297-.64844m11.19531-.15234l2.48047 6.57422m-2.11719-5.61719l.8086-.92187m12.07421-.00781l2.6211 6.51953M436 358.18359l.79297-.9414m10.3789 1.55078l6.14844 3.40234m-6.14844-3.40234l.03907-2.45313m12.83984 4.25391l7.02344-.20313m-6.0039.17579l-.60548-1.06641"/><g clip-path="url(#S)"><path fill="none" stroke="#000" stroke-linecap="round" stroke-linejoin="round" stroke-miterlimit="10" stroke-width=".5" d="M146.10938 344.36719l-4.21875 5.6211"/></g><path fill="none" stroke="#000" stroke-linecap="round" stroke-linejoin="round" stroke-miterlimit="10" stroke-width=".5" d="M146.10938 344.36719l2.42187.3789m-3.03516.4375l2.42188.37891m11.72656-1.01563l-4.66016 5.26172m4.66016-5.26171l2.38672.57421m-3.0664.19141l2.38671.57422m11.75-1.20703l-4.9414 4.9961m4.9414-4.9961l2.35156.70703m-3.0703.01953l2.35155.70703M186 344.32813l-4.10938 5.69921M186 344.32813l2.42969.32812m-3.02735.5l2.4297.33203m6.01562 2.52344l6.82422-1.66797m-5.83204 1.42578l-.8164-.91406m15.03515 3.49219l3.03125-6.33985m-3.03125 6.33985l-2.44922.10546m2.89063-1.02734l-1.22656.05078m13.00781.05469l5.21875-4.70703m-5.21875 4.70703l-2.3086-.83984m14.91016-.375l6.64844-2.27735m-5.6836 1.94531l-.89452-.83593m15.78125 3.45312l1.57421-6.84765m-1.57422 6.84765l-2.37109.63672m18.5-1.1914l-4.0586-5.73829m4.0586 5.73829l-1.10156 2.1914m14.85547-2.5586l-4.9336-5.0039m4.9336 5.0039l-.73438 2.34376m14.6211-3.07813l-6.07422-3.53125m6.07422 3.53125l-.09375 2.44922m-.78907-2.96484l-.04687 1.22656m14.69922-2.11328l-6.98828-.73047m6.98828.73047l.92187 2.27734m12.41016-2.48437l-7.01953-.3164m6 .26952l.52344 1.10938m12.875 1.17187l-5.14454-4.78515m4.39454 4.08984l-.31641 1.1836m11.60156-6.38673l.41406 7.01563m9.79688-4.6836l6.6211 2.34766m-5.66016-2.0039l-.1797-1.21485m12.65626.5664l6.375 2.95704m-6.375-2.95703l-.13281-2.44922m13.30859 5.0586L387 346.04686m-6.65625 2.26172l-1.78516-1.67968m14.94141.97656l6.97266-.85547m-6.97266.85547l-1.41016-2.00781m15.54688-.71094l5.32812 4.58203m-4.55078-3.91406l.26953-1.19922m13.1172-.1836l3.6328 6.01172m-3.6328-6.01171l1.2578-2.10547m10.89844 3.24218l5.94922 3.73829m-5.94922-3.73829l.17578-2.4453m13.6211 1.83593l4.98437 4.95703m-4.98437-4.95703l.71093-2.34766m11.63672 4.21094l6.91797 1.23047m-6.91797-1.23047l-.7539-2.33594"/><g clip-path="url(#T)"><path fill="none" stroke="#000" stroke-linecap="round" stroke-linejoin="round" stroke-miterlimit="10" stroke-width=".5" d="M145.17578 330.55078l-2.35156 6.6211"/></g><path fill="none" stroke="#000" stroke-linecap="round" stroke-linejoin="round" stroke-miterlimit="10" stroke-width=".5" d="M145.17578 330.55078l2.42969-.35937m-2.76953 1.32421l1.21094-.17968m13.32812-.3164l-4.1211 5.6875m4.1211-5.6875l2.4336.33593m-3.03126.49219l1.21485.16796m12.44531-1.16406l-3.61328 6.02344m3.61328-6.02344l2.44922.125m11.15234.0664l-4.1875 5.64063m4.1875-5.64062l2.42578.36328m11.875.76172l-6.15625 3.38672m6.15625-3.38672l2.05078 1.34375m-2.94921-.84766l2.05468 1.33985m8.56641 3.33593l1.02344-6.95312m-1.02344 6.95312l-2.3086.82422m13.0547-2.61328l6.16406-3.375m-6.16407 3.375l-2.05078-1.34375m2.94922.85156l-1.02734-.67187m13.07812.15234l6.89453-1.35156m-6.89453 1.35156l-1.54687-1.90625m2.55078 1.70703l-.77344-.95312m13.03906.11719l6.98828.71875m-6.98828-.71875l-.92578-2.27344m1.9414 2.375l-.46093-1.13672m13.29688 3.29297l5.91406-3.79688m-5.91406 3.79688l-2.14063-1.19922m16.875 2.46094l3.07422-6.32031m-3.07422 6.3203l-2.45312.08594m17.08203.26172l.44922-7.01562m-.44922 7.01562l-2.23438 1.00782m18.78125-2.70313l-6.01562-3.6289m5.14062 3.10156l-.0664 1.22656m10.52343-5.94922l1.45313 6.875m9.63281-5.34375l5.90625 3.8086m-5.04687-3.25391l.10547-1.22266m12.08203 1.17188l6.4453 2.80469m-5.5078-2.39844l-.09375-1.22266m12.26953 1.42188l6.84765 1.59375m-6.84765-1.59375l-.6289-2.3711m13.92187 2.48438l6.89453 1.36719m-6.89453-1.3672l-.71094-2.34765m1.71484 2.54688l-.35547-1.17579m12.60547 1.48047l7.01563.35938m-7.01563-.35938l-1.03906-2.22265m2.0586 2.27344l-.51954-1.10938m12.89844 2.01953l6.84766-1.5625m-6.84766 1.5625l-1.60547-1.85547m2.60156 1.6289l-.80468-.92968m13.03515.42578l7.02735-.10156m-7.02735.10156l-1.1836-2.15234m14.62892 1.14453l6.76171 1.91016m-6.76171-1.91016l-.51954-2.39453m1.50391 2.67578l-.25781-1.19922m12.69922.59766l6.54297 2.55469m-6.54297-2.5547l-.28516-2.4375m1.23438 2.8086l-.14063-1.21875m12.32031 2.73828l6.91797-1.23047m-6.91797 1.23047l-1.51562-1.92969m14.77344 1.26172l7.02734.10938m-7.02734-.10938l-1.1172-2.18359m2.14063 2.19922l-.5586-1.08985"/><g clip-path="url(#U)"><path fill="none" stroke="#000" stroke-linecap="round" stroke-linejoin="round" stroke-miterlimit="10" stroke-width=".5" d="M143.38672 317.08984l1.22656 6.91797"/></g><g clip-path="url(#V)"><path fill="none" stroke="#000" stroke-linecap="round" stroke-linejoin="round" stroke-miterlimit="10" stroke-width=".5" d="M143.38672 317.08984l1.9336-1.51562"/></g><g clip-path="url(#W)"><path fill="none" stroke="#000" stroke-linecap="round" stroke-linejoin="round" stroke-miterlimit="10" stroke-width=".5" d="M143.5664 318.09375l.96485-.7539"/></g><path fill="none" stroke="#000" stroke-linecap="round" stroke-linejoin="round" stroke-miterlimit="10" stroke-width=".5" d="M156.94922 317.05469l.73047 6.98828m-.73047-6.98828l2.03516-1.3711m11.95703 1.36329l-.6211 7m.53125-5.98047l1.1289-.47657m11.08985-.4453l1.75 6.80468m-1.4961-5.8125l.90626-.82813m15.01562.33985l-3.97265 5.79687m3.39453-4.95312l1.21875.13672m13.98828.70703l-6.59766 2.42187m5.63672-2.0664l.91406.8164m13.44141-.92578l-6.75781 1.92969m6.75781-1.92969l1.70313 1.76563m11.48437-2.125l-6.5039 2.65234m6.5039-2.65234l1.88672 1.5703m10.73438-2.65624l-5.11329 4.82031m5.11328-4.82031l2.32422.78906m4.94922 2.08985l6.96485-.9336m-6.96485.9336l-1.42578-1.9961m15.13281 3.19531l6.1875-3.33203m-6.1875 3.33203l-2.04296-1.36328m2.9414.8789l-1.01953-.68358M287.94922 323l5.03125-4.90625M287.94922 323l-2.33594-.7461m3.07031.03516l-1.16797-.375m13.95313 1.27735l4.625-5.28907m-4.625 5.28907l-2.39063-.5586m16.19141.91797l3.65235-6.0039m-3.1211 5.1289l-1.22265-.07031m12.34375-2.46094l6.98046.8086m-6.98046-.8086l-.89844-2.28515m14.29687 1.82812l6.8125 1.72266m-6.8125-1.72266l-.58594-2.38672m13.90625 2.35938l6.80079 1.77343m-6.80079-1.77343l-.5664-2.38672m1.55469 2.64453l-.28125-1.1914m12.58593 1.03515l6.84766 1.57422m-6.84766-1.57422l-.64062-2.3711m1.63672 2.60157l-.32031-1.1875m16.0625-1.76953v7.02734m0-6.0039l1.08203-.57813m8.7539 3.57031l6.95703-1.0039m-6.95703 1.0039l-1.44922-1.98047m14.8672 2.46094l6.75-1.96484m-6.75 1.96484l-1.71095-1.76172m2.69532 1.47266l-.85547-.8789m15.71094-3.22267l1.70312 6.81641m-1.70313-6.8164l1.82032-1.64454m11.70703 1.59766l1.27734 6.91016m-1.27734-6.91016l1.92187-1.52734m14.1172 2.15234l-4.16798 5.65625m11.88672-2.90625l7.02344.15625m-6.0039-.13281l-.55079-1.09766"/><path fill="#00f" fill-rule="evenodd" d="M228.45703 467.64844h8.6211V457.5039h-8.6211v10.14453"/><path fill="azure" fill-rule="evenodd" d="M230.28906 459.33594h.83594v2.82422h3.28516v-2.82422h.83203v6.48047h-.83203v-2.91797H231.125v2.91797h-.83594v-6.48047"/><path fill="#ff3030" fill-rule="evenodd" d="M366.74219 463.21094h7.6914V453.0625h-7.6914v10.14844"/><path fill="azure" fill-rule="evenodd" d="M368.57422 454.89844h.83203v5.73828h3.19531v.74219h-4.02734v-6.48047"/><path fill="#ff3030" fill-rule="evenodd" d="M335.67188 436.57813h7.6953v-10.14454h-7.6953v10.14454"/><path fill="azure" fill-rule="evenodd" d="M337.5039 428.26563h.83594v5.74218h3.19141v.73828h-4.02734v-6.48046"/><path fill="#00f" fill-rule="evenodd" d="M414.86719 432.14063h8.6211v-10.14454h-8.6211v10.14454"/><path fill="azure" fill-rule="evenodd" d="M416.70313 423.82813h.83203v2.82421h3.28515v-2.82421h.83594v6.48046h-.83594v-2.91796h-3.28515v2.91796h-.83204v-6.48046"/><path fill="#00f" fill-rule="evenodd" d="M224.01953 418.82813h8.61719v-10.14844h-8.61719v10.14844"/><path fill="azure" fill-rule="evenodd" d="M225.85156 410.51172h.83594v2.82422h3.28516v-2.82422h.83203v6.48047h-.83203v-2.91406h-3.28516v2.91406h-.83594v-6.48047"/><path fill="#ff3030" fill-rule="evenodd" d="M193.64453 343.375h7.69531v-10.14844h-7.6953V343.375"/><path fill="azure" fill-rule="evenodd" d="M195.47656 335.0625h.83594v5.73828h3.1914v.74219h-4.02734v-6.48047"/><path fill="#00f" fill-rule="evenodd" d="M370.48438 330.0586h8.62109v-10.14454h-8.6211v10.14453"/><path fill="azure" fill-rule="evenodd" d="M372.3164 321.7461h.83594v2.82421h3.28516v-2.82422h.83203v6.48047h-.83203v-2.91797h-3.28516v2.91797h-.83593v-6.48047"/><path fill="#ffffe0" fill-rule="evenodd" d="M221.91016 366.03125h22.17968v-10.1914h-22.17968v10.1914"/><path fill-rule="evenodd" d="M225.40625 357.67188h.51172v6.29687h-.78906v-4.49219h-1.38672v-.55469l.5586-.0625.2539-.05468.22656-.08985.20313-.14062.17578-.21094.14062-.29297.10547-.39844m4.8164 0l.22657.01954.21875.05468.21094.08985.1953.1211.1836.15233.17188.17579.30078.41796.2461.4922.17968.54687.10938.57812.03906.59375-.03906.59375-.10938.58203-.17969.5547-.2461.5-.30077.42968-.17188.17969-.1836.15234-.1953.125-.21094.08984-.21875.0586-.22656.01953-.23047-.01953-.21875-.0586-.20703-.08984-.19922-.125-.1836-.15234-.17187-.1797-.30078-.42968-.24219-.5-.17969-.55469-.11328-.58203-.03906-.59375h.83594l.02734.5625.08203.5039.125.44532.16406.375.19141.30078.21094.21875.22265.13672.22657.04688.22656-.04688.22266-.13672.21093-.21875.1875-.30078.16406-.375.125-.44531.08204-.5039.03125-.5625-.03125-.5625-.08203-.5-.125-.4375-.16407-.36329-.1875-.29297-.21094-.21484-.22265-.1289-.22656-.04688-.22657.04687-.22265.1289-.21094.21485-.1914.29297-.16407.36328-.125.4375-.08203.5-.02734.5625h-.83594l.03906-.59375.11328-.57812.17969-.54688.24219-.49219.30078-.41796.17187-.17579.1836-.15234.19922-.1211.20703-.08984.21875-.05468.23047-.01954m5.08984 0h.50781v6.29688h-.78515v-4.49219h-1.38672v-.55469l.5586-.0625.25-.05468.23046-.08985.20313-.14062.17578-.21094.14062-.29297.10547-.39844m2.82422 2.17579h.78516l.01953-.31641.0625-.28516.09765-.2539.14063-.21485.17969-.17187.22265-.1289.26563-.08204.30859-.02734.23828.01953.22266.0664.20312.10157.17969.13672.14844.17187.11328.20703.07422.23438.02344.26562-.01954.26953-.0664.22266-.10938.1914-.15625.17188-.20312.16406-.2461.16407-.6328.39062-.53907.3125-.4375.3164-.34375.32423-.26563.33593-.1914.35157-.125.37109-.0664.39063-.02345.42187h4.21485v-.74219H238.875l.08594-.28515.11328-.23438.14844-.20312.1875-.1797.23047-.17187.27734-.17578.71875-.41406.41406-.20703.34766-.23047.27734-.25.22266-.26953.16015-.27735.11328-.28515.0625-.28516.01954-.28125-.03907-.38281-.12109-.34766-.1914-.30859-.25-.26172-.30079-.21094-.34375-.16015-.38281-.09766-.40625-.03515-.4336.03515-.39843.09766-.35547.16797-.30469.23437-.25.30078-.1836.375-.11718.44531-.03906.51954"/><path fill="#ffffe0" fill-rule="evenodd" d="M341.74219 344.34766h22.1836v-10.19141h-22.1836v10.1914"/><path fill-rule="evenodd" d="M345.24219 335.98828h.51172v6.29688h-.78907v-4.4922h-1.38671v-.55468l.55859-.0625.2539-.05469.22657-.08984.20312-.14063.17578-.21093.14063-.29297.10547-.39844m4.8164 0l.22657.01953.21875.05469.21093.08984.19532.1211.18359.15234.17188.17578.30078.41797.24218.49219.1797.54687.11327.57813.03906.59375-.03906.59375-.11328.58203-.17969.55469-.24218.5-.30079.42969-.17187.17968-.1836.15235-.1953.125-.21094.08984-.21875.0586-.22657.01952-.23046-.01953-.21875-.05859-.20704-.08984-.19921-.125-.1836-.15235-.17187-.17969-.30079-.42968-.24218-.5-.17969-.55469-.11328-.58203-.03906-.59375h.83593l.02735.5625.08203.5039.125.44532.16406.375.1914.30078.21094.21875.22266.13672.22656.04687.22657-.04687.22265-.13672.21094-.21875.1875-.30078.16406-.375.125-.44531.08203-.50391.03125-.5625-.03125-.5625-.08203-.5-.125-.4336-.16406-.36718-.1875-.29297-.21094-.21485-.22265-.1289-.22657-.04688-.22656.04688-.22265.1289-.21094.21485-.1914.29297-.16407.36719-.125.43359-.08203.5-.02735.5625h-.83593l.03906-.59375.11328-.57813.17969-.54687.24219-.49219.30078-.41797.17187-.17578.1836-.15234.19921-.1211.20704-.08984.21875-.05469.23046-.01953m5.08985 0h.50781v6.29688h-.78516v-4.4922h-1.39062v-.55468l.5625-.0625.25-.05469.23047-.08984.20312-.14063.17578-.21093.14063-.29297.10547-.39844m2.82422 2.17578h.78515l.01953-.3164.0586-.28516.10156-.2539.14063-.21485.17968-.17188.22266-.1289.26562-.08203.3086-.02735.23828.02344.22265.0625.20313.10156.17969.13672.14844.17188.11328.20703.07421.23437.02344.26563-.01953.26953-.0664.22266-.10938.1953-.15625.16798-.20313.16406-.24609.16406-.63281.39063-.53906.3125-.4375.3164-.34375.32422-.26563.33594-.1914.35156-.125.3711-.06641.39062-.02344.42188h4.21485v-.7422h-3.33594l.08594-.28515.11328-.23437.14843-.20313.1875-.17969.23047-.17187.27735-.17578.71875-.41406.41406-.20704.34375-.23046.28125-.25.22265-.26954.16016-.27734.11328-.28515.0625-.28516.01953-.28125-.03906-.38281-.1211-.34766-.1914-.3086-.25-.26171-.30078-.21094-.34766-.16016-.3789-.09765-.40625-.03516-.4336.03516-.39843.09765-.35547.16797-.30469.23438-.25.30078-.1836.375-.11718.44531-.03906.51953"/></g></defs><use xlink:href="#X"/></svg>