<svg xmlns="http://www.w3.org/2000/svg" role="img" xmlns:xlink="http://www.w3.org/1999/xlink" viewBox="142.72 340.72 322.06 140.81"><defs><clipPath id="a"><path d="M144 406h1v74.32813h-1zm0 0"/></clipPath><clipPath id="b"><path d="M144 311.67188h1V405h-1zm0 0"/></clipPath><clipPath id="c"><path d="M144 311.67188h324v168.65625H144zm0 0"/></clipPath><clipPath id="d"><path d="M300 424h131v56.32813H300zm0 0"/></clipPath><clipPath id="e"><path d="M343 480h2v.32813h-2zm0 0"/></clipPath><clipPath id="f"><path d="M467 311.67188h1v168.65625h-1zm0 0"/></clipPath><clipPath><path d="M144 477h3v3.32813h-3zm0 0"/></clipPath><clipPath><path d="M154 478h7v2.32813h-7zm0 0"/></clipPath><clipPath><path d="M167 478h7v2.32813h-7zm0 0"/></clipPath><clipPath><path d="M181 477h6v3.32813h-6zm0 0"/></clipPath><clipPath><path d="M194 478h7v2.32813h-7zm0 0"/></clipPath><clipPath><path d="M207 477h7v3.32813h-7zm0 0"/></clipPath><clipPath><path d="M220 477h7v3.32813h-7zm0 0"/></clipPath><clipPath><path d="M234 477h7v3.32813h-7zm0 0"/></clipPath><clipPath><path d="M247 478h7v2.32813h-7zm0 0"/></clipPath><clipPath><path d="M260 477h7v3.32813h-7zm0 0"/></clipPath><clipPath><path d="M274 477h6v3.32813h-6zm0 0"/></clipPath><clipPath><path d="M288 477h5v3.32813h-5zm0 0"/></clipPath><clipPath><path d="M303 476h2v4.32813h-2zm0 0"/></clipPath><clipPath><path d="M316 476h2v4.32813h-2zm0 0"/></clipPath><clipPath><path d="M330 476h1v4.32813h-1zm0 0"/></clipPath><clipPath><path d="M343 476h2v4.32813h-2zm0 0"/></clipPath><clipPath><path d="M355 476h4v4.32813h-4zm0 0"/></clipPath><clipPath><path d="M367 477h6v3.32813h-6zm0 0"/></clipPath><clipPath><path d="M382 476h4v4.32813h-4zm0 0"/></clipPath><clipPath><path d="M394 477h6v3.32813h-6zm0 0"/></clipPath><clipPath><path d="M406 479h8v1.32813h-8zm0 0"/></clipPath><clipPath><path d="M407 478h2v2.32813h-2zm0 0"/></clipPath><clipPath><path d="M420 478h7v2.32813h-7zm0 0"/></clipPath><clipPath><path d="M418 480h3v.32813h-3zm0 0"/></clipPath><clipPath><path d="M420 480h2v.32813h-2zm0 0"/></clipPath><clipPath><path d="M433 477h7v3.32813h-7zm0 0"/></clipPath><clipPath><path d="M447 477h6v3.32813h-6zm0 0"/></clipPath><clipPath><path d="M462 476h3v4.32813h-3zm0 0"/></clipPath><clipPath><path d="M144 464h3v6h-3zm0 0"/></clipPath><clipPath><path d="M144 450h3v7h-3zm0 0"/></clipPath><clipPath><path d="M144 436h2v8h-2zm0 0"/></clipPath><clipPath><path d="M144 442h1v2h-1zm0 0"/></clipPath><clipPath><path d="M144 423h1v8h-1zm0 0"/></clipPath><clipPath><path d="M144 429h1v2h-1zm0 0"/></clipPath><clipPath><path d="M144 410h2v8h-2zm0 0"/></clipPath><clipPath><path d="M144 396h1v9h-1zm0 0"/></clipPath><clipPath><path d="M144 402h1v2h-1zm0 0"/></clipPath><clipPath><path d="M144 383h2v8h-2zm0 0"/></clipPath><clipPath><path d="M144 372h4v4h-4zm0 0"/></clipPath><clipPath><path d="M144 358h4v5h-4zm0 0"/></clipPath><clipPath><path d="M144 345h4v4h-4zm0 0"/></clipPath><clipPath><path d="M465 343h3v2h-3zm0 0"/></clipPath><clipPath><path d="M144 331h4v6h-4zm0 0"/></clipPath><clipPath><path d="M466 331h2v3h-2zm0 0"/></clipPath><clipPath><path d="M465 332h3v2h-3zm0 0"/></clipPath><clipPath><path d="M144 317h2v7h-2zm0 0"/></clipPath><clipPath><path d="M465 317h3v2h-3zm0 0"/></clipPath><g id="g" clip-path="url(#clip1)"><path fill="#fff" fill-opacity="0" fill-rule="evenodd" d="M-.0039-.0039h1000v1000h-1000zm0 0"/><path fill="#d3d3d3" fill-opacity="0" fill-rule="evenodd" d="M162.14844 355.86328l-.23438.29297.0586.23438.11718.17187.17578.23438.29297.34765.11328.0586.1172-.17188.05859-.23438.17578-.17578.46484-.17578h.69922l.23438.29297.28906.8164.0586.17579.17577.23047.35156.23437.69922.69922.17188.17578.23437.34766.23438.41015.28906.58204.41016.46484.23047.23438.23437.17578.11719.23046.17578.29297.17188 1.16407v.23437l.05859.28906.0586.1172.11718.11718.34766.41015.11718.17188.17578.17578.17579.23438.11718.17187.17188.35156.0586.23438.23437.40625.23437-.0586-.17578.17579-.0586.92968h-.58202l-.23438-.11328-.34766.11328-.11718.1172-.0586.29296-.05859.17578-.11719.17188-.46484.29296-.0586.23438-.05859.11328v.64453l.0586.17188v.41015l.05859.0586v.40625l.0586.40625.11718.17578.0586.0586.23046.64062-.0586.29297v.69921l-.05858.58204v.23437l-.0586.23047-.05469.35156v1.92188l.0547.11719h.42577l-.36719.11718-.02343.35156.89062 1.16797 1.74219.53907 1.33984.35937v.53906l.08985.8086.53515.71484 1.51953.26953.89063-.08594.08984 1.16407.53516.17969 1.16016-.1797 2.05468-.98437 1.16016-.36328 1.8789-.17578 1.69532-.17969-.17969.71875-1.51562.08594-1.25.08984-.8047.26954-1.07421.80859.26953.71875.53516.89844-.17969.625-.26563.80859.26563 1.07813.625.89843.80469.17969 1.25-.17969-.26563.72266.09766.5039.05469.29297v.17188l.05859.29297v.40625l.17578.11719.35156.11718h.40625l.29297-.17578.11328-.11719.0586-.11718.11719-.23047.05859-.17578.35156-.46485.23047-.17578.17578-.0586.17578.0586.0586.17578.11718.98828.0547.46875.05858.17188.1172.23437.17577.0586.81641.0586h.28906l.11719.23437.0586.40625.05859.35156v1.10547l.11719.29297.11718.34765.28906.69922.17579.35156.58203.75391.35156.17578.17188.0586.46875.23437.64062.46484.34766.23438.29297.17578.29296.05469.23047.0625.8164.34765.29298.17579.11328.17187.35156.35156.11719.17578.52344.64063v.28906l.05859.35156v.34766l.0586.35156.05859.28906.11719.0586.17187.0586h.17578l.58203.23437.17578.11719.17578.28906.17579.23437.11328.23438.29297.23047.11718.11718v.41016l.0586.05469.28906.23437.23438.11719.05859.11719.11719.17187.05859.11719.23047.23438.0586.17578.23437.05859.11719.0586-.1172.11327-.05859.1172v.11718l-.11718.29297-.1172.28906v.58203l.17579.11719.11719.0586.0586.11718.11718.11719.11328.0586.17578.34765.0586.35156.05859.40625v.17578l-.0586.17578-.11718.69922v.17188l.11719.17578.29296.29297h.40625l.17578.11719.1172.17187.11718.29297v.23437h-.52734l-.23047-.23437h-.23438l-.17578.0586-.0586.69921.0586.34766.11719.17578.17578.41015.11719.23047.28906.46875.17578.0547h.52344l.23437.05858.75782.64063.05859.29297v.23437l.0586.0586.23046.34765v.35157l-.11719.17187v.29297l.29297.28906.29297.17578.17188.0586.29297.17578.29297.11719.58203.40625.28906.23437.29297.17578.21875.16016.01562.01172.23047.17578.64063.52344.17578.23437.11719.17578.17578.17578.11328.17188v.64062l.11719.17579.46875.11718.58203.11719.23437.0586.23047.11327.29297.1172.11328.05859.58594.35156.28906.17187.17578.0625.17578.0547.17578.05858.69922.35157.28906.17578.23438.05469.28906.17578.23438.11719.64062.40625.29297.11718.17188.0586.23437.05859.41016.0586.23047.05859.23437.11719.0586.17187-.41016.17578.46875.0586.0586.29296.11327.23438.17578.05469.23438.05859.17578.0586.40625.11718.64063.23438.11718.17187.0586.23438v.17578l-.0586.11719-.05859.40625.23438.23437.11718.0586.34766.11718.64062.23047.17578.11719.28907.11719.17578.17578.23437.46484.58203 1.10547.17579.17578.34765.17578.17578.11719.35157.11719 1.04687.52343.23438.0586.46484.11328.29297.0586.46484.17577.75781.58204.23438.23437.34766.46484.17578.17579.28906.23437.8164.69922.29298.17578.28906.28906.29297.17578.29297.28907.6953.64062.17579.17578.29297.23438.28906.23437.46875.28906.64063.58204.34765.23437.23438.29297.34765.34766.35156.46484.9336.99219.34766.40625.11718.17578.23438.0586.11328.11718.64453.17578.23047.11328.23437.0586.29297.17578.23047.11719.9336.69921.40625.40625.23437.17579.40625.17578.23438.11718.8164.34766.34766.23438.23437.11718.29297.28906.23047.1172.75781.35156.35156.17187.23047.0586.29297.11718.23438.0586.8711.17578h.8164l.46875.23046.17187.0586.875.69922.46485.11719.29297.05859.17578.0586.23047.05859.46875.05859.34765.0586.35156.05859.40625.0586h.29297l.17188.05858v.23047l.17578.17579h.29297l.34765.05859.35157.0586.69922.11718h.64062l.46484-.23438.29297-.17578.17188-.11718.41015-.17188.28907-.17578.93359-.46484.46875-.29297.52344-.29297.46484-.17188.46484-.17578 1.05079-.46484.28906-.11719.41016-.11719.28906-.11718.52734-.17579 1.51563-.69921.58203-.34766.28906-.0586.29297-.05859.34766-.11719.875-.23046.35156-.1172h.11328l.23437-.05858.875-.23438.23438-.0586h.8125l.35156-.05859.8164-.11719.17188-.05859.35156-.05469.29297-.05859.23047-.0586.8164-.17577.17579-.0586h.34766l.23437-.0586.46485-.11718.7578-.17188.23438-.05859h.34766l.41015-.11719.28907-.05859 1.28515-.0586h.28907l.41015-.05859.23047-.0586h.17578l.875-.11718h.40625l.41016-.11719h.34765l.35157-.11328.8711-.0586h1.75l1.04687.28907.41015.11719.28906.11719.35157.11718.28906.1172 1.05078.17187.28906.05859h.29297l.29297.0586.17188.05859.41015.0586.17188.05858.11719.0586h.11718l.11719.0586.35156.05859h.11328l.41016.0664 1.92188.39453 1.92578.39454 1.51953.44921 1.69531.71875 2.14453.8047 1.60547-.71876 1.42969-.80469 1.16015-1.07812 1.25-.44922 3.03516-.71875 1.875-.35938 2.14453-1.34765 2.23438-1.2539 2.5-1.25782 1.6953-.44922 1.78517-.17969 1.16015-.26953.625.53906 1.33985-.26953.71484-.98828.98437-1.34375.44532-.17969.80468-.35937 1.875-.53906 1.78516-.44922 1.25-.26953 1.16016-.08985 1.69921-.08984 1.96094-.26953 1.25-.08985h.53906l.625-.08984h.89063l2.14453-.17969 2.41016-.17968 2.58984-.08985 1.69531.17969 1.60938.08984 1.42969.35938 1.16015.71875 1.875.98828 1.16016 1.52734.26562.71485.62891.08984.35547.89844.53515.53906.53516 1.52735 1.07422.35937h.53516l-.8047.53516.08985 1.70703.71485 2.69531.89062.80469.89453.98828.71485 1.25781 1.78515.53906 1.51953-.17968.35547 1.34375 1.60938-.8047.98047-.53905.26953.26953.3164-.21485.21875-.14453.80079.44922.44921-.35937h.35547l.53516-.26954.53906-.71875.53516-.26953.625-.98828 1.16015.44922.83985.3711 1.39453.61718 1.69531-.17969h1.60547l1.78516.08985.17968-1.70703.53516-1.34375.80469.26953.49219.84765.40234.40625-.08985.53907v.35937l.71485.44922.71094-.26953h1.42968l.35938.98828.44531 1.25781.71485 1.34375 1.25.62891 1.6953.6289.71485-.17968.17969-.53906.98047-.08985.44922.35938.08593 1.25781-.26562.6289-.53516.1797v.53906l.71485.98437.26562.53906.98438.98829.80078 1.07812-.26563.35938-.08984.89843-.625 2.33203-.35547 2.06641-.08984 1.79297-.1797.71875-.08983.53906v1.4375l-.98047 1.88281-.35938 1.70704-.53515.89843-.8047 1.16797-.26562.53906 2.05469 1.25391.08594.35938-.35547.53906-.08985-.17969v.8086l.08985 1.4375-.44531.71484-1.07422.09375-.26563.71484.53516.89844.80469.71875 1.16015.8086 1.33985.26952.4453.35938-.35546.44922-1.78906-.08985-1.25-.44921-.71485-.71875-.625-.08985-.17578 3.58985-.1875 1.30859h89.35938V311.69922h-55.26953v49.08203l.76171.125 3.28907.54297 2.02344 2.83594v2.7539l2.35156.33203 2.34765.33204h4.05079l-1.37891 4.16015-2.02344.70703-2.02344.70313-.54296.34375-2.59375 1.61719-.1875.11718-2.02344-2.07812-.73047-2.74219-2.67188-2.07813-1.375-3.5-.0664-.08203-1.95703-2.67187 2.75-1.41797v-49.08203h-118.2422v91.41406l.1172.03125.1328.01172.07423.07422.10547.04687.08984.0586.08594.0586.08984.05858.29688.29688.05859.08984.03125.1172.02734.11718.01563.13672-.03125.11719-.0586.08984-.05859.08594-.04297.10546-.04687.10157-.02735.1211v.14452l.17579.26953.14843.14844.07422.08594.07422.07422.04297.10547.0625.08984.0586.08594.04296.10547.0586.08984.04687.10156.04297.10547.0586.08594.11718.17969.07422.07421.0625.08594.0586.08985.04296.10546.0586.08985.05859.08594.0625.08984.0586.08984.04296.10157.11719.17968.07422.07422.0586.08594.07421.07422.08984.0586.10547.04687h.14844l.13281-.01563.13281.01563.10157-.04688.07422-.07422.04687-.10156-.01562-.13281v-.14844l-.04688-.10547-.02734-.11719-.04688-.10156-.02734-.1211-.04297-.10155-.0625-.08985-.04297-.10156-.04297-.10547-.03125-.11719-.01562-.1328-.01172-.13673.08594-.0586.05859-.08593.1211-.03125.04296.10547.01563.13281v.11719l.0586.10156.05858.08985.08985.05859.14844.14844.05859.08984.04297.10547-.01172.10156.08594.0586.10547.04687.08593.0586.08985.05859.07422.07422-.1172.02734-.10546.04688-.08594.05859-.07422.07422-.05859.08984-.0625.08594-.02734.1211-.04688.10156-.04297.10546-.03125.1172-.01172.1328-.01562.13282v.14844l.02734.11718.04688.10547.04297.10156.05859.08985.07422.07422.08984.05859.07422.07422.08985.0586.05859.08984.04297.10546.04687.10157.11719.03125.13281.01562h.14844l.11719-.03125.10547.04297.04296.10547.04688.10156.02734.1211.03125.11718.02735.1172.03125.12108.02734.1172.10547.04296.10156.04688.13281-.01563.14844.14844.0625.08594.07422.07421.07031.07422.08985.0625.10547.04297.10156.04297.11719.03125.13671.01563.1172-.03125.07421-.07422.02735-.11719-.01172-.13281-.03125-.1211-.02735-.11718.04297-.10547h.11719l.08984.0625.11719.02734h.14844l.13281.01563h.14844l.13281.01562.13281-.01562h.14844l.13281-.01563.13281-.01172.13672.01172.1172-.02734.1328-.01563.19141-.0586-.0586.17579-.01562.13281-.02734.1211-.01563.1328-.0586.08595-.1328.01562-.10547.04688-.10547.04296-.11719.03125-.11719.02735-.26562.03125h-.14844l-.13281.01562-.07422.07422.0586.08594.14843.14844.11719.17969.07422.0703.08984.0625.08985.0586.08593.0586.08985.05859.10156.04297.10547.0625.10547.04297.08593.05859.10547.04688.10156.04296.1797.1172.05859.08983-.04297.10157-.04688.10547.01563.1328.22265.22267.0586.08984.04297.10156.03125.1211.04296.10156.01563.13281.03125.11719.01172.13672.03125.11718.14844.14844.10156.04297.10547.04297.11719.03125.1328.01562.13673.01563h.11718l.1172-.03125.08983-.0586.04297-.10546.04688-.10157.04297-.10546.03125-.1172.01172-.1328v-.14844l-.01172-.13281-.01563-.13282-.03125-.11719-.04297-.10546-.04687-.10547-.04297-.10156-.04297-.10547-.01562-.13282.01562-.1328.02735-.1172.03125-.11718.02734-.1211.04687-.10156.08985-.0586.08594-.0625.07421-.07421.08985-.0586.22265-.22265.0586-.08594.07422-.07422.11718-.17969.0586-.08593v-.14844l-.07422-.07422-.10156-.04688-.10547-.04296-.10156-.04297-.0586-.08985-.04687-.10546-.02735-.1172.08985-.05859.11718-.03125.10157-.04296.17968-.1172.14844-.14843.01172-.13281-.01172-.10547-.08984-.0586-.13281.01563h-.14844l-.13281.01563-.13282-.01563-.1211-.03125-.08593-.0586-.07422-.07421-.0586-.08985-.0625-.08593-.11718-.1797-.0586-.08593.03126-.1211.08594-.05859.12109-.03125.0586-.08593v-.1211l-.03126-.11719-.0586-.08984-.05858-.08594-.04688-.10546-.02734-.1172-.01563-.1328.0586-.08985.07421-.07422.08985-.0586.11719-.17968.07421-.07422.0586-.08594.14844-.14843.12109-.03125.13281-.01563.13281.01563.07422.07422.04297.10546.01563.13282-.03125.11719-.1172.03125-.1328.01171-.14844.14844-.04297.10547-.04688.10156-.02734.1211-.03125.11718v.14844l.03125.11719.04297.10547.0586.08984.07421.07031.07422.07422.11719.03125.1211.02735.11718-.02735.13281-.01562h.11719l.08984.0586.07422.07421.04688.10547.0586.08594.10155.04687.13282.01563.10546.04296.08594.0586-.01172.10547-.07421.07422-.1797.11718-.05859.08985-.08984.0586-.07031.07421-.07422.07422-.0625.08984-.02735.11719-.01562.13281.01563.13281-.01563.13282v.14844l.01563.1328.02734.1172.03125.12109.07422.07422.08984.0586.08594.05858.08984.0586.11719.03125v.08594l-.10156.04687-.08985.0586-.26562.03125-.11719.02734h-.14844l-.10546.04297-.10157.04687-.0586.08985-.0625.23437-.01171.13281-.03125.1211-.01563.13281v.29297l-.01171.13281.01171.13672.01563.13281.13281.01563.13281.01172.1211.03125.08594.05859.07421.07422.04688.10547.04297.10156.01562.13281v.44531l-.01562.13282v.44531l.03125.26563.02734.11718.01563.13281.03125.1172.08594.21093.03125.26563v.14843l-.03125.11719-.02735.11719-.03125.1211-.02734.11718-.03125.11719-.03125.12109-.01172.13281-.01563.13281.08985.0586.11719-.03125.10156.01562.04687.10547-.03125.26563v.4414l-.04297.10547-.04687.10547-.04297.10156-.04297.10547-.0586.08594-.03124.1211-.04297.11718-.03125.11719-.01563.13281.01563.13281.0586.08985.10546.04687.08594.0586.0586.08593-.01173.13672-.03125.11719-.04296.10156v.44531l-.01563.13282v.14844l-.03125.11718-.04297.10547-.02734.11719-.04688.10547-.04297.10156-.03125.1211-.02734.11718-.03125.13281-.03125.1172-.02734.11718-.04297.10547-.03125.11719-.03125.12109-.01172.13281-.01563.13281v.29688l.02735.11719v.14843l.04687.39844.02735.11719.05859.08984.1211.03125h.14843l.13281-.01562.0586.08984v.11719l-.0586.08984-.08984.0586-.10156.04296-.10547.04688-.08985.0586-.08593.05859-.13672.01562-.11719-.03125-.13281-.01562-.10156.04687-.0625.08594-.01172.13672-.01563.13281-.03125.11719-.02734.11719-.01563.1328-.03125.1211v.29688l.01563.13281.03125.11719v.14844l.01172.1328v.14844l-.02735.1172-.04687.10156-.02735.12109-.03125.11719-.05859.08984-.07422.07422-.10156.04297-.10547.04687-.11719.02735-.12109.03125-.10156-.04688.0586-.08594.10546-.04687.02734-.11719.03125-.11719.02735-.12109.03125-.11719v-.14844l.01562-.1328-.03125-.1172-.04297-.10546-.10546.01562-.07422.07422-.10157.04297-.08984.0625-.07422.07422-.04297.10156-.01562.13281-.03125.11719-.02735.1211-.03125.11718-.02734.11719-.03125.1211-.02734.11718-.03125.11719-.04297.10547-.08985.05859h-.08984l-.11719-.03125-.03125-.08594.01563-.13672-.03125-.11718v-.14844l-.01172-.13281v-.14844l-.0625-.23438-.02735-.12109-.04296-.10156-.04688-.10547-.0586-.08594-.05859-.08984-.04296-.10547-.0625-.08594-.14844-.14844-.07031-.07421-.10547-.04688-.10547-.04297-.10156-.04297-.29688-.29687-.08984-.07422-.08594-.0586-.10547-.04296-.08984-.0625-.08594-.0586-.10547-.04297-.08984-.05859-.08594-.0625-.07422-.07031-.10547-.04688-.08594-.0586-.10546-.04296-.08985-.0625-.10156-.04297-.10547-.04297-.08594-.0586-.10547-.04687-.10546-.04296-.10157-.04688-.08984-.0586-.10156-.04296-.10547-.04297-.08985-.0625-.11718-.02735-.13282-.01562-.1328.01563h-.14845l-.1328.01562-.1172-.03125-.08984-.0586-.07422-.07421-.08984-.0586-.10156-.04687h-.14844l-.1211-.02735-.10156-.04296-.07422-.07422-.11719-.17969-.08984-.0586-.10156-.04296-.08985-.0625-.10546-.04297-.08985-.0586-.08594-.05859-.10546-.04687-.0586-.08594-.0586-.08985-.04296-.10546-.04688-.10157-.07421-.07421-.08594-.0586-.07422-.07422-.08984-.0586-.22266-.22265-.04297-.10547-.03125-.26562.10547-.04297h.14453l.10547.04297.07422.07422.08984.0586.08594.05858.10547.04688.08984.0586.14844.14843.07031.07422.14844.14844.0625.08594.07422.07421.08594.0586.07421.07422.08985.0625.08984.05859.08594.0586.26953.17577.10156.04688.10547.04297.10156.04297.04688-.07422.0586-.08594.07421-.07422.07031-.07422.10547.04297.07422.07422.0586.08985.04296.10156.04688.10547.04297.10546.1211.02735.11718-.02735.07422-.08984.04297-.10547.0586-.08984.07421-.07422.10547-.04297.11719-.02734.1328.01172.08985.05859.14844.14844.0586.08984.04296.10547.04688.10156.04297.10547.04296.10156.10547.04688.10547.04297.13281.01562.08594-.0586.0586-.08983.07421-.07422.10547-.04297.1172.02734.10546.04688.10156.04296.10547.04297.10156.04688.1797.11719v.11718l-.01563.13282.01562.1328.01563.13673.05859.08594.10156.04687.1211.02734.11718.03125h.14844l.11719-.03125.0586-.08984.17968-.11719.0586-.08984.07421-.07422.0586-.08594.11718-.17969.1797-.11718.11718.03125.08984.0586.04297.07421-.01562.13281v.11719l.08984.0586h.14844l.13281-.01563.13281-.01172.26563-.03125.10547-.04297.11718-.03125.1211-.02734.07422-.07422.0703-.07422.0625-.08984-.01562-.10547-.04687-.10156-.10156-.04297-.10547-.01563-.11719.02735-.26563.03125h-.14843l-.07422-.07422-.08985-.0586-.11718-.03125-.11719-.02734-.13281-.01563h-.14844l-.13281.01563h-.29688l-.10547-.04688-.14843-.14843-.04297-.10157-.0586-.08984.22266-.22266.08594-.05859.10547-.04297.11718-.03125.13282-.01562.1328.01562.13673.01563.10156.04296.13281-.01171.08985-.0625.10156-.04297.0625-.08985-.04688-.10156-.08984-.0586-.11719-.03124-.10156-.04297-.0586-.08985-.0625-.08984v-.11719l.01563-.1328.10547-.04688.07422-.07032v-.12109l-.08985-.0586-.03125-.11718.08985-.0586.07422-.07421.04297-.10547.05859-.08985.04688-.10156.01562-.13281v-.14844l-.04688-.10547-.04296-.10156-.08985-.0586-.13281-.01562-.10156-.04297-.13672-.01562-.11719-.03125h-.44531l-.13281-.01563-.13282-.01172-.1328-.01562-.1172-.03125h-.14843l-.13282-.01563-.1328-.01171-.26563-.03125-.1211-.04297-.08594-.0586-.07421-.07422v-.14843l.01171-.13282.10547-.04687.10157-.04297.1328-.01563h.15235l.13281-.01562h.29297l.1211.03125.10156.04297.08984.0586.23438.0625.1211-.04688.08984-.0586.10156-.04296.13281-.01563.10547.04297.10156.04687.13281.01172.1211-.02734h.14453l.1211-.03125.11718-.02735.10547-.04687.07422-.07422.08594-.0586.14843-.14843.0586-.08594.04687-.10547.02735-.11718.01562-.10547-.10156-.04297-.08985-.0586-.11718-.03125-.10547-.04296-.08985-.0625-.07421-.08594-.07422-.07422-.10156-.04297-.10547-.04687-.10157-.04297-.05859-.08985-.04688-.10156-.08593-.21094-.0625-.08593-.0586-.08985-.07421-.07422-.08594-.05859h-.26953l-.1172.03125-.08983.0586-.10157.04296-.13281.01563-.10547-.01563-.02734-.11719-.0625-.08984-.11719-.03125-.10156-.04297-.14844-.14844-.03125-.11718-.01563-.10547.07422-.07422.1797-.11719.11718-.02734.11719-.03125.13671.01562.10157.04297.10547.04297.10156.04688.10547.04296.11719.03125.1328.01563.1172.02734.1328.01563.10548-.01563.08984-.05859-.07422-.07422-.10547-.04297-.07422-.07422-.07421-.08984-.14844-.14844-.08594-.0586-.08984-.05858-.07422-.07422-.08985-.0586-.10156-.04687-.1211-.02735-.10156-.04687-.10546-.04297-.1172-.03125-.10155-.04297-.1211-.03125h-.14844l-.11718.03125-.10547.04297-.08594.0625-.17969.11719-.08593.0586-.08985.05858-.10547.04688-.08593.0586-.10547.04296-.10156.04297-.10547.04688-.07422.07421-.0586.08985-.05859.08594-.04688.10546-.05859.08594-.07422.07422-.13281-.01172-.11719-.03125h-.11719l-.07421.07422-.08985.0586-.07422.07421-.08984.0586-.08594.0586-.10547.04687-.10156.04296-.13672.01563-.10156-.04297-.14844-.14844-.10547-.04687h-.08593l-.10547.04687-.10156.04297-.1211.03125-.11719-.03125-.07421-.07422v-.11718l.03125-.1211.07421-.07031.0586-.08984.07422-.07422.11718-.03125.10547-.04297h.29297l.13281-.01563.13672-.01562.10156-.04297.08985-.0586.10156-.04687.08985-.0586.1328-.01171.08985.0586.13281.01171.08985-.0586.08594-.05859.10546-.04296.08985-.0586.08594-.0625.08984-.0586.14844-.14843.05859-.08594.0586-.08984.10546-.04297.13281-.01563.1172.02735.12109.03125.05859-.0586.0586-.08984.03124-.26562.02735-.1172.10547.01173.1328.01562.10157-.04297.08985-.05859.05859-.08984.07422-.07422.0586-.08985.04687-.10156.01171-.13281-.01171-.13281-.04688-.10547-.14844-.14844-.05859-.08984-.0586-.08594-.04296-.10547v-.44531l.01562-.13281v-.14844l.01172-.13281-.0586-.0586-.08984.0586-.10156-.04297-.17969-.1172-.08593-.05858-.0625-.08985-.0586-.08984-.07422-.07422-.08593-.0586-.1211.03125-.10156.01172-.10547.04688-.08594.0586-.10546.04296-.14844.14844-.08985.0586-.08593.05859-.08985.0625-.10547.04296-.1328.01563v-.1211l.10546-.04296.11719-.03125.07422-.07031.04296-.10547v-.14844l-.02734-.11719-.14844-.14844-.1328-.01562h-.14845l-.11718.03125-.10547.04297-.10156.04297-.08985.0625-.11719.02734-.07421-.07422.01171-.13281-.04296-.10156-.04297-.10547-.08985-.0586-.11719.02735-.12109.03125-.11719.03125-.10156.04297-.1211.03125-.10156.04296-.10546.04297-.08985.0586-.10156.01562v-.11719l.01563-.1328-.0586-.08985-.07422.04297-.14844.14844-.05859.08984-.07422.07422-.04687.10547-.04297.10156-.07422.07422-.0586.08984-.07421.07422-.0586.08594-.07421.07422-.08985.0625-.07422.0703-.07422.07423-.10156.01562-.13281.01563-.10547-.04297v-.1211l.14844-.14843.04297-.10156.05859-.08985.04688-.10156.04296-.10547.0586-.08984.03125-.1172.04297-.10155.03125-.1211.02734-.11719.04688-.10546.04296-.10157.04297-.10546.07422-.07032.08985-.0625.08984-.0586.10156-.04296h.29688l.26562-.03125.10547-.04297-.07422-.07422-.11719-.03125-.10546-.04297-.08985-.05859-.10156-.04688-.08985-.05859-.10156-.04297-.10547-.04297-.08984-.0625-.08594-.05859-.10547-.04297-.10156-.04297-.1211-.03125-.11718-.03125-.10156-.04297-.1211-.03125-.10156-.04296-.08984-.0586-.04297-.10547-.01563-.13281.10157-.04297.1328-.01562.13673.01562.13281-.01562.10156-.04297.0586-.08985.01562-.10546-.08984-.0586-.07422-.07422-.10156-.04297-.08985-.05859-.14844-.14844-.04296-.10547-.01563-.1328v-.29298l-.0586-.08984-.08984-.0586-.07421-.07421-.04297-.10547-.03125-.11719-.0586-.08984-.07422-.07422-.11718-.02735-.07422-.07421-.08985-.0586-.08984-.0625-.08594-.0586-.07422-.07421-.05859-.08594-.04688-.10547-.08593-.0586-.14844-.14843-.19531-.0586-.13281.01563-.10157.04297-.07422.07422-.04687.10156-.04297.10547-.0586.08985-.05859.08593-.29687.29688-.08985.0586h-.08593l-.0625-.08595-.04297-.10546.03125-.1172.0586-.08984.02733-.11718-.01171-.13282-.08985-.0625-.10547.04688-.11718.02734-.1172.03125-.26952.17578-.10156.04688-.1172.02734-.10546.04688-.08985.0586-.10156.04296-.0586-.08594-.04687-.10547.01563-.1328.04687-.10548.07032-.07422.07421-.0703.0586-.08985v-.14844l-.04297-.10547h-.23828l-.10156.04688-.03125.11718-.02735.1172-.03125.12108-.07422.04297-.1328.01563-.07423-.04688-.04297-.10156-.04296-.10547-.04688-.10156-.04297-.10547-.1211.03125-.10156.04297-.1328.01563-.1172.03125-.10546.04296-.08985.0586-.10156.04687-.1211.02735-.1328.01562-.10157-.04297-.0586-.08984-.04687-.10547-.04297-.10156-.04296-.10547v-.11719l.05859-.08984.08594-.0586.17968-.11718.10157-.04688.10546-.04297.10547-.0586.10157-.04296.08984-.0625.10156-.04297.10547-.0586.10156-.04687.08985-.0586.10547-.04296.10156-.04297.08984-.0625.10156-.04297.13672-.01562.1172.03125.10155.04297.1211.03125.10156.04296.10547.04688.10156.04297.10547.04297.10156.04687.10547.04297.10156.04297.10547.04688.08594.05859.10547.04297.11719.03125.10546.04297.10157.04687.08984.0586.10547.04296.10156.04297.10547.04688.11719.02734.10156.04688.1211.02734h.14843l.08594-.0586.01563-.10156.05859-.08984-.02735-.11719-.07421-.07422-.1172-.17968-.07421-.07422-.08984-.07422-.1797-.11719-.08593-.0586-.10547-.04296-.10156-.04688-.26953-.17578-.0586-.08984-.07421-.07422-.0586-.08984-.04297-.10157-.03125-.11718-.01562-.13672v-.5625l-.01172-.13281-.01563-.13282-.03125-.11719-.01562-.1328-.01172-.13282-.03125-.1211-.22265-.22265-.0586-.08594-.01562-.10547.03125-.11718.1328-.01563v-91.41406H172.98829v1.45312l-.0586.23438-.35155 1.05078-.17188.52344-.11719.34765-.17578.41016-.11719.17188-.23437.29296-.23047.0586h-.35156l-.11719.0586-.23047.40624V317l.11719.17578.23047.23047.11719.23438.64062.7578.29297.46485.17578.23438.23047.35156.23437.34765.64063.81641.17578.46485.17188.41015.11718.69531.17578.46875.1172 1.39844.05858.46485v.875l.1172 1.04687v4.78125l-.0586.46484-.35156 1.28125-.17578.52344-.11329.41016-.35156.92969-.46484 1.16796-.23438.58204-.11719.17578-.17187.34765-.17578.40625-.35156.8164-.0586.29298-.11328.29297-.11719.28906-.05859.17578-.11719.875-.0586.40625-.05858.11719-.0586.17578-.0586.17187-.23046.52735-.11719.17187v.23438l-.11719.23437-.05859.17188-.17578.58594v.28906l-.0586.17578v.29297l-.05859.11328-.0586.52734v.17188l-.05468.23437v2.6211l-.17578.8164-.11719.17578-.17578.23438-.11719.17187-.11328.23438-.58594.9336-.23047.28906-.29296.46484-.17578.23437-.28907.35157-.35156.69921-.11328.23047-.17578.41016-.17578.23047-.40625.52734-.81641.69922-.29297.17188-.28906.23437-.17578.11719-.17578.17578-.52344.40625-.52734.17578-.17188.17578-.23438.05469-.64062.17578h-.75781m12.21094 31.02344l-1.07422.44922.35937.89453 1.25-.71485.44531-.53906-.98047-.08984"/><path fill="#d3d3d3" fill-opacity="0" fill-rule="evenodd" d="M201.5039 416.59375h-.89452l.44921.6289.98047.35938.80469-.08984.44531-.98828-.17578.08984-.71484-.35547-.89453.35547M356.125 475.66406l-.0586-.52344v-.29296l.11329-.29297.0586-.23047.46874-.46875h.11328l.11719-.11328.11719-.0586h.17578l.23437-.05859h.34766l.23438.0586.11718.05859.23047.17187.0586.17578.11718.58204v.29296l-.11719.17579-.17187.28906-.17578.17578-.52735.52344-.23046.23437-.1172.0586h-.17577l-.11719-.0586-.40625-.29297-.17578-.11719-.11719-.05859-.0586-.11328-.05468-.11719m6.64063-10.95703l-.0586-.17187v-1.10938l.0586-.17187.17578-.0586.17187-.0586h.17578l.23438-.05858.11719.05859.05859.69922-.0586.17187-.11718.17578-.11719.0586-.23438.52344-.11328.05859h-.23437l-.0586-.11719m9.61329-14.39062l-.1172-.17579v-.69921l.29298-.875.11719-.17188.17578-.35156.11328-.23047.11719-.29297.35156-.75781.11719-.23047.17187-.23438h.17578l.11719-.05859h.64062l.1172.0586.23437.23437.17187.11328.35156.29297.1172.11719.11327.17578v.11328l.11719.0586.11719.11718v.69922l-.0586.17578v.23047l-.05859.17578-.34766 1.05078-.11718.23047-.1172.23438-.11718.05859-.23047.23438-.64062.28906h-.875l-.41016-.11719-.64062-.46484"/><g clip-path="url(#a)"><path fill="#fff" fill-opacity="0" fill-rule="evenodd" d="M143.9961 475.88672v4.4375H144h-.0039v-73.7461 69.3086"/></g><g clip-path="url(#b)"><path fill="#fff" fill-opacity="0" fill-rule="evenodd" d="M143.9961 400.4336v4.05077-92.8164H144h-.0039v88.76562"/></g><path fill="#50fcfc" fill-rule="evenodd" d="M143.9961 404.48438v2.10156l.0039.03515v-2.13671h-.0039"/><g clip-path="url(#c)"><path fill="#fff" fill-opacity="0" fill-rule="evenodd" d="M144 480.32422v-73.70313l.1914 2.69141.08985 4.4375.96875 4.4375 3.1836 3.38281 4.4375.07031 4.4414-.99609 3.35547 1.98047 1.08203.9961 4.4375 1.59765 3.52344-2.59375.91406-.16797 4.4375-1.25 4.4414.20313 4.4375.84765 4.4375-.38281 4.4375-.22656 4.44141-.9414 4.4375-.73048 3.29688 2.64844.08203 4.4414 1.0586 1.44141 4.4375.22656 2.66796-1.66796-2.66797-3.13672-2.07422-1.30469-2.36328-.8125-3.08203-3.625-1.35547-1.15234-1.69922-3.28516 1.26172-4.4375-1.42969-4.4414-2.5703-2.3086-.39063-2.1289-4.05078-4.0547-1.94922-.3828-2.48828-2.45313-2.97657-1.98438-1.46093-1.46484-1.94532 1.46484-2.49218.44532-1.58203-.44532-2.85938-2.64062-4.4375-.94531-1.34766-.85157-3.08984-3.30468-4.4375.24218-3.21875 3.0625L157.3125 388.5l-3.38672 3.0586-.63672 4.4375.40235 4.4375-.45313 4.4375-.36719.32421-4.4375.38672-3.85156-.71094-.58203-.38671v-92.81641h39.9414v45.09765l-4.30077 3.72266-.13672.42969-3.34766 4.01172 3.34766 2.53125 2.26562-2.53125 2.17188-.98438 3.57812-3.45703-3.57812-3.72265v-45.09766h17.7539v35.14062l-.88672.3672-.10547 4.4375-3.4453.78905-4.44141-.16406-3.6797 3.8125 1.01173 4.4375.39844 4.4414-.17579 4.4375-1.99218 2.23048-4.4375 1.6289-.81641.57813.55078 4.4375.26563.28515.29297-.28515 4.14453-2.07031 3.24609-2.3672 1.1914-1.01562 4.44141-.84375 2.375-2.57812 2.0625-2.08985 3.72656-2.34765-3.62109-4.4414 2.79688-4.4375 1.53515-1.61329v14.95313l-3.72265 4.41406-.71485 1-3.60547 3.4375.2461 4.4375 3.35937 3.67969v8.46093l-1.875 1.17578 1.875 1.01172 1.125-1.01172-1.125-1.17578v-8.46094l4.4375-.12109 3.72656-3.5586.71094-1.18359 4.4414-2.7539.58204-.5-.58203-.57031-4.4414-2.78907-.54688-1.07812-3.89063-4.41406V354.4375l1.85547-2.82422-1.85547-4.07812-1.15234-.35938-3.28516-.36719v-35.14062h62.13672v74.09765l-1.33594 1.35547.73047 4.4375.60547.60547 4.4375-.49219.16016-.11328-.16016-.16796-2.6914-4.26954-1.7461-1.35546v-74.09766h13.3164v64.42187l-2.01952 2.15235.36328 4.4375-.03125 4.4414.08594 4.4375 1.60156 1.77735 1.25-1.77735 1.74219-4.4375 1.4453-1.43359 2.58985-3.00781-2.58984-3.80078-.5039-.63672-3.9336-2.15235v-64.42187h13.3125v126.9375l-4.4375.4414-1.92578 1.33204-2.51172 3.40234-.86328 1.03516.86328 1.02734 4.4375 1.28906 4.4375 1.41016 3.70703-3.72656.73047-2.01172 2.26953-2.42578-2.26953-1-4.4375-.77344v-126.9375h8.8789v69.8711l-.7539 1.14062-3.6875 2.96875-1.11328 1.47265 1.11328 1.08594 4.4414.24219 3.9336 3.10937.5039.5L308 395.9961l.21484.21485.23047-.21485-.23047-.21484-3.9375-4.22266-.5-1.05859-2.17187-3.3789-1.21485-4.44141-1.05078-1.14063v-69.8711h17.75391v77.0586l-2.13672 2.83203 2.13672 2.13282 2.14844-2.13282-2.14844-2.83203v-77.0586h17.75v78.21095l-1.88672 1.67968 1.88672 1.6797 1.48438 2.7578 2.95703 3.3047 2.96875-3.3047-2.96875-2.98437-2.72657-1.45313-1.71484-1.67968v-78.21094h44.38672v113.0039l-4.4414.14063-2.35548 2.2539-.95312 4.4375-1.1289 1.03516-4.4375 1.35938-3.91016 2.04297-.52735.07812-4.4375.08594-.1836-.16406.1836-.90625 1.95703-3.53125-1.95703-2.39454-4.4414-1.6875-4.4375.41797-4.4375.1211-3.375 3.54297-1.0625 1.6914-4.44141 2.42578-.40625.32032-4.03125 1.1875-4.4375-.53907-4.4375.06641-4.4375.01953-4.4414.47656-4.4375 1.75-3.58204 1.47657-.85547.65234-3.1328 3.78516 3.1328 3.32812 4.4375-2.01172.25782 3.125.86328 4.4375 3.3164 3.02735 4.44141.95312 1.21484.45703 3.22266 2.6875 4.4375 1.67969.25.07031 4.1875 3.5625 4.4375.41406 4.4414-.13671 4.4375.01953 4.4375.10937 4.4375-.17187 4.44141-.49219 4.4375-.86328 2.72656-2.4414 1.71094-.53516 4.4375-.58204 3.8789-3.3203.5586-.13673 4.41406.13672.02735.01563 4.4375.8711 4.4375.01171 4.4375.78516 4.4375.40625 1.23437 2.34765 3.20704 3.48047 2.84765.96094-2.84765 4.05469-.3711.3828.3711.33204 1.85546 4.10547 2.58204 2.34765 4.4375 1.64063 4.4375.13281 4.4414-.61328 3.51172-3.50781-1.82813-4.4375-1.42968-4.4375 4.1836-.66016 4.4375-2.41015 1.375-1.3711 1.15233-4.4375-2.52734-4.4336-4.4375.50782-2.98437-.51172-1.45313-1.73828-2.91797-2.69922.70313-4.4414 1.57422-4.4375.64062-.63672 4.4375-2.86328 1.25781-.9375-1.2578-.75-4.4375-2.71875-4.44142-.07032-4.17968 3.53907-.25781.1953-3.50782 4.2422-.90625 4.4375-.02344.20703-.58203-.20703-3.85546-.46485-.8711.46485-3.57031 1.2578-2.73828 3.1836-1.69922 1.67578-1.90625-1.67578 1.72265-4.4414-.99218-4.4375-.14063-4.4375-3.1211-3.02735-1.05077-1.41015-1.63672-4.4375-1.75-1.70313-4.4375-.6914V311.66796h62.13672v71.71094l-4.4414 1.32812-2.51173 2.41406-.4375 4.4375 2.94922 2.95313 4.4414-.90235 2.02344-2.05078 2.07032-4.4375-4.09375-3.74218v-71.71094h8.875v95.4961l-2.53516 2.14843-1.90234.28516-4.4375.74218-3.47656 3.41016-.96485.32422-4.4375.1211-4.4375.83202-4.0586 3.16016-.3789.27344-4.4375.88672-4.4414 1.26562-2.02735 2.01172.03125 4.4414 1.9961 2.19141 4.4414.67578 4.4375.21875 4.4375 1.08985V442.75l-1.78125 2.0664-1.83984 4.44141 3.6211 4.42969 4.28515-4.42969-1.96094-4.4414-2.32422-2.06641v-11.50781l4.4375-.29688 4.4375-.5039 1.47266 1.0625 2.96875 3.03515.66015 1.40235-.66015 2.41796-3.47266 2.01954 3.47266 1.2578 2.66406-1.2578 1.77344-.39454.74219.39454.92968 4.4375.98828 4.4414 1.77735 1.92969 1.80078-1.92969 2.63672-2.27734v11.04297l-.73828.10937-3.69922.69531-4.4375 1.4922-2.20313 2.25 2.20313 2.09374 1.05469 2.34766-.63282 4.4375 3.42188 4.4375.59375.19922.1875-.19922 2.85156-4.4375.47656-4.4375.92188-2.39453 4.4414-.3086.44532-1.73828-.44532-.48047-4.3164-3.95703-.125-.10937v-11.04297l2.23437-2.16406 2.20703-3.28516 1.07813-1.15234 2.96094-4.4375-2.14063-4.4375 1.98828-4.4375-.88281-4.44141-3.0039-3.3164-.69532-1.1211.69531-3.78906.29688-.64844-.29688-.29688-4.4414-2.8828-2.36719-1.25782-2.07031-2.14844v-95.4961h13.3164V470.8086l-.24218.64063.24218.23437.23438-.23437-.23438-.64063V311.66797h4.4336v168.65625H344.03516l-.3125-.21875-.51563.21875H144"/></g><path fill="#50fcfc" fill-rule="evenodd" d="M144.1914 409.3125L144 406.6211v-2.13673l.58203.38672 3.85156.71094 4.4375-.38672.3672-.32422.45312-4.4375-.40235-4.4375.63672-4.4375L157.3125 388.5l1.21875-1.3789 3.21875-3.0625v2.14843l-.95703.91406-3.48047 3.9297-.5625.5078-1.09375 4.4375.28906 4.4375.75 4.4375-3.82422 3.3672-4.4375-.27735-1.53515 1.35156-1.83203 4.4375 2.0664 4.4375 1.30078 1.38281 4.4375-.64062 1.39453-.74219 3.04688-3.54688 3.91797 3.54688.51953.36328 4.4375.27735 4.4375-.375 1.76563-.26563 2.67187-.32031 1.2539.32031 3.1875.66016 4.4375.26171 4.4375.07422 4.4375.11329 2.73048-1.10938 1.71093-3.6289.16797-.8086 2.75-4.4375-2.91797-4.01563-.19531-.42578-.78906-4.4375-3.45703-3.45703-4.4375-.89453-.53907-.08594-3.89843-2.91015-4.4375-.02344-4.44141-1.2461-.96875-.2578-3.46875-1.65626-4.40625-2.78125-.03125-.03125-4.4375-.8828v-2.14845l4.4375-.24218 3.08984 3.30468 1.34766.85157 4.4375.9453 2.85938 2.64063 1.58203.44532 2.49218-.44532 1.94532-1.46484 1.46093 1.46484 2.97657 1.98438 2.48828 2.45312 1.94922.38282 4.05078 4.05468.39062 2.12891 2.57031 2.3086 1.4297 4.4414-1.26173 4.4375 1.69922 3.28516 1.35547 1.15234 3.08203 3.625 2.36328.8125 2.07422 1.30469 2.66797 3.13672-2.66797 1.66796-4.4375-.22656-1.0586-1.4414-.08202-4.44141-3.29688-2.64844-4.4375.73047-4.4414.9414-4.4375.22657-4.4375.38281-4.4375-.84765-4.44141-.20313-4.4375 1.25-.91406.16797-3.52344 2.59375-4.4375-1.59766-1.08203-.99609-3.35547-1.98047-4.4414.9961-4.4375-.07032-3.1836-3.38281-.96875-4.4375-.08984-4.4375"/><path fill="#00e8fc" fill-rule="evenodd" d="M147.13281 418.1875l-2.0664-4.4375 1.83203-4.4375 1.53515-1.35156v2.66406l-2.05468 3.125 2.05468 3.23438 4.4375-.51563L155.5 413.75l-2.6289-2.77734-4.4375-.34766v-2.66406l4.4375.27734 3.82421-3.36719-.75-4.4375-.28906-4.4375 1.09375-4.4375.5625-.5078v14.77733l-2.88281 3.48438 2.88281 3.60156 2.10547-3.60156-2.10547-3.48438v-14.77734l3.48047-3.92969.95703-.91406 4.4375.88281v3.82422l-2.34375.64453-2.09375.8086-2.38672 3.6289-.92187 4.4375.95312 4.4375 2.35547 2.84375 4.4375.69922 4.4375.5664 1.26563.33204 3.17187 2.6836 4.4414 1.16015 4.4375-1.27344 4.4375-.52344 4.2461-2.04687.1914-.03516.15235.03516 4.28906 1.73828 1.11328-1.73828-1.11328-1.53516-1.3164-2.90625-.66016-4.4375-2.46484-2.46875-4.4375-1.05468-4.4375-.69141-1.15625-.22266-3.28125-1.16406-4.44141-1.21484-4.4375-.96094-3.29297-1.09766-1.14453-.64453v-3.82422l.03125.03125 4.40625 2.78125 3.46875 1.65625.96875.25782 4.4414 1.24609 4.4375.02344 3.89844 2.91015.53907.08594 4.4375.89453 3.45703 3.45703.78906 4.4375.19531.42579 2.91797 4.01562-2.75 4.4375-.16797.8086-1.71094 3.6289-2.73046 1.10938-4.4375-.11329-4.4375-.07421-4.4375-.26172-3.1875-.66016-1.25391-.32031-2.67188.32031-1.76562.26563-4.4375.375-4.4375-.27735-.51953-.36328-3.91797-3.54688-3.04688 3.54688-1.39453.74219-4.4375.64062-1.30078-1.38281"/><path fill="#00d4fc" fill-rule="evenodd" d="M148.4336 416.98438l-2.0547-3.23438 2.0547-3.125v1.99219l-.7461 1.13281.7461 1.17188 4.4375-.51563.63671-.65625-.63672-.67188-4.4375-.46093V410.625l4.4375.34766L155.5 413.75l-2.6289 2.71875-4.4375.51563"/><path fill="#00c4fc" fill-rule="evenodd" d="M148.4336 414.92188l-.7461-1.17188.7461-1.13281 4.4375.46094.63671.67187-.63672.65625-4.4375.51563"/><path fill="#50fcfc" fill-rule="evenodd" d="M157.3125 405.82813l-2.88281 3.48437 2.88281 3.60156 2.10547-3.60156-2.10547-3.48438"/><path fill="#00d4fc" fill-rule="evenodd" d="M159.39453 404.8711l-.95312-4.4375.92187-4.4375 2.38672-3.62891 2.09375-.8086 2.34375-.64453v3.6875l-2.39453 1.39453-2.04297 1.21875-1.52734 3.21875 1.5078 4.4375.01954.02735 4.4375.01953 4.4375 1.53906 4.4375 1.25 4.4414 1.33985 4.4375-.03125 4.4375-.28907 4.4375-1.03515 2-2.82032-.52343-4.4375-1.47656-1.47656-4.4375-1.21875-4.4375-.5664-4.4375-.65625-2.28125-.51954-2.16016-.57812-4.4375-.5-4.4375-.3164v-3.6875l1.14453.64452 3.29297 1.09766 4.4375.96094 4.4414 1.21484 3.28126 1.16406 1.15625.22266 4.4375.6914 4.4375 1.0547 2.46484 2.46874.66016 4.4375 1.3164 2.90625 1.11328 1.53516-1.11328 1.73828-4.28906-1.73828-.15234-.03516-.19141.03516-4.2461 2.04688-4.4375.52343-4.4375 1.27344-4.4414-1.16016-3.17188-2.68359-1.26562-.33203-4.4375-.5664-4.4375-.69923-2.35547-2.84375"/><path fill="#00c4fc" fill-rule="evenodd" d="M161.73047 404.8711l-1.50781-4.4375 1.52734-3.21876 2.04297-1.21875 2.39453-1.39453 4.4375.3164v2.77735l-4.4375 1.00781-3.27344 1.73047 3.27344 1.26954 4.4375 1.8125 2.97656 1.35546 1.46094.4375 4.4414 1.91016 4.4375.52344 4.4375-.13672 4.4375-1.4961.87891-1.23828-.39062-4.4375-.48828-.48437-4.4375-1.38281-4.4375-.44141-4.4375-.08594-4.44141.14453-4.4375-.48828v-2.77734l4.4375.5 2.16016.57812 2.28125.51954 4.4375.65625 4.4375.5664 4.4375 1.21875 1.47656 1.47656.52344 4.4375-2 2.82032-4.4375 1.03515-4.4375.28906-4.4375.03125-4.44141-1.33984-4.4375-1.25-4.4375-1.53906-4.4375-.01953-.01953-.02735"/><path fill="#00b8fc" fill-rule="evenodd" d="M166.1875 401.70313l-3.27344-1.26954 3.27344-1.73046 4.4375-1.00782 4.4375.48828 4.4414-.14453 4.4375.08594v.95313l-4.4375.48437-2.90234.8711 1.76563 4.4375 1.13672.51562 4.4375 1.08203 4.4375.01953 3.85156-1.61719-.6914-4.4375-3.16016-1.03906-4.4375-.3164v-.95313l4.4375.4414 4.4375 1.38282.48828.48437.39062 4.4375-.8789 1.23829-4.4375 1.49609-4.4375.13672-4.4375-.52344-4.44141-1.91016-1.46094-.4375-2.97656-1.35546-4.4375-1.8125"/><path fill="#50fcfc" fill-rule="evenodd" d="M179.5039 367.46094l-3.34765-2.53125 3.34766-4.01172.13672-.42969 4.30078-3.72265v1.92187l-2.08203 1.80078 2.08203 1.67188 1.73047-1.67188-1.73047-1.80078v-1.92188l3.57812 3.72266-3.57812 3.45703-2.17188.98438-2.26562 2.53125"/><path fill="#00a8fc" fill-rule="evenodd" d="M178.36719 404.8711l-1.76563-4.4375 2.90235-.8711 4.4375-.48438v.95313l-2.20703.40234 1.04687 4.4375 1.16016.32422 4.4375.17188 1.17968-.4961-.52734-4.4375-.65234-.21484-4.4375-.1875v-.95313l4.4375.31641 3.16015 1.03906.6914 4.4375-3.85155 1.6172-4.4375-.01954-4.4375-1.08203-1.13672-.51563"/><path fill="#009800" fill-rule="evenodd" d="M182.78125 404.8711l-1.04688-4.4375 2.20704-.40235 4.4375.1875.65234.21484.52734 4.4375-1.17968.4961-4.4375-.17188-1.16016-.32422"/><path fill="#00e8fc" fill-rule="evenodd" d="M183.9414 362.16016l-2.08202-1.67188 2.08203-1.80078 1.73047 1.80078-1.73047 1.67188"/><path fill="#50fcfc" fill-rule="evenodd" d="M183.67578 378.24219l-.55078-4.4375.8164-.57813 4.4375-1.6289 1.9922-2.23047.17577-4.4375-.39843-4.4414-1.01172-4.4375 3.67969-3.8125v2.70702l-1.06641 1.10547 1.0664 2.57031 1.25391 1.8672 1.46875 4.4414 1.71875 2.16797 2.08985-2.16797-.16407-4.4414-1.92578-3.01563-2.07031-1.42188-2.3711-1.10547v-2.70703l4.44141.16406 3.44531-.78906.10547-4.4375.88672-.36719 3.28516.3672 1.15234.35937 1.85547 4.07812-1.85547 2.82422-1.53515 1.61328-2.79688 4.4375 3.6211 4.4414-3.72657 2.34766-2.0625 2.08985-2.375 2.57812-4.4414.84375-1.19141 1.01563-3.2461 2.36719-4.14452 2.0703-.29297.28516-.26563-.28515"/><path fill="#00e8fc" fill-rule="evenodd" d="M192.8164 358.6211l-1.0664-2.57032 1.0664-1.10547 2.3711 1.10547 2.07031 1.42188 1.92578 3.01562.16407 4.4414-2.08985 2.16798-1.71875-2.16797-1.46875-4.4414-1.2539-1.8672"/><path fill="#50fcfc" fill-rule="evenodd" d="M198.33594 382.67969l-.2461-4.4375 3.60547-3.4375.71485-1 3.72265-4.41406v1.6953l-2.29297 2.71876-2.14453 2.9961-1.51172 1.4414-.16406 4.4375 1.67578 1.83594 4.4375.08984 2.01172-1.92578 2.42578-4.03125.59766-.40625-.59766-.41797-2.03906-4.01953-2.39844-2.71875v-1.69531l3.89063 4.41406.54687 1.07812 4.4414 2.78906.58204.57032-.58203.5-4.4414 2.7539-.71095 1.1836-3.72656 3.5586-4.4375.12108-3.35937-3.67968m3.35937 14.32812l-1.875-1.01172 1.875-1.17578 1.125 1.17578-1.125 1.01172"/><path fill="#00e8fc" fill-rule="evenodd" d="M201.69531 384.51563l-1.67578-1.83594.16406-4.4375 1.51172-1.4414 2.14453-2.9961 2.29297-2.71875v3.19922l-1.53906 3.95703 1.53906 2.2461 1.10156-2.2461-1.10156-3.95703v-3.19922l2.39844 2.71875 2.03906 4.01953.59766.41797-.59766.40625-2.42578 4.03125-2.01172 1.92578-4.4375-.08985"/><path fill="#00d4fc" fill-rule="evenodd" d="M206.13281 380.48828l-1.53906-2.2461 1.53906-3.95702 1.10156 3.95703-1.10156 2.2461"/><path fill="#50fcfc" fill-rule="evenodd" d="M263.22656 391.5586l-.73047-4.4375 1.33594-1.35548 1.7461 1.35547 2.6914 4.26954.16016.16796-.16016.11329-4.4375.49218-.60547-.60547m12.26563-8.8789l-.36328-4.4375 2.01953-2.15235 3.9336 2.15235.5039.63672 2.58984 3.80078-2.58984 3.00781-1.44531 1.4336-1.7422 4.4375-1.25 1.77734-1.60156-1.77735-.08593-4.4375.03125-4.4414m6.09375 63.16406l-.86328-1.02734.86328-1.03516 2.51172-3.40234 1.92578-1.33204 4.4375-.4414 4.4375.77344 2.26953 1-2.26953 2.42578-.73047 2.01172-3.70703 3.72656-4.4375-1.41016-4.4375-1.28906m13.3125-57.63672l-1.11328-1.08594 1.11328-1.47265 3.6875-2.96875.7539-1.14063 1.05079 1.14063 1.21484 4.4414 2.17187 3.37891.5 1.0586 3.9375 4.22265.23047.21484-.23047.21485-.21484-.21485-4.22266-3.9375-.5039-.5-3.9336-3.10937-4.4414-.24219"/><g clip-path="url(#d)"><path fill="#50fcfc" fill-rule="evenodd" d="M303.77734 448.14453l-3.1328-3.32812 3.1328-3.78516.85547-.65234 3.58203-1.47657 4.4375-1.75 4.44141-.47656 4.4375-.01953 4.4375-.0664 4.4375.53906 4.03125-1.1875.40625-.32032 4.4414-2.42578 1.0625-1.6914 3.375-3.54297 4.4375-.1211 4.4375-.41796 4.44141 1.6875 1.95703 2.39453-1.95703 3.53125-.1836.90625.1836.16406 4.4375-.08594.52735-.07812 3.91015-2.04297 4.4375-1.35938 1.1289-1.03515.95313-4.4375 2.35547-2.25391 4.4414-.14063v2.60547l-4.4414 1.01563-1.53906 3.21094-2.89844 2.66406-3.17578 1.77344-1.26172 1.48437-4.4375-.3789-4.4375.30859-1.55078-1.41406.75781-4.4375-3.64843-2.82032-4.4375 1.35938-4.4375-.29297-1.67188 1.7539-2.76562 4.41016-.05079.02735-4.39062 1.48437-4.4375 2.52735-4.4375-1.9922-4.4375.09376-4.4375.14062-4.4414 1.6836-.81641.5-2.28516 4.4375 2.40625 4.4414.35156 4.4375.34375.3164 4.44141 1.77735 4.4375 2.1836.32422.16015 4.11328 3.58203 2.92969.85547 1.50781 1.28516 4.4375 1.6211 4.4414-.19532 4.4375-.08594 4.4375.14453 4.4375-.82812 4.44141-.70313 3.33594-1.23828 1.10156-.14062 4.4375-1.46094 4.4375-1.38281 1.69922-1.45313 2.73828-.67187 4.4414.125 4.4375-.875 2.48829-3.01563 1.51172-4.4375.4375-1.73828v4.0039l-.5625 2.17188.5625 3.17188 1.9336-3.17188-1.9336-2.17187v-4.0039l2.00781-2.70313-1.75781-4.4375-.09375-4.4375-.15625-.14844-3.1875-4.28906-1.25-2.21094-4.4375-2.01563v-2.60546l4.4375.6914 1.75 1.70313 1.63672 4.4375 1.05078 1.41015 3.1211 3.02735.14062 4.4375.99219 4.4375-1.72266 4.4414 1.90625 1.67578 1.69922-1.67578 2.73828-3.1836 3.57031-1.2578.8711-.46485 3.85546.46485.58204.20703.02343-.20703.90625-4.4375 3.50781-4.2422.25782-.1953 4.17969-3.53907 4.4414.07032V434.25l-4.4414.6211-1.26563 1.0703-3.17188 2.42579-1.66406 2.01172.38281 4.4375 1.28125 1.74218v7.23438l-4.4375.71875-3.2539 3.6211-1.1836 2.49218-1.30078 1.94531 1.30079 1.41406 4.4375 1.78907 2.17578 1.23828-1.60938 4.4375-.35156 4.4375 4.22265 3.3086 4.4375.33593L419.17579 478l2.11328-2.11328-2.11328-3.1914-.5039-1.2461-.73047-4.4375 1.23437-.5 4.4375-1.14453 3.5586-2.79688.73046-4.4375-4.28906-3.11328-4.4375.00781-4.4414.9336-4.4375-2.16797v-7.23438l2.35156-1.74218 2.08594-1.23047 1.84765-3.20703 2.59375-2.58204 2.32422-1.85546-2.32422-1.69141v-1.77734l4.4375 2.71875 1.25781.75-1.2578.9375-4.4375 2.86328-.64063.63672-1.57422 4.4375-.70313 4.4414 2.91797 2.69922 1.45313 1.73828 2.98437.51172 4.4375-.50781 2.52735 4.4336-1.15235 4.4375-1.375 1.37109-4.4375 2.41015-4.1836.66016 1.4297 4.4375 1.82812 4.4375-3.51172 3.50781-4.4414.61328-4.4375-.13281-4.4375-1.64063-2.58204-2.34765-1.85546-4.10547-.3711-.33203.3711-.38281 2.84765-4.0547-2.84765-.96093-3.20704-3.48047-1.23437-2.34765-4.4375-.40625-4.4375-.78516-4.4375-.01172-4.4375-.8711-.02735-.01562-4.41406-.13672-.5586.13672-3.8789 3.32031-4.4375.58204-1.71094.53515-2.72656 2.4414-4.4375.86329-4.4414.49219-4.4375.17187-4.4375-.10937-4.4375-.01953-4.44141.13671-4.4375-.41406-4.1875-3.5625-.25-.07031-4.4375-1.67969-3.22266-2.6875-1.21484-.45703-4.4414-.95312-3.31641-3.02735-.86328-4.4375-.25782-3.125-4.4375 2.01172"/></g><path fill="#00e8fc" fill-rule="evenodd" d="M311.95703 449.25781l-2.40625-4.4414 2.28516-4.4375.8164-.5 4.44141-1.6836 4.4375-.14062 4.4375-.09375 4.4375 1.99219 4.4375-2.52735 4.39063-1.48437.05078-.02735 2.76562-4.41015 1.67188-1.75391 4.4375.29297 4.4375-1.35938 3.64843 2.82032-.7578 4.4375 1.55077 1.41406 4.4375-.3086 4.4375.37891 1.26172-1.48437 3.17578-1.77344 2.89844-2.66406 1.53906-3.21094 4.4414-1.01563v1.5l-3.51952 2.72657-.92188 1.91796-2.85937 2.51954-1.57813.24218-4.10937 4.19532-.32813.36328-1.4961-.36328-2.9414-1.625-4.4375.67968-3.83203-3.49218.32031-4.4375-.92968-.71875-1.60547.71875-2.83203 1.48437-4.4375-.51562-2.65235 3.46875-1.78515 3.03906-4.44141 1.03515-.59375.36329-3.84375.92578-4.16797-.92578-.26953-.13282-4.2539.13282-.1836.0039-4.4375.41797-4.4414 2.76953-.80079 1.2461.80078 1.26171.75782 3.1797 3.68359 4.11718.28906.32031 4.14844 3.53516 1.82422.90234 2.61328 2.27735 4.4375 1.19921 2.26953.96094 2.16797 1.1289 4.4414-.29687 4.4375-.26562 4.4375.19922 2.25-.76563 2.1875-.7461 4.44141-.40624 4.4375-.19531 4.4375-2.03125 2.34375-1.0586 2.09375-.74219 4.4375-.8203 4.4414.10156 4.4375-2.76172.17579-.21485 2.55078-4.4375.5586-4.4414-3.28516-2.16797-3.16406-2.26953-.19922-4.4375 2.19531-4.4375-3.26953-2.72657v-1.5l4.4375 2.01563v9.54297l-.875 1.54297.875.6289 3.92969-.6289-3.9297-1.54297v-9.54297l1.25 2.21094 3.1875 4.28906.15626.14844.09375 4.4375 1.75781 4.4375-2.00781 2.70312-.4375 1.73828-1.51172 4.4375-2.48828 3.01563-4.4375.875-4.4414-.125-2.73829.67187-1.69922 1.45313-4.4375 1.38281-4.4375 1.46094-1.10156.14062-3.33594 1.23828-4.4414.70313-4.4375.82812-4.4375-.14453-4.4375.08594-4.44141.19531-4.4375-1.6211-1.50781-1.28515-2.92969-.85547-4.11328-3.58203-.32422-.16015-4.4375-2.1836-4.4414-1.77734-.34376-.3164-.35156-4.4375"/><path fill="#00d4fc" fill-rule="evenodd" d="M312.65234 446.07813l-.80078-1.26172.80078-1.2461 4.44141-2.76953 4.4375-.41797.1836-.0039 4.2539-.13282.26953.13282 4.16797.92578 3.84375-.92578.59375-.36329 4.4414-1.03515 1.78516-3.03906 2.65235-3.46875v2.35156l-.85547 1.11719-2.14844 4.4375-1.4336.53125-4.4414.28906-4.4375 1.1211-4.4375-.40626-4.4375.44531-4.4375 1.53125-1.40234.92579-1.41797 4.4414 2.82031 3.15235 1.16406 1.28515 3.27344 2.78906 3.32422 1.64844 1.11328.96875 4.4375 1.05469 4.4375 1.85156 4.4414-.15234 4.4375-.30469 4.4375.08594 4.4375-1.8164 4.44141-.19923 4.4375.39844 3.52735-1.88672.91015-.71484 4.4375-1.42188 4.4375-.3203 4.4414.08202 3.14845-2.0625 1.28906-1.98437 1.45312-2.45313-.65234-4.4414-.80078-.52735-4.4375-3.02734-1.41016-.88281-3.03125-3.19141-4.4375-.30469-3.42578 3.4961-1.01172 1.11718-4.4375-1.07421-4.4375.28125-.86719-.32422-3.57421-3.34375-3.4922-1.09375-.9453-.48829-4.4375-.6289v-2.35156l4.4375.51562 2.83203-1.48437 1.60547-.71875.92968.71875-.3203 4.4375 3.83202 3.49218 4.4375-.67968 2.9414 1.625 1.4961.36328.32813-.36328 4.10937-4.19532 1.57813-.24218 2.85937-2.51954.92188-1.91796 3.51953-2.72657v1.5l-1.58594 1.22657 1.58594 2.10156 1.47265-2.10156-1.47265-1.22657v-1.5l3.26953 2.72657-2.19531 4.4375.19922 4.4375 3.16406 2.26953 3.28515 2.16797-.55859 4.4414-2.55078 4.4375-.17578.21485-4.4375 2.76171-4.4414-.10156-4.4375.82031-2.09376.7422-2.34375 1.05859-4.4375 2.03125-4.4375.1953-4.4414.40626-2.1875.7461-2.25.76562-4.4375-.19922-4.4375.26562-4.44141.29688-2.16797-1.1289-2.26953-.96094-4.4375-1.19922-2.61328-2.27735-1.82422-.90234-4.14844-3.53516-.28906-.32031-3.6836-4.11719-.7578-3.17969"/><path fill="#00c4fc" fill-rule="evenodd" d="M317.09375 452.41016l-2.82031-3.15235 1.41797-4.4414 1.40234-.92579 4.4375-1.53125 4.4375-.4453 4.4375.40624 4.4375-1.1211 4.4414-.28905 1.4336-.53125 2.14844-4.4375.85547-1.1172 4.4375.62892v1.27343l-4.4375 2.73438-.36329.91797-4.07421 1.51171-4.44141.26172-4.4375 1.1836-4.4375.20312-4.4375.79297-1.16016.48438-3.27734 1.04296-1.96094 3.39844 1.96094 2.1914 2.03516 2.2461 2.40234 2.04688 4.4375 2.04297 1.76172.34765 2.67578.57031 4.4375 1.76563 4.4414.10156 4.4375-.42187 4.4375-.02344 3.96485-1.99219.47266-1.5664 4.4414.59765 1.03906.96875 3.39844.6836 1.27344-.6836 3.16406-2.49219 4.4375-1.03515 4.4375.17969 4.4414.05859 1.75392-1.14844 2.68359-4.1289.1836-.3086-.1836-.77734-2.0586-3.66406-2.3789-1.5586-4.4414-2.8164-.04688-.0625-4.39063-2.80079-2.74219 2.80079-1.6953 1.86718-4.4375-.9453-4.4375-.00782-2.45704-.91406-1.98437-1.85547-4.4375-1.79688v-1.27344l.9453.48829 3.4922 1.09375 3.57421 3.34375.8672.32421 4.4375-.28125 4.4375 1.07422 1.01171-1.11718 3.42578-3.4961 4.4375.30469 3.03125 3.1914 1.41016.88282 4.4375 3.02734.80078.52735.65234 4.4414-1.45312 2.45313-1.28906 1.98437-3.14844 2.0625-4.4414-.08203-4.4375.32031-4.4375 1.42188-.91016.71484-3.52735 1.88672-4.4375-.39844-4.4414.19922-4.4375 1.8164-4.4375-.08593-4.4375.30469-4.44141.15234-4.4375-1.85156-4.4375-1.05469-1.11328-.96875-3.32422-1.64844-3.27344-2.78906-1.16406-1.28515"/><path fill="#50fcfc" fill-rule="evenodd" d="M317.09375 393.6914l-2.13672-2.1328 2.13672-2.83204 2.14844 2.83203-2.14844 2.13282"/><path fill="#00b8fc" fill-rule="evenodd" d="M317.09375 451.44922l-1.96094-2.1914 1.96094-3.39844 3.27734-1.04297 1.16016-.48438 4.4375-.79297 4.4375-.20312 4.4375-1.1836 4.4414-.26171 4.07423-1.51172.36328-.91797 4.4375-2.73438v.98438l-3.3672 2.66797-1.0703 1.22656-4.4375 1.26562-4.44141.23438-4.4375 1.2461-3.01953.46484-1.41797.5-4.4375.51562-4.4375 1.51953-1.10156 1.90625 1.10156 1.22656 2.91016 3.21094 1.52734 1.30078 4.4375 1.44532 4.4375.78906 2.39844.90234 2.03906.79688 4.4414.35937 4.4375-.54687 4.4375-.13281.94923-.47657.85546-4.4375 2.63282-3.57422 4.4414 1.6211 3.35156 1.95312 1.08594.98047 4.4375-.8125.94531-.16797 3.4922-.4961 2.70312.4961 1.73437.19922 4.4414.03906.35938-.23828 2.88672-4.4375-3.2461-4.0625-.39843-.3789-4.04297-3.00782-1.14062-1.42968-3.29688-2.10157-2.0586 2.10157L365.91407 443l-4.4375-.8164-4.4375-.30079-4.04687-1.5039-.39453-.3672-4.4375-2.30077v-.98438l4.4375 1.79688 1.98437 1.85547 2.45703.91406 4.4375.00781 4.4375.94531 1.69531-1.86718 2.7422-2.80079 4.39062 2.80079.04687.0625 4.4414 2.8164 2.37892 1.5586 2.05859 3.66406.1836.77734-.1836.3086-2.6836 4.1289-1.7539 1.14844-4.4414-.0586-4.4375-.17968-4.4375 1.03515-3.16407 2.4922-1.27344.68359-3.39844-.6836-1.03906-.96875-4.4414-.59765-.47266 1.5664-3.96484 1.99219-4.4375.02344-4.4375.42187-4.44141-.10156-4.4375-1.76563-2.67578-.5703-1.76172-.34766-4.4375-2.04297-2.40234-2.04688-2.03516-2.2461"/><path fill="#00a8fc" fill-rule="evenodd" d="M317.09375 450.48438l-1.10156-1.22657 1.10156-1.90625 4.4375-1.51953 4.4375-.51562 1.41797-.5 3.01953-.46485 4.4375-1.2461 4.4414-.23437 4.4375-1.26562 1.07032-1.22656 3.36719-2.66797v.98047l-2.12891 1.6875-2.3086 2.64843-4.4375.82032-4.4414.21093-2.64453.75782-1.79297 1.24609-4.4375 1.55469-4.4375-.4414-4.4375 1.66796-.23828.41406.23828.26563 3.78125 4.17187.65625.5586 4.4375.84375 4.4375.64843 4.4375 1.44141 4.4414.75 4.4375-1.5586 2.78907-2.68359 1.64844-2.50781 1.42968-1.92969 3.00782-.75 4.4414.23828 4.4375-1.05078v1.4414l-.65625.1211.65625 1.80078 1.17969-1.80078-1.17969-.1211v-1.4414h4.4375l1.35156 1.5625 3.08594 2.51172 1.23047-2.51172 3.20703-3.51562v.76953l-2.5039 2.7461 2.5039 4.17577 2.6836-4.17578-2.6836-2.7461v-.76952l3.4336 3.51562 1.0078 2.85938 1.85938-2.85938-1.85937-2.32812L377 444.8164l-2.21094-1.64454-2.23437-2.79296-2.20313-1.40235-1.375 1.40235-3.0625 3.375-4.4375-.69141-4.4375-.59375-4.4414-1.39844-1.35157-.6914-3.08593-1.6875v-.98047l4.4375 2.30078.39453.36719 4.04687 1.5039 4.4375.30078 4.4375.81641 2.3789-2.6211 2.0586-2.10156 3.29688 2.10157 1.14062 1.42968 4.04297 3.00782.39844.3789 3.2461 4.0625-2.88673 4.4375-.35937.23828-4.4414-.03906-1.73438-.19922-2.70313-.4961-3.49219.4961-.9453.16797-4.4375.8125-1.08594-.98047-3.35157-1.95312-4.4414-1.6211-2.63282 3.57422-.85546 4.4375-.94922.47656-4.4375.13282-4.4375.54687-4.44141-.35937-2.03906-.79688-2.39844-.90234-4.4375-.78906-4.4375-1.44532-1.52734-1.30078-2.91016-3.21094"/><path fill="#009800" fill-rule="evenodd" d="M317.09375 449.52344l-.23828-.26563.23828-.41406 4.4375-1.66797 4.4375.4414 4.4375-1.55468 1.79297-1.2461 2.64453-.7578 4.4414-.21094 4.4375-.82032 2.3086-2.64843 2.1289-1.6875v.98046l-.89062.70704-3.54687 4.0703-4.25391.3672-.1836.02343-4.4414.40235-4.4375 3.125-2.53516.89062-1.90234 3.875-1.53516-3.875-2.90234-.73828-1.91016.73828 1.91016 3.04688 3.80078 1.39062.63672.05469 4.4375.51563 4.4375.95703 4.4414.71484 3.96094-2.24219.47657-.57812 2.64843-3.85938 1.78907-2.80078 4.4375 1.14453 4.4414.16016 4.4375-1.50781 4.4375-.58985 3.10938 3.59375 1.32812 1.07813.53125-1.07813 3.90625-4.28125 4.1836 4.28125.2578.72266.47267-.72266-.47266-.59375-4.0664-3.84765-.375-.27735-3.32813-4.16015-1.10938-.70704-.6914.70704-3.7461 4.125-4.4375-.5625-4.4375-.88282-4.4414-1.0703-3.14454-1.60938-1.29296-.70704v-.98046l3.08593 1.6875 1.35157.6914 4.4414 1.39844 4.4375.59375 4.4375.6914 3.0625-3.375 1.375-1.40234 2.20313 1.40235 2.23437 2.79296L377 444.81642l2.23047 2.11328 1.85937 2.32812-1.85937 2.85938-1.00781-2.85938-3.4336-3.51562-3.20703 3.51562-1.23047 2.51172-3.08594-2.51172-1.35156-1.5625h-4.4375l-4.4375 1.05078-4.4414-.23828-3.00782.75-1.42968 1.92969-1.64844 2.50781-2.78906 2.6836-4.4375 1.55859-4.44141-.75-4.4375-1.4414-4.4375-.64844-4.4375-.84375-.65625-.5586-3.78125-4.17187"/><path fill="#00ac00" fill-rule="evenodd" d="M321.53125 452.30469l-1.91016-3.04688 1.91016-.73828 2.90234.73828 1.53516 3.875 1.90234-3.875 2.53516-.89062 4.4375-3.125 4.4414-.40235v1.87891l-4.4414.61328-2.66016 1.92578 2.66016 3.57031 2.86328.8672 1.57813.24609.43359-.2461 3.69531-4.4375-4.1289-2.53906v-1.8789l.18359-.02344 4.2539-.3672 3.54688-4.0703.89063-.70704 1.29296.70704 3.14454 1.60937v.91797l-3.38672 1.91016 3.38672 1.8828 4.4414.07423 4.42969-1.95703-4.42969-1.16797-4.4414-.74219v-.91797l4.4414 1.07031 4.4375.88282 4.4375.5625 3.7461-4.125.6914-.70704v.69922l-.00781.00782.00781.08593.01172-.08593-.01172-.00782v-.69921l1.10938.70703 3.32812 4.16015.375.27735 4.0664 3.84765.47267.59375-.47266.72266-.25781-.72266-4.1836-4.28125-3.90625 4.28125-.53125 1.07813-1.32812-1.07813-3.10938-3.59375-4.4375.58985-4.4375 1.5078-4.4414-.16015-4.4375-1.14453-1.78907 2.80078-2.64843 3.85938-.47657.57812-3.96093 2.24219-4.44141-.71484-4.4375-.95704-4.4375-.51562-.63672-.05469-3.80078-1.39062"/><path fill="#00c800" fill-rule="evenodd" d="M334.84375 452.82813l-2.66016-3.57032 2.66016-1.92578 4.4414-.61328 4.12891 2.53906-3.69531 4.4375-.4336.2461-1.57812-.2461-2.86328-.86719"/><path fill="#50fcfc" fill-rule="evenodd" d="M334.84375 393.23828l-1.88672-1.67969 1.88672-1.67968 1.71484 1.67968 2.72657 1.45313v2.25l-.73047.73437.73047.8125.73046-.8125-.73046-.73437v-2.25l2.96875 2.98437-2.96875 3.3047-2.95704-3.3047-1.48437-2.7578"/><path fill="#00e8fc" fill-rule="evenodd" d="M339.28516 396.8086l-.73047-.8125.73047-.73438.73046.73437-.73046.8125"/><g clip-path="url(#e)"><path fill="#50fcfc" fill-rule="evenodd" d="M343.20703 480.32422l.51563-.21875.3125.21875h-.82813"/></g><path fill="#00c800" fill-rule="evenodd" d="M352.59766 446.69922l-3.38672-1.88281 3.38672-1.91016v1.83984l-.12891.07032.1289.07421 3.55079-.07421-3.55078-.07032v-1.83984l4.4414.74219 4.42969 1.16797-4.42969 1.95703-4.4414-.07422"/><path fill="#10cc00" fill-rule="evenodd" d="M352.59766 444.89063l-.12891-.07422.1289-.07032 3.55079.07032-3.55078.07421"/><path fill="#00b8fc" fill-rule="evenodd" d="M361.47656 449.13672l-.65625.1211.65625 1.80077 1.17969-1.80078-1.17969-.1211"/><path fill="#00c800" fill-rule="evenodd" d="M370.35156 440.46484l-.00781-.08593.00781-.00782.01172.00782-.01172.08593"/><path fill="#00b8fc" fill-rule="evenodd" d="M374.78906 446.51172l-2.5039 2.7461 2.5039 4.17577 2.6836-4.17578-2.6836-2.7461v.76563l1.9336 1.98047-1.9336 3.00781-1.80469-3.0078 1.8047-1.98048v-.76562"/><path fill="#00c4fc" fill-rule="evenodd" d="M374.78906 447.27734l-1.80469 1.98047 1.8047 3.00781 1.93359-3.0078-1.9336-1.98048v.76563l1.1875 1.21484-1.1875 1.83985-1.10547-1.83985 1.10547-1.21484v-.76563"/><path fill="#00d4fc" fill-rule="evenodd" d="M374.78906 448.04297l-1.10547 1.21484 1.10547 1.83985 1.1875-1.83985-1.1875-1.21484v.76953l.4375.44531-.4375.67578-.40234-.67578.40234-.44531v-.76953"/><path fill="#00e8fc" fill-rule="evenodd" d="M374.78906 448.8125l-.40234.44531.40234.67578.4375-.67578-.4375-.44531"/><path fill="#00c4fc" fill-rule="evenodd" d="M379.23047 433.60547l-1.58594-2.10156 1.58594-1.22657 1.47265 1.22657-1.47265 2.10156"/><path fill="#50fcfc" fill-rule="evenodd" d="M383.66797 438.83594l-.875 1.54297.875.6289 3.92969-.6289-3.9297-1.54297"/><path fill="#fff" fill-opacity="0" fill-rule="evenodd" d="M388.10547 451.52344l-.5625 2.17187.5625 3.17188 1.9336-3.17188-1.9336-2.17187"/><path fill="#00e8fc" fill-rule="evenodd" d="M401.42188 463.98438l-1.30079-1.41407 1.30079-1.94531 1.18359-2.49219 3.2539-3.6211 4.4375-.71874 4.4375 2.16797 4.44141-.9336 4.4375-.0078v1.35546l-4.33594 1.75781-.10156.03906-4.4414.53516-4.4375 1.0664-2.04688-1.64062-2.39063-1.10156-.98828 1.10156.09375 4.4375.89454.41797 4.4375 1.98828 2.30468 2.03516-2.30469 4.25781-.08593.17969-2.69531 4.4375 2.78125 2.17969 4.4375.67187 4.33203-2.85156-1.81641-4.4375-1.44531-4.4375 3.3711-1.36719 4.4375-1.91797 1.46874-1.15625.94922-4.4375-2.41797-1.75781v-1.35547l4.28906 3.11328-.73046 4.4375-3.5586 2.79688-4.4375 1.14453-1.23437.5.73046 4.4375.50391 1.2461 2.11328 3.1914L419.17578 478l-4.4414 1.53125-4.4375-.33594-4.22266-3.3086.35156-4.4375 1.60938-4.4375-2.17579-1.23827-4.4375-1.78906"/><path fill="#00d4fc" fill-rule="evenodd" d="M404.96484 462.57031l-.09375-4.4375.98829-1.10156 2.39062 1.10156 2.04688 1.64063 4.4375-1.0664 4.4414-.53517.10156-.03906 4.33594-1.75781v1.35938l-.98828.39843-3.44922 1.27735-4.4414.35156-3.90625 2.8086 3.90625 3.73827v2.44532l-1.96094 2.6953-2.47656 2.27345-1.33985 2.16406 1.33985 1.05078 4.4375 1.0039 3.125-2.05468-2.02735-4.4375-1.09765-2.69531v-2.44532l4.4414-1.52734 3.97266-2.21094.46484-2.22656.55078-2.21094-.55078-.39844V456.375l2.41797 1.75781-.94922 4.4375-1.46875 1.15625-4.4375 1.91797-3.3711 1.36719 1.44532 4.4375 1.8164 4.4375-4.33202 2.85156-4.4375-.67187-2.78125-2.1797 2.6953-4.4375.08594-.17968 2.3047-4.25781-2.3047-2.03516-4.4375-1.98828-.89453-.41797"/><path fill="#00e8fc" fill-rule="evenodd" d="M409.01563 444.8164l-.38282-4.4375 1.66406-2.01171 3.17188-2.42578 1.26563-1.07032 4.4414-.62109 2.32422 1.6914-2.32422 1.85548-2.59375 2.58203-1.84765 3.20703-2.08594 1.23047-2.35156 1.74218-1.28125-1.74218"/><path fill="#00c4fc" fill-rule="evenodd" d="M410.29688 476.9375l-1.33985-1.05078 1.33985-2.16406 2.47656-2.27344 1.96094-2.69531V472l-4.25391 3.88672 4.2539 1.26172 1.91797-1.26172L414.73438 472v-3.2461l1.09765 2.69532 2.02735 4.4375-3.125 2.05469-4.4375-1.00391"/><path fill="#00b8fc" fill-rule="evenodd" d="M414.73438 477.14844l-4.25391-1.26172L414.73437 472v2.44922l-1.57421 1.4375 1.57421.46484.71094-.46484-.71094-1.4375V472l1.91797 3.88672-1.91796 1.26172"/><path fill="#00c4fc" fill-rule="evenodd" d="M414.73438 466.3086l-3.90625-3.73829 3.90625-2.8086 4.4414-.35155v1.23828l-4.4414.16797-2.4375 1.7539 2.4375 2.33594 4.4414-.99219 2.41406-1.34375-2.41406-1.92187v-1.23828l3.44922-1.27735.98828-.39844.55078.39844-.55078 2.21094-.46484 2.22656-3.97266 2.21094-4.4414 1.52734"/><path fill="#00b8fc" fill-rule="evenodd" d="M414.73438 464.90625l-2.4375-2.33594 2.4375-1.7539v1.05468l-.97266.69922.97265.9336 4.44141-.45704.85547-.47656-.85547-.67969-4.4414-.01953v-1.05468l4.4414-.16797 2.41406 1.92187-2.41406 1.34375-4.4414.99219"/><path fill="#50fcfc" fill-rule="evenodd" d="M412.73828 427.0664l-.03125-4.4414 2.02735-2.01172 4.4414-1.26562 4.4375-.88672.3789-.27344 4.0586-3.16016 4.4375-.83203 4.4375-.1211.96485-.32421 3.47656-3.41016 4.4375-.74218 1.90234-.28516 2.53516-2.14844v2.40235l-4.4375.7578-4.4375 2.79298-.64844.63281-3.79297 1.28516-4.4375.03515-4.4375 1.8711-1.59765 1.24609-2.83985 2.03906-4.4375 1.53516-1.76172.86328 1.76172 4.40625.02344.03516 4.41406 1.01953 4.4375 1.05469 4.4375.34765 4.4375-2.27344 4.4414 3.67188.34376.61719 2.48047 4.4375 1.61328 1.72656 4.4375 2.375v3.52734l-.15235 1.2461.15235.41406.5664-.41406-.5664-1.2461v-3.52734l4.4375-.08203 2.9375-4.01953.15234-4.4375 1.3164-4.4375-.0664-4.44141-3.07422-4.4375.3164-4.4375-1.58202-1.09766-4.4375-3.08593v-2.40235l2.07031 2.14844 2.36719 1.25781 4.4414 2.88281.29688.29688-.29688.64844-.6953 3.78906.6953 1.1211 3.00391 3.3164.88281 4.4414-1.98828 4.4375 2.14063 4.4375-2.96094 4.4375-1.07813 1.15235-2.20703 3.28516-2.23437 2.16406-2.63672 2.27734-1.80078 1.92969-1.77735-1.92969-.98828-4.4414-.92969-4.4375-.74218-.39454-1.77344.39454-2.66406 1.2578-3.47266-1.2578 3.47266-2.01954.66015-2.41796-.66015-1.40235-2.96875-3.03515-1.47266-1.0625-4.4375.5039-4.4375.29688-4.4375-1.08985-4.4375-.21875-4.4414-.67578-1.9961-2.1914"/><path fill="#00a8fc" fill-rule="evenodd" d="M414.73438 476.35156l-1.57422-.46484 1.57421-1.4375.71094 1.4375-.71094.46484m0-12.84765l-.97265-.9336.97265-.69922 4.44141.01954.85547.67968-.85547.47656-4.4414.45704"/><path fill="#00e8fc" fill-rule="evenodd" d="M419.17578 427.03125l-1.76172-4.40625 1.76172-.86328 4.4375-1.53516 2.83985-2.03906 1.59765-1.2461 4.4375-1.87109 4.4375-.03515 3.79297-1.28516.64844-.63281 4.4375-2.79297 4.4375-.75781v.89843l-4.4375 1.06641-3.01953 2.21875-1.41797 1.44922-4.4414 1.42969-4.4375-.09375-2.87892 1.65234-1.55859 1.9414-3.58594 2.4961 3.58594 2.92578 4.4375 1.51563 4.4375-1.37891 3.52344 1.3789.91797.76954 2.04297 3.66797 2.39453 3.1875 3.76172 1.25.67578.37109 1.34375-.3711 3.09375-3.58593.16015-.85156 2.53125-4.4375.69141-4.44141-3.38281-3.70703-.3711-.73047-.32421-4.4375-3.7422-3.28516v-.89843l4.4375 3.08593 1.58204 1.09766-.3164 4.4375 3.07421 4.4375.0664 4.4414-1.3164 4.4375-.15234 4.4375-2.9375 4.01954-4.4375.08203-4.4375-2.375-1.61328-1.72656-2.48047-4.4375-.34375-.6172-4.4414-3.67187-4.4375 2.27344-4.4375-.34765-4.4375-1.0547-4.41407-1.01952-.02344-.03516"/><path fill="#50fcfc" fill-rule="evenodd" d="M428.05078 453.6875l-3.6211-4.42969 1.83985-4.4414 1.78125-2.06641v6.15625l-.17969.35156.1797.22266.21483-.22266-.21484-.35156V442.75l2.32422 2.0664 1.96094 4.44141-4.28516 4.42969"/><path fill="#00d4fc" fill-rule="evenodd" d="M428.05078 425.55078l-3.58594-2.92578 3.58594-2.4961 1.5586-1.9414 2.8789-1.65234 4.4375.09375 4.4414-1.4297 1.41798-1.44921 3.01953-2.21875 4.4375-1.0664v.89452l-4.4375 1.38282-1.3711 1.00781-3.0664 3.125-4.30078 1.3125-.14063.09375-.72656-.09375-3.71094-.1875-.32812.1875-3.5547 4.4375 3.88282 2.67188 4.4375-1.02344 4.4414 1.09375 1.63673 1.69922 2.10937 4.4375.6914.92187 4.4375 1.47656 2.34376-2.39843 2.09375-2.77344.97656-1.66406 1.44922-4.44141-2.42578-2.65625-.91016-1.78125-.8086-4.4375-2.71874-2.39063v-.89453l3.74219 3.28516.32421 4.4375.3711.73047 3.38281 3.70703-.6914 4.4414-2.53126 4.4375-.16015.85157-3.09375 3.58594-1.34375.37109-.67578-.3711-3.76172-1.25-2.39453-3.1875-2.04297-3.66796-.91797-.76953-3.52344-1.37891-4.4375 1.3789-4.4375-1.51562"/><path fill="#00e8fc" fill-rule="evenodd" d="M428.05078 449.48047l-.17969-.22266.1797-.35156.21483.35156-.21484.22266"/><path fill="#00c4fc" fill-rule="evenodd" d="M432.48828 425.29688l-3.88281-2.67188 3.55469-4.4375.32812-.1875 3.71094.1875.72656.09375.14063-.09375 4.30078-1.3125 3.0664-3.125 1.3711-1.00781 4.4375-1.38281v.89843l-4.03516 1.49219-.40234.2461-4.125 4.1914-.3125 2.27344-4.4414 1.55469-4.4375-1.02735-1.3086 1.63672 1.3086.90234 4.4375-.66796 4.4414.23828 3.82812 3.96875.60938 1.41015 4.03906 3.02735.39844.1328.1289-.1328 3.69141-4.4375.61719-.98047 1.46484-3.46094-1.46484-1.60547-1.44922-2.83203-1.28906-4.4375-1.69922-1.49219v-.89844l2.71875 2.39063.8086 4.4375.91015 1.78125 2.42578 2.65625-1.44922 4.4414-.97656 1.66407-2.09375 2.77344-2.34375 2.39843-4.4375-1.47656-.6914-.92187-2.10938-4.4375-1.63672-1.69922-4.4414-1.09375-4.4375 1.02344"/><path fill="#00b8fc" fill-rule="evenodd" d="M432.48828 423.52734l-1.3086-.90234 1.3086-1.63672 4.4375 1.02735 4.4414-1.5547.3125-2.27343 4.125-4.1914.40235-.2461 4.03516-1.49219v.89844l-1.60547.59375-2.83203 1.71484-2.67969 2.72266.71875 4.4375 1.96094 2.0664 1.34765 2.375 3.08985 2.82813 2.38281-2.82812 2.05469-3.2461.50781-1.19531-.50781-.55469-1.98828-3.88281-1.77344-4.4375-.67578-.59375v-.89844l1.69922 1.49219 1.28906 4.4375 1.44922 2.83203 1.46484 1.60547-1.46484 3.46094-.61719.98047-3.6914 4.4375-.12891.1328-.39844-.1328-4.03906-3.02735-.60938-1.41015-3.82812-3.96875-4.4414-.23829-4.4375.66797"/><path fill="#50fcfc" fill-rule="evenodd" d="M436.92578 394.51172l-2.94922-2.95313.4375-4.4375 2.51172-2.41406 4.4414-1.32812v1.08203l-4.09374 2.66015-.34766 1.72657-.72265 2.71093.72265.72266 1.88281-.72266 2.5586-.67578 2.90625-3.76172-2.90625-2.66015v-1.08203l4.09375 3.74218-2.07031 4.4375-2.02344 2.05079-4.4414.90234"/><path fill="#00e8fc" fill-rule="evenodd" d="M436.92578 392.28125l-.72265-.72266.72265-2.71093.34766-1.72657 4.09375-2.66015v1.8086l-1.3125.85155 1.3125 1.20313.92969-1.20313-.9297-.85156v-1.8086l2.90626 2.66016-2.90625 3.76172-2.5586.67578-1.8828.72266"/><path fill="#00d4fc" fill-rule="evenodd" d="M441.36719 388.32422l-1.3125-1.20313 1.3125-.85156.92969.85156-.9297 1.20313"/><path fill="#00a8fc" fill-rule="evenodd" d="M443.84375 422.625l-.71875-4.4375 2.67969-2.72266 2.83203-1.71484 1.60547-.59375v.97656l-4.4375 2.80078-1.23438 1.25391 1.23438 3.08984.41015 1.34766 2.80079 4.4414 1.22656 1.1211.94531-1.1211 2.98438-4.4414-2.01954-4.4375-1.91015-4.05469v-.97656l.67578.59375 1.77344 4.4375 1.98828 3.88281.50781.55469-.50781 1.19531-2.05469 3.2461-2.38281 2.82812-3.08985-2.82812-1.34765-2.375-1.96094-2.06641"/><path fill="#50fcfc" fill-rule="evenodd" d="M445.80469 464.66406l-2.20313-2.09375 2.20313-2.25 4.4375-1.49219v6.31641l-.96485 1.86719-.23046 4.4375 1.1953 1.34765.90626-1.34765.09765-4.4375-1.0039-1.86719v-6.3164l3.69922-.69532.73828-.10937.125.10937 4.3164 3.95703.44532.48047-.44532 1.73828-4.4414.3086-.92188 2.39453-.47656 4.4375-2.85156 4.4375-.1875.19922-.59375-.19922-3.42188-4.4375.63281-4.4375-1.05468-2.34766"/><path fill="#009800" fill-rule="evenodd" d="M445.80469 421.27734l-1.23438-3.08984 1.23438-1.2539 4.4375-2.80079v1.14453l-4.19531 2.91016 1.26953 4.4375 2.92578 3.9336 2.85547-3.9336-1.48438-4.4375-1.3711-2.91016v-1.14453l1.91016 4.05469 2.01954 4.4375-2.98438 4.4414-.94531 1.1211-1.22656-1.1211-2.80079-4.4414-.41015-1.34766"/><path fill="#00ac00" fill-rule="evenodd" d="M447.3164 422.625l-1.26952-4.4375 4.1953-2.91016v1.14454l-2.54687 1.76562.72266 4.4375 1.82422 2.45313 1.78125-2.45313-.94922-4.4375-.83203-1.76563v-1.14453l1.3711 2.91016 1.48437 4.4375-2.85547 3.9336-2.92578-3.9336"/><path fill="#00c800" fill-rule="evenodd" d="M448.41797 422.625l-.72266-4.4375 2.54688-1.76563.83203 1.76563.94922 4.4375-1.78125 2.45313-1.82422-2.45313"/><path fill="#00e8fc" fill-rule="evenodd" d="M450.24219 472.79688l-1.19531-1.34766.23046-4.4375.96485-1.86719 1.0039 1.86719-.09765 4.4375-.90625 1.34765m0-27.5664l-.15235-.41406.15235-1.2461.5664 1.2461-.5664.41406"/><path fill="#50fcfc" fill-rule="evenodd" d="M463.5586 471.6836l-.2422-.23438.2422-.64063.23437.64063-.23438.23437"/><g clip-path="url(#f)"><path fill="#fff" fill-opacity="0" fill-rule="evenodd" d="M467.99219 480.32422h.0039V311.66797h-.0039.0039v168.65625h-.0039"/></g><path fill="#fff" fill-opacity="0" fill-rule="evenodd" d="M172.23438 426.64063l5.80468-.66797-1.13672-9.89454-5.80078.66407 1.13281 9.89844"/><path fill-rule="evenodd" d="M174.78516 418.16406l.5039-.05469.71875 6.25391-.78125.08985-.51172-4.46094-1.3789.15625-.0625-.55078.54687-.12891.2461-.08203.21484-.11328.1875-.16406.14844-.23047.10937-.3086.0586-.40625"/><path fill="#fff" fill-opacity="0" fill-rule="evenodd" d="M304.8164 447.0664l4.21485-4.04687-6.89844-7.1836-4.21484 4.04298 6.89844 7.1875"/><path fill-rule="evenodd" d="M301.71094 438.78125l.36719-.35547 4.35937 4.54297-.5664.54297-3.10938-3.23828-1.0039.96094-.38282-.39844.35938-.4375.14453-.21094.10156-.22266.05078-.24609-.01953-.26953-.10156-.3125-.19922-.35547"/><path fill="#fff" fill-opacity="0" fill-rule="evenodd" d="M413.21484 438.33203l5.5-1.96484-3.35156-9.3789-5.5039 1.96483 3.35546 9.37891"/><path fill-rule="evenodd" d="M413.77344 429.5l.48047-.16797 2.11718 5.92578-.74218.26563-1.51172-4.22656-1.30469.46484-.1875-.52344.5039-.25.21876-.13281.1875-.16406.14453-.19922.09375-.25781.03125-.32422-.03125-.41016"/><path fill="#fff" fill-opacity="0" fill-rule="evenodd" d="M458.60938 450.70313l3.74609-4.48047-7.64453-6.39063-3.7461 4.48438 7.64454 6.38671"/><path fill-rule="evenodd" d="M454.61719 442.80469l.32422-.39063 4.83203 4.03906-.50781.60157-3.44532-2.8789-.88672 1.0664-.42968-.35547.3125-.47266.11718-.22656.08204-.23438.01953-.24609-.05079-.26953-.1328-.29688-.23438-.33593"/><path fill="#fff" fill-opacity="0" fill-rule="evenodd" d="M380.44922 443.3711l3.3125 7.19921 9.25781-4.25781-3.3086-7.19922-9.26171 4.25781"/><path fill-rule="evenodd" d="M389.08203 442.13281l1.375 2.98438-.67578.3125-1.10156-2.39844-1.73828.54297.24609.14062.23047.1875.21875.25782.1875.33593.11328.3047.0625.34374.0039.36328-.0625.3711-.15234.37109-.10937.17578-.13281.17578-.16407.16406-.1875.15235-.22265.14453-.25.1289-.41797.15626-.42578.07812-.41797.0039-.41016-.07421-.38281-.16016-.1836-.11328-.16796-.13672-.16016-.16015-.14844-.1836-.13672-.20703-.11718-.23047-.16407-.4414-.07421-.40235.0078-.3711.08204-.33983.14062-.3125.20313-.28125.2461-.25.28515-.23047.32812.71484-.17578.17188-.14844.17968-.11328.1875-.07812.19531-.04297.20313-.0039.21094.03906.21484.07812.21875.15235.27344.18359.22656.21094.17188.23828.11718.26562.0625h.28906l.3125-.0625.33594-.125.23047-.1289.21094-.16406.1836-.19532.14452-.23047.09766-.2539.03906-.28125-.03125-.30469-.10937-.32031-.17578-.29297-.21485-.21094-.28515-.16797-.375-.17187-.28907-.6289 3.3047-1.01173"/><path fill="#fff" fill-opacity="0" fill-rule="evenodd" d="M343.65625 466.66016l11.89063-2.85157-2.37891-9.91406-11.89063 2.85547 2.37891 9.91016"/><path fill-rule="evenodd" d="M345.10938 457.71484l.49218-.12109 1.46875 6.125-.76562.1836-1.04688-4.3672-1.34765.32423-.13282-.54297.53125-.19141.23047-.11328.20313-.14063.16406-.18359.1211-.2461.0703-.3164.01173-.41016m4.67968-1.125l.22656-.03125h.22657l.22265.03907.21875.07421.21485.10157.20703.1289.39062.33985.35157.42187.30468.48828.2422.53907.17577.5664.10156.58594.02735.59375-.04688.57813-.11718.54687-.19532.48438-.125.21484-.14453.1914-.16015.16797-.1797.13672-.20312.10938-.21484.07031-.23047.03516-.22656-.00391-.22266-.04297-.21875-.07422-.21484-.10547-.21094-.1328-.39062-.34767-.35547-.42968-.30469-.4961-.24219-.54296-.17578-.57032.8086-.1914.16015.53906.19922.47265.22266.40235.24609.32422.25781.25.2539.16406.25.08203.23048-.00781.21094-.09766.18359-.1836.15234-.26562.11719-.33593.07031-.40235.01953-.46094-.03906-.51171-.10547-.5547-.15625-.53905-.19922-.46485-.22265-.39453-.24219-.32031-.2539-.23828-.25391-.16016-.25-.07422-.23047.00781-.20703.09766-.1875.17969-.15625.25781-.11719.32813-.07031.39453-.02344.45312.03906.5039.10156.5547-.80859.1914-.10156-.58203-.02735-.58984.04688-.57422.1211-.53516.19921-.47656.125-.21094.14453-.1914.16016-.16016.1836-.13672.19921-.10547.21875-.07422"/><path fill="#fff" fill-opacity="0" fill-rule="evenodd" d="M319.26563 459.34766l12.10546 2.03515 1.6875-10.05078-12.10156-2.03515-1.6914 10.05078"/><path fill-rule="evenodd" d="M324.10156 451.6836l.5039.08593-1.04687 6.20703-.77343-.1289.74218-4.4297-1.36718-.23046.08984-.54688.5625.02735.25781-.01172.24219-.04688.22656-.10937.20313-.17578.1914-.26563.16797-.375m3.28516.5547l3.24219.54296-.1211.73047-2.60156-.4375-.53125 1.74219.2539-.1211.28907-.08594.33203-.03515.38281.03125.3164.08203.31642.13672.30468.20312.27344.26172.21875.33203.08594.19141.0664.20703.04688.22656.01953.2461-.0039.26172-.03516.28125-.10938.42968-.16797.39844-.23437.35156-.29297.29297-.35156.22656-.19531.08594-.20704.0664-.22265.04298-.23438.01953-.2461-.00781-.26171-.03125-.45313-.11329-.375-.16406-.30468-.21484-.23438-.25781-.17578-.29297-.1211-.32422-.0703-.34766-.02735-.36328.77735.1289.03906.2422.0664.22265.09375.19922.1172.17578.14452.14844.17188.1211.19531.08984.22656.05859.3164.02734.28907-.02343.26172-.07813.23047-.1289.19922-.1836.16406-.23828.125-.29297.08203-.35156.02735-.26172-.01954-.26563-.05859-.26562-.10547-.2461-.16015-.22656-.21094-.1875-.26563-.14453-.32812-.09375-.33985-.01953-.29687.0625-.29688.13672-.35546.21484-.6836-.11328 1.02344-3.30078"/><path fill="#00f" fill-rule="evenodd" d="M184.07031 472.08203h8.61719V461.9375h-8.61719v10.14453"/><path fill="azure" fill-rule="evenodd" d="M185.90234 463.76953h.83594v2.82422h3.28516v-2.82422h.83203V470.25h-.83203v-2.91797h-3.28516V470.25h-.83594v-6.48047"/><path fill="#00f" fill-rule="evenodd" d="M383.79688 436.57422h8.61718v-10.14453h-8.61719v10.14453"/><path fill="azure" fill-rule="evenodd" d="M385.6289 428.26172h.83204v2.82422H389.75v-2.82422h.83203v6.48047H389.75v-2.91406h-3.28906v2.91406h-.83203v-6.48047"/><path fill="#00f" fill-rule="evenodd" d="M210.69922 409.94531h8.6211v-10.14453h-8.6211v10.14453"/><path fill="azure" fill-rule="evenodd" d="M212.53516 401.63281h.83203v2.82422h3.28515v-2.82422h.83203v6.48047h-.83203v-2.91797h-3.28515v2.91797h-.83203v-6.48047"/><path fill="#ff3030" fill-rule="evenodd" d="M322.35547 352.2461h7.6914v-10.14454h-7.6914v10.14453"/><path fill="azure" fill-rule="evenodd" d="M324.1875 343.9336h.83203v5.73827h3.19531v.7422h-4.02734v-6.48048"/><path fill="#ffffe0" fill-rule="evenodd" d="M270.72656 384.375h22.17969v-10.1914h-22.17969v10.1914"/><path fill-rule="evenodd" d="M274.22656 376.01563h.50781v6.29296h-.78515v-4.48828h-1.39063v-.55469l.5625-.0664.25-.05078.23047-.08985.20313-.14453.17187-.20703.14453-.29687.10547-.39454m4.8125 0l.23047.01954.21875.05468.20703.08985.19531.1211.1875.14843.16797.17578.3047.42188.24218.49218.17969.54688.11328.57812.03515.58985-.03515.59375-.11328.58593-.1797.5547-.24218.5-.30469.42968-.16796.17969-.1875.15234-.19532.125-.20703.08984-.21875.0586-.23047.01953-.23047-.01953-.21875-.0586-.20703-.08984-.19531-.125-.1836-.15234-.17187-.1797-.30078-.42968-.2461-.5-.17968-.55469-.10938-.58593-.03906-.59375h.83203l.03125.5664.07813.5039.1289.44142.16016.375.1914.30078.21094.22265.22266.13672.22656.04688.22656-.04688.22266-.13672.21094-.22265.1914-.30079.16016-.375.1289-.4414.08204-.5039.02734-.56641-.02734-.5586-.08203-.5-.1289-.4375-.16017-.36328-.1914-.29297-.21094-.21484-.22265-.13281-.22657-.04297-.22656.04297-.22266.1328-.21093.21485-.19141.29297-.16016.36328-.1289.4375-.07813.5-.03125.5586h-.83203l.03906-.58985.10938-.57812.17969-.54688.24609-.49219.30078-.42187.17188-.17578.18359-.14844.19531-.1211.20703-.08984.21875-.05468.23047-.01954m5.08985 0h.51171v6.29297h-.78906v-4.48828h-1.38672v-.55469l.5586-.0664.2539-.05078.23047-.08985.20313-.14453.17187-.20703.14063-.29687.10547-.39454m2.82421 2.17579h.78907l.01953-.31641.0586-.28516.09765-.2539.14062-.21485.1836-.17578.22265-.1289.26563-.07813.3086-.02734.23437.01953.22656.0625.20313.10156.17968.14063.14844.17187.11328.20703.07031.23438.02735.26562-.02344.26953-.0664.22266-.10938.1914-.15625.17188-.19922.16406-.2461.16407-.63671.39062-.53516.3125-.4375.3164-.34765.32423-.26563.33593-.1875.35157-.125.37109-.07031.39063-.01953.41796h4.21093v-.73828h-3.33203l.08203-.28515.11329-.23438.14843-.20312.1875-.1797.23047-.17187.27735-.17578.71875-.41797.41406-.20312.34765-.23047.28125-.2539.21875-.26563.16407-.27735.10937-.28515.0664-.28516.01954-.28125-.04297-.38281-.1211-.34766-.1875-.30859-.25-.26172-.30468-.21484-.34375-.15625-.3789-.09766-.40626-.03515-.4375.03125-.39844.10156-.35546.16406-.3047.23438-.24608.30468-.1875.375-.11329.44531-.04296.51954"/><path fill="#ffffe0" fill-rule="evenodd" d="M367.8164 392.42188h22.1797v-10.19141h-22.1797v10.1914"/><path fill-rule="evenodd" d="M371.3164 384.0664h.50782v6.29298h-.78516v-4.48829h-1.39062v-.55859l.5625-.0625.25-.05469.23047-.08984.20312-.14063.17188-.21093.14453-.29297.10547-.39453m4.8125 0l.23046.01562.21875.0586.20704.08984.1953.11719.1875.15234.16798.17578.30469.41797.24218.49219.17969.54687.11328.58203.03516.58985-.03516.59375-.11328.58203-.17969.55469-.24219.5039-.30468.42578-.16797.1797-.1875.15233-.19531.125-.20704.09375-.21875.0547-.23046.01952-.23047-.01953-.21875-.05469-.20703-.09375-.19532-.125-.18359-.15234-.17188-.17969-.30078-.42578-.24609-.5039-.17969-.5547-.10937-.58202-.03906-.59375h.83203l.03125.5625.08203.50781.125.4414.16015.375.19141.30079.21094.21875.22265.14062.22657.04688.22656-.04688.22265-.14062.21094-.21875.1914-.30078.16017-.375.1289-.44141.08203-.50781.02735-.5625-.02735-.5625-.08203-.5-.1289-.4336-.16016-.36718-.1914-.29297-.21094-.21485-.22266-.1289-.22656-.04688-.22657.04688-.22265.1289-.21094.21485-.1914.29297-.16016.36718-.125.4336-.08203.5-.03125.5625h-.83204l.03907-.58985.10937-.58203.17969-.54687.2461-.49219.30077-.41797.17188-.17578.1836-.15234.1953-.1172.20704-.08983.21875-.0586.23047-.01562m5.09375 0h.5078v6.29296h-.78905v-4.48828h-1.38672v-.55859l.5586-.0625.2539-.05469.23047-.08984.20312-.14063.17188-.21093.14062-.29297.10938-.39453m2.8203 2.17187h.78907l.01953-.3164.0586-.28516.09765-.25.14063-.21875.1836-.17188.22265-.1289.26562-.08203.3086-.02735.23437.02344.22656.0625.20313.10156.17969.13672.14843.17578.11329.20313.0703.23828.02735.26172-.02344.26953-.0664.22656-.10938.1914-.15625.17188-.19922.16016-.24609.16797-.63672.38672-.53515.3125-.4375.3164-.34766.32813-.26563.33203-.1875.35156-.125.3711-.0703.39453-.01954.41796h4.21094v-.74218h-3.33203l.08203-.28125.11328-.23828.14844-.20313.1875-.17969.23046-.17187.28125-.17578.71485-.41406.41406-.20704.34766-.23046.28125-.25.21875-.26954.16406-.27734.10938-.28125.0664-.28516.01953-.28125-.04297-.3828-.12109-.35157-.1875-.30469-.25-.26562-.30469-.21094-.34375-.16016-.3789-.09765-.40625-.03125-.4375.03125-.39844.09765-.35547.16797-.30469.23438-.2461.30468-.1875.3711-.11327.44922-.04297.51562"/></g></defs><use xlink:href="#g"/></svg>