<svg xmlns="http://www.w3.org/2000/svg" role="img" xmlns:xlink="http://www.w3.org/1999/xlink" viewBox="142.45 309.95 326.84 171.84"><defs><clipPath id="a"><path d="M144 311.67188h1v168.65625h-1zm0 0"/></clipPath><clipPath id="b"><path d="M144 311.67188h324v168.65625H144zm0 0"/></clipPath><clipPath id="c"><path d="M308 424h123v56.32813H308zm0 0"/></clipPath><clipPath id="d"><path d="M343 480h2v.32813h-2zm0 0"/></clipPath><clipPath id="e"><path d="M467 311.67188h1v168.65625h-1zm0 0"/></clipPath><clipPath id="f"><path d="M144 477h3v3.32813h-3zm0 0"/></clipPath><clipPath id="g"><path d="M154 478h7v2.32813h-7zm0 0"/></clipPath><clipPath id="h"><path d="M167 477h7v3.32813h-7zm0 0"/></clipPath><clipPath id="i"><path d="M181 477h6v3.32813h-6zm0 0"/></clipPath><clipPath id="j"><path d="M194 478h7v2.32813h-7zm0 0"/></clipPath><clipPath id="k"><path d="M207 477h7v3.32813h-7zm0 0"/></clipPath><clipPath id="l"><path d="M220 478h7v2.32813h-7zm0 0"/></clipPath><clipPath id="m"><path d="M234 478h7v2.32813h-7zm0 0"/></clipPath><clipPath id="n"><path d="M247 478h7v2.32813h-7zm0 0"/></clipPath><clipPath id="o"><path d="M260 478h8v2.32813h-8zm0 0"/></clipPath><clipPath id="p"><path d="M274 478h7v2.32813h-7zm0 0"/></clipPath><clipPath id="q"><path d="M288 477h5v3.32813h-5zm0 0"/></clipPath><clipPath id="r"><path d="M302 476h3v4.32813h-3zm0 0"/></clipPath><clipPath id="s"><path d="M316 476h2v4.32813h-2zm0 0"/></clipPath><clipPath id="t"><path d="M329 476h3v4.32813h-3zm0 0"/></clipPath><clipPath id="u"><path d="M343 476h2v4.32813h-2zm0 0"/></clipPath><clipPath id="v"><path d="M356 476h2v4.32813h-2zm0 0"/></clipPath><clipPath id="w"><path d="M368 477h5v3.32813h-5zm0 0"/></clipPath><clipPath id="x"><path d="M382 476h4v4.32813h-4zm0 0"/></clipPath><clipPath id="y"><path d="M393 478h8v2.32813h-8zm0 0"/></clipPath><clipPath id="z"><path d="M393 480h3v.32813h-3zm0 0"/></clipPath><clipPath id="A"><path d="M406 479h9v1.32813h-9zm0 0"/></clipPath><clipPath id="B"><path d="M406 479h3v1.32813h-3zm0 0"/></clipPath><clipPath id="C"><path d="M420 478h7v2.32813h-7zm0 0"/></clipPath><clipPath id="D"><path d="M418 480h3v.32813h-3zm0 0"/></clipPath><clipPath id="E"><path d="M433 478h8v2.32813h-8zm0 0"/></clipPath><clipPath id="F"><path d="M433 480h3v.32813h-3zm0 0"/></clipPath><clipPath id="G"><path d="M448 476h5v4.32813h-5zm0 0"/></clipPath><clipPath id="H"><path d="M462 476h3v4.32813h-3zm0 0"/></clipPath><clipPath id="I"><path d="M144 464h3v6h-3zm0 0"/></clipPath><clipPath id="J"><path d="M144 450h2v8h-2zm0 0"/></clipPath><clipPath id="K"><path d="M144 436h2v8h-2zm0 0"/></clipPath><clipPath id="L"><path d="M144 442h1v2h-1zm0 0"/></clipPath><clipPath id="M"><path d="M144 423h1v8h-1zm0 0"/></clipPath><clipPath id="N"><path d="M144 410h2v8h-2zm0 0"/></clipPath><clipPath id="O"><path d="M144 396h2v9h-2zm0 0"/></clipPath><clipPath id="P"><path d="M144 402h1v2h-1zm0 0"/></clipPath><clipPath id="Q"><path d="M144 383h2v8h-2zm0 0"/></clipPath><clipPath id="R"><path d="M144 371h4v5h-4zm0 0"/></clipPath><clipPath id="S"><path d="M144 357h3v7h-3zm0 0"/></clipPath><clipPath id="T"><path d="M144 346h4v2h-4zm0 0"/></clipPath><clipPath id="U"><path d="M144 331h4v5h-4zm0 0"/></clipPath><clipPath id="V"><path d="M465 331h3v2h-3zm0 0"/></clipPath><clipPath id="W"><path d="M144 317h3v7h-3zm0 0"/></clipPath><clipPath id="X"><path d="M465 317h3v2h-3zm0 0"/></clipPath><g id="Y" clip-path="url(#clip1)"><path fill="#fff" fill-opacity="0" fill-rule="evenodd" d="M0 0h1000v1000H0zm0 0"/><path fill="#d3d3d3" fill-opacity="0" fill-rule="evenodd" d="M162.15234 355.86719l-.23437.29297.0586.23437.11718.17188.17578.23437.29297.34766.11328.0586.11719-.17188.0586-.23438.17577-.17578.46485-.17578h.69922l.23437.29297.28906.8164.0586.17579.17578.23046.35156.23438.69922.69922.17188.17578.23437.34765.23438.41016.28906.58203.41015.46485.23047.23437.23438.17578.11719.23047.17578.29297.17187 1.16406v.23438l.0586.28906.05859.11719.11719.11719.34765.41015.11719.17188.17578.17578.17578.23437.11719.17188.17188.35156.05859.23438.23437.40625.23438-.0586-.17578.17578-.0586.92969h-.58203l-.23437-.11328-.34766.11328-.11719.11719-.05859.29297-.0586.17578-.11718.17187-.46484.29297-.0586.23438-.0586.11328v.64453l.0586.17187v.41016l.0586.0586v.40624l.05859.40625.11719.17579.05859.05859.23047.64062-.0586.29297v.69922l-.05859.58203v.23438l-.0586.23047-.05468.35156v1.92187l.05469.1172h.42578l-.36719.11718-.02344.35156.89063 1.16797 1.74219.53906 1.33984.35938v.53906l.08984.8086.53516.71484 1.51953.26953.89063-.08594.08984 1.16406.53516.1797 1.16015-.1797 2.05469-.98437 1.16016-.36328 1.8789-.17578 1.69531-.1797-.17968.71876-1.51563.08594-1.25.08984-.80469.26953-1.07421.8086.26953.71875.53515.89843-.17968.625-.26563.8086.26563 1.07812.625.89844.80468.17969 1.25-.1797-.26562.72267.09766.5039.05468.29297v.17188l.0586.29296v.40625l.17578.1172.35156.11718h.40625l.29297-.17578.11328-.11719.0586-.11719.11718-.23047.0586-.17578.35156-.46484.23047-.17578.17578-.0586.17578.0586.0586.17578.11718.98828.05469.46875.0586.17188.11718.23437.17578.0586.8164.05859h.28907l.11719.23437.05859.40625.0586.35156v1.10547l.11718.29297.11719.34766.28906.69922.17578.35156.58203.7539.35157.17579.17187.0586.46875.23437.64063.46484.34765.23438.29297.17578.29297.05468.23047.0625.8164.34766.29297.17578.11328.17188.35157.35156.11719.17578.52343.64063v.28906l.0586.35156v.34766l.05859.35156.0586.28906.11718.0586.17188.05859h.17578l.58203.23437.17578.1172.17578.28905.17578.23438.11328.23437.29297.23047.11719.11719v.41016l.0586.05468.28906.23438.23437.11719.0586.11718.11718.17188.0586.11719.23047.23437.05859.17578.23437.0586.1172.05859-.1172.11328-.05859.11719v.11719l-.11719.29296-.11719.28907v.58203l.17579.11719.11718.05859.0586.11719.11719.11719.11328.05859.17578.34765.0586.35157.05858.40625v.17578l-.05859.17578-.11719.69922v.17187l.1172.17579.29296.29296h.40625l.17578.1172.11719.17187.11719.29296v.23438h-.52735l-.23047-.23438h-.23437l-.17578.0586-.0586.69922.0586.34765.11719.17579.17578.41015.11718.23047.28907.46875.17578.05469h.52344l.23437.0586.75781.64062.0586.29296v.23438l.05859.0586.23047.34765v.35156l-.11719.17188v.29297l.29297.28906.29297.17578.17187.0586.29297.17577.29297.1172.58203.40624.28906.23438.29297.17578.21875.16015.01563.01172.23047.17579.64062.52343.17578.23438.1172.17578.17577.17578.11328.17188v.64062l.1172.17578.46874.11719.58203.11719.23438.05859.23047.11328.29297.11719.11328.0586.58593.35156.28907.17187.17578.0625.17578.05469.17578.0586.69922.35155.28906.17579.23438.05468.28906.17578.23437.1172.64063.40624.29297.11719.17187.0586.23438.05859.41015.05859.23047.0586.23438.11718.0586.17188-.41017.17578.46875.0586.0586.29296.11328.23438.17578.05468.23438.0586.17578.05859.40625.11719.64062.23437.11719.17188.0586.23437v.17578l-.0586.1172-.0586.40624.23438.23438.11719.05859.34766.11719.64062.23047.17578.11718.28906.1172.17578.17577.23438.46485.58203 1.10546.17578.17579.34766.17578.17578.11719.35156.11718 1.04688.52344.23437.0586.46485.11327.29297.0586.46484.17578.75781.58203.23438.23438.34765.46484.17578.17578.28907.23438.8164.69921.29297.17579.28906.28906.29297.17578.29297.28906.69531.64063.17578.17578.29297.23437.28907.23438.46875.28906.64062.58203.34766.23438.23437.29297.34766.34765.35156.46485.9336.99218.34765.40625.11719.17579.23437.05859.11328.11719.64454.17578.23047.11328.23437.0586.29297.17577.23047.1172.9336.69921.40624.40625.23438.17578.40625.17578.23437.11719.8164.34766.34766.23437.23438.11719.29297.28906.23047.11719.7578.35156.35157.17188.23047.05859.29297.11719.23437.0586.8711.17577h.8164l.46875.23047.17188.0586.875.69921.46484.1172.29297.05858.17578.0586.23047.0586.46875.05859.34766.05859.35156.0586.40625.05859h.29297l.17187.0586v.23046l.17578.17578h.29297l.34766.0586.35156.05859.69922.11719h.64063l.46484-.23438.29297-.17578.17187-.11719.41016-.17187.28906-.17578.9336-.46485.46875-.29297.52343-.29296.46485-.17188.46484-.17578 1.05078-.46485.28906-.11718.41016-.11719.28906-.11719.52735-.17578 1.51562-.69922.58203-.34765.28907-.0586.29297-.0586.34765-.11718.875-.23047.35156-.11719h.11329l.23437-.05859.875-.23437.23438-.0586h.8125l.35156-.0586.8164-.11718.17188-.0586.35156-.05468.29297-.0586.23047-.05859.8164-.17578.17579-.0586h.34765l.23438-.05859.46484-.11718.75781-.17188.23438-.0586h.34765l.41016-.11718.28906-.0586 1.28516-.05859h.28906l.41016-.0586.23047-.05858h.17578l.875-.1172h.40625l.41015-.11718h.34766l.35156-.11328.8711-.0586h1.75l1.04687.28907.41016.11719.28906.11718.35156.11719.28907.11719 1.05078.17187.28906.0586h.29297l.29297.05859.17187.0586.41016.05859.17187.0586.1172.05858h.11718l.11719.0586.35156.0586h.11328l.41016.0664 1.92187.39453 1.92578.39453 1.51953.44922 1.69532.71875 2.14453.80469 1.60547-.71875 1.42968-.80469 1.16016-1.07813 1.25-.44921 3.03516-.71875 1.875-.35938 2.14453-1.34765 2.23437-1.25391 2.5-1.25781 1.69531-.44922 1.78516-.17969 1.16016-.26953.625.53906 1.33984-.26953.71485-.98828.98437-1.34375.44531-.17969.80469-.35937 1.875-.53907 1.78516-.44921 1.25-.26954 1.16015-.08984 1.69922-.08984 1.96094-.26954 1.25-.08984h.53906l.625-.08984h.89063l2.14453-.17969 2.41015-.17969 2.58985-.08984 1.69531.17969 1.60938.08984 1.42968.35938 1.16016.71875 1.875.98828 1.16015 1.52734.26563.71484.6289.08985.35548.89844.53515.53906.53516 1.52734 1.07422.35938h.53515l-.80469.53515.08985 1.70703.71484 2.69532.89063.80468.89453.98829.71484 1.2578 1.78516.53907 1.51953-.17969.35547 1.34375 1.60937-.80469.98047-.53906.26953.26953.31641-.21484.21875-.14453.80078.44922.44922-.35938h.35547l.53515-.26953.53907-.71875.53515-.26953.625-.98828 1.16016.44922.83984.3711 1.39454.61718 1.6953-.17969h1.60548l1.78515.08985.17969-1.70704.53516-1.34375.80468.26954.4922.84765.40233.40625-.08984.53906v.35938l.71485.44922.71093-.26953h1.42969l.35938.98828.4453 1.25781.71485 1.34375 1.25.6289 1.69531.62891.71485-.17969.17969-.53906.98046-.08984.44922.35937.08594 1.25782-.26563.6289-.53515.17969v.53906l.71484.98438.26563.53906.98437.98828.80078 1.07813-.26562.35937-.08985.89844-.625 2.33203-.35546 2.0664-.08985 1.79298-.17969.71875-.08984.53906v1.4375l-.98047 1.88281-.35937 1.70703-.53516.89844-.80469 1.16797-.26562.53906 2.05469 1.2539.08593.35938-.35546.53906-.08985-.17968v.80859l.08985 1.4375-.44532.71484-1.07422.09375-.26562.71485.53515.89844.8047.71875 1.16015.80859 1.33984.26953.44531.35938-.35546.44921-1.78907-.08984-1.25-.44922-.71484-.71875-.625-.08984-.17578 3.58984-.1875 1.3086h89.35937V311.70313h-55.26953v49.08203l.76172.125 3.28906.54296 2.02344 2.83594v2.7539l2.35156.33204 2.34766.33203h4.05078l-1.3789 4.16016-2.02344.70703-2.02344.70312-.54297.34375-2.59375 1.6172-.1875.11718-2.02344-2.07813-.73046-2.74218-2.67188-2.07813-1.375-3.5-.0664-.08203-1.95704-2.67188 2.75-1.41796v-49.08204H294.42187v91.41407l.1172.03125.1328.01172.07422.07421.10547.04688.08985.0586.08593.05859.08985.0586.29687.29687.0586.08984.03125.11719.02734.11719.01563.13671-.03125.1172-.0586.08983-.0586.08594-.04296.10547-.04688.10156-.02734.1211v.14453l.17578.26953.14844.14844.07422.08594.07422.07421.04296.10547.0625.08985.0586.08593.04297.10547.0586.08985.04687.10156.04296.10547.0586.08594.11719.17968.07421.07422.0625.08594.0586.08984.04297.10547.0586.08985.05858.08593.0625.08985.0586.08984.04297.10156.11719.17969.07421.07422.0586.08594.07422.07421.08984.0586.10547.04687h.14844l.1328-.01562.13282.01562.10156-.04687.07422-.07422.04688-.10156-.01563-.13281v-.14844l-.04687-.10547-.02735-.11719-.04687-.10156-.02735-.1211-.04296-.10156-.0625-.08984-.04297-.10156-.04297-.10547-.03125-.11719-.01563-.13281-.01171-.13672.08593-.0586.0586-.08593.12109-.03125.04297.10547.01562.1328v.1172l.0586.10156.0586.08984.08983.0586.14844.14843.0586.08985.04296.10547-.01171.10156.08593.0586.10547.04687.08594.0586.08984.05858.07422.07422-.11719.02735-.10546.04687-.08594.0586-.07422.07421-.0586.08985-.0625.08594-.02734.12109-.04687.10156-.04297.10547-.03125.11719-.01172.13281-.01563.13281v.14844l.02735.11719.04687.10547.04297.10156.0586.08984.07421.07422.08985.0586.07422.07421.08984.0586.0586.08984.04296.10547.04688.10156.11719.03125.1328.01563h.14845l.11718-.03125.10547.04297.04297.10547.04688.10156.02734.1211L299.5 410l.02734.11719.03125.1211.02735.11718.10547.04297.10156.04687.13281-.01562.14844.14844.0625.08593.07422.07422.07031.07422.08984.0625.10547.04297.10156.04297.1172.03125.13671.01562.11719-.03125.07422-.07422.02734-.11718-.01172-.13282-.03125-.12109-.02734-.11719.04297-.10547h.11719l.08984.0625.11719.02735h.14843l.13282.01562h.14843l.13282.01563.1328-.01563h.14845l.1328-.01562.13282-.01172.13672.01172.11719-.02735.13281-.01562.1914-.0586-.05859.17579-.01562.1328-.02735.1211-.01562.13281-.0586.08594-.1328.01563-.10548.04687-.10546.04297-.1172.03125-.11718.02735-.26563.03125h-.14843l-.13281.01562-.07422.07422.05859.08594.14844.14843.11719.1797.07421.0703.08985.0625.08984.0586.08594.0586.08984.05858.10156.04297.10547.0625.10547.04297.08594.0586.10547.04687.10156.04297.17969.11719.0586.08984-.04298.10156-.04687.10547.01562.13281.22266.22266.0586.08985.04296.10156.03125.1211.04297.10155.01563.13282.03125.11718.01171.13672.03125.11719.14844.14844.10156.04297.10547.04296.1172.03125.1328.01563.13672.01563h.11719l.11719-.03125.08984-.0586.04297-.10547.04688-.10156.04296-.10547.03125-.11719.01172-.1328v-.14845l-.01172-.1328-.01562-.13282-.03125-.11719-.04297-.10547-.04688-.10547-.04296-.10156-.04297-.10547-.01563-.13281.01563-.13281.02734-.11719.03125-.11719.02735-.1211.04687-.10155.08984-.0586.08594-.0625.07422-.07422.08984-.05859.22266-.22266.0586-.08593.07421-.07422.11719-.17969.0586-.08594v-.14844l-.07423-.07421-.10156-.04688-.10547-.04297-.10156-.04297-.0586-.08984-.04687-.10547-.02734-.11719.08984-.05859.11719-.03125.10156-.04297.17969-.11719.14844-.14843.01172-.13282-.01172-.10546-.08985-.0586-.1328.01563h-.14845l-.1328.01562-.13282-.01562-.1211-.03125-.08593-.0586-.07422-.07422-.0586-.08984-.0625-.08594-.11718-.17969-.0586-.08593.03125-.1211.08594-.05859.1211-.03125.05859-.08594v-.1211l-.03125-.11718-.0586-.08984-.05859-.08594-.04687-.10547-.02735-.11719-.01562-.1328.0586-.08985.07421-.07422.08984-.0586.1172-.17968.07421-.07422.0586-.08594.14843-.14844.1211-.03125.1328-.01562.13282.01562.07422.07422.04297.10547.01562.13281-.03125.1172-.11719.03124-.1328.01172-.14844.14844-.04297.10547-.04688.10156-.02734.1211-.03125.11718v.14844l.03125.11719.04297.10546.05859.08985.07422.07031.07422.07422.11719.03125.12109.02734.11719-.02734.1328-.01563h.1172l.08984.0586.07422.07422.04687.10546.0586.08594.10156.04688.13281.01562.10547.04297.08594.0586-.01172.10546-.07422.07422-.17969.11719-.05859.08984-.08984.0586-.07032.07422-.07421.07421-.0625.08985-.02735.11719-.01562.1328.01562.13282-.01562.13281v.14844l.01562.13281.02735.1172.03125.12108.07421.07422.08985.0586.08594.0586.08984.05858.11719.03125v.08594l-.10157.04688-.08984.0586-.26563.03124-.11718.02735h-.14844l-.10547.04296-.10156.04688-.0586.08984-.0625.23438-.01171.13281-.03125.1211-.01563.1328v.29298l-.01172.1328.01172.13673.01563.1328.1328.01563.13282.01172.1211.03125.08593.0586.07422.07421.04688.10547.04296.10157.01563.1328v.44532l-.01563.13281v.44532l.03125.26562.02735.11719.01562.13281.03125.11719.08594.21094.03125.26562v.14844l-.03125.11719-.02734.11718-.03125.1211-.02735.11719-.03125.11718-.03125.1211-.01171.1328-.01563.13282.08984.0586.1172-.03125.10155.01562.04688.10547-.03125.26562v.44141l-.04297.10547-.04688.10547-.04296.10156-.04297.10547-.0586.08594-.03125.12109-.04296.11719-.03125.11719-.01563.1328.01563.13282.05859.08984.10547.04688.08594.0586.05859.08593-.01172.13672-.03125.11719-.04297.10156v.44531l-.01562.13281v.14844l-.03125.11719-.04297.10547-.02735.11719-.04687.10546-.04297.10157-.03125.12109-.02734.11719-.03125.13281-.03125.11719-.02735.11719-.04297.10546-.03125.1172-.03125.12108-.01171.13282-.01563.13281v.29688l.02734.11718v.14844l.04688.39844.02734.11719.0586.08984.12109.03125h.14844l.13281-.01563.0586.08985v.11719l-.0586.08984-.08984.0586-.10157.04296-.10546.04688-.08985.05859-.08594.0586-.13671.01562-.1172-.03125-.1328-.01563-.10157.04688-.0625.08594-.01172.13671-.01562.13282-.03125.11719-.02735.11718-.01562.13281-.03125.1211v.29687l.01563.13282.03125.11718v.14844l.01171.13281v.14844l-.02734.11719-.04688.10156-.02734.1211-.03125.11718-.0586.08985-.07421.07421-.10156.04297-.10547.04688-.11719.02734-.1211.03125-.10156-.04687.0586-.08594.10547-.04688.02734-.11718.03125-.11719.02734-.1211.03125-.11718v-.14844l.01563-.13281-.03125-.11719-.04297-.10547-.10547.01563-.07422.07422-.10156.04296-.08984.0625-.07422.07422-.04297.10157-.01563.1328-.03125.1172L304.25 426l-.03125.11719-.02734.11719-.03125.12109-.02735.11719-.03125.11718-.04297.10547-.08984.0586h-.08984l-.1172-.03125-.03124-.08594.01562-.13672-.03125-.11719v-.14844l-.01171-.1328v-.14844l-.0625-.23438-.02735-.1211-.04297-.10156-.04687-.10546-.0586-.08594-.05859-.08985-.04297-.10546-.0625-.08594-.14844-.14844-.0703-.07422-.10548-.04687-.10547-.04297-.10156-.04297-.29687-.29688-.08985-.07421-.08594-.0586-.10546-.04297-.08985-.0625-.08594-.0586-.10546-.04296-.08985-.0586-.08594-.0625-.07421-.0703-.10547-.04688-.08594-.0586-.10547-.04296-.08984-.0625-.10156-.04297-.10547-.04297-.08594-.0586-.10547-.04687-.10547-.04297-.10156-.04687-.08985-.0586-.10156-.04297-.10547-.04296-.08984-.0625-.11719-.02735-.13281-.01562-.13281.01562H299.75l-.13281.01563-.11719-.03125-.08984-.0586-.07422-.07422-.08985-.05859-.10156-.04688h-.14844l-.12109-.02734-.10156-.04297-.07422-.07422-.11719-.17968-.08984-.0586-.10156-.04297-.08985-.0625-.10547-.04296-.08984-.0586-.08594-.0586-.10547-.04687-.0586-.08594-.05858-.08984-.04297-.10547-.04688-.10156-.07422-.07422-.08594-.0586-.07421-.07421-.08985-.0586-.22265-.22265-.04297-.10547-.03125-.26563.10547-.04296h.14453l.10547.04296.07421.07422.08985.0586.08594.0586.10546.04687.08985.05859.14844.14844.0703.07422.14845.14843.0625.08594.07421.07422.08594.0586.07422.07421.08985.0625.08984.0586.08594.05859.26953.17578.10156.04688.10547.04296.10156.04297.04688-.07421.05859-.08594.07422-.07422.07031-.07422.10547.04297.07422.07422.0586.08984.04296.10156.04688.10547.04296.10547.1211.02735.11719-.02735.07421-.08984.04297-.10547.0586-.08985.07422-.07421.10546-.04297.1172-.02735.1328.01172.08985.0586.14844.14843.05859.08985.04297.10547.04687.10156.04297.10547.04297.10156.10547.04688.10547.04296.13281.01563.08594-.0586.0586-.08984.07421-.07422.10547-.04297.11719.02735.10547.04687.10156.04297.10547.04297.10156.04688.17969.11718v.11719l-.01563.13281.01563.13281.01562.13672.0586.08594.10156.04688.1211.02734.11718.03125h.14844l.11719-.03125.05859-.08984.17969-.1172.05859-.08983.07422-.07422.0586-.08594.11718-.17969.17969-.11719.11719.03125.08984.0586.04297.07422-.01563.1328v.1172l.08985.05859h.14843l.13282-.01563.1328-.01171.26563-.03125.10547-.04297.11719-.03125.1211-.02735.07421-.07421.07031-.07422.0625-.08985-.01562-.10547-.04688-.10156-.10156-.04297-.10547-.01562-.11718.02734-.26563.03125h-.14844l-.07421-.07422-.08985-.0586-.11719-.03124-.11718-.02735-.13282-.01562h-.14843l-.13282.01563h-.29687l-.10547-.04688-.14844-.14844-.04297-.10156-.05859-.08984.22266-.22266.08593-.0586.10547-.04296.11719-.03125.13281-.01563.13281.01563.13672.01562.10157.04297.1328-.01172.08985-.0625.10156-.04297.0625-.08984-.04687-.10156-.08984-.0586-.1172-.03125-.10155-.04296-.0586-.08985-.0625-.08984v-.11719l.01563-.13281.10547-.04688.07421-.07031v-.1211l-.08984-.05859-.03125-.11719.08985-.05859.07421-.07422.04297-.10547.0586-.08984.04687-.10156.01563-.13281v-.14844l-.04688-.10547-.04297-.10156-.08984-.0586-.13281-.01562-.10157-.04297-.13671-.01563-.1172-.03125h-.4453l-.13282-.01562-.13281-.01172-.13281-.01563-.11719-.03125h-.14844l-.13281-.01562-.13281-.01172-.26563-.03125-.1211-.04297-.08593-.0586-.07422-.07421v-.14844l.01172-.13281.10547-.04688.10156-.04296.13281-.01563h.15235l.13281-.01562h.29297l.1211.03125.10156.04296.08984.0586.23438.0625.12109-.04688.08984-.05859.10156-.04297.13282-.01562.10547.04296.10156.04688.13281.01172.1211-.02735h.14453l.12109-.03125.11719-.02734.10547-.04687.07421-.07422.08594-.0586.14844-.14843.0586-.08594.04687-.10547.02734-.11719.01563-.10547-.10156-.04296-.08985-.0586-.11719-.03125-.10546-.04297-.08985-.0625-.07422-.08594-.07422-.07421-.10156-.04297-.10547-.04688-.10156-.04297-.0586-.08984-.04687-.10156-.08594-.21094-.0625-.08594-.05859-.08984-.07422-.07422-.08594-.0586h-.26953l-.11719.03126-.08984.05859-.10156.04297-.13281.01562-.10547-.01562-.02735-.11719-.0625-.08984-.11718-.03125-.10157-.04297-.14843-.14844-.03125-.11719-.01563-.10546.07422-.07422.17969-.1172.11719-.02733.11718-.03125.13672.01562.10156.04297.10547.04297.10156.04687.10547.04297.1172.03125.1328.01563.1172.02734.1328.01563.10547-.01563.08985-.0586-.07422-.07421-.10547-.04297-.07422-.07422-.07422-.08984-.14844-.14844-.08593-.0586-.08985-.05859-.07422-.07422-.08984-.0586-.10156-.04687-.1211-.02734-.10156-.04688-.10547-.04296-.11719-.03125-.10156-.04297-.1211-.03125h-.14843l-.11719.03125-.10546.04297-.08594.0625-.17969.11718-.08594.0586-.08984.0586-.10547.04687-.08594.05859-.10547.04297-.10156.04297-.10547.04687-.07422.07422-.05859.08985-.0586.08593-.04687.10547-.0586.08594-.07421.07422-.13281-.01172-.1172-.03125h-.11718l-.07422.07422-.08984.0586-.07422.07421-.08984.0586-.08594.05859-.10547.04687-.10156.04297-.13672.01563-.10156-.04297-.14844-.14844-.10547-.04688h-.08594l-.10547.04688-.10156.04297-.1211.03125-.11718-.03125-.07422-.07422v-.11719l.03125-.1211.07422-.0703.0586-.08985.07421-.07422.11719-.03125.10547-.04296h.29297l.13281-.01563.13672-.01563.10156-.04296.08985-.0586.10156-.04687.08984-.0586.13281-.01171.08985.05859.13281.01172.08984-.0586.08594-.05859.10547-.04297.08984-.0586.08594-.0625.08985-.05859.14843-.14843.0586-.08594.05859-.08985.10547-.04296.13281-.01563.11719.02735.1211.03125.05859-.0586.05859-.08984.03125-.26563.02734-.11719.10547.01172.13281.01563.10157-.04297.08984-.0586.0586-.08984.07421-.07422.0586-.08984.04687-.10156.01172-.13281-.01172-.13282-.04687-.10547-.14844-.14843-.0586-.08985-.05859-.08594-.04297-.10546v-.44532l.01563-.1328v-.14845l.01172-.1328-.0586-.0586-.08984.0586-.10156-.04298-.17969-.11719-.08594-.05859-.0625-.08984-.0586-.08985-.07421-.07421-.08594-.0586-.1211.03125-.10155.01172-.10547.04688-.08594.05859-.10547.04297-.14844.14844-.08984.05859-.08594.0586-.08984.0625-.10547.04296-.13281.01563v-.1211l.10547-.04297.11718-.03125.07422-.0703.04297-.10548v-.14844l-.02734-.11718-.14844-.14844-.13281-.01563h-.14844l-.11719.03125-.10547.04297-.10156.04297-.08984.0625-.11719.02735-.07422-.07422.01172-.13281-.04297-.10157-.04297-.10547-.08984-.05859-.11719.02734-.1211.03125-.11718.03125-.10156.04297-.1211.03125-.10156.04297-.10547.04297-.08984.0586-.10156.01562v-.11719l.01562-.13281-.0586-.08985-.07421.04297-.14844.14844-.0586.08985-.07421.07421-.04688.10547-.04296.10156-.07422.07422-.0586.08985-.07422.07422-.05859.08593-.07422.07422-.08984.0625-.07422.07031-.07422.07422-.10156.01563-.13281.01562-.10547-.04296v-.1211l.14843-.14844.04297-.10156.0586-.08984.04687-.10156.04297-.10547.0586-.08985.03124-.11719.04297-.10156.03125-.1211.02735-.11718.04687-.10547.04297-.10156.04297-.10547.07422-.07031.08984-.0625.08985-.0586.10156-.04296h.29687l.26563-.03125.10547-.04297-.07422-.07422-.11719-.03125-.10547-.04297-.08984-.0586-.10156-.04687-.08985-.0586-.10156-.04296-.10547-.04297-.08984-.0625-.08594-.0586-.10547-.04296-.10156-.04297-.1211-.03125-.11718-.03125-.10157-.04297L297.5 410.25l-.10156-.04297-.08985-.0586-.04296-.10546-.01563-.13281.10156-.04297.13281-.01563.13672.01563.13282-.01563.10156-.04297.0586-.08984.01562-.10547-.08985-.0586-.07421-.07421-.10157-.04297-.08984-.0586-.14844-.14843-.04297-.10547-.01562-.13281v-.29297l-.0586-.08985-.08984-.05859-.07422-.07422-.04297-.10547-.03125-.11718-.0586-.08985-.07421-.07422-.11719-.02734-.07422-.07422-.08984-.0586-.08984-.0625-.08594-.05859-.07422-.07421-.0586-.08594-.04687-.10547-.08594-.0586-.14843-.14843-.19532-.0586-.1328.01563-.10157.04297-.07422.07422-.04688.10156-.04296.10547-.0586.08984-.0586.08594-.29687.29687-.08984.0586h-.08594l-.0625-.08594-.04297-.10547.03125-.11719.0586-.08984.02734-.11719-.01172-.13281-.08984-.0625-.10547.04688-.11719.02734-.11719.03125-.26953.17578-.10156.04688-.11719.02734-.10546.04687-.08985.0586-.10156.04297-.0586-.08594-.04687-.10547.01563-.13281.04687-.10547.07031-.07422.07422-.07031.0586-.08985v-.14843l-.04297-.10547h-.23829l-.10156.04687-.03125.11719-.02734.11719-.03125.1211-.07422.04296-.13281.01563-.07422-.04688-.04297-.10156-.04297-.10547-.04687-.10156-.04297-.10547-.1211.03125-.10156.04297-.13281.01562-.11719.03125-.10547.04297-.08984.0586-.10156.04687-.1211.02734-.13281.01563-.10156-.04297-.0586-.08985-.04687-.10546-.04297-.10157-.04297-.10546v-.1172l.0586-.08984.08593-.05859.17969-.11719.10156-.04687.10547-.04297.10547-.0586.10156-.04296.08985-.0625.10156-.04297.10547-.0586.10156-.04687.08984-.0586.10547-.04296.10156-.04297.08985-.0625.10156-.04297.13672-.01563.11719.03125.10156.04297.1211.03125.10156.04297.10546.04688.10157.04296.10547.04297.10156.04688.10547.04297.10156.04297.10547.04687.08594.0586.10546.04296.1172.03125.10546.04297.10156.04688.08985.0586.10547.04296.10156.04297.10547.04687.11719.02735.10156.04687.1211.02735h.14843l.08594-.0586.01562-.10156.0586-.08984-.02735-.1172-.07422-.07421-.11719-.17969-.07421-.07422-.08985-.07421-.17969-.1172-.08593-.05859-.10547-.04296-.10156-.04688-.26954-.17578-.05859-.08985-.07422-.07421-.0586-.08985-.04296-.10156-.03125-.11719-.01563-.13672v-.5625l-.01171-.1328-.01563-.13282-.03125-.11719-.01562-.13281-.01172-.13281-.03125-.1211-.22266-.22265-.0586-.08594-.01562-.10547.03125-.11719.13281-.01562v-91.41406H172.9922v1.45312l-.0586.23438-.35156 1.05078-.17187.52343-.1172.34766-.17577.41016-.11719.17187-.23438.29297-.23046.0586h-.35157l-.11718.05859-.23047.40625v.29297l.11719.17578.23046.23047.1172.23437.64062.75781.29297.46485.17578.23437.23047.35156.23437.34766.64063.8164.17578.46485.17187.41016.11719.69531.17578.46875.11719 1.39844.0586.46484v.875l.11718 1.04688v4.78125l-.0586.46484-.35156 1.28125-.17578.52344-.11328.41015-.35156.9297L172.93359 336l-.23437.58203-.11719.17578-.17187.34766-.17578.40625-.35157.8164-.0586.29297-.11327.29297-.11719.28906-.0586.17579-.11718.875-.0586.40625-.05859.11718-.0586.17579-.05859.17187-.23047.52734-.11718.17188v.23437l-.11719.23438-.0586.17187-.17577.58594v.28906l-.0586.17579v.29296l-.0586.11329-.05859.52734v.17187l-.05468.23438v2.6211l-.17578.8164-.1172.17578-.17577.23438-.1172.17187-.11327.23438-.58594.93359-.23047.28906-.29297.46485-.17578.23437-.28906.35156-.35156.69922-.11328.23047-.17579.41016-.17578.23046-.40625.52735-.8164.69922-.29297.17187-.28906.23438-.17579.11719-.17578.17578-.52344.40625-.52734.17578-.17187.17578-.23438.05469-.64062.17578h-.75782m12.21094 31.02344l-1.07422.44921.35938.89454 1.25-.71485.44531-.53906-.98047-.08985"/><path fill="#d3d3d3" fill-opacity="0" fill-rule="evenodd" d="M201.50781 416.59766h-.89453l.44922.6289.98047.35938.80469-.08985.4453-.98828-.17577.08985-.71485-.35547-.89453.35547m154.6211 59.0703l-.0586-.52343v-.29297l.11328-.29297.0586-.23046.46875-.46875h.11328l.11719-.11329.11718-.05859h.17579l.23437-.0586h.34766l.23437.0586.11719.0586.23047.17187.0586.17578.11718.58203v.29297l-.11719.17578-.17187.28906-.17579.17579-.52734.52343-.23047.23438-.11719.0586h-.17578l-.11718-.0586-.40625-.29297-.17579-.11719-.11718-.0586-.0586-.11327-.05468-.1172m6.64062-10.95702l-.0586-.17188v-1.10937l.0586-.17188.17578-.0586.17188-.05858h.17578l.23437-.0586.1172.0586.05858.69921-.05859.17188-.11719.17578-.11718.0586-.23438.52343-.11328.0586h-.23438l-.05859-.1172m9.61328-14.39062l-.11719-.17578v-.69922l.29297-.875.1172-.17187.17577-.35156.11328-.23047.1172-.29297.35155-.75781.1172-.23047.17187-.23438h.17578l.11719-.0586h.64062l.11719.0586.23437.23438.17188.11328.35156.29297.11719.11718.11328.17579v.11328l.11719.05859.11718.11719v.69922l-.05859.17578v.23047l-.0586.17578-.34765 1.05078-.11719.23047-.11719.23437-.11718.0586-.23047.23437-.64063.28906h-.875l-.41015-.11718-.64063-.46485"/><path fill="none" stroke="#bebebe" stroke-linecap="round" stroke-linejoin="round" stroke-miterlimit="10" stroke-width=".5" d="M467.95703 311.69531H144.02734v168.625h323.9297v-168.625"/><g clip-path="url(#a)"><path fill="#fff" fill-opacity="0" fill-rule="evenodd" d="M144 475.89063v4.4375h.0039H144V311.67188h.0039H144v164.21875"/></g><g clip-path="url(#b)"><path fill="#fff" fill-opacity="0" fill-rule="evenodd" d="M144.0039 480.32813V311.67188h22.1875V384l-4.4375.10547-3.14452 3.01953-1.29297 1.9375-2.75782 2.5L156.96094 396l.35547.4336.30468 4.0039.33203 4.4375-.63671 4.3789-4.44141-3.32812-4.4375-.1289-4.05469 3.51953-.07031 4.4375.94922 4.4375 3.17578 3.33593 4.4375-.04296 4.4414-1.21485 3.67579 2.35938.76172.80859 4.4375.98438 1.375-1.79297 3.0625-1.38282 4.4375-1.6328 4.4414 1.05468 4.4375.61328 4.4375-.05469 4.4375.03125 4.4414-1.0664 4.4375-1.11329.76173-.88671-.76172-.62891-1.73047-3.8086 1.25-4.4375-1.40625-4.4414-2.55078-2.28906-.44531-2.14844-3.9961-3.99219L190.58203 396l-2.19922-2.19922-3.8125-2.23828-.625-.625-.85937.625-3.57813.51563-1.72265-.51563-2.71875-2.45313-4.4375-1.0703-1.45313-.91407-2.98437-3.125v-72.32813h17.7539v45.09766l-4.30078 3.72266-.13672.42969-3.30469 4.01171 3.3047 2.47657 2.26562-2.47657 2.17187-.98437 3.57813-3.45703-3.57813-3.72266v-45.09765h17.7539v35.14062l-.88671.36719-.10547 4.4375-3.44531.78906-4.4414-.16406-3.6797 3.8125 1.01172 4.4375.39844 4.4414-.17578 4.4375-1.99219 2.2461-3.65625 2.1914 3.65625 2.28125L191.5 373.8086l1.32031-1.11718 4.4414-.7422 2.375-2.57812 2.0625-2.08984 3.72657-2.34766-3.6211-4.4414 2.79688-4.4375 1.53516-1.61328v14.95312l-3.72266 4.41406-.71484 1-3.60547 3.4375.2461 4.4375 3.35937 3.59375v8.89454L200.5 396l1.19922.75781.78125-.75781-.78125-.82813v-8.89453l4.4375-.0703 3.72656-3.52345.71094-1.18359 4.4414-2.7539.58204-.5-.58203-.57032-4.44141-2.78906-.54688-1.07813-3.89062-4.41406v-14.95312l1.85547-2.82422-1.85547-4.07813-1.15234-.35937-3.28516-.36719v-35.14063h62.13672v74.09766L262.5 387.125l.73047 4.4375.60547.60547 4.4375-.49219.16015-.11328-.16015-.16797-2.6914-4.26953-1.7461-1.35547v-74.09765h13.3164v64.42187l-2.01953 2.15234.36328 4.4375-.03125 4.44141.08594 4.4375 1.60156 1.77734 1.25-1.77734 1.7422-4.4375 1.4453-1.4336 2.58985-3.0078-2.58985-3.80079-.5039-.63672-3.9336-2.15234v-64.42188h22.19141v69.8711l-.7539 1.14062-3.6875 2.96875-1.11329 1.47266 1.11328 1.08594 4.44141.24219 3.9336 3.10937.5039.5L308.00391 396l.21484.21484.23047-.21484-.23047-.21484-3.9375-4.22266-.5-1.0586-2.17188-3.3789-1.21484-4.4414-1.05078-1.14063v-69.8711h17.7539v77.25391l-2.13671 2.63672 2.13672 2.13281 2.14843-2.13281-2.14843-2.63672v-77.2539h17.75v78.21093l-1.88672 1.67969 1.88672 1.67969L336.33203 396l2.95703 3.30469L342.25781 396l-2.96875-2.98438-2.72656-1.45312-1.71484-1.67969v-78.21094h39.9453v113.14454l-2.32812 2.2539-.78906 4.4375.11719 4.4375-1.4375.38281-3.40625-.3828-1.03125-1.03516-3.21485 1.03515-1.22265.20703-4.4375.03516-.19922-.24219.19922-.91797L359 431.50781l-1.95703-2.39453-4.4414-1.67969-4.4375.45704-4.4375.80078-2.62891 2.8164-1.8086 3.375-3.83203 1.0625-.60937.04688-4.4375 1.32031-4.4375-.58984-4.4375.125-4.4375.1289-4.44141 1.2461-2.84375 2.16015-1.11328 4.4375 2.11719 4.4414 1.83984 2.78126.76172 1.65625 3.67969 3.01953 4.4375 1.22266.44921.1953 3.98829 4.0547 1.8828.3828 2.5547 2.26954 4.4375 1.59766 4.4414-.12891 4.4375-.32031 4.4375.13281 4.4375-.60938 4.4414-.78515 4.4375-.57813 1.71485-1.57812 2.72266-1.42188 4.4375-1.95312 1.21875-1.0625 3.21875-.42578 4.4414.15625 4.4375.11328 1.64063.15625 2.79688.8711 4.4375.65234 4.4375.37109 1.26562 2.54297 3.17578 3.47265 2.84766.96875-2.47656 4.4375 1.60156 4.4375 2.46484 2.23438 4.4375 1.75 4.4375.13281 4.4414-.61328 3.50782-3.5039-1.88281-4.4375-1.625-4.3672-.00781-.0703.0078-.00391 4.4375-.69922 4.4375-2.36719 1.375-1.3711.8086-4.4375-2.1836-2.86718-4.4375-1-3.03515-.57031-1.40234-1.73047-3.15625-2.70703.89062-4.4414 1.61719-4.4375.64844-.69141 4.4375-3.0586.94531-.6875-.94531-.53906-4.4375-2.85938-4.4414.00782-4.02735 3.39062-.41016.35547-3.07812 4.08203-.75782 4.4375 1.3047 4.4414-1.90626 1.67188-1.4414-1.67187-2.9961-3.57422-4.4414.5586-2.69532 3.01562-1.74219 1.80078-2.39843 2.63672-2.03906 3.1836-.60547-3.1836-.05079-4.4375.65625-3.29688 1.20704-1.14453 1.03515-4.4375-2.24219-4.00781-.27734-.42969-2.29687-4.4375-.75-4.4375-1.11329-1.11719-4.4375-.66796-4.4414-.46875V311.67187h39.94531v109.40625l-1.53515 1.55079 1.53515 2.41796 4.4414-1.8203 1.00782-.59766-1.00781-.67188-4.4414-.8789V311.67188h26.6328v71.71093l-4.4414 1.32813-2.51172 2.41406-.4375 4.4375 2.94922 2.95313 4.4414-.90235 2.02344-2.05078 2.07031-4.4375-4.09375-3.74219v-71.71094h8.875v95.51172l-2.52343 2.13282-1.91407.33203-4.4375.69531-3.47656 3.41016-.96484.32812-4.4375.2461-4.4375.86328-3.48047 3 .10547 4.4375 3.375 3.42578v17.1289l-1.3711 1.63672-1.98828 4.4414 3.35938 3.10157 2.72656-3.10156-1.16797-4.4414-1.5586-1.63673v-17.1289l1.36329 1.01562 3.07422 2.34766 3.70312-2.34766.73438-.14453.5.14453 3.9414 2.79297v9.39844l-3.14453 1.1211 3.14453 1.04296 2.20704-1.04297-2.20704-1.1211v-9.39843l4.4375 1.44922.26172.19531 4.17578 3.9336 1.46875.5039 2.20704 4.4375-3.67579.6211-2.44921 3.8164 1.83984 4.4414.60937.66017v13.0664l-3.36718 4.02735-.25 4.4375 3.61718 4.08203 2.21485-4.08204.78906-4.4375-3.0039-4.02734v-13.0664l.60937-.66016 2.5664-4.4414 1.26172-4.08985.23047-.34766 1.9336-4.4375.14843-4.4375 2.12891-3.84375 1.32813-.59375-.69532-4.4414-.63281-.70313-1.5586-3.73437 1.5586-4.04297.29297-.39453-.29297-.29688-4.4414-2.80469-2.45313-1.33593-1.98438-2.13282v-95.51171h17.75v168.65625H344.03516l-.3086-.21094-.51562.21094H144.0039"/></g><path fill="#50fcfc" fill-rule="evenodd" d="M145.26172 418.1914l-.94922-4.4375.07031-4.4375 4.05469-3.51952v2.35156l-1.34375 1.16797-1.99219 4.4375 2.05469 4.4375 1.28125 1.34765 4.4375-.78906 1.05078-.5586 3.375-4.4375-3.51172-4.4375-.91406-.6953-4.4375-.47266v-2.35156l4.4375.1289 4.4414 3.32813.63673-4.37891-.33204-4.4375-.30468-4.0039-.35547-.4336-2.40235-4.4375 2.75782-2.5 1.29297-1.9375 3.14453-3.01953v2.21875l-.83594.80078-2.82031 4.4375L159.5664 396l-.47266 4.4375.875 4.4375 1.78516 1.9375V409l-4.3086.3164 4.3086 1.21485 2.47656-1.21484L161.7539 409v-2.1875l4.4375.14453 4.4375 1.13281 3.66015 1.22657-1.01562 4.4375 1.79297.84375 4.4414 1.48046 4.4375.3047 4.4375 1.5664 1.0039.24219 3.4336.26953.6836-.26953 3.7578-4.1211.10548-.3164 2.66797-4.4375-2.77344-3.95313-.19531-.48828-.91797-4.4375-3.32813-3.32422-4.4375-.92969-1.8086-.18359-2.6289-1.59766-4.4375-1.1953-4.4414-1.29298-1.1172-.35156-3.3203-1.60156-4.4375-2.78906-.2461-.04688-4.1914-.80078v-2.21875L166.1914 384l2.98437 3.125 1.45313.91406 4.4375 1.07031 2.71875 2.45313 1.72265.51563 3.57813-.51563.85937-.625.625.625 3.8125 2.23828L190.58203 396l2.23828.44531 3.9961 3.99219.4453 2.14844 2.55079 2.28906 1.40625 4.4414-1.25 4.4375 1.73047 3.8086.76172.6289-.76172.88673-4.4375 1.11328-4.4414 1.0664-4.4375-.03125-4.4375.05469-4.4375-.61328-4.44141-1.05469-4.4375 1.63281-3.0625 1.38282-1.375 1.79296-4.4375-.98437-.76172-.8086-3.67578-2.35937-4.44141 1.21485-4.4375.04296-3.17578-3.33593"/><path fill="#00e8fc" fill-rule="evenodd" d="M147.15625 418.1914l-2.05469-4.4375 1.99219-4.4375 1.34375-1.16796v2.55469l-2.02344 3.05078 2.02344 3.20703 4.4375-.57031 2.48828-2.63672-2.48828-2.67579-4.4375-.375v-2.55468l4.4375.47265.91406.69532 3.51172 4.4375-3.375 4.4375-1.05078.55859-4.4375.78906-1.28125-1.34765"/><path fill="#00d4fc" fill-rule="evenodd" d="M148.4375 416.96094l-2.02344-3.20703 2.02344-3.05079v1.97657l-.71094 1.07422.71094 1.1289 4.4375-.54687.55078-.58203-.55078-.59375-4.4375-.48047v-1.97656l4.4375.375 2.48828 2.67578-2.48828 2.63671-4.4375.57032"/><path fill="#00c4fc" fill-rule="evenodd" d="M148.4375 414.88281l-.71094-1.1289.71094-1.07422 4.4375.48047.55078.59375-.55078.58203-4.4375.54687"/><path fill="#fff" fill-opacity="0" fill-rule="evenodd" d="M161.7539 409l-4.30859.3164 4.3086 1.21485 2.47656-1.21484L161.7539 409"/><path fill="#00e8fc" fill-rule="evenodd" d="M159.5664 396l-1.46874-4.4375 2.8203-4.4375.83595-.80078 4.1914.80078.2461.04688v3.8789l-1.67578.51172 1.67578 2.03906L167.30469 396l-1.11328 1.14063-4.4375 2.59375-.19922.70312.19922.65625 4.4375 1.3711 4.4375 1.77343 1.05078.63672 3.38672 1.5039 4.4414 2.37891 2.5039.5586 1.9336.80468 4.4375.20704 3.66797-1.01172.76953-.07032.4336.07032 4.0078 1.30859.8047-1.3086-.8047-1.14843-1.32421-3.29297-.90625-4.4375-2.21094-2.21094-4.4375-1.16797-4.4375-.34375L181.3125 396l-1.80469-.90625-4.4414-1.08594-4.4375-.13672-3.51172-2.30859-.92578-.51172v-3.8789l4.4375 2.78906 3.3203 1.60156 1.1172.35156 4.4414 1.29297 4.4375 1.19531L186.57421 396l1.8086.1836 4.4375.92968 3.32813 3.32422.91797 4.4375.1953.48828 2.77345 3.95313-2.66797 4.4375-.10547.3164-3.75781 4.1211-.6836.26953-3.4336-.26953-1.0039-.2422-4.4375-1.5664-4.4375-.30469-4.4414-1.48046-1.79297-.84375 1.01562-4.4375-3.66015-1.22657-4.4375-1.1328-4.4375-.14454-1.78516-1.9375-.875-4.4375.47266-4.4375"/><path fill="#00d4fc" fill-rule="evenodd" d="M161.7539 401.09375l-.19921-.65625.19922-.70313 4.4375-2.59375L167.30469 396l-1.11328-2.39844-1.67578-2.03906 1.67578-.51172.92578.51172 3.51172 2.3086 4.4375.13671v2.35156l-3.625 4.07813 3.625 2.25 2.15234 2.1875 2.28906 1.39063 4.4375 1.67968 4.4375.33594 4.4375-.61719 1.99219-2.78906-.89453-4.4375-1.09766-1.09375-4.4375-1.41016-4.4375-.19921-4.4375-.64844-4.4414-.72656v-2.35157l4.4414 1.08594L181.3125 396l2.63281.71484 4.4375.34375 4.4375 1.16797 2.21094 2.21094.90625 4.4375 1.32422 3.29297.80469 1.14844-.8047 1.30859-4.0078-1.3086-.4336-.0703-.76953.0703-3.66797 1.01173-4.4375-.20704-1.9336-.80468-2.5039-.5586-4.4414-2.3789-3.38672-1.50391-1.05078-.63672-4.4375-1.77344-4.4375-1.37109"/><path fill="#00c4fc" fill-rule="evenodd" d="M175.0664 402.6875l-3.625-2.25 3.625-4.07813 4.44141.72657 4.4375.64844v1.02343l-4.4375.41406-2.52344 1.26563 2.52344 2.5664 1.51172 1.8711 2.92578 1.41797 4.4375.67578 4.4375-.88281.86328-1.21094-.86328-4.34375-.03515-.09375-4.40235-1.625-4.4375-.05469v-1.02344l4.4375.19922 4.4375 1.41016 1.09766 1.09375.89453 4.4375-1.99219 2.78906-4.4375.61719-4.4375-.33594-4.4375-1.67969-2.28906-1.39062-2.15234-2.1875"/><path fill="#50fcfc" fill-rule="evenodd" d="M179.50781 367.41016l-3.30469-2.47657 3.3047-4.01171.13671-.4297 4.30078-3.72265v1.92188l-2.08203 1.80078 2.08203 1.67187 1.73047-1.67187-1.73047-1.80078v-1.92188l3.57813 3.72266-3.57813 3.45703-2.17187.98437-2.26563 2.47657"/><path fill="#00b8fc" fill-rule="evenodd" d="M179.50781 403.0039l-2.52344-2.5664 2.52344-1.26563 4.4375-.41406 4.4375.05469v.875l-4.4375.09375-2.75781.65625 2.75781 3.63281.85938.80469 3.57812.78516 3.1875-.78516-1.16015-4.4375-2.02735-.75v-.875l4.40235 1.625.03515.09375.86328 4.34375-.86328 1.21094-4.4375.88281-4.4375-.67578-2.92578-1.41797-1.51172-1.8711"/><path fill="#00a8fc" fill-rule="evenodd" d="M183.94531 404.07031l-2.75781-3.63281 2.75781-.65625 4.4375-.09375 2.02735.75 1.16015 4.4375-3.1875.78516-3.57812-.78516-.85938-.80469"/><path fill="#00e8fc" fill-rule="evenodd" d="M183.94531 362.16406l-2.08203-1.67187 2.08203-1.80078 1.73047 1.80078-1.73047 1.67187"/><path fill="#50fcfc" fill-rule="evenodd" d="M188.38281 376.08984l-3.65625-2.28125 3.65625-2.1914 1.99219-2.2461.17578-4.4375-.39844-4.4414-1.01172-4.4375 3.6797-3.8125v2.70703l-1.06641 1.10547 1.0664 2.57031 1.2539 1.86719 1.46876 4.4414 1.71875 2.16797 2.08984-2.16797-.16406-4.4414-1.92578-3.01563-2.07031-1.42187-2.3711-1.10547v-2.70703l4.4414.16406 3.44532-.78906.10547-4.4375.88672-.36719 3.28516.36719 1.15234.35937 1.85547 4.07813-1.85547 2.82422-1.53516 1.61328-2.79687 4.4375 3.6211 4.4414-3.72657 2.34766-2.0625 2.08984-2.375 2.57813-4.4414.74219-1.32032 1.11718-3.11719 2.28125"/><path fill="#00e8fc" fill-rule="evenodd" d="M192.82031 358.625l-1.0664-2.57031 1.0664-1.10547 2.3711 1.10547 2.0703 1.42187 1.92579 3.01563.16406 4.4414-2.08984 2.16797-1.71875-2.16797-1.46875-4.4414-1.2539-1.86719"/><path fill="#50fcfc" fill-rule="evenodd" d="M198.33984 382.6836l-.24609-4.4375 3.60547-3.4375.71484-1 3.72266-4.41407v1.69531l-2.29297 2.71875-2.14453 2.9961-1.51172 1.4414-.16406 4.4375 1.67578 1.79688 4.4375.10937 2.01172-1.90625 2.42578-4.03125.59766-.40625-.59766-.41796-2.03906-4.01954-2.39844-2.71875v-1.6953l3.89062 4.41405.54688 1.07813 4.4414 2.78906.58204.57031-.58203.5-4.44141 2.75391-.71094 1.1836-3.72656 3.52343-4.4375.07031-3.35938-3.59375"/><path fill="#00e8fc" fill-rule="evenodd" d="M201.69922 384.48047l-1.67578-1.79688.16406-4.4375 1.51172-1.4414 2.14453-2.9961 2.29297-2.71875v3.19922l-1.53906 3.95703 1.53906 2.2461 1.10156-2.2461-1.10156-3.95703v-3.19922l2.39844 2.71875 2.03906 4.01954.59766.41796-.59766.40625-2.42578 4.03125-2.01172 1.90625-4.4375-.10937"/><path fill="#50fcfc" fill-rule="evenodd" d="M201.69922 396.75781L200.5 396l1.19922-.82813.78125.82813-.78125.75781"/><path fill="#00d4fc" fill-rule="evenodd" d="M206.13672 380.49219l-1.53906-2.2461 1.53906-3.95703 1.10156 3.95703-1.10156 2.2461"/><path fill="#50fcfc" fill-rule="evenodd" d="M263.23047 391.5625L262.5 387.125l1.33594-1.35547 1.7461 1.35547 2.6914 4.26953.16015.16797-.16015.11328-4.4375.49219-.60547-.60547m12.26562-8.8789l-.36328-4.4375 2.01953-2.15235 3.9336 2.15234.5039.63672 2.58985 3.80078-2.58985 3.00782-1.4453 1.43359-1.7422 4.4375-1.25 1.77734-1.60156-1.77734-.08594-4.4375.03125-4.4414m19.40625 5.52734l-1.11328-1.08594 1.11328-1.47266 3.6875-2.96875.75391-1.14062 1.05078 1.14062 1.21485 4.44141 2.17187 3.3789.5 1.0586 3.9375 4.22266.23047.21484-.23047.21484-.21484-.21484-4.22266-3.9375-.5039-.5-3.9336-3.10938-4.4414-.24218"/><g clip-path="url(#c)"><path fill="#50fcfc" fill-rule="evenodd" d="M310.8164 449.26172l-2.11718-4.4414 1.11328-4.4375 2.84375-2.16016 4.4414-1.2461 4.4375-.1289 4.4375-.125 4.4375.58984 4.4375-1.32031.60938-.04688 3.83203-1.0625 1.8086-3.375 2.6289-2.8164 4.4375-.80079 4.4375-.45703 4.4414 1.6797L359 431.5078l-1.95703 3.51953-.19922.91797.19922.24219 4.4375-.03516 1.22265-.20703 3.21485-1.03515v2.0703l-1.32813 3.40235 1.32813.47266.38281-.47266-.38281-3.40234v-2.07031l1.03125 1.03515 3.40625.38281 1.4375-.3828-.11719-4.4375.78906-4.4375 2.32813-2.25391 4.4414.46875v2.51953l-4.4414 1.02734-1.04688 2.67578.20313 4.4375-3.59375.95703-3.48047 3.48047-.95703 1.1836-3.32422-1.1836-1.11328-1.51562-4.4375-.88281-1.66016-2.03907.86719-4.4375-3.64844-2.8164-4.4375 1.3789-3.96875 1.4375-.46875 1.16797-.95312 3.26953-3.48438 1.28516-4.4414.30078-4.4375 2.60156-4.4375-1.9961-4.4375.32813-4.4375.34766-2.83594 1.57031-1.60547 1.4414-1.98828 2.9961 1.98828 2.625.41406 1.8164 4.02735 4.35157.07812.08594 4.35938 3.73437 1.62109.70313 2.8164 2.86719 4.4375 1.03906.98438.53125 3.45313 2.5664 4.4414-.1328 4.4375-1.06641 4.4375.3203 4.4375-1.66405.07031-.02344 4.3711-.6211 4.4375-.0664 4.4375-3.20703.94922-.54297 3.48828-.95313 4.4375-.30468 4.4414.15625 4.4375-.70704 2.35547-2.6289.38672-4.4375.01953-4.4414-2.76171-2.83204-2.69922-1.60547.3164-4.4375 1.65625-4.4375-3.71094-3.70312v-2.51953l4.4375.66796 1.11329 1.1172.75 4.4375 2.29687 4.4375.27735.42968 2.24218 4.00781-1.03515 4.4375-1.20704 1.14453-.65625 3.29688.05079 4.4375.60546 3.1836 2.03907-3.1836 2.39844-2.63672 1.74218-1.80078 2.69531-3.01563 4.44141-.55859v7.49219l-.76562.51953.76562 2.29687.63281-2.29687-.6328-.51953v-7.49219l2.99608 3.57422 1.44141 1.67187 1.90625-1.67187-1.30469-4.4414.75782-4.4375 3.07812-4.08204.41016-.35547 4.02734-3.39062 4.4414-.00781v1.90234l-4.4414.97656-.61719.51953-3.8203 3.33594-.83204 1.10156-.17578 4.4375 1.00781 1.55469v7.77734l-4.4375.625-2.92578 3.35938-1.51172 2.58594-1.27344 1.85156 1.27344 1.39453 4.4375 1.80469 2.17578 1.24219-1.5664 4.4375-.33204 4.4375 4.16016 3.30078 4.4375.33984 4.4414-1.53906 2.10157-2.10156-2.10156-3.14454-.52344-1.29296-.7539-4.4375 1.27734-.52344 4.4375-1.23828 3.47656-2.6797.55078-4.4375-4.02734-3.0078-4.4375-.09766-4.4414.9961-4.4375-1.875V446.375l2.14062-1.55469 2.29687-1.29687 1.82813-3.14063 2.61328-2.78515 2.0586-1.65235-2.0586-1.4961v-1.90233l4.4375 2.85937.94531.53906-.94531.6875-4.4375 3.0586-.64844.6914-1.61719 4.4375-.89062 4.4414 3.15625 2.70704 1.40234 1.73047 3.03516.57031 4.4375 1 2.1836 2.86719-.8086 4.4375-1.375 1.3711-4.4375 2.36718-4.4375.69922-.00781.0039.0078.07032 1.625 4.36719 1.88282 4.4375-3.50781 3.5039-4.4414.61328-4.4375-.13281-4.4375-1.75-2.46485-2.23438-1.60156-4.4375 2.47656-4.4375-2.84766-.96875-3.17578-3.47265-1.26563-2.54297-4.4375-.3711-4.4375-.65234-2.79687-.8711-1.64063-.15624-4.4375-.11328-4.4414-.15625-3.21875.42578-1.21875 1.0625-4.4375 1.95312-2.72266 1.42188-1.71484 1.57812-4.4375.57813-4.4414.78515-4.4375.60938-4.4375-.13281-4.4375.32031-4.44141.1289-4.4375-1.59765-2.5547-2.26953-1.8828-.38281-3.98829-4.0547-.44921-.1953-4.4375-1.22266-3.6797-3.01953-.76171-1.65625-1.83984-2.78125"/></g><path fill="#00e8fc" fill-rule="evenodd" d="M312.65625 447.44531l-1.98828-2.625 1.98828-2.9961 1.60547-1.4414 2.83594-1.57031 4.4375-.34766 4.4375-.32812 4.4375 1.9961 4.4375-2.60157 4.4414-.30078 3.48438-1.28516.95312-3.26953.46875-1.16797 3.96875-1.4375 4.4375-1.3789v2.09765L351 431.50781l-1.69922 4.4375-1.13672.09766-3.61719 4.33984-.8203.99219-3.25-.99219-1.1875-.47265-4.44141.18359-.47266.28906-3.96484 1.58985-4.4375-1.46094-4.4375.67187-4.4375 1.07813-2.78125 2.5586-.25782 4.4414 3.03907 3.28515 1.0664 1.15235 3.3711 2.88672 3.5664 1.55078.8711.88672 4.4375 1.4336 3.89843 2.11718.53907.40234 4.4414-.14453.72656-.25781 3.71094-1.01953 4.4375.10547 4.4375-1.50782 4.4414-.53906 4.4375.46485 2.45313-1.94141 1.98438-1.7461 4.4375-1.18359 4.4375.28516 4.4414.16015 4.3047-1.95312.1328-.3086 1.01172-4.1289-1.01171-3.1914-.78516-1.25-3.65235-2.64844-4.4414-1.6172-.1914-.17187-4.2461-2.51953-2.51953 2.51953-1.91797 2.36328-4.4375-1.08984-4.4375-1.0586-.42969-.21484-3.66406-4.4375.58203-4.4375-.92969-.71875v-2.09765l3.64844 2.8164-.86719 4.4375 1.66016 2.03906 4.4375.88282 1.11328 1.51562 3.32422 1.1836.95703-1.1836 3.48047-3.48047 3.59375-.95703-.20313-4.4375 1.04688-2.67578 4.4414-1.02734v2.1875l-2.21484 1.51562 2.21485 1.98438 1.51562-1.98438-1.51563-1.51562v-2.1875l3.71094 3.70312-1.65625 4.4375-.3164 4.4375 2.69921 1.60547 2.76172 2.83203-.01953 4.4414-.38672 4.4375-2.35546 2.62892-4.4375.70703-4.44141-.15625-4.4375.30468-3.48828.95313-.94922.54297-4.4375 3.20703-4.4375.0664-4.3711.6211-.0703.02344-4.4375 1.66406-4.4375-.32031-4.4375 1.0664-4.44141.13281-3.45313-2.5664-.98437-.53125-4.4375-1.03906-2.81641-2.8672-1.6211-.70312-4.35937-3.73437-.07812-.08594-4.02735-4.35156-.41406-1.8164"/><path fill="#00d4fc" fill-rule="evenodd" d="M317.09766 452.54688l-3.03907-3.28516.25782-4.4414 2.78125-2.5586 4.4375-1.07813 4.4375-.67187 4.4375 1.46094 3.96484-1.58985.47266-.28906 4.4414-.1836 1.1875.47266 3.25.99219.82031-.99219 3.6172-4.33984v2.03125l-1.92579 2.3086-2.51172 3.04296-4.4375-.9375-4.4414-.20703-4.4375 1.36719-4.4375-.41406-4.4375.73437-2.10547.85156-2.33203.6211-2.0547 3.8203 4.10938 4.4375 2.38282 2.03907 4.4375 1.69531 2.41015.70313 2.02735.73828 4.4375 2.16406 4.4414-.01172 4.4375-1.17187 4.4375-.19531 3.625-1.52344.05469-4.4375.42969-4.4375.32812-.09375.85938.09375 3.58203 2.95703 1.11328 1.48047 2.5625 4.4375.76172.13672.17187-.13672 4.26563-3.76172 2.61328-.67578 1.82422-.46875 1.96875.46875 2.46875.41015 4.4414.16016 1.25391-.57031 2.33985-4.4375-3.375-4.4414-.21875-.16016-4.44141-2.66797-1.80469-1.60938-2.63281-1.5625-1.5625 1.5625-2.875 3.54688-4.4375-.35938-4.4375-1.90234-2.5625-1.28516-1.8789-2.2461-4.4375-.0625v-2.03124l1.13671-.09766L351 431.50781l1.60156-.71875.92969.71875-.58203 4.4375 3.66406 4.4375.42969.21485 4.4375 1.05859 4.4375 1.08984 1.91797-2.36328 2.51953-2.51953 4.2461 2.51953.1914.17188 4.4414 1.61719 3.65235 2.64843.78515 1.25 1.01172 3.1914-1.01171 4.12892-.13282.30859-4.30469 1.95312-4.4414-.16015-4.4375-.28516-4.4375 1.1836-1.98438 1.74609-2.45312 1.9414-4.4375-.46484-4.4414.53906-4.4375 1.50782-4.4375-.10547-3.71094 1.01953-.72657.25781-4.4414.14453-.53907-.40234-3.89843-2.11719-4.4375-1.4336-.8711-.88671-3.5664-1.55078-3.3711-2.88672-1.0664-1.15235"/><path fill="#50fcfc" fill-rule="evenodd" d="M317.09766 393.69531l-2.13672-2.13281 2.13672-2.63672 2.14843 2.63672-2.14843 2.13281"/><path fill="#00c4fc" fill-rule="evenodd" d="M317.09766 451.48047l-2.0547-2.21875 2.0547-3.82031 2.33203-.6211 2.10547-.85156 4.4375-.73438 4.4375.41407 4.4375-1.36719 4.4414.20703 4.4375.9375 2.51172-3.04297 1.92578-2.3086v2.02735l-.23437.28125-.74219 4.4375-3.46094.79297-4.4375-.66015-1.42578-.13282-3.01562-.39844-1.69922.39844-2.73828.72656-4.4375.42188-4.4375.03906-4.4375 1.26953-1.06641 1.98438 1.0664 1.15234 3.04688 3.28516 1.39063 1.1914 4.4375 1.27344 4.4375.91797 2.21484 1.05469 2.22266 1.01562 4.4414.1211 4.4375-1.1211.16797-.01562 3.48438-4.4375.3125-4.4375.47265-2.9336 4.4375 1.42579 4.4414.30468 3.76563-3.23828-3.76562-2.08203-4.4414-2.10937-2.07032-.2461-2.36719-.28125v-2.02734l4.4375.0625 1.8789 2.2461 2.5625 1.28515 4.4375 1.90234v4.46875l-2.09765 1.22266 2.09766 1.66797 4.4375-1.4414.03906-.22657-.03906-.10547-4.4375-1.11719v-4.46875l4.4375.35938 2.875-3.54688 1.5625-1.5625v.96094l-.60156.60156-2.5 4.4375.91406 4.4414 2.1875 1.97267 1.14062-1.97266 3.29688-3.3164v1.16015l-2.14453 2.15625 2.14453 3.82812 2.27734-3.82812-2.27734-2.15625v-1.16016l3.5 3.3164.9414 2.51173 1.5586-2.51172-1.5586-2-2.17968-2.4414-2.26172-1.39454-3.42188-3.04297-1.01562-.60156v-.96094l2.63281 1.5625 1.80469 1.60938 4.4414 2.66797.21875.16015 3.375 4.4414-2.33984 4.4375-1.2539.57032-4.44141-.16015-2.46875-.41016-1.96875-.46875-1.82422.46875-2.61328.67578-4.26563 3.76172-.17187.13672-.76172-.13672-2.5625-4.4375-1.11328-1.48047-3.58203-2.95703-.85938-.09375-.32812.09375-.42969 4.4375-.05469 4.4375-3.625 1.52344-4.4375.1953-4.4375 1.17188-4.4414.01172-4.4375-2.16406-2.02735-.73828-2.41015-.70313-4.4375-1.6953-2.38282-2.03907-2.05468-2.21875"/><path fill="#00b8fc" fill-rule="evenodd" d="M317.09766 450.41406l-1.06641-1.15234 1.0664-1.98438 4.4375-1.26953 4.4375-.03906 4.4375-.42188 2.73829-.72656 1.69922-.39844v1.76172l-4.4375 1.76172-4.4375.77344-4.4375-1.00781-4.4375 1.40234-.08204.14844.08204.08594 4.03515 4.35156.40235.34375 4.4375.85156 4.4375.20703 4.4375 1.77735 4.4414.42968 4.26563-3.60937.17187-.51563 1.26172-3.92187-1.26172-1.16406-4.4375-1.64844-4.4414-.26563v-1.76171l3.01562.39843 1.42578.13281 4.4375.66016 3.46094-.79297.74219-4.4375.23437-.28125 2.36719.28125 2.07031.2461v2.02343l-2.40234 2.16797 2.40234 1.51953 4.4414.05079 1.82813-1.57032-1.82812-1.00781-4.4414-1.16016v-2.02343l4.4414 2.10937 3.76562 2.08203-3.76562 3.23828-4.4414-.30468-4.4375-1.42579-.47266 2.9336-.3125 4.4375-3.48438 4.4375-.16797.01562-4.4375 1.1211-4.4414-.1211-2.22266-1.01562-2.21484-1.05469-4.4375-.91797-4.4375-1.27344-1.39063-1.1914-3.04687-3.28516"/><path fill="#00a8fc" fill-rule="evenodd" d="M317.09766 449.34766l-.08204-.08594.08204-.14844 4.4375-1.40234 4.4375 1.00781 4.4375-.77344 4.4375-1.76172v1.67579l-2.87891 1.40234 1.24219 4.4375 1.63672.46094 4.4414.79687 1.48828-1.25781 1.27344-4.4375-2.76172-1.3125-4.4414-.08985v-1.67578l4.4414.26563 4.4375 1.64844 1.26172 1.16406-1.26172 3.92187-.17187.51563-4.26563 3.60937-4.4414-.42968-4.4375-1.77735-4.4375-.20703-4.4375-.85156-.40235-.34375-4.03515-4.35156"/><path fill="#009800" fill-rule="evenodd" d="M333.21094 453.69922l-1.24219-4.4375 2.8789-1.40235 4.44141.08985 2.76172 1.3125-1.27344 4.4375-1.48828 1.25781-4.4414-.79687-1.63672-.46094"/><path fill="#50fcfc" fill-rule="evenodd" d="M334.84766 393.24219l-1.88672-1.67969 1.88672-1.67969 1.71484 1.67969 2.72656 1.45313v2.25L338.5586 396l.73047.8125.73047-.8125-.73047-.73438v-2.25L342.25781 396l-2.96875 3.30469L336.33203 396l-1.48437-2.75781"/><path fill="#00e8fc" fill-rule="evenodd" d="M339.28906 396.8125L338.5586 396l.73047-.73438.73047.73438-.73047.8125"/><g clip-path="url(#d)"><path fill="#50fcfc" fill-rule="evenodd" d="M343.21094 480.32813l.51562-.21094.3086.21094h-.82422"/></g><path fill="#00a8fc" fill-rule="evenodd" d="M352.60156 446.33984l-2.40234-1.51953 2.40234-2.16797v2.01954l-.16406.14843.16406.10547 2.4961-.10547-2.4961-.14844v-2.01953l4.4414 1.16016 1.82813 1.00781-1.82812 1.57031-4.4414-.05078"/><path fill="#009800" fill-rule="evenodd" d="M352.60156 444.92578l-.16406-.10547.16406-.14844 2.4961.14844-2.4961.10547"/><path fill="#00d4fc" fill-rule="evenodd" d="M361.48047 448.03906l-2.09766 1.22266 2.09766 1.66797 4.4375-1.4414.03906-.22657-.03906-.10547-4.4375-1.11719"/><path fill="#fff" fill-opacity="0" fill-rule="evenodd" d="M365.91797 436.98047l-1.32813 3.40234 1.32813.47266.38281-.47266-.38281-3.40234"/><path fill="#00b8fc" fill-rule="evenodd" d="M368.16797 449.26172l-.91406-4.4414 2.5-4.4375.60156-.60157 1.01562.60156 3.42188 3.04297 2.26172 1.39453 2.17969 2.4414 1.55859 2-1.5586 2.51173-.9414-2.51172-3.5-3.3164-3.29688 3.3164-1.14062 1.97265-2.1875-1.97265"/><path fill="#00d4fc" fill-rule="evenodd" d="M374.79297 447.10547l-2.14453 2.15625 2.14453 3.82812 2.27734-3.82812-2.27734-2.15625v1.15625l1.05469 1-1.0547 1.77344-.99218-1.77344.99219-1v-1.15625"/><path fill="#00e8fc" fill-rule="evenodd" d="M374.79297 448.26172l-.99219 1 .99219 1.77344 1.05469-1.77344-1.0547-1"/><path fill="#00d4fc" fill-rule="evenodd" d="M379.23438 433.49219l-2.21485-1.98438 2.21485-1.51562 1.51562 1.51562-1.51563 1.98438"/><path fill="#00e8fc" fill-rule="evenodd" d="M401.42578 463.96875l-1.27344-1.39453 1.27344-1.85156 1.51172-2.58594 2.92578-3.35938 4.4375-.625 4.4375 1.875 4.4414-.99609 4.4375.09766v1.42968l-4.3203 1.57813-.1172.03906-4.4414.53516-4.4375 1.64062-3.90234-2.21484-.53516-.26563-.23047.26563-.65234 4.4375.88281.41406 4.4375 1.97266 2.30469 2.05469-2.30469 4.26171-.08203.17579-2.64453 4.4375 2.72656 2.16796 4.4375.67579 4.3164-2.84375-1.80859-4.4375-1.45312-4.4375 3.38672-1.38672 4.4375-2.13282 1.19531-.92187.91797-4.4375-2.11328-1.57813v-1.42968l4.02734 3.0078-.55078 4.4375-3.47656 2.6797-4.4375 1.23828-1.27735.52344.75391 4.4375.52344 1.29296 2.10156 3.14454-2.10156 2.10156-4.4414 1.53906-4.4375-.33984-4.16017-3.30079.33204-4.4375 1.5664-4.4375-2.17578-1.24218-4.4375-1.80469"/><path fill="#fff" fill-opacity="0" fill-rule="evenodd" d="M401.42578 453.17969l-.76562.51953.76562 2.29687.63281-2.29687-.6328-.51953"/><path fill="#00d4fc" fill-rule="evenodd" d="M405.86328 462.98828l-.88281-.41406.65234-4.4375.23047-.26563.53516.26563 3.90234 2.21484 4.4375-1.64062 4.4414-.53516.1172-.03906 4.3203-1.57813v1.4336l-.40234.14453-4.03515 1.27734-4.4414.35156-3.89063 2.8086 3.89062 3.73828v2.44531l-1.96094 2.69531-2.47656 2.30079-1.29687 2.13671 1.29687 1.03125 4.4375 1.01563 3.10547-2.04688-2.01172-4.4375-1.09375-2.6953v-2.44532l4.4414-1.54297 3.73829-2.19531.69922-3.65235.19531-.78515-.19531-.14453v-1.4336l2.11328 1.57813-.91797 4.4375-1.19531.92187-4.4375 2.13282-3.38672 1.38671 1.45312 4.4375 1.8086 4.4375-4.3164 2.84375-4.4375-.67578-2.72657-2.16796 2.64453-4.4375.08203-.17579 2.30469-4.26171-2.30469-2.0547-4.4375-1.97265"/><path fill="#00c4fc" fill-rule="evenodd" d="M410.30078 476.92188l-1.29687-1.03125 1.29687-2.13672 2.47656-2.30079 1.96094-2.6953v3.2539l-4.1914 3.8789 4.1914 1.2461 1.89453-1.2461-1.89453-3.8789v-3.2539l1.09375 2.6953 2.01172 4.4375-3.10547 2.04688-4.4375-1.01563"/><path fill="#00e8fc" fill-rule="evenodd" d="M410.30078 446.375l-1.00781-1.55469.17578-4.4375.83203-1.10156 3.82031-3.33594.6172-.51953 4.4414-.97656 2.0586 1.4961-2.0586 1.65234-2.61328 2.78515-1.82813 3.14063-2.29687 1.29687-2.14063 1.55469"/><path fill="#00b8fc" fill-rule="evenodd" d="M414.73828 477.13672l-4.1914-1.2461 4.1914-3.8789v2.48047l-1.50781 1.39844 1.50781.44921.6836-.44921-.6836-1.39844v-2.48047l1.89453 3.8789-1.89453 1.2461"/><path fill="#00c4fc" fill-rule="evenodd" d="M414.73828 466.3125l-3.89062-3.73828 3.89062-2.8086 4.4414-.35156v1.24219l-4.4414.16406-2.42969 1.7539 2.4297 2.33595 4.4414-1.00391 2.26953-1.33203-2.26953-1.91797v-1.24219l4.03515-1.27734.40235-.14453.19531.14453-.19531.78515-.69922 3.65235-3.73828 2.19531-4.4414 1.54297"/><path fill="#00b8fc" fill-rule="evenodd" d="M414.73828 464.91016l-2.42969-2.33594 2.4297-1.7539v1.05468l-.96876.69922.96875.9336 4.4414-.46485.80079-.46875-.80078-.67578-4.4414-.02344v-1.05469l4.4414-.16406 2.26953 1.91797-2.26953 1.33203-4.4414 1.0039"/><path fill="#50fcfc" fill-rule="evenodd" d="M414.73828 425.04688l-1.53515-2.41797 1.53515-1.55079 4.4414.87891 1.00782.67188-1.00781.59765-4.4414 1.82031"/><path fill="#00a8fc" fill-rule="evenodd" d="M414.73828 476.33984l-1.50781-.44921 1.50781-1.39844.6836 1.39844-.6836.44921m0-12.83203l-.96875-.9336.96875-.69921 4.4414.02344.80079.67578-.80078.46875-4.4414.46484"/><path fill="#50fcfc" fill-rule="evenodd" d="M424.67969 422.6289l-.10547-4.4375 3.48047-3 4.4375-.86327 4.4375-.2461.96484-.32812 3.47656-3.41016 4.4375-.69531 1.91407-.33203 2.52343-2.13282v2.41797l-4.4375.88672-4.4375 2.63281-.64843.63282-3.79297 1.29687-4.4375.41406-4.4375 1.88282-.98047.84375.88672 4.4375.09375.09765 4.4375 3.8086 4.4375-.66797 4.14844 1.20312.29296.20703 4.4375 2.09375 2.89063 2.13672 1.54687 1.45703 2.40235-1.45703 2.03515-1.0586 2.8047-3.3789.86327-4.4414-3.66797-4.33594-.04296-.10156.04296-.75391 1.51954-3.6836-1.51954-1.02734-4.4375-3.125v-2.41797l1.98438 2.13282 2.45312 1.33593 4.44141 2.8047.29297.29687-.29297.39453-1.5586 4.04297 1.5586 3.73437.63281.70313.69531 4.4414-1.32812.59375-2.1289 3.84375-.14844 4.4375-1.9336 4.4375-.23047.34766-1.26171 4.08984-2.56641 4.4414-.60938.66017-.60937-.66016-1.83985-4.4414 2.44922-3.81641 3.67579-.6211-2.20704-4.4375-1.46875-.5039-4.17578-3.9336-.26172-.19531-4.4375-1.44922-3.9414-2.79297-.5-.14453-.73438.14453-3.70312 2.34766-3.07422-2.34766-1.36328-1.01562-3.375-3.42578m3.375 29.73437l-3.35938-3.10156 1.98828-4.4414 1.3711-1.63673 1.5586 1.63672 1.16796 4.4414-2.72656 3.10157"/><path fill="#00e8fc" fill-rule="evenodd" d="M427.96094 422.6289l-.88672-4.4375.98047-.84374 4.4375-1.88282 4.4375-.41406 3.79297-1.29687.64843-.63282 4.4375-2.6328 4.4375-.88673v.98828l-4.4375 1.3047-2.6875 1.85937-1.75 1.5-4.4414 1.41015-4.4375.6914-1.625.83595.42969 4.4375 1.1953 1.03906 4.4375.4414 4.44141 1.26563 4.4375 1.1211.66797.57421 3.76953 3.17969 4.32422-3.17969.11328-.1211 2.25391-4.3203-2.2539-2.66016-.73438-1.77734-.0625-4.4375-3.64063-3.16407v-.98828l4.4375 3.125 1.51954 1.02735-1.51954 3.68359-.04296.7539.04296.10157 3.66797 4.33594-.86328 4.4414-2.80469 3.3789-2.03515 1.0586-2.40235 1.45703-1.54687-1.45703-2.89063-2.13672-4.4375-2.09375-.29296-.20703-4.14844-1.20312-4.4375.66797-4.4375-3.8086-.09375-.09765"/><path fill="#00d4fc" fill-rule="evenodd" d="M431.29688 422.6289l-.4297-4.4375 1.625-.83593 4.4375-.6914 4.44141-1.41016 1.75-1.5 2.6875-1.85938 4.4375-1.30469v.98829l-4.4375 1.71875-.66015.45703-3.77735 3.24218-4.11328 1.19532.67578 4.4375 3.4375.96875 4.4375.91406 2.97657 2.5586 1.46093 1.23046 1.67579-1.23047 2.76171-2.83984.83594-1.60156-.83594-.98829-1.42968-3.44921-.50782-4.4375-2.5-2.17579v-.98828l3.64063 3.16407.0625 4.4375.73437 1.77734 2.25391 2.66016-2.2539 4.3203-.11329.1211-4.32422 3.17969-3.76953-3.17969-.66797-.57422-4.4375-1.12109-4.4414-1.26563-4.4375-.4414-1.19531-1.03906"/><path fill="#50fcfc" fill-rule="evenodd" d="M436.92969 394.51563l-2.94922-2.95313.4375-4.4375 2.51172-2.41406 4.4414-1.32813v1.08203l-4.09375 2.66016-.34765 1.72656-.72266 2.71094.72266.72266 1.88281-.72266 2.5586-.67578 2.90624-3.76172-2.90625-2.66016v-1.08203l4.09375 3.74219-2.0703 4.4375-2.02345 2.05078-4.4414.90235"/><path fill="#00e8fc" fill-rule="evenodd" d="M436.92969 392.28516l-.72266-.72266.72266-2.71094.34765-1.72656 4.09375-2.66016v1.8086l-1.3125.85156 1.3125 1.20313.9297-1.20313-.9297-.85156v-1.8086l2.90625 2.66016-2.90625 3.76172-2.55859.67578-1.88281.72266"/><path fill="#00c4fc" fill-rule="evenodd" d="M437.9336 422.6289l-.67579-4.4375 4.11328-1.1953 3.77735-3.2422.66015-.45702 4.4375-1.71875v.98828l-2.83984 1.1875-1.59766 1.46484-3.61328 2.97266 3.61328 4.28515.07813.15235 4.35937 3.90625 3.84766-3.90625-1.53125-4.4375-.95313-4.4375-1.36328-1.1875v-.98829l2.5 2.17579.50782 4.4375 1.42968 3.44921.83594.98829-.83594 1.60156-2.76171 2.83984-1.67579 1.23047-1.46093-1.23047-2.97657-2.5586-4.4375-.91405-3.4375-.96875"/><path fill="#50fcfc" fill-rule="evenodd" d="M441.3711 441.42578l-3.14454-1.04297 3.14453-1.1211 2.20704 1.1211-2.20704 1.04297"/><path fill="#00d4fc" fill-rule="evenodd" d="M441.3711 388.32813l-1.3125-1.20313 1.3125-.85156.92968.85156-.92969 1.20313"/><path fill="#00b8fc" fill-rule="evenodd" d="M445.8086 422.47656l-3.61329-4.28515 3.61328-2.97266 1.59766-1.46484 2.83984-1.1875v.99218l-.46875.19532-3.96875 3.6328-.97656.8047.97656 1.15625 1.70704 3.28125 2.73046 2.4453 2.41016-2.4453-.78906-4.4375-1.39453-4.4375-.22657-.19532v-.99218l1.36329 1.1875.95312 4.4375 1.53125 4.4375-3.84766 3.90625-4.35937-3.90625-.07813-.15235"/><path fill="#00a8fc" fill-rule="evenodd" d="M445.8086 419.34766l-.97657-1.15625.97656-.8047 3.96875-3.6328.46875-.19532v1.85938l-3.01562 2.77344 1.91406 4.4375 1.10156.98828.97266-.98828-.04297-4.4375-.92969-2.77344v-1.85938l.22657.19532 1.39453 4.4375.78906 4.4375-2.41016 2.4453-2.73046-2.4453-1.70704-3.28125"/><path fill="#50fcfc" fill-rule="evenodd" d="M450.2461 475.53516l-3.6172-4.08204.25-4.4375 3.3672-4.02734v2.92578l-.91798 1.10156.91797 2.32032.82032-2.32031-.82032-1.10157v-2.92578l3.00391 4.02735-.78906 4.4375-2.21485 4.08203"/><path fill="#009800" fill-rule="evenodd" d="M449.14453 422.6289l-1.91406-4.4375 3.01562-2.77343v2.07422l-.76171.69922.76171 2.26953.23438-2.26953-.23438-.69922v-2.07422l.9297 2.77344.04296 4.4375-.97266.98828-1.10156-.98828"/><path fill="#00e8fc" fill-rule="evenodd" d="M450.2461 469.33594l-.91798-2.32031.91797-1.10157.82032 1.10156-.82032 2.32032"/><path fill="#00ac00" fill-rule="evenodd" d="M450.2461 420.46094l-.76173-2.26953.76172-.69922.23438.69922-.23438 2.26953"/><g clip-path="url(#e)"><path fill="#fff" fill-opacity="0" fill-rule="evenodd" d="M467.9961 480.32813H468V311.67188h-.0039H468v168.65625h-.0039"/></g><path fill="#fff" fill-opacity="0" fill-rule="evenodd" d="M307.3086 454.08203l3.5664 4.625 7.88672-6.08594-3.5664-4.625-7.88673 6.08594"/><path fill-rule="evenodd" d="M315.8789 451.88672l.3125.40234-4.98437 3.84766-.48047-.625 3.55469-2.74219-.84766-1.09765.4375-.33985.39454.40235.19921.16796.21094.125.23438.07422.27343.01172.32032-.0664.375-.16016"/><path fill="#fff" fill-opacity="0" fill-rule="evenodd" d="M392.08594 459.50781l3.55469-4.63672-7.90625-6.05859-3.5547 4.63281 7.90626 6.0625"/><path fill-rule="evenodd" d="M387.76563 451.78516l.30859-.40625 4.9961 3.83203-.48048.625-3.5625-2.73047-.84375 1.10156-.4414-.33984.28906-.48438.10938-.23047.0703-.23828.01173-.2461-.0625-.26562-.14454-.29296-.25-.32422"/><path fill="#fff" fill-opacity="0" fill-rule="evenodd" d="M180.20313 426.13281l5.83203.36328.62109-9.9414-5.82813-.36328-.625 9.9414"/><path fill-rule="evenodd" d="M184.20703 418.23828l.50781.03125-.39453 6.28125-.78515-.04687.28125-4.48047-1.38672-.08594.03515-.55469.5625-.03125.25391-.03906.23438-.07422.21484-.1289.1836-.19922.16015-.28516.13281-.38672"/><path fill="#fff" fill-opacity="0" fill-rule="evenodd" d="M366.86328 460.88281l7.88672-.77734-.9961-10.14063-7.88671.77344.9961 10.14453"/><path fill-rule="evenodd" d="M368.51563 452.32031L371.78515 452l.07421.73438-2.6289.2578-.05078 1.82032.20703-.1836.25781-.16015.3125-.11719.3789-.07031.32423-.0039.34375.05077.34765.11329.33203.18359.29688.26172.13281.16015.1211.1836.10156.20703.08203.23047.0664.25781.03907.27735.00781.4453-.0625.4297-.13281.39843-.20313.35938-.27734.3125-.16797.13281-.1836.11719-.20312.09765-.22265.08204-.23829.05859-.2578.03906-.46876.00781-.40625-.0625-.35156-.1289-.29297-.1875-.2461-.23438-.19921-.28125-.16016-.3164-.1211-.34375.78126-.07813.10547.22266.12109.19922.14063.16796.16015.13672.17578.10938.19922.07031.21485.03516.23046-.0039.3125-.0547.27344-.09765.23047-.14453.1914-.1836.14063-.23047.09766-.27343.04297-.31641-.00782-.35938-.04687-.26171-.08594-.25391-.125-.23828-.16797-.21094-.21094-.17578-.2539-.125-.29688-.07031-.33984-.0039-.33203.0703-.26953.13672-.2539.21094-.28517.30078-.6914.0664.1289-3.45312"/><g clip-path="url(#f)"><path fill="none" stroke="#000" stroke-linecap="round" stroke-linejoin="round" stroke-miterlimit="10" stroke-width=".5" d="M146.71484 482.5586l-5.42968-4.46094"/></g><g clip-path="url(#g)"><path fill="none" stroke="#000" stroke-linecap="round" stroke-linejoin="round" stroke-miterlimit="10" stroke-width=".5" d="M160.27734 482.21875l-5.92578-3.77734"/></g><g clip-path="url(#h)"><path fill="none" stroke="#000" stroke-linecap="round" stroke-linejoin="round" stroke-miterlimit="10" stroke-width=".5" d="M173.4375 482.44531l-5.61328-4.23047"/></g><g clip-path="url(#i)"><path fill="none" stroke="#000" stroke-linecap="round" stroke-linejoin="round" stroke-miterlimit="10" stroke-width=".5" d="M186.60156 482.625l-5.3164-4.59375"/></g><g clip-path="url(#j)"><path fill="none" stroke="#000" stroke-linecap="round" stroke-linejoin="round" stroke-miterlimit="10" stroke-width=".5" d="M200.1914 482.26953l-5.85937-3.8789"/></g><g clip-path="url(#k)"><path fill="none" stroke="#000" stroke-linecap="round" stroke-linejoin="round" stroke-miterlimit="10" stroke-width=".5" d="M213.14453 482.72656l-5.14062-4.79297"/></g><g clip-path="url(#l)"><path fill="none" stroke="#000" stroke-linecap="round" stroke-linejoin="round" stroke-miterlimit="10" stroke-width=".5" d="M226.73047 482.39844l-5.67969-4.14063"/></g><g clip-path="url(#m)"><path fill="none" stroke="#000" stroke-linecap="round" stroke-linejoin="round" stroke-miterlimit="10" stroke-width=".5" d="M240.10938 482.3086l-5.8086-3.95704"/></g><g clip-path="url(#n)"><path fill="none" stroke="#000" stroke-linecap="round" stroke-linejoin="round" stroke-miterlimit="10" stroke-width=".5" d="M253.57813 482.0625l-6.11329-3.46484"/></g><g clip-path="url(#o)"><path fill="none" stroke="#000" stroke-linecap="round" stroke-linejoin="round" stroke-miterlimit="10" stroke-width=".5" d="M266.82031 482.1836l-5.96875-3.70704"/></g><g clip-path="url(#p)"><path fill="none" stroke="#000" stroke-linecap="round" stroke-linejoin="round" stroke-miterlimit="10" stroke-width=".5" d="M280.04688 482.3164l-5.79297-3.97656"/></g><g clip-path="url(#q)"><path fill="none" stroke="#000" stroke-linecap="round" stroke-linejoin="round" stroke-miterlimit="10" stroke-width=".5" d="M292.16016 483.40625l-3.38672-6.15625"/></g><g clip-path="url(#r)"><path fill="none" stroke="#000" stroke-linecap="round" stroke-linejoin="round" stroke-miterlimit="10" stroke-width=".5" d="M304.4961 483.76953l-1.4297-6.88281"/></g><g clip-path="url(#s)"><path fill="none" stroke="#000" stroke-linecap="round" stroke-linejoin="round" stroke-miterlimit="10" stroke-width=".5" d="M317.22266 483.83984l-.25391-7.02343"/></g><g clip-path="url(#t)"><path fill="none" stroke="#000" stroke-linecap="round" stroke-linejoin="round" stroke-miterlimit="10" stroke-width=".5" d="M330.01563 483.82031l.78906-6.98437"/></g><g clip-path="url(#u)"><path fill="none" stroke="#000" stroke-linecap="round" stroke-linejoin="round" stroke-miterlimit="10" stroke-width=".5" d="M343.30469 483.8164l.83984-6.97656"/></g><g clip-path="url(#v)"><path fill="none" stroke="#000" stroke-linecap="round" stroke-linejoin="round" stroke-miterlimit="10" stroke-width=".5" d="M357.72656 483.77344l-1.3711-6.89063"/></g><g clip-path="url(#w)"><path fill="none" stroke="#000" stroke-linecap="round" stroke-linejoin="round" stroke-miterlimit="10" stroke-width=".5" d="M372.32813 483.23438l-3.94532-5.8125"/></g><g clip-path="url(#x)"><path fill="none" stroke="#000" stroke-linecap="round" stroke-linejoin="round" stroke-miterlimit="10" stroke-width=".5" d="M384.91797 483.61328l-2.49219-6.57031"/></g><g clip-path="url(#y)"><path fill="none" stroke="#000" stroke-linecap="round" stroke-linejoin="round" stroke-miterlimit="10" stroke-width=".5" d="M393.8711 481.95313l6.23046-3.25"/></g><g clip-path="url(#z)"><path fill="none" stroke="#000" stroke-linecap="round" stroke-linejoin="round" stroke-miterlimit="10" stroke-width=".5" d="M394.77734 481.48047l-1.01171-.69531"/></g><g clip-path="url(#A)"><path fill="none" stroke="#000" stroke-linecap="round" stroke-linejoin="round" stroke-miterlimit="10" stroke-width=".5" d="M406.82422 480.82813l6.95312-1"/></g><g clip-path="url(#B)"><path fill="none" stroke="#000" stroke-linecap="round" stroke-linejoin="round" stroke-miterlimit="10" stroke-width=".5" d="M407.83594 480.6836l-.72656-.98829"/></g><g clip-path="url(#C)"><path fill="none" stroke="#000" stroke-linecap="round" stroke-linejoin="round" stroke-miterlimit="10" stroke-width=".5" d="M420.71484 482.3086l5.8047-3.95704"/></g><g clip-path="url(#D)"><path fill="none" stroke="#000" stroke-linecap="round" stroke-linejoin="round" stroke-miterlimit="10" stroke-width=".5" d="M420.71484 482.3086l-2.17187-1.14063"/></g><g clip-path="url(#E)"><path fill="none" stroke="#000" stroke-linecap="round" stroke-linejoin="round" stroke-miterlimit="10" stroke-width=".5" d="M434.05469 482.34375l5.7539-4.03125"/></g><g clip-path="url(#F)"><path fill="none" stroke="#000" stroke-linecap="round" stroke-linejoin="round" stroke-miterlimit="10" stroke-width=".5" d="M434.89063 481.75781l-1.09375-.5586"/></g><g clip-path="url(#G)"><path fill="none" stroke="#000" stroke-linecap="round" stroke-linejoin="round" stroke-miterlimit="10" stroke-width=".5" d="M448.58203 483.42188l3.32813-6.1875"/></g><g clip-path="url(#H)"><path fill="none" stroke="#000" stroke-linecap="round" stroke-linejoin="round" stroke-miterlimit="10" stroke-width=".5" d="M462.4961 483.67578l2.1328-6.69531"/></g><g clip-path="url(#I)"><path fill="none" stroke="#000" stroke-linecap="round" stroke-linejoin="round" stroke-miterlimit="10" stroke-width=".5" d="M146.54688 469.4336l-5.09375-4.83985"/></g><path fill="none" stroke="#000" stroke-linecap="round" stroke-linejoin="round" stroke-miterlimit="10" stroke-width=".5" d="M145.80469 468.73047l-.32813 1.1836m14.85156-1.08985l-6.02343-3.6211m5.14453 3.09375l-.0625 1.22657m14.20312-.6211l-5.92187-3.77734m5.92187 3.77734l-.1914 2.44922m13.60937-2.61328l-6.125-3.44922m5.23438 2.94922l-.03125 1.22656m14.35156-.94922l-6.35156-3.0039m5.42578 2.5664l.0586 1.22657M213.94921 468l-6.7461-1.97266m5.76172 1.6836l.25 1.20312m14.16407-2.3164l-6.97657.83203m6.97657-.83203l1.40234 2.01562m11.60156-3.10156l-6.35156 3.0039m5.42578-2.5664l.98438.73047m12.88672-1.77735l-5.61329 4.22266m4.79688-3.60938l1.10937.51954m9.8047-2.51172l.8203 6.98047m9.41797-3.04297l6.97266-.89453m6.9375 2.4453l5.78125-3.99609m7.14453 3.25782l6.5625-2.51953m-5.60937 2.15234l-.92579-.80469m13.56641 1.73828l6.0039-3.65234m-5.1289 3.1211l-1.05469-.625m13.83594 1.62109l5.32422-4.58203m-4.55078 3.91796l-1.14453-.4453m14.09375 1.51562l4.5039-5.39453m-3.84765 4.60937l-1.19922-.2539m13.14062.21874l5.9414-3.7539m-5.07812 3.20703l-1.0625-.60938m13.8711 1.62891l5.22656-4.69922m8.14844 4.76563l5.10547-4.83203m9.49609 5.6914l2.53516-6.55078m-2.53516 6.55078l-2.4375.29297m14.26172-1.39062l5.51562-4.35547m-5.51562 4.35547l-2.2461-.98438m15.03126.03906l6.57812-2.46484m-6.57812 2.46484l-1.83985-1.62109m16.45703 3.28516l3.97266-5.79297m-3.39453 4.95312l-1.21875-.14062m13.99219 1.00781l3.89843-5.84766m-3.33203 4.9961l-1.21875-.1211m14.01172 1l3.8125-5.90234m-3.25781 5.04297L460.98828 469"/><g clip-path="url(#J)"><path fill="none" stroke="#000" stroke-linecap="round" stroke-linejoin="round" stroke-miterlimit="10" stroke-width=".5" d="M145.6875 456.78125l-3.375-6.16406"/></g><path fill="none" stroke="#000" stroke-linecap="round" stroke-linejoin="round" stroke-miterlimit="10" stroke-width=".5" d="M145.19531 455.88281l-.67187 1.02735m15.33594-.78516l-5.08594-4.85156m4.34375 4.14453l-.33203 1.17969m14.5-.59766l-5.3125-4.60156m4.53906 3.92969l-.27344 1.1953m15.0664-1.79687l-6.71874-2.05469m5.74219 1.75391l.23437 1.20313m14.20313-1.71485l-7.01172-.4336m7.01172.4336l1.01953 2.23438m12.30078-2.57813l-7.02344.25782m7.02344-.25782l1.23047 2.1211m11.28906-4.22266l-5.42969 4.46094m4.64063-3.8125l1.1328.47265m12.53517-1.5625l-4.5586 5.34375m3.89844-4.5664l1.19531.26562m10.5-1.88672v7.02735m0-6.0039l1.08594-.57423m9.9336.40625l4.59374 5.32031m-3.92578-4.54687l.44531-1.14453m12.71875 0l3.5586 6.0625m-3.03906-5.17969l.64062-1.04687m10.5 2.4453l6.86719 1.4961m-5.86719-1.27734l-.33203-1.17969m12.96875.08203l6.22656 3.2539m-6.22656-3.2539l-.01953-2.45312m13.16015 5.3164l6.57813-2.46875m-5.6211 2.10938l-.92187-.8125m13.64844 1.89453l5.83594-3.91406m-5.83594 3.91406L325.32813 454.5m15.73046 1.48438l5.33594-4.57422m-5.33594 4.57422l-2.28515-.89454m15.48047.75l5.57422-4.28125m-5.57422 4.28125l-2.23047-1.01562m15.09375.23437l6.48047-2.71875m-6.48047 2.71875l-1.90235-1.55468m15.02735.95312l6.85937-1.51953m-6.85937 1.51953l-1.59375-1.86328m14.92969 1.95703l6.8164-1.70312m-6.8164 1.70312l-1.64454-1.82422m15.1172 2.30469l6.5-2.66406m-6.5 2.66406l-1.88673-1.5664m2.83203 1.17968l-.9453-.78515m13.78124 1.98046l5.57031-4.28125m-5.5703 4.28125l-2.23438-1.01562m3.04297.39453l-1.1172-.50781m13.44532.8789l5.92578-3.78125m-5.92578 3.78125l-2.13672-1.20703m15.28906.92578l6.25-3.21875m-6.25 3.21875l-2.01562-1.40234m15.36328 1.46094l6.1836-3.33594m-5.28516 2.85156l-1.01953-.6836"/><g clip-path="url(#K)"><path fill="none" stroke="#000" stroke-linecap="round" stroke-linejoin="round" stroke-miterlimit="10" stroke-width=".5" d="M145.01953 443.7461l-2.03906-6.72657"/></g><g clip-path="url(#L)"><path fill="none" stroke="#000" stroke-linecap="round" stroke-linejoin="round" stroke-miterlimit="10" stroke-width=".5" d="M144.72266 442.76953l-.8711.86328"/></g><path fill="none" stroke="#000" stroke-linecap="round" stroke-linejoin="round" stroke-miterlimit="10" stroke-width=".5" d="M159.67578 442.98828l-4.71875-5.20703m4.03125 4.44922l-.41797 1.15234m15.4336-2.01953l-6.7461-1.96094m5.76563 1.67578l.25 1.19922m14.1836-1.96484l-7.02345.14062m7.02344-.14062l1.19531 2.14453m12.09766-2.4961l-6.97656.84376m5.96094-.71875l.69921 1.0039m12.09766-3.625l-3.91016 5.83985m3.33985-4.99219l1.22265.125m11.6836-1.42969l-1.95313 6.75m1.66797-5.76562l1.20313-.2539m10.74609-.8047l1.34766 6.89844m-1.15235-5.89453l.95313-.77344m11.15625.13672l3.3711 6.16406m-2.88282-5.26562L250 437.17187m12.00781.21094l3.65625 6m-3.65625-6l1.25-2.10937m11.63281 2.41797l4.51954 5.3828m-3.85938-4.59765l.45703-1.14062m10.95703 2.75l7 .59765m-5.98046-.51172l-.48438-1.1289m12.84375.60937l6.875 1.46094m-6.875-1.46094l-.67578-2.35937m13.9961 2.34375l6.86327 1.4961m-5.86718-1.27735l-.33203-1.1836m12.57421 1.54297l7.01954.33594m-6-.28516l-.52344-1.11328m12.92578 2.10938l6.80469-1.7539m-6.8047 1.7539l-1.65624-1.8125m14.90625 1.4961l6.9336-1.125m-6.9336 1.125l-1.48438-1.95313m14.78125 1.85156l6.96875-.91797m-6.96875.91797l-1.42187-2m14.8789 2.6211l6.6875-2.16407m-6.6875 2.16406l-1.76171-1.70703m14.96484-.01562l6.91016 1.28515m-6.91016-1.28515l-.73437-2.33985m14.10156 3.85938l6.80469-1.7539m-6.8047 1.7539l-1.65624-1.8125m15 1.91406l6.75-1.96094m-6.75 1.96094l-1.71094-1.75781m2.6914 1.47265l-.85546-.8789m13.36719 1.64453l6.39453-2.91797m-6.39453 2.91797l-1.94532-1.4961m2.875 1.07032l-.97265-.7461m13.7578 1.83594l5.59767-4.25m-5.59766 4.25l-2.23047-1.02734m3.04297.41015l-1.11328-.51562m12.94531-.4375l6.9375-1.10938m-6.9375 1.10938l-1.48047-1.95703"/><g clip-path="url(#M)"><path fill="none" stroke="#000" stroke-linecap="round" stroke-linejoin="round" stroke-miterlimit="10" stroke-width=".5" d="M143.51563 430.54688l.96875-6.95704"/></g><path fill="none" stroke="#000" stroke-linecap="round" stroke-linejoin="round" stroke-miterlimit="10" stroke-width=".5" d="M156.10547 430.36719l2.42187-6.59766m-2.0703 5.63672l-1.21485.16797m14.17187.78906l2.4336-6.58984m-2.07813 5.63281l-1.21875.16406m18.07422-.23047l-5.35938-4.54297m19.02344.4922l-6.0586 3.55859m5.1797-3.03907l1.04297.64063m6.62109.32031l7.0039.59766m7.59766-3.02735l4.42969 5.45704m-3.78516-4.66407l.47656-1.1289M235.4961 424l3.41797 6.13672M235.4961 424l1.33203-2.0625m11.91797 2.09766l3.54688 6.0664m-3.54688-6.0664l1.28907-2.08594m12.27734 1.95312l3.04688 6.33204m-3.04688-6.33204l1.45313-1.97656m11.85156 1.98047l3.0664 6.32422m-2.62109-5.40234l.72656-.9922m13.4961-.27734l.36328 7.01954m-.3125-5.9961l1.05078-.63281m13.64062-.16406l-2.49218 6.5664m2.1289-5.61328l1.21875-.15234m10.33594-.91797l1.7539 6.80469m8.95704-3.875l6.96094.9453m-5.94922-.80858l-.42578-1.15235m12.70703 1.21875l7.0078.53516m-7.0078-.53516l-.98438-2.2461m14.59375 1.08204L360.25 428.5m-5.48437-2.44531l-.08594-1.22656m12.1875 2.66406l6.97656-.84766m-5.96094.72266l-.70312-1.0039m13.51172 2.5703l5.95703-3.73046m-5.95703 3.73046l-2.125-1.22656m15.28515-2.23047l6.26953 3.1836m-5.35546-2.71875l-.02344-1.22657m12.04687 2.28125l7.02344.14454m-7.02344-.14454l-1.10547-2.1914m14.71485 3.67578l6.4336-2.82422m-6.4336 2.82422l-1.92578-1.51953m2.86328 1.10937l-.96485-.76172m13.33594 1.15235l6.44922-2.78516m-6.44922 2.78516l-1.91797-1.53125m2.85547 1.125l-.95703-.76563m13.79688 1.95313l5.52343-4.34766m-5.52343 4.34766l-2.2422-.98828m3.04688.35547l-1.1211-.4961m13.01954-.0625l6.7461-1.96484m-6.7461 1.96484l-1.71094-1.75781"/><g clip-path="url(#N)"><path fill="none" stroke="#000" stroke-linecap="round" stroke-linejoin="round" stroke-miterlimit="10" stroke-width=".5" d="M142.25 416.80078l3.5-6.09375"/></g><path fill="none" stroke="#000" stroke-linecap="round" stroke-linejoin="round" stroke-miterlimit="10" stroke-width=".5" d="M155.66016 416.85156l3.3125-6.19531m-3.3125 6.19531l-2.45313-.0039m15.07422-.48047l4.69531-5.22656m-4.69531 5.22656l-2.3789-.58985m15.96093.8047l4.16406-5.66016m-3.55859 4.83984l-1.21484-.17969m12.73437-.54687l6.54297-2.56641m-5.58984 2.19531l-.9336-.79687m13.08594.35937l6.96484-.94922m-5.95312.8125l-.71484-.99609m13.125-.32422l6.74609 1.96875m-5.76172-1.6836l-.25-1.19921m12.53516 1.09375l6.83984 1.60547m-5.84375-1.3711l-.3125-1.1875m13.04297-.05468l6.01953 3.625m-5.14453-3.09766l.0664-1.22656m14.02344-.73047l2.71485 6.48437m-2.31641-5.53906l.77344-.94922m12.05078.04688l2.90234 6.39844m-2.48047-5.46875l.75-.97266m15.4922.28516l-3.79688 5.91406m3.24609-5.05469l1.22266.10156m11.53515-1.42968l-1.57812 6.84765m1.34765-5.85156l1.1875-.3164m12.40625-.66798l-1.67578 6.82422m1.4336-5.82812l1.1875-.30078m9.75-.3086l3.5625 6.05469m-3.04297-5.17578l.64062-1.04297m11.54297.61719l4.78516 5.14844m8.33203-4.94532l5.1836 4.74219m7.46484-3.6875l6.51562 2.63281m-5.5664-2.25l-.12891-1.22265m12.32031 1.40625l6.86719 1.5m-6.86719-1.5l-.66406-2.36328m14.1914 1.71093l6.44141 2.80469m-5.5039-2.39844l-.09766-1.22265m12.625.5078l6.14062 3.42188m-5.24609-2.92187l.02344-1.22656m12.86328.07812l5.21094 4.71875m-5.21094-4.71875l.60156-2.3789m13.7461 1.59375l3.14453 6.28515m-2.6875-5.3711l.71093-.99609m12.25782 6.42188l2.92578-6.39063m-2.5 5.46094l-1.22657.07031m14.73829-5.75l1.67968 6.82422m-1.4375-5.82812l.91407-.82031"/><g clip-path="url(#O)"><path fill="none" stroke="#000" stroke-linecap="round" stroke-linejoin="round" stroke-miterlimit="10" stroke-width=".5" d="M144.76953 403.86719l-1.53906-6.85547"/></g><g clip-path="url(#P)"><path fill="none" stroke="#000" stroke-linecap="round" stroke-linejoin="round" stroke-miterlimit="10" stroke-width=".5" d="M144.54688 402.86719l-.9297.80078"/></g><path fill="none" stroke="#000" stroke-linecap="round" stroke-linejoin="round" stroke-miterlimit="10" stroke-width=".5" d="M155.6836 403.55078l3.26171-6.22265m-3.26172 6.22265l-2.45312.01563m14.79687-.76954l5.20703-4.71875m-4.44921 4.03125l-1.15625-.41406m13.48437.82422l5.66406-4.16015m-4.83984 3.55468l-1.10547-.53515m13.17969.40234l6.4961-2.6836m-5.55079 2.29298l-.94531-.78125m13.17578.76562l6.77344-1.8711m-6.77344 1.8711l-1.6875-1.78125m16.11719 3.52344l4.54687-5.35938m-3.88672 4.58203l-1.1953-.26171m18.15624 1.22656l-4.0625-5.73438m12.21484 4.46485l6.26172-3.19141m-5.35156 2.72656l-1.0039-.70312m13.02343-.39844l7.02735-.0586m-6.00391.05079l-.58594-1.07813m13.48047-.91015l5.82422 3.92968m-5.82422-3.92968l.25781-2.4375m12.9961 2.53125l5.94922 3.74218m-5.08594-3.1953l.08984-1.22657m11.94532 1.63281l6.78125 1.83985m-5.79688-1.57422l-.26953-1.19532m13.96484-1.02343l4.05078 5.74218m-3.46093-4.90625l.55468-1.09375m12.35938.13282l3.67187 5.99218m-3.13671-5.11718l.62109-1.0586m12.36328.07031l3.26563 6.22266m-2.78907-5.3164l.6914-1.01563m10.29298 2.77734l6.97265.88282m-5.95703-.75391l-.4375-1.14453m13.375 3.51172l5.69922-4.10938m-4.8711 3.51172l-1.10155-.54297m13.23437.53125l6.40625-2.89062m-5.47266 2.47265l-.97265-.75m13.6914-2.3125l5.73047 4.07032m-4.89453-3.47657l.15625-1.21875m13.55469-.44921l3.26562 6.22265m-2.78906-5.3164l.6914-1.01563m15.06641-.05078l-2.57421 6.53906m2.19921-5.58594l1.21875-.14062m11.26172-1.05469l-.15234 7.02344m.1289-6l1.09766-.55469m11.3086 6.45313l1.71093-6.81641m-1.71093 6.8164l-2.37891.58985m20.03125-4.47656l-6.96094.95703m5.94922-.82031l.71484.99609"/><g clip-path="url(#Q)"><path fill="none" stroke="#000" stroke-linecap="round" stroke-linejoin="round" stroke-miterlimit="10" stroke-width=".5" d="M145.55078 390.27734l-3.10156-6.30859"/></g><path fill="none" stroke="#000" stroke-linecap="round" stroke-linejoin="round" stroke-miterlimit="10" stroke-width=".5" d="M145.09766 389.35938l-.71875.99609m12.48828.2539l.89453-6.97265M157 389.59375l-1.14844.4336m15.40235.55468l-1.25-6.91797m1.0703 5.91016l-.96483.76172m15.6289-.1914l-3.58594-6.04298m3.0625 5.16406l-.63672 1.04688m14.65235-.27734l-3.9375-5.82032m3.36328 4.97266l-.57422 1.08203m15.375-1.13281l-5.76172-4.02735m16.64844 5.5l-.90625-6.96875m.77344 5.95313l-1 .71094m10.96484-1.40235l6.0586-3.55859m8.53906-1.26953l3.4961 6.09765m-2.98829-5.21093l.65234-1.03516m11.1211 5.34375l5.5625-4.29297m-4.7539 3.66797l-1.1172-.5039m13.375-2.79688l6.0586 3.5625m-6.0586-3.5625l.10547-2.45313m12.73828 3.9336l7 .59765m-7-.59765L286 384.57032m14.60547 4.05468l6.35156-3.0039m-6.35156 3.0039l-1.96875-1.46484m15.01562.65234l6.89063-1.3789m-5.89063 1.17968l-.77734-.94922m14.90625-2.65234l3.26172 6.22265m-2.78906-5.3164l.6914-1.01563m11.22657.8086l5.10937 4.82422m-4.36719-4.1211l.32813-1.1836m11.35547 3.59767l6.88672-1.41016m-6.88672 1.41015l-1.5625-1.89062m15.64062-1.08203l5.36328 4.53906m-4.58593-3.8789l.26171-1.19922m16.94141-.08985l-3.97266 5.79297m3.39454-4.94922l1.22265.13672m7.26172 1.1289l6.84766 1.57423m-5.85157-1.34375l-.3203-1.1875m19.43359.7539l-6.7422 1.98047m13.25782-.23047l6.85938-1.51953m11.11328-2.53125l-2.45703 6.58203m2.10156-5.625l1.21484-.16015m11.75 5.96875l-1.04687-6.94922m1.04687 6.94922l-1.96875 1.46093m12.375-2.35937l4.77344-5.15235m-4.08203 4.40235l-1.1836-.3125"/><g clip-path="url(#R)"><path fill="none" stroke="#000" stroke-linecap="round" stroke-linejoin="round" stroke-miterlimit="10" stroke-width=".5" d="M147.09766 375.46875l-6.19532-3.32031"/></g><path fill="none" stroke="#000" stroke-linecap="round" stroke-linejoin="round" stroke-miterlimit="10" stroke-width=".5" d="M147.09766 375.46875l-.00782 2.45313m12.9961-1.95313l-5.53906-4.32422m5.53906 4.32422l-.42578 2.41797m13.82812-2.53516l-5.71484-4.08594m5.71484 4.08594l-.32422 2.4336m14.20703-3.69532l-6.85156-1.5625m5.85547 1.33594l.32031 1.1836m11.26563-5.1797l-1.40235 6.88282m1.19922-5.88281l1.17578-.34766m9.69141-.13281l3.90234 5.84375m-3.33593-4.99219l.58203-1.08203m11.0586 4.88281l6.11718-3.46094m-5.22656 2.95704l-1.03516-.65625m16.63281 2.9414l-.22656-7.02344m.22656 7.02344l-2.1289 1.22266m18.74218-3.90625l-6.82812-1.65625m13.6211 2.46484l6.21874-3.27344m7.32813-.3828l5.7539 4.03906m-5.7539-4.03907l.30078-2.4336m14.64844 1.16798l2.48437 6.57031m8.5625-3.23047l7.02344-.10937m-7.02344.10937l-1.1875-2.14844m14.51172 2.35938l7.0039-.53125m-7.0039.53125L312.28125 372m2.33203 1.9961l-.65625-1.03516m13.27344-.64453l6.35937 2.98437m-6.35937-2.98437l-.1211-2.45313m13.125 3.57031l6.98438.75m-6.98438-.75l-.91796-2.27734m14.24218 3.10938l6.96485-.91407m-6.96485.91406l-1.42578-2m14.90625 2.69922l6.63672-2.3125m11.86328-1.8203l-3.73437 5.95312m3.1914-5.08594l1.22266.08594m9.89453-1.37891l1.7461 6.80469m-1.4922-5.8164l.90626-.82813m10.09765 1.30468l5.86328 3.875m6.90625-2.4453l6.95313 1.01562m-5.9414-.8672l-.41407-1.15624m15.85938-1.98047l.66796 6.99219m-.5703-5.97656l1.02343-.67579m9.4961 1.38282l6.0625 3.54687m8.92577-5.01562l2.71485 6.48046m-2.32031-5.53515l.77734-.94922"/><g clip-path="url(#S)"><path fill="none" stroke="#000" stroke-linecap="round" stroke-linejoin="round" stroke-miterlimit="10" stroke-width=".5" d="M145.83984 363.48828L142.16016 357.5"/></g><path fill="none" stroke="#000" stroke-linecap="round" stroke-linejoin="round" stroke-miterlimit="10" stroke-width=".5" d="M145.30469 362.61719l-.625 1.05469m14.88672-.48047l-4.50391-5.39454m4.5039 5.39454l-.92577 2.27343m15.09375-3.32812l-6.21094-3.28516m5.3086 2.80469l.0039 1.22656m12.72265.73047l-3.22656-6.24219m2.75781 5.33594l-.69922 1.00781m15.5625-5.47656l-5.38671 4.51172m18.05859-5.11328l-4.09766 5.71094m3.5-4.87891l1.21485.16406m7.53125.23438l6.23047 3.25m-5.32422-2.77735l-.00781-1.22656m14.48828 5.73438l2.09375-6.70704m-2.09375 6.70704l-2.41407.45312m17.36328-.34375l-1.17968-6.92578m1.00781 5.91797l-.96875.75m11.0664-1.08594l5.60157-4.24219m-4.78516 3.625l-1.11328-.51562m15.41016 2.3789l2.0039-6.73437m15.19141 1.35156l-5.7539 4.03516m18.83593-4.33203l-5.28906 4.6289m16.41406-5.80078l-.91015 6.96875m.77734-5.95312l1.14844-.4336m9.0664.75391l5.55469 4.30078m-5.55469-4.30078l.41407-2.42188m12.21484 5.15235l6.92969-1.16016m-6.9297 1.16016l-1.49608-1.94531m2.5039 1.77734l-1.4961-1.94922m13.9297 2.6289l6.67578-2.1875m-6.67578 2.1875l-1.76954-1.69921m2.7422 1.38281l-.88673-.85156m14.86719 3.15234l3.39844-6.15234m-3.39844 6.15234l-2.45312-.03906m20.74609-1.77734l-6.5586-2.52344m6.5586 2.52344l.29687 2.4375m12.53907-1.57422l-5.59766-4.25m19.50781 1.21875l-6.78906 1.8164m5.80078-1.55468l.83594.89843m13.53516.33594l-6.92579-1.17969m6.92579 1.1797l.77343 2.33202m12.39063-4.09375l-6.6211 2.34375m6.6211-2.34375l1.8086 1.66016m11-2.60547l-5.60548 4.23828m4.78907-3.6211l1.11328.51563m11.24218-2.375l-2.05859 6.71875m2.0586-6.71875L467 356.66797"/><g clip-path="url(#T)"><path fill="none" stroke="#000" stroke-linecap="round" stroke-linejoin="round" stroke-miterlimit="10" stroke-width=".5" d="M147.48438 346.72656l-6.96875.90235"/></g><path fill="none" stroke="#000" stroke-linecap="round" stroke-linejoin="round" stroke-miterlimit="10" stroke-width=".5" d="M147.48438 346.72656l1.42187 2m5.3711.21875l6.07421-3.53125m8.3125 4.67578l3.92969-5.82421m-3.35547 4.97656l-1.22266-.125m16.89454 1.4414l-1.9297-6.7578m1.64845 5.77343l-.88282.85156m11.51563-.35937l4-5.77735m-3.41797 4.9375l-1.21875-.14453m18.92188-3.78125l-5.94141 3.7539m5.07422-3.20702l1.0664.60937m12.57422 3.26172l-4.85937-5.07813m4.15234 4.33594l-.38672 1.16797m15.35938-2.00781l-6.76172-1.91797m6.76172 1.91797l.51562 2.39844m10.98438-.21094l-3.1289-6.29297m11.41015 3.69531l6.9375-1.09765m-6.9375 1.09765l-1.48047-1.95703m14.83594 2.17578l6.85546-1.53515m-5.85937 1.3125l-.79688-.9297m13.51954-1.40233l6.04687 3.57812m-5.16797-3.0586l.0586-1.22656m13.90625 5.67188L305.27734 344m-2.99218 6.35547l-2.44922.1211m20.77344-3.31641l-7.02735.03515m7.02735-.03515l1.16406 2.16015m10.29297-5.24219l-3.3086 6.19922m3.3086-6.19921l2.45312.0039m8.82031-.39453l.77344 6.98438m-.77344-6.98438l2.02735-1.38281m8.22656 4.1875l6.89453 1.3711m-6.89453-1.3711l-.70703-2.34766m17.71094 6.53906l-.48047-7.01171m.48047 7.01171l-2.08594 1.29688m2.01562-2.3164l-1.04296.64843m15.33203.1875l-2.28907-6.64453m2.28907 6.64453l-1.67188 1.79297m15.55469-2.04688l-3.42578-6.13671m2.92578 5.24609l-.66406 1.02734m16.03906-1.92969l-6.54688-2.55078m5.59375 2.1797l.14454 1.21874m14.18359-1.01172l-6.66797-2.22265m6.66797 2.22265l.41016 2.41797m12.9375-4.54297l-6.73047 2.03125m6.73047-2.03125l1.72656 1.73828m10.1289-3.67578l-3.8125 5.90235m3.8125-5.90235l2.44532.20703m9.78906-.67187l-1.64844 6.83203m1.64844-6.83203l2.375-.60938"/><g clip-path="url(#U)"><path fill="none" stroke="#000" stroke-linecap="round" stroke-linejoin="round" stroke-miterlimit="10" stroke-width=".5" d="M146.98828 332.01172l-5.97656 3.69922"/></g><path fill="none" stroke="#000" stroke-linecap="round" stroke-linejoin="round" stroke-miterlimit="10" stroke-width=".5" d="M146.98828 332.01172l2.11719 1.23828m-2.98828-.69922l2.1211 1.23828m11.46093-2.50781l-4.76563 5.16406m4.76563-5.16406l2.3711.6211m-3.06641.1289l2.375.625m10.19922-2.17578l-1.89844 6.76562m1.625-5.78125l1.19531-.26171m10.30078 5.98046l2.28906-6.64062m9.39453 5.47656l5.55079-4.3125m-4.7422 3.6836l-1.12108-.5m13.01562-.10157l6.77734-1.85156m-6.77734 1.85156l-1.6836-1.78515m20.1875 3.875l-3.60156-6.03125M225.16797 336l-.63281 1.05078m14.57422-.23437l-3.8047-5.90625m3.25 5.04687l-.60155 1.07031m16.02734-3.77343l-6.92188 1.21875m6.92188-1.21875l1.51172 1.9375m11.51172-2.85157l-6.33594 3.04297m6.33594-3.04297l1.97656 1.45704m7.98047-3.44141l.3789 7.01562m-.32421-5.99609l1.05078-.63281M288.42969 331l4.07422 5.72656M288.42969 331l1.09375-2.19531m12.09765 7.83203l4.31641-5.54688m-3.6875 4.73829l-1.20703-.21094m15.51172 1.71875l1.08203-6.94531m-.92578 5.93359l-1.15625.40234m18.27344-2.04687l-6.83594-1.63281m6.83594 1.6328l.61718 2.375m12.77735-3.54687l-6.9922.71094m5.97267-.60938l.68359 1.01954m13.40625.5625l-6.5039-2.65625m6.5039 2.65625l.25 2.4414m8.04297-.73437l3.53906-6.07031m10.32031 6.32812l2.45313-6.58594m-2.45313 6.58594l-2.4336.32031m16.33595-.16015l1.27734-6.90625m-1.09375 5.90234l-1.16797.36719m15.77344.59765l-1.67188-6.82812m1.4297 5.83203l-.91407.82031m15.89062-.54297l-4.5078-5.39062m4.5078 5.39062l-.92578 2.27344m15.4961-4.8164l-7.01953-.3047m7.01953.3047l1.05859 2.21093m-2.07812-2.25781l.52734 1.10938m13.14062-3.28125l-5.68359 4.1328m5.6836-4.1328l2.20312 1.07421m-3.03125-.47265l2.20703 1.07422m11.66797-2l-5.14844 4.78125"/><g clip-path="url(#V)"><path fill="none" stroke="#000" stroke-linecap="round" stroke-linejoin="round" stroke-miterlimit="10" stroke-width=".5" d="M466.13672 331.47266l2.3164.80468"/></g><path fill="none" stroke="#000" stroke-linecap="round" stroke-linejoin="round" stroke-miterlimit="10" stroke-width=".5" d="M465.38672 332.16797l2.32031.80469"/><g clip-path="url(#W)"><path fill="none" stroke="#000" stroke-linecap="round" stroke-linejoin="round" stroke-miterlimit="10" stroke-width=".5" d="M145.94531 317.625l-3.89062 5.84766"/></g><path fill="none" stroke="#000" stroke-linecap="round" stroke-linejoin="round" stroke-miterlimit="10" stroke-width=".5" d="M145.94531 317.625l2.44531.23828m-3.01171.60938l1.22265.12109m12.80469-.8711l-4.1836 5.64844m4.1836-5.64843l2.42578.36718m-3.03516.45704l1.21485.17968m13.07422-.6914l-4.91406 5.02343m4.91406-5.02343l2.35547.6914m-3.07032.03906l2.35547.69141m11.26563-1.76562l-4.09375 5.71093m4.09375-5.71093l2.42969.32421m-3.02735.50782l1.21875.16015m11.35156-1.57812l-1.40625 6.88672m1.19922-5.88672l1.17578-.34766m8.30078 3.875l6.6836-2.17187m-5.71094 1.85937l-.88281-.85547m13.26562 1.28516l6.60157-2.40625m-5.64063 2.0586l-.91406-.82032m13.82422 2.15625l5.49219-4.38281m-4.69532 3.7461l-1.125-.48829m19-3.41797l-5.22265 4.70313m17.35937-5.5586l-2.86719 6.41797m2.8672-6.41797l2.4453-.16796m10.73047.10937l-2.58593 6.53516m2.58593-6.53516l2.4375-.27344m11.32032.48828l-3.47657 6.10547m3.47657-6.10547l2.45312.07032m-2.95703.8164l1.22656.03516m13.72266.10156l-5.73828 4.05469m5.73828-4.05469l2.1914 1.10547m8.45704 4.42969l-.40235-7.01563m.34375 5.9961l-1.04687.63671m16.34375-.32421l-4.2461-5.59766m3.6289 4.78125l-.51562 1.11328m15.73047-2.23828l-6.8125-1.71484m5.82032 1.46484l.29687 1.1914m14.04297-1.07421l-6.8789-1.44922m5.8789 1.23828l.33984 1.17578m12.41407-4.66015l-3.75782 5.9375m3.75782-5.9375l2.44921.1875m12.21485 1.39062l-6.45313 2.78125m6.45313-2.78125l1.91406 1.53516m11.63672.45703l-6.92578-1.20313m6.92578 1.20313l.76172 2.33203m-1.76953-2.50781l.3828 1.16796m13.70313-2.98046l-6.45312 2.77734m6.45312-2.77734l1.91407 1.53515m-2.85157-1.13281l.95704.76953m10.80078 3.65235l-1.46485-6.8711m1.46485 6.8711l-1.87891 1.57812m1.66797-2.57813l-.9414.78907m16.20312-.72266l-4.9336-5.0039m4.9336 5.0039l-.73438 2.33985m.01563-3.07032l-.36719 1.17188m14.28516-5.55469l-4.70313 5.21875m4.70313-5.21875l2.3828.59766m-3.0664.16406l1.1914.29687m12.33595-1.41796l-3.75782 5.9375"/><g clip-path="url(#X)"><path fill="none" stroke="#000" stroke-linecap="round" stroke-linejoin="round" stroke-miterlimit="10" stroke-width=".5" d="M465.4414 317.57813l2.44532.1875"/></g><path fill="none" stroke="#000" stroke-linecap="round" stroke-linejoin="round" stroke-miterlimit="10" stroke-width=".5" d="M464.89453 318.44531l2.44531.1836m-2.99218.67968l1.22265.08985"/><path fill="#00f" fill-rule="evenodd" d="M383.80078 436.57813h8.61719v-10.14454h-8.61719v10.14454"/><path fill="azure" fill-rule="evenodd" d="M385.63281 428.26563h.83203v2.82421h3.28907v-2.82421h.83203v6.48046h-.83203v-2.91406h-3.28907v2.91406h-.83203v-6.48046"/><path fill="#00f" fill-rule="evenodd" d="M210.70313 405.51172h8.62109v-10.14453h-8.6211v10.14453"/><path fill="azure" fill-rule="evenodd" d="M212.53906 397.19922h.83203v2.82422h3.28516v-2.82422h.83203v6.48047h-.83203v-2.91797h-3.28516v2.91797h-.83203v-6.48047"/><path fill="#ff3030" fill-rule="evenodd" d="M331.23438 347.8125h7.6914v-10.14453h-7.6914v10.14453"/><path fill="azure" fill-rule="evenodd" d="M333.0664 339.5h.83594v5.73828h3.19141v.74219h-4.02734V339.5"/><path fill="#ffffe0" fill-rule="evenodd" d="M284.04688 380.2539h22.17968v-10.1914h-22.17969v10.1914"/><path fill-rule="evenodd" d="M287.54297 371.89453h.51172v6.29688h-.78906v-4.4922h-1.38672v-.55468l.55859-.0664.2539-.05079.22657-.08984.20703-.14453.17188-.20703.14062-.29688.10547-.39453m4.8164 0l.22657.01953.22265.05469.20704.08984.1953.1211.1836.14844.17188.17578.30078.42187.2461.49219.17968.54687.10937.57813.03907.59375-.03907.58984-.10937.58594-.17969.55469-.2461.5-.30077.42969-.17188.17968-.1836.15235-.1953.125-.20704.08984-.22265.0586-.22656.01952-.23047-.01953-.21875-.05859-.20704-.08984-.19921-.125-.1836-.15235-.17187-.17969-.30078-.42968-.2422-.5-.17968-.55469-.11328-.58594-.03516-.58984h.83204l.02734.5625.08203.5039.125.44532.16406.3711.1914.30077.21095.22266.22265.13672.22656.04687.22657-.04687.22265-.13672.21094-.22266.1875-.30078.16406-.3711.125-.4453.08204-.50391.03125-.5625-.03125-.5625-.08204-.5-.125-.4375-.16406-.36328-.1875-.29297-.21094-.21485-.22265-.1328-.22656-.04298-.22657.04297-.22265.13281-.21094.21485-.1914.29297-.16407.36328-.125.4375-.08203.5-.02735.5625h-.83203l.03516-.59375.11328-.57813.17969-.54687.24219-.49219.30078-.42187.17187-.17579.1836-.14843.19921-.1211.20704-.08984.21875-.05469.23046-.01953m5.08985 0h.50781v6.29688h-.78515v-4.4922h-1.38672v-.55468l.55859-.0664.25-.05079.23047-.08984.20312-.14453.17579-.20703.14062-.29688.10547-.39453m2.82422 2.17578h.78515l.01954-.3164.0625-.28516.09765-.2539.14063-.21485.17968-.17578.22266-.1289.26563-.07813.30859-.02735.23828.01954.22266.0625.20703.10156.17578.14062.15234.17188.10938.20703.07422.23437.02343.26563-.01953.26953-.0664.22266-.10938.1914-.15625.17188-.20312.16406-.2461.16406-.63281.39063-.53906.3125-.4375.3164-.34375.32422-.26563.33594-.1914.35156-.125.3711-.06641.39062-.02344.42188h4.21485v-.7422h-3.33204l.08204-.28515.11328-.23437.14844-.20313.1875-.17969.23046-.17187.27735-.17578.71875-.41797.41406-.20313.34766-.23046.27734-.25391.22266-.26563.16406-.27734.10937-.28515.0625-.28516.02344-.28125-.04297-.38281-.1211-.34766-.1875-.3086-.2539-.26171-.30078-.21485-.34375-.15625-.38281-.09765-.40625-.03516-.4336.03516-.39843.09765-.35547.16407-.30469.23437-.25.30469-.1836.375-.11718.44531-.03906.51953"/><path fill="#ffffe0" fill-rule="evenodd" d="M390.5664 397.55078h22.1797v-10.19531h-22.1797v10.19531"/><path fill-rule="evenodd" d="M394.0664 389.1914h.50782v6.29298h-.78516v-4.48829h-1.39062v-.55468l.5586-.06641.2539-.05469.23047-.08984.20312-.14063.17188-.21093.14453-.29297.10547-.39453m4.8125 0l.23046.01953.21875.05469.20704.08984.1953.1211.1836.14843.17188.17578.30469.41797.24218.4961.17969.54687.10938.57812.03906.58985-.03906.59375-.10938.58594-.17969.55078-.24219.5039-.30468.42578-.17188.1797-.1836.15624-.1953.1211-.20704.09375-.21875.05468-.23046.01953-.23047-.01953-.21875-.05469-.20703-.09375-.19532-.12109-.18359-.15625-.17188-.17969-.30468-.42578-.24219-.5039-.17969-.55079-.10937-.58593-.03906-.59375h.83203l.03125.5625.07812.50781.1289.4414.16016.375.19141.30079.21094.22265.22265.13672.22657.04688.22656-.04688.22265-.13672.21094-.22265.1914-.30078.16017-.375.1289-.44141.08203-.50781.02735-.5625-.02735-.5625-.08203-.5-.1289-.4336-.16016-.36718-.1914-.29297-.21094-.21094-.22266-.13281-.22656-.04688-.22657.04688-.22265.13281-.21094.21094-.1914.29297-.16016.36718-.1289.4336-.07813.5-.03125.5625h-.83204l.03907-.58985.10937-.57812.17969-.54688.24219-.49609.30469-.41797.17187-.17578.1836-.14844.1953-.1211.20704-.08983.21875-.0547.23047-.01952m5.08984 0h.51172v6.29296h-.78906v-4.48828h-1.38672v-.55468l.5586-.06641.2539-.05469.22656-.08984.20703-.14063.17188-.21093.14062-.29297.10547-.39453m2.82422 2.17578h.78906l.01953-.3164.0586-.28907.09765-.25.14063-.21485.1836-.17578.22265-.1289.26562-.08203.30469-.02735.23828.02344.22656.0625.20313.10156.17969.13672.14843.17578.11329.20313.0703.23828.02735.26172-.02344.26953-.0664.22656-.10938.1914-.15625.17188-.19922.16016-.24609.16797-.63672.38672-.53515.3164-.4375.3164-.34766.32423-.26563.33594-.1875.35156-.125.36719-.0703.39453-.01954.41796h4.21094v-.73828h-3.33203l.08203-.28515.11328-.23828.14844-.19922.1875-.17969.23046-.17188.27735-.17578.71875-.41796.41406-.20704.34766-.23046.28125-.25.21875-.26563.16406-.28125.10938-.28125.0664-.28516.01953-.28125-.04297-.3828-.12109-.34767-.1875-.30859-.25-.26172-.30469-.21484-.34375-.15625-.38281-.10156-.40625-.03125-.4336.03125-.39843.09765-.35547.16797-.30469.23438-.2461.30468-.1875.375-.11327.44532-.04297.51953"/></g></defs><use xlink:href="#Y"/></svg>