<svg xmlns="http://www.w3.org/2000/svg" role="img" xmlns:xlink="http://www.w3.org/1999/xlink" viewBox="143.98 322.98 320.54 146.29"><defs><clipPath id="a"><path d="M144 311.67188h1v168.65625h-1zm0 0"/></clipPath><clipPath id="b"><path d="M144 311.67188h324v168.65625H144zm0 0"/></clipPath><clipPath id="c"><path d="M467 311.67188h1v168.65625h-1zm0 0"/></clipPath><clipPath id="d"><path d="M144 477h3v3.32813h-3zm0 0"/></clipPath><clipPath id="e"><path d="M154 477h6v3.32813h-6zm0 0"/></clipPath><clipPath id="f"><path d="M167 477h7v3.32813h-7zm0 0"/></clipPath><clipPath id="g"><path d="M181 477h6v3.32813h-6zm0 0"/></clipPath><clipPath id="h"><path d="M194 478h7v2.32813h-7zm0 0"/></clipPath><clipPath id="i"><path d="M207 478h8v2.32813h-8zm0 0"/></clipPath><clipPath id="j"><path d="M220 478h8v2.32813h-8zm0 0"/></clipPath><clipPath id="k"><path d="M225 480h2v.32813h-2zm0 0"/></clipPath><clipPath id="l"><path d="M233 478h8v2.32813h-8zm0 0"/></clipPath><clipPath id="m"><path d="M247 477h7v3.32813h-7zm0 0"/></clipPath><clipPath id="n"><path d="M261 477h6v3.32813h-6zm0 0"/></clipPath><clipPath id="o"><path d="M275 477h5v3.32813h-5zm0 0"/></clipPath><clipPath id="p"><path d="M288 476h5v4.32813h-5zm0 0"/></clipPath><clipPath id="q"><path d="M302 476h4v4.32813h-4zm0 0"/></clipPath><clipPath id="r"><path d="M314 477h6v3.32813h-6zm0 0"/></clipPath><clipPath id="s"><path d="M327 477h7v3.32813h-7zm0 0"/></clipPath><clipPath id="t"><path d="M340 478h8v2.32813h-8zm0 0"/></clipPath><clipPath id="u"><path d="M353 479h8v1.32813h-8zm0 0"/></clipPath><clipPath id="v"><path d="M360 480h2v.32813h-2zm0 0"/></clipPath><clipPath id="w"><path d="M366 479h8v1.32813h-8zm0 0"/></clipPath><clipPath id="x"><path d="M381 476h5v4.32813h-5zm0 0"/></clipPath><clipPath id="y"><path d="M394 477h6v3.32813h-6zm0 0"/></clipPath><clipPath id="z"><path d="M407 478h7v2.32813h-7zm0 0"/></clipPath><clipPath id="A"><path d="M404 480h4v.32813h-4zm0 0"/></clipPath><clipPath id="B"><path d="M421 477h5v3.32813h-5zm0 0"/></clipPath><clipPath id="C"><path d="M436 476h2v4.32813h-2zm0 0"/></clipPath><clipPath id="D"><path d="M448 476h5v4.32813h-5zm0 0"/></clipPath><clipPath id="E"><path d="M461 477h6v3.32813h-6zm0 0"/></clipPath><clipPath id="F"><path d="M144 463h2v8h-2zm0 0"/></clipPath><clipPath id="G"><path d="M144 470h2v3h-2zm0 0"/></clipPath><clipPath id="H"><path d="M144 449h1v9h-1zm0 0"/></clipPath><clipPath id="I"><path d="M144 437h3v7h-3zm0 0"/></clipPath><clipPath id="J"><path d="M144 424h3v6h-3zm0 0"/></clipPath><clipPath id="K"><path d="M144 411h4v5h-4zm0 0"/></clipPath><clipPath id="L"><path d="M144 397h3v7h-3zm0 0"/></clipPath><clipPath id="M"><path d="M466 399h2v3h-2zm0 0"/></clipPath><clipPath id="N"><path d="M144 384h3v7h-3zm0 0"/></clipPath><clipPath id="O"><path d="M144 370h2v8h-2zm0 0"/></clipPath><clipPath id="P"><path d="M144 356h1v9h-1zm0 0"/></clipPath><clipPath id="Q"><path d="M144 363h1v3h-1zm0 0"/></clipPath><clipPath id="R"><path d="M144 345h4v4h-4zm0 0"/></clipPath><clipPath id="S"><path d="M144 332h4v4h-4zm0 0"/></clipPath><clipPath id="T"><path d="M144 319h4v3h-4zm0 0"/></clipPath><clipPath id="U"><path d="M466 318h2v2h-2zm0 0"/></clipPath><clipPath id="V"><path d="M465 318h3v3h-3zm0 0"/></clipPath><g id="W" clip-path="url(#clip1)"><path fill="#fff" fill-opacity="0" fill-rule="evenodd" d="M.01563 0h1000v1000h-1000zm0 0"/><path fill="#d3d3d3" fill-opacity="0" fill-rule="evenodd" d="M162.16797 355.86719l-.23438.29297.0586.23437.11719.17188.17578.23437.29297.34766.11328.0586.11718-.17188.0586-.23438.17578-.17578.46484-.17578h.69922l.23438.29297.28906.8164.0586.17579.17577.23046.35157.23438.69922.69922.17187.17578.23438.34765.23437.41016.28906.58203.41016.46485.23047.23437.23437.17578.11719.23047.17578.29297.17188 1.16406v.23438l.05859.28906.0586.11719.11718.11719.34766.41015.11719.17188.17578.17578.17578.23437.11719.17188.17187.35156.0586.23438.23437.40625.23437-.0586-.17578.17578-.0586.92969h-.58202l-.23438-.11328-.34765.11328-.1172.11719-.05858.29297-.0586.17578-.11719.17187-.46484.29297-.0586.23438-.05859.11328v.64453l.0586.17187v.41016l.05859.0586v.40624l.0586.40625.11718.17579.0586.05859.23046.64062-.05859.29297v.69922l-.0586.58203v.23438l-.05859.23047-.05469.35156v1.92187l.0547.1172h.42577l-.36718.11718-.02344.35156.89062 1.16797 1.7422.53906 1.33983.35938v.53906l.08985.8086.53516.71484 1.51953.26953.89062-.08594.08984 1.16406.53516.1797 1.16016-.1797 2.05469-.98437 1.16015-.36328 1.8789-.17578 1.69532-.1797-.17969.71876-1.51562.08594-1.25.08984-.80469.26953-1.07422.8086.26953.71875.53516.89843-.17969.625-.26562.8086.26562 1.07812.625.89844.80469.17969 1.25-.1797-.26563.72267.09766.5039.05469.29297v.17188l.0586.29296v.40625l.17577.1172.35156.11718h.40625l.29297-.17578.11328-.11719.0586-.11719.11719-.23047.05859-.17578.35156-.46484.23047-.17578.17578-.0586.17578.0586.0586.17578.11719.98828.05468.46875.0586.17188.11718.23437.17578.0586.81641.05859h.28906l.1172.23437.05858.40625.0586.35156v1.10547l.11719.29297.11718.34766.28907.69922.17578.35156.58203.7539.35156.17579.17188.0586.46875.23437.64062.46484.34766.23438.29297.17578.29297.05468.23046.0625.81641.34766.29297.17578.11328.17188.35156.35156.11719.17578.52344.64063v.28906l.0586.35156v.34766l.05858.35156.0586.28906.11719.0586.17187.05859h.17578l.58203.23437.17578.1172.17579.28905.17578.23438.11328.23437.29297.23047.11719.11719v.41016l.05859.05468.28906.23438.23438.11719.05859.11718.11719.17188.0586.11719.23046.23437.0586.17578.23437.0586.11719.05859-.1172.11328-.05858.11719v.11719l-.1172.29296-.11718.28907v.58203l.17578.11719.11719.05859.0586.11719.11718.11719.11328.05859.17578.34765.0586.35157.05859.40625v.17578l-.0586.17578-.11718.69922v.17187l.11719.17579.29297.29296h.40625l.17578.1172.11718.17187.1172.29296v.23438h-.52735l-.23047-.23438h-.23438l-.17578.0586-.0586.69922.0586.34765.11719.17579.17578.41015.11719.23047.28906.46875.17578.05469h.52344l.23438.0586.7578.64062.0586.29296v.23438l.0586.0586.23046.34765v.35156l-.11718.17188v.29297l.29297.28906.29296.17578.17188.0586.29297.17577.29297.1172.58203.40624.28906.23438.29297.17578.21875.16015.01562.01172.23047.17579.64063.52343.17578.23438.11719.17578.17578.17578.11328.17188v.64062l.11719.17578.46875.11719.58203.11719.23437.05859.23047.11328.29297.11719.11328.0586.58594.35156.28906.17187.17578.0625.17578.05469.17578.0586.69922.35155.28907.17579.23437.05468.28906.17578.23438.1172.64062.40624.29297.11719.17188.0586.23437.05859.41016.05859.23047.0586.23437.11718.0586.17188-.41016.17578.46875.0586.0586.29296.11327.23438.17579.05468.23437.0586.17578.05859.40625.11719.64063.23437.11719.17188.05859.23437v.17578l-.0586.1172-.05859.40624.23438.23438.11718.05859.34766.11719.64063.23047.17578.11718.28906.1172.17578.17577.23438.46485.58203 1.10546.17578.17579.34765.17578.17578.11719.35157.11718 1.04687.52344.23438.0586.46484.11327.29297.0586.46484.17578.75782.58203.23437.23438.34766.46484.17578.17578.28906.23438.8164.69921.29298.17579.28906.28906.29297.17578.29297.28906.6953.64063.17579.17578.29297.23437.28906.23438.46875.28906.64063.58203.34765.23438.23438.29297.34765.34765.35157.46485.93359.99218.34766.40625.11718.17579.23438.05859.11328.11719.64453.17578.23047.11328.23438.0586.29296.17577.23047.1172.9336.69921.40625.40625.23437.17578.40625.17578.23438.11719.8164.34766.34766.23437.23437.11719.29297.28906.23047.11719.75781.35156.35157.17188.23047.05859.29296.11719.23438.0586.8711.17577h.8164l.46875.23047.17187.0586.875.69921.46485.1172.29297.05858.17578.0586.23047.0586.46875.05859.34765.05859.35156.0586.40625.05859h.29297l.17188.0586v.23046l.17578.17578h.29297l.34766.0586.35156.05859.69922.11719h.64062l.46484-.23438.29297-.17578.17188-.11719.41016-.17187.28906-.17578.9336-.46485.46874-.29297.52344-.29296.46484-.17188.46485-.17578 1.05078-.46485.28906-.11718.41016-.11719.28906-.11719.52734-.17578 1.51563-.69922.58203-.34765.28906-.0586.29297-.0586.34766-.11718.875-.23047.35156-.11719h.11328l.23438-.05859.875-.23437.23437-.0586h.8125l.35156-.0586.8164-.11718.17188-.0586.35157-.05468.29296-.0586.23047-.05859.81641-.17578.17578-.0586h.34766l.23437-.05859.46485-.11718.7578-.17188.23438-.0586h.34766l.41016-.11718.28906-.0586 1.28515-.05859h.28907l.41015-.0586.23047-.05858h.17578l.875-.1172h.40625l.41016-.11718h.34766l.35156-.11328.8711-.0586h1.75l1.04687.28907.41015.11719.28907.11718.35156.11719.28906.11719 1.05078.17187.28906.0586h.29297l.29297.05859.17188.0586.41015.05859.17188.0586.11719.05858h.11718l.1172.0586.35155.0586h.11329l.41015.0664 1.92188.39453 1.92578.39453 1.51953.44922 1.69531.71875 2.14453.80469 1.60547-.71875 1.42969-.80469 1.16015-1.07813 1.25-.44921 3.03516-.71875 1.875-.35938 2.14453-1.34765 2.23438-1.25391 2.5-1.25781 1.69531-.44922 1.78516-.17969 1.16015-.26953.625.53906 1.33985-.26953.71484-.98828.98438-1.34375.4453-.17969.8047-.35937 1.875-.53907 1.78515-.44921 1.25-.26954 1.16016-.08984 1.69922-.08984 1.96093-.26954 1.25-.08984h.53907l.625-.08984h.89062l2.14453-.17969 2.41016-.17969 2.58984-.08984 1.69531.17969 1.60938.08984 1.42969.35938 1.16015.71875 1.875.98828 1.16016 1.52734.26563.71484.6289.08985.35547.89844.53516.53906.53515 1.52734 1.07422.35938h.53516l-.80469.53515.08984 1.70703.71485 2.69532.89062.80468.89453.98829.71485 1.2578 1.78515.53907 1.51954-.17969.35546 1.34375 1.60938-.80469.98047-.53906.26953.26953.3164-.21484.21875-.14453.80079.44922.44921-.35938h.35547l.53516-.26953.53906-.71875.53516-.26953.625-.98828 1.16015.44922.83985.3711 1.39453.61718 1.69531-.17969h1.60547l1.78516.08985.17969-1.70704.53515-1.34375.80469.26954.49219.84765.40234.40625-.08984.53906v.35938l.71484.44922.71094-.26953h1.42969l.35937.98828.44531 1.25781.71485 1.34375 1.25.6289 1.6953.62891.71485-.17969.17969-.53906.98047-.08984.44922.35937.08594 1.25782-.26563.6289-.53516.17969v.53906l.71485.98438.26562.53906.98438.98828.80078 1.07813-.26563.35937-.08984.89844-.625 2.33203-.35547 2.0664-.08984 1.79298-.17969.71875-.08984.53906v1.4375l-.98047 1.88281-.35938 1.70703-.53515.89844-.8047 1.16797-.26562.53906 2.0547 1.2539.08593.35938-.35547.53906-.08984-.17968v.80859l.08984 1.4375-.44531.71484-1.07422.09375-.26563.71485.53516.89844.80469.71875 1.16015.80859 1.33985.26953.44531.35938-.35547.44921-1.78906-.08984-1.25-.44922-.71485-.71875-.625-.08984-.17578 3.58984-.1875 1.3086h89.35938V311.70313h-55.26953v49.08203l.76172.125 3.28906.54296 2.02344 2.83594v2.7539l2.35156.33204 2.34765.33203h4.05079l-1.37891 4.16016-2.02344.70703-2.02344.70312-.54296.34375-2.59375 1.6172-.1875.11718-2.02344-2.07813L416 370.53516l-2.67188-2.07813-1.375-3.5-.0664-.08203-1.95703-2.67188 2.75-1.41796v-49.08204H294.4375v91.41407l.11719.03125.13281.01172.07422.07421.10547.04688.08984.0586.08594.05859.08984.0586.29688.29687.0586.08984.03124.11719.02735.11719.01562.13671-.03125.1172-.0586.08983-.05859.08594-.04297.10547-.04687.10156-.02735.1211v.14453l.17579.26953.14843.14844.07422.08594.07422.07421.04297.10547.0625.08985.0586.08593.04296.10547.0586.08985.04687.10156.04297.10547.0586.08594.11718.17968.07422.07422.0625.08594.0586.08984.04296.10547.0586.08985.05859.08593.0625.08985.0586.08984.04296.10156.11719.17969.07422.07422.0586.08594.07421.07421.08985.0586.10546.04687h.14844l.13281-.01562.13282.01562.10156-.04687.07422-.07422.04687-.10156-.01562-.13281v-.14844l-.04688-.10547-.02734-.11719-.04688-.10156-.02734-.1211-.04297-.10156-.0625-.08984-.04297-.10156-.04297-.10547-.03125-.11719-.01562-.13281-.01172-.13672.08594-.0586.0586-.08593.12108-.03125.04297.10547.01563.1328v.1172l.0586.10156.05859.08984.08984.0586.14844.14843.0586.08985.04296.10547-.01172.10156.08594.0586.10547.04687.08594.0586.08984.05858.07422.07422-.11719.02735-.10547.04687-.08594.0586-.07421.07421-.0586.08985-.0625.08594-.02734.12109-.04688.10156-.04297.10547-.03125.11719-.01171.13281-.01563.13281v.14844l.02734.11719.04688.10547.04297.10156.0586.08984.07421.07422.08984.0586.07422.07421.08985.0586.05859.08984.04297.10547.04687.10156.1172.03125.1328.01563h.14844l.11719-.03125.10547.04297.04297.10547.04687.10156.02735.1211.03125.11718.02734.11719.03125.1211.02734.11718.10547.04297.10156.04687.13282-.01562.14843.14844.0625.08593.07422.07422.07031.07422.08985.0625.10547.04297.10156.04297.11719.03125.13672.01562.11718-.03125.07422-.07422.02735-.11718-.01172-.13282-.03125-.12109-.02735-.11719.04297-.10547h.11719l.08984.0625.1172.02735h.14843l.13281.01562h.14844l.13281.01563.13281-.01563h.14844l.13281-.01562.13282-.01172.13671.01172.1172-.02735.1328-.01562.19141-.0586-.0586.17579-.01562.1328-.02734.1211-.01563.13281-.05859.08594-.13281.01563-.10547.04687-.10547.04297-.11719.03125-.11719.02735-.26562.03125h-.14844l-.13281.01562-.07422.07422.0586.08594.14843.14843.11719.1797.07422.0703.08984.0625.08985.0586.08593.0586.08985.05858.10156.04297.10547.0625.10547.04297.08594.0586.10546.04687.10157.04297.17968.11719.0586.08984-.04297.10156-.04688.10547.01563.13281.22265.22266.0586.08985.04297.10156.03125.1211.04297.10155.01562.13282.03125.11718.01172.13672.03125.11719.14844.14844.10156.04297.10547.04296.11719.03125.1328.01563.13673.01563h.11719l.11718-.03125.08985-.0586.04296-.10547.04688-.10156.04297-.10547.03125-.11719.01172-.1328v-.14845l-.01172-.1328-.01563-.13282-.03125-.11719-.04296-.10547-.04688-.10547-.04297-.10156-.04297-.10547-.01562-.13281.01562-.13281.02735-.11719.03125-.11719.02734-.1211.04688-.10155.08984-.0586.08594-.0625.07421-.07422.08985-.05859.22265-.22266.0586-.08593.07422-.07422.11719-.17969.05859-.08594v-.14844l-.07422-.07421-.10156-.04688-.10547-.04297-.10156-.04297-.0586-.08984-.04687-.10547-.02735-.11719.08985-.05859.11719-.03125.10156-.04297.17969-.11719.14843-.14843.01172-.13282-.01172-.10546-.08984-.0586-.13281.01563h-.14844l-.13281.01562-.13282-.01562-.12109-.03125-.08594-.0586-.07422-.07422-.05859-.08984-.0625-.08594-.11719-.17969-.0586-.08593.03126-.1211.08594-.05859.12109-.03125.0586-.08594v-.1211l-.03126-.11718-.05859-.08984-.0586-.08594-.04687-.10547-.02734-.11719-.01563-.1328.0586-.08985.07421-.07422.08985-.0586.11719-.17968.07421-.07422.0586-.08594.14844-.14844.12109-.03125.13281-.01562.13281.01562.07422.07422.04297.10547.01563.13281-.03125.1172-.11719.03124-.13281.01172-.14844.14844-.04297.10547-.04687.10156-.02735.1211-.03125.11718v.14844l.03125.11719.04297.10546.0586.08985.07421.07031.07422.07422.11719.03125.1211.02734.11718-.02734.13281-.01563h.1172l.08983.0586.07422.07422.04688.10546.0586.08594.10156.04688.1328.01562.10548.04297.08593.0586-.01171.10546-.07422.07422-.1797.11719-.05858.08984-.08985.0586-.07031.07422-.07422.07421-.0625.08985-.02734.11719-.01563.1328.01563.13282-.01563.13281v.14844l.01563.13281.02734.1172.03125.12108.07422.07422.08984.0586.08594.0586.08984.05858.1172.03125v.08594l-.10157.04688-.08985.0586-.26562.03124-.11719.02735h-.14844l-.10546.04296-.10157.04688-.05859.08984-.0625.23438-.01172.13281-.03125.1211-.01562.1328v.29298l-.01172.1328.01172.13673.01562.1328.13281.01563.13282.01172.12109.03125.08594.0586.07422.07421.04687.10547.04297.10157.01563.1328v.44532l-.01563.13281v.44532l.03125.26562.02734.11719.01563.13281.03125.11719.08594.21094.03125.26562v.14844l-.03125.11719-.02735.11718-.03125.1211-.02734.11719-.03125.11718-.03125.1211-.01172.1328-.01563.13282.08985.0586.11719-.03125.10156.01562.04687.10547-.03125.26562v.44141l-.04296.10547-.04688.10547-.04297.10156-.04297.10547-.0586.08594-.03124.12109-.04297.11719-.03125.11719-.01563.1328.01563.13282.0586.08984.10546.04688.08594.0586.0586.08593-.01173.13672-.03125.11719-.04296.10156v.44531l-.01563.13281v.14844l-.03125.11719-.04297.10547-.02734.11719-.04688.10546-.04296.10157-.03125.12109-.02735.11719-.03125.13281-.03125.11719-.02734.11719-.04297.10546-.03125.1172-.03125.12108-.01172.13282-.01563.13281v.29688l.02735.11718v.14844l.04687.39844.02735.11719.0586.08984.12108.03125h.14844l.13281-.01563.0586.08985v.11719l-.0586.08984-.08984.0586-.10156.04296-.10547.04688-.08984.05859-.08594.0586-.13672.01562-.11719-.03125-.13281-.01563-.10156.04688-.0625.08594-.01172.13671-.01563.13282-.03125.11719-.02734.11718-.01563.13281-.03125.1211v.29687l.01563.13282.03125.11718v.14844l.01172.13281v.14844l-.02735.11719-.04687.10156-.02734.1211-.03125.11718-.0586.08985-.07422.07421-.10156.04297-.10547.04688-.11719.02734-.12109.03125-.10156-.04687.0586-.08594.10546-.04688.02735-.11718.03125-.11719.02734-.1211.03125-.11718v-.14844l.01562-.13281-.03125-.11719-.04296-.10547-.10547.01563-.07422.07422-.10156.04296-.08985.0625-.07422.07422-.04297.10157-.01562.1328-.03125.1172-.02735.12109-.03125.11719-.02734.11719-.03125.12109-.02734.11719-.03125.11718-.04297.10547-.08985.0586h-.08984l-.11719-.03125-.03125-.08594.01563-.13672-.03125-.11719v-.14844l-.01172-.1328v-.14844l-.0625-.23438-.02734-.1211-.04297-.10156-.04688-.10546-.0586-.08594-.05858-.08985-.04297-.10546-.0625-.08594-.14844-.14844-.07031-.07422-.10547-.04687-.10547-.04297-.10156-.04297-.29688-.29688-.08984-.07421-.08594-.0586-.10547-.04297-.08984-.0625-.08594-.0586-.10547-.04296-.08984-.0586-.08594-.0625-.07422-.0703-.10547-.04688-.08594-.0586-.10546-.04296-.08985-.0625-.10156-.04297-.10547-.04297-.08594-.0586-.10546-.04687-.10547-.04297-.10157-.04687-.08984-.0586-.10156-.04297-.10547-.04296-.08985-.0625-.11718-.02735-.13281-.01562-.13282.01562h-.14844l-.1328.01563-.1172-.03125-.08984-.0586-.07422-.07422-.08984-.05859-.10156-.04688h-.14844l-.1211-.02734-.10156-.04297-.07422-.07422-.11718-.17968-.08985-.0586-.10156-.04297-.08984-.0625-.10547-.04296-.08985-.0586-.08593-.0586-.10547-.04687-.0586-.08594-.05859-.08984-.04297-.10547-.04687-.10156-.07422-.07422-.08594-.0586-.07422-.07421-.08984-.0586-.22266-.22265-.04297-.10547-.03125-.26563.10547-.04296h.14453l.10547.04296.07422.07422.08984.0586.08594.0586.10547.04687.08984.05859.14844.14844.07031.07422.14844.14843.0625.08594.07422.07422.08594.0586.07422.07421.08984.0625.08984.0586.08594.05859.26953.17578.10156.04688.10547.04296.10157.04297.04687-.07421.0586-.08594.07421-.07422.07032-.07422.10546.04297.07422.07422.0586.08984.04297.10156.04687.10547.04297.10547.1211.02735.11718-.02735.07422-.08984.04297-.10547.0586-.08985.07421-.07421.10547-.04297.11719-.02735.13281.01172.08984.0586.14844.14843.0586.08985.04296.10547.04688.10156.04297.10547.04297.10156.10546.04688.10547.04296.13282.01563.08593-.0586.0586-.08984.07422-.07422.10546-.04297.1172.02735.10546.04687.10156.04297.10547.04297.10156.04688.1797.11718v.11719l-.01563.13281.01562.13281.01563.13672.0586.08594.10155.04688.1211.02734.11719.03125h.14843l.11719-.03125.0586-.08984.17968-.1172.0586-.08983.07421-.07422.0586-.08594.11719-.17969.17968-.11719.11719.03125.08984.0586.04297.07422-.01562.1328v.1172l.08984.05859h.14844l.13281-.01563.13281-.01171.26563-.03125.10547-.04297.11719-.03125.12109-.02735.07422-.07421.07031-.07422.0625-.08985-.01563-.10547-.04687-.10156-.10156-.04297-.10547-.01562-.11719.02734-.26562.03125h-.14844l-.07422-.07422-.08984-.0586-.1172-.03124-.11718-.02735-.13281-.01562h-.14844l-.13281.01563h-.29688l-.10546-.04688-.14844-.14844-.04297-.10156-.0586-.08984.22266-.22266.08594-.0586.10547-.04296.11719-.03125.1328-.01563.13282.01563.13672.01562.10156.04297.13281-.01172.08985-.0625.10156-.04297.0625-.08984-.04688-.10156-.08984-.0586-.11719-.03125-.10156-.04296-.0586-.08985-.0625-.08984v-.11719l.01563-.13281.10547-.04688.07422-.07031v-.1211l-.08984-.05859-.03125-.11719.08984-.05859.07422-.07422.04297-.10547.0586-.08984.04687-.10156.01562-.13281v-.14844l-.04687-.10547-.04297-.10156-.08985-.0586-.1328-.01562-.10157-.04297-.13672-.01563-.11719-.03125h-.44531l-.13281-.01562-.13281-.01172-.13282-.01563-.11719-.03125h-.14843l-.13281-.01562-.13282-.01172-.26562-.03125-.1211-.04297-.08593-.0586-.07422-.07421v-.14844L302.1914 419l.10546-.04688.10157-.04296.13281-.01563h.15234l.13282-.01562h.29296l.1211.03125.10156.04296.08985.0586.23437.0625.1211-.04688.08984-.05859.10156-.04297.13281-.01562.10547.04296.10156.04688.13282.01172.12109-.02735h.14453l.1211-.03125.11718-.02734.10547-.04687.07422-.07422.08594-.0586.14844-.14843.05859-.08594.04687-.10547.02735-.11719.01562-.10547-.10156-.04296-.08984-.0586-.1172-.03125-.10546-.04297-.08984-.0625-.07422-.08594-.07422-.07421-.10156-.04297-.10547-.04688-.10156-.04297-.0586-.08984-.04687-.10156-.08594-.21094-.0625-.08594-.0586-.08984-.07421-.07422-.08594-.0586h-.26953l-.11719.03126-.08984.05859-.10157.04297-.1328.01562-.10548-.01562-.02734-.11719-.0625-.08984-.11719-.03125-.10156-.04297-.14844-.14844-.03125-.11719-.01562-.10546.07421-.07422.1797-.1172.11718-.02733.11719-.03125.13672.01562.10156.04297.10547.04297.10156.04687.10547.04297.11719.03125.1328.01563.1172.02734.1328.01563.10548-.01563.08984-.0586-.07422-.07421-.10547-.04297-.07421-.07422-.07422-.08984-.14844-.14844-.08594-.0586-.08984-.05859-.07422-.07422-.08985-.0586-.10156-.04687-.1211-.02734-.10155-.04688-.10547-.04296-.11719-.03125-.10156-.04297-.1211-.03125h-.14843l-.1172.03125-.10546.04297-.08594.0625-.17969.11718-.08593.0586-.08985.0586-.10546.04687-.08594.05859-.10547.04297-.10156.04297-.10547.04687-.07422.07422-.0586.08985-.05859.08593-.04687.10547-.0586.08594-.07422.07422-.1328-.01172-.1172-.03125h-.11718l-.07422.07422-.08985.0586-.07421.07421-.08985.0586-.08594.05859-.10546.04687-.10157.04297-.13672.01563-.10156-.04297-.14844-.14844-.10546-.04688h-.08594l-.10547.04688-.10156.04297-.1211.03125-.11719-.03125-.07421-.07422v-.11719l.03125-.1211.07421-.0703.0586-.08985.07422-.07422.11719-.03125.10546-.04296h.29297l.13281-.01563.13672-.01563.10157-.04296.08984-.0586.10156-.04687.08985-.0586.1328-.01171.08985.05859.13281.01172.08985-.0586.08594-.05859.10546-.04297.08985-.0586.08594-.0625.08984-.05859.14844-.14843.0586-.08594.05858-.08985.10547-.04296.13282-.01563.11718.02735.1211.03125.0586-.0586.05858-.08984.03125-.26563.02735-.11719.10547.01172.13281.01563.10156-.04297.08985-.0586.05859-.08984.07422-.07422.0586-.08984.04687-.10156.01172-.13281-.01172-.13282-.04688-.10547-.14844-.14843-.05859-.08985-.0586-.08594-.04296-.10546v-.44532l.01562-.1328v-.14845l.01172-.1328-.0586-.0586-.08983.0586-.10157-.04298-.17969-.11719-.08593-.05859-.0625-.08984-.0586-.08985-.07421-.07421-.08594-.0586-.1211.03125-.10156.01172-.10547.04688-.08594.05859-.10546.04297-.14844.14844-.08985.05859-.08593.0586-.08985.0625-.10546.04296-.13282.01563v-.1211l.10547-.04297.11719-.03125.07422-.0703.04297-.10548v-.14844l-.02735-.11718-.14844-.14844-.1328-.01563h-.14844l-.1172.03125-.10546.04297-.10156.04297-.08985.0625-.11719.02735-.07421-.07422.01171-.13281-.04296-.10157-.04297-.10547-.08985-.05859-.11718.02734-.1211.03125-.11719.03125-.10156.04297-.1211.03125-.10155.04297-.10547.04297-.08985.0586-.10156.01562v-.11719l.01563-.13281-.0586-.08985-.07422.04297-.14843.14844-.0586.08985-.07422.07421-.04687.10547-.04297.10156-.07422.07422-.0586.08985-.07421.07422-.0586.08593-.07421.07422-.08985.0625-.07422.07031-.07421.07422-.10157.01563-.13281.01562-.10547-.04296v-.1211l.14844-.14844.04297-.10156.0586-.08984.04687-.10156.04296-.10547.0586-.08985.03125-.11719.04297-.10156.03125-.1211.02734-.11718.04688-.10547.04296-.10156.04297-.10547.07422-.07031.08985-.0625.08984-.0586.10156-.04296h.29688l.26562-.03125.10547-.04297-.07422-.07422-.11719-.03125-.10546-.04297-.08985-.0586-.10156-.04687-.08984-.0586-.10157-.04296-.10546-.04297-.08985-.0625-.08594-.0586-.10546-.04296-.10157-.04297-.1211-.03125-.11718-.03125-.10156-.04297-.1211-.03125-.10156-.04297-.08984-.0586-.04297-.10546-.01563-.13281.10157-.04297.13281-.01563.13672.01563.13281-.01563.10156-.04297.0586-.08984.01562-.10547-.08984-.0586-.07422-.07421-.10156-.04297-.08985-.0586-.14843-.14843-.04297-.10547-.01563-.13281v-.29297l-.0586-.08985-.08983-.05859-.07422-.07422-.04297-.10547-.03125-.11718-.0586-.08985-.07421-.07422-.1172-.02734-.07421-.07422-.08985-.0586-.08984-.0625-.08594-.05859-.07421-.07421-.0586-.08594-.04687-.10547-.08594-.0586-.14844-.14843-.19531-.0586-.13281.01563-.10157.04297-.07421.07422-.04688.10156-.04297.10547-.0586.08984-.05859.08594-.29687.29687-.08985.0586h-.08593l-.0625-.08594-.04297-.10547.03125-.11719.0586-.08984.02734-.11719-.01172-.13281-.08985-.0625-.10546.04688-.1172.02734-.11718.03125-.26953.17578-.10156.04688-.1172.02734-.10546.04687-.08984.0586-.10157.04297-.05859-.08594-.04688-.10547.01563-.13281.04688-.10547.0703-.07422.07423-.07031.05859-.08985v-.14843l-.04297-.10547h-.23828l-.10156.04687-.03125.11719-.02735.11719-.03125.1211-.07421.04296-.13282.01563-.07422-.04688-.04296-.10156-.04297-.10547-.04688-.10156-.04297-.10547-.1211.03125-.10155.04297-.13282.01562-.11718.03125-.10547.04297-.08985.0586-.10156.04687-.1211.02734-.1328.01563-.10157-.04297-.0586-.08985-.04687-.10546-.04296-.10157-.04297-.10546v-.1172l.05859-.08984.08594-.05859.17969-.11719.10156-.04687.10547-.04297.10546-.0586.10157-.04296.08984-.0625.10156-.04297.10547-.0586.10156-.04687.08985-.0586.10547-.04296.10156-.04297.08984-.0625.10157-.04297.13671-.01563.1172.03125.10156.04297.12109.03125.10156.04297.10547.04688.10156.04296.10547.04297.10156.04688.10547.04297.10156.04297.10547.04687.08594.0586.10547.04296.11719.03125.10547.04297.10156.04688.08984.0586.10547.04296.10156.04297.10547.04687.11719.02735.10156.04687.1211.02735h.14843l.08594-.0586.01563-.10156.05859-.08984-.02734-.1172-.07422-.07421-.11719-.17969-.07422-.07422-.08984-.07421-.17969-.1172-.08594-.05859-.10547-.04296-.10156-.04688-.26953-.17578-.0586-.08985-.07421-.07421-.0586-.08985-.04296-.10156-.03125-.11719-.01563-.13672v-.5625l-.01172-.1328-.01562-.13282-.03125-.11719-.01563-.13281-.01172-.13281-.03125-.1211-.22265-.22265-.0586-.08594-.01562-.10547.03125-.11719.13281-.01562v-91.41406H173.00781v1.45312l-.0586.23438-.35155 1.05078-.17188.52343-.11719.34766-.17578.41016-.11719.17187-.23437.29297-.23047.0586h-.35156l-.11719.05859-.23047.40625v.29297l.11719.17578.23047.23047.11719.23437.64062.75781.29297.46485.17578.23437.23047.35156.23438.34766.64062.8164.17578.46485.17188.41016.11718.69531.17578.46875.1172 1.39844.05859.46484v.875l.11718 1.04688v4.78125l-.05859.46484-.35156 1.28125-.17578.52344-.11328.41015-.35157.9297L172.94922 336l-.23438.58203-.11718.17578-.17188.34766-.17578.40625-.35156.8164-.0586.29297-.11328.29297-.11719.28906-.05859.17579-.11719.875-.05859.40625-.0586.11718-.05859.17579-.0586.17187-.23046.52734-.11719.17188v.23437l-.11719.23438-.05859.17187-.17578.58594v.28906l-.0586.17579v.29296l-.05859.11329-.0586.52734v.17187l-.05468.23438v2.6211l-.17578.8164-.11719.17578-.17578.23438-.11719.17187-.11328.23438-.58594.93359-.23046.28906-.29297.46485-.17578.23437-.28907.35156-.35156.69922-.11328.23047-.17578.41016-.17578.23046-.40625.52735-.8164.69922-.29298.17187-.28906.23438-.17578.11719-.17578.17578-.52344.40625-.52734.17578-.17188.17578-.23437.05469-.64063.17578h-.75781m12.21094 31.02344l-1.07422.44921.35937.89454 1.25-.71485.44531-.53906-.98046-.08985"/><path fill="#d3d3d3" fill-opacity="0" fill-rule="evenodd" d="M201.52344 416.59766h-.89453l.44922.6289.98046.35938.8047-.08985.4453-.98828-.17578.08985-.71484-.35547-.89453.35547m154.6211 59.0703l-.0586-.52343v-.29297l.11328-.29297.0586-.23046.46874-.46875h.11328l.1172-.11329.11718-.05859h.17578l.23438-.0586h.34765l.23438.0586.11718.0586.23047.17187.0586.17578.11718.58203v.29297l-.11718.17578-.17188.28906-.17578.17579-.52734.52343-.23047.23438-.11719.0586h-.17578l-.11719-.0586-.40625-.29297-.17578-.11719-.11719-.0586-.0586-.11327-.05468-.1172m6.64063-10.95702l-.0586-.17188v-1.10937l.0586-.17188.17578-.0586.17187-.05858h.17578l.23438-.0586.11719.0586.05859.69921-.0586.17188-.11718.17578-.11719.0586-.23437.52343-.11329.0586h-.23437l-.0586-.1172m9.61329-14.39062l-.11719-.17578v-.69922l.29297-.875.11719-.17187.17578-.35156.11328-.23047.11719-.29297.35156-.75781.11719-.23047.17187-.23438h.17578l.11719-.0586h.64063l.11718.0586.23438.23438.17187.11328.35156.29297.1172.11718.11327.17579v.11328l.1172.05859.11718.11719v.69922l-.0586.17578v.23047l-.05859.17578-.34765 1.05078-.1172.23047-.11718.23437-.11719.0586-.23047.23437-.64062.28906h-.875l-.41016-.11718-.64062-.46485"/><path fill="none" stroke="#bebebe" stroke-linecap="round" stroke-linejoin="round" stroke-miterlimit="10" stroke-width=".5" d="M0 311.69531h0v168.625h0v-168.625"/><g clip-path="url(#a)"><path fill="#fff" fill-opacity="0" fill-rule="evenodd" d="M144.01563 475.89063v4.4375h.0039-.0039V311.67188h.0039-.0039v164.21875"/></g><g clip-path="url(#b)"><path fill="#fff" fill-opacity="0" fill-rule="evenodd" d="M144.01953 480.32813V311.67188h39.9414v77.59765l-3.77734 2.29297-.66015.42188-4.4414 1.9414L173.57421 396l-2.92969 1.76953-3.63281 2.66797-.80469.42188-4.4375 1.30468-4.4375.6289-4.4414-.90624-.78516 2.98828-3.65234 2.2461-2.19532 2.1953.94922 4.4375-1.32031 4.4375-.59375 4.4375.27734 4.44141 2.88281 3.4375 4.4375-.01172 4.44141-1.36718 2.49219-2.0586 1.94531-.82031 4.4375-1.63281 4.4375-1 4.4375.41797 2.42578-1.40625 2.01563-.28907 4.4375-.23437L188.39844 421l4.29297-2.8086.14453-.05859 4.4414-.26562 1.67188.32422 2.76562 1.17187 2.29688-1.17187 2.14062-3.60547.71875-.83203.94922-4.4375-.53125-4.44141-1.13672-2.21875-1.66015-2.21875-2.77735-2.58984-4.4375-1.56641-.41406-.28125-4.02734-2.40625-4.4375-1.34375-1.7461-.6875-2.6914-2.29297v-77.59765h39.94531v29.51953l-1.33984 1.54687-1.75391 4.4414-.78516 4.4375-.18359 4.4375-.375.9961-2.63281 3.4414-.9336 4.44141.03516 4.4375 3.53125 4.02344 1.14844.41406 3.28906 2.58985v26.22265l-1.19531 2.25391 1.19531 2.82813 4.4375.41406 3.84375 1.19922.59375.15234.78906-.15234 2.85938-4.44141-3.64844-1.89844-4.4375.70313-4.4375-1.0586v-26.22265l1.47656 1.84765 2.0586 4.4375.90234.89844 4.4375 2.77735 1.33984.76562 3.10157 2.98828 4.4375.69531 4.4375.29297v13.2539l-1.02344.51954-3.41406 3.61328-2.37891.82813 2.3789 4.38671 4.4375-1.17968v11.91015l-.91406 2.63672.91407 1.26563 2.53515-1.26563-2.53515-2.63672v-11.91015l4.11328-3.20703-2.4414-4.44141-1.67188-.51953v-13.2539l4.4375.13671.39843.32422L254.91406 396l.0586.0625 3.22265 4.375-.66015 4.4375-.81641 4.4414 2.69531 3.7422 4.4375-.84766 3.39063-2.89453 1.04687-.58985v21.17969l-4.4375.14063-2.3086 1.46093 2.3086.91016 4.4375.78125 4.4375-.7461 4.4414-.49218.70704-.45313-.70703-.30469-4.4414-.39843-4.4375-.89844v-21.17969l4.4375-.90234 4.4414.52344 4.4375.6914 4.4375.17578 4.4375.07032 4.4375-3.23438.99219 3.26563-.9922 1.97656-3.27733 2.46094-1.16016 1.23437-1.98438 3.20313-2.45312 3.19921-1.08594 1.23829 1.08594 3.76953.26562.67187 4.17188 3.83985.9336.59765 3.5039 2.54297 2.57422 1.89453 1.86719 1.0039 3.57812-1.0039-3.57813-2.90234-.98828-1.53516.98829-.52344 4.4375-1.79296 4.4375.30859 4.4375-.6914 1.03515-1.73829 3.40625-3.34765 2.16797 3.34765-1.46875 4.4375-.69922 2.34375-2.03515 2.09375-2.40625 2.3789-2.32422 2.0586 2.32421 1.71875 4.44141 1.08985 1.64063 1.6289 2.79687 1.16797 4.4375.1875 1.51563-1.35547 2.92187-1.10156 4.4375-1.92969 4.4414 1.9961 4.4375-.13282 3.5-3.26953.9375-1.16406 2.46485-3.27344-.125-4.4375.84766-4.4375 1.25-1.46094 4.4414-1.96875 4.4375-.26953 3.75391 3.69922.6836.9375 4.4375 3.33594v1.92188l-.70704 2.67968-2.46875 4.4375 3.17578 3.38672 2.25 1.05078 2.1875 1.90625 2.83985-1.90625 1.01172-4.4375-3.85157-2.11719-3.46484-2.3203-.97266-2.6797v-1.92187l4.4375-.1914L379.25 427.25l.09766-.17969 4.33984-2.8086 1.90234-1.6328-1.90234-1.9336-4.4375-2.1914-4.4414.1289-4.4375-.17578-2.8672-.26562 2.8672-1.66797 3.41015-2.76953 1.02734-1.63282.94532-2.80468-.94532-.94922-4.4375-3.01172-.85937-.48047-3.57813-2.26563-4.4375-.6914-2.7578 2.95703 2.7578 2.91406 4.19532 1.52735.24218.4414 1.98438 3.9961-1.98438 3.15234-4.4375-2.25-.47265-.90234-3.96485-4.375-.10546-.0625-4.33594-2.5586-3.27344 2.5586-1.16406 1.28906-2.65625 3.14844-1.78125 4.2539-4.4375-.86328-3.07422 1.04688-1.36719.23828-4.4375 2.125-2.04297 2.07422-2.39453.86328-4.4375 1.26953-3.32031-2.13281 2.51172-4.4375.8086-.66016 3.32421-3.77734 1.11328-4.375.20703-.0625-.20703-.23047-.21094-4.21094.21094-.67578 4.4375-.44531 4.39844 1.12109.03906.03906 4.4414.23438.3086-.27344 1.23047-4.4375-1.53906-1.6875-4.4414-2.14844L332.54686 396l-2.12109-1.51953-4.4375-2.1211L322.33203 396l-.78125.97266-4.4375 1.0078-2.4961 2.45704-1.68359 4.4375-.26171.375-4.4375 2.23828-4.4375-1.21875-2.53516-1.39453.6875-4.4375L303.1289 396l-3.76954-3.79297-4.4414-.58984-4.4375.1875-.78906-.24219-3.64844-3.35547-3.4336-1.08203 3.4336-2.23828 4.4375.8711 3.29297-3.07423.86719-4.4375-2.02344-4.4375-2.13672-2.26171-2.34375-2.17579 2.03906-4.4375-3.23828-4.4414-.89453-1.07031-4.4375-2.79297-3.75 3.86328-.6875 3.28515-.52344 1.15625.28906 4.4375.23438.1797.58203 4.2578-.58203.71485-4.4414.07812-3.64454 3.64453-.03515 4.4375 3.67968 4.19922.38281.24219-.3828.41406-4.4375.76953-4.4375-.45312-.69141-.73047-3.7461-3.01953-4.4414-1.04688-4.4375.42579-1.3672-.80079-3.0703-3.04687-1.42578-1.39063-3.01172-3.14453-3.9961 3.14453-.4414.14454-.57032-.14454-3.87109-2.7539-4.1914-1.6836-.2461-.24609-4.4375-3.73828-.14453-.45313.14453-.28515 4.4375-3.65235.49219-.5-.49219-1.6289-.125-2.8125.125-.59375 3.0586-3.84375 1.3789-2.82031 1.17969-1.6172 3.26172-4.30859.1289-.1289-.1289-.19922-.375.19922-4.06641 2.11719-1.03125-2.1172-2.3125-4.4414-1.09375-1.03125-4.4375-.51562v-29.51954h17.7539v57.37891l-.5078.32031.5078.36329.32032-.36329-.32031-.3203v-57.37892h133.14843v63.64844l-4.4375.27344-4.4375.0039-4.4375.71485-2.30078 1.9336-2.13672 3.34374-1.6914 1.09375-2.75 3.91797-.88672.52344-3.55078 1.58594-1.1875 2.85156 1.1875 1.14063 4.4375.83593L355.1953 396l1.86328 1.76953 4.4375 1.0625 4.4375.73438 4.4375.54296 4.17188.32813.26562.11328.1172-.11328L378.32421 396l.77344-4.4375-4.28907-3.99219-.66796-.44531.66796-1.04297 2.57422-3.39844.27735-4.4375-2.85157-2.92578v-63.64844H388.125v128.12891l-1.69922.58203 1.69922.82813.69922-.82813-.69922-.58203v-128.1289h4.4375v104.27734l-2.28516 2.24219 2.28516 2.30468 2.32031-2.30468-2.32031-2.2422V311.67189h35.50781v91.9375l-1.26562 1.26562 1.26562 1.26563v35.65625l-3.79297 3.02343-.64453 1.29297-1.51562 3.14844 1.51562 1.36328 4.4375 1.58594 4.4375-.71094 4.4375 1.15234 1.38672 1.04688 3.05469 2.3789 1.83984 2.0586 2.59766 2.32031 1.47265 2.11719 2.96485 2.98828 3.29687 1.45313 1.14063 1.11718 1.60937-1.11719 2.09766-4.4414-.69531-4.4375-3.01172-3.33203-.91406-1.10547-2.75-4.4375-.77344-.77344-4.4375-2.6836-4.4375.62891-4.4414.3086-4.4375-.14453-1.72266-1.77735-2.71485-3.02344v-35.65625l1.40625-1.26562-1.40625-1.26563v-91.9375h8.875v63.88672l-2.5664 2.6875 2.5664 2.53516 4.4414-.96094 1.47267-1.57422-1.47266-1.53125-4.4414-1.15625v-63.88671h22.1953v58.6328l-4.3789 3.50391.3164 4.4375-.3789 1.21875-1.27735 3.21875-.89062 4.44141-2.26953 1.09375-4.4375 3.16016-.1914.18359.1914.22266L446.3125 396l1.28906 4.4375 2.66016 3.4961 2.875-3.4961 1.5625-.1836 4.4414-1.61327L461.70313 396l-2.5625-2.71875-.5625-1.71875-1.70703-4.4375-.75-4.4414 3.01954-1.51563 3.05859-2.92188-.39844-4.4375-2.66015-3.5039v-58.63281h8.87109v168.65625H144.01953"/></g><path fill="#50fcfc" fill-rule="evenodd" d="M145.57031 427.07031l-.27734-4.4414.59375-4.4375 1.32031-4.4375-.94922-4.4375 2.19531-2.19532 3.65235-2.24609.78516-2.98828 4.4414.90625 4.4375-.6289 4.4375-1.3047.80469-.42187 3.63281-2.66797L173.57422 396l1.50781-2.07422 4.4414-1.9414.66016-.42188 3.77735-2.29297v3.66016l-4.4375 2.84765-.34375.22266-4.09766 1.85156-3.90625 2.58594-.53125.27734-4.4375 2.33594-3.48437 1.82422-.95313.39453-4.4375.45313-4.4414.77343-3.56641 2.82032 3.5664 3.60546.48438.83204-.48438.41796-4.12109 4.01954-.3164 1.24609-1.23829 3.1914.8047 4.44141.43358.51563 4.4375.17187 1.45704-.6875 2.98437-.63672 4.4375-2.35156 2.32813-1.45312 2.10937-1.67188 4.4375-.32812 4.4375.46875 4.4414-.11329 4.4375-.64843 4.125-2.14453.3125-.12891 4.4375-1.77734 4.44141-.94532 2.0586-1.58593.89453-4.4375-2.95313-4.44141.33594-4.4375-.33594-.21484-4.4414-3.7422-.85547-.48046-3.58203-2.08984-4.4375-.98047v-3.66016l2.6914 2.29297 1.7461.6875 4.4375 1.34375L196.86328 396l.41406.28125 4.4375 1.5664 2.77735 2.58985 1.66015 2.21875 1.13672 2.21875.53125 4.4414-.94922 4.4375-.71875.83204-2.14062 3.60547-2.29688 1.17187-2.76562-1.17187-1.67188-.32422-4.4414.26562-.14453.0586L188.39844 421l-4.4375 1.10547-4.4375.23437-2.01563.28907-2.42578 1.40625-4.4375-.41797-4.4375 1-4.4375 1.63281-1.94531.82031-2.49219 2.0586-4.4414 1.36718-4.4375.01172-2.88282-3.4375"/><path fill="#00e8fc" fill-rule="evenodd" d="M148.01953 427.07031l-.80469-4.4414 1.23828-3.19141.31641-1.2461 4.1211-4.01952.48437-.41797-.48438-.83204-3.5664-3.60546 3.5664-2.82032 4.44141-.77343 4.4375-.45313.95313-.39453 3.48437-1.82422 4.4375-2.33594.53125-.27734 3.90625-2.58594L179.1797 396l.34375-.22266 4.4375-2.84765 4.4375.98047v3.58593l-4.4375 1.19532-2.9414 1.74609-1.4961.70703-4.4414.83985-4.4375 2.21484-1.2422.67578-3.1953 2.25-4.4375 1.01172-4.4375-.01563-3.69532 1.19532 2.07422 4.4375-2.82031 2.44921-2.03907 1.98829-.71094 4.4375 2.75 2.40234 4.44141-.63672 2.6211-1.76562 1.8164-2.61329 2.27344-1.82421 2.16406-1.45313 4.4375-.6289 4.4375 1.22656 1.77344.85547 2.66797.52734 2.04297-.52734 2.39453-.53907 4.4375-1.96093 3.64453-1.9375.79297-.96485 3.86328-3.47265-1.99219-4.44141-.39844-4.4375-1.47265-1.28125-4.4375-1.66016v-3.58593L191.98047 396l.85547.48047 4.4414 3.74219.33594.21484-.33594 4.4375 2.95313 4.4414-.89453 4.4375-2.0586 1.58594-4.4414.94532-4.4375 1.77734-.3125.1289-4.125 2.14454-4.4375.64844-4.4414.11328-4.4375-.46875-4.4375.32812-2.10938 1.67188-2.32813 1.45312-4.4375 2.35156-2.98437.63672-1.45703.6875-4.4375-.17187-.4336-.51563"/><path fill="#00d4fc" fill-rule="evenodd" d="M152.89063 425.03125l-2.75-2.40234.71093-4.4375 2.03906-1.98829 2.82032-2.44921-2.07422-4.4375 3.69531-1.19532 4.4375.01563v3.07031l-3.20312 2.54688-1.23438 1.36328-4.32031 3.07422-.1211 4.29296v.14844l.02344-.0039 4.41797-.73438 2.40625-3.70312 2.03125-1.87891 3.59766-2.5586-3.59766-2.54687v-3.07031l4.4375-1.01172 3.19531-2.25 1.2422-.67578 4.4375-2.21485 4.4414-.83984 1.4961-.70703 2.9414-1.7461v4.40235L180.375 404.875l-.85156 1.05078-2.33203 3.39063-.61328 4.4375 2.9453 2.10937 4.4375-.1875 3.73829-1.92187.69922-1.29297 2.45703-3.14453-.82422-4.44141-1.63281-1.03906-4.4375-.74219v-4.40234l4.4375-1.19532 4.4375 1.66016 1.47265 1.28125.39844 4.4375 1.99219 4.4414-3.86328 3.47266-.79297.96485-3.64453 1.9375-4.4375 1.96093-2.39453.53907-2.04297.52734-2.66797-.52734-1.77344-.85547-4.4375-1.22656-4.4375.6289-2.16406 1.45313-2.27344 1.82421-1.8164 2.61329-2.6211 1.76562-4.4414.63672"/><path fill="#00c4fc" fill-rule="evenodd" d="M152.89063 422.63281v-.14844l.12109-4.29296 4.32031-3.07422 1.23438-1.36328 3.20312-2.54688 3.59766 2.54688-3.59766 2.55859-2.03125 1.8789-2.40625 3.70313-4.41797.73438-.02344.0039m26.63282-6.76953l-2.94531-2.10937.61328-4.4375 2.33203-3.39063.85156-1.05078 3.58594-1.78125v5.88281l-.28906.33985.28906 2.8203.33594-2.8203-.33594-.33985v-5.88281l4.4375.74219 1.63281 1.03906.82422 4.4414-2.45703 3.14454-.69922 1.29297-3.73828 1.92187-4.4375.1875"/><path fill="#00b8fc" fill-rule="evenodd" d="M183.96094 412.13672l-.28906-2.82031.28906-.33985.33594.33985-.33594 2.8203"/><path fill="#50fcfc" fill-rule="evenodd" d="M215.9375 369.3711l-.03516-4.4375.9336-4.44141 2.63281-3.4414.375-.9961.1836-4.4375.78515-4.4375 1.7539-4.4414 1.33985-1.54688v5.07812l-.51953.91016-1.5625 4.4375-.65234 4.4375-1.67188 4.4375-.03125.07812-2.20313 4.36328.04688 4.4375 2.15625 2.46094 2.625-2.46094 1.8125-3.5703.9961-.8672 2.43359-4.4414.85937-4.4375.14844-.7539 1.39063-3.6836-1.39063-2.46875-2.5664-1.96875-1.8711-.91016v-5.07812l4.4375.51562 1.09375 1.03125 2.3125 4.4414 1.03125 2.1172 4.0664-2.1172.375-.19921.12891.19922-.1289.1289-3.26172 4.3086-1.17969 1.61719-1.3789 2.8203-3.0586 3.84376-.125.59375.125 2.8125.49219 1.6289-.49219.5-4.4375 3.65235-.14453.28515.14453.45313 4.4375 3.73828.2461.2461 4.1914 1.68359 3.8711 2.7539.5703.14454.44141-.14454 3.9961-3.14453 3.01172 3.14453 1.42578 1.39063 3.0703 3.04687 1.3672.80079 4.4375-.42579 4.4414 1.04688 3.7461 3.01953.6914.73047 4.4375.45312 4.4375-.76953.38281-.41406-.3828-.24219-3.6797-4.19922.03516-4.4375 3.64453-3.64453 4.4414-.07812.58204-.71485-.58203-4.2578-.23438-.1797-.28906-4.4375.52344-1.15625.6875-3.28515 3.75-3.86328v2.82812l-1.0039 1.03516-1.9297 4.4414 2.9336 3.98047v.71875l-2.94922 4.17578-1.48828 1.82422-4.4414.1875-2.4297 2.42578-.09375 4.4375 2.52344 2.87891 2.48828 1.5625-2.48828 2.70313-4.4375 1.07812-4.4375-.25781-3.33984-3.52344-1.09766-.88672-4.4414-1.91015-4.4375.3828-3.46875-2.02734-.96875-.96093-3.5625-3.47657-.875-.91406-1.16016.91406-3.27734 1.0586-4.21094-1.0586-.23047-.16406-4.4375-.16015-.21094.32421.21094.375 1.39844 4.0625 3.03906 2.3672 3.64063 2.07421.80078.76953 4.4375 1.67969 4.4375-.10156 4.4375.3789 2.09765 1.71094 2.33985 2.57813 4.4414 1.08984.75.76953.5 4.4375.23828 4.4375 2.94922 4.04688 4.4375-2.3086 4.4375-1.5039 4.4414 1.15234 4.4375 1.32812 4.4375.3125 4.4375-1.14453 2.02345-1.88281 2.41406-3.03125 2.11328-1.40625 2.32813-.82813L301.86327 396l-2.5039-2.51953-4.44141-.22656-4.4375-.88282-2.6211-.80859-1.8164-1.67188-4.4375-.5078-2.07422-2.25782 2.07422-.9414 3.96094-3.5.47656-.19923 1.89844.19922 2.53906 1.01172 1.08203-1.01172 2.39453-4.4375-3.47656-4.0625-.3125-.375-4.125-4.07812-4.4375-.09766v-.71875l4.4375-.8711 2.3125-3.10937-2.3125-2.64453-3.11719-1.79687-1.32031-1.03516v-2.82812l4.4375 2.79296.89453 1.07032 3.23828 4.4414-2.03906 4.4375 2.34375 2.17579 2.13672 2.26171 2.02344 4.4375-.8672 4.4375-3.29296 3.07422-4.4375-.8711-3.4336 2.23829 3.4336 1.08203 3.64844 3.35547.78906.24219 4.4375-.1875 4.4414.58984L303.12892 396l-1.1797 4.4375-.6875 4.4375 2.53517 1.39453 4.4375 1.21875 4.4375-2.23828.26171-.375 1.6836-4.4375 2.4961-2.45703 4.4375-1.00781.78124-.97266 3.65625-3.64063v1.19532L323.53516 396l-1.98438 2.47266-3.92969 1.96484-.5078.40234-2.64454 4.03516-1.79688 2.58594-2.6328 1.85547-1.8047.97656-2.8164-.97656-1.6211-.75782-4.4375.2461-.22656.51172.22656 2.0078.28516 2.4297-.28515.27343-4.44141 2.28125-1.82422 1.88282-2.61328 2.30078-1.86719 2.13672 1.86719 2.35546 4.4375 1.84766 3.38672-4.20312 1.05469-1.20704 4.4375.19141 2.10937 1.01563 2.32813 2.05078 4.4375-1.76953.28515-.28125 4.15625-3.40625.72266-1.03125 3.71484-3.02735 1.23828-1.41015 1.6211-4.4375-.07813-4.44141 1.07422-4.4375.58203-.39453 1.03906.39453 3.39844 1.30469 4.4375 1.3125 2.99219-2.61719-2.99219-2.25781-4.4375.04687L329.35156 396l-3.36328-2.44531v-1.19531l4.4375 2.12109L332.54688 396l2.3164.60156 4.4414 2.14844 1.53907 1.6875-1.23047 4.4375-.3086.27344-4.4414-.23438-.03906-.03906-4.39844-1.1211-4.4375.44532-.21094.67578.21094 4.21094.20703.23047-.20703.0625-1.11328 4.375-3.32422 3.77734-.8086.66016-2.51171 4.4375 3.32031 2.1328 4.4375-1.26952 2.39453-.86328 2.04297-2.07422 4.4375-2.125 1.36719-.23828 3.07422-1.04688 4.4375.86328 1.78125-4.2539 2.65625-3.14844v8.89844l-4.4375.49218-4.4375-.37109-4.4414 1.67578-1.9961 1.32813-2.4414 1.02343-4.4375 1.53516-3.17579 1.88281-1.26172 1.7461-1.51562 2.6914 1.51562 2.7539.85156 1.6836 3.26563 4.4375.32031.33594 4.4375 1.00781 2.15235-1.34375 2.28515-.375 3.92969.375.51172.28906 4.4375-.03125.27344-.2578 4.07812-4.4375-.0664-4.4375.15234-2.08594.97656-2.35157 3.46094-4.03515.69922-.40625-.69922-2.05079-4.4375-1.07421v-8.89844l1.16406-1.28906 3.27344-2.5586v3.10547l-3.39063 3.89063 3.39063 3.53906 4.4414-1.1289 1.23047-2.41016-1.23047-1.35938-4.4414-2.53125v-3.10547l4.33594 2.5586.10546.0625 3.96485 4.375.47265.90234 4.4375 2.25 1.98438-3.15234-1.98438-3.9961-.24218-.4414-4.19532-1.52735-2.7578-2.91406 2.7578-2.95703v2.875l-.08203.08203.08203.08594.29688-.08594-.29688-.08203v-2.875l4.4375.6914 3.57813 2.26563.85937.48047v3.40625l-.63671.55469.63671.8828.73438-.8828-.73438-.5547v-3.40624l4.4375 3.01172.94532.94922-.94532 2.80468-1.02734 1.63282-3.41016 2.76953-2.86718 1.66797 2.86718.26562 4.4375.17578v1.07031l-4.4375.03125-4.17578 2.89454 1.64453 4.4414 2.53125 2.30078 4.4375-.79296 1.65625-1.50782 2.78516-1.84765 3.03906-2.59375-3.03906-2.39454-4.4414-.53125v-1.0703l4.4414-.12891 4.4375 2.1914 1.90234 1.9336-1.90234 1.6328-4.33984 2.8086-.09766.17969-4.4414 3.90234-4.4375.19141-4.4375-3.33594-.6836-.9375-3.7539-3.69922-4.4375.26954-4.44141 1.96875-1.25 1.46093-.84766 4.4375.125 4.4375-2.46484 3.27344-.9375 1.16406-3.5 3.26953-4.4375.13282-4.4414-1.9961-4.4375 1.92969-2.92188 1.10156-1.51563 1.35547-4.4375-.1875-2.79687-1.16797-1.64063-1.6289-4.4414-1.08985-2.32422-1.71875 2.32421-2.0586 2.40625-2.3789 2.03516-2.09375.69922-2.34375 1.46875-4.4375-2.16797-3.34765-3.40625 3.34765-1.03515 1.73828-4.4375.69141-4.4375-.3086-4.4375 1.79298-.98829.52343.98829 1.53516 3.57812 2.90234-3.57813 1.0039-1.86718-1.0039-2.57422-1.89453-3.5039-2.54297-.9336-.59765-4.17188-3.83985-.26562-.67187-1.08594-3.76953 1.08594-1.23829 2.45312-3.19921 1.98438-3.20313 1.16015-1.23437 3.27735-2.46094.99219-1.97656-.9922-3.26563-4.4375 3.23438-4.4375-.07032-4.4375-.17578-4.4375-.6914-4.4414-.52344-4.4375.90234-1.04687.58985-3.39063 2.89453-4.4375.84765-2.69531-3.74218.8164-4.44141.66016-4.4375-3.22265-4.375-.0586-.0625-3.98047-4.4375-.39843-.32422-4.4375-.13672-4.4375-.29297-4.4375-.6953-3.10157-2.98829-1.33984-.76563-4.4375-2.77734-.90234-.89844-2.0586-4.4375-1.47656-1.84765-3.28906-2.58985-1.14844-.41406-3.53125-4.02344"/><path fill="#00e8fc" fill-rule="evenodd" d="M217.3125 369.3711l-.04688-4.4375 2.20313-4.36329.03125-.07812 1.67188-4.4375.65234-4.4375 1.5625-4.4375.51953-.91016v7.85938l-.51953 1.92578-1.9961 4.4375 2.51563 2.72265 1.95703-2.72265-1.14062-4.4375-.81641-1.92578v-7.85938l1.8711.91016 2.5664 1.96875 1.39063 2.46875-1.39063 3.6836-.14844.7539-.85937 4.4375-2.4336 4.4414-.99609.8672-1.8125 3.5703-2.625 2.46094-2.15625-2.46094"/><path fill="#00d4fc" fill-rule="evenodd" d="M223.90625 363.21484l-2.51563-2.72265 1.9961-4.4375.51953-1.92578v5.01953l-.6289 1.34375.6289.67969.48828-.6797-.48828-1.34374v-5.01953l.8164 1.92578 1.14063 4.4375-1.95703 2.72265"/><path fill="#50fcfc" fill-rule="evenodd" d="M223.90625 407.70313l-1.19531-2.82813 1.19531-2.2539 4.4375 1.05859 4.4375-.70313 3.64844 1.89844-2.85938 4.4414-.78906.15235-.59375-.15234-3.84375-1.19922-4.4375-.41406"/><path fill="#00c4fc" fill-rule="evenodd" d="M223.90625 361.17188l-.6289-.6797.6289-1.34374.48828 1.34375-.48828.67969"/><path fill="#00e8fc" fill-rule="evenodd" d="M228.34375 378.6211l-.21094-.375.21094-.32423 4.4375.16016.23047.16406 4.21094 1.0586 3.27734-1.0586 1.16016-.91406V379.75l-4.4375 1.08203-4.44141 1.4961-.23438.35546.23438.1836 4.4414 2.5039 3.57032 1.75391.86719.39453 2.59765-.39453.3789-4.4414-2.97655-2.9336v-2.41797l.875.91406 3.5625 3.47657.96875.96093 3.46875 2.02735 4.4375-.38281v2.11328l-4.4375.30859-2.54297.375 2.54297.41797L254.97266 390l1.33203-2.875-1.33203-.6836v-2.11327l4.4414 1.91015 1.09766.88672 3.33984 3.52344 4.4375.25781 4.4375-1.07813 2.48828-2.70312-2.48828-1.5625-2.52344-2.8789.09375-4.4375 2.4297-2.42579 4.4414-.1875 1.48828-1.82422 2.94922-4.17578 4.4375.09766v1.10156l-4.4375.9414-1.4375 2.03516-3 3.66797-4.4414.3711-.39844.39843-.19532 4.4375.59375.6797 4.4414 2.37108 4.4375-1.47656 1.78126-1.57422 2.65625-1.10546 4.4375-.03125 2.33984-3.30079-2.33984-2.73437-1.42969-1.70313-3.00781-2.97656v-1.10156l4.125 4.07812.3125.375 3.47656 4.0625-2.39453 4.4375-1.08203 1.01172-2.53906-1.01172-1.89844-.19921-.47656.19921-3.96094 3.5-2.07422.94141 2.07422 2.25781 4.4375.50781v2.1172l-4.4375.98046-4.4375-.67969-4.4414.45313-4.4375 1.2539L264.36327 396l-.51172 1.36719-.53125 3.07031.53125 1.57813 4.4375 1.79296 4.4375-.7578 4.4414.03124 3.69142 1.79297.74609.29688 4.4375.55078 1.82812-.84766 2.60938-1.64453 2.46484-2.79297 1.97266-4.38672 4.4414.51953.39454-.57031-.39454-.39844-4.4414.375-4.4375-2.66015-4.4375-1.3086v-2.11719l1.8164 1.67188 2.6211.8086 4.4375.8828 4.4414.22657L301.86329 396l-2.5039 3.60938-2.32813.82812-2.11328 1.40625-2.41406 3.03125-2.02344 1.88281-4.4375 1.14453-4.4375-.3125-4.4375-1.32812-4.4414-1.15235-4.4375 1.50391-4.4375 2.3086-2.94923-4.04688-.23828-4.4375-.5-4.4375-.75-.76953-4.4414-1.08985-2.33985-2.57812-2.09765-1.71094-4.4375-.3789-4.4375.10156-4.4375-1.67969-.80078-.76953-3.64063-2.07422-3.03906-2.36719-1.39844-4.0625"/><path fill="#00d4fc" fill-rule="evenodd" d="M232.78125 382.86719l-.23438-.1836.23438-.35546 4.4414-1.4961 4.4375-1.08203v1.99219l-4.4375.61719-.83984.32421.83985.47266 4.4375 1.16797.95703-1.64063-.95703-.9414V379.75l2.97656 2.9336-.3789 4.4414-2.59766.39453-.8672-.39453-3.5703-1.7539-4.44141-2.50391"/><path fill="#00c4fc" fill-rule="evenodd" d="M237.22266 383.15625l-.83985-.47266.83985-.32421 4.4375-.6172.95703.94141-.95703 1.64063-4.4375-1.16797"/><path fill="#50fcfc" fill-rule="evenodd" d="M241.66016 413.70313l-2.37891-4.38672 2.3789-.82813 3.41407-3.61328 1.02344-.51953 1.67187.51953 2.4414 4.4414-4.11327 3.20704-4.4375 1.17969m0-43.96875l-.50782-.36329.50782-.3203.3203.3203-.3203.36329m4.4375 58.60156l-.91407-1.26563.91407-2.63672 2.53515 2.63672-2.53515 1.26563"/><path fill="#00d4fc" fill-rule="evenodd" d="M250.53516 387.54297l-2.54297-.41797 2.54297-.375 4.4375-.3086 1.33203.6836-1.33203 2.875-4.4375-2.45703"/><path fill="#50fcfc" fill-rule="evenodd" d="M263.85156 432.41797l-2.3086-.91016 2.3086-1.46094 4.4375-.14062 4.4375.89844 4.4414.39844.70704.30468-.70703.45313-4.4414.49219-4.4375.74609-4.4375-.78125"/><path fill="#00d4fc" fill-rule="evenodd" d="M263.85156 402.01563l-.53125-1.57813.53125-3.07031.51172-1.36719 3.92578-1.98438 4.4375-1.2539 4.4414-.45313 4.4375.6797 4.4375-.98048v1.09766l-4.4375 2.58203-4.4375-.63281-4.4414-.09766L270.0547 396l-1.76563 1.52734-1.90234 2.91016 1.90234 1.26172 4.4375-.57422 3.35547-.6875 1.08594-1.11328.38281 1.11328 4.05469 2.57813 4.4375.71093 4.28906-3.28906.14844-.14063L293.36719 396l-2.88672-1.73828-4.4375-1.15625v-1.09766l4.4375 1.3086 4.4375 2.66015 4.4414-.375.39454.39844-.39454.57031-4.4414-.51953-1.97266 4.38672-2.46484 2.79297-2.60938 1.64453-1.82812.84766-4.4375-.55079-.7461-.29687-3.6914-1.79297-4.4414-.03125-4.4375.75781-4.4375-1.79296"/><path fill="#00c4fc" fill-rule="evenodd" d="M268.28906 401.69922l-1.90234-1.26172 1.90234-2.91016L270.0547 396l2.67187-1.04297 4.4414.09766 4.4375.63281 4.4375-2.58203v1.09765L283.16017 396l-1.5547 3.5625-.72265.875.72266.46094 4.4375.94922 1.83594-1.41016 2.60156-2.47266L291.80078 396l-1.32031-.79688-4.4375-1v-1.09765l4.4375 1.15625L293.36719 396l-2.88672 4.29688-.14844.14062-4.28906 3.28906-4.4375-.71094-4.05469-2.57812-.38281-1.11328-1.08594 1.11328-3.35547.6875-4.4375.57422"/><path fill="#00d4fc" fill-rule="evenodd" d="M272.72656 383.36328l-.59375-.67969.19531-4.4375.39844-.39843 4.4414-.3711 3-3.66797 1.4375-2.03515 4.4375-.9414v1.10546l-4.3125 1.8711-.01171 4.4375 4.32422 2.42577 4.4375-.73046 1.19922-1.69532-1.19922-1.40234-2.54688-3.03516-1.89062-1.87109v-1.10547l3.00781 2.97656 1.42969 1.70313 2.33984 2.73437-2.33984 3.30079-4.4375.03125-2.65625 1.10546-1.78125 1.57422-4.4375 1.47656-4.4414-2.37109"/><path fill="#00e8fc" fill-rule="evenodd" d="M281.60547 368.91406l-2.9336-3.98047 1.9297-4.4414 1.0039-1.03516v5.13672l-.17578.33984.17578.23829.9414-.23829-.9414-.33984v-5.13672l1.32031 1.03516 3.11719 1.79687 2.3125 2.64453-2.3125 3.10938-4.4375.8711"/><path fill="#00b8fc" fill-rule="evenodd" d="M281.60547 400.89844l-.72266-.46094.72266-.875L283.16016 396l2.8828-1.79688v1.09766L284.92189 396l1.12109 3.1836 3.5586-3.1836-3.5586-.69922v-1.09765l4.4375 1 1.32031.79687-1.32031 1.96484-2.60156 2.47266-1.83594 1.41016-4.4375-.94922"/><path fill="#00d4fc" fill-rule="evenodd" d="M281.60547 365.17188l-.17578-.23829.17578-.33984.9414.33984-.9414.23829"/><path fill="#00c4fc" fill-rule="evenodd" d="M286.04297 380.67188l-4.32422-2.42579.01172-4.4375 4.3125-1.87109v1.10547l-1.76953.76562-.9375 4.4375 2.70703 1.51563 4.4375-1.42969.0625-.08594-.0625-.0703-3.66016-4.3672-.77734-.76562v-1.10547l1.89062 1.8711 2.54688 3.03515 1.19922 1.40234-1.19922 1.69532-4.4375.73046"/><path fill="#00b8fc" fill-rule="evenodd" d="M286.04297 379.76172l-2.70703-1.51563.9375-4.4375 1.76953-.76562v2.15625l-1.08594 3.04687 1.08594.60938 1.83984-.60938-1.83984-3.04687v-2.15625l.77734.76562 3.66016 4.3672.0625.0703-.0625.08594-4.4375 1.42969"/><path fill="#00a8fc" fill-rule="evenodd" d="M286.04297 399.1836L284.92187 396l1.1211-.69922 3.5586.69922-3.5586 3.1836m0-20.32813l-1.08594-.60938 1.08594-3.04687 1.83984 3.04687-1.83984.60938"/><path fill="#00e8fc" fill-rule="evenodd" d="M290.48047 424.98438l-1.86719-2.35547 1.86719-2.13672 2.61328-2.30078 1.82422-1.88282 4.4414-2.28125.28516-.27343-.28515-2.4297-.22657-2.0078.22656-.51172 4.4375-.2461 1.6211.75782 2.8164.97656 1.8047-.97656 2.6328-1.85547 1.79688-2.58594 2.64453-4.03516.50781-.40234 3.9297-1.96484v4.54296l-4.4375 1.73829-.08204.12109-2.8164 4.4414-1.54298 3.57423-4.4375.23828-2.03125.625-2.02343 4.4375 4.05469 1.4414 4.4375-.64844.8789-.79296 3.5625-2.00782 2.73047-2.42968 1.70703-3.95704.20703-.48046.16016-4.44141-.36719-1.85938v-4.54296L323.53516 396l2.45312-2.44531v1.9961l-.44922.44921.44922.74219.61719-.74219-.61719-.44922v-1.9961L329.35156 396l1.07422 2.22656 4.4375-.04687 2.99219 2.25781-2.99219 2.61719-4.4375-1.3125-3.39844-1.30469-1.03906-.39453-.58203.39453-1.07422 4.4375.07813 4.4414-1.6211 4.4375-1.23828 1.41016-3.71484 3.02735-.72266 1.03125-4.15625 3.40625-.28515.28125-4.4375 1.76953-2.32813-2.05078-2.10938-1.01563-4.4375-.1914-1.05468 1.20703-3.38672 4.20312-4.4375-1.84765"/><path fill="#00d4fc" fill-rule="evenodd" d="M308.23438 419.63281l-4.0547-1.4414 2.02344-4.4375 2.03125-.625 4.4375-.23829 1.54297-3.57421 2.81641-4.44141.08203-.1211v7.64454l-.14453 1.35547.14453.0703.07813-.0703-.07813-1.35547v-7.64453l4.4375-1.73829.36719 1.85938-.16016 4.4414-.20703.48048-1.70703 3.95703-2.73047 2.42968-3.5625 2.00782-.8789.79296-4.4375.64844"/><path fill="#00c4fc" fill-rule="evenodd" d="M317.11328 413.82422l-.14453-.07031.14453-1.35547.07813 1.35547-.07813.0703"/><path fill="#00e8fc" fill-rule="evenodd" d="M321.55078 434.26172l-1.51562-2.7539 1.51562-2.69141 1.26172-1.7461 3.17578-1.88281 4.4375-1.53516 2.4414-1.02343 1.9961-1.32813 4.4414-1.67578v2.9375l-.14062.0664-4.30078 2.125-4.4375 1.91798-1.25.39843-1.73828 4.4375-1.44922 3.4414-.16797.9961.16797.21485 1.36719-.21485 3.07031-1.0664.13281 1.0664 4.3047 3.1875 4.4414.03906 4.4375.45704 3.58203-3.6836.05078-4.4375-.70313-4.4375-2.92968-4.03515-3.8125-.40625-.625-.06641v-2.9375l4.4375.3711 4.4375-.4922 4.4375 1.07423.69922 2.05078-.69922.40625-3.46094 4.03515-.97656 2.35156-.15235 2.08594.06641 4.4375-4.07813 4.4375-.27343.25781-4.4375.03125-.51172-.28906-3.92969-.375-2.28515.375-2.15235 1.34375-4.4375-1.00781-.32031-.33594-3.26563-4.4375-.85156-1.6836"/><path fill="#00d4fc" fill-rule="evenodd" d="M325.98828 396.74219L325.53906 396l.44922-.44922.61719.44922-.61719.74219m0 39.41797l-.16797-.21485.16797-.9961 1.44922-3.4414 1.73828-4.4375 1.25-.39844 4.4375-1.91796 4.30078-2.125.14063-.06641v3.28906L336.5 427.07031l-1.63672 2.29297-1.04687 2.14453-2.07813 4.4375 3.125 2.3125 4.4414-.36719 4.4375.94141 2.8086-2.88672.17188-4.4375-2.10157-4.4375-.8789-1.21094-4.4375-.0078v-3.28907l.625.0664 3.8125.40626 2.92969 4.03515.70312 4.4375-.05078 4.4375-3.58203 3.6836-4.4375-.45704-4.4414-.03906-4.3047-3.1875-.1328-1.0664-3.07032 1.0664-1.36719.21485"/><path fill="#00c4fc" fill-rule="evenodd" d="M334.86328 438.25781l-3.125-2.3125 2.07813-4.4375 1.04687-2.14453 1.63672-2.29297 2.80469-1.21875 4.4375.00781v1.82032l-3.625 3.82812-.8125 2.69531-4.4414-1.24609-1.94142 2.98828 1.94141 1.4375 4.4414-.77344 4.4375 1.4297 2.03516-2.09376.29297-4.4375-2.32812-3.82812v-1.82031l.8789 1.21093 2.10157 4.4375-.17188 4.4375-2.8086 2.88672-4.4375-.9414-4.4414.36718"/><path fill="#00b8fc" fill-rule="evenodd" d="M334.86328 437.38281l-1.9414-1.4375 1.9414-2.98828v1.8164l-.76172 1.17188.76172.5625 2.54688-.5625-2.54688-1.17187v-1.8164l4.4414 1.24608.8125-2.6953 3.625-3.82813V428.75l-2.60937 2.75781-.82031 4.4375 3.42969 1.29688 1.26172-1.29688.41406-4.4375-1.67578-2.75781v-1.07031l2.32812 3.82812-.29297 4.4375-2.03515 2.09375-4.4375-1.42969-4.4414.77344"/><path fill="#00a8fc" fill-rule="evenodd" d="M334.86328 436.50781l-.76172-.5625.76172-1.17187 2.54688 1.17187-2.54688.5625m8.8789.73438l-3.42968-1.29688.82031-4.4375 2.60938-2.75781v1.07031l-1.59766 1.6875.26953 4.4375 1.32813.5.48828-.5.53906-4.4375-1.02734-1.6875V428.75l1.67578 2.75781-.41406 4.4375-1.26172 1.29688"/><path fill="#009800" fill-rule="evenodd" d="M342.41406 435.94531l-.26953-4.4375 1.59766-1.6875v1.07031l-.58203.6172.58203 2.70312.375-2.70313-.375-.61719v-1.0703l1.02734 1.6875-.53906 4.4375-.48828.5-1.32813-.5"/><path fill="#00ac00" fill-rule="evenodd" d="M343.74219 434.21094l-.58203-2.70313.58203-.61719.375.6172-.375 2.70312"/><path fill="#50fcfc" fill-rule="evenodd" d="M348.17969 392.70313l-1.1875-1.14063 1.1875-2.85156 3.55078-1.58594.88672-.52344 2.75-3.91797 1.6914-1.09375v4.72266l-.73437.8125.0586 4.4375.67577.63672.98829-.63672-.03907-4.4375-.94922-.8125v-4.72266l2.13672-3.34375 2.30078-1.93359 4.4375-.71484 4.4375-.00391 4.4375-.27344v2.46485l-3.55468.46093-.88282.15625-4.4375 1.45704-2.23046 2.82421 2.23046.58985 3.1211 3.85156-3.1211 2.08203-3.04687 2.35547L361.79687 396l4.13672 2.01172 4.4375.90625 4.4375-.48438L376.72266 396l.3203-4.4375-2.23437-2.08203-3.53515-2.35547 2.83984-4.4414.69531-2.48829.44922-1.94922-.44922-.46093v-2.46485l2.85157 2.92578-.27735 4.4375-2.57422 3.39844-.66796 1.04297.66796.44531 4.28907 3.99219-.77344 4.4375-3.39844 4.4375-.11719.11328-.26562-.11328-4.17188-.32813-4.4375-.54296-4.4375-.73438-4.4375-1.0625L355.19531 396l-2.57812-2.46094-4.4375-.83594"/><path fill="#00e8fc" fill-rule="evenodd" d="M352.61719 417.29297l-3.39063-3.53906 3.39063-3.89063 4.4414 2.53125 1.23047 1.35938-1.23047 2.41015-4.4414 1.1289m3.76562-25.73046l-.0586-4.4375.73438-.8125.94922.8125.03906 4.4375-.98828.63672-.67578-.63672m5.11328 13.39844l-.08203-.08594.08203-.08203.29688.08203-.29688.08594m4.4375-6.94922L361.79688 396l1.08984-4.4375 3.04687-2.35547 3.1211-2.08203-3.1211-3.85156-2.23046-.58985 2.23046-2.82421 4.4375-1.45704v11.89063l-1.7578 1.26953-1.2461 4.4375 3.0039.9336 2.76954-.9336-.625-4.4375-2.14454-1.26953v-11.89063l.88282-.15625 3.55468-.46093.44922.46093-.44922 1.94922-.6953 2.48828-2.83985 4.44141 3.53515 2.35547 2.23438 2.08203-.32031 4.4375-1.91407 2.4336-4.4375.48437-4.4375-.90625m1.90625 29.0586l-1.64453-4.44141 4.17578-2.89454 4.4375-.03125v1.78125l-4.4375.37891-1.10156.76563 1.10156 2.42187 4.4375-.21484 3.50782-2.20703-3.50782-1.14454v-1.78125l4.44141.53125 3.03906 2.39454-3.03906 2.59375-2.78516 1.84765-1.65625 1.50781-4.4375.79297-2.53125-2.30078"/><path fill="#50fcfc" fill-rule="evenodd" d="M370.3711 443.76953l-3.17579-3.38672 2.46875-4.4375.70703-2.67969v5.26172l-1.22656 1.85547 1.22656 1.3086 2.28516-1.3086-2.28516-1.85547v-5.26171l.97266 2.67968 3.46484 2.32031 3.85157 2.1172-1.01172 4.4375-2.83985 1.90624-2.1875-1.90625-2.25-1.05078"/><path fill="#00d4fc" fill-rule="evenodd" d="M370.3711 396.9336L367.36718 396l1.2461-4.4375 1.7578-1.26953 2.14454 1.26953.625 4.4375-2.76954.9336"/><path fill="#00e8fc" fill-rule="evenodd" d="M370.3711 441.6914l-1.22657-1.30859 1.22656-1.85547 2.28516 1.85547-2.28516 1.3086"/><path fill="#00d4fc" fill-rule="evenodd" d="M370.3711 425.05078l-1.10157-2.42187 1.10156-.76563 4.4375-.3789 3.50782 1.14453-3.50782 2.20703-4.4375.21484"/><path fill="#00e8fc" fill-rule="evenodd" d="M370.3711 410.19922l-.63673-.88281.63672-.5547.73438.5547-.73438.8828"/><path fill="#50fcfc" fill-rule="evenodd" d="M388.125 441.21094l-1.69922-.82813 1.69922-.58203.69922.58203-.69922.82813m4.4375-20.71485l-2.28516-2.30468 2.28516-2.2422 2.32031 2.2422-2.32031 2.30468m31.07031 30.12891l-1.51562-1.36328 1.51562-3.14844.64453-1.29297 3.79297-3.02344v6.48829l-.49219.97656.4922.24219.90234-.2422-.90235-.97655v-6.48829l2.71485 3.02344 1.72265 1.77735 4.4375.14453 4.4414-.3086 4.4375-.6289v1.47656l-4.4375 1.60156-2.43358.3789 2.43359 1.22267.60156 3.21484 3.83594 4.01172.6211.42578 3.0703 4.4375.7461.7539 4.4375 2.13282 2.1875-2.88672-1.32031-4.4375-.8672-.96094-2.875-3.47656-1.5625-2.13281-1.73437-2.3047-2.70312-1.98046v-1.47656l4.4375 2.6836.77344.77343 2.75 4.4375.91406 1.10547 3.01172 3.33203.69531 4.4375-2.09766 4.4414-1.60937 1.1172-1.14063-1.1172-3.29687-1.45312-2.96485-2.98828-1.47265-2.11719-2.59766-2.32031-1.83984-2.0586-3.05469-2.3789-1.38672-1.04688-4.4375-1.15234-4.4375.71094-4.4375-1.58594m4.4375-44.48438l-1.26562-1.26562 1.26562-1.26563 1.40625 1.26563-1.40625 1.26563"/><path fill="#00e8fc" fill-rule="evenodd" d="M428.07031 449.5039l-.49219-.24218.4922-.97656.90234.97656-.90235.24219"/><path fill="#50fcfc" fill-rule="evenodd" d="M436.94531 380.78125l-2.5664-2.53516 2.5664-2.6875 4.4414 1.15625 1.47267 1.53125-1.47266 1.57422-4.4414.96094"/><path fill="#00e8fc" fill-rule="evenodd" d="M441.38672 450.48438l-2.4336-1.22266 2.4336-.3789 4.4375-1.60157v3.16016l-1.34766 3.2578 1.34766 1.41017 2.26172-1.41016-2.26172-3.25781v-3.16016l2.70312 1.98047 1.73438 2.30469 1.5625 2.1328 2.875 3.47657.86719.96094 1.3203 4.4375-2.1875 2.88672-4.4375-2.13281-.74608-.75391-3.07032-4.4375-.6211-.42578-3.83593-4.01172-.60156-3.21485"/><path fill="#00d4fc" fill-rule="evenodd" d="M445.82422 455.10938l-1.34766-1.41016 1.34766-3.25781 2.26172 3.2578-2.26172 1.41017"/><path fill="#50fcfc" fill-rule="evenodd" d="M445.82422 391.78516l-.1914-.22266.1914-.1836 4.4375-3.16015 2.26953-1.09375.89063-4.4414 1.27734-3.21876v8.13672l-4.4375 2.25781-2.28906 1.70313-.75782 4.4375 3.04688 4.4336 4.4375-.51563L459.10547 396l-1.4961-4.4375-2.91015-3.96094v-8.13672l.3789-1.21875-.3164-4.4375 4.3789-3.5039v5.28906l-.38671 2.65234.38671.27735.28907-.27735-.28906-2.65234v-5.28906l2.66015 3.5039.39844 4.4375-3.0586 2.92188-3.01953 1.51562.75 4.44141 1.70704 4.4375.5625 1.71875L461.70313 396l-2.5625 2.64063-4.44141 1.61328-1.5625.18359-2.875 3.4961-2.66016-3.4961L446.3125 396l-.48828-4.21484"/><path fill="#00e8fc" fill-rule="evenodd" d="M450.26172 400.4336L447.21484 396l.75782-4.4375 2.28906-1.70313 4.4375-2.2578v2.20312l-3.00781 1.75781-1.4297 1.19531L448.71876 396l1.54297 2.2461 4.4375 1.10937L458.47266 396l-2.48047-4.4375-1.29297-1.75781v-2.20313l2.91015 3.96094 1.4961 4.4375-4.40625 3.91797-4.4375.51562"/><path fill="#00d4fc" fill-rule="evenodd" d="M450.26172 398.2461L448.71875 396l1.54297-3.24219 1.42969-1.19531 3.0078-1.75781v1.92969l-4.4375 4.1875-.03905.07812.03906.05469 4.4375 2.73437L457.83984 396l-3.14062-4.26563v-1.92968l1.29297 1.75781L458.47266 396l-3.77344 3.35547-4.4375-1.10938"/><path fill="#00c4fc" fill-rule="evenodd" d="M450.26172 396.05469L450.22266 396l.03906-.07813 4.4375-4.1875v.86329L451.14062 396l3.5586 2.22656L457.20703 396l-2.50781-3.40234v-.86329L457.83984 396l-3.14062 2.78906-4.4375-2.73437"/><path fill="#00b8fc" fill-rule="evenodd" d="M454.69922 398.22656L451.14062 396l3.5586-3.40234v.85937L452.03906 396l2.66016 1.66406 1.875-1.66406-1.875-2.54297v-.85937L457.20703 396l-2.50781 2.22656"/><path fill="#00a8fc" fill-rule="evenodd" d="M454.69922 397.66406L452.03906 396l2.66016-2.54297v.85938L452.9375 396l1.76172 1.10156L455.9414 396l-1.2422-1.6836v-.85937l1.875 2.54297-1.875 1.66406"/><path fill="#009800" fill-rule="evenodd" d="M454.69922 397.10156L452.9375 396l1.76172-1.6836v.85938l-.85938.82422.85938.53906.60937-.53906-.60937-.82422v-.85937L455.9414 396l-1.2422 1.10156"/><path fill="#00ac00" fill-rule="evenodd" d="M454.69922 396.53906L453.83984 396l.85938-.82422.60937.82422-.60937.53906"/><path fill="#00e8fc" fill-rule="evenodd" d="M459.14063 378.52344l-.38672-.27735.38671-2.65234.28907 2.65234-.28906.27735"/><g clip-path="url(#c)"><path fill="#fff" fill-opacity="0" fill-rule="evenodd" d="M468.01172 480.32813h.0039V311.67188h-.0039.0039v168.65625h-.0039"/></g><path fill="#fff" fill-opacity="0" fill-rule="evenodd" d="M248.89063 396.7539l3.79687 4.44141 7.57031-6.47656-3.80078-4.4414-7.5664 6.47656"/><path fill-rule="evenodd" d="M257.33984 394.1289l.33204.38673-4.78125 4.09375-.51172-.59766 3.41015-2.91797-.90234-1.0586.42187-.35937.41407.38281.20312.15625.21875.1172.23828.0625.27344-.00392.3164-.08593.3672-.17578"/><path fill="#fff" fill-opacity="0" fill-rule="evenodd" d="M222.76563 360.77734l.98437 5.75782 9.82031-1.6797-.98828-5.7578-9.8164 1.67968"/><path fill-rule="evenodd" d="M231.36719 362.85547l.08594.5039-6.20313 1.0625-.13281-.77734 4.42578-.75781-.23438-1.36719.54688-.09375.15625.53906.09766.2422.125.21093.17578.17578.23437.13672.3164.08984.40626.03516"/><path fill="#fff" fill-opacity="0" fill-rule="evenodd" d="M288.57813 391.57813l5.61718-1.60547-2.73828-9.57813-5.61719 1.60938 2.73829 9.57421"/><path fill-rule="evenodd" d="M289.70703 382.80469l.49219-.14063 1.73047 6.05078-.75781.21485-1.23438-4.3164-1.33594.3828-.15234-.53515.51953-.21485.23047-.12109.19531-.14844.15625-.1914.10938-.25.05468-.32422-.0078-.40625"/><path fill="#fff" fill-opacity="0" fill-rule="evenodd" d="M342.08594 410.48047l3.10547-4.94922-8.4336-5.29688-3.10547 4.94922 8.4336 5.29688"/><path fill-rule="evenodd" d="M337.0625 403.19531l.27344-.4336 5.32812 3.34767-.41797.66796-3.80078-2.38671-.73828 1.17578-.47265-.29688.24218-.50781.08985-.24219.04687-.24219-.01172-.25-.08594-.2578-.17187-.27735-.28125-.29688"/><path fill="#fff" fill-opacity="0" fill-rule="evenodd" d="M374.8164 422.73047l5.70704 1.24219 2.125-9.73047-5.70703-1.2461-2.125 9.73438"/><path fill-rule="evenodd" d="M379.96875 415.53516l.4961.10937-1.34376 6.14844-.76562-.16797.95703-4.38672-1.35938-.29687.1211-.54297.5586.0586h.2578l.2461-.03907.22656-.09375.21485-.16797.20312-.25781.1875-.36328"/><path fill="#fff" fill-opacity="0" fill-rule="evenodd" d="M194.1875 422.04688l5.58984 1.69921 2.90235-9.52734-5.58985-1.70313-2.90234 9.53125"/><path fill-rule="evenodd" d="M199.90234 415.28906l.48828.14844-1.83203 6.02344-.7539-.23047 1.3086-4.29297-1.32813-.40625.16015-.53125.55469.10156.25781.01953.2461-.01562.23437-.07813.22656-.14843.22266-.2422.21484-.34765"/><g clip-path="url(#d)"><path fill="none" stroke="#000" stroke-linecap="round" stroke-linejoin="round" stroke-miterlimit="10" stroke-width=".5" d="M0 483.23047v-5.80469"/></g><g clip-path="url(#e)"><path fill="none" stroke="#000" stroke-linecap="round" stroke-linejoin="round" stroke-miterlimit="10" stroke-width=".5" d="M0 483.0586v-5.46094"/></g><g clip-path="url(#f)"><path fill="none" stroke="#000" stroke-linecap="round" stroke-linejoin="round" stroke-miterlimit="10" stroke-width=".5" d="M0 482.90625v-5.15234"/></g><g clip-path="url(#g)"><path fill="none" stroke="#000" stroke-linecap="round" stroke-linejoin="round" stroke-miterlimit="10" stroke-width=".5" d="M0 483.02734v-5.39843"/></g><g clip-path="url(#h)"><path fill="none" stroke="#000" stroke-linecap="round" stroke-linejoin="round" stroke-miterlimit="10" stroke-width=".5" d="M0 482.32031v-3.98437"/></g><g clip-path="url(#i)"><path fill="none" stroke="#000" stroke-linecap="round" stroke-linejoin="round" stroke-miterlimit="10" stroke-width=".5" d="M0 481.82813v-3"/></g><g clip-path="url(#j)"><path fill="none" stroke="#000" stroke-linecap="round" stroke-linejoin="round" stroke-miterlimit="10" stroke-width=".5" d="M0 481.49219v-2.32422"/></g><g clip-path="url(#k)"><path fill="none" stroke="#000" stroke-linecap="round" stroke-linejoin="round" stroke-miterlimit="10" stroke-width=".5" d="M0 481.15234v1.21485"/></g><g clip-path="url(#l)"><path fill="none" stroke="#000" stroke-linecap="round" stroke-linejoin="round" stroke-miterlimit="10" stroke-width=".5" d="M0 482.05469v-3.44922"/></g><g clip-path="url(#m)"><path fill="none" stroke="#000" stroke-linecap="round" stroke-linejoin="round" stroke-miterlimit="10" stroke-width=".5" d="M0 482.52344v-4.39063"/></g><g clip-path="url(#n)"><path fill="none" stroke="#000" stroke-linecap="round" stroke-linejoin="round" stroke-miterlimit="10" stroke-width=".5" d="M0 482.91016v-5.16407"/></g><g clip-path="url(#o)"><path fill="none" stroke="#000" stroke-linecap="round" stroke-linejoin="round" stroke-miterlimit="10" stroke-width=".5" d="M0 483.41016V477.25"/></g><g clip-path="url(#p)"><path fill="none" stroke="#000" stroke-linecap="round" stroke-linejoin="round" stroke-miterlimit="10" stroke-width=".5" d="M0 483.52344v-6.38672"/></g><g clip-path="url(#q)"><path fill="none" stroke="#000" stroke-linecap="round" stroke-linejoin="round" stroke-miterlimit="10" stroke-width=".5" d="M0 483.51563v-6.375"/></g><g clip-path="url(#r)"><path fill="none" stroke="#000" stroke-linecap="round" stroke-linejoin="round" stroke-miterlimit="10" stroke-width=".5" d="M0 483.22266v-5.78516"/></g><g clip-path="url(#s)"><path fill="none" stroke="#000" stroke-linecap="round" stroke-linejoin="round" stroke-miterlimit="10" stroke-width=".5" d="M0 482.46875v-4.27734"/></g><g clip-path="url(#t)"><path fill="none" stroke="#000" stroke-linecap="round" stroke-linejoin="round" stroke-miterlimit="10" stroke-width=".5" d="M0 481.55469v-2.45313"/></g><g clip-path="url(#u)"><path fill="none" stroke="#000" stroke-linecap="round" stroke-linejoin="round" stroke-miterlimit="10" stroke-width=".5" d="M0 481.21484v-1.77343"/></g><g clip-path="url(#v)"><path fill="none" stroke="#000" stroke-linecap="round" stroke-linejoin="round" stroke-miterlimit="10" stroke-width=".5" d="M0 481.21484v2.39063"/></g><g clip-path="url(#w)"><path fill="none" stroke="#000" stroke-linecap="round" stroke-linejoin="round" stroke-miterlimit="10" stroke-width=".5" d="M0 481.3789v-2.10156"/></g><g clip-path="url(#x)"><path fill="none" stroke="#000" stroke-linecap="round" stroke-linejoin="round" stroke-miterlimit="10" stroke-width=".5" d="M0 483.41797v-6.17969"/></g><g clip-path="url(#y)"><path fill="none" stroke="#000" stroke-linecap="round" stroke-linejoin="round" stroke-miterlimit="10" stroke-width=".5" d="M0 482.54688v-4.4336"/></g><g clip-path="url(#z)"><path fill="none" stroke="#000" stroke-linecap="round" stroke-linejoin="round" stroke-miterlimit="10" stroke-width=".5" d="M0 482.15625V478.5"/></g><g clip-path="url(#A)"><path fill="none" stroke="#000" stroke-linecap="round" stroke-linejoin="round" stroke-miterlimit="10" stroke-width=".5" d="M0 482.15625v-1.25"/></g><g clip-path="url(#B)"><path fill="none" stroke="#000" stroke-linecap="round" stroke-linejoin="round" stroke-miterlimit="10" stroke-width=".5" d="M0 483.1914v-5.72265"/></g><g clip-path="url(#C)"><path fill="none" stroke="#000" stroke-linecap="round" stroke-linejoin="round" stroke-miterlimit="10" stroke-width=".5" d="M0 483.84375v-7.02734"/></g><g clip-path="url(#D)"><path fill="none" stroke="#000" stroke-linecap="round" stroke-linejoin="round" stroke-miterlimit="10" stroke-width=".5" d="M0 483.47266v-6.28907"/></g><g clip-path="url(#E)"><path fill="none" stroke="#000" stroke-linecap="round" stroke-linejoin="round" stroke-miterlimit="10" stroke-width=".5" d="M0 483.04297v-5.42969"/></g><g clip-path="url(#F)"><path fill="none" stroke="#000" stroke-linecap="round" stroke-linejoin="round" stroke-miterlimit="10" stroke-width=".5" d="M0 470.27344v-6.51953"/></g><g clip-path="url(#G)"><path fill="none" stroke="#000" stroke-linecap="round" stroke-linejoin="round" stroke-miterlimit="10" stroke-width=".5" d="M0 470.27344v1.8789"/></g><path fill="none" stroke="#000" stroke-linecap="round" stroke-linejoin="round" stroke-miterlimit="10" stroke-width=".5" d="M0 470.14844v-6.26953m0 6.26953v2.00781m0-2.1836v-5.91796m0 5.91797v2.14062m0-2.48828v-5.22266m0 5.22266v2.30469m0-3.23438v-3.36328m0 2.875v1.22656m0-1.42578v-1.98828m0 1.69922v1.20313m0-.55079v-2.71484m0 2.32031v1.22266m0 .2461v-4.86329m0 5.83984v-6.8164m0 5.82422v.82422m0 .21875v-6.91797m0 5.91406v.7539m0 .12891v-6.67578m0 5.70313v.20703m0 .76953v-6.6836m0 5.71094v.21485m0 .64843v-6.46484m0 5.52344v.10547m0 .66015v-6.11328m0 5.22266v-.03125m0 1.375v-7.01953m0 6v.53125m0-.26954v-5.5039m0 4.70312v1.125m0-1.88672v-2.3789m0 2.03125v1.21484m0-.6289v-2.85547m0 2.4414V469.25m0-1.46094v-1.55078m0 3.6836v-5.81641m0 4.96875v-.13281m0 .5078v-4.87109m0 4.16016v-.3789m0 2.08984v-6.8711m0 5.8711v.33594m0 .73046v-7.0039m0 5.98437v.48047m0 .42578V463.625m0 5.78906v.26953m0 .67188v-6.6836"/><g clip-path="url(#H)"><path fill="none" stroke="#000" stroke-linecap="round" stroke-linejoin="round" stroke-miterlimit="10" stroke-width=".5" d="M0 457.17969v-6.96094"/></g><path fill="none" stroke="#000" stroke-linecap="round" stroke-linejoin="round" stroke-miterlimit="10" stroke-width=".5" d="M0 457.05469v-6.71094m0 6.71094v.46094m0-.4922V450.375m0 5.67969v.19531m0 .96094v-7.02735m0 6.00782v.58984m0 .04688v-6.25782m0 5.34766v1.0039m0 .25782v-6.96485m0 2.47266v2.02344m0 1.17187v-4.3711M0 455.25v-.49219m0 1.72656v-5.57421m0 4.76562v-.20312m0-.54688v-2.45312m0 2.45312v-1.6289m0 1.5039v-2.20703m0 1.88672v-.84766m0 .95313v-1.77344m0 1.51562v-.90234m0 .82813v-1.10938m0 1.10938v-1.96094m0 2.05078v-1.28906m0 1.10156v-.96094m0 1.82031v-2.6328m0 2.25v-.78907m0 1.34375v-2.98047m0 2.54688v-.73438m0-.6836v.72657m0-.6211v-1.13671m0-1.22657v5.23829m0-4.47657v-1.14843m0-.39063v6.79688m0-5.8086v-.83203m0 2.6211v1.24218m0-1.0625v-1.16797m0 1.52344v.17188m0-.14844v-1.09766m0 1.4375v-.55469m0 .47266v-1.03516m0 3.51563v-5.35547m0 4.57813v-.26172m0 .79687v-4.86719m0 4.16016v1.17969m0-.17969v-5.45312m0 4.66015v1.1289"/><g clip-path="url(#I)"><path fill="none" stroke="#000" stroke-linecap="round" stroke-linejoin="round" stroke-miterlimit="10" stroke-width=".5" d="M0 443.29688v-5.82813"/></g><path fill="none" stroke="#000" stroke-linecap="round" stroke-linejoin="round" stroke-miterlimit="10" stroke-width=".5" d="M0 443.23828v-5.71094m0 5.71094v-.32812m0-.09766v-4.85938m0 4.85938v-.76563m0 .89063v-5.10547m0 4.35938v-.32422m0-.38672v-2.19531m0 1.875v-.84766m0 .92188v-1.70313m0 1.45703v-.91406m0-.64453v1.91015m0-1.6328v-1.19923m0 2.59375v-1.4375m0 1.23047v-.94531m0 .60937v-.34765m0 .34765v-2.10937m0 2.69531v-1.52344m0 1.52344v-1.86719m0 2.07032v-1.92578m0 1.92578v-1.76953m0 1.90625v-2.20313m0 2.20313v-1.69532m0 1.375v-.84765m0 1.08593v-2.03515m0 2.03515v-1.74218m0 1.68359v-1.92187m0 1.92187v-1.76562m0 1.48828v-.88672m0 1.57422v-2.7422m0 2.7422v-1.54688m0 1.14844v-.77344m0 2.5625V437.625m0 5.51953v-.4375m0-2.1914V440.25m0 .22656v-1.0586m0 1.66017v-1.38672m0 1.18359v-.94922m0-1.20312v3.3203m0-2.83593v-1.22656m0 1.9336v.9375m0-.9375v-2.30079m0 2.01563v1.51172m0-1.29297v-1.1836m0 1.70703v.02735m0-.02344v1.07813m0-3.40235v4.66797m0-3.99219v.42969m0 3.64453v-4.83203m0 4.1289v1.1836m0-2.3086v-1.17968m0 1.00781v1.16406"/><g clip-path="url(#J)"><path fill="none" stroke="#000" stroke-linecap="round" stroke-linejoin="round" stroke-miterlimit="10" stroke-width=".5" d="M0 429.67188v-5.20704"/></g><path fill="none" stroke="#000" stroke-linecap="round" stroke-linejoin="round" stroke-miterlimit="10" stroke-width=".5" d="M0 429.76953v-5.40234m0 5.40234v-.4961m0-.28905v-.25m0 .3164v-3.96484m0 3.96484v-1.13672m0 .65625v-3m0 2.5625v-.73437m0 .0625v-.78516m0 .78516v-2.02344m0 1.67188v-.08204m0 .08204v-2.15625m0 2.70312v-1.17578m0 1.17578v-1.94531m0 1.35937h0m0 0v-2.16797m0 2.5v-.66406m0 .66406v-2.05078m0 1.95313v-1.02344m0 1.22266v-.8711m0 .8711v-2.00782m0 1.87891v-1m0 1.10938v-.83204m0 .83203v-2.01171m0 1.89062v-1.00781m0 1.70703v-1.98828m0 1.98828v-1.7539m0 1.46484v-1.7539m0 1.77343v-1.44922m0 1.44922v-1.8789m0 1.66796v-.9414m0 .94921v-1.04297m0 1.04297v-1.97265m0 1.82031v-.98438m0 1.63672v-2.04297m0 2.04297v-1.73828m0 1.4414v-.87109m0 1.34766v-2.40234m0 2.40234V426.625m0 1.47656v-2.0664m0 2.0664v-1.73437m0 .28515v.83203m0-.71093v-1.14453m0 2.0703v-1.26171m0 1.26172v-1.92578m0-1.28125v5.15234m0 .0664v-5.28515m0 4.51563v-.28125m0 1.75v-6.6797m0 .3672v5.9414m0-5.07812v.08984m0 .85938v2.3164m0-1.98047v.83594m0-2.64844v5.26953m0-4.5039v.28906"/><g clip-path="url(#K)"><path fill="none" stroke="#000" stroke-linecap="round" stroke-linejoin="round" stroke-miterlimit="10" stroke-width=".5" d="M0 415.72266v-3.9375"/></g><path fill="none" stroke="#000" stroke-linecap="round" stroke-linejoin="round" stroke-miterlimit="10" stroke-width=".5" d="M0 416.2461v-4.98438m0 4.98437v-.71093m0-.01563v-.70703m0 1.58984v-5.30078m0 5.30078v-.55078m0-.21875v-.27734m0 .46094v-4.125m0 4.125v-1.07813m0 .47656v-.53906m0 .82031v-3.48437m0 3.48437v-1.3125m0 .96485v-2.78907m0 2.78907v-1.53125m0 1.125v-.76563m0 .30469v-1.0586m0 1.0586v-1.96484m0 1.8125v-.98438m0 .69531v-.17187m0 .17187v-2.13672m0 2.10938v-1.0664m0 .97656v.0625m0-.0625v-2.1797m0 3.00782v-1.59375m0 1.59375v-1.84766m0 1.39844v-.69922m0 .69922v-2.03906M0 414v-1.01953m0 .83594v-.12891m0 .1289v-2.14453m0 3.5586v-2.95703m0 2.95703v-1.47656m0 .625v-1.25m0 1.0664v-.96094m0 2.60938v-4.17969m0 4.17969v-1.05469m0 1.3711v-4.8125m0 4.8125v-.78907m0 .76563v-4.76563m0 4.07032v-.40235m0 .02344v-2.61719m0 2.23828v-.79297m0-.17187v.0664m0-.05468v-1.08985m0-.54296v3.3125m0-2.83204v-1.22656m0 1.45703v1.88672m0-.22265v-1.4375m0 1.22656v1.17969m0-2.33594v1.29687m0-1.10937v.95703m0-3.96094v6.92578m0-6.78125v6.64063m0-5.67578v-.1914"/><g clip-path="url(#L)"><path fill="none" stroke="#000" stroke-linecap="round" stroke-linejoin="round" stroke-miterlimit="10" stroke-width=".5" d="M0 403.07031v-5.26562"/></g><path fill="none" stroke="#000" stroke-linecap="round" stroke-linejoin="round" stroke-miterlimit="10" stroke-width=".5" d="M0 403.50781v-6.13672m0 6.13672v-.05078m0-.53125v-4.97656m0 4.97656v-.71484m0 .30078v-4.14453m0 4.14453v-1.07031m0 .46484v-.53125m0 .71484v-3.30078m0 3.30078v-1.37109m0 .89063v-.6875m0 1.0664v-3.09765m0 3.09765v-1.4375m0 .98438v-.71485m0 1.04688v-2.85547m0 2.85547v-1.51563m0 1.09766v-.7539m0 .11718v-.75m0 .75v-2.03125m0 1.54297v.23047m0-.23047v-2.20313m0 2.67188v-.71094m0 .71094v-2.03906m0 3.25V398.875m0 2.67188v-.71094M0 403.75v-6.6211m0 5.65626v.17968m0 .23047v-5.51172m0 4.71094v-.22265m0 1.35937v-6.1875m0 6v-5.8086m0 4.96094v-.1328m0 1.42577v-6.69922m0 5.72266v.875m0 .17188v-6.84375m0 5.84765v.3164m0 .48438v-6.45312m0 5.51562v.09766m0 1.04297v-6.85938m0 5.86328v.79688m0 .16015v-6.78125m0 5.9336v-5.08203m0 4.33984v-.32812m0 1.97265v-6.88672m0 6.11329v-5.34375m0 4.5664v1.14063m0-5.98438v5.89844m0-5.03906v.10546m0 .82032v2.32812"/><g clip-path="url(#M)"><path fill="none" stroke="#000" stroke-linecap="round" stroke-linejoin="round" stroke-miterlimit="10" stroke-width=".5" d="M0 399.27344v1.66406"/></g><g clip-path="url(#N)"><path fill="none" stroke="#000" stroke-linecap="round" stroke-linejoin="round" stroke-miterlimit="10" stroke-width=".5" d="M0 389.78516v-5.32422"/></g><path fill="none" stroke="#000" stroke-linecap="round" stroke-linejoin="round" stroke-miterlimit="10" stroke-width=".5" d="M0 390.5039v-6.76171m0 6.76172v.52343m0-.97656v-5.85547m0 5.85547v-.23828m0 .25v-5.8789m0 5.8789v-.22656m0 .64062v-6.70703m0 6.70703v.45313m0-1.70313v-4.20703m0 4.20703v-1.04297m0-.41796v-1.28516m0 1.28515v-1.91796m0 2.07812v-1.60547m0 1.60547v-1.84765m0-.0547v2.19923m0-2.19922v-2.41797m0 2.35156v2.33203m0-1.99219v-1.21093m0 2.14062v-.20703m0 .17969v-1.0664m0 3.48827V384.625m0 4.9961v-.70704m0 1.39453v-6.37109m0 5.44531v.0625m0 .42578V384.375m0 4.69531v1.1289m0-1.49608v-3.16016m0 2.69922v1.22656m0 1.09766v-6.88672m0 5.88672v.77734m0-2.80078v-.83985m0 .71875v1.14454m0 1.55859v-6.0039m0 5.1328v1.0547m0-1.35157v-3.66797m0 3.13281v1.22657m0-1.5586v-1.93359m0 1.65234v1.19922m0 1.38281v-6.53515m0 5.58594v.93359m0-.90234v-4.69922m0 4.01562v1.1914m0 .48048v-6.67578m0 5.70703v.88281m0-3.44922v.39453m0-.33594v1.05079m0 .57421v-2.97265m0 2.97265v2.45313m0-2.88281v2.44922"/><g clip-path="url(#O)"><path fill="none" stroke="#000" stroke-linecap="round" stroke-linejoin="round" stroke-miterlimit="10" stroke-width=".5" d="M0 377.04297v-6.46875"/></g><path fill="none" stroke="#000" stroke-linecap="round" stroke-linejoin="round" stroke-miterlimit="10" stroke-width=".5" d="M0 377.1211v-6.62891m0 6.6289v.3711m0-.34766v-6.67187m0 6.67187v.41016m0-.25v-6.9961m0 5.98047v.47266m0 .53906v-6.98828m0 5.97266v.46093m0 .50391v-6.88672M0 376.25v.78125m0-2.14844v-2.14844m0 1.83594v-.85547m0 3.41016v-6.63281m0 5.66797v.1875m0-5.79688v6.51563M0 371.5v-.1289m0 2.3125v.25m0-.21485v1.0625m0-2.59766v3.2461m0-3.2461v1.39063m0 2.14062v-3.8125m0 3.8125v2.44532m0-1.4961v-5.71094m0 5.71094v2.19922m0-3.78125v-2.54687m0 2.54687v2.4336m0-1.85157v-3.71094m0 3.17188v1.22266m0 .67578v-6.4336m0 5.5v.96094m0-2.86328v-.75781m0 .64844v1.13671m0-2.4414v2.07031m0-2.07031v1.73047m0 1.625v-4.64063m0 3.96485v1.1953m0 .35938v-6.39844m0 5.46875v.97266m0-.16406v-6.15625m0 5.25781v1.02735m0 .24218v-6.89844m0 6.89844v1.54297m0-4.46875v-1.05078m0 .89844v1.15625m0-5.04297v7.02734m0-.0039v-7.01563m0 7.01563v1.01953m0-2.03906v1.01953"/><g clip-path="url(#P)"><path fill="none" stroke="#000" stroke-linecap="round" stroke-linejoin="round" stroke-miterlimit="10" stroke-width=".5" d="M0 363.98047v-6.97266"/></g><g clip-path="url(#Q)"><path fill="none" stroke="#000" stroke-linecap="round" stroke-linejoin="round" stroke-miterlimit="10" stroke-width=".5" d="M0 363.98047v1.41015"/></g><path fill="none" stroke="#000" stroke-linecap="round" stroke-linejoin="round" stroke-miterlimit="10" stroke-width=".5" d="M0 363.98828V357m0 6.98828v.91016m0-1.92969v.45703m0 .55469v-6.97656m0 6.97656v1.40625m0-1.40235V357m0 5.96875v.6914m0 .32813v-6.99219m0 5.97657v.46093m0 .53907v-6.95704m0 5.94532v.72265m0-2.27734v-1.82422m0 1.82422v-1.79688m0-2.54687v6.85938m0-6.58985v6.32422M0 358.25v-.98828m0 .27344v5.91796m0-5.91796v.1953m0 1.19923v3.125m0-2.66797v.71484m0 1.35547v-1.92578m0 1.92578v2.39844m0-2.39063v-1.9414m0 1.9414v2.39844m0-1.60937v-3.51954m0 3.51954v2.45312m0-1.64844v-5.1328m0 4.38671v1.16016m0-.69141v-4.57813m0 4.57813v2.39453m0-3.17187v-3.02344m0 3.02344v2.45312m0-2.61719v-2.6914m0 2.30078v1.21875m0-.8125v-2.72656m0 2.33203v1.22265m0 .59766v-5.57422m0 4.76172v1.11719m0-6.5586v6.9336m0-2.09375v-2.75m0 2.35156v1.22266m0 .96093v-6.3164m0 5.39453v.04297m0-1.13672v-2.28516m0 1.95313v-.83985m0 3.4297v-6.8047m0 6.8047v.57421"/><g clip-path="url(#R)"><path fill="none" stroke="#000" stroke-linecap="round" stroke-linejoin="round" stroke-miterlimit="10" stroke-width=".5" d="M0 348.60547V345.75"/></g><path fill="none" stroke="#000" stroke-linecap="round" stroke-linejoin="round" stroke-miterlimit="10" stroke-width=".5" d="M0 348.60547v2.44531m0-.76562v-6.21485m0 6.21485v2.03125m0-1.67188v-6.9336m0 6.9336v1.48828m0-2.4961v.7422m0 .27734v-6.95313m0 6.95313v.82422m0-1.83594v.41016m0-1.5v-2.7539m0 2.7539v-1.53906m0 1.14062v-.77344m0 1.01563v-2.4414m0 2.4414v-1.63281m0 .21484v.39453m0-.39453V344.75m0 3.78125v-2.70313m0 3.57032v-4.4414m0 3.79687v-.47657m0-3.77343v5.34765m0-4.57031v.26563m0 .5v2.26171m0 1.83594v-5.9336m0 5.9336v2.13281m0-2.99609v1.0664m0-.5v-5.33984m0 5.33985v2.28515m0-3.0625v1.14063m0-.13672v-5.78906m0 5.78906V352.25m0-2.96875v-4.20703m0 3.59765v1.21094m0-3.7461v2.08204m0-1.78125v.86719m0 3.35937v-6.97265m0 5.96093v.4375m0-.6289v-4.5664m0 3.90233v1.19532m0-2.30469v-1.01953m0 .8711v1.15624m0 .7539v-4.53905m0-.21485v4.96875m0-4.2461v.35548m0-1.64844v6.10547m0-5.21875v.03515m0-1.3164v6.89453m0-6.89453v-.71094m0 5.76953v-3.21875m0 2.75v-.69922m0-3.95703v7.02735m0-7.02735v-1.16015"/><g clip-path="url(#S)"><path fill="none" stroke="#000" stroke-linecap="round" stroke-linejoin="round" stroke-miterlimit="10" stroke-width=".5" d="M0 332.85156v2.01953"/></g><path fill="none" stroke="#000" stroke-linecap="round" stroke-linejoin="round" stroke-miterlimit="10" stroke-width=".5" d="M0 332.85156v1.7461m0 .66406v-2.79688m0 2.39063v1.22265m0 1.25v-6.92968m0 6.92969v1.49609m0-1.44922v-7.02734m0 7.02734v1.14063m0-2.30079v-4.70312m0 4.70312v-.83984m0 .15625v-.41797m0 .89453v-4.28906m0 4.28906v-1.01172m0 .38672v-.5039m0 .22656v-2.48438m0 2.48438v-1.61719m0 1.25781v-.8125m0 .45313v-1.04688m0 1.04688v-1.97266m0 1.5v-.10156m0 .08594v-1.07422m0 4.1914v-6.30468m0 5.38672v.99609m0-6.44922v6.4375m0 .2461v-6.9297m0 6.9297v1.49218m0-2.5v.7461M0 337v-6.27344M0 337v2.0039m0-2.91406v1m0-.41406v-5.625m0 5.625v2.21875m0-2.3711v-5.3203M0 335.75v1.14453m0 .33985v-6.7422m0 5.76173v.85546m0 .16407v-6.82031m0 5.82812v.30078m0 .7461v-6.9297m0 6.9297v.77343m0-1.98047v-4.51562m0 4.51562v2.40235m0-3.50781v-2.3086m0 1.97266v1.21484m0-4.16406v4.26562m0-3.64453v.51172m0-2.35937v6.71875m0-5.7422v-.86718m0-.19922v6.89844m0-6.89844v-.71875m0 1.16797v6m0-6v.14063m0-.51172v6.74219m0-6.7422V330"/><g clip-path="url(#T)"><path fill="none" stroke="#000" stroke-linecap="round" stroke-linejoin="round" stroke-miterlimit="10" stroke-width=".5" d="M0 319.50781v2.07813"/></g><path fill="none" stroke="#000" stroke-linecap="round" stroke-linejoin="round" stroke-miterlimit="10" stroke-width=".5" d="M0 319.50781v1.73047m0-1.20312v1.02343m0-1.02343v1.97656m0-3.1211v3.31641m0-2.83594v.6836m0 2.64453v-4.30078m0 4.74219v-5.1875m0 4.43359v-.30469m0 .61719v-4.30078m0 4.30078v-1.00781m0 .98437v-4.2539m0 4.2539v-1.02734m0 1.40234v-5.0039m0 5.0039v-.69922m0 1.60547v-6.8164m0 5.82421v.29297m0 .71094v-6.83984m0 6.91796v-6.99609m0 5.97656v.47657m0 .39453v-6.70313m0 6.70313v.44922m0-.35547v-6.89063m0 6.89063v1.55469m0-2.5547v1.5547m0-.51563v-6.96484m0 6.96484v1.42578m0-2.4375v.71094m0-.11328v-6.13672m0 5.24219v-.02344m0-.28125v-3.73828m0 3.19531v-.61328m0 2.48437v-6.39453m0 6.39453v.14844m0 .10156v-6.89843m0 5.89453v.77344m0 .11328v-6.66016m0 6.66016v1.78125m0-2.34766v-5.53125m0-.66797v6.86719m0-5.86719v-.79297m0-.16015v6.77343m0-6.77343v-1.6875m0 2.1289v5.89453m0-5.89453v-2.14453m0 2.47266v5.23437m0-5.23437v.58594m0 .17578v.29296m0-.4414v4.00781"/><g clip-path="url(#U)"><path fill="none" stroke="#000" stroke-linecap="round" stroke-linejoin="round" stroke-miterlimit="10" stroke-width=".5" d="M0 318.54297v1.125"/></g><g clip-path="url(#V)"><path fill="none" stroke="#000" stroke-linecap="round" stroke-linejoin="round" stroke-miterlimit="10" stroke-width=".5" d="M0 319.1289v1.1211"/></g><path fill="none" stroke="#000" stroke-linecap="round" stroke-linejoin="round" stroke-miterlimit="10" stroke-width=".5" d="M0 319.71094v1.1211"/><path fill="#00f" fill-rule="evenodd" d="M383.8164 436.57813h8.6172v-10.14454h-8.6172v10.14454"/><path fill="azure" fill-rule="evenodd" d="M385.64844 428.26563h.83203v2.82421h3.28906v-2.82421h.83203v6.48046h-.83203v-2.91406h-3.28906v2.91406h-.83203v-6.48046"/><path fill="#00f" fill-rule="evenodd" d="M219.59766 418.82813h8.61718v-10.14844h-8.61718v10.14844"/><path fill="azure" fill-rule="evenodd" d="M221.42969 410.51172h.83203v2.82422h3.28906v-2.82422h.83203v6.48047h-.83203v-2.91406h-3.28906v2.91406h-.83203v-6.48047"/><path fill="#00f" fill-rule="evenodd" d="M366.0625 401.07422h8.61719v-10.14844h-8.61719v10.14844"/><path fill="azure" fill-rule="evenodd" d="M367.89453 392.76172h.83594v2.82031h3.28515v-2.82031h.83204v6.47656h-.83204v-2.91406h-3.28515v2.91406h-.83594v-6.47656"/><path fill="#00f" fill-rule="evenodd" d="M454.82813 396.63281h8.62109v-10.14453h-8.6211v10.14453"/><path fill="azure" fill-rule="evenodd" d="M456.66406 388.32031h.83203v2.82422h3.28516v-2.82422h.83203v6.48047h-.83203v-2.91406h-3.28516v2.91406h-.83203v-6.48047"/><path fill="#00f" fill-rule="evenodd" d="M370.5 334.4961h8.6211v-10.14454H370.5v10.14453"/><path fill="azure" fill-rule="evenodd" d="M372.33203 326.1836h.83594v2.82421h3.28515v-2.82422h.83204v6.48047h-.83204V329.75h-3.28515v2.91406h-.83594v-6.48047"/><path fill="#ffffe0" fill-rule="evenodd" d="M270.7461 343.59766h22.17968v-10.19141H270.7461v10.1914"/><path fill-rule="evenodd" d="M274.2461 335.23828h.5078v6.29688h-.78515v-4.4922h-1.39063v-.55468l.5625-.0664.25-.05079.23047-.08984.20313-.14453.17187-.20703.14454-.29688.10546-.39453m4.8125 0l.23047.01953.21875.05469.20703.08984.19532.1211.1875.14844.16796.17578.3047.42187.24218.49219.17969.54687.11328.57813.03515.58984-.03515.59375-.11328.58594-.17969.55469-.24219.5-.30469.42969-.16796.17968-.1875.15235-.19532.125-.20703.08984-.21875.0586-.23047.01952-.23046-.01953-.21875-.05859-.20704-.08984-.1953-.125-.1836-.15235-.17188-.17969-.30078-.42968-.2461-.5-.17968-.55469-.10938-.58594-.03906-.59375h.83203l.03125.5664.07813.50392.1289.4414.16016.375.1914.30078.21094.22266.22266.13672.22656.04687.22657-.04687.22265-.13672.21094-.22266.1914-.30078.16016-.375.1289-.4414.08204-.50391.02734-.5664-.02734-.5586-.08203-.5-.1289-.4375-.16016-.36328-.19141-.29297-.21094-.21485-.22265-.1328-.22657-.04298-.22656.04297-.22265.13281-.21094.21485-.1914.29297-.16017.36328-.1289.4375-.07813.5-.03125.5586h-.83203l.03906-.58985.10938-.57813.17969-.54687.2461-.49219.30077-.42187.17188-.17579.1836-.14843.1953-.1211.20704-.08984.21875-.05469.23046-.01953m5.08985 0h.51172v6.29688h-.78907v-4.4922h-1.38671v-.55468l.55859-.0664.2539-.05079.23047-.08984.20313-.14453.17187-.20703.14063-.29688.10547-.39453m2.82422 2.17578h.78906l.01953-.3164.0586-.28516.09765-.2539.14063-.21485.18359-.17578.22265-.1289.26563-.07813.3086-.02735.23437.01954.22656.0625.20313.10156.17968.14062.14844.17188.11328.20703.07031.23437.02735.26563-.02344.26953-.0664.22266-.10938.1914-.15625.17188-.19922.16406-.2461.16406-.63671.39063-.53516.3125-.4375.3164-.34765.32422-.26563.33594-.1875.35156-.125.3711-.07031.39062-.01953.42188h4.21094v-.7422h-3.33204l.08204-.28515.11328-.23437.14843-.20313.1875-.17969.23047-.17187.27735-.17578.71875-.41797.41406-.20313.34765-.23046.28125-.25391.21875-.26563.16407-.27734.10937-.28515.0664-.28516.01954-.28125-.04297-.38281-.1211-.34766-.1875-.3086-.25-.26171-.30468-.21485-.34375-.15625-.3789-.09765-.40626-.03516-.4375.03125-.39843.10156-.35547.16407-.30469.23437-.2461.30469-.1875.375-.11327.44531-.04297.51953"/><path fill="#ffffe0" fill-rule="evenodd" d="M244.11719 405.86719h22.17969v-10.19531h-22.1797v10.1953"/><path fill-rule="evenodd" d="M247.61328 397.50781h.51172v6.29297h-.78906v-4.48828h-1.38672v-.55469l.5586-.0664.2539-.0547.23047-.08983.20312-.14063.17188-.21094.14062-.29297.10547-.39453m4.8164 0l.22657.01953.22266.0547.20703.08983.19531.1211.1836.14844.17187.17578.30078.41797.2461.49609.17968.54688.10938.57812.03906.58984-.03906.59375-.10938.58594-.17969.55078-.24609.5039-.30078.42579-.17188.17969-.18359.15625-.19531.1211-.20703.09374-.22266.05469-.22656.01953-.23047-.01953-.21875-.05469-.20703-.09375-.19922-.1211-.1836-.15624-.17187-.17969-.30078-.42578-.24219-.5039-.17969-.55079-.11328-.58594-.03515-.59375h.83203l.02734.5625.08203.50782.125.4414.16406.375.19141.30078.21094.22266.22266.13672.22656.04687.22656-.04687.22266-.13672.21093-.22266.19141-.30078.16016-.375.125-.4414.08203-.50782.03125-.5625-.03125-.5625-.08203-.5-.125-.43359-.16016-.36719-.1914-.29297-.21094-.21093-.22266-.13282-.22656-.04687-.22656.04687-.22266.13282-.21094.21093-.1914.29297-.16407.36719-.125.4336-.08203.5-.02734.5625h-.83203l.03515-.58985.11328-.57813.1797-.54687.24218-.4961.30078-.41796.17188-.17578.18359-.14844.19922-.1211.20703-.08984.21875-.05469.23047-.01953m5.08984 0h.51172v6.29297h-.78906v-4.48828h-1.38672v-.55469l.5586-.0664.25-.0547.23046-.08983.20313-.14063.17578-.21094.14062-.29297.10547-.39453m6.80469 1.61719h-.78516l-.05469-.21094-.07812-.1875-.10938-.15625-.1289-.13281-.14844-.10156-.16015-.07422-.16797-.04688-.17188-.01562-.32812.04297-.28516.11719-.2461.19921-.20702.26563-.16016.33984-.11328.40235-.07031.46875-.02344.52734.1875-.20313.1875-.16015.1836-.1211.1875-.08984.1875-.0586.1914-.03906.40234-.02343.30469.03125.32031.08984.3164.15625.29688.21875.2539.28516.19923.35156.07031.19922.05469.21875.02734.23437.00781.25-.78906.04688-.02734-.25781-.07813-.25-.1211-.23438-.16015-.21094-.19531-.17968-.21875-.13672-.23828-.08594-.25781-.03125-.25391.03125-.23828.08594-.22266.13672-.1914.17968-.16016.21094-.125.23438-.07422.25-.02734.2578.02734.25782.07422.2539.125.23438.16016.21094.1914.17578.22266.13672.23828.08984.2539.03125.25782-.03125.23828-.08984.21875-.13672.19531-.17578.16016-.21094.1211-.23437.07812-.2539.02734-.25782.78906-.04688-.03125.3711-.09375.3711-.15625.35937-.22265.32812-.29297.28516-.16797.11719-.1875.10156-.20703.08203-.22266.0625-.24219.03906-.26171.01172-.28125-.01563-.26172-.04687-.23828-.07422-.21485-.10547-.19531-.13281-.17188-.15625-.15625-.17969-.1328-.20312-.1172-.22266-.09765-.24219-.14844-.53515-.08594-.58985-.02734-.64062.03906-.7461.11328-.66015.1875-.57813.1211-.2578.13672-.23048.15234-.20703.17188-.17969.18359-.15625.20312-.1289.21875-.10156.23047-.07422.25-.04297.26172-.01563.36719.03125.33203.09766.29297.15234.25781.19922.21094.23828.16406.27735.11719.30078.0625.32031"/><path fill="#ffffe0" fill-rule="evenodd" d="M377.26563 417.2539h22.17968v-10.1914h-22.17969v10.1914"/><path fill-rule="evenodd" d="M380.76563 408.89844h.5078v6.29297h-.78515v-4.48829h-1.39062v-.55859l.5625-.0625.25-.05469.23046-.08984.20313-.14063.17578-.21093.14063-.29297.10546-.39453m4.8125 0l.23047.01562.21875.0586.20704.08984.19921.11719.1836.15234.17187.17578.30078.41797.2422.49219.17968.54687.11328.58204.03906.58984-.03906.59375-.11328.58203-.17969.55469-.24219.5039-.30078.42579-.17187.17968-.1836.15235-.19921.125-.20704.09375-.21875.05468-.23046.01954-.22657-.01954-.21875-.05468-.21094-.09375-.1953-.125-.1836-.15235-.17188-.17969-.30078-.42578-.2461-.5039-.17968-.55469-.10937-.58203-.03907-.59375h.83204l.03125.5625.08203.50781.125.4414.16406.375.1875.30079.21094.21875.22265.14062.22656.04688.22657-.04688.22265-.14062.21094-.21875.1914-.30078.16407-.375.125-.4414.08203-.50782.02735-.5625-.02735-.5625-.08203-.5-.125-.4336-.16406-.36718-.1914-.29297-.21095-.21485-.22265-.1289-.22656-.04688-.22657.04688-.22265.1289-.21094.21485-.1875.29297-.16406.36719-.125.43359-.08204.5-.03125.5625h-.83203l.03907-.58985.10937-.58203.17969-.54687.2461-.49219.30077-.41797.17188-.17578.1836-.15234.1953-.11719.21094-.08984.21875-.0586.22656-.01562m5.09375 0h.50782v6.29297h-.78516v-4.48829h-1.39062v-.55859l.55859-.0625.2539-.05469.23048-.08984.20312-.14063.17188-.21093.14453-.29297.10546-.39453m6.8047 1.61719h-.78907l-.05078-.21094-.08203-.1875-.10547-.15625-.13281-.13281-.14454-.10157-.16015-.07422-.16797-.04687-.17578-.01563-.32422.04297-.28906.11719-.2461.19531-.20312.26953-.16016.33985-.11719.40234-.0703.46875-.02344.52735.1914-.20313.1836-.16016.1875-.12109.18359-.08984.1875-.0625.1914-.03516.40235-.02344.3086.03125.3203.08985.31641.15625.29297.21875.2539.28515.19923.35156.07421.19922.05079.21875.03125.23438.0039.25-.78515.04687-.02735-.2578-.07812-.25-.1211-.23829-.16406-.20703-.1914-.17969-.21876-.13672-.24218-.08594-.25391-.03125-.2539.03125-.2422.08594-.21874.13672-.19532.17969-.16015.20703-.1211.23828-.07812.25-.02735.25781.02735.25782.07812.2539.1211.23438.16015.20703.19532.17969.21875.13671.24218.08985.25391.03125.2539-.03125.2422-.08985.21874-.13671.19141-.1797.16406-.20702.1211-.23438.07812-.2539.02735-.25782.78515-.04687-.03125.3711-.09375.37109-.15625.35937-.22265.32813-.28907.28125-.17187.12109-.1875.10156-.20313.08203-.22656.0625-.24219.03907-.25781.01171-.28516-.01562-.2578-.04688-.23829-.07812-.21484-.10156-.19532-.13281-.17578-.15625-.15234-.1797-.13672-.20312-.11719-.22265-.09765-.2422-.14844-.53515-.08203-.59375-.02735-.63672.03907-.74609.11328-.66406.1875-.57422.11719-.25781.13671-.23047.15625-.20703.16797-.1797.1875-.15624.20313-.1289.21484-.10157.23438-.07422.24609-.04687.26172-.01172.36719.03125.33203.09765.29687.14844.2539.19922.21485.24219.16406.27344.1172.30468.0625.32031"/></g></defs><use xlink:href="#W"/></svg>