<svg xmlns="http://www.w3.org/2000/svg" role="img" xmlns:xlink="http://www.w3.org/1999/xlink" viewBox="152.03 327.53 306.18 136.93"><defs><clipPath id="a"><path d="M144 311.67188h1v168.65625h-1zm0 0"/></clipPath><clipPath id="b"><path d="M144 311.67188h324v168.65625H144zm0 0"/></clipPath><clipPath id="c"><path d="M467 311.67188h1v168.65625h-1zm0 0"/></clipPath><clipPath><path d="M144 477h3v3.32813h-3zm0 0"/></clipPath><clipPath><path d="M155 476h4v4.32813h-4zm0 0"/></clipPath><clipPath><path d="M169 476h4v4.32813h-4zm0 0"/></clipPath><clipPath><path d="M182 476h4v4.32813h-4zm0 0"/></clipPath><clipPath><path d="M195 477h5v3.32813h-5zm0 0"/></clipPath><clipPath><path d="M208 477h5v3.32813h-5zm0 0"/></clipPath><clipPath><path d="M222 476h4v4.32813h-4zm0 0"/></clipPath><clipPath><path d="M236 476h3v4.32813h-3zm0 0"/></clipPath><clipPath><path d="M249 476h3v4.32813h-3zm0 0"/></clipPath><clipPath><path d="M263 476h2v4.32813h-2zm0 0"/></clipPath><clipPath><path d="M276 476h2v4.32813h-2zm0 0"/></clipPath><clipPath><path d="M290 476h1v4.32813h-1zm0 0"/></clipPath><clipPath><path d="M303 476h2v4.32813h-2zm0 0"/></clipPath><clipPath><path d="M316 476h2v4.32813h-2zm0 0"/></clipPath><clipPath><path d="M329 476h3v4.32813h-3zm0 0"/></clipPath><clipPath><path d="M340 478h7v2.32813h-7zm0 0"/></clipPath><clipPath><path d="M354 477h6v3.32813h-6zm0 0"/></clipPath><clipPath><path d="M367 477h6v3.32813h-6zm0 0"/></clipPath><clipPath><path d="M383 476h2v4.32813h-2zm0 0"/></clipPath><clipPath><path d="M393 479h8v1.32813h-8zm0 0"/></clipPath><clipPath><path d="M406 479h9v1.32813h-9zm0 0"/></clipPath><clipPath><path d="M406 479h3v1.32813h-3zm0 0"/></clipPath><clipPath><path d="M422 476h3v4.32813h-3zm0 0"/></clipPath><clipPath><path d="M433 478h8v2.32813h-8zm0 0"/></clipPath><clipPath><path d="M433 480h2v.32813h-2zm0 0"/></clipPath><clipPath><path d="M446 480h9v.32813h-9zm0 0"/></clipPath><clipPath><path d="M446 478h3v2.32813h-3zm0 0"/></clipPath><clipPath><path d="M459 479h9v1.32813h-9zm0 0"/></clipPath><clipPath><path d="M144 463h2v8h-2zm0 0"/></clipPath><clipPath><path d="M144 469h1v2h-1zm0 0"/></clipPath><clipPath><path d="M144 450h3v7h-3zm0 0"/></clipPath><clipPath><path d="M144 439h4v3h-4zm0 0"/></clipPath><clipPath><path d="M144 425h4v5h-4zm0 0"/></clipPath><clipPath><path d="M144 411h3v6h-3zm0 0"/></clipPath><clipPath><path d="M144 397h3v7h-3zm0 0"/></clipPath><clipPath><path d="M144 385h4v4h-4zm0 0"/></clipPath><clipPath><path d="M144 370h2v8h-2zm0 0"/></clipPath><clipPath><path d="M144 370h1v2h-1zm0 0"/></clipPath><clipPath><path d="M144 356h1v9h-1zm0 0"/></clipPath><clipPath><path d="M144 355h2v3h-2zm0 0"/></clipPath><clipPath><path d="M144 343h1v8h-1zm0 0"/></clipPath><clipPath><path d="M144 330h2v8h-2zm0 0"/></clipPath><clipPath><path d="M144 317h2v7h-2zm0 0"/></clipPath><g id="d" clip-path="url(#clip1)"><path fill="#fff" fill-opacity="0" fill-rule="evenodd" d="M-.0039-.0039h1000v1000h-1000zm0 0"/><path fill="#d3d3d3" fill-opacity="0" fill-rule="evenodd" d="M162.14844 355.86328l-.23438.29297.0586.23438.11718.17187.17578.23438.29297.34765.11328.0586.1172-.17188.05859-.23438.17578-.17578.46484-.17578h.69922l.23438.29297.28906.8164.0586.17579.17577.23047.35156.23437.69922.69922.17188.17578.23437.34766.23438.41015.28906.58204.41016.46484.23047.23438.23437.17578.11719.23046.17578.29297.17188 1.16407v.23437l.05859.28906.0586.1172.11718.11718.34766.41015.11718.17188.17578.17578.17579.23438.11718.17187.17188.35156.0586.23438.23437.40625.23437-.0586-.17578.17579-.0586.92968h-.58202l-.23438-.11328-.34766.11328-.11718.1172-.0586.29296-.05859.17578-.11719.17188-.46484.29296-.0586.23438-.05859.11328v.64453l.0586.17188v.41015l.05859.0586v.40625l.0586.40625.11718.17578.0586.0586.23046.64062-.0586.29297v.69921l-.05858.58204v.23437l-.0586.23047-.05469.35156v1.92188l.0547.11719h.42577l-.36719.11718-.02343.35156.89062 1.16797 1.74219.53907 1.33984.35937v.53906l.08985.8086.53515.71484 1.51953.26953.89063-.08594.08984 1.16407.53516.17969 1.16016-.1797 2.05468-.98437 1.16016-.36328 1.8789-.17578 1.69532-.17969-.17969.71875-1.51562.08594-1.25.08984-.8047.26954-1.07421.80859.26953.71875.53516.89844-.17969.625-.26563.80859.26563 1.07813.625.89843.80469.17969 1.25-.17969-.26563.72266.09766.5039.05469.29297v.17188l.05859.29297v.40625l.17578.11719.35156.11718h.40625l.29297-.17578.11328-.11719.0586-.11718.11719-.23047.05859-.17578.35156-.46485.23047-.17578.17578-.0586.17578.0586.0586.17578.11718.98828.0547.46875.05858.17188.1172.23437.17577.0586.81641.0586h.28906l.11719.23437.0586.40625.05859.35156v1.10547l.11719.29297.11718.34765.28906.69922.17579.35156.58203.75391.35156.17578.17188.0586.46875.23437.64062.46484.34766.23438.29297.17578.29296.05469.23047.0625.8164.34765.29298.17579.11328.17187.35156.35156.11719.17578.52344.64063v.28906l.05859.35156v.34766l.0586.35156.05859.28906.11719.0586.17187.0586h.17578l.58203.23437.17578.11719.17578.28906.17579.23437.11328.23438.29297.23047.11718.11718v.41016l.0586.05469.28906.23437.23438.11719.05859.11719.11719.17187.05859.11719.23047.23438.0586.17578.23437.05859.11719.0586-.1172.11327-.05859.1172v.11718l-.11718.29297-.1172.28906v.58203l.17579.11719.11719.0586.0586.11718.11718.11719.11328.0586.17578.34765.0586.35156.05859.40625v.17578l-.0586.17578-.11718.69922v.17188l.11719.17578.29296.29297h.40625l.17578.11719.1172.17187.11718.29297v.23437h-.52734l-.23047-.23437h-.23438l-.17578.0586-.0586.69921.0586.34766.11719.17578.17578.41015.11719.23047.28906.46875.17578.0547h.52344l.23437.05858.75782.64063.05859.29297v.23437l.0586.0586.23046.34765v.35157l-.11719.17187v.29297l.29297.28906.29297.17578.17188.0586.29297.17578.29297.11719.58203.40625.28906.23437.29297.17578.21875.16016.01562.01172.23047.17578.64063.52344.17578.23437.11719.17578.17578.17578.11328.17188v.64062l.11719.17579.46875.11718.58203.11719.23437.0586.23047.11327.29297.1172.11328.05859.58594.35156.28906.17187.17578.0625.17578.0547.17578.05858.69922.35157.28906.17578.23438.05469.28906.17578.23438.11719.64062.40625.29297.11718.17188.0586.23437.05859.41016.0586.23047.05859.23437.11719.0586.17187-.41016.17578.46875.0586.0586.29296.11327.23438.17578.05469.23438.05859.17578.0586.40625.11718.64063.23438.11718.17187.0586.23438v.17578l-.0586.11719-.05859.40625.23438.23437.11718.0586.34766.11718.64062.23047.17578.11719.28907.11719.17578.17578.23437.46484.58203 1.10547.17579.17578.34765.17578.17578.11719.35157.11719 1.04687.52343.23438.0586.46484.11328.29297.0586.46484.17577.75781.58204.23438.23437.34766.46484.17578.17579.28906.23437.8164.69922.29298.17578.28906.28906.29297.17578.29297.28907.6953.64062.17579.17578.29297.23438.28906.23437.46875.28906.64063.58204.34765.23437.23438.29297.34765.34766.35156.46484.9336.99219.34766.40625.11718.17578.23438.0586.11328.11718.64453.17578.23047.11328.23437.0586.29297.17578.23047.11719.9336.69921.40625.40625.23437.17579.40625.17578.23438.11718.8164.34766.34766.23438.23437.11718.29297.28906.23047.1172.75781.35156.35156.17187.23047.0586.29297.11718.23438.0586.8711.17578h.8164l.46875.23046.17187.0586.875.69922.46485.11719.29297.05859.17578.0586.23047.05859.46875.05859.34765.0586.35156.05859.40625.0586h.29297l.17188.05858v.23047l.17578.17579h.29297l.34765.05859.35157.0586.69922.11718h.64062l.46484-.23438.29297-.17578.17188-.11718.41015-.17188.28907-.17578.93359-.46484.46875-.29297.52344-.29297.46484-.17188.46484-.17578 1.05079-.46484.28906-.11719.41016-.11719.28906-.11718.52734-.17579 1.51563-.69921.58203-.34766.28906-.0586.29297-.05859.34766-.11719.875-.23046.35156-.1172h.11328l.23437-.05858.875-.23438.23438-.0586h.8125l.35156-.05859.8164-.11719.17188-.05859.35156-.05469.29297-.05859.23047-.0586.8164-.17577.17579-.0586h.34766l.23437-.0586.46485-.11718.7578-.17188.23438-.05859h.34766l.41015-.11719.28907-.05859 1.28515-.0586h.28907l.41015-.05859.23047-.0586h.17578l.875-.11718h.40625l.41016-.11719h.34765l.35157-.11328.8711-.0586h1.75l1.04687.28907.41015.11719.28906.11719.35157.11718.28906.1172 1.05078.17187.28906.05859h.29297l.29297.0586.17188.05859.41015.0586.17188.05858.11719.0586h.11718l.11719.0586.35156.05859h.11328l.41016.0664 1.92188.39453 1.92578.39454 1.51953.44921 1.69531.71875 2.14453.8047 1.60547-.71876 1.42969-.80469 1.16015-1.07812 1.25-.44922 3.03516-.71875 1.875-.35938 2.14453-1.34765 2.23438-1.2539 2.5-1.25782 1.6953-.44922 1.78517-.17969 1.16015-.26953.625.53906 1.33985-.26953.71484-.98828.98437-1.34375.44532-.17969.80468-.35937 1.875-.53906 1.78516-.44922 1.25-.26953 1.16016-.08985 1.69921-.08984 1.96094-.26953 1.25-.08985h.53906l.625-.08984h.89063l2.14453-.17969 2.41016-.17968 2.58984-.08985 1.69531.17969 1.60938.08984 1.42969.35938 1.16015.71875 1.875.98828 1.16016 1.52734.26562.71485.62891.08984.35547.89844.53515.53906.53516 1.52735 1.07422.35937h.53516l-.8047.53516.08985 1.70703.71485 2.69531.89062.80469.89453.98828.71485 1.25781 1.78515.53906 1.51953-.17968.35547 1.34375 1.60938-.8047.98047-.53905.26953.26953.3164-.21485.21875-.14453.80079.44922.44921-.35937h.35547l.53516-.26954.53906-.71875.53516-.26953.625-.98828 1.16015.44922.83985.3711 1.39453.61718 1.69531-.17969h1.60547l1.78516.08985.17968-1.70703.53516-1.34375.80469.26953.49219.84765.40234.40625-.08985.53907v.35937l.71485.44922.71094-.26953h1.42968l.35938.98828.44531 1.25781.71485 1.34375 1.25.62891 1.6953.6289.71485-.17968.17969-.53906.98047-.08985.44922.35938.08593 1.25781-.26562.6289-.53516.1797v.53906l.71485.98437.26562.53906.98438.98829.80078 1.07812-.26563.35938-.08984.89843-.625 2.33203-.35547 2.06641-.08984 1.79297-.1797.71875-.08983.53906v1.4375l-.98047 1.88281-.35938 1.70704-.53515.89843-.8047 1.16797-.26562.53906 2.05469 1.25391.08594.35938-.35547.53906-.08985-.17969v.8086l.08985 1.4375-.44531.71484-1.07422.09375-.26563.71484.53516.89844.80469.71875 1.16015.8086 1.33985.26952.4453.35938-.35546.44922-1.78906-.08985-1.25-.44921-.71485-.71875-.625-.08985-.17578 3.58985-.1875 1.30859h89.35938V311.69922h-55.26953v49.08203l.76171.125 3.28907.54297 2.02344 2.83594v2.7539l2.35156.33203 2.34765.33204h4.05079l-1.37891 4.16015-2.02344.70703-2.02344.70313-.54296.34375-2.59375 1.61719-.1875.11718-2.02344-2.07812-.73047-2.74219-2.67188-2.07813-1.375-3.5-.0664-.08203-1.95703-2.67187 2.75-1.41797v-49.08203h-118.2422v91.41406l.1172.03125.1328.01172.07423.07422.10547.04687.08984.0586.08594.0586.08984.05858.29688.29688.05859.08984.03125.1172.02734.11718.01563.13672-.03125.11719-.0586.08984-.05859.08594-.04297.10546-.04687.10157-.02735.1211v.14452l.17579.26953.14843.14844.07422.08594.07422.07422.04297.10547.0625.08984.0586.08594.04296.10547.0586.08984.04687.10156.04297.10547.0586.08594.11718.17969.07422.07421.0625.08594.0586.08985.04296.10546.0586.08985.05859.08594.0625.08984.0586.08984.04296.10157.11719.17968.07422.07422.0586.08594.07421.07422.08984.0586.10547.04687h.14844l.13281-.01563.13281.01563.10157-.04688.07422-.07422.04687-.10156-.01562-.13281v-.14844l-.04688-.10547-.02734-.11719-.04688-.10156-.02734-.1211-.04297-.10155-.0625-.08985-.04297-.10156-.04297-.10547-.03125-.11719-.01562-.1328-.01172-.13673.08594-.0586.05859-.08593.1211-.03125.04296.10547.01563.13281v.11719l.0586.10156.05858.08985.08985.05859.14844.14844.05859.08984.04297.10547-.01172.10156.08594.0586.10547.04687.08593.0586.08985.05859.07422.07422-.1172.02734-.10546.04688-.08594.05859-.07422.07422-.05859.08984-.0625.08594-.02734.1211-.04688.10156-.04297.10546-.03125.1172-.01172.1328-.01562.13282v.14844l.02734.11718.04688.10547.04297.10156.05859.08985.07422.07422.08984.05859.07422.07422.08985.0586.05859.08984.04297.10546.04687.10157.11719.03125.13281.01562h.14844l.11719-.03125.10547.04297.04296.10547.04688.10156.02734.1211.03125.11718.02735.1172.03125.12108.02734.1172.10547.04296.10156.04688.13281-.01563.14844.14844.0625.08594.07422.07421.07031.07422.08985.0625.10547.04297.10156.04297.11719.03125.13671.01563.1172-.03125.07421-.07422.02735-.11719-.01172-.13281-.03125-.1211-.02735-.11718.04297-.10547h.11719l.08984.0625.11719.02734h.14844l.13281.01563h.14844l.13281.01562.13281-.01562h.14844l.13281-.01563.13281-.01172.13672.01172.1172-.02734.1328-.01563.19141-.0586-.0586.17579-.01562.13281-.02734.1211-.01563.1328-.0586.08595-.1328.01562-.10547.04688-.10547.04296-.11719.03125-.11719.02735-.26562.03125h-.14844l-.13281.01562-.07422.07422.0586.08594.14843.14844.11719.17969.07422.0703.08984.0625.08985.0586.08593.0586.08985.05859.10156.04297.10547.0625.10547.04297.08593.05859.10547.04688.10156.04296.1797.1172.05859.08983-.04297.10157-.04688.10547.01563.1328.22265.22267.0586.08984.04297.10156.03125.1211.04296.10156.01563.13281.03125.11719.01172.13672.03125.11718.14844.14844.10156.04297.10547.04297.11719.03125.1328.01562.13673.01563h.11718l.1172-.03125.08983-.0586.04297-.10546.04688-.10157.04297-.10546.03125-.1172.01172-.1328v-.14844l-.01172-.13281-.01563-.13282-.03125-.11719-.04297-.10546-.04687-.10547-.04297-.10156-.04297-.10547-.01562-.13282.01562-.1328.02735-.1172.03125-.11718.02734-.1211.04687-.10156.08985-.0586.08594-.0625.07421-.07421.08985-.0586.22265-.22265.0586-.08594.07422-.07422.11718-.17969.0586-.08593v-.14844l-.07422-.07422-.10156-.04688-.10547-.04296-.10156-.04297-.0586-.08985-.04687-.10546-.02735-.1172.08985-.05859.11718-.03125.10157-.04296.17968-.1172.14844-.14843.01172-.13281-.01172-.10547-.08984-.0586-.13281.01563h-.14844l-.13281.01563-.13282-.01563-.1211-.03125-.08593-.0586-.07422-.07421-.0586-.08985-.0625-.08593-.11718-.1797-.0586-.08593.03126-.1211.08594-.05859.12109-.03125.0586-.08593v-.1211l-.03126-.11719-.0586-.08984-.05858-.08594-.04688-.10546-.02734-.1172-.01563-.1328.0586-.08985.07421-.07422.08985-.0586.11719-.17968.07421-.07422.0586-.08594.14844-.14843.12109-.03125.13281-.01563.13281.01563.07422.07422.04297.10546.01563.13282-.03125.11719-.1172.03125-.1328.01171-.14844.14844-.04297.10547-.04688.10156-.02734.1211-.03125.11718v.14844l.03125.11719.04297.10547.0586.08984.07421.07031.07422.07422.11719.03125.1211.02735.11718-.02735.13281-.01562h.11719l.08984.0586.07422.07421.04688.10547.0586.08594.10155.04687.13282.01563.10546.04296.08594.0586-.01172.10547-.07421.07422-.1797.11718-.05859.08985-.08984.0586-.07031.07421-.07422.07422-.0625.08984-.02735.11719-.01562.13281.01563.13281-.01563.13282v.14844l.01563.1328.02734.1172.03125.12109.07422.07422.08984.0586.08594.05858.08984.0586.11719.03125v.08594l-.10156.04687-.08985.0586-.26562.03125-.11719.02734h-.14844l-.10546.04297-.10157.04687-.0586.08985-.0625.23437-.01171.13281-.03125.1211-.01563.13281v.29297l-.01171.13281.01171.13672.01563.13281.13281.01563.13281.01172.1211.03125.08594.05859.07421.07422.04688.10547.04297.10156.01562.13281v.44531l-.01562.13282v.44531l.03125.26563.02734.11718.01563.13281.03125.1172.08594.21093.03125.26563v.14843l-.03125.11719-.02735.11719-.03125.1211-.02734.11718-.03125.11719-.03125.12109-.01172.13281-.01563.13281.08985.0586.11719-.03125.10156.01562.04687.10547-.03125.26563v.4414l-.04297.10547-.04687.10547-.04297.10156-.04297.10547-.0586.08594-.03124.1211-.04297.11718-.03125.11719-.01563.13281.01563.13281.0586.08985.10546.04687.08594.0586.0586.08593-.01173.13672-.03125.11719-.04296.10156v.44531l-.01563.13282v.14844l-.03125.11718-.04297.10547-.02734.11719-.04688.10547-.04297.10156-.03125.1211-.02734.11718-.03125.13281-.03125.1172-.02734.11718-.04297.10547-.03125.11719-.03125.12109-.01172.13281-.01563.13281v.29688l.02735.11719v.14843l.04687.39844.02735.11719.05859.08984.1211.03125h.14843l.13281-.01562.0586.08984v.11719l-.0586.08984-.08984.0586-.10156.04296-.10547.04688-.08985.0586-.08593.05859-.13672.01562-.11719-.03125-.13281-.01562-.10156.04687-.0625.08594-.01172.13672-.01563.13281-.03125.11719-.02734.11719-.01563.1328-.03125.1211v.29688l.01563.13281.03125.11719v.14844l.01172.1328v.14844l-.02735.1172-.04687.10156-.02735.12109-.03125.11719-.05859.08984-.07422.07422-.10156.04297-.10547.04687-.11719.02735-.12109.03125-.10156-.04688.0586-.08594.10546-.04687.02734-.11719.03125-.11719.02735-.12109.03125-.11719v-.14844l.01562-.1328-.03125-.1172-.04297-.10546-.10546.01562-.07422.07422-.10157.04297-.08984.0625-.07422.07422-.04297.10156-.01562.13281-.03125.11719-.02735.1211-.03125.11718-.02734.11719-.03125.1211-.02734.11718-.03125.11719-.04297.10547-.08985.05859h-.08984l-.11719-.03125-.03125-.08594.01563-.13672-.03125-.11718v-.14844l-.01172-.13281v-.14844l-.0625-.23438-.02735-.12109-.04296-.10156-.04688-.10547-.0586-.08594-.05859-.08984-.04296-.10547-.0625-.08594-.14844-.14844-.07031-.07421-.10547-.04688-.10547-.04297-.10156-.04297-.29688-.29687-.08984-.07422-.08594-.0586-.10547-.04296-.08984-.0625-.08594-.0586-.10547-.04297-.08984-.05859-.08594-.0625-.07422-.07031-.10547-.04688-.08594-.0586-.10546-.04296-.08985-.0625-.10156-.04297-.10547-.04297-.08594-.0586-.10547-.04687-.10546-.04296-.10157-.04688-.08984-.0586-.10156-.04296-.10547-.04297-.08985-.0625-.11718-.02735-.13282-.01562-.1328.01563h-.14845l-.1328.01562-.1172-.03125-.08984-.0586-.07422-.07421-.08984-.0586-.10156-.04687h-.14844l-.1211-.02735-.10156-.04296-.07422-.07422-.11719-.17969-.08984-.0586-.10156-.04296-.08985-.0625-.10546-.04297-.08985-.0586-.08594-.05859-.10546-.04687-.0586-.08594-.0586-.08985-.04296-.10546-.04688-.10157-.07421-.07421-.08594-.0586-.07422-.07422-.08984-.0586-.22266-.22265-.04297-.10547-.03125-.26562.10547-.04297h.14453l.10547.04297.07422.07422.08984.0586.08594.05858.10547.04688.08984.0586.14844.14843.07031.07422.14844.14844.0625.08594.07422.07421.08594.0586.07421.07422.08985.0625.08984.05859.08594.0586.26953.17577.10156.04688.10547.04297.10156.04297.04688-.07422.0586-.08594.07421-.07422.07031-.07422.10547.04297.07422.07422.0586.08985.04296.10156.04688.10547.04297.10546.1211.02735.11718-.02735.07422-.08984.04297-.10547.0586-.08984.07421-.07422.10547-.04297.11719-.02734.1328.01172.08985.05859.14844.14844.0586.08984.04296.10547.04688.10156.04297.10547.04296.10156.10547.04688.10547.04297.13281.01562.08594-.0586.0586-.08983.07421-.07422.10547-.04297.1172.02734.10546.04688.10156.04296.10547.04297.10156.04688.1797.11719v.11718l-.01563.13282.01562.1328.01563.13673.05859.08594.10156.04687.1211.02734.11718.03125h.14844l.11719-.03125.0586-.08984.17968-.11719.0586-.08984.07421-.07422.0586-.08594.11718-.17969.1797-.11718.11718.03125.08984.0586.04297.07421-.01562.13281v.11719l.08984.0586h.14844l.13281-.01563.13281-.01172.26563-.03125.10547-.04297.11718-.03125.1211-.02734.07422-.07422.0703-.07422.0625-.08984-.01562-.10547-.04687-.10156-.10156-.04297-.10547-.01563-.11719.02735-.26563.03125h-.14843l-.07422-.07422-.08985-.0586-.11718-.03125-.11719-.02734-.13281-.01563h-.14844l-.13281.01563h-.29688l-.10547-.04688-.14843-.14843-.04297-.10157-.0586-.08984.22266-.22266.08594-.05859.10547-.04297.11718-.03125.13282-.01562.1328.01562.13673.01563.10156.04296.13281-.01171.08985-.0625.10156-.04297.0625-.08985-.04688-.10156-.08984-.0586-.11719-.03124-.10156-.04297-.0586-.08985-.0625-.08984v-.11719l.01563-.1328.10547-.04688.07422-.07032v-.12109l-.08985-.0586-.03125-.11718.08985-.0586.07422-.07421.04297-.10547.05859-.08985.04688-.10156.01562-.13281v-.14844l-.04688-.10547-.04296-.10156-.08985-.0586-.13281-.01562-.10156-.04297-.13672-.01562-.11719-.03125h-.44531l-.13281-.01563-.13282-.01172-.1328-.01562-.1172-.03125h-.14843l-.13282-.01563-.1328-.01171-.26563-.03125-.1211-.04297-.08594-.0586-.07421-.07422v-.14843l.01171-.13282.10547-.04687.10157-.04297.1328-.01563h.15235l.13281-.01562h.29297l.1211.03125.10156.04297.08984.0586.23438.0625.1211-.04688.08984-.0586.10156-.04296.13281-.01563.10547.04297.10156.04687.13281.01172.1211-.02734h.14453l.1211-.03125.11718-.02735.10547-.04687.07422-.07422.08594-.0586.14843-.14843.0586-.08594.04687-.10547.02735-.11718.01562-.10547-.10156-.04297-.08985-.0586-.11718-.03125-.10547-.04296-.08985-.0625-.07421-.08594-.07422-.07422-.10156-.04297-.10547-.04687-.10157-.04297-.05859-.08985-.04688-.10156-.08593-.21094-.0625-.08593-.0586-.08985-.07421-.07422-.08594-.05859h-.26953l-.1172.03125-.08983.0586-.10157.04296-.13281.01563-.10547-.01563-.02734-.11719-.0625-.08984-.11719-.03125-.10156-.04297-.14844-.14844-.03125-.11718-.01563-.10547.07422-.07422.1797-.11719.11718-.02734.11719-.03125.13671.01562.10157.04297.10547.04297.10156.04688.10547.04296.11719.03125.1328.01563.1172.02734.1328.01563.10548-.01563.08984-.05859-.07422-.07422-.10547-.04297-.07422-.07422-.07421-.08984-.14844-.14844-.08594-.0586-.08984-.05858-.07422-.07422-.08985-.0586-.10156-.04687-.1211-.02735-.10156-.04687-.10546-.04297-.1172-.03125-.10155-.04297-.1211-.03125h-.14844l-.11718.03125-.10547.04297-.08594.0625-.17969.11719-.08593.0586-.08985.05858-.10547.04688-.08593.0586-.10547.04296-.10156.04297-.10547.04688-.07422.07421-.0586.08985-.05859.08594-.04688.10546-.05859.08594-.07422.07422-.13281-.01172-.11719-.03125h-.11719l-.07421.07422-.08985.0586-.07422.07421-.08984.0586-.08594.0586-.10547.04687-.10156.04296-.13672.01563-.10156-.04297-.14844-.14844-.10547-.04687h-.08593l-.10547.04687-.10156.04297-.1211.03125-.11719-.03125-.07421-.07422v-.11718l.03125-.1211.07421-.07031.0586-.08984.07422-.07422.11718-.03125.10547-.04297h.29297l.13281-.01563.13672-.01562.10156-.04297.08985-.0586.10156-.04687.08985-.0586.1328-.01171.08985.0586.13281.01171.08985-.0586.08594-.05859.10546-.04296.08985-.0586.08594-.0625.08984-.0586.14844-.14843.05859-.08594.0586-.08984.10546-.04297.13281-.01563.1172.02735.12109.03125.05859-.0586.0586-.08984.03124-.26562.02735-.1172.10547.01173.1328.01562.10157-.04297.08985-.05859.05859-.08984.07422-.07422.0586-.08985.04687-.10156.01171-.13281-.01171-.13281-.04688-.10547-.14844-.14844-.05859-.08984-.0586-.08594-.04296-.10547v-.44531l.01562-.13281v-.14844l.01172-.13281-.0586-.0586-.08984.0586-.10156-.04297-.17969-.1172-.08593-.05858-.0625-.08985-.0586-.08984-.07422-.07422-.08593-.0586-.1211.03125-.10156.01172-.10547.04688-.08594.0586-.10546.04296-.14844.14844-.08985.0586-.08593.05859-.08985.0625-.10547.04296-.1328.01563v-.1211l.10546-.04296.11719-.03125.07422-.07031.04296-.10547v-.14844l-.02734-.11719-.14844-.14844-.1328-.01562h-.14845l-.11718.03125-.10547.04297-.10156.04297-.08985.0625-.11719.02734-.07421-.07422.01171-.13281-.04296-.10156-.04297-.10547-.08985-.0586-.11719.02735-.12109.03125-.11719.03125-.10156.04297-.1211.03125-.10156.04296-.10546.04297-.08985.0586-.10156.01562v-.11719l.01563-.1328-.0586-.08985-.07422.04297-.14844.14844-.05859.08984-.07422.07422-.04687.10547-.04297.10156-.07422.07422-.0586.08984-.07421.07422-.0586.08594-.07421.07422-.08985.0625-.07422.0703-.07422.07423-.10156.01562-.13281.01563-.10547-.04297v-.1211l.14844-.14843.04297-.10156.05859-.08985.04688-.10156.04296-.10547.0586-.08984.03125-.1172.04297-.10155.03125-.1211.02734-.11719.04688-.10546.04296-.10157.04297-.10546.07422-.07032.08985-.0625.08984-.0586.10156-.04296h.29688l.26562-.03125.10547-.04297-.07422-.07422-.11719-.03125-.10546-.04297-.08985-.05859-.10156-.04688-.08985-.05859-.10156-.04297-.10547-.04297-.08984-.0625-.08594-.05859-.10547-.04297-.10156-.04297-.1211-.03125-.11718-.03125-.10156-.04297-.1211-.03125-.10156-.04296-.08984-.0586-.04297-.10547-.01563-.13281.10157-.04297.1328-.01562.13673.01562.13281-.01562.10156-.04297.0586-.08985.01562-.10546-.08984-.0586-.07422-.07422-.10156-.04297-.08985-.05859-.14844-.14844-.04296-.10547-.01563-.1328v-.29298l-.0586-.08984-.08984-.0586-.07421-.07421-.04297-.10547-.03125-.11719-.0586-.08984-.07422-.07422-.11718-.02735-.07422-.07421-.08985-.0586-.08984-.0625-.08594-.0586-.07422-.07421-.05859-.08594-.04688-.10547-.08593-.0586-.14844-.14843-.19531-.0586-.13281.01563-.10157.04297-.07422.07422-.04687.10156-.04297.10547-.0586.08985-.05859.08593-.29687.29688-.08985.0586h-.08593l-.0625-.08595-.04297-.10546.03125-.1172.0586-.08984.02733-.11718-.01171-.13282-.08985-.0625-.10547.04688-.11718.02734-.1172.03125-.26952.17578-.10156.04688-.1172.02734-.10546.04688-.08985.0586-.10156.04296-.0586-.08594-.04687-.10547.01563-.1328.04687-.10548.07032-.07422.07421-.0703.0586-.08985v-.14844l-.04297-.10547h-.23828l-.10156.04688-.03125.11718-.02735.1172-.03125.12108-.07422.04297-.1328.01563-.07423-.04688-.04297-.10156-.04296-.10547-.04688-.10156-.04297-.10547-.1211.03125-.10156.04297-.1328.01563-.1172.03125-.10546.04296-.08985.0586-.10156.04687-.1211.02735-.1328.01562-.10157-.04297-.0586-.08984-.04687-.10547-.04297-.10156-.04296-.10547v-.11719l.05859-.08984.08594-.0586.17968-.11718.10157-.04688.10546-.04297.10547-.0586.10157-.04296.08984-.0625.10156-.04297.10547-.0586.10156-.04687.08985-.0586.10547-.04296.10156-.04297.08984-.0625.10156-.04297.13672-.01562.1172.03125.10155.04297.1211.03125.10156.04296.10547.04688.10156.04297.10547.04297.10156.04687.10547.04297.10156.04297.10547.04688.08594.05859.10547.04297.11719.03125.10546.04297.10157.04687.08984.0586.10547.04296.10156.04297.10547.04688.11719.02734.10156.04688.1211.02734h.14843l.08594-.0586.01563-.10156.05859-.08984-.02735-.11719-.07421-.07422-.1172-.17968-.07421-.07422-.08984-.07422-.1797-.11719-.08593-.0586-.10547-.04296-.10156-.04688-.26953-.17578-.0586-.08984-.07421-.07422-.0586-.08984-.04297-.10157-.03125-.11718-.01562-.13672v-.5625l-.01172-.13281-.01563-.13282-.03125-.11719-.01562-.1328-.01172-.13282-.03125-.1211-.22265-.22265-.0586-.08594-.01562-.10547.03125-.11718.1328-.01563v-91.41406H172.98829v1.45312l-.0586.23438-.35155 1.05078-.17188.52344-.11719.34765-.17578.41016-.11719.17188-.23437.29296-.23047.0586h-.35156l-.11719.0586-.23047.40624V317l.11719.17578.23047.23047.11719.23438.64062.7578.29297.46485.17578.23438.23047.35156.23437.34765.64063.81641.17578.46485.17188.41015.11718.69531.17578.46875.1172 1.39844.05858.46485v.875l.1172 1.04687v4.78125l-.0586.46484-.35156 1.28125-.17578.52344-.11329.41016-.35156.92969-.46484 1.16796-.23438.58204-.11719.17578-.17187.34765-.17578.40625-.35156.8164-.0586.29298-.11328.29297-.11719.28906-.05859.17578-.11719.875-.0586.40625-.05858.11719-.0586.17578-.0586.17187-.23046.52735-.11719.17187v.23438l-.11719.23437-.05859.17188-.17578.58594v.28906l-.0586.17578v.29297l-.05859.11328-.0586.52734v.17188l-.05468.23437v2.6211l-.17578.8164-.11719.17578-.17578.23438-.11719.17187-.11328.23438-.58594.9336-.23047.28906-.29296.46484-.17578.23437-.28907.35157-.35156.69921-.11328.23047-.17578.41016-.17578.23047-.40625.52734-.81641.69922-.29297.17188-.28906.23437-.17578.11719-.17578.17578-.52344.40625-.52734.17578-.17188.17578-.23438.05469-.64062.17578h-.75781m12.21094 31.02344l-1.07422.44922.35937.89453 1.25-.71485.44531-.53906-.98047-.08984"/><path fill="#d3d3d3" fill-opacity="0" fill-rule="evenodd" d="M201.5039 416.59375h-.89452l.44921.6289.98047.35938.80469-.08984.44531-.98828-.17578.08984-.71484-.35547-.89453.35547M356.125 475.66406l-.0586-.52344v-.29296l.11329-.29297.0586-.23047.46874-.46875h.11328l.11719-.11328.11719-.0586h.17578l.23437-.05859h.34766l.23438.0586.11718.05859.23047.17187.0586.17578.11718.58204v.29296l-.11719.17579-.17187.28906-.17578.17578-.52735.52344-.23046.23437-.1172.0586h-.17577l-.11719-.0586-.40625-.29297-.17578-.11719-.11719-.05859-.0586-.11328-.05468-.11719m6.64063-10.95703l-.0586-.17187v-1.10938l.0586-.17187.17578-.0586.17187-.0586h.17578l.23438-.05858.11719.05859.05859.69922-.0586.17187-.11718.17578-.11719.0586-.23438.52344-.11328.05859h-.23437l-.0586-.11719m9.61329-14.39062l-.1172-.17579v-.69921l.29298-.875.11719-.17188.17578-.35156.11328-.23047.11719-.29297.35156-.75781.11719-.23047.17187-.23438h.17578l.11719-.05859h.64062l.1172.0586.23437.23437.17187.11328.35156.29297.1172.11719.11327.17578v.11328l.11719.0586.11719.11718v.69922l-.0586.17578v.23047l-.05859.17578-.34766 1.05078-.11718.23047-.1172.23438-.11718.05859-.23047.23438-.64062.28906h-.875l-.41016-.11719-.64062-.46484"/><g clip-path="url(#a)"><path fill="#fff" fill-opacity="0" fill-rule="evenodd" d="M143.9961 475.88672v4.4375H144h-.0039V311.66797H144h-.0039v164.21875"/></g><g clip-path="url(#b)"><path fill="#fff" fill-opacity="0" fill-rule="evenodd" d="M144 480.32422V311.66797h57.69531v71.34765l-4.4375 3.37891-.72265.72656-1.07032 4.4375.84375 4.4375-3.49218 1.30079-2.41407-1.30079-2.02343-1.91406-1.50782-2.52344-2.92968-2.92578-3.25 2.92578-1.1875.77344-4.44141 1.30469-2.33594 2.35937-2.10156 3.13672-1.29688 1.30078 1.29688 2.39454 4.4375 1.8828.4336.16016-.4336.09375-4.4375.47266-3.90234 3.875-.53516.58203-4.4375 2.39453-1.80078 1.46094-2.63672 2.02344-2.79297 2.41406-1.0586 4.4375.6211 4.4414 3.23047 3.5625 4.4375.48438 2.91797.39063 1.51953.96875 3.54688 3.46875.89062.82812 4.4375 2.4961 4.4414.625 4.4375.22265 4.4375-.08984 4.4375-1.71094 3.16798-2.3711 1.27343-.73046 4.4375-1.78516 3.46485-1.92187.97265-.14454 4.4375-.79296 4.4414-1.0625 4.4375-.60547 4.4375 1.63281 2.71095.97266 1.72656.96875 1.0625-.96875 2.29297-4.4375-3.35547-1.57813-4.4375-1.77344-4.4375-.1875-.21484-.90234-.95313-4.4375.30078-4.4375-.41406-4.4375-3.15625-1.89063-1.21484-2.55078.77343-4.4375-1.97265-4.4375-2.02735-2.02734-4.4375-.58984-1.67969-1.82032-.55468-4.4375-2.20313-4.10546v-71.34766h26.6289v64.51562l-2.39062 2.0586 2.39063 2.76953 4.05469-2.76953-4.0547-2.0586v-64.51562h44.38282V435.5078l-2.47656.4336-1.96094 2.77734-.96484 1.66016.96484.34765 3.09375-.34765 1.34375-.75782 1.36328-3.67968-1.36328-.4336V311.66797h4.4414v60.40234l-2.10546 1.73438-.96094 4.4375 3.0664 1.9414 3.48438-1.9414-.39844-4.4375-3.08593-1.73438v-60.40234h71.01172v90.39844l-4.4375.99218-1.84766 1.8125 1.84766 1.60547 4.4375.07813 4.4375-1.54688.11718-.13672-.11718-.11718-4.4375-2.6875v-90.39844h22.1914v98.60547l-3.1211 3.47656-1.3164 1.32031-4.4375 1.55078-1.85156 1.56641 1.85156 2.41016 4.4375 1.07812 2.07813.94922-2.07813 3.33594-.77734 1.10547-2.49219 4.4375-1.16797 1.77343-2.4414 2.66407-1.9961 1.97265-4.4414-.77344-4.4375-.72656-4.4375.65235-.67188 3.3125.67188 2.08203 4.4375 2.30078.28515.05469 4.15235 2.54296 4.4414.90235 4.4375.33594 4.4375-.03516 2.67969.69531 1.75781 1.7461 1.7539-1.7461 2.6836-.67969 2.13672.6797 2.30469 2.49218 2.29297-2.49219-2.29297-2.33984-.66406-2.10156.28906-4.4375.375-.58594 4.4375-2.41797 1.48047-1.4336 2.95703-.90234 4.4375-.92969 4.4375-.51171v24.01953l-2.64063.51562 2.64063.47656.4961-.47656-.4961-.51562v-24.01953l4.4414-1.87891 1.44922-.21484 1.59375-4.4375-3.04296-4.03125-4.44141 2.02343-3.29297 2.00782-1.14453.76171-1.09375-.76171-3.34375-1.92188-2.21875 1.92188-2.21875.82421-2.14063-.82421-.11328-4.44141-1.3086-4.4375-.875-1.71484-.51171-2.72266-3.92969-2.60156-4.4375-.875v-98.60547h13.3164v85.67578l-3.1289 3.08984-.71484 4.4375 3.84375 2.64063 4.4375.1836 2.70703-2.82423-1.47656-4.4375-1.23047-1.23828-4.4375-1.85156v-85.67578h17.7539v71.1875l-4.4414 1.34375-2.92188 2.92187 2.92188 3.3086 4.4414.77344 4.4375-1.50782 2.25391 1.86328 2.1836 2.48047 2.44921 1.95703-2.44921.85938-3.44922 3.57812 3.44921 3.4961 4.4375-.64844v7.46484l-4.4375.9375-3.41015 2.06641-1.02735.64453-2.86718 3.79297 2.86719 2.98828v21.11328l-2.0625 2.52735 2.0625 2.0664 2.0625-2.0664-2.0625-2.52735v-21.11328l4.4375.2461 3.38671-3.23438 1.05079-1.40625 3.16406-3.03125-3.16406-3.0039v-7.46485l4.4414-1.0625.59766 2.65234 3.83984 3.4336 4.4375-2.90235.67188-.53125 3.01171-4.4375.75391-1.70312 2.28516-2.73438 2.15234-1.21875 4.4414-2.1875.70704 3.40625 3.73047 4.19141 4.4375-1.07422 3.9414-3.11719.4961-1.22656 2.57422-3.21094-2.57422-3.58593-4.4375.40234-2.48828-1.2539-1.94922-1.95313-3.19531 1.95312-1.2422 2.3672-.49609-2.3672-3.9453-3.36718-4.4375-.78907-4.4375 1.9922-3.95313 2.16405-.48438 2.7461-.51172-2.7461-3.92578-2.1953-4.4414-1.70704-4.4375.3086-4.4375.79296-4.4375-1.46484v-71.1875h66.5703v168.65625H144"/></g><path fill="#50fcfc" fill-rule="evenodd" d="M154.08203 427.0664l-.6211-4.4414 1.0586-4.4375 2.79297-2.41406 2.63672-2.02344 1.80078-1.46094 4.4375-2.39453.53516-.58203 3.90234-3.875 4.4375-.47266.4336-.09375-.4336-.16015-4.4375-1.88281-1.29688-2.39454 1.29688-1.30078 2.10156-3.13672 2.33594-2.35937 4.4414-1.30469 1.1875-.77344 3.25-2.92578v2.28125l-.71874.64453-3.71875 2.42579-3.52735 2.01171-.91406 1.34766-2.1836 3.08984 2.1836 1.79297 4.4414 1.26953 2.76954-3.0625 1.66797-1.83593 2.64453-2.60157-1.9961-4.4375-.64843-.64453v-2.28125l2.92968 2.92578 1.50782 2.52344v4.14453l-2.25391 2.20703-2.1836 2.46094-1.71874 1.97656 1.71875.3125 4.4375.26954 1.2539-.58204-.11719-4.4375-1.13671-2.20703v-4.14453l2.02343 1.91406 2.41407 1.30079 3.49218-1.30079-.84375-4.4375 1.07032-4.4375.72265-.72656v15.82031l-1.6211 2.65625 1.6211.60938 1.79688-.60938-1.79688-2.65625v-15.8203l4.4375-3.37892v9.28907l-2.65234 3.6914-.67578 4.4375 3.32812 4.375.05078.0625.0547 4.44141-.10548.03516-.05078-.03516-4.38672-2.91797-4.0586-1.52344 1.58595-4.4375-1.96875-.95703-1.00782.95703.57813 4.4375-4.00781 1.85938-4.4375-.73828-4.4375-.7539-4.44141 1.13671-4.4375 1.66016-1.28516 1.27734-3.15234 3.4336-1.39844 1.0039-3.03906 2.26563-2.45703 2.17187-1.98047 3.21484-.71094 1.22266.71094 2.52734.42578 1.91407 4.01172 2.48437 4.4375-.0039 2.89844 1.95703 1.53906 1.52343 2.76953 2.91407 1.66797 1.15625 4.4414 1.37109 4.4375.30078 4.4375-.66015 3.2461-2.16797 1.1914-.72266 4.44141-3.1211 1.05469-.59374 3.38281-.69922 4.4375-.77735 4.4375-1.85937 2.51953-1.10156 1.92188-1.16797 2.09375-3.27344-1.82422-4.4375.41016-4.4375-.6797-1.2539-1.63671-3.1836-1.8125-4.4414 1.19922-4.4375-2.1914-3.23048-4.4375-.76171-.96095-.44532-3.47656-3.6914v-9.28906l2.20313 4.10546.55469 4.4375 1.67968 1.82032 4.4375.58984 2.02735 2.02734 1.97265 4.4375-.77344 4.4375 1.21485 2.55079 3.15625 1.89062.41406 4.4375-.30078 4.4375.95313 4.4375.21484.90234 4.4375.1875 4.4375 1.77344 3.35547 1.57813-2.29297 4.4375-1.0625.96875-1.72656-.96875-2.71094-.97266-4.4375-1.63281-4.4375.60547-4.4414 1.0625-4.4375.79296-.97266.14454-3.46485 1.92187-4.4375 1.78516-1.27344.73047-3.16796 2.37109-4.4375 1.71094-4.4375.08984-4.4375-.22265-4.44141-.625-4.4375-2.4961-.89063-.82812-3.54687-3.46875-1.51953-.96875-2.91797-.39063-4.4375-.48437-3.23047-3.5625"/><path fill="#00e8fc" fill-rule="evenodd" d="M157.3125 425.15234l-.71094-2.52734.71094-1.22266 1.98047-3.21484 2.45703-2.17188 3.03906-2.26562 1.39844-1.0039 3.15234-3.4336 1.28516-1.27734 4.4375-1.66016 4.4414-1.13672v1.5664l-4.4414 1.92188-1.15234.58594-3.28516 2.94531-1.38281 1.49219-3.05469 3.21094-1.55078 1.22656-2.88672 2.7461-1.26563 1.6914 1.26563 3.94531 4.4375-1.64453 1.96094 2.14063 2.47656 1.64062 2.59766 2.79688 1.83984 1.90625 4.03906 2.53125.40235.16015 4.4375.42188 1.98437-.58203 2.45313-.98438 4.4375-2.61719 1.09765-.83593 3.34375-2.35938 4.4375-.24219 4.4375-1.08984 1.41016-.7461 3.02734-1.01952 3.80078-3.42188-.75-4.4375-.6914-4.4375-2.35938-3.1875-4.4375-.94922-4.4375 1.46485-2.34375-1.76563-2.09375-1.39453-2.78515 1.39453-1.65625 1.13672-3.1836-1.13672-1.2539-.45703-4.4375-1.51953-4.4375-.53125v-1.5664l4.4375.7539 4.4375.73828 4.0078-1.85938-.57812-4.4375 1.00782-.95703 1.96875.95703-1.58594 4.4375 4.0586 1.52344 4.38671 2.91797.05078.03516.10547-.03516-.05469-4.4414-.05078-.0625-3.32812-4.375.67578-4.4375 2.65234-3.69141 3.47656 3.6914.96094.44532v2.15234l-4.41797 1.83984 3.81641 4.4375.60156 2.625.79297-2.625 2.5664-4.4375-3.35937-1.83984v-2.15234l4.4375.76171 2.1914 3.23047-1.19921 4.4375 1.8125 4.44141 1.63672 3.1836.67969 1.2539-.41016 4.4375 1.82422 4.4375-2.09375 3.27344-1.92188 1.16797-2.51953 1.10156-4.4375 1.85937-4.4375.77735-3.38281.69922-1.05469.59375-4.4414 3.12109-1.19141.72266-3.2461 2.16796-4.4375.66016-4.4375-.30078-4.4414-1.3711-1.66797-1.15624-2.76953-2.91407-1.53906-1.52343-2.89844-1.95704-4.4375.00391-4.01172-2.48437-.42578-1.91407"/><path fill="#00d4fc" fill-rule="evenodd" d="M161.75 426.57031l-1.26563-3.94531 1.26563-1.6914 2.88672-2.7461 1.55078-1.22656 3.05469-3.21094 1.38281-1.49219 3.28516-2.94531 1.15234-.58594 4.4414-1.92187v1.5664l-1.97265.94141-2.46875 1.9961-2.60938 2.4414-.83203 4.4375 1.3125 4.4375-.73437 4.4414 2.86328 3.02735 4.4414 1.17969 4.4375-.16797 2.6836.39844 1.7539.375.65235-.375 3.78516-2.63672 3.0664-1.80078 1.375-.45704 4.4375.3711 4.4375-1.10547 4.4375-1.23828 2.23438-2.01172-.65625-4.4375-1.57813-4.33203-.21484-.10547-4.22266-1.41016-4.4375.46875-4.4375-3.3125-4.4414 3.05079-4.4375-1.66016-2.78125-1.57422-1.65625-.63281-4.4375-.3086v-1.5664l4.4375.53125 4.4375 1.51953 1.2539.45703 3.1836 1.13672 1.65625-1.13672 2.78515-1.39453 2.09375 1.39453 2.34375 1.76563 4.4375-1.46485 4.4375.94922 2.35938 3.1875.6914 4.4375.75 4.4375-3.80078 3.42188-3.02734 1.01953-1.41016.74609-4.4375 1.08984-4.4375.2422-3.34375 2.35937-1.09765.83593-4.4375 2.6172-2.45313.98437-1.98437.58203-4.4375-.42188-.40235-.16015-4.03906-2.53125-1.83984-1.90625-2.59766-2.79688-2.47656-1.64062-1.96094-2.14063-4.4375 1.64453"/><path fill="#00c4fc" fill-rule="evenodd" d="M172.9336 422.625l-1.3125-4.4375.83202-4.4375 2.60938-2.4414 2.46875-1.9961 1.97266-.9414v1.78906l-4.23438 3.58984.21484 4.4375-.08593 4.4375-.33594 3.875-.1211.5664.1211.12891 4.4414 1.91406 4.4375-.1328 4.4375-.23829 2.25782-1.67187 2.17969-1.22657 4.4414-1.32812 4.4375.16406 4.4375-.60156 4.4375-.84375.67188-.60547-.5625-4.4375-.10938-.30078-4.4375-2.89844-4.4375-.60937-1.40234-.62891-3.03516-2.11328-3.10156 2.11328-1.33984.73438-2.21485-.73438-2.22265-.85547-4.4375-2.67187-4.4375-.0625v-1.78907l4.4375.3086 1.65625.63281 2.78125 1.57422 4.4375 1.66015 4.4414-3.05078 4.4375 3.3125 4.4375-.46875 4.22266 1.41016.21484.10547 1.57813 4.33203.65625 4.4375-2.23438 2.01172-4.4375 1.23828-4.4375 1.10547-4.4375-.3711-1.375.45704-3.0664 1.80078-3.78516 2.63672-.65234.375-1.75391-.375-2.6836-.39844-4.4375.16797-4.4414-1.17969-2.86328-3.02734.73437-4.44141"/><path fill="#00e8fc" fill-rule="evenodd" d="M175.0625 402.22656l-2.1836-1.79297 2.1836-3.08984.91406-1.34766 3.52735-2.01171 3.71875-2.42579.71875-.64453.64843.64453 1.9961 4.4375-2.64453 2.60157-1.66797 1.83593-2.76953 3.0625-4.44141-1.26953"/><path fill="#00b8fc" fill-rule="evenodd" d="M175.0625 427.19531l-.1211-.1289.1211-.56641.33594-3.875.08594-4.4375-.21485-4.4375 4.23438-3.58984 4.4375.0625v1.71093l-4.4375.35938-1.71875 1.45703-1.02735 4.4375-.29297 4.4375 3.03907 4.35547 4.4375.05078 4.4375-.32813 4.4375-3.24609 3.44922-.83203.99218-.39063 4.4375.12891 4.4375-1.6914.9336-2.48438-.9336-.63281-4.4375-1.79688-4.4375-1.95312-4.4414 2.40234-4.4375-1.5664-1.5586-.89063-2.8789-1.8164v-1.71094l4.4375 2.67187 2.22265.85547 2.21485.73438 1.33984-.73438 3.10156-2.11328 3.03516 2.11328 1.40234.6289 4.4375.60938 4.4375 2.89844.10938.30078.5625 4.4375-.67188.60547-4.4375.84375-4.4375.60156-4.4375-.16406-4.4414 1.32812-2.1797 1.22657-2.2578 1.67187-4.4375.23828-4.4375.13281-4.44141-1.91406"/><path fill="#00a8fc" fill-rule="evenodd" d="M179.5039 426.98047l-3.03906-4.35547.29297-4.4375 1.02735-4.4375 1.71875-1.45703 4.4375-.35938v1.71094l-.71485.10547-3.72265.95313-1.46875 3.48437-.50782 4.4375 1.97657 2.82813 4.4375 1.26562 4.4375-.78516 3.85547-3.30859.58203-3.60547 4.4414-.69531 4.4375 1.66406 2.22656-1.80078-2.22656-1.04688-4.4375.89844-4.4414-.10937-4.4375-1.73438-4.27344-2.44531-.16406-.10547v-1.71094l2.8789 1.81641 1.5586.89063 4.4375 1.5664 4.4414-2.40234 4.4375 1.95312 4.4375 1.79688.9336.63281-.9336 2.48438-4.4375 1.6914-4.4375-.1289-.99219.39062-3.44921.83203-4.4375 3.2461-4.4375.32812-4.4375-.05078"/><path fill="#009800" fill-rule="evenodd" d="M179.5039 425.45313l-1.97656-2.82813.50782-4.4375 1.46875-3.48438 3.72265-.95312.71485-.10547v.8164l-4.4375 3.26563-.19532.46094-.71484 4.4375.91016 1.30469 4.4375 2.47656 4.4375-1.24219 2.95703-2.53906-1.84766-4.4375-1.10937-.4375-4.4375-3.28906v-.8164l.16406.10546 4.27344 2.44531 4.4375 1.73438 4.4414.10937 4.4375-.89844 2.22656 1.04688-2.22656 1.80078-4.4375-1.66406-4.4414.69531-.58203 3.60547-3.85547 3.3086-4.4375.78515-4.4375-1.26563"/><path fill="#00ac00" fill-rule="evenodd" d="M179.5039 423.92969l-.91015-1.30469.71484-4.4375.19532-.46094 4.4375-3.26562v.75781l-3.64844 2.96875-.73438 4.4375 4.38282 3.46875 4.4375-1.69922 2.0625-1.76953-2.0625-3.38281-.6875-1.05469-3.75-2.96875v-.75781l4.4375 3.28906 1.10937.4375 1.84766 4.4375-2.95703 2.53906-4.4375 1.24219-4.4375-2.47656"/><path fill="#00c800" fill-rule="evenodd" d="M183.9414 426.09375l-4.3828-3.46875.73437-4.4375 3.64844-2.96875v1.51563l-1.78516 1.45312-1.80469 4.4375 3.58985 2.83984 4.4375-2.60937.26562-.23047-.26562-.4375-2.60157-4-1.83593-1.45313v-1.51562l3.75 2.96875.6875 1.05469 2.0625 3.38281-2.0625 1.76953-4.4375 1.69922"/><path fill="#10cc00" fill-rule="evenodd" d="M183.9414 425.46484l-3.58984-2.83984 1.80469-4.4375 1.78516-1.45313v1.50391l-2.79688 4.38672 2.79688 2.21484 3.57422-2.21484-3.57422-4.38672v-1.5039l1.83593 1.45312 2.60157 4 .26562.4375-.26562.23047-4.4375 2.60937"/><path fill="#24d000" fill-rule="evenodd" d="M183.9414 424.83984l-2.79687-2.21484 2.79688-4.38672v1.24219l-2.00391 3.14453 2.0039 1.58984 2.5625-1.58984-2.5625-3.14453v-1.24219l3.57423 4.38672-3.57422 2.21484"/><path fill="#3cd800" fill-rule="evenodd" d="M183.9414 424.21484l-2.0039-1.58984 2.0039-3.14453v1.24219l-1.21484 1.90234 1.21485.96094 1.55078-.96094-1.55078-1.90234v-1.2422l2.5625 3.14454-2.5625 1.58984"/><path fill="#fff" fill-opacity="0" fill-rule="evenodd" d="M183.9414 402.89453l-1.71874 1.97656 1.71875.3125 4.4375.26954 1.2539-.58204-.11719-4.4375-1.13671-2.20703-2.25391 2.20703-2.1836 2.46094"/><path fill="#54dc00" fill-rule="evenodd" d="M183.9414 423.58594l-1.21484-.96094 1.21485-1.90234v1.24218l-.42188.66016.42188.33594.53906-.33594-.53906-.66016v-1.24218l1.55078 1.90234-1.55078.96094"/><path fill="#e8e05c" fill-rule="evenodd" d="M183.9414 422.96094l-.42187-.33594.42188-.66016.53906.66016-.53906.33594"/><path fill="#fff" fill-opacity="0" fill-rule="evenodd" d="M197.25781 402.21484l-1.6211 2.65625 1.6211.60938 1.79688-.60938-1.79688-2.65625"/><path fill="#00d4fc" fill-rule="evenodd" d="M205.53125 404.8711l-3.8164-4.4375 4.41796-1.83985 3.35938 1.83984-2.5664 4.4375-.79298 2.625-.60156-2.625"/><path fill="#50fcfc" fill-rule="evenodd" d="M228.32422 381.01172l-2.39063-2.76953 2.39063-2.0586 4.05469 2.0586-4.0547 2.76953m39.94532 59.71484l-.96484-.34765.96484-1.66016 1.96094-2.77734 2.47656-.4336 1.36328.4336-1.36328 3.67968-1.34375.75782-3.09375.34765m8.8789-60.54297l-3.0664-1.9414.96094-4.4375 2.10547-1.73438 3.08594 1.73438.39843 4.4375-3.48437 1.9414m66.57422 26.29297l-1.84766-1.60547 1.84766-1.8125 4.4375-.99218 4.4375 2.6875.11718.11718-.11718.13672-4.4375 1.54688-4.4375-.07813m0 35.98438l-.67188-2.08203.67188-3.3125 4.4375-.65235 4.4375.72656 4.4414.77344 1.9961-1.97265 2.4414-2.66407 1.16797-1.77343 2.49219-4.4375.77734-1.10547 2.07813-3.33594-2.07813-.94922-4.4375-1.07812-1.85156-2.41016 1.85156-1.5664 4.4375-1.55079 1.3164-1.32031 3.1211-3.47656v2.26953l-1.08203 1.20703-3.35547 3.35938-2.01562 1.07812 2.01562 1.20703 4.4375 1.44531v3.90625l-3.5 2.32032 3.5.64062 1.47266-.64062-1.47266-2.32032v-3.90625l3.02735 1.78516 1.29687 4.4414-4.32422 1.88673-4.4375.90625-1.09765 1.64453-3.1836 4.4375-.15625.23046-4.23047 4.20704-.20703.6289-.78515-.6289-3.65625-1.4336-4.4375-1.72265-3.60157 3.15625 3.60157 3.49218 4.4375.39454.4414.55078 4 1.7539 4.4375 1 4.4375-.1289 4.4375 1.1289 4.4375-1.08594 2.6836-2.66796.52734-4.4375 1.23047-1.9336 3.13281-2.5039 1.30469-1.72657 4.4375-1.1914 3.51953-1.51953-3.51953-2.6836-4.4375.69922-4.4375-1.53906-4.07813-.91406 1.44922-4.44141.09766-4.4375-1.91016-4.09766-.4336-.33984-4.0039-1.20703v-2.26953l4.4375.875 3.92969 2.60156.51172 2.72266.875 1.71484 1.3086 4.4375.11327 4.4414 2.14063.82423 2.21875-.82422 2.21875-1.92188 3.34375 1.92188 1.09375.76171 1.14453-.76171 3.29297-2.00782 4.4414-2.02343v2.9414l-1.84375 1.08985 1.84375 1.22265.82032-1.22265-.82031-1.08985v-2.9414l3.04296 4.03125-1.59375 4.4375-1.44921.21484-4.44141 1.8789-4.4375.51173-4.4375.92968-2.95703.90235-1.48047 1.43359-4.4375 2.41797-.375.58594-.28906 4.4375.66406 2.10156 2.29297 2.33984-2.29297 2.49219-2.30469-2.49219-2.13672-.67969-2.6836.6797-1.7539 1.74609-1.75781-1.7461-2.67969-.69531-4.4375.03516-4.4375-.33594-4.4414-.90235-4.15235-2.54296-.28515-.0547-4.4375-2.30077"/><path fill="#00e8fc" fill-rule="evenodd" d="M348.16016 443.8711l-3.60157-3.4922 3.60157-3.15624v1.34765l-2.06641 1.8086 2.0664 2.0039 3.19532-2.0039-3.19531-1.8086v-1.34765l4.4375 1.72265 3.65625 1.4336.78515.6289.20703-.6289 4.23047-4.20704.15625-.23046 3.1836-4.4375 1.09765-1.64454 4.4375-.90625v2.07813l-1.09375.47266-3.34375 1.125-2.875 3.3125-1.5625 2.26562-2.1836 2.17188-.55077 4.4375 2.73437 1.04296 4.4375-.28515 4.4375 1.0664 4.4375-.97265.85547-.85156.9336-4.4375 2.65234-4.17579.32422-.26171.41406-4.4375-.73828-.1797-.1914.1797-4.25 2.5664-3.73438-2.5664-.70313-.47266v-2.07813l4.32422-1.88671-1.29687-4.44141-3.02735-1.78516-4.4375-1.4453-2.01562-1.20704 2.01562-1.07813 3.35547-3.35937 1.08203-1.20703 4.0039 1.20703.4336.33984v13.42579l-.65234 3.98828.65234.44921.7461-.44921-.7461-3.98829v-13.42578l1.91016 4.09766-.09766 4.4375-1.44922 4.4414 4.07813.91407 4.4375 1.53906 4.4375-.69922 3.51953 2.6836-3.51953 1.51953-4.4375 1.1914-1.30469 1.72657-3.13281 2.5039L378 440.37891l-.52734 4.4375-2.6836 2.66796-4.4375 1.08594-4.4375-1.1289-4.4375.1289-4.4375-1-4-1.7539-.4414-.55079-4.4375-.39453"/><path fill="#00d4fc" fill-rule="evenodd" d="M348.16016 442.38281l-2.06641-2.0039 2.0664-1.8086v1.34766l-.52734.46094.52735.51171.8164-.51171-.8164-.46094v-1.34766l3.1953 1.8086-3.1953 2.0039"/><path fill="#00c4fc" fill-rule="evenodd" d="M348.16016 440.89063l-.52735-.51172.52735-.46094.8164.46094-.8164.51171"/><path fill="#00d4fc" fill-rule="evenodd" d="M361.47656 445.85938l-2.73437-1.04297.55078-4.4375 2.1836-2.17188 1.5625-2.26562 2.875-3.3125 3.34374-1.125 1.09375-.47266v2.29297l-4.4375.92187-1.47265 1.69532-2.96485 4.30078-.14062.13672.14062.65625 4.4375 1.71093 4.4375 1.9922 4.4375-2.91407.36719-1.44531-.36719-3.05079-.42187-1.38671-4.01563-2.6172v-2.29296l.70313.47266 3.73437 2.5664 4.25-2.5664.1914-.1797.73829.1797-.41406 4.4375-.32422.26171-2.65235 4.17579-.93359 4.4375-.85547.85156-4.4375.97265-4.4375-1.0664-4.4375.28515"/><path fill="#00c4fc" fill-rule="evenodd" d="M361.47656 441.03516l-.14062-.65625.14062-.13672 2.96485-4.30078 1.47265-1.69532 4.4375-.92187v2.35937l-4.4375.1797-.07031.07812.07031.58984.60547 3.84766 3.83203 2.91015 3.24219-2.91015-2.84766-4.4375-.39453-.25782v-2.35937l4.01563 2.61719.42187 1.38671.36719 3.05079-.36719 1.4453-4.4375 2.91407-4.4375-1.99219-4.4375-1.71093"/><path fill="#00b8fc" fill-rule="evenodd" d="M365.91406 436.53125l-.07031-.58984.07031-.07813 4.4375-.17969v2.33594l-1.92578 2.35938 1.92578 1.46484 1.63281-1.46484-1.6328-2.35938v-2.33594l.39452.25782 2.84766 4.4375-3.24219 2.91015-3.83203-2.91015-.60547-3.84766"/><path fill="#fff" fill-opacity="0" fill-rule="evenodd" d="M370.35156 424.7461l-3.5 2.3203 3.5.64063 1.47266-.64062-1.47266-2.32032"/><path fill="#00a8fc" fill-rule="evenodd" d="M370.35156 441.84375l-1.92578-1.46484 1.92578-2.35938v2.33203l-.02344.02735.02344.01953.01953-.01953-.01953-.02735v-2.33203l1.63281 2.35938-1.6328 1.46484"/><path fill="#009800" fill-rule="evenodd" d="M370.35156 440.39844l-.02344-.01953.02344-.02735.01953.02735-.01953.01953"/><path fill="#50fcfc" fill-rule="evenodd" d="M374.78906 427.51563l-.65234 3.98828.65234.44921.7461-.44921-.7461-3.98829m8.8789-20.0039l-3.84374-2.64063.71484-4.4375 3.1289-3.08984v2.01953l-1.08202 1.07031 1.08203 4.21875 1.77734.21875 2.66016.11329.10937-.11329-.10937-.23437-2.59375-4.20313-1.84375-1.0703v-2.01954l4.4375 1.85156 1.23047 1.23828 1.47656 4.4375-2.70703 2.82422-4.4375-.1836"/><path fill="#00e8fc" fill-rule="evenodd" d="M383.66797 404.65234l-1.08203-4.21875 1.08203-1.0703 1.84375 1.0703 2.59375 4.20313.10937.23437-.10937.11329-2.66016-.11329-1.77734-.21875"/><path fill="#50fcfc" fill-rule="evenodd" d="M396.98047 390.42969l-2.92188-3.3086 2.92188-2.92187 4.4414-1.34375v.80078l-4.4414 2.8711-.58985.59374.58985.66797 4.4414 2.64453 4.1211-3.3125-4.1211-3.46484v-.80078l4.4375 1.46484 4.4375-.79297 4.4375-.30859v1.21094l-4.4375.79297-3.42578 1.89843 3.42579 3.00782 1.10937 1.42968 3.32813 3.08594 3.49218-3.08594v-4.4375l-3.49219-2.6914v-1.21094l4.44141 1.70703 3.92578 2.19531.51172 2.7461.48438-2.7461 3.95312-2.16406v4.55469l-4.07812 2.04687 4.07812.96875v2.69141l-1.19922.77734-3.23828 2.875-1.5664 1.5625-.44922 4.4375 2.01562 1.8047 2.4336-1.8047 2.0039-2.42968 1.57813-2.00782.21875-4.4375-1.79688-.77734v-2.6914l4.4375.80859.9414-1.77735-.9414-1-4.4375-1.04687v-4.55469l4.4375-1.99219 4.4375.78907v2.08203l-4.4375.26172-1.60156 1.02343 1.60156.84766 3.38281 3.58984 1.0547.97266 1.53515-.97266-.03125-4.4375-1.5039-1.28515v-2.08203l3.9453 3.36718.4961 2.3672 1.24219-2.3672 3.1953-1.95312v2.98828l-2.90624 3.40234.38672 4.4375 2.51953 2.83204 4.4375-1.7461 1.3711-1.08594 1.21483-4.4375-2.58593-1.30078-4.4375-2.10156v-2.98828l1.94922 1.95312 2.48828 1.25391 4.4375-.40234 2.57422 3.58593-2.57422 3.21094-.4961 1.22656-3.9414 3.1172-4.4375 1.07421-3.73047-4.1914-.70703-3.40626-4.4414 2.1875-2.15235 1.21875-2.28516 2.73438-.7539 1.70312-3.01172 4.4375-.67188.53125-4.4375 2.90235-3.83984-3.4336-.59766-2.65234-4.4414 1.0625-4.4375.64844-3.44922-3.4961 3.44921-3.57812v2.32812l-1.20703 1.25 1.20704 1.22266 4.4375-.82422.76562-.39844-.76563-.83593-4.4375-.41407v-2.32812l2.44922-.85938-2.44921-1.95703-2.1836-2.48047-2.2539-1.86328-4.4375 1.50781-4.44141-.77343m0 68.17969l-2.64063-.47657 2.64063-.51562.4961.51562-.4961.47656"/><path fill="#00e8fc" fill-rule="evenodd" d="M396.98047 387.78906l-.58985-.66797.58985-.59375 4.4414-2.87109v1.33984l-2.89453 2.125 2.89454 2.03125 2.52734-2.03125-2.52735-2.125v-1.33984l4.1211 3.46484-4.1211 3.3125-4.4414-2.64453"/><path fill="#00d4fc" fill-rule="evenodd" d="M401.42188 389.15234l-2.89454-2.03125 2.89454-2.125v1.33594l-1.07422.78906 1.07421.75391.9375-.7539-.9375-.78907v-1.33594l2.52735 2.125-2.52735 2.03125"/><path fill="#00e8fc" fill-rule="evenodd" d="M401.42188 428.28906l-1.84375-1.22265 1.84375-1.08985.8203 1.08985-.8203 1.22265"/><path fill="#00c4fc" fill-rule="evenodd" d="M401.42188 387.875l-1.07422-.7539 1.07421-.78907.9375.78906-.9375.75391"/><path fill="#50fcfc" fill-rule="evenodd" d="M405.85938 421.17578l-2.8672-2.98828 2.8672-3.79297 1.02734-.64453 3.41015-2.0664v5.36718l-3.53515 1.13672 3.53515.4414.46485-.4414-.46485-1.13672v-5.36719l4.4375-.9375 3.16407 3.00391-3.16406 3.03125-1.05079 1.40625-3.38671 3.23438-4.4375-.2461m0 25.70703l-2.0625-2.0664 2.0625-2.52735 2.0625 2.52735-2.0625 2.0664"/><path fill="#00e8fc" fill-rule="evenodd" d="M410.29688 418.6289l-3.53516-.4414 3.53515-1.13672.46485 1.13672-.46485.4414m0-28.5l-3.42578-3.0078 3.42579-1.89844 4.4375-.79297v2.01953l-2.22657.67187 2.22656 3.94922.8711-3.94922-.8711-.67187v-2.01953l3.4922 2.6914v4.4375l-3.4922 3.08594-3.32812-3.08594-1.10938-1.42968m0 11.52734l-1.20703-1.22266 1.20704-1.25 4.4375.41407.76562.83593-.76563.39844-4.4375.82422"/><path fill="#00d4fc" fill-rule="evenodd" d="M414.73438 391.07031l-2.22657-3.94922 2.22656-.67187.8711.67187-.8711 3.94922"/><path fill="#00e8fc" fill-rule="evenodd" d="M423.61328 406.67578l-2.01562-1.80469.44921-4.4375 1.56641-1.5625 3.23828-2.875 1.19922-.77734 1.79688.77734-.21875 4.4375-1.57813 2.00782-2.0039 2.42968-2.4336 1.8047"/><path fill="#fff" fill-opacity="0" fill-rule="evenodd" d="M428.05078 389.51172l-4.07812 2.04687 4.07812.96875 4.4375.8086.9414-1.77735-.9414-1-4.4375-1.04687"/><path fill="#00e8fc" fill-rule="evenodd" d="M432.48828 387.96875l-1.60156-.84766 1.60156-1.02343 4.4375-.26172 1.5039 1.28515.03126 4.4375-1.53516.97266-1.05469-.97266-3.3828-3.58984m10.79687 8.02734l-.38672-4.4375 2.90625-3.40234v4.30078l-.5039 3.53906.5039.56641L447 395.9961l-1.19531-3.53907v-4.30078l4.4375 2.10156 2.58594 1.30078-1.21485 4.4375-1.3711 1.08594-4.4375 1.7461-2.51952-2.83204"/><path fill="#00d4fc" fill-rule="evenodd" d="M445.80469 396.5625l-.5039-.5664.5039-3.53907L447 395.9961l-1.19531.56641"/><g clip-path="url(#c)"><path fill="#fff" fill-opacity="0" fill-rule="evenodd" d="M467.99219 480.32422h.0039V311.66797h-.0039.0039v168.65625h-.0039"/></g><path fill="#fff" fill-opacity="0" fill-rule="evenodd" d="M384.76953 442.05469l5.03125-2.96485-5.05469-8.58203-5.03125 2.96094 5.0547 8.58594"/><path fill-rule="evenodd" d="M383.66016 433.27344l.4375-.25781 3.1953 5.42187-.67968.40234-2.27734-3.87109-1.19531.70703-.28125-.48047.44921-.33984.1875-.17188.15235-.1953.10547-.22657.04296-.26953-.02734-.32422-.10937-.39453"/><path fill="#fff" fill-opacity="0" fill-rule="evenodd" d="M209.11719 397.65234l.71484 5.79688 9.88672-1.21875-.71484-5.79688-9.88672 1.21875"/><path fill-rule="evenodd" d="M217.61328 400.1289l.0625.50391-6.25.77344-.09375-.78125 4.45313-.55078-.16797-1.3789.55078-.06641.13281.54687.08594.24219.11719.21875.16406.1836.23047.14843.3086.10547.40624.05469"/><path fill="#fff" fill-opacity="0" fill-rule="evenodd" d="M436.0586 395.64844l5.25 2.5586 4.36718-8.94923-5.25-2.5625-4.36719 8.95313"/><path fill-rule="evenodd" d="M442.76953 389.875l.45703.22656-2.76172 5.65625-.70703-.34765 1.96875-4.03125-1.2461-.60938.2422-.5.53125.1875.25.0625.24609.01953.2461-.03906.24609-.11328.25781-.19922.26953-.3125"/><path fill="#fff" fill-opacity="0" fill-rule="evenodd" d="M198.48828 434.74219l7.83594-1.16797-1.5-10.08203-7.83594 1.16797 1.5 10.08203"/><path fill-rule="evenodd" d="M199.71094 426.10938l3.25-.48438.10937.73047-2.60937.39062.03906 1.82032.19922-.19532.2461-.17187.30859-.13672.375-.08594.32422-.02344.34375.03516.35156.09766.34375.16406.3086.2461.14062.15624.1289.1797.11328.19921.09375.22656.07813.2539.05469.27735.03125.4414-.04297.4297-.11328.40625-.1875.37109-.26172.32422-.16016.14062-.17578.12891-.19922.10547-.21484.09375-.23828.07031-.25782.05078-.46484.03516-.41016-.04297-.35547-.11328-.30468-.17188-.2539-.22265-.21485-.26953-.17578-.3086-.13672-.33984.77734-.11328.11328.21484.13281.1914.14844.16016.16406.13282.1836.09765.20312.0625.21485.02344.23437-.01563.30469-.0703.26953-.11329.22266-.15234.17969-.19531.1328-.23829.08204-.27734.02734-.3164-.02734-.35938-.0586-.25781-.09765-.25-.13672-.23047-.17969-.20313-.21875-.16406-.25781-.11328-.30078-.05469-.33984.01172-.32813.08594-.26172.14844-.24219.22656-.26953.3125-.6875.10156-.04687-3.45313"/><path fill="#00f" fill-rule="evenodd" d="M383.79688 436.57422h8.61718v-10.14453h-8.61719v10.14453"/><path fill="azure" fill-rule="evenodd" d="M385.6289 428.26172h.83204v2.82422H389.75v-2.82422h.83203v6.48047H389.75v-2.91406h-3.28906v2.91406h-.83203v-6.48047"/><path fill="#00f" fill-rule="evenodd" d="M224.01563 418.82422h8.61718v-10.14844h-8.61719v10.14844"/><path fill="azure" fill-rule="evenodd" d="M225.84766 410.50781h.83593v2.82422h3.28516v-2.82422h.83203v6.48047h-.83203v-2.91406h-3.28516v2.91406h-.83593v-6.48047"/><path fill="#00f" fill-rule="evenodd" d="M366.04297 401.07031h8.61719v-10.14844h-8.6172v10.14844"/><path fill="azure" fill-rule="evenodd" d="M367.875 392.75781h.83594v2.82031h3.28515v-2.8203h.83204v6.47656h-.83204v-2.91407h-3.28515v2.91406h-.83594v-6.47656"/><path fill="#ff3030" fill-rule="evenodd" d="M446.6289 338.9336h7.69141v-10.14844h-7.6914v10.14843"/><path fill="azure" fill-rule="evenodd" d="M448.46094 330.6211h.83203v5.73827h3.19531v.73829h-4.02734v-6.47657"/><path fill="#ffffe0" fill-rule="evenodd" d="M248.53516 369.90625h22.17968v-10.1914h-22.17968v10.1914"/><path fill-rule="evenodd" d="M252.03516 361.54688h.5078v6.29296h-.78515v-4.48828h-1.39062v-.55469l.5586-.0664.2539-.05469.23047-.08594.20312-.14453.17188-.20703.14453-.29687.10547-.39454m4.8125 0l.23046.01954.21875.05468.20704.08985.1953.1211.1836.14843.17188.17578.30469.42188.24218.49218.17969.54688.10938.57812.03906.58985-.03906.59375-.10938.58593-.17969.5547-.24219.5-.30468.42968-.17188.17969-.1836.15234-.1953.125-.20704.08984-.21875.0586-.23046.01953-.23047-.01953-.21875-.0586-.20703-.08984-.19532-.125-.18359-.15234-.17188-.1797-.30468-.42968-.24219-.5-.17969-.55469-.10937-.58593-.03906-.59375h.83203l.02734.5664.08203.5039.1289.44142.16016.375.19141.30078.21094.22265.22265.13672.22657.04688.22656-.04688.22265-.13672.21094-.22265.1914-.30079.16017-.375.1289-.4414.07813-.5039.03125-.56641-.03125-.5586-.07813-.5-.1289-.4375-.16016-.36719-.1914-.28906-.21094-.21484-.22266-.13281-.22656-.04297-.22657.04297-.22265.1328-.21094.21485-.1914.28906-.16016.3672-.1289.4375-.08204.5-.02734.55859h-.83203l.03906-.58985.10937-.57812.17969-.54688.24219-.49219.30469-.42187.17187-.17578.1836-.14844.1953-.1211.20704-.08984.21875-.05468.23047-.01954m5.08984 0h.51172v6.29297h-.78906v-4.48828h-1.38672v-.55469l.5586-.0664.2539-.05469.22656-.08594.20703-.14453.17188-.20703.14062-.29687.10547-.39454m2.82422 2.17579h.78906l.01953-.31641.0586-.28516.09765-.2539.14063-.21485.17969-.17578.22656-.1289.26562-.07813.30469-.02734.23828.01953.22656.0625.20313.10156.17969.14063.14843.17187.11329.20703.0703.23438.02344.26562-.01953.26953-.0664.22266-.10938.1914-.15625.17188-.19922.16406-.24609.16407-.63672.39062-.53515.3125-.4375.3164-.34766.32423-.26563.33593-.1875.35157-.125.37109-.0703.39063-.01954.41796h4.21094v-.73828h-3.33203l.08203-.28515.11328-.23438.14844-.20312.1875-.1797.23046-.17187.27735-.17578.71875-.41797.41406-.20312.34766-.23047.28125-.2539.21875-.26563.16406-.27735.10938-.28515.0664-.28516.01953-.28125-.04297-.38281-.12109-.34766-.1875-.30859-.25-.26172-.30469-.21484-.34375-.15625-.38281-.09766-.40625-.03515-.4336.03125-.39843.10156-.35547.16406-.30469.23438-.2461.30468-.1875.375-.11718.44531-.03906.51954"/><path fill="#ffffe0" fill-rule="evenodd" d="M399.4375 367.97266h22.17969v-10.19141H399.4375v10.1914"/><path fill-rule="evenodd" d="M402.9375 359.61328h.50781v6.29297h-.78515v-4.48828h-1.38672v-.55469l.5586-.0664.25-.0547.23046-.08984.20313-.14062.17578-.21094.14062-.29297.10547-.39453m4.8125 0l.23047.01953.21875.05469.20703.08984.19922.1211.1836.14844.17187.17578.30078.41796.24219.4961.17968.54687.11329.57813.03906.58984-.03906.59375-.11329.58594-.17968.55078-.2422.5039-.30077.4297-.17188.17968-.1836.15235-.19921.12109-.20703.09375-.21875.05469-.23047.02344-.22656-.02344-.21875-.05469-.21094-.09375-.19531-.1211-.1836-.15234-.17187-.17969-.30078-.42968-.24219-.5039-.17969-.55079-.11328-.58594-.03906-.59375h.83594l.02734.5625.08203.50781.125.44141.16406.375.19141.30078.20703.22266.22266.13672.22656.04687.22656-.04687.22266-.13672.21094-.22266.1914-.30078.16406-.375.125-.4414.08204-.50782.02734-.5625-.02734-.5586-.08204-.5039-.125-.4336-.16406-.36718-.1914-.28906-.21094-.21485-.22266-.1328-.22656-.04298-.22656.04297-.22266.13281-.20703.21485-.1914.28906-.16407.36719-.125.4336-.08203.5039-.02734.5586h-.83594l.03906-.58985.11328-.57813.17969-.54687.24219-.4961.30078-.41796.17187-.17579.1836-.14843.19531-.1211.21094-.08984.21875-.05469.22656-.01953m5.09375 0h.50781v6.29297h-.78515v-4.48828h-1.39063v-.55469l.5625-.0664.25-.0547.23047-.08984.20313-.14062.17578-.21094.14062-.29297.10547-.39453m2.82422 2.17578h.78515l.01954-.3164.05859-.28907.10156-.25.14063-.21484.17969-.17578.22265-.1289.26563-.07813.30859-.02735.23828.01954.22266.0625.20312.10156.17969.13672.14844.17578.11328.20312.07422.23828.02344.26563-.02344.26562-.0625.22657-.11328.1914-.15235.17188-.20312.16015-.2461.16797-.6328.38672-.53907.3164-.4375.31641-.34766.32422-.26172.33594-.1914.35156-.125.36719-.07031.39453-.01954.41797h4.21094v-.73828h-3.33203l.08594-.28516.11328-.23828.14844-.19922.1875-.17969.23046-.17187.27735-.17578.71875-.41797.41406-.20313.34375-.23437.28125-.25.21875-.26563.16406-.27734.11329-.28515.0625-.28516.01953-.28125-.03907-.38281-.12109-.34766-.1914-.3086-.25-.26171-.30079-.21485-.34765-.15625-.37891-.10156-.40625-.03125-.4336.03125-.39843.09766-.35547.16797-.30469.23437-.25.30469-.1836.375-.11718.44531-.03906.51953"/><path fill="#ffffe0" fill-rule="evenodd" d="M239.65625 413.42578h22.1836v-10.1914h-22.1836v10.1914"/><path fill-rule="evenodd" d="M243.15625 405.0664h.51172v6.29688h-.78906v-4.49219h-1.38672v-.55468l.5586-.0625.2539-.0547.22656-.08983.20313-.14063.17578-.21094.14062-.29687.10547-.39453m4.8164 0l.22657.01953.21875.05469.21094.08984.1953.1211.1836.14843.17188.17578.30078.42188.24219.49218.17968.54688.11328.57812.03907.59375-.03906.59375-.11329.58204-.17968.55468-.2422.5-.30077.42969-.17188.17969-.1836.15234-.1953.125-.21094.08985-.21875.05859-.22656.01953-.23047-.01953-.21875-.0586-.20703-.08984-.19922-.125-.1836-.15234-.17187-.17969-.30078-.42969-.24219-.5-.17969-.55469-.11328-.58203-.03906-.59375h.83594l.02734.5625.08203.50391.125.44531.16406.375.19141.30078.21094.21875.22265.13672.22657.04688.22656-.04688.22266-.13672.20703-.21875.1914-.30078.16406-.375.125-.44531.08204-.5039.02734-.5625-.02734-.5625-.08203-.5-.125-.4375-.16407-.36329-.1914-.29297-.20703-.21484-.22266-.13281-.22656-.04297-.22657.04297-.22265.13281-.21094.21484-.1914.29297-.16407.36328-.125.4375-.08203.5-.02734.5625h-.83594l.03906-.59375.11328-.57812.17969-.54688.24219-.49218.30078-.42188.17187-.17578.1836-.14844.19922-.1211.20703-.08983.21875-.0547.23047-.01952m5.08984 0h.50781v6.29687h-.78515v-4.49219h-1.39063v-.55468l.5625-.0625.25-.0547.23047-.08983.20313-.14063.17578-.21094.14062-.29687.10547-.39453m6.80469 1.62109h-.78906l-.05079-.21094-.08203-.1875-.10547-.16015-.1289-.12891-.14844-.10547-.16016-.07422-.16796-.04297-.17188-.01562-.32813.03906-.28906.1211-.2461.1953-.20312.26954-.16015.33594-.11719.40625-.07031.46484-.02344.52734.1914-.20312.1836-.15625.1875-.125.1836-.08594.1914-.0625.1914-.03515.39844-.02344.3086.02734.32031.09375.3164.15625.29298.21875.2578.28516.19923.34765.0703.20313.0547.21484.02734.23438.0039.2539-.78515.04688-.02734-.26172-.07813-.25-.1211-.23438-.16015-.21093-.19531-.17578-.21875-.13672-.24219-.08985-.2539-.03125-.25391.03125-.24219.08985-.21875.13672-.1914.17578-.16407.21094-.1211.23437-.07812.25-.02734.26172.02734.25781.07813.25.1211.23438.16406.21093.1914.1797.21875.13671.24219.08594.2539.03125.25391-.03125.24219-.08594.21875-.13672.19531-.17969.16016-.21093.1211-.23438.07812-.25.02734-.25781.78516-.04688-.03125.3711-.08985.3711-.16015.35937-.22266.32812-.28906.28125-.16797.1211-.1914.10156-.20313.08203-.22656.0625-.23829.03906-.26171.01172-.28125-.01563-.26172-.04687-.23829-.07813-.21484-.10546-.19531-.12891-.17188-.15625-.15625-.17969-.1328-.20312-.1172-.22266-.10156-.24219-.14453-.53515-.08594-.59375-.02734-.64063.03906-.74219.11328-.66406.1875-.57812.1211-.2539.13671-.23048.15235-.20703.17187-.1836.1836-.15624.20312-.1289.21875-.10157.23047-.07031.25-.04688.26172-.01562.36328.03515.33594.09375.29297.15235.25781.19921.21094.2422.16406.27343.11719.30469.0625.32031"/><path fill="#ffffe0" fill-rule="evenodd" d="M328.40625 463.4375h22.17969v-10.1914h-22.17969v10.1914"/><path fill-rule="evenodd" d="M331.90234 455.07813h.51172v6.29687h-.78906v-4.49219h-1.38672v-.55469l.5586-.0664.2539-.05078.22656-.08985.20313-.14453.17578-.20703.14063-.29687.10546-.39454m4.81641 0l.22656.01954.21875.05468.21094.08985.19531.1211.1836.14843.17187.17578.30078.42188.24219.49218.1836.54688.10937.57812.03906.58985-.03906.59375-.10938.58593-.18359.5547-.24219.5-.30078.42968-.17187.17969-.1836.15234-.19531.125-.21094.08984-.21875.0586-.22656.01953-.23047-.01953-.21875-.0586-.20703-.08984-.19922-.125-.1836-.15234-.17187-.1797-.30078-.42968-.24219-.5-.17968-.55469-.11329-.58593-.03906-.59375h.83594l.02734.5664.08204.5039.125.44142.16406.375.1914.30078.21094.22265.22266.13672.22656.04688.22656-.04688.22266-.13672.21094-.22265.1875-.30079.16406-.375.125-.4414.08203-.5039.03125-.56641-.03125-.5586-.08203-.5-.125-.4375-.16406-.36328-.1875-.29297-.21094-.21484-.22266-.13281-.22656-.04297-.22656.04297-.22266.1328-.21094.21485-.1914.29297-.16406.36328-.125.4375-.08204.5-.02734.5586h-.83594l.03906-.58985.11329-.57812.17968-.54688.2422-.49219.30077-.42187.17188-.17578.1836-.14844.19921-.1211.20703-.08984.21875-.05468.23047-.01954m5.08984 0h.50782v6.29688h-.78516v-4.49219h-1.39063v-.55469l.5625-.0664.25-.05078.23047-.08985.20313-.14453.17578-.20703.14063-.29687.10546-.39454m6.8047 1.6211h-.78907l-.05078-.21485-.08203-.18359-.10547-.16015-.1289-.13282-.14845-.10156-.16015-.07422-.16797-.04297-.17188-.01562-.32812.03906-.28906.1211-.2461.1953-.20312.26954-.16016.33594-.11328.40625-.07031.46484-.02735.52734.19141-.20312.1875-.16016.1836-.1211.1875-.08984.1875-.05859.1914-.03906.39844-.02344.3086.03125.3203.09375.31641.15625.29297.21875.25781.28516.19922.34765.07031.20313.05469.21484.02734.23438.00391.2539-.78516.04688-.02734-.26172-.07813-.25-.12109-.23438-.16015-.21093-.19532-.17579-.21875-.13671-.24219-.08985-.2539-.03125-.2539.03125-.2422.08985-.21875.13671-.1914.17579-.16016.21093-.125.23438-.07812.25-.02735.26172.02735.25781.07812.25.125.23438.16016.21093.1914.17578.21875.13672.2422.08985.2539.03125.2539-.03125.2422-.08985.21874-.13672.19531-.17578.16016-.21094.1211-.23437.07812-.25.02734-.25781.78516-.04688-.02734.3711-.09375.37109-.15625.35938-.22266.32812-.29297.28125-.16797.11719-.1914.10547-.20313.08203-.22265.0625-.2422.03515-.26171.01563-.28125-.01563-.26172-.04687-.23828-.07813-.21485-.10546-.1953-.12891-.17188-.15625-.15625-.1836-.13281-.19921-.1172-.22266-.10156-.24219-.14453-.53515-.08593-.59375-.02735-.64063.03906-.74219.11329-.66406.1875-.57812.12109-.25391.13672-.23047.15234-.20703.17188-.1836.1836-.15624.20312-.12891.21875-.10156.23046-.07422.25-.04297.26172-.01563.36329.03516.33593.09375.29297.15235.25781.19921.21094.2422.16406.27343.1172.30078.0625.32422"/><path fill="#ffffe0" fill-rule="evenodd" d="M403.8789 437.57813h22.1797v-10.19141h-22.1797v10.1914"/><path fill-rule="evenodd" d="M407.375 429.21875h.51172v6.29297h-.78906v-4.48828h-1.38672v-.55469l.5586-.0664.2539-.0547.22656-.08593.20313-.14453.17578-.20703.14062-.29688.10547-.39453m4.8164 0l.22657.01953.21875.05469.21094.08984.1953.1211.1836.14843.17188.17579.30078.42187.2461.49219.17968.54687.10938.57813.03906.58984-.03906.59375-.10938.58594-.17969.55469-.2461.5-.30077.42968-.17188.1797-.1836.15233-.1953.125-.21094.08985-.21875.0586-.22656.01952-.23047-.01953-.21875-.0586-.20703-.08983-.19922-.125-.1836-.15235-.17187-.17969-.30078-.42968-.24219-.5-.17969-.5547-.11328-.58593-.03906-.59375h.83594l.02734.5664.08203.50391.125.44141.16406.375.19141.30078.21094.22266.22265.13672.22657.04687.22656-.04687.22265-.13672.21094-.22266.1875-.30078.16406-.375.125-.4414.08204-.50391.03125-.5664-.03125-.5586-.08204-.5-.125-.4375-.16406-.36719-.1875-.28906-.21094-.21485-.22265-.1328-.22656-.04298-.22657.04297-.22265.13281-.21094.21485-.1914.28906-.16407.36719-.125.4375-.08203.5-.02734.5586h-.83594l.03906-.58985.11328-.57813.17969-.54687.24219-.49219.30078-.42188.17187-.17578.1836-.14843.19922-.1211.20703-.08984.21875-.05469.23047-.01953m5.08984 0h.50781v6.29297h-.78515v-4.48828h-1.38672v-.55469l.5586-.0664.25-.0547.23046-.08593.20313-.14453.17578-.20703.14062-.29688.10547-.39453m6.80469 1.6211h-.78906l-.05079-.21485-.08203-.1836-.10547-.16015-.1289-.13281-.14844-.10156-.16016-.07422-.16796-.04297-.17188-.01563-.32813.03906-.28906.1211-.2461.19531-.20312.26953-.16015.33594-.11328.40625-.07032.46484-.02734.52735.1914-.20313.1875-.16015.1836-.1211.1875-.08984.1875-.0586.1914-.03906.39844-.02344.3086.03125.32031.09375.3164.15235.29298.22265.2578.28125.19923.35157.0703.20312.0547.21485.02734.23437.0039.2539-.78515.04298-.02734-.25782-.07813-.25-.1211-.23437-.16015-.21094-.19531-.17578-.21875-.13672-.23828-.08984-.25781-.03125-.25391.03125-.24219.08984-.21875.13672-.1914.17578-.16016.21094-.125.23437-.07813.25-.02734.25782.02734.26171.07813.25.125.23438.16015.21094.19141.17578.21875.13672.24219.08984.2539.03125.25782-.03125.23828-.08984.21875-.13672.19531-.17578.16016-.21094.1211-.23438.07812-.25.02734-.26171.78516-.04297-.02735.36719-.09375.375-.15625.35546-.22265.32813-.29297.28515-.16797.1172-.1875.10546-.20703.08203-.22266.0586-.24219.03906-.26171.01562-.28125-.01562-.26172-.04688-.23829-.07812-.21484-.10547-.19531-.13281-.17188-.15625-.15625-.17969-.1328-.19922-.1172-.22265-.10156-.2422-.14453-.53515-.08594-.59375-.02734-.64062.03906-.7422.11328-.66405.1875-.57813.1211-.2539.13671-.23438.15235-.20313.17187-.18359.1836-.15625.20312-.1289.21875-.10157.23047-.07422.25-.04296.26172-.01563.36719.03516.33203.09375.29297.15234.25781.19922.21094.24219.16406.27343.11719.30079.0625.32421"/></g></defs><use xlink:href="#d"/></svg>