<svg xmlns="http://www.w3.org/2000/svg" role="img" xmlns:xlink="http://www.w3.org/1999/xlink" viewBox="142.45 309.95 326.84 171.84"><defs><clipPath id="a"><path d="M144 311.67188h1v168.65625h-1zm0 0"/></clipPath><clipPath id="b"><path d="M144 311.67188h324v168.65625H144zm0 0"/></clipPath><clipPath id="c"><path d="M467 311.67188h1v168.65625h-1zm0 0"/></clipPath><clipPath id="d"><path d="M144 477h3v3.32813h-3zm0 0"/></clipPath><clipPath id="e"><path d="M155 476h4v4.32813h-4zm0 0"/></clipPath><clipPath id="f"><path d="M169 476h4v4.32813h-4zm0 0"/></clipPath><clipPath id="g"><path d="M182 476h4v4.32813h-4zm0 0"/></clipPath><clipPath id="h"><path d="M195 477h5v3.32813h-5zm0 0"/></clipPath><clipPath id="i"><path d="M208 477h5v3.32813h-5zm0 0"/></clipPath><clipPath id="j"><path d="M222 476h4v4.32813h-4zm0 0"/></clipPath><clipPath id="k"><path d="M236 476h3v4.32813h-3zm0 0"/></clipPath><clipPath id="l"><path d="M249 476h3v4.32813h-3zm0 0"/></clipPath><clipPath id="m"><path d="M263 476h2v4.32813h-2zm0 0"/></clipPath><clipPath id="n"><path d="M276 476h2v4.32813h-2zm0 0"/></clipPath><clipPath id="o"><path d="M290 476h1v4.32813h-1zm0 0"/></clipPath><clipPath id="p"><path d="M303 476h2v4.32813h-2zm0 0"/></clipPath><clipPath id="q"><path d="M316 476h2v4.32813h-2zm0 0"/></clipPath><clipPath id="r"><path d="M329 476h3v4.32813h-3zm0 0"/></clipPath><clipPath id="s"><path d="M340 478h8v2.32813h-8zm0 0"/></clipPath><clipPath id="t"><path d="M354 477h6v3.32813h-6zm0 0"/></clipPath><clipPath id="u"><path d="M367 477h6v3.32813h-6zm0 0"/></clipPath><clipPath id="v"><path d="M382 476h3v4.32813h-3zm0 0"/></clipPath><clipPath id="w"><path d="M393 479h8v1.32813h-8zm0 0"/></clipPath><clipPath id="x"><path d="M406 479h9v1.32813h-9zm0 0"/></clipPath><clipPath id="y"><path d="M406 479h3v1.32813h-3zm0 0"/></clipPath><clipPath id="z"><path d="M422 476h3v4.32813h-3zm0 0"/></clipPath><clipPath id="A"><path d="M433 478h8v2.32813h-8zm0 0"/></clipPath><clipPath id="B"><path d="M433 480h2v.32813h-2zm0 0"/></clipPath><clipPath id="C"><path d="M446 479h8v1.32813h-8zm0 0"/></clipPath><clipPath id="D"><path d="M447 478h2v2.32813h-2zm0 0"/></clipPath><clipPath id="E"><path d="M459 479h9v1.32813h-9zm0 0"/></clipPath><clipPath id="F"><path d="M144 463h2v8h-2zm0 0"/></clipPath><clipPath id="G"><path d="M144 469h1v2h-1zm0 0"/></clipPath><clipPath id="H"><path d="M144 450h3v7h-3zm0 0"/></clipPath><clipPath id="I"><path d="M144 439h4v3h-4zm0 0"/></clipPath><clipPath id="J"><path d="M144 425h4v5h-4zm0 0"/></clipPath><clipPath id="K"><path d="M144 411h3v6h-3zm0 0"/></clipPath><clipPath id="L"><path d="M144 397h3v7h-3zm0 0"/></clipPath><clipPath id="M"><path d="M144 385h4v4h-4zm0 0"/></clipPath><clipPath id="N"><path d="M144 370h2v8h-2zm0 0"/></clipPath><clipPath id="O"><path d="M144 370h1v2h-1zm0 0"/></clipPath><clipPath id="P"><path d="M144 356h1v9h-1zm0 0"/></clipPath><clipPath id="Q"><path d="M144 355h2v3h-2zm0 0"/></clipPath><clipPath id="R"><path d="M144 343h1v8h-1zm0 0"/></clipPath><clipPath id="S"><path d="M144 330h2v8h-2zm0 0"/></clipPath><clipPath id="T"><path d="M144 317h3v7h-3zm0 0"/></clipPath><g id="U" clip-path="url(#clip1)"><path fill="#fff" fill-opacity="0" fill-rule="evenodd" d="M0 0h1000v1000H0zm0 0"/><path fill="#d3d3d3" fill-opacity="0" fill-rule="evenodd" d="M162.15234 355.86719l-.23437.29297.0586.23437.11718.17188.17578.23437.29297.34766.11328.0586.11719-.17188.0586-.23438.17577-.17578.46485-.17578h.69922l.23437.29297.28906.8164.0586.17579.17578.23046.35156.23438.69922.69922.17188.17578.23437.34765.23438.41016.28906.58203.41015.46485.23047.23437.23438.17578.11719.23047.17578.29297.17187 1.16406v.23438l.0586.28906.05859.11719.11719.11719.34765.41015.11719.17188.17578.17578.17578.23437.11719.17188.17188.35156.05859.23438.23437.40625.23438-.0586-.17578.17578-.0586.92969h-.58203l-.23437-.11328-.34766.11328-.11719.11719-.05859.29297-.0586.17578-.11718.17187-.46484.29297-.0586.23438-.0586.11328v.64453l.0586.17187v.41016l.0586.0586v.40624l.05859.40625.11719.17579.05859.05859.23047.64062-.0586.29297v.69922l-.05859.58203v.23438l-.0586.23047-.05468.35156v1.92187l.05469.1172h.42578l-.36719.11718-.02344.35156.89063 1.16797 1.74219.53906 1.33984.35938v.53906l.08984.8086.53516.71484 1.51953.26953.89063-.08594.08984 1.16406.53516.1797 1.16015-.1797 2.05469-.98437 1.16016-.36328 1.8789-.17578 1.69531-.1797-.17968.71876-1.51563.08594-1.25.08984-.80469.26953-1.07421.8086.26953.71875.53515.89843-.17968.625-.26563.8086.26563 1.07812.625.89844.80468.17969 1.25-.1797-.26562.72267.09766.5039.05468.29297v.17188l.0586.29296v.40625l.17578.1172.35156.11718h.40625l.29297-.17578.11328-.11719.0586-.11719.11718-.23047.0586-.17578.35156-.46484.23047-.17578.17578-.0586.17578.0586.0586.17578.11718.98828.05469.46875.0586.17188.11718.23437.17578.0586.8164.05859h.28907l.11719.23437.05859.40625.0586.35156v1.10547l.11718.29297.11719.34766.28906.69922.17578.35156.58203.7539.35157.17579.17187.0586.46875.23437.64063.46484.34765.23438.29297.17578.29297.05468.23047.0625.8164.34766.29297.17578.11328.17188.35157.35156.11719.17578.52343.64063v.28906l.0586.35156v.34766l.05859.35156.0586.28906.11718.0586.17188.05859h.17578l.58203.23437.17578.1172.17578.28905.17578.23438.11328.23437.29297.23047.11719.11719v.41016l.0586.05468.28906.23438.23437.11719.0586.11718.11718.17188.0586.11719.23047.23437.05859.17578.23437.0586.1172.05859-.1172.11328-.05859.11719v.11719l-.11719.29296-.11719.28907v.58203l.17579.11719.11718.05859.0586.11719.11719.11719.11328.05859.17578.34765.0586.35157.05858.40625v.17578l-.05859.17578-.11719.69922v.17187l.1172.17579.29296.29296h.40625l.17578.1172.11719.17187.11719.29296v.23438h-.52735l-.23047-.23438h-.23437l-.17578.0586-.0586.69922.0586.34765.11719.17579.17578.41015.11718.23047.28907.46875.17578.05469h.52344l.23437.0586.75781.64062.0586.29296v.23438l.05859.0586.23047.34765v.35156l-.11719.17188v.29297l.29297.28906.29297.17578.17187.0586.29297.17577.29297.1172.58203.40624.28906.23438.29297.17578.21875.16015.01563.01172.23047.17579.64062.52343.17578.23438.1172.17578.17577.17578.11328.17188v.64062l.1172.17578.46874.11719.58203.11719.23438.05859.23047.11328.29297.11719.11328.0586.58593.35156.28907.17187.17578.0625.17578.05469.17578.0586.69922.35155.28906.17579.23438.05468.28906.17578.23437.1172.64063.40624.29297.11719.17187.0586.23438.05859.41015.05859.23047.0586.23438.11718.0586.17188-.41017.17578.46875.0586.0586.29296.11328.23438.17578.05468.23438.0586.17578.05859.40625.11719.64062.23437.11719.17188.0586.23437v.17578l-.0586.1172-.0586.40624.23438.23438.11719.05859.34766.11719.64062.23047.17578.11718.28906.1172.17578.17577.23438.46485.58203 1.10546.17578.17579.34766.17578.17578.11719.35156.11718 1.04688.52344.23437.0586.46485.11327.29297.0586.46484.17578.75781.58203.23438.23438.34765.46484.17578.17578.28907.23438.8164.69921.29297.17579.28906.28906.29297.17578.29297.28906.69531.64063.17578.17578.29297.23437.28907.23438.46875.28906.64062.58203.34766.23438.23437.29297.34766.34765.35156.46485.9336.99218.34765.40625.11719.17579.23437.05859.11328.11719.64454.17578.23047.11328.23437.0586.29297.17577.23047.1172.9336.69921.40624.40625.23438.17578.40625.17578.23437.11719.8164.34766.34766.23437.23438.11719.29297.28906.23047.11719.7578.35156.35157.17188.23047.05859.29297.11719.23437.0586.8711.17577h.8164l.46875.23047.17188.0586.875.69921.46484.1172.29297.05858.17578.0586.23047.0586.46875.05859.34766.05859.35156.0586.40625.05859h.29297l.17187.0586v.23046l.17578.17578h.29297l.34766.0586.35156.05859.69922.11719h.64063l.46484-.23438.29297-.17578.17187-.11719.41016-.17187.28906-.17578.9336-.46485.46875-.29297.52343-.29296.46485-.17188.46484-.17578 1.05078-.46485.28906-.11718.41016-.11719.28906-.11719.52735-.17578 1.51562-.69922.58203-.34765.28907-.0586.29297-.0586.34765-.11718.875-.23047.35156-.11719h.11329l.23437-.05859.875-.23437.23438-.0586h.8125l.35156-.0586.8164-.11718.17188-.0586.35156-.05468.29297-.0586.23047-.05859.8164-.17578.17579-.0586h.34765l.23438-.05859.46484-.11718.75781-.17188.23438-.0586h.34765l.41016-.11718.28906-.0586 1.28516-.05859h.28906l.41016-.0586.23047-.05858h.17578l.875-.1172h.40625l.41015-.11718h.34766l.35156-.11328.8711-.0586h1.75l1.04687.28907.41016.11719.28906.11718.35156.11719.28907.11719 1.05078.17187.28906.0586h.29297l.29297.05859.17187.0586.41016.05859.17187.0586.1172.05858h.11718l.11719.0586.35156.0586h.11328l.41016.0664 1.92187.39453 1.92578.39453 1.51953.44922 1.69532.71875 2.14453.80469 1.60547-.71875 1.42968-.80469 1.16016-1.07813 1.25-.44921 3.03516-.71875 1.875-.35938 2.14453-1.34765 2.23437-1.25391 2.5-1.25781 1.69531-.44922 1.78516-.17969 1.16016-.26953.625.53906 1.33984-.26953.71485-.98828.98437-1.34375.44531-.17969.80469-.35937 1.875-.53907 1.78516-.44921 1.25-.26954 1.16015-.08984 1.69922-.08984 1.96094-.26954 1.25-.08984h.53906l.625-.08984h.89063l2.14453-.17969 2.41015-.17969 2.58985-.08984 1.69531.17969 1.60938.08984 1.42968.35938 1.16016.71875 1.875.98828 1.16015 1.52734.26563.71484.6289.08985.35548.89844.53515.53906.53516 1.52734 1.07422.35938h.53515l-.80469.53515.08985 1.70703.71484 2.69532.89063.80468.89453.98829.71484 1.2578 1.78516.53907 1.51953-.17969.35547 1.34375 1.60937-.80469.98047-.53906.26953.26953.31641-.21484.21875-.14453.80078.44922.44922-.35938h.35547l.53515-.26953.53907-.71875.53515-.26953.625-.98828 1.16016.44922.83984.3711 1.39454.61718 1.6953-.17969h1.60548l1.78515.08985.17969-1.70704.53516-1.34375.80468.26954.4922.84765.40233.40625-.08984.53906v.35938l.71485.44922.71093-.26953h1.42969l.35938.98828.4453 1.25781.71485 1.34375 1.25.6289 1.69531.62891.71485-.17969.17969-.53906.98046-.08984.44922.35937.08594 1.25782-.26563.6289-.53515.17969v.53906l.71484.98438.26563.53906.98437.98828.80078 1.07813-.26562.35937-.08985.89844-.625 2.33203-.35546 2.0664-.08985 1.79298-.17969.71875-.08984.53906v1.4375l-.98047 1.88281-.35937 1.70703-.53516.89844-.80469 1.16797-.26562.53906 2.05469 1.2539.08593.35938-.35546.53906-.08985-.17968v.80859l.08985 1.4375-.44532.71484-1.07422.09375-.26562.71485.53515.89844.8047.71875 1.16015.80859 1.33984.26953.44531.35938-.35546.44921-1.78907-.08984-1.25-.44922-.71484-.71875-.625-.08984-.17578 3.58984-.1875 1.3086h89.35937V311.70313h-55.26953v49.08203l.76172.125 3.28906.54296 2.02344 2.83594v2.7539l2.35156.33204 2.34766.33203h4.05078l-1.3789 4.16016-2.02344.70703-2.02344.70312-.54297.34375-2.59375 1.6172-.1875.11718-2.02344-2.07813-.73046-2.74218-2.67188-2.07813-1.375-3.5-.0664-.08203-1.95704-2.67188 2.75-1.41796v-49.08204H294.42187v91.41407l.1172.03125.1328.01172.07422.07421.10547.04688.08985.0586.08593.05859.08985.0586.29687.29687.0586.08984.03125.11719.02734.11719.01563.13671-.03125.1172-.0586.08983-.0586.08594-.04296.10547-.04688.10156-.02734.1211v.14453l.17578.26953.14844.14844.07422.08594.07422.07421.04296.10547.0625.08985.0586.08593.04297.10547.0586.08985.04687.10156.04296.10547.0586.08594.11719.17968.07421.07422.0625.08594.0586.08984.04297.10547.0586.08985.05858.08593.0625.08985.0586.08984.04297.10156.11719.17969.07421.07422.0586.08594.07422.07421.08984.0586.10547.04687h.14844l.1328-.01562.13282.01562.10156-.04687.07422-.07422.04688-.10156-.01563-.13281v-.14844l-.04687-.10547-.02735-.11719-.04687-.10156-.02735-.1211-.04296-.10156-.0625-.08984-.04297-.10156-.04297-.10547-.03125-.11719-.01563-.13281-.01171-.13672.08593-.0586.0586-.08593.12109-.03125.04297.10547.01562.1328v.1172l.0586.10156.0586.08984.08983.0586.14844.14843.0586.08985.04296.10547-.01171.10156.08593.0586.10547.04687.08594.0586.08984.05858.07422.07422-.11719.02735-.10546.04687-.08594.0586-.07422.07421-.0586.08985-.0625.08594-.02734.12109-.04687.10156-.04297.10547-.03125.11719-.01172.13281-.01563.13281v.14844l.02735.11719.04687.10547.04297.10156.0586.08984.07421.07422.08985.0586.07422.07421.08984.0586.0586.08984.04296.10547.04688.10156.11719.03125.1328.01563h.14845l.11718-.03125.10547.04297.04297.10547.04688.10156.02734.1211L299.5 410l.02734.11719.03125.1211.02735.11718.10547.04297.10156.04687.13281-.01562.14844.14844.0625.08593.07422.07422.07031.07422.08984.0625.10547.04297.10156.04297.1172.03125.13671.01562.11719-.03125.07422-.07422.02734-.11718-.01172-.13282-.03125-.12109-.02734-.11719.04297-.10547h.11719l.08984.0625.11719.02735h.14843l.13282.01562h.14843l.13282.01563.1328-.01563h.14845l.1328-.01562.13282-.01172.13672.01172.11719-.02735.13281-.01562.1914-.0586-.05859.17579-.01562.1328-.02735.1211-.01562.13281-.0586.08594-.1328.01563-.10548.04687-.10546.04297-.1172.03125-.11718.02735-.26563.03125h-.14843l-.13281.01562-.07422.07422.05859.08594.14844.14843.11719.1797.07421.0703.08985.0625.08984.0586.08594.0586.08984.05858.10156.04297.10547.0625.10547.04297.08594.0586.10547.04687.10156.04297.17969.11719.0586.08984-.04298.10156-.04687.10547.01562.13281.22266.22266.0586.08985.04296.10156.03125.1211.04297.10155.01563.13282.03125.11718.01171.13672.03125.11719.14844.14844.10156.04297.10547.04296.1172.03125.1328.01563.13672.01563h.11719l.11719-.03125.08984-.0586.04297-.10547.04688-.10156.04296-.10547.03125-.11719.01172-.1328v-.14845l-.01172-.1328-.01562-.13282-.03125-.11719-.04297-.10547-.04688-.10547-.04296-.10156-.04297-.10547-.01563-.13281.01563-.13281.02734-.11719.03125-.11719.02735-.1211.04687-.10155.08984-.0586.08594-.0625.07422-.07422.08984-.05859.22266-.22266.0586-.08593.07421-.07422.11719-.17969.0586-.08594v-.14844l-.07423-.07421-.10156-.04688-.10547-.04297-.10156-.04297-.0586-.08984-.04687-.10547-.02734-.11719.08984-.05859.11719-.03125.10156-.04297.17969-.11719.14844-.14843.01172-.13282-.01172-.10546-.08985-.0586-.1328.01563h-.14845l-.1328.01562-.13282-.01562-.1211-.03125-.08593-.0586-.07422-.07422-.0586-.08984-.0625-.08594-.11718-.17969-.0586-.08593.03125-.1211.08594-.05859.1211-.03125.05859-.08594v-.1211l-.03125-.11718-.0586-.08984-.05859-.08594-.04687-.10547-.02735-.11719-.01562-.1328.0586-.08985.07421-.07422.08984-.0586.1172-.17968.07421-.07422.0586-.08594.14843-.14844.1211-.03125.1328-.01562.13282.01562.07422.07422.04297.10547.01562.13281-.03125.1172-.11719.03124-.1328.01172-.14844.14844-.04297.10547-.04688.10156-.02734.1211-.03125.11718v.14844l.03125.11719.04297.10546.05859.08985.07422.07031.07422.07422.11719.03125.12109.02734.11719-.02734.1328-.01563h.1172l.08984.0586.07422.07422.04687.10546.0586.08594.10156.04688.13281.01562.10547.04297.08594.0586-.01172.10546-.07422.07422-.17969.11719-.05859.08984-.08984.0586-.07032.07422-.07421.07421-.0625.08985-.02735.11719-.01562.1328.01562.13282-.01562.13281v.14844l.01562.13281.02735.1172.03125.12108.07421.07422.08985.0586.08594.0586.08984.05858.11719.03125v.08594l-.10157.04688-.08984.0586-.26563.03124-.11718.02735h-.14844l-.10547.04296-.10156.04688-.0586.08984-.0625.23438-.01171.13281-.03125.1211-.01563.1328v.29298l-.01172.1328.01172.13673.01563.1328.1328.01563.13282.01172.1211.03125.08593.0586.07422.07421.04688.10547.04296.10157.01563.1328v.44532l-.01563.13281v.44532l.03125.26562.02735.11719.01562.13281.03125.11719.08594.21094.03125.26562v.14844l-.03125.11719-.02734.11718-.03125.1211-.02735.11719-.03125.11718-.03125.1211-.01171.1328-.01563.13282.08984.0586.1172-.03125.10155.01562.04688.10547-.03125.26562v.44141l-.04297.10547-.04688.10547-.04296.10156-.04297.10547-.0586.08594-.03125.12109-.04296.11719-.03125.11719-.01563.1328.01563.13282.05859.08984.10547.04688.08594.0586.05859.08593-.01172.13672-.03125.11719-.04297.10156v.44531l-.01562.13281v.14844l-.03125.11719-.04297.10547-.02735.11719-.04687.10546-.04297.10157-.03125.12109-.02734.11719-.03125.13281-.03125.11719-.02735.11719-.04297.10546-.03125.1172-.03125.12108-.01171.13282-.01563.13281v.29688l.02734.11718v.14844l.04688.39844.02734.11719.0586.08984.12109.03125h.14844l.13281-.01563.0586.08985v.11719l-.0586.08984-.08984.0586-.10157.04296-.10546.04688-.08985.05859-.08594.0586-.13671.01562-.1172-.03125-.1328-.01563-.10157.04688-.0625.08594-.01172.13671-.01562.13282-.03125.11719-.02735.11718-.01562.13281-.03125.1211v.29687l.01563.13282.03125.11718v.14844l.01171.13281v.14844l-.02734.11719-.04688.10156-.02734.1211-.03125.11718-.0586.08985-.07421.07421-.10156.04297-.10547.04688-.11719.02734-.1211.03125-.10156-.04687.0586-.08594.10547-.04688.02734-.11718.03125-.11719.02734-.1211.03125-.11718v-.14844l.01563-.13281-.03125-.11719-.04297-.10547-.10547.01563-.07422.07422-.10156.04296-.08984.0625-.07422.07422-.04297.10157-.01563.1328-.03125.1172L304.25 426l-.03125.11719-.02734.11719-.03125.12109-.02735.11719-.03125.11718-.04297.10547-.08984.0586h-.08984l-.1172-.03125-.03124-.08594.01562-.13672-.03125-.11719v-.14844l-.01171-.1328v-.14844l-.0625-.23438-.02735-.1211-.04297-.10156-.04687-.10546-.0586-.08594-.05859-.08985-.04297-.10546-.0625-.08594-.14844-.14844-.0703-.07422-.10548-.04687-.10547-.04297-.10156-.04297-.29687-.29688-.08985-.07421-.08594-.0586-.10546-.04297-.08985-.0625-.08594-.0586-.10546-.04296-.08985-.0586-.08594-.0625-.07421-.0703-.10547-.04688-.08594-.0586-.10547-.04296-.08984-.0625-.10156-.04297-.10547-.04297-.08594-.0586-.10547-.04687-.10547-.04297-.10156-.04687-.08985-.0586-.10156-.04297-.10547-.04296-.08984-.0625-.11719-.02735-.13281-.01562-.13281.01562H299.75l-.13281.01563-.11719-.03125-.08984-.0586-.07422-.07422-.08985-.05859-.10156-.04688h-.14844l-.12109-.02734-.10156-.04297-.07422-.07422-.11719-.17968-.08984-.0586-.10156-.04297-.08985-.0625-.10547-.04296-.08984-.0586-.08594-.0586-.10547-.04687-.0586-.08594-.05858-.08984-.04297-.10547-.04688-.10156-.07422-.07422-.08594-.0586-.07421-.07421-.08985-.0586-.22265-.22265-.04297-.10547-.03125-.26563.10547-.04296h.14453l.10547.04296.07421.07422.08985.0586.08594.0586.10546.04687.08985.05859.14844.14844.0703.07422.14845.14843.0625.08594.07421.07422.08594.0586.07422.07421.08985.0625.08984.0586.08594.05859.26953.17578.10156.04688.10547.04296.10156.04297.04688-.07421.05859-.08594.07422-.07422.07031-.07422.10547.04297.07422.07422.0586.08984.04296.10156.04688.10547.04296.10547.1211.02735.11719-.02735.07421-.08984.04297-.10547.0586-.08985.07422-.07421.10546-.04297.1172-.02735.1328.01172.08985.0586.14844.14843.05859.08985.04297.10547.04687.10156.04297.10547.04297.10156.10547.04688.10547.04296.13281.01563.08594-.0586.0586-.08984.07421-.07422.10547-.04297.11719.02735.10547.04687.10156.04297.10547.04297.10156.04688.17969.11718v.11719l-.01563.13281.01563.13281.01562.13672.0586.08594.10156.04688.1211.02734.11718.03125h.14844l.11719-.03125.05859-.08984.17969-.1172.05859-.08983.07422-.07422.0586-.08594.11718-.17969.17969-.11719.11719.03125.08984.0586.04297.07422-.01563.1328v.1172l.08985.05859h.14843l.13282-.01563.1328-.01171.26563-.03125.10547-.04297.11719-.03125.1211-.02735.07421-.07421.07031-.07422.0625-.08985-.01562-.10547-.04688-.10156-.10156-.04297-.10547-.01562-.11718.02734-.26563.03125h-.14844l-.07421-.07422-.08985-.0586-.11719-.03124-.11718-.02735-.13282-.01562h-.14843l-.13282.01563h-.29687l-.10547-.04688-.14844-.14844-.04297-.10156-.05859-.08984.22266-.22266.08593-.0586.10547-.04296.11719-.03125.13281-.01563.13281.01563.13672.01562.10157.04297.1328-.01172.08985-.0625.10156-.04297.0625-.08984-.04687-.10156-.08984-.0586-.1172-.03125-.10155-.04296-.0586-.08985-.0625-.08984v-.11719l.01563-.13281.10547-.04688.07421-.07031v-.1211l-.08984-.05859-.03125-.11719.08985-.05859.07421-.07422.04297-.10547.0586-.08984.04687-.10156.01563-.13281v-.14844l-.04688-.10547-.04297-.10156-.08984-.0586-.13281-.01562-.10157-.04297-.13671-.01563-.1172-.03125h-.4453l-.13282-.01562-.13281-.01172-.13281-.01563-.11719-.03125h-.14844l-.13281-.01562-.13281-.01172-.26563-.03125-.1211-.04297-.08593-.0586-.07422-.07421v-.14844l.01172-.13281.10547-.04688.10156-.04296.13281-.01563h.15235l.13281-.01562h.29297l.1211.03125.10156.04296.08984.0586.23438.0625.12109-.04688.08984-.05859.10156-.04297.13282-.01562.10547.04296.10156.04688.13281.01172.1211-.02735h.14453l.12109-.03125.11719-.02734.10547-.04687.07421-.07422.08594-.0586.14844-.14843.0586-.08594.04687-.10547.02734-.11719.01563-.10547-.10156-.04296-.08985-.0586-.11719-.03125-.10546-.04297-.08985-.0625-.07422-.08594-.07422-.07421-.10156-.04297-.10547-.04688-.10156-.04297-.0586-.08984-.04687-.10156-.08594-.21094-.0625-.08594-.05859-.08984-.07422-.07422-.08594-.0586h-.26953l-.11719.03126-.08984.05859-.10156.04297-.13281.01562-.10547-.01562-.02735-.11719-.0625-.08984-.11718-.03125-.10157-.04297-.14843-.14844-.03125-.11719-.01563-.10546.07422-.07422.17969-.1172.11719-.02733.11718-.03125.13672.01562.10156.04297.10547.04297.10156.04687.10547.04297.1172.03125.1328.01563.1172.02734.1328.01563.10547-.01563.08985-.0586-.07422-.07421-.10547-.04297-.07422-.07422-.07422-.08984-.14844-.14844-.08593-.0586-.08985-.05859-.07422-.07422-.08984-.0586-.10156-.04687-.1211-.02734-.10156-.04688-.10547-.04296-.11719-.03125-.10156-.04297-.1211-.03125h-.14843l-.11719.03125-.10546.04297-.08594.0625-.17969.11718-.08594.0586-.08984.0586-.10547.04687-.08594.05859-.10547.04297-.10156.04297-.10547.04687-.07422.07422-.05859.08985-.0586.08593-.04687.10547-.0586.08594-.07421.07422-.13281-.01172-.1172-.03125h-.11718l-.07422.07422-.08984.0586-.07422.07421-.08984.0586-.08594.05859-.10547.04687-.10156.04297-.13672.01563-.10156-.04297-.14844-.14844-.10547-.04688h-.08594l-.10547.04688-.10156.04297-.1211.03125-.11718-.03125-.07422-.07422v-.11719l.03125-.1211.07422-.0703.0586-.08985.07421-.07422.11719-.03125.10547-.04296h.29297l.13281-.01563.13672-.01563.10156-.04296.08985-.0586.10156-.04687.08984-.0586.13281-.01171.08985.05859.13281.01172.08984-.0586.08594-.05859.10547-.04297.08984-.0586.08594-.0625.08985-.05859.14843-.14843.0586-.08594.05859-.08985.10547-.04296.13281-.01563.11719.02735.1211.03125.05859-.0586.05859-.08984.03125-.26563.02734-.11719.10547.01172.13281.01563.10157-.04297.08984-.0586.0586-.08984.07421-.07422.0586-.08984.04687-.10156.01172-.13281-.01172-.13282-.04687-.10547-.14844-.14843-.0586-.08985-.05859-.08594-.04297-.10546v-.44532l.01563-.1328v-.14845l.01172-.1328-.0586-.0586-.08984.0586-.10156-.04298-.17969-.11719-.08594-.05859-.0625-.08984-.0586-.08985-.07421-.07421-.08594-.0586-.1211.03125-.10155.01172-.10547.04688-.08594.05859-.10547.04297-.14844.14844-.08984.05859-.08594.0586-.08984.0625-.10547.04296-.13281.01563v-.1211l.10547-.04297.11718-.03125.07422-.0703.04297-.10548v-.14844l-.02734-.11718-.14844-.14844-.13281-.01563h-.14844l-.11719.03125-.10547.04297-.10156.04297-.08984.0625-.11719.02735-.07422-.07422.01172-.13281-.04297-.10157-.04297-.10547-.08984-.05859-.11719.02734-.1211.03125-.11718.03125-.10156.04297-.1211.03125-.10156.04297-.10547.04297-.08984.0586-.10156.01562v-.11719l.01562-.13281-.0586-.08985-.07421.04297-.14844.14844-.0586.08985-.07421.07421-.04688.10547-.04296.10156-.07422.07422-.0586.08985-.07422.07422-.05859.08593-.07422.07422-.08984.0625-.07422.07031-.07422.07422-.10156.01563-.13281.01562-.10547-.04296v-.1211l.14843-.14844.04297-.10156.0586-.08984.04687-.10156.04297-.10547.0586-.08985.03124-.11719.04297-.10156.03125-.1211.02735-.11718.04687-.10547.04297-.10156.04297-.10547.07422-.07031.08984-.0625.08985-.0586.10156-.04296h.29687l.26563-.03125.10547-.04297-.07422-.07422-.11719-.03125-.10547-.04297-.08984-.0586-.10156-.04687-.08985-.0586-.10156-.04296-.10547-.04297-.08984-.0625-.08594-.0586-.10547-.04296-.10156-.04297-.1211-.03125-.11718-.03125-.10157-.04297L297.5 410.25l-.10156-.04297-.08985-.0586-.04296-.10546-.01563-.13281.10156-.04297.13281-.01563.13672.01563.13282-.01563.10156-.04297.0586-.08984.01562-.10547-.08985-.0586-.07421-.07421-.10157-.04297-.08984-.0586-.14844-.14843-.04297-.10547-.01562-.13281v-.29297l-.0586-.08985-.08984-.05859-.07422-.07422-.04297-.10547-.03125-.11718-.0586-.08985-.07421-.07422-.11719-.02734-.07422-.07422-.08984-.0586-.08984-.0625-.08594-.05859-.07422-.07421-.0586-.08594-.04687-.10547-.08594-.0586-.14843-.14843-.19532-.0586-.1328.01563-.10157.04297-.07422.07422-.04688.10156-.04296.10547-.0586.08984-.0586.08594-.29687.29687-.08984.0586h-.08594l-.0625-.08594-.04297-.10547.03125-.11719.0586-.08984.02734-.11719-.01172-.13281-.08984-.0625-.10547.04688-.11719.02734-.11719.03125-.26953.17578-.10156.04688-.11719.02734-.10546.04687-.08985.0586-.10156.04297-.0586-.08594-.04687-.10547.01563-.13281.04687-.10547.07031-.07422.07422-.07031.0586-.08985v-.14843l-.04297-.10547h-.23829l-.10156.04687-.03125.11719-.02734.11719-.03125.1211-.07422.04296-.13281.01563-.07422-.04688-.04297-.10156-.04297-.10547-.04687-.10156-.04297-.10547-.1211.03125-.10156.04297-.13281.01562-.11719.03125-.10547.04297-.08984.0586-.10156.04687-.1211.02734-.13281.01563-.10156-.04297-.0586-.08985-.04687-.10546-.04297-.10157-.04297-.10546v-.1172l.0586-.08984.08593-.05859.17969-.11719.10156-.04687.10547-.04297.10547-.0586.10156-.04296.08985-.0625.10156-.04297.10547-.0586.10156-.04687.08984-.0586.10547-.04296.10156-.04297.08985-.0625.10156-.04297.13672-.01563.11719.03125.10156.04297.1211.03125.10156.04297.10546.04688.10157.04296.10547.04297.10156.04688.10547.04297.10156.04297.10547.04687.08594.0586.10546.04296.1172.03125.10546.04297.10156.04688.08985.0586.10547.04296.10156.04297.10547.04687.11719.02735.10156.04687.1211.02735h.14843l.08594-.0586.01562-.10156.0586-.08984-.02735-.1172-.07422-.07421-.11719-.17969-.07421-.07422-.08985-.07421-.17969-.1172-.08593-.05859-.10547-.04296-.10156-.04688-.26954-.17578-.05859-.08985-.07422-.07421-.0586-.08985-.04296-.10156-.03125-.11719-.01563-.13672v-.5625l-.01171-.1328-.01563-.13282-.03125-.11719-.01562-.13281-.01172-.13281-.03125-.1211-.22266-.22265-.0586-.08594-.01562-.10547.03125-.11719.13281-.01562v-91.41406H172.9922v1.45312l-.0586.23438-.35156 1.05078-.17187.52343-.1172.34766-.17577.41016-.11719.17187-.23438.29297-.23046.0586h-.35157l-.11718.05859-.23047.40625v.29297l.11719.17578.23046.23047.1172.23437.64062.75781.29297.46485.17578.23437.23047.35156.23437.34766.64063.8164.17578.46485.17187.41016.11719.69531.17578.46875.11719 1.39844.0586.46484v.875l.11718 1.04688v4.78125l-.0586.46484-.35156 1.28125-.17578.52344-.11328.41015-.35156.9297L172.93359 336l-.23437.58203-.11719.17578-.17187.34766-.17578.40625-.35157.8164-.0586.29297-.11327.29297-.11719.28906-.0586.17579-.11718.875-.0586.40625-.05859.11718-.0586.17579-.05859.17187-.23047.52734-.11718.17188v.23437l-.11719.23438-.0586.17187-.17577.58594v.28906l-.0586.17579v.29296l-.0586.11329-.05859.52734v.17187l-.05468.23438v2.6211l-.17578.8164-.1172.17578-.17577.23438-.1172.17187-.11327.23438-.58594.93359-.23047.28906-.29297.46485-.17578.23437-.28906.35156-.35156.69922-.11328.23047-.17579.41016-.17578.23046-.40625.52735-.8164.69922-.29297.17187-.28906.23438-.17579.11719-.17578.17578-.52344.40625-.52734.17578-.17187.17578-.23438.05469-.64062.17578h-.75782m12.21094 31.02344l-1.07422.44921.35938.89454 1.25-.71485.44531-.53906-.98047-.08985"/><path fill="#d3d3d3" fill-opacity="0" fill-rule="evenodd" d="M201.50781 416.59766h-.89453l.44922.6289.98047.35938.80469-.08985.4453-.98828-.17577.08985-.71485-.35547-.89453.35547m154.6211 59.0703l-.0586-.52343v-.29297l.11328-.29297.0586-.23046.46875-.46875h.11328l.11719-.11329.11718-.05859h.17579l.23437-.0586h.34766l.23437.0586.11719.0586.23047.17187.0586.17578.11718.58203v.29297l-.11719.17578-.17187.28906-.17579.17579-.52734.52343-.23047.23438-.11719.0586h-.17578l-.11718-.0586-.40625-.29297-.17579-.11719-.11718-.0586-.0586-.11327-.05468-.1172m6.64062-10.95702l-.0586-.17188v-1.10937l.0586-.17188.17578-.0586.17188-.05858h.17578l.23437-.0586.1172.0586.05858.69921-.05859.17188-.11719.17578-.11718.0586-.23438.52343-.11328.0586h-.23438l-.05859-.1172m9.61328-14.39062l-.11719-.17578v-.69922l.29297-.875.1172-.17187.17577-.35156.11328-.23047.1172-.29297.35155-.75781.1172-.23047.17187-.23438h.17578l.11719-.0586h.64062l.11719.0586.23437.23438.17188.11328.35156.29297.11719.11718.11328.17579v.11328l.11719.05859.11718.11719v.69922l-.05859.17578v.23047l-.0586.17578-.34765 1.05078-.11719.23047-.11719.23437-.11718.0586-.23047.23437-.64063.28906h-.875l-.41015-.11718-.64063-.46485"/><path fill="none" stroke="#bebebe" stroke-linecap="round" stroke-linejoin="round" stroke-miterlimit="10" stroke-width=".5" d="M467.95703 311.69531H144.02734v168.625h323.9297v-168.625"/><g clip-path="url(#a)"><path fill="#fff" fill-opacity="0" fill-rule="evenodd" d="M144 475.89063v4.4375h.0039H144V311.67188h.0039H144v164.21875"/></g><g clip-path="url(#b)"><path fill="#fff" fill-opacity="0" fill-rule="evenodd" d="M144.0039 480.32813V311.67188h57.69532v71.3164l-4.4375 2.54688-1.58594 1.58984-.23437 4.4375.78906 4.4375-3.41016 1.10938L191.01562 396l-2.6328-2.4961-1.1875-1.9414-3.25-3.24219-3.88282 3.24219-.55469.39453-4.4414 1.17969L172.22656 396l-1.59765 2.84375-1.60157 1.59375 1.60157 2.76953 4.4375 1.53516.3789.13281-.3789.07813-4.4375.43359-3.96875 3.92969-.46875.51171-4.4375 2.39844-1.90625 1.52735-2.53125 1.9414-2.8672 2.4961-1.11327 4.4375.58594 4.4414 3.39453 3.60156 4.4375.45704 2.83203.3789 1.60547 1.0586 3.24218 3.3789 1.19532 1.10547 4.4375 2.28906 4.4414.58985 4.4375.21875 4.4375-.10547 4.4375-1.66016 3.23828-2.4375 1.20313-.66406 4.4375-1.83984 3.47656-1.9336.96094-.14062 4.4375-.7539 4.4414-.98048 4.4375-.67187 4.4375 1.70312 2.25391.84375 2.1836 1.25 1.35937-1.25 2.19531-4.4375-3.55469-1.85547-4.4375-1.64843-4.4375-.67579-.05468-.26171-1.01563-4.4375.34375-4.4375-.33203-4.4375-3.3789-2.04297-1.20313-2.39844.76563-4.4375L212.6328 396l-2.0586-2.08594-4.4375-.63672-1.58202-1.71484-.52344-4.4375-2.33203-4.13672v-71.3164h26.6289v64.51562l-2.4375 2.0586 2.4375 2.78906 4.0547-2.78907-4.0547-2.05859v-64.51563h22.19141v128.34375l-.6875.3672.6875.2539 1.70313-.2539-1.70313-.3672V311.67188h8.8789v128.6875l-.24609.02344.2461.03125.20703-.03125-.20703-.02344v-128.6875h13.3125v123.4336l-4.4375.73828-.15235.10156-2.23046 4.4375 2.3828.78516 4.4375-.32031 4.44141.20703 2.09375-.67188-2.09375-1.32812-1.88671-3.10938-2.5547-.83984v-123.4336h4.44141v60.10157l-2.41796 2.03515-.64844 4.4375 3.0664 1.94141 3.48438-1.9414-.15235-4.4375-3.33203-2.03516v-60.10156h71.01172v88.10546l-.9414.66016-3.4961 1.82031-2.57422 2.61719 2.57422 2.27734 4.4375.125 4.4375-.60937 1.63281-1.79297-1.6328-1.64844-3.76173-2.78906-.67578-.66016v-88.10546h22.1914V409.875l-3.28515 3.8789-1.15234 1.31641-4.4375 1.53125-1.90235 1.58985 1.90235 2.54296 4.4375.95313 2.0625.9414-2.0625 3.21094-.8711 1.23047-2.41015 4.4375-1.15625 1.75-2.44531 2.6875-1.9922 1.97266-4.4414-.77344-4.4375-.91406-2.9336-.28516-1.5039-2.15625-.9961 2.15625-.5703 4.4375 1.5664 4.07422 4.4375.3125.28125.05078 4.15625 2.54688 4.4414.89844 4.4375.35546 4.4375-.01171 2.66017.65234 1.77734 1.76953 1.77734-1.76953 2.66016-.64063 2.08984.64063 2.35156 2.53906 2.35547-2.53906-2.35546-2.39844-.61329-2.04297.38672-4.4375.22656-.34765 4.4375-2.17579 1.96094-1.91406 2.47656-.85547 4.4375-.97656 4.4375-.5039v24.01171l-4.4375.46485-.0625.05078.0625.07812 4.4375.39844.4961-.47656-.4961-.51563v-24.01171l4.44141-.8047 3.65625-1.29687-.61328-4.4375-3.04297-4.04297-4.4414 2.03516-3.29688 2.00781-1.14063.75781-1.09375-.7578-3.34375-1.92188-2.21875 1.92187-2.21875.75781-1.70312-.7578-.55078-4.44141-.30469-4.4375 2.5586-1.23829 1.39453-3.19921-1.39454-1.28907-4.4375.58985-4.4414-2.1875-4.4375-.99219v-98.20313h13.3164v85.67579l-3.13671 3.08984-.83985 4.4375 3.97656 2.64453 4.4375.17969 2.70704-2.82422-1.47657-4.4375-1.23046-1.23828-4.4375-1.85156v-85.67579h48.8203v69.6211l-1.66015 1.39062-2.77734 2.27735-3.95313 2.16406-.48437 2.7461-.51172-2.7461-3.92578-2.19531-4.4414-1.73828-4.4375.24609-4.4375.57422-4.4375-1.15235-4.44142 1.34375-2.92578 2.92188 2.92579 3.3086 4.4414.77734 4.4375-1.3125 1.91797 1.66406 2.51953 2.8086L412.41016 396l-2.10938.85938-3.45703 3.57812 3.45703 3.73438 4.4375-.88672v7.39453l-4.4375.75-3.61328 2.32422-.82422.60937-2.86719 3.82813 2.8672 2.98828v21.09765l-2.0625 2.54297 2.0625 2.0664 2.0625-2.0664-2.0625-2.54297V421.1797l4.4375.45703 3.80858-3.44531.62891-.95313 3.23047-3.48437-3.23047-3.07422v-7.39453l4.4414-1.02735.52344 2.61719 3.91407 3.51953 4.4375-2.98828.67187-.53125 3.08203-4.4375.6836-1.21875L435.3125 396l1.61719-1.21484 4.4414-1.3086.64063 2.52344 3.79687 4.1914 4.4375-1.07421L454.1875 396l.4961-1.22656 2.57421-3.21094-2.57422-3.58594-4.4375.40235-2.48828-1.25391-1.94922-1.95313-4.4375.51172-4.4414-2.49218-2.28125-.50782-2.15625-1.39062v-69.6211h35.5039v168.65625H144.00391"/></g><path fill="#50fcfc" fill-rule="evenodd" d="M153.92188 427.07031l-.58594-4.4414 1.11328-4.4375 2.86719-2.4961 2.53125-1.9414 1.90625-1.52735 4.4375-2.39844.46875-.51171 3.96875-3.9297 4.4375-.43358.3789-.07813-.3789-.13281-4.4375-1.53516-1.60157-2.76953 1.60157-1.59375L172.22656 396l2.83985-2.86328 4.4414-1.17969.55469-.39453 3.88281-3.24219v1.80078l-1.72656 1.44141-2.71094 1.92969-4.4414 2.29297-.21094.21484-2.27734 4.4375 2.48828 1.97266 4.4414 1.375 3.75781-3.34766.6797-.70313L187.85155 396l-2.46094-4.4375-1.4453-1.4414v-1.80079l3.25 3.24219 1.1875 1.9414v5.75l-1.25 1.1836-3.1875 3.05469-1.6211 1.38281 1.6211.26953 4.4375.08594.76171-.35547-.09375-4.4375-.66797-1.1836v-5.75L191.01562 396l1.8047 1.10938L196.23046 396l-.78906-4.4375.23437-4.4375 1.58594-1.58984V402.25l-1.42188 2.625 1.42188.57031 1.79687-.57031-1.79687-2.625v-16.71484l4.4375-2.54688V392.25l-2.67188 3.75-.67578 4.4375 3.34766 4.375.05078.0625-.05078.71484-4.4375.70704-3.55078-1.42188 1.6836-4.4375-2.57423-1.42188-1.60937 1.42188.52734 4.4375-3.35547 1.5625-4.4375-.53516-4.4375-.6914-4.4414 1.09375-4.4375 1.57422-1.44922 1.4375-2.98828 3.26171-1.60157 1.17579-2.83593 2.21093-2.51563 2.22657-1.92187 3.03125-.84766 1.40625.84766 3.02343.30859 1.41797 4.1289 2.54297 4.4375.05078 2.73048 1.84375 1.70703 1.74219 2.54687 2.69531 1.89063 1.30078 4.4414 1.33204 4.4375.28515 4.4375-.63672 3.40235-2.28125 1.03515-.6211 4.4414-2.9414 1.47657-.875 2.96094-.66406 4.4375-.77734 4.4375-1.78125 2.91406-1.21485 1.52734-.86719 2.32422-3.57421-1.7578-4.4375.23437-4.4375-.80078-1.5-1.4961-2.9375-1.9414-4.44141 1.1914-4.4375-2.19531-3.26172-4.4375-.75781-.91016-.41797-3.52734-3.75v-9.26172l2.33203 4.13672.52344 4.4375 1.58203 1.71484 4.4375.63672L212.63282 396l1.9453 4.4375-.76562 4.4375 1.20313 2.39844 3.3789 2.04297.33203 4.4375-.34375 4.4375 1.01563 4.4375.05469.26171 4.4375.67579v3.32421l-.375.1797.375.18359.35937-.1836-.35938-.17969v-3.32421l4.4375 1.64843 3.5547 1.85547-2.19532 4.4375-1.35938 1.25-2.18359-1.25-2.2539-.84375-4.4375-1.70312-4.4375.67187-4.44141.98047-4.4375.7539-.96094.14063-3.47656 1.9336-4.4375 1.83984-1.20313.66406-3.23828 2.4375-4.4375 1.66016-4.4375.10547-4.4375-.21875-4.4414-.58985-4.4375-2.28906-1.19532-1.10547-3.24218-3.3789-1.60547-1.0586-2.83203-.3789-4.4375-.45704-3.39453-3.60156"/><path fill="#00e8fc" fill-rule="evenodd" d="M157.3164 425.65234l-.84765-3.02343.84766-1.40625 1.92187-3.03125 2.51563-2.22657 2.83593-2.21093 1.60157-1.17579 2.98828-3.26171 1.44922-1.4375 4.4375-1.57422 4.4414-1.09375v1.45312l-4.4414 1.89063-1.51172.76172-2.92578 2.67578-1.625 1.76172-2.8125 3.03515-1.71485 1.40235-2.72265 2.40625-1.57422 2.03125 1.53906 4.4414.03516.01953.1289-.01953 4.3086-1.64453 1.57812 1.64453 2.85938 1.875 2.3789 2.5625 2.0586 2.14063 3.5 2.29687.9414.3789 4.4375.40235 2.64453-.78125 1.79297-.71875 4.4375-2.60937 1.48047-1.10938 2.96094-2.10547 4.4375-.375 4.4375-1.125 1.59766-.83203 2.83984-.92969 3.94922-3.51171-.75-4.4375-.67969-4.4375-2.51953-3.34375-4.4375-1.00391-4.4375 1.5039-2.00781-1.59374-2.4297-1.59766-3.41015 1.59766-1.03125.69921-1.95703-.69921-2.48047-.86329-4.4375-1.29296-4.4375-.4961v-1.45312l4.4375.6914 4.4375.53516 3.35547-1.5625-.52734-4.4375 1.60937-1.42188 2.57422 1.42188-1.6836 4.4375 3.55079 1.42188 4.4375-.70704.05078-.71484-.05078-.0625-3.34766-4.375.67578-4.4375 2.67188-3.75 3.52734 3.75.91016.41797v2.16797l-4.41797 1.85156 3.8164 4.4375.60157 3.6211.79297-3.6211 2.57422-4.4375-3.3672-1.85156v-2.16797l4.4375.75781 2.19532 3.26172-1.1914 4.4375 1.9414 4.4414 1.4961 2.9375.80078 1.5-.23438 4.4375 1.75781 4.4375-2.32422 3.57423-1.52734.86718-2.91406 1.21485-4.4375 1.78125-4.4375.77734-2.96094.66406-1.47656.875-4.4414 2.9414-1.03516.6211-3.40235 2.28125-4.4375.63672-4.4375-.28515-4.4414-1.33204-1.89063-1.30078-2.54687-2.69531-1.70703-1.74219-2.73047-1.84375-4.4375-.05078-4.12891-2.54297-.3086-1.41797"/><path fill="#00d4fc" fill-rule="evenodd" d="M161.71875 427.07031l-1.53906-4.4414 1.57422-2.03125 2.72265-2.40625 1.71485-1.40235 2.8125-3.03515 1.625-1.76172 2.92578-2.67578 1.51172-.76172 4.4414-1.89063v1.45703l-2.46094 1.19532-1.98046 1.74218-2.84766 2.69532-.9336 4.4375 1.29298 4.4375-.6211 4.4414 3.10938 3.28516 4.32422 1.15234.11718.0586.76563-.0586 3.67187-.10937.71094.10937 3.72656.8125 1.42578-.8125 3.01172-2.03125 3.92578-2.40625.51563-.1836 2.41797.1836 2.01953.13672.49219-.13672 3.9453-1.04297 4.4375-1.23437 2.4336-2.16406-.64453-4.4375-1.5664-4.4375-.22266-.29297-4.4375-1.50781-4.4375.67968-4.17578-3.3164-.26172-.17579-.3711.17579-4.0703 2.76562-4.4375-1.63281-1.98048-1.13281-2.45703-.89454-4.4375-.30078v-1.45703l4.4375.4961 4.4375 1.29296 2.48047.86329 1.95703.69921 1.03125-.69921 3.41016-1.59766 2.42969 1.59766 2.0078 1.59375 4.4375-1.50391 4.4375 1.0039 2.51954 3.34376.67969 4.4375.75 4.4375-3.94922 3.51171-2.83984.9297-1.59766.83202-4.4375 1.125-4.4375.375-2.96094 2.10547-1.48047 1.10938-4.4375 2.60937-1.79297.71875-2.64453.78125-4.4375-.40234-.9414-.3789-3.5-2.29688-2.0586-2.14063-2.3789-2.5625-2.85938-1.875-1.57812-1.64453-4.3086 1.64453-.1289.01953-.03516-.01953"/><path fill="#00c4fc" fill-rule="evenodd" d="M172.57813 422.6289l-1.29297-4.4375.93359-4.4375 2.84766-2.6953 1.98047-1.7422 2.46093-1.1953v1.5703l-4.4414 4-.0625.0625.0625.38282.3125 4.05469-.16016 4.4375-.15234 1.94921-.48047 2.4922.48047.5078 4.4414 1.84766 4.4375-.07812 4.4375.01171 3.19531-2.28906 1.2422-.6836 4.4414-1.48827 4.4375.16015 4.4375-.72656 4.4375-.88672.91797-.8164-.53906-4.4375-.37891-1.01563-4.4375-2.71094-4.4375-.26171-.94531-.44922-3.4922-2.64063-3.86718 2.64063-.57422.3164-.99219-.3164-3.4453-1.32032-4.4375-2.64453-4.4375-.09765v-1.57032l4.4375.30079 2.45702.89453 1.98047 1.1328 4.4375 1.63282 4.07031-2.76562.3711-.17579.26172.17579 4.17578 3.3164 4.4375-.67969 4.4375 1.50782.22266.29297 1.5664 4.4375.64453 4.4375-2.4336 2.16406-4.4375 1.23437-3.9453 1.04297-.4922.13672-2.01952-.13672-2.41797-.1836-.51563.1836-3.92578 2.40625-3.01172 2.03125-1.42578.8125-3.72656-.8125-.71094-.10937-3.67187.10937-.76563.0586-.11719-.0586-4.32421-1.15234-3.10938-3.28516.6211-4.4414"/><path fill="#00e8fc" fill-rule="evenodd" d="M175.0664 402.41016l-2.48827-1.97266L174.85547 396l.21094-.21484 4.4414-2.29297 2.71094-1.92969 1.72656-1.4414 1.44531 1.4414L187.85156 396l-3.90625 3.73438-.67969.70312-3.7578 3.34766-4.44141-1.375"/><path fill="#00b8fc" fill-rule="evenodd" d="M175.0664 427.57813l-.48046-.50782.48047-2.49219.15234-1.94921.16016-4.4375-.3125-4.0547-.0625-.3828.0625-.0625 4.4414-4 4.4375.09765v1.6289l-4.4375.375-2.17187 1.96095-.72656 4.4375-.35547 4.4375 2.68359 4.4414.57031.25 4.4375-.02344 1.44531-.22656 2.9922-.16797 4.4375-2.78906 4.4414-1.20312 4.4375-.02735 4.4375-.25.02734-.0039 1.85156-4.4375-1.8789-1.30079-4.4375-1.40234-3.65234-1.73437-.78516-.59766-.875.59766-3.5664 1.97656-4.4375-1.47656-.84376-.5-3.59375-2.33594v-1.6289l4.4375 2.64452 3.44531 1.32032.9922.3164.57421-.3164 3.86719-2.64063 3.49219 2.64063.9453.44921 4.4375.26172 4.4375 2.71094.37892 1.01563.53906 4.4375-.91797.8164-4.4375.88672-4.4375.72656-4.4375-.16015-4.4414 1.48828-1.2422.6836-3.1953 2.28906-4.4375-.01172-4.4375.07812-4.44141-1.84765"/><path fill="#00a8fc" fill-rule="evenodd" d="M178.9375 427.07031l-2.6836-4.4414.35548-4.4375.72656-4.4375 2.17187-1.96094 4.4375-.375v1.63281l-3.84375.70313-.59375.21093-1.66406 4.22657-.55078 4.4375 2.21484 3.14453 4.4375 1.01953 4.4375-.61719 4.14453-3.54687.29297-1.86329 4.4414-1.2539 4.4375 1.14453 3.125-2.46484-3.125-1.41797-4.4375-.08594-4.4414.70313-4.4375-1.65235-3.35547-1.98437-1.08203-.70313v-1.63281l3.59375 2.33594.84375.5 4.4375 1.47656 3.5664-1.97656.875-.59766.78517.59766 3.65234 1.73437 4.4375 1.40235 1.8789 1.30078-1.85156 4.4375-.02734.0039-4.4375.25-4.4375.02735-4.4414 1.20312-4.4375 2.78906-2.9922.16797-1.4453.22656-4.4375.02344-.57032-.25"/><path fill="#009800" fill-rule="evenodd" d="M179.50781 425.77344l-2.21484-3.14453.55078-4.4375 1.66406-4.22657.59375-.21093 3.84375-.70313v1.13281l-4.4375 2.91407-.42969 1.09375-.74609 4.4375 1.17578 1.66796 4.4375 2.1836 4.4375-1.03125 3.29297-2.82031-.82031-4.4375-2.47266-.96875-4.4375-3.03907v-1.1328l1.08203.70312 3.35547 1.98437 4.4375 1.65235 4.4414-.70313 4.4375.08594v1.28515l-.625.13282.625.23437.29298-.23437-.29297-.13282v-1.28515l3.125 1.41797-3.125 2.46484-4.4375-1.14453-4.4414 1.2539-.29298 1.86329-4.14453 3.54687-4.4375.61719-4.4375-1.01953"/><path fill="#00ac00" fill-rule="evenodd" d="M179.50781 424.29688l-1.17578-1.66797.7461-4.4375.42968-1.09375 4.4375-2.91407v.75782l-3.85156 3.25-.58594 3.69921-.13672.73829.13672.1953 4.4375 3.34767 4.4375-1.44922 2.44531-2.09375-2.4453-3.95704-.33204-.48046-4.10547-3.25v-.75782l4.4375 3.03907 2.47266.96875.82031 4.4375-3.29297 2.8203-4.4375 1.03126-4.4375-2.1836"/><path fill="#00c800" fill-rule="evenodd" d="M179.50781 422.82422l-.13672-.19531.13672-.73829.58594-3.69921 3.85156-3.25v1.51562l-2.0586 1.73438-1.64452 4.4375 3.70312 2.92187 4.4375-2.28125.75-.64062-.75-1.21094-2.2461-3.22656-2.1914-1.73438v-1.51562l4.10547 3.25.33203.48046 2.44531 3.95704-2.4453 2.09375-4.4375 1.44921-4.4375-3.34765"/><path fill="#10cc00" fill-rule="evenodd" d="M183.94531 425.55078l-3.70312-2.92187 1.64453-4.4375 2.0586-1.73438v1.51563l-.26173.21875-2.65234 4.4375 2.91406 2.30078 3.85547-2.30078-3.57812-4.4375-.27735-.21875v-1.51563l2.1914 1.73438 2.2461 3.22656.75 1.21094-.75.64062-4.4375 2.28125"/><path fill="#24d000" fill-rule="evenodd" d="M183.94531 424.92969l-2.91406-2.30078 2.65234-4.4375.26172-.21875v1.28515l-2.1289 3.3711 2.1289 1.67968 2.8125-1.67968-2.8125-3.3711v-1.28515l.27735.21875 3.57812 4.4375-3.85547 2.30078"/><path fill="#3cd800" fill-rule="evenodd" d="M183.94531 424.3086l-2.1289-1.6797 2.1289-3.37109v1.25l-1.33984 2.1211 1.33984 1.05859 1.77344-1.0586-1.77344-2.12109v-1.25l2.8125 3.3711-2.8125 1.67968"/><path fill="#fff" fill-opacity="0" fill-rule="evenodd" d="M183.94531 403.49219l-1.6211 1.38281 1.6211.26953 4.4375.08594.76172-.35547-.09375-4.4375-.66797-1.1836-1.25 1.1836-3.1875 3.05469"/><path fill="#54dc00" fill-rule="evenodd" d="M183.94531 423.6875l-1.33984-1.0586 1.33984-2.12109v1.2461l-.55078.875.55078.4375.73047-.4375-.73047-.875v-1.2461l1.77344 2.1211-1.77344 1.05859"/><path fill="#e8e05c" fill-rule="evenodd" d="M183.94531 423.0664l-.55078-.4375.55078-.875.73047.875-.73047.4375"/><path fill="#fff" fill-opacity="0" fill-rule="evenodd" d="M197.26172 402.25l-1.42188 2.625 1.42188.57031 1.79687-.57031-1.79687-2.625"/><path fill="#00ac00" fill-rule="evenodd" d="M201.69922 418.42578l-.625-.23437.625-.13282.29297.13282-.29297.23437"/><path fill="#00d4fc" fill-rule="evenodd" d="M205.53516 404.875l-3.81641-4.4375 4.41797-1.85156 3.36719 1.85156-2.57422 4.4375-.79297 3.6211-.60156-3.6211"/><path fill="#00e8fc" fill-rule="evenodd" d="M223.89063 427.2539l-.375-.18359.375-.17969.35937.1797-.35938.18359"/><path fill="#50fcfc" fill-rule="evenodd" d="M228.32813 381.03516l-2.4375-2.78907 2.4375-2.05859 4.05468 2.0586-4.05469 2.78906m22.19141 59.60156l-.6875-.2539.6875-.3672 1.70313.3672-1.70313.2539m8.8789-.22266l-.24609-.03125.2461-.02344.20703.02344-.20703.03125m8.875.7539l-2.38281-.78515 2.23046-4.4375.15235-.10156 4.4375-.73828 2.55469.83984 1.88671 3.10938 2.09375 1.32812-2.09375.67188-4.4414-.20703-4.4375.3203m8.8789-60.98046l-3.0664-1.9414.64844-4.4375 2.41796-2.03516 3.33204 2.03515.15234 4.4375-3.48438 1.94141m66.57422 26.96484l-2.57422-2.27734 2.57422-2.61719 3.4961-1.82031.9414-.66016.67578.66016 3.76172 2.78906 1.63281 1.64844-1.6328 1.79297-4.4375.60937-4.4375-.125m0 37.3047l-1.56641-4.07423.5703-4.4375.9961-2.15625 1.5039 2.15625 2.9336.28516 4.4375.91406 4.4414.77344 1.9922-1.97266 2.4453-2.6875 1.15626-1.75 2.41015-4.4375.8711-1.23047 2.0625-3.21093-2.0625-.94141-4.4375-.95313-1.90235-2.54296 1.90235-1.58985 4.4375-1.53125 1.15234-1.3164 3.28516-3.87891v2.11328l-1.49219 1.76563-2.94531 3.35546-2.03125 1.08204 2.03125 1.21093 4.4375 1.4922v3.92968l-3.34766 2.2461 3.34766.59765 1.19922-.59766-1.19922-2.2461v-3.92968l2.4336 1.73438 1.24609 4.4414-3.6797 1.83203-4.4375.9375-1.10155 1.66797-3.1797 4.4375-.15624.21875-4.23828 4.21875-.19922.6289-.78516-.6289-3.65625-1.4375-4.4375-1.91406-3.76953 3.35156 3.76953 3.53906 4.4375.35938.42969.53906 4.01172 1.7539 4.4375 1.04688 4.4375-.0625 4.4375 1.08204 4.4375-1.04297 2.79297-2.77735.58594-4.4375 1.0625-1.66015 3.3828-2.77735 1.0547-1.38281 4.4375-1.46484 3.5625-1.58985-3.5625-2.7461-4.4375.5625-4.4375-1.8828-1.6797-.3711-.32812-4.4414-.52344-4.4375-1.37109-4.4375-.53906-.3125-4.4375-1.45313V409.875l4.4375.99219 4.4414 2.1875 4.4375-.58985 1.39454 1.28907-1.39454 3.19921-2.55859 1.23829.30469 4.4375.55078 4.4414 1.70313.75781 2.21875-.7578 2.21875-1.92188 3.34375 1.92187 1.09375.75781 1.14062-.7578 3.29688-2.00782 4.4414-2.03516v2.94922l-1.84765 1.09375 1.84765 1.45313.82422-1.45313-.82422-1.09375v-2.94922l3.04297 4.04297.61328 4.4375-3.65625 1.29688-4.4414.80469-4.4375.5039-4.4375.97656-2.47657.85547-1.96094 1.91406-4.4375 2.17579-.22656.34765-.38672 4.4375.61329 2.04297 2.35546 2.39844-2.35546 2.53906-2.35157-2.53906-2.08984-.64063-2.66016.64063-1.77734 1.76953-1.77735-1.76953-2.66015-.65235-4.4375.01172-4.4375-.35546-4.4414-.89844-4.15626-2.54688-.28125-.05078-4.4375-.3125"/><path fill="#00e8fc" fill-rule="evenodd" d="M348.16406 443.92188l-3.76953-3.53907 3.76953-3.35156v1.33984l-2.26562 2.01172 2.26562 2.125 3.29688-2.125-3.29688-2.01172v-1.33984l4.4375 1.91406 3.65625 1.4375.78516.6289.19922-.6289 4.23828-4.21875.15625-.21875 3.17969-4.4375 1.10156-1.66797 4.4375-.9375 3.67969-1.83203-1.2461-4.4414-2.4336-1.73438-4.4375-1.49219-2.03124-1.21093 2.03125-1.08204 2.94531-3.35546 1.49219-1.76563 4.4375 1.45313.53906.3125 1.3711 4.4375.52343 4.4375.32813 4.4414 1.67969.3711v3.32421l-.83204.7422-3.60937 2.17968-3.48438-2.17969-.95312-.54687-1.22656.54687-3.21094 1.125-2.8789 3.3125-1.5586 2.1914-2.2539 2.2461-.59766 4.4375 2.85156 1.13281 4.4375-.14062 4.4375 1.0586 4.4375-.98048 1.07422-1.0703.90625-4.4375 2.46094-3.84766.71875-.58985 2.11718-4.4375-2.83594-.74219v-3.32421l4.4375 1.8828 4.4375-.5625 3.5625 2.7461-3.5625 1.58985-4.4375 1.46484-1.05468 1.38281-3.38281 2.77735-1.0625 1.66015-.58594 4.4375-2.79297 2.77735-4.4375 1.04296-4.4375-1.08203-4.4375.0625-4.4375-1.04687-4.01172-1.7539-.42969-.53907-4.4375-.35938"/><path fill="#00d4fc" fill-rule="evenodd" d="M348.16406 442.50781l-2.26562-2.125 2.26562-2.01172v1.33985l-.75781.67187.75781.71094 1.10547-.71094-1.10547-.67187v-1.33985l3.29688 2.01172-3.29688 2.125"/><path fill="#00c4fc" fill-rule="evenodd" d="M348.16406 441.09375l-.75781-.71094.75781-.67187 1.10547.67187-1.10547.71094"/><path fill="#00d4fc" fill-rule="evenodd" d="M361.48047 445.95313l-2.85156-1.13282.59765-4.4375 2.2539-2.2461 1.5586-2.1914 2.8789-3.3125 3.21095-1.125 1.22656-.54687v2.26562l-4.4375 1.02344-1.47266 1.69531-2.96484 4.16797-.27344.26953.27344 1.32813 4.4375 1.5586 3.2461 1.55077 1.1914.28516 1.32812-.28516 3.10938-2.10156.58203-2.33594-.55078-4.4375-.03125-.01172-4.4375-2.70703v-2.26562l.95312.54687 3.48438 2.17969 3.60937-2.17969.83204-.74219 2.83593.7422-2.11719 4.4375-.71875.58984-2.46093 3.84765-.90625 4.4375-1.07422 1.07031-4.4375.98047-4.4375-1.05859-4.4375.14063"/><path fill="#00c4fc" fill-rule="evenodd" d="M361.48047 441.71094l-.27344-1.32813.27344-.26953 2.96484-4.16797 1.47266-1.69531 4.4375-1.02344v2.34375l-4.4375.29297-.07031.08203.0703.92578.33985 3.51172 4.09766 3.25 3.53906-3.25-2.92187-4.4375-.6172-.375v-2.34375l4.4375 2.70703.03126.01172.55078 4.4375-.58203 2.33594-3.10938 2.10156-1.32812.28516-1.1914-.28516-3.2461-1.55078-4.4375-1.5586"/><path fill="#00b8fc" fill-rule="evenodd" d="M365.91797 436.8711l-.07031-.92579.0703-.08203 4.4375-.29297v2.1211l-2.3125 2.6914 2.3125 1.83203 1.9961-1.83203-1.9961-2.6914v-2.1211l.6172.375 2.92187 4.4375-3.53906 3.25-4.09766-3.25-.33984-3.51172"/><path fill="#fff" fill-opacity="0" fill-rule="evenodd" d="M370.35547 424.82422l-3.34766 2.2461 3.34766.59765 1.19922-.59766-1.19922-2.2461"/><path fill="#00a8fc" fill-rule="evenodd" d="M370.35547 442.21484l-2.3125-1.83203 2.3125-2.6914v2.07812l-.52344.61328.52344.41797.45312-.41797-.45312-.61328v-2.07812l1.9961 2.6914-1.9961 1.83203"/><path fill="#009800" fill-rule="evenodd" d="M370.35547 440.80078l-.52344-.41797.52344-.61328.45312.61328-.45312.41797"/><path fill="#50fcfc" fill-rule="evenodd" d="M383.67188 407.51953l-3.97657-2.64453.83985-4.4375 3.13671-3.08984v2.01953l-1.08593 1.07031 1.08594 4.23047 1.70703.20703 2.73046.11328.10938-.11328-.10938-.23438-2.59375-4.20312-1.84375-1.07031v-2.01953l4.4375 1.85156 1.23047 1.23828 1.47657 4.4375-2.70704 2.82422-4.4375-.17969"/><path fill="#00e8fc" fill-rule="evenodd" d="M383.67188 404.66797l-1.08594-4.23047 1.08594-1.07031 1.84375 1.07031 2.59375 4.20313.10937.23437-.10938.11328-2.73046-.11328-1.70704-.20703"/><path fill="#50fcfc" fill-rule="evenodd" d="M392.54688 458.21484l-.0625-.07812.0625-.05078 4.4375-.46485.49609.51563-.4961.47656-4.4375-.39844m4.4375-67.78125l-2.92578-3.30859 2.92579-2.92188 4.4414-1.34375v.78907l-4.4414 2.8789-.59375.59766.59375.67188 4.4414 2.65234 4.25-3.32422-4.25-3.47656v-.78906l4.4375 1.15234 4.4375-.57422 4.4375-.2461v1.19923l-4.4375.60156-3.89062 2.13281 3.89062 3.5039.75781.9336 3.6797 3.32422 3.5625-3.32422-.04688-4.4375-3.51563-2.73438v-1.19921l4.4414 1.73828 3.92579 2.19531.51172 2.7461.48437-2.7461 3.95313-2.16406v4.63281L424 391.5625l4.05469.77344v2.29297L426.1328 396l-2.51562 2.60547-1.83594 1.83203-.42188 4.4375 2.25782 2.03125 2.66015-2.03125 1.77735-2.15234 1.83984-2.28516L432.1211 396l-4.0664-1.3711v-2.29296l4.4375-.59766.1211-.17578-.1211-.11328-4.4375-1.85547v-4.63281l2.77734-2.27735 1.66016-1.39062 2.15625 1.39062 2.28125.50782v1.79687l-4.4375.33594-2.0586 1.80078 2.0586 1.4414 3.1211 2.9961 1.3164.98047 1.86719-.98047.95703-4.4375-2.82422-2.13672v-1.79687l4.4414 2.49218 4.4375-.51171v2.98828l-3.19921 3.40234.6328 4.4375 2.56641 2.83203 4.4375-1.7461L451.6172 396l1.21484-4.4375-2.58594-1.30078-4.4375-2.10156v-2.98829l1.94922 1.95313 2.48828 1.2539 4.4375-.40234 2.57422 3.58594-2.57422 3.21094L454.1875 396l-3.9414 3.11719-4.4375 1.07422L442.01171 396l-.64063-2.52344-4.4414 1.3086L435.3125 396l-2.82031 3.21875-.6836 1.21875-3.08203 4.4375-.67187.53125-4.4375 2.98828-3.91406-3.51953-.52344-2.61719-4.4414 1.02735-4.4375.88671-3.45704-3.73437 3.45703-3.57813v2.32813l-1.20703 1.25 1.20703 1.30469 4.4375-.90625.76563-.39844-.76563-.95313-4.4375-.29687v-2.32813L412.41016 396l-2.10938-1.6289-2.51953-2.8086-1.91797-1.66406-4.4375 1.3125-4.4414-.77735"/><path fill="#00e8fc" fill-rule="evenodd" d="M396.98438 387.79688l-.59375-.67188.59375-.59766 4.4414-2.8789v1.32422l-2.92187 2.15234 2.92187 2.0586 2.63281-2.0586-2.6328-2.15234v-1.32422l4.25 3.47656-4.25 3.32422-4.44142-2.65235"/><path fill="#00d4fc" fill-rule="evenodd" d="M401.42578 389.1836l-2.92187-2.0586 2.92187-2.15234v1.3203l-1.1289.83204 1.1289.79297 1.01563-.79297-1.01563-.83203v-1.32031l2.63281 2.15234-2.6328 2.0586"/><path fill="#00e8fc" fill-rule="evenodd" d="M401.42578 428.52344l-1.84765-1.45313 1.84765-1.09375.82422 1.09375-.82422 1.45313"/><path fill="#00c4fc" fill-rule="evenodd" d="M401.42578 387.91797l-1.1289-.79297 1.1289-.83203 1.01563.83203-1.01563.79297"/><path fill="#50fcfc" fill-rule="evenodd" d="M405.86328 421.17969l-2.86719-2.98828 2.8672-3.82813.82421-.60937 3.61328-2.32422v4.38672l-4.01562 2.375 4.01562.94921 1.05078-.94921-1.05078-2.375v-4.38672l4.4375-.75 3.23047 3.07422-3.23047 3.48437-.6289.95313-3.8086 3.4453-4.4375-.45702m0 25.70703l-2.0625-2.0664 2.0625-2.54298 2.0625 2.54297-2.0625 2.0664"/><path fill="#00e8fc" fill-rule="evenodd" d="M410.30078 419.14063l-4.01562-.94922 4.01562-2.375 1.05078 2.375-1.05078.94921m0-28.51171l-3.89062-3.50391 3.89062-2.13281 4.4375-.60156v1.99609l-2.98437.73828 2.78125 4.4375.20312.1836.19922-.1836.7461-4.4375-.94532-.73828v-1.9961l3.51563 2.73438.04687 4.4375-3.5625 3.32422-3.67969-3.32422-.7578-.9336m0 11.11329l-1.20704-1.30469 1.20703-1.25 4.4375.29688.76563.95312-.76563.39844-4.4375.90625"/><path fill="#00d4fc" fill-rule="evenodd" d="M414.53516 391.5625l-2.78125-4.4375 2.98437-.73828.94531.73828-.74609 4.4375-.19922.1836-.20312-.1836"/><path fill="#00e8fc" fill-rule="evenodd" d="M423.61719 406.90625l-2.25781-2.03125.42187-4.4375 1.83594-1.83203L426.1328 396l1.92188-1.3711 4.0664 1.3711-2.22656 4.4375-1.83984 2.28516-1.77735 2.15234-2.66015 2.03125"/><path fill="#fff" fill-opacity="0" fill-rule="evenodd" d="M428.05469 389.59375L424 391.5625l4.05469.77344 4.4375-.59766.1211-.17578-.1211-.11328-4.4375-1.85547"/><path fill="#00e8fc" fill-rule="evenodd" d="M432.49219 388.5664l-2.0586-1.4414 2.0586-1.80078 4.4375-.33594 2.82422 2.13672-.95704 4.4375-1.86718.98047-1.3164-.98047-3.1211-2.9961m10.75 7.4336l-.63281-4.4375 3.19921-3.40234v4.30078L445.29297 396l.51562.5664 1.19532-.5664-1.19532-3.53906v-4.30078l4.4375 2.10156 2.58594 1.30078L451.6172 396l-1.3711 1.08594-4.4375 1.7461L443.2422 396"/><path fill="#00d4fc" fill-rule="evenodd" d="M445.8086 396.5664l-.51563-.5664.51562-3.53906L447.00391 396l-1.19532.5664"/><g clip-path="url(#c)"><path fill="#fff" fill-opacity="0" fill-rule="evenodd" d="M467.9961 480.32813H468V311.67188h-.0039H468v168.65625h-.0039"/></g><path fill="#fff" fill-opacity="0" fill-rule="evenodd" d="M407.63672 437.07422l3.03515-4.99219-8.51171-5.17578-3.03516 4.99219 8.51172 5.17578"/><path fill-rule="evenodd" d="M402.50781 429.85938l.26563-.4336 5.3789 3.26953-.41015.67188-3.83594-2.33203-.72266 1.1875-.47265-.28907.23437-.51171.08594-.2422.04297-.24609-.01563-.24609-.08984-.25781-.17578-.27344-.28516-.29688"/><path fill="#fff" fill-opacity="0" fill-rule="evenodd" d="M198.14453 385.4336l1.8125 5.55468 9.46875-3.08594-1.8086-5.55468-9.47265 3.08593"/><path fill-rule="evenodd" d="M206.95703 386.24219l.16016.48437-5.98438 1.95313-.2461-.75 4.26954-1.39063-.42969-1.32031.52735-.17188.23437.51172.1289.22266.15626.1914.19922.14844.2539.10157.32422.04296.40625-.02343"/><path fill="#fff" fill-opacity="0" fill-rule="evenodd" d="M462.23828 395.125l.15235-5.83984-9.95704-.26172-.15234 5.83594 9.95703.26562"/><path fill-rule="evenodd" d="M454.20703 391.41016l.01172-.50782 6.29297.16797-.01953.78516-4.48828-.11719-.03907 1.38672-.55468-.01563-.05079-.55859-.04687-.2539-.08203-.23438-.13672-.20703-.20703-.17969-.28906-.14844-.39063-.11718"/><path fill="#fff" fill-opacity="0" fill-rule="evenodd" d="M174.34375 440.53516l7.69922 1.85937 2.39453-9.90625-7.70313-1.85937-2.39062 9.90625"/><path fill-rule="evenodd" d="M178.71875 432.99219l3.1914.77344-.17187.71875-2.5664-.6211-.64844 1.69922.25781-.10156.29688-.0664.33203-.01173.3828.0586.3086.10156.3086.16406.28906.21875.2539.28516.19532.34375.07031.19922.05469.21093.02734.23047.0039.24219-.02343.26172-.05469.28125-.13672.42187-.19922.38282-.2578.33203-.3125.27344-.36329.20312-.20312.07031-.21094.05078-.22656.02735-.23438.0039-.2461-.02343-.2578-.05079-.44532-.14453-.36328-.1914-.28516-.23828-.21875-.27344-.15234-.30469-.09766-.32812-.04687-.35157v-.36718l.76563.1875.02343.24218.04688.22657.07812.20703.10547.1836.13281.15624.16407.13281.1914.10547.21875.07422.3125.05078.28906-.0039.26954-.0586.23828-.11328.21094-.17187.17968-.22657.14453-.28515.10938-.33985.04297-.26171.0039-.26563-.04297-.26953-.08984-.2539-.14062-.23438-.19532-.20313-.2578-.16406-.32032-.11328-.33594-.04688-.30078.04297-.3086.11719-.36718.1875-.67578-.16406 1.25781-3.21875"/><g clip-path="url(#d)"><path fill="none" stroke="#000" stroke-linecap="round" stroke-linejoin="round" stroke-miterlimit="10" stroke-width=".5" d="M146.26172 483.01563l-4.52344-5.375"/></g><g clip-path="url(#e)"><path fill="none" stroke="#000" stroke-linecap="round" stroke-linejoin="round" stroke-miterlimit="10" stroke-width=".5" d="M158.73438 483.54297l-2.83594-6.42969"/></g><g clip-path="url(#f)"><path fill="none" stroke="#000" stroke-linecap="round" stroke-linejoin="round" stroke-miterlimit="10" stroke-width=".5" d="M171.83594 483.6289l-2.41016-6.60156"/></g><g clip-path="url(#g)"><path fill="none" stroke="#000" stroke-linecap="round" stroke-linejoin="round" stroke-miterlimit="10" stroke-width=".5" d="M185.22266 483.60156l-2.5547-6.54687"/></g><g clip-path="url(#h)"><path fill="none" stroke="#000" stroke-linecap="round" stroke-linejoin="round" stroke-miterlimit="10" stroke-width=".5" d="M199.01563 483.3711l-3.50782-6.08594"/></g><g clip-path="url(#i)"><path fill="none" stroke="#000" stroke-linecap="round" stroke-linejoin="round" stroke-miterlimit="10" stroke-width=".5" d="M212.38672 483.33984l-3.625-6.01953"/></g><g clip-path="url(#j)"><path fill="none" stroke="#000" stroke-linecap="round" stroke-linejoin="round" stroke-miterlimit="10" stroke-width=".5" d="M225.35156 483.52344l-2.92578-6.39063"/></g><g clip-path="url(#k)"><path fill="none" stroke="#000" stroke-linecap="round" stroke-linejoin="round" stroke-miterlimit="10" stroke-width=".5" d="M237.96484 483.75781l-1.51953-6.85937"/></g><g clip-path="url(#l)"><path fill="none" stroke="#000" stroke-linecap="round" stroke-linejoin="round" stroke-miterlimit="10" stroke-width=".5" d="M250.95313 483.8164l-.8672-6.97265"/></g><g clip-path="url(#m)"><path fill="none" stroke="#000" stroke-linecap="round" stroke-linejoin="round" stroke-miterlimit="10" stroke-width=".5" d="M264.20703 483.82422l-.74219-6.98828"/></g><g clip-path="url(#n)"><path fill="none" stroke="#000" stroke-linecap="round" stroke-linejoin="round" stroke-miterlimit="10" stroke-width=".5" d="M277.24219 483.83984l-.1836-7.02343"/></g><g clip-path="url(#o)"><path fill="none" stroke="#000" stroke-linecap="round" stroke-linejoin="round" stroke-miterlimit="10" stroke-width=".5" d="M290.44922 483.84375l.03515-7.02734"/></g><g clip-path="url(#p)"><path fill="none" stroke="#000" stroke-linecap="round" stroke-linejoin="round" stroke-miterlimit="10" stroke-width=".5" d="M303.38672 483.82031l.78515-6.98437"/></g><g clip-path="url(#q)"><path fill="none" stroke="#000" stroke-linecap="round" stroke-linejoin="round" stroke-miterlimit="10" stroke-width=".5" d="M316.75781 483.82422l.67578-6.99219"/></g><g clip-path="url(#r)"><path fill="none" stroke="#000" stroke-linecap="round" stroke-linejoin="round" stroke-miterlimit="10" stroke-width=".5" d="M329.85938 483.80078l1.10156-6.9414"/></g><g clip-path="url(#s)"><path fill="none" stroke="#000" stroke-linecap="round" stroke-linejoin="round" stroke-miterlimit="10" stroke-width=".5" d="M346.80469 478.63672l-6.15625 3.38672"/></g><g clip-path="url(#t)"><path fill="none" stroke="#000" stroke-linecap="round" stroke-linejoin="round" stroke-miterlimit="10" stroke-width=".5" d="M359.1836 477.54297l-4.28516 5.57031"/></g><path fill="none" stroke="#000" stroke-linecap="round" stroke-linejoin="round" stroke-miterlimit="10" stroke-width=".5" d="M358.5625 478.35547l1.20703.20312"/><g clip-path="url(#u)"><path fill="none" stroke="#000" stroke-linecap="round" stroke-linejoin="round" stroke-miterlimit="10" stroke-width=".5" d="M372.51172 477.55469l-4.3125 5.54687"/></g><path fill="none" stroke="#000" stroke-linecap="round" stroke-linejoin="round" stroke-miterlimit="10" stroke-width=".5" d="M372.51172 477.55469l2.41797.42187"/><g clip-path="url(#v)"><path fill="none" stroke="#000" stroke-linecap="round" stroke-linejoin="round" stroke-miterlimit="10" stroke-width=".5" d="M384.19531 476.85547l-1.04687 6.94922"/></g><path fill="none" stroke="#000" stroke-linecap="round" stroke-linejoin="round" stroke-miterlimit="10" stroke-width=".5" d="M384.04297 477.86719l1.15625-.41016"/><g clip-path="url(#w)"><path fill="none" stroke="#000" stroke-linecap="round" stroke-linejoin="round" stroke-miterlimit="10" stroke-width=".5" d="M393.51563 479.78906l6.9414 1.08203"/></g><g clip-path="url(#x)"><path fill="none" stroke="#000" stroke-linecap="round" stroke-linejoin="round" stroke-miterlimit="10" stroke-width=".5" d="M406.8125 480.74219l6.97656-.82813"/></g><g clip-path="url(#y)"><path fill="none" stroke="#000" stroke-linecap="round" stroke-linejoin="round" stroke-miterlimit="10" stroke-width=".5" d="M407.82813 480.6211l-.69922-1.00782"/></g><g clip-path="url(#z)"><path fill="none" stroke="#000" stroke-linecap="round" stroke-linejoin="round" stroke-miterlimit="10" stroke-width=".5" d="M422.53125 483.67188l2.16797-6.6836"/></g><g clip-path="url(#A)"><path fill="none" stroke="#000" stroke-linecap="round" stroke-linejoin="round" stroke-miterlimit="10" stroke-width=".5" d="M433.6914 481.6875l6.48048-2.71875"/></g><g clip-path="url(#B)"><path fill="none" stroke="#000" stroke-linecap="round" stroke-linejoin="round" stroke-miterlimit="10" stroke-width=".5" d="M434.63281 481.29297l-.94922-.77735"/></g><g clip-path="url(#C)"><path fill="none" stroke="#000" stroke-linecap="round" stroke-linejoin="round" stroke-miterlimit="10" stroke-width=".5" d="M446.7461 480.04688l7.0039.5625"/></g><g clip-path="url(#D)"><path fill="none" stroke="#000" stroke-linecap="round" stroke-linejoin="round" stroke-miterlimit="10" stroke-width=".5" d="M447.76172 480.1289l-.48438-1.125"/></g><g clip-path="url(#E)"><path fill="none" stroke="#000" stroke-linecap="round" stroke-linejoin="round" stroke-miterlimit="10" stroke-width=".5" d="M466.98828 479.55078l-6.85156 1.55469"/></g><g clip-path="url(#F)"><path fill="none" stroke="#000" stroke-linecap="round" stroke-linejoin="round" stroke-miterlimit="10" stroke-width=".5" d="M144.96094 470.39453l-1.92188-6.76172"/></g><g clip-path="url(#G)"><path fill="none" stroke="#000" stroke-linecap="round" stroke-linejoin="round" stroke-miterlimit="10" stroke-width=".5" d="M144.67969 469.41016l-.88281.85156"/></g><path fill="none" stroke="#000" stroke-linecap="round" stroke-linejoin="round" stroke-miterlimit="10" stroke-width=".5" d="M156.33203 470.38672l1.96875-6.7461m-1.6836 5.76563l-1.20312.25m13.78516.5664l2.86328-6.41796m-2.44922 5.48437l-1.22266.08203m14.19922.88282l2.71094-6.48047m-2.71094 6.48047l-2.4453.22656m15.8164-.20313l2.59765-6.52734m-2.21875 5.57813l-1.21875.13671m14.67578.97657l1.5547-6.85547m-1.32813 5.85547l-1.1836.32421m14.95703.76172l.1875-7.02734m-.1875 7.02734l-2.19921 1.08985m14.98828-1.14453l1.23828-6.91797m-1.23828 6.91797l-2.33594.75m15.1875-.8672l2.16797-6.68359m-2.16797 6.6836l-2.41797.42969m15.22266-.64063l3.1875-6.26172m-2.72266 5.35156l-1.22656.02344m12.85156-.14453l5.63672-4.19922m-4.8164 3.58985l-1.10938-.52344m12.91406-.76563l7.01563-.40234m-5.9922.34375l-.63671-1.05078m13.39453-.84766l6.08594 3.51172m-5.20313-3l.04297-1.22656m12.36719.75l6.1289 3.4414m-5.23437-2.9414l.02735-1.22656m12.33593.83203l6.24219 3.23047m-5.33203-2.76172l-.01563-1.22657m13.1836-.23046l4.71875 5.20703m-4.03125-4.44922l.41406-1.15625m12.48047.17969l4.1836 5.64453m-4.1836-5.64453l1.05469-2.21485m12.82812 1.8711l3.05078 6.33203m-2.60937-5.41016l.72656-.98828m13.46875-.27344l.40625 7.01172m-.34766-5.99219l1.04688-.63672m8.95312 2.51172l6.91797 1.22266m-5.91015-1.04688l-.37891-1.16406m13.30078 3.66406l5.6875-4.1289m-4.85937 3.52734l-1.10157-.53515m12.91797-.88282l7.02735-.08984m-6.00391.07812l-.58984-1.07421m13.1914 2.48046l6.41016-2.8789m-5.47656 2.45703l-.96875-.75m13.23437-1.41016l6.64453 2.28516m13.49219-.83984l-7-.60547m5.98047.51953l.48047 1.1289"/><g clip-path="url(#H)"><path fill="none" stroke="#000" stroke-linecap="round" stroke-linejoin="round" stroke-miterlimit="10" stroke-width=".5" d="M141.75 456.39844L146.25 451"/></g><path fill="none" stroke="#000" stroke-linecap="round" stroke-linejoin="round" stroke-miterlimit="10" stroke-width=".5" d="M154.86719 456.21875l4.89453-5.03906m-4.1836 4.30469l-1.17578-.33985m13.84766 1.13672l4.76172-5.16797m-4.76172 5.16797l-2.375-.6211m15.52734.46485l5.08594-4.85156m-5.08594 4.85156l-2.32812-.77344m15.5039.61719l5.36329-4.53906m-5.36328 4.53906l-2.27735-.91016m15.5039.80078l5.53907-4.32421m-5.53906 4.32422l-2.23828-.9961m15.87109 1.35156l4.90625-5.03125m-4.1914 4.29688l-1.1797-.34375m13.57032.85156l5.32812-4.58203m-4.55468 3.91797l-1.14453-.44531m13.1914.36328l6.3125-3.08985m-6.3125 3.08985l-1.98437-1.4375m15.10937.95703l6.69531-2.125m-6.6953 2.125l-1.75391-1.71875m14.9453 1.20312l6.94141-1.09765m-6.9414 1.09765l-1.47657-1.95703m14.75 1.53906l7.02344-.2578m-7.02344.2578l-1.23046-2.12109m14.57421 1.53125l6.96875.91797m-6.96875-.91797l-.85937-2.29687m14.16016 2.4414l6.99609.63281m-6.9961-.6328l-.95312-2.26173m14.48047 1.33594l6.57422 2.48047m-6.57422-2.48047l-.3125-2.4336m1.26953 2.79688l-.16016-1.21875m12.44532 1.0664l6.71875 2.0625m-6.71875-2.0625l-.46485-2.41015m14.03516 1.79688l6.20703 3.28906m-6.20703-3.28906l-.0039-2.45313m.90624 2.92969v-1.22656m12.57032.47656l5.89062 3.83203m-5.89062-3.83203l.21484-2.4414m12.9336 2.72656l6.22265 3.26562m-6.22266-3.26562l-.01172-2.45313m12.94532 3.71094l6.98828.75m-5.97266-.64063l-.45703-1.14062m12.82031.63672l6.85938 1.53906m-5.85938-1.3164l-.32422-1.1797m13.70704 4.32813l4.72656-5.20312m-4.03906 4.4453l-1.1875-.30077m12.70312-1.03125l6.94922-1.02735m9.83984 4.02735v-7.02735m0 6.00782l-1.08203.57421m15.36328.3125l-1.92968-6.7578"/><g clip-path="url(#I)"><path fill="none" stroke="#000" stroke-linecap="round" stroke-linejoin="round" stroke-miterlimit="10" stroke-width=".5" d="M140.55469 439.6875l6.89062 1.39063"/></g><path fill="none" stroke="#000" stroke-linecap="round" stroke-linejoin="round" stroke-miterlimit="10" stroke-width=".5" d="M153.84766 440.95313l6.93359-1.14063m-6.9336 1.14063L152.35939 439m15.36718 3.36328l5.8086-3.95703m-5.8086 3.95703l-2.17187-1.14453m15.48828 1.14453l5.80469-3.96094m-5.8047 3.96094l-2.17187-1.14062m3.01563.5664l-1.08594-.57031m13.73438 1.3789l5.45312-4.42968m-5.45312 4.42969l-2.26172-.95313m3.05469.3086l-1.13282-.47657m13.45703.85547L213.5 438.4336m-5.84766 3.89844l-2.16015-1.16406m15.36719.99219l6.0625-3.5547m-5.1797 3.03907L220.69532 441m13.3164.85156l6.38673-2.9375m-6.38672 2.9375l-1.94922-1.48828m15.23828 1.42578l6.4414-2.8086m-6.4414 2.8086l-1.92187-1.52734m15.22656 1.50781L267.0664 439m-6.46094 2.76953l-1.91016-1.53906m15.0664 1.07422l6.78126-1.84375m-6.78125 1.84375l-1.67969-1.78906m15.07422 2.04687l6.61719-2.35937m-6.61719 2.35937l-1.8125-1.65234m15.08594 1.53125l6.70312-2.11328m-6.70312 2.11328l-1.75-1.71875m2.72656 1.41015l-.875-.85937m13.16797 1.01172l6.79297-1.8047m-6.79297 1.8047l-1.66797-1.79688m2.65625 1.53516l-.83594-.89844m13.10156.875l6.91797-1.23047M326.95313 441l-1.51563-1.9336m2.51953 1.75391l-.7539-.96875m13.02734.89063l6.99219-.71875m-6.9922.71875l-1.36718-2.03516m2.38281 1.92969l-.68359-1.01563m12.96484.77735l7.02735-.03125m-7.02735.03125l-1.16015-2.16016m2.1836 2.15625l-.58204-1.07812m13.02344 2.07812l6.73047-2.02344m-6.73047 2.02344l-1.72656-1.74219m14.92578.2422l6.96093.98046m-6.96093-.98047l-.83985-2.30469m14.1211 2.6875l7.02734.21094m-7.02734-.21094l-1.08594-2.19921m14.41015 2.5664l7.00782-.52344m-5.98828.44922l-.65625-1.03906m13.17187 2.10156l6.57031-2.5m-6.5703 2.5l-1.84767-1.61718m16.25391 3.11328l4.38672-5.4922m-3.75 4.69142l-1.20313-.22266m14.94141 1.60156l2.26563-6.64844m-1.9375 5.6836l-1.21094.19531m16.0625.88281l-1.46485-6.8711m1.25391 5.8711l-.9414.78907"/><g clip-path="url(#J)"><path fill="none" stroke="#000" stroke-linecap="round" stroke-linejoin="round" stroke-miterlimit="10" stroke-width=".5" d="M140.91797 425.3789l6.16406 3.37891"/></g><path fill="none" stroke="#000" stroke-linecap="round" stroke-linejoin="round" stroke-miterlimit="10" stroke-width=".5" d="M153.89453 426.26953l6.84375 1.59766m-6.84375-1.59766l-.6289-2.3711m1.625 2.60548l-.31641-1.1875m12.63281 2.53906l6.84766-1.57422m-6.84766 1.57422l-1.60937-1.85156m2.60547 1.625l-.8047-.9297m13.42579 1.98048l6.24219-3.22266m-6.2422 3.22266l-2.01952-1.39453m2.92578.92578l-1.00781-.69922m13.92578 1.90625l5.22265-4.69922m-5.22265 4.69922l-2.30469-.83985m3.0664.15625l-2.30859-.83984m14.97266 1.64063l5-4.9336m-5 4.9336l-2.33984-.73047m3.0664.01562l-1.16797-.36718m13.32813.55468l5.85937-3.8789m-5.85937 3.8789l-2.15625-1.16797m15.28906.85547l6.22656-3.2539m-6.22656 3.2539l-2.02734-1.38281m2.92968.91016l-1.01172-.69141m13.40625 1.13672l6.25782-3.19922m-6.25781 3.19922l-2.01172-1.40625m2.92187.9414l-1.0039-.70312m13.24609.79297l6.58594-2.44922m-6.58594 2.44922l-1.83594-1.6289M261.5 427.9375l-.91797-.8125m13.29688 1.22266l6.54297-2.5586m-6.54297 2.5586l-1.86328-1.60157m2.8164 1.22657l-.9336-.79688m13.13282.63672l6.86719-1.48828m-6.86719 1.48828l-1.58594-1.8711m2.58594 1.65626l-.79297-.9375m13.0586.875l6.96484-.9336m-6.96485.9336l-1.42968-1.9922m14.71875 1.39454l7.01953.26172m-7.01953-.26172l-1.07031-2.20703m2.08984 2.2461l-.53516-1.10548m12.83985 1.5l7-.60547m-7 .60547l-1.33204-2.05859m2.35157 1.96875l-.66797-1.02734m13 1.39062l6.92969-1.15234m-6.9297 1.15234l-1.49218-1.94531m2.5 1.77734l-.7461-.97265m13.01173.79687l7.01171-.46484m-7.01171.46484l-1.29297-2.08594m2.3125 2.01953l-.64453-1.04296m12.95312 1.2539l6.98438-.7539m-6.98438.7539l-1.3789-2.02734m15.42578 3.82422l5.51953-4.34766m-5.51953 4.34766l-2.2461-.98828m15.53125.94921l5.58203-4.26562m7.67579 4.1875l5.6953-4.11328m-4.86718 3.51562l-1.10156-.53906m12.92187-.94922l7.02735.0586m-6.00391-.05079l-.5664-1.08593m14.01562 3.71093l4.71484-5.20703m-4.02734 4.44922l-1.1914-.29687m15.14452 1.8086l2.0625-6.71485m-2.0625 6.71484l-2.41015.46484m15.875-.42187l1.76562-6.80078m-1.50781 5.8125l-1.19531.28515"/><g clip-path="url(#K)"><path fill="none" stroke="#000" stroke-linecap="round" stroke-linejoin="round" stroke-miterlimit="10" stroke-width=".5" d="M141.375 411.41797l5.25 4.67187"/></g><path fill="none" stroke="#000" stroke-linecap="round" stroke-linejoin="round" stroke-miterlimit="10" stroke-width=".5" d="M154.04688 412.46484l6.53515 2.57813m-5.58594-2.20313l-.13672-1.21875m13.1211-.17578l5.29687 4.61719m-4.52343-3.94531l.27734-1.19532m11.40234 2.77344l7.02344.11328m-7.02344-.11328l-1.11718-2.1836m15.16797 4.39454l5.55078-4.30469m-5.55078 4.30469l-2.23829-1.00781m3.04688.38281l-1.1211-.5039m13.66407 1.17577l5.47656-4.40234m-5.47656 4.40235l-2.2539-.96485m3.05077.32422l-1.125-.48047m13.19922.41016l6.36719-2.97656m-6.36719 2.97656l-1.96094-1.47656m2.88672 1.04296l-.98047-.73828m13.31641 1.05469l6.47266-2.74219m-6.47266 2.74219l-1.90625-1.54687m2.84766 1.14843l-1.90625-1.54687m14.46484 2.3164l6.10547-3.48437m-6.10547 3.48437l-2.07422-1.3125m2.96094.8047l-1.03516-.65626m13.34766.9414l6.33594-3.04296m-6.33594 3.04297l-1.97656-1.45313m2.89843 1.01172l-.98828-.72656m13.3789 1.16406l6.33985-3.03125m-6.33984 3.03125l-1.97266-1.45703m2.89453 1.01563l-.98437-.73047m13.14453.52734l6.8086-1.74219m-6.8086 1.74219l-1.65234-1.8125m15.01172 1.97266l6.71875-2.0625m-6.71875 2.0625l-1.73829-1.73438m15.01172 1.58594l6.80078-1.76563m-5.8125 1.50782l-.82812-.90235m13.07031.73047l6.96875-.90625m-5.95312.77344l-.71094-1m13.40234 2.34375l6.1875-3.33203m-5.28906 2.84765l-1.01953-.67968m14.5586 2.41015l3.9414-5.82031m7.83203 2.9961l7.02344-.17188m-6 .14453l-.60156-1.0664m12.93359 1.55078l6.9414-1.08594m-6.9414 1.08594l-1.47266-1.96094m14.78516 1.92969l6.94922-1.02344m-5.9375.875l-.73047-.98828m15.07422-2.58203l2.86719 6.41406m15.16796-4.45313L420.33204 415m5.61327-2.1289l.92188.80859m11.4961 3.28125l-2.8672-6.41406m14.20704 6.67578l1.08984-6.94141m-.9336 5.9336l-1.16015.40234m14.8164.64843l.09375-7.02343m-.08203 6.0039l-1.08984.5586"/><g clip-path="url(#L)"><path fill="none" stroke="#000" stroke-linecap="round" stroke-linejoin="round" stroke-miterlimit="10" stroke-width=".5" d="M141.67969 397.80078l4.64062 5.27344"/></g><path fill="none" stroke="#000" stroke-linecap="round" stroke-linejoin="round" stroke-miterlimit="10" stroke-width=".5" d="M154.51563 398.3164l5.59765 4.2461m-4.78516-3.6289l.19922-1.21094m11.77735 1.57812l6.64844 2.27344m-5.6797-1.9414l-.1953-1.21094m12.35546 2.12109l7.02344-.21094m-6 .17969l-.60937-1.0664m14.86328 4.14452l3.10156-6.30468m-2.65234 5.38671l-1.22657.03907m13.60157.58984l4.07812-5.72265m-4.07812 5.72265l-2.4336-.32031m15.13281-.24219l5.3125-4.60156m-5.3125 4.60156l-2.28906-.88281m3.0625.21484l-1.14453-.4414m13.67969 1.10156l5.32422-4.58203m-5.32422 4.58203l-2.28516-.89063m16.29297 1.50782l3.9375-5.82032m-3.9375 5.82032l-2.4375-.25782m15.46484.03907l4.51563-5.38282m-4.51563 5.38282l-2.39843-.50782m16.66406 1.07813l2.61719-6.52344m-2.23828 5.57422l-1.21875.13281m18.90625-1.7539l-6.89063-1.38282m15.15625 3.81641l3.21094-6.25m10.63281 6.46875l2.15235-6.6875m-1.83985 5.71484l-1.20703.21875m12.28516-.76171l6-3.65625m-5.125 3.125l-1.0586-.625m13.7461 1.51171l5.5039-4.36718m-4.70312 3.73437l-1.125-.49219m13.1875.37891l6.41015-2.875m13.60938 1.76563l-6.9961-.65235m5.97657.55469l.47265 1.13281m13.86329-1.07422l-7.00391-.57422m5.98437.48829l.48829 1.1289m6.83203-1.35547l7.02734.05078m-7.02734-.05078l-1.13672-2.17578m14.5586 1.33203l6.8125 1.73438m-6.8125-1.73438l-.57813-2.38281m13.85937 3.96484l6.88281-1.42578m-5.8828 1.21875L420.39452 400M439 403.27734l-4.13672-5.67968m3.53516 4.85546l-.53906 1.10157m10.22265-.34766l4.32813-5.53515m-4.32813 5.53515l-2.41406-.42578m16.60937.92578l2.57032-6.53906m-2.19532 5.58984l-1.21875.14063"/><g clip-path="url(#M)"><path fill="none" stroke="#000" stroke-linecap="round" stroke-linejoin="round" stroke-miterlimit="10" stroke-width=".5" d="M140.73828 385.82031l6.52344 2.60547"/></g><path fill="none" stroke="#000" stroke-linecap="round" stroke-linejoin="round" stroke-miterlimit="10" stroke-width=".5" d="M154.0625 385.79297l6.5039 2.66015m-5.55859-2.27343l-.1211-1.21875m12.42188 3.30469l6.64453-2.28516m-5.67968 1.95312l-.89453-.83593m14.13672 2.5625l4.85937-5.07422m-4.15234 4.33594l-1.1797-.33204m15.58595 1.98829l1.26172-6.91016m-1.07813 5.90625l-1.16797.3711m13.02344.1289l3.8125-5.90235m-3.8125 5.90235l-2.44531-.20703m15.42187-.04297l4.49219-5.40235m-4.49219 5.40235l-2.40234-.5m15.67578.46484l4.57422-5.33203m-4.57422 5.33203l-2.39453-.53515m16.22656.90234l3.53906-6.0664m-3.53906 6.0664l-2.45313-.09375m14.6797-.89453l5.71484-4.08985m-5.71485 4.08985l-2.19531-1.09375m15.17969.52344l6.3789-2.94922m-5.44921 2.51953l-.97657-.73828m13.96875 2.07422l5.16797-4.76172m-4.41797 4.07031l-1.15625-.40625m12.82813-1.78125l6.95312.9961m-5.9414-.85157l-.41797-1.15625m12.72656.97266l6.9414 1.07422m-5.93359-.91797l-.40234-1.15625m13.42969-.64844l5.5 4.375m-4.69922-3.74219l.22265-1.20312m11.58594 2.11719l6.91016 1.27734m-5.90235-1.08985l-.37109-1.17187m12.74219 2.54297l6.78515-1.83985m-5.79687 1.57422l-.83984-.89453m19.7539 1.70313l-6.38672-2.92578m5.45703 2.5l.07032 1.22656m13.41797-4.79688l-4.875 5.06641m4.16406-4.32813l1.17969.33594m13.80859.57813l-6.80078 1.76172m6.80078-1.76172l1.66016 1.8125m11.70703-.28125l-6.90625-1.30078m6.90625 1.30078l.73047 2.34375m11.36328-.28125l-4.46485-5.42578m4.46485 5.42578l-.94141 2.26562m14.29688-2.30078l-4.54297-5.35547m3.8828 4.57813l-.45312 1.14062m15.6172-2.4414l-6.92188-1.19922m6.92187 1.19922l.76953 2.33203m9.0586.58203l.05468-7.02735m-.04687 6.00391l-1.08594.57031"/><g clip-path="url(#N)"><path fill="none" stroke="#000" stroke-linecap="round" stroke-linejoin="round" stroke-miterlimit="10" stroke-width=".5" d="M142.73438 370.53125l2.53125 6.55469"/></g><g clip-path="url(#O)"><path fill="none" stroke="#000" stroke-linecap="round" stroke-linejoin="round" stroke-miterlimit="10" stroke-width=".5" d="M143.10156 371.48438l.80078-.92579"/></g><path fill="none" stroke="#000" stroke-linecap="round" stroke-linejoin="round" stroke-miterlimit="10" stroke-width=".5" d="M154.25781 372.07422l6.11328 3.46875m-5.22265-2.96485l.03515-1.22656m12.33203 4.08594l6.22657-3.25781m-5.32031 2.78125l-1.01172-.6914m17.91797 2.76952l-2.76563-6.46094m2.36328 5.51954l-.76953.95703m10.3164-1.10938l5.57423-4.27344m-4.76172 3.65235l-1.1172-.50781m13.90235 1.45703l5.00781-4.92969m-4.27734 4.21094l-1.17187-.36719m13.29297.5039l5.93359-3.76562m-5.9336 3.76563l-2.1328-1.21485m15.36327 1.07031l6.10547-3.48046m-6.10547 3.48046l-2.07422-1.30859m15.64454 1.69531l5.59765-4.25m-5.59765 4.25l-2.22657-1.03125m3.03907.41016l-1.11328-.51172m14.96484 2.20703l2.89844-6.40234m-2.47657 5.47265l-1.22265.07813m12.45703-.70703l6.21484-3.28516m-6.21484 3.28516l-2.03125-1.375m16.59375 2.71484l3.71875-5.96094m-3.17578 5.09375l-1.22266-.08593m12.35938-1.6836l6.99218-.6875m-5.97656.58594l-.67969-1.02344m13.13282 1.86329l6.68359-2.16407m-5.71094 1.84766l-.88281-.85156m14.28516 2.7578l4.5664-5.34374m-3.90234 4.5664l-1.19922-.26953m17.00781-5.02734l-1.75 6.80469m17.65625-3.96485l-6.9336 1.125m5.92579-.96093l.74219.97656m13.44531-1.69531l-6.66406 2.23437m13.17578-.57031l6.9414-1.09375m6.7422 2.1914l6.20702-3.28906m-5.30468 2.8125l-1.01563-.6875m13.3086-1.88281l6.4453 2.80469m-5.5078-2.39453l-.09376-1.22266m17.08204 5.4414l-2.77735-6.45312m2.375 5.51563l-.76953.95703m15.82422-1.03125l-5.44922-4.4336m4.65625 3.78907l-.23437 1.20312m14.76953-4.32422l-6.30469 3.10156m5.38672-2.65234l.9961.71875m12.9453 2.42578l-5.71875-4.08594"/><g clip-path="url(#P)"><path fill="none" stroke="#000" stroke-linecap="round" stroke-linejoin="round" stroke-miterlimit="10" stroke-width=".5" d="M143.47656 357.01953l1.04688 6.94922"/></g><g clip-path="url(#Q)"><path fill="none" stroke="#000" stroke-linecap="round" stroke-linejoin="round" stroke-miterlimit="10" stroke-width=".5" d="M143.47656 357.01953l1.96875-1.46484"/></g><path fill="none" stroke="#000" stroke-linecap="round" stroke-linejoin="round" stroke-miterlimit="10" stroke-width=".5" d="M155.36328 357.57031l3.90234 5.84375m-3.90234-5.84375l1.16406-2.16015m10.58985 5.0664l7.02734.03125m-6.0039-.02344l-.57422-1.08593m15.09375 4.36328l2.5703-6.53906m-2.5703 6.53906l-2.44141.27734m13.92188-1.92969l6.23828-3.23437m-6.23828 3.23438l-2.01954-1.39454m2.92578.92579l-1.0078-.69922m13.42968 1.1914l6.21484-3.28125m-6.21484 3.28125l-2.03125-1.375m15.11719.83594l6.67187-2.20313m-6.67187 2.20313l-1.77344-1.69531m15.05469 1.58984l6.73828-1.99219m-6.73828 1.9922l-1.71875-1.75m15.59765 2.87108l5.60938-4.23437m-5.60938 4.23438l-2.22265-1.03516m17.4375 2.3125l1.8125-6.78906m-1.8125 6.78906l-2.39063.55469m16.17188-.46094l.8789-6.97266m-.8789 6.97266l-2.29297.8711m13.35156-2.10548l5.39063-4.5078m-5.39063 4.5078l-2.27344-.92187m15.85938 1.21094l4.85156-5.08204m-4.14844 4.33985l-1.17968-.32813m19.17187-3.37109l-5.91016 3.79688m5.05079-3.2422l1.0703.59766m12.8711 2.96485l-5.44531-4.4375m5.44531 4.4375l-.47265 2.41015m13.80468-2.42578l-5.47656-4.40234m4.67969 3.76172l-.23047 1.20312m14.73047-4.36719l-6.2539 3.20704m5.34374-2.7422l1.00781.70313m11.7461-2.66406l-3.3125 6.19922m2.83203-5.29688h1.22656m10.25781 5.64844l1.3125-6.90234m15.88282 4.84375l-6.44922-2.78516m5.51172 2.3789l.10156 1.22267m14.42187-1.84375l-6.98828-.73438m6.98828.73438l.91797 2.27734m11.89453-.80469l-5.98828-3.67578m5.1172 3.14063l-.07423 1.22265m14.59766-1.40234l-6.66016-2.25m5.6914 1.92187l.19923 1.21094m14.17578-2.80078l-6.84375 1.58594m13.60547-2.38282l6.26562 3.1836m-5.35547-2.71875l-.02343-1.23047"/><g clip-path="url(#R)"><path fill="none" stroke="#000" stroke-linecap="round" stroke-linejoin="round" stroke-miterlimit="10" stroke-width=".5" d="M144.61328 343.71875l-1.22656 6.91797"/></g><path fill="none" stroke="#000" stroke-linecap="round" stroke-linejoin="round" stroke-miterlimit="10" stroke-width=".5" d="M144.61328 343.71875l2.33594-.75781m-2.51563 1.76562l1.16797-.3789m11.36328-.66407l.69922 6.9922m-.69922-6.9922l2.04297-1.36328m-1.9414 2.3789l1.01953-.67968m11.82812-.28125l1.4336 6.8789m-1.22657-5.8789l.94532-.78515m11.63672 6.51171l2.48437-6.57421m-2.1211 5.61718l-1.21874.15625m12.4375-.61328l5.94922-3.74219m-5.94922 3.7422l-2.12891-1.22267m2.9961.67579l-1.06641-.60938m13.48828 1.11328l6-3.66015m-6 3.66015l-2.10938-1.25m2.98438.71875l-2.11328-1.25m14.60156 1.85156l5.90625-3.80078m-5.90625 3.80079l-2.14453-1.19922m3.0039.64843l-1.0703-.60156m13.35546.86328l6.2461-3.22265m-6.2461 3.22265l-2.01562-1.39844m2.92578.9297l-1.00781-.69923m13.60546 1.4961l5.85938-3.8789m-5.85938 3.8789l-2.15625-1.17188m16.04688 1.83985l4.71094-5.21485m-4.71094 5.21485l-2.3789-.59766m3.0625-.16016l-1.1875-.30078m13.54296.77735l5.26563-4.65235m-4.5 3.97656l-1.14844-.42968m15.3164 2.14453l2.02735-6.73047m-1.73438 5.75l-1.20312.23828m12.03515-4.0625l6.40625 2.8789m12.19532-4.26952l-4.16797 5.66015m4.16797-5.66015l2.42968.35937m11.2461-.05078l-4.89063 5.04297m15.76172-6.03516v7.02735m0-6.00391l1.08203-.57813m12.26172-.4453l-.0586 7.02734m.05079-6.00391l1.08984-.5664m13.78907-.07813l-3.17188 6.26953m2.71094-5.35938l1.22656-.02343m11.97266 5.61328l-2.01953-6.73047m14.98046 6.8164l-1.30859-6.90234m1.11719 5.89844l-.95703.76953m17.29297-3.66406l-6.96875.89844m20.17187-1.4375l-6.74219 1.97265m19.03125 1.63281l-4.6914-5.23437m14.84765-.80078l1.625 6.83594m-1.38672-5.84375l.91797-.8086m13.52344-.23828l-1.10156 6.9414m.9414-5.92968l1.16016-.39844"/><g clip-path="url(#S)"><path fill="none" stroke="#000" stroke-linecap="round" stroke-linejoin="round" stroke-miterlimit="10" stroke-width=".5" d="M145.28125 330.58984l-2.5625 6.54688"/></g><path fill="none" stroke="#000" stroke-linecap="round" stroke-linejoin="round" stroke-miterlimit="10" stroke-width=".5" d="M145.28125 330.58984l2.4336-.28125m-2.8086 1.23438l2.4375-.28516m12.0586-.22265l-4.17188 5.65625m4.17187-5.65625l2.42578.35937m-3.03515.46485l1.21484.17968m14.07813 1.19531l-6.91406 1.25782m5.91015-1.07422l.75781.96484m12.19141-3.34765l-4.17188 5.65625m3.56641-4.83204l1.21094.1797m7.60156 3.61327l6.04297-3.58203m-6.04297 3.58203l-2.09766-1.27343m15.1797.80859l6.5078-2.64844m-6.5078 2.64844l-1.88282-1.57031m2.83203 1.1836l-.9414-.78517m13.28906 1.125l6.54687-2.55468m-6.54687 2.55469l-1.85938-1.59766m2.8125 1.22656l-.92969-.80078m13.27735 1.13281l6.57422-2.47656m-6.57422 2.47656l-1.84375-1.6211m2.80078 1.26173l-.92188-.8125m13.41407 1.48047l6.3086-3.09375m-6.3086 3.09375l-1.98828-1.4375m2.90625.98828l-.9961-.72266m15.28125 2.90235l2.53125-6.5547m-2.53125 6.5547l-2.4375.29296m16.2461-.14453l1.54297-6.85547m-1.31641 5.85938l-1.1836.32422m15.48438.73047l-.88281-6.96875m.75781 5.95703l-1.0039.70703m15.30859.08203l-2.60938-6.52344m2.23047 5.57422l-.79297.9375m11.7461-6.45703l2.87109 6.41406m-2.45313-5.48047l.75391-.96875m10.10938 2.69141l6.9414 1.09766m-6.9414-1.09766l-.80079-2.3164m14.1172 2.3164l6.9375 1.10156m-5.9297-.9414l-.39843-1.16016m12.76172 2.38281l6.82421-1.66406m-6.82421 1.66406l-1.63282-1.83594m14.85157.82813l7.01953.35156m-7.01953-.35156l-1.04297-2.21875m2.0625 2.26953l-.51953-1.10937m12.83203 1.64062l6.98047-.8125m-6.98047.8125l-1.39453-2.01953m16.6953 4.78906l3.01173-6.35156m-3.01172 6.35156l-2.45313.10938m2.89063-1.03516l-1.22656.05469m17.08984.88281l-2.96094-6.375m13.57422-.10547l2.44531 6.58594m11.70703-6.78516l.76954 6.98438m10.08984-5.5586l5.6836 4.13282m-4.85938-3.53125l.17187-1.21485m13.41797-.37109l3.48438 6.10156m-2.97657-5.21484l.65625-1.03516"/><g clip-path="url(#T)"><path fill="none" stroke="#000" stroke-linecap="round" stroke-linejoin="round" stroke-miterlimit="10" stroke-width=".5" d="M145.7539 317.5039l-3.5078 6.08985"/></g><path fill="none" stroke="#000" stroke-linecap="round" stroke-linejoin="round" stroke-miterlimit="10" stroke-width=".5" d="M145.7539 317.5039l2.45313.08204m-2.96484.80469l2.45312.08203m-2.96094.80468l1.22657.03907m14.44531-.44141l-6.17969 3.34375m6.17969-3.34375l2.04297 1.35938m-2.9414-.8711l1.01952.67969m12.92578-1.58985l-5.64453 4.1875m5.64453-4.1875l2.21485 1.0547m9.19531-2.35157l-1.83594 6.78125m1.57032-5.79297l1.1953-.27344m8.09767 3.67188l6.73828-1.99219m-6.73828 1.99219l-1.71875-1.75m14.92968 1.27344l6.94922-1.03516m-6.94922 1.03516l-1.46094-1.97266m14.8672 2.39844l6.76562-1.88672m-6.76563 1.88672l-1.6914-1.77735m2.67578 1.5l-1.6914-1.77734m14.42187 2.96875l5.96484-3.71875m-5.96484 3.71875l-2.1211-1.22656m2.98828.6875l-1.05859-.61719m15.19531 2.5625l2.58985-6.53125m-2.58985 6.53125l-2.4375.27344m2.8125-1.22266L248.38281 323m14.5664.94922l1.77345-6.80078m-1.77344 6.80078l-2.38672.5664m15.51953-.62109l2.14063-6.6914m-2.14063 6.6914l-2.41797.4375m16.26172-.3125l1.08203-6.9414m-1.08203 6.9414l-2.32031.80469m2.47656-1.8164l-1.16015.40234m14.58984.64062l.53906-7.00781m-.53906 7.00781l-2.25.98438m2.32812-2.00391l-1.125.49219m11.94141-.71485l5.38281-4.51953m-5.38281 4.51953l-2.27734-.92187m14.77343-1.16797l7.01954-.33984m-7.01954.33984l-1.2578-2.10938m14.67577 1.07422l6.8125 1.73047m-6.8125-1.73047l-.58203-2.38671m14.07422 1.86328l6.45703 2.77343m-6.45703-2.77343l-.20313-2.44532m13.71485 5.60938l6.0625-3.55078m-5.17969 3.03515l-1.04297-.64453m18.99219 1.86719l-4.96875-4.96875m4.96875 4.96875l-.71875 2.34766m11.78516-1.32422l-.47266-7.01172m.47266 7.01172l-2.08204 1.29297m13.26954-1.83985l3.78125-5.92187m-3.23047 5.0625l-1.22266-.09766m14.76563 1.33203l2.22265-6.66797m-1.89844 5.69532l-1.21093.20312m13.74219.57813l3.14453-6.28516m8.80468 1.21484l5.875 3.85547m-5.875-3.85547l.22657-2.4453m12.70312 5.5078l6.64844-2.26953m-5.6836 1.9375l-.89453-.83984"/><path fill="#00f" fill-rule="evenodd" d="M383.80078 436.57813h8.61719v-10.14454h-8.61719v10.14454"/><path fill="azure" fill-rule="evenodd" d="M385.63281 428.26563h.83203v2.82421h3.28907v-2.82421h.83203v6.48046h-.83203v-2.91406h-3.28907v2.91406h-.83203v-6.48046"/><path fill="#00f" fill-rule="evenodd" d="M228.45703 423.26563h8.6211v-10.14844h-8.6211v10.14844"/><path fill="azure" fill-rule="evenodd" d="M230.28906 414.95313h.83594v2.8203h3.28516v-2.8203h.83203v6.48046h-.83203v-2.91796H231.125v2.91796h-.83594v-6.48046"/><path fill="#00f" fill-rule="evenodd" d="M366.04688 401.07422h8.61718v-10.14844h-8.61719v10.14844"/><path fill="azure" fill-rule="evenodd" d="M367.8789 392.76172h.83594v2.82031H372v-2.82031h.83203v6.47656H372v-2.91406h-3.28516v2.91406h-.83593v-6.47656"/><path fill="#ffffe0" fill-rule="evenodd" d="M248.53906 368.8125h22.17969v-10.19531h-22.17969v10.19531"/><path fill-rule="evenodd" d="M252.03906 360.45313h.50781v6.29296h-.78515v-4.48828h-1.39063v-.55469l.5586-.0664.2539-.05469.23047-.08984.20313-.14063.17187-.21094.14453-.29296.10547-.39454m4.8125 0l.23047.01954.21875.05468.20703.08985.19531.1211.1836.14843.17187.17578.3047.41797.24218.4961.17969.54687.10937.57812.03906.58985-.03906.59375-.10937.58593-.1797.55079-.24218.5039-.30469.42578-.17187.17969-.1836.15625-.1953.1211-.20704.09374-.21875.0547-.23047.01952-.23047-.01953-.21875-.05469-.20703-.09375L256 366.6875l-.1836-.15625-.17187-.17969-.30469-.42578-.24218-.5039-.1797-.55079-.10937-.58593-.03906-.59375h.83203l.02735.5625.08203.5078.1289.44142.16016.375.1914.30078.21094.22265.22266.13672.22656.04688.22656-.04688.22266-.13672.21094-.22265.1914-.30079.16016-.375.1289-.4414.07813-.50781.03125-.5625-.03125-.5625-.07812-.5-.1289-.4336-.16017-.36719-.1914-.29296-.21094-.21094-.22265-.13281-.22657-.04688-.22656.04688-.22266.1328-.21093.21095-.19141.29296-.16016.3672-.1289.43359-.08203.5-.02735.5625h-.83203l.03906-.58985.10938-.57812.17969-.54688.24218-.4961.3047-.41796.17187-.17578.18359-.14844.19531-.1211.20703-.08984.21875-.05468.23047-.01954m5.08985 0h.51171v6.29297h-.78906v-4.48828h-1.38672v-.55469l.5586-.0664.2539-.05469.22657-.08984.20703-.14063.17187-.21094.14063-.29296.10547-.39454m2.82421 2.17579h.78907l.01953-.31641.0586-.28906.09765-.25.14062-.21485.1797-.17578.22655-.1289.26563-.08204.30469-.02734.23828.02344.22656.0625.20313.10156.17968.13672.14844.17578.11328.20313.07031.23828.02344.26172-.01953.26953-.0664.22656-.10938.1914-.15625.17188-.19922.16016-.2461.16797-.63671.38671-.53516.31641-.4375.3164-.34765.32423-.26563.33593-.1875.35157-.125.36718-.07031.39454-.01953.41796h4.21093v-.73828h-3.33203l.08203-.28515.11329-.23829.14843-.19921.1875-.1797.23047-.17187.27735-.17578.71875-.41797.41406-.20703.34765-.23047.28125-.25.21875-.26562.16407-.28125.10937-.28125.0664-.28516.01954-.28125-.04297-.38281-.1211-.34766-.1875-.30859-.25-.26172-.30468-.21484-.34375-.15625-.38281-.10156-.40625-.03125-.4336.03125-.39844.09765-.35546.16797-.3047.23438-.24608.30468-.1875.375-.1172.44531-.03906.51954"/><path fill="#ffffe0" fill-rule="evenodd" d="M358.97656 356.92188h22.17969v-10.19141h-22.17969v10.1914"/><path fill-rule="evenodd" d="M362.47656 348.5625h.50781v6.29297h-.78906v-4.48828h-1.38672v-.55469l.5586-.0664.2539-.0547.23047-.08984.20313-.14062.17187-.21094.14063-.29297.10937-.39453m4.8125 0l.23047.01953.21875.05469.20703.08984.19531.1211.1836.14843.17187.17579.30079.41796.24609.4961.17969.54687.10937.57813.03906.58984-.03906.59375-.10937.58594-.1797.55078-.24608.5039-.30079.4297-.17187.17968-.1836.15235-.1953.12109-.20704.09375-.21875.05469-.23047.01953-.23047-.01953-.21875-.0547-.20703-.09374-.19531-.1211-.1875-.15234-.16797-.17969-.30469-.42968-.24218-.50391-.1797-.55078-.11327-.58594-.03516-.59375h.83203l.02735.5625.08203.50781.1289.44141.16016.375.1914.30078.21094.22266.22266.13672.22656.04687.22656-.04687.22266-.13672.21094-.22266.1914-.30078.16016-.375.125-.4414.08203-.50782.03125-.5625-.03125-.5586-.08203-.5039-.125-.4336-.16015-.36718-.19141-.29297-.21094-.21094-.22265-.1328-.22657-.04298-.22656.04297-.22266.13281-.21093.21094-.19141.29297-.16016.36719-.1289.4336-.08203.5039-.02735.5586h-.83203l.03516-.58985.11328-.57813.17969-.54687.24218-.4961.3047-.41796.16796-.17579.1875-.14843.19531-.1211.20703-.08984.21875-.05469.23047-.01953m5.08985 0h.51171v6.29297h-.78906v-4.48828h-1.38672v-.55469l.5586-.0664.2539-.0547.22657-.08984.20312-.14062.17578-.21094.14063-.29297.10547-.39453m2.82421 2.17578h.78907l.01953-.3164.0586-.28907.09765-.25.14062-.21484.1797-.17578.22265-.1289.26562-.07813.3086-.02735.23828.01953.22265.0625.20704.10157.17968.13671.14844.17579.11328.20312.07031.23828.02344.26563-.01953.26562-.0664.22656-.10938.19141-.15625.17188-.19922.16015-.25.16797-.63281.38672-.53516.3164-.4414.31641-.34375.32422-.26563.33594-.1875.35156-.125.36719-.07031.39453-.01953.41797h4.21093v-.73828h-3.33203l.08203-.28516.11329-.23828.14843-.19922.1875-.17969.23047-.17187.27735-.17578.71875-.41797.41406-.20313.34765-.23437.28125-.25.21875-.26563.16407-.27734.10937-.28516.0625-.28515.02344-.28125-.04297-.38281-.1211-.34766-.1875-.3086-.25-.26171-.30468-.21485-.34375-.15625-.38281-.10156-.40625-.03125-.4336.03125-.39844.09766-.35546.16796-.3047.23438-.24608.30469-.1875.375-.1172.44531-.03906.51953"/><path fill="#ffffe0" fill-rule="evenodd" d="M248.53906 416.13672h22.17969v-10.1914h-22.17969v10.1914"/><path fill-rule="evenodd" d="M252.03906 407.77734h.50781v6.29688h-.78515v-4.48828h-1.39063v-.5586l.5586-.0625.2539-.05468.23047-.08985.20313-.14062.17187-.21094.14453-.29297.10547-.39844m4.8125 0l.23047.01954.21875.05859.20703.08594.19531.12109.1836.15234.17187.17579.3047.41796.24218.4922.17969.54687.10937.58203.03906.58984-.03906.59375-.10937.58203-.1797.55469-.24218.5039-.30469.42579-.17187.17969-.1836.15234-.1953.125-.20704.08984-.21875.0586-.23047.01953-.23047-.01953-.21875-.0586-.20703-.08984-.19531-.125-.1836-.15235-.17187-.17968-.30469-.42578-.24218-.50391-.1797-.55469-.10937-.58203-.03906-.59375h.83203l.02735.5625.08203.5039.1289.44532.16016.375.1914.30078.21094.21875.22266.13672.22656.04688.22656-.04688.22266-.13672.21094-.21875.1914-.30078.16016-.375.1289-.44531.07813-.5039.03125-.5625-.03125-.5625-.07812-.5-.1289-.4336-.16017-.36719-.1914-.29297-.21094-.21484-.22265-.1289-.22657-.04688-.22656.04687-.22266.1289-.21093.21485-.19141.29297-.16016.36719-.1289.4336-.08203.5-.02735.5625h-.83203l.03906-.58985.10938-.58203.17969-.54688.24218-.49219.3047-.41796.17187-.17579.18359-.15234.19531-.1211.20703-.08593.21875-.0586.23047-.01953m5.08985 0h.51171v6.29688h-.78906v-4.48828h-1.38672v-.5586l.5586-.0625.2539-.05468.22657-.08985.20703-.14062.17187-.21094.14063-.29297.10547-.39844m6.80468 1.6211h-.78515l-.05078-.21094-.08204-.1875-.10937-.16016-.1289-.1289-.14844-.10547-.16016-.07422-.16797-.04297-.17187-.01562-.32813.04296-.28515.1172-.2461.1953-.20312.26954-.16016.33984-.11719.40234-.07031.46875-.02344.52344.1875-.19922.1875-.16015.1836-.1211.1875-.08984.1875-.0625.1914-.03516.40235-.02344.30468.03125.32422.08985.3125.15625.29688.21875.2539.28515.19922.35157.07422.19922.05078.21875.03125.23437.0039.25-.78905.04688-.02735-.25782-.07812-.2539-.1211-.23438-.16015-.20703-.1914-.17969-.22267-.13671-.23828-.08985-.2539-.03125-.25781.03125-.23829.08985-.22265.13671-.1914.1797-.16017.20702-.12109.23438-.07812.2539-.02735.25782.02735.2578.07812.25.1211.23438.16015.21094.1914.17969.22266.13672.23829.08594.2578.03125.25391-.03125.23829-.08594.22265-.13672.1914-.17969.16016-.21094.1211-.23437.07812-.25.02735-.25781.78906-.04688-.03125.3711-.09375.37109-.15625.35937-.22266.32813-.28906.28125-.17188.1211-.1875.10156-.20703.08203-.22265.0625-.24219.03906-.25781.01172-.28516-.01563-.26172-.04687-.23437-.07813-.21875-.10156-.1914-.13281-.17579-.15625-.15234-.17969-.13672-.20313-.11719-.22265-.09766-.24219-.14843-.53515-.08594-.59375-.02344-.64063.03516-.74219.11719-.66406.18359-.57813.1211-.2539.13671-.23047.15235-.20703.17187-.1836.1875-.15234.19922-.1289.21875-.10157.23437-.07422.2461-.04687.26172-.01563.36718.03516.33204.09766.29687.14843.2539.19922.21094.24219.16797.27344.11328.30469.0625.3203"/><path fill="#ffffe0" fill-rule="evenodd" d="M337.30469 460.83594h22.17969v-10.19531h-22.1797v10.1953"/><path fill-rule="evenodd" d="M340.80469 452.47656h.50781v6.29297h-.78516v-4.48828h-1.39062v-.55469l.5625-.0664.25-.0547.23047-.08983.20312-.14063.17578-.21094.14063-.29297.10547-.39453m4.8125 0l.23047.01953.21875.0547.20703.08983.19922.1211.18359.14844.17188.17578.30078.41797.24218.49609.1797.54688.11327.57812.03906.58984-.03906.59375-.11328.58594-.17969.55078-.24218.5039-.30079.42579-.17187.17969-.1836.15625-.19921.1211-.20703.09374-.21875.05469-.23047.01953-.22656-.01953-.21875-.05469-.21094-.09375-.19531-.1211-.1836-.15624-.17187-.17969-.30079-.42578-.24218-.5039-.1836-.55079-.10937-.58594-.03906-.59375h.83203l.03125.5625.08203.50782.125.4414.16406.375.1875.30078.21094.22266.22265.13672.22657.04687.22656-.04687.22266-.13672.21093-.22266.19141-.30078.16406-.375.125-.4414.08203-.50782.02735-.5625-.02735-.5625-.08203-.5-.125-.43359-.16406-.36719-.1914-.29297-.21094-.21093-.22266-.13282-.22656-.04687-.22656.04687-.22266.13282-.21094.21093-.1875.29297-.16406.36719-.125.4336-.08203.5-.03125.5625h-.83203l.03906-.58985.10937-.57813.1836-.54687.24219-.4961.30078-.41796.17187-.17578.1836-.14844.1953-.1211.21094-.08984.21875-.05469.22657-.01953m5.09375 0h.50781v6.29297h-.78516v-4.48828h-1.39062v-.55469l.5625-.0664.25-.0547.23047-.08983.20312-.14063.17188-.21094.14453-.29297.10547-.39453m6.80469 1.61719h-.78907l-.05078-.21094-.08203-.1875-.10547-.15625-.13281-.13281-.14453-.10156-.16016-.07422-.16797-.04688-.17187-.01562-.32813.04297-.28906.1211-.2461.1953-.20312.26563-.16015.33984-.1172.40235-.0703.46875-.02344.52734.1914-.20313.1836-.16015.1875-.1211.1836-.08984.1875-.0586.1914-.03906.40234-.02343.3086.03125.3203.08984.31641.15625.29297.21875.25781.28516.19532.35156.07422.19922.05078.21875.03125.23437.0039.25-.78515.04688-.02735-.25781-.07812-.25-.1211-.23438-.16015-.21094-.19531-.17968-.21875-.13672-.2422-.08594-.2539-.03125-.2539.03125-.2422.08594-.21874.13672-.19531.17968-.16016.21094-.1211.23438-.07812.25-.02734.2578.02734.26173.07813.25.12109.23437.16016.21094.1953.17578.21876.13672.24219.08984.2539.03125.2539-.03125.2422-.08984.21875-.13672.1953-.17578.16017-.21094.12109-.23437.07812-.25.02735-.26172.78515-.04688-.03125.3711-.08984.375-.16016.35547-.22265.32812-.28906.28516-.17188.11719-.1875.10156-.20313.08203-.22656.0625-.24219.03906-.2578.01172-.28516-.01563-.25782-.04687-.23828-.07422-.21484-.10547-.19531-.13281-.17579-.15625-.15234-.17969-.13672-.20312-.11719-.22266-.09765-.23828-.14844-.53516-.08203-.59375-.02734-.64062.03906-.7461.11328-.66015.1875-.57813.11719-.2578.13672-.23048.15625-.20703.16796-.17969.1875-.15625.20313-.1289.21875-.10156.23047-.07422.2461-.04297.26562-.01563.36328.03125.33203.09766.29688.15234.2539.19922.21485.23828.16406.27735.11719.30078.0625.32031"/><path fill="#ffffe0" fill-rule="evenodd" d="M386.89453 467.8789h22.17969v-10.1914h-22.17969v10.1914"/><path fill-rule="evenodd" d="M390.39453 459.51953h.50781v6.29688h-.78515v-4.4922h-1.38672v-.55468l.5586-.0625.25-.05469.23046-.08984.20313-.14063.17578-.21093.14062-.29688.10547-.39453m4.8125 0l.23047.01953.21875.05469.20703.08984.19922.1211.1836.14844.17187.17578.30078.42187.24219.49219.17969.54687.11328.57813.03906.59375-.03906.59375-.11329.58203-.17968.55469-.24219.5-.30078.42969-.17188.17968-.18359.15235-.19922.125-.20703.08984-.21875.0586-.23047.01952-.22656-.01953-.21875-.05859-.21094-.08984-.19531-.125-.1836-.15235-.17187-.17969-.30078-.42968-.24219-.5-.17969-.55469-.11328-.58203-.03906-.59375h.83203l.03125.5625.08203.5039.125.44532.16406.375.1875.30078.21094.21875.22266.13672.22656.04687.22656-.04687.22266-.13672.21094-.21875.1914-.30078.16407-.375.125-.44531.08203-.50391.02734-.5625-.02734-.5625-.08203-.5-.125-.4375-.16407-.36328-.1914-.29297-.21094-.21485-.22266-.1328-.22656-.04298-.22656.04297-.22266.13281-.21094.21485-.1875.29297-.16406.36328-.125.4375-.08203.5-.03125.5625h-.83203l.03906-.59375.11328-.57813.1797-.54687.24218-.49219.30078-.42187.17188-.17579.18359-.14843.19531-.1211.21094-.08984.21875-.05469.22656-.01953m5.09375 0h.50781v6.29688h-.78515v-4.4922h-1.39063v-.55468l.5625-.0625.25-.05469.23047-.08984.20313-.14063.17578-.21093.14062-.29688.10547-.39453m6.80469 1.6211h-.78906l-.05079-.21094-.08203-.1875-.10546-.16016-.13282-.1289-.14453-.10547-.16015-.07422-.16797-.04297-.17188-.01563-.32812.03907-.28907.12109-.24609.19531-.20313.26953-.16015.33594-.11719.40625-.07031.46485-.02344.52734.1914-.20313.1836-.15625.1875-.125.1836-.08593.1875-.0625.1914-.03516.40235-.02344.30859.02735.32031.09375.3164.15625.29298.21875.2578.28515.19532.34766.07422.20312.05078.21485.03125.23437.0039.2539-.78515.04688-.02734-.26171-.07813-.25-.1211-.23438-.16015-.21094-.19531-.17578-.21875-.13672-.24219-.08984-.2539-.03125-.25391.03125-.24219.08984-.21875.13672-.19531.17578-.16016.21094-.12109.23438-.07813.25-.02734.26171.02735.25782.07812.25.1211.23437.16015.21094.19531.17969.21875.13671.24219.08594.2539.03125.25391-.03125.24219-.08594.21875-.13671.19531-.1797.16016-.21093.1211-.23437.07812-.25.02734-.25782.78516-.04687-.03125.3711-.08985.37109-.16015.35937-.22266.32813-.28906.28125-.17188.12109-.1875.10156-.20312.08203-.22656.0625-.23829.03907-.26171.01171-.28516-.01562-.25781-.04688-.23828-.07812-.21485-.10547-.19531-.1289-.17578-.15625-.15235-.1797-.13671-.20312-.1172-.22265-.09765-.2422-.14844-.53515-.08203-.59375-.02734-.64062.03906-.74219.11328-.66406.1875-.57813.1172-.2539.13671-.23047.15625-.20703.16797-.1836.1875-.15625.20312-.1289.21875-.10157.23047-.0703.2461-.04688.26562-.01563.36328.03516.33203.09375.29688.15234.2539.19922.21485.24219.16406.27344.11719.30468.0625.32031"/></g></defs><use xlink:href="#U"/></svg>